<?xml version="1.0" encoding="utf-8" standalone="no"?>
<!DOCTYPE svg PUBLIC "-//W3C//DTD SVG 1.1//EN"
  "http://www.w3.org/Graphics/SVG/1.1/DTD/svg11.dtd">
<svg xmlns:xlink="http://www.w3.org/1999/xlink" width="460.8pt" height="345.6pt" viewBox="0 0 460.8 345.6" xmlns="http://www.w3.org/2000/svg" version="1.1">
 <metadata>
  <rdf:RDF xmlns:dc="http://purl.org/dc/elements/1.1/" xmlns:cc="http://creativecommons.org/ns#" xmlns:rdf="http://www.w3.org/1999/02/22-rdf-syntax-ns#">
   <cc:Work>
    <dc:type rdf:resource="http://purl.org/dc/dcmitype/StillImage"/>
    <dc:date>2025-11-22T14:05:41.387455</dc:date>
    <dc:format>image/svg+xml</dc:format>
    <dc:creator>
     <cc:Agent>
      <dc:title>Matplotlib v3.10.6, https://matplotlib.org/</dc:title>
     </cc:Agent>
    </dc:creator>
   </cc:Work>
  </rdf:RDF>
 </metadata>
 <defs>
  <style type="text/css">*{stroke-linejoin: round; stroke-linecap: butt}</style>
 </defs>
 <g id="figure_1">
  <g id="patch_1">
   <path d="M 0 345.6 
L 460.8 345.6 
L 460.8 0 
L 0 0 
z
" style="fill: #ffffff"/>
  </g>
  <g id="axes_1">
   <g id="patch_2">
    <path d="M 57.6 307.584 
L 414.72 307.584 
L 414.72 41.472 
L 57.6 41.472 
z
" style="fill: #ffffff"/>
   </g>
   <g id="matplotlib.axis_1">
    <g id="xtick_1">
     <g id="line2d_1">
      <defs>
       <path id="m2a87d0065e" d="M 0 0 
L 0 3.5 
" style="stroke: #000000; stroke-width: 0.8"/>
      </defs>
      <g>
       <use xlink:href="#m2a87d0065e" x="73.832727" y="307.584" style="stroke: #000000; stroke-width: 0.8"/>
      </g>
     </g>
     <g id="text_1">
      <!-- $\mathdefault{10^{0}}$ -->
      <g transform="translate(65.032727 322.182437) scale(0.1 -0.1)">
       <defs>
        <path id="DejaVuSans-31" d="M 794 531 
L 1825 531 
L 1825 4091 
L 703 3866 
L 703 4441 
L 1819 4666 
L 2450 4666 
L 2450 531 
L 3481 531 
L 3481 0 
L 794 0 
L 794 531 
z
" transform="scale(0.015625)"/>
        <path id="DejaVuSans-30" d="M 2034 4250 
Q 1547 4250 1301 3770 
Q 1056 3291 1056 2328 
Q 1056 1369 1301 889 
Q 1547 409 2034 409 
Q 2525 409 2770 889 
Q 3016 1369 3016 2328 
Q 3016 3291 2770 3770 
Q 2525 4250 2034 4250 
z
M 2034 4750 
Q 2819 4750 3233 4129 
Q 3647 3509 3647 2328 
Q 3647 1150 3233 529 
Q 2819 -91 2034 -91 
Q 1250 -91 836 529 
Q 422 1150 422 2328 
Q 422 3509 836 4129 
Q 1250 4750 2034 4750 
z
" transform="scale(0.015625)"/>
       </defs>
       <use xlink:href="#DejaVuSans-31" transform="translate(0 0.765625)"/>
       <use xlink:href="#DejaVuSans-30" transform="translate(63.623047 0.765625)"/>
       <use xlink:href="#DejaVuSans-30" transform="translate(128.203125 39.046875) scale(0.7)"/>
      </g>
     </g>
    </g>
    <g id="xtick_2">
     <g id="line2d_2">
      <g>
       <use xlink:href="#m2a87d0065e" x="161.603693" y="307.584" style="stroke: #000000; stroke-width: 0.8"/>
      </g>
     </g>
     <g id="text_2">
      <!-- $\mathdefault{10^{1}}$ -->
      <g transform="translate(152.803693 322.182437) scale(0.1 -0.1)">
       <use xlink:href="#DejaVuSans-31" transform="translate(0 0.684375)"/>
       <use xlink:href="#DejaVuSans-30" transform="translate(63.623047 0.684375)"/>
       <use xlink:href="#DejaVuSans-31" transform="translate(128.203125 38.965625) scale(0.7)"/>
      </g>
     </g>
    </g>
    <g id="xtick_3">
     <g id="line2d_3">
      <g>
       <use xlink:href="#m2a87d0065e" x="249.374659" y="307.584" style="stroke: #000000; stroke-width: 0.8"/>
      </g>
     </g>
     <g id="text_3">
      <!-- $\mathdefault{10^{2}}$ -->
      <g transform="translate(240.574659 322.182437) scale(0.1 -0.1)">
       <defs>
        <path id="DejaVuSans-32" d="M 1228 531 
L 3431 531 
L 3431 0 
L 469 0 
L 469 531 
Q 828 903 1448 1529 
Q 2069 2156 2228 2338 
Q 2531 2678 2651 2914 
Q 2772 3150 2772 3378 
Q 2772 3750 2511 3984 
Q 2250 4219 1831 4219 
Q 1534 4219 1204 4116 
Q 875 4013 500 3803 
L 500 4441 
Q 881 4594 1212 4672 
Q 1544 4750 1819 4750 
Q 2544 4750 2975 4387 
Q 3406 4025 3406 3419 
Q 3406 3131 3298 2873 
Q 3191 2616 2906 2266 
Q 2828 2175 2409 1742 
Q 1991 1309 1228 531 
z
" transform="scale(0.015625)"/>
       </defs>
       <use xlink:href="#DejaVuSans-31" transform="translate(0 0.765625)"/>
       <use xlink:href="#DejaVuSans-30" transform="translate(63.623047 0.765625)"/>
       <use xlink:href="#DejaVuSans-32" transform="translate(128.203125 39.046875) scale(0.7)"/>
      </g>
     </g>
    </g>
    <g id="xtick_4">
     <g id="line2d_4">
      <g>
       <use xlink:href="#m2a87d0065e" x="337.145625" y="307.584" style="stroke: #000000; stroke-width: 0.8"/>
      </g>
     </g>
     <g id="text_4">
      <!-- $\mathdefault{10^{3}}$ -->
      <g transform="translate(328.345625 322.182437) scale(0.1 -0.1)">
       <defs>
        <path id="DejaVuSans-33" d="M 2597 2516 
Q 3050 2419 3304 2112 
Q 3559 1806 3559 1356 
Q 3559 666 3084 287 
Q 2609 -91 1734 -91 
Q 1441 -91 1130 -33 
Q 819 25 488 141 
L 488 750 
Q 750 597 1062 519 
Q 1375 441 1716 441 
Q 2309 441 2620 675 
Q 2931 909 2931 1356 
Q 2931 1769 2642 2001 
Q 2353 2234 1838 2234 
L 1294 2234 
L 1294 2753 
L 1863 2753 
Q 2328 2753 2575 2939 
Q 2822 3125 2822 3475 
Q 2822 3834 2567 4026 
Q 2313 4219 1838 4219 
Q 1578 4219 1281 4162 
Q 984 4106 628 3988 
L 628 4550 
Q 988 4650 1302 4700 
Q 1616 4750 1894 4750 
Q 2613 4750 3031 4423 
Q 3450 4097 3450 3541 
Q 3450 3153 3228 2886 
Q 3006 2619 2597 2516 
z
" transform="scale(0.015625)"/>
       </defs>
       <use xlink:href="#DejaVuSans-31" transform="translate(0 0.765625)"/>
       <use xlink:href="#DejaVuSans-30" transform="translate(63.623047 0.765625)"/>
       <use xlink:href="#DejaVuSans-33" transform="translate(128.203125 39.046875) scale(0.7)"/>
      </g>
     </g>
    </g>
    <g id="xtick_5">
     <g id="line2d_5">
      <defs>
       <path id="m8917a3d874" d="M 0 0 
L 0 2 
" style="stroke: #000000; stroke-width: 0.6"/>
      </defs>
      <g>
       <use xlink:href="#m8917a3d874" x="60.236833" y="307.584" style="stroke: #000000; stroke-width: 0.6"/>
      </g>
     </g>
    </g>
    <g id="xtick_6">
     <g id="line2d_6">
      <g>
       <use xlink:href="#m8917a3d874" x="65.326842" y="307.584" style="stroke: #000000; stroke-width: 0.6"/>
      </g>
     </g>
    </g>
    <g id="xtick_7">
     <g id="line2d_7">
      <g>
       <use xlink:href="#m8917a3d874" x="69.816548" y="307.584" style="stroke: #000000; stroke-width: 0.6"/>
      </g>
     </g>
    </g>
    <g id="xtick_8">
     <g id="line2d_8">
      <g>
       <use xlink:href="#m8917a3d874" x="100.254421" y="307.584" style="stroke: #000000; stroke-width: 0.6"/>
      </g>
     </g>
    </g>
    <g id="xtick_9">
     <g id="line2d_9">
      <g>
       <use xlink:href="#m8917a3d874" x="115.710121" y="307.584" style="stroke: #000000; stroke-width: 0.6"/>
      </g>
     </g>
    </g>
    <g id="xtick_10">
     <g id="line2d_10">
      <g>
       <use xlink:href="#m8917a3d874" x="126.676114" y="307.584" style="stroke: #000000; stroke-width: 0.6"/>
      </g>
     </g>
    </g>
    <g id="xtick_11">
     <g id="line2d_11">
      <g>
       <use xlink:href="#m8917a3d874" x="135.182" y="307.584" style="stroke: #000000; stroke-width: 0.6"/>
      </g>
     </g>
    </g>
    <g id="xtick_12">
     <g id="line2d_12">
      <g>
       <use xlink:href="#m8917a3d874" x="142.131814" y="307.584" style="stroke: #000000; stroke-width: 0.6"/>
      </g>
     </g>
    </g>
    <g id="xtick_13">
     <g id="line2d_13">
      <g>
       <use xlink:href="#m8917a3d874" x="148.007798" y="307.584" style="stroke: #000000; stroke-width: 0.6"/>
      </g>
     </g>
    </g>
    <g id="xtick_14">
     <g id="line2d_14">
      <g>
       <use xlink:href="#m8917a3d874" x="153.097808" y="307.584" style="stroke: #000000; stroke-width: 0.6"/>
      </g>
     </g>
    </g>
    <g id="xtick_15">
     <g id="line2d_15">
      <g>
       <use xlink:href="#m8917a3d874" x="157.587514" y="307.584" style="stroke: #000000; stroke-width: 0.6"/>
      </g>
     </g>
    </g>
    <g id="xtick_16">
     <g id="line2d_16">
      <g>
       <use xlink:href="#m8917a3d874" x="188.025387" y="307.584" style="stroke: #000000; stroke-width: 0.6"/>
      </g>
     </g>
    </g>
    <g id="xtick_17">
     <g id="line2d_17">
      <g>
       <use xlink:href="#m8917a3d874" x="203.481086" y="307.584" style="stroke: #000000; stroke-width: 0.6"/>
      </g>
     </g>
    </g>
    <g id="xtick_18">
     <g id="line2d_18">
      <g>
       <use xlink:href="#m8917a3d874" x="214.44708" y="307.584" style="stroke: #000000; stroke-width: 0.6"/>
      </g>
     </g>
    </g>
    <g id="xtick_19">
     <g id="line2d_19">
      <g>
       <use xlink:href="#m8917a3d874" x="222.952965" y="307.584" style="stroke: #000000; stroke-width: 0.6"/>
      </g>
     </g>
    </g>
    <g id="xtick_20">
     <g id="line2d_20">
      <g>
       <use xlink:href="#m8917a3d874" x="229.90278" y="307.584" style="stroke: #000000; stroke-width: 0.6"/>
      </g>
     </g>
    </g>
    <g id="xtick_21">
     <g id="line2d_21">
      <g>
       <use xlink:href="#m8917a3d874" x="235.778764" y="307.584" style="stroke: #000000; stroke-width: 0.6"/>
      </g>
     </g>
    </g>
    <g id="xtick_22">
     <g id="line2d_22">
      <g>
       <use xlink:href="#m8917a3d874" x="240.868774" y="307.584" style="stroke: #000000; stroke-width: 0.6"/>
      </g>
     </g>
    </g>
    <g id="xtick_23">
     <g id="line2d_23">
      <g>
       <use xlink:href="#m8917a3d874" x="245.35848" y="307.584" style="stroke: #000000; stroke-width: 0.6"/>
      </g>
     </g>
    </g>
    <g id="xtick_24">
     <g id="line2d_24">
      <g>
       <use xlink:href="#m8917a3d874" x="275.796352" y="307.584" style="stroke: #000000; stroke-width: 0.6"/>
      </g>
     </g>
    </g>
    <g id="xtick_25">
     <g id="line2d_25">
      <g>
       <use xlink:href="#m8917a3d874" x="291.252052" y="307.584" style="stroke: #000000; stroke-width: 0.6"/>
      </g>
     </g>
    </g>
    <g id="xtick_26">
     <g id="line2d_26">
      <g>
       <use xlink:href="#m8917a3d874" x="302.218046" y="307.584" style="stroke: #000000; stroke-width: 0.6"/>
      </g>
     </g>
    </g>
    <g id="xtick_27">
     <g id="line2d_27">
      <g>
       <use xlink:href="#m8917a3d874" x="310.723931" y="307.584" style="stroke: #000000; stroke-width: 0.6"/>
      </g>
     </g>
    </g>
    <g id="xtick_28">
     <g id="line2d_28">
      <g>
       <use xlink:href="#m8917a3d874" x="317.673746" y="307.584" style="stroke: #000000; stroke-width: 0.6"/>
      </g>
     </g>
    </g>
    <g id="xtick_29">
     <g id="line2d_29">
      <g>
       <use xlink:href="#m8917a3d874" x="323.54973" y="307.584" style="stroke: #000000; stroke-width: 0.6"/>
      </g>
     </g>
    </g>
    <g id="xtick_30">
     <g id="line2d_30">
      <g>
       <use xlink:href="#m8917a3d874" x="328.639739" y="307.584" style="stroke: #000000; stroke-width: 0.6"/>
      </g>
     </g>
    </g>
    <g id="xtick_31">
     <g id="line2d_31">
      <g>
       <use xlink:href="#m8917a3d874" x="333.129446" y="307.584" style="stroke: #000000; stroke-width: 0.6"/>
      </g>
     </g>
    </g>
    <g id="xtick_32">
     <g id="line2d_32">
      <g>
       <use xlink:href="#m8917a3d874" x="363.567318" y="307.584" style="stroke: #000000; stroke-width: 0.6"/>
      </g>
     </g>
    </g>
    <g id="xtick_33">
     <g id="line2d_33">
      <g>
       <use xlink:href="#m8917a3d874" x="379.023018" y="307.584" style="stroke: #000000; stroke-width: 0.6"/>
      </g>
     </g>
    </g>
    <g id="xtick_34">
     <g id="line2d_34">
      <g>
       <use xlink:href="#m8917a3d874" x="389.989012" y="307.584" style="stroke: #000000; stroke-width: 0.6"/>
      </g>
     </g>
    </g>
    <g id="xtick_35">
     <g id="line2d_35">
      <g>
       <use xlink:href="#m8917a3d874" x="398.494897" y="307.584" style="stroke: #000000; stroke-width: 0.6"/>
      </g>
     </g>
    </g>
    <g id="xtick_36">
     <g id="line2d_36">
      <g>
       <use xlink:href="#m8917a3d874" x="405.444712" y="307.584" style="stroke: #000000; stroke-width: 0.6"/>
      </g>
     </g>
    </g>
    <g id="xtick_37">
     <g id="line2d_37">
      <g>
       <use xlink:href="#m8917a3d874" x="411.320696" y="307.584" style="stroke: #000000; stroke-width: 0.6"/>
      </g>
     </g>
    </g>
   </g>
   <g id="matplotlib.axis_2">
    <g id="ytick_1">
     <g id="line2d_38">
      <defs>
       <path id="m6587480210" d="M 0 0 
L -3.5 0 
" style="stroke: #000000; stroke-width: 0.8"/>
      </defs>
      <g>
       <use xlink:href="#m6587480210" x="57.6" y="307.584" style="stroke: #000000; stroke-width: 0.8"/>
      </g>
     </g>
     <g id="text_5">
      <!-- $\mathdefault{10^{-12}}$ -->
      <g transform="translate(22.7 311.383219) scale(0.1 -0.1)">
       <defs>
        <path id="DejaVuSans-2212" d="M 678 2272 
L 4684 2272 
L 4684 1741 
L 678 1741 
L 678 2272 
z
" transform="scale(0.015625)"/>
       </defs>
       <use xlink:href="#DejaVuSans-31" transform="translate(0 0.765625)"/>
       <use xlink:href="#DejaVuSans-30" transform="translate(63.623047 0.765625)"/>
       <use xlink:href="#DejaVuSans-2212" transform="translate(128.203125 39.046875) scale(0.7)"/>
       <use xlink:href="#DejaVuSans-31" transform="translate(186.855469 39.046875) scale(0.7)"/>
       <use xlink:href="#DejaVuSans-32" transform="translate(231.391602 39.046875) scale(0.7)"/>
      </g>
     </g>
    </g>
    <g id="ytick_2">
     <g id="line2d_39">
      <g>
       <use xlink:href="#m6587480210" x="57.6" y="263.232" style="stroke: #000000; stroke-width: 0.8"/>
      </g>
     </g>
     <g id="text_6">
      <!-- $\mathdefault{10^{-10}}$ -->
      <g transform="translate(22.7 267.031219) scale(0.1 -0.1)">
       <use xlink:href="#DejaVuSans-31" transform="translate(0 0.765625)"/>
       <use xlink:href="#DejaVuSans-30" transform="translate(63.623047 0.765625)"/>
       <use xlink:href="#DejaVuSans-2212" transform="translate(128.203125 39.046875) scale(0.7)"/>
       <use xlink:href="#DejaVuSans-31" transform="translate(186.855469 39.046875) scale(0.7)"/>
       <use xlink:href="#DejaVuSans-30" transform="translate(231.391602 39.046875) scale(0.7)"/>
      </g>
     </g>
    </g>
    <g id="ytick_3">
     <g id="line2d_40">
      <g>
       <use xlink:href="#m6587480210" x="57.6" y="218.88" style="stroke: #000000; stroke-width: 0.8"/>
      </g>
     </g>
     <g id="text_7">
      <!-- $\mathdefault{10^{-8}}$ -->
      <g transform="translate(27.1 222.679219) scale(0.1 -0.1)">
       <defs>
        <path id="DejaVuSans-38" d="M 2034 2216 
Q 1584 2216 1326 1975 
Q 1069 1734 1069 1313 
Q 1069 891 1326 650 
Q 1584 409 2034 409 
Q 2484 409 2743 651 
Q 3003 894 3003 1313 
Q 3003 1734 2745 1975 
Q 2488 2216 2034 2216 
z
M 1403 2484 
Q 997 2584 770 2862 
Q 544 3141 544 3541 
Q 544 4100 942 4425 
Q 1341 4750 2034 4750 
Q 2731 4750 3128 4425 
Q 3525 4100 3525 3541 
Q 3525 3141 3298 2862 
Q 3072 2584 2669 2484 
Q 3125 2378 3379 2068 
Q 3634 1759 3634 1313 
Q 3634 634 3220 271 
Q 2806 -91 2034 -91 
Q 1263 -91 848 271 
Q 434 634 434 1313 
Q 434 1759 690 2068 
Q 947 2378 1403 2484 
z
M 1172 3481 
Q 1172 3119 1398 2916 
Q 1625 2713 2034 2713 
Q 2441 2713 2670 2916 
Q 2900 3119 2900 3481 
Q 2900 3844 2670 4047 
Q 2441 4250 2034 4250 
Q 1625 4250 1398 4047 
Q 1172 3844 1172 3481 
z
" transform="scale(0.015625)"/>
       </defs>
       <use xlink:href="#DejaVuSans-31" transform="translate(0 0.765625)"/>
       <use xlink:href="#DejaVuSans-30" transform="translate(63.623047 0.765625)"/>
       <use xlink:href="#DejaVuSans-2212" transform="translate(128.203125 39.046875) scale(0.7)"/>
       <use xlink:href="#DejaVuSans-38" transform="translate(186.855469 39.046875) scale(0.7)"/>
      </g>
     </g>
    </g>
    <g id="ytick_4">
     <g id="line2d_41">
      <g>
       <use xlink:href="#m6587480210" x="57.6" y="174.528" style="stroke: #000000; stroke-width: 0.8"/>
      </g>
     </g>
     <g id="text_8">
      <!-- $\mathdefault{10^{-6}}$ -->
      <g transform="translate(27.1 178.327219) scale(0.1 -0.1)">
       <defs>
        <path id="DejaVuSans-36" d="M 2113 2584 
Q 1688 2584 1439 2293 
Q 1191 2003 1191 1497 
Q 1191 994 1439 701 
Q 1688 409 2113 409 
Q 2538 409 2786 701 
Q 3034 994 3034 1497 
Q 3034 2003 2786 2293 
Q 2538 2584 2113 2584 
z
M 3366 4563 
L 3366 3988 
Q 3128 4100 2886 4159 
Q 2644 4219 2406 4219 
Q 1781 4219 1451 3797 
Q 1122 3375 1075 2522 
Q 1259 2794 1537 2939 
Q 1816 3084 2150 3084 
Q 2853 3084 3261 2657 
Q 3669 2231 3669 1497 
Q 3669 778 3244 343 
Q 2819 -91 2113 -91 
Q 1303 -91 875 529 
Q 447 1150 447 2328 
Q 447 3434 972 4092 
Q 1497 4750 2381 4750 
Q 2619 4750 2861 4703 
Q 3103 4656 3366 4563 
z
" transform="scale(0.015625)"/>
       </defs>
       <use xlink:href="#DejaVuSans-31" transform="translate(0 0.765625)"/>
       <use xlink:href="#DejaVuSans-30" transform="translate(63.623047 0.765625)"/>
       <use xlink:href="#DejaVuSans-2212" transform="translate(128.203125 39.046875) scale(0.7)"/>
       <use xlink:href="#DejaVuSans-36" transform="translate(186.855469 39.046875) scale(0.7)"/>
      </g>
     </g>
    </g>
    <g id="ytick_5">
     <g id="line2d_42">
      <g>
       <use xlink:href="#m6587480210" x="57.6" y="130.176" style="stroke: #000000; stroke-width: 0.8"/>
      </g>
     </g>
     <g id="text_9">
      <!-- $\mathdefault{10^{-4}}$ -->
      <g transform="translate(27.1 133.975219) scale(0.1 -0.1)">
       <defs>
        <path id="DejaVuSans-34" d="M 2419 4116 
L 825 1625 
L 2419 1625 
L 2419 4116 
z
M 2253 4666 
L 3047 4666 
L 3047 1625 
L 3713 1625 
L 3713 1100 
L 3047 1100 
L 3047 0 
L 2419 0 
L 2419 1100 
L 313 1100 
L 313 1709 
L 2253 4666 
z
" transform="scale(0.015625)"/>
       </defs>
       <use xlink:href="#DejaVuSans-31" transform="translate(0 0.684375)"/>
       <use xlink:href="#DejaVuSans-30" transform="translate(63.623047 0.684375)"/>
       <use xlink:href="#DejaVuSans-2212" transform="translate(128.203125 38.965625) scale(0.7)"/>
       <use xlink:href="#DejaVuSans-34" transform="translate(186.855469 38.965625) scale(0.7)"/>
      </g>
     </g>
    </g>
    <g id="ytick_6">
     <g id="line2d_43">
      <g>
       <use xlink:href="#m6587480210" x="57.6" y="85.824" style="stroke: #000000; stroke-width: 0.8"/>
      </g>
     </g>
     <g id="text_10">
      <!-- $\mathdefault{10^{-2}}$ -->
      <g transform="translate(27.1 89.623219) scale(0.1 -0.1)">
       <use xlink:href="#DejaVuSans-31" transform="translate(0 0.765625)"/>
       <use xlink:href="#DejaVuSans-30" transform="translate(63.623047 0.765625)"/>
       <use xlink:href="#DejaVuSans-2212" transform="translate(128.203125 39.046875) scale(0.7)"/>
       <use xlink:href="#DejaVuSans-32" transform="translate(186.855469 39.046875) scale(0.7)"/>
      </g>
     </g>
    </g>
    <g id="ytick_7">
     <g id="line2d_44">
      <g>
       <use xlink:href="#m6587480210" x="57.6" y="41.472" style="stroke: #000000; stroke-width: 0.8"/>
      </g>
     </g>
     <g id="text_11">
      <!-- $\mathdefault{10^{0}}$ -->
      <g transform="translate(33 45.271219) scale(0.1 -0.1)">
       <use xlink:href="#DejaVuSans-31" transform="translate(0 0.765625)"/>
       <use xlink:href="#DejaVuSans-30" transform="translate(63.623047 0.765625)"/>
       <use xlink:href="#DejaVuSans-30" transform="translate(128.203125 39.046875) scale(0.7)"/>
      </g>
     </g>
    </g>
   </g>
   <g id="line2d_45">
    <path d="M -1 130.989162 
L 73.832727 130.983855 
L 100.254421 133.748971 
L 115.710121 128.635355 
L 126.676114 165.417441 
L 135.182 137.345936 
L 142.131814 126.190163 
L 148.007798 142.979196 
L 153.097808 139.31207 
L 157.587514 135.390018 
L 161.603693 143.780344 
L 165.236769 141.741099 
L 168.553508 127.432323 
L 171.604611 146.811125 
L 174.429492 137.451598 
L 177.059393 116.115069 
L 179.519501 154.936236 
L 181.830418 148.649559 
L 184.009207 121.106997 
L 186.070166 129.879846 
L 188.025387 120.756705 
L 189.885192 158.042127 
L 191.658463 138.72482 
L 193.352895 129.628294 
L 194.975201 139.132012 
L 196.531272 147.238178 
L 198.026305 133.606836 
L 199.464907 138.798792 
L 200.851185 119.241099 
L 203.481086 154.126039 
L 204.730984 130.644861 
L 205.941195 132.988473 
L 207.114162 124.442328 
L 208.252111 141.992887 
L 209.357071 133.702152 
L 210.430901 141.19492 
L 211.475307 128.884236 
L 212.491859 134.897418 
L 214.44708 122.147293 
L 215.388324 130.850502 
L 216.306885 134.503425 
L 217.203831 142.451634 
L 218.080156 128.327383 
L 218.936786 129.224717 
L 219.774588 136.743459 
L 220.594371 140.964234 
L 221.396894 139.136605 
L 222.18287 131.416537 
L 222.952965 147.983971 
L 223.707811 126.292672 
L 224.447998 133.305604 
L 225.174086 126.658131 
L 225.886601 129.345482 
L 226.586041 132.73957 
L 227.272879 126.901618 
L 227.947559 197.058406 
L 228.610505 132.449755 
L 229.262119 132.927874 
L 229.90278 118.372875 
L 230.532851 130.60507 
L 231.152677 131.771681 
L 231.762585 136.259126 
L 232.362888 130.550199 
L 232.953884 132.37419 
L 233.535856 169.234147 
L 234.109076 128.740435 
L 235.230288 154.392213 
L 235.778764 139.276774 
L 236.319461 146.93072 
L 236.852594 135.343628 
L 237.378374 133.53036 
L 237.897001 114.072319 
L 238.408665 133.95079 
L 238.913553 133.584621 
L 239.41184 140.560991 
L 239.903698 151.090576 
L 240.38929 173.218592 
L 240.868774 143.96498 
L 241.342301 160.146189 
L 241.810018 131.301651 
L 242.272065 159.819917 
L 242.728579 126.155925 
L 243.17969 117.583748 
L 243.625525 126.088797 
L 244.066205 155.911715 
L 244.501849 146.658285 
L 244.932571 167.901664 
L 245.35848 126.121232 
L 245.779682 120.537283 
L 246.196282 143.224292 
L 246.608377 141.107223 
L 247.016065 131.318933 
L 247.818588 122.927348 
L 248.213601 131.496209 
L 248.604563 125.025434 
L 248.991556 137.413075 
L 249.75395 125.134372 
L 250.129504 135.934414 
L 250.501395 117.529792 
L 250.869692 115.691639 
L 251.234464 148.275366 
L 251.595779 138.287055 
L 251.953702 154.964811 
L 252.308294 135.251881 
L 252.659619 127.188761 
L 253.007735 147.72374 
L 253.352701 134.947388 
L 253.694572 131.768053 
L 254.369253 151.77075 
L 254.702167 122.881393 
L 255.032199 131.540183 
L 255.359398 130.881334 
L 255.683812 158.374298 
L 256.005489 130.499238 
L 256.324473 150.592939 
L 256.640811 126.879838 
L 256.954545 119.669402 
L 257.57437 140.925467 
L 257.880544 122.852845 
L 258.184279 136.221474 
L 258.485612 129.407752 
L 258.784582 144.47561 
L 259.081225 127.12436 
L 259.375577 125.171479 
L 259.957549 138.848761 
L 260.245237 125.920794 
L 260.53077 149.240918 
L 260.81418 147.630014 
L 261.095498 122.468379 
L 261.374755 136.744907 
L 261.651981 144.28197 
L 261.927206 121.225741 
L 262.200458 155.370611 
L 262.741154 125.736091 
L 263.008653 120.66389 
L 263.274288 128.049876 
L 263.538084 157.601877 
L 263.800068 123.709824 
L 264.060263 130.915768 
L 264.318694 130.408355 
L 264.575385 141.201331 
L 264.830359 135.951119 
L 265.083638 120.946614 
L 265.335246 122.710544 
L 265.585204 168.113199 
L 266.080256 123.654769 
L 266.325391 141.926825 
L 266.568961 122.474687 
L 266.810983 129.975177 
L 267.051479 116.448091 
L 267.290467 133.045155 
L 267.527966 131.913512 
L 267.763994 124.354075 
L 267.99857 126.576866 
L 268.231711 170.470911 
L 268.463435 119.473939 
L 268.693758 152.755589 
L 269.150272 123.357706 
L 269.376495 133.046088 
L 269.601383 132.052991 
L 269.824953 140.998694 
L 270.047218 129.036647 
L 270.268195 146.110375 
L 270.487899 124.331597 
L 270.923543 149.848833 
L 271.139512 132.879758 
L 271.354264 146.71055 
L 271.567814 145.13169 
L 271.780173 137.788206 
L 271.991356 140.785807 
L 272.201376 151.457695 
L 272.410245 127.280718 
L 272.617975 141.85798 
L 272.82458 146.022414 
L 273.03007 131.896966 
L 273.234459 130.690298 
L 273.437758 145.773359 
L 273.639979 121.337499 
L 273.841132 137.883629 
L 274.041229 125.124743 
L 274.240281 131.568401 
L 274.4383 123.481062 
L 274.635295 125.742569 
L 274.831277 114.2626 
L 275.026257 117.696155 
L 275.220244 125.246248 
L 275.413249 151.295012 
L 275.605282 136.628852 
L 275.98647 167.424595 
L 276.175644 130.589801 
L 276.363883 116.920747 
L 276.551198 120.729895 
L 276.737596 133.2974 
L 276.923088 130.040444 
L 277.107681 147.997116 
L 277.291385 135.075225 
L 277.474208 140.532776 
L 277.656158 176.422894 
L 278.017473 157.796277 
L 278.196854 129.360584 
L 278.553104 158.499832 
L 278.729988 124.579497 
L 278.906055 129.173832 
L 279.255768 148.899587 
L 279.429428 145.683364 
L 279.602301 135.794926 
L 279.774394 134.03572 
L 279.945713 129.468041 
L 280.116266 139.8857 
L 280.455099 134.821737 
L 280.623392 117.517569 
L 280.790946 119.454286 
L 280.957767 159.772012 
L 281.12386 123.366264 
L 281.289234 113.012278 
L 281.453892 120.219602 
L 281.617843 149.320079 
L 281.781091 126.505154 
L 281.943644 126.153959 
L 282.266683 137.482966 
L 282.427182 139.67468 
L 282.587008 130.334724 
L 282.746167 150.251106 
L 282.904664 127.867092 
L 283.062504 127.686768 
L 283.219694 130.20704 
L 283.376238 121.740191 
L 283.687411 140.467643 
L 283.84205 145.974318 
L 283.996064 141.38634 
L 284.149458 130.282106 
L 284.302238 128.339424 
L 284.454408 112.561369 
L 284.605972 139.797669 
L 284.756936 124.254941 
L 284.907305 131.587382 
L 285.057083 157.325997 
L 285.206275 122.573438 
L 285.354885 123.3157 
L 285.502918 144.275041 
L 285.650378 136.351944 
L 285.943599 151.605445 
L 286.089367 163.679887 
L 286.234581 125.941678 
L 286.379243 151.774732 
L 286.523358 133.409219 
L 286.666931 156.353443 
L 286.809964 130.998556 
L 286.952463 129.335579 
L 287.094432 124.082896 
L 287.235873 150.966263 
L 287.517191 118.534682 
L 287.796449 147.524669 
L 287.935314 132.781061 
L 288.073675 132.2175 
L 288.211536 126.074281 
L 288.3489 128.266353 
L 288.48577 135.628769 
L 288.622151 132.685206 
L 288.758046 142.000703 
L 288.893458 133.165734 
L 289.028391 133.70573 
L 289.162847 155.20951 
L 289.296832 147.848348 
L 289.430346 129.276748 
L 289.563395 133.07884 
L 289.695981 175.521924 
L 289.828108 124.672279 
L 289.959778 125.523698 
L 290.090995 134.941318 
L 290.221761 128.589725 
L 290.352081 137.517051 
L 290.481956 127.899664 
L 290.740388 152.61246 
L 290.868949 149.690614 
L 290.997078 130.103702 
L 291.124779 138.973004 
L 291.378902 122.112794 
L 291.505332 125.190036 
L 291.631343 149.858359 
L 291.75694 136.657135 
L 291.882124 135.460189 
L 292.006898 143.091914 
L 292.131265 175.765544 
L 292.378788 127.504432 
L 292.501949 146.187451 
L 292.624714 144.937609 
L 292.747085 148.059738 
L 292.869064 174.760405 
L 292.990654 123.885426 
L 293.232677 145.289236 
L 293.353114 125.797148 
L 293.592854 137.963788 
L 293.71216 134.315257 
L 293.831095 140.592039 
L 293.949659 117.187797 
L 294.067856 156.31712 
L 294.185688 112.208725 
L 294.303156 150.654368 
L 294.537012 134.897596 
L 294.653404 121.132237 
L 294.769442 156.434233 
L 294.885128 128.688966 
L 295.000464 147.565845 
L 295.115452 145.434535 
L 295.230094 124.962743 
L 295.344392 127.221499 
L 295.458349 148.544294 
L 295.685245 126.925274 
L 295.798189 161.651115 
L 296.023077 126.728792 
L 296.246646 141.498712 
L 296.468912 126.040819 
L 296.57956 141.48142 
L 296.689889 133.161702 
L 296.799899 142.229869 
L 296.909592 119.946295 
L 297.128037 139.177605 
L 297.236791 128.305779 
L 297.345236 148.339084 
L 297.453374 131.813144 
L 297.668733 139.084473 
L 297.775958 169.601083 
L 297.989507 133.819748 
L 298.095835 130.843602 
L 298.307605 149.878357 
L 298.41305 122.990709 
L 298.727647 138.746375 
L 298.831938 122.708205 
L 298.935945 160.282107 
L 299.039669 118.961543 
L 299.143111 124.628058 
L 299.246273 124.289504 
L 299.349157 143.671511 
L 299.451764 120.925962 
L 299.554095 129.991334 
L 299.757938 114.710476 
L 299.859452 130.062164 
L 299.960696 125.509851 
L 300.162381 132.475941 
L 300.262825 150.723824 
L 300.363005 128.345777 
L 300.462923 157.630263 
L 300.562579 124.865808 
L 300.661975 132.880487 
L 300.761113 125.233573 
L 300.859993 145.541127 
L 301.056988 138.672954 
L 301.155105 127.866745 
L 301.25297 154.72261 
L 301.350585 123.848703 
L 301.545067 151.883783 
L 301.738562 119.499294 
L 301.834943 134.517806 
L 301.93108 120.717352 
L 302.12263 142.527469 
L 302.408163 116.82929 
L 302.502867 119.551779 
L 302.597337 124.766298 
L 302.785577 145.342155 
L 302.972891 120.760211 
L 303.066205 133.767893 
L 303.15929 124.692483 
L 303.252149 140.573737 
L 303.529375 124.223996 
L 303.621337 145.22327 
L 303.713079 130.923836 
L 303.804599 138.47163 
L 303.986985 130.788443 
L 304.077851 144.953296 
L 304.168501 143.342202 
L 304.258937 127.318165 
L 304.349158 140.059879 
L 304.528962 129.567004 
L 304.618547 143.412489 
L 304.707922 122.806818 
L 304.797088 133.34125 
L 304.886046 131.803578 
L 304.974797 131.574211 
L 305.063342 133.460354 
L 305.151681 150.139347 
L 305.327748 119.761372 
L 305.415478 119.580149 
L 305.503006 123.049515 
L 305.677461 144.711559 
L 305.851122 127.847485 
L 305.937656 158.415816 
L 306.023995 123.714683 
L 306.110138 136.889871 
L 306.367407 120.959045 
L 306.452778 160.030466 
L 306.62295 123.174952 
L 306.707752 120.914611 
L 306.792366 141.769134 
L 306.876792 141.51332 
L 306.961032 143.212591 
L 307.045086 119.71731 
L 307.128955 127.227697 
L 307.21264 129.110989 
L 307.296141 142.75102 
L 307.37946 137.698383 
L 307.462598 124.039546 
L 307.545554 126.521203 
L 307.62833 122.768221 
L 307.710927 140.453901 
L 307.793345 129.845158 
L 307.875586 133.891052 
L 307.957649 180.394723 
L 308.121248 123.144705 
L 308.202785 125.502035 
L 308.284148 131.184567 
L 308.446354 126.54269 
L 308.527199 134.942203 
L 308.607873 128.201527 
L 308.688377 132.477686 
L 308.768711 153.294649 
L 308.848876 116.110889 
L 308.928872 129.312768 
L 309.008702 158.041152 
L 309.088364 125.052662 
L 309.16786 125.24534 
L 309.247191 140.782119 
L 309.326357 136.224888 
L 309.405359 124.963748 
L 309.484198 151.92528 
L 309.562874 131.385798 
L 309.641387 132.499399 
L 309.71974 132.635196 
L 309.797932 131.483659 
L 309.875963 119.887408 
L 309.953836 155.32528 
L 310.031549 122.516723 
L 310.109104 123.575958 
L 310.186502 136.940087 
L 310.263743 128.463471 
L 310.340828 130.770827 
L 310.417757 140.454019 
L 310.494532 136.832994 
L 310.571152 117.402184 
L 310.647618 120.807109 
L 310.800092 150.954905 
L 310.951959 115.438071 
L 311.027666 126.51702 
L 311.103222 192.219341 
L 311.253888 113.832351 
L 311.328999 147.577615 
L 311.478777 124.071337 
L 311.553446 136.11056 
L 311.627968 119.80113 
L 311.702346 142.350646 
L 311.776579 122.810731 
L 311.924612 148.637519 
L 311.998413 131.705789 
L 312.072072 150.31922 
L 312.145589 127.317293 
L 312.218964 143.409109 
L 312.292198 140.210577 
L 312.365292 149.133584 
L 312.438246 118.162714 
L 312.511061 132.480449 
L 312.583737 137.79835 
L 312.800936 127.465819 
L 312.873062 131.299386 
L 313.016905 157.20365 
L 313.088624 129.790025 
L 313.160208 139.346589 
L 313.231658 141.596652 
L 313.302974 119.115209 
L 313.374157 133.69777 
L 313.445207 127.518601 
L 313.586911 134.872921 
L 313.657567 144.924958 
L 313.798485 115.693188 
L 313.86875 138.721904 
L 313.938885 118.213589 
L 314.008891 141.780042 
L 314.078769 120.512395 
L 314.218142 138.742631 
L 314.287638 135.278821 
L 314.357007 115.199334 
L 314.426251 126.372246 
L 314.495368 127.50741 
L 314.564361 133.477903 
L 314.701973 117.525831 
L 314.83909 127.987511 
L 314.907464 128.184396 
L 314.975715 140.180983 
L 315.043845 135.929872 
L 315.111853 138.89538 
L 315.17974 152.346208 
L 315.247506 125.064206 
L 315.315152 126.589587 
L 315.382678 175.717223 
L 315.450084 125.948485 
L 315.517372 145.070772 
L 315.651592 121.123727 
L 315.785341 147.45234 
L 315.85204 127.260535 
L 315.918622 140.571023 
L 315.985089 137.959292 
L 316.051439 129.650852 
L 316.117675 140.740428 
L 316.183795 124.991707 
L 316.249801 125.149115 
L 316.447136 145.179573 
L 316.512688 126.488644 
L 316.578128 134.963334 
L 316.643455 148.015332 
L 316.90365 120.689419 
L 316.968422 121.415863 
L 317.033085 145.000874 
L 317.097637 132.903992 
L 317.162081 146.327401 
L 317.226416 139.661914 
L 317.290643 148.913651 
L 317.354761 143.236338 
L 317.418772 144.896536 
L 317.610162 117.549243 
L 317.737224 152.693805 
L 317.863863 122.417558 
L 317.927025 159.458095 
L 317.990083 133.633059 
L 318.053037 153.744999 
L 318.115887 142.543039 
L 318.178633 121.973563 
L 318.241277 145.444634 
L 318.303817 134.143553 
L 318.366255 130.737881 
L 318.428591 140.716308 
L 318.490825 136.936033 
L 318.61499 118.227037 
L 318.800481 136.305902 
L 318.862112 131.702079 
L 318.923643 164.571295 
L 318.985075 140.300861 
L 319.046408 132.366728 
L 319.168778 142.134925 
L 319.351601 118.377934 
L 319.472997 136.209603 
L 319.533551 118.784638 
L 319.594009 130.337983 
L 319.65437 152.454545 
L 319.714637 119.351498 
L 319.774808 132.314758 
L 319.834884 128.354048 
L 319.894866 140.653306 
L 319.954754 132.069677 
L 320.014547 139.421083 
L 320.252788 117.939952 
L 320.312117 128.312003 
L 320.371353 117.268934 
L 320.430497 152.48877 
L 320.48955 134.850323 
L 320.548511 125.524461 
L 320.607381 152.662182 
L 320.66616 128.959004 
L 320.783448 136.624639 
L 320.841957 150.210369 
L 320.900376 123.615852 
L 320.958706 128.851115 
L 321.075098 145.336774 
L 321.249023 119.840639 
L 321.422158 137.315971 
L 321.479695 135.758283 
L 321.537145 140.691214 
L 321.594509 140.676924 
L 321.708979 119.380903 
L 321.766086 122.170547 
L 321.823107 136.433695 
L 321.880042 136.095462 
L 322.050341 114.30798 
L 322.219882 141.500964 
L 322.276229 122.935768 
L 322.44477 146.424863 
L 322.61257 117.052051 
L 322.779634 148.61131 
L 322.94597 118.314127 
L 323.111582 148.433822 
L 323.166627 153.411874 
L 323.221592 121.618058 
L 323.276478 129.605547 
L 323.386014 132.889808 
L 323.495236 123.963031 
L 323.54973 151.615687 
L 323.658485 120.435477 
L 323.712746 125.507279 
L 323.76693 123.995519 
L 323.821037 147.786865 
L 323.875067 122.868626 
L 323.929021 142.449895 
L 323.982899 130.898539 
L 324.036701 131.675853 
L 324.144077 124.238922 
L 324.197651 127.962932 
L 324.251151 161.339686 
L 324.304576 130.35074 
L 324.357925 129.482316 
L 324.464402 137.911124 
L 324.62356 119.769205 
L 324.782057 131.870913 
L 324.834743 122.646943 
L 324.887357 167.029856 
L 324.939898 129.823012 
L 324.992366 153.747373 
L 325.044763 137.999071 
L 325.097087 120.797017 
L 325.14934 130.957592 
L 325.201522 151.353616 
L 325.253632 125.617572 
L 325.30567 130.284269 
L 325.357638 152.635258 
L 325.409535 123.739005 
L 325.513118 125.183677 
L 325.564804 112.018687 
L 325.77085 164.54717 
L 325.822188 124.242753 
L 325.924657 126.948792 
L 325.975789 130.226928 
L 326.128773 119.780765 
L 326.179631 200.453365 
L 326.230422 142.160561 
L 326.382389 129.928257 
L 326.483365 180.168476 
L 326.533753 144.63524 
L 326.684519 119.151153 
L 326.734642 124.436367 
L 326.784699 143.796964 
L 326.83469 138.09925 
L 326.934477 126.047214 
L 326.984272 135.413619 
L 327.034003 118.842111 
L 327.083668 127.54758 
L 327.133269 143.452307 
L 327.232278 140.943804 
L 327.281687 126.564744 
L 327.331031 140.760181 
L 327.380311 142.302837 
L 327.527772 122.409225 
L 327.576799 122.516192 
L 327.625763 155.728304 
L 327.674664 132.073127 
L 327.723502 142.170622 
L 327.772278 120.265576 
L 327.820992 144.937323 
L 327.869644 132.786352 
L 327.918233 152.449609 
L 327.966761 131.201476 
L 328.063631 120.258197 
L 328.208476 145.861339 
L 328.400751 128.514325 
L 328.448669 130.615012 
L 328.496526 120.389752 
L 328.592061 139.388535 
L 328.639739 129.725043 
L 328.687358 142.496095 
L 328.734917 142.193748 
L 328.782416 139.144966 
L 328.829857 119.959728 
L 328.924561 124.835983 
L 328.971825 162.458598 
L 329.066178 149.421396 
L 329.113267 116.84389 
L 329.160297 133.83839 
L 329.20727 132.035729 
L 329.254185 139.489932 
L 329.347842 122.413454 
L 329.394585 145.364981 
L 329.44127 113.465133 
L 329.487898 125.240861 
L 329.580983 123.564279 
L 329.627441 163.602387 
L 329.720187 128.822295 
L 329.766475 138.926424 
L 329.812707 146.159089 
L 329.905004 115.478388 
L 329.997077 121.28802 
L 330.043031 137.259516 
L 330.088929 119.035881 
L 330.134772 132.280361 
L 330.226293 122.612015 
L 330.271971 142.783952 
L 330.363164 139.869756 
L 330.454138 112.574378 
L 330.499545 133.084716 
L 330.544897 140.436458 
L 330.590195 131.726141 
L 330.635439 138.777973 
L 330.815882 116.402629 
L 330.905784 147.013548 
L 330.950656 120.010613 
L 331.040241 124.170415 
L 331.084955 130.615285 
L 331.129616 165.367492 
L 331.174225 151.341936 
L 331.352141 123.648251 
L 331.396491 124.520817 
L 331.440789 131.218537 
L 331.485035 130.881492 
L 331.529231 123.001703 
L 331.617468 139.974422 
L 331.66151 115.516131 
L 331.705501 126.129094 
L 331.749442 157.12493 
L 331.837171 150.919782 
L 331.88096 124.856259 
L 331.924699 160.410596 
L 332.055616 133.186457 
L 332.099155 163.120935 
L 332.142644 130.147254 
L 332.186084 144.273168 
L 332.229474 132.569605 
L 332.272815 123.589298 
L 332.402544 153.704853 
L 332.488784 132.175737 
L 332.531832 144.820476 
L 332.574831 147.204808 
L 332.617781 134.353098 
L 332.660683 153.259209 
L 332.703537 167.200111 
L 332.83181 128.050941 
L 332.874472 132.592159 
L 332.959653 128.349308 
L 333.002172 168.010161 
L 333.087068 123.918124 
L 333.129446 129.23314 
L 333.171776 128.373272 
L 333.214059 138.970409 
L 333.256296 128.642877 
L 333.298486 126.960875 
L 333.340629 129.936096 
L 333.382725 152.678591 
L 333.466779 152.67205 
L 333.508737 149.838369 
L 333.634333 122.640121 
L 333.801154 141.58688 
L 333.842745 134.504312 
L 333.884291 114.975847 
L 334.008658 196.02476 
L 334.050024 119.651546 
L 334.132621 127.885125 
L 334.173852 151.886534 
L 334.215039 136.045407 
L 334.256181 120.063703 
L 334.297279 126.261362 
L 334.420308 148.848817 
L 334.502108 120.363423 
L 334.583732 123.94464 
L 334.624478 142.504218 
L 334.705841 139.280284 
L 334.746457 140.148389 
L 334.787031 147.941807 
L 334.827561 122.347254 
L 334.868047 171.601763 
L 334.908491 120.839412 
L 334.948893 112.258559 
L 334.989251 123.575517 
L 335.11007 144.397023 
L 335.230508 119.67805 
L 335.350566 138.40519 
L 335.390501 135.800073 
L 335.430395 156.52165 
L 335.470247 132.214013 
L 335.510058 145.738815 
L 335.549826 149.304026 
L 335.62924 132.946276 
L 335.668885 159.293108 
L 335.708488 122.01149 
L 335.748051 158.850601 
L 335.827053 119.916714 
L 335.866492 123.827856 
L 335.984567 148.51922 
L 336.102277 127.001976 
L 336.063081 158.342119 
L 336.141433 128.304305 
L 336.297657 145.938509 
L 336.375529 147.130789 
L 336.453242 119.87665 
L 336.49204 153.053334 
L 336.569516 128.580376 
L 336.608196 150.049534 
L 336.646836 124.342916 
L 336.685437 126.490593 
L 336.723999 124.348269 
L 336.762522 160.06396 
L 336.839451 159.668594 
L 337.031098 123.118219 
L 337.069312 126.023931 
L 337.107487 120.073177 
L 337.183724 154.347603 
L 337.259809 150.804091 
L 337.297794 147.276129 
L 337.335742 126.997409 
L 337.411524 134.045595 
L 337.449359 130.014115 
L 337.487156 136.119244 
L 337.524916 138.850349 
L 337.562638 126.980711 
L 337.637971 134.99298 
L 337.713156 129.670337 
L 337.750692 143.431216 
L 337.788192 125.7817 
L 337.863081 122.88741 
L 337.90047 134.118066 
L 337.975139 122.676773 
L 338.049662 155.964565 
L 338.086869 140.484858 
L 338.124039 130.892095 
L 338.161174 180.609242 
L 338.198272 128.913358 
L 338.27236 116.737568 
L 338.420107 143.402766 
L 338.456954 131.594207 
L 338.493765 203.248864 
L 338.567282 133.850736 
L 338.603987 138.156565 
L 338.640657 115.553328 
L 338.713892 127.74598 
L 338.750456 145.496848 
L 338.82348 136.296989 
L 338.932754 123.08613 
L 339.041716 157.406149 
L 339.077968 129.361649 
L 339.114185 157.862901 
L 339.150367 137.304246 
L 339.186516 141.126156 
L 339.22263 128.859658 
L 339.25871 153.359269 
L 339.294756 135.401437 
L 339.366745 134.989162 
L 339.402689 145.265627 
L 339.510318 118.805632 
L 339.617643 126.113996 
L 339.689026 140.604177 
L 339.760275 136.892042 
L 339.79585 134.83485 
L 339.866901 120.071789 
L 339.973228 148.548301 
L 340.008605 121.359544 
L 340.07926 132.29337 
L 340.149785 122.049854 
L 340.184998 158.152758 
L 340.220179 135.071937 
L 340.325527 135.445865 
L 340.360578 134.103153 
L 340.395598 137.370243 
L 340.430585 119.778627 
L 340.46554 147.589494 
L 340.500463 143.417342 
L 340.535354 116.695775 
L 340.570213 144.167841 
L 340.60504 128.018531 
L 340.639836 172.261414 
L 340.709331 126.771893 
L 340.744032 124.578954 
L 340.778701 155.132399 
L 340.847944 149.63325 
L 340.917062 157.504139 
L 340.986055 118.402267 
L 341.020504 139.123962 
L 341.08931 124.852489 
L 341.123666 131.217075 
L 341.157992 130.650451 
L 341.192287 199.719106 
L 341.260783 155.908048 
L 341.397409 121.55147 
L 341.431489 144.264689 
L 341.499557 139.843868 
L 341.567505 122.730412 
L 341.601433 149.372508 
L 341.669199 142.747777 
L 341.703037 123.381554 
L 341.770623 125.968644 
L 341.838089 146.669259 
L 341.939065 135.09666 
L 341.972665 131.526251 
L 342.006234 115.254742 
L 342.039775 121.966794 
L 342.106767 158.465921 
L 342.173641 137.021443 
L 342.207034 126.063148 
L 342.240399 146.277195 
L 342.273733 145.060722 
L 342.373564 166.420022 
L 342.439972 116.367037 
L 342.506265 119.344394 
L 342.638506 139.853482 
L 342.704455 117.618933 
L 342.77029 120.442535 
L 342.803165 121.927797 
L 342.90162 147.101665 
L 342.934382 125.015095 
L 342.999821 129.911898 
L 343.032499 161.826849 
L 343.09777 129.373929 
L 343.130364 152.0225 
L 343.227978 121.128485 
L 343.260461 156.21472 
L 343.357743 143.558512 
L 343.454778 123.340871 
L 343.487068 130.432031 
L 343.519331 126.168812 
L 343.615956 166.623438 
L 343.744409 121.272695 
L 343.776455 124.772037 
L 343.808473 158.159609 
L 343.904369 149.014505 
L 344.031856 123.828448 
L 344.095439 147.016708 
L 344.190616 146.488269 
L 344.222289 149.2242 
L 344.285557 123.141468 
L 344.348719 137.538316 
L 344.380261 147.831766 
L 344.411777 133.440616 
L 344.443267 117.980784 
L 344.47473 133.521107 
L 344.506168 130.97833 
L 344.568966 129.441173 
L 344.600327 163.159275 
L 344.631661 122.143234 
L 344.725511 137.521082 
L 344.787949 124.607639 
L 344.819129 130.016585 
L 344.912519 153.633573 
L 345.036683 124.445628 
L 345.067661 125.41698 
L 345.098614 129.50182 
L 345.129542 124.20961 
L 345.160445 127.974642 
L 345.253003 123.748642 
L 345.283805 164.286875 
L 345.345336 133.954787 
L 345.376065 121.856844 
L 345.406768 148.827279 
L 345.468101 127.902789 
L 345.498731 146.037174 
L 345.559916 123.330026 
L 345.590472 134.662582 
L 345.621003 130.887717 
L 345.65151 133.662492 
L 345.742885 157.313384 
L 345.773295 142.98487 
L 345.864378 127.316316 
L 345.834041 143.723443 
L 345.894691 129.016224 
L 345.92498 178.486102 
L 345.985485 128.303055 
L 346.13633 160.010609 
L 346.166428 147.050556 
L 346.196501 130.981003 
L 346.256578 138.816119 
L 346.28658 158.27266 
L 346.346515 126.532155 
L 346.406356 127.897799 
L 346.525756 154.186618 
L 346.585316 149.476667 
L 346.674482 124.541214 
L 346.644783 161.566826 
L 346.704158 131.550526 
L 346.73381 162.333602 
L 346.82263 149.940469 
L 346.85219 124.35489 
L 346.881728 154.037577 
L 346.940735 129.68846 
L 347.029075 143.151297 
L 347.058476 140.614406 
L 347.11721 114.406156 
L 347.175853 130.450537 
L 347.234407 136.279879 
L 347.26365 129.896767 
L 347.322069 168.967466 
L 347.380399 154.846659 
L 347.43864 119.150687 
L 347.496791 124.357853 
L 347.525834 125.154963 
L 347.554855 129.416419 
L 347.583853 115.162245 
L 347.612829 135.03628 
L 347.641784 129.732703 
L 347.670716 135.036248 
L 347.699627 175.4617 
L 347.757382 129.231944 
L 347.786227 130.266229 
L 347.843851 143.627055 
L 347.87263 125.238035 
L 347.901388 120.394402 
L 347.930124 151.646403 
L 348.016203 125.532748 
L 348.044853 145.667228 
L 348.130673 132.137262 
L 348.159237 127.801908 
L 348.187779 158.906658 
L 348.2163 123.793625 
L 348.2448 147.236814 
L 348.273278 123.876441 
L 348.358587 126.070987 
L 348.443704 122.189018 
L 348.472034 138.93328 
L 348.556899 121.222625 
L 348.528632 139.986872 
L 348.585146 121.928415 
L 348.669759 121.886369 
L 348.754185 157.421326 
L 348.810366 159.02273 
L 348.894482 115.37355 
L 349.062158 165.764284 
L 349.145721 117.222642 
L 349.173535 127.284665 
L 349.201328 158.916913 
L 349.229101 119.054154 
L 349.284586 145.568621 
L 349.339991 119.36502 
L 349.395315 139.287231 
L 349.422947 170.821276 
L 349.478151 120.738756 
L 349.560808 140.229714 
L 349.58832 129.409855 
L 349.725585 138.078698 
L 349.670739 126.831842 
L 349.752979 137.81394 
L 349.807708 137.175688 
L 349.862358 140.485913 
L 349.91693 125.098278 
L 349.971424 123.107779 
L 350.053019 186.874404 
L 350.080178 134.963201 
L 350.161541 140.634225 
L 350.188623 144.401235 
L 350.24273 128.878613 
L 350.296761 145.85845 
L 350.431503 121.129381 
L 350.458394 132.76831 
L 350.538954 122.91655 
L 350.699566 177.253109 
L 350.832894 125.321674 
L 350.859504 136.861661 
L 350.939222 123.667772 
L 350.965757 134.850839 
L 351.071716 146.869029 
L 351.018773 133.017129 
L 351.098159 146.193887 
L 351.203751 118.812433 
L 351.230103 122.586064 
L 351.256437 119.470729 
L 351.282753 145.964609 
L 351.361591 133.677732 
L 351.387834 133.324911 
L 351.41406 147.154867 
L 351.466456 147.061934 
L 351.571034 126.804069 
L 351.623215 124.614054 
L 351.727364 191.020497 
L 351.831229 119.901625 
L 351.883055 130.154105 
L 351.908942 132.858962 
L 351.934812 118.406599 
L 352.012314 127.106312 
L 352.038114 127.893293 
L 352.192544 148.012761 
L 352.269525 127.063136 
L 352.295151 148.583863 
L 352.320759 133.491016 
L 352.397482 170.760864 
L 352.49954 114.082037 
L 352.525011 127.446516 
L 352.550466 126.12635 
L 352.677485 166.371932 
L 352.626729 123.211406 
L 352.728175 157.079565 
L 352.829352 120.286146 
L 352.854604 149.566369 
L 352.930261 119.360775 
L 352.955447 141.744532 
L 352.980616 121.061587 
L 353.030904 156.652045 
L 353.056023 130.009411 
L 353.106212 142.61459 
L 353.131282 119.964761 
L 353.156335 121.946684 
L 353.181372 120.217063 
L 353.256384 144.197263 
L 353.281355 122.275691 
L 353.381076 166.603881 
L 353.430839 150.221357 
L 353.505362 129.223185 
L 353.554963 133.208658 
L 353.579739 136.074453 
L 353.6045 128.308137 
L 353.629244 125.957738 
L 353.653972 127.524692 
L 353.70338 122.556242 
L 353.777373 146.212916 
L 353.802005 122.364838 
L 353.900375 134.424055 
L 353.924928 142.882318 
L 353.949465 123.295561 
L 353.998492 131.660231 
L 354.047456 131.517078 
L 354.071915 141.531862 
L 354.096357 121.95286 
L 354.120784 132.987564 
L 354.145196 177.269853 
L 354.169592 121.854303 
L 354.218336 131.069974 
L 354.242686 129.228047 
L 354.267019 135.188512 
L 354.291337 136.546783 
L 354.339927 129.126178 
L 354.364198 154.963177 
L 354.43692 137.318723 
L 354.533667 121.113377 
L 354.509504 138.778199 
L 354.557816 129.288928 
L 354.581949 135.684379 
L 354.63017 128.230041 
L 354.654257 130.391143 
L 354.702387 130.907804 
L 354.726429 118.743729 
L 354.774467 118.667048 
L 354.846411 158.56349 
L 354.91822 122.447517 
L 354.942126 141.00466 
L 355.013755 120.029263 
L 355.037601 158.044402 
L 355.132838 128.144304 
L 355.085249 167.035376 
L 355.15661 144.021307 
L 355.180367 132.176212 
L 355.20411 154.674666 
L 355.227837 137.836381 
L 355.298932 176.89382 
L 355.3226 114.817777 
L 355.417129 142.314286 
L 355.487871 123.735709 
L 355.511423 140.973714 
L 355.558483 157.027421 
L 355.652428 121.164112 
L 355.675879 123.406761 
L 355.792914 157.589624 
L 355.816278 139.984098 
L 355.839628 147.083226 
L 355.862963 199.130923 
L 355.909591 125.84198 
L 355.932884 140.646915 
L 355.956163 132.744455 
L 355.979427 175.796347 
L 356.049134 128.877437 
L 356.072342 139.439658 
L 356.118715 123.101497 
L 356.165031 131.753075 
L 356.188168 131.988199 
L 356.280577 123.244733 
L 356.303644 145.104297 
L 356.395773 117.636088 
L 356.418771 127.081842 
L 356.48768 116.961551 
L 356.533551 154.990008 
L 356.556465 126.778769 
L 356.602253 157.45609 
L 356.647986 142.306556 
L 356.670832 140.348253 
L 356.716483 122.923209 
L 356.784857 134.307073 
L 356.853109 120.82075 
L 356.875832 136.338488 
L 356.898542 141.038143 
L 356.921238 128.777315 
L 356.943921 124.035413 
L 357.057133 151.785161 
L 357.079735 121.281666 
L 357.17001 134.354111 
L 357.237576 134.338399 
L 357.282553 145.26809 
L 357.305022 118.095292 
L 357.394765 120.967653 
L 357.439558 172.530626 
L 357.506648 157.31988 
L 357.595918 128.056715 
L 357.618203 164.956001 
L 357.68498 121.98713 
L 357.707213 118.490724 
L 357.773835 148.87778 
L 357.818184 143.872445 
L 357.84034 124.929432 
L 357.884612 148.701708 
L 357.906729 143.224768 
L 357.928833 144.938182 
L 357.950924 138.943095 
L 357.995068 141.525691 
L 358.017121 141.485473 
L 358.039161 142.472455 
L 358.061189 122.600437 
L 358.149171 127.946862 
L 358.171135 148.983126 
L 358.258865 141.564279 
L 358.346393 150.919544 
L 358.368243 120.675469 
L 358.411907 147.99899 
L 358.520848 141.736971 
L 358.542599 140.221135 
L 358.564338 121.037917 
L 358.651168 125.782779 
L 358.781043 139.97452 
L 358.867382 125.815301 
L 358.845816 155.673518 
L 358.888936 126.454897 
L 358.932008 126.253486 
L 359.018005 162.199619 
L 359.103809 118.002832 
L 359.146639 120.091152 
L 359.189421 166.069864 
L 359.317478 146.705623 
L 359.402612 120.264768 
L 359.423865 166.240801 
L 359.508762 136.021598 
L 359.551139 123.40776 
L 359.57231 152.746891 
L 359.593469 137.004821 
L 359.635753 155.97155 
L 359.677989 141.481514 
L 359.720179 114.651237 
L 359.783376 142.76081 
L 359.82545 126.679403 
L 359.93043 149.913359 
L 359.99328 120.465656 
L 360.035123 135.147531 
L 360.076919 132.230093 
L 360.0978 194.848212 
L 360.11867 124.40556 
L 360.18121 141.381097 
L 360.243649 121.176981 
L 360.285217 139.193774 
L 360.368219 128.786567 
L 360.347485 142.285373 
L 360.388941 129.447073 
L 360.409652 176.209568 
L 360.492383 128.330401 
L 360.513038 152.85353 
L 360.574935 127.992697 
L 360.595545 143.613973 
L 360.677875 125.764595 
L 360.739505 131.197256 
L 360.821525 158.732793 
L 360.801036 123.622167 
L 360.862468 142.437678 
L 360.985036 120.858932 
L 361.10721 157.308317 
L 361.147848 129.306162 
L 361.188443 158.152911 
L 361.228994 131.267782 
L 361.249254 129.641417 
L 361.269503 114.732756 
L 361.309968 138.793904 
L 361.330185 125.812748 
L 361.410944 152.105865 
L 361.431108 130.798262 
L 361.45126 131.269875 
L 361.471402 121.931551 
L 361.531764 127.299078 
L 361.59203 117.30723 
L 361.652201 142.342624 
L 361.672237 111.527684 
L 361.732282 144.477456 
L 361.752276 133.250272 
L 361.772259 170.488917 
L 361.792232 129.343008 
L 361.87202 157.355663 
L 361.951641 137.640772 
L 361.991389 147.770581 
L 362.011247 155.830248 
L 362.031095 130.71875 
L 362.050933 149.580019 
L 362.110385 172.10815 
L 362.169744 124.087042 
L 362.209266 161.929042 
L 362.288186 137.096778 
L 362.327585 122.549285 
L 362.347269 180.716629 
L 362.425904 149.158359 
L 362.523971 123.706714 
L 362.484774 149.969513 
L 362.543554 134.364528 
L 362.563127 135.482254 
L 362.602243 211.66833 
L 362.660841 130.480273 
L 362.680354 149.365869 
L 362.738833 122.406657 
L 362.758306 156.865121 
L 362.797222 131.15747 
L 362.874936 124.856783 
L 362.913733 154.628559 
L 362.99121 123.450961 
L 363.029889 124.976111 
L 363.049214 125.034134 
L 363.068529 121.817323 
L 363.10713 146.399409 
L 363.184215 131.966001 
L 363.203462 126.612508 
L 363.222699 131.74485 
L 363.241927 168.796468 
L 363.299551 114.254836 
L 363.31874 120.924104 
L 363.414539 171.632512 
L 363.452791 132.242801 
L 363.471903 131.439541 
L 363.567318 121.318581 
L 363.586373 148.766514 
L 363.624453 127.149528 
L 363.643479 140.384169 
L 363.662495 182.419016 
L 363.681502 126.913386 
L 363.738466 137.417962 
L 363.795346 125.460882 
L 363.833218 133.985864 
L 363.85214 148.102052 
L 363.927734 130.547698 
L 363.965475 123.315132 
L 363.984332 131.271849 
L 364.022017 117.362243 
L 364.116067 165.965341 
L 364.247348 122.209945 
L 364.303474 162.97037 
L 364.378179 134.990759 
L 364.415477 136.284297 
L 364.508562 174.078109 
L 364.471355 131.738283 
L 364.527152 141.244356 
L 364.582867 120.231005 
L 364.564305 147.336264 
L 364.638501 124.767901 
L 364.712553 141.6157 
L 364.731044 138.209028 
L 364.749526 185.711945 
L 364.786462 127.393068 
L 364.823363 132.275036 
L 364.915459 155.660927 
L 364.897057 132.156161 
L 364.952235 137.700944 
L 365.025681 148.595376 
L 365.062351 124.478115 
L 365.135585 141.231218 
L 365.098986 113.505978 
L 365.17215 125.698581 
L 365.190419 121.419721 
L 365.208679 138.464709 
L 365.226931 129.010912 
L 365.263408 141.144244 
L 365.29985 126.950218 
L 365.336257 135.469243 
L 365.354448 121.189205 
L 365.37263 160.967008 
L 365.445271 133.06 
L 365.499661 157.22825 
L 365.517774 123.940223 
L 365.553974 154.950218 
L 365.608209 118.838559 
L 365.62627 186.59174 
L 365.662367 134.9874 
L 365.680403 138.557812 
L 365.69843 123.920227 
L 365.752461 135.08307 
L 365.788439 143.229962 
L 365.896169 121.349362 
L 365.932011 154.984233 
L 366.02147 136.4964 
L 366.057195 128.812345 
L 366.075045 180.805611 
L 366.164169 151.72203 
L 366.253085 118.059967 
L 366.270844 132.808107 
L 366.306336 119.152323 
L 366.394922 173.552455 
L 366.483302 118.492751 
L 366.500954 125.151592 
L 366.606691 157.667396 
L 366.571478 115.235026 
L 366.624286 144.153202 
L 366.65945 155.264134 
L 366.677021 137.569373 
L 366.694583 140.773349 
L 366.74722 118.527679 
L 366.799785 141.369859 
L 366.852278 123.151662 
L 366.922156 124.245211 
L 366.939606 180.412372 
L 366.974481 120.303886 
L 367.026734 125.976413 
L 367.078915 162.169562 
L 367.113663 119.133272 
L 367.165725 138.947015 
L 367.217717 153.9904 
L 367.286929 114.595516 
L 367.390512 142.513444 
L 367.407748 127.130403 
L 367.424977 118.846656 
L 367.459411 146.291594 
L 367.476616 147.698079 
L 367.562526 119.833372 
L 367.528186 155.432373 
L 367.579685 129.536457 
L 367.665364 160.116198 
L 367.631116 128.029126 
L 367.682477 135.68523 
L 367.733769 140.127018 
L 367.750851 133.188827 
L 367.767925 122.306807 
L 367.836146 140.114291 
L 367.870211 124.016651 
L 367.904245 129.153138 
L 367.921251 121.853352 
L 367.938249 174.173874 
L 367.972223 118.257316 
L 368.023126 124.577462 
L 368.040079 119.734044 
L 368.057025 170.360741 
L 368.141638 143.983518 
L 368.192316 119.013312 
L 368.259783 132.943758 
L 368.343948 168.027924 
L 368.32713 131.229932 
L 368.377562 147.725861 
L 368.411147 124.373057 
L 368.427928 133.40341 
L 368.444702 173.523749 
L 368.494979 132.278657 
L 368.54519 148.798237 
L 368.628728 120.464915 
L 368.595335 166.053427 
L 368.662092 134.189819 
L 368.678763 141.972676 
L 368.712083 118.97743 
L 368.762009 140.294896 
L 368.778637 124.161867 
L 368.795257 142.932012 
L 368.87825 131.439832 
L 368.944514 146.899882 
L 368.961062 114.514258 
L 369.043694 178.993569 
L 369.076697 125.25218 
L 369.093188 120.800735 
L 369.142618 129.539667 
L 369.175535 118.914001 
L 369.257705 148.1421 
L 369.356075 126.854549 
L 369.290523 149.135769 
L 369.372445 144.292131 
L 369.388809 144.339435 
L 369.437857 150.794859 
L 369.519463 124.621121 
L 369.584623 140.728121 
L 369.568344 121.72498 
L 369.600896 122.574591 
L 369.617161 121.36303 
L 369.649672 154.709405 
L 369.714609 142.474908 
L 369.730827 115.367192 
L 369.779437 161.747059 
L 369.811809 118.216547 
L 369.827985 149.635004 
L 369.924896 131.589062 
L 369.941024 123.271971 
L 369.957145 135.187542 
L 369.97326 168.082258 
L 370.037649 123.270813 
L 370.053729 130.399552 
L 370.10193 117.22379 
L 370.117983 143.878044 
L 370.13403 126.155047 
L 370.230167 123.516495 
L 370.262159 161.56842 
L 370.389859 123.609465 
L 370.485354 151.385788 
L 370.517133 139.419551 
L 370.548885 139.776332 
L 370.564751 132.114713 
L 370.61231 173.273171 
L 370.62815 128.704312 
L 370.67563 133.158087 
L 370.72305 150.89803 
L 370.738844 147.051031 
L 370.754632 119.44606 
L 370.801954 164.672949 
L 370.849218 129.736431 
L 370.896424 135.294526 
L 370.912146 118.6531 
L 371.02202 157.756002 
L 371.178436 111.940096 
L 371.318663 148.665014 
L 371.365291 152.608259 
L 371.442878 123.0339 
L 371.489355 152.366073 
L 371.56669 142.434721 
L 371.582138 144.618615 
L 371.628445 114.064355 
L 371.659285 176.840253 
L 371.690101 148.709551 
L 371.705499 126.804166 
L 371.76703 152.680533 
L 371.797758 146.764468 
L 371.843804 123.313709 
L 371.874471 126.8507 
L 371.889795 158.520388 
L 371.93573 116.58955 
L 371.981609 157.244513 
L 372.027434 116.412442 
L 372.103686 126.76174 
L 372.194988 121.853489 
L 372.210184 161.427884 
L 372.255735 121.477054 
L 372.301231 163.064605 
L 372.331532 131.441827 
L 372.42229 120.060326 
L 372.437395 159.498803 
L 372.482676 115.110501 
L 372.542966 134.159776 
L 372.618195 168.699474 
L 372.633223 123.202765 
L 372.648245 139.847571 
L 372.663261 129.66354 
L 372.678271 160.201611 
L 372.723266 145.377984 
L 372.738253 160.840969 
L 372.753234 117.943891 
L 372.813098 135.171449 
L 372.828049 127.284856 
L 372.842995 141.547067 
L 372.872868 136.449803 
L 372.887796 177.796114 
L 372.932545 124.098339 
L 372.977241 136.20889 
L 372.992128 129.751332 
L 373.007009 143.774444 
L 373.021885 141.175438 
L 373.036754 164.628607 
L 373.066476 123.236666 
L 373.111016 151.430977 
L 373.185133 115.168202 
L 373.229534 128.428163 
L 373.259106 131.954375 
L 373.273884 123.714766 
L 373.318182 144.600195 
L 373.332937 154.500422 
L 373.347685 128.816837 
L 373.406624 139.372741 
L 373.436059 122.528502 
L 373.465471 158.392769 
L 373.509547 137.396895 
L 373.524228 163.705671 
L 373.538903 129.638255 
L 373.597547 136.321189 
L 373.670725 152.139284 
L 373.685344 120.623506 
L 373.758354 207.447344 
L 373.787519 127.212355 
L 373.802093 127.645954 
L 373.816661 127.378371 
L 373.874879 172.340544 
L 373.918485 143.756334 
L 373.933009 119.194532 
L 373.962041 144.648918 
L 374.020037 143.576691 
L 374.034523 163.856655 
L 374.106868 121.545634 
L 374.12132 117.007201 
L 374.135767 154.893204 
L 374.236743 128.704945 
L 374.251147 128.755539 
L 374.294324 141.927476 
L 374.366178 129.806648 
L 374.423563 111.93252 
L 374.437896 128.256072 
L 374.452224 169.382195 
L 374.495174 112.524213 
L 374.538076 117.23112 
L 374.595204 162.199312 
L 374.652246 132.934892 
L 374.694972 153.079344 
L 374.709203 116.390686 
L 374.723429 157.529978 
L 374.73765 115.451804 
L 374.822862 139.51451 
L 374.907885 124.296118 
L 374.922037 154.575731 
L 374.950325 121.270303 
L 375.035064 139.006238 
L 375.049169 147.616911 
L 375.063269 119.481795 
L 375.133689 143.600165 
L 375.189932 126.162947 
L 375.175879 178.703154 
L 375.232059 143.816223 
L 375.246092 147.145793 
L 375.260119 179.278599 
L 375.344173 121.642725 
L 375.358164 152.009348 
L 375.428042 119.814581 
L 375.483852 124.445659 
L 375.609127 155.824169 
L 375.581324 122.961947 
L 375.623021 140.67159 
L 375.692416 120.504326 
L 375.664673 153.532564 
L 375.747841 123.976463 
L 375.830827 144.888511 
L 375.817009 121.254765 
L 375.858449 142.691347 
L 375.886051 120.089643 
L 375.899845 161.418904 
L 375.982501 126.287342 
L 376.023763 124.404754 
L 376.106151 138.384423 
L 376.188362 147.467004 
L 376.229401 124.532159 
L 376.284051 143.847557 
L 376.270396 113.964855 
L 376.352254 135.883628 
L 376.393117 177.865304 
L 376.406728 122.959237 
L 376.433936 130.611183 
L 376.447533 121.770755 
L 376.461125 166.633247 
L 376.529012 134.145774 
L 376.63738 153.746094 
L 376.610317 125.321774 
L 376.650904 153.343856 
L 376.677939 157.090935 
L 376.73195 122.211586 
L 376.745441 174.857763 
L 376.839743 130.783131 
L 376.947233 158.778832 
L 376.90696 125.892327 
L 376.960648 146.537494 
L 376.987464 123.686399 
L 377.067797 147.352581 
L 377.134613 123.649322 
L 377.174647 135.497845 
L 377.187982 191.846876 
L 377.281197 120.512487 
L 377.374185 137.736852 
L 377.453709 118.018562 
L 377.400712 149.565251 
L 377.466947 148.507934 
L 377.48018 157.099433 
L 377.506633 127.810644 
L 377.546278 141.610744 
L 377.559484 124.499724 
L 377.625444 161.377149 
L 377.651796 132.636798 
L 377.730744 199.757925 
L 377.69129 120.993641 
L 377.757023 133.52231 
L 377.783285 148.567068 
L 377.848859 125.156605 
L 377.88815 220.055608 
L 377.953544 121.588539 
L 378.057943 157.443022 
L 378.018827 115.180634 
L 378.070972 138.610757 
L 378.110035 129.436107 
L 378.136054 143.959348 
L 378.149057 141.344426 
L 378.17505 128.971718 
L 378.252922 173.70578 
L 378.369433 118.231172 
L 378.485589 171.988794 
L 378.524229 125.042606 
L 378.601392 138.510024 
L 378.614237 129.27213 
L 378.665575 145.27064 
L 378.678399 168.396129 
L 378.691218 127.170281 
L 378.768044 140.242968 
L 378.895744 124.313227 
L 378.819176 161.162546 
L 378.908491 124.629917 
L 378.933971 115.361507 
L 379.048422 159.889481 
L 379.073809 121.691715 
L 379.16253 140.846852 
L 379.187841 119.926167 
L 379.251045 123.315606 
L 379.301533 157.80121 
L 379.351955 113.047481 
L 379.36455 142.794858 
L 379.402309 125.8492 
L 379.465159 136.52997 
L 379.540443 153.45299 
L 379.49027 121.760172 
L 379.552975 123.477659 
L 379.565504 124.435574 
L 379.653089 169.592492 
L 379.615577 120.690671 
L 379.690565 142.499135 
L 379.790319 124.614997 
L 379.752941 178.4704 
L 379.802769 138.244331 
L 379.852532 167.507904 
L 379.840098 119.986532 
L 379.902231 124.379731 
L 379.989047 157.02643 
L 380.001433 122.707886 
L 380.013815 138.400363 
L 380.026193 133.752144 
L 380.063303 147.456305 
L 380.075665 138.088245 
L 380.088023 159.330635 
L 380.149754 126.262177 
L 380.186744 140.300799 
L 380.211384 134.854897 
L 380.223698 135.008021 
L 380.236009 125.492245 
L 380.248315 169.395147 
L 380.309786 152.710758 
L 380.346622 170.108365 
L 380.358892 136.075761 
L 380.371159 142.233552 
L 380.383421 121.631301 
L 380.39568 165.457974 
L 380.481381 122.655564 
L 380.493608 176.905033 
L 380.505831 109.67369 
L 380.591285 130.987798 
L 380.615665 149.424127 
L 380.664379 120.58351 
L 380.700873 144.103697 
L 380.749478 119.242661 
L 380.785892 131.035471 
L 380.798021 150.683265 
L 380.810148 120.325184 
L 380.894923 139.201367 
L 380.979509 123.491723 
L 380.967437 144.494834 
L 380.991578 125.381541 
L 381.039814 178.957453 
L 381.015704 123.589706 
L 381.100023 154.833717 
L 381.12408 115.669412 
L 381.220157 123.921961 
L 381.244138 111.993387 
L 381.339913 147.260688 
L 381.42352 116.526548 
L 381.399651 152.773632 
L 381.459295 125.924462 
L 381.554531 146.179242 
L 381.54264 123.867981 
L 381.578303 136.007572 
L 381.625803 142.107869 
L 381.696942 118.57977 
L 381.720625 148.85379 
L 381.744294 126.052478 
L 381.767948 120.884973 
L 381.779769 136.393489 
L 381.791587 129.649772 
L 381.838822 142.042656 
L 381.862417 121.293196 
L 381.885998 137.385158 
L 381.933116 118.913521 
L 381.909565 170.855674 
L 381.991932 134.962723 
L 382.027178 163.208994 
L 382.050657 114.352971 
L 382.085849 126.701604 
L 382.13272 142.540448 
L 382.121008 114.195899 
L 382.191229 134.267003 
L 382.214608 121.376384 
L 382.296319 127.927716 
L 382.319633 150.317962 
L 382.342933 125.002266 
L 382.40112 136.189985 
L 382.447606 139.802654 
L 382.470828 125.187819 
L 382.540408 172.086656 
L 382.494035 124.597319 
L 382.575151 167.437809 
L 382.621425 120.372141 
L 382.679189 168.44479 
L 382.690732 130.728325 
L 382.70227 130.698446 
L 382.759912 164.769207 
L 382.725337 118.360092 
L 382.805963 124.66311 
L 382.817467 125.375195 
L 382.828967 158.104607 
L 382.840464 118.774445 
L 382.920847 138.587353 
L 383.023947 120.790562 
L 382.978159 146.984923 
L 383.035385 124.695739 
L 383.160982 152.541442 
L 383.172379 120.990466 
L 383.229315 161.337018 
L 383.274802 124.752743 
L 383.286165 124.961669 
L 383.308882 150.841944 
L 383.320235 120.549144 
L 383.399613 138.576216 
L 383.422262 120.211294 
L 383.456211 150.861702 
L 383.524017 125.80775 
L 383.602972 121.156283 
L 383.63676 151.077154 
L 383.648016 121.076736 
L 383.659269 154.479437 
L 383.749171 134.067636 
L 383.827662 150.339159 
L 383.771613 131.94027 
L 383.861251 137.000286 
L 383.928342 140.81427 
L 383.905991 116.228335 
L 383.939512 132.761633 
L 383.950679 120.28456 
L 384.006465 142.376711 
L 384.051034 123.582982 
L 384.173334 145.177741 
L 384.239878 150.913842 
L 384.295242 123.132536 
L 384.339476 155.667109 
L 384.40573 134.981202 
L 384.416762 134.840594 
L 384.42779 116.316654 
L 384.504897 141.888881 
L 384.526899 135.829388 
L 384.559878 125.106568 
L 384.581848 132.414985 
L 384.61478 158.507034 
L 384.603806 120.098791 
L 384.702459 152.157839 
L 384.735287 117.533233 
L 384.757156 166.207069 
L 384.811775 134.198021 
L 384.833601 122.245888 
L 384.844509 146.631198 
L 384.866316 125.535522 
L 384.877214 154.127336 
L 384.964293 124.749009 
L 384.975163 119.341704 
L 385.029471 145.304168 
L 385.051172 133.528978 
L 385.148676 159.600847 
L 385.116202 120.78357 
L 385.170309 149.762372 
L 385.235137 122.025784 
L 385.22434 166.738753 
L 385.289075 125.095446 
L 385.321402 154.19895 
L 385.332171 117.275693 
L 385.385973 126.96056 
L 385.396724 116.720188 
L 385.418218 150.281906 
L 385.482625 126.234335 
L 385.493349 144.427224 
L 385.50407 121.14219 
L 385.600423 137.863546 
L 385.653848 116.617914 
L 385.621802 157.055175 
L 385.717859 120.336943 
L 385.728517 119.324804 
L 385.739172 126.551147 
L 385.856181 148.12663 
L 385.845559 124.101931 
L 385.866801 145.527367 
L 385.909249 120.58002 
L 385.962243 156.065542 
L 385.972833 132.814288 
L 385.98342 153.056901 
L 386.07857 138.94171 
L 386.152413 124.433083 
L 386.141873 172.735007 
L 386.194544 127.376583 
L 386.268162 168.516095 
L 386.257654 118.820443 
L 386.310166 140.626421 
L 386.404506 122.10832 
L 386.414974 144.32949 
L 386.435901 117.916712 
L 386.456816 152.587787 
L 386.540363 130.085748 
L 386.550794 147.059042 
L 386.592488 120.040796 
L 386.654943 136.814062 
L 386.738057 122.251251 
L 386.727678 178.196449 
L 386.748434 124.681547 
L 386.789912 161.737042 
L 386.820991 118.354753 
L 386.862391 136.175646 
L 386.903745 159.47568 
L 386.914077 122.79996 
L 386.965693 139.425274 
L 386.976007 124.077323 
L 386.996629 152.413005 
L 387.079003 134.205091 
L 387.120123 158.0953 
L 387.130396 123.50224 
L 387.18172 131.752957 
L 387.20223 144.485268 
L 387.212481 121.291586 
L 387.22273 133.931102 
L 387.304617 114.213954 
L 387.243218 140.487328 
L 387.325061 130.468429 
L 387.386328 152.032957 
L 387.376124 121.249731 
L 387.427119 125.44676 
L 387.437309 123.417188 
L 387.508568 164.043654 
L 387.549228 138.149798 
L 387.599992 116.077533 
L 387.650688 125.894981 
L 387.741771 166.892527 
L 387.731662 114.918182 
L 387.751878 143.393706 
L 387.761983 123.729048 
L 387.862879 132.503759 
L 387.923288 125.828061 
L 387.933347 150.925421 
L 387.943403 151.575569 
L 387.993645 120.832788 
L 388.063873 143.699331 
L 388.113956 118.06298 
L 388.093931 144.157898 
L 388.183962 137.9334 
L 388.233888 159.357733 
L 388.25384 126.102682 
L 388.283749 153.455063 
L 388.373334 118.29541 
L 388.393213 137.602038 
L 388.403149 152.952425 
L 388.442866 125.886924 
L 388.492454 129.691328 
L 388.532078 159.284884 
L 388.591438 118.150445 
L 388.640833 179.883693 
L 388.700023 132.080737 
L 388.719733 128.932255 
L 388.749278 120.032706 
L 388.8083 138.698941 
L 388.818128 130.270417 
L 388.847598 125.627911 
L 388.857416 134.901442 
L 388.867231 152.500727 
L 388.935869 120.429632 
L 388.965247 135.239921 
L 388.994603 153.814474 
L 389.072775 120.163606 
L 389.121551 149.884322 
L 389.131298 120.047654 
L 389.189732 135.610383 
L 389.209191 123.492859 
L 389.277216 157.491373 
L 389.296629 118.819707 
L 389.306332 162.671044 
L 389.393549 127.038691 
L 389.480566 116.408082 
L 389.499877 171.427663 
L 389.528824 122.08469 
L 389.615533 134.730282 
L 389.692443 148.426945 
L 389.66362 117.287711 
L 389.702046 140.250455 
L 389.73084 153.723803 
L 389.826663 115.274255 
L 389.855363 225.359161 
L 389.941334 127.137304 
L 390.027111 148.477974 
L 389.99854 120.862758 
L 390.03663 133.03715 
L 390.122193 120.897133 
L 390.084189 150.339241 
L 390.150672 129.874673 
L 390.217039 140.181065 
L 390.179129 114.814465 
L 390.226511 135.891624 
L 390.302199 160.054378 
L 390.311649 113.189945 
L 390.321097 183.557963 
L 390.424872 141.126021 
L 390.50957 144.721542 
L 390.518969 120.79909 
L 390.594079 118.269513 
L 390.640948 169.962946 
L 390.753199 120.769208 
L 390.771875 123.252949 
L 390.827849 174.498179 
L 390.902354 138.279298 
L 390.995281 117.919535 
L 390.985998 158.475113 
L 391.004561 143.252876 
L 391.041659 154.708884 
L 391.060195 125.819128 
L 391.097239 138.937631 
L 391.152738 114.515759 
L 391.143493 156.307929 
L 391.208156 131.635622 
L 391.217384 155.616454 
L 391.235835 119.188726 
L 391.318751 139.86405 
L 391.327953 138.573419 
L 391.401487 114.323899 
L 391.373928 156.491727 
L 391.429026 122.353245 
L 391.456545 118.363448 
L 391.548132 157.41476 
L 391.639499 113.076453 
L 391.666867 135.730785 
L 391.675985 125.54703 
L 391.730648 174.545734 
L 391.767047 141.424142 
L 391.812496 163.435833 
L 391.785233 133.443181 
L 391.82158 146.272771 
L 391.894169 114.798628 
L 391.903233 157.235314 
L 391.930412 140.924006 
L 392.038934 122.855619 
L 391.948521 152.534629 
L 392.047964 130.534596 
L 392.09308 169.285724 
L 392.102097 120.131881 
L 392.165154 139.759038 
L 392.219121 118.010713 
L 392.210132 159.659226 
L 392.273011 136.172524 
L 392.317862 145.843762 
L 392.299928 117.987675 
L 392.353704 133.88382 
L 392.46103 139.232776 
L 392.46996 119.506275 
L 392.568054 158.043356 
L 392.585862 132.304886 
L 392.594763 132.820782 
L 392.603662 129.784142 
L 392.701413 120.258612 
L 392.710287 164.204957 
L 392.816615 121.69201 
L 392.825462 136.709773 
L 392.834308 124.1247 
L 392.896167 155.296311 
L 392.94029 129.959702 
L 392.949109 149.550323 
L 393.028385 120.394662 
L 393.045979 128.071747 
L 393.054774 126.527277 
L 393.081144 134.993198 
L 393.08993 164.173208 
L 393.168914 126.879969 
L 393.186444 127.666415 
L 393.195205 127.173246 
L 393.203965 128.265447 
L 393.212723 117.599124 
L 393.221479 158.514943 
L 393.300191 137.032913 
L 393.308927 161.591245 
L 393.387458 124.222118 
L 393.4136 155.949023 
L 393.526672 121.901453 
L 393.535356 150.2406 
L 393.578747 119.56156 
L 393.63075 130.865828 
L 393.648069 147.40343 
L 393.725906 123.128655 
L 393.777709 120.498295 
L 393.84667 164.946532 
L 393.941289 117.105749 
L 393.958467 142.281621 
L 393.9928 116.11071 
L 394.001379 163.150425 
L 394.061374 122.257819 
L 394.146918 179.227903 
L 394.10417 119.378348 
L 394.172544 133.670599 
L 394.181082 114.007975 
L 394.232271 158.474823 
L 394.283391 116.877633 
L 394.351444 114.174911 
L 394.393916 165.323999 
L 394.44482 122.770231 
L 394.453297 167.515678 
L 394.512586 134.724063 
L 394.537967 141.860512 
L 394.546424 122.259389 
L 394.580232 136.515419 
L 394.588679 115.08599 
L 394.681476 153.005335 
L 394.689901 136.045661 
L 394.698324 137.991512 
L 394.706745 167.512706 
L 394.765642 122.982654 
L 394.807655 136.326518 
L 394.824447 137.296527 
L 394.83284 133.181846 
L 394.866395 165.128696 
L 394.933417 124.681549 
L 394.941786 125.530244 
L 394.958519 146.983893 
L 394.991964 115.924833 
L 395.050421 121.869643 
L 395.075447 147.740369 
L 395.108789 120.766888 
L 395.175386 143.338716 
L 395.250169 118.903101 
L 395.241867 145.044681 
L 395.291652 128.560655 
L 395.299943 195.363261 
L 395.366207 120.194466 
L 395.399296 127.012657 
L 395.448876 187.318007 
L 395.498391 119.918742 
L 395.514882 132.656432 
L 395.523124 118.277163 
L 395.605454 150.466945 
L 395.613677 122.126747 
L 395.654766 156.178944 
L 395.671189 121.775872 
L 395.728615 132.402786 
L 395.769581 154.361491 
L 395.745007 126.041681 
L 395.785955 135.930477 
L 395.85138 116.513458 
L 395.867719 160.908947 
L 395.892214 126.05294 
L 395.900375 170.952407 
L 395.957457 118.997139 
L 395.998178 128.570766 
L 396.079488 145.219187 
L 396.014454 117.906546 
L 396.09573 130.360115 
L 396.184934 118.247756 
L 396.176833 158.27287 
L 396.20113 135.819297 
L 396.28201 141.653658 
L 396.30624 116.332143 
L 396.411061 177.931546 
L 396.419112 117.658923 
L 396.523623 158.386896 
L 396.57978 115.301611 
L 396.547701 169.401946 
L 396.643858 117.592178 
L 396.707829 156.214801 
L 396.659861 115.250019 
L 396.755736 141.991069 
L 396.763715 117.054231 
L 396.803584 160.902611 
L 396.851371 160.089886 
L 396.85933 165.768978 
L 396.875242 119.408596 
L 396.899099 129.299823 
L 396.986444 145.325817 
L 397.010231 119.207662 
L 397.089414 176.31535 
L 397.128944 137.133926 
L 397.20788 121.298124 
L 397.144744 160.021411 
L 397.231529 134.716727 
L 397.310254 123.591029 
L 397.318117 146.30483 
L 397.325979 118.108826 
L 397.380967 171.635735 
L 397.428037 131.935698 
L 397.45155 134.835187 
L 397.443714 130.088015 
L 397.459384 134.734513 
L 397.522002 120.372662 
L 397.475048 164.768148 
L 397.568897 122.7415 
L 397.662516 155.913005 
L 397.685885 153.047564 
L 397.786985 116.639859 
L 397.794751 138.772991 
L 397.825798 149.415975 
L 397.841312 121.358181 
L 397.887817 135.300829 
L 397.972929 118.535466 
L 397.980657 150.806304 
L 398.050139 162.76743 
L 398.011553 121.417069 
L 398.057851 131.404973 
L 398.104093 118.564903 
L 398.142584 150.432107 
L 398.165661 125.033639 
L 398.196408 156.22866 
L 398.250155 112.563204 
L 398.273167 135.377848 
L 398.311488 117.03238 
L 398.349771 154.571235 
L 398.38037 129.542853 
L 398.487273 171.042714 
L 398.479647 121.932586 
L 398.487273 171.042714 
" clip-path="url(#p96fa65903f)" style="fill: none; stroke: #1f77b4; stroke-width: 1.5; stroke-linecap: square"/>
   </g>
   <g id="patch_3">
    <path d="M 57.6 307.584 
L 57.6 41.472 
" style="fill: none; stroke: #000000; stroke-width: 0.8; stroke-linejoin: miter; stroke-linecap: square"/>
   </g>
   <g id="patch_4">
    <path d="M 414.72 307.584 
L 414.72 41.472 
" style="fill: none; stroke: #000000; stroke-width: 0.8; stroke-linejoin: miter; stroke-linecap: square"/>
   </g>
   <g id="patch_5">
    <path d="M 57.6 307.584 
L 414.72 307.584 
" style="fill: none; stroke: #000000; stroke-width: 0.8; stroke-linejoin: miter; stroke-linecap: square"/>
   </g>
   <g id="patch_6">
    <path d="M 57.6 41.472 
L 414.72 41.472 
" style="fill: none; stroke: #000000; stroke-width: 0.8; stroke-linejoin: miter; stroke-linecap: square"/>
   </g>
  </g>
 </g>
 <defs>
  <clipPath id="p96fa65903f">
   <rect x="57.6" y="41.472" width="357.12" height="266.112"/>
  </clipPath>
 </defs>
</svg>
