<?xml version="1.0" encoding="utf-8" standalone="no"?>
<!DOCTYPE svg PUBLIC "-//W3C//DTD SVG 1.1//EN"
  "http://www.w3.org/Graphics/SVG/1.1/DTD/svg11.dtd">
<svg xmlns:xlink="http://www.w3.org/1999/xlink" width="460.8pt" height="345.6pt" viewBox="0 0 460.8 345.6" xmlns="http://www.w3.org/2000/svg" version="1.1">
 <metadata>
  <rdf:RDF xmlns:dc="http://purl.org/dc/elements/1.1/" xmlns:cc="http://creativecommons.org/ns#" xmlns:rdf="http://www.w3.org/1999/02/22-rdf-syntax-ns#">
   <cc:Work>
    <dc:type rdf:resource="http://purl.org/dc/dcmitype/StillImage"/>
    <dc:date>2025-11-22T14:05:33.756013</dc:date>
    <dc:format>image/svg+xml</dc:format>
    <dc:creator>
     <cc:Agent>
      <dc:title>Matplotlib v3.10.6, https://matplotlib.org/</dc:title>
     </cc:Agent>
    </dc:creator>
   </cc:Work>
  </rdf:RDF>
 </metadata>
 <defs>
  <style type="text/css">*{stroke-linejoin: round; stroke-linecap: butt}</style>
 </defs>
 <g id="figure_1">
  <g id="patch_1">
   <path d="M 0 345.6 
L 460.8 345.6 
L 460.8 0 
L 0 0 
z
" style="fill: #ffffff"/>
  </g>
  <g id="axes_1">
   <g id="patch_2">
    <path d="M 57.6 307.584 
L 414.72 307.584 
L 414.72 41.472 
L 57.6 41.472 
z
" style="fill: #ffffff"/>
   </g>
   <g id="matplotlib.axis_1">
    <g id="xtick_1">
     <g id="line2d_1">
      <defs>
       <path id="mf620117b01" d="M 0 0 
L 0 3.5 
" style="stroke: #000000; stroke-width: 0.8"/>
      </defs>
      <g>
       <use xlink:href="#mf620117b01" x="73.832727" y="307.584" style="stroke: #000000; stroke-width: 0.8"/>
      </g>
     </g>
     <g id="text_1">
      <!-- $\mathdefault{10^{0}}$ -->
      <g transform="translate(65.032727 322.182437) scale(0.1 -0.1)">
       <defs>
        <path id="DejaVuSans-31" d="M 794 531 
L 1825 531 
L 1825 4091 
L 703 3866 
L 703 4441 
L 1819 4666 
L 2450 4666 
L 2450 531 
L 3481 531 
L 3481 0 
L 794 0 
L 794 531 
z
" transform="scale(0.015625)"/>
        <path id="DejaVuSans-30" d="M 2034 4250 
Q 1547 4250 1301 3770 
Q 1056 3291 1056 2328 
Q 1056 1369 1301 889 
Q 1547 409 2034 409 
Q 2525 409 2770 889 
Q 3016 1369 3016 2328 
Q 3016 3291 2770 3770 
Q 2525 4250 2034 4250 
z
M 2034 4750 
Q 2819 4750 3233 4129 
Q 3647 3509 3647 2328 
Q 3647 1150 3233 529 
Q 2819 -91 2034 -91 
Q 1250 -91 836 529 
Q 422 1150 422 2328 
Q 422 3509 836 4129 
Q 1250 4750 2034 4750 
z
" transform="scale(0.015625)"/>
       </defs>
       <use xlink:href="#DejaVuSans-31" transform="translate(0 0.765625)"/>
       <use xlink:href="#DejaVuSans-30" transform="translate(63.623047 0.765625)"/>
       <use xlink:href="#DejaVuSans-30" transform="translate(128.203125 39.046875) scale(0.7)"/>
      </g>
     </g>
    </g>
    <g id="xtick_2">
     <g id="line2d_2">
      <g>
       <use xlink:href="#mf620117b01" x="161.603693" y="307.584" style="stroke: #000000; stroke-width: 0.8"/>
      </g>
     </g>
     <g id="text_2">
      <!-- $\mathdefault{10^{1}}$ -->
      <g transform="translate(152.803693 322.182437) scale(0.1 -0.1)">
       <use xlink:href="#DejaVuSans-31" transform="translate(0 0.684375)"/>
       <use xlink:href="#DejaVuSans-30" transform="translate(63.623047 0.684375)"/>
       <use xlink:href="#DejaVuSans-31" transform="translate(128.203125 38.965625) scale(0.7)"/>
      </g>
     </g>
    </g>
    <g id="xtick_3">
     <g id="line2d_3">
      <g>
       <use xlink:href="#mf620117b01" x="249.374659" y="307.584" style="stroke: #000000; stroke-width: 0.8"/>
      </g>
     </g>
     <g id="text_3">
      <!-- $\mathdefault{10^{2}}$ -->
      <g transform="translate(240.574659 322.182437) scale(0.1 -0.1)">
       <defs>
        <path id="DejaVuSans-32" d="M 1228 531 
L 3431 531 
L 3431 0 
L 469 0 
L 469 531 
Q 828 903 1448 1529 
Q 2069 2156 2228 2338 
Q 2531 2678 2651 2914 
Q 2772 3150 2772 3378 
Q 2772 3750 2511 3984 
Q 2250 4219 1831 4219 
Q 1534 4219 1204 4116 
Q 875 4013 500 3803 
L 500 4441 
Q 881 4594 1212 4672 
Q 1544 4750 1819 4750 
Q 2544 4750 2975 4387 
Q 3406 4025 3406 3419 
Q 3406 3131 3298 2873 
Q 3191 2616 2906 2266 
Q 2828 2175 2409 1742 
Q 1991 1309 1228 531 
z
" transform="scale(0.015625)"/>
       </defs>
       <use xlink:href="#DejaVuSans-31" transform="translate(0 0.765625)"/>
       <use xlink:href="#DejaVuSans-30" transform="translate(63.623047 0.765625)"/>
       <use xlink:href="#DejaVuSans-32" transform="translate(128.203125 39.046875) scale(0.7)"/>
      </g>
     </g>
    </g>
    <g id="xtick_4">
     <g id="line2d_4">
      <g>
       <use xlink:href="#mf620117b01" x="337.145625" y="307.584" style="stroke: #000000; stroke-width: 0.8"/>
      </g>
     </g>
     <g id="text_4">
      <!-- $\mathdefault{10^{3}}$ -->
      <g transform="translate(328.345625 322.182437) scale(0.1 -0.1)">
       <defs>
        <path id="DejaVuSans-33" d="M 2597 2516 
Q 3050 2419 3304 2112 
Q 3559 1806 3559 1356 
Q 3559 666 3084 287 
Q 2609 -91 1734 -91 
Q 1441 -91 1130 -33 
Q 819 25 488 141 
L 488 750 
Q 750 597 1062 519 
Q 1375 441 1716 441 
Q 2309 441 2620 675 
Q 2931 909 2931 1356 
Q 2931 1769 2642 2001 
Q 2353 2234 1838 2234 
L 1294 2234 
L 1294 2753 
L 1863 2753 
Q 2328 2753 2575 2939 
Q 2822 3125 2822 3475 
Q 2822 3834 2567 4026 
Q 2313 4219 1838 4219 
Q 1578 4219 1281 4162 
Q 984 4106 628 3988 
L 628 4550 
Q 988 4650 1302 4700 
Q 1616 4750 1894 4750 
Q 2613 4750 3031 4423 
Q 3450 4097 3450 3541 
Q 3450 3153 3228 2886 
Q 3006 2619 2597 2516 
z
" transform="scale(0.015625)"/>
       </defs>
       <use xlink:href="#DejaVuSans-31" transform="translate(0 0.765625)"/>
       <use xlink:href="#DejaVuSans-30" transform="translate(63.623047 0.765625)"/>
       <use xlink:href="#DejaVuSans-33" transform="translate(128.203125 39.046875) scale(0.7)"/>
      </g>
     </g>
    </g>
    <g id="xtick_5">
     <g id="line2d_5">
      <defs>
       <path id="md5461dacbd" d="M 0 0 
L 0 2 
" style="stroke: #000000; stroke-width: 0.6"/>
      </defs>
      <g>
       <use xlink:href="#md5461dacbd" x="60.236833" y="307.584" style="stroke: #000000; stroke-width: 0.6"/>
      </g>
     </g>
    </g>
    <g id="xtick_6">
     <g id="line2d_6">
      <g>
       <use xlink:href="#md5461dacbd" x="65.326842" y="307.584" style="stroke: #000000; stroke-width: 0.6"/>
      </g>
     </g>
    </g>
    <g id="xtick_7">
     <g id="line2d_7">
      <g>
       <use xlink:href="#md5461dacbd" x="69.816548" y="307.584" style="stroke: #000000; stroke-width: 0.6"/>
      </g>
     </g>
    </g>
    <g id="xtick_8">
     <g id="line2d_8">
      <g>
       <use xlink:href="#md5461dacbd" x="100.254421" y="307.584" style="stroke: #000000; stroke-width: 0.6"/>
      </g>
     </g>
    </g>
    <g id="xtick_9">
     <g id="line2d_9">
      <g>
       <use xlink:href="#md5461dacbd" x="115.710121" y="307.584" style="stroke: #000000; stroke-width: 0.6"/>
      </g>
     </g>
    </g>
    <g id="xtick_10">
     <g id="line2d_10">
      <g>
       <use xlink:href="#md5461dacbd" x="126.676114" y="307.584" style="stroke: #000000; stroke-width: 0.6"/>
      </g>
     </g>
    </g>
    <g id="xtick_11">
     <g id="line2d_11">
      <g>
       <use xlink:href="#md5461dacbd" x="135.182" y="307.584" style="stroke: #000000; stroke-width: 0.6"/>
      </g>
     </g>
    </g>
    <g id="xtick_12">
     <g id="line2d_12">
      <g>
       <use xlink:href="#md5461dacbd" x="142.131814" y="307.584" style="stroke: #000000; stroke-width: 0.6"/>
      </g>
     </g>
    </g>
    <g id="xtick_13">
     <g id="line2d_13">
      <g>
       <use xlink:href="#md5461dacbd" x="148.007798" y="307.584" style="stroke: #000000; stroke-width: 0.6"/>
      </g>
     </g>
    </g>
    <g id="xtick_14">
     <g id="line2d_14">
      <g>
       <use xlink:href="#md5461dacbd" x="153.097808" y="307.584" style="stroke: #000000; stroke-width: 0.6"/>
      </g>
     </g>
    </g>
    <g id="xtick_15">
     <g id="line2d_15">
      <g>
       <use xlink:href="#md5461dacbd" x="157.587514" y="307.584" style="stroke: #000000; stroke-width: 0.6"/>
      </g>
     </g>
    </g>
    <g id="xtick_16">
     <g id="line2d_16">
      <g>
       <use xlink:href="#md5461dacbd" x="188.025387" y="307.584" style="stroke: #000000; stroke-width: 0.6"/>
      </g>
     </g>
    </g>
    <g id="xtick_17">
     <g id="line2d_17">
      <g>
       <use xlink:href="#md5461dacbd" x="203.481086" y="307.584" style="stroke: #000000; stroke-width: 0.6"/>
      </g>
     </g>
    </g>
    <g id="xtick_18">
     <g id="line2d_18">
      <g>
       <use xlink:href="#md5461dacbd" x="214.44708" y="307.584" style="stroke: #000000; stroke-width: 0.6"/>
      </g>
     </g>
    </g>
    <g id="xtick_19">
     <g id="line2d_19">
      <g>
       <use xlink:href="#md5461dacbd" x="222.952965" y="307.584" style="stroke: #000000; stroke-width: 0.6"/>
      </g>
     </g>
    </g>
    <g id="xtick_20">
     <g id="line2d_20">
      <g>
       <use xlink:href="#md5461dacbd" x="229.90278" y="307.584" style="stroke: #000000; stroke-width: 0.6"/>
      </g>
     </g>
    </g>
    <g id="xtick_21">
     <g id="line2d_21">
      <g>
       <use xlink:href="#md5461dacbd" x="235.778764" y="307.584" style="stroke: #000000; stroke-width: 0.6"/>
      </g>
     </g>
    </g>
    <g id="xtick_22">
     <g id="line2d_22">
      <g>
       <use xlink:href="#md5461dacbd" x="240.868774" y="307.584" style="stroke: #000000; stroke-width: 0.6"/>
      </g>
     </g>
    </g>
    <g id="xtick_23">
     <g id="line2d_23">
      <g>
       <use xlink:href="#md5461dacbd" x="245.35848" y="307.584" style="stroke: #000000; stroke-width: 0.6"/>
      </g>
     </g>
    </g>
    <g id="xtick_24">
     <g id="line2d_24">
      <g>
       <use xlink:href="#md5461dacbd" x="275.796352" y="307.584" style="stroke: #000000; stroke-width: 0.6"/>
      </g>
     </g>
    </g>
    <g id="xtick_25">
     <g id="line2d_25">
      <g>
       <use xlink:href="#md5461dacbd" x="291.252052" y="307.584" style="stroke: #000000; stroke-width: 0.6"/>
      </g>
     </g>
    </g>
    <g id="xtick_26">
     <g id="line2d_26">
      <g>
       <use xlink:href="#md5461dacbd" x="302.218046" y="307.584" style="stroke: #000000; stroke-width: 0.6"/>
      </g>
     </g>
    </g>
    <g id="xtick_27">
     <g id="line2d_27">
      <g>
       <use xlink:href="#md5461dacbd" x="310.723931" y="307.584" style="stroke: #000000; stroke-width: 0.6"/>
      </g>
     </g>
    </g>
    <g id="xtick_28">
     <g id="line2d_28">
      <g>
       <use xlink:href="#md5461dacbd" x="317.673746" y="307.584" style="stroke: #000000; stroke-width: 0.6"/>
      </g>
     </g>
    </g>
    <g id="xtick_29">
     <g id="line2d_29">
      <g>
       <use xlink:href="#md5461dacbd" x="323.54973" y="307.584" style="stroke: #000000; stroke-width: 0.6"/>
      </g>
     </g>
    </g>
    <g id="xtick_30">
     <g id="line2d_30">
      <g>
       <use xlink:href="#md5461dacbd" x="328.639739" y="307.584" style="stroke: #000000; stroke-width: 0.6"/>
      </g>
     </g>
    </g>
    <g id="xtick_31">
     <g id="line2d_31">
      <g>
       <use xlink:href="#md5461dacbd" x="333.129446" y="307.584" style="stroke: #000000; stroke-width: 0.6"/>
      </g>
     </g>
    </g>
    <g id="xtick_32">
     <g id="line2d_32">
      <g>
       <use xlink:href="#md5461dacbd" x="363.567318" y="307.584" style="stroke: #000000; stroke-width: 0.6"/>
      </g>
     </g>
    </g>
    <g id="xtick_33">
     <g id="line2d_33">
      <g>
       <use xlink:href="#md5461dacbd" x="379.023018" y="307.584" style="stroke: #000000; stroke-width: 0.6"/>
      </g>
     </g>
    </g>
    <g id="xtick_34">
     <g id="line2d_34">
      <g>
       <use xlink:href="#md5461dacbd" x="389.989012" y="307.584" style="stroke: #000000; stroke-width: 0.6"/>
      </g>
     </g>
    </g>
    <g id="xtick_35">
     <g id="line2d_35">
      <g>
       <use xlink:href="#md5461dacbd" x="398.494897" y="307.584" style="stroke: #000000; stroke-width: 0.6"/>
      </g>
     </g>
    </g>
    <g id="xtick_36">
     <g id="line2d_36">
      <g>
       <use xlink:href="#md5461dacbd" x="405.444712" y="307.584" style="stroke: #000000; stroke-width: 0.6"/>
      </g>
     </g>
    </g>
    <g id="xtick_37">
     <g id="line2d_37">
      <g>
       <use xlink:href="#md5461dacbd" x="411.320696" y="307.584" style="stroke: #000000; stroke-width: 0.6"/>
      </g>
     </g>
    </g>
   </g>
   <g id="matplotlib.axis_2">
    <g id="ytick_1">
     <g id="line2d_38">
      <defs>
       <path id="m65cccd3d17" d="M 0 0 
L -3.5 0 
" style="stroke: #000000; stroke-width: 0.8"/>
      </defs>
      <g>
       <use xlink:href="#m65cccd3d17" x="57.6" y="307.584" style="stroke: #000000; stroke-width: 0.8"/>
      </g>
     </g>
     <g id="text_5">
      <!-- $\mathdefault{10^{-12}}$ -->
      <g transform="translate(22.7 311.383219) scale(0.1 -0.1)">
       <defs>
        <path id="DejaVuSans-2212" d="M 678 2272 
L 4684 2272 
L 4684 1741 
L 678 1741 
L 678 2272 
z
" transform="scale(0.015625)"/>
       </defs>
       <use xlink:href="#DejaVuSans-31" transform="translate(0 0.765625)"/>
       <use xlink:href="#DejaVuSans-30" transform="translate(63.623047 0.765625)"/>
       <use xlink:href="#DejaVuSans-2212" transform="translate(128.203125 39.046875) scale(0.7)"/>
       <use xlink:href="#DejaVuSans-31" transform="translate(186.855469 39.046875) scale(0.7)"/>
       <use xlink:href="#DejaVuSans-32" transform="translate(231.391602 39.046875) scale(0.7)"/>
      </g>
     </g>
    </g>
    <g id="ytick_2">
     <g id="line2d_39">
      <g>
       <use xlink:href="#m65cccd3d17" x="57.6" y="263.232" style="stroke: #000000; stroke-width: 0.8"/>
      </g>
     </g>
     <g id="text_6">
      <!-- $\mathdefault{10^{-10}}$ -->
      <g transform="translate(22.7 267.031219) scale(0.1 -0.1)">
       <use xlink:href="#DejaVuSans-31" transform="translate(0 0.765625)"/>
       <use xlink:href="#DejaVuSans-30" transform="translate(63.623047 0.765625)"/>
       <use xlink:href="#DejaVuSans-2212" transform="translate(128.203125 39.046875) scale(0.7)"/>
       <use xlink:href="#DejaVuSans-31" transform="translate(186.855469 39.046875) scale(0.7)"/>
       <use xlink:href="#DejaVuSans-30" transform="translate(231.391602 39.046875) scale(0.7)"/>
      </g>
     </g>
    </g>
    <g id="ytick_3">
     <g id="line2d_40">
      <g>
       <use xlink:href="#m65cccd3d17" x="57.6" y="218.88" style="stroke: #000000; stroke-width: 0.8"/>
      </g>
     </g>
     <g id="text_7">
      <!-- $\mathdefault{10^{-8}}$ -->
      <g transform="translate(27.1 222.679219) scale(0.1 -0.1)">
       <defs>
        <path id="DejaVuSans-38" d="M 2034 2216 
Q 1584 2216 1326 1975 
Q 1069 1734 1069 1313 
Q 1069 891 1326 650 
Q 1584 409 2034 409 
Q 2484 409 2743 651 
Q 3003 894 3003 1313 
Q 3003 1734 2745 1975 
Q 2488 2216 2034 2216 
z
M 1403 2484 
Q 997 2584 770 2862 
Q 544 3141 544 3541 
Q 544 4100 942 4425 
Q 1341 4750 2034 4750 
Q 2731 4750 3128 4425 
Q 3525 4100 3525 3541 
Q 3525 3141 3298 2862 
Q 3072 2584 2669 2484 
Q 3125 2378 3379 2068 
Q 3634 1759 3634 1313 
Q 3634 634 3220 271 
Q 2806 -91 2034 -91 
Q 1263 -91 848 271 
Q 434 634 434 1313 
Q 434 1759 690 2068 
Q 947 2378 1403 2484 
z
M 1172 3481 
Q 1172 3119 1398 2916 
Q 1625 2713 2034 2713 
Q 2441 2713 2670 2916 
Q 2900 3119 2900 3481 
Q 2900 3844 2670 4047 
Q 2441 4250 2034 4250 
Q 1625 4250 1398 4047 
Q 1172 3844 1172 3481 
z
" transform="scale(0.015625)"/>
       </defs>
       <use xlink:href="#DejaVuSans-31" transform="translate(0 0.765625)"/>
       <use xlink:href="#DejaVuSans-30" transform="translate(63.623047 0.765625)"/>
       <use xlink:href="#DejaVuSans-2212" transform="translate(128.203125 39.046875) scale(0.7)"/>
       <use xlink:href="#DejaVuSans-38" transform="translate(186.855469 39.046875) scale(0.7)"/>
      </g>
     </g>
    </g>
    <g id="ytick_4">
     <g id="line2d_41">
      <g>
       <use xlink:href="#m65cccd3d17" x="57.6" y="174.528" style="stroke: #000000; stroke-width: 0.8"/>
      </g>
     </g>
     <g id="text_8">
      <!-- $\mathdefault{10^{-6}}$ -->
      <g transform="translate(27.1 178.327219) scale(0.1 -0.1)">
       <defs>
        <path id="DejaVuSans-36" d="M 2113 2584 
Q 1688 2584 1439 2293 
Q 1191 2003 1191 1497 
Q 1191 994 1439 701 
Q 1688 409 2113 409 
Q 2538 409 2786 701 
Q 3034 994 3034 1497 
Q 3034 2003 2786 2293 
Q 2538 2584 2113 2584 
z
M 3366 4563 
L 3366 3988 
Q 3128 4100 2886 4159 
Q 2644 4219 2406 4219 
Q 1781 4219 1451 3797 
Q 1122 3375 1075 2522 
Q 1259 2794 1537 2939 
Q 1816 3084 2150 3084 
Q 2853 3084 3261 2657 
Q 3669 2231 3669 1497 
Q 3669 778 3244 343 
Q 2819 -91 2113 -91 
Q 1303 -91 875 529 
Q 447 1150 447 2328 
Q 447 3434 972 4092 
Q 1497 4750 2381 4750 
Q 2619 4750 2861 4703 
Q 3103 4656 3366 4563 
z
" transform="scale(0.015625)"/>
       </defs>
       <use xlink:href="#DejaVuSans-31" transform="translate(0 0.765625)"/>
       <use xlink:href="#DejaVuSans-30" transform="translate(63.623047 0.765625)"/>
       <use xlink:href="#DejaVuSans-2212" transform="translate(128.203125 39.046875) scale(0.7)"/>
       <use xlink:href="#DejaVuSans-36" transform="translate(186.855469 39.046875) scale(0.7)"/>
      </g>
     </g>
    </g>
    <g id="ytick_5">
     <g id="line2d_42">
      <g>
       <use xlink:href="#m65cccd3d17" x="57.6" y="130.176" style="stroke: #000000; stroke-width: 0.8"/>
      </g>
     </g>
     <g id="text_9">
      <!-- $\mathdefault{10^{-4}}$ -->
      <g transform="translate(27.1 133.975219) scale(0.1 -0.1)">
       <defs>
        <path id="DejaVuSans-34" d="M 2419 4116 
L 825 1625 
L 2419 1625 
L 2419 4116 
z
M 2253 4666 
L 3047 4666 
L 3047 1625 
L 3713 1625 
L 3713 1100 
L 3047 1100 
L 3047 0 
L 2419 0 
L 2419 1100 
L 313 1100 
L 313 1709 
L 2253 4666 
z
" transform="scale(0.015625)"/>
       </defs>
       <use xlink:href="#DejaVuSans-31" transform="translate(0 0.684375)"/>
       <use xlink:href="#DejaVuSans-30" transform="translate(63.623047 0.684375)"/>
       <use xlink:href="#DejaVuSans-2212" transform="translate(128.203125 38.965625) scale(0.7)"/>
       <use xlink:href="#DejaVuSans-34" transform="translate(186.855469 38.965625) scale(0.7)"/>
      </g>
     </g>
    </g>
    <g id="ytick_6">
     <g id="line2d_43">
      <g>
       <use xlink:href="#m65cccd3d17" x="57.6" y="85.824" style="stroke: #000000; stroke-width: 0.8"/>
      </g>
     </g>
     <g id="text_10">
      <!-- $\mathdefault{10^{-2}}$ -->
      <g transform="translate(27.1 89.623219) scale(0.1 -0.1)">
       <use xlink:href="#DejaVuSans-31" transform="translate(0 0.765625)"/>
       <use xlink:href="#DejaVuSans-30" transform="translate(63.623047 0.765625)"/>
       <use xlink:href="#DejaVuSans-2212" transform="translate(128.203125 39.046875) scale(0.7)"/>
       <use xlink:href="#DejaVuSans-32" transform="translate(186.855469 39.046875) scale(0.7)"/>
      </g>
     </g>
    </g>
    <g id="ytick_7">
     <g id="line2d_44">
      <g>
       <use xlink:href="#m65cccd3d17" x="57.6" y="41.472" style="stroke: #000000; stroke-width: 0.8"/>
      </g>
     </g>
     <g id="text_11">
      <!-- $\mathdefault{10^{0}}$ -->
      <g transform="translate(33 45.271219) scale(0.1 -0.1)">
       <use xlink:href="#DejaVuSans-31" transform="translate(0 0.765625)"/>
       <use xlink:href="#DejaVuSans-30" transform="translate(63.623047 0.765625)"/>
       <use xlink:href="#DejaVuSans-30" transform="translate(128.203125 39.046875) scale(0.7)"/>
      </g>
     </g>
    </g>
   </g>
   <g id="line2d_45">
    <path d="M -1 63.566129 
L 73.832727 63.553736 
L 100.254421 111.936317 
L 115.710121 98.26031 
L 126.676114 101.722606 
L 135.182 84.70264 
L 142.131814 87.923011 
L 148.007798 103.432282 
L 153.097808 85.678395 
L 157.587514 89.960881 
L 161.603693 109.729173 
L 165.236769 91.976566 
L 168.553508 106.76949 
L 171.604611 102.321276 
L 174.429492 96.027712 
L 177.059393 89.192706 
L 179.519501 94.811149 
L 181.830418 126.378216 
L 184.009207 114.034293 
L 186.070166 97.605622 
L 188.025387 114.719551 
L 189.885192 94.248852 
L 191.658463 104.552202 
L 193.352895 112.700948 
L 194.975201 114.407569 
L 196.531272 106.832492 
L 198.026305 124.702282 
L 199.464907 95.680717 
L 200.851185 117.353168 
L 202.188812 106.775277 
L 203.481086 113.510025 
L 204.730984 110.046047 
L 205.941195 101.660642 
L 207.114162 100.18774 
L 208.252111 105.092988 
L 209.357071 95.518367 
L 210.430901 91.264888 
L 211.475307 104.984228 
L 212.491859 127.792572 
L 213.482005 136.493298 
L 214.44708 108.752367 
L 215.388324 92.913377 
L 216.306885 99.214545 
L 217.203831 98.140957 
L 218.080156 89.114128 
L 218.936786 93.997835 
L 219.774588 116.455101 
L 220.594371 110.40484 
L 221.396894 106.875927 
L 222.18287 133.884942 
L 222.952965 99.606176 
L 223.707811 114.659952 
L 224.447998 102.759619 
L 225.174086 121.847752 
L 225.886601 111.038825 
L 226.586041 126.448975 
L 227.272879 123.259085 
L 227.947559 142.095726 
L 228.610505 138.203588 
L 229.262119 130.58824 
L 229.90278 106.470903 
L 230.532851 121.720963 
L 231.152677 102.306533 
L 231.762585 124.186297 
L 232.362888 109.288398 
L 232.953884 129.268008 
L 233.535856 110.401708 
L 234.109076 95.816135 
L 234.673804 101.921107 
L 235.230288 110.325933 
L 236.319461 105.490444 
L 236.852594 124.637371 
L 237.378374 97.731163 
L 237.897001 120.731583 
L 238.408665 107.738745 
L 238.913553 119.456275 
L 239.41184 113.94914 
L 239.903698 117.921782 
L 240.38929 120.313592 
L 240.868774 114.557052 
L 241.342301 114.190163 
L 241.810018 114.774808 
L 242.272065 118.817954 
L 242.728579 106.411869 
L 243.17969 101.178444 
L 243.625525 105.114428 
L 244.066205 124.52931 
L 244.501849 112.763806 
L 244.932571 109.734327 
L 245.35848 99.550997 
L 245.779682 99.140686 
L 246.608377 127.921234 
L 247.016065 117.710316 
L 247.419438 104.191986 
L 247.818588 138.884128 
L 248.604563 104.678911 
L 248.991556 101.912731 
L 249.374659 111.039024 
L 249.75395 109.009558 
L 250.129504 136.175743 
L 250.501395 111.06172 
L 250.869692 111.261904 
L 251.234464 117.146232 
L 251.595779 110.853776 
L 251.953702 107.534475 
L 252.308294 135.42135 
L 252.659619 102.842886 
L 253.007735 118.50266 
L 253.352701 103.25332 
L 253.694572 100.266477 
L 254.033405 118.379965 
L 254.369253 109.867071 
L 254.702167 125.016337 
L 255.032199 114.772365 
L 255.359398 121.22185 
L 255.683812 106.078827 
L 256.005489 120.64937 
L 256.324473 166.281185 
L 256.640811 117.789066 
L 256.954545 126.28714 
L 257.265717 119.552001 
L 257.57437 109.097681 
L 257.880544 118.309364 
L 258.184279 136.607518 
L 258.485612 134.07356 
L 258.784582 122.723783 
L 259.081225 136.395602 
L 259.375577 141.694742 
L 259.957549 111.428116 
L 260.245237 114.732702 
L 260.53077 109.795961 
L 261.095498 135.239363 
L 261.374755 111.663221 
L 261.651981 110.854356 
L 261.927206 110.433583 
L 262.200458 111.634496 
L 262.741154 120.050342 
L 263.008653 126.631293 
L 263.274288 123.49727 
L 263.538084 131.929224 
L 263.800068 106.992846 
L 264.575385 133.724794 
L 265.083638 111.897709 
L 265.335246 107.560681 
L 266.080256 148.673668 
L 266.568961 119.152953 
L 266.810983 121.693925 
L 267.051479 155.274204 
L 267.290467 125.547802 
L 267.527966 122.57287 
L 267.763994 124.093561 
L 267.99857 113.378856 
L 268.231711 129.64158 
L 268.463435 155.845511 
L 268.693758 123.073401 
L 268.922699 134.670101 
L 269.150272 113.267296 
L 269.376495 135.353433 
L 269.601383 146.013588 
L 269.824953 115.947728 
L 270.047218 122.840577 
L 270.268195 140.354565 
L 270.487899 119.673746 
L 270.706343 113.554399 
L 270.923543 114.45548 
L 271.354264 128.239958 
L 271.567814 128.057123 
L 271.780173 127.488941 
L 271.991356 135.290366 
L 272.201376 131.42838 
L 272.410245 112.403123 
L 272.617975 118.772746 
L 272.82458 114.783497 
L 273.03007 125.563357 
L 273.234459 107.987179 
L 273.437758 123.229316 
L 273.639979 103.887585 
L 273.841132 133.524653 
L 274.240281 113.695199 
L 274.4383 110.241766 
L 274.635295 149.198431 
L 274.831277 114.349777 
L 275.220244 131.49202 
L 275.413249 131.564863 
L 275.605282 142.503962 
L 275.98647 117.932698 
L 276.175644 123.406746 
L 276.363883 108.260775 
L 276.551198 120.536072 
L 276.737596 124.065844 
L 276.923088 121.805694 
L 277.107681 123.668431 
L 277.474208 137.980037 
L 277.656158 114.562547 
L 277.837243 131.921342 
L 278.017473 128.274048 
L 278.196854 114.167077 
L 278.375395 135.615922 
L 278.553104 140.146787 
L 278.729988 122.379775 
L 279.081312 124.193108 
L 279.255768 133.910691 
L 279.429428 135.340934 
L 279.602301 129.721702 
L 279.945713 157.961153 
L 280.116266 106.267916 
L 280.286059 125.894268 
L 280.455099 120.340207 
L 280.623392 124.484748 
L 280.790946 136.293272 
L 280.957767 126.99788 
L 281.12386 142.802746 
L 281.289234 114.713333 
L 281.453892 119.677551 
L 281.617843 116.962928 
L 281.781091 131.30583 
L 281.943644 130.758097 
L 282.266683 113.627664 
L 282.427182 119.900522 
L 282.587008 132.081574 
L 282.746167 118.598378 
L 283.062504 127.524349 
L 283.219694 119.504279 
L 283.376238 131.22947 
L 283.532142 134.164299 
L 283.687411 120.868282 
L 283.84205 118.140772 
L 283.996064 136.817902 
L 284.149458 117.529503 
L 284.302238 114.766868 
L 284.454408 140.091244 
L 284.605972 129.381099 
L 284.756936 149.387342 
L 284.907305 115.842515 
L 285.057083 163.291955 
L 285.354885 116.697023 
L 285.502918 143.307973 
L 285.650378 139.901067 
L 285.797271 146.773909 
L 285.943599 123.967562 
L 286.089367 125.177813 
L 286.234581 135.979147 
L 286.523358 118.346487 
L 286.666931 120.175308 
L 286.952463 127.435446 
L 287.094432 145.572204 
L 287.376792 120.4295 
L 287.657076 110.75553 
L 287.796449 116.347143 
L 287.935314 136.061648 
L 288.073675 122.900927 
L 288.211536 156.23868 
L 288.3489 128.252163 
L 288.48577 144.889789 
L 288.622151 134.551388 
L 288.758046 138.705282 
L 289.028391 110.352378 
L 289.296832 133.099351 
L 289.430346 134.611958 
L 289.695981 123.302409 
L 289.828108 112.164928 
L 289.959778 142.563427 
L 290.090995 135.988033 
L 290.221761 136.576864 
L 290.352081 113.794558 
L 290.481956 116.803428 
L 290.611391 124.948241 
L 290.740388 150.344934 
L 290.997078 111.949524 
L 291.124779 124.307821 
L 291.252052 123.937373 
L 291.378902 132.977217 
L 291.631343 121.03621 
L 291.75694 147.540832 
L 292.006898 123.79373 
L 292.131265 128.86431 
L 292.255227 117.992185 
L 292.501949 136.83377 
L 292.624714 129.215508 
L 292.747085 146.958073 
L 292.990654 123.796194 
L 293.111858 133.946962 
L 293.232677 134.528235 
L 293.353114 127.402244 
L 293.473173 179.592299 
L 293.71216 120.649891 
L 293.831095 118.070605 
L 293.949659 122.750556 
L 294.185688 142.053825 
L 294.303156 131.733714 
L 294.420263 136.165822 
L 294.537012 111.12886 
L 294.769442 132.82379 
L 295.000464 120.741194 
L 295.344392 148.025117 
L 295.458349 117.570699 
L 295.571966 117.29915 
L 295.685245 124.825129 
L 295.798189 186.344293 
L 295.910799 124.105138 
L 296.023077 137.80678 
L 296.135025 125.442967 
L 296.246646 154.376423 
L 296.357941 122.05025 
L 296.468912 134.611734 
L 296.689889 118.426559 
L 296.799899 109.272256 
L 296.909592 176.877495 
L 297.018971 112.335103 
L 297.128037 132.998796 
L 297.345236 119.413898 
L 297.453374 148.168018 
L 297.561206 118.547106 
L 297.775958 145.800818 
L 297.882882 151.699213 
L 297.989507 122.582618 
L 298.095835 134.306381 
L 298.201867 125.195521 
L 298.307605 130.368188 
L 298.41305 124.066673 
L 298.518204 156.858545 
L 298.831938 119.281365 
L 298.935945 120.450074 
L 299.039669 140.097325 
L 299.143111 128.22007 
L 299.246273 147.483968 
L 299.349157 115.196494 
L 299.451764 121.089582 
L 299.554095 120.403199 
L 299.757938 147.841478 
L 299.859452 127.893099 
L 299.960696 138.444142 
L 300.162381 122.382808 
L 300.363005 136.5533 
L 300.562579 122.755787 
L 300.661975 151.813807 
L 300.859993 124.702982 
L 300.958618 130.572439 
L 301.056988 145.997061 
L 301.155105 128.887663 
L 301.25297 131.734405 
L 301.350585 148.710789 
L 301.641938 122.363051 
L 301.738562 126.503401 
L 301.834943 123.869978 
L 301.93108 140.327397 
L 302.026976 108.105496 
L 302.313223 146.58344 
L 302.408163 116.773954 
L 302.691573 143.2665 
L 302.879349 123.354845 
L 303.066205 141.635295 
L 303.252149 117.563439 
L 303.43719 162.223801 
L 303.529375 118.861246 
L 303.621337 122.246673 
L 303.804599 156.877058 
L 303.895901 133.069124 
L 303.986985 135.086346 
L 304.077851 123.970022 
L 304.258937 153.440836 
L 304.349158 113.543177 
L 304.439166 139.752171 
L 304.528962 131.825867 
L 304.618547 136.019519 
L 304.707922 121.885146 
L 304.797088 139.033152 
L 305.063342 116.667005 
L 305.151681 138.389711 
L 305.239816 137.475763 
L 305.327748 124.206404 
L 305.415478 150.822644 
L 305.677461 126.917546 
L 305.851122 141.522507 
L 305.937656 120.278757 
L 306.023995 165.581429 
L 306.110138 139.19798 
L 306.196088 160.273631 
L 306.281843 129.668874 
L 306.367407 130.55806 
L 306.537959 135.516926 
L 306.62295 122.292727 
L 306.876792 154.556045 
L 306.961032 127.605 
L 307.045086 142.447409 
L 307.128955 115.131627 
L 307.21264 135.285142 
L 307.296141 128.964862 
L 307.37946 126.433579 
L 307.462598 129.315782 
L 307.545554 142.020061 
L 307.62833 138.295531 
L 307.710927 140.407948 
L 307.793345 122.102729 
L 307.875586 142.441563 
L 308.039536 120.445194 
L 308.121248 138.71468 
L 308.202785 126.460503 
L 308.284148 152.787631 
L 308.365337 137.497892 
L 308.446354 151.663197 
L 308.527199 121.307129 
L 308.607873 144.819225 
L 308.688377 112.721773 
L 308.768711 118.277665 
L 308.848876 133.418571 
L 308.928872 121.813077 
L 309.16786 130.809784 
L 309.247191 160.183347 
L 309.326357 141.079285 
L 309.405359 142.869667 
L 309.562874 156.112514 
L 309.641387 122.543433 
L 309.71974 126.810571 
L 309.797932 125.456688 
L 309.875963 117.098612 
L 309.953836 135.302494 
L 310.031549 128.953605 
L 310.263743 161.342582 
L 310.340828 127.68593 
L 310.417757 144.58683 
L 310.494532 132.243498 
L 310.571152 140.328854 
L 310.723931 124.018763 
L 310.800092 131.339851 
L 310.876101 124.670382 
L 310.951959 162.92127 
L 311.027666 126.032107 
L 311.103222 155.889783 
L 311.17863 133.787459 
L 311.253888 133.814035 
L 311.403961 135.545113 
L 311.553446 122.191762 
L 311.627968 172.908005 
L 311.702346 130.291976 
L 311.776579 142.175257 
L 311.850667 147.25131 
L 311.924612 120.628495 
L 311.998413 138.767977 
L 312.145589 123.125792 
L 312.218964 123.611392 
L 312.292198 122.023079 
L 312.511061 157.81167 
L 312.656274 121.384961 
L 312.728674 143.85071 
L 312.800936 133.004685 
L 312.873062 144.53308 
L 313.016905 122.563869 
L 313.088624 134.633509 
L 313.160208 144.005962 
L 313.231658 125.765987 
L 313.302974 140.513267 
L 313.374157 126.12219 
L 313.445207 146.171935 
L 313.516125 132.103553 
L 313.586911 140.445432 
L 313.657567 128.195592 
L 313.728091 147.89889 
L 313.798485 140.252646 
L 313.86875 146.006458 
L 313.938885 129.44065 
L 314.008891 137.134642 
L 314.078769 132.632876 
L 314.148519 137.595239 
L 314.218142 161.065546 
L 314.357007 124.860504 
L 314.495368 136.447893 
L 314.564361 119.488989 
L 314.633229 123.17876 
L 314.701973 125.326647 
L 314.770593 157.049154 
L 314.907464 121.43414 
L 314.975715 126.909029 
L 315.043845 166.555233 
L 315.17974 120.048888 
L 315.247506 122.108115 
L 315.315152 150.357028 
L 315.382678 127.950785 
L 315.450084 131.478559 
L 315.517372 131.142544 
L 315.584541 134.492701 
L 315.651592 134.180214 
L 315.718525 130.340921 
L 315.785341 132.416634 
L 315.85204 149.370108 
L 315.985089 124.203341 
L 316.051439 146.259499 
L 316.117675 131.191155 
L 316.183795 134.120787 
L 316.249801 145.561707 
L 316.315693 126.369448 
L 316.381471 131.13185 
L 316.512688 158.536838 
L 316.643455 117.762453 
L 316.70867 153.692721 
L 316.773774 128.365367 
L 316.838767 124.411333 
L 316.90365 162.430059 
L 316.968422 131.915807 
L 317.033085 141.580727 
L 317.162081 120.952389 
L 317.290643 168.607003 
L 317.354761 129.624355 
L 317.418772 139.052154 
L 317.546472 131.602152 
L 317.610162 121.921256 
L 317.737224 146.295774 
L 317.800596 128.816207 
L 317.863863 153.193203 
L 317.927025 122.537457 
L 317.990083 151.012636 
L 318.053037 142.902463 
L 318.178633 134.034365 
L 318.241277 142.174809 
L 318.303817 131.030085 
L 318.366255 142.653058 
L 318.428591 141.285463 
L 318.61499 129.041666 
L 318.676921 132.835253 
L 318.738751 127.108995 
L 318.862112 140.553986 
L 318.923643 132.421206 
L 318.985075 171.6741 
L 319.046408 143.97988 
L 319.107642 130.477477 
L 319.168778 158.732082 
L 319.351601 123.223766 
L 319.412348 136.93621 
L 319.472997 129.521545 
L 319.533551 131.299554 
L 319.594009 137.037779 
L 319.65437 136.969898 
L 319.714637 122.85386 
L 319.774808 134.502839 
L 319.834884 126.513017 
L 319.954754 147.415883 
L 320.133854 128.658778 
L 320.193368 175.047791 
L 320.252788 136.383182 
L 320.371353 164.10019 
L 320.48955 131.04547 
L 320.548511 133.76063 
L 320.724849 122.443158 
L 320.900376 151.750385 
L 321.075098 122.203332 
L 321.133161 135.983999 
L 321.191136 125.211218 
L 321.249023 120.968081 
L 321.364533 180.271014 
L 321.422158 152.913961 
L 321.537145 122.641342 
L 321.766086 159.520552 
L 321.880042 128.043502 
L 321.936893 155.717104 
L 321.993659 142.453013 
L 322.163452 123.110592 
L 322.276229 150.268568 
L 322.332492 129.869886 
L 322.388673 135.181849 
L 322.44477 134.463157 
L 322.500786 118.376711 
L 322.556719 125.159725 
L 322.61257 139.113446 
L 322.66834 137.35807 
L 322.724028 133.213296 
L 322.890605 143.335888 
L 323.001254 127.636014 
L 323.056458 137.751257 
L 323.111582 124.259398 
L 323.166627 134.016764 
L 323.221592 135.296059 
L 323.276478 125.445112 
L 323.331286 189.42914 
L 323.386014 129.371362 
L 323.440664 138.948388 
L 323.495236 119.204242 
L 323.54973 155.706584 
L 323.604146 142.40806 
L 323.712746 144.246363 
L 323.76693 128.370693 
L 323.821037 165.761855 
L 323.875067 156.809469 
L 323.929021 122.41622 
L 323.982899 130.294215 
L 324.090426 133.442679 
L 324.197651 161.69188 
L 324.357925 121.963769 
L 324.411201 142.990216 
L 324.464402 126.189527 
L 324.517528 130.430339 
L 324.570581 122.068737 
L 324.62356 123.228544 
L 324.676466 174.181096 
L 324.729298 131.191263 
L 324.782057 122.210827 
L 324.834743 149.844901 
L 324.887357 119.126031 
L 324.939898 147.957498 
L 325.044763 125.214146 
L 325.30567 156.599454 
L 325.461362 134.11217 
L 325.513118 129.34396 
L 325.667967 150.631909 
L 325.719443 130.486517 
L 325.77085 139.364725 
L 325.822188 169.781253 
L 325.873457 127.421899 
L 325.975789 131.747864 
L 326.026852 124.604548 
L 326.077846 130.348884 
L 326.179631 129.598348 
L 326.281145 159.31147 
L 326.331801 125.80534 
L 326.382389 144.056274 
L 326.533753 131.760257 
L 326.584075 122.956422 
L 326.63433 133.268396 
L 326.684519 135.938239 
L 326.734642 149.953112 
L 326.784699 146.307483 
L 326.934477 128.365556 
L 326.984272 135.307969 
L 327.034003 128.160055 
L 327.083668 116.654124 
L 327.133269 138.705435 
L 327.232278 136.908477 
L 327.281687 138.851534 
L 327.429528 151.572963 
L 327.576799 122.985087 
L 327.674664 134.040737 
L 327.723502 129.082673 
L 327.772278 129.228893 
L 327.869644 151.577807 
L 328.015227 132.810373 
L 328.111974 122.349342 
L 328.160256 151.601432 
L 328.208476 130.847921 
L 328.256636 136.297412 
L 328.352774 124.951597 
L 328.400751 127.20506 
L 328.448669 144.372971 
L 328.496526 135.55023 
L 328.544324 136.8134 
L 328.592061 148.863888 
L 328.639739 140.770505 
L 328.734917 131.388513 
L 328.782416 155.544819 
L 328.829857 124.203789 
L 328.877238 139.894884 
L 328.924561 126.146254 
L 328.971825 128.211561 
L 329.113267 144.922424 
L 329.160297 124.350102 
L 329.20727 150.947001 
L 329.254185 133.668916 
L 329.347842 136.759903 
L 329.394585 125.93563 
L 329.44127 131.595592 
L 329.487898 148.456502 
L 329.534469 137.279518 
L 329.580983 135.149418 
L 329.673842 145.562519 
L 329.720187 131.35258 
L 329.766475 134.878008 
L 329.812707 143.109628 
L 329.858883 129.406166 
L 329.905004 130.122651 
L 329.951068 149.349489 
L 329.997077 136.25336 
L 330.088929 121.677034 
L 330.226293 178.272668 
L 330.271971 152.537641 
L 330.363164 125.639755 
L 330.408678 127.82529 
L 330.499545 162.217847 
L 330.544897 157.395618 
L 330.635439 126.710566 
L 330.725768 166.171125 
L 330.770851 139.052103 
L 330.815882 139.424383 
L 330.905784 130.166828 
L 330.950656 155.655639 
L 330.995475 134.986915 
L 331.084955 131.880819 
L 331.174225 142.35567 
L 331.30774 123.032815 
L 331.396491 148.664392 
L 331.440789 128.707618 
L 331.529231 132.627024 
L 331.573375 157.131754 
L 331.617468 148.516566 
L 331.66151 144.19559 
L 331.705501 159.489947 
L 331.749442 137.782182 
L 331.793332 137.655324 
L 331.837171 129.541936 
L 331.88096 148.516607 
L 331.968388 144.999573 
L 332.012027 151.230562 
L 332.055616 130.885367 
L 332.099155 136.34153 
L 332.142644 147.95923 
L 332.186084 135.585082 
L 332.229474 145.910943 
L 332.272815 129.170477 
L 332.316107 142.297677 
L 332.35935 183.517332 
L 332.402544 133.732188 
L 332.445688 135.080549 
L 332.488784 120.869319 
L 332.531832 156.947651 
L 332.574831 124.521251 
L 332.617781 119.897727 
L 332.703537 151.005103 
L 332.746342 127.841262 
L 332.7891 129.977203 
L 332.83181 129.075789 
L 332.874472 120.376355 
L 332.959653 155.400564 
L 333.002172 128.044991 
L 333.044644 147.314366 
L 333.087068 160.983621 
L 333.214059 122.268353 
L 333.382725 153.64432 
L 333.508737 136.1117 
L 333.550648 137.708663 
L 333.592514 170.999717 
L 333.634333 141.260782 
L 333.676107 131.587268 
L 333.717835 132.829606 
L 333.759517 142.360729 
L 333.801154 135.655159 
L 333.842745 134.61912 
L 333.884291 141.213177 
L 333.967247 136.763237 
L 334.008658 127.271634 
L 334.050024 168.594962 
L 334.091344 142.137151 
L 334.132621 127.771522 
L 334.173852 135.843768 
L 334.256181 162.052276 
L 334.297279 127.550178 
L 334.379343 138.964508 
L 334.420308 151.410063 
L 334.46123 138.583638 
L 334.542941 143.835267 
L 334.583732 154.997289 
L 334.624478 129.504202 
L 334.705841 134.638314 
L 334.746457 158.542279 
L 334.827561 154.605997 
L 334.989251 141.261308 
L 335.150258 192.771111 
L 335.190404 124.624431 
L 335.270569 150.473597 
L 335.310588 129.537331 
L 335.350566 177.132578 
L 335.430395 147.658968 
L 335.470247 127.005725 
L 335.510058 135.296605 
L 335.589554 170.067242 
L 335.668885 129.881185 
L 335.708488 165.49374 
L 335.748051 126.084348 
L 335.905891 160.74356 
L 335.94525 131.629237 
L 336.023844 137.920411 
L 336.063081 136.058581 
L 336.102277 158.556402 
L 336.141433 133.008534 
L 336.180549 136.368786 
L 336.258661 134.951117 
L 336.297657 133.79899 
L 336.453242 167.324512 
L 336.530798 134.264577 
L 336.569516 140.592745 
L 336.608196 141.4741 
L 336.646836 124.364629 
L 336.723999 131.484559 
L 336.801006 142.59 
L 336.839451 126.310639 
L 336.877857 163.032733 
L 336.954554 135.91476 
L 336.992845 146.151974 
L 337.031098 137.32468 
L 337.069312 126.608826 
L 337.145625 136.301954 
L 337.221786 134.231959 
L 337.259809 146.572397 
L 337.297794 133.189208 
L 337.373652 141.382999 
L 337.487156 169.960842 
L 337.449359 137.514619 
L 337.524916 158.841949 
L 337.562638 127.315337 
L 337.600323 187.893018 
L 337.637971 133.9814 
L 337.713156 122.776646 
L 337.788192 139.963893 
L 337.863081 137.118753 
L 337.90047 132.786701 
L 338.049662 158.059465 
L 338.198272 131.108213 
L 338.346305 148.418129 
L 338.383224 138.730155 
L 338.420107 168.413815 
L 338.456954 123.295481 
L 338.493765 152.779921 
L 338.640657 124.605719 
L 338.713892 164.40226 
L 338.750456 136.412969 
L 338.82348 148.151902 
L 338.85994 142.423022 
L 338.896364 129.861068 
L 338.932754 144.301305 
L 338.969109 145.055318 
L 339.041716 153.411601 
L 339.114185 124.344151 
L 339.25871 154.492239 
L 339.402689 128.02501 
L 339.581901 166.48756 
L 339.689026 141.448458 
L 339.724667 143.836011 
L 339.760275 132.719965 
L 339.831392 143.73228 
L 339.866901 146.576723 
L 339.973228 118.904715 
L 340.008605 123.855778 
L 340.07926 192.180017 
L 340.114539 156.248881 
L 340.149785 128.850334 
L 340.184998 161.762761 
L 340.220179 136.520543 
L 340.290443 133.052213 
L 340.360578 154.588126 
L 340.395598 126.917389 
L 340.46554 134.671653 
L 340.500463 149.992877 
L 340.535354 135.117765 
L 340.570213 125.47522 
L 340.60504 144.117727 
L 340.674599 151.093665 
L 340.709331 137.131268 
L 340.778701 165.34208 
L 340.813338 150.959313 
L 340.847944 134.463355 
L 340.882519 197.539935 
L 340.951574 129.752959 
L 341.020504 151.083995 
L 341.08931 138.02636 
L 341.123666 131.893365 
L 341.157992 136.740892 
L 341.192287 160.408005 
L 341.260783 150.615338 
L 341.363298 134.741005 
L 341.329157 153.07059 
L 341.397409 136.966493 
L 341.431489 170.531498 
L 341.499557 143.745163 
L 341.601433 125.294003 
L 341.669199 132.611741 
L 341.770623 148.884032 
L 341.804371 142.093574 
L 341.871778 133.457173 
L 341.939065 167.375112 
L 342.006234 124.828613 
L 342.140219 138.559346 
L 342.207034 132.474606 
L 342.240399 132.795253 
L 342.273733 170.218395 
L 342.307039 132.582099 
L 342.340316 147.461615 
L 342.406782 155.065874 
L 342.473133 136.400515 
L 342.539368 129.941022 
L 342.572443 158.204827 
L 342.605489 193.803588 
L 342.638506 135.479751 
L 342.671495 129.461704 
L 342.704455 142.447633 
L 342.737387 146.507321 
L 342.803165 125.484336 
L 342.934382 164.104793 
L 342.967115 140.312267 
L 343.032499 171.903849 
L 343.16293 133.292069 
L 343.195468 158.252076 
L 343.260461 131.745152 
L 343.292916 141.543391 
L 343.325343 124.0115 
L 343.390116 137.631985 
L 343.422461 150.783802 
L 343.487068 135.468272 
L 343.583775 149.008913 
L 343.615956 148.602543 
L 343.64811 145.668018 
L 343.680236 149.849097 
L 343.712336 154.829543 
L 343.808473 133.284543 
L 343.840465 137.805992 
L 343.904369 134.799102 
L 343.968166 150.891695 
L 344.000024 129.39033 
L 344.063661 151.440637 
L 344.095439 135.237062 
L 344.127191 130.26409 
L 344.222289 158.346366 
L 344.253936 150.701131 
L 344.285557 129.635564 
L 344.380261 137.719485 
L 344.443267 129.047463 
L 344.506168 156.825226 
L 344.568966 137.110692 
L 344.600327 143.372377 
L 344.631661 151.657281 
L 344.66297 131.460583 
L 344.694253 146.201288 
L 344.787949 130.318483 
L 344.819129 156.480479 
L 344.912519 144.556563 
L 345.00568 123.14775 
L 345.036683 139.062369 
L 345.067661 142.921428 
L 345.098614 188.692092 
L 345.160445 135.899022 
L 345.191322 129.055523 
L 345.222175 159.366907 
L 345.283805 136.876599 
L 345.345336 123.604097 
L 345.376065 132.823294 
L 345.406768 134.037405 
L 345.468101 151.686623 
L 345.498731 150.817476 
L 345.529336 125.759693 
L 345.590472 153.664183 
L 345.621003 135.308971 
L 345.681993 125.383426 
L 345.712451 151.588753 
L 345.742885 137.109535 
L 345.834041 145.545699 
L 345.955244 141.256802 
L 345.985485 128.560906 
L 346.015702 148.528602 
L 346.076064 136.270781 
L 346.226551 152.447485 
L 346.256578 153.157886 
L 346.28658 161.463052 
L 346.316559 147.881522 
L 346.346515 139.900309 
L 346.406356 148.924719 
L 346.436241 140.027806 
L 346.495941 153.746001 
L 346.525756 142.513012 
L 346.555547 132.117887 
L 346.615061 132.257458 
L 346.704158 155.95718 
L 346.674482 127.559528 
L 346.73381 144.858701 
L 346.76344 128.6491 
L 346.82263 141.462105 
L 346.940735 163.545266 
L 346.970204 153.730981 
L 346.999651 130.892758 
L 347.087854 142.526375 
L 347.11721 139.792658 
L 347.146543 161.992421 
L 347.175853 134.533584 
L 347.205142 137.093827 
L 347.234407 127.217805 
L 347.26365 146.731224 
L 347.292871 141.480911 
L 347.409531 166.379507 
L 347.525834 129.749071 
L 347.554855 137.147186 
L 347.583853 188.471988 
L 347.641784 134.06842 
L 347.728515 155.540333 
L 347.757382 136.422383 
L 347.786227 137.110775 
L 347.81505 136.815234 
L 347.843851 130.961393 
L 347.87263 143.671243 
L 347.901388 140.222281 
L 347.930124 139.290447 
L 347.987532 142.979663 
L 348.016203 127.879642 
L 348.044853 147.799187 
L 348.073481 145.939025 
L 348.102088 147.198337 
L 348.130673 143.950827 
L 348.159237 146.552553 
L 348.2163 136.863067 
L 348.2448 161.182603 
L 348.301736 147.941974 
L 348.415353 137.507972 
L 348.443704 150.423775 
L 348.472034 137.273256 
L 348.500344 145.706371 
L 348.528632 133.35392 
L 348.585146 140.356323 
L 348.613371 160.684215 
L 348.669759 137.232695 
L 348.697922 154.727318 
L 348.754185 129.071798 
L 348.810366 135.907609 
L 348.866464 132.528761 
L 348.894482 148.949436 
L 348.978412 152.610899 
L 349.006348 129.985486 
L 349.117887 156.806682 
L 349.145721 147.91646 
L 349.201328 122.840895 
L 349.256854 145.8059 
L 349.284586 152.405397 
L 349.312299 146.437136 
L 349.367663 124.571885 
L 349.422947 142.493479 
L 349.450559 147.38868 
L 349.478151 127.892684 
L 349.533276 133.818442 
L 349.643286 160.653648 
L 349.752979 130.308423 
L 349.780353 141.743865 
L 349.835043 140.087593 
L 349.862358 146.910705 
L 349.889654 130.303321 
L 349.91693 148.222751 
L 349.944186 135.527827 
L 349.971424 167.988084 
L 350.053019 138.604674 
L 350.080178 141.471528 
L 350.107318 168.422153 
L 350.134439 129.284413 
L 350.161541 143.980246 
L 350.188623 134.736556 
L 350.215686 148.869817 
L 350.269755 136.327874 
L 350.377663 165.677161 
L 350.350715 135.375374 
L 350.404592 154.450442 
L 350.485266 167.880925 
L 350.538954 127.439116 
L 350.592567 155.196699 
L 350.646104 136.237113 
L 350.672844 129.452493 
L 350.699566 141.175246 
L 350.726269 151.90053 
L 350.752953 140.187858 
L 350.779619 121.276707 
L 350.806266 169.003919 
L 350.832894 165.043782 
L 350.859504 192.322268 
L 350.912668 135.204677 
L 351.018773 143.641308 
L 351.071716 146.08861 
L 351.098159 123.878577 
L 351.124585 162.383436 
L 351.203751 147.889539 
L 351.230103 130.922299 
L 351.30905 139.1049 
L 351.387834 142.432409 
L 351.440267 133.335602 
L 351.544916 175.21115 
L 351.649279 133.394202 
L 351.675325 139.027454 
L 351.779332 154.794513 
L 351.805289 131.762701 
L 351.831229 155.912053 
L 351.857151 139.700911 
L 351.883055 173.968573 
L 351.908942 138.157286 
L 351.960663 142.555519 
L 351.986498 131.235564 
L 352.012314 144.516117 
L 352.063896 139.373831 
L 352.08966 162.169975 
L 352.166849 134.146666 
L 352.295151 188.86751 
L 352.346351 132.336055 
L 352.423022 141.662971 
L 352.474051 140.050147 
L 352.525011 166.613871 
L 352.550466 129.788706 
L 352.601325 172.365539 
L 352.652115 134.550201 
L 352.702839 174.090537 
L 352.728175 133.914847 
L 352.804083 149.074925 
L 352.829352 150.601698 
L 352.854604 147.214093 
L 352.87984 147.7971 
L 352.905059 192.860714 
L 352.955447 125.713849 
L 352.980616 137.302343 
L 353.056023 135.603477 
L 353.106212 150.673671 
L 353.181372 129.935424 
L 353.206392 162.653667 
L 353.281355 147.533581 
L 353.306309 133.296858 
L 353.331248 160.382182 
L 353.405966 135.571841 
L 353.505362 159.716943 
L 353.53017 159.291762 
L 353.653972 126.876002 
L 353.70338 150.235068 
L 353.777373 147.211919 
L 353.826621 127.208833 
L 353.851222 154.577588 
L 353.875806 131.824343 
L 353.949465 166.049646 
L 353.924928 123.901496 
L 353.998492 145.312316 
L 354.022982 133.951923 
L 354.071915 153.863578 
L 354.096357 167.691956 
L 354.120784 151.979028 
L 354.169592 154.739181 
L 354.267019 140.394204 
L 354.291337 141.750963 
L 354.339927 141.554022 
L 354.388454 168.623951 
L 354.43692 126.682203 
L 354.485324 143.416761 
L 354.557816 160.556632 
L 354.581949 125.161457 
L 354.606067 179.62926 
L 354.67833 126.923456 
L 354.798464 153.814878 
L 354.822445 150.639196 
L 354.870363 139.573237 
L 354.91822 157.184513 
L 354.989894 159.577299 
L 355.085249 133.628865 
L 355.180367 154.051748 
L 355.15661 128.369069 
L 355.227837 152.611889 
L 355.25155 132.209535 
L 355.275248 158.177385 
L 355.3226 145.450624 
L 355.440724 168.105277 
L 355.511423 131.040256 
L 355.558483 152.752355 
L 355.652428 153.149298 
L 355.675879 131.853848 
L 355.699314 169.646937 
L 355.769536 140.633735 
L 355.792914 131.838388 
L 355.816278 147.251302 
L 355.839628 145.163041 
L 355.862963 153.587356 
L 355.886285 130.511638 
L 355.909591 130.946792 
L 356.072342 173.329477 
L 356.118715 134.068749 
L 356.165031 182.493529 
L 356.211292 135.004116 
L 356.280577 152.538892 
L 356.303644 151.684302 
L 356.326697 126.542529 
L 356.395773 140.295873 
L 356.418771 157.63418 
L 356.48768 131.340343 
L 356.510622 145.407361 
L 356.533551 146.816039 
L 356.556465 159.299846 
L 356.579366 140.763748 
L 356.602253 145.141637 
L 356.625127 125.675369 
L 356.647986 162.362329 
L 356.693665 144.170825 
L 356.739288 142.5215 
L 356.762079 159.307482 
L 356.853109 162.735319 
L 356.875832 138.679363 
L 356.943921 172.840351 
L 356.96659 137.509599 
L 357.011888 167.480524 
L 357.147461 131.820966 
L 357.17001 135.75491 
L 357.237576 155.393744 
L 357.260071 133.42501 
L 357.305022 177.306724 
L 357.34992 140.067688 
L 357.372349 135.042407 
L 357.394765 151.198794 
L 357.439558 161.495629 
L 357.461934 153.489166 
L 357.551309 133.971507 
L 357.506648 156.821226 
L 357.57362 143.941716 
L 357.640475 138.520199 
L 357.662734 138.7296 
L 357.68498 163.609455 
L 357.707213 129.262339 
L 357.773835 144.722899 
L 357.796016 135.395007 
L 357.818184 165.422716 
L 357.84034 197.115948 
L 357.862482 138.994203 
L 357.906729 164.989092 
L 357.950924 169.454938 
L 358.039161 129.311426 
L 358.105205 183.27587 
L 358.171135 169.651415 
L 358.215025 131.810452 
L 358.302654 140.387966 
L 358.346393 136.843998 
L 358.390081 167.240662 
L 358.477309 127.195986 
L 358.520848 129.194918 
L 358.564338 180.409688 
L 358.651168 164.393523 
L 358.672844 128.177438 
L 358.759428 144.732697 
L 358.781043 135.269156 
L 358.802646 174.42607 
L 358.824237 158.25683 
L 358.867382 167.494544 
L 358.953525 132.444558 
L 358.975031 151.001705 
L 358.996524 150.906432 
L 359.103809 132.372794 
L 359.039474 165.002591 
L 359.146639 137.827306 
L 359.189421 150.088369 
L 359.210794 147.080311 
L 359.232154 132.678736 
L 359.296165 145.961965 
L 359.381346 180.663868 
L 359.508762 129.568076 
L 359.656877 164.308032 
L 359.677989 145.272796 
L 359.720179 129.397389 
L 359.846469 174.239079 
L 360.056027 137.818056 
L 360.076919 164.506192 
L 360.18121 158.265143 
L 360.243649 134.854212 
L 360.305985 140.277078 
L 360.326741 161.969063 
L 360.409652 138.675392 
L 360.430351 145.943349 
L 360.471717 131.694405 
L 360.492383 141.936398 
L 360.533682 131.68799 
L 360.554314 132.492749 
L 360.677875 160.742032 
L 360.780537 137.962356 
L 360.862468 122.248138 
L 360.882923 169.067891 
L 360.903368 133.618983 
L 361.005425 136.828926 
L 361.127535 149.607223 
L 361.188443 142.562473 
L 361.208724 145.59749 
L 361.228994 161.44154 
L 361.289741 141.034026 
L 361.309968 152.449522 
L 361.390771 135.938339 
L 361.431108 137.971705 
L 361.531764 174.617501 
L 361.652201 126.338901 
L 361.692263 171.143023 
L 361.772259 150.491829 
L 361.812195 127.800592 
L 361.852089 159.190529 
L 361.87202 189.292547 
L 361.911851 136.653365 
L 361.97152 174.533297 
L 362.031095 129.334846 
L 362.090578 136.661839 
L 362.18951 165.584362 
L 362.130182 134.176658 
L 362.229011 160.828405 
L 362.30789 137.21789 
L 362.327585 164.10277 
L 362.425904 141.586169 
L 362.366943 183.210386 
L 362.445538 153.052936 
L 362.465161 166.037922 
L 362.504378 146.563524 
L 362.543554 165.001436 
L 362.563127 143.621678 
L 362.58269 176.077743 
L 362.660841 148.834042 
L 362.699857 136.234272 
L 362.71935 156.534315 
L 362.758306 151.024632 
L 362.777769 151.073022 
L 362.816666 134.774731 
L 362.855522 149.860329 
L 362.874936 160.183423 
L 362.913733 135.306242 
L 362.971856 152.681191 
L 362.99121 153.353614 
L 363.010554 191.792172 
L 363.029889 137.157867 
L 363.087835 142.664591 
L 363.126416 161.673522 
L 363.145692 138.487965 
L 363.203462 160.134303 
L 363.337919 134.156887 
L 363.395398 194.861277 
L 363.43367 133.944292 
L 363.452791 168.007123 
L 363.586373 131.900915 
L 363.605418 163.760734 
L 363.7005 139.208217 
L 363.719488 165.674992 
L 363.757436 136.583515 
L 363.795346 146.567613 
L 363.814286 134.572835 
L 363.889956 139.567178 
L 363.90885 171.14619 
L 363.984332 130.727874 
L 364.003179 149.549962 
L 364.116067 132.461916 
L 364.19114 171.820118 
L 364.228621 155.898231 
L 364.247348 143.057295 
L 364.322164 155.933189 
L 364.340845 160.792073 
L 364.359516 153.448344 
L 364.378179 156.070447 
L 364.434112 202.088126 
L 364.471355 128.371371 
L 364.582867 158.76094 
L 364.638501 133.059134 
L 364.657028 159.223936 
L 364.712553 137.58665 
L 364.749526 133.730504 
L 364.767999 142.436772 
L 364.786462 165.60855 
L 364.8418 132.809638 
L 364.860228 136.451614 
L 364.878647 136.541098 
L 364.988976 169.036516 
L 364.952235 130.780018 
L 365.007333 148.724321 
L 365.025681 148.82619 
L 365.062351 153.620327 
L 365.080673 136.346658 
L 365.098986 172.279733 
L 365.17215 160.973866 
L 365.190419 129.187755 
L 365.245174 163.550742 
L 365.281633 146.714003 
L 365.29985 146.181107 
L 365.390803 142.132881 
L 365.445271 174.047523 
L 365.535878 129.495384 
L 365.590139 143.868963 
L 365.644323 167.002637 
L 365.62627 134.750132 
L 365.680403 156.450259 
L 365.69843 140.547805 
L 365.716449 159.306841 
L 365.788439 145.692405 
L 365.806415 167.930844 
L 365.824382 134.900246 
L 365.878235 147.810855 
L 365.896169 133.766435 
L 365.932011 155.946871 
L 365.985712 137.023299 
L 366.02147 160.163934 
L 366.092886 155.873056 
L 366.128544 156.561109 
L 366.217544 136.372742 
L 366.341795 166.418325 
L 366.359512 147.689759 
L 366.377221 137.381172 
L 366.394922 169.226695 
L 366.447974 139.759614 
L 366.518597 178.671747 
L 366.553859 147.009482 
L 366.589089 132.48676 
L 366.606691 154.420409 
L 366.65945 141.450142 
L 366.694583 135.919616 
L 366.76475 177.440317 
L 366.782272 126.879535 
L 366.86976 158.316568 
L 366.904699 161.572757 
L 366.991906 133.876039 
L 367.009324 158.88239 
L 367.096293 139.362944 
L 367.183064 170.821374 
L 367.217717 143.386095 
L 367.269638 137.568931 
L 367.304212 158.219565 
L 367.321488 134.257765 
L 367.356015 168.755455 
L 367.407748 144.663799 
L 367.424977 164.85258 
L 367.493814 160.155849 
L 367.511003 132.579883 
L 367.54536 177.76483 
L 367.61398 142.632333 
L 367.733769 190.303456 
L 367.716679 139.939606 
L 367.750851 165.513183 
L 367.802051 139.586017 
L 367.836146 169.022752 
L 367.887232 146.904386 
L 367.921251 162.141452 
L 367.938249 146.446735 
L 367.972223 159.24392 
L 368.057025 131.193059 
L 368.073962 160.214696 
L 368.141638 172.427902 
L 368.209194 138.935341 
L 368.276631 153.446783 
L 368.32713 149.264647 
L 368.360759 135.293358 
L 368.377562 156.323582 
L 368.427928 200.112169 
L 368.411147 136.613793 
L 368.478227 142.321498 
L 368.561912 181.087134 
L 368.52846 138.867833 
L 368.612035 164.857349 
L 368.662092 179.452581 
L 368.712083 132.507237 
L 368.728733 181.611354 
L 368.828476 153.510878 
L 368.87825 135.015508 
L 368.927958 160.807166 
L 368.944514 142.654526 
L 368.961062 160.818918 
L 368.977603 137.655717 
L 369.060199 153.046802 
L 369.126148 160.057481 
L 369.191983 129.547132 
L 369.208424 131.056275 
L 369.306922 174.692933 
L 369.323313 128.425141 
L 369.421514 145.735184 
L 369.47052 139.801442 
L 369.454192 151.977555 
L 369.486842 140.388974 
L 369.519463 139.299642 
L 369.600896 166.903071 
L 369.665917 137.168171 
L 369.714609 138.613222 
L 369.730827 139.843573 
L 369.827985 161.233378 
L 369.844154 132.361067 
L 369.941024 137.867771 
L 369.957145 160.363217 
L 369.97326 135.335563 
L 370.053729 146.844056 
L 370.069803 140.817832 
L 370.08587 178.579799 
L 370.166102 148.43141 
L 370.230167 132.28615 
L 370.246166 157.468864 
L 370.262159 145.052097 
L 370.294124 127.898868 
L 370.37392 208.91674 
L 370.437636 133.280458 
L 370.501247 147.078629 
L 370.548885 143.066264 
L 370.580611 150.507839 
L 370.61231 179.242217 
L 370.643983 144.438065 
L 370.67563 157.126769 
L 370.691443 132.618895 
L 370.770412 167.032169 
L 370.786187 135.639343 
L 370.83347 164.850009 
L 370.896424 144.194191 
L 370.912146 139.546145 
L 370.927862 148.149654 
L 370.943571 173.66318 
L 370.99066 135.764407 
L 371.02202 141.844144 
L 371.037691 143.069536 
L 371.084663 135.964364 
L 371.131579 169.837298 
L 371.194042 127.468028 
L 371.240823 138.029427 
L 371.318663 167.776183 
L 371.349755 153.603929 
L 371.365291 133.894748 
L 371.411862 160.842052 
L 371.458377 149.891414 
L 371.473869 157.938378 
L 371.535775 134.984275 
L 371.551235 150.071087 
L 371.690101 132.778058 
L 371.782397 172.591115 
L 371.813113 151.101287 
L 371.889795 135.528484 
L 371.905112 164.061243 
L 371.93573 142.353437 
L 372.027434 163.497485 
L 372.012165 137.346281 
L 372.042697 160.221346 
L 372.073204 140.246181 
L 372.149364 154.984122 
L 372.225373 177.605423 
L 372.179786 132.233005 
L 372.240557 156.997661 
L 372.270906 138.165215 
L 372.361809 141.252657 
L 372.376938 140.61633 
L 372.42229 161.025436 
L 372.482676 146.22818 
L 372.527902 157.124975 
L 372.573075 134.982479 
L 372.603161 184.726773 
L 372.663261 134.434944 
L 372.678271 137.692185 
L 372.738253 158.398434 
L 372.723266 136.436313 
L 372.828049 149.820628 
L 372.842995 128.725911 
L 372.887796 165.375509 
L 372.917634 155.521663 
L 372.962348 176.194156 
L 372.947449 148.30244 
L 373.007009 149.115308 
L 373.021885 149.592634 
L 373.051618 136.160261 
L 373.155504 183.722669 
L 373.273884 146.030323 
L 373.347685 143.702213 
L 373.391898 194.087067 
L 373.494861 138.524785 
L 373.509547 157.612666 
L 373.597547 136.472168 
L 373.538903 160.01322 
L 373.612194 146.806054 
L 373.641471 168.110622 
L 373.685344 136.534667 
L 373.714565 139.703977 
L 373.743763 162.41077 
L 373.772939 138.287331 
L 373.831224 151.104972 
L 373.845781 131.342483 
L 373.860333 157.602043 
L 373.933009 151.718814 
L 374.005546 175.314741 
L 374.034523 144.118739 
L 374.049003 140.504612 
L 374.063477 146.100021 
L 374.135767 211.165707 
L 374.106868 137.56719 
L 374.164645 139.845834 
L 374.294324 173.268923 
L 374.351818 174.587096 
L 374.423563 134.836597 
L 374.466546 160.144468 
L 374.538076 154.251586 
L 374.566651 137.844467 
L 374.623736 157.934249 
L 374.637994 168.629966 
L 374.666493 137.544529 
L 374.73765 161.894883 
L 374.808674 135.583807 
L 374.766075 165.461309 
L 374.865397 155.437581 
L 374.879565 160.913095 
L 374.907885 143.539887 
L 374.936184 147.580974 
L 374.950325 143.397466 
L 374.964462 183.153556 
L 375.049169 140.784922 
L 375.063269 154.872328 
L 375.105537 134.155044 
L 375.133689 173.41499 
L 375.161821 144.658326 
L 375.246092 133.201734 
L 375.302169 175.613725 
L 375.38613 185.542001 
L 375.414076 136.172073 
L 375.483852 167.633108 
L 375.525656 145.67487 
L 375.539581 146.956354 
L 375.5535 168.583056 
L 375.63691 156.711028 
L 375.692416 181.530798 
L 375.720138 141.575735 
L 375.733992 170.917937 
L 375.817009 167.333016 
L 375.830827 135.723034 
L 375.913633 174.438319 
L 375.927417 161.416612 
L 375.968738 163.657467 
L 376.037506 132.583995 
L 376.119865 192.286747 
L 376.147279 149.917335 
L 376.160978 127.928699 
L 376.215726 177.818552 
L 376.256736 134.136098 
L 376.284051 157.629395 
L 376.393117 152.651868 
L 376.461125 137.16742 
L 376.433936 165.883731 
L 376.501872 144.923019 
L 376.583234 169.01561 
L 376.529012 138.805533 
L 376.610317 147.061213 
L 376.63738 174.234839 
L 376.718454 133.266752 
L 376.745441 168.312499 
L 376.812824 131.508507 
L 376.839743 148.253702 
L 376.853196 136.523833 
L 376.933813 157.415676 
L 376.947233 156.348009 
L 377.027652 163.954331 
L 377.067797 143.315409 
L 377.107901 134.255918 
L 377.134613 151.630331 
L 377.147962 144.110715 
L 377.174647 196.514832 
L 377.187982 141.711934 
L 377.281197 169.654767 
L 377.307788 136.622714 
L 377.387451 155.456621 
L 377.400712 185.884137 
L 377.48018 144.691946 
L 377.493409 154.817066 
L 377.506633 136.723632 
L 377.585882 143.007381 
L 377.651796 190.370504 
L 377.67813 137.706804 
L 377.69129 145.079804 
L 377.717597 150.736292 
L 377.730744 142.213318 
L 377.743886 144.615269 
L 377.757023 171.538098 
L 377.822643 137.605383 
L 377.848859 157.530093 
L 377.914321 139.55867 
L 377.901238 166.614227 
L 377.953544 146.297871 
L 377.96661 179.679473 
L 378.03187 133.370763 
L 378.057943 158.297186 
L 378.070972 138.227839 
L 378.097018 176.21895 
L 378.162056 145.634545 
L 378.226983 170.454027 
L 378.252922 142.904366 
L 378.265886 162.312331 
L 378.369433 140.838308 
L 378.382357 142.85071 
L 378.408191 171.81792 
L 378.511353 155.123505 
L 378.524229 141.538503 
L 378.5371 180.696101 
L 378.601392 142.811549 
L 378.614237 199.033109 
L 378.704033 142.20308 
L 378.716844 137.785317 
L 378.729651 161.670003 
L 378.768044 138.138056 
L 378.870239 167.879821 
L 378.882994 152.008186 
L 378.895744 152.741087 
L 378.921233 148.35906 
L 378.997597 134.760336 
L 378.97216 161.901017 
L 379.01031 154.511881 
L 379.061118 165.433957 
L 379.086496 132.90864 
L 379.099179 156.538575 
L 379.111858 128.577213 
L 379.175188 172.080991 
L 379.213135 146.300338 
L 379.276298 134.254974 
L 379.251045 159.696468 
L 379.314145 148.688087 
L 379.36455 180.953767 
L 379.339356 139.980697 
L 379.414888 143.319845 
L 379.427462 141.363925 
L 379.527906 175.298841 
L 379.502819 136.796997 
L 379.540443 145.381906 
L 379.552975 149.412451 
L 379.578028 148.6054 
L 379.590549 199.597805 
L 379.678077 157.017866 
L 379.703048 169.466338 
L 379.790319 132.134727 
L 379.914645 168.924475 
L 380.013815 137.028552 
L 380.112728 172.062554 
L 380.088023 133.767691 
L 380.125074 166.59444 
L 380.186744 139.073272 
L 380.149754 169.040849 
L 380.236009 153.724194 
L 380.248315 168.915606 
L 380.2975 132.553043 
L 380.334347 147.092023 
L 380.358892 159.413158 
L 380.371159 143.354917 
L 380.39568 134.95451 
L 380.420186 153.736959 
L 380.444676 148.276891 
L 380.481381 204.387071 
L 380.530266 141.566265 
L 380.542478 154.514744 
L 380.652206 134.662899 
L 380.603477 170.336629 
L 380.664379 137.789451 
L 380.688712 165.890426 
L 380.749478 133.550236 
L 380.785892 147.664167 
L 380.846503 163.420504 
L 380.907018 132.526799 
L 381.015704 172.197581 
L 381.027761 160.599353 
L 381.075951 140.294907 
L 381.087989 177.529889 
L 381.12408 155.204233 
L 381.172149 176.882939 
L 381.148122 139.20435 
L 381.220157 164.216351 
L 381.23215 135.301754 
L 381.280082 165.543788 
L 381.327955 137.183477 
L 381.375767 180.895913 
L 381.411587 129.214019 
L 381.483126 165.249379 
L 381.518846 140.591566 
L 381.590184 151.76334 
L 381.673244 180.504895 
L 381.649531 142.147559 
L 381.685095 162.102008 
L 381.732461 138.399028 
L 381.803401 148.314221 
L 381.885998 170.601443 
L 381.862417 132.844064 
L 381.897783 154.283645 
L 381.956653 159.326292 
L 382.015433 134.079583 
L 382.144429 191.672546 
L 382.109292 129.841262 
L 382.156135 170.783557 
L 382.167837 132.713563 
L 382.272991 141.734032 
L 382.319633 136.984925 
L 382.307978 156.966737 
L 382.331285 153.677077 
L 382.377856 175.034284 
L 382.42437 139.294754 
L 382.43599 138.640462 
L 382.52882 182.241833 
L 382.551993 159.081615 
L 382.632985 143.479932 
L 382.598295 172.756558 
L 382.656094 163.154871 
L 382.713806 163.619829 
L 382.748391 140.448034 
L 382.759912 182.631305 
L 382.805963 135.352338 
L 382.851958 147.055487 
L 382.978159 184.261786 
L 382.886418 134.459957 
L 382.989611 173.178057 
L 383.035385 140.325989 
L 383.103944 143.64247 
L 383.206551 181.12327 
L 383.217934 148.16633 
L 383.229315 137.764046 
L 383.286165 166.249379 
L 383.308882 150.020425 
L 383.388284 167.974961 
L 383.331585 137.973333 
L 383.399613 154.63522 
L 383.410939 140.115372 
L 383.433582 160.762722 
L 383.512724 149.955441 
L 383.524017 141.48854 
L 383.557875 164.33703 
L 383.602972 149.131836 
L 383.670518 140.967743 
L 383.715483 168.6288 
L 383.816459 137.222928 
L 383.838862 144.786834 
L 383.850058 143.761314 
L 383.928342 185.208906 
L 383.961842 149.684694 
L 383.98416 151.071542 
L 383.995314 141.858426 
L 384.006465 172.079533 
L 384.084428 136.748533 
L 384.106674 158.770307 
L 384.117792 129.086584 
L 384.128907 178.52795 
L 384.217709 138.559232 
L 384.295242 181.226049 
L 384.273106 134.658038 
L 384.328422 138.567254 
L 384.372617 184.363649 
L 384.438815 146.286627 
L 384.504897 170.006712 
L 384.537895 145.946558 
L 384.559878 150.719177 
L 384.570865 150.366895 
L 384.61478 171.592634 
L 384.603806 139.423264 
L 384.669603 156.599033 
L 384.69151 161.086094 
L 384.789937 139.188565 
L 384.811775 174.024279 
L 384.899003 143.376215 
L 384.953419 191.224326 
L 384.975163 138.295267 
L 384.996896 145.497697 
L 385.018616 160.174695 
L 385.094538 133.907974 
L 385.105372 178.786363 
L 385.148676 131.749067 
L 385.202737 155.627344 
L 385.21354 134.763506 
L 385.278294 189.000168 
L 385.310629 140.494651 
L 385.407472 180.868792 
L 385.396724 138.454173 
L 385.418218 144.170773 
L 385.42896 137.422724 
L 385.450435 160.908496 
L 385.514788 145.901326 
L 385.536215 167.11233 
L 385.589729 138.651655 
L 385.611114 146.628382 
L 385.643169 129.275261 
L 385.685867 155.207096 
L 385.696534 151.156546 
L 385.717859 177.954772 
L 385.739172 139.434615 
L 385.813674 170.453054 
L 385.866801 139.230997 
L 385.909249 194.123718 
L 385.919854 141.261227 
L 385.962243 194.88748 
L 386.03631 175.469417 
L 386.141873 147.84187 
L 386.215592 184.673859 
L 386.16295 140.732525 
L 386.247143 154.90882 
L 386.268162 162.457991 
L 386.362606 137.970948 
L 386.394035 163.659123 
L 386.488168 149.843532 
L 386.509055 137.109726 
L 386.540363 162.997025 
L 386.592488 149.481772 
L 386.675738 167.343058 
L 386.665342 136.710798 
L 386.686132 146.135555 
L 386.769179 136.83198 
L 386.748434 164.537748 
L 386.789912 145.87465 
L 386.820991 138.368853 
L 386.841697 163.520267 
L 386.852045 176.85327 
L 386.903745 139.800064 
L 386.934731 164.73639 
L 387.02754 134.086299 
L 386.98632 171.505433 
L 387.048133 148.159241 
L 387.099568 172.775061 
L 387.079003 145.872794 
L 387.171461 166.637624 
L 387.18172 169.819195 
L 387.191977 138.784426 
L 387.20223 146.338362 
L 387.212481 131.944131 
L 387.243218 161.983249 
L 387.304617 137.783576 
L 387.365917 179.91235 
L 387.416925 148.68528 
L 387.478045 141.131963 
L 387.488222 161.517959 
L 387.518737 187.14853 
L 387.528904 141.809949 
L 387.579694 162.281333 
L 387.589844 130.80056 
L 387.660819 175.618606 
L 387.681073 160.811716 
L 387.691196 164.933918 
L 387.711434 141.918574 
L 387.761983 153.622537 
L 387.812464 135.801657 
L 387.822552 159.217639 
L 387.872953 139.200478 
L 387.973556 195.682939 
L 387.923288 133.330322 
L 387.983602 148.180243 
L 388.003686 145.601126 
L 388.013723 145.661163 
L 388.093931 199.20264 
L 388.113956 144.066533 
L 388.123965 157.462103 
L 388.173969 140.221793 
L 388.153975 181.26851 
L 388.183962 145.01894 
L 388.193953 172.837911 
L 388.243866 143.226301 
L 388.283749 148.757645 
L 388.313634 132.954201 
L 388.353444 173.051512 
L 388.363391 135.868736 
L 388.373334 189.115698 
L 388.472627 159.432635 
L 388.502364 177.490609 
L 388.56177 137.972073 
L 388.591438 174.366055 
L 388.601322 182.830841 
L 388.640833 143.562365 
L 388.650704 156.09139 
L 388.749278 134.157643 
L 388.67044 195.190057 
L 388.759122 141.344425 
L 388.818128 179.000697 
L 388.79847 140.624372 
L 388.886855 151.858931 
L 388.906468 171.303779 
L 388.994603 142.920767 
L 389.014161 166.372719 
L 389.053247 142.883171 
L 389.102048 152.582151 
L 389.18 163.921332 
L 389.189732 142.367552 
L 389.257792 175.763911 
L 389.248077 139.226284 
L 389.296629 163.941808 
L 389.34512 140.762412 
L 389.374185 166.660062 
L 389.403227 141.442634 
L 389.441917 138.62896 
L 389.528824 182.945525 
L 389.538468 132.447978 
L 389.644393 155.77691 
L 389.711646 133.093305 
L 389.721244 176.14927 
L 389.73084 154.516252 
L 389.769198 183.307795 
L 389.807518 144.609702 
L 389.836232 151.011556 
L 389.864925 186.420057 
L 389.931791 135.959135 
L 389.941334 190.521748 
L 389.960412 134.777724 
L 390.03663 147.9171 
L 390.131689 209.158825 
L 390.122193 135.303339 
L 390.150672 167.896066 
L 390.169646 137.081963 
L 390.217039 171.581179 
L 390.254911 163.366193 
L 390.264373 164.941054 
L 390.273833 155.68826 
L 390.349428 135.574994 
L 390.321097 184.426466 
L 390.368303 157.35315 
L 390.396598 188.315382 
L 390.387169 137.190004 
L 390.47195 161.43929 
L 390.584698 136.972409 
L 390.56593 169.765465 
L 390.594079 148.828615 
L 390.603458 171.565897 
L 390.669042 137.556796 
L 390.706468 159.169789 
L 390.743857 143.505104 
L 390.8092 173.51598 
L 390.874432 140.588588 
L 390.920957 154.151416 
L 391.004561 138.865932 
L 391.032388 170.357625 
L 391.124998 172.399647 
L 391.143493 143.121636 
L 391.152738 181.205115 
L 391.254276 173.761303 
L 391.327953 190.030078 
L 391.373928 139.535981 
L 391.447374 137.095579 
L 391.493206 176.298276 
L 391.584705 141.483633 
L 391.602979 143.743806 
L 391.675985 167.007539 
L 391.630373 130.747669 
L 391.712436 150.00897 
L 391.794323 166.005373 
L 391.757951 139.730251 
L 391.803411 153.908355 
L 391.812496 142.172941 
L 391.885103 190.776241 
L 391.921354 143.585869 
L 391.975667 189.763404 
L 392.020869 137.526306 
L 392.029903 150.201614 
L 392.038934 141.352213 
L 392.056991 176.470887 
L 392.129134 148.020458 
L 392.192147 174.934461 
L 392.201141 146.499577 
L 392.228108 156.465856 
L 392.237093 133.546074 
L 392.281986 172.854386 
L 392.335787 150.378145 
L 392.39846 218.376213 
L 392.389513 144.379663 
L 392.443163 160.358925 
L 392.46996 182.767865 
L 392.496738 147.539785 
L 392.559147 139.921564 
L 392.532413 161.74496 
L 392.585862 152.100729 
L 392.603662 154.007817 
L 392.612559 145.631751 
L 392.621454 145.675515 
L 392.630347 166.932141 
L 392.728029 140.394396 
L 392.736897 140.908108 
L 392.745763 186.390517 
L 392.781206 134.328089 
L 392.843151 147.591781 
L 392.851992 144.44164 
L 392.860831 183.769796 
L 392.957926 149.238545 
L 393.037183 176.475006 
L 392.975553 134.597713 
L 393.054774 155.200832 
L 393.098714 142.125836 
L 393.125054 193.633919 
L 393.142604 171.754456 
L 393.151376 184.685243 
L 393.186444 140.777473 
L 393.238985 157.988049 
L 393.247734 159.169323 
L 393.256482 153.07284 
L 393.291453 136.339639 
L 393.282713 157.621804 
L 393.326392 151.4359 
L 393.335122 191.691812 
L 393.378741 140.167381 
L 393.431017 147.770411 
L 393.448427 141.139635 
L 393.561396 174.424625 
L 393.63075 141.402839 
L 393.648069 187.824845 
L 393.674032 168.121523 
L 393.751816 137.717356 
L 393.717265 169.469597 
L 393.777709 155.540717 
L 393.786336 179.036995 
L 393.863891 139.988539 
L 393.889708 161.951633 
L 393.915507 144.616565 
L 393.941289 184.239507 
L 393.9928 155.981013 
L 394.078498 172.064191 
L 394.087058 136.199977 
L 394.095615 152.924007 
L 394.112724 137.973198 
L 394.138373 165.48657 
L 394.206685 150.224937 
L 394.249318 166.927191 
L 394.283391 143.703653 
L 394.325938 163.275908 
L 394.351444 139.604305 
L 394.376933 173.734998 
L 394.42786 141.407544 
L 394.436341 191.404881 
L 394.537967 139.185639 
L 394.571783 194.620966 
L 394.61401 132.906622 
L 394.65619 174.882905 
L 394.715165 143.724706 
L 394.765642 151.650874 
L 394.858009 181.791003 
L 394.790855 145.006956 
L 394.866395 165.847593 
L 394.874779 142.959214 
L 394.925045 201.16104 
L 394.983606 147.685842 
L 395.058765 193.997355 
L 395.083785 144.05619 
L 395.100457 151.709021 
L 395.108789 150.490535 
L 395.133777 155.025721 
L 395.192017 179.70446 
L 395.225258 136.186463 
L 395.233563 146.20101 
L 395.258469 164.825793 
L 395.308232 140.806578 
L 395.324806 163.458793 
L 395.341372 134.984469 
L 395.41583 184.129137 
L 395.432356 170.783062 
L 395.490143 137.115944 
L 395.465388 173.516087 
L 395.572543 147.701914 
L 395.671189 178.32469 
L 395.613677 141.984796 
L 395.679398 146.817054 
L 395.687606 147.054231 
L 395.712217 172.592539 
L 395.794139 156.844848 
L 395.875886 171.445543 
L 395.900375 139.533485 
L 395.916693 182.28878 
L 395.941157 138.628552 
L 396.014454 182.063706 
L 396.055113 142.032485 
L 396.128192 162.341679 
L 396.193033 185.491657 
L 396.241591 143.793468 
L 396.257764 165.286743 
L 396.34659 160.198728 
L 396.362718 182.376976 
L 396.4513 141.450374 
L 396.467384 163.505242 
L 396.539676 139.266644 
L 396.563744 154.739971 
L 396.57978 171.81657 
L 396.675857 145.284193 
L 396.723805 165.068498 
L 396.763715 139.082052 
L 396.779668 151.759209 
L 396.795613 138.685882 
L 396.851371 168.586679 
L 396.883196 154.916772 
L 396.891148 186.518022 
L 396.92294 139.015107 
L 396.986444 151.66209 
L 397.026081 183.829308 
L 397.034003 147.398509 
L 397.105231 173.834531 
L 397.136845 137.573533 
L 397.192106 178.400252 
L 397.215765 159.152594 
L 397.302389 136.365165 
L 397.325979 176.993361 
L 397.412353 136.066141 
L 397.443714 147.20129 
L 397.545457 140.836667 
L 397.553272 177.201417 
L 397.576708 137.074248 
L 397.654724 184.569445 
L 397.670308 157.896794 
L 397.685885 154.923991 
L 397.693672 180.207545 
L 397.701456 196.878035 
L 397.70924 138.671756 
L 397.794751 160.635293 
L 397.802515 142.720003 
L 397.872322 192.772452 
L 397.903306 143.349765 
L 397.918789 176.801339 
L 397.988383 142.523265 
L 398.011553 142.552952 
L 398.050139 173.823466 
L 398.127192 164.046588 
L 398.142584 140.166295 
L 398.150278 180.09172 
L 398.242482 159.348148 
L 398.280834 171.9916 
L 398.273167 141.244085 
L 398.296164 152.210423 
L 398.303827 141.319641 
L 398.334463 189.796287 
L 398.403303 153.922524 
L 398.449128 181.87078 
L 398.433859 138.049022 
L 398.487273 165.019985 
" clip-path="url(#pa5875b8fc2)" style="fill: none; stroke: #1f77b4; stroke-width: 1.5; stroke-linecap: square"/>
   </g>
   <g id="patch_3">
    <path d="M 57.6 307.584 
L 57.6 41.472 
" style="fill: none; stroke: #000000; stroke-width: 0.8; stroke-linejoin: miter; stroke-linecap: square"/>
   </g>
   <g id="patch_4">
    <path d="M 414.72 307.584 
L 414.72 41.472 
" style="fill: none; stroke: #000000; stroke-width: 0.8; stroke-linejoin: miter; stroke-linecap: square"/>
   </g>
   <g id="patch_5">
    <path d="M 57.6 307.584 
L 414.72 307.584 
" style="fill: none; stroke: #000000; stroke-width: 0.8; stroke-linejoin: miter; stroke-linecap: square"/>
   </g>
   <g id="patch_6">
    <path d="M 57.6 41.472 
L 414.72 41.472 
" style="fill: none; stroke: #000000; stroke-width: 0.8; stroke-linejoin: miter; stroke-linecap: square"/>
   </g>
  </g>
 </g>
 <defs>
  <clipPath id="pa5875b8fc2">
   <rect x="57.6" y="41.472" width="357.12" height="266.112"/>
  </clipPath>
 </defs>
</svg>
