<?xml version="1.0" encoding="utf-8" standalone="no"?>
<!DOCTYPE svg PUBLIC "-//W3C//DTD SVG 1.1//EN"
  "http://www.w3.org/Graphics/SVG/1.1/DTD/svg11.dtd">
<svg xmlns:xlink="http://www.w3.org/1999/xlink" width="460.8pt" height="345.6pt" viewBox="0 0 460.8 345.6" xmlns="http://www.w3.org/2000/svg" version="1.1">
 <metadata>
  <rdf:RDF xmlns:dc="http://purl.org/dc/elements/1.1/" xmlns:cc="http://creativecommons.org/ns#" xmlns:rdf="http://www.w3.org/1999/02/22-rdf-syntax-ns#">
   <cc:Work>
    <dc:type rdf:resource="http://purl.org/dc/dcmitype/StillImage"/>
    <dc:date>2025-11-23T19:41:17.104811</dc:date>
    <dc:format>image/svg+xml</dc:format>
    <dc:creator>
     <cc:Agent>
      <dc:title>Matplotlib v3.10.6, https://matplotlib.org/</dc:title>
     </cc:Agent>
    </dc:creator>
   </cc:Work>
  </rdf:RDF>
 </metadata>
 <defs>
  <style type="text/css">*{stroke-linejoin: round; stroke-linecap: butt}</style>
 </defs>
 <g id="figure_1">
  <g id="patch_1">
   <path d="M 0 345.6 
L 460.8 345.6 
L 460.8 0 
L 0 0 
z
" style="fill: #ffffff"/>
  </g>
  <g id="axes_1">
   <g id="patch_2">
    <path d="M 57.6 307.584 
L 414.72 307.584 
L 414.72 41.472 
L 57.6 41.472 
z
" style="fill: #ffffff"/>
   </g>
   <g id="matplotlib.axis_1">
    <g id="xtick_1">
     <g id="line2d_1">
      <defs>
       <path id="ma58f20c4fb" d="M 0 0 
L 0 3.5 
" style="stroke: #000000; stroke-width: 0.8"/>
      </defs>
      <g>
       <use xlink:href="#ma58f20c4fb" x="73.832727" y="307.584" style="stroke: #000000; stroke-width: 0.8"/>
      </g>
     </g>
     <g id="text_1">
      <!-- 0 -->
      <g transform="translate(70.651477 322.182437) scale(0.1 -0.1)">
       <defs>
        <path id="DejaVuSans-30" d="M 2034 4250 
Q 1547 4250 1301 3770 
Q 1056 3291 1056 2328 
Q 1056 1369 1301 889 
Q 1547 409 2034 409 
Q 2525 409 2770 889 
Q 3016 1369 3016 2328 
Q 3016 3291 2770 3770 
Q 2525 4250 2034 4250 
z
M 2034 4750 
Q 2819 4750 3233 4129 
Q 3647 3509 3647 2328 
Q 3647 1150 3233 529 
Q 2819 -91 2034 -91 
Q 1250 -91 836 529 
Q 422 1150 422 2328 
Q 422 3509 836 4129 
Q 1250 4750 2034 4750 
z
" transform="scale(0.015625)"/>
       </defs>
       <use xlink:href="#DejaVuSans-30"/>
      </g>
     </g>
    </g>
    <g id="xtick_2">
     <g id="line2d_2">
      <g>
       <use xlink:href="#ma58f20c4fb" x="138.828632" y="307.584" style="stroke: #000000; stroke-width: 0.8"/>
      </g>
     </g>
     <g id="text_2">
      <!-- 200 -->
      <g transform="translate(129.284882 322.182437) scale(0.1 -0.1)">
       <defs>
        <path id="DejaVuSans-32" d="M 1228 531 
L 3431 531 
L 3431 0 
L 469 0 
L 469 531 
Q 828 903 1448 1529 
Q 2069 2156 2228 2338 
Q 2531 2678 2651 2914 
Q 2772 3150 2772 3378 
Q 2772 3750 2511 3984 
Q 2250 4219 1831 4219 
Q 1534 4219 1204 4116 
Q 875 4013 500 3803 
L 500 4441 
Q 881 4594 1212 4672 
Q 1544 4750 1819 4750 
Q 2544 4750 2975 4387 
Q 3406 4025 3406 3419 
Q 3406 3131 3298 2873 
Q 3191 2616 2906 2266 
Q 2828 2175 2409 1742 
Q 1991 1309 1228 531 
z
" transform="scale(0.015625)"/>
       </defs>
       <use xlink:href="#DejaVuSans-32"/>
       <use xlink:href="#DejaVuSans-30" transform="translate(63.623047 0)"/>
       <use xlink:href="#DejaVuSans-30" transform="translate(127.246094 0)"/>
      </g>
     </g>
    </g>
    <g id="xtick_3">
     <g id="line2d_3">
      <g>
       <use xlink:href="#ma58f20c4fb" x="203.824537" y="307.584" style="stroke: #000000; stroke-width: 0.8"/>
      </g>
     </g>
     <g id="text_3">
      <!-- 400 -->
      <g transform="translate(194.280787 322.182437) scale(0.1 -0.1)">
       <defs>
        <path id="DejaVuSans-34" d="M 2419 4116 
L 825 1625 
L 2419 1625 
L 2419 4116 
z
M 2253 4666 
L 3047 4666 
L 3047 1625 
L 3713 1625 
L 3713 1100 
L 3047 1100 
L 3047 0 
L 2419 0 
L 2419 1100 
L 313 1100 
L 313 1709 
L 2253 4666 
z
" transform="scale(0.015625)"/>
       </defs>
       <use xlink:href="#DejaVuSans-34"/>
       <use xlink:href="#DejaVuSans-30" transform="translate(63.623047 0)"/>
       <use xlink:href="#DejaVuSans-30" transform="translate(127.246094 0)"/>
      </g>
     </g>
    </g>
    <g id="xtick_4">
     <g id="line2d_4">
      <g>
       <use xlink:href="#ma58f20c4fb" x="268.820442" y="307.584" style="stroke: #000000; stroke-width: 0.8"/>
      </g>
     </g>
     <g id="text_4">
      <!-- 600 -->
      <g transform="translate(259.276692 322.182437) scale(0.1 -0.1)">
       <defs>
        <path id="DejaVuSans-36" d="M 2113 2584 
Q 1688 2584 1439 2293 
Q 1191 2003 1191 1497 
Q 1191 994 1439 701 
Q 1688 409 2113 409 
Q 2538 409 2786 701 
Q 3034 994 3034 1497 
Q 3034 2003 2786 2293 
Q 2538 2584 2113 2584 
z
M 3366 4563 
L 3366 3988 
Q 3128 4100 2886 4159 
Q 2644 4219 2406 4219 
Q 1781 4219 1451 3797 
Q 1122 3375 1075 2522 
Q 1259 2794 1537 2939 
Q 1816 3084 2150 3084 
Q 2853 3084 3261 2657 
Q 3669 2231 3669 1497 
Q 3669 778 3244 343 
Q 2819 -91 2113 -91 
Q 1303 -91 875 529 
Q 447 1150 447 2328 
Q 447 3434 972 4092 
Q 1497 4750 2381 4750 
Q 2619 4750 2861 4703 
Q 3103 4656 3366 4563 
z
" transform="scale(0.015625)"/>
       </defs>
       <use xlink:href="#DejaVuSans-36"/>
       <use xlink:href="#DejaVuSans-30" transform="translate(63.623047 0)"/>
       <use xlink:href="#DejaVuSans-30" transform="translate(127.246094 0)"/>
      </g>
     </g>
    </g>
    <g id="xtick_5">
     <g id="line2d_5">
      <g>
       <use xlink:href="#ma58f20c4fb" x="333.816347" y="307.584" style="stroke: #000000; stroke-width: 0.8"/>
      </g>
     </g>
     <g id="text_5">
      <!-- 800 -->
      <g transform="translate(324.272597 322.182437) scale(0.1 -0.1)">
       <defs>
        <path id="DejaVuSans-38" d="M 2034 2216 
Q 1584 2216 1326 1975 
Q 1069 1734 1069 1313 
Q 1069 891 1326 650 
Q 1584 409 2034 409 
Q 2484 409 2743 651 
Q 3003 894 3003 1313 
Q 3003 1734 2745 1975 
Q 2488 2216 2034 2216 
z
M 1403 2484 
Q 997 2584 770 2862 
Q 544 3141 544 3541 
Q 544 4100 942 4425 
Q 1341 4750 2034 4750 
Q 2731 4750 3128 4425 
Q 3525 4100 3525 3541 
Q 3525 3141 3298 2862 
Q 3072 2584 2669 2484 
Q 3125 2378 3379 2068 
Q 3634 1759 3634 1313 
Q 3634 634 3220 271 
Q 2806 -91 2034 -91 
Q 1263 -91 848 271 
Q 434 634 434 1313 
Q 434 1759 690 2068 
Q 947 2378 1403 2484 
z
M 1172 3481 
Q 1172 3119 1398 2916 
Q 1625 2713 2034 2713 
Q 2441 2713 2670 2916 
Q 2900 3119 2900 3481 
Q 2900 3844 2670 4047 
Q 2441 4250 2034 4250 
Q 1625 4250 1398 4047 
Q 1172 3844 1172 3481 
z
" transform="scale(0.015625)"/>
       </defs>
       <use xlink:href="#DejaVuSans-38"/>
       <use xlink:href="#DejaVuSans-30" transform="translate(63.623047 0)"/>
       <use xlink:href="#DejaVuSans-30" transform="translate(127.246094 0)"/>
      </g>
     </g>
    </g>
    <g id="xtick_6">
     <g id="line2d_6">
      <g>
       <use xlink:href="#ma58f20c4fb" x="398.812252" y="307.584" style="stroke: #000000; stroke-width: 0.8"/>
      </g>
     </g>
     <g id="text_6">
      <!-- 1000 -->
      <g transform="translate(386.087252 322.182437) scale(0.1 -0.1)">
       <defs>
        <path id="DejaVuSans-31" d="M 794 531 
L 1825 531 
L 1825 4091 
L 703 3866 
L 703 4441 
L 1819 4666 
L 2450 4666 
L 2450 531 
L 3481 531 
L 3481 0 
L 794 0 
L 794 531 
z
" transform="scale(0.015625)"/>
       </defs>
       <use xlink:href="#DejaVuSans-31"/>
       <use xlink:href="#DejaVuSans-30" transform="translate(63.623047 0)"/>
       <use xlink:href="#DejaVuSans-30" transform="translate(127.246094 0)"/>
       <use xlink:href="#DejaVuSans-30" transform="translate(190.869141 0)"/>
      </g>
     </g>
    </g>
   </g>
   <g id="matplotlib.axis_2">
    <g id="ytick_1">
     <g id="line2d_7">
      <defs>
       <path id="ma31a6e24d0" d="M 0 0 
L -3.5 0 
" style="stroke: #000000; stroke-width: 0.8"/>
      </defs>
      <g>
       <use xlink:href="#ma31a6e24d0" x="57.6" y="285.267963" style="stroke: #000000; stroke-width: 0.8"/>
      </g>
     </g>
     <g id="text_7">
      <!-- 0 -->
      <g transform="translate(44.2375 289.067182) scale(0.1 -0.1)">
       <use xlink:href="#DejaVuSans-30"/>
      </g>
     </g>
    </g>
    <g id="ytick_2">
     <g id="line2d_8">
      <g>
       <use xlink:href="#ma31a6e24d0" x="57.6" y="232.495525" style="stroke: #000000; stroke-width: 0.8"/>
      </g>
     </g>
     <g id="text_8">
      <!-- 10 -->
      <g transform="translate(37.875 236.294744) scale(0.1 -0.1)">
       <use xlink:href="#DejaVuSans-31"/>
       <use xlink:href="#DejaVuSans-30" transform="translate(63.623047 0)"/>
      </g>
     </g>
    </g>
    <g id="ytick_3">
     <g id="line2d_9">
      <g>
       <use xlink:href="#ma31a6e24d0" x="57.6" y="179.723088" style="stroke: #000000; stroke-width: 0.8"/>
      </g>
     </g>
     <g id="text_9">
      <!-- 20 -->
      <g transform="translate(37.875 183.522307) scale(0.1 -0.1)">
       <use xlink:href="#DejaVuSans-32"/>
       <use xlink:href="#DejaVuSans-30" transform="translate(63.623047 0)"/>
      </g>
     </g>
    </g>
    <g id="ytick_4">
     <g id="line2d_10">
      <g>
       <use xlink:href="#ma31a6e24d0" x="57.6" y="126.95065" style="stroke: #000000; stroke-width: 0.8"/>
      </g>
     </g>
     <g id="text_10">
      <!-- 30 -->
      <g transform="translate(37.875 130.749869) scale(0.1 -0.1)">
       <defs>
        <path id="DejaVuSans-33" d="M 2597 2516 
Q 3050 2419 3304 2112 
Q 3559 1806 3559 1356 
Q 3559 666 3084 287 
Q 2609 -91 1734 -91 
Q 1441 -91 1130 -33 
Q 819 25 488 141 
L 488 750 
Q 750 597 1062 519 
Q 1375 441 1716 441 
Q 2309 441 2620 675 
Q 2931 909 2931 1356 
Q 2931 1769 2642 2001 
Q 2353 2234 1838 2234 
L 1294 2234 
L 1294 2753 
L 1863 2753 
Q 2328 2753 2575 2939 
Q 2822 3125 2822 3475 
Q 2822 3834 2567 4026 
Q 2313 4219 1838 4219 
Q 1578 4219 1281 4162 
Q 984 4106 628 3988 
L 628 4550 
Q 988 4650 1302 4700 
Q 1616 4750 1894 4750 
Q 2613 4750 3031 4423 
Q 3450 4097 3450 3541 
Q 3450 3153 3228 2886 
Q 3006 2619 2597 2516 
z
" transform="scale(0.015625)"/>
       </defs>
       <use xlink:href="#DejaVuSans-33"/>
       <use xlink:href="#DejaVuSans-30" transform="translate(63.623047 0)"/>
      </g>
     </g>
    </g>
    <g id="ytick_5">
     <g id="line2d_11">
      <g>
       <use xlink:href="#ma31a6e24d0" x="57.6" y="74.178212" style="stroke: #000000; stroke-width: 0.8"/>
      </g>
     </g>
     <g id="text_11">
      <!-- 40 -->
      <g transform="translate(37.875 77.977431) scale(0.1 -0.1)">
       <use xlink:href="#DejaVuSans-34"/>
       <use xlink:href="#DejaVuSans-30" transform="translate(63.623047 0)"/>
      </g>
     </g>
    </g>
   </g>
   <g id="line2d_12">
    <path d="M 73.832727 276.673017 
L 74.157707 291.116851 
L 74.482686 283.76477 
L 74.807666 280.131191 
L 75.132645 286.323764 
L 75.457625 287.24838 
L 75.782604 292.941915 
L 76.107584 292.480908 
L 76.432563 293.910921 
L 76.757543 286.564833 
L 77.082523 286.587158 
L 77.407502 286.784276 
L 77.732482 280.984382 
L 78.057461 287.348257 
L 78.382441 286.11971 
L 78.70742 283.080895 
L 79.0324 286.455537 
L 79.357379 287.031959 
L 79.682359 288.791242 
L 80.007338 282.512165 
L 80.332318 288.179372 
L 80.657297 282.022104 
L 80.982277 286.495992 
L 81.307256 281.336117 
L 81.632236 283.727819 
L 82.282195 274.56275 
L 82.607174 279.829724 
L 83.257133 295.488 
L 84.557052 277.24858 
L 84.882031 281.032553 
L 85.207011 275.213859 
L 85.53199 278.659586 
L 85.85697 277.821536 
L 86.181949 276.461687 
L 86.506929 281.012813 
L 86.831908 278.007301 
L 87.156888 271.744097 
L 87.481867 270.161486 
L 87.806847 272.461796 
L 88.131826 278.626245 
L 88.456806 276.092567 
L 88.781785 269.648092 
L 89.106765 272.339946 
L 89.431744 271.652901 
L 89.756724 273.561719 
L 90.081704 277.283039 
L 90.406683 272.868555 
L 90.731663 270.16884 
L 91.056642 269.549503 
L 91.381622 268.08447 
L 91.706601 269.483191 
L 92.031581 266.380202 
L 92.35656 260.512962 
L 92.68154 273.997349 
L 93.006519 273.205648 
L 93.331499 269.769824 
L 93.981458 257.184525 
L 94.306437 264.311533 
L 94.631417 256.231354 
L 94.956396 258.776884 
L 95.281376 254.684945 
L 95.606355 253.227758 
L 95.931335 245.341962 
L 96.256314 251.24401 
L 96.581294 245.662579 
L 96.906274 250.310959 
L 97.231253 253.328135 
L 97.556233 246.43188 
L 97.881212 246.091763 
L 98.206192 251.089598 
L 98.856151 246.427399 
L 99.18113 250.702214 
L 99.50611 245.307143 
L 99.831089 248.312119 
L 100.156069 239.184779 
L 100.481048 240.186626 
L 100.806028 239.064163 
L 101.131007 229.785214 
L 101.780966 215.91485 
L 102.105946 214.222773 
L 102.430925 208.64079 
L 102.755905 207.293574 
L 103.080885 206.965218 
L 103.730844 215.524473 
L 104.055823 213.19013 
L 104.380803 198.578411 
L 105.030762 208.275121 
L 105.680721 206.814227 
L 106.0057 217.673355 
L 106.33068 223.162424 
L 106.655659 222.849228 
L 106.980639 218.898563 
L 107.305618 217.546216 
L 107.630598 214.095761 
L 107.955577 213.937599 
L 108.280557 216.388226 
L 108.605536 220.608551 
L 108.930516 212.827519 
L 109.255495 213.582025 
L 109.580475 209.824303 
L 110.230434 218.275991 
L 110.555414 218.255525 
L 110.880393 212.020662 
L 111.530352 213.312935 
L 111.855332 210.576808 
L 112.180311 209.450117 
L 112.505291 210.172871 
L 112.83027 205.892361 
L 113.15525 209.024253 
L 113.805209 209.63583 
L 114.130188 202.630786 
L 114.455168 203.351203 
L 114.780147 192.635799 
L 115.105127 198.731814 
L 115.430106 192.035194 
L 115.755086 190.695405 
L 116.080066 182.086483 
L 116.405045 181.491616 
L 116.730025 171.233787 
L 117.055004 171.701856 
L 117.379984 174.348136 
L 117.704963 172.609113 
L 118.029943 171.858767 
L 118.679902 181.959256 
L 119.004881 178.985987 
L 119.329861 183.964005 
L 119.65484 186.847448 
L 119.97982 192.761593 
L 120.304799 190.901187 
L 120.629779 190.576486 
L 120.954758 187.964661 
L 121.279738 186.739281 
L 121.604717 181.638851 
L 121.929697 182.588498 
L 122.254676 184.663032 
L 122.579656 184.624996 
L 122.904636 188.489934 
L 123.554595 191.824309 
L 123.879574 188.403093 
L 124.204554 186.43582 
L 124.529533 188.218892 
L 124.854513 191.385252 
L 125.179492 185.736929 
L 125.504472 192.633028 
L 125.829451 193.253919 
L 126.154431 196.166424 
L 126.47941 188.31907 
L 126.80439 188.816096 
L 127.129369 190.168944 
L 127.454349 192.365996 
L 127.779328 197.027627 
L 128.104308 195.960266 
L 128.429287 195.562254 
L 128.754267 187.233345 
L 129.079247 181.83309 
L 129.404226 182.473162 
L 129.729206 185.661678 
L 130.054185 175.076255 
L 130.379165 178.557711 
L 131.029124 189.071919 
L 131.354103 185.385965 
L 132.004062 202.441765 
L 132.329042 197.348338 
L 132.654021 194.895266 
L 132.979001 189.054649 
L 133.30398 191.543187 
L 133.62896 187.60766 
L 133.953939 186.4908 
L 134.278919 190.573583 
L 134.603898 193.005228 
L 134.928878 198.23552 
L 135.253857 196.35143 
L 135.578837 191.13142 
L 135.903817 196.247326 
L 136.228796 194.907912 
L 136.553776 180.279928 
L 137.203735 172.685683 
L 137.528714 176.144699 
L 137.853694 177.303345 
L 138.178673 183.014012 
L 138.503653 175.732324 
L 138.828632 183.090249 
L 139.153612 181.587321 
L 139.478591 176.068954 
L 140.12855 178.225281 
L 140.45353 177.281129 
L 140.778509 168.481102 
L 141.103489 180.531996 
L 141.428468 187.262407 
L 142.078428 179.854524 
L 142.403407 166.609312 
L 142.728387 163.777116 
L 143.378346 172.84871 
L 144.028305 155.445467 
L 144.353284 156.22087 
L 144.678264 154.96187 
L 145.003243 157.074782 
L 145.328223 150.556276 
L 145.653202 155.995408 
L 146.303161 159.295403 
L 146.628141 156.690026 
L 146.95312 143.669603 
L 147.2781 143.596088 
L 147.603079 139.850776 
L 147.928059 141.775426 
L 148.253038 148.055326 
L 148.578018 147.836211 
L 148.902998 148.431371 
L 149.227977 148.012926 
L 149.552957 146.298792 
L 149.877936 146.60027 
L 150.202916 155.525893 
L 150.527895 145.311528 
L 151.177854 141.145289 
L 151.502834 145.076668 
L 151.827813 151.890777 
L 152.152793 155.941411 
L 152.477772 157.82566 
L 152.802752 162.345798 
L 153.127731 160.114544 
L 153.452711 153.84793 
L 153.77769 150.893087 
L 154.10267 145.488819 
L 154.427649 146.586371 
L 154.752629 140.840271 
L 155.077609 138.820907 
L 155.727568 123.649348 
L 156.052547 126.181263 
L 157.352465 107.391376 
L 158.002424 120.668411 
L 158.327404 120.879159 
L 158.652383 128.537899 
L 158.977363 126.756622 
L 159.302342 128.866823 
L 159.627322 133.83602 
L 159.952301 126.228512 
L 160.277281 125.437885 
L 160.60226 130.805376 
L 161.577199 136.977417 
L 161.902179 136.319461 
L 162.227158 137.945021 
L 162.552138 138.691575 
L 162.877117 133.411981 
L 163.202097 125.306209 
L 163.527076 128.957136 
L 163.852056 136.3484 
L 164.826994 118.216596 
L 165.151974 117.672139 
L 165.801933 117.214821 
L 166.126912 112.542542 
L 166.451892 110.085536 
L 166.776871 118.186899 
L 167.101851 118.689814 
L 167.42683 110.120773 
L 167.75181 97.636871 
L 168.07679 108.803746 
L 168.401769 106.98298 
L 168.726749 102.729932 
L 169.051728 101.95598 
L 169.376708 101.736558 
L 169.701687 88.221377 
L 170.026667 88.658551 
L 170.351646 86.751654 
L 170.676626 83.71721 
L 171.001605 85.283712 
L 171.326585 78.881323 
L 171.651564 77.607595 
L 171.976544 70.450125 
L 172.301523 78.342491 
L 172.626503 69.845668 
L 172.951482 76.514906 
L 173.276462 76.22507 
L 173.601441 82.224612 
L 173.926421 74.974097 
L 174.2514 77.592391 
L 174.57638 67.78455 
L 175.226339 70.676704 
L 175.551319 70.234524 
L 175.876298 67.125238 
L 176.201278 67.806395 
L 176.851237 54.16407 
L 177.176216 58.97991 
L 177.501196 56.019337 
L 177.826175 65.901159 
L 178.151155 69.450467 
L 178.476134 75.043047 
L 178.801114 76.698746 
L 179.126093 76.075757 
L 179.451073 74.845866 
L 179.776052 74.160698 
L 180.101032 69.711848 
L 180.426011 73.058135 
L 180.750991 66.521101 
L 181.075971 56.279235 
L 181.40095 57.260897 
L 181.72593 56.005986 
L 182.050909 53.568 
L 182.700868 57.7225 
L 183.025848 64.358014 
L 183.350827 64.219346 
L 183.675807 65.86818 
L 184.000786 63.820684 
L 184.325766 63.750822 
L 184.650745 73.886049 
L 184.975725 74.590238 
L 185.300704 71.650686 
L 185.625684 74.396296 
L 185.950663 70.830456 
L 186.275643 84.899346 
L 186.600622 83.422143 
L 186.925602 91.228289 
L 187.250581 89.857043 
L 187.575561 92.328526 
L 188.22552 103.981061 
L 188.5505 102.848438 
L 188.875479 108.045127 
L 189.200459 109.081188 
L 189.525438 107.497751 
L 189.850418 109.703092 
L 190.175397 108.38441 
L 190.500377 109.002389 
L 190.825356 113.138906 
L 191.150336 106.14146 
L 191.475315 107.805127 
L 191.800295 108.406911 
L 192.125274 112.340125 
L 192.450254 111.57244 
L 192.775233 108.037889 
L 193.425192 116.939909 
L 193.750172 106.538113 
L 194.075152 102.462411 
L 194.400131 91.923953 
L 194.725111 92.730265 
L 195.05009 95.593299 
L 195.37507 91.669379 
L 195.700049 92.05746 
L 196.025029 90.107244 
L 196.350008 86.360408 
L 196.674988 92.610036 
L 196.999967 95.253287 
L 197.974906 108.991228 
L 198.299885 97.80188 
L 198.624865 96.956154 
L 198.949844 103.508952 
L 199.599803 98.865941 
L 199.924783 107.998544 
L 200.249762 109.508726 
L 200.574742 107.504768 
L 200.899722 107.696808 
L 201.224701 109.980741 
L 201.549681 118.240284 
L 201.87466 121.320795 
L 202.19964 121.858372 
L 202.524619 113.091528 
L 202.849599 116.191845 
L 203.174578 109.228406 
L 203.499558 106.524932 
L 203.824537 114.423289 
L 204.474496 103.442613 
L 204.799476 113.528419 
L 205.124455 109.162091 
L 205.449435 115.929068 
L 205.774414 127.297044 
L 206.749353 121.311904 
L 207.074333 126.937088 
L 207.399312 139.807658 
L 207.724292 140.543465 
L 208.374251 151.020506 
L 208.69923 140.710129 
L 209.02421 136.883135 
L 209.349189 138.848753 
L 209.674169 144.001612 
L 209.999148 135.256313 
L 210.649107 124.835866 
L 210.974087 117.411565 
L 211.299066 114.921612 
L 211.624046 110.599456 
L 211.949025 116.091904 
L 212.274005 109.356566 
L 212.598984 113.435084 
L 212.923964 105.737453 
L 213.248943 106.410662 
L 213.573923 106.035399 
L 213.898903 112.583476 
L 214.223882 112.125862 
L 214.548862 109.704872 
L 214.873841 102.591403 
L 215.198821 101.452673 
L 215.84878 86.46786 
L 216.173759 91.573939 
L 216.498739 93.722165 
L 217.148698 101.564981 
L 217.473677 96.565332 
L 217.798657 93.579262 
L 218.448616 107.909735 
L 219.098575 96.809644 
L 219.423554 94.448804 
L 219.748534 90.367913 
L 220.073514 96.236112 
L 220.398493 105.061209 
L 220.723473 98.886043 
L 221.048452 104.356265 
L 221.373432 102.484637 
L 221.698411 98.146716 
L 222.023391 95.934125 
L 222.34837 92.267941 
L 222.67335 94.494069 
L 222.998329 92.179461 
L 223.323309 98.55656 
L 223.648288 96.055683 
L 223.973268 98.105222 
L 224.298247 103.755139 
L 224.623227 96.764927 
L 224.948206 102.062245 
L 225.273186 110.284073 
L 225.598165 110.052314 
L 225.923145 111.811743 
L 226.248124 106.364617 
L 226.573104 123.100388 
L 226.898084 121.078659 
L 227.223063 128.120933 
L 227.548043 129.763931 
L 227.873022 137.797819 
L 228.522981 131.669719 
L 229.17294 128.718097 
L 229.822899 137.98839 
L 230.147879 137.443948 
L 230.472858 144.445567 
L 230.797838 148.911695 
L 231.122817 140.417017 
L 231.772776 143.394761 
L 232.097756 146.807622 
L 232.422735 136.636389 
L 232.747715 131.644346 
L 233.072695 131.568441 
L 233.397674 132.792811 
L 233.722654 134.48829 
L 234.047633 139.862033 
L 234.372613 131.267235 
L 234.697592 139.27471 
L 235.022572 136.882991 
L 235.347551 137.613601 
L 235.672531 136.52656 
L 235.99751 133.034707 
L 236.32249 122.469477 
L 236.647469 128.132333 
L 237.297428 121.985661 
L 237.622408 124.412677 
L 237.947387 134.330664 
L 238.272367 136.360148 
L 238.597346 128.573298 
L 238.922326 131.485492 
L 239.247305 129.99559 
L 239.572285 123.554434 
L 239.897265 111.41802 
L 240.222244 113.434527 
L 240.547224 114.160131 
L 240.872203 119.9531 
L 241.197183 116.196098 
L 241.522162 120.801352 
L 241.847142 112.235814 
L 242.172121 107.47586 
L 242.497101 107.631364 
L 242.82208 116.974989 
L 243.14706 117.440305 
L 243.472039 108.948946 
L 244.121998 117.669372 
L 244.446978 119.412367 
L 244.771957 126.400227 
L 245.096937 118.711276 
L 245.421916 118.948936 
L 245.746896 116.454172 
L 246.071876 121.71391 
L 246.396855 118.53338 
L 246.721835 113.555989 
L 247.046814 116.396172 
L 247.371794 126.861795 
L 247.696773 130.005322 
L 248.671712 108.369328 
L 248.996691 111.097699 
L 249.321671 112.600921 
L 249.64665 123.562289 
L 249.97163 116.909429 
L 250.296609 118.791727 
L 250.621589 125.530676 
L 250.946568 134.911905 
L 251.271548 137.026907 
L 251.596527 140.390542 
L 251.921507 147.789296 
L 252.246486 149.245744 
L 252.571466 150.045571 
L 252.896446 149.834904 
L 253.221425 158.058034 
L 253.546405 155.317912 
L 253.871384 148.697358 
L 254.196364 147.513815 
L 254.521343 143.484493 
L 254.846323 145.651231 
L 255.171302 148.86288 
L 255.496282 143.11526 
L 255.821261 145.08278 
L 256.146241 141.660641 
L 256.7962 145.637007 
L 257.121179 140.756332 
L 257.446159 139.75822 
L 257.771138 140.908409 
L 258.096118 130.079805 
L 258.421097 131.997432 
L 258.746077 123.630762 
L 259.071057 122.623236 
L 259.396036 128.678245 
L 260.045995 135.898612 
L 260.370975 146.432222 
L 260.695954 151.719986 
L 261.020934 154.481586 
L 261.345913 159.769147 
L 261.670893 159.084528 
L 261.995872 158.819691 
L 262.320852 160.79787 
L 263.29579 148.272074 
L 263.62077 152.084163 
L 263.945749 152.756512 
L 264.270729 146.30875 
L 264.595708 143.490107 
L 264.920688 137.183226 
L 265.245667 136.203621 
L 265.570647 142.120812 
L 265.895627 139.853324 
L 266.220606 142.913685 
L 266.545586 150.869479 
L 266.870565 145.017707 
L 267.195545 137.108217 
L 267.520524 139.765013 
L 267.845504 132.157572 
L 268.170483 129.011238 
L 268.495463 122.383356 
L 268.820442 119.999544 
L 269.145422 112.444119 
L 269.470401 108.781721 
L 269.795381 111.488398 
L 270.12036 115.949375 
L 270.44534 116.178054 
L 270.770319 104.637235 
L 271.095299 112.551533 
L 271.420278 117.424209 
L 271.745258 118.734737 
L 272.070238 119.071439 
L 272.395217 118.288757 
L 272.720197 114.84334 
L 273.045176 114.283237 
L 273.370156 115.145107 
L 273.695135 112.831022 
L 274.020115 116.56612 
L 274.345094 116.301621 
L 274.670074 111.798948 
L 274.995053 111.181828 
L 275.320033 111.923523 
L 275.645012 118.227484 
L 275.969992 121.362869 
L 276.294971 119.874466 
L 276.619951 119.25295 
L 276.94493 122.501202 
L 277.26991 134.303374 
L 277.594889 133.412725 
L 277.919869 129.86749 
L 278.244848 131.821024 
L 278.569828 131.7433 
L 278.894808 136.412089 
L 279.219787 136.029913 
L 279.869746 127.693199 
L 280.194726 129.704336 
L 280.519705 123.603983 
L 280.844685 126.427849 
L 281.169664 123.267321 
L 281.494644 124.106733 
L 281.819623 127.689426 
L 282.144603 134.724425 
L 282.469582 136.433588 
L 283.119541 124.060163 
L 283.444521 122.628309 
L 283.7695 116.720527 
L 284.09448 106.000586 
L 284.419459 107.737065 
L 284.744439 103.637884 
L 285.069419 108.748006 
L 285.719378 110.293978 
L 286.044357 108.787936 
L 286.369337 112.916058 
L 287.019296 126.972607 
L 287.344275 125.557313 
L 287.669255 126.391094 
L 287.994234 131.071976 
L 288.319214 131.909666 
L 288.644193 127.562345 
L 288.969173 133.516106 
L 289.294152 133.021269 
L 289.944111 125.258977 
L 290.269091 124.959041 
L 290.59407 130.977219 
L 290.91905 133.197729 
L 291.244029 132.392276 
L 291.569009 140.469565 
L 291.893989 140.649512 
L 292.218968 129.908666 
L 292.543948 128.461125 
L 292.868927 135.089657 
L 293.193907 137.120578 
L 293.518886 150.261782 
L 293.843866 149.796573 
L 294.168845 151.356723 
L 294.493825 151.49164 
L 294.818804 154.399493 
L 295.143784 153.992693 
L 295.793743 149.048062 
L 296.118722 149.042381 
L 296.443702 150.46267 
L 296.768681 153.226485 
L 297.093661 150.022305 
L 297.41864 151.908987 
L 297.74362 151.631214 
L 298.0686 153.729998 
L 298.393579 152.212623 
L 298.718559 150.126603 
L 299.043538 149.911938 
L 299.368518 157.370673 
L 299.693497 160.98043 
L 300.018477 160.075109 
L 300.668436 164.939016 
L 300.993415 163.353236 
L 301.318395 165.579034 
L 301.643374 172.26955 
L 301.968354 176.653343 
L 302.293333 184.603522 
L 303.593251 158.332166 
L 304.24321 155.752616 
L 304.56819 155.529705 
L 304.89317 153.366741 
L 305.218149 147.864235 
L 305.543129 146.185115 
L 305.868108 146.703943 
L 306.193088 149.175974 
L 306.518067 150.556002 
L 306.843047 161.546902 
L 307.168026 168.389792 
L 307.493006 169.400675 
L 307.817985 169.751974 
L 308.142965 166.51276 
L 308.467944 173.010644 
L 308.792924 171.016481 
L 309.442883 180.416033 
L 309.767862 185.776483 
L 310.092842 185.328541 
L 310.417821 189.469412 
L 311.067781 193.81957 
L 311.39276 190.40351 
L 311.71774 188.872063 
L 312.042719 190.209418 
L 312.367699 183.296168 
L 312.692678 187.00087 
L 313.017658 180.184615 
L 313.342637 180.188294 
L 313.667617 185.283686 
L 314.317576 174.460957 
L 314.642555 174.131359 
L 315.292514 170.257884 
L 315.617494 165.549089 
L 315.942473 162.617038 
L 316.267453 164.602453 
L 316.592432 162.663041 
L 316.917412 157.333124 
L 317.242391 154.790899 
L 317.567371 157.25069 
L 317.892351 164.787416 
L 318.21733 160.249198 
L 318.54231 160.738265 
L 318.867289 163.318012 
L 319.192269 169.691554 
L 319.517248 167.216496 
L 319.842228 170.943388 
L 320.167207 166.569251 
L 320.492187 164.100343 
L 320.817166 166.332023 
L 321.142146 159.160189 
L 321.467125 154.8395 
L 321.792105 158.693302 
L 322.117084 156.555131 
L 322.442064 150.066787 
L 322.767043 148.102238 
L 323.092023 148.435689 
L 323.417002 153.031973 
L 323.741982 145.291148 
L 324.066962 146.698737 
L 324.391941 146.843157 
L 324.716921 155.095736 
L 325.0419 156.374461 
L 325.36688 150.818326 
L 325.691859 153.038875 
L 326.341818 143.182226 
L 326.666798 141.065424 
L 326.991777 143.18882 
L 327.316757 139.750602 
L 327.641736 125.589243 
L 327.966716 122.798044 
L 328.291695 124.429113 
L 328.941654 130.549671 
L 329.266634 121.046651 
L 329.591613 120.709115 
L 329.916593 121.123806 
L 330.241572 112.952895 
L 330.566552 109.864838 
L 330.891532 111.660848 
L 331.216511 106.209864 
L 331.541491 107.067883 
L 331.86647 105.448794 
L 332.19145 105.235341 
L 332.516429 112.647011 
L 332.841409 109.915457 
L 333.166388 103.37006 
L 333.491368 108.577288 
L 333.816347 103.831152 
L 334.791286 128.7953 
L 335.116265 130.448484 
L 335.441245 121.515927 
L 335.766224 129.686159 
L 336.416183 126.563866 
L 336.741163 128.30541 
L 337.066143 136.268077 
L 338.366061 116.890892 
L 338.69104 112.996498 
L 339.01602 111.620662 
L 339.340999 117.726133 
L 339.665979 120.253141 
L 339.990958 126.731356 
L 340.640917 120.087852 
L 340.965897 125.890735 
L 341.290876 128.87631 
L 341.615856 125.466485 
L 341.940835 129.138738 
L 342.265815 130.682758 
L 342.590794 117.052733 
L 342.915774 108.91511 
L 343.240753 106.720062 
L 343.565733 110.254657 
L 343.890713 102.237451 
L 344.215692 108.55215 
L 344.540672 102.680203 
L 344.865651 94.431457 
L 345.190631 90.772198 
L 345.51561 103.85929 
L 345.84059 101.119681 
L 346.165569 101.278997 
L 346.490549 101.566616 
L 347.140508 112.134719 
L 347.465487 109.136789 
L 347.790467 112.457587 
L 348.115446 107.564667 
L 348.440426 117.830191 
L 348.765405 119.707305 
L 349.090385 124.806206 
L 349.415364 124.991568 
L 349.740344 126.524578 
L 350.065324 119.565451 
L 350.390303 121.319491 
L 350.715283 129.5104 
L 351.040262 121.962422 
L 351.365242 120.494343 
L 351.690221 113.667992 
L 352.015201 100.392616 
L 352.34018 105.762972 
L 352.66516 106.847544 
L 352.990139 98.12642 
L 353.315119 100.355706 
L 353.640098 101.126962 
L 353.965078 95.260063 
L 354.290057 97.645638 
L 354.615037 102.328864 
L 354.940016 97.606104 
L 355.264996 103.211773 
L 355.914955 91.390908 
L 356.239934 93.972347 
L 356.564914 98.856462 
L 356.889894 99.327935 
L 357.214873 101.658686 
L 357.539853 99.68165 
L 357.864832 95.129852 
L 358.189812 101.696736 
L 358.514791 101.685854 
L 358.839771 99.200976 
L 359.16475 98.897823 
L 359.48973 96.227226 
L 359.814709 96.501823 
L 360.789648 109.922268 
L 361.114627 109.137051 
L 361.439607 113.011464 
L 361.764586 113.544953 
L 362.089566 118.254327 
L 362.739525 109.81935 
L 363.064505 101.586386 
L 363.389484 103.687132 
L 363.714464 101.322303 
L 364.039443 109.256836 
L 364.364423 96.155198 
L 364.689402 96.611535 
L 365.014382 99.7378 
L 365.339361 94.710125 
L 365.664341 87.83583 
L 365.98932 86.190847 
L 366.3143 83.957144 
L 366.639279 96.908433 
L 366.964259 86.821741 
L 367.289238 86.839453 
L 367.614218 91.634182 
L 367.939197 91.839169 
L 368.264177 93.599552 
L 368.589156 91.402935 
L 368.914136 97.313743 
L 369.239115 96.409561 
L 369.564095 108.921602 
L 369.889075 100.941238 
L 370.214054 115.052434 
L 370.539034 109.088056 
L 370.864013 110.637103 
L 371.188993 118.052722 
L 371.513972 109.92039 
L 371.838952 106.636361 
L 372.163931 115.240406 
L 372.488911 116.088389 
L 372.81389 125.550275 
L 373.13887 122.30901 
L 373.463849 123.091514 
L 373.788829 129.741254 
L 374.113808 121.284482 
L 374.438788 126.090822 
L 374.763767 137.261452 
L 375.413726 138.25097 
L 376.063686 141.755744 
L 376.388665 142.221576 
L 376.713645 156.484574 
L 377.038624 156.607172 
L 377.363604 156.577045 
L 377.688583 160.135159 
L 378.338542 154.333883 
L 378.663522 153.541705 
L 378.988501 148.847935 
L 379.313481 153.598997 
L 379.63846 150.33782 
L 379.96344 152.856434 
L 380.288419 148.485822 
L 380.613399 152.889402 
L 381.263358 138.589948 
L 381.588337 139.944802 
L 381.913317 132.872856 
L 382.238296 132.013061 
L 382.563276 121.424418 
L 382.888256 122.283576 
L 383.213235 123.64078 
L 383.863194 117.956428 
L 384.513153 130.559938 
L 384.838133 127.280461 
L 385.813071 111.371426 
L 386.138051 113.867606 
L 386.46303 109.271856 
L 386.78801 110.564861 
L 387.112989 110.467206 
L 387.437969 115.394595 
L 387.762948 116.161598 
L 388.087928 119.260499 
L 388.737887 136.700277 
L 389.062867 138.300603 
L 389.387846 138.32223 
L 389.712826 147.021431 
L 390.037805 139.168648 
L 390.362785 139.110896 
L 390.687764 144.887815 
L 391.012744 138.407686 
L 391.337723 134.840437 
L 391.987682 148.304366 
L 392.637641 150.191507 
L 393.2876 141.912355 
L 393.61258 130.182633 
L 393.937559 131.180724 
L 394.262539 142.291829 
L 394.912498 148.864278 
L 395.237477 145.39721 
L 395.562457 149.721208 
L 395.887437 144.784219 
L 396.212416 143.626614 
L 396.862375 126.362242 
L 397.187355 138.414175 
L 397.512334 138.491164 
L 397.837314 143.07521 
L 398.162293 145.191266 
L 398.487273 151.262295 
L 398.487273 151.262295 
" clip-path="url(#pe27daa5a73)" style="fill: none; stroke: #1f77b4; stroke-width: 1.5; stroke-linecap: square"/>
   </g>
   <g id="patch_3">
    <path d="M 57.6 307.584 
L 57.6 41.472 
" style="fill: none; stroke: #000000; stroke-width: 0.8; stroke-linejoin: miter; stroke-linecap: square"/>
   </g>
   <g id="patch_4">
    <path d="M 414.72 307.584 
L 414.72 41.472 
" style="fill: none; stroke: #000000; stroke-width: 0.8; stroke-linejoin: miter; stroke-linecap: square"/>
   </g>
   <g id="patch_5">
    <path d="M 57.6 307.584 
L 414.72 307.584 
" style="fill: none; stroke: #000000; stroke-width: 0.8; stroke-linejoin: miter; stroke-linecap: square"/>
   </g>
   <g id="patch_6">
    <path d="M 57.6 41.472 
L 414.72 41.472 
" style="fill: none; stroke: #000000; stroke-width: 0.8; stroke-linejoin: miter; stroke-linecap: square"/>
   </g>
  </g>
 </g>
 <defs>
  <clipPath id="pe27daa5a73">
   <rect x="57.6" y="41.472" width="357.12" height="266.112"/>
  </clipPath>
 </defs>
</svg>
