<?xml version="1.0" encoding="utf-8" standalone="no"?>
<!DOCTYPE svg PUBLIC "-//W3C//DTD SVG 1.1//EN"
  "http://www.w3.org/Graphics/SVG/1.1/DTD/svg11.dtd">
<svg xmlns:xlink="http://www.w3.org/1999/xlink" width="460.8pt" height="345.6pt" viewBox="0 0 460.8 345.6" xmlns="http://www.w3.org/2000/svg" version="1.1">
 <metadata>
  <rdf:RDF xmlns:dc="http://purl.org/dc/elements/1.1/" xmlns:cc="http://creativecommons.org/ns#" xmlns:rdf="http://www.w3.org/1999/02/22-rdf-syntax-ns#">
   <cc:Work>
    <dc:type rdf:resource="http://purl.org/dc/dcmitype/StillImage"/>
    <dc:date>2025-11-23T19:41:16.961713</dc:date>
    <dc:format>image/svg+xml</dc:format>
    <dc:creator>
     <cc:Agent>
      <dc:title>Matplotlib v3.10.6, https://matplotlib.org/</dc:title>
     </cc:Agent>
    </dc:creator>
   </cc:Work>
  </rdf:RDF>
 </metadata>
 <defs>
  <style type="text/css">*{stroke-linejoin: round; stroke-linecap: butt}</style>
 </defs>
 <g id="figure_1">
  <g id="patch_1">
   <path d="M 0 345.6 
L 460.8 345.6 
L 460.8 0 
L 0 0 
z
" style="fill: #ffffff"/>
  </g>
  <g id="axes_1">
   <g id="patch_2">
    <path d="M 57.6 307.584 
L 414.72 307.584 
L 414.72 41.472 
L 57.6 41.472 
z
" style="fill: #ffffff"/>
   </g>
   <g id="matplotlib.axis_1">
    <g id="xtick_1">
     <g id="line2d_1">
      <defs>
       <path id="md100000611" d="M 0 0 
L 0 3.5 
" style="stroke: #000000; stroke-width: 0.8"/>
      </defs>
      <g>
       <use xlink:href="#md100000611" x="73.832727" y="307.584" style="stroke: #000000; stroke-width: 0.8"/>
      </g>
     </g>
     <g id="text_1">
      <!-- 0 -->
      <g transform="translate(70.651477 322.182437) scale(0.1 -0.1)">
       <defs>
        <path id="DejaVuSans-30" d="M 2034 4250 
Q 1547 4250 1301 3770 
Q 1056 3291 1056 2328 
Q 1056 1369 1301 889 
Q 1547 409 2034 409 
Q 2525 409 2770 889 
Q 3016 1369 3016 2328 
Q 3016 3291 2770 3770 
Q 2525 4250 2034 4250 
z
M 2034 4750 
Q 2819 4750 3233 4129 
Q 3647 3509 3647 2328 
Q 3647 1150 3233 529 
Q 2819 -91 2034 -91 
Q 1250 -91 836 529 
Q 422 1150 422 2328 
Q 422 3509 836 4129 
Q 1250 4750 2034 4750 
z
" transform="scale(0.015625)"/>
       </defs>
       <use xlink:href="#DejaVuSans-30"/>
      </g>
     </g>
    </g>
    <g id="xtick_2">
     <g id="line2d_2">
      <g>
       <use xlink:href="#md100000611" x="138.828632" y="307.584" style="stroke: #000000; stroke-width: 0.8"/>
      </g>
     </g>
     <g id="text_2">
      <!-- 200 -->
      <g transform="translate(129.284882 322.182437) scale(0.1 -0.1)">
       <defs>
        <path id="DejaVuSans-32" d="M 1228 531 
L 3431 531 
L 3431 0 
L 469 0 
L 469 531 
Q 828 903 1448 1529 
Q 2069 2156 2228 2338 
Q 2531 2678 2651 2914 
Q 2772 3150 2772 3378 
Q 2772 3750 2511 3984 
Q 2250 4219 1831 4219 
Q 1534 4219 1204 4116 
Q 875 4013 500 3803 
L 500 4441 
Q 881 4594 1212 4672 
Q 1544 4750 1819 4750 
Q 2544 4750 2975 4387 
Q 3406 4025 3406 3419 
Q 3406 3131 3298 2873 
Q 3191 2616 2906 2266 
Q 2828 2175 2409 1742 
Q 1991 1309 1228 531 
z
" transform="scale(0.015625)"/>
       </defs>
       <use xlink:href="#DejaVuSans-32"/>
       <use xlink:href="#DejaVuSans-30" transform="translate(63.623047 0)"/>
       <use xlink:href="#DejaVuSans-30" transform="translate(127.246094 0)"/>
      </g>
     </g>
    </g>
    <g id="xtick_3">
     <g id="line2d_3">
      <g>
       <use xlink:href="#md100000611" x="203.824537" y="307.584" style="stroke: #000000; stroke-width: 0.8"/>
      </g>
     </g>
     <g id="text_3">
      <!-- 400 -->
      <g transform="translate(194.280787 322.182437) scale(0.1 -0.1)">
       <defs>
        <path id="DejaVuSans-34" d="M 2419 4116 
L 825 1625 
L 2419 1625 
L 2419 4116 
z
M 2253 4666 
L 3047 4666 
L 3047 1625 
L 3713 1625 
L 3713 1100 
L 3047 1100 
L 3047 0 
L 2419 0 
L 2419 1100 
L 313 1100 
L 313 1709 
L 2253 4666 
z
" transform="scale(0.015625)"/>
       </defs>
       <use xlink:href="#DejaVuSans-34"/>
       <use xlink:href="#DejaVuSans-30" transform="translate(63.623047 0)"/>
       <use xlink:href="#DejaVuSans-30" transform="translate(127.246094 0)"/>
      </g>
     </g>
    </g>
    <g id="xtick_4">
     <g id="line2d_4">
      <g>
       <use xlink:href="#md100000611" x="268.820442" y="307.584" style="stroke: #000000; stroke-width: 0.8"/>
      </g>
     </g>
     <g id="text_4">
      <!-- 600 -->
      <g transform="translate(259.276692 322.182437) scale(0.1 -0.1)">
       <defs>
        <path id="DejaVuSans-36" d="M 2113 2584 
Q 1688 2584 1439 2293 
Q 1191 2003 1191 1497 
Q 1191 994 1439 701 
Q 1688 409 2113 409 
Q 2538 409 2786 701 
Q 3034 994 3034 1497 
Q 3034 2003 2786 2293 
Q 2538 2584 2113 2584 
z
M 3366 4563 
L 3366 3988 
Q 3128 4100 2886 4159 
Q 2644 4219 2406 4219 
Q 1781 4219 1451 3797 
Q 1122 3375 1075 2522 
Q 1259 2794 1537 2939 
Q 1816 3084 2150 3084 
Q 2853 3084 3261 2657 
Q 3669 2231 3669 1497 
Q 3669 778 3244 343 
Q 2819 -91 2113 -91 
Q 1303 -91 875 529 
Q 447 1150 447 2328 
Q 447 3434 972 4092 
Q 1497 4750 2381 4750 
Q 2619 4750 2861 4703 
Q 3103 4656 3366 4563 
z
" transform="scale(0.015625)"/>
       </defs>
       <use xlink:href="#DejaVuSans-36"/>
       <use xlink:href="#DejaVuSans-30" transform="translate(63.623047 0)"/>
       <use xlink:href="#DejaVuSans-30" transform="translate(127.246094 0)"/>
      </g>
     </g>
    </g>
    <g id="xtick_5">
     <g id="line2d_5">
      <g>
       <use xlink:href="#md100000611" x="333.816347" y="307.584" style="stroke: #000000; stroke-width: 0.8"/>
      </g>
     </g>
     <g id="text_5">
      <!-- 800 -->
      <g transform="translate(324.272597 322.182437) scale(0.1 -0.1)">
       <defs>
        <path id="DejaVuSans-38" d="M 2034 2216 
Q 1584 2216 1326 1975 
Q 1069 1734 1069 1313 
Q 1069 891 1326 650 
Q 1584 409 2034 409 
Q 2484 409 2743 651 
Q 3003 894 3003 1313 
Q 3003 1734 2745 1975 
Q 2488 2216 2034 2216 
z
M 1403 2484 
Q 997 2584 770 2862 
Q 544 3141 544 3541 
Q 544 4100 942 4425 
Q 1341 4750 2034 4750 
Q 2731 4750 3128 4425 
Q 3525 4100 3525 3541 
Q 3525 3141 3298 2862 
Q 3072 2584 2669 2484 
Q 3125 2378 3379 2068 
Q 3634 1759 3634 1313 
Q 3634 634 3220 271 
Q 2806 -91 2034 -91 
Q 1263 -91 848 271 
Q 434 634 434 1313 
Q 434 1759 690 2068 
Q 947 2378 1403 2484 
z
M 1172 3481 
Q 1172 3119 1398 2916 
Q 1625 2713 2034 2713 
Q 2441 2713 2670 2916 
Q 2900 3119 2900 3481 
Q 2900 3844 2670 4047 
Q 2441 4250 2034 4250 
Q 1625 4250 1398 4047 
Q 1172 3844 1172 3481 
z
" transform="scale(0.015625)"/>
       </defs>
       <use xlink:href="#DejaVuSans-38"/>
       <use xlink:href="#DejaVuSans-30" transform="translate(63.623047 0)"/>
       <use xlink:href="#DejaVuSans-30" transform="translate(127.246094 0)"/>
      </g>
     </g>
    </g>
    <g id="xtick_6">
     <g id="line2d_6">
      <g>
       <use xlink:href="#md100000611" x="398.812252" y="307.584" style="stroke: #000000; stroke-width: 0.8"/>
      </g>
     </g>
     <g id="text_6">
      <!-- 1000 -->
      <g transform="translate(386.087252 322.182437) scale(0.1 -0.1)">
       <defs>
        <path id="DejaVuSans-31" d="M 794 531 
L 1825 531 
L 1825 4091 
L 703 3866 
L 703 4441 
L 1819 4666 
L 2450 4666 
L 2450 531 
L 3481 531 
L 3481 0 
L 794 0 
L 794 531 
z
" transform="scale(0.015625)"/>
       </defs>
       <use xlink:href="#DejaVuSans-31"/>
       <use xlink:href="#DejaVuSans-30" transform="translate(63.623047 0)"/>
       <use xlink:href="#DejaVuSans-30" transform="translate(127.246094 0)"/>
       <use xlink:href="#DejaVuSans-30" transform="translate(190.869141 0)"/>
      </g>
     </g>
    </g>
   </g>
   <g id="matplotlib.axis_2">
    <g id="ytick_1">
     <g id="line2d_7">
      <defs>
       <path id="m3cc6904bb8" d="M 0 0 
L -3.5 0 
" style="stroke: #000000; stroke-width: 0.8"/>
      </defs>
      <g>
       <use xlink:href="#m3cc6904bb8" x="57.6" y="293.497266" style="stroke: #000000; stroke-width: 0.8"/>
      </g>
     </g>
     <g id="text_7">
      <!-- 0 -->
      <g transform="translate(44.2375 297.296485) scale(0.1 -0.1)">
       <use xlink:href="#DejaVuSans-30"/>
      </g>
     </g>
    </g>
    <g id="ytick_2">
     <g id="line2d_8">
      <g>
       <use xlink:href="#m3cc6904bb8" x="57.6" y="263.046346" style="stroke: #000000; stroke-width: 0.8"/>
      </g>
     </g>
     <g id="text_8">
      <!-- 20 -->
      <g transform="translate(37.875 266.845564) scale(0.1 -0.1)">
       <use xlink:href="#DejaVuSans-32"/>
       <use xlink:href="#DejaVuSans-30" transform="translate(63.623047 0)"/>
      </g>
     </g>
    </g>
    <g id="ytick_3">
     <g id="line2d_9">
      <g>
       <use xlink:href="#m3cc6904bb8" x="57.6" y="232.595425" style="stroke: #000000; stroke-width: 0.8"/>
      </g>
     </g>
     <g id="text_9">
      <!-- 40 -->
      <g transform="translate(37.875 236.394644) scale(0.1 -0.1)">
       <use xlink:href="#DejaVuSans-34"/>
       <use xlink:href="#DejaVuSans-30" transform="translate(63.623047 0)"/>
      </g>
     </g>
    </g>
    <g id="ytick_4">
     <g id="line2d_10">
      <g>
       <use xlink:href="#m3cc6904bb8" x="57.6" y="202.144505" style="stroke: #000000; stroke-width: 0.8"/>
      </g>
     </g>
     <g id="text_10">
      <!-- 60 -->
      <g transform="translate(37.875 205.943723) scale(0.1 -0.1)">
       <use xlink:href="#DejaVuSans-36"/>
       <use xlink:href="#DejaVuSans-30" transform="translate(63.623047 0)"/>
      </g>
     </g>
    </g>
    <g id="ytick_5">
     <g id="line2d_11">
      <g>
       <use xlink:href="#m3cc6904bb8" x="57.6" y="171.693584" style="stroke: #000000; stroke-width: 0.8"/>
      </g>
     </g>
     <g id="text_11">
      <!-- 80 -->
      <g transform="translate(37.875 175.492803) scale(0.1 -0.1)">
       <use xlink:href="#DejaVuSans-38"/>
       <use xlink:href="#DejaVuSans-30" transform="translate(63.623047 0)"/>
      </g>
     </g>
    </g>
    <g id="ytick_6">
     <g id="line2d_12">
      <g>
       <use xlink:href="#m3cc6904bb8" x="57.6" y="141.242664" style="stroke: #000000; stroke-width: 0.8"/>
      </g>
     </g>
     <g id="text_12">
      <!-- 100 -->
      <g transform="translate(31.5125 145.041882) scale(0.1 -0.1)">
       <use xlink:href="#DejaVuSans-31"/>
       <use xlink:href="#DejaVuSans-30" transform="translate(63.623047 0)"/>
       <use xlink:href="#DejaVuSans-30" transform="translate(127.246094 0)"/>
      </g>
     </g>
    </g>
    <g id="ytick_7">
     <g id="line2d_13">
      <g>
       <use xlink:href="#m3cc6904bb8" x="57.6" y="110.791743" style="stroke: #000000; stroke-width: 0.8"/>
      </g>
     </g>
     <g id="text_13">
      <!-- 120 -->
      <g transform="translate(31.5125 114.590962) scale(0.1 -0.1)">
       <use xlink:href="#DejaVuSans-31"/>
       <use xlink:href="#DejaVuSans-32" transform="translate(63.623047 0)"/>
       <use xlink:href="#DejaVuSans-30" transform="translate(127.246094 0)"/>
      </g>
     </g>
    </g>
    <g id="ytick_8">
     <g id="line2d_14">
      <g>
       <use xlink:href="#m3cc6904bb8" x="57.6" y="80.340823" style="stroke: #000000; stroke-width: 0.8"/>
      </g>
     </g>
     <g id="text_14">
      <!-- 140 -->
      <g transform="translate(31.5125 84.140041) scale(0.1 -0.1)">
       <use xlink:href="#DejaVuSans-31"/>
       <use xlink:href="#DejaVuSans-34" transform="translate(63.623047 0)"/>
       <use xlink:href="#DejaVuSans-30" transform="translate(127.246094 0)"/>
      </g>
     </g>
    </g>
    <g id="ytick_9">
     <g id="line2d_15">
      <g>
       <use xlink:href="#m3cc6904bb8" x="57.6" y="49.889902" style="stroke: #000000; stroke-width: 0.8"/>
      </g>
     </g>
     <g id="text_15">
      <!-- 160 -->
      <g transform="translate(31.5125 53.689121) scale(0.1 -0.1)">
       <use xlink:href="#DejaVuSans-31"/>
       <use xlink:href="#DejaVuSans-36" transform="translate(63.623047 0)"/>
       <use xlink:href="#DejaVuSans-30" transform="translate(127.246094 0)"/>
      </g>
     </g>
    </g>
   </g>
   <g id="line2d_16">
    <path d="M 73.832727 293.497266 
L 74.157707 291.017524 
L 74.482686 292.704996 
L 75.132645 289.951464 
L 75.457625 290.945828 
L 75.782604 291.511337 
L 76.107584 293.418881 
L 76.757543 295.488 
L 77.082523 294.208461 
L 77.407502 293.852289 
L 77.732482 293.679453 
L 78.057461 291.841033 
L 78.382441 292.664027 
L 78.70742 292.466557 
L 79.0324 291.47231 
L 80.007338 292.811724 
L 80.332318 291.338171 
L 80.657297 292.349452 
L 80.982277 290.944698 
L 81.307256 291.592029 
L 81.632236 290.257061 
L 81.957215 290.312233 
L 82.282195 288.975476 
L 82.607174 286.794673 
L 82.932154 287.008062 
L 83.257133 289.193508 
L 83.582113 292.209237 
L 83.907093 292.553702 
L 84.232072 291.807988 
L 84.882031 288.498716 
L 85.207011 288.533943 
L 85.53199 286.535223 
L 85.85697 286.367025 
L 86.506929 284.874574 
L 86.831908 285.591701 
L 87.156888 284.929828 
L 87.806847 281.211922 
L 88.131826 280.800775 
L 88.456806 282.016039 
L 88.781785 281.658757 
L 89.106765 279.684863 
L 89.431744 279.48978 
L 89.756724 278.972423 
L 90.081704 279.10275 
L 90.406683 280.08759 
L 91.381622 277.464622 
L 91.706601 276.522422 
L 92.031581 276.263061 
L 92.35656 275.031811 
L 92.68154 272.602901 
L 93.006519 275.071927 
L 93.331499 275.687326 
L 93.656478 275.112477 
L 94.306437 270.332745 
L 94.631417 270.782751 
L 94.956396 268.189196 
L 95.281376 267.434072 
L 95.931335 263.837683 
L 96.256314 260.350105 
L 96.581294 259.952458 
L 96.906274 257.528496 
L 97.231253 257.32595 
L 97.556233 257.631085 
L 97.881212 255.601654 
L 98.206192 254.419608 
L 98.531171 255.027998 
L 98.856151 254.393237 
L 99.18113 253.329935 
L 99.50611 253.944123 
L 99.831089 252.545856 
L 100.156069 252.699215 
L 100.481048 249.964619 
L 101.131007 247.570191 
L 101.780966 240.09433 
L 102.755905 227.243892 
L 103.405864 220.930718 
L 103.730844 219.895084 
L 104.055823 219.877814 
L 104.380803 218.753725 
L 104.705782 213.799301 
L 105.030762 212.502603 
L 105.355741 212.599075 
L 106.0057 211.090587 
L 106.655659 216.436974 
L 106.980639 217.966543 
L 107.630598 218.190169 
L 107.955577 217.471932 
L 108.280557 217.148658 
L 108.605536 217.615917 
L 108.930516 218.986704 
L 109.255495 217.437326 
L 109.580475 217.068245 
L 109.905455 215.709813 
L 110.230434 216.391131 
L 110.555414 217.466847 
L 110.880393 217.984645 
L 111.205373 216.568697 
L 111.530352 216.191092 
L 111.855332 216.100716 
L 112.505291 214.260351 
L 112.83027 213.884566 
L 113.15525 212.287499 
L 113.480229 212.252824 
L 114.130188 211.933077 
L 114.455168 209.764212 
L 114.780147 208.859071 
L 115.105127 205.028677 
L 115.430106 204.619043 
L 116.730025 193.076114 
L 117.055004 188.049158 
L 117.379984 185.005241 
L 118.029943 181.139913 
L 118.354922 179.245548 
L 118.679902 179.521119 
L 119.004881 180.416797 
L 119.329861 179.838685 
L 119.97982 182.468588 
L 120.304799 185.037815 
L 120.954758 186.869788 
L 121.604717 186.801991 
L 121.929697 185.383725 
L 122.254676 184.972694 
L 122.579656 185.18391 
L 122.904636 185.135419 
L 123.879574 188.239365 
L 124.204554 188.002644 
L 124.529533 187.557915 
L 124.854513 187.927983 
L 125.179492 189.000849 
L 125.504472 187.916892 
L 125.829451 189.504384 
L 126.154431 190.423279 
L 126.47941 191.895616 
L 126.80439 190.53947 
L 127.129369 190.308279 
L 127.454349 190.541393 
L 127.779328 191.23568 
L 128.104308 192.889474 
L 128.754267 193.950779 
L 129.729206 188.393212 
L 130.054185 188.308473 
L 130.379165 184.835813 
L 130.704144 183.925062 
L 131.029124 184.787047 
L 131.354103 186.113624 
L 131.679083 185.628648 
L 132.004062 187.961115 
L 132.329042 191.71327 
L 132.654021 192.432901 
L 132.979001 192.680831 
L 133.30398 191.535286 
L 133.62896 191.903022 
L 134.278919 189.988105 
L 134.603898 190.580998 
L 134.928878 191.4197 
L 135.253857 193.327118 
L 135.578837 193.845398 
L 135.903817 192.91251 
L 136.228796 194.138825 
L 136.553776 194.355836 
L 137.203735 187.410351 
L 137.528714 184.324677 
L 138.178673 182.200642 
L 138.503653 182.911219 
L 138.828632 180.851793 
L 139.153612 181.928061 
L 139.478591 181.781705 
L 139.803571 180.149991 
L 140.12855 179.61863 
L 140.45353 179.488035 
L 140.778509 178.976219 
L 141.103489 176.068128 
L 141.753448 180.50415 
L 142.078428 180.847041 
L 142.403407 180.151181 
L 143.053366 173.524734 
L 143.378346 172.82473 
L 143.703325 173.297004 
L 144.028305 170.551815 
L 144.353284 166.637697 
L 145.003243 162.520588 
L 145.328223 161.497637 
L 145.653202 158.567608 
L 146.303161 158.129716 
L 146.628141 158.306304 
L 146.95312 157.488247 
L 147.2781 153.322826 
L 148.253038 146.986659 
L 148.578018 147.461723 
L 148.902998 147.205043 
L 149.227977 147.113868 
L 149.552957 146.891023 
L 149.877936 146.27617 
L 150.202916 146.012144 
L 150.527895 148.36093 
L 151.177854 145.112876 
L 151.502834 143.840165 
L 151.827813 144.139595 
L 152.802752 149.629637 
L 153.127731 152.165333 
L 153.452711 153.198106 
L 154.10267 151.515446 
L 154.427649 149.574775 
L 154.752629 148.800482 
L 155.402588 144.403628 
L 157.677445 119.106576 
L 158.002424 118.2062 
L 158.327404 118.736154 
L 158.652383 118.54261 
L 158.977363 120.510476 
L 159.302342 120.954248 
L 159.627322 122.039539 
L 159.952301 124.186759 
L 160.277281 123.305781 
L 160.60226 122.990755 
L 161.902179 128.740368 
L 162.227158 129.606283 
L 162.877117 131.923009 
L 163.202097 131.20819 
L 163.527076 128.758739 
L 163.852056 128.613974 
L 164.177035 130.365668 
L 164.502015 129.106674 
L 165.476953 122.244009 
L 166.126912 119.441756 
L 166.776871 114.804795 
L 167.101851 115.584207 
L 167.42683 115.638816 
L 167.75181 113.057744 
L 168.07679 108.133658 
L 168.401769 108.604612 
L 168.726749 107.540083 
L 169.376708 103.857269 
L 169.701687 102.695305 
L 170.026667 97.844915 
L 171.976544 82.311007 
L 172.301523 78.368028 
L 172.626503 78.090193 
L 172.951482 74.72183 
L 173.276462 74.582891 
L 173.601441 73.837368 
L 173.926421 74.956801 
L 174.2514 73.191209 
L 174.57638 73.151728 
L 174.90136 70.122455 
L 175.226339 68.927925 
L 175.876298 67.553257 
L 176.201278 66.002596 
L 176.526257 65.24308 
L 177.176216 58.961845 
L 177.501196 58.211105 
L 177.826175 56.351501 
L 178.476134 59.222373 
L 179.126093 63.401344 
L 179.451073 64.578 
L 180.101032 65.72832 
L 180.426011 64.916695 
L 180.750991 65.624639 
L 181.075971 64.047502 
L 181.40095 60.360838 
L 182.700868 53.910825 
L 183.025848 53.568 
L 183.350827 55.005664 
L 183.675807 55.507077 
L 184.000786 56.358861 
L 184.325766 56.333165 
L 184.650745 56.494132 
L 184.975725 59.568356 
L 185.300704 61.360423 
L 185.625684 61.801696 
L 185.950663 63.236908 
L 186.275643 63.212978 
L 186.600622 67.537035 
L 186.925602 69.37682 
L 187.250581 73.14395 
L 187.900541 77.592643 
L 188.5505 85.183157 
L 188.875479 87.485752 
L 189.525438 93.653577 
L 191.150336 101.927071 
L 191.475315 101.292978 
L 192.125274 102.402062 
L 192.450254 103.92775 
L 192.775233 104.548303 
L 193.100213 104.085848 
L 193.425192 105.435776 
L 193.750172 107.333074 
L 194.400131 103.628188 
L 194.725111 99.614706 
L 195.05009 97.569618 
L 195.37507 96.684109 
L 195.700049 94.53182 
L 196.350008 91.5257 
L 196.674988 89.282324 
L 196.999967 89.588854 
L 197.324947 90.068286 
L 197.974906 93.494163 
L 198.299885 96.044054 
L 198.624865 94.441514 
L 198.949844 93.893024 
L 199.274824 95.542092 
L 199.599803 95.706552 
L 199.924783 95.149432 
L 200.574742 99.277944 
L 201.224701 100.477631 
L 201.549681 101.735918 
L 202.19964 107.635132 
L 202.524619 109.646729 
L 202.849599 108.710131 
L 203.174578 109.681604 
L 203.824537 106.929644 
L 204.149517 108.384926 
L 204.474496 107.078005 
L 204.799476 105.116004 
L 205.124455 106.920004 
L 205.449435 106.292182 
L 205.774414 107.982446 
L 206.099394 112.065002 
L 206.424373 113.775478 
L 207.074333 114.956356 
L 207.399312 117.171599 
L 207.724292 122.16287 
L 208.374251 129.246237 
L 208.69923 133.329091 
L 209.02421 133.286116 
L 209.349189 133.042264 
L 209.674169 133.89511 
L 209.999148 135.934512 
L 210.649107 132.761394 
L 210.974087 130.210563 
L 211.949025 120.095483 
L 212.274005 119.252612 
L 212.598984 116.125988 
L 212.923964 115.30061 
L 213.248943 112.089042 
L 213.898903 108.791009 
L 214.223882 109.451874 
L 214.548862 109.221515 
L 214.873841 108.325186 
L 215.84878 100.738602 
L 216.173759 96.439871 
L 216.823718 94.298839 
L 217.148698 94.479992 
L 217.473677 95.3155 
L 218.123636 92.878713 
L 218.448616 94.41851 
L 218.773595 96.835684 
L 219.098575 96.5922 
L 220.073514 92.006539 
L 220.398493 92.497192 
L 220.723473 94.917785 
L 221.048452 94.241267 
L 221.373432 95.740418 
L 221.698411 96.035895 
L 222.34837 94.205539 
L 222.67335 92.633703 
L 222.998329 92.326804 
L 223.323309 91.21494 
L 223.648288 92.32453 
L 223.973268 91.938229 
L 224.298247 92.393613 
L 224.623227 94.229002 
L 224.948206 93.206061 
L 225.273186 94.465724 
L 225.598165 97.472281 
L 226.248124 100.796934 
L 226.573104 100.524205 
L 226.898084 105.649228 
L 227.223063 107.764609 
L 228.198002 119.075214 
L 228.522981 121.026024 
L 229.17294 122.938235 
L 229.49792 123.364531 
L 230.472858 128.898347 
L 231.122817 135.212821 
L 231.447797 134.930111 
L 232.097756 137.051668 
L 232.422735 138.852292 
L 233.397674 133.884213 
L 233.722654 133.387287 
L 234.047633 133.291512 
L 234.372613 134.583759 
L 234.697592 132.663984 
L 235.022572 134.15048 
L 235.347551 134.040742 
L 235.672531 134.312967 
L 235.99751 134.139653 
L 236.32249 133.130791 
L 236.647469 129.569232 
L 236.972449 129.295946 
L 237.622408 125.724026 
L 237.947387 125.120114 
L 238.272367 127.328785 
L 238.597346 128.759793 
L 238.922326 127.393973 
L 239.247305 127.844592 
L 239.572285 127.645034 
L 239.897265 125.71377 
L 240.222244 121.196508 
L 240.872203 117.843011 
L 241.197183 118.197253 
L 241.522162 116.814364 
L 241.847142 117.331114 
L 242.82208 110.745052 
L 243.14706 112.198357 
L 243.472039 112.60591 
L 243.797019 110.341839 
L 244.121998 110.552455 
L 244.771957 112.693203 
L 245.096937 115.270096 
L 245.421916 114.543631 
L 245.746896 114.677732 
L 246.071876 114.133647 
L 246.396855 115.451118 
L 246.721835 115.104227 
L 247.046814 113.630664 
L 247.371794 113.731035 
L 248.021753 118.917717 
L 248.346732 118.32646 
L 248.671712 117.064028 
L 248.996691 113.84947 
L 249.321671 112.923329 
L 249.64665 112.390138 
L 249.97163 114.920033 
L 250.296609 114.015451 
L 250.621589 114.352961 
L 250.946568 116.490198 
L 251.596527 123.142847 
L 251.921507 126.138997 
L 252.571466 133.718854 
L 253.871384 144.462247 
L 254.196364 144.218683 
L 254.521343 144.323497 
L 254.846323 143.458483 
L 255.171302 143.720461 
L 255.496282 144.666958 
L 255.821261 143.464729 
L 256.146241 143.532163 
L 256.47122 142.497665 
L 256.7962 142.616035 
L 257.121179 142.985031 
L 257.771138 140.803888 
L 258.096118 140.549417 
L 258.421097 137.119204 
L 258.746077 135.819011 
L 259.396036 129.825149 
L 259.721016 129.688986 
L 260.045995 129.956862 
L 260.370975 130.950924 
L 261.670893 144.514694 
L 262.645831 150.951849 
L 262.970811 151.235976 
L 263.29579 150.844757 
L 263.62077 149.623579 
L 263.945749 150.166223 
L 264.270729 150.465525 
L 264.920688 147.074373 
L 265.570647 142.250608 
L 265.895627 142.433939 
L 266.220606 141.380276 
L 266.545586 141.524033 
L 266.870565 143.692919 
L 267.195545 143.048336 
L 267.520524 140.683001 
L 267.845504 140.327449 
L 268.820442 131.69309 
L 269.145422 128.736119 
L 269.795381 120.451616 
L 270.12036 118.400801 
L 270.44534 117.783855 
L 270.770319 116.869408 
L 271.095299 112.723922 
L 271.420278 112.701571 
L 271.745258 113.49678 
L 272.070238 113.97488 
L 272.395217 114.247144 
L 272.720197 114.266052 
L 273.370156 112.808096 
L 273.695135 112.673198 
L 274.020115 111.812203 
L 274.345094 112.372191 
L 274.670074 112.437617 
L 274.995053 111.182174 
L 275.320033 110.385951 
L 275.645012 110.07086 
L 276.294971 113.065939 
L 276.94493 113.846069 
L 277.26991 115.153105 
L 277.594889 119.3394 
L 277.919869 121.376938 
L 278.244848 121.990341 
L 279.544767 127.893532 
L 279.869746 127.77512 
L 280.194726 126.766971 
L 280.519705 126.98991 
L 280.844685 125.255784 
L 281.169664 125.163671 
L 281.494644 123.963553 
L 281.819623 123.494486 
L 282.144603 124.070089 
L 282.794562 127.829319 
L 283.119541 126.800223 
L 284.09448 121.519668 
L 284.419459 116.892778 
L 284.744439 114.632415 
L 285.069419 111.539763 
L 286.369337 108.363342 
L 286.694316 108.900603 
L 287.669255 115.557415 
L 287.994234 117.003647 
L 288.644193 121.399178 
L 288.969173 121.541574 
L 289.294152 123.779118 
L 289.619132 124.988651 
L 289.944111 124.947575 
L 290.269091 123.991938 
L 290.59407 123.585449 
L 291.244029 126.301393 
L 291.569009 126.817386 
L 291.893989 129.638245 
L 292.218968 131.300658 
L 292.543948 129.46699 
L 292.868927 128.536785 
L 293.518886 131.105069 
L 293.843866 135.513765 
L 295.143784 144.13388 
L 295.468763 145.628636 
L 295.793743 146.045483 
L 296.118722 146.048316 
L 296.443702 146.284307 
L 296.768681 146.896868 
L 297.093661 148.046501 
L 297.41864 147.788304 
L 297.74362 148.394743 
L 298.0686 148.681327 
L 298.393579 149.534718 
L 298.718559 149.587272 
L 299.043538 149.159983 
L 299.368518 148.955506 
L 300.018477 152.996104 
L 300.343456 153.963398 
L 300.993415 157.332554 
L 301.318395 158.108712 
L 301.643374 159.499591 
L 302.293333 165.401599 
L 302.618313 169.677398 
L 302.943292 170.58624 
L 303.268272 170.074163 
L 303.593251 168.326035 
L 304.24321 163.720604 
L 305.218149 158.720877 
L 305.868108 153.582412 
L 306.193088 152.063065 
L 306.518067 151.482431 
L 306.843047 151.145938 
L 307.817985 159.296955 
L 308.142965 161.055883 
L 308.467944 161.583123 
L 308.792924 164.203934 
L 309.117903 165.200614 
L 309.767862 170.415028 
L 310.092842 173.783992 
L 310.417821 175.871728 
L 311.39276 184.038393 
L 312.367699 186.641376 
L 312.692678 185.419925 
L 313.017658 186.086545 
L 313.342637 184.391898 
L 313.667617 183.594593 
L 313.992596 184.44814 
L 314.317576 183.145339 
L 314.642555 180.912155 
L 315.292514 178.034867 
L 315.617494 176.316899 
L 316.267453 171.238236 
L 316.592432 170.072241 
L 316.917412 168.389004 
L 317.567371 163.101564 
L 317.892351 162.060046 
L 318.21733 163.160917 
L 318.54231 162.006574 
L 318.867289 161.545152 
L 319.192269 161.942555 
L 319.517248 163.893276 
L 319.842228 164.130298 
L 320.167207 165.574714 
L 320.492187 165.202005 
L 320.817166 164.574907 
L 321.142146 164.95817 
L 321.792105 160.821579 
L 322.117084 160.585652 
L 322.442064 159.468873 
L 323.092023 154.651287 
L 323.417002 153.262176 
L 323.741982 153.414962 
L 324.066962 150.845955 
L 324.716921 148.976963 
L 325.0419 150.655042 
L 325.36688 151.593401 
L 325.691859 150.576656 
L 326.016839 150.898335 
L 326.341818 149.725081 
L 326.991777 145.819288 
L 327.316757 145.200453 
L 327.641736 143.495382 
L 328.291695 134.550942 
L 328.616675 132.372625 
L 328.941654 131.227516 
L 329.266634 130.908593 
L 329.591613 127.582273 
L 330.241572 124.28586 
L 330.891532 117.737158 
L 331.216511 116.130343 
L 331.541491 113.101611 
L 332.516429 107.823804 
L 332.841409 108.726471 
L 333.166388 108.006956 
L 333.491368 105.699951 
L 333.816347 105.955912 
L 334.141327 104.416493 
L 334.466306 106.006172 
L 334.791286 108.50727 
L 335.441245 115.475586 
L 335.766224 115.06614 
L 336.091204 117.931549 
L 336.416183 119.114762 
L 336.741163 119.788355 
L 337.066143 120.938604 
L 337.391122 124.081129 
L 337.716102 124.400985 
L 338.041081 123.697719 
L 338.366061 122.404098 
L 339.340999 115.945933 
L 339.990958 116.651028 
L 340.315938 118.544199 
L 340.640917 118.328251 
L 340.965897 117.732485 
L 341.615856 120.804954 
L 341.940835 120.755466 
L 342.590794 123.306235 
L 343.565733 113.845961 
L 343.890713 112.905593 
L 344.215692 109.43355 
L 344.540672 109.089171 
L 344.865651 106.623905 
L 345.51561 99.238945 
L 345.84059 100.620689 
L 346.490549 99.157496 
L 346.815528 98.787455 
L 347.140508 99.915549 
L 347.465487 102.024036 
L 347.790467 102.308235 
L 348.115446 103.728036 
L 348.440426 103.237643 
L 349.415364 111.217698 
L 350.065324 115.173586 
L 350.390303 114.680873 
L 350.715283 115.427719 
L 351.040262 118.304605 
L 351.365242 117.706852 
L 351.690221 117.371459 
L 352.015201 115.368542 
L 352.34018 110.570078 
L 352.990139 108.42815 
L 353.315119 104.892085 
L 353.965078 102.302785 
L 354.290057 99.621191 
L 354.615037 98.601152 
L 354.940016 98.980623 
L 355.264996 97.470464 
L 355.589975 98.211617 
L 355.914955 96.648974 
L 356.239934 94.198599 
L 356.564914 93.510188 
L 356.889894 94.200096 
L 357.214873 94.380834 
L 357.539853 95.091147 
L 357.864832 94.914726 
L 358.189812 93.640304 
L 358.514791 94.927118 
L 358.839771 95.424802 
L 359.16475 95.031037 
L 359.48973 94.839545 
L 359.814709 94.005452 
L 360.139689 93.638524 
L 360.464668 94.575138 
L 360.789648 95.900498 
L 361.114627 98.282475 
L 361.439607 99.456794 
L 362.414545 105.712989 
L 362.739525 105.955447 
L 363.064505 105.562254 
L 363.389484 103.242418 
L 363.714464 102.755049 
L 364.039443 101.524 
L 364.364423 102.976411 
L 364.689402 99.647681 
L 365.014382 98.200548 
L 365.339361 98.005542 
L 365.664341 96.125294 
L 366.3143 90.594518 
L 366.639279 88.247655 
L 366.964259 90.244045 
L 367.289238 87.767338 
L 367.614218 86.544679 
L 367.939197 87.040197 
L 368.264177 87.117454 
L 368.589156 87.55275 
L 368.914136 87.129516 
L 369.239115 88.701833 
L 369.564095 89.204443 
L 369.889075 93.252709 
L 370.214054 93.118978 
L 370.539034 97.722221 
L 370.864013 98.558983 
L 371.188993 100.149465 
L 371.513972 103.471273 
L 371.838952 103.216826 
L 372.163931 102.68944 
L 372.488911 105.146048 
L 372.81389 106.666937 
L 373.13887 110.421421 
L 373.788829 113.205231 
L 374.113808 116.335298 
L 374.438788 115.876018 
L 374.763767 117.568658 
L 375.088747 121.835376 
L 375.738706 126.484646 
L 376.713645 132.590348 
L 377.038624 138.057154 
L 378.013563 146.805677 
L 378.338542 148.305013 
L 378.988501 149.300545 
L 379.313481 148.470752 
L 379.63846 149.578427 
L 379.96344 149.138184 
L 380.288419 149.750713 
L 380.613399 148.77779 
L 380.938378 149.654132 
L 381.263358 148.094521 
L 381.588337 145.159072 
L 381.913317 143.904054 
L 383.538215 129.459367 
L 384.188174 124.466833 
L 384.513153 124.323212 
L 384.838133 125.660628 
L 385.163112 125.10853 
L 385.488092 123.351273 
L 386.138051 117.938155 
L 386.46303 116.786549 
L 386.78801 114.300565 
L 387.437969 111.841116 
L 387.762948 112.317077 
L 388.087928 112.452547 
L 388.412907 113.350407 
L 388.737887 116.231298 
L 389.387846 123.385169 
L 389.712826 125.615812 
L 390.037805 129.986447 
L 390.362785 130.534114 
L 390.687764 131.59318 
L 391.012744 134.218178 
L 391.337723 133.998426 
L 391.662703 133.275066 
L 392.962621 141.429823 
L 393.2876 141.521523 
L 393.61258 140.784575 
L 393.937559 137.214576 
L 394.262539 135.694207 
L 394.912498 139.156038 
L 395.237477 140.846283 
L 395.562457 140.942157 
L 395.887437 142.619401 
L 396.537396 141.953081 
L 397.187355 135.50451 
L 397.512334 136.77854 
L 397.837314 136.797199 
L 398.487273 139.078368 
L 398.487273 139.078368 
" clip-path="url(#p82a7fc366d)" style="fill: none; stroke: #1f77b4; stroke-width: 1.5; stroke-linecap: square"/>
   </g>
   <g id="patch_3">
    <path d="M 57.6 307.584 
L 57.6 41.472 
" style="fill: none; stroke: #000000; stroke-width: 0.8; stroke-linejoin: miter; stroke-linecap: square"/>
   </g>
   <g id="patch_4">
    <path d="M 414.72 307.584 
L 414.72 41.472 
" style="fill: none; stroke: #000000; stroke-width: 0.8; stroke-linejoin: miter; stroke-linecap: square"/>
   </g>
   <g id="patch_5">
    <path d="M 57.6 307.584 
L 414.72 307.584 
" style="fill: none; stroke: #000000; stroke-width: 0.8; stroke-linejoin: miter; stroke-linecap: square"/>
   </g>
   <g id="patch_6">
    <path d="M 57.6 41.472 
L 414.72 41.472 
" style="fill: none; stroke: #000000; stroke-width: 0.8; stroke-linejoin: miter; stroke-linecap: square"/>
   </g>
  </g>
 </g>
 <defs>
  <clipPath id="p82a7fc366d">
   <rect x="57.6" y="41.472" width="357.12" height="266.112"/>
  </clipPath>
 </defs>
</svg>
