<?xml version="1.0" encoding="utf-8" standalone="no"?>
<!DOCTYPE svg PUBLIC "-//W3C//DTD SVG 1.1//EN"
  "http://www.w3.org/Graphics/SVG/1.1/DTD/svg11.dtd">
<svg xmlns:xlink="http://www.w3.org/1999/xlink" width="460.8pt" height="345.6pt" viewBox="0 0 460.8 345.6" xmlns="http://www.w3.org/2000/svg" version="1.1">
 <metadata>
  <rdf:RDF xmlns:dc="http://purl.org/dc/elements/1.1/" xmlns:cc="http://creativecommons.org/ns#" xmlns:rdf="http://www.w3.org/1999/02/22-rdf-syntax-ns#">
   <cc:Work>
    <dc:type rdf:resource="http://purl.org/dc/dcmitype/StillImage"/>
    <dc:date>2025-11-23T19:41:15.448211</dc:date>
    <dc:format>image/svg+xml</dc:format>
    <dc:creator>
     <cc:Agent>
      <dc:title>Matplotlib v3.10.6, https://matplotlib.org/</dc:title>
     </cc:Agent>
    </dc:creator>
   </cc:Work>
  </rdf:RDF>
 </metadata>
 <defs>
  <style type="text/css">*{stroke-linejoin: round; stroke-linecap: butt}</style>
 </defs>
 <g id="figure_1">
  <g id="patch_1">
   <path d="M 0 345.6 
L 460.8 345.6 
L 460.8 0 
L 0 0 
z
" style="fill: #ffffff"/>
  </g>
  <g id="axes_1">
   <g id="patch_2">
    <path d="M 57.6 307.584 
L 414.72 307.584 
L 414.72 41.472 
L 57.6 41.472 
z
" style="fill: #ffffff"/>
   </g>
   <g id="matplotlib.axis_1">
    <g id="xtick_1">
     <g id="line2d_1">
      <defs>
       <path id="mb2f9e44bbc" d="M 0 0 
L 0 3.5 
" style="stroke: #000000; stroke-width: 0.8"/>
      </defs>
      <g>
       <use xlink:href="#mb2f9e44bbc" x="73.832727" y="307.584" style="stroke: #000000; stroke-width: 0.8"/>
      </g>
     </g>
     <g id="text_1">
      <!-- 0 -->
      <g transform="translate(70.651477 322.182437) scale(0.1 -0.1)">
       <defs>
        <path id="DejaVuSans-30" d="M 2034 4250 
Q 1547 4250 1301 3770 
Q 1056 3291 1056 2328 
Q 1056 1369 1301 889 
Q 1547 409 2034 409 
Q 2525 409 2770 889 
Q 3016 1369 3016 2328 
Q 3016 3291 2770 3770 
Q 2525 4250 2034 4250 
z
M 2034 4750 
Q 2819 4750 3233 4129 
Q 3647 3509 3647 2328 
Q 3647 1150 3233 529 
Q 2819 -91 2034 -91 
Q 1250 -91 836 529 
Q 422 1150 422 2328 
Q 422 3509 836 4129 
Q 1250 4750 2034 4750 
z
" transform="scale(0.015625)"/>
       </defs>
       <use xlink:href="#DejaVuSans-30"/>
      </g>
     </g>
    </g>
    <g id="xtick_2">
     <g id="line2d_2">
      <g>
       <use xlink:href="#mb2f9e44bbc" x="138.828632" y="307.584" style="stroke: #000000; stroke-width: 0.8"/>
      </g>
     </g>
     <g id="text_2">
      <!-- 200 -->
      <g transform="translate(129.284882 322.182437) scale(0.1 -0.1)">
       <defs>
        <path id="DejaVuSans-32" d="M 1228 531 
L 3431 531 
L 3431 0 
L 469 0 
L 469 531 
Q 828 903 1448 1529 
Q 2069 2156 2228 2338 
Q 2531 2678 2651 2914 
Q 2772 3150 2772 3378 
Q 2772 3750 2511 3984 
Q 2250 4219 1831 4219 
Q 1534 4219 1204 4116 
Q 875 4013 500 3803 
L 500 4441 
Q 881 4594 1212 4672 
Q 1544 4750 1819 4750 
Q 2544 4750 2975 4387 
Q 3406 4025 3406 3419 
Q 3406 3131 3298 2873 
Q 3191 2616 2906 2266 
Q 2828 2175 2409 1742 
Q 1991 1309 1228 531 
z
" transform="scale(0.015625)"/>
       </defs>
       <use xlink:href="#DejaVuSans-32"/>
       <use xlink:href="#DejaVuSans-30" transform="translate(63.623047 0)"/>
       <use xlink:href="#DejaVuSans-30" transform="translate(127.246094 0)"/>
      </g>
     </g>
    </g>
    <g id="xtick_3">
     <g id="line2d_3">
      <g>
       <use xlink:href="#mb2f9e44bbc" x="203.824537" y="307.584" style="stroke: #000000; stroke-width: 0.8"/>
      </g>
     </g>
     <g id="text_3">
      <!-- 400 -->
      <g transform="translate(194.280787 322.182437) scale(0.1 -0.1)">
       <defs>
        <path id="DejaVuSans-34" d="M 2419 4116 
L 825 1625 
L 2419 1625 
L 2419 4116 
z
M 2253 4666 
L 3047 4666 
L 3047 1625 
L 3713 1625 
L 3713 1100 
L 3047 1100 
L 3047 0 
L 2419 0 
L 2419 1100 
L 313 1100 
L 313 1709 
L 2253 4666 
z
" transform="scale(0.015625)"/>
       </defs>
       <use xlink:href="#DejaVuSans-34"/>
       <use xlink:href="#DejaVuSans-30" transform="translate(63.623047 0)"/>
       <use xlink:href="#DejaVuSans-30" transform="translate(127.246094 0)"/>
      </g>
     </g>
    </g>
    <g id="xtick_4">
     <g id="line2d_4">
      <g>
       <use xlink:href="#mb2f9e44bbc" x="268.820442" y="307.584" style="stroke: #000000; stroke-width: 0.8"/>
      </g>
     </g>
     <g id="text_4">
      <!-- 600 -->
      <g transform="translate(259.276692 322.182437) scale(0.1 -0.1)">
       <defs>
        <path id="DejaVuSans-36" d="M 2113 2584 
Q 1688 2584 1439 2293 
Q 1191 2003 1191 1497 
Q 1191 994 1439 701 
Q 1688 409 2113 409 
Q 2538 409 2786 701 
Q 3034 994 3034 1497 
Q 3034 2003 2786 2293 
Q 2538 2584 2113 2584 
z
M 3366 4563 
L 3366 3988 
Q 3128 4100 2886 4159 
Q 2644 4219 2406 4219 
Q 1781 4219 1451 3797 
Q 1122 3375 1075 2522 
Q 1259 2794 1537 2939 
Q 1816 3084 2150 3084 
Q 2853 3084 3261 2657 
Q 3669 2231 3669 1497 
Q 3669 778 3244 343 
Q 2819 -91 2113 -91 
Q 1303 -91 875 529 
Q 447 1150 447 2328 
Q 447 3434 972 4092 
Q 1497 4750 2381 4750 
Q 2619 4750 2861 4703 
Q 3103 4656 3366 4563 
z
" transform="scale(0.015625)"/>
       </defs>
       <use xlink:href="#DejaVuSans-36"/>
       <use xlink:href="#DejaVuSans-30" transform="translate(63.623047 0)"/>
       <use xlink:href="#DejaVuSans-30" transform="translate(127.246094 0)"/>
      </g>
     </g>
    </g>
    <g id="xtick_5">
     <g id="line2d_5">
      <g>
       <use xlink:href="#mb2f9e44bbc" x="333.816347" y="307.584" style="stroke: #000000; stroke-width: 0.8"/>
      </g>
     </g>
     <g id="text_5">
      <!-- 800 -->
      <g transform="translate(324.272597 322.182437) scale(0.1 -0.1)">
       <defs>
        <path id="DejaVuSans-38" d="M 2034 2216 
Q 1584 2216 1326 1975 
Q 1069 1734 1069 1313 
Q 1069 891 1326 650 
Q 1584 409 2034 409 
Q 2484 409 2743 651 
Q 3003 894 3003 1313 
Q 3003 1734 2745 1975 
Q 2488 2216 2034 2216 
z
M 1403 2484 
Q 997 2584 770 2862 
Q 544 3141 544 3541 
Q 544 4100 942 4425 
Q 1341 4750 2034 4750 
Q 2731 4750 3128 4425 
Q 3525 4100 3525 3541 
Q 3525 3141 3298 2862 
Q 3072 2584 2669 2484 
Q 3125 2378 3379 2068 
Q 3634 1759 3634 1313 
Q 3634 634 3220 271 
Q 2806 -91 2034 -91 
Q 1263 -91 848 271 
Q 434 634 434 1313 
Q 434 1759 690 2068 
Q 947 2378 1403 2484 
z
M 1172 3481 
Q 1172 3119 1398 2916 
Q 1625 2713 2034 2713 
Q 2441 2713 2670 2916 
Q 2900 3119 2900 3481 
Q 2900 3844 2670 4047 
Q 2441 4250 2034 4250 
Q 1625 4250 1398 4047 
Q 1172 3844 1172 3481 
z
" transform="scale(0.015625)"/>
       </defs>
       <use xlink:href="#DejaVuSans-38"/>
       <use xlink:href="#DejaVuSans-30" transform="translate(63.623047 0)"/>
       <use xlink:href="#DejaVuSans-30" transform="translate(127.246094 0)"/>
      </g>
     </g>
    </g>
    <g id="xtick_6">
     <g id="line2d_6">
      <g>
       <use xlink:href="#mb2f9e44bbc" x="398.812252" y="307.584" style="stroke: #000000; stroke-width: 0.8"/>
      </g>
     </g>
     <g id="text_6">
      <!-- 1000 -->
      <g transform="translate(386.087252 322.182437) scale(0.1 -0.1)">
       <defs>
        <path id="DejaVuSans-31" d="M 794 531 
L 1825 531 
L 1825 4091 
L 703 3866 
L 703 4441 
L 1819 4666 
L 2450 4666 
L 2450 531 
L 3481 531 
L 3481 0 
L 794 0 
L 794 531 
z
" transform="scale(0.015625)"/>
       </defs>
       <use xlink:href="#DejaVuSans-31"/>
       <use xlink:href="#DejaVuSans-30" transform="translate(63.623047 0)"/>
       <use xlink:href="#DejaVuSans-30" transform="translate(127.246094 0)"/>
       <use xlink:href="#DejaVuSans-30" transform="translate(190.869141 0)"/>
      </g>
     </g>
    </g>
   </g>
   <g id="matplotlib.axis_2">
    <g id="ytick_1">
     <g id="line2d_7">
      <defs>
       <path id="me12463a588" d="M 0 0 
L -3.5 0 
" style="stroke: #000000; stroke-width: 0.8"/>
      </defs>
      <g>
       <use xlink:href="#me12463a588" x="57.6" y="293.316061" style="stroke: #000000; stroke-width: 0.8"/>
      </g>
     </g>
     <g id="text_7">
      <!-- −0.003 -->
      <g transform="translate(13.592188 297.11528) scale(0.1 -0.1)">
       <defs>
        <path id="DejaVuSans-2212" d="M 678 2272 
L 4684 2272 
L 4684 1741 
L 678 1741 
L 678 2272 
z
" transform="scale(0.015625)"/>
        <path id="DejaVuSans-2e" d="M 684 794 
L 1344 794 
L 1344 0 
L 684 0 
L 684 794 
z
" transform="scale(0.015625)"/>
        <path id="DejaVuSans-33" d="M 2597 2516 
Q 3050 2419 3304 2112 
Q 3559 1806 3559 1356 
Q 3559 666 3084 287 
Q 2609 -91 1734 -91 
Q 1441 -91 1130 -33 
Q 819 25 488 141 
L 488 750 
Q 750 597 1062 519 
Q 1375 441 1716 441 
Q 2309 441 2620 675 
Q 2931 909 2931 1356 
Q 2931 1769 2642 2001 
Q 2353 2234 1838 2234 
L 1294 2234 
L 1294 2753 
L 1863 2753 
Q 2328 2753 2575 2939 
Q 2822 3125 2822 3475 
Q 2822 3834 2567 4026 
Q 2313 4219 1838 4219 
Q 1578 4219 1281 4162 
Q 984 4106 628 3988 
L 628 4550 
Q 988 4650 1302 4700 
Q 1616 4750 1894 4750 
Q 2613 4750 3031 4423 
Q 3450 4097 3450 3541 
Q 3450 3153 3228 2886 
Q 3006 2619 2597 2516 
z
" transform="scale(0.015625)"/>
       </defs>
       <use xlink:href="#DejaVuSans-2212"/>
       <use xlink:href="#DejaVuSans-30" transform="translate(83.789062 0)"/>
       <use xlink:href="#DejaVuSans-2e" transform="translate(147.412109 0)"/>
       <use xlink:href="#DejaVuSans-30" transform="translate(179.199219 0)"/>
       <use xlink:href="#DejaVuSans-30" transform="translate(242.822266 0)"/>
       <use xlink:href="#DejaVuSans-33" transform="translate(306.445312 0)"/>
      </g>
     </g>
    </g>
    <g id="ytick_2">
     <g id="line2d_8">
      <g>
       <use xlink:href="#me12463a588" x="57.6" y="254.799538" style="stroke: #000000; stroke-width: 0.8"/>
      </g>
     </g>
     <g id="text_8">
      <!-- −0.002 -->
      <g transform="translate(13.592188 258.598757) scale(0.1 -0.1)">
       <use xlink:href="#DejaVuSans-2212"/>
       <use xlink:href="#DejaVuSans-30" transform="translate(83.789062 0)"/>
       <use xlink:href="#DejaVuSans-2e" transform="translate(147.412109 0)"/>
       <use xlink:href="#DejaVuSans-30" transform="translate(179.199219 0)"/>
       <use xlink:href="#DejaVuSans-30" transform="translate(242.822266 0)"/>
       <use xlink:href="#DejaVuSans-32" transform="translate(306.445312 0)"/>
      </g>
     </g>
    </g>
    <g id="ytick_3">
     <g id="line2d_9">
      <g>
       <use xlink:href="#me12463a588" x="57.6" y="216.283016" style="stroke: #000000; stroke-width: 0.8"/>
      </g>
     </g>
     <g id="text_9">
      <!-- −0.001 -->
      <g transform="translate(13.592188 220.082234) scale(0.1 -0.1)">
       <use xlink:href="#DejaVuSans-2212"/>
       <use xlink:href="#DejaVuSans-30" transform="translate(83.789062 0)"/>
       <use xlink:href="#DejaVuSans-2e" transform="translate(147.412109 0)"/>
       <use xlink:href="#DejaVuSans-30" transform="translate(179.199219 0)"/>
       <use xlink:href="#DejaVuSans-30" transform="translate(242.822266 0)"/>
       <use xlink:href="#DejaVuSans-31" transform="translate(306.445312 0)"/>
      </g>
     </g>
    </g>
    <g id="ytick_4">
     <g id="line2d_10">
      <g>
       <use xlink:href="#me12463a588" x="57.6" y="177.766493" style="stroke: #000000; stroke-width: 0.8"/>
      </g>
     </g>
     <g id="text_10">
      <!-- 0.000 -->
      <g transform="translate(21.971875 181.565712) scale(0.1 -0.1)">
       <use xlink:href="#DejaVuSans-30"/>
       <use xlink:href="#DejaVuSans-2e" transform="translate(63.623047 0)"/>
       <use xlink:href="#DejaVuSans-30" transform="translate(95.410156 0)"/>
       <use xlink:href="#DejaVuSans-30" transform="translate(159.033203 0)"/>
       <use xlink:href="#DejaVuSans-30" transform="translate(222.65625 0)"/>
      </g>
     </g>
    </g>
    <g id="ytick_5">
     <g id="line2d_11">
      <g>
       <use xlink:href="#me12463a588" x="57.6" y="139.24997" style="stroke: #000000; stroke-width: 0.8"/>
      </g>
     </g>
     <g id="text_11">
      <!-- 0.001 -->
      <g transform="translate(21.971875 143.049189) scale(0.1 -0.1)">
       <use xlink:href="#DejaVuSans-30"/>
       <use xlink:href="#DejaVuSans-2e" transform="translate(63.623047 0)"/>
       <use xlink:href="#DejaVuSans-30" transform="translate(95.410156 0)"/>
       <use xlink:href="#DejaVuSans-30" transform="translate(159.033203 0)"/>
       <use xlink:href="#DejaVuSans-31" transform="translate(222.65625 0)"/>
      </g>
     </g>
    </g>
    <g id="ytick_6">
     <g id="line2d_12">
      <g>
       <use xlink:href="#me12463a588" x="57.6" y="100.733447" style="stroke: #000000; stroke-width: 0.8"/>
      </g>
     </g>
     <g id="text_12">
      <!-- 0.002 -->
      <g transform="translate(21.971875 104.532666) scale(0.1 -0.1)">
       <use xlink:href="#DejaVuSans-30"/>
       <use xlink:href="#DejaVuSans-2e" transform="translate(63.623047 0)"/>
       <use xlink:href="#DejaVuSans-30" transform="translate(95.410156 0)"/>
       <use xlink:href="#DejaVuSans-30" transform="translate(159.033203 0)"/>
       <use xlink:href="#DejaVuSans-32" transform="translate(222.65625 0)"/>
      </g>
     </g>
    </g>
    <g id="ytick_7">
     <g id="line2d_13">
      <g>
       <use xlink:href="#me12463a588" x="57.6" y="62.216925" style="stroke: #000000; stroke-width: 0.8"/>
      </g>
     </g>
     <g id="text_13">
      <!-- 0.003 -->
      <g transform="translate(21.971875 66.016144) scale(0.1 -0.1)">
       <use xlink:href="#DejaVuSans-30"/>
       <use xlink:href="#DejaVuSans-2e" transform="translate(63.623047 0)"/>
       <use xlink:href="#DejaVuSans-30" transform="translate(95.410156 0)"/>
       <use xlink:href="#DejaVuSans-30" transform="translate(159.033203 0)"/>
       <use xlink:href="#DejaVuSans-33" transform="translate(222.65625 0)"/>
      </g>
     </g>
    </g>
   </g>
   <g id="line2d_14">
    <path d="M 73.832727 115.035366 
L 74.157707 204.772437 
L 74.482686 124.976999 
L 74.807666 137.150257 
L 75.132645 206.97891 
L 75.457625 184.369762 
L 75.782604 218.866018 
L 76.107584 183.33018 
L 76.432563 192.107911 
L 76.757543 129.284218 
L 77.082523 167.908164 
L 77.407502 173.365768 
L 77.732482 131.488043 
L 78.057461 210.349575 
L 78.382441 170.954771 
L 78.70742 153.10797 
L 79.0324 194.55861 
L 79.357379 182.485909 
L 79.682359 190.83505 
L 80.007338 134.606892 
L 80.332318 208.839867 
L 80.657297 136.536467 
L 80.982277 200.458925 
L 81.307256 141.700653 
L 81.632236 185.702117 
L 81.957215 145.701688 
L 82.282195 130.804959 
L 82.607174 199.818587 
L 82.932154 237.267526 
L 83.257133 242.457439 
L 83.582113 162.445968 
L 84.232072 130.748139 
L 84.557052 143.493425 
L 84.882031 191.666032 
L 85.207011 132.482614 
L 85.53199 188.840936 
L 85.85697 167.946333 
L 86.181949 162.105014 
L 86.506929 203.47995 
L 87.156888 126.3874 
L 87.806847 180.621764 
L 88.131826 216.197235 
L 88.781785 127.111707 
L 89.106765 182.41937 
L 89.431744 167.165868 
L 90.081704 202.436643 
L 90.406683 149.048988 
L 90.731663 150.797508 
L 91.056642 163.01053 
L 91.381622 158.26837 
L 91.706601 178.082389 
L 92.35656 123.860279 
L 92.68154 256.780554 
L 93.006519 182.350069 
L 93.656478 121.91386 
L 93.981458 118.723957 
L 94.306437 207.388845 
L 94.631417 115.529046 
L 94.956396 176.360584 
L 95.281376 137.819688 
L 95.606355 150.213819 
L 95.931335 104.160141 
L 96.256314 193.175064 
L 96.581294 127.101123 
L 96.906274 190.872091 
L 97.231253 191.663034 
L 97.556233 123.746001 
L 98.206192 199.499903 
L 98.531171 157.076424 
L 98.856151 150.779208 
L 99.18113 195.701854 
L 99.50611 135.036649 
L 99.831089 184.627351 
L 100.156069 104.731809 
L 100.481048 161.329337 
L 100.806028 153.886595 
L 101.131007 94.347721 
L 101.455987 103.924691 
L 101.780966 86.127981 
L 102.105946 124.833311 
L 102.430925 102.670673 
L 102.755905 129.304972 
L 103.080885 141.640666 
L 103.405864 179.431946 
L 103.730844 190.974912 
L 104.055823 149.794643 
L 104.380803 53.568 
L 104.705782 169.153366 
L 105.030762 190.331408 
L 105.355741 158.423164 
L 105.680721 156.843349 
L 106.0057 239.865197 
L 106.33068 221.406634 
L 106.980639 148.951575 
L 107.305618 158.14299 
L 107.630598 141.620389 
L 108.605536 200.804792 
L 108.930516 120.011196 
L 109.255495 165.05789 
L 109.580475 137.635639 
L 109.905455 195.986039 
L 110.230434 196.745864 
L 110.555414 175.965505 
L 110.880393 127.77597 
L 111.205373 165.184737 
L 111.530352 170.752184 
L 111.855332 148.054191 
L 112.180311 155.004104 
L 112.505291 168.590334 
L 112.83027 135.191097 
L 113.15525 181.966027 
L 113.480229 170.002866 
L 113.805209 170.783339 
L 114.130188 117.602915 
L 114.455168 161.108391 
L 114.780147 83.841524 
L 115.105127 188.634451 
L 115.430106 114.793054 
L 115.755086 141.324624 
L 116.080066 90.980797 
L 116.405045 137.20886 
L 116.730025 73.501251 
L 117.055004 137.33127 
L 117.379984 163.714977 
L 117.704963 140.982676 
L 118.029943 146.126191 
L 118.354922 196.238845 
L 118.679902 196.119438 
L 119.004881 149.178516 
L 119.329861 198.447694 
L 119.65484 193.125962 
L 119.97982 217.499831 
L 120.304799 168.486082 
L 120.629779 170.945849 
L 120.954758 152.567765 
L 121.279738 157.347297 
L 121.604717 128.179627 
L 121.929697 164.312586 
L 122.254676 178.311456 
L 122.579656 167.818728 
L 122.904636 195.601503 
L 123.229615 184.937385 
L 123.554595 188.389674 
L 123.879574 151.09576 
L 124.204554 153.289254 
L 124.529533 178.388212 
L 124.854513 193.464448 
L 125.179492 134.417633 
L 125.504472 213.411923 
L 125.829451 183.154563 
L 126.154431 197.42558 
L 126.47941 122.435493 
L 126.80439 166.148796 
L 127.454349 187.039502 
L 127.779328 208.68988 
L 128.104308 173.850233 
L 128.429287 173.001325 
L 128.754267 113.483274 
L 129.079247 119.308642 
L 129.404226 158.925111 
L 129.729206 184.520722 
L 130.054185 92.061111 
L 130.379165 174.643591 
L 130.704144 208.514835 
L 131.029124 206.236227 
L 131.354103 152.642101 
L 131.679083 229.348783 
L 132.004062 248.895792 
L 132.329042 158.260947 
L 132.654021 159.976984 
L 132.979001 130.512289 
L 133.30398 181.582229 
L 133.62896 143.297491 
L 133.953939 156.5435 
L 134.278919 195.23703 
L 134.603898 192.599125 
L 134.928878 215.67344 
L 135.578837 138.81993 
L 135.903817 204.042302 
L 136.228796 169.233256 
L 136.553776 67.348125 
L 136.878755 121.638601 
L 137.203735 121.139962 
L 137.528714 175.101357 
L 137.853694 170.654474 
L 138.178673 206.792703 
L 138.503653 122.641551 
L 138.828632 212.852657 
L 139.478591 130.053868 
L 139.803571 168.172805 
L 140.12855 173.64636 
L 140.45353 161.783282 
L 140.778509 102.620307 
L 141.103489 239.55864 
L 141.428468 229.208034 
L 141.753448 162.953827 
L 142.078428 144.581467 
L 142.403407 69.999615 
L 143.053366 179.383103 
L 143.378346 199.326137 
L 143.703325 107.436151 
L 144.028305 91.665597 
L 144.353284 149.23722 
L 144.678264 143.982416 
L 145.003243 169.619723 
L 145.328223 113.485216 
L 145.653202 189.303569 
L 145.978182 175.387103 
L 146.303161 179.700984 
L 146.628141 149.725535 
L 146.95312 67.635796 
L 147.2781 139.792378 
L 147.603079 122.449986 
L 148.253038 201.60204 
L 148.578018 167.082928 
L 148.902998 169.648818 
L 149.227977 162.774581 
L 149.552957 152.092537 
L 149.877936 163.922779 
L 150.202916 228.816147 
L 150.527895 105.923501 
L 150.852875 137.886581 
L 151.177854 144.250661 
L 151.827813 216.620031 
L 152.152793 207.736451 
L 152.477772 194.560895 
L 152.802752 212.653761 
L 153.452711 129.971376 
L 153.77769 141.922329 
L 154.10267 122.176068 
L 154.427649 162.993662 
L 154.752629 120.152352 
L 155.077609 138.449562 
L 155.402588 100.133162 
L 155.727568 88.31807 
L 156.052547 156.225701 
L 156.377527 115.544099 
L 157.027486 104.319571 
L 157.352465 108.799884 
L 157.677445 187.412866 
L 158.002424 204.281019 
L 158.327404 169.261739 
L 158.652383 220.137223 
L 158.977363 164.012804 
L 159.627322 207.372521 
L 159.952301 122.636841 
L 160.277281 154.211977 
L 160.60226 201.028885 
L 160.92724 189.518051 
L 161.252219 191.310924 
L 161.577199 188.1114 
L 161.902179 171.600626 
L 162.227158 184.653822 
L 162.552138 180.43037 
L 163.202097 104.501855 
L 163.527076 178.373371 
L 163.852056 218.889609 
L 164.177035 129.771131 
L 164.502015 114.392611 
L 164.826994 117.267308 
L 165.151974 145.672871 
L 165.476953 152.603471 
L 165.801933 155.743368 
L 166.126912 124.840941 
L 166.451892 134.011302 
L 166.776871 210.861903 
L 167.101851 174.021865 
L 167.75181 59.857422 
L 168.07679 215.181307 
L 168.401769 151.6658 
L 168.726749 127.922955 
L 169.051728 146.608576 
L 169.376708 152.938677 
L 169.701687 57.898494 
L 170.026667 136.689244 
L 170.676626 123.459229 
L 171.001605 155.554093 
L 171.326585 104.801809 
L 171.651564 132.114271 
L 171.976544 92.631643 
L 172.301523 193.277489 
L 172.626503 95.32568 
L 172.951482 188.860105 
L 173.276462 156.279133 
L 173.601441 200.079095 
L 173.926421 114.598764 
L 174.2514 169.792198 
L 174.57638 87.667647 
L 174.90136 151.105168 
L 175.226339 161.876062 
L 175.551319 152.475389 
L 175.876298 132.703099 
L 176.201278 155.717821 
L 176.526257 96.462939 
L 176.851237 100.280539 
L 177.176216 172.635869 
L 177.501196 131.536296 
L 177.826175 220.083992 
L 178.151155 194.830552 
L 178.476134 211.191034 
L 179.126093 169.656089 
L 179.451073 160.601062 
L 179.776052 161.008329 
L 180.101032 132.277962 
L 180.426011 181.321888 
L 180.750991 118.366951 
L 181.075971 78.376356 
L 181.40095 145.843777 
L 182.050909 132.520891 
L 182.375889 166.008884 
L 182.700868 169.73208 
L 183.025848 208.691748 
L 183.350827 170.838076 
L 183.675807 179.252234 
L 184.000786 153.794943 
L 184.325766 162.679165 
L 184.650745 237.630055 
L 184.975725 187.499493 
L 185.300704 155.373506 
L 185.625684 188.236115 
L 185.950663 147.471147 
L 186.275643 267.571843 
L 186.600622 181.19565 
L 186.925602 237.011407 
L 187.250581 181.41105 
L 187.575561 199.840469 
L 187.900541 232.902533 
L 188.22552 228.66246 
L 188.5505 186.872456 
L 188.875479 224.383383 
L 189.525438 178.092094 
L 189.850418 199.22731 
L 190.175397 176.369602 
L 190.500377 185.439418 
L 190.825356 211.550603 
L 191.150336 136.624387 
L 191.475315 183.362018 
L 191.800295 181.54904 
L 192.125274 206.564433 
L 192.775233 153.99591 
L 193.100213 207.461539 
L 193.425192 212.743477 
L 193.750172 111.559923 
L 194.075152 134.689456 
L 194.400131 85.248683 
L 194.725111 153.350857 
L 195.05009 179.0034 
L 195.37507 138.216358 
L 195.700049 162.687652 
L 196.350008 134.318724 
L 196.674988 202.735998 
L 196.999967 191.642257 
L 197.324947 211.894368 
L 197.649926 210.212639 
L 197.974906 219.217027 
L 198.299885 106.997586 
L 198.949844 214.192333 
L 199.274824 165.548277 
L 199.599803 154.290834 
L 199.924783 235.196842 
L 200.574742 169.305342 
L 200.899722 178.335911 
L 201.224701 193.602547 
L 201.549681 240.739917 
L 202.19964 196.334477 
L 202.524619 124.269228 
L 202.849599 191.825242 
L 203.174578 128.14188 
L 203.499558 145.583867 
L 203.824537 222.323772 
L 204.149517 136.606137 
L 204.474496 133.058506 
L 204.799476 235.260167 
L 205.124455 152.476153 
L 205.774414 267.891609 
L 206.099394 186.865083 
L 206.424373 169.426061 
L 206.749353 170.174643 
L 207.399312 282.404936 
L 207.724292 213.300419 
L 208.049271 242.590495 
L 208.374251 236.708598 
L 208.69923 129.863466 
L 209.02421 151.499418 
L 209.674169 219.932076 
L 209.999148 127.424297 
L 210.324128 137.257541 
L 210.649107 125.203707 
L 210.974087 106.963186 
L 211.299066 135.240913 
L 211.624046 125.025955 
L 211.949025 194.084402 
L 212.274005 120.666158 
L 212.598984 186.592901 
L 212.923964 113.084423 
L 213.248943 159.761402 
L 213.573923 158.976059 
L 213.898903 210.993132 
L 214.223882 173.509094 
L 214.548862 155.013832 
L 214.873841 115.652442 
L 215.198821 147.690754 
L 215.5238 106.319873 
L 215.84878 93.087938 
L 216.173759 179.307269 
L 216.498739 175.558522 
L 216.823718 193.956768 
L 217.148698 199.420474 
L 217.473677 139.753379 
L 217.798657 142.104017 
L 218.123636 218.437264 
L 218.448616 224.801247 
L 218.773595 147.248691 
L 219.098575 127.664169 
L 219.423554 143.520287 
L 219.748534 130.790426 
L 220.073514 199.23215 
L 220.398493 235.900379 
L 220.723473 140.644135 
L 221.048452 207.990349 
L 221.373432 166.086463 
L 221.698411 141.363076 
L 222.023391 148.872458 
L 222.34837 136.971507 
L 222.67335 175.862969 
L 222.998329 150.492746 
L 223.323309 209.946976 
L 223.648288 158.812438 
L 224.298247 214.747526 
L 224.623227 131.599713 
L 224.948206 204.212828 
L 225.273186 238.183011 
L 225.598165 188.839574 
L 225.923145 196.292048 
L 226.248124 144.158826 
L 226.573104 293.315568 
L 226.898084 189.115165 
L 227.223063 240.64647 
L 227.548043 210.827067 
L 227.873022 253.543841 
L 228.198002 178.879761 
L 228.522981 171.634114 
L 228.847961 172.560181 
L 229.17294 171.03337 
L 229.49792 216.015254 
L 229.822899 219.862439 
L 230.147879 189.375095 
L 230.472858 238.962038 
L 230.797838 231.360278 
L 231.122817 138.828385 
L 231.447797 190.331416 
L 231.772776 195.42397 
L 232.097756 211.614428 
L 232.422735 117.111683 
L 232.747715 133.069875 
L 233.072695 165.114997 
L 233.397674 179.652284 
L 233.722654 187.580623 
L 234.047633 217.883396 
L 234.372613 124.943968 
L 234.697592 226.532086 
L 235.022572 169.491384 
L 235.347551 183.958972 
L 235.672531 172.140108 
L 235.99751 151.945979 
L 236.32249 94.313819 
L 236.647469 195.904842 
L 236.972449 146.533771 
L 237.297428 147.774843 
L 237.622408 182.076124 
L 237.947387 244.305053 
L 238.272367 204.77094 
L 238.597346 130.374721 
L 238.922326 190.37185 
L 239.247305 167.002986 
L 239.897265 74.63173 
L 240.222244 160.430653 
L 240.547224 164.941048 
L 240.872203 206.423097 
L 241.197183 148.872512 
L 241.522162 200.31682 
L 241.847142 114.448142 
L 242.172121 124.317446 
L 242.497101 156.641002 
L 242.82208 229.389546 
L 243.14706 184.140273 
L 243.472039 114.793029 
L 243.797019 191.327688 
L 244.121998 204.093771 
L 244.446978 192.061121 
L 244.771957 230.454474 
L 245.096937 133.726793 
L 245.421916 171.691657 
L 245.746896 154.844325 
L 246.071876 207.419018 
L 246.396855 157.305925 
L 246.721835 135.573231 
L 247.371794 249.239379 
L 247.696773 214.525704 
L 248.021753 138.625258 
L 248.346732 135.97098 
L 248.671712 95.656662 
L 248.996691 171.964732 
L 249.321671 176.099805 
L 249.64665 249.539669 
L 249.97163 141.192997 
L 250.946568 255.786985 
L 251.271548 214.92956 
L 251.596527 219.37988 
L 251.921507 249.653604 
L 252.246486 214.59866 
L 252.896446 193.697008 
L 253.221425 251.377387 
L 253.546405 184.254456 
L 253.871384 143.7309 
L 254.196364 169.638299 
L 254.521343 149.715386 
L 254.846323 189.052266 
L 255.171302 203.782484 
L 255.496282 143.960335 
L 255.821261 187.514859 
L 256.146241 154.699587 
L 256.47122 189.931623 
L 256.7962 191.740811 
L 257.121179 146.288812 
L 257.771138 180.989232 
L 258.096118 97.37863 
L 258.421097 170.675394 
L 258.746077 106.662201 
L 259.071057 146.993454 
L 259.396036 203.69327 
L 259.721016 197.628168 
L 260.045995 207.958864 
L 260.370975 260.278545 
L 261.020934 220.194287 
L 261.345913 236.275126 
L 261.670893 196.786078 
L 261.995872 191.950352 
L 262.320852 204.822168 
L 262.645831 158.511403 
L 262.970811 155.251064 
L 263.29579 143.850969 
L 263.62077 198.292775 
L 263.945749 186.153306 
L 264.270729 134.349441 
L 264.595708 148.31037 
L 264.920688 121.758015 
L 265.245667 152.653467 
L 265.570647 207.159932 
L 265.895627 161.643153 
L 266.545586 236.671438 
L 266.870565 148.890626 
L 267.195545 117.275006 
L 267.520524 181.506751 
L 267.845504 117.160739 
L 268.170483 136.349197 
L 268.495463 110.92183 
L 268.820442 134.511243 
L 269.145422 99.355327 
L 269.470401 119.021081 
L 269.795381 166.798499 
L 270.12036 191.06664 
L 270.44534 170.074777 
L 270.770319 83.180126 
L 271.095299 204.020529 
L 271.420278 204.459755 
L 271.745258 185.618866 
L 272.395217 168.028316 
L 272.720197 146.154345 
L 273.370156 172.755654 
L 273.695135 152.560326 
L 274.020115 192.680336 
L 274.345094 172.174418 
L 274.670074 139.129028 
L 274.995053 158.996593 
L 275.320033 170.798277 
L 275.645012 214.46891 
L 275.969992 203.288725 
L 276.294971 171.376856 
L 276.619951 171.402405 
L 276.94493 197.925577 
L 277.26991 266.230522 
L 277.594889 192.750206 
L 277.919869 162.620842 
L 278.244848 192.914661 
L 278.569828 182.035556 
L 278.894808 214.837919 
L 279.544767 155.323871 
L 279.869746 142.725564 
L 280.194726 183.304888 
L 280.519705 131.161167 
L 280.844685 185.097541 
L 281.169664 150.828122 
L 281.819623 198.01741 
L 282.144603 230.257987 
L 282.469582 202.180194 
L 282.794562 133.945069 
L 283.119541 133.471446 
L 283.444521 153.931992 
L 283.7695 123.06921 
L 284.09448 79.981557 
L 284.419459 156.7843 
L 284.744439 127.232756 
L 285.069419 190.357312 
L 285.394398 172.976128 
L 285.719378 173.832897 
L 286.044357 158.391302 
L 286.694316 234.136305 
L 287.019296 231.311487 
L 287.344275 182.088847 
L 287.669255 189.277059 
L 287.994234 216.761466 
L 288.319214 195.279216 
L 288.644193 154.565279 
L 288.969173 219.088536 
L 289.619132 157.577154 
L 289.944111 144.090956 
L 290.269091 166.696745 
L 290.59407 215.480816 
L 290.91905 200.190298 
L 291.244029 178.745465 
L 291.569009 239.273297 
L 291.893989 195.572428 
L 292.218968 110.075155 
L 292.543948 155.442192 
L 292.868927 217.411405 
L 293.193907 198.86332 
L 293.518886 280.422501 
L 293.843866 202.519234 
L 294.168845 206.245162 
L 294.493825 194.520103 
L 294.818804 211.447711 
L 295.468763 168.324041 
L 295.793743 166.850084 
L 296.768681 203.416777 
L 297.093661 163.931049 
L 297.41864 192.838504 
L 297.74362 181.512391 
L 298.0686 197.220299 
L 298.393579 174.266082 
L 298.718559 165.579026 
L 299.043538 175.587707 
L 299.368518 232.477142 
L 299.693497 218.540912 
L 300.018477 187.2713 
L 300.343456 205.889729 
L 300.668436 207.95487 
L 300.993415 180.568601 
L 301.318395 202.334453 
L 301.643374 238.351517 
L 301.968354 231.497144 
L 302.293333 259.708216 
L 302.618313 163.863527 
L 303.268272 128.751975 
L 303.593251 120.667102 
L 303.918231 153.146548 
L 304.24321 158.742311 
L 304.56819 167.611836 
L 304.89317 155.916627 
L 305.218149 129.338356 
L 306.193088 186.6417 
L 306.518067 184.797704 
L 306.843047 256.914295 
L 307.168026 245.884891 
L 307.493006 208.135377 
L 307.817985 197.374177 
L 308.142965 167.482059 
L 308.467944 229.959074 
L 308.792924 180.355709 
L 309.117903 227.142741 
L 309.442883 223.865204 
L 309.767862 237.340974 
L 310.092842 199.840377 
L 310.417821 226.307826 
L 310.742801 215.858247 
L 311.067781 216.426149 
L 311.39276 174.992334 
L 311.71774 178.603862 
L 312.042719 196.789079 
L 312.367699 139.414726 
L 312.692678 203.126855 
L 313.017658 137.053259 
L 313.667617 214.545455 
L 313.992596 149.0359 
L 314.317576 135.975051 
L 314.642555 166.068277 
L 314.967535 159.376858 
L 315.292514 156.451369 
L 315.617494 135.858727 
L 315.942473 142.93379 
L 316.267453 178.094789 
L 316.917412 129.870376 
L 317.242391 142.664031 
L 317.892351 225.057363 
L 318.21733 151.206327 
L 319.192269 225.677487 
L 319.517248 171.220615 
L 319.842228 207.097683 
L 320.167207 154.429406 
L 320.492187 157.389007 
L 320.817166 188.814851 
L 321.142146 126.37068 
L 321.467125 133.420074 
L 321.792105 189.922942 
L 322.442064 122.192097 
L 323.092023 163.722762 
L 323.417002 199.278418 
L 323.741982 119.467723 
L 324.066962 170.234815 
L 324.391941 168.49827 
L 324.716921 229.162518 
L 325.0419 194.155525 
L 325.36688 141.6275 
L 325.691859 185.561674 
L 326.016839 142.290847 
L 326.341818 128.65924 
L 326.666798 144.901866 
L 326.991777 176.840719 
L 327.316757 143.80228 
L 327.641736 59.754965 
L 327.966716 119.904952 
L 328.291695 158.316621 
L 328.616675 176.664918 
L 328.941654 188.482673 
L 329.266634 100.99347 
L 329.591613 149.020779 
L 329.916593 160.215737 
L 330.241572 101.408777 
L 330.566552 125.197041 
L 330.891532 162.016816 
L 331.216511 117.802214 
L 331.541491 155.648352 
L 331.86647 144.357247 
L 332.19145 153.830401 
L 332.516429 211.815621 
L 332.841409 153.171353 
L 333.166388 116.618562 
L 333.491368 191.262476 
L 333.816347 133.054788 
L 334.141327 220.975149 
L 334.466306 226.642237 
L 334.791286 253.89559 
L 335.116265 208.04657 
L 335.441245 124.767454 
L 335.766224 228.097692 
L 336.091204 173.070162 
L 336.416183 169.27689 
L 336.741163 188.035671 
L 337.066143 236.753461 
L 337.391122 154.253331 
L 337.716102 141.978732 
L 338.041081 137.50058 
L 338.366061 125.074498 
L 338.69104 129.642877 
L 339.01602 146.251705 
L 339.340999 203.466215 
L 339.665979 191.989088 
L 339.990958 223.242494 
L 340.315938 156.405701 
L 340.640917 153.887343 
L 340.965897 211.270555 
L 341.290876 203.072998 
L 341.615856 158.544025 
L 341.940835 200.672217 
L 342.265815 192.622242 
L 342.590794 82.234677 
L 342.915774 95.288667 
L 343.565733 178.603782 
L 343.890713 106.260068 
L 344.215692 196.804424 
L 344.540672 125.785322 
L 344.865651 96.483674 
L 345.190631 119.086167 
L 345.51561 242.314617 
L 345.84059 156.862833 
L 346.165569 167.40585 
L 346.490549 168.983141 
L 346.815528 202.68801 
L 347.140508 218.478047 
L 347.465487 161.993795 
L 347.790467 197.574195 
L 348.115446 143.569072 
L 348.440426 242.671541 
L 348.765405 202.329979 
L 349.090385 222.939816 
L 349.415364 192.500834 
L 349.740344 197.203592 
L 350.065324 135.209532 
L 350.715283 236.677504 
L 351.040262 136.431235 
L 351.365242 161.229417 
L 351.690221 122.086091 
L 352.015201 64.233182 
L 352.34018 181.390714 
L 352.66516 171.221135 
L 352.990139 102.974888 
L 353.315119 167.619828 
L 353.640098 167.762024 
L 353.965078 122.316947 
L 354.290057 172.600047 
L 354.615037 198.497787 
L 354.940016 139.078522 
L 355.264996 203.441123 
L 355.589975 131.615485 
L 355.914955 119.187545 
L 356.239934 173.199718 
L 356.564914 200.077777 
L 356.889894 177.506919 
L 357.214873 189.381711 
L 357.864832 136.748014 
L 358.189812 210.14306 
L 358.514791 177.39226 
L 358.839771 156.219457 
L 359.16475 166.561729 
L 359.48973 149.939666 
L 359.814709 167.216483 
L 360.139689 199.542275 
L 360.464668 200.941041 
L 360.789648 222.167404 
L 361.114627 181.839486 
L 361.439607 209.12745 
L 361.764586 189.960989 
L 362.089566 217.59511 
L 362.414545 153.708842 
L 362.739525 150.325662 
L 363.064505 110.630984 
L 363.389484 173.422341 
L 363.714464 151.090174 
L 364.039443 223.184956 
L 364.364423 86.613315 
L 364.689402 157.490543 
L 365.014382 185.302243 
L 365.339361 134.192886 
L 365.664341 110.950922 
L 365.98932 140.142275 
L 366.3143 139.209287 
L 366.639279 250.081454 
L 366.964259 109.397062 
L 367.614218 197.631705 
L 367.939197 174.762784 
L 368.264177 184.326059 
L 368.589156 157.935402 
L 368.914136 211.670161 
L 369.239115 173.669744 
L 369.564095 266.269559 
L 369.889075 138.702345 
L 370.214054 276.309469 
L 370.539034 157.111359 
L 371.188993 237.018918 
L 371.513972 135.26793 
L 371.838952 149.622904 
L 372.163931 233.042471 
L 372.488911 194.894994 
L 372.81389 254.405524 
L 373.13887 176.353992 
L 373.463849 191.918105 
L 373.788829 234.754561 
L 374.113808 134.82234 
L 374.763767 268.630808 
L 375.088747 209.116743 
L 375.413726 199.894943 
L 375.738706 206.676452 
L 376.063686 205.863971 
L 376.388665 196.991783 
L 376.713645 295.488 
L 377.038624 216.140571 
L 377.363604 204.028199 
L 377.688583 224.905851 
L 378.013563 183.035037 
L 378.338542 169.640609 
L 378.663522 180.313055 
L 378.988501 151.407743 
L 379.313481 212.183297 
L 379.63846 165.415839 
L 379.96344 199.408274 
L 380.288419 154.979711 
L 380.613399 209.603684 
L 380.938378 139.789072 
L 381.263358 117.152194 
L 381.588337 172.861624 
L 381.913317 120.392195 
L 382.238296 154.713175 
L 382.563276 88.151631 
L 382.888256 155.751381 
L 383.213235 170.097585 
L 383.538215 147.07303 
L 383.863194 140.701726 
L 384.188174 202.929393 
L 384.513153 224.298591 
L 384.838133 161.343102 
L 385.163112 135.508368 
L 385.488092 121.884136 
L 385.813071 123.883044 
L 386.138051 173.243343 
L 386.46303 131.81601 
L 386.78801 167.592967 
L 387.112989 164.055046 
L 387.437969 201.858179 
L 387.762948 181.621877 
L 388.087928 197.541945 
L 388.412907 240.841131 
L 388.737887 257.953585 
L 389.062867 213.485763 
L 389.387846 195.782811 
L 389.712826 253.842629 
L 390.037805 145.940363 
L 390.687764 224.637445 
L 391.012744 145.587917 
L 391.337723 150.65439 
L 391.662703 229.898514 
L 391.987682 230.721844 
L 392.312662 202.441719 
L 392.637641 198.954364 
L 392.962621 160.350662 
L 393.2876 149.989974 
L 393.61258 88.448422 
L 394.262539 247.562151 
L 394.587518 214.345516 
L 394.912498 213.624252 
L 395.237477 166.397251 
L 395.562457 212.775408 
L 395.887437 153.390688 
L 396.212416 168.725954 
L 396.537396 107.630017 
L 396.862375 104.029926 
L 397.187355 241.463673 
L 397.512334 184.237307 
L 397.837314 212.814967 
L 398.162293 201.912084 
L 398.487273 231.03079 
L 398.487273 231.03079 
" clip-path="url(#p75039a4a34)" style="fill: none; stroke: #1f77b4; stroke-width: 1.5; stroke-linecap: square"/>
   </g>
   <g id="patch_3">
    <path d="M 57.6 307.584 
L 57.6 41.472 
" style="fill: none; stroke: #000000; stroke-width: 0.8; stroke-linejoin: miter; stroke-linecap: square"/>
   </g>
   <g id="patch_4">
    <path d="M 414.72 307.584 
L 414.72 41.472 
" style="fill: none; stroke: #000000; stroke-width: 0.8; stroke-linejoin: miter; stroke-linecap: square"/>
   </g>
   <g id="patch_5">
    <path d="M 57.6 307.584 
L 414.72 307.584 
" style="fill: none; stroke: #000000; stroke-width: 0.8; stroke-linejoin: miter; stroke-linecap: square"/>
   </g>
   <g id="patch_6">
    <path d="M 57.6 41.472 
L 414.72 41.472 
" style="fill: none; stroke: #000000; stroke-width: 0.8; stroke-linejoin: miter; stroke-linecap: square"/>
   </g>
  </g>
 </g>
 <defs>
  <clipPath id="p75039a4a34">
   <rect x="57.6" y="41.472" width="357.12" height="266.112"/>
  </clipPath>
 </defs>
</svg>
