<?xml version="1.0" encoding="utf-8" standalone="no"?>
<!DOCTYPE svg PUBLIC "-//W3C//DTD SVG 1.1//EN"
  "http://www.w3.org/Graphics/SVG/1.1/DTD/svg11.dtd">
<svg xmlns:xlink="http://www.w3.org/1999/xlink" width="460.8pt" height="345.6pt" viewBox="0 0 460.8 345.6" xmlns="http://www.w3.org/2000/svg" version="1.1">
 <metadata>
  <rdf:RDF xmlns:dc="http://purl.org/dc/elements/1.1/" xmlns:cc="http://creativecommons.org/ns#" xmlns:rdf="http://www.w3.org/1999/02/22-rdf-syntax-ns#">
   <cc:Work>
    <dc:type rdf:resource="http://purl.org/dc/dcmitype/StillImage"/>
    <dc:date>2025-11-24T22:56:24.251006</dc:date>
    <dc:format>image/svg+xml</dc:format>
    <dc:creator>
     <cc:Agent>
      <dc:title>Matplotlib v3.10.6, https://matplotlib.org/</dc:title>
     </cc:Agent>
    </dc:creator>
   </cc:Work>
  </rdf:RDF>
 </metadata>
 <defs>
  <style type="text/css">*{stroke-linejoin: round; stroke-linecap: butt}</style>
 </defs>
 <g id="figure_1">
  <g id="patch_1">
   <path d="M 0 345.6 
L 460.8 345.6 
L 460.8 0 
L 0 0 
z
" style="fill: #ffffff"/>
  </g>
  <g id="axes_1">
   <g id="patch_2">
    <path d="M 57.6 307.584 
L 414.72 307.584 
L 414.72 41.472 
L 57.6 41.472 
z
" style="fill: #ffffff"/>
   </g>
   <g id="matplotlib.axis_1">
    <g id="xtick_1">
     <g id="line2d_1">
      <defs>
       <path id="m6d3046ce3b" d="M 0 0 
L 0 3.5 
" style="stroke: #000000; stroke-width: 0.8"/>
      </defs>
      <g>
       <use xlink:href="#m6d3046ce3b" x="73.832727" y="307.584" style="stroke: #000000; stroke-width: 0.8"/>
      </g>
     </g>
     <g id="text_1">
      <!-- 0 -->
      <g transform="translate(70.651477 322.182437) scale(0.1 -0.1)">
       <defs>
        <path id="DejaVuSans-30" d="M 2034 4250 
Q 1547 4250 1301 3770 
Q 1056 3291 1056 2328 
Q 1056 1369 1301 889 
Q 1547 409 2034 409 
Q 2525 409 2770 889 
Q 3016 1369 3016 2328 
Q 3016 3291 2770 3770 
Q 2525 4250 2034 4250 
z
M 2034 4750 
Q 2819 4750 3233 4129 
Q 3647 3509 3647 2328 
Q 3647 1150 3233 529 
Q 2819 -91 2034 -91 
Q 1250 -91 836 529 
Q 422 1150 422 2328 
Q 422 3509 836 4129 
Q 1250 4750 2034 4750 
z
" transform="scale(0.015625)"/>
       </defs>
       <use xlink:href="#DejaVuSans-30"/>
      </g>
     </g>
    </g>
    <g id="xtick_2">
     <g id="line2d_2">
      <g>
       <use xlink:href="#m6d3046ce3b" x="138.828632" y="307.584" style="stroke: #000000; stroke-width: 0.8"/>
      </g>
     </g>
     <g id="text_2">
      <!-- 200 -->
      <g transform="translate(129.284882 322.182437) scale(0.1 -0.1)">
       <defs>
        <path id="DejaVuSans-32" d="M 1228 531 
L 3431 531 
L 3431 0 
L 469 0 
L 469 531 
Q 828 903 1448 1529 
Q 2069 2156 2228 2338 
Q 2531 2678 2651 2914 
Q 2772 3150 2772 3378 
Q 2772 3750 2511 3984 
Q 2250 4219 1831 4219 
Q 1534 4219 1204 4116 
Q 875 4013 500 3803 
L 500 4441 
Q 881 4594 1212 4672 
Q 1544 4750 1819 4750 
Q 2544 4750 2975 4387 
Q 3406 4025 3406 3419 
Q 3406 3131 3298 2873 
Q 3191 2616 2906 2266 
Q 2828 2175 2409 1742 
Q 1991 1309 1228 531 
z
" transform="scale(0.015625)"/>
       </defs>
       <use xlink:href="#DejaVuSans-32"/>
       <use xlink:href="#DejaVuSans-30" transform="translate(63.623047 0)"/>
       <use xlink:href="#DejaVuSans-30" transform="translate(127.246094 0)"/>
      </g>
     </g>
    </g>
    <g id="xtick_3">
     <g id="line2d_3">
      <g>
       <use xlink:href="#m6d3046ce3b" x="203.824537" y="307.584" style="stroke: #000000; stroke-width: 0.8"/>
      </g>
     </g>
     <g id="text_3">
      <!-- 400 -->
      <g transform="translate(194.280787 322.182437) scale(0.1 -0.1)">
       <defs>
        <path id="DejaVuSans-34" d="M 2419 4116 
L 825 1625 
L 2419 1625 
L 2419 4116 
z
M 2253 4666 
L 3047 4666 
L 3047 1625 
L 3713 1625 
L 3713 1100 
L 3047 1100 
L 3047 0 
L 2419 0 
L 2419 1100 
L 313 1100 
L 313 1709 
L 2253 4666 
z
" transform="scale(0.015625)"/>
       </defs>
       <use xlink:href="#DejaVuSans-34"/>
       <use xlink:href="#DejaVuSans-30" transform="translate(63.623047 0)"/>
       <use xlink:href="#DejaVuSans-30" transform="translate(127.246094 0)"/>
      </g>
     </g>
    </g>
    <g id="xtick_4">
     <g id="line2d_4">
      <g>
       <use xlink:href="#m6d3046ce3b" x="268.820442" y="307.584" style="stroke: #000000; stroke-width: 0.8"/>
      </g>
     </g>
     <g id="text_4">
      <!-- 600 -->
      <g transform="translate(259.276692 322.182437) scale(0.1 -0.1)">
       <defs>
        <path id="DejaVuSans-36" d="M 2113 2584 
Q 1688 2584 1439 2293 
Q 1191 2003 1191 1497 
Q 1191 994 1439 701 
Q 1688 409 2113 409 
Q 2538 409 2786 701 
Q 3034 994 3034 1497 
Q 3034 2003 2786 2293 
Q 2538 2584 2113 2584 
z
M 3366 4563 
L 3366 3988 
Q 3128 4100 2886 4159 
Q 2644 4219 2406 4219 
Q 1781 4219 1451 3797 
Q 1122 3375 1075 2522 
Q 1259 2794 1537 2939 
Q 1816 3084 2150 3084 
Q 2853 3084 3261 2657 
Q 3669 2231 3669 1497 
Q 3669 778 3244 343 
Q 2819 -91 2113 -91 
Q 1303 -91 875 529 
Q 447 1150 447 2328 
Q 447 3434 972 4092 
Q 1497 4750 2381 4750 
Q 2619 4750 2861 4703 
Q 3103 4656 3366 4563 
z
" transform="scale(0.015625)"/>
       </defs>
       <use xlink:href="#DejaVuSans-36"/>
       <use xlink:href="#DejaVuSans-30" transform="translate(63.623047 0)"/>
       <use xlink:href="#DejaVuSans-30" transform="translate(127.246094 0)"/>
      </g>
     </g>
    </g>
    <g id="xtick_5">
     <g id="line2d_5">
      <g>
       <use xlink:href="#m6d3046ce3b" x="333.816347" y="307.584" style="stroke: #000000; stroke-width: 0.8"/>
      </g>
     </g>
     <g id="text_5">
      <!-- 800 -->
      <g transform="translate(324.272597 322.182437) scale(0.1 -0.1)">
       <defs>
        <path id="DejaVuSans-38" d="M 2034 2216 
Q 1584 2216 1326 1975 
Q 1069 1734 1069 1313 
Q 1069 891 1326 650 
Q 1584 409 2034 409 
Q 2484 409 2743 651 
Q 3003 894 3003 1313 
Q 3003 1734 2745 1975 
Q 2488 2216 2034 2216 
z
M 1403 2484 
Q 997 2584 770 2862 
Q 544 3141 544 3541 
Q 544 4100 942 4425 
Q 1341 4750 2034 4750 
Q 2731 4750 3128 4425 
Q 3525 4100 3525 3541 
Q 3525 3141 3298 2862 
Q 3072 2584 2669 2484 
Q 3125 2378 3379 2068 
Q 3634 1759 3634 1313 
Q 3634 634 3220 271 
Q 2806 -91 2034 -91 
Q 1263 -91 848 271 
Q 434 634 434 1313 
Q 434 1759 690 2068 
Q 947 2378 1403 2484 
z
M 1172 3481 
Q 1172 3119 1398 2916 
Q 1625 2713 2034 2713 
Q 2441 2713 2670 2916 
Q 2900 3119 2900 3481 
Q 2900 3844 2670 4047 
Q 2441 4250 2034 4250 
Q 1625 4250 1398 4047 
Q 1172 3844 1172 3481 
z
" transform="scale(0.015625)"/>
       </defs>
       <use xlink:href="#DejaVuSans-38"/>
       <use xlink:href="#DejaVuSans-30" transform="translate(63.623047 0)"/>
       <use xlink:href="#DejaVuSans-30" transform="translate(127.246094 0)"/>
      </g>
     </g>
    </g>
    <g id="xtick_6">
     <g id="line2d_6">
      <g>
       <use xlink:href="#m6d3046ce3b" x="398.812252" y="307.584" style="stroke: #000000; stroke-width: 0.8"/>
      </g>
     </g>
     <g id="text_6">
      <!-- 1000 -->
      <g transform="translate(386.087252 322.182437) scale(0.1 -0.1)">
       <defs>
        <path id="DejaVuSans-31" d="M 794 531 
L 1825 531 
L 1825 4091 
L 703 3866 
L 703 4441 
L 1819 4666 
L 2450 4666 
L 2450 531 
L 3481 531 
L 3481 0 
L 794 0 
L 794 531 
z
" transform="scale(0.015625)"/>
       </defs>
       <use xlink:href="#DejaVuSans-31"/>
       <use xlink:href="#DejaVuSans-30" transform="translate(63.623047 0)"/>
       <use xlink:href="#DejaVuSans-30" transform="translate(127.246094 0)"/>
       <use xlink:href="#DejaVuSans-30" transform="translate(190.869141 0)"/>
      </g>
     </g>
    </g>
    <g id="text_7">
     <!-- Schritt k -->
     <g transform="translate(215.218594 335.860562) scale(0.1 -0.1)">
      <defs>
       <path id="DejaVuSans-53" d="M 3425 4513 
L 3425 3897 
Q 3066 4069 2747 4153 
Q 2428 4238 2131 4238 
Q 1616 4238 1336 4038 
Q 1056 3838 1056 3469 
Q 1056 3159 1242 3001 
Q 1428 2844 1947 2747 
L 2328 2669 
Q 3034 2534 3370 2195 
Q 3706 1856 3706 1288 
Q 3706 609 3251 259 
Q 2797 -91 1919 -91 
Q 1588 -91 1214 -16 
Q 841 59 441 206 
L 441 856 
Q 825 641 1194 531 
Q 1563 422 1919 422 
Q 2459 422 2753 634 
Q 3047 847 3047 1241 
Q 3047 1584 2836 1778 
Q 2625 1972 2144 2069 
L 1759 2144 
Q 1053 2284 737 2584 
Q 422 2884 422 3419 
Q 422 4038 858 4394 
Q 1294 4750 2059 4750 
Q 2388 4750 2728 4690 
Q 3069 4631 3425 4513 
z
" transform="scale(0.015625)"/>
       <path id="DejaVuSans-63" d="M 3122 3366 
L 3122 2828 
Q 2878 2963 2633 3030 
Q 2388 3097 2138 3097 
Q 1578 3097 1268 2742 
Q 959 2388 959 1747 
Q 959 1106 1268 751 
Q 1578 397 2138 397 
Q 2388 397 2633 464 
Q 2878 531 3122 666 
L 3122 134 
Q 2881 22 2623 -34 
Q 2366 -91 2075 -91 
Q 1284 -91 818 406 
Q 353 903 353 1747 
Q 353 2603 823 3093 
Q 1294 3584 2113 3584 
Q 2378 3584 2631 3529 
Q 2884 3475 3122 3366 
z
" transform="scale(0.015625)"/>
       <path id="DejaVuSans-68" d="M 3513 2113 
L 3513 0 
L 2938 0 
L 2938 2094 
Q 2938 2591 2744 2837 
Q 2550 3084 2163 3084 
Q 1697 3084 1428 2787 
Q 1159 2491 1159 1978 
L 1159 0 
L 581 0 
L 581 4863 
L 1159 4863 
L 1159 2956 
Q 1366 3272 1645 3428 
Q 1925 3584 2291 3584 
Q 2894 3584 3203 3211 
Q 3513 2838 3513 2113 
z
" transform="scale(0.015625)"/>
       <path id="DejaVuSans-72" d="M 2631 2963 
Q 2534 3019 2420 3045 
Q 2306 3072 2169 3072 
Q 1681 3072 1420 2755 
Q 1159 2438 1159 1844 
L 1159 0 
L 581 0 
L 581 3500 
L 1159 3500 
L 1159 2956 
Q 1341 3275 1631 3429 
Q 1922 3584 2338 3584 
Q 2397 3584 2469 3576 
Q 2541 3569 2628 3553 
L 2631 2963 
z
" transform="scale(0.015625)"/>
       <path id="DejaVuSans-69" d="M 603 3500 
L 1178 3500 
L 1178 0 
L 603 0 
L 603 3500 
z
M 603 4863 
L 1178 4863 
L 1178 4134 
L 603 4134 
L 603 4863 
z
" transform="scale(0.015625)"/>
       <path id="DejaVuSans-74" d="M 1172 4494 
L 1172 3500 
L 2356 3500 
L 2356 3053 
L 1172 3053 
L 1172 1153 
Q 1172 725 1289 603 
Q 1406 481 1766 481 
L 2356 481 
L 2356 0 
L 1766 0 
Q 1100 0 847 248 
Q 594 497 594 1153 
L 594 3053 
L 172 3053 
L 172 3500 
L 594 3500 
L 594 4494 
L 1172 4494 
z
" transform="scale(0.015625)"/>
       <path id="DejaVuSans-20" transform="scale(0.015625)"/>
       <path id="DejaVuSans-6b" d="M 581 4863 
L 1159 4863 
L 1159 1991 
L 2875 3500 
L 3609 3500 
L 1753 1863 
L 3688 0 
L 2938 0 
L 1159 1709 
L 1159 0 
L 581 0 
L 581 4863 
z
" transform="scale(0.015625)"/>
      </defs>
      <use xlink:href="#DejaVuSans-53"/>
      <use xlink:href="#DejaVuSans-63" transform="translate(63.476562 0)"/>
      <use xlink:href="#DejaVuSans-68" transform="translate(118.457031 0)"/>
      <use xlink:href="#DejaVuSans-72" transform="translate(181.835938 0)"/>
      <use xlink:href="#DejaVuSans-69" transform="translate(222.949219 0)"/>
      <use xlink:href="#DejaVuSans-74" transform="translate(250.732422 0)"/>
      <use xlink:href="#DejaVuSans-74" transform="translate(289.941406 0)"/>
      <use xlink:href="#DejaVuSans-20" transform="translate(329.150391 0)"/>
      <use xlink:href="#DejaVuSans-6b" transform="translate(360.9375 0)"/>
     </g>
    </g>
   </g>
   <g id="matplotlib.axis_2">
    <g id="ytick_1">
     <g id="line2d_7">
      <defs>
       <path id="md895a84a0c" d="M 0 0 
L -3.5 0 
" style="stroke: #000000; stroke-width: 0.8"/>
      </defs>
      <g>
       <use xlink:href="#md895a84a0c" x="57.6" y="272.777319" style="stroke: #000000; stroke-width: 0.8"/>
      </g>
     </g>
     <g id="text_8">
      <!-- −10 -->
      <g transform="translate(29.495313 276.576538) scale(0.1 -0.1)">
       <defs>
        <path id="DejaVuSans-2212" d="M 678 2272 
L 4684 2272 
L 4684 1741 
L 678 1741 
L 678 2272 
z
" transform="scale(0.015625)"/>
       </defs>
       <use xlink:href="#DejaVuSans-2212"/>
       <use xlink:href="#DejaVuSans-31" transform="translate(83.789062 0)"/>
       <use xlink:href="#DejaVuSans-30" transform="translate(147.412109 0)"/>
      </g>
     </g>
    </g>
    <g id="ytick_2">
     <g id="line2d_8">
      <g>
       <use xlink:href="#md895a84a0c" x="57.6" y="236.961999" style="stroke: #000000; stroke-width: 0.8"/>
      </g>
     </g>
     <g id="text_9">
      <!-- 0 -->
      <g transform="translate(44.2375 240.761217) scale(0.1 -0.1)">
       <use xlink:href="#DejaVuSans-30"/>
      </g>
     </g>
    </g>
    <g id="ytick_3">
     <g id="line2d_9">
      <g>
       <use xlink:href="#md895a84a0c" x="57.6" y="201.146679" style="stroke: #000000; stroke-width: 0.8"/>
      </g>
     </g>
     <g id="text_10">
      <!-- 10 -->
      <g transform="translate(37.875 204.945897) scale(0.1 -0.1)">
       <use xlink:href="#DejaVuSans-31"/>
       <use xlink:href="#DejaVuSans-30" transform="translate(63.623047 0)"/>
      </g>
     </g>
    </g>
    <g id="ytick_4">
     <g id="line2d_10">
      <g>
       <use xlink:href="#md895a84a0c" x="57.6" y="165.331358" style="stroke: #000000; stroke-width: 0.8"/>
      </g>
     </g>
     <g id="text_11">
      <!-- 20 -->
      <g transform="translate(37.875 169.130577) scale(0.1 -0.1)">
       <use xlink:href="#DejaVuSans-32"/>
       <use xlink:href="#DejaVuSans-30" transform="translate(63.623047 0)"/>
      </g>
     </g>
    </g>
    <g id="ytick_5">
     <g id="line2d_11">
      <g>
       <use xlink:href="#md895a84a0c" x="57.6" y="129.516038" style="stroke: #000000; stroke-width: 0.8"/>
      </g>
     </g>
     <g id="text_12">
      <!-- 30 -->
      <g transform="translate(37.875 133.315257) scale(0.1 -0.1)">
       <defs>
        <path id="DejaVuSans-33" d="M 2597 2516 
Q 3050 2419 3304 2112 
Q 3559 1806 3559 1356 
Q 3559 666 3084 287 
Q 2609 -91 1734 -91 
Q 1441 -91 1130 -33 
Q 819 25 488 141 
L 488 750 
Q 750 597 1062 519 
Q 1375 441 1716 441 
Q 2309 441 2620 675 
Q 2931 909 2931 1356 
Q 2931 1769 2642 2001 
Q 2353 2234 1838 2234 
L 1294 2234 
L 1294 2753 
L 1863 2753 
Q 2328 2753 2575 2939 
Q 2822 3125 2822 3475 
Q 2822 3834 2567 4026 
Q 2313 4219 1838 4219 
Q 1578 4219 1281 4162 
Q 984 4106 628 3988 
L 628 4550 
Q 988 4650 1302 4700 
Q 1616 4750 1894 4750 
Q 2613 4750 3031 4423 
Q 3450 4097 3450 3541 
Q 3450 3153 3228 2886 
Q 3006 2619 2597 2516 
z
" transform="scale(0.015625)"/>
       </defs>
       <use xlink:href="#DejaVuSans-33"/>
       <use xlink:href="#DejaVuSans-30" transform="translate(63.623047 0)"/>
      </g>
     </g>
    </g>
    <g id="ytick_6">
     <g id="line2d_12">
      <g>
       <use xlink:href="#md895a84a0c" x="57.6" y="93.700718" style="stroke: #000000; stroke-width: 0.8"/>
      </g>
     </g>
     <g id="text_13">
      <!-- 40 -->
      <g transform="translate(37.875 97.499937) scale(0.1 -0.1)">
       <use xlink:href="#DejaVuSans-34"/>
       <use xlink:href="#DejaVuSans-30" transform="translate(63.623047 0)"/>
      </g>
     </g>
    </g>
    <g id="ytick_7">
     <g id="line2d_13">
      <g>
       <use xlink:href="#md895a84a0c" x="57.6" y="57.885398" style="stroke: #000000; stroke-width: 0.8"/>
      </g>
     </g>
     <g id="text_14">
      <!-- 50 -->
      <g transform="translate(37.875 61.684617) scale(0.1 -0.1)">
       <defs>
        <path id="DejaVuSans-35" d="M 691 4666 
L 3169 4666 
L 3169 4134 
L 1269 4134 
L 1269 2991 
Q 1406 3038 1543 3061 
Q 1681 3084 1819 3084 
Q 2600 3084 3056 2656 
Q 3513 2228 3513 1497 
Q 3513 744 3044 326 
Q 2575 -91 1722 -91 
Q 1428 -91 1123 -41 
Q 819 9 494 109 
L 494 744 
Q 775 591 1075 516 
Q 1375 441 1709 441 
Q 2250 441 2565 725 
Q 2881 1009 2881 1497 
Q 2881 1984 2565 2268 
Q 2250 2553 1709 2553 
Q 1456 2553 1204 2497 
Q 953 2441 691 2322 
L 691 4666 
z
" transform="scale(0.015625)"/>
       </defs>
       <use xlink:href="#DejaVuSans-35"/>
       <use xlink:href="#DejaVuSans-30" transform="translate(63.623047 0)"/>
      </g>
     </g>
    </g>
    <g id="text_15">
     <!-- Summe x({i| i&lt;=k}) -->
     <g transform="translate(23.1375 225.827219) rotate(-90) scale(0.1 -0.1)">
      <defs>
       <path id="DejaVuSans-75" d="M 544 1381 
L 544 3500 
L 1119 3500 
L 1119 1403 
Q 1119 906 1312 657 
Q 1506 409 1894 409 
Q 2359 409 2629 706 
Q 2900 1003 2900 1516 
L 2900 3500 
L 3475 3500 
L 3475 0 
L 2900 0 
L 2900 538 
Q 2691 219 2414 64 
Q 2138 -91 1772 -91 
Q 1169 -91 856 284 
Q 544 659 544 1381 
z
M 1991 3584 
L 1991 3584 
z
" transform="scale(0.015625)"/>
       <path id="DejaVuSans-6d" d="M 3328 2828 
Q 3544 3216 3844 3400 
Q 4144 3584 4550 3584 
Q 5097 3584 5394 3201 
Q 5691 2819 5691 2113 
L 5691 0 
L 5113 0 
L 5113 2094 
Q 5113 2597 4934 2840 
Q 4756 3084 4391 3084 
Q 3944 3084 3684 2787 
Q 3425 2491 3425 1978 
L 3425 0 
L 2847 0 
L 2847 2094 
Q 2847 2600 2669 2842 
Q 2491 3084 2119 3084 
Q 1678 3084 1418 2786 
Q 1159 2488 1159 1978 
L 1159 0 
L 581 0 
L 581 3500 
L 1159 3500 
L 1159 2956 
Q 1356 3278 1631 3431 
Q 1906 3584 2284 3584 
Q 2666 3584 2933 3390 
Q 3200 3197 3328 2828 
z
" transform="scale(0.015625)"/>
       <path id="DejaVuSans-65" d="M 3597 1894 
L 3597 1613 
L 953 1613 
Q 991 1019 1311 708 
Q 1631 397 2203 397 
Q 2534 397 2845 478 
Q 3156 559 3463 722 
L 3463 178 
Q 3153 47 2828 -22 
Q 2503 -91 2169 -91 
Q 1331 -91 842 396 
Q 353 884 353 1716 
Q 353 2575 817 3079 
Q 1281 3584 2069 3584 
Q 2775 3584 3186 3129 
Q 3597 2675 3597 1894 
z
M 3022 2063 
Q 3016 2534 2758 2815 
Q 2500 3097 2075 3097 
Q 1594 3097 1305 2825 
Q 1016 2553 972 2059 
L 3022 2063 
z
" transform="scale(0.015625)"/>
       <path id="DejaVuSans-78" d="M 3513 3500 
L 2247 1797 
L 3578 0 
L 2900 0 
L 1881 1375 
L 863 0 
L 184 0 
L 1544 1831 
L 300 3500 
L 978 3500 
L 1906 2253 
L 2834 3500 
L 3513 3500 
z
" transform="scale(0.015625)"/>
       <path id="DejaVuSans-28" d="M 1984 4856 
Q 1566 4138 1362 3434 
Q 1159 2731 1159 2009 
Q 1159 1288 1364 580 
Q 1569 -128 1984 -844 
L 1484 -844 
Q 1016 -109 783 600 
Q 550 1309 550 2009 
Q 550 2706 781 3412 
Q 1013 4119 1484 4856 
L 1984 4856 
z
" transform="scale(0.015625)"/>
       <path id="DejaVuSans-7b" d="M 3272 -594 
L 3272 -1044 
L 3078 -1044 
Q 2300 -1044 2036 -812 
Q 1772 -581 1772 109 
L 1772 856 
Q 1772 1328 1603 1509 
Q 1434 1691 991 1691 
L 800 1691 
L 800 2138 
L 991 2138 
Q 1438 2138 1605 2317 
Q 1772 2497 1772 2963 
L 1772 3713 
Q 1772 4403 2036 4633 
Q 2300 4863 3078 4863 
L 3272 4863 
L 3272 4416 
L 3059 4416 
Q 2619 4416 2484 4278 
Q 2350 4141 2350 3700 
L 2350 2925 
Q 2350 2434 2208 2212 
Q 2066 1991 1722 1913 
Q 2069 1828 2209 1606 
Q 2350 1384 2350 897 
L 2350 122 
Q 2350 -319 2484 -456 
Q 2619 -594 3059 -594 
L 3272 -594 
z
" transform="scale(0.015625)"/>
       <path id="DejaVuSans-7c" d="M 1344 4891 
L 1344 -1509 
L 813 -1509 
L 813 4891 
L 1344 4891 
z
" transform="scale(0.015625)"/>
       <path id="DejaVuSans-3c" d="M 4684 3150 
L 1459 2003 
L 4684 863 
L 4684 294 
L 678 1747 
L 678 2266 
L 4684 3719 
L 4684 3150 
z
" transform="scale(0.015625)"/>
       <path id="DejaVuSans-3d" d="M 678 2906 
L 4684 2906 
L 4684 2381 
L 678 2381 
L 678 2906 
z
M 678 1631 
L 4684 1631 
L 4684 1100 
L 678 1100 
L 678 1631 
z
" transform="scale(0.015625)"/>
       <path id="DejaVuSans-7d" d="M 800 -594 
L 1019 -594 
Q 1456 -594 1589 -459 
Q 1722 -325 1722 122 
L 1722 897 
Q 1722 1384 1862 1606 
Q 2003 1828 2350 1913 
Q 2003 1991 1862 2212 
Q 1722 2434 1722 2925 
L 1722 3700 
Q 1722 4144 1589 4280 
Q 1456 4416 1019 4416 
L 800 4416 
L 800 4863 
L 997 4863 
Q 1775 4863 2036 4633 
Q 2297 4403 2297 3713 
L 2297 2963 
Q 2297 2497 2465 2317 
Q 2634 2138 3078 2138 
L 3272 2138 
L 3272 1691 
L 3078 1691 
Q 2634 1691 2465 1509 
Q 2297 1328 2297 856 
L 2297 109 
Q 2297 -581 2036 -812 
Q 1775 -1044 997 -1044 
L 800 -1044 
L 800 -594 
z
" transform="scale(0.015625)"/>
       <path id="DejaVuSans-29" d="M 513 4856 
L 1013 4856 
Q 1481 4119 1714 3412 
Q 1947 2706 1947 2009 
Q 1947 1309 1714 600 
Q 1481 -109 1013 -844 
L 513 -844 
Q 928 -128 1133 580 
Q 1338 1288 1338 2009 
Q 1338 2731 1133 3434 
Q 928 4138 513 4856 
z
" transform="scale(0.015625)"/>
      </defs>
      <use xlink:href="#DejaVuSans-53"/>
      <use xlink:href="#DejaVuSans-75" transform="translate(63.476562 0)"/>
      <use xlink:href="#DejaVuSans-6d" transform="translate(126.855469 0)"/>
      <use xlink:href="#DejaVuSans-6d" transform="translate(224.267578 0)"/>
      <use xlink:href="#DejaVuSans-65" transform="translate(321.679688 0)"/>
      <use xlink:href="#DejaVuSans-20" transform="translate(383.203125 0)"/>
      <use xlink:href="#DejaVuSans-78" transform="translate(414.990234 0)"/>
      <use xlink:href="#DejaVuSans-28" transform="translate(474.169922 0)"/>
      <use xlink:href="#DejaVuSans-7b" transform="translate(513.183594 0)"/>
      <use xlink:href="#DejaVuSans-69" transform="translate(576.806641 0)"/>
      <use xlink:href="#DejaVuSans-7c" transform="translate(604.589844 0)"/>
      <use xlink:href="#DejaVuSans-20" transform="translate(638.28125 0)"/>
      <use xlink:href="#DejaVuSans-69" transform="translate(670.068359 0)"/>
      <use xlink:href="#DejaVuSans-3c" transform="translate(697.851562 0)"/>
      <use xlink:href="#DejaVuSans-3d" transform="translate(781.640625 0)"/>
      <use xlink:href="#DejaVuSans-6b" transform="translate(865.429688 0)"/>
      <use xlink:href="#DejaVuSans-7d" transform="translate(923.339844 0)"/>
      <use xlink:href="#DejaVuSans-29" transform="translate(986.962891 0)"/>
     </g>
    </g>
   </g>
   <g id="line2d_14">
    <path d="M 73.832727 236.961999 
L 74.157707 241.649996 
L 74.482686 241.973092 
L 74.807666 239.086371 
L 75.132645 241.448552 
L 75.457625 238.378089 
L 75.782604 239.220729 
L 76.107584 246.238189 
L 76.432563 247.665271 
L 76.757543 251.462573 
L 77.082523 253.179991 
L 78.057461 264.957515 
L 78.382441 263.562098 
L 78.70742 267.121848 
L 79.0324 268.468836 
L 79.357379 262.901692 
L 79.682359 264.831249 
L 80.332318 259.940491 
L 80.657297 258.263251 
L 80.982277 258.223706 
L 81.307256 258.723186 
L 81.632236 260.038451 
L 81.957215 260.721577 
L 82.282195 262.636526 
L 82.607174 263.275124 
L 82.932154 264.302415 
L 83.257133 259.9418 
L 83.582113 261.01854 
L 83.907093 258.691818 
L 84.232072 254.643518 
L 84.557052 253.525667 
L 85.207011 255.915357 
L 85.53199 259.827315 
L 85.85697 261.246795 
L 86.506929 248.671119 
L 86.831908 248.531906 
L 87.156888 248.912303 
L 87.481867 253.873037 
L 87.806847 253.01841 
L 88.131826 254.866402 
L 88.456806 250.826232 
L 88.781785 254.123891 
L 89.106765 255.957266 
L 89.431744 257.066098 
L 89.756724 259.211616 
L 90.406683 269.053533 
L 90.731663 274.535789 
L 91.056642 274.777433 
L 91.381622 275.72995 
L 91.706601 285.833871 
L 92.031581 289.103001 
L 92.35656 284.919955 
L 92.68154 288.230938 
L 93.006519 293.879119 
L 93.331499 295.488 
L 93.656478 289.784644 
L 93.981458 287.186803 
L 94.631417 279.008863 
L 94.956396 280.785148 
L 95.606355 275.248893 
L 95.931335 276.354411 
L 96.256314 276.81506 
L 96.581294 275.686517 
L 96.906274 272.683169 
L 97.231253 271.22214 
L 97.556233 272.684321 
L 97.881212 265.513086 
L 98.206192 270.538948 
L 98.531171 270.150262 
L 98.856151 272.447784 
L 99.18113 273.47976 
L 99.50611 267.841817 
L 99.831089 271.744153 
L 100.156069 267.488396 
L 100.481048 270.181231 
L 100.806028 270.599635 
L 101.131007 265.31098 
L 101.455987 269.252691 
L 101.780966 259.712665 
L 102.430925 248.268061 
L 102.755905 249.096153 
L 103.080885 243.769109 
L 103.405864 243.861849 
L 103.730844 248.837645 
L 104.055823 255.523612 
L 104.380803 252.980957 
L 105.030762 254.426416 
L 105.355741 256.991741 
L 105.680721 251.692084 
L 106.0057 242.444493 
L 106.33068 243.075455 
L 106.655659 242.127503 
L 106.980639 245.825877 
L 107.305618 246.790894 
L 107.630598 238.132028 
L 107.955577 233.657491 
L 108.280557 238.951633 
L 108.605536 248.29073 
L 108.930516 247.695491 
L 109.255495 242.741046 
L 109.580475 247.330366 
L 109.905455 236.947018 
L 110.230434 235.078326 
L 110.555414 235.431394 
L 110.880393 235.603266 
L 111.205373 235.131295 
L 111.530352 233.745339 
L 111.855332 239.173988 
L 112.505291 244.664687 
L 112.83027 239.391335 
L 113.15525 241.960104 
L 113.480229 243.181897 
L 114.455168 235.308232 
L 114.780147 234.920081 
L 115.105127 235.820993 
L 115.430106 234.274377 
L 115.755086 229.366974 
L 116.080066 227.804871 
L 116.405045 229.228052 
L 116.730025 228.170376 
L 117.055004 227.744691 
L 117.379984 233.933717 
L 117.704963 236.459924 
L 118.029943 234.371074 
L 118.354922 236.48561 
L 118.679902 234.394203 
L 119.004881 228.389787 
L 119.329861 227.191478 
L 119.97982 219.916455 
L 120.304799 216.222002 
L 120.629779 219.812958 
L 120.954758 225.221831 
L 121.279738 226.779017 
L 121.604717 225.861085 
L 121.929697 227.3253 
L 122.254676 236.706443 
L 122.579656 232.110604 
L 123.879574 250.173856 
L 124.204554 244.543469 
L 124.529533 246.079974 
L 124.854513 248.790575 
L 125.179492 248.048178 
L 125.504472 246.579603 
L 125.829451 242.349065 
L 126.47941 240.125612 
L 126.80439 241.035567 
L 127.454349 236.362203 
L 128.104308 242.083636 
L 128.429287 237.910034 
L 128.754267 236.311001 
L 129.079247 235.667391 
L 129.729206 232.331172 
L 130.054185 228.229126 
L 130.379165 226.516528 
L 130.704144 225.492824 
L 131.029124 227.8087 
L 131.354103 228.861785 
L 131.679083 227.89576 
L 132.004062 223.773769 
L 132.329042 224.378495 
L 132.654021 222.134946 
L 132.979001 217.240757 
L 133.30398 217.442078 
L 133.953939 214.729601 
L 134.278919 211.409662 
L 134.603898 211.061376 
L 134.928878 209.77219 
L 135.253857 212.886299 
L 135.903817 214.940998 
L 136.228796 218.230345 
L 136.553776 211.634659 
L 136.878755 213.679124 
L 137.203735 212.332115 
L 137.528714 207.187329 
L 137.853694 204.304012 
L 138.178673 206.027802 
L 138.503653 215.900354 
L 138.828632 216.355275 
L 139.153612 219.442524 
L 139.478591 219.090521 
L 139.803571 217.720994 
L 140.12855 218.439364 
L 140.45353 219.712163 
L 140.778509 219.246661 
L 141.428468 214.907843 
L 141.753448 215.4802 
L 142.078428 216.582936 
L 142.403407 213.878476 
L 142.728387 213.72766 
L 143.053366 216.21377 
L 143.378346 214.384348 
L 143.703325 215.396785 
L 144.028305 208.723022 
L 144.353284 209.610115 
L 144.678264 214.169311 
L 145.003243 210.882605 
L 145.328223 209.986379 
L 145.653202 213.256347 
L 145.978182 207.255273 
L 146.303161 204.953909 
L 146.628141 198.516811 
L 146.95312 197.979387 
L 147.603079 207.252601 
L 147.928059 202.796861 
L 148.253038 209.669406 
L 148.578018 209.351029 
L 148.902998 206.296255 
L 149.227977 207.97302 
L 149.552957 202.908134 
L 149.877936 206.29291 
L 150.202916 207.852561 
L 150.527895 207.426901 
L 150.852875 212.201197 
L 151.177854 215.03265 
L 151.502834 211.088155 
L 151.827813 211.521151 
L 152.152793 214.547894 
L 152.477772 219.665031 
L 152.802752 228.29265 
L 153.77769 234.864801 
L 154.10267 234.063288 
L 154.427649 240.769697 
L 154.752629 237.575955 
L 155.077609 236.591997 
L 155.402588 237.358717 
L 155.727568 240.587913 
L 156.052547 237.966108 
L 156.377527 234.121215 
L 156.702506 237.74089 
L 157.027486 236.187696 
L 157.352465 236.832728 
L 157.677445 236.466566 
L 158.327404 231.913161 
L 158.652383 228.708786 
L 158.977363 224.109755 
L 159.302342 224.572309 
L 159.952301 218.215365 
L 160.277281 212.178635 
L 160.60226 216.292715 
L 160.92724 215.765197 
L 161.252219 214.002407 
L 161.577199 215.023624 
L 161.902179 210.613886 
L 162.227158 203.808728 
L 162.552138 205.712864 
L 163.202097 199.978533 
L 163.852056 207.185801 
L 164.177035 212.772752 
L 164.502015 207.474793 
L 164.826994 207.303128 
L 165.151974 212.434814 
L 165.801933 198.123979 
L 166.776871 210.343337 
L 167.101851 208.50333 
L 167.42683 207.712396 
L 167.75181 208.53403 
L 168.07679 211.438704 
L 168.401769 213.067845 
L 169.051728 209.948682 
L 169.376708 211.231738 
L 169.701687 213.628663 
L 170.026667 208.436804 
L 170.351646 206.721206 
L 170.676626 213.993509 
L 171.001605 209.625792 
L 171.326585 208.4449 
L 171.651564 206.147058 
L 171.976544 206.157158 
L 172.301523 210.658888 
L 172.626503 209.38799 
L 172.951482 203.483968 
L 173.276462 204.024619 
L 173.601441 209.815142 
L 174.2514 193.585833 
L 174.57638 189.38365 
L 174.90136 190.928053 
L 175.226339 190.295756 
L 175.551319 193.367805 
L 176.201278 188.103157 
L 176.526257 187.775344 
L 176.851237 187.207648 
L 177.176216 195.400021 
L 177.501196 195.626178 
L 177.826175 193.832978 
L 178.151155 187.260867 
L 178.476134 196.80696 
L 178.801114 192.574011 
L 179.126093 194.095055 
L 179.776052 195.603158 
L 180.101032 195.106089 
L 180.426011 198.47815 
L 180.750991 196.829546 
L 181.075971 187.358869 
L 181.40095 186.596559 
L 181.72593 193.075417 
L 182.050909 195.417702 
L 182.375889 195.301582 
L 182.700868 198.597159 
L 183.025848 191.13301 
L 183.675807 197.108851 
L 184.000786 197.364857 
L 184.325766 200.325461 
L 184.650745 199.028632 
L 185.300704 188.724964 
L 185.950663 197.686665 
L 186.600622 189.80481 
L 186.925602 187.164641 
L 187.250581 182.810089 
L 187.575561 185.033135 
L 187.900541 188.29904 
L 188.22552 187.65242 
L 188.5505 188.268704 
L 188.875479 186.261738 
L 189.200459 188.881659 
L 189.525438 189.478817 
L 189.850418 192.845833 
L 190.175397 191.520944 
L 190.825356 199.95983 
L 191.150336 198.732626 
L 191.800295 190.694789 
L 192.450254 188.43314 
L 192.775233 196.220856 
L 193.100213 193.321385 
L 193.425192 196.822587 
L 193.750172 195.483455 
L 194.075152 197.422619 
L 194.400131 195.734193 
L 194.725111 200.883179 
L 195.05009 197.089263 
L 195.37507 191.331836 
L 195.700049 188.440238 
L 196.025029 191.158828 
L 196.350008 188.398319 
L 196.674988 186.936644 
L 196.999967 180.536573 
L 197.324947 180.935625 
L 197.649926 180.117756 
L 198.299885 193.544231 
L 198.624865 201.744654 
L 198.949844 204.755312 
L 199.599803 193.436048 
L 199.924783 198.584211 
L 200.249762 200.94915 
L 201.224701 184.430521 
L 201.549681 191.963768 
L 201.87466 196.383229 
L 202.19964 191.897625 
L 202.524619 193.460334 
L 202.849599 193.020361 
L 203.174578 195.216667 
L 203.499558 195.581449 
L 203.824537 193.432594 
L 204.149517 193.034037 
L 204.474496 190.096796 
L 204.799476 183.257186 
L 205.124455 187.11918 
L 205.774414 182.077974 
L 206.099394 183.300324 
L 206.749353 176.361083 
L 207.074333 176.63576 
L 207.399312 181.033731 
L 207.724292 176.80075 
L 208.049271 176.70862 
L 208.374251 172.279877 
L 208.69923 175.281634 
L 209.02421 174.035181 
L 209.349189 173.329279 
L 210.324128 183.884281 
L 210.649107 181.56189 
L 210.974087 191.621829 
L 211.299066 189.544436 
L 211.624046 186.026877 
L 211.949025 185.835787 
L 212.274005 181.19196 
L 212.598984 171.719109 
L 212.923964 178.539536 
L 213.248943 179.154258 
L 213.573923 175.268682 
L 214.223882 176.140307 
L 214.548862 177.683794 
L 214.873841 175.106828 
L 215.198821 178.774827 
L 215.5238 184.685681 
L 215.84878 182.1146 
L 216.173759 176.207995 
L 216.498739 174.788485 
L 216.823718 174.734069 
L 217.148698 171.943553 
L 217.473677 174.763709 
L 217.798657 172.170635 
L 218.123636 170.549207 
L 218.448616 171.563136 
L 218.773595 169.723705 
L 219.098575 172.943898 
L 219.423554 174.482332 
L 219.748534 174.637968 
L 220.073514 173.683934 
L 220.398493 175.325236 
L 220.723473 172.133795 
L 221.048452 170.924883 
L 221.373432 172.35877 
L 221.698411 170.412093 
L 222.023391 170.020046 
L 222.34837 169.032142 
L 222.67335 166.454035 
L 222.998329 165.615167 
L 223.648288 161.699844 
L 223.973268 161.280234 
L 224.298247 164.404662 
L 224.623227 164.110274 
L 224.948206 157.38654 
L 225.273186 157.832924 
L 225.598165 155.021857 
L 225.923145 154.985449 
L 226.248124 150.943753 
L 226.573104 151.665414 
L 226.898084 149.479264 
L 227.223063 154.546713 
L 227.873022 159.641367 
L 228.198002 159.021711 
L 228.847961 156.958054 
L 229.17294 150.263581 
L 229.49792 155.993367 
L 229.822899 153.066169 
L 230.147879 156.58401 
L 230.472858 163.223637 
L 230.797838 159.843164 
L 231.122817 159.24378 
L 231.447797 160.215813 
L 231.772776 157.030067 
L 232.097756 158.514056 
L 232.422735 143.685367 
L 232.747715 147.290986 
L 233.072695 142.914749 
L 233.397674 142.412737 
L 233.722654 143.711771 
L 234.047633 148.12722 
L 234.372613 140.758345 
L 234.697592 143.267958 
L 235.022572 140.183742 
L 235.347551 132.904531 
L 235.672531 136.679276 
L 235.99751 134.876449 
L 236.32249 136.492693 
L 236.647469 135.6038 
L 236.972449 136.994584 
L 237.297428 139.379895 
L 237.622408 138.552826 
L 237.947387 138.896161 
L 238.272367 142.796731 
L 238.597346 139.131143 
L 238.922326 140.492392 
L 239.247305 132.53359 
L 239.572285 131.608787 
L 239.897265 131.130284 
L 240.222244 138.521966 
L 240.547224 142.802146 
L 240.872203 136.271442 
L 241.197183 135.614485 
L 241.522162 139.231653 
L 241.847142 138.89027 
L 242.172121 143.678519 
L 242.497101 143.856893 
L 242.82208 148.678701 
L 243.14706 147.972051 
L 243.472039 149.099257 
L 243.797019 147.903202 
L 244.121998 151.835439 
L 244.446978 148.619448 
L 244.771957 152.387944 
L 245.096937 158.564408 
L 245.421916 160.247814 
L 245.746896 159.665461 
L 246.071876 158.626421 
L 246.396855 160.290675 
L 246.721835 157.5122 
L 247.046814 159.55373 
L 247.371794 155.288803 
L 247.696773 154.228397 
L 248.021753 158.968963 
L 248.346732 161.012045 
L 248.671712 153.820111 
L 248.996691 152.600573 
L 249.321671 156.685034 
L 249.64665 156.171669 
L 249.97163 153.547681 
L 250.296609 148.428815 
L 250.621589 148.442687 
L 250.946568 153.716616 
L 251.271548 154.953367 
L 251.596527 148.368874 
L 251.921507 144.661743 
L 252.246486 144.650796 
L 252.571466 139.975801 
L 252.896446 138.94836 
L 253.221425 142.541654 
L 253.546405 140.18625 
L 253.871384 141.896553 
L 254.521343 140.32836 
L 254.846323 140.319906 
L 255.496282 155.557739 
L 255.821261 149.590707 
L 256.146241 151.894955 
L 256.47122 157.733635 
L 256.7962 155.723652 
L 257.121179 155.200621 
L 257.446159 158.449563 
L 258.096118 157.548077 
L 258.421097 157.216845 
L 258.746077 164.092323 
L 259.071057 162.601888 
L 259.396036 162.39177 
L 259.721016 159.331448 
L 260.045995 160.350727 
L 260.695954 155.193591 
L 261.345913 158.185251 
L 261.670893 156.087203 
L 261.995872 148.213891 
L 262.320852 147.700794 
L 262.645831 144.439742 
L 262.970811 143.541579 
L 263.29579 139.583203 
L 263.62077 143.117165 
L 263.945749 144.206892 
L 264.270729 141.755572 
L 264.595708 142.614728 
L 264.920688 144.255124 
L 265.245667 144.691391 
L 265.570647 143.816951 
L 265.895627 141.462803 
L 266.220606 141.490389 
L 266.545586 145.720716 
L 266.870565 146.626255 
L 267.195545 151.054848 
L 267.845504 140.566039 
L 268.170483 137.318863 
L 268.495463 130.990229 
L 268.820442 133.065672 
L 269.470401 125.863666 
L 270.12036 116.49534 
L 270.44534 117.189672 
L 270.770319 108.462363 
L 271.095299 110.904556 
L 271.745258 106.568796 
L 272.395217 115.040181 
L 273.045176 108.79679 
L 273.370156 102.956609 
L 274.020115 96.750919 
L 274.345094 98.661445 
L 274.670074 98.461485 
L 274.995053 96.964036 
L 275.320033 92.075345 
L 275.969992 88.755473 
L 276.294971 85.579463 
L 276.619951 85.09661 
L 276.94493 80.86422 
L 277.26991 78.320435 
L 277.594889 71.094697 
L 277.919869 68.453673 
L 278.244848 70.156336 
L 278.569828 73.36136 
L 279.219787 66.841765 
L 279.544767 66.987613 
L 279.869746 58.816015 
L 280.519705 59.027801 
L 280.844685 53.568 
L 281.169664 58.991744 
L 281.494644 68.315446 
L 281.819623 63.506179 
L 282.144603 65.405666 
L 282.469582 70.901841 
L 282.794562 64.798407 
L 283.119541 61.314444 
L 283.444521 62.4546 
L 283.7695 64.243848 
L 284.09448 60.144105 
L 284.419459 63.028379 
L 284.744439 61.215825 
L 285.394398 54.7449 
L 286.044357 65.367555 
L 286.369337 65.870664 
L 286.694316 71.771217 
L 287.019296 71.729366 
L 287.344275 65.722158 
L 287.669255 63.648639 
L 287.994234 64.713826 
L 288.319214 66.186122 
L 288.644193 71.091485 
L 288.969173 68.78721 
L 289.294152 71.12136 
L 289.619132 74.619426 
L 289.944111 73.339551 
L 290.269091 67.584698 
L 290.59407 66.035369 
L 290.91905 73.041819 
L 291.244029 66.881165 
L 291.569009 67.874921 
L 291.893989 64.457267 
L 292.218968 63.960562 
L 292.543948 63.072122 
L 292.868927 64.116956 
L 293.193907 63.842553 
L 293.518886 68.831178 
L 293.843866 68.088468 
L 294.168845 75.954089 
L 294.493825 76.76423 
L 294.818804 74.93217 
L 295.143784 76.042765 
L 295.468763 79.370474 
L 296.118722 89.497078 
L 296.443702 93.290432 
L 296.768681 92.133652 
L 297.093661 83.641869 
L 297.41864 83.861356 
L 297.74362 90.003043 
L 298.0686 92.257408 
L 298.393579 89.995555 
L 298.718559 89.801028 
L 299.043538 88.031346 
L 299.368518 87.554287 
L 299.693497 85.00113 
L 300.018477 83.937819 
L 300.343456 77.993002 
L 300.668436 74.119957 
L 300.993415 78.528058 
L 301.643374 74.111326 
L 302.293333 76.854181 
L 302.618313 75.948769 
L 302.943292 78.436215 
L 303.268272 82.961962 
L 303.593251 79.783793 
L 304.24321 91.810407 
L 304.56819 90.123251 
L 304.89317 83.584348 
L 305.868108 77.954967 
L 306.193088 80.779015 
L 306.518067 85.063604 
L 306.843047 79.289735 
L 307.168026 70.763955 
L 307.493006 70.532768 
L 307.817985 66.116103 
L 308.142965 64.352547 
L 308.467944 66.093261 
L 308.792924 64.596161 
L 309.117903 63.951881 
L 309.442883 59.422881 
L 310.092842 64.860107 
L 310.417821 61.852381 
L 310.742801 69.834709 
L 311.067781 63.842683 
L 311.71774 62.24222 
L 312.367699 69.987831 
L 312.692678 66.871537 
L 313.017658 69.606896 
L 313.667617 65.492367 
L 313.992596 63.422811 
L 314.317576 64.473616 
L 314.642555 63.554035 
L 314.967535 63.694553 
L 315.292514 64.410075 
L 315.617494 67.089582 
L 315.942473 72.108026 
L 316.267453 64.380058 
L 316.592432 70.756751 
L 316.917412 66.384376 
L 317.242391 68.608813 
L 317.567371 64.594986 
L 317.892351 62.7963 
L 318.21733 65.132267 
L 318.54231 68.399755 
L 318.867289 69.217774 
L 319.192269 65.016722 
L 319.517248 64.479657 
L 319.842228 73.255416 
L 320.167207 75.392226 
L 320.492187 80.700741 
L 321.142146 81.753902 
L 321.467125 83.061897 
L 321.792105 83.343854 
L 322.117084 81.159483 
L 322.442064 81.515172 
L 323.092023 75.319051 
L 323.417002 75.72905 
L 323.741982 79.643513 
L 324.066962 85.183404 
L 324.391941 85.615602 
L 324.716921 84.663801 
L 325.0419 81.127796 
L 325.36688 79.871575 
L 325.691859 84.303188 
L 326.016839 84.790276 
L 326.341818 83.167019 
L 326.991777 92.767225 
L 327.316757 92.796086 
L 327.641736 93.54363 
L 327.966716 98.644844 
L 328.616675 100.359393 
L 328.941654 97.430865 
L 329.266634 95.75028 
L 329.591613 92.831165 
L 329.916593 95.238289 
L 330.241572 99.29025 
L 330.566552 99.349348 
L 330.891532 92.152814 
L 331.216511 91.524036 
L 331.541491 91.425203 
L 331.86647 90.962767 
L 332.19145 87.437435 
L 332.516429 88.739043 
L 332.841409 95.193019 
L 333.166388 97.49468 
L 333.491368 95.285533 
L 333.816347 97.61247 
L 334.141327 100.870509 
L 334.466306 102.770585 
L 334.791286 100.326922 
L 335.116265 104.031857 
L 335.766224 101.94781 
L 336.091204 98.162689 
L 336.416183 105.773903 
L 336.741163 109.464836 
L 337.066143 106.61401 
L 337.391122 102.608212 
L 337.716102 102.050159 
L 338.041081 100.263222 
L 338.366061 100.812812 
L 338.69104 97.728429 
L 339.01602 92.860958 
L 339.340999 95.661761 
L 339.665979 95.638028 
L 339.990958 98.432823 
L 340.315938 106.738568 
L 340.640917 105.466465 
L 340.965897 105.766016 
L 341.290876 105.862177 
L 341.615856 108.470155 
L 341.940835 103.118793 
L 342.265815 105.834716 
L 342.915774 102.129446 
L 343.240753 107.663992 
L 343.565733 110.505855 
L 343.890713 104.43592 
L 344.215692 108.028387 
L 344.540672 109.185875 
L 345.51561 93.039928 
L 345.84059 97.042716 
L 346.165569 98.699374 
L 346.490549 92.352253 
L 346.815528 93.296769 
L 347.140508 94.965075 
L 347.465487 89.840489 
L 347.790467 94.006722 
L 348.115446 88.975364 
L 348.765405 96.547261 
L 349.090385 103.672417 
L 349.415364 105.090796 
L 349.740344 101.352262 
L 350.065324 101.770704 
L 350.390303 104.038596 
L 351.040262 118.555433 
L 351.365242 117.00896 
L 351.690221 118.184167 
L 352.015201 115.004411 
L 352.34018 110.668295 
L 352.66516 110.475393 
L 352.990139 107.90477 
L 353.315119 107.150329 
L 353.640098 108.856903 
L 353.965078 111.659539 
L 354.290057 112.966312 
L 354.615037 110.039483 
L 354.940016 112.067534 
L 355.264996 115.439381 
L 355.589975 111.879762 
L 355.914955 98.211184 
L 356.239934 92.475702 
L 356.564914 90.656909 
L 356.889894 86.661405 
L 357.214873 87.25223 
L 357.539853 78.771046 
L 357.864832 75.774664 
L 358.189812 76.329684 
L 358.514791 79.113923 
L 358.839771 77.869015 
L 359.16475 81.17409 
L 359.48973 72.628494 
L 359.814709 71.984165 
L 360.464668 80.486024 
L 360.789648 79.47422 
L 361.114627 86.85418 
L 361.439607 91.215822 
L 361.764586 86.270903 
L 362.414545 95.289371 
L 362.739525 92.121984 
L 363.064505 94.037846 
L 363.389484 90.507232 
L 363.714464 90.747472 
L 364.039443 90.592784 
L 365.014382 101.945201 
L 365.339361 100.814057 
L 365.664341 105.402408 
L 366.3143 98.200221 
L 366.639279 97.093809 
L 366.964259 94.805085 
L 367.289238 94.638674 
L 367.614218 89.911494 
L 367.939197 90.811451 
L 368.264177 90.229378 
L 368.589156 88.779661 
L 368.914136 84.413132 
L 369.239115 86.85801 
L 369.564095 86.068058 
L 369.889075 87.783573 
L 370.214054 86.640364 
L 370.539034 89.937795 
L 371.188993 87.050484 
L 371.513972 82.713939 
L 371.838952 89.106883 
L 372.488911 91.456634 
L 372.81389 89.871362 
L 373.13887 83.409446 
L 373.463849 85.602586 
L 373.788829 88.889542 
L 374.113808 87.772328 
L 374.438788 91.93026 
L 375.088747 85.510914 
L 375.738706 90.341239 
L 376.063686 90.523249 
L 376.388665 93.30791 
L 376.713645 94.47655 
L 377.038624 93.509534 
L 377.688583 96.617108 
L 378.013563 101.626119 
L 378.338542 101.842167 
L 378.663522 106.482782 
L 378.988501 105.035509 
L 379.313481 105.884846 
L 379.63846 103.097075 
L 379.96344 102.388416 
L 380.288419 105.30223 
L 380.613399 104.886334 
L 380.938378 105.932596 
L 381.263358 102.733685 
L 382.238296 83.751107 
L 382.888256 78.34236 
L 383.538215 84.916145 
L 383.863194 77.551353 
L 384.188174 77.828991 
L 384.513153 78.309641 
L 385.163112 89.222142 
L 385.488092 93.561686 
L 385.813071 90.7952 
L 386.138051 92.642633 
L 386.46303 88.449915 
L 386.78801 90.514131 
L 387.112989 98.309744 
L 387.762948 101.630375 
L 388.087928 105.041222 
L 388.412907 104.722093 
L 388.737887 104.783613 
L 389.062867 109.319984 
L 389.387846 110.379024 
L 389.712826 107.684911 
L 390.037805 109.051635 
L 390.362785 106.260054 
L 390.687764 104.737075 
L 391.987682 115.564623 
L 392.312662 111.729265 
L 392.637641 114.374096 
L 393.61258 108.430064 
L 393.937559 111.526151 
L 394.262539 111.78281 
L 394.587518 107.691197 
L 394.912498 112.977093 
L 395.237477 114.58436 
L 395.562457 114.853198 
L 395.887437 115.908681 
L 396.212416 120.668724 
L 396.537396 117.17542 
L 396.862375 116.957596 
L 397.512334 113.841606 
L 397.837314 113.893056 
L 398.162293 115.546019 
L 398.487273 125.329802 
L 398.487273 125.329802 
" clip-path="url(#pe18e332246)" style="fill: none; stroke: #1f77b4; stroke-width: 1.5; stroke-linecap: square"/>
   </g>
   <g id="patch_3">
    <path d="M 57.6 307.584 
L 57.6 41.472 
" style="fill: none; stroke: #000000; stroke-width: 0.8; stroke-linejoin: miter; stroke-linecap: square"/>
   </g>
   <g id="patch_4">
    <path d="M 414.72 307.584 
L 414.72 41.472 
" style="fill: none; stroke: #000000; stroke-width: 0.8; stroke-linejoin: miter; stroke-linecap: square"/>
   </g>
   <g id="patch_5">
    <path d="M 57.6 307.584 
L 414.72 307.584 
" style="fill: none; stroke: #000000; stroke-width: 0.8; stroke-linejoin: miter; stroke-linecap: square"/>
   </g>
   <g id="patch_6">
    <path d="M 57.6 41.472 
L 414.72 41.472 
" style="fill: none; stroke: #000000; stroke-width: 0.8; stroke-linejoin: miter; stroke-linecap: square"/>
   </g>
  </g>
 </g>
 <defs>
  <clipPath id="pe18e332246">
   <rect x="57.6" y="41.472" width="357.12" height="266.112"/>
  </clipPath>
 </defs>
</svg>
