<?xml version="1.0" encoding="utf-8" standalone="no"?>
<!DOCTYPE svg PUBLIC "-//W3C//DTD SVG 1.1//EN"
  "http://www.w3.org/Graphics/SVG/1.1/DTD/svg11.dtd">
<svg xmlns:xlink="http://www.w3.org/1999/xlink" width="460.8pt" height="345.6pt" viewBox="0 0 460.8 345.6" xmlns="http://www.w3.org/2000/svg" version="1.1">
 <metadata>
  <rdf:RDF xmlns:dc="http://purl.org/dc/elements/1.1/" xmlns:cc="http://creativecommons.org/ns#" xmlns:rdf="http://www.w3.org/1999/02/22-rdf-syntax-ns#">
   <cc:Work>
    <dc:type rdf:resource="http://purl.org/dc/dcmitype/StillImage"/>
    <dc:date>2026-01-29T08:00:27.673871</dc:date>
    <dc:format>image/svg+xml</dc:format>
    <dc:creator>
     <cc:Agent>
      <dc:title>Matplotlib v3.10.8, https://matplotlib.org/</dc:title>
     </cc:Agent>
    </dc:creator>
   </cc:Work>
  </rdf:RDF>
 </metadata>
 <defs>
  <style type="text/css">*{stroke-linejoin: round; stroke-linecap: butt}</style>
 </defs>
 <g id="figure_1">
  <g id="patch_1">
   <path d="M 0 345.6 
L 460.8 345.6 
L 460.8 0 
L 0 0 
z
" style="fill: #ffffff"/>
  </g>
  <g id="axes_1">
   <g id="patch_2">
    <path d="M 82.964 266.245 
L 410.94 266.245 
L 410.94 25.92 
L 82.964 25.92 
z
" style="fill: #ffffff"/>
   </g>
   <g id="matplotlib.axis_1">
    <g id="xtick_1">
     <g id="line2d_1">
      <path d="M 82.964 266.245 
L 82.964 25.92 
" clip-path="url(#p009e356767)" style="fill: none; stroke: #b0b0b0; stroke-width: 0.8; stroke-linecap: square"/>
     </g>
     <g id="line2d_2">
      <defs>
       <path id="m421eaa7399" d="M 0 0 
L 0 3.5 
" style="stroke: #000000; stroke-width: 0.8"/>
      </defs>
      <g>
       <use xlink:href="#m421eaa7399" x="82.964" y="266.245" style="stroke: #000000; stroke-width: 0.8"/>
      </g>
     </g>
     <g id="text_1">
      <!-- 0 -->
      <g transform="translate(76.964 289.63625) scale(0.24 -0.24)">
       <defs>
        <path id="TeXGyreTermes-Regular-30" d="M 3046 2112 
C 3046 3424 2464 4326 1626 4326 
C 1274 4326 1005 4218 768 3994 
C 397 3635 154 2899 154 2150 
C 154 1453 365 704 666 346 
C 902 64 1229 -90 1600 -90 
C 1926 -90 2202 19 2432 243 
C 2803 595 3046 1338 3046 2112 
z
M 2432 2099 
C 2432 762 2150 77 1600 77 
C 1050 77 768 762 768 2093 
C 768 3450 1056 4160 1606 4160 
C 2144 4160 2432 3437 2432 2099 
z
" transform="scale(0.015625)"/>
       </defs>
       <use xlink:href="#TeXGyreTermes-Regular-30"/>
      </g>
     </g>
    </g>
    <g id="xtick_2">
     <g id="line2d_3">
      <path d="M 164.958 266.245 
L 164.958 25.92 
" clip-path="url(#p009e356767)" style="fill: none; stroke: #b0b0b0; stroke-width: 0.8; stroke-linecap: square"/>
     </g>
     <g id="line2d_4">
      <g>
       <use xlink:href="#m421eaa7399" x="164.958" y="266.245" style="stroke: #000000; stroke-width: 0.8"/>
      </g>
     </g>
     <g id="text_2">
      <!-- 250 -->
      <g transform="translate(146.958 289.63625) scale(0.24 -0.24)">
       <defs>
        <path id="TeXGyreTermes-Regular-32" d="M 3040 877 
L 2957 909 
C 2720 544 2637 486 2349 486 
L 819 486 
L 1894 1613 
C 2464 2208 2714 2694 2714 3194 
C 2714 3834 2195 4326 1530 4326 
C 1178 4326 845 4186 608 3930 
C 403 3712 307 3507 198 3053 
L 333 3021 
C 589 3648 819 3853 1261 3853 
C 1798 3853 2163 3488 2163 2950 
C 2163 2451 1869 1856 1331 1286 
L 192 77 
L 192 0 
L 2688 0 
L 3040 877 
z
" transform="scale(0.015625)"/>
        <path id="TeXGyreTermes-Regular-35" d="M 2803 4358 
L 2746 4403 
C 2650 4269 2586 4237 2451 4237 
L 1114 4237 
L 416 2720 
C 410 2707 410 2688 410 2688 
C 410 2656 435 2637 486 2637 
C 691 2637 947 2592 1210 2509 
C 1946 2272 2285 1875 2285 1242 
C 2285 627 1894 147 1395 147 
C 1267 147 1158 192 966 333 
C 762 480 614 544 480 544 
C 294 544 205 467 205 307 
C 205 64 506 -90 986 -90 
C 1523 -90 1984 83 2304 410 
C 2598 698 2733 1062 2733 1549 
C 2733 2010 2611 2304 2291 2624 
C 2010 2906 1645 3053 890 3187 
L 1158 3731 
L 2413 3731 
C 2515 3731 2541 3744 2560 3789 
L 2803 4358 
z
" transform="scale(0.015625)"/>
       </defs>
       <use xlink:href="#TeXGyreTermes-Regular-32"/>
       <use xlink:href="#TeXGyreTermes-Regular-35" transform="translate(49.999985 0)"/>
       <use xlink:href="#TeXGyreTermes-Regular-30" transform="translate(99.999969 0)"/>
      </g>
     </g>
    </g>
    <g id="xtick_3">
     <g id="line2d_5">
      <path d="M 246.952 266.245 
L 246.952 25.92 
" clip-path="url(#p009e356767)" style="fill: none; stroke: #b0b0b0; stroke-width: 0.8; stroke-linecap: square"/>
     </g>
     <g id="line2d_6">
      <g>
       <use xlink:href="#m421eaa7399" x="246.952" y="266.245" style="stroke: #000000; stroke-width: 0.8"/>
      </g>
     </g>
     <g id="text_3">
      <!-- 500 -->
      <g transform="translate(228.952 289.63625) scale(0.24 -0.24)">
       <use xlink:href="#TeXGyreTermes-Regular-35"/>
       <use xlink:href="#TeXGyreTermes-Regular-30" transform="translate(49.999985 0)"/>
       <use xlink:href="#TeXGyreTermes-Regular-30" transform="translate(99.999969 0)"/>
      </g>
     </g>
    </g>
    <g id="xtick_4">
     <g id="line2d_7">
      <path d="M 328.946 266.245 
L 328.946 25.92 
" clip-path="url(#p009e356767)" style="fill: none; stroke: #b0b0b0; stroke-width: 0.8; stroke-linecap: square"/>
     </g>
     <g id="line2d_8">
      <g>
       <use xlink:href="#m421eaa7399" x="328.946" y="266.245" style="stroke: #000000; stroke-width: 0.8"/>
      </g>
     </g>
     <g id="text_4">
      <!-- 750 -->
      <g transform="translate(310.946 289.63625) scale(0.24 -0.24)">
       <defs>
        <path id="TeXGyreTermes-Regular-37" d="M 2874 4134 
L 2874 4237 
L 506 4237 
L 128 3296 
L 237 3245 
C 512 3680 627 3763 979 3763 
L 2368 3763 
L 1101 -51 
L 1517 -51 
L 2874 4134 
z
" transform="scale(0.015625)"/>
       </defs>
       <use xlink:href="#TeXGyreTermes-Regular-37"/>
       <use xlink:href="#TeXGyreTermes-Regular-35" transform="translate(49.999985 0)"/>
       <use xlink:href="#TeXGyreTermes-Regular-30" transform="translate(99.999969 0)"/>
      </g>
     </g>
    </g>
    <g id="xtick_5">
     <g id="line2d_9">
      <path d="M 410.94 266.245 
L 410.94 25.92 
" clip-path="url(#p009e356767)" style="fill: none; stroke: #b0b0b0; stroke-width: 0.8; stroke-linecap: square"/>
     </g>
     <g id="line2d_10">
      <g>
       <use xlink:href="#m421eaa7399" x="410.94" y="266.245" style="stroke: #000000; stroke-width: 0.8"/>
      </g>
     </g>
     <g id="text_5">
      <!-- 1000 -->
      <g transform="translate(386.94 289.63625) scale(0.24 -0.24)">
       <defs>
        <path id="TeXGyreTermes-Regular-31" d="M 2522 0 
L 2522 96 
C 2016 102 1914 166 1914 474 
L 1914 4314 
L 1862 4326 
L 710 3744 
L 710 3654 
C 787 3686 858 3712 883 3725 
C 998 3770 1107 3795 1171 3795 
C 1306 3795 1363 3699 1363 3494 
L 1363 595 
C 1363 384 1312 237 1210 179 
C 1114 122 1024 102 755 96 
L 755 0 
L 2522 0 
z
" transform="scale(0.015625)"/>
       </defs>
       <use xlink:href="#TeXGyreTermes-Regular-31"/>
       <use xlink:href="#TeXGyreTermes-Regular-30" transform="translate(49.999985 0)"/>
       <use xlink:href="#TeXGyreTermes-Regular-30" transform="translate(99.999969 0)"/>
       <use xlink:href="#TeXGyreTermes-Regular-30" transform="translate(149.999954 0)"/>
      </g>
     </g>
    </g>
    <g id="text_6">
     <!-- Schritt k -->
     <g transform="translate(205.9495 315.23625) scale(0.24 -0.24)">
      <defs>
       <path id="TeXGyreTermes-Regular-53" d="M 3142 1075 
C 3142 1606 2790 2016 1946 2477 
C 1274 2842 1005 3123 1005 3475 
C 1005 3827 1274 4064 1670 4064 
C 1958 4064 2227 3942 2451 3712 
C 2650 3507 2739 3341 2842 2963 
L 3002 2963 
L 2861 4326 
L 2726 4326 
C 2701 4186 2630 4109 2522 4109 
C 2458 4109 2355 4134 2240 4186 
C 2003 4275 1773 4326 1549 4326 
C 1299 4326 1030 4224 826 4058 
C 576 3853 454 3578 454 3226 
C 454 2720 736 2362 1453 1984 
C 1914 1734 2246 1478 2406 1235 
C 2464 1146 2496 1018 2496 858 
C 2496 435 2176 141 1709 141 
C 1133 141 736 493 416 1274 
L 269 1274 
L 461 -83 
L 602 -83 
C 608 38 685 128 781 128 
C 851 128 960 102 1082 58 
C 1325 -38 1581 -90 1837 -90 
C 2579 -90 3142 416 3142 1075 
z
" transform="scale(0.015625)"/>
       <path id="TeXGyreTermes-Regular-63" d="M 2637 941 
L 2547 998 
C 2240 550 2010 397 1645 397 
C 1056 397 653 909 653 1645 
C 653 2310 1005 2758 1523 2758 
C 1754 2758 1837 2688 1901 2451 
L 1939 2310 
C 1990 2125 2106 2016 2246 2016 
C 2413 2016 2547 2138 2547 2285 
C 2547 2643 2099 2944 1562 2944 
C 1261 2944 954 2829 698 2618 
C 352 2330 160 1888 160 1357 
C 160 531 666 -64 1376 -64 
C 1651 -64 1894 26 2112 205 
C 2304 358 2432 544 2637 941 
z
" transform="scale(0.015625)"/>
       <path id="TeXGyreTermes-Regular-68" d="M 3117 0 
L 3117 96 
C 2771 160 2733 211 2733 653 
L 2733 1926 
C 2733 2598 2464 2944 1946 2944 
C 1568 2944 1299 2790 1005 2406 
L 1005 4352 
L 973 4371 
C 755 4294 595 4243 237 4141 
L 64 4090 
L 64 3987 
C 90 3994 109 3994 141 3994 
C 416 3994 467 3942 467 3667 
L 467 653 
C 467 205 429 147 58 96 
L 58 0 
L 1440 0 
L 1440 96 
C 1069 134 1005 211 1005 653 
L 1005 2195 
C 1274 2490 1466 2598 1715 2598 
C 2035 2598 2195 2368 2195 1920 
L 2195 653 
C 2195 218 2131 134 1760 96 
L 1760 0 
L 3117 0 
z
" transform="scale(0.015625)"/>
       <path id="TeXGyreTermes-Regular-72" d="M 2144 2605 
C 2144 2816 2010 2944 1792 2944 
C 1523 2944 1338 2797 1024 2342 
L 1024 2931 
L 992 2944 
C 653 2803 422 2720 45 2598 
L 45 2496 
C 134 2515 192 2522 269 2522 
C 429 2522 486 2419 486 2138 
L 486 538 
C 486 218 442 173 32 96 
L 32 0 
L 1568 0 
L 1568 96 
C 1133 115 1024 211 1024 576 
L 1024 2016 
C 1024 2221 1299 2541 1472 2541 
C 1510 2541 1568 2509 1638 2445 
C 1741 2355 1811 2317 1894 2317 
C 2048 2317 2144 2426 2144 2605 
z
" transform="scale(0.015625)"/>
       <path id="TeXGyreTermes-Regular-69" d="M 1619 0 
L 1619 96 
C 1197 128 1146 192 1146 653 
L 1146 2925 
L 1120 2944 
L 128 2592 
L 128 2496 
L 179 2502 
C 256 2515 339 2522 397 2522 
C 550 2522 608 2419 608 2138 
L 608 653 
C 608 192 544 122 102 96 
L 102 0 
L 1619 0 
z
M 1203 3776 
C 1203 3955 1062 4102 877 4102 
C 698 4102 550 3955 550 3776 
C 550 3590 698 3450 877 3450 
C 1062 3450 1203 3590 1203 3776 
z
" transform="scale(0.015625)"/>
       <path id="TeXGyreTermes-Regular-74" d="M 1786 422 
L 1702 493 
C 1562 326 1459 269 1318 269 
C 1082 269 986 435 986 845 
L 986 2675 
L 1632 2675 
L 1632 2880 
L 986 2880 
L 986 3622 
C 986 3686 973 3706 941 3706 
C 902 3642 858 3584 813 3526 
C 576 3174 358 2938 192 2842 
C 122 2797 83 2758 83 2720 
C 83 2701 90 2688 109 2675 
L 448 2675 
L 448 749 
C 448 211 640 -64 1011 -64 
C 1331 -64 1574 90 1786 422 
z
" transform="scale(0.015625)"/>
       <path id="TeXGyreTermes-Regular-20" transform="scale(0.015625)"/>
       <path id="TeXGyreTermes-Regular-6b" d="M 3232 0 
L 3232 96 
C 2950 115 2752 237 2483 563 
L 1504 1805 
L 1690 1978 
C 2144 2400 2541 2694 2726 2746 
C 2822 2771 2912 2784 3021 2784 
L 3072 2784 
L 3072 2880 
L 1766 2880 
L 1766 2790 
C 2016 2784 2086 2758 2086 2669 
C 2086 2618 2029 2528 1939 2451 
L 1062 1670 
L 1062 4358 
L 1037 4371 
L 237 4141 
L 45 4090 
L 45 3987 
C 128 3994 186 4000 250 4000 
C 461 4000 525 3917 525 3610 
L 525 525 
C 525 192 506 173 45 96 
L 45 0 
L 1542 0 
L 1542 96 
L 1414 102 
C 1158 115 1062 205 1062 429 
L 1062 1606 
L 1958 410 
L 1978 384 
C 1990 365 2003 346 2022 326 
C 2074 262 2093 224 2093 192 
C 2093 134 2035 96 1958 96 
L 1837 96 
L 1837 0 
L 3232 0 
z
" transform="scale(0.015625)"/>
      </defs>
      <use xlink:href="#TeXGyreTermes-Regular-53"/>
      <use xlink:href="#TeXGyreTermes-Regular-63" transform="translate(55.599991 0)"/>
      <use xlink:href="#TeXGyreTermes-Regular-68" transform="translate(99.999985 0)"/>
      <use xlink:href="#TeXGyreTermes-Regular-72" transform="translate(149.999969 0)"/>
      <use xlink:href="#TeXGyreTermes-Regular-69" transform="translate(183.299957 0)"/>
      <use xlink:href="#TeXGyreTermes-Regular-74" transform="translate(211.099945 0)"/>
      <use xlink:href="#TeXGyreTermes-Regular-74" transform="translate(238.899933 0)"/>
      <use xlink:href="#TeXGyreTermes-Regular-20" transform="translate(266.699921 0)"/>
      <use xlink:href="#TeXGyreTermes-Regular-6b" transform="translate(291.699905 0)"/>
     </g>
    </g>
   </g>
   <g id="matplotlib.axis_2">
    <g id="ytick_1">
     <g id="line2d_11">
      <path d="M 82.964 206.039043 
L 410.94 206.039043 
" clip-path="url(#p009e356767)" style="fill: none; stroke: #b0b0b0; stroke-width: 0.8; stroke-linecap: square"/>
     </g>
     <g id="line2d_12">
      <defs>
       <path id="mcf0e58255c" d="M 0 0 
L -3.5 0 
" style="stroke: #000000; stroke-width: 0.8"/>
      </defs>
      <g>
       <use xlink:href="#mcf0e58255c" x="82.964" y="206.039043" style="stroke: #000000; stroke-width: 0.8"/>
      </g>
     </g>
     <g id="text_7">
      <!-- 0 -->
      <g transform="translate(63.964 214.234668) scale(0.24 -0.24)">
       <use xlink:href="#TeXGyreTermes-Regular-30"/>
      </g>
     </g>
    </g>
    <g id="ytick_2">
     <g id="line2d_13">
      <path d="M 82.964 111.978839 
L 410.94 111.978839 
" clip-path="url(#p009e356767)" style="fill: none; stroke: #b0b0b0; stroke-width: 0.8; stroke-linecap: square"/>
     </g>
     <g id="line2d_14">
      <g>
       <use xlink:href="#mcf0e58255c" x="82.964" y="111.978839" style="stroke: #000000; stroke-width: 0.8"/>
      </g>
     </g>
     <g id="text_8">
      <!-- 50 -->
      <g transform="translate(51.964 120.174464) scale(0.24 -0.24)">
       <use xlink:href="#TeXGyreTermes-Regular-35"/>
       <use xlink:href="#TeXGyreTermes-Regular-30" transform="translate(49.999985 0)"/>
      </g>
     </g>
    </g>
    <g id="text_9">
     <!-- $x_{k+1} = x_k + \omega_k$ -->
     <g transform="translate(42.75525 231.0425) rotate(-90) scale(0.24 -0.24)">
      <defs>
       <path id="DejaVuSans-Oblique-78" d="M 3841 3500 
L 2234 1784 
L 3219 0 
L 2559 0 
L 1819 1388 
L 531 0 
L -166 0 
L 1556 1844 
L 641 3500 
L 1300 3500 
L 1972 2234 
L 3144 3500 
L 3841 3500 
z
" transform="scale(0.015625)"/>
       <path id="DejaVuSans-Oblique-6b" d="M 1172 4863 
L 1747 4863 
L 1197 2028 
L 3169 3500 
L 3916 3500 
L 1716 1825 
L 3322 0 
L 2625 0 
L 1131 1709 
L 800 0 
L 225 0 
L 1172 4863 
z
" transform="scale(0.015625)"/>
       <path id="DejaVuSans-2b" d="M 2944 4013 
L 2944 2272 
L 4684 2272 
L 4684 1741 
L 2944 1741 
L 2944 0 
L 2419 0 
L 2419 1741 
L 678 1741 
L 678 2272 
L 2419 2272 
L 2419 4013 
L 2944 4013 
z
" transform="scale(0.015625)"/>
       <path id="DejaVuSans-31" d="M 794 531 
L 1825 531 
L 1825 4091 
L 703 3866 
L 703 4441 
L 1819 4666 
L 2450 4666 
L 2450 531 
L 3481 531 
L 3481 0 
L 794 0 
L 794 531 
z
" transform="scale(0.015625)"/>
       <path id="DejaVuSans-3d" d="M 678 2906 
L 4684 2906 
L 4684 2381 
L 678 2381 
L 678 2906 
z
M 678 1631 
L 4684 1631 
L 4684 1100 
L 678 1100 
L 678 1631 
z
" transform="scale(0.015625)"/>
       <path id="DejaVuSans-Oblique-3c9" d="M 1369 -91 
Q 72 -91 434 1766 
Q 575 2500 1256 3500 
L 1875 3500 
Q 1231 2500 1088 1750 
Q 819 397 1519 397 
Q 2166 397 2478 2078 
L 3009 2078 
Q 2669 388 3316 397 
Q 4013 403 4275 1750 
Q 4419 2500 4169 3500 
L 4788 3500 
Q 5075 2500 4934 1766 
Q 4578 -94 3278 -91 
Q 2428 -88 2503 844 
Q 2194 -91 1369 -91 
z
" transform="scale(0.015625)"/>
      </defs>
      <use xlink:href="#DejaVuSans-Oblique-78" transform="translate(0 0.296875)"/>
      <use xlink:href="#DejaVuSans-Oblique-6b" transform="translate(59.179688 -16.109375) scale(0.7)"/>
      <use xlink:href="#DejaVuSans-2b" transform="translate(113.354492 -16.109375) scale(0.7)"/>
      <use xlink:href="#DejaVuSans-31" transform="translate(185.644531 -16.109375) scale(0.7)"/>
      <use xlink:href="#DejaVuSans-3d" transform="translate(252.397461 0.296875)"/>
      <use xlink:href="#DejaVuSans-Oblique-78" transform="translate(355.668945 0.296875)"/>
      <use xlink:href="#DejaVuSans-Oblique-6b" transform="translate(414.848633 -16.109375) scale(0.7)"/>
      <use xlink:href="#DejaVuSans-2b" transform="translate(477.602539 0.296875)"/>
      <use xlink:href="#DejaVuSans-Oblique-3c9" transform="translate(580.874023 0.296875)"/>
      <use xlink:href="#DejaVuSans-Oblique-6b" transform="translate(664.614258 -16.109375) scale(0.7)"/>
     </g>
    </g>
   </g>
   <g id="line2d_15">
    <path d="M 82.964 206.039043 
L 83.291976 208.501419 
L 83.619952 208.671126 
L 83.947928 207.197299 
L 84.275904 208.08549 
L 84.60388 206.565883 
L 84.931856 206.637628 
L 85.259832 210.19219 
L 85.587808 211.787424 
L 87.227688 225.958994 
L 87.555664 226.59273 
L 87.88364 229.22246 
L 88.211616 230.952438 
L 88.539592 228.864983 
L 88.867568 229.686447 
L 89.851496 225.648003 
L 90.179472 225.114604 
L 90.507448 224.990978 
L 91.1634 225.861046 
L 91.491376 226.982099 
L 92.147328 228.508284 
L 92.475304 226.569998 
L 92.80328 226.809897 
L 93.131256 225.537992 
L 93.459232 223.042182 
L 93.787208 221.65208 
L 94.115184 221.66182 
L 94.44316 221.953025 
L 94.771136 223.911643 
L 95.099112 225.122449 
L 95.427088 222.526585 
L 95.755064 218.602281 
L 96.08304 217.444577 
L 96.411016 216.890613 
L 96.738992 218.93701 
L 97.066968 218.736925 
L 97.394944 219.775591 
L 97.72292 217.98548 
L 98.378872 220.63985 
L 98.706848 221.600771 
L 99.034824 223.09292 
L 99.690776 229.800404 
L 100.018752 234.02665 
L 100.674704 237.436538 
L 101.00268 243.697192 
L 101.330656 247.389434 
L 101.658632 246.858741 
L 101.986608 249.215859 
L 102.314584 253.159406 
L 102.64256 255.321136 
L 103.626488 249.695459 
L 103.954464 246.712707 
L 104.28244 246.536401 
L 104.938392 242.342056 
L 105.594344 241.934757 
L 105.92232 241.087684 
L 106.578272 237.852373 
L 106.906248 238.056208 
L 107.234224 234.079394 
L 107.5622 235.599622 
L 107.890176 235.363509 
L 108.546128 237.167603 
L 108.874104 234.532713 
L 109.20208 236.04175 
L 109.530056 234.016843 
L 109.858032 234.949615 
L 110.186008 235.1962 
L 110.513984 232.51342 
L 110.84196 233.91111 
L 111.825888 220.25433 
L 112.153864 218.95151 
L 112.48184 214.989042 
L 112.809816 213.517861 
L 113.137792 215.152437 
L 113.465768 218.66929 
L 113.793744 218.136777 
L 114.449696 219.494165 
L 114.777672 221.181778 
L 115.105648 218.901695 
L 115.433624 213.695625 
L 116.089576 211.316969 
L 116.417552 212.460877 
L 116.745528 212.876602 
L 117.40148 205.017509 
L 117.729456 206.594357 
L 118.057432 211.346562 
L 118.385408 212.016028 
L 118.713384 209.984599 
L 119.04136 212.269223 
L 119.369336 207.411349 
L 119.697312 205.343608 
L 120.353264 204.137329 
L 120.68124 203.407499 
L 121.009216 202.335077 
L 121.665168 206.800378 
L 121.993144 208.783561 
L 122.32112 206.791671 
L 122.977072 208.979633 
L 123.305048 207.762832 
L 123.961 204.467964 
L 124.288976 203.695126 
L 124.616952 203.691886 
L 124.944928 202.657314 
L 125.272904 199.723334 
L 125.60088 198.043117 
L 125.928856 198.03883 
L 126.584808 196.47078 
L 127.24076 201.358824 
L 127.568736 200.954443 
L 127.896712 202.282885 
L 128.224688 201.695674 
L 128.552664 198.570784 
L 128.88064 197.162542 
L 129.864568 188.613261 
L 130.192544 189.278752 
L 130.52052 191.748026 
L 130.848496 192.979607 
L 131.176472 192.958203 
L 131.504448 193.997452 
L 131.832424 199.342906 
L 132.1604 198.407863 
L 132.816352 204.382848 
L 133.472304 211.797636 
L 133.80028 210.336544 
L 134.128256 211.439787 
L 134.456232 213.337926 
L 134.784208 213.570959 
L 135.112184 213.041197 
L 135.44016 210.853792 
L 136.096112 208.658343 
L 136.424088 208.629077 
L 137.08004 205.405341 
L 137.408016 206.305369 
L 137.735992 207.810707 
L 138.063968 205.931367 
L 138.391944 204.753336 
L 138.71992 204.060746 
L 139.375872 201.47703 
L 140.031824 196.98858 
L 140.3598 195.629056 
L 141.015752 196.491815 
L 141.343728 195.978729 
L 141.671704 193.695255 
L 141.99968 193.432398 
L 142.327656 191.959414 
L 142.655632 188.851679 
L 142.983608 187.942168 
L 143.63956 185.250711 
L 143.967536 182.884312 
L 144.623488 180.603288 
L 144.951464 181.647616 
L 145.27944 182.127928 
L 145.607416 182.834891 
L 145.935392 184.7936 
L 146.263368 181.950694 
L 146.591344 182.554176 
L 146.91932 181.864702 
L 147.575272 176.586807 
L 147.903248 176.610854 
L 148.231224 181.394988 
L 148.5592 182.593149 
L 148.887176 184.874692 
L 149.215152 185.635051 
L 149.543128 185.565087 
L 149.871104 186.166024 
L 150.19908 187.105602 
L 150.527056 187.17709 
L 151.183008 184.815057 
L 151.510984 184.751874 
L 151.83896 185.143403 
L 152.166936 183.70617 
L 152.494912 183.257196 
L 152.822888 184.335081 
L 153.150864 183.537677 
L 153.47884 183.892571 
L 153.806816 180.443203 
L 154.134792 180.076996 
L 154.462768 182.046217 
L 154.790744 180.60255 
L 155.11872 179.805789 
L 155.446696 181.282733 
L 155.774672 178.420289 
L 156.102648 176.536496 
L 156.430624 172.466914 
L 156.7586 170.88962 
L 157.086576 172.152048 
L 157.414552 174.648253 
L 157.742528 172.811009 
L 158.070504 176.205266 
L 158.39848 176.898337 
L 158.726456 175.778669 
L 159.054432 176.560998 
L 159.382408 174.156792 
L 160.03836 176.270013 
L 160.366336 176.282833 
L 161.022288 181.080027 
L 161.350264 179.840202 
L 161.67824 180.10746 
L 162.006216 181.866247 
L 162.334192 185.034673 
L 162.662168 190.491334 
L 163.646096 198.542498 
L 163.974072 199.35861 
L 164.302048 203.572777 
L 164.630024 203.258246 
L 164.958 203.197416 
L 165.285976 203.816588 
L 165.613952 205.803059 
L 165.941928 204.965466 
L 166.269904 202.954338 
L 166.59788 204.406185 
L 166.925856 203.793668 
L 167.253832 203.973977 
L 167.581808 203.773088 
L 168.23776 201.047181 
L 168.565736 198.859642 
L 168.893712 195.679316 
L 169.221688 194.792861 
L 169.87764 189.804782 
L 170.205616 185.601121 
L 170.533592 186.305722 
L 170.861568 185.579719 
L 171.189544 184.212908 
L 171.51752 184.220022 
L 171.845496 181.764231 
L 172.173472 177.474488 
L 172.501448 177.120972 
L 173.1574 172.598249 
L 173.485376 173.39914 
L 173.813352 175.24653 
L 174.141328 178.506642 
L 174.469304 176.664981 
L 174.79728 176.551175 
L 175.125256 179.293236 
L 175.781208 171.804752 
L 176.109184 172.790236 
L 176.765136 177.136241 
L 177.093112 176.789426 
L 177.421088 176.640017 
L 177.749064 177.199243 
L 178.405016 180.22067 
L 179.060968 179.214577 
L 179.388944 179.847306 
L 179.71692 181.238121 
L 180.044896 178.871216 
L 180.372872 177.523406 
L 180.700848 180.884191 
L 181.028824 179.226733 
L 181.3568 178.344479 
L 181.684776 176.894702 
L 182.012752 176.490567 
L 182.340728 178.507592 
L 182.668704 178.193964 
L 182.99668 175.126949 
L 183.324656 174.709882 
L 183.652632 177.418246 
L 184.63656 164.767132 
L 184.964536 164.078895 
L 185.292512 162.808992 
L 185.620488 163.655723 
L 185.948464 162.359244 
L 186.27644 160.467061 
L 186.932392 158.992152 
L 187.260368 162.894288 
L 187.588344 163.809206 
L 187.91632 163.394349 
L 188.244296 160.111228 
L 188.572272 164.462397 
L 188.900248 163.030746 
L 189.884176 164.895437 
L 190.212152 164.838741 
L 190.540128 166.713783 
L 190.868104 166.368739 
L 191.19608 161.506892 
L 191.524056 159.959088 
L 191.852032 162.570994 
L 192.180008 164.030297 
L 192.507984 164.311557 
L 192.83596 166.334332 
L 193.163936 163.123848 
L 193.491912 163.966366 
L 193.819888 165.75077 
L 194.147864 166.310802 
L 194.47584 168.098528 
L 194.803816 168.046063 
L 195.131792 165.983672 
L 195.459768 162.484553 
L 195.787744 163.51801 
L 196.11572 166.003476 
L 197.099648 160.086002 
L 197.427624 157.109679 
L 197.7556 157.16628 
L 198.083576 158.431216 
L 198.411552 158.178114 
L 198.739528 158.448323 
L 199.067504 157.509289 
L 199.39548 158.709697 
L 199.723456 159.240684 
L 200.051432 161.213304 
L 200.379408 161.090681 
L 201.03536 166.547747 
L 201.363336 166.910048 
L 202.347264 161.729082 
L 202.67524 160.64797 
L 203.003216 164.16783 
L 203.331192 163.278212 
L 203.659168 165.118176 
L 203.987144 164.94323 
L 204.31512 166.174225 
L 204.643096 165.645901 
L 204.971072 168.393348 
L 205.299048 167.098663 
L 205.955 161.747853 
L 206.282976 162.350713 
L 206.938928 159.237464 
L 207.266904 155.315067 
L 207.922856 153.161259 
L 208.250832 155.553509 
L 209.23476 168.797253 
L 209.562736 167.208122 
L 209.890712 164.94232 
L 210.546664 168.99481 
L 210.87464 166.526069 
L 211.530592 159.224838 
L 212.186544 164.359511 
L 212.51452 162.534297 
L 212.842496 163.161837 
L 213.170472 163.15054 
L 213.498448 164.350491 
L 213.826424 164.806717 
L 214.1544 163.927556 
L 214.482376 163.606392 
L 214.810352 161.970956 
L 215.138328 157.908548 
L 215.466304 158.717523 
L 216.122256 155.141424 
L 216.450232 155.056112 
L 217.106184 150.373015 
L 217.43416 149.653237 
L 217.762136 151.43599 
L 218.090112 149.376236 
L 218.418088 148.85595 
L 218.746064 146.277007 
L 219.07404 147.114555 
L 219.729992 145.67047 
L 220.057968 147.363123 
L 220.71392 151.964909 
L 221.041896 151.591619 
L 221.369872 157.184353 
L 221.697848 157.667361 
L 222.025824 156.527923 
L 222.3538 156.479793 
L 222.681776 154.158451 
L 223.009752 148.553823 
L 223.337728 150.472006 
L 223.665704 150.620243 
L 223.99368 148.402449 
L 224.321656 147.96959 
L 224.649632 147.977992 
L 224.977608 148.634518 
L 225.305584 147.338827 
L 225.63356 148.98726 
L 225.961536 152.4188 
L 226.289512 152.034588 
L 226.617488 149.199224 
L 226.945464 147.958403 
L 227.27344 147.461807 
L 227.601416 145.586104 
L 227.929392 146.377453 
L 228.585344 143.711443 
L 228.91332 143.771174 
L 229.241296 142.654986 
L 229.897248 144.935005 
L 230.225224 145.325411 
L 230.5532 145.043053 
L 230.881176 145.973694 
L 231.209152 144.56191 
L 231.537128 143.660466 
L 231.865104 144.09618 
L 232.19308 143.055886 
L 232.521056 142.52836 
L 232.849032 141.76999 
L 233.177008 140.136278 
L 233.83296 137.808382 
L 234.160936 136.084714 
L 234.488912 135.19233 
L 234.816888 136.338329 
L 235.144864 136.241904 
L 235.47284 132.679978 
L 235.800816 132.044041 
L 236.128792 130.112423 
L 236.456768 129.352358 
L 236.784744 126.689648 
L 237.11272 126.202223 
L 237.440696 124.56827 
L 238.096648 128.089766 
L 238.424624 129.960911 
L 238.7526 130.292504 
L 239.080576 130.240983 
L 239.408552 129.801204 
L 239.736528 126.258634 
L 240.064504 128.350989 
L 240.39248 126.97846 
L 240.720456 128.468967 
L 241.048432 132.181625 
L 241.376408 131.477534 
L 241.704384 131.364654 
L 242.03236 132.040063 
L 242.360336 130.626098 
L 242.688312 131.082748 
L 243.016288 123.308257 
L 243.344264 123.249368 
L 243.67224 120.178974 
L 244.000216 118.734175 
L 244.328192 118.471921 
L 244.656168 120.420001 
L 244.984144 116.817473 
L 245.31212 117.348987 
L 245.640096 115.620816 
L 245.968072 111.291418 
L 246.296048 111.923363 
L 246.624024 110.654005 
L 246.952 110.943106 
L 247.279976 110.301271 
L 247.607952 110.852768 
L 247.935928 112.151443 
L 248.263904 112.069164 
L 248.59188 112.356711 
L 248.919856 114.56142 
L 249.247832 113.258527 
L 249.575808 113.867125 
L 249.903784 109.848139 
L 250.559736 107.427067 
L 251.215688 113.480786 
L 251.543664 110.93984 
L 251.87164 110.360499 
L 252.199616 112.151996 
L 252.527592 112.330728 
L 252.855568 114.931181 
L 253.183544 115.767932 
L 253.51152 118.830704 
L 253.839496 119.452605 
L 254.167472 120.630813 
L 254.495448 120.554394 
L 254.823424 122.860321 
L 255.1514 121.828251 
L 255.479376 123.80594 
L 255.807352 127.571033 
L 256.135328 129.612182 
L 256.463304 130.238917 
L 256.79128 130.321461 
L 257.119256 131.528189 
L 257.447232 130.489229 
L 257.775208 131.443014 
L 258.103184 129.412996 
L 258.43116 128.426481 
L 259.087112 131.914649 
L 259.415088 128.55601 
L 259.743064 127.285003 
L 260.07104 128.953195 
L 260.399016 128.85123 
L 260.726992 127.408094 
L 261.054968 124.392502 
L 261.382944 123.567741 
L 261.71092 125.766221 
L 262.038896 126.668951 
L 262.694848 120.91412 
L 263.022824 120.099376 
L 263.3508 117.05899 
L 263.678776 115.422564 
L 264.006752 116.474636 
L 264.334728 115.150156 
L 264.662704 115.612203 
L 265.646632 114.483926 
L 266.302584 123.35769 
L 266.63056 121.765867 
L 266.958536 123.241189 
L 267.286512 126.942141 
L 267.942464 127.158765 
L 268.27044 129.161852 
L 268.598416 129.529967 
L 269.254368 129.635371 
L 269.582344 133.352155 
L 270.238296 133.801682 
L 270.566272 132.483979 
L 270.894248 132.865333 
L 271.222224 131.7017 
L 271.5502 129.833535 
L 271.878176 129.984849 
L 272.206152 130.613478 
L 272.534128 129.536904 
L 272.862104 125.129264 
L 273.19008 123.696988 
L 273.518056 121.177591 
L 273.846032 119.660185 
L 274.174008 116.721454 
L 274.501984 117.509102 
L 274.82996 117.825182 
L 275.157936 116.472722 
L 275.485912 116.548098 
L 275.813888 117.348668 
L 276.141864 117.722948 
L 276.46984 117.385544 
L 276.797816 116.146377 
L 277.125792 115.870011 
L 277.453768 117.902353 
L 277.781744 118.779712 
L 278.10972 121.454004 
L 278.765672 116.656508 
L 279.093648 114.252614 
L 279.421624 110.058756 
L 279.7496 109.647892 
L 280.405552 104.18178 
L 281.061504 96.746628 
L 281.38948 95.55956 
L 281.717456 90.006967 
L 282.045432 89.445516 
L 282.701384 85.386845 
L 283.02936 86.495308 
L 283.357336 88.85706 
L 283.685312 87.76098 
L 284.013288 86.017313 
L 284.66924 79.823132 
L 284.997216 77.180568 
L 285.325192 77.011367 
L 285.653168 76.336263 
L 285.981144 75.116849 
L 286.30912 72.072306 
L 287.621024 64.856647 
L 288.276976 59.554274 
L 288.604952 54.729784 
L 288.932928 51.706971 
L 289.260904 51.153288 
L 289.58888 52.061644 
L 290.244832 47.848033 
L 290.572808 47.249406 
L 290.900784 42.534061 
L 291.22876 41.18583 
L 291.556736 40.33189 
L 291.884712 36.843864 
L 292.212688 38.489611 
L 292.540664 43.373941 
L 292.86864 42.000382 
L 293.196616 43.071466 
L 293.524592 46.426327 
L 294.180544 42.220091 
L 294.50852 42.328356 
L 294.836496 43.111331 
L 295.164472 40.970684 
L 295.492448 41.952814 
L 295.820424 41.092504 
L 296.476376 36.893846 
L 297.132328 41.957682 
L 297.460304 42.920172 
L 297.78828 46.556629 
L 298.116256 47.77034 
L 298.444232 45.413134 
L 298.772208 44.083556 
L 299.100184 44.292761 
L 299.42816 44.910462 
L 299.756136 47.499712 
L 300.084112 46.956063 
L 300.412088 48.330554 
L 300.740064 50.625397 
L 301.06804 50.723329 
L 301.396016 47.994937 
L 301.723992 46.68541 
L 302.051968 49.874025 
L 302.379944 47.166993 
L 302.70792 47.136943 
L 303.035896 45.205661 
L 303.691848 43.486167 
L 304.019824 43.619392 
L 304.3478 43.305015 
L 304.675776 45.778396 
L 305.003752 45.948923 
L 305.331728 50.342677 
L 305.659704 52.006074 
L 305.98768 51.973864 
L 306.315656 52.951791 
L 306.643632 55.197299 
L 307.62756 65.804262 
L 307.955536 66.656441 
L 308.283512 63.057032 
L 308.611488 62.667969 
L 308.939464 65.632672 
L 309.26744 67.356678 
L 309.595416 66.720973 
L 309.923392 66.769001 
L 310.251368 65.99763 
L 310.579344 65.588768 
L 311.235296 63.030484 
L 311.891248 56.334334 
L 312.219224 57.420346 
L 312.875176 54.247732 
L 313.203152 54.300535 
L 313.531128 54.901912 
L 313.859104 54.435091 
L 314.18708 55.624207 
L 314.515056 58.289749 
L 314.843032 57.395357 
L 315.171008 60.459919 
L 315.498984 64.658897 
L 315.82696 65.16107 
L 316.154936 62.379666 
L 317.138864 58.033495 
L 317.46684 58.846938 
L 317.794816 61.033786 
L 318.122792 58.489532 
L 318.450768 53.573784 
L 318.778744 52.135068 
L 319.434696 46.712756 
L 319.762672 46.50757 
L 320.418624 44.314046 
L 320.7466 41.491175 
L 321.074576 42.193094 
L 321.402552 43.290491 
L 321.730528 41.861931 
L 322.058504 45.732652 
L 322.38648 43.50549 
L 323.042432 42.226923 
L 323.698384 46.442317 
L 324.02636 45.472349 
L 324.354336 46.955304 
L 325.010288 45.231001 
L 325.338264 43.884541 
L 325.66624 44.025721 
L 325.994216 43.37137 
L 326.322192 43.186925 
L 326.650168 43.412394 
L 326.978144 44.828407 
L 327.30612 47.804803 
L 327.634096 44.627924 
L 327.962072 47.548023 
L 328.290048 45.89963 
L 328.618024 46.86785 
L 329.273976 43.557876 
L 329.601952 44.257779 
L 329.929928 45.952463 
L 330.257904 46.724247 
L 330.58588 44.857753 
L 330.913856 44.300383 
L 331.241832 48.701458 
L 331.569808 50.798779 
L 331.897784 54.423356 
L 332.881712 58.755735 
L 333.209688 59.608896 
L 333.537664 58.940767 
L 333.86564 59.168171 
L 334.521592 55.581701 
L 334.849568 55.165111 
L 335.177544 56.858697 
L 335.50552 59.987074 
L 335.833496 61.064069 
L 336.161472 61.203623 
L 336.489448 59.716947 
L 336.817424 58.875047 
L 337.1454 60.901031 
L 337.473376 61.508387 
L 337.801352 60.895607 
L 338.129328 63.191033 
L 338.457304 66.54681 
L 339.113256 68.679833 
L 339.441232 71.99692 
L 340.097184 74.797787 
L 340.753136 73.178946 
L 341.081112 71.501457 
L 341.409088 72.276583 
L 341.737064 74.367422 
L 342.06504 74.873258 
L 342.393016 71.395065 
L 342.720992 70.386158 
L 343.376944 69.222551 
L 343.70492 66.975884 
L 344.032896 66.971334 
L 344.360872 70.09485 
L 344.688848 71.937338 
L 345.016824 71.445715 
L 345.3448 72.888415 
L 346.000752 76.869163 
L 346.328728 76.29059 
L 346.656704 78.431747 
L 346.98468 78.546601 
L 347.312656 78.260594 
L 347.640632 76.307063 
L 348.296584 82.512997 
L 348.62456 81.891777 
L 348.952536 80.001351 
L 349.280512 79.455773 
L 349.608488 78.268716 
L 349.936464 78.082737 
L 350.26444 76.203968 
L 350.592416 73.074765 
L 350.920392 73.532654 
L 351.248368 73.23156 
L 351.576344 74.425418 
L 351.90432 78.965647 
L 352.888248 80.920532 
L 353.216224 82.714441 
L 353.5442 80.472295 
L 353.872176 81.568331 
L 354.200152 80.818313 
L 354.528128 79.666437 
L 355.18408 84.206813 
L 355.512056 81.668039 
L 355.840032 83.204037 
L 356.168008 84.163158 
L 356.82396 78.247433 
L 357.151936 74.445116 
L 357.479912 75.190066 
L 357.807888 75.615306 
L 358.135864 72.13468 
L 358.46384 71.69828 
L 358.791816 72.190414 
L 359.119792 69.406482 
L 359.447768 70.790226 
L 359.775744 68.242947 
L 360.431696 71.708596 
L 360.759672 75.982013 
L 361.087648 77.962453 
L 361.415624 77.056905 
L 361.7436 77.540248 
L 362.071576 79.036378 
L 362.727528 88.324038 
L 363.055504 89.25507 
L 363.38348 90.862429 
L 363.711456 90.11508 
L 364.039432 88.038207 
L 364.367408 87.47051 
L 364.695384 85.803219 
L 365.02336 84.795225 
L 365.351336 85.174167 
L 366.007288 87.478016 
L 366.335264 86.287014 
L 366.66324 87.231616 
L 366.991216 89.22993 
L 367.319192 87.918732 
L 367.647168 80.605716 
L 367.975144 75.786766 
L 368.959072 67.812161 
L 369.287048 62.31742 
L 369.615024 58.92679 
L 369.943 57.638255 
L 370.270976 58.106712 
L 370.598952 57.057121 
L 370.926928 58.37669 
L 371.254904 54.096771 
L 371.58288 52.772279 
L 372.238832 56.661365 
L 372.566808 56.598991 
L 373.22276 64.202374 
L 373.550736 62.941885 
L 373.878712 65.267005 
L 374.206688 68.722436 
L 374.534664 68.203083 
L 374.86264 69.483263 
L 375.190616 68.176548 
L 375.518592 68.197586 
L 375.846568 68.049574 
L 376.50252 72.814311 
L 376.830496 75.268552 
L 377.158472 75.648923 
L 377.486448 78.609629 
L 379.126328 72.848195 
L 379.454304 69.950073 
L 379.78228 69.518584 
L 380.110256 68.739287 
L 380.438232 67.558644 
L 380.766208 64.76434 
L 381.094184 65.180413 
L 381.42216 64.513676 
L 381.750136 65.089872 
L 382.078112 64.488637 
L 382.406088 66.103508 
L 382.734064 65.685574 
L 383.06204 64.976433 
L 383.390016 62.5479 
L 383.717992 65.270045 
L 384.373944 67.27209 
L 384.70192 66.826408 
L 385.029896 63.568125 
L 385.357872 63.954494 
L 385.685848 65.481832 
L 386.013824 65.118126 
L 386.3418 67.252973 
L 386.669776 66.253921 
L 386.997752 64.466783 
L 387.98168 67.022323 
L 388.637632 69.841911 
L 388.965608 69.84703 
L 389.62156 72.063809 
L 389.949536 75.140854 
L 390.277512 76.193555 
L 390.605488 79.287272 
L 390.933464 79.614203 
L 391.26144 80.605346 
L 391.589416 79.628268 
L 391.917392 79.23889 
L 392.245368 80.646924 
L 392.573344 80.727809 
L 392.90132 81.371554 
L 393.229296 79.922203 
L 393.885248 72.292095 
L 394.5412 63.917967 
L 394.869176 60.917193 
L 395.197152 61.255022 
L 395.525128 62.313332 
L 395.853104 58.450023 
L 396.18108 57.634895 
L 396.509056 57.391968 
L 397.492984 66.607846 
L 397.82096 66.401805 
L 398.148936 67.900804 
L 398.476912 66.343743 
L 398.804888 67.290456 
L 399.132864 71.550045 
L 400.116792 78.00887 
L 400.772744 79.634916 
L 401.10072 82.489056 
L 401.428696 83.975557 
L 401.756672 83.272588 
L 402.084648 84.136081 
L 402.7406 82.024895 
L 403.068576 83.085278 
L 403.724528 86.220128 
L 404.052504 88.477425 
L 404.38048 87.300772 
L 404.708456 88.752527 
L 405.036432 88.204049 
L 405.364408 87.295217 
L 405.692384 85.84243 
L 406.02036 87.044841 
L 406.348336 87.273732 
L 406.676312 85.180937 
L 407.004288 87.466756 
L 407.332264 88.743955 
L 407.66024 89.312914 
L 407.988216 90.175606 
L 408.316192 93.100626 
L 408.644168 92.157031 
L 408.972144 92.14951 
L 409.30012 91.553782 
L 409.628096 90.523622 
L 409.956072 90.201368 
L 410.284048 90.859586 
L 410.612024 96.054139 
L 410.612024 96.054139 
" clip-path="url(#p009e356767)" style="fill: none; stroke: #1f77b4; stroke-width: 1.5; stroke-linecap: square"/>
   </g>
   <g id="patch_3">
    <path d="M 82.964 266.245 
L 82.964 25.92 
" style="fill: none; stroke: #000000; stroke-width: 0.8; stroke-linejoin: miter; stroke-linecap: square"/>
   </g>
   <g id="patch_4">
    <path d="M 410.94 266.245 
L 410.94 25.92 
" style="fill: none; stroke: #000000; stroke-width: 0.8; stroke-linejoin: miter; stroke-linecap: square"/>
   </g>
   <g id="patch_5">
    <path d="M 82.964 266.245 
L 410.94 266.245 
" style="fill: none; stroke: #000000; stroke-width: 0.8; stroke-linejoin: miter; stroke-linecap: square"/>
   </g>
   <g id="patch_6">
    <path d="M 82.964 25.92 
L 410.94 25.92 
" style="fill: none; stroke: #000000; stroke-width: 0.8; stroke-linejoin: miter; stroke-linecap: square"/>
   </g>
  </g>
 </g>
 <defs>
  <clipPath id="p009e356767">
   <rect x="82.964" y="25.92" width="327.976" height="240.325"/>
  </clipPath>
 </defs>
</svg>
