<?xml version="1.0" encoding="utf-8" standalone="no"?>
<!DOCTYPE svg PUBLIC "-//W3C//DTD SVG 1.1//EN"
  "http://www.w3.org/Graphics/SVG/1.1/DTD/svg11.dtd">
<svg xmlns:xlink="http://www.w3.org/1999/xlink" width="460.8pt" height="345.6pt" viewBox="0 0 460.8 345.6" xmlns="http://www.w3.org/2000/svg" version="1.1">
 <metadata>
  <rdf:RDF xmlns:dc="http://purl.org/dc/elements/1.1/" xmlns:cc="http://creativecommons.org/ns#" xmlns:rdf="http://www.w3.org/1999/02/22-rdf-syntax-ns#">
   <cc:Work>
    <dc:type rdf:resource="http://purl.org/dc/dcmitype/StillImage"/>
    <dc:date>2025-12-03T12:17:01.909986</dc:date>
    <dc:format>image/svg+xml</dc:format>
    <dc:creator>
     <cc:Agent>
      <dc:title>Matplotlib v3.10.6, https://matplotlib.org/</dc:title>
     </cc:Agent>
    </dc:creator>
   </cc:Work>
  </rdf:RDF>
 </metadata>
 <defs>
  <style type="text/css">*{stroke-linejoin: round; stroke-linecap: butt}</style>
 </defs>
 <g id="figure_1">
  <g id="patch_1">
   <path d="M 0 345.6 
L 460.8 345.6 
L 460.8 0 
L 0 0 
z
" style="fill: #ffffff"/>
  </g>
  <g id="axes_1">
   <g id="patch_2">
    <path d="M 57.6 307.584 
L 414.72 307.584 
L 414.72 41.472 
L 57.6 41.472 
z
" style="fill: #ffffff"/>
   </g>
   <g id="matplotlib.axis_1">
    <g id="xtick_1">
     <g id="line2d_1">
      <defs>
       <path id="md0130690c6" d="M 0 0 
L 0 3.5 
" style="stroke: #000000; stroke-width: 0.8"/>
      </defs>
      <g>
       <use xlink:href="#md0130690c6" x="73.832727" y="307.584" style="stroke: #000000; stroke-width: 0.8"/>
      </g>
     </g>
     <g id="text_1">
      <!-- 0 -->
      <g transform="translate(70.651477 322.182437) scale(0.1 -0.1)">
       <defs>
        <path id="DejaVuSans-30" d="M 2034 4250 
Q 1547 4250 1301 3770 
Q 1056 3291 1056 2328 
Q 1056 1369 1301 889 
Q 1547 409 2034 409 
Q 2525 409 2770 889 
Q 3016 1369 3016 2328 
Q 3016 3291 2770 3770 
Q 2525 4250 2034 4250 
z
M 2034 4750 
Q 2819 4750 3233 4129 
Q 3647 3509 3647 2328 
Q 3647 1150 3233 529 
Q 2819 -91 2034 -91 
Q 1250 -91 836 529 
Q 422 1150 422 2328 
Q 422 3509 836 4129 
Q 1250 4750 2034 4750 
z
" transform="scale(0.015625)"/>
       </defs>
       <use xlink:href="#DejaVuSans-30"/>
      </g>
     </g>
    </g>
    <g id="xtick_2">
     <g id="line2d_2">
      <g>
       <use xlink:href="#md0130690c6" x="138.828632" y="307.584" style="stroke: #000000; stroke-width: 0.8"/>
      </g>
     </g>
     <g id="text_2">
      <!-- 200 -->
      <g transform="translate(129.284882 322.182437) scale(0.1 -0.1)">
       <defs>
        <path id="DejaVuSans-32" d="M 1228 531 
L 3431 531 
L 3431 0 
L 469 0 
L 469 531 
Q 828 903 1448 1529 
Q 2069 2156 2228 2338 
Q 2531 2678 2651 2914 
Q 2772 3150 2772 3378 
Q 2772 3750 2511 3984 
Q 2250 4219 1831 4219 
Q 1534 4219 1204 4116 
Q 875 4013 500 3803 
L 500 4441 
Q 881 4594 1212 4672 
Q 1544 4750 1819 4750 
Q 2544 4750 2975 4387 
Q 3406 4025 3406 3419 
Q 3406 3131 3298 2873 
Q 3191 2616 2906 2266 
Q 2828 2175 2409 1742 
Q 1991 1309 1228 531 
z
" transform="scale(0.015625)"/>
       </defs>
       <use xlink:href="#DejaVuSans-32"/>
       <use xlink:href="#DejaVuSans-30" transform="translate(63.623047 0)"/>
       <use xlink:href="#DejaVuSans-30" transform="translate(127.246094 0)"/>
      </g>
     </g>
    </g>
    <g id="xtick_3">
     <g id="line2d_3">
      <g>
       <use xlink:href="#md0130690c6" x="203.824537" y="307.584" style="stroke: #000000; stroke-width: 0.8"/>
      </g>
     </g>
     <g id="text_3">
      <!-- 400 -->
      <g transform="translate(194.280787 322.182437) scale(0.1 -0.1)">
       <defs>
        <path id="DejaVuSans-34" d="M 2419 4116 
L 825 1625 
L 2419 1625 
L 2419 4116 
z
M 2253 4666 
L 3047 4666 
L 3047 1625 
L 3713 1625 
L 3713 1100 
L 3047 1100 
L 3047 0 
L 2419 0 
L 2419 1100 
L 313 1100 
L 313 1709 
L 2253 4666 
z
" transform="scale(0.015625)"/>
       </defs>
       <use xlink:href="#DejaVuSans-34"/>
       <use xlink:href="#DejaVuSans-30" transform="translate(63.623047 0)"/>
       <use xlink:href="#DejaVuSans-30" transform="translate(127.246094 0)"/>
      </g>
     </g>
    </g>
    <g id="xtick_4">
     <g id="line2d_4">
      <g>
       <use xlink:href="#md0130690c6" x="268.820442" y="307.584" style="stroke: #000000; stroke-width: 0.8"/>
      </g>
     </g>
     <g id="text_4">
      <!-- 600 -->
      <g transform="translate(259.276692 322.182437) scale(0.1 -0.1)">
       <defs>
        <path id="DejaVuSans-36" d="M 2113 2584 
Q 1688 2584 1439 2293 
Q 1191 2003 1191 1497 
Q 1191 994 1439 701 
Q 1688 409 2113 409 
Q 2538 409 2786 701 
Q 3034 994 3034 1497 
Q 3034 2003 2786 2293 
Q 2538 2584 2113 2584 
z
M 3366 4563 
L 3366 3988 
Q 3128 4100 2886 4159 
Q 2644 4219 2406 4219 
Q 1781 4219 1451 3797 
Q 1122 3375 1075 2522 
Q 1259 2794 1537 2939 
Q 1816 3084 2150 3084 
Q 2853 3084 3261 2657 
Q 3669 2231 3669 1497 
Q 3669 778 3244 343 
Q 2819 -91 2113 -91 
Q 1303 -91 875 529 
Q 447 1150 447 2328 
Q 447 3434 972 4092 
Q 1497 4750 2381 4750 
Q 2619 4750 2861 4703 
Q 3103 4656 3366 4563 
z
" transform="scale(0.015625)"/>
       </defs>
       <use xlink:href="#DejaVuSans-36"/>
       <use xlink:href="#DejaVuSans-30" transform="translate(63.623047 0)"/>
       <use xlink:href="#DejaVuSans-30" transform="translate(127.246094 0)"/>
      </g>
     </g>
    </g>
    <g id="xtick_5">
     <g id="line2d_5">
      <g>
       <use xlink:href="#md0130690c6" x="333.816347" y="307.584" style="stroke: #000000; stroke-width: 0.8"/>
      </g>
     </g>
     <g id="text_5">
      <!-- 800 -->
      <g transform="translate(324.272597 322.182437) scale(0.1 -0.1)">
       <defs>
        <path id="DejaVuSans-38" d="M 2034 2216 
Q 1584 2216 1326 1975 
Q 1069 1734 1069 1313 
Q 1069 891 1326 650 
Q 1584 409 2034 409 
Q 2484 409 2743 651 
Q 3003 894 3003 1313 
Q 3003 1734 2745 1975 
Q 2488 2216 2034 2216 
z
M 1403 2484 
Q 997 2584 770 2862 
Q 544 3141 544 3541 
Q 544 4100 942 4425 
Q 1341 4750 2034 4750 
Q 2731 4750 3128 4425 
Q 3525 4100 3525 3541 
Q 3525 3141 3298 2862 
Q 3072 2584 2669 2484 
Q 3125 2378 3379 2068 
Q 3634 1759 3634 1313 
Q 3634 634 3220 271 
Q 2806 -91 2034 -91 
Q 1263 -91 848 271 
Q 434 634 434 1313 
Q 434 1759 690 2068 
Q 947 2378 1403 2484 
z
M 1172 3481 
Q 1172 3119 1398 2916 
Q 1625 2713 2034 2713 
Q 2441 2713 2670 2916 
Q 2900 3119 2900 3481 
Q 2900 3844 2670 4047 
Q 2441 4250 2034 4250 
Q 1625 4250 1398 4047 
Q 1172 3844 1172 3481 
z
" transform="scale(0.015625)"/>
       </defs>
       <use xlink:href="#DejaVuSans-38"/>
       <use xlink:href="#DejaVuSans-30" transform="translate(63.623047 0)"/>
       <use xlink:href="#DejaVuSans-30" transform="translate(127.246094 0)"/>
      </g>
     </g>
    </g>
    <g id="xtick_6">
     <g id="line2d_6">
      <g>
       <use xlink:href="#md0130690c6" x="398.812252" y="307.584" style="stroke: #000000; stroke-width: 0.8"/>
      </g>
     </g>
     <g id="text_6">
      <!-- 1000 -->
      <g transform="translate(386.087252 322.182437) scale(0.1 -0.1)">
       <defs>
        <path id="DejaVuSans-31" d="M 794 531 
L 1825 531 
L 1825 4091 
L 703 3866 
L 703 4441 
L 1819 4666 
L 2450 4666 
L 2450 531 
L 3481 531 
L 3481 0 
L 794 0 
L 794 531 
z
" transform="scale(0.015625)"/>
       </defs>
       <use xlink:href="#DejaVuSans-31"/>
       <use xlink:href="#DejaVuSans-30" transform="translate(63.623047 0)"/>
       <use xlink:href="#DejaVuSans-30" transform="translate(127.246094 0)"/>
       <use xlink:href="#DejaVuSans-30" transform="translate(190.869141 0)"/>
      </g>
     </g>
    </g>
    <g id="text_7">
     <!-- Schritt k -->
     <g transform="translate(219.075625 335.091813) scale(0.1 -0.1)">
      <defs>
       <path id="TeXGyreTermes-Regular-53" d="M 3142 1075 
C 3142 1606 2790 2016 1946 2477 
C 1274 2842 1005 3123 1005 3475 
C 1005 3827 1274 4064 1670 4064 
C 1958 4064 2227 3942 2451 3712 
C 2650 3507 2739 3341 2842 2963 
L 3002 2963 
L 2861 4326 
L 2726 4326 
C 2701 4186 2630 4109 2522 4109 
C 2458 4109 2355 4134 2240 4186 
C 2003 4275 1773 4326 1549 4326 
C 1299 4326 1030 4224 826 4058 
C 576 3853 454 3578 454 3226 
C 454 2720 736 2362 1453 1984 
C 1914 1734 2246 1478 2406 1235 
C 2464 1146 2496 1018 2496 858 
C 2496 435 2176 141 1709 141 
C 1133 141 736 493 416 1274 
L 269 1274 
L 461 -83 
L 602 -83 
C 608 38 685 128 781 128 
C 851 128 960 102 1082 58 
C 1325 -38 1581 -90 1837 -90 
C 2579 -90 3142 416 3142 1075 
z
" transform="scale(0.015625)"/>
       <path id="TeXGyreTermes-Regular-63" d="M 2637 941 
L 2547 998 
C 2240 550 2010 397 1645 397 
C 1056 397 653 909 653 1645 
C 653 2310 1005 2758 1523 2758 
C 1754 2758 1837 2688 1901 2451 
L 1939 2310 
C 1990 2125 2106 2016 2246 2016 
C 2413 2016 2547 2138 2547 2285 
C 2547 2643 2099 2944 1562 2944 
C 1261 2944 954 2829 698 2618 
C 352 2330 160 1888 160 1357 
C 160 531 666 -64 1376 -64 
C 1651 -64 1894 26 2112 205 
C 2304 358 2432 544 2637 941 
z
" transform="scale(0.015625)"/>
       <path id="TeXGyreTermes-Regular-68" d="M 3117 0 
L 3117 96 
C 2771 160 2733 211 2733 653 
L 2733 1926 
C 2733 2598 2464 2944 1946 2944 
C 1568 2944 1299 2790 1005 2406 
L 1005 4352 
L 973 4371 
C 755 4294 595 4243 237 4141 
L 64 4090 
L 64 3987 
C 90 3994 109 3994 141 3994 
C 416 3994 467 3942 467 3667 
L 467 653 
C 467 205 429 147 58 96 
L 58 0 
L 1440 0 
L 1440 96 
C 1069 134 1005 211 1005 653 
L 1005 2195 
C 1274 2490 1466 2598 1715 2598 
C 2035 2598 2195 2368 2195 1920 
L 2195 653 
C 2195 218 2131 134 1760 96 
L 1760 0 
L 3117 0 
z
" transform="scale(0.015625)"/>
       <path id="TeXGyreTermes-Regular-72" d="M 2144 2605 
C 2144 2816 2010 2944 1792 2944 
C 1523 2944 1338 2797 1024 2342 
L 1024 2931 
L 992 2944 
C 653 2803 422 2720 45 2598 
L 45 2496 
C 134 2515 192 2522 269 2522 
C 429 2522 486 2419 486 2138 
L 486 538 
C 486 218 442 173 32 96 
L 32 0 
L 1568 0 
L 1568 96 
C 1133 115 1024 211 1024 576 
L 1024 2016 
C 1024 2221 1299 2541 1472 2541 
C 1510 2541 1568 2509 1638 2445 
C 1741 2355 1811 2317 1894 2317 
C 2048 2317 2144 2426 2144 2605 
z
" transform="scale(0.015625)"/>
       <path id="TeXGyreTermes-Regular-69" d="M 1619 0 
L 1619 96 
C 1197 128 1146 192 1146 653 
L 1146 2925 
L 1120 2944 
L 128 2592 
L 128 2496 
L 179 2502 
C 256 2515 339 2522 397 2522 
C 550 2522 608 2419 608 2138 
L 608 653 
C 608 192 544 122 102 96 
L 102 0 
L 1619 0 
z
M 1203 3776 
C 1203 3955 1062 4102 877 4102 
C 698 4102 550 3955 550 3776 
C 550 3590 698 3450 877 3450 
C 1062 3450 1203 3590 1203 3776 
z
" transform="scale(0.015625)"/>
       <path id="TeXGyreTermes-Regular-74" d="M 1786 422 
L 1702 493 
C 1562 326 1459 269 1318 269 
C 1082 269 986 435 986 845 
L 986 2675 
L 1632 2675 
L 1632 2880 
L 986 2880 
L 986 3622 
C 986 3686 973 3706 941 3706 
C 902 3642 858 3584 813 3526 
C 576 3174 358 2938 192 2842 
C 122 2797 83 2758 83 2720 
C 83 2701 90 2688 109 2675 
L 448 2675 
L 448 749 
C 448 211 640 -64 1011 -64 
C 1331 -64 1574 90 1786 422 
z
" transform="scale(0.015625)"/>
       <path id="TeXGyreTermes-Regular-20" transform="scale(0.015625)"/>
       <path id="TeXGyreTermes-Regular-6b" d="M 3232 0 
L 3232 96 
C 2950 115 2752 237 2483 563 
L 1504 1805 
L 1690 1978 
C 2144 2400 2541 2694 2726 2746 
C 2822 2771 2912 2784 3021 2784 
L 3072 2784 
L 3072 2880 
L 1766 2880 
L 1766 2790 
C 2016 2784 2086 2758 2086 2669 
C 2086 2618 2029 2528 1939 2451 
L 1062 1670 
L 1062 4358 
L 1037 4371 
L 237 4141 
L 45 4090 
L 45 3987 
C 128 3994 186 4000 250 4000 
C 461 4000 525 3917 525 3610 
L 525 525 
C 525 192 506 173 45 96 
L 45 0 
L 1542 0 
L 1542 96 
L 1414 102 
C 1158 115 1062 205 1062 429 
L 1062 1606 
L 1958 410 
L 1978 384 
C 1990 365 2003 346 2022 326 
C 2074 262 2093 224 2093 192 
C 2093 134 2035 96 1958 96 
L 1837 96 
L 1837 0 
L 3232 0 
z
" transform="scale(0.015625)"/>
      </defs>
      <use xlink:href="#TeXGyreTermes-Regular-53"/>
      <use xlink:href="#TeXGyreTermes-Regular-63" transform="translate(55.599991 0)"/>
      <use xlink:href="#TeXGyreTermes-Regular-68" transform="translate(99.999985 0)"/>
      <use xlink:href="#TeXGyreTermes-Regular-72" transform="translate(149.999969 0)"/>
      <use xlink:href="#TeXGyreTermes-Regular-69" transform="translate(183.299957 0)"/>
      <use xlink:href="#TeXGyreTermes-Regular-74" transform="translate(211.099945 0)"/>
      <use xlink:href="#TeXGyreTermes-Regular-74" transform="translate(238.899933 0)"/>
      <use xlink:href="#TeXGyreTermes-Regular-20" transform="translate(266.699921 0)"/>
      <use xlink:href="#TeXGyreTermes-Regular-6b" transform="translate(291.699905 0)"/>
     </g>
    </g>
   </g>
   <g id="matplotlib.axis_2">
    <g id="ytick_1">
     <g id="line2d_7">
      <defs>
       <path id="m9b2b667934" d="M 0 0 
L -3.5 0 
" style="stroke: #000000; stroke-width: 0.8"/>
      </defs>
      <g>
       <use xlink:href="#m9b2b667934" x="57.6" y="281.38172" style="stroke: #000000; stroke-width: 0.8"/>
      </g>
     </g>
     <g id="text_8">
      <!-- −0.003 -->
      <g transform="translate(13.592188 285.180939) scale(0.1 -0.1)">
       <defs>
        <path id="DejaVuSans-2212" d="M 678 2272 
L 4684 2272 
L 4684 1741 
L 678 1741 
L 678 2272 
z
" transform="scale(0.015625)"/>
        <path id="DejaVuSans-2e" d="M 684 794 
L 1344 794 
L 1344 0 
L 684 0 
L 684 794 
z
" transform="scale(0.015625)"/>
        <path id="DejaVuSans-33" d="M 2597 2516 
Q 3050 2419 3304 2112 
Q 3559 1806 3559 1356 
Q 3559 666 3084 287 
Q 2609 -91 1734 -91 
Q 1441 -91 1130 -33 
Q 819 25 488 141 
L 488 750 
Q 750 597 1062 519 
Q 1375 441 1716 441 
Q 2309 441 2620 675 
Q 2931 909 2931 1356 
Q 2931 1769 2642 2001 
Q 2353 2234 1838 2234 
L 1294 2234 
L 1294 2753 
L 1863 2753 
Q 2328 2753 2575 2939 
Q 2822 3125 2822 3475 
Q 2822 3834 2567 4026 
Q 2313 4219 1838 4219 
Q 1578 4219 1281 4162 
Q 984 4106 628 3988 
L 628 4550 
Q 988 4650 1302 4700 
Q 1616 4750 1894 4750 
Q 2613 4750 3031 4423 
Q 3450 4097 3450 3541 
Q 3450 3153 3228 2886 
Q 3006 2619 2597 2516 
z
" transform="scale(0.015625)"/>
       </defs>
       <use xlink:href="#DejaVuSans-2212"/>
       <use xlink:href="#DejaVuSans-30" transform="translate(83.789062 0)"/>
       <use xlink:href="#DejaVuSans-2e" transform="translate(147.412109 0)"/>
       <use xlink:href="#DejaVuSans-30" transform="translate(179.199219 0)"/>
       <use xlink:href="#DejaVuSans-30" transform="translate(242.822266 0)"/>
       <use xlink:href="#DejaVuSans-33" transform="translate(306.445312 0)"/>
      </g>
     </g>
    </g>
    <g id="ytick_2">
     <g id="line2d_8">
      <g>
       <use xlink:href="#m9b2b667934" x="57.6" y="250.270434" style="stroke: #000000; stroke-width: 0.8"/>
      </g>
     </g>
     <g id="text_9">
      <!-- −0.002 -->
      <g transform="translate(13.592188 254.069653) scale(0.1 -0.1)">
       <use xlink:href="#DejaVuSans-2212"/>
       <use xlink:href="#DejaVuSans-30" transform="translate(83.789062 0)"/>
       <use xlink:href="#DejaVuSans-2e" transform="translate(147.412109 0)"/>
       <use xlink:href="#DejaVuSans-30" transform="translate(179.199219 0)"/>
       <use xlink:href="#DejaVuSans-30" transform="translate(242.822266 0)"/>
       <use xlink:href="#DejaVuSans-32" transform="translate(306.445312 0)"/>
      </g>
     </g>
    </g>
    <g id="ytick_3">
     <g id="line2d_9">
      <g>
       <use xlink:href="#m9b2b667934" x="57.6" y="219.159148" style="stroke: #000000; stroke-width: 0.8"/>
      </g>
     </g>
     <g id="text_10">
      <!-- −0.001 -->
      <g transform="translate(13.592188 222.958367) scale(0.1 -0.1)">
       <use xlink:href="#DejaVuSans-2212"/>
       <use xlink:href="#DejaVuSans-30" transform="translate(83.789062 0)"/>
       <use xlink:href="#DejaVuSans-2e" transform="translate(147.412109 0)"/>
       <use xlink:href="#DejaVuSans-30" transform="translate(179.199219 0)"/>
       <use xlink:href="#DejaVuSans-30" transform="translate(242.822266 0)"/>
       <use xlink:href="#DejaVuSans-31" transform="translate(306.445312 0)"/>
      </g>
     </g>
    </g>
    <g id="ytick_4">
     <g id="line2d_10">
      <g>
       <use xlink:href="#m9b2b667934" x="57.6" y="188.047862" style="stroke: #000000; stroke-width: 0.8"/>
      </g>
     </g>
     <g id="text_11">
      <!-- 0.000 -->
      <g transform="translate(21.971875 191.847081) scale(0.1 -0.1)">
       <use xlink:href="#DejaVuSans-30"/>
       <use xlink:href="#DejaVuSans-2e" transform="translate(63.623047 0)"/>
       <use xlink:href="#DejaVuSans-30" transform="translate(95.410156 0)"/>
       <use xlink:href="#DejaVuSans-30" transform="translate(159.033203 0)"/>
       <use xlink:href="#DejaVuSans-30" transform="translate(222.65625 0)"/>
      </g>
     </g>
    </g>
    <g id="ytick_5">
     <g id="line2d_11">
      <g>
       <use xlink:href="#m9b2b667934" x="57.6" y="156.936576" style="stroke: #000000; stroke-width: 0.8"/>
      </g>
     </g>
     <g id="text_12">
      <!-- 0.001 -->
      <g transform="translate(21.971875 160.735795) scale(0.1 -0.1)">
       <use xlink:href="#DejaVuSans-30"/>
       <use xlink:href="#DejaVuSans-2e" transform="translate(63.623047 0)"/>
       <use xlink:href="#DejaVuSans-30" transform="translate(95.410156 0)"/>
       <use xlink:href="#DejaVuSans-30" transform="translate(159.033203 0)"/>
       <use xlink:href="#DejaVuSans-31" transform="translate(222.65625 0)"/>
      </g>
     </g>
    </g>
    <g id="ytick_6">
     <g id="line2d_12">
      <g>
       <use xlink:href="#m9b2b667934" x="57.6" y="125.82529" style="stroke: #000000; stroke-width: 0.8"/>
      </g>
     </g>
     <g id="text_13">
      <!-- 0.002 -->
      <g transform="translate(21.971875 129.624508) scale(0.1 -0.1)">
       <use xlink:href="#DejaVuSans-30"/>
       <use xlink:href="#DejaVuSans-2e" transform="translate(63.623047 0)"/>
       <use xlink:href="#DejaVuSans-30" transform="translate(95.410156 0)"/>
       <use xlink:href="#DejaVuSans-30" transform="translate(159.033203 0)"/>
       <use xlink:href="#DejaVuSans-32" transform="translate(222.65625 0)"/>
      </g>
     </g>
    </g>
    <g id="ytick_7">
     <g id="line2d_13">
      <g>
       <use xlink:href="#m9b2b667934" x="57.6" y="94.714004" style="stroke: #000000; stroke-width: 0.8"/>
      </g>
     </g>
     <g id="text_14">
      <!-- 0.003 -->
      <g transform="translate(21.971875 98.513222) scale(0.1 -0.1)">
       <use xlink:href="#DejaVuSans-30"/>
       <use xlink:href="#DejaVuSans-2e" transform="translate(63.623047 0)"/>
       <use xlink:href="#DejaVuSans-30" transform="translate(95.410156 0)"/>
       <use xlink:href="#DejaVuSans-30" transform="translate(159.033203 0)"/>
       <use xlink:href="#DejaVuSans-33" transform="translate(222.65625 0)"/>
      </g>
     </g>
    </g>
    <g id="ytick_8">
     <g id="line2d_14">
      <g>
       <use xlink:href="#m9b2b667934" x="57.6" y="63.602717" style="stroke: #000000; stroke-width: 0.8"/>
      </g>
     </g>
     <g id="text_15">
      <!-- 0.004 -->
      <g transform="translate(21.971875 67.401936) scale(0.1 -0.1)">
       <use xlink:href="#DejaVuSans-30"/>
       <use xlink:href="#DejaVuSans-2e" transform="translate(63.623047 0)"/>
       <use xlink:href="#DejaVuSans-30" transform="translate(95.410156 0)"/>
       <use xlink:href="#DejaVuSans-30" transform="translate(159.033203 0)"/>
       <use xlink:href="#DejaVuSans-34" transform="translate(222.65625 0)"/>
      </g>
     </g>
    </g>
    <g id="text_16">
     <!-- x(k) -->
     <g transform="translate(7.421875 182.857687) rotate(-90) scale(0.1 -0.1)">
      <defs>
       <path id="TeXGyreTermes-Regular-78" d="M 3066 0 
L 3066 96 
C 2867 96 2739 198 2541 480 
L 1722 1734 
L 2253 2502 
C 2374 2675 2566 2778 2771 2784 
L 2771 2880 
L 1760 2880 
L 1760 2784 
C 1952 2771 2016 2733 2016 2643 
C 2016 2566 1939 2426 1779 2227 
C 1747 2189 1670 2074 1587 1946 
L 1498 2074 
C 1318 2342 1203 2560 1203 2643 
C 1203 2733 1286 2778 1478 2784 
L 1478 2880 
L 154 2880 
L 154 2784 
L 211 2784 
C 403 2784 506 2701 704 2400 
L 1306 1478 
L 576 422 
C 384 160 320 115 109 96 
L 109 0 
L 1037 0 
L 1037 96 
C 858 96 781 128 781 211 
C 781 250 826 346 909 474 
L 1414 1261 
L 1997 365 
C 2022 326 2035 288 2035 250 
C 2035 134 1990 109 1779 96 
L 1779 0 
L 3066 0 
z
" transform="scale(0.015625)"/>
       <path id="TeXGyreTermes-Regular-28" d="M 1946 -1030 
C 1434 -627 1254 -403 1082 77 
C 928 506 858 992 858 1632 
C 858 2304 941 2829 1114 3226 
C 1293 3622 1485 3853 1946 4224 
L 1888 4326 
C 1414 4019 1222 3853 986 3558 
C 531 3002 307 2362 307 1613 
C 307 800 544 173 1107 -480 
C 1370 -787 1536 -928 1869 -1133 
L 1946 -1030 
z
" transform="scale(0.015625)"/>
       <path id="TeXGyreTermes-Regular-29" d="M 1824 1581 
C 1824 2400 1587 3021 1024 3674 
C 762 3981 595 4122 262 4326 
L 186 4224 
C 698 3821 870 3597 1050 3117 
C 1203 2688 1274 2202 1274 1562 
C 1274 896 1190 365 1018 -26 
C 838 -429 646 -659 186 -1030 
L 243 -1133 
C 717 -826 909 -659 1146 -365 
C 1600 192 1824 832 1824 1581 
z
" transform="scale(0.015625)"/>
      </defs>
      <use xlink:href="#TeXGyreTermes-Regular-78"/>
      <use xlink:href="#TeXGyreTermes-Regular-28" transform="translate(49.999985 0)"/>
      <use xlink:href="#TeXGyreTermes-Regular-6b" transform="translate(83.299973 0)"/>
      <use xlink:href="#TeXGyreTermes-Regular-29" transform="translate(133.299957 0)"/>
     </g>
    </g>
   </g>
   <g id="line2d_15">
    <path d="M 73.832727 190.854464 
L 74.157707 163.673759 
L 74.482686 202.736744 
L 74.807666 162.916656 
L 75.132645 189.234368 
L 75.457625 246.912236 
L 75.782604 213.824912 
L 76.107584 232.037814 
L 76.432563 218.859926 
L 76.757543 235.787477 
L 77.082523 244.606855 
L 77.407502 243.835584 
L 77.732482 201.469185 
L 78.057461 235.350106 
L 78.382441 221.741101 
L 78.70742 160.050019 
L 79.0324 209.503019 
L 79.357379 174.62298 
L 79.682359 174.165368 
L 80.007338 174.498344 
L 80.332318 187.108924 
L 80.657297 193.793012 
L 80.982277 202.86023 
L 81.307256 200.260759 
L 81.632236 211.435564 
L 81.957215 203.527995 
L 82.282195 206.240601 
L 82.607174 160.17565 
L 82.932154 196.274997 
L 83.582113 151.674027 
L 84.232072 192.357794 
L 84.557052 196.927268 
L 84.882031 223.789468 
L 85.207011 210.126475 
L 85.53199 146.398759 
L 85.85697 124.388953 
L 86.181949 170.308664 
L 86.506929 181.25511 
L 86.831908 224.89815 
L 87.156888 186.552446 
L 87.481867 205.110359 
L 87.806847 157.694208 
L 88.131826 211.030745 
L 88.456806 208.096924 
L 88.781785 204.117854 
L 89.106765 213.478772 
L 89.756724 252.260874 
L 90.081704 259.282525 
L 90.406683 218.945054 
L 90.731663 217.958161 
L 91.056642 295.488 
L 91.381622 254.792234 
L 91.706601 186.871696 
L 92.031581 235.318967 
L 92.35656 262.052083 
L 92.68154 235.17702 
L 93.006519 168.197186 
L 93.331499 177.876762 
L 93.981458 152.771756 
L 94.306437 199.723612 
L 94.631417 166.759375 
L 94.956396 164.943161 
L 95.281376 193.87219 
L 95.606355 193.982782 
L 95.931335 181.822135 
L 96.256314 163.227134 
L 96.581294 171.220003 
L 96.906274 196.421123 
L 97.231253 127.130601 
L 97.556233 217.593351 
L 97.881212 187.606394 
L 98.206192 208.693902 
L 98.531171 202.873751 
L 98.856151 145.525429 
L 99.18113 214.73721 
L 99.50611 156.32158 
L 99.831089 205.836445 
L 100.156069 194.934106 
L 100.481048 145.329484 
L 100.806028 213.488117 
L 101.131007 109.063155 
L 101.455987 118.629187 
L 101.780966 116.043325 
L 102.105946 167.391675 
L 102.430925 124.03898 
L 103.405864 241.470053 
L 103.730844 174.037385 
L 104.055823 192.129527 
L 104.380803 192.540014 
L 104.705782 209.993882 
L 105.355741 98.344644 
L 105.680721 167.421549 
L 106.0057 163.90007 
L 106.33068 205.545547 
L 106.655659 192.637111 
L 106.980639 109.827804 
L 107.305618 126.529189 
L 107.630598 208.593128 
L 107.955577 261.884207 
L 108.605536 148.404968 
L 108.930516 218.337662 
L 109.255495 101.167088 
L 109.580475 149.91086 
L 109.905455 172.6364 
L 110.230434 176.39602 
L 110.555414 173.240025 
L 110.880393 165.50745 
L 111.205373 223.007799 
L 111.530352 215.228024 
L 111.855332 214.890264 
L 112.180311 149.059844 
L 112.505291 202.244361 
L 112.83027 198.824765 
L 113.15525 164.261799 
L 113.480229 155.330371 
L 113.805209 160.557655 
L 114.455168 185.926749 
L 114.780147 168.38884 
L 115.105127 136.141174 
L 115.430106 156.208137 
L 115.755086 183.626076 
L 116.080066 168.702795 
L 116.405045 172.655259 
L 116.730025 230.836707 
L 117.055004 213.818488 
L 117.379984 175.0613 
L 117.704963 203.545959 
L 118.354922 131.44323 
L 118.679902 161.055628 
L 119.004881 137.019268 
L 119.329861 141.70078 
L 119.65484 134.360195 
L 119.97982 194.562983 
L 120.304799 223.733633 
L 120.954758 180.168224 
L 121.279738 196.447771 
L 121.604717 268.19096 
L 121.929697 165.827754 
L 122.254676 225.558104 
L 122.904636 250.896631 
L 123.229615 240.848875 
L 123.554595 161.540757 
L 123.879574 205.174841 
L 124.204554 219.927479 
L 124.529533 194.307487 
L 124.854513 183.192301 
L 125.179492 154.94218 
L 125.504472 172.129232 
L 125.829451 174.7999 
L 126.154431 191.324174 
L 126.47941 163.767981 
L 126.80439 164.185345 
L 127.129369 204.042551 
L 127.454349 213.373051 
L 127.779328 157.248353 
L 128.429287 175.224245 
L 128.754267 167.109654 
L 129.079247 165.036049 
L 129.404226 142.445954 
L 129.729206 156.74609 
L 130.054185 163.609537 
L 130.379165 193.988355 
L 130.704144 190.819 
L 131.029124 175.297535 
L 131.354103 145.25214 
L 131.679083 178.17315 
L 132.004062 158.586652 
L 132.329042 131.968167 
L 132.654021 168.318903 
L 132.979001 159.535471 
L 133.30398 160.949896 
L 133.62896 142.895633 
L 133.953939 164.121509 
L 134.278919 159.449362 
L 134.603898 197.409617 
L 134.928878 187.75075 
L 135.253857 190.687973 
L 135.578837 211.202832 
L 135.903817 131.5371 
L 136.228796 189.363423 
L 136.553776 168.598257 
L 136.878755 132.718924 
L 137.203735 142.573923 
L 137.528714 181.263347 
L 137.853694 260.401799 
L 138.178673 200.992936 
L 138.503653 217.742899 
L 138.828632 191.617189 
L 139.153612 178.089825 
L 139.478591 191.706673 
L 139.803571 198.254488 
L 140.12855 185.183092 
L 140.45353 164.68228 
L 140.778509 165.338132 
L 141.103489 183.808646 
L 141.428468 191.783407 
L 141.753448 161.5868 
L 142.078428 177.351764 
L 142.403407 202.01321 
L 142.728387 170.948349 
L 143.053366 190.221729 
L 143.378346 126.695247 
L 144.028305 216.683227 
L 144.353284 159.977391 
L 144.678264 170.897104 
L 145.003243 206.972206 
L 145.328223 135.038705 
L 145.653202 152.258349 
L 145.978182 115.625435 
L 146.628141 204.316766 
L 146.95312 223.548357 
L 147.2781 151.055136 
L 147.603079 235.77853 
L 147.928059 190.475263 
L 148.253038 161.316712 
L 148.578018 194.270343 
L 148.902998 141.050835 
L 149.227977 202.668226 
L 149.552957 198.02661 
L 149.877936 183.015146 
L 150.202916 225.759127 
L 150.527895 219.036135 
L 150.852875 162.316051 
L 151.827813 237.17713 
L 152.152793 276.172937 
L 152.477772 235.079625 
L 152.802752 227.197827 
L 153.127731 228.00467 
L 153.452711 201.227177 
L 153.77769 259.971483 
L 154.10267 186.462845 
L 154.427649 191.662257 
L 154.752629 203.819652 
L 155.077609 226.493478 
L 155.402588 181.362279 
L 155.727568 161.477754 
L 156.052547 218.255114 
L 156.377527 183.954521 
L 156.702506 197.593917 
L 157.027486 190.555311 
L 157.352465 173.355079 
L 157.677445 166.927864 
L 158.002424 156.108824 
L 158.327404 139.499958 
L 158.652383 177.110639 
L 158.977363 150.557435 
L 159.302342 148.026741 
L 159.627322 119.33867 
L 159.952301 198.879268 
L 160.277281 174.700005 
L 160.60226 162.979739 
L 160.92724 184.547394 
L 161.577199 112.033955 
L 161.902179 177.070506 
L 162.227158 147.7305 
L 162.552138 142.776511 
L 162.877117 195.132807 
L 163.202097 210.640475 
L 163.527076 234.025047 
L 163.852056 149.002266 
L 164.177035 176.763658 
L 164.502015 224.693111 
L 164.826994 124.394224 
L 165.151974 114.942093 
L 165.476953 198.369647 
L 165.801933 221.039006 
L 166.126912 216.683783 
L 166.451892 176.569355 
L 166.776871 177.982015 
L 167.101851 190.229676 
L 167.42683 210.567021 
L 167.75181 205.269568 
L 168.07679 175.739474 
L 168.401769 174.861608 
L 169.051728 207.878147 
L 169.376708 146.448218 
L 169.701687 163.13787 
L 170.026667 240.745549 
L 170.351646 158.029069 
L 170.676626 171.51386 
L 171.001605 161.052025 
L 171.326585 177.646337 
L 171.651564 219.23816 
L 172.301523 134.068076 
L 172.951482 228.725587 
L 173.276462 117.349964 
L 173.601441 104.13626 
L 173.926421 122.698897 
L 174.2514 171.952961 
L 174.57638 163.681593 
L 174.90136 196.952717 
L 175.226339 159.225435 
L 175.551319 147.683118 
L 175.876298 166.103496 
L 176.201278 166.835485 
L 176.526257 243.777105 
L 176.851237 194.147519 
L 177.176216 171.578473 
L 177.501196 124.068295 
L 177.826175 250.313723 
L 178.151155 156.820662 
L 178.476134 192.144066 
L 178.801114 189.896126 
L 179.126093 191.570179 
L 179.451073 181.221402 
L 179.776052 212.783935 
L 180.101032 176.481955 
L 180.426011 102.159262 
L 181.075971 226.281519 
L 181.72593 188.615012 
L 182.050909 215.167188 
L 182.375889 127.820116 
L 182.700868 196.138686 
L 183.025848 212.612576 
L 183.350827 192.658654 
L 183.675807 213.997237 
L 184.650745 126.412268 
L 184.975725 201.726573 
L 185.300704 226.609825 
L 185.625684 154.852617 
L 185.950663 149.094107 
L 186.275643 151.025835 
L 186.600622 133.984253 
L 186.925602 185.395618 
L 187.250581 204.650325 
L 187.575561 178.551231 
L 187.900541 186.319177 
L 188.22552 164.991053 
L 188.5505 200.485336 
L 188.875479 190.212668 
L 189.200459 214.182489 
L 189.525438 179.84246 
L 189.850418 226.573482 
L 190.175397 227.582528 
L 190.825356 152.500708 
L 191.150336 150.351639 
L 191.475315 164.280002 
L 191.800295 168.65909 
L 192.125274 244.952501 
L 192.450254 171.067 
L 192.775233 215.114584 
L 193.100213 181.085643 
L 193.425192 203.789639 
L 193.750172 176.344812 
L 194.075152 230.240124 
L 194.400131 164.249738 
L 194.725111 134.805025 
L 195.05009 148.497015 
L 195.37507 195.886345 
L 195.700049 158.532919 
L 196.025029 163.654575 
L 196.350008 120.124997 
L 196.674988 167.708398 
L 196.999967 164.486044 
L 197.324947 222.84829 
L 197.649926 253.68912 
L 197.974906 271.947971 
L 198.299885 237.523678 
L 198.624865 153.885281 
L 198.949844 144.030645 
L 199.274824 223.240013 
L 199.599803 214.267567 
L 199.924783 147.662892 
L 200.249762 116.040042 
L 200.574742 137.5089 
L 200.899722 232.692856 
L 201.224701 227.799454 
L 201.549681 156.727261 
L 201.87466 195.075812 
L 202.19964 182.940918 
L 202.524619 204.191683 
L 202.849599 193.160076 
L 203.174578 170.351615 
L 203.499558 179.8576 
L 203.824537 158.155856 
L 204.149517 118.60036 
L 204.474496 199.417213 
L 204.799476 156.508172 
L 205.124455 155.427465 
L 205.449435 183.253856 
L 205.774414 142.560281 
L 206.099394 145.807735 
L 206.424373 170.486736 
L 206.749353 211.128703 
L 207.074333 147.665715 
L 207.399312 172.183884 
L 207.724292 137.237291 
L 208.049271 193.587938 
L 208.374251 167.708943 
L 208.69923 169.412823 
L 209.02421 208.131363 
L 209.349189 218.540354 
L 209.674169 216.485262 
L 209.999148 173.502116 
L 210.324128 272.111062 
L 210.649107 188.636539 
L 210.974087 163.197425 
L 211.299066 182.534356 
L 211.624046 144.945395 
L 211.949025 93.310845 
L 212.274005 218.097362 
L 212.923964 148.959382 
L 213.248943 177.301117 
L 213.573923 181.864568 
L 213.898903 193.347512 
L 214.223882 161.271543 
L 214.548862 209.049426 
L 214.873841 238.402374 
L 215.198821 175.431757 
L 215.5238 135.355189 
L 215.84878 161.285061 
L 216.173759 174.466446 
L 216.498739 153.42823 
L 216.823718 197.530627 
L 217.148698 159.760009 
L 217.473677 161.801242 
L 217.798657 183.288268 
L 218.123636 163.045701 
L 218.448616 203.386361 
L 218.773595 197.716805 
L 219.423554 176.462377 
L 219.748534 196.17722 
L 220.073514 158.193978 
L 220.398493 167.299796 
L 220.723473 189.770136 
L 221.048452 165.353692 
L 221.373432 174.35369 
L 221.698411 169.979238 
L 222.023391 155.117891 
L 222.34837 166.057152 
L 222.998329 153.343108 
L 223.323309 166.834179 
L 223.648288 199.886628 
L 223.973268 178.97752 
L 224.298247 121.179502 
L 224.623227 168.91976 
L 224.948206 147.244997 
L 225.273186 167.369124 
L 225.598165 136.128328 
L 225.923145 170.660778 
L 226.248124 151.531816 
L 226.573104 211.510458 
L 226.898084 202.367649 
L 227.223063 207.734927 
L 227.548043 182.295354 
L 228.198002 170.359303 
L 228.522981 120.13202 
L 228.847961 214.529346 
L 229.17294 157.660271 
L 229.822899 241.843548 
L 230.147879 167.256999 
L 230.797838 190.672453 
L 231.122817 156.947818 
L 231.447797 189.810818 
L 231.772776 53.568 
L 232.097756 181.159148 
L 232.422735 131.701485 
L 233.397674 210.720615 
L 233.722654 118.794947 
L 234.047633 185.913878 
L 234.697592 105.174615 
L 235.022572 188.457504 
L 235.347551 155.699852 
L 235.672531 181.926774 
L 235.99751 166.035804 
L 236.647469 196.88066 
L 236.972449 173.831102 
L 237.297428 180.426315 
L 237.622408 212.205967 
L 237.947387 154.787216 
L 238.272367 187.345094 
L 238.597346 111.100365 
L 238.922326 154.435222 
L 239.247305 162.677938 
L 239.572285 233.453095 
L 239.897265 224.738989 
L 240.222244 135.493211 
L 240.872203 206.22275 
L 241.197183 181.30671 
L 241.522162 222.963604 
L 241.847142 192.863385 
L 242.172121 229.472279 
L 242.497101 190.051879 
L 242.82208 199.509579 
L 243.14706 180.086692 
L 243.472039 220.016237 
L 243.797019 166.293857 
L 244.121998 216.419226 
L 244.446978 246.479652 
L 245.096937 195.436249 
L 245.421916 185.891928 
L 245.746896 205.250424 
L 246.071876 169.785591 
L 246.396855 203.631848 
L 246.721835 154.419271 
L 247.046814 171.47944 
L 247.371794 222.268679 
L 247.696773 210.908621 
L 248.021753 132.025753 
L 248.346732 165.410849 
L 248.671712 213.320209 
L 249.64665 135.608648 
L 249.97163 171.044439 
L 250.296609 221.713454 
L 250.621589 200.241295 
L 250.946568 131.92453 
L 251.271548 140.63129 
L 251.596527 169.197752 
L 251.921507 133.452128 
L 252.246486 157.226039 
L 252.571466 200.281004 
L 252.896446 159.741911 
L 253.221425 188.922309 
L 253.546405 172.890373 
L 253.871384 170.964301 
L 254.196364 176.751423 
L 254.521343 248.054327 
L 254.846323 258.393251 
L 255.171302 153.773536 
L 255.821261 241.37257 
L 256.146241 183.919686 
L 256.47122 186.707086 
L 256.7962 217.336117 
L 257.121179 190.929508 
L 257.446159 188.283976 
L 257.771138 186.616952 
L 258.096118 247.997861 
L 258.421097 190.056797 
L 258.746077 192.062271 
L 259.071057 165.465822 
L 259.396036 193.390932 
L 259.721016 169.406614 
L 260.045995 157.753385 
L 260.370975 191.087141 
L 260.695954 198.157983 
L 261.020934 169.901783 
L 261.345913 114.108074 
L 261.670893 162.27195 
L 261.995872 144.213761 
L 262.320852 161.021067 
L 262.645831 136.988361 
L 262.970811 196.498657 
L 263.29579 187.924164 
L 263.62077 159.191017 
L 263.945749 182.170415 
L 264.270729 192.942011 
L 264.595708 186.418164 
L 264.920688 175.078111 
L 265.245667 159.798943 
L 265.570647 175.960575 
L 265.895627 214.745124 
L 266.220606 196.049792 
L 266.545586 225.800806 
L 266.870565 147.079534 
L 267.195545 135.851932 
L 267.520524 142.467513 
L 267.845504 113.467824 
L 268.170483 177.406784 
L 268.495463 144.023995 
L 269.145422 121.069131 
L 269.470401 115.846619 
L 269.795381 159.212725 
L 270.12036 86.130928 
L 270.44534 167.45369 
L 270.770319 141.487287 
L 271.095299 140.47909 
L 271.420278 191.918794 
L 271.745258 210.521854 
L 272.070238 153.476737 
L 272.395217 142.386296 
L 272.720197 114.024151 
L 273.045176 126.289045 
L 273.370156 129.935613 
L 273.695135 170.92732 
L 274.345094 151.966417 
L 274.670074 120.845391 
L 274.995053 139.054121 
L 275.320033 143.950529 
L 275.645012 130.231291 
L 275.969992 150.42236 
L 276.294971 121.637262 
L 276.619951 130.206591 
L 276.94493 89.495358 
L 277.26991 118.6596 
L 277.594889 159.425738 
L 277.919869 182.794431 
L 278.244848 130.213625 
L 278.569828 132.779696 
L 278.894808 154.715046 
L 279.219787 87.005037 
L 279.544767 143.838867 
L 279.869746 151.714464 
L 280.194726 107.853636 
L 280.519705 193.087417 
L 280.844685 245.086228 
L 281.169664 141.504263 
L 281.819623 219.000815 
L 282.144603 129.201803 
L 282.469582 134.031474 
L 282.794562 169.79697 
L 283.119541 181.939523 
L 283.444521 135.629158 
L 283.7695 186.736763 
L 284.09448 155.580696 
L 284.419459 138.251931 
L 284.744439 133.248266 
L 285.069419 209.439327 
L 285.394398 215.362726 
L 285.719378 186.748408 
L 286.044357 230.361054 
L 286.369337 189.498447 
L 286.694316 131.831615 
L 287.019296 150.491919 
L 287.344275 176.768271 
L 287.669255 185.486529 
L 287.994234 218.920632 
L 288.319214 166.138723 
L 288.644193 197.244311 
L 288.969173 212.612427 
L 289.619132 131.297444 
L 289.944111 154.680849 
L 290.269091 229.772875 
L 290.59407 133.428388 
L 290.91905 177.82901 
L 291.244029 145.108033 
L 291.569009 163.548757 
L 291.893989 162.22448 
L 292.218968 178.930506 
L 292.543948 171.503317 
L 292.868927 216.776758 
L 293.193907 178.382676 
L 293.518886 247.897509 
L 293.843866 202.940435 
L 294.168845 174.929 
L 294.818804 214.217801 
L 295.143784 241.214752 
L 295.468763 237.856142 
L 295.793743 236.042251 
L 296.118722 194.721751 
L 296.443702 122.095045 
L 297.093661 233.938288 
L 297.41864 214.872552 
L 297.74362 176.046779 
L 298.0686 185.359265 
L 298.393579 171.204833 
L 298.718559 178.305248 
L 299.043538 160.30618 
L 299.368518 168.34618 
L 299.693497 125.905601 
L 300.018477 132.766437 
L 300.343456 201.959312 
L 300.668436 157.017 
L 300.993415 156.073379 
L 301.318395 181.551711 
L 301.643374 189.049407 
L 301.968354 171.861701 
L 302.618313 222.422038 
L 302.943292 163.685973 
L 303.268272 229.612774 
L 303.593251 248.340465 
L 304.24321 135.002008 
L 304.56819 157.829593 
L 304.89317 155.678008 
L 305.218149 161.812179 
L 305.543129 197.994576 
L 305.868108 219.301559 
L 306.193088 140.20007 
L 306.518067 100.095493 
L 306.843047 156.881068 
L 307.168026 128.150836 
L 307.493006 145.312609 
L 307.817985 177.620236 
L 308.142965 157.588478 
L 308.467944 162.755169 
L 308.792924 129.870487 
L 309.117903 187.256598 
L 309.442883 193.91641 
L 309.767862 151.853053 
L 310.092842 239.354019 
L 310.417821 137.491611 
L 310.742801 164.575118 
L 311.067781 164.988242 
L 311.39276 210.171561 
L 311.71774 212.572377 
L 312.042719 160.821594 
L 312.367699 201.250358 
L 312.692678 163.153514 
L 313.017658 162.687459 
L 313.342637 156.721469 
L 313.667617 181.071321 
L 313.992596 168.683224 
L 314.642555 182.585275 
L 314.967535 201.687776 
L 315.292514 227.610808 
L 315.617494 125.653778 
L 315.942473 226.501551 
L 316.267453 151.173003 
L 316.592432 195.237423 
L 316.917412 148.00553 
L 317.242391 157.434488 
L 317.567371 192.314068 
L 317.892351 208.09947 
L 318.21733 193.269798 
L 318.54231 148.758853 
L 318.867289 169.769915 
L 319.192269 252.123344 
L 319.517248 214.916187 
L 319.842228 240.654846 
L 320.167207 206.235208 
L 320.492187 201.164518 
L 320.817166 205.517549 
L 321.142146 196.963331 
L 321.467125 173.531838 
L 321.792105 189.083154 
L 322.117084 156.450628 
L 322.442064 156.343656 
L 322.767043 179.607801 
L 323.417002 237.532891 
L 323.741982 202.558009 
L 324.066962 185.972812 
L 324.391941 158.698134 
L 324.716921 170.056021 
L 325.0419 218.927631 
L 325.691859 175.752568 
L 326.016839 222.998652 
L 326.341818 239.948469 
L 326.666798 202.756923 
L 326.991777 203.249067 
L 327.316757 239.957882 
L 327.641736 210.957133 
L 327.966716 208.93972 
L 328.291695 173.877842 
L 328.616675 175.595796 
L 328.941654 161.874872 
L 329.266634 202.952781 
L 329.591613 225.045282 
L 329.916593 198.130208 
L 330.241572 131.523863 
L 330.566552 171.24884 
L 330.891532 179.328475 
L 331.216511 178.197233 
L 331.541491 151.712075 
L 331.86647 186.97341 
L 332.19145 237.951221 
L 332.516429 216.354544 
L 332.841409 177.353902 
L 333.166388 208.225085 
L 333.491368 221.397663 
L 333.816347 214.476065 
L 334.141327 177.137461 
L 334.466306 221.900103 
L 334.791286 188.971562 
L 335.116265 183.325402 
L 335.441245 156.488194 
L 335.766224 247.432875 
L 336.091204 232.795211 
L 336.416183 178.820962 
L 336.741163 157.485362 
L 337.066143 178.593606 
L 337.391122 169.41289 
L 337.716102 187.121133 
L 338.366061 136.900707 
L 338.69104 195.698625 
L 339.01602 182.397574 
L 339.340999 206.866766 
L 339.665979 261.226426 
L 339.990958 194.150401 
L 340.315938 197.612921 
L 340.640917 194.403573 
L 340.965897 214.862433 
L 341.290876 150.312703 
L 341.615856 205.910638 
L 341.940835 175.694888 
L 342.265815 169.22963 
L 342.590794 230.740767 
L 342.915774 221.175499 
L 343.240753 146.142074 
L 343.565733 213.063496 
L 343.890713 202.839884 
L 344.215692 140.772344 
L 344.540672 138.345322 
L 344.865651 124.799596 
L 345.190631 200.519431 
L 345.51561 195.592865 
L 345.84059 129.565394 
L 346.165569 178.293953 
L 346.490549 191.732217 
L 346.815528 137.821881 
L 347.140508 207.052656 
L 347.465487 140.538856 
L 347.790467 208.764236 
L 348.115446 213.901547 
L 348.440426 252.408504 
L 349.090385 166.521629 
L 349.740344 208.183948 
L 350.065324 257.451957 
L 350.390303 268.511063 
L 350.715283 201.747157 
L 351.040262 213.060157 
L 351.365242 174.738398 
L 351.690221 154.717517 
L 352.015201 181.957705 
L 352.34018 164.116022 
L 352.66516 175.49145 
L 353.315119 212.654019 
L 353.640098 205.142685 
L 353.965078 168.783124 
L 354.290057 203.391539 
L 354.615037 220.826927 
L 354.940016 166.636879 
L 355.264996 67.762732 
L 355.914955 141.361278 
L 356.239934 127.854833 
L 356.564914 165.01717 
L 356.889894 94.09133 
L 357.864832 187.1743 
L 358.189812 161.589715 
L 358.514791 198.51741 
L 358.839771 104.5967 
L 359.48973 204.440506 
L 359.814709 211.691391 
L 360.139689 175.997475 
L 360.464668 243.468239 
L 360.789648 233.04365 
L 361.114627 155.60792 
L 361.439607 216.399957 
L 361.764586 235.506985 
L 362.089566 172.00501 
L 362.414545 203.74522 
L 362.739525 160.612828 
L 363.064505 183.689481 
L 363.389484 182.587486 
L 363.714464 218.804209 
L 364.039443 230.216298 
L 364.364423 225.27557 
L 364.689402 190.855339 
L 365.014382 233.378475 
L 365.339361 165.365667 
L 365.664341 162.15679 
L 365.98932 173.023652 
L 366.3143 162.706343 
L 366.639279 177.823144 
L 366.964259 140.369222 
L 367.289238 180.211536 
L 367.939197 166.26223 
L 368.264177 139.107491 
L 368.589156 190.764433 
L 368.914136 172.56475 
L 369.239115 192.779281 
L 369.564095 172.805406 
L 369.889075 208.212973 
L 370.214054 174.840468 
L 370.539034 169.878895 
L 370.864013 141.861878 
L 371.188993 226.937071 
L 371.513972 200.911696 
L 371.838952 197.778096 
L 372.163931 175.166984 
L 372.488911 127.590679 
L 372.81389 189.177122 
L 373.13887 208.739363 
L 373.463849 178.003462 
L 373.788829 219.184455 
L 374.113808 165.844431 
L 374.438788 152.939588 
L 374.763767 198.940443 
L 375.088747 203.865798 
L 375.413726 190.246446 
L 375.738706 211.261938 
L 376.063686 202.324833 
L 376.388665 183.555204 
L 376.713645 200.225397 
L 377.038624 204.895698 
L 377.363604 236.02647 
L 377.688583 203.119056 
L 378.013563 236.860586 
L 378.338542 191.488744 
L 378.663522 202.995683 
L 378.988501 171.815729 
L 379.313481 181.975909 
L 379.63846 212.999833 
L 379.96344 191.067484 
L 380.288419 200.596234 
L 380.938378 127.29501 
L 381.263358 124.50849 
L 381.588337 106.479973 
L 381.913317 133.271861 
L 382.238296 138.692373 
L 382.563276 191.956216 
L 382.888256 201.823077 
L 383.213235 117.961521 
L 383.538215 166.744149 
L 383.863194 174.913077 
L 384.188174 228.753574 
L 384.513153 229.218095 
L 384.838133 232.570359 
L 385.163112 175.125209 
L 385.488092 203.51672 
L 385.813071 154.700464 
L 386.46303 254.481032 
L 386.78801 218.202508 
L 387.112989 213.284029 
L 387.437969 228.552959 
L 387.762948 200.062281 
L 388.087928 197.959795 
L 388.412907 234.785996 
L 388.737887 212.915326 
L 389.062867 177.834074 
L 389.387846 204.031311 
L 389.712826 171.193868 
L 390.037805 174.656419 
L 390.362785 208.938118 
L 390.687764 216.293066 
L 391.012744 217.219712 
L 391.337723 227.388784 
L 391.662703 169.832408 
L 391.987682 213.531278 
L 392.312662 180.994522 
L 392.637641 175.622903 
L 392.962621 167.509887 
L 393.2876 210.691127 
L 393.61258 194.982137 
L 393.937559 156.114058 
L 394.262539 227.847389 
L 394.587518 210.245419 
L 394.912498 198.875426 
L 395.237477 203.723121 
L 395.562457 236.723447 
L 395.887437 173.635249 
L 396.212416 189.664003 
L 396.862375 173.207436 
L 397.512334 201.80594 
L 397.837314 276.590263 
L 398.162293 242.684035 
L 398.487273 240.068535 
L 398.487273 240.068535 
" clip-path="url(#p5301314b52)" style="fill: none; stroke: #1f77b4; stroke-width: 1.5; stroke-linecap: square"/>
   </g>
   <g id="patch_3">
    <path d="M 57.6 307.584 
L 57.6 41.472 
" style="fill: none; stroke: #000000; stroke-width: 0.8; stroke-linejoin: miter; stroke-linecap: square"/>
   </g>
   <g id="patch_4">
    <path d="M 414.72 307.584 
L 414.72 41.472 
" style="fill: none; stroke: #000000; stroke-width: 0.8; stroke-linejoin: miter; stroke-linecap: square"/>
   </g>
   <g id="patch_5">
    <path d="M 57.6 307.584 
L 414.72 307.584 
" style="fill: none; stroke: #000000; stroke-width: 0.8; stroke-linejoin: miter; stroke-linecap: square"/>
   </g>
   <g id="patch_6">
    <path d="M 57.6 41.472 
L 414.72 41.472 
" style="fill: none; stroke: #000000; stroke-width: 0.8; stroke-linejoin: miter; stroke-linecap: square"/>
   </g>
  </g>
 </g>
 <defs>
  <clipPath id="p5301314b52">
   <rect x="57.6" y="41.472" width="357.12" height="266.112"/>
  </clipPath>
 </defs>
</svg>
