<?xml version="1.0" encoding="utf-8" standalone="no"?>
<!DOCTYPE svg PUBLIC "-//W3C//DTD SVG 1.1//EN"
  "http://www.w3.org/Graphics/SVG/1.1/DTD/svg11.dtd">
<svg xmlns:xlink="http://www.w3.org/1999/xlink" width="460.8pt" height="345.6pt" viewBox="0 0 460.8 345.6" xmlns="http://www.w3.org/2000/svg" version="1.1">
 <metadata>
  <rdf:RDF xmlns:dc="http://purl.org/dc/elements/1.1/" xmlns:cc="http://creativecommons.org/ns#" xmlns:rdf="http://www.w3.org/1999/02/22-rdf-syntax-ns#">
   <cc:Work>
    <dc:type rdf:resource="http://purl.org/dc/dcmitype/StillImage"/>
    <dc:date>2026-02-02T15:33:51.284636</dc:date>
    <dc:format>image/svg+xml</dc:format>
    <dc:creator>
     <cc:Agent>
      <dc:title>Matplotlib v3.10.8, https://matplotlib.org/</dc:title>
     </cc:Agent>
    </dc:creator>
   </cc:Work>
  </rdf:RDF>
 </metadata>
 <defs>
  <style type="text/css">*{stroke-linejoin: round; stroke-linecap: butt}</style>
 </defs>
 <g id="figure_1">
  <g id="patch_1">
   <path d="M 0 345.6 
L 460.8 345.6 
L 460.8 0 
L 0 0 
z
" style="fill: #ffffff"/>
  </g>
  <g id="axes_1">
   <g id="patch_2">
    <path d="M 80.8 266.245 
L 410.94 266.245 
L 410.94 25.92 
L 80.8 25.92 
z
" style="fill: #ffffff"/>
   </g>
   <g id="matplotlib.axis_1">
    <g id="xtick_1">
     <g id="line2d_1">
      <path d="M 80.8 266.245 
L 80.8 25.92 
" clip-path="url(#pb7c69042a7)" style="fill: none; stroke: #b0b0b0; stroke-width: 0.8; stroke-linecap: square"/>
     </g>
     <g id="line2d_2">
      <defs>
       <path id="me736f03ab0" d="M 0 0 
L 0 3.5 
" style="stroke: #000000; stroke-width: 0.8"/>
      </defs>
      <g>
       <use xlink:href="#me736f03ab0" x="80.8" y="266.245" style="stroke: #000000; stroke-width: 0.8"/>
      </g>
     </g>
     <g id="text_1">
      <!-- 0 -->
      <g transform="translate(74.8 289.63625) scale(0.24 -0.24)">
       <defs>
        <path id="TeXGyreTermes-Regular-30" d="M 3046 2112 
C 3046 3424 2464 4326 1626 4326 
C 1274 4326 1005 4218 768 3994 
C 397 3635 154 2899 154 2150 
C 154 1453 365 704 666 346 
C 902 64 1229 -90 1600 -90 
C 1926 -90 2202 19 2432 243 
C 2803 595 3046 1338 3046 2112 
z
M 2432 2099 
C 2432 762 2150 77 1600 77 
C 1050 77 768 762 768 2093 
C 768 3450 1056 4160 1606 4160 
C 2144 4160 2432 3437 2432 2099 
z
" transform="scale(0.015625)"/>
       </defs>
       <use xlink:href="#TeXGyreTermes-Regular-30"/>
      </g>
     </g>
    </g>
    <g id="xtick_2">
     <g id="line2d_3">
      <path d="M 163.335 266.245 
L 163.335 25.92 
" clip-path="url(#pb7c69042a7)" style="fill: none; stroke: #b0b0b0; stroke-width: 0.8; stroke-linecap: square"/>
     </g>
     <g id="line2d_4">
      <g>
       <use xlink:href="#me736f03ab0" x="163.335" y="266.245" style="stroke: #000000; stroke-width: 0.8"/>
      </g>
     </g>
     <g id="text_2">
      <!-- 250 -->
      <g transform="translate(145.335 289.63625) scale(0.24 -0.24)">
       <defs>
        <path id="TeXGyreTermes-Regular-32" d="M 3040 877 
L 2957 909 
C 2720 544 2637 486 2349 486 
L 819 486 
L 1894 1613 
C 2464 2208 2714 2694 2714 3194 
C 2714 3834 2195 4326 1530 4326 
C 1178 4326 845 4186 608 3930 
C 403 3712 307 3507 198 3053 
L 333 3021 
C 589 3648 819 3853 1261 3853 
C 1798 3853 2163 3488 2163 2950 
C 2163 2451 1869 1856 1331 1286 
L 192 77 
L 192 0 
L 2688 0 
L 3040 877 
z
" transform="scale(0.015625)"/>
        <path id="TeXGyreTermes-Regular-35" d="M 2803 4358 
L 2746 4403 
C 2650 4269 2586 4237 2451 4237 
L 1114 4237 
L 416 2720 
C 410 2707 410 2688 410 2688 
C 410 2656 435 2637 486 2637 
C 691 2637 947 2592 1210 2509 
C 1946 2272 2285 1875 2285 1242 
C 2285 627 1894 147 1395 147 
C 1267 147 1158 192 966 333 
C 762 480 614 544 480 544 
C 294 544 205 467 205 307 
C 205 64 506 -90 986 -90 
C 1523 -90 1984 83 2304 410 
C 2598 698 2733 1062 2733 1549 
C 2733 2010 2611 2304 2291 2624 
C 2010 2906 1645 3053 890 3187 
L 1158 3731 
L 2413 3731 
C 2515 3731 2541 3744 2560 3789 
L 2803 4358 
z
" transform="scale(0.015625)"/>
       </defs>
       <use xlink:href="#TeXGyreTermes-Regular-32"/>
       <use xlink:href="#TeXGyreTermes-Regular-35" transform="translate(49.999985 0)"/>
       <use xlink:href="#TeXGyreTermes-Regular-30" transform="translate(99.999969 0)"/>
      </g>
     </g>
    </g>
    <g id="xtick_3">
     <g id="line2d_5">
      <path d="M 245.87 266.245 
L 245.87 25.92 
" clip-path="url(#pb7c69042a7)" style="fill: none; stroke: #b0b0b0; stroke-width: 0.8; stroke-linecap: square"/>
     </g>
     <g id="line2d_6">
      <g>
       <use xlink:href="#me736f03ab0" x="245.87" y="266.245" style="stroke: #000000; stroke-width: 0.8"/>
      </g>
     </g>
     <g id="text_3">
      <!-- 500 -->
      <g transform="translate(227.87 289.63625) scale(0.24 -0.24)">
       <use xlink:href="#TeXGyreTermes-Regular-35"/>
       <use xlink:href="#TeXGyreTermes-Regular-30" transform="translate(49.999985 0)"/>
       <use xlink:href="#TeXGyreTermes-Regular-30" transform="translate(99.999969 0)"/>
      </g>
     </g>
    </g>
    <g id="xtick_4">
     <g id="line2d_7">
      <path d="M 328.405 266.245 
L 328.405 25.92 
" clip-path="url(#pb7c69042a7)" style="fill: none; stroke: #b0b0b0; stroke-width: 0.8; stroke-linecap: square"/>
     </g>
     <g id="line2d_8">
      <g>
       <use xlink:href="#me736f03ab0" x="328.405" y="266.245" style="stroke: #000000; stroke-width: 0.8"/>
      </g>
     </g>
     <g id="text_4">
      <!-- 750 -->
      <g transform="translate(310.405 289.63625) scale(0.24 -0.24)">
       <defs>
        <path id="TeXGyreTermes-Regular-37" d="M 2874 4134 
L 2874 4237 
L 506 4237 
L 128 3296 
L 237 3245 
C 512 3680 627 3763 979 3763 
L 2368 3763 
L 1101 -51 
L 1517 -51 
L 2874 4134 
z
" transform="scale(0.015625)"/>
       </defs>
       <use xlink:href="#TeXGyreTermes-Regular-37"/>
       <use xlink:href="#TeXGyreTermes-Regular-35" transform="translate(49.999985 0)"/>
       <use xlink:href="#TeXGyreTermes-Regular-30" transform="translate(99.999969 0)"/>
      </g>
     </g>
    </g>
    <g id="xtick_5">
     <g id="line2d_9">
      <path d="M 410.94 266.245 
L 410.94 25.92 
" clip-path="url(#pb7c69042a7)" style="fill: none; stroke: #b0b0b0; stroke-width: 0.8; stroke-linecap: square"/>
     </g>
     <g id="line2d_10">
      <g>
       <use xlink:href="#me736f03ab0" x="410.94" y="266.245" style="stroke: #000000; stroke-width: 0.8"/>
      </g>
     </g>
     <g id="text_5">
      <!-- 1000 -->
      <g transform="translate(386.94 289.63625) scale(0.24 -0.24)">
       <defs>
        <path id="TeXGyreTermes-Regular-31" d="M 2522 0 
L 2522 96 
C 2016 102 1914 166 1914 474 
L 1914 4314 
L 1862 4326 
L 710 3744 
L 710 3654 
C 787 3686 858 3712 883 3725 
C 998 3770 1107 3795 1171 3795 
C 1306 3795 1363 3699 1363 3494 
L 1363 595 
C 1363 384 1312 237 1210 179 
C 1114 122 1024 102 755 96 
L 755 0 
L 2522 0 
z
" transform="scale(0.015625)"/>
       </defs>
       <use xlink:href="#TeXGyreTermes-Regular-31"/>
       <use xlink:href="#TeXGyreTermes-Regular-30" transform="translate(49.999985 0)"/>
       <use xlink:href="#TeXGyreTermes-Regular-30" transform="translate(99.999969 0)"/>
       <use xlink:href="#TeXGyreTermes-Regular-30" transform="translate(149.999954 0)"/>
      </g>
     </g>
    </g>
    <g id="text_6">
     <!-- Schritt k -->
     <g transform="translate(204.8675 315.23625) scale(0.24 -0.24)">
      <defs>
       <path id="TeXGyreTermes-Regular-53" d="M 3142 1075 
C 3142 1606 2790 2016 1946 2477 
C 1274 2842 1005 3123 1005 3475 
C 1005 3827 1274 4064 1670 4064 
C 1958 4064 2227 3942 2451 3712 
C 2650 3507 2739 3341 2842 2963 
L 3002 2963 
L 2861 4326 
L 2726 4326 
C 2701 4186 2630 4109 2522 4109 
C 2458 4109 2355 4134 2240 4186 
C 2003 4275 1773 4326 1549 4326 
C 1299 4326 1030 4224 826 4058 
C 576 3853 454 3578 454 3226 
C 454 2720 736 2362 1453 1984 
C 1914 1734 2246 1478 2406 1235 
C 2464 1146 2496 1018 2496 858 
C 2496 435 2176 141 1709 141 
C 1133 141 736 493 416 1274 
L 269 1274 
L 461 -83 
L 602 -83 
C 608 38 685 128 781 128 
C 851 128 960 102 1082 58 
C 1325 -38 1581 -90 1837 -90 
C 2579 -90 3142 416 3142 1075 
z
" transform="scale(0.015625)"/>
       <path id="TeXGyreTermes-Regular-63" d="M 2637 941 
L 2547 998 
C 2240 550 2010 397 1645 397 
C 1056 397 653 909 653 1645 
C 653 2310 1005 2758 1523 2758 
C 1754 2758 1837 2688 1901 2451 
L 1939 2310 
C 1990 2125 2106 2016 2246 2016 
C 2413 2016 2547 2138 2547 2285 
C 2547 2643 2099 2944 1562 2944 
C 1261 2944 954 2829 698 2618 
C 352 2330 160 1888 160 1357 
C 160 531 666 -64 1376 -64 
C 1651 -64 1894 26 2112 205 
C 2304 358 2432 544 2637 941 
z
" transform="scale(0.015625)"/>
       <path id="TeXGyreTermes-Regular-68" d="M 3117 0 
L 3117 96 
C 2771 160 2733 211 2733 653 
L 2733 1926 
C 2733 2598 2464 2944 1946 2944 
C 1568 2944 1299 2790 1005 2406 
L 1005 4352 
L 973 4371 
C 755 4294 595 4243 237 4141 
L 64 4090 
L 64 3987 
C 90 3994 109 3994 141 3994 
C 416 3994 467 3942 467 3667 
L 467 653 
C 467 205 429 147 58 96 
L 58 0 
L 1440 0 
L 1440 96 
C 1069 134 1005 211 1005 653 
L 1005 2195 
C 1274 2490 1466 2598 1715 2598 
C 2035 2598 2195 2368 2195 1920 
L 2195 653 
C 2195 218 2131 134 1760 96 
L 1760 0 
L 3117 0 
z
" transform="scale(0.015625)"/>
       <path id="TeXGyreTermes-Regular-72" d="M 2144 2605 
C 2144 2816 2010 2944 1792 2944 
C 1523 2944 1338 2797 1024 2342 
L 1024 2931 
L 992 2944 
C 653 2803 422 2720 45 2598 
L 45 2496 
C 134 2515 192 2522 269 2522 
C 429 2522 486 2419 486 2138 
L 486 538 
C 486 218 442 173 32 96 
L 32 0 
L 1568 0 
L 1568 96 
C 1133 115 1024 211 1024 576 
L 1024 2016 
C 1024 2221 1299 2541 1472 2541 
C 1510 2541 1568 2509 1638 2445 
C 1741 2355 1811 2317 1894 2317 
C 2048 2317 2144 2426 2144 2605 
z
" transform="scale(0.015625)"/>
       <path id="TeXGyreTermes-Regular-69" d="M 1619 0 
L 1619 96 
C 1197 128 1146 192 1146 653 
L 1146 2925 
L 1120 2944 
L 128 2592 
L 128 2496 
L 179 2502 
C 256 2515 339 2522 397 2522 
C 550 2522 608 2419 608 2138 
L 608 653 
C 608 192 544 122 102 96 
L 102 0 
L 1619 0 
z
M 1203 3776 
C 1203 3955 1062 4102 877 4102 
C 698 4102 550 3955 550 3776 
C 550 3590 698 3450 877 3450 
C 1062 3450 1203 3590 1203 3776 
z
" transform="scale(0.015625)"/>
       <path id="TeXGyreTermes-Regular-74" d="M 1786 422 
L 1702 493 
C 1562 326 1459 269 1318 269 
C 1082 269 986 435 986 845 
L 986 2675 
L 1632 2675 
L 1632 2880 
L 986 2880 
L 986 3622 
C 986 3686 973 3706 941 3706 
C 902 3642 858 3584 813 3526 
C 576 3174 358 2938 192 2842 
C 122 2797 83 2758 83 2720 
C 83 2701 90 2688 109 2675 
L 448 2675 
L 448 749 
C 448 211 640 -64 1011 -64 
C 1331 -64 1574 90 1786 422 
z
" transform="scale(0.015625)"/>
       <path id="TeXGyreTermes-Regular-20" transform="scale(0.015625)"/>
       <path id="TeXGyreTermes-Regular-6b" d="M 3232 0 
L 3232 96 
C 2950 115 2752 237 2483 563 
L 1504 1805 
L 1690 1978 
C 2144 2400 2541 2694 2726 2746 
C 2822 2771 2912 2784 3021 2784 
L 3072 2784 
L 3072 2880 
L 1766 2880 
L 1766 2790 
C 2016 2784 2086 2758 2086 2669 
C 2086 2618 2029 2528 1939 2451 
L 1062 1670 
L 1062 4358 
L 1037 4371 
L 237 4141 
L 45 4090 
L 45 3987 
C 128 3994 186 4000 250 4000 
C 461 4000 525 3917 525 3610 
L 525 525 
C 525 192 506 173 45 96 
L 45 0 
L 1542 0 
L 1542 96 
L 1414 102 
C 1158 115 1062 205 1062 429 
L 1062 1606 
L 1958 410 
L 1978 384 
C 1990 365 2003 346 2022 326 
C 2074 262 2093 224 2093 192 
C 2093 134 2035 96 1958 96 
L 1837 96 
L 1837 0 
L 3232 0 
z
" transform="scale(0.015625)"/>
      </defs>
      <use xlink:href="#TeXGyreTermes-Regular-53"/>
      <use xlink:href="#TeXGyreTermes-Regular-63" transform="translate(55.599991 0)"/>
      <use xlink:href="#TeXGyreTermes-Regular-68" transform="translate(99.999985 0)"/>
      <use xlink:href="#TeXGyreTermes-Regular-72" transform="translate(149.999969 0)"/>
      <use xlink:href="#TeXGyreTermes-Regular-69" transform="translate(183.299957 0)"/>
      <use xlink:href="#TeXGyreTermes-Regular-74" transform="translate(211.099945 0)"/>
      <use xlink:href="#TeXGyreTermes-Regular-74" transform="translate(238.899933 0)"/>
      <use xlink:href="#TeXGyreTermes-Regular-20" transform="translate(266.699921 0)"/>
      <use xlink:href="#TeXGyreTermes-Regular-6b" transform="translate(291.699905 0)"/>
     </g>
    </g>
   </g>
   <g id="matplotlib.axis_2">
    <g id="ytick_1">
     <g id="line2d_11">
      <path d="M 80.8 246.934368 
L 410.94 246.934368 
" clip-path="url(#pb7c69042a7)" style="fill: none; stroke: #b0b0b0; stroke-width: 0.8; stroke-linecap: square"/>
     </g>
     <g id="line2d_12">
      <defs>
       <path id="md221bca8a6" d="M 0 0 
L -3.5 0 
" style="stroke: #000000; stroke-width: 0.8"/>
      </defs>
      <g>
       <use xlink:href="#md221bca8a6" x="80.8" y="246.934368" style="stroke: #000000; stroke-width: 0.8"/>
      </g>
     </g>
     <g id="text_7">
      <!-- 0 -->
      <g transform="translate(61.8 255.129993) scale(0.24 -0.24)">
       <use xlink:href="#TeXGyreTermes-Regular-30"/>
      </g>
     </g>
    </g>
    <g id="ytick_2">
     <g id="line2d_13">
      <path d="M 80.8 165.802241 
L 410.94 165.802241 
" clip-path="url(#pb7c69042a7)" style="fill: none; stroke: #b0b0b0; stroke-width: 0.8; stroke-linecap: square"/>
     </g>
     <g id="line2d_14">
      <g>
       <use xlink:href="#md221bca8a6" x="80.8" y="165.802241" style="stroke: #000000; stroke-width: 0.8"/>
      </g>
     </g>
     <g id="text_8">
      <!-- 2000 -->
      <g transform="translate(25.8 173.997866) scale(0.24 -0.24)">
       <use xlink:href="#TeXGyreTermes-Regular-32"/>
       <use xlink:href="#TeXGyreTermes-Regular-30" transform="translate(49.999985 0)"/>
       <use xlink:href="#TeXGyreTermes-Regular-30" transform="translate(99.999969 0)"/>
       <use xlink:href="#TeXGyreTermes-Regular-30" transform="translate(149.999954 0)"/>
      </g>
     </g>
    </g>
    <g id="ytick_3">
     <g id="line2d_15">
      <path d="M 80.8 84.670115 
L 410.94 84.670115 
" clip-path="url(#pb7c69042a7)" style="fill: none; stroke: #b0b0b0; stroke-width: 0.8; stroke-linecap: square"/>
     </g>
     <g id="line2d_16">
      <g>
       <use xlink:href="#md221bca8a6" x="80.8" y="84.670115" style="stroke: #000000; stroke-width: 0.8"/>
      </g>
     </g>
     <g id="text_9">
      <!-- 4000 -->
      <g transform="translate(25.8 92.86574) scale(0.24 -0.24)">
       <defs>
        <path id="TeXGyreTermes-Regular-34" d="M 3021 1069 
L 3021 1478 
L 2368 1478 
L 2368 4326 
L 2086 4326 
L 77 1478 
L 77 1069 
L 1875 1069 
L 1875 0 
L 2368 0 
L 2368 1069 
L 3021 1069 
z
M 1869 1478 
L 333 1478 
L 1869 3674 
L 1869 1478 
z
" transform="scale(0.015625)"/>
       </defs>
       <use xlink:href="#TeXGyreTermes-Regular-34"/>
       <use xlink:href="#TeXGyreTermes-Regular-30" transform="translate(49.999985 0)"/>
       <use xlink:href="#TeXGyreTermes-Regular-30" transform="translate(99.999969 0)"/>
       <use xlink:href="#TeXGyreTermes-Regular-30" transform="translate(149.999954 0)"/>
      </g>
     </g>
    </g>
   </g>
   <g id="line2d_17">
    <path d="M 80.8 246.934368 
L 81.46028 246.991126 
L 82.78084 246.915256 
L 84.1014 247.228225 
L 85.42196 247.834761 
L 86.74252 248.414035 
L 90.7042 249.432752 
L 93.34532 249.818525 
L 94.33574 249.754989 
L 97.307 250.310947 
L 98.62756 251.081887 
L 100.6084 252.743776 
L 101.59882 253.303166 
L 104.90022 254.384938 
L 105.5605 254.496161 
L 108.8619 255.321136 
L 109.52218 255.233538 
L 110.84274 254.867557 
L 111.83316 254.897511 
L 113.15372 254.953166 
L 114.14414 254.685473 
L 115.13456 254.522441 
L 115.79484 254.315455 
L 116.45512 254.363646 
L 118.10582 253.998939 
L 119.42638 253.710531 
L 121.40722 253.597187 
L 123.38806 253.098831 
L 124.70862 252.656678 
L 126.68946 252.355171 
L 127.67988 251.918228 
L 128.34016 251.58978 
L 129.99086 251.330296 
L 130.65114 251.292094 
L 133.95254 251.70979 
L 137.25394 251.374731 
L 138.24436 251.068127 
L 139.89506 250.591958 
L 140.88548 250.1891 
L 142.53618 249.345267 
L 143.5266 248.88592 
L 145.1773 248.231322 
L 146.16772 247.640678 
L 148.80884 247.046979 
L 152.77052 245.650471 
L 154.42122 244.925895 
L 155.41164 244.298737 
L 157.39248 243.560535 
L 158.3829 243.143839 
L 159.04318 242.954261 
L 160.0336 242.702369 
L 160.69388 242.626893 
L 164.32542 243.31363 
L 165.64598 243.394772 
L 166.6364 243.378838 
L 167.95696 243.045246 
L 170.26794 242.11617 
L 171.91864 241.14271 
L 174.22962 240.19729 
L 174.8899 239.935104 
L 177.20088 239.277316 
L 182.48312 237.447345 
L 184.46396 236.083099 
L 185.78452 235.265661 
L 186.4448 234.954167 
L 187.10508 234.60162 
L 188.75578 233.823948 
L 189.41606 233.572125 
L 190.40648 232.957301 
L 193.70788 231.637888 
L 194.36816 231.260417 
L 195.02844 230.994352 
L 198.32984 229.100345 
L 200.97096 228.075774 
L 201.63124 227.80523 
L 203.28194 227.223652 
L 203.94222 227.037801 
L 206.2532 225.644976 
L 206.91348 225.259574 
L 207.57376 225.167799 
L 208.23404 225.057477 
L 208.89432 224.825703 
L 209.5546 224.625302 
L 210.54502 224.067896 
L 211.53544 223.711068 
L 213.84642 222.695858 
L 215.16698 221.922009 
L 218.79852 219.419123 
L 220.11908 218.915652 
L 221.1095 218.512828 
L 227.38216 214.634919 
L 229.363 213.420729 
L 230.68356 212.605406 
L 232.6644 211.169336 
L 239.59734 205.38754 
L 240.58776 204.758271 
L 241.57818 204.048455 
L 242.5686 202.966545 
L 247.19056 198.224385 
L 252.14266 193.681267 
L 255.7742 191.593418 
L 257.09476 190.855374 
L 259.0756 189.644065 
L 260.06602 188.931577 
L 264.0277 185.622393 
L 265.01812 184.853859 
L 265.6784 184.496529 
L 266.99896 183.806595 
L 270.30036 182.205668 
L 272.61134 180.549439 
L 275.25246 178.346671 
L 278.55386 175.664918 
L 279.54428 174.594246 
L 281.52512 171.887246 
L 282.51554 170.64389 
L 283.50596 169.31794 
L 287.1375 163.657993 
L 289.77862 158.844031 
L 291.42932 155.622688 
L 293.08002 152.987753 
L 296.05128 147.912668 
L 304.30478 135.991044 
L 306.9459 133.199765 
L 307.60618 132.500446 
L 308.5966 131.514388 
L 310.57744 129.342983 
L 313.5487 125.451901 
L 316.18982 122.582262 
L 318.83094 119.027351 
L 323.4529 112.522686 
L 324.77346 110.757216 
L 327.74472 106.904157 
L 330.0557 103.918171 
L 330.71598 103.13871 
L 332.36668 101.598918 
L 333.68724 100.247328 
L 334.67766 99.138719 
L 335.99822 97.897248 
L 337.31878 96.583596 
L 338.63934 95.552163 
L 339.9599 94.653127 
L 342.93116 92.053667 
L 343.92158 91.123393 
L 349.8641 86.69374 
L 350.85452 85.743323 
L 351.84494 85.073968 
L 355.80662 82.291535 
L 357.45732 80.721465 
L 359.43816 78.685687 
L 360.42858 77.906536 
L 362.73956 76.539752 
L 363.39984 76.205388 
L 366.3711 74.153815 
L 367.03138 73.751216 
L 368.68208 71.769726 
L 370.33278 69.541007 
L 370.99306 68.691516 
L 371.98348 67.488185 
L 372.64376 66.822633 
L 374.6246 65.137877 
L 375.94516 63.943499 
L 378.25614 62.273809 
L 380.23698 60.327578 
L 381.55754 58.938474 
L 383.86852 56.685564 
L 384.85894 55.71373 
L 387.16992 53.520124 
L 389.4809 51.634861 
L 392.7823 49.542659 
L 393.44258 48.972466 
L 394.433 47.774377 
L 395.75356 46.222632 
L 396.74398 45.132452 
L 399.3851 43.054372 
L 401.69608 41.763943 
L 406.31804 39.082841 
L 406.97832 38.668362 
L 410.60986 36.843864 
L 410.60986 36.843864 
" clip-path="url(#pb7c69042a7)" style="fill: none; stroke: #1f77b4; stroke-width: 2; stroke-linecap: square"/>
   </g>
   <g id="patch_3">
    <path d="M 80.8 266.245 
L 80.8 25.92 
" style="fill: none; stroke: #000000; stroke-width: 0.8; stroke-linejoin: miter; stroke-linecap: square"/>
   </g>
   <g id="patch_4">
    <path d="M 410.94 266.245 
L 410.94 25.92 
" style="fill: none; stroke: #000000; stroke-width: 0.8; stroke-linejoin: miter; stroke-linecap: square"/>
   </g>
   <g id="patch_5">
    <path d="M 80.8 266.245 
L 410.94 266.245 
" style="fill: none; stroke: #000000; stroke-width: 0.8; stroke-linejoin: miter; stroke-linecap: square"/>
   </g>
   <g id="patch_6">
    <path d="M 80.8 25.92 
L 410.94 25.92 
" style="fill: none; stroke: #000000; stroke-width: 0.8; stroke-linejoin: miter; stroke-linecap: square"/>
   </g>
  </g>
 </g>
 <defs>
  <clipPath id="pb7c69042a7">
   <rect x="80.8" y="25.92" width="330.14" height="240.325"/>
  </clipPath>
 </defs>
</svg>
