<?xml version="1.0" encoding="utf-8" standalone="no"?>
<!DOCTYPE svg PUBLIC "-//W3C//DTD SVG 1.1//EN"
  "http://www.w3.org/Graphics/SVG/1.1/DTD/svg11.dtd">
<svg xmlns:xlink="http://www.w3.org/1999/xlink" width="460.8pt" height="345.6pt" viewBox="0 0 460.8 345.6" xmlns="http://www.w3.org/2000/svg" version="1.1">
 <metadata>
  <rdf:RDF xmlns:dc="http://purl.org/dc/elements/1.1/" xmlns:cc="http://creativecommons.org/ns#" xmlns:rdf="http://www.w3.org/1999/02/22-rdf-syntax-ns#">
   <cc:Work>
    <dc:type rdf:resource="http://purl.org/dc/dcmitype/StillImage"/>
    <dc:date>2026-02-02T15:33:52.088685</dc:date>
    <dc:format>image/svg+xml</dc:format>
    <dc:creator>
     <cc:Agent>
      <dc:title>Matplotlib v3.10.8, https://matplotlib.org/</dc:title>
     </cc:Agent>
    </dc:creator>
   </cc:Work>
  </rdf:RDF>
 </metadata>
 <defs>
  <style type="text/css">*{stroke-linejoin: round; stroke-linecap: butt}</style>
 </defs>
 <g id="figure_1">
  <g id="patch_1">
   <path d="M 0 345.6 
L 460.8 345.6 
L 460.8 0 
L 0 0 
z
" style="fill: #ffffff"/>
  </g>
  <g id="axes_1">
   <g id="patch_2">
    <path d="M 58.39 266.245 
L 426.847748 266.245 
L 426.847748 25.92 
L 58.39 25.92 
z
" style="fill: #ffffff"/>
   </g>
   <g id="matplotlib.axis_1">
    <g id="xtick_1">
     <g id="line2d_1">
      <path d="M 75.138079 266.245 
L 75.138079 25.92 
" clip-path="url(#pfd1e3f7ade)" style="fill: none; stroke: #b0b0b0; stroke-width: 0.8; stroke-linecap: square"/>
     </g>
     <g id="line2d_2">
      <defs>
       <path id="mbdf0701436" d="M 0 0 
L 0 3.5 
" style="stroke: #000000; stroke-width: 0.8"/>
      </defs>
      <g>
       <use xlink:href="#mbdf0701436" x="75.138079" y="266.245" style="stroke: #000000; stroke-width: 0.8"/>
      </g>
     </g>
     <g id="text_1">
      <!-- 0 -->
      <g transform="translate(69.138079 289.63625) scale(0.24 -0.24)">
       <defs>
        <path id="TeXGyreTermes-Regular-30" d="M 3046 2112 
C 3046 3424 2464 4326 1626 4326 
C 1274 4326 1005 4218 768 3994 
C 397 3635 154 2899 154 2150 
C 154 1453 365 704 666 346 
C 902 64 1229 -90 1600 -90 
C 1926 -90 2202 19 2432 243 
C 2803 595 3046 1338 3046 2112 
z
M 2432 2099 
C 2432 762 2150 77 1600 77 
C 1050 77 768 762 768 2093 
C 768 3450 1056 4160 1606 4160 
C 2144 4160 2432 3437 2432 2099 
z
" transform="scale(0.015625)"/>
       </defs>
       <use xlink:href="#TeXGyreTermes-Regular-30"/>
      </g>
     </g>
    </g>
    <g id="xtick_2">
     <g id="line2d_3">
      <path d="M 158.962301 266.245 
L 158.962301 25.92 
" clip-path="url(#pfd1e3f7ade)" style="fill: none; stroke: #b0b0b0; stroke-width: 0.8; stroke-linecap: square"/>
     </g>
     <g id="line2d_4">
      <g>
       <use xlink:href="#mbdf0701436" x="158.962301" y="266.245" style="stroke: #000000; stroke-width: 0.8"/>
      </g>
     </g>
     <g id="text_2">
      <!-- 250 -->
      <g transform="translate(140.962301 289.63625) scale(0.24 -0.24)">
       <defs>
        <path id="TeXGyreTermes-Regular-32" d="M 3040 877 
L 2957 909 
C 2720 544 2637 486 2349 486 
L 819 486 
L 1894 1613 
C 2464 2208 2714 2694 2714 3194 
C 2714 3834 2195 4326 1530 4326 
C 1178 4326 845 4186 608 3930 
C 403 3712 307 3507 198 3053 
L 333 3021 
C 589 3648 819 3853 1261 3853 
C 1798 3853 2163 3488 2163 2950 
C 2163 2451 1869 1856 1331 1286 
L 192 77 
L 192 0 
L 2688 0 
L 3040 877 
z
" transform="scale(0.015625)"/>
        <path id="TeXGyreTermes-Regular-35" d="M 2803 4358 
L 2746 4403 
C 2650 4269 2586 4237 2451 4237 
L 1114 4237 
L 416 2720 
C 410 2707 410 2688 410 2688 
C 410 2656 435 2637 486 2637 
C 691 2637 947 2592 1210 2509 
C 1946 2272 2285 1875 2285 1242 
C 2285 627 1894 147 1395 147 
C 1267 147 1158 192 966 333 
C 762 480 614 544 480 544 
C 294 544 205 467 205 307 
C 205 64 506 -90 986 -90 
C 1523 -90 1984 83 2304 410 
C 2598 698 2733 1062 2733 1549 
C 2733 2010 2611 2304 2291 2624 
C 2010 2906 1645 3053 890 3187 
L 1158 3731 
L 2413 3731 
C 2515 3731 2541 3744 2560 3789 
L 2803 4358 
z
" transform="scale(0.015625)"/>
       </defs>
       <use xlink:href="#TeXGyreTermes-Regular-32"/>
       <use xlink:href="#TeXGyreTermes-Regular-35" transform="translate(49.999985 0)"/>
       <use xlink:href="#TeXGyreTermes-Regular-30" transform="translate(99.999969 0)"/>
      </g>
     </g>
    </g>
    <g id="xtick_3">
     <g id="line2d_5">
      <path d="M 242.786522 266.245 
L 242.786522 25.92 
" clip-path="url(#pfd1e3f7ade)" style="fill: none; stroke: #b0b0b0; stroke-width: 0.8; stroke-linecap: square"/>
     </g>
     <g id="line2d_6">
      <g>
       <use xlink:href="#mbdf0701436" x="242.786522" y="266.245" style="stroke: #000000; stroke-width: 0.8"/>
      </g>
     </g>
     <g id="text_3">
      <!-- 500 -->
      <g transform="translate(224.786522 289.63625) scale(0.24 -0.24)">
       <use xlink:href="#TeXGyreTermes-Regular-35"/>
       <use xlink:href="#TeXGyreTermes-Regular-30" transform="translate(49.999985 0)"/>
       <use xlink:href="#TeXGyreTermes-Regular-30" transform="translate(99.999969 0)"/>
      </g>
     </g>
    </g>
    <g id="xtick_4">
     <g id="line2d_7">
      <path d="M 326.610744 266.245 
L 326.610744 25.92 
" clip-path="url(#pfd1e3f7ade)" style="fill: none; stroke: #b0b0b0; stroke-width: 0.8; stroke-linecap: square"/>
     </g>
     <g id="line2d_8">
      <g>
       <use xlink:href="#mbdf0701436" x="326.610744" y="266.245" style="stroke: #000000; stroke-width: 0.8"/>
      </g>
     </g>
     <g id="text_4">
      <!-- 750 -->
      <g transform="translate(308.610744 289.63625) scale(0.24 -0.24)">
       <defs>
        <path id="TeXGyreTermes-Regular-37" d="M 2874 4134 
L 2874 4237 
L 506 4237 
L 128 3296 
L 237 3245 
C 512 3680 627 3763 979 3763 
L 2368 3763 
L 1101 -51 
L 1517 -51 
L 2874 4134 
z
" transform="scale(0.015625)"/>
       </defs>
       <use xlink:href="#TeXGyreTermes-Regular-37"/>
       <use xlink:href="#TeXGyreTermes-Regular-35" transform="translate(49.999985 0)"/>
       <use xlink:href="#TeXGyreTermes-Regular-30" transform="translate(99.999969 0)"/>
      </g>
     </g>
    </g>
    <g id="xtick_5">
     <g id="line2d_9">
      <path d="M 410.434965 266.245 
L 410.434965 25.92 
" clip-path="url(#pfd1e3f7ade)" style="fill: none; stroke: #b0b0b0; stroke-width: 0.8; stroke-linecap: square"/>
     </g>
     <g id="line2d_10">
      <g>
       <use xlink:href="#mbdf0701436" x="410.434965" y="266.245" style="stroke: #000000; stroke-width: 0.8"/>
      </g>
     </g>
     <g id="text_5">
      <!-- 1000 -->
      <g transform="translate(386.434965 289.63625) scale(0.24 -0.24)">
       <defs>
        <path id="TeXGyreTermes-Regular-31" d="M 2522 0 
L 2522 96 
C 2016 102 1914 166 1914 474 
L 1914 4314 
L 1862 4326 
L 710 3744 
L 710 3654 
C 787 3686 858 3712 883 3725 
C 998 3770 1107 3795 1171 3795 
C 1306 3795 1363 3699 1363 3494 
L 1363 595 
C 1363 384 1312 237 1210 179 
C 1114 122 1024 102 755 96 
L 755 0 
L 2522 0 
z
" transform="scale(0.015625)"/>
       </defs>
       <use xlink:href="#TeXGyreTermes-Regular-31"/>
       <use xlink:href="#TeXGyreTermes-Regular-30" transform="translate(49.999985 0)"/>
       <use xlink:href="#TeXGyreTermes-Regular-30" transform="translate(99.999969 0)"/>
       <use xlink:href="#TeXGyreTermes-Regular-30" transform="translate(149.999954 0)"/>
      </g>
     </g>
    </g>
    <g id="text_6">
     <!-- Schritt k -->
     <g transform="translate(201.616374 315.23625) scale(0.24 -0.24)">
      <defs>
       <path id="TeXGyreTermes-Regular-53" d="M 3142 1075 
C 3142 1606 2790 2016 1946 2477 
C 1274 2842 1005 3123 1005 3475 
C 1005 3827 1274 4064 1670 4064 
C 1958 4064 2227 3942 2451 3712 
C 2650 3507 2739 3341 2842 2963 
L 3002 2963 
L 2861 4326 
L 2726 4326 
C 2701 4186 2630 4109 2522 4109 
C 2458 4109 2355 4134 2240 4186 
C 2003 4275 1773 4326 1549 4326 
C 1299 4326 1030 4224 826 4058 
C 576 3853 454 3578 454 3226 
C 454 2720 736 2362 1453 1984 
C 1914 1734 2246 1478 2406 1235 
C 2464 1146 2496 1018 2496 858 
C 2496 435 2176 141 1709 141 
C 1133 141 736 493 416 1274 
L 269 1274 
L 461 -83 
L 602 -83 
C 608 38 685 128 781 128 
C 851 128 960 102 1082 58 
C 1325 -38 1581 -90 1837 -90 
C 2579 -90 3142 416 3142 1075 
z
" transform="scale(0.015625)"/>
       <path id="TeXGyreTermes-Regular-63" d="M 2637 941 
L 2547 998 
C 2240 550 2010 397 1645 397 
C 1056 397 653 909 653 1645 
C 653 2310 1005 2758 1523 2758 
C 1754 2758 1837 2688 1901 2451 
L 1939 2310 
C 1990 2125 2106 2016 2246 2016 
C 2413 2016 2547 2138 2547 2285 
C 2547 2643 2099 2944 1562 2944 
C 1261 2944 954 2829 698 2618 
C 352 2330 160 1888 160 1357 
C 160 531 666 -64 1376 -64 
C 1651 -64 1894 26 2112 205 
C 2304 358 2432 544 2637 941 
z
" transform="scale(0.015625)"/>
       <path id="TeXGyreTermes-Regular-68" d="M 3117 0 
L 3117 96 
C 2771 160 2733 211 2733 653 
L 2733 1926 
C 2733 2598 2464 2944 1946 2944 
C 1568 2944 1299 2790 1005 2406 
L 1005 4352 
L 973 4371 
C 755 4294 595 4243 237 4141 
L 64 4090 
L 64 3987 
C 90 3994 109 3994 141 3994 
C 416 3994 467 3942 467 3667 
L 467 653 
C 467 205 429 147 58 96 
L 58 0 
L 1440 0 
L 1440 96 
C 1069 134 1005 211 1005 653 
L 1005 2195 
C 1274 2490 1466 2598 1715 2598 
C 2035 2598 2195 2368 2195 1920 
L 2195 653 
C 2195 218 2131 134 1760 96 
L 1760 0 
L 3117 0 
z
" transform="scale(0.015625)"/>
       <path id="TeXGyreTermes-Regular-72" d="M 2144 2605 
C 2144 2816 2010 2944 1792 2944 
C 1523 2944 1338 2797 1024 2342 
L 1024 2931 
L 992 2944 
C 653 2803 422 2720 45 2598 
L 45 2496 
C 134 2515 192 2522 269 2522 
C 429 2522 486 2419 486 2138 
L 486 538 
C 486 218 442 173 32 96 
L 32 0 
L 1568 0 
L 1568 96 
C 1133 115 1024 211 1024 576 
L 1024 2016 
C 1024 2221 1299 2541 1472 2541 
C 1510 2541 1568 2509 1638 2445 
C 1741 2355 1811 2317 1894 2317 
C 2048 2317 2144 2426 2144 2605 
z
" transform="scale(0.015625)"/>
       <path id="TeXGyreTermes-Regular-69" d="M 1619 0 
L 1619 96 
C 1197 128 1146 192 1146 653 
L 1146 2925 
L 1120 2944 
L 128 2592 
L 128 2496 
L 179 2502 
C 256 2515 339 2522 397 2522 
C 550 2522 608 2419 608 2138 
L 608 653 
C 608 192 544 122 102 96 
L 102 0 
L 1619 0 
z
M 1203 3776 
C 1203 3955 1062 4102 877 4102 
C 698 4102 550 3955 550 3776 
C 550 3590 698 3450 877 3450 
C 1062 3450 1203 3590 1203 3776 
z
" transform="scale(0.015625)"/>
       <path id="TeXGyreTermes-Regular-74" d="M 1786 422 
L 1702 493 
C 1562 326 1459 269 1318 269 
C 1082 269 986 435 986 845 
L 986 2675 
L 1632 2675 
L 1632 2880 
L 986 2880 
L 986 3622 
C 986 3686 973 3706 941 3706 
C 902 3642 858 3584 813 3526 
C 576 3174 358 2938 192 2842 
C 122 2797 83 2758 83 2720 
C 83 2701 90 2688 109 2675 
L 448 2675 
L 448 749 
C 448 211 640 -64 1011 -64 
C 1331 -64 1574 90 1786 422 
z
" transform="scale(0.015625)"/>
       <path id="TeXGyreTermes-Regular-20" transform="scale(0.015625)"/>
       <path id="TeXGyreTermes-Regular-6b" d="M 3232 0 
L 3232 96 
C 2950 115 2752 237 2483 563 
L 1504 1805 
L 1690 1978 
C 2144 2400 2541 2694 2726 2746 
C 2822 2771 2912 2784 3021 2784 
L 3072 2784 
L 3072 2880 
L 1766 2880 
L 1766 2790 
C 2016 2784 2086 2758 2086 2669 
C 2086 2618 2029 2528 1939 2451 
L 1062 1670 
L 1062 4358 
L 1037 4371 
L 237 4141 
L 45 4090 
L 45 3987 
C 128 3994 186 4000 250 4000 
C 461 4000 525 3917 525 3610 
L 525 525 
C 525 192 506 173 45 96 
L 45 0 
L 1542 0 
L 1542 96 
L 1414 102 
C 1158 115 1062 205 1062 429 
L 1062 1606 
L 1958 410 
L 1978 384 
C 1990 365 2003 346 2022 326 
C 2074 262 2093 224 2093 192 
C 2093 134 2035 96 1958 96 
L 1837 96 
L 1837 0 
L 3232 0 
z
" transform="scale(0.015625)"/>
      </defs>
      <use xlink:href="#TeXGyreTermes-Regular-53"/>
      <use xlink:href="#TeXGyreTermes-Regular-63" transform="translate(55.599991 0)"/>
      <use xlink:href="#TeXGyreTermes-Regular-68" transform="translate(99.999985 0)"/>
      <use xlink:href="#TeXGyreTermes-Regular-72" transform="translate(149.999969 0)"/>
      <use xlink:href="#TeXGyreTermes-Regular-69" transform="translate(183.299957 0)"/>
      <use xlink:href="#TeXGyreTermes-Regular-74" transform="translate(211.099945 0)"/>
      <use xlink:href="#TeXGyreTermes-Regular-74" transform="translate(238.899933 0)"/>
      <use xlink:href="#TeXGyreTermes-Regular-20" transform="translate(266.699921 0)"/>
      <use xlink:href="#TeXGyreTermes-Regular-6b" transform="translate(291.699905 0)"/>
     </g>
    </g>
   </g>
   <g id="matplotlib.axis_2">
    <g id="ytick_1">
     <g id="line2d_11">
      <path d="M 58.39 216.432332 
L 426.847748 216.432332 
" clip-path="url(#pfd1e3f7ade)" style="fill: none; stroke: #b0b0b0; stroke-width: 0.8; stroke-linecap: square"/>
     </g>
     <g id="line2d_12">
      <defs>
       <path id="m041b0de0ee" d="M 0 0 
L -3.5 0 
" style="stroke: #000000; stroke-width: 0.8"/>
      </defs>
      <g>
       <use xlink:href="#m041b0de0ee" x="58.39" y="216.432332" style="stroke: #000000; stroke-width: 0.8"/>
      </g>
     </g>
     <g id="text_7">
      <!-- −2 -->
      <g transform="translate(25.8525 224.627957) scale(0.24 -0.24)">
       <defs>
        <path id="TeXGyreTermes-Regular-2212" d="M 3354 1389 
L 3354 1811 
L 256 1811 
L 256 1389 
L 3354 1389 
z
" transform="scale(0.015625)"/>
       </defs>
       <use xlink:href="#TeXGyreTermes-Regular-2212"/>
       <use xlink:href="#TeXGyreTermes-Regular-32" transform="translate(56.399994 0)"/>
      </g>
     </g>
    </g>
    <g id="ytick_2">
     <g id="line2d_13">
      <path d="M 58.39 157.865027 
L 426.847748 157.865027 
" clip-path="url(#pfd1e3f7ade)" style="fill: none; stroke: #b0b0b0; stroke-width: 0.8; stroke-linecap: square"/>
     </g>
     <g id="line2d_14">
      <g>
       <use xlink:href="#m041b0de0ee" x="58.39" y="157.865027" style="stroke: #000000; stroke-width: 0.8"/>
      </g>
     </g>
     <g id="text_8">
      <!-- 0 -->
      <g transform="translate(39.39 166.060652) scale(0.24 -0.24)">
       <use xlink:href="#TeXGyreTermes-Regular-30"/>
      </g>
     </g>
    </g>
    <g id="ytick_3">
     <g id="line2d_15">
      <path d="M 58.39 99.297722 
L 426.847748 99.297722 
" clip-path="url(#pfd1e3f7ade)" style="fill: none; stroke: #b0b0b0; stroke-width: 0.8; stroke-linecap: square"/>
     </g>
     <g id="line2d_16">
      <g>
       <use xlink:href="#m041b0de0ee" x="58.39" y="99.297722" style="stroke: #000000; stroke-width: 0.8"/>
      </g>
     </g>
     <g id="text_9">
      <!-- 2 -->
      <g transform="translate(39.39 107.493347) scale(0.24 -0.24)">
       <use xlink:href="#TeXGyreTermes-Regular-32"/>
      </g>
     </g>
    </g>
    <g id="ytick_4">
     <g id="line2d_17">
      <path d="M 58.39 40.730418 
L 426.847748 40.730418 
" clip-path="url(#pfd1e3f7ade)" style="fill: none; stroke: #b0b0b0; stroke-width: 0.8; stroke-linecap: square"/>
     </g>
     <g id="line2d_18">
      <g>
       <use xlink:href="#m041b0de0ee" x="58.39" y="40.730418" style="stroke: #000000; stroke-width: 0.8"/>
      </g>
     </g>
     <g id="text_10">
      <!-- 4 -->
      <g transform="translate(39.39 48.926043) scale(0.24 -0.24)">
       <defs>
        <path id="TeXGyreTermes-Regular-34" d="M 3021 1069 
L 3021 1478 
L 2368 1478 
L 2368 4326 
L 2086 4326 
L 77 1478 
L 77 1069 
L 1875 1069 
L 1875 0 
L 2368 0 
L 2368 1069 
L 3021 1069 
z
M 1869 1478 
L 333 1478 
L 1869 3674 
L 1869 1478 
z
" transform="scale(0.015625)"/>
       </defs>
       <use xlink:href="#TeXGyreTermes-Regular-34"/>
      </g>
     </g>
    </g>
   </g>
   <g id="line2d_19">
    <path d="M 75.138079 196.195465 
L 75.808673 134.922782 
L 76.14397 171.691011 
L 76.479267 134.210155 
L 76.814564 158.981832 
L 77.149861 213.196919 
L 77.485158 182.697139 
L 77.820455 199.479981 
L 78.155751 187.706839 
L 78.491048 203.620881 
L 78.826345 210.325636 
L 79.161642 208.792699 
L 79.496939 167.730043 
L 79.832236 198.800563 
L 80.167533 184.794626 
L 80.50283 125.370789 
L 80.838127 170.652303 
L 81.173423 137.778356 
L 81.50872 136.538312 
L 81.844017 136.414214 
L 82.179314 149.561893 
L 82.514611 155.94061 
L 82.849908 165.384568 
L 83.185205 163.889356 
L 83.520502 175.315826 
L 83.855798 168.352744 
L 84.191095 171.134579 
L 84.526392 127.692816 
L 84.861689 161.599393 
L 85.532283 119.014152 
L 86.202877 158.016635 
L 86.538174 162.398062 
L 86.87347 188.353729 
L 87.208767 176.712975 
L 87.544064 117.456667 
L 87.879361 96.777576 
L 88.214658 139.84369 
L 88.549955 149.241781 
L 88.885252 189.720149 
L 89.220549 154.750416 
L 89.555846 174.033364 
L 89.891142 129.999373 
L 90.226439 180.404368 
L 90.897033 172.82315 
L 91.23233 181.092476 
L 91.902924 217.652806 
L 92.238221 223.652627 
L 92.573518 185.20645 
L 92.908814 183.603426 
L 93.244111 255.321136 
L 93.579408 215.340085 
L 93.914705 149.604037 
L 94.250002 194.556967 
L 94.585299 219.252012 
L 94.920596 191.515476 
L 95.255893 127.096359 
L 95.591189 136.823516 
L 96.261783 111.434201 
L 96.59708 155.120559 
L 96.932377 125.472547 
L 97.267674 124.966485 
L 97.602971 153.746857 
L 97.938268 155.642998 
L 98.273565 144.679123 
L 98.608861 128.341858 
L 98.944158 137.025913 
L 99.279455 161.038021 
L 99.614752 95.960184 
L 99.950049 181.529559 
L 100.285346 154.189592 
L 100.620643 174.68381 
L 100.95594 169.129566 
L 101.291237 116.84918 
L 101.626533 181.35535 
L 101.96183 126.344433 
L 102.297127 172.384967 
L 102.632424 161.703475 
L 102.967721 116.103698 
L 103.303018 179.622085 
L 103.638315 82.142957 
L 103.973612 90.739307 
L 104.308909 88.12536 
L 104.644205 137.584759 
L 104.979502 96.183493 
L 105.985393 212.609908 
L 106.32069 149.575698 
L 106.655987 168.054398 
L 106.991284 168.805358 
L 107.32658 184.135162 
L 107.997174 76.825045 
L 108.332471 141.284498 
L 108.667768 137.418347 
L 109.003065 175.671595 
L 109.338362 164.336396 
L 109.673659 88.613247 
L 110.008956 104.7787 
L 110.344252 182.410935 
L 110.679549 231.83995 
L 111.014846 168.286221 
L 111.350143 126.24292 
L 111.68544 193.428479 
L 112.020737 82.245221 
L 112.356034 125.67766 
L 112.691331 146.371571 
L 113.026628 150.581023 
L 113.697221 141.171237 
L 114.032518 196.182251 
L 114.367815 189.056647 
L 114.703112 188.736133 
L 115.038409 126.858376 
L 115.373706 177.156962 
L 115.709003 172.631875 
L 116.0443 138.923766 
L 116.379596 129.408841 
L 116.714893 135.031853 
L 117.385487 157.814601 
L 117.720784 141.760421 
L 118.056081 112.193405 
L 118.391378 131.710026 
L 118.726675 157.798296 
L 119.061971 143.645278 
L 119.397268 147.675812 
L 119.732565 203.600895 
L 120.067862 188.218605 
L 120.403159 151.570264 
L 120.738456 178.544137 
L 121.40905 109.221615 
L 121.744347 135.94372 
L 122.079643 113.280494 
L 122.41494 116.998685 
L 122.750237 110.234018 
L 123.085534 168.224351 
L 123.420831 196.302831 
L 124.091425 157.531838 
L 124.426722 174.042447 
L 124.762019 241.07472 
L 125.097315 143.309736 
L 125.432612 198.630492 
L 126.103206 221.567707 
L 126.438503 209.584197 
L 126.7738 135.121029 
L 127.109097 175.038598 
L 127.444394 187.412298 
L 127.779691 161.492516 
L 128.114987 149.618522 
L 128.450284 123.814913 
L 128.785581 139.814717 
L 129.120878 141.740013 
L 129.456175 157.409451 
L 129.791472 131.964392 
L 130.126769 133.58357 
L 130.462066 171.875266 
L 130.797362 181.297774 
L 131.132659 128.610393 
L 131.803253 147.083861 
L 132.13855 139.086764 
L 132.473847 136.424034 
L 132.809144 115.925735 
L 133.144441 129.935129 
L 133.479738 136.702066 
L 133.815034 165.791457 
L 134.150331 163.368697 
L 134.485628 149.878102 
L 134.820925 122.319462 
L 135.156222 153.773271 
L 135.491519 134.93592 
L 135.826816 109.488644 
L 136.162113 143.707182 
L 136.49741 136.261368 
L 136.832706 137.572283 
L 137.168003 121.028612 
L 137.5033 142.192039 
L 137.838597 138.030598 
L 138.173894 174.12149 
L 138.509191 165.341778 
L 138.844488 168.869923 
L 139.179785 188.35516 
L 139.515082 113.6111 
L 139.850378 167.259081 
L 140.185675 147.132376 
L 140.520972 112.723509 
L 140.856269 120.848513 
L 141.191566 158.23934 
L 141.526863 232.33698 
L 141.86216 176.516119 
L 142.197457 193.380533 
L 142.532753 169.701118 
L 142.86805 156.775927 
L 143.203347 167.219486 
L 143.538644 172.490901 
L 143.873941 158.977841 
L 144.209238 139.189472 
L 144.544535 139.772142 
L 144.879832 156.881487 
L 145.215129 163.959741 
L 145.550425 135.492434 
L 145.885722 150.876101 
L 146.221019 174.643857 
L 146.556316 145.452279 
L 146.891613 163.389471 
L 147.22691 104.170632 
L 147.897504 188.518792 
L 148.232801 135.392269 
L 148.568097 145.462298 
L 148.903394 180.855789 
L 149.238691 113.306951 
L 149.573988 128.541073 
L 149.909285 94.516122 
L 150.579879 177.516546 
L 150.915176 196.722056 
L 151.250473 129.265676 
L 151.585769 210.701531 
L 152.256363 140.43579 
L 152.59166 170.043101 
L 152.926957 120.440101 
L 153.262254 176.777873 
L 153.597551 171.847502 
L 153.932848 158.064602 
L 154.268144 197.889019 
L 154.603441 192.51627 
L 154.938738 138.565366 
L 155.944629 207.18613 
L 156.279926 242.805819 
L 156.615223 204.615538 
L 156.95052 197.143433 
L 157.285816 197.164087 
L 157.621113 170.568982 
L 157.95641 223.464606 
L 158.291707 152.968899 
L 158.627004 156.918124 
L 158.962301 167.503334 
L 159.297598 188.78731 
L 159.632895 144.826685 
L 159.968192 126.558925 
L 160.303488 180.465124 
L 160.638785 148.330305 
L 160.974082 160.671809 
L 161.309379 154.737901 
L 161.644676 139.808288 
L 161.979973 133.48909 
L 162.31527 123.812835 
L 162.650567 108.358661 
L 162.985864 144.066075 
L 163.32116 119.787397 
L 163.656457 118.296032 
L 163.991754 92.428978 
L 164.327051 168.833165 
L 164.662348 146.563735 
L 164.997645 136.588645 
L 165.332942 157.975778 
L 166.003535 91.089005 
L 166.338832 152.362042 
L 166.674129 125.10617 
L 167.009426 120.221181 
L 167.344723 170.33205 
L 167.68002 186.622308 
L 168.015317 208.613373 
L 168.350614 129.196915 
L 168.685911 156.093472 
L 169.021207 200.549167 
L 169.356504 104.938754 
L 169.691801 94.222249 
L 170.027098 173.205514 
L 170.362395 194.430196 
L 170.697692 188.951692 
L 171.032989 152.466353 
L 171.368286 155.53925 
L 171.703583 166.570195 
L 172.038879 184.446289 
L 172.374176 178.316618 
L 172.709473 150.465462 
L 173.04477 149.603315 
L 173.380067 167.714369 
L 173.715364 179.515058 
L 174.050661 121.020737 
L 174.385958 136.884424 
L 174.721255 210.180495 
L 175.056551 132.064301 
L 175.391848 144.131473 
L 175.727145 135.297169 
L 176.062442 151.574083 
L 176.397739 189.262918 
L 177.068333 110.122519 
L 177.738926 200.024615 
L 178.074223 94.245388 
L 178.40952 81.823368 
L 178.744817 100.593506 
L 179.080114 147.151634 
L 179.415411 138.09715 
L 179.750708 171.045624 
L 180.086005 137.683461 
L 180.421302 128.410472 
L 180.756598 145.90666 
L 181.091895 146.864306 
L 181.427192 218.607403 
L 181.762489 172.107035 
L 182.097786 151.407195 
L 182.433083 106.758504 
L 182.76838 225.59725 
L 183.103677 135.579323 
L 183.438974 168.04231 
L 183.77427 165.861142 
L 184.109567 168.71823 
L 184.444864 156.982461 
L 184.780161 187.052761 
L 185.115458 152.493921 
L 185.450755 82.183368 
L 186.121349 198.523116 
L 186.791942 162.243243 
L 187.127239 189.352441 
L 187.462536 107.889214 
L 187.797833 170.98003 
L 188.13313 185.641842 
L 188.468427 166.582745 
L 188.803724 185.693546 
L 189.809614 103.396204 
L 190.144911 173.952271 
L 190.480208 196.554888 
L 190.815505 129.002113 
L 191.150802 124.521749 
L 191.486099 127.957212 
L 191.821396 111.534263 
L 192.156693 158.74611 
L 192.491989 177.555572 
L 192.827286 153.925129 
L 193.162583 162.07122 
L 193.49788 143.24762 
L 193.833177 176.551103 
L 194.168474 166.130596 
L 194.503771 188.5717 
L 194.839068 155.956229 
L 195.174365 200.18939 
L 195.509661 200.487769 
L 196.180255 128.42417 
L 196.515552 126.325579 
L 196.850849 138.196137 
L 197.186146 141.03596 
L 197.521443 212.656718 
L 197.85674 144.016852 
L 198.192037 186.506717 
L 198.527333 155.141731 
L 198.86263 177.027248 
L 199.197927 149.6409 
L 199.533224 200.632997 
L 199.868521 137.711385 
L 200.203818 110.032406 
L 200.539115 122.404582 
L 200.874412 167.249415 
L 201.209708 130.942406 
L 201.545005 136.325437 
L 201.880302 96.807262 
L 202.215599 142.724513 
L 202.550896 139.478424 
L 202.886193 195.103846 
L 203.22149 224.702316 
L 203.556787 243.539781 
L 203.892084 211.510939 
L 204.22738 133.127912 
L 204.562677 122.594563 
L 204.897974 194.976118 
L 205.233271 183.83678 
L 205.568568 119.435515 
L 205.903865 90.347053 
L 206.239162 111.728824 
L 206.574459 200.470063 
L 206.909756 195.188567 
L 207.245052 129.452938 
L 207.580349 167.633603 
L 207.915646 157.689165 
L 208.250943 176.543995 
L 208.58624 164.966844 
L 208.921537 144.179623 
L 209.256834 152.865645 
L 209.592131 132.407106 
L 209.927428 94.627795 
L 210.262724 170.457885 
L 210.598021 130.451316 
L 210.933318 129.611605 
L 211.268615 156.537024 
L 211.603912 120.044628 
L 211.939209 122.786281 
L 212.274506 146.660632 
L 212.609803 185.616155 
L 212.945099 125.801978 
L 213.280396 149.766038 
L 213.615693 117.720052 
L 213.95099 170.902675 
L 214.286287 145.52107 
L 214.621584 147.729729 
L 214.956881 184.213595 
L 215.292178 194.92413 
L 215.627475 192.439363 
L 215.962771 152.054229 
L 216.298068 244.923989 
L 216.633365 165.383749 
L 216.968662 140.128033 
L 217.303959 157.115817 
L 217.639256 121.729985 
L 217.974553 70.620924 
L 218.30985 187.724309 
L 218.645147 160.172551 
L 218.980443 123.341857 
L 219.31574 151.126958 
L 219.651037 157.995815 
L 219.986334 168.084808 
L 220.321631 137.695727 
L 220.656928 183.525253 
L 220.992225 211.281897 
L 221.327522 151.884212 
L 221.662819 113.728496 
L 221.998115 138.549865 
L 222.333412 150.134791 
L 222.668709 128.667019 
L 223.004006 170.183508 
L 223.339303 135.856645 
L 223.6746 138.373119 
L 224.009897 158.79483 
L 224.345194 140.489951 
L 224.68049 178.044237 
L 225.015787 173.177606 
L 225.686381 153.469714 
L 226.021678 172.351804 
L 226.356975 135.888574 
L 226.692272 143.832751 
L 227.027569 164.647537 
L 227.362866 141.671358 
L 227.698162 149.653326 
L 228.033459 146.059896 
L 228.368756 132.433956 
L 228.704053 142.483771 
L 229.374647 131.033651 
L 229.709944 143.973783 
L 230.045241 175.704165 
L 230.380538 156.364036 
L 230.715834 102.418504 
L 231.051131 147.965749 
L 231.386428 127.796613 
L 231.721725 146.033519 
L 232.057022 116.41612 
L 232.392319 150.277554 
L 232.727616 132.430182 
L 233.062913 189.516363 
L 233.39821 181.030853 
L 233.733506 186.992104 
L 234.068803 163.026751 
L 234.739397 151.019239 
L 235.074694 102.71982 
L 235.409991 190.435545 
L 235.745288 136.499635 
L 236.415881 215.657893 
L 236.751178 146.904842 
L 237.086475 156.107892 
L 237.421772 168.378736 
L 237.757069 135.854624 
L 238.092366 164.973444 
L 238.427663 36.843864 
L 238.76296 156.948338 
L 239.098257 110.069931 
L 240.104147 188.189707 
L 240.439444 101.786474 
L 240.774741 166.138821 
L 241.445335 90.471709 
L 241.780632 167.702158 
L 242.115929 138.105642 
L 242.451225 162.365297 
L 242.786522 147.873937 
L 243.121819 166.449872 
L 243.457116 178.080778 
L 243.792413 156.584245 
L 244.12771 162.341111 
L 244.463007 192.184493 
L 244.798304 137.583626 
L 245.133601 167.338733 
L 245.468897 95.303719 
L 245.804194 135.73259 
L 246.139491 142.309977 
L 246.474788 209.272763 
L 246.810085 200.692154 
L 247.145382 118.311542 
L 247.815976 185.752261 
L 248.151272 160.647242 
L 248.486569 198.344829 
L 248.821866 170.890263 
L 249.157163 205.541477 
L 249.49246 167.545822 
L 249.827757 176.205523 
L 250.163054 156.675458 
L 250.498351 193.760113 
L 250.833648 141.79937 
L 251.168944 188.650607 
L 251.504241 216.474124 
L 252.174835 167.62105 
L 252.510132 159.149951 
L 252.845429 176.649486 
L 253.180726 141.692121 
L 253.516023 172.712055 
L 253.85132 126.264874 
L 254.186616 142.508504 
L 254.521913 190.027521 
L 254.85721 180.000888 
L 255.192507 105.582975 
L 255.527804 138.079968 
L 255.863101 183.832852 
L 256.533695 135.400529 
L 256.868992 110.922999 
L 257.204288 145.026424 
L 257.539585 192.087545 
L 257.874882 171.917321 
L 258.210179 108.282704 
L 258.545476 117.865104 
L 258.880773 145.182362 
L 259.21607 110.537044 
L 259.551367 132.391698 
L 259.886663 174.242036 
L 260.22196 137.247591 
L 260.557257 165.057461 
L 260.892554 151.197402 
L 261.227851 150.009359 
L 261.563148 154.825061 
L 261.898445 222.264629 
L 262.233742 231.598339 
L 262.569039 133.086018 
L 263.239632 215.47569 
L 263.574929 159.403596 
L 263.910226 159.698513 
L 264.245523 189.045966 
L 264.58082 163.595275 
L 264.916117 159.495147 
L 265.251414 157.875665 
L 265.586711 215.722131 
L 265.922007 160.448658 
L 266.257304 162.278925 
L 266.592601 137.353084 
L 266.927898 163.801358 
L 267.263195 139.751394 
L 267.598492 128.784344 
L 267.933789 160.220451 
L 268.269086 167.650551 
L 268.604383 141.106598 
L 268.939679 89.25376 
L 269.274976 135.569585 
L 269.610273 118.646981 
L 269.94557 134.244413 
L 270.280867 112.119443 
L 270.616164 170.125907 
L 270.951461 162.785266 
L 271.286758 136.81205 
L 271.622054 159.038356 
L 271.957351 170.327052 
L 272.292648 163.691231 
L 272.963242 138.575612 
L 273.298539 153.562995 
L 273.633836 189.501352 
L 273.969133 171.522385 
L 274.30443 199.494236 
L 274.639726 125.803087 
L 274.975023 115.247036 
L 275.31032 120.444951 
L 275.645617 92.581583 
L 275.980914 151.469337 
L 276.316211 120.834985 
L 276.986805 101.54734 
L 277.322102 98.443858 
L 277.657398 139.3866 
L 277.992695 71.43092 
L 278.327992 149.125228 
L 278.663289 126.045528 
L 278.998586 126.505457 
L 279.333883 175.119861 
L 279.66918 194.629092 
L 280.004477 140.802969 
L 280.339774 130.722334 
L 280.67507 104.388036 
L 281.010367 114.920672 
L 281.345664 116.729713 
L 281.680961 155.23116 
L 282.351555 138.88309 
L 282.686852 110.472331 
L 283.022149 128.390887 
L 283.357445 132.648666 
L 283.692742 119.524282 
L 284.028039 138.574144 
L 284.363336 112.355427 
L 284.698633 120.83554 
L 285.03393 82.764888 
L 285.369227 110.810598 
L 285.704524 149.246151 
L 286.039821 172.004903 
L 286.375117 123.064951 
L 286.710414 127.074174 
L 287.045711 148.546533 
L 287.381008 84.463883 
L 287.716305 136.877868 
L 288.051602 144.57222 
L 288.386899 103.568875 
L 288.722196 183.483461 
L 289.057493 233.896659 
L 289.392789 136.483597 
L 290.063383 210.088269 
L 290.39868 124.269783 
L 290.733977 125.984152 
L 291.069274 159.550328 
L 291.404571 170.053161 
L 291.739868 124.542779 
L 292.075165 173.153288 
L 292.410461 144.473064 
L 292.745758 127.869292 
L 293.081055 122.502608 
L 293.416352 194.830474 
L 293.751649 199.725477 
L 294.086946 172.847568 
L 294.422243 214.471727 
L 294.75754 176.758183 
L 295.092836 121.171722 
L 295.428133 137.168223 
L 295.76343 161.121608 
L 296.098727 167.480441 
L 296.434024 198.170426 
L 296.769321 149.402347 
L 297.104618 179.26096 
L 297.439915 193.587566 
L 298.110508 115.393685 
L 298.445805 137.48035 
L 298.781102 207.50041 
L 299.116399 115.726167 
L 299.451696 157.397259 
L 299.786993 127.801849 
L 300.12229 145.805874 
L 300.457587 143.157768 
L 300.792884 159.938871 
L 301.12818 152.97129 
L 301.463477 196.366774 
L 301.798774 160.519519 
L 302.134071 226.260148 
L 302.469368 183.758191 
L 302.804665 157.363645 
L 303.475259 192.819585 
L 303.810556 216.18458 
L 304.145852 212.125962 
L 304.481149 210.397204 
L 304.816446 171.130422 
L 305.151743 101.835046 
L 305.822337 204.0149 
L 306.157634 184.701666 
L 306.492931 147.969362 
L 306.828227 158.612654 
L 307.163524 145.857533 
L 307.498821 151.500495 
L 307.834118 133.941668 
L 308.169415 141.965019 
L 308.504712 102.241133 
L 308.840009 109.253687 
L 309.175306 174.77038 
L 309.510603 133.312093 
L 309.845899 133.03164 
L 310.181196 158.686988 
L 310.516493 167.22633 
L 310.85179 150.59829 
L 311.522384 199.358021 
L 311.857681 143.942539 
L 312.192978 205.56934 
L 312.528275 223.22818 
L 313.198868 114.568473 
L 313.534165 136.295501 
L 313.869462 132.899739 
L 314.204759 136.745426 
L 314.540056 170.52744 
L 314.875353 191.906465 
L 315.21065 118.260037 
L 315.545947 81.344327 
L 315.881243 135.469347 
L 316.21654 108.094328 
L 316.551837 123.229631 
L 316.887134 154.671 
L 317.222431 138.014862 
L 317.557728 143.569834 
L 317.893025 113.922969 
L 318.228322 168.791417 
L 318.563618 174.947595 
L 318.898915 135.627426 
L 319.234212 218.118382 
L 319.569509 123.196042 
L 319.904806 148.131658 
L 320.240103 147.695661 
L 320.5754 190.516475 
L 320.910697 190.832253 
L 321.245994 142.766087 
L 321.58129 180.949352 
L 321.916587 145.210382 
L 322.251884 143.678407 
L 322.587181 136.905445 
L 322.922478 160.062689 
L 323.257775 147.679108 
L 323.928369 161.374785 
L 324.598962 204.196914 
L 324.934259 108.412334 
L 325.269556 203.32057 
L 325.604853 132.205421 
L 325.94015 172.936758 
L 326.275447 127.035688 
L 326.610744 137.16985 
L 326.946041 168.760025 
L 327.281338 184.245225 
L 327.616634 169.878965 
L 327.951931 128.810353 
L 328.287228 149.18876 
L 328.622525 226.374098 
L 328.957822 190.512852 
L 329.293119 214.286802 
L 329.628416 182.644453 
L 329.963713 178.128722 
L 330.299009 180.261624 
L 330.634306 171.145706 
L 330.969603 147.464642 
L 331.3049 161.404896 
L 331.640197 130.233163 
L 331.975494 129.66832 
L 332.310791 151.380193 
L 332.981385 206.562719 
L 333.316681 174.63 
L 333.651978 160.037396 
L 333.987275 134.722774 
L 334.322572 144.759644 
L 334.657869 189.402379 
L 335.328463 148.326225 
L 335.66376 193.596636 
L 335.999057 210.102532 
L 336.334353 174.344023 
L 336.66965 174.589622 
L 337.004947 209.500257 
L 337.340244 181.320753 
L 337.675541 178.008829 
L 338.010838 144.608057 
L 338.346135 145.922413 
L 338.681432 131.752488 
L 339.016729 169.93099 
L 339.352025 190.411944 
L 339.687322 165.739097 
L 340.022619 103.721943 
L 340.357916 142.159938 
L 340.693213 149.709052 
L 341.02851 147.907772 
L 341.363807 122.892421 
L 341.699104 157.7942 
L 342.0344 206.487055 
L 342.369697 186.546013 
L 342.704994 150.212197 
L 343.040291 180.322732 
L 343.375588 192.797245 
L 343.710885 184.898894 
L 344.046182 148.858707 
L 344.381479 191.195219 
L 344.716776 159.652891 
L 345.052072 153.412927 
L 345.387369 127.455488 
L 345.722666 213.427675 
L 346.057963 198.906687 
L 346.39326 148.194844 
L 346.728557 128.437819 
L 347.063854 149.372332 
L 347.399151 139.386764 
L 347.734448 154.97 
L 348.405041 109.154476 
L 348.740338 164.99273 
L 349.075635 153.178064 
L 349.410932 176.44914 
L 349.746229 228.540245 
L 350.081526 166.886669 
L 350.416823 170.035557 
L 350.75212 167.10345 
L 351.087416 185.789808 
L 351.422713 122.962793 
L 351.75801 174.926401 
L 352.093307 146.189924 
L 352.428604 139.93442 
L 352.763901 197.160702 
L 353.099198 189.246841 
L 353.434495 118.345352 
L 353.769791 181.775045 
L 354.105088 172.795137 
L 354.440385 113.392636 
L 354.775682 110.25063 
L 355.110979 98.676477 
L 355.446276 169.461253 
L 355.781573 164.48451 
L 356.11687 103.684067 
L 356.452167 151.071823 
L 356.787463 165.525808 
L 357.12276 114.529104 
L 357.458057 179.405 
L 357.793354 118.212964 
L 358.128651 182.593274 
L 358.463948 187.084595 
L 358.799245 224.386926 
L 359.469839 143.768871 
L 360.140432 181.154441 
L 360.475729 225.469549 
L 360.811026 234.83632 
L 361.146323 172.357878 
L 361.48162 182.885883 
L 361.816917 146.23147 
L 362.152214 125.53551 
L 362.487511 149.028005 
L 362.822807 131.91123 
L 363.158104 142.17416 
L 363.828698 179.032276 
L 364.163995 172.560507 
L 364.499292 139.325365 
L 364.834589 172.569114 
L 365.169886 188.971667 
L 365.505183 137.454331 
L 365.840479 44.027399 
L 366.511073 113.621619 
L 366.84637 100.11032 
L 367.181667 135.726938 
L 367.516964 72.331454 
L 368.522854 165.157221 
L 368.858151 141.526642 
L 369.193448 178.40601 
L 369.528745 91.241922 
L 370.199339 184.748509 
L 370.534636 191.52077 
L 370.869933 156.894082 
L 371.20523 221.813248 
L 371.540526 212.274421 
L 371.875823 138.243693 
L 372.21112 194.058877 
L 372.546417 211.653798 
L 372.881714 149.780535 
L 373.217011 177.792881 
L 373.552308 137.524117 
L 373.887605 158.192522 
L 374.222902 155.561014 
L 374.558198 189.81835 
L 374.893495 200.081693 
L 375.228792 196.068831 
L 375.564089 163.786047 
L 375.899386 203.952684 
L 376.234683 139.094871 
L 376.56998 134.889884 
L 376.905277 144.058228 
L 377.240574 134.252424 
L 377.57587 147.344701 
L 377.911167 112.751588 
L 378.246464 151.148279 
L 378.917058 139.486619 
L 379.252355 114.367661 
L 379.587652 164.341802 
L 379.922949 147.486302 
L 380.258245 166.834348 
L 380.593542 148.505941 
L 380.928839 183.002819 
L 381.264136 151.359277 
L 381.599433 146.826236 
L 381.93473 120.061398 
L 382.270027 200.239149 
L 382.605324 174.909597 
L 382.940621 171.985167 
L 383.275917 150.927343 
L 383.611214 107.145154 
L 383.946511 163.879429 
L 384.281808 181.640237 
L 384.617105 152.203423 
L 384.952402 191.096988 
L 385.287699 142.313345 
L 385.622996 130.04566 
L 385.958293 172.601978 
L 386.293589 177.289053 
L 386.628886 163.484708 
L 386.964183 183.619136 
L 387.29948 176.00187 
L 387.634777 157.944702 
L 387.970074 173.030374 
L 388.305371 177.207043 
L 388.640668 205.763675 
L 388.975965 174.251824 
L 389.311261 206.023202 
L 389.646558 162.954174 
L 389.981855 173.293601 
L 390.317152 142.655404 
L 390.652449 151.803793 
L 390.987746 179.783103 
L 391.323043 159.124123 
L 391.65834 167.885843 
L 392.328933 99.985248 
L 392.66423 96.971181 
L 392.999527 80.12716 
L 393.334824 105.247521 
L 393.670121 111.153648 
L 394.005418 163.123825 
L 394.340715 174.339151 
L 394.676012 97.727054 
L 395.011308 145.176385 
L 395.346605 154.083511 
L 395.681902 204.415089 
L 396.017199 204.062457 
L 396.352496 208.575965 
L 396.687793 154.657706 
L 397.02309 181.199096 
L 397.358387 133.62714 
L 398.02898 224.171666 
L 398.364277 189.918759 
L 398.699574 184.596107 
L 399.034871 199.621135 
L 399.370168 172.446713 
L 399.705465 168.595091 
L 400.040762 202.29383 
L 400.376059 181.004565 
L 400.711356 146.922288 
L 401.046652 171.306541 
L 401.381949 140.310603 
L 401.717246 142.555803 
L 402.052543 174.371426 
L 402.38784 181.85884 
L 402.723137 182.669664 
L 403.058434 193.003102 
L 403.393731 139.54874 
L 403.729027 180.463679 
L 404.064324 149.327174 
L 404.399621 143.717757 
L 404.734918 135.250292 
L 405.070215 176.582294 
L 405.405512 161.428052 
L 405.740809 125.287651 
L 406.076106 193.447088 
L 406.746699 166.721687 
L 407.081996 171.294079 
L 407.417293 203.397171 
L 407.75259 143.176613 
L 408.087887 157.747955 
L 408.758481 141.829101 
L 409.093778 152.848683 
L 409.429075 168.111138 
L 409.764371 238.725727 
L 410.099668 207.270737 
L 410.099668 207.270737 
" clip-path="url(#pfd1e3f7ade)" style="fill: none; stroke: #1f77b4; stroke-width: 2; stroke-linecap: square"/>
   </g>
   <g id="patch_3">
    <path d="M 58.39 266.245 
L 58.39 25.92 
" style="fill: none; stroke: #000000; stroke-width: 0.8; stroke-linejoin: miter; stroke-linecap: square"/>
   </g>
   <g id="patch_4">
    <path d="M 426.847748 266.245 
L 426.847748 25.92 
" style="fill: none; stroke: #000000; stroke-width: 0.8; stroke-linejoin: miter; stroke-linecap: square"/>
   </g>
   <g id="patch_5">
    <path d="M 58.39 266.245 
L 426.847748 266.245 
" style="fill: none; stroke: #000000; stroke-width: 0.8; stroke-linejoin: miter; stroke-linecap: square"/>
   </g>
   <g id="patch_6">
    <path d="M 58.39 25.92 
L 426.847748 25.92 
" style="fill: none; stroke: #000000; stroke-width: 0.8; stroke-linejoin: miter; stroke-linecap: square"/>
   </g>
  </g>
 </g>
 <defs>
  <clipPath id="pfd1e3f7ade">
   <rect x="58.39" y="25.92" width="368.457748" height="240.325"/>
  </clipPath>
 </defs>
</svg>
