<?xml version="1.0" encoding="utf-8" standalone="no"?>
<!DOCTYPE svg PUBLIC "-//W3C//DTD SVG 1.1//EN"
  "http://www.w3.org/Graphics/SVG/1.1/DTD/svg11.dtd">
<svg xmlns:xlink="http://www.w3.org/1999/xlink" width="460.8pt" height="345.6pt" viewBox="0 0 460.8 345.6" xmlns="http://www.w3.org/2000/svg" version="1.1">
 <metadata>
  <rdf:RDF xmlns:dc="http://purl.org/dc/elements/1.1/" xmlns:cc="http://creativecommons.org/ns#" xmlns:rdf="http://www.w3.org/1999/02/22-rdf-syntax-ns#">
   <cc:Work>
    <dc:type rdf:resource="http://purl.org/dc/dcmitype/StillImage"/>
    <dc:date>2025-12-15T12:37:21.317799</dc:date>
    <dc:format>image/svg+xml</dc:format>
    <dc:creator>
     <cc:Agent>
      <dc:title>Matplotlib v3.10.6, https://matplotlib.org/</dc:title>
     </cc:Agent>
    </dc:creator>
   </cc:Work>
  </rdf:RDF>
 </metadata>
 <defs>
  <style type="text/css">*{stroke-linejoin: round; stroke-linecap: butt}</style>
 </defs>
 <g id="figure_1">
  <g id="patch_1">
   <path d="M 0 345.6 
L 460.8 345.6 
L 460.8 0 
L 0 0 
z
" style="fill: #ffffff"/>
  </g>
  <g id="axes_1">
   <g id="patch_2">
    <path d="M 106.0175 266.245 
L 410.94 266.245 
L 410.94 25.92 
L 106.0175 25.92 
z
" style="fill: #ffffff"/>
   </g>
   <g id="matplotlib.axis_1">
    <g id="xtick_1">
     <g id="line2d_1">
      <path d="M 106.0175 266.245 
L 106.0175 25.92 
" clip-path="url(#pa71a80e570)" style="fill: none; stroke: #b0b0b0; stroke-width: 0.8; stroke-linecap: square"/>
     </g>
     <g id="line2d_2">
      <defs>
       <path id="m99ad03f65f" d="M 0 0 
L 0 3.5 
" style="stroke: #000000; stroke-width: 0.8"/>
      </defs>
      <g>
       <use xlink:href="#m99ad03f65f" x="106.0175" y="266.245" style="stroke: #000000; stroke-width: 0.8"/>
      </g>
     </g>
     <g id="text_1">
      <!-- 0 -->
      <g transform="translate(100.0175 289.63625) scale(0.24 -0.24)">
       <defs>
        <path id="TeXGyreTermes-Regular-30" d="M 3046 2112 
C 3046 3424 2464 4326 1626 4326 
C 1274 4326 1005 4218 768 3994 
C 397 3635 154 2899 154 2150 
C 154 1453 365 704 666 346 
C 902 64 1229 -90 1600 -90 
C 1926 -90 2202 19 2432 243 
C 2803 595 3046 1338 3046 2112 
z
M 2432 2099 
C 2432 762 2150 77 1600 77 
C 1050 77 768 762 768 2093 
C 768 3450 1056 4160 1606 4160 
C 2144 4160 2432 3437 2432 2099 
z
" transform="scale(0.015625)"/>
       </defs>
       <use xlink:href="#TeXGyreTermes-Regular-30"/>
      </g>
     </g>
    </g>
    <g id="xtick_2">
     <g id="line2d_3">
      <path d="M 182.248125 266.245 
L 182.248125 25.92 
" clip-path="url(#pa71a80e570)" style="fill: none; stroke: #b0b0b0; stroke-width: 0.8; stroke-linecap: square"/>
     </g>
     <g id="line2d_4">
      <g>
       <use xlink:href="#m99ad03f65f" x="182.248125" y="266.245" style="stroke: #000000; stroke-width: 0.8"/>
      </g>
     </g>
     <g id="text_2">
      <!-- 250 -->
      <g transform="translate(164.248125 289.63625) scale(0.24 -0.24)">
       <defs>
        <path id="TeXGyreTermes-Regular-32" d="M 3040 877 
L 2957 909 
C 2720 544 2637 486 2349 486 
L 819 486 
L 1894 1613 
C 2464 2208 2714 2694 2714 3194 
C 2714 3834 2195 4326 1530 4326 
C 1178 4326 845 4186 608 3930 
C 403 3712 307 3507 198 3053 
L 333 3021 
C 589 3648 819 3853 1261 3853 
C 1798 3853 2163 3488 2163 2950 
C 2163 2451 1869 1856 1331 1286 
L 192 77 
L 192 0 
L 2688 0 
L 3040 877 
z
" transform="scale(0.015625)"/>
        <path id="TeXGyreTermes-Regular-35" d="M 2803 4358 
L 2746 4403 
C 2650 4269 2586 4237 2451 4237 
L 1114 4237 
L 416 2720 
C 410 2707 410 2688 410 2688 
C 410 2656 435 2637 486 2637 
C 691 2637 947 2592 1210 2509 
C 1946 2272 2285 1875 2285 1242 
C 2285 627 1894 147 1395 147 
C 1267 147 1158 192 966 333 
C 762 480 614 544 480 544 
C 294 544 205 467 205 307 
C 205 64 506 -90 986 -90 
C 1523 -90 1984 83 2304 410 
C 2598 698 2733 1062 2733 1549 
C 2733 2010 2611 2304 2291 2624 
C 2010 2906 1645 3053 890 3187 
L 1158 3731 
L 2413 3731 
C 2515 3731 2541 3744 2560 3789 
L 2803 4358 
z
" transform="scale(0.015625)"/>
       </defs>
       <use xlink:href="#TeXGyreTermes-Regular-32"/>
       <use xlink:href="#TeXGyreTermes-Regular-35" transform="translate(49.999985 0)"/>
       <use xlink:href="#TeXGyreTermes-Regular-30" transform="translate(99.999969 0)"/>
      </g>
     </g>
    </g>
    <g id="xtick_3">
     <g id="line2d_5">
      <path d="M 258.47875 266.245 
L 258.47875 25.92 
" clip-path="url(#pa71a80e570)" style="fill: none; stroke: #b0b0b0; stroke-width: 0.8; stroke-linecap: square"/>
     </g>
     <g id="line2d_6">
      <g>
       <use xlink:href="#m99ad03f65f" x="258.47875" y="266.245" style="stroke: #000000; stroke-width: 0.8"/>
      </g>
     </g>
     <g id="text_3">
      <!-- 500 -->
      <g transform="translate(240.47875 289.63625) scale(0.24 -0.24)">
       <use xlink:href="#TeXGyreTermes-Regular-35"/>
       <use xlink:href="#TeXGyreTermes-Regular-30" transform="translate(49.999985 0)"/>
       <use xlink:href="#TeXGyreTermes-Regular-30" transform="translate(99.999969 0)"/>
      </g>
     </g>
    </g>
    <g id="xtick_4">
     <g id="line2d_7">
      <path d="M 334.709375 266.245 
L 334.709375 25.92 
" clip-path="url(#pa71a80e570)" style="fill: none; stroke: #b0b0b0; stroke-width: 0.8; stroke-linecap: square"/>
     </g>
     <g id="line2d_8">
      <g>
       <use xlink:href="#m99ad03f65f" x="334.709375" y="266.245" style="stroke: #000000; stroke-width: 0.8"/>
      </g>
     </g>
     <g id="text_4">
      <!-- 750 -->
      <g transform="translate(316.709375 289.63625) scale(0.24 -0.24)">
       <defs>
        <path id="TeXGyreTermes-Regular-37" d="M 2874 4134 
L 2874 4237 
L 506 4237 
L 128 3296 
L 237 3245 
C 512 3680 627 3763 979 3763 
L 2368 3763 
L 1101 -51 
L 1517 -51 
L 2874 4134 
z
" transform="scale(0.015625)"/>
       </defs>
       <use xlink:href="#TeXGyreTermes-Regular-37"/>
       <use xlink:href="#TeXGyreTermes-Regular-35" transform="translate(49.999985 0)"/>
       <use xlink:href="#TeXGyreTermes-Regular-30" transform="translate(99.999969 0)"/>
      </g>
     </g>
    </g>
    <g id="xtick_5">
     <g id="line2d_9">
      <path d="M 410.94 266.245 
L 410.94 25.92 
" clip-path="url(#pa71a80e570)" style="fill: none; stroke: #b0b0b0; stroke-width: 0.8; stroke-linecap: square"/>
     </g>
     <g id="line2d_10">
      <g>
       <use xlink:href="#m99ad03f65f" x="410.94" y="266.245" style="stroke: #000000; stroke-width: 0.8"/>
      </g>
     </g>
     <g id="text_5">
      <!-- 1000 -->
      <g transform="translate(386.94 289.63625) scale(0.24 -0.24)">
       <defs>
        <path id="TeXGyreTermes-Regular-31" d="M 2522 0 
L 2522 96 
C 2016 102 1914 166 1914 474 
L 1914 4314 
L 1862 4326 
L 710 3744 
L 710 3654 
C 787 3686 858 3712 883 3725 
C 998 3770 1107 3795 1171 3795 
C 1306 3795 1363 3699 1363 3494 
L 1363 595 
C 1363 384 1312 237 1210 179 
C 1114 122 1024 102 755 96 
L 755 0 
L 2522 0 
z
" transform="scale(0.015625)"/>
       </defs>
       <use xlink:href="#TeXGyreTermes-Regular-31"/>
       <use xlink:href="#TeXGyreTermes-Regular-30" transform="translate(49.999985 0)"/>
       <use xlink:href="#TeXGyreTermes-Regular-30" transform="translate(99.999969 0)"/>
       <use xlink:href="#TeXGyreTermes-Regular-30" transform="translate(149.999954 0)"/>
      </g>
     </g>
    </g>
    <g id="text_6">
     <!-- Schritt k -->
     <g transform="translate(217.47625 315.23625) scale(0.24 -0.24)">
      <defs>
       <path id="TeXGyreTermes-Regular-53" d="M 3142 1075 
C 3142 1606 2790 2016 1946 2477 
C 1274 2842 1005 3123 1005 3475 
C 1005 3827 1274 4064 1670 4064 
C 1958 4064 2227 3942 2451 3712 
C 2650 3507 2739 3341 2842 2963 
L 3002 2963 
L 2861 4326 
L 2726 4326 
C 2701 4186 2630 4109 2522 4109 
C 2458 4109 2355 4134 2240 4186 
C 2003 4275 1773 4326 1549 4326 
C 1299 4326 1030 4224 826 4058 
C 576 3853 454 3578 454 3226 
C 454 2720 736 2362 1453 1984 
C 1914 1734 2246 1478 2406 1235 
C 2464 1146 2496 1018 2496 858 
C 2496 435 2176 141 1709 141 
C 1133 141 736 493 416 1274 
L 269 1274 
L 461 -83 
L 602 -83 
C 608 38 685 128 781 128 
C 851 128 960 102 1082 58 
C 1325 -38 1581 -90 1837 -90 
C 2579 -90 3142 416 3142 1075 
z
" transform="scale(0.015625)"/>
       <path id="TeXGyreTermes-Regular-63" d="M 2637 941 
L 2547 998 
C 2240 550 2010 397 1645 397 
C 1056 397 653 909 653 1645 
C 653 2310 1005 2758 1523 2758 
C 1754 2758 1837 2688 1901 2451 
L 1939 2310 
C 1990 2125 2106 2016 2246 2016 
C 2413 2016 2547 2138 2547 2285 
C 2547 2643 2099 2944 1562 2944 
C 1261 2944 954 2829 698 2618 
C 352 2330 160 1888 160 1357 
C 160 531 666 -64 1376 -64 
C 1651 -64 1894 26 2112 205 
C 2304 358 2432 544 2637 941 
z
" transform="scale(0.015625)"/>
       <path id="TeXGyreTermes-Regular-68" d="M 3117 0 
L 3117 96 
C 2771 160 2733 211 2733 653 
L 2733 1926 
C 2733 2598 2464 2944 1946 2944 
C 1568 2944 1299 2790 1005 2406 
L 1005 4352 
L 973 4371 
C 755 4294 595 4243 237 4141 
L 64 4090 
L 64 3987 
C 90 3994 109 3994 141 3994 
C 416 3994 467 3942 467 3667 
L 467 653 
C 467 205 429 147 58 96 
L 58 0 
L 1440 0 
L 1440 96 
C 1069 134 1005 211 1005 653 
L 1005 2195 
C 1274 2490 1466 2598 1715 2598 
C 2035 2598 2195 2368 2195 1920 
L 2195 653 
C 2195 218 2131 134 1760 96 
L 1760 0 
L 3117 0 
z
" transform="scale(0.015625)"/>
       <path id="TeXGyreTermes-Regular-72" d="M 2144 2605 
C 2144 2816 2010 2944 1792 2944 
C 1523 2944 1338 2797 1024 2342 
L 1024 2931 
L 992 2944 
C 653 2803 422 2720 45 2598 
L 45 2496 
C 134 2515 192 2522 269 2522 
C 429 2522 486 2419 486 2138 
L 486 538 
C 486 218 442 173 32 96 
L 32 0 
L 1568 0 
L 1568 96 
C 1133 115 1024 211 1024 576 
L 1024 2016 
C 1024 2221 1299 2541 1472 2541 
C 1510 2541 1568 2509 1638 2445 
C 1741 2355 1811 2317 1894 2317 
C 2048 2317 2144 2426 2144 2605 
z
" transform="scale(0.015625)"/>
       <path id="TeXGyreTermes-Regular-69" d="M 1619 0 
L 1619 96 
C 1197 128 1146 192 1146 653 
L 1146 2925 
L 1120 2944 
L 128 2592 
L 128 2496 
L 179 2502 
C 256 2515 339 2522 397 2522 
C 550 2522 608 2419 608 2138 
L 608 653 
C 608 192 544 122 102 96 
L 102 0 
L 1619 0 
z
M 1203 3776 
C 1203 3955 1062 4102 877 4102 
C 698 4102 550 3955 550 3776 
C 550 3590 698 3450 877 3450 
C 1062 3450 1203 3590 1203 3776 
z
" transform="scale(0.015625)"/>
       <path id="TeXGyreTermes-Regular-74" d="M 1786 422 
L 1702 493 
C 1562 326 1459 269 1318 269 
C 1082 269 986 435 986 845 
L 986 2675 
L 1632 2675 
L 1632 2880 
L 986 2880 
L 986 3622 
C 986 3686 973 3706 941 3706 
C 902 3642 858 3584 813 3526 
C 576 3174 358 2938 192 2842 
C 122 2797 83 2758 83 2720 
C 83 2701 90 2688 109 2675 
L 448 2675 
L 448 749 
C 448 211 640 -64 1011 -64 
C 1331 -64 1574 90 1786 422 
z
" transform="scale(0.015625)"/>
       <path id="TeXGyreTermes-Regular-20" transform="scale(0.015625)"/>
       <path id="TeXGyreTermes-Regular-6b" d="M 3232 0 
L 3232 96 
C 2950 115 2752 237 2483 563 
L 1504 1805 
L 1690 1978 
C 2144 2400 2541 2694 2726 2746 
C 2822 2771 2912 2784 3021 2784 
L 3072 2784 
L 3072 2880 
L 1766 2880 
L 1766 2790 
C 2016 2784 2086 2758 2086 2669 
C 2086 2618 2029 2528 1939 2451 
L 1062 1670 
L 1062 4358 
L 1037 4371 
L 237 4141 
L 45 4090 
L 45 3987 
C 128 3994 186 4000 250 4000 
C 461 4000 525 3917 525 3610 
L 525 525 
C 525 192 506 173 45 96 
L 45 0 
L 1542 0 
L 1542 96 
L 1414 102 
C 1158 115 1062 205 1062 429 
L 1062 1606 
L 1958 410 
L 1978 384 
C 1990 365 2003 346 2022 326 
C 2074 262 2093 224 2093 192 
C 2093 134 2035 96 1958 96 
L 1837 96 
L 1837 0 
L 3232 0 
z
" transform="scale(0.015625)"/>
      </defs>
      <use xlink:href="#TeXGyreTermes-Regular-53"/>
      <use xlink:href="#TeXGyreTermes-Regular-63" transform="translate(55.599991 0)"/>
      <use xlink:href="#TeXGyreTermes-Regular-68" transform="translate(99.999985 0)"/>
      <use xlink:href="#TeXGyreTermes-Regular-72" transform="translate(149.999969 0)"/>
      <use xlink:href="#TeXGyreTermes-Regular-69" transform="translate(183.299957 0)"/>
      <use xlink:href="#TeXGyreTermes-Regular-74" transform="translate(211.099945 0)"/>
      <use xlink:href="#TeXGyreTermes-Regular-74" transform="translate(238.899933 0)"/>
      <use xlink:href="#TeXGyreTermes-Regular-20" transform="translate(266.699921 0)"/>
      <use xlink:href="#TeXGyreTermes-Regular-6b" transform="translate(291.699905 0)"/>
     </g>
    </g>
   </g>
   <g id="matplotlib.axis_2">
    <g id="ytick_1">
     <g id="line2d_11">
      <path d="M 106.0175 241.034181 
L 410.94 241.034181 
" clip-path="url(#pa71a80e570)" style="fill: none; stroke: #b0b0b0; stroke-width: 0.8; stroke-linecap: square"/>
     </g>
     <g id="line2d_12">
      <defs>
       <path id="mb76356f689" d="M 0 0 
L -3.5 0 
" style="stroke: #000000; stroke-width: 0.8"/>
      </defs>
      <g>
       <use xlink:href="#mb76356f689" x="106.0175" y="241.034181" style="stroke: #000000; stroke-width: 0.8"/>
      </g>
     </g>
     <g id="text_7">
      <!-- 0 -->
      <g transform="translate(87.0175 249.229806) scale(0.24 -0.24)">
       <use xlink:href="#TeXGyreTermes-Regular-30"/>
      </g>
     </g>
    </g>
    <g id="ytick_2">
     <g id="line2d_13">
      <path d="M 106.0175 146.720819 
L 410.94 146.720819 
" clip-path="url(#pa71a80e570)" style="fill: none; stroke: #b0b0b0; stroke-width: 0.8; stroke-linecap: square"/>
     </g>
     <g id="line2d_14">
      <g>
       <use xlink:href="#mb76356f689" x="106.0175" y="146.720819" style="stroke: #000000; stroke-width: 0.8"/>
      </g>
     </g>
     <g id="text_8">
      <!-- 500 -->
      <g transform="translate(63.0175 154.916444) scale(0.24 -0.24)">
       <use xlink:href="#TeXGyreTermes-Regular-35"/>
       <use xlink:href="#TeXGyreTermes-Regular-30" transform="translate(49.999985 0)"/>
       <use xlink:href="#TeXGyreTermes-Regular-30" transform="translate(99.999969 0)"/>
      </g>
     </g>
    </g>
    <g id="ytick_3">
     <g id="line2d_15">
      <path d="M 106.0175 52.407457 
L 410.94 52.407457 
" clip-path="url(#pa71a80e570)" style="fill: none; stroke: #b0b0b0; stroke-width: 0.8; stroke-linecap: square"/>
     </g>
     <g id="line2d_16">
      <g>
       <use xlink:href="#mb76356f689" x="106.0175" y="52.407457" style="stroke: #000000; stroke-width: 0.8"/>
      </g>
     </g>
     <g id="text_9">
      <!-- 1000 -->
      <g transform="translate(51.0175 60.603082) scale(0.24 -0.24)">
       <use xlink:href="#TeXGyreTermes-Regular-31"/>
       <use xlink:href="#TeXGyreTermes-Regular-30" transform="translate(49.999985 0)"/>
       <use xlink:href="#TeXGyreTermes-Regular-30" transform="translate(99.999969 0)"/>
       <use xlink:href="#TeXGyreTermes-Regular-30" transform="translate(149.999954 0)"/>
      </g>
     </g>
    </g>
    <g id="text_10">
     <!-- Summe x({i| i&lt;=k}) -->
     <g transform="translate(41.80875 242.87375) rotate(-90) scale(0.24 -0.24)">
      <defs>
       <path id="TeXGyreTermes-Regular-75" d="M 3066 230 
L 3066 320 
L 3034 320 
C 2739 320 2669 390 2669 685 
L 2669 2880 
L 1658 2880 
L 1658 2771 
C 2054 2752 2131 2688 2131 2368 
L 2131 864 
C 2131 691 2099 595 2022 538 
C 1843 384 1645 307 1446 307 
C 1197 307 992 525 992 794 
L 992 2880 
L 58 2880 
L 58 2790 
C 365 2771 454 2675 454 2381 
L 454 768 
C 454 262 762 -64 1229 -64 
C 1466 -64 1715 38 1888 211 
L 2163 486 
L 2163 -45 
L 2189 -58 
C 2509 70 2739 141 3066 230 
z
" transform="scale(0.015625)"/>
       <path id="TeXGyreTermes-Regular-6d" d="M 4960 0 
L 4960 96 
L 4794 109 
C 4602 122 4518 237 4518 486 
L 4518 1805 
C 4518 2560 4269 2944 3776 2944 
C 3405 2944 3078 2778 2733 2406 
C 2618 2771 2400 2944 2054 2944 
C 1773 2944 1594 2854 1062 2451 
L 1062 2931 
L 1018 2944 
C 691 2822 474 2752 122 2656 
L 122 2547 
C 205 2566 256 2573 326 2573 
C 493 2573 550 2470 550 2163 
L 550 544 
C 550 198 461 102 102 96 
L 102 0 
L 1523 0 
L 1523 96 
C 1184 109 1088 179 1088 429 
L 1088 2234 
C 1088 2234 1139 2310 1184 2355 
C 1344 2502 1619 2611 1843 2611 
C 2125 2611 2266 2387 2266 1939 
L 2266 550 
C 2266 192 2195 122 1830 96 
L 1830 0 
L 3264 0 
L 3264 96 
C 2899 102 2803 211 2803 608 
L 2803 2221 
C 2995 2496 3206 2611 3501 2611 
C 3866 2611 3981 2438 3981 1907 
L 3981 557 
C 3981 192 3930 141 3558 96 
L 3558 0 
L 4960 0 
z
" transform="scale(0.015625)"/>
       <path id="TeXGyreTermes-Regular-65" d="M 2714 1005 
L 2611 1050 
C 2304 563 2029 378 1619 378 
C 1267 378 998 544 813 890 
C 685 1139 634 1363 621 1773 
L 2592 1773 
C 2541 2189 2477 2374 2317 2579 
C 2125 2810 1830 2944 1498 2944 
C 704 2944 160 2304 160 1370 
C 160 486 621 -64 1357 -64 
C 1971 -64 2445 314 2714 1005 
z
M 1939 1978 
L 634 1978 
C 704 2483 922 2714 1312 2714 
C 1702 2714 1856 2534 1939 1978 
z
" transform="scale(0.015625)"/>
       <path id="TeXGyreTermes-Regular-78" d="M 3066 0 
L 3066 96 
C 2867 96 2739 198 2541 480 
L 1722 1734 
L 2253 2502 
C 2374 2675 2566 2778 2771 2784 
L 2771 2880 
L 1760 2880 
L 1760 2784 
C 1952 2771 2016 2733 2016 2643 
C 2016 2566 1939 2426 1779 2227 
C 1747 2189 1670 2074 1587 1946 
L 1498 2074 
C 1318 2342 1203 2560 1203 2643 
C 1203 2733 1286 2778 1478 2784 
L 1478 2880 
L 154 2880 
L 154 2784 
L 211 2784 
C 403 2784 506 2701 704 2400 
L 1306 1478 
L 576 422 
C 384 160 320 115 109 96 
L 109 0 
L 1037 0 
L 1037 96 
C 858 96 781 128 781 211 
C 781 250 826 346 909 474 
L 1414 1261 
L 1997 365 
C 2022 326 2035 288 2035 250 
C 2035 134 1990 109 1779 96 
L 1779 0 
L 3066 0 
z
" transform="scale(0.015625)"/>
       <path id="TeXGyreTermes-Regular-28" d="M 1946 -1030 
C 1434 -627 1254 -403 1082 77 
C 928 506 858 992 858 1632 
C 858 2304 941 2829 1114 3226 
C 1293 3622 1485 3853 1946 4224 
L 1888 4326 
C 1414 4019 1222 3853 986 3558 
C 531 3002 307 2362 307 1613 
C 307 800 544 173 1107 -480 
C 1370 -787 1536 -928 1869 -1133 
L 1946 -1030 
z
" transform="scale(0.015625)"/>
       <path id="TeXGyreTermes-Regular-7b" d="M 2240 -1158 
L 2240 -1088 
C 1798 -973 1658 -781 1658 -301 
L 1658 774 
C 1658 1306 1536 1472 1056 1594 
C 1536 1722 1658 1888 1658 2419 
L 1658 3494 
C 1658 3974 1798 4166 2240 4282 
L 2240 4352 
C 1818 4346 1651 4307 1466 4192 
C 1280 4077 1184 3827 1184 3462 
L 1184 2323 
C 1184 1875 1069 1728 640 1600 
C 1069 1466 1184 1312 1184 870 
L 1184 -262 
C 1184 -621 1286 -883 1466 -998 
C 1645 -1114 1818 -1152 2240 -1158 
z
" transform="scale(0.015625)"/>
       <path id="TeXGyreTermes-Regular-7c" d="M 851 -998 
L 851 4237 
L 429 4237 
L 429 -998 
L 851 -998 
z
" transform="scale(0.015625)"/>
       <path id="TeXGyreTermes-Regular-3c" d="M 3098 83 
L 3098 557 
L 986 1600 
L 3098 2643 
L 3098 3117 
L 416 1792 
L 416 1408 
L 3098 83 
z
" transform="scale(0.015625)"/>
       <path id="TeXGyreTermes-Regular-3d" d="M 3354 1920 
L 3354 2342 
L 256 2342 
L 256 1920 
L 3354 1920 
z
M 3354 858 
L 3354 1280 
L 256 1280 
L 256 858 
L 3354 858 
z
" transform="scale(0.015625)"/>
       <path id="TeXGyreTermes-Regular-7d" d="M 2432 1600 
C 2003 1728 1888 1875 1888 2323 
L 1888 3456 
C 1888 3814 1786 4077 1606 4192 
C 1427 4307 1261 4346 832 4352 
L 832 4282 
C 1274 4166 1414 3974 1414 3494 
L 1414 2419 
C 1414 1882 1536 1722 2016 1600 
C 1536 1472 1414 1306 1414 774 
L 1414 -301 
C 1414 -781 1274 -973 832 -1088 
L 832 -1158 
C 1254 -1152 1421 -1114 1606 -998 
C 1792 -883 1888 -634 1888 -269 
L 1888 870 
C 1888 1318 2003 1466 2432 1600 
z
" transform="scale(0.015625)"/>
       <path id="TeXGyreTermes-Regular-29" d="M 1824 1581 
C 1824 2400 1587 3021 1024 3674 
C 762 3981 595 4122 262 4326 
L 186 4224 
C 698 3821 870 3597 1050 3117 
C 1203 2688 1274 2202 1274 1562 
C 1274 896 1190 365 1018 -26 
C 838 -429 646 -659 186 -1030 
L 243 -1133 
C 717 -826 909 -659 1146 -365 
C 1600 192 1824 832 1824 1581 
z
" transform="scale(0.015625)"/>
      </defs>
      <use xlink:href="#TeXGyreTermes-Regular-53"/>
      <use xlink:href="#TeXGyreTermes-Regular-75" transform="translate(55.599991 0)"/>
      <use xlink:href="#TeXGyreTermes-Regular-6d" transform="translate(105.599976 0)"/>
      <use xlink:href="#TeXGyreTermes-Regular-6d" transform="translate(183.399963 0)"/>
      <use xlink:href="#TeXGyreTermes-Regular-65" transform="translate(261.199951 0)"/>
      <use xlink:href="#TeXGyreTermes-Regular-20" transform="translate(305.599945 0)"/>
      <use xlink:href="#TeXGyreTermes-Regular-78" transform="translate(330.59993 0)"/>
      <use xlink:href="#TeXGyreTermes-Regular-28" transform="translate(380.599915 0)"/>
      <use xlink:href="#TeXGyreTermes-Regular-7b" transform="translate(413.899902 0)"/>
      <use xlink:href="#TeXGyreTermes-Regular-69" transform="translate(461.899887 0)"/>
      <use xlink:href="#TeXGyreTermes-Regular-7c" transform="translate(489.699875 0)"/>
      <use xlink:href="#TeXGyreTermes-Regular-20" transform="translate(509.69986 0)"/>
      <use xlink:href="#TeXGyreTermes-Regular-69" transform="translate(534.699844 0)"/>
      <use xlink:href="#TeXGyreTermes-Regular-3c" transform="translate(562.499832 0)"/>
      <use xlink:href="#TeXGyreTermes-Regular-3d" transform="translate(618.899826 0)"/>
      <use xlink:href="#TeXGyreTermes-Regular-6b" transform="translate(675.29982 0)"/>
      <use xlink:href="#TeXGyreTermes-Regular-7d" transform="translate(725.299805 0)"/>
      <use xlink:href="#TeXGyreTermes-Regular-29" transform="translate(773.299789 0)"/>
     </g>
    </g>
   </g>
   <g id="line2d_17">
    <path d="M 106.0175 241.034181 
L 106.322423 241.281081 
L 106.627345 241.298098 
L 106.932268 241.154572 
L 107.23719 241.209345 
L 107.847035 241.025462 
L 109.67657 243.162807 
L 110.286415 244.024408 
L 110.89626 244.942058 
L 111.201183 245.003263 
L 111.506105 245.275459 
L 112.11595 245.394498 
L 112.725795 245.470433 
L 113.33564 245.751806 
L 114.250408 246.394571 
L 114.55533 246.634774 
L 114.860253 246.603321 
L 115.165175 246.726939 
L 115.470098 246.71774 
L 116.079943 246.456214 
L 116.689788 246.564244 
L 117.299633 247.05613 
L 117.604555 246.912917 
L 117.909478 246.551763 
L 118.519323 246.298872 
L 118.824245 246.49232 
L 120.043935 246.661046 
L 120.958703 247.220475 
L 121.568548 248.146106 
L 122.178393 249.23733 
L 122.483315 249.66173 
L 123.09316 251.31133 
L 123.398083 251.674257 
L 124.007928 253.013324 
L 124.31285 253.672685 
L 124.922695 254.1367 
L 126.142385 254.404274 
L 126.447308 254.38254 
L 127.362075 254.739861 
L 127.97192 254.66509 
L 128.276843 254.773311 
L 128.581765 254.487642 
L 129.801455 255.110699 
L 130.106378 254.964386 
L 130.4113 255.160167 
L 130.716223 255.060082 
L 131.326068 255.321136 
L 131.63099 255.144112 
L 131.935913 255.309938 
L 132.545758 254.427654 
L 132.85068 253.874772 
L 133.155603 253.581299 
L 133.765448 252.724261 
L 134.07037 252.709915 
L 134.375293 252.954422 
L 134.985138 252.882117 
L 135.29006 252.894594 
L 135.594983 253.021418 
L 135.899905 252.796722 
L 136.204828 252.206253 
L 136.814673 251.638924 
L 137.424518 251.570063 
L 138.034363 250.501188 
L 138.339285 250.416087 
L 138.644208 250.744006 
L 138.94913 250.795365 
L 139.254053 250.547323 
L 139.558975 250.652541 
L 140.16882 249.72879 
L 141.38851 248.773885 
L 142.303278 249.091328 
L 142.6082 248.859812 
L 143.218045 248.90395 
L 143.82789 248.480138 
L 144.437735 248.005893 
L 145.04758 247.669142 
L 145.657425 246.885287 
L 146.572193 246.180048 
L 147.182038 246.389474 
L 147.48696 246.281057 
L 147.791883 246.311163 
L 148.096805 246.175832 
L 149.92634 243.75831 
L 150.536185 243.764557 
L 151.14603 243.574631 
L 151.450953 243.975813 
L 151.755875 243.878333 
L 152.36572 244.383619 
L 152.975565 245.273997 
L 153.280488 245.263461 
L 154.500178 245.868554 
L 155.414945 245.511686 
L 155.719868 245.501767 
L 156.329713 245.148881 
L 157.24448 245.134768 
L 158.46417 244.415091 
L 159.378938 243.406716 
L 160.293705 243.021565 
L 160.90355 242.443639 
L 161.208473 242.128849 
L 161.818318 241.297135 
L 163.647853 239.11451 
L 164.257698 238.782677 
L 164.56262 238.77622 
L 164.867543 238.331263 
L 165.477388 237.871434 
L 166.392155 236.557778 
L 166.697078 236.776641 
L 167.916768 236.717779 
L 168.831535 236.552783 
L 169.746303 235.933417 
L 170.051225 235.838662 
L 170.66107 235.378627 
L 170.965993 235.331438 
L 171.575838 235.026441 
L 171.88076 234.550836 
L 172.185683 234.296064 
L 172.490605 234.302296 
L 173.10045 233.78362 
L 173.405373 233.746247 
L 174.015218 232.920308 
L 174.625063 231.807269 
L 174.929985 231.639779 
L 175.234908 231.660852 
L 175.53983 231.313058 
L 175.844753 231.416352 
L 176.149675 231.340715 
L 176.454598 231.077599 
L 176.75952 230.970195 
L 177.064443 230.565019 
L 177.97921 230.249686 
L 178.589055 230.489202 
L 179.1989 230.214839 
L 179.503823 230.27926 
L 179.808745 230.531651 
L 180.41859 231.484198 
L 181.943203 233.157634 
L 182.553048 233.494487 
L 182.85797 233.827291 
L 183.162893 233.920953 
L 183.467815 233.847256 
L 183.772738 234.061454 
L 184.992428 234.265403 
L 185.602273 233.953212 
L 185.907195 233.61059 
L 186.212118 233.443368 
L 186.821963 232.774737 
L 187.126885 232.213031 
L 187.73673 231.85051 
L 188.651498 230.984382 
L 188.95642 230.343105 
L 189.566265 229.561868 
L 189.871188 229.050889 
L 190.17611 228.83354 
L 190.481033 228.771385 
L 190.785955 228.908659 
L 191.3958 228.389791 
L 191.700723 228.467385 
L 192.61549 227.188976 
L 193.225335 227.264998 
L 194.140103 226.853024 
L 194.749948 226.923466 
L 195.664715 226.580415 
L 195.969638 226.62146 
L 196.579483 226.048052 
L 196.884405 226.228575 
L 198.104095 225.32753 
L 198.409018 225.382786 
L 198.71394 225.264712 
L 199.323785 224.614116 
L 199.628708 224.70983 
L 200.238553 223.517975 
L 200.848398 222.439853 
L 201.15332 222.026137 
L 201.458243 221.82052 
L 202.677933 220.183104 
L 202.982855 220.269012 
L 203.287778 220.171245 
L 203.5927 219.933916 
L 203.897623 219.381056 
L 204.202545 219.508143 
L 204.81239 219.056982 
L 205.727158 218.622624 
L 206.03208 218.63265 
L 206.337003 218.467146 
L 206.946848 217.390796 
L 207.556693 217.357884 
L 207.861615 217.246828 
L 208.166538 217.290806 
L 208.47146 216.846089 
L 208.776383 216.710523 
L 209.69115 216.707838 
L 209.996073 216.609997 
L 210.300995 216.288525 
L 210.605918 215.767427 
L 210.91084 215.630498 
L 211.215763 215.709107 
L 211.825608 215.039095 
L 212.740375 213.79971 
L 213.35022 213.456678 
L 214.56991 212.715415 
L 214.874833 212.731256 
L 215.179755 212.58244 
L 216.094523 212.85471 
L 217.314213 211.651301 
L 217.619135 211.821108 
L 217.924058 211.652459 
L 218.22898 211.705093 
L 219.143748 211.465108 
L 219.44867 211.627725 
L 219.753593 211.457362 
L 220.363438 210.648484 
L 220.66836 210.505794 
L 221.278205 209.860505 
L 221.88805 208.874518 
L 222.192973 208.490249 
L 222.497895 208.461248 
L 222.802818 208.706224 
L 223.412663 209.50273 
L 223.717585 209.354397 
L 224.022508 209.042843 
L 224.632353 209.255584 
L 224.937275 208.993027 
L 225.54712 207.955762 
L 226.156965 208.129993 
L 226.461888 207.886544 
L 227.9865 207.447604 
L 228.291423 207.29274 
L 228.596345 207.002456 
L 228.901268 206.435442 
L 229.20619 206.274472 
L 230.42588 204.818345 
L 231.035725 203.956479 
L 231.340648 203.851723 
L 232.560338 202.329207 
L 233.170183 201.636788 
L 233.475105 201.522365 
L 234.08495 201.570729 
L 234.389873 201.385626 
L 234.694795 201.759152 
L 234.999718 201.757019 
L 235.914485 201.044504 
L 236.219408 200.298588 
L 236.829253 200.01426 
L 237.439098 199.330323 
L 238.353865 198.605348 
L 238.658788 198.533989 
L 238.96371 198.69415 
L 239.268633 198.548702 
L 239.878478 197.758954 
L 241.098168 196.538642 
L 242.012935 195.550006 
L 243.537548 194.789478 
L 244.757238 193.637244 
L 245.367083 193.041644 
L 246.891695 190.979322 
L 247.50154 190.507129 
L 248.111385 189.458441 
L 249.635998 186.878155 
L 251.16061 185.895163 
L 251.465533 185.569191 
L 251.770455 184.924144 
L 252.075378 184.766398 
L 252.3803 184.353049 
L 252.685223 184.190417 
L 252.990145 184.302442 
L 254.514758 183.047387 
L 254.81968 182.032742 
L 255.124603 181.59755 
L 255.734448 180.388103 
L 256.03937 179.971187 
L 256.344293 179.785513 
L 256.649215 179.109666 
L 256.954138 178.743982 
L 257.25906 178.194951 
L 257.563983 177.352081 
L 259.69844 174.5073 
L 260.003363 174.170074 
L 260.308285 174.032385 
L 261.223052 172.584303 
L 261.832898 171.498113 
L 262.442743 171.390372 
L 263.052588 170.45873 
L 264.272278 169.798714 
L 264.5772 169.859525 
L 266.406735 169.23663 
L 267.01658 169.600068 
L 267.931348 169.540406 
L 268.23627 169.357141 
L 268.541193 169.334869 
L 269.151038 168.78641 
L 269.760883 168.870927 
L 270.370728 168.138521 
L 270.67565 168.102611 
L 270.980572 167.954182 
L 271.285495 167.665837 
L 271.89534 166.833495 
L 272.505185 166.73654 
L 274.33472 164.059036 
L 274.944565 163.376881 
L 275.859333 162.368809 
L 276.164255 162.483418 
L 276.469178 162.771365 
L 276.7741 162.509843 
L 277.079023 162.458642 
L 277.383945 162.658187 
L 277.99379 162.479249 
L 278.298713 162.549635 
L 279.21348 162.310532 
L 279.518403 162.570002 
L 280.128248 162.540688 
L 281.65286 161.613727 
L 281.957783 161.539121 
L 282.262705 161.315354 
L 282.87255 160.323481 
L 283.787318 158.814375 
L 284.702085 157.917711 
L 285.31193 157.426591 
L 285.921775 156.930794 
L 286.53162 156.235879 
L 287.446388 156.107039 
L 288.056233 155.243608 
L 289.275923 152.9817 
L 289.885768 151.515549 
L 291.105458 148.330008 
L 292.020225 146.364797 
L 292.325148 146.088815 
L 292.934993 144.876953 
L 294.154683 141.666819 
L 294.764528 140.348992 
L 297.203908 133.117975 
L 297.813753 131.184183 
L 298.423598 129.618541 
L 300.558055 123.016344 
L 300.862978 122.76232 
L 301.472823 121.442614 
L 301.777745 121.125331 
L 303.302358 117.456584 
L 303.912203 116.213127 
L 304.82697 114.065181 
L 306.04666 112.814105 
L 306.961428 110.910976 
L 307.26635 110.452084 
L 307.571273 110.21984 
L 308.181118 109.399025 
L 308.48604 109.187994 
L 308.790963 108.801776 
L 309.400808 107.492051 
L 309.70573 107.31082 
L 310.92542 104.91356 
L 311.840188 103.297041 
L 312.14511 103.050242 
L 312.450033 102.640684 
L 312.754955 102.638481 
L 313.059878 102.465838 
L 313.669723 101.849965 
L 313.974645 101.718252 
L 314.58449 101.90657 
L 314.889413 102.054057 
L 315.194335 101.981714 
L 315.80418 101.091667 
L 316.414025 101.080194 
L 317.633715 100.005848 
L 318.24356 99.191572 
L 318.853405 97.825986 
L 319.158328 97.50853 
L 320.073095 96.028886 
L 320.987863 94.995848 
L 321.292785 94.906694 
L 321.597708 94.519872 
L 321.90263 94.483006 
L 322.207553 94.634401 
L 322.512475 94.493611 
L 323.732165 92.558499 
L 324.037088 92.287099 
L 324.34201 92.189856 
L 324.646933 91.670542 
L 325.5617 89.452 
L 326.171545 88.229425 
L 328.00108 84.827646 
L 328.306003 84.724606 
L 329.22077 83.056208 
L 330.44046 81.899985 
L 332.87984 78.431997 
L 333.184763 78.363969 
L 333.489685 77.74134 
L 333.794608 77.618698 
L 335.014298 75.76811 
L 335.624143 75.217307 
L 335.929065 74.964055 
L 336.53891 74.000265 
L 337.453678 74.109711 
L 338.368445 73.947753 
L 338.673368 73.848275 
L 339.588135 73.021485 
L 340.19798 72.254077 
L 340.502903 72.144805 
L 340.807825 72.233466 
L 341.41767 72.017112 
L 342.027515 71.334617 
L 342.63736 71.15298 
L 342.942283 70.901411 
L 343.247205 70.909647 
L 343.552128 71.077293 
L 344.161973 71.070016 
L 344.771818 71.374424 
L 345.07674 71.448801 
L 345.686585 71.129823 
L 345.991508 70.839824 
L 346.29643 70.758841 
L 346.906275 70.821401 
L 347.51612 70.08566 
L 348.125965 69.579033 
L 348.73581 68.913076 
L 349.345655 69.042868 
L 349.650578 68.872221 
L 350.260423 68.934247 
L 350.565345 69.013192 
L 350.870268 68.880331 
L 351.17519 68.975561 
L 351.785035 68.797644 
L 352.089958 68.497294 
L 352.699803 68.908168 
L 353.004725 68.831868 
L 353.919493 68.135189 
L 354.224415 67.970374 
L 354.529338 67.643998 
L 354.83426 67.146013 
L 355.749028 66.634611 
L 356.05395 66.924211 
L 357.27364 66.91915 
L 357.578563 66.628643 
L 357.883485 66.595955 
L 358.49333 66.173498 
L 359.103175 66.397736 
L 359.408098 66.093871 
L 360.017943 66.104201 
L 360.627788 65.270666 
L 360.93271 64.6664 
L 361.542555 64.294465 
L 362.1524 63.430613 
L 362.457323 63.211061 
L 362.762245 62.694192 
L 363.067168 62.53257 
L 363.37209 62.033469 
L 363.981935 61.830271 
L 364.59178 62.143668 
L 365.201625 61.820227 
L 365.506548 61.81016 
L 366.726238 62.914926 
L 367.03116 62.851527 
L 368.25085 62.014485 
L 368.555773 61.932912 
L 369.165618 61.99361 
L 369.47054 61.810841 
L 369.775463 61.793047 
L 370.080385 61.907636 
L 370.385308 61.734528 
L 371.300075 59.527686 
L 373.12961 55.595025 
L 374.654223 53.042485 
L 374.959145 52.857669 
L 375.264068 52.512396 
L 375.873913 52.64496 
L 376.178835 52.306787 
L 376.483758 52.258123 
L 376.78868 52.376214 
L 377.093603 52.168581 
L 377.398525 52.098227 
L 378.00837 51.562742 
L 378.313293 51.335931 
L 378.618215 51.326917 
L 379.22806 51.573793 
L 379.532983 51.526529 
L 379.837905 51.708313 
L 380.44775 51.262053 
L 381.362518 50.441076 
L 381.972363 49.664124 
L 382.582208 48.989802 
L 382.88713 48.450773 
L 385.021588 46.574305 
L 385.32651 46.062442 
L 385.936355 45.899312 
L 386.241278 45.78147 
L 386.5462 45.535764 
L 386.851123 44.976313 
L 387.156045 44.704795 
L 387.460968 44.591312 
L 387.76589 44.339117 
L 388.070813 44.319651 
L 388.98558 43.442318 
L 390.815115 42.853789 
L 391.120038 42.821296 
L 391.42496 42.994648 
L 391.729883 43.028011 
L 392.034805 43.255649 
L 392.64465 43.29765 
L 393.254495 43.01653 
L 393.86434 43.00841 
L 394.169263 43.002464 
L 394.474185 42.791654 
L 395.08403 41.711056 
L 395.998798 39.619971 
L 396.608643 39.058979 
L 397.218488 37.910306 
L 397.52341 37.505003 
L 398.133255 37.477109 
L 398.438178 37.588027 
L 399.657868 36.843864 
L 400.267713 37.183879 
L 401.487403 37.530148 
L 402.097248 37.909939 
L 403.62186 37.61212 
L 404.231705 37.855302 
L 404.536628 38.078651 
L 404.84155 37.98518 
L 405.146473 38.09281 
L 405.756318 37.910046 
L 406.06124 37.71027 
L 406.671085 37.721965 
L 406.976008 37.466464 
L 407.585853 37.67736 
L 408.195698 37.772501 
L 408.50062 38.040363 
L 409.72031 37.726575 
L 410.330155 37.634871 
L 410.635078 38.113632 
L 410.635078 38.113632 
" clip-path="url(#pa71a80e570)" style="fill: none; stroke: #1f77b4; stroke-width: 1.5; stroke-linecap: square"/>
   </g>
   <g id="patch_3">
    <path d="M 106.0175 266.245 
L 106.0175 25.92 
" style="fill: none; stroke: #000000; stroke-width: 0.8; stroke-linejoin: miter; stroke-linecap: square"/>
   </g>
   <g id="patch_4">
    <path d="M 410.94 266.245 
L 410.94 25.92 
" style="fill: none; stroke: #000000; stroke-width: 0.8; stroke-linejoin: miter; stroke-linecap: square"/>
   </g>
   <g id="patch_5">
    <path d="M 106.0175 266.245 
L 410.94 266.245 
" style="fill: none; stroke: #000000; stroke-width: 0.8; stroke-linejoin: miter; stroke-linecap: square"/>
   </g>
   <g id="patch_6">
    <path d="M 106.0175 25.92 
L 410.94 25.92 
" style="fill: none; stroke: #000000; stroke-width: 0.8; stroke-linejoin: miter; stroke-linecap: square"/>
   </g>
  </g>
 </g>
 <defs>
  <clipPath id="pa71a80e570">
   <rect x="106.0175" y="25.92" width="304.9225" height="240.325"/>
  </clipPath>
 </defs>
</svg>
