<?xml version="1.0" encoding="utf-8" standalone="no"?>
<!DOCTYPE svg PUBLIC "-//W3C//DTD SVG 1.1//EN"
  "http://www.w3.org/Graphics/SVG/1.1/DTD/svg11.dtd">
<svg xmlns:xlink="http://www.w3.org/1999/xlink" width="460.8pt" height="345.6pt" viewBox="0 0 460.8 345.6" xmlns="http://www.w3.org/2000/svg" version="1.1">
 <metadata>
  <rdf:RDF xmlns:dc="http://purl.org/dc/elements/1.1/" xmlns:cc="http://creativecommons.org/ns#" xmlns:rdf="http://www.w3.org/1999/02/22-rdf-syntax-ns#">
   <cc:Work>
    <dc:type rdf:resource="http://purl.org/dc/dcmitype/StillImage"/>
    <dc:date>2026-01-28T11:01:58.306502</dc:date>
    <dc:format>image/svg+xml</dc:format>
    <dc:creator>
     <cc:Agent>
      <dc:title>Matplotlib v3.10.8, https://matplotlib.org/</dc:title>
     </cc:Agent>
    </dc:creator>
   </cc:Work>
  </rdf:RDF>
 </metadata>
 <defs>
  <style type="text/css">*{stroke-linejoin: round; stroke-linecap: butt}</style>
 </defs>
 <g id="figure_1">
  <g id="patch_1">
   <path d="M 0 345.6 
L 460.8 345.6 
L 460.8 0 
L 0 0 
z
" style="fill: #ffffff"/>
  </g>
  <g id="axes_1">
   <g id="patch_2">
    <path d="M 94.934 266.245 
L 410.94 266.245 
L 410.94 30.950567 
L 94.934 30.950567 
z
" style="fill: #ffffff"/>
   </g>
   <g id="matplotlib.axis_1">
    <g id="xtick_1">
     <g id="line2d_1">
      <path d="M 94.934 266.245 
L 94.934 30.950567 
" clip-path="url(#p0630ff012f)" style="fill: none; stroke: #b0b0b0; stroke-width: 0.8; stroke-linecap: square"/>
     </g>
     <g id="line2d_2">
      <defs>
       <path id="m6e3ea40106" d="M 0 0 
L 0 3.5 
" style="stroke: #000000; stroke-width: 0.8"/>
      </defs>
      <g>
       <use xlink:href="#m6e3ea40106" x="94.934" y="266.245" style="stroke: #000000; stroke-width: 0.8"/>
      </g>
     </g>
     <g id="text_1">
      <!-- 0 -->
      <g transform="translate(88.934 289.63625) scale(0.24 -0.24)">
       <defs>
        <path id="TeXGyreTermes-Regular-30" d="M 3046 2112 
C 3046 3424 2464 4326 1626 4326 
C 1274 4326 1005 4218 768 3994 
C 397 3635 154 2899 154 2150 
C 154 1453 365 704 666 346 
C 902 64 1229 -90 1600 -90 
C 1926 -90 2202 19 2432 243 
C 2803 595 3046 1338 3046 2112 
z
M 2432 2099 
C 2432 762 2150 77 1600 77 
C 1050 77 768 762 768 2093 
C 768 3450 1056 4160 1606 4160 
C 2144 4160 2432 3437 2432 2099 
z
" transform="scale(0.015625)"/>
       </defs>
       <use xlink:href="#TeXGyreTermes-Regular-30"/>
      </g>
     </g>
    </g>
    <g id="xtick_2">
     <g id="line2d_3">
      <path d="M 173.9355 266.245 
L 173.9355 30.950567 
" clip-path="url(#p0630ff012f)" style="fill: none; stroke: #b0b0b0; stroke-width: 0.8; stroke-linecap: square"/>
     </g>
     <g id="line2d_4">
      <g>
       <use xlink:href="#m6e3ea40106" x="173.9355" y="266.245" style="stroke: #000000; stroke-width: 0.8"/>
      </g>
     </g>
     <g id="text_2">
      <!-- 250 -->
      <g transform="translate(155.9355 289.63625) scale(0.24 -0.24)">
       <defs>
        <path id="TeXGyreTermes-Regular-32" d="M 3040 877 
L 2957 909 
C 2720 544 2637 486 2349 486 
L 819 486 
L 1894 1613 
C 2464 2208 2714 2694 2714 3194 
C 2714 3834 2195 4326 1530 4326 
C 1178 4326 845 4186 608 3930 
C 403 3712 307 3507 198 3053 
L 333 3021 
C 589 3648 819 3853 1261 3853 
C 1798 3853 2163 3488 2163 2950 
C 2163 2451 1869 1856 1331 1286 
L 192 77 
L 192 0 
L 2688 0 
L 3040 877 
z
" transform="scale(0.015625)"/>
        <path id="TeXGyreTermes-Regular-35" d="M 2803 4358 
L 2746 4403 
C 2650 4269 2586 4237 2451 4237 
L 1114 4237 
L 416 2720 
C 410 2707 410 2688 410 2688 
C 410 2656 435 2637 486 2637 
C 691 2637 947 2592 1210 2509 
C 1946 2272 2285 1875 2285 1242 
C 2285 627 1894 147 1395 147 
C 1267 147 1158 192 966 333 
C 762 480 614 544 480 544 
C 294 544 205 467 205 307 
C 205 64 506 -90 986 -90 
C 1523 -90 1984 83 2304 410 
C 2598 698 2733 1062 2733 1549 
C 2733 2010 2611 2304 2291 2624 
C 2010 2906 1645 3053 890 3187 
L 1158 3731 
L 2413 3731 
C 2515 3731 2541 3744 2560 3789 
L 2803 4358 
z
" transform="scale(0.015625)"/>
       </defs>
       <use xlink:href="#TeXGyreTermes-Regular-32"/>
       <use xlink:href="#TeXGyreTermes-Regular-35" transform="translate(49.999985 0)"/>
       <use xlink:href="#TeXGyreTermes-Regular-30" transform="translate(99.999969 0)"/>
      </g>
     </g>
    </g>
    <g id="xtick_3">
     <g id="line2d_5">
      <path d="M 252.937 266.245 
L 252.937 30.950567 
" clip-path="url(#p0630ff012f)" style="fill: none; stroke: #b0b0b0; stroke-width: 0.8; stroke-linecap: square"/>
     </g>
     <g id="line2d_6">
      <g>
       <use xlink:href="#m6e3ea40106" x="252.937" y="266.245" style="stroke: #000000; stroke-width: 0.8"/>
      </g>
     </g>
     <g id="text_3">
      <!-- 500 -->
      <g transform="translate(234.937 289.63625) scale(0.24 -0.24)">
       <use xlink:href="#TeXGyreTermes-Regular-35"/>
       <use xlink:href="#TeXGyreTermes-Regular-30" transform="translate(49.999985 0)"/>
       <use xlink:href="#TeXGyreTermes-Regular-30" transform="translate(99.999969 0)"/>
      </g>
     </g>
    </g>
    <g id="xtick_4">
     <g id="line2d_7">
      <path d="M 331.9385 266.245 
L 331.9385 30.950567 
" clip-path="url(#p0630ff012f)" style="fill: none; stroke: #b0b0b0; stroke-width: 0.8; stroke-linecap: square"/>
     </g>
     <g id="line2d_8">
      <g>
       <use xlink:href="#m6e3ea40106" x="331.9385" y="266.245" style="stroke: #000000; stroke-width: 0.8"/>
      </g>
     </g>
     <g id="text_4">
      <!-- 750 -->
      <g transform="translate(313.9385 289.63625) scale(0.24 -0.24)">
       <defs>
        <path id="TeXGyreTermes-Regular-37" d="M 2874 4134 
L 2874 4237 
L 506 4237 
L 128 3296 
L 237 3245 
C 512 3680 627 3763 979 3763 
L 2368 3763 
L 1101 -51 
L 1517 -51 
L 2874 4134 
z
" transform="scale(0.015625)"/>
       </defs>
       <use xlink:href="#TeXGyreTermes-Regular-37"/>
       <use xlink:href="#TeXGyreTermes-Regular-35" transform="translate(49.999985 0)"/>
       <use xlink:href="#TeXGyreTermes-Regular-30" transform="translate(99.999969 0)"/>
      </g>
     </g>
    </g>
    <g id="xtick_5">
     <g id="line2d_9">
      <path d="M 410.94 266.245 
L 410.94 30.950567 
" clip-path="url(#p0630ff012f)" style="fill: none; stroke: #b0b0b0; stroke-width: 0.8; stroke-linecap: square"/>
     </g>
     <g id="line2d_10">
      <g>
       <use xlink:href="#m6e3ea40106" x="410.94" y="266.245" style="stroke: #000000; stroke-width: 0.8"/>
      </g>
     </g>
     <g id="text_5">
      <!-- 1000 -->
      <g transform="translate(386.94 289.63625) scale(0.24 -0.24)">
       <defs>
        <path id="TeXGyreTermes-Regular-31" d="M 2522 0 
L 2522 96 
C 2016 102 1914 166 1914 474 
L 1914 4314 
L 1862 4326 
L 710 3744 
L 710 3654 
C 787 3686 858 3712 883 3725 
C 998 3770 1107 3795 1171 3795 
C 1306 3795 1363 3699 1363 3494 
L 1363 595 
C 1363 384 1312 237 1210 179 
C 1114 122 1024 102 755 96 
L 755 0 
L 2522 0 
z
" transform="scale(0.015625)"/>
       </defs>
       <use xlink:href="#TeXGyreTermes-Regular-31"/>
       <use xlink:href="#TeXGyreTermes-Regular-30" transform="translate(49.999985 0)"/>
       <use xlink:href="#TeXGyreTermes-Regular-30" transform="translate(99.999969 0)"/>
       <use xlink:href="#TeXGyreTermes-Regular-30" transform="translate(149.999954 0)"/>
      </g>
     </g>
    </g>
    <g id="text_6">
     <!-- Schritt k -->
     <g transform="translate(211.9345 315.23625) scale(0.24 -0.24)">
      <defs>
       <path id="TeXGyreTermes-Regular-53" d="M 3142 1075 
C 3142 1606 2790 2016 1946 2477 
C 1274 2842 1005 3123 1005 3475 
C 1005 3827 1274 4064 1670 4064 
C 1958 4064 2227 3942 2451 3712 
C 2650 3507 2739 3341 2842 2963 
L 3002 2963 
L 2861 4326 
L 2726 4326 
C 2701 4186 2630 4109 2522 4109 
C 2458 4109 2355 4134 2240 4186 
C 2003 4275 1773 4326 1549 4326 
C 1299 4326 1030 4224 826 4058 
C 576 3853 454 3578 454 3226 
C 454 2720 736 2362 1453 1984 
C 1914 1734 2246 1478 2406 1235 
C 2464 1146 2496 1018 2496 858 
C 2496 435 2176 141 1709 141 
C 1133 141 736 493 416 1274 
L 269 1274 
L 461 -83 
L 602 -83 
C 608 38 685 128 781 128 
C 851 128 960 102 1082 58 
C 1325 -38 1581 -90 1837 -90 
C 2579 -90 3142 416 3142 1075 
z
" transform="scale(0.015625)"/>
       <path id="TeXGyreTermes-Regular-63" d="M 2637 941 
L 2547 998 
C 2240 550 2010 397 1645 397 
C 1056 397 653 909 653 1645 
C 653 2310 1005 2758 1523 2758 
C 1754 2758 1837 2688 1901 2451 
L 1939 2310 
C 1990 2125 2106 2016 2246 2016 
C 2413 2016 2547 2138 2547 2285 
C 2547 2643 2099 2944 1562 2944 
C 1261 2944 954 2829 698 2618 
C 352 2330 160 1888 160 1357 
C 160 531 666 -64 1376 -64 
C 1651 -64 1894 26 2112 205 
C 2304 358 2432 544 2637 941 
z
" transform="scale(0.015625)"/>
       <path id="TeXGyreTermes-Regular-68" d="M 3117 0 
L 3117 96 
C 2771 160 2733 211 2733 653 
L 2733 1926 
C 2733 2598 2464 2944 1946 2944 
C 1568 2944 1299 2790 1005 2406 
L 1005 4352 
L 973 4371 
C 755 4294 595 4243 237 4141 
L 64 4090 
L 64 3987 
C 90 3994 109 3994 141 3994 
C 416 3994 467 3942 467 3667 
L 467 653 
C 467 205 429 147 58 96 
L 58 0 
L 1440 0 
L 1440 96 
C 1069 134 1005 211 1005 653 
L 1005 2195 
C 1274 2490 1466 2598 1715 2598 
C 2035 2598 2195 2368 2195 1920 
L 2195 653 
C 2195 218 2131 134 1760 96 
L 1760 0 
L 3117 0 
z
" transform="scale(0.015625)"/>
       <path id="TeXGyreTermes-Regular-72" d="M 2144 2605 
C 2144 2816 2010 2944 1792 2944 
C 1523 2944 1338 2797 1024 2342 
L 1024 2931 
L 992 2944 
C 653 2803 422 2720 45 2598 
L 45 2496 
C 134 2515 192 2522 269 2522 
C 429 2522 486 2419 486 2138 
L 486 538 
C 486 218 442 173 32 96 
L 32 0 
L 1568 0 
L 1568 96 
C 1133 115 1024 211 1024 576 
L 1024 2016 
C 1024 2221 1299 2541 1472 2541 
C 1510 2541 1568 2509 1638 2445 
C 1741 2355 1811 2317 1894 2317 
C 2048 2317 2144 2426 2144 2605 
z
" transform="scale(0.015625)"/>
       <path id="TeXGyreTermes-Regular-69" d="M 1619 0 
L 1619 96 
C 1197 128 1146 192 1146 653 
L 1146 2925 
L 1120 2944 
L 128 2592 
L 128 2496 
L 179 2502 
C 256 2515 339 2522 397 2522 
C 550 2522 608 2419 608 2138 
L 608 653 
C 608 192 544 122 102 96 
L 102 0 
L 1619 0 
z
M 1203 3776 
C 1203 3955 1062 4102 877 4102 
C 698 4102 550 3955 550 3776 
C 550 3590 698 3450 877 3450 
C 1062 3450 1203 3590 1203 3776 
z
" transform="scale(0.015625)"/>
       <path id="TeXGyreTermes-Regular-74" d="M 1786 422 
L 1702 493 
C 1562 326 1459 269 1318 269 
C 1082 269 986 435 986 845 
L 986 2675 
L 1632 2675 
L 1632 2880 
L 986 2880 
L 986 3622 
C 986 3686 973 3706 941 3706 
C 902 3642 858 3584 813 3526 
C 576 3174 358 2938 192 2842 
C 122 2797 83 2758 83 2720 
C 83 2701 90 2688 109 2675 
L 448 2675 
L 448 749 
C 448 211 640 -64 1011 -64 
C 1331 -64 1574 90 1786 422 
z
" transform="scale(0.015625)"/>
       <path id="TeXGyreTermes-Regular-20" transform="scale(0.015625)"/>
       <path id="TeXGyreTermes-Regular-6b" d="M 3232 0 
L 3232 96 
C 2950 115 2752 237 2483 563 
L 1504 1805 
L 1690 1978 
C 2144 2400 2541 2694 2726 2746 
C 2822 2771 2912 2784 3021 2784 
L 3072 2784 
L 3072 2880 
L 1766 2880 
L 1766 2790 
C 2016 2784 2086 2758 2086 2669 
C 2086 2618 2029 2528 1939 2451 
L 1062 1670 
L 1062 4358 
L 1037 4371 
L 237 4141 
L 45 4090 
L 45 3987 
C 128 3994 186 4000 250 4000 
C 461 4000 525 3917 525 3610 
L 525 525 
C 525 192 506 173 45 96 
L 45 0 
L 1542 0 
L 1542 96 
L 1414 102 
C 1158 115 1062 205 1062 429 
L 1062 1606 
L 1958 410 
L 1978 384 
C 1990 365 2003 346 2022 326 
C 2074 262 2093 224 2093 192 
C 2093 134 2035 96 1958 96 
L 1837 96 
L 1837 0 
L 3232 0 
z
" transform="scale(0.015625)"/>
      </defs>
      <use xlink:href="#TeXGyreTermes-Regular-53"/>
      <use xlink:href="#TeXGyreTermes-Regular-63" transform="translate(55.599991 0)"/>
      <use xlink:href="#TeXGyreTermes-Regular-68" transform="translate(99.999985 0)"/>
      <use xlink:href="#TeXGyreTermes-Regular-72" transform="translate(149.999969 0)"/>
      <use xlink:href="#TeXGyreTermes-Regular-69" transform="translate(183.299957 0)"/>
      <use xlink:href="#TeXGyreTermes-Regular-74" transform="translate(211.099945 0)"/>
      <use xlink:href="#TeXGyreTermes-Regular-74" transform="translate(238.899933 0)"/>
      <use xlink:href="#TeXGyreTermes-Regular-20" transform="translate(266.699921 0)"/>
      <use xlink:href="#TeXGyreTermes-Regular-6b" transform="translate(291.699905 0)"/>
     </g>
    </g>
   </g>
   <g id="matplotlib.axis_2">
    <g id="ytick_1">
     <g id="line2d_11">
      <path d="M 94.934 231.011276 
L 410.94 231.011276 
" clip-path="url(#p0630ff012f)" style="fill: none; stroke: #b0b0b0; stroke-width: 0.8; stroke-linecap: square"/>
     </g>
     <g id="line2d_12">
      <defs>
       <path id="m35e17b6d75" d="M 0 0 
L -3.5 0 
" style="stroke: #000000; stroke-width: 0.8"/>
      </defs>
      <g>
       <use xlink:href="#m35e17b6d75" x="94.934" y="231.011276" style="stroke: #000000; stroke-width: 0.8"/>
      </g>
     </g>
     <g id="text_7">
      <!-- 0 -->
      <g transform="translate(75.934 239.206901) scale(0.24 -0.24)">
       <use xlink:href="#TeXGyreTermes-Regular-30"/>
      </g>
     </g>
    </g>
    <g id="ytick_2">
     <g id="line2d_13">
      <path d="M 94.934 165.225714 
L 410.94 165.225714 
" clip-path="url(#p0630ff012f)" style="fill: none; stroke: #b0b0b0; stroke-width: 0.8; stroke-linecap: square"/>
     </g>
     <g id="line2d_14">
      <g>
       <use xlink:href="#m35e17b6d75" x="94.934" y="165.225714" style="stroke: #000000; stroke-width: 0.8"/>
      </g>
     </g>
     <g id="text_8">
      <!-- 200 -->
      <g transform="translate(51.934 173.421339) scale(0.24 -0.24)">
       <use xlink:href="#TeXGyreTermes-Regular-32"/>
       <use xlink:href="#TeXGyreTermes-Regular-30" transform="translate(49.999985 0)"/>
       <use xlink:href="#TeXGyreTermes-Regular-30" transform="translate(99.999969 0)"/>
      </g>
     </g>
    </g>
    <g id="ytick_3">
     <g id="line2d_15">
      <path d="M 94.934 99.440153 
L 410.94 99.440153 
" clip-path="url(#p0630ff012f)" style="fill: none; stroke: #b0b0b0; stroke-width: 0.8; stroke-linecap: square"/>
     </g>
     <g id="line2d_16">
      <g>
       <use xlink:href="#m35e17b6d75" x="94.934" y="99.440153" style="stroke: #000000; stroke-width: 0.8"/>
      </g>
     </g>
     <g id="text_9">
      <!-- 400 -->
      <g transform="translate(51.934 107.635778) scale(0.24 -0.24)">
       <defs>
        <path id="TeXGyreTermes-Regular-34" d="M 3021 1069 
L 3021 1478 
L 2368 1478 
L 2368 4326 
L 2086 4326 
L 77 1478 
L 77 1069 
L 1875 1069 
L 1875 0 
L 2368 0 
L 2368 1069 
L 3021 1069 
z
M 1869 1478 
L 333 1478 
L 1869 3674 
L 1869 1478 
z
" transform="scale(0.015625)"/>
       </defs>
       <use xlink:href="#TeXGyreTermes-Regular-34"/>
       <use xlink:href="#TeXGyreTermes-Regular-30" transform="translate(49.999985 0)"/>
       <use xlink:href="#TeXGyreTermes-Regular-30" transform="translate(99.999969 0)"/>
      </g>
     </g>
    </g>
    <g id="ytick_4">
     <g id="line2d_17">
      <path d="M 94.934 33.654592 
L 410.94 33.654592 
" clip-path="url(#p0630ff012f)" style="fill: none; stroke: #b0b0b0; stroke-width: 0.8; stroke-linecap: square"/>
     </g>
     <g id="line2d_18">
      <g>
       <use xlink:href="#m35e17b6d75" x="94.934" y="33.654592" style="stroke: #000000; stroke-width: 0.8"/>
      </g>
     </g>
     <g id="text_10">
      <!-- 600 -->
      <g transform="translate(51.934 41.850217) scale(0.24 -0.24)">
       <defs>
        <path id="TeXGyreTermes-Regular-36" d="M 2995 1402 
C 2995 2221 2528 2739 1792 2739 
C 1510 2739 1376 2694 973 2451 
C 1146 3418 1862 4109 2867 4275 
L 2854 4378 
C 2125 4314 1754 4192 1286 3866 
C 595 3373 218 2643 218 1786 
C 218 1229 390 666 666 346 
C 909 64 1254 -90 1651 -90 
C 2445 -90 2995 518 2995 1402 
z
M 2419 1184 
C 2419 480 2170 90 1722 90 
C 1158 90 813 691 813 1683 
C 813 2010 864 2189 992 2285 
C 1126 2387 1325 2445 1549 2445 
C 2099 2445 2419 1984 2419 1184 
z
" transform="scale(0.015625)"/>
       </defs>
       <use xlink:href="#TeXGyreTermes-Regular-36"/>
       <use xlink:href="#TeXGyreTermes-Regular-30" transform="translate(49.999985 0)"/>
       <use xlink:href="#TeXGyreTermes-Regular-30" transform="translate(99.999969 0)"/>
      </g>
     </g>
    </g>
    <g id="text_11">
     <!-- $x_{k+1} = x_k + \omega_k$ -->
     <g transform="translate(42.72525 233.557784) rotate(-90) scale(0.24 -0.24)">
      <defs>
       <path id="DejaVuSans-Oblique-78" d="M 3841 3500 
L 2234 1784 
L 3219 0 
L 2559 0 
L 1819 1388 
L 531 0 
L -166 0 
L 1556 1844 
L 641 3500 
L 1300 3500 
L 1972 2234 
L 3144 3500 
L 3841 3500 
z
" transform="scale(0.015625)"/>
       <path id="DejaVuSans-Oblique-6b" d="M 1172 4863 
L 1747 4863 
L 1197 2028 
L 3169 3500 
L 3916 3500 
L 1716 1825 
L 3322 0 
L 2625 0 
L 1131 1709 
L 800 0 
L 225 0 
L 1172 4863 
z
" transform="scale(0.015625)"/>
       <path id="DejaVuSans-2b" d="M 2944 4013 
L 2944 2272 
L 4684 2272 
L 4684 1741 
L 2944 1741 
L 2944 0 
L 2419 0 
L 2419 1741 
L 678 1741 
L 678 2272 
L 2419 2272 
L 2419 4013 
L 2944 4013 
z
" transform="scale(0.015625)"/>
       <path id="DejaVuSans-31" d="M 794 531 
L 1825 531 
L 1825 4091 
L 703 3866 
L 703 4441 
L 1819 4666 
L 2450 4666 
L 2450 531 
L 3481 531 
L 3481 0 
L 794 0 
L 794 531 
z
" transform="scale(0.015625)"/>
       <path id="DejaVuSans-3d" d="M 678 2906 
L 4684 2906 
L 4684 2381 
L 678 2381 
L 678 2906 
z
M 678 1631 
L 4684 1631 
L 4684 1100 
L 678 1100 
L 678 1631 
z
" transform="scale(0.015625)"/>
       <path id="DejaVuSans-Oblique-3c9" d="M 1369 -91 
Q 72 -91 434 1766 
Q 575 2500 1256 3500 
L 1875 3500 
Q 1231 2500 1088 1750 
Q 819 397 1519 397 
Q 2166 397 2478 2078 
L 3009 2078 
Q 2669 388 3316 397 
Q 4013 403 4275 1750 
Q 4419 2500 4169 3500 
L 4788 3500 
Q 5075 2500 4934 1766 
Q 4578 -94 3278 -91 
Q 2428 -88 2503 844 
Q 2194 -91 1369 -91 
z
" transform="scale(0.015625)"/>
      </defs>
      <use xlink:href="#DejaVuSans-Oblique-78" transform="translate(0 0.296875)"/>
      <use xlink:href="#DejaVuSans-Oblique-6b" transform="translate(59.179688 -16.109375) scale(0.7)"/>
      <use xlink:href="#DejaVuSans-2b" transform="translate(113.354492 -16.109375) scale(0.7)"/>
      <use xlink:href="#DejaVuSans-31" transform="translate(185.644531 -16.109375) scale(0.7)"/>
      <use xlink:href="#DejaVuSans-3d" transform="translate(252.397461 0.296875)"/>
      <use xlink:href="#DejaVuSans-Oblique-78" transform="translate(355.668945 0.296875)"/>
      <use xlink:href="#DejaVuSans-Oblique-6b" transform="translate(414.848633 -16.109375) scale(0.7)"/>
      <use xlink:href="#DejaVuSans-2b" transform="translate(477.602539 0.296875)"/>
      <use xlink:href="#DejaVuSans-Oblique-3c9" transform="translate(580.874023 0.296875)"/>
      <use xlink:href="#DejaVuSans-Oblique-6b" transform="translate(664.614258 -16.109375) scale(0.7)"/>
     </g>
    </g>
   </g>
   <g id="line2d_19">
    <path d="M 94.934 231.011276 
L 95.250006 231.441821 
L 95.566012 231.471494 
L 95.882018 231.221214 
L 96.198024 231.316726 
L 96.51403 231.053061 
L 96.830036 230.996071 
L 98.410066 233.836406 
L 99.67409 237.068742 
L 99.990096 237.825842 
L 100.306102 237.932572 
L 100.622108 238.407228 
L 101.25412 238.614808 
L 101.886132 238.747225 
L 102.518144 239.237884 
L 103.150156 239.972625 
L 103.782168 240.777606 
L 104.098174 240.722758 
L 104.41418 240.938323 
L 104.730186 240.922281 
L 105.362198 240.466232 
L 105.99421 240.654615 
L 106.626222 241.512367 
L 106.942228 241.262633 
L 107.258234 240.632851 
L 107.890246 240.191859 
L 108.206252 240.529194 
L 108.522258 240.587433 
L 108.838264 240.81735 
L 109.15427 240.587484 
L 110.102288 241.397147 
L 110.418294 241.798952 
L 110.7343 242.473655 
L 111.998324 246.056338 
L 112.630336 248.933908 
L 112.946342 249.567005 
L 113.578354 251.900906 
L 113.89436 253.048936 
L 114.526372 253.851033 
L 114.842378 253.983869 
L 115.158384 253.915501 
L 115.47439 254.248171 
L 116.422408 254.440787 
L 117.05442 254.815059 
L 117.686432 254.65145 
L 118.002438 254.822349 
L 118.318444 254.305491 
L 118.63445 254.583886 
L 118.950456 254.683132 
L 119.582468 255.307103 
L 119.898474 255.028344 
L 120.21448 255.345297 
L 120.530486 255.145674 
L 121.162498 255.549799 
L 121.478504 255.215087 
L 121.79451 255.477816 
L 122.426522 253.884204 
L 122.742528 252.891803 
L 123.058534 252.351912 
L 123.690546 250.801559 
L 124.006552 250.74841 
L 124.322558 251.146453 
L 124.95457 250.963007 
L 125.270576 250.955789 
L 125.586582 251.147557 
L 125.902588 250.725858 
L 126.218594 249.665686 
L 126.850606 248.612142 
L 127.482618 248.421431 
L 128.11463 246.479415 
L 128.430636 246.288177 
L 128.746642 246.814956 
L 129.062648 246.857074 
L 129.378654 246.374342 
L 129.69466 246.504826 
L 130.326672 244.78132 
L 131.590696 242.871557 
L 132.222708 243.05191 
L 132.538714 243.229489 
L 132.85472 242.758513 
L 133.486732 242.698886 
L 134.118744 241.821029 
L 134.750756 240.853442 
L 135.066762 240.564502 
L 135.382768 240.123017 
L 136.01478 238.610979 
L 136.962798 237.160317 
L 137.59481 237.376717 
L 137.910816 237.113381 
L 138.226822 237.092341 
L 138.542828 236.783931 
L 140.438864 232.156172 
L 141.070876 232.034857 
L 141.702888 231.572949 
L 142.018894 232.208756 
L 142.3349 231.976185 
L 142.650906 232.242774 
L 142.966912 232.735521 
L 143.598924 234.170414 
L 143.91493 234.095632 
L 144.230936 234.318159 
L 144.546942 234.721645 
L 144.862948 234.904143 
L 145.178954 234.934404 
L 145.810966 234.385778 
L 146.126972 234.15954 
L 146.442978 234.094288 
L 147.07499 233.387196 
L 147.390996 233.393332 
L 147.707002 233.576505 
L 149.287032 231.819775 
L 150.23505 229.951243 
L 151.183068 229.180298 
L 151.499074 228.515916 
L 152.131086 227.537472 
L 152.763098 226.037572 
L 154.027122 223.158234 
L 154.343128 222.436066 
L 155.291146 221.499084 
L 155.607152 221.475271 
L 155.923158 220.688977 
L 156.55517 219.87151 
L 157.187182 218.091495 
L 157.503188 217.56713 
L 157.819194 217.945954 
L 158.1352 217.939735 
L 158.451206 218.105799 
L 158.767212 218.054889 
L 159.399224 217.720741 
L 159.71523 217.687843 
L 160.031236 217.542229 
L 160.979254 216.453265 
L 161.29526 216.285039 
L 161.927272 215.477709 
L 162.243278 215.393292 
L 162.87529 214.858703 
L 163.191296 214.02865 
L 163.507302 213.583844 
L 163.823308 213.594642 
L 164.45532 212.691797 
L 164.771326 212.628464 
L 165.403338 211.194633 
L 166.03535 209.26494 
L 166.351356 208.980166 
L 166.667362 209.025155 
L 166.983368 208.427913 
L 167.299374 208.618557 
L 167.61538 208.49838 
L 167.931386 208.052615 
L 168.247392 207.880045 
L 168.563398 207.189823 
L 169.511416 206.699309 
L 170.143428 207.166012 
L 170.459434 206.873311 
L 170.77544 206.743456 
L 171.091446 206.885952 
L 171.407452 207.357389 
L 172.039464 209.085751 
L 173.619494 212.201297 
L 174.251506 212.876643 
L 174.567512 213.502101 
L 174.883518 213.7114 
L 175.199524 213.629647 
L 175.51553 214.050609 
L 176.147542 214.438869 
L 176.463548 214.619452 
L 176.779554 214.60447 
L 177.09556 214.46754 
L 177.411566 214.164758 
L 177.727572 213.62117 
L 178.043578 213.384266 
L 178.67559 212.330422 
L 178.991596 211.408725 
L 179.623608 210.895504 
L 179.939614 210.456432 
L 180.25562 210.219057 
L 180.571626 209.571299 
L 180.887632 208.517353 
L 181.203638 208.01711 
L 181.83565 206.466896 
L 182.151656 206.158916 
L 182.467662 206.122674 
L 182.783668 206.435617 
L 183.41568 205.680586 
L 183.731686 205.89232 
L 184.047692 205.169027 
L 184.363698 204.158959 
L 184.679704 203.898775 
L 185.311716 204.193408 
L 186.259734 203.722247 
L 186.891746 204.012338 
L 187.839764 203.663074 
L 188.15577 203.815884 
L 188.787782 202.975256 
L 189.103788 203.367723 
L 190.367812 202.095631 
L 190.683818 202.263875 
L 190.999824 202.129091 
L 191.31583 201.47192 
L 191.631836 201.133875 
L 191.947842 201.369078 
L 192.263848 200.570472 
L 192.89586 198.320503 
L 193.527872 197.021825 
L 193.843878 196.729428 
L 195.107902 194.143793 
L 195.423908 194.362646 
L 195.739914 194.261914 
L 196.05592 193.918419 
L 196.371926 193.025609 
L 196.687932 193.319873 
L 197.003938 192.867481 
L 198.267962 192.158357 
L 198.583968 192.255201 
L 198.899974 192.046803 
L 199.531986 190.332371 
L 200.163998 190.441335 
L 200.480004 190.332662 
L 200.79601 190.495031 
L 201.112016 189.805652 
L 201.428022 189.655931 
L 201.744028 189.754654 
L 202.060034 189.722421 
L 202.37604 189.914439 
L 202.692046 189.832091 
L 203.008052 189.360073 
L 203.324058 188.540329 
L 203.640064 188.390779 
L 203.95607 188.61718 
L 204.588082 187.629002 
L 205.5361 185.740232 
L 205.852106 185.626389 
L 207.11613 184.55236 
L 207.432136 184.407705 
L 207.748142 184.530087 
L 208.064148 184.36624 
L 209.012166 185.137289 
L 209.644178 184.277363 
L 210.27619 183.454802 
L 210.592196 183.858761 
L 210.908202 183.674115 
L 211.224208 183.876294 
L 211.540214 183.798598 
L 211.85622 183.920879 
L 212.172226 183.795277 
L 212.488232 184.193415 
L 212.804238 184.011944 
L 213.43625 182.835272 
L 213.752256 182.704542 
L 214.384268 181.817516 
L 214.700274 180.892641 
L 215.332286 179.791942 
L 215.648292 179.864794 
L 215.964298 180.416028 
L 216.59631 182.054655 
L 216.912316 181.921914 
L 217.228322 181.505233 
L 217.860334 182.130675 
L 218.17634 181.800429 
L 218.808352 180.247973 
L 219.124358 180.454675 
L 219.440364 180.811432 
L 219.75637 180.517379 
L 221.3364 180.417876 
L 221.652406 180.284182 
L 221.968412 179.915237 
L 222.284418 179.064557 
L 222.600424 178.922895 
L 223.864448 176.946182 
L 224.49646 175.726169 
L 224.812466 175.684851 
L 225.760484 173.878054 
L 226.07649 173.600147 
L 226.708502 172.68027 
L 227.024508 172.624711 
L 227.65652 172.997246 
L 227.972526 172.818667 
L 228.288532 173.613953 
L 228.604538 173.754178 
L 229.23655 173.448557 
L 229.552556 172.946524 
L 229.868562 171.791833 
L 230.184568 171.752053 
L 230.500574 171.590635 
L 231.132586 170.697013 
L 232.080604 169.884537 
L 232.39661 169.90959 
L 232.712616 170.338103 
L 233.028622 170.233809 
L 233.660634 169.154339 
L 233.97664 168.800985 
L 234.292646 168.238872 
L 234.608652 168.090551 
L 235.872676 166.350468 
L 236.820694 166.081293 
L 237.1367 165.835992 
L 237.452706 165.77538 
L 238.084718 164.952503 
L 238.400724 164.769756 
L 239.664748 163.081487 
L 240.29676 162.028095 
L 240.928772 160.829439 
L 241.244778 160.644125 
L 241.560784 160.327082 
L 241.87679 159.397307 
L 242.824808 157.456756 
L 243.45682 155.929775 
L 243.772826 155.152101 
L 244.404838 154.842124 
L 244.720844 154.822448 
L 245.352856 154.268795 
L 245.668862 153.868124 
L 245.984868 152.911656 
L 246.300874 152.805486 
L 246.61688 152.254408 
L 246.932886 152.141287 
L 247.248892 152.507813 
L 247.880904 151.985494 
L 248.19691 151.849826 
L 248.512916 151.380035 
L 248.828922 151.18244 
L 249.144928 149.586842 
L 249.460934 149.002404 
L 250.092946 147.244539 
L 250.408952 146.694193 
L 250.724958 146.54791 
L 251.040964 145.547779 
L 251.35697 145.089328 
L 251.672976 144.312088 
L 251.988982 143.023118 
L 252.937 141.16198 
L 253.569012 140.070852 
L 253.885018 139.79775 
L 254.51703 138.941199 
L 254.833036 138.887446 
L 255.149042 138.320569 
L 255.465048 138.00743 
L 256.09706 136.124292 
L 256.413066 135.414132 
L 257.045078 135.612485 
L 257.67709 134.378397 
L 257.993096 134.253335 
L 258.309102 133.958955 
L 258.625108 134.095929 
L 258.941114 134.025946 
L 259.25712 134.33566 
L 260.205138 134.262014 
L 260.521144 134.515256 
L 260.83715 134.286118 
L 261.153156 134.498571 
L 261.785168 135.55715 
L 262.101174 135.775429 
L 262.41718 135.85508 
L 262.733186 136.099029 
L 263.049192 135.996201 
L 263.365198 136.174771 
L 263.99721 135.65516 
L 264.629222 136.24227 
L 265.261234 135.410522 
L 265.57724 135.573083 
L 265.893246 135.541166 
L 266.209252 135.266851 
L 266.525258 134.639191 
L 266.841264 134.276596 
L 267.473276 134.575147 
L 269.053306 131.511049 
L 269.369312 131.35466 
L 269.685318 130.876319 
L 270.31733 130.329876 
L 270.949342 129.656868 
L 271.265348 130.110373 
L 271.581354 130.867891 
L 271.89736 130.669012 
L 272.213366 130.838649 
L 272.529372 131.446708 
L 273.161384 131.657798 
L 273.47739 132.044052 
L 274.109402 132.33895 
L 274.425408 132.423332 
L 274.741414 133.14257 
L 275.373426 133.625762 
L 275.689432 133.549098 
L 276.005438 133.68757 
L 276.321444 133.596436 
L 276.63745 133.328556 
L 276.953456 133.348329 
L 277.269462 133.485674 
L 277.585468 133.362299 
L 277.901474 132.597607 
L 278.533486 131.554137 
L 278.849492 131.066407 
L 279.165498 130.327735 
L 279.79751 129.986278 
L 280.113516 129.556258 
L 280.429522 129.31813 
L 281.061534 129.110874 
L 281.37754 128.887637 
L 282.009552 128.201238 
L 282.641564 128.38833 
L 282.95757 128.766274 
L 283.273576 128.407648 
L 283.905588 127.128116 
L 284.221594 126.106557 
L 284.5376 125.639454 
L 285.169612 123.978547 
L 287.381654 116.316539 
L 287.69766 115.786208 
L 288.013666 115.574408 
L 288.645678 113.998213 
L 289.909702 109.467535 
L 290.541714 107.698903 
L 293.069762 97.176066 
L 293.701774 94.32115 
L 294.01778 93.439229 
L 295.281804 87.71258 
L 296.545828 82.425783 
L 296.861834 82.245641 
L 297.493846 80.471018 
L 297.809852 80.181735 
L 298.75787 76.974217 
L 299.073876 76.255984 
L 299.389882 75.104449 
L 300.021894 73.467302 
L 300.653906 71.04187 
L 300.969912 70.526579 
L 301.285918 70.239208 
L 301.601924 69.762653 
L 301.91793 69.75221 
L 302.233936 69.442107 
L 303.181954 66.969601 
L 303.49796 66.455812 
L 303.813966 66.338877 
L 304.129972 65.780728 
L 304.445978 65.489245 
L 304.761984 65.415466 
L 305.07799 65.038746 
L 305.710002 63.356241 
L 306.026008 63.344573 
L 306.342014 62.492231 
L 306.65802 61.961602 
L 307.606038 59.687736 
L 308.23805 58.553839 
L 308.554056 58.451389 
L 308.870062 58.068905 
L 309.186068 58.400654 
L 309.502074 58.438851 
L 310.134086 58.053608 
L 310.450092 58.173705 
L 311.082104 59.212815 
L 311.39811 59.831349 
L 311.714116 60.070399 
L 312.030122 59.483351 
L 312.346128 59.260724 
L 312.97814 59.995732 
L 313.926158 59.798248 
L 314.242164 59.66696 
L 314.874176 59.036795 
L 315.506188 57.456715 
L 315.822194 57.307905 
L 316.770212 55.959872 
L 317.086218 55.778972 
L 317.402224 55.461765 
L 317.71823 55.411769 
L 318.034236 55.677563 
L 318.350242 55.426351 
L 318.666248 55.787569 
L 318.982254 56.479129 
L 319.29826 56.663077 
L 320.562284 55.021413 
L 320.87829 54.984564 
L 321.194296 55.253038 
L 321.510302 54.787214 
L 321.826308 53.755226 
L 322.142314 53.138444 
L 322.774326 51.459596 
L 323.406338 50.413042 
L 323.722344 49.858188 
L 324.03835 48.960683 
L 324.986368 47.790185 
L 325.302374 48.066218 
L 325.934386 46.996215 
L 326.250392 46.527274 
L 326.566398 46.527445 
L 326.882404 46.664391 
L 327.19841 46.327889 
L 327.514416 46.335581 
L 328.146428 45.608087 
L 328.462434 45.112817 
L 329.726458 43.924359 
L 330.042464 43.91929 
L 330.35847 44.253153 
L 330.674476 43.619889 
L 330.990482 43.858917 
L 331.306488 43.458942 
L 331.622494 43.415062 
L 332.254506 42.448653 
L 332.570512 42.306918 
L 333.202524 42.413925 
L 333.834536 41.645769 
L 335.09856 43.59956 
L 336.046578 44.564098 
L 336.67859 44.70632 
L 337.626608 44.054345 
L 337.942614 44.318814 
L 338.25862 44.929357 
L 338.574626 45.291114 
L 338.890632 45.46679 
L 339.522644 45.194922 
L 340.154656 45.800715 
L 340.470662 45.824483 
L 340.786668 46.302205 
L 341.41868 47.526395 
L 341.734686 47.974916 
L 342.366698 49.437813 
L 342.682704 50.033886 
L 343.314716 50.411239 
L 343.630722 50.372701 
L 343.946728 50.699055 
L 344.57874 51.744813 
L 344.894746 51.451443 
L 345.526758 51.431149 
L 345.842764 51.45684 
L 346.15877 51.197567 
L 346.474776 51.235566 
L 347.106788 52.402193 
L 347.422794 52.574866 
L 348.054806 53.624522 
L 348.370812 54.233356 
L 348.686818 54.472803 
L 349.002824 55.109886 
L 349.634836 55.742294 
L 349.950842 55.689545 
L 350.582854 57.345865 
L 350.89886 57.68125 
L 351.214866 57.699319 
L 352.162884 58.04232 
L 352.47889 57.936607 
L 352.794896 57.531002 
L 353.426908 57.702318 
L 353.742914 58.024563 
L 354.05892 58.989533 
L 355.322944 60.810353 
L 355.63895 60.758956 
L 355.954956 61.156098 
L 356.586968 61.324644 
L 357.21898 62.614914 
L 357.534986 62.532277 
L 358.166998 63.438926 
L 358.483004 63.240799 
L 358.79901 62.866346 
L 359.115016 62.250638 
L 359.747028 62.473885 
L 360.063034 61.968051 
L 360.37904 61.832492 
L 360.695046 61.880059 
L 361.011052 61.408021 
L 361.327058 61.554344 
L 361.643064 61.11109 
L 361.95907 61.275811 
L 362.275076 61.608386 
L 362.907088 63.001331 
L 363.223094 63.068722 
L 363.5391 63.278035 
L 363.855106 63.67837 
L 365.11913 67.258703 
L 365.435136 67.557276 
L 365.751142 67.545417 
L 366.067148 67.709897 
L 366.69916 67.716816 
L 367.015166 67.974822 
L 367.647178 68.876805 
L 367.963184 68.954105 
L 368.27919 69.317953 
L 368.595196 69.911885 
L 368.911202 70.003155 
L 369.543214 68.012738 
L 370.491232 66.008987 
L 371.123244 63.802137 
L 371.43925 63.11359 
L 371.755256 62.770566 
L 372.071262 62.252156 
L 372.387268 62.112214 
L 373.01928 60.355806 
L 373.335286 60.195637 
L 373.651292 60.243953 
L 373.967298 60.010821 
L 374.59931 60.976744 
L 374.915316 60.7536 
L 375.231322 61.034593 
L 375.547328 61.605539 
L 375.863334 61.608131 
L 376.17934 61.849673 
L 376.495346 61.670545 
L 377.127358 61.610473 
L 377.443364 61.957575 
L 378.075376 63.112075 
L 378.391382 63.39006 
L 378.707388 64.066138 
L 379.023394 64.112715 
L 380.287418 63.633248 
L 380.603424 63.145988 
L 381.235436 62.775153 
L 381.551442 62.490598 
L 381.867448 61.893731 
L 383.131472 61.22633 
L 383.447478 61.358982 
L 384.07949 60.987884 
L 384.395496 60.427694 
L 385.027508 60.805119 
L 385.343514 60.930565 
L 385.65952 60.833287 
L 385.975526 60.189419 
L 386.291532 60.048093 
L 386.607538 60.183394 
L 386.923544 60.078033 
L 387.23955 60.379639 
L 387.555556 60.214295 
L 387.871562 59.832788 
L 388.187568 59.861592 
L 389.135586 60.359975 
L 389.451592 60.60849 
L 389.767598 60.674925 
L 390.39961 61.169734 
L 391.347628 62.953677 
L 391.97964 63.709211 
L 392.611652 63.900188 
L 393.243664 64.566076 
L 393.55967 64.894663 
L 393.875676 64.864984 
L 394.507688 63.653435 
L 395.455706 61.009804 
L 395.771712 60.744005 
L 396.087718 60.697775 
L 396.403724 59.85337 
L 397.035736 58.986512 
L 397.351742 59.213173 
L 397.983754 60.130812 
L 398.29976 60.133683 
L 398.615766 60.34998 
L 398.931772 60.084432 
L 399.247778 60.16828 
L 399.87979 61.429046 
L 401.143814 63.369936 
L 401.775826 64.700426 
L 402.091832 64.923515 
L 402.407838 65.338987 
L 403.03985 65.47825 
L 403.671862 66.367409 
L 404.303874 67.668838 
L 404.61988 67.839683 
L 404.935886 68.36079 
L 405.567898 68.707507 
L 405.883904 68.691113 
L 406.515916 69.373183 
L 406.831922 69.256987 
L 407.77994 70.666202 
L 408.095946 71.095857 
L 408.411952 71.886711 
L 409.35997 72.563353 
L 409.991982 72.778298 
L 410.307988 73.10263 
L 410.623994 74.257404 
L 410.623994 74.257404 
" clip-path="url(#p0630ff012f)" style="fill: none; stroke: #1f77b4; stroke-width: 1.5; stroke-linecap: square"/>
   </g>
   <g id="patch_3">
    <path d="M 94.934 266.245 
L 94.934 30.950567 
" style="fill: none; stroke: #000000; stroke-width: 0.8; stroke-linejoin: miter; stroke-linecap: square"/>
   </g>
   <g id="patch_4">
    <path d="M 410.94 266.245 
L 410.94 30.950567 
" style="fill: none; stroke: #000000; stroke-width: 0.8; stroke-linejoin: miter; stroke-linecap: square"/>
   </g>
   <g id="patch_5">
    <path d="M 94.934 266.245 
L 410.94 266.245 
" style="fill: none; stroke: #000000; stroke-width: 0.8; stroke-linejoin: miter; stroke-linecap: square"/>
   </g>
   <g id="patch_6">
    <path d="M 94.934 30.950567 
L 410.94 30.950567 
" style="fill: none; stroke: #000000; stroke-width: 0.8; stroke-linejoin: miter; stroke-linecap: square"/>
   </g>
  </g>
 </g>
 <defs>
  <clipPath id="p0630ff012f">
   <rect x="94.934" y="30.950567" width="316.006" height="235.294433"/>
  </clipPath>
 </defs>
</svg>
