<?xml version="1.0" encoding="utf-8" standalone="no"?>
<!DOCTYPE svg PUBLIC "-//W3C//DTD SVG 1.1//EN"
  "http://www.w3.org/Graphics/SVG/1.1/DTD/svg11.dtd">
<svg xmlns:xlink="http://www.w3.org/1999/xlink" width="460.8pt" height="345.6pt" viewBox="0 0 460.8 345.6" xmlns="http://www.w3.org/2000/svg" version="1.1">
 <metadata>
  <rdf:RDF xmlns:dc="http://purl.org/dc/elements/1.1/" xmlns:cc="http://creativecommons.org/ns#" xmlns:rdf="http://www.w3.org/1999/02/22-rdf-syntax-ns#">
   <cc:Work>
    <dc:type rdf:resource="http://purl.org/dc/dcmitype/StillImage"/>
    <dc:date>2026-01-29T08:00:30.282223</dc:date>
    <dc:format>image/svg+xml</dc:format>
    <dc:creator>
     <cc:Agent>
      <dc:title>Matplotlib v3.10.8, https://matplotlib.org/</dc:title>
     </cc:Agent>
    </dc:creator>
   </cc:Work>
  </rdf:RDF>
 </metadata>
 <defs>
  <style type="text/css">*{stroke-linejoin: round; stroke-linecap: butt}</style>
 </defs>
 <g id="figure_1">
  <g id="patch_1">
   <path d="M 0 345.6 
L 460.8 345.6 
L 460.8 0 
L 0 0 
z
" style="fill: #ffffff"/>
  </g>
  <g id="axes_1">
   <g id="patch_2">
    <path d="M 56.86 266.245 
L 426.847748 266.245 
L 426.847748 25.92 
L 56.86 25.92 
z
" style="fill: #ffffff"/>
   </g>
   <g id="matplotlib.axis_1">
    <g id="xtick_1">
     <g id="line2d_1">
      <path d="M 73.677625 266.245 
L 73.677625 25.92 
" clip-path="url(#ped480de956)" style="fill: none; stroke: #b0b0b0; stroke-width: 0.8; stroke-linecap: square"/>
     </g>
     <g id="line2d_2">
      <defs>
       <path id="m23bebfbb4a" d="M 0 0 
L 0 3.5 
" style="stroke: #000000; stroke-width: 0.8"/>
      </defs>
      <g>
       <use xlink:href="#m23bebfbb4a" x="73.677625" y="266.245" style="stroke: #000000; stroke-width: 0.8"/>
      </g>
     </g>
     <g id="text_1">
      <!-- 0 -->
      <g transform="translate(67.677625 289.63625) scale(0.24 -0.24)">
       <defs>
        <path id="TeXGyreTermes-Regular-30" d="M 3046 2112 
C 3046 3424 2464 4326 1626 4326 
C 1274 4326 1005 4218 768 3994 
C 397 3635 154 2899 154 2150 
C 154 1453 365 704 666 346 
C 902 64 1229 -90 1600 -90 
C 1926 -90 2202 19 2432 243 
C 2803 595 3046 1338 3046 2112 
z
M 2432 2099 
C 2432 762 2150 77 1600 77 
C 1050 77 768 762 768 2093 
C 768 3450 1056 4160 1606 4160 
C 2144 4160 2432 3437 2432 2099 
z
" transform="scale(0.015625)"/>
       </defs>
       <use xlink:href="#TeXGyreTermes-Regular-30"/>
      </g>
     </g>
    </g>
    <g id="xtick_2">
     <g id="line2d_3">
      <path d="M 157.849922 266.245 
L 157.849922 25.92 
" clip-path="url(#ped480de956)" style="fill: none; stroke: #b0b0b0; stroke-width: 0.8; stroke-linecap: square"/>
     </g>
     <g id="line2d_4">
      <g>
       <use xlink:href="#m23bebfbb4a" x="157.849922" y="266.245" style="stroke: #000000; stroke-width: 0.8"/>
      </g>
     </g>
     <g id="text_2">
      <!-- 250 -->
      <g transform="translate(139.849922 289.63625) scale(0.24 -0.24)">
       <defs>
        <path id="TeXGyreTermes-Regular-32" d="M 3040 877 
L 2957 909 
C 2720 544 2637 486 2349 486 
L 819 486 
L 1894 1613 
C 2464 2208 2714 2694 2714 3194 
C 2714 3834 2195 4326 1530 4326 
C 1178 4326 845 4186 608 3930 
C 403 3712 307 3507 198 3053 
L 333 3021 
C 589 3648 819 3853 1261 3853 
C 1798 3853 2163 3488 2163 2950 
C 2163 2451 1869 1856 1331 1286 
L 192 77 
L 192 0 
L 2688 0 
L 3040 877 
z
" transform="scale(0.015625)"/>
        <path id="TeXGyreTermes-Regular-35" d="M 2803 4358 
L 2746 4403 
C 2650 4269 2586 4237 2451 4237 
L 1114 4237 
L 416 2720 
C 410 2707 410 2688 410 2688 
C 410 2656 435 2637 486 2637 
C 691 2637 947 2592 1210 2509 
C 1946 2272 2285 1875 2285 1242 
C 2285 627 1894 147 1395 147 
C 1267 147 1158 192 966 333 
C 762 480 614 544 480 544 
C 294 544 205 467 205 307 
C 205 64 506 -90 986 -90 
C 1523 -90 1984 83 2304 410 
C 2598 698 2733 1062 2733 1549 
C 2733 2010 2611 2304 2291 2624 
C 2010 2906 1645 3053 890 3187 
L 1158 3731 
L 2413 3731 
C 2515 3731 2541 3744 2560 3789 
L 2803 4358 
z
" transform="scale(0.015625)"/>
       </defs>
       <use xlink:href="#TeXGyreTermes-Regular-32"/>
       <use xlink:href="#TeXGyreTermes-Regular-35" transform="translate(49.999985 0)"/>
       <use xlink:href="#TeXGyreTermes-Regular-30" transform="translate(99.999969 0)"/>
      </g>
     </g>
    </g>
    <g id="xtick_3">
     <g id="line2d_5">
      <path d="M 242.022218 266.245 
L 242.022218 25.92 
" clip-path="url(#ped480de956)" style="fill: none; stroke: #b0b0b0; stroke-width: 0.8; stroke-linecap: square"/>
     </g>
     <g id="line2d_6">
      <g>
       <use xlink:href="#m23bebfbb4a" x="242.022218" y="266.245" style="stroke: #000000; stroke-width: 0.8"/>
      </g>
     </g>
     <g id="text_3">
      <!-- 500 -->
      <g transform="translate(224.022218 289.63625) scale(0.24 -0.24)">
       <use xlink:href="#TeXGyreTermes-Regular-35"/>
       <use xlink:href="#TeXGyreTermes-Regular-30" transform="translate(49.999985 0)"/>
       <use xlink:href="#TeXGyreTermes-Regular-30" transform="translate(99.999969 0)"/>
      </g>
     </g>
    </g>
    <g id="xtick_4">
     <g id="line2d_7">
      <path d="M 326.194515 266.245 
L 326.194515 25.92 
" clip-path="url(#ped480de956)" style="fill: none; stroke: #b0b0b0; stroke-width: 0.8; stroke-linecap: square"/>
     </g>
     <g id="line2d_8">
      <g>
       <use xlink:href="#m23bebfbb4a" x="326.194515" y="266.245" style="stroke: #000000; stroke-width: 0.8"/>
      </g>
     </g>
     <g id="text_4">
      <!-- 750 -->
      <g transform="translate(308.194515 289.63625) scale(0.24 -0.24)">
       <defs>
        <path id="TeXGyreTermes-Regular-37" d="M 2874 4134 
L 2874 4237 
L 506 4237 
L 128 3296 
L 237 3245 
C 512 3680 627 3763 979 3763 
L 2368 3763 
L 1101 -51 
L 1517 -51 
L 2874 4134 
z
" transform="scale(0.015625)"/>
       </defs>
       <use xlink:href="#TeXGyreTermes-Regular-37"/>
       <use xlink:href="#TeXGyreTermes-Regular-35" transform="translate(49.999985 0)"/>
       <use xlink:href="#TeXGyreTermes-Regular-30" transform="translate(99.999969 0)"/>
      </g>
     </g>
    </g>
    <g id="xtick_5">
     <g id="line2d_9">
      <path d="M 410.366812 266.245 
L 410.366812 25.92 
" clip-path="url(#ped480de956)" style="fill: none; stroke: #b0b0b0; stroke-width: 0.8; stroke-linecap: square"/>
     </g>
     <g id="line2d_10">
      <g>
       <use xlink:href="#m23bebfbb4a" x="410.366812" y="266.245" style="stroke: #000000; stroke-width: 0.8"/>
      </g>
     </g>
     <g id="text_5">
      <!-- 1000 -->
      <g transform="translate(386.366812 289.63625) scale(0.24 -0.24)">
       <defs>
        <path id="TeXGyreTermes-Regular-31" d="M 2522 0 
L 2522 96 
C 2016 102 1914 166 1914 474 
L 1914 4314 
L 1862 4326 
L 710 3744 
L 710 3654 
C 787 3686 858 3712 883 3725 
C 998 3770 1107 3795 1171 3795 
C 1306 3795 1363 3699 1363 3494 
L 1363 595 
C 1363 384 1312 237 1210 179 
C 1114 122 1024 102 755 96 
L 755 0 
L 2522 0 
z
" transform="scale(0.015625)"/>
       </defs>
       <use xlink:href="#TeXGyreTermes-Regular-31"/>
       <use xlink:href="#TeXGyreTermes-Regular-30" transform="translate(49.999985 0)"/>
       <use xlink:href="#TeXGyreTermes-Regular-30" transform="translate(99.999969 0)"/>
       <use xlink:href="#TeXGyreTermes-Regular-30" transform="translate(149.999954 0)"/>
      </g>
     </g>
    </g>
    <g id="text_6">
     <!-- Schritt k -->
     <g transform="translate(200.851374 315.23625) scale(0.24 -0.24)">
      <defs>
       <path id="TeXGyreTermes-Regular-53" d="M 3142 1075 
C 3142 1606 2790 2016 1946 2477 
C 1274 2842 1005 3123 1005 3475 
C 1005 3827 1274 4064 1670 4064 
C 1958 4064 2227 3942 2451 3712 
C 2650 3507 2739 3341 2842 2963 
L 3002 2963 
L 2861 4326 
L 2726 4326 
C 2701 4186 2630 4109 2522 4109 
C 2458 4109 2355 4134 2240 4186 
C 2003 4275 1773 4326 1549 4326 
C 1299 4326 1030 4224 826 4058 
C 576 3853 454 3578 454 3226 
C 454 2720 736 2362 1453 1984 
C 1914 1734 2246 1478 2406 1235 
C 2464 1146 2496 1018 2496 858 
C 2496 435 2176 141 1709 141 
C 1133 141 736 493 416 1274 
L 269 1274 
L 461 -83 
L 602 -83 
C 608 38 685 128 781 128 
C 851 128 960 102 1082 58 
C 1325 -38 1581 -90 1837 -90 
C 2579 -90 3142 416 3142 1075 
z
" transform="scale(0.015625)"/>
       <path id="TeXGyreTermes-Regular-63" d="M 2637 941 
L 2547 998 
C 2240 550 2010 397 1645 397 
C 1056 397 653 909 653 1645 
C 653 2310 1005 2758 1523 2758 
C 1754 2758 1837 2688 1901 2451 
L 1939 2310 
C 1990 2125 2106 2016 2246 2016 
C 2413 2016 2547 2138 2547 2285 
C 2547 2643 2099 2944 1562 2944 
C 1261 2944 954 2829 698 2618 
C 352 2330 160 1888 160 1357 
C 160 531 666 -64 1376 -64 
C 1651 -64 1894 26 2112 205 
C 2304 358 2432 544 2637 941 
z
" transform="scale(0.015625)"/>
       <path id="TeXGyreTermes-Regular-68" d="M 3117 0 
L 3117 96 
C 2771 160 2733 211 2733 653 
L 2733 1926 
C 2733 2598 2464 2944 1946 2944 
C 1568 2944 1299 2790 1005 2406 
L 1005 4352 
L 973 4371 
C 755 4294 595 4243 237 4141 
L 64 4090 
L 64 3987 
C 90 3994 109 3994 141 3994 
C 416 3994 467 3942 467 3667 
L 467 653 
C 467 205 429 147 58 96 
L 58 0 
L 1440 0 
L 1440 96 
C 1069 134 1005 211 1005 653 
L 1005 2195 
C 1274 2490 1466 2598 1715 2598 
C 2035 2598 2195 2368 2195 1920 
L 2195 653 
C 2195 218 2131 134 1760 96 
L 1760 0 
L 3117 0 
z
" transform="scale(0.015625)"/>
       <path id="TeXGyreTermes-Regular-72" d="M 2144 2605 
C 2144 2816 2010 2944 1792 2944 
C 1523 2944 1338 2797 1024 2342 
L 1024 2931 
L 992 2944 
C 653 2803 422 2720 45 2598 
L 45 2496 
C 134 2515 192 2522 269 2522 
C 429 2522 486 2419 486 2138 
L 486 538 
C 486 218 442 173 32 96 
L 32 0 
L 1568 0 
L 1568 96 
C 1133 115 1024 211 1024 576 
L 1024 2016 
C 1024 2221 1299 2541 1472 2541 
C 1510 2541 1568 2509 1638 2445 
C 1741 2355 1811 2317 1894 2317 
C 2048 2317 2144 2426 2144 2605 
z
" transform="scale(0.015625)"/>
       <path id="TeXGyreTermes-Regular-69" d="M 1619 0 
L 1619 96 
C 1197 128 1146 192 1146 653 
L 1146 2925 
L 1120 2944 
L 128 2592 
L 128 2496 
L 179 2502 
C 256 2515 339 2522 397 2522 
C 550 2522 608 2419 608 2138 
L 608 653 
C 608 192 544 122 102 96 
L 102 0 
L 1619 0 
z
M 1203 3776 
C 1203 3955 1062 4102 877 4102 
C 698 4102 550 3955 550 3776 
C 550 3590 698 3450 877 3450 
C 1062 3450 1203 3590 1203 3776 
z
" transform="scale(0.015625)"/>
       <path id="TeXGyreTermes-Regular-74" d="M 1786 422 
L 1702 493 
C 1562 326 1459 269 1318 269 
C 1082 269 986 435 986 845 
L 986 2675 
L 1632 2675 
L 1632 2880 
L 986 2880 
L 986 3622 
C 986 3686 973 3706 941 3706 
C 902 3642 858 3584 813 3526 
C 576 3174 358 2938 192 2842 
C 122 2797 83 2758 83 2720 
C 83 2701 90 2688 109 2675 
L 448 2675 
L 448 749 
C 448 211 640 -64 1011 -64 
C 1331 -64 1574 90 1786 422 
z
" transform="scale(0.015625)"/>
       <path id="TeXGyreTermes-Regular-20" transform="scale(0.015625)"/>
       <path id="TeXGyreTermes-Regular-6b" d="M 3232 0 
L 3232 96 
C 2950 115 2752 237 2483 563 
L 1504 1805 
L 1690 1978 
C 2144 2400 2541 2694 2726 2746 
C 2822 2771 2912 2784 3021 2784 
L 3072 2784 
L 3072 2880 
L 1766 2880 
L 1766 2790 
C 2016 2784 2086 2758 2086 2669 
C 2086 2618 2029 2528 1939 2451 
L 1062 1670 
L 1062 4358 
L 1037 4371 
L 237 4141 
L 45 4090 
L 45 3987 
C 128 3994 186 4000 250 4000 
C 461 4000 525 3917 525 3610 
L 525 525 
C 525 192 506 173 45 96 
L 45 0 
L 1542 0 
L 1542 96 
L 1414 102 
C 1158 115 1062 205 1062 429 
L 1062 1606 
L 1958 410 
L 1978 384 
C 1990 365 2003 346 2022 326 
C 2074 262 2093 224 2093 192 
C 2093 134 2035 96 1958 96 
L 1837 96 
L 1837 0 
L 3232 0 
z
" transform="scale(0.015625)"/>
      </defs>
      <use xlink:href="#TeXGyreTermes-Regular-53"/>
      <use xlink:href="#TeXGyreTermes-Regular-63" transform="translate(55.599991 0)"/>
      <use xlink:href="#TeXGyreTermes-Regular-68" transform="translate(99.999985 0)"/>
      <use xlink:href="#TeXGyreTermes-Regular-72" transform="translate(149.999969 0)"/>
      <use xlink:href="#TeXGyreTermes-Regular-69" transform="translate(183.299957 0)"/>
      <use xlink:href="#TeXGyreTermes-Regular-74" transform="translate(211.099945 0)"/>
      <use xlink:href="#TeXGyreTermes-Regular-74" transform="translate(238.899933 0)"/>
      <use xlink:href="#TeXGyreTermes-Regular-20" transform="translate(266.699921 0)"/>
      <use xlink:href="#TeXGyreTermes-Regular-6b" transform="translate(291.699905 0)"/>
     </g>
    </g>
   </g>
   <g id="matplotlib.axis_2">
    <g id="ytick_1">
     <g id="line2d_11">
      <path d="M 56.86 206.700186 
L 426.847748 206.700186 
" clip-path="url(#ped480de956)" style="fill: none; stroke: #b0b0b0; stroke-width: 0.8; stroke-linecap: square"/>
     </g>
     <g id="line2d_12">
      <defs>
       <path id="mfa01053ce3" d="M 0 0 
L -3.5 0 
" style="stroke: #000000; stroke-width: 0.8"/>
      </defs>
      <g>
       <use xlink:href="#mfa01053ce3" x="56.86" y="206.700186" style="stroke: #000000; stroke-width: 0.8"/>
      </g>
     </g>
     <g id="text_7">
      <!-- 0 -->
      <g transform="translate(37.86 214.895811) scale(0.24 -0.24)">
       <use xlink:href="#TeXGyreTermes-Regular-30"/>
      </g>
     </g>
    </g>
    <g id="ytick_2">
     <g id="line2d_13">
      <path d="M 56.86 142.010756 
L 426.847748 142.010756 
" clip-path="url(#ped480de956)" style="fill: none; stroke: #b0b0b0; stroke-width: 0.8; stroke-linecap: square"/>
     </g>
     <g id="line2d_14">
      <g>
       <use xlink:href="#mfa01053ce3" x="56.86" y="142.010756" style="stroke: #000000; stroke-width: 0.8"/>
      </g>
     </g>
     <g id="text_8">
      <!-- 20 -->
      <g transform="translate(25.86 150.206381) scale(0.24 -0.24)">
       <use xlink:href="#TeXGyreTermes-Regular-32"/>
       <use xlink:href="#TeXGyreTermes-Regular-30" transform="translate(49.999985 0)"/>
      </g>
     </g>
    </g>
    <g id="ytick_3">
     <g id="line2d_15">
      <path d="M 56.86 77.321326 
L 426.847748 77.321326 
" clip-path="url(#ped480de956)" style="fill: none; stroke: #b0b0b0; stroke-width: 0.8; stroke-linecap: square"/>
     </g>
     <g id="line2d_16">
      <g>
       <use xlink:href="#mfa01053ce3" x="56.86" y="77.321326" style="stroke: #000000; stroke-width: 0.8"/>
      </g>
     </g>
     <g id="text_9">
      <!-- 40 -->
      <g transform="translate(25.86 85.516951) scale(0.24 -0.24)">
       <defs>
        <path id="TeXGyreTermes-Regular-34" d="M 3021 1069 
L 3021 1478 
L 2368 1478 
L 2368 4326 
L 2086 4326 
L 77 1478 
L 77 1069 
L 1875 1069 
L 1875 0 
L 2368 0 
L 2368 1069 
L 3021 1069 
z
M 1869 1478 
L 333 1478 
L 1869 3674 
L 1869 1478 
z
" transform="scale(0.015625)"/>
       </defs>
       <use xlink:href="#TeXGyreTermes-Regular-34"/>
       <use xlink:href="#TeXGyreTermes-Regular-30" transform="translate(49.999985 0)"/>
      </g>
     </g>
    </g>
   </g>
   <g id="line2d_17">
    <path d="M 73.677625 210.933904 
L 74.014314 206.991974 
L 74.351003 204.384984 
L 74.687692 206.518263 
L 75.024382 203.745336 
L 75.361071 204.506322 
L 75.69776 210.84377 
L 76.034449 212.132564 
L 76.371138 215.561897 
L 76.707828 217.112892 
L 77.717895 227.749141 
L 78.054584 226.488944 
L 78.391274 229.703744 
L 78.727963 230.920206 
L 79.064652 225.892533 
L 79.401341 227.635111 
L 80.074719 223.218281 
L 80.411409 221.70357 
L 80.748098 221.667857 
L 81.084787 222.118936 
L 81.421476 223.306748 
L 81.758165 223.923677 
L 82.094855 225.653062 
L 82.431544 226.229778 
L 82.768233 227.157523 
L 83.104922 223.219463 
L 83.441611 224.191864 
L 83.778301 222.090607 
L 84.11499 218.4346 
L 84.451679 217.425071 
L 85.125057 219.583194 
L 85.461746 223.116072 
L 85.798436 224.398 
L 86.471814 213.040943 
L 86.808503 212.91522 
L 87.145192 213.258755 
L 87.481882 217.73878 
L 87.818571 216.966969 
L 88.15526 218.635885 
L 88.491949 214.987219 
L 88.828638 217.965326 
L 89.165328 219.621042 
L 89.502017 220.622425 
L 89.838706 222.560036 
L 90.512084 231.448243 
L 90.848773 236.399253 
L 91.185463 236.617481 
L 91.522152 237.477697 
L 91.858841 246.60252 
L 92.19553 249.554862 
L 92.532219 245.777165 
L 92.868909 248.767304 
L 93.205598 253.868161 
L 93.542287 255.321136 
L 93.878976 250.170451 
L 94.215665 247.824349 
L 94.889044 240.438874 
L 95.225733 242.043032 
L 95.899111 237.043256 
L 96.2358 238.041646 
L 96.57249 238.457657 
L 96.909179 237.438473 
L 97.245868 234.726157 
L 97.582557 233.406707 
L 97.919246 234.727198 
L 98.255936 228.250875 
L 98.592625 232.789717 
L 98.929314 232.438696 
L 99.266003 234.513582 
L 99.602692 235.445557 
L 99.939381 230.353946 
L 100.276071 233.878135 
L 100.61276 230.034773 
L 100.949449 232.466664 
L 101.286138 232.844523 
L 101.622827 228.068354 
L 101.959517 231.628102 
L 102.296206 223.012531 
L 102.969584 212.676942 
L 103.306273 213.424789 
L 103.642963 208.613951 
L 103.979652 208.697705 
L 104.316341 213.191332 
L 104.65303 219.22941 
L 104.989719 216.933145 
L 105.663098 218.238535 
L 105.999787 220.555273 
L 106.336476 215.769167 
L 106.673165 207.417694 
L 107.009854 207.987515 
L 107.346544 207.131422 
L 107.683233 210.471412 
L 108.019922 211.342917 
L 108.356611 203.523119 
L 108.6933 199.482177 
L 109.02999 204.263302 
L 109.366679 212.697415 
L 109.703368 212.159855 
L 110.040057 207.68551 
L 110.376746 211.830112 
L 110.713435 202.45294 
L 111.050125 200.765329 
L 111.386814 201.084184 
L 111.723503 201.239401 
L 112.060192 200.813165 
L 112.396881 199.561512 
L 112.733571 204.46411 
L 113.406949 209.422745 
L 113.743638 204.660396 
L 114.080327 206.980243 
L 114.417017 208.083642 
L 115.427084 200.972957 
L 115.763773 200.622419 
L 116.100462 201.43603 
L 116.437152 200.039286 
L 116.773841 195.607424 
L 117.11053 194.196692 
L 117.447219 195.481964 
L 117.783908 194.526779 
L 118.120598 194.142344 
L 118.457287 199.731636 
L 118.793976 202.013046 
L 119.130665 200.126612 
L 119.467354 202.036244 
L 119.804044 200.1475 
L 120.140733 194.724928 
L 120.477422 193.642739 
L 121.1508 187.072686 
L 121.487489 183.736236 
L 121.824179 186.979218 
L 122.160868 191.863957 
L 122.497557 193.270246 
L 122.834246 192.441265 
L 123.170935 193.763593 
L 123.507625 202.235678 
L 123.844314 198.085188 
L 125.191071 214.39806 
L 125.52776 209.313274 
L 125.864449 210.700887 
L 126.201138 213.148823 
L 126.537827 212.478366 
L 126.874516 211.152101 
L 127.211206 207.331513 
L 127.884584 205.323519 
L 128.221273 206.145297 
L 128.894652 201.924795 
L 129.56803 207.091805 
L 129.904719 203.322637 
L 130.241408 201.878554 
L 130.578098 201.297313 
L 131.251476 198.284382 
L 131.588165 194.579836 
L 131.924854 193.033194 
L 132.261543 192.108689 
L 132.598233 194.200151 
L 132.934922 195.151188 
L 133.271611 194.278774 
L 133.6083 190.556216 
L 133.944989 191.102342 
L 134.281679 189.076199 
L 134.618368 184.656271 
L 134.955057 184.838083 
L 135.628435 182.388453 
L 135.965125 179.390225 
L 136.301814 179.075689 
L 136.638503 177.911429 
L 136.975192 180.723772 
L 137.64857 182.579365 
L 137.98526 185.549965 
L 138.321949 179.593419 
L 138.658638 181.439771 
L 138.995327 180.22329 
L 139.332016 175.577048 
L 139.668706 172.973133 
L 140.005395 174.529882 
L 140.342084 183.445757 
L 140.678773 183.856595 
L 141.015462 186.644681 
L 141.352152 186.326787 
L 141.688841 185.089971 
L 142.02553 185.73873 
L 142.362219 186.888191 
L 142.698908 186.467797 
L 143.372287 182.549423 
L 143.708976 183.066317 
L 144.045665 184.062194 
L 144.382354 181.619805 
L 144.719043 181.483603 
L 145.055733 183.728802 
L 145.392422 182.076656 
L 145.729111 182.990985 
L 146.0658 176.963928 
L 146.402489 177.765059 
L 146.739179 181.882456 
L 147.075868 178.914241 
L 147.412557 178.104863 
L 147.749246 181.057962 
L 148.085935 175.638408 
L 148.422624 173.560053 
L 148.759314 167.746728 
L 149.096003 167.261382 
L 149.769381 175.635995 
L 150.10607 171.612029 
L 150.44276 177.818605 
L 150.779449 177.531079 
L 151.116138 174.772322 
L 151.452827 176.286603 
L 151.789516 171.712519 
L 152.126206 174.769301 
L 152.462895 176.177817 
L 152.799584 175.793405 
L 153.136273 180.105058 
L 153.472962 182.662136 
L 153.809651 179.099873 
L 154.146341 179.490911 
L 154.48303 182.224354 
L 154.819719 186.845626 
L 155.156408 194.637205 
L 156.166476 200.572496 
L 156.503165 199.848652 
L 156.839854 205.90519 
L 157.176543 203.020932 
L 157.513232 202.132321 
L 157.849922 202.824744 
L 158.186611 205.741022 
L 158.5233 203.373278 
L 158.859989 199.900965 
L 159.196678 203.169884 
L 159.533368 201.767198 
L 159.870057 202.349725 
L 160.206746 202.019045 
L 160.880124 197.906877 
L 161.216814 195.013016 
L 161.553503 190.859644 
L 161.890192 191.277375 
L 162.56357 185.536437 
L 162.900259 180.084683 
L 163.236949 183.800097 
L 163.573638 183.323697 
L 163.910327 181.731726 
L 164.247016 182.653984 
L 164.583705 178.671562 
L 164.920395 172.525843 
L 165.257084 174.245463 
L 165.930462 169.066805 
L 166.603841 175.575668 
L 166.94053 180.621228 
L 167.277219 175.836656 
L 167.613908 175.681626 
L 167.950597 180.316037 
L 168.623976 167.391962 
L 169.634043 178.42723 
L 169.970732 176.765525 
L 170.307422 176.051235 
L 170.644111 176.79325 
L 170.9808 179.416453 
L 171.317489 180.887726 
L 171.654178 179.187512 
L 171.990868 178.070819 
L 172.327557 179.229543 
L 172.664246 181.394199 
L 173.000935 176.705446 
L 173.337624 175.156094 
L 173.674313 181.72369 
L 174.011003 177.779217 
L 174.347692 176.712758 
L 174.684381 174.637582 
L 175.02107 174.646703 
L 175.357759 178.712204 
L 175.694449 177.564459 
L 176.031138 172.232553 
L 176.367827 172.720814 
L 176.704516 177.950219 
L 177.377895 163.293576 
L 177.714584 159.498596 
L 178.051273 160.893342 
L 178.387962 160.322316 
L 178.724651 163.096675 
L 179.39803 158.342186 
L 179.734719 158.046139 
L 180.071408 157.533455 
L 180.408097 164.931963 
L 180.744786 165.136205 
L 181.081476 163.516772 
L 181.418165 157.581517 
L 181.754854 166.202566 
L 182.091543 162.379802 
L 182.428232 163.753453 
L 183.101611 165.115416 
L 183.4383 164.666514 
L 183.774989 167.711813 
L 184.111678 166.222963 
L 184.448367 157.670022 
L 184.785057 156.981582 
L 185.121746 162.83262 
L 185.458435 164.947932 
L 185.795124 164.843063 
L 186.131813 167.81929 
L 186.468503 161.078438 
L 187.141881 166.475203 
L 187.47857 166.706402 
L 187.815259 169.380114 
L 188.151949 168.208952 
L 188.488638 164.229334 
L 188.825327 158.903739 
L 189.498705 166.997025 
L 190.172084 159.878944 
L 190.508773 157.494615 
L 190.845462 153.562032 
L 191.182151 155.569658 
L 191.51884 158.519088 
L 191.85553 157.935127 
L 192.192219 158.491691 
L 192.528908 156.679206 
L 192.865597 159.045249 
L 193.202286 159.584541 
L 193.538976 162.625283 
L 193.875665 161.42878 
L 194.549043 169.049915 
L 194.885732 167.94163 
L 195.559111 160.682682 
L 196.232489 158.640193 
L 196.569178 165.673257 
L 196.905867 163.054753 
L 197.242557 166.216679 
L 197.579246 165.007312 
L 197.915935 166.758566 
L 198.252624 165.233754 
L 198.589313 169.883788 
L 198.926003 166.457513 
L 199.262692 161.257997 
L 199.599381 158.646603 
L 199.93607 161.101754 
L 200.272759 158.608746 
L 200.609448 157.288712 
L 200.946138 151.508825 
L 201.282827 151.869208 
L 201.619516 151.130593 
L 202.292894 163.256004 
L 202.629584 170.661784 
L 202.966273 173.380701 
L 203.639651 163.158305 
L 203.97634 167.807596 
L 204.31303 169.943367 
L 204.649719 164.913032 
L 204.986408 158.169992 
L 205.323097 155.025439 
L 205.659786 161.828694 
L 205.996475 165.819896 
L 206.333165 161.76896 
L 206.669854 163.180238 
L 207.006543 162.782899 
L 207.343232 164.766377 
L 207.679921 165.095811 
L 208.016611 163.155186 
L 208.3533 162.79525 
L 208.689989 160.142636 
L 209.026678 153.965804 
L 209.363367 157.453559 
L 210.036746 152.900861 
L 210.373435 154.004761 
L 211.046813 147.737952 
L 211.383502 147.986012 
L 211.720192 151.957807 
L 212.056881 148.135014 
L 212.39357 148.051812 
L 212.730259 144.052227 
L 213.066948 146.763105 
L 213.403638 145.637436 
L 213.740327 144.999939 
L 214.750394 154.532131 
L 215.087083 152.434786 
L 215.423773 161.519889 
L 215.760462 159.643801 
L 216.097151 156.467104 
L 216.43384 156.294531 
L 216.770529 152.100703 
L 217.107219 143.545798 
L 217.443908 149.705307 
L 217.780597 150.260461 
L 218.117286 146.751408 
L 218.790665 147.53857 
L 219.127354 148.932489 
L 219.464043 146.605238 
L 219.800732 149.917797 
L 220.137421 155.255873 
L 220.47411 152.933937 
L 220.8108 147.599698 
L 221.147489 146.317743 
L 221.484178 146.2686 
L 221.820867 143.748493 
L 222.157556 146.295369 
L 222.494246 143.95357 
L 222.830935 142.489263 
L 223.167624 143.404939 
L 223.504313 141.743755 
L 223.841002 144.651902 
L 224.177692 146.041258 
L 224.514381 146.181812 
L 224.85107 145.320226 
L 225.187759 146.802482 
L 225.524448 143.9203 
L 225.861137 142.828535 
L 226.197827 144.123475 
L 226.534516 142.365436 
L 226.871205 142.011379 
L 227.207894 141.119206 
L 227.544583 138.790925 
L 227.881273 138.033345 
L 228.217962 136.52323 
L 228.554651 134.497428 
L 228.89134 134.118479 
L 229.228029 136.940142 
L 229.564719 136.674281 
L 229.901408 130.602095 
L 230.238097 131.005224 
L 230.574786 128.466557 
L 230.911475 128.433677 
L 231.248164 124.783632 
L 231.584854 125.435363 
L 231.921543 123.461056 
L 232.258232 128.037456 
L 232.93161 132.638423 
L 233.2683 132.078814 
L 233.941678 130.215131 
L 234.278367 124.169372 
L 234.615056 129.343925 
L 234.951746 126.700381 
L 235.288435 129.877333 
L 235.625124 135.873561 
L 235.961813 132.820666 
L 236.298502 132.279364 
L 236.635191 133.157204 
L 236.971881 130.280166 
L 237.30857 131.620352 
L 237.645259 118.228605 
L 237.981948 121.484829 
L 238.318637 117.532662 
L 238.655327 117.079296 
L 238.992016 118.25245 
L 239.328705 122.240029 
L 239.665394 115.585219 
L 240.002083 117.851644 
L 240.338773 115.066297 
L 240.675462 108.492462 
L 241.012151 111.901424 
L 241.34884 110.273295 
L 241.685529 111.732921 
L 242.022218 110.930164 
L 242.358908 112.186177 
L 242.695597 114.340345 
L 243.032286 113.593421 
L 243.368975 113.903486 
L 243.705664 117.42608 
L 244.042354 114.115697 
L 244.379043 115.345038 
L 244.715732 108.157467 
L 245.052421 107.322279 
L 245.38911 106.890145 
L 245.7258 113.565552 
L 246.062489 117.43097 
L 246.399178 111.53311 
L 246.735867 110.939814 
L 247.072556 114.206468 
L 247.409245 113.898166 
L 247.745935 118.22242 
L 248.082624 118.383509 
L 248.419313 122.73807 
L 248.756002 122.099897 
L 249.092691 123.117873 
L 249.429381 122.03772 
L 249.76607 125.588912 
L 250.102759 122.68456 
L 250.439448 126.087878 
L 250.776137 131.665825 
L 251.112827 133.186104 
L 251.449516 132.660183 
L 251.786205 131.721829 
L 252.122894 133.224812 
L 252.459583 130.715579 
L 252.796272 132.559278 
L 253.132962 128.707635 
L 253.469651 127.749985 
L 253.80634 132.031178 
L 254.143029 133.876279 
L 254.479718 127.381264 
L 254.816408 126.279902 
L 255.153097 129.968567 
L 255.489786 129.504949 
L 255.826475 127.135233 
L 256.163164 122.512399 
L 256.499854 122.524927 
L 256.836543 127.287798 
L 257.173232 128.404704 
L 257.509921 122.458267 
L 257.84661 119.110367 
L 258.183299 119.100481 
L 258.519989 114.878506 
L 258.856678 113.950627 
L 259.193367 117.195721 
L 259.530056 115.068562 
L 259.866745 116.613132 
L 260.540124 115.196902 
L 260.876813 115.189266 
L 261.550191 128.950511 
L 261.886881 123.561701 
L 262.22357 125.642661 
L 262.560259 130.915556 
L 262.896948 129.100346 
L 263.233637 128.627999 
L 263.570326 131.562109 
L 264.243705 130.747979 
L 264.580394 130.448845 
L 264.917083 136.65807 
L 265.253772 135.312062 
L 265.590462 135.122305 
L 265.927151 132.358536 
L 266.26384 133.279045 
L 266.600529 131.289425 
L 266.937218 128.621649 
L 267.610597 131.323409 
L 267.947286 129.428668 
L 268.283975 122.318302 
L 268.620664 121.854926 
L 268.957353 118.909879 
L 269.294043 118.09875 
L 269.630732 114.523952 
L 269.967421 117.715463 
L 270.30411 118.699592 
L 270.640799 116.485813 
L 270.977489 117.261714 
L 271.314178 118.743151 
L 271.650867 119.137142 
L 271.987556 118.347438 
L 272.324245 116.221413 
L 272.660934 116.246326 
L 272.997624 120.066723 
L 273.334313 120.884512 
L 273.671002 124.883962 
L 274.34438 115.411548 
L 274.68107 112.479033 
L 275.017759 106.763661 
L 275.354448 108.637988 
L 276.027826 102.133876 
L 276.701205 93.673368 
L 277.037894 94.300417 
L 277.374583 86.418808 
L 277.711272 88.624346 
L 278.384651 84.708733 
L 279.058029 92.359218 
L 279.731407 86.720829 
L 280.068097 81.446578 
L 280.741475 75.842236 
L 281.078164 77.567627 
L 281.414853 77.387044 
L 281.751543 76.034702 
L 282.088232 71.619739 
L 282.76161 68.621572 
L 283.098299 65.753326 
L 283.434988 65.317263 
L 283.771678 61.495004 
L 284.108367 59.197718 
L 284.445056 52.672174 
L 284.781745 50.287073 
L 285.118434 51.824743 
L 285.455124 54.719191 
L 285.791813 51.170315 
L 286.128502 48.831363 
L 286.465191 48.963079 
L 286.80188 41.583331 
L 287.475259 41.774594 
L 287.811948 36.843864 
L 288.148637 41.742032 
L 288.485326 50.16224 
L 288.822015 45.819005 
L 289.158705 47.534427 
L 289.495394 52.498007 
L 289.832083 46.986013 
L 290.168772 43.839655 
L 290.505461 44.869327 
L 290.842151 46.485192 
L 291.17884 42.782726 
L 291.515529 45.387505 
L 291.852218 43.750593 
L 292.525597 37.906718 
L 293.198975 47.500009 
L 293.535664 47.954365 
L 293.872353 53.283138 
L 294.209042 53.245342 
L 294.545732 47.82025 
L 294.882421 45.94766 
L 295.21911 46.909628 
L 295.555799 48.239254 
L 295.892488 52.669273 
L 296.229178 50.58829 
L 296.565867 52.696254 
L 296.902556 55.855348 
L 297.239245 54.699496 
L 297.575934 49.502304 
L 297.912624 48.103109 
L 298.249313 54.430615 
L 298.586002 48.866946 
L 298.922691 49.764404 
L 299.25938 46.67793 
L 299.596069 46.229357 
L 299.932759 45.427009 
L 300.269448 46.370596 
L 300.606137 46.122783 
L 300.942826 50.627997 
L 301.279515 49.957258 
L 301.616205 57.060678 
L 301.952894 57.792314 
L 302.289583 56.137786 
L 302.626272 57.14076 
L 302.962961 60.146005 
L 303.63634 69.291313 
L 303.973029 72.71708 
L 304.309718 71.672395 
L 304.646407 64.00349 
L 304.983096 64.201708 
L 305.319786 69.748249 
L 305.656475 71.784159 
L 305.993164 69.741486 
L 306.329853 69.565809 
L 306.666542 67.967614 
L 307.003232 67.536784 
L 307.339921 65.231035 
L 307.67661 64.270762 
L 308.013299 58.902014 
L 308.349988 55.404279 
L 308.686678 59.385222 
L 309.360056 55.396484 
L 310.033434 57.873549 
L 310.370123 57.055873 
L 310.706813 59.302279 
L 311.043502 63.389468 
L 311.380191 60.519272 
L 312.053569 71.380474 
L 312.390259 69.856808 
L 312.726948 63.951543 
L 313.737015 58.867665 
L 314.073705 61.418055 
L 314.410394 65.287455 
L 314.747083 60.07309 
L 315.083772 52.373483 
L 315.420461 52.164698 
L 315.75715 48.17602 
L 316.09384 46.583358 
L 316.430529 48.155392 
L 316.767218 46.803365 
L 317.103907 46.221517 
L 317.440596 42.13139 
L 318.113975 47.041734 
L 318.450664 44.325465 
L 318.787353 51.534283 
L 319.124042 46.122901 
L 319.797421 44.677527 
L 320.470799 51.672567 
L 320.807488 48.85825 
L 321.144177 51.328546 
L 321.817556 47.612726 
L 322.154245 45.743716 
L 322.490934 46.692695 
L 322.827623 45.862224 
L 323.164313 45.989125 
L 323.501002 46.635311 
L 323.837691 49.055167 
L 324.17438 53.587309 
L 324.511069 46.608203 
L 324.847759 52.366976 
L 325.184448 48.418297 
L 325.521137 50.42718 
L 325.857826 46.802303 
L 326.194515 45.177916 
L 326.531204 47.287521 
L 326.867894 50.23838 
L 327.204583 50.977131 
L 327.541272 47.183172 
L 327.877961 46.69815 
L 328.21465 54.623513 
L 328.55134 56.553261 
L 328.888029 61.347365 
L 329.561407 62.298472 
L 329.898096 63.47972 
L 330.234785 63.734354 
L 330.571475 61.761654 
L 330.908164 62.082876 
L 331.581542 56.487177 
L 331.918231 56.857446 
L 332.254921 60.392586 
L 332.59161 65.395646 
L 332.928299 65.785963 
L 333.264988 64.926394 
L 333.601677 61.733038 
L 333.938367 60.598549 
L 334.275056 64.600725 
L 334.611745 65.040613 
L 334.948434 63.574654 
L 335.621812 72.244574 
L 335.958502 72.270638 
L 336.295191 72.945743 
L 336.63188 77.552635 
L 337.305258 79.101039 
L 337.641948 76.456294 
L 337.978637 74.938562 
L 338.315326 72.302317 
L 338.652015 74.476184 
L 338.988704 78.135499 
L 339.325394 78.18887 
L 339.662083 71.689701 
L 339.998772 71.121853 
L 340.335461 71.032597 
L 340.67215 70.614973 
L 341.008839 67.431256 
L 341.345529 68.606733 
L 341.682218 74.435302 
L 342.018907 76.513925 
L 342.355596 74.518851 
L 342.692285 76.620301 
L 343.028975 79.562627 
L 343.365664 81.27858 
L 343.702353 79.071714 
L 344.039042 82.417631 
L 344.712421 80.535534 
L 345.04911 77.117202 
L 345.385799 83.990868 
L 345.722488 87.324139 
L 346.059177 84.749566 
L 346.395866 81.131942 
L 346.732556 80.627966 
L 347.069245 79.014188 
L 347.405934 79.51052 
L 347.742623 76.725023 
L 348.079312 72.329223 
L 348.416002 74.858621 
L 348.752691 74.837188 
L 349.08938 77.361159 
L 349.426069 84.862054 
L 349.762758 83.713221 
L 350.099448 83.983745 
L 350.436137 84.070588 
L 350.772826 86.425846 
L 351.109515 81.593046 
L 351.446204 84.045788 
L 352.119583 80.699569 
L 352.456272 85.697802 
L 352.792961 88.264281 
L 353.12965 82.78254 
L 353.466339 86.026886 
L 353.803029 87.07221 
L 354.476407 77.442589 
L 354.813096 72.490851 
L 355.149785 76.105757 
L 355.486475 77.601881 
L 355.823164 71.869814 
L 356.159853 72.722804 
L 356.496542 74.229446 
L 356.833231 69.601447 
L 357.16992 73.36396 
L 357.50661 68.820154 
L 358.179988 75.658314 
L 358.516677 82.093022 
L 358.853366 83.373956 
L 359.190056 79.997696 
L 359.526745 80.37559 
L 359.863434 82.423717 
L 360.536812 95.533832 
L 360.873502 94.137217 
L 361.210191 95.198543 
L 361.54688 92.326914 
L 361.883569 88.41098 
L 362.220258 88.236771 
L 362.556947 85.915248 
L 362.893637 85.233914 
L 363.230326 86.775117 
L 363.567015 89.30617 
L 363.903704 90.486312 
L 364.240393 87.843101 
L 364.577083 89.674628 
L 364.913772 92.719735 
L 365.250461 89.505052 
L 365.58715 77.160998 
L 365.923839 71.9813 
L 366.260529 70.338753 
L 366.597218 66.730425 
L 366.933907 67.263997 
L 367.270596 59.604664 
L 367.607285 56.898639 
L 367.943974 57.399877 
L 368.280664 59.914315 
L 368.617353 58.790042 
L 368.954042 61.774846 
L 369.290731 54.057342 
L 369.62742 53.47545 
L 370.300799 61.153456 
L 370.637488 60.239698 
L 370.974177 66.90452 
L 371.310866 70.843506 
L 371.647556 66.377763 
L 372.320934 74.522317 
L 372.657623 71.661858 
L 372.994312 73.392068 
L 373.331001 70.20358 
L 373.667691 70.420541 
L 374.00438 70.280842 
L 375.014447 80.533178 
L 375.351137 79.511645 
L 375.687826 83.655372 
L 376.361204 77.151097 
L 376.697893 76.1519 
L 377.034583 74.084959 
L 377.371272 73.934674 
L 377.707961 69.665571 
L 378.04465 70.47832 
L 378.381339 69.952651 
L 378.718028 68.643415 
L 379.054718 64.700016 
L 379.391407 66.907978 
L 379.728096 66.194575 
L 380.064785 67.743851 
L 380.401474 66.711422 
L 380.738164 69.689324 
L 381.411542 67.081801 
L 381.748231 63.165479 
L 382.08492 68.938929 
L 382.758299 71.060983 
L 383.094988 69.629328 
L 383.431677 63.79359 
L 383.768366 65.774208 
L 384.105055 68.742649 
L 384.441745 67.733696 
L 384.778434 71.488713 
L 385.451812 65.69142 
L 386.125191 70.053672 
L 386.46188 70.218045 
L 386.798569 72.732864 
L 387.135258 73.78826 
L 387.471947 72.91495 
L 388.145326 75.721393 
L 388.482015 80.245016 
L 388.818704 80.440128 
L 389.155393 84.631055 
L 389.492082 83.324026 
L 389.828772 84.09106 
L 390.165461 81.573432 
L 390.50215 80.933444 
L 390.838839 83.564902 
L 391.175528 83.189307 
L 391.512218 84.134183 
L 391.848907 81.245256 
L 392.858974 64.102143 
L 393.532353 59.217519 
L 394.205731 65.154286 
L 394.54242 58.503163 
L 394.879109 58.753897 
L 395.215799 59.18797 
L 395.889177 69.043019 
L 396.225866 72.962049 
L 396.562555 70.463643 
L 396.899245 72.132055 
L 397.235934 68.345623 
L 397.572623 70.209811 
L 397.909312 77.250007 
L 398.58269 80.24886 
L 398.91938 83.329186 
L 399.256069 83.040981 
L 399.592758 83.09654 
L 399.929447 87.193324 
L 400.266136 88.14974 
L 400.602826 85.716694 
L 400.939515 86.950979 
L 401.276204 84.42991 
L 401.612893 83.054512 
L 402.95965 92.832839 
L 403.296339 89.369139 
L 403.633028 91.757679 
L 404.643096 86.389639 
L 404.979785 89.185707 
L 405.316474 89.417495 
L 405.653163 85.722371 
L 405.989853 90.496049 
L 406.326542 91.947567 
L 406.663231 92.190354 
L 406.99992 93.143557 
L 407.336609 97.442339 
L 407.673299 94.287546 
L 408.009988 94.090829 
L 408.346677 92.891087 
L 408.683366 91.276788 
L 409.020055 91.323253 
L 409.356744 92.816038 
L 409.693434 101.651746 
L 410.030123 104.866728 
L 410.030123 104.866728 
" clip-path="url(#ped480de956)" style="fill: none; stroke: #1f77b4; stroke-width: 1.5; stroke-linecap: square"/>
   </g>
   <g id="patch_3">
    <path d="M 56.86 266.245 
L 56.86 25.92 
" style="fill: none; stroke: #000000; stroke-width: 0.8; stroke-linejoin: miter; stroke-linecap: square"/>
   </g>
   <g id="patch_4">
    <path d="M 426.847748 266.245 
L 426.847748 25.92 
" style="fill: none; stroke: #000000; stroke-width: 0.8; stroke-linejoin: miter; stroke-linecap: square"/>
   </g>
   <g id="patch_5">
    <path d="M 56.86 266.245 
L 426.847748 266.245 
" style="fill: none; stroke: #000000; stroke-width: 0.8; stroke-linejoin: miter; stroke-linecap: square"/>
   </g>
   <g id="patch_6">
    <path d="M 56.86 25.92 
L 426.847748 25.92 
" style="fill: none; stroke: #000000; stroke-width: 0.8; stroke-linejoin: miter; stroke-linecap: square"/>
   </g>
  </g>
 </g>
 <defs>
  <clipPath id="ped480de956">
   <rect x="56.86" y="25.92" width="369.987748" height="240.325"/>
  </clipPath>
 </defs>
</svg>
