<?xml version="1.0" encoding="utf-8" standalone="no"?>
<!DOCTYPE svg PUBLIC "-//W3C//DTD SVG 1.1//EN"
  "http://www.w3.org/Graphics/SVG/1.1/DTD/svg11.dtd">
<svg xmlns:xlink="http://www.w3.org/1999/xlink" width="460.8pt" height="345.6pt" viewBox="0 0 460.8 345.6" xmlns="http://www.w3.org/2000/svg" version="1.1">
 <metadata>
  <rdf:RDF xmlns:dc="http://purl.org/dc/elements/1.1/" xmlns:cc="http://creativecommons.org/ns#" xmlns:rdf="http://www.w3.org/1999/02/22-rdf-syntax-ns#">
   <cc:Work>
    <dc:type rdf:resource="http://purl.org/dc/dcmitype/StillImage"/>
    <dc:date>2026-01-28T11:01:56.014989</dc:date>
    <dc:format>image/svg+xml</dc:format>
    <dc:creator>
     <cc:Agent>
      <dc:title>Matplotlib v3.10.8, https://matplotlib.org/</dc:title>
     </cc:Agent>
    </dc:creator>
   </cc:Work>
  </rdf:RDF>
 </metadata>
 <defs>
  <style type="text/css">*{stroke-linejoin: round; stroke-linecap: butt}</style>
 </defs>
 <g id="figure_1">
  <g id="patch_1">
   <path d="M 0 345.6 
L 460.8 345.6 
L 460.8 0 
L 0 0 
z
" style="fill: #ffffff"/>
  </g>
  <g id="axes_1">
   <g id="patch_2">
    <path d="M 62.89 266.245 
L 410.94 266.245 
L 410.94 25.92 
L 62.89 25.92 
z
" style="fill: #ffffff"/>
   </g>
   <g id="matplotlib.axis_1">
    <g id="xtick_1">
     <g id="line2d_1">
      <path d="M 62.89 266.245 
L 62.89 25.92 
" clip-path="url(#p077c693818)" style="fill: none; stroke: #b0b0b0; stroke-width: 0.8; stroke-linecap: square"/>
     </g>
     <g id="line2d_2">
      <defs>
       <path id="m6571566f3c" d="M 0 0 
L 0 3.5 
" style="stroke: #000000; stroke-width: 0.8"/>
      </defs>
      <g>
       <use xlink:href="#m6571566f3c" x="62.89" y="266.245" style="stroke: #000000; stroke-width: 0.8"/>
      </g>
     </g>
     <g id="text_1">
      <!-- 0 -->
      <g transform="translate(56.89 289.63625) scale(0.24 -0.24)">
       <defs>
        <path id="TeXGyreTermes-Regular-30" d="M 3046 2112 
C 3046 3424 2464 4326 1626 4326 
C 1274 4326 1005 4218 768 3994 
C 397 3635 154 2899 154 2150 
C 154 1453 365 704 666 346 
C 902 64 1229 -90 1600 -90 
C 1926 -90 2202 19 2432 243 
C 2803 595 3046 1338 3046 2112 
z
M 2432 2099 
C 2432 762 2150 77 1600 77 
C 1050 77 768 762 768 2093 
C 768 3450 1056 4160 1606 4160 
C 2144 4160 2432 3437 2432 2099 
z
" transform="scale(0.015625)"/>
       </defs>
       <use xlink:href="#TeXGyreTermes-Regular-30"/>
      </g>
     </g>
    </g>
    <g id="xtick_2">
     <g id="line2d_3">
      <path d="M 149.9025 266.245 
L 149.9025 25.92 
" clip-path="url(#p077c693818)" style="fill: none; stroke: #b0b0b0; stroke-width: 0.8; stroke-linecap: square"/>
     </g>
     <g id="line2d_4">
      <g>
       <use xlink:href="#m6571566f3c" x="149.9025" y="266.245" style="stroke: #000000; stroke-width: 0.8"/>
      </g>
     </g>
     <g id="text_2">
      <!-- 250 -->
      <g transform="translate(131.9025 289.63625) scale(0.24 -0.24)">
       <defs>
        <path id="TeXGyreTermes-Regular-32" d="M 3040 877 
L 2957 909 
C 2720 544 2637 486 2349 486 
L 819 486 
L 1894 1613 
C 2464 2208 2714 2694 2714 3194 
C 2714 3834 2195 4326 1530 4326 
C 1178 4326 845 4186 608 3930 
C 403 3712 307 3507 198 3053 
L 333 3021 
C 589 3648 819 3853 1261 3853 
C 1798 3853 2163 3488 2163 2950 
C 2163 2451 1869 1856 1331 1286 
L 192 77 
L 192 0 
L 2688 0 
L 3040 877 
z
" transform="scale(0.015625)"/>
        <path id="TeXGyreTermes-Regular-35" d="M 2803 4358 
L 2746 4403 
C 2650 4269 2586 4237 2451 4237 
L 1114 4237 
L 416 2720 
C 410 2707 410 2688 410 2688 
C 410 2656 435 2637 486 2637 
C 691 2637 947 2592 1210 2509 
C 1946 2272 2285 1875 2285 1242 
C 2285 627 1894 147 1395 147 
C 1267 147 1158 192 966 333 
C 762 480 614 544 480 544 
C 294 544 205 467 205 307 
C 205 64 506 -90 986 -90 
C 1523 -90 1984 83 2304 410 
C 2598 698 2733 1062 2733 1549 
C 2733 2010 2611 2304 2291 2624 
C 2010 2906 1645 3053 890 3187 
L 1158 3731 
L 2413 3731 
C 2515 3731 2541 3744 2560 3789 
L 2803 4358 
z
" transform="scale(0.015625)"/>
       </defs>
       <use xlink:href="#TeXGyreTermes-Regular-32"/>
       <use xlink:href="#TeXGyreTermes-Regular-35" transform="translate(49.999985 0)"/>
       <use xlink:href="#TeXGyreTermes-Regular-30" transform="translate(99.999969 0)"/>
      </g>
     </g>
    </g>
    <g id="xtick_3">
     <g id="line2d_5">
      <path d="M 236.915 266.245 
L 236.915 25.92 
" clip-path="url(#p077c693818)" style="fill: none; stroke: #b0b0b0; stroke-width: 0.8; stroke-linecap: square"/>
     </g>
     <g id="line2d_6">
      <g>
       <use xlink:href="#m6571566f3c" x="236.915" y="266.245" style="stroke: #000000; stroke-width: 0.8"/>
      </g>
     </g>
     <g id="text_3">
      <!-- 500 -->
      <g transform="translate(218.915 289.63625) scale(0.24 -0.24)">
       <use xlink:href="#TeXGyreTermes-Regular-35"/>
       <use xlink:href="#TeXGyreTermes-Regular-30" transform="translate(49.999985 0)"/>
       <use xlink:href="#TeXGyreTermes-Regular-30" transform="translate(99.999969 0)"/>
      </g>
     </g>
    </g>
    <g id="xtick_4">
     <g id="line2d_7">
      <path d="M 323.9275 266.245 
L 323.9275 25.92 
" clip-path="url(#p077c693818)" style="fill: none; stroke: #b0b0b0; stroke-width: 0.8; stroke-linecap: square"/>
     </g>
     <g id="line2d_8">
      <g>
       <use xlink:href="#m6571566f3c" x="323.9275" y="266.245" style="stroke: #000000; stroke-width: 0.8"/>
      </g>
     </g>
     <g id="text_4">
      <!-- 750 -->
      <g transform="translate(305.9275 289.63625) scale(0.24 -0.24)">
       <defs>
        <path id="TeXGyreTermes-Regular-37" d="M 2874 4134 
L 2874 4237 
L 506 4237 
L 128 3296 
L 237 3245 
C 512 3680 627 3763 979 3763 
L 2368 3763 
L 1101 -51 
L 1517 -51 
L 2874 4134 
z
" transform="scale(0.015625)"/>
       </defs>
       <use xlink:href="#TeXGyreTermes-Regular-37"/>
       <use xlink:href="#TeXGyreTermes-Regular-35" transform="translate(49.999985 0)"/>
       <use xlink:href="#TeXGyreTermes-Regular-30" transform="translate(99.999969 0)"/>
      </g>
     </g>
    </g>
    <g id="xtick_5">
     <g id="line2d_9">
      <path d="M 410.94 266.245 
L 410.94 25.92 
" clip-path="url(#p077c693818)" style="fill: none; stroke: #b0b0b0; stroke-width: 0.8; stroke-linecap: square"/>
     </g>
     <g id="line2d_10">
      <g>
       <use xlink:href="#m6571566f3c" x="410.94" y="266.245" style="stroke: #000000; stroke-width: 0.8"/>
      </g>
     </g>
     <g id="text_5">
      <!-- 1000 -->
      <g transform="translate(386.94 289.63625) scale(0.24 -0.24)">
       <defs>
        <path id="TeXGyreTermes-Regular-31" d="M 2522 0 
L 2522 96 
C 2016 102 1914 166 1914 474 
L 1914 4314 
L 1862 4326 
L 710 3744 
L 710 3654 
C 787 3686 858 3712 883 3725 
C 998 3770 1107 3795 1171 3795 
C 1306 3795 1363 3699 1363 3494 
L 1363 595 
C 1363 384 1312 237 1210 179 
C 1114 122 1024 102 755 96 
L 755 0 
L 2522 0 
z
" transform="scale(0.015625)"/>
       </defs>
       <use xlink:href="#TeXGyreTermes-Regular-31"/>
       <use xlink:href="#TeXGyreTermes-Regular-30" transform="translate(49.999985 0)"/>
       <use xlink:href="#TeXGyreTermes-Regular-30" transform="translate(99.999969 0)"/>
       <use xlink:href="#TeXGyreTermes-Regular-30" transform="translate(149.999954 0)"/>
      </g>
     </g>
    </g>
    <g id="text_6">
     <!-- Schritt k -->
     <g transform="translate(195.9125 315.23625) scale(0.24 -0.24)">
      <defs>
       <path id="TeXGyreTermes-Regular-53" d="M 3142 1075 
C 3142 1606 2790 2016 1946 2477 
C 1274 2842 1005 3123 1005 3475 
C 1005 3827 1274 4064 1670 4064 
C 1958 4064 2227 3942 2451 3712 
C 2650 3507 2739 3341 2842 2963 
L 3002 2963 
L 2861 4326 
L 2726 4326 
C 2701 4186 2630 4109 2522 4109 
C 2458 4109 2355 4134 2240 4186 
C 2003 4275 1773 4326 1549 4326 
C 1299 4326 1030 4224 826 4058 
C 576 3853 454 3578 454 3226 
C 454 2720 736 2362 1453 1984 
C 1914 1734 2246 1478 2406 1235 
C 2464 1146 2496 1018 2496 858 
C 2496 435 2176 141 1709 141 
C 1133 141 736 493 416 1274 
L 269 1274 
L 461 -83 
L 602 -83 
C 608 38 685 128 781 128 
C 851 128 960 102 1082 58 
C 1325 -38 1581 -90 1837 -90 
C 2579 -90 3142 416 3142 1075 
z
" transform="scale(0.015625)"/>
       <path id="TeXGyreTermes-Regular-63" d="M 2637 941 
L 2547 998 
C 2240 550 2010 397 1645 397 
C 1056 397 653 909 653 1645 
C 653 2310 1005 2758 1523 2758 
C 1754 2758 1837 2688 1901 2451 
L 1939 2310 
C 1990 2125 2106 2016 2246 2016 
C 2413 2016 2547 2138 2547 2285 
C 2547 2643 2099 2944 1562 2944 
C 1261 2944 954 2829 698 2618 
C 352 2330 160 1888 160 1357 
C 160 531 666 -64 1376 -64 
C 1651 -64 1894 26 2112 205 
C 2304 358 2432 544 2637 941 
z
" transform="scale(0.015625)"/>
       <path id="TeXGyreTermes-Regular-68" d="M 3117 0 
L 3117 96 
C 2771 160 2733 211 2733 653 
L 2733 1926 
C 2733 2598 2464 2944 1946 2944 
C 1568 2944 1299 2790 1005 2406 
L 1005 4352 
L 973 4371 
C 755 4294 595 4243 237 4141 
L 64 4090 
L 64 3987 
C 90 3994 109 3994 141 3994 
C 416 3994 467 3942 467 3667 
L 467 653 
C 467 205 429 147 58 96 
L 58 0 
L 1440 0 
L 1440 96 
C 1069 134 1005 211 1005 653 
L 1005 2195 
C 1274 2490 1466 2598 1715 2598 
C 2035 2598 2195 2368 2195 1920 
L 2195 653 
C 2195 218 2131 134 1760 96 
L 1760 0 
L 3117 0 
z
" transform="scale(0.015625)"/>
       <path id="TeXGyreTermes-Regular-72" d="M 2144 2605 
C 2144 2816 2010 2944 1792 2944 
C 1523 2944 1338 2797 1024 2342 
L 1024 2931 
L 992 2944 
C 653 2803 422 2720 45 2598 
L 45 2496 
C 134 2515 192 2522 269 2522 
C 429 2522 486 2419 486 2138 
L 486 538 
C 486 218 442 173 32 96 
L 32 0 
L 1568 0 
L 1568 96 
C 1133 115 1024 211 1024 576 
L 1024 2016 
C 1024 2221 1299 2541 1472 2541 
C 1510 2541 1568 2509 1638 2445 
C 1741 2355 1811 2317 1894 2317 
C 2048 2317 2144 2426 2144 2605 
z
" transform="scale(0.015625)"/>
       <path id="TeXGyreTermes-Regular-69" d="M 1619 0 
L 1619 96 
C 1197 128 1146 192 1146 653 
L 1146 2925 
L 1120 2944 
L 128 2592 
L 128 2496 
L 179 2502 
C 256 2515 339 2522 397 2522 
C 550 2522 608 2419 608 2138 
L 608 653 
C 608 192 544 122 102 96 
L 102 0 
L 1619 0 
z
M 1203 3776 
C 1203 3955 1062 4102 877 4102 
C 698 4102 550 3955 550 3776 
C 550 3590 698 3450 877 3450 
C 1062 3450 1203 3590 1203 3776 
z
" transform="scale(0.015625)"/>
       <path id="TeXGyreTermes-Regular-74" d="M 1786 422 
L 1702 493 
C 1562 326 1459 269 1318 269 
C 1082 269 986 435 986 845 
L 986 2675 
L 1632 2675 
L 1632 2880 
L 986 2880 
L 986 3622 
C 986 3686 973 3706 941 3706 
C 902 3642 858 3584 813 3526 
C 576 3174 358 2938 192 2842 
C 122 2797 83 2758 83 2720 
C 83 2701 90 2688 109 2675 
L 448 2675 
L 448 749 
C 448 211 640 -64 1011 -64 
C 1331 -64 1574 90 1786 422 
z
" transform="scale(0.015625)"/>
       <path id="TeXGyreTermes-Regular-20" transform="scale(0.015625)"/>
       <path id="TeXGyreTermes-Regular-6b" d="M 3232 0 
L 3232 96 
C 2950 115 2752 237 2483 563 
L 1504 1805 
L 1690 1978 
C 2144 2400 2541 2694 2726 2746 
C 2822 2771 2912 2784 3021 2784 
L 3072 2784 
L 3072 2880 
L 1766 2880 
L 1766 2790 
C 2016 2784 2086 2758 2086 2669 
C 2086 2618 2029 2528 1939 2451 
L 1062 1670 
L 1062 4358 
L 1037 4371 
L 237 4141 
L 45 4090 
L 45 3987 
C 128 3994 186 4000 250 4000 
C 461 4000 525 3917 525 3610 
L 525 525 
C 525 192 506 173 45 96 
L 45 0 
L 1542 0 
L 1542 96 
L 1414 102 
C 1158 115 1062 205 1062 429 
L 1062 1606 
L 1958 410 
L 1978 384 
C 1990 365 2003 346 2022 326 
C 2074 262 2093 224 2093 192 
C 2093 134 2035 96 1958 96 
L 1837 96 
L 1837 0 
L 3232 0 
z
" transform="scale(0.015625)"/>
      </defs>
      <use xlink:href="#TeXGyreTermes-Regular-53"/>
      <use xlink:href="#TeXGyreTermes-Regular-63" transform="translate(55.599991 0)"/>
      <use xlink:href="#TeXGyreTermes-Regular-68" transform="translate(99.999985 0)"/>
      <use xlink:href="#TeXGyreTermes-Regular-72" transform="translate(149.999969 0)"/>
      <use xlink:href="#TeXGyreTermes-Regular-69" transform="translate(183.299957 0)"/>
      <use xlink:href="#TeXGyreTermes-Regular-74" transform="translate(211.099945 0)"/>
      <use xlink:href="#TeXGyreTermes-Regular-74" transform="translate(238.899933 0)"/>
      <use xlink:href="#TeXGyreTermes-Regular-20" transform="translate(266.699921 0)"/>
      <use xlink:href="#TeXGyreTermes-Regular-6b" transform="translate(291.699905 0)"/>
     </g>
    </g>
   </g>
   <g id="matplotlib.axis_2">
    <g id="ytick_1">
     <g id="line2d_11">
      <path d="M 62.89 241.281081 
L 410.94 241.281081 
" clip-path="url(#p077c693818)" style="fill: none; stroke: #b0b0b0; stroke-width: 0.8; stroke-linecap: square"/>
     </g>
     <g id="line2d_12">
      <defs>
       <path id="mca102d7b17" d="M 0 0 
L -3.5 0 
" style="stroke: #000000; stroke-width: 0.8"/>
      </defs>
      <g>
       <use xlink:href="#mca102d7b17" x="62.89" y="241.281081" style="stroke: #000000; stroke-width: 0.8"/>
      </g>
     </g>
     <g id="text_7">
      <!-- 0.0 -->
      <g transform="translate(25.89 249.476706) scale(0.24 -0.24)">
       <defs>
        <path id="TeXGyreTermes-Regular-2e" d="M 1158 275 
C 1158 474 992 640 800 640 
C 608 640 448 474 448 275 
C 448 90 608 -70 794 -70 
C 992 -70 1158 90 1158 275 
z
" transform="scale(0.015625)"/>
       </defs>
       <use xlink:href="#TeXGyreTermes-Regular-30"/>
       <use xlink:href="#TeXGyreTermes-Regular-2e" transform="translate(49.999985 0)"/>
       <use xlink:href="#TeXGyreTermes-Regular-30" transform="translate(74.999969 0)"/>
      </g>
     </g>
    </g>
    <g id="ytick_2">
     <g id="line2d_13">
      <path d="M 62.89 146.967719 
L 410.94 146.967719 
" clip-path="url(#p077c693818)" style="fill: none; stroke: #b0b0b0; stroke-width: 0.8; stroke-linecap: square"/>
     </g>
     <g id="line2d_14">
      <g>
       <use xlink:href="#mca102d7b17" x="62.89" y="146.967719" style="stroke: #000000; stroke-width: 0.8"/>
      </g>
     </g>
     <g id="text_8">
      <!-- 0.5 -->
      <g transform="translate(25.89 155.163344) scale(0.24 -0.24)">
       <use xlink:href="#TeXGyreTermes-Regular-30"/>
       <use xlink:href="#TeXGyreTermes-Regular-2e" transform="translate(49.999985 0)"/>
       <use xlink:href="#TeXGyreTermes-Regular-35" transform="translate(74.999969 0)"/>
      </g>
     </g>
    </g>
    <g id="ytick_3">
     <g id="line2d_15">
      <path d="M 62.89 52.654357 
L 410.94 52.654357 
" clip-path="url(#p077c693818)" style="fill: none; stroke: #b0b0b0; stroke-width: 0.8; stroke-linecap: square"/>
     </g>
     <g id="line2d_16">
      <g>
       <use xlink:href="#mca102d7b17" x="62.89" y="52.654357" style="stroke: #000000; stroke-width: 0.8"/>
      </g>
     </g>
     <g id="text_9">
      <!-- 1.0 -->
      <g transform="translate(25.89 60.849982) scale(0.24 -0.24)">
       <use xlink:href="#TeXGyreTermes-Regular-31"/>
       <use xlink:href="#TeXGyreTermes-Regular-2e" transform="translate(49.999985 0)"/>
       <use xlink:href="#TeXGyreTermes-Regular-30" transform="translate(74.999969 0)"/>
      </g>
     </g>
    </g>
   </g>
   <g id="line2d_17">
    <path d="M 62.89 241.281081 
L 63.23805 241.298098 
L 63.5861 241.154572 
L 63.93415 241.209345 
L 64.63025 241.025462 
L 66.71855 243.162807 
L 67.0666 243.707202 
L 67.41465 244.024408 
L 68.11075 244.942058 
L 68.4588 245.003263 
L 68.80685 245.275459 
L 69.50295 245.394498 
L 70.19905 245.470433 
L 70.89515 245.751806 
L 71.9393 246.394571 
L 72.28735 246.634774 
L 72.6354 246.603321 
L 72.98345 246.726939 
L 73.3315 246.71774 
L 74.0276 246.456214 
L 74.7237 246.564244 
L 75.4198 247.05613 
L 75.76785 246.912917 
L 76.1159 246.551763 
L 76.812 246.298872 
L 77.16005 246.49232 
L 78.55225 246.661046 
L 79.5964 247.220475 
L 80.2925 248.146106 
L 80.9886 249.23733 
L 81.33665 249.66173 
L 82.03275 251.31133 
L 82.3808 251.674257 
L 83.0769 253.013324 
L 83.42495 253.672685 
L 84.12105 254.1367 
L 84.4691 254.216206 
L 84.81715 254.181164 
L 85.1652 254.37706 
L 86.20935 254.50811 
L 86.90545 254.739861 
L 87.60155 254.66509 
L 87.9496 254.773311 
L 88.29765 254.487642 
L 89.68985 255.110699 
L 90.0379 254.964386 
L 90.38595 255.160167 
L 90.734 255.060082 
L 91.4301 255.321136 
L 91.77815 255.144112 
L 92.1262 255.309938 
L 92.8223 254.427654 
L 93.17035 253.874772 
L 93.5184 253.581299 
L 94.2145 252.724261 
L 94.56255 252.709915 
L 94.9106 252.954422 
L 95.6067 252.882117 
L 95.95475 252.894594 
L 96.3028 253.021418 
L 96.65085 252.796722 
L 96.9989 252.206253 
L 97.695 251.638924 
L 98.3911 251.570063 
L 99.0872 250.501188 
L 99.43525 250.416087 
L 99.7833 250.744006 
L 100.13135 250.795365 
L 100.4794 250.547323 
L 100.82745 250.652541 
L 101.52355 249.72879 
L 102.91575 248.773885 
L 103.9599 249.091328 
L 104.30795 248.859812 
L 105.00405 248.90395 
L 105.70015 248.480138 
L 106.39625 248.005893 
L 107.09235 247.669142 
L 107.78845 246.885287 
L 108.8326 246.180048 
L 109.5287 246.389474 
L 109.87675 246.281057 
L 110.2248 246.311163 
L 110.57285 246.175832 
L 112.66115 243.75831 
L 113.35725 243.764557 
L 114.05335 243.574631 
L 114.4014 243.975813 
L 114.74945 243.878333 
L 115.0975 244.066394 
L 115.7936 244.830849 
L 116.14165 245.273997 
L 116.4897 245.263461 
L 117.8819 245.868554 
L 118.92605 245.511686 
L 119.2741 245.501767 
L 119.9702 245.148881 
L 121.01435 245.134768 
L 122.40655 244.415091 
L 123.4507 243.406716 
L 124.49485 243.021565 
L 125.19095 242.443639 
L 125.539 242.128849 
L 126.2351 241.297135 
L 127.6273 239.695328 
L 127.97535 239.292183 
L 129.0195 238.782677 
L 129.36755 238.77622 
L 129.7156 238.331263 
L 130.4117 237.871434 
L 131.1078 236.856584 
L 131.45585 236.557778 
L 131.8039 236.776641 
L 133.1961 236.717779 
L 134.24025 236.552783 
L 135.2844 235.933417 
L 135.63245 235.838662 
L 136.32855 235.378627 
L 136.6766 235.331438 
L 137.3727 235.026441 
L 137.72075 234.550836 
L 138.0688 234.296064 
L 138.41685 234.302296 
L 139.11295 233.78362 
L 139.461 233.746247 
L 140.1571 232.920308 
L 140.8532 231.807269 
L 141.20125 231.639779 
L 141.5493 231.660852 
L 141.89735 231.313058 
L 142.2454 231.416352 
L 142.59345 231.340715 
L 142.9415 231.077599 
L 143.28955 230.970195 
L 143.6376 230.565019 
L 144.68175 230.249686 
L 145.37785 230.489202 
L 146.07395 230.214839 
L 146.422 230.27926 
L 146.77005 230.531651 
L 147.46615 231.484198 
L 149.2064 233.157634 
L 149.9025 233.494487 
L 150.25055 233.827291 
L 150.5986 233.920953 
L 150.94665 233.847256 
L 151.2947 234.061454 
L 152.6869 234.265403 
L 153.383 233.953212 
L 153.73105 233.61059 
L 154.0791 233.443368 
L 154.7752 232.774737 
L 155.12325 232.213031 
L 155.81935 231.85051 
L 156.8635 230.984382 
L 157.21155 230.343105 
L 157.90765 229.561868 
L 158.2557 229.050889 
L 158.60375 228.83354 
L 158.9518 228.771385 
L 159.29985 228.908659 
L 159.99595 228.389791 
L 160.344 228.467385 
L 161.38815 227.188976 
L 162.08425 227.264998 
L 163.1284 226.853024 
L 163.8245 226.923466 
L 164.86865 226.580415 
L 165.2167 226.62146 
L 165.9128 226.048052 
L 166.26085 226.228575 
L 167.65305 225.32753 
L 168.0011 225.382786 
L 168.34915 225.264712 
L 168.6972 224.847658 
L 169.04525 224.614116 
L 169.3933 224.70983 
L 169.74135 224.213191 
L 170.43745 222.846644 
L 171.13355 222.026137 
L 171.4816 221.82052 
L 172.8738 220.183104 
L 173.22185 220.269012 
L 173.5699 220.171245 
L 173.91795 219.933916 
L 174.266 219.381056 
L 174.61405 219.508143 
L 174.9621 219.206368 
L 176.3543 218.622624 
L 176.70235 218.63265 
L 177.0504 218.467146 
L 177.7465 217.390796 
L 178.4426 217.357884 
L 178.79065 217.246828 
L 179.1387 217.290806 
L 179.48675 216.846089 
L 179.8348 216.710523 
L 180.87895 216.707838 
L 181.227 216.609997 
L 181.57505 216.288525 
L 181.9231 215.767427 
L 182.27115 215.630498 
L 182.6192 215.709107 
L 183.3153 215.039095 
L 184.35945 213.79971 
L 185.05555 213.456678 
L 186.44775 212.715415 
L 186.7958 212.731256 
L 187.14385 212.58244 
L 188.188 212.85471 
L 189.23215 211.93942 
L 189.5802 211.651301 
L 189.92825 211.821108 
L 190.2763 211.652459 
L 190.62435 211.705093 
L 191.6685 211.465108 
L 192.01655 211.627725 
L 192.3646 211.457362 
L 193.0607 210.648484 
L 193.40875 210.505794 
L 194.10485 209.860505 
L 194.80095 208.874518 
L 195.149 208.490249 
L 195.49705 208.461248 
L 195.8451 208.706224 
L 196.5412 209.50273 
L 196.88925 209.354397 
L 197.2373 209.042843 
L 197.9334 209.255584 
L 198.28145 208.993027 
L 198.97755 207.955762 
L 199.67365 208.129993 
L 200.0217 207.886544 
L 201.76195 207.447604 
L 202.11 207.29274 
L 202.45805 207.002456 
L 202.8061 206.435442 
L 203.15415 206.274472 
L 204.54635 204.818345 
L 205.24245 203.956479 
L 205.5905 203.851723 
L 206.9827 202.329207 
L 207.6788 201.636788 
L 208.02685 201.522365 
L 208.72295 201.570729 
L 209.071 201.385626 
L 209.41905 201.759152 
L 209.7671 201.757019 
L 210.81125 201.044504 
L 211.1593 200.298588 
L 211.8554 200.01426 
L 212.5515 199.330323 
L 213.59565 198.605348 
L 213.9437 198.533989 
L 214.29175 198.69415 
L 214.6398 198.548702 
L 215.3359 197.758954 
L 216.7281 196.538642 
L 217.77225 195.550006 
L 219.5125 194.789478 
L 220.55665 193.952621 
L 222.2969 192.26019 
L 223.6891 190.781366 
L 224.03715 190.507129 
L 224.73325 189.458441 
L 226.4735 186.878155 
L 228.21375 185.895163 
L 228.5618 185.569191 
L 228.90985 184.924144 
L 229.2579 184.766398 
L 229.60595 184.353049 
L 229.954 184.190417 
L 230.30205 184.302442 
L 232.0423 183.047387 
L 232.39035 182.032742 
L 232.7384 181.59755 
L 233.4345 180.388103 
L 233.78255 179.971187 
L 234.1306 179.785513 
L 234.47865 179.109666 
L 234.8267 178.743982 
L 235.17475 178.194951 
L 235.5228 177.352081 
L 237.95915 174.5073 
L 238.3072 174.170074 
L 238.65525 174.032385 
L 239.6994 172.584303 
L 240.3955 171.498113 
L 241.0916 171.390372 
L 241.7877 170.45873 
L 243.1799 169.798714 
L 243.52795 169.859525 
L 245.61625 169.23663 
L 246.31235 169.600068 
L 247.3565 169.540406 
L 247.70455 169.357141 
L 248.0526 169.334869 
L 248.7487 168.78641 
L 249.4448 168.870927 
L 250.1409 168.138521 
L 250.48895 168.102611 
L 250.837 167.954182 
L 251.18505 167.665837 
L 251.88115 166.833495 
L 252.57725 166.73654 
L 254.66555 164.059036 
L 255.36165 163.376881 
L 256.4058 162.368809 
L 256.75385 162.483418 
L 257.1019 162.771365 
L 257.44995 162.509843 
L 257.798 162.458642 
L 258.14605 162.658187 
L 258.84215 162.479249 
L 259.1902 162.549635 
L 260.23435 162.310532 
L 260.5824 162.570002 
L 261.2785 162.540688 
L 263.01875 161.613727 
L 263.3668 161.539121 
L 263.71485 161.315354 
L 264.41095 160.323481 
L 265.4551 158.814375 
L 266.49925 157.917711 
L 267.19535 157.426591 
L 267.89145 156.930794 
L 268.58755 156.235879 
L 269.6317 156.107039 
L 270.3278 155.243608 
L 270.67585 154.714249 
L 271.0239 153.97671 
L 271.72 152.9817 
L 272.4161 151.515549 
L 273.8083 148.330008 
L 274.5044 146.823583 
L 275.8966 144.876953 
L 277.2888 141.666819 
L 277.9849 140.348992 
L 280.7693 133.117975 
L 281.4654 131.184183 
L 281.81345 130.529962 
L 283.90175 124.807324 
L 284.2498 123.680732 
L 284.59785 123.016344 
L 284.9459 122.76232 
L 285.642 121.442614 
L 285.99005 121.125331 
L 287.0342 118.83176 
L 287.38225 118.268543 
L 288.07835 116.9048 
L 288.77445 115.397178 
L 289.1225 114.515277 
L 290.16665 113.314847 
L 290.5147 113.151099 
L 290.86275 112.814105 
L 291.9069 110.910976 
L 292.25495 110.452084 
L 292.603 110.21984 
L 293.2991 109.399025 
L 293.64715 109.187994 
L 293.9952 108.801776 
L 294.6913 107.492051 
L 295.03935 107.31082 
L 296.0835 105.503581 
L 297.4757 103.297041 
L 297.82375 103.050242 
L 298.1718 102.640684 
L 298.51985 102.638481 
L 298.8679 102.465838 
L 299.564 101.849965 
L 299.91205 101.718252 
L 300.60815 101.90657 
L 300.9562 102.054057 
L 301.30425 101.981714 
L 302.00035 101.091667 
L 302.69645 101.080194 
L 304.08865 100.005848 
L 304.78475 99.191572 
L 305.48085 97.825986 
L 305.8289 97.50853 
L 306.87305 96.028886 
L 307.9172 94.995848 
L 308.26525 94.906694 
L 308.6133 94.519872 
L 308.96135 94.483006 
L 309.3094 94.634401 
L 309.65745 94.493611 
L 311.04965 92.558499 
L 311.3977 92.287099 
L 311.74575 92.189856 
L 312.0938 91.670542 
L 312.7899 90.218442 
L 313.486 88.745519 
L 314.53015 87.054668 
L 314.8782 86.280639 
L 315.92235 84.827646 
L 316.2704 84.724606 
L 317.31455 83.056208 
L 318.70675 81.899985 
L 321.49115 78.431997 
L 321.8392 78.363969 
L 322.18725 77.74134 
L 322.5353 77.618698 
L 322.88335 77.129225 
L 323.2314 76.843775 
L 324.27555 75.425654 
L 324.97165 74.964055 
L 325.66775 74.000265 
L 326.7119 74.109711 
L 327.75605 73.947753 
L 328.1041 73.848275 
L 329.14825 73.021485 
L 329.84435 72.254077 
L 330.1924 72.144805 
L 330.54045 72.233466 
L 331.23655 72.017112 
L 331.93265 71.334617 
L 332.62875 71.15298 
L 332.9768 70.901411 
L 333.32485 70.909647 
L 333.6729 71.077293 
L 334.369 71.070016 
L 335.0651 71.374424 
L 335.41315 71.448801 
L 336.10925 71.129823 
L 336.4573 70.839824 
L 336.80535 70.758841 
L 337.50145 70.821401 
L 338.19755 70.08566 
L 338.89365 69.579033 
L 339.58975 68.913076 
L 340.28585 69.042868 
L 340.6339 68.872221 
L 341.33 68.934247 
L 341.67805 69.013192 
L 342.0261 68.880331 
L 342.37415 68.975561 
L 343.07025 68.797644 
L 343.4183 68.497294 
L 344.1144 68.908168 
L 344.46245 68.831868 
L 345.5066 68.135189 
L 345.85465 67.970374 
L 346.2027 67.643998 
L 346.55075 67.146013 
L 347.5949 66.634611 
L 347.94295 66.924211 
L 349.33515 66.91915 
L 349.6832 66.628643 
L 350.03125 66.595955 
L 350.72735 66.173498 
L 351.42345 66.397736 
L 351.7715 66.093871 
L 352.4676 66.104201 
L 353.1637 65.270666 
L 353.51175 64.6664 
L 354.20785 64.294465 
L 354.5559 63.755866 
L 356.6442 61.883482 
L 356.99225 61.830271 
L 357.3403 62.055108 
L 357.68835 62.143668 
L 358.38445 61.820227 
L 358.7325 61.81016 
L 359.08055 62.12571 
L 359.4286 62.599852 
L 360.1247 62.914926 
L 360.47275 62.851527 
L 361.86495 62.014485 
L 362.213 61.932912 
L 362.9091 61.99361 
L 363.25715 61.810841 
L 363.6052 61.793047 
L 363.95325 61.907636 
L 364.3013 61.734528 
L 365.34545 59.527686 
L 367.43375 55.595025 
L 367.7818 55.080854 
L 368.12985 54.78443 
L 368.82595 53.347766 
L 369.8701 52.512396 
L 370.5662 52.64496 
L 370.91425 52.306787 
L 371.2623 52.258123 
L 371.61035 52.376214 
L 371.9584 52.168581 
L 372.30645 52.098227 
L 373.00255 51.562742 
L 373.3506 51.335931 
L 373.69865 51.326917 
L 374.39475 51.573793 
L 374.7428 51.526529 
L 375.09085 51.708313 
L 375.78695 51.262053 
L 376.8311 50.441076 
L 377.5272 49.664124 
L 378.2233 48.989802 
L 378.57135 48.450773 
L 381.0077 46.574305 
L 381.35575 46.062442 
L 382.05185 45.899312 
L 382.3999 45.78147 
L 382.74795 45.535764 
L 383.096 44.976313 
L 383.44405 44.704795 
L 383.7921 44.591312 
L 384.14015 44.339117 
L 384.4882 44.319651 
L 385.53235 43.442318 
L 387.62065 42.853789 
L 387.9687 42.821296 
L 388.31675 42.994648 
L 388.6648 43.028011 
L 389.01285 43.255649 
L 389.70895 43.29765 
L 390.40505 43.01653 
L 391.10115 43.00841 
L 391.4492 43.002464 
L 391.79725 42.791654 
L 392.49335 41.711056 
L 393.5375 39.619971 
L 394.2336 39.058979 
L 394.9297 37.910306 
L 395.27775 37.505003 
L 395.97385 37.477109 
L 396.3219 37.588027 
L 397.7141 36.843864 
L 398.4102 37.183879 
L 399.8024 37.530148 
L 400.4985 37.909939 
L 402.23875 37.61212 
L 402.93485 37.855302 
L 403.2829 38.078651 
L 403.63095 37.98518 
L 403.979 38.09281 
L 404.6751 37.910046 
L 405.02315 37.71027 
L 405.71925 37.721965 
L 406.0673 37.466464 
L 406.7634 37.67736 
L 407.4595 37.772501 
L 407.80755 38.040363 
L 409.19975 37.726575 
L 409.89585 37.634871 
L 410.59195 38.512996 
L 410.59195 38.512996 
" clip-path="url(#p077c693818)" style="fill: none; stroke: #1f77b4; stroke-width: 1.5; stroke-linecap: square"/>
   </g>
   <g id="patch_3">
    <path d="M 62.89 266.245 
L 62.89 25.92 
" style="fill: none; stroke: #000000; stroke-width: 0.8; stroke-linejoin: miter; stroke-linecap: square"/>
   </g>
   <g id="patch_4">
    <path d="M 410.94 266.245 
L 410.94 25.92 
" style="fill: none; stroke: #000000; stroke-width: 0.8; stroke-linejoin: miter; stroke-linecap: square"/>
   </g>
   <g id="patch_5">
    <path d="M 62.89 266.245 
L 410.94 266.245 
" style="fill: none; stroke: #000000; stroke-width: 0.8; stroke-linejoin: miter; stroke-linecap: square"/>
   </g>
   <g id="patch_6">
    <path d="M 62.89 25.92 
L 410.94 25.92 
" style="fill: none; stroke: #000000; stroke-width: 0.8; stroke-linejoin: miter; stroke-linecap: square"/>
   </g>
  </g>
 </g>
 <defs>
  <clipPath id="p077c693818">
   <rect x="62.89" y="25.92" width="348.05" height="240.325"/>
  </clipPath>
 </defs>
</svg>
