<?xml version="1.0" encoding="utf-8" standalone="no"?>
<!DOCTYPE svg PUBLIC "-//W3C//DTD SVG 1.1//EN"
  "http://www.w3.org/Graphics/SVG/1.1/DTD/svg11.dtd">
<svg xmlns:xlink="http://www.w3.org/1999/xlink" width="460.8pt" height="345.6pt" viewBox="0 0 460.8 345.6" xmlns="http://www.w3.org/2000/svg" version="1.1">
 <metadata>
  <rdf:RDF xmlns:dc="http://purl.org/dc/elements/1.1/" xmlns:cc="http://creativecommons.org/ns#" xmlns:rdf="http://www.w3.org/1999/02/22-rdf-syntax-ns#">
   <cc:Work>
    <dc:type rdf:resource="http://purl.org/dc/dcmitype/StillImage"/>
    <dc:date>2025-12-15T12:37:23.228483</dc:date>
    <dc:format>image/svg+xml</dc:format>
    <dc:creator>
     <cc:Agent>
      <dc:title>Matplotlib v3.10.6, https://matplotlib.org/</dc:title>
     </cc:Agent>
    </dc:creator>
   </cc:Work>
  </rdf:RDF>
 </metadata>
 <defs>
  <style type="text/css">*{stroke-linejoin: round; stroke-linecap: butt}</style>
 </defs>
 <g id="figure_1">
  <g id="patch_1">
   <path d="M 0 345.6 
L 460.8 345.6 
L 460.8 0 
L 0 0 
z
" style="fill: #ffffff"/>
  </g>
  <g id="axes_1">
   <g id="patch_2">
    <path d="M 94.0475 266.245 
L 410.94 266.245 
L 410.94 30.950567 
L 94.0475 30.950567 
z
" style="fill: #ffffff"/>
   </g>
   <g id="matplotlib.axis_1">
    <g id="xtick_1">
     <g id="line2d_1">
      <path d="M 94.0475 266.245 
L 94.0475 30.950567 
" clip-path="url(#p40532bfa7f)" style="fill: none; stroke: #b0b0b0; stroke-width: 0.8; stroke-linecap: square"/>
     </g>
     <g id="line2d_2">
      <defs>
       <path id="me7f694d671" d="M 0 0 
L 0 3.5 
" style="stroke: #000000; stroke-width: 0.8"/>
      </defs>
      <g>
       <use xlink:href="#me7f694d671" x="94.0475" y="266.245" style="stroke: #000000; stroke-width: 0.8"/>
      </g>
     </g>
     <g id="text_1">
      <!-- 0 -->
      <g transform="translate(88.0475 289.63625) scale(0.24 -0.24)">
       <defs>
        <path id="TeXGyreTermes-Regular-30" d="M 3046 2112 
C 3046 3424 2464 4326 1626 4326 
C 1274 4326 1005 4218 768 3994 
C 397 3635 154 2899 154 2150 
C 154 1453 365 704 666 346 
C 902 64 1229 -90 1600 -90 
C 1926 -90 2202 19 2432 243 
C 2803 595 3046 1338 3046 2112 
z
M 2432 2099 
C 2432 762 2150 77 1600 77 
C 1050 77 768 762 768 2093 
C 768 3450 1056 4160 1606 4160 
C 2144 4160 2432 3437 2432 2099 
z
" transform="scale(0.015625)"/>
       </defs>
       <use xlink:href="#TeXGyreTermes-Regular-30"/>
      </g>
     </g>
    </g>
    <g id="xtick_2">
     <g id="line2d_3">
      <path d="M 173.270625 266.245 
L 173.270625 30.950567 
" clip-path="url(#p40532bfa7f)" style="fill: none; stroke: #b0b0b0; stroke-width: 0.8; stroke-linecap: square"/>
     </g>
     <g id="line2d_4">
      <g>
       <use xlink:href="#me7f694d671" x="173.270625" y="266.245" style="stroke: #000000; stroke-width: 0.8"/>
      </g>
     </g>
     <g id="text_2">
      <!-- 250 -->
      <g transform="translate(155.270625 289.63625) scale(0.24 -0.24)">
       <defs>
        <path id="TeXGyreTermes-Regular-32" d="M 3040 877 
L 2957 909 
C 2720 544 2637 486 2349 486 
L 819 486 
L 1894 1613 
C 2464 2208 2714 2694 2714 3194 
C 2714 3834 2195 4326 1530 4326 
C 1178 4326 845 4186 608 3930 
C 403 3712 307 3507 198 3053 
L 333 3021 
C 589 3648 819 3853 1261 3853 
C 1798 3853 2163 3488 2163 2950 
C 2163 2451 1869 1856 1331 1286 
L 192 77 
L 192 0 
L 2688 0 
L 3040 877 
z
" transform="scale(0.015625)"/>
        <path id="TeXGyreTermes-Regular-35" d="M 2803 4358 
L 2746 4403 
C 2650 4269 2586 4237 2451 4237 
L 1114 4237 
L 416 2720 
C 410 2707 410 2688 410 2688 
C 410 2656 435 2637 486 2637 
C 691 2637 947 2592 1210 2509 
C 1946 2272 2285 1875 2285 1242 
C 2285 627 1894 147 1395 147 
C 1267 147 1158 192 966 333 
C 762 480 614 544 480 544 
C 294 544 205 467 205 307 
C 205 64 506 -90 986 -90 
C 1523 -90 1984 83 2304 410 
C 2598 698 2733 1062 2733 1549 
C 2733 2010 2611 2304 2291 2624 
C 2010 2906 1645 3053 890 3187 
L 1158 3731 
L 2413 3731 
C 2515 3731 2541 3744 2560 3789 
L 2803 4358 
z
" transform="scale(0.015625)"/>
       </defs>
       <use xlink:href="#TeXGyreTermes-Regular-32"/>
       <use xlink:href="#TeXGyreTermes-Regular-35" transform="translate(49.999985 0)"/>
       <use xlink:href="#TeXGyreTermes-Regular-30" transform="translate(99.999969 0)"/>
      </g>
     </g>
    </g>
    <g id="xtick_3">
     <g id="line2d_5">
      <path d="M 252.49375 266.245 
L 252.49375 30.950567 
" clip-path="url(#p40532bfa7f)" style="fill: none; stroke: #b0b0b0; stroke-width: 0.8; stroke-linecap: square"/>
     </g>
     <g id="line2d_6">
      <g>
       <use xlink:href="#me7f694d671" x="252.49375" y="266.245" style="stroke: #000000; stroke-width: 0.8"/>
      </g>
     </g>
     <g id="text_3">
      <!-- 500 -->
      <g transform="translate(234.49375 289.63625) scale(0.24 -0.24)">
       <use xlink:href="#TeXGyreTermes-Regular-35"/>
       <use xlink:href="#TeXGyreTermes-Regular-30" transform="translate(49.999985 0)"/>
       <use xlink:href="#TeXGyreTermes-Regular-30" transform="translate(99.999969 0)"/>
      </g>
     </g>
    </g>
    <g id="xtick_4">
     <g id="line2d_7">
      <path d="M 331.716875 266.245 
L 331.716875 30.950567 
" clip-path="url(#p40532bfa7f)" style="fill: none; stroke: #b0b0b0; stroke-width: 0.8; stroke-linecap: square"/>
     </g>
     <g id="line2d_8">
      <g>
       <use xlink:href="#me7f694d671" x="331.716875" y="266.245" style="stroke: #000000; stroke-width: 0.8"/>
      </g>
     </g>
     <g id="text_4">
      <!-- 750 -->
      <g transform="translate(313.716875 289.63625) scale(0.24 -0.24)">
       <defs>
        <path id="TeXGyreTermes-Regular-37" d="M 2874 4134 
L 2874 4237 
L 506 4237 
L 128 3296 
L 237 3245 
C 512 3680 627 3763 979 3763 
L 2368 3763 
L 1101 -51 
L 1517 -51 
L 2874 4134 
z
" transform="scale(0.015625)"/>
       </defs>
       <use xlink:href="#TeXGyreTermes-Regular-37"/>
       <use xlink:href="#TeXGyreTermes-Regular-35" transform="translate(49.999985 0)"/>
       <use xlink:href="#TeXGyreTermes-Regular-30" transform="translate(99.999969 0)"/>
      </g>
     </g>
    </g>
    <g id="xtick_5">
     <g id="line2d_9">
      <path d="M 410.94 266.245 
L 410.94 30.950567 
" clip-path="url(#p40532bfa7f)" style="fill: none; stroke: #b0b0b0; stroke-width: 0.8; stroke-linecap: square"/>
     </g>
     <g id="line2d_10">
      <g>
       <use xlink:href="#me7f694d671" x="410.94" y="266.245" style="stroke: #000000; stroke-width: 0.8"/>
      </g>
     </g>
     <g id="text_5">
      <!-- 1000 -->
      <g transform="translate(386.94 289.63625) scale(0.24 -0.24)">
       <defs>
        <path id="TeXGyreTermes-Regular-31" d="M 2522 0 
L 2522 96 
C 2016 102 1914 166 1914 474 
L 1914 4314 
L 1862 4326 
L 710 3744 
L 710 3654 
C 787 3686 858 3712 883 3725 
C 998 3770 1107 3795 1171 3795 
C 1306 3795 1363 3699 1363 3494 
L 1363 595 
C 1363 384 1312 237 1210 179 
C 1114 122 1024 102 755 96 
L 755 0 
L 2522 0 
z
" transform="scale(0.015625)"/>
       </defs>
       <use xlink:href="#TeXGyreTermes-Regular-31"/>
       <use xlink:href="#TeXGyreTermes-Regular-30" transform="translate(49.999985 0)"/>
       <use xlink:href="#TeXGyreTermes-Regular-30" transform="translate(99.999969 0)"/>
       <use xlink:href="#TeXGyreTermes-Regular-30" transform="translate(149.999954 0)"/>
      </g>
     </g>
    </g>
    <g id="text_6">
     <!-- Schritt k -->
     <g transform="translate(211.49125 315.23625) scale(0.24 -0.24)">
      <defs>
       <path id="TeXGyreTermes-Regular-53" d="M 3142 1075 
C 3142 1606 2790 2016 1946 2477 
C 1274 2842 1005 3123 1005 3475 
C 1005 3827 1274 4064 1670 4064 
C 1958 4064 2227 3942 2451 3712 
C 2650 3507 2739 3341 2842 2963 
L 3002 2963 
L 2861 4326 
L 2726 4326 
C 2701 4186 2630 4109 2522 4109 
C 2458 4109 2355 4134 2240 4186 
C 2003 4275 1773 4326 1549 4326 
C 1299 4326 1030 4224 826 4058 
C 576 3853 454 3578 454 3226 
C 454 2720 736 2362 1453 1984 
C 1914 1734 2246 1478 2406 1235 
C 2464 1146 2496 1018 2496 858 
C 2496 435 2176 141 1709 141 
C 1133 141 736 493 416 1274 
L 269 1274 
L 461 -83 
L 602 -83 
C 608 38 685 128 781 128 
C 851 128 960 102 1082 58 
C 1325 -38 1581 -90 1837 -90 
C 2579 -90 3142 416 3142 1075 
z
" transform="scale(0.015625)"/>
       <path id="TeXGyreTermes-Regular-63" d="M 2637 941 
L 2547 998 
C 2240 550 2010 397 1645 397 
C 1056 397 653 909 653 1645 
C 653 2310 1005 2758 1523 2758 
C 1754 2758 1837 2688 1901 2451 
L 1939 2310 
C 1990 2125 2106 2016 2246 2016 
C 2413 2016 2547 2138 2547 2285 
C 2547 2643 2099 2944 1562 2944 
C 1261 2944 954 2829 698 2618 
C 352 2330 160 1888 160 1357 
C 160 531 666 -64 1376 -64 
C 1651 -64 1894 26 2112 205 
C 2304 358 2432 544 2637 941 
z
" transform="scale(0.015625)"/>
       <path id="TeXGyreTermes-Regular-68" d="M 3117 0 
L 3117 96 
C 2771 160 2733 211 2733 653 
L 2733 1926 
C 2733 2598 2464 2944 1946 2944 
C 1568 2944 1299 2790 1005 2406 
L 1005 4352 
L 973 4371 
C 755 4294 595 4243 237 4141 
L 64 4090 
L 64 3987 
C 90 3994 109 3994 141 3994 
C 416 3994 467 3942 467 3667 
L 467 653 
C 467 205 429 147 58 96 
L 58 0 
L 1440 0 
L 1440 96 
C 1069 134 1005 211 1005 653 
L 1005 2195 
C 1274 2490 1466 2598 1715 2598 
C 2035 2598 2195 2368 2195 1920 
L 2195 653 
C 2195 218 2131 134 1760 96 
L 1760 0 
L 3117 0 
z
" transform="scale(0.015625)"/>
       <path id="TeXGyreTermes-Regular-72" d="M 2144 2605 
C 2144 2816 2010 2944 1792 2944 
C 1523 2944 1338 2797 1024 2342 
L 1024 2931 
L 992 2944 
C 653 2803 422 2720 45 2598 
L 45 2496 
C 134 2515 192 2522 269 2522 
C 429 2522 486 2419 486 2138 
L 486 538 
C 486 218 442 173 32 96 
L 32 0 
L 1568 0 
L 1568 96 
C 1133 115 1024 211 1024 576 
L 1024 2016 
C 1024 2221 1299 2541 1472 2541 
C 1510 2541 1568 2509 1638 2445 
C 1741 2355 1811 2317 1894 2317 
C 2048 2317 2144 2426 2144 2605 
z
" transform="scale(0.015625)"/>
       <path id="TeXGyreTermes-Regular-69" d="M 1619 0 
L 1619 96 
C 1197 128 1146 192 1146 653 
L 1146 2925 
L 1120 2944 
L 128 2592 
L 128 2496 
L 179 2502 
C 256 2515 339 2522 397 2522 
C 550 2522 608 2419 608 2138 
L 608 653 
C 608 192 544 122 102 96 
L 102 0 
L 1619 0 
z
M 1203 3776 
C 1203 3955 1062 4102 877 4102 
C 698 4102 550 3955 550 3776 
C 550 3590 698 3450 877 3450 
C 1062 3450 1203 3590 1203 3776 
z
" transform="scale(0.015625)"/>
       <path id="TeXGyreTermes-Regular-74" d="M 1786 422 
L 1702 493 
C 1562 326 1459 269 1318 269 
C 1082 269 986 435 986 845 
L 986 2675 
L 1632 2675 
L 1632 2880 
L 986 2880 
L 986 3622 
C 986 3686 973 3706 941 3706 
C 902 3642 858 3584 813 3526 
C 576 3174 358 2938 192 2842 
C 122 2797 83 2758 83 2720 
C 83 2701 90 2688 109 2675 
L 448 2675 
L 448 749 
C 448 211 640 -64 1011 -64 
C 1331 -64 1574 90 1786 422 
z
" transform="scale(0.015625)"/>
       <path id="TeXGyreTermes-Regular-20" transform="scale(0.015625)"/>
       <path id="TeXGyreTermes-Regular-6b" d="M 3232 0 
L 3232 96 
C 2950 115 2752 237 2483 563 
L 1504 1805 
L 1690 1978 
C 2144 2400 2541 2694 2726 2746 
C 2822 2771 2912 2784 3021 2784 
L 3072 2784 
L 3072 2880 
L 1766 2880 
L 1766 2790 
C 2016 2784 2086 2758 2086 2669 
C 2086 2618 2029 2528 1939 2451 
L 1062 1670 
L 1062 4358 
L 1037 4371 
L 237 4141 
L 45 4090 
L 45 3987 
C 128 3994 186 4000 250 4000 
C 461 4000 525 3917 525 3610 
L 525 525 
C 525 192 506 173 45 96 
L 45 0 
L 1542 0 
L 1542 96 
L 1414 102 
C 1158 115 1062 205 1062 429 
L 1062 1606 
L 1958 410 
L 1978 384 
C 1990 365 2003 346 2022 326 
C 2074 262 2093 224 2093 192 
C 2093 134 2035 96 1958 96 
L 1837 96 
L 1837 0 
L 3232 0 
z
" transform="scale(0.015625)"/>
      </defs>
      <use xlink:href="#TeXGyreTermes-Regular-53"/>
      <use xlink:href="#TeXGyreTermes-Regular-63" transform="translate(55.599991 0)"/>
      <use xlink:href="#TeXGyreTermes-Regular-68" transform="translate(99.999985 0)"/>
      <use xlink:href="#TeXGyreTermes-Regular-72" transform="translate(149.999969 0)"/>
      <use xlink:href="#TeXGyreTermes-Regular-69" transform="translate(183.299957 0)"/>
      <use xlink:href="#TeXGyreTermes-Regular-74" transform="translate(211.099945 0)"/>
      <use xlink:href="#TeXGyreTermes-Regular-74" transform="translate(238.899933 0)"/>
      <use xlink:href="#TeXGyreTermes-Regular-20" transform="translate(266.699921 0)"/>
      <use xlink:href="#TeXGyreTermes-Regular-6b" transform="translate(291.699905 0)"/>
     </g>
    </g>
   </g>
   <g id="matplotlib.axis_2">
    <g id="ytick_1">
     <g id="line2d_11">
      <path d="M 94.0475 231.011276 
L 410.94 231.011276 
" clip-path="url(#p40532bfa7f)" style="fill: none; stroke: #b0b0b0; stroke-width: 0.8; stroke-linecap: square"/>
     </g>
     <g id="line2d_12">
      <defs>
       <path id="m7c5c9393d1" d="M 0 0 
L -3.5 0 
" style="stroke: #000000; stroke-width: 0.8"/>
      </defs>
      <g>
       <use xlink:href="#m7c5c9393d1" x="94.0475" y="231.011276" style="stroke: #000000; stroke-width: 0.8"/>
      </g>
     </g>
     <g id="text_7">
      <!-- 0 -->
      <g transform="translate(75.0475 239.206901) scale(0.24 -0.24)">
       <use xlink:href="#TeXGyreTermes-Regular-30"/>
      </g>
     </g>
    </g>
    <g id="ytick_2">
     <g id="line2d_13">
      <path d="M 94.0475 165.225714 
L 410.94 165.225714 
" clip-path="url(#p40532bfa7f)" style="fill: none; stroke: #b0b0b0; stroke-width: 0.8; stroke-linecap: square"/>
     </g>
     <g id="line2d_14">
      <g>
       <use xlink:href="#m7c5c9393d1" x="94.0475" y="165.225714" style="stroke: #000000; stroke-width: 0.8"/>
      </g>
     </g>
     <g id="text_8">
      <!-- 200 -->
      <g transform="translate(51.0475 173.421339) scale(0.24 -0.24)">
       <use xlink:href="#TeXGyreTermes-Regular-32"/>
       <use xlink:href="#TeXGyreTermes-Regular-30" transform="translate(49.999985 0)"/>
       <use xlink:href="#TeXGyreTermes-Regular-30" transform="translate(99.999969 0)"/>
      </g>
     </g>
    </g>
    <g id="ytick_3">
     <g id="line2d_15">
      <path d="M 94.0475 99.440153 
L 410.94 99.440153 
" clip-path="url(#p40532bfa7f)" style="fill: none; stroke: #b0b0b0; stroke-width: 0.8; stroke-linecap: square"/>
     </g>
     <g id="line2d_16">
      <g>
       <use xlink:href="#m7c5c9393d1" x="94.0475" y="99.440153" style="stroke: #000000; stroke-width: 0.8"/>
      </g>
     </g>
     <g id="text_9">
      <!-- 400 -->
      <g transform="translate(51.0475 107.635778) scale(0.24 -0.24)">
       <defs>
        <path id="TeXGyreTermes-Regular-34" d="M 3021 1069 
L 3021 1478 
L 2368 1478 
L 2368 4326 
L 2086 4326 
L 77 1478 
L 77 1069 
L 1875 1069 
L 1875 0 
L 2368 0 
L 2368 1069 
L 3021 1069 
z
M 1869 1478 
L 333 1478 
L 1869 3674 
L 1869 1478 
z
" transform="scale(0.015625)"/>
       </defs>
       <use xlink:href="#TeXGyreTermes-Regular-34"/>
       <use xlink:href="#TeXGyreTermes-Regular-30" transform="translate(49.999985 0)"/>
       <use xlink:href="#TeXGyreTermes-Regular-30" transform="translate(99.999969 0)"/>
      </g>
     </g>
    </g>
    <g id="ytick_4">
     <g id="line2d_17">
      <path d="M 94.0475 33.654592 
L 410.94 33.654592 
" clip-path="url(#p40532bfa7f)" style="fill: none; stroke: #b0b0b0; stroke-width: 0.8; stroke-linecap: square"/>
     </g>
     <g id="line2d_18">
      <g>
       <use xlink:href="#m7c5c9393d1" x="94.0475" y="33.654592" style="stroke: #000000; stroke-width: 0.8"/>
      </g>
     </g>
     <g id="text_10">
      <!-- 600 -->
      <g transform="translate(51.0475 41.850217) scale(0.24 -0.24)">
       <defs>
        <path id="TeXGyreTermes-Regular-36" d="M 2995 1402 
C 2995 2221 2528 2739 1792 2739 
C 1510 2739 1376 2694 973 2451 
C 1146 3418 1862 4109 2867 4275 
L 2854 4378 
C 2125 4314 1754 4192 1286 3866 
C 595 3373 218 2643 218 1786 
C 218 1229 390 666 666 346 
C 909 64 1254 -90 1651 -90 
C 2445 -90 2995 518 2995 1402 
z
M 2419 1184 
C 2419 480 2170 90 1722 90 
C 1158 90 813 691 813 1683 
C 813 2010 864 2189 992 2285 
C 1126 2387 1325 2445 1549 2445 
C 2099 2445 2419 1984 2419 1184 
z
" transform="scale(0.015625)"/>
       </defs>
       <use xlink:href="#TeXGyreTermes-Regular-36"/>
       <use xlink:href="#TeXGyreTermes-Regular-30" transform="translate(49.999985 0)"/>
       <use xlink:href="#TeXGyreTermes-Regular-30" transform="translate(99.999969 0)"/>
      </g>
     </g>
    </g>
    <g id="text_11">
     <!-- Summe x({i| i&lt;=k}) -->
     <g transform="translate(41.83875 245.389034) rotate(-90) scale(0.24 -0.24)">
      <defs>
       <path id="TeXGyreTermes-Regular-75" d="M 3066 230 
L 3066 320 
L 3034 320 
C 2739 320 2669 390 2669 685 
L 2669 2880 
L 1658 2880 
L 1658 2771 
C 2054 2752 2131 2688 2131 2368 
L 2131 864 
C 2131 691 2099 595 2022 538 
C 1843 384 1645 307 1446 307 
C 1197 307 992 525 992 794 
L 992 2880 
L 58 2880 
L 58 2790 
C 365 2771 454 2675 454 2381 
L 454 768 
C 454 262 762 -64 1229 -64 
C 1466 -64 1715 38 1888 211 
L 2163 486 
L 2163 -45 
L 2189 -58 
C 2509 70 2739 141 3066 230 
z
" transform="scale(0.015625)"/>
       <path id="TeXGyreTermes-Regular-6d" d="M 4960 0 
L 4960 96 
L 4794 109 
C 4602 122 4518 237 4518 486 
L 4518 1805 
C 4518 2560 4269 2944 3776 2944 
C 3405 2944 3078 2778 2733 2406 
C 2618 2771 2400 2944 2054 2944 
C 1773 2944 1594 2854 1062 2451 
L 1062 2931 
L 1018 2944 
C 691 2822 474 2752 122 2656 
L 122 2547 
C 205 2566 256 2573 326 2573 
C 493 2573 550 2470 550 2163 
L 550 544 
C 550 198 461 102 102 96 
L 102 0 
L 1523 0 
L 1523 96 
C 1184 109 1088 179 1088 429 
L 1088 2234 
C 1088 2234 1139 2310 1184 2355 
C 1344 2502 1619 2611 1843 2611 
C 2125 2611 2266 2387 2266 1939 
L 2266 550 
C 2266 192 2195 122 1830 96 
L 1830 0 
L 3264 0 
L 3264 96 
C 2899 102 2803 211 2803 608 
L 2803 2221 
C 2995 2496 3206 2611 3501 2611 
C 3866 2611 3981 2438 3981 1907 
L 3981 557 
C 3981 192 3930 141 3558 96 
L 3558 0 
L 4960 0 
z
" transform="scale(0.015625)"/>
       <path id="TeXGyreTermes-Regular-65" d="M 2714 1005 
L 2611 1050 
C 2304 563 2029 378 1619 378 
C 1267 378 998 544 813 890 
C 685 1139 634 1363 621 1773 
L 2592 1773 
C 2541 2189 2477 2374 2317 2579 
C 2125 2810 1830 2944 1498 2944 
C 704 2944 160 2304 160 1370 
C 160 486 621 -64 1357 -64 
C 1971 -64 2445 314 2714 1005 
z
M 1939 1978 
L 634 1978 
C 704 2483 922 2714 1312 2714 
C 1702 2714 1856 2534 1939 1978 
z
" transform="scale(0.015625)"/>
       <path id="TeXGyreTermes-Regular-78" d="M 3066 0 
L 3066 96 
C 2867 96 2739 198 2541 480 
L 1722 1734 
L 2253 2502 
C 2374 2675 2566 2778 2771 2784 
L 2771 2880 
L 1760 2880 
L 1760 2784 
C 1952 2771 2016 2733 2016 2643 
C 2016 2566 1939 2426 1779 2227 
C 1747 2189 1670 2074 1587 1946 
L 1498 2074 
C 1318 2342 1203 2560 1203 2643 
C 1203 2733 1286 2778 1478 2784 
L 1478 2880 
L 154 2880 
L 154 2784 
L 211 2784 
C 403 2784 506 2701 704 2400 
L 1306 1478 
L 576 422 
C 384 160 320 115 109 96 
L 109 0 
L 1037 0 
L 1037 96 
C 858 96 781 128 781 211 
C 781 250 826 346 909 474 
L 1414 1261 
L 1997 365 
C 2022 326 2035 288 2035 250 
C 2035 134 1990 109 1779 96 
L 1779 0 
L 3066 0 
z
" transform="scale(0.015625)"/>
       <path id="TeXGyreTermes-Regular-28" d="M 1946 -1030 
C 1434 -627 1254 -403 1082 77 
C 928 506 858 992 858 1632 
C 858 2304 941 2829 1114 3226 
C 1293 3622 1485 3853 1946 4224 
L 1888 4326 
C 1414 4019 1222 3853 986 3558 
C 531 3002 307 2362 307 1613 
C 307 800 544 173 1107 -480 
C 1370 -787 1536 -928 1869 -1133 
L 1946 -1030 
z
" transform="scale(0.015625)"/>
       <path id="TeXGyreTermes-Regular-7b" d="M 2240 -1158 
L 2240 -1088 
C 1798 -973 1658 -781 1658 -301 
L 1658 774 
C 1658 1306 1536 1472 1056 1594 
C 1536 1722 1658 1888 1658 2419 
L 1658 3494 
C 1658 3974 1798 4166 2240 4282 
L 2240 4352 
C 1818 4346 1651 4307 1466 4192 
C 1280 4077 1184 3827 1184 3462 
L 1184 2323 
C 1184 1875 1069 1728 640 1600 
C 1069 1466 1184 1312 1184 870 
L 1184 -262 
C 1184 -621 1286 -883 1466 -998 
C 1645 -1114 1818 -1152 2240 -1158 
z
" transform="scale(0.015625)"/>
       <path id="TeXGyreTermes-Regular-7c" d="M 851 -998 
L 851 4237 
L 429 4237 
L 429 -998 
L 851 -998 
z
" transform="scale(0.015625)"/>
       <path id="TeXGyreTermes-Regular-3c" d="M 3098 83 
L 3098 557 
L 986 1600 
L 3098 2643 
L 3098 3117 
L 416 1792 
L 416 1408 
L 3098 83 
z
" transform="scale(0.015625)"/>
       <path id="TeXGyreTermes-Regular-3d" d="M 3354 1920 
L 3354 2342 
L 256 2342 
L 256 1920 
L 3354 1920 
z
M 3354 858 
L 3354 1280 
L 256 1280 
L 256 858 
L 3354 858 
z
" transform="scale(0.015625)"/>
       <path id="TeXGyreTermes-Regular-7d" d="M 2432 1600 
C 2003 1728 1888 1875 1888 2323 
L 1888 3456 
C 1888 3814 1786 4077 1606 4192 
C 1427 4307 1261 4346 832 4352 
L 832 4282 
C 1274 4166 1414 3974 1414 3494 
L 1414 2419 
C 1414 1882 1536 1722 2016 1600 
C 1536 1472 1414 1306 1414 774 
L 1414 -301 
C 1414 -781 1274 -973 832 -1088 
L 832 -1158 
C 1254 -1152 1421 -1114 1606 -998 
C 1792 -883 1888 -634 1888 -269 
L 1888 870 
C 1888 1318 2003 1466 2432 1600 
z
" transform="scale(0.015625)"/>
       <path id="TeXGyreTermes-Regular-29" d="M 1824 1581 
C 1824 2400 1587 3021 1024 3674 
C 762 3981 595 4122 262 4326 
L 186 4224 
C 698 3821 870 3597 1050 3117 
C 1203 2688 1274 2202 1274 1562 
C 1274 896 1190 365 1018 -26 
C 838 -429 646 -659 186 -1030 
L 243 -1133 
C 717 -826 909 -659 1146 -365 
C 1600 192 1824 832 1824 1581 
z
" transform="scale(0.015625)"/>
      </defs>
      <use xlink:href="#TeXGyreTermes-Regular-53"/>
      <use xlink:href="#TeXGyreTermes-Regular-75" transform="translate(55.599991 0)"/>
      <use xlink:href="#TeXGyreTermes-Regular-6d" transform="translate(105.599976 0)"/>
      <use xlink:href="#TeXGyreTermes-Regular-6d" transform="translate(183.399963 0)"/>
      <use xlink:href="#TeXGyreTermes-Regular-65" transform="translate(261.199951 0)"/>
      <use xlink:href="#TeXGyreTermes-Regular-20" transform="translate(305.599945 0)"/>
      <use xlink:href="#TeXGyreTermes-Regular-78" transform="translate(330.59993 0)"/>
      <use xlink:href="#TeXGyreTermes-Regular-28" transform="translate(380.599915 0)"/>
      <use xlink:href="#TeXGyreTermes-Regular-7b" transform="translate(413.899902 0)"/>
      <use xlink:href="#TeXGyreTermes-Regular-69" transform="translate(461.899887 0)"/>
      <use xlink:href="#TeXGyreTermes-Regular-7c" transform="translate(489.699875 0)"/>
      <use xlink:href="#TeXGyreTermes-Regular-20" transform="translate(509.69986 0)"/>
      <use xlink:href="#TeXGyreTermes-Regular-69" transform="translate(534.699844 0)"/>
      <use xlink:href="#TeXGyreTermes-Regular-3c" transform="translate(562.499832 0)"/>
      <use xlink:href="#TeXGyreTermes-Regular-3d" transform="translate(618.899826 0)"/>
      <use xlink:href="#TeXGyreTermes-Regular-6b" transform="translate(675.29982 0)"/>
      <use xlink:href="#TeXGyreTermes-Regular-7d" transform="translate(725.299805 0)"/>
      <use xlink:href="#TeXGyreTermes-Regular-29" transform="translate(773.299789 0)"/>
     </g>
    </g>
   </g>
   <g id="line2d_19">
    <path d="M 94.0475 231.011276 
L 94.364393 231.441821 
L 94.681285 231.471494 
L 94.998178 231.221214 
L 95.31507 231.316726 
L 95.631963 231.053061 
L 95.948855 230.996071 
L 97.533318 233.836406 
L 98.800888 237.068742 
L 99.11778 237.825842 
L 99.434673 237.932572 
L 99.751565 238.407228 
L 100.38535 238.614808 
L 101.019135 238.747225 
L 101.65292 239.237884 
L 102.286705 239.972625 
L 102.92049 240.777606 
L 103.237383 240.722758 
L 103.554275 240.938323 
L 103.871168 240.922281 
L 104.504953 240.466232 
L 105.138738 240.654615 
L 105.772523 241.512367 
L 106.089415 241.262633 
L 106.406308 240.632851 
L 107.040093 240.191859 
L 107.356985 240.529194 
L 107.673878 240.587433 
L 107.99077 240.81735 
L 108.307663 240.587484 
L 109.25834 241.397147 
L 109.575233 241.798952 
L 109.892125 242.473655 
L 111.159695 246.056338 
L 111.79348 248.933908 
L 112.110373 249.567005 
L 112.744158 251.900906 
L 113.06105 253.048936 
L 113.694835 253.851033 
L 114.011728 253.983869 
L 114.32862 253.915501 
L 114.645513 254.248171 
L 115.59619 254.440787 
L 116.229975 254.815059 
L 116.86376 254.65145 
L 117.180653 254.822349 
L 117.497545 254.305491 
L 117.814438 254.583886 
L 118.13133 254.683132 
L 118.765115 255.307103 
L 119.082008 255.028344 
L 119.3989 255.345297 
L 119.715793 255.145674 
L 120.349578 255.549799 
L 120.66647 255.215087 
L 120.983363 255.477816 
L 121.617148 253.884204 
L 121.93404 252.891803 
L 122.250933 252.351912 
L 122.884718 250.801559 
L 123.20161 250.74841 
L 123.518503 251.146453 
L 124.152288 250.963007 
L 124.46918 250.955789 
L 124.786073 251.147557 
L 125.102965 250.725858 
L 125.419858 249.665686 
L 126.053643 248.612142 
L 126.687428 248.421431 
L 127.321213 246.479415 
L 127.638105 246.288177 
L 127.954998 246.814956 
L 128.27189 246.857074 
L 128.588783 246.374342 
L 128.905675 246.504826 
L 129.53946 244.78132 
L 130.80703 242.871557 
L 131.440815 243.05191 
L 131.757708 243.229489 
L 132.0746 242.758513 
L 132.708385 242.698886 
L 133.34217 241.821029 
L 133.975955 240.853442 
L 134.292848 240.564502 
L 134.60974 240.123017 
L 135.243525 238.610979 
L 136.194203 237.160317 
L 136.827988 237.376717 
L 137.14488 237.113381 
L 137.461773 237.092341 
L 137.778665 236.783931 
L 139.68002 232.156172 
L 140.313805 232.034857 
L 140.94759 231.572949 
L 141.264483 232.208756 
L 141.581375 231.976185 
L 141.898268 232.242774 
L 142.21516 232.735521 
L 142.848945 234.170414 
L 143.165838 234.095632 
L 143.48273 234.318159 
L 143.799623 234.721645 
L 144.116515 234.904143 
L 144.433408 234.934404 
L 145.067193 234.385778 
L 145.384085 234.15954 
L 145.700978 234.094288 
L 146.334763 233.387196 
L 146.651655 233.393332 
L 146.968547 233.576505 
L 148.55301 231.819775 
L 149.503688 229.951243 
L 150.454365 229.180298 
L 150.771258 228.515916 
L 151.405043 227.537472 
L 152.038828 226.037572 
L 153.306398 223.158234 
L 153.62329 222.436066 
L 154.573968 221.499084 
L 154.89086 221.475271 
L 155.207753 220.688977 
L 155.841538 219.87151 
L 156.475323 218.091495 
L 156.792215 217.56713 
L 157.109108 217.945954 
L 157.426 217.939735 
L 157.742893 218.105799 
L 158.059785 218.054889 
L 158.69357 217.720741 
L 159.010463 217.687843 
L 159.327355 217.542229 
L 160.278033 216.453265 
L 160.594925 216.285039 
L 161.22871 215.477709 
L 161.545603 215.393292 
L 162.179388 214.858703 
L 162.49628 214.02865 
L 162.813173 213.583844 
L 163.130065 213.594642 
L 163.76385 212.691797 
L 164.080743 212.628464 
L 164.714528 211.194633 
L 165.348313 209.26494 
L 165.665205 208.980166 
L 165.982098 209.025155 
L 166.29899 208.427913 
L 166.615882 208.618557 
L 166.932775 208.49838 
L 167.249668 208.052615 
L 167.56656 207.880045 
L 167.883453 207.189823 
L 168.83413 206.699309 
L 169.467915 207.166012 
L 169.784807 206.873311 
L 170.1017 206.743456 
L 170.418593 206.885952 
L 170.735485 207.357389 
L 171.36927 209.085751 
L 172.953733 212.201297 
L 173.587518 212.876643 
L 173.90441 213.502101 
L 174.221303 213.7114 
L 174.538195 213.629647 
L 174.855088 214.050609 
L 175.488873 214.438869 
L 175.805765 214.619452 
L 176.122658 214.60447 
L 176.43955 214.46754 
L 176.756443 214.164758 
L 177.073335 213.62117 
L 177.390228 213.384266 
L 178.024013 212.330422 
L 178.340905 211.408725 
L 178.97469 210.895504 
L 179.291583 210.456432 
L 179.608475 210.219057 
L 179.925368 209.571299 
L 180.24226 208.517353 
L 180.559153 208.01711 
L 181.192938 206.466896 
L 181.50983 206.158916 
L 181.826723 206.122674 
L 182.143615 206.435617 
L 182.7774 205.680586 
L 183.094293 205.89232 
L 183.411185 205.169027 
L 183.728078 204.158959 
L 184.04497 203.898775 
L 184.678755 204.193408 
L 185.629433 203.722247 
L 186.263218 204.012338 
L 187.213895 203.663074 
L 187.530788 203.815884 
L 188.164573 202.975256 
L 188.481465 203.367723 
L 189.749035 202.095631 
L 190.065928 202.263875 
L 190.38282 202.129091 
L 190.699713 201.47192 
L 191.016605 201.133875 
L 191.333498 201.369078 
L 191.65039 200.570472 
L 192.284175 198.320503 
L 192.91796 197.021825 
L 193.234853 196.729428 
L 194.502423 194.143793 
L 194.819315 194.362646 
L 195.136208 194.261914 
L 195.4531 193.918419 
L 195.769993 193.025609 
L 196.086885 193.319873 
L 196.403778 192.867481 
L 197.671348 192.158357 
L 197.98824 192.255201 
L 198.305133 192.046803 
L 198.938918 190.332371 
L 199.572703 190.441335 
L 199.889595 190.332662 
L 200.206488 190.495031 
L 200.52338 189.805652 
L 200.840273 189.655931 
L 201.157165 189.754654 
L 201.474058 189.722421 
L 201.79095 189.914439 
L 202.107843 189.832091 
L 202.424735 189.360073 
L 202.741628 188.540329 
L 203.05852 188.390779 
L 203.375413 188.61718 
L 204.009198 187.629002 
L 204.959875 185.740232 
L 205.276768 185.626389 
L 206.544338 184.55236 
L 206.86123 184.407705 
L 207.178123 184.530087 
L 207.495015 184.36624 
L 208.445693 185.137289 
L 209.079478 184.277363 
L 209.713263 183.454802 
L 210.030155 183.858761 
L 210.347048 183.674115 
L 210.66394 183.876294 
L 210.980833 183.798598 
L 211.297725 183.920879 
L 211.614618 183.795277 
L 211.93151 184.193415 
L 212.248403 184.011944 
L 212.882188 182.835272 
L 213.19908 182.704542 
L 213.832865 181.817516 
L 214.149758 180.892641 
L 214.783543 179.791942 
L 215.100435 179.864794 
L 215.417328 180.416028 
L 216.051113 182.054655 
L 216.368005 181.921914 
L 216.684898 181.505233 
L 217.318683 182.130675 
L 217.635575 181.800429 
L 218.26936 180.247973 
L 218.586253 180.454675 
L 218.903145 180.811432 
L 219.220038 180.517379 
L 220.8045 180.417876 
L 221.121393 180.284182 
L 221.438285 179.915237 
L 221.755178 179.064557 
L 222.07207 178.922895 
L 223.33964 176.946182 
L 223.973425 175.726169 
L 224.290318 175.684851 
L 225.240995 173.878054 
L 225.557888 173.600147 
L 226.191673 172.68027 
L 226.508565 172.624711 
L 227.14235 172.997246 
L 227.459243 172.818667 
L 227.776135 173.613953 
L 228.093028 173.754178 
L 228.726813 173.448557 
L 229.043705 172.946524 
L 229.360598 171.791833 
L 229.67749 171.752053 
L 229.994383 171.590635 
L 230.628168 170.697013 
L 231.578845 169.884537 
L 231.895738 169.90959 
L 232.21263 170.338103 
L 232.529523 170.233809 
L 233.163308 169.154339 
L 233.4802 168.800985 
L 233.797093 168.238872 
L 234.113985 168.090551 
L 235.381555 166.350468 
L 236.332233 166.081293 
L 236.649125 165.835992 
L 236.966018 165.77538 
L 237.599803 164.952503 
L 237.916695 164.769756 
L 239.184265 163.081487 
L 239.81805 162.028095 
L 240.451835 160.829439 
L 240.768728 160.644125 
L 241.08562 160.327082 
L 241.402513 159.397307 
L 242.35319 157.456756 
L 242.986975 155.929775 
L 243.303868 155.152101 
L 243.937653 154.842124 
L 244.254545 154.822448 
L 244.88833 154.268795 
L 245.205223 153.868124 
L 245.522115 152.911656 
L 245.839008 152.805486 
L 246.1559 152.254408 
L 246.472793 152.141287 
L 246.789685 152.507813 
L 247.42347 151.985494 
L 247.740363 151.849826 
L 248.057255 151.380035 
L 248.374148 151.18244 
L 248.69104 149.586842 
L 249.007933 149.002404 
L 249.641718 147.244539 
L 249.95861 146.694193 
L 250.275503 146.54791 
L 250.592395 145.547779 
L 250.909288 145.089328 
L 251.22618 144.312088 
L 251.543073 143.023118 
L 252.49375 141.16198 
L 253.127535 140.070852 
L 253.444428 139.79775 
L 254.078213 138.941199 
L 254.395105 138.887446 
L 254.711998 138.320569 
L 255.02889 138.00743 
L 255.662675 136.124292 
L 255.979568 135.414132 
L 256.613353 135.612485 
L 257.247138 134.378397 
L 257.56403 134.253335 
L 257.880922 133.958955 
L 258.197815 134.095929 
L 258.514707 134.025946 
L 258.8316 134.33566 
L 259.782278 134.262014 
L 260.09917 134.515256 
L 260.416063 134.286118 
L 260.732955 134.498571 
L 261.36674 135.55715 
L 261.683633 135.775429 
L 262.000525 135.85508 
L 262.317418 136.099029 
L 262.63431 135.996201 
L 262.951203 136.174771 
L 263.584988 135.65516 
L 264.218773 136.24227 
L 264.852557 135.410522 
L 265.16945 135.573083 
L 265.486343 135.541166 
L 265.803235 135.266851 
L 266.120128 134.639191 
L 266.43702 134.276596 
L 267.070805 134.575147 
L 268.655268 131.511049 
L 268.97216 131.35466 
L 269.289053 130.876319 
L 269.922838 130.329876 
L 270.556623 129.656868 
L 270.873515 130.110373 
L 271.190407 130.867891 
L 271.5073 130.669012 
L 271.824193 130.838649 
L 272.141085 131.446708 
L 272.77487 131.657798 
L 273.091763 132.044052 
L 273.725548 132.33895 
L 274.04244 132.423332 
L 274.359333 133.14257 
L 274.993118 133.625762 
L 275.31001 133.549098 
L 275.626903 133.68757 
L 275.943795 133.596436 
L 276.260688 133.328556 
L 276.57758 133.348329 
L 276.894473 133.485674 
L 277.211365 133.362299 
L 277.528257 132.597607 
L 278.162042 131.554137 
L 278.478935 131.066407 
L 278.795828 130.327735 
L 279.429613 129.986278 
L 279.746505 129.556258 
L 280.063398 129.31813 
L 280.697183 129.110874 
L 281.014075 128.887637 
L 281.64786 128.201238 
L 282.281645 128.38833 
L 282.598538 128.766274 
L 282.91543 128.407648 
L 283.549215 127.128116 
L 283.866107 126.106557 
L 284.183 125.639454 
L 284.816785 123.978547 
L 287.035033 116.316539 
L 287.351925 115.786208 
L 287.668818 115.574408 
L 288.302603 113.998213 
L 289.570173 109.467535 
L 290.203958 107.698903 
L 292.739098 97.176066 
L 293.372883 94.32115 
L 293.689775 93.439229 
L 294.957345 87.71258 
L 296.224915 82.425783 
L 296.541808 82.245641 
L 297.175592 80.471018 
L 297.492485 80.181735 
L 298.443163 76.974217 
L 298.760055 76.255984 
L 299.076948 75.104449 
L 299.710733 73.467302 
L 300.344518 71.04187 
L 300.66141 70.526579 
L 300.978303 70.239208 
L 301.295195 69.762653 
L 301.612088 69.75221 
L 301.92898 69.442107 
L 302.879658 66.969601 
L 303.19655 66.455812 
L 303.513442 66.338877 
L 303.830335 65.780728 
L 304.147227 65.489245 
L 304.46412 65.415466 
L 304.781013 65.038746 
L 305.414798 63.356241 
L 305.73169 63.344573 
L 306.048583 62.492231 
L 306.365475 61.961602 
L 307.316153 59.687736 
L 307.949938 58.553839 
L 308.26683 58.451389 
L 308.583723 58.068905 
L 308.900615 58.400654 
L 309.217508 58.438851 
L 309.851292 58.053608 
L 310.168185 58.173705 
L 310.80197 59.212815 
L 311.118863 59.831349 
L 311.435755 60.070399 
L 311.752648 59.483351 
L 312.06954 59.260724 
L 312.703325 59.995732 
L 313.654003 59.798248 
L 313.970895 59.66696 
L 314.60468 59.036795 
L 315.238465 57.456715 
L 315.555358 57.307905 
L 316.506035 55.959872 
L 316.822927 55.778972 
L 317.13982 55.461765 
L 317.456713 55.411769 
L 317.773605 55.677563 
L 318.090498 55.426351 
L 318.40739 55.787569 
L 318.724283 56.479129 
L 319.041175 56.663077 
L 320.308745 55.021413 
L 320.625638 54.984564 
L 320.94253 55.253038 
L 321.259423 54.787214 
L 321.576315 53.755226 
L 321.893208 53.138444 
L 322.526993 51.459596 
L 323.160777 50.413042 
L 323.47767 49.858188 
L 323.794563 48.960683 
L 324.74524 47.790185 
L 325.062133 48.066218 
L 325.695918 46.996215 
L 326.01281 46.527274 
L 326.329703 46.527445 
L 326.646595 46.664391 
L 326.963488 46.327889 
L 327.28038 46.335581 
L 327.914165 45.608087 
L 328.231058 45.112817 
L 329.498627 43.924359 
L 329.81552 43.91929 
L 330.132413 44.253153 
L 330.449305 43.619889 
L 330.766198 43.858917 
L 331.08309 43.458942 
L 331.399983 43.415062 
L 332.033768 42.448653 
L 332.35066 42.306918 
L 332.984445 42.413925 
L 333.61823 41.645769 
L 334.8858 43.59956 
L 335.836478 44.564098 
L 336.470262 44.70632 
L 337.42094 44.054345 
L 337.737833 44.318814 
L 338.054725 44.929357 
L 338.371618 45.291114 
L 338.68851 45.46679 
L 339.322295 45.194922 
L 339.95608 45.800715 
L 340.272973 45.824483 
L 340.589865 46.302205 
L 340.906758 47.058187 
L 341.540543 47.974916 
L 342.174328 49.437813 
L 342.49122 50.033886 
L 343.125005 50.411239 
L 343.441898 50.372701 
L 343.75879 50.699055 
L 344.392575 51.744813 
L 344.709468 51.451443 
L 345.343253 51.431149 
L 345.660145 51.45684 
L 345.977038 51.197567 
L 346.29393 51.235566 
L 346.927715 52.402193 
L 347.244608 52.574866 
L 347.878393 53.624522 
L 348.195285 54.233356 
L 348.512178 54.472803 
L 348.82907 55.109886 
L 349.462855 55.742294 
L 349.779748 55.689545 
L 350.413533 57.345865 
L 350.730425 57.68125 
L 351.047318 57.699319 
L 351.997995 58.04232 
L 352.314888 57.936607 
L 352.63178 57.531002 
L 353.265565 57.702318 
L 353.582458 58.024563 
L 353.89935 58.989533 
L 355.16692 60.810353 
L 355.483813 60.758956 
L 355.800705 61.156098 
L 356.43449 61.324644 
L 357.068275 62.614914 
L 357.385168 62.532277 
L 358.018953 63.438926 
L 358.335845 63.240799 
L 358.652738 62.866346 
L 358.96963 62.250638 
L 359.603415 62.473885 
L 359.920308 61.968051 
L 360.2372 61.832492 
L 360.554093 61.880059 
L 360.870985 61.408021 
L 361.187878 61.554344 
L 361.50477 61.11109 
L 361.821663 61.275811 
L 362.138555 61.608386 
L 362.77234 63.001331 
L 363.089233 63.068722 
L 363.406125 63.278035 
L 363.723018 63.67837 
L 364.990588 67.258703 
L 365.30748 67.557276 
L 365.624373 67.545417 
L 365.941265 67.709897 
L 366.57505 67.716816 
L 366.891943 67.974822 
L 367.525728 68.876805 
L 367.84262 68.954105 
L 368.159513 69.317953 
L 368.476405 69.911885 
L 368.793298 70.003155 
L 369.427083 68.012738 
L 370.37776 66.008987 
L 371.011545 63.802137 
L 371.328438 63.11359 
L 371.64533 62.770566 
L 371.962223 62.252156 
L 372.279115 62.112214 
L 372.9129 60.355806 
L 373.229793 60.195637 
L 373.546685 60.243953 
L 373.863578 60.010821 
L 374.497363 60.976744 
L 374.814255 60.7536 
L 375.131148 61.034593 
L 375.44804 61.605539 
L 375.764933 61.608131 
L 376.081825 61.849673 
L 376.398718 61.670545 
L 377.032503 61.610473 
L 377.349395 61.957575 
L 377.98318 63.112075 
L 378.300073 63.39006 
L 378.616965 64.066138 
L 378.933858 64.112715 
L 380.201428 63.633248 
L 380.51832 63.145988 
L 381.152105 62.775153 
L 381.468998 62.490598 
L 381.78589 61.893731 
L 383.05346 61.22633 
L 383.370353 61.358982 
L 384.004138 60.987884 
L 384.32103 60.427694 
L 384.954815 60.805119 
L 385.271708 60.930565 
L 385.5886 60.833287 
L 385.905493 60.189419 
L 386.222385 60.048093 
L 386.539278 60.183394 
L 386.85617 60.078033 
L 387.173063 60.379639 
L 387.489955 60.214295 
L 387.806848 59.832788 
L 388.12374 59.861592 
L 389.074418 60.359975 
L 389.39131 60.60849 
L 389.708203 60.674925 
L 390.341988 61.169734 
L 391.292665 62.953677 
L 391.92645 63.709211 
L 392.560235 63.900188 
L 393.19402 64.566076 
L 393.510913 64.894663 
L 393.827805 64.864984 
L 394.46159 63.653435 
L 395.412268 61.009804 
L 395.72916 60.744005 
L 396.046053 60.697775 
L 396.362945 59.85337 
L 396.99673 58.986512 
L 397.313623 59.213173 
L 397.947408 60.130812 
L 398.2643 60.133683 
L 398.581193 60.34998 
L 398.898085 60.084432 
L 399.214978 60.16828 
L 399.848763 61.429046 
L 401.116333 63.369936 
L 401.750118 64.700426 
L 402.06701 64.923515 
L 402.383903 65.338987 
L 403.017688 65.47825 
L 403.651473 66.367409 
L 404.285258 67.668838 
L 404.60215 67.839683 
L 404.919043 68.36079 
L 405.552828 68.707507 
L 405.86972 68.691113 
L 406.503505 69.373183 
L 406.820398 69.256987 
L 407.771075 70.666202 
L 408.087968 71.095857 
L 408.40486 71.886711 
L 409.355538 72.563353 
L 409.989323 72.778298 
L 410.306215 73.10263 
L 410.623108 74.257404 
L 410.623108 74.257404 
" clip-path="url(#p40532bfa7f)" style="fill: none; stroke: #1f77b4; stroke-width: 1.5; stroke-linecap: square"/>
   </g>
   <g id="patch_3">
    <path d="M 94.0475 266.245 
L 94.0475 30.950567 
" style="fill: none; stroke: #000000; stroke-width: 0.8; stroke-linejoin: miter; stroke-linecap: square"/>
   </g>
   <g id="patch_4">
    <path d="M 410.94 266.245 
L 410.94 30.950567 
" style="fill: none; stroke: #000000; stroke-width: 0.8; stroke-linejoin: miter; stroke-linecap: square"/>
   </g>
   <g id="patch_5">
    <path d="M 94.0475 266.245 
L 410.94 266.245 
" style="fill: none; stroke: #000000; stroke-width: 0.8; stroke-linejoin: miter; stroke-linecap: square"/>
   </g>
   <g id="patch_6">
    <path d="M 94.0475 30.950567 
L 410.94 30.950567 
" style="fill: none; stroke: #000000; stroke-width: 0.8; stroke-linejoin: miter; stroke-linecap: square"/>
   </g>
  </g>
 </g>
 <defs>
  <clipPath id="p40532bfa7f">
   <rect x="94.0475" y="30.950567" width="316.8925" height="235.294433"/>
  </clipPath>
 </defs>
</svg>
