<?xml version="1.0" encoding="utf-8" standalone="no"?>
<!DOCTYPE svg PUBLIC "-//W3C//DTD SVG 1.1//EN"
  "http://www.w3.org/Graphics/SVG/1.1/DTD/svg11.dtd">
<svg xmlns:xlink="http://www.w3.org/1999/xlink" width="460.8pt" height="345.6pt" viewBox="0 0 460.8 345.6" xmlns="http://www.w3.org/2000/svg" version="1.1">
 <metadata>
  <rdf:RDF xmlns:dc="http://purl.org/dc/elements/1.1/" xmlns:cc="http://creativecommons.org/ns#" xmlns:rdf="http://www.w3.org/1999/02/22-rdf-syntax-ns#">
   <cc:Work>
    <dc:type rdf:resource="http://purl.org/dc/dcmitype/StillImage"/>
    <dc:date>2026-01-28T11:01:57.592885</dc:date>
    <dc:format>image/svg+xml</dc:format>
    <dc:creator>
     <cc:Agent>
      <dc:title>Matplotlib v3.10.8, https://matplotlib.org/</dc:title>
     </cc:Agent>
    </dc:creator>
   </cc:Work>
  </rdf:RDF>
 </metadata>
 <defs>
  <style type="text/css">*{stroke-linejoin: round; stroke-linecap: butt}</style>
 </defs>
 <g id="figure_1">
  <g id="patch_1">
   <path d="M 0 345.6 
L 460.8 345.6 
L 460.8 0 
L 0 0 
z
" style="fill: #ffffff"/>
  </g>
  <g id="axes_1">
   <g id="patch_2">
    <path d="M 68.83 266.245 
L 410.94 266.245 
L 410.94 25.92 
L 68.83 25.92 
z
" style="fill: #ffffff"/>
   </g>
   <g id="matplotlib.axis_1">
    <g id="xtick_1">
     <g id="line2d_1">
      <path d="M 68.83 266.245 
L 68.83 25.92 
" clip-path="url(#pb7a250149a)" style="fill: none; stroke: #b0b0b0; stroke-width: 0.8; stroke-linecap: square"/>
     </g>
     <g id="line2d_2">
      <defs>
       <path id="m69cffb67d0" d="M 0 0 
L 0 3.5 
" style="stroke: #000000; stroke-width: 0.8"/>
      </defs>
      <g>
       <use xlink:href="#m69cffb67d0" x="68.83" y="266.245" style="stroke: #000000; stroke-width: 0.8"/>
      </g>
     </g>
     <g id="text_1">
      <!-- 0 -->
      <g transform="translate(62.83 289.63625) scale(0.24 -0.24)">
       <defs>
        <path id="TeXGyreTermes-Regular-30" d="M 3046 2112 
C 3046 3424 2464 4326 1626 4326 
C 1274 4326 1005 4218 768 3994 
C 397 3635 154 2899 154 2150 
C 154 1453 365 704 666 346 
C 902 64 1229 -90 1600 -90 
C 1926 -90 2202 19 2432 243 
C 2803 595 3046 1338 3046 2112 
z
M 2432 2099 
C 2432 762 2150 77 1600 77 
C 1050 77 768 762 768 2093 
C 768 3450 1056 4160 1606 4160 
C 2144 4160 2432 3437 2432 2099 
z
" transform="scale(0.015625)"/>
       </defs>
       <use xlink:href="#TeXGyreTermes-Regular-30"/>
      </g>
     </g>
    </g>
    <g id="xtick_2">
     <g id="line2d_3">
      <path d="M 154.3575 266.245 
L 154.3575 25.92 
" clip-path="url(#pb7a250149a)" style="fill: none; stroke: #b0b0b0; stroke-width: 0.8; stroke-linecap: square"/>
     </g>
     <g id="line2d_4">
      <g>
       <use xlink:href="#m69cffb67d0" x="154.3575" y="266.245" style="stroke: #000000; stroke-width: 0.8"/>
      </g>
     </g>
     <g id="text_2">
      <!-- 250 -->
      <g transform="translate(136.3575 289.63625) scale(0.24 -0.24)">
       <defs>
        <path id="TeXGyreTermes-Regular-32" d="M 3040 877 
L 2957 909 
C 2720 544 2637 486 2349 486 
L 819 486 
L 1894 1613 
C 2464 2208 2714 2694 2714 3194 
C 2714 3834 2195 4326 1530 4326 
C 1178 4326 845 4186 608 3930 
C 403 3712 307 3507 198 3053 
L 333 3021 
C 589 3648 819 3853 1261 3853 
C 1798 3853 2163 3488 2163 2950 
C 2163 2451 1869 1856 1331 1286 
L 192 77 
L 192 0 
L 2688 0 
L 3040 877 
z
" transform="scale(0.015625)"/>
        <path id="TeXGyreTermes-Regular-35" d="M 2803 4358 
L 2746 4403 
C 2650 4269 2586 4237 2451 4237 
L 1114 4237 
L 416 2720 
C 410 2707 410 2688 410 2688 
C 410 2656 435 2637 486 2637 
C 691 2637 947 2592 1210 2509 
C 1946 2272 2285 1875 2285 1242 
C 2285 627 1894 147 1395 147 
C 1267 147 1158 192 966 333 
C 762 480 614 544 480 544 
C 294 544 205 467 205 307 
C 205 64 506 -90 986 -90 
C 1523 -90 1984 83 2304 410 
C 2598 698 2733 1062 2733 1549 
C 2733 2010 2611 2304 2291 2624 
C 2010 2906 1645 3053 890 3187 
L 1158 3731 
L 2413 3731 
C 2515 3731 2541 3744 2560 3789 
L 2803 4358 
z
" transform="scale(0.015625)"/>
       </defs>
       <use xlink:href="#TeXGyreTermes-Regular-32"/>
       <use xlink:href="#TeXGyreTermes-Regular-35" transform="translate(49.999985 0)"/>
       <use xlink:href="#TeXGyreTermes-Regular-30" transform="translate(99.999969 0)"/>
      </g>
     </g>
    </g>
    <g id="xtick_3">
     <g id="line2d_5">
      <path d="M 239.885 266.245 
L 239.885 25.92 
" clip-path="url(#pb7a250149a)" style="fill: none; stroke: #b0b0b0; stroke-width: 0.8; stroke-linecap: square"/>
     </g>
     <g id="line2d_6">
      <g>
       <use xlink:href="#m69cffb67d0" x="239.885" y="266.245" style="stroke: #000000; stroke-width: 0.8"/>
      </g>
     </g>
     <g id="text_3">
      <!-- 500 -->
      <g transform="translate(221.885 289.63625) scale(0.24 -0.24)">
       <use xlink:href="#TeXGyreTermes-Regular-35"/>
       <use xlink:href="#TeXGyreTermes-Regular-30" transform="translate(49.999985 0)"/>
       <use xlink:href="#TeXGyreTermes-Regular-30" transform="translate(99.999969 0)"/>
      </g>
     </g>
    </g>
    <g id="xtick_4">
     <g id="line2d_7">
      <path d="M 325.4125 266.245 
L 325.4125 25.92 
" clip-path="url(#pb7a250149a)" style="fill: none; stroke: #b0b0b0; stroke-width: 0.8; stroke-linecap: square"/>
     </g>
     <g id="line2d_8">
      <g>
       <use xlink:href="#m69cffb67d0" x="325.4125" y="266.245" style="stroke: #000000; stroke-width: 0.8"/>
      </g>
     </g>
     <g id="text_4">
      <!-- 750 -->
      <g transform="translate(307.4125 289.63625) scale(0.24 -0.24)">
       <defs>
        <path id="TeXGyreTermes-Regular-37" d="M 2874 4134 
L 2874 4237 
L 506 4237 
L 128 3296 
L 237 3245 
C 512 3680 627 3763 979 3763 
L 2368 3763 
L 1101 -51 
L 1517 -51 
L 2874 4134 
z
" transform="scale(0.015625)"/>
       </defs>
       <use xlink:href="#TeXGyreTermes-Regular-37"/>
       <use xlink:href="#TeXGyreTermes-Regular-35" transform="translate(49.999985 0)"/>
       <use xlink:href="#TeXGyreTermes-Regular-30" transform="translate(99.999969 0)"/>
      </g>
     </g>
    </g>
    <g id="xtick_5">
     <g id="line2d_9">
      <path d="M 410.94 266.245 
L 410.94 25.92 
" clip-path="url(#pb7a250149a)" style="fill: none; stroke: #b0b0b0; stroke-width: 0.8; stroke-linecap: square"/>
     </g>
     <g id="line2d_10">
      <g>
       <use xlink:href="#m69cffb67d0" x="410.94" y="266.245" style="stroke: #000000; stroke-width: 0.8"/>
      </g>
     </g>
     <g id="text_5">
      <!-- 1000 -->
      <g transform="translate(386.94 289.63625) scale(0.24 -0.24)">
       <defs>
        <path id="TeXGyreTermes-Regular-31" d="M 2522 0 
L 2522 96 
C 2016 102 1914 166 1914 474 
L 1914 4314 
L 1862 4326 
L 710 3744 
L 710 3654 
C 787 3686 858 3712 883 3725 
C 998 3770 1107 3795 1171 3795 
C 1306 3795 1363 3699 1363 3494 
L 1363 595 
C 1363 384 1312 237 1210 179 
C 1114 122 1024 102 755 96 
L 755 0 
L 2522 0 
z
" transform="scale(0.015625)"/>
       </defs>
       <use xlink:href="#TeXGyreTermes-Regular-31"/>
       <use xlink:href="#TeXGyreTermes-Regular-30" transform="translate(49.999985 0)"/>
       <use xlink:href="#TeXGyreTermes-Regular-30" transform="translate(99.999969 0)"/>
       <use xlink:href="#TeXGyreTermes-Regular-30" transform="translate(149.999954 0)"/>
      </g>
     </g>
    </g>
    <g id="text_6">
     <!-- Schritt k -->
     <g transform="translate(198.8825 315.23625) scale(0.24 -0.24)">
      <defs>
       <path id="TeXGyreTermes-Regular-53" d="M 3142 1075 
C 3142 1606 2790 2016 1946 2477 
C 1274 2842 1005 3123 1005 3475 
C 1005 3827 1274 4064 1670 4064 
C 1958 4064 2227 3942 2451 3712 
C 2650 3507 2739 3341 2842 2963 
L 3002 2963 
L 2861 4326 
L 2726 4326 
C 2701 4186 2630 4109 2522 4109 
C 2458 4109 2355 4134 2240 4186 
C 2003 4275 1773 4326 1549 4326 
C 1299 4326 1030 4224 826 4058 
C 576 3853 454 3578 454 3226 
C 454 2720 736 2362 1453 1984 
C 1914 1734 2246 1478 2406 1235 
C 2464 1146 2496 1018 2496 858 
C 2496 435 2176 141 1709 141 
C 1133 141 736 493 416 1274 
L 269 1274 
L 461 -83 
L 602 -83 
C 608 38 685 128 781 128 
C 851 128 960 102 1082 58 
C 1325 -38 1581 -90 1837 -90 
C 2579 -90 3142 416 3142 1075 
z
" transform="scale(0.015625)"/>
       <path id="TeXGyreTermes-Regular-63" d="M 2637 941 
L 2547 998 
C 2240 550 2010 397 1645 397 
C 1056 397 653 909 653 1645 
C 653 2310 1005 2758 1523 2758 
C 1754 2758 1837 2688 1901 2451 
L 1939 2310 
C 1990 2125 2106 2016 2246 2016 
C 2413 2016 2547 2138 2547 2285 
C 2547 2643 2099 2944 1562 2944 
C 1261 2944 954 2829 698 2618 
C 352 2330 160 1888 160 1357 
C 160 531 666 -64 1376 -64 
C 1651 -64 1894 26 2112 205 
C 2304 358 2432 544 2637 941 
z
" transform="scale(0.015625)"/>
       <path id="TeXGyreTermes-Regular-68" d="M 3117 0 
L 3117 96 
C 2771 160 2733 211 2733 653 
L 2733 1926 
C 2733 2598 2464 2944 1946 2944 
C 1568 2944 1299 2790 1005 2406 
L 1005 4352 
L 973 4371 
C 755 4294 595 4243 237 4141 
L 64 4090 
L 64 3987 
C 90 3994 109 3994 141 3994 
C 416 3994 467 3942 467 3667 
L 467 653 
C 467 205 429 147 58 96 
L 58 0 
L 1440 0 
L 1440 96 
C 1069 134 1005 211 1005 653 
L 1005 2195 
C 1274 2490 1466 2598 1715 2598 
C 2035 2598 2195 2368 2195 1920 
L 2195 653 
C 2195 218 2131 134 1760 96 
L 1760 0 
L 3117 0 
z
" transform="scale(0.015625)"/>
       <path id="TeXGyreTermes-Regular-72" d="M 2144 2605 
C 2144 2816 2010 2944 1792 2944 
C 1523 2944 1338 2797 1024 2342 
L 1024 2931 
L 992 2944 
C 653 2803 422 2720 45 2598 
L 45 2496 
C 134 2515 192 2522 269 2522 
C 429 2522 486 2419 486 2138 
L 486 538 
C 486 218 442 173 32 96 
L 32 0 
L 1568 0 
L 1568 96 
C 1133 115 1024 211 1024 576 
L 1024 2016 
C 1024 2221 1299 2541 1472 2541 
C 1510 2541 1568 2509 1638 2445 
C 1741 2355 1811 2317 1894 2317 
C 2048 2317 2144 2426 2144 2605 
z
" transform="scale(0.015625)"/>
       <path id="TeXGyreTermes-Regular-69" d="M 1619 0 
L 1619 96 
C 1197 128 1146 192 1146 653 
L 1146 2925 
L 1120 2944 
L 128 2592 
L 128 2496 
L 179 2502 
C 256 2515 339 2522 397 2522 
C 550 2522 608 2419 608 2138 
L 608 653 
C 608 192 544 122 102 96 
L 102 0 
L 1619 0 
z
M 1203 3776 
C 1203 3955 1062 4102 877 4102 
C 698 4102 550 3955 550 3776 
C 550 3590 698 3450 877 3450 
C 1062 3450 1203 3590 1203 3776 
z
" transform="scale(0.015625)"/>
       <path id="TeXGyreTermes-Regular-74" d="M 1786 422 
L 1702 493 
C 1562 326 1459 269 1318 269 
C 1082 269 986 435 986 845 
L 986 2675 
L 1632 2675 
L 1632 2880 
L 986 2880 
L 986 3622 
C 986 3686 973 3706 941 3706 
C 902 3642 858 3584 813 3526 
C 576 3174 358 2938 192 2842 
C 122 2797 83 2758 83 2720 
C 83 2701 90 2688 109 2675 
L 448 2675 
L 448 749 
C 448 211 640 -64 1011 -64 
C 1331 -64 1574 90 1786 422 
z
" transform="scale(0.015625)"/>
       <path id="TeXGyreTermes-Regular-20" transform="scale(0.015625)"/>
       <path id="TeXGyreTermes-Regular-6b" d="M 3232 0 
L 3232 96 
C 2950 115 2752 237 2483 563 
L 1504 1805 
L 1690 1978 
C 2144 2400 2541 2694 2726 2746 
C 2822 2771 2912 2784 3021 2784 
L 3072 2784 
L 3072 2880 
L 1766 2880 
L 1766 2790 
C 2016 2784 2086 2758 2086 2669 
C 2086 2618 2029 2528 1939 2451 
L 1062 1670 
L 1062 4358 
L 1037 4371 
L 237 4141 
L 45 4090 
L 45 3987 
C 128 3994 186 4000 250 4000 
C 461 4000 525 3917 525 3610 
L 525 525 
C 525 192 506 173 45 96 
L 45 0 
L 1542 0 
L 1542 96 
L 1414 102 
C 1158 115 1062 205 1062 429 
L 1062 1606 
L 1958 410 
L 1978 384 
C 1990 365 2003 346 2022 326 
C 2074 262 2093 224 2093 192 
C 2093 134 2035 96 1958 96 
L 1837 96 
L 1837 0 
L 3232 0 
z
" transform="scale(0.015625)"/>
      </defs>
      <use xlink:href="#TeXGyreTermes-Regular-53"/>
      <use xlink:href="#TeXGyreTermes-Regular-63" transform="translate(55.599991 0)"/>
      <use xlink:href="#TeXGyreTermes-Regular-68" transform="translate(99.999985 0)"/>
      <use xlink:href="#TeXGyreTermes-Regular-72" transform="translate(149.999969 0)"/>
      <use xlink:href="#TeXGyreTermes-Regular-69" transform="translate(183.299957 0)"/>
      <use xlink:href="#TeXGyreTermes-Regular-74" transform="translate(211.099945 0)"/>
      <use xlink:href="#TeXGyreTermes-Regular-74" transform="translate(238.899933 0)"/>
      <use xlink:href="#TeXGyreTermes-Regular-20" transform="translate(266.699921 0)"/>
      <use xlink:href="#TeXGyreTermes-Regular-6b" transform="translate(291.699905 0)"/>
     </g>
    </g>
   </g>
   <g id="matplotlib.axis_2">
    <g id="ytick_1">
     <g id="line2d_11">
      <path d="M 68.83 211.798223 
L 410.94 211.798223 
" clip-path="url(#pb7a250149a)" style="fill: none; stroke: #b0b0b0; stroke-width: 0.8; stroke-linecap: square"/>
     </g>
     <g id="line2d_12">
      <defs>
       <path id="m4e732b96ce" d="M 0 0 
L -3.5 0 
" style="stroke: #000000; stroke-width: 0.8"/>
      </defs>
      <g>
       <use xlink:href="#m4e732b96ce" x="68.83" y="211.798223" style="stroke: #000000; stroke-width: 0.8"/>
      </g>
     </g>
     <g id="text_7">
      <!-- 0 -->
      <g transform="translate(49.83 219.993848) scale(0.24 -0.24)">
       <use xlink:href="#TeXGyreTermes-Regular-30"/>
      </g>
     </g>
    </g>
    <g id="ytick_2">
     <g id="line2d_13">
      <path d="M 68.83 116.760305 
L 410.94 116.760305 
" clip-path="url(#pb7a250149a)" style="fill: none; stroke: #b0b0b0; stroke-width: 0.8; stroke-linecap: square"/>
     </g>
     <g id="line2d_14">
      <g>
       <use xlink:href="#m4e732b96ce" x="68.83" y="116.760305" style="stroke: #000000; stroke-width: 0.8"/>
      </g>
     </g>
     <g id="text_8">
      <!-- 100 -->
      <g transform="translate(25.83 124.95593) scale(0.24 -0.24)">
       <use xlink:href="#TeXGyreTermes-Regular-31"/>
       <use xlink:href="#TeXGyreTermes-Regular-30" transform="translate(49.999985 0)"/>
       <use xlink:href="#TeXGyreTermes-Regular-30" transform="translate(99.999969 0)"/>
      </g>
     </g>
    </g>
   </g>
   <g id="line2d_15">
    <path d="M 68.83 211.798223 
L 69.17211 213.042209 
L 69.51422 213.127944 
L 69.85633 212.404804 
L 70.19844 212.680769 
L 70.54055 211.918953 
L 70.88266 211.754293 
L 72.59321 220.06841 
L 73.27743 225.333746 
L 73.61954 226.830793 
L 74.30376 231.05695 
L 74.64587 231.038714 
L 74.98798 231.986171 
L 75.33009 231.913906 
L 75.6722 231.528018 
L 76.01431 230.93948 
L 76.35642 230.618975 
L 76.69853 230.490754 
L 77.38275 230.902449 
L 78.40908 232.666565 
L 78.75119 231.935431 
L 79.0933 231.990573 
L 79.43541 231.368727 
L 80.11963 228.870142 
L 80.46174 228.438196 
L 80.80385 228.27791 
L 81.48807 229.735448 
L 81.83018 228.579274 
L 82.17229 226.356651 
L 82.85651 224.303988 
L 83.19862 224.867427 
L 83.54073 224.655211 
L 83.88284 225.010209 
L 84.22495 224.091788 
L 84.90917 225.180822 
L 85.25128 225.800179 
L 85.59339 226.750126 
L 85.9355 228.513025 
L 87.30394 237.964613 
L 87.98816 245.551976 
L 88.33027 246.872292 
L 88.67238 249.172675 
L 89.3566 254.889609 
L 89.69871 255.233491 
L 90.04082 255.321136 
L 90.38293 254.659563 
L 90.72504 253.320752 
L 91.06715 253.058907 
L 92.09348 249.936769 
L 92.43559 249.501726 
L 92.7777 248.778251 
L 93.46192 246.291811 
L 93.80403 245.863729 
L 94.14614 243.489254 
L 94.48825 243.457329 
L 94.83036 242.968509 
L 95.51458 243.380698 
L 95.85669 241.985385 
L 96.1988 242.343406 
L 96.54091 241.239879 
L 96.88302 241.368659 
L 97.22513 241.374005 
L 97.56724 239.934418 
L 97.90935 240.226189 
L 98.59357 234.771699 
L 98.93568 231.490542 
L 99.27779 229.559301 
L 99.96201 224.419034 
L 100.30412 224.071718 
L 100.64623 225.146135 
L 100.98834 224.715913 
L 101.33045 224.746698 
L 101.67256 224.931295 
L 102.01467 225.723245 
L 102.35678 224.721121 
L 102.69889 221.877893 
L 103.38311 219.255134 
L 104.06733 219.078748 
L 104.75155 214.072147 
L 105.09366 213.901244 
L 105.43577 215.819476 
L 105.77788 216.344955 
L 106.11999 215.424178 
L 106.4621 216.360489 
L 107.14632 212.502968 
L 107.83054 210.818209 
L 108.51476 209.041442 
L 109.19898 210.774403 
L 109.54109 211.93613 
L 109.8832 211.24804 
L 110.56742 212.45619 
L 110.90953 212.071853 
L 111.93586 209.521612 
L 112.27797 209.22552 
L 112.62008 208.486035 
L 113.3043 205.250156 
L 113.64641 204.622955 
L 114.33063 202.897555 
L 115.01485 204.925919 
L 115.35696 204.914201 
L 115.69907 205.627161 
L 116.04118 205.529905 
L 117.40962 199.214091 
L 117.75173 196.912552 
L 118.09384 196.317849 
L 118.77806 197.424117 
L 119.12017 197.359855 
L 119.46228 197.79019 
L 119.80439 200.540383 
L 120.1465 200.763235 
L 120.48861 202.40245 
L 121.17283 207.589222 
L 121.51494 210.387691 
L 121.85705 210.862888 
L 122.19916 212.128802 
L 122.54127 213.828967 
L 122.88338 214.779305 
L 123.22549 215.174982 
L 123.90971 214.047925 
L 124.25182 213.527031 
L 124.59393 213.423261 
L 125.27815 211.503588 
L 125.62026 211.600325 
L 125.96237 212.227306 
L 127.67292 207.917517 
L 128.35714 204.544168 
L 128.69925 203.160702 
L 129.72558 201.861822 
L 130.06769 200.355037 
L 130.4098 199.653734 
L 130.75191 198.471403 
L 131.09402 196.376439 
L 132.12035 192.404599 
L 132.80457 189.178065 
L 133.14668 187.792256 
L 133.8309 187.398566 
L 134.17301 187.440873 
L 134.51512 188.244317 
L 134.85723 186.881315 
L 135.19934 186.838013 
L 135.54145 186.340418 
L 136.22567 182.94735 
L 136.56778 182.302896 
L 136.90989 184.26141 
L 137.252 185.107975 
L 137.59411 186.48783 
L 137.93622 187.287405 
L 138.27833 187.625678 
L 139.30466 189.366039 
L 139.64677 189.031181 
L 139.98888 188.506775 
L 140.33099 188.40905 
L 140.6731 188.581478 
L 141.01521 187.891978 
L 141.35732 187.502169 
L 141.69943 187.887739 
L 142.04154 187.509993 
L 142.38365 187.586675 
L 142.72576 185.815749 
L 143.06787 185.166719 
L 143.40998 185.820683 
L 144.0942 184.453899 
L 144.43631 184.928973 
L 145.12053 182.127992 
L 145.46264 179.569722 
L 145.80475 177.907308 
L 146.14686 177.751487 
L 146.48897 178.577831 
L 146.83108 177.585337 
L 147.17319 178.941373 
L 147.5153 179.456406 
L 147.85741 179.043074 
L 148.19952 179.391709 
L 148.54163 178.255525 
L 149.22585 179.08492 
L 149.56796 179.191295 
L 150.25218 182.0337 
L 150.59429 181.924245 
L 150.9364 182.259099 
L 151.27851 183.361867 
L 151.62062 185.364175 
L 152.30484 191.488374 
L 152.98906 196.402081 
L 153.33117 198.027836 
L 153.67328 201.185758 
L 155.04172 206.074328 
L 155.38383 206.470225 
L 155.72594 205.964456 
L 156.06805 206.870187 
L 156.41016 206.939095 
L 156.75227 207.241783 
L 157.09438 207.341429 
L 157.43649 206.888935 
L 157.7786 206.068322 
L 158.12071 204.769207 
L 158.46282 202.772306 
L 158.80493 201.665244 
L 159.48915 197.848361 
L 159.83126 194.865622 
L 160.17337 194.058055 
L 161.1997 190.824292 
L 161.54181 189.014061 
L 161.88392 186.081489 
L 162.22603 184.794237 
L 162.91025 180.756082 
L 163.25236 180.155262 
L 163.59447 180.430053 
L 163.93658 181.767009 
L 164.27869 180.942901 
L 164.6208 180.646119 
L 164.96291 181.850729 
L 165.30502 180.346999 
L 165.64713 177.967166 
L 165.98924 177.75465 
L 166.67346 179.634271 
L 167.35768 179.6396 
L 167.69979 179.947538 
L 168.38401 181.864035 
L 168.72612 181.979582 
L 169.06823 181.900579 
L 169.41034 182.313174 
L 169.75245 183.190062 
L 170.43667 181.534989 
L 170.77878 183.041156 
L 171.463 182.048885 
L 171.80511 181.203319 
L 172.14722 180.750707 
L 172.48933 181.563506 
L 172.83144 181.504912 
L 173.17355 179.949232 
L 173.51566 179.340652 
L 173.85777 180.406537 
L 174.19988 178.467542 
L 174.8841 172.735055 
L 175.56832 169.811787 
L 175.91043 169.412902 
L 177.27887 164.529275 
L 177.62098 165.92166 
L 177.96309 166.422399 
L 178.3052 166.265464 
L 178.64731 164.553836 
L 178.98942 166.297199 
L 179.33153 165.841442 
L 180.01575 166.434288 
L 180.35786 166.878415 
L 180.69997 167.007347 
L 181.04208 168.052602 
L 181.38419 168.193836 
L 181.7263 165.907421 
L 182.06841 164.649949 
L 182.75263 166.2584 
L 183.09474 166.543537 
L 183.43685 167.659146 
L 183.77896 166.352445 
L 184.12107 166.585653 
L 184.46318 167.505677 
L 184.80529 168.024683 
L 185.1474 169.148333 
L 185.48951 169.497525 
L 185.83162 168.711629 
L 186.17373 166.888021 
L 186.51584 166.972906 
L 186.85795 168.100747 
L 187.20006 167.366867 
L 187.88428 164.818886 
L 188.22639 162.844947 
L 188.5685 162.176938 
L 188.91061 162.332153 
L 189.25272 161.979416 
L 189.59483 161.867127 
L 189.93694 161.217937 
L 190.62116 161.785346 
L 190.96327 162.789822 
L 191.30538 162.964773 
L 192.33171 167.111308 
L 192.67382 166.648022 
L 193.35804 165.03003 
L 193.70015 164.310987 
L 194.04226 165.852964 
L 194.38437 165.684305 
L 194.72648 166.648225 
L 195.06859 166.822043 
L 195.4107 167.593702 
L 195.75281 167.606882 
L 196.09492 169.124758 
L 196.43703 168.933626 
L 197.12125 166.13387 
L 197.46336 166.028717 
L 198.14758 163.903304 
L 198.48969 161.476729 
L 199.17391 158.881389 
L 199.51602 159.420415 
L 199.85813 161.377008 
L 200.54235 167.039345 
L 200.88446 167.1922 
L 201.22657 166.518903 
L 201.91079 169.167348 
L 202.2529 168.478648 
L 202.93712 164.446931 
L 203.27923 165.227525 
L 203.62134 166.391184 
L 203.96345 165.677639 
L 204.30556 165.854484 
L 204.64767 165.840184 
L 205.33189 166.816299 
L 206.01611 166.343651 
L 206.35822 165.487624 
L 206.70033 163.219136 
L 207.04244 162.980196 
L 208.41088 158.064755 
L 208.75299 156.27066 
L 209.0951 155.143264 
L 209.43721 155.393134 
L 209.77932 154.076421 
L 210.12143 153.284307 
L 210.46354 151.520048 
L 210.80565 151.262903 
L 211.48987 149.731038 
L 211.83198 150.173676 
L 212.5162 152.567411 
L 212.85831 152.735955 
L 213.20042 155.737797 
L 213.54253 156.832497 
L 213.88464 156.882964 
L 214.22675 157.188527 
L 214.56886 156.30103 
L 214.91097 153.42772 
L 215.25308 153.711034 
L 215.59519 153.613115 
L 215.9373 152.354261 
L 216.27941 151.725929 
L 216.62152 151.382777 
L 216.96363 151.45973 
L 217.30574 150.683055 
L 217.64785 151.231669 
L 217.98996 152.968775 
L 218.33207 153.178117 
L 219.01629 151.095223 
L 219.3584 150.585873 
L 219.70051 149.416134 
L 220.04262 149.414859 
L 220.72684 147.541981 
L 221.06895 147.166185 
L 221.41106 146.312252 
L 222.43739 147.179077 
L 222.7795 147.058114 
L 223.12161 147.493165 
L 223.80583 146.30146 
L 224.14794 146.339949 
L 225.17427 144.711297 
L 226.88482 139.351895 
L 227.22693 139.40943 
L 227.56904 139.109084 
L 227.91115 137.066964 
L 228.25326 136.091049 
L 229.27959 131.648128 
L 229.6217 130.622722 
L 229.96381 129.167932 
L 230.64803 129.977994 
L 230.99014 130.843914 
L 231.33225 131.13628 
L 231.67436 131.197341 
L 232.01647 131.025973 
L 232.35858 129.223604 
L 232.70069 129.836666 
L 233.0428 129.132827 
L 233.38491 129.671677 
L 233.72702 131.582895 
L 234.41124 131.827775 
L 234.75335 132.308939 
L 235.09546 131.802814 
L 235.43757 132.016505 
L 235.77968 128.160712 
L 236.12179 127.203461 
L 236.80601 123.525543 
L 237.14812 122.618948 
L 237.49023 122.973198 
L 237.83234 120.901639 
L 238.17445 120.458885 
L 238.51656 119.146877 
L 238.85867 116.388315 
L 239.20078 115.73809 
L 239.54289 114.490472 
L 239.885 113.990603 
L 240.22711 113.200449 
L 240.56922 113.008564 
L 240.91133 113.366831 
L 241.25344 113.233601 
L 241.59555 113.260017 
L 241.93766 114.306505 
L 242.27977 113.866035 
L 242.62188 114.134273 
L 242.96399 112.167859 
L 243.64821 110.022048 
L 244.33243 112.715501 
L 244.67454 111.765637 
L 245.01665 111.339197 
L 245.35876 112.106844 
L 245.70087 112.344995 
L 246.04298 113.766858 
L 246.38509 114.586211 
L 246.7272 116.497984 
L 248.09564 120.695936 
L 248.43775 120.805868 
L 248.77986 122.134905 
L 249.46408 126.470713 
L 249.80619 127.657846 
L 250.1483 128.417322 
L 250.49041 129.600959 
L 250.83252 129.698826 
L 251.17463 130.531284 
L 251.85885 129.506887 
L 252.54307 131.53064 
L 252.88518 130.19921 
L 253.22729 129.382107 
L 253.5694 129.993388 
L 253.91151 130.016409 
L 254.25362 129.304962 
L 254.59573 127.600084 
L 254.93784 126.687713 
L 255.27995 127.374317 
L 255.62206 127.797406 
L 257.33261 119.890676 
L 257.67472 119.66786 
L 258.01683 118.566931 
L 258.35894 118.263849 
L 259.38527 116.639277 
L 259.72738 118.436754 
L 260.06949 121.121675 
L 260.4116 121.05411 
L 260.75371 122.062519 
L 261.09582 124.345626 
L 261.78004 125.804963 
L 262.12215 127.265754 
L 262.80637 128.632689 
L 263.14848 129.042383 
L 263.49059 131.249342 
L 264.17481 132.755717 
L 264.51692 132.541101 
L 264.85903 132.92716 
L 265.20114 132.58355 
L 265.54325 131.689306 
L 265.88536 131.596975 
L 266.22747 131.84449 
L 266.56958 131.330666 
L 266.91169 128.974764 
L 267.2538 127.608296 
L 268.28013 122.01798 
L 268.96435 121.069997 
L 269.30646 119.946356 
L 269.64857 119.440514 
L 270.33279 119.399023 
L 270.6749 119.072588 
L 271.01701 118.260047 
L 271.35912 117.817815 
L 272.04334 119.106332 
L 272.38545 120.574602 
L 272.72756 119.933139 
L 273.41178 117.021905 
L 273.75389 114.424488 
L 274.096 113.374262 
L 274.78022 109.194769 
L 276.83288 93.285591 
L 277.17499 91.042771 
L 277.5171 90.4004 
L 277.85921 90.800317 
L 278.20132 89.881431 
L 278.54343 88.49754 
L 279.56976 81.541653 
L 280.59609 77.912407 
L 281.28031 73.723036 
L 282.30664 68.173092 
L 282.99086 63.498261 
L 283.67508 56.98411 
L 284.01719 55.271494 
L 284.3593 54.583768 
L 285.38563 49.409146 
L 285.72774 46.203201 
L 286.75407 40.087242 
L 287.09618 39.747668 
L 287.43829 41.546577 
L 287.7804 40.900522 
L 288.12251 41.180049 
L 288.46462 42.796663 
L 288.80673 42.050223 
L 289.14884 40.946825 
L 289.49095 40.716325 
L 289.83306 40.954433 
L 290.17517 39.858665 
L 290.51728 40.048395 
L 290.85939 39.531196 
L 291.54361 36.843864 
L 291.88572 37.493694 
L 292.22783 38.770861 
L 292.56994 39.483432 
L 292.91205 41.546106 
L 293.25416 42.760615 
L 293.93838 41.567164 
L 294.28049 41.647521 
L 294.6226 42.0163 
L 294.96471 43.45268 
L 295.30682 43.588705 
L 295.64893 44.481832 
L 295.99104 45.977809 
L 296.33315 46.562426 
L 297.01737 44.872804 
L 297.35948 46.352159 
L 297.70159 45.330372 
L 298.0437 45.185619 
L 298.38581 44.143626 
L 299.07003 42.713211 
L 299.75425 42.080896 
L 300.09636 43.11054 
L 300.43847 43.335738 
L 300.78058 45.630682 
L 301.12269 47.070888 
L 301.4648 47.646007 
L 301.80691 48.560526 
L 302.14902 50.15236 
L 303.51746 59.852673 
L 303.85957 59.046173 
L 304.20168 59.18921 
L 304.8859 62.540049 
L 305.57012 63.35833 
L 306.25434 63.320932 
L 306.93856 62.091614 
L 307.62278 58.020316 
L 307.96489 57.825034 
L 308.64911 55.324782 
L 308.99122 54.752678 
L 309.33333 54.615583 
L 309.67544 54.106549 
L 310.01755 54.407446 
L 310.35966 55.66428 
L 310.70177 55.449795 
L 311.04388 57.009515 
L 311.38599 59.533262 
L 311.7281 60.578094 
L 313.09654 57.481049 
L 313.43865 57.630717 
L 313.78076 58.660262 
L 314.12287 57.575727 
L 314.46498 54.87585 
L 314.80709 53.39919 
L 315.49131 49.122481 
L 316.17553 46.743748 
L 316.51764 45.552305 
L 316.85975 43.443078 
L 317.20186 42.908549 
L 317.54397 42.899168 
L 317.88608 41.851177 
L 318.22819 43.328364 
L 318.5703 42.324475 
L 319.25452 41.15129 
L 319.59663 41.937895 
L 319.93874 43.077265 
L 320.28085 42.858678 
L 320.62296 43.643736 
L 320.96507 43.460473 
L 321.30718 43.056412 
L 321.64929 42.322833 
L 321.9914 42.203585 
L 322.67562 41.522709 
L 323.01773 41.496437 
L 323.35984 42.13129 
L 323.70195 43.744574 
L 324.04406 42.568385 
L 324.38617 43.912693 
L 324.72828 43.403219 
L 325.07039 43.896294 
L 325.75461 42.235062 
L 326.09672 42.351785 
L 326.78094 43.68406 
L 327.12305 42.914639 
L 327.46516 42.509148 
L 328.49149 48.523782 
L 329.51782 53.074121 
L 329.85993 54.263186 
L 330.20204 54.616583 
L 330.54415 55.184841 
L 330.88626 54.700477 
L 331.22837 53.898436 
L 331.57048 53.594986 
L 331.91259 54.373655 
L 332.2547 56.12605 
L 332.59681 57.163972 
L 332.93892 57.686231 
L 333.62314 56.94026 
L 333.96525 57.96922 
L 334.30736 58.565573 
L 334.64947 58.524557 
L 334.99158 59.79797 
L 335.33369 61.886194 
L 336.01791 64.271091 
L 336.70213 68.168904 
L 337.04424 69.645373 
L 337.38635 69.997252 
L 337.72846 70.102338 
L 338.07057 69.580345 
L 338.41268 70.050894 
L 338.75479 71.316443 
L 339.0969 71.995198 
L 339.43901 70.592149 
L 340.12323 69.453321 
L 340.46534 68.95729 
L 340.80745 67.619527 
L 341.14956 67.178932 
L 341.83378 69.546218 
L 342.17589 69.585211 
L 342.518 70.421099 
L 343.20222 73.182925 
L 343.54433 73.442141 
L 343.88644 74.844917 
L 344.22855 75.442776 
L 344.57066 75.708832 
L 344.91277 75.009988 
L 345.59699 78.635537 
L 345.9391 78.985166 
L 346.28121 78.410685 
L 346.62332 78.203577 
L 346.96543 77.64737 
L 347.30754 77.466967 
L 347.64965 76.453397 
L 347.99176 74.589598 
L 348.67598 73.757347 
L 349.01809 74.057402 
L 349.3602 76.256342 
L 350.38653 78.379013 
L 350.72864 79.613229 
L 351.07075 78.964977 
L 351.41286 79.5841 
L 351.75497 79.442601 
L 352.09708 78.945701 
L 352.7813 81.47682 
L 353.12341 80.639159 
L 353.80763 82.104453 
L 354.14974 80.94748 
L 354.49185 79.248119 
L 354.83396 76.872731 
L 355.17607 76.490196 
L 355.51818 76.290205 
L 355.86029 74.243306 
L 356.2024 73.328793 
L 356.54451 73.030926 
L 356.88662 71.272098 
L 357.22873 71.323869 
L 357.57084 69.740463 
L 357.91295 69.959955 
L 358.25506 70.689266 
L 358.93928 74.387446 
L 359.28139 74.478957 
L 359.6235 74.989895 
L 359.96561 76.038505 
L 360.99194 83.704613 
L 361.33405 85.482954 
L 361.67616 86.051222 
L 362.01827 85.643498 
L 362.36038 85.636376 
L 363.0446 84.484497 
L 363.38671 84.581912 
L 364.07093 85.915089 
L 364.41304 85.532938 
L 364.75515 86.007493 
L 365.09726 87.158948 
L 365.43937 86.850762 
L 366.12359 79.947109 
L 367.14992 72.412243 
L 367.83414 65.213875 
L 368.17625 62.987138 
L 368.51836 61.879101 
L 368.86047 60.358172 
L 369.20258 60.068653 
L 369.54469 57.309923 
L 369.8868 55.585051 
L 370.22891 55.526219 
L 370.57102 56.127527 
L 370.91313 55.936772 
L 371.59735 59.906163 
L 371.93946 59.890122 
L 372.28157 61.310119 
L 372.62368 63.559556 
L 372.96579 64.10241 
L 373.3079 65.251525 
L 373.65001 65.153129 
L 374.33423 65.612789 
L 374.67634 66.842866 
L 375.36056 70.512495 
L 375.70267 71.458581 
L 376.04478 73.543843 
L 376.38689 73.771617 
L 377.07111 73.248189 
L 377.41322 72.581239 
L 377.75533 72.164808 
L 378.09744 70.592776 
L 378.78166 69.214273 
L 379.12377 68.269677 
L 379.46588 66.445622 
L 379.80799 65.993366 
L 380.1501 65.242131 
L 380.49221 65.114301 
L 380.83432 64.553607 
L 381.17643 65.067654 
L 381.51854 64.827381 
L 381.86065 64.355175 
L 382.20276 62.948538 
L 382.54487 63.887659 
L 383.22909 65.080414 
L 383.5712 65.032349 
L 383.91331 63.441469 
L 384.25542 63.282309 
L 384.59753 63.895968 
L 384.93964 63.785136 
L 385.28175 64.837666 
L 385.62386 64.575555 
L 385.96597 63.69636 
L 386.30808 63.984687 
L 386.65019 64.626202 
L 386.9923 64.966109 
L 387.67652 66.829177 
L 388.01863 67.185633 
L 388.70285 68.885725 
L 389.04496 70.84173 
L 389.38707 72.056787 
L 389.72918 74.228967 
L 390.4134 76.398308 
L 391.09762 76.725124 
L 391.43973 77.718016 
L 391.78184 78.18085 
L 392.12395 78.830964 
L 392.46606 78.434063 
L 393.15028 74.279327 
L 394.17661 65.565845 
L 394.51872 64.498812 
L 394.86083 64.150373 
L 395.20294 61.610993 
L 395.88716 59.240507 
L 396.22927 60.078898 
L 396.57138 61.419826 
L 396.91349 63.231535 
L 397.2556 63.58584 
L 397.59771 64.596241 
L 397.93982 64.19878 
L 398.28193 64.767015 
L 398.96615 68.894726 
L 401.01881 78.871502 
L 401.36092 79.374722 
L 401.70303 80.373292 
L 402.04514 80.381474 
L 402.38725 80.20237 
L 402.72936 80.898731 
L 403.41358 83.190743 
L 403.75569 84.826999 
L 404.0978 84.874134 
L 404.43991 85.922193 
L 404.78202 86.104712 
L 405.12413 85.924849 
L 405.46624 85.314135 
L 405.80835 85.860206 
L 406.15046 86.120897 
L 406.49257 85.188573 
L 407.17679 87.005164 
L 407.86101 88.261128 
L 408.20312 90.031187 
L 408.54523 90.143682 
L 408.88734 90.428658 
L 409.22945 90.370337 
L 409.57156 89.978645 
L 409.91367 89.811367 
L 410.25578 90.124876 
L 410.59789 92.830143 
L 410.59789 92.830143 
" clip-path="url(#pb7a250149a)" style="fill: none; stroke: #1f77b4; stroke-width: 1.5; stroke-linecap: square"/>
   </g>
   <g id="patch_3">
    <path d="M 68.83 266.245 
L 68.83 25.92 
" style="fill: none; stroke: #000000; stroke-width: 0.8; stroke-linejoin: miter; stroke-linecap: square"/>
   </g>
   <g id="patch_4">
    <path d="M 410.94 266.245 
L 410.94 25.92 
" style="fill: none; stroke: #000000; stroke-width: 0.8; stroke-linejoin: miter; stroke-linecap: square"/>
   </g>
   <g id="patch_5">
    <path d="M 68.83 266.245 
L 410.94 266.245 
" style="fill: none; stroke: #000000; stroke-width: 0.8; stroke-linejoin: miter; stroke-linecap: square"/>
   </g>
   <g id="patch_6">
    <path d="M 68.83 25.92 
L 410.94 25.92 
" style="fill: none; stroke: #000000; stroke-width: 0.8; stroke-linejoin: miter; stroke-linecap: square"/>
   </g>
  </g>
 </g>
 <defs>
  <clipPath id="pb7a250149a">
   <rect x="68.83" y="25.92" width="342.11" height="240.325"/>
  </clipPath>
 </defs>
</svg>
