<?xml version="1.0" encoding="utf-8" standalone="no"?>
<!DOCTYPE svg PUBLIC "-//W3C//DTD SVG 1.1//EN"
  "http://www.w3.org/Graphics/SVG/1.1/DTD/svg11.dtd">
<svg xmlns:xlink="http://www.w3.org/1999/xlink" width="460.8pt" height="345.6pt" viewBox="0 0 460.8 345.6" xmlns="http://www.w3.org/2000/svg" version="1.1">
 <metadata>
  <rdf:RDF xmlns:dc="http://purl.org/dc/elements/1.1/" xmlns:cc="http://creativecommons.org/ns#" xmlns:rdf="http://www.w3.org/1999/02/22-rdf-syntax-ns#">
   <cc:Work>
    <dc:type rdf:resource="http://purl.org/dc/dcmitype/StillImage"/>
    <dc:date>2025-12-15T12:37:19.484751</dc:date>
    <dc:format>image/svg+xml</dc:format>
    <dc:creator>
     <cc:Agent>
      <dc:title>Matplotlib v3.10.6, https://matplotlib.org/</dc:title>
     </cc:Agent>
    </dc:creator>
   </cc:Work>
  </rdf:RDF>
 </metadata>
 <defs>
  <style type="text/css">*{stroke-linejoin: round; stroke-linecap: butt}</style>
 </defs>
 <g id="figure_1">
  <g id="patch_1">
   <path d="M 0 345.6 
L 460.8 345.6 
L 460.8 0 
L 0 0 
z
" style="fill: #ffffff"/>
  </g>
  <g id="axes_1">
   <g id="patch_2">
    <path d="M 94.0475 266.245 
L 410.94 266.245 
L 410.94 25.92 
L 94.0475 25.92 
z
" style="fill: #ffffff"/>
   </g>
   <g id="matplotlib.axis_1">
    <g id="xtick_1">
     <g id="line2d_1">
      <path d="M 94.0475 266.245 
L 94.0475 25.92 
" clip-path="url(#pa5a3996d88)" style="fill: none; stroke: #b0b0b0; stroke-width: 0.8; stroke-linecap: square"/>
     </g>
     <g id="line2d_2">
      <defs>
       <path id="m6fc1861d49" d="M 0 0 
L 0 3.5 
" style="stroke: #000000; stroke-width: 0.8"/>
      </defs>
      <g>
       <use xlink:href="#m6fc1861d49" x="94.0475" y="266.245" style="stroke: #000000; stroke-width: 0.8"/>
      </g>
     </g>
     <g id="text_1">
      <!-- 0 -->
      <g transform="translate(88.0475 289.63625) scale(0.24 -0.24)">
       <defs>
        <path id="TeXGyreTermes-Regular-30" d="M 3046 2112 
C 3046 3424 2464 4326 1626 4326 
C 1274 4326 1005 4218 768 3994 
C 397 3635 154 2899 154 2150 
C 154 1453 365 704 666 346 
C 902 64 1229 -90 1600 -90 
C 1926 -90 2202 19 2432 243 
C 2803 595 3046 1338 3046 2112 
z
M 2432 2099 
C 2432 762 2150 77 1600 77 
C 1050 77 768 762 768 2093 
C 768 3450 1056 4160 1606 4160 
C 2144 4160 2432 3437 2432 2099 
z
" transform="scale(0.015625)"/>
       </defs>
       <use xlink:href="#TeXGyreTermes-Regular-30"/>
      </g>
     </g>
    </g>
    <g id="xtick_2">
     <g id="line2d_3">
      <path d="M 173.270625 266.245 
L 173.270625 25.92 
" clip-path="url(#pa5a3996d88)" style="fill: none; stroke: #b0b0b0; stroke-width: 0.8; stroke-linecap: square"/>
     </g>
     <g id="line2d_4">
      <g>
       <use xlink:href="#m6fc1861d49" x="173.270625" y="266.245" style="stroke: #000000; stroke-width: 0.8"/>
      </g>
     </g>
     <g id="text_2">
      <!-- 250 -->
      <g transform="translate(155.270625 289.63625) scale(0.24 -0.24)">
       <defs>
        <path id="TeXGyreTermes-Regular-32" d="M 3040 877 
L 2957 909 
C 2720 544 2637 486 2349 486 
L 819 486 
L 1894 1613 
C 2464 2208 2714 2694 2714 3194 
C 2714 3834 2195 4326 1530 4326 
C 1178 4326 845 4186 608 3930 
C 403 3712 307 3507 198 3053 
L 333 3021 
C 589 3648 819 3853 1261 3853 
C 1798 3853 2163 3488 2163 2950 
C 2163 2451 1869 1856 1331 1286 
L 192 77 
L 192 0 
L 2688 0 
L 3040 877 
z
" transform="scale(0.015625)"/>
        <path id="TeXGyreTermes-Regular-35" d="M 2803 4358 
L 2746 4403 
C 2650 4269 2586 4237 2451 4237 
L 1114 4237 
L 416 2720 
C 410 2707 410 2688 410 2688 
C 410 2656 435 2637 486 2637 
C 691 2637 947 2592 1210 2509 
C 1946 2272 2285 1875 2285 1242 
C 2285 627 1894 147 1395 147 
C 1267 147 1158 192 966 333 
C 762 480 614 544 480 544 
C 294 544 205 467 205 307 
C 205 64 506 -90 986 -90 
C 1523 -90 1984 83 2304 410 
C 2598 698 2733 1062 2733 1549 
C 2733 2010 2611 2304 2291 2624 
C 2010 2906 1645 3053 890 3187 
L 1158 3731 
L 2413 3731 
C 2515 3731 2541 3744 2560 3789 
L 2803 4358 
z
" transform="scale(0.015625)"/>
       </defs>
       <use xlink:href="#TeXGyreTermes-Regular-32"/>
       <use xlink:href="#TeXGyreTermes-Regular-35" transform="translate(49.999985 0)"/>
       <use xlink:href="#TeXGyreTermes-Regular-30" transform="translate(99.999969 0)"/>
      </g>
     </g>
    </g>
    <g id="xtick_3">
     <g id="line2d_5">
      <path d="M 252.49375 266.245 
L 252.49375 25.92 
" clip-path="url(#pa5a3996d88)" style="fill: none; stroke: #b0b0b0; stroke-width: 0.8; stroke-linecap: square"/>
     </g>
     <g id="line2d_6">
      <g>
       <use xlink:href="#m6fc1861d49" x="252.49375" y="266.245" style="stroke: #000000; stroke-width: 0.8"/>
      </g>
     </g>
     <g id="text_3">
      <!-- 500 -->
      <g transform="translate(234.49375 289.63625) scale(0.24 -0.24)">
       <use xlink:href="#TeXGyreTermes-Regular-35"/>
       <use xlink:href="#TeXGyreTermes-Regular-30" transform="translate(49.999985 0)"/>
       <use xlink:href="#TeXGyreTermes-Regular-30" transform="translate(99.999969 0)"/>
      </g>
     </g>
    </g>
    <g id="xtick_4">
     <g id="line2d_7">
      <path d="M 331.716875 266.245 
L 331.716875 25.92 
" clip-path="url(#pa5a3996d88)" style="fill: none; stroke: #b0b0b0; stroke-width: 0.8; stroke-linecap: square"/>
     </g>
     <g id="line2d_8">
      <g>
       <use xlink:href="#m6fc1861d49" x="331.716875" y="266.245" style="stroke: #000000; stroke-width: 0.8"/>
      </g>
     </g>
     <g id="text_4">
      <!-- 750 -->
      <g transform="translate(313.716875 289.63625) scale(0.24 -0.24)">
       <defs>
        <path id="TeXGyreTermes-Regular-37" d="M 2874 4134 
L 2874 4237 
L 506 4237 
L 128 3296 
L 237 3245 
C 512 3680 627 3763 979 3763 
L 2368 3763 
L 1101 -51 
L 1517 -51 
L 2874 4134 
z
" transform="scale(0.015625)"/>
       </defs>
       <use xlink:href="#TeXGyreTermes-Regular-37"/>
       <use xlink:href="#TeXGyreTermes-Regular-35" transform="translate(49.999985 0)"/>
       <use xlink:href="#TeXGyreTermes-Regular-30" transform="translate(99.999969 0)"/>
      </g>
     </g>
    </g>
    <g id="xtick_5">
     <g id="line2d_9">
      <path d="M 410.94 266.245 
L 410.94 25.92 
" clip-path="url(#pa5a3996d88)" style="fill: none; stroke: #b0b0b0; stroke-width: 0.8; stroke-linecap: square"/>
     </g>
     <g id="line2d_10">
      <g>
       <use xlink:href="#m6fc1861d49" x="410.94" y="266.245" style="stroke: #000000; stroke-width: 0.8"/>
      </g>
     </g>
     <g id="text_5">
      <!-- 1000 -->
      <g transform="translate(386.94 289.63625) scale(0.24 -0.24)">
       <defs>
        <path id="TeXGyreTermes-Regular-31" d="M 2522 0 
L 2522 96 
C 2016 102 1914 166 1914 474 
L 1914 4314 
L 1862 4326 
L 710 3744 
L 710 3654 
C 787 3686 858 3712 883 3725 
C 998 3770 1107 3795 1171 3795 
C 1306 3795 1363 3699 1363 3494 
L 1363 595 
C 1363 384 1312 237 1210 179 
C 1114 122 1024 102 755 96 
L 755 0 
L 2522 0 
z
" transform="scale(0.015625)"/>
       </defs>
       <use xlink:href="#TeXGyreTermes-Regular-31"/>
       <use xlink:href="#TeXGyreTermes-Regular-30" transform="translate(49.999985 0)"/>
       <use xlink:href="#TeXGyreTermes-Regular-30" transform="translate(99.999969 0)"/>
       <use xlink:href="#TeXGyreTermes-Regular-30" transform="translate(149.999954 0)"/>
      </g>
     </g>
    </g>
    <g id="text_6">
     <!-- Schritt k -->
     <g transform="translate(211.49125 315.23625) scale(0.24 -0.24)">
      <defs>
       <path id="TeXGyreTermes-Regular-53" d="M 3142 1075 
C 3142 1606 2790 2016 1946 2477 
C 1274 2842 1005 3123 1005 3475 
C 1005 3827 1274 4064 1670 4064 
C 1958 4064 2227 3942 2451 3712 
C 2650 3507 2739 3341 2842 2963 
L 3002 2963 
L 2861 4326 
L 2726 4326 
C 2701 4186 2630 4109 2522 4109 
C 2458 4109 2355 4134 2240 4186 
C 2003 4275 1773 4326 1549 4326 
C 1299 4326 1030 4224 826 4058 
C 576 3853 454 3578 454 3226 
C 454 2720 736 2362 1453 1984 
C 1914 1734 2246 1478 2406 1235 
C 2464 1146 2496 1018 2496 858 
C 2496 435 2176 141 1709 141 
C 1133 141 736 493 416 1274 
L 269 1274 
L 461 -83 
L 602 -83 
C 608 38 685 128 781 128 
C 851 128 960 102 1082 58 
C 1325 -38 1581 -90 1837 -90 
C 2579 -90 3142 416 3142 1075 
z
" transform="scale(0.015625)"/>
       <path id="TeXGyreTermes-Regular-63" d="M 2637 941 
L 2547 998 
C 2240 550 2010 397 1645 397 
C 1056 397 653 909 653 1645 
C 653 2310 1005 2758 1523 2758 
C 1754 2758 1837 2688 1901 2451 
L 1939 2310 
C 1990 2125 2106 2016 2246 2016 
C 2413 2016 2547 2138 2547 2285 
C 2547 2643 2099 2944 1562 2944 
C 1261 2944 954 2829 698 2618 
C 352 2330 160 1888 160 1357 
C 160 531 666 -64 1376 -64 
C 1651 -64 1894 26 2112 205 
C 2304 358 2432 544 2637 941 
z
" transform="scale(0.015625)"/>
       <path id="TeXGyreTermes-Regular-68" d="M 3117 0 
L 3117 96 
C 2771 160 2733 211 2733 653 
L 2733 1926 
C 2733 2598 2464 2944 1946 2944 
C 1568 2944 1299 2790 1005 2406 
L 1005 4352 
L 973 4371 
C 755 4294 595 4243 237 4141 
L 64 4090 
L 64 3987 
C 90 3994 109 3994 141 3994 
C 416 3994 467 3942 467 3667 
L 467 653 
C 467 205 429 147 58 96 
L 58 0 
L 1440 0 
L 1440 96 
C 1069 134 1005 211 1005 653 
L 1005 2195 
C 1274 2490 1466 2598 1715 2598 
C 2035 2598 2195 2368 2195 1920 
L 2195 653 
C 2195 218 2131 134 1760 96 
L 1760 0 
L 3117 0 
z
" transform="scale(0.015625)"/>
       <path id="TeXGyreTermes-Regular-72" d="M 2144 2605 
C 2144 2816 2010 2944 1792 2944 
C 1523 2944 1338 2797 1024 2342 
L 1024 2931 
L 992 2944 
C 653 2803 422 2720 45 2598 
L 45 2496 
C 134 2515 192 2522 269 2522 
C 429 2522 486 2419 486 2138 
L 486 538 
C 486 218 442 173 32 96 
L 32 0 
L 1568 0 
L 1568 96 
C 1133 115 1024 211 1024 576 
L 1024 2016 
C 1024 2221 1299 2541 1472 2541 
C 1510 2541 1568 2509 1638 2445 
C 1741 2355 1811 2317 1894 2317 
C 2048 2317 2144 2426 2144 2605 
z
" transform="scale(0.015625)"/>
       <path id="TeXGyreTermes-Regular-69" d="M 1619 0 
L 1619 96 
C 1197 128 1146 192 1146 653 
L 1146 2925 
L 1120 2944 
L 128 2592 
L 128 2496 
L 179 2502 
C 256 2515 339 2522 397 2522 
C 550 2522 608 2419 608 2138 
L 608 653 
C 608 192 544 122 102 96 
L 102 0 
L 1619 0 
z
M 1203 3776 
C 1203 3955 1062 4102 877 4102 
C 698 4102 550 3955 550 3776 
C 550 3590 698 3450 877 3450 
C 1062 3450 1203 3590 1203 3776 
z
" transform="scale(0.015625)"/>
       <path id="TeXGyreTermes-Regular-74" d="M 1786 422 
L 1702 493 
C 1562 326 1459 269 1318 269 
C 1082 269 986 435 986 845 
L 986 2675 
L 1632 2675 
L 1632 2880 
L 986 2880 
L 986 3622 
C 986 3686 973 3706 941 3706 
C 902 3642 858 3584 813 3526 
C 576 3174 358 2938 192 2842 
C 122 2797 83 2758 83 2720 
C 83 2701 90 2688 109 2675 
L 448 2675 
L 448 749 
C 448 211 640 -64 1011 -64 
C 1331 -64 1574 90 1786 422 
z
" transform="scale(0.015625)"/>
       <path id="TeXGyreTermes-Regular-20" transform="scale(0.015625)"/>
       <path id="TeXGyreTermes-Regular-6b" d="M 3232 0 
L 3232 96 
C 2950 115 2752 237 2483 563 
L 1504 1805 
L 1690 1978 
C 2144 2400 2541 2694 2726 2746 
C 2822 2771 2912 2784 3021 2784 
L 3072 2784 
L 3072 2880 
L 1766 2880 
L 1766 2790 
C 2016 2784 2086 2758 2086 2669 
C 2086 2618 2029 2528 1939 2451 
L 1062 1670 
L 1062 4358 
L 1037 4371 
L 237 4141 
L 45 4090 
L 45 3987 
C 128 3994 186 4000 250 4000 
C 461 4000 525 3917 525 3610 
L 525 525 
C 525 192 506 173 45 96 
L 45 0 
L 1542 0 
L 1542 96 
L 1414 102 
C 1158 115 1062 205 1062 429 
L 1062 1606 
L 1958 410 
L 1978 384 
C 1990 365 2003 346 2022 326 
C 2074 262 2093 224 2093 192 
C 2093 134 2035 96 1958 96 
L 1837 96 
L 1837 0 
L 3232 0 
z
" transform="scale(0.015625)"/>
      </defs>
      <use xlink:href="#TeXGyreTermes-Regular-53"/>
      <use xlink:href="#TeXGyreTermes-Regular-63" transform="translate(55.599991 0)"/>
      <use xlink:href="#TeXGyreTermes-Regular-68" transform="translate(99.999985 0)"/>
      <use xlink:href="#TeXGyreTermes-Regular-72" transform="translate(149.999969 0)"/>
      <use xlink:href="#TeXGyreTermes-Regular-69" transform="translate(183.299957 0)"/>
      <use xlink:href="#TeXGyreTermes-Regular-74" transform="translate(211.099945 0)"/>
      <use xlink:href="#TeXGyreTermes-Regular-74" transform="translate(238.899933 0)"/>
      <use xlink:href="#TeXGyreTermes-Regular-20" transform="translate(266.699921 0)"/>
      <use xlink:href="#TeXGyreTermes-Regular-6b" transform="translate(291.699905 0)"/>
     </g>
    </g>
   </g>
   <g id="matplotlib.axis_2">
    <g id="ytick_1">
     <g id="line2d_11">
      <path d="M 94.0475 250.226162 
L 410.94 250.226162 
" clip-path="url(#pa5a3996d88)" style="fill: none; stroke: #b0b0b0; stroke-width: 0.8; stroke-linecap: square"/>
     </g>
     <g id="line2d_12">
      <defs>
       <path id="mc762a0c53c" d="M 0 0 
L -3.5 0 
" style="stroke: #000000; stroke-width: 0.8"/>
      </defs>
      <g>
       <use xlink:href="#mc762a0c53c" x="94.0475" y="250.226162" style="stroke: #000000; stroke-width: 0.8"/>
      </g>
     </g>
     <g id="text_7">
      <!-- 0 -->
      <g transform="translate(75.0475 258.421787) scale(0.24 -0.24)">
       <use xlink:href="#TeXGyreTermes-Regular-30"/>
      </g>
     </g>
    </g>
    <g id="ytick_2">
     <g id="line2d_13">
      <path d="M 94.0475 161.667738 
L 410.94 161.667738 
" clip-path="url(#pa5a3996d88)" style="fill: none; stroke: #b0b0b0; stroke-width: 0.8; stroke-linecap: square"/>
     </g>
     <g id="line2d_14">
      <g>
       <use xlink:href="#mc762a0c53c" x="94.0475" y="161.667738" style="stroke: #000000; stroke-width: 0.8"/>
      </g>
     </g>
     <g id="text_8">
      <!-- 100 -->
      <g transform="translate(51.0475 169.863363) scale(0.24 -0.24)">
       <use xlink:href="#TeXGyreTermes-Regular-31"/>
       <use xlink:href="#TeXGyreTermes-Regular-30" transform="translate(49.999985 0)"/>
       <use xlink:href="#TeXGyreTermes-Regular-30" transform="translate(99.999969 0)"/>
      </g>
     </g>
    </g>
    <g id="ytick_3">
     <g id="line2d_15">
      <path d="M 94.0475 73.109314 
L 410.94 73.109314 
" clip-path="url(#pa5a3996d88)" style="fill: none; stroke: #b0b0b0; stroke-width: 0.8; stroke-linecap: square"/>
     </g>
     <g id="line2d_16">
      <g>
       <use xlink:href="#mc762a0c53c" x="94.0475" y="73.109314" style="stroke: #000000; stroke-width: 0.8"/>
      </g>
     </g>
     <g id="text_9">
      <!-- 200 -->
      <g transform="translate(51.0475 81.304939) scale(0.24 -0.24)">
       <use xlink:href="#TeXGyreTermes-Regular-32"/>
       <use xlink:href="#TeXGyreTermes-Regular-30" transform="translate(49.999985 0)"/>
       <use xlink:href="#TeXGyreTermes-Regular-30" transform="translate(99.999969 0)"/>
      </g>
     </g>
    </g>
    <g id="text_10">
     <!-- Summe x({i| i&lt;=k}) -->
     <g transform="translate(41.83875 242.87375) rotate(-90) scale(0.24 -0.24)">
      <defs>
       <path id="TeXGyreTermes-Regular-75" d="M 3066 230 
L 3066 320 
L 3034 320 
C 2739 320 2669 390 2669 685 
L 2669 2880 
L 1658 2880 
L 1658 2771 
C 2054 2752 2131 2688 2131 2368 
L 2131 864 
C 2131 691 2099 595 2022 538 
C 1843 384 1645 307 1446 307 
C 1197 307 992 525 992 794 
L 992 2880 
L 58 2880 
L 58 2790 
C 365 2771 454 2675 454 2381 
L 454 768 
C 454 262 762 -64 1229 -64 
C 1466 -64 1715 38 1888 211 
L 2163 486 
L 2163 -45 
L 2189 -58 
C 2509 70 2739 141 3066 230 
z
" transform="scale(0.015625)"/>
       <path id="TeXGyreTermes-Regular-6d" d="M 4960 0 
L 4960 96 
L 4794 109 
C 4602 122 4518 237 4518 486 
L 4518 1805 
C 4518 2560 4269 2944 3776 2944 
C 3405 2944 3078 2778 2733 2406 
C 2618 2771 2400 2944 2054 2944 
C 1773 2944 1594 2854 1062 2451 
L 1062 2931 
L 1018 2944 
C 691 2822 474 2752 122 2656 
L 122 2547 
C 205 2566 256 2573 326 2573 
C 493 2573 550 2470 550 2163 
L 550 544 
C 550 198 461 102 102 96 
L 102 0 
L 1523 0 
L 1523 96 
C 1184 109 1088 179 1088 429 
L 1088 2234 
C 1088 2234 1139 2310 1184 2355 
C 1344 2502 1619 2611 1843 2611 
C 2125 2611 2266 2387 2266 1939 
L 2266 550 
C 2266 192 2195 122 1830 96 
L 1830 0 
L 3264 0 
L 3264 96 
C 2899 102 2803 211 2803 608 
L 2803 2221 
C 2995 2496 3206 2611 3501 2611 
C 3866 2611 3981 2438 3981 1907 
L 3981 557 
C 3981 192 3930 141 3558 96 
L 3558 0 
L 4960 0 
z
" transform="scale(0.015625)"/>
       <path id="TeXGyreTermes-Regular-65" d="M 2714 1005 
L 2611 1050 
C 2304 563 2029 378 1619 378 
C 1267 378 998 544 813 890 
C 685 1139 634 1363 621 1773 
L 2592 1773 
C 2541 2189 2477 2374 2317 2579 
C 2125 2810 1830 2944 1498 2944 
C 704 2944 160 2304 160 1370 
C 160 486 621 -64 1357 -64 
C 1971 -64 2445 314 2714 1005 
z
M 1939 1978 
L 634 1978 
C 704 2483 922 2714 1312 2714 
C 1702 2714 1856 2534 1939 1978 
z
" transform="scale(0.015625)"/>
       <path id="TeXGyreTermes-Regular-78" d="M 3066 0 
L 3066 96 
C 2867 96 2739 198 2541 480 
L 1722 1734 
L 2253 2502 
C 2374 2675 2566 2778 2771 2784 
L 2771 2880 
L 1760 2880 
L 1760 2784 
C 1952 2771 2016 2733 2016 2643 
C 2016 2566 1939 2426 1779 2227 
C 1747 2189 1670 2074 1587 1946 
L 1498 2074 
C 1318 2342 1203 2560 1203 2643 
C 1203 2733 1286 2778 1478 2784 
L 1478 2880 
L 154 2880 
L 154 2784 
L 211 2784 
C 403 2784 506 2701 704 2400 
L 1306 1478 
L 576 422 
C 384 160 320 115 109 96 
L 109 0 
L 1037 0 
L 1037 96 
C 858 96 781 128 781 211 
C 781 250 826 346 909 474 
L 1414 1261 
L 1997 365 
C 2022 326 2035 288 2035 250 
C 2035 134 1990 109 1779 96 
L 1779 0 
L 3066 0 
z
" transform="scale(0.015625)"/>
       <path id="TeXGyreTermes-Regular-28" d="M 1946 -1030 
C 1434 -627 1254 -403 1082 77 
C 928 506 858 992 858 1632 
C 858 2304 941 2829 1114 3226 
C 1293 3622 1485 3853 1946 4224 
L 1888 4326 
C 1414 4019 1222 3853 986 3558 
C 531 3002 307 2362 307 1613 
C 307 800 544 173 1107 -480 
C 1370 -787 1536 -928 1869 -1133 
L 1946 -1030 
z
" transform="scale(0.015625)"/>
       <path id="TeXGyreTermes-Regular-7b" d="M 2240 -1158 
L 2240 -1088 
C 1798 -973 1658 -781 1658 -301 
L 1658 774 
C 1658 1306 1536 1472 1056 1594 
C 1536 1722 1658 1888 1658 2419 
L 1658 3494 
C 1658 3974 1798 4166 2240 4282 
L 2240 4352 
C 1818 4346 1651 4307 1466 4192 
C 1280 4077 1184 3827 1184 3462 
L 1184 2323 
C 1184 1875 1069 1728 640 1600 
C 1069 1466 1184 1312 1184 870 
L 1184 -262 
C 1184 -621 1286 -883 1466 -998 
C 1645 -1114 1818 -1152 2240 -1158 
z
" transform="scale(0.015625)"/>
       <path id="TeXGyreTermes-Regular-7c" d="M 851 -998 
L 851 4237 
L 429 4237 
L 429 -998 
L 851 -998 
z
" transform="scale(0.015625)"/>
       <path id="TeXGyreTermes-Regular-3c" d="M 3098 83 
L 3098 557 
L 986 1600 
L 3098 2643 
L 3098 3117 
L 416 1792 
L 416 1408 
L 3098 83 
z
" transform="scale(0.015625)"/>
       <path id="TeXGyreTermes-Regular-3d" d="M 3354 1920 
L 3354 2342 
L 256 2342 
L 256 1920 
L 3354 1920 
z
M 3354 858 
L 3354 1280 
L 256 1280 
L 256 858 
L 3354 858 
z
" transform="scale(0.015625)"/>
       <path id="TeXGyreTermes-Regular-7d" d="M 2432 1600 
C 2003 1728 1888 1875 1888 2323 
L 1888 3456 
C 1888 3814 1786 4077 1606 4192 
C 1427 4307 1261 4346 832 4352 
L 832 4282 
C 1274 4166 1414 3974 1414 3494 
L 1414 2419 
C 1414 1882 1536 1722 2016 1600 
C 1536 1472 1414 1306 1414 774 
L 1414 -301 
C 1414 -781 1274 -973 832 -1088 
L 832 -1158 
C 1254 -1152 1421 -1114 1606 -998 
C 1792 -883 1888 -634 1888 -269 
L 1888 870 
C 1888 1318 2003 1466 2432 1600 
z
" transform="scale(0.015625)"/>
       <path id="TeXGyreTermes-Regular-29" d="M 1824 1581 
C 1824 2400 1587 3021 1024 3674 
C 762 3981 595 4122 262 4326 
L 186 4224 
C 698 3821 870 3597 1050 3117 
C 1203 2688 1274 2202 1274 1562 
C 1274 896 1190 365 1018 -26 
C 838 -429 646 -659 186 -1030 
L 243 -1133 
C 717 -826 909 -659 1146 -365 
C 1600 192 1824 832 1824 1581 
z
" transform="scale(0.015625)"/>
      </defs>
      <use xlink:href="#TeXGyreTermes-Regular-53"/>
      <use xlink:href="#TeXGyreTermes-Regular-75" transform="translate(55.599991 0)"/>
      <use xlink:href="#TeXGyreTermes-Regular-6d" transform="translate(105.599976 0)"/>
      <use xlink:href="#TeXGyreTermes-Regular-6d" transform="translate(183.399963 0)"/>
      <use xlink:href="#TeXGyreTermes-Regular-65" transform="translate(261.199951 0)"/>
      <use xlink:href="#TeXGyreTermes-Regular-20" transform="translate(305.599945 0)"/>
      <use xlink:href="#TeXGyreTermes-Regular-78" transform="translate(330.59993 0)"/>
      <use xlink:href="#TeXGyreTermes-Regular-28" transform="translate(380.599915 0)"/>
      <use xlink:href="#TeXGyreTermes-Regular-7b" transform="translate(413.899902 0)"/>
      <use xlink:href="#TeXGyreTermes-Regular-69" transform="translate(461.899887 0)"/>
      <use xlink:href="#TeXGyreTermes-Regular-7c" transform="translate(489.699875 0)"/>
      <use xlink:href="#TeXGyreTermes-Regular-20" transform="translate(509.69986 0)"/>
      <use xlink:href="#TeXGyreTermes-Regular-69" transform="translate(534.699844 0)"/>
      <use xlink:href="#TeXGyreTermes-Regular-3c" transform="translate(562.499832 0)"/>
      <use xlink:href="#TeXGyreTermes-Regular-3d" transform="translate(618.899826 0)"/>
      <use xlink:href="#TeXGyreTermes-Regular-6b" transform="translate(675.29982 0)"/>
      <use xlink:href="#TeXGyreTermes-Regular-7d" transform="translate(725.299805 0)"/>
      <use xlink:href="#TeXGyreTermes-Regular-29" transform="translate(773.299789 0)"/>
     </g>
    </g>
   </g>
   <g id="line2d_17">
    <path d="M 94.0475 250.226162 
L 94.998178 246.953452 
L 95.948855 240.965471 
L 96.899533 237.814397 
L 97.533318 236.64608 
L 97.85021 235.107842 
L 98.167103 234.353128 
L 98.800888 234.065295 
L 99.11778 234.142819 
L 99.751565 229.677936 
L 101.019135 224.670559 
L 101.65292 222.305253 
L 101.969813 221.89421 
L 102.603598 219.360498 
L 102.92049 218.31545 
L 103.554275 214.283615 
L 104.504953 207.008356 
L 105.138738 204.670514 
L 105.772523 201.669242 
L 106.089415 200.848399 
L 107.040093 195.523554 
L 107.356985 194.366341 
L 107.99077 193.63957 
L 108.307663 193.872808 
L 108.624555 193.179878 
L 108.941448 193.144066 
L 109.25834 193.367375 
L 109.575233 194.514796 
L 109.892125 194.558947 
L 110.52591 194.898635 
L 110.842803 195.402203 
L 111.159695 195.093592 
L 112.110373 195.385756 
L 112.427265 195.168404 
L 113.06105 193.65538 
L 114.011728 193.018285 
L 114.645513 191.815082 
L 114.962405 191.896164 
L 115.279298 190.603978 
L 115.59619 190.104989 
L 116.546868 191.821175 
L 117.180653 192.565822 
L 117.497545 192.599945 
L 118.13133 191.081845 
L 119.082008 186.95257 
L 119.3989 186.583183 
L 119.715793 185.985449 
L 120.66647 182.503181 
L 121.300255 181.724247 
L 121.617148 181.022 
L 123.518503 184.350678 
L 123.835395 184.67137 
L 124.152288 185.253822 
L 124.46918 185.487269 
L 124.786073 184.579882 
L 125.419858 181.684862 
L 126.370535 178.358485 
L 126.687428 178.06816 
L 127.321213 176.460982 
L 127.638105 176.424714 
L 127.954998 176.143894 
L 128.27189 174.922619 
L 128.588783 174.233106 
L 128.905675 174.328736 
L 129.222568 173.567973 
L 129.53946 173.111201 
L 129.856353 172.371593 
L 130.173245 171.939613 
L 130.490138 171.304205 
L 130.80703 170.386774 
L 131.757708 168.713751 
L 132.0746 166.937701 
L 132.391493 166.600297 
L 133.34217 168.079117 
L 133.659063 168.06559 
L 133.975955 168.304717 
L 134.292848 168.33032 
L 134.60974 168.629334 
L 134.926633 168.323915 
L 135.560418 168.549266 
L 135.87731 168.907959 
L 136.194203 169.47563 
L 136.511095 169.719454 
L 136.827988 170.267954 
L 138.095558 173.646976 
L 138.41245 174.262126 
L 139.046235 175.996651 
L 139.363128 175.887323 
L 139.68002 175.427434 
L 139.996913 175.475478 
L 140.313805 175.288536 
L 140.630698 174.959494 
L 141.264483 175.30805 
L 141.898268 173.45327 
L 142.532053 172.366022 
L 143.165838 172.619969 
L 143.48273 171.625388 
L 144.116515 168.373251 
L 144.433408 168.121422 
L 144.7503 168.504365 
L 145.384085 166.975069 
L 145.700978 166.707354 
L 146.334763 165.202918 
L 147.28544 162.789048 
L 147.602333 162.99867 
L 147.919225 163.693619 
L 148.236118 163.133772 
L 148.55301 163.153005 
L 149.186795 160.640585 
L 149.503688 159.865319 
L 149.82058 159.689037 
L 150.137473 159.240824 
L 150.454365 160.069257 
L 151.405043 160.947996 
L 152.038828 159.199872 
L 152.672613 158.006711 
L 152.989505 156.873891 
L 154.89086 146.37458 
L 155.207753 145.21692 
L 155.524645 144.587422 
L 155.841538 144.686931 
L 156.15843 143.53579 
L 157.426 140.495607 
L 157.742893 140.628862 
L 158.059785 141.395679 
L 158.376678 141.335646 
L 158.69357 140.467555 
L 159.010463 140.708821 
L 159.327355 141.241144 
L 159.644248 140.102717 
L 160.278033 136.763247 
L 160.594925 135.928372 
L 161.545603 131.041839 
L 161.862495 129.326961 
L 162.49628 127.685489 
L 162.813173 127.339249 
L 164.397635 122.947784 
L 165.03142 119.749965 
L 165.348313 118.832972 
L 165.665205 118.488145 
L 166.29899 115.172397 
L 166.615882 114.369612 
L 167.249668 112.08587 
L 168.517238 109.526191 
L 168.83413 109.245114 
L 169.151023 108.615118 
L 170.1017 103.175363 
L 170.735485 97.981629 
L 171.36927 93.565691 
L 171.686163 90.857104 
L 173.270625 84.619671 
L 173.587518 83.782248 
L 174.221303 80.26417 
L 174.538195 79.187557 
L 175.17198 78.085026 
L 175.488873 77.24068 
L 175.805765 75.838409 
L 176.122658 75.713133 
L 176.756443 73.990423 
L 177.073335 74.523579 
L 177.70712 72.447759 
L 178.024013 72.630859 
L 178.657798 72.680862 
L 178.97469 71.989624 
L 179.291583 71.709732 
L 179.608475 69.797369 
L 179.925368 68.946197 
L 180.24226 68.485192 
L 180.876045 66.880569 
L 181.192938 67.121728 
L 181.50983 66.552227 
L 181.826723 67.39086 
L 182.143615 67.1552 
L 182.460508 66.66075 
L 185.629433 50.607915 
L 185.946325 49.894096 
L 186.58011 47.020819 
L 187.213895 43.213132 
L 187.84768 41.825676 
L 188.164573 42.390094 
L 188.481465 42.348388 
L 188.798358 42.016872 
L 189.11525 42.53017 
L 189.432143 42.26778 
L 189.749035 41.660128 
L 190.065928 40.647485 
L 190.38282 40.287984 
L 191.016605 39.108721 
L 191.333498 39.213486 
L 191.65039 38.995145 
L 192.284175 37.075799 
L 192.601067 36.843864 
L 192.91796 37.960029 
L 193.551745 38.874688 
L 193.868638 38.829303 
L 194.18553 39.394656 
L 194.502423 39.338565 
L 195.136208 40.525643 
L 195.4531 40.713482 
L 195.769993 40.708121 
L 196.086885 40.582006 
L 196.403778 40.061846 
L 197.037563 39.819165 
L 197.671348 39.799574 
L 197.98824 40.21911 
L 198.622025 41.768803 
L 199.25581 45.116716 
L 199.572703 46.590322 
L 200.206488 48.293708 
L 201.157165 50.691699 
L 201.474058 52.100277 
L 202.424735 58.398992 
L 203.05852 60.640114 
L 203.375413 60.7169 
L 203.692305 60.338192 
L 204.009198 60.263034 
L 204.32609 61.228936 
L 204.642983 60.993111 
L 205.276768 61.577792 
L 205.59366 61.684886 
L 205.910553 61.563566 
L 206.227445 61.148911 
L 206.86123 60.903938 
L 207.178123 60.175618 
L 207.495015 60.510285 
L 207.811908 60.338366 
L 208.1288 60.363558 
L 208.445693 60.926765 
L 208.762585 60.956904 
L 209.079478 61.627013 
L 209.39637 63.15521 
L 209.713263 63.554689 
L 210.030155 64.940267 
L 210.347048 65.734578 
L 210.66394 67.366363 
L 211.297725 68.981982 
L 211.614618 69.148453 
L 212.248403 69.876542 
L 212.565295 69.347556 
L 212.882188 68.574952 
L 213.19908 68.581888 
L 213.515973 68.268717 
L 214.149758 68.603034 
L 215.100435 70.469553 
L 215.417328 70.750518 
L 216.051113 71.740785 
L 216.684898 71.337345 
L 217.00179 71.385262 
L 217.318683 71.640875 
L 217.635575 72.343849 
L 217.952468 72.475577 
L 218.26936 73.409808 
L 218.903145 74.055132 
L 219.53693 75.169539 
L 221.438285 79.365946 
L 221.755178 79.57955 
L 222.07207 80.356607 
L 222.388963 80.049333 
L 222.705855 80.020578 
L 223.022748 79.74468 
L 223.33964 80.498729 
L 223.656533 80.614408 
L 223.973425 80.913928 
L 224.290318 81.805897 
L 224.60721 81.539206 
L 224.924103 82.196075 
L 225.87478 81.876679 
L 226.191673 82.612808 
L 226.508565 82.863637 
L 226.825458 82.654226 
L 227.14235 83.82671 
L 227.459243 84.447015 
L 227.776135 83.159119 
L 228.093028 82.521807 
L 228.40992 81.136087 
L 228.726813 80.659131 
L 229.360598 80.570574 
L 229.67749 80.549938 
L 229.994383 80.994874 
L 230.311275 80.89918 
L 230.628168 80.640472 
L 230.94506 81.148861 
L 231.261953 81.179943 
L 231.578845 81.570133 
L 232.21263 83.250811 
L 232.529523 84.531536 
L 234.113985 86.388738 
L 234.430878 87.09396 
L 234.74777 86.817223 
L 235.064663 86.897147 
L 235.381555 87.553137 
L 235.698448 88.732506 
L 236.01534 89.267063 
L 236.332233 90.371593 
L 236.966018 91.857891 
L 237.599803 93.932753 
L 238.233588 97.601239 
L 238.867373 98.942263 
L 239.81805 101.629168 
L 240.134943 101.202297 
L 240.451835 100.997439 
L 240.768728 101.39878 
L 241.08562 102.538051 
L 241.719405 103.850997 
L 242.036298 103.961947 
L 242.35319 103.622433 
L 242.670083 103.071357 
L 242.986975 102.939457 
L 243.303868 102.684258 
L 243.62076 103.565365 
L 243.937653 103.807248 
L 244.254545 103.177483 
L 244.571438 102.906277 
L 244.88833 103.442254 
L 245.205223 102.80805 
L 245.522115 102.598171 
L 245.839008 103.07011 
L 246.1559 103.988825 
L 246.472793 104.55449 
L 246.789685 105.792085 
L 247.106578 105.675654 
L 247.740363 108.100077 
L 249.324825 112.594541 
L 249.95861 115.80083 
L 250.275503 116.534135 
L 251.859965 123.591875 
L 252.176858 124.08806 
L 252.49375 124.337047 
L 252.810643 125.13559 
L 253.444428 126.193391 
L 253.76132 126.824471 
L 254.395105 128.842886 
L 255.662675 134.005586 
L 256.613353 138.779067 
L 256.930245 139.790261 
L 257.56403 140.664615 
L 257.880922 139.992752 
L 258.197815 140.094113 
L 258.514707 140.610976 
L 258.8316 140.403726 
L 259.148493 139.228356 
L 259.465385 138.744316 
L 259.782278 138.945775 
L 260.09917 138.42016 
L 260.416063 138.361434 
L 260.732955 138.525171 
L 261.049848 138.477285 
L 261.683633 137.264911 
L 262.000525 137.037074 
L 262.63431 135.126721 
L 262.951203 135.458962 
L 263.268095 135.619753 
L 263.584988 136.254368 
L 263.90188 135.732208 
L 264.218773 135.771085 
L 264.535665 135.635069 
L 264.852557 136.07802 
L 265.486343 136.13307 
L 265.803235 136.413021 
L 266.120128 136.524485 
L 266.753913 136.398316 
L 267.70459 134.07931 
L 268.338375 130.482071 
L 268.655268 127.928788 
L 269.289053 125.023683 
L 269.922838 123.592861 
L 270.23973 122.752296 
L 272.141085 120.009538 
L 272.457978 119.371114 
L 272.77487 118.178858 
L 273.091763 117.548534 
L 273.408655 117.213931 
L 273.725548 117.045208 
L 274.359333 117.117615 
L 274.676225 117.891792 
L 275.31001 118.080814 
L 275.943795 118.712505 
L 276.260688 118.334772 
L 276.57758 117.262385 
L 276.894473 116.690761 
L 277.211365 115.658641 
L 277.528257 115.187908 
L 277.84515 114.414922 
L 278.162042 113.94049 
L 278.478935 113.896086 
L 279.746505 114.677713 
L 280.063398 113.522388 
L 280.38029 111.917019 
L 280.697183 111.354458 
L 281.014075 111.188145 
L 281.330968 110.044056 
L 281.964753 108.864123 
L 282.91543 108.277355 
L 283.232323 107.751849 
L 283.866107 108.119865 
L 284.499892 107.143505 
L 284.816785 105.815747 
L 285.133678 105.50141 
L 285.767463 105.310204 
L 286.084355 105.705658 
L 287.035033 102.827432 
L 287.351925 102.443229 
L 287.668818 101.624049 
L 288.619495 102.181267 
L 288.936388 102.590894 
L 289.25328 103.761051 
L 289.570173 104.348589 
L 289.887065 104.014415 
L 290.52085 102.374418 
L 290.837742 102.262483 
L 291.154635 101.650923 
L 291.471528 102.039787 
L 291.78842 101.423252 
L 292.105313 100.459072 
L 292.422205 100.095437 
L 292.739098 100.2676 
L 293.05599 99.632238 
L 293.372883 100.584628 
L 293.689775 101.141372 
L 294.32356 103.128386 
L 294.957345 106.417546 
L 295.274238 107.677936 
L 295.908023 108.79113 
L 296.224915 109.21724 
L 297.175592 112.296615 
L 297.492485 112.738097 
L 298.12627 113.183184 
L 298.443163 113.540022 
L 298.760055 114.067632 
L 299.076948 114.254444 
L 300.027625 115.85083 
L 300.344518 115.265667 
L 300.66141 115.308709 
L 300.978303 115.521943 
L 301.295195 115.406224 
L 301.612088 115.934652 
L 302.245873 117.700259 
L 302.562765 117.951202 
L 302.879658 118.932315 
L 303.19655 119.417138 
L 304.46412 123.611559 
L 304.781013 123.77125 
L 305.414798 124.901727 
L 306.048583 124.901469 
L 306.365475 125.243869 
L 306.99926 127.50551 
L 307.316153 128.011899 
L 307.949938 129.921267 
L 308.26683 129.644619 
L 308.583723 129.565919 
L 308.900615 129.848029 
L 309.217508 130.578688 
L 309.5344 132.09498 
L 309.851292 132.814681 
L 310.168185 132.531928 
L 310.485077 132.961002 
L 310.80197 133.917565 
L 311.118863 135.386961 
L 311.435755 136.080877 
L 311.752648 137.06912 
L 312.06954 137.101594 
L 312.386433 136.29618 
L 313.33711 136.047181 
L 313.970895 136.069917 
L 314.60468 134.70535 
L 314.921573 134.37479 
L 315.238465 134.671201 
L 315.555358 135.428884 
L 315.87225 135.23128 
L 316.189143 135.964638 
L 316.822927 134.802731 
L 317.456713 133.45314 
L 317.773605 133.014082 
L 318.40739 130.784145 
L 318.724283 131.551368 
L 319.041175 131.661246 
L 319.358068 132.35989 
L 319.67496 132.005256 
L 319.991853 131.384146 
L 320.308745 131.888759 
L 320.625638 131.461658 
L 321.259423 131.215639 
L 321.893208 131.994725 
L 322.526993 133.048947 
L 323.160777 135.788736 
L 323.47767 136.978681 
L 323.794563 137.208947 
L 324.428348 136.852813 
L 324.74524 136.980744 
L 325.062133 137.742939 
L 325.379025 137.893313 
L 325.695918 138.318437 
L 326.01281 139.232453 
L 326.329703 140.899176 
L 326.963488 142.684044 
L 327.28038 142.83451 
L 327.597273 143.433052 
L 328.231058 144.152631 
L 328.54795 143.972719 
L 328.864843 144.132209 
L 329.181735 144.516467 
L 329.498627 145.358687 
L 330.132413 145.309098 
L 330.449305 145.680406 
L 330.766198 145.741507 
L 331.08309 146.024204 
L 331.399983 147.201768 
L 331.716875 147.837561 
L 332.033768 147.922919 
L 332.35066 148.447706 
L 332.667553 149.309543 
L 332.984445 151.363139 
L 333.935123 154.838408 
L 334.252015 155.70436 
L 334.568908 155.866744 
L 335.836478 161.417565 
L 336.470262 164.470475 
L 336.787155 165.303995 
L 337.104048 167.159875 
L 337.42094 168.018341 
L 338.371618 173.978487 
L 338.68851 175.582368 
L 339.322295 176.639529 
L 339.95608 178.435096 
L 340.272973 178.629411 
L 340.589865 179.354491 
L 340.906758 179.780493 
L 341.22365 179.882553 
L 341.540543 180.723136 
L 341.857435 181.219007 
L 342.49122 183.983908 
L 342.808112 184.366538 
L 343.125005 183.880991 
L 343.441898 183.65601 
L 344.075683 186.729555 
L 344.392575 186.791259 
L 345.02636 188.35827 
L 345.343253 188.195063 
L 345.660145 189.249555 
L 346.29393 189.358229 
L 346.610823 190.350951 
L 346.927715 190.392289 
L 347.244608 189.474719 
L 347.878393 187.201553 
L 348.512178 188.947844 
L 348.82907 188.807149 
L 349.145962 188.310381 
L 349.779748 189.379548 
L 350.413533 189.633551 
L 350.730425 189.515827 
L 351.36421 188.369866 
L 351.681103 188.465416 
L 351.997995 189.538602 
L 352.314888 189.81006 
L 352.63178 189.864691 
L 352.948673 189.509634 
L 353.582458 190.270459 
L 354.216243 190.022855 
L 354.533135 190.663039 
L 354.850028 190.945342 
L 355.483813 191.035994 
L 356.117598 192.517762 
L 356.43449 192.648908 
L 357.068275 194.357495 
L 357.385168 194.995031 
L 358.335845 198.404652 
L 358.652738 198.513125 
L 358.96963 198.184537 
L 359.286523 198.429641 
L 359.920308 198.529891 
L 360.2372 199.712053 
L 360.554093 200.341666 
L 360.870985 201.468254 
L 361.187878 201.844389 
L 361.50477 201.871792 
L 361.821663 200.564136 
L 362.138555 200.753697 
L 362.455448 201.13037 
L 362.77234 201.123581 
L 363.089233 201.750982 
L 363.406125 201.753616 
L 363.723018 202.325604 
L 364.356803 201.982348 
L 364.673695 202.327956 
L 364.990588 202.868844 
L 365.624373 204.840876 
L 365.941265 205.715494 
L 366.258158 206.026105 
L 366.891943 207.31988 
L 367.208835 207.269664 
L 367.525728 206.372388 
L 367.84262 206.411469 
L 368.159513 206.188983 
L 368.476405 206.64793 
L 368.793298 208.157617 
L 369.11019 208.279565 
L 370.37776 216.056655 
L 371.962223 222.527327 
L 372.279115 222.909489 
L 372.596008 223.872528 
L 373.863578 231.223841 
L 374.18047 232.533119 
L 375.44804 235.327949 
L 375.764933 235.755506 
L 377.032503 238.28803 
L 377.349395 238.497883 
L 377.666288 239.12805 
L 378.300073 238.825773 
L 378.616965 239.190737 
L 379.25075 241.111029 
L 379.567643 241.443691 
L 380.201428 241.278224 
L 380.835213 242.080441 
L 381.152105 243.346576 
L 381.468998 243.413707 
L 381.78589 243.625457 
L 382.102783 243.505293 
L 382.419675 243.11881 
L 382.736568 242.167183 
L 383.05346 241.947225 
L 383.370353 242.252561 
L 384.32103 244.787065 
L 384.637923 244.93185 
L 384.954815 244.733569 
L 385.271708 245.101188 
L 385.5886 244.562502 
L 386.222385 245.153177 
L 386.539278 246.206383 
L 386.85617 246.841374 
L 387.489955 248.558337 
L 387.806848 248.344895 
L 388.440633 247.514806 
L 388.757525 247.777999 
L 389.074418 248.832854 
L 389.39131 249.434225 
L 389.708203 249.592261 
L 390.025095 250.240466 
L 390.341988 250.007808 
L 390.65888 249.45958 
L 390.975773 249.395504 
L 391.292665 249.006365 
L 391.609558 249.589324 
L 392.243343 248.385629 
L 392.560235 248.35554 
L 393.19402 247.697619 
L 393.510913 247.606171 
L 394.144698 245.498054 
L 394.46159 245.037026 
L 395.095375 243.140023 
L 395.72916 242.16918 
L 396.046053 242.445229 
L 396.362945 242.287132 
L 396.99673 241.129199 
L 398.2643 238.42292 
L 398.581193 238.764233 
L 398.898085 238.813467 
L 399.214978 237.803251 
L 399.53187 237.456115 
L 399.848763 237.612071 
L 400.165655 237.921472 
L 400.482548 239.395928 
L 400.79944 239.939606 
L 401.116333 239.798498 
L 401.750118 241.40073 
L 402.06701 242.264838 
L 402.383903 242.763455 
L 402.700795 242.529668 
L 403.017688 242.936885 
L 403.33458 242.858002 
L 403.651473 243.192754 
L 403.968365 243.329535 
L 404.285258 243.261019 
L 404.60215 243.689151 
L 405.235935 246.40948 
L 405.552828 246.367952 
L 405.86972 246.510501 
L 406.503505 248.945931 
L 407.13729 251.31709 
L 407.771075 252.725189 
L 408.087968 253.397874 
L 408.40486 253.45343 
L 408.721753 254.165537 
L 409.038645 255.321136 
L 409.355538 255.057038 
L 409.989323 252.492606 
L 410.306215 251.745796 
L 410.623108 251.560535 
L 410.623108 251.560535 
" clip-path="url(#pa5a3996d88)" style="fill: none; stroke: #1f77b4; stroke-width: 1.5; stroke-linecap: square"/>
   </g>
   <g id="patch_3">
    <path d="M 94.0475 266.245 
L 94.0475 25.92 
" style="fill: none; stroke: #000000; stroke-width: 0.8; stroke-linejoin: miter; stroke-linecap: square"/>
   </g>
   <g id="patch_4">
    <path d="M 410.94 266.245 
L 410.94 25.92 
" style="fill: none; stroke: #000000; stroke-width: 0.8; stroke-linejoin: miter; stroke-linecap: square"/>
   </g>
   <g id="patch_5">
    <path d="M 94.0475 266.245 
L 410.94 266.245 
" style="fill: none; stroke: #000000; stroke-width: 0.8; stroke-linejoin: miter; stroke-linecap: square"/>
   </g>
   <g id="patch_6">
    <path d="M 94.0475 25.92 
L 410.94 25.92 
" style="fill: none; stroke: #000000; stroke-width: 0.8; stroke-linejoin: miter; stroke-linecap: square"/>
   </g>
  </g>
 </g>
 <defs>
  <clipPath id="pa5a3996d88">
   <rect x="94.0475" y="25.92" width="316.8925" height="240.325"/>
  </clipPath>
 </defs>
</svg>
