<?xml version="1.0" encoding="utf-8" standalone="no"?>
<!DOCTYPE svg PUBLIC "-//W3C//DTD SVG 1.1//EN"
  "http://www.w3.org/Graphics/SVG/1.1/DTD/svg11.dtd">
<svg xmlns:xlink="http://www.w3.org/1999/xlink" width="460.8pt" height="345.6pt" viewBox="0 0 460.8 345.6" xmlns="http://www.w3.org/2000/svg" version="1.1">
 <metadata>
  <rdf:RDF xmlns:dc="http://purl.org/dc/elements/1.1/" xmlns:cc="http://creativecommons.org/ns#" xmlns:rdf="http://www.w3.org/1999/02/22-rdf-syntax-ns#">
   <cc:Work>
    <dc:type rdf:resource="http://purl.org/dc/dcmitype/StillImage"/>
    <dc:date>2026-01-28T11:01:55.038009</dc:date>
    <dc:format>image/svg+xml</dc:format>
    <dc:creator>
     <cc:Agent>
      <dc:title>Matplotlib v3.10.8, https://matplotlib.org/</dc:title>
     </cc:Agent>
    </dc:creator>
   </cc:Work>
  </rdf:RDF>
 </metadata>
 <defs>
  <style type="text/css">*{stroke-linejoin: round; stroke-linecap: butt}</style>
 </defs>
 <g id="figure_1">
  <g id="patch_1">
   <path d="M 0 345.6 
L 460.8 345.6 
L 460.8 0 
L 0 0 
z
" style="fill: #ffffff"/>
  </g>
  <g id="axes_1">
   <g id="patch_2">
    <path d="M 58.39 266.245 
L 426.847748 266.245 
L 426.847748 25.92 
L 58.39 25.92 
z
" style="fill: #ffffff"/>
   </g>
   <g id="matplotlib.axis_1">
    <g id="xtick_1">
     <g id="line2d_1">
      <path d="M 75.138079 266.245 
L 75.138079 25.92 
" clip-path="url(#p8c50ab36d9)" style="fill: none; stroke: #b0b0b0; stroke-width: 0.8; stroke-linecap: square"/>
     </g>
     <g id="line2d_2">
      <defs>
       <path id="mbe666d9c6e" d="M 0 0 
L 0 3.5 
" style="stroke: #000000; stroke-width: 0.8"/>
      </defs>
      <g>
       <use xlink:href="#mbe666d9c6e" x="75.138079" y="266.245" style="stroke: #000000; stroke-width: 0.8"/>
      </g>
     </g>
     <g id="text_1">
      <!-- 0 -->
      <g transform="translate(69.138079 289.63625) scale(0.24 -0.24)">
       <defs>
        <path id="TeXGyreTermes-Regular-30" d="M 3046 2112 
C 3046 3424 2464 4326 1626 4326 
C 1274 4326 1005 4218 768 3994 
C 397 3635 154 2899 154 2150 
C 154 1453 365 704 666 346 
C 902 64 1229 -90 1600 -90 
C 1926 -90 2202 19 2432 243 
C 2803 595 3046 1338 3046 2112 
z
M 2432 2099 
C 2432 762 2150 77 1600 77 
C 1050 77 768 762 768 2093 
C 768 3450 1056 4160 1606 4160 
C 2144 4160 2432 3437 2432 2099 
z
" transform="scale(0.015625)"/>
       </defs>
       <use xlink:href="#TeXGyreTermes-Regular-30"/>
      </g>
     </g>
    </g>
    <g id="xtick_2">
     <g id="line2d_3">
      <path d="M 158.962301 266.245 
L 158.962301 25.92 
" clip-path="url(#p8c50ab36d9)" style="fill: none; stroke: #b0b0b0; stroke-width: 0.8; stroke-linecap: square"/>
     </g>
     <g id="line2d_4">
      <g>
       <use xlink:href="#mbe666d9c6e" x="158.962301" y="266.245" style="stroke: #000000; stroke-width: 0.8"/>
      </g>
     </g>
     <g id="text_2">
      <!-- 250 -->
      <g transform="translate(140.962301 289.63625) scale(0.24 -0.24)">
       <defs>
        <path id="TeXGyreTermes-Regular-32" d="M 3040 877 
L 2957 909 
C 2720 544 2637 486 2349 486 
L 819 486 
L 1894 1613 
C 2464 2208 2714 2694 2714 3194 
C 2714 3834 2195 4326 1530 4326 
C 1178 4326 845 4186 608 3930 
C 403 3712 307 3507 198 3053 
L 333 3021 
C 589 3648 819 3853 1261 3853 
C 1798 3853 2163 3488 2163 2950 
C 2163 2451 1869 1856 1331 1286 
L 192 77 
L 192 0 
L 2688 0 
L 3040 877 
z
" transform="scale(0.015625)"/>
        <path id="TeXGyreTermes-Regular-35" d="M 2803 4358 
L 2746 4403 
C 2650 4269 2586 4237 2451 4237 
L 1114 4237 
L 416 2720 
C 410 2707 410 2688 410 2688 
C 410 2656 435 2637 486 2637 
C 691 2637 947 2592 1210 2509 
C 1946 2272 2285 1875 2285 1242 
C 2285 627 1894 147 1395 147 
C 1267 147 1158 192 966 333 
C 762 480 614 544 480 544 
C 294 544 205 467 205 307 
C 205 64 506 -90 986 -90 
C 1523 -90 1984 83 2304 410 
C 2598 698 2733 1062 2733 1549 
C 2733 2010 2611 2304 2291 2624 
C 2010 2906 1645 3053 890 3187 
L 1158 3731 
L 2413 3731 
C 2515 3731 2541 3744 2560 3789 
L 2803 4358 
z
" transform="scale(0.015625)"/>
       </defs>
       <use xlink:href="#TeXGyreTermes-Regular-32"/>
       <use xlink:href="#TeXGyreTermes-Regular-35" transform="translate(49.999985 0)"/>
       <use xlink:href="#TeXGyreTermes-Regular-30" transform="translate(99.999969 0)"/>
      </g>
     </g>
    </g>
    <g id="xtick_3">
     <g id="line2d_5">
      <path d="M 242.786522 266.245 
L 242.786522 25.92 
" clip-path="url(#p8c50ab36d9)" style="fill: none; stroke: #b0b0b0; stroke-width: 0.8; stroke-linecap: square"/>
     </g>
     <g id="line2d_6">
      <g>
       <use xlink:href="#mbe666d9c6e" x="242.786522" y="266.245" style="stroke: #000000; stroke-width: 0.8"/>
      </g>
     </g>
     <g id="text_3">
      <!-- 500 -->
      <g transform="translate(224.786522 289.63625) scale(0.24 -0.24)">
       <use xlink:href="#TeXGyreTermes-Regular-35"/>
       <use xlink:href="#TeXGyreTermes-Regular-30" transform="translate(49.999985 0)"/>
       <use xlink:href="#TeXGyreTermes-Regular-30" transform="translate(99.999969 0)"/>
      </g>
     </g>
    </g>
    <g id="xtick_4">
     <g id="line2d_7">
      <path d="M 326.610744 266.245 
L 326.610744 25.92 
" clip-path="url(#p8c50ab36d9)" style="fill: none; stroke: #b0b0b0; stroke-width: 0.8; stroke-linecap: square"/>
     </g>
     <g id="line2d_8">
      <g>
       <use xlink:href="#mbe666d9c6e" x="326.610744" y="266.245" style="stroke: #000000; stroke-width: 0.8"/>
      </g>
     </g>
     <g id="text_4">
      <!-- 750 -->
      <g transform="translate(308.610744 289.63625) scale(0.24 -0.24)">
       <defs>
        <path id="TeXGyreTermes-Regular-37" d="M 2874 4134 
L 2874 4237 
L 506 4237 
L 128 3296 
L 237 3245 
C 512 3680 627 3763 979 3763 
L 2368 3763 
L 1101 -51 
L 1517 -51 
L 2874 4134 
z
" transform="scale(0.015625)"/>
       </defs>
       <use xlink:href="#TeXGyreTermes-Regular-37"/>
       <use xlink:href="#TeXGyreTermes-Regular-35" transform="translate(49.999985 0)"/>
       <use xlink:href="#TeXGyreTermes-Regular-30" transform="translate(99.999969 0)"/>
      </g>
     </g>
    </g>
    <g id="xtick_5">
     <g id="line2d_9">
      <path d="M 410.434965 266.245 
L 410.434965 25.92 
" clip-path="url(#p8c50ab36d9)" style="fill: none; stroke: #b0b0b0; stroke-width: 0.8; stroke-linecap: square"/>
     </g>
     <g id="line2d_10">
      <g>
       <use xlink:href="#mbe666d9c6e" x="410.434965" y="266.245" style="stroke: #000000; stroke-width: 0.8"/>
      </g>
     </g>
     <g id="text_5">
      <!-- 1000 -->
      <g transform="translate(386.434965 289.63625) scale(0.24 -0.24)">
       <defs>
        <path id="TeXGyreTermes-Regular-31" d="M 2522 0 
L 2522 96 
C 2016 102 1914 166 1914 474 
L 1914 4314 
L 1862 4326 
L 710 3744 
L 710 3654 
C 787 3686 858 3712 883 3725 
C 998 3770 1107 3795 1171 3795 
C 1306 3795 1363 3699 1363 3494 
L 1363 595 
C 1363 384 1312 237 1210 179 
C 1114 122 1024 102 755 96 
L 755 0 
L 2522 0 
z
" transform="scale(0.015625)"/>
       </defs>
       <use xlink:href="#TeXGyreTermes-Regular-31"/>
       <use xlink:href="#TeXGyreTermes-Regular-30" transform="translate(49.999985 0)"/>
       <use xlink:href="#TeXGyreTermes-Regular-30" transform="translate(99.999969 0)"/>
       <use xlink:href="#TeXGyreTermes-Regular-30" transform="translate(149.999954 0)"/>
      </g>
     </g>
    </g>
    <g id="text_6">
     <!-- Schritt k -->
     <g transform="translate(201.616374 315.23625) scale(0.24 -0.24)">
      <defs>
       <path id="TeXGyreTermes-Regular-53" d="M 3142 1075 
C 3142 1606 2790 2016 1946 2477 
C 1274 2842 1005 3123 1005 3475 
C 1005 3827 1274 4064 1670 4064 
C 1958 4064 2227 3942 2451 3712 
C 2650 3507 2739 3341 2842 2963 
L 3002 2963 
L 2861 4326 
L 2726 4326 
C 2701 4186 2630 4109 2522 4109 
C 2458 4109 2355 4134 2240 4186 
C 2003 4275 1773 4326 1549 4326 
C 1299 4326 1030 4224 826 4058 
C 576 3853 454 3578 454 3226 
C 454 2720 736 2362 1453 1984 
C 1914 1734 2246 1478 2406 1235 
C 2464 1146 2496 1018 2496 858 
C 2496 435 2176 141 1709 141 
C 1133 141 736 493 416 1274 
L 269 1274 
L 461 -83 
L 602 -83 
C 608 38 685 128 781 128 
C 851 128 960 102 1082 58 
C 1325 -38 1581 -90 1837 -90 
C 2579 -90 3142 416 3142 1075 
z
" transform="scale(0.015625)"/>
       <path id="TeXGyreTermes-Regular-63" d="M 2637 941 
L 2547 998 
C 2240 550 2010 397 1645 397 
C 1056 397 653 909 653 1645 
C 653 2310 1005 2758 1523 2758 
C 1754 2758 1837 2688 1901 2451 
L 1939 2310 
C 1990 2125 2106 2016 2246 2016 
C 2413 2016 2547 2138 2547 2285 
C 2547 2643 2099 2944 1562 2944 
C 1261 2944 954 2829 698 2618 
C 352 2330 160 1888 160 1357 
C 160 531 666 -64 1376 -64 
C 1651 -64 1894 26 2112 205 
C 2304 358 2432 544 2637 941 
z
" transform="scale(0.015625)"/>
       <path id="TeXGyreTermes-Regular-68" d="M 3117 0 
L 3117 96 
C 2771 160 2733 211 2733 653 
L 2733 1926 
C 2733 2598 2464 2944 1946 2944 
C 1568 2944 1299 2790 1005 2406 
L 1005 4352 
L 973 4371 
C 755 4294 595 4243 237 4141 
L 64 4090 
L 64 3987 
C 90 3994 109 3994 141 3994 
C 416 3994 467 3942 467 3667 
L 467 653 
C 467 205 429 147 58 96 
L 58 0 
L 1440 0 
L 1440 96 
C 1069 134 1005 211 1005 653 
L 1005 2195 
C 1274 2490 1466 2598 1715 2598 
C 2035 2598 2195 2368 2195 1920 
L 2195 653 
C 2195 218 2131 134 1760 96 
L 1760 0 
L 3117 0 
z
" transform="scale(0.015625)"/>
       <path id="TeXGyreTermes-Regular-72" d="M 2144 2605 
C 2144 2816 2010 2944 1792 2944 
C 1523 2944 1338 2797 1024 2342 
L 1024 2931 
L 992 2944 
C 653 2803 422 2720 45 2598 
L 45 2496 
C 134 2515 192 2522 269 2522 
C 429 2522 486 2419 486 2138 
L 486 538 
C 486 218 442 173 32 96 
L 32 0 
L 1568 0 
L 1568 96 
C 1133 115 1024 211 1024 576 
L 1024 2016 
C 1024 2221 1299 2541 1472 2541 
C 1510 2541 1568 2509 1638 2445 
C 1741 2355 1811 2317 1894 2317 
C 2048 2317 2144 2426 2144 2605 
z
" transform="scale(0.015625)"/>
       <path id="TeXGyreTermes-Regular-69" d="M 1619 0 
L 1619 96 
C 1197 128 1146 192 1146 653 
L 1146 2925 
L 1120 2944 
L 128 2592 
L 128 2496 
L 179 2502 
C 256 2515 339 2522 397 2522 
C 550 2522 608 2419 608 2138 
L 608 653 
C 608 192 544 122 102 96 
L 102 0 
L 1619 0 
z
M 1203 3776 
C 1203 3955 1062 4102 877 4102 
C 698 4102 550 3955 550 3776 
C 550 3590 698 3450 877 3450 
C 1062 3450 1203 3590 1203 3776 
z
" transform="scale(0.015625)"/>
       <path id="TeXGyreTermes-Regular-74" d="M 1786 422 
L 1702 493 
C 1562 326 1459 269 1318 269 
C 1082 269 986 435 986 845 
L 986 2675 
L 1632 2675 
L 1632 2880 
L 986 2880 
L 986 3622 
C 986 3686 973 3706 941 3706 
C 902 3642 858 3584 813 3526 
C 576 3174 358 2938 192 2842 
C 122 2797 83 2758 83 2720 
C 83 2701 90 2688 109 2675 
L 448 2675 
L 448 749 
C 448 211 640 -64 1011 -64 
C 1331 -64 1574 90 1786 422 
z
" transform="scale(0.015625)"/>
       <path id="TeXGyreTermes-Regular-20" transform="scale(0.015625)"/>
       <path id="TeXGyreTermes-Regular-6b" d="M 3232 0 
L 3232 96 
C 2950 115 2752 237 2483 563 
L 1504 1805 
L 1690 1978 
C 2144 2400 2541 2694 2726 2746 
C 2822 2771 2912 2784 3021 2784 
L 3072 2784 
L 3072 2880 
L 1766 2880 
L 1766 2790 
C 2016 2784 2086 2758 2086 2669 
C 2086 2618 2029 2528 1939 2451 
L 1062 1670 
L 1062 4358 
L 1037 4371 
L 237 4141 
L 45 4090 
L 45 3987 
C 128 3994 186 4000 250 4000 
C 461 4000 525 3917 525 3610 
L 525 525 
C 525 192 506 173 45 96 
L 45 0 
L 1542 0 
L 1542 96 
L 1414 102 
C 1158 115 1062 205 1062 429 
L 1062 1606 
L 1958 410 
L 1978 384 
C 1990 365 2003 346 2022 326 
C 2074 262 2093 224 2093 192 
C 2093 134 2035 96 1958 96 
L 1837 96 
L 1837 0 
L 3232 0 
z
" transform="scale(0.015625)"/>
      </defs>
      <use xlink:href="#TeXGyreTermes-Regular-53"/>
      <use xlink:href="#TeXGyreTermes-Regular-63" transform="translate(55.599991 0)"/>
      <use xlink:href="#TeXGyreTermes-Regular-68" transform="translate(99.999985 0)"/>
      <use xlink:href="#TeXGyreTermes-Regular-72" transform="translate(149.999969 0)"/>
      <use xlink:href="#TeXGyreTermes-Regular-69" transform="translate(183.299957 0)"/>
      <use xlink:href="#TeXGyreTermes-Regular-74" transform="translate(211.099945 0)"/>
      <use xlink:href="#TeXGyreTermes-Regular-74" transform="translate(238.899933 0)"/>
      <use xlink:href="#TeXGyreTermes-Regular-20" transform="translate(266.699921 0)"/>
      <use xlink:href="#TeXGyreTermes-Regular-6b" transform="translate(291.699905 0)"/>
     </g>
    </g>
   </g>
   <g id="matplotlib.axis_2">
    <g id="ytick_1">
     <g id="line2d_11">
      <path d="M 58.39 242.669221 
L 426.847748 242.669221 
" clip-path="url(#p8c50ab36d9)" style="fill: none; stroke: #b0b0b0; stroke-width: 0.8; stroke-linecap: square"/>
     </g>
     <g id="line2d_12">
      <defs>
       <path id="m93edf33b18" d="M 0 0 
L -3.5 0 
" style="stroke: #000000; stroke-width: 0.8"/>
      </defs>
      <g>
       <use xlink:href="#m93edf33b18" x="58.39" y="242.669221" style="stroke: #000000; stroke-width: 0.8"/>
      </g>
     </g>
     <g id="text_7">
      <!-- −2 -->
      <g transform="translate(25.8525 250.864846) scale(0.24 -0.24)">
       <defs>
        <path id="TeXGyreTermes-Regular-2212" d="M 3354 1389 
L 3354 1811 
L 256 1811 
L 256 1389 
L 3354 1389 
z
" transform="scale(0.015625)"/>
       </defs>
       <use xlink:href="#TeXGyreTermes-Regular-2212"/>
       <use xlink:href="#TeXGyreTermes-Regular-32" transform="translate(56.399994 0)"/>
      </g>
     </g>
    </g>
    <g id="ytick_2">
     <g id="line2d_13">
      <path d="M 58.39 158.689407 
L 426.847748 158.689407 
" clip-path="url(#p8c50ab36d9)" style="fill: none; stroke: #b0b0b0; stroke-width: 0.8; stroke-linecap: square"/>
     </g>
     <g id="line2d_14">
      <g>
       <use xlink:href="#m93edf33b18" x="58.39" y="158.689407" style="stroke: #000000; stroke-width: 0.8"/>
      </g>
     </g>
     <g id="text_8">
      <!-- 0 -->
      <g transform="translate(39.39 166.885032) scale(0.24 -0.24)">
       <use xlink:href="#TeXGyreTermes-Regular-30"/>
      </g>
     </g>
    </g>
    <g id="ytick_3">
     <g id="line2d_15">
      <path d="M 58.39 74.709593 
L 426.847748 74.709593 
" clip-path="url(#p8c50ab36d9)" style="fill: none; stroke: #b0b0b0; stroke-width: 0.8; stroke-linecap: square"/>
     </g>
     <g id="line2d_16">
      <g>
       <use xlink:href="#m93edf33b18" x="58.39" y="74.709593" style="stroke: #000000; stroke-width: 0.8"/>
      </g>
     </g>
     <g id="text_9">
      <!-- 2 -->
      <g transform="translate(39.39 82.905218) scale(0.24 -0.24)">
       <use xlink:href="#TeXGyreTermes-Regular-32"/>
      </g>
     </g>
    </g>
   </g>
   <g id="line2d_17">
    <path d="M 75.138079 104.167647 
L 75.473376 103.812375 
L 75.808673 97.062305 
L 76.14397 74.177233 
L 76.479267 74.007592 
L 77.149861 96.400618 
L 77.485158 102.256219 
L 77.820455 100.782164 
L 78.155751 111.671273 
L 78.491048 108.545791 
L 78.826345 92.19598 
L 79.496939 120.380249 
L 80.167533 119.596415 
L 80.50283 71.453556 
L 80.838127 70.47524 
L 81.173423 88.537296 
L 81.50872 83.157189 
L 81.844017 91.130411 
L 82.179314 89.916779 
L 82.514611 85.892589 
L 83.185205 104.79217 
L 83.520502 85.31093 
L 83.855798 88.831915 
L 84.191095 87.700612 
L 84.526392 69.073096 
L 85.196986 53.020322 
L 85.532283 57.072188 
L 85.86758 55.954402 
L 86.202877 83.161782 
L 86.538174 85.492632 
L 86.87347 77.837347 
L 87.208767 85.294931 
L 87.544064 95.350084 
L 87.879361 77.272526 
L 88.214658 85.87935 
L 88.549955 75.889584 
L 89.220549 115.015823 
L 89.555846 123.371738 
L 89.891142 134.751835 
L 90.226439 120.56949 
L 90.561736 134.574611 
L 90.897033 143.766807 
L 91.23233 162.024426 
L 91.567627 142.895595 
L 91.902924 144.983178 
L 92.238221 143.712584 
L 92.573518 149.811058 
L 92.908814 134.888929 
L 93.244111 141.985839 
L 93.914705 139.717611 
L 94.250002 132.111952 
L 94.585299 117.966594 
L 94.920596 122.911434 
L 95.255893 130.46921 
L 95.591189 131.594475 
L 95.926486 132.00425 
L 96.261783 123.784474 
L 96.59708 123.688777 
L 96.932377 135.59565 
L 97.267674 111.508523 
L 97.602971 127.857107 
L 97.938268 152.776961 
L 98.273565 154.7084 
L 98.608861 150.549357 
L 99.279455 146.567684 
L 99.614752 136.584398 
L 99.950049 116.321682 
L 100.285346 116.273155 
L 100.620643 97.903634 
L 100.95594 94.619353 
L 101.626533 120.76144 
L 101.96183 116.687065 
L 102.297127 105.782658 
L 102.632424 109.435762 
L 102.967721 103.631267 
L 103.303018 123.967028 
L 103.638315 126.692548 
L 103.973612 124.640181 
L 104.308909 151.287743 
L 104.644205 155.991504 
L 104.979502 158.875668 
L 105.314799 153.729333 
L 105.650096 156.130825 
L 105.985393 151.08565 
L 106.32069 148.872574 
L 106.655987 151.551945 
L 106.991284 140.969191 
L 107.32658 114.534233 
L 107.661877 98.194325 
L 107.997174 100.125132 
L 108.332471 104.192932 
L 108.667768 102.717755 
L 109.003065 108.292584 
L 109.338362 122.412509 
L 109.673659 113.583303 
L 110.008956 115.473992 
L 110.344252 130.019056 
L 110.679549 125.155775 
L 111.014846 107.278596 
L 111.350143 117.686492 
L 111.68544 132.808713 
L 112.020737 117.759575 
L 112.356034 122.229384 
L 112.691331 117.542903 
L 113.026628 122.918604 
L 113.697221 114.078494 
L 114.032518 121.201965 
L 114.367815 122.279407 
L 114.703112 120.700476 
L 115.038409 100.656954 
L 115.709003 150.912102 
L 116.0443 152.011274 
L 116.379596 156.052914 
L 116.714893 145.738213 
L 117.05019 149.930451 
L 117.385487 146.814401 
L 117.720784 151.336519 
L 118.056081 140.989772 
L 118.391378 149.2781 
L 118.726675 150.466377 
L 119.397268 161.815068 
L 119.732565 157.110309 
L 120.403159 172.286478 
L 120.738456 175.03816 
L 121.073753 170.114997 
L 121.40905 166.847525 
L 121.744347 165.292169 
L 122.079643 169.294866 
L 122.41494 165.654867 
L 122.750237 144.551145 
L 123.085534 135.200912 
L 123.420831 142.745394 
L 123.756128 137.442524 
L 124.091425 133.950608 
L 124.426722 143.116587 
L 124.762019 138.883128 
L 125.097315 113.550076 
L 125.432612 118.090008 
L 125.767909 120.324387 
L 126.103206 124.426955 
L 126.438503 136.152086 
L 126.7738 132.423314 
L 127.444394 92.861654 
L 127.779691 96.054269 
L 128.114987 123.040332 
L 128.450284 135.988765 
L 128.785581 112.840737 
L 129.120878 115.209119 
L 129.456175 122.003302 
L 129.791472 110.250644 
L 130.126769 114.5564 
L 130.797362 107.210894 
L 131.132659 117.513197 
L 131.467956 135.225325 
L 131.803253 144.191633 
L 132.13855 120.56902 
L 132.473847 127.048277 
L 132.809144 99.589431 
L 133.144441 103.237684 
L 133.479738 111.606544 
L 133.815034 124.309232 
L 134.150331 122.717055 
L 134.485628 147.212008 
L 134.820925 138.325523 
L 135.156222 134.498989 
L 135.491519 135.10264 
L 135.826816 106.339714 
L 136.162113 106.995387 
L 136.49741 109.387657 
L 136.832706 104.45307 
L 137.5033 76.825446 
L 137.838597 82.228251 
L 138.173894 67.657894 
L 138.509191 72.916197 
L 138.844488 71.554903 
L 139.179785 76.290095 
L 140.185675 117.89954 
L 140.520972 95.924271 
L 140.856269 103.510878 
L 141.191566 103.500611 
L 141.526863 107.000597 
L 141.86216 103.137709 
L 142.197457 125.848257 
L 142.532753 139.152488 
L 143.203347 106.429996 
L 143.538644 125.99372 
L 143.873941 128.903764 
L 144.209238 93.18746 
L 144.544535 74.04171 
L 145.215129 91.43429 
L 145.550425 77.985498 
L 145.885722 74.964461 
L 146.221019 70.199743 
L 146.556316 73.256687 
L 146.891613 90.30276 
L 147.562207 103.858827 
L 147.897504 92.336911 
L 148.232801 86.445604 
L 148.568097 101.093683 
L 148.903394 88.222439 
L 149.238691 94.599008 
L 149.573988 75.919817 
L 149.909285 75.865384 
L 150.579879 99.71402 
L 150.915176 75.10432 
L 151.250473 73.406199 
L 151.585769 90.271298 
L 151.921066 85.133234 
L 152.256363 86.112811 
L 152.59166 95.876902 
L 152.926957 95.719213 
L 153.262254 98.854891 
L 153.597551 97.56673 
L 153.932848 102.355519 
L 154.268144 92.371672 
L 154.603441 67.022849 
L 154.938738 67.077491 
L 155.609332 36.843864 
L 156.279926 50.588845 
L 156.95052 41.756398 
L 157.285816 71.040405 
L 157.621113 70.000367 
L 157.95641 76.064833 
L 158.291707 79.122619 
L 158.627004 87.633643 
L 158.962301 88.623965 
L 159.297598 69.294513 
L 159.632895 75.098507 
L 160.303488 102.250693 
L 160.638785 101.820991 
L 160.974082 97.487653 
L 161.309379 89.117241 
L 161.644676 113.245408 
L 161.979973 98.775901 
L 162.31527 107.676585 
L 162.650567 130.764787 
L 162.985864 103.455233 
L 163.32116 101.589954 
L 163.656457 126.971437 
L 163.991754 126.463555 
L 164.327051 124.404252 
L 164.662348 110.639821 
L 164.997645 114.533734 
L 165.332942 84.165736 
L 165.668239 103.102637 
L 166.003535 112.232018 
L 166.338832 104.684435 
L 166.674129 111.407284 
L 167.009426 129.294758 
L 167.344723 117.114451 
L 167.68002 141.526503 
L 168.015317 120.701936 
L 168.350614 110.34813 
L 168.685911 86.270927 
L 169.021207 82.50915 
L 169.356504 76.556726 
L 169.691801 75.489074 
L 170.027098 93.680174 
L 170.362395 78.697614 
L 170.697692 73.658672 
L 171.032989 92.141158 
L 171.368286 77.112598 
L 171.703583 78.064663 
L 172.038879 100.217616 
L 172.374176 89.731844 
L 172.709473 85.870823 
L 173.04477 72.985121 
L 173.715364 110.117288 
L 174.050661 118.156321 
L 174.385958 144.008888 
L 174.721255 135.546301 
L 175.056551 131.633405 
L 175.391848 147.392704 
L 175.727145 133.178765 
L 176.397739 117.737741 
L 176.733036 130.330654 
L 177.068333 128.635167 
L 177.40363 128.600114 
L 177.738926 143.682885 
L 178.074223 138.12212 
L 178.40952 122.29792 
L 178.744817 129.017727 
L 179.080114 145.26513 
L 179.415411 173.80268 
L 179.750708 164.050173 
L 180.086005 165.240803 
L 180.421302 156.480105 
L 180.756598 167.521285 
L 181.091895 157.997063 
L 181.427192 171.023356 
L 181.762489 170.469931 
L 182.097786 162.85766 
L 183.103677 148.29608 
L 183.438974 155.841683 
L 184.444864 165.284579 
L 185.115458 189.75099 
L 185.450755 189.983714 
L 185.786052 216.594874 
L 186.121349 208.755396 
L 186.456646 209.284762 
L 186.791942 195.393506 
L 187.127239 199.339552 
L 187.462536 197.378646 
L 188.13313 197.848105 
L 188.803724 229.538788 
L 189.139021 223.74016 
L 189.474317 232.703659 
L 190.144911 196.092625 
L 190.480208 176.534901 
L 190.815505 164.72849 
L 191.150802 170.212229 
L 191.486099 188.433908 
L 191.821396 166.594882 
L 192.156693 175.877701 
L 192.827286 169.106092 
L 193.49788 157.133154 
L 193.833177 162.890183 
L 194.168474 161.10105 
L 194.503771 151.876081 
L 194.839068 171.994103 
L 195.174365 164.983887 
L 195.509661 170.133796 
L 195.844958 181.831591 
L 196.180255 174.529957 
L 196.850849 206.678067 
L 197.186146 188.31016 
L 197.521443 205.853894 
L 197.85674 197.087322 
L 198.192037 211.215132 
L 198.527333 197.288907 
L 198.86263 189.653278 
L 199.197927 177.77411 
L 199.533224 179.77287 
L 199.868521 175.859892 
L 200.203818 157.40183 
L 200.539115 151.936087 
L 200.874412 166.346496 
L 201.209708 162.532081 
L 201.545005 172.977765 
L 201.880302 174.289954 
L 202.215599 185.318561 
L 202.550896 187.952177 
L 203.22149 179.10025 
L 203.556787 184.343421 
L 203.892084 179.467135 
L 204.22738 166.380171 
L 204.562677 167.694318 
L 205.233271 178.22858 
L 205.568568 187.276088 
L 205.903865 178.567366 
L 206.239162 193.022009 
L 206.574459 181.471286 
L 207.245052 186.093998 
L 207.580349 190.291106 
L 207.915646 192.74707 
L 208.250943 191.623137 
L 208.58624 196.171653 
L 208.921537 197.119753 
L 209.592131 182.119906 
L 209.927428 179.527881 
L 210.262724 187.905476 
L 210.598021 167.114853 
L 210.933318 170.237848 
L 211.268615 167.118495 
L 211.603912 186.241564 
L 211.939209 175.648493 
L 212.274506 179.255814 
L 212.609803 189.316503 
L 212.945099 168.343033 
L 213.280396 183.183515 
L 213.615693 168.55346 
L 213.95099 169.116209 
L 214.286287 168.39844 
L 214.621584 184.735049 
L 215.292178 167.690952 
L 215.627475 192.514455 
L 215.962771 179.4187 
L 216.298068 140.613921 
L 216.633365 148.419954 
L 216.968662 135.664195 
L 217.303959 153.611409 
L 217.639256 164.192537 
L 217.974553 167.277715 
L 218.30985 169.174207 
L 218.645147 178.527277 
L 218.980443 169.336105 
L 219.31574 167.431134 
L 219.651037 182.796102 
L 219.986334 176.360459 
L 220.656928 195.405867 
L 220.992225 198.025622 
L 221.327522 205.715173 
L 221.662819 188.955176 
L 221.998115 186.979284 
L 222.333412 188.270898 
L 222.668709 188.321153 
L 223.004006 184.541003 
L 223.339303 192.53941 
L 223.6746 175.072478 
L 224.009897 182.351946 
L 224.68049 207.565133 
L 225.015787 197.652616 
L 225.351084 208.203577 
L 225.686381 201.92064 
L 226.021678 204.368087 
L 226.356975 209.995947 
L 226.692272 213.022199 
L 227.027569 230.264513 
L 227.362866 225.736601 
L 227.698162 202.850469 
L 228.033459 202.37379 
L 228.704053 208.127701 
L 229.03935 195.386636 
L 229.374647 172.891514 
L 229.709944 175.880492 
L 230.380538 203.506373 
L 230.715834 195.506352 
L 231.051131 190.988404 
L 231.721725 168.00646 
L 232.057022 163.143157 
L 232.392319 170.72633 
L 232.727616 170.782651 
L 233.062913 192.143818 
L 233.39821 180.154256 
L 233.733506 162.598581 
L 234.068803 169.734284 
L 234.4041 184.806337 
L 234.739397 164.689396 
L 235.074694 173.668973 
L 235.409991 190.087629 
L 235.745288 200.953952 
L 236.080585 197.276464 
L 236.415881 209.284697 
L 236.751178 186.912101 
L 237.086475 214.096764 
L 237.421772 212.046507 
L 237.757069 208.436641 
L 238.092366 209.199134 
L 238.427663 204.065063 
L 238.76296 213.14418 
L 239.098257 216.466866 
L 239.433553 232.158416 
L 240.104147 211.212477 
L 240.439444 223.397151 
L 240.774741 226.362781 
L 241.110038 227.968001 
L 241.445335 221.501194 
L 241.780632 217.538334 
L 242.115929 200.756766 
L 242.451225 194.454541 
L 242.786522 203.72272 
L 243.121819 198.254078 
L 243.457116 199.56139 
L 243.792413 201.655089 
L 244.463007 213.790272 
L 245.133601 221.019887 
L 245.468897 219.733467 
L 245.804194 215.049846 
L 246.139491 226.958589 
L 246.810085 215.935999 
L 247.815976 183.314515 
L 248.151272 160.564333 
L 248.486569 172.493369 
L 248.821866 178.628742 
L 249.49246 141.232123 
L 250.163054 165.937139 
L 250.498351 152.896605 
L 250.833648 160.843874 
L 251.168944 164.803709 
L 251.504241 159.186338 
L 251.839538 146.470996 
L 252.174835 146.176833 
L 252.510132 151.339891 
L 252.845429 135.295553 
L 253.180726 141.202829 
L 253.516023 164.680661 
L 253.85132 164.218302 
L 254.186616 171.792885 
L 254.521913 150.457229 
L 254.85721 159.216557 
L 255.192507 157.140205 
L 255.527804 167.227935 
L 255.863101 158.946996 
L 256.198398 159.109475 
L 256.533695 162.267317 
L 257.539585 149.409036 
L 257.874882 132.372918 
L 258.210179 131.636158 
L 258.545476 121.084875 
L 258.880773 101.640736 
L 259.21607 97.284113 
L 259.551367 83.680091 
L 259.886663 105.766218 
L 260.22196 107.23891 
L 260.557257 125.85275 
L 260.892554 125.026106 
L 261.227851 125.942501 
L 261.563148 134.903305 
L 261.898445 138.06808 
L 262.233742 134.594354 
L 262.569039 136.173061 
L 262.904335 141.117742 
L 263.239632 133.853634 
L 263.574929 132.770408 
L 263.910226 123.255932 
L 264.58082 143.118549 
L 265.251414 155.213047 
L 265.586711 155.956585 
L 265.922007 170.939718 
L 266.257304 158.612802 
L 266.592601 158.520641 
L 266.927898 161.0231 
L 267.263195 160.799671 
L 267.933789 128.90815 
L 268.269086 136.190111 
L 268.604383 128.320618 
L 268.939679 138.45765 
L 269.274976 134.406861 
L 269.610273 141.299937 
L 269.94557 151.459053 
L 270.280867 157.394249 
L 270.616164 156.977324 
L 270.951461 160.313772 
L 271.286758 152.079698 
L 271.622054 125.53936 
L 271.957351 115.537103 
L 272.292648 135.608463 
L 272.627945 143.6501 
L 272.963242 126.345622 
L 273.298539 136.479145 
L 273.633836 138.656132 
L 273.969133 147.750999 
L 274.30443 149.368464 
L 274.639726 147.296222 
L 274.975023 143.534046 
L 275.31032 156.737707 
L 275.645617 157.963353 
L 275.980914 143.660966 
L 276.316211 141.564858 
L 276.651508 126.328831 
L 276.986805 145.719725 
L 277.322102 151.22999 
L 277.657398 154.380416 
L 277.992695 161.053887 
L 278.327992 132.068364 
L 278.663289 126.137548 
L 278.998586 144.117949 
L 279.333883 147.197801 
L 279.66918 141.816198 
L 280.004477 162.045485 
L 280.67507 168.874652 
L 281.010367 174.438597 
L 281.345664 188.975602 
L 281.680961 176.747242 
L 282.351555 141.124665 
L 282.686852 147.827532 
L 283.022149 158.155584 
L 283.357445 151.099866 
L 283.692742 169.126284 
L 284.028039 151.109876 
L 284.363336 144.607599 
L 285.03393 170.488257 
L 285.369227 160.344279 
L 285.704524 192.429397 
L 286.039821 190.505169 
L 286.375117 202.801509 
L 286.710414 202.812206 
L 287.045711 223.418513 
L 287.381008 214.311157 
L 287.716305 210.344707 
L 288.051602 196.697165 
L 288.386899 193.48263 
L 288.722196 192.336265 
L 289.057493 203.124966 
L 289.392789 202.542833 
L 289.728086 206.221012 
L 290.063383 191.046463 
L 290.39868 184.062974 
L 290.733977 185.203494 
L 291.069274 186.87347 
L 291.404571 189.765254 
L 291.739868 183.722969 
L 292.075165 189.78891 
L 292.410461 192.069257 
L 292.745758 185.960044 
L 293.081055 166.388267 
L 293.416352 177.579418 
L 293.751649 181.865994 
L 294.086946 177.629506 
L 294.422243 191.364276 
L 294.75754 199.20201 
L 295.092836 202.327284 
L 295.428133 190.595942 
L 295.76343 203.811827 
L 296.098727 196.699243 
L 296.434024 208.77353 
L 296.769321 206.522447 
L 297.104618 213.807166 
L 297.775212 188.15942 
L 298.110508 194.125017 
L 298.445805 193.962043 
L 298.781102 181.868541 
L 299.116399 182.877769 
L 299.451696 190.955135 
L 299.786993 209.615039 
L 300.12229 205.57913 
L 300.457587 195.967509 
L 300.792884 203.026195 
L 301.12818 202.122021 
L 301.463477 177.117987 
L 301.798774 179.484973 
L 302.469368 198.538094 
L 302.804665 213.69467 
L 303.475259 177.583387 
L 304.145852 202.729563 
L 304.481149 212.076001 
L 304.816446 196.943648 
L 305.151743 198.441136 
L 305.822337 158.20866 
L 306.157634 169.800673 
L 306.492931 170.765675 
L 306.828227 168.725177 
L 307.163524 170.512857 
L 307.498821 168.815009 
L 307.834118 152.270256 
L 308.504712 162.835771 
L 308.840009 176.681121 
L 309.175306 185.52887 
L 309.510603 168.476203 
L 309.845899 182.705945 
L 310.181196 158.329312 
L 310.516493 152.243755 
L 310.85179 149.533852 
L 311.522384 154.625215 
L 311.857681 140.445136 
L 312.192978 147.561863 
L 312.528275 183.226911 
L 312.863571 174.981169 
L 313.198868 184.988738 
L 313.534165 165.222471 
L 313.869462 160.392332 
L 314.204759 181.305396 
L 314.540056 165.849162 
L 314.875353 171.996529 
L 315.21065 173.694196 
L 315.545947 185.51099 
L 315.881243 188.550466 
L 316.21654 193.072154 
L 316.551837 195.242511 
L 316.887134 209.684438 
L 317.222431 218.674956 
L 317.557728 209.945958 
L 317.893025 189.137764 
L 318.228322 179.093956 
L 318.563618 178.492243 
L 318.898915 185.868329 
L 319.234212 198.696226 
L 319.569509 189.186281 
L 319.904806 195.576672 
L 320.5754 222.609404 
L 320.910697 207.758592 
L 321.245994 206.921934 
L 321.58129 191.451097 
L 321.916587 197.914401 
L 322.251884 193.095595 
L 322.587181 191.903045 
L 322.922478 181.527336 
L 323.928369 201.947192 
L 324.263666 186.276725 
L 324.598962 185.041668 
L 324.934259 193.420133 
L 325.269556 189.227816 
L 325.604853 195.598849 
L 325.94015 213.886397 
L 326.610744 195.276824 
L 327.281338 215.752301 
L 327.616634 239.905627 
L 327.951931 226.260171 
L 328.287228 228.143711 
L 328.622525 218.676456 
L 328.957822 216.716413 
L 329.293119 205.184133 
L 329.628416 228.501734 
L 329.963713 234.527383 
L 330.299009 230.722756 
L 330.969603 239.748124 
L 331.3049 233.77532 
L 331.640197 224.288225 
L 331.975494 242.494361 
L 332.310791 226.502625 
L 332.646088 250.155714 
L 332.981385 255.321136 
L 333.316681 237.06677 
L 333.651978 235.004831 
L 333.987275 212.747875 
L 334.322572 208.438938 
L 334.657869 216.280389 
L 334.993166 211.454897 
L 335.328463 198.73048 
L 335.66376 206.937192 
L 336.334353 194.709284 
L 336.66965 208.298037 
L 337.004947 204.014768 
L 337.340244 222.272986 
L 337.675541 217.644819 
L 338.346135 178.73626 
L 338.681432 184.943191 
L 339.016729 221.882437 
L 339.352025 217.862018 
L 339.687322 191.400685 
L 340.022619 203.239099 
L 340.357916 200.544963 
L 340.693213 183.137452 
L 341.02851 203.29256 
L 341.363807 184.902088 
L 341.699104 182.039797 
L 342.0344 198.1315 
L 342.704994 155.414079 
L 343.040291 146.458332 
L 343.375588 154.865734 
L 343.710885 192.515905 
L 344.046182 194.265299 
L 344.381479 174.331047 
L 344.716776 167.528667 
L 345.052072 187.581315 
L 345.387369 187.585587 
L 345.722666 180.505391 
L 346.057963 177.194607 
L 346.39326 172.071599 
L 346.728557 164.180393 
L 347.063854 161.742094 
L 347.734448 198.140968 
L 348.069744 183.890932 
L 348.740338 170.680766 
L 349.075635 184.190159 
L 349.410932 185.584532 
L 349.746229 174.852006 
L 350.081526 177.47382 
L 350.416823 191.563852 
L 351.087416 180.487289 
L 351.422713 183.597646 
L 351.75801 197.190625 
L 352.093307 198.382457 
L 352.428604 188.35687 
L 352.763901 204.808907 
L 353.099198 200.953161 
L 353.434495 200.394112 
L 353.769791 211.384932 
L 354.105088 214.212796 
L 354.440385 202.901602 
L 354.775682 185.382335 
L 355.110979 175.408041 
L 355.446276 185.236174 
L 355.781573 181.561296 
L 356.11687 185.039906 
L 356.452167 206.138614 
L 356.787463 197.604979 
L 357.12276 204.78278 
L 358.128651 152.70438 
L 358.463948 180.309988 
L 358.799245 185.995962 
L 359.134542 180.227363 
L 359.469839 191.766323 
L 359.805135 181.406256 
L 360.140432 190.840098 
L 360.475729 176.963699 
L 360.811026 178.321334 
L 361.146323 189.369887 
L 361.48162 195.97018 
L 361.816917 208.872496 
L 362.152214 203.624645 
L 362.487511 203.585153 
L 362.822807 192.74583 
L 363.158104 197.158046 
L 363.493401 197.606612 
L 364.163995 165.128993 
L 364.499292 182.855876 
L 364.834589 181.748488 
L 365.505183 221.121894 
L 365.840479 200.935172 
L 366.175776 240.29952 
L 366.511073 246.346449 
L 366.84637 237.892157 
L 367.181667 237.530384 
L 367.516964 227.952828 
L 367.852261 227.983958 
L 368.187558 220.981006 
L 368.522854 230.732099 
L 368.858151 225.365912 
L 369.193448 207.78026 
L 369.528745 219.578878 
L 369.864042 240.431035 
L 370.199339 247.482573 
L 370.534636 226.516086 
L 370.869933 237.501126 
L 371.540526 209.90959 
L 371.875823 206.784687 
L 372.21112 200.208609 
L 372.546417 204.544201 
L 372.881714 196.544916 
L 373.217011 198.396047 
L 373.552308 193.976756 
L 373.887605 202.906055 
L 374.558198 186.960812 
L 374.893495 192.323463 
L 375.228792 175.709644 
L 375.564089 177.234441 
L 375.899386 187.191761 
L 376.234683 201.074784 
L 376.56998 196.699703 
L 377.240574 173.929789 
L 377.57587 175.355266 
L 377.911167 183.558897 
L 378.246464 185.289729 
L 378.581761 199.839151 
L 378.917058 176.690271 
L 379.252355 175.855709 
L 380.258245 149.634802 
L 381.264136 189.213341 
L 381.599433 186.67732 
L 381.93473 194.248701 
L 382.270027 175.119711 
L 382.605324 167.002256 
L 382.940621 175.718804 
L 383.275917 159.733567 
L 383.611214 174.070538 
L 383.946511 179.307753 
L 384.281808 192.908954 
L 384.617105 186.231403 
L 384.952402 191.954164 
L 385.287699 183.528923 
L 385.622996 163.380268 
L 385.958293 156.175437 
L 386.293589 158.450865 
L 386.964183 187.715254 
L 387.634777 169.194473 
L 387.970074 175.489349 
L 388.305371 156.791977 
L 388.640668 148.70017 
L 388.975965 156.107281 
L 389.311261 150.812568 
L 389.646558 166.643556 
L 389.981855 141.754667 
L 390.317152 144.484807 
L 390.652449 152.359573 
L 390.987746 146.611154 
L 391.323043 144.484465 
L 391.65834 147.008311 
L 391.993636 127.143674 
L 392.328933 126.135218 
L 392.66423 136.114087 
L 392.999527 124.427249 
L 394.005418 141.713621 
L 394.340715 154.850628 
L 395.011308 138.785267 
L 395.346605 134.886679 
L 396.017199 130.262066 
L 396.352496 134.360327 
L 396.687793 144.214373 
L 397.02309 158.857885 
L 397.358387 153.550536 
L 397.693684 134.271075 
L 398.364277 160.646258 
L 398.699574 167.777653 
L 399.034871 190.98135 
L 399.705465 161.627079 
L 400.040762 182.405942 
L 400.376059 177.322701 
L 400.711356 180.800161 
L 401.046652 172.364145 
L 401.381949 157.725604 
L 401.717246 168.097241 
L 402.052543 159.807269 
L 402.38784 167.009377 
L 403.058434 160.968103 
L 403.393731 172.513849 
L 403.729027 190.88841 
L 404.064324 193.178591 
L 404.399621 164.78828 
L 404.734918 167.658558 
L 405.070215 186.298333 
L 405.405512 194.156935 
L 405.740809 191.85941 
L 406.076106 186.478567 
L 406.746699 171.968682 
L 407.081996 170.421737 
L 407.417293 157.186297 
L 407.75259 167.198036 
L 408.087887 171.656935 
L 408.758481 113.614055 
L 409.093778 110.268059 
L 409.764371 126.749594 
L 410.099668 103.283372 
L 410.099668 103.283372 
" clip-path="url(#p8c50ab36d9)" style="fill: none; stroke: #1f77b4; stroke-width: 1.5; stroke-linecap: square"/>
   </g>
   <g id="patch_3">
    <path d="M 58.39 266.245 
L 58.39 25.92 
" style="fill: none; stroke: #000000; stroke-width: 0.8; stroke-linejoin: miter; stroke-linecap: square"/>
   </g>
   <g id="patch_4">
    <path d="M 426.847748 266.245 
L 426.847748 25.92 
" style="fill: none; stroke: #000000; stroke-width: 0.8; stroke-linejoin: miter; stroke-linecap: square"/>
   </g>
   <g id="patch_5">
    <path d="M 58.39 266.245 
L 426.847748 266.245 
" style="fill: none; stroke: #000000; stroke-width: 0.8; stroke-linejoin: miter; stroke-linecap: square"/>
   </g>
   <g id="patch_6">
    <path d="M 58.39 25.92 
L 426.847748 25.92 
" style="fill: none; stroke: #000000; stroke-width: 0.8; stroke-linejoin: miter; stroke-linecap: square"/>
   </g>
  </g>
 </g>
 <defs>
  <clipPath id="p8c50ab36d9">
   <rect x="58.39" y="25.92" width="368.457748" height="240.325"/>
  </clipPath>
 </defs>
</svg>
