<?xml version="1.0" encoding="utf-8" standalone="no"?>
<!DOCTYPE svg PUBLIC "-//W3C//DTD SVG 1.1//EN"
  "http://www.w3.org/Graphics/SVG/1.1/DTD/svg11.dtd">
<svg xmlns:xlink="http://www.w3.org/1999/xlink" width="460.8pt" height="345.6pt" viewBox="0 0 460.8 345.6" xmlns="http://www.w3.org/2000/svg" version="1.1">
 <metadata>
  <rdf:RDF xmlns:dc="http://purl.org/dc/elements/1.1/" xmlns:cc="http://creativecommons.org/ns#" xmlns:rdf="http://www.w3.org/1999/02/22-rdf-syntax-ns#">
   <cc:Work>
    <dc:type rdf:resource="http://purl.org/dc/dcmitype/StillImage"/>
    <dc:date>2026-02-02T15:33:48.226587</dc:date>
    <dc:format>image/svg+xml</dc:format>
    <dc:creator>
     <cc:Agent>
      <dc:title>Matplotlib v3.10.8, https://matplotlib.org/</dc:title>
     </cc:Agent>
    </dc:creator>
   </cc:Work>
  </rdf:RDF>
 </metadata>
 <defs>
  <style type="text/css">*{stroke-linejoin: round; stroke-linecap: butt}</style>
 </defs>
 <g id="figure_1">
  <g id="patch_1">
   <path d="M 0 345.6 
L 460.8 345.6 
L 460.8 0 
L 0 0 
z
" style="fill: #ffffff"/>
  </g>
  <g id="axes_1">
   <g id="patch_2">
    <path d="M 58.39 266.245 
L 426.847748 266.245 
L 426.847748 25.92 
L 58.39 25.92 
z
" style="fill: #ffffff"/>
   </g>
   <g id="matplotlib.axis_1">
    <g id="xtick_1">
     <g id="line2d_1">
      <path d="M 75.138079 266.245 
L 75.138079 25.92 
" clip-path="url(#p724759c2f5)" style="fill: none; stroke: #b0b0b0; stroke-width: 0.8; stroke-linecap: square"/>
     </g>
     <g id="line2d_2">
      <defs>
       <path id="m6115bdc5d0" d="M 0 0 
L 0 3.5 
" style="stroke: #000000; stroke-width: 0.8"/>
      </defs>
      <g>
       <use xlink:href="#m6115bdc5d0" x="75.138079" y="266.245" style="stroke: #000000; stroke-width: 0.8"/>
      </g>
     </g>
     <g id="text_1">
      <!-- 0 -->
      <g transform="translate(69.138079 289.63625) scale(0.24 -0.24)">
       <defs>
        <path id="TeXGyreTermes-Regular-30" d="M 3046 2112 
C 3046 3424 2464 4326 1626 4326 
C 1274 4326 1005 4218 768 3994 
C 397 3635 154 2899 154 2150 
C 154 1453 365 704 666 346 
C 902 64 1229 -90 1600 -90 
C 1926 -90 2202 19 2432 243 
C 2803 595 3046 1338 3046 2112 
z
M 2432 2099 
C 2432 762 2150 77 1600 77 
C 1050 77 768 762 768 2093 
C 768 3450 1056 4160 1606 4160 
C 2144 4160 2432 3437 2432 2099 
z
" transform="scale(0.015625)"/>
       </defs>
       <use xlink:href="#TeXGyreTermes-Regular-30"/>
      </g>
     </g>
    </g>
    <g id="xtick_2">
     <g id="line2d_3">
      <path d="M 158.962301 266.245 
L 158.962301 25.92 
" clip-path="url(#p724759c2f5)" style="fill: none; stroke: #b0b0b0; stroke-width: 0.8; stroke-linecap: square"/>
     </g>
     <g id="line2d_4">
      <g>
       <use xlink:href="#m6115bdc5d0" x="158.962301" y="266.245" style="stroke: #000000; stroke-width: 0.8"/>
      </g>
     </g>
     <g id="text_2">
      <!-- 250 -->
      <g transform="translate(140.962301 289.63625) scale(0.24 -0.24)">
       <defs>
        <path id="TeXGyreTermes-Regular-32" d="M 3040 877 
L 2957 909 
C 2720 544 2637 486 2349 486 
L 819 486 
L 1894 1613 
C 2464 2208 2714 2694 2714 3194 
C 2714 3834 2195 4326 1530 4326 
C 1178 4326 845 4186 608 3930 
C 403 3712 307 3507 198 3053 
L 333 3021 
C 589 3648 819 3853 1261 3853 
C 1798 3853 2163 3488 2163 2950 
C 2163 2451 1869 1856 1331 1286 
L 192 77 
L 192 0 
L 2688 0 
L 3040 877 
z
" transform="scale(0.015625)"/>
        <path id="TeXGyreTermes-Regular-35" d="M 2803 4358 
L 2746 4403 
C 2650 4269 2586 4237 2451 4237 
L 1114 4237 
L 416 2720 
C 410 2707 410 2688 410 2688 
C 410 2656 435 2637 486 2637 
C 691 2637 947 2592 1210 2509 
C 1946 2272 2285 1875 2285 1242 
C 2285 627 1894 147 1395 147 
C 1267 147 1158 192 966 333 
C 762 480 614 544 480 544 
C 294 544 205 467 205 307 
C 205 64 506 -90 986 -90 
C 1523 -90 1984 83 2304 410 
C 2598 698 2733 1062 2733 1549 
C 2733 2010 2611 2304 2291 2624 
C 2010 2906 1645 3053 890 3187 
L 1158 3731 
L 2413 3731 
C 2515 3731 2541 3744 2560 3789 
L 2803 4358 
z
" transform="scale(0.015625)"/>
       </defs>
       <use xlink:href="#TeXGyreTermes-Regular-32"/>
       <use xlink:href="#TeXGyreTermes-Regular-35" transform="translate(49.999985 0)"/>
       <use xlink:href="#TeXGyreTermes-Regular-30" transform="translate(99.999969 0)"/>
      </g>
     </g>
    </g>
    <g id="xtick_3">
     <g id="line2d_5">
      <path d="M 242.786522 266.245 
L 242.786522 25.92 
" clip-path="url(#p724759c2f5)" style="fill: none; stroke: #b0b0b0; stroke-width: 0.8; stroke-linecap: square"/>
     </g>
     <g id="line2d_6">
      <g>
       <use xlink:href="#m6115bdc5d0" x="242.786522" y="266.245" style="stroke: #000000; stroke-width: 0.8"/>
      </g>
     </g>
     <g id="text_3">
      <!-- 500 -->
      <g transform="translate(224.786522 289.63625) scale(0.24 -0.24)">
       <use xlink:href="#TeXGyreTermes-Regular-35"/>
       <use xlink:href="#TeXGyreTermes-Regular-30" transform="translate(49.999985 0)"/>
       <use xlink:href="#TeXGyreTermes-Regular-30" transform="translate(99.999969 0)"/>
      </g>
     </g>
    </g>
    <g id="xtick_4">
     <g id="line2d_7">
      <path d="M 326.610744 266.245 
L 326.610744 25.92 
" clip-path="url(#p724759c2f5)" style="fill: none; stroke: #b0b0b0; stroke-width: 0.8; stroke-linecap: square"/>
     </g>
     <g id="line2d_8">
      <g>
       <use xlink:href="#m6115bdc5d0" x="326.610744" y="266.245" style="stroke: #000000; stroke-width: 0.8"/>
      </g>
     </g>
     <g id="text_4">
      <!-- 750 -->
      <g transform="translate(308.610744 289.63625) scale(0.24 -0.24)">
       <defs>
        <path id="TeXGyreTermes-Regular-37" d="M 2874 4134 
L 2874 4237 
L 506 4237 
L 128 3296 
L 237 3245 
C 512 3680 627 3763 979 3763 
L 2368 3763 
L 1101 -51 
L 1517 -51 
L 2874 4134 
z
" transform="scale(0.015625)"/>
       </defs>
       <use xlink:href="#TeXGyreTermes-Regular-37"/>
       <use xlink:href="#TeXGyreTermes-Regular-35" transform="translate(49.999985 0)"/>
       <use xlink:href="#TeXGyreTermes-Regular-30" transform="translate(99.999969 0)"/>
      </g>
     </g>
    </g>
    <g id="xtick_5">
     <g id="line2d_9">
      <path d="M 410.434965 266.245 
L 410.434965 25.92 
" clip-path="url(#p724759c2f5)" style="fill: none; stroke: #b0b0b0; stroke-width: 0.8; stroke-linecap: square"/>
     </g>
     <g id="line2d_10">
      <g>
       <use xlink:href="#m6115bdc5d0" x="410.434965" y="266.245" style="stroke: #000000; stroke-width: 0.8"/>
      </g>
     </g>
     <g id="text_5">
      <!-- 1000 -->
      <g transform="translate(386.434965 289.63625) scale(0.24 -0.24)">
       <defs>
        <path id="TeXGyreTermes-Regular-31" d="M 2522 0 
L 2522 96 
C 2016 102 1914 166 1914 474 
L 1914 4314 
L 1862 4326 
L 710 3744 
L 710 3654 
C 787 3686 858 3712 883 3725 
C 998 3770 1107 3795 1171 3795 
C 1306 3795 1363 3699 1363 3494 
L 1363 595 
C 1363 384 1312 237 1210 179 
C 1114 122 1024 102 755 96 
L 755 0 
L 2522 0 
z
" transform="scale(0.015625)"/>
       </defs>
       <use xlink:href="#TeXGyreTermes-Regular-31"/>
       <use xlink:href="#TeXGyreTermes-Regular-30" transform="translate(49.999985 0)"/>
       <use xlink:href="#TeXGyreTermes-Regular-30" transform="translate(99.999969 0)"/>
       <use xlink:href="#TeXGyreTermes-Regular-30" transform="translate(149.999954 0)"/>
      </g>
     </g>
    </g>
    <g id="text_6">
     <!-- Schritt k -->
     <g transform="translate(201.616374 315.23625) scale(0.24 -0.24)">
      <defs>
       <path id="TeXGyreTermes-Regular-53" d="M 3142 1075 
C 3142 1606 2790 2016 1946 2477 
C 1274 2842 1005 3123 1005 3475 
C 1005 3827 1274 4064 1670 4064 
C 1958 4064 2227 3942 2451 3712 
C 2650 3507 2739 3341 2842 2963 
L 3002 2963 
L 2861 4326 
L 2726 4326 
C 2701 4186 2630 4109 2522 4109 
C 2458 4109 2355 4134 2240 4186 
C 2003 4275 1773 4326 1549 4326 
C 1299 4326 1030 4224 826 4058 
C 576 3853 454 3578 454 3226 
C 454 2720 736 2362 1453 1984 
C 1914 1734 2246 1478 2406 1235 
C 2464 1146 2496 1018 2496 858 
C 2496 435 2176 141 1709 141 
C 1133 141 736 493 416 1274 
L 269 1274 
L 461 -83 
L 602 -83 
C 608 38 685 128 781 128 
C 851 128 960 102 1082 58 
C 1325 -38 1581 -90 1837 -90 
C 2579 -90 3142 416 3142 1075 
z
" transform="scale(0.015625)"/>
       <path id="TeXGyreTermes-Regular-63" d="M 2637 941 
L 2547 998 
C 2240 550 2010 397 1645 397 
C 1056 397 653 909 653 1645 
C 653 2310 1005 2758 1523 2758 
C 1754 2758 1837 2688 1901 2451 
L 1939 2310 
C 1990 2125 2106 2016 2246 2016 
C 2413 2016 2547 2138 2547 2285 
C 2547 2643 2099 2944 1562 2944 
C 1261 2944 954 2829 698 2618 
C 352 2330 160 1888 160 1357 
C 160 531 666 -64 1376 -64 
C 1651 -64 1894 26 2112 205 
C 2304 358 2432 544 2637 941 
z
" transform="scale(0.015625)"/>
       <path id="TeXGyreTermes-Regular-68" d="M 3117 0 
L 3117 96 
C 2771 160 2733 211 2733 653 
L 2733 1926 
C 2733 2598 2464 2944 1946 2944 
C 1568 2944 1299 2790 1005 2406 
L 1005 4352 
L 973 4371 
C 755 4294 595 4243 237 4141 
L 64 4090 
L 64 3987 
C 90 3994 109 3994 141 3994 
C 416 3994 467 3942 467 3667 
L 467 653 
C 467 205 429 147 58 96 
L 58 0 
L 1440 0 
L 1440 96 
C 1069 134 1005 211 1005 653 
L 1005 2195 
C 1274 2490 1466 2598 1715 2598 
C 2035 2598 2195 2368 2195 1920 
L 2195 653 
C 2195 218 2131 134 1760 96 
L 1760 0 
L 3117 0 
z
" transform="scale(0.015625)"/>
       <path id="TeXGyreTermes-Regular-72" d="M 2144 2605 
C 2144 2816 2010 2944 1792 2944 
C 1523 2944 1338 2797 1024 2342 
L 1024 2931 
L 992 2944 
C 653 2803 422 2720 45 2598 
L 45 2496 
C 134 2515 192 2522 269 2522 
C 429 2522 486 2419 486 2138 
L 486 538 
C 486 218 442 173 32 96 
L 32 0 
L 1568 0 
L 1568 96 
C 1133 115 1024 211 1024 576 
L 1024 2016 
C 1024 2221 1299 2541 1472 2541 
C 1510 2541 1568 2509 1638 2445 
C 1741 2355 1811 2317 1894 2317 
C 2048 2317 2144 2426 2144 2605 
z
" transform="scale(0.015625)"/>
       <path id="TeXGyreTermes-Regular-69" d="M 1619 0 
L 1619 96 
C 1197 128 1146 192 1146 653 
L 1146 2925 
L 1120 2944 
L 128 2592 
L 128 2496 
L 179 2502 
C 256 2515 339 2522 397 2522 
C 550 2522 608 2419 608 2138 
L 608 653 
C 608 192 544 122 102 96 
L 102 0 
L 1619 0 
z
M 1203 3776 
C 1203 3955 1062 4102 877 4102 
C 698 4102 550 3955 550 3776 
C 550 3590 698 3450 877 3450 
C 1062 3450 1203 3590 1203 3776 
z
" transform="scale(0.015625)"/>
       <path id="TeXGyreTermes-Regular-74" d="M 1786 422 
L 1702 493 
C 1562 326 1459 269 1318 269 
C 1082 269 986 435 986 845 
L 986 2675 
L 1632 2675 
L 1632 2880 
L 986 2880 
L 986 3622 
C 986 3686 973 3706 941 3706 
C 902 3642 858 3584 813 3526 
C 576 3174 358 2938 192 2842 
C 122 2797 83 2758 83 2720 
C 83 2701 90 2688 109 2675 
L 448 2675 
L 448 749 
C 448 211 640 -64 1011 -64 
C 1331 -64 1574 90 1786 422 
z
" transform="scale(0.015625)"/>
       <path id="TeXGyreTermes-Regular-20" transform="scale(0.015625)"/>
       <path id="TeXGyreTermes-Regular-6b" d="M 3232 0 
L 3232 96 
C 2950 115 2752 237 2483 563 
L 1504 1805 
L 1690 1978 
C 2144 2400 2541 2694 2726 2746 
C 2822 2771 2912 2784 3021 2784 
L 3072 2784 
L 3072 2880 
L 1766 2880 
L 1766 2790 
C 2016 2784 2086 2758 2086 2669 
C 2086 2618 2029 2528 1939 2451 
L 1062 1670 
L 1062 4358 
L 1037 4371 
L 237 4141 
L 45 4090 
L 45 3987 
C 128 3994 186 4000 250 4000 
C 461 4000 525 3917 525 3610 
L 525 525 
C 525 192 506 173 45 96 
L 45 0 
L 1542 0 
L 1542 96 
L 1414 102 
C 1158 115 1062 205 1062 429 
L 1062 1606 
L 1958 410 
L 1978 384 
C 1990 365 2003 346 2022 326 
C 2074 262 2093 224 2093 192 
C 2093 134 2035 96 1958 96 
L 1837 96 
L 1837 0 
L 3232 0 
z
" transform="scale(0.015625)"/>
      </defs>
      <use xlink:href="#TeXGyreTermes-Regular-53"/>
      <use xlink:href="#TeXGyreTermes-Regular-63" transform="translate(55.599991 0)"/>
      <use xlink:href="#TeXGyreTermes-Regular-68" transform="translate(99.999985 0)"/>
      <use xlink:href="#TeXGyreTermes-Regular-72" transform="translate(149.999969 0)"/>
      <use xlink:href="#TeXGyreTermes-Regular-69" transform="translate(183.299957 0)"/>
      <use xlink:href="#TeXGyreTermes-Regular-74" transform="translate(211.099945 0)"/>
      <use xlink:href="#TeXGyreTermes-Regular-74" transform="translate(238.899933 0)"/>
      <use xlink:href="#TeXGyreTermes-Regular-20" transform="translate(266.699921 0)"/>
      <use xlink:href="#TeXGyreTermes-Regular-6b" transform="translate(291.699905 0)"/>
     </g>
    </g>
   </g>
   <g id="matplotlib.axis_2">
    <g id="ytick_1">
     <g id="line2d_11">
      <path d="M 58.39 261.882301 
L 426.847748 261.882301 
" clip-path="url(#p724759c2f5)" style="fill: none; stroke: #b0b0b0; stroke-width: 0.8; stroke-linecap: square"/>
     </g>
     <g id="line2d_12">
      <defs>
       <path id="ma8c8d1b068" d="M 0 0 
L -3.5 0 
" style="stroke: #000000; stroke-width: 0.8"/>
      </defs>
      <g>
       <use xlink:href="#ma8c8d1b068" x="58.39" y="261.882301" style="stroke: #000000; stroke-width: 0.8"/>
      </g>
     </g>
     <g id="text_7">
      <!-- −2 -->
      <g transform="translate(25.8525 270.077926) scale(0.24 -0.24)">
       <defs>
        <path id="TeXGyreTermes-Regular-2212" d="M 3354 1389 
L 3354 1811 
L 256 1811 
L 256 1389 
L 3354 1389 
z
" transform="scale(0.015625)"/>
       </defs>
       <use xlink:href="#TeXGyreTermes-Regular-2212"/>
       <use xlink:href="#TeXGyreTermes-Regular-32" transform="translate(56.399994 0)"/>
      </g>
     </g>
    </g>
    <g id="ytick_2">
     <g id="line2d_13">
      <path d="M 58.39 210.942412 
L 426.847748 210.942412 
" clip-path="url(#p724759c2f5)" style="fill: none; stroke: #b0b0b0; stroke-width: 0.8; stroke-linecap: square"/>
     </g>
     <g id="line2d_14">
      <g>
       <use xlink:href="#ma8c8d1b068" x="58.39" y="210.942412" style="stroke: #000000; stroke-width: 0.8"/>
      </g>
     </g>
     <g id="text_8">
      <!-- −1 -->
      <g transform="translate(25.8525 219.138037) scale(0.24 -0.24)">
       <use xlink:href="#TeXGyreTermes-Regular-2212"/>
       <use xlink:href="#TeXGyreTermes-Regular-31" transform="translate(56.399994 0)"/>
      </g>
     </g>
    </g>
    <g id="ytick_3">
     <g id="line2d_15">
      <path d="M 58.39 160.002522 
L 426.847748 160.002522 
" clip-path="url(#p724759c2f5)" style="fill: none; stroke: #b0b0b0; stroke-width: 0.8; stroke-linecap: square"/>
     </g>
     <g id="line2d_16">
      <g>
       <use xlink:href="#ma8c8d1b068" x="58.39" y="160.002522" style="stroke: #000000; stroke-width: 0.8"/>
      </g>
     </g>
     <g id="text_9">
      <!-- 0 -->
      <g transform="translate(39.39 168.198147) scale(0.24 -0.24)">
       <use xlink:href="#TeXGyreTermes-Regular-30"/>
      </g>
     </g>
    </g>
    <g id="ytick_4">
     <g id="line2d_17">
      <path d="M 58.39 109.062633 
L 426.847748 109.062633 
" clip-path="url(#p724759c2f5)" style="fill: none; stroke: #b0b0b0; stroke-width: 0.8; stroke-linecap: square"/>
     </g>
     <g id="line2d_18">
      <g>
       <use xlink:href="#ma8c8d1b068" x="58.39" y="109.062633" style="stroke: #000000; stroke-width: 0.8"/>
      </g>
     </g>
     <g id="text_10">
      <!-- 1 -->
      <g transform="translate(39.39 117.258258) scale(0.24 -0.24)">
       <use xlink:href="#TeXGyreTermes-Regular-31"/>
      </g>
     </g>
    </g>
    <g id="ytick_5">
     <g id="line2d_19">
      <path d="M 58.39 58.122744 
L 426.847748 58.122744 
" clip-path="url(#p724759c2f5)" style="fill: none; stroke: #b0b0b0; stroke-width: 0.8; stroke-linecap: square"/>
     </g>
     <g id="line2d_20">
      <g>
       <use xlink:href="#ma8c8d1b068" x="58.39" y="58.122744" style="stroke: #000000; stroke-width: 0.8"/>
      </g>
     </g>
     <g id="text_11">
      <!-- 2 -->
      <g transform="translate(39.39 66.318369) scale(0.24 -0.24)">
       <use xlink:href="#TeXGyreTermes-Regular-32"/>
      </g>
     </g>
    </g>
   </g>
   <g id="line2d_21">
    <path d="M 75.138079 102.249254 
L 75.473376 100.11976 
L 75.808673 95.23021 
L 76.14397 84.990466 
L 76.479267 83.660499 
L 77.149861 92.14364 
L 77.485158 94.528444 
L 77.820455 94.304257 
L 78.155751 98.074134 
L 78.491048 96.446791 
L 78.826345 90.250622 
L 79.496939 100.371304 
L 79.832236 99.719301 
L 80.167533 97.035632 
L 80.50283 77.414372 
L 80.838127 75.050908 
L 81.173423 80.897138 
L 81.50872 79.052587 
L 81.844017 81.586077 
L 82.179314 80.974995 
L 82.514611 79.404494 
L 83.185205 85.636441 
L 83.520502 77.943675 
L 83.855798 77.866788 
L 84.191095 76.024588 
L 84.526392 67.740473 
L 85.196986 59.570282 
L 85.86758 61.831122 
L 86.202877 72.940793 
L 86.538174 75.280208 
L 86.87347 73.507534 
L 87.544064 81.516203 
L 87.879361 76.041431 
L 88.214658 79.611836 
L 88.549955 78.020693 
L 89.220549 97.511646 
L 89.891142 109.261488 
L 90.226439 106.170764 
L 91.23233 126.017891 
L 91.567627 120.043102 
L 91.902924 120.648305 
L 92.238221 120.589638 
L 92.573518 122.48887 
L 92.908814 117.174015 
L 93.244111 119.269634 
L 93.579408 118.740479 
L 93.914705 117.713499 
L 94.250002 114.035562 
L 94.585299 108.259435 
L 94.920596 109.769333 
L 95.255893 112.742477 
L 95.591189 113.383742 
L 95.926486 113.372295 
L 96.261783 110.245447 
L 96.59708 110.331699 
L 96.932377 114.344958 
L 97.267674 106.361931 
L 97.602971 113.109902 
L 97.938268 123.605641 
L 98.273565 125.25241 
L 99.279455 120.384167 
L 99.614752 114.861605 
L 99.950049 105.654302 
L 100.285346 103.397529 
L 100.620643 95.468438 
L 100.95594 93.603506 
L 101.626533 103.981617 
L 101.96183 102.66445 
L 102.297127 98.742701 
L 102.632424 100.057037 
L 102.967721 99.122831 
L 103.303018 107.653589 
L 103.638315 110.300952 
L 103.973612 111.536677 
L 104.308909 122.852955 
L 104.644205 126.361994 
L 104.979502 128.034129 
L 105.314799 126.439458 
L 105.650096 126.911929 
L 106.32069 122.879214 
L 106.655987 122.424509 
L 106.991284 116.349046 
L 107.661877 95.893077 
L 107.997174 95.312254 
L 108.332471 96.362977 
L 108.667768 95.960308 
L 109.003065 98.548714 
L 109.338362 104.07459 
L 109.673659 101.479271 
L 110.008956 102.623971 
L 110.344252 108.236809 
L 110.679549 106.44985 
L 111.014846 99.955513 
L 111.350143 103.972147 
L 111.68544 109.725779 
L 112.020737 104.718806 
L 112.356034 106.0069 
L 112.691331 104.595544 
L 113.026628 106.525477 
L 113.697221 103.738528 
L 114.032518 106.656945 
L 114.367815 107.649605 
L 114.703112 107.193454 
L 115.038409 101.296239 
L 115.709003 123.670248 
L 116.379596 128.088318 
L 116.714893 125.001486 
L 117.05019 126.634896 
L 117.385487 126.044361 
L 117.720784 127.723582 
L 118.056081 124.550097 
L 118.391378 127.900701 
L 118.726675 129.291521 
L 119.397268 134.926025 
L 119.732565 133.969604 
L 120.403159 140.777038 
L 120.738456 141.969549 
L 121.40905 138.066086 
L 121.744347 136.831939 
L 122.079643 137.287344 
L 122.41494 134.313772 
L 122.750237 124.698922 
L 123.085534 119.517846 
L 123.420831 120.811288 
L 124.091425 115.698465 
L 124.426722 117.933233 
L 124.762019 114.795503 
L 125.097315 104.150541 
L 125.432612 104.328468 
L 125.767909 104.698088 
L 126.103206 106.013564 
L 126.438503 109.765186 
L 126.7738 107.125543 
L 127.444394 89.364683 
L 127.779691 90.459425 
L 128.114987 100.987017 
L 128.450284 105.947857 
L 128.785581 97.431505 
L 129.120878 97.572187 
L 129.456175 99.518172 
L 129.791472 95.011698 
L 130.126769 95.991786 
L 130.797362 93.400706 
L 131.132659 97.875472 
L 131.467956 105.283546 
L 131.803253 108.404139 
L 132.13855 99.462953 
L 132.473847 99.865253 
L 132.809144 89.160867 
L 133.144441 89.657393 
L 133.479738 93.302759 
L 133.815034 98.51026 
L 134.150331 99.197817 
L 134.485628 108.226516 
L 135.156222 102.594023 
L 135.491519 100.777904 
L 135.826816 88.504437 
L 136.162113 86.592376 
L 136.49741 85.887306 
L 136.832706 82.275123 
L 137.5033 68.276497 
L 137.838597 68.399554 
L 138.173894 62.394969 
L 138.509191 63.594636 
L 138.844488 63.419733 
L 139.179785 66.014679 
L 140.185675 84.910801 
L 140.520972 77.644847 
L 140.856269 80.234902 
L 141.191566 80.873165 
L 141.526863 82.524044 
L 141.86216 82.291732 
L 142.197457 91.51273 
L 142.532753 96.849629 
L 143.203347 83.699131 
L 143.538644 89.813029 
L 143.873941 89.245867 
L 144.209238 73.891954 
L 144.544535 64.494834 
L 144.879832 65.871979 
L 145.215129 68.535515 
L 145.550425 62.933992 
L 146.221019 58.795045 
L 146.556316 60.376157 
L 146.891613 67.397741 
L 147.562207 73.544357 
L 147.897504 69.199161 
L 148.232801 66.902348 
L 148.568097 71.662031 
L 148.903394 67.007061 
L 149.238691 68.165848 
L 149.573988 60.941934 
L 149.909285 60.527912 
L 150.244582 65.842038 
L 150.579879 69.239764 
L 150.915176 60.048406 
L 151.250473 59.111569 
L 151.585769 65.362566 
L 151.921066 64.048051 
L 152.256363 64.775238 
L 152.59166 68.659967 
L 152.926957 69.010056 
L 153.262254 70.037157 
L 153.597551 69.331014 
L 153.932848 70.044857 
L 154.268144 64.584576 
L 154.603441 53.346349 
L 154.938738 50.896205 
L 155.609332 36.843864 
L 156.279926 41.580184 
L 156.615223 40.361271 
L 156.95052 40.345888 
L 157.285816 52.418131 
L 157.621113 54.245018 
L 158.627004 64.879218 
L 158.962301 65.854721 
L 159.297598 59.640079 
L 159.632895 62.729892 
L 160.303488 76.324711 
L 160.638785 77.609123 
L 160.974082 76.776535 
L 161.309379 75.153448 
L 161.644676 84.7071 
L 161.979973 81.196137 
L 162.31527 85.769972 
L 162.650567 94.922897 
L 162.985864 85.919646 
L 163.32116 85.936016 
L 163.656457 96.105705 
L 163.991754 97.052974 
L 164.327051 96.087008 
L 164.662348 90.898351 
L 164.997645 91.025884 
L 165.332942 80.166943 
L 165.668239 86.958299 
L 166.003535 91.238508 
L 166.338832 89.391761 
L 166.674129 92.936036 
L 167.009426 100.089484 
L 167.344723 96.959431 
L 167.68002 105.177518 
L 168.685911 80.468119 
L 169.356504 74.431437 
L 169.691801 74.140075 
L 170.027098 80.689861 
L 170.362395 75.614251 
L 170.697692 74.183068 
L 171.032989 81.184826 
L 171.368286 76.724458 
L 171.703583 78.154235 
L 172.038879 87.219004 
L 172.374176 84.742938 
L 172.709473 83.833747 
L 173.04477 80.805214 
L 174.385958 118.353025 
L 174.721255 117.526551 
L 175.056551 117.663863 
L 175.391848 124.199377 
L 176.062442 116.90702 
L 176.397739 115.125681 
L 176.733036 120.614539 
L 177.068333 121.476807 
L 177.40363 123.023069 
L 177.738926 129.812576 
L 178.074223 128.896278 
L 178.40952 124.355392 
L 178.744817 128.530412 
L 179.080114 137.487226 
L 179.415411 150.285725 
L 179.750708 149.06054 
L 180.086005 150.331756 
L 180.421302 148.494839 
L 180.756598 153.190542 
L 181.091895 151.242883 
L 181.427192 156.774259 
L 181.762489 157.490836 
L 182.097786 155.069249 
L 182.433083 153.66647 
L 182.76838 152.774261 
L 183.103677 151.119476 
L 183.77427 157.954806 
L 184.444864 164.142162 
L 185.115458 178.068385 
L 185.450755 181.130789 
L 185.786052 192.642452 
L 186.121349 191.691898 
L 186.456646 192.215887 
L 186.791942 187.760351 
L 187.127239 189.393989 
L 187.462536 189.41128 
L 187.797833 190.240837 
L 188.13313 191.632069 
L 188.803724 205.874792 
L 189.139021 204.564691 
L 189.474317 206.797538 
L 190.480208 179.931088 
L 190.815505 173.970593 
L 191.150802 175.49708 
L 191.486099 181.435128 
L 191.821396 173.545626 
L 192.156693 175.992889 
L 192.491989 174.532119 
L 192.827286 172.564575 
L 193.49788 167.276921 
L 193.833177 169.257216 
L 194.168474 168.676766 
L 194.503771 166.121257 
L 194.839068 173.923225 
L 195.174365 172.765888 
L 195.509661 175.747001 
L 195.844958 181.186335 
L 196.180255 180.1761 
L 196.850849 194.530374 
L 197.186146 189.302599 
L 197.521443 195.713507 
L 197.85674 193.507165 
L 198.192037 198.131305 
L 199.197927 182.999029 
L 199.533224 182.466685 
L 199.868521 179.822355 
L 200.203818 171.98829 
L 200.539115 169.558062 
L 200.874412 174.807684 
L 201.209708 174.431444 
L 201.545005 178.895426 
L 201.880302 180.637326 
L 202.215599 185.484936 
L 202.550896 187.106728 
L 203.22149 184.099376 
L 203.556787 185.812588 
L 203.892084 183.707362 
L 204.22738 178.6432 
L 204.562677 179.100946 
L 205.233271 184.529474 
L 205.568568 188.428947 
L 205.903865 186.292293 
L 206.239162 191.638662 
L 206.574459 188.10122 
L 206.909756 189.021186 
L 207.245052 190.508978 
L 207.580349 192.574435 
L 207.915646 193.929525 
L 208.250943 193.89458 
L 208.58624 195.678216 
L 208.921537 195.821518 
L 209.927428 187.514372 
L 210.262724 189.565322 
L 210.598021 181.637564 
L 210.933318 181.93934 
L 211.268615 181.298754 
L 211.603912 188.24529 
L 211.939209 184.950219 
L 212.274506 186.340253 
L 212.609803 189.60594 
L 212.945099 182.165691 
L 213.280396 186.596642 
L 213.615693 181.28899 
L 213.95099 180.970097 
L 214.286287 181.143889 
L 214.621584 187.061543 
L 215.292178 181.055627 
L 215.627475 189.466213 
L 215.962771 183.438273 
L 216.298068 167.916837 
L 216.633365 168.99435 
L 216.968662 164.840583 
L 217.639256 177.408268 
L 218.30985 181.741629 
L 218.645147 185.885252 
L 218.980443 183.405404 
L 219.31574 183.667782 
L 219.651037 190.187808 
L 219.986334 189.384696 
L 220.992225 201.283013 
L 221.327522 204.325333 
L 221.662819 198.438373 
L 221.998115 197.42508 
L 222.333412 198.047648 
L 222.668709 198.182947 
L 223.004006 197.248281 
L 223.339303 200.026922 
L 223.6746 194.351762 
L 224.009897 197.683141 
L 224.68049 209.553452 
L 225.015787 207.208885 
L 225.351084 211.43452 
L 225.686381 210.021942 
L 226.021678 211.521731 
L 226.692272 216.622558 
L 227.027569 223.316899 
L 227.362866 221.29783 
L 227.698162 212.064114 
L 228.033459 210.727885 
L 228.368756 211.046108 
L 228.704053 211.168782 
L 229.03935 204.99169 
L 229.374647 195.504107 
L 229.709944 195.904638 
L 230.380538 206.52954 
L 231.051131 200.533315 
L 231.721725 189.528402 
L 232.057022 187.209552 
L 232.392319 189.844068 
L 232.727616 190.770531 
L 233.062913 198.662739 
L 233.39821 194.377727 
L 233.733506 187.702156 
L 234.068803 190.588215 
L 234.4041 196.344677 
L 234.739397 190.104477 
L 235.074694 194.309227 
L 235.745288 207.733334 
L 236.080585 208.036761 
L 236.415881 212.777482 
L 236.751178 206.210809 
L 237.086475 216.594999 
L 237.421772 217.15752 
L 237.757069 216.330868 
L 238.092366 216.940727 
L 238.427663 215.792817 
L 238.76296 219.800439 
L 239.098257 222.285166 
L 239.433553 228.515425 
L 240.104147 221.174176 
L 240.439444 225.56798 
L 240.774741 226.947453 
L 241.110038 227.138617 
L 241.780632 221.109394 
L 242.115929 213.637162 
L 242.451225 210.306295 
L 242.786522 212.955253 
L 243.121819 210.837021 
L 243.457116 211.103619 
L 243.792413 212.09764 
L 244.463007 217.370052 
L 245.133601 220.296317 
L 245.468897 219.442702 
L 245.804194 217.38734 
L 246.139491 220.77649 
L 246.474788 217.710053 
L 246.810085 213.527267 
L 247.815976 193.023366 
L 248.151272 182.633731 
L 248.486569 184.937701 
L 248.821866 185.497831 
L 249.49246 168.015194 
L 250.163054 175.208181 
L 250.498351 170.141022 
L 250.833648 172.210706 
L 251.168944 172.989901 
L 251.504241 169.772686 
L 251.839538 163.939243 
L 252.174835 162.794062 
L 252.510132 163.703264 
L 252.845429 157.563611 
L 253.180726 159.940774 
L 253.516023 169.003055 
L 253.85132 169.68387 
L 254.186616 171.787099 
L 254.521913 163.833364 
L 254.85721 166.077306 
L 255.192507 165.370909 
L 255.527804 168.402056 
L 255.863101 164.98049 
L 256.198398 164.137629 
L 256.533695 164.302258 
L 257.539585 154.5056 
L 257.874882 146.284823 
L 258.210179 143.50115 
L 258.545476 137.216356 
L 258.880773 127.940851 
L 259.21607 124.292148 
L 259.551367 119.09444 
L 259.886663 127.175194 
L 260.22196 129.328082 
L 260.557257 137.093793 
L 261.227851 139.354407 
L 261.563148 143.499639 
L 261.898445 145.377304 
L 262.233742 144.63343 
L 262.569039 145.607421 
L 262.904335 147.563495 
L 263.239632 145.125411 
L 263.574929 144.537344 
L 263.910226 141.658472 
L 264.58082 151.107727 
L 265.251414 158.040529 
L 265.586711 159.593264 
L 265.922007 165.415015 
L 266.257304 161.360128 
L 266.592601 161.004918 
L 266.927898 161.616877 
L 267.263195 160.606035 
L 267.933789 146.577988 
L 268.269086 148.274116 
L 268.604383 145.613135 
L 268.939679 149.253616 
L 269.274976 148.538155 
L 269.610273 151.784084 
L 269.94557 156.489922 
L 270.280867 159.368671 
L 270.616164 159.560723 
L 270.951461 160.310214 
L 271.286758 156.029779 
L 271.622054 144.936235 
L 271.957351 140.598785 
L 272.292648 148.070778 
L 272.627945 151.368145 
L 272.963242 145.674491 
L 273.298539 149.568629 
L 273.633836 151.463989 
L 273.969133 155.589963 
L 274.30443 156.964827 
L 274.639726 156.621389 
L 274.975023 155.916471 
L 275.31032 161.153232 
L 275.645617 161.72987 
L 275.980914 156.326606 
L 276.316211 154.78737 
L 276.651508 149.685684 
L 276.986805 157.189658 
L 277.322102 160.392234 
L 277.992695 164.388037 
L 278.327992 153.626145 
L 278.663289 151.416817 
L 278.998586 158.778717 
L 279.333883 161.211575 
L 279.66918 160.97185 
L 280.004477 169.815621 
L 281.010367 179.064769 
L 281.345664 184.81612 
L 281.680961 180.060604 
L 282.351555 165.178227 
L 282.686852 167.748302 
L 283.022149 172.074767 
L 283.357445 170.791226 
L 283.692742 177.601118 
L 284.028039 171.896334 
L 284.363336 170.246947 
L 285.03393 183.103031 
L 285.369227 182.289665 
L 285.704524 195.96445 
L 286.039821 198.329622 
L 286.375117 204.624713 
L 286.710414 207.01226 
L 287.045711 215.600166 
L 287.716305 211.395007 
L 288.051602 206.113335 
L 288.386899 204.482882 
L 288.722196 204.38106 
L 289.057493 208.533407 
L 289.392789 208.773889 
L 289.728086 209.612669 
L 290.063383 203.536958 
L 290.39868 200.223157 
L 290.733977 200.317314 
L 291.069274 200.963876 
L 291.404571 201.959149 
L 291.739868 199.951609 
L 292.075165 202.137438 
L 292.410461 202.918657 
L 292.745758 200.050708 
L 293.081055 192.758407 
L 293.416352 196.769873 
L 293.751649 199.013249 
L 294.086946 198.580558 
L 294.75754 208.835562 
L 295.092836 210.566444 
L 295.428133 207.157886 
L 295.76343 212.129006 
L 296.098727 210.591373 
L 296.434024 215.261269 
L 296.769321 215.134749 
L 297.104618 217.424649 
L 297.775212 206.768669 
L 298.110508 208.320719 
L 298.445805 207.812071 
L 298.781102 203.200617 
L 299.116399 203.604817 
L 299.451696 207.483962 
L 299.786993 214.951141 
L 300.12229 213.86946 
L 300.457587 210.247608 
L 300.792884 212.365993 
L 301.12818 211.1267 
L 301.463477 201.357696 
L 301.798774 201.645113 
L 302.134071 205.206515 
L 302.804665 215.68046 
L 303.475259 201.451117 
L 304.481149 214.073826 
L 304.816446 207.918919 
L 305.151743 206.414161 
L 305.822337 188.104095 
L 306.157634 191.131811 
L 306.492931 191.089541 
L 306.828227 189.870889 
L 307.163524 189.94966 
L 307.498821 188.451553 
L 307.834118 181.950012 
L 308.169415 183.443588 
L 308.504712 186.207293 
L 308.840009 192.062629 
L 309.175306 195.400433 
L 309.510603 189.390713 
L 309.845899 193.19706 
L 310.181196 183.604196 
L 310.516493 180.003055 
L 310.85179 178.528953 
L 311.522384 180.18785 
L 311.857681 175.58197 
L 312.192978 179.705711 
L 312.528275 194.138653 
L 312.863571 193.133435 
L 313.198868 196.858428 
L 313.534165 190.023574 
L 313.869462 188.687825 
L 314.204759 196.631937 
L 314.540056 192.21591 
L 315.21065 197.199404 
L 315.545947 202.915349 
L 316.551837 211.176317 
L 316.887134 217.800305 
L 317.222431 221.847549 
L 317.557728 218.311366 
L 317.893025 209.754996 
L 318.228322 205.235289 
L 318.563618 205.015228 
L 318.898915 208.537845 
L 319.234212 213.947418 
L 319.569509 211.648104 
L 319.904806 214.920833 
L 320.5754 226.860817 
L 320.910697 221.8304 
L 321.245994 220.585857 
L 321.58129 214.667193 
L 321.916587 216.284897 
L 322.251884 214.427766 
L 322.587181 213.443473 
L 322.922478 209.727125 
L 323.593072 215.04102 
L 323.928369 218.246399 
L 324.263666 212.856708 
L 324.598962 212.583865 
L 324.934259 216.187668 
L 325.269556 215.751627 
L 325.604853 219.419208 
L 325.94015 227.168684 
L 326.610744 222.249017 
L 327.281338 233.160157 
L 327.616634 243.244645 
L 327.951931 239.559578 
L 328.287228 240.077526 
L 328.622525 236.786807 
L 328.957822 235.779587 
L 329.293119 232.490665 
L 329.628416 241.796234 
L 329.963713 245.311135 
L 330.299009 244.761123 
L 330.969603 248.891317 
L 331.3049 246.668468 
L 331.640197 243.530371 
L 331.975494 249.865993 
L 332.310791 245.03136 
L 332.646088 253.623259 
L 332.981385 255.321136 
L 333.316681 247.65928 
L 333.651978 244.661587 
L 333.987275 234.789655 
L 334.322572 231.55256 
L 334.657869 233.197734 
L 334.993166 230.282563 
L 335.328463 224.702751 
L 335.66376 226.562502 
L 336.334353 221.188792 
L 336.66965 225.796043 
L 337.004947 224.776449 
L 337.340244 231.031925 
L 337.675541 228.562132 
L 338.346135 211.424676 
L 338.681432 213.830572 
L 339.016729 227.583378 
L 339.352025 225.992313 
L 339.687322 215.586562 
L 340.022619 218.509233 
L 340.357916 216.455051 
L 340.693213 209.453079 
L 341.02851 215.235855 
L 341.363807 207.81919 
L 341.699104 205.662338 
L 342.0344 210.00715 
L 342.704994 190.680121 
L 343.040291 186.334735 
L 343.375588 190.193886 
L 343.710885 204.895921 
L 344.046182 206.239527 
L 344.381479 198.60697 
L 344.716776 195.984193 
L 345.052072 203.267563 
L 345.387369 203.479281 
L 345.722666 200.448391 
L 346.057963 198.515037 
L 346.728557 192.618204 
L 347.063854 192.060343 
L 347.734448 207.001425 
L 348.069744 202.177449 
L 348.740338 196.904037 
L 349.075635 201.93126 
L 349.410932 202.726336 
L 349.746229 199.002232 
L 350.081526 200.381216 
L 350.416823 205.93609 
L 351.087416 202.704344 
L 351.422713 204.57396 
L 351.75801 210.348313 
L 352.093307 211.421513 
L 352.428604 208.575651 
L 352.763901 214.846214 
L 353.099198 214.165777 
L 353.434495 214.385819 
L 353.769791 218.629956 
L 354.105088 219.389556 
L 354.440385 214.150623 
L 354.775682 206.262192 
L 355.110979 201.66471 
L 355.446276 204.697919 
L 355.781573 203.609653 
L 356.11687 205.549527 
L 356.452167 213.505159 
L 356.787463 210.964452 
L 357.12276 212.60254 
L 358.128651 190.383061 
L 358.463948 200.197344 
L 358.799245 203.118415 
L 359.134542 201.678226 
L 359.469839 205.882682 
L 359.805135 202.693437 
L 360.140432 205.80203 
L 360.475729 201.106304 
L 360.811026 201.986465 
L 361.816917 216.317865 
L 362.152214 215.031479 
L 362.487511 214.693703 
L 362.822807 210.649188 
L 363.158104 211.825291 
L 363.493401 211.460182 
L 364.163995 198.821205 
L 364.499292 205.697989 
L 364.834589 207.28176 
L 365.505183 225.718576 
L 365.840479 221.325418 
L 366.175776 237.253908 
L 366.511073 241.423461 
L 366.84637 238.976312 
L 367.181667 238.558134 
L 367.516964 234.803944 
L 367.852261 234.160885 
L 368.187558 231.490631 
L 368.522854 234.554758 
L 368.858151 232.058668 
L 369.193448 225.454654 
L 369.528745 229.974692 
L 369.864042 238.340638 
L 370.199339 240.762977 
L 370.534636 232.712626 
L 370.869933 234.932016 
L 371.540526 221.275731 
L 372.21112 214.415615 
L 372.546417 214.507636 
L 372.881714 210.606734 
L 373.217011 210.016358 
L 373.552308 207.713193 
L 373.887605 209.858206 
L 374.558198 201.791534 
L 374.893495 202.15899 
L 375.228792 195.225087 
L 375.564089 195.009803 
L 376.234683 203.619621 
L 376.56998 201.358091 
L 377.240574 190.403352 
L 377.57587 190.191941 
L 377.911167 192.809648 
L 378.246464 193.530796 
L 378.581761 197.737312 
L 378.917058 188.429922 
L 379.252355 186.174538 
L 380.258245 173.415279 
L 381.264136 189.718584 
L 381.599433 189.201339 
L 381.93473 191.092486 
L 382.270027 183.201707 
L 382.605324 179.158175 
L 382.940621 181.224135 
L 383.275917 175.443261 
L 383.611214 180.435888 
L 383.946511 183.132569 
L 384.281808 188.106159 
L 384.617105 185.735405 
L 384.952402 186.75199 
L 385.287699 182.180041 
L 385.622996 173.03351 
L 385.958293 168.922371 
L 386.293589 169.306433 
L 386.964183 180.110768 
L 387.634777 171.562202 
L 387.970074 172.010394 
L 388.305371 163.610856 
L 388.640668 159.089142 
L 388.975965 160.466017 
L 389.311261 158.12387 
L 389.646558 162.369628 
L 389.981855 152.528677 
L 390.317152 152.16798 
L 390.652449 154.201156 
L 390.987746 151.269619 
L 391.323043 149.454619 
L 391.65834 148.836744 
L 391.993636 140.433868 
L 392.328933 139.004535 
L 392.66423 141.890759 
L 392.999527 137.592043 
L 393.670121 142.189689 
L 394.005418 144.961059 
L 394.340715 149.910924 
L 395.346605 141.182092 
L 395.681902 139.968361 
L 396.017199 139.287816 
L 396.352496 141.424167 
L 397.02309 152.362107 
L 397.358387 150.738196 
L 397.693684 144.212729 
L 398.699574 160.795297 
L 399.034871 170.050258 
L 399.705465 159.990302 
L 400.040762 167.450664 
L 400.376059 166.070758 
L 400.711356 166.772979 
L 401.046652 162.850585 
L 401.381949 156.875433 
L 401.717246 159.767966 
L 402.052543 156.799126 
L 402.38784 159.051255 
L 403.058434 157.244553 
L 403.393731 162.226926 
L 403.729027 169.621241 
L 404.064324 170.102713 
L 404.399621 159.224076 
L 404.734918 159.734225 
L 405.070215 166.752635 
L 405.405512 169.72656 
L 405.740809 168.190705 
L 406.076106 164.770867 
L 406.746699 155.561618 
L 407.081996 152.647826 
L 407.417293 145.962442 
L 407.75259 147.374691 
L 408.087887 146.033797 
L 408.758481 117.230271 
L 409.093778 113.054875 
L 409.429075 114.271334 
L 409.764371 114.93937 
L 410.099668 104.438059 
L 410.099668 104.438059 
" clip-path="url(#p724759c2f5)" style="fill: none; stroke: #1f77b4; stroke-width: 2; stroke-linecap: square"/>
   </g>
   <g id="patch_3">
    <path d="M 58.39 266.245 
L 58.39 25.92 
" style="fill: none; stroke: #000000; stroke-width: 0.8; stroke-linejoin: miter; stroke-linecap: square"/>
   </g>
   <g id="patch_4">
    <path d="M 426.847748 266.245 
L 426.847748 25.92 
" style="fill: none; stroke: #000000; stroke-width: 0.8; stroke-linejoin: miter; stroke-linecap: square"/>
   </g>
   <g id="patch_5">
    <path d="M 58.39 266.245 
L 426.847748 266.245 
" style="fill: none; stroke: #000000; stroke-width: 0.8; stroke-linejoin: miter; stroke-linecap: square"/>
   </g>
   <g id="patch_6">
    <path d="M 58.39 25.92 
L 426.847748 25.92 
" style="fill: none; stroke: #000000; stroke-width: 0.8; stroke-linejoin: miter; stroke-linecap: square"/>
   </g>
  </g>
 </g>
 <defs>
  <clipPath id="p724759c2f5">
   <rect x="58.39" y="25.92" width="368.457748" height="240.325"/>
  </clipPath>
 </defs>
</svg>
