<?xml version="1.0" encoding="utf-8" standalone="no"?>
<!DOCTYPE svg PUBLIC "-//W3C//DTD SVG 1.1//EN"
  "http://www.w3.org/Graphics/SVG/1.1/DTD/svg11.dtd">
<svg xmlns:xlink="http://www.w3.org/1999/xlink" width="460.8pt" height="345.6pt" viewBox="0 0 460.8 345.6" xmlns="http://www.w3.org/2000/svg" version="1.1">
 <metadata>
  <rdf:RDF xmlns:dc="http://purl.org/dc/elements/1.1/" xmlns:cc="http://creativecommons.org/ns#" xmlns:rdf="http://www.w3.org/1999/02/22-rdf-syntax-ns#">
   <cc:Work>
    <dc:type rdf:resource="http://purl.org/dc/dcmitype/StillImage"/>
    <dc:date>2025-11-23T19:41:14.408876</dc:date>
    <dc:format>image/svg+xml</dc:format>
    <dc:creator>
     <cc:Agent>
      <dc:title>Matplotlib v3.10.6, https://matplotlib.org/</dc:title>
     </cc:Agent>
    </dc:creator>
   </cc:Work>
  </rdf:RDF>
 </metadata>
 <defs>
  <style type="text/css">*{stroke-linejoin: round; stroke-linecap: butt}</style>
 </defs>
 <g id="figure_1">
  <g id="patch_1">
   <path d="M 0 345.6 
L 460.8 345.6 
L 460.8 0 
L 0 0 
z
" style="fill: #ffffff"/>
  </g>
  <g id="axes_1">
   <g id="patch_2">
    <path d="M 57.6 307.584 
L 414.72 307.584 
L 414.72 41.472 
L 57.6 41.472 
z
" style="fill: #ffffff"/>
   </g>
   <g id="matplotlib.axis_1">
    <g id="xtick_1">
     <g id="line2d_1">
      <defs>
       <path id="m0c5a0da74d" d="M 0 0 
L 0 3.5 
" style="stroke: #000000; stroke-width: 0.8"/>
      </defs>
      <g>
       <use xlink:href="#m0c5a0da74d" x="73.832727" y="307.584" style="stroke: #000000; stroke-width: 0.8"/>
      </g>
     </g>
     <g id="text_1">
      <!-- 0 -->
      <g transform="translate(70.651477 322.182437) scale(0.1 -0.1)">
       <defs>
        <path id="DejaVuSans-30" d="M 2034 4250 
Q 1547 4250 1301 3770 
Q 1056 3291 1056 2328 
Q 1056 1369 1301 889 
Q 1547 409 2034 409 
Q 2525 409 2770 889 
Q 3016 1369 3016 2328 
Q 3016 3291 2770 3770 
Q 2525 4250 2034 4250 
z
M 2034 4750 
Q 2819 4750 3233 4129 
Q 3647 3509 3647 2328 
Q 3647 1150 3233 529 
Q 2819 -91 2034 -91 
Q 1250 -91 836 529 
Q 422 1150 422 2328 
Q 422 3509 836 4129 
Q 1250 4750 2034 4750 
z
" transform="scale(0.015625)"/>
       </defs>
       <use xlink:href="#DejaVuSans-30"/>
      </g>
     </g>
    </g>
    <g id="xtick_2">
     <g id="line2d_2">
      <g>
       <use xlink:href="#m0c5a0da74d" x="138.828632" y="307.584" style="stroke: #000000; stroke-width: 0.8"/>
      </g>
     </g>
     <g id="text_2">
      <!-- 200 -->
      <g transform="translate(129.284882 322.182437) scale(0.1 -0.1)">
       <defs>
        <path id="DejaVuSans-32" d="M 1228 531 
L 3431 531 
L 3431 0 
L 469 0 
L 469 531 
Q 828 903 1448 1529 
Q 2069 2156 2228 2338 
Q 2531 2678 2651 2914 
Q 2772 3150 2772 3378 
Q 2772 3750 2511 3984 
Q 2250 4219 1831 4219 
Q 1534 4219 1204 4116 
Q 875 4013 500 3803 
L 500 4441 
Q 881 4594 1212 4672 
Q 1544 4750 1819 4750 
Q 2544 4750 2975 4387 
Q 3406 4025 3406 3419 
Q 3406 3131 3298 2873 
Q 3191 2616 2906 2266 
Q 2828 2175 2409 1742 
Q 1991 1309 1228 531 
z
" transform="scale(0.015625)"/>
       </defs>
       <use xlink:href="#DejaVuSans-32"/>
       <use xlink:href="#DejaVuSans-30" transform="translate(63.623047 0)"/>
       <use xlink:href="#DejaVuSans-30" transform="translate(127.246094 0)"/>
      </g>
     </g>
    </g>
    <g id="xtick_3">
     <g id="line2d_3">
      <g>
       <use xlink:href="#m0c5a0da74d" x="203.824537" y="307.584" style="stroke: #000000; stroke-width: 0.8"/>
      </g>
     </g>
     <g id="text_3">
      <!-- 400 -->
      <g transform="translate(194.280787 322.182437) scale(0.1 -0.1)">
       <defs>
        <path id="DejaVuSans-34" d="M 2419 4116 
L 825 1625 
L 2419 1625 
L 2419 4116 
z
M 2253 4666 
L 3047 4666 
L 3047 1625 
L 3713 1625 
L 3713 1100 
L 3047 1100 
L 3047 0 
L 2419 0 
L 2419 1100 
L 313 1100 
L 313 1709 
L 2253 4666 
z
" transform="scale(0.015625)"/>
       </defs>
       <use xlink:href="#DejaVuSans-34"/>
       <use xlink:href="#DejaVuSans-30" transform="translate(63.623047 0)"/>
       <use xlink:href="#DejaVuSans-30" transform="translate(127.246094 0)"/>
      </g>
     </g>
    </g>
    <g id="xtick_4">
     <g id="line2d_4">
      <g>
       <use xlink:href="#m0c5a0da74d" x="268.820442" y="307.584" style="stroke: #000000; stroke-width: 0.8"/>
      </g>
     </g>
     <g id="text_4">
      <!-- 600 -->
      <g transform="translate(259.276692 322.182437) scale(0.1 -0.1)">
       <defs>
        <path id="DejaVuSans-36" d="M 2113 2584 
Q 1688 2584 1439 2293 
Q 1191 2003 1191 1497 
Q 1191 994 1439 701 
Q 1688 409 2113 409 
Q 2538 409 2786 701 
Q 3034 994 3034 1497 
Q 3034 2003 2786 2293 
Q 2538 2584 2113 2584 
z
M 3366 4563 
L 3366 3988 
Q 3128 4100 2886 4159 
Q 2644 4219 2406 4219 
Q 1781 4219 1451 3797 
Q 1122 3375 1075 2522 
Q 1259 2794 1537 2939 
Q 1816 3084 2150 3084 
Q 2853 3084 3261 2657 
Q 3669 2231 3669 1497 
Q 3669 778 3244 343 
Q 2819 -91 2113 -91 
Q 1303 -91 875 529 
Q 447 1150 447 2328 
Q 447 3434 972 4092 
Q 1497 4750 2381 4750 
Q 2619 4750 2861 4703 
Q 3103 4656 3366 4563 
z
" transform="scale(0.015625)"/>
       </defs>
       <use xlink:href="#DejaVuSans-36"/>
       <use xlink:href="#DejaVuSans-30" transform="translate(63.623047 0)"/>
       <use xlink:href="#DejaVuSans-30" transform="translate(127.246094 0)"/>
      </g>
     </g>
    </g>
    <g id="xtick_5">
     <g id="line2d_5">
      <g>
       <use xlink:href="#m0c5a0da74d" x="333.816347" y="307.584" style="stroke: #000000; stroke-width: 0.8"/>
      </g>
     </g>
     <g id="text_5">
      <!-- 800 -->
      <g transform="translate(324.272597 322.182437) scale(0.1 -0.1)">
       <defs>
        <path id="DejaVuSans-38" d="M 2034 2216 
Q 1584 2216 1326 1975 
Q 1069 1734 1069 1313 
Q 1069 891 1326 650 
Q 1584 409 2034 409 
Q 2484 409 2743 651 
Q 3003 894 3003 1313 
Q 3003 1734 2745 1975 
Q 2488 2216 2034 2216 
z
M 1403 2484 
Q 997 2584 770 2862 
Q 544 3141 544 3541 
Q 544 4100 942 4425 
Q 1341 4750 2034 4750 
Q 2731 4750 3128 4425 
Q 3525 4100 3525 3541 
Q 3525 3141 3298 2862 
Q 3072 2584 2669 2484 
Q 3125 2378 3379 2068 
Q 3634 1759 3634 1313 
Q 3634 634 3220 271 
Q 2806 -91 2034 -91 
Q 1263 -91 848 271 
Q 434 634 434 1313 
Q 434 1759 690 2068 
Q 947 2378 1403 2484 
z
M 1172 3481 
Q 1172 3119 1398 2916 
Q 1625 2713 2034 2713 
Q 2441 2713 2670 2916 
Q 2900 3119 2900 3481 
Q 2900 3844 2670 4047 
Q 2441 4250 2034 4250 
Q 1625 4250 1398 4047 
Q 1172 3844 1172 3481 
z
" transform="scale(0.015625)"/>
       </defs>
       <use xlink:href="#DejaVuSans-38"/>
       <use xlink:href="#DejaVuSans-30" transform="translate(63.623047 0)"/>
       <use xlink:href="#DejaVuSans-30" transform="translate(127.246094 0)"/>
      </g>
     </g>
    </g>
    <g id="xtick_6">
     <g id="line2d_6">
      <g>
       <use xlink:href="#m0c5a0da74d" x="398.812252" y="307.584" style="stroke: #000000; stroke-width: 0.8"/>
      </g>
     </g>
     <g id="text_6">
      <!-- 1000 -->
      <g transform="translate(386.087252 322.182437) scale(0.1 -0.1)">
       <defs>
        <path id="DejaVuSans-31" d="M 794 531 
L 1825 531 
L 1825 4091 
L 703 3866 
L 703 4441 
L 1819 4666 
L 2450 4666 
L 2450 531 
L 3481 531 
L 3481 0 
L 794 0 
L 794 531 
z
" transform="scale(0.015625)"/>
       </defs>
       <use xlink:href="#DejaVuSans-31"/>
       <use xlink:href="#DejaVuSans-30" transform="translate(63.623047 0)"/>
       <use xlink:href="#DejaVuSans-30" transform="translate(127.246094 0)"/>
       <use xlink:href="#DejaVuSans-30" transform="translate(190.869141 0)"/>
      </g>
     </g>
    </g>
   </g>
   <g id="matplotlib.axis_2">
    <g id="ytick_1">
     <g id="line2d_7">
      <defs>
       <path id="m3949355f92" d="M 0 0 
L -3.5 0 
" style="stroke: #000000; stroke-width: 0.8"/>
      </defs>
      <g>
       <use xlink:href="#m3949355f92" x="57.6" y="284.710443" style="stroke: #000000; stroke-width: 0.8"/>
      </g>
     </g>
     <g id="text_7">
      <!-- −80 -->
      <g transform="translate(29.495313 288.509662) scale(0.1 -0.1)">
       <defs>
        <path id="DejaVuSans-2212" d="M 678 2272 
L 4684 2272 
L 4684 1741 
L 678 1741 
L 678 2272 
z
" transform="scale(0.015625)"/>
       </defs>
       <use xlink:href="#DejaVuSans-2212"/>
       <use xlink:href="#DejaVuSans-38" transform="translate(83.789062 0)"/>
       <use xlink:href="#DejaVuSans-30" transform="translate(147.412109 0)"/>
      </g>
     </g>
    </g>
    <g id="ytick_2">
     <g id="line2d_8">
      <g>
       <use xlink:href="#m3949355f92" x="57.6" y="236.759688" style="stroke: #000000; stroke-width: 0.8"/>
      </g>
     </g>
     <g id="text_8">
      <!-- −60 -->
      <g transform="translate(29.495313 240.558906) scale(0.1 -0.1)">
       <use xlink:href="#DejaVuSans-2212"/>
       <use xlink:href="#DejaVuSans-36" transform="translate(83.789062 0)"/>
       <use xlink:href="#DejaVuSans-30" transform="translate(147.412109 0)"/>
      </g>
     </g>
    </g>
    <g id="ytick_3">
     <g id="line2d_9">
      <g>
       <use xlink:href="#m3949355f92" x="57.6" y="188.808932" style="stroke: #000000; stroke-width: 0.8"/>
      </g>
     </g>
     <g id="text_9">
      <!-- −40 -->
      <g transform="translate(29.495313 192.608151) scale(0.1 -0.1)">
       <use xlink:href="#DejaVuSans-2212"/>
       <use xlink:href="#DejaVuSans-34" transform="translate(83.789062 0)"/>
       <use xlink:href="#DejaVuSans-30" transform="translate(147.412109 0)"/>
      </g>
     </g>
    </g>
    <g id="ytick_4">
     <g id="line2d_10">
      <g>
       <use xlink:href="#m3949355f92" x="57.6" y="140.858177" style="stroke: #000000; stroke-width: 0.8"/>
      </g>
     </g>
     <g id="text_10">
      <!-- −20 -->
      <g transform="translate(29.495313 144.657396) scale(0.1 -0.1)">
       <use xlink:href="#DejaVuSans-2212"/>
       <use xlink:href="#DejaVuSans-32" transform="translate(83.789062 0)"/>
       <use xlink:href="#DejaVuSans-30" transform="translate(147.412109 0)"/>
      </g>
     </g>
    </g>
    <g id="ytick_5">
     <g id="line2d_11">
      <g>
       <use xlink:href="#m3949355f92" x="57.6" y="92.907422" style="stroke: #000000; stroke-width: 0.8"/>
      </g>
     </g>
     <g id="text_11">
      <!-- 0 -->
      <g transform="translate(44.2375 96.706641) scale(0.1 -0.1)">
       <use xlink:href="#DejaVuSans-30"/>
      </g>
     </g>
    </g>
    <g id="ytick_6">
     <g id="line2d_12">
      <g>
       <use xlink:href="#m3949355f92" x="57.6" y="44.956667" style="stroke: #000000; stroke-width: 0.8"/>
      </g>
     </g>
     <g id="text_12">
      <!-- 20 -->
      <g transform="translate(37.875 48.755885) scale(0.1 -0.1)">
       <use xlink:href="#DejaVuSans-32"/>
       <use xlink:href="#DejaVuSans-30" transform="translate(63.623047 0)"/>
      </g>
     </g>
    </g>
   </g>
   <g id="line2d_13">
    <path d="M 73.832727 92.907422 
L 74.482686 96.049808 
L 74.807666 94.566207 
L 75.132645 95.454007 
L 75.457625 91.529207 
L 75.782604 91.108194 
L 76.107584 89.949285 
L 76.432563 89.202396 
L 77.082523 83.860477 
L 77.407502 82.811841 
L 77.732482 76.886424 
L 78.057461 79.478481 
L 78.382441 79.33726 
L 78.70742 77.201285 
L 79.682359 68.022216 
L 80.007338 67.823065 
L 80.332318 65.844311 
L 80.657297 68.801635 
L 80.982277 69.982584 
L 81.307256 66.420846 
L 81.632236 65.260845 
L 81.957215 65.756087 
L 82.282195 62.853635 
L 83.257133 72.330131 
L 83.582113 69.5155 
L 83.907093 71.062942 
L 84.232072 75.66707 
L 84.557052 78.612181 
L 84.882031 78.716319 
L 85.53199 84.958286 
L 85.85697 85.213284 
L 86.181949 86.185284 
L 86.506929 84.596793 
L 86.831908 88.49431 
L 87.481867 90.221709 
L 87.806847 93.992343 
L 88.456806 98.090355 
L 88.781785 98.23915 
L 89.106765 95.20992 
L 89.431744 97.403597 
L 89.756724 102.080492 
L 90.081704 100.230083 
L 90.731663 104.33248 
L 91.056642 107.148857 
L 91.381622 107.985712 
L 91.706601 104.768418 
L 92.031581 103.430561 
L 92.35656 104.541313 
L 92.68154 104.070174 
L 93.006519 106.357254 
L 93.331499 105.584767 
L 93.656478 106.360276 
L 93.981458 103.432088 
L 94.306437 106.144015 
L 94.631417 106.328775 
L 94.956396 107.474548 
L 95.606355 105.433311 
L 95.931335 106.141026 
L 96.256314 105.229808 
L 96.581294 105.157519 
L 96.906274 106.128524 
L 97.231253 108.810169 
L 97.556233 109.74128 
L 97.881212 112.793238 
L 98.206192 114.502357 
L 98.531171 113.995058 
L 98.856151 115.548765 
L 99.18113 116.230106 
L 100.156069 128.214127 
L 100.481048 128.491646 
L 100.806028 127.551939 
L 101.131007 125.897159 
L 101.455987 129.677426 
L 102.430925 135.603334 
L 102.755905 135.469279 
L 103.080885 137.547062 
L 103.405864 137.940309 
L 103.730844 137.799092 
L 104.055823 134.967345 
L 104.380803 141.029144 
L 104.705782 141.586496 
L 105.030762 143.392779 
L 105.355741 146.655495 
L 105.680721 148.110627 
L 106.0057 146.280571 
L 106.33068 145.373036 
L 106.655659 146.083491 
L 107.305618 151.495795 
L 107.630598 154.662264 
L 107.955577 154.168496 
L 108.280557 159.047963 
L 108.930516 164.111917 
L 109.580475 168.122515 
L 109.905455 167.647301 
L 110.230434 166.620815 
L 110.555414 166.734739 
L 110.880393 164.855383 
L 111.205373 164.959439 
L 111.530352 164.418242 
L 111.855332 162.431739 
L 112.180311 161.547669 
L 112.505291 157.621138 
L 112.83027 158.587115 
L 113.15525 158.92986 
L 113.480229 156.886139 
L 113.805209 156.238862 
L 114.130188 157.00916 
L 114.455168 156.038434 
L 114.780147 151.971616 
L 115.105127 152.759131 
L 115.430106 147.950135 
L 115.755086 145.535019 
L 116.080066 143.978883 
L 116.405045 141.611941 
L 116.730025 142.589452 
L 117.379984 140.790073 
L 117.704963 141.954317 
L 118.354922 135.865971 
L 118.679902 138.539659 
L 119.004881 138.764803 
L 119.65484 133.683931 
L 119.97982 136.600423 
L 120.629779 131.299561 
L 120.954758 131.433432 
L 121.279738 131.325975 
L 121.604717 131.571537 
L 121.929697 134.457684 
L 122.254676 135.628073 
L 122.579656 135.839672 
L 122.904636 136.456897 
L 123.879574 125.277346 
L 124.529533 120.854709 
L 124.854513 120.916513 
L 125.179492 123.196688 
L 125.504472 123.692083 
L 125.829451 122.79955 
L 126.154431 124.715223 
L 126.47941 124.772714 
L 126.80439 121.118748 
L 127.129369 121.479956 
L 127.454349 125.046802 
L 128.104308 127.509239 
L 128.429287 130.020752 
L 128.754267 134.097182 
L 129.079247 132.453998 
L 129.404226 130.089147 
L 129.729206 129.195341 
L 130.054185 129.193907 
L 130.379165 127.218945 
L 130.704144 128.618235 
L 131.029124 128.795059 
L 131.354103 129.136891 
L 131.679083 128.008439 
L 132.004062 122.51997 
L 132.329042 123.499339 
L 132.654021 119.106023 
L 132.979001 122.7273 
L 133.30398 121.341228 
L 133.62896 119.302874 
L 133.953939 118.258694 
L 134.278919 120.980516 
L 134.603898 118.602357 
L 134.928878 119.46124 
L 135.253857 119.173842 
L 135.578837 116.142823 
L 135.903817 116.466984 
L 136.228796 115.531711 
L 136.553776 116.938873 
L 136.878755 118.865998 
L 137.203735 119.574787 
L 137.528714 119.932633 
L 137.853694 117.19151 
L 138.178673 118.135381 
L 138.828632 122.965992 
L 139.153612 123.447373 
L 139.478591 123.118488 
L 139.803571 122.353818 
L 140.12855 124.195217 
L 140.45353 125.073717 
L 140.778509 123.425206 
L 141.103489 120.621505 
L 141.428468 124.693391 
L 142.078428 129.355119 
L 143.703325 145.285203 
L 144.028305 149.938003 
L 144.353284 150.032089 
L 144.678264 149.78866 
L 145.003243 148.802812 
L 145.653202 142.421619 
L 145.978182 142.813712 
L 146.303161 144.308087 
L 146.628141 146.475773 
L 146.95312 149.596311 
L 147.2781 156.75152 
L 147.603079 158.285256 
L 148.253038 163.57957 
L 148.578018 162.776012 
L 148.902998 165.799548 
L 149.227977 166.813097 
L 149.877936 175.55737 
L 150.202916 175.535973 
L 150.527895 175.736049 
L 151.177854 185.146427 
L 152.152793 190.470317 
L 152.477772 196.181313 
L 153.127731 200.877655 
L 153.452711 201.32599 
L 153.77769 204.258496 
L 154.10267 208.552054 
L 154.427649 207.765855 
L 154.752629 204.39523 
L 155.077609 204.392918 
L 155.402588 205.306242 
L 155.727568 203.225687 
L 156.052547 202.447547 
L 156.377527 201.190845 
L 156.702506 201.013042 
L 157.027486 200.584943 
L 157.677445 205.70503 
L 158.002424 205.825556 
L 158.327404 209.046375 
L 158.652383 208.472312 
L 158.977363 211.219287 
L 159.627322 220.174454 
L 159.952301 220.369241 
L 160.277281 221.290947 
L 160.60226 221.307936 
L 160.92724 218.920442 
L 161.252219 218.125174 
L 161.902179 221.614924 
L 162.227158 226.222412 
L 162.877117 230.644864 
L 163.202097 227.930589 
L 163.527076 227.371175 
L 164.177035 233.162006 
L 164.502015 233.083906 
L 164.826994 229.545905 
L 165.151974 232.549965 
L 166.126912 237.003352 
L 166.776871 244.807344 
L 167.101851 246.238893 
L 167.42683 249.850664 
L 167.75181 251.636041 
L 168.07679 251.95603 
L 168.401769 252.642512 
L 168.726749 254.097698 
L 169.051728 254.918119 
L 169.376708 258.489705 
L 169.701687 259.378597 
L 170.026667 258.933252 
L 170.351646 260.556194 
L 170.676626 260.158497 
L 171.001605 265.192997 
L 171.326585 264.915608 
L 171.651564 266.00498 
L 171.976544 268.260223 
L 172.626503 259.502378 
L 172.951482 259.041078 
L 173.601441 256.488671 
L 173.926421 258.786355 
L 174.2514 259.133258 
L 174.57638 256.877544 
L 174.90136 252.882661 
L 175.226339 254.448301 
L 175.551319 255.296071 
L 175.876298 254.428269 
L 176.201278 256.086215 
L 176.526257 256.15909 
L 176.851237 252.956506 
L 177.176216 253.316803 
L 177.501196 252.699546 
L 177.826175 256.363927 
L 178.151155 256.223361 
L 178.476134 254.17388 
L 179.126093 261.416339 
L 179.451073 260.18749 
L 179.776052 260.754274 
L 180.101032 260.818427 
L 180.426011 260.29924 
L 180.750991 255.712367 
L 181.075971 256.248579 
L 181.40095 257.055785 
L 181.72593 256.840388 
L 182.050909 255.854628 
L 182.375889 256.231068 
L 182.700868 257.695444 
L 183.025848 258.39435 
L 183.350827 261.139273 
L 183.675807 261.881582 
L 184.000786 261.208873 
L 184.325766 264.101536 
L 184.650745 263.819537 
L 184.975725 265.251367 
L 185.300704 265.896044 
L 185.625684 269.152947 
L 185.950663 269.644494 
L 186.275643 265.721887 
L 186.600622 264.395137 
L 186.925602 263.947722 
L 187.250581 264.182672 
L 187.575561 265.449216 
L 187.900541 265.404955 
L 188.22552 266.567649 
L 188.875479 264.477526 
L 189.200459 266.026802 
L 189.525438 263.749842 
L 189.850418 256.659661 
L 190.175397 255.261193 
L 190.500377 256.691162 
L 190.825356 260.254534 
L 191.475315 262.38414 
L 191.800295 261.804009 
L 192.125274 257.089175 
L 192.450254 259.898892 
L 192.775233 259.726674 
L 193.100213 259.850535 
L 194.075152 269.273461 
L 194.400131 268.788262 
L 195.05009 272.217151 
L 195.37507 275.585171 
L 195.700049 274.017455 
L 196.025029 277.829847 
L 196.674988 274.327555 
L 196.999967 278.105302 
L 197.324947 279.955645 
L 197.974906 273.446574 
L 198.299885 272.984934 
L 198.624865 274.329898 
L 198.949844 278.30512 
L 199.274824 283.670035 
L 199.924783 285.585792 
L 200.249762 285.189002 
L 200.574742 287.488361 
L 200.899722 286.992591 
L 201.224701 285.625151 
L 201.549681 285.941529 
L 201.87466 286.557999 
L 202.524619 292.231677 
L 202.849599 290.898262 
L 203.174578 291.147239 
L 203.499558 292.639927 
L 203.824537 292.721243 
L 204.149517 289.789654 
L 204.474496 289.533358 
L 204.799476 290.768653 
L 205.124455 290.529939 
L 205.449435 291.639518 
L 206.099394 287.638869 
L 206.424373 287.150102 
L 206.749353 288.232556 
L 207.074333 292.222698 
L 207.399312 291.557851 
L 207.724292 290.157144 
L 208.374251 286.328435 
L 208.69923 286.588692 
L 209.02421 287.034446 
L 209.349189 284.747913 
L 209.674169 287.8604 
L 209.999148 287.0986 
L 210.974087 291.842077 
L 211.299066 291.835906 
L 211.624046 290.908991 
L 211.949025 289.307576 
L 212.274005 289.358719 
L 212.598984 289.935338 
L 212.923964 289.592039 
L 213.573923 291.573883 
L 213.898903 293.811193 
L 214.223882 294.944708 
L 214.873841 293.29141 
L 215.198821 291.429521 
L 215.5238 294.566036 
L 215.84878 294.06474 
L 216.173759 295.488 
L 216.498739 295.084591 
L 216.823718 292.339062 
L 217.473677 294.774186 
L 217.798657 292.945834 
L 218.448616 282.260779 
L 218.773595 281.98256 
L 219.098575 281.186335 
L 219.423554 280.755277 
L 219.748534 283.8609 
L 220.073514 285.185243 
L 220.398493 285.898401 
L 220.723473 286.284527 
L 221.048452 285.737748 
L 221.373432 284.45293 
L 222.023391 286.851605 
L 222.998329 279.322539 
L 223.648288 271.236697 
L 223.973268 271.27292 
L 224.298247 269.164655 
L 224.623227 268.586266 
L 224.948206 267.696459 
L 225.273186 268.005693 
L 225.598165 270.480728 
L 225.923145 266.997608 
L 226.248124 265.896527 
L 226.573104 266.092213 
L 226.898084 264.196378 
L 227.223063 266.393925 
L 227.548043 266.998041 
L 227.873022 270.028833 
L 228.198002 270.537702 
L 228.522981 268.89852 
L 228.847961 269.237555 
L 229.17294 266.482816 
L 229.49792 266.438376 
L 229.822899 264.524103 
L 230.147879 261.601822 
L 230.472858 261.367926 
L 230.797838 257.717347 
L 231.447797 254.518948 
L 231.772776 254.890912 
L 232.097756 253.210073 
L 232.422735 256.310755 
L 232.747715 254.17804 
L 233.072695 258.279951 
L 233.397674 259.020609 
L 233.722654 256.896692 
L 234.047633 256.302564 
L 234.372613 251.528171 
L 235.022572 249.44807 
L 235.347551 248.959657 
L 235.672531 249.599193 
L 235.99751 247.377735 
L 236.647469 245.833343 
L 236.972449 247.165677 
L 237.297428 246.719831 
L 237.622408 247.041123 
L 237.947387 248.309699 
L 238.597346 253.758351 
L 238.922326 259.6376 
L 239.247305 260.278874 
L 239.897265 258.791716 
L 240.547224 254.335715 
L 240.872203 253.977989 
L 241.197183 255.938462 
L 242.172121 264.670247 
L 242.497101 263.2532 
L 242.82208 262.40013 
L 243.14706 267.542047 
L 243.472039 266.510131 
L 243.797019 270.951961 
L 244.121998 267.598217 
L 244.771957 259.105815 
L 245.096937 258.040853 
L 245.746896 250.482495 
L 246.071876 249.345227 
L 247.046814 234.595289 
L 247.371794 234.804699 
L 247.696773 231.658647 
L 248.021753 231.112189 
L 248.671712 225.775646 
L 248.996691 225.454707 
L 249.97163 215.068778 
L 250.296609 214.073278 
L 250.621589 212.144026 
L 250.946568 207.664727 
L 251.596527 205.330084 
L 252.571466 195.902935 
L 252.896446 192.235181 
L 253.221425 192.206855 
L 253.546405 192.391035 
L 253.871384 194.488992 
L 254.196364 193.944172 
L 254.521343 194.03849 
L 254.846323 193.779109 
L 255.171302 195.495014 
L 255.496282 196.155717 
L 255.821261 197.699538 
L 256.146241 196.977466 
L 257.121179 202.050935 
L 257.446159 203.596012 
L 257.771138 204.402503 
L 258.096118 207.597087 
L 258.421097 207.111475 
L 259.396036 211.212036 
L 259.721016 210.313084 
L 260.045995 210.018763 
L 260.370975 212.648157 
L 260.695954 209.412671 
L 261.020934 209.955897 
L 261.670893 202.322827 
L 261.995872 199.390922 
L 262.320852 201.862014 
L 262.645831 202.349322 
L 262.970811 203.425851 
L 263.29579 206.39234 
L 263.62077 207.833993 
L 264.595708 202.948974 
L 264.920688 203.879834 
L 265.245667 203.939455 
L 265.570647 201.885412 
L 265.895627 199.089946 
L 266.545586 197.847868 
L 266.870565 197.783732 
L 267.195545 199.371839 
L 267.520524 202.88969 
L 267.845504 197.552185 
L 268.170483 199.151609 
L 268.495463 198.004781 
L 269.145422 193.488251 
L 269.470401 192.775064 
L 269.795381 190.67855 
L 270.44534 182.851502 
L 270.770319 185.055818 
L 271.095299 184.233018 
L 271.420278 185.64 
L 271.745258 183.02161 
L 272.070238 183.318875 
L 272.395217 184.862526 
L 273.370156 178.890534 
L 273.695135 177.449691 
L 274.020115 176.659938 
L 274.345094 178.521121 
L 274.670074 181.589723 
L 274.995053 176.857562 
L 275.320033 174.059223 
L 275.645012 174.099576 
L 275.969992 171.726737 
L 276.294971 170.491892 
L 276.619951 170.681218 
L 276.94493 164.609059 
L 277.26991 161.718771 
L 277.594889 157.718542 
L 277.919869 156.835207 
L 279.219787 142.813885 
L 279.544767 143.398079 
L 280.194726 140.308186 
L 280.519705 135.423602 
L 280.844685 132.866911 
L 281.169664 133.578703 
L 281.819623 141.709133 
L 282.469582 146.544203 
L 283.119541 142.007089 
L 283.444521 141.200311 
L 283.7695 136.810058 
L 284.09448 133.970165 
L 284.419459 133.597539 
L 284.744439 132.205081 
L 285.069419 133.569696 
L 285.394398 137.862548 
L 285.719378 136.763105 
L 286.044357 134.783461 
L 286.369337 136.017519 
L 286.694316 136.58615 
L 287.019296 139.28226 
L 287.669255 147.574031 
L 287.994234 148.935778 
L 288.319214 152.881354 
L 288.644193 150.676668 
L 288.969173 152.307708 
L 289.294152 152.826378 
L 289.619132 152.134077 
L 289.944111 152.966273 
L 290.269091 151.129567 
L 290.59407 151.000557 
L 290.91905 150.704093 
L 291.244029 147.125527 
L 291.569009 139.647071 
L 291.893989 136.242049 
L 292.218968 134.071157 
L 292.543948 136.756394 
L 292.868927 136.525133 
L 293.193907 137.768428 
L 293.518886 136.996003 
L 293.843866 137.58543 
L 294.168845 137.488878 
L 294.493825 140.630848 
L 294.818804 138.954932 
L 295.468763 130.100907 
L 295.793743 130.861205 
L 296.118722 129.216235 
L 296.443702 128.673116 
L 296.768681 127.2825 
L 297.093661 127.610546 
L 297.41864 125.208277 
L 297.74362 127.15546 
L 298.0686 127.099052 
L 298.393579 125.399695 
L 298.718559 123.033261 
L 299.043538 122.858757 
L 299.368518 117.664445 
L 299.693497 116.131677 
L 300.018477 113.274711 
L 300.343456 107.693949 
L 300.668436 107.568029 
L 300.993415 106.160262 
L 301.318395 103.679244 
L 301.643374 104.979019 
L 302.618313 96.890022 
L 302.943292 94.573715 
L 303.268272 93.605263 
L 304.24321 86.317611 
L 304.56819 87.681132 
L 304.89317 91.126769 
L 305.218149 89.875828 
L 305.543129 85.053088 
L 305.868108 85.735984 
L 306.193088 88.023751 
L 306.843047 88.864256 
L 307.168026 85.100808 
L 307.493006 85.082897 
L 307.817985 87.403426 
L 308.142965 90.892502 
L 308.467944 89.784903 
L 309.117903 84.83479 
L 309.442883 83.848441 
L 309.767862 87.058182 
L 310.092842 87.130332 
L 310.417821 88.040144 
L 310.742801 87.519734 
L 311.067781 87.519652 
L 311.39276 88.450163 
L 311.71774 86.875462 
L 312.042719 86.909203 
L 312.692678 85.07283 
L 313.017658 85.752299 
L 313.342637 90.943189 
L 313.667617 90.951534 
L 313.992596 90.477364 
L 314.317576 88.059024 
L 315.292514 75.265538 
L 315.617494 74.038787 
L 315.942473 69.961328 
L 316.267453 74.493451 
L 316.592432 75.889289 
L 316.917412 73.736237 
L 317.242391 74.300701 
L 317.892351 68.115417 
L 318.21733 64.049603 
L 318.54231 65.521664 
L 318.867289 61.641103 
L 319.192269 61.949891 
L 319.517248 63.510338 
L 319.842228 63.152075 
L 320.492187 65.161612 
L 320.817166 65.486193 
L 321.142146 64.820718 
L 321.467125 65.117333 
L 321.792105 64.475839 
L 322.117084 62.546534 
L 322.442064 59.246727 
L 322.767043 58.9809 
L 323.092023 59.996675 
L 323.417002 60.17541 
L 323.741982 61.4124 
L 324.066962 60.271608 
L 324.391941 62.43514 
L 325.0419 56.942702 
L 325.36688 59.426736 
L 325.691859 60.50814 
L 326.016839 57.685369 
L 326.341818 57.659275 
L 326.666798 56.354929 
L 326.991777 56.237958 
L 327.316757 54.645267 
L 327.641736 55.618187 
L 327.966716 53.568 
L 328.616675 64.06475 
L 328.941654 66.019738 
L 329.266634 65.732113 
L 329.591613 68.512258 
L 329.916593 67.755105 
L 330.241572 64.409567 
L 331.216511 69.347163 
L 331.86647 77.596807 
L 332.19145 76.540002 
L 332.516429 83.642002 
L 332.841409 83.345027 
L 333.166388 84.192556 
L 333.816347 83.609094 
L 334.141327 81.026412 
L 334.466306 80.73113 
L 335.116265 73.5653 
L 335.441245 75.181988 
L 335.766224 75.854194 
L 336.416183 72.25571 
L 336.741163 76.956534 
L 337.066143 77.304404 
L 337.391122 81.211727 
L 337.716102 82.675836 
L 338.041081 85.297425 
L 338.366061 85.468029 
L 338.69104 88.501192 
L 339.01602 94.041834 
L 339.340999 96.321431 
L 339.665979 94.812302 
L 339.990958 100.877162 
L 340.315938 101.065511 
L 340.640917 102.01187 
L 341.290876 104.513318 
L 341.615856 107.932633 
L 341.940835 109.238983 
L 342.265815 110.046652 
L 342.590794 111.336515 
L 342.915774 113.546116 
L 343.240753 113.954082 
L 343.565733 112.849791 
L 343.890713 114.938088 
L 344.215692 112.771724 
L 344.540672 112.531464 
L 344.865651 111.183841 
L 345.190631 111.532906 
L 345.51561 112.189176 
L 345.84059 114.428272 
L 346.490549 112.506785 
L 347.140508 117.531312 
L 347.465487 117.577068 
L 347.790467 115.842585 
L 348.115446 116.126099 
L 348.440426 115.321952 
L 348.765405 116.219967 
L 349.090385 113.218131 
L 349.415364 113.094955 
L 349.740344 114.376077 
L 350.715283 111.018016 
L 351.365242 112.522915 
L 351.690221 110.084532 
L 352.015201 111.284366 
L 352.34018 110.913709 
L 352.66516 108.097549 
L 352.990139 109.549637 
L 353.315119 108.376805 
L 353.965078 110.26828 
L 354.290057 110.510262 
L 354.615037 113.487124 
L 354.940016 110.964514 
L 355.264996 106.655657 
L 355.914955 103.062552 
L 356.564914 99.535898 
L 357.214873 106.174624 
L 357.539853 107.639652 
L 358.514791 117.425611 
L 358.839771 117.532287 
L 359.16475 116.011607 
L 359.48973 116.920511 
L 359.814709 121.749608 
L 360.139689 123.613219 
L 360.464668 123.538567 
L 360.789648 125.494631 
L 361.114627 128.372719 
L 361.764586 136.572028 
L 362.089566 136.874115 
L 362.414545 138.554124 
L 362.739525 143.669269 
L 363.064505 143.130571 
L 363.389484 141.951992 
L 364.689402 157.739589 
L 365.014382 156.849156 
L 365.339361 156.880577 
L 365.664341 155.082537 
L 365.98932 155.096337 
L 366.3143 156.679366 
L 366.639279 155.301983 
L 366.964259 155.87028 
L 367.289238 154.829037 
L 367.614218 154.164084 
L 367.939197 155.051328 
L 368.264177 154.557426 
L 369.564095 148.431714 
L 369.889075 148.508555 
L 370.214054 149.113211 
L 370.539034 148.01843 
L 370.864013 151.071015 
L 371.188993 151.376471 
L 371.513972 147.918685 
L 371.838952 147.855212 
L 372.163931 144.653408 
L 372.488911 144.385189 
L 372.81389 141.92837 
L 373.13887 144.005544 
L 373.463849 144.997516 
L 373.788829 140.075106 
L 374.113808 137.648497 
L 374.763767 135.014637 
L 375.088747 136.557977 
L 375.738706 130.56077 
L 376.063686 130.416079 
L 376.388665 126.052722 
L 376.713645 126.050143 
L 377.038624 129.799007 
L 377.363604 129.430943 
L 377.688583 126.865656 
L 378.013563 126.792716 
L 378.338542 125.429679 
L 378.988501 134.065487 
L 379.313481 131.886296 
L 379.63846 130.711963 
L 379.96344 131.300296 
L 380.288419 128.136423 
L 380.613399 128.861497 
L 380.938378 130.084407 
L 381.263358 130.196771 
L 381.588337 131.704042 
L 381.913317 135.523117 
L 382.238296 136.675899 
L 383.213235 149.56334 
L 383.538215 152.576221 
L 383.863194 150.504348 
L 384.188174 150.168178 
L 384.513153 154.386517 
L 384.838133 156.895046 
L 385.813071 151.15546 
L 386.138051 147.223217 
L 386.46303 150.422812 
L 386.78801 149.100445 
L 387.112989 143.848439 
L 387.437969 143.731702 
L 387.762948 142.299511 
L 388.087928 141.776486 
L 388.412907 141.026792 
L 388.737887 141.166496 
L 389.062867 140.150829 
L 389.387846 142.611924 
L 389.712826 141.550953 
L 390.037805 138.793804 
L 390.362785 140.196211 
L 390.687764 140.365469 
L 391.012744 141.067574 
L 391.337723 140.627006 
L 391.662703 137.892798 
L 391.987682 139.7056 
L 392.312662 140.887011 
L 392.637641 141.311781 
L 392.962621 142.876963 
L 393.2876 141.284879 
L 393.61258 137.98679 
L 393.937559 137.845635 
L 394.262539 132.863326 
L 394.587518 130.895052 
L 394.912498 125.36967 
L 395.237477 127.012704 
L 395.562457 126.195919 
L 395.887437 124.393276 
L 396.212416 126.159639 
L 396.537396 130.106654 
L 396.862375 130.845066 
L 397.187355 129.968693 
L 397.837314 134.956022 
L 398.162293 141.793405 
L 398.487273 143.461894 
L 398.487273 143.461894 
" clip-path="url(#pc545bff29c)" style="fill: none; stroke: #1f77b4; stroke-width: 1.5; stroke-linecap: square"/>
   </g>
   <g id="patch_3">
    <path d="M 57.6 307.584 
L 57.6 41.472 
" style="fill: none; stroke: #000000; stroke-width: 0.8; stroke-linejoin: miter; stroke-linecap: square"/>
   </g>
   <g id="patch_4">
    <path d="M 414.72 307.584 
L 414.72 41.472 
" style="fill: none; stroke: #000000; stroke-width: 0.8; stroke-linejoin: miter; stroke-linecap: square"/>
   </g>
   <g id="patch_5">
    <path d="M 57.6 307.584 
L 414.72 307.584 
" style="fill: none; stroke: #000000; stroke-width: 0.8; stroke-linejoin: miter; stroke-linecap: square"/>
   </g>
   <g id="patch_6">
    <path d="M 57.6 41.472 
L 414.72 41.472 
" style="fill: none; stroke: #000000; stroke-width: 0.8; stroke-linejoin: miter; stroke-linecap: square"/>
   </g>
  </g>
 </g>
 <defs>
  <clipPath id="pc545bff29c">
   <rect x="57.6" y="41.472" width="357.12" height="266.112"/>
  </clipPath>
 </defs>
</svg>
