<?xml version="1.0" encoding="utf-8" standalone="no"?>
<!DOCTYPE svg PUBLIC "-//W3C//DTD SVG 1.1//EN"
  "http://www.w3.org/Graphics/SVG/1.1/DTD/svg11.dtd">
<svg xmlns:xlink="http://www.w3.org/1999/xlink" width="460.8pt" height="345.6pt" viewBox="0 0 460.8 345.6" xmlns="http://www.w3.org/2000/svg" version="1.1">
 <metadata>
  <rdf:RDF xmlns:dc="http://purl.org/dc/elements/1.1/" xmlns:cc="http://creativecommons.org/ns#" xmlns:rdf="http://www.w3.org/1999/02/22-rdf-syntax-ns#">
   <cc:Work>
    <dc:type rdf:resource="http://purl.org/dc/dcmitype/StillImage"/>
    <dc:date>2026-02-02T15:33:45.599957</dc:date>
    <dc:format>image/svg+xml</dc:format>
    <dc:creator>
     <cc:Agent>
      <dc:title>Matplotlib v3.10.8, https://matplotlib.org/</dc:title>
     </cc:Agent>
    </dc:creator>
   </cc:Work>
  </rdf:RDF>
 </metadata>
 <defs>
  <style type="text/css">*{stroke-linejoin: round; stroke-linecap: butt}</style>
 </defs>
 <g id="figure_1">
  <g id="patch_1">
   <path d="M 0 345.6 
L 460.8 345.6 
L 460.8 0 
L 0 0 
z
" style="fill: #ffffff"/>
  </g>
  <g id="axes_1">
   <g id="patch_2">
    <path d="M 58.39 266.245 
L 426.847748 266.245 
L 426.847748 25.92 
L 58.39 25.92 
z
" style="fill: #ffffff"/>
   </g>
   <g id="matplotlib.axis_1">
    <g id="xtick_1">
     <g id="line2d_1">
      <path d="M 75.138079 266.245 
L 75.138079 25.92 
" clip-path="url(#p2b9386879b)" style="fill: none; stroke: #b0b0b0; stroke-width: 0.8; stroke-linecap: square"/>
     </g>
     <g id="line2d_2">
      <defs>
       <path id="m3bb90e5d12" d="M 0 0 
L 0 3.5 
" style="stroke: #000000; stroke-width: 0.8"/>
      </defs>
      <g>
       <use xlink:href="#m3bb90e5d12" x="75.138079" y="266.245" style="stroke: #000000; stroke-width: 0.8"/>
      </g>
     </g>
     <g id="text_1">
      <!-- 0 -->
      <g transform="translate(69.138079 289.63625) scale(0.24 -0.24)">
       <defs>
        <path id="TeXGyreTermes-Regular-30" d="M 3046 2112 
C 3046 3424 2464 4326 1626 4326 
C 1274 4326 1005 4218 768 3994 
C 397 3635 154 2899 154 2150 
C 154 1453 365 704 666 346 
C 902 64 1229 -90 1600 -90 
C 1926 -90 2202 19 2432 243 
C 2803 595 3046 1338 3046 2112 
z
M 2432 2099 
C 2432 762 2150 77 1600 77 
C 1050 77 768 762 768 2093 
C 768 3450 1056 4160 1606 4160 
C 2144 4160 2432 3437 2432 2099 
z
" transform="scale(0.015625)"/>
       </defs>
       <use xlink:href="#TeXGyreTermes-Regular-30"/>
      </g>
     </g>
    </g>
    <g id="xtick_2">
     <g id="line2d_3">
      <path d="M 158.962301 266.245 
L 158.962301 25.92 
" clip-path="url(#p2b9386879b)" style="fill: none; stroke: #b0b0b0; stroke-width: 0.8; stroke-linecap: square"/>
     </g>
     <g id="line2d_4">
      <g>
       <use xlink:href="#m3bb90e5d12" x="158.962301" y="266.245" style="stroke: #000000; stroke-width: 0.8"/>
      </g>
     </g>
     <g id="text_2">
      <!-- 250 -->
      <g transform="translate(140.962301 289.63625) scale(0.24 -0.24)">
       <defs>
        <path id="TeXGyreTermes-Regular-32" d="M 3040 877 
L 2957 909 
C 2720 544 2637 486 2349 486 
L 819 486 
L 1894 1613 
C 2464 2208 2714 2694 2714 3194 
C 2714 3834 2195 4326 1530 4326 
C 1178 4326 845 4186 608 3930 
C 403 3712 307 3507 198 3053 
L 333 3021 
C 589 3648 819 3853 1261 3853 
C 1798 3853 2163 3488 2163 2950 
C 2163 2451 1869 1856 1331 1286 
L 192 77 
L 192 0 
L 2688 0 
L 3040 877 
z
" transform="scale(0.015625)"/>
        <path id="TeXGyreTermes-Regular-35" d="M 2803 4358 
L 2746 4403 
C 2650 4269 2586 4237 2451 4237 
L 1114 4237 
L 416 2720 
C 410 2707 410 2688 410 2688 
C 410 2656 435 2637 486 2637 
C 691 2637 947 2592 1210 2509 
C 1946 2272 2285 1875 2285 1242 
C 2285 627 1894 147 1395 147 
C 1267 147 1158 192 966 333 
C 762 480 614 544 480 544 
C 294 544 205 467 205 307 
C 205 64 506 -90 986 -90 
C 1523 -90 1984 83 2304 410 
C 2598 698 2733 1062 2733 1549 
C 2733 2010 2611 2304 2291 2624 
C 2010 2906 1645 3053 890 3187 
L 1158 3731 
L 2413 3731 
C 2515 3731 2541 3744 2560 3789 
L 2803 4358 
z
" transform="scale(0.015625)"/>
       </defs>
       <use xlink:href="#TeXGyreTermes-Regular-32"/>
       <use xlink:href="#TeXGyreTermes-Regular-35" transform="translate(49.999985 0)"/>
       <use xlink:href="#TeXGyreTermes-Regular-30" transform="translate(99.999969 0)"/>
      </g>
     </g>
    </g>
    <g id="xtick_3">
     <g id="line2d_5">
      <path d="M 242.786522 266.245 
L 242.786522 25.92 
" clip-path="url(#p2b9386879b)" style="fill: none; stroke: #b0b0b0; stroke-width: 0.8; stroke-linecap: square"/>
     </g>
     <g id="line2d_6">
      <g>
       <use xlink:href="#m3bb90e5d12" x="242.786522" y="266.245" style="stroke: #000000; stroke-width: 0.8"/>
      </g>
     </g>
     <g id="text_3">
      <!-- 500 -->
      <g transform="translate(224.786522 289.63625) scale(0.24 -0.24)">
       <use xlink:href="#TeXGyreTermes-Regular-35"/>
       <use xlink:href="#TeXGyreTermes-Regular-30" transform="translate(49.999985 0)"/>
       <use xlink:href="#TeXGyreTermes-Regular-30" transform="translate(99.999969 0)"/>
      </g>
     </g>
    </g>
    <g id="xtick_4">
     <g id="line2d_7">
      <path d="M 326.610744 266.245 
L 326.610744 25.92 
" clip-path="url(#p2b9386879b)" style="fill: none; stroke: #b0b0b0; stroke-width: 0.8; stroke-linecap: square"/>
     </g>
     <g id="line2d_8">
      <g>
       <use xlink:href="#m3bb90e5d12" x="326.610744" y="266.245" style="stroke: #000000; stroke-width: 0.8"/>
      </g>
     </g>
     <g id="text_4">
      <!-- 750 -->
      <g transform="translate(308.610744 289.63625) scale(0.24 -0.24)">
       <defs>
        <path id="TeXGyreTermes-Regular-37" d="M 2874 4134 
L 2874 4237 
L 506 4237 
L 128 3296 
L 237 3245 
C 512 3680 627 3763 979 3763 
L 2368 3763 
L 1101 -51 
L 1517 -51 
L 2874 4134 
z
" transform="scale(0.015625)"/>
       </defs>
       <use xlink:href="#TeXGyreTermes-Regular-37"/>
       <use xlink:href="#TeXGyreTermes-Regular-35" transform="translate(49.999985 0)"/>
       <use xlink:href="#TeXGyreTermes-Regular-30" transform="translate(99.999969 0)"/>
      </g>
     </g>
    </g>
    <g id="xtick_5">
     <g id="line2d_9">
      <path d="M 410.434965 266.245 
L 410.434965 25.92 
" clip-path="url(#p2b9386879b)" style="fill: none; stroke: #b0b0b0; stroke-width: 0.8; stroke-linecap: square"/>
     </g>
     <g id="line2d_10">
      <g>
       <use xlink:href="#m3bb90e5d12" x="410.434965" y="266.245" style="stroke: #000000; stroke-width: 0.8"/>
      </g>
     </g>
     <g id="text_5">
      <!-- 1000 -->
      <g transform="translate(386.434965 289.63625) scale(0.24 -0.24)">
       <defs>
        <path id="TeXGyreTermes-Regular-31" d="M 2522 0 
L 2522 96 
C 2016 102 1914 166 1914 474 
L 1914 4314 
L 1862 4326 
L 710 3744 
L 710 3654 
C 787 3686 858 3712 883 3725 
C 998 3770 1107 3795 1171 3795 
C 1306 3795 1363 3699 1363 3494 
L 1363 595 
C 1363 384 1312 237 1210 179 
C 1114 122 1024 102 755 96 
L 755 0 
L 2522 0 
z
" transform="scale(0.015625)"/>
       </defs>
       <use xlink:href="#TeXGyreTermes-Regular-31"/>
       <use xlink:href="#TeXGyreTermes-Regular-30" transform="translate(49.999985 0)"/>
       <use xlink:href="#TeXGyreTermes-Regular-30" transform="translate(99.999969 0)"/>
       <use xlink:href="#TeXGyreTermes-Regular-30" transform="translate(149.999954 0)"/>
      </g>
     </g>
    </g>
    <g id="text_6">
     <!-- Schritt k -->
     <g transform="translate(201.616374 315.23625) scale(0.24 -0.24)">
      <defs>
       <path id="TeXGyreTermes-Regular-53" d="M 3142 1075 
C 3142 1606 2790 2016 1946 2477 
C 1274 2842 1005 3123 1005 3475 
C 1005 3827 1274 4064 1670 4064 
C 1958 4064 2227 3942 2451 3712 
C 2650 3507 2739 3341 2842 2963 
L 3002 2963 
L 2861 4326 
L 2726 4326 
C 2701 4186 2630 4109 2522 4109 
C 2458 4109 2355 4134 2240 4186 
C 2003 4275 1773 4326 1549 4326 
C 1299 4326 1030 4224 826 4058 
C 576 3853 454 3578 454 3226 
C 454 2720 736 2362 1453 1984 
C 1914 1734 2246 1478 2406 1235 
C 2464 1146 2496 1018 2496 858 
C 2496 435 2176 141 1709 141 
C 1133 141 736 493 416 1274 
L 269 1274 
L 461 -83 
L 602 -83 
C 608 38 685 128 781 128 
C 851 128 960 102 1082 58 
C 1325 -38 1581 -90 1837 -90 
C 2579 -90 3142 416 3142 1075 
z
" transform="scale(0.015625)"/>
       <path id="TeXGyreTermes-Regular-63" d="M 2637 941 
L 2547 998 
C 2240 550 2010 397 1645 397 
C 1056 397 653 909 653 1645 
C 653 2310 1005 2758 1523 2758 
C 1754 2758 1837 2688 1901 2451 
L 1939 2310 
C 1990 2125 2106 2016 2246 2016 
C 2413 2016 2547 2138 2547 2285 
C 2547 2643 2099 2944 1562 2944 
C 1261 2944 954 2829 698 2618 
C 352 2330 160 1888 160 1357 
C 160 531 666 -64 1376 -64 
C 1651 -64 1894 26 2112 205 
C 2304 358 2432 544 2637 941 
z
" transform="scale(0.015625)"/>
       <path id="TeXGyreTermes-Regular-68" d="M 3117 0 
L 3117 96 
C 2771 160 2733 211 2733 653 
L 2733 1926 
C 2733 2598 2464 2944 1946 2944 
C 1568 2944 1299 2790 1005 2406 
L 1005 4352 
L 973 4371 
C 755 4294 595 4243 237 4141 
L 64 4090 
L 64 3987 
C 90 3994 109 3994 141 3994 
C 416 3994 467 3942 467 3667 
L 467 653 
C 467 205 429 147 58 96 
L 58 0 
L 1440 0 
L 1440 96 
C 1069 134 1005 211 1005 653 
L 1005 2195 
C 1274 2490 1466 2598 1715 2598 
C 2035 2598 2195 2368 2195 1920 
L 2195 653 
C 2195 218 2131 134 1760 96 
L 1760 0 
L 3117 0 
z
" transform="scale(0.015625)"/>
       <path id="TeXGyreTermes-Regular-72" d="M 2144 2605 
C 2144 2816 2010 2944 1792 2944 
C 1523 2944 1338 2797 1024 2342 
L 1024 2931 
L 992 2944 
C 653 2803 422 2720 45 2598 
L 45 2496 
C 134 2515 192 2522 269 2522 
C 429 2522 486 2419 486 2138 
L 486 538 
C 486 218 442 173 32 96 
L 32 0 
L 1568 0 
L 1568 96 
C 1133 115 1024 211 1024 576 
L 1024 2016 
C 1024 2221 1299 2541 1472 2541 
C 1510 2541 1568 2509 1638 2445 
C 1741 2355 1811 2317 1894 2317 
C 2048 2317 2144 2426 2144 2605 
z
" transform="scale(0.015625)"/>
       <path id="TeXGyreTermes-Regular-69" d="M 1619 0 
L 1619 96 
C 1197 128 1146 192 1146 653 
L 1146 2925 
L 1120 2944 
L 128 2592 
L 128 2496 
L 179 2502 
C 256 2515 339 2522 397 2522 
C 550 2522 608 2419 608 2138 
L 608 653 
C 608 192 544 122 102 96 
L 102 0 
L 1619 0 
z
M 1203 3776 
C 1203 3955 1062 4102 877 4102 
C 698 4102 550 3955 550 3776 
C 550 3590 698 3450 877 3450 
C 1062 3450 1203 3590 1203 3776 
z
" transform="scale(0.015625)"/>
       <path id="TeXGyreTermes-Regular-74" d="M 1786 422 
L 1702 493 
C 1562 326 1459 269 1318 269 
C 1082 269 986 435 986 845 
L 986 2675 
L 1632 2675 
L 1632 2880 
L 986 2880 
L 986 3622 
C 986 3686 973 3706 941 3706 
C 902 3642 858 3584 813 3526 
C 576 3174 358 2938 192 2842 
C 122 2797 83 2758 83 2720 
C 83 2701 90 2688 109 2675 
L 448 2675 
L 448 749 
C 448 211 640 -64 1011 -64 
C 1331 -64 1574 90 1786 422 
z
" transform="scale(0.015625)"/>
       <path id="TeXGyreTermes-Regular-20" transform="scale(0.015625)"/>
       <path id="TeXGyreTermes-Regular-6b" d="M 3232 0 
L 3232 96 
C 2950 115 2752 237 2483 563 
L 1504 1805 
L 1690 1978 
C 2144 2400 2541 2694 2726 2746 
C 2822 2771 2912 2784 3021 2784 
L 3072 2784 
L 3072 2880 
L 1766 2880 
L 1766 2790 
C 2016 2784 2086 2758 2086 2669 
C 2086 2618 2029 2528 1939 2451 
L 1062 1670 
L 1062 4358 
L 1037 4371 
L 237 4141 
L 45 4090 
L 45 3987 
C 128 3994 186 4000 250 4000 
C 461 4000 525 3917 525 3610 
L 525 525 
C 525 192 506 173 45 96 
L 45 0 
L 1542 0 
L 1542 96 
L 1414 102 
C 1158 115 1062 205 1062 429 
L 1062 1606 
L 1958 410 
L 1978 384 
C 1990 365 2003 346 2022 326 
C 2074 262 2093 224 2093 192 
C 2093 134 2035 96 1958 96 
L 1837 96 
L 1837 0 
L 3232 0 
z
" transform="scale(0.015625)"/>
      </defs>
      <use xlink:href="#TeXGyreTermes-Regular-53"/>
      <use xlink:href="#TeXGyreTermes-Regular-63" transform="translate(55.599991 0)"/>
      <use xlink:href="#TeXGyreTermes-Regular-68" transform="translate(99.999985 0)"/>
      <use xlink:href="#TeXGyreTermes-Regular-72" transform="translate(149.999969 0)"/>
      <use xlink:href="#TeXGyreTermes-Regular-69" transform="translate(183.299957 0)"/>
      <use xlink:href="#TeXGyreTermes-Regular-74" transform="translate(211.099945 0)"/>
      <use xlink:href="#TeXGyreTermes-Regular-74" transform="translate(238.899933 0)"/>
      <use xlink:href="#TeXGyreTermes-Regular-20" transform="translate(266.699921 0)"/>
      <use xlink:href="#TeXGyreTermes-Regular-6b" transform="translate(291.699905 0)"/>
     </g>
    </g>
   </g>
   <g id="matplotlib.axis_2">
    <g id="ytick_1">
     <g id="line2d_11">
      <path d="M 58.39 258.407533 
L 426.847748 258.407533 
" clip-path="url(#p2b9386879b)" style="fill: none; stroke: #b0b0b0; stroke-width: 0.8; stroke-linecap: square"/>
     </g>
     <g id="line2d_12">
      <defs>
       <path id="m0e842b902e" d="M 0 0 
L -3.5 0 
" style="stroke: #000000; stroke-width: 0.8"/>
      </defs>
      <g>
       <use xlink:href="#m0e842b902e" x="58.39" y="258.407533" style="stroke: #000000; stroke-width: 0.8"/>
      </g>
     </g>
     <g id="text_7">
      <!-- −4 -->
      <g transform="translate(25.8525 266.603158) scale(0.24 -0.24)">
       <defs>
        <path id="TeXGyreTermes-Regular-2212" d="M 3354 1389 
L 3354 1811 
L 256 1811 
L 256 1389 
L 3354 1389 
z
" transform="scale(0.015625)"/>
        <path id="TeXGyreTermes-Regular-34" d="M 3021 1069 
L 3021 1478 
L 2368 1478 
L 2368 4326 
L 2086 4326 
L 77 1478 
L 77 1069 
L 1875 1069 
L 1875 0 
L 2368 0 
L 2368 1069 
L 3021 1069 
z
M 1869 1478 
L 333 1478 
L 1869 3674 
L 1869 1478 
z
" transform="scale(0.015625)"/>
       </defs>
       <use xlink:href="#TeXGyreTermes-Regular-2212"/>
       <use xlink:href="#TeXGyreTermes-Regular-34" transform="translate(56.399994 0)"/>
      </g>
     </g>
    </g>
    <g id="ytick_2">
     <g id="line2d_13">
      <path d="M 58.39 198.952562 
L 426.847748 198.952562 
" clip-path="url(#p2b9386879b)" style="fill: none; stroke: #b0b0b0; stroke-width: 0.8; stroke-linecap: square"/>
     </g>
     <g id="line2d_14">
      <g>
       <use xlink:href="#m0e842b902e" x="58.39" y="198.952562" style="stroke: #000000; stroke-width: 0.8"/>
      </g>
     </g>
     <g id="text_8">
      <!-- −2 -->
      <g transform="translate(25.8525 207.148187) scale(0.24 -0.24)">
       <use xlink:href="#TeXGyreTermes-Regular-2212"/>
       <use xlink:href="#TeXGyreTermes-Regular-32" transform="translate(56.399994 0)"/>
      </g>
     </g>
    </g>
    <g id="ytick_3">
     <g id="line2d_15">
      <path d="M 58.39 139.497591 
L 426.847748 139.497591 
" clip-path="url(#p2b9386879b)" style="fill: none; stroke: #b0b0b0; stroke-width: 0.8; stroke-linecap: square"/>
     </g>
     <g id="line2d_16">
      <g>
       <use xlink:href="#m0e842b902e" x="58.39" y="139.497591" style="stroke: #000000; stroke-width: 0.8"/>
      </g>
     </g>
     <g id="text_9">
      <!-- 0 -->
      <g transform="translate(39.39 147.693216) scale(0.24 -0.24)">
       <use xlink:href="#TeXGyreTermes-Regular-30"/>
      </g>
     </g>
    </g>
    <g id="ytick_4">
     <g id="line2d_17">
      <path d="M 58.39 80.042619 
L 426.847748 80.042619 
" clip-path="url(#p2b9386879b)" style="fill: none; stroke: #b0b0b0; stroke-width: 0.8; stroke-linecap: square"/>
     </g>
     <g id="line2d_18">
      <g>
       <use xlink:href="#m0e842b902e" x="58.39" y="80.042619" style="stroke: #000000; stroke-width: 0.8"/>
      </g>
     </g>
     <g id="text_10">
      <!-- 2 -->
      <g transform="translate(39.39 88.238244) scale(0.24 -0.24)">
       <use xlink:href="#TeXGyreTermes-Regular-32"/>
      </g>
     </g>
    </g>
   </g>
   <g id="line2d_19">
    <path d="M 75.138079 160.187953 
L 75.473376 81.991133 
L 75.808673 147.623651 
L 76.14397 110.627046 
L 76.479267 138.183487 
L 76.814564 127.472035 
L 77.149861 157.256864 
L 77.485158 145.295369 
L 77.820455 162.457766 
L 78.155751 124.123077 
L 78.491048 112.891561 
L 78.826345 141.955817 
L 79.161642 140.29598 
L 79.496939 177.697909 
L 79.832236 148.765095 
L 80.167533 141.270014 
L 80.50283 214.838885 
L 80.838127 116.452184 
L 81.173423 119.39844 
L 81.50872 185.55338 
L 81.844017 72.805433 
L 82.179314 163.935128 
L 82.514611 110.19495 
L 82.849908 173.090081 
L 83.185205 152.543319 
L 83.520502 94.33842 
L 83.855798 156.829767 
L 84.191095 160.69903 
L 84.526392 88.739023 
L 84.861689 140.698876 
L 85.196986 146.245574 
L 85.532283 179.506832 
L 85.86758 162.175563 
L 86.202877 125.844773 
L 86.538174 153.019172 
L 86.87347 153.372578 
L 87.208767 110.191713 
L 87.544064 129.41418 
L 87.879361 129.049317 
L 88.214658 160.705187 
L 88.549955 236.362411 
L 88.885252 164.258049 
L 89.220549 133.494766 
L 89.555846 135.323117 
L 89.891142 172.81989 
L 90.226439 134.43523 
L 90.561736 109.836743 
L 90.897033 160.592306 
L 91.567627 96.385097 
L 91.902924 184.365076 
L 92.238221 161.853189 
L 92.573518 147.836062 
L 92.908814 157.623239 
L 93.244111 125.545196 
L 93.914705 167.547958 
L 94.250002 137.194735 
L 94.920596 133.176251 
L 95.255893 145.658196 
L 95.591189 168.787531 
L 95.926486 140.367243 
L 96.261783 98.892557 
L 96.59708 138.757183 
L 96.932377 164.972016 
L 97.267674 125.23642 
L 97.602971 58.445914 
L 97.938268 154.928552 
L 98.273565 173.972476 
L 98.608861 162.949859 
L 98.944158 146.441054 
L 99.279455 171.399321 
L 99.614752 172.061674 
L 100.285346 143.960781 
L 100.620643 168.529732 
L 100.95594 180.119508 
L 101.291237 137.527713 
L 101.626533 189.036022 
L 101.96183 146.269576 
L 102.297127 84.916341 
L 102.632424 138.006626 
L 102.967721 152.483941 
L 103.303018 135.565498 
L 103.638315 124.266818 
L 103.973612 161.499389 
L 104.308909 164.2596 
L 104.644205 135.438201 
L 104.979502 124.423643 
L 105.314799 139.194879 
L 105.650096 158.898399 
L 106.32069 103.834135 
L 106.655987 119.475691 
L 106.991284 192.710091 
L 107.32658 124.410476 
L 107.661877 148.052378 
L 107.997174 148.015603 
L 108.332471 142.826624 
L 108.667768 143.979001 
L 109.003065 157.306639 
L 109.338362 156.926857 
L 109.673659 159.790441 
L 110.008956 144.123232 
L 110.344252 177.610494 
L 110.679549 129.853096 
L 111.014846 112.859747 
L 111.350143 141.165187 
L 112.020737 98.669394 
L 112.691331 185.484291 
L 113.361924 91.081293 
L 113.697221 151.308726 
L 114.032518 123.637618 
L 114.367815 80.394754 
L 114.703112 139.039226 
L 115.038409 109.122558 
L 115.373706 110.254038 
L 115.709003 138.645832 
L 116.0443 137.330456 
L 116.379596 110.092781 
L 116.714893 153.026551 
L 117.05019 119.527184 
L 117.385487 126.706123 
L 117.720784 186.770502 
L 118.056081 131.281316 
L 118.391378 166.567089 
L 118.726675 158.359887 
L 119.061971 120.311031 
L 119.397268 120.872841 
L 119.732565 127.656612 
L 120.067862 162.364802 
L 120.403159 153.776208 
L 120.738456 135.73902 
L 121.073753 188.23653 
L 121.40905 103.956434 
L 121.744347 113.542172 
L 122.079643 148.082074 
L 122.41494 115.840579 
L 122.750237 140.071851 
L 123.085534 172.597427 
L 123.420831 135.266281 
L 123.756128 172.994527 
L 124.091425 84.679346 
L 124.426722 87.361928 
L 125.097315 127.818872 
L 125.432612 100.727127 
L 125.767909 93.17543 
L 126.103206 138.049449 
L 126.438503 126.285311 
L 126.7738 171.774998 
L 127.109097 162.121359 
L 127.779691 125.284684 
L 128.114987 140.744065 
L 128.450284 95.013686 
L 128.785581 129.420205 
L 129.120878 129.424207 
L 129.456175 89.814878 
L 129.791472 110.147814 
L 130.126769 168.379564 
L 130.797362 105.401015 
L 131.132659 117.351444 
L 131.467956 171.293292 
L 131.803253 128.378864 
L 132.13855 141.419133 
L 132.473847 132.943545 
L 132.809144 208.247188 
L 133.144441 188.036479 
L 133.479738 101.127427 
L 133.815034 147.04321 
L 134.150331 128.367339 
L 134.485628 216.650621 
L 134.820925 157.984834 
L 135.156222 214.7685 
L 135.826816 120.030606 
L 136.162113 137.961824 
L 136.49741 169.511834 
L 136.832706 133.313609 
L 137.168003 116.254941 
L 137.5033 193.494051 
L 138.173894 132.453134 
L 138.509191 167.565988 
L 138.844488 114.138118 
L 139.179785 137.155852 
L 139.515082 171.347864 
L 139.850378 128.728912 
L 140.185675 120.767717 
L 140.520972 154.398265 
L 140.856269 159.900559 
L 141.191566 156.965669 
L 141.526863 93.838226 
L 141.86216 129.811104 
L 142.197457 130.433339 
L 142.532753 198.347139 
L 142.86805 87.026895 
L 143.203347 171.102501 
L 143.538644 107.562986 
L 143.873941 164.627016 
L 144.209238 107.211544 
L 144.544535 93.716201 
L 145.215129 170.852118 
L 145.550425 123.197874 
L 145.885722 143.71683 
L 146.221019 95.07821 
L 146.556316 117.803549 
L 146.891613 154.943806 
L 147.22691 148.756712 
L 147.562207 114.708631 
L 147.897504 120.337995 
L 148.232801 80.018336 
L 148.568097 157.261857 
L 148.903394 61.408778 
L 149.238691 142.849083 
L 149.573988 186.332019 
L 149.909285 111.570735 
L 150.244582 113.857308 
L 150.579879 121.739687 
L 150.915176 167.933876 
L 151.250473 179.256151 
L 151.585769 171.628807 
L 151.921066 221.390142 
L 152.256363 110.759114 
L 152.59166 168.514138 
L 152.926957 130.293755 
L 153.262254 156.297452 
L 153.597551 143.252239 
L 153.932848 140.367646 
L 154.268144 170.935283 
L 154.603441 137.492103 
L 154.938738 141.653921 
L 155.274035 117.99514 
L 155.609332 145.425717 
L 155.944629 147.46239 
L 156.279926 111.999943 
L 156.615223 138.893801 
L 156.95052 124.038596 
L 157.285816 141.074786 
L 157.95641 108.106496 
L 158.291707 119.318088 
L 158.627004 146.934789 
L 159.297598 113.452681 
L 159.632895 120.213865 
L 159.968192 134.30385 
L 160.303488 180.485195 
L 160.638785 169.385455 
L 160.974082 119.758812 
L 161.644676 131.503447 
L 161.979973 185.227664 
L 162.31527 77.555105 
L 162.650567 170.338535 
L 162.985864 93.188231 
L 163.32116 115.840307 
L 163.656457 111.934322 
L 163.991754 126.150487 
L 164.327051 135.279037 
L 164.662348 78.288112 
L 164.997645 159.074395 
L 165.332942 122.171905 
L 165.668239 110.211255 
L 166.003535 133.112356 
L 166.338832 100.818938 
L 166.674129 171.768974 
L 167.009426 102.033022 
L 167.344723 139.844339 
L 167.68002 141.630117 
L 168.015317 123.416859 
L 168.350614 154.962146 
L 169.021207 130.081278 
L 169.356504 131.809718 
L 169.691801 149.614031 
L 170.027098 151.876942 
L 170.362395 189.909206 
L 170.697692 91.644482 
L 171.032989 109.665905 
L 171.368286 187.446345 
L 171.703583 196.69435 
L 172.038879 150.009259 
L 172.374176 128.1192 
L 172.709473 117.31065 
L 173.04477 193.454523 
L 173.380067 85.117693 
L 173.715364 191.36836 
L 174.050661 186.593327 
L 174.385958 136.140419 
L 174.721255 117.978369 
L 175.056551 163.599117 
L 175.391848 145.778697 
L 175.727145 143.487763 
L 176.062442 192.597446 
L 176.397739 89.091504 
L 177.068333 156.374908 
L 177.40363 148.429251 
L 177.738926 113.906179 
L 178.074223 168.690357 
L 178.40952 152.417337 
L 178.744817 155.280405 
L 179.080114 128.586371 
L 179.415411 139.942017 
L 179.750708 132.171296 
L 180.086005 155.134382 
L 180.421302 82.930968 
L 180.756598 143.272971 
L 181.091895 98.153316 
L 181.762489 144.945028 
L 182.097786 177.775836 
L 182.76838 126.756619 
L 183.103677 149.333418 
L 183.77427 138.100356 
L 184.109567 170.725795 
L 184.444864 114.653472 
L 184.780161 110.3489 
L 185.115458 128.773599 
L 185.450755 134.280779 
L 185.786052 105.958633 
L 186.121349 155.586562 
L 186.456646 145.781776 
L 186.791942 191.590813 
L 187.127239 180.06103 
L 187.462536 128.642169 
L 187.797833 181.421514 
L 188.13313 132.16516 
L 188.468427 129.287324 
L 188.803724 113.178726 
L 189.139021 139.510249 
L 189.474317 113.442007 
L 189.809614 137.438366 
L 190.144911 108.881101 
L 190.480208 125.808699 
L 190.815505 150.677198 
L 191.150802 119.224685 
L 191.486099 177.330486 
L 191.821396 130.000817 
L 192.156693 147.484428 
L 192.491989 239.455988 
L 192.827286 164.035444 
L 193.162583 154.852607 
L 193.49788 179.495816 
L 193.833177 126.559361 
L 194.168474 184.574298 
L 194.503771 74.400438 
L 195.174365 186.315429 
L 195.509661 110.668879 
L 195.844958 109.559995 
L 196.180255 165.250745 
L 196.515552 129.912481 
L 196.850849 133.636757 
L 197.186146 178.979599 
L 197.521443 115.357351 
L 197.85674 79.989266 
L 198.192037 104.253057 
L 198.527333 142.30465 
L 198.86263 210.892424 
L 199.197927 125.671926 
L 199.533224 136.907132 
L 199.868521 161.794917 
L 200.203818 168.007142 
L 200.539115 70.862281 
L 200.874412 131.717944 
L 201.209708 154.171783 
L 201.545005 154.820232 
L 201.880302 146.787791 
L 202.215599 129.437528 
L 202.550896 151.680816 
L 202.886193 147.712228 
L 203.22149 170.692317 
L 203.556787 175.700531 
L 204.22738 106.1986 
L 204.562677 114.529355 
L 204.897974 134.813847 
L 205.233271 131.147919 
L 205.568568 145.857363 
L 205.903865 176.226796 
L 206.239162 118.858351 
L 206.574459 130.006558 
L 206.909756 255.321136 
L 207.245052 107.311151 
L 207.580349 147.243898 
L 207.915646 140.019948 
L 208.250943 116.389565 
L 208.58624 214.736275 
L 208.921537 124.631471 
L 209.256834 152.106019 
L 209.592131 108.237605 
L 209.927428 85.28473 
L 210.598021 120.72928 
L 210.933318 200.631071 
L 211.939209 144.084874 
L 212.274506 147.788496 
L 212.609803 123.113409 
L 212.945099 112.423802 
L 213.280396 139.521699 
L 213.615693 193.554487 
L 213.95099 146.180621 
L 214.286287 126.64453 
L 214.956881 168.262221 
L 215.292178 118.770974 
L 215.627475 150.546641 
L 215.962771 128.331655 
L 216.298068 134.200268 
L 216.633365 111.467849 
L 216.968662 144.851354 
L 217.303959 154.980628 
L 217.639256 141.668048 
L 217.974553 94.343109 
L 218.30985 134.656838 
L 218.645147 152.425647 
L 218.980443 130.229481 
L 219.31574 168.32864 
L 219.651037 134.744101 
L 219.986334 145.733577 
L 220.321631 211.547782 
L 220.656928 109.68421 
L 220.992225 147.571856 
L 221.327522 130.622945 
L 221.662819 154.125576 
L 221.998115 109.338855 
L 222.333412 94.264629 
L 222.668709 153.936591 
L 223.004006 140.599321 
L 223.339303 138.003175 
L 223.6746 84.551496 
L 224.009897 127.659557 
L 224.345194 144.687161 
L 225.015787 98.600588 
L 225.351084 112.830386 
L 225.686381 176.237093 
L 226.356975 44.686209 
L 226.692272 124.235933 
L 227.027569 117.713133 
L 227.362866 36.843864 
L 228.033459 166.832289 
L 228.368756 156.192075 
L 228.704053 120.09912 
L 229.374647 202.799683 
L 229.709944 178.475476 
L 230.045241 122.554039 
L 230.380538 161.755211 
L 230.715834 112.603726 
L 231.386428 191.734708 
L 231.721725 135.616444 
L 232.057022 186.370526 
L 232.392319 213.731398 
L 232.727616 155.835649 
L 233.062913 159.718213 
L 233.39821 179.276353 
L 233.733506 157.182049 
L 234.068803 104.771889 
L 234.4041 169.479798 
L 234.739397 74.598884 
L 235.074694 153.298576 
L 235.409991 113.190698 
L 235.745288 156.175 
L 236.080585 126.614771 
L 236.415881 159.955857 
L 236.751178 141.112023 
L 237.086475 196.629136 
L 237.421772 152.460382 
L 237.757069 178.903184 
L 238.092366 162.002218 
L 238.76296 96.793897 
L 239.098257 129.319923 
L 239.433553 189.625158 
L 239.76885 214.812699 
L 240.104147 173.186782 
L 240.439444 153.308195 
L 240.774741 190.65554 
L 241.110038 148.194173 
L 241.445335 163.349676 
L 241.780632 102.065499 
L 242.115929 163.745916 
L 242.451225 139.857764 
L 242.786522 168.503658 
L 243.121819 101.71547 
L 243.792413 157.449081 
L 244.12771 98.94072 
L 244.463007 105.47388 
L 244.798304 150.730168 
L 245.133601 94.874076 
L 245.468897 171.177438 
L 245.804194 112.517897 
L 246.139491 74.802764 
L 246.474788 109.303015 
L 246.810085 113.739737 
L 247.480679 151.28171 
L 247.815976 147.874192 
L 248.151272 99.505015 
L 248.486569 105.785538 
L 248.821866 108.109399 
L 249.157163 159.574353 
L 249.49246 153.412924 
L 249.827757 165.162333 
L 250.163054 127.77196 
L 250.498351 168.745434 
L 250.833648 107.481563 
L 251.168944 166.109153 
L 251.839538 108.594445 
L 252.174835 184.072679 
L 252.510132 114.377095 
L 252.845429 131.992748 
L 253.180726 124.466131 
L 253.516023 146.815009 
L 253.85132 127.97001 
L 254.186616 117.958265 
L 254.521913 101.074611 
L 254.85721 116.049285 
L 255.192507 163.777476 
L 255.863101 173.738084 
L 256.533695 95.607017 
L 256.868992 146.793509 
L 257.204288 123.323454 
L 257.539585 84.168195 
L 257.874882 214.95291 
L 258.210179 127.704473 
L 258.545476 144.963224 
L 258.880773 112.076379 
L 259.21607 168.810428 
L 259.551367 130.331503 
L 259.886663 138.682158 
L 260.22196 44.704911 
L 260.557257 185.26485 
L 260.892554 133.57536 
L 261.227851 165.946426 
L 261.898445 71.273294 
L 262.233742 117.342455 
L 262.569039 133.33659 
L 262.904335 117.904876 
L 263.239632 158.280099 
L 263.574929 118.024375 
L 263.910226 135.70334 
L 264.245523 120.473905 
L 264.58082 115.046187 
L 264.916117 163.594436 
L 265.251414 122.346795 
L 265.586711 100.793102 
L 266.257304 136.270771 
L 266.592601 134.545455 
L 266.927898 106.274985 
L 267.263195 160.710108 
L 267.598492 120.86999 
L 267.933789 123.596187 
L 268.269086 160.401079 
L 268.604383 163.882717 
L 268.939679 192.825704 
L 269.274976 122.944258 
L 269.610273 89.540809 
L 269.94557 104.681472 
L 270.280867 204.029364 
L 270.616164 172.369274 
L 270.951461 184.366987 
L 271.286758 117.827623 
L 271.957351 142.413919 
L 272.292648 149.179433 
L 272.627945 135.77949 
L 272.963242 189.046185 
L 273.298539 120.305125 
L 273.633836 127.992959 
L 273.969133 74.974446 
L 274.30443 83.715416 
L 274.639726 77.794116 
L 274.975023 123.267727 
L 275.31032 143.388451 
L 275.645617 137.287433 
L 275.980914 164.159858 
L 276.316211 147.965067 
L 276.651508 222.431923 
L 276.986805 137.487894 
L 277.322102 203.919878 
L 277.657398 162.339781 
L 277.992695 89.6895 
L 278.327992 105.430174 
L 278.663289 156.669675 
L 278.998586 116.782838 
L 279.333883 116.816189 
L 279.66918 164.255346 
L 280.004477 183.989936 
L 280.339774 106.79943 
L 280.67507 114.406876 
L 281.010367 129.075447 
L 281.345664 80.370608 
L 281.680961 126.157299 
L 282.016258 142.378676 
L 282.351555 101.429321 
L 282.686852 193.397461 
L 283.357445 137.233227 
L 283.692742 141.242805 
L 284.028039 201.591199 
L 284.363336 145.243596 
L 284.698633 154.357667 
L 285.03393 140.876792 
L 285.369227 203.184553 
L 285.704524 132.606812 
L 286.039821 122.556313 
L 286.375117 121.69808 
L 286.710414 120.439729 
L 287.045711 87.648553 
L 287.381008 147.281063 
L 287.716305 160.430935 
L 288.051602 112.75027 
L 288.386899 153.776497 
L 289.392789 104.200538 
L 289.728086 162.988108 
L 290.063383 176.623891 
L 290.39868 145.800909 
L 290.733977 137.870035 
L 291.404571 164.661319 
L 291.739868 108.606981 
L 292.075165 108.69234 
L 292.410461 185.138233 
L 292.745758 88.211437 
L 293.081055 170.380886 
L 293.416352 115.405557 
L 293.751649 110.489636 
L 294.086946 129.861291 
L 294.422243 159.273604 
L 294.75754 204.425607 
L 295.092836 121.644692 
L 295.428133 104.337628 
L 295.76343 127.629841 
L 296.098727 115.223938 
L 296.434024 169.862664 
L 296.769321 126.687159 
L 297.439915 176.266983 
L 297.775212 109.501288 
L 298.110508 117.416187 
L 298.445805 81.364275 
L 298.781102 140.761829 
L 299.116399 134.119998 
L 299.451696 169.083677 
L 299.786993 137.919125 
L 300.12229 127.994096 
L 300.457587 128.28687 
L 300.792884 144.611722 
L 301.12818 141.843036 
L 301.463477 184.47662 
L 302.134071 135.282134 
L 302.469368 137.22142 
L 302.804665 138.424732 
L 303.139962 100.880895 
L 303.475259 92.721872 
L 303.810556 177.143149 
L 304.145852 106.240155 
L 304.481149 166.539628 
L 304.816446 193.064622 
L 305.151743 189.373663 
L 305.48704 180.770818 
L 305.822337 120.641901 
L 306.157634 151.157799 
L 306.492931 49.007726 
L 306.828227 86.959741 
L 307.163524 144.966844 
L 307.498821 163.944142 
L 307.834118 123.372636 
L 308.169415 187.109701 
L 308.504712 126.638796 
L 308.840009 182.31234 
L 309.175306 158.469925 
L 309.510603 156.848328 
L 309.845899 134.90748 
L 310.181196 89.350401 
L 310.516493 149.894294 
L 310.85179 95.988954 
L 311.187087 174.545741 
L 311.522384 121.882502 
L 311.857681 174.611857 
L 312.528275 90.634918 
L 312.863571 164.189092 
L 313.198868 111.52859 
L 313.534165 138.703421 
L 313.869462 128.776645 
L 314.204759 99.104086 
L 314.540056 188.256648 
L 314.875353 125.157562 
L 315.21065 164.526328 
L 315.545947 175.058125 
L 315.881243 101.325946 
L 316.21654 90.789537 
L 316.887134 148.154289 
L 317.222431 121.069409 
L 317.557728 150.382024 
L 317.893025 212.864543 
L 318.228322 86.659212 
L 318.563618 119.371864 
L 318.898915 104.145977 
L 319.234212 161.914141 
L 319.569509 119.207151 
L 319.904806 168.751932 
L 320.240103 112.621285 
L 320.5754 165.915365 
L 320.910697 143.252082 
L 321.245994 164.035685 
L 321.58129 171.102125 
L 321.916587 135.16704 
L 322.251884 163.422116 
L 322.587181 173.006536 
L 322.922478 102.777769 
L 323.257775 222.736247 
L 323.593072 145.331547 
L 323.928369 181.271534 
L 324.263666 109.90613 
L 324.598962 151.833952 
L 325.269556 134.100788 
L 325.604853 132.544404 
L 325.94015 122.074446 
L 326.275447 73.481283 
L 326.610744 155.130115 
L 326.946041 130.466136 
L 327.281338 154.633849 
L 327.616634 139.988915 
L 327.951931 153.937034 
L 328.287228 136.843641 
L 328.622525 190.763575 
L 328.957822 87.483941 
L 329.293119 91.001415 
L 329.963713 173.913854 
L 330.299009 173.360658 
L 330.634306 69.082362 
L 330.969603 133.035506 
L 331.3049 154.736463 
L 331.640197 112.835164 
L 331.975494 115.539027 
L 332.310791 78.548602 
L 332.646088 136.017545 
L 332.981385 143.486869 
L 333.316681 168.449617 
L 333.651978 132.614472 
L 333.987275 169.288443 
L 334.322572 158.298703 
L 334.657869 138.748646 
L 334.993166 157.216247 
L 335.328463 114.992959 
L 335.66376 110.909295 
L 335.999057 122.186992 
L 336.334353 140.286173 
L 336.66965 89.477652 
L 337.004947 166.560332 
L 337.340244 109.933339 
L 337.675541 154.780443 
L 338.010838 98.993514 
L 338.346135 115.986026 
L 338.681432 199.378589 
L 339.016729 170.60177 
L 339.352025 166.80245 
L 339.687322 111.567475 
L 340.022619 149.400416 
L 340.357916 151.338667 
L 340.693213 107.727414 
L 341.02851 96.063297 
L 341.363807 121.535655 
L 341.699104 111.056343 
L 342.0344 146.849258 
L 342.369697 123.739483 
L 342.704994 160.572672 
L 343.040291 86.441783 
L 343.375588 176.491843 
L 344.046182 120.066241 
L 344.381479 136.788401 
L 344.716776 184.037541 
L 345.052072 137.125926 
L 345.387369 137.153569 
L 345.722666 137.960665 
L 346.057963 155.486753 
L 346.39326 94.235735 
L 346.728557 145.369589 
L 347.063854 170.079636 
L 347.399151 142.374838 
L 347.734448 135.573293 
L 348.069744 153.841744 
L 348.405041 195.500355 
L 348.740338 157.384388 
L 349.075635 99.823372 
L 349.410932 165.178284 
L 349.746229 97.545772 
L 351.087416 203.431566 
L 351.422713 163.680971 
L 351.75801 175.061144 
L 352.093307 106.297812 
L 352.428604 170.023698 
L 352.763901 53.901159 
L 353.099198 136.874785 
L 353.434495 184.198818 
L 354.440385 108.915184 
L 354.775682 104.695481 
L 355.110979 85.573858 
L 355.446276 144.270952 
L 355.781573 132.101671 
L 356.11687 132.300324 
L 356.452167 92.111817 
L 356.787463 152.050677 
L 357.12276 183.356477 
L 357.458057 155.472035 
L 357.793354 181.379604 
L 358.128651 70.045937 
L 358.799245 202.055253 
L 359.134542 102.138013 
L 359.469839 93.913205 
L 359.805135 120.875786 
L 360.140432 176.242521 
L 360.475729 157.272148 
L 360.811026 108.180852 
L 361.146323 136.61764 
L 361.48162 134.207551 
L 361.816917 129.573953 
L 362.152214 95.843136 
L 362.487511 110.629407 
L 362.822807 105.740553 
L 363.158104 120.770109 
L 363.493401 171.421502 
L 363.828698 152.971777 
L 364.499292 133.938876 
L 364.834589 163.508004 
L 365.169886 140.080683 
L 365.505183 138.930018 
L 365.840479 159.060308 
L 366.175776 192.876263 
L 366.511073 108.038363 
L 366.84637 135.586487 
L 367.181667 65.799602 
L 367.516964 138.454647 
L 367.852261 147.766904 
L 368.187558 160.714302 
L 368.522854 184.543962 
L 368.858151 126.976903 
L 369.193448 127.517549 
L 369.528745 118.188708 
L 369.864042 201.004432 
L 370.199339 121.189592 
L 370.534636 161.403914 
L 370.869933 176.409855 
L 371.20523 135.557976 
L 371.540526 130.409321 
L 371.875823 171.667714 
L 372.21112 115.930656 
L 372.546417 141.217996 
L 372.881714 106.626311 
L 373.552308 149.525512 
L 374.222902 133.24462 
L 374.558198 131.363095 
L 374.893495 166.521268 
L 375.564089 135.208931 
L 375.899386 170.212107 
L 376.234683 140.664973 
L 376.56998 142.224401 
L 376.905277 134.290467 
L 377.240574 132.246513 
L 377.57587 83.145814 
L 377.911167 170.757696 
L 378.246464 162.212028 
L 378.581761 136.931641 
L 378.917058 181.694129 
L 379.252355 110.308383 
L 379.587652 129.555567 
L 379.922949 119.239469 
L 380.258245 145.919493 
L 380.593542 143.118469 
L 380.928839 131.683775 
L 381.264136 95.051684 
L 381.599433 128.54435 
L 381.93473 118.043868 
L 382.270027 126.229496 
L 382.605324 120.409131 
L 383.275917 51.591785 
L 383.611214 131.948806 
L 383.946511 80.189928 
L 384.281808 132.868542 
L 384.617105 138.583552 
L 384.952402 60.464435 
L 385.622996 225.67811 
L 385.958293 163.363017 
L 386.293589 156.051782 
L 386.628886 155.730428 
L 386.964183 137.071449 
L 387.29948 143.960262 
L 387.634777 147.171278 
L 387.970074 153.463427 
L 388.305371 185.430076 
L 388.640668 129.579925 
L 388.975965 161.906179 
L 389.311261 168.879868 
L 389.646558 101.065998 
L 389.981855 96.920272 
L 390.317152 133.932092 
L 390.652449 84.817819 
L 390.987746 175.958203 
L 391.323043 145.008666 
L 391.65834 139.936725 
L 391.993636 94.063908 
L 392.328933 155.983617 
L 392.66423 120.109489 
L 392.999527 205.490862 
L 393.334824 133.06202 
L 393.670121 149.022992 
L 394.005418 133.245171 
L 394.340715 125.092316 
L 394.676012 87.090539 
L 395.011308 124.866247 
L 395.346605 101.095764 
L 395.681902 138.525952 
L 396.017199 140.943538 
L 396.352496 147.735829 
L 396.687793 116.749592 
L 397.358387 135.293138 
L 397.693684 152.309992 
L 398.02898 104.775005 
L 398.364277 172.76423 
L 398.699574 144.322799 
L 399.034871 157.681216 
L 399.370168 123.925313 
L 399.705465 166.566301 
L 400.040762 170.090485 
L 400.376059 88.561347 
L 401.046652 176.496101 
L 401.381949 141.398916 
L 401.717246 130.079072 
L 402.052543 139.582993 
L 402.38784 154.487927 
L 402.723137 194.425318 
L 403.058434 115.910834 
L 403.393731 199.85075 
L 403.729027 115.684364 
L 404.064324 151.82234 
L 404.399621 129.507563 
L 404.734918 121.451512 
L 405.070215 144.465219 
L 405.405512 158.523821 
L 405.740809 122.453568 
L 406.076106 181.274879 
L 406.411403 159.531986 
L 406.746699 148.08305 
L 407.081996 108.372721 
L 407.417293 165.135383 
L 407.75259 163.764215 
L 408.087887 106.8188 
L 408.423184 123.845319 
L 408.758481 127.502326 
L 409.093778 147.306209 
L 409.429075 109.924726 
L 409.764371 197.917209 
L 410.099668 85.936971 
L 410.099668 85.936971 
" clip-path="url(#p2b9386879b)" style="fill: none; stroke: #1f77b4; stroke-width: 2; stroke-linecap: square"/>
   </g>
   <g id="patch_3">
    <path d="M 58.39 266.245 
L 58.39 25.92 
" style="fill: none; stroke: #000000; stroke-width: 0.8; stroke-linejoin: miter; stroke-linecap: square"/>
   </g>
   <g id="patch_4">
    <path d="M 426.847748 266.245 
L 426.847748 25.92 
" style="fill: none; stroke: #000000; stroke-width: 0.8; stroke-linejoin: miter; stroke-linecap: square"/>
   </g>
   <g id="patch_5">
    <path d="M 58.39 266.245 
L 426.847748 266.245 
" style="fill: none; stroke: #000000; stroke-width: 0.8; stroke-linejoin: miter; stroke-linecap: square"/>
   </g>
   <g id="patch_6">
    <path d="M 58.39 25.92 
L 426.847748 25.92 
" style="fill: none; stroke: #000000; stroke-width: 0.8; stroke-linejoin: miter; stroke-linecap: square"/>
   </g>
  </g>
 </g>
 <defs>
  <clipPath id="p2b9386879b">
   <rect x="58.39" y="25.92" width="368.457748" height="240.325"/>
  </clipPath>
 </defs>
</svg>
