<?xml version="1.0" encoding="utf-8" standalone="no"?>
<!DOCTYPE svg PUBLIC "-//W3C//DTD SVG 1.1//EN"
  "http://www.w3.org/Graphics/SVG/1.1/DTD/svg11.dtd">
<svg xmlns:xlink="http://www.w3.org/1999/xlink" width="460.8pt" height="345.6pt" viewBox="0 0 460.8 345.6" xmlns="http://www.w3.org/2000/svg" version="1.1">
 <metadata>
  <rdf:RDF xmlns:dc="http://purl.org/dc/elements/1.1/" xmlns:cc="http://creativecommons.org/ns#" xmlns:rdf="http://www.w3.org/1999/02/22-rdf-syntax-ns#">
   <cc:Work>
    <dc:type rdf:resource="http://purl.org/dc/dcmitype/StillImage"/>
    <dc:date>2026-01-29T08:00:21.916490</dc:date>
    <dc:format>image/svg+xml</dc:format>
    <dc:creator>
     <cc:Agent>
      <dc:title>Matplotlib v3.10.8, https://matplotlib.org/</dc:title>
     </cc:Agent>
    </dc:creator>
   </cc:Work>
  </rdf:RDF>
 </metadata>
 <defs>
  <style type="text/css">*{stroke-linejoin: round; stroke-linecap: butt}</style>
 </defs>
 <g id="figure_1">
  <g id="patch_1">
   <path d="M 0 345.6 
L 460.8 345.6 
L 460.8 0 
L 0 0 
z
" style="fill: #ffffff"/>
  </g>
  <g id="axes_1">
   <g id="patch_2">
    <path d="M 94.934 266.245 
L 410.94 266.245 
L 410.94 25.92 
L 94.934 25.92 
z
" style="fill: #ffffff"/>
   </g>
   <g id="matplotlib.axis_1">
    <g id="xtick_1">
     <g id="line2d_1">
      <path d="M 94.934 266.245 
L 94.934 25.92 
" clip-path="url(#pba3eec13fc)" style="fill: none; stroke: #b0b0b0; stroke-width: 0.8; stroke-linecap: square"/>
     </g>
     <g id="line2d_2">
      <defs>
       <path id="mfd7a27903c" d="M 0 0 
L 0 3.5 
" style="stroke: #000000; stroke-width: 0.8"/>
      </defs>
      <g>
       <use xlink:href="#mfd7a27903c" x="94.934" y="266.245" style="stroke: #000000; stroke-width: 0.8"/>
      </g>
     </g>
     <g id="text_1">
      <!-- 0 -->
      <g transform="translate(88.934 289.63625) scale(0.24 -0.24)">
       <defs>
        <path id="TeXGyreTermes-Regular-30" d="M 3046 2112 
C 3046 3424 2464 4326 1626 4326 
C 1274 4326 1005 4218 768 3994 
C 397 3635 154 2899 154 2150 
C 154 1453 365 704 666 346 
C 902 64 1229 -90 1600 -90 
C 1926 -90 2202 19 2432 243 
C 2803 595 3046 1338 3046 2112 
z
M 2432 2099 
C 2432 762 2150 77 1600 77 
C 1050 77 768 762 768 2093 
C 768 3450 1056 4160 1606 4160 
C 2144 4160 2432 3437 2432 2099 
z
" transform="scale(0.015625)"/>
       </defs>
       <use xlink:href="#TeXGyreTermes-Regular-30"/>
      </g>
     </g>
    </g>
    <g id="xtick_2">
     <g id="line2d_3">
      <path d="M 173.9355 266.245 
L 173.9355 25.92 
" clip-path="url(#pba3eec13fc)" style="fill: none; stroke: #b0b0b0; stroke-width: 0.8; stroke-linecap: square"/>
     </g>
     <g id="line2d_4">
      <g>
       <use xlink:href="#mfd7a27903c" x="173.9355" y="266.245" style="stroke: #000000; stroke-width: 0.8"/>
      </g>
     </g>
     <g id="text_2">
      <!-- 250 -->
      <g transform="translate(155.9355 289.63625) scale(0.24 -0.24)">
       <defs>
        <path id="TeXGyreTermes-Regular-32" d="M 3040 877 
L 2957 909 
C 2720 544 2637 486 2349 486 
L 819 486 
L 1894 1613 
C 2464 2208 2714 2694 2714 3194 
C 2714 3834 2195 4326 1530 4326 
C 1178 4326 845 4186 608 3930 
C 403 3712 307 3507 198 3053 
L 333 3021 
C 589 3648 819 3853 1261 3853 
C 1798 3853 2163 3488 2163 2950 
C 2163 2451 1869 1856 1331 1286 
L 192 77 
L 192 0 
L 2688 0 
L 3040 877 
z
" transform="scale(0.015625)"/>
        <path id="TeXGyreTermes-Regular-35" d="M 2803 4358 
L 2746 4403 
C 2650 4269 2586 4237 2451 4237 
L 1114 4237 
L 416 2720 
C 410 2707 410 2688 410 2688 
C 410 2656 435 2637 486 2637 
C 691 2637 947 2592 1210 2509 
C 1946 2272 2285 1875 2285 1242 
C 2285 627 1894 147 1395 147 
C 1267 147 1158 192 966 333 
C 762 480 614 544 480 544 
C 294 544 205 467 205 307 
C 205 64 506 -90 986 -90 
C 1523 -90 1984 83 2304 410 
C 2598 698 2733 1062 2733 1549 
C 2733 2010 2611 2304 2291 2624 
C 2010 2906 1645 3053 890 3187 
L 1158 3731 
L 2413 3731 
C 2515 3731 2541 3744 2560 3789 
L 2803 4358 
z
" transform="scale(0.015625)"/>
       </defs>
       <use xlink:href="#TeXGyreTermes-Regular-32"/>
       <use xlink:href="#TeXGyreTermes-Regular-35" transform="translate(49.999985 0)"/>
       <use xlink:href="#TeXGyreTermes-Regular-30" transform="translate(99.999969 0)"/>
      </g>
     </g>
    </g>
    <g id="xtick_3">
     <g id="line2d_5">
      <path d="M 252.937 266.245 
L 252.937 25.92 
" clip-path="url(#pba3eec13fc)" style="fill: none; stroke: #b0b0b0; stroke-width: 0.8; stroke-linecap: square"/>
     </g>
     <g id="line2d_6">
      <g>
       <use xlink:href="#mfd7a27903c" x="252.937" y="266.245" style="stroke: #000000; stroke-width: 0.8"/>
      </g>
     </g>
     <g id="text_3">
      <!-- 500 -->
      <g transform="translate(234.937 289.63625) scale(0.24 -0.24)">
       <use xlink:href="#TeXGyreTermes-Regular-35"/>
       <use xlink:href="#TeXGyreTermes-Regular-30" transform="translate(49.999985 0)"/>
       <use xlink:href="#TeXGyreTermes-Regular-30" transform="translate(99.999969 0)"/>
      </g>
     </g>
    </g>
    <g id="xtick_4">
     <g id="line2d_7">
      <path d="M 331.9385 266.245 
L 331.9385 25.92 
" clip-path="url(#pba3eec13fc)" style="fill: none; stroke: #b0b0b0; stroke-width: 0.8; stroke-linecap: square"/>
     </g>
     <g id="line2d_8">
      <g>
       <use xlink:href="#mfd7a27903c" x="331.9385" y="266.245" style="stroke: #000000; stroke-width: 0.8"/>
      </g>
     </g>
     <g id="text_4">
      <!-- 750 -->
      <g transform="translate(313.9385 289.63625) scale(0.24 -0.24)">
       <defs>
        <path id="TeXGyreTermes-Regular-37" d="M 2874 4134 
L 2874 4237 
L 506 4237 
L 128 3296 
L 237 3245 
C 512 3680 627 3763 979 3763 
L 2368 3763 
L 1101 -51 
L 1517 -51 
L 2874 4134 
z
" transform="scale(0.015625)"/>
       </defs>
       <use xlink:href="#TeXGyreTermes-Regular-37"/>
       <use xlink:href="#TeXGyreTermes-Regular-35" transform="translate(49.999985 0)"/>
       <use xlink:href="#TeXGyreTermes-Regular-30" transform="translate(99.999969 0)"/>
      </g>
     </g>
    </g>
    <g id="xtick_5">
     <g id="line2d_9">
      <path d="M 410.94 266.245 
L 410.94 25.92 
" clip-path="url(#pba3eec13fc)" style="fill: none; stroke: #b0b0b0; stroke-width: 0.8; stroke-linecap: square"/>
     </g>
     <g id="line2d_10">
      <g>
       <use xlink:href="#mfd7a27903c" x="410.94" y="266.245" style="stroke: #000000; stroke-width: 0.8"/>
      </g>
     </g>
     <g id="text_5">
      <!-- 1000 -->
      <g transform="translate(386.94 289.63625) scale(0.24 -0.24)">
       <defs>
        <path id="TeXGyreTermes-Regular-31" d="M 2522 0 
L 2522 96 
C 2016 102 1914 166 1914 474 
L 1914 4314 
L 1862 4326 
L 710 3744 
L 710 3654 
C 787 3686 858 3712 883 3725 
C 998 3770 1107 3795 1171 3795 
C 1306 3795 1363 3699 1363 3494 
L 1363 595 
C 1363 384 1312 237 1210 179 
C 1114 122 1024 102 755 96 
L 755 0 
L 2522 0 
z
" transform="scale(0.015625)"/>
       </defs>
       <use xlink:href="#TeXGyreTermes-Regular-31"/>
       <use xlink:href="#TeXGyreTermes-Regular-30" transform="translate(49.999985 0)"/>
       <use xlink:href="#TeXGyreTermes-Regular-30" transform="translate(99.999969 0)"/>
       <use xlink:href="#TeXGyreTermes-Regular-30" transform="translate(149.999954 0)"/>
      </g>
     </g>
    </g>
    <g id="text_6">
     <!-- Schritt k -->
     <g transform="translate(211.9345 315.23625) scale(0.24 -0.24)">
      <defs>
       <path id="TeXGyreTermes-Regular-53" d="M 3142 1075 
C 3142 1606 2790 2016 1946 2477 
C 1274 2842 1005 3123 1005 3475 
C 1005 3827 1274 4064 1670 4064 
C 1958 4064 2227 3942 2451 3712 
C 2650 3507 2739 3341 2842 2963 
L 3002 2963 
L 2861 4326 
L 2726 4326 
C 2701 4186 2630 4109 2522 4109 
C 2458 4109 2355 4134 2240 4186 
C 2003 4275 1773 4326 1549 4326 
C 1299 4326 1030 4224 826 4058 
C 576 3853 454 3578 454 3226 
C 454 2720 736 2362 1453 1984 
C 1914 1734 2246 1478 2406 1235 
C 2464 1146 2496 1018 2496 858 
C 2496 435 2176 141 1709 141 
C 1133 141 736 493 416 1274 
L 269 1274 
L 461 -83 
L 602 -83 
C 608 38 685 128 781 128 
C 851 128 960 102 1082 58 
C 1325 -38 1581 -90 1837 -90 
C 2579 -90 3142 416 3142 1075 
z
" transform="scale(0.015625)"/>
       <path id="TeXGyreTermes-Regular-63" d="M 2637 941 
L 2547 998 
C 2240 550 2010 397 1645 397 
C 1056 397 653 909 653 1645 
C 653 2310 1005 2758 1523 2758 
C 1754 2758 1837 2688 1901 2451 
L 1939 2310 
C 1990 2125 2106 2016 2246 2016 
C 2413 2016 2547 2138 2547 2285 
C 2547 2643 2099 2944 1562 2944 
C 1261 2944 954 2829 698 2618 
C 352 2330 160 1888 160 1357 
C 160 531 666 -64 1376 -64 
C 1651 -64 1894 26 2112 205 
C 2304 358 2432 544 2637 941 
z
" transform="scale(0.015625)"/>
       <path id="TeXGyreTermes-Regular-68" d="M 3117 0 
L 3117 96 
C 2771 160 2733 211 2733 653 
L 2733 1926 
C 2733 2598 2464 2944 1946 2944 
C 1568 2944 1299 2790 1005 2406 
L 1005 4352 
L 973 4371 
C 755 4294 595 4243 237 4141 
L 64 4090 
L 64 3987 
C 90 3994 109 3994 141 3994 
C 416 3994 467 3942 467 3667 
L 467 653 
C 467 205 429 147 58 96 
L 58 0 
L 1440 0 
L 1440 96 
C 1069 134 1005 211 1005 653 
L 1005 2195 
C 1274 2490 1466 2598 1715 2598 
C 2035 2598 2195 2368 2195 1920 
L 2195 653 
C 2195 218 2131 134 1760 96 
L 1760 0 
L 3117 0 
z
" transform="scale(0.015625)"/>
       <path id="TeXGyreTermes-Regular-72" d="M 2144 2605 
C 2144 2816 2010 2944 1792 2944 
C 1523 2944 1338 2797 1024 2342 
L 1024 2931 
L 992 2944 
C 653 2803 422 2720 45 2598 
L 45 2496 
C 134 2515 192 2522 269 2522 
C 429 2522 486 2419 486 2138 
L 486 538 
C 486 218 442 173 32 96 
L 32 0 
L 1568 0 
L 1568 96 
C 1133 115 1024 211 1024 576 
L 1024 2016 
C 1024 2221 1299 2541 1472 2541 
C 1510 2541 1568 2509 1638 2445 
C 1741 2355 1811 2317 1894 2317 
C 2048 2317 2144 2426 2144 2605 
z
" transform="scale(0.015625)"/>
       <path id="TeXGyreTermes-Regular-69" d="M 1619 0 
L 1619 96 
C 1197 128 1146 192 1146 653 
L 1146 2925 
L 1120 2944 
L 128 2592 
L 128 2496 
L 179 2502 
C 256 2515 339 2522 397 2522 
C 550 2522 608 2419 608 2138 
L 608 653 
C 608 192 544 122 102 96 
L 102 0 
L 1619 0 
z
M 1203 3776 
C 1203 3955 1062 4102 877 4102 
C 698 4102 550 3955 550 3776 
C 550 3590 698 3450 877 3450 
C 1062 3450 1203 3590 1203 3776 
z
" transform="scale(0.015625)"/>
       <path id="TeXGyreTermes-Regular-74" d="M 1786 422 
L 1702 493 
C 1562 326 1459 269 1318 269 
C 1082 269 986 435 986 845 
L 986 2675 
L 1632 2675 
L 1632 2880 
L 986 2880 
L 986 3622 
C 986 3686 973 3706 941 3706 
C 902 3642 858 3584 813 3526 
C 576 3174 358 2938 192 2842 
C 122 2797 83 2758 83 2720 
C 83 2701 90 2688 109 2675 
L 448 2675 
L 448 749 
C 448 211 640 -64 1011 -64 
C 1331 -64 1574 90 1786 422 
z
" transform="scale(0.015625)"/>
       <path id="TeXGyreTermes-Regular-20" transform="scale(0.015625)"/>
       <path id="TeXGyreTermes-Regular-6b" d="M 3232 0 
L 3232 96 
C 2950 115 2752 237 2483 563 
L 1504 1805 
L 1690 1978 
C 2144 2400 2541 2694 2726 2746 
C 2822 2771 2912 2784 3021 2784 
L 3072 2784 
L 3072 2880 
L 1766 2880 
L 1766 2790 
C 2016 2784 2086 2758 2086 2669 
C 2086 2618 2029 2528 1939 2451 
L 1062 1670 
L 1062 4358 
L 1037 4371 
L 237 4141 
L 45 4090 
L 45 3987 
C 128 3994 186 4000 250 4000 
C 461 4000 525 3917 525 3610 
L 525 525 
C 525 192 506 173 45 96 
L 45 0 
L 1542 0 
L 1542 96 
L 1414 102 
C 1158 115 1062 205 1062 429 
L 1062 1606 
L 1958 410 
L 1978 384 
C 1990 365 2003 346 2022 326 
C 2074 262 2093 224 2093 192 
C 2093 134 2035 96 1958 96 
L 1837 96 
L 1837 0 
L 3232 0 
z
" transform="scale(0.015625)"/>
      </defs>
      <use xlink:href="#TeXGyreTermes-Regular-53"/>
      <use xlink:href="#TeXGyreTermes-Regular-63" transform="translate(55.599991 0)"/>
      <use xlink:href="#TeXGyreTermes-Regular-68" transform="translate(99.999985 0)"/>
      <use xlink:href="#TeXGyreTermes-Regular-72" transform="translate(149.999969 0)"/>
      <use xlink:href="#TeXGyreTermes-Regular-69" transform="translate(183.299957 0)"/>
      <use xlink:href="#TeXGyreTermes-Regular-74" transform="translate(211.099945 0)"/>
      <use xlink:href="#TeXGyreTermes-Regular-74" transform="translate(238.899933 0)"/>
      <use xlink:href="#TeXGyreTermes-Regular-20" transform="translate(266.699921 0)"/>
      <use xlink:href="#TeXGyreTermes-Regular-6b" transform="translate(291.699905 0)"/>
     </g>
    </g>
   </g>
   <g id="matplotlib.axis_2">
    <g id="ytick_1">
     <g id="line2d_11">
      <path d="M 94.934 237.33093 
L 410.94 237.33093 
" clip-path="url(#pba3eec13fc)" style="fill: none; stroke: #b0b0b0; stroke-width: 0.8; stroke-linecap: square"/>
     </g>
     <g id="line2d_12">
      <defs>
       <path id="m3971d429f6" d="M 0 0 
L -3.5 0 
" style="stroke: #000000; stroke-width: 0.8"/>
      </defs>
      <g>
       <use xlink:href="#m3971d429f6" x="94.934" y="237.33093" style="stroke: #000000; stroke-width: 0.8"/>
      </g>
     </g>
     <g id="text_7">
      <!-- 0 -->
      <g transform="translate(75.934 245.526555) scale(0.24 -0.24)">
       <use xlink:href="#TeXGyreTermes-Regular-30"/>
      </g>
     </g>
    </g>
    <g id="ytick_2">
     <g id="line2d_13">
      <path d="M 94.934 178.517171 
L 410.94 178.517171 
" clip-path="url(#pba3eec13fc)" style="fill: none; stroke: #b0b0b0; stroke-width: 0.8; stroke-linecap: square"/>
     </g>
     <g id="line2d_14">
      <g>
       <use xlink:href="#m3971d429f6" x="94.934" y="178.517171" style="stroke: #000000; stroke-width: 0.8"/>
      </g>
     </g>
     <g id="text_8">
      <!-- 50 -->
      <g transform="translate(63.934 186.712796) scale(0.24 -0.24)">
       <use xlink:href="#TeXGyreTermes-Regular-35"/>
       <use xlink:href="#TeXGyreTermes-Regular-30" transform="translate(49.999985 0)"/>
      </g>
     </g>
    </g>
    <g id="ytick_3">
     <g id="line2d_15">
      <path d="M 94.934 119.703412 
L 410.94 119.703412 
" clip-path="url(#pba3eec13fc)" style="fill: none; stroke: #b0b0b0; stroke-width: 0.8; stroke-linecap: square"/>
     </g>
     <g id="line2d_16">
      <g>
       <use xlink:href="#m3971d429f6" x="94.934" y="119.703412" style="stroke: #000000; stroke-width: 0.8"/>
      </g>
     </g>
     <g id="text_9">
      <!-- 100 -->
      <g transform="translate(51.934 127.899037) scale(0.24 -0.24)">
       <use xlink:href="#TeXGyreTermes-Regular-31"/>
       <use xlink:href="#TeXGyreTermes-Regular-30" transform="translate(49.999985 0)"/>
       <use xlink:href="#TeXGyreTermes-Regular-30" transform="translate(99.999969 0)"/>
      </g>
     </g>
    </g>
    <g id="ytick_4">
     <g id="line2d_17">
      <path d="M 94.934 60.889653 
L 410.94 60.889653 
" clip-path="url(#pba3eec13fc)" style="fill: none; stroke: #b0b0b0; stroke-width: 0.8; stroke-linecap: square"/>
     </g>
     <g id="line2d_18">
      <g>
       <use xlink:href="#m3971d429f6" x="94.934" y="60.889653" style="stroke: #000000; stroke-width: 0.8"/>
      </g>
     </g>
     <g id="text_10">
      <!-- 150 -->
      <g transform="translate(51.934 69.085278) scale(0.24 -0.24)">
       <use xlink:href="#TeXGyreTermes-Regular-31"/>
       <use xlink:href="#TeXGyreTermes-Regular-35" transform="translate(49.999985 0)"/>
       <use xlink:href="#TeXGyreTermes-Regular-30" transform="translate(99.999969 0)"/>
      </g>
     </g>
    </g>
    <g id="text_11">
     <!-- $x_{k+1} = x_k + \omega_k$ -->
     <g transform="translate(42.72525 231.0425) rotate(-90) scale(0.24 -0.24)">
      <defs>
       <path id="DejaVuSans-Oblique-78" d="M 3841 3500 
L 2234 1784 
L 3219 0 
L 2559 0 
L 1819 1388 
L 531 0 
L -166 0 
L 1556 1844 
L 641 3500 
L 1300 3500 
L 1972 2234 
L 3144 3500 
L 3841 3500 
z
" transform="scale(0.015625)"/>
       <path id="DejaVuSans-Oblique-6b" d="M 1172 4863 
L 1747 4863 
L 1197 2028 
L 3169 3500 
L 3916 3500 
L 1716 1825 
L 3322 0 
L 2625 0 
L 1131 1709 
L 800 0 
L 225 0 
L 1172 4863 
z
" transform="scale(0.015625)"/>
       <path id="DejaVuSans-2b" d="M 2944 4013 
L 2944 2272 
L 4684 2272 
L 4684 1741 
L 2944 1741 
L 2944 0 
L 2419 0 
L 2419 1741 
L 678 1741 
L 678 2272 
L 2419 2272 
L 2419 4013 
L 2944 4013 
z
" transform="scale(0.015625)"/>
       <path id="DejaVuSans-31" d="M 794 531 
L 1825 531 
L 1825 4091 
L 703 3866 
L 703 4441 
L 1819 4666 
L 2450 4666 
L 2450 531 
L 3481 531 
L 3481 0 
L 794 0 
L 794 531 
z
" transform="scale(0.015625)"/>
       <path id="DejaVuSans-3d" d="M 678 2906 
L 4684 2906 
L 4684 2381 
L 678 2381 
L 678 2906 
z
M 678 1631 
L 4684 1631 
L 4684 1100 
L 678 1100 
L 678 1631 
z
" transform="scale(0.015625)"/>
       <path id="DejaVuSans-Oblique-3c9" d="M 1369 -91 
Q 72 -91 434 1766 
Q 575 2500 1256 3500 
L 1875 3500 
Q 1231 2500 1088 1750 
Q 819 397 1519 397 
Q 2166 397 2478 2078 
L 3009 2078 
Q 2669 388 3316 397 
Q 4013 403 4275 1750 
Q 4419 2500 4169 3500 
L 4788 3500 
Q 5075 2500 4934 1766 
Q 4578 -94 3278 -91 
Q 2428 -88 2503 844 
Q 2194 -91 1369 -91 
z
" transform="scale(0.015625)"/>
      </defs>
      <use xlink:href="#DejaVuSans-Oblique-78" transform="translate(0 0.296875)"/>
      <use xlink:href="#DejaVuSans-Oblique-6b" transform="translate(59.179688 -16.109375) scale(0.7)"/>
      <use xlink:href="#DejaVuSans-2b" transform="translate(113.354492 -16.109375) scale(0.7)"/>
      <use xlink:href="#DejaVuSans-31" transform="translate(185.644531 -16.109375) scale(0.7)"/>
      <use xlink:href="#DejaVuSans-3d" transform="translate(252.397461 0.296875)"/>
      <use xlink:href="#DejaVuSans-Oblique-78" transform="translate(355.668945 0.296875)"/>
      <use xlink:href="#DejaVuSans-Oblique-6b" transform="translate(414.848633 -16.109375) scale(0.7)"/>
      <use xlink:href="#DejaVuSans-2b" transform="translate(477.602539 0.296875)"/>
      <use xlink:href="#DejaVuSans-Oblique-3c9" transform="translate(580.874023 0.296875)"/>
      <use xlink:href="#DejaVuSans-Oblique-6b" transform="translate(664.614258 -16.109375) scale(0.7)"/>
     </g>
    </g>
   </g>
   <g id="line2d_19">
    <path d="M 94.934 237.33093 
L 95.882018 234.272401 
L 96.198024 233.641352 
L 96.51403 232.22156 
L 96.830036 232.539623 
L 97.146042 232.037234 
L 97.462048 231.010063 
L 97.778054 229.431066 
L 98.09406 228.494043 
L 98.726072 227.890389 
L 99.042078 228.074287 
L 99.358084 228.95569 
L 99.67409 229.105466 
L 99.990096 228.322737 
L 100.306102 226.977379 
L 100.622108 226.658767 
L 100.938114 225.868222 
L 101.25412 226.072908 
L 101.570126 225.485644 
L 102.518144 225.699039 
L 102.83415 225.686242 
L 103.150156 225.423522 
L 103.466162 225.94257 
L 103.782168 225.862404 
L 104.730186 222.229113 
L 105.362198 220.427446 
L 105.99421 218.027987 
L 106.310216 216.715864 
L 106.626222 214.667579 
L 107.258234 214.024786 
L 107.57424 213.118619 
L 107.890246 212.711897 
L 108.206252 212.836049 
L 108.522258 213.328303 
L 108.838264 213.091882 
L 109.786282 208.303259 
L 110.102288 207.680151 
L 111.050306 201.899307 
L 111.682318 199.945209 
L 111.998324 199.183375 
L 112.630336 196.252773 
L 112.946342 196.166497 
L 113.578354 194.143333 
L 114.210366 192.557902 
L 114.526372 192.603181 
L 115.47439 189.51021 
L 115.790396 188.986593 
L 116.106402 190.39513 
L 116.422408 190.788598 
L 117.370426 188.902046 
L 117.686432 187.211944 
L 118.318444 182.271817 
L 118.950456 179.203475 
L 119.582468 177.078743 
L 119.898474 177.136128 
L 120.21448 177.651479 
L 120.530486 176.10361 
L 120.846492 175.201933 
L 121.79451 170.393758 
L 122.426522 168.638145 
L 122.742528 168.565155 
L 123.690546 162.409953 
L 124.006552 161.888495 
L 124.322558 160.490475 
L 124.638564 159.598913 
L 124.95457 159.087586 
L 125.270576 159.854172 
L 125.902588 158.087939 
L 126.5346 157.422301 
L 127.166612 155.76005 
L 127.482618 155.600789 
L 127.798624 155.196706 
L 128.430636 155.257345 
L 128.746642 155.160264 
L 129.062648 154.176327 
L 130.010666 155.126366 
L 130.642678 156.870344 
L 130.958684 157.728852 
L 131.27469 158.249073 
L 131.906702 161.821035 
L 132.222708 163.781299 
L 132.538714 166.521241 
L 133.486732 170.29632 
L 133.802738 172.698296 
L 134.118744 174.153901 
L 135.066762 176.141774 
L 135.382768 177.22473 
L 135.698774 177.550814 
L 136.01478 177.589064 
L 136.330786 178.090966 
L 136.646792 178.205048 
L 136.962798 178.068262 
L 137.59481 180.904532 
L 138.858834 177.065674 
L 140.122858 169.518835 
L 140.438864 169.494381 
L 140.75487 168.678858 
L 141.070876 168.236712 
L 141.702888 168.243317 
L 142.018894 166.345921 
L 142.966912 164.654804 
L 143.282918 164.599903 
L 143.91493 162.438902 
L 144.230936 162.014454 
L 144.546942 162.258456 
L 144.862948 161.949924 
L 145.178954 161.279207 
L 146.442978 164.979715 
L 146.758984 165.370161 
L 147.390996 165.21417 
L 147.707002 165.391671 
L 148.023008 165.426554 
L 148.339014 164.446433 
L 148.65502 164.24055 
L 149.287032 163.000384 
L 150.23505 163.178462 
L 150.551056 162.850921 
L 150.867062 163.35516 
L 151.183068 162.659468 
L 151.499074 163.758914 
L 152.447092 168.409275 
L 152.763098 169.070484 
L 153.39511 172.476111 
L 153.711116 173.269027 
L 154.027122 173.381335 
L 154.343128 174.284942 
L 154.659134 173.983799 
L 154.97514 173.07845 
L 155.607152 174.346753 
L 156.239164 177.505275 
L 156.55517 178.068509 
L 156.871176 178.067036 
L 157.187182 178.244409 
L 157.503188 177.68306 
L 158.1352 176.354253 
L 158.451206 176.362019 
L 159.71523 172.042209 
L 160.347242 168.084991 
L 160.663248 166.564976 
L 160.979254 166.479176 
L 161.611266 165.616726 
L 161.927272 164.724509 
L 164.139314 154.921159 
L 164.45532 154.156123 
L 164.771326 154.196991 
L 165.087332 153.462849 
L 165.403338 152.376737 
L 165.719344 152.503531 
L 166.03535 151.155241 
L 166.351356 151.000162 
L 166.667362 150.981741 
L 166.983368 150.033986 
L 167.299374 149.874073 
L 167.61538 149.882867 
L 167.931386 149.150632 
L 168.879404 143.749522 
L 169.19541 142.816795 
L 169.511416 143.110479 
L 170.143428 140.673672 
L 170.77544 136.039588 
L 171.091446 135.485844 
L 171.407452 134.617651 
L 172.039464 133.81962 
L 172.35547 133.829791 
L 172.671476 133.534016 
L 173.303488 130.762799 
L 173.619494 129.60953 
L 173.9355 128.972976 
L 175.199524 123.25042 
L 175.51553 123.235006 
L 176.147542 121.078424 
L 176.463548 120.534818 
L 176.779554 119.756807 
L 177.09556 119.673056 
L 177.727572 118.274166 
L 178.043578 116.803193 
L 178.359584 115.882844 
L 178.991596 115.877183 
L 179.939614 117.368583 
L 180.25562 116.932987 
L 180.571626 116.291958 
L 180.887632 116.099464 
L 181.83565 116.483333 
L 182.151656 116.250584 
L 182.467662 116.609013 
L 182.783668 117.190606 
L 183.099674 117.509689 
L 183.41568 118.484871 
L 183.731686 118.624741 
L 184.047692 119.866071 
L 184.363698 120.395773 
L 184.679704 119.504278 
L 185.311716 118.611708 
L 185.627722 119.088501 
L 185.943728 119.311441 
L 186.259734 119.172533 
L 186.57574 120.51419 
L 186.891746 120.90008 
L 187.207752 120.74502 
L 187.839764 123.775998 
L 188.15577 124.466068 
L 188.471776 123.924486 
L 189.7358 128.976084 
L 190.051806 129.737888 
L 190.683818 132.234935 
L 190.999824 132.991233 
L 191.947842 137.426327 
L 192.263848 138.075764 
L 192.579854 139.332479 
L 192.89586 141.599615 
L 193.211866 142.577911 
L 193.527872 144.224106 
L 194.159884 146.627314 
L 194.791896 147.030246 
L 195.107902 149.456102 
L 195.739914 152.32669 
L 196.05592 153.706257 
L 196.371926 153.800587 
L 197.003938 155.756979 
L 197.63595 159.033658 
L 197.951956 160.094712 
L 198.267962 158.780582 
L 198.583968 158.098923 
L 198.899974 157.716105 
L 199.21598 156.813491 
L 199.531986 156.286057 
L 199.847992 156.746837 
L 200.163998 158.132182 
L 200.480004 158.213943 
L 200.79601 159.029014 
L 201.112016 160.40231 
L 201.428022 159.536565 
L 201.744028 159.610227 
L 202.060034 160.200468 
L 202.37604 159.785164 
L 202.692046 160.333259 
L 203.008052 160.113385 
L 203.324058 160.032506 
L 203.640064 159.482862 
L 203.95607 159.70832 
L 204.588082 158.494274 
L 204.904088 158.884556 
L 205.220094 159.700886 
L 205.5361 159.484286 
L 206.168112 160.393551 
L 206.484118 160.717929 
L 206.800124 160.853528 
L 207.432136 158.642834 
L 207.748142 157.125696 
L 208.064148 156.882221 
L 208.380154 156.018571 
L 209.644178 148.89044 
L 209.960184 148.607525 
L 210.27619 149.189988 
L 210.592196 149.04624 
L 210.908202 147.952046 
L 211.224208 147.413192 
L 211.540214 147.10125 
L 211.85622 147.09642 
L 212.172226 146.789058 
L 212.488232 147.140557 
L 213.43625 149.529251 
L 214.068262 150.430058 
L 214.384268 149.842034 
L 214.700274 149.865154 
L 215.648292 149.300591 
L 215.964298 149.920263 
L 216.280304 149.171598 
L 216.912316 146.20423 
L 217.860334 138.802626 
L 218.492346 137.101011 
L 218.808352 137.430778 
L 219.124358 136.872992 
L 219.75637 133.291967 
L 220.072376 132.717916 
L 220.388382 130.194972 
L 220.704388 129.313813 
L 221.020394 129.42582 
L 222.284418 134.311438 
L 222.91643 134.451987 
L 223.232436 134.157295 
L 223.548442 133.685621 
L 223.864448 131.961338 
L 224.49646 131.095636 
L 224.812466 130.565235 
L 225.128472 130.704786 
L 225.444478 130.004229 
L 225.760484 128.95144 
L 226.07649 128.86848 
L 226.392496 129.430233 
L 226.708502 131.096266 
L 227.024508 131.488754 
L 227.340514 132.43696 
L 227.65652 132.325184 
L 227.972526 131.886699 
L 228.288532 132.955917 
L 228.920544 131.231849 
L 229.23655 131.260314 
L 229.552556 131.730278 
L 229.868562 130.549722 
L 230.184568 130.601766 
L 231.132586 129.05149 
L 231.448592 130.32061 
L 231.764598 130.763357 
L 232.080604 130.695112 
L 232.39661 131.005929 
L 233.028622 132.359831 
L 233.344628 132.156949 
L 233.660634 132.598585 
L 234.292646 130.563388 
L 234.608652 130.697982 
L 234.924658 131.197519 
L 235.240664 131.024356 
L 235.55667 130.062688 
L 235.872676 130.498797 
L 236.188682 131.257003 
L 236.820694 130.947397 
L 237.1367 130.195348 
L 237.452706 130.0625 
L 237.768712 131.596389 
L 238.084718 134.344873 
L 238.71673 136.224767 
L 239.032736 136.459296 
L 239.348742 134.264059 
L 239.980754 133.240742 
L 240.29676 132.820378 
L 240.612766 132.762822 
L 240.928772 134.214823 
L 241.560784 131.835762 
L 241.87679 131.778695 
L 242.192796 132.079249 
L 242.508802 132.998168 
L 242.824808 133.152764 
L 243.140814 133.78186 
L 243.772826 132.264816 
L 244.088832 132.2882 
L 244.404838 132.498617 
L 245.352856 136.326134 
L 245.668862 136.348587 
L 245.984868 137.697168 
L 246.300874 138.29446 
L 246.61688 139.607983 
L 246.932886 139.739403 
L 247.248892 139.263934 
L 247.564898 139.125429 
L 247.880904 138.86528 
L 248.19691 139.23188 
L 248.512916 139.854845 
L 249.144928 138.697434 
L 249.460934 138.691481 
L 250.092946 140.925505 
L 251.040964 142.419989 
L 251.35697 142.392112 
L 251.672976 142.819227 
L 251.988982 143.500551 
L 252.304988 145.162796 
L 252.620994 145.967342 
L 252.937 147.255057 
L 253.253006 147.730644 
L 253.569012 148.922611 
L 254.201024 149.747163 
L 254.51703 149.745169 
L 254.833036 149.505246 
L 255.149042 148.719795 
L 255.465048 148.343544 
L 256.09706 145.775383 
L 256.413066 144.721707 
L 256.729072 144.843888 
L 257.361084 146.171071 
L 257.67709 146.155591 
L 257.993096 145.231486 
L 258.309102 145.005997 
L 258.625108 144.541192 
L 258.941114 144.292772 
L 259.25712 143.3104 
L 259.573126 142.96327 
L 260.205138 138.905266 
L 260.521144 139.238284 
L 260.83715 139.053006 
L 261.153156 139.491635 
L 261.469162 138.812726 
L 262.101174 135.921594 
L 262.41718 135.022345 
L 262.733186 134.500185 
L 263.365198 131.969473 
L 263.681204 130.931687 
L 263.99721 130.626581 
L 264.313216 130.148731 
L 264.629222 129.997531 
L 264.945228 130.592148 
L 265.261234 131.67131 
L 265.57724 131.100918 
L 265.893246 131.109165 
L 266.209252 130.808212 
L 266.525258 130.677952 
L 266.841264 130.775143 
L 267.15727 130.161395 
L 267.473276 130.53425 
L 267.789282 131.38673 
L 268.105288 131.269219 
L 268.421294 130.87797 
L 269.053306 130.397191 
L 269.685318 133.371777 
L 270.31733 138.397498 
L 270.949342 141.464896 
L 271.265348 142.037435 
L 271.581354 142.024169 
L 271.89736 141.208246 
L 272.213366 141.429052 
L 272.529372 141.991061 
L 272.845378 142.238565 
L 273.161384 141.821413 
L 273.793396 138.637297 
L 274.109402 137.994081 
L 274.425408 138.615857 
L 274.741414 138.676347 
L 275.05742 139.032678 
L 276.005438 136.315266 
L 276.321444 135.090075 
L 276.953456 131.128649 
L 277.585468 125.407085 
L 277.901474 124.654493 
L 279.165498 117.553556 
L 279.481504 117.134249 
L 279.79751 116.361073 
L 280.113516 117.392153 
L 281.061534 119.129757 
L 281.37754 119.203729 
L 281.693546 119.522983 
L 282.009552 119.250784 
L 282.325558 118.346986 
L 282.641564 118.148847 
L 282.95757 118.694967 
L 283.273576 117.95688 
L 284.221594 114.741556 
L 284.5376 114.403954 
L 284.853606 114.748869 
L 285.169612 115.753201 
L 285.485618 115.590255 
L 285.801624 116.111221 
L 286.433636 118.167036 
L 286.749642 117.869991 
L 287.065648 117.088903 
L 287.381654 117.482435 
L 287.69766 117.164104 
L 288.013666 117.217675 
L 288.329672 117.611147 
L 288.645678 117.354135 
L 289.27769 118.331146 
L 289.593696 118.9082 
L 289.909702 118.011304 
L 290.225708 119.058668 
L 290.541714 119.210066 
L 290.85772 118.291527 
L 291.489732 118.747545 
L 292.121744 120.867053 
L 292.43775 121.593442 
L 293.069762 122.357179 
L 293.701774 125.241996 
L 294.01778 125.309312 
L 294.333786 125.262115 
L 294.649792 125.012317 
L 295.59781 126.222616 
L 295.913816 126.454289 
L 296.229822 126.994892 
L 296.545828 126.611492 
L 296.861834 126.571456 
L 297.493846 129.341836 
L 297.809852 128.874293 
L 298.125858 128.856599 
L 299.073876 126.484444 
L 299.389882 127.288881 
L 300.021894 127.741417 
L 300.3379 128.298721 
L 300.653906 129.545185 
L 301.285918 133.947056 
L 301.601924 135.836932 
L 301.91793 137.030919 
L 302.233936 138.87309 
L 302.549942 139.151333 
L 302.865948 139.877921 
L 303.181954 140.25674 
L 303.49796 140.360632 
L 304.129972 143.919911 
L 304.445978 144.784743 
L 304.761984 144.672655 
L 305.07799 145.243398 
L 305.710002 147.751461 
L 306.026008 149.021082 
L 306.342014 151.154686 
L 306.65802 152.376521 
L 306.974026 154.598693 
L 307.290032 156.025686 
L 307.606038 158.164346 
L 307.922044 158.48616 
L 308.23805 158.494696 
L 308.554056 159.143618 
L 309.186068 159.885608 
L 309.502074 159.663947 
L 310.134086 160.584796 
L 310.450092 160.738562 
L 311.082104 163.466169 
L 311.39811 164.759936 
L 312.030122 168.385427 
L 312.662134 172.631337 
L 313.294146 176.749937 
L 313.610152 177.161166 
L 313.926158 178.48441 
L 314.242164 178.909405 
L 314.55817 179.846673 
L 314.874176 179.753989 
L 315.190182 181.663518 
L 315.822194 183.618908 
L 316.1382 183.719057 
L 316.454206 185.247481 
L 316.770212 187.800241 
L 317.402224 194.647891 
L 317.71823 196.273739 
L 318.034236 196.913466 
L 318.666248 199.762471 
L 318.982254 201.859171 
L 319.29826 202.858522 
L 320.246278 207.566918 
L 320.87829 212.446006 
L 322.142314 220.475443 
L 322.45832 220.950697 
L 322.774326 221.796066 
L 323.090332 223.06849 
L 323.722344 227.817945 
L 324.354356 231.167827 
L 324.670362 234.182032 
L 325.302374 237.880662 
L 325.934386 240.046313 
L 326.250392 240.197693 
L 326.566398 239.781029 
L 327.19841 240.177404 
L 327.514416 241.33236 
L 327.830422 241.213887 
L 328.462434 242.63686 
L 328.77844 242.042982 
L 329.094446 240.684474 
L 329.410452 240.082017 
L 329.726458 240.305429 
L 330.042464 241.851581 
L 330.674476 242.133005 
L 330.990482 242.106448 
L 331.306488 242.528326 
L 331.622494 243.415697 
L 331.9385 242.789744 
L 332.254506 243.241642 
L 333.51853 247.797851 
L 333.834536 247.943702 
L 334.466548 247.372642 
L 334.782554 247.927383 
L 335.09856 248.193274 
L 335.730572 250.217109 
L 336.046578 250.422341 
L 336.362584 250.384348 
L 336.67859 250.777498 
L 337.310602 252.240718 
L 337.942614 252.664765 
L 338.25862 253.068176 
L 338.574626 253.801652 
L 338.890632 254.032712 
L 339.206638 253.115322 
L 339.522644 252.716985 
L 339.83865 251.642272 
L 340.154656 251.610878 
L 340.470662 252.58128 
L 341.102674 252.855295 
L 341.41868 252.214205 
L 341.734686 252.741928 
L 342.682704 255.321136 
L 343.314716 253.438312 
L 343.630722 252.418886 
L 344.57874 252.906805 
L 345.210752 250.623129 
L 345.526758 249.210146 
L 346.474776 247.721251 
L 346.790782 247.412175 
L 347.106788 247.873984 
L 347.422794 249.347844 
L 347.7388 249.968216 
L 348.686818 252.869002 
L 349.002824 252.920746 
L 349.31883 251.993268 
L 349.634836 250.614131 
L 349.950842 250.166205 
L 350.266848 249.300427 
L 350.89886 249.320552 
L 351.214866 250.042916 
L 351.530872 249.644352 
L 352.162884 247.122331 
L 352.47889 247.162823 
L 352.794896 246.852316 
L 354.05892 240.999741 
L 354.374926 240.47307 
L 354.690932 239.218777 
L 355.006938 239.840569 
L 355.322944 239.183498 
L 355.63895 238.201748 
L 355.954956 236.533256 
L 356.586968 235.014528 
L 356.902974 233.047027 
L 358.166998 221.408422 
L 358.79901 217.619871 
L 359.747028 213.5029 
L 360.063034 211.690784 
L 360.695046 207.404003 
L 361.011052 206.540789 
L 361.327058 205.127696 
L 361.643064 204.383207 
L 361.95907 204.030825 
L 362.275076 203.310051 
L 362.591082 202.160631 
L 362.907088 202.353377 
L 363.223094 202.971667 
L 363.5391 202.841931 
L 363.855106 204.310034 
L 364.171112 204.977194 
L 364.487118 205.187556 
L 364.803124 205.703173 
L 365.11913 205.736157 
L 365.435136 206.17283 
L 366.067148 206.385317 
L 366.383154 205.195054 
L 366.69916 204.611046 
L 367.331172 204.102393 
L 367.647178 205.0148 
L 368.27919 203.418606 
L 368.595196 201.670158 
L 368.911202 200.654104 
L 369.227208 200.387929 
L 369.543214 200.861701 
L 370.175226 198.095845 
L 371.123244 196.693796 
L 371.755256 195.889803 
L 372.071262 194.640291 
L 372.387268 194.06232 
L 372.703274 192.845552 
L 373.01928 192.597868 
L 373.335286 192.585488 
L 373.651292 192.728604 
L 373.967298 192.13667 
L 374.915316 189.392024 
L 375.231322 188.969079 
L 376.17934 185.252816 
L 377.75937 177.110092 
L 378.075376 177.074991 
L 378.391382 176.835098 
L 378.707388 176.927891 
L 379.3394 178.644633 
L 379.655406 178.406347 
L 379.971412 177.97019 
L 380.603424 178.378504 
L 380.91943 178.147824 
L 381.235436 177.492538 
L 381.551442 176.010717 
L 381.867448 173.806177 
L 382.49946 171.764858 
L 382.815466 170.797326 
L 383.131472 170.949273 
L 383.447478 171.306584 
L 384.395496 168.770596 
L 384.711502 168.90956 
L 385.027508 168.73787 
L 385.343514 167.899455 
L 385.65952 167.780804 
L 386.291532 168.227009 
L 386.607538 169.023858 
L 386.923544 168.573561 
L 387.23955 167.261242 
L 387.555556 167.044402 
L 388.503574 162.95842 
L 389.135586 161.277959 
L 389.451592 160.774107 
L 389.767598 159.752649 
L 390.083604 159.494747 
L 391.347628 156.131697 
L 391.97964 152.775554 
L 392.295646 149.680165 
L 392.927658 145.93626 
L 393.55967 140.027655 
L 393.875676 138.435758 
L 395.1397 128.424406 
L 396.403724 121.845755 
L 396.71973 120.672741 
L 397.667748 115.78791 
L 398.29976 112.865755 
L 398.931772 109.598303 
L 399.247778 106.987604 
L 399.87979 104.540938 
L 400.195796 103.269347 
L 402.723844 86.757009 
L 403.355856 82.710961 
L 403.987868 78.829848 
L 404.935886 70.230009 
L 405.567898 66.423962 
L 405.883904 65.609938 
L 406.831922 60.23896 
L 408.095946 53.991291 
L 409.35997 44.451844 
L 410.307988 38.45237 
L 410.623994 36.843864 
L 410.623994 36.843864 
" clip-path="url(#pba3eec13fc)" style="fill: none; stroke: #1f77b4; stroke-width: 1.5; stroke-linecap: square"/>
   </g>
   <g id="patch_3">
    <path d="M 94.934 266.245 
L 94.934 25.92 
" style="fill: none; stroke: #000000; stroke-width: 0.8; stroke-linejoin: miter; stroke-linecap: square"/>
   </g>
   <g id="patch_4">
    <path d="M 410.94 266.245 
L 410.94 25.92 
" style="fill: none; stroke: #000000; stroke-width: 0.8; stroke-linejoin: miter; stroke-linecap: square"/>
   </g>
   <g id="patch_5">
    <path d="M 94.934 266.245 
L 410.94 266.245 
" style="fill: none; stroke: #000000; stroke-width: 0.8; stroke-linejoin: miter; stroke-linecap: square"/>
   </g>
   <g id="patch_6">
    <path d="M 94.934 25.92 
L 410.94 25.92 
" style="fill: none; stroke: #000000; stroke-width: 0.8; stroke-linejoin: miter; stroke-linecap: square"/>
   </g>
  </g>
 </g>
 <defs>
  <clipPath id="pba3eec13fc">
   <rect x="94.934" y="25.92" width="316.006" height="240.325"/>
  </clipPath>
 </defs>
</svg>
