<?xml version="1.0" encoding="utf-8" standalone="no"?>
<!DOCTYPE svg PUBLIC "-//W3C//DTD SVG 1.1//EN"
  "http://www.w3.org/Graphics/SVG/1.1/DTD/svg11.dtd">
<svg xmlns:xlink="http://www.w3.org/1999/xlink" width="460.8pt" height="345.6pt" viewBox="0 0 460.8 345.6" xmlns="http://www.w3.org/2000/svg" version="1.1">
 <metadata>
  <rdf:RDF xmlns:dc="http://purl.org/dc/elements/1.1/" xmlns:cc="http://creativecommons.org/ns#" xmlns:rdf="http://www.w3.org/1999/02/22-rdf-syntax-ns#">
   <cc:Work>
    <dc:type rdf:resource="http://purl.org/dc/dcmitype/StillImage"/>
    <dc:date>2025-12-03T12:16:59.203341</dc:date>
    <dc:format>image/svg+xml</dc:format>
    <dc:creator>
     <cc:Agent>
      <dc:title>Matplotlib v3.10.6, https://matplotlib.org/</dc:title>
     </cc:Agent>
    </dc:creator>
   </cc:Work>
  </rdf:RDF>
 </metadata>
 <defs>
  <style type="text/css">*{stroke-linejoin: round; stroke-linecap: butt}</style>
 </defs>
 <g id="figure_1">
  <g id="patch_1">
   <path d="M 0 345.6 
L 460.8 345.6 
L 460.8 0 
L 0 0 
z
" style="fill: #ffffff"/>
  </g>
  <g id="axes_1">
   <g id="patch_2">
    <path d="M 57.6 307.584 
L 414.72 307.584 
L 414.72 41.472 
L 57.6 41.472 
z
" style="fill: #ffffff"/>
   </g>
   <g id="matplotlib.axis_1">
    <g id="xtick_1">
     <g id="line2d_1">
      <defs>
       <path id="m2b77320023" d="M 0 0 
L 0 3.5 
" style="stroke: #000000; stroke-width: 0.8"/>
      </defs>
      <g>
       <use xlink:href="#m2b77320023" x="73.832727" y="307.584" style="stroke: #000000; stroke-width: 0.8"/>
      </g>
     </g>
     <g id="text_1">
      <!-- 0 -->
      <g transform="translate(70.651477 322.182437) scale(0.1 -0.1)">
       <defs>
        <path id="DejaVuSans-30" d="M 2034 4250 
Q 1547 4250 1301 3770 
Q 1056 3291 1056 2328 
Q 1056 1369 1301 889 
Q 1547 409 2034 409 
Q 2525 409 2770 889 
Q 3016 1369 3016 2328 
Q 3016 3291 2770 3770 
Q 2525 4250 2034 4250 
z
M 2034 4750 
Q 2819 4750 3233 4129 
Q 3647 3509 3647 2328 
Q 3647 1150 3233 529 
Q 2819 -91 2034 -91 
Q 1250 -91 836 529 
Q 422 1150 422 2328 
Q 422 3509 836 4129 
Q 1250 4750 2034 4750 
z
" transform="scale(0.015625)"/>
       </defs>
       <use xlink:href="#DejaVuSans-30"/>
      </g>
     </g>
    </g>
    <g id="xtick_2">
     <g id="line2d_2">
      <g>
       <use xlink:href="#m2b77320023" x="138.828632" y="307.584" style="stroke: #000000; stroke-width: 0.8"/>
      </g>
     </g>
     <g id="text_2">
      <!-- 200 -->
      <g transform="translate(129.284882 322.182437) scale(0.1 -0.1)">
       <defs>
        <path id="DejaVuSans-32" d="M 1228 531 
L 3431 531 
L 3431 0 
L 469 0 
L 469 531 
Q 828 903 1448 1529 
Q 2069 2156 2228 2338 
Q 2531 2678 2651 2914 
Q 2772 3150 2772 3378 
Q 2772 3750 2511 3984 
Q 2250 4219 1831 4219 
Q 1534 4219 1204 4116 
Q 875 4013 500 3803 
L 500 4441 
Q 881 4594 1212 4672 
Q 1544 4750 1819 4750 
Q 2544 4750 2975 4387 
Q 3406 4025 3406 3419 
Q 3406 3131 3298 2873 
Q 3191 2616 2906 2266 
Q 2828 2175 2409 1742 
Q 1991 1309 1228 531 
z
" transform="scale(0.015625)"/>
       </defs>
       <use xlink:href="#DejaVuSans-32"/>
       <use xlink:href="#DejaVuSans-30" transform="translate(63.623047 0)"/>
       <use xlink:href="#DejaVuSans-30" transform="translate(127.246094 0)"/>
      </g>
     </g>
    </g>
    <g id="xtick_3">
     <g id="line2d_3">
      <g>
       <use xlink:href="#m2b77320023" x="203.824537" y="307.584" style="stroke: #000000; stroke-width: 0.8"/>
      </g>
     </g>
     <g id="text_3">
      <!-- 400 -->
      <g transform="translate(194.280787 322.182437) scale(0.1 -0.1)">
       <defs>
        <path id="DejaVuSans-34" d="M 2419 4116 
L 825 1625 
L 2419 1625 
L 2419 4116 
z
M 2253 4666 
L 3047 4666 
L 3047 1625 
L 3713 1625 
L 3713 1100 
L 3047 1100 
L 3047 0 
L 2419 0 
L 2419 1100 
L 313 1100 
L 313 1709 
L 2253 4666 
z
" transform="scale(0.015625)"/>
       </defs>
       <use xlink:href="#DejaVuSans-34"/>
       <use xlink:href="#DejaVuSans-30" transform="translate(63.623047 0)"/>
       <use xlink:href="#DejaVuSans-30" transform="translate(127.246094 0)"/>
      </g>
     </g>
    </g>
    <g id="xtick_4">
     <g id="line2d_4">
      <g>
       <use xlink:href="#m2b77320023" x="268.820442" y="307.584" style="stroke: #000000; stroke-width: 0.8"/>
      </g>
     </g>
     <g id="text_4">
      <!-- 600 -->
      <g transform="translate(259.276692 322.182437) scale(0.1 -0.1)">
       <defs>
        <path id="DejaVuSans-36" d="M 2113 2584 
Q 1688 2584 1439 2293 
Q 1191 2003 1191 1497 
Q 1191 994 1439 701 
Q 1688 409 2113 409 
Q 2538 409 2786 701 
Q 3034 994 3034 1497 
Q 3034 2003 2786 2293 
Q 2538 2584 2113 2584 
z
M 3366 4563 
L 3366 3988 
Q 3128 4100 2886 4159 
Q 2644 4219 2406 4219 
Q 1781 4219 1451 3797 
Q 1122 3375 1075 2522 
Q 1259 2794 1537 2939 
Q 1816 3084 2150 3084 
Q 2853 3084 3261 2657 
Q 3669 2231 3669 1497 
Q 3669 778 3244 343 
Q 2819 -91 2113 -91 
Q 1303 -91 875 529 
Q 447 1150 447 2328 
Q 447 3434 972 4092 
Q 1497 4750 2381 4750 
Q 2619 4750 2861 4703 
Q 3103 4656 3366 4563 
z
" transform="scale(0.015625)"/>
       </defs>
       <use xlink:href="#DejaVuSans-36"/>
       <use xlink:href="#DejaVuSans-30" transform="translate(63.623047 0)"/>
       <use xlink:href="#DejaVuSans-30" transform="translate(127.246094 0)"/>
      </g>
     </g>
    </g>
    <g id="xtick_5">
     <g id="line2d_5">
      <g>
       <use xlink:href="#m2b77320023" x="333.816347" y="307.584" style="stroke: #000000; stroke-width: 0.8"/>
      </g>
     </g>
     <g id="text_5">
      <!-- 800 -->
      <g transform="translate(324.272597 322.182437) scale(0.1 -0.1)">
       <defs>
        <path id="DejaVuSans-38" d="M 2034 2216 
Q 1584 2216 1326 1975 
Q 1069 1734 1069 1313 
Q 1069 891 1326 650 
Q 1584 409 2034 409 
Q 2484 409 2743 651 
Q 3003 894 3003 1313 
Q 3003 1734 2745 1975 
Q 2488 2216 2034 2216 
z
M 1403 2484 
Q 997 2584 770 2862 
Q 544 3141 544 3541 
Q 544 4100 942 4425 
Q 1341 4750 2034 4750 
Q 2731 4750 3128 4425 
Q 3525 4100 3525 3541 
Q 3525 3141 3298 2862 
Q 3072 2584 2669 2484 
Q 3125 2378 3379 2068 
Q 3634 1759 3634 1313 
Q 3634 634 3220 271 
Q 2806 -91 2034 -91 
Q 1263 -91 848 271 
Q 434 634 434 1313 
Q 434 1759 690 2068 
Q 947 2378 1403 2484 
z
M 1172 3481 
Q 1172 3119 1398 2916 
Q 1625 2713 2034 2713 
Q 2441 2713 2670 2916 
Q 2900 3119 2900 3481 
Q 2900 3844 2670 4047 
Q 2441 4250 2034 4250 
Q 1625 4250 1398 4047 
Q 1172 3844 1172 3481 
z
" transform="scale(0.015625)"/>
       </defs>
       <use xlink:href="#DejaVuSans-38"/>
       <use xlink:href="#DejaVuSans-30" transform="translate(63.623047 0)"/>
       <use xlink:href="#DejaVuSans-30" transform="translate(127.246094 0)"/>
      </g>
     </g>
    </g>
    <g id="xtick_6">
     <g id="line2d_6">
      <g>
       <use xlink:href="#m2b77320023" x="398.812252" y="307.584" style="stroke: #000000; stroke-width: 0.8"/>
      </g>
     </g>
     <g id="text_6">
      <!-- 1000 -->
      <g transform="translate(386.087252 322.182437) scale(0.1 -0.1)">
       <defs>
        <path id="DejaVuSans-31" d="M 794 531 
L 1825 531 
L 1825 4091 
L 703 3866 
L 703 4441 
L 1819 4666 
L 2450 4666 
L 2450 531 
L 3481 531 
L 3481 0 
L 794 0 
L 794 531 
z
" transform="scale(0.015625)"/>
       </defs>
       <use xlink:href="#DejaVuSans-31"/>
       <use xlink:href="#DejaVuSans-30" transform="translate(63.623047 0)"/>
       <use xlink:href="#DejaVuSans-30" transform="translate(127.246094 0)"/>
       <use xlink:href="#DejaVuSans-30" transform="translate(190.869141 0)"/>
      </g>
     </g>
    </g>
    <g id="text_7">
     <!-- Schritt k -->
     <g transform="translate(219.075625 335.091813) scale(0.1 -0.1)">
      <defs>
       <path id="TeXGyreTermes-Regular-53" d="M 3142 1075 
C 3142 1606 2790 2016 1946 2477 
C 1274 2842 1005 3123 1005 3475 
C 1005 3827 1274 4064 1670 4064 
C 1958 4064 2227 3942 2451 3712 
C 2650 3507 2739 3341 2842 2963 
L 3002 2963 
L 2861 4326 
L 2726 4326 
C 2701 4186 2630 4109 2522 4109 
C 2458 4109 2355 4134 2240 4186 
C 2003 4275 1773 4326 1549 4326 
C 1299 4326 1030 4224 826 4058 
C 576 3853 454 3578 454 3226 
C 454 2720 736 2362 1453 1984 
C 1914 1734 2246 1478 2406 1235 
C 2464 1146 2496 1018 2496 858 
C 2496 435 2176 141 1709 141 
C 1133 141 736 493 416 1274 
L 269 1274 
L 461 -83 
L 602 -83 
C 608 38 685 128 781 128 
C 851 128 960 102 1082 58 
C 1325 -38 1581 -90 1837 -90 
C 2579 -90 3142 416 3142 1075 
z
" transform="scale(0.015625)"/>
       <path id="TeXGyreTermes-Regular-63" d="M 2637 941 
L 2547 998 
C 2240 550 2010 397 1645 397 
C 1056 397 653 909 653 1645 
C 653 2310 1005 2758 1523 2758 
C 1754 2758 1837 2688 1901 2451 
L 1939 2310 
C 1990 2125 2106 2016 2246 2016 
C 2413 2016 2547 2138 2547 2285 
C 2547 2643 2099 2944 1562 2944 
C 1261 2944 954 2829 698 2618 
C 352 2330 160 1888 160 1357 
C 160 531 666 -64 1376 -64 
C 1651 -64 1894 26 2112 205 
C 2304 358 2432 544 2637 941 
z
" transform="scale(0.015625)"/>
       <path id="TeXGyreTermes-Regular-68" d="M 3117 0 
L 3117 96 
C 2771 160 2733 211 2733 653 
L 2733 1926 
C 2733 2598 2464 2944 1946 2944 
C 1568 2944 1299 2790 1005 2406 
L 1005 4352 
L 973 4371 
C 755 4294 595 4243 237 4141 
L 64 4090 
L 64 3987 
C 90 3994 109 3994 141 3994 
C 416 3994 467 3942 467 3667 
L 467 653 
C 467 205 429 147 58 96 
L 58 0 
L 1440 0 
L 1440 96 
C 1069 134 1005 211 1005 653 
L 1005 2195 
C 1274 2490 1466 2598 1715 2598 
C 2035 2598 2195 2368 2195 1920 
L 2195 653 
C 2195 218 2131 134 1760 96 
L 1760 0 
L 3117 0 
z
" transform="scale(0.015625)"/>
       <path id="TeXGyreTermes-Regular-72" d="M 2144 2605 
C 2144 2816 2010 2944 1792 2944 
C 1523 2944 1338 2797 1024 2342 
L 1024 2931 
L 992 2944 
C 653 2803 422 2720 45 2598 
L 45 2496 
C 134 2515 192 2522 269 2522 
C 429 2522 486 2419 486 2138 
L 486 538 
C 486 218 442 173 32 96 
L 32 0 
L 1568 0 
L 1568 96 
C 1133 115 1024 211 1024 576 
L 1024 2016 
C 1024 2221 1299 2541 1472 2541 
C 1510 2541 1568 2509 1638 2445 
C 1741 2355 1811 2317 1894 2317 
C 2048 2317 2144 2426 2144 2605 
z
" transform="scale(0.015625)"/>
       <path id="TeXGyreTermes-Regular-69" d="M 1619 0 
L 1619 96 
C 1197 128 1146 192 1146 653 
L 1146 2925 
L 1120 2944 
L 128 2592 
L 128 2496 
L 179 2502 
C 256 2515 339 2522 397 2522 
C 550 2522 608 2419 608 2138 
L 608 653 
C 608 192 544 122 102 96 
L 102 0 
L 1619 0 
z
M 1203 3776 
C 1203 3955 1062 4102 877 4102 
C 698 4102 550 3955 550 3776 
C 550 3590 698 3450 877 3450 
C 1062 3450 1203 3590 1203 3776 
z
" transform="scale(0.015625)"/>
       <path id="TeXGyreTermes-Regular-74" d="M 1786 422 
L 1702 493 
C 1562 326 1459 269 1318 269 
C 1082 269 986 435 986 845 
L 986 2675 
L 1632 2675 
L 1632 2880 
L 986 2880 
L 986 3622 
C 986 3686 973 3706 941 3706 
C 902 3642 858 3584 813 3526 
C 576 3174 358 2938 192 2842 
C 122 2797 83 2758 83 2720 
C 83 2701 90 2688 109 2675 
L 448 2675 
L 448 749 
C 448 211 640 -64 1011 -64 
C 1331 -64 1574 90 1786 422 
z
" transform="scale(0.015625)"/>
       <path id="TeXGyreTermes-Regular-20" transform="scale(0.015625)"/>
       <path id="TeXGyreTermes-Regular-6b" d="M 3232 0 
L 3232 96 
C 2950 115 2752 237 2483 563 
L 1504 1805 
L 1690 1978 
C 2144 2400 2541 2694 2726 2746 
C 2822 2771 2912 2784 3021 2784 
L 3072 2784 
L 3072 2880 
L 1766 2880 
L 1766 2790 
C 2016 2784 2086 2758 2086 2669 
C 2086 2618 2029 2528 1939 2451 
L 1062 1670 
L 1062 4358 
L 1037 4371 
L 237 4141 
L 45 4090 
L 45 3987 
C 128 3994 186 4000 250 4000 
C 461 4000 525 3917 525 3610 
L 525 525 
C 525 192 506 173 45 96 
L 45 0 
L 1542 0 
L 1542 96 
L 1414 102 
C 1158 115 1062 205 1062 429 
L 1062 1606 
L 1958 410 
L 1978 384 
C 1990 365 2003 346 2022 326 
C 2074 262 2093 224 2093 192 
C 2093 134 2035 96 1958 96 
L 1837 96 
L 1837 0 
L 3232 0 
z
" transform="scale(0.015625)"/>
      </defs>
      <use xlink:href="#TeXGyreTermes-Regular-53"/>
      <use xlink:href="#TeXGyreTermes-Regular-63" transform="translate(55.599991 0)"/>
      <use xlink:href="#TeXGyreTermes-Regular-68" transform="translate(99.999985 0)"/>
      <use xlink:href="#TeXGyreTermes-Regular-72" transform="translate(149.999969 0)"/>
      <use xlink:href="#TeXGyreTermes-Regular-69" transform="translate(183.299957 0)"/>
      <use xlink:href="#TeXGyreTermes-Regular-74" transform="translate(211.099945 0)"/>
      <use xlink:href="#TeXGyreTermes-Regular-74" transform="translate(238.899933 0)"/>
      <use xlink:href="#TeXGyreTermes-Regular-20" transform="translate(266.699921 0)"/>
      <use xlink:href="#TeXGyreTermes-Regular-6b" transform="translate(291.699905 0)"/>
     </g>
    </g>
   </g>
   <g id="matplotlib.axis_2">
    <g id="ytick_1">
     <g id="line2d_7">
      <defs>
       <path id="m4e45a9dc66" d="M 0 0 
L -3.5 0 
" style="stroke: #000000; stroke-width: 0.8"/>
      </defs>
      <g>
       <use xlink:href="#m4e45a9dc66" x="57.6" y="306.554321" style="stroke: #000000; stroke-width: 0.8"/>
      </g>
     </g>
     <g id="text_8">
      <!-- −4 -->
      <g transform="translate(35.857813 310.35354) scale(0.1 -0.1)">
       <defs>
        <path id="DejaVuSans-2212" d="M 678 2272 
L 4684 2272 
L 4684 1741 
L 678 1741 
L 678 2272 
z
" transform="scale(0.015625)"/>
       </defs>
       <use xlink:href="#DejaVuSans-2212"/>
       <use xlink:href="#DejaVuSans-34" transform="translate(83.789062 0)"/>
      </g>
     </g>
    </g>
    <g id="ytick_2">
     <g id="line2d_8">
      <g>
       <use xlink:href="#m4e45a9dc66" x="57.6" y="274.974835" style="stroke: #000000; stroke-width: 0.8"/>
      </g>
     </g>
     <g id="text_9">
      <!-- −3 -->
      <g transform="translate(35.857813 278.774054) scale(0.1 -0.1)">
       <defs>
        <path id="DejaVuSans-33" d="M 2597 2516 
Q 3050 2419 3304 2112 
Q 3559 1806 3559 1356 
Q 3559 666 3084 287 
Q 2609 -91 1734 -91 
Q 1441 -91 1130 -33 
Q 819 25 488 141 
L 488 750 
Q 750 597 1062 519 
Q 1375 441 1716 441 
Q 2309 441 2620 675 
Q 2931 909 2931 1356 
Q 2931 1769 2642 2001 
Q 2353 2234 1838 2234 
L 1294 2234 
L 1294 2753 
L 1863 2753 
Q 2328 2753 2575 2939 
Q 2822 3125 2822 3475 
Q 2822 3834 2567 4026 
Q 2313 4219 1838 4219 
Q 1578 4219 1281 4162 
Q 984 4106 628 3988 
L 628 4550 
Q 988 4650 1302 4700 
Q 1616 4750 1894 4750 
Q 2613 4750 3031 4423 
Q 3450 4097 3450 3541 
Q 3450 3153 3228 2886 
Q 3006 2619 2597 2516 
z
" transform="scale(0.015625)"/>
       </defs>
       <use xlink:href="#DejaVuSans-2212"/>
       <use xlink:href="#DejaVuSans-33" transform="translate(83.789062 0)"/>
      </g>
     </g>
    </g>
    <g id="ytick_3">
     <g id="line2d_9">
      <g>
       <use xlink:href="#m4e45a9dc66" x="57.6" y="243.395348" style="stroke: #000000; stroke-width: 0.8"/>
      </g>
     </g>
     <g id="text_10">
      <!-- −2 -->
      <g transform="translate(35.857813 247.194567) scale(0.1 -0.1)">
       <use xlink:href="#DejaVuSans-2212"/>
       <use xlink:href="#DejaVuSans-32" transform="translate(83.789062 0)"/>
      </g>
     </g>
    </g>
    <g id="ytick_4">
     <g id="line2d_10">
      <g>
       <use xlink:href="#m4e45a9dc66" x="57.6" y="211.815862" style="stroke: #000000; stroke-width: 0.8"/>
      </g>
     </g>
     <g id="text_11">
      <!-- −1 -->
      <g transform="translate(35.857813 215.61508) scale(0.1 -0.1)">
       <use xlink:href="#DejaVuSans-2212"/>
       <use xlink:href="#DejaVuSans-31" transform="translate(83.789062 0)"/>
      </g>
     </g>
    </g>
    <g id="ytick_5">
     <g id="line2d_11">
      <g>
       <use xlink:href="#m4e45a9dc66" x="57.6" y="180.236375" style="stroke: #000000; stroke-width: 0.8"/>
      </g>
     </g>
     <g id="text_12">
      <!-- 0 -->
      <g transform="translate(44.2375 184.035594) scale(0.1 -0.1)">
       <use xlink:href="#DejaVuSans-30"/>
      </g>
     </g>
    </g>
    <g id="ytick_6">
     <g id="line2d_12">
      <g>
       <use xlink:href="#m4e45a9dc66" x="57.6" y="148.656888" style="stroke: #000000; stroke-width: 0.8"/>
      </g>
     </g>
     <g id="text_13">
      <!-- 1 -->
      <g transform="translate(44.2375 152.456107) scale(0.1 -0.1)">
       <use xlink:href="#DejaVuSans-31"/>
      </g>
     </g>
    </g>
    <g id="ytick_7">
     <g id="line2d_13">
      <g>
       <use xlink:href="#m4e45a9dc66" x="57.6" y="117.077402" style="stroke: #000000; stroke-width: 0.8"/>
      </g>
     </g>
     <g id="text_14">
      <!-- 2 -->
      <g transform="translate(44.2375 120.87662) scale(0.1 -0.1)">
       <use xlink:href="#DejaVuSans-32"/>
      </g>
     </g>
    </g>
    <g id="ytick_8">
     <g id="line2d_14">
      <g>
       <use xlink:href="#m4e45a9dc66" x="57.6" y="85.497915" style="stroke: #000000; stroke-width: 0.8"/>
      </g>
     </g>
     <g id="text_15">
      <!-- 3 -->
      <g transform="translate(44.2375 89.297134) scale(0.1 -0.1)">
       <use xlink:href="#DejaVuSans-33"/>
      </g>
     </g>
    </g>
    <g id="ytick_9">
     <g id="line2d_15">
      <g>
       <use xlink:href="#m4e45a9dc66" x="57.6" y="53.918428" style="stroke: #000000; stroke-width: 0.8"/>
      </g>
     </g>
     <g id="text_16">
      <!-- 4 -->
      <g transform="translate(44.2375 57.717647) scale(0.1 -0.1)">
       <use xlink:href="#DejaVuSans-34"/>
      </g>
     </g>
    </g>
    <g id="text_17">
     <!-- x(k) -->
     <g transform="translate(29.6875 182.857687) rotate(-90) scale(0.1 -0.1)">
      <defs>
       <path id="TeXGyreTermes-Regular-78" d="M 3066 0 
L 3066 96 
C 2867 96 2739 198 2541 480 
L 1722 1734 
L 2253 2502 
C 2374 2675 2566 2778 2771 2784 
L 2771 2880 
L 1760 2880 
L 1760 2784 
C 1952 2771 2016 2733 2016 2643 
C 2016 2566 1939 2426 1779 2227 
C 1747 2189 1670 2074 1587 1946 
L 1498 2074 
C 1318 2342 1203 2560 1203 2643 
C 1203 2733 1286 2778 1478 2784 
L 1478 2880 
L 154 2880 
L 154 2784 
L 211 2784 
C 403 2784 506 2701 704 2400 
L 1306 1478 
L 576 422 
C 384 160 320 115 109 96 
L 109 0 
L 1037 0 
L 1037 96 
C 858 96 781 128 781 211 
C 781 250 826 346 909 474 
L 1414 1261 
L 1997 365 
C 2022 326 2035 288 2035 250 
C 2035 134 1990 109 1779 96 
L 1779 0 
L 3066 0 
z
" transform="scale(0.015625)"/>
       <path id="TeXGyreTermes-Regular-28" d="M 1946 -1030 
C 1434 -627 1254 -403 1082 77 
C 928 506 858 992 858 1632 
C 858 2304 941 2829 1114 3226 
C 1293 3622 1485 3853 1946 4224 
L 1888 4326 
C 1414 4019 1222 3853 986 3558 
C 531 3002 307 2362 307 1613 
C 307 800 544 173 1107 -480 
C 1370 -787 1536 -928 1869 -1133 
L 1946 -1030 
z
" transform="scale(0.015625)"/>
       <path id="TeXGyreTermes-Regular-29" d="M 1824 1581 
C 1824 2400 1587 3021 1024 3674 
C 762 3981 595 4122 262 4326 
L 186 4224 
C 698 3821 870 3597 1050 3117 
C 1203 2688 1274 2202 1274 1562 
C 1274 896 1190 365 1018 -26 
C 838 -429 646 -659 186 -1030 
L 243 -1133 
C 717 -826 909 -659 1146 -365 
C 1600 192 1824 832 1824 1581 
z
" transform="scale(0.015625)"/>
      </defs>
      <use xlink:href="#TeXGyreTermes-Regular-78"/>
      <use xlink:href="#TeXGyreTermes-Regular-28" transform="translate(49.999985 0)"/>
      <use xlink:href="#TeXGyreTermes-Regular-6b" transform="translate(83.299973 0)"/>
      <use xlink:href="#TeXGyreTermes-Regular-29" transform="translate(133.299957 0)"/>
     </g>
    </g>
   </g>
   <g id="line2d_16">
    <path d="M 73.832727 211.144462 
L 74.157707 193.034273 
L 74.482686 212.76865 
L 74.807666 171.685746 
L 75.132645 197.631188 
L 75.457625 149.162984 
L 75.782604 152.430712 
L 76.107584 170.98788 
L 76.432563 209.355096 
L 76.757543 143.994189 
L 77.082523 115.513517 
L 77.407502 170.862046 
L 77.732482 135.456653 
L 78.057461 197.602886 
L 78.382441 209.78689 
L 78.70742 190.629583 
L 79.0324 124.409773 
L 79.357379 153.841963 
L 79.682359 224.772722 
L 80.332318 193.258536 
L 80.657297 211.561356 
L 80.982277 220.674057 
L 81.307256 204.143963 
L 81.632236 219.020369 
L 81.957215 213.040109 
L 82.282195 196.155264 
L 82.607174 142.853065 
L 82.932154 121.38209 
L 83.257133 180.811095 
L 83.582113 189.825034 
L 83.907093 130.559247 
L 84.232072 188.497462 
L 84.557052 136.739418 
L 84.882031 177.358806 
L 85.207011 170.41145 
L 85.53199 176.565557 
L 85.85697 188.692124 
L 86.181949 179.49203 
L 86.506929 190.345638 
L 86.831908 144.972625 
L 87.156888 197.785224 
L 87.481867 206.446357 
L 87.806847 201.618379 
L 88.131826 151.005979 
L 88.456806 164.014884 
L 88.781785 182.29062 
L 89.106765 148.405903 
L 89.431744 156.548057 
L 89.756724 141.186811 
L 90.081704 200.813979 
L 90.406683 150.357447 
L 90.731663 157.877445 
L 91.381622 234.008835 
L 91.706601 178.780037 
L 92.031581 190.416682 
L 92.35656 208.895012 
L 92.68154 218.701615 
L 93.331499 146.614642 
L 93.656478 167.451997 
L 93.981458 177.023689 
L 94.306437 157.839991 
L 94.631417 186.406462 
L 94.956396 160.199453 
L 95.281376 166.189125 
L 95.606355 202.937264 
L 96.256314 134.049239 
L 96.581294 145.333624 
L 96.906274 151.441461 
L 97.881212 193.942979 
L 98.206192 209.335505 
L 98.531171 180.201302 
L 99.18113 140.005994 
L 99.50611 155.453185 
L 99.831089 198.246382 
L 100.156069 206.534434 
L 100.806028 187.479367 
L 101.131007 142.299363 
L 101.455987 122.036093 
L 101.780966 165.810168 
L 102.105946 120.027796 
L 102.430925 136.363799 
L 102.755905 178.921563 
L 103.080885 105.46093 
L 103.405864 179.847215 
L 103.730844 127.992431 
L 104.055823 119.750788 
L 104.380803 147.589117 
L 104.705782 124.449362 
L 105.355741 171.34925 
L 105.680721 180.120026 
L 106.0057 164.500006 
L 106.33068 155.213342 
L 106.655659 170.0493 
L 106.980639 162.836838 
L 107.305618 165.720136 
L 107.630598 123.728055 
L 107.955577 178.44752 
L 108.280557 173.131458 
L 108.605536 148.695534 
L 108.930516 215.883892 
L 109.580475 168.744898 
L 109.905455 190.132046 
L 110.230434 173.701873 
L 110.880393 196.416606 
L 111.205373 182.38354 
L 111.530352 230.718062 
L 111.855332 237.627314 
L 112.83027 169.614557 
L 113.15525 154.66759 
L 113.480229 128.119934 
L 113.805209 196.134768 
L 114.130188 173.821402 
L 114.455168 176.341735 
L 114.780147 174.673282 
L 115.105127 161.113903 
L 115.430106 185.476541 
L 115.755086 173.431056 
L 116.080066 203.228855 
L 116.405045 156.636101 
L 116.730025 219.175362 
L 117.055004 179.868378 
L 117.379984 235.016797 
L 117.704963 252.232016 
L 118.029943 236.357975 
L 118.354922 159.012431 
L 118.679902 169.37059 
L 119.004881 149.146085 
L 119.329861 137.055979 
L 119.65484 182.261001 
L 119.97982 162.980613 
L 120.304799 193.82841 
L 120.629779 186.189138 
L 120.954758 151.064546 
L 121.279738 165.221736 
L 121.604717 143.514243 
L 121.929697 223.809781 
L 122.254676 230.148199 
L 122.579656 201.473116 
L 122.904636 148.312316 
L 123.229615 144.051829 
L 123.554595 187.221304 
L 123.879574 165.792058 
L 124.204554 186.484434 
L 124.529533 168.190269 
L 125.179492 223.761988 
L 125.504472 170.932243 
L 126.154431 223.719888 
L 126.47941 235.578451 
L 126.80439 195.301113 
L 127.129369 126.459256 
L 127.454349 118.196501 
L 127.779328 124.690061 
L 128.104308 149.688634 
L 128.429287 156.210605 
L 128.754267 172.214086 
L 129.079247 142.638813 
L 129.404226 162.927479 
L 129.729206 150.758984 
L 130.054185 167.320254 
L 130.379165 177.148978 
L 130.704144 159.671847 
L 131.029124 192.791317 
L 131.354103 149.754699 
L 131.679083 166.624634 
L 132.004062 211.718303 
L 132.329042 162.927155 
L 132.654021 167.927715 
L 132.979001 178.095226 
L 133.30398 113.826925 
L 133.62896 161.953855 
L 133.953939 192.440491 
L 134.278919 204.680791 
L 134.603898 211.229013 
L 135.253857 129.394175 
L 135.578837 225.748895 
L 135.903817 202.255045 
L 136.228796 193.148194 
L 136.553776 197.327572 
L 136.878755 136.230595 
L 137.203735 161.215716 
L 137.528714 165.628429 
L 137.853694 157.658298 
L 138.178673 180.90101 
L 138.503653 187.864458 
L 138.828632 152.635576 
L 139.153612 161.52381 
L 139.478591 107.517039 
L 139.803571 142.576681 
L 140.12855 147.090224 
L 140.45353 119.121275 
L 140.778509 172.513783 
L 141.103489 150.135759 
L 141.428468 136.165582 
L 141.753448 164.472164 
L 142.078428 164.809625 
L 142.403407 187.270476 
L 143.053366 149.787655 
L 143.378346 199.841351 
L 143.703325 185.947345 
L 144.028305 116.185388 
L 144.353284 186.202939 
L 144.678264 192.936019 
L 145.003243 153.779469 
L 145.328223 197.81505 
L 145.653202 149.7472 
L 145.978182 146.93869 
L 146.303161 186.252616 
L 146.628141 156.300185 
L 146.95312 170.23602 
L 147.2781 127.452576 
L 147.603079 164.238826 
L 147.928059 172.306532 
L 148.253038 171.772062 
L 148.578018 156.841383 
L 149.227977 269.943347 
L 149.552957 173.120828 
L 149.877936 173.351424 
L 150.202916 196.68462 
L 150.527895 200.806177 
L 150.852875 154.110064 
L 151.177854 181.860412 
L 151.827813 129.415902 
L 152.152793 112.403614 
L 152.477772 170.174715 
L 152.802752 170.362718 
L 153.127731 138.295 
L 153.452711 195.180828 
L 153.77769 174.174307 
L 154.10267 164.79007 
L 154.427649 139.373384 
L 155.077609 169.400737 
L 155.402588 143.606963 
L 155.727568 215.90239 
L 156.052547 138.67397 
L 156.377527 109.669603 
L 156.702506 123.34476 
L 157.027486 130.668619 
L 157.352465 131.670456 
L 157.677445 162.814351 
L 158.002424 181.025024 
L 158.327404 129.864656 
L 158.977363 179.403804 
L 159.302342 182.436875 
L 159.627322 233.250014 
L 159.952301 161.017117 
L 160.277281 149.700977 
L 160.60226 196.031065 
L 160.92724 180.948298 
L 161.252219 152.111142 
L 161.902179 204.257404 
L 162.227158 135.141666 
L 162.552138 175.869173 
L 162.877117 120.58402 
L 163.202097 164.971035 
L 163.527076 140.571326 
L 163.852056 203.658204 
L 164.177035 152.049373 
L 164.502015 124.169482 
L 164.826994 112.922437 
L 165.151974 115.063738 
L 165.476953 150.140821 
L 165.801933 156.436199 
L 166.126912 153.89138 
L 166.451892 174.659242 
L 166.776871 170.742161 
L 167.101851 215.736311 
L 167.42683 136.40122 
L 167.75181 148.161407 
L 168.07679 174.113561 
L 168.401769 138.205089 
L 168.726749 53.568 
L 169.051728 134.98628 
L 169.376708 168.502983 
L 169.701687 164.981717 
L 170.026667 139.300688 
L 170.351646 172.472692 
L 170.676626 165.565646 
L 171.001605 205.95003 
L 171.651564 142.150141 
L 171.976544 183.25835 
L 172.301523 185.68406 
L 172.626503 128.923119 
L 172.951482 208.624889 
L 173.276462 153.263362 
L 173.601441 160.608025 
L 173.926421 158.632574 
L 174.2514 177.41144 
L 174.57638 176.443019 
L 174.90136 137.171248 
L 175.226339 170.736178 
L 175.551319 137.146016 
L 175.876298 122.92488 
L 176.201278 212.129475 
L 176.526257 172.560298 
L 176.851237 195.930254 
L 177.176216 183.55965 
L 177.501196 150.587461 
L 177.826175 162.753439 
L 178.151155 217.71677 
L 178.476134 206.408725 
L 179.126093 134.591313 
L 179.451073 182.438763 
L 179.776052 205.292979 
L 180.101032 181.643615 
L 180.426011 208.20378 
L 181.075971 153.100228 
L 181.40095 206.114632 
L 181.72593 140.525269 
L 182.050909 188.971602 
L 182.375889 194.327698 
L 182.700868 167.76093 
L 183.025848 200.8052 
L 183.350827 167.295852 
L 183.675807 159.549897 
L 184.000786 157.814001 
L 184.325766 150.024395 
L 184.650745 150.096167 
L 184.975725 165.230111 
L 185.300704 167.485099 
L 185.625684 122.140691 
L 185.950663 115.259445 
L 186.275643 127.317611 
L 186.600622 156.694549 
L 186.925602 207.275029 
L 187.250581 190.210182 
L 187.575561 114.396145 
L 187.900541 198.012966 
L 188.22552 136.292148 
L 188.5505 121.080138 
L 188.875479 145.549608 
L 189.200459 196.614452 
L 189.525438 134.433572 
L 189.850418 138.641305 
L 190.175397 178.134636 
L 190.500377 144.896632 
L 190.825356 163.731441 
L 191.150336 159.53986 
L 191.800295 219.681435 
L 192.775233 117.745235 
L 193.100213 153.563218 
L 193.425192 156.0847 
L 193.750172 148.627313 
L 194.075152 177.839175 
L 194.400131 166.28368 
L 194.725111 194.191414 
L 195.05009 171.656858 
L 195.37507 170.595965 
L 195.700049 180.691316 
L 196.025029 152.530942 
L 196.674988 201.451374 
L 196.999967 169.369408 
L 197.324947 150.329005 
L 197.649926 191.437499 
L 197.974906 177.267067 
L 198.299885 204.274231 
L 198.624865 158.018857 
L 198.949844 151.980072 
L 199.274824 173.89226 
L 199.599803 159.144394 
L 199.924783 154.943702 
L 200.249762 126.623776 
L 200.574742 137.422669 
L 200.899722 158.433663 
L 201.224701 160.745789 
L 201.549681 114.027035 
L 201.87466 177.593701 
L 202.19964 164.372531 
L 202.849599 206.028224 
L 203.174578 186.203911 
L 203.499558 176.963233 
L 203.824537 184.524809 
L 204.149517 150.735201 
L 204.799476 183.849968 
L 205.124455 139.548311 
L 205.449435 166.089685 
L 205.774414 138.968711 
L 206.099394 131.047622 
L 206.424373 139.572401 
L 206.749353 175.713254 
L 207.074333 173.015119 
L 207.399312 158.299229 
L 207.724292 161.805772 
L 208.049271 147.183496 
L 208.374251 180.661166 
L 208.69923 126.993885 
L 209.02421 170.69425 
L 209.349189 147.800274 
L 209.674169 149.817969 
L 209.999148 168.35845 
L 210.324128 151.45826 
L 210.649107 149.861807 
L 210.974087 169.305989 
L 211.299066 136.52066 
L 211.624046 166.836501 
L 211.949025 162.514405 
L 212.274005 145.421615 
L 212.598984 162.26397 
L 212.923964 150.490375 
L 213.248943 174.884795 
L 213.573923 135.441851 
L 213.898903 184.355014 
L 214.223882 137.931115 
L 214.548862 195.105094 
L 214.873841 215.47213 
L 215.5238 140.164837 
L 215.84878 154.238985 
L 216.173759 185.987661 
L 216.498739 169.570827 
L 216.823718 122.698934 
L 217.148698 180.971695 
L 217.473677 168.144828 
L 217.798657 182.61181 
L 218.123636 142.974185 
L 218.448616 184.954425 
L 218.773595 176.45913 
L 219.098575 151.08074 
L 219.423554 216.614156 
L 219.748534 144.591612 
L 220.073514 159.25416 
L 220.398493 124.626777 
L 220.723473 189.478151 
L 221.048452 187.735385 
L 221.373432 189.010024 
L 221.698411 157.382635 
L 222.023391 112.688082 
L 222.34837 141.985743 
L 222.67335 158.537284 
L 222.998329 132.110588 
L 223.648288 216.795889 
L 223.973268 158.723825 
L 224.298247 203.700507 
L 224.623227 212.200264 
L 224.948206 174.730586 
L 225.273186 123.519044 
L 225.598165 115.294757 
L 225.923145 230.470824 
L 226.248124 210.315215 
L 226.573104 248.132835 
L 226.898084 165.081839 
L 227.223063 139.360607 
L 227.873022 204.153027 
L 228.198002 175.634494 
L 228.522981 214.138361 
L 229.17294 139.135912 
L 229.49792 201.504896 
L 229.822899 186.424136 
L 230.147879 193.746608 
L 230.472858 154.492932 
L 230.797838 140.523545 
L 231.122817 157.124008 
L 231.772776 211.511414 
L 232.097756 194.491517 
L 232.422735 169.224814 
L 232.747715 160.359085 
L 233.072695 178.877961 
L 233.397674 183.261443 
L 233.722654 134.908116 
L 234.047633 183.854894 
L 234.372613 181.868624 
L 234.697592 183.636535 
L 235.022572 170.592946 
L 235.347551 187.467162 
L 235.672531 180.927334 
L 235.99751 140.220119 
L 236.32249 151.709154 
L 236.647469 211.802877 
L 236.972449 193.065658 
L 237.297428 160.364705 
L 237.622408 152.115461 
L 237.947387 194.230556 
L 238.272367 160.169203 
L 238.597346 138.728664 
L 238.922326 149.639848 
L 239.247305 148.390577 
L 239.572285 201.488277 
L 240.222244 179.499347 
L 240.547224 191.149857 
L 240.872203 187.659383 
L 241.522162 131.068917 
L 241.847142 163.776169 
L 242.172121 140.312859 
L 242.497101 154.941177 
L 242.82208 212.49958 
L 243.14706 152.082448 
L 243.472039 151.902783 
L 243.797019 180.154258 
L 244.121998 183.291956 
L 244.446978 192.065055 
L 244.771957 172.710738 
L 245.096937 176.365902 
L 245.421916 149.927581 
L 245.746896 111.697566 
L 246.071876 191.793191 
L 246.396855 194.224657 
L 246.721835 221.224035 
L 247.046814 157.757486 
L 247.371794 158.02063 
L 247.696773 175.971369 
L 248.021753 207.297289 
L 248.346732 166.995764 
L 248.671712 85.568173 
L 248.996691 132.628762 
L 249.321671 137.380569 
L 249.64665 135.369469 
L 249.97163 188.734973 
L 250.296609 194.12865 
L 250.621589 185.722936 
L 250.946568 191.990405 
L 251.271548 166.466646 
L 251.596527 160.970933 
L 252.246486 199.180153 
L 252.571466 222.216422 
L 253.221425 143.792371 
L 253.546405 179.155759 
L 253.871384 192.705936 
L 254.196364 220.669901 
L 254.521343 182.799534 
L 254.846323 158.324282 
L 255.171302 267.683765 
L 255.496282 216.679191 
L 255.821261 183.701004 
L 256.146241 190.298987 
L 256.47122 168.506142 
L 256.7962 217.532867 
L 257.121179 186.911194 
L 257.446159 176.659464 
L 257.771138 162.306336 
L 258.096118 228.146984 
L 258.421097 202.994315 
L 258.746077 188.49328 
L 259.396036 185.283514 
L 259.721016 156.242797 
L 260.045995 197.649425 
L 260.370975 193.748539 
L 260.695954 213.263145 
L 261.020934 214.130491 
L 261.345913 189.246621 
L 261.670893 191.214259 
L 261.995872 220.867081 
L 262.320852 208.478406 
L 262.645831 219.441919 
L 262.970811 239.677735 
L 263.29579 195.475685 
L 263.62077 189.251768 
L 263.945749 173.028266 
L 264.270729 133.462678 
L 264.595708 172.855185 
L 264.920688 131.019311 
L 265.245667 196.412706 
L 265.570647 182.444111 
L 265.895627 123.809636 
L 266.220606 168.756714 
L 266.545586 176.61668 
L 266.870565 141.273118 
L 267.195545 188.215901 
L 267.520524 179.46087 
L 267.845504 233.052885 
L 268.170483 153.905976 
L 268.495463 212.739363 
L 268.820442 186.738421 
L 269.145422 181.30122 
L 269.470401 171.031186 
L 269.795381 208.043491 
L 270.12036 97.233503 
L 270.44534 219.280336 
L 270.770319 170.610748 
L 271.095299 194.459946 
L 271.420278 143.521208 
L 271.745258 169.470323 
L 272.070238 172.660841 
L 272.395217 142.978456 
L 272.720197 194.606269 
L 273.045176 116.010398 
L 273.695135 188.27918 
L 274.020115 187.308018 
L 274.345094 160.149112 
L 274.670074 154.676064 
L 274.995053 232.524859 
L 275.320033 187.235708 
L 275.645012 159.196765 
L 275.969992 209.938525 
L 276.294971 211.563473 
L 276.619951 180.300515 
L 276.94493 184.512522 
L 277.26991 161.277924 
L 277.594889 225.850155 
L 277.919869 170.643353 
L 278.244848 208.034299 
L 278.569828 265.739315 
L 279.219787 187.215932 
L 279.544767 181.73681 
L 279.869746 194.747271 
L 280.194726 176.674813 
L 280.519705 168.650221 
L 280.844685 188.223283 
L 281.494644 109.235183 
L 281.819623 158.612759 
L 282.144603 170.838678 
L 282.469582 200.281974 
L 282.794562 195.34326 
L 283.119541 167.099284 
L 283.444521 187.649804 
L 283.7695 129.039737 
L 284.09448 220.149019 
L 284.419459 226.727226 
L 284.744439 161.20498 
L 285.069419 170.181983 
L 285.394398 259.34397 
L 285.719378 140.63571 
L 286.044357 167.730919 
L 286.369337 156.858942 
L 286.694316 153.432126 
L 287.019296 146.212137 
L 287.344275 176.382868 
L 287.669255 195.285389 
L 287.994234 180.084117 
L 288.319214 191.554024 
L 288.644193 175.105158 
L 288.969173 131.158723 
L 289.294152 181.527238 
L 289.619132 172.501218 
L 289.944111 152.532806 
L 290.269091 114.511743 
L 290.59407 139.746112 
L 290.91905 181.815318 
L 291.244029 207.375063 
L 291.569009 190.831859 
L 291.893989 250.803811 
L 292.218968 200.998037 
L 292.543948 240.169578 
L 292.868927 188.029564 
L 293.193907 177.957628 
L 293.518886 187.662552 
L 293.843866 145.274987 
L 294.168845 146.729766 
L 294.818804 234.644761 
L 295.468763 142.467712 
L 295.793743 221.549841 
L 296.118722 202.01009 
L 296.443702 199.437637 
L 296.768681 156.918035 
L 297.093661 180.307965 
L 297.41864 147.943908 
L 297.74362 150.612351 
L 298.0686 198.644732 
L 298.393579 192.742511 
L 298.718559 148.534057 
L 299.043538 177.544127 
L 299.368518 167.918333 
L 299.693497 127.025137 
L 300.018477 204.374887 
L 300.343456 179.730292 
L 300.993415 202.972315 
L 301.643374 135.283028 
L 301.968354 150.202682 
L 302.293333 134.721038 
L 302.943292 177.414187 
L 303.268272 187.399059 
L 303.593251 202.782133 
L 303.918231 126.051763 
L 304.24321 121.17954 
L 304.56819 179.51513 
L 304.89317 142.156964 
L 305.218149 168.875225 
L 305.543129 146.993241 
L 305.868108 221.530462 
L 306.193088 155.312453 
L 306.518067 160.38302 
L 306.843047 221.759463 
L 307.168026 126.55139 
L 307.493006 144.379407 
L 307.817985 176.27816 
L 308.142965 174.351471 
L 308.467944 227.772187 
L 309.117903 111.623639 
L 309.442883 185.170299 
L 309.767862 148.962815 
L 310.092842 181.356507 
L 310.417821 165.801756 
L 310.742801 158.552926 
L 311.067781 156.718682 
L 311.39276 140.251956 
L 311.71774 183.028421 
L 312.042719 187.099697 
L 312.367699 163.084071 
L 312.692678 174.748395 
L 313.017658 204.706364 
L 313.342637 163.033786 
L 313.667617 155.475057 
L 313.992596 171.518753 
L 314.317576 174.563321 
L 314.642555 175.144374 
L 314.967535 173.710818 
L 315.292514 140.264409 
L 315.617494 143.847802 
L 315.942473 186.120154 
L 316.267453 179.643076 
L 316.592432 199.900913 
L 316.917412 172.171791 
L 317.242391 178.239852 
L 317.567371 144.137144 
L 317.892351 154.211425 
L 318.21733 175.694015 
L 318.54231 153.377678 
L 318.867289 170.620756 
L 319.192269 167.421738 
L 319.842228 193.408935 
L 320.167207 186.762126 
L 320.492187 184.253641 
L 321.142146 213.214137 
L 321.467125 167.431556 
L 321.792105 157.058221 
L 322.117084 190.676337 
L 322.442064 198.592847 
L 322.767043 143.058488 
L 323.092023 175.096366 
L 323.417002 178.953703 
L 324.066962 199.761833 
L 324.391941 113.020328 
L 324.716921 222.435183 
L 325.0419 137.032772 
L 325.36688 154.620065 
L 325.691859 188.789596 
L 326.016839 255.150118 
L 326.341818 199.211299 
L 326.666798 181.226396 
L 326.991777 175.360173 
L 327.316757 192.396767 
L 327.641736 229.462764 
L 327.966716 202.889207 
L 328.291695 203.034332 
L 328.616675 229.541013 
L 328.941654 194.380349 
L 329.266634 185.764726 
L 329.591613 265.460155 
L 329.916593 179.281355 
L 330.566552 229.578469 
L 330.891532 167.387846 
L 331.216511 151.769825 
L 331.541491 141.666901 
L 331.86647 181.770147 
L 332.19145 180.264745 
L 332.841409 204.953257 
L 333.166388 154.840398 
L 333.491368 179.62127 
L 333.816347 128.205002 
L 334.141327 131.030631 
L 334.466306 205.638296 
L 334.791286 132.923408 
L 335.441245 208.49226 
L 335.766224 185.524385 
L 336.091204 206.308273 
L 336.416183 209.494268 
L 337.066143 239.152553 
L 337.391122 295.488 
L 337.716102 209.957373 
L 338.041081 252.688199 
L 338.366061 243.27984 
L 338.69104 198.200987 
L 339.01602 216.498367 
L 339.340999 259.683499 
L 339.665979 185.067217 
L 339.990958 182.369515 
L 340.640917 200.822769 
L 340.965897 225.331769 
L 341.290876 179.821625 
L 341.615856 210.902964 
L 341.940835 214.526441 
L 342.265815 151.633442 
L 342.915774 244.230635 
L 343.240753 187.997483 
L 343.890713 172.851396 
L 344.215692 200.777306 
L 344.540672 143.229598 
L 344.865651 178.078049 
L 345.190631 258.156257 
L 345.51561 205.780553 
L 346.165569 246.900384 
L 346.490549 246.434376 
L 346.815528 168.688392 
L 347.140508 188.337963 
L 347.465487 234.273436 
L 347.790467 166.471942 
L 348.440426 129.610496 
L 348.765405 167.065253 
L 349.090385 131.214576 
L 349.415364 157.697788 
L 349.740344 147.915542 
L 350.065324 166.465278 
L 350.390303 176.225453 
L 350.715283 176.401779 
L 351.040262 96.613501 
L 351.365242 179.727232 
L 351.690221 131.434028 
L 352.34018 167.478388 
L 352.66516 115.555123 
L 352.990139 135.598662 
L 353.315119 251.084395 
L 353.640098 151.338865 
L 353.965078 148.633854 
L 354.290057 138.633948 
L 354.615037 170.358489 
L 354.940016 147.284551 
L 355.264996 143.750246 
L 355.589975 81.934324 
L 355.914955 164.363462 
L 356.239934 211.045635 
L 356.564914 169.347503 
L 356.889894 223.750014 
L 357.214873 163.881647 
L 357.539853 158.81338 
L 357.864832 189.157793 
L 358.189812 201.44923 
L 358.514791 154.64783 
L 358.839771 171.034676 
L 359.16475 101.765949 
L 359.48973 122.416373 
L 359.814709 250.976984 
L 360.139689 191.698955 
L 360.464668 194.836839 
L 360.789648 176.77536 
L 361.114627 168.731591 
L 361.439607 139.939945 
L 362.414545 191.187048 
L 362.739525 161.522382 
L 363.064505 146.45002 
L 363.389484 204.60097 
L 363.714464 161.610623 
L 364.039443 174.066039 
L 364.364423 229.140469 
L 365.014382 178.585941 
L 365.339361 238.374485 
L 365.664341 186.068046 
L 365.98932 209.971369 
L 366.3143 202.204393 
L 366.639279 162.32637 
L 366.964259 170.662092 
L 367.289238 185.58091 
L 367.614218 166.400581 
L 367.939197 193.296134 
L 368.264177 161.325967 
L 368.589156 148.477804 
L 369.239115 171.671666 
L 369.564095 230.070026 
L 369.889075 215.637208 
L 370.214054 214.987645 
L 370.539034 219.537843 
L 370.864013 188.778552 
L 371.188993 211.772326 
L 371.513972 158.233918 
L 371.838952 152.363875 
L 372.163931 181.983024 
L 372.488911 163.321274 
L 372.81389 220.606378 
L 373.13887 207.921042 
L 373.463849 213.558391 
L 373.788829 241.65352 
L 374.113808 171.513061 
L 374.763767 153.196266 
L 375.088747 187.698381 
L 375.413726 194.905978 
L 375.738706 208.062101 
L 376.063686 186.349439 
L 376.388665 190.707601 
L 376.713645 184.546189 
L 377.038624 151.930363 
L 377.363604 152.345984 
L 377.688583 188.901568 
L 378.013563 178.362313 
L 378.338542 176.06024 
L 378.988501 223.116931 
L 379.313481 160.917077 
L 379.63846 182.267957 
L 379.96344 128.365176 
L 380.613399 232.88099 
L 380.938378 179.994444 
L 381.263358 188.312908 
L 381.588337 160.17799 
L 381.913317 144.590653 
L 382.238296 135.964106 
L 382.563276 144.404387 
L 382.888256 146.990483 
L 383.213235 170.614415 
L 383.538215 178.902188 
L 383.863194 155.726335 
L 384.188174 150.435856 
L 384.513153 159.454338 
L 384.838133 198.22002 
L 385.163112 207.344486 
L 385.488092 147.445591 
L 385.813071 210.885021 
L 386.138051 162.43219 
L 386.46303 220.647331 
L 387.437969 115.480833 
L 387.762948 216.499813 
L 388.087928 217.198183 
L 388.412907 202.085928 
L 388.737887 169.07719 
L 389.062867 205.97038 
L 389.387846 165.134191 
L 389.712826 173.05694 
L 390.037805 175.116483 
L 390.362785 188.258096 
L 390.687764 162.911099 
L 391.012744 194.039461 
L 391.337723 195.570014 
L 391.662703 185.235262 
L 392.312662 83.174574 
L 392.637641 77.0309 
L 392.962621 156.124889 
L 393.2876 177.430913 
L 393.61258 172.900287 
L 394.262539 155.27554 
L 394.587518 189.734304 
L 394.912498 179.930128 
L 395.237477 142.706239 
L 395.562457 150.896853 
L 395.887437 154.494735 
L 396.212416 191.9879 
L 396.537396 152.320447 
L 397.187355 204.119226 
L 397.512334 186.09435 
L 397.837314 153.751911 
L 398.162293 184.19934 
L 398.487273 179.859343 
L 398.487273 179.859343 
" clip-path="url(#p4c2f15ac69)" style="fill: none; stroke: #1f77b4; stroke-width: 1.5; stroke-linecap: square"/>
   </g>
   <g id="patch_3">
    <path d="M 57.6 307.584 
L 57.6 41.472 
" style="fill: none; stroke: #000000; stroke-width: 0.8; stroke-linejoin: miter; stroke-linecap: square"/>
   </g>
   <g id="patch_4">
    <path d="M 414.72 307.584 
L 414.72 41.472 
" style="fill: none; stroke: #000000; stroke-width: 0.8; stroke-linejoin: miter; stroke-linecap: square"/>
   </g>
   <g id="patch_5">
    <path d="M 57.6 307.584 
L 414.72 307.584 
" style="fill: none; stroke: #000000; stroke-width: 0.8; stroke-linejoin: miter; stroke-linecap: square"/>
   </g>
   <g id="patch_6">
    <path d="M 57.6 41.472 
L 414.72 41.472 
" style="fill: none; stroke: #000000; stroke-width: 0.8; stroke-linejoin: miter; stroke-linecap: square"/>
   </g>
  </g>
 </g>
 <defs>
  <clipPath id="p4c2f15ac69">
   <rect x="57.6" y="41.472" width="357.12" height="266.112"/>
  </clipPath>
 </defs>
</svg>
