<?xml version="1.0" encoding="utf-8" standalone="no"?>
<!DOCTYPE svg PUBLIC "-//W3C//DTD SVG 1.1//EN"
  "http://www.w3.org/Graphics/SVG/1.1/DTD/svg11.dtd">
<svg xmlns:xlink="http://www.w3.org/1999/xlink" width="460.8pt" height="345.6pt" viewBox="0 0 460.8 345.6" xmlns="http://www.w3.org/2000/svg" version="1.1">
 <metadata>
  <rdf:RDF xmlns:dc="http://purl.org/dc/elements/1.1/" xmlns:cc="http://creativecommons.org/ns#" xmlns:rdf="http://www.w3.org/1999/02/22-rdf-syntax-ns#">
   <cc:Work>
    <dc:type rdf:resource="http://purl.org/dc/dcmitype/StillImage"/>
    <dc:date>2026-01-29T08:00:21.156416</dc:date>
    <dc:format>image/svg+xml</dc:format>
    <dc:creator>
     <cc:Agent>
      <dc:title>Matplotlib v3.10.8, https://matplotlib.org/</dc:title>
     </cc:Agent>
    </dc:creator>
   </cc:Work>
  </rdf:RDF>
 </metadata>
 <defs>
  <style type="text/css">*{stroke-linejoin: round; stroke-linecap: butt}</style>
 </defs>
 <g id="figure_1">
  <g id="patch_1">
   <path d="M 0 345.6 
L 460.8 345.6 
L 460.8 0 
L 0 0 
z
" style="fill: #ffffff"/>
  </g>
  <g id="axes_1">
   <g id="patch_2">
    <path d="M 83.6075 266.245 
L 426.847748 266.245 
L 426.847748 25.92 
L 83.6075 25.92 
z
" style="fill: #ffffff"/>
   </g>
   <g id="matplotlib.axis_1">
    <g id="xtick_1">
     <g id="line2d_1">
      <path d="M 99.209329 266.245 
L 99.209329 25.92 
" clip-path="url(#p94c6d5299e)" style="fill: none; stroke: #b0b0b0; stroke-width: 0.8; stroke-linecap: square"/>
     </g>
     <g id="line2d_2">
      <defs>
       <path id="mfce19ee260" d="M 0 0 
L 0 3.5 
" style="stroke: #000000; stroke-width: 0.8"/>
      </defs>
      <g>
       <use xlink:href="#mfce19ee260" x="99.209329" y="266.245" style="stroke: #000000; stroke-width: 0.8"/>
      </g>
     </g>
     <g id="text_1">
      <!-- 0 -->
      <g transform="translate(93.209329 289.63625) scale(0.24 -0.24)">
       <defs>
        <path id="TeXGyreTermes-Regular-30" d="M 3046 2112 
C 3046 3424 2464 4326 1626 4326 
C 1274 4326 1005 4218 768 3994 
C 397 3635 154 2899 154 2150 
C 154 1453 365 704 666 346 
C 902 64 1229 -90 1600 -90 
C 1926 -90 2202 19 2432 243 
C 2803 595 3046 1338 3046 2112 
z
M 2432 2099 
C 2432 762 2150 77 1600 77 
C 1050 77 768 762 768 2093 
C 768 3450 1056 4160 1606 4160 
C 2144 4160 2432 3437 2432 2099 
z
" transform="scale(0.015625)"/>
       </defs>
       <use xlink:href="#TeXGyreTermes-Regular-30"/>
      </g>
     </g>
    </g>
    <g id="xtick_2">
     <g id="line2d_3">
      <path d="M 255.383798 266.245 
L 255.383798 25.92 
" clip-path="url(#p94c6d5299e)" style="fill: none; stroke: #b0b0b0; stroke-width: 0.8; stroke-linecap: square"/>
     </g>
     <g id="line2d_4">
      <g>
       <use xlink:href="#mfce19ee260" x="255.383798" y="266.245" style="stroke: #000000; stroke-width: 0.8"/>
      </g>
     </g>
     <g id="text_2">
      <!-- 500 -->
      <g transform="translate(237.383798 289.63625) scale(0.24 -0.24)">
       <defs>
        <path id="TeXGyreTermes-Regular-35" d="M 2803 4358 
L 2746 4403 
C 2650 4269 2586 4237 2451 4237 
L 1114 4237 
L 416 2720 
C 410 2707 410 2688 410 2688 
C 410 2656 435 2637 486 2637 
C 691 2637 947 2592 1210 2509 
C 1946 2272 2285 1875 2285 1242 
C 2285 627 1894 147 1395 147 
C 1267 147 1158 192 966 333 
C 762 480 614 544 480 544 
C 294 544 205 467 205 307 
C 205 64 506 -90 986 -90 
C 1523 -90 1984 83 2304 410 
C 2598 698 2733 1062 2733 1549 
C 2733 2010 2611 2304 2291 2624 
C 2010 2906 1645 3053 890 3187 
L 1158 3731 
L 2413 3731 
C 2515 3731 2541 3744 2560 3789 
L 2803 4358 
z
" transform="scale(0.015625)"/>
       </defs>
       <use xlink:href="#TeXGyreTermes-Regular-35"/>
       <use xlink:href="#TeXGyreTermes-Regular-30" transform="translate(49.999985 0)"/>
       <use xlink:href="#TeXGyreTermes-Regular-30" transform="translate(99.999969 0)"/>
      </g>
     </g>
    </g>
    <g id="xtick_3">
     <g id="line2d_5">
      <path d="M 411.558267 266.245 
L 411.558267 25.92 
" clip-path="url(#p94c6d5299e)" style="fill: none; stroke: #b0b0b0; stroke-width: 0.8; stroke-linecap: square"/>
     </g>
     <g id="line2d_6">
      <g>
       <use xlink:href="#mfce19ee260" x="411.558267" y="266.245" style="stroke: #000000; stroke-width: 0.8"/>
      </g>
     </g>
     <g id="text_3">
      <!-- 1000 -->
      <g transform="translate(387.558267 289.63625) scale(0.24 -0.24)">
       <defs>
        <path id="TeXGyreTermes-Regular-31" d="M 2522 0 
L 2522 96 
C 2016 102 1914 166 1914 474 
L 1914 4314 
L 1862 4326 
L 710 3744 
L 710 3654 
C 787 3686 858 3712 883 3725 
C 998 3770 1107 3795 1171 3795 
C 1306 3795 1363 3699 1363 3494 
L 1363 595 
C 1363 384 1312 237 1210 179 
C 1114 122 1024 102 755 96 
L 755 0 
L 2522 0 
z
" transform="scale(0.015625)"/>
       </defs>
       <use xlink:href="#TeXGyreTermes-Regular-31"/>
       <use xlink:href="#TeXGyreTermes-Regular-30" transform="translate(49.999985 0)"/>
       <use xlink:href="#TeXGyreTermes-Regular-30" transform="translate(99.999969 0)"/>
       <use xlink:href="#TeXGyreTermes-Regular-30" transform="translate(149.999954 0)"/>
      </g>
     </g>
    </g>
    <g id="text_4">
     <!-- Schritt k -->
     <g transform="translate(214.225124 315.23625) scale(0.24 -0.24)">
      <defs>
       <path id="TeXGyreTermes-Regular-53" d="M 3142 1075 
C 3142 1606 2790 2016 1946 2477 
C 1274 2842 1005 3123 1005 3475 
C 1005 3827 1274 4064 1670 4064 
C 1958 4064 2227 3942 2451 3712 
C 2650 3507 2739 3341 2842 2963 
L 3002 2963 
L 2861 4326 
L 2726 4326 
C 2701 4186 2630 4109 2522 4109 
C 2458 4109 2355 4134 2240 4186 
C 2003 4275 1773 4326 1549 4326 
C 1299 4326 1030 4224 826 4058 
C 576 3853 454 3578 454 3226 
C 454 2720 736 2362 1453 1984 
C 1914 1734 2246 1478 2406 1235 
C 2464 1146 2496 1018 2496 858 
C 2496 435 2176 141 1709 141 
C 1133 141 736 493 416 1274 
L 269 1274 
L 461 -83 
L 602 -83 
C 608 38 685 128 781 128 
C 851 128 960 102 1082 58 
C 1325 -38 1581 -90 1837 -90 
C 2579 -90 3142 416 3142 1075 
z
" transform="scale(0.015625)"/>
       <path id="TeXGyreTermes-Regular-63" d="M 2637 941 
L 2547 998 
C 2240 550 2010 397 1645 397 
C 1056 397 653 909 653 1645 
C 653 2310 1005 2758 1523 2758 
C 1754 2758 1837 2688 1901 2451 
L 1939 2310 
C 1990 2125 2106 2016 2246 2016 
C 2413 2016 2547 2138 2547 2285 
C 2547 2643 2099 2944 1562 2944 
C 1261 2944 954 2829 698 2618 
C 352 2330 160 1888 160 1357 
C 160 531 666 -64 1376 -64 
C 1651 -64 1894 26 2112 205 
C 2304 358 2432 544 2637 941 
z
" transform="scale(0.015625)"/>
       <path id="TeXGyreTermes-Regular-68" d="M 3117 0 
L 3117 96 
C 2771 160 2733 211 2733 653 
L 2733 1926 
C 2733 2598 2464 2944 1946 2944 
C 1568 2944 1299 2790 1005 2406 
L 1005 4352 
L 973 4371 
C 755 4294 595 4243 237 4141 
L 64 4090 
L 64 3987 
C 90 3994 109 3994 141 3994 
C 416 3994 467 3942 467 3667 
L 467 653 
C 467 205 429 147 58 96 
L 58 0 
L 1440 0 
L 1440 96 
C 1069 134 1005 211 1005 653 
L 1005 2195 
C 1274 2490 1466 2598 1715 2598 
C 2035 2598 2195 2368 2195 1920 
L 2195 653 
C 2195 218 2131 134 1760 96 
L 1760 0 
L 3117 0 
z
" transform="scale(0.015625)"/>
       <path id="TeXGyreTermes-Regular-72" d="M 2144 2605 
C 2144 2816 2010 2944 1792 2944 
C 1523 2944 1338 2797 1024 2342 
L 1024 2931 
L 992 2944 
C 653 2803 422 2720 45 2598 
L 45 2496 
C 134 2515 192 2522 269 2522 
C 429 2522 486 2419 486 2138 
L 486 538 
C 486 218 442 173 32 96 
L 32 0 
L 1568 0 
L 1568 96 
C 1133 115 1024 211 1024 576 
L 1024 2016 
C 1024 2221 1299 2541 1472 2541 
C 1510 2541 1568 2509 1638 2445 
C 1741 2355 1811 2317 1894 2317 
C 2048 2317 2144 2426 2144 2605 
z
" transform="scale(0.015625)"/>
       <path id="TeXGyreTermes-Regular-69" d="M 1619 0 
L 1619 96 
C 1197 128 1146 192 1146 653 
L 1146 2925 
L 1120 2944 
L 128 2592 
L 128 2496 
L 179 2502 
C 256 2515 339 2522 397 2522 
C 550 2522 608 2419 608 2138 
L 608 653 
C 608 192 544 122 102 96 
L 102 0 
L 1619 0 
z
M 1203 3776 
C 1203 3955 1062 4102 877 4102 
C 698 4102 550 3955 550 3776 
C 550 3590 698 3450 877 3450 
C 1062 3450 1203 3590 1203 3776 
z
" transform="scale(0.015625)"/>
       <path id="TeXGyreTermes-Regular-74" d="M 1786 422 
L 1702 493 
C 1562 326 1459 269 1318 269 
C 1082 269 986 435 986 845 
L 986 2675 
L 1632 2675 
L 1632 2880 
L 986 2880 
L 986 3622 
C 986 3686 973 3706 941 3706 
C 902 3642 858 3584 813 3526 
C 576 3174 358 2938 192 2842 
C 122 2797 83 2758 83 2720 
C 83 2701 90 2688 109 2675 
L 448 2675 
L 448 749 
C 448 211 640 -64 1011 -64 
C 1331 -64 1574 90 1786 422 
z
" transform="scale(0.015625)"/>
       <path id="TeXGyreTermes-Regular-20" transform="scale(0.015625)"/>
       <path id="TeXGyreTermes-Regular-6b" d="M 3232 0 
L 3232 96 
C 2950 115 2752 237 2483 563 
L 1504 1805 
L 1690 1978 
C 2144 2400 2541 2694 2726 2746 
C 2822 2771 2912 2784 3021 2784 
L 3072 2784 
L 3072 2880 
L 1766 2880 
L 1766 2790 
C 2016 2784 2086 2758 2086 2669 
C 2086 2618 2029 2528 1939 2451 
L 1062 1670 
L 1062 4358 
L 1037 4371 
L 237 4141 
L 45 4090 
L 45 3987 
C 128 3994 186 4000 250 4000 
C 461 4000 525 3917 525 3610 
L 525 525 
C 525 192 506 173 45 96 
L 45 0 
L 1542 0 
L 1542 96 
L 1414 102 
C 1158 115 1062 205 1062 429 
L 1062 1606 
L 1958 410 
L 1978 384 
C 1990 365 2003 346 2022 326 
C 2074 262 2093 224 2093 192 
C 2093 134 2035 96 1958 96 
L 1837 96 
L 1837 0 
L 3232 0 
z
" transform="scale(0.015625)"/>
      </defs>
      <use xlink:href="#TeXGyreTermes-Regular-53"/>
      <use xlink:href="#TeXGyreTermes-Regular-63" transform="translate(55.599991 0)"/>
      <use xlink:href="#TeXGyreTermes-Regular-68" transform="translate(99.999985 0)"/>
      <use xlink:href="#TeXGyreTermes-Regular-72" transform="translate(149.999969 0)"/>
      <use xlink:href="#TeXGyreTermes-Regular-69" transform="translate(183.299957 0)"/>
      <use xlink:href="#TeXGyreTermes-Regular-74" transform="translate(211.099945 0)"/>
      <use xlink:href="#TeXGyreTermes-Regular-74" transform="translate(238.899933 0)"/>
      <use xlink:href="#TeXGyreTermes-Regular-20" transform="translate(266.699921 0)"/>
      <use xlink:href="#TeXGyreTermes-Regular-6b" transform="translate(291.699905 0)"/>
     </g>
    </g>
   </g>
   <g id="matplotlib.axis_2">
    <g id="ytick_1">
     <g id="line2d_7">
      <path d="M 83.6075 221.768794 
L 426.847748 221.768794 
" clip-path="url(#p94c6d5299e)" style="fill: none; stroke: #b0b0b0; stroke-width: 0.8; stroke-linecap: square"/>
     </g>
     <g id="line2d_8">
      <defs>
       <path id="m54bc4815f9" d="M 0 0 
L -3.5 0 
" style="stroke: #000000; stroke-width: 0.8"/>
      </defs>
      <g>
       <use xlink:href="#m54bc4815f9" x="83.6075" y="221.768794" style="stroke: #000000; stroke-width: 0.8"/>
      </g>
     </g>
     <g id="text_5">
      <!-- −2 -->
      <g transform="translate(51.07 229.964419) scale(0.24 -0.24)">
       <defs>
        <path id="TeXGyreTermes-Regular-2212" d="M 3354 1389 
L 3354 1811 
L 256 1811 
L 256 1389 
L 3354 1389 
z
" transform="scale(0.015625)"/>
        <path id="TeXGyreTermes-Regular-32" d="M 3040 877 
L 2957 909 
C 2720 544 2637 486 2349 486 
L 819 486 
L 1894 1613 
C 2464 2208 2714 2694 2714 3194 
C 2714 3834 2195 4326 1530 4326 
C 1178 4326 845 4186 608 3930 
C 403 3712 307 3507 198 3053 
L 333 3021 
C 589 3648 819 3853 1261 3853 
C 1798 3853 2163 3488 2163 2950 
C 2163 2451 1869 1856 1331 1286 
L 192 77 
L 192 0 
L 2688 0 
L 3040 877 
z
" transform="scale(0.015625)"/>
       </defs>
       <use xlink:href="#TeXGyreTermes-Regular-2212"/>
       <use xlink:href="#TeXGyreTermes-Regular-32" transform="translate(56.399994 0)"/>
      </g>
     </g>
    </g>
    <g id="ytick_2">
     <g id="line2d_9">
      <path d="M 83.6075 151.827082 
L 426.847748 151.827082 
" clip-path="url(#p94c6d5299e)" style="fill: none; stroke: #b0b0b0; stroke-width: 0.8; stroke-linecap: square"/>
     </g>
     <g id="line2d_10">
      <g>
       <use xlink:href="#m54bc4815f9" x="83.6075" y="151.827082" style="stroke: #000000; stroke-width: 0.8"/>
      </g>
     </g>
     <g id="text_6">
      <!-- 0 -->
      <g transform="translate(64.6075 160.022707) scale(0.24 -0.24)">
       <use xlink:href="#TeXGyreTermes-Regular-30"/>
      </g>
     </g>
    </g>
    <g id="ytick_3">
     <g id="line2d_11">
      <path d="M 83.6075 81.885369 
L 426.847748 81.885369 
" clip-path="url(#p94c6d5299e)" style="fill: none; stroke: #b0b0b0; stroke-width: 0.8; stroke-linecap: square"/>
     </g>
     <g id="line2d_12">
      <g>
       <use xlink:href="#m54bc4815f9" x="83.6075" y="81.885369" style="stroke: #000000; stroke-width: 0.8"/>
      </g>
     </g>
     <g id="text_7">
      <!-- 2 -->
      <g transform="translate(64.6075 90.080994) scale(0.24 -0.24)">
       <use xlink:href="#TeXGyreTermes-Regular-32"/>
      </g>
     </g>
    </g>
    <g id="text_8">
     <!-- x(k) -->
     <g transform="translate(41.86125 166.07375) rotate(-90) scale(0.24 -0.24)">
      <defs>
       <path id="TeXGyreTermes-Regular-78" d="M 3066 0 
L 3066 96 
C 2867 96 2739 198 2541 480 
L 1722 1734 
L 2253 2502 
C 2374 2675 2566 2778 2771 2784 
L 2771 2880 
L 1760 2880 
L 1760 2784 
C 1952 2771 2016 2733 2016 2643 
C 2016 2566 1939 2426 1779 2227 
C 1747 2189 1670 2074 1587 1946 
L 1498 2074 
C 1318 2342 1203 2560 1203 2643 
C 1203 2733 1286 2778 1478 2784 
L 1478 2880 
L 154 2880 
L 154 2784 
L 211 2784 
C 403 2784 506 2701 704 2400 
L 1306 1478 
L 576 422 
C 384 160 320 115 109 96 
L 109 0 
L 1037 0 
L 1037 96 
C 858 96 781 128 781 211 
C 781 250 826 346 909 474 
L 1414 1261 
L 1997 365 
C 2022 326 2035 288 2035 250 
C 2035 134 1990 109 1779 96 
L 1779 0 
L 3066 0 
z
" transform="scale(0.015625)"/>
       <path id="TeXGyreTermes-Regular-28" d="M 1946 -1030 
C 1434 -627 1254 -403 1082 77 
C 928 506 858 992 858 1632 
C 858 2304 941 2829 1114 3226 
C 1293 3622 1485 3853 1946 4224 
L 1888 4326 
C 1414 4019 1222 3853 986 3558 
C 531 3002 307 2362 307 1613 
C 307 800 544 173 1107 -480 
C 1370 -787 1536 -928 1869 -1133 
L 1946 -1030 
z
" transform="scale(0.015625)"/>
       <path id="TeXGyreTermes-Regular-29" d="M 1824 1581 
C 1824 2400 1587 3021 1024 3674 
C 762 3981 595 4122 262 4326 
L 186 4224 
C 698 3821 870 3597 1050 3117 
C 1203 2688 1274 2202 1274 1562 
C 1274 896 1190 365 1018 -26 
C 838 -429 646 -659 186 -1030 
L 243 -1133 
C 717 -826 909 -659 1146 -365 
C 1600 192 1824 832 1824 1581 
z
" transform="scale(0.015625)"/>
      </defs>
      <use xlink:href="#TeXGyreTermes-Regular-78"/>
      <use xlink:href="#TeXGyreTermes-Regular-28" transform="translate(49.999985 0)"/>
      <use xlink:href="#TeXGyreTermes-Regular-6b" transform="translate(83.299973 0)"/>
      <use xlink:href="#TeXGyreTermes-Regular-29" transform="translate(133.299957 0)"/>
     </g>
    </g>
   </g>
   <g id="line2d_13">
    <path d="M 99.209329 196.060416 
L 99.521678 175.185111 
L 99.834027 207.537871 
L 100.146376 119.958757 
L 100.458725 137.812426 
L 100.771074 112.437265 
L 101.083423 212.65448 
L 101.395772 101.989403 
L 101.708121 100.524515 
L 102.02047 175.162145 
L 102.332819 104.577929 
L 102.957517 187.06806 
L 103.269866 213.983512 
L 103.894564 124.044699 
L 104.206912 148.875802 
L 104.519261 161.030467 
L 104.83161 217.200474 
L 105.143959 184.980757 
L 105.456308 140.004693 
L 105.768657 223.280321 
L 106.081006 138.412174 
L 106.393355 177.879108 
L 106.705704 118.542715 
L 107.018053 136.614462 
L 107.330402 195.306544 
L 107.642751 164.104483 
L 107.9551 148.752358 
L 108.267449 36.843864 
L 108.579798 176.118739 
L 108.892147 184.213829 
L 109.204495 167.222367 
L 109.516844 179.923913 
L 109.829193 168.488803 
L 110.141542 170.5712 
L 110.453891 152.196891 
L 110.76624 112.104462 
L 111.390938 176.426233 
L 111.703287 177.581104 
L 112.015636 127.111189 
L 112.327985 154.850127 
L 112.640334 99.813176 
L 113.577381 146.522909 
L 113.88973 117.320663 
L 114.202078 197.428642 
L 114.514427 171.773954 
L 114.826776 114.301984 
L 115.139125 196.751405 
L 115.451474 69.690877 
L 115.763823 200.551837 
L 116.388521 137.200798 
L 116.70087 171.383553 
L 117.013219 183.779517 
L 117.637917 105.442428 
L 118.262615 156.582052 
L 118.574964 174.337336 
L 118.887313 174.774425 
L 119.199661 194.911673 
L 119.51201 143.624579 
L 119.824359 125.018159 
L 120.136708 129.538482 
L 120.761406 143.170327 
L 121.073755 116.761347 
L 121.386104 139.434094 
L 121.698453 113.41027 
L 122.010802 169.8557 
L 122.323151 122.320131 
L 122.6355 130.401654 
L 122.947849 143.089961 
L 123.260198 209.43571 
L 123.572547 186.811401 
L 123.884896 145.708853 
L 124.197244 168.173923 
L 124.821942 119.108246 
L 125.134291 193.419481 
L 125.44664 150.045472 
L 125.758989 210.722611 
L 126.071338 46.93943 
L 126.383687 151.648419 
L 126.696036 104.766223 
L 127.008385 113.962056 
L 127.320734 156.575266 
L 127.633083 103.029889 
L 127.945432 137.666189 
L 128.257781 218.890661 
L 128.57013 180.304879 
L 128.882479 195.008309 
L 129.194827 162.475923 
L 129.507176 202.338296 
L 129.819525 134.628926 
L 130.131874 159.424821 
L 130.444223 103.679099 
L 130.756572 94.775501 
L 131.068921 113.303205 
L 131.38127 192.313281 
L 131.693619 148.505955 
L 132.005968 182.213588 
L 132.630666 72.782511 
L 132.943015 92.232727 
L 133.255364 236.150054 
L 133.567713 127.024417 
L 133.880062 138.763022 
L 134.19241 159.299112 
L 134.504759 167.520895 
L 134.817108 161.475539 
L 135.129457 162.691903 
L 135.441806 138.941746 
L 135.754155 182.487575 
L 136.066504 176.507238 
L 136.378853 181.302061 
L 136.691202 126.900333 
L 137.003551 129.475686 
L 137.3159 167.163874 
L 137.628249 174.252926 
L 137.940598 210.16736 
L 138.252947 110.589698 
L 138.565296 149.728539 
L 138.877645 157.571994 
L 139.189993 100.541109 
L 139.502342 144.722213 
L 139.814691 105.448014 
L 140.12704 143.62567 
L 140.439389 200.569502 
L 140.751738 116.486356 
L 141.064087 215.032114 
L 141.376436 120.638253 
L 141.688785 116.811476 
L 142.001134 143.067302 
L 142.313483 191.767354 
L 142.625832 189.400731 
L 142.938181 182.757188 
L 143.25053 178.945554 
L 143.562879 164.032054 
L 143.875228 131.988908 
L 144.187576 188.862191 
L 144.499925 152.402483 
L 144.812274 57.961731 
L 145.124623 120.070086 
L 145.436972 215.235633 
L 145.749321 139.655142 
L 146.06167 172.55241 
L 146.686368 121.143573 
L 146.998717 135.491301 
L 147.311066 112.747345 
L 147.623415 110.605973 
L 147.935764 144.327968 
L 148.248113 128.01354 
L 148.560462 65.115383 
L 148.872811 212.108102 
L 149.185159 149.087383 
L 149.497508 134.230006 
L 149.809857 180.690429 
L 150.434555 104.608195 
L 150.746904 142.958876 
L 151.059253 135.036073 
L 151.371602 158.697546 
L 151.683951 214.054962 
L 151.9963 120.729267 
L 152.308649 105.709912 
L 152.620998 144.888518 
L 152.933347 123.497424 
L 153.245696 90.55839 
L 153.558045 187.60056 
L 153.870394 129.686976 
L 154.182742 139.87762 
L 154.495091 163.734043 
L 154.80744 214.242147 
L 155.119789 88.421365 
L 155.432138 164.617389 
L 155.744487 167.668175 
L 156.056836 157.853321 
L 156.369185 133.084934 
L 156.681534 139.310157 
L 156.993883 95.783055 
L 157.306232 153.609266 
L 157.618581 88.070273 
L 157.93093 126.573791 
L 158.243279 125.768328 
L 158.555628 199.822302 
L 158.867977 193.815153 
L 159.492674 130.999482 
L 159.805023 194.524671 
L 160.117372 122.759857 
L 160.429721 156.614987 
L 160.74207 159.815922 
L 161.054419 129.134999 
L 161.366768 181.046523 
L 161.679117 160.861711 
L 161.991466 126.253041 
L 162.303815 110.342297 
L 162.616164 198.410118 
L 162.928513 141.849474 
L 163.240862 143.102452 
L 163.553211 100.764791 
L 163.86556 154.323005 
L 164.177909 133.106817 
L 164.490257 166.72082 
L 164.802606 131.16702 
L 165.114955 168.961659 
L 165.427304 184.612891 
L 165.739653 129.824409 
L 166.052002 129.929557 
L 166.364351 157.111236 
L 166.6767 164.107355 
L 166.989049 162.075394 
L 167.301398 146.141582 
L 167.613747 156.351398 
L 167.926096 176.046962 
L 168.238445 132.927276 
L 169.175492 168.281624 
L 169.800189 174.987059 
L 170.112538 104.894814 
L 170.424887 219.000754 
L 170.737236 168.45395 
L 171.049585 154.482625 
L 171.361934 176.573013 
L 171.674283 181.976384 
L 171.986632 123.948668 
L 172.298981 151.611743 
L 172.61133 167.814598 
L 172.923679 68.424217 
L 173.236028 124.816925 
L 173.548377 148.532495 
L 173.860726 138.684298 
L 174.173075 176.268382 
L 174.485423 107.023689 
L 174.797772 180.628925 
L 175.110121 122.759437 
L 175.42247 186.828427 
L 175.734819 178.131916 
L 176.047168 123.313871 
L 176.359517 125.156954 
L 176.671866 122.333843 
L 176.984215 130.000455 
L 177.296564 192.336136 
L 177.608913 147.950465 
L 177.921262 137.21315 
L 178.233611 144.866988 
L 178.54596 198.116434 
L 178.858309 113.896326 
L 179.170658 153.48854 
L 179.483006 93.866807 
L 179.795355 123.531671 
L 180.107704 188.713481 
L 180.420053 152.221682 
L 180.732402 145.908674 
L 181.044751 100.5845 
L 181.3571 119.626961 
L 181.669449 154.88121 
L 181.981798 158.164584 
L 182.294147 168.160316 
L 182.606496 146.036284 
L 182.918845 179.969772 
L 183.231194 109.944681 
L 183.543543 196.269403 
L 183.855892 119.797785 
L 184.168241 177.541904 
L 184.480589 96.737827 
L 184.792938 202.326855 
L 185.105287 146.34626 
L 185.417636 130.116027 
L 185.729985 106.262666 
L 186.042334 120.710316 
L 186.354683 109.568697 
L 186.667032 173.660639 
L 186.979381 158.736561 
L 187.29173 152.757468 
L 187.604079 99.916074 
L 187.916428 94.817888 
L 188.228777 178.35538 
L 188.541126 134.960314 
L 188.853475 172.996645 
L 189.165824 131.572959 
L 189.478172 186.025059 
L 190.10287 122.572532 
L 190.415219 190.831717 
L 190.727568 103.541368 
L 191.352266 145.570253 
L 191.664615 81.951124 
L 191.976964 131.164101 
L 192.289313 162.806958 
L 192.601662 103.396782 
L 192.914011 123.431709 
L 193.22636 95.737149 
L 193.851058 164.853308 
L 194.163407 134.756898 
L 194.475755 139.740739 
L 194.788104 204.707695 
L 195.100453 160.345683 
L 195.412802 182.053369 
L 195.725151 251.822825 
L 196.349849 139.716959 
L 196.662198 199.619598 
L 196.974547 171.602502 
L 197.286896 115.606629 
L 197.599245 126.490985 
L 198.223943 182.706224 
L 198.536292 130.696287 
L 198.848641 149.346693 
L 199.16099 202.067631 
L 199.473338 166.938901 
L 199.785687 118.090585 
L 200.098036 200.783323 
L 200.410385 142.764221 
L 200.722734 172.245403 
L 201.035083 213.271062 
L 201.347432 128.660617 
L 201.659781 131.856585 
L 202.284479 203.544539 
L 202.596828 142.179229 
L 202.909177 175.513755 
L 203.221526 158.909543 
L 203.533875 130.817229 
L 203.846224 167.306637 
L 204.470921 93.141248 
L 204.78327 181.492281 
L 205.095619 225.865267 
L 205.407968 112.030811 
L 205.720317 159.837075 
L 206.032666 163.07106 
L 206.345015 92.742927 
L 206.657364 139.161677 
L 206.969713 125.570613 
L 207.282062 179.953347 
L 207.90676 136.252434 
L 208.219109 186.609208 
L 208.531458 123.974588 
L 208.843807 122.755541 
L 209.156156 118.378863 
L 209.780853 155.523757 
L 210.093202 166.555536 
L 210.405551 112.873845 
L 210.7179 149.329506 
L 211.030249 74.264675 
L 211.342598 147.152336 
L 211.654947 176.92372 
L 211.967296 130.194488 
L 212.279645 217.055889 
L 212.591994 178.853157 
L 212.904343 104.592953 
L 213.216692 119.785807 
L 213.529041 152.34171 
L 213.84139 157.335141 
L 214.153739 153.72295 
L 214.466087 135.782636 
L 215.090785 177.008042 
L 215.403134 235.78299 
L 215.715483 159.008416 
L 216.027832 193.90076 
L 216.340181 182.931741 
L 216.65253 135.152259 
L 216.964879 114.616785 
L 217.277228 117.81417 
L 217.589577 165.03956 
L 217.901926 136.020145 
L 218.214275 122.304973 
L 218.526624 99.908095 
L 218.838973 162.259172 
L 219.151322 76.101618 
L 219.46367 95.014107 
L 219.776019 120.84793 
L 220.088368 107.357045 
L 220.713066 150.946393 
L 221.025415 138.86116 
L 221.337764 103.921797 
L 221.650113 121.312414 
L 221.962462 184.586169 
L 222.274811 152.994097 
L 222.58716 172.977782 
L 222.899509 138.462504 
L 223.211858 206.294154 
L 223.524207 206.343974 
L 223.836556 174.924636 
L 224.148905 163.885394 
L 224.461254 115.513948 
L 224.773602 165.41451 
L 225.085951 104.779782 
L 225.3983 140.612655 
L 225.710649 94.710662 
L 226.022998 150.70852 
L 226.335347 181.110215 
L 226.647696 168.399396 
L 226.960045 187.72667 
L 227.272394 112.393262 
L 227.584743 110.342357 
L 227.897092 104.009752 
L 228.209441 191.874943 
L 228.52179 166.112237 
L 228.834139 150.022938 
L 229.146488 113.788726 
L 229.458837 178.345933 
L 229.771185 116.105805 
L 230.083534 109.939889 
L 230.395883 123.967487 
L 230.708232 205.255721 
L 231.020581 153.2572 
L 231.33293 176.139125 
L 231.645279 132.422099 
L 231.957628 160.567139 
L 232.269977 143.040686 
L 232.582326 187.221336 
L 232.894675 86.686626 
L 233.207024 135.228752 
L 233.519373 72.258053 
L 233.831722 201.703796 
L 234.144071 203.058884 
L 234.45642 154.706771 
L 234.768768 139.423173 
L 235.081117 220.100235 
L 235.393466 142.870342 
L 236.018164 126.455318 
L 236.330513 145.533875 
L 236.642862 226.915574 
L 236.955211 105.161406 
L 237.26756 127.478137 
L 237.579909 179.714667 
L 237.892258 113.537168 
L 238.516956 163.413907 
L 238.829305 137.137984 
L 239.141654 93.50622 
L 239.454003 137.145594 
L 239.766351 164.791338 
L 240.0787 182.4751 
L 240.391049 115.200886 
L 240.703398 207.059312 
L 241.328096 116.479987 
L 241.640445 155.228845 
L 241.952794 146.323506 
L 242.577492 228.589904 
L 243.20219 85.23599 
L 243.514539 153.174095 
L 243.826888 187.020287 
L 244.139237 165.599962 
L 244.451586 161.408172 
L 244.763934 132.221231 
L 245.076283 157.509411 
L 245.700981 97.813989 
L 246.01333 114.080972 
L 246.325679 152.342351 
L 246.638028 134.238538 
L 246.950377 159.767196 
L 247.262726 168.936894 
L 247.575075 195.167626 
L 247.887424 83.14031 
L 248.199773 159.745822 
L 248.512122 163.740674 
L 248.824471 149.289347 
L 249.13682 211.895293 
L 249.449169 71.159639 
L 249.761517 187.125992 
L 250.073866 157.157057 
L 250.386215 145.676163 
L 250.698564 174.281244 
L 251.323262 140.059635 
L 251.94796 212.657151 
L 252.260309 130.117842 
L 252.572658 150.418403 
L 252.885007 180.134517 
L 253.197356 130.331337 
L 253.509705 125.480776 
L 253.822054 168.432286 
L 254.134403 159.802292 
L 254.446752 133.839848 
L 254.7591 145.180999 
L 255.071449 202.870487 
L 255.696147 120.764158 
L 256.008496 145.514559 
L 256.320845 187.989134 
L 256.633194 116.220288 
L 256.945543 81.674182 
L 257.257892 140.801249 
L 257.570241 133.08659 
L 257.88259 172.652751 
L 258.194939 117.940446 
L 258.507288 121.399592 
L 258.819637 191.019777 
L 259.131986 137.450549 
L 259.444335 159.776419 
L 259.756683 111.79578 
L 260.069032 215.715652 
L 260.381381 130.083701 
L 260.69373 175.648044 
L 261.006079 185.875916 
L 261.630777 195.24374 
L 261.943126 110.327318 
L 262.255475 116.121658 
L 262.567824 227.716299 
L 262.880173 182.687392 
L 263.192522 159.238326 
L 263.81722 100.415122 
L 264.129569 163.365647 
L 264.441918 146.027284 
L 264.754266 175.81592 
L 265.066615 73.338745 
L 265.378964 187.780757 
L 265.691313 162.323425 
L 266.003662 183.591208 
L 266.316011 115.884313 
L 266.62836 123.192823 
L 266.940709 159.834557 
L 267.253058 163.096709 
L 267.565407 191.950403 
L 267.877756 194.460276 
L 268.190105 132.992105 
L 268.502454 215.581215 
L 268.814803 157.234483 
L 269.127152 207.176345 
L 269.439501 161.229367 
L 270.064198 204.280803 
L 270.688896 117.127267 
L 271.001245 166.014486 
L 271.313594 180.25338 
L 271.625943 184.915022 
L 272.56299 120.239686 
L 272.875339 143.763134 
L 273.187688 133.050625 
L 273.500037 142.669994 
L 273.812386 117.499076 
L 274.124735 185.299194 
L 274.437084 153.770758 
L 274.749432 78.091825 
L 275.061781 192.208742 
L 275.37413 166.942517 
L 275.686479 189.27963 
L 275.998828 125.223609 
L 276.311177 130.033663 
L 276.623526 76.800671 
L 276.935875 222.183495 
L 277.248224 104.202868 
L 277.560573 103.492745 
L 277.872922 153.239856 
L 278.185271 221.963256 
L 278.49762 143.258729 
L 278.809969 111.961468 
L 279.122318 197.37417 
L 279.747015 63.505548 
L 280.059364 148.889486 
L 280.371713 167.085011 
L 280.684062 124.716347 
L 280.996411 109.408136 
L 281.30876 125.914421 
L 281.621109 148.391403 
L 281.933458 135.644917 
L 282.245807 185.117189 
L 282.558156 162.948013 
L 282.870505 158.912133 
L 283.182854 157.652849 
L 283.495203 192.703251 
L 284.119901 106.68592 
L 284.744598 210.428546 
L 285.056947 121.724305 
L 285.369296 138.640259 
L 285.681645 122.163593 
L 285.993994 112.476884 
L 286.306343 157.643043 
L 286.618692 113.322497 
L 286.931041 132.235863 
L 287.24339 110.170628 
L 287.555739 164.745864 
L 287.868088 190.462642 
L 288.180437 105.233223 
L 288.492786 134.786325 
L 288.805135 135.900382 
L 289.117484 255.321136 
L 289.429833 153.702084 
L 289.742182 139.836471 
L 290.05453 157.906985 
L 290.366879 138.081563 
L 290.679228 144.608194 
L 290.991577 176.413189 
L 291.303926 124.799972 
L 291.616275 167.228494 
L 291.928624 125.924455 
L 292.240973 197.467069 
L 292.553322 184.025027 
L 292.865671 135.468822 
L 293.17802 61.502694 
L 293.490369 151.228143 
L 293.802718 152.527479 
L 294.115067 120.836676 
L 294.427416 145.059519 
L 294.739765 132.452989 
L 295.052113 174.149277 
L 295.364462 169.296312 
L 295.676811 146.562234 
L 295.98916 152.485725 
L 296.301509 143.667689 
L 296.613858 147.275768 
L 296.926207 108.62586 
L 297.238556 186.882752 
L 297.550905 180.111776 
L 298.175603 99.284465 
L 298.487952 166.468129 
L 298.800301 166.580417 
L 299.11265 104.252073 
L 299.424999 117.271918 
L 299.737348 185.688818 
L 300.049696 209.527213 
L 300.362045 102.283167 
L 300.674394 166.317987 
L 300.986743 169.935506 
L 301.299092 140.174077 
L 301.611441 186.418422 
L 301.92379 142.722093 
L 302.236139 165.329965 
L 302.548488 139.653266 
L 303.173186 205.954613 
L 303.485535 197.086396 
L 303.797884 114.383251 
L 304.110233 192.894747 
L 304.422582 217.371357 
L 304.734931 175.889644 
L 305.047279 99.748319 
L 305.359628 212.296679 
L 305.984326 113.974175 
L 306.296675 117.365769 
L 306.609024 126.858804 
L 306.921373 104.951691 
L 307.233722 176.300341 
L 307.546071 157.989512 
L 307.85842 179.899437 
L 308.170769 82.741448 
L 308.483118 129.125524 
L 308.795467 148.228579 
L 309.107816 210.835643 
L 309.420165 113.926871 
L 309.732514 123.401116 
L 310.044862 202.766605 
L 310.357211 212.305312 
L 310.66956 138.043004 
L 310.981909 152.473004 
L 311.606607 169.496318 
L 311.918956 155.746861 
L 312.231305 127.202125 
L 312.543654 128.565692 
L 312.856003 157.619449 
L 313.168352 153.114416 
L 313.480701 133.927611 
L 313.79305 187.281691 
L 314.105399 115.966817 
L 314.417748 134.068477 
L 314.730097 110.019695 
L 315.042445 126.715001 
L 315.667143 178.239329 
L 315.979492 148.400526 
L 316.291841 129.429265 
L 316.60419 134.62732 
L 317.228888 70.843135 
L 317.541237 100.603869 
L 317.853586 148.588944 
L 318.165935 95.949395 
L 318.478284 103.040589 
L 318.790633 136.885045 
L 319.102982 143.614001 
L 319.415331 166.436036 
L 319.72768 168.6653 
L 320.040028 171.852767 
L 320.352377 144.521354 
L 320.664726 129.415415 
L 320.977075 195.826608 
L 321.289424 131.087387 
L 321.601773 168.638394 
L 321.914122 153.344559 
L 322.53882 109.478548 
L 322.851169 189.328466 
L 323.163518 79.410286 
L 323.475867 190.815429 
L 323.788216 142.765258 
L 324.100565 126.083094 
L 324.412914 144.977243 
L 324.725263 114.520109 
L 325.037611 225.459599 
L 325.34996 184.744768 
L 325.662309 110.8558 
L 325.974658 151.731891 
L 326.287007 160.620433 
L 326.599356 122.130761 
L 326.911705 191.308458 
L 327.224054 130.049688 
L 327.536403 115.791114 
L 327.848752 156.298507 
L 328.47345 108.458392 
L 328.785799 152.386645 
L 329.410497 101.558335 
L 329.722846 118.904173 
L 330.347543 221.380727 
L 330.659892 146.172091 
L 330.972241 165.561311 
L 331.28459 144.677383 
L 331.596939 94.280155 
L 331.909288 159.492067 
L 332.221637 139.029936 
L 332.533986 176.820579 
L 332.846335 183.308814 
L 333.158684 201.772653 
L 333.783382 163.71441 
L 334.095731 123.985037 
L 334.40808 131.548631 
L 334.720429 232.525557 
L 335.345126 121.260322 
L 335.657475 176.779226 
L 335.969824 178.804656 
L 336.282173 179.658249 
L 336.594522 139.509079 
L 336.906871 159.529707 
L 337.21922 193.431667 
L 337.531569 119.136419 
L 337.843918 176.50315 
L 338.156267 95.469081 
L 338.468616 142.799218 
L 338.780965 153.940252 
L 339.093314 126.018205 
L 339.405663 202.108072 
L 339.718012 167.602968 
L 340.03036 114.602559 
L 340.342709 186.419431 
L 340.655058 152.265523 
L 340.967407 227.902741 
L 341.279756 167.61918 
L 341.592105 160.533384 
L 341.904454 88.339777 
L 342.216803 156.512777 
L 342.529152 167.779164 
L 342.841501 145.123726 
L 343.15385 193.365412 
L 343.466199 200.388892 
L 343.778548 152.766648 
L 344.403246 122.4671 
L 344.715595 75.200452 
L 345.340292 165.14998 
L 345.652641 184.586384 
L 345.96499 104.823806 
L 346.589688 164.512956 
L 346.902037 170.462003 
L 347.214386 88.520945 
L 347.526735 165.111982 
L 347.839084 159.754628 
L 348.151433 145.630597 
L 348.463782 152.894727 
L 348.776131 174.483545 
L 349.08848 112.387856 
L 349.400829 149.848971 
L 349.713178 122.461501 
L 350.025526 158.189972 
L 350.337875 164.87148 
L 350.650224 148.887226 
L 350.962573 152.656193 
L 351.274922 141.51835 
L 351.587271 171.753461 
L 351.89962 135.319469 
L 352.211969 135.918972 
L 352.524318 166.9858 
L 352.836667 128.994481 
L 353.149016 174.562935 
L 353.461365 185.450358 
L 354.086063 90.362568 
L 354.398412 124.936812 
L 354.710761 120.552107 
L 355.02311 175.726323 
L 355.335458 137.455006 
L 355.647807 140.062314 
L 355.960156 178.6835 
L 356.272505 92.482158 
L 356.584854 118.357632 
L 356.897203 116.633258 
L 357.209552 155.07883 
L 357.521901 133.43253 
L 357.83425 175.267726 
L 358.146599 176.126129 
L 358.458948 89.721594 
L 358.771297 189.707445 
L 359.083646 193.509145 
L 359.395995 126.901833 
L 359.708344 134.603493 
L 360.020693 120.272233 
L 360.333041 131.981245 
L 360.64539 62.77181 
L 360.957739 239.084175 
L 361.582437 99.018306 
L 361.894786 140.432407 
L 362.519484 111.124954 
L 362.831833 108.311441 
L 363.144182 128.704953 
L 363.76888 212.356103 
L 364.081229 172.875507 
L 364.393578 157.123729 
L 364.705927 102.321589 
L 365.018276 200.552267 
L 365.330624 136.584884 
L 365.642973 98.205664 
L 365.955322 149.825213 
L 366.267671 140.998803 
L 366.58002 127.105712 
L 366.892369 203.2274 
L 367.204718 174.386711 
L 367.517067 176.00862 
L 367.829416 164.779826 
L 368.141765 108.286301 
L 368.454114 178.288613 
L 368.766463 189.372856 
L 369.078812 125.704401 
L 369.70351 184.926923 
L 370.015859 153.436047 
L 370.328207 105.079733 
L 370.640556 87.934989 
L 370.952905 162.19131 
L 371.265254 183.863303 
L 371.577603 196.844531 
L 371.889952 167.024624 
L 372.202301 179.743045 
L 372.51465 139.033961 
L 372.826999 181.635504 
L 373.139348 159.019765 
L 373.451697 205.394672 
L 373.764046 124.177977 
L 374.388744 203.433344 
L 374.701093 130.425332 
L 375.013442 177.591962 
L 375.32579 196.133839 
L 375.638139 141.580328 
L 375.950488 187.970001 
L 376.575186 138.471864 
L 376.887535 137.221187 
L 377.199884 183.089976 
L 377.512233 117.758204 
L 377.824582 121.571311 
L 378.44928 110.586226 
L 378.761629 131.665643 
L 379.073978 172.184976 
L 379.386327 136.807441 
L 379.698676 123.036664 
L 380.011025 134.964107 
L 380.323373 139.700838 
L 380.948071 131.715393 
L 381.26042 179.721886 
L 381.572769 123.9507 
L 381.885118 227.473597 
L 382.197467 148.697747 
L 382.509816 163.892867 
L 383.134514 129.884189 
L 383.446863 158.358621 
L 383.759212 205.394339 
L 384.071561 209.353797 
L 384.38391 134.078847 
L 384.696259 159.190765 
L 385.008608 136.040183 
L 385.320956 227.193342 
L 385.633305 157.040417 
L 385.945654 164.66294 
L 386.258003 192.164035 
L 386.570352 161.355433 
L 386.882701 211.615923 
L 387.19505 147.677975 
L 387.507399 173.583122 
L 388.132097 92.43657 
L 388.444446 174.554238 
L 388.756795 174.255466 
L 389.069144 89.268254 
L 389.381493 186.163538 
L 389.693842 193.167055 
L 390.006191 102.641133 
L 390.318539 148.977024 
L 390.630888 113.153967 
L 390.943237 95.409791 
L 391.255586 113.787918 
L 391.567935 176.306982 
L 391.880284 170.531845 
L 392.192633 184.012612 
L 392.504982 151.207521 
L 392.817331 145.589439 
L 393.12968 129.124478 
L 393.442029 153.681501 
L 393.754378 151.75855 
L 394.066727 158.927768 
L 394.379076 126.834726 
L 394.691425 128.1436 
L 395.003774 124.070172 
L 395.316122 163.752316 
L 395.628471 159.42638 
L 395.94082 70.528736 
L 396.253169 46.91834 
L 396.877867 183.038228 
L 397.190216 168.382558 
L 397.502565 162.24196 
L 398.127263 198.739464 
L 398.439612 191.65052 
L 398.751961 144.87725 
L 399.06431 142.559393 
L 399.376659 186.305251 
L 399.689008 155.232486 
L 400.001357 163.110826 
L 400.313705 123.394305 
L 400.626054 165.502073 
L 400.938403 89.159076 
L 401.250752 193.271327 
L 401.87545 138.959525 
L 402.187799 118.883702 
L 402.500148 161.994702 
L 402.812497 141.924872 
L 403.124846 142.45238 
L 403.437195 148.887119 
L 403.749544 82.002784 
L 404.061893 180.008971 
L 404.374242 218.145119 
L 404.686591 139.745971 
L 404.99894 157.126951 
L 405.311288 150.685862 
L 405.935986 208.377951 
L 406.248335 168.69575 
L 406.560684 174.174258 
L 406.873033 93.500576 
L 407.185382 166.638205 
L 407.497731 201.556813 
L 407.81008 172.867659 
L 408.122429 173.814426 
L 408.434778 64.872302 
L 408.747127 196.317898 
L 409.059476 179.781628 
L 409.371825 141.863044 
L 409.684174 156.036741 
L 409.996523 151.189952 
L 410.308871 152.087412 
L 410.62122 132.506254 
L 410.933569 152.847304 
L 411.245918 191.617779 
L 411.245918 191.617779 
" clip-path="url(#p94c6d5299e)" style="fill: none; stroke: #1f77b4; stroke-width: 1.5; stroke-linecap: square"/>
   </g>
   <g id="patch_3">
    <path d="M 83.6075 266.245 
L 83.6075 25.92 
" style="fill: none; stroke: #000000; stroke-width: 0.8; stroke-linejoin: miter; stroke-linecap: square"/>
   </g>
   <g id="patch_4">
    <path d="M 426.847748 266.245 
L 426.847748 25.92 
" style="fill: none; stroke: #000000; stroke-width: 0.8; stroke-linejoin: miter; stroke-linecap: square"/>
   </g>
   <g id="patch_5">
    <path d="M 83.6075 266.245 
L 426.847748 266.245 
" style="fill: none; stroke: #000000; stroke-width: 0.8; stroke-linejoin: miter; stroke-linecap: square"/>
   </g>
   <g id="patch_6">
    <path d="M 83.6075 25.92 
L 426.847748 25.92 
" style="fill: none; stroke: #000000; stroke-width: 0.8; stroke-linejoin: miter; stroke-linecap: square"/>
   </g>
  </g>
 </g>
 <defs>
  <clipPath id="p94c6d5299e">
   <rect x="83.6075" y="25.92" width="343.240248" height="240.325"/>
  </clipPath>
 </defs>
</svg>
