<?xml version="1.0" encoding="utf-8" standalone="no"?>
<!DOCTYPE svg PUBLIC "-//W3C//DTD SVG 1.1//EN"
  "http://www.w3.org/Graphics/SVG/1.1/DTD/svg11.dtd">
<svg xmlns:xlink="http://www.w3.org/1999/xlink" width="460.8pt" height="345.6pt" viewBox="0 0 460.8 345.6" xmlns="http://www.w3.org/2000/svg" version="1.1">
 <metadata>
  <rdf:RDF xmlns:dc="http://purl.org/dc/elements/1.1/" xmlns:cc="http://creativecommons.org/ns#" xmlns:rdf="http://www.w3.org/1999/02/22-rdf-syntax-ns#">
   <cc:Work>
    <dc:type rdf:resource="http://purl.org/dc/dcmitype/StillImage"/>
    <dc:date>2026-02-02T15:33:45.759879</dc:date>
    <dc:format>image/svg+xml</dc:format>
    <dc:creator>
     <cc:Agent>
      <dc:title>Matplotlib v3.10.8, https://matplotlib.org/</dc:title>
     </cc:Agent>
    </dc:creator>
   </cc:Work>
  </rdf:RDF>
 </metadata>
 <defs>
  <style type="text/css">*{stroke-linejoin: round; stroke-linecap: butt}</style>
 </defs>
 <g id="figure_1">
  <g id="patch_1">
   <path d="M 0 345.6 
L 460.8 345.6 
L 460.8 0 
L 0 0 
z
" style="fill: #ffffff"/>
  </g>
  <g id="axes_1">
   <g id="patch_2">
    <path d="M 70.36 266.245 
L 410.94 266.245 
L 410.94 25.92 
L 70.36 25.92 
z
" style="fill: #ffffff"/>
   </g>
   <g id="matplotlib.axis_1">
    <g id="xtick_1">
     <g id="line2d_1">
      <path d="M 70.36 266.245 
L 70.36 25.92 
" clip-path="url(#p3631f8561e)" style="fill: none; stroke: #b0b0b0; stroke-width: 0.8; stroke-linecap: square"/>
     </g>
     <g id="line2d_2">
      <defs>
       <path id="m4a2c6185dd" d="M 0 0 
L 0 3.5 
" style="stroke: #000000; stroke-width: 0.8"/>
      </defs>
      <g>
       <use xlink:href="#m4a2c6185dd" x="70.36" y="266.245" style="stroke: #000000; stroke-width: 0.8"/>
      </g>
     </g>
     <g id="text_1">
      <!-- 0 -->
      <g transform="translate(64.36 289.63625) scale(0.24 -0.24)">
       <defs>
        <path id="TeXGyreTermes-Regular-30" d="M 3046 2112 
C 3046 3424 2464 4326 1626 4326 
C 1274 4326 1005 4218 768 3994 
C 397 3635 154 2899 154 2150 
C 154 1453 365 704 666 346 
C 902 64 1229 -90 1600 -90 
C 1926 -90 2202 19 2432 243 
C 2803 595 3046 1338 3046 2112 
z
M 2432 2099 
C 2432 762 2150 77 1600 77 
C 1050 77 768 762 768 2093 
C 768 3450 1056 4160 1606 4160 
C 2144 4160 2432 3437 2432 2099 
z
" transform="scale(0.015625)"/>
       </defs>
       <use xlink:href="#TeXGyreTermes-Regular-30"/>
      </g>
     </g>
    </g>
    <g id="xtick_2">
     <g id="line2d_3">
      <path d="M 155.505 266.245 
L 155.505 25.92 
" clip-path="url(#p3631f8561e)" style="fill: none; stroke: #b0b0b0; stroke-width: 0.8; stroke-linecap: square"/>
     </g>
     <g id="line2d_4">
      <g>
       <use xlink:href="#m4a2c6185dd" x="155.505" y="266.245" style="stroke: #000000; stroke-width: 0.8"/>
      </g>
     </g>
     <g id="text_2">
      <!-- 250 -->
      <g transform="translate(137.505 289.63625) scale(0.24 -0.24)">
       <defs>
        <path id="TeXGyreTermes-Regular-32" d="M 3040 877 
L 2957 909 
C 2720 544 2637 486 2349 486 
L 819 486 
L 1894 1613 
C 2464 2208 2714 2694 2714 3194 
C 2714 3834 2195 4326 1530 4326 
C 1178 4326 845 4186 608 3930 
C 403 3712 307 3507 198 3053 
L 333 3021 
C 589 3648 819 3853 1261 3853 
C 1798 3853 2163 3488 2163 2950 
C 2163 2451 1869 1856 1331 1286 
L 192 77 
L 192 0 
L 2688 0 
L 3040 877 
z
" transform="scale(0.015625)"/>
        <path id="TeXGyreTermes-Regular-35" d="M 2803 4358 
L 2746 4403 
C 2650 4269 2586 4237 2451 4237 
L 1114 4237 
L 416 2720 
C 410 2707 410 2688 410 2688 
C 410 2656 435 2637 486 2637 
C 691 2637 947 2592 1210 2509 
C 1946 2272 2285 1875 2285 1242 
C 2285 627 1894 147 1395 147 
C 1267 147 1158 192 966 333 
C 762 480 614 544 480 544 
C 294 544 205 467 205 307 
C 205 64 506 -90 986 -90 
C 1523 -90 1984 83 2304 410 
C 2598 698 2733 1062 2733 1549 
C 2733 2010 2611 2304 2291 2624 
C 2010 2906 1645 3053 890 3187 
L 1158 3731 
L 2413 3731 
C 2515 3731 2541 3744 2560 3789 
L 2803 4358 
z
" transform="scale(0.015625)"/>
       </defs>
       <use xlink:href="#TeXGyreTermes-Regular-32"/>
       <use xlink:href="#TeXGyreTermes-Regular-35" transform="translate(49.999985 0)"/>
       <use xlink:href="#TeXGyreTermes-Regular-30" transform="translate(99.999969 0)"/>
      </g>
     </g>
    </g>
    <g id="xtick_3">
     <g id="line2d_5">
      <path d="M 240.65 266.245 
L 240.65 25.92 
" clip-path="url(#p3631f8561e)" style="fill: none; stroke: #b0b0b0; stroke-width: 0.8; stroke-linecap: square"/>
     </g>
     <g id="line2d_6">
      <g>
       <use xlink:href="#m4a2c6185dd" x="240.65" y="266.245" style="stroke: #000000; stroke-width: 0.8"/>
      </g>
     </g>
     <g id="text_3">
      <!-- 500 -->
      <g transform="translate(222.65 289.63625) scale(0.24 -0.24)">
       <use xlink:href="#TeXGyreTermes-Regular-35"/>
       <use xlink:href="#TeXGyreTermes-Regular-30" transform="translate(49.999985 0)"/>
       <use xlink:href="#TeXGyreTermes-Regular-30" transform="translate(99.999969 0)"/>
      </g>
     </g>
    </g>
    <g id="xtick_4">
     <g id="line2d_7">
      <path d="M 325.795 266.245 
L 325.795 25.92 
" clip-path="url(#p3631f8561e)" style="fill: none; stroke: #b0b0b0; stroke-width: 0.8; stroke-linecap: square"/>
     </g>
     <g id="line2d_8">
      <g>
       <use xlink:href="#m4a2c6185dd" x="325.795" y="266.245" style="stroke: #000000; stroke-width: 0.8"/>
      </g>
     </g>
     <g id="text_4">
      <!-- 750 -->
      <g transform="translate(307.795 289.63625) scale(0.24 -0.24)">
       <defs>
        <path id="TeXGyreTermes-Regular-37" d="M 2874 4134 
L 2874 4237 
L 506 4237 
L 128 3296 
L 237 3245 
C 512 3680 627 3763 979 3763 
L 2368 3763 
L 1101 -51 
L 1517 -51 
L 2874 4134 
z
" transform="scale(0.015625)"/>
       </defs>
       <use xlink:href="#TeXGyreTermes-Regular-37"/>
       <use xlink:href="#TeXGyreTermes-Regular-35" transform="translate(49.999985 0)"/>
       <use xlink:href="#TeXGyreTermes-Regular-30" transform="translate(99.999969 0)"/>
      </g>
     </g>
    </g>
    <g id="xtick_5">
     <g id="line2d_9">
      <path d="M 410.94 266.245 
L 410.94 25.92 
" clip-path="url(#p3631f8561e)" style="fill: none; stroke: #b0b0b0; stroke-width: 0.8; stroke-linecap: square"/>
     </g>
     <g id="line2d_10">
      <g>
       <use xlink:href="#m4a2c6185dd" x="410.94" y="266.245" style="stroke: #000000; stroke-width: 0.8"/>
      </g>
     </g>
     <g id="text_5">
      <!-- 1000 -->
      <g transform="translate(386.94 289.63625) scale(0.24 -0.24)">
       <defs>
        <path id="TeXGyreTermes-Regular-31" d="M 2522 0 
L 2522 96 
C 2016 102 1914 166 1914 474 
L 1914 4314 
L 1862 4326 
L 710 3744 
L 710 3654 
C 787 3686 858 3712 883 3725 
C 998 3770 1107 3795 1171 3795 
C 1306 3795 1363 3699 1363 3494 
L 1363 595 
C 1363 384 1312 237 1210 179 
C 1114 122 1024 102 755 96 
L 755 0 
L 2522 0 
z
" transform="scale(0.015625)"/>
       </defs>
       <use xlink:href="#TeXGyreTermes-Regular-31"/>
       <use xlink:href="#TeXGyreTermes-Regular-30" transform="translate(49.999985 0)"/>
       <use xlink:href="#TeXGyreTermes-Regular-30" transform="translate(99.999969 0)"/>
       <use xlink:href="#TeXGyreTermes-Regular-30" transform="translate(149.999954 0)"/>
      </g>
     </g>
    </g>
    <g id="text_6">
     <!-- Schritt k -->
     <g transform="translate(199.6475 315.23625) scale(0.24 -0.24)">
      <defs>
       <path id="TeXGyreTermes-Regular-53" d="M 3142 1075 
C 3142 1606 2790 2016 1946 2477 
C 1274 2842 1005 3123 1005 3475 
C 1005 3827 1274 4064 1670 4064 
C 1958 4064 2227 3942 2451 3712 
C 2650 3507 2739 3341 2842 2963 
L 3002 2963 
L 2861 4326 
L 2726 4326 
C 2701 4186 2630 4109 2522 4109 
C 2458 4109 2355 4134 2240 4186 
C 2003 4275 1773 4326 1549 4326 
C 1299 4326 1030 4224 826 4058 
C 576 3853 454 3578 454 3226 
C 454 2720 736 2362 1453 1984 
C 1914 1734 2246 1478 2406 1235 
C 2464 1146 2496 1018 2496 858 
C 2496 435 2176 141 1709 141 
C 1133 141 736 493 416 1274 
L 269 1274 
L 461 -83 
L 602 -83 
C 608 38 685 128 781 128 
C 851 128 960 102 1082 58 
C 1325 -38 1581 -90 1837 -90 
C 2579 -90 3142 416 3142 1075 
z
" transform="scale(0.015625)"/>
       <path id="TeXGyreTermes-Regular-63" d="M 2637 941 
L 2547 998 
C 2240 550 2010 397 1645 397 
C 1056 397 653 909 653 1645 
C 653 2310 1005 2758 1523 2758 
C 1754 2758 1837 2688 1901 2451 
L 1939 2310 
C 1990 2125 2106 2016 2246 2016 
C 2413 2016 2547 2138 2547 2285 
C 2547 2643 2099 2944 1562 2944 
C 1261 2944 954 2829 698 2618 
C 352 2330 160 1888 160 1357 
C 160 531 666 -64 1376 -64 
C 1651 -64 1894 26 2112 205 
C 2304 358 2432 544 2637 941 
z
" transform="scale(0.015625)"/>
       <path id="TeXGyreTermes-Regular-68" d="M 3117 0 
L 3117 96 
C 2771 160 2733 211 2733 653 
L 2733 1926 
C 2733 2598 2464 2944 1946 2944 
C 1568 2944 1299 2790 1005 2406 
L 1005 4352 
L 973 4371 
C 755 4294 595 4243 237 4141 
L 64 4090 
L 64 3987 
C 90 3994 109 3994 141 3994 
C 416 3994 467 3942 467 3667 
L 467 653 
C 467 205 429 147 58 96 
L 58 0 
L 1440 0 
L 1440 96 
C 1069 134 1005 211 1005 653 
L 1005 2195 
C 1274 2490 1466 2598 1715 2598 
C 2035 2598 2195 2368 2195 1920 
L 2195 653 
C 2195 218 2131 134 1760 96 
L 1760 0 
L 3117 0 
z
" transform="scale(0.015625)"/>
       <path id="TeXGyreTermes-Regular-72" d="M 2144 2605 
C 2144 2816 2010 2944 1792 2944 
C 1523 2944 1338 2797 1024 2342 
L 1024 2931 
L 992 2944 
C 653 2803 422 2720 45 2598 
L 45 2496 
C 134 2515 192 2522 269 2522 
C 429 2522 486 2419 486 2138 
L 486 538 
C 486 218 442 173 32 96 
L 32 0 
L 1568 0 
L 1568 96 
C 1133 115 1024 211 1024 576 
L 1024 2016 
C 1024 2221 1299 2541 1472 2541 
C 1510 2541 1568 2509 1638 2445 
C 1741 2355 1811 2317 1894 2317 
C 2048 2317 2144 2426 2144 2605 
z
" transform="scale(0.015625)"/>
       <path id="TeXGyreTermes-Regular-69" d="M 1619 0 
L 1619 96 
C 1197 128 1146 192 1146 653 
L 1146 2925 
L 1120 2944 
L 128 2592 
L 128 2496 
L 179 2502 
C 256 2515 339 2522 397 2522 
C 550 2522 608 2419 608 2138 
L 608 653 
C 608 192 544 122 102 96 
L 102 0 
L 1619 0 
z
M 1203 3776 
C 1203 3955 1062 4102 877 4102 
C 698 4102 550 3955 550 3776 
C 550 3590 698 3450 877 3450 
C 1062 3450 1203 3590 1203 3776 
z
" transform="scale(0.015625)"/>
       <path id="TeXGyreTermes-Regular-74" d="M 1786 422 
L 1702 493 
C 1562 326 1459 269 1318 269 
C 1082 269 986 435 986 845 
L 986 2675 
L 1632 2675 
L 1632 2880 
L 986 2880 
L 986 3622 
C 986 3686 973 3706 941 3706 
C 902 3642 858 3584 813 3526 
C 576 3174 358 2938 192 2842 
C 122 2797 83 2758 83 2720 
C 83 2701 90 2688 109 2675 
L 448 2675 
L 448 749 
C 448 211 640 -64 1011 -64 
C 1331 -64 1574 90 1786 422 
z
" transform="scale(0.015625)"/>
       <path id="TeXGyreTermes-Regular-20" transform="scale(0.015625)"/>
       <path id="TeXGyreTermes-Regular-6b" d="M 3232 0 
L 3232 96 
C 2950 115 2752 237 2483 563 
L 1504 1805 
L 1690 1978 
C 2144 2400 2541 2694 2726 2746 
C 2822 2771 2912 2784 3021 2784 
L 3072 2784 
L 3072 2880 
L 1766 2880 
L 1766 2790 
C 2016 2784 2086 2758 2086 2669 
C 2086 2618 2029 2528 1939 2451 
L 1062 1670 
L 1062 4358 
L 1037 4371 
L 237 4141 
L 45 4090 
L 45 3987 
C 128 3994 186 4000 250 4000 
C 461 4000 525 3917 525 3610 
L 525 525 
C 525 192 506 173 45 96 
L 45 0 
L 1542 0 
L 1542 96 
L 1414 102 
C 1158 115 1062 205 1062 429 
L 1062 1606 
L 1958 410 
L 1978 384 
C 1990 365 2003 346 2022 326 
C 2074 262 2093 224 2093 192 
C 2093 134 2035 96 1958 96 
L 1837 96 
L 1837 0 
L 3232 0 
z
" transform="scale(0.015625)"/>
      </defs>
      <use xlink:href="#TeXGyreTermes-Regular-53"/>
      <use xlink:href="#TeXGyreTermes-Regular-63" transform="translate(55.599991 0)"/>
      <use xlink:href="#TeXGyreTermes-Regular-68" transform="translate(99.999985 0)"/>
      <use xlink:href="#TeXGyreTermes-Regular-72" transform="translate(149.999969 0)"/>
      <use xlink:href="#TeXGyreTermes-Regular-69" transform="translate(183.299957 0)"/>
      <use xlink:href="#TeXGyreTermes-Regular-74" transform="translate(211.099945 0)"/>
      <use xlink:href="#TeXGyreTermes-Regular-74" transform="translate(238.899933 0)"/>
      <use xlink:href="#TeXGyreTermes-Regular-20" transform="translate(266.699921 0)"/>
      <use xlink:href="#TeXGyreTermes-Regular-6b" transform="translate(291.699905 0)"/>
     </g>
    </g>
   </g>
   <g id="matplotlib.axis_2">
    <g id="ytick_1">
     <g id="line2d_11">
      <path d="M 70.36 253.964951 
L 410.94 253.964951 
" clip-path="url(#p3631f8561e)" style="fill: none; stroke: #b0b0b0; stroke-width: 0.8; stroke-linecap: square"/>
     </g>
     <g id="line2d_12">
      <defs>
       <path id="mc3d4fe648a" d="M 0 0 
L -3.5 0 
" style="stroke: #000000; stroke-width: 0.8"/>
      </defs>
      <g>
       <use xlink:href="#mc3d4fe648a" x="70.36" y="253.964951" style="stroke: #000000; stroke-width: 0.8"/>
      </g>
     </g>
     <g id="text_7">
      <!-- −20 -->
      <g transform="translate(25.8225 262.160576) scale(0.24 -0.24)">
       <defs>
        <path id="TeXGyreTermes-Regular-2212" d="M 3354 1389 
L 3354 1811 
L 256 1811 
L 256 1389 
L 3354 1389 
z
" transform="scale(0.015625)"/>
       </defs>
       <use xlink:href="#TeXGyreTermes-Regular-2212"/>
       <use xlink:href="#TeXGyreTermes-Regular-32" transform="translate(56.399994 0)"/>
       <use xlink:href="#TeXGyreTermes-Regular-30" transform="translate(106.399979 0)"/>
      </g>
     </g>
    </g>
    <g id="ytick_2">
     <g id="line2d_13">
      <path d="M 70.36 201.935972 
L 410.94 201.935972 
" clip-path="url(#p3631f8561e)" style="fill: none; stroke: #b0b0b0; stroke-width: 0.8; stroke-linecap: square"/>
     </g>
     <g id="line2d_14">
      <g>
       <use xlink:href="#mc3d4fe648a" x="70.36" y="201.935972" style="stroke: #000000; stroke-width: 0.8"/>
      </g>
     </g>
     <g id="text_8">
      <!-- −10 -->
      <g transform="translate(25.8225 210.131597) scale(0.24 -0.24)">
       <use xlink:href="#TeXGyreTermes-Regular-2212"/>
       <use xlink:href="#TeXGyreTermes-Regular-31" transform="translate(56.399994 0)"/>
       <use xlink:href="#TeXGyreTermes-Regular-30" transform="translate(106.399979 0)"/>
      </g>
     </g>
    </g>
    <g id="ytick_3">
     <g id="line2d_15">
      <path d="M 70.36 149.906994 
L 410.94 149.906994 
" clip-path="url(#p3631f8561e)" style="fill: none; stroke: #b0b0b0; stroke-width: 0.8; stroke-linecap: square"/>
     </g>
     <g id="line2d_16">
      <g>
       <use xlink:href="#mc3d4fe648a" x="70.36" y="149.906994" style="stroke: #000000; stroke-width: 0.8"/>
      </g>
     </g>
     <g id="text_9">
      <!-- 0 -->
      <g transform="translate(51.36 158.102619) scale(0.24 -0.24)">
       <use xlink:href="#TeXGyreTermes-Regular-30"/>
      </g>
     </g>
    </g>
    <g id="ytick_4">
     <g id="line2d_17">
      <path d="M 70.36 97.878015 
L 410.94 97.878015 
" clip-path="url(#p3631f8561e)" style="fill: none; stroke: #b0b0b0; stroke-width: 0.8; stroke-linecap: square"/>
     </g>
     <g id="line2d_18">
      <g>
       <use xlink:href="#mc3d4fe648a" x="70.36" y="97.878015" style="stroke: #000000; stroke-width: 0.8"/>
      </g>
     </g>
     <g id="text_10">
      <!-- 10 -->
      <g transform="translate(39.36 106.07364) scale(0.24 -0.24)">
       <use xlink:href="#TeXGyreTermes-Regular-31"/>
       <use xlink:href="#TeXGyreTermes-Regular-30" transform="translate(49.999985 0)"/>
      </g>
     </g>
    </g>
    <g id="ytick_5">
     <g id="line2d_19">
      <path d="M 70.36 45.849037 
L 410.94 45.849037 
" clip-path="url(#p3631f8561e)" style="fill: none; stroke: #b0b0b0; stroke-width: 0.8; stroke-linecap: square"/>
     </g>
     <g id="line2d_20">
      <g>
       <use xlink:href="#mc3d4fe648a" x="70.36" y="45.849037" style="stroke: #000000; stroke-width: 0.8"/>
      </g>
     </g>
     <g id="text_11">
      <!-- 20 -->
      <g transform="translate(39.36 54.044662) scale(0.24 -0.24)">
       <use xlink:href="#TeXGyreTermes-Regular-32"/>
       <use xlink:href="#TeXGyreTermes-Regular-30" transform="translate(49.999985 0)"/>
      </g>
     </g>
    </g>
   </g>
   <g id="line2d_21">
    <path d="M 70.36 149.906994 
L 70.70058 153.528216 
L 71.04116 143.463449 
L 71.38174 144.88567 
L 71.72232 139.832754 
L 72.0629 139.60276 
L 72.40348 137.49805 
L 72.74406 140.606273 
L 73.08464 141.620999 
L 73.42522 145.639484 
L 73.7658 142.94864 
L 74.10638 138.292059 
L 74.44696 138.722297 
L 74.78754 138.862031 
L 75.12812 145.547842 
L 75.4687 147.169838 
L 75.80928 147.480047 
L 76.14986 160.666264 
L 76.83102 153.115113 
L 77.1716 161.175787 
L 77.51218 149.50334 
L 77.85276 153.780393 
L 78.19334 148.651851 
L 78.53392 154.531201 
L 78.8745 156.814462 
L 79.21508 148.910714 
L 79.89624 155.654858 
L 80.23682 146.771105 
L 80.5774 146.981354 
L 80.91798 148.162384 
L 81.25856 155.164793 
L 81.59914 159.133887 
L 81.93972 156.744373 
L 82.62088 161.539315 
L 82.96146 156.410207 
L 83.64262 152.816756 
L 83.9832 156.528505 
L 84.32378 173.481764 
L 84.66436 177.815333 
L 85.34552 176.034105 
L 85.6861 181.866166 
L 86.02668 180.980153 
L 86.36726 175.788918 
L 86.70784 179.48091 
L 87.04842 177.312302 
L 87.389 169.766763 
L 87.72958 177.61946 
L 88.07016 181.532132 
L 88.41074 182.99153 
L 88.75132 186.163877 
L 89.0919 183.721932 
L 89.43248 185.633789 
L 89.77306 190.543158 
L 90.11364 190.140113 
L 90.45422 189.32505 
L 90.7948 188.21869 
L 91.13538 189.296918 
L 91.47596 194.423237 
L 91.81654 194.575443 
L 92.15712 187.468759 
L 92.4977 187.339173 
L 92.83828 191.797702 
L 93.17886 189.301715 
L 93.51944 175.116068 
L 93.86002 177.816792 
L 94.54118 187.955189 
L 94.88176 189.170433 
L 95.56292 200.453225 
L 95.9035 203.32595 
L 96.24408 204.107097 
L 96.58466 209.188296 
L 96.92524 216.297934 
L 97.26582 215.953167 
L 97.6064 224.623372 
L 97.94698 225.808603 
L 98.28756 216.255805 
L 98.62814 215.994857 
L 98.96872 218.267725 
L 99.3093 217.579531 
L 99.64988 214.913844 
L 100.33104 223.098436 
L 100.67162 222.387962 
L 101.0122 219.749723 
L 101.35278 219.696743 
L 101.69336 223.092268 
L 102.03394 221.124493 
L 102.37452 214.882683 
L 102.7151 211.378455 
L 103.05568 220.691695 
L 103.39626 218.051151 
L 104.07742 221.039229 
L 104.75858 222.406211 
L 105.78032 232.125263 
L 106.1209 232.934842 
L 106.46148 239.605353 
L 106.80206 237.917376 
L 107.14264 233.255227 
L 107.48322 233.547089 
L 107.8238 230.424175 
L 108.16438 223.278433 
L 108.50496 224.246969 
L 108.84554 232.295551 
L 109.18612 230.902242 
L 109.5267 222.428432 
L 109.86728 224.495614 
L 110.20786 221.719806 
L 110.54844 211.37564 
L 110.88902 211.295417 
L 111.57018 200.860986 
L 111.91076 200.711911 
L 112.25134 200.33262 
L 112.59192 195.186197 
L 112.9325 197.554032 
L 113.27308 194.058816 
L 113.61366 191.820056 
L 113.95424 200.093751 
L 114.29482 198.65574 
L 114.97598 206.694712 
L 115.65714 200.076985 
L 115.99772 198.00458 
L 116.3383 202.006794 
L 116.67888 204.505835 
L 117.01946 203.84801 
L 117.36004 212.378288 
L 118.0412 201.615172 
L 118.38178 203.117626 
L 118.72236 198.977181 
L 119.06294 199.077688 
L 119.40352 204.870814 
L 119.7441 204.130251 
L 120.08468 209.992877 
L 120.76584 191.273828 
L 121.10642 185.936103 
L 121.447 183.892097 
L 122.12816 168.999205 
L 122.46874 168.745751 
L 122.80932 166.433341 
L 123.49048 176.042132 
L 123.83106 176.394795 
L 124.17164 173.907255 
L 124.51222 174.125413 
L 124.8528 166.33985 
L 125.53396 162.813067 
L 125.87454 154.11761 
L 126.21512 148.980819 
L 126.5557 154.035735 
L 126.89628 154.081106 
L 127.23686 148.113531 
L 127.57744 144.237517 
L 127.91802 149.802394 
L 128.2586 147.856397 
L 128.59918 148.192704 
L 128.93976 147.045617 
L 129.62092 167.573421 
L 129.9615 160.857884 
L 130.30208 162.178516 
L 130.64266 160.230502 
L 130.98324 173.733808 
L 131.32382 176.969441 
L 131.6644 190.143339 
L 132.00498 195.959369 
L 132.34556 192.552262 
L 132.68614 192.283472 
L 133.02672 197.536558 
L 133.3673 196.454239 
L 133.70788 192.386316 
L 134.04846 201.836764 
L 134.38904 205.724179 
L 134.72962 204.49126 
L 135.0702 209.403785 
L 135.41078 204.965375 
L 135.75136 204.555525 
L 136.09194 210.129953 
L 136.43252 208.245221 
L 136.7731 204.967122 
L 137.11368 207.575035 
L 137.79484 214.203217 
L 138.13542 206.211925 
L 138.81658 202.930175 
L 139.15716 213.23001 
L 139.49774 204.046601 
L 139.83832 209.578085 
L 140.1789 203.988898 
L 140.51948 208.387044 
L 140.86006 202.736347 
L 141.20064 194.723699 
L 141.54122 192.861476 
L 141.8818 198.349139 
L 142.22238 195.496366 
L 142.56296 196.234817 
L 142.90354 188.460546 
L 143.24412 184.66366 
L 143.5847 187.367053 
L 143.92528 188.987583 
L 144.60644 181.295716 
L 144.94702 170.885671 
L 145.2876 173.994768 
L 145.62818 160.327682 
L 145.96876 160.914259 
L 146.30934 169.111211 
L 146.9905 159.735902 
L 147.33108 156.627918 
L 147.67166 161.60483 
L 148.35282 174.186963 
L 148.6934 188.519778 
L 149.03398 183.489977 
L 149.37456 188.568446 
L 149.71514 186.957593 
L 150.05572 189.897901 
L 150.3963 190.555039 
L 150.73688 190.707315 
L 151.07746 196.209533 
L 151.41804 195.858533 
L 151.75862 196.235934 
L 152.0992 192.47258 
L 152.43978 193.510119 
L 152.78036 194.904116 
L 153.12094 190.091484 
L 153.46152 189.985809 
L 153.8021 187.280179 
L 154.14268 187.55622 
L 154.48326 184.659891 
L 154.82384 179.165829 
L 155.16442 175.634017 
L 155.505 176.935673 
L 155.84558 174.895643 
L 156.52674 166.962235 
L 156.86732 166.053228 
L 157.54848 178.457836 
L 158.22964 172.569128 
L 158.57022 171.169995 
L 158.9108 179.173662 
L 159.25138 168.332502 
L 159.59196 173.730277 
L 159.93254 165.625223 
L 160.95428 154.324606 
L 161.29486 153.586276 
L 161.63544 142.873407 
L 161.97602 146.299735 
L 162.3166 143.267397 
L 162.65718 138.141709 
L 162.99776 137.024167 
L 163.33834 130.254638 
L 163.67892 135.902768 
L 164.0195 129.345728 
L 164.36008 129.406416 
L 164.70066 129.77965 
L 165.04124 126.965204 
L 165.38182 129.671807 
L 165.7224 130.018832 
L 166.40356 127.025262 
L 167.08472 130.96247 
L 167.4253 139.7855 
L 167.76588 131.410259 
L 168.10646 126.189124 
L 168.78762 144.591669 
L 169.1282 146.431418 
L 169.46878 144.439975 
L 169.80936 140.556822 
L 170.14994 150.000352 
L 170.49052 140.482794 
L 171.17168 157.80389 
L 171.51226 157.216319 
L 171.85284 153.450029 
L 172.19342 157.668273 
L 172.534 158.767591 
L 172.87458 159.46595 
L 173.21516 168.759474 
L 173.55574 159.937412 
L 173.89632 157.448503 
L 174.2369 160.402368 
L 174.57748 161.965585 
L 174.91806 157.486582 
L 175.25864 162.595893 
L 175.9398 167.619409 
L 176.28038 165.709729 
L 176.62096 165.787513 
L 176.96154 164.505266 
L 177.30212 167.242014 
L 177.6427 157.341736 
L 177.98328 158.002503 
L 178.32386 150.766437 
L 178.66444 147.671924 
L 179.00502 148.625333 
L 179.3456 155.324783 
L 179.68618 157.691331 
L 180.02676 155.461409 
L 180.36734 157.182873 
L 180.70792 157.905244 
L 181.0485 157.660701 
L 181.38908 163.126254 
L 182.07024 153.676445 
L 182.41082 151.799534 
L 182.7514 150.886489 
L 183.09198 145.016508 
L 183.43256 147.832396 
L 183.77314 148.932253 
L 184.4543 165.149001 
L 184.79488 163.249087 
L 185.13546 170.586603 
L 185.47604 169.303283 
L 185.81662 167.516284 
L 186.1572 162.909962 
L 186.49778 162.912178 
L 186.83836 158.351935 
L 187.17894 157.99153 
L 187.51952 152.633039 
L 187.8601 150.237212 
L 188.20068 152.193865 
L 188.54126 148.645705 
L 188.88184 155.26721 
L 189.22242 153.605087 
L 189.563 155.002941 
L 189.90358 172.497638 
L 190.24416 176.792247 
L 190.58474 179.479679 
L 190.92532 186.480159 
L 191.2659 184.215713 
L 191.60648 192.105028 
L 191.94706 180.711739 
L 192.28764 179.356536 
L 192.62822 187.550583 
L 193.30938 177.265317 
L 193.64996 181.772628 
L 193.99054 180.095045 
L 194.33112 179.069283 
L 194.6717 185.979415 
L 195.01228 181.754396 
L 195.35286 171.339262 
L 195.69344 165.170772 
L 196.03402 165.662063 
L 196.3746 178.15757 
L 196.71518 175.737806 
L 197.05576 175.284424 
L 197.73692 184.176632 
L 198.0775 172.164096 
L 198.41808 170.802504 
L 199.09924 176.052543 
L 199.43982 177.328472 
L 199.7804 175.567762 
L 200.46156 179.137792 
L 201.14272 190.933716 
L 201.4833 191.538701 
L 202.16446 181.340784 
L 202.50504 180.521037 
L 202.84562 179.059679 
L 203.1862 180.172765 
L 203.52678 186.601102 
L 203.86736 182.988827 
L 204.20794 181.327709 
L 204.54852 201.59912 
L 204.8891 195.965856 
L 205.22968 197.321613 
L 205.57026 197.413036 
L 205.91084 193.368674 
L 206.25142 206.536932 
L 206.592 203.935067 
L 206.93258 206.141791 
L 207.27316 200.670676 
L 207.61374 191.182353 
L 207.95432 184.85656 
L 208.2949 181.571735 
L 208.97606 199.92872 
L 209.31664 204.925399 
L 209.65722 205.728264 
L 209.9978 207.179336 
L 210.33838 204.31178 
L 210.67896 199.573332 
L 211.01954 199.577551 
L 211.36012 209.038577 
L 211.7007 210.20824 
L 212.04128 207.9587 
L 212.38186 209.74455 
L 212.72244 214.778929 
L 213.06302 211.151361 
L 213.4036 213.085163 
L 213.74418 211.130904 
L 214.08476 210.203767 
L 214.42534 205.298008 
L 214.76592 206.235023 
L 215.1065 208.94486 
L 215.44708 209.324733 
L 215.78766 201.421806 
L 216.12824 200.574579 
L 216.46882 202.837244 
L 216.8094 201.215142 
L 217.14998 206.261145 
L 217.49056 205.429191 
L 217.83114 206.520612 
L 218.17172 219.13082 
L 218.5123 213.912889 
L 218.85288 215.326045 
L 219.19346 213.772806 
L 219.53404 216.332993 
L 219.87462 211.054618 
L 220.2152 203.137955 
L 220.55578 205.665066 
L 220.89636 205.85789 
L 221.23694 205.596338 
L 221.57752 195.979685 
L 221.9181 193.907795 
L 222.25868 194.816072 
L 222.59926 191.417645 
L 222.93984 184.259861 
L 223.28042 179.592573 
L 223.621 186.022712 
L 223.96158 181.796302 
L 224.30216 165.202435 
L 224.64274 162.531343 
L 224.98332 158.718632 
L 225.3239 140.7522 
L 225.66448 133.857676 
L 226.00506 138.641788 
L 226.34564 141.563653 
L 226.68622 138.168537 
L 227.0268 141.764362 
L 227.36738 152.84348 
L 227.70796 159.665381 
L 228.04854 156.699924 
L 228.38912 160.595448 
L 228.7297 155.88849 
L 229.07028 158.990913 
L 229.41086 168.133442 
L 229.75144 167.454164 
L 230.09202 175.657855 
L 230.4326 188.650239 
L 231.11376 195.048731 
L 231.45434 202.010801 
L 231.79492 205.105931 
L 232.1355 199.028247 
L 232.47608 204.275726 
L 232.81666 192.917169 
L 233.15724 195.332614 
L 233.49782 190.728388 
L 233.8384 193.647264 
L 234.17898 191.392516 
L 234.51956 194.973117 
L 234.86014 195.255674 
L 235.20072 205.254825 
L 235.5413 207.523569 
L 235.88188 214.420327 
L 236.22246 218.359082 
L 236.56304 216.825502 
L 236.90362 209.351511 
L 237.2442 207.570218 
L 237.58478 216.343533 
L 237.92536 229.525167 
L 238.26594 235.421441 
L 238.60652 237.83857 
L 238.9471 246.792223 
L 239.28768 248.314297 
L 239.62826 252.488883 
L 239.96884 245.937527 
L 240.30942 250.181463 
L 240.65 250.244501 
L 240.99058 255.321136 
L 241.33116 248.708518 
L 241.67174 246.854476 
L 242.01232 249.996342 
L 242.69348 236.943265 
L 243.03406 238.909188 
L 243.37464 231.099191 
L 243.71522 236.64379 
L 244.0558 231.92181 
L 244.39638 220.598936 
L 245.07754 210.806155 
L 245.41812 210.204939 
L 246.09928 213.733463 
L 246.78044 200.833696 
L 247.12102 195.340142 
L 248.14276 205.781268 
L 248.48334 203.729051 
L 248.82392 208.848001 
L 249.1645 203.244564 
L 249.50508 207.902113 
L 249.84566 208.07923 
L 250.18624 202.670568 
L 250.52682 210.47209 
L 250.8674 206.075507 
L 251.20798 204.762011 
L 251.54856 202.131208 
L 251.88914 203.411901 
L 252.22972 201.394346 
L 252.5703 197.624538 
L 252.91088 190.899757 
L 253.25146 186.79584 
L 253.93262 196.285242 
L 254.2732 202.278005 
L 254.61378 202.136726 
L 254.95436 194.455008 
L 255.29494 195.731938 
L 255.63552 192.901144 
L 255.9761 183.217406 
L 256.31668 196.423579 
L 256.65726 194.35955 
L 256.99784 195.316144 
L 257.33842 190.516889 
L 257.679 195.647215 
L 258.01958 194.042969 
L 258.36016 193.900252 
L 258.70074 177.309659 
L 259.04132 185.319834 
L 259.3819 184.283326 
L 259.72248 188.912395 
L 260.06306 186.331177 
L 260.40364 174.390576 
L 260.74422 170.512989 
L 261.0848 169.434693 
L 261.42538 165.65554 
L 261.76596 168.942851 
L 262.10654 165.184613 
L 262.44712 164.520545 
L 263.12828 156.911544 
L 263.46886 161.128969 
L 263.80944 158.12724 
L 264.15002 151.353189 
L 264.4906 148.23601 
L 264.83118 147.671252 
L 265.17176 146.804531 
L 265.51234 140.989918 
L 265.85292 144.702528 
L 266.53408 138.659269 
L 267.21524 146.585672 
L 267.55582 155.919147 
L 267.8964 153.021986 
L 268.57756 138.185052 
L 268.91814 149.479389 
L 269.25872 155.232583 
L 269.5993 163.085615 
L 269.93988 159.292942 
L 270.28046 157.861154 
L 270.62104 158.371569 
L 270.96162 160.066083 
L 271.3022 159.415342 
L 271.64278 168.087326 
L 271.98336 164.728265 
L 272.32394 162.714726 
L 273.34568 130.859588 
L 273.68626 128.019041 
L 274.02684 128.700019 
L 274.36742 128.313198 
L 274.708 132.629582 
L 275.04858 134.111558 
L 275.38916 148.626706 
L 275.72974 148.274969 
L 276.07032 159.550144 
L 276.4109 163.547979 
L 277.09206 148.868106 
L 277.43264 151.87356 
L 278.1138 143.928336 
L 278.45438 148.261432 
L 278.79496 156.048472 
L 279.47612 145.934277 
L 279.8167 144.110195 
L 280.15728 133.761804 
L 280.49786 131.426989 
L 280.83844 131.931236 
L 281.17902 125.268536 
L 281.5196 134.702079 
L 281.86018 139.442925 
L 282.20076 139.046616 
L 282.54134 139.352063 
L 282.88192 150.219673 
L 283.2225 151.225337 
L 283.56308 153.826144 
L 283.90366 154.067532 
L 284.24424 165.21401 
L 284.58482 164.007987 
L 285.60656 154.592159 
L 285.94714 145.517552 
L 286.28772 146.879814 
L 286.6283 150.543563 
L 286.96888 145.862253 
L 287.30946 148.361344 
L 287.65004 147.822967 
L 287.99062 144.608645 
L 288.3312 138.430963 
L 288.67178 142.542268 
L 289.01236 149.040105 
L 289.35294 150.14331 
L 289.69352 149.858456 
L 290.0341 152.320477 
L 290.37468 156.724627 
L 291.05584 145.926631 
L 291.39642 153.914646 
L 291.737 144.938555 
L 292.07758 150.343742 
L 292.75874 141.050194 
L 293.09932 139.363651 
L 293.4399 142.824844 
L 293.78048 154.188531 
L 294.12106 151.063921 
L 294.46164 144.910232 
L 294.80222 142.833141 
L 295.1428 138.584772 
L 295.48338 143.89926 
L 295.82396 141.657181 
L 296.16454 143.264123 
L 296.50512 149.699494 
L 297.18628 140.584865 
L 297.52686 130.410385 
L 297.86744 130.631652 
L 298.20802 129.690467 
L 298.5486 134.868617 
L 298.88918 134.592354 
L 299.57034 130.616918 
L 299.91092 131.511992 
L 300.2515 131.922491 
L 300.59208 139.79471 
L 300.93266 142.840903 
L 301.27324 142.103114 
L 301.61382 141.70474 
L 301.9544 141.516968 
L 302.63556 126.571607 
L 302.97614 133.160324 
L 303.31672 127.339615 
L 303.6573 132.072506 
L 304.67904 157.400726 
L 305.01962 154.100607 
L 305.3602 156.141374 
L 305.70078 140.303859 
L 306.04136 131.108696 
L 306.38194 132.065923 
L 306.72252 136.344553 
L 307.0631 133.522367 
L 307.40368 141.855428 
L 307.74426 139.604885 
L 308.08484 147.098313 
L 308.766 153.455568 
L 309.10658 152.652208 
L 309.44716 143.875458 
L 309.78774 145.695087 
L 310.12832 138.080215 
L 310.4689 144.214335 
L 310.80948 141.131346 
L 311.15006 147.277037 
L 311.49064 144.839486 
L 311.83122 136.287552 
L 312.1718 140.609052 
L 312.51238 135.713924 
L 312.85296 135.574929 
L 313.19354 133.698551 
L 313.53412 126.628889 
L 313.8747 135.162688 
L 314.21528 132.6529 
L 314.55586 137.033424 
L 314.89644 143.25722 
L 315.91818 124.54794 
L 316.25876 126.063033 
L 316.59934 122.837737 
L 316.93992 124.742728 
L 317.2805 137.583396 
L 317.62108 128.335635 
L 317.96166 124.813235 
L 318.30224 118.626003 
L 318.64282 122.549343 
L 318.9834 118.998115 
L 319.32398 124.118203 
L 319.66456 119.414318 
L 320.00514 124.037951 
L 320.34572 124.695061 
L 321.02688 134.521131 
L 321.36746 133.763199 
L 321.70804 137.950464 
L 322.04862 143.815192 
L 322.3892 137.388497 
L 322.72978 151.956908 
L 323.07036 152.977965 
L 323.41094 160.289232 
L 323.75152 155.110141 
L 324.0921 157.269248 
L 324.43268 157.997541 
L 325.11384 155.836048 
L 325.45442 152.786653 
L 325.795 141.232494 
L 326.13558 143.968495 
L 326.47616 142.387812 
L 326.81674 145.036956 
L 327.15732 145.122948 
L 327.4979 147.650136 
L 327.83848 147.185642 
L 328.17906 156.158203 
L 328.86022 138.566996 
L 329.2008 138.678216 
L 329.88196 150.628449 
L 330.22254 138.304392 
L 330.56312 137.173399 
L 330.9037 139.840503 
L 331.58486 130.980829 
L 331.92544 120.31355 
L 332.26602 119.704474 
L 332.6066 120.402676 
L 332.94718 125.469853 
L 333.28776 124.265171 
L 333.62834 129.47916 
L 333.96892 132.769726 
L 334.3095 132.638646 
L 334.65008 135.739761 
L 335.67182 123.417752 
L 336.0124 123.555769 
L 336.35298 114.801291 
L 336.69356 119.537806 
L 337.03414 114.363477 
L 337.37472 117.038278 
L 337.7153 109.949264 
L 338.05588 105.834275 
L 338.39646 116.314634 
L 339.07762 126.537371 
L 339.4182 121.649048 
L 340.09936 125.454661 
L 340.43994 119.894251 
L 340.78052 112.292391 
L 341.1211 109.148697 
L 341.46168 104.170916 
L 341.80226 105.457603 
L 342.14284 102.699623 
L 342.48342 106.388179 
L 342.824 97.102363 
L 343.16458 103.577089 
L 343.50516 105.191874 
L 343.84574 101.791003 
L 344.18632 101.316841 
L 344.5269 109.112213 
L 345.54864 108.017883 
L 345.88922 110.816302 
L 346.2298 102.894582 
L 346.57038 103.922298 
L 346.91096 109.274761 
L 347.25154 109.778336 
L 347.59212 109.091506 
L 347.9327 111.602017 
L 348.27328 121.403608 
L 348.61386 124.534151 
L 348.95444 117.590378 
L 349.29502 122.085007 
L 349.6356 114.74261 
L 349.97618 112.132517 
L 350.31676 113.237035 
L 350.65734 119.079257 
L 350.99792 130.268967 
L 351.3385 134.501537 
L 351.67908 140.725862 
L 352.01966 134.915244 
L 352.36024 140.257916 
L 352.70082 125.276848 
L 353.0414 124.817805 
L 353.38198 132.641404 
L 353.72256 136.133784 
L 354.06314 135.907736 
L 354.7443 124.464152 
L 355.08488 115.026433 
L 355.42546 115.861865 
L 356.10662 113.307769 
L 356.4472 105.014322 
L 356.78778 107.21136 
L 357.12836 114.887533 
L 357.46894 117.683376 
L 357.80952 125.013557 
L 358.1501 112.858144 
L 358.49068 112.290906 
L 358.83126 123.239734 
L 359.853 105.463716 
L 360.19358 111.894806 
L 360.53416 115.005705 
L 360.87474 109.524656 
L 361.21532 109.020608 
L 361.5559 108.094746 
L 361.89648 106.357913 
L 362.23706 98.71752 
L 363.2588 84.479189 
L 363.59938 90.066504 
L 363.93996 92.424753 
L 364.28054 93.095832 
L 364.62112 92.122947 
L 364.9617 96.325244 
L 365.30228 96.427296 
L 365.64286 96.32796 
L 365.98344 99.751822 
L 366.32402 109.094145 
L 366.6646 103.588158 
L 367.00518 102.903638 
L 367.34576 90.005032 
L 367.68634 89.822497 
L 368.02692 91.26979 
L 368.3675 94.983134 
L 368.70808 102.86714 
L 369.38924 98.579027 
L 369.72982 94.849552 
L 370.0704 105.614465 
L 370.41098 102.410203 
L 370.75156 106.244243 
L 371.09214 112.704619 
L 371.43272 112.015109 
L 371.7733 110.424482 
L 372.11388 116.05489 
L 372.45446 111.93021 
L 372.79504 112.231315 
L 373.13562 106.478191 
L 373.4762 104.298972 
L 373.81678 106.054056 
L 374.15736 106.202007 
L 374.83852 103.683916 
L 375.1791 108.413594 
L 375.51968 110.028902 
L 375.86026 109.278302 
L 376.20084 114.65395 
L 376.54142 114.858265 
L 376.882 115.33551 
L 377.22258 114.424161 
L 377.56316 113.155079 
L 377.90374 103.292403 
L 378.5849 112.739016 
L 378.92548 112.289924 
L 379.26606 119.675152 
L 379.60664 114.566464 
L 379.94722 112.826413 
L 380.2878 109.280841 
L 380.62838 110.404801 
L 380.96896 111.038526 
L 381.30954 109.670954 
L 381.65012 101.892041 
L 381.9907 99.975008 
L 382.33128 96.220182 
L 382.67186 93.898003 
L 383.01244 90.557145 
L 383.35302 81.244037 
L 383.6936 65.858783 
L 384.03418 64.537596 
L 384.37476 54.157582 
L 384.71534 52.997368 
L 385.05592 52.837393 
L 385.3965 39.005028 
L 385.73708 37.579982 
L 386.07766 52.663277 
L 386.75882 59.737509 
L 387.0994 62.578577 
L 387.43998 62.153954 
L 387.78056 62.93501 
L 388.12114 64.278057 
L 388.46172 66.722354 
L 388.8023 74.761447 
L 389.14288 73.02566 
L 389.82404 82.090085 
L 390.5052 67.911924 
L 390.84578 66.937851 
L 391.18636 57.36781 
L 391.52694 63.749138 
L 391.86752 64.713685 
L 392.2081 64.790542 
L 392.54868 56.838749 
L 392.88926 59.72413 
L 393.22984 56.330829 
L 393.57042 67.880956 
L 393.911 66.754604 
L 394.25158 68.421738 
L 394.59216 67.327441 
L 394.93274 64.806233 
L 395.27332 55.633962 
L 395.6139 53.073188 
L 395.95448 46.352108 
L 396.29506 46.182052 
L 396.63564 46.435122 
L 396.97622 47.876976 
L 397.3168 43.895627 
L 397.65738 41.414442 
L 397.99796 40.678579 
L 398.33854 42.921003 
L 398.67912 36.843864 
L 399.0197 42.666183 
L 399.36028 43.51069 
L 399.70086 46.693184 
L 400.04144 43.967728 
L 400.7226 54.059649 
L 401.06318 45.144799 
L 401.40376 43.640191 
L 401.74434 50.115662 
L 402.08492 50.448431 
L 402.4255 48.800004 
L 402.76608 48.814951 
L 403.10666 51.438556 
L 403.44724 61.051995 
L 403.78782 56.923846 
L 404.1284 67.486842 
L 404.46898 63.319057 
L 404.80956 65.476131 
L 405.15014 63.727679 
L 405.49072 60.569259 
L 405.8313 61.438692 
L 406.17188 64.768658 
L 406.51246 61.785617 
L 406.85304 69.097469 
L 407.19362 72.603884 
L 407.5342 74.106509 
L 407.87478 68.659042 
L 408.55594 77.393301 
L 408.89652 71.673867 
L 409.57768 66.835001 
L 409.91826 68.201664 
L 410.25884 63.025827 
L 410.59942 73.250416 
L 410.59942 73.250416 
" clip-path="url(#p3631f8561e)" style="fill: none; stroke: #1f77b4; stroke-width: 2; stroke-linecap: square"/>
   </g>
   <g id="patch_3">
    <path d="M 70.36 266.245 
L 70.36 25.92 
" style="fill: none; stroke: #000000; stroke-width: 0.8; stroke-linejoin: miter; stroke-linecap: square"/>
   </g>
   <g id="patch_4">
    <path d="M 410.94 266.245 
L 410.94 25.92 
" style="fill: none; stroke: #000000; stroke-width: 0.8; stroke-linejoin: miter; stroke-linecap: square"/>
   </g>
   <g id="patch_5">
    <path d="M 70.36 266.245 
L 410.94 266.245 
" style="fill: none; stroke: #000000; stroke-width: 0.8; stroke-linejoin: miter; stroke-linecap: square"/>
   </g>
   <g id="patch_6">
    <path d="M 70.36 25.92 
L 410.94 25.92 
" style="fill: none; stroke: #000000; stroke-width: 0.8; stroke-linejoin: miter; stroke-linecap: square"/>
   </g>
  </g>
 </g>
 <defs>
  <clipPath id="p3631f8561e">
   <rect x="70.36" y="25.92" width="340.58" height="240.325"/>
  </clipPath>
 </defs>
</svg>
