<?xml version="1.0" encoding="utf-8" standalone="no"?>
<!DOCTYPE svg PUBLIC "-//W3C//DTD SVG 1.1//EN"
  "http://www.w3.org/Graphics/SVG/1.1/DTD/svg11.dtd">
<svg xmlns:xlink="http://www.w3.org/1999/xlink" width="460.8pt" height="345.6pt" viewBox="0 0 460.8 345.6" xmlns="http://www.w3.org/2000/svg" version="1.1">
 <metadata>
  <rdf:RDF xmlns:dc="http://purl.org/dc/elements/1.1/" xmlns:cc="http://creativecommons.org/ns#" xmlns:rdf="http://www.w3.org/1999/02/22-rdf-syntax-ns#">
   <cc:Work>
    <dc:type rdf:resource="http://purl.org/dc/dcmitype/StillImage"/>
    <dc:date>2025-11-24T22:56:21.260841</dc:date>
    <dc:format>image/svg+xml</dc:format>
    <dc:creator>
     <cc:Agent>
      <dc:title>Matplotlib v3.10.6, https://matplotlib.org/</dc:title>
     </cc:Agent>
    </dc:creator>
   </cc:Work>
  </rdf:RDF>
 </metadata>
 <defs>
  <style type="text/css">*{stroke-linejoin: round; stroke-linecap: butt}</style>
 </defs>
 <g id="figure_1">
  <g id="patch_1">
   <path d="M 0 345.6 
L 460.8 345.6 
L 460.8 0 
L 0 0 
z
" style="fill: #ffffff"/>
  </g>
  <g id="axes_1">
   <g id="patch_2">
    <path d="M 57.6 307.584 
L 414.72 307.584 
L 414.72 41.472 
L 57.6 41.472 
z
" style="fill: #ffffff"/>
   </g>
   <g id="matplotlib.axis_1">
    <g id="xtick_1">
     <g id="line2d_1">
      <defs>
       <path id="m22e5fb1fcc" d="M 0 0 
L 0 3.5 
" style="stroke: #000000; stroke-width: 0.8"/>
      </defs>
      <g>
       <use xlink:href="#m22e5fb1fcc" x="73.832727" y="307.584" style="stroke: #000000; stroke-width: 0.8"/>
      </g>
     </g>
     <g id="text_1">
      <!-- 0 -->
      <g transform="translate(70.651477 322.182437) scale(0.1 -0.1)">
       <defs>
        <path id="DejaVuSans-30" d="M 2034 4250 
Q 1547 4250 1301 3770 
Q 1056 3291 1056 2328 
Q 1056 1369 1301 889 
Q 1547 409 2034 409 
Q 2525 409 2770 889 
Q 3016 1369 3016 2328 
Q 3016 3291 2770 3770 
Q 2525 4250 2034 4250 
z
M 2034 4750 
Q 2819 4750 3233 4129 
Q 3647 3509 3647 2328 
Q 3647 1150 3233 529 
Q 2819 -91 2034 -91 
Q 1250 -91 836 529 
Q 422 1150 422 2328 
Q 422 3509 836 4129 
Q 1250 4750 2034 4750 
z
" transform="scale(0.015625)"/>
       </defs>
       <use xlink:href="#DejaVuSans-30"/>
      </g>
     </g>
    </g>
    <g id="xtick_2">
     <g id="line2d_2">
      <g>
       <use xlink:href="#m22e5fb1fcc" x="138.828632" y="307.584" style="stroke: #000000; stroke-width: 0.8"/>
      </g>
     </g>
     <g id="text_2">
      <!-- 200 -->
      <g transform="translate(129.284882 322.182437) scale(0.1 -0.1)">
       <defs>
        <path id="DejaVuSans-32" d="M 1228 531 
L 3431 531 
L 3431 0 
L 469 0 
L 469 531 
Q 828 903 1448 1529 
Q 2069 2156 2228 2338 
Q 2531 2678 2651 2914 
Q 2772 3150 2772 3378 
Q 2772 3750 2511 3984 
Q 2250 4219 1831 4219 
Q 1534 4219 1204 4116 
Q 875 4013 500 3803 
L 500 4441 
Q 881 4594 1212 4672 
Q 1544 4750 1819 4750 
Q 2544 4750 2975 4387 
Q 3406 4025 3406 3419 
Q 3406 3131 3298 2873 
Q 3191 2616 2906 2266 
Q 2828 2175 2409 1742 
Q 1991 1309 1228 531 
z
" transform="scale(0.015625)"/>
       </defs>
       <use xlink:href="#DejaVuSans-32"/>
       <use xlink:href="#DejaVuSans-30" transform="translate(63.623047 0)"/>
       <use xlink:href="#DejaVuSans-30" transform="translate(127.246094 0)"/>
      </g>
     </g>
    </g>
    <g id="xtick_3">
     <g id="line2d_3">
      <g>
       <use xlink:href="#m22e5fb1fcc" x="203.824537" y="307.584" style="stroke: #000000; stroke-width: 0.8"/>
      </g>
     </g>
     <g id="text_3">
      <!-- 400 -->
      <g transform="translate(194.280787 322.182437) scale(0.1 -0.1)">
       <defs>
        <path id="DejaVuSans-34" d="M 2419 4116 
L 825 1625 
L 2419 1625 
L 2419 4116 
z
M 2253 4666 
L 3047 4666 
L 3047 1625 
L 3713 1625 
L 3713 1100 
L 3047 1100 
L 3047 0 
L 2419 0 
L 2419 1100 
L 313 1100 
L 313 1709 
L 2253 4666 
z
" transform="scale(0.015625)"/>
       </defs>
       <use xlink:href="#DejaVuSans-34"/>
       <use xlink:href="#DejaVuSans-30" transform="translate(63.623047 0)"/>
       <use xlink:href="#DejaVuSans-30" transform="translate(127.246094 0)"/>
      </g>
     </g>
    </g>
    <g id="xtick_4">
     <g id="line2d_4">
      <g>
       <use xlink:href="#m22e5fb1fcc" x="268.820442" y="307.584" style="stroke: #000000; stroke-width: 0.8"/>
      </g>
     </g>
     <g id="text_4">
      <!-- 600 -->
      <g transform="translate(259.276692 322.182437) scale(0.1 -0.1)">
       <defs>
        <path id="DejaVuSans-36" d="M 2113 2584 
Q 1688 2584 1439 2293 
Q 1191 2003 1191 1497 
Q 1191 994 1439 701 
Q 1688 409 2113 409 
Q 2538 409 2786 701 
Q 3034 994 3034 1497 
Q 3034 2003 2786 2293 
Q 2538 2584 2113 2584 
z
M 3366 4563 
L 3366 3988 
Q 3128 4100 2886 4159 
Q 2644 4219 2406 4219 
Q 1781 4219 1451 3797 
Q 1122 3375 1075 2522 
Q 1259 2794 1537 2939 
Q 1816 3084 2150 3084 
Q 2853 3084 3261 2657 
Q 3669 2231 3669 1497 
Q 3669 778 3244 343 
Q 2819 -91 2113 -91 
Q 1303 -91 875 529 
Q 447 1150 447 2328 
Q 447 3434 972 4092 
Q 1497 4750 2381 4750 
Q 2619 4750 2861 4703 
Q 3103 4656 3366 4563 
z
" transform="scale(0.015625)"/>
       </defs>
       <use xlink:href="#DejaVuSans-36"/>
       <use xlink:href="#DejaVuSans-30" transform="translate(63.623047 0)"/>
       <use xlink:href="#DejaVuSans-30" transform="translate(127.246094 0)"/>
      </g>
     </g>
    </g>
    <g id="xtick_5">
     <g id="line2d_5">
      <g>
       <use xlink:href="#m22e5fb1fcc" x="333.816347" y="307.584" style="stroke: #000000; stroke-width: 0.8"/>
      </g>
     </g>
     <g id="text_5">
      <!-- 800 -->
      <g transform="translate(324.272597 322.182437) scale(0.1 -0.1)">
       <defs>
        <path id="DejaVuSans-38" d="M 2034 2216 
Q 1584 2216 1326 1975 
Q 1069 1734 1069 1313 
Q 1069 891 1326 650 
Q 1584 409 2034 409 
Q 2484 409 2743 651 
Q 3003 894 3003 1313 
Q 3003 1734 2745 1975 
Q 2488 2216 2034 2216 
z
M 1403 2484 
Q 997 2584 770 2862 
Q 544 3141 544 3541 
Q 544 4100 942 4425 
Q 1341 4750 2034 4750 
Q 2731 4750 3128 4425 
Q 3525 4100 3525 3541 
Q 3525 3141 3298 2862 
Q 3072 2584 2669 2484 
Q 3125 2378 3379 2068 
Q 3634 1759 3634 1313 
Q 3634 634 3220 271 
Q 2806 -91 2034 -91 
Q 1263 -91 848 271 
Q 434 634 434 1313 
Q 434 1759 690 2068 
Q 947 2378 1403 2484 
z
M 1172 3481 
Q 1172 3119 1398 2916 
Q 1625 2713 2034 2713 
Q 2441 2713 2670 2916 
Q 2900 3119 2900 3481 
Q 2900 3844 2670 4047 
Q 2441 4250 2034 4250 
Q 1625 4250 1398 4047 
Q 1172 3844 1172 3481 
z
" transform="scale(0.015625)"/>
       </defs>
       <use xlink:href="#DejaVuSans-38"/>
       <use xlink:href="#DejaVuSans-30" transform="translate(63.623047 0)"/>
       <use xlink:href="#DejaVuSans-30" transform="translate(127.246094 0)"/>
      </g>
     </g>
    </g>
    <g id="xtick_6">
     <g id="line2d_6">
      <g>
       <use xlink:href="#m22e5fb1fcc" x="398.812252" y="307.584" style="stroke: #000000; stroke-width: 0.8"/>
      </g>
     </g>
     <g id="text_6">
      <!-- 1000 -->
      <g transform="translate(386.087252 322.182437) scale(0.1 -0.1)">
       <defs>
        <path id="DejaVuSans-31" d="M 794 531 
L 1825 531 
L 1825 4091 
L 703 3866 
L 703 4441 
L 1819 4666 
L 2450 4666 
L 2450 531 
L 3481 531 
L 3481 0 
L 794 0 
L 794 531 
z
" transform="scale(0.015625)"/>
       </defs>
       <use xlink:href="#DejaVuSans-31"/>
       <use xlink:href="#DejaVuSans-30" transform="translate(63.623047 0)"/>
       <use xlink:href="#DejaVuSans-30" transform="translate(127.246094 0)"/>
       <use xlink:href="#DejaVuSans-30" transform="translate(190.869141 0)"/>
      </g>
     </g>
    </g>
    <g id="text_7">
     <!-- Schritt k -->
     <g transform="translate(215.218594 335.860562) scale(0.1 -0.1)">
      <defs>
       <path id="DejaVuSans-53" d="M 3425 4513 
L 3425 3897 
Q 3066 4069 2747 4153 
Q 2428 4238 2131 4238 
Q 1616 4238 1336 4038 
Q 1056 3838 1056 3469 
Q 1056 3159 1242 3001 
Q 1428 2844 1947 2747 
L 2328 2669 
Q 3034 2534 3370 2195 
Q 3706 1856 3706 1288 
Q 3706 609 3251 259 
Q 2797 -91 1919 -91 
Q 1588 -91 1214 -16 
Q 841 59 441 206 
L 441 856 
Q 825 641 1194 531 
Q 1563 422 1919 422 
Q 2459 422 2753 634 
Q 3047 847 3047 1241 
Q 3047 1584 2836 1778 
Q 2625 1972 2144 2069 
L 1759 2144 
Q 1053 2284 737 2584 
Q 422 2884 422 3419 
Q 422 4038 858 4394 
Q 1294 4750 2059 4750 
Q 2388 4750 2728 4690 
Q 3069 4631 3425 4513 
z
" transform="scale(0.015625)"/>
       <path id="DejaVuSans-63" d="M 3122 3366 
L 3122 2828 
Q 2878 2963 2633 3030 
Q 2388 3097 2138 3097 
Q 1578 3097 1268 2742 
Q 959 2388 959 1747 
Q 959 1106 1268 751 
Q 1578 397 2138 397 
Q 2388 397 2633 464 
Q 2878 531 3122 666 
L 3122 134 
Q 2881 22 2623 -34 
Q 2366 -91 2075 -91 
Q 1284 -91 818 406 
Q 353 903 353 1747 
Q 353 2603 823 3093 
Q 1294 3584 2113 3584 
Q 2378 3584 2631 3529 
Q 2884 3475 3122 3366 
z
" transform="scale(0.015625)"/>
       <path id="DejaVuSans-68" d="M 3513 2113 
L 3513 0 
L 2938 0 
L 2938 2094 
Q 2938 2591 2744 2837 
Q 2550 3084 2163 3084 
Q 1697 3084 1428 2787 
Q 1159 2491 1159 1978 
L 1159 0 
L 581 0 
L 581 4863 
L 1159 4863 
L 1159 2956 
Q 1366 3272 1645 3428 
Q 1925 3584 2291 3584 
Q 2894 3584 3203 3211 
Q 3513 2838 3513 2113 
z
" transform="scale(0.015625)"/>
       <path id="DejaVuSans-72" d="M 2631 2963 
Q 2534 3019 2420 3045 
Q 2306 3072 2169 3072 
Q 1681 3072 1420 2755 
Q 1159 2438 1159 1844 
L 1159 0 
L 581 0 
L 581 3500 
L 1159 3500 
L 1159 2956 
Q 1341 3275 1631 3429 
Q 1922 3584 2338 3584 
Q 2397 3584 2469 3576 
Q 2541 3569 2628 3553 
L 2631 2963 
z
" transform="scale(0.015625)"/>
       <path id="DejaVuSans-69" d="M 603 3500 
L 1178 3500 
L 1178 0 
L 603 0 
L 603 3500 
z
M 603 4863 
L 1178 4863 
L 1178 4134 
L 603 4134 
L 603 4863 
z
" transform="scale(0.015625)"/>
       <path id="DejaVuSans-74" d="M 1172 4494 
L 1172 3500 
L 2356 3500 
L 2356 3053 
L 1172 3053 
L 1172 1153 
Q 1172 725 1289 603 
Q 1406 481 1766 481 
L 2356 481 
L 2356 0 
L 1766 0 
Q 1100 0 847 248 
Q 594 497 594 1153 
L 594 3053 
L 172 3053 
L 172 3500 
L 594 3500 
L 594 4494 
L 1172 4494 
z
" transform="scale(0.015625)"/>
       <path id="DejaVuSans-20" transform="scale(0.015625)"/>
       <path id="DejaVuSans-6b" d="M 581 4863 
L 1159 4863 
L 1159 1991 
L 2875 3500 
L 3609 3500 
L 1753 1863 
L 3688 0 
L 2938 0 
L 1159 1709 
L 1159 0 
L 581 0 
L 581 4863 
z
" transform="scale(0.015625)"/>
      </defs>
      <use xlink:href="#DejaVuSans-53"/>
      <use xlink:href="#DejaVuSans-63" transform="translate(63.476562 0)"/>
      <use xlink:href="#DejaVuSans-68" transform="translate(118.457031 0)"/>
      <use xlink:href="#DejaVuSans-72" transform="translate(181.835938 0)"/>
      <use xlink:href="#DejaVuSans-69" transform="translate(222.949219 0)"/>
      <use xlink:href="#DejaVuSans-74" transform="translate(250.732422 0)"/>
      <use xlink:href="#DejaVuSans-74" transform="translate(289.941406 0)"/>
      <use xlink:href="#DejaVuSans-20" transform="translate(329.150391 0)"/>
      <use xlink:href="#DejaVuSans-6b" transform="translate(360.9375 0)"/>
     </g>
    </g>
   </g>
   <g id="matplotlib.axis_2">
    <g id="ytick_1">
     <g id="line2d_7">
      <defs>
       <path id="me64e103978" d="M 0 0 
L -3.5 0 
" style="stroke: #000000; stroke-width: 0.8"/>
      </defs>
      <g>
       <use xlink:href="#me64e103978" x="57.6" y="288.509993" style="stroke: #000000; stroke-width: 0.8"/>
      </g>
     </g>
     <g id="text_8">
      <!-- −2 -->
      <g transform="translate(35.857813 292.309212) scale(0.1 -0.1)">
       <defs>
        <path id="DejaVuSans-2212" d="M 678 2272 
L 4684 2272 
L 4684 1741 
L 678 1741 
L 678 2272 
z
" transform="scale(0.015625)"/>
       </defs>
       <use xlink:href="#DejaVuSans-2212"/>
       <use xlink:href="#DejaVuSans-32" transform="translate(83.789062 0)"/>
      </g>
     </g>
    </g>
    <g id="ytick_2">
     <g id="line2d_8">
      <g>
       <use xlink:href="#me64e103978" x="57.6" y="243.854693" style="stroke: #000000; stroke-width: 0.8"/>
      </g>
     </g>
     <g id="text_9">
      <!-- −1 -->
      <g transform="translate(35.857813 247.653911) scale(0.1 -0.1)">
       <use xlink:href="#DejaVuSans-2212"/>
       <use xlink:href="#DejaVuSans-31" transform="translate(83.789062 0)"/>
      </g>
     </g>
    </g>
    <g id="ytick_3">
     <g id="line2d_9">
      <g>
       <use xlink:href="#me64e103978" x="57.6" y="199.199392" style="stroke: #000000; stroke-width: 0.8"/>
      </g>
     </g>
     <g id="text_10">
      <!-- 0 -->
      <g transform="translate(44.2375 202.99861) scale(0.1 -0.1)">
       <use xlink:href="#DejaVuSans-30"/>
      </g>
     </g>
    </g>
    <g id="ytick_4">
     <g id="line2d_10">
      <g>
       <use xlink:href="#me64e103978" x="57.6" y="154.544091" style="stroke: #000000; stroke-width: 0.8"/>
      </g>
     </g>
     <g id="text_11">
      <!-- 1 -->
      <g transform="translate(44.2375 158.34331) scale(0.1 -0.1)">
       <use xlink:href="#DejaVuSans-31"/>
      </g>
     </g>
    </g>
    <g id="ytick_5">
     <g id="line2d_11">
      <g>
       <use xlink:href="#me64e103978" x="57.6" y="109.88879" style="stroke: #000000; stroke-width: 0.8"/>
      </g>
     </g>
     <g id="text_12">
      <!-- 2 -->
      <g transform="translate(44.2375 113.688009) scale(0.1 -0.1)">
       <use xlink:href="#DejaVuSans-32"/>
      </g>
     </g>
    </g>
    <g id="ytick_6">
     <g id="line2d_12">
      <g>
       <use xlink:href="#me64e103978" x="57.6" y="65.233489" style="stroke: #000000; stroke-width: 0.8"/>
      </g>
     </g>
     <g id="text_13">
      <!-- 3 -->
      <g transform="translate(44.2375 69.032708) scale(0.1 -0.1)">
       <defs>
        <path id="DejaVuSans-33" d="M 2597 2516 
Q 3050 2419 3304 2112 
Q 3559 1806 3559 1356 
Q 3559 666 3084 287 
Q 2609 -91 1734 -91 
Q 1441 -91 1130 -33 
Q 819 25 488 141 
L 488 750 
Q 750 597 1062 519 
Q 1375 441 1716 441 
Q 2309 441 2620 675 
Q 2931 909 2931 1356 
Q 2931 1769 2642 2001 
Q 2353 2234 1838 2234 
L 1294 2234 
L 1294 2753 
L 1863 2753 
Q 2328 2753 2575 2939 
Q 2822 3125 2822 3475 
Q 2822 3834 2567 4026 
Q 2313 4219 1838 4219 
Q 1578 4219 1281 4162 
Q 984 4106 628 3988 
L 628 4550 
Q 988 4650 1302 4700 
Q 1616 4750 1894 4750 
Q 2613 4750 3031 4423 
Q 3450 4097 3450 3541 
Q 3450 3153 3228 2886 
Q 3006 2619 2597 2516 
z
" transform="scale(0.015625)"/>
       </defs>
       <use xlink:href="#DejaVuSans-33"/>
      </g>
     </g>
    </g>
    <g id="text_14">
     <!-- x(k) -->
     <g transform="translate(29.778125 184.28425) rotate(-90) scale(0.1 -0.1)">
      <defs>
       <path id="DejaVuSans-78" d="M 3513 3500 
L 2247 1797 
L 3578 0 
L 2900 0 
L 1881 1375 
L 863 0 
L 184 0 
L 1544 1831 
L 300 3500 
L 978 3500 
L 1906 2253 
L 2834 3500 
L 3513 3500 
z
" transform="scale(0.015625)"/>
       <path id="DejaVuSans-28" d="M 1984 4856 
Q 1566 4138 1362 3434 
Q 1159 2731 1159 2009 
Q 1159 1288 1364 580 
Q 1569 -128 1984 -844 
L 1484 -844 
Q 1016 -109 783 600 
Q 550 1309 550 2009 
Q 550 2706 781 3412 
Q 1013 4119 1484 4856 
L 1984 4856 
z
" transform="scale(0.015625)"/>
       <path id="DejaVuSans-29" d="M 513 4856 
L 1013 4856 
Q 1481 4119 1714 3412 
Q 1947 2706 1947 2009 
Q 1947 1309 1714 600 
Q 1481 -109 1013 -844 
L 513 -844 
Q 928 -128 1133 580 
Q 1338 1288 1338 2009 
Q 1338 2731 1133 3434 
Q 928 4138 513 4856 
z
" transform="scale(0.015625)"/>
      </defs>
      <use xlink:href="#DejaVuSans-78"/>
      <use xlink:href="#DejaVuSans-28" transform="translate(59.179688 0)"/>
      <use xlink:href="#DejaVuSans-6b" transform="translate(98.193359 0)"/>
      <use xlink:href="#DejaVuSans-29" transform="translate(156.103516 0)"/>
     </g>
    </g>
   </g>
   <g id="line2d_13">
    <path d="M 73.832727 172.670911 
L 74.157707 137.73582 
L 74.482686 153.608355 
L 74.807666 137.242689 
L 75.132645 190.219422 
L 75.457625 218.046059 
L 75.782604 148.23028 
L 76.107584 167.979243 
L 76.432563 172.928068 
L 76.757543 162.674337 
L 77.082523 186.462041 
L 77.407502 180.662486 
L 77.732482 158.107322 
L 78.057461 228.89256 
L 78.382441 143.40339 
L 78.70742 146.385194 
L 79.0324 191.334096 
L 79.682359 112.004934 
L 80.007338 154.000739 
L 80.332318 136.221449 
L 80.657297 160.445332 
L 80.982277 203.405391 
L 81.307256 159.103591 
L 81.632236 176.414947 
L 81.957215 158.158747 
L 82.282195 177.742721 
L 82.607174 159.770915 
L 82.932154 162.591433 
L 83.257133 143.662003 
L 83.582113 185.364682 
L 83.907093 161.645063 
L 84.232072 123.932549 
L 84.557052 136.295269 
L 85.207011 217.900707 
L 85.53199 166.47298 
L 85.85697 176.426188 
L 86.181949 172.067646 
L 86.831908 222.832749 
L 87.156888 229.428547 
L 87.481867 232.584507 
L 87.806847 266.875272 
L 88.131826 256.916886 
L 88.456806 209.683184 
L 88.781785 216.591058 
L 89.106765 199.548786 
L 89.431744 222.498442 
L 89.756724 275.123673 
L 90.081704 236.631294 
L 90.406683 270.148488 
L 90.731663 232.925966 
L 91.056642 213.817083 
L 91.381622 266.35371 
L 91.706601 232.858553 
L 92.35656 206.590222 
L 92.68154 219.89789 
L 93.006519 255.674912 
L 93.331499 277.299367 
L 93.656478 282.337459 
L 93.981458 275.893479 
L 94.306437 225.124353 
L 94.631417 244.082012 
L 94.956396 245.561049 
L 95.281376 281.833676 
L 95.606355 251.625374 
L 95.931335 243.448014 
L 96.256314 262.403341 
L 96.581294 253.170038 
L 96.906274 276.3711 
L 97.231253 251.220622 
L 97.556233 283.120703 
L 97.881212 223.450763 
L 98.206192 279.60549 
L 98.531171 243.526325 
L 98.856151 261.908652 
L 99.18113 244.573084 
L 99.50611 289.330164 
L 99.831089 254.00519 
L 100.156069 250.848086 
L 100.481048 201.908555 
L 100.806028 204.66902 
L 101.131007 164.899965 
L 101.455987 176.267868 
L 101.780966 169.081124 
L 102.105946 196.338813 
L 102.430925 186.891835 
L 102.755905 182.649506 
L 103.080885 125.798872 
L 103.405864 126.563851 
L 103.730844 143.1856 
L 104.055823 121.896099 
L 104.380803 123.520121 
L 104.705782 105.369924 
L 105.030762 119.321488 
L 105.355741 155.410321 
L 105.680721 148.011686 
L 106.0057 128.563618 
L 106.33068 142.516047 
L 106.655659 165.28558 
L 106.980639 146.980276 
L 107.305618 165.481438 
L 107.630598 174.750338 
L 107.955577 130.066137 
L 108.280557 199.97482 
L 108.605536 182.550007 
L 108.930516 182.015513 
L 109.255495 184.556356 
L 109.580475 177.651281 
L 109.905455 182.391884 
L 110.230434 214.438118 
L 110.555414 204.444028 
L 110.880393 217.038908 
L 111.205373 176.816433 
L 111.530352 181.868601 
L 111.855332 254.075079 
L 112.180311 237.335735 
L 112.83027 116.769206 
L 113.15525 174.662516 
L 113.480229 193.449209 
L 113.805209 267.356487 
L 114.455168 148.116538 
L 114.780147 220.504531 
L 115.430106 204.240163 
L 115.755086 184.366432 
L 116.080066 227.132836 
L 116.405045 202.305825 
L 116.730025 189.044977 
L 117.055004 151.372769 
L 117.379984 188.930624 
L 117.704963 149.179115 
L 118.029943 199.808067 
L 118.354922 178.606863 
L 118.679902 192.510484 
L 119.004881 175.62943 
L 119.329861 192.848527 
L 119.65484 186.169875 
L 119.97982 164.936459 
L 120.304799 196.913412 
L 120.629779 144.31556 
L 120.954758 152.222309 
L 121.279738 156.768589 
L 121.604717 78.290034 
L 121.929697 154.880446 
L 122.579656 198.049732 
L 122.904636 172.995255 
L 123.229615 198.744638 
L 123.554595 206.366203 
L 123.879574 171.606787 
L 124.204554 196.520861 
L 124.529533 150.202396 
L 124.854513 183.232451 
L 125.179492 200.171966 
L 125.504472 181.090613 
L 125.829451 202.001737 
L 126.154431 193.404778 
L 126.47941 208.362327 
L 126.80439 245.98218 
L 127.129369 186.532204 
L 127.454349 211.84889 
L 127.779328 214.409732 
L 128.104308 158.608039 
L 128.429287 151.49493 
L 128.754267 181.032771 
L 129.079247 168.984957 
L 129.404226 129.889508 
L 129.729206 145.794723 
L 130.054185 211.126452 
L 130.379165 211.656925 
L 130.704144 222.578498 
L 131.029124 161.22979 
L 131.679083 108.619064 
L 132.004062 85.264422 
L 132.329042 74.106625 
L 132.654021 112.056792 
L 132.979001 95.990322 
L 133.30398 115.825355 
L 133.62896 126.836623 
L 133.953939 106.291299 
L 134.278919 155.629749 
L 134.603898 135.503144 
L 134.928878 90.754897 
L 135.253857 75.128747 
L 135.578837 53.568 
L 136.228796 177.192616 
L 136.553776 197.834537 
L 136.878755 162.686267 
L 137.203735 162.67956 
L 137.528714 143.170947 
L 137.853694 146.679859 
L 138.178673 129.67785 
L 138.503653 160.283118 
L 138.828632 168.366102 
L 139.153612 138.254054 
L 139.478591 185.890946 
L 139.803571 197.375614 
L 140.12855 181.407811 
L 140.45353 122.443495 
L 141.103489 138.848177 
L 141.428468 117.322186 
L 141.753448 189.755326 
L 142.078428 180.422192 
L 142.403407 186.02779 
L 142.728387 182.886002 
L 143.053366 167.748447 
L 143.378346 118.301913 
L 143.703325 107.682866 
L 144.028305 91.032545 
L 144.353284 88.805854 
L 144.678264 107.080217 
L 145.003243 139.136742 
L 145.328223 154.591489 
L 145.653202 146.52665 
L 145.978182 143.1855 
L 146.303161 174.91347 
L 146.628141 119.771999 
L 146.95312 182.844463 
L 147.2781 202.992938 
L 147.603079 146.760401 
L 147.928059 159.748489 
L 148.253038 160.427659 
L 148.578018 170.980458 
L 148.902998 149.813105 
L 149.227977 187.477996 
L 149.552957 202.006967 
L 149.877936 184.042704 
L 150.202916 194.336643 
L 150.527895 230.260734 
L 150.852875 244.146954 
L 151.177854 158.759365 
L 151.502834 180.165936 
L 151.827813 224.626417 
L 152.152793 218.353008 
L 152.802752 189.411337 
L 153.127731 202.738392 
L 153.452711 179.191474 
L 153.77769 198.810676 
L 154.10267 179.830127 
L 154.427649 198.623377 
L 154.752629 231.615626 
L 155.077609 215.400489 
L 155.402588 189.990842 
L 155.727568 236.261988 
L 156.052547 220.344817 
L 156.377527 220.0406 
L 157.677445 169.850877 
L 158.002424 168.724538 
L 158.327404 112.478544 
L 158.652383 140.335016 
L 158.977363 184.621819 
L 159.302342 154.822179 
L 159.627322 178.708564 
L 160.277281 190.363352 
L 160.60226 246.38848 
L 160.92724 166.321511 
L 161.252219 223.132101 
L 161.577199 220.037212 
L 161.902179 181.874859 
L 162.227158 121.921996 
L 162.552138 124.409212 
L 162.877117 113.895897 
L 163.202097 159.363944 
L 163.527076 131.472727 
L 163.852056 196.597204 
L 164.177035 181.560872 
L 164.502015 128.22158 
L 164.826994 223.362253 
L 165.476953 166.146226 
L 165.801933 217.301685 
L 166.451892 190.536911 
L 166.776871 179.178855 
L 167.101851 195.913006 
L 167.42683 197.743972 
L 167.75181 186.471047 
L 168.07679 186.181246 
L 168.401769 211.469573 
L 168.726749 191.816797 
L 169.051728 221.90385 
L 169.376708 114.122457 
L 170.026667 236.970248 
L 170.351646 206.08513 
L 170.676626 136.348331 
L 171.001605 139.630843 
L 171.326585 76.336727 
L 171.651564 60.694377 
L 171.976544 136.844935 
L 172.301523 105.25187 
L 172.626503 109.825921 
L 172.951482 94.555476 
L 173.276462 157.730198 
L 173.601441 158.043113 
L 173.926421 133.586645 
L 174.2514 193.746984 
L 174.90136 154.392561 
L 175.226339 150.825512 
L 175.551319 158.206121 
L 175.876298 103.818515 
L 176.201278 98.757592 
L 176.526257 99.725799 
L 176.851237 122.567137 
L 177.176216 181.90288 
L 177.501196 133.69125 
L 177.826175 178.964693 
L 178.151155 177.408421 
L 178.476134 170.677167 
L 178.801114 197.927353 
L 179.126093 179.42489 
L 179.451073 188.669257 
L 180.101032 169.327255 
L 180.426011 150.729545 
L 180.750991 155.670838 
L 181.075971 191.437021 
L 181.40095 155.496017 
L 181.72593 165.098323 
L 182.050909 149.057134 
L 182.375889 149.059931 
L 182.700868 135.350069 
L 183.025848 142.784261 
L 183.350827 101.526512 
L 183.675807 99.417553 
L 184.000786 153.96724 
L 184.325766 113.354308 
L 184.650745 167.331096 
L 184.975725 184.521493 
L 185.300704 225.247631 
L 186.275643 125.699448 
L 186.925602 193.916139 
L 187.250581 197.067942 
L 187.900541 264.371039 
L 188.22552 274.531773 
L 188.5505 280.758173 
L 188.875479 221.85493 
L 189.200459 213.615116 
L 189.850418 159.961602 
L 190.500377 119.459708 
L 191.150336 206.597335 
L 191.475315 215.846621 
L 191.800295 203.371032 
L 192.125274 154.171588 
L 192.775233 235.290871 
L 193.100213 176.238833 
L 193.425192 178.304413 
L 193.750172 168.061629 
L 194.075152 126.493461 
L 194.725111 155.399524 
L 195.05009 157.415944 
L 195.37507 117.308901 
L 195.700049 120.11954 
L 196.025029 164.493833 
L 196.350008 130.135708 
L 196.674988 137.112649 
L 196.999967 134.687475 
L 197.324947 166.243292 
L 197.649926 173.765832 
L 197.974906 155.441515 
L 198.299885 165.972537 
L 198.624865 117.106612 
L 198.949844 140.904598 
L 199.274824 201.20365 
L 199.599803 161.187199 
L 199.924783 135.086577 
L 200.249762 163.746723 
L 200.574742 169.950354 
L 200.899722 196.574876 
L 201.87466 153.210876 
L 202.19964 173.654102 
L 202.524619 154.998763 
L 202.849599 157.229934 
L 203.174578 141.479637 
L 203.499558 192.861831 
L 203.824537 188.335269 
L 204.149517 179.188384 
L 204.474496 166.782203 
L 204.799476 127.056461 
L 205.124455 128.310179 
L 205.449435 151.717998 
L 205.774414 140.551695 
L 206.099394 144.416076 
L 206.424373 136.776843 
L 206.749353 174.452886 
L 207.074333 160.733865 
L 207.399312 199.920179 
L 208.049271 154.398717 
L 208.374251 180.723571 
L 208.69923 179.77114 
L 209.02421 174.874049 
L 209.349189 161.467119 
L 209.674169 160.333512 
L 209.999148 146.253843 
L 210.324128 171.327254 
L 210.649107 141.270085 
L 210.974087 172.593589 
L 211.299066 218.286665 
L 211.624046 213.041746 
L 211.949025 190.83315 
L 212.274005 219.128497 
L 212.598984 197.975689 
L 212.923964 189.824134 
L 213.573923 141.46421 
L 213.898903 103.928736 
L 214.223882 91.688872 
L 215.198821 155.965812 
L 215.5238 137.046621 
L 215.84878 128.605331 
L 216.173759 153.683059 
L 216.498739 129.649608 
L 217.148698 170.8546 
L 217.473677 186.606084 
L 217.798657 148.58564 
L 218.123636 140.536841 
L 218.448616 152.993914 
L 218.773595 237.885722 
L 219.098575 152.313435 
L 219.748534 190.56386 
L 220.073514 169.038103 
L 220.723473 243.987612 
L 221.048452 178.325051 
L 221.373432 194.496394 
L 221.698411 200.744035 
L 222.023391 181.156513 
L 222.34837 196.849447 
L 222.67335 223.467197 
L 222.998329 224.465231 
L 223.323309 142.466353 
L 223.648288 192.49898 
L 223.973268 146.136089 
L 224.298247 181.929274 
L 224.623227 244.663716 
L 224.948206 211.65465 
L 225.273186 208.498818 
L 225.598165 136.198653 
L 225.923145 170.302978 
L 226.248124 179.122724 
L 226.573104 165.518243 
L 226.898084 210.599798 
L 227.223063 218.824638 
L 227.548043 234.388207 
L 227.873022 151.257008 
L 228.198002 172.383592 
L 228.522981 211.131338 
L 228.847961 214.281629 
L 229.17294 247.448777 
L 229.49792 202.450729 
L 229.822899 224.659475 
L 230.147879 295.488 
L 230.472858 212.916046 
L 230.797838 202.788074 
L 231.122817 236.955916 
L 232.097756 177.257024 
L 232.422735 161.971652 
L 232.747715 208.874042 
L 233.072695 180.080923 
L 233.397674 206.476987 
L 233.722654 212.903806 
L 234.047633 201.728393 
L 234.372613 172.970511 
L 234.697592 169.331672 
L 235.022572 131.434346 
L 235.347551 165.198576 
L 235.672531 179.624982 
L 235.99751 174.38091 
L 236.32249 180.930871 
L 236.647469 196.558508 
L 236.972449 219.516644 
L 237.297428 223.412778 
L 237.622408 195.306333 
L 237.947387 199.512567 
L 238.272367 193.594318 
L 238.597346 183.20907 
L 238.922326 165.372127 
L 239.247305 197.149348 
L 239.572285 174.00974 
L 240.222244 222.283381 
L 240.547224 171.071095 
L 240.872203 206.913965 
L 241.197183 205.974141 
L 241.522162 234.186051 
L 241.847142 159.203397 
L 242.172121 151.057771 
L 242.497101 152.477307 
L 242.82208 202.654156 
L 243.14706 187.265404 
L 243.472039 146.765057 
L 243.797019 208.036678 
L 244.121998 179.416502 
L 244.446978 177.15758 
L 244.771957 182.429531 
L 245.096937 185.891019 
L 245.421916 160.49274 
L 245.746896 190.361855 
L 246.071876 151.301967 
L 246.396855 156.348661 
L 246.721835 136.031777 
L 247.046814 107.978458 
L 247.696773 162.60372 
L 248.021753 181.254734 
L 248.346732 178.234906 
L 248.671712 178.0579 
L 248.996691 194.478711 
L 249.321671 191.426417 
L 249.64665 229.5976 
L 250.296609 170.199543 
L 250.621589 202.18744 
L 250.946568 178.161386 
L 251.271548 163.878858 
L 251.596527 189.879578 
L 252.246486 134.456653 
L 252.571466 129.521842 
L 253.221425 217.817258 
L 253.546405 216.978145 
L 254.196364 181.887709 
L 254.521343 177.227767 
L 254.846323 185.088508 
L 255.171302 187.970581 
L 255.496282 212.485367 
L 255.821261 171.646104 
L 256.146241 156.760734 
L 256.47122 211.005617 
L 256.7962 210.696987 
L 257.121179 178.018545 
L 257.446159 200.795994 
L 257.771138 177.62258 
L 258.096118 185.118642 
L 258.421097 177.578474 
L 258.746077 138.917585 
L 259.071057 153.474347 
L 259.721016 205.175379 
L 260.045995 172.678937 
L 260.370975 181.75486 
L 260.695954 140.734538 
L 261.020934 152.745237 
L 261.345913 176.17209 
L 261.670893 219.461244 
L 262.320852 164.60552 
L 262.645831 182.896474 
L 262.970811 137.272641 
L 263.29579 128.793437 
L 263.62077 107.246321 
L 263.945749 119.582391 
L 264.270729 102.461968 
L 264.595708 106.726856 
L 264.920688 113.271204 
L 265.245667 81.60542 
L 265.570647 108.262801 
L 265.895627 96.730079 
L 266.220606 120.72915 
L 266.545586 129.727111 
L 266.870565 169.811064 
L 267.520524 212.321614 
L 267.845504 156.290542 
L 268.170483 170.081227 
L 268.495463 204.152342 
L 268.820442 172.843139 
L 269.145422 162.438774 
L 269.470401 208.745523 
L 270.12036 172.053905 
L 270.44534 194.316465 
L 270.770319 187.782678 
L 271.420278 143.267567 
L 271.745258 141.620709 
L 272.070238 168.242617 
L 272.395217 179.026885 
L 273.045176 158.818718 
L 273.370156 193.594513 
L 273.695135 169.049409 
L 274.020115 183.274706 
L 274.670074 93.437924 
L 274.995053 131.541382 
L 275.320033 126.365846 
L 275.645012 159.531618 
L 275.969992 160.753259 
L 276.294971 155.339629 
L 276.619951 153.567752 
L 276.94493 162.001528 
L 277.26991 148.69577 
L 277.919869 186.039915 
L 278.244848 216.777137 
L 278.569828 205.21335 
L 279.219787 155.539292 
L 279.544767 157.01428 
L 279.869746 128.829914 
L 280.194726 129.278212 
L 280.519705 130.927289 
L 280.844685 128.104405 
L 281.494644 165.247745 
L 281.819623 194.063548 
L 282.144603 195.803049 
L 282.469582 161.949202 
L 282.794562 141.081328 
L 283.119541 175.134858 
L 283.444521 182.810449 
L 283.7695 215.476031 
L 284.09448 259.461409 
L 284.419459 263.237073 
L 284.744439 238.563232 
L 285.069419 223.861841 
L 285.394398 214.841688 
L 285.719378 236.549893 
L 286.044357 239.601752 
L 286.369337 219.346141 
L 286.694316 239.81684 
L 287.019296 213.275208 
L 287.344275 265.568935 
L 287.669255 222.108268 
L 287.994234 214.512026 
L 288.319214 188.97474 
L 288.644193 200.295097 
L 289.294152 186.233737 
L 289.619132 176.462021 
L 289.944111 223.877354 
L 290.269091 222.67321 
L 290.59407 209.578342 
L 290.91905 255.090559 
L 291.244029 242.114286 
L 291.569009 192.016648 
L 291.893989 207.760258 
L 292.218968 213.567851 
L 292.543948 178.612478 
L 292.868927 174.913773 
L 293.193907 197.424655 
L 293.518886 194.518485 
L 293.843866 205.854602 
L 294.168845 168.339957 
L 294.493825 172.697569 
L 295.143784 150.06241 
L 295.468763 128.084823 
L 295.793743 166.916689 
L 296.118722 187.132652 
L 296.443702 161.356597 
L 296.768681 156.512736 
L 297.093661 192.923744 
L 297.41864 182.709002 
L 297.74362 230.718851 
L 298.0686 216.30309 
L 298.393579 184.833664 
L 298.718559 187.940254 
L 299.043538 184.027143 
L 299.368518 228.255244 
L 299.693497 168.078135 
L 300.018477 148.912865 
L 300.343456 113.391012 
L 300.668436 171.151684 
L 300.993415 191.089661 
L 301.318395 194.759858 
L 301.643374 164.096108 
L 301.968354 151.966443 
L 302.293333 159.04797 
L 302.618313 124.18174 
L 302.943292 171.767833 
L 303.268272 200.704958 
L 303.593251 191.962342 
L 303.918231 116.623966 
L 304.24321 170.441171 
L 304.56819 166.135005 
L 304.89317 188.39703 
L 305.218149 149.189549 
L 305.543129 165.27756 
L 306.193088 135.107239 
L 306.518067 131.897988 
L 306.843047 152.718321 
L 307.168026 129.656647 
L 307.817985 193.375173 
L 308.142965 176.54784 
L 308.467944 218.309505 
L 308.792924 180.250421 
L 309.117903 175.224591 
L 309.442883 151.615576 
L 309.767862 144.976438 
L 310.092842 185.540193 
L 310.417821 154.778332 
L 310.742801 192.863765 
L 311.067781 186.584788 
L 311.39276 189.651124 
L 311.71774 208.629127 
L 312.042719 193.695051 
L 312.367699 206.388276 
L 312.692678 171.049502 
L 313.017658 166.659361 
L 313.342637 206.734831 
L 313.667617 174.381209 
L 313.992596 126.139164 
L 314.317576 104.598933 
L 314.642555 120.045315 
L 314.967535 187.210837 
L 315.292514 184.388261 
L 315.617494 248.557329 
L 315.942473 202.913261 
L 316.267453 236.924659 
L 316.917412 195.737752 
L 317.242391 242.616845 
L 317.567371 194.601742 
L 317.892351 167.694541 
L 318.21733 230.239359 
L 318.54231 230.355064 
L 318.867289 232.194089 
L 319.192269 201.449524 
L 319.517248 231.16472 
L 319.842228 227.316967 
L 320.167207 227.256487 
L 320.492187 234.36974 
L 320.817166 219.449017 
L 321.142146 217.998015 
L 321.467125 165.811074 
L 321.792105 202.416752 
L 322.117084 225.471139 
L 322.442064 188.908207 
L 322.767043 207.953071 
L 323.092023 212.353134 
L 323.417002 182.279376 
L 323.741982 198.057186 
L 324.066962 179.627681 
L 324.391941 187.826565 
L 324.716921 168.015438 
L 325.0419 191.250531 
L 325.36688 152.872833 
L 325.691859 163.988471 
L 326.016839 207.88642 
L 326.341818 195.587955 
L 326.666798 168.97988 
L 326.991777 173.380586 
L 327.316757 212.944433 
L 327.641736 215.226079 
L 327.966716 260.742038 
L 328.291695 254.722539 
L 328.616675 270.21987 
L 328.941654 245.675179 
L 329.266634 283.132992 
L 329.591613 219.901139 
L 329.916593 243.031768 
L 330.241572 252.487364 
L 330.566552 279.443047 
L 330.891532 203.603151 
L 331.216511 211.083352 
L 331.541491 255.36548 
L 332.516429 164.321239 
L 332.841409 154.245298 
L 333.166388 243.095817 
L 333.491368 208.995928 
L 333.816347 191.216016 
L 334.141327 207.349251 
L 334.466306 184.422 
L 334.791286 195.100807 
L 335.116265 188.166964 
L 335.766224 250.457771 
L 336.091204 201.304228 
L 336.416183 220.983781 
L 336.741163 194.48592 
L 337.066143 181.942874 
L 337.391122 179.638948 
L 337.716102 168.14232 
L 338.041081 238.542182 
L 338.366061 164.174214 
L 338.69104 152.65283 
L 339.01602 207.420594 
L 339.340999 192.615171 
L 339.665979 227.111277 
L 339.990958 197.106401 
L 340.315938 212.045755 
L 340.965897 154.17845 
L 341.290876 174.137479 
L 341.940835 83.654206 
L 342.590794 129.06905 
L 342.915774 147.070113 
L 343.240753 115.886312 
L 343.565733 121.597684 
L 343.890713 96.576033 
L 344.215692 149.625496 
L 344.540672 82.94841 
L 344.865651 68.396223 
L 345.51561 155.295502 
L 345.84059 170.083466 
L 346.165569 155.136951 
L 346.490549 134.965948 
L 346.815528 184.757505 
L 347.140508 208.755763 
L 347.465487 213.097239 
L 347.790467 223.942401 
L 348.115446 218.347146 
L 348.440426 169.585166 
L 348.765405 233.495174 
L 349.090385 244.386988 
L 349.415364 250.409541 
L 349.740344 244.371444 
L 350.065324 224.208567 
L 350.390303 214.743245 
L 350.715283 216.763208 
L 351.040262 209.412257 
L 351.365242 170.178658 
L 351.690221 152.347538 
L 352.015201 154.310341 
L 352.34018 130.572348 
L 352.990139 166.085438 
L 353.315119 198.630654 
L 353.640098 197.731981 
L 353.965078 190.722932 
L 354.290057 217.231134 
L 354.615037 206.940472 
L 354.940016 163.877671 
L 355.264996 197.919372 
L 355.589975 188.256001 
L 355.914955 184.199133 
L 356.239934 189.355162 
L 356.564914 178.886339 
L 356.889894 178.015695 
L 357.214873 165.40408 
L 357.539853 199.617267 
L 357.864832 216.208026 
L 358.189812 240.935689 
L 358.514791 252.390402 
L 358.839771 259.571122 
L 359.16475 255.620209 
L 359.48973 202.76705 
L 359.814709 245.438184 
L 360.139689 229.032303 
L 360.464668 195.218342 
L 360.789648 258.414219 
L 361.114627 259.71735 
L 361.439607 253.795305 
L 361.764586 233.356456 
L 362.089566 280.395873 
L 362.414545 267.001361 
L 362.739525 273.738242 
L 363.064505 269.116511 
L 363.389484 261.661524 
L 363.714464 207.283445 
L 364.364423 233.213751 
L 364.689402 212.346667 
L 365.014382 152.066077 
L 365.339361 154.998802 
L 365.664341 228.908216 
L 366.3143 142.071648 
L 366.639279 215.900527 
L 366.964259 164.087182 
L 367.289238 154.822719 
L 367.614218 215.070856 
L 367.939197 160.830049 
L 368.264177 131.820744 
L 368.914136 169.108043 
L 369.239115 157.066452 
L 369.564095 116.486078 
L 370.214054 163.752284 
L 370.539034 166.842057 
L 370.864013 126.418948 
L 371.188993 103.154141 
L 371.513972 125.716892 
L 372.163931 202.576248 
L 372.488911 197.752511 
L 373.13887 137.049254 
L 373.463849 148.53481 
L 373.788829 147.394253 
L 374.113808 140.888334 
L 374.438788 146.184341 
L 374.763767 183.978735 
L 375.413726 156.447418 
L 375.738706 125.167503 
L 376.063686 152.781379 
L 376.713645 262.072102 
L 377.363604 150.70226 
L 377.688583 143.429042 
L 378.013563 166.712914 
L 378.663522 198.472162 
L 378.988501 173.17498 
L 379.63846 181.863058 
L 379.96344 211.974572 
L 380.288419 199.486953 
L 380.938378 243.661808 
L 381.263358 187.097986 
L 381.588337 198.132211 
L 381.913317 201.990021 
L 382.238296 148.925194 
L 382.563276 166.175459 
L 383.213235 222.209599 
L 383.538215 215.574286 
L 383.863194 197.226544 
L 384.188174 204.796989 
L 384.513153 233.165294 
L 385.163112 188.891274 
L 385.488092 201.61314 
L 385.813071 199.149423 
L 386.138051 216.100916 
L 386.46303 245.400775 
L 386.78801 247.535557 
L 387.112989 232.289711 
L 387.437969 242.297566 
L 387.762948 219.117399 
L 388.087928 276.184369 
L 388.412907 286.416257 
L 388.737887 286.343653 
L 389.062867 209.319774 
L 389.387846 215.867413 
L 389.712826 272.410241 
L 390.037805 259.455392 
L 390.362785 206.769389 
L 390.687764 174.363247 
L 391.012744 217.160341 
L 391.337723 205.037855 
L 391.662703 178.547844 
L 391.987682 202.840892 
L 392.312662 187.563805 
L 392.637641 181.554899 
L 392.962621 153.283516 
L 393.2876 191.756672 
L 393.61258 169.420749 
L 393.937559 186.889199 
L 394.262539 188.715254 
L 394.587518 240.865293 
L 394.912498 219.85503 
L 395.237477 172.811645 
L 395.562457 174.666084 
L 395.887437 200.289635 
L 396.212416 214.880449 
L 396.537396 212.734468 
L 396.862375 206.089991 
L 397.187355 235.579293 
L 398.162293 176.602679 
L 398.487273 194.342476 
L 398.487273 194.342476 
" clip-path="url(#pfd3034fecd)" style="fill: none; stroke: #1f77b4; stroke-width: 1.5; stroke-linecap: square"/>
   </g>
   <g id="patch_3">
    <path d="M 57.6 307.584 
L 57.6 41.472 
" style="fill: none; stroke: #000000; stroke-width: 0.8; stroke-linejoin: miter; stroke-linecap: square"/>
   </g>
   <g id="patch_4">
    <path d="M 414.72 307.584 
L 414.72 41.472 
" style="fill: none; stroke: #000000; stroke-width: 0.8; stroke-linejoin: miter; stroke-linecap: square"/>
   </g>
   <g id="patch_5">
    <path d="M 57.6 307.584 
L 414.72 307.584 
" style="fill: none; stroke: #000000; stroke-width: 0.8; stroke-linejoin: miter; stroke-linecap: square"/>
   </g>
   <g id="patch_6">
    <path d="M 57.6 41.472 
L 414.72 41.472 
" style="fill: none; stroke: #000000; stroke-width: 0.8; stroke-linejoin: miter; stroke-linecap: square"/>
   </g>
  </g>
 </g>
 <defs>
  <clipPath id="pfd3034fecd">
   <rect x="57.6" y="41.472" width="357.12" height="266.112"/>
  </clipPath>
 </defs>
</svg>
