<?xml version="1.0" encoding="utf-8" standalone="no"?>
<!DOCTYPE svg PUBLIC "-//W3C//DTD SVG 1.1//EN"
  "http://www.w3.org/Graphics/SVG/1.1/DTD/svg11.dtd">
<svg xmlns:xlink="http://www.w3.org/1999/xlink" width="460.8pt" height="345.6pt" viewBox="0 0 460.8 345.6" xmlns="http://www.w3.org/2000/svg" version="1.1">
 <metadata>
  <rdf:RDF xmlns:dc="http://purl.org/dc/elements/1.1/" xmlns:cc="http://creativecommons.org/ns#" xmlns:rdf="http://www.w3.org/1999/02/22-rdf-syntax-ns#">
   <cc:Work>
    <dc:type rdf:resource="http://purl.org/dc/dcmitype/StillImage"/>
    <dc:date>2026-01-29T08:00:22.194012</dc:date>
    <dc:format>image/svg+xml</dc:format>
    <dc:creator>
     <cc:Agent>
      <dc:title>Matplotlib v3.10.8, https://matplotlib.org/</dc:title>
     </cc:Agent>
    </dc:creator>
   </cc:Work>
  </rdf:RDF>
 </metadata>
 <defs>
  <style type="text/css">*{stroke-linejoin: round; stroke-linecap: butt}</style>
 </defs>
 <g id="figure_1">
  <g id="patch_1">
   <path d="M 0 345.6 
L 460.8 345.6 
L 460.8 0 
L 0 0 
z
" style="fill: #ffffff"/>
  </g>
  <g id="axes_1">
   <g id="patch_2">
    <path d="M 82.33 266.245 
L 410.94 266.245 
L 410.94 25.92 
L 82.33 25.92 
z
" style="fill: #ffffff"/>
   </g>
   <g id="matplotlib.axis_1">
    <g id="xtick_1">
     <g id="line2d_1">
      <path d="M 82.33 266.245 
L 82.33 25.92 
" clip-path="url(#pe66529703e)" style="fill: none; stroke: #b0b0b0; stroke-width: 0.8; stroke-linecap: square"/>
     </g>
     <g id="line2d_2">
      <defs>
       <path id="md9b7aa478a" d="M 0 0 
L 0 3.5 
" style="stroke: #000000; stroke-width: 0.8"/>
      </defs>
      <g>
       <use xlink:href="#md9b7aa478a" x="82.33" y="266.245" style="stroke: #000000; stroke-width: 0.8"/>
      </g>
     </g>
     <g id="text_1">
      <!-- 0 -->
      <g transform="translate(76.33 289.63625) scale(0.24 -0.24)">
       <defs>
        <path id="TeXGyreTermes-Regular-30" d="M 3046 2112 
C 3046 3424 2464 4326 1626 4326 
C 1274 4326 1005 4218 768 3994 
C 397 3635 154 2899 154 2150 
C 154 1453 365 704 666 346 
C 902 64 1229 -90 1600 -90 
C 1926 -90 2202 19 2432 243 
C 2803 595 3046 1338 3046 2112 
z
M 2432 2099 
C 2432 762 2150 77 1600 77 
C 1050 77 768 762 768 2093 
C 768 3450 1056 4160 1606 4160 
C 2144 4160 2432 3437 2432 2099 
z
" transform="scale(0.015625)"/>
       </defs>
       <use xlink:href="#TeXGyreTermes-Regular-30"/>
      </g>
     </g>
    </g>
    <g id="xtick_2">
     <g id="line2d_3">
      <path d="M 164.4825 266.245 
L 164.4825 25.92 
" clip-path="url(#pe66529703e)" style="fill: none; stroke: #b0b0b0; stroke-width: 0.8; stroke-linecap: square"/>
     </g>
     <g id="line2d_4">
      <g>
       <use xlink:href="#md9b7aa478a" x="164.4825" y="266.245" style="stroke: #000000; stroke-width: 0.8"/>
      </g>
     </g>
     <g id="text_2">
      <!-- 250 -->
      <g transform="translate(146.4825 289.63625) scale(0.24 -0.24)">
       <defs>
        <path id="TeXGyreTermes-Regular-32" d="M 3040 877 
L 2957 909 
C 2720 544 2637 486 2349 486 
L 819 486 
L 1894 1613 
C 2464 2208 2714 2694 2714 3194 
C 2714 3834 2195 4326 1530 4326 
C 1178 4326 845 4186 608 3930 
C 403 3712 307 3507 198 3053 
L 333 3021 
C 589 3648 819 3853 1261 3853 
C 1798 3853 2163 3488 2163 2950 
C 2163 2451 1869 1856 1331 1286 
L 192 77 
L 192 0 
L 2688 0 
L 3040 877 
z
" transform="scale(0.015625)"/>
        <path id="TeXGyreTermes-Regular-35" d="M 2803 4358 
L 2746 4403 
C 2650 4269 2586 4237 2451 4237 
L 1114 4237 
L 416 2720 
C 410 2707 410 2688 410 2688 
C 410 2656 435 2637 486 2637 
C 691 2637 947 2592 1210 2509 
C 1946 2272 2285 1875 2285 1242 
C 2285 627 1894 147 1395 147 
C 1267 147 1158 192 966 333 
C 762 480 614 544 480 544 
C 294 544 205 467 205 307 
C 205 64 506 -90 986 -90 
C 1523 -90 1984 83 2304 410 
C 2598 698 2733 1062 2733 1549 
C 2733 2010 2611 2304 2291 2624 
C 2010 2906 1645 3053 890 3187 
L 1158 3731 
L 2413 3731 
C 2515 3731 2541 3744 2560 3789 
L 2803 4358 
z
" transform="scale(0.015625)"/>
       </defs>
       <use xlink:href="#TeXGyreTermes-Regular-32"/>
       <use xlink:href="#TeXGyreTermes-Regular-35" transform="translate(49.999985 0)"/>
       <use xlink:href="#TeXGyreTermes-Regular-30" transform="translate(99.999969 0)"/>
      </g>
     </g>
    </g>
    <g id="xtick_3">
     <g id="line2d_5">
      <path d="M 246.635 266.245 
L 246.635 25.92 
" clip-path="url(#pe66529703e)" style="fill: none; stroke: #b0b0b0; stroke-width: 0.8; stroke-linecap: square"/>
     </g>
     <g id="line2d_6">
      <g>
       <use xlink:href="#md9b7aa478a" x="246.635" y="266.245" style="stroke: #000000; stroke-width: 0.8"/>
      </g>
     </g>
     <g id="text_3">
      <!-- 500 -->
      <g transform="translate(228.635 289.63625) scale(0.24 -0.24)">
       <use xlink:href="#TeXGyreTermes-Regular-35"/>
       <use xlink:href="#TeXGyreTermes-Regular-30" transform="translate(49.999985 0)"/>
       <use xlink:href="#TeXGyreTermes-Regular-30" transform="translate(99.999969 0)"/>
      </g>
     </g>
    </g>
    <g id="xtick_4">
     <g id="line2d_7">
      <path d="M 328.7875 266.245 
L 328.7875 25.92 
" clip-path="url(#pe66529703e)" style="fill: none; stroke: #b0b0b0; stroke-width: 0.8; stroke-linecap: square"/>
     </g>
     <g id="line2d_8">
      <g>
       <use xlink:href="#md9b7aa478a" x="328.7875" y="266.245" style="stroke: #000000; stroke-width: 0.8"/>
      </g>
     </g>
     <g id="text_4">
      <!-- 750 -->
      <g transform="translate(310.7875 289.63625) scale(0.24 -0.24)">
       <defs>
        <path id="TeXGyreTermes-Regular-37" d="M 2874 4134 
L 2874 4237 
L 506 4237 
L 128 3296 
L 237 3245 
C 512 3680 627 3763 979 3763 
L 2368 3763 
L 1101 -51 
L 1517 -51 
L 2874 4134 
z
" transform="scale(0.015625)"/>
       </defs>
       <use xlink:href="#TeXGyreTermes-Regular-37"/>
       <use xlink:href="#TeXGyreTermes-Regular-35" transform="translate(49.999985 0)"/>
       <use xlink:href="#TeXGyreTermes-Regular-30" transform="translate(99.999969 0)"/>
      </g>
     </g>
    </g>
    <g id="xtick_5">
     <g id="line2d_9">
      <path d="M 410.94 266.245 
L 410.94 25.92 
" clip-path="url(#pe66529703e)" style="fill: none; stroke: #b0b0b0; stroke-width: 0.8; stroke-linecap: square"/>
     </g>
     <g id="line2d_10">
      <g>
       <use xlink:href="#md9b7aa478a" x="410.94" y="266.245" style="stroke: #000000; stroke-width: 0.8"/>
      </g>
     </g>
     <g id="text_5">
      <!-- 1000 -->
      <g transform="translate(386.94 289.63625) scale(0.24 -0.24)">
       <defs>
        <path id="TeXGyreTermes-Regular-31" d="M 2522 0 
L 2522 96 
C 2016 102 1914 166 1914 474 
L 1914 4314 
L 1862 4326 
L 710 3744 
L 710 3654 
C 787 3686 858 3712 883 3725 
C 998 3770 1107 3795 1171 3795 
C 1306 3795 1363 3699 1363 3494 
L 1363 595 
C 1363 384 1312 237 1210 179 
C 1114 122 1024 102 755 96 
L 755 0 
L 2522 0 
z
" transform="scale(0.015625)"/>
       </defs>
       <use xlink:href="#TeXGyreTermes-Regular-31"/>
       <use xlink:href="#TeXGyreTermes-Regular-30" transform="translate(49.999985 0)"/>
       <use xlink:href="#TeXGyreTermes-Regular-30" transform="translate(99.999969 0)"/>
       <use xlink:href="#TeXGyreTermes-Regular-30" transform="translate(149.999954 0)"/>
      </g>
     </g>
    </g>
    <g id="text_6">
     <!-- Schritt k -->
     <g transform="translate(205.6325 315.23625) scale(0.24 -0.24)">
      <defs>
       <path id="TeXGyreTermes-Regular-53" d="M 3142 1075 
C 3142 1606 2790 2016 1946 2477 
C 1274 2842 1005 3123 1005 3475 
C 1005 3827 1274 4064 1670 4064 
C 1958 4064 2227 3942 2451 3712 
C 2650 3507 2739 3341 2842 2963 
L 3002 2963 
L 2861 4326 
L 2726 4326 
C 2701 4186 2630 4109 2522 4109 
C 2458 4109 2355 4134 2240 4186 
C 2003 4275 1773 4326 1549 4326 
C 1299 4326 1030 4224 826 4058 
C 576 3853 454 3578 454 3226 
C 454 2720 736 2362 1453 1984 
C 1914 1734 2246 1478 2406 1235 
C 2464 1146 2496 1018 2496 858 
C 2496 435 2176 141 1709 141 
C 1133 141 736 493 416 1274 
L 269 1274 
L 461 -83 
L 602 -83 
C 608 38 685 128 781 128 
C 851 128 960 102 1082 58 
C 1325 -38 1581 -90 1837 -90 
C 2579 -90 3142 416 3142 1075 
z
" transform="scale(0.015625)"/>
       <path id="TeXGyreTermes-Regular-63" d="M 2637 941 
L 2547 998 
C 2240 550 2010 397 1645 397 
C 1056 397 653 909 653 1645 
C 653 2310 1005 2758 1523 2758 
C 1754 2758 1837 2688 1901 2451 
L 1939 2310 
C 1990 2125 2106 2016 2246 2016 
C 2413 2016 2547 2138 2547 2285 
C 2547 2643 2099 2944 1562 2944 
C 1261 2944 954 2829 698 2618 
C 352 2330 160 1888 160 1357 
C 160 531 666 -64 1376 -64 
C 1651 -64 1894 26 2112 205 
C 2304 358 2432 544 2637 941 
z
" transform="scale(0.015625)"/>
       <path id="TeXGyreTermes-Regular-68" d="M 3117 0 
L 3117 96 
C 2771 160 2733 211 2733 653 
L 2733 1926 
C 2733 2598 2464 2944 1946 2944 
C 1568 2944 1299 2790 1005 2406 
L 1005 4352 
L 973 4371 
C 755 4294 595 4243 237 4141 
L 64 4090 
L 64 3987 
C 90 3994 109 3994 141 3994 
C 416 3994 467 3942 467 3667 
L 467 653 
C 467 205 429 147 58 96 
L 58 0 
L 1440 0 
L 1440 96 
C 1069 134 1005 211 1005 653 
L 1005 2195 
C 1274 2490 1466 2598 1715 2598 
C 2035 2598 2195 2368 2195 1920 
L 2195 653 
C 2195 218 2131 134 1760 96 
L 1760 0 
L 3117 0 
z
" transform="scale(0.015625)"/>
       <path id="TeXGyreTermes-Regular-72" d="M 2144 2605 
C 2144 2816 2010 2944 1792 2944 
C 1523 2944 1338 2797 1024 2342 
L 1024 2931 
L 992 2944 
C 653 2803 422 2720 45 2598 
L 45 2496 
C 134 2515 192 2522 269 2522 
C 429 2522 486 2419 486 2138 
L 486 538 
C 486 218 442 173 32 96 
L 32 0 
L 1568 0 
L 1568 96 
C 1133 115 1024 211 1024 576 
L 1024 2016 
C 1024 2221 1299 2541 1472 2541 
C 1510 2541 1568 2509 1638 2445 
C 1741 2355 1811 2317 1894 2317 
C 2048 2317 2144 2426 2144 2605 
z
" transform="scale(0.015625)"/>
       <path id="TeXGyreTermes-Regular-69" d="M 1619 0 
L 1619 96 
C 1197 128 1146 192 1146 653 
L 1146 2925 
L 1120 2944 
L 128 2592 
L 128 2496 
L 179 2502 
C 256 2515 339 2522 397 2522 
C 550 2522 608 2419 608 2138 
L 608 653 
C 608 192 544 122 102 96 
L 102 0 
L 1619 0 
z
M 1203 3776 
C 1203 3955 1062 4102 877 4102 
C 698 4102 550 3955 550 3776 
C 550 3590 698 3450 877 3450 
C 1062 3450 1203 3590 1203 3776 
z
" transform="scale(0.015625)"/>
       <path id="TeXGyreTermes-Regular-74" d="M 1786 422 
L 1702 493 
C 1562 326 1459 269 1318 269 
C 1082 269 986 435 986 845 
L 986 2675 
L 1632 2675 
L 1632 2880 
L 986 2880 
L 986 3622 
C 986 3686 973 3706 941 3706 
C 902 3642 858 3584 813 3526 
C 576 3174 358 2938 192 2842 
C 122 2797 83 2758 83 2720 
C 83 2701 90 2688 109 2675 
L 448 2675 
L 448 749 
C 448 211 640 -64 1011 -64 
C 1331 -64 1574 90 1786 422 
z
" transform="scale(0.015625)"/>
       <path id="TeXGyreTermes-Regular-20" transform="scale(0.015625)"/>
       <path id="TeXGyreTermes-Regular-6b" d="M 3232 0 
L 3232 96 
C 2950 115 2752 237 2483 563 
L 1504 1805 
L 1690 1978 
C 2144 2400 2541 2694 2726 2746 
C 2822 2771 2912 2784 3021 2784 
L 3072 2784 
L 3072 2880 
L 1766 2880 
L 1766 2790 
C 2016 2784 2086 2758 2086 2669 
C 2086 2618 2029 2528 1939 2451 
L 1062 1670 
L 1062 4358 
L 1037 4371 
L 237 4141 
L 45 4090 
L 45 3987 
C 128 3994 186 4000 250 4000 
C 461 4000 525 3917 525 3610 
L 525 525 
C 525 192 506 173 45 96 
L 45 0 
L 1542 0 
L 1542 96 
L 1414 102 
C 1158 115 1062 205 1062 429 
L 1062 1606 
L 1958 410 
L 1978 384 
C 1990 365 2003 346 2022 326 
C 2074 262 2093 224 2093 192 
C 2093 134 2035 96 1958 96 
L 1837 96 
L 1837 0 
L 3232 0 
z
" transform="scale(0.015625)"/>
      </defs>
      <use xlink:href="#TeXGyreTermes-Regular-53"/>
      <use xlink:href="#TeXGyreTermes-Regular-63" transform="translate(55.599991 0)"/>
      <use xlink:href="#TeXGyreTermes-Regular-68" transform="translate(99.999985 0)"/>
      <use xlink:href="#TeXGyreTermes-Regular-72" transform="translate(149.999969 0)"/>
      <use xlink:href="#TeXGyreTermes-Regular-69" transform="translate(183.299957 0)"/>
      <use xlink:href="#TeXGyreTermes-Regular-74" transform="translate(211.099945 0)"/>
      <use xlink:href="#TeXGyreTermes-Regular-74" transform="translate(238.899933 0)"/>
      <use xlink:href="#TeXGyreTermes-Regular-20" transform="translate(266.699921 0)"/>
      <use xlink:href="#TeXGyreTermes-Regular-6b" transform="translate(291.699905 0)"/>
     </g>
    </g>
   </g>
   <g id="matplotlib.axis_2">
    <g id="ytick_1">
     <g id="line2d_11">
      <path d="M 82.33 226.995842 
L 410.94 226.995842 
" clip-path="url(#pe66529703e)" style="fill: none; stroke: #b0b0b0; stroke-width: 0.8; stroke-linecap: square"/>
     </g>
     <g id="line2d_12">
      <defs>
       <path id="m9c4d20c1ea" d="M 0 0 
L -3.5 0 
" style="stroke: #000000; stroke-width: 0.8"/>
      </defs>
      <g>
       <use xlink:href="#m9c4d20c1ea" x="82.33" y="226.995842" style="stroke: #000000; stroke-width: 0.8"/>
      </g>
     </g>
     <g id="text_7">
      <!-- −200 -->
      <g transform="translate(25.7925 235.191467) scale(0.24 -0.24)">
       <defs>
        <path id="TeXGyreTermes-Regular-2212" d="M 3354 1389 
L 3354 1811 
L 256 1811 
L 256 1389 
L 3354 1389 
z
" transform="scale(0.015625)"/>
       </defs>
       <use xlink:href="#TeXGyreTermes-Regular-2212"/>
       <use xlink:href="#TeXGyreTermes-Regular-32" transform="translate(56.399994 0)"/>
       <use xlink:href="#TeXGyreTermes-Regular-30" transform="translate(106.399979 0)"/>
       <use xlink:href="#TeXGyreTermes-Regular-30" transform="translate(156.399963 0)"/>
      </g>
     </g>
    </g>
    <g id="ytick_2">
     <g id="line2d_13">
      <path d="M 82.33 151.779883 
L 410.94 151.779883 
" clip-path="url(#pe66529703e)" style="fill: none; stroke: #b0b0b0; stroke-width: 0.8; stroke-linecap: square"/>
     </g>
     <g id="line2d_14">
      <g>
       <use xlink:href="#m9c4d20c1ea" x="82.33" y="151.779883" style="stroke: #000000; stroke-width: 0.8"/>
      </g>
     </g>
     <g id="text_8">
      <!-- −100 -->
      <g transform="translate(25.7925 159.975508) scale(0.24 -0.24)">
       <use xlink:href="#TeXGyreTermes-Regular-2212"/>
       <use xlink:href="#TeXGyreTermes-Regular-31" transform="translate(56.399994 0)"/>
       <use xlink:href="#TeXGyreTermes-Regular-30" transform="translate(106.399979 0)"/>
       <use xlink:href="#TeXGyreTermes-Regular-30" transform="translate(156.399963 0)"/>
      </g>
     </g>
    </g>
    <g id="ytick_3">
     <g id="line2d_15">
      <path d="M 82.33 76.563923 
L 410.94 76.563923 
" clip-path="url(#pe66529703e)" style="fill: none; stroke: #b0b0b0; stroke-width: 0.8; stroke-linecap: square"/>
     </g>
     <g id="line2d_16">
      <g>
       <use xlink:href="#m9c4d20c1ea" x="82.33" y="76.563923" style="stroke: #000000; stroke-width: 0.8"/>
      </g>
     </g>
     <g id="text_9">
      <!-- 0 -->
      <g transform="translate(63.33 84.759548) scale(0.24 -0.24)">
       <use xlink:href="#TeXGyreTermes-Regular-30"/>
      </g>
     </g>
    </g>
   </g>
   <g id="line2d_17">
    <path d="M 82.33 76.563923 
L 83.64444 79.805597 
L 84.30166 80.937925 
L 84.95888 82.454979 
L 86.27332 84.06856 
L 87.25915 86.194934 
L 87.91637 87.845131 
L 88.57359 89.16985 
L 89.88803 92.308119 
L 90.21664 92.701119 
L 90.54525 93.56606 
L 91.53108 95.265475 
L 92.51691 97.366513 
L 93.50274 98.691969 
L 94.15996 99.580131 
L 94.81718 100.103127 
L 95.80301 100.879339 
L 96.13162 101.35188 
L 96.46023 101.39339 
L 96.78884 101.229325 
L 97.11745 101.325791 
L 97.44606 101.210377 
L 98.7605 98.586112 
L 99.08911 98.055879 
L 99.41772 97.806982 
L 99.74633 97.754924 
L 100.40355 97.118796 
L 100.73216 96.785219 
L 101.06077 96.766929 
L 101.38938 97.004223 
L 102.70382 99.636471 
L 104.67548 102.067043 
L 105.00409 102.223705 
L 105.3327 102.77367 
L 105.66131 103.006501 
L 105.98992 102.990052 
L 106.31853 103.103817 
L 106.64714 103.617884 
L 110.59046 112.936228 
L 112.23351 117.72498 
L 113.21934 119.250729 
L 113.54795 119.400068 
L 114.20517 119.325543 
L 114.53378 119.154359 
L 114.86239 119.272695 
L 115.191 119.197851 
L 115.84822 119.490227 
L 116.17683 119.913932 
L 116.50544 120.036352 
L 117.16266 120.745736 
L 118.14849 122.668321 
L 118.4771 123.086261 
L 119.13432 123.528586 
L 120.44876 125.946674 
L 120.77737 126.401964 
L 121.43459 126.475844 
L 122.09181 127.237851 
L 122.42042 127.183233 
L 123.40625 127.924744 
L 124.72069 130.075134 
L 125.70652 132.654323 
L 126.36374 133.690249 
L 126.69235 134.589238 
L 127.34957 136.77793 
L 128.00679 137.65973 
L 128.3354 137.906397 
L 129.32123 139.726055 
L 129.64984 140.013624 
L 130.30706 141.358846 
L 131.95011 146.773842 
L 133.92177 153.325382 
L 134.9076 155.156397 
L 135.56482 156.747899 
L 136.22204 157.790428 
L 136.55065 158.061873 
L 137.53648 160.206331 
L 138.52231 162.730862 
L 139.17953 165.281911 
L 140.16536 168.493762 
L 141.15119 170.65616 
L 141.4798 171.676767 
L 141.80841 172.164724 
L 142.46563 173.82346 
L 143.45146 176.842197 
L 144.10868 178.77825 
L 145.42312 183.230383 
L 146.08034 185.18063 
L 147.72339 190.75885 
L 153.30976 210.528254 
L 153.96698 213.229608 
L 155.28142 217.553725 
L 157.58169 225.235 
L 158.23891 226.410273 
L 158.89613 228.027236 
L 159.88196 229.684978 
L 161.85362 235.577256 
L 163.16806 240.215257 
L 163.82528 242.661014 
L 166.12555 249.903538 
L 166.78277 251.323465 
L 167.43999 252.914911 
L 168.09721 253.914549 
L 169.08304 254.813282 
L 169.74026 255.265317 
L 170.06887 255.321136 
L 170.39748 255.166297 
L 171.0547 254.313751 
L 171.38331 254.140337 
L 171.71192 254.133925 
L 172.36914 253.660779 
L 173.02636 253.018252 
L 174.01219 250.480214 
L 175.32663 246.836041 
L 176.96968 243.607534 
L 179.26995 236.13775 
L 179.92717 234.357519 
L 180.58439 231.68472 
L 181.24161 228.953188 
L 181.57022 227.975146 
L 182.22744 224.81491 
L 183.21327 219.119076 
L 183.87049 216.280213 
L 184.52771 213.688452 
L 185.18493 209.82585 
L 186.17076 203.859327 
L 189.78547 187.458249 
L 190.44269 183.962994 
L 192.41435 175.773917 
L 193.72879 172.679275 
L 194.38601 171.017419 
L 195.04323 168.812155 
L 195.70045 167.190447 
L 196.68628 165.705793 
L 198.32933 162.739753 
L 198.65794 161.699797 
L 199.64377 159.532396 
L 200.6296 156.557973 
L 201.28682 155.262881 
L 201.61543 154.955533 
L 204.90153 146.122399 
L 205.23014 145.11356 
L 205.88736 144.006691 
L 206.54458 143.542015 
L 207.2018 142.277243 
L 208.18763 142.039848 
L 208.51624 141.699846 
L 210.15929 137.676906 
L 210.81651 134.653308 
L 212.45956 126.357927 
L 213.774 120.119644 
L 214.75983 114.326625 
L 216.07427 108.013705 
L 216.40288 107.079925 
L 217.0601 104.083372 
L 219.36037 91.512537 
L 220.3462 87.285872 
L 221.00342 84.692508 
L 222.31786 79.220684 
L 225.60396 66.539722 
L 225.93257 65.985354 
L 226.58979 65.387511 
L 227.57562 64.016065 
L 228.89006 60.643889 
L 229.21867 60.131888 
L 229.87589 59.454278 
L 230.53311 58.482549 
L 230.86172 58.215799 
L 231.51894 58.146412 
L 231.84755 57.793107 
L 232.50477 56.912795 
L 233.4906 56.133831 
L 234.14782 54.946205 
L 234.47643 54.526601 
L 235.13365 54.845482 
L 235.46226 55.119328 
L 236.11948 55.249058 
L 237.10531 54.669732 
L 237.43392 54.357213 
L 237.76253 54.242205 
L 239.07697 54.600468 
L 239.73419 55.128708 
L 240.39141 55.241468 
L 241.04863 54.73364 
L 241.37724 54.686719 
L 241.70585 54.870817 
L 242.36307 55.882424 
L 243.3489 58.36182 
L 243.67751 58.586737 
L 244.33473 59.597475 
L 244.99195 60.154889 
L 245.64917 61.262486 
L 246.30639 61.33662 
L 246.635 61.06361 
L 246.96361 60.562056 
L 247.29222 59.846595 
L 247.62083 58.826085 
L 247.94944 58.172493 
L 248.27805 57.867694 
L 248.60666 57.720645 
L 248.93527 57.270381 
L 249.26388 57.301293 
L 250.57832 56.865629 
L 250.90693 56.497479 
L 251.23554 56.340266 
L 252.22137 56.348524 
L 252.54998 56.122944 
L 253.2072 56.991333 
L 253.53581 57.22359 
L 253.86442 57.662573 
L 254.19303 57.825314 
L 255.17886 57.725767 
L 255.50747 58.04383 
L 257.15052 57.848379 
L 257.80774 58.169872 
L 258.13635 58.487753 
L 258.79357 59.431118 
L 259.12218 59.84999 
L 259.45079 60.041554 
L 260.10801 60.657582 
L 260.43662 60.514803 
L 260.76523 60.798564 
L 261.09384 61.268807 
L 261.75106 61.864883 
L 262.40828 62.549197 
L 263.0655 62.681768 
L 263.72272 61.38562 
L 264.70855 59.079561 
L 265.36577 57.935904 
L 266.02299 56.466147 
L 266.3516 56.221233 
L 266.68021 56.128707 
L 267.00882 55.889512 
L 268.32326 54.274496 
L 268.98048 53.020322 
L 269.30909 52.604341 
L 269.6377 52.400816 
L 269.96631 51.956112 
L 270.29492 51.280628 
L 270.62353 51.146992 
L 270.95214 51.238918 
L 271.28075 51.13218 
L 273.90963 47.355327 
L 275.55268 43.629733 
L 275.88129 43.229799 
L 276.2099 43.064937 
L 276.53851 43.026265 
L 277.52434 43.412626 
L 278.18156 42.82663 
L 278.83878 41.96865 
L 279.496 41.738985 
L 280.15322 42.210852 
L 280.81044 42.84058 
L 281.79627 44.935755 
L 282.7821 47.210349 
L 283.11071 47.483277 
L 283.43932 48.030978 
L 284.42515 50.367079 
L 285.08237 51.301198 
L 285.73959 51.53371 
L 286.39681 52.413966 
L 288.36847 56.995664 
L 289.02569 58.661146 
L 289.68291 59.242209 
L 290.01152 59.290748 
L 290.99735 58.715241 
L 291.32596 58.44268 
L 291.65457 58.012835 
L 291.98318 57.076377 
L 292.6404 56.058475 
L 292.96901 55.839086 
L 294.28345 53.985561 
L 294.61206 53.831396 
L 294.94067 53.822966 
L 295.26928 53.436286 
L 295.59789 53.408881 
L 296.25511 53.175996 
L 296.58372 53.219225 
L 296.91233 53.652442 
L 297.24094 54.326132 
L 297.56955 54.595215 
L 298.88399 56.920819 
L 299.2126 56.860294 
L 299.54121 57.001201 
L 300.19843 57.912288 
L 300.52704 58.689038 
L 300.85565 58.941108 
L 301.18426 59.358727 
L 302.4987 61.764917 
L 303.15592 62.589654 
L 303.48453 62.940342 
L 303.81314 63.463269 
L 304.14175 63.774374 
L 304.47036 63.930852 
L 304.79897 63.901978 
L 305.12758 64.269923 
L 305.45619 64.365714 
L 306.11341 63.971091 
L 306.44202 63.927883 
L 306.77063 63.549834 
L 307.09924 63.35988 
L 307.75646 62.641468 
L 308.08507 62.575775 
L 308.41368 62.360835 
L 310.05673 62.519537 
L 311.04256 61.186356 
L 311.69978 59.805405 
L 313.01422 57.040667 
L 313.34283 56.518601 
L 313.67144 56.360309 
L 314.00005 55.987625 
L 314.98588 56.580237 
L 315.6431 55.910887 
L 315.97171 55.696731 
L 316.30032 55.2556 
L 317.28615 55.092887 
L 317.61476 55.179464 
L 317.94337 55.387373 
L 318.27198 56.059162 
L 318.60059 56.46791 
L 319.58642 56.773373 
L 320.24364 56.795328 
L 320.57225 56.390458 
L 320.90086 56.190388 
L 321.22947 55.729892 
L 321.88669 55.354459 
L 323.52974 52.792005 
L 324.84418 51.516974 
L 325.17279 50.928954 
L 325.83001 50.845777 
L 326.15862 50.51345 
L 327.47306 48.284044 
L 328.13028 48.15694 
L 328.45889 48.268618 
L 328.7875 48.532707 
L 329.11611 48.548272 
L 329.77333 48.131189 
L 330.10194 48.177141 
L 330.75916 47.952497 
L 331.41638 47.550555 
L 332.0736 47.785769 
L 332.40221 47.750097 
L 333.05943 47.130748 
L 333.38804 46.644884 
L 334.37387 44.552612 
L 335.68831 43.14556 
L 336.34553 41.8338 
L 336.67414 41.554471 
L 337.00275 41.687152 
L 337.33136 41.648802 
L 337.65997 41.731955 
L 337.98858 41.351724 
L 338.31719 41.469492 
L 338.97441 41.394083 
L 339.63163 41.618288 
L 340.28885 41.577099 
L 340.61746 41.311861 
L 340.94607 41.191047 
L 341.27468 41.330973 
L 341.60329 41.166906 
L 342.91773 37.935103 
L 343.24634 37.652344 
L 343.57495 36.969495 
L 343.90356 36.843864 
L 344.56078 36.920185 
L 344.88939 37.22042 
L 345.218 37.338873 
L 345.54661 37.789222 
L 346.20383 38.104587 
L 346.86105 38.73366 
L 347.84688 40.243015 
L 348.5041 39.948887 
L 348.83271 39.960627 
L 349.16132 39.725792 
L 349.48993 39.759826 
L 350.47576 40.330144 
L 350.80437 40.871298 
L 351.46159 41.576177 
L 351.7902 42.021151 
L 353.43325 45.823636 
L 354.09047 48.561235 
L 355.0763 51.462656 
L 355.40491 52.221947 
L 356.06213 55.205485 
L 358.3624 66.396575 
L 359.01962 69.777951 
L 360.00545 74.465239 
L 360.99128 79.478297 
L 361.6485 82.065269 
L 362.63433 85.028457 
L 364.60599 89.453278 
L 365.59182 91.699342 
L 367.56348 99.926623 
L 369.53514 108.796596 
L 371.5068 118.080101 
L 372.49263 121.815849 
L 373.47846 125.596521 
L 374.13568 127.64303 
L 375.77873 134.499284 
L 376.43595 137.183764 
L 377.75039 144.212905 
L 378.40761 147.436226 
L 379.72205 151.41168 
L 380.37927 153.265365 
L 381.03649 155.157313 
L 382.67954 159.418967 
L 383.99398 164.372554 
L 384.97981 166.678518 
L 385.63703 167.508564 
L 385.96564 167.624255 
L 386.62286 168.426553 
L 387.60869 170.501621 
L 388.26591 171.649034 
L 388.92313 173.266043 
L 390.89479 178.385974 
L 391.88062 181.390823 
L 392.20923 182.705806 
L 392.53784 183.302576 
L 392.86645 183.486817 
L 393.52367 184.951036 
L 394.18089 186.890837 
L 394.5095 187.837536 
L 395.16672 190.211601 
L 396.80977 195.33575 
L 397.7956 198.543181 
L 398.78143 201.722032 
L 399.76726 206.44166 
L 401.0817 211.695027 
L 401.73892 214.458963 
L 402.39614 216.461618 
L 403.38197 219.15559 
L 404.3678 222.713517 
L 405.02502 224.361404 
L 406.01085 226.700592 
L 406.33946 227.294689 
L 407.32529 229.917815 
L 407.98251 231.506365 
L 408.63973 233.854541 
L 409.29695 236.695615 
L 409.62556 237.425063 
L 410.61139 240.566958 
L 410.61139 240.566958 
" clip-path="url(#pe66529703e)" style="fill: none; stroke: #1f77b4; stroke-width: 1.5; stroke-linecap: square"/>
   </g>
   <g id="patch_3">
    <path d="M 82.33 266.245 
L 82.33 25.92 
" style="fill: none; stroke: #000000; stroke-width: 0.8; stroke-linejoin: miter; stroke-linecap: square"/>
   </g>
   <g id="patch_4">
    <path d="M 410.94 266.245 
L 410.94 25.92 
" style="fill: none; stroke: #000000; stroke-width: 0.8; stroke-linejoin: miter; stroke-linecap: square"/>
   </g>
   <g id="patch_5">
    <path d="M 82.33 266.245 
L 410.94 266.245 
" style="fill: none; stroke: #000000; stroke-width: 0.8; stroke-linejoin: miter; stroke-linecap: square"/>
   </g>
   <g id="patch_6">
    <path d="M 82.33 25.92 
L 410.94 25.92 
" style="fill: none; stroke: #000000; stroke-width: 0.8; stroke-linejoin: miter; stroke-linecap: square"/>
   </g>
  </g>
 </g>
 <defs>
  <clipPath id="pe66529703e">
   <rect x="82.33" y="25.92" width="328.61" height="240.325"/>
  </clipPath>
 </defs>
</svg>
