<?xml version="1.0" encoding="utf-8" standalone="no"?>
<!DOCTYPE svg PUBLIC "-//W3C//DTD SVG 1.1//EN"
  "http://www.w3.org/Graphics/SVG/1.1/DTD/svg11.dtd">
<svg xmlns:xlink="http://www.w3.org/1999/xlink" width="460.8pt" height="345.6pt" viewBox="0 0 460.8 345.6" xmlns="http://www.w3.org/2000/svg" version="1.1">
 <metadata>
  <rdf:RDF xmlns:dc="http://purl.org/dc/elements/1.1/" xmlns:cc="http://creativecommons.org/ns#" xmlns:rdf="http://www.w3.org/1999/02/22-rdf-syntax-ns#">
   <cc:Work>
    <dc:type rdf:resource="http://purl.org/dc/dcmitype/StillImage"/>
    <dc:date>2025-11-24T22:56:21.148174</dc:date>
    <dc:format>image/svg+xml</dc:format>
    <dc:creator>
     <cc:Agent>
      <dc:title>Matplotlib v3.10.6, https://matplotlib.org/</dc:title>
     </cc:Agent>
    </dc:creator>
   </cc:Work>
  </rdf:RDF>
 </metadata>
 <defs>
  <style type="text/css">*{stroke-linejoin: round; stroke-linecap: butt}</style>
 </defs>
 <g id="figure_1">
  <g id="patch_1">
   <path d="M 0 345.6 
L 460.8 345.6 
L 460.8 0 
L 0 0 
z
" style="fill: #ffffff"/>
  </g>
  <g id="axes_1">
   <g id="patch_2">
    <path d="M 57.6 307.584 
L 414.72 307.584 
L 414.72 41.472 
L 57.6 41.472 
z
" style="fill: #ffffff"/>
   </g>
   <g id="matplotlib.axis_1">
    <g id="xtick_1">
     <g id="line2d_1">
      <defs>
       <path id="mbbd11e6838" d="M 0 0 
L 0 3.5 
" style="stroke: #000000; stroke-width: 0.8"/>
      </defs>
      <g>
       <use xlink:href="#mbbd11e6838" x="73.832727" y="307.584" style="stroke: #000000; stroke-width: 0.8"/>
      </g>
     </g>
     <g id="text_1">
      <!-- 0 -->
      <g transform="translate(70.651477 322.182437) scale(0.1 -0.1)">
       <defs>
        <path id="DejaVuSans-30" d="M 2034 4250 
Q 1547 4250 1301 3770 
Q 1056 3291 1056 2328 
Q 1056 1369 1301 889 
Q 1547 409 2034 409 
Q 2525 409 2770 889 
Q 3016 1369 3016 2328 
Q 3016 3291 2770 3770 
Q 2525 4250 2034 4250 
z
M 2034 4750 
Q 2819 4750 3233 4129 
Q 3647 3509 3647 2328 
Q 3647 1150 3233 529 
Q 2819 -91 2034 -91 
Q 1250 -91 836 529 
Q 422 1150 422 2328 
Q 422 3509 836 4129 
Q 1250 4750 2034 4750 
z
" transform="scale(0.015625)"/>
       </defs>
       <use xlink:href="#DejaVuSans-30"/>
      </g>
     </g>
    </g>
    <g id="xtick_2">
     <g id="line2d_2">
      <g>
       <use xlink:href="#mbbd11e6838" x="138.828632" y="307.584" style="stroke: #000000; stroke-width: 0.8"/>
      </g>
     </g>
     <g id="text_2">
      <!-- 200 -->
      <g transform="translate(129.284882 322.182437) scale(0.1 -0.1)">
       <defs>
        <path id="DejaVuSans-32" d="M 1228 531 
L 3431 531 
L 3431 0 
L 469 0 
L 469 531 
Q 828 903 1448 1529 
Q 2069 2156 2228 2338 
Q 2531 2678 2651 2914 
Q 2772 3150 2772 3378 
Q 2772 3750 2511 3984 
Q 2250 4219 1831 4219 
Q 1534 4219 1204 4116 
Q 875 4013 500 3803 
L 500 4441 
Q 881 4594 1212 4672 
Q 1544 4750 1819 4750 
Q 2544 4750 2975 4387 
Q 3406 4025 3406 3419 
Q 3406 3131 3298 2873 
Q 3191 2616 2906 2266 
Q 2828 2175 2409 1742 
Q 1991 1309 1228 531 
z
" transform="scale(0.015625)"/>
       </defs>
       <use xlink:href="#DejaVuSans-32"/>
       <use xlink:href="#DejaVuSans-30" transform="translate(63.623047 0)"/>
       <use xlink:href="#DejaVuSans-30" transform="translate(127.246094 0)"/>
      </g>
     </g>
    </g>
    <g id="xtick_3">
     <g id="line2d_3">
      <g>
       <use xlink:href="#mbbd11e6838" x="203.824537" y="307.584" style="stroke: #000000; stroke-width: 0.8"/>
      </g>
     </g>
     <g id="text_3">
      <!-- 400 -->
      <g transform="translate(194.280787 322.182437) scale(0.1 -0.1)">
       <defs>
        <path id="DejaVuSans-34" d="M 2419 4116 
L 825 1625 
L 2419 1625 
L 2419 4116 
z
M 2253 4666 
L 3047 4666 
L 3047 1625 
L 3713 1625 
L 3713 1100 
L 3047 1100 
L 3047 0 
L 2419 0 
L 2419 1100 
L 313 1100 
L 313 1709 
L 2253 4666 
z
" transform="scale(0.015625)"/>
       </defs>
       <use xlink:href="#DejaVuSans-34"/>
       <use xlink:href="#DejaVuSans-30" transform="translate(63.623047 0)"/>
       <use xlink:href="#DejaVuSans-30" transform="translate(127.246094 0)"/>
      </g>
     </g>
    </g>
    <g id="xtick_4">
     <g id="line2d_4">
      <g>
       <use xlink:href="#mbbd11e6838" x="268.820442" y="307.584" style="stroke: #000000; stroke-width: 0.8"/>
      </g>
     </g>
     <g id="text_4">
      <!-- 600 -->
      <g transform="translate(259.276692 322.182437) scale(0.1 -0.1)">
       <defs>
        <path id="DejaVuSans-36" d="M 2113 2584 
Q 1688 2584 1439 2293 
Q 1191 2003 1191 1497 
Q 1191 994 1439 701 
Q 1688 409 2113 409 
Q 2538 409 2786 701 
Q 3034 994 3034 1497 
Q 3034 2003 2786 2293 
Q 2538 2584 2113 2584 
z
M 3366 4563 
L 3366 3988 
Q 3128 4100 2886 4159 
Q 2644 4219 2406 4219 
Q 1781 4219 1451 3797 
Q 1122 3375 1075 2522 
Q 1259 2794 1537 2939 
Q 1816 3084 2150 3084 
Q 2853 3084 3261 2657 
Q 3669 2231 3669 1497 
Q 3669 778 3244 343 
Q 2819 -91 2113 -91 
Q 1303 -91 875 529 
Q 447 1150 447 2328 
Q 447 3434 972 4092 
Q 1497 4750 2381 4750 
Q 2619 4750 2861 4703 
Q 3103 4656 3366 4563 
z
" transform="scale(0.015625)"/>
       </defs>
       <use xlink:href="#DejaVuSans-36"/>
       <use xlink:href="#DejaVuSans-30" transform="translate(63.623047 0)"/>
       <use xlink:href="#DejaVuSans-30" transform="translate(127.246094 0)"/>
      </g>
     </g>
    </g>
    <g id="xtick_5">
     <g id="line2d_5">
      <g>
       <use xlink:href="#mbbd11e6838" x="333.816347" y="307.584" style="stroke: #000000; stroke-width: 0.8"/>
      </g>
     </g>
     <g id="text_5">
      <!-- 800 -->
      <g transform="translate(324.272597 322.182437) scale(0.1 -0.1)">
       <defs>
        <path id="DejaVuSans-38" d="M 2034 2216 
Q 1584 2216 1326 1975 
Q 1069 1734 1069 1313 
Q 1069 891 1326 650 
Q 1584 409 2034 409 
Q 2484 409 2743 651 
Q 3003 894 3003 1313 
Q 3003 1734 2745 1975 
Q 2488 2216 2034 2216 
z
M 1403 2484 
Q 997 2584 770 2862 
Q 544 3141 544 3541 
Q 544 4100 942 4425 
Q 1341 4750 2034 4750 
Q 2731 4750 3128 4425 
Q 3525 4100 3525 3541 
Q 3525 3141 3298 2862 
Q 3072 2584 2669 2484 
Q 3125 2378 3379 2068 
Q 3634 1759 3634 1313 
Q 3634 634 3220 271 
Q 2806 -91 2034 -91 
Q 1263 -91 848 271 
Q 434 634 434 1313 
Q 434 1759 690 2068 
Q 947 2378 1403 2484 
z
M 1172 3481 
Q 1172 3119 1398 2916 
Q 1625 2713 2034 2713 
Q 2441 2713 2670 2916 
Q 2900 3119 2900 3481 
Q 2900 3844 2670 4047 
Q 2441 4250 2034 4250 
Q 1625 4250 1398 4047 
Q 1172 3844 1172 3481 
z
" transform="scale(0.015625)"/>
       </defs>
       <use xlink:href="#DejaVuSans-38"/>
       <use xlink:href="#DejaVuSans-30" transform="translate(63.623047 0)"/>
       <use xlink:href="#DejaVuSans-30" transform="translate(127.246094 0)"/>
      </g>
     </g>
    </g>
    <g id="xtick_6">
     <g id="line2d_6">
      <g>
       <use xlink:href="#mbbd11e6838" x="398.812252" y="307.584" style="stroke: #000000; stroke-width: 0.8"/>
      </g>
     </g>
     <g id="text_6">
      <!-- 1000 -->
      <g transform="translate(386.087252 322.182437) scale(0.1 -0.1)">
       <defs>
        <path id="DejaVuSans-31" d="M 794 531 
L 1825 531 
L 1825 4091 
L 703 3866 
L 703 4441 
L 1819 4666 
L 2450 4666 
L 2450 531 
L 3481 531 
L 3481 0 
L 794 0 
L 794 531 
z
" transform="scale(0.015625)"/>
       </defs>
       <use xlink:href="#DejaVuSans-31"/>
       <use xlink:href="#DejaVuSans-30" transform="translate(63.623047 0)"/>
       <use xlink:href="#DejaVuSans-30" transform="translate(127.246094 0)"/>
       <use xlink:href="#DejaVuSans-30" transform="translate(190.869141 0)"/>
      </g>
     </g>
    </g>
    <g id="text_7">
     <!-- Schritt k -->
     <g transform="translate(215.218594 335.860562) scale(0.1 -0.1)">
      <defs>
       <path id="DejaVuSans-53" d="M 3425 4513 
L 3425 3897 
Q 3066 4069 2747 4153 
Q 2428 4238 2131 4238 
Q 1616 4238 1336 4038 
Q 1056 3838 1056 3469 
Q 1056 3159 1242 3001 
Q 1428 2844 1947 2747 
L 2328 2669 
Q 3034 2534 3370 2195 
Q 3706 1856 3706 1288 
Q 3706 609 3251 259 
Q 2797 -91 1919 -91 
Q 1588 -91 1214 -16 
Q 841 59 441 206 
L 441 856 
Q 825 641 1194 531 
Q 1563 422 1919 422 
Q 2459 422 2753 634 
Q 3047 847 3047 1241 
Q 3047 1584 2836 1778 
Q 2625 1972 2144 2069 
L 1759 2144 
Q 1053 2284 737 2584 
Q 422 2884 422 3419 
Q 422 4038 858 4394 
Q 1294 4750 2059 4750 
Q 2388 4750 2728 4690 
Q 3069 4631 3425 4513 
z
" transform="scale(0.015625)"/>
       <path id="DejaVuSans-63" d="M 3122 3366 
L 3122 2828 
Q 2878 2963 2633 3030 
Q 2388 3097 2138 3097 
Q 1578 3097 1268 2742 
Q 959 2388 959 1747 
Q 959 1106 1268 751 
Q 1578 397 2138 397 
Q 2388 397 2633 464 
Q 2878 531 3122 666 
L 3122 134 
Q 2881 22 2623 -34 
Q 2366 -91 2075 -91 
Q 1284 -91 818 406 
Q 353 903 353 1747 
Q 353 2603 823 3093 
Q 1294 3584 2113 3584 
Q 2378 3584 2631 3529 
Q 2884 3475 3122 3366 
z
" transform="scale(0.015625)"/>
       <path id="DejaVuSans-68" d="M 3513 2113 
L 3513 0 
L 2938 0 
L 2938 2094 
Q 2938 2591 2744 2837 
Q 2550 3084 2163 3084 
Q 1697 3084 1428 2787 
Q 1159 2491 1159 1978 
L 1159 0 
L 581 0 
L 581 4863 
L 1159 4863 
L 1159 2956 
Q 1366 3272 1645 3428 
Q 1925 3584 2291 3584 
Q 2894 3584 3203 3211 
Q 3513 2838 3513 2113 
z
" transform="scale(0.015625)"/>
       <path id="DejaVuSans-72" d="M 2631 2963 
Q 2534 3019 2420 3045 
Q 2306 3072 2169 3072 
Q 1681 3072 1420 2755 
Q 1159 2438 1159 1844 
L 1159 0 
L 581 0 
L 581 3500 
L 1159 3500 
L 1159 2956 
Q 1341 3275 1631 3429 
Q 1922 3584 2338 3584 
Q 2397 3584 2469 3576 
Q 2541 3569 2628 3553 
L 2631 2963 
z
" transform="scale(0.015625)"/>
       <path id="DejaVuSans-69" d="M 603 3500 
L 1178 3500 
L 1178 0 
L 603 0 
L 603 3500 
z
M 603 4863 
L 1178 4863 
L 1178 4134 
L 603 4134 
L 603 4863 
z
" transform="scale(0.015625)"/>
       <path id="DejaVuSans-74" d="M 1172 4494 
L 1172 3500 
L 2356 3500 
L 2356 3053 
L 1172 3053 
L 1172 1153 
Q 1172 725 1289 603 
Q 1406 481 1766 481 
L 2356 481 
L 2356 0 
L 1766 0 
Q 1100 0 847 248 
Q 594 497 594 1153 
L 594 3053 
L 172 3053 
L 172 3500 
L 594 3500 
L 594 4494 
L 1172 4494 
z
" transform="scale(0.015625)"/>
       <path id="DejaVuSans-20" transform="scale(0.015625)"/>
       <path id="DejaVuSans-6b" d="M 581 4863 
L 1159 4863 
L 1159 1991 
L 2875 3500 
L 3609 3500 
L 1753 1863 
L 3688 0 
L 2938 0 
L 1159 1709 
L 1159 0 
L 581 0 
L 581 4863 
z
" transform="scale(0.015625)"/>
      </defs>
      <use xlink:href="#DejaVuSans-53"/>
      <use xlink:href="#DejaVuSans-63" transform="translate(63.476562 0)"/>
      <use xlink:href="#DejaVuSans-68" transform="translate(118.457031 0)"/>
      <use xlink:href="#DejaVuSans-72" transform="translate(181.835938 0)"/>
      <use xlink:href="#DejaVuSans-69" transform="translate(222.949219 0)"/>
      <use xlink:href="#DejaVuSans-74" transform="translate(250.732422 0)"/>
      <use xlink:href="#DejaVuSans-74" transform="translate(289.941406 0)"/>
      <use xlink:href="#DejaVuSans-20" transform="translate(329.150391 0)"/>
      <use xlink:href="#DejaVuSans-6b" transform="translate(360.9375 0)"/>
     </g>
    </g>
   </g>
   <g id="matplotlib.axis_2">
    <g id="ytick_1">
     <g id="line2d_7">
      <defs>
       <path id="mb3806a5516" d="M 0 0 
L -3.5 0 
" style="stroke: #000000; stroke-width: 0.8"/>
      </defs>
      <g>
       <use xlink:href="#mb3806a5516" x="57.6" y="301.117357" style="stroke: #000000; stroke-width: 0.8"/>
      </g>
     </g>
     <g id="text_8">
      <!-- −3 -->
      <g transform="translate(35.857813 304.916575) scale(0.1 -0.1)">
       <defs>
        <path id="DejaVuSans-2212" d="M 678 2272 
L 4684 2272 
L 4684 1741 
L 678 1741 
L 678 2272 
z
" transform="scale(0.015625)"/>
        <path id="DejaVuSans-33" d="M 2597 2516 
Q 3050 2419 3304 2112 
Q 3559 1806 3559 1356 
Q 3559 666 3084 287 
Q 2609 -91 1734 -91 
Q 1441 -91 1130 -33 
Q 819 25 488 141 
L 488 750 
Q 750 597 1062 519 
Q 1375 441 1716 441 
Q 2309 441 2620 675 
Q 2931 909 2931 1356 
Q 2931 1769 2642 2001 
Q 2353 2234 1838 2234 
L 1294 2234 
L 1294 2753 
L 1863 2753 
Q 2328 2753 2575 2939 
Q 2822 3125 2822 3475 
Q 2822 3834 2567 4026 
Q 2313 4219 1838 4219 
Q 1578 4219 1281 4162 
Q 984 4106 628 3988 
L 628 4550 
Q 988 4650 1302 4700 
Q 1616 4750 1894 4750 
Q 2613 4750 3031 4423 
Q 3450 4097 3450 3541 
Q 3450 3153 3228 2886 
Q 3006 2619 2597 2516 
z
" transform="scale(0.015625)"/>
       </defs>
       <use xlink:href="#DejaVuSans-2212"/>
       <use xlink:href="#DejaVuSans-33" transform="translate(83.789062 0)"/>
      </g>
     </g>
    </g>
    <g id="ytick_2">
     <g id="line2d_8">
      <g>
       <use xlink:href="#mb3806a5516" x="57.6" y="264.641675" style="stroke: #000000; stroke-width: 0.8"/>
      </g>
     </g>
     <g id="text_9">
      <!-- −2 -->
      <g transform="translate(35.857813 268.440894) scale(0.1 -0.1)">
       <use xlink:href="#DejaVuSans-2212"/>
       <use xlink:href="#DejaVuSans-32" transform="translate(83.789062 0)"/>
      </g>
     </g>
    </g>
    <g id="ytick_3">
     <g id="line2d_9">
      <g>
       <use xlink:href="#mb3806a5516" x="57.6" y="228.165993" style="stroke: #000000; stroke-width: 0.8"/>
      </g>
     </g>
     <g id="text_10">
      <!-- −1 -->
      <g transform="translate(35.857813 231.965212) scale(0.1 -0.1)">
       <use xlink:href="#DejaVuSans-2212"/>
       <use xlink:href="#DejaVuSans-31" transform="translate(83.789062 0)"/>
      </g>
     </g>
    </g>
    <g id="ytick_4">
     <g id="line2d_10">
      <g>
       <use xlink:href="#mb3806a5516" x="57.6" y="191.690311" style="stroke: #000000; stroke-width: 0.8"/>
      </g>
     </g>
     <g id="text_11">
      <!-- 0 -->
      <g transform="translate(44.2375 195.48953) scale(0.1 -0.1)">
       <use xlink:href="#DejaVuSans-30"/>
      </g>
     </g>
    </g>
    <g id="ytick_5">
     <g id="line2d_11">
      <g>
       <use xlink:href="#mb3806a5516" x="57.6" y="155.214629" style="stroke: #000000; stroke-width: 0.8"/>
      </g>
     </g>
     <g id="text_12">
      <!-- 1 -->
      <g transform="translate(44.2375 159.013848) scale(0.1 -0.1)">
       <use xlink:href="#DejaVuSans-31"/>
      </g>
     </g>
    </g>
    <g id="ytick_6">
     <g id="line2d_12">
      <g>
       <use xlink:href="#mb3806a5516" x="57.6" y="118.738948" style="stroke: #000000; stroke-width: 0.8"/>
      </g>
     </g>
     <g id="text_13">
      <!-- 2 -->
      <g transform="translate(44.2375 122.538166) scale(0.1 -0.1)">
       <use xlink:href="#DejaVuSans-32"/>
      </g>
     </g>
    </g>
    <g id="ytick_7">
     <g id="line2d_13">
      <g>
       <use xlink:href="#mb3806a5516" x="57.6" y="82.263266" style="stroke: #000000; stroke-width: 0.8"/>
      </g>
     </g>
     <g id="text_14">
      <!-- 3 -->
      <g transform="translate(44.2375 86.062484) scale(0.1 -0.1)">
       <use xlink:href="#DejaVuSans-33"/>
      </g>
     </g>
    </g>
    <g id="ytick_8">
     <g id="line2d_14">
      <g>
       <use xlink:href="#mb3806a5516" x="57.6" y="45.787584" style="stroke: #000000; stroke-width: 0.8"/>
      </g>
     </g>
     <g id="text_15">
      <!-- 4 -->
      <g transform="translate(44.2375 49.586803) scale(0.1 -0.1)">
       <use xlink:href="#DejaVuSans-34"/>
      </g>
     </g>
    </g>
    <g id="text_16">
     <!-- x(k) -->
     <g transform="translate(29.778125 184.28425) rotate(-90) scale(0.1 -0.1)">
      <defs>
       <path id="DejaVuSans-78" d="M 3513 3500 
L 2247 1797 
L 3578 0 
L 2900 0 
L 1881 1375 
L 863 0 
L 184 0 
L 1544 1831 
L 300 3500 
L 978 3500 
L 1906 2253 
L 2834 3500 
L 3513 3500 
z
" transform="scale(0.015625)"/>
       <path id="DejaVuSans-28" d="M 1984 4856 
Q 1566 4138 1362 3434 
Q 1159 2731 1159 2009 
Q 1159 1288 1364 580 
Q 1569 -128 1984 -844 
L 1484 -844 
Q 1016 -109 783 600 
Q 550 1309 550 2009 
Q 550 2706 781 3412 
Q 1013 4119 1484 4856 
L 1984 4856 
z
" transform="scale(0.015625)"/>
       <path id="DejaVuSans-29" d="M 513 4856 
L 1013 4856 
Q 1481 4119 1714 3412 
Q 1947 2706 1947 2009 
Q 1947 1309 1714 600 
Q 1481 -109 1013 -844 
L 513 -844 
Q 928 -128 1133 580 
Q 1338 1288 1338 2009 
Q 1338 2731 1133 3434 
Q 928 4138 513 4856 
z
" transform="scale(0.015625)"/>
      </defs>
      <use xlink:href="#DejaVuSans-78"/>
      <use xlink:href="#DejaVuSans-28" transform="translate(59.179688 0)"/>
      <use xlink:href="#DejaVuSans-6b" transform="translate(98.193359 0)"/>
      <use xlink:href="#DejaVuSans-29" transform="translate(156.103516 0)"/>
     </g>
    </g>
   </g>
   <g id="line2d_15">
    <path d="M 73.832727 166.066129 
L 74.157707 186.859375 
L 74.482686 189.278206 
L 74.807666 178.152312 
L 75.132645 187.454112 
L 75.457625 206.549255 
L 75.782604 139.693493 
L 76.107584 115.796187 
L 76.432563 130.722185 
L 76.757543 228.225204 
L 77.082523 176.593107 
L 77.407502 146.032255 
L 77.732482 191.706311 
L 78.057461 170.542833 
L 78.382441 197.591856 
L 78.70742 153.910916 
L 79.0324 214.265569 
L 79.357379 177.740412 
L 79.682359 229.304998 
L 80.007338 249.828892 
L 80.332318 178.215118 
L 80.657297 187.396716 
L 80.982277 246.057988 
L 81.307256 218.821222 
L 81.632236 214.727231 
L 81.957215 200.668666 
L 82.282195 253.981581 
L 82.607174 272.129391 
L 82.932154 154.241775 
L 83.257133 200.042649 
L 83.582113 171.145062 
L 84.232072 188.513595 
L 84.557052 171.000431 
L 84.882031 108.665406 
L 85.207011 175.253861 
L 85.53199 205.231329 
L 85.85697 210.35351 
L 86.181949 213.484293 
L 86.506929 234.327278 
L 86.831908 201.510705 
L 87.481867 221.76455 
L 87.806847 179.562875 
L 88.131826 192.019612 
L 88.456806 163.66033 
L 89.106765 205.439911 
L 89.431744 135.125889 
L 89.756724 214.228141 
L 90.081704 196.821447 
L 90.406683 169.781412 
L 90.731663 190.495259 
L 91.056642 191.001153 
L 91.381622 218.022634 
L 91.706601 199.207362 
L 92.031581 202.559933 
L 92.35656 207.797763 
L 92.68154 144.672844 
L 93.006519 171.098739 
L 93.331499 148.523985 
L 93.656478 183.160839 
L 93.981458 150.516482 
L 94.306437 104.395681 
L 94.956396 174.389875 
L 95.281376 179.378148 
L 95.606355 160.207467 
L 95.931335 182.563501 
L 96.256314 140.130476 
L 96.581294 154.859589 
L 96.906274 141.224566 
L 97.231253 143.381204 
L 97.556233 131.283416 
L 97.881212 162.403741 
L 98.206192 152.994317 
L 98.531171 156.770942 
L 98.856151 154.762373 
L 99.18113 154.336529 
L 99.50611 153.721354 
L 99.831089 196.393743 
L 100.156069 186.43025 
L 100.481048 162.193715 
L 100.806028 106.70382 
L 101.131007 253.122469 
L 101.455987 167.084569 
L 101.780966 184.585132 
L 102.105946 194.932736 
L 102.430925 187.935571 
L 102.755905 102.07681 
L 103.080885 214.735053 
L 103.405864 184.363819 
L 103.730844 116.489356 
L 104.055823 162.946891 
L 104.380803 174.769107 
L 104.705782 169.373475 
L 105.030762 77.584124 
L 105.355741 172.558669 
L 105.680721 148.736897 
L 106.0057 190.448794 
L 106.33068 131.210155 
L 106.655659 166.555522 
L 106.980639 89.129722 
L 107.305618 53.568 
L 107.630598 106.499373 
L 107.955577 125.675534 
L 108.605536 177.691053 
L 108.930516 159.339123 
L 109.255495 167.095688 
L 109.580475 150.896395 
L 109.905455 158.894223 
L 110.230434 205.1066 
L 110.555414 131.318296 
L 110.880393 198.526653 
L 111.205373 192.154957 
L 111.530352 194.402839 
L 111.855332 160.9047 
L 112.180311 160.307359 
L 112.505291 175.77536 
L 112.83027 118.995971 
L 113.15525 164.537408 
L 113.480229 148.448485 
L 113.805209 185.374963 
L 114.130188 173.164021 
L 114.455168 135.011498 
L 114.780147 171.763122 
L 115.105127 170.151681 
L 115.430106 148.595532 
L 115.755086 148.864737 
L 116.080066 196.004094 
L 116.405045 139.084556 
L 116.730025 136.016154 
L 117.379984 188.747308 
L 117.704963 99.700961 
L 118.029943 191.673667 
L 118.354922 167.396183 
L 118.679902 166.842043 
L 119.004881 233.964755 
L 119.329861 224.274508 
L 119.65484 182.694231 
L 119.97982 175.719456 
L 120.304799 251.783868 
L 120.954758 182.811529 
L 121.279738 190.004653 
L 121.604717 178.01183 
L 121.929697 259.356029 
L 122.254676 279.421616 
L 122.579656 180.69204 
L 122.904636 192.365228 
L 123.229615 140.963817 
L 123.554595 157.865307 
L 123.879574 242.187224 
L 124.204554 203.881653 
L 124.529533 215.610001 
L 124.854513 204.369532 
L 125.179492 164.23342 
L 125.504472 207.449074 
L 125.829451 210.902319 
L 126.47941 154.707167 
L 126.80439 210.370589 
L 127.129369 169.502196 
L 127.454349 196.70319 
L 127.779328 189.408434 
L 128.104308 229.164646 
L 128.429287 205.393972 
L 128.754267 106.016416 
L 129.404226 177.00838 
L 129.729206 160.376094 
L 130.054185 160.671051 
L 130.379165 175.715955 
L 130.704144 182.175148 
L 131.029124 226.195372 
L 131.354103 249.204331 
L 131.679083 164.405795 
L 132.004062 188.202292 
L 132.329042 151.828652 
L 132.654021 169.782139 
L 132.979001 229.597999 
L 133.30398 214.638586 
L 133.62896 265.549675 
L 133.953939 185.356427 
L 134.278919 242.533676 
L 134.603898 211.79415 
L 134.928878 199.66421 
L 135.253857 214.690343 
L 135.578837 273.224398 
L 135.903817 241.743674 
L 136.228796 222.131188 
L 136.553776 266.056167 
L 136.878755 200.85188 
L 137.203735 178.334634 
L 137.853694 218.219621 
L 138.503653 233.445864 
L 138.828632 206.557932 
L 139.153612 235.674801 
L 139.478591 184.111312 
L 139.803571 246.357728 
L 140.12855 228.661039 
L 140.45353 249.343159 
L 140.778509 241.508351 
L 141.103489 222.389031 
L 141.428468 174.221375 
L 141.753448 176.334969 
L 142.078428 211.37784 
L 142.403407 146.616563 
L 142.728387 170.330273 
L 143.053366 215.79771 
L 143.378346 230.266771 
L 143.703325 230.061004 
L 144.028305 192.356557 
L 144.353284 197.7057 
L 144.678264 232.82761 
L 145.003243 193.267382 
L 145.328223 247.961861 
L 145.653202 178.717406 
L 146.303161 156.391966 
L 146.628141 192.756201 
L 146.95312 202.083266 
L 147.2781 180.741449 
L 147.603079 219.081715 
L 147.928059 180.645153 
L 148.253038 124.578868 
L 148.578018 158.169342 
L 148.902998 168.290571 
L 149.552957 215.353804 
L 149.877936 147.936038 
L 150.202916 163.347347 
L 150.527895 136.573126 
L 150.852875 209.251191 
L 151.177854 210.764142 
L 151.502834 224.405992 
L 151.827813 177.275261 
L 152.152793 170.197409 
L 152.477772 281.622744 
L 152.802752 201.30629 
L 153.127731 245.946291 
L 153.452711 189.532196 
L 153.77769 170.30782 
L 154.10267 203.250906 
L 154.427649 221.671205 
L 154.752629 218.514488 
L 155.077609 189.855033 
L 155.402588 198.360926 
L 155.727568 237.501099 
L 156.052547 228.038502 
L 156.377527 133.093073 
L 156.702506 183.476545 
L 157.027486 205.658568 
L 157.352465 103.348556 
L 157.677445 191.956199 
L 158.002424 193.897078 
L 158.652383 137.258332 
L 158.977363 149.570594 
L 159.302342 200.21302 
L 159.627322 200.315085 
L 159.952301 234.735906 
L 160.277281 196.296229 
L 160.60226 138.575539 
L 160.92724 188.709989 
L 161.252219 176.150884 
L 161.577199 180.476266 
L 162.227158 125.272094 
L 162.877117 181.859744 
L 163.202097 178.623314 
L 163.527076 183.829685 
L 163.852056 201.411913 
L 164.177035 169.549469 
L 164.502015 190.815354 
L 164.826994 150.678619 
L 165.151974 208.193882 
L 165.476953 212.540995 
L 166.126912 156.592786 
L 166.451892 219.929565 
L 166.776871 149.003274 
L 167.42683 114.097602 
L 167.75181 121.913962 
L 168.07679 146.702119 
L 168.401769 216.743694 
L 168.726749 166.390674 
L 169.051728 218.99595 
L 169.376708 126.584246 
L 169.701687 208.344162 
L 170.026667 173.129543 
L 170.351646 189.964882 
L 170.676626 259.984805 
L 171.001605 137.905493 
L 171.326585 222.332222 
L 171.651564 172.333748 
L 171.976544 199.552628 
L 172.301523 200.691848 
L 172.626503 256.855807 
L 172.951482 192.004536 
L 173.276462 161.874094 
L 173.601441 191.69503 
L 173.926421 177.790881 
L 174.2514 261.923885 
L 174.57638 201.557319 
L 174.90136 167.685983 
L 175.226339 170.523163 
L 175.551319 252.88509 
L 175.876298 179.69846 
L 176.201278 197.723173 
L 176.526257 145.648723 
L 176.851237 182.606636 
L 177.176216 202.873754 
L 177.501196 172.703116 
L 177.826175 190.708732 
L 178.151155 140.255751 
L 178.801114 194.28102 
L 179.126093 234.197395 
L 179.451073 137.589501 
L 179.776052 185.050939 
L 180.101032 149.966709 
L 180.426011 133.23075 
L 180.750991 161.749996 
L 181.075971 222.869993 
L 181.40095 201.040965 
L 181.72593 216.424312 
L 182.050909 199.793691 
L 182.375889 231.924999 
L 182.700868 241.71679 
L 183.025848 171.068296 
L 183.350827 190.316071 
L 183.675807 141.690262 
L 184.000786 190.48017 
L 184.325766 207.348272 
L 184.650745 204.505167 
L 184.975725 209.777864 
L 185.300704 226.806025 
L 185.625684 176.23035 
L 185.950663 154.445917 
L 186.275643 245.621831 
L 186.600622 189.940283 
L 186.925602 263.01702 
L 187.250581 183.01126 
L 187.575561 280.751421 
L 188.22552 159.896596 
L 188.5505 186.105739 
L 188.875479 161.933992 
L 189.200459 213.72643 
L 189.525438 166.303432 
L 189.850418 237.659817 
L 190.175397 153.431685 
L 190.500377 224.640782 
L 190.825356 239.268422 
L 191.150336 150.272835 
L 191.800295 229.629683 
L 192.125274 198.878075 
L 192.450254 205.6226 
L 192.775233 206.737402 
L 193.100213 183.228589 
L 193.425192 194.978215 
L 193.750172 162.196269 
L 194.400131 229.710061 
L 194.725111 189.398196 
L 195.05009 179.487743 
L 195.37507 238.478523 
L 196.025029 210.721237 
L 196.350008 243.369942 
L 196.674988 191.916446 
L 196.999967 204.098155 
L 197.324947 199.381496 
L 197.649926 180.978238 
L 197.974906 169.73443 
L 198.299885 205.214831 
L 198.624865 274.280093 
L 198.949844 187.923356 
L 199.274824 264.834494 
L 199.599803 250.816173 
L 199.924783 179.17616 
L 200.249762 191.52018 
L 200.574742 182.163434 
L 200.899722 148.263885 
L 201.224701 229.218119 
L 201.549681 189.158765 
L 201.87466 200.540865 
L 202.19964 203.975745 
L 202.524619 227.344528 
L 202.849599 169.970017 
L 203.174578 152.229719 
L 203.499558 232.101044 
L 203.824537 253.176218 
L 204.149517 234.898585 
L 204.474496 183.695181 
L 204.799476 215.251916 
L 205.124455 172.666098 
L 205.449435 199.87002 
L 205.774414 165.823634 
L 206.099394 239.089614 
L 206.424373 172.845356 
L 206.749353 192.242554 
L 207.074333 165.525092 
L 207.399312 164.682535 
L 207.724292 164.195488 
L 208.049271 226.447781 
L 208.374251 166.096754 
L 208.69923 146.436195 
L 209.349189 182.009571 
L 209.674169 235.941961 
L 209.999148 248.127104 
L 210.324128 246.264021 
L 210.649107 153.943617 
L 210.974087 216.498126 
L 211.299066 206.4652 
L 211.624046 230.67941 
L 211.949025 234.690743 
L 212.274005 183.708358 
L 212.598984 201.467442 
L 212.923964 165.319614 
L 213.573923 152.584414 
L 213.898903 185.307892 
L 214.223882 178.866259 
L 214.548862 142.585731 
L 214.873841 195.433019 
L 215.198821 204.032869 
L 215.5238 183.051201 
L 215.84878 218.709113 
L 216.173759 206.779585 
L 216.498739 175.92923 
L 216.823718 194.075914 
L 217.148698 177.887265 
L 217.473677 178.388755 
L 217.798657 167.298131 
L 218.448616 156.903286 
L 218.773595 117.823027 
L 219.098575 143.313693 
L 219.423554 201.61881 
L 219.748534 164.531183 
L 220.073514 169.048757 
L 220.398493 233.614515 
L 220.723473 197.724354 
L 221.048452 200.218489 
L 221.373432 200.102903 
L 221.698411 168.406685 
L 222.023391 188.630915 
L 222.34837 178.541747 
L 222.67335 139.506759 
L 222.998329 171.134355 
L 223.323309 188.476694 
L 223.648288 184.099327 
L 223.973268 205.015906 
L 224.298247 206.073461 
L 224.623227 172.29976 
L 224.948206 204.644559 
L 225.273186 161.949352 
L 225.598165 190.956879 
L 225.923145 169.716273 
L 226.248124 260.195111 
L 226.573104 173.655547 
L 226.898084 185.456995 
L 227.223063 228.183245 
L 227.548043 195.579035 
L 227.873022 252.104976 
L 228.198002 201.865414 
L 228.522981 174.633051 
L 228.847961 221.799523 
L 229.17294 243.621328 
L 229.49792 211.547545 
L 229.822899 243.550246 
L 230.147879 205.487431 
L 230.472858 229.543916 
L 230.797838 170.271048 
L 231.122817 201.995753 
L 231.447797 171.303358 
L 231.772776 197.254715 
L 232.097756 187.81177 
L 232.422735 153.996011 
L 233.072695 213.067022 
L 233.397674 219.747299 
L 233.722654 177.108847 
L 234.047633 214.432012 
L 235.022572 197.104544 
L 235.347551 177.330953 
L 235.672531 227.084032 
L 235.99751 207.546881 
L 236.32249 125.257844 
L 236.972449 214.673999 
L 237.297428 206.887915 
L 237.622408 214.360126 
L 237.947387 200.983789 
L 238.272367 182.323882 
L 238.597346 208.097568 
L 238.922326 192.075284 
L 239.572285 125.442001 
L 239.897265 155.565937 
L 240.222244 199.181756 
L 240.547224 119.153402 
L 241.197183 255.989807 
L 241.522162 249.177031 
L 241.847142 238.508008 
L 242.497101 143.311689 
L 243.14706 238.110936 
L 243.472039 180.065809 
L 243.797019 182.305511 
L 244.121998 181.276824 
L 244.446978 154.125661 
L 244.771957 195.709718 
L 245.421916 165.519553 
L 246.071876 250.352687 
L 246.396855 164.465932 
L 246.721835 242.756104 
L 247.046814 212.885225 
L 247.371794 245.933586 
L 247.696773 139.379227 
L 248.021753 220.820837 
L 248.346732 215.939929 
L 248.671712 221.431132 
L 249.321671 190.462954 
L 249.64665 225.403754 
L 249.97163 242.985567 
L 250.296609 205.356692 
L 250.621589 245.675121 
L 250.946568 214.372598 
L 251.271548 172.133877 
L 251.596527 188.807047 
L 251.921507 194.917037 
L 252.246486 187.17054 
L 252.571466 224.138421 
L 252.896446 211.382786 
L 253.221425 125.071753 
L 253.546405 167.376051 
L 253.871384 246.913606 
L 254.196364 204.911287 
L 254.521343 236.672644 
L 255.171302 165.965515 
L 255.496282 157.566727 
L 255.821261 158.404823 
L 256.146241 170.769416 
L 256.47122 211.155936 
L 256.7962 172.654886 
L 257.121179 172.599779 
L 257.771138 231.635696 
L 258.096118 158.351745 
L 258.421097 178.030252 
L 259.071057 120.612048 
L 259.396036 161.973366 
L 259.721016 220.330497 
L 260.045995 181.195653 
L 260.370975 197.97728 
L 261.020934 173.399467 
L 261.345913 234.272407 
L 261.670893 246.480071 
L 261.995872 194.648133 
L 262.645831 158.979579 
L 262.970811 161.841253 
L 263.29579 114.33074 
L 263.62077 258.045077 
L 263.945749 155.347923 
L 264.270729 187.523134 
L 264.595708 183.025912 
L 264.920688 224.741114 
L 265.245667 149.699003 
L 265.570647 133.617683 
L 265.895627 136.162862 
L 266.220606 258.227937 
L 266.545586 165.064988 
L 267.195545 113.863592 
L 267.520524 184.087463 
L 267.845504 201.516435 
L 268.170483 207.690914 
L 268.495463 159.886413 
L 268.820442 196.58261 
L 269.470401 218.810086 
L 269.795381 189.024655 
L 270.12036 174.78752 
L 270.44534 183.611463 
L 270.770319 162.450104 
L 271.095299 160.637175 
L 271.420278 172.997086 
L 272.070238 96.353377 
L 272.395217 172.363359 
L 272.720197 140.527153 
L 273.045176 172.07587 
L 273.370156 163.919023 
L 273.695135 238.206431 
L 274.020115 226.709679 
L 274.345094 219.810727 
L 274.670074 155.883942 
L 274.995053 219.466737 
L 275.320033 217.553146 
L 275.645012 257.19748 
L 275.969992 224.827495 
L 276.294971 167.13965 
L 276.619951 230.097884 
L 277.919869 144.01322 
L 278.244848 182.292408 
L 278.569828 199.889219 
L 278.894808 176.623169 
L 279.219787 175.22565 
L 279.544767 141.403643 
L 279.869746 132.728917 
L 280.194726 99.441017 
L 280.519705 118.852962 
L 280.844685 169.592972 
L 281.169664 152.440219 
L 281.494644 238.530589 
L 281.819623 173.943634 
L 282.144603 198.849581 
L 282.469582 174.148463 
L 282.794562 223.826436 
L 283.119541 190.198877 
L 283.444521 190.255992 
L 283.7695 207.305779 
L 284.09448 165.900572 
L 284.419459 185.956934 
L 284.744439 259.669369 
L 285.069419 226.977185 
L 285.394398 161.737367 
L 285.719378 152.583653 
L 286.044357 193.415022 
L 286.369337 172.609224 
L 286.694316 138.510062 
L 287.019296 229.035901 
L 287.344275 194.168802 
L 287.669255 195.591691 
L 287.994234 177.940212 
L 288.319214 143.352868 
L 288.644193 159.07452 
L 288.969173 149.524455 
L 289.294152 167.414127 
L 289.619132 210.434031 
L 289.944111 224.027315 
L 290.269091 158.702101 
L 290.59407 232.583304 
L 290.91905 195.47237 
L 291.244029 138.413545 
L 291.569009 162.022241 
L 291.893989 209.296326 
L 292.218968 200.798459 
L 292.543948 153.626951 
L 292.868927 161.830853 
L 293.193907 209.804537 
L 293.518886 191.216586 
L 293.843866 195.203765 
L 294.168845 204.573435 
L 294.493825 196.22741 
L 294.818804 206.515664 
L 295.143784 180.486815 
L 295.468763 199.517979 
L 295.793743 184.970245 
L 296.118722 208.754753 
L 296.443702 223.575537 
L 296.768681 225.929044 
L 297.093661 252.949671 
L 297.41864 157.191665 
L 297.74362 223.148893 
L 298.0686 149.657614 
L 298.393579 190.342391 
L 298.718559 144.023138 
L 299.043538 142.427252 
L 299.368518 191.399316 
L 299.693497 182.15967 
L 300.018477 216.51795 
L 300.343456 216.204754 
L 300.668436 177.080839 
L 301.318395 202.746123 
L 301.643374 181.860757 
L 301.968354 200.143068 
L 302.293333 196.835805 
L 302.618313 242.955861 
L 302.943292 243.200079 
L 303.268272 239.656755 
L 303.593251 177.934149 
L 303.918231 195.346932 
L 304.24321 257.851674 
L 304.56819 189.039636 
L 304.89317 227.073077 
L 305.218149 197.423857 
L 305.543129 255.239764 
L 305.868108 254.482894 
L 306.193088 222.22484 
L 306.518067 234.56129 
L 306.843047 210.386191 
L 307.168026 177.251801 
L 307.493006 157.346476 
L 307.817985 212.025831 
L 308.142965 187.100836 
L 308.467944 181.763084 
L 308.792924 243.965326 
L 309.117903 191.76877 
L 309.442883 243.66918 
L 309.767862 198.647776 
L 310.092842 240.407462 
L 310.417821 228.516952 
L 311.39276 173.103873 
L 311.71774 236.988644 
L 312.042719 151.953748 
L 312.367699 215.271275 
L 312.692678 221.374753 
L 313.017658 177.417484 
L 313.342637 248.639349 
L 313.667617 295.488 
L 313.992596 248.740348 
L 314.317576 241.63649 
L 314.642555 246.854119 
L 314.967535 234.27339 
L 315.292514 242.346568 
L 315.617494 267.240737 
L 315.942473 165.038916 
L 316.267453 205.984507 
L 316.592432 198.233312 
L 316.917412 234.748687 
L 317.242391 256.972576 
L 317.567371 243.31545 
L 317.892351 176.423043 
L 318.21733 182.631269 
L 318.54231 219.161479 
L 318.867289 213.921388 
L 319.192269 242.0732 
L 319.517248 212.894975 
L 319.842228 216.024391 
L 320.167207 197.708726 
L 320.492187 187.245566 
L 321.142146 235.918786 
L 321.467125 199.270388 
L 321.792105 210.950499 
L 322.117084 189.334802 
L 322.442064 181.601609 
L 322.767043 248.111841 
L 323.092023 157.66896 
L 323.417002 191.01087 
L 323.741982 248.767523 
L 324.066962 257.028839 
L 324.391941 256.153012 
L 324.716921 219.388474 
L 325.0419 235.552372 
L 325.36688 171.233978 
L 326.016839 156.019961 
L 326.341818 158.468569 
L 326.666798 172.791309 
L 326.991777 99.088733 
L 327.316757 152.09433 
L 327.641736 225.390298 
L 328.291695 126.577379 
L 328.616675 191.098471 
L 328.941654 194.133241 
L 329.266634 161.982539 
L 329.591613 175.668109 
L 329.916593 226.455684 
L 330.241572 203.932005 
L 330.566552 248.649949 
L 330.891532 180.972826 
L 331.216511 207.157432 
L 331.541491 171.667417 
L 331.86647 164.640328 
L 332.19145 196.583736 
L 332.516429 143.767599 
L 332.841409 193.393522 
L 333.166388 152.778748 
L 333.491368 239.607691 
L 333.816347 183.229211 
L 334.141327 147.351492 
L 334.466306 179.766879 
L 334.791286 164.553586 
L 335.116265 211.990849 
L 335.441245 219.847744 
L 335.766224 190.152042 
L 336.091204 258.295474 
L 336.416183 180.96489 
L 336.741163 135.140205 
L 337.066143 135.332739 
L 337.391122 190.531645 
L 337.716102 212.31387 
L 338.041081 190.532148 
L 338.366061 183.464192 
L 338.69104 190.213123 
L 339.01602 191.791736 
L 339.340999 196.663644 
L 339.665979 128.449899 
L 339.990958 180.742143 
L 340.315938 155.517388 
L 340.640917 149.445278 
L 340.965897 207.815536 
L 341.940835 135.285666 
L 342.265815 173.513795 
L 342.590794 123.150986 
L 342.915774 189.354565 
L 343.240753 166.260418 
L 343.565733 167.094347 
L 343.890713 149.597617 
L 344.215692 188.636827 
L 344.540672 163.654541 
L 344.865651 210.050468 
L 345.190631 137.428428 
L 345.51561 197.816302 
L 345.84059 212.817834 
L 346.165569 150.511749 
L 346.490549 146.342649 
L 346.815528 173.187529 
L 347.140508 168.919461 
L 347.465487 182.326102 
L 347.790467 253.935814 
L 348.115446 228.22826 
L 348.440426 188.263593 
L 348.765405 214.223243 
L 349.090385 209.748432 
L 349.415364 227.245565 
L 350.065324 179.887743 
L 350.390303 180.17669 
L 350.715283 206.913609 
L 351.040262 266.235101 
L 351.365242 162.923255 
L 351.690221 152.610715 
L 352.015201 185.41671 
L 352.34018 194.882417 
L 352.66516 166.218348 
L 352.990139 182.508733 
L 353.315119 217.035395 
L 353.965078 238.738198 
L 354.940016 149.096638 
L 355.264996 172.322779 
L 355.589975 124.855051 
L 355.914955 199.790838 
L 356.239934 180.937728 
L 356.564914 178.167037 
L 356.889894 201.597541 
L 357.214873 193.924403 
L 357.539853 159.813966 
L 357.864832 145.085425 
L 358.189812 234.732194 
L 358.514791 190.922605 
L 358.839771 208.805329 
L 359.16475 150.8837 
L 359.814709 199.971455 
L 360.139689 184.204557 
L 360.464668 214.612608 
L 360.789648 209.069844 
L 361.114627 176.952599 
L 361.439607 238.220919 
L 361.764586 222.780247 
L 362.089566 190.285072 
L 362.414545 221.725405 
L 362.739525 149.336479 
L 363.064505 203.417318 
L 363.714464 130.751664 
L 364.039443 173.337887 
L 364.364423 160.535318 
L 364.689402 170.67473 
L 365.014382 151.759072 
L 365.664341 222.182071 
L 365.98932 190.645099 
L 366.3143 121.375428 
L 366.639279 176.585699 
L 366.964259 134.384874 
L 367.289238 238.970398 
L 367.614218 181.655573 
L 367.939197 239.424955 
L 368.264177 195.791016 
L 368.589156 180.112524 
L 368.914136 148.496373 
L 369.239115 173.458404 
L 369.564095 223.009034 
L 369.889075 253.430058 
L 370.214054 190.265323 
L 370.539034 200.641004 
L 370.864013 228.705632 
L 371.188993 176.857243 
L 371.838952 206.700409 
L 372.163931 189.994444 
L 372.488911 102.0996 
L 372.81389 179.003685 
L 373.463849 231.791705 
L 373.788829 182.918121 
L 374.113808 217.818749 
L 374.438788 120.012546 
L 375.088747 156.872619 
L 375.413726 142.925751 
L 375.738706 251.053712 
L 376.063686 192.833782 
L 376.388665 200.213832 
L 376.713645 170.168146 
L 377.038624 128.305054 
L 377.363604 168.654207 
L 377.688583 181.500741 
L 378.013563 173.903009 
L 378.338542 143.476534 
L 378.663522 147.3707 
L 378.988501 103.26598 
L 379.313481 234.147544 
L 379.63846 237.27226 
L 379.96344 167.92978 
L 380.288419 157.611135 
L 380.613399 194.106401 
L 381.263358 75.004629 
L 381.913317 135.413711 
L 382.238296 101.05645 
L 382.563276 145.376205 
L 382.888256 127.011185 
L 383.213235 147.63227 
L 383.538215 103.278097 
L 383.863194 120.60633 
L 384.188174 106.362189 
L 384.838133 178.699001 
L 385.163112 163.067524 
L 385.488092 163.831282 
L 385.813071 145.220328 
L 386.138051 206.437845 
L 386.46303 232.175483 
L 386.78801 140.353562 
L 387.112989 220.221516 
L 387.437969 244.642706 
L 388.087928 195.614883 
L 388.412907 207.857411 
L 389.062867 189.578897 
L 389.387846 159.132463 
L 389.712826 153.784224 
L 390.037805 144.15877 
L 390.362785 171.149912 
L 390.687764 152.860913 
L 391.012744 149.146481 
L 391.337723 202.7425 
L 391.662703 199.421 
L 391.987682 170.020227 
L 392.312662 214.952006 
L 392.637641 185.039695 
L 392.962621 170.505493 
L 393.2876 194.622467 
L 393.61258 181.494874 
L 393.937559 222.673154 
L 394.262539 238.087329 
L 394.587518 157.462551 
L 394.912498 228.611857 
L 395.562457 175.887614 
L 395.887437 209.870849 
L 396.212416 197.625696 
L 396.537396 208.192979 
L 396.862375 246.775324 
L 397.187355 233.17371 
L 397.512334 212.33632 
L 397.837314 204.995681 
L 398.162293 153.376262 
L 398.487273 125.215753 
L 398.487273 125.215753 
" clip-path="url(#p3cfdd75869)" style="fill: none; stroke: #1f77b4; stroke-width: 1.5; stroke-linecap: square"/>
   </g>
   <g id="patch_3">
    <path d="M 57.6 307.584 
L 57.6 41.472 
" style="fill: none; stroke: #000000; stroke-width: 0.8; stroke-linejoin: miter; stroke-linecap: square"/>
   </g>
   <g id="patch_4">
    <path d="M 414.72 307.584 
L 414.72 41.472 
" style="fill: none; stroke: #000000; stroke-width: 0.8; stroke-linejoin: miter; stroke-linecap: square"/>
   </g>
   <g id="patch_5">
    <path d="M 57.6 307.584 
L 414.72 307.584 
" style="fill: none; stroke: #000000; stroke-width: 0.8; stroke-linejoin: miter; stroke-linecap: square"/>
   </g>
   <g id="patch_6">
    <path d="M 57.6 41.472 
L 414.72 41.472 
" style="fill: none; stroke: #000000; stroke-width: 0.8; stroke-linejoin: miter; stroke-linecap: square"/>
   </g>
  </g>
 </g>
 <defs>
  <clipPath id="p3cfdd75869">
   <rect x="57.6" y="41.472" width="357.12" height="266.112"/>
  </clipPath>
 </defs>
</svg>
