<?xml version="1.0" encoding="utf-8" standalone="no"?>
<!DOCTYPE svg PUBLIC "-//W3C//DTD SVG 1.1//EN"
  "http://www.w3.org/Graphics/SVG/1.1/DTD/svg11.dtd">
<svg xmlns:xlink="http://www.w3.org/1999/xlink" width="460.8pt" height="345.6pt" viewBox="0 0 460.8 345.6" xmlns="http://www.w3.org/2000/svg" version="1.1">
 <metadata>
  <rdf:RDF xmlns:dc="http://purl.org/dc/elements/1.1/" xmlns:cc="http://creativecommons.org/ns#" xmlns:rdf="http://www.w3.org/1999/02/22-rdf-syntax-ns#">
   <cc:Work>
    <dc:type rdf:resource="http://purl.org/dc/dcmitype/StillImage"/>
    <dc:date>2025-12-15T12:37:18.289712</dc:date>
    <dc:format>image/svg+xml</dc:format>
    <dc:creator>
     <cc:Agent>
      <dc:title>Matplotlib v3.10.6, https://matplotlib.org/</dc:title>
     </cc:Agent>
    </dc:creator>
   </cc:Work>
  </rdf:RDF>
 </metadata>
 <defs>
  <style type="text/css">*{stroke-linejoin: round; stroke-linecap: butt}</style>
 </defs>
 <g id="figure_1">
  <g id="patch_1">
   <path d="M 0 345.6 
L 460.8 345.6 
L 460.8 0 
L 0 0 
z
" style="fill: #ffffff"/>
  </g>
  <g id="axes_1">
   <g id="patch_2">
    <path d="M 95.5775 266.245 
L 410.94 266.245 
L 410.94 25.92 
L 95.5775 25.92 
z
" style="fill: #ffffff"/>
   </g>
   <g id="matplotlib.axis_1">
    <g id="xtick_1">
     <g id="line2d_1">
      <path d="M 95.5775 266.245 
L 95.5775 25.92 
" clip-path="url(#pf671e1560f)" style="fill: none; stroke: #b0b0b0; stroke-width: 0.8; stroke-linecap: square"/>
     </g>
     <g id="line2d_2">
      <defs>
       <path id="maa0e317ea5" d="M 0 0 
L 0 3.5 
" style="stroke: #000000; stroke-width: 0.8"/>
      </defs>
      <g>
       <use xlink:href="#maa0e317ea5" x="95.5775" y="266.245" style="stroke: #000000; stroke-width: 0.8"/>
      </g>
     </g>
     <g id="text_1">
      <!-- 0 -->
      <g transform="translate(89.5775 289.63625) scale(0.24 -0.24)">
       <defs>
        <path id="TeXGyreTermes-Regular-30" d="M 3046 2112 
C 3046 3424 2464 4326 1626 4326 
C 1274 4326 1005 4218 768 3994 
C 397 3635 154 2899 154 2150 
C 154 1453 365 704 666 346 
C 902 64 1229 -90 1600 -90 
C 1926 -90 2202 19 2432 243 
C 2803 595 3046 1338 3046 2112 
z
M 2432 2099 
C 2432 762 2150 77 1600 77 
C 1050 77 768 762 768 2093 
C 768 3450 1056 4160 1606 4160 
C 2144 4160 2432 3437 2432 2099 
z
" transform="scale(0.015625)"/>
       </defs>
       <use xlink:href="#TeXGyreTermes-Regular-30"/>
      </g>
     </g>
    </g>
    <g id="xtick_2">
     <g id="line2d_3">
      <path d="M 174.418125 266.245 
L 174.418125 25.92 
" clip-path="url(#pf671e1560f)" style="fill: none; stroke: #b0b0b0; stroke-width: 0.8; stroke-linecap: square"/>
     </g>
     <g id="line2d_4">
      <g>
       <use xlink:href="#maa0e317ea5" x="174.418125" y="266.245" style="stroke: #000000; stroke-width: 0.8"/>
      </g>
     </g>
     <g id="text_2">
      <!-- 250 -->
      <g transform="translate(156.418125 289.63625) scale(0.24 -0.24)">
       <defs>
        <path id="TeXGyreTermes-Regular-32" d="M 3040 877 
L 2957 909 
C 2720 544 2637 486 2349 486 
L 819 486 
L 1894 1613 
C 2464 2208 2714 2694 2714 3194 
C 2714 3834 2195 4326 1530 4326 
C 1178 4326 845 4186 608 3930 
C 403 3712 307 3507 198 3053 
L 333 3021 
C 589 3648 819 3853 1261 3853 
C 1798 3853 2163 3488 2163 2950 
C 2163 2451 1869 1856 1331 1286 
L 192 77 
L 192 0 
L 2688 0 
L 3040 877 
z
" transform="scale(0.015625)"/>
        <path id="TeXGyreTermes-Regular-35" d="M 2803 4358 
L 2746 4403 
C 2650 4269 2586 4237 2451 4237 
L 1114 4237 
L 416 2720 
C 410 2707 410 2688 410 2688 
C 410 2656 435 2637 486 2637 
C 691 2637 947 2592 1210 2509 
C 1946 2272 2285 1875 2285 1242 
C 2285 627 1894 147 1395 147 
C 1267 147 1158 192 966 333 
C 762 480 614 544 480 544 
C 294 544 205 467 205 307 
C 205 64 506 -90 986 -90 
C 1523 -90 1984 83 2304 410 
C 2598 698 2733 1062 2733 1549 
C 2733 2010 2611 2304 2291 2624 
C 2010 2906 1645 3053 890 3187 
L 1158 3731 
L 2413 3731 
C 2515 3731 2541 3744 2560 3789 
L 2803 4358 
z
" transform="scale(0.015625)"/>
       </defs>
       <use xlink:href="#TeXGyreTermes-Regular-32"/>
       <use xlink:href="#TeXGyreTermes-Regular-35" transform="translate(49.999985 0)"/>
       <use xlink:href="#TeXGyreTermes-Regular-30" transform="translate(99.999969 0)"/>
      </g>
     </g>
    </g>
    <g id="xtick_3">
     <g id="line2d_5">
      <path d="M 253.25875 266.245 
L 253.25875 25.92 
" clip-path="url(#pf671e1560f)" style="fill: none; stroke: #b0b0b0; stroke-width: 0.8; stroke-linecap: square"/>
     </g>
     <g id="line2d_6">
      <g>
       <use xlink:href="#maa0e317ea5" x="253.25875" y="266.245" style="stroke: #000000; stroke-width: 0.8"/>
      </g>
     </g>
     <g id="text_3">
      <!-- 500 -->
      <g transform="translate(235.25875 289.63625) scale(0.24 -0.24)">
       <use xlink:href="#TeXGyreTermes-Regular-35"/>
       <use xlink:href="#TeXGyreTermes-Regular-30" transform="translate(49.999985 0)"/>
       <use xlink:href="#TeXGyreTermes-Regular-30" transform="translate(99.999969 0)"/>
      </g>
     </g>
    </g>
    <g id="xtick_4">
     <g id="line2d_7">
      <path d="M 332.099375 266.245 
L 332.099375 25.92 
" clip-path="url(#pf671e1560f)" style="fill: none; stroke: #b0b0b0; stroke-width: 0.8; stroke-linecap: square"/>
     </g>
     <g id="line2d_8">
      <g>
       <use xlink:href="#maa0e317ea5" x="332.099375" y="266.245" style="stroke: #000000; stroke-width: 0.8"/>
      </g>
     </g>
     <g id="text_4">
      <!-- 750 -->
      <g transform="translate(314.099375 289.63625) scale(0.24 -0.24)">
       <defs>
        <path id="TeXGyreTermes-Regular-37" d="M 2874 4134 
L 2874 4237 
L 506 4237 
L 128 3296 
L 237 3245 
C 512 3680 627 3763 979 3763 
L 2368 3763 
L 1101 -51 
L 1517 -51 
L 2874 4134 
z
" transform="scale(0.015625)"/>
       </defs>
       <use xlink:href="#TeXGyreTermes-Regular-37"/>
       <use xlink:href="#TeXGyreTermes-Regular-35" transform="translate(49.999985 0)"/>
       <use xlink:href="#TeXGyreTermes-Regular-30" transform="translate(99.999969 0)"/>
      </g>
     </g>
    </g>
    <g id="xtick_5">
     <g id="line2d_9">
      <path d="M 410.94 266.245 
L 410.94 25.92 
" clip-path="url(#pf671e1560f)" style="fill: none; stroke: #b0b0b0; stroke-width: 0.8; stroke-linecap: square"/>
     </g>
     <g id="line2d_10">
      <g>
       <use xlink:href="#maa0e317ea5" x="410.94" y="266.245" style="stroke: #000000; stroke-width: 0.8"/>
      </g>
     </g>
     <g id="text_5">
      <!-- 1000 -->
      <g transform="translate(386.94 289.63625) scale(0.24 -0.24)">
       <defs>
        <path id="TeXGyreTermes-Regular-31" d="M 2522 0 
L 2522 96 
C 2016 102 1914 166 1914 474 
L 1914 4314 
L 1862 4326 
L 710 3744 
L 710 3654 
C 787 3686 858 3712 883 3725 
C 998 3770 1107 3795 1171 3795 
C 1306 3795 1363 3699 1363 3494 
L 1363 595 
C 1363 384 1312 237 1210 179 
C 1114 122 1024 102 755 96 
L 755 0 
L 2522 0 
z
" transform="scale(0.015625)"/>
       </defs>
       <use xlink:href="#TeXGyreTermes-Regular-31"/>
       <use xlink:href="#TeXGyreTermes-Regular-30" transform="translate(49.999985 0)"/>
       <use xlink:href="#TeXGyreTermes-Regular-30" transform="translate(99.999969 0)"/>
       <use xlink:href="#TeXGyreTermes-Regular-30" transform="translate(149.999954 0)"/>
      </g>
     </g>
    </g>
    <g id="text_6">
     <!-- Schritt k -->
     <g transform="translate(212.25625 315.23625) scale(0.24 -0.24)">
      <defs>
       <path id="TeXGyreTermes-Regular-53" d="M 3142 1075 
C 3142 1606 2790 2016 1946 2477 
C 1274 2842 1005 3123 1005 3475 
C 1005 3827 1274 4064 1670 4064 
C 1958 4064 2227 3942 2451 3712 
C 2650 3507 2739 3341 2842 2963 
L 3002 2963 
L 2861 4326 
L 2726 4326 
C 2701 4186 2630 4109 2522 4109 
C 2458 4109 2355 4134 2240 4186 
C 2003 4275 1773 4326 1549 4326 
C 1299 4326 1030 4224 826 4058 
C 576 3853 454 3578 454 3226 
C 454 2720 736 2362 1453 1984 
C 1914 1734 2246 1478 2406 1235 
C 2464 1146 2496 1018 2496 858 
C 2496 435 2176 141 1709 141 
C 1133 141 736 493 416 1274 
L 269 1274 
L 461 -83 
L 602 -83 
C 608 38 685 128 781 128 
C 851 128 960 102 1082 58 
C 1325 -38 1581 -90 1837 -90 
C 2579 -90 3142 416 3142 1075 
z
" transform="scale(0.015625)"/>
       <path id="TeXGyreTermes-Regular-63" d="M 2637 941 
L 2547 998 
C 2240 550 2010 397 1645 397 
C 1056 397 653 909 653 1645 
C 653 2310 1005 2758 1523 2758 
C 1754 2758 1837 2688 1901 2451 
L 1939 2310 
C 1990 2125 2106 2016 2246 2016 
C 2413 2016 2547 2138 2547 2285 
C 2547 2643 2099 2944 1562 2944 
C 1261 2944 954 2829 698 2618 
C 352 2330 160 1888 160 1357 
C 160 531 666 -64 1376 -64 
C 1651 -64 1894 26 2112 205 
C 2304 358 2432 544 2637 941 
z
" transform="scale(0.015625)"/>
       <path id="TeXGyreTermes-Regular-68" d="M 3117 0 
L 3117 96 
C 2771 160 2733 211 2733 653 
L 2733 1926 
C 2733 2598 2464 2944 1946 2944 
C 1568 2944 1299 2790 1005 2406 
L 1005 4352 
L 973 4371 
C 755 4294 595 4243 237 4141 
L 64 4090 
L 64 3987 
C 90 3994 109 3994 141 3994 
C 416 3994 467 3942 467 3667 
L 467 653 
C 467 205 429 147 58 96 
L 58 0 
L 1440 0 
L 1440 96 
C 1069 134 1005 211 1005 653 
L 1005 2195 
C 1274 2490 1466 2598 1715 2598 
C 2035 2598 2195 2368 2195 1920 
L 2195 653 
C 2195 218 2131 134 1760 96 
L 1760 0 
L 3117 0 
z
" transform="scale(0.015625)"/>
       <path id="TeXGyreTermes-Regular-72" d="M 2144 2605 
C 2144 2816 2010 2944 1792 2944 
C 1523 2944 1338 2797 1024 2342 
L 1024 2931 
L 992 2944 
C 653 2803 422 2720 45 2598 
L 45 2496 
C 134 2515 192 2522 269 2522 
C 429 2522 486 2419 486 2138 
L 486 538 
C 486 218 442 173 32 96 
L 32 0 
L 1568 0 
L 1568 96 
C 1133 115 1024 211 1024 576 
L 1024 2016 
C 1024 2221 1299 2541 1472 2541 
C 1510 2541 1568 2509 1638 2445 
C 1741 2355 1811 2317 1894 2317 
C 2048 2317 2144 2426 2144 2605 
z
" transform="scale(0.015625)"/>
       <path id="TeXGyreTermes-Regular-69" d="M 1619 0 
L 1619 96 
C 1197 128 1146 192 1146 653 
L 1146 2925 
L 1120 2944 
L 128 2592 
L 128 2496 
L 179 2502 
C 256 2515 339 2522 397 2522 
C 550 2522 608 2419 608 2138 
L 608 653 
C 608 192 544 122 102 96 
L 102 0 
L 1619 0 
z
M 1203 3776 
C 1203 3955 1062 4102 877 4102 
C 698 4102 550 3955 550 3776 
C 550 3590 698 3450 877 3450 
C 1062 3450 1203 3590 1203 3776 
z
" transform="scale(0.015625)"/>
       <path id="TeXGyreTermes-Regular-74" d="M 1786 422 
L 1702 493 
C 1562 326 1459 269 1318 269 
C 1082 269 986 435 986 845 
L 986 2675 
L 1632 2675 
L 1632 2880 
L 986 2880 
L 986 3622 
C 986 3686 973 3706 941 3706 
C 902 3642 858 3584 813 3526 
C 576 3174 358 2938 192 2842 
C 122 2797 83 2758 83 2720 
C 83 2701 90 2688 109 2675 
L 448 2675 
L 448 749 
C 448 211 640 -64 1011 -64 
C 1331 -64 1574 90 1786 422 
z
" transform="scale(0.015625)"/>
       <path id="TeXGyreTermes-Regular-20" transform="scale(0.015625)"/>
       <path id="TeXGyreTermes-Regular-6b" d="M 3232 0 
L 3232 96 
C 2950 115 2752 237 2483 563 
L 1504 1805 
L 1690 1978 
C 2144 2400 2541 2694 2726 2746 
C 2822 2771 2912 2784 3021 2784 
L 3072 2784 
L 3072 2880 
L 1766 2880 
L 1766 2790 
C 2016 2784 2086 2758 2086 2669 
C 2086 2618 2029 2528 1939 2451 
L 1062 1670 
L 1062 4358 
L 1037 4371 
L 237 4141 
L 45 4090 
L 45 3987 
C 128 3994 186 4000 250 4000 
C 461 4000 525 3917 525 3610 
L 525 525 
C 525 192 506 173 45 96 
L 45 0 
L 1542 0 
L 1542 96 
L 1414 102 
C 1158 115 1062 205 1062 429 
L 1062 1606 
L 1958 410 
L 1978 384 
C 1990 365 2003 346 2022 326 
C 2074 262 2093 224 2093 192 
C 2093 134 2035 96 1958 96 
L 1837 96 
L 1837 0 
L 3232 0 
z
" transform="scale(0.015625)"/>
      </defs>
      <use xlink:href="#TeXGyreTermes-Regular-53"/>
      <use xlink:href="#TeXGyreTermes-Regular-63" transform="translate(55.599991 0)"/>
      <use xlink:href="#TeXGyreTermes-Regular-68" transform="translate(99.999985 0)"/>
      <use xlink:href="#TeXGyreTermes-Regular-72" transform="translate(149.999969 0)"/>
      <use xlink:href="#TeXGyreTermes-Regular-69" transform="translate(183.299957 0)"/>
      <use xlink:href="#TeXGyreTermes-Regular-74" transform="translate(211.099945 0)"/>
      <use xlink:href="#TeXGyreTermes-Regular-74" transform="translate(238.899933 0)"/>
      <use xlink:href="#TeXGyreTermes-Regular-20" transform="translate(266.699921 0)"/>
      <use xlink:href="#TeXGyreTermes-Regular-6b" transform="translate(291.699905 0)"/>
     </g>
    </g>
   </g>
   <g id="matplotlib.axis_2">
    <g id="ytick_1">
     <g id="line2d_11">
      <path d="M 95.5775 256.886136 
L 410.94 256.886136 
" clip-path="url(#pf671e1560f)" style="fill: none; stroke: #b0b0b0; stroke-width: 0.8; stroke-linecap: square"/>
     </g>
     <g id="line2d_12">
      <defs>
       <path id="mb72ff08cd3" d="M 0 0 
L -3.5 0 
" style="stroke: #000000; stroke-width: 0.8"/>
      </defs>
      <g>
       <use xlink:href="#mb72ff08cd3" x="95.5775" y="256.886136" style="stroke: #000000; stroke-width: 0.8"/>
      </g>
     </g>
     <g id="text_7">
      <!-- −40 -->
      <g transform="translate(51.04 265.081761) scale(0.24 -0.24)">
       <defs>
        <path id="TeXGyreTermes-Regular-2212" d="M 3354 1389 
L 3354 1811 
L 256 1811 
L 256 1389 
L 3354 1389 
z
" transform="scale(0.015625)"/>
        <path id="TeXGyreTermes-Regular-34" d="M 3021 1069 
L 3021 1478 
L 2368 1478 
L 2368 4326 
L 2086 4326 
L 77 1478 
L 77 1069 
L 1875 1069 
L 1875 0 
L 2368 0 
L 2368 1069 
L 3021 1069 
z
M 1869 1478 
L 333 1478 
L 1869 3674 
L 1869 1478 
z
" transform="scale(0.015625)"/>
       </defs>
       <use xlink:href="#TeXGyreTermes-Regular-2212"/>
       <use xlink:href="#TeXGyreTermes-Regular-34" transform="translate(56.399994 0)"/>
       <use xlink:href="#TeXGyreTermes-Regular-30" transform="translate(106.399979 0)"/>
      </g>
     </g>
    </g>
    <g id="ytick_2">
     <g id="line2d_13">
      <path d="M 95.5775 207.49415 
L 410.94 207.49415 
" clip-path="url(#pf671e1560f)" style="fill: none; stroke: #b0b0b0; stroke-width: 0.8; stroke-linecap: square"/>
     </g>
     <g id="line2d_14">
      <g>
       <use xlink:href="#mb72ff08cd3" x="95.5775" y="207.49415" style="stroke: #000000; stroke-width: 0.8"/>
      </g>
     </g>
     <g id="text_8">
      <!-- −30 -->
      <g transform="translate(51.04 215.689775) scale(0.24 -0.24)">
       <defs>
        <path id="TeXGyreTermes-Regular-33" d="M 2765 1402 
C 2765 1728 2662 2029 2477 2227 
C 2349 2368 2227 2445 1946 2566 
C 2387 2867 2547 3104 2547 3450 
C 2547 3968 2138 4326 1549 4326 
C 1229 4326 947 4218 717 4013 
C 525 3840 429 3674 288 3290 
L 384 3264 
C 646 3731 934 3942 1338 3942 
C 1754 3942 2042 3661 2042 3258 
C 2042 3027 1946 2797 1786 2637 
C 1594 2445 1414 2349 979 2195 
L 979 2112 
C 1357 2112 1504 2099 1658 2042 
C 2054 1901 2304 1536 2304 1094 
C 2304 557 1939 141 1466 141 
C 1293 141 1165 186 928 339 
C 736 454 627 499 518 499 
C 371 499 275 410 275 275 
C 275 51 550 -90 998 -90 
C 1491 -90 1997 77 2298 339 
C 2598 602 2765 973 2765 1402 
z
" transform="scale(0.015625)"/>
       </defs>
       <use xlink:href="#TeXGyreTermes-Regular-2212"/>
       <use xlink:href="#TeXGyreTermes-Regular-33" transform="translate(56.399994 0)"/>
       <use xlink:href="#TeXGyreTermes-Regular-30" transform="translate(106.399979 0)"/>
      </g>
     </g>
    </g>
    <g id="ytick_3">
     <g id="line2d_15">
      <path d="M 95.5775 158.102164 
L 410.94 158.102164 
" clip-path="url(#pf671e1560f)" style="fill: none; stroke: #b0b0b0; stroke-width: 0.8; stroke-linecap: square"/>
     </g>
     <g id="line2d_16">
      <g>
       <use xlink:href="#mb72ff08cd3" x="95.5775" y="158.102164" style="stroke: #000000; stroke-width: 0.8"/>
      </g>
     </g>
     <g id="text_9">
      <!-- −20 -->
      <g transform="translate(51.04 166.297789) scale(0.24 -0.24)">
       <use xlink:href="#TeXGyreTermes-Regular-2212"/>
       <use xlink:href="#TeXGyreTermes-Regular-32" transform="translate(56.399994 0)"/>
       <use xlink:href="#TeXGyreTermes-Regular-30" transform="translate(106.399979 0)"/>
      </g>
     </g>
    </g>
    <g id="ytick_4">
     <g id="line2d_17">
      <path d="M 95.5775 108.710178 
L 410.94 108.710178 
" clip-path="url(#pf671e1560f)" style="fill: none; stroke: #b0b0b0; stroke-width: 0.8; stroke-linecap: square"/>
     </g>
     <g id="line2d_18">
      <g>
       <use xlink:href="#mb72ff08cd3" x="95.5775" y="108.710178" style="stroke: #000000; stroke-width: 0.8"/>
      </g>
     </g>
     <g id="text_10">
      <!-- −10 -->
      <g transform="translate(51.04 116.905803) scale(0.24 -0.24)">
       <use xlink:href="#TeXGyreTermes-Regular-2212"/>
       <use xlink:href="#TeXGyreTermes-Regular-31" transform="translate(56.399994 0)"/>
       <use xlink:href="#TeXGyreTermes-Regular-30" transform="translate(106.399979 0)"/>
      </g>
     </g>
    </g>
    <g id="ytick_5">
     <g id="line2d_19">
      <path d="M 95.5775 59.318192 
L 410.94 59.318192 
" clip-path="url(#pf671e1560f)" style="fill: none; stroke: #b0b0b0; stroke-width: 0.8; stroke-linecap: square"/>
     </g>
     <g id="line2d_20">
      <g>
       <use xlink:href="#mb72ff08cd3" x="95.5775" y="59.318192" style="stroke: #000000; stroke-width: 0.8"/>
      </g>
     </g>
     <g id="text_11">
      <!-- 0 -->
      <g transform="translate(76.5775 67.513817) scale(0.24 -0.24)">
       <use xlink:href="#TeXGyreTermes-Regular-30"/>
      </g>
     </g>
    </g>
    <g id="text_12">
     <!-- Summe x({i| i&lt;=k}) -->
     <g transform="translate(41.83125 242.87375) rotate(-90) scale(0.24 -0.24)">
      <defs>
       <path id="TeXGyreTermes-Regular-75" d="M 3066 230 
L 3066 320 
L 3034 320 
C 2739 320 2669 390 2669 685 
L 2669 2880 
L 1658 2880 
L 1658 2771 
C 2054 2752 2131 2688 2131 2368 
L 2131 864 
C 2131 691 2099 595 2022 538 
C 1843 384 1645 307 1446 307 
C 1197 307 992 525 992 794 
L 992 2880 
L 58 2880 
L 58 2790 
C 365 2771 454 2675 454 2381 
L 454 768 
C 454 262 762 -64 1229 -64 
C 1466 -64 1715 38 1888 211 
L 2163 486 
L 2163 -45 
L 2189 -58 
C 2509 70 2739 141 3066 230 
z
" transform="scale(0.015625)"/>
       <path id="TeXGyreTermes-Regular-6d" d="M 4960 0 
L 4960 96 
L 4794 109 
C 4602 122 4518 237 4518 486 
L 4518 1805 
C 4518 2560 4269 2944 3776 2944 
C 3405 2944 3078 2778 2733 2406 
C 2618 2771 2400 2944 2054 2944 
C 1773 2944 1594 2854 1062 2451 
L 1062 2931 
L 1018 2944 
C 691 2822 474 2752 122 2656 
L 122 2547 
C 205 2566 256 2573 326 2573 
C 493 2573 550 2470 550 2163 
L 550 544 
C 550 198 461 102 102 96 
L 102 0 
L 1523 0 
L 1523 96 
C 1184 109 1088 179 1088 429 
L 1088 2234 
C 1088 2234 1139 2310 1184 2355 
C 1344 2502 1619 2611 1843 2611 
C 2125 2611 2266 2387 2266 1939 
L 2266 550 
C 2266 192 2195 122 1830 96 
L 1830 0 
L 3264 0 
L 3264 96 
C 2899 102 2803 211 2803 608 
L 2803 2221 
C 2995 2496 3206 2611 3501 2611 
C 3866 2611 3981 2438 3981 1907 
L 3981 557 
C 3981 192 3930 141 3558 96 
L 3558 0 
L 4960 0 
z
" transform="scale(0.015625)"/>
       <path id="TeXGyreTermes-Regular-65" d="M 2714 1005 
L 2611 1050 
C 2304 563 2029 378 1619 378 
C 1267 378 998 544 813 890 
C 685 1139 634 1363 621 1773 
L 2592 1773 
C 2541 2189 2477 2374 2317 2579 
C 2125 2810 1830 2944 1498 2944 
C 704 2944 160 2304 160 1370 
C 160 486 621 -64 1357 -64 
C 1971 -64 2445 314 2714 1005 
z
M 1939 1978 
L 634 1978 
C 704 2483 922 2714 1312 2714 
C 1702 2714 1856 2534 1939 1978 
z
" transform="scale(0.015625)"/>
       <path id="TeXGyreTermes-Regular-78" d="M 3066 0 
L 3066 96 
C 2867 96 2739 198 2541 480 
L 1722 1734 
L 2253 2502 
C 2374 2675 2566 2778 2771 2784 
L 2771 2880 
L 1760 2880 
L 1760 2784 
C 1952 2771 2016 2733 2016 2643 
C 2016 2566 1939 2426 1779 2227 
C 1747 2189 1670 2074 1587 1946 
L 1498 2074 
C 1318 2342 1203 2560 1203 2643 
C 1203 2733 1286 2778 1478 2784 
L 1478 2880 
L 154 2880 
L 154 2784 
L 211 2784 
C 403 2784 506 2701 704 2400 
L 1306 1478 
L 576 422 
C 384 160 320 115 109 96 
L 109 0 
L 1037 0 
L 1037 96 
C 858 96 781 128 781 211 
C 781 250 826 346 909 474 
L 1414 1261 
L 1997 365 
C 2022 326 2035 288 2035 250 
C 2035 134 1990 109 1779 96 
L 1779 0 
L 3066 0 
z
" transform="scale(0.015625)"/>
       <path id="TeXGyreTermes-Regular-28" d="M 1946 -1030 
C 1434 -627 1254 -403 1082 77 
C 928 506 858 992 858 1632 
C 858 2304 941 2829 1114 3226 
C 1293 3622 1485 3853 1946 4224 
L 1888 4326 
C 1414 4019 1222 3853 986 3558 
C 531 3002 307 2362 307 1613 
C 307 800 544 173 1107 -480 
C 1370 -787 1536 -928 1869 -1133 
L 1946 -1030 
z
" transform="scale(0.015625)"/>
       <path id="TeXGyreTermes-Regular-7b" d="M 2240 -1158 
L 2240 -1088 
C 1798 -973 1658 -781 1658 -301 
L 1658 774 
C 1658 1306 1536 1472 1056 1594 
C 1536 1722 1658 1888 1658 2419 
L 1658 3494 
C 1658 3974 1798 4166 2240 4282 
L 2240 4352 
C 1818 4346 1651 4307 1466 4192 
C 1280 4077 1184 3827 1184 3462 
L 1184 2323 
C 1184 1875 1069 1728 640 1600 
C 1069 1466 1184 1312 1184 870 
L 1184 -262 
C 1184 -621 1286 -883 1466 -998 
C 1645 -1114 1818 -1152 2240 -1158 
z
" transform="scale(0.015625)"/>
       <path id="TeXGyreTermes-Regular-7c" d="M 851 -998 
L 851 4237 
L 429 4237 
L 429 -998 
L 851 -998 
z
" transform="scale(0.015625)"/>
       <path id="TeXGyreTermes-Regular-3c" d="M 3098 83 
L 3098 557 
L 986 1600 
L 3098 2643 
L 3098 3117 
L 416 1792 
L 416 1408 
L 3098 83 
z
" transform="scale(0.015625)"/>
       <path id="TeXGyreTermes-Regular-3d" d="M 3354 1920 
L 3354 2342 
L 256 2342 
L 256 1920 
L 3354 1920 
z
M 3354 858 
L 3354 1280 
L 256 1280 
L 256 858 
L 3354 858 
z
" transform="scale(0.015625)"/>
       <path id="TeXGyreTermes-Regular-7d" d="M 2432 1600 
C 2003 1728 1888 1875 1888 2323 
L 1888 3456 
C 1888 3814 1786 4077 1606 4192 
C 1427 4307 1261 4346 832 4352 
L 832 4282 
C 1274 4166 1414 3974 1414 3494 
L 1414 2419 
C 1414 1882 1536 1722 2016 1600 
C 1536 1472 1414 1306 1414 774 
L 1414 -301 
C 1414 -781 1274 -973 832 -1088 
L 832 -1158 
C 1254 -1152 1421 -1114 1606 -998 
C 1792 -883 1888 -634 1888 -269 
L 1888 870 
C 1888 1318 2003 1466 2432 1600 
z
" transform="scale(0.015625)"/>
       <path id="TeXGyreTermes-Regular-29" d="M 1824 1581 
C 1824 2400 1587 3021 1024 3674 
C 762 3981 595 4122 262 4326 
L 186 4224 
C 698 3821 870 3597 1050 3117 
C 1203 2688 1274 2202 1274 1562 
C 1274 896 1190 365 1018 -26 
C 838 -429 646 -659 186 -1030 
L 243 -1133 
C 717 -826 909 -659 1146 -365 
C 1600 192 1824 832 1824 1581 
z
" transform="scale(0.015625)"/>
      </defs>
      <use xlink:href="#TeXGyreTermes-Regular-53"/>
      <use xlink:href="#TeXGyreTermes-Regular-75" transform="translate(55.599991 0)"/>
      <use xlink:href="#TeXGyreTermes-Regular-6d" transform="translate(105.599976 0)"/>
      <use xlink:href="#TeXGyreTermes-Regular-6d" transform="translate(183.399963 0)"/>
      <use xlink:href="#TeXGyreTermes-Regular-65" transform="translate(261.199951 0)"/>
      <use xlink:href="#TeXGyreTermes-Regular-20" transform="translate(305.599945 0)"/>
      <use xlink:href="#TeXGyreTermes-Regular-78" transform="translate(330.59993 0)"/>
      <use xlink:href="#TeXGyreTermes-Regular-28" transform="translate(380.599915 0)"/>
      <use xlink:href="#TeXGyreTermes-Regular-7b" transform="translate(413.899902 0)"/>
      <use xlink:href="#TeXGyreTermes-Regular-69" transform="translate(461.899887 0)"/>
      <use xlink:href="#TeXGyreTermes-Regular-7c" transform="translate(489.699875 0)"/>
      <use xlink:href="#TeXGyreTermes-Regular-20" transform="translate(509.69986 0)"/>
      <use xlink:href="#TeXGyreTermes-Regular-69" transform="translate(534.699844 0)"/>
      <use xlink:href="#TeXGyreTermes-Regular-3c" transform="translate(562.499832 0)"/>
      <use xlink:href="#TeXGyreTermes-Regular-3d" transform="translate(618.899826 0)"/>
      <use xlink:href="#TeXGyreTermes-Regular-6b" transform="translate(675.29982 0)"/>
      <use xlink:href="#TeXGyreTermes-Regular-7d" transform="translate(725.299805 0)"/>
      <use xlink:href="#TeXGyreTermes-Regular-29" transform="translate(773.299789 0)"/>
     </g>
    </g>
   </g>
   <g id="line2d_21">
    <path d="M 95.5775 59.318192 
L 95.892863 47.960722 
L 96.208225 57.911237 
L 96.523588 53.877645 
L 96.83895 42.117625 
L 97.154313 41.256406 
L 97.469675 36.843864 
L 97.785038 38.219407 
L 98.1004 43.777291 
L 98.415763 45.307456 
L 98.731125 55.537848 
L 99.046488 56.166096 
L 99.36185 57.075723 
L 99.677213 64.073804 
L 99.992575 65.381021 
L 100.6233 74.807325 
L 100.938663 78.75177 
L 101.569388 72.35567 
L 101.88475 67.157586 
L 102.515475 62.543501 
L 102.830838 56.602841 
L 103.1462 58.818175 
L 103.461563 48.079272 
L 103.776925 45.565902 
L 104.092288 47.789511 
L 104.40765 52.859344 
L 104.723013 47.762329 
L 105.038375 49.074254 
L 105.6691 59.873835 
L 105.984463 54.989777 
L 106.299825 55.399929 
L 107.245913 46.382812 
L 107.561275 54.316229 
L 107.876638 59.396962 
L 108.507363 80.653608 
L 108.822725 77.966441 
L 109.138088 79.42222 
L 109.45345 73.3336 
L 109.768813 75.169663 
L 110.084175 70.35633 
L 110.399538 79.852799 
L 110.7149 79.595675 
L 111.030263 72.491863 
L 111.345625 70.488424 
L 111.660988 66.586581 
L 111.97635 70.485949 
L 112.291713 71.805262 
L 112.607075 68.237738 
L 112.922438 58.321861 
L 113.2378 66.54276 
L 113.553163 64.358164 
L 113.868525 65.605621 
L 114.183888 60.535343 
L 114.49925 69.365167 
L 114.814613 70.133206 
L 115.129975 68.288694 
L 115.445338 72.212949 
L 115.7607 73.985547 
L 116.076063 77.851217 
L 116.391425 79.461133 
L 116.706788 75.702708 
L 117.02215 75.519585 
L 117.652875 82.924934 
L 117.968238 84.792798 
L 118.2836 88.187262 
L 118.598963 83.315087 
L 118.914325 90.506598 
L 119.229688 88.396123 
L 119.54505 85.185131 
L 119.860413 87.873853 
L 120.175775 84.034935 
L 120.491138 90.039219 
L 120.8065 88.72655 
L 121.121863 85.635816 
L 121.437225 80.74221 
L 121.752588 78.084971 
L 122.06795 70.890603 
L 122.383313 70.609137 
L 122.698675 70.788191 
L 123.014038 74.557817 
L 123.644763 86.912275 
L 123.960125 89.955305 
L 124.275488 86.72103 
L 124.59085 92.439187 
L 124.906213 95.135398 
L 125.221575 93.191312 
L 125.536938 97.575965 
L 125.8523 96.179702 
L 126.167663 93.797892 
L 126.483025 86.628203 
L 126.798388 86.856782 
L 127.11375 85.987988 
L 127.429113 97.864436 
L 127.744475 95.972067 
L 128.059838 99.63684 
L 128.3752 94.533216 
L 128.690562 91.71924 
L 129.005925 94.847949 
L 129.321288 96.32945 
L 129.63665 103.342988 
L 129.952013 106.178129 
L 130.267375 106.640988 
L 130.582738 108.262295 
L 130.8981 108.687854 
L 131.213462 108.216506 
L 131.528825 109.408772 
L 131.844188 107.109126 
L 132.15955 110.086823 
L 132.474913 111.626797 
L 132.790275 106.02547 
L 133.105638 106.91159 
L 133.421 110.220378 
L 134.051725 97.9204 
L 134.367087 99.757339 
L 134.68245 97.187123 
L 134.997813 97.543875 
L 135.628537 88.84487 
L 136.259263 80.869356 
L 136.574625 80.687249 
L 136.889988 79.287812 
L 137.20535 83.04132 
L 137.520713 79.712566 
L 137.836075 74.760807 
L 138.151438 76.754733 
L 138.4668 76.084126 
L 139.097525 71.324378 
L 139.412888 74.047731 
L 139.72825 73.695122 
L 140.358975 89.167058 
L 140.674338 90.411489 
L 140.9897 84.240526 
L 141.305063 81.026005 
L 141.620425 86.069566 
L 141.935788 83.020183 
L 142.25115 87.763802 
L 142.566512 83.887963 
L 142.881875 91.34454 
L 143.197237 90.058839 
L 143.827963 103.593079 
L 144.143325 112.067402 
L 144.77405 103.628138 
L 145.089413 98.705623 
L 145.404775 101.475598 
L 145.720138 108.360247 
L 146.0355 105.8181 
L 146.350863 109.015894 
L 146.666225 104.869872 
L 146.981587 103.79263 
L 147.29695 106.462154 
L 147.612313 94.994021 
L 147.927675 97.028106 
L 148.243038 100.672953 
L 148.5584 107.35854 
L 148.873762 109.174147 
L 149.189125 100.600413 
L 149.504488 103.851417 
L 149.81985 103.385565 
L 150.135212 103.286866 
L 150.765938 113.766393 
L 151.0813 114.376877 
L 151.712025 106.173535 
L 152.027388 107.009449 
L 152.34275 108.25533 
L 152.658113 104.267443 
L 152.973475 104.145121 
L 153.919563 115.245387 
L 154.234925 117.803465 
L 154.550287 115.231484 
L 154.86565 115.504176 
L 155.181013 115.403173 
L 155.496375 117.705608 
L 155.811737 127.870116 
L 156.1271 129.54821 
L 156.442463 134.62469 
L 156.757825 128.150303 
L 157.073188 128.995067 
L 157.38855 133.966463 
L 157.703913 130.181687 
L 158.019275 142.609777 
L 158.334637 145.571809 
L 158.65 138.997511 
L 158.965362 144.61523 
L 160.226812 128.955683 
L 160.542175 136.134497 
L 160.857538 128.712196 
L 161.1729 137.488673 
L 161.488263 140.227492 
L 162.118988 132.065213 
L 162.749712 144.737184 
L 163.065075 139.45135 
L 163.380437 141.600645 
L 163.6958 151.279052 
L 164.011163 148.199334 
L 164.326525 146.89701 
L 164.641887 141.057761 
L 164.95725 144.551409 
L 165.272612 134.124297 
L 165.587975 138.77827 
L 165.903338 140.801123 
L 166.2187 139.881374 
L 166.534063 132.861 
L 166.849425 130.756736 
L 167.164787 135.528199 
L 167.48015 135.237365 
L 167.795513 132.371179 
L 168.110875 131.779535 
L 168.426238 130.928603 
L 168.7416 134.478366 
L 169.056962 127.045374 
L 169.372325 135.493958 
L 169.687687 135.151672 
L 170.00305 136.235056 
L 170.318412 142.549801 
L 170.633775 134.328907 
L 170.949138 141.382336 
L 171.2645 137.933481 
L 171.579862 131.842811 
L 171.895225 132.671683 
L 172.210588 132.158286 
L 172.52595 138.539923 
L 172.841313 140.963639 
L 173.156675 139.522418 
L 173.472037 141.668539 
L 173.7874 144.888167 
L 174.102762 144.572791 
L 174.418125 134.261048 
L 174.733487 137.088377 
L 175.04885 144.08285 
L 175.364213 142.282809 
L 175.679575 141.223338 
L 175.994937 141.794727 
L 176.3103 147.971417 
L 176.625663 139.672505 
L 176.941025 134.575673 
L 177.256388 140.493134 
L 177.57175 139.436523 
L 177.887113 144.709961 
L 178.202475 142.0885 
L 178.8332 132.801636 
L 179.148562 137.846141 
L 179.463925 137.760311 
L 179.779288 136.604779 
L 180.09465 134.520822 
L 180.410012 134.544464 
L 180.725375 131.610538 
L 181.040737 126.424897 
L 181.3561 123.344784 
L 181.671462 125.467556 
L 181.986825 119.459749 
L 182.61755 126.536615 
L 182.932912 129.455208 
L 183.248275 128.158848 
L 183.563637 132.86813 
L 183.879 120.99292 
L 184.194363 122.268859 
L 184.509725 121.326363 
L 185.14045 123.551773 
L 185.455812 122.515654 
L 186.086537 107.577444 
L 186.4019 110.088845 
L 186.717263 116.073378 
L 187.032625 114.26885 
L 187.347987 120.681843 
L 187.66335 115.531169 
L 187.978713 128.818676 
L 188.294075 130.833257 
L 188.609438 125.774526 
L 188.9248 127.864172 
L 189.240162 124.578956 
L 189.555525 126.398231 
L 189.870887 133.39163 
L 190.18625 133.528961 
L 190.501612 135.137214 
L 190.816975 134.013652 
L 191.132338 128.516481 
L 191.4477 129.913034 
L 191.763062 129.383913 
L 192.078425 138.812313 
L 192.393787 133.564185 
L 192.70915 135.992487 
L 193.024513 140.332777 
L 193.339875 133.163766 
L 193.655237 131.196308 
L 193.9706 133.139659 
L 194.285962 128.215526 
L 194.601325 128.372702 
L 194.916687 134.338529 
L 195.23205 133.106998 
L 195.862775 139.80459 
L 196.178137 132.71505 
L 196.4935 135.487857 
L 197.124225 138.105514 
L 197.75495 126.80542 
L 198.070312 129.616598 
L 198.701037 142.924348 
L 199.0164 137.486584 
L 199.331762 141.605536 
L 199.647125 138.196843 
L 200.27785 147.009274 
L 200.593212 149.993261 
L 200.908575 158.240532 
L 201.854662 148.945005 
L 202.170025 153.198796 
L 202.485388 160.743853 
L 202.80075 163.546407 
L 203.116112 163.315467 
L 203.431475 152.357338 
L 203.746837 156.268843 
L 204.0622 169.782489 
L 204.377563 168.23243 
L 204.692925 169.894934 
L 205.32365 163.002137 
L 205.639012 164.181816 
L 205.954375 166.482396 
L 206.269737 169.766634 
L 206.5851 166.151759 
L 206.900463 164.899313 
L 207.215825 149.437151 
L 207.531187 151.408412 
L 207.84655 157.705182 
L 208.161912 161.502019 
L 208.477275 157.981175 
L 208.792638 165.100221 
L 209.423362 171.15203 
L 209.738725 166.583818 
L 210.054087 166.739998 
L 210.36945 162.142575 
L 210.684812 159.734396 
L 211.000175 158.78648 
L 211.315538 152.520727 
L 212.576987 164.767082 
L 212.89235 170.326576 
L 213.523075 166.212779 
L 213.838437 154.802585 
L 214.1538 152.173728 
L 214.469162 159.193182 
L 214.784525 157.723047 
L 215.099887 162.258636 
L 215.41525 161.426416 
L 216.045975 173.598213 
L 216.361337 173.024091 
L 216.6767 175.225788 
L 216.992062 187.151895 
L 217.307425 186.025264 
L 217.622787 178.398322 
L 217.93815 179.376021 
L 218.884237 156.804933 
L 219.1996 154.26918 
L 219.514962 156.697097 
L 219.830325 152.156939 
L 220.145688 152.702536 
L 220.776412 160.850482 
L 221.091775 174.044298 
L 221.407137 175.363977 
L 221.7225 173.369514 
L 222.037862 174.624975 
L 222.353225 170.666865 
L 222.98395 175.308381 
L 223.299312 179.695342 
L 223.614675 180.285748 
L 223.930037 177.744229 
L 224.2454 186.584254 
L 224.560762 188.517692 
L 224.876125 180.297827 
L 225.191487 180.328154 
L 225.50685 179.849416 
L 225.822212 174.20276 
L 226.137575 176.501759 
L 226.452937 180.029385 
L 226.7683 174.218492 
L 227.083662 170.914651 
L 227.399025 169.341382 
L 227.714387 172.950155 
L 228.02975 172.494459 
L 228.345112 178.451958 
L 228.660475 175.63306 
L 228.975837 177.637067 
L 229.2912 172.577727 
L 229.606562 181.651796 
L 229.921925 186.815658 
L 230.237287 186.754063 
L 230.55265 185.362684 
L 230.868012 188.495263 
L 231.498737 204.099164 
L 231.8141 202.42628 
L 232.129462 190.141788 
L 232.444825 194.705038 
L 232.760187 197.323621 
L 233.07555 189.997137 
L 233.390912 189.221922 
L 233.706275 184.462617 
L 234.337 180.891345 
L 234.967725 168.673734 
L 235.59845 165.172654 
L 235.913812 159.86791 
L 236.544537 178.584926 
L 236.8599 180.561325 
L 237.175262 180.673398 
L 237.490625 184.992161 
L 237.805987 186.390051 
L 238.436712 194.702228 
L 238.752075 193.472585 
L 239.067437 193.321379 
L 239.3828 190.80648 
L 240.013525 199.863886 
L 240.328887 200.734721 
L 240.64425 205.538242 
L 240.959612 201.559556 
L 241.274975 200.436223 
L 241.9057 191.407696 
L 242.221062 193.223719 
L 242.851787 201.68046 
L 243.16715 202.652373 
L 243.482512 209.787509 
L 243.797875 198.101446 
L 244.113237 194.278331 
L 244.4286 200.785272 
L 244.743962 195.565667 
L 245.059325 194.766357 
L 245.69005 187.510192 
L 246.005412 188.977079 
L 246.320775 193.453835 
L 246.636137 190.80985 
L 246.9515 194.435646 
L 247.266862 189.343259 
L 247.582225 192.506692 
L 247.897587 193.980462 
L 248.21295 189.481092 
L 248.528312 196.215142 
L 248.843675 190.992876 
L 249.159037 193.911025 
L 249.4744 191.21501 
L 249.789762 197.889974 
L 250.105125 199.891459 
L 250.420487 200.598245 
L 251.051212 190.996447 
L 251.366575 187.689146 
L 251.681937 173.83906 
L 252.312662 182.917188 
L 252.628025 194.037138 
L 252.943387 195.927398 
L 253.25875 193.040639 
L 253.574112 200.790995 
L 253.889475 202.693273 
L 254.204837 201.887465 
L 254.5202 201.669808 
L 254.835562 204.98112 
L 255.150925 198.836616 
L 255.466287 198.678702 
L 255.78165 204.378956 
L 256.097013 203.613386 
L 256.412375 206.120607 
L 256.727737 206.519371 
L 257.0431 206.011726 
L 257.358462 211.352998 
L 257.673825 199.633304 
L 257.989187 196.852741 
L 258.30455 198.007489 
L 258.619912 199.632879 
L 258.935275 192.87822 
L 259.250637 194.106045 
L 259.566 202.415953 
L 259.881363 203.164603 
L 260.196725 209.713332 
L 260.512088 213.153009 
L 260.82745 206.250291 
L 261.142812 203.923372 
L 261.458175 200.620932 
L 261.773537 199.155291 
L 262.0889 195.220426 
L 262.404262 204.18285 
L 262.719625 204.098588 
L 263.034987 205.687239 
L 263.35035 205.10467 
L 263.665712 210.398035 
L 263.981075 211.269391 
L 264.6118 209.858016 
L 264.927163 215.646935 
L 265.242525 225.455381 
L 265.87325 231.358843 
L 266.188612 229.900308 
L 266.503975 224.088142 
L 266.819337 228.696015 
L 267.1347 229.988096 
L 267.450062 232.813421 
L 267.765425 233.883285 
L 268.080787 227.861848 
L 268.39615 226.093352 
L 268.711512 228.314922 
L 269.026875 232.884642 
L 269.342238 229.029508 
L 269.6576 234.674617 
L 269.972962 230.263428 
L 270.288325 229.502411 
L 270.603687 241.069641 
L 270.91905 238.311136 
L 271.234412 236.724381 
L 271.549775 242.265132 
L 271.865137 238.353463 
L 272.1805 231.865503 
L 272.495862 233.729108 
L 272.811225 234.7287 
L 273.126587 235.011436 
L 273.44195 228.929127 
L 273.757313 239.065825 
L 274.072675 253.324868 
L 274.388037 252.273082 
L 275.334125 246.153578 
L 275.649487 247.592695 
L 275.96485 245.78694 
L 276.595575 252.0845 
L 276.910937 252.506747 
L 277.2263 247.75589 
L 277.541662 252.867979 
L 277.857025 255.321136 
L 278.48775 247.211926 
L 278.803112 250.234171 
L 279.118475 242.473173 
L 279.433837 237.526609 
L 279.7492 239.057346 
L 280.064562 250.556782 
L 280.379925 241.067814 
L 280.695287 239.114071 
L 281.01065 233.424008 
L 281.326012 217.82126 
L 281.641375 218.502121 
L 281.956737 217.657208 
L 282.2721 216.329987 
L 282.902825 220.258154 
L 283.218187 218.312652 
L 283.53355 218.582667 
L 283.848912 222.88377 
L 284.164275 232.790879 
L 284.479637 236.561424 
L 284.795 227.574841 
L 285.425725 235.629909 
L 285.741087 236.29748 
L 286.05645 236.193263 
L 286.371812 231.678078 
L 286.687175 225.273962 
L 287.002538 226.984989 
L 287.3179 219.25652 
L 287.633263 226.182385 
L 287.948625 227.455778 
L 288.263987 224.012095 
L 288.57935 226.342807 
L 288.894712 213.62263 
L 289.210075 209.939115 
L 289.525437 210.531772 
L 290.471525 190.068212 
L 290.786887 194.539268 
L 291.10225 194.645148 
L 291.417612 197.191502 
L 291.732975 195.692088 
L 292.048338 197.57597 
L 292.3637 193.936782 
L 292.679062 194.528857 
L 292.994425 188.465931 
L 293.309787 187.993539 
L 293.62515 183.406348 
L 293.940512 180.517797 
L 294.255875 183.434989 
L 294.571237 177.147223 
L 294.8866 173.727993 
L 295.201962 174.54425 
L 295.517325 173.944534 
L 295.832687 180.134527 
L 296.14805 180.938951 
L 297.094137 163.008632 
L 297.4095 169.656936 
L 297.724862 173.027622 
L 298.040225 164.530276 
L 298.355587 173.617907 
L 298.67095 176.477436 
L 298.986312 174.106333 
L 299.301675 180.934664 
L 299.617037 179.731124 
L 299.9324 181.599873 
L 300.247762 186.252914 
L 300.563125 187.891813 
L 300.878488 178.797586 
L 301.19385 177.854897 
L 301.509212 177.407269 
L 301.824575 177.73944 
L 302.139937 180.660797 
L 302.4553 180.455595 
L 302.770662 185.195218 
L 303.086025 177.966656 
L 303.401387 178.272375 
L 304.032112 166.768679 
L 304.347475 170.543904 
L 304.9782 182.017991 
L 305.293563 178.751715 
L 305.608925 180.330334 
L 305.924287 182.960719 
L 306.23965 186.824848 
L 306.555012 192.335155 
L 306.870375 186.304026 
L 307.185737 196.883363 
L 307.5011 194.057281 
L 307.816462 199.404186 
L 308.447187 202.431136 
L 308.76255 197.077009 
L 309.077912 197.591126 
L 309.393275 198.937576 
L 309.708638 200.816538 
L 310.024 200.542085 
L 310.339362 203.702143 
L 310.654725 203.025495 
L 310.970087 195.408695 
L 311.28545 190.746454 
L 311.600812 202.43927 
L 311.916175 199.807354 
L 312.231537 203.161153 
L 312.5469 200.380487 
L 312.862262 194.457842 
L 313.177625 198.078512 
L 313.492987 186.419517 
L 313.80835 189.031153 
L 314.123713 180.219753 
L 314.439075 187.422379 
L 314.754437 188.602297 
L 315.0698 191.182283 
L 315.385162 188.403503 
L 315.700525 193.668257 
L 316.015887 186.221771 
L 316.33125 184.942378 
L 317.277337 159.914416 
L 317.5927 166.055406 
L 317.908062 169.470701 
L 318.223425 169.109379 
L 318.538787 172.504095 
L 319.169512 166.962138 
L 319.800237 177.895922 
L 320.1156 180.220726 
L 320.430962 173.649526 
L 320.746325 174.295595 
L 321.061687 168.624322 
L 321.37705 175.375637 
L 321.692412 172.865021 
L 322.007775 162.404045 
L 322.323137 162.274044 
L 322.6385 160.882472 
L 322.953862 158.112445 
L 323.269225 159.6504 
L 323.584587 162.472854 
L 324.215312 144.917797 
L 324.530675 146.353671 
L 324.846037 151.725427 
L 325.1614 151.824264 
L 325.476762 151.658587 
L 325.792125 146.302003 
L 327.053575 167.535051 
L 327.368937 164.968185 
L 327.6843 154.42388 
L 327.999662 148.449014 
L 328.315025 148.381159 
L 328.630387 143.486376 
L 328.94575 146.336673 
L 329.261112 135.786532 
L 329.891837 144.122773 
L 330.2072 156.139673 
L 330.522562 156.306614 
L 330.837925 153.198009 
L 331.153287 156.613477 
L 331.46865 157.435089 
L 331.784012 152.178249 
L 332.099375 150.751308 
L 332.414738 154.524637 
L 332.7301 155.613379 
L 333.045462 151.911902 
L 333.360825 158.768441 
L 333.676187 153.723189 
L 333.99155 144.642234 
L 334.306912 143.814828 
L 334.622275 144.769998 
L 335.253 150.819473 
L 335.568362 145.586289 
L 335.883725 153.331566 
L 336.199087 149.852331 
L 336.51445 158.137549 
L 336.829813 159.752571 
L 337.145175 166.44592 
L 337.460537 160.631848 
L 337.7759 157.642999 
L 338.091262 161.068168 
L 338.406625 152.798362 
L 338.721987 153.415249 
L 339.03735 152.031162 
L 339.352712 145.097852 
L 339.668075 144.995458 
L 339.983437 145.74578 
L 340.614162 150.887957 
L 340.929525 154.842536 
L 341.244888 163.521667 
L 341.56025 161.856519 
L 341.875612 166.122008 
L 342.190975 162.11477 
L 342.8217 173.708845 
L 343.137062 170.408673 
L 343.452425 170.337154 
L 343.767787 163.316247 
L 344.08315 168.340594 
L 344.398512 163.707694 
L 344.713875 161.008504 
L 345.029237 165.108074 
L 345.3446 170.95437 
L 345.975325 160.231984 
L 346.290687 170.979081 
L 346.60605 168.56384 
L 346.921412 160.835121 
L 347.236775 160.864423 
L 347.552137 159.422284 
L 347.8675 160.706069 
L 348.182862 160.594687 
L 348.498225 154.182732 
L 348.813587 156.266754 
L 349.12895 151.539704 
L 349.444312 154.737927 
L 349.759675 147.458331 
L 350.3904 155.745159 
L 350.705762 161.623851 
L 351.021125 164.753408 
L 351.336487 163.630737 
L 351.65185 164.991328 
L 351.967212 162.986598 
L 352.282575 161.807416 
L 352.597937 164.343899 
L 352.9133 163.439196 
L 353.228662 160.907923 
L 353.544025 170.71109 
L 353.859387 172.092511 
L 354.17475 170.905652 
L 354.490113 163.801189 
L 354.805475 160.850703 
L 355.120837 160.10437 
L 355.4362 168.373181 
L 355.751562 165.381737 
L 356.066925 155.089298 
L 356.382287 161.623867 
L 357.013012 156.654979 
L 357.328375 152.010401 
L 357.643737 159.568761 
L 357.9591 151.997959 
L 358.274462 149.177254 
L 358.905188 153.347206 
L 359.22055 154.184957 
L 359.535912 161.47569 
L 359.851275 162.410667 
L 360.166637 153.959725 
L 360.482 160.957502 
L 360.797362 152.171917 
L 361.112725 153.025105 
L 361.428087 159.368185 
L 361.74345 159.454113 
L 362.058812 154.77395 
L 362.374175 153.969107 
L 362.689537 152.656511 
L 363.0049 149.122373 
L 363.320263 152.091573 
L 363.635625 162.343766 
L 363.950987 161.671503 
L 364.26635 161.533295 
L 364.581712 157.492878 
L 364.897075 159.072874 
L 365.212437 158.424562 
L 365.5278 161.202414 
L 366.158525 164.43637 
L 366.473887 170.758507 
L 366.78925 169.836366 
L 367.104612 170.806595 
L 367.419975 170.778414 
L 367.735338 177.134196 
L 368.0507 178.548315 
L 368.681425 172.419367 
L 368.996787 172.137919 
L 369.31215 175.62658 
L 369.627512 177.314966 
L 369.942875 176.526724 
L 370.258237 177.169688 
L 370.5736 170.978071 
L 370.888962 172.02411 
L 371.204325 175.667811 
L 371.519687 175.582901 
L 371.83505 181.634196 
L 372.150412 175.82058 
L 372.465775 180.149979 
L 372.781137 187.753696 
L 373.0965 187.702821 
L 373.411862 180.721184 
L 373.727225 179.495618 
L 374.35795 189.795819 
L 374.673312 186.243612 
L 374.988675 172.838515 
L 375.304037 174.693675 
L 375.6194 183.77198 
L 375.934762 188.878048 
L 376.250125 182.91361 
L 376.565487 186.9516 
L 376.88085 188.326307 
L 377.196213 187.492167 
L 377.511575 197.228517 
L 377.826937 193.120201 
L 378.1423 192.77812 
L 378.773025 188.115168 
L 379.088387 195.963173 
L 379.40375 191.673246 
L 379.719112 197.942472 
L 380.034475 194.624872 
L 380.349837 197.743179 
L 380.6652 191.476945 
L 380.980562 188.706616 
L 381.295925 195.108492 
L 381.92665 182.456771 
L 382.242012 181.560324 
L 383.1881 173.06192 
L 383.503462 172.805903 
L 383.818825 177.609981 
L 384.134187 175.870727 
L 384.44955 179.744116 
L 384.764912 175.647431 
L 385.080275 178.628874 
L 385.395637 175.133639 
L 385.711 178.482219 
L 386.341725 181.086473 
L 386.657087 186.312332 
L 386.97245 186.820637 
L 387.287812 191.20296 
L 387.603175 190.673354 
L 387.918537 182.595319 
L 388.549262 196.679621 
L 388.864625 197.227109 
L 389.179987 189.834873 
L 389.49535 186.370374 
L 389.810712 188.800581 
L 390.126075 188.012872 
L 390.7568 185.247688 
L 391.072162 182.517956 
L 391.387525 188.689271 
L 391.702887 186.685163 
L 392.01825 193.032718 
L 392.333612 196.564847 
L 392.648975 195.436148 
L 393.595062 174.094696 
L 394.225787 182.160868 
L 394.54115 182.550307 
L 394.856513 180.519205 
L 395.171875 180.317539 
L 395.487237 176.705804 
L 395.8026 178.5515 
L 396.117962 176.692917 
L 396.433325 170.121473 
L 396.748687 170.150142 
L 397.06405 174.020803 
L 397.379412 175.976646 
L 398.010137 162.676773 
L 398.3255 164.123074 
L 398.640862 174.750826 
L 398.956225 170.125553 
L 399.271587 172.50498 
L 399.58695 167.422057 
L 399.902312 166.287319 
L 400.533037 184.947464 
L 400.8484 182.221123 
L 401.163762 187.552087 
L 401.479125 194.992202 
L 401.794487 190.316641 
L 402.10985 189.216028 
L 402.425212 179.970154 
L 402.740575 181.483459 
L 403.055937 182.214484 
L 403.3713 184.158416 
L 403.686662 182.663075 
L 404.002025 193.580606 
L 404.317387 193.565085 
L 404.63275 193.931541 
L 404.948112 195.405688 
L 405.263475 198.968275 
L 405.578837 204.120888 
L 405.8942 211.194002 
L 406.209562 212.057691 
L 406.524925 210.637118 
L 406.840287 212.349368 
L 407.15565 205.653283 
L 407.471012 217.820208 
L 407.786375 220.867523 
L 408.101737 212.184269 
L 408.4171 217.09355 
L 408.732462 215.704488 
L 409.047825 213.707266 
L 409.67855 200.909984 
L 409.993912 198.583966 
L 410.309275 187.915341 
L 410.624637 183.657336 
L 410.624637 183.657336 
" clip-path="url(#pf671e1560f)" style="fill: none; stroke: #1f77b4; stroke-width: 1.5; stroke-linecap: square"/>
   </g>
   <g id="patch_3">
    <path d="M 95.5775 266.245 
L 95.5775 25.92 
" style="fill: none; stroke: #000000; stroke-width: 0.8; stroke-linejoin: miter; stroke-linecap: square"/>
   </g>
   <g id="patch_4">
    <path d="M 410.94 266.245 
L 410.94 25.92 
" style="fill: none; stroke: #000000; stroke-width: 0.8; stroke-linejoin: miter; stroke-linecap: square"/>
   </g>
   <g id="patch_5">
    <path d="M 95.5775 266.245 
L 410.94 266.245 
" style="fill: none; stroke: #000000; stroke-width: 0.8; stroke-linejoin: miter; stroke-linecap: square"/>
   </g>
   <g id="patch_6">
    <path d="M 95.5775 25.92 
L 410.94 25.92 
" style="fill: none; stroke: #000000; stroke-width: 0.8; stroke-linejoin: miter; stroke-linecap: square"/>
   </g>
  </g>
 </g>
 <defs>
  <clipPath id="pf671e1560f">
   <rect x="95.5775" y="25.92" width="315.3625" height="240.325"/>
  </clipPath>
 </defs>
</svg>
