<?xml version="1.0" encoding="utf-8" standalone="no"?>
<!DOCTYPE svg PUBLIC "-//W3C//DTD SVG 1.1//EN"
  "http://www.w3.org/Graphics/SVG/1.1/DTD/svg11.dtd">
<svg xmlns:xlink="http://www.w3.org/1999/xlink" width="460.8pt" height="345.6pt" viewBox="0 0 460.8 345.6" xmlns="http://www.w3.org/2000/svg" version="1.1">
 <metadata>
  <rdf:RDF xmlns:dc="http://purl.org/dc/elements/1.1/" xmlns:cc="http://creativecommons.org/ns#" xmlns:rdf="http://www.w3.org/1999/02/22-rdf-syntax-ns#">
   <cc:Work>
    <dc:type rdf:resource="http://purl.org/dc/dcmitype/StillImage"/>
    <dc:date>2026-02-02T15:33:46.533514</dc:date>
    <dc:format>image/svg+xml</dc:format>
    <dc:creator>
     <cc:Agent>
      <dc:title>Matplotlib v3.10.8, https://matplotlib.org/</dc:title>
     </cc:Agent>
    </dc:creator>
   </cc:Work>
  </rdf:RDF>
 </metadata>
 <defs>
  <style type="text/css">*{stroke-linejoin: round; stroke-linecap: butt}</style>
 </defs>
 <g id="figure_1">
  <g id="patch_1">
   <path d="M 0 345.6 
L 460.8 345.6 
L 460.8 0 
L 0 0 
z
" style="fill: #ffffff"/>
  </g>
  <g id="axes_1">
   <g id="patch_2">
    <path d="M 82.33 266.245 
L 410.94 266.245 
L 410.94 25.92 
L 82.33 25.92 
z
" style="fill: #ffffff"/>
   </g>
   <g id="matplotlib.axis_1">
    <g id="xtick_1">
     <g id="line2d_1">
      <path d="M 82.33 266.245 
L 82.33 25.92 
" clip-path="url(#p4585ab278d)" style="fill: none; stroke: #b0b0b0; stroke-width: 0.8; stroke-linecap: square"/>
     </g>
     <g id="line2d_2">
      <defs>
       <path id="m131d39a5ff" d="M 0 0 
L 0 3.5 
" style="stroke: #000000; stroke-width: 0.8"/>
      </defs>
      <g>
       <use xlink:href="#m131d39a5ff" x="82.33" y="266.245" style="stroke: #000000; stroke-width: 0.8"/>
      </g>
     </g>
     <g id="text_1">
      <!-- 0 -->
      <g transform="translate(76.33 289.63625) scale(0.24 -0.24)">
       <defs>
        <path id="TeXGyreTermes-Regular-30" d="M 3046 2112 
C 3046 3424 2464 4326 1626 4326 
C 1274 4326 1005 4218 768 3994 
C 397 3635 154 2899 154 2150 
C 154 1453 365 704 666 346 
C 902 64 1229 -90 1600 -90 
C 1926 -90 2202 19 2432 243 
C 2803 595 3046 1338 3046 2112 
z
M 2432 2099 
C 2432 762 2150 77 1600 77 
C 1050 77 768 762 768 2093 
C 768 3450 1056 4160 1606 4160 
C 2144 4160 2432 3437 2432 2099 
z
" transform="scale(0.015625)"/>
       </defs>
       <use xlink:href="#TeXGyreTermes-Regular-30"/>
      </g>
     </g>
    </g>
    <g id="xtick_2">
     <g id="line2d_3">
      <path d="M 164.4825 266.245 
L 164.4825 25.92 
" clip-path="url(#p4585ab278d)" style="fill: none; stroke: #b0b0b0; stroke-width: 0.8; stroke-linecap: square"/>
     </g>
     <g id="line2d_4">
      <g>
       <use xlink:href="#m131d39a5ff" x="164.4825" y="266.245" style="stroke: #000000; stroke-width: 0.8"/>
      </g>
     </g>
     <g id="text_2">
      <!-- 250 -->
      <g transform="translate(146.4825 289.63625) scale(0.24 -0.24)">
       <defs>
        <path id="TeXGyreTermes-Regular-32" d="M 3040 877 
L 2957 909 
C 2720 544 2637 486 2349 486 
L 819 486 
L 1894 1613 
C 2464 2208 2714 2694 2714 3194 
C 2714 3834 2195 4326 1530 4326 
C 1178 4326 845 4186 608 3930 
C 403 3712 307 3507 198 3053 
L 333 3021 
C 589 3648 819 3853 1261 3853 
C 1798 3853 2163 3488 2163 2950 
C 2163 2451 1869 1856 1331 1286 
L 192 77 
L 192 0 
L 2688 0 
L 3040 877 
z
" transform="scale(0.015625)"/>
        <path id="TeXGyreTermes-Regular-35" d="M 2803 4358 
L 2746 4403 
C 2650 4269 2586 4237 2451 4237 
L 1114 4237 
L 416 2720 
C 410 2707 410 2688 410 2688 
C 410 2656 435 2637 486 2637 
C 691 2637 947 2592 1210 2509 
C 1946 2272 2285 1875 2285 1242 
C 2285 627 1894 147 1395 147 
C 1267 147 1158 192 966 333 
C 762 480 614 544 480 544 
C 294 544 205 467 205 307 
C 205 64 506 -90 986 -90 
C 1523 -90 1984 83 2304 410 
C 2598 698 2733 1062 2733 1549 
C 2733 2010 2611 2304 2291 2624 
C 2010 2906 1645 3053 890 3187 
L 1158 3731 
L 2413 3731 
C 2515 3731 2541 3744 2560 3789 
L 2803 4358 
z
" transform="scale(0.015625)"/>
       </defs>
       <use xlink:href="#TeXGyreTermes-Regular-32"/>
       <use xlink:href="#TeXGyreTermes-Regular-35" transform="translate(49.999985 0)"/>
       <use xlink:href="#TeXGyreTermes-Regular-30" transform="translate(99.999969 0)"/>
      </g>
     </g>
    </g>
    <g id="xtick_3">
     <g id="line2d_5">
      <path d="M 246.635 266.245 
L 246.635 25.92 
" clip-path="url(#p4585ab278d)" style="fill: none; stroke: #b0b0b0; stroke-width: 0.8; stroke-linecap: square"/>
     </g>
     <g id="line2d_6">
      <g>
       <use xlink:href="#m131d39a5ff" x="246.635" y="266.245" style="stroke: #000000; stroke-width: 0.8"/>
      </g>
     </g>
     <g id="text_3">
      <!-- 500 -->
      <g transform="translate(228.635 289.63625) scale(0.24 -0.24)">
       <use xlink:href="#TeXGyreTermes-Regular-35"/>
       <use xlink:href="#TeXGyreTermes-Regular-30" transform="translate(49.999985 0)"/>
       <use xlink:href="#TeXGyreTermes-Regular-30" transform="translate(99.999969 0)"/>
      </g>
     </g>
    </g>
    <g id="xtick_4">
     <g id="line2d_7">
      <path d="M 328.7875 266.245 
L 328.7875 25.92 
" clip-path="url(#p4585ab278d)" style="fill: none; stroke: #b0b0b0; stroke-width: 0.8; stroke-linecap: square"/>
     </g>
     <g id="line2d_8">
      <g>
       <use xlink:href="#m131d39a5ff" x="328.7875" y="266.245" style="stroke: #000000; stroke-width: 0.8"/>
      </g>
     </g>
     <g id="text_4">
      <!-- 750 -->
      <g transform="translate(310.7875 289.63625) scale(0.24 -0.24)">
       <defs>
        <path id="TeXGyreTermes-Regular-37" d="M 2874 4134 
L 2874 4237 
L 506 4237 
L 128 3296 
L 237 3245 
C 512 3680 627 3763 979 3763 
L 2368 3763 
L 1101 -51 
L 1517 -51 
L 2874 4134 
z
" transform="scale(0.015625)"/>
       </defs>
       <use xlink:href="#TeXGyreTermes-Regular-37"/>
       <use xlink:href="#TeXGyreTermes-Regular-35" transform="translate(49.999985 0)"/>
       <use xlink:href="#TeXGyreTermes-Regular-30" transform="translate(99.999969 0)"/>
      </g>
     </g>
    </g>
    <g id="xtick_5">
     <g id="line2d_9">
      <path d="M 410.94 266.245 
L 410.94 25.92 
" clip-path="url(#p4585ab278d)" style="fill: none; stroke: #b0b0b0; stroke-width: 0.8; stroke-linecap: square"/>
     </g>
     <g id="line2d_10">
      <g>
       <use xlink:href="#m131d39a5ff" x="410.94" y="266.245" style="stroke: #000000; stroke-width: 0.8"/>
      </g>
     </g>
     <g id="text_5">
      <!-- 1000 -->
      <g transform="translate(386.94 289.63625) scale(0.24 -0.24)">
       <defs>
        <path id="TeXGyreTermes-Regular-31" d="M 2522 0 
L 2522 96 
C 2016 102 1914 166 1914 474 
L 1914 4314 
L 1862 4326 
L 710 3744 
L 710 3654 
C 787 3686 858 3712 883 3725 
C 998 3770 1107 3795 1171 3795 
C 1306 3795 1363 3699 1363 3494 
L 1363 595 
C 1363 384 1312 237 1210 179 
C 1114 122 1024 102 755 96 
L 755 0 
L 2522 0 
z
" transform="scale(0.015625)"/>
       </defs>
       <use xlink:href="#TeXGyreTermes-Regular-31"/>
       <use xlink:href="#TeXGyreTermes-Regular-30" transform="translate(49.999985 0)"/>
       <use xlink:href="#TeXGyreTermes-Regular-30" transform="translate(99.999969 0)"/>
       <use xlink:href="#TeXGyreTermes-Regular-30" transform="translate(149.999954 0)"/>
      </g>
     </g>
    </g>
    <g id="text_6">
     <!-- Schritt k -->
     <g transform="translate(205.6325 315.23625) scale(0.24 -0.24)">
      <defs>
       <path id="TeXGyreTermes-Regular-53" d="M 3142 1075 
C 3142 1606 2790 2016 1946 2477 
C 1274 2842 1005 3123 1005 3475 
C 1005 3827 1274 4064 1670 4064 
C 1958 4064 2227 3942 2451 3712 
C 2650 3507 2739 3341 2842 2963 
L 3002 2963 
L 2861 4326 
L 2726 4326 
C 2701 4186 2630 4109 2522 4109 
C 2458 4109 2355 4134 2240 4186 
C 2003 4275 1773 4326 1549 4326 
C 1299 4326 1030 4224 826 4058 
C 576 3853 454 3578 454 3226 
C 454 2720 736 2362 1453 1984 
C 1914 1734 2246 1478 2406 1235 
C 2464 1146 2496 1018 2496 858 
C 2496 435 2176 141 1709 141 
C 1133 141 736 493 416 1274 
L 269 1274 
L 461 -83 
L 602 -83 
C 608 38 685 128 781 128 
C 851 128 960 102 1082 58 
C 1325 -38 1581 -90 1837 -90 
C 2579 -90 3142 416 3142 1075 
z
" transform="scale(0.015625)"/>
       <path id="TeXGyreTermes-Regular-63" d="M 2637 941 
L 2547 998 
C 2240 550 2010 397 1645 397 
C 1056 397 653 909 653 1645 
C 653 2310 1005 2758 1523 2758 
C 1754 2758 1837 2688 1901 2451 
L 1939 2310 
C 1990 2125 2106 2016 2246 2016 
C 2413 2016 2547 2138 2547 2285 
C 2547 2643 2099 2944 1562 2944 
C 1261 2944 954 2829 698 2618 
C 352 2330 160 1888 160 1357 
C 160 531 666 -64 1376 -64 
C 1651 -64 1894 26 2112 205 
C 2304 358 2432 544 2637 941 
z
" transform="scale(0.015625)"/>
       <path id="TeXGyreTermes-Regular-68" d="M 3117 0 
L 3117 96 
C 2771 160 2733 211 2733 653 
L 2733 1926 
C 2733 2598 2464 2944 1946 2944 
C 1568 2944 1299 2790 1005 2406 
L 1005 4352 
L 973 4371 
C 755 4294 595 4243 237 4141 
L 64 4090 
L 64 3987 
C 90 3994 109 3994 141 3994 
C 416 3994 467 3942 467 3667 
L 467 653 
C 467 205 429 147 58 96 
L 58 0 
L 1440 0 
L 1440 96 
C 1069 134 1005 211 1005 653 
L 1005 2195 
C 1274 2490 1466 2598 1715 2598 
C 2035 2598 2195 2368 2195 1920 
L 2195 653 
C 2195 218 2131 134 1760 96 
L 1760 0 
L 3117 0 
z
" transform="scale(0.015625)"/>
       <path id="TeXGyreTermes-Regular-72" d="M 2144 2605 
C 2144 2816 2010 2944 1792 2944 
C 1523 2944 1338 2797 1024 2342 
L 1024 2931 
L 992 2944 
C 653 2803 422 2720 45 2598 
L 45 2496 
C 134 2515 192 2522 269 2522 
C 429 2522 486 2419 486 2138 
L 486 538 
C 486 218 442 173 32 96 
L 32 0 
L 1568 0 
L 1568 96 
C 1133 115 1024 211 1024 576 
L 1024 2016 
C 1024 2221 1299 2541 1472 2541 
C 1510 2541 1568 2509 1638 2445 
C 1741 2355 1811 2317 1894 2317 
C 2048 2317 2144 2426 2144 2605 
z
" transform="scale(0.015625)"/>
       <path id="TeXGyreTermes-Regular-69" d="M 1619 0 
L 1619 96 
C 1197 128 1146 192 1146 653 
L 1146 2925 
L 1120 2944 
L 128 2592 
L 128 2496 
L 179 2502 
C 256 2515 339 2522 397 2522 
C 550 2522 608 2419 608 2138 
L 608 653 
C 608 192 544 122 102 96 
L 102 0 
L 1619 0 
z
M 1203 3776 
C 1203 3955 1062 4102 877 4102 
C 698 4102 550 3955 550 3776 
C 550 3590 698 3450 877 3450 
C 1062 3450 1203 3590 1203 3776 
z
" transform="scale(0.015625)"/>
       <path id="TeXGyreTermes-Regular-74" d="M 1786 422 
L 1702 493 
C 1562 326 1459 269 1318 269 
C 1082 269 986 435 986 845 
L 986 2675 
L 1632 2675 
L 1632 2880 
L 986 2880 
L 986 3622 
C 986 3686 973 3706 941 3706 
C 902 3642 858 3584 813 3526 
C 576 3174 358 2938 192 2842 
C 122 2797 83 2758 83 2720 
C 83 2701 90 2688 109 2675 
L 448 2675 
L 448 749 
C 448 211 640 -64 1011 -64 
C 1331 -64 1574 90 1786 422 
z
" transform="scale(0.015625)"/>
       <path id="TeXGyreTermes-Regular-20" transform="scale(0.015625)"/>
       <path id="TeXGyreTermes-Regular-6b" d="M 3232 0 
L 3232 96 
C 2950 115 2752 237 2483 563 
L 1504 1805 
L 1690 1978 
C 2144 2400 2541 2694 2726 2746 
C 2822 2771 2912 2784 3021 2784 
L 3072 2784 
L 3072 2880 
L 1766 2880 
L 1766 2790 
C 2016 2784 2086 2758 2086 2669 
C 2086 2618 2029 2528 1939 2451 
L 1062 1670 
L 1062 4358 
L 1037 4371 
L 237 4141 
L 45 4090 
L 45 3987 
C 128 3994 186 4000 250 4000 
C 461 4000 525 3917 525 3610 
L 525 525 
C 525 192 506 173 45 96 
L 45 0 
L 1542 0 
L 1542 96 
L 1414 102 
C 1158 115 1062 205 1062 429 
L 1062 1606 
L 1958 410 
L 1978 384 
C 1990 365 2003 346 2022 326 
C 2074 262 2093 224 2093 192 
C 2093 134 2035 96 1958 96 
L 1837 96 
L 1837 0 
L 3232 0 
z
" transform="scale(0.015625)"/>
      </defs>
      <use xlink:href="#TeXGyreTermes-Regular-53"/>
      <use xlink:href="#TeXGyreTermes-Regular-63" transform="translate(55.599991 0)"/>
      <use xlink:href="#TeXGyreTermes-Regular-68" transform="translate(99.999985 0)"/>
      <use xlink:href="#TeXGyreTermes-Regular-72" transform="translate(149.999969 0)"/>
      <use xlink:href="#TeXGyreTermes-Regular-69" transform="translate(183.299957 0)"/>
      <use xlink:href="#TeXGyreTermes-Regular-74" transform="translate(211.099945 0)"/>
      <use xlink:href="#TeXGyreTermes-Regular-74" transform="translate(238.899933 0)"/>
      <use xlink:href="#TeXGyreTermes-Regular-20" transform="translate(266.699921 0)"/>
      <use xlink:href="#TeXGyreTermes-Regular-6b" transform="translate(291.699905 0)"/>
     </g>
    </g>
   </g>
   <g id="matplotlib.axis_2">
    <g id="ytick_1">
     <g id="line2d_11">
      <path d="M 82.33 192.146775 
L 410.94 192.146775 
" clip-path="url(#p4585ab278d)" style="fill: none; stroke: #b0b0b0; stroke-width: 0.8; stroke-linecap: square"/>
     </g>
     <g id="line2d_12">
      <defs>
       <path id="m626f9af003" d="M 0 0 
L -3.5 0 
" style="stroke: #000000; stroke-width: 0.8"/>
      </defs>
      <g>
       <use xlink:href="#m626f9af003" x="82.33" y="192.146775" style="stroke: #000000; stroke-width: 0.8"/>
      </g>
     </g>
     <g id="text_7">
      <!-- −400 -->
      <g transform="translate(25.7925 200.3424) scale(0.24 -0.24)">
       <defs>
        <path id="TeXGyreTermes-Regular-2212" d="M 3354 1389 
L 3354 1811 
L 256 1811 
L 256 1389 
L 3354 1389 
z
" transform="scale(0.015625)"/>
        <path id="TeXGyreTermes-Regular-34" d="M 3021 1069 
L 3021 1478 
L 2368 1478 
L 2368 4326 
L 2086 4326 
L 77 1478 
L 77 1069 
L 1875 1069 
L 1875 0 
L 2368 0 
L 2368 1069 
L 3021 1069 
z
M 1869 1478 
L 333 1478 
L 1869 3674 
L 1869 1478 
z
" transform="scale(0.015625)"/>
       </defs>
       <use xlink:href="#TeXGyreTermes-Regular-2212"/>
       <use xlink:href="#TeXGyreTermes-Regular-34" transform="translate(56.399994 0)"/>
       <use xlink:href="#TeXGyreTermes-Regular-30" transform="translate(106.399979 0)"/>
       <use xlink:href="#TeXGyreTermes-Regular-30" transform="translate(156.399963 0)"/>
      </g>
     </g>
    </g>
    <g id="ytick_2">
     <g id="line2d_13">
      <path d="M 82.33 114.495319 
L 410.94 114.495319 
" clip-path="url(#p4585ab278d)" style="fill: none; stroke: #b0b0b0; stroke-width: 0.8; stroke-linecap: square"/>
     </g>
     <g id="line2d_14">
      <g>
       <use xlink:href="#m626f9af003" x="82.33" y="114.495319" style="stroke: #000000; stroke-width: 0.8"/>
      </g>
     </g>
     <g id="text_8">
      <!-- −200 -->
      <g transform="translate(25.7925 122.690944) scale(0.24 -0.24)">
       <use xlink:href="#TeXGyreTermes-Regular-2212"/>
       <use xlink:href="#TeXGyreTermes-Regular-32" transform="translate(56.399994 0)"/>
       <use xlink:href="#TeXGyreTermes-Regular-30" transform="translate(106.399979 0)"/>
       <use xlink:href="#TeXGyreTermes-Regular-30" transform="translate(156.399963 0)"/>
      </g>
     </g>
    </g>
    <g id="ytick_3">
     <g id="line2d_15">
      <path d="M 82.33 36.843864 
L 410.94 36.843864 
" clip-path="url(#p4585ab278d)" style="fill: none; stroke: #b0b0b0; stroke-width: 0.8; stroke-linecap: square"/>
     </g>
     <g id="line2d_16">
      <g>
       <use xlink:href="#m626f9af003" x="82.33" y="36.843864" style="stroke: #000000; stroke-width: 0.8"/>
      </g>
     </g>
     <g id="text_9">
      <!-- 0 -->
      <g transform="translate(63.33 45.039489) scale(0.24 -0.24)">
       <use xlink:href="#TeXGyreTermes-Regular-30"/>
      </g>
     </g>
    </g>
   </g>
   <g id="line2d_17">
    <path d="M 82.33 36.843864 
L 84.63027 42.338586 
L 85.28749 43.259158 
L 86.60193 45.295996 
L 87.25915 46.550561 
L 88.9022 48.752231 
L 89.55942 49.670591 
L 90.54525 51.006874 
L 91.85969 52.044192 
L 92.1883 52.190606 
L 92.51691 52.56877 
L 92.84552 52.737401 
L 96.78884 58.3927 
L 97.44606 59.060332 
L 99.74633 61.999713 
L 100.40355 62.593253 
L 102.0466 64.183742 
L 103.36104 65.499308 
L 104.01826 66.474545 
L 105.00409 68.10288 
L 105.66131 69.379677 
L 106.97575 70.551067 
L 107.63297 71.502548 
L 108.6188 72.676662 
L 108.94741 72.854907 
L 109.27602 73.165235 
L 109.93324 73.163105 
L 110.59046 73.841494 
L 111.57629 75.163423 
L 111.9049 75.457678 
L 112.56212 76.255635 
L 113.87656 76.635253 
L 114.20517 76.623298 
L 115.51961 75.907819 
L 116.17683 76.060253 
L 116.83405 76.536539 
L 118.4771 77.872586 
L 118.80571 78.029359 
L 119.46293 78.484157 
L 119.79154 78.548424 
L 120.12015 78.825055 
L 120.77737 79.90836 
L 122.42042 81.300356 
L 122.74903 81.525873 
L 124.72069 83.782219 
L 126.69235 85.372037 
L 127.34957 85.488235 
L 128.3354 86.164953 
L 129.32123 87.381492 
L 129.64984 87.685025 
L 130.96428 89.512659 
L 131.6215 90.335856 
L 132.27872 91.567285 
L 132.60733 91.976076 
L 132.93594 92.192119 
L 133.92177 93.443371 
L 135.89343 94.166733 
L 136.22204 94.266193 
L 136.55065 94.118153 
L 137.20787 93.58204 
L 137.53648 93.465754 
L 138.52231 93.504086 
L 139.17953 93.814495 
L 139.50814 93.920618 
L 141.15119 95.259503 
L 142.13702 95.192804 
L 142.79424 94.934282 
L 143.78007 94.36706 
L 144.43729 94.195078 
L 144.7659 94.32666 
L 145.75173 94.137538 
L 148.70922 92.505914 
L 149.69505 91.535573 
L 151.3381 88.97485 
L 151.66671 88.576063 
L 152.65254 87.95385 
L 152.98115 87.965091 
L 154.6242 87.1422 
L 155.28142 86.810357 
L 156.92447 86.075104 
L 157.25308 86.104709 
L 157.9103 85.936395 
L 158.56752 85.858532 
L 160.21057 84.921363 
L 160.86779 84.552258 
L 162.18223 83.116742 
L 163.16806 82.954946 
L 163.49667 82.812164 
L 163.82528 82.829312 
L 164.4825 83.019424 
L 165.46833 83.382879 
L 167.11138 84.269418 
L 167.43999 84.415645 
L 168.09721 84.285616 
L 168.75443 83.798132 
L 169.74026 83.064873 
L 170.72609 82.548618 
L 171.38331 82.055339 
L 172.69775 81.536732 
L 173.35497 81.744082 
L 174.01219 81.891883 
L 174.99802 82.379967 
L 175.32663 82.48679 
L 175.65524 82.422719 
L 176.64107 81.887445 
L 176.96968 81.866013 
L 178.28412 82.492608 
L 180.25578 84.377034 
L 180.913 84.584377 
L 181.24161 84.534498 
L 181.57022 84.329787 
L 182.88466 84.169626 
L 183.54188 84.5613 
L 184.85632 85.629711 
L 185.51354 86.14444 
L 186.17076 86.578574 
L 186.82798 86.776411 
L 189.45686 87.184892 
L 190.11408 87.082412 
L 191.42852 87.257124 
L 192.74296 87.346332 
L 193.40018 87.323972 
L 194.38601 87.939998 
L 194.71462 88.30495 
L 195.37184 88.747465 
L 195.70045 89.021461 
L 196.02906 89.135748 
L 197.3435 88.969121 
L 198.00072 88.675553 
L 198.98655 88.728339 
L 199.64377 89.339523 
L 200.30099 89.533492 
L 201.61543 89.564655 
L 202.60126 89.285457 
L 203.9157 88.137741 
L 204.24431 87.653989 
L 204.90153 87.153747 
L 205.88736 87.134321 
L 206.54458 87.171738 
L 207.2018 86.60228 
L 207.85902 85.957769 
L 208.18763 85.712163 
L 209.83068 83.535131 
L 210.15929 83.274037 
L 210.4879 83.275976 
L 210.81651 83.094003 
L 212.13095 81.442132 
L 212.78817 80.977265 
L 213.774 80.014815 
L 214.10261 79.857418 
L 214.43122 79.565699 
L 215.08844 79.405639 
L 215.41705 79.112709 
L 215.74566 78.975646 
L 216.73149 79.054453 
L 217.38871 79.316107 
L 218.04593 79.450626 
L 218.70315 79.486833 
L 220.3462 79.734097 
L 221.33203 78.91754 
L 221.66064 78.611087 
L 222.31786 77.737279 
L 222.64647 77.442905 
L 223.96091 76.993647 
L 224.28952 76.728323 
L 224.61813 76.268984 
L 225.60396 75.367634 
L 226.26118 74.553767 
L 226.9184 73.43049 
L 227.90423 72.224708 
L 228.23284 71.847759 
L 228.89006 71.52689 
L 229.87589 71.421503 
L 230.53311 71.764499 
L 231.84755 72.987216 
L 232.17616 73.123333 
L 232.83338 72.800141 
L 233.81921 72.748667 
L 235.46226 73.443411 
L 236.11948 73.338311 
L 237.76253 73.199679 
L 238.09114 73.169204 
L 239.07697 73.450154 
L 240.0628 73.698005 
L 240.39141 73.949256 
L 240.72002 74.058495 
L 241.37724 73.93279 
L 241.70585 73.73622 
L 242.69168 72.7461 
L 243.3489 72.286878 
L 246.30639 68.991592 
L 246.96361 68.335057 
L 247.94944 67.534755 
L 249.26388 66.774717 
L 250.90693 65.156637 
L 253.2072 63.244304 
L 253.86442 62.783528 
L 254.85025 62.263558 
L 255.83608 62.217489 
L 258.46496 64.119736 
L 258.79357 64.179325 
L 259.12218 64.124736 
L 260.76523 65.049328 
L 261.09384 65.098178 
L 262.07967 64.702184 
L 262.73689 64.437893 
L 264.05133 64.709189 
L 266.3516 64.639602 
L 267.66604 65.263743 
L 267.99465 65.333321 
L 268.98048 65.810552 
L 269.30909 65.886391 
L 269.6377 65.788808 
L 270.29492 65.956041 
L 272.26658 66.884486 
L 272.9238 66.688524 
L 274.56685 66.738679 
L 275.55268 66.850061 
L 276.2099 67.137062 
L 277.52434 67.445366 
L 278.18156 67.389319 
L 280.81044 67.906035 
L 281.46766 68.356879 
L 282.12488 68.959024 
L 283.43932 69.417249 
L 284.09654 70.040419 
L 284.75376 70.803318 
L 285.41098 71.172053 
L 286.0682 71.30565 
L 286.39681 71.347897 
L 288.03986 72.576626 
L 290.01152 75.333476 
L 290.34013 75.691173 
L 290.99735 76.68404 
L 292.31179 78.002005 
L 293.62623 79.472187 
L 293.95484 79.780364 
L 294.61206 80.111556 
L 295.9265 81.52207 
L 297.24094 83.393918 
L 300.19843 87.029997 
L 300.52704 87.210219 
L 301.18426 87.905521 
L 302.17009 88.257339 
L 302.82731 88.27274 
L 303.81314 88.288777 
L 305.45619 88.883535 
L 307.42785 88.522627 
L 308.41368 88.985511 
L 309.0709 89.434081 
L 309.72812 89.866876 
L 310.05673 89.874424 
L 310.38534 90.030908 
L 311.37117 91.033182 
L 312.02839 91.162095 
L 312.357 91.084489 
L 313.01422 91.196161 
L 313.34283 91.495237 
L 314.32866 92.756328 
L 314.98588 93.345775 
L 315.31449 93.692935 
L 315.6431 93.868092 
L 317.94337 96.358548 
L 318.60059 97.20744 
L 318.9292 97.478033 
L 322.54391 103.323198 
L 323.20113 104.942969 
L 325.83001 111.384986 
L 327.14445 114.347945 
L 328.13028 117.283337 
L 330.43055 124.169397 
L 333.05943 130.396144 
L 334.04526 133.317953 
L 336.01692 137.569352 
L 337.65997 142.254294 
L 339.30302 145.425484 
L 340.28885 147.339129 
L 342.58912 151.514131 
L 343.24634 152.22123 
L 344.23217 153.014597 
L 345.218 154.207113 
L 346.20383 154.959866 
L 346.86105 155.560712 
L 347.51827 156.389418 
L 348.17549 157.093592 
L 349.16132 158.247777 
L 350.14715 158.761983 
L 350.47576 158.953905 
L 351.13298 159.618021 
L 352.11881 160.32218 
L 352.77603 161.025158 
L 354.74769 163.686152 
L 356.39074 166.987973 
L 357.37657 168.991294 
L 360.33406 174.59666 
L 362.96294 178.704399 
L 363.62016 179.827941 
L 365.59182 183.709763 
L 367.89209 188.313048 
L 368.87792 191.242543 
L 369.86375 193.852287 
L 371.5068 198.269567 
L 372.49263 200.68055 
L 374.46429 204.524439 
L 375.45012 205.671078 
L 377.75039 209.589186 
L 378.73622 211.495634 
L 379.72205 212.341857 
L 380.37927 212.499027 
L 382.35093 214.340021 
L 382.67954 214.971497 
L 383.33676 216.643865 
L 384.6512 219.316697 
L 385.30842 220.301468 
L 386.62286 221.971276 
L 390.23757 226.482945 
L 390.56618 226.94578 
L 392.20923 230.022252 
L 392.86645 230.958104 
L 393.85228 232.368096 
L 396.15255 235.616702 
L 397.7956 238.850179 
L 398.78143 239.665842 
L 400.42448 241.21161 
L 401.41031 242.208251 
L 402.72475 243.938861 
L 403.38197 244.952662 
L 404.03919 245.603926 
L 404.3678 245.789225 
L 404.69641 245.814605 
L 405.02502 246.032032 
L 406.01085 247.616642 
L 406.66807 248.988711 
L 407.6539 250.484931 
L 408.31112 251.477936 
L 408.96834 252.185357 
L 409.95417 253.661829 
L 410.61139 255.321136 
L 410.61139 255.321136 
" clip-path="url(#p4585ab278d)" style="fill: none; stroke: #1f77b4; stroke-width: 2; stroke-linecap: square"/>
   </g>
   <g id="patch_3">
    <path d="M 82.33 266.245 
L 82.33 25.92 
" style="fill: none; stroke: #000000; stroke-width: 0.8; stroke-linejoin: miter; stroke-linecap: square"/>
   </g>
   <g id="patch_4">
    <path d="M 410.94 266.245 
L 410.94 25.92 
" style="fill: none; stroke: #000000; stroke-width: 0.8; stroke-linejoin: miter; stroke-linecap: square"/>
   </g>
   <g id="patch_5">
    <path d="M 82.33 266.245 
L 410.94 266.245 
" style="fill: none; stroke: #000000; stroke-width: 0.8; stroke-linejoin: miter; stroke-linecap: square"/>
   </g>
   <g id="patch_6">
    <path d="M 82.33 25.92 
L 410.94 25.92 
" style="fill: none; stroke: #000000; stroke-width: 0.8; stroke-linejoin: miter; stroke-linecap: square"/>
   </g>
  </g>
 </g>
 <defs>
  <clipPath id="p4585ab278d">
   <rect x="82.33" y="25.92" width="328.61" height="240.325"/>
  </clipPath>
 </defs>
</svg>
