<?xml version="1.0" encoding="utf-8" standalone="no"?>
<!DOCTYPE svg PUBLIC "-//W3C//DTD SVG 1.1//EN"
  "http://www.w3.org/Graphics/SVG/1.1/DTD/svg11.dtd">
<svg xmlns:xlink="http://www.w3.org/1999/xlink" width="460.8pt" height="345.6pt" viewBox="0 0 460.8 345.6" xmlns="http://www.w3.org/2000/svg" version="1.1">
 <metadata>
  <rdf:RDF xmlns:dc="http://purl.org/dc/elements/1.1/" xmlns:cc="http://creativecommons.org/ns#" xmlns:rdf="http://www.w3.org/1999/02/22-rdf-syntax-ns#">
   <cc:Work>
    <dc:type rdf:resource="http://purl.org/dc/dcmitype/StillImage"/>
    <dc:date>2026-01-28T11:01:54.298082</dc:date>
    <dc:format>image/svg+xml</dc:format>
    <dc:creator>
     <cc:Agent>
      <dc:title>Matplotlib v3.10.8, https://matplotlib.org/</dc:title>
     </cc:Agent>
    </dc:creator>
   </cc:Work>
  </rdf:RDF>
 </metadata>
 <defs>
  <style type="text/css">*{stroke-linejoin: round; stroke-linecap: butt}</style>
 </defs>
 <g id="figure_1">
  <g id="patch_1">
   <path d="M 0 345.6 
L 460.8 345.6 
L 460.8 0 
L 0 0 
z
" style="fill: #ffffff"/>
  </g>
  <g id="axes_1">
   <g id="patch_2">
    <path d="M 58.39 266.245 
L 426.847748 266.245 
L 426.847748 25.92 
L 58.39 25.92 
z
" style="fill: #ffffff"/>
   </g>
   <g id="matplotlib.axis_1">
    <g id="xtick_1">
     <g id="line2d_1">
      <path d="M 75.138079 266.245 
L 75.138079 25.92 
" clip-path="url(#pd3692c55c5)" style="fill: none; stroke: #b0b0b0; stroke-width: 0.8; stroke-linecap: square"/>
     </g>
     <g id="line2d_2">
      <defs>
       <path id="m4954236187" d="M 0 0 
L 0 3.5 
" style="stroke: #000000; stroke-width: 0.8"/>
      </defs>
      <g>
       <use xlink:href="#m4954236187" x="75.138079" y="266.245" style="stroke: #000000; stroke-width: 0.8"/>
      </g>
     </g>
     <g id="text_1">
      <!-- 0 -->
      <g transform="translate(69.138079 289.63625) scale(0.24 -0.24)">
       <defs>
        <path id="TeXGyreTermes-Regular-30" d="M 3046 2112 
C 3046 3424 2464 4326 1626 4326 
C 1274 4326 1005 4218 768 3994 
C 397 3635 154 2899 154 2150 
C 154 1453 365 704 666 346 
C 902 64 1229 -90 1600 -90 
C 1926 -90 2202 19 2432 243 
C 2803 595 3046 1338 3046 2112 
z
M 2432 2099 
C 2432 762 2150 77 1600 77 
C 1050 77 768 762 768 2093 
C 768 3450 1056 4160 1606 4160 
C 2144 4160 2432 3437 2432 2099 
z
" transform="scale(0.015625)"/>
       </defs>
       <use xlink:href="#TeXGyreTermes-Regular-30"/>
      </g>
     </g>
    </g>
    <g id="xtick_2">
     <g id="line2d_3">
      <path d="M 158.962301 266.245 
L 158.962301 25.92 
" clip-path="url(#pd3692c55c5)" style="fill: none; stroke: #b0b0b0; stroke-width: 0.8; stroke-linecap: square"/>
     </g>
     <g id="line2d_4">
      <g>
       <use xlink:href="#m4954236187" x="158.962301" y="266.245" style="stroke: #000000; stroke-width: 0.8"/>
      </g>
     </g>
     <g id="text_2">
      <!-- 250 -->
      <g transform="translate(140.962301 289.63625) scale(0.24 -0.24)">
       <defs>
        <path id="TeXGyreTermes-Regular-32" d="M 3040 877 
L 2957 909 
C 2720 544 2637 486 2349 486 
L 819 486 
L 1894 1613 
C 2464 2208 2714 2694 2714 3194 
C 2714 3834 2195 4326 1530 4326 
C 1178 4326 845 4186 608 3930 
C 403 3712 307 3507 198 3053 
L 333 3021 
C 589 3648 819 3853 1261 3853 
C 1798 3853 2163 3488 2163 2950 
C 2163 2451 1869 1856 1331 1286 
L 192 77 
L 192 0 
L 2688 0 
L 3040 877 
z
" transform="scale(0.015625)"/>
        <path id="TeXGyreTermes-Regular-35" d="M 2803 4358 
L 2746 4403 
C 2650 4269 2586 4237 2451 4237 
L 1114 4237 
L 416 2720 
C 410 2707 410 2688 410 2688 
C 410 2656 435 2637 486 2637 
C 691 2637 947 2592 1210 2509 
C 1946 2272 2285 1875 2285 1242 
C 2285 627 1894 147 1395 147 
C 1267 147 1158 192 966 333 
C 762 480 614 544 480 544 
C 294 544 205 467 205 307 
C 205 64 506 -90 986 -90 
C 1523 -90 1984 83 2304 410 
C 2598 698 2733 1062 2733 1549 
C 2733 2010 2611 2304 2291 2624 
C 2010 2906 1645 3053 890 3187 
L 1158 3731 
L 2413 3731 
C 2515 3731 2541 3744 2560 3789 
L 2803 4358 
z
" transform="scale(0.015625)"/>
       </defs>
       <use xlink:href="#TeXGyreTermes-Regular-32"/>
       <use xlink:href="#TeXGyreTermes-Regular-35" transform="translate(49.999985 0)"/>
       <use xlink:href="#TeXGyreTermes-Regular-30" transform="translate(99.999969 0)"/>
      </g>
     </g>
    </g>
    <g id="xtick_3">
     <g id="line2d_5">
      <path d="M 242.786522 266.245 
L 242.786522 25.92 
" clip-path="url(#pd3692c55c5)" style="fill: none; stroke: #b0b0b0; stroke-width: 0.8; stroke-linecap: square"/>
     </g>
     <g id="line2d_6">
      <g>
       <use xlink:href="#m4954236187" x="242.786522" y="266.245" style="stroke: #000000; stroke-width: 0.8"/>
      </g>
     </g>
     <g id="text_3">
      <!-- 500 -->
      <g transform="translate(224.786522 289.63625) scale(0.24 -0.24)">
       <use xlink:href="#TeXGyreTermes-Regular-35"/>
       <use xlink:href="#TeXGyreTermes-Regular-30" transform="translate(49.999985 0)"/>
       <use xlink:href="#TeXGyreTermes-Regular-30" transform="translate(99.999969 0)"/>
      </g>
     </g>
    </g>
    <g id="xtick_4">
     <g id="line2d_7">
      <path d="M 326.610744 266.245 
L 326.610744 25.92 
" clip-path="url(#pd3692c55c5)" style="fill: none; stroke: #b0b0b0; stroke-width: 0.8; stroke-linecap: square"/>
     </g>
     <g id="line2d_8">
      <g>
       <use xlink:href="#m4954236187" x="326.610744" y="266.245" style="stroke: #000000; stroke-width: 0.8"/>
      </g>
     </g>
     <g id="text_4">
      <!-- 750 -->
      <g transform="translate(308.610744 289.63625) scale(0.24 -0.24)">
       <defs>
        <path id="TeXGyreTermes-Regular-37" d="M 2874 4134 
L 2874 4237 
L 506 4237 
L 128 3296 
L 237 3245 
C 512 3680 627 3763 979 3763 
L 2368 3763 
L 1101 -51 
L 1517 -51 
L 2874 4134 
z
" transform="scale(0.015625)"/>
       </defs>
       <use xlink:href="#TeXGyreTermes-Regular-37"/>
       <use xlink:href="#TeXGyreTermes-Regular-35" transform="translate(49.999985 0)"/>
       <use xlink:href="#TeXGyreTermes-Regular-30" transform="translate(99.999969 0)"/>
      </g>
     </g>
    </g>
    <g id="xtick_5">
     <g id="line2d_9">
      <path d="M 410.434965 266.245 
L 410.434965 25.92 
" clip-path="url(#pd3692c55c5)" style="fill: none; stroke: #b0b0b0; stroke-width: 0.8; stroke-linecap: square"/>
     </g>
     <g id="line2d_10">
      <g>
       <use xlink:href="#m4954236187" x="410.434965" y="266.245" style="stroke: #000000; stroke-width: 0.8"/>
      </g>
     </g>
     <g id="text_5">
      <!-- 1000 -->
      <g transform="translate(386.434965 289.63625) scale(0.24 -0.24)">
       <defs>
        <path id="TeXGyreTermes-Regular-31" d="M 2522 0 
L 2522 96 
C 2016 102 1914 166 1914 474 
L 1914 4314 
L 1862 4326 
L 710 3744 
L 710 3654 
C 787 3686 858 3712 883 3725 
C 998 3770 1107 3795 1171 3795 
C 1306 3795 1363 3699 1363 3494 
L 1363 595 
C 1363 384 1312 237 1210 179 
C 1114 122 1024 102 755 96 
L 755 0 
L 2522 0 
z
" transform="scale(0.015625)"/>
       </defs>
       <use xlink:href="#TeXGyreTermes-Regular-31"/>
       <use xlink:href="#TeXGyreTermes-Regular-30" transform="translate(49.999985 0)"/>
       <use xlink:href="#TeXGyreTermes-Regular-30" transform="translate(99.999969 0)"/>
       <use xlink:href="#TeXGyreTermes-Regular-30" transform="translate(149.999954 0)"/>
      </g>
     </g>
    </g>
    <g id="text_6">
     <!-- Schritt k -->
     <g transform="translate(201.616374 315.23625) scale(0.24 -0.24)">
      <defs>
       <path id="TeXGyreTermes-Regular-53" d="M 3142 1075 
C 3142 1606 2790 2016 1946 2477 
C 1274 2842 1005 3123 1005 3475 
C 1005 3827 1274 4064 1670 4064 
C 1958 4064 2227 3942 2451 3712 
C 2650 3507 2739 3341 2842 2963 
L 3002 2963 
L 2861 4326 
L 2726 4326 
C 2701 4186 2630 4109 2522 4109 
C 2458 4109 2355 4134 2240 4186 
C 2003 4275 1773 4326 1549 4326 
C 1299 4326 1030 4224 826 4058 
C 576 3853 454 3578 454 3226 
C 454 2720 736 2362 1453 1984 
C 1914 1734 2246 1478 2406 1235 
C 2464 1146 2496 1018 2496 858 
C 2496 435 2176 141 1709 141 
C 1133 141 736 493 416 1274 
L 269 1274 
L 461 -83 
L 602 -83 
C 608 38 685 128 781 128 
C 851 128 960 102 1082 58 
C 1325 -38 1581 -90 1837 -90 
C 2579 -90 3142 416 3142 1075 
z
" transform="scale(0.015625)"/>
       <path id="TeXGyreTermes-Regular-63" d="M 2637 941 
L 2547 998 
C 2240 550 2010 397 1645 397 
C 1056 397 653 909 653 1645 
C 653 2310 1005 2758 1523 2758 
C 1754 2758 1837 2688 1901 2451 
L 1939 2310 
C 1990 2125 2106 2016 2246 2016 
C 2413 2016 2547 2138 2547 2285 
C 2547 2643 2099 2944 1562 2944 
C 1261 2944 954 2829 698 2618 
C 352 2330 160 1888 160 1357 
C 160 531 666 -64 1376 -64 
C 1651 -64 1894 26 2112 205 
C 2304 358 2432 544 2637 941 
z
" transform="scale(0.015625)"/>
       <path id="TeXGyreTermes-Regular-68" d="M 3117 0 
L 3117 96 
C 2771 160 2733 211 2733 653 
L 2733 1926 
C 2733 2598 2464 2944 1946 2944 
C 1568 2944 1299 2790 1005 2406 
L 1005 4352 
L 973 4371 
C 755 4294 595 4243 237 4141 
L 64 4090 
L 64 3987 
C 90 3994 109 3994 141 3994 
C 416 3994 467 3942 467 3667 
L 467 653 
C 467 205 429 147 58 96 
L 58 0 
L 1440 0 
L 1440 96 
C 1069 134 1005 211 1005 653 
L 1005 2195 
C 1274 2490 1466 2598 1715 2598 
C 2035 2598 2195 2368 2195 1920 
L 2195 653 
C 2195 218 2131 134 1760 96 
L 1760 0 
L 3117 0 
z
" transform="scale(0.015625)"/>
       <path id="TeXGyreTermes-Regular-72" d="M 2144 2605 
C 2144 2816 2010 2944 1792 2944 
C 1523 2944 1338 2797 1024 2342 
L 1024 2931 
L 992 2944 
C 653 2803 422 2720 45 2598 
L 45 2496 
C 134 2515 192 2522 269 2522 
C 429 2522 486 2419 486 2138 
L 486 538 
C 486 218 442 173 32 96 
L 32 0 
L 1568 0 
L 1568 96 
C 1133 115 1024 211 1024 576 
L 1024 2016 
C 1024 2221 1299 2541 1472 2541 
C 1510 2541 1568 2509 1638 2445 
C 1741 2355 1811 2317 1894 2317 
C 2048 2317 2144 2426 2144 2605 
z
" transform="scale(0.015625)"/>
       <path id="TeXGyreTermes-Regular-69" d="M 1619 0 
L 1619 96 
C 1197 128 1146 192 1146 653 
L 1146 2925 
L 1120 2944 
L 128 2592 
L 128 2496 
L 179 2502 
C 256 2515 339 2522 397 2522 
C 550 2522 608 2419 608 2138 
L 608 653 
C 608 192 544 122 102 96 
L 102 0 
L 1619 0 
z
M 1203 3776 
C 1203 3955 1062 4102 877 4102 
C 698 4102 550 3955 550 3776 
C 550 3590 698 3450 877 3450 
C 1062 3450 1203 3590 1203 3776 
z
" transform="scale(0.015625)"/>
       <path id="TeXGyreTermes-Regular-74" d="M 1786 422 
L 1702 493 
C 1562 326 1459 269 1318 269 
C 1082 269 986 435 986 845 
L 986 2675 
L 1632 2675 
L 1632 2880 
L 986 2880 
L 986 3622 
C 986 3686 973 3706 941 3706 
C 902 3642 858 3584 813 3526 
C 576 3174 358 2938 192 2842 
C 122 2797 83 2758 83 2720 
C 83 2701 90 2688 109 2675 
L 448 2675 
L 448 749 
C 448 211 640 -64 1011 -64 
C 1331 -64 1574 90 1786 422 
z
" transform="scale(0.015625)"/>
       <path id="TeXGyreTermes-Regular-20" transform="scale(0.015625)"/>
       <path id="TeXGyreTermes-Regular-6b" d="M 3232 0 
L 3232 96 
C 2950 115 2752 237 2483 563 
L 1504 1805 
L 1690 1978 
C 2144 2400 2541 2694 2726 2746 
C 2822 2771 2912 2784 3021 2784 
L 3072 2784 
L 3072 2880 
L 1766 2880 
L 1766 2790 
C 2016 2784 2086 2758 2086 2669 
C 2086 2618 2029 2528 1939 2451 
L 1062 1670 
L 1062 4358 
L 1037 4371 
L 237 4141 
L 45 4090 
L 45 3987 
C 128 3994 186 4000 250 4000 
C 461 4000 525 3917 525 3610 
L 525 525 
C 525 192 506 173 45 96 
L 45 0 
L 1542 0 
L 1542 96 
L 1414 102 
C 1158 115 1062 205 1062 429 
L 1062 1606 
L 1958 410 
L 1978 384 
C 1990 365 2003 346 2022 326 
C 2074 262 2093 224 2093 192 
C 2093 134 2035 96 1958 96 
L 1837 96 
L 1837 0 
L 3232 0 
z
" transform="scale(0.015625)"/>
      </defs>
      <use xlink:href="#TeXGyreTermes-Regular-53"/>
      <use xlink:href="#TeXGyreTermes-Regular-63" transform="translate(55.599991 0)"/>
      <use xlink:href="#TeXGyreTermes-Regular-68" transform="translate(99.999985 0)"/>
      <use xlink:href="#TeXGyreTermes-Regular-72" transform="translate(149.999969 0)"/>
      <use xlink:href="#TeXGyreTermes-Regular-69" transform="translate(183.299957 0)"/>
      <use xlink:href="#TeXGyreTermes-Regular-74" transform="translate(211.099945 0)"/>
      <use xlink:href="#TeXGyreTermes-Regular-74" transform="translate(238.899933 0)"/>
      <use xlink:href="#TeXGyreTermes-Regular-20" transform="translate(266.699921 0)"/>
      <use xlink:href="#TeXGyreTermes-Regular-6b" transform="translate(291.699905 0)"/>
     </g>
    </g>
   </g>
   <g id="matplotlib.axis_2">
    <g id="ytick_1">
     <g id="line2d_11">
      <path d="M 58.39 239.329872 
L 426.847748 239.329872 
" clip-path="url(#pd3692c55c5)" style="fill: none; stroke: #b0b0b0; stroke-width: 0.8; stroke-linecap: square"/>
     </g>
     <g id="line2d_12">
      <defs>
       <path id="m32e400ab85" d="M 0 0 
L -3.5 0 
" style="stroke: #000000; stroke-width: 0.8"/>
      </defs>
      <g>
       <use xlink:href="#m32e400ab85" x="58.39" y="239.329872" style="stroke: #000000; stroke-width: 0.8"/>
      </g>
     </g>
     <g id="text_7">
      <!-- −4 -->
      <g transform="translate(25.8525 247.525497) scale(0.24 -0.24)">
       <defs>
        <path id="TeXGyreTermes-Regular-2212" d="M 3354 1389 
L 3354 1811 
L 256 1811 
L 256 1389 
L 3354 1389 
z
" transform="scale(0.015625)"/>
        <path id="TeXGyreTermes-Regular-34" d="M 3021 1069 
L 3021 1478 
L 2368 1478 
L 2368 4326 
L 2086 4326 
L 77 1478 
L 77 1069 
L 1875 1069 
L 1875 0 
L 2368 0 
L 2368 1069 
L 3021 1069 
z
M 1869 1478 
L 333 1478 
L 1869 3674 
L 1869 1478 
z
" transform="scale(0.015625)"/>
       </defs>
       <use xlink:href="#TeXGyreTermes-Regular-2212"/>
       <use xlink:href="#TeXGyreTermes-Regular-34" transform="translate(56.399994 0)"/>
      </g>
     </g>
    </g>
    <g id="ytick_2">
     <g id="line2d_13">
      <path d="M 58.39 171.200674 
L 426.847748 171.200674 
" clip-path="url(#pd3692c55c5)" style="fill: none; stroke: #b0b0b0; stroke-width: 0.8; stroke-linecap: square"/>
     </g>
     <g id="line2d_14">
      <g>
       <use xlink:href="#m32e400ab85" x="58.39" y="171.200674" style="stroke: #000000; stroke-width: 0.8"/>
      </g>
     </g>
     <g id="text_8">
      <!-- −2 -->
      <g transform="translate(25.8525 179.396299) scale(0.24 -0.24)">
       <use xlink:href="#TeXGyreTermes-Regular-2212"/>
       <use xlink:href="#TeXGyreTermes-Regular-32" transform="translate(56.399994 0)"/>
      </g>
     </g>
    </g>
    <g id="ytick_3">
     <g id="line2d_15">
      <path d="M 58.39 103.071477 
L 426.847748 103.071477 
" clip-path="url(#pd3692c55c5)" style="fill: none; stroke: #b0b0b0; stroke-width: 0.8; stroke-linecap: square"/>
     </g>
     <g id="line2d_16">
      <g>
       <use xlink:href="#m32e400ab85" x="58.39" y="103.071477" style="stroke: #000000; stroke-width: 0.8"/>
      </g>
     </g>
     <g id="text_9">
      <!-- 0 -->
      <g transform="translate(39.39 111.267102) scale(0.24 -0.24)">
       <use xlink:href="#TeXGyreTermes-Regular-30"/>
      </g>
     </g>
    </g>
    <g id="ytick_4">
     <g id="line2d_17">
      <path d="M 58.39 34.94228 
L 426.847748 34.94228 
" clip-path="url(#pd3692c55c5)" style="fill: none; stroke: #b0b0b0; stroke-width: 0.8; stroke-linecap: square"/>
     </g>
     <g id="line2d_18">
      <g>
       <use xlink:href="#m32e400ab85" x="58.39" y="34.94228" style="stroke: #000000; stroke-width: 0.8"/>
      </g>
     </g>
     <g id="text_10">
      <!-- 2 -->
      <g transform="translate(39.39 43.137905) scale(0.24 -0.24)">
       <use xlink:href="#TeXGyreTermes-Regular-32"/>
      </g>
     </g>
    </g>
   </g>
   <g id="line2d_19">
    <path d="M 75.138079 114.602352 
L 75.473376 107.011654 
L 75.808673 103.316344 
L 76.14397 102.949454 
L 76.479267 96.962412 
L 77.149861 128.014835 
L 77.485158 127.874304 
L 77.820455 135.697674 
L 78.155751 137.071609 
L 78.491048 131.373551 
L 78.826345 143.422179 
L 79.496939 150.79261 
L 79.832236 147.534302 
L 80.167533 146.261363 
L 80.50283 136.024928 
L 80.838127 142.256549 
L 81.173423 157.082931 
L 81.50872 136.482367 
L 81.844017 152.103392 
L 82.179314 128.991464 
L 82.514611 120.479281 
L 82.849908 124.602511 
L 83.185205 109.928634 
L 83.520502 105.422792 
L 83.855798 107.583289 
L 84.191095 116.919696 
L 84.526392 105.156724 
L 84.861689 107.517555 
L 85.196986 101.415837 
L 85.532283 81.404474 
L 85.86758 94.692325 
L 86.202877 87.048253 
L 86.538174 93.52061 
L 86.87347 91.186066 
L 87.208767 85.029122 
L 87.544064 100.236808 
L 87.879361 101.675917 
L 88.549955 93.454937 
L 88.885252 92.487975 
L 89.220549 105.958419 
L 89.555846 88.183939 
L 90.561736 100.844776 
L 90.897033 102.206159 
L 91.23233 100.457087 
L 91.567627 107.114247 
L 91.902924 99.820981 
L 92.238221 89.319357 
L 92.573518 73.590254 
L 92.908814 83.339037 
L 93.244111 82.969444 
L 93.579408 95.877429 
L 93.914705 100.110944 
L 94.250002 97.931158 
L 94.585299 90.643079 
L 94.920596 71.978651 
L 95.255893 73.674992 
L 95.591189 78.336107 
L 95.926486 57.052475 
L 96.261783 58.808548 
L 96.59708 52.868547 
L 96.932377 49.30646 
L 97.267674 57.190018 
L 97.602971 58.918305 
L 97.938268 57.799447 
L 98.273565 61.233732 
L 98.944158 88.960623 
L 99.279455 95.136891 
L 99.950049 77.179764 
L 100.285346 78.466382 
L 100.620643 82.205527 
L 100.95594 90.324184 
L 101.291237 106.240249 
L 101.626533 105.261038 
L 101.96183 110.521035 
L 102.297127 120.469362 
L 102.632424 125.478402 
L 102.967721 115.559898 
L 103.638315 125.155195 
L 103.973612 117.331416 
L 104.308909 116.50575 
L 104.644205 98.321702 
L 104.979502 91.769103 
L 105.314799 95.014307 
L 105.650096 93.482631 
L 105.985393 84.432343 
L 106.32069 85.182047 
L 106.655987 103.419809 
L 106.991284 91.548061 
L 107.32658 93.150382 
L 107.661877 83.417136 
L 107.997174 93.60181 
L 108.332471 91.182724 
L 108.667768 95.656284 
L 109.003065 84.985163 
L 109.338362 81.150258 
L 109.673659 85.348162 
L 110.008956 91.55987 
L 110.344252 116.885598 
L 110.679549 107.122356 
L 111.350143 116.888514 
L 111.68544 106.617858 
L 112.020737 126.279071 
L 112.356034 122.590668 
L 112.691331 126.340538 
L 113.026628 103.491214 
L 113.361924 105.345898 
L 113.697221 114.002546 
L 114.032518 114.651725 
L 114.367815 101.659707 
L 114.703112 123.72564 
L 115.038409 108.873829 
L 115.373706 117.110567 
L 115.709003 119.620842 
L 116.0443 112.910504 
L 116.379596 117.251703 
L 116.714893 111.000074 
L 117.05019 101.912428 
L 117.385487 96.674446 
L 117.720784 94.180604 
L 118.056081 102.391032 
L 118.391378 100.95336 
L 118.726675 101.081708 
L 119.061971 108.880765 
L 119.397268 106.128241 
L 119.732565 95.229297 
L 120.067862 116.232817 
L 120.403159 106.749961 
L 120.738456 123.790284 
L 121.073753 121.368769 
L 121.40905 120.071232 
L 121.744347 120.830712 
L 122.079643 95.690147 
L 122.41494 100.752791 
L 122.750237 101.910482 
L 123.085534 111.474088 
L 123.420831 102.377983 
L 123.756128 111.166535 
L 124.091425 128.125874 
L 124.426722 133.706383 
L 124.762019 128.307221 
L 125.097315 119.748047 
L 125.432612 122.749249 
L 125.767909 130.054389 
L 126.103206 123.585987 
L 126.438503 132.959977 
L 126.7738 131.451686 
L 127.109097 123.709813 
L 127.444394 134.919198 
L 127.779691 128.006387 
L 128.114987 138.360091 
L 128.450284 139.606635 
L 128.785581 132.952545 
L 129.120878 144.381446 
L 129.456175 148.464812 
L 129.791472 160.223955 
L 130.126769 146.732522 
L 130.462066 143.010584 
L 130.797362 149.290432 
L 131.132659 144.060664 
L 131.467956 115.200006 
L 131.803253 129.225134 
L 132.13855 110.74731 
L 132.473847 118.445828 
L 132.809144 122.40392 
L 133.479738 99.243322 
L 133.815034 98.574835 
L 134.150331 123.65291 
L 134.820925 133.530386 
L 135.156222 130.014877 
L 135.491519 145.143659 
L 135.826816 134.213163 
L 136.162113 138.78091 
L 136.49741 136.466344 
L 136.832706 142.833107 
L 137.168003 159.175274 
L 137.5033 158.817449 
L 137.838597 155.761492 
L 138.509191 143.036959 
L 138.844488 143.974019 
L 139.179785 135.710666 
L 139.515082 150.235365 
L 139.850378 157.081833 
L 140.185675 151.225053 
L 140.520972 166.348651 
L 140.856269 164.810775 
L 141.191566 178.405559 
L 141.526863 160.356574 
L 141.86216 150.103508 
L 142.197457 157.300271 
L 142.532753 152.04777 
L 142.86805 161.917226 
L 143.203347 146.12887 
L 143.538644 153.339175 
L 143.873941 142.371972 
L 144.209238 136.322302 
L 144.544535 133.490724 
L 144.879832 138.388836 
L 145.215129 132.094354 
L 145.550425 128.379322 
L 145.885722 154.9089 
L 146.221019 148.65395 
L 146.556316 129.888249 
L 146.891613 135.523304 
L 147.22691 145.952973 
L 147.562207 133.032894 
L 147.897504 137.437015 
L 148.568097 152.561891 
L 148.903394 144.590941 
L 149.238691 144.68261 
L 149.573988 156.221433 
L 149.909285 144.664736 
L 150.579879 138.355155 
L 151.585769 109.755898 
L 151.921066 126.3395 
L 152.256363 132.970097 
L 152.926957 120.926311 
L 153.597551 117.221731 
L 153.932848 131.391841 
L 154.268144 137.853255 
L 154.603441 122.41948 
L 154.938738 130.181104 
L 155.274035 131.527376 
L 155.609332 109.570914 
L 155.944629 109.19283 
L 156.279926 105.741363 
L 156.615223 97.576 
L 156.95052 83.616058 
L 157.285816 83.663743 
L 157.621113 87.325148 
L 157.95641 84.750012 
L 158.291707 86.521727 
L 158.962301 58.865011 
L 159.297598 58.522405 
L 159.632895 93.926155 
L 159.968192 96.10108 
L 160.303488 87.416432 
L 160.638785 84.758247 
L 160.974082 90.77185 
L 161.309379 75.763012 
L 161.644676 74.795431 
L 161.979973 86.8769 
L 162.31527 76.862128 
L 162.650567 85.916887 
L 162.985864 98.424816 
L 163.32116 84.826588 
L 163.656457 86.318012 
L 163.991754 89.147623 
L 164.327051 90.550425 
L 164.662348 101.454415 
L 164.997645 92.629168 
L 165.332942 100.786352 
L 165.668239 101.62119 
L 166.003535 98.161268 
L 166.338832 107.241361 
L 166.674129 107.234873 
L 167.009426 114.232273 
L 167.344723 105.547002 
L 167.68002 115.648229 
L 168.015317 97.453827 
L 168.350614 101.119158 
L 168.685911 97.84901 
L 169.356504 110.675339 
L 169.691801 98.80181 
L 170.027098 106.028612 
L 170.362395 103.437499 
L 170.697692 92.218266 
L 171.032989 90.039172 
L 171.368286 98.02787 
L 171.703583 86.679658 
L 172.038879 87.401685 
L 172.374176 80.62585 
L 172.709473 63.044056 
L 173.04477 83.128616 
L 173.380067 62.838203 
L 173.715364 61.675862 
L 174.050661 82.715546 
L 174.385958 70.297007 
L 174.721255 79.914599 
L 175.056551 86.245743 
L 175.727145 82.31855 
L 176.062442 88.772068 
L 176.397739 92.099546 
L 176.733036 103.713225 
L 177.068333 90.863806 
L 177.40363 104.699058 
L 177.738926 105.389921 
L 178.074223 110.915286 
L 178.40952 104.81862 
L 178.744817 121.015538 
L 179.080114 129.384031 
L 179.415411 116.338821 
L 179.750708 114.87811 
L 180.086005 132.966083 
L 180.421302 125.08477 
L 180.756598 121.439693 
L 181.091895 115.722312 
L 181.427192 119.321529 
L 181.762489 121.203036 
L 182.097786 119.82004 
L 182.433083 108.967705 
L 182.76838 116.340758 
L 183.103677 127.735805 
L 183.438974 129.626197 
L 184.109567 118.216599 
L 184.444864 123.527568 
L 184.780161 120.68142 
L 185.115458 125.046601 
L 185.450755 133.014751 
L 185.786052 113.827493 
L 186.121349 130.387088 
L 186.456646 139.551941 
L 186.791942 124.591465 
L 187.127239 134.484323 
L 187.462536 124.875085 
L 187.797833 126.366962 
L 188.13313 141.544333 
L 188.468427 137.846048 
L 188.803724 132.226019 
L 189.139021 114.925776 
L 189.474317 106.44683 
L 189.809614 101.090216 
L 190.144911 115.154846 
L 190.480208 123.381122 
L 190.815505 124.424285 
L 192.156693 154.605922 
L 192.491989 154.554288 
L 192.827286 152.51747 
L 193.162583 160.612232 
L 193.49788 172.274224 
L 193.833177 168.488476 
L 194.168474 156.91666 
L 194.503771 139.222944 
L 194.839068 154.869023 
L 195.174365 162.084055 
L 195.844958 160.537034 
L 196.180255 152.961261 
L 196.515552 156.689008 
L 196.850849 154.665961 
L 197.186146 146.321756 
L 197.521443 141.408081 
L 197.85674 124.592024 
L 198.192037 132.564005 
L 198.527333 134.029486 
L 198.86263 125.650984 
L 199.197927 134.083217 
L 199.533224 133.462944 
L 199.868521 151.519142 
L 200.203818 150.551232 
L 200.539115 156.486941 
L 200.874412 159.390841 
L 201.209708 174.711451 
L 201.545005 166.057917 
L 201.880302 161.425395 
L 202.215599 153.731388 
L 202.550896 155.911247 
L 202.886193 161.797793 
L 203.22149 152.411336 
L 203.556787 152.428873 
L 203.892084 155.019944 
L 204.22738 148.754952 
L 204.562677 138.473341 
L 204.897974 136.624848 
L 205.233271 151.997078 
L 205.568568 146.384948 
L 205.903865 138.389801 
L 206.239162 149.781867 
L 206.574459 143.003432 
L 206.909756 142.820665 
L 207.245052 162.079877 
L 207.580349 158.614803 
L 207.915646 159.681613 
L 208.250943 176.700924 
L 208.58624 160.361132 
L 208.921537 167.458286 
L 209.256834 162.796117 
L 209.592131 172.315463 
L 209.927428 162.055342 
L 210.262724 160.892707 
L 210.598021 160.556798 
L 210.933318 158.670653 
L 211.268615 167.724514 
L 211.603912 171.206526 
L 212.274506 162.77265 
L 213.280396 178.778856 
L 213.615693 159.407928 
L 213.95099 151.034398 
L 214.286287 139.774161 
L 214.621584 161.3813 
L 214.956881 156.255569 
L 215.292178 157.18233 
L 215.627475 148.001359 
L 215.962771 135.102811 
L 216.298068 136.730744 
L 216.633365 143.667661 
L 216.968662 154.938076 
L 217.303959 155.682472 
L 218.30985 183.086029 
L 218.645147 188.860152 
L 218.980443 179.210697 
L 219.31574 165.246559 
L 219.651037 163.218274 
L 220.321631 200.104485 
L 220.656928 195.007094 
L 220.992225 196.158527 
L 221.327522 180.78278 
L 221.662819 184.926588 
L 221.998115 184.914374 
L 222.333412 187.853389 
L 222.668709 196.454968 
L 223.004006 192.20991 
L 223.339303 183.738028 
L 223.6746 200.548947 
L 224.009897 192.826737 
L 224.345194 182.204292 
L 224.68049 177.783915 
L 225.015787 170.44611 
L 225.351084 177.559054 
L 225.686381 188.54895 
L 226.356975 169.734345 
L 226.692272 163.290847 
L 227.027569 165.713241 
L 227.362866 173.303972 
L 227.698162 170.49068 
L 228.033459 183.841242 
L 228.368756 169.710596 
L 228.704053 170.548543 
L 229.03935 174.099774 
L 229.374647 157.729652 
L 229.709944 151.657278 
L 230.045241 157.301575 
L 230.715834 135.320266 
L 231.051131 129.583499 
L 231.386428 121.44131 
L 231.721725 120.002183 
L 232.057022 124.015402 
L 232.727616 136.653371 
L 233.062913 124.641933 
L 233.733506 133.508587 
L 234.068803 132.085829 
L 234.4041 107.194957 
L 234.739397 100.840394 
L 235.409991 96.641747 
L 235.745288 89.566539 
L 236.080585 93.339665 
L 236.415881 106.908485 
L 236.751178 105.931792 
L 237.086475 93.74176 
L 237.421772 86.137239 
L 237.757069 102.750924 
L 238.092366 112.349885 
L 238.427663 107.956252 
L 238.76296 96.103201 
L 239.098257 108.088675 
L 239.433553 104.020953 
L 239.76885 114.926574 
L 240.104147 131.893018 
L 240.439444 134.063682 
L 241.110038 111.480869 
L 241.445335 124.969873 
L 241.780632 128.963965 
L 242.115929 136.418344 
L 242.451225 137.885871 
L 242.786522 141.627766 
L 243.121819 141.326519 
L 243.457116 126.283157 
L 243.792413 138.136739 
L 244.12771 144.537211 
L 244.463007 130.058167 
L 244.798304 132.410936 
L 245.133601 127.92871 
L 245.468897 126.625394 
L 245.804194 131.336938 
L 246.139491 120.936855 
L 246.474788 143.260496 
L 246.810085 134.132927 
L 247.145382 130.892594 
L 247.480679 152.328804 
L 247.815976 150.651985 
L 248.151272 160.771199 
L 248.486569 155.998347 
L 248.821866 174.973912 
L 249.157163 166.681499 
L 249.49246 164.002639 
L 249.827757 163.049401 
L 250.163054 179.354975 
L 250.498351 180.612654 
L 251.168944 159.331729 
L 251.504241 167.876712 
L 251.839538 181.61507 
L 252.174835 185.267638 
L 252.510132 183.504763 
L 252.845429 182.919702 
L 253.180726 191.215113 
L 253.516023 194.58085 
L 253.85132 199.536225 
L 254.186616 202.050584 
L 254.521913 211.745297 
L 254.85721 215.419681 
L 255.192507 211.875463 
L 255.527804 199.76731 
L 255.863101 202.142281 
L 256.198398 196.482626 
L 256.533695 188.125242 
L 257.204288 178.045544 
L 257.539585 165.352327 
L 257.874882 175.491151 
L 258.210179 194.658114 
L 258.545476 204.860935 
L 258.880773 197.824483 
L 259.21607 186.860794 
L 259.551367 193.487675 
L 259.886663 197.119484 
L 260.22196 197.067469 
L 260.557257 197.67334 
L 260.892554 184.295129 
L 261.227851 184.961037 
L 261.563148 180.340846 
L 262.233742 207.491259 
L 262.569039 206.871373 
L 262.904335 228.679272 
L 263.239632 237.891905 
L 263.574929 240.703499 
L 263.910226 255.321136 
L 264.58082 223.308878 
L 264.916117 221.391309 
L 265.251414 211.489209 
L 265.586711 218.83682 
L 265.922007 220.436627 
L 266.257304 218.321601 
L 266.592601 212.490053 
L 266.927898 214.191349 
L 267.598492 203.158189 
L 267.933789 218.326149 
L 268.604383 204.823526 
L 268.939679 190.239455 
L 269.274976 190.747802 
L 269.610273 182.485935 
L 269.94557 185.619689 
L 270.280867 182.571628 
L 270.616164 185.662104 
L 270.951461 186.977673 
L 271.286758 180.922422 
L 271.622054 190.318517 
L 271.957351 191.282683 
L 272.292648 186.023812 
L 272.627945 188.8546 
L 272.963242 180.219452 
L 273.298539 175.285611 
L 273.969133 191.290265 
L 274.639726 217.390005 
L 274.975023 206.514947 
L 275.31032 181.739724 
L 275.645617 198.789632 
L 275.980914 204.518179 
L 276.316211 198.109747 
L 276.651508 193.940308 
L 276.986805 181.176736 
L 277.322102 180.303318 
L 278.663289 156.264988 
L 278.998586 147.848376 
L 279.333883 131.041034 
L 279.66918 126.152677 
L 280.004477 130.785553 
L 280.339774 126.169933 
L 280.67507 115.588356 
L 281.010367 133.724081 
L 281.345664 123.651686 
L 281.680961 118.257324 
L 282.016258 117.223627 
L 282.351555 119.157615 
L 282.686852 106.870547 
L 283.022149 124.260542 
L 283.692742 139.385481 
L 284.028039 139.799054 
L 284.363336 142.953048 
L 284.698633 147.365391 
L 285.369227 117.01144 
L 285.704524 124.820549 
L 286.039821 129.428686 
L 286.375117 116.349829 
L 286.710414 131.269253 
L 287.045711 137.225251 
L 287.381008 155.109818 
L 287.716305 154.149474 
L 288.051602 155.892157 
L 288.386899 163.700901 
L 288.722196 152.164508 
L 289.728086 176.931822 
L 290.063383 177.664372 
L 290.39868 154.120668 
L 290.733977 166.141304 
L 291.069274 156.86282 
L 291.404571 154.996994 
L 291.739868 136.836688 
L 292.075165 152.08179 
L 292.410461 146.96242 
L 292.745758 135.748741 
L 293.081055 130.338853 
L 293.416352 117.385049 
L 293.751649 114.836836 
L 294.086946 117.936973 
L 294.422243 118.533377 
L 295.092836 134.600166 
L 295.428133 146.461139 
L 295.76343 136.178108 
L 296.098727 134.325406 
L 296.434024 130.953942 
L 296.769321 118.724031 
L 297.104618 130.895074 
L 297.439915 151.894259 
L 297.775212 163.988173 
L 298.110508 167.177083 
L 298.445805 162.600614 
L 298.781102 168.962316 
L 299.116399 168.170393 
L 299.451696 160.371584 
L 300.12229 156.193901 
L 300.457587 147.099944 
L 301.12818 150.965748 
L 301.463477 162.451401 
L 301.798774 153.344668 
L 302.134071 170.423589 
L 302.469368 165.993505 
L 302.804665 167.396074 
L 303.139962 149.794001 
L 303.475259 144.064674 
L 303.810556 146.820963 
L 304.145852 147.60605 
L 304.481149 133.296797 
L 305.151743 149.679864 
L 305.48704 144.477417 
L 306.157634 121.652228 
L 306.492931 133.993369 
L 306.828227 127.286216 
L 307.163524 148.648383 
L 307.498821 147.313904 
L 307.834118 139.817359 
L 308.504712 115.151117 
L 308.840009 120.886113 
L 309.175306 123.687892 
L 309.510603 135.687912 
L 309.845899 130.549386 
L 310.181196 153.018595 
L 310.516493 145.990047 
L 310.85179 146.386706 
L 311.857681 190.106022 
L 312.192978 182.208798 
L 312.528275 181.01944 
L 312.863571 177.116465 
L 313.198868 196.251397 
L 313.534165 195.588018 
L 313.869462 184.659215 
L 314.204759 184.537131 
L 314.540056 180.212953 
L 314.875353 185.55552 
L 315.21065 194.967193 
L 315.881243 205.755775 
L 316.21654 194.227256 
L 316.551837 199.452449 
L 316.887134 181.38876 
L 317.222431 171.149499 
L 317.557728 165.258635 
L 317.893025 165.771458 
L 318.228322 168.43771 
L 318.563618 172.877554 
L 318.898915 168.310069 
L 319.234212 156.587129 
L 319.569509 136.994545 
L 319.904806 136.910347 
L 320.240103 145.461651 
L 320.5754 160.414843 
L 320.910697 155.884217 
L 321.916587 127.812144 
L 322.251884 143.626294 
L 322.587181 133.957348 
L 323.257775 142.047623 
L 323.593072 141.108375 
L 323.928369 138.883601 
L 324.263666 152.533304 
L 324.598962 125.434467 
L 324.934259 135.00047 
L 325.269556 121.386179 
L 325.604853 113.676003 
L 325.94015 111.780241 
L 326.275447 114.292976 
L 326.610744 108.150126 
L 326.946041 106.963708 
L 327.281338 110.914459 
L 327.616634 104.422597 
L 327.951931 125.639772 
L 328.287228 129.496279 
L 328.622525 123.923351 
L 328.957822 112.037316 
L 329.293119 120.589485 
L 329.628416 122.997777 
L 329.963713 122.278069 
L 330.299009 116.659635 
L 330.634306 120.556572 
L 330.969603 120.300961 
L 331.3049 123.683811 
L 331.640197 131.986384 
L 331.975494 144.374285 
L 332.310791 146.165319 
L 332.646088 155.131197 
L 332.981385 142.792122 
L 333.316681 144.793938 
L 333.651978 149.540863 
L 333.987275 151.113711 
L 334.657869 145.768247 
L 334.993166 149.203249 
L 335.328463 164.843285 
L 335.66376 159.610653 
L 335.999057 168.011784 
L 336.334353 167.01847 
L 336.66965 175.93222 
L 337.004947 166.413831 
L 337.340244 143.720736 
L 337.675541 167.723012 
L 338.010838 155.207571 
L 338.346135 153.732455 
L 339.016729 163.968048 
L 339.352025 160.202592 
L 339.687322 121.446359 
L 340.022619 117.75315 
L 340.357916 103.751264 
L 340.693213 112.310904 
L 341.02851 114.067894 
L 341.363807 126.54398 
L 341.699104 129.534467 
L 342.0344 116.193682 
L 342.369697 108.468885 
L 342.704994 126.162508 
L 343.040291 134.803056 
L 343.375588 116.842936 
L 343.710885 116.691991 
L 344.046182 110.527983 
L 344.381479 87.58142 
L 344.716776 93.176807 
L 345.052072 109.78115 
L 345.722666 93.521756 
L 346.057963 98.091893 
L 346.728557 103.158718 
L 347.063854 90.148911 
L 347.399151 95.298289 
L 347.734448 90.141495 
L 348.069744 99.23064 
L 348.405041 89.713345 
L 348.740338 68.798979 
L 349.410932 95.328349 
L 349.746229 86.745031 
L 350.081526 81.228124 
L 350.416823 80.424182 
L 350.75212 78.42894 
L 351.087416 87.198509 
L 351.422713 90.474124 
L 351.75801 98.577677 
L 352.093307 96.205017 
L 352.428604 90.813355 
L 352.763901 90.257061 
L 353.099198 78.671967 
L 353.434495 99.929158 
L 353.769791 96.814267 
L 354.105088 86.832396 
L 354.440385 96.618437 
L 354.775682 101.321723 
L 355.110979 88.182753 
L 355.446276 85.055781 
L 355.781573 65.720681 
L 356.11687 54.059507 
L 356.452167 55.087193 
L 357.12276 52.270569 
L 357.458057 57.415649 
L 357.793354 55.755604 
L 358.128651 45.004746 
L 358.799245 71.452034 
L 359.134542 74.50276 
L 359.469839 80.209652 
L 359.805135 73.031566 
L 360.140432 81.565441 
L 360.475729 80.783548 
L 360.811026 52.837101 
L 361.146323 61.786569 
L 361.48162 44.337095 
L 361.816917 43.120679 
L 362.152214 48.361083 
L 362.487511 51.099296 
L 362.822807 49.133227 
L 363.158104 52.325297 
L 363.493401 48.891969 
L 363.828698 50.548048 
L 364.163995 63.917616 
L 364.499292 56.366979 
L 364.834589 65.821991 
L 365.169886 47.359153 
L 365.505183 69.020795 
L 365.840479 68.96189 
L 366.175776 70.726663 
L 366.511073 69.126371 
L 366.84637 81.830218 
L 367.181667 85.369474 
L 367.516964 78.789661 
L 367.852261 61.672307 
L 368.187558 69.663725 
L 368.522854 71.181385 
L 368.858151 67.796468 
L 369.193448 87.889845 
L 369.528745 87.141562 
L 369.864042 85.233503 
L 370.534636 102.141092 
L 370.869933 90.863726 
L 371.20523 98.087902 
L 371.875823 76.228032 
L 372.21112 83.176912 
L 372.546417 95.178586 
L 372.881714 98.339635 
L 373.217011 85.964324 
L 373.552308 84.104657 
L 373.887605 71.941904 
L 374.222902 67.029478 
L 374.558198 52.712084 
L 374.893495 58.334125 
L 375.228792 78.6293 
L 375.564089 89.340684 
L 375.899386 79.716313 
L 376.234683 74.512471 
L 376.56998 86.468647 
L 376.905277 103.596503 
L 377.240574 73.444684 
L 377.57587 58.592212 
L 377.911167 65.147549 
L 378.246464 79.646584 
L 378.917058 87.562246 
L 379.252355 85.65043 
L 379.587652 82.261303 
L 379.922949 82.686196 
L 380.593542 59.879124 
L 380.928839 64.015046 
L 381.264136 63.385185 
L 381.599433 86.260237 
L 381.93473 77.108492 
L 382.605324 94.213848 
L 382.940621 73.374126 
L 383.275917 68.210717 
L 383.611214 77.592897 
L 383.946511 79.546902 
L 384.281808 85.913255 
L 384.617105 85.294383 
L 384.952402 81.074121 
L 385.287699 91.372838 
L 385.622996 90.964776 
L 385.958293 87.184234 
L 386.293589 101.003374 
L 386.628886 96.377484 
L 386.964183 95.041002 
L 387.29948 110.155022 
L 387.634777 107.332736 
L 387.970074 107.020197 
L 388.305371 93.413639 
L 388.640668 98.228184 
L 389.311261 74.259461 
L 389.646558 81.958143 
L 389.981855 86.807808 
L 390.317152 83.986257 
L 390.652449 75.080455 
L 390.987746 89.060475 
L 391.323043 86.672337 
L 391.65834 74.831759 
L 391.993636 73.15379 
L 392.328933 85.773094 
L 392.66423 62.739827 
L 393.334824 44.131848 
L 394.340715 74.80075 
L 394.676012 72.776734 
L 395.011308 72.661603 
L 395.346605 80.659179 
L 395.681902 80.997887 
L 396.017199 68.834457 
L 396.352496 75.735079 
L 396.687793 61.003731 
L 397.02309 57.379131 
L 397.693684 36.843864 
L 398.364277 46.572585 
L 399.034871 55.717422 
L 399.370168 67.068697 
L 399.705465 56.101088 
L 400.040762 60.317993 
L 400.376059 57.47777 
L 400.711356 52.973642 
L 401.046652 52.549409 
L 401.381949 38.533877 
L 401.717246 41.638196 
L 402.052543 56.92536 
L 402.38784 49.606845 
L 402.723137 52.838764 
L 403.058434 58.000022 
L 403.393731 46.722852 
L 403.729027 53.077737 
L 404.064324 47.436527 
L 404.399621 48.155873 
L 404.734918 50.846208 
L 405.070215 43.893954 
L 405.740809 63.831597 
L 406.076106 59.892959 
L 406.411403 43.259143 
L 406.746699 52.283897 
L 407.081996 43.53941 
L 407.417293 57.128266 
L 407.75259 76.069339 
L 408.087887 79.958765 
L 408.423184 93.38279 
L 409.093778 83.238673 
L 409.429075 86.529996 
L 409.764371 91.782005 
L 410.099668 112.005199 
L 410.099668 112.005199 
" clip-path="url(#pd3692c55c5)" style="fill: none; stroke: #1f77b4; stroke-width: 1.5; stroke-linecap: square"/>
   </g>
   <g id="patch_3">
    <path d="M 58.39 266.245 
L 58.39 25.92 
" style="fill: none; stroke: #000000; stroke-width: 0.8; stroke-linejoin: miter; stroke-linecap: square"/>
   </g>
   <g id="patch_4">
    <path d="M 426.847748 266.245 
L 426.847748 25.92 
" style="fill: none; stroke: #000000; stroke-width: 0.8; stroke-linejoin: miter; stroke-linecap: square"/>
   </g>
   <g id="patch_5">
    <path d="M 58.39 266.245 
L 426.847748 266.245 
" style="fill: none; stroke: #000000; stroke-width: 0.8; stroke-linejoin: miter; stroke-linecap: square"/>
   </g>
   <g id="patch_6">
    <path d="M 58.39 25.92 
L 426.847748 25.92 
" style="fill: none; stroke: #000000; stroke-width: 0.8; stroke-linejoin: miter; stroke-linecap: square"/>
   </g>
  </g>
 </g>
 <defs>
  <clipPath id="pd3692c55c5">
   <rect x="58.39" y="25.92" width="368.457748" height="240.325"/>
  </clipPath>
 </defs>
</svg>
