<?xml version="1.0" encoding="utf-8" standalone="no"?>
<!DOCTYPE svg PUBLIC "-//W3C//DTD SVG 1.1//EN"
  "http://www.w3.org/Graphics/SVG/1.1/DTD/svg11.dtd">
<svg xmlns:xlink="http://www.w3.org/1999/xlink" width="460.8pt" height="345.6pt" viewBox="0 0 460.8 345.6" xmlns="http://www.w3.org/2000/svg" version="1.1">
 <metadata>
  <rdf:RDF xmlns:dc="http://purl.org/dc/elements/1.1/" xmlns:cc="http://creativecommons.org/ns#" xmlns:rdf="http://www.w3.org/1999/02/22-rdf-syntax-ns#">
   <cc:Work>
    <dc:type rdf:resource="http://purl.org/dc/dcmitype/StillImage"/>
    <dc:date>2025-11-24T22:56:21.317482</dc:date>
    <dc:format>image/svg+xml</dc:format>
    <dc:creator>
     <cc:Agent>
      <dc:title>Matplotlib v3.10.6, https://matplotlib.org/</dc:title>
     </cc:Agent>
    </dc:creator>
   </cc:Work>
  </rdf:RDF>
 </metadata>
 <defs>
  <style type="text/css">*{stroke-linejoin: round; stroke-linecap: butt}</style>
 </defs>
 <g id="figure_1">
  <g id="patch_1">
   <path d="M 0 345.6 
L 460.8 345.6 
L 460.8 0 
L 0 0 
z
" style="fill: #ffffff"/>
  </g>
  <g id="axes_1">
   <g id="patch_2">
    <path d="M 57.6 307.584 
L 414.72 307.584 
L 414.72 41.472 
L 57.6 41.472 
z
" style="fill: #ffffff"/>
   </g>
   <g id="matplotlib.axis_1">
    <g id="xtick_1">
     <g id="line2d_1">
      <defs>
       <path id="m82bd40d7df" d="M 0 0 
L 0 3.5 
" style="stroke: #000000; stroke-width: 0.8"/>
      </defs>
      <g>
       <use xlink:href="#m82bd40d7df" x="73.832727" y="307.584" style="stroke: #000000; stroke-width: 0.8"/>
      </g>
     </g>
     <g id="text_1">
      <!-- 0 -->
      <g transform="translate(70.651477 322.182437) scale(0.1 -0.1)">
       <defs>
        <path id="DejaVuSans-30" d="M 2034 4250 
Q 1547 4250 1301 3770 
Q 1056 3291 1056 2328 
Q 1056 1369 1301 889 
Q 1547 409 2034 409 
Q 2525 409 2770 889 
Q 3016 1369 3016 2328 
Q 3016 3291 2770 3770 
Q 2525 4250 2034 4250 
z
M 2034 4750 
Q 2819 4750 3233 4129 
Q 3647 3509 3647 2328 
Q 3647 1150 3233 529 
Q 2819 -91 2034 -91 
Q 1250 -91 836 529 
Q 422 1150 422 2328 
Q 422 3509 836 4129 
Q 1250 4750 2034 4750 
z
" transform="scale(0.015625)"/>
       </defs>
       <use xlink:href="#DejaVuSans-30"/>
      </g>
     </g>
    </g>
    <g id="xtick_2">
     <g id="line2d_2">
      <g>
       <use xlink:href="#m82bd40d7df" x="138.828632" y="307.584" style="stroke: #000000; stroke-width: 0.8"/>
      </g>
     </g>
     <g id="text_2">
      <!-- 200 -->
      <g transform="translate(129.284882 322.182437) scale(0.1 -0.1)">
       <defs>
        <path id="DejaVuSans-32" d="M 1228 531 
L 3431 531 
L 3431 0 
L 469 0 
L 469 531 
Q 828 903 1448 1529 
Q 2069 2156 2228 2338 
Q 2531 2678 2651 2914 
Q 2772 3150 2772 3378 
Q 2772 3750 2511 3984 
Q 2250 4219 1831 4219 
Q 1534 4219 1204 4116 
Q 875 4013 500 3803 
L 500 4441 
Q 881 4594 1212 4672 
Q 1544 4750 1819 4750 
Q 2544 4750 2975 4387 
Q 3406 4025 3406 3419 
Q 3406 3131 3298 2873 
Q 3191 2616 2906 2266 
Q 2828 2175 2409 1742 
Q 1991 1309 1228 531 
z
" transform="scale(0.015625)"/>
       </defs>
       <use xlink:href="#DejaVuSans-32"/>
       <use xlink:href="#DejaVuSans-30" transform="translate(63.623047 0)"/>
       <use xlink:href="#DejaVuSans-30" transform="translate(127.246094 0)"/>
      </g>
     </g>
    </g>
    <g id="xtick_3">
     <g id="line2d_3">
      <g>
       <use xlink:href="#m82bd40d7df" x="203.824537" y="307.584" style="stroke: #000000; stroke-width: 0.8"/>
      </g>
     </g>
     <g id="text_3">
      <!-- 400 -->
      <g transform="translate(194.280787 322.182437) scale(0.1 -0.1)">
       <defs>
        <path id="DejaVuSans-34" d="M 2419 4116 
L 825 1625 
L 2419 1625 
L 2419 4116 
z
M 2253 4666 
L 3047 4666 
L 3047 1625 
L 3713 1625 
L 3713 1100 
L 3047 1100 
L 3047 0 
L 2419 0 
L 2419 1100 
L 313 1100 
L 313 1709 
L 2253 4666 
z
" transform="scale(0.015625)"/>
       </defs>
       <use xlink:href="#DejaVuSans-34"/>
       <use xlink:href="#DejaVuSans-30" transform="translate(63.623047 0)"/>
       <use xlink:href="#DejaVuSans-30" transform="translate(127.246094 0)"/>
      </g>
     </g>
    </g>
    <g id="xtick_4">
     <g id="line2d_4">
      <g>
       <use xlink:href="#m82bd40d7df" x="268.820442" y="307.584" style="stroke: #000000; stroke-width: 0.8"/>
      </g>
     </g>
     <g id="text_4">
      <!-- 600 -->
      <g transform="translate(259.276692 322.182437) scale(0.1 -0.1)">
       <defs>
        <path id="DejaVuSans-36" d="M 2113 2584 
Q 1688 2584 1439 2293 
Q 1191 2003 1191 1497 
Q 1191 994 1439 701 
Q 1688 409 2113 409 
Q 2538 409 2786 701 
Q 3034 994 3034 1497 
Q 3034 2003 2786 2293 
Q 2538 2584 2113 2584 
z
M 3366 4563 
L 3366 3988 
Q 3128 4100 2886 4159 
Q 2644 4219 2406 4219 
Q 1781 4219 1451 3797 
Q 1122 3375 1075 2522 
Q 1259 2794 1537 2939 
Q 1816 3084 2150 3084 
Q 2853 3084 3261 2657 
Q 3669 2231 3669 1497 
Q 3669 778 3244 343 
Q 2819 -91 2113 -91 
Q 1303 -91 875 529 
Q 447 1150 447 2328 
Q 447 3434 972 4092 
Q 1497 4750 2381 4750 
Q 2619 4750 2861 4703 
Q 3103 4656 3366 4563 
z
" transform="scale(0.015625)"/>
       </defs>
       <use xlink:href="#DejaVuSans-36"/>
       <use xlink:href="#DejaVuSans-30" transform="translate(63.623047 0)"/>
       <use xlink:href="#DejaVuSans-30" transform="translate(127.246094 0)"/>
      </g>
     </g>
    </g>
    <g id="xtick_5">
     <g id="line2d_5">
      <g>
       <use xlink:href="#m82bd40d7df" x="333.816347" y="307.584" style="stroke: #000000; stroke-width: 0.8"/>
      </g>
     </g>
     <g id="text_5">
      <!-- 800 -->
      <g transform="translate(324.272597 322.182437) scale(0.1 -0.1)">
       <defs>
        <path id="DejaVuSans-38" d="M 2034 2216 
Q 1584 2216 1326 1975 
Q 1069 1734 1069 1313 
Q 1069 891 1326 650 
Q 1584 409 2034 409 
Q 2484 409 2743 651 
Q 3003 894 3003 1313 
Q 3003 1734 2745 1975 
Q 2488 2216 2034 2216 
z
M 1403 2484 
Q 997 2584 770 2862 
Q 544 3141 544 3541 
Q 544 4100 942 4425 
Q 1341 4750 2034 4750 
Q 2731 4750 3128 4425 
Q 3525 4100 3525 3541 
Q 3525 3141 3298 2862 
Q 3072 2584 2669 2484 
Q 3125 2378 3379 2068 
Q 3634 1759 3634 1313 
Q 3634 634 3220 271 
Q 2806 -91 2034 -91 
Q 1263 -91 848 271 
Q 434 634 434 1313 
Q 434 1759 690 2068 
Q 947 2378 1403 2484 
z
M 1172 3481 
Q 1172 3119 1398 2916 
Q 1625 2713 2034 2713 
Q 2441 2713 2670 2916 
Q 2900 3119 2900 3481 
Q 2900 3844 2670 4047 
Q 2441 4250 2034 4250 
Q 1625 4250 1398 4047 
Q 1172 3844 1172 3481 
z
" transform="scale(0.015625)"/>
       </defs>
       <use xlink:href="#DejaVuSans-38"/>
       <use xlink:href="#DejaVuSans-30" transform="translate(63.623047 0)"/>
       <use xlink:href="#DejaVuSans-30" transform="translate(127.246094 0)"/>
      </g>
     </g>
    </g>
    <g id="xtick_6">
     <g id="line2d_6">
      <g>
       <use xlink:href="#m82bd40d7df" x="398.812252" y="307.584" style="stroke: #000000; stroke-width: 0.8"/>
      </g>
     </g>
     <g id="text_6">
      <!-- 1000 -->
      <g transform="translate(386.087252 322.182437) scale(0.1 -0.1)">
       <defs>
        <path id="DejaVuSans-31" d="M 794 531 
L 1825 531 
L 1825 4091 
L 703 3866 
L 703 4441 
L 1819 4666 
L 2450 4666 
L 2450 531 
L 3481 531 
L 3481 0 
L 794 0 
L 794 531 
z
" transform="scale(0.015625)"/>
       </defs>
       <use xlink:href="#DejaVuSans-31"/>
       <use xlink:href="#DejaVuSans-30" transform="translate(63.623047 0)"/>
       <use xlink:href="#DejaVuSans-30" transform="translate(127.246094 0)"/>
       <use xlink:href="#DejaVuSans-30" transform="translate(190.869141 0)"/>
      </g>
     </g>
    </g>
    <g id="text_7">
     <!-- Schritt k -->
     <g transform="translate(215.218594 335.860562) scale(0.1 -0.1)">
      <defs>
       <path id="DejaVuSans-53" d="M 3425 4513 
L 3425 3897 
Q 3066 4069 2747 4153 
Q 2428 4238 2131 4238 
Q 1616 4238 1336 4038 
Q 1056 3838 1056 3469 
Q 1056 3159 1242 3001 
Q 1428 2844 1947 2747 
L 2328 2669 
Q 3034 2534 3370 2195 
Q 3706 1856 3706 1288 
Q 3706 609 3251 259 
Q 2797 -91 1919 -91 
Q 1588 -91 1214 -16 
Q 841 59 441 206 
L 441 856 
Q 825 641 1194 531 
Q 1563 422 1919 422 
Q 2459 422 2753 634 
Q 3047 847 3047 1241 
Q 3047 1584 2836 1778 
Q 2625 1972 2144 2069 
L 1759 2144 
Q 1053 2284 737 2584 
Q 422 2884 422 3419 
Q 422 4038 858 4394 
Q 1294 4750 2059 4750 
Q 2388 4750 2728 4690 
Q 3069 4631 3425 4513 
z
" transform="scale(0.015625)"/>
       <path id="DejaVuSans-63" d="M 3122 3366 
L 3122 2828 
Q 2878 2963 2633 3030 
Q 2388 3097 2138 3097 
Q 1578 3097 1268 2742 
Q 959 2388 959 1747 
Q 959 1106 1268 751 
Q 1578 397 2138 397 
Q 2388 397 2633 464 
Q 2878 531 3122 666 
L 3122 134 
Q 2881 22 2623 -34 
Q 2366 -91 2075 -91 
Q 1284 -91 818 406 
Q 353 903 353 1747 
Q 353 2603 823 3093 
Q 1294 3584 2113 3584 
Q 2378 3584 2631 3529 
Q 2884 3475 3122 3366 
z
" transform="scale(0.015625)"/>
       <path id="DejaVuSans-68" d="M 3513 2113 
L 3513 0 
L 2938 0 
L 2938 2094 
Q 2938 2591 2744 2837 
Q 2550 3084 2163 3084 
Q 1697 3084 1428 2787 
Q 1159 2491 1159 1978 
L 1159 0 
L 581 0 
L 581 4863 
L 1159 4863 
L 1159 2956 
Q 1366 3272 1645 3428 
Q 1925 3584 2291 3584 
Q 2894 3584 3203 3211 
Q 3513 2838 3513 2113 
z
" transform="scale(0.015625)"/>
       <path id="DejaVuSans-72" d="M 2631 2963 
Q 2534 3019 2420 3045 
Q 2306 3072 2169 3072 
Q 1681 3072 1420 2755 
Q 1159 2438 1159 1844 
L 1159 0 
L 581 0 
L 581 3500 
L 1159 3500 
L 1159 2956 
Q 1341 3275 1631 3429 
Q 1922 3584 2338 3584 
Q 2397 3584 2469 3576 
Q 2541 3569 2628 3553 
L 2631 2963 
z
" transform="scale(0.015625)"/>
       <path id="DejaVuSans-69" d="M 603 3500 
L 1178 3500 
L 1178 0 
L 603 0 
L 603 3500 
z
M 603 4863 
L 1178 4863 
L 1178 4134 
L 603 4134 
L 603 4863 
z
" transform="scale(0.015625)"/>
       <path id="DejaVuSans-74" d="M 1172 4494 
L 1172 3500 
L 2356 3500 
L 2356 3053 
L 1172 3053 
L 1172 1153 
Q 1172 725 1289 603 
Q 1406 481 1766 481 
L 2356 481 
L 2356 0 
L 1766 0 
Q 1100 0 847 248 
Q 594 497 594 1153 
L 594 3053 
L 172 3053 
L 172 3500 
L 594 3500 
L 594 4494 
L 1172 4494 
z
" transform="scale(0.015625)"/>
       <path id="DejaVuSans-20" transform="scale(0.015625)"/>
       <path id="DejaVuSans-6b" d="M 581 4863 
L 1159 4863 
L 1159 1991 
L 2875 3500 
L 3609 3500 
L 1753 1863 
L 3688 0 
L 2938 0 
L 1159 1709 
L 1159 0 
L 581 0 
L 581 4863 
z
" transform="scale(0.015625)"/>
      </defs>
      <use xlink:href="#DejaVuSans-53"/>
      <use xlink:href="#DejaVuSans-63" transform="translate(63.476562 0)"/>
      <use xlink:href="#DejaVuSans-68" transform="translate(118.457031 0)"/>
      <use xlink:href="#DejaVuSans-72" transform="translate(181.835938 0)"/>
      <use xlink:href="#DejaVuSans-69" transform="translate(222.949219 0)"/>
      <use xlink:href="#DejaVuSans-74" transform="translate(250.732422 0)"/>
      <use xlink:href="#DejaVuSans-74" transform="translate(289.941406 0)"/>
      <use xlink:href="#DejaVuSans-20" transform="translate(329.150391 0)"/>
      <use xlink:href="#DejaVuSans-6b" transform="translate(360.9375 0)"/>
     </g>
    </g>
   </g>
   <g id="matplotlib.axis_2">
    <g id="ytick_1">
     <g id="line2d_7">
      <defs>
       <path id="me643df4919" d="M 0 0 
L -3.5 0 
" style="stroke: #000000; stroke-width: 0.8"/>
      </defs>
      <g>
       <use xlink:href="#me643df4919" x="57.6" y="286.096322" style="stroke: #000000; stroke-width: 0.8"/>
      </g>
     </g>
     <g id="text_8">
      <!-- 0 -->
      <g transform="translate(44.2375 289.895541) scale(0.1 -0.1)">
       <use xlink:href="#DejaVuSans-30"/>
      </g>
     </g>
    </g>
    <g id="ytick_2">
     <g id="line2d_8">
      <g>
       <use xlink:href="#me643df4919" x="57.6" y="228.543886" style="stroke: #000000; stroke-width: 0.8"/>
      </g>
     </g>
     <g id="text_9">
      <!-- 100 -->
      <g transform="translate(31.5125 232.343104) scale(0.1 -0.1)">
       <use xlink:href="#DejaVuSans-31"/>
       <use xlink:href="#DejaVuSans-30" transform="translate(63.623047 0)"/>
       <use xlink:href="#DejaVuSans-30" transform="translate(127.246094 0)"/>
      </g>
     </g>
    </g>
    <g id="ytick_3">
     <g id="line2d_9">
      <g>
       <use xlink:href="#me643df4919" x="57.6" y="170.991449" style="stroke: #000000; stroke-width: 0.8"/>
      </g>
     </g>
     <g id="text_10">
      <!-- 200 -->
      <g transform="translate(31.5125 174.790668) scale(0.1 -0.1)">
       <use xlink:href="#DejaVuSans-32"/>
       <use xlink:href="#DejaVuSans-30" transform="translate(63.623047 0)"/>
       <use xlink:href="#DejaVuSans-30" transform="translate(127.246094 0)"/>
      </g>
     </g>
    </g>
    <g id="ytick_4">
     <g id="line2d_10">
      <g>
       <use xlink:href="#me643df4919" x="57.6" y="113.439013" style="stroke: #000000; stroke-width: 0.8"/>
      </g>
     </g>
     <g id="text_11">
      <!-- 300 -->
      <g transform="translate(31.5125 117.238231) scale(0.1 -0.1)">
       <defs>
        <path id="DejaVuSans-33" d="M 2597 2516 
Q 3050 2419 3304 2112 
Q 3559 1806 3559 1356 
Q 3559 666 3084 287 
Q 2609 -91 1734 -91 
Q 1441 -91 1130 -33 
Q 819 25 488 141 
L 488 750 
Q 750 597 1062 519 
Q 1375 441 1716 441 
Q 2309 441 2620 675 
Q 2931 909 2931 1356 
Q 2931 1769 2642 2001 
Q 2353 2234 1838 2234 
L 1294 2234 
L 1294 2753 
L 1863 2753 
Q 2328 2753 2575 2939 
Q 2822 3125 2822 3475 
Q 2822 3834 2567 4026 
Q 2313 4219 1838 4219 
Q 1578 4219 1281 4162 
Q 984 4106 628 3988 
L 628 4550 
Q 988 4650 1302 4700 
Q 1616 4750 1894 4750 
Q 2613 4750 3031 4423 
Q 3450 4097 3450 3541 
Q 3450 3153 3228 2886 
Q 3006 2619 2597 2516 
z
" transform="scale(0.015625)"/>
       </defs>
       <use xlink:href="#DejaVuSans-33"/>
       <use xlink:href="#DejaVuSans-30" transform="translate(63.623047 0)"/>
       <use xlink:href="#DejaVuSans-30" transform="translate(127.246094 0)"/>
      </g>
     </g>
    </g>
    <g id="ytick_5">
     <g id="line2d_11">
      <g>
       <use xlink:href="#me643df4919" x="57.6" y="55.886576" style="stroke: #000000; stroke-width: 0.8"/>
      </g>
     </g>
     <g id="text_12">
      <!-- 400 -->
      <g transform="translate(31.5125 59.685795) scale(0.1 -0.1)">
       <use xlink:href="#DejaVuSans-34"/>
       <use xlink:href="#DejaVuSans-30" transform="translate(63.623047 0)"/>
       <use xlink:href="#DejaVuSans-30" transform="translate(127.246094 0)"/>
      </g>
     </g>
    </g>
    <g id="text_13">
     <!-- Summe x({i| i&lt;=k}) -->
     <g transform="translate(25.154687 225.827219) rotate(-90) scale(0.1 -0.1)">
      <defs>
       <path id="DejaVuSans-75" d="M 544 1381 
L 544 3500 
L 1119 3500 
L 1119 1403 
Q 1119 906 1312 657 
Q 1506 409 1894 409 
Q 2359 409 2629 706 
Q 2900 1003 2900 1516 
L 2900 3500 
L 3475 3500 
L 3475 0 
L 2900 0 
L 2900 538 
Q 2691 219 2414 64 
Q 2138 -91 1772 -91 
Q 1169 -91 856 284 
Q 544 659 544 1381 
z
M 1991 3584 
L 1991 3584 
z
" transform="scale(0.015625)"/>
       <path id="DejaVuSans-6d" d="M 3328 2828 
Q 3544 3216 3844 3400 
Q 4144 3584 4550 3584 
Q 5097 3584 5394 3201 
Q 5691 2819 5691 2113 
L 5691 0 
L 5113 0 
L 5113 2094 
Q 5113 2597 4934 2840 
Q 4756 3084 4391 3084 
Q 3944 3084 3684 2787 
Q 3425 2491 3425 1978 
L 3425 0 
L 2847 0 
L 2847 2094 
Q 2847 2600 2669 2842 
Q 2491 3084 2119 3084 
Q 1678 3084 1418 2786 
Q 1159 2488 1159 1978 
L 1159 0 
L 581 0 
L 581 3500 
L 1159 3500 
L 1159 2956 
Q 1356 3278 1631 3431 
Q 1906 3584 2284 3584 
Q 2666 3584 2933 3390 
Q 3200 3197 3328 2828 
z
" transform="scale(0.015625)"/>
       <path id="DejaVuSans-65" d="M 3597 1894 
L 3597 1613 
L 953 1613 
Q 991 1019 1311 708 
Q 1631 397 2203 397 
Q 2534 397 2845 478 
Q 3156 559 3463 722 
L 3463 178 
Q 3153 47 2828 -22 
Q 2503 -91 2169 -91 
Q 1331 -91 842 396 
Q 353 884 353 1716 
Q 353 2575 817 3079 
Q 1281 3584 2069 3584 
Q 2775 3584 3186 3129 
Q 3597 2675 3597 1894 
z
M 3022 2063 
Q 3016 2534 2758 2815 
Q 2500 3097 2075 3097 
Q 1594 3097 1305 2825 
Q 1016 2553 972 2059 
L 3022 2063 
z
" transform="scale(0.015625)"/>
       <path id="DejaVuSans-78" d="M 3513 3500 
L 2247 1797 
L 3578 0 
L 2900 0 
L 1881 1375 
L 863 0 
L 184 0 
L 1544 1831 
L 300 3500 
L 978 3500 
L 1906 2253 
L 2834 3500 
L 3513 3500 
z
" transform="scale(0.015625)"/>
       <path id="DejaVuSans-28" d="M 1984 4856 
Q 1566 4138 1362 3434 
Q 1159 2731 1159 2009 
Q 1159 1288 1364 580 
Q 1569 -128 1984 -844 
L 1484 -844 
Q 1016 -109 783 600 
Q 550 1309 550 2009 
Q 550 2706 781 3412 
Q 1013 4119 1484 4856 
L 1984 4856 
z
" transform="scale(0.015625)"/>
       <path id="DejaVuSans-7b" d="M 3272 -594 
L 3272 -1044 
L 3078 -1044 
Q 2300 -1044 2036 -812 
Q 1772 -581 1772 109 
L 1772 856 
Q 1772 1328 1603 1509 
Q 1434 1691 991 1691 
L 800 1691 
L 800 2138 
L 991 2138 
Q 1438 2138 1605 2317 
Q 1772 2497 1772 2963 
L 1772 3713 
Q 1772 4403 2036 4633 
Q 2300 4863 3078 4863 
L 3272 4863 
L 3272 4416 
L 3059 4416 
Q 2619 4416 2484 4278 
Q 2350 4141 2350 3700 
L 2350 2925 
Q 2350 2434 2208 2212 
Q 2066 1991 1722 1913 
Q 2069 1828 2209 1606 
Q 2350 1384 2350 897 
L 2350 122 
Q 2350 -319 2484 -456 
Q 2619 -594 3059 -594 
L 3272 -594 
z
" transform="scale(0.015625)"/>
       <path id="DejaVuSans-7c" d="M 1344 4891 
L 1344 -1509 
L 813 -1509 
L 813 4891 
L 1344 4891 
z
" transform="scale(0.015625)"/>
       <path id="DejaVuSans-3c" d="M 4684 3150 
L 1459 2003 
L 4684 863 
L 4684 294 
L 678 1747 
L 678 2266 
L 4684 3719 
L 4684 3150 
z
" transform="scale(0.015625)"/>
       <path id="DejaVuSans-3d" d="M 678 2906 
L 4684 2906 
L 4684 2381 
L 678 2381 
L 678 2906 
z
M 678 1631 
L 4684 1631 
L 4684 1100 
L 678 1100 
L 678 1631 
z
" transform="scale(0.015625)"/>
       <path id="DejaVuSans-7d" d="M 800 -594 
L 1019 -594 
Q 1456 -594 1589 -459 
Q 1722 -325 1722 122 
L 1722 897 
Q 1722 1384 1862 1606 
Q 2003 1828 2350 1913 
Q 2003 1991 1862 2212 
Q 1722 2434 1722 2925 
L 1722 3700 
Q 1722 4144 1589 4280 
Q 1456 4416 1019 4416 
L 800 4416 
L 800 4863 
L 997 4863 
Q 1775 4863 2036 4633 
Q 2297 4403 2297 3713 
L 2297 2963 
Q 2297 2497 2465 2317 
Q 2634 2138 3078 2138 
L 3272 2138 
L 3272 1691 
L 3078 1691 
Q 2634 1691 2465 1509 
Q 2297 1328 2297 856 
L 2297 109 
Q 2297 -581 2036 -812 
Q 1775 -1044 997 -1044 
L 800 -1044 
L 800 -594 
z
" transform="scale(0.015625)"/>
       <path id="DejaVuSans-29" d="M 513 4856 
L 1013 4856 
Q 1481 4119 1714 3412 
Q 1947 2706 1947 2009 
Q 1947 1309 1714 600 
Q 1481 -109 1013 -844 
L 513 -844 
Q 928 -128 1133 580 
Q 1338 1288 1338 2009 
Q 1338 2731 1133 3434 
Q 928 4138 513 4856 
z
" transform="scale(0.015625)"/>
      </defs>
      <use xlink:href="#DejaVuSans-53"/>
      <use xlink:href="#DejaVuSans-75" transform="translate(63.476562 0)"/>
      <use xlink:href="#DejaVuSans-6d" transform="translate(126.855469 0)"/>
      <use xlink:href="#DejaVuSans-6d" transform="translate(224.267578 0)"/>
      <use xlink:href="#DejaVuSans-65" transform="translate(321.679688 0)"/>
      <use xlink:href="#DejaVuSans-20" transform="translate(383.203125 0)"/>
      <use xlink:href="#DejaVuSans-78" transform="translate(414.990234 0)"/>
      <use xlink:href="#DejaVuSans-28" transform="translate(474.169922 0)"/>
      <use xlink:href="#DejaVuSans-7b" transform="translate(513.183594 0)"/>
      <use xlink:href="#DejaVuSans-69" transform="translate(576.806641 0)"/>
      <use xlink:href="#DejaVuSans-7c" transform="translate(604.589844 0)"/>
      <use xlink:href="#DejaVuSans-20" transform="translate(638.28125 0)"/>
      <use xlink:href="#DejaVuSans-69" transform="translate(670.068359 0)"/>
      <use xlink:href="#DejaVuSans-3c" transform="translate(697.851562 0)"/>
      <use xlink:href="#DejaVuSans-3d" transform="translate(781.640625 0)"/>
      <use xlink:href="#DejaVuSans-6b" transform="translate(865.429688 0)"/>
      <use xlink:href="#DejaVuSans-7d" transform="translate(923.339844 0)"/>
      <use xlink:href="#DejaVuSans-29" transform="translate(986.962891 0)"/>
     </g>
    </g>
   </g>
   <g id="line2d_12">
    <path d="M 73.832727 286.096322 
L 74.157707 285.754419 
L 75.132645 283.576175 
L 75.457625 283.46044 
L 75.782604 283.703339 
L 76.107584 283.046441 
L 77.082523 281.834742 
L 77.732482 281.431674 
L 78.057461 280.902073 
L 78.382441 281.284764 
L 79.0324 279.884979 
L 79.357379 279.78361 
L 79.682359 279.233144 
L 80.007338 278.109369 
L 80.332318 277.526842 
L 80.657297 276.715172 
L 80.982277 276.215704 
L 81.307256 276.269912 
L 81.632236 275.753151 
L 81.957215 275.459501 
L 82.282195 274.930563 
L 82.607174 274.654026 
L 84.232072 272.295973 
L 84.882031 270.515204 
L 85.207011 270.190695 
L 85.53199 270.431721 
L 86.181949 269.716433 
L 86.506929 269.366755 
L 86.831908 269.345172 
L 87.481867 270.03936 
L 87.806847 270.469633 
L 88.456806 272.085722 
L 89.431744 272.449488 
L 89.756724 272.74977 
L 90.081704 273.728293 
L 90.406683 274.210722 
L 90.731663 275.125124 
L 91.056642 275.559798 
L 91.381622 275.748193 
L 91.706601 276.613688 
L 92.35656 277.301587 
L 92.68154 277.396841 
L 93.006519 277.663606 
L 93.331499 278.391471 
L 94.306437 281.457977 
L 94.631417 281.792102 
L 95.281376 282.968072 
L 95.606355 284.033076 
L 96.906274 286.789197 
L 97.881212 289.535846 
L 98.206192 289.848401 
L 98.531171 290.884687 
L 98.856151 291.45598 
L 100.481048 295.38259 
L 101.131007 295.488 
L 101.780966 294.750399 
L 102.105946 294.36223 
L 102.430925 294.325362 
L 103.080885 293.953443 
L 105.680721 286.574603 
L 106.33068 285.004524 
L 106.655659 284.27398 
L 106.980639 283.836894 
L 107.630598 282.729324 
L 107.955577 282.41422 
L 108.280557 281.52322 
L 108.605536 281.533214 
L 110.230434 280.414111 
L 111.205373 280.908022 
L 111.855332 280.396185 
L 112.505291 281.594939 
L 112.83027 281.198281 
L 113.15525 280.135908 
L 113.480229 279.819673 
L 113.805209 279.745564 
L 114.130188 280.623983 
L 114.455168 280.600851 
L 114.780147 279.942487 
L 115.430106 280.399779 
L 115.755086 280.464745 
L 116.080066 280.273575 
L 116.405045 280.633586 
L 116.730025 280.673622 
L 117.055004 280.54275 
L 117.379984 279.926354 
L 117.704963 279.794008 
L 118.029943 279.149339 
L 118.354922 279.157184 
L 118.679902 278.891784 
L 119.004881 278.805577 
L 119.329861 278.501803 
L 119.97982 278.252026 
L 120.304799 277.81044 
L 120.629779 277.780978 
L 121.604717 275.921324 
L 121.929697 274.363026 
L 122.254676 273.791836 
L 122.579656 273.511354 
L 122.904636 273.496537 
L 123.229615 273.158815 
L 123.879574 273.245321 
L 124.204554 272.889703 
L 124.529533 272.855182 
L 124.854513 272.223701 
L 125.179492 272.017916 
L 125.504472 272.030451 
L 125.829451 271.797062 
L 126.80439 271.876591 
L 127.129369 272.479535 
L 127.454349 272.316278 
L 128.104308 272.67534 
L 129.079247 271.303236 
L 129.404226 270.913827 
L 130.054185 269.332263 
L 130.704144 269.646536 
L 131.029124 269.947849 
L 131.354103 269.458491 
L 131.679083 268.677703 
L 132.329042 266.041879 
L 132.979001 263.306557 
L 133.62896 260.901845 
L 135.253857 255.9917 
L 136.228796 251.354328 
L 136.553776 251.070701 
L 136.878755 251.05311 
L 137.528714 250.11185 
L 138.828632 247.315304 
L 139.153612 246.91792 
L 139.478591 246.132447 
L 139.803571 245.960926 
L 140.12855 245.937421 
L 140.45353 245.70812 
L 141.753448 241.990163 
L 142.078428 241.868447 
L 143.378346 240.841092 
L 144.028305 238.618994 
L 145.003243 234.614908 
L 145.653202 233.265898 
L 146.303161 231.865128 
L 146.628141 231.552127 
L 146.95312 230.528455 
L 147.2781 230.31767 
L 147.603079 230.366562 
L 148.253038 229.182271 
L 149.227977 227.682387 
L 149.552957 227.531319 
L 149.877936 227.567504 
L 150.202916 227.372162 
L 150.527895 227.30949 
L 150.852875 227.709814 
L 151.177854 228.289105 
L 151.502834 227.767907 
L 151.827813 227.522601 
L 152.477772 228.097163 
L 152.802752 228.159577 
L 153.127731 228.033427 
L 153.452711 228.079038 
L 153.77769 227.821173 
L 154.10267 227.816163 
L 154.427649 227.566529 
L 154.752629 227.559105 
L 155.077609 227.976891 
L 155.402588 228.185693 
L 155.727568 228.067012 
L 156.052547 228.54468 
L 156.702506 229.08581 
L 157.027486 229.183326 
L 157.352465 229.121536 
L 158.002424 228.495242 
L 158.327404 228.102477 
L 158.977363 226.226153 
L 159.302342 226.038275 
L 159.627322 225.466334 
L 160.277281 225.015915 
L 160.60226 224.902035 
L 160.92724 225.510215 
L 161.252219 225.08648 
L 161.902179 225.663489 
L 162.227158 225.440208 
L 163.202097 222.380933 
L 163.527076 221.867528 
L 163.852056 220.994656 
L 164.177035 220.961119 
L 164.502015 220.733791 
L 164.826994 219.819018 
L 165.151974 220.130433 
L 165.476953 220.075673 
L 165.801933 219.649679 
L 166.126912 219.882984 
L 166.451892 219.923807 
L 166.776871 219.812163 
L 167.101851 219.554135 
L 168.07679 219.328977 
L 168.401769 219.161198 
L 168.726749 219.319338 
L 169.051728 219.22419 
L 169.376708 219.516808 
L 169.701687 218.420323 
L 170.026667 218.096495 
L 170.351646 218.583292 
L 170.676626 218.672036 
L 171.326585 217.094273 
L 171.976544 213.725727 
L 172.301523 212.922093 
L 173.276462 209.210757 
L 173.926421 208.145867 
L 174.2514 207.30024 
L 174.57638 207.229969 
L 174.90136 206.920357 
L 175.876298 205.191103 
L 177.176216 200.397631 
L 177.501196 200.174711 
L 177.826175 199.330432 
L 179.451073 198.149948 
L 179.776052 198.014234 
L 180.426011 197.356693 
L 181.075971 196.171004 
L 181.40095 196.070961 
L 182.700868 193.775759 
L 183.350827 192.225773 
L 184.000786 189.680946 
L 184.325766 189.097987 
L 184.650745 187.991603 
L 184.975725 187.580879 
L 185.300704 187.391708 
L 185.625684 187.727422 
L 185.950663 187.581683 
L 186.925602 185.405575 
L 187.575561 185.310013 
L 187.900541 185.699334 
L 188.5505 187.510172 
L 188.875479 188.561314 
L 189.525438 189.039094 
L 189.850418 188.870944 
L 190.175397 188.365241 
L 190.500377 187.624391 
L 190.825356 186.596694 
L 191.150336 186.117863 
L 191.475315 186.213209 
L 191.800295 186.427761 
L 192.125274 186.481526 
L 192.450254 185.901201 
L 192.775233 185.861409 
L 193.100213 186.326562 
L 194.075152 185.360037 
L 194.725111 183.692151 
L 195.37507 182.58914 
L 196.025029 180.51453 
L 196.350008 180.067239 
L 197.324947 177.545513 
L 198.624865 175.800787 
L 199.274824 173.991451 
L 199.599803 174.017282 
L 199.924783 173.527375 
L 200.249762 172.701079 
L 200.899722 171.867194 
L 201.224701 171.833368 
L 201.549681 171.591577 
L 203.174578 169.047424 
L 203.499558 168.303523 
L 204.149517 168.081825 
L 204.474496 167.82392 
L 204.799476 167.406123 
L 205.774414 164.950755 
L 206.749353 162.684327 
L 207.074333 162.36539 
L 207.399312 161.869641 
L 207.724292 161.87893 
L 208.049271 161.579021 
L 208.374251 161.001623 
L 209.349189 160.199601 
L 209.999148 159.212392 
L 210.324128 158.530022 
L 210.649107 158.170802 
L 210.974087 157.4242 
L 211.299066 157.0813 
L 211.949025 157.505702 
L 212.274005 157.397877 
L 212.598984 157.654726 
L 213.248943 157.518125 
L 213.573923 157.088918 
L 213.898903 156.344818 
L 215.198821 151.78158 
L 215.5238 151.224379 
L 217.148698 147.436358 
L 217.473677 147.071046 
L 217.798657 146.908742 
L 218.773595 144.904869 
L 219.098575 145.403464 
L 219.423554 144.79919 
L 219.748534 144.437074 
L 220.073514 144.325778 
L 220.398493 143.937055 
L 220.723473 143.964692 
L 221.048452 144.541929 
L 221.373432 144.272897 
L 222.67335 143.969366 
L 223.323309 144.607763 
L 223.648288 143.876579 
L 223.973268 143.790223 
L 224.298247 143.106335 
L 224.623227 142.883756 
L 224.948206 143.469707 
L 225.598165 143.750084 
L 225.923145 142.938121 
L 226.898084 141.872861 
L 227.548043 142.272724 
L 227.873022 142.726243 
L 228.198002 142.108354 
L 228.522981 141.762748 
L 229.17294 142.110911 
L 229.49792 142.732757 
L 229.822899 142.77466 
L 230.147879 143.102794 
L 230.472858 144.343776 
L 230.797838 144.520558 
L 231.122817 144.56681 
L 231.447797 145.053422 
L 231.772776 145.260192 
L 232.097756 145.256873 
L 232.422735 144.974076 
L 232.747715 144.494279 
L 233.072695 144.618968 
L 233.397674 144.372566 
L 234.372613 144.675579 
L 235.022572 143.952598 
L 235.347551 143.079231 
L 235.99751 142.388746 
L 236.647469 141.833434 
L 236.972449 141.799398 
L 237.622408 142.373315 
L 238.597346 142.254938 
L 238.922326 142.048853 
L 239.247305 141.612882 
L 239.572285 141.58646 
L 239.897265 141.261812 
L 240.222244 141.295714 
L 240.547224 141.593224 
L 240.872203 141.230702 
L 241.522162 141.417443 
L 241.847142 141.868356 
L 242.82208 140.130264 
L 243.14706 140.174789 
L 243.472039 140.020982 
L 243.797019 139.3452 
L 244.121998 139.459097 
L 245.421916 138.532401 
L 245.746896 138.033543 
L 246.071876 137.919644 
L 247.046814 135.935954 
L 247.696773 133.998139 
L 248.021753 133.526489 
L 249.321671 132.691706 
L 249.64665 132.591527 
L 249.97163 132.983304 
L 250.296609 132.986796 
L 250.621589 132.613041 
L 250.946568 132.651552 
L 251.271548 132.380411 
L 251.596527 131.925194 
L 251.921507 131.805079 
L 252.246486 131.351964 
L 252.896446 129.619535 
L 253.221425 129.364316 
L 253.871384 129.833401 
L 254.196364 129.830022 
L 255.496282 128.997151 
L 255.821261 129.168382 
L 256.146241 128.813271 
L 256.47122 128.266315 
L 257.121179 128.566659 
L 257.446159 128.293677 
L 257.771138 128.314254 
L 258.746077 127.57604 
L 259.396036 126.209808 
L 259.721016 125.923211 
L 260.045995 126.00023 
L 260.695954 125.433603 
L 261.345913 124.08139 
L 261.670893 123.784611 
L 261.995872 124.045749 
L 262.320852 123.918931 
L 262.645831 123.47308 
L 262.970811 123.262965 
L 263.62077 121.557441 
L 266.870565 109.885277 
L 267.195545 109.506516 
L 267.520524 109.369787 
L 267.845504 109.538908 
L 268.495463 108.610613 
L 268.820442 108.674447 
L 269.470401 107.860987 
L 269.795381 107.984019 
L 270.12036 107.899165 
L 270.44534 107.54931 
L 271.095299 107.339238 
L 271.420278 106.872556 
L 272.070238 105.409615 
L 273.370156 103.842749 
L 273.695135 103.770512 
L 274.020115 103.381935 
L 274.345094 103.176695 
L 274.670074 102.395928 
L 274.995053 101.032858 
L 275.969992 98.710937 
L 277.26991 96.582646 
L 277.594889 95.931748 
L 277.919869 95.535716 
L 278.244848 95.366115 
L 278.569828 95.592659 
L 278.894808 95.670168 
L 279.219787 95.426956 
L 279.869746 94.32057 
L 281.494644 90.052557 
L 281.819623 89.614983 
L 282.469582 89.505019 
L 282.794562 89.024933 
L 283.119541 88.275898 
L 283.7695 87.754528 
L 284.09448 87.964303 
L 285.069419 90.073624 
L 286.044357 91.074457 
L 286.369337 91.595169 
L 286.694316 91.854823 
L 287.019296 92.378307 
L 287.344275 92.559718 
L 287.669255 93.415099 
L 288.319214 93.907704 
L 288.644193 93.775927 
L 289.294152 93.726656 
L 289.619132 93.559553 
L 289.944111 93.26651 
L 290.59407 93.887098 
L 290.91905 94.020863 
L 291.569009 95.294291 
L 291.893989 95.201719 
L 292.543948 95.497235 
L 293.193907 94.918911 
L 294.168845 94.921483 
L 295.143784 93.669645 
L 295.468763 93.03636 
L 295.793743 92.119825 
L 296.118722 91.70376 
L 296.443702 91.548242 
L 297.093661 90.510366 
L 297.41864 90.429485 
L 297.74362 90.216954 
L 298.0686 90.623182 
L 298.393579 90.843617 
L 299.368518 90.317817 
L 299.693497 90.692294 
L 300.018477 90.291198 
L 300.343456 89.643098 
L 300.668436 88.537186 
L 300.993415 88.175703 
L 301.643374 88.013966 
L 302.293333 86.952804 
L 302.618313 86.435326 
L 302.943292 85.468487 
L 303.268272 85.114945 
L 303.593251 85.134349 
L 303.918231 85.041077 
L 304.24321 83.976832 
L 304.89317 83.180053 
L 305.218149 83.040831 
L 307.168026 79.015741 
L 307.493006 78.119463 
L 307.817985 77.693208 
L 308.142965 77.618145 
L 308.467944 77.326208 
L 308.792924 77.572502 
L 309.442883 77.019294 
L 310.092842 75.707193 
L 310.417821 75.531151 
L 310.742801 74.958645 
L 311.39276 74.714412 
L 311.71774 74.591352 
L 312.042719 74.712884 
L 312.367699 74.641943 
L 312.692678 74.734595 
L 313.342637 73.952414 
L 313.667617 74.049532 
L 313.992596 73.729671 
L 314.642555 71.568835 
L 314.967535 70.548685 
L 315.617494 70.203286 
L 315.942473 70.839419 
L 316.267453 70.887284 
L 316.592432 71.373493 
L 316.917412 71.625533 
L 317.242391 71.580918 
L 317.567371 72.140489 
L 317.892351 72.081234 
L 318.21733 71.675195 
L 319.192269 72.902022 
L 319.517248 72.931022 
L 320.817166 74.520265 
L 321.467125 75.023525 
L 321.792105 74.593211 
L 322.117084 74.634677 
L 322.442064 74.973271 
L 322.767043 74.840637 
L 323.417002 75.122983 
L 323.741982 74.904915 
L 324.066962 74.890194 
L 325.36688 73.987027 
L 326.016839 72.936159 
L 326.341818 73.048119 
L 326.666798 73.001574 
L 327.316757 72.279344 
L 327.966716 72.663046 
L 329.591613 76.767867 
L 329.916593 77.034675 
L 330.566552 78.286376 
L 330.891532 79.320569 
L 331.541491 79.530488 
L 331.86647 80.254365 
L 332.19145 80.590224 
L 332.516429 80.607964 
L 333.166388 79.579074 
L 333.491368 80.144818 
L 333.816347 80.271077 
L 334.141327 80.168186 
L 334.466306 80.273222 
L 334.791286 80.082769 
L 335.441245 79.887758 
L 335.766224 80.19602 
L 336.091204 80.856646 
L 336.416183 80.883773 
L 336.741163 81.164534 
L 337.066143 81.103786 
L 337.716102 80.629283 
L 338.041081 80.229015 
L 338.366061 80.736071 
L 339.01602 79.684761 
L 339.340999 79.790718 
L 339.665979 79.705859 
L 339.990958 80.065592 
L 340.315938 80.038617 
L 340.640917 80.204183 
L 340.965897 80.050098 
L 341.290876 79.469861 
L 341.615856 79.146859 
L 341.940835 78.323446 
L 342.590794 75.661254 
L 343.890713 72.011659 
L 344.215692 70.689033 
L 344.540672 70.050117 
L 345.51561 65.714505 
L 346.815528 63.37768 
L 347.140508 63.191551 
L 347.790467 63.493833 
L 348.440426 64.059504 
L 348.765405 63.677831 
L 349.415364 64.702225 
L 350.065324 65.944413 
L 350.715283 66.467067 
L 351.365242 66.825057 
L 351.690221 66.451034 
L 352.34018 65.268663 
L 352.990139 63.744951 
L 353.315119 63.318174 
L 353.965078 63.291931 
L 354.290057 63.182685 
L 354.940016 63.51485 
L 355.264996 63.059618 
L 355.589975 63.043121 
L 356.564914 62.581881 
L 357.214873 62.047065 
L 357.539853 61.611505 
L 357.864832 61.616891 
L 358.189812 61.836101 
L 358.839771 63.059539 
L 359.48973 64.564779 
L 359.814709 64.610759 
L 360.464668 65.591183 
L 360.789648 65.539875 
L 361.764586 67.78665 
L 362.089566 68.226871 
L 363.064505 71.107854 
L 363.714464 72.813978 
L 364.039443 72.918167 
L 364.364423 73.183712 
L 364.689402 73.622094 
L 365.014382 73.791538 
L 365.664341 72.614413 
L 365.98932 72.997304 
L 366.3143 72.829992 
L 366.639279 72.093721 
L 366.964259 72.308968 
L 367.614218 71.284503 
L 367.939197 71.489056 
L 368.264177 70.994547 
L 368.914136 69.475576 
L 369.564095 68.544739 
L 370.214054 66.772426 
L 370.864013 65.898552 
L 372.163931 62.257184 
L 372.81389 62.282057 
L 373.13887 61.824222 
L 374.113808 59.702576 
L 374.763767 58.267788 
L 375.088747 58.071622 
L 375.413726 57.703918 
L 375.738706 57.152924 
L 376.063686 56.19879 
L 376.388665 55.600548 
L 376.713645 55.664951 
L 377.038624 56.475264 
L 377.363604 56.622373 
L 378.338542 54.859867 
L 378.663522 54.623941 
L 378.988501 54.614568 
L 379.63846 54.005804 
L 379.96344 53.78237 
L 380.288419 53.947019 
L 380.613399 53.950725 
L 380.938378 54.260791 
L 381.263358 54.83383 
L 381.588337 54.677865 
L 382.238296 54.700077 
L 382.888256 53.626518 
L 383.213235 53.568 
L 383.863194 54.075601 
L 384.513153 54.122318 
L 384.838133 54.560075 
L 385.163112 54.723893 
L 385.488092 54.59104 
L 386.138051 54.621505 
L 386.46303 54.839335 
L 387.762948 57.039678 
L 388.087928 57.296384 
L 389.062867 60.535772 
L 389.712826 60.881025 
L 390.362785 62.601166 
L 390.687764 62.698729 
L 391.012744 62.378637 
L 391.337723 62.610121 
L 391.662703 62.685368 
L 391.987682 62.419207 
L 392.312662 62.466139 
L 392.962621 62.088773 
L 393.2876 61.497002 
L 393.61258 61.40108 
L 393.937559 61.017288 
L 394.587518 60.723511 
L 394.912498 61.260507 
L 395.237477 61.526721 
L 395.887437 60.870442 
L 396.212416 60.884493 
L 396.862375 61.261035 
L 397.187355 61.349843 
L 397.512334 61.818712 
L 397.837314 62.020719 
L 398.162293 61.885487 
L 398.487273 61.594258 
L 398.487273 61.594258 
" clip-path="url(#pbac741f406)" style="fill: none; stroke: #1f77b4; stroke-width: 1.5; stroke-linecap: square"/>
   </g>
   <g id="patch_3">
    <path d="M 57.6 307.584 
L 57.6 41.472 
" style="fill: none; stroke: #000000; stroke-width: 0.8; stroke-linejoin: miter; stroke-linecap: square"/>
   </g>
   <g id="patch_4">
    <path d="M 414.72 307.584 
L 414.72 41.472 
" style="fill: none; stroke: #000000; stroke-width: 0.8; stroke-linejoin: miter; stroke-linecap: square"/>
   </g>
   <g id="patch_5">
    <path d="M 57.6 307.584 
L 414.72 307.584 
" style="fill: none; stroke: #000000; stroke-width: 0.8; stroke-linejoin: miter; stroke-linecap: square"/>
   </g>
   <g id="patch_6">
    <path d="M 57.6 41.472 
L 414.72 41.472 
" style="fill: none; stroke: #000000; stroke-width: 0.8; stroke-linejoin: miter; stroke-linecap: square"/>
   </g>
  </g>
 </g>
 <defs>
  <clipPath id="pbac741f406">
   <rect x="57.6" y="41.472" width="357.12" height="266.112"/>
  </clipPath>
 </defs>
</svg>
