<?xml version="1.0" encoding="utf-8" standalone="no"?>
<!DOCTYPE svg PUBLIC "-//W3C//DTD SVG 1.1//EN"
  "http://www.w3.org/Graphics/SVG/1.1/DTD/svg11.dtd">
<svg xmlns:xlink="http://www.w3.org/1999/xlink" width="460.8pt" height="345.6pt" viewBox="0 0 460.8 345.6" xmlns="http://www.w3.org/2000/svg" version="1.1">
 <metadata>
  <rdf:RDF xmlns:dc="http://purl.org/dc/elements/1.1/" xmlns:cc="http://creativecommons.org/ns#" xmlns:rdf="http://www.w3.org/1999/02/22-rdf-syntax-ns#">
   <cc:Work>
    <dc:type rdf:resource="http://purl.org/dc/dcmitype/StillImage"/>
    <dc:date>2025-11-24T21:41:05.537964</dc:date>
    <dc:format>image/svg+xml</dc:format>
    <dc:creator>
     <cc:Agent>
      <dc:title>Matplotlib v3.10.6, https://matplotlib.org/</dc:title>
     </cc:Agent>
    </dc:creator>
   </cc:Work>
  </rdf:RDF>
 </metadata>
 <defs>
  <style type="text/css">*{stroke-linejoin: round; stroke-linecap: butt}</style>
 </defs>
 <g id="figure_1">
  <g id="patch_1">
   <path d="M 0 345.6 
L 460.8 345.6 
L 460.8 0 
L 0 0 
z
" style="fill: #ffffff"/>
  </g>
  <g id="axes_1">
   <g id="patch_2">
    <path d="M 57.6 307.584 
L 414.72 307.584 
L 414.72 41.472 
L 57.6 41.472 
z
" style="fill: #ffffff"/>
   </g>
   <g id="matplotlib.axis_1">
    <g id="xtick_1">
     <g id="line2d_1">
      <defs>
       <path id="m27b2098d04" d="M 0 0 
L 0 3.5 
" style="stroke: #000000; stroke-width: 0.8"/>
      </defs>
      <g>
       <use xlink:href="#m27b2098d04" x="73.832727" y="307.584" style="stroke: #000000; stroke-width: 0.8"/>
      </g>
     </g>
     <g id="text_1">
      <!-- 0 -->
      <g transform="translate(70.651477 322.182437) scale(0.1 -0.1)">
       <defs>
        <path id="DejaVuSans-30" d="M 2034 4250 
Q 1547 4250 1301 3770 
Q 1056 3291 1056 2328 
Q 1056 1369 1301 889 
Q 1547 409 2034 409 
Q 2525 409 2770 889 
Q 3016 1369 3016 2328 
Q 3016 3291 2770 3770 
Q 2525 4250 2034 4250 
z
M 2034 4750 
Q 2819 4750 3233 4129 
Q 3647 3509 3647 2328 
Q 3647 1150 3233 529 
Q 2819 -91 2034 -91 
Q 1250 -91 836 529 
Q 422 1150 422 2328 
Q 422 3509 836 4129 
Q 1250 4750 2034 4750 
z
" transform="scale(0.015625)"/>
       </defs>
       <use xlink:href="#DejaVuSans-30"/>
      </g>
     </g>
    </g>
    <g id="xtick_2">
     <g id="line2d_2">
      <g>
       <use xlink:href="#m27b2098d04" x="138.828632" y="307.584" style="stroke: #000000; stroke-width: 0.8"/>
      </g>
     </g>
     <g id="text_2">
      <!-- 200 -->
      <g transform="translate(129.284882 322.182437) scale(0.1 -0.1)">
       <defs>
        <path id="DejaVuSans-32" d="M 1228 531 
L 3431 531 
L 3431 0 
L 469 0 
L 469 531 
Q 828 903 1448 1529 
Q 2069 2156 2228 2338 
Q 2531 2678 2651 2914 
Q 2772 3150 2772 3378 
Q 2772 3750 2511 3984 
Q 2250 4219 1831 4219 
Q 1534 4219 1204 4116 
Q 875 4013 500 3803 
L 500 4441 
Q 881 4594 1212 4672 
Q 1544 4750 1819 4750 
Q 2544 4750 2975 4387 
Q 3406 4025 3406 3419 
Q 3406 3131 3298 2873 
Q 3191 2616 2906 2266 
Q 2828 2175 2409 1742 
Q 1991 1309 1228 531 
z
" transform="scale(0.015625)"/>
       </defs>
       <use xlink:href="#DejaVuSans-32"/>
       <use xlink:href="#DejaVuSans-30" transform="translate(63.623047 0)"/>
       <use xlink:href="#DejaVuSans-30" transform="translate(127.246094 0)"/>
      </g>
     </g>
    </g>
    <g id="xtick_3">
     <g id="line2d_3">
      <g>
       <use xlink:href="#m27b2098d04" x="203.824537" y="307.584" style="stroke: #000000; stroke-width: 0.8"/>
      </g>
     </g>
     <g id="text_3">
      <!-- 400 -->
      <g transform="translate(194.280787 322.182437) scale(0.1 -0.1)">
       <defs>
        <path id="DejaVuSans-34" d="M 2419 4116 
L 825 1625 
L 2419 1625 
L 2419 4116 
z
M 2253 4666 
L 3047 4666 
L 3047 1625 
L 3713 1625 
L 3713 1100 
L 3047 1100 
L 3047 0 
L 2419 0 
L 2419 1100 
L 313 1100 
L 313 1709 
L 2253 4666 
z
" transform="scale(0.015625)"/>
       </defs>
       <use xlink:href="#DejaVuSans-34"/>
       <use xlink:href="#DejaVuSans-30" transform="translate(63.623047 0)"/>
       <use xlink:href="#DejaVuSans-30" transform="translate(127.246094 0)"/>
      </g>
     </g>
    </g>
    <g id="xtick_4">
     <g id="line2d_4">
      <g>
       <use xlink:href="#m27b2098d04" x="268.820442" y="307.584" style="stroke: #000000; stroke-width: 0.8"/>
      </g>
     </g>
     <g id="text_4">
      <!-- 600 -->
      <g transform="translate(259.276692 322.182437) scale(0.1 -0.1)">
       <defs>
        <path id="DejaVuSans-36" d="M 2113 2584 
Q 1688 2584 1439 2293 
Q 1191 2003 1191 1497 
Q 1191 994 1439 701 
Q 1688 409 2113 409 
Q 2538 409 2786 701 
Q 3034 994 3034 1497 
Q 3034 2003 2786 2293 
Q 2538 2584 2113 2584 
z
M 3366 4563 
L 3366 3988 
Q 3128 4100 2886 4159 
Q 2644 4219 2406 4219 
Q 1781 4219 1451 3797 
Q 1122 3375 1075 2522 
Q 1259 2794 1537 2939 
Q 1816 3084 2150 3084 
Q 2853 3084 3261 2657 
Q 3669 2231 3669 1497 
Q 3669 778 3244 343 
Q 2819 -91 2113 -91 
Q 1303 -91 875 529 
Q 447 1150 447 2328 
Q 447 3434 972 4092 
Q 1497 4750 2381 4750 
Q 2619 4750 2861 4703 
Q 3103 4656 3366 4563 
z
" transform="scale(0.015625)"/>
       </defs>
       <use xlink:href="#DejaVuSans-36"/>
       <use xlink:href="#DejaVuSans-30" transform="translate(63.623047 0)"/>
       <use xlink:href="#DejaVuSans-30" transform="translate(127.246094 0)"/>
      </g>
     </g>
    </g>
    <g id="xtick_5">
     <g id="line2d_5">
      <g>
       <use xlink:href="#m27b2098d04" x="333.816347" y="307.584" style="stroke: #000000; stroke-width: 0.8"/>
      </g>
     </g>
     <g id="text_5">
      <!-- 800 -->
      <g transform="translate(324.272597 322.182437) scale(0.1 -0.1)">
       <defs>
        <path id="DejaVuSans-38" d="M 2034 2216 
Q 1584 2216 1326 1975 
Q 1069 1734 1069 1313 
Q 1069 891 1326 650 
Q 1584 409 2034 409 
Q 2484 409 2743 651 
Q 3003 894 3003 1313 
Q 3003 1734 2745 1975 
Q 2488 2216 2034 2216 
z
M 1403 2484 
Q 997 2584 770 2862 
Q 544 3141 544 3541 
Q 544 4100 942 4425 
Q 1341 4750 2034 4750 
Q 2731 4750 3128 4425 
Q 3525 4100 3525 3541 
Q 3525 3141 3298 2862 
Q 3072 2584 2669 2484 
Q 3125 2378 3379 2068 
Q 3634 1759 3634 1313 
Q 3634 634 3220 271 
Q 2806 -91 2034 -91 
Q 1263 -91 848 271 
Q 434 634 434 1313 
Q 434 1759 690 2068 
Q 947 2378 1403 2484 
z
M 1172 3481 
Q 1172 3119 1398 2916 
Q 1625 2713 2034 2713 
Q 2441 2713 2670 2916 
Q 2900 3119 2900 3481 
Q 2900 3844 2670 4047 
Q 2441 4250 2034 4250 
Q 1625 4250 1398 4047 
Q 1172 3844 1172 3481 
z
" transform="scale(0.015625)"/>
       </defs>
       <use xlink:href="#DejaVuSans-38"/>
       <use xlink:href="#DejaVuSans-30" transform="translate(63.623047 0)"/>
       <use xlink:href="#DejaVuSans-30" transform="translate(127.246094 0)"/>
      </g>
     </g>
    </g>
    <g id="xtick_6">
     <g id="line2d_6">
      <g>
       <use xlink:href="#m27b2098d04" x="398.812252" y="307.584" style="stroke: #000000; stroke-width: 0.8"/>
      </g>
     </g>
     <g id="text_6">
      <!-- 1000 -->
      <g transform="translate(386.087252 322.182437) scale(0.1 -0.1)">
       <defs>
        <path id="DejaVuSans-31" d="M 794 531 
L 1825 531 
L 1825 4091 
L 703 3866 
L 703 4441 
L 1819 4666 
L 2450 4666 
L 2450 531 
L 3481 531 
L 3481 0 
L 794 0 
L 794 531 
z
" transform="scale(0.015625)"/>
       </defs>
       <use xlink:href="#DejaVuSans-31"/>
       <use xlink:href="#DejaVuSans-30" transform="translate(63.623047 0)"/>
       <use xlink:href="#DejaVuSans-30" transform="translate(127.246094 0)"/>
       <use xlink:href="#DejaVuSans-30" transform="translate(190.869141 0)"/>
      </g>
     </g>
    </g>
   </g>
   <g id="matplotlib.axis_2">
    <g id="ytick_1">
     <g id="line2d_7">
      <defs>
       <path id="mb32c1ff9c5" d="M 0 0 
L -3.5 0 
" style="stroke: #000000; stroke-width: 0.8"/>
      </defs>
      <g>
       <use xlink:href="#mb32c1ff9c5" x="57.6" y="304.426098" style="stroke: #000000; stroke-width: 0.8"/>
      </g>
     </g>
     <g id="text_7">
      <!-- −0.0100 -->
      <g transform="translate(7.229687 308.225316) scale(0.1 -0.1)">
       <defs>
        <path id="DejaVuSans-2212" d="M 678 2272 
L 4684 2272 
L 4684 1741 
L 678 1741 
L 678 2272 
z
" transform="scale(0.015625)"/>
        <path id="DejaVuSans-2e" d="M 684 794 
L 1344 794 
L 1344 0 
L 684 0 
L 684 794 
z
" transform="scale(0.015625)"/>
       </defs>
       <use xlink:href="#DejaVuSans-2212"/>
       <use xlink:href="#DejaVuSans-30" transform="translate(83.789062 0)"/>
       <use xlink:href="#DejaVuSans-2e" transform="translate(147.412109 0)"/>
       <use xlink:href="#DejaVuSans-30" transform="translate(179.199219 0)"/>
       <use xlink:href="#DejaVuSans-31" transform="translate(242.822266 0)"/>
       <use xlink:href="#DejaVuSans-30" transform="translate(306.445312 0)"/>
       <use xlink:href="#DejaVuSans-30" transform="translate(370.068359 0)"/>
      </g>
     </g>
    </g>
    <g id="ytick_2">
     <g id="line2d_8">
      <g>
       <use xlink:href="#mb32c1ff9c5" x="57.6" y="274.447582" style="stroke: #000000; stroke-width: 0.8"/>
      </g>
     </g>
     <g id="text_8">
      <!-- −0.0075 -->
      <g transform="translate(7.229687 278.246801) scale(0.1 -0.1)">
       <defs>
        <path id="DejaVuSans-37" d="M 525 4666 
L 3525 4666 
L 3525 4397 
L 1831 0 
L 1172 0 
L 2766 4134 
L 525 4134 
L 525 4666 
z
" transform="scale(0.015625)"/>
        <path id="DejaVuSans-35" d="M 691 4666 
L 3169 4666 
L 3169 4134 
L 1269 4134 
L 1269 2991 
Q 1406 3038 1543 3061 
Q 1681 3084 1819 3084 
Q 2600 3084 3056 2656 
Q 3513 2228 3513 1497 
Q 3513 744 3044 326 
Q 2575 -91 1722 -91 
Q 1428 -91 1123 -41 
Q 819 9 494 109 
L 494 744 
Q 775 591 1075 516 
Q 1375 441 1709 441 
Q 2250 441 2565 725 
Q 2881 1009 2881 1497 
Q 2881 1984 2565 2268 
Q 2250 2553 1709 2553 
Q 1456 2553 1204 2497 
Q 953 2441 691 2322 
L 691 4666 
z
" transform="scale(0.015625)"/>
       </defs>
       <use xlink:href="#DejaVuSans-2212"/>
       <use xlink:href="#DejaVuSans-30" transform="translate(83.789062 0)"/>
       <use xlink:href="#DejaVuSans-2e" transform="translate(147.412109 0)"/>
       <use xlink:href="#DejaVuSans-30" transform="translate(179.199219 0)"/>
       <use xlink:href="#DejaVuSans-30" transform="translate(242.822266 0)"/>
       <use xlink:href="#DejaVuSans-37" transform="translate(306.445312 0)"/>
       <use xlink:href="#DejaVuSans-35" transform="translate(370.068359 0)"/>
      </g>
     </g>
    </g>
    <g id="ytick_3">
     <g id="line2d_9">
      <g>
       <use xlink:href="#mb32c1ff9c5" x="57.6" y="244.469067" style="stroke: #000000; stroke-width: 0.8"/>
      </g>
     </g>
     <g id="text_9">
      <!-- −0.0050 -->
      <g transform="translate(7.229687 248.268286) scale(0.1 -0.1)">
       <use xlink:href="#DejaVuSans-2212"/>
       <use xlink:href="#DejaVuSans-30" transform="translate(83.789062 0)"/>
       <use xlink:href="#DejaVuSans-2e" transform="translate(147.412109 0)"/>
       <use xlink:href="#DejaVuSans-30" transform="translate(179.199219 0)"/>
       <use xlink:href="#DejaVuSans-30" transform="translate(242.822266 0)"/>
       <use xlink:href="#DejaVuSans-35" transform="translate(306.445312 0)"/>
       <use xlink:href="#DejaVuSans-30" transform="translate(370.068359 0)"/>
      </g>
     </g>
    </g>
    <g id="ytick_4">
     <g id="line2d_10">
      <g>
       <use xlink:href="#mb32c1ff9c5" x="57.6" y="214.490552" style="stroke: #000000; stroke-width: 0.8"/>
      </g>
     </g>
     <g id="text_10">
      <!-- −0.0025 -->
      <g transform="translate(7.229687 218.289771) scale(0.1 -0.1)">
       <use xlink:href="#DejaVuSans-2212"/>
       <use xlink:href="#DejaVuSans-30" transform="translate(83.789062 0)"/>
       <use xlink:href="#DejaVuSans-2e" transform="translate(147.412109 0)"/>
       <use xlink:href="#DejaVuSans-30" transform="translate(179.199219 0)"/>
       <use xlink:href="#DejaVuSans-30" transform="translate(242.822266 0)"/>
       <use xlink:href="#DejaVuSans-32" transform="translate(306.445312 0)"/>
       <use xlink:href="#DejaVuSans-35" transform="translate(370.068359 0)"/>
      </g>
     </g>
    </g>
    <g id="ytick_5">
     <g id="line2d_11">
      <g>
       <use xlink:href="#mb32c1ff9c5" x="57.6" y="184.512037" style="stroke: #000000; stroke-width: 0.8"/>
      </g>
     </g>
     <g id="text_11">
      <!-- 0.0000 -->
      <g transform="translate(15.609375 188.311256) scale(0.1 -0.1)">
       <use xlink:href="#DejaVuSans-30"/>
       <use xlink:href="#DejaVuSans-2e" transform="translate(63.623047 0)"/>
       <use xlink:href="#DejaVuSans-30" transform="translate(95.410156 0)"/>
       <use xlink:href="#DejaVuSans-30" transform="translate(159.033203 0)"/>
       <use xlink:href="#DejaVuSans-30" transform="translate(222.65625 0)"/>
       <use xlink:href="#DejaVuSans-30" transform="translate(286.279297 0)"/>
      </g>
     </g>
    </g>
    <g id="ytick_6">
     <g id="line2d_12">
      <g>
       <use xlink:href="#mb32c1ff9c5" x="57.6" y="154.533522" style="stroke: #000000; stroke-width: 0.8"/>
      </g>
     </g>
     <g id="text_12">
      <!-- 0.0025 -->
      <g transform="translate(15.609375 158.332741) scale(0.1 -0.1)">
       <use xlink:href="#DejaVuSans-30"/>
       <use xlink:href="#DejaVuSans-2e" transform="translate(63.623047 0)"/>
       <use xlink:href="#DejaVuSans-30" transform="translate(95.410156 0)"/>
       <use xlink:href="#DejaVuSans-30" transform="translate(159.033203 0)"/>
       <use xlink:href="#DejaVuSans-32" transform="translate(222.65625 0)"/>
       <use xlink:href="#DejaVuSans-35" transform="translate(286.279297 0)"/>
      </g>
     </g>
    </g>
    <g id="ytick_7">
     <g id="line2d_13">
      <g>
       <use xlink:href="#mb32c1ff9c5" x="57.6" y="124.555007" style="stroke: #000000; stroke-width: 0.8"/>
      </g>
     </g>
     <g id="text_13">
      <!-- 0.0050 -->
      <g transform="translate(15.609375 128.354225) scale(0.1 -0.1)">
       <use xlink:href="#DejaVuSans-30"/>
       <use xlink:href="#DejaVuSans-2e" transform="translate(63.623047 0)"/>
       <use xlink:href="#DejaVuSans-30" transform="translate(95.410156 0)"/>
       <use xlink:href="#DejaVuSans-30" transform="translate(159.033203 0)"/>
       <use xlink:href="#DejaVuSans-35" transform="translate(222.65625 0)"/>
       <use xlink:href="#DejaVuSans-30" transform="translate(286.279297 0)"/>
      </g>
     </g>
    </g>
    <g id="ytick_8">
     <g id="line2d_14">
      <g>
       <use xlink:href="#mb32c1ff9c5" x="57.6" y="94.576492" style="stroke: #000000; stroke-width: 0.8"/>
      </g>
     </g>
     <g id="text_14">
      <!-- 0.0075 -->
      <g transform="translate(15.609375 98.37571) scale(0.1 -0.1)">
       <use xlink:href="#DejaVuSans-30"/>
       <use xlink:href="#DejaVuSans-2e" transform="translate(63.623047 0)"/>
       <use xlink:href="#DejaVuSans-30" transform="translate(95.410156 0)"/>
       <use xlink:href="#DejaVuSans-30" transform="translate(159.033203 0)"/>
       <use xlink:href="#DejaVuSans-37" transform="translate(222.65625 0)"/>
       <use xlink:href="#DejaVuSans-35" transform="translate(286.279297 0)"/>
      </g>
     </g>
    </g>
    <g id="ytick_9">
     <g id="line2d_15">
      <g>
       <use xlink:href="#mb32c1ff9c5" x="57.6" y="64.597976" style="stroke: #000000; stroke-width: 0.8"/>
      </g>
     </g>
     <g id="text_15">
      <!-- 0.0100 -->
      <g transform="translate(15.609375 68.397195) scale(0.1 -0.1)">
       <use xlink:href="#DejaVuSans-30"/>
       <use xlink:href="#DejaVuSans-2e" transform="translate(63.623047 0)"/>
       <use xlink:href="#DejaVuSans-30" transform="translate(95.410156 0)"/>
       <use xlink:href="#DejaVuSans-31" transform="translate(159.033203 0)"/>
       <use xlink:href="#DejaVuSans-30" transform="translate(222.65625 0)"/>
       <use xlink:href="#DejaVuSans-30" transform="translate(286.279297 0)"/>
      </g>
     </g>
    </g>
   </g>
   <g id="line2d_16">
    <path d="M 73.832727 185.593802 
L 74.157707 175.928707 
L 74.482686 183.837577 
L 74.807666 173.557293 
L 75.132645 176.378554 
L 75.457625 199.873864 
L 75.782604 204.651909 
L 76.107584 217.36574 
L 76.432563 223.115865 
L 76.757543 234.710172 
L 77.082523 258.713418 
L 77.732482 268.83117 
L 78.057461 277.928389 
L 78.70742 235.525435 
L 79.0324 229.271996 
L 79.682359 194.470945 
L 80.007338 174.51719 
L 80.332318 161.966422 
L 80.657297 168.310771 
L 80.982277 160.795959 
L 81.307256 158.573267 
L 81.632236 183.624228 
L 81.957215 179.30194 
L 82.282195 192.261684 
L 82.607174 184.516419 
L 82.932154 193.737081 
L 83.257133 186.079332 
L 83.582113 170.852812 
L 83.907093 162.70644 
L 84.232072 164.573939 
L 84.557052 162.008745 
L 84.882031 172.968353 
L 85.207011 174.281447 
L 85.53199 169.130618 
L 85.85697 143.171364 
L 86.181949 150.495415 
L 86.506929 165.323227 
L 86.831908 185.675075 
L 87.156888 178.658994 
L 87.481867 181.000007 
L 87.806847 154.375314 
L 88.131826 160.663687 
L 88.781785 212.619452 
L 89.106765 220.269008 
L 89.431744 233.548824 
L 89.756724 235.33819 
L 90.081704 256.554844 
L 90.406683 251.176598 
L 90.731663 267.892722 
L 91.056642 290.680917 
L 91.381622 295.488 
L 91.706601 277.770146 
L 92.35656 286.029637 
L 92.68154 273.017857 
L 93.006519 235.567063 
L 93.331499 226.060122 
L 93.656478 209.863513 
L 93.981458 161.661079 
L 94.306437 156.662852 
L 94.631417 160.591987 
L 95.281376 125.837178 
L 95.606355 121.992758 
L 95.931335 137.30979 
L 96.256314 135.9521 
L 96.581294 144.067865 
L 96.906274 163.336698 
L 97.231253 133.379308 
L 97.556233 160.28272 
L 97.881212 167.441196 
L 98.206192 171.432172 
L 98.531171 173.345045 
L 98.856151 158.247022 
L 99.18113 181.368099 
L 99.50611 172.011005 
L 99.831089 176.131386 
L 100.156069 201.542423 
L 100.481048 167.008164 
L 100.806028 181.50686 
L 101.131007 141.873304 
L 101.455987 118.723457 
L 101.780966 118.976715 
L 102.105946 108.683768 
L 102.430925 105.096972 
L 102.755905 96.391537 
L 103.080885 111.650242 
L 103.405864 151.742736 
L 103.730844 130.032288 
L 104.055823 164.675652 
L 104.705782 213.719981 
L 105.030762 193.203531 
L 105.355741 180.077059 
L 105.680721 181.879094 
L 106.0057 162.045663 
L 106.33068 152.042835 
L 106.655659 163.786951 
L 106.980639 132.093817 
L 107.305618 114.975141 
L 107.630598 124.111557 
L 107.955577 173.12389 
L 108.280557 202.093019 
L 108.605536 183.392394 
L 108.930516 201.931856 
L 109.255495 154.784534 
L 109.580475 145.29693 
L 109.905455 175.469984 
L 110.230434 191.026731 
L 110.555414 171.721078 
L 110.880393 135.812292 
L 111.530352 182.426582 
L 111.855332 175.58702 
L 112.505291 207.553068 
L 112.83027 210.461669 
L 113.480229 191.441848 
L 113.805209 189.744794 
L 114.130188 170.269438 
L 114.455168 163.428309 
L 114.780147 149.724012 
L 115.105127 150.949255 
L 115.430106 137.11859 
L 115.755086 137.792862 
L 116.080066 144.041179 
L 116.405045 152.850975 
L 116.730025 179.909994 
L 117.055004 189.667617 
L 117.379984 179.657533 
L 118.029943 201.34381 
L 118.354922 186.470408 
L 119.329861 158.302148 
L 119.65484 125.211055 
L 119.97982 128.775965 
L 120.304799 153.879256 
L 120.629779 152.013178 
L 120.954758 155.942117 
L 121.279738 180.948005 
L 121.604717 216.369303 
L 121.929697 215.240974 
L 122.579656 268.007052 
L 122.904636 274.201336 
L 123.229615 268.054458 
L 123.554595 243.989591 
L 123.879574 252.207345 
L 124.204554 256.380397 
L 124.529533 222.485547 
L 124.854513 232.956011 
L 125.504472 184.368415 
L 125.829451 162.831982 
L 126.154431 153.915932 
L 126.47941 163.755191 
L 126.80439 151.975753 
L 127.129369 152.375949 
L 127.454349 164.542024 
L 127.779328 155.485263 
L 128.104308 164.295861 
L 128.429287 166.266178 
L 128.754267 163.997875 
L 129.079247 155.36866 
L 129.404226 150.64647 
L 129.729206 151.547516 
L 130.054185 138.644412 
L 130.379165 136.717812 
L 130.704144 154.217393 
L 131.029124 156.336786 
L 131.354103 144.69074 
L 131.679083 152.302931 
L 132.004062 150.373829 
L 132.329042 147.72164 
L 132.654021 154.12967 
L 132.979001 152.593655 
L 133.62896 126.080201 
L 133.953939 128.148465 
L 134.928878 156.623435 
L 135.253857 176.812161 
L 135.578837 187.151253 
L 135.903817 170.031593 
L 136.228796 180.994914 
L 136.553776 187.600521 
L 136.878755 171.541256 
L 137.528714 161.548952 
L 137.853694 191.526464 
L 138.178673 189.247209 
L 138.503653 188.57056 
L 138.828632 209.475171 
L 139.153612 198.044708 
L 139.478591 204.959854 
L 139.803571 226.446709 
L 140.12855 234.541847 
L 140.45353 220.254786 
L 140.778509 181.18899 
L 141.103489 181.582181 
L 141.753448 167.061476 
L 142.078428 171.141868 
L 142.403407 177.060477 
L 142.728387 166.673862 
L 143.053366 171.622183 
L 143.378346 157.793214 
L 143.703325 166.774595 
L 144.028305 180.123018 
L 144.353284 165.426633 
L 144.678264 171.480823 
L 145.003243 182.934026 
L 145.328223 154.517894 
L 145.653202 152.937777 
L 145.978182 127.995827 
L 146.303161 148.541036 
L 146.628141 159.906266 
L 146.95312 161.35405 
L 147.2781 157.439981 
L 147.603079 183.45077 
L 147.928059 171.436554 
L 148.253038 181.301128 
L 148.578018 194.620388 
L 148.902998 199.214721 
L 149.227977 212.346726 
L 149.552957 203.233302 
L 149.877936 185.095615 
L 150.202916 215.9989 
L 150.852875 190.328147 
L 151.177854 202.005627 
L 151.502834 206.525518 
L 151.827813 240.616174 
L 152.152793 258.169851 
L 152.477772 260.825668 
L 152.802752 268.762143 
L 153.127731 260.392549 
L 153.452711 248.228935 
L 153.77769 283.889459 
L 154.752629 243.752655 
L 155.727568 189.637748 
L 156.052547 194.141535 
L 156.377527 191.624814 
L 156.702506 171.330585 
L 157.027486 180.797665 
L 157.352465 176.77595 
L 157.677445 166.279649 
L 158.002424 144.739272 
L 158.327404 138.119275 
L 158.652383 152.541138 
L 158.977363 129.280593 
L 159.302342 124.33848 
L 159.627322 101.967127 
L 159.952301 116.967524 
L 160.277281 122.517459 
L 160.60226 124.544651 
L 160.92724 138.692445 
L 161.252219 139.326222 
L 161.577199 114.993032 
L 161.902179 132.509741 
L 162.227158 133.218916 
L 162.552138 143.664608 
L 162.877117 141.257934 
L 163.202097 155.787171 
L 163.527076 180.395002 
L 163.852056 159.23763 
L 164.177035 173.427216 
L 164.502015 213.393225 
L 164.826994 180.904077 
L 165.151974 168.536746 
L 165.476953 192.203088 
L 165.801933 197.209304 
L 166.126912 195.083853 
L 166.451892 170.217489 
L 166.776871 185.30756 
L 167.101851 188.633245 
L 167.42683 181.176941 
L 167.75181 212.745372 
L 168.07679 228.242592 
L 168.726749 198.124105 
L 169.051728 195.51171 
L 169.376708 184.289303 
L 169.701687 181.193412 
L 170.026667 202.791038 
L 170.351646 178.442185 
L 170.676626 169.033854 
L 171.001605 167.64373 
L 171.326585 171.817551 
L 171.651564 182.594066 
L 171.976544 170.313745 
L 172.301523 167.929336 
L 172.626503 175.483535 
L 172.951482 170.522357 
L 173.276462 156.171857 
L 173.601441 134.762067 
L 173.926421 128.386104 
L 174.2514 133.523138 
L 174.57638 116.333787 
L 175.226339 142.908925 
L 175.551319 131.205041 
L 175.876298 110.720104 
L 176.201278 137.793539 
L 176.526257 190.586158 
L 176.851237 205.41278 
L 177.176216 194.23808 
L 177.501196 174.350858 
L 177.826175 196.026746 
L 178.151155 189.587282 
L 178.476134 204.573643 
L 179.126093 212.621227 
L 179.451073 183.527918 
L 179.776052 194.060788 
L 180.101032 194.544911 
L 180.426011 184.840159 
L 180.750991 150.32637 
L 181.075971 186.190806 
L 181.40095 188.940422 
L 181.72593 186.193596 
L 182.050909 194.536318 
L 182.375889 171.209685 
L 182.700868 168.749683 
L 183.025848 185.447184 
L 183.350827 218.013306 
L 183.675807 230.478074 
L 184.325766 181.847923 
L 184.650745 162.492719 
L 184.975725 164.444757 
L 185.300704 206.454473 
L 185.950663 160.057216 
L 186.275643 150.360468 
L 186.600622 125.868437 
L 186.925602 137.653405 
L 187.575561 180.921027 
L 187.900541 169.99839 
L 188.22552 146.259988 
L 188.5505 169.715249 
L 188.875479 183.420574 
L 189.200459 203.533361 
L 189.850418 222.109276 
L 190.175397 223.553785 
L 190.500377 221.609919 
L 190.825356 204.358682 
L 191.150336 199.354433 
L 191.475315 186.104874 
L 191.800295 181.010984 
L 192.125274 195.812025 
L 192.775233 186.387324 
L 193.100213 169.524586 
L 193.750172 189.660761 
L 194.075152 218.624011 
L 194.400131 210.399259 
L 194.725111 194.217225 
L 195.05009 158.461581 
L 195.37507 177.271533 
L 195.700049 156.306559 
L 196.025029 155.896272 
L 196.350008 127.975497 
L 196.674988 134.964624 
L 196.999967 114.986866 
L 197.324947 147.100823 
L 197.974906 229.056844 
L 198.299885 230.034725 
L 198.949844 206.272835 
L 199.274824 244.93773 
L 199.599803 251.519762 
L 199.924783 235.608737 
L 200.574742 153.998225 
L 200.899722 151.764439 
L 201.549681 162.443579 
L 201.87466 184.59335 
L 202.19964 165.883588 
L 202.524619 165.318982 
L 203.174578 202.994032 
L 203.499558 213.317657 
L 204.149517 140.564446 
L 204.474496 168.513219 
L 204.799476 153.840973 
L 205.124455 147.875592 
L 205.449435 144.614668 
L 205.774414 129.546821 
L 206.099394 127.354536 
L 206.424373 129.608608 
L 206.749353 154.167788 
L 207.074333 162.895099 
L 207.399312 149.656213 
L 207.724292 144.268347 
L 208.049271 161.757061 
L 208.374251 153.491207 
L 208.69923 164.974273 
L 209.02421 186.988266 
L 209.349189 199.011418 
L 209.674169 194.056026 
L 209.999148 200.452916 
L 210.324128 234.44328 
L 210.649107 242.315885 
L 210.974087 220.488421 
L 211.299066 224.021908 
L 211.624046 210.837251 
L 211.949025 166.493912 
L 212.274005 176.38673 
L 212.923964 163.441609 
L 213.248943 131.120706 
L 213.573923 139.633377 
L 213.898903 156.578378 
L 214.223882 148.590173 
L 214.548862 176.419181 
L 214.873841 227.925704 
L 215.5238 174.647588 
L 215.84878 182.904278 
L 216.173759 181.361086 
L 216.498739 170.460795 
L 216.823718 174.735237 
L 217.148698 174.681303 
L 217.798657 140.576153 
L 218.123636 143.025808 
L 218.448616 173.583442 
L 218.773595 183.487002 
L 219.098575 184.190279 
L 219.423554 190.339043 
L 219.748534 186.392096 
L 220.073514 184.388694 
L 220.723473 187.175919 
L 221.048452 186.816844 
L 221.698411 166.264136 
L 222.023391 157.111233 
L 222.34837 157.496821 
L 222.67335 146.402974 
L 223.323309 152.220574 
L 223.973268 163.41278 
L 224.298247 142.213517 
L 224.623227 147.015688 
L 224.948206 146.235709 
L 225.273186 148.922445 
L 225.598165 140.98892 
L 225.923145 150.915541 
L 226.248124 145.00095 
L 226.573104 151.50642 
L 226.898084 160.522535 
L 227.223063 192.061473 
L 227.548043 188.492241 
L 227.873022 194.922939 
L 228.198002 191.116559 
L 228.522981 182.234741 
L 228.847961 199.002552 
L 229.17294 196.521435 
L 229.49792 191.333157 
L 229.822899 205.532969 
L 230.147879 185.187679 
L 230.472858 185.255552 
L 230.797838 191.491135 
L 231.122817 184.753147 
L 231.447797 212.135634 
L 231.772776 143.303352 
L 232.097756 165.176018 
L 232.747715 114.834606 
L 233.397674 147.292436 
L 233.722654 119.366059 
L 234.047633 138.434817 
L 234.372613 123.139909 
L 234.697592 148.416482 
L 235.022572 148.982739 
L 235.672531 164.691009 
L 235.99751 157.365563 
L 236.32249 147.238614 
L 236.647469 179.89682 
L 236.972449 168.725198 
L 237.297428 180.20106 
L 237.622408 217.632331 
L 237.947387 192.721185 
L 238.272367 203.314901 
L 238.597346 171.256477 
L 238.922326 171.136247 
L 239.247305 164.877647 
L 239.897265 198.739279 
L 240.547224 160.465001 
L 240.872203 184.848557 
L 241.197183 179.147935 
L 241.522162 221.826617 
L 241.847142 225.520188 
L 242.172121 243.266276 
L 242.497101 216.152074 
L 242.82208 205.595532 
L 243.472039 238.821769 
L 243.797019 215.943521 
L 244.121998 229.703898 
L 244.771957 239.390842 
L 245.096937 221.29705 
L 245.421916 220.184169 
L 245.746896 221.982271 
L 246.721835 206.84185 
L 247.046814 190.674097 
L 247.371794 185.866539 
L 247.696773 187.070774 
L 248.021753 164.941094 
L 248.346732 164.336763 
L 248.996691 180.023774 
L 249.321671 164.403053 
L 249.64665 161.543959 
L 249.97163 165.140774 
L 250.296609 166.926538 
L 250.621589 164.226845 
L 250.946568 166.260631 
L 251.271548 157.931866 
L 251.921507 130.286294 
L 252.246486 135.631729 
L 252.571466 164.801105 
L 252.896446 156.868478 
L 253.221425 144.937025 
L 253.546405 138.146523 
L 253.871384 157.591415 
L 254.196364 169.975035 
L 254.521343 197.034146 
L 254.846323 236.682269 
L 255.171302 220.143916 
L 255.496282 215.828029 
L 255.821261 243.262824 
L 256.146241 230.80685 
L 256.47122 231.705389 
L 256.7962 245.184033 
L 257.121179 243.374935 
L 257.771138 190.066926 
L 258.096118 233.065216 
L 258.421097 220.360155 
L 258.746077 200.108042 
L 259.071057 196.591378 
L 259.396036 201.75522 
L 259.721016 183.501098 
L 260.045995 175.448051 
L 260.695954 187.754377 
L 261.345913 136.339268 
L 261.995872 134.652791 
L 262.645831 122.356103 
L 262.970811 144.078689 
L 263.29579 142.907388 
L 263.62077 129.50347 
L 263.945749 139.404549 
L 264.270729 171.257602 
L 264.595708 174.436186 
L 264.920688 182.426857 
L 265.245667 177.552041 
L 265.570647 190.897526 
L 265.895627 193.229044 
L 266.220606 192.61236 
L 266.545586 215.647145 
L 267.195545 172.160529 
L 267.520524 159.827917 
L 267.845504 141.566607 
L 268.170483 156.39742 
L 268.495463 145.796668 
L 269.470401 68.802591 
L 269.795381 89.684625 
L 270.12036 77.025014 
L 270.770319 109.774499 
L 271.095299 95.797262 
L 271.745258 148.27369 
L 272.395217 158.736353 
L 272.720197 136.858009 
L 273.045176 154.825425 
L 273.370156 137.123933 
L 273.695135 151.008862 
L 274.020115 157.367772 
L 274.345094 139.330058 
L 274.670074 107.622966 
L 274.995053 111.630547 
L 275.320033 117.411262 
L 275.969992 135.96726 
L 276.294971 131.321433 
L 276.619951 116.407855 
L 276.94493 92.884691 
L 277.26991 89.055862 
L 277.919869 128.06841 
L 278.244848 119.813647 
L 278.894808 123.880907 
L 279.219787 110.691957 
L 279.544767 119.712129 
L 279.869746 144.110598 
L 280.194726 134.672989 
L 280.519705 147.131622 
L 280.844685 167.617702 
L 281.169664 164.672713 
L 281.819623 197.61735 
L 282.144603 204.541816 
L 282.469582 192.373812 
L 282.794562 195.98538 
L 283.119541 220.256077 
L 283.7695 166.810293 
L 284.09448 176.843653 
L 284.419459 159.543575 
L 284.744439 130.416625 
L 285.394398 198.082347 
L 285.719378 195.949436 
L 286.369337 223.300902 
L 286.694316 193.531137 
L 287.019296 192.657393 
L 287.669255 222.818644 
L 287.994234 219.269155 
L 288.319214 195.961461 
L 288.644193 202.092007 
L 288.969173 194.048189 
L 289.294152 189.903134 
L 289.619132 190.748049 
L 289.944111 192.503099 
L 290.269091 212.395175 
L 290.59407 186.839128 
L 290.91905 173.742591 
L 291.244029 170.01486 
L 291.569009 160.536811 
L 291.893989 145.850253 
L 292.218968 153.633665 
L 292.868927 193.872748 
L 293.193907 167.927613 
L 293.518886 214.889292 
L 293.843866 214.274528 
L 294.493825 224.964726 
L 295.468763 270.406518 
L 295.793743 266.404602 
L 296.118722 265.018244 
L 296.443702 210.251663 
L 296.768681 208.27408 
L 297.093661 234.971158 
L 297.41864 238.800641 
L 298.718559 165.306724 
L 299.043538 160.631485 
L 299.368518 185.502913 
L 299.693497 164.86407 
L 300.018477 131.333528 
L 300.343456 138.5445 
L 300.668436 137.689215 
L 300.993415 131.981002 
L 301.318395 142.097384 
L 301.968354 154.203629 
L 302.293333 166.091997 
L 302.618313 201.148722 
L 302.943292 203.475248 
L 303.268272 207.780631 
L 303.593251 237.411205 
L 303.918231 238.121915 
L 304.24321 212.037598 
L 304.56819 200.147017 
L 304.89317 195.644274 
L 305.218149 182.900758 
L 305.543129 177.203264 
L 305.868108 202.189488 
L 306.518067 114.04595 
L 306.843047 118.92071 
L 307.168026 126.026224 
L 307.493006 127.020062 
L 307.817985 140.382358 
L 308.142965 139.785126 
L 308.467944 128.172739 
L 308.792924 98.66377 
L 309.442883 164.745232 
L 309.767862 155.449043 
L 310.092842 196.962384 
L 310.417821 182.804948 
L 310.742801 174.462129 
L 311.067781 176.630755 
L 311.39276 193.421828 
L 311.71774 219.884777 
L 312.042719 199.435816 
L 312.367699 200.404867 
L 312.692678 202.268598 
L 313.017658 169.973345 
L 313.342637 183.106255 
L 313.667617 189.139173 
L 313.992596 188.904155 
L 314.317576 174.740681 
L 314.642555 165.837031 
L 314.967535 185.242081 
L 315.292514 192.886123 
L 315.617494 175.218446 
L 315.942473 202.137838 
L 316.267453 194.427718 
L 316.592432 198.357183 
L 316.917412 187.997265 
L 317.242391 181.504578 
L 317.567371 186.930023 
L 317.892351 188.898656 
L 318.21733 174.835123 
L 318.54231 186.643665 
L 318.867289 163.49556 
L 319.192269 207.517115 
L 319.517248 207.223731 
L 319.842228 238.436069 
L 320.167207 246.175231 
L 320.817166 233.602677 
L 321.142146 231.807875 
L 321.467125 238.55997 
L 321.792105 241.549021 
L 322.117084 200.246355 
L 322.767043 167.866212 
L 323.092023 179.255367 
L 323.417002 195.994428 
L 323.741982 193.062151 
L 324.391941 184.405947 
L 324.716921 179.009073 
L 325.0419 205.767007 
L 325.36688 216.222852 
L 325.691859 209.415262 
L 326.016839 211.050036 
L 326.666798 208.553172 
L 326.991777 214.242788 
L 327.316757 243.161248 
L 327.641736 249.870773 
L 328.291695 226.834271 
L 328.616675 226.642331 
L 328.941654 202.127905 
L 329.266634 192.785459 
L 329.591613 206.255291 
L 329.916593 203.950287 
L 330.241572 162.775929 
L 330.891532 154.599278 
L 331.216511 162.856058 
L 331.541491 156.679619 
L 332.19145 184.360469 
L 332.841409 170.905891 
L 333.166388 202.791632 
L 333.491368 215.80517 
L 333.816347 222.497763 
L 334.141327 215.864368 
L 334.466306 240.072185 
L 334.791286 232.236792 
L 335.441245 186.748613 
L 335.766224 219.628378 
L 336.091204 224.195203 
L 336.741163 183.968392 
L 337.066143 190.281647 
L 337.391122 171.894188 
L 337.716102 177.211734 
L 338.041081 170.385035 
L 338.366061 166.761192 
L 339.01602 138.218197 
L 339.340999 157.120425 
L 339.665979 198.340972 
L 339.990958 195.950244 
L 340.315938 202.936061 
L 340.640917 201.417927 
L 340.965897 220.476646 
L 341.290876 218.856522 
L 341.615856 218.572328 
L 341.940835 212.696621 
L 342.265815 196.888781 
L 342.590794 187.610469 
L 342.915774 201.384532 
L 343.240753 180.058715 
L 343.565733 191.764773 
L 343.890713 186.908353 
L 344.215692 184.569815 
L 344.540672 160.031487 
L 344.865651 147.628697 
L 345.190631 167.481043 
L 345.51561 154.497402 
L 345.84059 123.731563 
L 346.165569 147.216801 
L 346.490549 140.774475 
L 346.815528 119.741326 
L 347.140508 153.945932 
L 347.465487 152.54542 
L 347.790467 185.114289 
L 348.115446 182.853195 
L 348.440426 201.162391 
L 348.765405 227.162233 
L 349.090385 211.482807 
L 349.415364 207.298113 
L 349.740344 232.049031 
L 350.065324 242.951443 
L 350.390303 283.549719 
L 350.715283 264.161029 
L 351.040262 256.955037 
L 351.365242 222.452936 
L 351.690221 203.186183 
L 352.015201 215.057394 
L 352.66516 194.930498 
L 353.315119 161.423743 
L 353.640098 170.976758 
L 353.965078 157.24264 
L 354.290057 174.679013 
L 354.615037 200.486217 
L 354.940016 189.214034 
L 355.264996 152.056729 
L 356.239934 100.815233 
L 356.564914 98.418154 
L 357.214873 62.999083 
L 357.539853 53.568 
L 357.864832 74.808014 
L 358.514791 146.672861 
L 358.839771 124.150703 
L 359.48973 148.861133 
L 359.814709 190.253993 
L 360.139689 196.898601 
L 360.464668 219.749333 
L 360.789648 225.030671 
L 361.114627 212.642583 
L 361.439607 214.900675 
L 361.764586 260.383418 
L 362.414545 242.882011 
L 362.739525 218.064263 
L 363.064505 222.256262 
L 363.389484 197.02934 
L 363.714464 195.882647 
L 364.039443 226.849336 
L 364.364423 223.667612 
L 364.689402 203.009358 
L 365.014382 228.976516 
L 365.339361 208.424823 
L 365.664341 210.269103 
L 365.98932 205.760347 
L 366.3143 198.615333 
L 366.639279 184.601553 
L 366.964259 154.363882 
L 367.289238 147.234885 
L 367.614218 149.073241 
L 367.939197 128.857051 
L 368.264177 128.374536 
L 368.589156 146.53693 
L 368.914136 147.596477 
L 369.239115 161.003158 
L 369.564095 157.732718 
L 369.889075 184.600096 
L 370.214054 176.667678 
L 370.539034 173.868713 
L 370.864013 164.203261 
L 371.188993 200.227287 
L 371.513972 196.481824 
L 371.838952 202.553649 
L 372.163931 191.502209 
L 372.488911 173.694531 
L 372.81389 169.997226 
L 373.13887 185.92161 
L 373.463849 186.928856 
L 373.788829 215.369404 
L 374.113808 183.787043 
L 374.438788 168.03201 
L 374.763767 173.427638 
L 375.088747 186.085244 
L 375.413726 208.329915 
L 375.738706 210.310402 
L 376.063686 203.21802 
L 376.388665 203.720902 
L 376.713645 194.642031 
L 377.038624 210.382183 
L 377.363604 238.467708 
L 377.688583 230.368464 
L 378.013563 238.555893 
L 378.663522 226.621154 
L 378.988501 213.374607 
L 379.313481 214.239618 
L 379.63846 219.153029 
L 379.96344 212.198414 
L 380.613399 187.496949 
L 380.938378 149.817641 
L 381.263358 136.275427 
L 381.588337 110.405579 
L 381.913317 110.132423 
L 382.238296 104.00291 
L 382.563276 105.880876 
L 382.888256 117.649408 
L 383.213235 89.488174 
L 383.538215 101.128085 
L 383.863194 124.87932 
L 384.513153 202.829729 
L 384.838133 226.966004 
L 385.163112 226.205663 
L 385.488092 220.757323 
L 385.813071 196.343529 
L 386.46303 253.084097 
L 386.78801 257.430338 
L 387.112989 241.563507 
L 387.437969 237.476247 
L 387.762948 221.878442 
L 388.412907 240.349841 
L 388.737887 257.933369 
L 389.062867 242.001901 
L 389.712826 205.175129 
L 390.037805 194.913648 
L 390.362785 192.36157 
L 391.012744 209.813816 
L 391.337723 205.41985 
L 391.662703 189.032808 
L 391.987682 206.908247 
L 392.312662 196.057003 
L 392.637641 199.486051 
L 392.962621 196.876613 
L 393.2876 198.374837 
L 393.61258 190.324821 
L 393.937559 168.945203 
L 394.262539 175.848672 
L 394.587518 194.071244 
L 394.912498 186.116126 
L 395.237477 195.925295 
L 395.562457 217.780006 
L 395.887437 213.792558 
L 396.212416 202.697176 
L 396.537396 197.389954 
L 396.862375 205.104359 
L 397.187355 187.578794 
L 397.512334 187.731786 
L 397.837314 219.588988 
L 398.162293 227.974254 
L 398.487273 223.209946 
L 398.487273 223.209946 
" clip-path="url(#p32fe03f5a3)" style="fill: none; stroke: #1f77b4; stroke-width: 1.5; stroke-linecap: square"/>
   </g>
   <g id="patch_3">
    <path d="M 57.6 307.584 
L 57.6 41.472 
" style="fill: none; stroke: #000000; stroke-width: 0.8; stroke-linejoin: miter; stroke-linecap: square"/>
   </g>
   <g id="patch_4">
    <path d="M 414.72 307.584 
L 414.72 41.472 
" style="fill: none; stroke: #000000; stroke-width: 0.8; stroke-linejoin: miter; stroke-linecap: square"/>
   </g>
   <g id="patch_5">
    <path d="M 57.6 307.584 
L 414.72 307.584 
" style="fill: none; stroke: #000000; stroke-width: 0.8; stroke-linejoin: miter; stroke-linecap: square"/>
   </g>
   <g id="patch_6">
    <path d="M 57.6 41.472 
L 414.72 41.472 
" style="fill: none; stroke: #000000; stroke-width: 0.8; stroke-linejoin: miter; stroke-linecap: square"/>
   </g>
  </g>
 </g>
 <defs>
  <clipPath id="p32fe03f5a3">
   <rect x="57.6" y="41.472" width="357.12" height="266.112"/>
  </clipPath>
 </defs>
</svg>
