<?xml version="1.0" encoding="utf-8" standalone="no"?>
<!DOCTYPE svg PUBLIC "-//W3C//DTD SVG 1.1//EN"
  "http://www.w3.org/Graphics/SVG/1.1/DTD/svg11.dtd">
<svg xmlns:xlink="http://www.w3.org/1999/xlink" width="460.8pt" height="345.6pt" viewBox="0 0 460.8 345.6" xmlns="http://www.w3.org/2000/svg" version="1.1">
 <metadata>
  <rdf:RDF xmlns:dc="http://purl.org/dc/elements/1.1/" xmlns:cc="http://creativecommons.org/ns#" xmlns:rdf="http://www.w3.org/1999/02/22-rdf-syntax-ns#">
   <cc:Work>
    <dc:type rdf:resource="http://purl.org/dc/dcmitype/StillImage"/>
    <dc:date>2026-01-28T21:19:05.463795</dc:date>
    <dc:format>image/svg+xml</dc:format>
    <dc:creator>
     <cc:Agent>
      <dc:title>Matplotlib v3.10.8, https://matplotlib.org/</dc:title>
     </cc:Agent>
    </dc:creator>
   </cc:Work>
  </rdf:RDF>
 </metadata>
 <defs>
  <style type="text/css">*{stroke-linejoin: round; stroke-linecap: butt}</style>
 </defs>
 <g id="figure_1">
  <g id="patch_1">
   <path d="M 0 345.6 
L 460.8 345.6 
L 460.8 0 
L 0 0 
z
" style="fill: #ffffff"/>
  </g>
  <g id="axes_1">
   <g id="patch_2">
    <path d="M 113.5775 266.245 
L 410.94 266.245 
L 410.94 30.392274 
L 113.5775 30.392274 
z
" style="fill: #ffffff"/>
   </g>
   <g id="matplotlib.axis_1">
    <g id="xtick_1">
     <g id="line2d_1">
      <path d="M 113.5775 266.245 
L 113.5775 30.392274 
" clip-path="url(#pb43927f26a)" style="fill: none; stroke: #b0b0b0; stroke-width: 0.8; stroke-linecap: square"/>
     </g>
     <g id="line2d_2">
      <defs>
       <path id="m44d029ce1d" d="M 0 0 
L 0 3.5 
" style="stroke: #000000; stroke-width: 0.8"/>
      </defs>
      <g>
       <use xlink:href="#m44d029ce1d" x="113.5775" y="266.245" style="stroke: #000000; stroke-width: 0.8"/>
      </g>
     </g>
     <g id="text_1">
      <!-- 0 -->
      <g transform="translate(107.5775 289.63625) scale(0.24 -0.24)">
       <defs>
        <path id="TeXGyreTermes-Regular-30" d="M 3046 2112 
C 3046 3424 2464 4326 1626 4326 
C 1274 4326 1005 4218 768 3994 
C 397 3635 154 2899 154 2150 
C 154 1453 365 704 666 346 
C 902 64 1229 -90 1600 -90 
C 1926 -90 2202 19 2432 243 
C 2803 595 3046 1338 3046 2112 
z
M 2432 2099 
C 2432 762 2150 77 1600 77 
C 1050 77 768 762 768 2093 
C 768 3450 1056 4160 1606 4160 
C 2144 4160 2432 3437 2432 2099 
z
" transform="scale(0.015625)"/>
       </defs>
       <use xlink:href="#TeXGyreTermes-Regular-30"/>
      </g>
     </g>
    </g>
    <g id="xtick_2">
     <g id="line2d_3">
      <path d="M 187.918125 266.245 
L 187.918125 30.392274 
" clip-path="url(#pb43927f26a)" style="fill: none; stroke: #b0b0b0; stroke-width: 0.8; stroke-linecap: square"/>
     </g>
     <g id="line2d_4">
      <g>
       <use xlink:href="#m44d029ce1d" x="187.918125" y="266.245" style="stroke: #000000; stroke-width: 0.8"/>
      </g>
     </g>
     <g id="text_2">
      <!-- 250 -->
      <g transform="translate(169.918125 289.63625) scale(0.24 -0.24)">
       <defs>
        <path id="TeXGyreTermes-Regular-32" d="M 3040 877 
L 2957 909 
C 2720 544 2637 486 2349 486 
L 819 486 
L 1894 1613 
C 2464 2208 2714 2694 2714 3194 
C 2714 3834 2195 4326 1530 4326 
C 1178 4326 845 4186 608 3930 
C 403 3712 307 3507 198 3053 
L 333 3021 
C 589 3648 819 3853 1261 3853 
C 1798 3853 2163 3488 2163 2950 
C 2163 2451 1869 1856 1331 1286 
L 192 77 
L 192 0 
L 2688 0 
L 3040 877 
z
" transform="scale(0.015625)"/>
        <path id="TeXGyreTermes-Regular-35" d="M 2803 4358 
L 2746 4403 
C 2650 4269 2586 4237 2451 4237 
L 1114 4237 
L 416 2720 
C 410 2707 410 2688 410 2688 
C 410 2656 435 2637 486 2637 
C 691 2637 947 2592 1210 2509 
C 1946 2272 2285 1875 2285 1242 
C 2285 627 1894 147 1395 147 
C 1267 147 1158 192 966 333 
C 762 480 614 544 480 544 
C 294 544 205 467 205 307 
C 205 64 506 -90 986 -90 
C 1523 -90 1984 83 2304 410 
C 2598 698 2733 1062 2733 1549 
C 2733 2010 2611 2304 2291 2624 
C 2010 2906 1645 3053 890 3187 
L 1158 3731 
L 2413 3731 
C 2515 3731 2541 3744 2560 3789 
L 2803 4358 
z
" transform="scale(0.015625)"/>
       </defs>
       <use xlink:href="#TeXGyreTermes-Regular-32"/>
       <use xlink:href="#TeXGyreTermes-Regular-35" transform="translate(49.999985 0)"/>
       <use xlink:href="#TeXGyreTermes-Regular-30" transform="translate(99.999969 0)"/>
      </g>
     </g>
    </g>
    <g id="xtick_3">
     <g id="line2d_5">
      <path d="M 262.25875 266.245 
L 262.25875 30.392274 
" clip-path="url(#pb43927f26a)" style="fill: none; stroke: #b0b0b0; stroke-width: 0.8; stroke-linecap: square"/>
     </g>
     <g id="line2d_6">
      <g>
       <use xlink:href="#m44d029ce1d" x="262.25875" y="266.245" style="stroke: #000000; stroke-width: 0.8"/>
      </g>
     </g>
     <g id="text_3">
      <!-- 500 -->
      <g transform="translate(244.25875 289.63625) scale(0.24 -0.24)">
       <use xlink:href="#TeXGyreTermes-Regular-35"/>
       <use xlink:href="#TeXGyreTermes-Regular-30" transform="translate(49.999985 0)"/>
       <use xlink:href="#TeXGyreTermes-Regular-30" transform="translate(99.999969 0)"/>
      </g>
     </g>
    </g>
    <g id="xtick_4">
     <g id="line2d_7">
      <path d="M 336.599375 266.245 
L 336.599375 30.392274 
" clip-path="url(#pb43927f26a)" style="fill: none; stroke: #b0b0b0; stroke-width: 0.8; stroke-linecap: square"/>
     </g>
     <g id="line2d_8">
      <g>
       <use xlink:href="#m44d029ce1d" x="336.599375" y="266.245" style="stroke: #000000; stroke-width: 0.8"/>
      </g>
     </g>
     <g id="text_4">
      <!-- 750 -->
      <g transform="translate(318.599375 289.63625) scale(0.24 -0.24)">
       <defs>
        <path id="TeXGyreTermes-Regular-37" d="M 2874 4134 
L 2874 4237 
L 506 4237 
L 128 3296 
L 237 3245 
C 512 3680 627 3763 979 3763 
L 2368 3763 
L 1101 -51 
L 1517 -51 
L 2874 4134 
z
" transform="scale(0.015625)"/>
       </defs>
       <use xlink:href="#TeXGyreTermes-Regular-37"/>
       <use xlink:href="#TeXGyreTermes-Regular-35" transform="translate(49.999985 0)"/>
       <use xlink:href="#TeXGyreTermes-Regular-30" transform="translate(99.999969 0)"/>
      </g>
     </g>
    </g>
    <g id="xtick_5">
     <g id="line2d_9">
      <path d="M 410.94 266.245 
L 410.94 30.392274 
" clip-path="url(#pb43927f26a)" style="fill: none; stroke: #b0b0b0; stroke-width: 0.8; stroke-linecap: square"/>
     </g>
     <g id="line2d_10">
      <g>
       <use xlink:href="#m44d029ce1d" x="410.94" y="266.245" style="stroke: #000000; stroke-width: 0.8"/>
      </g>
     </g>
     <g id="text_5">
      <!-- 1000 -->
      <g transform="translate(386.94 289.63625) scale(0.24 -0.24)">
       <defs>
        <path id="TeXGyreTermes-Regular-31" d="M 2522 0 
L 2522 96 
C 2016 102 1914 166 1914 474 
L 1914 4314 
L 1862 4326 
L 710 3744 
L 710 3654 
C 787 3686 858 3712 883 3725 
C 998 3770 1107 3795 1171 3795 
C 1306 3795 1363 3699 1363 3494 
L 1363 595 
C 1363 384 1312 237 1210 179 
C 1114 122 1024 102 755 96 
L 755 0 
L 2522 0 
z
" transform="scale(0.015625)"/>
       </defs>
       <use xlink:href="#TeXGyreTermes-Regular-31"/>
       <use xlink:href="#TeXGyreTermes-Regular-30" transform="translate(49.999985 0)"/>
       <use xlink:href="#TeXGyreTermes-Regular-30" transform="translate(99.999969 0)"/>
       <use xlink:href="#TeXGyreTermes-Regular-30" transform="translate(149.999954 0)"/>
      </g>
     </g>
    </g>
    <g id="text_6">
     <!-- Schritt k -->
     <g transform="translate(221.25625 315.23625) scale(0.24 -0.24)">
      <defs>
       <path id="TeXGyreTermes-Regular-53" d="M 3142 1075 
C 3142 1606 2790 2016 1946 2477 
C 1274 2842 1005 3123 1005 3475 
C 1005 3827 1274 4064 1670 4064 
C 1958 4064 2227 3942 2451 3712 
C 2650 3507 2739 3341 2842 2963 
L 3002 2963 
L 2861 4326 
L 2726 4326 
C 2701 4186 2630 4109 2522 4109 
C 2458 4109 2355 4134 2240 4186 
C 2003 4275 1773 4326 1549 4326 
C 1299 4326 1030 4224 826 4058 
C 576 3853 454 3578 454 3226 
C 454 2720 736 2362 1453 1984 
C 1914 1734 2246 1478 2406 1235 
C 2464 1146 2496 1018 2496 858 
C 2496 435 2176 141 1709 141 
C 1133 141 736 493 416 1274 
L 269 1274 
L 461 -83 
L 602 -83 
C 608 38 685 128 781 128 
C 851 128 960 102 1082 58 
C 1325 -38 1581 -90 1837 -90 
C 2579 -90 3142 416 3142 1075 
z
" transform="scale(0.015625)"/>
       <path id="TeXGyreTermes-Regular-63" d="M 2637 941 
L 2547 998 
C 2240 550 2010 397 1645 397 
C 1056 397 653 909 653 1645 
C 653 2310 1005 2758 1523 2758 
C 1754 2758 1837 2688 1901 2451 
L 1939 2310 
C 1990 2125 2106 2016 2246 2016 
C 2413 2016 2547 2138 2547 2285 
C 2547 2643 2099 2944 1562 2944 
C 1261 2944 954 2829 698 2618 
C 352 2330 160 1888 160 1357 
C 160 531 666 -64 1376 -64 
C 1651 -64 1894 26 2112 205 
C 2304 358 2432 544 2637 941 
z
" transform="scale(0.015625)"/>
       <path id="TeXGyreTermes-Regular-68" d="M 3117 0 
L 3117 96 
C 2771 160 2733 211 2733 653 
L 2733 1926 
C 2733 2598 2464 2944 1946 2944 
C 1568 2944 1299 2790 1005 2406 
L 1005 4352 
L 973 4371 
C 755 4294 595 4243 237 4141 
L 64 4090 
L 64 3987 
C 90 3994 109 3994 141 3994 
C 416 3994 467 3942 467 3667 
L 467 653 
C 467 205 429 147 58 96 
L 58 0 
L 1440 0 
L 1440 96 
C 1069 134 1005 211 1005 653 
L 1005 2195 
C 1274 2490 1466 2598 1715 2598 
C 2035 2598 2195 2368 2195 1920 
L 2195 653 
C 2195 218 2131 134 1760 96 
L 1760 0 
L 3117 0 
z
" transform="scale(0.015625)"/>
       <path id="TeXGyreTermes-Regular-72" d="M 2144 2605 
C 2144 2816 2010 2944 1792 2944 
C 1523 2944 1338 2797 1024 2342 
L 1024 2931 
L 992 2944 
C 653 2803 422 2720 45 2598 
L 45 2496 
C 134 2515 192 2522 269 2522 
C 429 2522 486 2419 486 2138 
L 486 538 
C 486 218 442 173 32 96 
L 32 0 
L 1568 0 
L 1568 96 
C 1133 115 1024 211 1024 576 
L 1024 2016 
C 1024 2221 1299 2541 1472 2541 
C 1510 2541 1568 2509 1638 2445 
C 1741 2355 1811 2317 1894 2317 
C 2048 2317 2144 2426 2144 2605 
z
" transform="scale(0.015625)"/>
       <path id="TeXGyreTermes-Regular-69" d="M 1619 0 
L 1619 96 
C 1197 128 1146 192 1146 653 
L 1146 2925 
L 1120 2944 
L 128 2592 
L 128 2496 
L 179 2502 
C 256 2515 339 2522 397 2522 
C 550 2522 608 2419 608 2138 
L 608 653 
C 608 192 544 122 102 96 
L 102 0 
L 1619 0 
z
M 1203 3776 
C 1203 3955 1062 4102 877 4102 
C 698 4102 550 3955 550 3776 
C 550 3590 698 3450 877 3450 
C 1062 3450 1203 3590 1203 3776 
z
" transform="scale(0.015625)"/>
       <path id="TeXGyreTermes-Regular-74" d="M 1786 422 
L 1702 493 
C 1562 326 1459 269 1318 269 
C 1082 269 986 435 986 845 
L 986 2675 
L 1632 2675 
L 1632 2880 
L 986 2880 
L 986 3622 
C 986 3686 973 3706 941 3706 
C 902 3642 858 3584 813 3526 
C 576 3174 358 2938 192 2842 
C 122 2797 83 2758 83 2720 
C 83 2701 90 2688 109 2675 
L 448 2675 
L 448 749 
C 448 211 640 -64 1011 -64 
C 1331 -64 1574 90 1786 422 
z
" transform="scale(0.015625)"/>
       <path id="TeXGyreTermes-Regular-20" transform="scale(0.015625)"/>
       <path id="TeXGyreTermes-Regular-6b" d="M 3232 0 
L 3232 96 
C 2950 115 2752 237 2483 563 
L 1504 1805 
L 1690 1978 
C 2144 2400 2541 2694 2726 2746 
C 2822 2771 2912 2784 3021 2784 
L 3072 2784 
L 3072 2880 
L 1766 2880 
L 1766 2790 
C 2016 2784 2086 2758 2086 2669 
C 2086 2618 2029 2528 1939 2451 
L 1062 1670 
L 1062 4358 
L 1037 4371 
L 237 4141 
L 45 4090 
L 45 3987 
C 128 3994 186 4000 250 4000 
C 461 4000 525 3917 525 3610 
L 525 525 
C 525 192 506 173 45 96 
L 45 0 
L 1542 0 
L 1542 96 
L 1414 102 
C 1158 115 1062 205 1062 429 
L 1062 1606 
L 1958 410 
L 1978 384 
C 1990 365 2003 346 2022 326 
C 2074 262 2093 224 2093 192 
C 2093 134 2035 96 1958 96 
L 1837 96 
L 1837 0 
L 3232 0 
z
" transform="scale(0.015625)"/>
      </defs>
      <use xlink:href="#TeXGyreTermes-Regular-53"/>
      <use xlink:href="#TeXGyreTermes-Regular-63" transform="translate(55.599991 0)"/>
      <use xlink:href="#TeXGyreTermes-Regular-68" transform="translate(99.999985 0)"/>
      <use xlink:href="#TeXGyreTermes-Regular-72" transform="translate(149.999969 0)"/>
      <use xlink:href="#TeXGyreTermes-Regular-69" transform="translate(183.299957 0)"/>
      <use xlink:href="#TeXGyreTermes-Regular-74" transform="translate(211.099945 0)"/>
      <use xlink:href="#TeXGyreTermes-Regular-74" transform="translate(238.899933 0)"/>
      <use xlink:href="#TeXGyreTermes-Regular-20" transform="translate(266.699921 0)"/>
      <use xlink:href="#TeXGyreTermes-Regular-6b" transform="translate(291.699905 0)"/>
     </g>
    </g>
   </g>
   <g id="matplotlib.axis_2">
    <g id="ytick_1">
     <g id="line2d_11">
      <path d="M 113.5775 181.443274 
L 410.94 181.443274 
" clip-path="url(#pb43927f26a)" style="fill: none; stroke: #b0b0b0; stroke-width: 0.8; stroke-linecap: square"/>
     </g>
     <g id="line2d_12">
      <defs>
       <path id="me49ce264b3" d="M 0 0 
L -3.5 0 
" style="stroke: #000000; stroke-width: 0.8"/>
      </defs>
      <g>
       <use xlink:href="#me49ce264b3" x="113.5775" y="181.443274" style="stroke: #000000; stroke-width: 0.8"/>
      </g>
     </g>
     <g id="text_7">
      <!-- 0.00 -->
      <g transform="translate(64.5775 189.638899) scale(0.24 -0.24)">
       <defs>
        <path id="TeXGyreTermes-Regular-2e" d="M 1158 275 
C 1158 474 992 640 800 640 
C 608 640 448 474 448 275 
C 448 90 608 -70 794 -70 
C 992 -70 1158 90 1158 275 
z
" transform="scale(0.015625)"/>
       </defs>
       <use xlink:href="#TeXGyreTermes-Regular-30"/>
       <use xlink:href="#TeXGyreTermes-Regular-2e" transform="translate(49.999985 0)"/>
       <use xlink:href="#TeXGyreTermes-Regular-30" transform="translate(74.999969 0)"/>
       <use xlink:href="#TeXGyreTermes-Regular-30" transform="translate(124.999954 0)"/>
      </g>
     </g>
    </g>
    <g id="ytick_2">
     <g id="line2d_13">
      <path d="M 113.5775 82.879441 
L 410.94 82.879441 
" clip-path="url(#pb43927f26a)" style="fill: none; stroke: #b0b0b0; stroke-width: 0.8; stroke-linecap: square"/>
     </g>
     <g id="line2d_14">
      <g>
       <use xlink:href="#me49ce264b3" x="113.5775" y="82.879441" style="stroke: #000000; stroke-width: 0.8"/>
      </g>
     </g>
     <g id="text_8">
      <!-- 0.02 -->
      <g transform="translate(64.5775 91.075066) scale(0.24 -0.24)">
       <use xlink:href="#TeXGyreTermes-Regular-30"/>
       <use xlink:href="#TeXGyreTermes-Regular-2e" transform="translate(49.999985 0)"/>
       <use xlink:href="#TeXGyreTermes-Regular-30" transform="translate(74.999969 0)"/>
       <use xlink:href="#TeXGyreTermes-Regular-32" transform="translate(124.999954 0)"/>
      </g>
     </g>
    </g>
    <g id="text_9">
     <!-- x(k) -->
     <g transform="translate(55.36875 168.309887) rotate(-90) scale(0.24 -0.24)">
      <defs>
       <path id="TeXGyreTermes-Regular-78" d="M 3066 0 
L 3066 96 
C 2867 96 2739 198 2541 480 
L 1722 1734 
L 2253 2502 
C 2374 2675 2566 2778 2771 2784 
L 2771 2880 
L 1760 2880 
L 1760 2784 
C 1952 2771 2016 2733 2016 2643 
C 2016 2566 1939 2426 1779 2227 
C 1747 2189 1670 2074 1587 1946 
L 1498 2074 
C 1318 2342 1203 2560 1203 2643 
C 1203 2733 1286 2778 1478 2784 
L 1478 2880 
L 154 2880 
L 154 2784 
L 211 2784 
C 403 2784 506 2701 704 2400 
L 1306 1478 
L 576 422 
C 384 160 320 115 109 96 
L 109 0 
L 1037 0 
L 1037 96 
C 858 96 781 128 781 211 
C 781 250 826 346 909 474 
L 1414 1261 
L 1997 365 
C 2022 326 2035 288 2035 250 
C 2035 134 1990 109 1779 96 
L 1779 0 
L 3066 0 
z
" transform="scale(0.015625)"/>
       <path id="TeXGyreTermes-Regular-28" d="M 1946 -1030 
C 1434 -627 1254 -403 1082 77 
C 928 506 858 992 858 1632 
C 858 2304 941 2829 1114 3226 
C 1293 3622 1485 3853 1946 4224 
L 1888 4326 
C 1414 4019 1222 3853 986 3558 
C 531 3002 307 2362 307 1613 
C 307 800 544 173 1107 -480 
C 1370 -787 1536 -928 1869 -1133 
L 1946 -1030 
z
" transform="scale(0.015625)"/>
       <path id="TeXGyreTermes-Regular-29" d="M 1824 1581 
C 1824 2400 1587 3021 1024 3674 
C 762 3981 595 4122 262 4326 
L 186 4224 
C 698 3821 870 3597 1050 3117 
C 1203 2688 1274 2202 1274 1562 
C 1274 896 1190 365 1018 -26 
C 838 -429 646 -659 186 -1030 
L 243 -1133 
C 717 -826 909 -659 1146 -365 
C 1600 192 1824 832 1824 1581 
z
" transform="scale(0.015625)"/>
      </defs>
      <use xlink:href="#TeXGyreTermes-Regular-78"/>
      <use xlink:href="#TeXGyreTermes-Regular-28" transform="translate(49.999985 0)"/>
      <use xlink:href="#TeXGyreTermes-Regular-6b" transform="translate(83.299973 0)"/>
      <use xlink:href="#TeXGyreTermes-Regular-29" transform="translate(133.299957 0)"/>
     </g>
    </g>
   </g>
   <g id="line2d_15">
    <path d="M 113.5775 181.887855 
L 113.874863 177.915723 
L 114.172225 181.166087 
L 114.469588 176.941127 
L 114.76695 178.1006 
L 115.064313 187.756631 
L 115.361675 189.720298 
L 115.659038 194.94539 
L 115.9564 197.308558 
L 116.848488 213.514444 
L 117.14585 211.594348 
L 117.443213 216.492568 
L 117.740575 218.346025 
L 118.037938 210.685629 
L 118.3353 213.340701 
L 118.930025 206.611014 
L 119.227388 204.30313 
L 119.52475 204.248716 
L 119.822113 204.936001 
L 120.119475 206.745807 
L 120.416838 207.685788 
L 120.7142 210.32076 
L 121.011563 211.199471 
L 121.308925 212.613026 
L 121.606288 206.612815 
L 121.90365 208.09441 
L 122.201013 204.892838 
L 122.498375 199.322374 
L 122.795738 197.784209 
L 123.390463 201.072425 
L 123.687825 206.455283 
L 123.985188 208.408489 
L 124.579913 191.104346 
L 124.877275 190.91279 
L 125.174638 191.436215 
L 125.472 198.262191 
L 125.769363 197.086224 
L 126.066725 199.629061 
L 126.364088 194.069784 
L 126.66145 198.607367 
L 126.958813 201.130092 
L 127.256175 202.655846 
L 127.553538 205.608081 
L 128.148263 219.150568 
L 128.445625 226.694158 
L 128.742988 227.02666 
L 129.04035 228.337325 
L 129.337713 242.24033 
L 129.635075 246.738657 
L 129.932438 240.982781 
L 130.2298 245.538697 
L 130.527163 253.3106 
L 130.824525 255.524422 
L 131.121888 247.676598 
L 131.41925 244.101966 
L 132.013975 232.849113 
L 132.311338 235.293283 
L 132.906063 227.67539 
L 133.203425 229.196584 
L 133.500788 229.830438 
L 133.79815 228.277561 
L 134.095513 224.144951 
L 134.392875 222.134574 
L 134.690238 224.146537 
L 134.9876 214.278909 
L 135.284963 221.1945 
L 135.582325 220.659668 
L 135.879688 223.821061 
L 136.17705 225.241061 
L 136.474413 217.483246 
L 136.771775 222.852865 
L 137.069138 216.996938 
L 137.3665 220.702282 
L 137.663863 221.278006 
L 137.961225 214.000812 
L 138.258588 219.42461 
L 138.55595 206.297524 
L 139.150675 190.549738 
L 139.448037 191.689193 
L 139.7454 184.359176 
L 140.042763 184.486786 
L 140.637488 200.533384 
L 140.93485 197.034688 
L 141.529575 199.023641 
L 141.826938 202.55353 
L 142.1243 195.261197 
L 142.421663 182.536502 
L 142.719025 183.404708 
L 143.016388 181.655744 
L 143.31375 190.716841 
L 143.611113 188.794342 
L 144.205838 173.788253 
L 144.5032 171.416967 
L 144.800563 182.303908 
L 145.097925 176.259766 
L 145.395288 167.079276 
L 145.69265 168.184611 
L 145.990013 148.004463 
L 146.287375 140.32948 
L 146.584738 142.735397 
L 146.8821 138.073674 
L 147.179462 135.570784 
L 148.368913 160.423752 
L 148.666275 155.475499 
L 148.963638 159.064541 
L 149.261 160.058445 
L 150.153088 143.839515 
L 150.45045 142.426708 
L 150.747813 142.252808 
L 151.045175 146.124875 
L 151.342538 137.890688 
L 151.6399 138.942804 
L 151.937263 146.471567 
L 152.234625 146.554368 
L 152.531988 144.261145 
L 152.82935 151.196516 
L 153.126712 149.28972 
L 153.424075 144.462256 
L 153.721438 155.488942 
L 154.0188 161.798223 
L 154.316163 153.727697 
L 154.613525 151.555397 
L 154.910888 138.86926 
L 155.20825 135.89495 
L 155.505613 128.268542 
L 155.802975 138.768978 
L 156.100338 141.674011 
L 156.3977 141.293974 
L 156.695063 138.505144 
L 156.992425 137.567671 
L 157.289788 144.49501 
L 157.58715 130.609767 
L 157.884513 129.079438 
L 158.479238 141.361673 
L 159.073962 120.129314 
L 159.371325 127.999422 
L 159.668688 127.173295 
L 159.96605 118.379853 
L 160.263413 114.145271 
L 160.858137 118.05114 
L 161.1555 122.032797 
L 161.452863 129.191981 
L 161.750225 123.044102 
L 162.047588 124.458348 
L 162.34495 131.82941 
L 162.642313 134.286653 
L 162.939675 127.909919 
L 163.237038 127.262524 
L 163.5344 130.509528 
L 163.831763 130.223572 
L 164.129125 125.917301 
L 164.426488 130.140508 
L 164.72385 120.868381 
L 165.021213 119.994595 
L 165.615938 120.048895 
L 165.9133 126.477461 
L 166.210663 115.435978 
L 166.508025 122.124007 
L 167.10275 108.021406 
L 167.400113 115.575616 
L 167.697475 108.111934 
L 167.994838 119.546533 
L 168.2922 123.072348 
L 168.589562 130.246838 
L 168.886925 127.333462 
L 169.184288 138.948496 
L 169.48165 140.085461 
L 170.373738 124.550726 
L 170.6711 126.253374 
L 170.968463 123.521473 
L 171.265825 112.912354 
L 171.563188 116.23724 
L 172.157913 144.050307 
L 172.455275 145.980662 
L 172.752638 145.139755 
L 173.05 143.327533 
L 173.644725 160.503117 
L 173.942088 154.969744 
L 174.23945 141.478605 
L 174.536812 138.797939 
L 174.834175 143.144759 
L 175.131538 137.617415 
L 175.4289 153.422277 
L 175.726263 152.27226 
L 176.023625 151.578915 
L 176.320988 154.763308 
L 176.61835 152.895455 
L 176.915713 156.195645 
L 177.213075 139.542714 
L 177.510438 136.712153 
L 178.105163 142.215233 
L 178.402525 137.447398 
L 178.699887 140.265688 
L 178.99725 136.031481 
L 179.294613 137.071168 
L 179.591975 130.818243 
L 179.889338 130.612842 
L 180.1867 135.264675 
L 180.484062 144.261283 
L 180.781425 144.882772 
L 181.078788 156.488856 
L 181.673513 151.344462 
L 181.970875 154.237435 
L 182.268237 138.752041 
L 182.5656 139.933433 
L 182.862963 144.953773 
L 183.160325 141.458462 
L 183.75505 163.063841 
L 184.052413 159.285086 
L 184.647138 174.056129 
L 184.9445 186.180886 
L 185.241863 193.11134 
L 185.539225 188.906284 
L 185.836588 189.439597 
L 186.13395 193.832397 
L 186.728675 187.034315 
L 187.026038 188.963603 
L 187.620763 176.212888 
L 187.918125 173.169397 
L 188.215487 164.645402 
L 188.810213 169.968687 
L 189.107575 164.1017 
L 189.999662 170.342189 
L 190.297025 168.778821 
L 190.594388 165.73371 
L 190.89175 158.153339 
L 191.189113 162.493524 
L 191.486475 160.641499 
L 191.783838 152.578946 
L 192.0812 140.293963 
L 192.378562 151.697821 
L 192.675925 153.172228 
L 192.973288 151.632235 
L 193.27065 155.333762 
L 193.865375 147.840782 
L 194.162737 152.817412 
L 194.4601 150.349193 
L 194.757463 143.148936 
L 195.054825 146.371782 
L 195.352188 152.94635 
L 195.64955 166.305864 
L 195.946912 158.183763 
L 196.244275 161.034678 
L 196.541638 174.830291 
L 197.136363 156.901436 
L 197.433725 164.306635 
L 197.731088 175.604205 
L 198.02845 180.455252 
L 198.325813 179.697321 
L 198.623175 174.323979 
L 198.920538 174.189973 
L 199.2179 176.624115 
L 199.515263 174.339669 
L 199.812625 180.824815 
L 200.109987 176.310182 
L 200.40735 179.929155 
L 200.704713 190.306557 
L 201.002075 187.130001 
L 201.894162 172.183499 
L 202.191525 166.310533 
L 202.488888 163.633056 
L 202.78625 165.531425 
L 203.083613 170.737331 
L 203.380975 167.237202 
L 203.678337 159.753793 
L 203.9757 163.997446 
L 204.273063 174.435713 
L 204.867788 149.799238 
L 205.16515 147.738369 
L 205.462513 150.070993 
L 205.759875 145.780061 
L 206.057238 152.52449 
L 206.3546 147.953306 
L 206.651963 153.070319 
L 206.949325 151.398608 
L 207.246688 144.344 
L 207.54405 160.139223 
L 207.841412 161.683622 
L 208.138775 154.716699 
L 208.436138 153.930952 
L 208.7335 170.233064 
L 209.328225 176.09843 
L 209.92295 165.413629 
L 210.220313 170.860764 
L 210.517675 166.044095 
L 210.815038 164.213701 
L 211.1124 155.385412 
L 211.409762 152.029243 
L 211.707125 167.913446 
L 212.004488 166.478978 
L 212.30185 164.173115 
L 212.599213 169.29354 
L 212.896575 152.453428 
L 213.193938 152.186301 
L 213.4913 162.207738 
L 213.788662 161.9642 
L 214.086025 161.873192 
L 214.383388 153.047568 
L 214.978113 123.760538 
L 215.275475 126.421498 
L 215.572837 130.286121 
L 215.8702 125.354446 
L 216.167563 111.315538 
L 216.464925 112.077255 
L 216.762288 107.439315 
L 217.05965 109.44322 
L 217.357012 109.493733 
L 217.654375 112.211588 
L 217.951738 118.350174 
L 218.2491 110.607909 
L 218.546463 116.35012 
L 218.843825 116.284245 
L 219.141188 121.421102 
L 219.43855 122.604814 
L 220.033275 141.884683 
L 220.330638 146.524319 
L 220.628 139.645991 
L 220.925363 139.406643 
L 221.222725 141.734685 
L 221.81745 153.824376 
L 222.114812 150.560566 
L 222.412175 157.803825 
L 222.709538 154.555982 
L 223.304262 170.332707 
L 223.601625 174.797624 
L 223.898988 173.454028 
L 224.19635 169.545411 
L 224.493713 160.894678 
L 224.791075 159.390143 
L 225.088437 147.90403 
L 225.3858 153.182761 
L 225.980525 138.100359 
L 226.277888 147.707169 
L 226.57525 164.644358 
L 227.169975 173.983283 
L 227.467337 173.754147 
L 228.062063 161.799006 
L 228.359425 167.752313 
L 228.656788 167.009638 
L 229.251512 149.419999 
L 229.548875 146.330259 
L 229.846238 154.930529 
L 230.1436 157.713539 
L 230.440963 158.685347 
L 230.738325 163.196302 
L 231.035687 152.584202 
L 231.33305 161.616304 
L 231.630413 163.743153 
L 231.927775 163.948159 
L 232.225138 163.385847 
L 232.819862 145.487262 
L 233.117225 158.92531 
L 233.414588 154.301708 
L 233.71195 143.276903 
L 234.009313 156.866565 
L 234.306675 161.599807 
L 234.604038 163.524209 
L 234.9014 161.777065 
L 235.198762 168.698718 
L 235.496125 158.646989 
L 235.793487 161.69829 
L 236.09085 159.670426 
L 236.388213 164.251917 
L 236.685575 163.317945 
L 236.982937 151.073912 
L 237.2803 155.952158 
L 237.577663 163.738797 
L 237.875025 176.797088 
L 238.172388 160.466043 
L 238.46975 180.133071 
L 239.064475 169.372353 
L 239.361838 168.003362 
L 239.6592 162.297419 
L 239.956563 144.622807 
L 240.551288 170.153721 
L 240.84865 165.856104 
L 241.146012 157.500529 
L 241.443375 154.917558 
L 241.740737 157.201181 
L 242.0381 149.120555 
L 242.335463 164.438402 
L 242.632825 168.942788 
L 243.524912 146.30437 
L 244.119638 150.237711 
L 244.417 162.232574 
L 245.011725 144.102105 
L 245.309088 151.53183 
L 245.60645 153.811654 
L 246.201175 169.984272 
L 246.498537 167.139514 
L 246.7959 161.332873 
L 247.093263 164.481057 
L 247.390625 159.241624 
L 247.687987 160.339747 
L 247.98535 158.707763 
L 248.282713 155.207443 
L 248.580075 150.034968 
L 248.877438 150.498661 
L 249.1748 140.426816 
L 249.472162 134.184983 
L 249.769525 133.572735 
L 250.36425 140.968817 
L 250.661612 147.108282 
L 250.958975 147.974986 
L 251.256338 128.007216 
L 251.5537 132.611117 
L 251.851063 123.925427 
L 252.148425 125.717977 
L 252.445787 117.488308 
L 252.74315 120.804589 
L 253.040513 110.711435 
L 253.635238 134.127245 
L 253.9326 141.815998 
L 254.229962 137.222569 
L 254.527325 139.795869 
L 254.824688 140.192704 
L 255.12205 139.787607 
L 255.419412 147.122703 
L 256.014138 141.083152 
L 256.3115 139.722107 
L 256.608862 123.786782 
L 256.906225 118.819361 
L 257.203588 128.779442 
L 257.50095 131.348608 
L 257.798313 126.306702 
L 258.095675 102.648251 
L 258.393037 115.274039 
L 258.987763 123.626762 
L 259.285125 115.048477 
L 259.582488 115.042957 
L 259.87985 111.075573 
L 260.177212 112.378514 
L 260.474575 108.740034 
L 260.771938 95.701713 
L 261.0693 100.393825 
L 261.366662 100.86996 
L 261.961388 106.460856 
L 262.25875 117.785887 
L 262.556113 115.753971 
L 263.150837 122.025056 
L 263.4482 125.71029 
L 263.745563 126.357033 
L 264.042925 132.08792 
L 264.63765 113.434502 
L 264.935012 118.600668 
L 265.529738 140.881887 
L 265.8271 127.76521 
L 266.124462 128.576359 
L 266.421825 134.524906 
L 266.719187 128.865724 
L 267.01655 130.135165 
L 267.313913 126.365548 
L 267.611275 136.195973 
L 267.908637 121.381135 
L 268.800725 134.658761 
L 269.098088 136.623466 
L 269.39545 154.843572 
L 269.692813 153.957477 
L 269.990175 155.427989 
L 270.287537 159.973226 
L 270.5849 157.984167 
L 270.882263 159.634166 
L 271.179625 153.687141 
L 271.476988 160.042195 
L 272.071712 139.53402 
L 272.666438 160.533632 
L 272.9638 152.590772 
L 273.261163 150.987562 
L 273.558525 160.447536 
L 273.855887 155.860608 
L 274.15325 155.818071 
L 274.450613 151.005592 
L 274.747975 149.629514 
L 275.045337 159.417504 
L 275.3427 156.688286 
L 275.640062 145.51113 
L 275.937425 140.195959 
L 276.234788 141.493647 
L 276.53215 132.802416 
L 276.829512 135.780081 
L 277.126875 142.387923 
L 277.424238 137.173854 
L 277.7216 142.205863 
L 278.018962 141.656351 
L 278.316325 141.946841 
L 278.613687 145.482686 
L 279.208413 169.905126 
L 279.505775 164.78109 
L 280.1005 172.263934 
L 280.397862 169.903273 
L 280.695225 178.435449 
L 281.28995 185.40467 
L 281.587312 184.969453 
L 281.884675 190.075056 
L 282.182037 198.542714 
L 282.4794 199.500019 
L 283.074125 184.726737 
L 283.966212 177.40094 
L 284.263575 180.996215 
L 284.560938 192.343499 
L 285.155663 174.766535 
L 285.453025 169.219961 
L 285.750387 155.596617 
L 286.04775 159.012277 
L 286.345113 154.3903 
L 286.642475 157.915517 
L 286.939838 163.798572 
L 287.2372 158.383584 
L 287.534562 179.970074 
L 287.831925 177.265925 
L 288.129288 183.887935 
L 288.42665 183.375474 
L 289.021375 172.310988 
L 289.318737 188.271502 
L 289.6161 186.064294 
L 289.913463 196.401927 
L 290.210825 198.791494 
L 290.508187 186.791463 
L 290.80555 184.804039 
L 291.102913 173.871878 
L 291.400275 177.950808 
L 291.697638 171.718381 
L 291.995 162.844929 
L 292.887088 146.207935 
L 293.18445 139.243002 
L 293.481812 140.730382 
L 293.779175 148.604201 
L 294.076537 146.988221 
L 294.3739 152.999236 
L 294.671263 149.132315 
L 294.968625 139.042326 
L 295.265987 143.638127 
L 296.158075 123.459485 
L 296.455438 119.499735 
L 296.7528 118.979148 
L 297.347525 104.529352 
L 297.644887 100.424882 
L 297.94225 100.055939 
L 298.239613 90.274985 
L 298.536975 94.035785 
L 299.429062 58.768495 
L 299.726425 55.935763 
L 300.023788 59.708348 
L 300.32115 61.828449 
L 300.618513 60.2444 
L 300.915875 53.871518 
L 301.213237 59.940749 
L 301.807963 43.839549 
L 302.105325 41.112852 
L 302.402687 43.496268 
L 302.997412 59.846632 
L 303.294775 53.935468 
L 303.592138 60.159774 
L 303.8895 74.766081 
L 304.186862 66.348662 
L 304.484225 54.297793 
L 304.781588 54.164878 
L 305.07895 65.687153 
L 305.376313 65.146919 
L 305.971037 73.069469 
L 306.2684 69.986991 
L 306.565763 60.634852 
L 306.863125 72.084433 
L 307.160487 76.139296 
L 307.45785 77.920544 
L 307.755212 87.108576 
L 308.052575 87.062622 
L 308.6473 54.97626 
L 308.944662 64.6526 
L 309.539387 62.223588 
L 309.83675 61.818644 
L 310.134113 65.750126 
L 310.431475 66.092922 
L 310.728837 65.086944 
L 311.0262 57.653575 
L 311.323562 55.977471 
L 311.620925 56.157689 
L 311.918288 49.731464 
L 312.21565 51.387995 
L 312.513013 50.896307 
L 312.810375 48.81031 
L 313.107737 50.619292 
L 313.4051 56.121734 
L 313.702463 53.763311 
L 313.999825 58.49198 
L 314.297188 60.356927 
L 314.59455 82.013714 
L 315.189275 85.800785 
L 315.486638 88.564839 
L 315.784 98.590498 
L 316.081362 101.672416 
L 316.378725 106.162516 
L 316.676087 114.755192 
L 316.97345 111.981262 
L 317.270813 98.039375 
L 317.568175 97.741086 
L 318.1629 113.736602 
L 318.460262 110.586331 
L 318.757625 104.497727 
L 319.054988 100.81662 
L 319.35235 94.066439 
L 319.947075 103.522787 
L 320.244438 99.810829 
L 320.839162 106.399463 
L 321.136525 107.254355 
L 321.433887 110.232003 
L 322.028613 126.897 
L 322.325975 124.695751 
L 322.623337 140.127266 
L 322.9207 142.994237 
L 323.218062 141.698573 
L 323.515425 152.422048 
L 323.812788 155.783122 
L 324.11015 147.157554 
L 324.407512 142.360472 
L 324.704875 143.915829 
L 325.002237 148.855552 
L 325.2996 151.665581 
L 325.596963 159.465918 
L 325.894325 162.732631 
L 326.48905 145.391937 
L 326.786412 151.800666 
L 327.083775 148.276764 
L 327.381138 147.864824 
L 327.6785 154.630242 
L 327.975863 153.234636 
L 328.273225 158.171878 
L 328.570587 155.440221 
L 328.86795 169.498873 
L 329.165313 176.498524 
L 329.462675 170.017024 
L 329.760038 176.5906 
L 330.0574 173.752798 
L 330.354762 176.283053 
L 330.652125 174.913608 
L 330.949488 192.171949 
L 331.24685 196.608871 
L 331.544212 192.236263 
L 331.841575 203.512812 
L 332.138937 192.677051 
L 332.4363 177.558715 
L 332.733663 181.328559 
L 333.031025 180.160772 
L 333.328387 171.332686 
L 333.923113 185.702866 
L 334.220475 187.821014 
L 334.517837 192.264391 
L 334.8152 187.27195 
L 335.112562 192.077522 
L 335.409925 188.555205 
L 335.707288 196.112271 
L 336.00465 194.997003 
L 336.302012 184.313467 
L 336.599375 181.119518 
L 336.896737 184.923306 
L 337.491463 172.20667 
L 337.788825 179.733592 
L 338.086187 194.662209 
L 338.38355 196.136764 
L 338.680912 201.415404 
L 338.978275 195.371244 
L 339.275638 199.285455 
L 339.573 197.873466 
L 339.870362 193.448095 
L 340.167725 192.203509 
L 340.465087 200.611621 
L 340.76245 197.844508 
L 341.059813 184.576748 
L 341.357175 193.617973 
L 341.654538 197.636868 
L 341.9519 209.962459 
L 342.249262 211.240631 
L 342.546625 211.153447 
L 342.843988 204.850208 
L 343.14135 203.499225 
L 343.438713 202.732775 
L 343.736075 204.424978 
L 344.033437 191.368273 
L 344.3308 196.311676 
L 344.628163 205.984328 
L 344.925525 204.495861 
L 345.222887 200.945552 
L 345.52025 200.020174 
L 346.114975 191.170172 
L 346.412338 188.732245 
L 346.7097 198.10446 
L 347.304425 188.646977 
L 347.89915 194.314103 
L 348.196512 184.679334 
L 348.493875 186.249219 
L 348.791237 186.769658 
L 349.0886 189.646493 
L 349.385963 186.25875 
L 349.683325 196.229837 
L 349.980687 210.439828 
L 350.27805 207.541365 
L 350.575412 207.965391 
L 350.872775 213.780872 
L 351.170138 216.541421 
L 351.4675 217.104272 
L 351.764862 214.987637 
L 352.062225 216.662903 
L 352.359587 209.006318 
L 352.65695 211.940985 
L 352.954313 198.89769 
L 353.251675 200.657059 
L 353.8464 213.132113 
L 354.143762 210.45523 
L 354.441125 212.78372 
L 354.738488 212.139456 
L 355.03585 209.009799 
L 355.333213 198.870087 
L 355.630575 200.11729 
L 355.927937 215.70268 
L 356.2253 215.988137 
L 356.522663 225.911113 
L 356.820025 239.766481 
L 357.117388 235.620841 
L 357.41475 238.093035 
L 357.712112 239.111884 
L 358.009475 248.932373 
L 358.306838 237.452865 
L 358.6042 237.824377 
L 358.901562 239.515573 
L 359.198925 225.880864 
L 359.496287 241.74144 
L 359.79365 246.685328 
L 360.091013 239.501848 
L 360.388375 238.430873 
L 360.9831 231.343281 
L 361.280462 221.231848 
L 361.577825 217.059832 
L 362.17255 229.98386 
L 362.469912 219.804307 
L 363.064638 224.471544 
L 363.362 216.435549 
L 363.659362 218.481285 
L 363.956725 204.652749 
L 364.254087 221.126796 
L 364.55145 216.931042 
L 364.848813 232.751655 
L 365.146175 231.642519 
L 365.443537 232.021323 
L 365.7409 235.072093 
L 366.038262 234.978422 
L 366.335625 240.695736 
L 366.632988 249.331943 
L 367.227712 255.340734 
L 367.525075 238.889934 
L 368.1198 222.413226 
L 368.417163 218.170422 
L 368.714525 216.388783 
L 369.011888 216.937228 
L 369.30925 220.405686 
L 369.606612 225.209503 
L 369.903975 220.692754 
L 370.4987 236.648889 
L 370.796062 231.186689 
L 371.390787 191.477484 
L 371.985513 184.191979 
L 372.282875 189.870501 
L 372.8776 169.708017 
L 373.174962 169.801492 
L 373.472325 175.866211 
L 373.769688 168.095057 
L 374.06705 165.491108 
L 374.364412 153.692648 
L 374.661775 151.777428 
L 374.959137 151.115325 
L 375.2565 155.427822 
L 375.553863 152.705255 
L 375.851225 166.889746 
L 376.148587 175.203856 
L 376.44595 172.416347 
L 377.040675 175.938061 
L 377.338038 171.498415 
L 377.6354 184.03708 
L 377.932762 180.044151 
L 378.527488 180.934177 
L 378.82485 191.315397 
L 379.122213 195.446766 
L 379.716937 186.010739 
L 380.0143 195.364104 
L 380.609025 177.768955 
L 380.906387 173.632024 
L 381.20375 173.845221 
L 381.798475 163.442794 
L 382.095838 166.119633 
L 382.3932 170.52703 
L 382.987925 146.972105 
L 383.285287 154.258998 
L 383.880013 161.812437 
L 384.177375 162.698208 
L 384.474737 166.479241 
L 384.7721 168.701654 
L 385.069462 173.448057 
L 385.366825 163.627058 
L 385.664188 172.456412 
L 385.96155 170.435626 
L 386.258912 160.415318 
L 386.556275 159.984397 
L 386.853637 150.680612 
L 387.151 153.566056 
L 387.448363 154.500331 
L 387.745725 160.326522 
L 388.043087 162.31073 
L 388.637812 158.576158 
L 388.935175 154.586502 
L 389.232538 153.696742 
L 389.5299 162.299424 
L 389.827262 161.187882 
L 390.124625 161.203228 
L 390.71935 176.534866 
L 391.016713 186.365478 
L 391.314075 187.750042 
L 391.611437 185.76776 
L 391.9088 200.886897 
L 392.206163 197.595791 
L 392.503525 196.46889 
L 392.800888 199.68435 
L 393.09825 192.976494 
L 393.395612 203.909059 
L 393.692975 197.49643 
L 393.990338 194.357505 
L 394.585062 169.100051 
L 394.882425 166.687291 
L 395.774513 135.871847 
L 396.071875 130.891257 
L 396.369237 137.283529 
L 396.6666 125.532482 
L 396.963962 130.28986 
L 397.558688 145.825681 
L 398.153412 162.745288 
L 398.450775 156.590352 
L 398.748137 155.275992 
L 399.0455 147.708688 
L 399.640225 162.512543 
L 399.937587 160.320456 
L 400.23495 167.340108 
L 400.532312 190.841413 
L 400.829675 198.294321 
L 401.127038 200.881633 
L 401.4244 212.621502 
L 401.721762 213.265767 
L 402.316487 227.23242 
L 402.911213 216.700757 
L 403.208575 222.058236 
L 403.505937 221.171984 
L 403.8033 236.087199 
L 404.100662 241.410028 
L 404.398025 229.7754 
L 404.99275 226.886543 
L 405.587475 205.130087 
L 405.884838 216.194521 
L 406.1822 211.071874 
L 406.479563 198.508199 
L 406.776925 210.139925 
L 407.074287 209.715299 
L 407.37165 214.943348 
L 407.669013 216.065123 
L 407.966375 222.827797 
L 408.263737 212.490648 
L 408.858462 200.272362 
L 409.155825 199.369196 
L 409.453188 193.126415 
L 409.75055 201.210938 
L 410.047912 218.773606 
L 410.642637 232.935616 
L 410.642637 232.935616 
" clip-path="url(#pb43927f26a)" style="fill: none; stroke: #1f77b4; stroke-width: 1.5; stroke-linecap: square"/>
   </g>
   <g id="patch_3">
    <path d="M 113.5775 266.245 
L 113.5775 30.392274 
" style="fill: none; stroke: #000000; stroke-width: 0.8; stroke-linejoin: miter; stroke-linecap: square"/>
   </g>
   <g id="patch_4">
    <path d="M 410.94 266.245 
L 410.94 30.392274 
" style="fill: none; stroke: #000000; stroke-width: 0.8; stroke-linejoin: miter; stroke-linecap: square"/>
   </g>
   <g id="patch_5">
    <path d="M 113.5775 266.245 
L 410.94 266.245 
" style="fill: none; stroke: #000000; stroke-width: 0.8; stroke-linejoin: miter; stroke-linecap: square"/>
   </g>
   <g id="patch_6">
    <path d="M 113.5775 30.392274 
L 410.94 30.392274 
" style="fill: none; stroke: #000000; stroke-width: 0.8; stroke-linejoin: miter; stroke-linecap: square"/>
   </g>
  </g>
 </g>
 <defs>
  <clipPath id="pb43927f26a">
   <rect x="113.5775" y="30.392274" width="297.3625" height="235.852726"/>
  </clipPath>
 </defs>
</svg>
