<?xml version="1.0" encoding="utf-8" standalone="no"?>
<!DOCTYPE svg PUBLIC "-//W3C//DTD SVG 1.1//EN"
  "http://www.w3.org/Graphics/SVG/1.1/DTD/svg11.dtd">
<svg xmlns:xlink="http://www.w3.org/1999/xlink" width="460.8pt" height="345.6pt" viewBox="0 0 460.8 345.6" xmlns="http://www.w3.org/2000/svg" version="1.1">
 <metadata>
  <rdf:RDF xmlns:dc="http://purl.org/dc/elements/1.1/" xmlns:cc="http://creativecommons.org/ns#" xmlns:rdf="http://www.w3.org/1999/02/22-rdf-syntax-ns#">
   <cc:Work>
    <dc:type rdf:resource="http://purl.org/dc/dcmitype/StillImage"/>
    <dc:date>2026-01-28T21:19:05.315981</dc:date>
    <dc:format>image/svg+xml</dc:format>
    <dc:creator>
     <cc:Agent>
      <dc:title>Matplotlib v3.10.8, https://matplotlib.org/</dc:title>
     </cc:Agent>
    </dc:creator>
   </cc:Work>
  </rdf:RDF>
 </metadata>
 <defs>
  <style type="text/css">*{stroke-linejoin: round; stroke-linecap: butt}</style>
 </defs>
 <g id="figure_1">
  <g id="patch_1">
   <path d="M 0 345.6 
L 460.8 345.6 
L 460.8 0 
L 0 0 
z
" style="fill: #ffffff"/>
  </g>
  <g id="axes_1">
   <g id="patch_2">
    <path d="M 113.5775 266.245 
L 410.94 266.245 
L 410.94 25.92 
L 113.5775 25.92 
z
" style="fill: #ffffff"/>
   </g>
   <g id="matplotlib.axis_1">
    <g id="xtick_1">
     <g id="line2d_1">
      <path d="M 113.5775 266.245 
L 113.5775 25.92 
" clip-path="url(#pccd840be86)" style="fill: none; stroke: #b0b0b0; stroke-width: 0.8; stroke-linecap: square"/>
     </g>
     <g id="line2d_2">
      <defs>
       <path id="mbda058ca19" d="M 0 0 
L 0 3.5 
" style="stroke: #000000; stroke-width: 0.8"/>
      </defs>
      <g>
       <use xlink:href="#mbda058ca19" x="113.5775" y="266.245" style="stroke: #000000; stroke-width: 0.8"/>
      </g>
     </g>
     <g id="text_1">
      <!-- 0 -->
      <g transform="translate(107.5775 289.63625) scale(0.24 -0.24)">
       <defs>
        <path id="TeXGyreTermes-Regular-30" d="M 3046 2112 
C 3046 3424 2464 4326 1626 4326 
C 1274 4326 1005 4218 768 3994 
C 397 3635 154 2899 154 2150 
C 154 1453 365 704 666 346 
C 902 64 1229 -90 1600 -90 
C 1926 -90 2202 19 2432 243 
C 2803 595 3046 1338 3046 2112 
z
M 2432 2099 
C 2432 762 2150 77 1600 77 
C 1050 77 768 762 768 2093 
C 768 3450 1056 4160 1606 4160 
C 2144 4160 2432 3437 2432 2099 
z
" transform="scale(0.015625)"/>
       </defs>
       <use xlink:href="#TeXGyreTermes-Regular-30"/>
      </g>
     </g>
    </g>
    <g id="xtick_2">
     <g id="line2d_3">
      <path d="M 187.918125 266.245 
L 187.918125 25.92 
" clip-path="url(#pccd840be86)" style="fill: none; stroke: #b0b0b0; stroke-width: 0.8; stroke-linecap: square"/>
     </g>
     <g id="line2d_4">
      <g>
       <use xlink:href="#mbda058ca19" x="187.918125" y="266.245" style="stroke: #000000; stroke-width: 0.8"/>
      </g>
     </g>
     <g id="text_2">
      <!-- 250 -->
      <g transform="translate(169.918125 289.63625) scale(0.24 -0.24)">
       <defs>
        <path id="TeXGyreTermes-Regular-32" d="M 3040 877 
L 2957 909 
C 2720 544 2637 486 2349 486 
L 819 486 
L 1894 1613 
C 2464 2208 2714 2694 2714 3194 
C 2714 3834 2195 4326 1530 4326 
C 1178 4326 845 4186 608 3930 
C 403 3712 307 3507 198 3053 
L 333 3021 
C 589 3648 819 3853 1261 3853 
C 1798 3853 2163 3488 2163 2950 
C 2163 2451 1869 1856 1331 1286 
L 192 77 
L 192 0 
L 2688 0 
L 3040 877 
z
" transform="scale(0.015625)"/>
        <path id="TeXGyreTermes-Regular-35" d="M 2803 4358 
L 2746 4403 
C 2650 4269 2586 4237 2451 4237 
L 1114 4237 
L 416 2720 
C 410 2707 410 2688 410 2688 
C 410 2656 435 2637 486 2637 
C 691 2637 947 2592 1210 2509 
C 1946 2272 2285 1875 2285 1242 
C 2285 627 1894 147 1395 147 
C 1267 147 1158 192 966 333 
C 762 480 614 544 480 544 
C 294 544 205 467 205 307 
C 205 64 506 -90 986 -90 
C 1523 -90 1984 83 2304 410 
C 2598 698 2733 1062 2733 1549 
C 2733 2010 2611 2304 2291 2624 
C 2010 2906 1645 3053 890 3187 
L 1158 3731 
L 2413 3731 
C 2515 3731 2541 3744 2560 3789 
L 2803 4358 
z
" transform="scale(0.015625)"/>
       </defs>
       <use xlink:href="#TeXGyreTermes-Regular-32"/>
       <use xlink:href="#TeXGyreTermes-Regular-35" transform="translate(49.999985 0)"/>
       <use xlink:href="#TeXGyreTermes-Regular-30" transform="translate(99.999969 0)"/>
      </g>
     </g>
    </g>
    <g id="xtick_3">
     <g id="line2d_5">
      <path d="M 262.25875 266.245 
L 262.25875 25.92 
" clip-path="url(#pccd840be86)" style="fill: none; stroke: #b0b0b0; stroke-width: 0.8; stroke-linecap: square"/>
     </g>
     <g id="line2d_6">
      <g>
       <use xlink:href="#mbda058ca19" x="262.25875" y="266.245" style="stroke: #000000; stroke-width: 0.8"/>
      </g>
     </g>
     <g id="text_3">
      <!-- 500 -->
      <g transform="translate(244.25875 289.63625) scale(0.24 -0.24)">
       <use xlink:href="#TeXGyreTermes-Regular-35"/>
       <use xlink:href="#TeXGyreTermes-Regular-30" transform="translate(49.999985 0)"/>
       <use xlink:href="#TeXGyreTermes-Regular-30" transform="translate(99.999969 0)"/>
      </g>
     </g>
    </g>
    <g id="xtick_4">
     <g id="line2d_7">
      <path d="M 336.599375 266.245 
L 336.599375 25.92 
" clip-path="url(#pccd840be86)" style="fill: none; stroke: #b0b0b0; stroke-width: 0.8; stroke-linecap: square"/>
     </g>
     <g id="line2d_8">
      <g>
       <use xlink:href="#mbda058ca19" x="336.599375" y="266.245" style="stroke: #000000; stroke-width: 0.8"/>
      </g>
     </g>
     <g id="text_4">
      <!-- 750 -->
      <g transform="translate(318.599375 289.63625) scale(0.24 -0.24)">
       <defs>
        <path id="TeXGyreTermes-Regular-37" d="M 2874 4134 
L 2874 4237 
L 506 4237 
L 128 3296 
L 237 3245 
C 512 3680 627 3763 979 3763 
L 2368 3763 
L 1101 -51 
L 1517 -51 
L 2874 4134 
z
" transform="scale(0.015625)"/>
       </defs>
       <use xlink:href="#TeXGyreTermes-Regular-37"/>
       <use xlink:href="#TeXGyreTermes-Regular-35" transform="translate(49.999985 0)"/>
       <use xlink:href="#TeXGyreTermes-Regular-30" transform="translate(99.999969 0)"/>
      </g>
     </g>
    </g>
    <g id="xtick_5">
     <g id="line2d_9">
      <path d="M 410.94 266.245 
L 410.94 25.92 
" clip-path="url(#pccd840be86)" style="fill: none; stroke: #b0b0b0; stroke-width: 0.8; stroke-linecap: square"/>
     </g>
     <g id="line2d_10">
      <g>
       <use xlink:href="#mbda058ca19" x="410.94" y="266.245" style="stroke: #000000; stroke-width: 0.8"/>
      </g>
     </g>
     <g id="text_5">
      <!-- 1000 -->
      <g transform="translate(386.94 289.63625) scale(0.24 -0.24)">
       <defs>
        <path id="TeXGyreTermes-Regular-31" d="M 2522 0 
L 2522 96 
C 2016 102 1914 166 1914 474 
L 1914 4314 
L 1862 4326 
L 710 3744 
L 710 3654 
C 787 3686 858 3712 883 3725 
C 998 3770 1107 3795 1171 3795 
C 1306 3795 1363 3699 1363 3494 
L 1363 595 
C 1363 384 1312 237 1210 179 
C 1114 122 1024 102 755 96 
L 755 0 
L 2522 0 
z
" transform="scale(0.015625)"/>
       </defs>
       <use xlink:href="#TeXGyreTermes-Regular-31"/>
       <use xlink:href="#TeXGyreTermes-Regular-30" transform="translate(49.999985 0)"/>
       <use xlink:href="#TeXGyreTermes-Regular-30" transform="translate(99.999969 0)"/>
       <use xlink:href="#TeXGyreTermes-Regular-30" transform="translate(149.999954 0)"/>
      </g>
     </g>
    </g>
    <g id="text_6">
     <!-- Schritt k -->
     <g transform="translate(221.25625 315.23625) scale(0.24 -0.24)">
      <defs>
       <path id="TeXGyreTermes-Regular-53" d="M 3142 1075 
C 3142 1606 2790 2016 1946 2477 
C 1274 2842 1005 3123 1005 3475 
C 1005 3827 1274 4064 1670 4064 
C 1958 4064 2227 3942 2451 3712 
C 2650 3507 2739 3341 2842 2963 
L 3002 2963 
L 2861 4326 
L 2726 4326 
C 2701 4186 2630 4109 2522 4109 
C 2458 4109 2355 4134 2240 4186 
C 2003 4275 1773 4326 1549 4326 
C 1299 4326 1030 4224 826 4058 
C 576 3853 454 3578 454 3226 
C 454 2720 736 2362 1453 1984 
C 1914 1734 2246 1478 2406 1235 
C 2464 1146 2496 1018 2496 858 
C 2496 435 2176 141 1709 141 
C 1133 141 736 493 416 1274 
L 269 1274 
L 461 -83 
L 602 -83 
C 608 38 685 128 781 128 
C 851 128 960 102 1082 58 
C 1325 -38 1581 -90 1837 -90 
C 2579 -90 3142 416 3142 1075 
z
" transform="scale(0.015625)"/>
       <path id="TeXGyreTermes-Regular-63" d="M 2637 941 
L 2547 998 
C 2240 550 2010 397 1645 397 
C 1056 397 653 909 653 1645 
C 653 2310 1005 2758 1523 2758 
C 1754 2758 1837 2688 1901 2451 
L 1939 2310 
C 1990 2125 2106 2016 2246 2016 
C 2413 2016 2547 2138 2547 2285 
C 2547 2643 2099 2944 1562 2944 
C 1261 2944 954 2829 698 2618 
C 352 2330 160 1888 160 1357 
C 160 531 666 -64 1376 -64 
C 1651 -64 1894 26 2112 205 
C 2304 358 2432 544 2637 941 
z
" transform="scale(0.015625)"/>
       <path id="TeXGyreTermes-Regular-68" d="M 3117 0 
L 3117 96 
C 2771 160 2733 211 2733 653 
L 2733 1926 
C 2733 2598 2464 2944 1946 2944 
C 1568 2944 1299 2790 1005 2406 
L 1005 4352 
L 973 4371 
C 755 4294 595 4243 237 4141 
L 64 4090 
L 64 3987 
C 90 3994 109 3994 141 3994 
C 416 3994 467 3942 467 3667 
L 467 653 
C 467 205 429 147 58 96 
L 58 0 
L 1440 0 
L 1440 96 
C 1069 134 1005 211 1005 653 
L 1005 2195 
C 1274 2490 1466 2598 1715 2598 
C 2035 2598 2195 2368 2195 1920 
L 2195 653 
C 2195 218 2131 134 1760 96 
L 1760 0 
L 3117 0 
z
" transform="scale(0.015625)"/>
       <path id="TeXGyreTermes-Regular-72" d="M 2144 2605 
C 2144 2816 2010 2944 1792 2944 
C 1523 2944 1338 2797 1024 2342 
L 1024 2931 
L 992 2944 
C 653 2803 422 2720 45 2598 
L 45 2496 
C 134 2515 192 2522 269 2522 
C 429 2522 486 2419 486 2138 
L 486 538 
C 486 218 442 173 32 96 
L 32 0 
L 1568 0 
L 1568 96 
C 1133 115 1024 211 1024 576 
L 1024 2016 
C 1024 2221 1299 2541 1472 2541 
C 1510 2541 1568 2509 1638 2445 
C 1741 2355 1811 2317 1894 2317 
C 2048 2317 2144 2426 2144 2605 
z
" transform="scale(0.015625)"/>
       <path id="TeXGyreTermes-Regular-69" d="M 1619 0 
L 1619 96 
C 1197 128 1146 192 1146 653 
L 1146 2925 
L 1120 2944 
L 128 2592 
L 128 2496 
L 179 2502 
C 256 2515 339 2522 397 2522 
C 550 2522 608 2419 608 2138 
L 608 653 
C 608 192 544 122 102 96 
L 102 0 
L 1619 0 
z
M 1203 3776 
C 1203 3955 1062 4102 877 4102 
C 698 4102 550 3955 550 3776 
C 550 3590 698 3450 877 3450 
C 1062 3450 1203 3590 1203 3776 
z
" transform="scale(0.015625)"/>
       <path id="TeXGyreTermes-Regular-74" d="M 1786 422 
L 1702 493 
C 1562 326 1459 269 1318 269 
C 1082 269 986 435 986 845 
L 986 2675 
L 1632 2675 
L 1632 2880 
L 986 2880 
L 986 3622 
C 986 3686 973 3706 941 3706 
C 902 3642 858 3584 813 3526 
C 576 3174 358 2938 192 2842 
C 122 2797 83 2758 83 2720 
C 83 2701 90 2688 109 2675 
L 448 2675 
L 448 749 
C 448 211 640 -64 1011 -64 
C 1331 -64 1574 90 1786 422 
z
" transform="scale(0.015625)"/>
       <path id="TeXGyreTermes-Regular-20" transform="scale(0.015625)"/>
       <path id="TeXGyreTermes-Regular-6b" d="M 3232 0 
L 3232 96 
C 2950 115 2752 237 2483 563 
L 1504 1805 
L 1690 1978 
C 2144 2400 2541 2694 2726 2746 
C 2822 2771 2912 2784 3021 2784 
L 3072 2784 
L 3072 2880 
L 1766 2880 
L 1766 2790 
C 2016 2784 2086 2758 2086 2669 
C 2086 2618 2029 2528 1939 2451 
L 1062 1670 
L 1062 4358 
L 1037 4371 
L 237 4141 
L 45 4090 
L 45 3987 
C 128 3994 186 4000 250 4000 
C 461 4000 525 3917 525 3610 
L 525 525 
C 525 192 506 173 45 96 
L 45 0 
L 1542 0 
L 1542 96 
L 1414 102 
C 1158 115 1062 205 1062 429 
L 1062 1606 
L 1958 410 
L 1978 384 
C 1990 365 2003 346 2022 326 
C 2074 262 2093 224 2093 192 
C 2093 134 2035 96 1958 96 
L 1837 96 
L 1837 0 
L 3232 0 
z
" transform="scale(0.015625)"/>
      </defs>
      <use xlink:href="#TeXGyreTermes-Regular-53"/>
      <use xlink:href="#TeXGyreTermes-Regular-63" transform="translate(55.599991 0)"/>
      <use xlink:href="#TeXGyreTermes-Regular-68" transform="translate(99.999985 0)"/>
      <use xlink:href="#TeXGyreTermes-Regular-72" transform="translate(149.999969 0)"/>
      <use xlink:href="#TeXGyreTermes-Regular-69" transform="translate(183.299957 0)"/>
      <use xlink:href="#TeXGyreTermes-Regular-74" transform="translate(211.099945 0)"/>
      <use xlink:href="#TeXGyreTermes-Regular-74" transform="translate(238.899933 0)"/>
      <use xlink:href="#TeXGyreTermes-Regular-20" transform="translate(266.699921 0)"/>
      <use xlink:href="#TeXGyreTermes-Regular-6b" transform="translate(291.699905 0)"/>
     </g>
    </g>
   </g>
   <g id="matplotlib.axis_2">
    <g id="ytick_1">
     <g id="line2d_11">
      <path d="M 113.5775 232.531925 
L 410.94 232.531925 
" clip-path="url(#pccd840be86)" style="fill: none; stroke: #b0b0b0; stroke-width: 0.8; stroke-linecap: square"/>
     </g>
     <g id="line2d_12">
      <defs>
       <path id="mbd7cc62ce3" d="M 0 0 
L -3.5 0 
" style="stroke: #000000; stroke-width: 0.8"/>
      </defs>
      <g>
       <use xlink:href="#mbd7cc62ce3" x="113.5775" y="232.531925" style="stroke: #000000; stroke-width: 0.8"/>
      </g>
     </g>
     <g id="text_7">
      <!-- −0.01 -->
      <g transform="translate(51.04 240.72755) scale(0.24 -0.24)">
       <defs>
        <path id="TeXGyreTermes-Regular-2212" d="M 3354 1389 
L 3354 1811 
L 256 1811 
L 256 1389 
L 3354 1389 
z
" transform="scale(0.015625)"/>
        <path id="TeXGyreTermes-Regular-2e" d="M 1158 275 
C 1158 474 992 640 800 640 
C 608 640 448 474 448 275 
C 448 90 608 -70 794 -70 
C 992 -70 1158 90 1158 275 
z
" transform="scale(0.015625)"/>
       </defs>
       <use xlink:href="#TeXGyreTermes-Regular-2212"/>
       <use xlink:href="#TeXGyreTermes-Regular-30" transform="translate(56.399994 0)"/>
       <use xlink:href="#TeXGyreTermes-Regular-2e" transform="translate(106.399979 0)"/>
       <use xlink:href="#TeXGyreTermes-Regular-30" transform="translate(131.399963 0)"/>
       <use xlink:href="#TeXGyreTermes-Regular-31" transform="translate(181.399948 0)"/>
      </g>
     </g>
    </g>
    <g id="ytick_2">
     <g id="line2d_13">
      <path d="M 113.5775 177.128801 
L 410.94 177.128801 
" clip-path="url(#pccd840be86)" style="fill: none; stroke: #b0b0b0; stroke-width: 0.8; stroke-linecap: square"/>
     </g>
     <g id="line2d_14">
      <g>
       <use xlink:href="#mbd7cc62ce3" x="113.5775" y="177.128801" style="stroke: #000000; stroke-width: 0.8"/>
      </g>
     </g>
     <g id="text_8">
      <!-- 0.00 -->
      <g transform="translate(64.5775 185.324426) scale(0.24 -0.24)">
       <use xlink:href="#TeXGyreTermes-Regular-30"/>
       <use xlink:href="#TeXGyreTermes-Regular-2e" transform="translate(49.999985 0)"/>
       <use xlink:href="#TeXGyreTermes-Regular-30" transform="translate(74.999969 0)"/>
       <use xlink:href="#TeXGyreTermes-Regular-30" transform="translate(124.999954 0)"/>
      </g>
     </g>
    </g>
    <g id="ytick_3">
     <g id="line2d_15">
      <path d="M 113.5775 121.725677 
L 410.94 121.725677 
" clip-path="url(#pccd840be86)" style="fill: none; stroke: #b0b0b0; stroke-width: 0.8; stroke-linecap: square"/>
     </g>
     <g id="line2d_16">
      <g>
       <use xlink:href="#mbd7cc62ce3" x="113.5775" y="121.725677" style="stroke: #000000; stroke-width: 0.8"/>
      </g>
     </g>
     <g id="text_9">
      <!-- 0.01 -->
      <g transform="translate(64.5775 129.921302) scale(0.24 -0.24)">
       <use xlink:href="#TeXGyreTermes-Regular-30"/>
       <use xlink:href="#TeXGyreTermes-Regular-2e" transform="translate(49.999985 0)"/>
       <use xlink:href="#TeXGyreTermes-Regular-30" transform="translate(74.999969 0)"/>
       <use xlink:href="#TeXGyreTermes-Regular-31" transform="translate(124.999954 0)"/>
      </g>
     </g>
    </g>
    <g id="ytick_4">
     <g id="line2d_17">
      <path d="M 113.5775 66.322554 
L 410.94 66.322554 
" clip-path="url(#pccd840be86)" style="fill: none; stroke: #b0b0b0; stroke-width: 0.8; stroke-linecap: square"/>
     </g>
     <g id="line2d_18">
      <g>
       <use xlink:href="#mbd7cc62ce3" x="113.5775" y="66.322554" style="stroke: #000000; stroke-width: 0.8"/>
      </g>
     </g>
     <g id="text_10">
      <!-- 0.02 -->
      <g transform="translate(64.5775 74.518179) scale(0.24 -0.24)">
       <use xlink:href="#TeXGyreTermes-Regular-30"/>
       <use xlink:href="#TeXGyreTermes-Regular-2e" transform="translate(49.999985 0)"/>
       <use xlink:href="#TeXGyreTermes-Regular-30" transform="translate(74.999969 0)"/>
       <use xlink:href="#TeXGyreTermes-Regular-32" transform="translate(124.999954 0)"/>
      </g>
     </g>
    </g>
    <g id="text_11">
     <!-- x(k) -->
     <g transform="translate(41.83125 166.07375) rotate(-90) scale(0.24 -0.24)">
      <defs>
       <path id="TeXGyreTermes-Regular-78" d="M 3066 0 
L 3066 96 
C 2867 96 2739 198 2541 480 
L 1722 1734 
L 2253 2502 
C 2374 2675 2566 2778 2771 2784 
L 2771 2880 
L 1760 2880 
L 1760 2784 
C 1952 2771 2016 2733 2016 2643 
C 2016 2566 1939 2426 1779 2227 
C 1747 2189 1670 2074 1587 1946 
L 1498 2074 
C 1318 2342 1203 2560 1203 2643 
C 1203 2733 1286 2778 1478 2784 
L 1478 2880 
L 154 2880 
L 154 2784 
L 211 2784 
C 403 2784 506 2701 704 2400 
L 1306 1478 
L 576 422 
C 384 160 320 115 109 96 
L 109 0 
L 1037 0 
L 1037 96 
C 858 96 781 128 781 211 
C 781 250 826 346 909 474 
L 1414 1261 
L 1997 365 
C 2022 326 2035 288 2035 250 
C 2035 134 1990 109 1779 96 
L 1779 0 
L 3066 0 
z
" transform="scale(0.015625)"/>
       <path id="TeXGyreTermes-Regular-28" d="M 1946 -1030 
C 1434 -627 1254 -403 1082 77 
C 928 506 858 992 858 1632 
C 858 2304 941 2829 1114 3226 
C 1293 3622 1485 3853 1946 4224 
L 1888 4326 
C 1414 4019 1222 3853 986 3558 
C 531 3002 307 2362 307 1613 
C 307 800 544 173 1107 -480 
C 1370 -787 1536 -928 1869 -1133 
L 1946 -1030 
z
" transform="scale(0.015625)"/>
       <path id="TeXGyreTermes-Regular-29" d="M 1824 1581 
C 1824 2400 1587 3021 1024 3674 
C 762 3981 595 4122 262 4326 
L 186 4224 
C 698 3821 870 3597 1050 3117 
C 1203 2688 1274 2202 1274 1562 
C 1274 896 1190 365 1018 -26 
C 838 -429 646 -659 186 -1030 
L 243 -1133 
C 717 -826 909 -659 1146 -365 
C 1600 192 1824 832 1824 1581 
z
" transform="scale(0.015625)"/>
      </defs>
      <use xlink:href="#TeXGyreTermes-Regular-78"/>
      <use xlink:href="#TeXGyreTermes-Regular-28" transform="translate(49.999985 0)"/>
      <use xlink:href="#TeXGyreTermes-Regular-6b" transform="translate(83.299973 0)"/>
      <use xlink:href="#TeXGyreTermes-Regular-29" transform="translate(133.299957 0)"/>
     </g>
    </g>
   </g>
   <g id="line2d_19">
    <path d="M 113.5775 177.628602 
L 113.874863 173.1631 
L 114.172225 176.817185 
L 114.469588 172.067451 
L 114.76695 173.37094 
L 115.064313 184.226328 
L 115.361675 186.433897 
L 115.659038 192.307987 
L 115.9564 194.96468 
L 116.848488 213.183466 
L 117.14585 211.024879 
L 117.443213 216.531497 
L 117.740575 218.615168 
L 118.037938 210.00329 
L 118.3353 212.988143 
L 118.930025 205.422575 
L 119.227388 202.828033 
L 119.52475 202.76686 
L 119.822113 203.539512 
L 120.119475 205.57411 
L 120.416838 206.630845 
L 120.7142 209.593101 
L 121.011563 210.580955 
L 121.308925 212.170085 
L 121.606288 205.4246 
L 121.90365 207.090221 
L 122.201013 203.490987 
L 122.498375 197.228628 
L 122.795738 195.49941 
L 123.390463 199.196049 
L 123.687825 205.247501 
L 123.985188 207.443311 
L 124.579913 187.989855 
L 124.877275 187.774506 
L 125.174638 188.362945 
L 125.472 196.036761 
L 125.769363 194.71473 
L 126.066725 197.573408 
L 126.364088 191.323624 
L 126.66145 196.42481 
L 126.958813 199.260879 
L 127.256175 200.976144 
L 127.553538 204.29507 
L 128.148263 219.019841 
L 128.445625 231.965906 
L 128.742988 228.685624 
L 129.04035 234.908817 
L 129.337713 249.235198 
L 129.635075 243.436864 
L 129.932438 234.758494 
L 130.2298 234.006201 
L 130.527163 240.086743 
L 130.824525 236.718895 
L 131.41925 211.515538 
L 131.716613 207.664369 
L 132.013975 195.516959 
L 132.311338 196.181043 
L 132.6087 200.137474 
L 132.906063 193.243973 
L 133.500788 203.232263 
L 133.79815 204.081048 
L 134.392875 196.463575 
L 134.690238 196.69084 
L 134.9876 184.54084 
L 135.284963 189.353147 
L 135.582325 187.76403 
L 135.879688 189.728964 
L 136.17705 198.070824 
L 136.474413 187.683804 
L 136.771775 197.319607 
L 137.069138 196.998687 
L 137.3665 202.893482 
L 137.663863 201.621151 
L 137.961225 191.662997 
L 138.258588 191.709021 
L 138.55595 174.755638 
L 138.853313 174.781527 
L 139.448037 178.00164 
L 140.042763 161.642382 
L 140.637488 178.145448 
L 140.93485 180.46197 
L 141.232213 176.60926 
L 141.529575 174.760712 
L 141.826938 177.013776 
L 142.1243 165.496751 
L 142.421663 144.467521 
L 143.016388 126.996058 
L 143.31375 132.343311 
L 143.611113 132.362648 
L 143.908475 103.33828 
L 144.205838 91.359514 
L 144.800563 115.344842 
L 145.395288 95.533942 
L 145.69265 111.455798 
L 145.990013 99.412309 
L 146.287375 102.531364 
L 146.584738 109.71832 
L 146.8821 107.236436 
L 147.179462 111.161787 
L 147.476825 112.926483 
L 147.774188 119.613984 
L 148.07155 123.455794 
L 148.368913 129.140781 
L 148.666275 125.629287 
L 148.963638 131.863025 
L 149.261 131.491168 
L 149.558363 138.061431 
L 149.855725 125.558039 
L 150.153088 123.231272 
L 150.45045 119.076773 
L 150.747813 118.874028 
L 151.045175 125.202949 
L 151.342538 111.575064 
L 151.6399 115.741907 
L 152.234625 111.494501 
L 152.531988 119.017083 
L 152.82935 122.493482 
L 153.126712 141.158873 
L 153.424075 147.027008 
L 153.721438 158.902395 
L 154.0188 154.386188 
L 154.316163 153.338353 
L 154.613525 151.341214 
L 155.20825 122.047686 
L 155.505613 120.265958 
L 155.802975 124.572371 
L 156.100338 131.951898 
L 156.3977 130.392397 
L 156.695063 137.170536 
L 157.289788 167.276504 
L 157.58715 161.633547 
L 157.884513 162.672646 
L 158.181875 168.418102 
L 158.479238 190.229396 
L 158.7766 202.678153 
L 159.371325 173.708957 
L 159.96605 185.338463 
L 160.263413 175.967438 
L 160.560775 185.485289 
L 160.858137 186.47005 
L 161.1555 184.390341 
L 161.452863 185.532089 
L 161.750225 182.098448 
L 162.047588 181.176857 
L 162.34495 177.157178 
L 162.642313 177.075375 
L 162.939675 166.679952 
L 163.237038 172.363797 
L 163.831763 162.922972 
L 164.129125 164.866693 
L 164.426488 163.250021 
L 164.72385 163.528815 
L 165.021213 162.54567 
L 165.318575 164.734495 
L 165.615938 168.756 
L 165.9133 174.852963 
L 166.210663 170.893045 
L 166.508025 169.626966 
L 166.805387 167.792527 
L 167.697475 145.416625 
L 167.994838 146.745184 
L 168.2922 138.338533 
L 168.589562 141.034988 
L 169.779013 169.43221 
L 170.076375 180.23553 
L 170.373738 164.477698 
L 171.265825 148.242157 
L 171.563188 141.516911 
L 171.86055 129.671663 
L 172.157913 152.052982 
L 172.455275 145.996549 
L 172.752638 143.533997 
L 173.347363 126.927102 
L 173.644725 136.748066 
L 173.942088 136.340136 
L 174.23945 131.426986 
L 174.536812 128.640999 
L 174.834175 128.135397 
L 175.131538 135.565051 
L 175.4289 139.176824 
L 175.726263 136.52681 
L 176.023625 134.88589 
L 176.320988 142.895421 
L 176.61835 143.131009 
L 176.915713 140.3192 
L 177.213075 125.52289 
L 177.8078 142.877571 
L 178.105163 138.788934 
L 178.402525 139.984108 
L 178.699887 147.621739 
L 178.99725 144.684111 
L 179.294613 143.773342 
L 179.591975 135.399303 
L 179.889338 130.985499 
L 180.1867 135.979729 
L 180.484062 145.195665 
L 180.781425 144.679384 
L 181.078788 154.375145 
L 181.970875 162.481008 
L 182.268237 156.939334 
L 182.862963 171.626281 
L 183.160325 171.506591 
L 183.457688 180.886259 
L 183.75505 180.449016 
L 184.052413 172.925587 
L 184.349775 171.838602 
L 184.647138 171.432376 
L 184.9445 189.551075 
L 185.241863 199.734629 
L 185.539225 205.458025 
L 186.13395 224.403631 
L 186.728675 215.599469 
L 187.3234 203.657515 
L 187.620763 205.388081 
L 187.918125 212.501897 
L 188.215487 207.334942 
L 188.51285 199.418326 
L 188.810213 205.737734 
L 189.107575 207.26949 
L 189.404938 211.044653 
L 189.7023 209.592847 
L 189.999662 204.506789 
L 190.297025 205.026858 
L 190.594388 200.303275 
L 190.89175 189.343189 
L 191.189113 192.888674 
L 191.486475 186.174921 
L 191.783838 191.812614 
L 192.0812 181.102074 
L 192.378562 180.413519 
L 192.675925 184.681739 
L 192.973288 183.34124 
L 193.27065 179.862621 
L 193.568013 182.324278 
L 193.865375 175.357307 
L 194.162737 188.260456 
L 194.4601 184.733433 
L 194.757463 173.598045 
L 195.054825 171.128639 
L 195.352188 183.918102 
L 195.64955 181.929403 
L 195.946912 174.226431 
L 196.541638 184.0308 
L 196.839 179.800507 
L 197.136363 164.492189 
L 197.433725 168.501826 
L 197.731088 176.72545 
L 198.02845 174.254857 
L 198.325813 167.028522 
L 198.623175 171.906801 
L 198.920538 172.507989 
L 199.2179 172.31916 
L 199.515263 166.923539 
L 199.812625 150.66509 
L 200.109987 145.112618 
L 200.40735 144.08901 
L 200.704713 144.278379 
L 201.002075 137.486904 
L 201.299438 124.458805 
L 201.5968 140.648847 
L 201.894162 135.414473 
L 202.191525 132.401691 
L 202.488888 123.851853 
L 202.78625 127.923176 
L 203.083613 140.834663 
L 203.678337 126.539034 
L 203.9757 126.377566 
L 204.273063 135.901413 
L 204.867788 117.839825 
L 205.16515 116.296304 
L 205.462513 125.799652 
L 205.759875 124.106013 
L 206.057238 134.005804 
L 206.3546 135.119018 
L 206.651963 139.886172 
L 206.949325 133.014957 
L 207.246688 132.952806 
L 207.54405 148.352559 
L 207.841412 147.122672 
L 208.138775 151.170225 
L 208.436138 151.530729 
L 208.7335 163.352158 
L 209.030863 161.162532 
L 209.328225 168.027582 
L 209.92295 159.21148 
L 210.220313 149.800039 
L 210.517675 163.211792 
L 210.815038 160.927098 
L 211.1124 138.338539 
L 211.409762 149.224536 
L 211.707125 169.319124 
L 212.004488 166.520153 
L 212.30185 158.775359 
L 212.599213 158.958505 
L 212.896575 150.258457 
L 213.4913 159.455062 
L 213.788662 155.357808 
L 214.086025 157.417462 
L 214.383388 158.323672 
L 214.68075 153.419781 
L 214.978113 142.312818 
L 215.275475 144.604841 
L 215.572837 160.499288 
L 215.8702 156.369069 
L 216.167563 139.711029 
L 216.464925 142.383393 
L 216.762288 137.474022 
L 217.357012 149.503877 
L 217.654375 141.539835 
L 217.951738 144.459139 
L 218.2491 150.487539 
L 218.546463 153.703985 
L 218.843825 145.670309 
L 219.141188 164.265524 
L 219.43855 173.934601 
L 219.735913 187.76975 
L 220.033275 191.100159 
L 220.330638 190.17989 
L 220.628 178.410562 
L 220.925363 176.566694 
L 221.222725 179.069003 
L 221.520087 178.146354 
L 221.81745 191.071433 
L 222.114812 173.913336 
L 222.412175 178.979541 
L 222.709538 179.681942 
L 223.0069 192.848129 
L 223.304262 175.469326 
L 223.601625 189.982347 
L 224.493713 166.048399 
L 224.791075 171.022739 
L 225.088437 161.536197 
L 225.3858 161.825359 
L 225.683163 166.575314 
L 225.980525 168.371838 
L 226.277888 157.084448 
L 226.57525 162.429694 
L 227.467337 198.201295 
L 228.062063 171.447301 
L 228.359425 179.015033 
L 228.656788 178.093594 
L 229.251512 166.74978 
L 229.548875 170.485678 
L 229.846238 176.139091 
L 230.1436 175.112501 
L 230.440963 174.957768 
L 230.738325 182.783574 
L 231.035687 186.18708 
L 231.33305 196.320676 
L 231.630413 193.446108 
L 231.927775 185.069953 
L 232.225138 185.453685 
L 232.819862 172.481026 
L 233.117225 174.402402 
L 233.414588 169.117101 
L 233.71195 160.471879 
L 234.009313 164.412231 
L 234.604038 140.623632 
L 234.9014 142.94691 
L 235.198762 156.767321 
L 235.496125 155.635955 
L 235.793487 157.562261 
L 236.388213 144.737683 
L 236.685575 147.294754 
L 236.982937 140.786737 
L 237.2803 148.692264 
L 237.577663 151.672431 
L 237.875025 158.798037 
L 238.172388 147.24048 
L 238.46975 168.671166 
L 238.767112 174.363851 
L 239.064475 173.395546 
L 239.6592 165.981202 
L 239.956563 153.588624 
L 240.253925 174.039563 
L 240.551288 174.373184 
L 240.84865 169.627714 
L 241.443375 150.206474 
L 242.0381 131.265225 
L 242.632825 163.592759 
L 243.22755 138.856428 
L 243.524912 145.277011 
L 243.822275 156.742959 
L 244.119638 157.81257 
L 244.417 150.521835 
L 244.714362 139.674065 
L 245.011725 144.104692 
L 245.309088 143.255777 
L 245.60645 141.090941 
L 246.201175 144.490338 
L 246.498537 148.055181 
L 246.7959 147.195908 
L 247.390625 159.921902 
L 247.687987 152.07766 
L 247.98535 158.657308 
L 248.282713 159.082717 
L 248.580075 156.585389 
L 248.877438 161.454604 
L 249.1748 161.803477 
L 249.472162 160.08092 
L 249.769525 150.69098 
L 250.066888 153.769039 
L 250.36425 153.262455 
L 250.661612 164.946542 
L 250.958975 159.847698 
L 251.256338 151.37483 
L 251.5537 153.157314 
L 251.851063 142.974834 
L 252.148425 136.938633 
L 252.445787 126.172725 
L 252.74315 130.881604 
L 253.040513 111.93799 
L 253.635238 132.142045 
L 253.9326 136.608356 
L 254.229962 142.833393 
L 254.527325 156.109715 
L 255.12205 132.437487 
L 255.419412 147.311599 
L 255.716775 142.154668 
L 256.014138 146.876945 
L 256.3115 154.76022 
L 256.608862 153.517266 
L 257.203588 139.276086 
L 257.50095 138.325254 
L 257.798313 149.757848 
L 258.095675 129.015037 
L 258.393037 134.676785 
L 258.6904 132.223815 
L 258.987763 127.084716 
L 259.285125 133.105462 
L 259.582488 142.443975 
L 259.87985 129.476522 
L 260.177212 136.204107 
L 260.474575 126.451746 
L 260.771938 112.81163 
L 261.0693 118.410072 
L 261.366662 117.097064 
L 261.664025 117.058302 
L 262.25875 124.641637 
L 263.150837 128.982912 
L 263.4482 136.544947 
L 263.745563 134.862709 
L 264.042925 138.266097 
L 264.340287 128.541207 
L 264.63765 130.580605 
L 264.935012 130.489504 
L 265.529738 144.167016 
L 265.8271 144.465617 
L 266.124462 142.758846 
L 266.421825 152.702756 
L 266.719187 152.230986 
L 267.01655 165.890129 
L 267.313913 165.049711 
L 267.611275 175.890401 
L 267.908637 166.958382 
L 268.206 164.991804 
L 268.503362 158.970902 
L 268.800725 166.012275 
L 269.098088 162.414761 
L 269.39545 170.059247 
L 269.692813 189.969443 
L 269.990175 183.710053 
L 270.287537 187.33732 
L 270.882263 172.591769 
L 271.179625 173.523007 
L 271.476988 177.608265 
L 271.77435 169.507153 
L 272.071712 172.794865 
L 272.369075 177.832502 
L 272.666438 203.931635 
L 272.9638 187.228779 
L 273.261163 192.111912 
L 273.558525 199.206778 
L 273.855887 196.403159 
L 274.15325 185.513773 
L 274.450613 188.994338 
L 274.747975 185.133647 
L 275.3427 211.236396 
L 275.640062 195.211573 
L 276.234788 189.748661 
L 276.829512 180.151119 
L 277.126875 182.019762 
L 277.424238 179.655563 
L 277.7216 181.770141 
L 278.018962 174.512078 
L 278.316325 178.980791 
L 278.613687 176.86198 
L 278.91105 201.658552 
L 279.208413 214.175706 
L 279.803137 197.815629 
L 280.1005 200.22649 
L 280.397862 207.219645 
L 280.695225 207.426817 
L 280.992588 206.857203 
L 281.28995 206.536368 
L 281.587312 198.583777 
L 281.884675 197.795463 
L 282.182037 200.972308 
L 282.4794 199.759862 
L 282.776763 197.691141 
L 283.074125 194.807283 
L 283.371488 190.301197 
L 283.66885 191.868039 
L 284.263575 174.141326 
L 284.560938 173.938198 
L 284.8583 171.593554 
L 285.155663 161.02154 
L 285.453025 157.653372 
L 285.750387 156.906868 
L 286.04775 152.359424 
L 286.345113 152.833631 
L 286.642475 159.94071 
L 287.2372 147.340746 
L 287.534562 159.795067 
L 287.831925 164.219131 
L 288.129288 158.575699 
L 288.42665 158.017149 
L 288.724012 158.434567 
L 289.318737 172.918153 
L 289.6161 166.160641 
L 289.913463 171.098137 
L 290.210825 172.70984 
L 290.508187 170.793109 
L 290.80555 165.786952 
L 291.102913 163.228919 
L 291.400275 168.028805 
L 291.697638 157.615173 
L 291.995 154.973034 
L 292.292362 145.132765 
L 292.589725 139.059605 
L 292.887088 141.335302 
L 293.779175 104.594537 
L 294.076537 110.577719 
L 294.3739 113.030682 
L 294.968625 109.472893 
L 295.265987 105.34619 
L 295.56335 91.286124 
L 296.158075 83.08099 
L 296.455438 86.54879 
L 296.7528 75.603715 
L 297.050162 75.592866 
L 297.347525 68.355528 
L 297.644887 70.218986 
L 297.94225 66.377292 
L 298.239613 64.872297 
L 298.536975 68.694989 
L 299.429062 45.652932 
L 299.726425 53.746818 
L 300.023788 57.174402 
L 300.32115 67.176847 
L 300.618513 62.487373 
L 300.915875 64.604247 
L 301.213237 59.363137 
L 301.5106 45.036689 
L 301.807963 49.061185 
L 302.105325 47.827237 
L 302.402687 36.843864 
L 302.70005 44.559049 
L 302.997412 60.334668 
L 303.294775 56.536819 
L 303.8895 61.390638 
L 304.484225 38.308356 
L 305.07895 59.065141 
L 305.376313 57.746295 
L 305.673675 71.997847 
L 305.971037 65.983461 
L 306.2684 65.783878 
L 306.565763 67.114378 
L 307.160487 98.038652 
L 307.45785 97.742848 
L 307.755212 120.370853 
L 308.052575 116.528256 
L 308.349938 110.695388 
L 308.6473 110.735125 
L 309.242025 101.555904 
L 309.539387 113.866252 
L 309.83675 115.237529 
L 310.431475 138.492695 
L 310.728837 140.913491 
L 311.0262 129.05583 
L 311.323562 126.968475 
L 311.620925 140.123253 
L 311.918288 138.155639 
L 312.21565 142.563481 
L 312.513013 139.541632 
L 312.810375 143.686279 
L 313.107737 143.058871 
L 313.4051 151.222269 
L 313.702463 154.732801 
L 313.999825 173.627339 
L 314.297188 176.563862 
L 314.59455 186.09741 
L 314.891912 182.39274 
L 315.189275 185.63756 
L 315.784 196.283988 
L 316.081362 217.856167 
L 316.97345 236.786443 
L 317.568175 201.176946 
L 317.865537 218.1171 
L 318.1629 218.666064 
L 318.460262 206.665082 
L 318.757625 215.805637 
L 319.054988 218.457478 
L 319.35235 215.95579 
L 319.649712 209.238476 
L 319.947075 213.935566 
L 320.244438 200.277745 
L 320.5418 197.090349 
L 320.839162 208.963997 
L 321.136525 210.02519 
L 321.433887 197.858836 
L 321.73125 192.591105 
L 322.028613 194.119328 
L 322.325975 183.591104 
L 322.623337 187.503703 
L 322.9207 203.797249 
L 323.218062 202.088453 
L 323.812788 216.767298 
L 324.407512 200.01866 
L 325.002237 184.328533 
L 325.2996 184.26844 
L 325.894325 206.563793 
L 326.191688 186.793773 
L 326.48905 183.135133 
L 327.381138 177.735168 
L 327.6785 181.802236 
L 327.975863 177.870089 
L 328.273225 177.297921 
L 328.570587 162.575 
L 328.86795 168.351178 
L 329.462675 154.061493 
L 329.760038 169.243481 
L 330.0574 158.256357 
L 330.354762 151.946837 
L 330.652125 141.70147 
L 330.949488 141.729179 
L 331.24685 141.081744 
L 331.544212 138.05055 
L 331.841575 155.417943 
L 332.138937 151.286819 
L 332.4363 139.212958 
L 332.733663 132.524237 
L 333.031025 137.648625 
L 333.328387 136.527032 
L 333.62575 139.481941 
L 333.923113 141.326759 
L 334.517837 158.82916 
L 334.8152 156.070785 
L 335.112562 171.926219 
L 335.409925 158.343602 
L 335.707288 165.678657 
L 336.00465 162.407866 
L 336.302012 157.688994 
L 336.599375 158.996039 
L 336.896737 165.451146 
L 337.1941 162.86869 
L 337.491463 149.369106 
L 338.086187 158.221851 
L 338.38355 151.731332 
L 338.978275 173.461385 
L 339.870362 185.464931 
L 340.465087 171.639693 
L 340.76245 175.06387 
L 341.059813 184.17513 
L 341.357175 185.166989 
L 341.9519 209.352289 
L 342.249262 207.32813 
L 342.546625 208.17166 
L 342.843988 203.69842 
L 343.14135 208.761117 
L 343.438713 210.989157 
L 343.736075 207.959005 
L 344.033437 210.100655 
L 344.3308 204.563332 
L 344.628163 221.872503 
L 344.925525 223.078996 
L 345.222887 225.549307 
L 345.52025 226.679205 
L 345.817612 222.615354 
L 346.114975 228.931545 
L 346.412338 220.170012 
L 346.7097 221.361894 
L 347.007062 219.419497 
L 347.601788 230.987046 
L 347.89915 232.500974 
L 348.196512 221.151207 
L 348.493875 219.071693 
L 348.791237 214.773847 
L 349.0886 206.295414 
L 349.385963 212.796519 
L 349.683325 204.945811 
L 349.980687 221.693217 
L 350.27805 221.812675 
L 350.575412 224.604356 
L 350.872775 230.986328 
L 351.170138 232.412692 
L 351.4675 230.297427 
L 351.764862 225.251893 
L 352.062225 237.481755 
L 352.359587 236.705881 
L 352.65695 221.513391 
L 352.954313 212.352688 
L 353.251675 215.914759 
L 353.549037 220.831037 
L 353.8464 215.585183 
L 354.143762 207.365216 
L 354.441125 206.065797 
L 354.738488 206.680591 
L 355.03585 206.980538 
L 355.333213 207.716757 
L 355.630575 204.264575 
L 355.927937 207.962937 
L 356.522663 197.624477 
L 356.820025 209.804156 
L 357.117388 209.308676 
L 357.41475 215.241941 
L 357.712112 217.333957 
L 358.009475 214.512957 
L 358.306838 205.481392 
L 358.6042 212.193718 
L 359.198925 191.611326 
L 359.496287 200.128133 
L 359.79365 203.367858 
L 360.091013 186.087083 
L 360.388375 190.487614 
L 360.685737 190.782585 
L 361.577825 177.451739 
L 361.875187 179.920089 
L 362.17255 176.214768 
L 362.469912 166.304916 
L 362.767275 178.898399 
L 363.064638 182.451783 
L 363.362 174.67739 
L 363.659362 181.837529 
L 363.956725 179.50784 
L 364.254087 184.060144 
L 364.55145 179.223693 
L 365.146175 192.296673 
L 365.443537 182.913927 
L 365.7409 178.521322 
L 366.038262 179.090301 
L 366.335625 194.352396 
L 366.632988 199.595486 
L 366.93035 198.809894 
L 367.227712 202.245005 
L 367.525075 203.18145 
L 367.822437 184.699991 
L 368.1198 178.692043 
L 368.417163 179.125492 
L 369.30925 194.757893 
L 369.606612 195.929188 
L 369.903975 196.172909 
L 370.201338 206.83967 
L 370.4987 207.723025 
L 370.796062 202.253322 
L 371.390787 155.065412 
L 371.68815 154.219732 
L 371.985513 147.575662 
L 372.282875 148.340864 
L 372.580237 131.186913 
L 372.8776 134.829858 
L 373.174962 131.487134 
L 373.472325 138.545534 
L 373.769688 139.600066 
L 374.06705 136.151272 
L 374.364412 118.535882 
L 374.661775 126.928814 
L 374.959137 128.51837 
L 375.2565 132.732678 
L 375.553863 140.526048 
L 376.148587 174.307071 
L 376.44595 160.465762 
L 376.743313 164.059008 
L 377.040675 181.672262 
L 377.338038 175.311512 
L 377.6354 175.69446 
L 377.932762 178.160193 
L 378.230125 172.087031 
L 378.527488 179.630807 
L 378.82485 179.282307 
L 379.122213 180.793017 
L 379.419575 174.456951 
L 379.716937 170.513064 
L 380.0143 183.394018 
L 380.609025 168.097353 
L 381.20375 140.389118 
L 381.501112 142.523953 
L 381.798475 133.393484 
L 382.3932 145.511609 
L 382.690562 143.567427 
L 382.987925 140.789321 
L 383.285287 145.738383 
L 383.58265 141.876478 
L 383.880013 140.194798 
L 384.177375 136.404894 
L 384.474737 146.033274 
L 385.069462 133.213695 
L 385.366825 132.01186 
L 385.664188 163.045254 
L 385.96155 173.969053 
L 386.556275 182.094319 
L 386.853637 171.184356 
L 387.151 187.696587 
L 387.448363 197.416354 
L 387.745725 194.829555 
L 388.043087 196.954537 
L 388.34045 194.177822 
L 388.637812 183.837484 
L 388.935175 201.133011 
L 389.232538 205.525566 
L 389.5299 198.660335 
L 389.827262 196.963121 
L 390.124625 200.336075 
L 390.421988 187.424042 
L 390.71935 182.914269 
L 391.016713 193.133463 
L 391.314075 194.726009 
L 391.611437 187.265395 
L 391.9088 199.343682 
L 392.206163 194.14121 
L 392.503525 200.916606 
L 392.800888 196.232541 
L 393.09825 195.375597 
L 393.395612 193.665734 
L 393.692975 186.364392 
L 394.2877 180.098296 
L 394.585062 162.770415 
L 394.882425 160.806488 
L 395.179787 154.777303 
L 395.47715 152.050185 
L 395.774513 151.662426 
L 396.071875 157.294925 
L 396.369237 169.401439 
L 396.6666 156.616606 
L 396.963962 157.946503 
L 397.261325 160.932609 
L 397.558688 177.403224 
L 397.85605 180.785904 
L 398.153412 188.720779 
L 398.450775 181.787521 
L 398.748137 186.413779 
L 399.0455 174.827182 
L 399.342863 180.293152 
L 399.937587 204.005717 
L 400.23495 196.501533 
L 400.532312 199.726294 
L 400.829675 197.649289 
L 401.127038 200.196732 
L 401.4244 217.210104 
L 401.721762 215.455754 
L 402.019125 206.203569 
L 402.316487 210.046003 
L 402.61385 199.295722 
L 402.911213 201.642287 
L 403.208575 210.967124 
L 403.505937 211.007203 
L 403.8033 211.159891 
L 404.100662 215.865586 
L 404.398025 205.625004 
L 404.695388 207.908541 
L 404.99275 206.505101 
L 405.884838 192.443273 
L 406.1822 192.506095 
L 406.479563 178.998111 
L 406.776925 189.413727 
L 407.074287 190.586178 
L 407.37165 195.31448 
L 407.966375 200.899404 
L 408.263737 196.138927 
L 408.5611 194.183497 
L 408.858462 197.076897 
L 409.453188 213.117092 
L 409.75055 226.312709 
L 410.047912 245.885994 
L 410.345275 255.321136 
L 410.642637 255.108201 
L 410.642637 255.108201 
" clip-path="url(#pccd840be86)" style="fill: none; stroke: #1f77b4; stroke-width: 1.5; stroke-linecap: square"/>
   </g>
   <g id="patch_3">
    <path d="M 113.5775 266.245 
L 113.5775 25.92 
" style="fill: none; stroke: #000000; stroke-width: 0.8; stroke-linejoin: miter; stroke-linecap: square"/>
   </g>
   <g id="patch_4">
    <path d="M 410.94 266.245 
L 410.94 25.92 
" style="fill: none; stroke: #000000; stroke-width: 0.8; stroke-linejoin: miter; stroke-linecap: square"/>
   </g>
   <g id="patch_5">
    <path d="M 113.5775 266.245 
L 410.94 266.245 
" style="fill: none; stroke: #000000; stroke-width: 0.8; stroke-linejoin: miter; stroke-linecap: square"/>
   </g>
   <g id="patch_6">
    <path d="M 113.5775 25.92 
L 410.94 25.92 
" style="fill: none; stroke: #000000; stroke-width: 0.8; stroke-linejoin: miter; stroke-linecap: square"/>
   </g>
  </g>
 </g>
 <defs>
  <clipPath id="pccd840be86">
   <rect x="113.5775" y="25.92" width="297.3625" height="240.325"/>
  </clipPath>
 </defs>
</svg>
