<?xml version="1.0" encoding="utf-8" standalone="no"?>
<!DOCTYPE svg PUBLIC "-//W3C//DTD SVG 1.1//EN"
  "http://www.w3.org/Graphics/SVG/1.1/DTD/svg11.dtd">
<svg xmlns:xlink="http://www.w3.org/1999/xlink" width="460.8pt" height="345.6pt" viewBox="0 0 460.8 345.6" xmlns="http://www.w3.org/2000/svg" version="1.1">
 <metadata>
  <rdf:RDF xmlns:dc="http://purl.org/dc/elements/1.1/" xmlns:cc="http://creativecommons.org/ns#" xmlns:rdf="http://www.w3.org/1999/02/22-rdf-syntax-ns#">
   <cc:Work>
    <dc:type rdf:resource="http://purl.org/dc/dcmitype/StillImage"/>
    <dc:date>2026-02-02T15:32:54.888062</dc:date>
    <dc:format>image/svg+xml</dc:format>
    <dc:creator>
     <cc:Agent>
      <dc:title>Matplotlib v3.10.8, https://matplotlib.org/</dc:title>
     </cc:Agent>
    </dc:creator>
   </cc:Work>
  </rdf:RDF>
 </metadata>
 <defs>
  <style type="text/css">*{stroke-linejoin: round; stroke-linecap: butt}</style>
 </defs>
 <g id="figure_1">
  <g id="patch_1">
   <path d="M 0 345.6 
L 460.8 345.6 
L 460.8 0 
L 0 0 
z
" style="fill: #ffffff"/>
  </g>
  <g id="axes_1">
   <g id="patch_2">
    <path d="M 66.935 280.51 
L 423.36 280.51 
L 423.36 19.566014 
L 66.935 19.566014 
z
" style="fill: #ffffff"/>
   </g>
   <g id="matplotlib.axis_1">
    <g id="xtick_1">
     <g id="line2d_1">
      <path d="M 66.935 280.51 
L 66.935 19.566014 
" clip-path="url(#pf1100f3541)" style="fill: none; stroke: #b0b0b0; stroke-width: 0.8; stroke-linecap: square"/>
     </g>
     <g id="line2d_2">
      <defs>
       <path id="mab2b60efc0" d="M 0 0 
L 0 3.5 
" style="stroke: #000000; stroke-width: 0.8"/>
      </defs>
      <g>
       <use xlink:href="#mab2b60efc0" x="66.935" y="280.51" style="stroke: #000000; stroke-width: 0.8"/>
      </g>
     </g>
     <g id="text_1">
      <!-- 0 -->
      <g transform="translate(62.435 299.803437) scale(0.18 -0.18)">
       <defs>
        <path id="TeXGyreTermes-Regular-30" d="M 3046 2112 
C 3046 3424 2464 4326 1626 4326 
C 1274 4326 1005 4218 768 3994 
C 397 3635 154 2899 154 2150 
C 154 1453 365 704 666 346 
C 902 64 1229 -90 1600 -90 
C 1926 -90 2202 19 2432 243 
C 2803 595 3046 1338 3046 2112 
z
M 2432 2099 
C 2432 762 2150 77 1600 77 
C 1050 77 768 762 768 2093 
C 768 3450 1056 4160 1606 4160 
C 2144 4160 2432 3437 2432 2099 
z
" transform="scale(0.015625)"/>
       </defs>
       <use xlink:href="#TeXGyreTermes-Regular-30"/>
      </g>
     </g>
    </g>
    <g id="xtick_2">
     <g id="line2d_3">
      <path d="M 138.22 280.51 
L 138.22 19.566014 
" clip-path="url(#pf1100f3541)" style="fill: none; stroke: #b0b0b0; stroke-width: 0.8; stroke-linecap: square"/>
     </g>
     <g id="line2d_4">
      <g>
       <use xlink:href="#mab2b60efc0" x="138.22" y="280.51" style="stroke: #000000; stroke-width: 0.8"/>
      </g>
     </g>
     <g id="text_2">
      <!-- 200 -->
      <g transform="translate(124.72 299.803437) scale(0.18 -0.18)">
       <defs>
        <path id="TeXGyreTermes-Regular-32" d="M 3040 877 
L 2957 909 
C 2720 544 2637 486 2349 486 
L 819 486 
L 1894 1613 
C 2464 2208 2714 2694 2714 3194 
C 2714 3834 2195 4326 1530 4326 
C 1178 4326 845 4186 608 3930 
C 403 3712 307 3507 198 3053 
L 333 3021 
C 589 3648 819 3853 1261 3853 
C 1798 3853 2163 3488 2163 2950 
C 2163 2451 1869 1856 1331 1286 
L 192 77 
L 192 0 
L 2688 0 
L 3040 877 
z
" transform="scale(0.015625)"/>
       </defs>
       <use xlink:href="#TeXGyreTermes-Regular-32"/>
       <use xlink:href="#TeXGyreTermes-Regular-30" transform="translate(49.999985 0)"/>
       <use xlink:href="#TeXGyreTermes-Regular-30" transform="translate(99.999969 0)"/>
      </g>
     </g>
    </g>
    <g id="xtick_3">
     <g id="line2d_5">
      <path d="M 209.505 280.51 
L 209.505 19.566014 
" clip-path="url(#pf1100f3541)" style="fill: none; stroke: #b0b0b0; stroke-width: 0.8; stroke-linecap: square"/>
     </g>
     <g id="line2d_6">
      <g>
       <use xlink:href="#mab2b60efc0" x="209.505" y="280.51" style="stroke: #000000; stroke-width: 0.8"/>
      </g>
     </g>
     <g id="text_3">
      <!-- 400 -->
      <g transform="translate(196.005 299.803437) scale(0.18 -0.18)">
       <defs>
        <path id="TeXGyreTermes-Regular-34" d="M 3021 1069 
L 3021 1478 
L 2368 1478 
L 2368 4326 
L 2086 4326 
L 77 1478 
L 77 1069 
L 1875 1069 
L 1875 0 
L 2368 0 
L 2368 1069 
L 3021 1069 
z
M 1869 1478 
L 333 1478 
L 1869 3674 
L 1869 1478 
z
" transform="scale(0.015625)"/>
       </defs>
       <use xlink:href="#TeXGyreTermes-Regular-34"/>
       <use xlink:href="#TeXGyreTermes-Regular-30" transform="translate(49.999985 0)"/>
       <use xlink:href="#TeXGyreTermes-Regular-30" transform="translate(99.999969 0)"/>
      </g>
     </g>
    </g>
    <g id="xtick_4">
     <g id="line2d_7">
      <path d="M 280.79 280.51 
L 280.79 19.566014 
" clip-path="url(#pf1100f3541)" style="fill: none; stroke: #b0b0b0; stroke-width: 0.8; stroke-linecap: square"/>
     </g>
     <g id="line2d_8">
      <g>
       <use xlink:href="#mab2b60efc0" x="280.79" y="280.51" style="stroke: #000000; stroke-width: 0.8"/>
      </g>
     </g>
     <g id="text_4">
      <!-- 600 -->
      <g transform="translate(267.29 299.803437) scale(0.18 -0.18)">
       <defs>
        <path id="TeXGyreTermes-Regular-36" d="M 2995 1402 
C 2995 2221 2528 2739 1792 2739 
C 1510 2739 1376 2694 973 2451 
C 1146 3418 1862 4109 2867 4275 
L 2854 4378 
C 2125 4314 1754 4192 1286 3866 
C 595 3373 218 2643 218 1786 
C 218 1229 390 666 666 346 
C 909 64 1254 -90 1651 -90 
C 2445 -90 2995 518 2995 1402 
z
M 2419 1184 
C 2419 480 2170 90 1722 90 
C 1158 90 813 691 813 1683 
C 813 2010 864 2189 992 2285 
C 1126 2387 1325 2445 1549 2445 
C 2099 2445 2419 1984 2419 1184 
z
" transform="scale(0.015625)"/>
       </defs>
       <use xlink:href="#TeXGyreTermes-Regular-36"/>
       <use xlink:href="#TeXGyreTermes-Regular-30" transform="translate(49.999985 0)"/>
       <use xlink:href="#TeXGyreTermes-Regular-30" transform="translate(99.999969 0)"/>
      </g>
     </g>
    </g>
    <g id="xtick_5">
     <g id="line2d_9">
      <path d="M 352.075 280.51 
L 352.075 19.566014 
" clip-path="url(#pf1100f3541)" style="fill: none; stroke: #b0b0b0; stroke-width: 0.8; stroke-linecap: square"/>
     </g>
     <g id="line2d_10">
      <g>
       <use xlink:href="#mab2b60efc0" x="352.075" y="280.51" style="stroke: #000000; stroke-width: 0.8"/>
      </g>
     </g>
     <g id="text_5">
      <!-- 800 -->
      <g transform="translate(338.575 299.803437) scale(0.18 -0.18)">
       <defs>
        <path id="TeXGyreTermes-Regular-38" d="M 2848 992 
C 2848 1485 2630 1798 1856 2374 
C 2490 2714 2714 2982 2714 3418 
C 2714 3942 2253 4326 1613 4326 
C 915 4326 397 3898 397 3315 
C 397 2899 518 2714 1190 2125 
C 499 1600 358 1402 358 966 
C 358 346 864 -90 1587 -90 
C 2355 -90 2848 333 2848 992 
z
M 2362 794 
C 2362 378 2074 90 1658 90 
C 1171 90 845 461 845 1018 
C 845 1427 986 1696 1357 1997 
L 1741 1715 
C 2208 1382 2362 1152 2362 794 
z
M 2272 3424 
C 2272 3059 2093 2771 1728 2528 
C 1696 2509 1696 2509 1670 2490 
C 1101 2861 870 3155 870 3514 
C 870 3885 1158 4147 1562 4147 
C 1997 4147 2272 3866 2272 3424 
z
" transform="scale(0.015625)"/>
       </defs>
       <use xlink:href="#TeXGyreTermes-Regular-38"/>
       <use xlink:href="#TeXGyreTermes-Regular-30" transform="translate(49.999985 0)"/>
       <use xlink:href="#TeXGyreTermes-Regular-30" transform="translate(99.999969 0)"/>
      </g>
     </g>
    </g>
    <g id="xtick_6">
     <g id="line2d_11">
      <path d="M 423.36 280.51 
L 423.36 19.566014 
" clip-path="url(#pf1100f3541)" style="fill: none; stroke: #b0b0b0; stroke-width: 0.8; stroke-linecap: square"/>
     </g>
     <g id="line2d_12">
      <g>
       <use xlink:href="#mab2b60efc0" x="423.36" y="280.51" style="stroke: #000000; stroke-width: 0.8"/>
      </g>
     </g>
     <g id="text_6">
      <!-- 1000 -->
      <g transform="translate(405.36 299.803437) scale(0.18 -0.18)">
       <defs>
        <path id="TeXGyreTermes-Regular-31" d="M 2522 0 
L 2522 96 
C 2016 102 1914 166 1914 474 
L 1914 4314 
L 1862 4326 
L 710 3744 
L 710 3654 
C 787 3686 858 3712 883 3725 
C 998 3770 1107 3795 1171 3795 
C 1306 3795 1363 3699 1363 3494 
L 1363 595 
C 1363 384 1312 237 1210 179 
C 1114 122 1024 102 755 96 
L 755 0 
L 2522 0 
z
" transform="scale(0.015625)"/>
       </defs>
       <use xlink:href="#TeXGyreTermes-Regular-31"/>
       <use xlink:href="#TeXGyreTermes-Regular-30" transform="translate(49.999985 0)"/>
       <use xlink:href="#TeXGyreTermes-Regular-30" transform="translate(99.999969 0)"/>
       <use xlink:href="#TeXGyreTermes-Regular-30" transform="translate(149.999954 0)"/>
      </g>
     </g>
    </g>
    <g id="text_7">
     <!-- Schritt k -->
     <g transform="translate(214.395625 320.003437) scale(0.18 -0.18)">
      <defs>
       <path id="TeXGyreTermes-Regular-53" d="M 3142 1075 
C 3142 1606 2790 2016 1946 2477 
C 1274 2842 1005 3123 1005 3475 
C 1005 3827 1274 4064 1670 4064 
C 1958 4064 2227 3942 2451 3712 
C 2650 3507 2739 3341 2842 2963 
L 3002 2963 
L 2861 4326 
L 2726 4326 
C 2701 4186 2630 4109 2522 4109 
C 2458 4109 2355 4134 2240 4186 
C 2003 4275 1773 4326 1549 4326 
C 1299 4326 1030 4224 826 4058 
C 576 3853 454 3578 454 3226 
C 454 2720 736 2362 1453 1984 
C 1914 1734 2246 1478 2406 1235 
C 2464 1146 2496 1018 2496 858 
C 2496 435 2176 141 1709 141 
C 1133 141 736 493 416 1274 
L 269 1274 
L 461 -83 
L 602 -83 
C 608 38 685 128 781 128 
C 851 128 960 102 1082 58 
C 1325 -38 1581 -90 1837 -90 
C 2579 -90 3142 416 3142 1075 
z
" transform="scale(0.015625)"/>
       <path id="TeXGyreTermes-Regular-63" d="M 2637 941 
L 2547 998 
C 2240 550 2010 397 1645 397 
C 1056 397 653 909 653 1645 
C 653 2310 1005 2758 1523 2758 
C 1754 2758 1837 2688 1901 2451 
L 1939 2310 
C 1990 2125 2106 2016 2246 2016 
C 2413 2016 2547 2138 2547 2285 
C 2547 2643 2099 2944 1562 2944 
C 1261 2944 954 2829 698 2618 
C 352 2330 160 1888 160 1357 
C 160 531 666 -64 1376 -64 
C 1651 -64 1894 26 2112 205 
C 2304 358 2432 544 2637 941 
z
" transform="scale(0.015625)"/>
       <path id="TeXGyreTermes-Regular-68" d="M 3117 0 
L 3117 96 
C 2771 160 2733 211 2733 653 
L 2733 1926 
C 2733 2598 2464 2944 1946 2944 
C 1568 2944 1299 2790 1005 2406 
L 1005 4352 
L 973 4371 
C 755 4294 595 4243 237 4141 
L 64 4090 
L 64 3987 
C 90 3994 109 3994 141 3994 
C 416 3994 467 3942 467 3667 
L 467 653 
C 467 205 429 147 58 96 
L 58 0 
L 1440 0 
L 1440 96 
C 1069 134 1005 211 1005 653 
L 1005 2195 
C 1274 2490 1466 2598 1715 2598 
C 2035 2598 2195 2368 2195 1920 
L 2195 653 
C 2195 218 2131 134 1760 96 
L 1760 0 
L 3117 0 
z
" transform="scale(0.015625)"/>
       <path id="TeXGyreTermes-Regular-72" d="M 2144 2605 
C 2144 2816 2010 2944 1792 2944 
C 1523 2944 1338 2797 1024 2342 
L 1024 2931 
L 992 2944 
C 653 2803 422 2720 45 2598 
L 45 2496 
C 134 2515 192 2522 269 2522 
C 429 2522 486 2419 486 2138 
L 486 538 
C 486 218 442 173 32 96 
L 32 0 
L 1568 0 
L 1568 96 
C 1133 115 1024 211 1024 576 
L 1024 2016 
C 1024 2221 1299 2541 1472 2541 
C 1510 2541 1568 2509 1638 2445 
C 1741 2355 1811 2317 1894 2317 
C 2048 2317 2144 2426 2144 2605 
z
" transform="scale(0.015625)"/>
       <path id="TeXGyreTermes-Regular-69" d="M 1619 0 
L 1619 96 
C 1197 128 1146 192 1146 653 
L 1146 2925 
L 1120 2944 
L 128 2592 
L 128 2496 
L 179 2502 
C 256 2515 339 2522 397 2522 
C 550 2522 608 2419 608 2138 
L 608 653 
C 608 192 544 122 102 96 
L 102 0 
L 1619 0 
z
M 1203 3776 
C 1203 3955 1062 4102 877 4102 
C 698 4102 550 3955 550 3776 
C 550 3590 698 3450 877 3450 
C 1062 3450 1203 3590 1203 3776 
z
" transform="scale(0.015625)"/>
       <path id="TeXGyreTermes-Regular-74" d="M 1786 422 
L 1702 493 
C 1562 326 1459 269 1318 269 
C 1082 269 986 435 986 845 
L 986 2675 
L 1632 2675 
L 1632 2880 
L 986 2880 
L 986 3622 
C 986 3686 973 3706 941 3706 
C 902 3642 858 3584 813 3526 
C 576 3174 358 2938 192 2842 
C 122 2797 83 2758 83 2720 
C 83 2701 90 2688 109 2675 
L 448 2675 
L 448 749 
C 448 211 640 -64 1011 -64 
C 1331 -64 1574 90 1786 422 
z
" transform="scale(0.015625)"/>
       <path id="TeXGyreTermes-Regular-20" transform="scale(0.015625)"/>
       <path id="TeXGyreTermes-Regular-6b" d="M 3232 0 
L 3232 96 
C 2950 115 2752 237 2483 563 
L 1504 1805 
L 1690 1978 
C 2144 2400 2541 2694 2726 2746 
C 2822 2771 2912 2784 3021 2784 
L 3072 2784 
L 3072 2880 
L 1766 2880 
L 1766 2790 
C 2016 2784 2086 2758 2086 2669 
C 2086 2618 2029 2528 1939 2451 
L 1062 1670 
L 1062 4358 
L 1037 4371 
L 237 4141 
L 45 4090 
L 45 3987 
C 128 3994 186 4000 250 4000 
C 461 4000 525 3917 525 3610 
L 525 525 
C 525 192 506 173 45 96 
L 45 0 
L 1542 0 
L 1542 96 
L 1414 102 
C 1158 115 1062 205 1062 429 
L 1062 1606 
L 1958 410 
L 1978 384 
C 1990 365 2003 346 2022 326 
C 2074 262 2093 224 2093 192 
C 2093 134 2035 96 1958 96 
L 1837 96 
L 1837 0 
L 3232 0 
z
" transform="scale(0.015625)"/>
      </defs>
      <use xlink:href="#TeXGyreTermes-Regular-53"/>
      <use xlink:href="#TeXGyreTermes-Regular-63" transform="translate(55.599991 0)"/>
      <use xlink:href="#TeXGyreTermes-Regular-68" transform="translate(99.999985 0)"/>
      <use xlink:href="#TeXGyreTermes-Regular-72" transform="translate(149.999969 0)"/>
      <use xlink:href="#TeXGyreTermes-Regular-69" transform="translate(183.299957 0)"/>
      <use xlink:href="#TeXGyreTermes-Regular-74" transform="translate(211.099945 0)"/>
      <use xlink:href="#TeXGyreTermes-Regular-74" transform="translate(238.899933 0)"/>
      <use xlink:href="#TeXGyreTermes-Regular-20" transform="translate(266.699921 0)"/>
      <use xlink:href="#TeXGyreTermes-Regular-6b" transform="translate(291.699905 0)"/>
     </g>
    </g>
   </g>
   <g id="matplotlib.axis_2">
    <g id="ytick_1">
     <g id="line2d_13">
      <path d="M 66.935 232.252784 
L 423.36 232.252784 
" clip-path="url(#pf1100f3541)" style="fill: none; stroke: #b0b0b0; stroke-width: 0.8; stroke-linecap: square"/>
     </g>
     <g id="line2d_14">
      <defs>
       <path id="mbdf27dddf2" d="M 0 0 
L -3.5 0 
" style="stroke: #000000; stroke-width: 0.8"/>
      </defs>
      <g>
       <use xlink:href="#mbdf27dddf2" x="66.935" y="232.252784" style="stroke: #000000; stroke-width: 0.8"/>
      </g>
     </g>
     <g id="text_8">
      <!-- −1 -->
      <g transform="translate(40.781875 238.399503) scale(0.18 -0.18)">
       <defs>
        <path id="TeXGyreTermes-Regular-2212" d="M 3354 1389 
L 3354 1811 
L 256 1811 
L 256 1389 
L 3354 1389 
z
" transform="scale(0.015625)"/>
       </defs>
       <use xlink:href="#TeXGyreTermes-Regular-2212"/>
       <use xlink:href="#TeXGyreTermes-Regular-31" transform="translate(56.399994 0)"/>
      </g>
     </g>
    </g>
    <g id="ytick_2">
     <g id="line2d_15">
      <path d="M 66.935 180.644255 
L 423.36 180.644255 
" clip-path="url(#pf1100f3541)" style="fill: none; stroke: #b0b0b0; stroke-width: 0.8; stroke-linecap: square"/>
     </g>
     <g id="line2d_16">
      <g>
       <use xlink:href="#mbdf27dddf2" x="66.935" y="180.644255" style="stroke: #000000; stroke-width: 0.8"/>
      </g>
     </g>
     <g id="text_9">
      <!-- 0 -->
      <g transform="translate(50.935 186.790973) scale(0.18 -0.18)">
       <use xlink:href="#TeXGyreTermes-Regular-30"/>
      </g>
     </g>
    </g>
    <g id="ytick_3">
     <g id="line2d_17">
      <path d="M 66.935 129.035725 
L 423.36 129.035725 
" clip-path="url(#pf1100f3541)" style="fill: none; stroke: #b0b0b0; stroke-width: 0.8; stroke-linecap: square"/>
     </g>
     <g id="line2d_18">
      <g>
       <use xlink:href="#mbdf27dddf2" x="66.935" y="129.035725" style="stroke: #000000; stroke-width: 0.8"/>
      </g>
     </g>
     <g id="text_10">
      <!-- 1 -->
      <g transform="translate(50.935 135.182444) scale(0.18 -0.18)">
       <use xlink:href="#TeXGyreTermes-Regular-31"/>
      </g>
     </g>
    </g>
    <g id="ytick_4">
     <g id="line2d_19">
      <path d="M 66.935 77.427195 
L 423.36 77.427195 
" clip-path="url(#pf1100f3541)" style="fill: none; stroke: #b0b0b0; stroke-width: 0.8; stroke-linecap: square"/>
     </g>
     <g id="line2d_20">
      <g>
       <use xlink:href="#mbdf27dddf2" x="66.935" y="77.427195" style="stroke: #000000; stroke-width: 0.8"/>
      </g>
     </g>
     <g id="text_11">
      <!-- 2 -->
      <g transform="translate(50.935 83.573914) scale(0.18 -0.18)">
       <use xlink:href="#TeXGyreTermes-Regular-32"/>
      </g>
     </g>
    </g>
    <g id="ytick_5">
     <g id="line2d_21">
      <path d="M 66.935 25.818666 
L 423.36 25.818666 
" clip-path="url(#pf1100f3541)" style="fill: none; stroke: #b0b0b0; stroke-width: 0.8; stroke-linecap: square"/>
     </g>
     <g id="line2d_22">
      <g>
       <use xlink:href="#mbdf27dddf2" x="66.935" y="25.818666" style="stroke: #000000; stroke-width: 0.8"/>
      </g>
     </g>
     <g id="text_12">
      <!-- 3 -->
      <g transform="translate(50.935 31.965385) scale(0.18 -0.18)">
       <defs>
        <path id="TeXGyreTermes-Regular-33" d="M 2765 1402 
C 2765 1728 2662 2029 2477 2227 
C 2349 2368 2227 2445 1946 2566 
C 2387 2867 2547 3104 2547 3450 
C 2547 3968 2138 4326 1549 4326 
C 1229 4326 947 4218 717 4013 
C 525 3840 429 3674 288 3290 
L 384 3264 
C 646 3731 934 3942 1338 3942 
C 1754 3942 2042 3661 2042 3258 
C 2042 3027 1946 2797 1786 2637 
C 1594 2445 1414 2349 979 2195 
L 979 2112 
C 1357 2112 1504 2099 1658 2042 
C 2054 1901 2304 1536 2304 1094 
C 2304 557 1939 141 1466 141 
C 1293 141 1165 186 928 339 
C 736 454 627 499 518 499 
C 371 499 275 410 275 275 
C 275 51 550 -90 998 -90 
C 1491 -90 1997 77 2298 339 
C 2598 602 2765 973 2765 1402 
z
" transform="scale(0.015625)"/>
       </defs>
       <use xlink:href="#TeXGyreTermes-Regular-33"/>
      </g>
     </g>
    </g>
    <g id="text_13">
     <!-- x(k) -->
     <g transform="translate(32.875313 165.031445) rotate(-90) scale(0.18 -0.18)">
      <defs>
       <path id="TeXGyreTermes-Regular-78" d="M 3066 0 
L 3066 96 
C 2867 96 2739 198 2541 480 
L 1722 1734 
L 2253 2502 
C 2374 2675 2566 2778 2771 2784 
L 2771 2880 
L 1760 2880 
L 1760 2784 
C 1952 2771 2016 2733 2016 2643 
C 2016 2566 1939 2426 1779 2227 
C 1747 2189 1670 2074 1587 1946 
L 1498 2074 
C 1318 2342 1203 2560 1203 2643 
C 1203 2733 1286 2778 1478 2784 
L 1478 2880 
L 154 2880 
L 154 2784 
L 211 2784 
C 403 2784 506 2701 704 2400 
L 1306 1478 
L 576 422 
C 384 160 320 115 109 96 
L 109 0 
L 1037 0 
L 1037 96 
C 858 96 781 128 781 211 
C 781 250 826 346 909 474 
L 1414 1261 
L 1997 365 
C 2022 326 2035 288 2035 250 
C 2035 134 1990 109 1779 96 
L 1779 0 
L 3066 0 
z
" transform="scale(0.015625)"/>
       <path id="TeXGyreTermes-Regular-28" d="M 1946 -1030 
C 1434 -627 1254 -403 1082 77 
C 928 506 858 992 858 1632 
C 858 2304 941 2829 1114 3226 
C 1293 3622 1485 3853 1946 4224 
L 1888 4326 
C 1414 4019 1222 3853 986 3558 
C 531 3002 307 2362 307 1613 
C 307 800 544 173 1107 -480 
C 1370 -787 1536 -928 1869 -1133 
L 1946 -1030 
z
" transform="scale(0.015625)"/>
       <path id="TeXGyreTermes-Regular-29" d="M 1824 1581 
C 1824 2400 1587 3021 1024 3674 
C 762 3981 595 4122 262 4326 
L 186 4224 
C 698 3821 870 3597 1050 3117 
C 1203 2688 1274 2202 1274 1562 
C 1274 896 1190 365 1018 -26 
C 838 -429 646 -659 186 -1030 
L 243 -1133 
C 717 -826 909 -659 1146 -365 
C 1600 192 1824 832 1824 1581 
z
" transform="scale(0.015625)"/>
      </defs>
      <use xlink:href="#TeXGyreTermes-Regular-78"/>
      <use xlink:href="#TeXGyreTermes-Regular-28" transform="translate(49.999985 0)"/>
      <use xlink:href="#TeXGyreTermes-Regular-6b" transform="translate(83.299973 0)"/>
      <use xlink:href="#TeXGyreTermes-Regular-29" transform="translate(133.299957 0)"/>
     </g>
    </g>
   </g>
   <g id="line2d_23">
    <path d="M 66.935 142.810325 
L 67.291425 145.543317 
L 67.64785 151.228397 
L 68.004275 152.532006 
L 68.3607 157.161041 
L 68.717125 159.626257 
L 69.07355 158.178878 
L 69.429975 154.650284 
L 69.7864 158.740091 
L 70.142825 160.24631 
L 70.49925 157.213712 
L 70.855675 163.346166 
L 71.2121 167.562106 
L 71.568525 165.37436 
L 71.92495 164.852789 
L 72.281375 168.710866 
L 72.6378 167.804871 
L 72.994225 168.46755 
L 73.35065 169.402971 
L 73.707075 169.833672 
L 74.0635 170.894001 
L 74.419925 174.310696 
L 74.77635 174.284464 
L 75.132775 173.577045 
L 75.4892 159.372984 
L 75.845625 165.857242 
L 76.20205 167.03207 
L 76.558475 158.69739 
L 76.9149 157.968579 
L 77.271325 165.797724 
L 78.3406 160.678499 
L 78.697025 158.632043 
L 79.05345 173.242345 
L 79.409875 170.749643 
L 79.7663 170.958219 
L 80.122725 172.839452 
L 80.835575 177.907461 
L 81.548425 166.493198 
L 81.90485 164.328928 
L 82.261275 164.450251 
L 82.6177 160.924743 
L 82.974125 150.48536 
L 83.33055 146.857995 
L 83.686975 136.694511 
L 84.0434 135.769093 
L 84.399825 151.352275 
L 84.75625 152.887299 
L 85.112675 151.062528 
L 85.4691 147.492501 
L 85.825525 146.802992 
L 86.18195 146.843599 
L 86.538375 146.431574 
L 86.8948 143.155212 
L 87.251225 136.756677 
L 87.60765 138.299882 
L 87.964075 140.355018 
L 88.3205 135.350215 
L 88.676925 141.551933 
L 89.03335 152.76389 
L 89.389775 157.255697 
L 89.7462 154.044816 
L 90.102625 154.308298 
L 90.45905 149.359006 
L 90.815475 135.923702 
L 91.1719 138.057544 
L 91.528325 136.999281 
L 91.88475 133.823441 
L 92.241175 132.278751 
L 92.954025 134.283083 
L 93.31045 139.512928 
L 94.0233 131.10688 
L 94.379725 141.221085 
L 94.73615 142.193866 
L 95.092575 142.633445 
L 95.449 139.197836 
L 95.805425 137.478964 
L 96.16185 134.11619 
L 96.518275 136.301002 
L 96.8747 135.336622 
L 97.231125 133.89738 
L 97.58755 130.605915 
L 97.943975 128.876889 
L 98.3004 125.705528 
L 98.656825 123.918377 
L 99.01325 129.366357 
L 99.369675 131.67622 
L 99.7261 128.647374 
L 100.082525 122.041975 
L 100.43895 120.478761 
L 100.795375 123.337151 
L 101.1518 127.398861 
L 101.508225 123.86914 
L 101.86465 122.262693 
L 102.221075 127.390848 
L 102.5775 134.296532 
L 102.933925 134.982633 
L 103.29035 138.569299 
L 103.646775 133.685413 
L 104.0032 141.921541 
L 104.359625 145.636454 
L 104.71605 153.459937 
L 105.4289 159.746376 
L 105.785325 161.072357 
L 106.14175 158.450181 
L 106.498175 163.859579 
L 106.8546 173.097922 
L 107.211025 172.11001 
L 107.56745 168.347213 
L 107.923875 167.982895 
L 108.2803 168.878521 
L 108.99315 177.568118 
L 109.349575 184.993612 
L 109.706 181.277908 
L 110.062425 182.076128 
L 110.41885 182.265225 
L 110.775275 182.142118 
L 111.1317 179.584762 
L 111.488125 179.844493 
L 111.84455 179.811215 
L 112.200975 182.817907 
L 112.5574 180.926177 
L 112.913825 187.469292 
L 113.27025 185.118726 
L 113.626675 193.615056 
L 114.69595 209.493789 
L 115.4088 212.998419 
L 116.12165 222.303331 
L 117.190925 239.898218 
L 117.54735 239.93653 
L 117.903775 235.804212 
L 118.2602 235.947741 
L 118.616625 232.9842 
L 118.97305 227.79792 
L 119.329475 229.019689 
L 119.6859 232.790919 
L 120.042325 224.061939 
L 120.39875 227.927231 
L 121.1116 226.853469 
L 121.468025 233.943578 
L 121.82445 229.607857 
L 122.180875 227.624263 
L 122.5373 219.421423 
L 122.893725 218.218079 
L 123.25015 219.721074 
L 123.606575 211.661469 
L 123.963 208.955125 
L 124.319425 208.997674 
L 124.67585 214.364093 
L 125.032275 214.533575 
L 125.3887 215.724014 
L 125.745125 218.750825 
L 126.10155 216.061974 
L 126.457975 219.498833 
L 126.8144 220.233931 
L 127.170825 223.774927 
L 127.52725 225.27891 
L 128.2401 232.385146 
L 128.596525 240.516513 
L 128.95295 233.022755 
L 129.309375 235.815479 
L 130.022225 225.406572 
L 130.37865 228.365841 
L 130.735075 229.539759 
L 131.0915 221.798408 
L 131.447925 223.389824 
L 131.80435 227.646689 
L 132.160775 227.722349 
L 132.5172 224.366848 
L 132.873625 222.932297 
L 133.23005 219.719531 
L 133.586475 229.228678 
L 133.9429 232.058069 
L 134.299325 230.421623 
L 134.65575 226.633536 
L 135.012175 228.070207 
L 135.3686 228.505877 
L 135.725025 232.862015 
L 136.08145 227.810256 
L 136.437875 227.74501 
L 137.50715 247.866519 
L 137.863575 251.869242 
L 138.22 250.445206 
L 138.576425 250.675537 
L 138.93285 257.519339 
L 139.289275 251.655223 
L 139.6457 256.025923 
L 140.002125 266.513609 
L 140.35855 268.64891 
L 141.427825 250.624034 
L 141.78425 248.12185 
L 142.140675 247.161658 
L 142.4971 245.173441 
L 143.566375 227.056898 
L 143.9228 225.908067 
L 144.279225 224.34159 
L 144.63565 218.607921 
L 144.992075 218.649332 
L 145.3485 229.285881 
L 145.704925 228.631704 
L 146.06135 228.741536 
L 146.417775 230.394602 
L 146.7742 232.905092 
L 147.130625 232.935539 
L 147.48705 232.587392 
L 147.843475 232.818947 
L 148.1999 234.925542 
L 148.556325 234.200461 
L 148.91275 235.278053 
L 149.269175 230.596508 
L 149.6256 232.555752 
L 149.982025 221.036092 
L 150.33845 226.856552 
L 150.694875 226.717839 
L 151.0513 221.458875 
L 151.407725 220.00599 
L 151.76415 225.811225 
L 152.120575 239.050138 
L 152.477 239.539131 
L 152.833425 235.297414 
L 153.546275 225.703679 
L 153.9027 224.674308 
L 154.61555 217.776673 
L 154.971975 222.369174 
L 155.3284 218.710049 
L 155.684825 217.057054 
L 156.04125 218.778695 
L 156.397675 223.446283 
L 156.7541 220.133378 
L 157.110525 213.268574 
L 157.46695 203.885127 
L 157.823375 204.455969 
L 158.1798 196.37767 
L 158.536225 196.862479 
L 158.89265 192.82844 
L 159.6055 180.126748 
L 159.961925 186.095366 
L 160.31835 182.700798 
L 161.74405 155.989854 
L 162.100475 159.89584 
L 162.4569 169.890781 
L 162.813325 169.90836 
L 163.16975 173.246949 
L 164.239025 157.771038 
L 164.59545 152.062678 
L 164.951875 154.297048 
L 165.664725 148.382715 
L 166.02115 142.894957 
L 166.377575 139.222776 
L 166.734 144.360873 
L 167.090425 138.905157 
L 167.44685 136.94765 
L 167.803275 138.301448 
L 168.1597 133.474612 
L 168.516125 132.910238 
L 169.228975 129.786574 
L 169.941825 146.262583 
L 170.29825 152.40618 
L 170.654675 153.210216 
L 171.0111 154.473014 
L 171.367525 156.332832 
L 172.4368 148.813539 
L 172.793225 150.147535 
L 173.14965 148.045221 
L 173.506075 150.619226 
L 173.8625 148.40256 
L 174.218925 149.029187 
L 174.57535 145.01624 
L 174.931775 149.565672 
L 175.2882 152.018328 
L 176.00105 135.812623 
L 176.357475 141.145734 
L 176.7139 138.340614 
L 177.070325 133.2193 
L 177.42675 136.308718 
L 177.783175 137.731727 
L 178.1396 129.007127 
L 178.496025 133.784499 
L 178.85245 130.937948 
L 179.5653 114.528383 
L 179.921725 117.80512 
L 180.27815 115.084341 
L 180.634575 123.479584 
L 180.991 124.840764 
L 181.347425 116.696014 
L 181.70385 119.9741 
L 182.060275 121.431252 
L 182.4167 122.123495 
L 182.773125 118.035004 
L 183.12955 108.464608 
L 183.485975 112.095072 
L 183.8424 108.93903 
L 184.198825 102.448559 
L 184.55525 100.52837 
L 184.911675 100.031896 
L 185.2681 93.93665 
L 185.624525 105.852013 
L 185.98095 105.220205 
L 186.337375 109.414901 
L 186.6938 109.889036 
L 187.40665 103.693387 
L 187.763075 96.249266 
L 188.1195 96.195793 
L 188.475925 97.250744 
L 188.83235 93.759829 
L 189.188775 94.762655 
L 189.901625 111.787104 
L 190.25805 107.945427 
L 190.614475 110.843925 
L 191.327325 108.412699 
L 191.68375 113.948821 
L 192.040175 108.394026 
L 192.3966 114.497477 
L 192.753025 113.903187 
L 193.10945 113.02981 
L 193.465875 116.482389 
L 193.8223 114.101702 
L 194.178725 114.742928 
L 194.891575 118.369841 
L 195.248 113.443262 
L 195.604425 114.922368 
L 195.96085 120.639318 
L 196.317275 117.821291 
L 197.030125 129.159806 
L 197.742975 121.903509 
L 198.0994 107.79163 
L 198.455825 107.152807 
L 198.81225 105.178115 
L 199.168675 102.468531 
L 199.5251 102.26251 
L 199.881525 93.788203 
L 200.23795 95.011568 
L 200.594375 105.538871 
L 200.9508 106.426655 
L 201.307225 102.821554 
L 202.020075 119.867337 
L 202.3765 116.463792 
L 202.732925 117.387799 
L 203.08935 120.836213 
L 203.445775 117.832745 
L 203.8022 119.640687 
L 204.158625 114.910844 
L 204.51505 117.93148 
L 204.871475 119.860063 
L 205.2279 114.940526 
L 205.584325 112.754703 
L 205.94075 111.431044 
L 206.297175 105.090506 
L 206.6536 107.109865 
L 207.36645 99.529836 
L 207.722875 102.005472 
L 208.0793 103.161003 
L 208.435725 102.939286 
L 208.79215 104.585566 
L 209.148575 103.466815 
L 209.505 108.406439 
L 209.861425 100.297016 
L 210.21785 102.915835 
L 210.9307 94.155821 
L 211.287125 90.854658 
L 211.64355 82.141287 
L 211.999975 77.871098 
L 212.3564 80.560885 
L 212.712825 80.074041 
L 213.06925 83.357565 
L 213.425675 80.393014 
L 213.7821 81.120563 
L 214.138525 80.329613 
L 214.49495 79.180337 
L 214.851375 83.683576 
L 215.564225 68.553232 
L 215.92065 60.736245 
L 216.277075 69.211505 
L 216.6335 65.859977 
L 217.702775 58.9118 
L 218.0592 58.734391 
L 218.415625 58.127187 
L 218.77205 58.461149 
L 219.128475 54.83021 
L 220.19775 70.242563 
L 220.554175 66.927562 
L 221.267025 74.947715 
L 221.62345 75.446931 
L 221.979875 77.482645 
L 222.3363 70.707586 
L 223.405575 94.949935 
L 223.762 94.676609 
L 224.118425 94.955817 
L 224.47485 97.180912 
L 224.831275 103.176623 
L 225.1877 97.697826 
L 225.544125 98.550792 
L 225.90055 97.796704 
L 226.256975 105.219095 
L 226.6134 106.769417 
L 226.969825 104.066549 
L 227.32625 95.119877 
L 227.682675 90.416869 
L 228.0391 91.232599 
L 228.75195 72.962795 
L 229.108375 74.33257 
L 229.4648 74.498766 
L 229.821225 70.070875 
L 230.17765 73.632011 
L 230.534075 88.372811 
L 230.8905 83.133128 
L 231.246925 81.91872 
L 231.60335 84.967307 
L 231.959775 81.384505 
L 232.3162 86.97326 
L 232.672625 82.904114 
L 233.02905 80.202019 
L 233.385475 69.193856 
L 233.7419 72.17727 
L 234.098325 73.367191 
L 234.45475 69.012905 
L 234.811175 73.972781 
L 235.1676 69.915545 
L 235.524025 70.056757 
L 236.236875 65.462287 
L 236.5933 65.100684 
L 236.949725 57.24323 
L 237.30615 58.409833 
L 237.662575 64.434704 
L 238.019 53.144932 
L 238.375425 52.533382 
L 238.73185 54.333993 
L 239.088275 54.780946 
L 239.4447 56.306068 
L 239.801125 61.321467 
L 240.513975 67.268859 
L 240.8704 72.223873 
L 241.226825 83.829785 
L 241.58325 76.993873 
L 241.939675 82.169294 
L 242.2961 81.514287 
L 242.652525 81.662618 
L 243.00895 93.533547 
L 243.365375 97.975763 
L 243.7218 98.008325 
L 244.078225 97.781123 
L 244.43465 93.348759 
L 244.791075 92.551704 
L 245.1475 95.317749 
L 246.216775 113.28866 
L 246.5732 113.153918 
L 246.929625 116.7258 
L 247.28605 115.467192 
L 247.642475 110.219576 
L 247.9989 106.725744 
L 248.355325 101.838852 
L 248.71175 102.47161 
L 249.068175 106.335871 
L 249.4246 106.687853 
L 249.781025 108.465386 
L 250.13745 107.792437 
L 250.493875 112.034744 
L 250.8503 101.663261 
L 251.206725 105.203711 
L 251.56315 102.559305 
L 251.919575 107.379559 
L 252.276 108.052396 
L 252.98885 104.187051 
L 254.058125 92.732184 
L 254.41455 84.750407 
L 254.770975 88.293028 
L 255.1274 89.325107 
L 255.483825 77.639555 
L 255.84025 74.276984 
L 256.196675 72.350292 
L 256.5531 71.039129 
L 256.909525 73.898918 
L 257.26595 91.927244 
L 257.622375 94.486168 
L 257.9788 93.079223 
L 258.335225 94.728375 
L 258.69165 85.719309 
L 259.048075 80.914052 
L 259.4045 89.174794 
L 259.760925 92.05831 
L 260.11735 89.715848 
L 261.186625 80.652864 
L 261.54305 83.049568 
L 261.899475 82.808413 
L 262.2559 81.915013 
L 262.612325 85.537275 
L 262.96875 86.309283 
L 263.325175 83.426065 
L 263.6816 82.858349 
L 264.39445 65.837209 
L 264.750875 61.028296 
L 265.1073 52.82311 
L 265.463725 51.955018 
L 266.176575 39.93665 
L 266.533 39.047494 
L 266.889425 35.173534 
L 267.24585 38.827285 
L 267.602275 38.03836 
L 267.9587 44.375188 
L 268.315125 41.486697 
L 268.67155 45.716957 
L 269.027975 37.45333 
L 269.3844 33.97937 
L 269.740825 37.553785 
L 270.453675 33.175263 
L 270.8101 37.010098 
L 271.166525 31.427105 
L 271.879375 41.414525 
L 272.2358 41.478072 
L 272.592225 37.472381 
L 272.94865 37.129563 
L 273.305075 39.998658 
L 274.017925 47.012224 
L 274.37435 48.855845 
L 275.0872 58.520873 
L 275.443625 58.610628 
L 275.80005 64.411877 
L 276.156475 65.622104 
L 276.5129 62.803447 
L 276.869325 70.50081 
L 277.22575 67.701649 
L 277.582175 66.775463 
L 278.295025 60.311899 
L 278.65145 59.576804 
L 279.007875 54.3533 
L 279.3643 57.852925 
L 279.720725 57.286316 
L 280.07715 61.887129 
L 280.433575 52.047121 
L 280.79 54.111433 
L 281.146425 58.339586 
L 281.50285 59.226678 
L 281.859275 57.939136 
L 282.2157 55.272885 
L 282.572125 57.171757 
L 282.92855 55.815113 
L 283.284975 56.811918 
L 284.35425 62.615206 
L 284.710675 59.473967 
L 285.0671 63.053653 
L 285.423525 71.173644 
L 285.77995 69.326744 
L 286.4928 77.179803 
L 286.849225 73.175529 
L 287.20565 73.162059 
L 287.9185 84.315752 
L 288.274925 85.132063 
L 288.63135 92.722833 
L 289.3442 92.989637 
L 289.700625 93.757779 
L 290.05705 81.620771 
L 290.413475 80.152571 
L 290.7699 79.456789 
L 291.126325 75.330775 
L 291.48275 72.602525 
L 291.839175 67.52303 
L 292.1956 78.481327 
L 292.552025 77.565713 
L 292.90845 77.57275 
L 293.264875 85.997707 
L 293.6213 89.110163 
L 293.977725 99.814598 
L 294.33415 99.375695 
L 294.690575 100.216162 
L 295.047 98.827567 
L 295.403425 91.182146 
L 295.75985 86.025436 
L 296.116275 84.340377 
L 296.4727 81.45365 
L 296.829125 76.492855 
L 297.18555 73.205162 
L 297.541975 77.858231 
L 297.8984 71.787871 
L 298.254825 81.356204 
L 298.61125 81.937299 
L 298.967675 87.50683 
L 299.3241 86.862633 
L 299.680525 81.268155 
L 300.03695 85.076937 
L 300.393375 86.294915 
L 300.7498 89.18791 
L 301.106225 89.253505 
L 301.46265 83.701773 
L 301.819075 86.053007 
L 302.1755 94.298894 
L 302.531925 90.969164 
L 302.88835 100.551154 
L 303.244775 101.600005 
L 303.6012 94.855957 
L 303.957625 99.094023 
L 304.31405 99.17339 
L 304.670475 108.378219 
L 305.0269 110.697885 
L 305.383325 109.9486 
L 305.73975 115.053687 
L 306.096175 114.377073 
L 306.4526 112.721971 
L 306.809025 109.54098 
L 307.16545 110.735778 
L 307.521875 113.330638 
L 308.947575 129.293132 
L 309.304 127.49869 
L 309.660425 124.885463 
L 310.01685 126.718995 
L 310.373275 124.003555 
L 310.7297 118.491207 
L 311.086125 132.055531 
L 311.44255 133.842753 
L 312.1554 124.116895 
L 312.86825 127.634827 
L 313.224675 136.171702 
L 314.650375 149.278065 
L 315.0068 154.254014 
L 315.363225 151.680456 
L 315.71965 152.209996 
L 316.076075 142.372269 
L 316.4325 149.271244 
L 316.788925 146.691416 
L 317.14535 146.981323 
L 317.501775 150.318096 
L 317.8582 156.012045 
L 318.214625 154.311573 
L 318.927475 168.062971 
L 319.2839 166.499208 
L 319.640325 163.052687 
L 319.99675 167.063737 
L 320.353175 161.118011 
L 320.7096 164.164151 
L 321.066025 168.644636 
L 321.42245 175.677212 
L 321.778875 176.144012 
L 322.1353 173.457362 
L 322.491725 177.883939 
L 322.84815 173.798244 
L 323.204575 178.801968 
L 323.561 174.941647 
L 323.917425 172.354547 
L 324.27385 168.190714 
L 324.630275 160.826277 
L 324.9867 166.447497 
L 325.343125 165.957032 
L 325.69955 158.390448 
L 326.055975 153.395795 
L 326.4124 143.362327 
L 326.768825 136.686461 
L 327.12525 135.154895 
L 327.481675 137.519744 
L 327.8381 134.529018 
L 328.194525 130.56552 
L 328.55095 131.701428 
L 328.907375 126.270363 
L 329.620225 135.237243 
L 329.97665 135.758596 
L 330.333075 131.832048 
L 330.6895 133.354079 
L 331.40235 127.554981 
L 332.1152 141.39541 
L 332.471625 137.083673 
L 333.184475 132.342761 
L 333.5409 130.177917 
L 333.897325 129.871947 
L 334.25375 122.335346 
L 334.610175 118.907663 
L 334.9666 108.602012 
L 335.323025 109.781516 
L 335.67945 114.107156 
L 336.035875 121.63165 
L 336.3923 119.717645 
L 336.748725 118.4559 
L 337.10515 127.406916 
L 337.461575 126.341393 
L 337.818 121.787374 
L 338.174425 120.193264 
L 338.53085 119.88957 
L 338.887275 115.956141 
L 339.2437 115.889091 
L 339.600125 116.585837 
L 339.95655 120.808809 
L 340.312975 108.770023 
L 340.6694 108.052281 
L 341.025825 119.291661 
L 341.38225 117.233423 
L 341.738675 117.106206 
L 342.451525 111.119806 
L 343.164375 123.677165 
L 343.5208 120.5336 
L 343.877225 119.002952 
L 344.23365 116.860423 
L 344.590075 128.3808 
L 344.9465 132.866779 
L 345.302925 132.01349 
L 345.65935 135.676083 
L 346.015775 135.096591 
L 346.3722 128.069307 
L 346.728625 116.937204 
L 347.08505 119.001676 
L 347.441475 118.810699 
L 347.7979 116.298884 
L 348.51075 124.721402 
L 348.867175 127.989717 
L 349.2236 120.849049 
L 349.93645 118.030709 
L 350.6493 107.99344 
L 351.005725 109.321055 
L 351.36215 106.061168 
L 352.075 97.159265 
L 352.431425 98.455691 
L 352.78785 104.898661 
L 353.144275 104.191356 
L 353.5007 106.67253 
L 353.857125 105.007765 
L 354.21355 104.777114 
L 354.569975 113.720824 
L 355.282825 123.435232 
L 355.63925 131.570224 
L 355.995675 147.28755 
L 356.3521 156.326665 
L 356.708525 159.00381 
L 357.06495 158.278069 
L 357.421375 163.207581 
L 357.7778 160.930554 
L 358.134225 161.834815 
L 358.49065 166.472065 
L 358.847075 164.399969 
L 359.2035 167.84181 
L 359.559925 163.572811 
L 359.91635 162.044339 
L 360.272775 157.52583 
L 360.6292 146.358078 
L 360.985625 148.180172 
L 361.34205 151.888173 
L 361.698475 147.379884 
L 362.0549 147.425959 
L 362.411325 153.693036 
L 362.76775 156.325534 
L 363.4806 151.276865 
L 363.837025 144.579389 
L 364.19345 141.335546 
L 364.549875 139.971438 
L 364.9063 141.282904 
L 365.262725 149.473184 
L 365.61915 145.504761 
L 365.975575 144.414952 
L 366.332 142.121692 
L 366.688425 141.026164 
L 367.04485 144.367991 
L 367.7577 134.029945 
L 368.114125 130.932947 
L 368.47055 123.020121 
L 368.826975 126.956975 
L 369.1834 119.125081 
L 369.539825 121.848483 
L 369.89625 125.920412 
L 370.6091 114.136636 
L 370.965525 116.035894 
L 371.32195 127.051943 
L 371.678375 128.492099 
L 372.0348 133.479254 
L 372.391225 125.139808 
L 372.74765 126.437705 
L 373.104075 135.503788 
L 373.4605 136.273235 
L 373.816925 128.458918 
L 374.17335 125.339386 
L 374.529775 130.091439 
L 374.8862 124.650938 
L 375.59905 133.171189 
L 375.955475 127.540245 
L 376.3119 128.867622 
L 376.668325 130.717939 
L 377.381175 111.277884 
L 378.094025 121.495115 
L 378.45045 124.107954 
L 378.806875 120.840553 
L 379.1633 121.014004 
L 379.519725 119.901826 
L 379.87615 123.114937 
L 380.232575 124.250521 
L 380.589 120.227013 
L 380.945425 113.201963 
L 381.30185 116.080617 
L 381.658275 121.184856 
L 382.0147 128.155518 
L 382.371125 128.868563 
L 382.72755 130.007805 
L 383.4404 142.005216 
L 383.796825 145.401623 
L 384.15325 142.848856 
L 384.8661 148.075618 
L 385.222525 147.598028 
L 385.57895 143.886984 
L 385.935375 147.491763 
L 386.648225 158.723144 
L 387.361075 162.192404 
L 387.7175 160.898376 
L 388.43035 148.071543 
L 388.786775 147.94098 
L 389.1432 144.848994 
L 389.499625 142.866077 
L 389.85605 133.15763 
L 390.212475 140.886388 
L 390.5689 142.021541 
L 390.925325 148.475791 
L 391.28175 146.135738 
L 391.638175 149.005521 
L 391.9946 144.677961 
L 392.351025 152.867295 
L 393.4203 144.452821 
L 393.776725 141.572742 
L 394.13315 151.573289 
L 394.489575 155.768082 
L 394.846 156.86481 
L 395.202425 156.540327 
L 395.55885 151.660604 
L 395.915275 154.224048 
L 396.2717 154.805435 
L 396.628125 163.701668 
L 397.340975 171.795017 
L 398.053825 172.927805 
L 398.41025 168.209495 
L 398.766675 172.156712 
L 399.1231 169.474652 
L 399.479525 167.736582 
L 399.83595 164.581149 
L 400.5488 149.893473 
L 400.905225 149.908819 
L 401.26165 148.693085 
L 401.618075 155.167778 
L 402.330925 162.471918 
L 402.68735 164.700557 
L 403.043775 163.57977 
L 403.4002 162.838074 
L 403.756625 155.878277 
L 404.11305 161.419184 
L 404.469475 165.12431 
L 404.8259 163.525921 
L 405.182325 163.719802 
L 405.53875 164.592726 
L 406.2516 158.573675 
L 406.608025 160.489799 
L 406.96445 157.2861 
L 407.320875 160.231682 
L 407.6773 157.888647 
L 408.033725 157.032427 
L 408.39015 162.416199 
L 408.746575 158.339374 
L 409.103 146.961037 
L 409.459425 144.848772 
L 409.81585 144.734436 
L 410.172275 142.000409 
L 410.5287 136.498794 
L 410.885125 139.843459 
L 411.24155 146.5417 
L 411.597975 148.136902 
L 411.9544 148.698445 
L 412.310825 149.609167 
L 412.66725 155.205809 
L 413.023675 158.823238 
L 413.3801 159.298265 
L 413.736525 158.103154 
L 414.449375 142.572703 
L 415.162225 137.66668 
L 415.51865 141.912252 
L 415.875075 144.537077 
L 416.2315 152.47749 
L 416.587925 151.827761 
L 417.300775 148.779351 
L 417.6572 139.064771 
L 418.013625 146.602621 
L 418.37005 141.791224 
L 418.726475 147.68887 
L 419.0829 149.749813 
L 419.439325 153.519204 
L 419.79575 153.869085 
L 420.152175 156.107906 
L 420.5086 162.59637 
L 420.865025 163.742149 
L 421.22145 166.280491 
L 421.9343 151.957786 
L 422.290725 155.553276 
L 422.64715 154.212443 
L 423.003575 145.867398 
L 423.003575 145.867398 
" clip-path="url(#pf1100f3541)" style="fill: none; stroke: #1f77b4; stroke-width: 2; stroke-linecap: square"/>
   </g>
   <g id="patch_3">
    <path d="M 66.935 280.51 
L 66.935 19.566014 
" style="fill: none; stroke: #000000; stroke-width: 0.8; stroke-linejoin: miter; stroke-linecap: square"/>
   </g>
   <g id="patch_4">
    <path d="M 423.36 280.51 
L 423.36 19.566014 
" style="fill: none; stroke: #000000; stroke-width: 0.8; stroke-linejoin: miter; stroke-linecap: square"/>
   </g>
   <g id="patch_5">
    <path d="M 66.935 280.51 
L 423.36 280.51 
" style="fill: none; stroke: #000000; stroke-width: 0.8; stroke-linejoin: miter; stroke-linecap: square"/>
   </g>
   <g id="patch_6">
    <path d="M 66.935 19.566014 
L 423.36 19.566014 
" style="fill: none; stroke: #000000; stroke-width: 0.8; stroke-linejoin: miter; stroke-linecap: square"/>
   </g>
  </g>
 </g>
 <defs>
  <clipPath id="pf1100f3541">
   <rect x="66.935" y="19.566014" width="356.425" height="260.943986"/>
  </clipPath>
 </defs>
</svg>
