<?xml version="1.0" encoding="utf-8" standalone="no"?>
<!DOCTYPE svg PUBLIC "-//W3C//DTD SVG 1.1//EN"
  "http://www.w3.org/Graphics/SVG/1.1/DTD/svg11.dtd">
<svg xmlns:xlink="http://www.w3.org/1999/xlink" width="460.8pt" height="345.6pt" viewBox="0 0 460.8 345.6" xmlns="http://www.w3.org/2000/svg" version="1.1">
 <metadata>
  <rdf:RDF xmlns:dc="http://purl.org/dc/elements/1.1/" xmlns:cc="http://creativecommons.org/ns#" xmlns:rdf="http://www.w3.org/1999/02/22-rdf-syntax-ns#">
   <cc:Work>
    <dc:type rdf:resource="http://purl.org/dc/dcmitype/StillImage"/>
    <dc:date>2026-01-12T21:56:39.588734</dc:date>
    <dc:format>image/svg+xml</dc:format>
    <dc:creator>
     <cc:Agent>
      <dc:title>Matplotlib v3.10.8, https://matplotlib.org/</dc:title>
     </cc:Agent>
    </dc:creator>
   </cc:Work>
  </rdf:RDF>
 </metadata>
 <defs>
  <style type="text/css">*{stroke-linejoin: round; stroke-linecap: butt}</style>
 </defs>
 <g id="figure_1">
  <g id="patch_1">
   <path d="M 0 345.6 
L 460.8 345.6 
L 460.8 0 
L 0 0 
z
" style="fill: #ffffff"/>
  </g>
  <g id="axes_1">
   <g id="patch_2">
    <path d="M 53.03 303.64 
L 445.59 303.64 
L 445.59 10.8 
L 53.03 10.8 
z
" style="fill: #ffffff"/>
   </g>
   <g id="matplotlib.axis_1">
    <g id="xtick_1">
     <g id="line2d_1">
      <path d="M 53.03 303.64 
L 53.03 10.8 
" clip-path="url(#p23d187b6ac)" style="fill: none; stroke: #b0b0b0; stroke-width: 0.8; stroke-linecap: square"/>
     </g>
     <g id="line2d_2">
      <defs>
       <path id="m2250634ff3" d="M 0 0 
L 0 3.5 
" style="stroke: #000000; stroke-width: 0.8"/>
      </defs>
      <g>
       <use xlink:href="#m2250634ff3" x="53.03" y="303.64" style="stroke: #000000; stroke-width: 0.8"/>
      </g>
     </g>
     <g id="text_1">
      <!-- 0 -->
      <g transform="translate(49.84875 318.238437) scale(0.1 -0.1)">
       <defs>
        <path id="DejaVuSans-30" d="M 2034 4250 
Q 1547 4250 1301 3770 
Q 1056 3291 1056 2328 
Q 1056 1369 1301 889 
Q 1547 409 2034 409 
Q 2525 409 2770 889 
Q 3016 1369 3016 2328 
Q 3016 3291 2770 3770 
Q 2525 4250 2034 4250 
z
M 2034 4750 
Q 2819 4750 3233 4129 
Q 3647 3509 3647 2328 
Q 3647 1150 3233 529 
Q 2819 -91 2034 -91 
Q 1250 -91 836 529 
Q 422 1150 422 2328 
Q 422 3509 836 4129 
Q 1250 4750 2034 4750 
z
" transform="scale(0.015625)"/>
       </defs>
       <use xlink:href="#DejaVuSans-30"/>
      </g>
     </g>
    </g>
    <g id="xtick_2">
     <g id="line2d_3">
      <path d="M 129.701875 303.64 
L 129.701875 10.8 
" clip-path="url(#p23d187b6ac)" style="fill: none; stroke: #b0b0b0; stroke-width: 0.8; stroke-linecap: square"/>
     </g>
     <g id="line2d_4">
      <g>
       <use xlink:href="#m2250634ff3" x="129.701875" y="303.64" style="stroke: #000000; stroke-width: 0.8"/>
      </g>
     </g>
     <g id="text_2">
      <!-- 200 -->
      <g transform="translate(120.158125 318.238437) scale(0.1 -0.1)">
       <defs>
        <path id="DejaVuSans-32" d="M 1228 531 
L 3431 531 
L 3431 0 
L 469 0 
L 469 531 
Q 828 903 1448 1529 
Q 2069 2156 2228 2338 
Q 2531 2678 2651 2914 
Q 2772 3150 2772 3378 
Q 2772 3750 2511 3984 
Q 2250 4219 1831 4219 
Q 1534 4219 1204 4116 
Q 875 4013 500 3803 
L 500 4441 
Q 881 4594 1212 4672 
Q 1544 4750 1819 4750 
Q 2544 4750 2975 4387 
Q 3406 4025 3406 3419 
Q 3406 3131 3298 2873 
Q 3191 2616 2906 2266 
Q 2828 2175 2409 1742 
Q 1991 1309 1228 531 
z
" transform="scale(0.015625)"/>
       </defs>
       <use xlink:href="#DejaVuSans-32"/>
       <use xlink:href="#DejaVuSans-30" transform="translate(63.623047 0)"/>
       <use xlink:href="#DejaVuSans-30" transform="translate(127.246094 0)"/>
      </g>
     </g>
    </g>
    <g id="xtick_3">
     <g id="line2d_5">
      <path d="M 206.37375 303.64 
L 206.37375 10.8 
" clip-path="url(#p23d187b6ac)" style="fill: none; stroke: #b0b0b0; stroke-width: 0.8; stroke-linecap: square"/>
     </g>
     <g id="line2d_6">
      <g>
       <use xlink:href="#m2250634ff3" x="206.37375" y="303.64" style="stroke: #000000; stroke-width: 0.8"/>
      </g>
     </g>
     <g id="text_3">
      <!-- 400 -->
      <g transform="translate(196.83 318.238437) scale(0.1 -0.1)">
       <defs>
        <path id="DejaVuSans-34" d="M 2419 4116 
L 825 1625 
L 2419 1625 
L 2419 4116 
z
M 2253 4666 
L 3047 4666 
L 3047 1625 
L 3713 1625 
L 3713 1100 
L 3047 1100 
L 3047 0 
L 2419 0 
L 2419 1100 
L 313 1100 
L 313 1709 
L 2253 4666 
z
" transform="scale(0.015625)"/>
       </defs>
       <use xlink:href="#DejaVuSans-34"/>
       <use xlink:href="#DejaVuSans-30" transform="translate(63.623047 0)"/>
       <use xlink:href="#DejaVuSans-30" transform="translate(127.246094 0)"/>
      </g>
     </g>
    </g>
    <g id="xtick_4">
     <g id="line2d_7">
      <path d="M 283.045625 303.64 
L 283.045625 10.8 
" clip-path="url(#p23d187b6ac)" style="fill: none; stroke: #b0b0b0; stroke-width: 0.8; stroke-linecap: square"/>
     </g>
     <g id="line2d_8">
      <g>
       <use xlink:href="#m2250634ff3" x="283.045625" y="303.64" style="stroke: #000000; stroke-width: 0.8"/>
      </g>
     </g>
     <g id="text_4">
      <!-- 600 -->
      <g transform="translate(273.501875 318.238437) scale(0.1 -0.1)">
       <defs>
        <path id="DejaVuSans-36" d="M 2113 2584 
Q 1688 2584 1439 2293 
Q 1191 2003 1191 1497 
Q 1191 994 1439 701 
Q 1688 409 2113 409 
Q 2538 409 2786 701 
Q 3034 994 3034 1497 
Q 3034 2003 2786 2293 
Q 2538 2584 2113 2584 
z
M 3366 4563 
L 3366 3988 
Q 3128 4100 2886 4159 
Q 2644 4219 2406 4219 
Q 1781 4219 1451 3797 
Q 1122 3375 1075 2522 
Q 1259 2794 1537 2939 
Q 1816 3084 2150 3084 
Q 2853 3084 3261 2657 
Q 3669 2231 3669 1497 
Q 3669 778 3244 343 
Q 2819 -91 2113 -91 
Q 1303 -91 875 529 
Q 447 1150 447 2328 
Q 447 3434 972 4092 
Q 1497 4750 2381 4750 
Q 2619 4750 2861 4703 
Q 3103 4656 3366 4563 
z
" transform="scale(0.015625)"/>
       </defs>
       <use xlink:href="#DejaVuSans-36"/>
       <use xlink:href="#DejaVuSans-30" transform="translate(63.623047 0)"/>
       <use xlink:href="#DejaVuSans-30" transform="translate(127.246094 0)"/>
      </g>
     </g>
    </g>
    <g id="xtick_5">
     <g id="line2d_9">
      <path d="M 359.7175 303.64 
L 359.7175 10.8 
" clip-path="url(#p23d187b6ac)" style="fill: none; stroke: #b0b0b0; stroke-width: 0.8; stroke-linecap: square"/>
     </g>
     <g id="line2d_10">
      <g>
       <use xlink:href="#m2250634ff3" x="359.7175" y="303.64" style="stroke: #000000; stroke-width: 0.8"/>
      </g>
     </g>
     <g id="text_5">
      <!-- 800 -->
      <g transform="translate(350.17375 318.238437) scale(0.1 -0.1)">
       <defs>
        <path id="DejaVuSans-38" d="M 2034 2216 
Q 1584 2216 1326 1975 
Q 1069 1734 1069 1313 
Q 1069 891 1326 650 
Q 1584 409 2034 409 
Q 2484 409 2743 651 
Q 3003 894 3003 1313 
Q 3003 1734 2745 1975 
Q 2488 2216 2034 2216 
z
M 1403 2484 
Q 997 2584 770 2862 
Q 544 3141 544 3541 
Q 544 4100 942 4425 
Q 1341 4750 2034 4750 
Q 2731 4750 3128 4425 
Q 3525 4100 3525 3541 
Q 3525 3141 3298 2862 
Q 3072 2584 2669 2484 
Q 3125 2378 3379 2068 
Q 3634 1759 3634 1313 
Q 3634 634 3220 271 
Q 2806 -91 2034 -91 
Q 1263 -91 848 271 
Q 434 634 434 1313 
Q 434 1759 690 2068 
Q 947 2378 1403 2484 
z
M 1172 3481 
Q 1172 3119 1398 2916 
Q 1625 2713 2034 2713 
Q 2441 2713 2670 2916 
Q 2900 3119 2900 3481 
Q 2900 3844 2670 4047 
Q 2441 4250 2034 4250 
Q 1625 4250 1398 4047 
Q 1172 3844 1172 3481 
z
" transform="scale(0.015625)"/>
       </defs>
       <use xlink:href="#DejaVuSans-38"/>
       <use xlink:href="#DejaVuSans-30" transform="translate(63.623047 0)"/>
       <use xlink:href="#DejaVuSans-30" transform="translate(127.246094 0)"/>
      </g>
     </g>
    </g>
    <g id="xtick_6">
     <g id="line2d_11">
      <path d="M 436.389375 303.64 
L 436.389375 10.8 
" clip-path="url(#p23d187b6ac)" style="fill: none; stroke: #b0b0b0; stroke-width: 0.8; stroke-linecap: square"/>
     </g>
     <g id="line2d_12">
      <g>
       <use xlink:href="#m2250634ff3" x="436.389375" y="303.64" style="stroke: #000000; stroke-width: 0.8"/>
      </g>
     </g>
     <g id="text_6">
      <!-- 1000 -->
      <g transform="translate(423.664375 318.238437) scale(0.1 -0.1)">
       <defs>
        <path id="DejaVuSans-31" d="M 794 531 
L 1825 531 
L 1825 4091 
L 703 3866 
L 703 4441 
L 1819 4666 
L 2450 4666 
L 2450 531 
L 3481 531 
L 3481 0 
L 794 0 
L 794 531 
z
" transform="scale(0.015625)"/>
       </defs>
       <use xlink:href="#DejaVuSans-31"/>
       <use xlink:href="#DejaVuSans-30" transform="translate(63.623047 0)"/>
       <use xlink:href="#DejaVuSans-30" transform="translate(127.246094 0)"/>
       <use xlink:href="#DejaVuSans-30" transform="translate(190.869141 0)"/>
      </g>
     </g>
    </g>
    <g id="text_7">
     <!-- Schritt k -->
     <g transform="translate(228.368594 331.916562) scale(0.1 -0.1)">
      <defs>
       <path id="DejaVuSans-53" d="M 3425 4513 
L 3425 3897 
Q 3066 4069 2747 4153 
Q 2428 4238 2131 4238 
Q 1616 4238 1336 4038 
Q 1056 3838 1056 3469 
Q 1056 3159 1242 3001 
Q 1428 2844 1947 2747 
L 2328 2669 
Q 3034 2534 3370 2195 
Q 3706 1856 3706 1288 
Q 3706 609 3251 259 
Q 2797 -91 1919 -91 
Q 1588 -91 1214 -16 
Q 841 59 441 206 
L 441 856 
Q 825 641 1194 531 
Q 1563 422 1919 422 
Q 2459 422 2753 634 
Q 3047 847 3047 1241 
Q 3047 1584 2836 1778 
Q 2625 1972 2144 2069 
L 1759 2144 
Q 1053 2284 737 2584 
Q 422 2884 422 3419 
Q 422 4038 858 4394 
Q 1294 4750 2059 4750 
Q 2388 4750 2728 4690 
Q 3069 4631 3425 4513 
z
" transform="scale(0.015625)"/>
       <path id="DejaVuSans-63" d="M 3122 3366 
L 3122 2828 
Q 2878 2963 2633 3030 
Q 2388 3097 2138 3097 
Q 1578 3097 1268 2742 
Q 959 2388 959 1747 
Q 959 1106 1268 751 
Q 1578 397 2138 397 
Q 2388 397 2633 464 
Q 2878 531 3122 666 
L 3122 134 
Q 2881 22 2623 -34 
Q 2366 -91 2075 -91 
Q 1284 -91 818 406 
Q 353 903 353 1747 
Q 353 2603 823 3093 
Q 1294 3584 2113 3584 
Q 2378 3584 2631 3529 
Q 2884 3475 3122 3366 
z
" transform="scale(0.015625)"/>
       <path id="DejaVuSans-68" d="M 3513 2113 
L 3513 0 
L 2938 0 
L 2938 2094 
Q 2938 2591 2744 2837 
Q 2550 3084 2163 3084 
Q 1697 3084 1428 2787 
Q 1159 2491 1159 1978 
L 1159 0 
L 581 0 
L 581 4863 
L 1159 4863 
L 1159 2956 
Q 1366 3272 1645 3428 
Q 1925 3584 2291 3584 
Q 2894 3584 3203 3211 
Q 3513 2838 3513 2113 
z
" transform="scale(0.015625)"/>
       <path id="DejaVuSans-72" d="M 2631 2963 
Q 2534 3019 2420 3045 
Q 2306 3072 2169 3072 
Q 1681 3072 1420 2755 
Q 1159 2438 1159 1844 
L 1159 0 
L 581 0 
L 581 3500 
L 1159 3500 
L 1159 2956 
Q 1341 3275 1631 3429 
Q 1922 3584 2338 3584 
Q 2397 3584 2469 3576 
Q 2541 3569 2628 3553 
L 2631 2963 
z
" transform="scale(0.015625)"/>
       <path id="DejaVuSans-69" d="M 603 3500 
L 1178 3500 
L 1178 0 
L 603 0 
L 603 3500 
z
M 603 4863 
L 1178 4863 
L 1178 4134 
L 603 4134 
L 603 4863 
z
" transform="scale(0.015625)"/>
       <path id="DejaVuSans-74" d="M 1172 4494 
L 1172 3500 
L 2356 3500 
L 2356 3053 
L 1172 3053 
L 1172 1153 
Q 1172 725 1289 603 
Q 1406 481 1766 481 
L 2356 481 
L 2356 0 
L 1766 0 
Q 1100 0 847 248 
Q 594 497 594 1153 
L 594 3053 
L 172 3053 
L 172 3500 
L 594 3500 
L 594 4494 
L 1172 4494 
z
" transform="scale(0.015625)"/>
       <path id="DejaVuSans-20" transform="scale(0.015625)"/>
       <path id="DejaVuSans-6b" d="M 581 4863 
L 1159 4863 
L 1159 1991 
L 2875 3500 
L 3609 3500 
L 1753 1863 
L 3688 0 
L 2938 0 
L 1159 1709 
L 1159 0 
L 581 0 
L 581 4863 
z
" transform="scale(0.015625)"/>
      </defs>
      <use xlink:href="#DejaVuSans-53"/>
      <use xlink:href="#DejaVuSans-63" transform="translate(63.476562 0)"/>
      <use xlink:href="#DejaVuSans-68" transform="translate(118.457031 0)"/>
      <use xlink:href="#DejaVuSans-72" transform="translate(181.835938 0)"/>
      <use xlink:href="#DejaVuSans-69" transform="translate(222.949219 0)"/>
      <use xlink:href="#DejaVuSans-74" transform="translate(250.732422 0)"/>
      <use xlink:href="#DejaVuSans-74" transform="translate(289.941406 0)"/>
      <use xlink:href="#DejaVuSans-20" transform="translate(329.150391 0)"/>
      <use xlink:href="#DejaVuSans-6b" transform="translate(360.9375 0)"/>
     </g>
    </g>
   </g>
   <g id="matplotlib.axis_2">
    <g id="ytick_1">
     <g id="line2d_13">
      <path d="M 53.03 277.031904 
L 445.59 277.031904 
" clip-path="url(#p23d187b6ac)" style="fill: none; stroke: #b0b0b0; stroke-width: 0.8; stroke-linecap: square"/>
     </g>
     <g id="line2d_14">
      <defs>
       <path id="ma93f1461e4" d="M 0 0 
L -3.5 0 
" style="stroke: #000000; stroke-width: 0.8"/>
      </defs>
      <g>
       <use xlink:href="#ma93f1461e4" x="53.03" y="277.031904" style="stroke: #000000; stroke-width: 0.8"/>
      </g>
     </g>
     <g id="text_8">
      <!-- −20 -->
      <g transform="translate(24.925313 280.831122) scale(0.1 -0.1)">
       <defs>
        <path id="DejaVuSans-2212" d="M 678 2272 
L 4684 2272 
L 4684 1741 
L 678 1741 
L 678 2272 
z
" transform="scale(0.015625)"/>
       </defs>
       <use xlink:href="#DejaVuSans-2212"/>
       <use xlink:href="#DejaVuSans-32" transform="translate(83.789062 0)"/>
       <use xlink:href="#DejaVuSans-30" transform="translate(147.412109 0)"/>
      </g>
     </g>
    </g>
    <g id="ytick_2">
     <g id="line2d_15">
      <path d="M 53.03 217.445644 
L 445.59 217.445644 
" clip-path="url(#p23d187b6ac)" style="fill: none; stroke: #b0b0b0; stroke-width: 0.8; stroke-linecap: square"/>
     </g>
     <g id="line2d_16">
      <g>
       <use xlink:href="#ma93f1461e4" x="53.03" y="217.445644" style="stroke: #000000; stroke-width: 0.8"/>
      </g>
     </g>
     <g id="text_9">
      <!-- −10 -->
      <g transform="translate(24.925313 221.244863) scale(0.1 -0.1)">
       <use xlink:href="#DejaVuSans-2212"/>
       <use xlink:href="#DejaVuSans-31" transform="translate(83.789062 0)"/>
       <use xlink:href="#DejaVuSans-30" transform="translate(147.412109 0)"/>
      </g>
     </g>
    </g>
    <g id="ytick_3">
     <g id="line2d_17">
      <path d="M 53.03 157.859385 
L 445.59 157.859385 
" clip-path="url(#p23d187b6ac)" style="fill: none; stroke: #b0b0b0; stroke-width: 0.8; stroke-linecap: square"/>
     </g>
     <g id="line2d_18">
      <g>
       <use xlink:href="#ma93f1461e4" x="53.03" y="157.859385" style="stroke: #000000; stroke-width: 0.8"/>
      </g>
     </g>
     <g id="text_10">
      <!-- 0 -->
      <g transform="translate(39.6675 161.658604) scale(0.1 -0.1)">
       <use xlink:href="#DejaVuSans-30"/>
      </g>
     </g>
    </g>
    <g id="ytick_4">
     <g id="line2d_19">
      <path d="M 53.03 98.273125 
L 445.59 98.273125 
" clip-path="url(#p23d187b6ac)" style="fill: none; stroke: #b0b0b0; stroke-width: 0.8; stroke-linecap: square"/>
     </g>
     <g id="line2d_20">
      <g>
       <use xlink:href="#ma93f1461e4" x="53.03" y="98.273125" style="stroke: #000000; stroke-width: 0.8"/>
      </g>
     </g>
     <g id="text_11">
      <!-- 10 -->
      <g transform="translate(33.305 102.072344) scale(0.1 -0.1)">
       <use xlink:href="#DejaVuSans-31"/>
       <use xlink:href="#DejaVuSans-30" transform="translate(63.623047 0)"/>
      </g>
     </g>
    </g>
    <g id="ytick_5">
     <g id="line2d_21">
      <path d="M 53.03 38.686866 
L 445.59 38.686866 
" clip-path="url(#p23d187b6ac)" style="fill: none; stroke: #b0b0b0; stroke-width: 0.8; stroke-linecap: square"/>
     </g>
     <g id="line2d_22">
      <g>
       <use xlink:href="#ma93f1461e4" x="53.03" y="38.686866" style="stroke: #000000; stroke-width: 0.8"/>
      </g>
     </g>
     <g id="text_12">
      <!-- 20 -->
      <g transform="translate(33.305 42.486085) scale(0.1 -0.1)">
       <use xlink:href="#DejaVuSans-32"/>
       <use xlink:href="#DejaVuSans-30" transform="translate(63.623047 0)"/>
      </g>
     </g>
    </g>
    <g id="text_13">
     <!-- x(k) -->
     <g transform="translate(18.845625 166.97625) rotate(-90) scale(0.1 -0.1)">
      <defs>
       <path id="DejaVuSans-78" d="M 3513 3500 
L 2247 1797 
L 3578 0 
L 2900 0 
L 1881 1375 
L 863 0 
L 184 0 
L 1544 1831 
L 300 3500 
L 978 3500 
L 1906 2253 
L 2834 3500 
L 3513 3500 
z
" transform="scale(0.015625)"/>
       <path id="DejaVuSans-28" d="M 1984 4856 
Q 1566 4138 1362 3434 
Q 1159 2731 1159 2009 
Q 1159 1288 1364 580 
Q 1569 -128 1984 -844 
L 1484 -844 
Q 1016 -109 783 600 
Q 550 1309 550 2009 
Q 550 2706 781 3412 
Q 1013 4119 1484 4856 
L 1984 4856 
z
" transform="scale(0.015625)"/>
       <path id="DejaVuSans-29" d="M 513 4856 
L 1013 4856 
Q 1481 4119 1714 3412 
Q 1947 2706 1947 2009 
Q 1947 1309 1714 600 
Q 1481 -109 1013 -844 
L 513 -844 
Q 928 -128 1133 580 
Q 1338 1288 1338 2009 
Q 1338 2731 1133 3434 
Q 928 4138 513 4856 
z
" transform="scale(0.015625)"/>
      </defs>
      <use xlink:href="#DejaVuSans-78"/>
      <use xlink:href="#DejaVuSans-28" transform="translate(59.179688 0)"/>
      <use xlink:href="#DejaVuSans-6b" transform="translate(98.193359 0)"/>
      <use xlink:href="#DejaVuSans-29" transform="translate(156.103516 0)"/>
     </g>
    </g>
   </g>
   <g id="line2d_23">
    <path d="M 53.03 157.859385 
L 53.413359 87.172017 
L 53.796719 102.638142 
L 54.180078 109.752355 
L 54.946797 117.400874 
L 58.013672 139.725417 
L 58.780391 144.487749 
L 59.16375 153.878352 
L 59.547109 192.230635 
L 59.930469 124.81044 
L 60.313828 196.728547 
L 60.697188 171.298067 
L 61.080547 188.380259 
L 61.463906 162.268018 
L 61.847266 98.246272 
L 62.230625 171.208001 
L 62.613984 151.796144 
L 62.997344 94.611446 
L 63.380703 99.84636 
L 63.764063 114.0562 
L 64.147422 114.336706 
L 64.530781 105.185097 
L 64.914141 110.421583 
L 65.680859 203.317585 
L 66.447578 70.668329 
L 66.830938 223.588983 
L 67.214297 86.02717 
L 67.597656 149.299807 
L 67.981016 177.824135 
L 68.364375 178.919118 
L 68.747734 180.41579 
L 69.131094 157.687282 
L 69.514453 92.884058 
L 69.897813 169.458875 
L 70.281172 132.487414 
L 70.664531 134.618103 
L 71.047891 167.445797 
L 71.43125 90.760589 
L 71.814609 158.131865 
L 72.197969 141.070926 
L 72.581328 73.416731 
L 72.964687 151.324729 
L 73.348047 150.288843 
L 73.731406 107.138191 
L 74.498125 232.503413 
L 74.881484 151.788904 
L 75.264844 117.952982 
L 75.648203 156.729046 
L 76.031563 179.674644 
L 76.414922 133.520466 
L 76.798281 70.827973 
L 77.181641 79.452251 
L 77.565 168.804326 
L 77.948359 216.268322 
L 78.331719 114.774693 
L 78.715078 85.21068 
L 79.098438 191.942564 
L 79.481797 134.291858 
L 79.865156 143.058503 
L 80.248516 191.719357 
L 80.631875 143.920198 
L 81.015234 147.303082 
L 81.398594 90.014929 
L 81.781953 133.821107 
L 82.165312 228.834593 
L 82.548672 135.032302 
L 82.932031 151.745039 
L 83.315391 122.850923 
L 83.69875 153.790948 
L 84.082109 118.987385 
L 84.465469 151.221931 
L 84.848828 141.23718 
L 85.232188 229.129989 
L 85.615547 193.45326 
L 85.998906 186.155046 
L 86.382266 130.211665 
L 86.765625 215.296557 
L 87.148984 143.696094 
L 87.532344 135.140924 
L 87.915703 162.028735 
L 88.299063 89.051644 
L 88.682422 161.823874 
L 89.065781 108.929397 
L 89.8325 230.690454 
L 90.215859 202.321646 
L 90.599219 156.91062 
L 90.982578 158.838351 
L 91.365938 164.529285 
L 91.749297 112.155699 
L 92.132656 102.223813 
L 92.516016 151.261812 
L 92.899375 152.234534 
L 93.282734 136.705707 
L 93.666094 216.978561 
L 94.049453 153.431593 
L 94.432813 139.395563 
L 94.816172 217.724703 
L 95.199531 136.918604 
L 95.582891 112.968524 
L 95.96625 145.905323 
L 96.349609 121.516046 
L 96.732969 144.274998 
L 97.116328 24.110909 
L 97.499687 125.50126 
L 97.883047 78.372902 
L 98.266406 182.183693 
L 98.649766 108.503498 
L 99.033125 205.155688 
L 99.416484 172.108365 
L 99.799844 205.94889 
L 100.183203 210.714594 
L 100.949922 115.108283 
L 101.333281 177.369775 
L 101.716641 217.267872 
L 102.483359 135.772253 
L 102.866719 97.131638 
L 103.250078 158.641274 
L 103.633437 197.066307 
L 104.016797 157.02861 
L 104.400156 74.223537 
L 104.783516 126.445333 
L 105.166875 98.98728 
L 105.550234 97.474488 
L 106.316953 183.516719 
L 106.700312 89.49027 
L 107.083672 190.804937 
L 107.467031 144.645351 
L 107.850391 164.475265 
L 108.23375 222.690488 
L 108.617109 99.366279 
L 109.000469 166.265418 
L 109.383828 143.82732 
L 109.767188 109.828796 
L 110.150547 248.388125 
L 110.533906 177.008476 
L 110.917266 157.379262 
L 111.300625 221.494603 
L 111.683984 209.704687 
L 112.067344 111.612659 
L 112.450703 119.327627 
L 112.834063 159.942573 
L 113.217422 107.690031 
L 113.600781 213.840593 
L 113.984141 124.97877 
L 114.3675 163.548983 
L 114.750859 35.84085 
L 115.134219 128.925039 
L 115.517578 121.958508 
L 115.900937 189.142881 
L 116.284297 77.95623 
L 116.667656 230.752677 
L 117.817734 129.035651 
L 118.201094 127.453452 
L 118.584453 185.557374 
L 118.967813 120.01189 
L 119.734531 201.12941 
L 120.117891 222.631314 
L 120.884609 136.522665 
L 121.267969 137.10311 
L 121.651328 161.327096 
L 122.034687 76.940852 
L 122.418047 119.5059 
L 122.801406 101.49845 
L 123.184766 207.244697 
L 123.568125 181.106896 
L 123.951484 181.993942 
L 124.334844 178.280236 
L 124.718203 180.579019 
L 125.101562 152.095849 
L 125.484922 209.249349 
L 125.868281 140.53254 
L 126.251641 194.040498 
L 126.635 91.316857 
L 127.018359 160.121618 
L 127.401719 205.277392 
L 127.785078 138.589248 
L 128.168438 171.425389 
L 128.551797 131.581947 
L 129.318516 145.348604 
L 129.701875 153.80535 
L 130.085234 82.71851 
L 130.851953 153.43509 
L 131.235312 156.199238 
L 131.618672 126.318753 
L 132.002031 215.883475 
L 132.385391 152.078161 
L 132.76875 129.773161 
L 133.152109 180.262112 
L 133.535469 176.63962 
L 133.918828 136.108847 
L 134.302188 136.189388 
L 134.685547 95.878936 
L 135.068906 130.201266 
L 135.452266 132.680745 
L 135.835625 206.098674 
L 136.218984 214.116503 
L 136.602344 122.395783 
L 136.985703 115.572418 
L 137.369062 170.243337 
L 137.752422 99.229462 
L 138.135781 218.319922 
L 138.9025 144.2365 
L 139.285859 209.762789 
L 139.669219 171.736106 
L 140.052578 145.853761 
L 140.435937 96.258889 
L 140.819297 170.301063 
L 141.202656 168.896044 
L 141.586016 209.645985 
L 141.969375 127.975869 
L 142.352734 193.290141 
L 142.736094 73.101287 
L 143.119453 141.453514 
L 143.502813 116.100813 
L 143.886172 210.826796 
L 144.269531 187.035995 
L 145.03625 224.084075 
L 145.802969 181.952429 
L 146.186328 138.90565 
L 146.569687 124.292809 
L 146.953047 164.299219 
L 147.336406 150.559233 
L 147.719766 195.290399 
L 148.103125 122.105119 
L 148.486484 88.614495 
L 148.869844 143.094165 
L 149.636562 176.97953 
L 150.019922 166.259206 
L 150.403281 170.558708 
L 150.786641 197.69297 
L 151.17 162.133287 
L 151.553359 187.578722 
L 151.936719 117.578965 
L 152.320078 117.557238 
L 152.703438 212.541274 
L 153.086797 103.367558 
L 153.470156 147.80492 
L 153.853516 105.291817 
L 154.236875 119.485305 
L 154.620234 103.302658 
L 155.003594 158.416774 
L 155.386953 156.296247 
L 155.770312 103.249724 
L 156.537031 135.947941 
L 156.920391 128.378171 
L 157.30375 124.189456 
L 157.687109 170.945726 
L 158.070469 152.927282 
L 158.453828 156.227881 
L 158.837187 131.40236 
L 159.220547 208.847407 
L 159.603906 146.73477 
L 159.987266 128.392896 
L 160.370625 142.861429 
L 160.753984 118.287969 
L 161.137344 122.388942 
L 161.520703 214.427331 
L 161.904062 156.863717 
L 162.287422 219.59021 
L 162.670781 129.516533 
L 163.054141 174.451596 
L 163.4375 111.808144 
L 163.820859 229.416607 
L 164.204219 165.070218 
L 164.587578 125.6923 
L 164.970937 116.06208 
L 165.354297 138.084447 
L 165.737656 179.988108 
L 166.121016 142.53765 
L 166.504375 163.099257 
L 166.887734 190.118068 
L 167.271094 148.700636 
L 167.654453 171.835581 
L 168.037813 171.475705 
L 168.421172 115.706727 
L 168.804531 141.833825 
L 169.57125 215.275374 
L 169.954609 109.847403 
L 170.337969 134.371225 
L 170.721328 181.709691 
L 171.104687 154.166928 
L 171.488047 174.330931 
L 171.871406 204.056824 
L 172.638125 139.882545 
L 173.021484 168.368461 
L 173.404844 114.611746 
L 173.788203 143.266879 
L 174.171562 128.245813 
L 174.554922 196.886674 
L 174.938281 115.622073 
L 175.321641 176.901415 
L 175.705 208.796182 
L 176.088359 162.793847 
L 176.471719 158.478374 
L 176.855078 147.395826 
L 177.238438 232.834412 
L 177.621797 215.972408 
L 178.005156 117.644177 
L 178.388516 163.8779 
L 178.771875 176.115041 
L 179.155234 100.249892 
L 179.538594 68.039 
L 179.921953 90.908549 
L 180.305312 122.098663 
L 180.688672 201.110422 
L 181.072031 132.737977 
L 181.455391 188.960135 
L 181.83875 211.296354 
L 182.222109 148.385798 
L 183.372187 209.71592 
L 183.755547 173.234303 
L 184.138906 171.268905 
L 184.522266 191.322905 
L 184.905625 198.709354 
L 185.672344 119.122612 
L 186.055703 156.183622 
L 186.439062 123.824218 
L 186.822422 103.88101 
L 187.589141 251.062718 
L 187.9725 164.551767 
L 188.355859 180.340813 
L 188.739219 167.230297 
L 189.122578 132.565149 
L 189.505937 195.204698 
L 189.889297 213.22592 
L 190.272656 122.117376 
L 190.656016 130.444583 
L 191.039375 145.993565 
L 191.422734 181.898132 
L 191.806094 83.194859 
L 192.189453 192.299521 
L 192.572812 198.891251 
L 192.956172 165.512249 
L 193.339531 116.503757 
L 193.722891 178.075966 
L 194.10625 119.56146 
L 194.489609 111.091334 
L 194.872969 195.820748 
L 195.256328 163.924124 
L 195.639687 220.764391 
L 196.023047 174.325249 
L 196.406406 238.771659 
L 196.789766 176.659041 
L 197.173125 191.552455 
L 197.556484 217.174552 
L 197.939844 192.08158 
L 198.323203 124.599335 
L 198.706562 140.27782 
L 199.089922 86.793179 
L 199.856641 151.506491 
L 200.24 199.241951 
L 200.623359 129.417797 
L 201.006719 189.444616 
L 201.390078 194.913331 
L 201.773437 198.610371 
L 202.156797 197.082026 
L 202.540156 122.863295 
L 202.923516 147.713242 
L 203.306875 159.12237 
L 203.690234 143.328781 
L 204.073594 119.934418 
L 204.456953 169.816647 
L 204.840312 130.946604 
L 205.223672 205.415163 
L 205.607031 147.477736 
L 205.990391 164.986397 
L 206.37375 165.183029 
L 206.757109 165.174873 
L 207.140469 154.2015 
L 207.523828 100.426074 
L 207.907187 118.862511 
L 208.290547 123.221834 
L 208.673906 111.404173 
L 209.057266 191.847968 
L 209.440625 158.496182 
L 209.823984 175.769375 
L 210.207344 166.244394 
L 210.590703 112.150218 
L 211.357422 101.840237 
L 211.740781 187.510852 
L 212.124141 95.773053 
L 212.5075 124.00948 
L 212.890859 183.395824 
L 213.274219 172.635478 
L 213.657578 133.27306 
L 214.040937 119.023715 
L 214.424297 126.007354 
L 214.807656 193.934721 
L 215.191016 191.440826 
L 215.574375 200.058108 
L 215.957734 114.303323 
L 216.341094 115.675512 
L 216.724453 199.66469 
L 217.107812 167.541666 
L 217.491172 39.848192 
L 217.874531 155.244481 
L 218.257891 153.643226 
L 219.024609 58.28539 
L 219.407969 191.001433 
L 219.791328 186.006586 
L 220.174687 156.363551 
L 220.558047 141.470356 
L 220.941406 156.482852 
L 221.324766 165.725271 
L 221.708125 137.113222 
L 222.091484 194.259957 
L 222.474844 191.993969 
L 222.858203 203.056042 
L 223.241562 143.143744 
L 223.624922 170.538319 
L 224.008281 147.449602 
L 224.391641 97.590754 
L 224.775 91.257057 
L 225.158359 89.986673 
L 225.541719 181.210829 
L 225.925078 234.611862 
L 226.308437 156.228483 
L 226.691797 131.101675 
L 227.075156 228.726356 
L 227.458516 110.107724 
L 227.841875 118.869553 
L 228.225234 90.911688 
L 228.608594 131.124646 
L 228.991953 123.470649 
L 229.375312 95.78732 
L 229.758672 128.166653 
L 230.142031 106.487115 
L 230.525391 100.917287 
L 230.90875 119.310806 
L 231.292109 100.914243 
L 231.675469 150.685178 
L 232.058828 173.150323 
L 232.442187 88.404594 
L 232.825547 84.299625 
L 233.208906 208.43511 
L 233.592266 207.775209 
L 233.975625 195.734839 
L 234.358984 163.486127 
L 234.742344 215.556608 
L 235.125703 190.940494 
L 235.509062 111.339153 
L 235.892422 104.913806 
L 236.275781 190.125342 
L 236.659141 114.437221 
L 237.0425 127.068542 
L 237.425859 128.845954 
L 237.809219 117.2441 
L 238.192578 167.716453 
L 238.959297 198.355164 
L 239.342656 227.623104 
L 239.726016 151.866329 
L 240.109375 155.720706 
L 240.492734 146.080739 
L 240.876094 223.704908 
L 241.259453 173.833218 
L 241.642812 157.42001 
L 242.026172 132.011232 
L 242.409531 150.539827 
L 242.792891 232.45724 
L 243.17625 185.64929 
L 243.559609 186.897769 
L 243.942969 244.921306 
L 244.326328 165.311908 
L 244.709687 145.035652 
L 245.093047 161.569898 
L 245.476406 153.128984 
L 245.859766 201.132905 
L 246.243125 196.478988 
L 246.626484 226.71419 
L 247.009844 160.577757 
L 247.393203 202.226001 
L 247.776562 288.165833 
L 248.159922 141.956007 
L 248.543281 197.753895 
L 248.926641 187.770878 
L 249.693359 108.369056 
L 250.076719 146.420905 
L 250.460078 138.724425 
L 250.843437 159.280879 
L 251.226797 88.969851 
L 251.610156 189.968058 
L 251.993516 96.805564 
L 252.376875 119.673759 
L 252.760234 205.890489 
L 253.143594 186.446941 
L 253.526953 201.275345 
L 253.910312 160.525558 
L 254.293672 200.399917 
L 254.677031 102.692169 
L 255.060391 158.428155 
L 255.44375 185.045332 
L 255.827109 133.645832 
L 256.210469 188.391407 
L 256.593828 101.909503 
L 256.977188 98.140213 
L 257.743906 178.442839 
L 258.127266 167.452334 
L 259.277344 156.596374 
L 259.660703 109.255931 
L 260.044062 111.270247 
L 260.427422 189.135597 
L 260.810781 115.854178 
L 261.194141 172.72871 
L 261.5775 105.388355 
L 261.960859 180.570354 
L 262.344219 164.0836 
L 262.727578 94.253027 
L 263.110937 157.31657 
L 263.494297 125.956086 
L 263.877656 177.331377 
L 264.261016 180.436857 
L 264.644375 181.523089 
L 265.411094 211.214523 
L 265.794453 134.111742 
L 266.177812 175.668349 
L 266.561172 124.668038 
L 266.944531 171.432542 
L 267.327891 120.818409 
L 267.71125 120.596918 
L 268.094609 171.805835 
L 268.477969 189.243273 
L 268.861328 88.691027 
L 269.244687 188.904631 
L 270.011406 121.2418 
L 270.394766 128.616216 
L 271.161484 227.877619 
L 271.544844 189.479297 
L 271.928203 194.959467 
L 272.694922 228.090615 
L 273.078281 169.351576 
L 273.461641 218.534491 
L 273.845 177.161788 
L 274.228359 221.435914 
L 274.611719 233.435249 
L 274.995078 157.504727 
L 275.378437 121.434238 
L 275.761797 238.282987 
L 276.145156 117.15987 
L 276.528516 171.43869 
L 276.911875 177.229135 
L 277.295234 290.329091 
L 277.678594 198.43678 
L 278.061953 157.524904 
L 278.445312 178.549524 
L 278.828672 233.047057 
L 279.212031 137.842619 
L 279.595391 114.625072 
L 279.97875 223.968925 
L 280.362109 177.959679 
L 280.745469 202.731103 
L 281.128828 135.732326 
L 281.512187 169.807697 
L 281.895547 148.533245 
L 282.278906 214.349516 
L 282.662266 163.09742 
L 283.045625 184.552934 
L 283.428984 224.684264 
L 283.812344 206.825237 
L 284.195703 274.340156 
L 284.579062 157.482081 
L 284.962422 159.067823 
L 285.345781 190.311423 
L 285.729141 138.048054 
L 286.1125 236.515066 
L 286.495859 151.442295 
L 286.879219 145.186468 
L 287.262578 186.612309 
L 287.645938 172.181014 
L 288.029297 121.369391 
L 288.412656 147.887229 
L 288.796016 94.928129 
L 289.179375 96.169978 
L 289.562734 174.927345 
L 289.946094 199.823729 
L 290.712812 111.162228 
L 291.096172 214.242191 
L 291.479531 136.606188 
L 291.862891 179.119301 
L 292.24625 190.014498 
L 292.629609 208.378915 
L 293.012969 151.547483 
L 293.396328 147.186083 
L 293.779687 146.114723 
L 294.163047 223.049176 
L 294.546406 116.732583 
L 294.929766 183.566578 
L 295.313125 188.332437 
L 295.696484 147.740906 
L 296.079844 143.394593 
L 296.463203 196.018565 
L 296.846563 140.449303 
L 297.229922 176.440758 
L 297.613281 182.495543 
L 297.996641 160.271305 
L 298.38 206.511622 
L 298.763359 189.202707 
L 299.146719 196.425338 
L 299.530078 218.469699 
L 299.913437 119.362058 
L 300.296797 135.793764 
L 300.680156 143.253735 
L 301.063516 100.896837 
L 301.446875 96.984176 
L 301.830234 165.692416 
L 302.213594 121.620641 
L 302.596953 125.038071 
L 302.980312 176.867012 
L 303.747031 169.71237 
L 304.51375 228.403275 
L 304.897109 171.909783 
L 305.280469 90.195007 
L 305.663828 115.522431 
L 306.047188 101.734153 
L 306.813906 178.067324 
L 307.197266 101.18394 
L 307.580625 171.079657 
L 307.963984 214.815252 
L 308.347344 122.391019 
L 308.730703 136.400639 
L 309.114062 130.862683 
L 309.497422 144.41361 
L 309.880781 173.602591 
L 310.264141 105.713401 
L 310.6475 160.220623 
L 311.030859 112.035081 
L 311.414219 154.005582 
L 311.797578 229.230944 
L 312.180937 168.237074 
L 312.564297 131.177176 
L 312.947656 116.730301 
L 313.331016 193.592845 
L 313.714375 130.756283 
L 314.097734 180.976818 
L 314.481094 162.606048 
L 314.864453 190.44514 
L 315.247813 190.626521 
L 315.631172 243.77032 
L 316.014531 111.846257 
L 316.397891 204.288714 
L 316.78125 166.823408 
L 317.164609 163.777538 
L 317.547969 152.053573 
L 317.931328 231.917874 
L 318.314687 197.600635 
L 318.698047 123.954831 
L 319.081406 124.054484 
L 319.464766 180.343753 
L 319.848125 215.848119 
L 320.231484 238.571366 
L 320.614844 155.696471 
L 320.998203 191.571752 
L 321.381562 196.186591 
L 321.764922 148.155749 
L 322.148281 228.544301 
L 322.531641 212.404895 
L 322.915 166.893969 
L 323.298359 224.622887 
L 323.681719 206.130364 
L 324.065078 121.950866 
L 324.448438 174.885665 
L 324.831797 177.17794 
L 325.215156 168.643893 
L 325.598516 204.759736 
L 325.981875 156.968369 
L 326.365234 146.881644 
L 326.748594 189.522332 
L 327.131953 60.657323 
L 327.515312 137.109784 
L 327.898672 138.130509 
L 328.282031 124.393402 
L 328.665391 216.437959 
L 329.04875 167.730089 
L 329.432109 163.142975 
L 329.815469 204.172753 
L 330.198828 136.289856 
L 330.582187 90.787277 
L 330.965547 78.11672 
L 331.348906 154.681497 
L 331.732266 172.185769 
L 332.115625 169.380599 
L 332.498984 195.982057 
L 332.882344 99.91931 
L 333.265703 163.855332 
L 333.649063 107.43977 
L 334.032422 115.349115 
L 334.415781 143.055143 
L 334.799141 197.57647 
L 335.1825 136.736156 
L 335.565859 200.02438 
L 335.949219 137.895562 
L 336.332578 178.76414 
L 336.715937 182.907649 
L 337.099297 163.91341 
L 337.482656 190.269575 
L 338.249375 84.582009 
L 338.632734 101.047637 
L 339.016094 144.215927 
L 339.399453 107.682066 
L 339.782812 126.482804 
L 340.166172 161.009905 
L 340.549531 121.765882 
L 340.932891 154.610436 
L 341.31625 165.814981 
L 341.699609 212.655542 
L 342.082969 215.304863 
L 342.466328 159.5699 
L 342.849688 203.434698 
L 343.233047 119.146706 
L 343.616406 149.229422 
L 343.999766 196.20987 
L 344.383125 140.872982 
L 344.766484 165.251165 
L 345.149844 179.009546 
L 345.533203 217.456438 
L 345.916562 239.316126 
L 346.299922 215.510301 
L 346.683281 136.914004 
L 347.066641 118.268768 
L 347.45 169.006228 
L 347.833359 141.783536 
L 348.216719 207.552014 
L 348.600078 161.136808 
L 348.983437 212.590238 
L 349.366797 197.65717 
L 349.750156 177.951419 
L 350.133516 207.506389 
L 350.516875 211.099205 
L 350.900234 116.509324 
L 351.283594 204.741932 
L 351.666953 214.146497 
L 352.050312 110.990383 
L 352.433672 154.61522 
L 352.817031 166.124768 
L 353.200391 157.354481 
L 353.58375 237.15857 
L 353.967109 170.105054 
L 354.350469 192.850209 
L 354.733828 180.706163 
L 355.117188 137.080697 
L 355.500547 180.860156 
L 355.883906 199.042252 
L 356.267266 185.304599 
L 356.650625 122.193124 
L 357.033984 198.564847 
L 357.417344 123.117121 
L 357.800703 158.647951 
L 358.184062 134.351215 
L 358.567422 155.790837 
L 358.950781 157.047933 
L 359.334141 157.391252 
L 359.7175 158.182146 
L 360.100859 159.619172 
L 360.484219 161.955608 
L 360.867578 166.389699 
L 361.250937 196.012765 
L 361.634297 55.158422 
L 362.017656 95.936734 
L 362.401016 111.479657 
L 362.784375 120.03671 
L 363.167734 125.082711 
L 363.551094 127.539755 
L 363.934453 126.847667 
L 364.317813 118.521906 
L 364.701172 141.016431 
L 365.084531 106.558301 
L 365.467891 90.716214 
L 365.85125 168.711095 
L 366.234609 89.024141 
L 366.617969 103.277624 
L 367.001328 100.370082 
L 367.384687 83.707961 
L 367.768047 111.089864 
L 368.151406 193.448667 
L 368.534766 75.374334 
L 368.918125 186.600129 
L 369.301484 110.430746 
L 369.684844 148.184341 
L 370.068203 140.011711 
L 370.451562 139.151765 
L 370.834922 224.021128 
L 371.601641 95.123051 
L 371.985 184.710777 
L 372.368359 108.113516 
L 372.751719 62.03412 
L 373.135078 98.995725 
L 373.518438 185.15541 
L 373.901797 227.457963 
L 374.285156 124.12589 
L 374.668516 143.882419 
L 375.051875 112.044558 
L 375.435234 189.258604 
L 375.818594 166.099694 
L 376.201953 123.923943 
L 376.968672 142.417809 
L 377.352031 134.929897 
L 377.735391 124.216257 
L 378.11875 184.081875 
L 378.502109 144.672923 
L 378.885469 177.122016 
L 379.268828 140.283854 
L 379.652187 198.141937 
L 380.035547 214.638755 
L 380.418906 201.945487 
L 380.802266 154.655552 
L 381.185625 143.856062 
L 381.568984 145.755738 
L 381.952344 82.801805 
L 382.335703 115.562555 
L 382.719063 175.009963 
L 383.102422 134.210218 
L 383.485781 161.884185 
L 383.869141 109.08936 
L 384.2525 180.351386 
L 384.635859 108.174987 
L 385.019219 154.567695 
L 385.402578 171.714784 
L 385.785937 220.167867 
L 386.169297 186.734077 
L 386.552656 110.378791 
L 386.936016 163.086648 
L 387.319375 136.003331 
L 387.702734 189.999665 
L 388.469453 178.331917 
L 388.852812 158.190691 
L 389.236172 117.950446 
L 389.619531 132.465521 
L 390.002891 103.396494 
L 390.38625 185.627604 
L 390.769609 183.587147 
L 391.152969 156.850765 
L 391.536328 98.729238 
L 391.919688 146.954834 
L 392.303047 153.034389 
L 392.686406 212.714545 
L 393.069766 128.468584 
L 393.836484 238.550796 
L 394.219844 196.37111 
L 394.603203 137.786587 
L 394.986562 206.297544 
L 395.369922 175.943018 
L 395.753281 161.856388 
L 396.136641 205.241383 
L 396.52 126.11012 
L 396.903359 213.654649 
L 397.286719 205.008893 
L 397.670078 155.469203 
L 398.053437 199.87946 
L 398.436797 121.056606 
L 398.820156 109.528224 
L 399.203516 177.124013 
L 399.586875 169.758084 
L 399.970234 102.88943 
L 400.353594 179.978131 
L 400.736953 121.5728 
L 401.120312 101.51811 
L 401.503672 176.923583 
L 401.887031 214.479405 
L 402.270391 179.47523 
L 403.037109 147.099465 
L 403.420469 89.230807 
L 403.803828 161.406776 
L 404.187187 100.472069 
L 404.570547 150.949222 
L 404.953906 136.491823 
L 405.337266 59.792611 
L 405.720625 137.782426 
L 406.103984 151.64819 
L 406.487344 135.939392 
L 406.870703 148.549192 
L 407.637422 159.087553 
L 408.020781 150.898604 
L 408.404141 77.777337 
L 408.7875 93.804688 
L 409.170859 103.361572 
L 409.554219 208.792263 
L 409.937578 161.023062 
L 410.320937 243.902327 
L 410.704297 95.899423 
L 411.087656 65.803496 
L 411.471016 200.670698 
L 411.854375 117.88435 
L 412.237734 111.314258 
L 412.621094 109.569899 
L 413.387812 187.359123 
L 413.771172 120.402042 
L 414.154531 168.249936 
L 414.537891 139.336942 
L 414.92125 88.075208 
L 415.304609 120.893323 
L 415.687969 83.980289 
L 416.071328 178.230371 
L 416.454687 207.581706 
L 416.838047 116.650642 
L 417.221406 153.607905 
L 417.604766 201.490877 
L 417.988125 157.74465 
L 418.371484 188.030206 
L 418.754844 155.463719 
L 419.138203 245.003826 
L 419.521562 199.870031 
L 419.904922 189.625309 
L 420.288281 158.521504 
L 420.671641 150.37783 
L 421.055 225.699911 
L 421.438359 164.693022 
L 421.821719 225.054243 
L 422.205078 206.567795 
L 422.588437 164.821277 
L 422.971797 161.048196 
L 423.355156 154.163898 
L 423.738516 135.743876 
L 424.121875 183.99178 
L 424.505234 103.007416 
L 424.888594 186.645061 
L 425.271953 217.754419 
L 425.655312 119.668463 
L 426.038672 180.016307 
L 426.422031 183.857188 
L 426.805391 219.432192 
L 427.18875 184.645416 
L 427.572109 211.934797 
L 427.955469 159.275211 
L 428.338828 269.932684 
L 428.722187 210.767847 
L 429.105547 124.336811 
L 429.488906 223.043621 
L 429.872266 242.162529 
L 430.638984 138.919363 
L 431.022344 166.237325 
L 431.405703 245.206417 
L 431.789062 239.366421 
L 432.172422 187.742475 
L 432.555781 76.28657 
L 432.939141 122.72218 
L 433.3225 109.013697 
L 434.089219 152.770989 
L 434.472578 172.909872 
L 434.855937 184.454149 
L 435.239297 173.299216 
L 435.622656 174.706142 
L 436.006016 184.872426 
L 436.389375 146.279004 
L 436.772734 133.275845 
L 437.539453 205.663913 
L 437.922812 159.170222 
L 438.306172 156.948499 
L 438.689531 111.812427 
L 439.072891 118.287214 
L 439.45625 194.786785 
L 439.839609 134.629742 
L 440.222969 132.005863 
L 440.606328 61.77822 
L 440.989688 147.8967 
L 441.373047 128.97219 
L 441.756406 122.956564 
L 442.139766 131.823467 
L 442.523125 69.08924 
L 442.906484 106.509677 
L 443.289844 81.016872 
L 443.673203 172.468091 
L 444.056562 141.518167 
L 444.439922 167.174111 
L 444.823281 137.3451 
L 445.206641 185.4835 
L 445.206641 185.4835 
" clip-path="url(#p23d187b6ac)" style="fill: none; stroke: #1f77b4; stroke-width: 1.5; stroke-linecap: square"/>
   </g>
   <g id="patch_3">
    <path d="M 53.03 303.64 
L 53.03 10.8 
" style="fill: none; stroke: #000000; stroke-width: 0.8; stroke-linejoin: miter; stroke-linecap: square"/>
   </g>
   <g id="patch_4">
    <path d="M 445.59 303.64 
L 445.59 10.8 
" style="fill: none; stroke: #000000; stroke-width: 0.8; stroke-linejoin: miter; stroke-linecap: square"/>
   </g>
   <g id="patch_5">
    <path d="M 53.03 303.64 
L 445.59 303.64 
" style="fill: none; stroke: #000000; stroke-width: 0.8; stroke-linejoin: miter; stroke-linecap: square"/>
   </g>
   <g id="patch_6">
    <path d="M 53.03 10.8 
L 445.59 10.8 
" style="fill: none; stroke: #000000; stroke-width: 0.8; stroke-linejoin: miter; stroke-linecap: square"/>
   </g>
  </g>
 </g>
 <defs>
  <clipPath id="p23d187b6ac">
   <rect x="53.03" y="10.8" width="392.56" height="292.84"/>
  </clipPath>
 </defs>
</svg>
