<?xml version="1.0" encoding="utf-8" standalone="no"?>
<!DOCTYPE svg PUBLIC "-//W3C//DTD SVG 1.1//EN"
  "http://www.w3.org/Graphics/SVG/1.1/DTD/svg11.dtd">
<svg xmlns:xlink="http://www.w3.org/1999/xlink" width="460.8pt" height="345.6pt" viewBox="0 0 460.8 345.6" xmlns="http://www.w3.org/2000/svg" version="1.1">
 <metadata>
  <rdf:RDF xmlns:dc="http://purl.org/dc/elements/1.1/" xmlns:cc="http://creativecommons.org/ns#" xmlns:rdf="http://www.w3.org/1999/02/22-rdf-syntax-ns#">
   <cc:Work>
    <dc:type rdf:resource="http://purl.org/dc/dcmitype/StillImage"/>
    <dc:date>2025-12-15T14:50:42.515920</dc:date>
    <dc:format>image/svg+xml</dc:format>
    <dc:creator>
     <cc:Agent>
      <dc:title>Matplotlib v3.10.6, https://matplotlib.org/</dc:title>
     </cc:Agent>
    </dc:creator>
   </cc:Work>
  </rdf:RDF>
 </metadata>
 <defs>
  <style type="text/css">*{stroke-linejoin: round; stroke-linecap: butt}</style>
 </defs>
 <g id="figure_1">
  <g id="patch_1">
   <path d="M 0 345.6 
L 460.8 345.6 
L 460.8 0 
L 0 0 
z
" style="fill: #ffffff"/>
  </g>
  <g id="axes_1">
   <g id="patch_2">
    <path d="M 131.4875 266.245 
L 434.88 266.245 
L 434.88 25.92 
L 131.4875 25.92 
z
" style="fill: #ffffff"/>
   </g>
   <g id="matplotlib.axis_1">
    <g id="xtick_1">
     <g id="line2d_1">
      <path d="M 170.440967 266.245 
L 170.440967 25.92 
" clip-path="url(#p23ccd11e57)" style="fill: none; stroke: #b0b0b0; stroke-width: 0.8; stroke-linecap: square"/>
     </g>
     <g id="line2d_2">
      <defs>
       <path id="m3e89205101" d="M 0 0 
L 0 3.5 
" style="stroke: #000000; stroke-width: 0.8"/>
      </defs>
      <g>
       <use xlink:href="#m3e89205101" x="170.440967" y="266.245" style="stroke: #000000; stroke-width: 0.8"/>
      </g>
     </g>
     <g id="text_1">
      <!-- −20000 -->
      <g transform="translate(133.672217 289.63625) scale(0.24 -0.24)">
       <defs>
        <path id="TeXGyreTermes-Regular-2212" d="M 3354 1389 
L 3354 1811 
L 256 1811 
L 256 1389 
L 3354 1389 
z
" transform="scale(0.015625)"/>
        <path id="TeXGyreTermes-Regular-32" d="M 3040 877 
L 2957 909 
C 2720 544 2637 486 2349 486 
L 819 486 
L 1894 1613 
C 2464 2208 2714 2694 2714 3194 
C 2714 3834 2195 4326 1530 4326 
C 1178 4326 845 4186 608 3930 
C 403 3712 307 3507 198 3053 
L 333 3021 
C 589 3648 819 3853 1261 3853 
C 1798 3853 2163 3488 2163 2950 
C 2163 2451 1869 1856 1331 1286 
L 192 77 
L 192 0 
L 2688 0 
L 3040 877 
z
" transform="scale(0.015625)"/>
        <path id="TeXGyreTermes-Regular-30" d="M 3046 2112 
C 3046 3424 2464 4326 1626 4326 
C 1274 4326 1005 4218 768 3994 
C 397 3635 154 2899 154 2150 
C 154 1453 365 704 666 346 
C 902 64 1229 -90 1600 -90 
C 1926 -90 2202 19 2432 243 
C 2803 595 3046 1338 3046 2112 
z
M 2432 2099 
C 2432 762 2150 77 1600 77 
C 1050 77 768 762 768 2093 
C 768 3450 1056 4160 1606 4160 
C 2144 4160 2432 3437 2432 2099 
z
" transform="scale(0.015625)"/>
       </defs>
       <use xlink:href="#TeXGyreTermes-Regular-2212"/>
       <use xlink:href="#TeXGyreTermes-Regular-32" transform="translate(56.399994 0)"/>
       <use xlink:href="#TeXGyreTermes-Regular-30" transform="translate(106.399979 0)"/>
       <use xlink:href="#TeXGyreTermes-Regular-30" transform="translate(156.399963 0)"/>
       <use xlink:href="#TeXGyreTermes-Regular-30" transform="translate(206.399948 0)"/>
       <use xlink:href="#TeXGyreTermes-Regular-30" transform="translate(256.399933 0)"/>
      </g>
     </g>
    </g>
    <g id="xtick_2">
     <g id="line2d_3">
      <path d="M 249.12157 266.245 
L 249.12157 25.92 
" clip-path="url(#p23ccd11e57)" style="fill: none; stroke: #b0b0b0; stroke-width: 0.8; stroke-linecap: square"/>
     </g>
     <g id="line2d_4">
      <g>
       <use xlink:href="#m3e89205101" x="249.12157" y="266.245" style="stroke: #000000; stroke-width: 0.8"/>
      </g>
     </g>
     <g id="text_2">
      <!-- 0 -->
      <g transform="translate(243.12157 289.63625) scale(0.24 -0.24)">
       <use xlink:href="#TeXGyreTermes-Regular-30"/>
      </g>
     </g>
    </g>
    <g id="xtick_3">
     <g id="line2d_5">
      <path d="M 327.802173 266.245 
L 327.802173 25.92 
" clip-path="url(#p23ccd11e57)" style="fill: none; stroke: #b0b0b0; stroke-width: 0.8; stroke-linecap: square"/>
     </g>
     <g id="line2d_6">
      <g>
       <use xlink:href="#m3e89205101" x="327.802173" y="266.245" style="stroke: #000000; stroke-width: 0.8"/>
      </g>
     </g>
     <g id="text_3">
      <!-- 20000 -->
      <g transform="translate(297.802173 289.63625) scale(0.24 -0.24)">
       <use xlink:href="#TeXGyreTermes-Regular-32"/>
       <use xlink:href="#TeXGyreTermes-Regular-30" transform="translate(49.999985 0)"/>
       <use xlink:href="#TeXGyreTermes-Regular-30" transform="translate(99.999969 0)"/>
       <use xlink:href="#TeXGyreTermes-Regular-30" transform="translate(149.999954 0)"/>
       <use xlink:href="#TeXGyreTermes-Regular-30" transform="translate(199.999939 0)"/>
      </g>
     </g>
    </g>
    <g id="xtick_4">
     <g id="line2d_7">
      <path d="M 406.482776 266.245 
L 406.482776 25.92 
" clip-path="url(#p23ccd11e57)" style="fill: none; stroke: #b0b0b0; stroke-width: 0.8; stroke-linecap: square"/>
     </g>
     <g id="line2d_8">
      <g>
       <use xlink:href="#m3e89205101" x="406.482776" y="266.245" style="stroke: #000000; stroke-width: 0.8"/>
      </g>
     </g>
     <g id="text_4">
      <!-- 40000 -->
      <g transform="translate(376.482776 289.63625) scale(0.24 -0.24)">
       <defs>
        <path id="TeXGyreTermes-Regular-34" d="M 3021 1069 
L 3021 1478 
L 2368 1478 
L 2368 4326 
L 2086 4326 
L 77 1478 
L 77 1069 
L 1875 1069 
L 1875 0 
L 2368 0 
L 2368 1069 
L 3021 1069 
z
M 1869 1478 
L 333 1478 
L 1869 3674 
L 1869 1478 
z
" transform="scale(0.015625)"/>
       </defs>
       <use xlink:href="#TeXGyreTermes-Regular-34"/>
       <use xlink:href="#TeXGyreTermes-Regular-30" transform="translate(49.999985 0)"/>
       <use xlink:href="#TeXGyreTermes-Regular-30" transform="translate(99.999969 0)"/>
       <use xlink:href="#TeXGyreTermes-Regular-30" transform="translate(149.999954 0)"/>
       <use xlink:href="#TeXGyreTermes-Regular-30" transform="translate(199.999939 0)"/>
      </g>
     </g>
    </g>
    <g id="text_5">
     <!-- x -->
     <g transform="translate(277.18375 315.23625) scale(0.24 -0.24)">
      <defs>
       <path id="TeXGyreTermes-Regular-78" d="M 3066 0 
L 3066 96 
C 2867 96 2739 198 2541 480 
L 1722 1734 
L 2253 2502 
C 2374 2675 2566 2778 2771 2784 
L 2771 2880 
L 1760 2880 
L 1760 2784 
C 1952 2771 2016 2733 2016 2643 
C 2016 2566 1939 2426 1779 2227 
C 1747 2189 1670 2074 1587 1946 
L 1498 2074 
C 1318 2342 1203 2560 1203 2643 
C 1203 2733 1286 2778 1478 2784 
L 1478 2880 
L 154 2880 
L 154 2784 
L 211 2784 
C 403 2784 506 2701 704 2400 
L 1306 1478 
L 576 422 
C 384 160 320 115 109 96 
L 109 0 
L 1037 0 
L 1037 96 
C 858 96 781 128 781 211 
C 781 250 826 346 909 474 
L 1414 1261 
L 1997 365 
C 2022 326 2035 288 2035 250 
C 2035 134 1990 109 1779 96 
L 1779 0 
L 3066 0 
z
" transform="scale(0.015625)"/>
      </defs>
      <use xlink:href="#TeXGyreTermes-Regular-78"/>
     </g>
    </g>
   </g>
   <g id="matplotlib.axis_2">
    <g id="ytick_1">
     <g id="line2d_9">
      <path d="M 131.4875 216.326618 
L 434.88 216.326618 
" clip-path="url(#p23ccd11e57)" style="fill: none; stroke: #b0b0b0; stroke-width: 0.8; stroke-linecap: square"/>
     </g>
     <g id="line2d_10">
      <defs>
       <path id="mda4799e872" d="M 0 0 
L -3.5 0 
" style="stroke: #000000; stroke-width: 0.8"/>
      </defs>
      <g>
       <use xlink:href="#mda4799e872" x="131.4875" y="216.326618" style="stroke: #000000; stroke-width: 0.8"/>
      </g>
     </g>
     <g id="text_6">
      <!-- −10000 -->
      <g transform="translate(50.95 224.522243) scale(0.24 -0.24)">
       <defs>
        <path id="TeXGyreTermes-Regular-31" d="M 2522 0 
L 2522 96 
C 2016 102 1914 166 1914 474 
L 1914 4314 
L 1862 4326 
L 710 3744 
L 710 3654 
C 787 3686 858 3712 883 3725 
C 998 3770 1107 3795 1171 3795 
C 1306 3795 1363 3699 1363 3494 
L 1363 595 
C 1363 384 1312 237 1210 179 
C 1114 122 1024 102 755 96 
L 755 0 
L 2522 0 
z
" transform="scale(0.015625)"/>
       </defs>
       <use xlink:href="#TeXGyreTermes-Regular-2212"/>
       <use xlink:href="#TeXGyreTermes-Regular-31" transform="translate(56.399994 0)"/>
       <use xlink:href="#TeXGyreTermes-Regular-30" transform="translate(106.399979 0)"/>
       <use xlink:href="#TeXGyreTermes-Regular-30" transform="translate(156.399963 0)"/>
       <use xlink:href="#TeXGyreTermes-Regular-30" transform="translate(206.399948 0)"/>
       <use xlink:href="#TeXGyreTermes-Regular-30" transform="translate(256.399933 0)"/>
      </g>
     </g>
    </g>
    <g id="ytick_2">
     <g id="line2d_11">
      <path d="M 131.4875 136.698185 
L 434.88 136.698185 
" clip-path="url(#p23ccd11e57)" style="fill: none; stroke: #b0b0b0; stroke-width: 0.8; stroke-linecap: square"/>
     </g>
     <g id="line2d_12">
      <g>
       <use xlink:href="#mda4799e872" x="131.4875" y="136.698185" style="stroke: #000000; stroke-width: 0.8"/>
      </g>
     </g>
     <g id="text_7">
      <!-- 0 -->
      <g transform="translate(112.4875 144.89381) scale(0.24 -0.24)">
       <use xlink:href="#TeXGyreTermes-Regular-30"/>
      </g>
     </g>
    </g>
    <g id="ytick_3">
     <g id="line2d_13">
      <path d="M 131.4875 57.069751 
L 434.88 57.069751 
" clip-path="url(#p23ccd11e57)" style="fill: none; stroke: #b0b0b0; stroke-width: 0.8; stroke-linecap: square"/>
     </g>
     <g id="line2d_14">
      <g>
       <use xlink:href="#mda4799e872" x="131.4875" y="57.069751" style="stroke: #000000; stroke-width: 0.8"/>
      </g>
     </g>
     <g id="text_8">
      <!-- 10000 -->
      <g transform="translate(64.4875 65.265376) scale(0.24 -0.24)">
       <use xlink:href="#TeXGyreTermes-Regular-31"/>
       <use xlink:href="#TeXGyreTermes-Regular-30" transform="translate(49.999985 0)"/>
       <use xlink:href="#TeXGyreTermes-Regular-30" transform="translate(99.999969 0)"/>
       <use xlink:href="#TeXGyreTermes-Regular-30" transform="translate(149.999954 0)"/>
       <use xlink:href="#TeXGyreTermes-Regular-30" transform="translate(199.999939 0)"/>
      </g>
     </g>
    </g>
    <g id="text_9">
     <!-- y -->
     <g transform="translate(41.71875 152.0825) rotate(-90) scale(0.24 -0.24)">
      <defs>
       <path id="TeXGyreTermes-Regular-79" d="M 3040 2784 
L 3040 2880 
L 2176 2880 
L 2176 2784 
C 2381 2784 2483 2726 2483 2624 
C 2483 2598 2477 2560 2458 2515 
L 1837 749 
L 1101 2368 
C 1062 2458 1037 2541 1037 2611 
C 1037 2726 1133 2771 1408 2784 
L 1408 2880 
L 90 2880 
L 90 2790 
C 256 2765 365 2694 416 2586 
L 1472 358 
C 1517 250 1542 173 1542 122 
C 1542 26 1395 -378 1286 -570 
C 1197 -736 1056 -858 966 -858 
C 928 -858 870 -845 806 -813 
C 685 -768 576 -742 467 -742 
C 320 -742 192 -870 192 -1024 
C 192 -1235 397 -1395 666 -1395 
C 1094 -1395 1402 -1037 1747 -115 
L 2733 2496 
C 2816 2701 2886 2765 3040 2784 
z
" transform="scale(0.015625)"/>
      </defs>
      <use xlink:href="#TeXGyreTermes-Regular-79"/>
     </g>
    </g>
   </g>
   <g id="line2d_15">
    <path d="M 249.12157 136.698185 
L 249.125365 136.713732 
L 249.051924 136.641512 
L 248.853581 136.340672 
L 248.424062 134.495053 
L 248.208013 133.556479 
L 247.582906 131.88733 
L 246.951751 129.338506 
L 246.927024 122.293766 
L 247.223348 116.890706 
L 247.258774 112.432377 
L 247.575552 109.287055 
L 248.204212 104.540294 
L 248.735169 100.868511 
L 249.241748 98.032146 
L 249.449507 95.811306 
L 249.613722 93.5281 
L 250.59653 90.744395 
L 251.103132 89.699034 
L 251.457936 89.287899 
L 252.688072 88.085497 
L 252.93044 88.089348 
L 253.439118 88.254951 
L 254.095358 88.022611 
L 254.518738 87.640111 
L 255.017795 87.230001 
L 255.309967 87.009535 
L 258.4939 82.042007 
L 259.450382 80.194835 
L 261.309381 76.997503 
L 263.101644 74.520648 
L 263.979193 73.603865 
L 264.784303 72.53051 
L 266.158174 70.151363 
L 266.895732 68.467479 
L 267.828508 66.367714 
L 270.379053 61.119279 
L 271.230604 59.471641 
L 273.51508 54.347037 
L 274.998649 51.394142 
L 277.700153 47.463768 
L 279.318311 45.811158 
L 280.700027 44.697816 
L 282.651288 43.446288 
L 287.07234 40.654429 
L 288.792207 39.685354 
L 290.515171 38.760822 
L 291.695943 38.177908 
L 294.358123 37.181721 
L 295.987688 36.945852 
L 300.063838 36.843864 
L 301.596978 36.978637 
L 304.19446 37.538674 
L 306.991061 38.218955 
L 309.070532 38.631887 
L 310.990188 38.878496 
L 313.758995 39.717081 
L 316.670913 41.227133 
L 318.665547 41.648303 
L 320.842362 41.668904 
L 321.890754 41.678386 
L 322.797479 41.777136 
L 324.166941 42.175901 
L 326.078987 42.99504 
L 327.227145 43.435698 
L 328.584772 43.632676 
L 329.937715 43.617096 
L 331.598628 43.372061 
L 336.80261 41.020676 
L 338.288653 40.158443 
L 341.658754 39.114081 
L 341.658754 39.114081 
" clip-path="url(#p23ccd11e57)" style="fill: none; stroke: #1f77b4; stroke-opacity: 0.75; stroke-width: 1.5; stroke-linecap: square"/>
   </g>
   <g id="line2d_16">
    <path d="M 249.12157 136.698185 
L 249.140136 136.689575 
L 249.181913 136.620244 
L 249.18052 136.477641 
L 249.07258 137.26931 
L 249.35632 138.05963 
L 250.551916 141.936534 
L 251.270644 143.830184 
L 251.76493 144.71567 
L 252.865361 147.238087 
L 253.273149 148.011194 
L 253.875489 148.964348 
L 254.314767 149.590599 
L 254.761605 150.532447 
L 255.668959 152.743202 
L 256.067981 153.734061 
L 256.795509 156.00713 
L 257.178866 158.422936 
L 257.646663 161.466588 
L 258.09673 162.622457 
L 259.166591 164.478167 
L 260.876106 166.252166 
L 261.847133 167.023666 
L 263.523752 168.044845 
L 264.512849 168.560359 
L 265.698655 169.308902 
L 266.733228 170.089667 
L 268.182278 170.740133 
L 269.079762 171.577042 
L 271.255609 173.956517 
L 272.053735 174.647438 
L 273.448383 175.768483 
L 275.279378 177.127949 
L 276.617112 178.145515 
L 282.734419 183.758359 
L 287.469509 188.419753 
L 289.315277 189.825001 
L 293.179981 192.414179 
L 295.15662 193.289835 
L 296.990772 194.01815 
L 301.753879 196.128233 
L 303.153403 196.927071 
L 305.551927 198.346019 
L 307.004865 199.034662 
L 309.87074 199.996559 
L 311.068693 200.371697 
L 316.301406 202.482694 
L 320.233213 203.982039 
L 322.626935 204.907861 
L 326.009905 206.046137 
L 333.687801 209.082095 
L 339.530412 212.049856 
L 342.642411 213.445938 
L 346.002668 215.152985 
L 350.842925 217.897132 
L 354.079022 219.796348 
L 356.435978 221.070526 
L 360.467847 223.033668 
L 365.61005 225.660309 
L 372.289553 229.32391 
L 382.798127 234.74908 
L 387.961155 237.817608 
L 396.354979 243.48136 
L 402.702516 247.884696 
L 404.529826 248.861285 
L 406.402832 249.621921 
L 419.824995 254.748168 
L 421.089432 255.321136 
L 421.089432 255.321136 
" clip-path="url(#p23ccd11e57)" style="fill: none; stroke: #ff7f0e; stroke-opacity: 0.75; stroke-width: 1.5; stroke-linecap: square"/>
   </g>
   <g id="line2d_17">
    <path d="M 249.12157 136.698185 
L 249.136597 136.250921 
L 249.058089 135.379501 
L 248.996012 134.760159 
L 249.025953 134.793372 
L 249.23169 134.877675 
L 249.576621 134.820074 
L 250.139378 134.490396 
L 250.396585 134.128128 
L 250.908837 133.592022 
L 251.175919 133.394402 
L 251.694651 132.858338 
L 251.779903 132.190944 
L 251.807677 129.62154 
L 250.575919 125.618496 
L 249.134604 122.569121 
L 248.496997 121.504153 
L 248.017722 120.479587 
L 247.697821 119.164198 
L 248.875701 111.362977 
L 249.462512 110.281251 
L 250.127819 109.73453 
L 251.074575 110.230617 
L 251.374895 110.356261 
L 251.644216 110.473007 
L 252.038772 111.117688 
L 252.272873 112.48662 
L 252.407549 114.581369 
L 252.839324 117.41358 
L 253.3024 118.278448 
L 253.575976 118.845852 
L 253.802935 119.726454 
L 254.884979 126.531788 
L 255.657908 129.098053 
L 255.858238 129.892929 
L 256.328058 132.991914 
L 256.539002 135.136106 
L 256.669994 137.981902 
L 256.733376 142.164624 
L 257.103387 144.079598 
L 258.443429 149.250064 
L 259.940791 153.734169 
L 260.511624 154.73664 
L 261.0293 155.603887 
L 265.663126 164.799675 
L 268.283515 169.162325 
L 269.325105 171.90051 
L 270.607628 175.534112 
L 271.444603 177.812628 
L 273.53069 184.894964 
L 275.581273 190.469731 
L 275.581273 190.469731 
" clip-path="url(#p23ccd11e57)" style="fill: none; stroke: #2ca02c; stroke-opacity: 0.75; stroke-width: 1.5; stroke-linecap: square"/>
   </g>
   <g id="line2d_18">
    <path d="M 249.12157 136.698185 
L 249.112058 136.707288 
L 249.231716 136.733 
L 249.318213 137.391257 
L 249.091751 137.594026 
L 248.805572 137.701159 
L 248.383344 137.8362 
L 247.968021 138.42719 
L 246.18922 141.601739 
L 244.329397 144.138094 
L 243.635788 145.187061 
L 243.197943 145.576054 
L 242.533245 146.907424 
L 242.248088 147.39014 
L 241.123437 150.022135 
L 240.333604 153.340827 
L 239.929553 154.686966 
L 239.786068 156.453334 
L 239.686938 163.330645 
L 239.640631 166.30926 
L 239.099254 171.887883 
L 238.506549 175.187306 
L 237.349771 179.817639 
L 236.839871 181.328505 
L 236.330805 182.788243 
L 235.567712 185.782524 
L 234.777972 187.896133 
L 234.020257 189.455584 
L 233.032797 191.7321 
L 232.591923 192.722179 
L 232.310253 193.856005 
L 232.361308 194.789606 
L 232.570068 195.493999 
L 233.190463 197.031764 
L 234.258112 199.460095 
L 234.432251 199.930119 
L 234.597696 200.660278 
L 234.645365 200.452865 
L 234.915316 200.102809 
L 235.553017 198.737769 
L 235.625363 197.962816 
L 235.619179 196.191204 
L 235.343076 195.912562 
L 233.326254 193.774551 
L 232.594218 193.017993 
L 231.612893 191.738071 
L 230.607714 190.089312 
L 229.418124 188.180023 
L 228.808959 187.329059 
L 228.501535 186.613354 
L 228.506359 185.644148 
L 228.835465 180.760271 
L 229.278212 177.499457 
L 229.884291 175.440529 
L 230.324453 174.06981 
L 231.222056 170.596598 
L 231.222056 170.596598 
" clip-path="url(#p23ccd11e57)" style="fill: none; stroke: #d62728; stroke-opacity: 0.75; stroke-width: 1.5; stroke-linecap: square"/>
   </g>
   <g id="line2d_19">
    <path d="M 249.12157 136.698185 
L 249.119778 136.699223 
L 249.112068 136.585864 
L 249.057364 136.089962 
L 248.97632 135.948595 
L 248.911494 135.659978 
L 248.826721 135.891499 
L 248.795007 136.039434 
L 248.668223 137.867147 
L 248.657023 138.050906 
L 248.506901 138.523999 
L 248.46789 138.514084 
L 248.221334 138.412129 
L 247.853392 138.467683 
L 246.809284 139.805203 
L 246.335439 139.976682 
L 245.790399 139.927376 
L 244.289216 139.448639 
L 243.600753 138.784521 
L 242.816519 138.129952 
L 241.958516 137.455631 
L 240.842586 136.595018 
L 240.221226 136.042254 
L 239.100009 134.947451 
L 238.277125 134.182608 
L 237.338945 132.932174 
L 234.842823 128.844894 
L 233.035875 126.004306 
L 231.969534 124.794329 
L 231.023601 124.023784 
L 230.414213 123.778169 
L 229.229705 123.310132 
L 228.649578 123.33044 
L 227.680753 123.098022 
L 226.442554 122.923593 
L 225.754147 123.025013 
L 224.296735 123.461762 
L 223.518398 123.86367 
L 222.559693 124.518646 
L 221.400237 125.224738 
L 217.719277 127.968148 
L 216.876931 128.698506 
L 215.908132 129.915706 
L 215.135563 130.829416 
L 211.630572 134.698718 
L 209.892074 136.195068 
L 209.315066 136.503491 
L 206.489103 137.926826 
L 201.208338 141.863555 
L 199.670144 142.776032 
L 198.621839 143.203637 
L 197.470035 143.954728 
L 196.553473 144.409246 
L 195.439176 144.834674 
L 194.082509 145.240694 
L 188.831459 146.82583 
L 186.51352 147.372254 
L 180.964858 150.16264 
L 179.577647 151.082544 
L 175.117249 154.60629 
L 171.643142 157.240337 
L 170.379213 158.277471 
L 167.904123 160.884856 
L 166.760354 162.35898 
L 165.494069 164.179033 
L 162.576178 168.403972 
L 160.678228 170.875204 
L 156.239865 176.031307 
L 153.16599 180.246932 
L 150.763278 183.716167 
L 145.278068 191.644484 
L 145.278068 191.644484 
" clip-path="url(#p23ccd11e57)" style="fill: none; stroke: #9467bd; stroke-opacity: 0.75; stroke-width: 1.5; stroke-linecap: square"/>
   </g>
   <g id="patch_3">
    <path d="M 131.4875 266.245 
L 131.4875 25.92 
" style="fill: none; stroke: #000000; stroke-width: 0.8; stroke-linejoin: miter; stroke-linecap: square"/>
   </g>
   <g id="patch_4">
    <path d="M 434.88 266.245 
L 434.88 25.92 
" style="fill: none; stroke: #000000; stroke-width: 0.8; stroke-linejoin: miter; stroke-linecap: square"/>
   </g>
   <g id="patch_5">
    <path d="M 131.4875 266.245 
L 434.88 266.245 
" style="fill: none; stroke: #000000; stroke-width: 0.8; stroke-linejoin: miter; stroke-linecap: square"/>
   </g>
   <g id="patch_6">
    <path d="M 131.4875 25.92 
L 434.88 25.92 
" style="fill: none; stroke: #000000; stroke-width: 0.8; stroke-linejoin: miter; stroke-linecap: square"/>
   </g>
  </g>
 </g>
 <defs>
  <clipPath id="p23ccd11e57">
   <rect x="131.4875" y="25.92" width="303.3925" height="240.325"/>
  </clipPath>
 </defs>
</svg>
