<?xml version="1.0" encoding="utf-8" standalone="no"?>
<!DOCTYPE svg PUBLIC "-//W3C//DTD SVG 1.1//EN"
  "http://www.w3.org/Graphics/SVG/1.1/DTD/svg11.dtd">
<svg xmlns:xlink="http://www.w3.org/1999/xlink" width="460.8pt" height="345.6pt" viewBox="0 0 460.8 345.6" xmlns="http://www.w3.org/2000/svg" version="1.1">
 <metadata>
  <rdf:RDF xmlns:dc="http://purl.org/dc/elements/1.1/" xmlns:cc="http://creativecommons.org/ns#" xmlns:rdf="http://www.w3.org/1999/02/22-rdf-syntax-ns#">
   <cc:Work>
    <dc:type rdf:resource="http://purl.org/dc/dcmitype/StillImage"/>
    <dc:date>2026-01-29T13:32:32.775866</dc:date>
    <dc:format>image/svg+xml</dc:format>
    <dc:creator>
     <cc:Agent>
      <dc:title>Matplotlib v3.10.8, https://matplotlib.org/</dc:title>
     </cc:Agent>
    </dc:creator>
   </cc:Work>
  </rdf:RDF>
 </metadata>
 <defs>
  <style type="text/css">*{stroke-linejoin: round; stroke-linecap: butt}</style>
 </defs>
 <g id="figure_1">
  <g id="patch_1">
   <path d="M 0 345.6 
L 460.8 345.6 
L 460.8 0 
L 0 0 
z
" style="fill: #ffffff"/>
  </g>
  <g id="axes_1">
   <g id="patch_2">
    <path d="M 119.5175 266.245 
L 434.88 266.245 
L 434.88 25.92 
L 119.5175 25.92 
z
" style="fill: #ffffff"/>
   </g>
   <g id="matplotlib.axis_1">
    <g id="xtick_1">
     <g id="line2d_1">
      <path d="M 142.076423 266.245 
L 142.076423 25.92 
" clip-path="url(#p442eba74d7)" style="fill: none; stroke: #b0b0b0; stroke-width: 0.8; stroke-linecap: square"/>
     </g>
     <g id="line2d_2">
      <defs>
       <path id="mf003b37cb6" d="M 0 0 
L 0 3.5 
" style="stroke: #000000; stroke-width: 0.8"/>
      </defs>
      <g>
       <use xlink:href="#mf003b37cb6" x="142.076423" y="266.245" style="stroke: #000000; stroke-width: 0.8"/>
      </g>
     </g>
     <g id="text_1">
      <!-- −500 -->
      <g transform="translate(117.307673 289.63625) scale(0.24 -0.24)">
       <defs>
        <path id="TeXGyreTermes-Regular-2212" d="M 3354 1389 
L 3354 1811 
L 256 1811 
L 256 1389 
L 3354 1389 
z
" transform="scale(0.015625)"/>
        <path id="TeXGyreTermes-Regular-35" d="M 2803 4358 
L 2746 4403 
C 2650 4269 2586 4237 2451 4237 
L 1114 4237 
L 416 2720 
C 410 2707 410 2688 410 2688 
C 410 2656 435 2637 486 2637 
C 691 2637 947 2592 1210 2509 
C 1946 2272 2285 1875 2285 1242 
C 2285 627 1894 147 1395 147 
C 1267 147 1158 192 966 333 
C 762 480 614 544 480 544 
C 294 544 205 467 205 307 
C 205 64 506 -90 986 -90 
C 1523 -90 1984 83 2304 410 
C 2598 698 2733 1062 2733 1549 
C 2733 2010 2611 2304 2291 2624 
C 2010 2906 1645 3053 890 3187 
L 1158 3731 
L 2413 3731 
C 2515 3731 2541 3744 2560 3789 
L 2803 4358 
z
" transform="scale(0.015625)"/>
        <path id="TeXGyreTermes-Regular-30" d="M 3046 2112 
C 3046 3424 2464 4326 1626 4326 
C 1274 4326 1005 4218 768 3994 
C 397 3635 154 2899 154 2150 
C 154 1453 365 704 666 346 
C 902 64 1229 -90 1600 -90 
C 1926 -90 2202 19 2432 243 
C 2803 595 3046 1338 3046 2112 
z
M 2432 2099 
C 2432 762 2150 77 1600 77 
C 1050 77 768 762 768 2093 
C 768 3450 1056 4160 1606 4160 
C 2144 4160 2432 3437 2432 2099 
z
" transform="scale(0.015625)"/>
       </defs>
       <use xlink:href="#TeXGyreTermes-Regular-2212"/>
       <use xlink:href="#TeXGyreTermes-Regular-35" transform="translate(56.399994 0)"/>
       <use xlink:href="#TeXGyreTermes-Regular-30" transform="translate(106.399979 0)"/>
       <use xlink:href="#TeXGyreTermes-Regular-30" transform="translate(156.399963 0)"/>
      </g>
     </g>
    </g>
    <g id="xtick_2">
     <g id="line2d_3">
      <path d="M 263.172467 266.245 
L 263.172467 25.92 
" clip-path="url(#p442eba74d7)" style="fill: none; stroke: #b0b0b0; stroke-width: 0.8; stroke-linecap: square"/>
     </g>
     <g id="line2d_4">
      <g>
       <use xlink:href="#mf003b37cb6" x="263.172467" y="266.245" style="stroke: #000000; stroke-width: 0.8"/>
      </g>
     </g>
     <g id="text_2">
      <!-- 0 -->
      <g transform="translate(257.172467 289.63625) scale(0.24 -0.24)">
       <use xlink:href="#TeXGyreTermes-Regular-30"/>
      </g>
     </g>
    </g>
    <g id="xtick_3">
     <g id="line2d_5">
      <path d="M 384.268511 266.245 
L 384.268511 25.92 
" clip-path="url(#p442eba74d7)" style="fill: none; stroke: #b0b0b0; stroke-width: 0.8; stroke-linecap: square"/>
     </g>
     <g id="line2d_6">
      <g>
       <use xlink:href="#mf003b37cb6" x="384.268511" y="266.245" style="stroke: #000000; stroke-width: 0.8"/>
      </g>
     </g>
     <g id="text_3">
      <!-- 500 -->
      <g transform="translate(366.268511 289.63625) scale(0.24 -0.24)">
       <use xlink:href="#TeXGyreTermes-Regular-35"/>
       <use xlink:href="#TeXGyreTermes-Regular-30" transform="translate(49.999985 0)"/>
       <use xlink:href="#TeXGyreTermes-Regular-30" transform="translate(99.999969 0)"/>
      </g>
     </g>
    </g>
    <g id="text_4">
     <!-- x -->
     <g transform="translate(271.19875 315.23625) scale(0.24 -0.24)">
      <defs>
       <path id="TeXGyreTermes-Regular-78" d="M 3066 0 
L 3066 96 
C 2867 96 2739 198 2541 480 
L 1722 1734 
L 2253 2502 
C 2374 2675 2566 2778 2771 2784 
L 2771 2880 
L 1760 2880 
L 1760 2784 
C 1952 2771 2016 2733 2016 2643 
C 2016 2566 1939 2426 1779 2227 
C 1747 2189 1670 2074 1587 1946 
L 1498 2074 
C 1318 2342 1203 2560 1203 2643 
C 1203 2733 1286 2778 1478 2784 
L 1478 2880 
L 154 2880 
L 154 2784 
L 211 2784 
C 403 2784 506 2701 704 2400 
L 1306 1478 
L 576 422 
C 384 160 320 115 109 96 
L 109 0 
L 1037 0 
L 1037 96 
C 858 96 781 128 781 211 
C 781 250 826 346 909 474 
L 1414 1261 
L 1997 365 
C 2022 326 2035 288 2035 250 
C 2035 134 1990 109 1779 96 
L 1779 0 
L 3066 0 
z
" transform="scale(0.015625)"/>
      </defs>
      <use xlink:href="#TeXGyreTermes-Regular-78"/>
     </g>
    </g>
   </g>
   <g id="matplotlib.axis_2">
    <g id="ytick_1">
     <g id="line2d_7">
      <path d="M 119.5175 247.145341 
L 434.88 247.145341 
" clip-path="url(#p442eba74d7)" style="fill: none; stroke: #b0b0b0; stroke-width: 0.8; stroke-linecap: square"/>
     </g>
     <g id="line2d_8">
      <defs>
       <path id="m65d8b8524d" d="M 0 0 
L -3.5 0 
" style="stroke: #000000; stroke-width: 0.8"/>
      </defs>
      <g>
       <use xlink:href="#m65d8b8524d" x="119.5175" y="247.145341" style="stroke: #000000; stroke-width: 0.8"/>
      </g>
     </g>
     <g id="text_5">
      <!-- −1000 -->
      <g transform="translate(50.98 255.340966) scale(0.24 -0.24)">
       <defs>
        <path id="TeXGyreTermes-Regular-31" d="M 2522 0 
L 2522 96 
C 2016 102 1914 166 1914 474 
L 1914 4314 
L 1862 4326 
L 710 3744 
L 710 3654 
C 787 3686 858 3712 883 3725 
C 998 3770 1107 3795 1171 3795 
C 1306 3795 1363 3699 1363 3494 
L 1363 595 
C 1363 384 1312 237 1210 179 
C 1114 122 1024 102 755 96 
L 755 0 
L 2522 0 
z
" transform="scale(0.015625)"/>
       </defs>
       <use xlink:href="#TeXGyreTermes-Regular-2212"/>
       <use xlink:href="#TeXGyreTermes-Regular-31" transform="translate(56.399994 0)"/>
       <use xlink:href="#TeXGyreTermes-Regular-30" transform="translate(106.399979 0)"/>
       <use xlink:href="#TeXGyreTermes-Regular-30" transform="translate(156.399963 0)"/>
       <use xlink:href="#TeXGyreTermes-Regular-30" transform="translate(206.399948 0)"/>
      </g>
     </g>
    </g>
    <g id="ytick_2">
     <g id="line2d_9">
      <path d="M 119.5175 171.142046 
L 434.88 171.142046 
" clip-path="url(#p442eba74d7)" style="fill: none; stroke: #b0b0b0; stroke-width: 0.8; stroke-linecap: square"/>
     </g>
     <g id="line2d_10">
      <g>
       <use xlink:href="#m65d8b8524d" x="119.5175" y="171.142046" style="stroke: #000000; stroke-width: 0.8"/>
      </g>
     </g>
     <g id="text_6">
      <!-- −500 -->
      <g transform="translate(62.98 179.337671) scale(0.24 -0.24)">
       <use xlink:href="#TeXGyreTermes-Regular-2212"/>
       <use xlink:href="#TeXGyreTermes-Regular-35" transform="translate(56.399994 0)"/>
       <use xlink:href="#TeXGyreTermes-Regular-30" transform="translate(106.399979 0)"/>
       <use xlink:href="#TeXGyreTermes-Regular-30" transform="translate(156.399963 0)"/>
      </g>
     </g>
    </g>
    <g id="ytick_3">
     <g id="line2d_11">
      <path d="M 119.5175 95.138751 
L 434.88 95.138751 
" clip-path="url(#p442eba74d7)" style="fill: none; stroke: #b0b0b0; stroke-width: 0.8; stroke-linecap: square"/>
     </g>
     <g id="line2d_12">
      <g>
       <use xlink:href="#m65d8b8524d" x="119.5175" y="95.138751" style="stroke: #000000; stroke-width: 0.8"/>
      </g>
     </g>
     <g id="text_7">
      <!-- 0 -->
      <g transform="translate(100.5175 103.334376) scale(0.24 -0.24)">
       <use xlink:href="#TeXGyreTermes-Regular-30"/>
      </g>
     </g>
    </g>
    <g id="text_8">
     <!-- y -->
     <g transform="translate(41.74875 152.0825) rotate(-90) scale(0.24 -0.24)">
      <defs>
       <path id="TeXGyreTermes-Regular-79" d="M 3040 2784 
L 3040 2880 
L 2176 2880 
L 2176 2784 
C 2381 2784 2483 2726 2483 2624 
C 2483 2598 2477 2560 2458 2515 
L 1837 749 
L 1101 2368 
C 1062 2458 1037 2541 1037 2611 
C 1037 2726 1133 2771 1408 2784 
L 1408 2880 
L 90 2880 
L 90 2790 
C 256 2765 365 2694 416 2586 
L 1472 358 
C 1517 250 1542 173 1542 122 
C 1542 26 1395 -378 1286 -570 
C 1197 -736 1056 -858 966 -858 
C 928 -858 870 -845 806 -813 
C 685 -768 576 -742 467 -742 
C 320 -742 192 -870 192 -1024 
C 192 -1235 397 -1395 666 -1395 
C 1094 -1395 1402 -1037 1747 -115 
L 2733 2496 
C 2816 2701 2886 2765 3040 2784 
z
" transform="scale(0.015625)"/>
      </defs>
      <use xlink:href="#TeXGyreTermes-Regular-79"/>
     </g>
    </g>
   </g>
   <g id="line2d_13">
    <path d="M 263.172467 95.138751 
L 263.176197 95.158284 
L 263.161357 95.142964 
L 262.776396 95.207743 
L 262.754817 95.312268 
L 262.725883 95.548627 
L 264.07005 96.920133 
L 264.890082 97.600097 
L 265.91816 99.048782 
L 267.388442 99.831544 
L 267.665015 100.223024 
L 267.861439 100.63151 
L 268.33105 101.355062 
L 269.505721 102.024147 
L 270.206347 102.174803 
L 271.320362 102.067358 
L 271.983898 101.884019 
L 272.727089 101.856251 
L 273.37829 101.513386 
L 274.969224 100.8069 
L 275.733547 100.692575 
L 276.904302 100.165376 
L 277.521553 99.996097 
L 278.206579 99.861964 
L 279.247376 99.671004 
L 280.915517 99.785454 
L 282.536872 99.395175 
L 287.192934 98.128314 
L 288.873139 97.773946 
L 290.300423 97.354521 
L 293.261578 96.520361 
L 297.086716 95.127113 
L 299.076717 93.934897 
L 299.690906 93.412407 
L 301.355899 92.600028 
L 302.147185 92.316481 
L 302.8471 91.893483 
L 305.246212 91.473571 
L 305.938207 91.313476 
L 306.619241 91.081006 
L 310.003485 90.636946 
L 310.488656 90.069266 
L 310.583495 89.84144 
L 310.678124 89.727053 
L 311.109172 89.691219 
L 311.574183 89.601048 
L 311.903076 89.641789 
L 311.805111 89.594859 
L 311.838563 89.362681 
L 311.925159 89.057091 
L 311.453975 88.464714 
L 311.547871 88.341403 
L 312.930461 88.442812 
L 313.47396 88.250849 
L 313.819408 87.970761 
L 315.261006 87.238329 
L 315.921293 87.269115 
L 317.275039 87.667451 
L 318.827847 87.734709 
L 320.180568 88.152084 
L 320.947862 88.200885 
L 321.829338 88.611802 
L 321.824134 88.916947 
L 322.081388 88.974291 
L 322.65572 89.199819 
L 323.25801 89.708736 
L 323.47952 89.988592 
L 323.948335 90.444399 
L 324.316853 90.796984 
L 325.343874 91.202894 
L 326.250237 91.48859 
L 327.367716 92.483383 
L 328.447979 93.002738 
L 329.483937 93.229214 
L 329.791575 93.757389 
L 329.9285 94.053134 
L 329.946923 94.474538 
L 330.221287 94.97938 
L 330.96767 95.411389 
L 332.987022 96.346949 
L 333.666105 96.523226 
L 339.176174 97.815915 
L 341.299855 98.66421 
L 343.584414 98.954345 
L 345.976098 98.957775 
L 348.475767 99.447944 
L 348.833602 99.432856 
L 349.88658 99.265637 
L 350.638679 99.192354 
L 352.532062 99.520626 
L 354.440081 99.820502 
L 357.25251 100.392421 
L 357.803962 101.009523 
L 357.752996 101.155295 
L 358.210355 101.881551 
L 358.92249 102.126798 
L 361.858453 101.983422 
L 362.630917 102.16377 
L 363.137468 102.30268 
L 364.093794 102.76694 
L 364.634366 103.303205 
L 365.605333 104.63259 
L 366.174989 105.347825 
L 366.44322 105.717968 
L 367.0888 107.068124 
L 367.74588 107.803462 
L 368.324666 108.589185 
L 369.249843 109.403588 
L 370.439389 110.648833 
L 371.529041 111.656357 
L 372.602038 112.960176 
L 373.727745 114.988045 
L 374.085992 115.808385 
L 375.055779 117.688146 
L 375.636363 119.524577 
L 376.075844 120.22917 
L 376.874722 120.986975 
L 377.60078 121.713411 
L 378.388175 122.73588 
L 378.886788 123.523543 
L 379.880338 124.72808 
L 380.637467 126.430917 
L 380.688848 126.871027 
L 381.194387 127.635342 
L 382.295724 128.602686 
L 383.020825 129.369582 
L 384.698337 131.563161 
L 385.709653 132.591433 
L 388.054348 134.671883 
L 392.212628 139.132353 
L 393.413884 140.426796 
L 394.282743 141.383157 
L 398.785449 146.88758 
L 399.716023 148.69099 
L 401.256639 150.431222 
L 401.512118 150.895345 
L 403.319559 152.736844 
L 405.280107 153.905154 
L 406.844281 155.224112 
L 407.26624 156.007367 
L 407.535136 156.780031 
L 407.883157 157.913961 
L 408.0339 159.042512 
L 408.073304 160.280264 
L 408.435311 160.97032 
L 409.432244 162.305273 
L 409.630335 163.463092 
L 408.961686 164.917939 
L 408.800357 165.523092 
L 406.870073 166.680996 
L 406.128754 167.080746 
L 405.763042 167.450066 
L 405.531414 168.199457 
L 405.423263 169.077963 
L 405.686549 169.976189 
L 405.852268 170.386322 
L 405.575265 170.954919 
L 405.149247 171.483329 
L 405.102411 171.881174 
L 405.276505 172.298243 
L 405.96298 173.206424 
L 406.140084 173.709693 
L 407.256972 174.780112 
L 407.891071 175.194187 
L 408.406266 175.447108 
L 409.980003 176.641188 
L 411.147064 177.240077 
L 412.535021 178.119295 
L 413.944012 178.848288 
L 417.319174 181.317989 
L 418.388229 182.358466 
L 418.759911 183.076675 
L 419.557808 184.441814 
L 419.864385 185.341462 
L 420.084163 185.928626 
L 420.399905 186.398833 
L 420.539024 187.146902 
L 420.308592 187.779872 
L 419.62381 188.084887 
L 418.719769 188.939181 
L 418.003121 190.147408 
L 417.143362 191.064719 
L 416.628497 191.319472 
L 415.103313 192.256938 
L 414.482528 192.534454 
L 413.668341 192.58179 
L 412.357815 193.291762 
L 412.040792 193.777399 
L 411.88909 193.907597 
L 412.34104 194.065126 
L 412.474335 193.925234 
L 412.487326 193.846959 
L 412.475074 193.877688 
L 412.271942 193.846671 
L 412.135411 193.534103 
L 411.796607 192.730248 
L 411.075485 192.413569 
L 410.200264 192.230233 
L 407.937469 192.557638 
L 407.027315 192.586416 
L 405.955449 192.741572 
L 404.824347 192.637838 
L 403.363186 192.308395 
L 402.796091 192.167352 
L 402.122377 192.34043 
L 401.617864 192.415163 
L 400.853406 192.216491 
L 398.537307 191.44533 
L 394.956796 191.119605 
L 392.850269 190.551752 
L 391.81601 190.180976 
L 391.415689 189.979863 
L 390.464156 189.800485 
L 389.963742 190.039424 
L 389.27759 190.440533 
L 387.11875 191.257012 
L 386.699887 191.211956 
L 386.170386 191.116028 
L 385.727717 191.080699 
L 384.667651 190.246642 
L 384.520431 189.987869 
L 384.720998 189.577806 
L 385.045222 188.756633 
L 385.334431 188.140391 
L 385.386335 187.880308 
L 385.800882 187.250164 
L 385.980428 186.647041 
L 386.154754 186.523983 
L 386.18189 185.99105 
L 386.137462 185.840152 
L 386.479798 185.451103 
L 386.590454 185.269689 
L 390.032718 183.183713 
L 390.736051 183.042105 
L 391.892604 182.916466 
L 394.307615 182.852515 
L 394.703886 182.752247 
L 394.572244 182.648382 
L 394.622006 182.507449 
L 394.063253 181.675876 
L 393.898951 181.534778 
L 393.809577 180.96689 
L 393.41252 180.800394 
L 393.059999 180.660266 
L 392.566979 180.150856 
L 391.318472 180.215985 
L 390.893966 180.375856 
L 390.869167 180.284813 
L 390.354978 179.922549 
L 390.308263 180.0221 
L 390.110816 180.08303 
L 389.793559 179.924376 
L 389.747959 179.929765 
L 389.747959 179.929765 
" clip-path="url(#p442eba74d7)" style="fill: none; stroke: #1f77b4; stroke-opacity: 0.75; stroke-width: 2; stroke-linecap: square"/>
   </g>
   <g id="line2d_14">
    <path d="M 263.172467 95.138751 
L 265.330915 95.704274 
L 269.01146 96.587557 
L 271.745011 97.03268 
L 272.849023 97.438847 
L 273.546719 97.678263 
L 274.194422 98.004204 
L 275.199513 98.443987 
L 276.731294 99.097508 
L 279.698604 100.456464 
L 281.553337 101.102145 
L 283.900367 101.618093 
L 284.631539 101.86953 
L 285.339565 102.20234 
L 286.032451 102.277876 
L 287.224603 102.290942 
L 288.232349 102.545807 
L 288.776871 102.872472 
L 289.293115 103.689856 
L 289.275791 103.875201 
L 288.972957 104.343716 
L 289.011262 104.543272 
L 289.430221 104.68661 
L 290.154636 104.757759 
L 290.749725 105.114512 
L 291.017678 105.40837 
L 291.852809 105.77815 
L 292.032323 106.215884 
L 291.572342 106.355191 
L 291.550601 106.515064 
L 291.511754 106.404646 
L 291.511829 106.238506 
L 291.905748 107.152602 
L 291.88606 107.138983 
L 291.803141 107.232873 
L 292.055528 107.144577 
L 292.995363 107.344993 
L 293.802855 107.416743 
L 294.339224 107.594349 
L 294.498827 107.688375 
L 295.030001 107.769334 
L 295.816791 107.555121 
L 296.004758 107.480581 
L 296.165003 107.519119 
L 296.034777 107.460918 
L 296.008941 107.313865 
L 295.971857 107.474272 
L 295.402027 107.509374 
L 294.925155 107.455711 
L 293.029137 107.810825 
L 292.427505 107.607927 
L 292.385155 107.460767 
L 292.104355 107.526162 
L 291.644621 107.405691 
L 291.548042 107.317193 
L 291.36256 107.187657 
L 291.7558 106.970272 
L 292.480231 107.007743 
L 292.760597 107.011532 
L 293.176552 107.032957 
L 293.689857 107.423655 
L 293.501462 107.565644 
L 294.386569 107.02596 
L 294.88307 106.891114 
L 296.298137 106.725241 
L 297.444373 107.076611 
L 298.015708 107.353768 
L 298.271696 107.425493 
L 298.472444 107.407765 
L 298.399384 107.508077 
L 298.49732 107.624461 
L 298.435676 107.62167 
L 298.064078 107.585707 
L 298.097406 107.432886 
L 297.740834 107.397603 
L 297.299577 107.643611 
L 297.311292 107.751922 
L 296.8867 107.942199 
L 296.724193 107.845144 
L 296.662157 107.803079 
L 296.694506 107.759256 
L 296.864091 107.554577 
L 296.43046 107.456947 
L 296.090655 106.890206 
L 296.29164 106.576087 
L 296.079293 106.497409 
L 296.127676 106.424791 
L 296.357343 106.367518 
L 296.545328 106.117619 
L 296.369731 106.415028 
L 296.68771 106.875474 
L 296.544701 108.209341 
L 296.086728 108.440696 
L 295.5845 108.397725 
L 294.367393 107.966559 
L 293.831352 107.68715 
L 292.854763 107.704969 
L 291.719178 107.708674 
L 290.200411 107.806515 
L 286.591667 107.201497 
L 281.839635 107.710465 
L 280.645444 107.677491 
L 279.159706 107.846215 
L 278.181873 107.934901 
L 277.833145 108.120102 
L 277.875786 108.186165 
L 277.725735 108.752122 
L 277.4044 109.059618 
L 276.032568 110.162851 
L 274.574795 111.484092 
L 273.127971 112.224138 
L 272.560422 112.585267 
L 272.157288 113.064648 
L 271.996351 113.54092 
L 271.096272 115.287156 
L 270.831782 116.1419 
L 270.853333 116.357941 
L 271.412608 117.251281 
L 271.344079 117.983582 
L 271.336292 118.441803 
L 271.485497 118.795468 
L 271.869579 118.804194 
L 271.973352 118.578152 
L 271.86361 118.590573 
L 271.369444 118.785971 
L 270.406189 119.714616 
L 270.004049 119.905264 
L 269.356365 120.050975 
L 268.881185 120.12566 
L 266.977212 119.927521 
L 266.752927 120.122227 
L 266.75368 120.183418 
L 266.689337 120.173471 
L 266.410168 120.16991 
L 265.819828 120.208368 
L 265.550077 120.139502 
L 265.372696 119.783882 
L 265.296995 119.573955 
L 265.184846 119.427948 
L 265.265348 119.262842 
L 265.396022 119.232519 
L 265.174209 119.395243 
L 264.62308 119.624071 
L 264.049551 120.194536 
L 263.996712 120.385553 
L 263.483083 120.358 
L 262.465342 120.395292 
L 262.122345 120.266827 
L 261.654643 120.083688 
L 260.871749 119.876961 
L 260.413598 119.645561 
L 259.86385 119.61563 
L 259.254359 119.315936 
L 258.904594 118.929645 
L 258.751438 118.046078 
L 258.858957 118.010095 
L 258.804229 117.987302 
L 258.455197 117.55363 
L 257.696076 116.895255 
L 257.526011 116.678267 
L 257.915089 116.277389 
L 258.323198 116.2291 
L 258.90238 116.164254 
L 259.164582 116.036851 
L 261.397211 115.832719 
L 261.686227 115.688665 
L 262.291055 115.617187 
L 263.342581 115.519108 
L 263.409724 115.413627 
L 263.439243 115.395448 
L 263.402227 115.35833 
L 263.262106 115.360341 
L 263.49428 115.338639 
L 263.48377 115.439531 
L 263.318648 115.61469 
L 263.384639 115.815336 
L 263.300266 115.981351 
L 263.240893 116.216654 
L 262.532127 117.103992 
L 262.455356 117.527514 
L 262.158759 118.29051 
L 261.974594 118.66757 
L 262.142325 119.271679 
L 262.166062 119.8423 
L 262.162504 120.189988 
L 261.997766 120.429568 
L 262.151639 120.623813 
L 262.054436 120.782106 
L 261.963082 120.697521 
L 262.016055 120.545159 
L 262.151476 120.356288 
L 262.32359 120.376467 
L 264.222611 120.278736 
L 264.764081 120.107493 
L 265.196957 120.20451 
L 265.634553 120.480639 
L 265.958803 120.720408 
L 265.969509 120.963119 
L 265.965769 121.227544 
L 266.686891 122.052443 
L 267.808583 122.187581 
L 267.689626 122.359756 
L 267.240252 122.533902 
L 267.04412 122.319772 
L 266.956237 122.200115 
L 266.654909 122.158632 
L 266.795642 122.074726 
L 267.359213 121.290643 
L 267.426622 120.805437 
L 267.7411 120.482038 
L 268.321691 119.898991 
L 269.102794 119.651802 
L 269.84227 119.567467 
L 270.503308 119.435401 
L 270.872707 119.578611 
L 271.308341 119.929175 
L 271.731407 120.490494 
L 272.037147 120.996054 
L 272.621687 121.508157 
L 273.041685 121.753014 
L 274.034354 123.686035 
L 274.302576 124.066862 
L 274.569938 124.318598 
L 274.505324 124.536106 
L 273.701135 125.015829 
L 273.529907 125.129167 
L 273.55286 125.338885 
L 273.068611 125.471574 
L 272.639499 125.755896 
L 272.88844 126.074025 
L 272.915558 126.437781 
L 272.929166 126.691293 
L 272.456971 127.027571 
L 272.340222 127.005655 
L 272.44067 127.065929 
L 272.660049 127.437624 
L 272.094054 128.912014 
L 271.826761 129.328362 
L 271.485591 129.928107 
L 269.56506 132.176209 
L 269.192079 132.459285 
L 268.158715 132.388044 
L 267.76308 132.49534 
L 267.663021 132.57569 
L 267.102838 132.646806 
L 267.336079 132.680363 
L 267.531268 132.891851 
L 267.412321 133.102897 
L 267.191801 133.116709 
L 267.055449 133.100756 
L 265.766375 133.659591 
L 265.746193 133.962617 
L 265.727569 134.254422 
L 265.805483 134.631961 
L 265.716754 134.997422 
L 265.548061 135.964579 
L 266.259156 136.671104 
L 267.682476 138.590901 
L 268.037012 138.907292 
L 268.904024 139.363986 
L 272.139418 141.489059 
L 280.84272 144.755124 
L 282.58056 145.871254 
L 282.869857 145.973453 
L 282.869857 145.973453 
" clip-path="url(#p442eba74d7)" style="fill: none; stroke: #ff7f0e; stroke-opacity: 0.75; stroke-width: 2; stroke-linecap: square"/>
   </g>
   <g id="line2d_15">
    <path d="M 263.172467 95.138751 
L 263.261997 95.711629 
L 263.446484 96.884351 
L 263.736326 97.633775 
L 263.860365 98.732573 
L 264.456094 99.699558 
L 264.255551 100.841033 
L 264.043973 102.198547 
L 263.98551 103.005403 
L 263.877701 103.411673 
L 263.888831 103.872099 
L 264.288344 105.064758 
L 264.351247 105.769394 
L 264.198241 106.138179 
L 264.08159 106.842769 
L 263.882827 107.503903 
L 264.285401 109.087203 
L 264.533587 110.230313 
L 264.649029 110.468589 
L 264.532011 111.365518 
L 264.26107 111.68122 
L 264.061972 112.255238 
L 264.208238 112.52281 
L 264.819348 113.178884 
L 264.974657 113.871021 
L 265.29839 114.916856 
L 265.304889 115.311327 
L 265.665989 115.480848 
L 266.319243 115.651257 
L 266.523311 115.95546 
L 266.426251 116.337532 
L 266.63097 117.873489 
L 267.238495 118.780247 
L 268.924634 119.537055 
L 269.285003 119.998392 
L 269.440539 120.478632 
L 270.374781 121.307002 
L 270.868347 121.958744 
L 271.378614 122.356734 
L 272.826886 123.080053 
L 273.063618 123.353344 
L 273.634441 123.9506 
L 275.18099 124.743147 
L 275.818698 125.535475 
L 277.01931 126.99635 
L 278.851495 127.97874 
L 280.440086 128.707045 
L 281.417568 129.36752 
L 282.425223 129.858474 
L 283.798301 130.914803 
L 284.696813 131.760919 
L 285.384405 132.666121 
L 286.047468 133.956885 
L 286.542001 134.864023 
L 287.651141 136.380977 
L 288.813945 137.201393 
L 290.112891 138.057944 
L 291.939887 139.739197 
L 294.537374 141.319902 
L 294.676646 141.845821 
L 294.836361 142.939087 
L 295.154862 143.315338 
L 295.774894 143.622093 
L 296.125905 143.944703 
L 296.226874 144.103444 
L 296.561965 144.365143 
L 296.258805 145.451687 
L 295.765601 145.84749 
L 294.959034 146.870045 
L 294.8837 147.064562 
L 294.287114 147.57845 
L 292.324961 148.803062 
L 291.511798 149.346732 
L 289.249043 150.418146 
L 288.586411 150.570471 
L 286.719619 150.771449 
L 283.12439 151.600727 
L 282.506059 151.679384 
L 280.770532 152.090543 
L 278.791478 153.177546 
L 278.709579 153.380735 
L 277.58877 154.259384 
L 277.245259 154.6954 
L 276.310598 155.346552 
L 275.419305 155.941109 
L 274.544695 156.256958 
L 273.354755 156.505562 
L 272.424847 156.986009 
L 271.475731 157.738094 
L 269.739508 159.264204 
L 267.928351 159.901735 
L 265.62756 160.002274 
L 264.01522 159.685124 
L 263.467642 159.182102 
L 263.144759 159.137798 
L 262.500003 159.10097 
L 261.05044 159.483906 
L 258.387985 159.821471 
L 257.015465 159.631059 
L 256.225719 160.079379 
L 256.104932 160.118227 
L 255.996625 160.052351 
L 255.80483 159.965135 
L 255.99262 160.009193 
L 256.036135 159.868298 
L 255.637169 159.717245 
L 254.745007 159.560363 
L 254.677854 159.427955 
L 253.623601 159.542364 
L 253.379488 159.574877 
L 252.810792 159.558321 
L 251.109942 159.269536 
L 245.578107 157.905997 
L 244.138167 157.558735 
L 243.634033 157.617847 
L 238.906927 158.142496 
L 233.739473 158.670295 
L 229.822047 158.769815 
L 227.440747 159.429668 
L 226.510134 159.7203 
L 223.269381 160.25439 
L 222.507236 160.457654 
L 221.403908 160.644724 
L 220.694647 160.992693 
L 220.832967 161.296008 
L 221.415162 161.400497 
L 221.85313 161.667743 
L 222.599504 161.219935 
L 223.003396 160.909389 
L 223.955539 160.741985 
L 224.528562 160.693859 
L 224.654847 160.511422 
L 225.209339 160.358323 
L 225.551114 160.209705 
L 225.837005 159.921948 
L 226.156648 159.807252 
L 226.14152 159.86912 
L 226.224176 159.996929 
L 226.523766 160.179021 
L 226.872506 160.404758 
L 226.441272 160.957087 
L 226.0167 161.503387 
L 225.696741 162.742614 
L 225.807869 163.760329 
L 226.021435 164.407242 
L 226.727509 166.119393 
L 226.696831 166.618655 
L 226.118785 167.007705 
L 225.85168 167.291297 
L 225.729919 167.626451 
L 225.552147 168.478782 
L 225.334501 168.583942 
L 224.944877 168.70247 
L 224.769163 168.977302 
L 224.648061 169.644456 
L 224.752984 170.483855 
L 224.752183 170.946254 
L 224.374451 171.808523 
L 224.51371 172.465481 
L 225.040089 173.285265 
L 226.603066 174.618082 
L 227.084405 174.875004 
L 228.252965 175.342176 
L 229.09696 175.780288 
L 231.736684 176.4205 
L 233.18024 176.38722 
L 234.349038 176.380715 
L 235.682854 176.675067 
L 238.451685 178.309786 
L 239.536104 178.329574 
L 240.719457 178.146495 
L 241.112508 178.393877 
L 241.471689 178.627518 
L 241.734917 179.022774 
L 243.329225 180.000307 
L 244.231719 180.384164 
L 245.501183 181.173495 
L 246.034011 181.681998 
L 246.599203 181.941227 
L 249.53178 182.859322 
L 250.093517 183.298071 
L 250.328752 183.505211 
L 250.416506 184.201725 
L 250.236083 184.247373 
L 250.460669 184.252077 
L 250.301885 184.116065 
L 250.288424 184.096427 
L 250.390659 184.144655 
L 251.001417 184.177546 
L 251.330977 184.41367 
L 252.460095 185.429682 
L 253.048514 186.281941 
L 253.881322 186.682508 
L 253.607756 186.680482 
L 253.575388 186.733008 
L 253.606588 186.747878 
L 253.701125 186.752301 
L 253.343037 186.754909 
L 253.11528 186.945698 
L 252.595588 187.159055 
L 251.75862 187.387025 
L 251.128185 187.748232 
L 250.290972 188.289117 
L 245.649338 190.277829 
L 244.818978 190.499836 
L 241.910561 191.005501 
L 241.330989 191.159679 
L 240.763287 191.266485 
L 240.31974 191.636957 
L 239.680997 192.607451 
L 239.2181 192.971568 
L 237.907994 193.546661 
L 236.055188 193.892479 
L 233.119268 194.306606 
L 227.523322 195.66771 
L 226.601313 196.08921 
L 225.492907 196.372702 
L 223.767475 197.223768 
L 223.186516 197.756423 
L 222.02429 199.082418 
L 220.76482 200.183378 
L 218.937298 202.28328 
L 216.962475 205.534294 
L 215.861812 207.440447 
L 215.155215 208.209235 
L 213.543309 209.435095 
L 212.329781 210.142663 
L 211.347163 210.948995 
L 210.193562 212.363394 
L 206.7082 217.430434 
L 206.234288 219.498458 
L 205.718319 220.460997 
L 204.023825 223.81305 
L 203.08359 224.668554 
L 201.568619 227.62855 
L 200.759276 228.873031 
L 199.768346 231.002884 
L 199.414552 231.948136 
L 198.732918 233.089265 
L 198.536988 233.651837 
L 198.437538 235.664307 
L 198.062658 236.996047 
L 197.640849 237.57333 
L 196.321353 238.630972 
L 195.420188 239.221943 
L 193.745348 239.99875 
L 191.220182 242.282253 
L 190.822654 243.025495 
L 189.95567 243.923245 
L 189.324287 245.203734 
L 189.23162 245.473727 
L 188.534329 246.188897 
L 188.305648 246.52857 
L 187.696466 247.224977 
L 186.440619 248.851642 
L 185.986476 249.366907 
L 185.545008 249.958629 
L 184.382536 251.734793 
L 183.312253 252.630732 
L 182.804299 253.463951 
L 182.589429 254.283625 
L 182.589429 254.283625 
" clip-path="url(#p442eba74d7)" style="fill: none; stroke: #2ca02c; stroke-opacity: 0.75; stroke-width: 2; stroke-linecap: square"/>
   </g>
   <g id="line2d_16">
    <path d="M 263.172467 95.138751 
L 264.398635 94.513633 
L 265.79411 94.428147 
L 270.643998 93.577664 
L 273.973259 92.659128 
L 275.518868 91.846507 
L 276.024589 90.774178 
L 276.533876 90.630245 
L 276.919553 90.707391 
L 277.456742 90.819633 
L 278.411444 90.763325 
L 278.693597 90.664837 
L 279.519455 90.268361 
L 280.985488 89.890792 
L 281.431618 89.392202 
L 281.638725 89.001128 
L 282.671071 87.723459 
L 283.738325 87.061304 
L 287.990281 85.256402 
L 288.937483 85.093091 
L 289.186776 84.999932 
L 289.994348 85.062907 
L 291.305129 84.743926 
L 292.316927 83.906929 
L 292.458408 83.815759 
L 292.299474 83.518832 
L 291.946934 83.100393 
L 291.487598 82.543501 
L 290.469434 82.007265 
L 290.136144 81.905412 
L 289.454412 81.995888 
L 288.030844 81.881607 
L 284.613011 81.4472 
L 281.784355 80.757287 
L 281.093826 80.456081 
L 277.092825 78.483459 
L 275.330193 77.808974 
L 274.008433 77.343377 
L 270.301737 75.976223 
L 269.581748 75.808086 
L 267.258474 74.933563 
L 261.841395 73.218095 
L 257.010306 72.399178 
L 254.140292 71.733738 
L 252.995934 71.383196 
L 250.635364 70.743865 
L 249.792532 70.377917 
L 247.748487 69.979862 
L 242.834393 69.40543 
L 240.153655 69.313933 
L 238.825416 69.163579 
L 234.490243 68.442815 
L 233.071015 68.190892 
L 229.643208 67.405193 
L 229.238769 67.198049 
L 226.564566 66.636027 
L 224.48662 66.412056 
L 222.54961 65.982702 
L 218.984259 64.441864 
L 218.574167 64.04301 
L 218.59626 63.919904 
L 217.315606 63.648139 
L 216.285623 63.399154 
L 215.558886 63.043317 
L 214.763551 62.744772 
L 212.799031 61.856041 
L 212.751229 61.68076 
L 211.195059 60.638567 
L 208.490683 59.211262 
L 207.052252 58.889077 
L 206.058581 58.715492 
L 204.983482 58.350858 
L 202.893949 56.967329 
L 201.628461 56.063769 
L 200.407822 55.466269 
L 198.684452 54.695479 
L 197.018407 53.939353 
L 196.054936 53.501729 
L 194.632746 52.595201 
L 193.154621 51.981663 
L 191.664649 51.327664 
L 190.834054 50.763736 
L 189.835056 50.107142 
L 187.277583 48.611001 
L 186.479258 47.971141 
L 185.165853 46.484829 
L 184.831765 46.2145 
L 184.129154 45.00117 
L 183.595178 44.267134 
L 183.355836 43.769191 
L 183.142512 42.880178 
L 182.466927 41.296856 
L 182.097095 40.611732 
L 181.554074 39.741764 
L 181.24 39.182039 
L 181.025276 38.58921 
L 180.925584 38.399716 
L 179.947505 37.739852 
L 178.845213 37.478554 
L 176.877893 36.989255 
L 176.418653 37.079321 
L 168.710566 37.105787 
L 162.884982 36.9086 
L 160.610044 37.337263 
L 158.496391 37.591389 
L 157.448151 37.784526 
L 154.014856 37.836182 
L 146.176379 39.139279 
L 143.070711 40.040758 
L 141.318203 40.133853 
L 138.52663 40.684358 
L 137.041579 41.296382 
L 136.451418 41.575403 
L 133.88687 42.340438 
L 133.908325 42.531585 
L 134.066779 42.834194 
L 134.535095 43.000108 
L 134.678967 43.210292 
L 134.897497 43.761371 
L 135.278577 44.014329 
L 135.486222 44.145109 
L 135.71923 44.270704 
L 135.944343 44.388733 
L 135.566461 44.128682 
L 134.706268 43.829885 
L 134.352953 43.837387 
L 134.375683 43.990493 
L 134.972004 44.645547 
L 135.745794 45.168321 
L 135.944033 45.318728 
L 136.903618 45.672812 
L 137.609216 46.045075 
L 139.504947 47.460824 
L 140.243059 48.060721 
L 141.186173 49.025166 
L 141.547962 49.667645 
L 141.587108 49.966094 
L 141.473866 50.228574 
L 141.581863 51.032238 
L 141.869319 51.37154 
L 142.300662 51.651042 
L 142.693872 52.312898 
L 143.117126 52.607144 
L 143.93071 52.803377 
L 144.311341 52.79678 
L 144.705319 53.204507 
L 144.96626 53.238087 
L 145.315312 53.66715 
L 144.990968 53.786259 
L 144.702963 53.893973 
L 144.750994 53.938099 
L 144.791959 54.026407 
L 145.280233 54.355164 
L 145.47104 54.694912 
L 145.409296 55.382731 
L 145.151732 56.424567 
L 145.159695 56.833135 
L 145.653228 57.712823 
L 146.168762 57.848959 
L 148.189267 58.349133 
L 152.567339 58.187202 
L 154.525071 58.167807 
L 155.652768 58.202595 
L 157.62548 58.245741 
L 158.612106 58.497117 
L 160.342639 59.221982 
L 161.045116 59.737657 
L 161.894435 59.749753 
L 162.996607 59.694073 
L 164.628113 59.503836 
L 166.646646 59.335631 
L 166.763393 59.264831 
L 167.108426 59.329047 
L 167.568713 59.463502 
L 168.643414 59.295596 
L 169.40659 59.56638 
L 170.512676 59.705492 
L 171.494511 59.691567 
L 172.535858 60.318753 
L 173.891815 60.598367 
L 174.313361 60.537005 
L 175.64692 60.850329 
L 176.973536 61.646052 
L 177.968471 61.902957 
L 178.307766 61.955206 
L 179.070247 62.102188 
L 178.33839 61.891652 
L 178.301501 61.705631 
L 178.398757 61.697594 
L 178.628747 61.623179 
L 178.955996 61.509853 
L 179.387567 61.459954 
L 179.683328 61.534505 
L 180.092838 61.305362 
L 180.409402 61.414761 
L 180.080741 61.50576 
L 179.273773 61.339366 
L 178.70875 61.257992 
L 177.518922 61.115557 
L 176.273047 60.660503 
L 176.18681 60.460576 
L 176.105386 60.116462 
L 175.849097 59.784195 
L 175.990865 59.590408 
L 175.769749 59.075193 
L 175.842063 58.826079 
L 175.879715 58.300099 
L 175.776096 57.822253 
L 175.508533 57.447737 
L 175.644323 57.149333 
L 176.027073 56.855866 
L 175.951349 56.663504 
L 175.966612 56.465631 
L 175.989903 56.069568 
L 175.744556 55.887213 
L 175.079399 55.596996 
L 174.912755 55.390055 
L 174.247083 55.158597 
L 173.586128 54.904315 
L 172.924974 54.580396 
L 172.516581 54.39161 
L 172.050442 54.682351 
L 170.716788 54.906825 
L 168.514048 54.077804 
L 166.723904 53.016448 
L 166.009478 52.885982 
L 164.977653 52.616375 
L 164.518128 52.311925 
L 164.006756 51.841693 
L 164.075891 51.809869 
L 163.985555 51.610826 
L 163.520356 51.306942 
L 162.169933 51.138188 
L 161.212594 51.098819 
L 160.9133 50.987453 
L 160.603501 51.005686 
L 159.651116 51.128329 
L 158.777579 51.024997 
L 158.345312 50.78431 
L 157.588217 51.156581 
L 157.256804 51.372458 
L 156.990747 51.58672 
L 157.020844 51.607725 
L 156.816414 51.985859 
L 156.973958 51.92658 
L 158.017698 51.173294 
L 158.28948 50.760206 
L 158.294994 50.34123 
L 158.566028 50.10657 
L 158.826208 49.915155 
L 158.826208 49.915155 
" clip-path="url(#p442eba74d7)" style="fill: none; stroke: #d62728; stroke-opacity: 0.75; stroke-width: 2; stroke-linecap: square"/>
   </g>
   <g id="line2d_17">
    <path d="M 263.172467 95.138751 
L 264.14814 95.800033 
L 267.315321 96.936541 
L 268.609209 97.086013 
L 270.511622 97.512055 
L 271.369739 97.414834 
L 272.151948 97.241944 
L 273.453566 97.365389 
L 274.552671 97.907922 
L 275.534967 98.750161 
L 278.682268 100.240262 
L 279.087938 100.427944 
L 279.572337 100.584672 
L 279.785647 100.701171 
L 281.36744 100.918185 
L 283.198397 101.169501 
L 284.837022 101.78858 
L 285.223598 101.945875 
L 287.02804 101.963551 
L 287.702761 102.127504 
L 289.335104 102.498475 
L 290.103585 102.759996 
L 290.944669 103.158404 
L 295.716068 105.173612 
L 297.321127 106.157546 
L 298.492917 107.113251 
L 299.166851 107.612693 
L 301.114143 109.757217 
L 302.146111 110.783258 
L 302.735748 111.229664 
L 303.986175 111.966741 
L 307.237559 113.073257 
L 308.177765 113.722334 
L 308.710762 114.255464 
L 309.46646 114.751968 
L 309.858049 115.200986 
L 310.968103 116.421541 
L 311.994634 117.664761 
L 312.334317 118.258283 
L 313.009341 118.793928 
L 313.784459 119.350366 
L 314.898517 120.427364 
L 315.436691 121.170167 
L 316.111377 121.766677 
L 316.469744 122.314876 
L 316.597617 122.897435 
L 316.736305 124.301377 
L 316.994425 125.335063 
L 316.730178 126.212208 
L 316.824962 126.836773 
L 316.739703 127.796089 
L 317.14842 128.563961 
L 317.925006 129.794308 
L 317.817369 130.697931 
L 317.909379 131.168861 
L 317.997096 131.781426 
L 317.948025 132.091901 
L 318.33176 132.953897 
L 318.547087 133.578903 
L 318.854489 133.927187 
L 319.870767 135.772631 
L 320.347104 136.096615 
L 320.579758 136.539036 
L 321.206338 137.379021 
L 321.652782 137.885184 
L 321.767 138.306135 
L 321.845001 139.237231 
L 322.110559 139.744146 
L 322.359206 140.372542 
L 322.580475 140.654676 
L 323.240743 143.778308 
L 323.494416 144.493605 
L 323.571396 144.77788 
L 323.490878 146.021765 
L 323.473591 146.410941 
L 323.228076 146.975667 
L 323.096902 148.919303 
L 323.270191 150.053587 
L 324.038212 152.294262 
L 324.969844 153.706295 
L 325.907044 154.5971 
L 326.013542 155.016845 
L 326.064009 155.447313 
L 326.316333 156.05957 
L 326.595222 156.565015 
L 326.917997 156.963319 
L 327.608599 158.594807 
L 328.400275 159.33388 
L 329.025062 159.773734 
L 329.240035 160.077963 
L 330.612955 161.39474 
L 332.866503 162.830113 
L 335.54019 164.19423 
L 336.628164 164.643989 
L 339.562753 166.181523 
L 340.154612 166.472365 
L 340.501103 166.82163 
L 341.310085 167.100303 
L 342.310733 167.410419 
L 343.107979 167.474578 
L 344.002716 167.917728 
L 345.41035 168.373219 
L 346.784327 169.139032 
L 347.62897 170.222471 
L 348.550529 172.145214 
L 348.935264 172.757369 
L 349.284847 173.23059 
L 349.797451 173.779985 
L 350.550838 174.16538 
L 351.540315 175.008854 
L 351.828526 175.404851 
L 352.776662 176.188731 
L 354.400059 177.815673 
L 355.070636 178.287411 
L 355.697724 178.923555 
L 355.825202 179.371031 
L 356.096743 181.353059 
L 356.323656 181.916157 
L 357.118474 182.963154 
L 359.157171 184.679457 
L 359.697611 185.782749 
L 360.346032 187.297199 
L 360.128296 188.935615 
L 360.009066 190.365773 
L 360.066632 191.05784 
L 359.780869 191.804249 
L 359.540783 192.055428 
L 359.442322 192.334132 
L 359.611641 193.78197 
L 359.942064 195.305366 
L 360.023359 195.601232 
L 360.02999 196.252173 
L 360.561723 197.484214 
L 360.806119 198.240588 
L 360.841831 199.11763 
L 361.024707 199.639778 
L 360.818836 200.130318 
L 360.831353 200.614753 
L 360.717379 201.197198 
L 360.245198 201.703017 
L 359.931968 202.46868 
L 359.926629 202.795201 
L 358.781816 205.201677 
L 358.928958 206.209383 
L 358.593203 207.057806 
L 358.565585 207.587744 
L 358.293677 208.208153 
L 357.937434 208.861743 
L 357.455243 209.537266 
L 354.614212 212.651033 
L 353.494662 214.034171 
L 353.438448 214.835214 
L 353.208526 215.770162 
L 353.591396 216.378801 
L 354.088448 216.980735 
L 354.155217 217.118297 
L 354.135824 216.910141 
L 354.207878 216.85501 
L 354.181368 216.823899 
L 354.022929 216.711568 
L 353.834389 216.66517 
L 352.859538 216.826157 
L 352.370831 216.843416 
L 350.24001 216.366083 
L 347.881097 217.151949 
L 347.572954 217.096306 
L 347.593009 217.151085 
L 346.851205 217.778022 
L 346.908167 218.527 
L 346.907123 218.835455 
L 346.989904 219.148478 
L 346.705578 219.88265 
L 346.534578 220.030651 
L 346.477859 220.239389 
L 346.620785 221.421745 
L 346.593734 221.520494 
L 346.774065 221.634269 
L 346.807176 221.942512 
L 346.935119 222.157208 
L 346.785833 222.515879 
L 346.011064 223.253967 
L 346.100999 223.328121 
L 346.288145 223.509432 
L 346.112223 223.817175 
L 346.0758 223.946323 
L 346.207818 224.268172 
L 345.998556 224.633962 
L 345.931053 224.948937 
L 345.003673 226.264836 
L 344.601854 228.346748 
L 344.403641 229.578626 
L 344.73917 231.767923 
L 344.684404 232.20523 
L 344.958804 233.517697 
L 345.159891 234.200998 
L 345.361179 234.890005 
L 345.748528 235.712463 
L 346.315419 238.25509 
L 346.020384 239.14952 
L 345.258877 240.186679 
L 344.458291 240.927426 
L 341.783442 242.910693 
L 340.552677 244.302058 
L 340.200446 244.924299 
L 339.759307 245.650112 
L 338.652016 248.774053 
L 338.325113 249.350303 
L 337.939632 250.097913 
L 337.748736 250.312948 
L 336.811728 250.842468 
L 335.875064 250.989735 
L 335.234405 251.290765 
L 335.142553 251.510149 
L 334.872542 251.443472 
L 335.000068 251.565847 
L 336.00819 252.261829 
L 336.950811 252.456141 
L 337.340718 252.430517 
L 337.246176 252.518074 
L 337.581235 252.836358 
L 337.738751 253.254661 
L 338.072008 253.643595 
L 338.746318 253.992763 
L 340.26964 254.367393 
L 340.646381 254.684145 
L 341.51033 254.955197 
L 342.819531 254.704025 
L 342.928409 254.752443 
L 343.403769 254.782296 
L 345.301549 255.30551 
L 347.64278 254.937734 
L 351.200379 253.960702 
L 351.868118 253.530663 
L 353.292626 253.08705 
L 354.463137 252.201254 
L 355.280403 251.937455 
L 356.157235 251.255914 
L 356.920968 250.873298 
L 356.708979 250.350602 
L 356.718496 249.967636 
L 356.597377 249.543764 
L 356.461229 249.101389 
L 356.143963 247.954285 
L 356.218179 247.434578 
L 356.466813 247.023159 
L 358.436296 245.598074 
L 358.75361 245.704296 
L 358.751791 245.640579 
L 358.828163 245.547446 
L 359.370503 245.250434 
L 359.904085 244.558841 
L 360.883636 242.579834 
L 361.501539 241.984574 
L 362.043289 241.657272 
L 362.804535 241.487118 
L 364.561412 241.030008 
L 366.101851 240.642018 
L 367.860124 240.326702 
L 368.657989 239.962671 
L 369.592353 239.876808 
L 371.137055 239.989988 
L 371.631399 240.111325 
L 376.540286 240.103893 
L 378.898955 239.579987 
L 380.588314 239.376061 
L 385.17289 239.156212 
L 386.465643 239.390414 
L 387.284818 239.708965 
L 388.031086 240.069486 
L 388.312814 240.496249 
L 389.06719 240.908054 
L 389.472238 240.959044 
L 391.565682 241.911509 
L 392.421401 242.607572 
L 394.051894 244.522678 
L 394.142435 244.868869 
L 395.518891 245.899707 
L 396.52878 246.173182 
L 398.894799 246.040455 
L 399.82304 245.884908 
L 401.046728 246.298969 
L 401.046728 246.298969 
" clip-path="url(#p442eba74d7)" style="fill: none; stroke: #9467bd; stroke-opacity: 0.75; stroke-width: 2; stroke-linecap: square"/>
   </g>
   <g id="patch_3">
    <path d="M 119.5175 266.245 
L 119.5175 25.92 
" style="fill: none; stroke: #000000; stroke-width: 0.8; stroke-linejoin: miter; stroke-linecap: square"/>
   </g>
   <g id="patch_4">
    <path d="M 434.88 266.245 
L 434.88 25.92 
" style="fill: none; stroke: #000000; stroke-width: 0.8; stroke-linejoin: miter; stroke-linecap: square"/>
   </g>
   <g id="patch_5">
    <path d="M 119.5175 266.245 
L 434.88 266.245 
" style="fill: none; stroke: #000000; stroke-width: 0.8; stroke-linejoin: miter; stroke-linecap: square"/>
   </g>
   <g id="patch_6">
    <path d="M 119.5175 25.92 
L 434.88 25.92 
" style="fill: none; stroke: #000000; stroke-width: 0.8; stroke-linejoin: miter; stroke-linecap: square"/>
   </g>
  </g>
 </g>
 <defs>
  <clipPath id="p442eba74d7">
   <rect x="119.5175" y="25.92" width="315.3625" height="240.325"/>
  </clipPath>
 </defs>
</svg>
