<?xml version="1.0" encoding="utf-8" standalone="no"?>
<!DOCTYPE svg PUBLIC "-//W3C//DTD SVG 1.1//EN"
  "http://www.w3.org/Graphics/SVG/1.1/DTD/svg11.dtd">
<svg xmlns:xlink="http://www.w3.org/1999/xlink" width="460.8pt" height="345.6pt" viewBox="0 0 460.8 345.6" xmlns="http://www.w3.org/2000/svg" version="1.1">
 <metadata>
  <rdf:RDF xmlns:dc="http://purl.org/dc/elements/1.1/" xmlns:cc="http://creativecommons.org/ns#" xmlns:rdf="http://www.w3.org/1999/02/22-rdf-syntax-ns#">
   <cc:Work>
    <dc:type rdf:resource="http://purl.org/dc/dcmitype/StillImage"/>
    <dc:date>2026-02-02T15:34:18.576716</dc:date>
    <dc:format>image/svg+xml</dc:format>
    <dc:creator>
     <cc:Agent>
      <dc:title>Matplotlib v3.10.8, https://matplotlib.org/</dc:title>
     </cc:Agent>
    </dc:creator>
   </cc:Work>
  </rdf:RDF>
 </metadata>
 <defs>
  <style type="text/css">*{stroke-linejoin: round; stroke-linecap: butt}</style>
 </defs>
 <g id="figure_1">
  <g id="patch_1">
   <path d="M 0 345.6 
L 460.8 345.6 
L 460.8 0 
L 0 0 
z
" style="fill: #ffffff"/>
  </g>
  <g id="axes_1">
   <g id="patch_2">
    <path d="M 107.5475 266.245 
L 434.88 266.245 
L 434.88 25.92 
L 107.5475 25.92 
z
" style="fill: #ffffff"/>
   </g>
   <g id="matplotlib.axis_1">
    <g id="xtick_1">
     <g id="line2d_1">
      <path d="M 132.869581 266.245 
L 132.869581 25.92 
" clip-path="url(#p983dea114f)" style="fill: none; stroke: #b0b0b0; stroke-width: 0.8; stroke-linecap: square"/>
     </g>
     <g id="line2d_2">
      <defs>
       <path id="m4f3e5e5dfa" d="M 0 0 
L 0 3.5 
" style="stroke: #000000; stroke-width: 0.8"/>
      </defs>
      <g>
       <use xlink:href="#m4f3e5e5dfa" x="132.869581" y="266.245" style="stroke: #000000; stroke-width: 0.8"/>
      </g>
     </g>
     <g id="text_1">
      <!-- −750 -->
      <g transform="translate(108.100831 289.63625) scale(0.24 -0.24)">
       <defs>
        <path id="TeXGyreTermes-Regular-2212" d="M 3354 1389 
L 3354 1811 
L 256 1811 
L 256 1389 
L 3354 1389 
z
" transform="scale(0.015625)"/>
        <path id="TeXGyreTermes-Regular-37" d="M 2874 4134 
L 2874 4237 
L 506 4237 
L 128 3296 
L 237 3245 
C 512 3680 627 3763 979 3763 
L 2368 3763 
L 1101 -51 
L 1517 -51 
L 2874 4134 
z
" transform="scale(0.015625)"/>
        <path id="TeXGyreTermes-Regular-35" d="M 2803 4358 
L 2746 4403 
C 2650 4269 2586 4237 2451 4237 
L 1114 4237 
L 416 2720 
C 410 2707 410 2688 410 2688 
C 410 2656 435 2637 486 2637 
C 691 2637 947 2592 1210 2509 
C 1946 2272 2285 1875 2285 1242 
C 2285 627 1894 147 1395 147 
C 1267 147 1158 192 966 333 
C 762 480 614 544 480 544 
C 294 544 205 467 205 307 
C 205 64 506 -90 986 -90 
C 1523 -90 1984 83 2304 410 
C 2598 698 2733 1062 2733 1549 
C 2733 2010 2611 2304 2291 2624 
C 2010 2906 1645 3053 890 3187 
L 1158 3731 
L 2413 3731 
C 2515 3731 2541 3744 2560 3789 
L 2803 4358 
z
" transform="scale(0.015625)"/>
        <path id="TeXGyreTermes-Regular-30" d="M 3046 2112 
C 3046 3424 2464 4326 1626 4326 
C 1274 4326 1005 4218 768 3994 
C 397 3635 154 2899 154 2150 
C 154 1453 365 704 666 346 
C 902 64 1229 -90 1600 -90 
C 1926 -90 2202 19 2432 243 
C 2803 595 3046 1338 3046 2112 
z
M 2432 2099 
C 2432 762 2150 77 1600 77 
C 1050 77 768 762 768 2093 
C 768 3450 1056 4160 1606 4160 
C 2144 4160 2432 3437 2432 2099 
z
" transform="scale(0.015625)"/>
       </defs>
       <use xlink:href="#TeXGyreTermes-Regular-2212"/>
       <use xlink:href="#TeXGyreTermes-Regular-37" transform="translate(56.399994 0)"/>
       <use xlink:href="#TeXGyreTermes-Regular-35" transform="translate(106.399979 0)"/>
       <use xlink:href="#TeXGyreTermes-Regular-30" transform="translate(156.399963 0)"/>
      </g>
     </g>
    </g>
    <g id="xtick_2">
     <g id="line2d_3">
      <path d="M 217.372718 266.245 
L 217.372718 25.92 
" clip-path="url(#p983dea114f)" style="fill: none; stroke: #b0b0b0; stroke-width: 0.8; stroke-linecap: square"/>
     </g>
     <g id="line2d_4">
      <g>
       <use xlink:href="#m4f3e5e5dfa" x="217.372718" y="266.245" style="stroke: #000000; stroke-width: 0.8"/>
      </g>
     </g>
     <g id="text_2">
      <!-- −500 -->
      <g transform="translate(192.603968 289.63625) scale(0.24 -0.24)">
       <use xlink:href="#TeXGyreTermes-Regular-2212"/>
       <use xlink:href="#TeXGyreTermes-Regular-35" transform="translate(56.399994 0)"/>
       <use xlink:href="#TeXGyreTermes-Regular-30" transform="translate(106.399979 0)"/>
       <use xlink:href="#TeXGyreTermes-Regular-30" transform="translate(156.399963 0)"/>
      </g>
     </g>
    </g>
    <g id="xtick_3">
     <g id="line2d_5">
      <path d="M 301.875855 266.245 
L 301.875855 25.92 
" clip-path="url(#p983dea114f)" style="fill: none; stroke: #b0b0b0; stroke-width: 0.8; stroke-linecap: square"/>
     </g>
     <g id="line2d_6">
      <g>
       <use xlink:href="#m4f3e5e5dfa" x="301.875855" y="266.245" style="stroke: #000000; stroke-width: 0.8"/>
      </g>
     </g>
     <g id="text_3">
      <!-- −250 -->
      <g transform="translate(277.107105 289.63625) scale(0.24 -0.24)">
       <defs>
        <path id="TeXGyreTermes-Regular-32" d="M 3040 877 
L 2957 909 
C 2720 544 2637 486 2349 486 
L 819 486 
L 1894 1613 
C 2464 2208 2714 2694 2714 3194 
C 2714 3834 2195 4326 1530 4326 
C 1178 4326 845 4186 608 3930 
C 403 3712 307 3507 198 3053 
L 333 3021 
C 589 3648 819 3853 1261 3853 
C 1798 3853 2163 3488 2163 2950 
C 2163 2451 1869 1856 1331 1286 
L 192 77 
L 192 0 
L 2688 0 
L 3040 877 
z
" transform="scale(0.015625)"/>
       </defs>
       <use xlink:href="#TeXGyreTermes-Regular-2212"/>
       <use xlink:href="#TeXGyreTermes-Regular-32" transform="translate(56.399994 0)"/>
       <use xlink:href="#TeXGyreTermes-Regular-35" transform="translate(106.399979 0)"/>
       <use xlink:href="#TeXGyreTermes-Regular-30" transform="translate(156.399963 0)"/>
      </g>
     </g>
    </g>
    <g id="xtick_4">
     <g id="line2d_7">
      <path d="M 386.378991 266.245 
L 386.378991 25.92 
" clip-path="url(#p983dea114f)" style="fill: none; stroke: #b0b0b0; stroke-width: 0.8; stroke-linecap: square"/>
     </g>
     <g id="line2d_8">
      <g>
       <use xlink:href="#m4f3e5e5dfa" x="386.378991" y="266.245" style="stroke: #000000; stroke-width: 0.8"/>
      </g>
     </g>
     <g id="text_4">
      <!-- 0 -->
      <g transform="translate(380.378991 289.63625) scale(0.24 -0.24)">
       <use xlink:href="#TeXGyreTermes-Regular-30"/>
      </g>
     </g>
    </g>
    <g id="text_5">
     <!-- x -->
     <g transform="translate(265.21375 315.23625) scale(0.24 -0.24)">
      <defs>
       <path id="TeXGyreTermes-Regular-78" d="M 3066 0 
L 3066 96 
C 2867 96 2739 198 2541 480 
L 1722 1734 
L 2253 2502 
C 2374 2675 2566 2778 2771 2784 
L 2771 2880 
L 1760 2880 
L 1760 2784 
C 1952 2771 2016 2733 2016 2643 
C 2016 2566 1939 2426 1779 2227 
C 1747 2189 1670 2074 1587 1946 
L 1498 2074 
C 1318 2342 1203 2560 1203 2643 
C 1203 2733 1286 2778 1478 2784 
L 1478 2880 
L 154 2880 
L 154 2784 
L 211 2784 
C 403 2784 506 2701 704 2400 
L 1306 1478 
L 576 422 
C 384 160 320 115 109 96 
L 109 0 
L 1037 0 
L 1037 96 
C 858 96 781 128 781 211 
C 781 250 826 346 909 474 
L 1414 1261 
L 1997 365 
C 2022 326 2035 288 2035 250 
C 2035 134 1990 109 1779 96 
L 1779 0 
L 3066 0 
z
" transform="scale(0.015625)"/>
      </defs>
      <use xlink:href="#TeXGyreTermes-Regular-78"/>
     </g>
    </g>
   </g>
   <g id="matplotlib.axis_2">
    <g id="ytick_1">
     <g id="line2d_9">
      <path d="M 107.5475 221.941326 
L 434.88 221.941326 
" clip-path="url(#p983dea114f)" style="fill: none; stroke: #b0b0b0; stroke-width: 0.8; stroke-linecap: square"/>
     </g>
     <g id="line2d_10">
      <defs>
       <path id="m644f59965e" d="M 0 0 
L -3.5 0 
" style="stroke: #000000; stroke-width: 0.8"/>
      </defs>
      <g>
       <use xlink:href="#m644f59965e" x="107.5475" y="221.941326" style="stroke: #000000; stroke-width: 0.8"/>
      </g>
     </g>
     <g id="text_6">
      <!-- −200 -->
      <g transform="translate(51.01 230.136951) scale(0.24 -0.24)">
       <use xlink:href="#TeXGyreTermes-Regular-2212"/>
       <use xlink:href="#TeXGyreTermes-Regular-32" transform="translate(56.399994 0)"/>
       <use xlink:href="#TeXGyreTermes-Regular-30" transform="translate(106.399979 0)"/>
       <use xlink:href="#TeXGyreTermes-Regular-30" transform="translate(156.399963 0)"/>
      </g>
     </g>
    </g>
    <g id="ytick_2">
     <g id="line2d_11">
      <path d="M 107.5475 171.852125 
L 434.88 171.852125 
" clip-path="url(#p983dea114f)" style="fill: none; stroke: #b0b0b0; stroke-width: 0.8; stroke-linecap: square"/>
     </g>
     <g id="line2d_12">
      <g>
       <use xlink:href="#m644f59965e" x="107.5475" y="171.852125" style="stroke: #000000; stroke-width: 0.8"/>
      </g>
     </g>
     <g id="text_7">
      <!-- 0 -->
      <g transform="translate(88.5475 180.04775) scale(0.24 -0.24)">
       <use xlink:href="#TeXGyreTermes-Regular-30"/>
      </g>
     </g>
    </g>
    <g id="ytick_3">
     <g id="line2d_13">
      <path d="M 107.5475 121.762923 
L 434.88 121.762923 
" clip-path="url(#p983dea114f)" style="fill: none; stroke: #b0b0b0; stroke-width: 0.8; stroke-linecap: square"/>
     </g>
     <g id="line2d_14">
      <g>
       <use xlink:href="#m644f59965e" x="107.5475" y="121.762923" style="stroke: #000000; stroke-width: 0.8"/>
      </g>
     </g>
     <g id="text_8">
      <!-- 200 -->
      <g transform="translate(64.5475 129.958548) scale(0.24 -0.24)">
       <use xlink:href="#TeXGyreTermes-Regular-32"/>
       <use xlink:href="#TeXGyreTermes-Regular-30" transform="translate(49.999985 0)"/>
       <use xlink:href="#TeXGyreTermes-Regular-30" transform="translate(99.999969 0)"/>
      </g>
     </g>
    </g>
    <g id="ytick_4">
     <g id="line2d_15">
      <path d="M 107.5475 71.673722 
L 434.88 71.673722 
" clip-path="url(#p983dea114f)" style="fill: none; stroke: #b0b0b0; stroke-width: 0.8; stroke-linecap: square"/>
     </g>
     <g id="line2d_16">
      <g>
       <use xlink:href="#m644f59965e" x="107.5475" y="71.673722" style="stroke: #000000; stroke-width: 0.8"/>
      </g>
     </g>
     <g id="text_9">
      <!-- 400 -->
      <g transform="translate(64.5475 79.869347) scale(0.24 -0.24)">
       <defs>
        <path id="TeXGyreTermes-Regular-34" d="M 3021 1069 
L 3021 1478 
L 2368 1478 
L 2368 4326 
L 2086 4326 
L 77 1478 
L 77 1069 
L 1875 1069 
L 1875 0 
L 2368 0 
L 2368 1069 
L 3021 1069 
z
M 1869 1478 
L 333 1478 
L 1869 3674 
L 1869 1478 
z
" transform="scale(0.015625)"/>
       </defs>
       <use xlink:href="#TeXGyreTermes-Regular-34"/>
       <use xlink:href="#TeXGyreTermes-Regular-30" transform="translate(49.999985 0)"/>
       <use xlink:href="#TeXGyreTermes-Regular-30" transform="translate(99.999969 0)"/>
      </g>
     </g>
    </g>
    <g id="text_10">
     <!-- y -->
     <g transform="translate(41.77875 152.0825) rotate(-90) scale(0.24 -0.24)">
      <defs>
       <path id="TeXGyreTermes-Regular-79" d="M 3040 2784 
L 3040 2880 
L 2176 2880 
L 2176 2784 
C 2381 2784 2483 2726 2483 2624 
C 2483 2598 2477 2560 2458 2515 
L 1837 749 
L 1101 2368 
C 1062 2458 1037 2541 1037 2611 
C 1037 2726 1133 2771 1408 2784 
L 1408 2880 
L 90 2880 
L 90 2790 
C 256 2765 365 2694 416 2586 
L 1472 358 
C 1517 250 1542 173 1542 122 
C 1542 26 1395 -378 1286 -570 
C 1197 -736 1056 -858 966 -858 
C 928 -858 870 -845 806 -813 
C 685 -768 576 -742 467 -742 
C 320 -742 192 -870 192 -1024 
C 192 -1235 397 -1395 666 -1395 
C 1094 -1395 1402 -1037 1747 -115 
L 2733 2496 
C 2816 2701 2886 2765 3040 2784 
z
" transform="scale(0.015625)"/>
      </defs>
      <use xlink:href="#TeXGyreTermes-Regular-79"/>
     </g>
    </g>
   </g>
   <g id="line2d_17">
    <path d="M 386.378991 171.852125 
L 386.313328 171.668627 
L 386.570371 171.58955 
L 386.534755 171.549006 
L 385.534222 171.309457 
L 385.109219 171.318986 
L 384.677588 171.489393 
L 384.169284 171.40702 
L 383.985655 171.263034 
L 383.254153 171.2977 
L 383.124027 171.145482 
L 383.53021 171.100748 
L 384.766868 170.795106 
L 384.976538 170.831717 
L 384.976637 170.761761 
L 385.312739 170.460944 
L 385.130821 170.638441 
L 384.8546 170.428287 
L 385.14234 169.8552 
L 385.117465 169.936064 
L 384.719873 170.185702 
L 384.10826 169.919007 
L 383.309093 170.350851 
L 382.869408 170.525977 
L 382.558325 170.523566 
L 382.266893 170.390688 
L 381.916285 170.723564 
L 381.389136 170.727672 
L 381.324634 170.378559 
L 381.063027 170.19048 
L 380.722825 170.134961 
L 380.814117 170.250848 
L 381.308317 169.986777 
L 381.800472 170.218224 
L 381.987178 170.07504 
L 381.783437 169.715463 
L 381.84989 169.846116 
L 382.124437 169.951572 
L 382.039858 170.004558 
L 382.275369 170.316516 
L 382.622525 170.351813 
L 383.115488 170.100159 
L 383.483386 170.204924 
L 384.026515 169.981087 
L 384.253523 169.509801 
L 384.641884 169.599391 
L 385.102433 170.258799 
L 385.094522 170.409011 
L 385.244717 170.439884 
L 385.63435 170.66636 
L 385.540044 171.160518 
L 385.617869 172.212773 
L 385.918625 172.581427 
L 385.86484 173.23982 
L 386.282628 173.340911 
L 386.533573 173.36121 
L 386.459012 173.44549 
L 386.20841 173.649496 
L 385.827071 173.722743 
L 385.589309 173.559161 
L 385.386604 173.57986 
L 385.659959 173.423408 
L 385.474616 173.373982 
L 385.904592 173.24515 
L 385.912301 173.126516 
L 385.539532 172.682665 
L 385.426605 172.210234 
L 385.568934 172.271379 
L 385.708446 172.698192 
L 385.505246 173.116159 
L 385.153164 173.386435 
L 384.565466 173.640723 
L 384.302774 173.992135 
L 384.290212 175.074246 
L 384.206453 175.535689 
L 383.937688 175.956811 
L 383.984872 176.8571 
L 383.543613 176.955222 
L 383.619406 177.117608 
L 383.637108 177.480003 
L 383.936247 178.452683 
L 383.723164 178.671673 
L 383.751679 178.984602 
L 383.572014 179.099082 
L 383.609265 179.405675 
L 383.170046 179.821208 
L 383.347587 181.24553 
L 383.102826 181.6086 
L 382.602367 181.865248 
L 382.469617 182.11757 
L 382.68181 182.358426 
L 383.231621 182.532517 
L 383.413225 182.694731 
L 383.787741 182.868172 
L 383.915852 183.201599 
L 384.023253 184.343354 
L 382.704462 186.213819 
L 381.603932 187.323145 
L 381.014994 187.475393 
L 379.965964 188.11996 
L 379.614656 188.69983 
L 378.909947 189.230743 
L 378.548571 189.661608 
L 378.379745 190.242782 
L 378.072755 190.587294 
L 377.539584 190.886432 
L 377.389105 191.280159 
L 376.628386 191.624094 
L 376.569693 192.817942 
L 375.929494 193.975825 
L 376.163265 194.93056 
L 375.407014 195.359904 
L 375.057579 194.997522 
L 373.29952 195.203615 
L 372.829558 196.166094 
L 372.330354 196.555812 
L 371.522341 197.73123 
L 371.010974 198.587221 
L 370.914782 199.002733 
L 370.154547 200.165755 
L 369.871392 201.183752 
L 367.533689 203.479704 
L 367.425429 203.849823 
L 366.667189 204.178918 
L 366.348152 204.591393 
L 365.931257 204.755872 
L 365.485361 205.08997 
L 365.08032 205.219308 
L 364.806422 204.999353 
L 364.723977 205.202532 
L 364.721418 205.554658 
L 364.435709 205.611042 
L 364.164274 205.788888 
L 364.048289 206.013622 
L 363.396938 206.306912 
L 362.739571 206.69585 
L 362.37504 207.067857 
L 362.110011 207.602614 
L 361.306491 208.584754 
L 360.86835 209.29153 
L 360.744328 209.861259 
L 360.5392 210.136258 
L 360.580822 210.430667 
L 360.348398 210.421896 
L 360.21208 210.62192 
L 359.460043 211.00351 
L 355.047106 213.680829 
L 354.243361 214.058475 
L 352.484274 215.417755 
L 351.813213 215.791623 
L 351.491603 216.118519 
L 351.639839 217.073417 
L 351.788075 217.152667 
L 352.097548 217.158963 
L 352.371712 217.265811 
L 352.220756 217.244977 
L 353.075301 216.912333 
L 353.2362 216.642505 
L 353.111325 216.398751 
L 353.193415 216.311752 
L 353.662721 216.337529 
L 353.890968 216.23372 
L 354.099684 215.949642 
L 355.21011 215.543494 
L 356.329231 215.532027 
L 356.480598 215.819689 
L 357.012325 215.832887 
L 357.956384 215.7265 
L 358.283869 215.831133 
L 358.705735 215.802327 
L 359.340429 216.165053 
L 359.86505 216.25742 
L 359.769568 216.529273 
L 359.422334 216.641829 
L 359.351528 216.762148 
L 359.246353 216.63505 
L 359.57186 216.599521 
L 359.4503 217.489883 
L 358.917919 218.020614 
L 359.169124 218.391578 
L 358.239333 218.792808 
L 358.419564 219.420473 
L 357.299922 219.405762 
L 356.7091 219.505786 
L 356.429431 219.719492 
L 355.868122 220.704223 
L 356.488807 221.452639 
L 356.610532 222.009045 
L 356.984214 222.493278 
L 356.237364 222.374803 
L 355.631771 222.584711 
L 355.386497 222.643725 
L 356.017226 222.950346 
L 356.189469 222.820223 
L 356.596212 222.880491 
L 356.557279 223.029228 
L 356.744962 223.208315 
L 356.843509 223.51843 
L 358.328267 223.412528 
L 358.48447 223.522049 
L 358.386177 223.839855 
L 357.637284 223.984241 
L 357.194569 223.607056 
L 356.740986 223.879354 
L 356.278533 223.724843 
L 356.585162 223.728868 
L 357.136374 223.378753 
L 357.57958 223.370227 
L 357.872872 223.149398 
L 358.306824 223.030608 
L 358.547873 222.696003 
L 359.021107 222.314777 
L 359.223006 222.318218 
L 359.251567 222.195079 
L 359.329225 222.225302 
L 359.894739 222.053985 
L 360.373569 221.580233 
L 360.703214 221.624647 
L 360.767709 221.907702 
L 360.852795 221.793334 
L 361.3213 221.557352 
L 361.497556 221.2096 
L 361.272425 220.211173 
L 361.898069 220.602764 
L 362.405287 220.450932 
L 362.712996 220.83658 
L 362.680057 221.15681 
L 362.452175 221.104089 
L 362.497224 221.15393 
L 362.68868 221.014085 
L 363.499984 221.304108 
L 363.891807 221.331982 
L 364.230782 221.205844 
L 364.280855 220.98418 
L 364.220687 220.662581 
L 364.73781 220.382439 
L 365.091034 219.81241 
L 365.8586 218.963684 
L 365.929167 218.261069 
L 365.255427 216.974194 
L 364.136041 216.472587 
L 363.896295 216.114838 
L 363.85886 215.790599 
L 363.66791 215.281873 
L 363.465609 215.100068 
L 363.754953 214.209854 
L 364.080176 213.964938 
L 363.768824 213.770051 
L 362.52711 213.256815 
L 362.285103 212.997672 
L 360.93866 212.683696 
L 360.254108 212.160071 
L 359.788621 212.1833 
L 359.539717 211.946682 
L 359.558024 211.798055 
L 359.195916 211.54577 
L 359.084764 210.823817 
L 358.766876 209.989704 
L 358.901829 209.586727 
L 359.749768 208.756789 
L 360.095396 208.289913 
L 360.375564 207.530485 
L 361.53528 206.327096 
L 362.293577 205.845175 
L 363.063186 205.022641 
L 363.481016 204.166712 
L 364.433695 202.829213 
L 364.981229 199.516532 
L 364.926027 199.235307 
L 365.132042 198.511629 
L 365.449427 198.185942 
L 365.888615 197.528967 
L 366.040245 196.961478 
L 366.4024 196.388578 
L 366.77086 196.217516 
L 366.846198 195.87806 
L 366.702065 194.567423 
L 366.325601 194.298466 
L 366.585264 193.980269 
L 366.671071 193.67806 
L 366.221967 193.240736 
L 366.177326 192.713526 
L 366.169312 191.704947 
L 366.09748 191.590158 
L 366.290703 191.442725 
L 366.257228 190.946642 
L 365.694352 190.118484 
L 364.977687 188.125856 
L 364.9489 187.385035 
L 364.191255 185.710772 
L 364.560777 185.435988 
L 364.102525 185.014709 
L 364.197392 184.271116 
L 364.630136 183.938184 
L 364.347037 183.837652 
L 364.670183 183.902422 
L 365.038689 183.61326 
L 364.944295 183.255379 
L 364.78824 183.350256 
L 364.861043 183.08537 
L 364.606723 182.685458 
L 364.751295 182.80193 
L 364.478467 183.137091 
L 364.129619 182.864534 
L 363.986203 182.430591 
L 363.740901 182.197563 
L 363.439637 181.712335 
L 363.090408 181.382014 
L 363.327036 180.401933 
L 364.18632 179.677276 
L 364.305102 179.128866 
L 364.153381 178.836028 
L 363.394269 178.087982 
L 363.525505 177.623011 
L 363.48975 177.197501 
L 363.682499 176.247764 
L 363.978314 175.876838 
L 364.267737 174.893003 
L 364.132416 174.464212 
L 363.95083 174.264706 
L 364.100565 173.319129 
L 363.917279 172.745031 
L 364.075966 172.396222 
L 364.454516 172.1572 
L 364.69031 171.775326 
L 365.004636 171.566165 
L 365.473521 171.616312 
L 365.946772 171.049047 
L 366.410671 170.821013 
L 367.309749 170.66088 
L 367.516039 170.306089 
L 367.190239 169.581535 
L 367.445347 169.354032 
L 367.28611 169.049196 
L 366.998705 168.865946 
L 366.965944 168.95538 
L 366.817193 169.202987 
L 366.993241 169.029387 
L 367.068209 169.05561 
L 366.772556 168.860149 
L 366.651736 168.751755 
L 366.845094 168.591602 
L 366.750984 168.66427 
L 366.804802 168.883471 
L 367.101832 168.93323 
L 366.900244 168.548478 
L 366.637256 168.43278 
L 366.431537 168.106535 
L 366.666025 167.809649 
L 367.149278 167.422715 
L 367.430906 167.579568 
L 367.892952 167.644805 
L 368.227955 167.469029 
L 367.8198 167.139148 
L 367.931782 167.071106 
L 368.497439 167.155935 
L 368.602545 166.951404 
L 369.214098 166.640824 
L 369.160976 166.168596 
L 368.847895 165.835427 
L 367.703471 165.763067 
L 367.326576 165.631989 
L 365.887714 165.712798 
L 365.498869 165.627455 
L 364.351733 165.751091 
L 364.147142 165.950998 
L 363.827852 165.954473 
L 363.857135 165.614279 
L 363.741667 165.411091 
L 363.36709 165.322644 
L 363.315442 165.053465 
L 363.391952 164.860499 
L 362.610698 164.963951 
L 363.20444 164.883769 
L 362.996702 164.758349 
L 362.927843 164.380796 
L 362.627985 164.28163 
L 362.253227 163.644428 
L 362.296042 163.590486 
L 362.553202 163.529021 
L 362.56536 163.120007 
L 362.718378 162.853132 
L 362.876153 162.945696 
L 364.170507 162.761604 
L 364.514644 162.3979 
L 365.048404 162.225105 
L 365.486676 162.469606 
L 366.668102 162.788978 
L 367.303115 163.574719 
L 367.870099 163.743923 
L 368.45778 164.098868 
L 368.835605 164.489935 
L 369.318522 164.586868 
L 370.514182 165.406845 
L 370.524628 165.640756 
L 370.383319 165.71838 
L 370.744586 165.86585 
L 371.278364 165.681345 
L 371.771205 165.86828 
L 372.180579 166.014811 
L 372.371127 165.957519 
L 372.711394 165.997027 
L 372.991882 165.847119 
L 373.577647 165.795169 
L 373.904166 165.614781 
L 375.338925 165.62899 
L 376.567154 166.276815 
L 376.776686 166.790411 
L 377.668786 167.452561 
L 378.378114 167.632319 
L 378.619025 167.516012 
L 378.991773 167.602994 
L 379.402735 167.857169 
L 380.426494 167.509475 
L 380.636376 167.183255 
L 380.886699 167.003656 
L 381.529997 166.924191 
L 382.194237 166.39046 
L 383.211178 166.00527 
L 383.116498 165.622379 
L 383.306672 165.309486 
L 384.408223 164.613159 
L 384.858074 164.499049 
L 384.786836 163.884928 
L 384.759197 163.677728 
L 384.889439 163.875957 
L 384.885944 163.620485 
L 384.599599 163.29014 
L 384.564821 162.7931 
L 384.333904 162.286696 
L 384.467973 161.804186 
L 384.453354 161.264988 
L 384.734047 160.299227 
L 384.570753 159.009019 
L 384.756475 158.620431 
L 386.749726 157.195637 
L 388.89989 156.358856 
L 390.287159 155.883424 
L 391.21032 155.191954 
L 391.924948 154.958354 
L 392.122346 154.76349 
L 392.111304 154.562423 
L 391.94357 154.248091 
L 391.640021 153.946033 
L 391.565583 153.440346 
L 390.848898 152.615103 
L 391.093433 152.433568 
L 390.944712 152.268561 
L 390.773262 151.535167 
L 391.037258 150.653262 
L 391.268247 150.25622 
L 391.164424 150.122994 
L 391.442514 150.134081 
L 391.872291 149.670094 
L 392.017251 149.738361 
L 391.901791 149.740248 
L 391.710396 149.926339 
L 391.645623 149.818678 
L 391.257895 149.671019 
L 391.716424 149.742474 
L 391.432814 150.012669 
L 391.169803 150.205931 
L 391.222469 150.23383 
L 391.263469 149.983916 
L 390.980785 149.709545 
L 390.787132 149.737265 
L 391.213214 149.081305 
L 391.442518 149.240428 
L 391.502777 149.059836 
L 392.306623 148.731733 
L 392.481556 148.204151 
L 392.762937 148.042313 
L 392.821306 147.740986 
L 393.087512 147.435261 
L 393.634303 147.483115 
L 393.968272 147.655262 
L 393.818661 147.578674 
L 394.245228 147.67504 
L 394.223772 147.256954 
L 393.958423 147.106834 
L 394.12794 147.085597 
L 394.177948 147.477975 
L 394.352229 147.604246 
L 395.531318 147.97149 
L 395.858344 147.848008 
L 396.304583 147.961739 
L 396.890382 147.816046 
L 396.227333 148.063002 
L 395.857613 147.737181 
L 396.013256 147.696749 
L 395.667267 147.473238 
L 395.314154 146.820257 
L 395.431974 146.632922 
L 395.208684 146.289134 
L 393.213851 144.651108 
L 392.971034 144.151675 
L 392.686703 143.84639 
L 392.704874 143.532125 
L 391.180299 143.304318 
L 390.876395 142.99785 
L 390.668623 142.488425 
L 390.601586 141.730514 
L 390.370732 141.718638 
L 391.455081 141.452317 
L 391.349594 141.314599 
L 391.502115 140.82942 
L 391.478561 140.610119 
L 391.796824 140.201526 
L 392.249371 139.874885 
L 392.876624 138.821782 
L 393.257436 138.056604 
L 394.810534 136.61937 
L 395.141205 136.431474 
L 395.835842 136.40011 
L 396.845818 135.998877 
L 397.408126 135.102477 
L 398.185941 134.570809 
L 399.172397 134.207939 
L 399.688447 133.890995 
L 400.007673 133.45619 
L 400.46772 133.055482 
L 401.663793 132.589323 
L 401.996521 132.396501 
L 403.240504 132.062416 
L 404.037947 131.803807 
L 404.682416 131.44143 
L 406.790734 131.058509 
L 406.811029 130.91223 
L 407.01758 130.926856 
L 407.24598 130.765875 
L 407.104466 130.639817 
L 407.220786 130.174762 
L 408.158024 129.682468 
L 408.1312 129.955065 
L 407.890407 130.016384 
L 407.839476 129.433149 
L 407.605433 129.399794 
L 408.100245 129.463665 
L 408.292854 129.817343 
L 408.656605 130.178699 
L 408.830215 130.158526 
L 409.270835 129.974848 
L 409.881373 130.176842 
L 410.019572 129.763931 
L 410.087898 129.534304 
L 409.810124 128.869801 
L 410.394257 128.407391 
L 410.347995 128.377503 
L 410.06619 128.434377 
L 410.378124 128.26111 
L 410.495168 127.746347 
L 410.365401 127.474507 
L 410.146137 127.539667 
L 410.328597 127.50211 
L 410.119518 127.395042 
L 410.152256 127.215257 
L 409.647499 126.881178 
L 409.636118 126.717903 
L 409.954378 126.530917 
L 411.367914 126.375833 
L 411.66618 126.48402 
L 411.900907 126.702999 
L 412.19381 126.526977 
L 412.929676 126.4971 
L 414.962975 125.726329 
L 415.566224 125.568172 
L 416.295211 125.684674 
L 417.571257 125.707344 
L 417.948548 125.731122 
L 418.203713 125.743802 
L 418.806736 125.53878 
L 419.266868 125.753555 
L 419.458608 125.552623 
L 419.311617 125.452842 
L 419.508276 125.540751 
L 419.571656 125.359662 
L 419.445587 125.486058 
L 419.05739 125.16766 
L 419.275173 125.236797 
L 419.09157 125.427697 
L 418.855047 125.15929 
L 419.006293 124.919536 
L 418.928962 124.690905 
L 418.941892 123.987706 
L 419.375334 123.476264 
L 420.00125 123.255484 
L 419.9955 122.940254 
L 419.38499 122.477772 
L 419.562762 122.442115 
L 418.884147 122.002589 
L 419.126908 121.470726 
L 418.98429 121.531623 
L 418.627647 121.362803 
L 418.616083 121.092105 
L 417.968363 120.88482 
L 416.980506 121.244056 
L 415.701089 121.368788 
L 415.673758 120.646369 
L 415.785825 120.53496 
L 415.532829 120.651139 
L 415.295352 120.79458 
L 414.030499 120.386769 
L 412.853964 120.713761 
L 412.99763 120.74442 
L 413.018448 120.88492 
L 412.716056 121.502914 
L 412.447855 121.458281 
L 411.887409 121.805456 
L 411.526551 121.911879 
L 411.391308 121.834142 
L 411.066323 122.192319 
L 410.886782 122.500586 
L 410.757246 123.154656 
L 411.115147 125.125689 
L 411.06311 125.518931 
L 411.314401 125.801917 
L 411.218007 126.054038 
L 411.219524 125.919396 
L 411.533338 125.822167 
L 411.543893 125.85903 
L 411.431989 126.195912 
L 411.898425 126.007445 
L 411.882719 125.885547 
L 411.07316 125.554273 
L 410.67664 126.046338 
L 410.489786 126.283316 
L 409.960443 125.865575 
L 408.776719 125.986275 
L 408.158089 125.866101 
L 407.491489 126.257438 
L 407.467504 126.423463 
L 407.716342 126.286964 
L 407.621464 126.383593 
L 407.222401 126.248029 
L 407.321579 126.089281 
L 407.321579 126.089281 
" clip-path="url(#p983dea114f)" style="fill: none; stroke: #1f77b4; stroke-opacity: 0.75; stroke-width: 2; stroke-linecap: square"/>
   </g>
   <g id="line2d_18">
    <path d="M 386.378991 171.852125 
L 386.163257 171.839291 
L 386.134378 172.08363 
L 385.511764 172.15596 
L 385.370202 172.529546 
L 385.32003 172.251419 
L 385.18132 171.769313 
L 384.1574 171.818393 
L 383.866155 171.943095 
L 383.376687 171.634765 
L 382.730336 171.552192 
L 382.280981 171.738398 
L 381.951095 171.74197 
L 381.261538 170.752519 
L 380.813635 170.441056 
L 380.672026 170.45306 
L 379.967219 170.625945 
L 378.371534 170.327758 
L 377.493943 170.765106 
L 377.584951 171.049777 
L 377.565719 170.888251 
L 377.707546 170.594325 
L 377.534084 170.591284 
L 377.059066 170.035764 
L 376.221982 169.866578 
L 375.632383 169.674418 
L 375.08151 169.441466 
L 374.507739 169.014314 
L 374.144708 168.7361 
L 374.221612 168.456752 
L 374.409959 168.458032 
L 374.344251 168.084578 
L 373.993064 168.05134 
L 373.395424 167.535431 
L 373.483457 167.552845 
L 373.194765 167.12648 
L 373.055521 166.453979 
L 373.191313 165.776232 
L 373.437987 165.512043 
L 373.517333 165.057356 
L 373.806598 164.521586 
L 373.826976 163.658729 
L 373.683906 163.057654 
L 374.181229 162.418508 
L 375.221678 162.024505 
L 375.720579 161.976829 
L 376.823049 162.197309 
L 377.698729 161.788118 
L 378.486395 160.873687 
L 381.037944 159.866218 
L 381.365281 159.7892 
L 381.798656 159.39978 
L 381.878406 159.195157 
L 382.554596 159.464252 
L 382.349314 159.358734 
L 382.460933 159.137665 
L 382.936363 158.674654 
L 382.79025 158.226888 
L 382.199232 158.024853 
L 382.832486 157.255759 
L 382.901691 157.22704 
L 382.647969 157.165428 
L 382.968722 157.248776 
L 384.632567 156.683797 
L 385.229585 156.60278 
L 385.480898 156.728985 
L 385.345927 156.526873 
L 385.094991 156.488404 
L 385.029987 156.620818 
L 385.230495 156.752689 
L 385.308609 156.586788 
L 385.067877 156.501941 
L 385.205381 156.797303 
L 385.153938 156.653547 
L 385.770756 156.780347 
L 384.971262 157.851906 
L 384.785698 158.019467 
L 384.256725 158.26383 
L 383.899748 158.562822 
L 383.128599 159.627356 
L 381.800925 159.932521 
L 380.898506 160.338253 
L 380.54536 160.718514 
L 380.730292 161.207634 
L 380.995078 161.517676 
L 380.920164 161.861144 
L 379.943218 162.199114 
L 378.951458 162.368899 
L 378.004986 163.201507 
L 378.159486 163.62248 
L 378.479137 163.401666 
L 379.159542 163.313445 
L 379.334377 163.43138 
L 379.545973 163.306138 
L 380.409208 163.582811 
L 379.984722 163.448253 
L 379.686379 163.642809 
L 379.538434 163.878733 
L 378.466679 164.32509 
L 377.376662 164.620183 
L 377.123142 164.970301 
L 376.497817 165.161043 
L 376.092835 165.068988 
L 375.75245 165.230225 
L 375.753512 165.415109 
L 374.981009 164.809044 
L 374.245344 164.638517 
L 373.434515 164.313893 
L 372.624549 164.579016 
L 372.540652 164.741503 
L 372.898102 165.07271 
L 372.80793 165.187189 
L 372.020303 165.300512 
L 371.635887 165.743676 
L 371.662195 165.752099 
L 371.624567 165.489823 
L 371.12091 165.241365 
L 370.377833 164.796591 
L 370.457964 164.467958 
L 370.306054 164.016882 
L 369.041123 163.134115 
L 367.8442 162.797147 
L 367.508424 163.020024 
L 366.520225 162.817211 
L 366.134851 162.707563 
L 365.443463 162.363648 
L 364.229906 161.471684 
L 362.690905 160.901495 
L 362.422266 160.608905 
L 362.180903 160.643087 
L 361.886632 160.981196 
L 361.612093 161.546942 
L 361.110404 161.830133 
L 361.003707 162.198387 
L 361.06908 162.16623 
L 360.854605 162.203571 
L 360.664301 161.911368 
L 360.260624 162.03526 
L 360.069561 162.217882 
L 360.150528 162.335532 
L 360.387903 162.267525 
L 360.280191 162.167972 
L 359.871949 162.171007 
L 359.574659 161.945356 
L 358.271582 161.719876 
L 358.766923 161.066261 
L 359.043887 161.350057 
L 358.898488 161.637999 
L 358.653062 161.80255 
L 355.889444 161.488347 
L 354.362771 161.022271 
L 353.888609 160.736826 
L 352.404582 160.486249 
L 351.991615 160.637027 
L 350.204936 160.795196 
L 349.923699 160.547569 
L 349.348437 160.314088 
L 348.896135 160.215185 
L 348.66446 160.040035 
L 348.212925 159.845332 
L 348.195734 159.72555 
L 348.017913 159.746625 
L 347.802122 158.397348 
L 347.4957 158.037208 
L 346.121301 157.35061 
L 345.839186 156.89818 
L 345.20952 156.856154 
L 344.055535 156.006121 
L 342.138159 156.200278 
L 341.395046 155.89022 
L 340.853266 155.385962 
L 340.031012 155.277511 
L 339.505806 154.858718 
L 338.907392 154.580226 
L 338.348532 153.961077 
L 337.633982 153.610316 
L 336.960039 153.680566 
L 336.219184 153.209431 
L 333.900921 151.238759 
L 333.883518 150.979037 
L 333.279338 150.789963 
L 333.134935 150.597768 
L 333.066424 150.133096 
L 332.606533 149.876513 
L 332.576696 149.539766 
L 332.268633 149.078618 
L 332.240307 148.689065 
L 332.36579 148.401117 
L 332.0976 148.000264 
L 331.931436 147.923478 
L 331.955914 147.736298 
L 331.664555 147.457905 
L 331.093829 147.535956 
L 331.14689 147.60904 
L 330.943374 147.415956 
L 331.624729 146.759577 
L 331.567274 146.683998 
L 330.845895 146.24573 
L 330.341143 146.139577 
L 330.319852 146.01942 
L 331.431218 145.811926 
L 330.500447 144.975611 
L 330.335465 144.116916 
L 329.96713 143.674563 
L 329.904019 143.332629 
L 330.238406 143.164347 
L 330.206323 143.045274 
L 330.00575 142.951768 
L 330.048173 143.104397 
L 329.504289 143.312539 
L 329.594727 143.1896 
L 329.889219 142.964627 
L 329.877941 142.634339 
L 329.568833 142.608957 
L 329.716812 142.330602 
L 330.271021 142.412053 
L 330.102313 142.395746 
L 329.919694 142.163316 
L 329.971256 141.788664 
L 329.514357 141.372403 
L 329.302773 141.462921 
L 328.205989 141.469156 
L 328.145073 141.296429 
L 328.253216 141.088876 
L 329.220209 140.830095 
L 329.484534 140.983434 
L 329.405252 141.243324 
L 329.304088 141.081365 
L 329.837962 140.987143 
L 329.979335 141.094661 
L 330.004494 141.30171 
L 329.833277 141.546556 
L 330.274326 141.809575 
L 330.434669 142.056311 
L 330.784795 142.121988 
L 330.639641 142.089686 
L 331.011811 141.863182 
L 331.153628 141.392304 
L 331.713145 141.668764 
L 332.411791 141.403013 
L 333.013748 142.167328 
L 332.894913 142.244875 
L 333.23054 142.759577 
L 333.278538 142.939768 
L 332.772551 143.022213 
L 332.515374 142.904804 
L 332.357871 143.402337 
L 332.516486 143.622522 
L 332.516885 143.416089 
L 332.956832 143.070815 
L 332.80684 142.841645 
L 332.301163 142.726997 
L 332.390048 142.438866 
L 332.055456 141.450167 
L 331.644191 141.424304 
L 331.34024 141.087705 
L 331.350606 140.539137 
L 331.499767 140.388738 
L 331.250395 140.052289 
L 330.966816 140.071689 
L 330.896283 140.227555 
L 330.94711 140.163019 
L 330.705109 139.891024 
L 330.514145 139.961941 
L 330.211763 139.467815 
L 330.074241 138.816126 
L 329.73505 138.53331 
L 329.425365 138.468796 
L 329.310492 138.258992 
L 328.86011 138.208603 
L 328.531488 138.469186 
L 328.20569 138.402632 
L 327.799794 138.559249 
L 328.041538 138.217784 
L 328.106295 138.433578 
L 328.357045 138.239378 
L 329.735078 137.992148 
L 330.005284 137.759501 
L 330.034523 137.906607 
L 330.304022 137.924797 
L 330.393309 138.081367 
L 330.641483 138.20503 
L 330.940032 138.179297 
L 330.81654 138.032478 
L 331.123077 138.158043 
L 331.058042 138.175039 
L 330.739634 138.200299 
L 330.605022 138.094431 
L 329.995994 137.973207 
L 330.312981 137.84335 
L 329.785777 137.846545 
L 328.770881 137.482709 
L 328.288167 137.807613 
L 328.432052 137.620466 
L 328.281708 137.587925 
L 328.048363 136.991676 
L 325.860217 135.544867 
L 325.368214 135.478309 
L 324.965165 134.844088 
L 322.773108 135.106927 
L 322.071509 135.015705 
L 321.849681 135.318001 
L 321.577045 135.788881 
L 321.125753 136.143649 
L 319.697524 136.14089 
L 316.077432 135.728981 
L 315.61221 135.830089 
L 315.08589 136.345209 
L 314.212757 136.493215 
L 312.864755 136.568677 
L 311.983222 136.809019 
L 307.413705 137.661977 
L 306.678246 137.465637 
L 306.338463 137.231505 
L 302.555247 135.464396 
L 301.780213 135.498384 
L 301.339511 135.663383 
L 300.48262 135.027837 
L 300.293807 134.650034 
L 299.837381 134.3055 
L 299.558901 133.430441 
L 299.700407 132.586522 
L 300.171402 132.342401 
L 300.752373 132.002941 
L 300.753678 131.721076 
L 300.948869 131.549059 
L 301.171237 131.087323 
L 302.772942 129.581104 
L 303.043789 129.38562 
L 303.331004 128.965102 
L 303.714058 128.665233 
L 303.51089 128.347969 
L 303.709279 127.1475 
L 303.890753 127.004024 
L 303.741186 126.775984 
L 303.358168 126.921626 
L 302.217129 126.506472 
L 301.912188 126.252582 
L 301.756803 125.799563 
L 301.36409 125.643146 
L 301.384216 124.851589 
L 301.390643 124.124165 
L 301.303277 124.111779 
L 301.196533 124.184595 
L 301.191311 124.483492 
L 301.008144 124.219244 
L 300.433277 124.053707 
L 299.80044 124.183216 
L 299.243564 124.1118 
L 295.550697 122.543507 
L 293.917226 121.776648 
L 292.991135 121.674116 
L 292.321216 121.745956 
L 291.31145 121.594826 
L 290.494618 121.659836 
L 289.999766 121.885981 
L 289.263098 121.997451 
L 288.270903 121.908817 
L 287.859606 122.053981 
L 287.54526 122.367484 
L 286.975208 122.361059 
L 285.823273 122.668566 
L 285.621436 122.902044 
L 285.591806 123.328502 
L 285.432453 123.737562 
L 285.69032 124.567993 
L 286.736126 124.429821 
L 286.89788 124.583947 
L 287.170066 124.681339 
L 287.175184 124.616024 
L 287.37312 124.615542 
L 287.461705 124.82351 
L 288.13241 124.471514 
L 288.195857 124.278525 
L 288.14798 123.787752 
L 288.004557 123.528036 
L 287.919191 123.04705 
L 287.130489 121.915634 
L 286.681277 121.532343 
L 286.574895 121.241869 
L 286.270703 120.912456 
L 286.255808 120.372989 
L 286.089877 120.123559 
L 286.400103 119.782693 
L 286.023692 119.615661 
L 285.646125 119.800437 
L 285.370315 119.469504 
L 284.935349 119.432743 
L 285.176415 119.30716 
L 285.090945 119.376441 
L 285.09676 119.52467 
L 284.972397 119.8425 
L 284.837985 120.13602 
L 284.947827 120.356516 
L 286.32317 120.501591 
L 286.992706 120.66467 
L 287.114644 120.932033 
L 287.054742 121.170752 
L 287.09844 121.488159 
L 287.983331 121.294584 
L 288.034596 121.475331 
L 288.724983 121.837891 
L 289.664235 122.134439 
L 289.515167 122.441405 
L 290.163487 123.03918 
L 290.476263 122.784842 
L 291.933263 123.093874 
L 292.11665 123.433302 
L 292.254263 123.495032 
L 292.640697 123.291436 
L 292.549649 123.363563 
L 292.74296 123.003557 
L 291.677676 122.616539 
L 291.14098 122.714088 
L 291.088302 122.96978 
L 291.41285 122.943234 
L 291.851916 122.899608 
L 291.791254 122.80422 
L 292.019304 122.390909 
L 291.86544 122.413793 
L 291.962765 122.620722 
L 292.200882 122.597742 
L 292.855736 122.879376 
L 292.920028 122.748464 
L 293.26121 122.71047 
L 293.083569 122.622537 
L 293.066766 122.594933 
L 293.331788 122.398258 
L 293.732836 122.261831 
L 293.847791 121.746665 
L 293.834777 121.219072 
L 295.579922 120.240565 
L 296.381305 120.332264 
L 297.328415 120.003673 
L 298.171232 119.875196 
L 298.812126 119.904685 
L 299.728147 119.472202 
L 300.131361 119.135425 
L 300.567686 119.128969 
L 300.870177 119.378728 
L 300.818763 119.310937 
L 300.575335 119.596956 
L 300.482571 119.895269 
L 300.06317 119.677005 
L 299.809964 119.254699 
L 299.959495 118.790551 
L 301.143834 117.260076 
L 302.232856 116.762017 
L 302.951224 115.754317 
L 303.007739 114.672184 
L 303.428788 114.267755 
L 303.550092 113.673711 
L 304.586574 112.515582 
L 304.738508 111.795556 
L 304.605448 110.99569 
L 304.798471 110.285695 
L 304.583803 109.598184 
L 304.759414 108.644986 
L 304.214859 108.232248 
L 303.96391 107.628523 
L 304.040167 107.216472 
L 303.986224 106.24293 
L 304.633703 104.581029 
L 304.792378 104.476022 
L 305.322611 103.732358 
L 306.249584 102.97314 
L 306.689517 101.976091 
L 306.493884 101.706884 
L 306.476926 100.092264 
L 306.931912 99.114667 
L 307.339536 98.84705 
L 308.032451 98.559949 
L 308.481036 98.18242 
L 308.923364 96.982963 
L 309.297895 96.912991 
L 309.792721 96.703891 
L 310.203255 96.73108 
L 312.445564 95.401593 
L 315.087326 94.262137 
L 315.609242 94.296625 
L 316.218353 94.15734 
L 316.909711 94.313144 
L 318.065007 93.959808 
L 318.465631 93.903925 
L 318.722505 93.599028 
L 319.442325 93.303043 
L 319.976036 92.730812 
L 320.468115 92.483846 
L 320.94006 91.014796 
L 322.012778 90.322171 
L 322.409782 90.077502 
L 322.620501 89.571848 
L 322.891449 87.579744 
L 323.335217 86.950772 
L 323.189001 86.487361 
L 323.257325 86.180033 
L 323.166603 85.884555 
L 324.071655 84.90265 
L 323.92431 84.819124 
L 323.864169 84.644175 
L 323.924677 83.858297 
L 323.844384 83.544652 
L 323.655935 83.526242 
L 323.996753 83.672414 
L 324.086662 83.454114 
L 325.448718 82.834453 
L 325.575615 82.578754 
L 325.151399 82.131096 
L 325.244775 81.658395 
L 325.50008 81.354746 
L 326.048634 80.337632 
L 326.528164 79.472385 
L 327.716698 78.742392 
L 328.730867 77.715472 
L 329.41026 77.207031 
L 330.048534 76.566267 
L 330.580184 74.545965 
L 331.116589 74.211527 
L 331.731928 73.360512 
L 332.087853 72.716036 
L 334.757825 70.353213 
L 339.455057 68.732531 
L 339.796182 68.242401 
L 340.610584 66.584186 
L 340.945021 66.220289 
L 341.213438 66.210396 
L 341.642182 66.314792 
L 341.971493 66.063266 
L 342.159713 65.891496 
L 342.483923 65.836069 
L 342.514875 65.427625 
L 342.679495 65.115677 
L 342.416162 64.87508 
L 342.234719 64.406256 
L 342.288624 64.01367 
L 342.580824 63.980215 
L 343.577725 63.612693 
L 343.716075 63.346926 
L 344.425842 63.441904 
L 344.380927 63.399348 
L 344.514489 63.182904 
L 344.760053 63.140654 
L 344.887307 62.961074 
L 345.546217 62.866213 
L 345.651166 62.867911 
L 345.488815 62.658547 
L 345.390113 62.316286 
L 345.57087 61.110361 
L 345.211446 60.837203 
L 345.109983 60.620186 
L 345.096453 60.113844 
L 345.239355 59.867025 
L 345.330041 58.915233 
L 345.001582 58.515655 
L 345.217492 57.639868 
L 344.939585 57.133775 
L 344.116062 56.270282 
L 344.130779 56.074692 
L 343.989526 55.933939 
L 344.290113 55.705234 
L 344.152626 55.477375 
L 344.4126 55.273378 
L 343.988636 54.795567 
L 343.85198 54.608782 
L 343.288889 54.270498 
L 342.805478 54.104555 
L 342.33939 53.819597 
L 341.602431 52.50891 
L 341.247608 51.16656 
L 342.136747 49.715169 
L 341.501819 48.977521 
L 341.702662 48.577892 
L 341.505709 47.234882 
L 341.155017 46.955691 
L 340.930054 46.488911 
L 339.438466 45.336259 
L 338.920251 44.935861 
L 338.103884 44.643262 
L 338.19249 44.336586 
L 338.113582 44.130772 
L 337.63406 44.067462 
L 337.331374 43.705211 
L 336.952846 43.472514 
L 335.889522 43.070283 
L 335.62268 42.716803 
L 335.736906 42.495959 
L 335.34536 41.746977 
L 334.441121 41.610718 
L 334.72493 41.27949 
L 334.734859 40.990835 
L 335.07405 40.66754 
L 335.063541 40.396482 
L 334.774205 40.04584 
L 335.126519 39.568404 
L 335.451475 39.17706 
L 336.062097 38.794257 
L 336.456647 38.777053 
L 336.962094 38.571945 
L 337.80448 38.600618 
L 338.330415 38.376819 
L 338.944333 38.308986 
L 340.709767 37.430725 
L 340.666883 37.196229 
L 340.936356 37.047064 
L 340.982399 36.846279 
L 341.132269 36.843864 
L 341.132269 36.843864 
" clip-path="url(#p983dea114f)" style="fill: none; stroke: #ff7f0e; stroke-opacity: 0.75; stroke-width: 2; stroke-linecap: square"/>
   </g>
   <g id="line2d_19">
    <path d="M 386.378991 171.852125 
L 385.721386 171.350733 
L 382.710368 171.313637 
L 382.410642 171.468819 
L 382.079865 171.454644 
L 381.492628 171.299408 
L 381.147819 171.325332 
L 380.562331 171.495821 
L 379.427066 171.308793 
L 378.908539 171.281296 
L 378.449467 171.672065 
L 377.881472 171.810198 
L 377.094014 171.939718 
L 375.776407 172.392121 
L 375.615126 172.713725 
L 375.084311 173.046851 
L 374.764389 173.453539 
L 374.924542 173.623456 
L 374.808362 174.561974 
L 375.89685 175.943652 
L 376.218457 176.25031 
L 376.232882 176.911086 
L 377.216191 177.775886 
L 379.353075 178.477224 
L 379.68465 178.824968 
L 379.795016 180.67683 
L 380.322462 181.315459 
L 381.131601 182.807147 
L 381.192104 183.317277 
L 381.480472 183.769269 
L 381.596375 184.47009 
L 380.753459 184.482965 
L 380.716083 184.928355 
L 380.271372 185.036424 
L 380.279843 185.041792 
L 380.601789 185.055568 
L 380.707392 185.321708 
L 380.630695 184.900741 
L 380.780959 185.041109 
L 380.452085 185.621208 
L 380.725827 186.076561 
L 380.026668 187.062598 
L 379.484166 187.151958 
L 379.605238 187.396415 
L 379.566146 187.657017 
L 379.413394 187.621639 
L 379.159886 187.743445 
L 378.761247 187.4683 
L 378.049311 187.296164 
L 377.669853 187.051275 
L 376.32706 186.647342 
L 375.040032 185.88288 
L 374.550088 185.589239 
L 373.979531 185.568387 
L 373.500486 185.023465 
L 373.204024 185.206913 
L 372.750888 185.240699 
L 372.447919 185.510582 
L 372.451973 185.825374 
L 372.229951 185.873946 
L 372.245688 185.762076 
L 372.412552 185.67936 
L 372.171119 185.733233 
L 372.400499 186.280307 
L 372.152097 186.512577 
L 371.749391 187.162077 
L 371.715857 187.687633 
L 371.167403 188.127888 
L 370.527217 188.248765 
L 368.918863 188.902554 
L 369.158408 188.970757 
L 369.457922 189.363892 
L 369.813844 189.622275 
L 370.037218 189.999386 
L 369.848057 190.536162 
L 370.064369 191.004562 
L 369.684686 192.075543 
L 369.025895 193.003521 
L 368.811984 193.523658 
L 368.766098 194.233628 
L 369.009933 194.723274 
L 368.946169 195.077502 
L 369.108265 195.656015 
L 369.056433 195.752212 
L 368.800719 196.915315 
L 368.536095 197.299632 
L 367.576567 197.772354 
L 367.566497 198.230069 
L 367.910088 198.471503 
L 368.126323 198.86442 
L 367.912498 199.448148 
L 368.073475 199.920791 
L 368.136913 201.28433 
L 367.837719 201.816967 
L 367.650754 202.997348 
L 367.665083 203.970149 
L 367.455386 204.375792 
L 367.385513 204.817946 
L 367.240482 205.009306 
L 366.726028 205.313093 
L 366.606009 205.652431 
L 366.576153 206.544589 
L 366.492488 206.538712 
L 365.841564 207.012933 
L 365.786185 207.543031 
L 365.47227 207.979672 
L 365.88549 208.426842 
L 365.980911 208.79766 
L 365.618355 209.132996 
L 365.752916 209.756184 
L 366.457164 210.259306 
L 366.467718 210.415978 
L 366.297117 210.866949 
L 365.987403 211.331934 
L 364.564896 212.088448 
L 364.046159 214.808386 
L 363.596616 215.605872 
L 363.37276 217.213393 
L 363.363778 217.702906 
L 364.083541 220.287233 
L 364.147917 220.365091 
L 364.698813 220.465905 
L 365.035464 220.730407 
L 365.213996 221.268389 
L 365.553635 221.269867 
L 366.462528 221.329498 
L 366.767572 221.637618 
L 367.855638 221.74786 
L 367.709426 222.109799 
L 367.918614 222.396345 
L 368.503792 222.74132 
L 368.78098 223.210679 
L 369.010813 223.303638 
L 369.386806 223.799596 
L 369.47318 223.660234 
L 369.261604 224.008765 
L 369.207145 224.462945 
L 369.519884 224.521838 
L 370.047648 224.404621 
L 370.900789 224.739653 
L 371.112955 224.648906 
L 370.952164 224.602502 
L 369.751404 224.586373 
L 369.18106 224.766342 
L 368.185228 225.417116 
L 367.640772 225.505093 
L 367.454667 225.784672 
L 367.035745 225.70657 
L 366.968688 225.840936 
L 367.234604 225.843012 
L 367.255667 225.718334 
L 367.321618 225.852674 
L 367.65766 226.343425 
L 367.906121 226.136011 
L 369.652896 225.815829 
L 369.50978 226.042488 
L 369.743703 226.252152 
L 369.370831 226.302774 
L 369.257794 226.472543 
L 369.352072 226.317112 
L 369.849028 226.17492 
L 369.608373 226.029734 
L 370.786133 226.769192 
L 371.193424 226.735799 
L 371.909572 227.145682 
L 372.038002 227.372857 
L 372.103059 228.005751 
L 372.1483 227.967016 
L 372.28132 227.952604 
L 372.561005 228.034842 
L 373.075911 227.614778 
L 372.803914 227.750001 
L 372.960908 227.919857 
L 373.367314 227.810881 
L 373.078568 227.622404 
L 373.774367 228.552525 
L 373.972736 228.522601 
L 374.241972 228.702276 
L 374.308001 229.217586 
L 374.348987 230.7397 
L 374.019222 231.248548 
L 373.710445 231.339479 
L 374.030748 231.391157 
L 373.964274 231.568099 
L 374.081205 231.714028 
L 373.682279 231.340604 
L 372.742515 231.064725 
L 372.340943 231.075783 
L 371.718439 230.768612 
L 370.240596 230.812931 
L 370.036645 230.884542 
L 369.791923 230.719439 
L 369.564094 230.365532 
L 369.075791 230.573376 
L 368.421761 231.19659 
L 368.171853 231.243713 
L 367.891635 231.099032 
L 367.575165 230.782159 
L 366.94116 230.561037 
L 366.650134 230.673499 
L 367.299054 230.635411 
L 367.063049 230.693272 
L 366.791613 230.3043 
L 366.925505 229.865712 
L 367.37895 229.477899 
L 368.643389 228.730347 
L 369.076743 228.40084 
L 369.756695 228.533431 
L 371.708575 228.162309 
L 372.137867 228.011631 
L 372.725083 227.979469 
L 372.877167 227.664525 
L 372.972316 227.83192 
L 373.107369 227.629149 
L 373.107091 227.72068 
L 373.220824 228.141085 
L 372.974548 228.720305 
L 373.044106 228.806711 
L 373.085676 228.665208 
L 372.796771 228.502918 
L 372.21074 228.414921 
L 372.069313 227.937959 
L 371.912196 227.620732 
L 371.935934 227.392729 
L 370.374079 227.760646 
L 369.901105 227.904405 
L 368.97058 227.848383 
L 368.309431 227.864306 
L 367.893401 228.029124 
L 366.632724 227.699045 
L 366.057277 227.627256 
L 365.840097 227.501105 
L 364.991672 227.459864 
L 364.809427 227.340943 
L 364.825763 227.194035 
L 364.727719 226.96998 
L 364.823701 227.006882 
L 364.685714 227.143108 
L 364.767978 227.388578 
L 365.136368 227.775023 
L 365.026352 228.630838 
L 364.693787 229.090455 
L 363.844743 228.73676 
L 363.488513 228.765118 
L 362.974208 228.66207 
L 362.264886 228.376672 
L 362.36676 228.335545 
L 363.068918 228.015361 
L 363.23519 227.830278 
L 363.075113 227.656731 
L 363.227462 227.772836 
L 363.085499 227.99667 
L 363.131043 228.348026 
L 363.535124 228.523624 
L 363.969383 228.915589 
L 363.883174 229.090097 
L 363.52966 229.176592 
L 363.286008 229.425608 
L 364.120392 229.704757 
L 364.29135 229.996969 
L 364.202142 230.346455 
L 363.964026 230.727039 
L 364.062757 230.880064 
L 363.918846 231.072094 
L 363.997526 231.118098 
L 363.251569 231.676028 
L 362.951708 231.974278 
L 362.408528 232.133101 
L 362.053086 232.540175 
L 360.673919 233.004185 
L 360.86526 232.875037 
L 361.216402 233.007043 
L 361.516511 232.934815 
L 361.797586 233.187345 
L 361.711363 233.198654 
L 361.474603 233.32476 
L 361.750547 233.212414 
L 362.123756 233.214391 
L 362.28838 233.463003 
L 361.956922 233.598422 
L 361.613695 233.923457 
L 361.344484 235.421378 
L 360.890258 236.230308 
L 360.416925 236.704693 
L 360.729497 237.2563 
L 360.492584 237.441285 
L 360.45022 237.736516 
L 360.124146 238.459746 
L 360.300563 238.817046 
L 360.39408 239.272361 
L 359.791426 240.088731 
L 359.765527 240.276358 
L 359.012013 240.879172 
L 359.296191 240.800768 
L 359.284117 241.003796 
L 358.883706 241.590538 
L 358.899496 242.155553 
L 359.108283 242.220773 
L 359.092804 242.357406 
L 359.367431 242.777736 
L 359.292715 243.573099 
L 359.209481 244.040419 
L 358.523629 244.691689 
L 358.341515 245.008047 
L 358.020812 245.265469 
L 357.811336 245.168153 
L 357.511755 245.157533 
L 357.243732 244.804896 
L 355.084355 243.865869 
L 354.75616 243.929071 
L 353.196778 243.085627 
L 352.779853 243.096581 
L 352.699377 242.523831 
L 352.407855 242.24505 
L 352.720538 241.728336 
L 353.175183 241.601758 
L 353.936243 241.761007 
L 354.730006 242.088688 
L 355.020878 242.101688 
L 355.069272 242.271579 
L 355.428664 242.685803 
L 355.804147 242.632775 
L 355.992426 242.916119 
L 356.33758 242.958454 
L 356.502822 243.133548 
L 356.533898 243.424011 
L 355.882718 243.59826 
L 355.917219 243.786271 
L 355.98014 243.73229 
L 355.493919 243.641574 
L 355.49239 243.609914 
L 355.599361 243.701339 
L 355.693436 243.706429 
L 356.238678 243.416726 
L 356.535024 243.388319 
L 356.840568 243.582997 
L 357.261988 243.544162 
L 357.841528 243.893306 
L 360.242378 244.207323 
L 360.22101 244.244761 
L 361.290886 244.305583 
L 362.394836 244.690394 
L 362.600043 244.976587 
L 363.037675 245.193568 
L 363.546236 246.008471 
L 363.741127 247.153417 
L 363.556741 247.420498 
L 364.153313 248.273995 
L 363.944031 248.123243 
L 363.908874 248.196462 
L 364.153861 248.274472 
L 363.908471 248.916285 
L 363.895871 248.895281 
L 363.663612 249.143007 
L 362.549992 249.017664 
L 362.537314 249.163955 
L 362.704146 249.299564 
L 362.124275 249.461489 
L 361.881402 249.13986 
L 361.484885 248.810095 
L 361.422021 248.460016 
L 360.739073 248.001434 
L 361.174221 247.671838 
L 361.453999 247.661721 
L 361.631811 247.455881 
L 360.351845 247.34752 
L 360.008421 247.412422 
L 358.654257 248.492158 
L 358.14535 248.854833 
L 358.218186 248.67263 
L 358.458619 248.410808 
L 358.192772 248.307262 
L 358.220437 247.372103 
L 358.670492 247.48511 
L 358.567436 247.524829 
L 358.95384 247.702676 
L 359.217485 248.003225 
L 359.40141 247.930744 
L 359.616929 248.04277 
L 360.525634 248.702708 
L 360.994192 248.842461 
L 362.459518 249.116959 
L 363.234707 249.775256 
L 363.756777 249.928676 
L 364.390839 250.371405 
L 365.666712 250.419811 
L 365.772764 250.603923 
L 365.710027 250.962212 
L 365.800087 251.30819 
L 365.953726 251.3315 
L 366.012081 251.572394 
L 366.689042 251.770558 
L 366.794247 251.876333 
L 366.731019 252.074833 
L 366.835439 252.198228 
L 366.986144 252.153051 
L 367.130704 251.990299 
L 367.520069 252.348483 
L 367.787924 252.160578 
L 367.776023 251.549034 
L 368.239166 251.72713 
L 368.772613 251.584443 
L 371.175613 251.583847 
L 372.111412 251.076916 
L 372.177545 250.722425 
L 372.030552 250.552708 
L 371.566366 250.456888 
L 369.480138 249.21256 
L 368.125489 248.730746 
L 367.583226 248.891214 
L 366.983811 248.799087 
L 366.517675 248.501226 
L 366.192824 248.442772 
L 365.465946 247.855044 
L 365.305545 247.715291 
L 365.139417 247.416307 
L 364.189151 246.892573 
L 364.088059 246.738473 
L 364.047156 245.759087 
L 363.747029 245.5355 
L 363.734832 244.016542 
L 364.223837 243.716579 
L 364.192949 243.475787 
L 363.749301 242.97698 
L 363.591752 242.879616 
L 363.60667 242.071545 
L 363.357591 241.690484 
L 363.248502 241.958518 
L 363.303796 241.904144 
L 363.050619 241.865445 
L 362.491656 241.490365 
L 362.101842 241.081431 
L 361.595192 240.736472 
L 361.458253 240.347519 
L 361.451395 240.57275 
L 361.212887 240.175322 
L 361.322184 240.413849 
L 361.942921 240.532672 
L 361.869103 240.284238 
L 362.098472 240.237421 
L 362.428554 239.962668 
L 363.465292 240.775738 
L 363.83202 241.50943 
L 363.574667 241.994148 
L 363.881169 242.146869 
L 364.178982 241.820057 
L 364.17617 241.857031 
L 364.385987 242.140819 
L 364.470913 242.467593 
L 364.786022 242.356221 
L 365.163921 242.131886 
L 365.520987 242.051052 
L 365.620186 242.152354 
L 365.497338 242.484087 
L 366.050109 242.684447 
L 366.556549 243.039815 
L 367.007188 243.555604 
L 367.107791 244.103284 
L 367.298542 244.397348 
L 368.36338 244.850704 
L 368.682306 244.931539 
L 368.930338 245.229491 
L 369.313617 245.362805 
L 370.169463 245.492231 
L 370.205898 245.878747 
L 370.544918 246.660836 
L 371.104252 247.100153 
L 371.007459 247.619994 
L 371.243398 247.948706 
L 372.077827 247.884268 
L 372.697854 248.257216 
L 372.916311 248.319815 
L 373.191351 248.764288 
L 373.22824 248.729649 
L 373.232819 248.952009 
L 374.797863 248.914063 
L 375.067411 249.246681 
L 375.324103 249.351895 
L 375.911266 249.235614 
L 376.664108 248.719006 
L 377.382211 248.834405 
L 377.598689 249.05067 
L 377.939464 248.956073 
L 378.110944 248.983145 
L 378.162429 249.198789 
L 378.298893 249.124239 
L 378.233528 249.033861 
L 378.256986 249.329859 
L 378.908625 249.647527 
L 378.956437 249.699875 
L 378.793574 249.673227 
L 378.393783 249.328485 
L 379.031885 248.770785 
L 378.861269 248.58537 
L 378.381411 248.434599 
L 378.657181 248.188913 
L 378.556879 248.001198 
L 377.78602 247.791561 
L 377.89261 247.55464 
L 377.890306 246.67435 
L 378.087172 246.556721 
L 378.112948 246.485042 
L 379.654068 246.021648 
L 380.529012 245.648777 
L 381.238553 245.785656 
L 382.002931 245.542413 
L 383.47595 243.924232 
L 383.449559 243.45256 
L 383.206307 243.378669 
L 383.18858 242.949587 
L 383.405077 242.278888 
L 384.068847 241.418936 
L 384.034275 240.824737 
L 384.301394 240.475125 
L 384.949211 240.403412 
L 385.300161 240.48415 
L 387.609383 240.323887 
L 387.939553 240.504429 
L 389.316458 240.175949 
L 390.346214 240.269935 
L 390.700942 240.127777 
L 391.087017 240.470408 
L 391.092178 240.450522 
L 391.282692 240.506613 
L 391.578111 240.757386 
L 392.210735 240.672043 
L 392.721782 240.361535 
L 392.757242 239.581713 
L 393.278005 239.619125 
L 393.543945 239.194145 
L 393.916749 239.344704 
L 394.152839 239.31802 
L 393.940263 239.426853 
L 393.731797 239.534423 
L 393.597496 239.798774 
L 393.643223 240.400778 
L 393.34858 240.764783 
L 393.064708 240.871549 
L 392.632092 240.791305 
L 392.251235 240.835875 
L 391.862287 241.298065 
L 389.568349 242.091293 
L 389.01095 241.680885 
L 389.044979 241.685189 
L 389.087525 241.567015 
L 388.802916 241.442906 
L 389.110407 241.471049 
L 390.065729 241.643194 
L 390.635874 242.307361 
L 391.08102 242.561067 
L 390.87104 242.941864 
L 391.042817 243.161768 
L 390.90786 243.750954 
L 390.503335 244.051967 
L 390.324727 244.00776 
L 390.102958 244.126725 
L 389.757575 244.097577 
L 387.190931 245.863038 
L 386.913246 246.643723 
L 386.820243 246.966276 
L 386.106267 247.242612 
L 385.159485 247.769814 
L 384.443874 247.70482 
L 383.065726 247.842451 
L 382.618139 247.74065 
L 381.830575 248.314037 
L 381.391959 248.874687 
L 381.532134 249.37195 
L 381.224478 249.783626 
L 381.489692 250.593478 
L 381.111474 250.95599 
L 380.301588 251.02017 
L 380.079043 250.978273 
L 380.178291 251.105488 
L 379.808251 251.21831 
L 378.655477 251.186349 
L 377.795858 250.969255 
L 377.343031 250.693062 
L 376.653445 250.585541 
L 375.639103 250.195995 
L 375.259593 249.916855 
L 374.582908 248.657078 
L 374.020702 248.373972 
L 372.819219 248.214356 
L 373.076542 248.230221 
L 373.019214 248.400785 
L 372.752081 248.331792 
L 373.126146 248.610301 
L 373.058973 248.469861 
L 372.790168 246.556642 
L 372.526843 246.229637 
L 372.189852 246.193073 
L 371.930669 246.051514 
L 372.038791 245.448 
L 371.861426 245.498192 
L 371.779407 245.183675 
L 372.104373 245.003706 
L 372.099048 245.336855 
L 372.385866 245.329521 
L 372.286447 245.179467 
L 372.559394 245.106083 
L 372.747716 244.443702 
L 372.627852 243.322012 
L 372.483455 243.14693 
L 372.485882 242.953809 
L 372.811741 242.687371 
L 372.811741 242.687371 
" clip-path="url(#p983dea114f)" style="fill: none; stroke: #2ca02c; stroke-opacity: 0.75; stroke-width: 2; stroke-linecap: square"/>
   </g>
   <g id="line2d_20">
    <path d="M 386.378991 171.852125 
L 386.303375 172.02136 
L 386.609263 172.170815 
L 386.969152 171.729042 
L 387.10586 171.365654 
L 387.323259 171.276857 
L 386.93221 170.88083 
L 386.984457 170.94191 
L 387.055919 170.898285 
L 388.782402 171.280968 
L 389.022148 171.062599 
L 389.414347 170.919305 
L 389.658155 171.180129 
L 390.67936 171.481356 
L 390.51792 171.899215 
L 390.223597 172.078698 
L 390.271504 172.09676 
L 390.278488 172.176154 
L 390.20686 172.092261 
L 389.733469 172.255603 
L 389.14599 172.065256 
L 389.108459 172.268615 
L 389.234771 172.341439 
L 389.015517 172.704375 
L 388.527656 173.044263 
L 388.111482 173.06493 
L 387.742859 173.245038 
L 387.844045 173.239654 
L 387.806553 173.384325 
L 387.435484 173.662653 
L 388.218075 175.034871 
L 389.114338 175.48895 
L 390.149149 175.770731 
L 390.076156 176.206667 
L 389.864101 176.637314 
L 389.893016 177.041612 
L 390.154202 177.16709 
L 390.0946 177.332868 
L 389.511919 177.627397 
L 388.537664 177.190832 
L 388.094737 177.091901 
L 387.710048 177.26471 
L 386.286327 177.010868 
L 386.131188 176.722137 
L 384.875092 176.042528 
L 383.982645 175.913584 
L 382.562074 175.883221 
L 381.271865 175.703423 
L 380.376808 175.943121 
L 376.218166 175.881162 
L 375.407377 176.11478 
L 372.789249 176.152613 
L 371.939529 176.465356 
L 371.460518 176.638331 
L 370.396217 177.313111 
L 369.948079 177.210906 
L 369.604129 177.305952 
L 368.883519 177.193906 
L 367.110559 177.75525 
L 367.243095 177.95377 
L 367.158074 177.975439 
L 366.911662 178.017631 
L 365.902664 177.886372 
L 365.207808 178.069151 
L 363.857361 177.865042 
L 362.012687 177.645161 
L 361.463206 177.730393 
L 359.950763 178.373998 
L 359.429947 178.53666 
L 358.899252 178.479535 
L 358.86442 178.627017 
L 358.630234 178.619902 
L 358.841103 178.780372 
L 358.757639 178.954657 
L 358.653074 178.899289 
L 359.012342 179.060747 
L 359.432044 179.758224 
L 359.461032 180.127531 
L 359.291901 180.204537 
L 359.169665 180.418377 
L 357.137146 181.179091 
L 356.281775 181.296036 
L 355.421016 181.746988 
L 354.921825 181.594416 
L 354.572493 181.28848 
L 354.344008 180.843759 
L 353.969244 180.997141 
L 353.56856 181.312313 
L 353.489322 182.116221 
L 353.362103 182.553845 
L 353.545914 182.681701 
L 353.513157 182.864459 
L 353.368858 182.916476 
L 353.530649 182.911562 
L 353.563664 183.002887 
L 353.783795 183.139719 
L 353.930705 183.070688 
L 353.827001 182.96091 
L 353.9412 182.872876 
L 354.787177 182.584715 
L 355.306419 182.60349 
L 356.129938 182.945456 
L 357.28578 183.688924 
L 357.167387 184.053209 
L 357.51126 185.111627 
L 357.423401 185.134124 
L 357.326711 185.253025 
L 356.749303 185.42456 
L 355.764729 185.644623 
L 355.54662 186.118972 
L 353.756835 187.564199 
L 352.9146 187.887504 
L 352.498041 187.708501 
L 351.526883 188.127074 
L 351.379416 188.225386 
L 351.351517 188.158911 
L 351.772311 187.942713 
L 351.630851 187.964419 
L 351.309667 187.889932 
L 351.16022 188.013824 
L 350.7015 187.749016 
L 350.24398 187.443907 
L 349.802313 187.265413 
L 348.933783 187.176879 
L 347.968165 186.919611 
L 347.752295 186.687483 
L 346.490929 186.344009 
L 345.424997 186.183691 
L 344.855938 185.954562 
L 344.326493 185.63466 
L 343.6667 185.081927 
L 343.807995 184.39263 
L 344.01185 184.621058 
L 344.360899 185.135363 
L 344.414956 185.050067 
L 343.951549 185.049833 
L 344.090956 185.224043 
L 344.571118 185.385024 
L 344.59872 184.883328 
L 344.86444 184.868316 
L 344.788015 184.728325 
L 344.228202 185.013584 
L 343.590333 184.907447 
L 343.751576 184.918289 
L 343.578169 184.840885 
L 343.425749 185.049107 
L 343.006923 186.120214 
L 343.12136 186.296268 
L 343.154749 186.745175 
L 343.911103 187.516797 
L 344.021143 187.785727 
L 344.373053 188.193764 
L 344.485568 188.574085 
L 345.494724 188.987189 
L 346.1211 188.985924 
L 347.085741 188.667427 
L 348.167884 187.424363 
L 348.419261 187.383444 
L 348.576697 187.24252 
L 348.856239 187.266495 
L 349.733768 186.784389 
L 349.886651 186.936302 
L 350.29256 186.812172 
L 350.882051 186.754423 
L 352.414384 186.953796 
L 354.166494 187.281075 
L 355.627977 187.826398 
L 355.472479 188.573183 
L 355.86659 188.872799 
L 357.006903 189.140862 
L 357.747133 189.717848 
L 358.555498 189.841363 
L 358.863104 190.489265 
L 359.347024 190.655877 
L 359.964814 191.04293 
L 361.003838 191.494658 
L 362.053354 191.819116 
L 364.256828 191.698047 
L 364.846071 191.417776 
L 366.694494 191.496574 
L 367.072007 191.68316 
L 367.311455 191.646101 
L 367.591236 191.988976 
L 367.65253 192.130629 
L 367.419928 192.535213 
L 366.493783 193.42529 
L 366.244061 193.904389 
L 366.262086 194.431495 
L 366.940646 194.895974 
L 367.674986 195.182157 
L 368.022518 195.527636 
L 368.583388 195.803807 
L 368.633096 195.997411 
L 368.988167 196.279863 
L 368.940985 196.851572 
L 368.595881 197.526888 
L 368.788703 198.046242 
L 368.571189 198.24755 
L 368.545746 198.569942 
L 368.281314 198.868777 
L 368.646158 199.363729 
L 368.482308 199.651591 
L 367.16583 200.848513 
L 367.134572 201.343584 
L 366.84467 201.755564 
L 366.752098 202.205845 
L 366.439001 202.465 
L 366.73121 202.954525 
L 367.007978 203.441722 
L 367.05838 204.08442 
L 367.24688 204.664989 
L 367.227511 205.45678 
L 366.787323 205.879414 
L 366.609321 206.431986 
L 366.932299 207.605134 
L 367.365788 207.996123 
L 367.414634 208.298828 
L 367.757895 209.073263 
L 367.649977 210.152224 
L 367.082993 210.436665 
L 367.258264 210.474886 
L 367.280305 210.618418 
L 367.605339 210.954597 
L 367.974593 211.16565 
L 367.78581 211.584477 
L 367.946353 212.220919 
L 367.537168 213.104641 
L 367.479071 213.644168 
L 366.886421 213.632469 
L 366.714626 213.754966 
L 365.125159 214.426651 
L 365.066032 214.709117 
L 365.2695 214.929691 
L 365.332471 214.723684 
L 364.930211 214.469904 
L 364.953502 214.153974 
L 365.074358 214.04514 
L 364.911012 214.051727 
L 364.351012 213.935826 
L 363.856796 214.084539 
L 363.735593 214.546853 
L 363.477086 214.77506 
L 363.412218 215.187637 
L 361.928841 216.332899 
L 360.580266 216.756233 
L 359.408612 216.615035 
L 358.877573 216.520817 
L 358.136464 216.616 
L 357.351534 216.553371 
L 357.066747 216.214912 
L 356.983604 216.370278 
L 356.439478 216.055057 
L 355.893481 216.056784 
L 355.72467 215.946704 
L 355.613268 215.537269 
L 354.680755 215.193517 
L 354.362972 215.223159 
L 354.873212 215.580613 
L 354.749927 215.789269 
L 354.362194 215.829187 
L 354.11466 215.609182 
L 353.590745 215.520248 
L 353.342694 216.121583 
L 352.448283 216.406589 
L 351.918888 216.447231 
L 351.548854 216.591099 
L 350.913159 216.714355 
L 350.208381 217.046627 
L 350.0073 216.797548 
L 349.568738 216.668732 
L 348.779597 216.588008 
L 347.987573 216.663944 
L 347.665599 216.507241 
L 345.908652 216.935527 
L 344.962564 217.334857 
L 344.626632 217.806155 
L 340.933002 218.05107 
L 339.458338 218.589214 
L 338.719231 219.155896 
L 338.643177 219.387586 
L 337.817527 219.475381 
L 337.072103 219.636256 
L 336.69529 219.841614 
L 335.796858 220.687009 
L 334.171362 221.353698 
L 331.895109 221.617371 
L 331.187129 221.77485 
L 329.356434 221.924365 
L 329.123166 221.723954 
L 327.940349 221.587354 
L 325.071402 222.063986 
L 324.493302 222.449805 
L 321.826715 223.019037 
L 321.093783 223.154027 
L 320.556161 223.07978 
L 320.188521 222.690348 
L 319.546475 222.658233 
L 318.481219 222.320036 
L 317.143195 222.379586 
L 315.690768 222.658648 
L 315.339925 223.093722 
L 314.966949 224.857925 
L 314.49346 225.116564 
L 313.931676 225.717073 
L 313.431022 226.186047 
L 313.044493 226.900243 
L 312.4856 226.998275 
L 312.215397 226.726195 
L 311.673272 226.630314 
L 311.496393 226.405198 
L 311.648615 226.276037 
L 311.15766 226.215308 
L 310.339425 225.838627 
L 309.90958 225.747006 
L 308.706071 225.10077 
L 308.935638 225.002225 
L 308.685003 224.772625 
L 308.740216 224.464792 
L 309.181176 224.25993 
L 309.015824 224.216662 
L 308.874588 223.987962 
L 308.011973 223.22958 
L 307.586665 223.068422 
L 307.435623 222.778929 
L 307.021927 223.003643 
L 306.768255 222.870539 
L 307.022426 222.856329 
L 306.926 222.9098 
L 306.652486 223.01423 
L 306.631131 223.16457 
L 306.348531 223.250071 
L 305.857738 223.725364 
L 305.414796 223.685062 
L 305.985405 223.689876 
L 305.620721 223.437189 
L 305.938603 223.430276 
L 307.139228 223.699989 
L 307.650982 223.680035 
L 307.682197 224.078818 
L 307.365761 224.109793 
L 307.047565 224.388141 
L 306.587015 224.588753 
L 306.019798 225.087704 
L 305.524336 225.354997 
L 303.969047 225.492842 
L 303.654383 225.719134 
L 302.720894 225.754856 
L 302.231787 225.972805 
L 302.225478 226.361259 
L 301.810533 226.69231 
L 301.375297 226.647091 
L 301.320495 226.510251 
L 300.637864 226.241883 
L 300.322846 226.307222 
L 299.915948 226.636799 
L 298.57477 226.82606 
L 298.262224 227.214132 
L 296.85771 227.964335 
L 296.406987 228.090649 
L 296.44089 228.371644 
L 296.176893 228.656564 
L 295.671252 228.966062 
L 294.711697 229.069268 
L 294.063537 228.863047 
L 293.669288 228.981416 
L 293.398481 228.783169 
L 291.694461 228.35756 
L 291.571193 228.144591 
L 290.825398 227.840603 
L 290.215272 227.421429 
L 289.793737 227.182888 
L 289.667173 227.016605 
L 289.32029 226.87786 
L 289.066869 226.928446 
L 288.861612 226.834807 
L 288.438729 226.987055 
L 288.51151 227.503407 
L 288.007627 227.910976 
L 287.185151 228.205685 
L 286.386775 228.611718 
L 284.441251 229.402134 
L 282.514946 230.505795 
L 281.969485 230.952779 
L 280.790138 231.419681 
L 280.094482 231.899171 
L 279.522433 232.503027 
L 278.358185 233.126399 
L 278.076009 234.077919 
L 277.496541 234.208301 
L 277.023858 234.482455 
L 274.274356 235.283903 
L 273.388946 235.30283 
L 271.692543 235.937028 
L 270.850159 236.229922 
L 269.854888 236.325413 
L 268.093855 236.167911 
L 264.311341 236.013787 
L 263.493224 236.145189 
L 261.64848 236.538917 
L 261.207182 236.582934 
L 258.791513 237.183919 
L 256.507549 236.96851 
L 255.739948 237.02645 
L 255.01752 237.24963 
L 254.429947 237.798619 
L 253.690587 238.128294 
L 252.955862 238.100989 
L 252.540143 238.512876 
L 251.923226 238.892996 
L 250.785128 239.38636 
L 250.15295 240.060218 
L 246.948775 240.665479 
L 246.368606 240.848275 
L 242.349599 240.944503 
L 240.201353 240.874242 
L 239.516998 240.894748 
L 239.118678 240.78212 
L 237.898422 240.678239 
L 236.031056 240.443366 
L 233.925874 240.381051 
L 233.121883 240.696083 
L 232.632375 240.564715 
L 231.242661 239.950294 
L 230.800863 239.779107 
L 230.018079 239.863005 
L 229.72665 240.021502 
L 229.222777 240.044115 
L 228.71842 240.356332 
L 227.983274 240.63665 
L 225.259371 241.083713 
L 224.311233 241.408048 
L 222.192498 241.879566 
L 220.861268 241.664786 
L 219.975821 241.394578 
L 218.751569 241.142415 
L 217.669342 241.215649 
L 216.494924 241.642042 
L 215.118797 242.027541 
L 214.749518 242.429588 
L 214.611156 243.263329 
L 213.814059 244.04192 
L 213.345347 244.231205 
L 211.532588 244.499148 
L 210.872468 244.606621 
L 209.613873 244.379737 
L 208.855121 244.688345 
L 208.200077 245.174796 
L 207.343553 245.585432 
L 206.386355 245.862248 
L 205.614484 246.236736 
L 205.102995 246.85424 
L 204.220449 247.194334 
L 203.879006 247.585718 
L 203.864746 247.821375 
L 203.734681 248.11031 
L 199.973693 248.304801 
L 199.050346 248.289426 
L 197.858351 247.885253 
L 197.176665 247.676279 
L 196.770513 247.403188 
L 196.471678 247.520513 
L 195.973299 247.412546 
L 195.400921 247.467275 
L 195.33753 247.751992 
L 195.429204 248.033645 
L 194.944342 248.253301 
L 192.941825 249.094828 
L 192.600143 249.295939 
L 190.945595 250.663954 
L 190.72109 250.669501 
L 190.347738 250.372269 
L 189.740723 250.309847 
L 189.025371 250.587382 
L 187.198019 251.907317 
L 185.844683 252.965066 
L 185.73919 253.522859 
L 185.531679 253.817883 
L 185.093571 254.055563 
L 184.701952 254.611924 
L 183.633208 255.213098 
L 182.148485 255.284863 
L 180.410433 255.011607 
L 179.468991 254.953891 
L 178.299374 255.13808 
L 177.662627 255.031245 
L 176.34728 255.166388 
L 175.91225 254.936854 
L 174.928713 255.321136 
L 173.854244 255.024096 
L 172.361568 255.060241 
L 171.981644 254.96441 
L 168.781497 253.577499 
L 167.637015 252.762306 
L 167.09992 252.148592 
L 166.739998 251.965457 
L 166.163325 251.841455 
L 164.91808 251.844761 
L 164.3953 251.607768 
L 163.042342 251.302974 
L 162.394075 251.351129 
L 162.102446 251.51681 
L 161.725417 251.490035 
L 160.723923 251.006603 
L 159.766458 250.920752 
L 159.006002 250.887502 
L 158.878316 250.776159 
L 158.718977 250.850445 
L 158.004541 251.047474 
L 156.729951 250.984593 
L 154.784677 250.569549 
L 153.944598 250.633153 
L 150.156511 250.126629 
L 148.060946 249.744546 
L 147.470587 249.375955 
L 146.105083 249.186779 
L 146.032224 248.970815 
L 146.13299 248.629039 
L 146.440575 248.137317 
L 146.495862 247.541069 
L 144.560888 246.646951 
L 144.51065 246.164122 
L 144.715329 245.863672 
L 145.014761 245.804819 
L 146.004523 245.078247 
L 147.278971 244.954687 
L 147.500049 245.167961 
L 147.782362 245.117852 
L 148.074485 244.864362 
L 147.457521 244.619911 
L 147.484107 244.457089 
L 147.638301 244.605218 
L 147.398307 244.700626 
L 146.867886 244.754614 
L 145.86014 244.391669 
L 145.550269 243.948801 
L 145.495592 243.790741 
L 144.853534 243.313937 
L 145.34471 243.222 
L 145.514707 243.289602 
L 145.474329 243.16104 
L 145.509868 243.037265 
L 145.178526 242.714828 
L 144.479688 242.542077 
L 143.864312 242.419706 
L 141.583781 242.452205 
L 140.796141 242.335519 
L 139.695755 242.455318 
L 137.490422 243.230541 
L 135.652859 243.340878 
L 134.896691 243.843013 
L 134.167468 244.029971 
L 133.865784 244.60263 
L 133.034341 244.667166 
L 132.319934 244.45419 
L 132.004124 244.08089 
L 130.849049 243.960874 
L 130.166936 244.120246 
L 128.656966 244.030961 
L 127.203626 244.385371 
L 126.490616 244.74548 
L 126.288374 244.951261 
L 126.266799 245.205297 
L 125.100765 245.42282 
L 125.155292 245.130306 
L 124.699001 245.263566 
L 124.161564 245.033719 
L 123.35372 245.290506 
L 123.227161 245.356175 
L 122.788001 245.552143 
L 123.005565 245.704912 
L 122.638836 245.759485 
L 122.42625 245.599073 
L 122.619318 245.584713 
L 123.084655 245.843537 
L 123.24254 245.572527 
L 123.748676 245.652424 
L 123.748676 245.652424 
" clip-path="url(#p983dea114f)" style="fill: none; stroke: #d62728; stroke-opacity: 0.75; stroke-width: 2; stroke-linecap: square"/>
   </g>
   <g id="line2d_21">
    <path d="M 386.378991 171.852125 
L 385.875051 171.678436 
L 385.916596 171.57596 
L 385.91746 171.464543 
L 386.229362 171.286054 
L 386.265488 171.101106 
L 386.644284 170.8297 
L 386.933341 170.236047 
L 387.095456 170.136413 
L 387.379316 170.101094 
L 387.42259 169.777561 
L 387.653069 169.80257 
L 387.619555 169.633909 
L 387.675257 169.804623 
L 387.443074 169.873502 
L 387.657998 169.818284 
L 387.407762 169.498585 
L 387.000564 169.180136 
L 386.262105 169.182398 
L 385.695344 169.056216 
L 385.288882 169.31971 
L 385.096847 169.061837 
L 385.251422 169.075037 
L 385.311422 168.959729 
L 384.110753 168.651722 
L 383.884532 168.668432 
L 383.083835 168.461815 
L 383.152739 168.456761 
L 382.787167 168.599291 
L 382.107165 169.104434 
L 381.063405 169.473721 
L 380.656618 169.666654 
L 380.173433 170.13275 
L 379.504781 170.524339 
L 379.487071 170.727045 
L 379.000079 170.743659 
L 378.585967 171.11865 
L 378.278135 171.665706 
L 378.338668 171.765206 
L 378.987015 171.613611 
L 378.806823 171.616227 
L 378.517749 171.493949 
L 378.492108 171.95207 
L 378.090441 172.124985 
L 378.070286 172.282873 
L 377.931829 172.394336 
L 377.314614 172.206311 
L 376.996641 172.150184 
L 376.565821 172.247129 
L 376.683294 172.474416 
L 376.311854 172.592406 
L 376.220507 172.891238 
L 375.9974 172.905366 
L 375.627763 173.1627 
L 375.521189 173.558848 
L 375.568697 174.099098 
L 375.818436 174.776215 
L 376.839148 175.981797 
L 377.482504 175.961563 
L 377.916828 175.836139 
L 378.004258 175.966712 
L 378.37207 176.101561 
L 378.698031 176.440738 
L 378.75922 177.040496 
L 378.833834 177.301645 
L 378.632561 178.413349 
L 378.31833 178.310919 
L 378.213887 178.464168 
L 378.772204 178.86239 
L 380.127965 180.355425 
L 380.250378 181.268735 
L 380.786718 182.002127 
L 380.952335 182.385457 
L 380.846128 183.387479 
L 380.963288 183.936981 
L 380.808875 184.672397 
L 380.805538 185.318632 
L 380.730499 186.390811 
L 380.498216 186.534952 
L 379.523991 186.683348 
L 380.033948 186.670115 
L 381.019005 187.086436 
L 381.433315 187.852215 
L 382.14944 187.935763 
L 382.25495 188.619436 
L 382.274548 189.079677 
L 382.620911 189.725777 
L 382.89461 189.957247 
L 384.082924 190.48322 
L 384.480682 190.800559 
L 384.533862 191.255813 
L 384.782192 191.118107 
L 383.657734 190.942257 
L 383.801632 190.781826 
L 383.299352 190.697759 
L 382.986017 190.527074 
L 383.065387 190.225177 
L 382.639779 190.078892 
L 382.408657 189.426958 
L 382.283611 189.370022 
L 382.175586 189.463099 
L 381.927869 189.312962 
L 380.979715 189.043305 
L 380.891104 188.180066 
L 380.989522 187.887014 
L 380.932355 187.55642 
L 381.212954 187.330098 
L 381.081494 187.358026 
L 381.012366 187.340943 
L 381.016707 187.127309 
L 380.449928 186.576231 
L 380.547515 186.688553 
L 380.697403 186.584446 
L 380.539601 186.561777 
L 380.168146 186.44456 
L 379.68785 186.948272 
L 379.747138 186.97147 
L 379.919027 186.971169 
L 379.990568 187.312809 
L 380.47118 187.827854 
L 381.475836 188.215009 
L 381.977985 188.405188 
L 382.168911 188.192269 
L 382.450755 188.285942 
L 382.493861 188.441333 
L 382.661411 188.448148 
L 383.364825 188.993481 
L 383.57538 189.333458 
L 383.446962 189.712535 
L 383.614444 190.301163 
L 383.752773 191.283119 
L 384.008995 191.485815 
L 384.009427 192.001985 
L 383.743024 192.45499 
L 382.652671 192.644866 
L 381.88354 193.037693 
L 381.630087 192.945672 
L 381.529621 192.693892 
L 381.258075 192.648816 
L 381.384068 192.476432 
L 381.090534 192.356337 
L 381.922646 192.140824 
L 381.899947 191.93925 
L 382.070931 191.892831 
L 382.337266 191.688993 
L 382.108727 190.992312 
L 382.187094 190.701351 
L 381.91328 190.426476 
L 382.080622 190.479693 
L 381.84526 190.55296 
L 381.261482 190.257129 
L 381.044541 189.980001 
L 379.932504 189.328198 
L 379.751599 189.369386 
L 379.305294 189.329097 
L 378.483505 189.443283 
L 378.438701 189.144862 
L 378.263512 189.088147 
L 378.317361 188.734839 
L 377.761546 188.340342 
L 377.409367 187.518808 
L 377.461829 187.152613 
L 377.725339 187.156091 
L 376.988039 187.155762 
L 377.217807 187.118944 
L 377.68362 186.610458 
L 377.94709 186.414898 
L 378.425862 185.433066 
L 379.451788 185.00491 
L 380.702492 184.245483 
L 381.584323 184.017731 
L 382.120842 183.682192 
L 382.892209 183.056868 
L 383.140692 182.264604 
L 383.805827 181.168933 
L 384.369077 180.556745 
L 384.683404 180.028181 
L 384.557392 179.818994 
L 384.456927 179.326147 
L 384.132033 178.831577 
L 384.68215 177.735775 
L 386.240946 176.411387 
L 386.24327 175.990403 
L 386.460113 175.549151 
L 386.750649 173.565732 
L 386.636036 173.269067 
L 385.948443 172.119146 
L 385.985385 171.586501 
L 385.601793 171.449149 
L 384.852535 171.098863 
L 384.854196 170.713077 
L 384.314029 170.177239 
L 383.310541 169.924949 
L 383.015761 168.948938 
L 383.103884 168.611252 
L 383.032684 167.308109 
L 383.252318 166.850547 
L 383.39318 166.250118 
L 383.568432 165.996635 
L 383.335414 165.394649 
L 383.582514 165.35699 
L 383.330694 165.191939 
L 382.364104 164.874828 
L 381.630678 164.397179 
L 381.40547 163.901721 
L 381.61836 163.697246 
L 381.543158 163.577519 
L 381.920611 163.493807 
L 382.09595 163.306911 
L 382.013751 162.291604 
L 382.088964 162.052625 
L 382.563144 161.406475 
L 382.563259 161.208903 
L 382.805207 161.080599 
L 383.070473 160.92078 
L 382.792605 160.419302 
L 382.795622 159.537395 
L 382.5895 159.35783 
L 382.611805 158.935127 
L 382.391339 158.649278 
L 382.131955 157.628455 
L 382.377708 157.458398 
L 382.827388 157.434324 
L 382.646121 157.049095 
L 382.409709 157.035777 
L 382.286978 156.969762 
L 382.360498 156.748749 
L 382.215324 156.501741 
L 382.32286 156.329727 
L 382.092437 155.410885 
L 382.215819 155.050495 
L 381.996729 154.331586 
L 382.160944 153.870017 
L 381.966244 153.417569 
L 382.512897 152.621295 
L 382.433165 151.753844 
L 382.457688 151.133202 
L 383.230748 149.914677 
L 383.594997 149.528859 
L 382.374451 148.224444 
L 381.935112 147.513831 
L 381.579409 147.45918 
L 381.061031 146.839853 
L 380.343573 146.467894 
L 380.258441 146.22937 
L 379.954554 146.104117 
L 380.034524 146.013767 
L 380.927732 145.583176 
L 380.929244 145.615228 
L 380.902036 145.132575 
L 381.211384 145.038051 
L 381.672619 145.028781 
L 382.245783 144.865792 
L 382.683223 143.659215 
L 382.88597 142.959367 
L 383.149931 142.522944 
L 383.027786 141.452412 
L 383.236737 140.869139 
L 383.184125 140.530313 
L 382.923499 140.100407 
L 382.947235 139.752427 
L 382.165248 138.908818 
L 381.770871 138.620713 
L 381.52009 138.011496 
L 381.518948 137.739658 
L 381.330189 137.462179 
L 381.486051 137.08726 
L 381.374552 136.678094 
L 381.561823 136.226831 
L 381.725196 135.290381 
L 382.060896 134.803785 
L 382.436286 134.294164 
L 382.669098 133.586446 
L 383.059566 133.308706 
L 383.062571 132.951751 
L 382.93783 132.465905 
L 383.185787 132.35542 
L 383.207872 131.371037 
L 382.609907 130.673636 
L 382.087608 130.39651 
L 381.714253 130.358992 
L 381.338768 130.030776 
L 381.256011 129.726002 
L 380.811389 129.674135 
L 380.742711 130.042982 
L 381.105208 129.986412 
L 380.941832 130.318461 
L 380.875121 130.556805 
L 380.944292 131.10465 
L 380.252789 131.713906 
L 380.147608 131.676423 
L 379.848243 132.146351 
L 379.848506 132.466265 
L 379.641682 132.69037 
L 379.540717 133.019515 
L 379.9004 133.409547 
L 380.009821 133.893563 
L 379.592834 134.315059 
L 379.430817 135.185456 
L 378.526485 135.960574 
L 378.2646 136.510099 
L 378.231567 137.346884 
L 377.916239 137.535775 
L 377.045286 138.968933 
L 376.864945 139.189805 
L 376.800442 139.506444 
L 376.546062 139.981169 
L 376.62058 140.21627 
L 376.927416 140.622029 
L 377.100542 141.408123 
L 377.287695 141.513441 
L 377.507223 142.59918 
L 377.554514 142.982426 
L 376.364978 143.689471 
L 375.332631 144.648863 
L 374.878774 144.720341 
L 374.774171 144.871833 
L 374.268159 145.34719 
L 373.752143 145.54337 
L 373.464671 145.843153 
L 373.079923 146.007422 
L 373.172426 145.842962 
L 373.358561 145.697629 
L 373.619167 145.734014 
L 373.631219 145.615174 
L 373.470495 145.28691 
L 373.715515 145.448257 
L 374.045833 145.987277 
L 374.611863 146.494134 
L 375.166892 146.739411 
L 375.701978 146.741694 
L 376.43759 147.100264 
L 377.089005 147.046048 
L 377.634912 147.065536 
L 378.219135 147.490058 
L 378.411347 147.375843 
L 378.977242 147.747053 
L 379.296002 148.001007 
L 379.447476 148.597278 
L 379.281787 149.029581 
L 378.955137 149.439141 
L 378.958887 149.873462 
L 379.33685 150.384838 
L 380.049035 151.8544 
L 380.656843 152.749202 
L 380.159273 153.122537 
L 380.661401 154.560002 
L 380.805391 155.065456 
L 380.976255 156.263344 
L 381.186937 156.649847 
L 381.021928 157.794169 
L 381.089327 158.561372 
L 381.479283 159.815254 
L 381.655122 161.319295 
L 381.629827 162.323903 
L 381.868649 162.92375 
L 381.619169 163.39544 
L 381.48553 164.163961 
L 381.195743 164.576023 
L 381.232669 165.143348 
L 381.660091 166.170761 
L 381.400644 166.916661 
L 381.404785 167.477078 
L 380.903889 168.709001 
L 379.928914 169.567009 
L 379.368805 169.6027 
L 377.989043 170.399251 
L 377.671918 170.927017 
L 377.623347 171.436941 
L 377.375303 171.536399 
L 377.484341 172.282634 
L 376.279255 174.403181 
L 376.359655 174.80564 
L 375.848798 174.858317 
L 374.513303 176.104578 
L 374.524034 176.544959 
L 374.7455 177.259261 
L 375.19124 177.885238 
L 375.368513 178.408207 
L 375.662205 178.734882 
L 376.01341 179.005824 
L 376.189985 179.464362 
L 377.210719 180.194522 
L 377.298991 180.597756 
L 377.524345 181.019154 
L 378.483903 182.028193 
L 379.368361 182.18465 
L 378.537088 182.551915 
L 378.469537 183.188802 
L 378.058781 183.467361 
L 377.455079 183.386577 
L 376.466498 183.415631 
L 376.187993 183.686538 
L 376.299269 183.952647 
L 376.253944 184.323763 
L 375.311702 185.468342 
L 374.913775 186.307688 
L 374.901808 186.69278 
L 374.040038 187.707575 
L 374.050933 188.318003 
L 373.924516 188.575507 
L 374.012522 188.748209 
L 373.904056 188.731746 
L 373.769733 188.710427 
L 373.1037 189.308897 
L 373.218137 189.29697 
L 374.055241 189.424449 
L 374.381974 188.980342 
L 374.359699 189.178556 
L 374.448094 189.108617 
L 374.723867 189.016684 
L 374.495243 188.93344 
L 374.978209 188.610816 
L 375.033577 188.294371 
L 375.367032 188.016977 
L 375.273358 188.249773 
L 375.184349 188.39733 
L 374.800876 188.298748 
L 374.953573 188.193609 
L 375.55175 188.158146 
L 376.638438 186.976998 
L 376.750781 186.523371 
L 376.458899 186.274634 
L 376.590567 185.873267 
L 376.310062 185.329929 
L 375.804014 185.157257 
L 375.474216 184.474507 
L 375.234285 184.414036 
L 375.126097 184.040589 
L 376.417518 183.396077 
L 376.820999 182.892873 
L 377.450663 182.787385 
L 377.54097 182.898927 
L 377.74581 183.403671 
L 377.418928 182.109706 
L 377.493178 182.022008 
L 377.205933 182.147779 
L 377.056354 182.073221 
L 376.972035 182.203154 
L 376.376856 182.383239 
L 374.383219 182.418172 
L 373.169717 182.393315 
L 373.048829 182.168058 
L 372.5981 181.866282 
L 371.242699 181.78156 
L 370.111934 181.827611 
L 368.748275 181.5264 
L 368.60429 181.351573 
L 367.610481 180.89715 
L 367.678423 180.739978 
L 367.335251 180.503169 
L 366.440398 180.565338 
L 366.407805 180.813631 
L 366.155418 180.734767 
L 366.289121 180.663638 
L 365.26504 181.135905 
L 364.247578 181.038512 
L 363.82223 181.122339 
L 363.353521 180.953911 
L 362.670178 180.84701 
L 361.658942 180.862724 
L 360.590828 181.598425 
L 359.589834 181.536001 
L 359.221859 181.55279 
L 358.287656 181.082448 
L 357.880029 181.035355 
L 357.497597 181.117928 
L 356.915739 180.937323 
L 355.82724 181.065916 
L 354.330043 180.740245 
L 353.52296 180.107892 
L 353.07882 179.898389 
L 352.574008 179.464793 
L 351.894633 179.219616 
L 350.738881 178.645825 
L 350.216845 178.593717 
L 349.351761 178.222165 
L 348.590868 177.342683 
L 347.642643 176.722166 
L 346.245766 175.041022 
L 345.388899 174.667662 
L 345.345565 174.385432 
L 345.510224 174.376341 
L 345.467351 174.495798 
L 345.340817 174.282273 
L 344.972486 173.884761 
L 344.892912 173.175887 
L 344.883881 172.892855 
L 344.277909 172.689817 
L 344.277513 172.782724 
L 343.596522 172.567109 
L 343.521494 172.408102 
L 343.541023 172.060344 
L 343.230948 171.922418 
L 343.790459 172.246159 
L 344.377715 172.016761 
L 344.705234 171.864723 
L 345.065198 171.530036 
L 344.992652 171.769757 
L 345.198124 171.896929 
L 345.579428 171.860887 
L 345.909613 172.488917 
L 346.274735 172.674247 
L 347.09697 172.406657 
L 346.991565 172.912114 
L 347.129922 173.113593 
L 346.96383 173.349719 
L 347.487831 173.62694 
L 347.846021 173.545617 
L 347.941722 173.667306 
L 348.530104 173.694826 
L 348.353578 173.790473 
L 348.53724 173.863821 
L 348.535572 174.14591 
L 348.865749 174.153962 
L 348.960894 173.88342 
L 348.674181 173.356214 
L 348.841744 173.117848 
L 348.823217 172.548904 
L 349.045698 172.538304 
L 347.992459 172.623851 
L 347.455619 172.744932 
L 347.310585 172.93014 
L 346.975891 173.109667 
L 346.644867 172.940008 
L 346.666355 172.387769 
L 346.397979 172.25269 
L 345.717576 172.053685 
L 344.888889 171.63647 
L 344.997084 171.274456 
L 344.33799 170.26237 
L 344.068062 169.933724 
L 343.509574 169.982708 
L 342.878921 170.444685 
L 342.616309 170.703301 
L 342.305976 170.340876 
L 342.210976 169.793394 
L 342.407809 169.07918 
L 342.281595 168.133476 
L 342.149042 167.531995 
L 342.297909 167.161009 
L 342.73692 166.749487 
L 342.831617 166.38164 
L 342.789665 165.804313 
L 342.865628 165.130188 
L 343.127518 164.822421 
L 343.19395 164.368642 
L 343.417004 164.022324 
L 342.764627 163.178925 
L 342.471421 163.009525 
L 342.176256 162.546496 
L 341.274384 161.840119 
L 341.235614 161.260357 
L 341.527541 160.854174 
L 341.390728 160.63537 
L 342.122525 160.419226 
L 343.275041 159.891838 
L 343.78408 159.338468 
L 344.033662 159.127099 
L 344.853956 157.515185 
L 345.146289 157.513234 
L 345.328486 157.322008 
L 345.258957 157.158312 
L 345.521044 156.201856 
L 346.317797 156.322994 
L 346.466879 156.628884 
L 347.349982 156.841962 
L 347.46064 157.030477 
L 346.933783 157.866211 
L 347.059403 157.873155 
L 347.247547 157.860031 
L 347.509943 157.378677 
L 347.197309 157.073908 
L 347.188812 156.746947 
L 346.947624 156.482862 
L 346.823642 156.112129 
L 346.992242 155.819441 
L 346.963076 155.572788 
L 345.825084 154.727483 
L 345.768054 154.237494 
L 346.00575 154.088231 
L 345.622749 153.591735 
L 345.413078 153.518017 
L 345.724375 153.571294 
L 346.177095 153.37887 
L 346.097099 153.52648 
L 345.651708 153.331548 
L 345.026873 153.611215 
L 343.816219 153.153188 
L 342.699764 153.050372 
L 341.978389 152.820629 
L 341.200037 152.265377 
L 341.116406 151.827009 
L 340.741886 151.545118 
L 339.818929 151.685079 
L 338.429565 151.261266 
L 337.289786 150.794263 
L 335.317634 150.35979 
L 335.468593 150.318916 
L 335.740233 150.280831 
L 335.742381 150.1011 
L 335.701155 150.164449 
L 336.071553 149.941395 
L 334.033195 148.412454 
L 333.714168 148.199663 
L 333.857823 147.769353 
L 333.801391 147.408402 
L 334.049979 146.033085 
L 333.694875 145.827639 
L 333.67378 145.558042 
L 333.338225 144.660076 
L 332.795119 144.257671 
L 332.760423 143.881426 
L 332.760423 143.881426 
" clip-path="url(#p983dea114f)" style="fill: none; stroke: #9467bd; stroke-opacity: 0.75; stroke-width: 2; stroke-linecap: square"/>
   </g>
   <g id="patch_3">
    <path d="M 107.5475 266.245 
L 107.5475 25.92 
" style="fill: none; stroke: #000000; stroke-width: 0.8; stroke-linejoin: miter; stroke-linecap: square"/>
   </g>
   <g id="patch_4">
    <path d="M 434.88 266.245 
L 434.88 25.92 
" style="fill: none; stroke: #000000; stroke-width: 0.8; stroke-linejoin: miter; stroke-linecap: square"/>
   </g>
   <g id="patch_5">
    <path d="M 107.5475 266.245 
L 434.88 266.245 
" style="fill: none; stroke: #000000; stroke-width: 0.8; stroke-linejoin: miter; stroke-linecap: square"/>
   </g>
   <g id="patch_6">
    <path d="M 107.5475 25.92 
L 434.88 25.92 
" style="fill: none; stroke: #000000; stroke-width: 0.8; stroke-linejoin: miter; stroke-linecap: square"/>
   </g>
  </g>
 </g>
 <defs>
  <clipPath id="p983dea114f">
   <rect x="107.5475" y="25.92" width="327.3325" height="240.325"/>
  </clipPath>
 </defs>
</svg>
