<?xml version="1.0" encoding="utf-8" standalone="no"?>
<!DOCTYPE svg PUBLIC "-//W3C//DTD SVG 1.1//EN"
  "http://www.w3.org/Graphics/SVG/1.1/DTD/svg11.dtd">
<svg xmlns:xlink="http://www.w3.org/1999/xlink" width="460.8pt" height="345.6pt" viewBox="0 0 460.8 345.6" xmlns="http://www.w3.org/2000/svg" version="1.1">
 <metadata>
  <rdf:RDF xmlns:dc="http://purl.org/dc/elements/1.1/" xmlns:cc="http://creativecommons.org/ns#" xmlns:rdf="http://www.w3.org/1999/02/22-rdf-syntax-ns#">
   <cc:Work>
    <dc:type rdf:resource="http://purl.org/dc/dcmitype/StillImage"/>
    <dc:date>2026-02-02T15:34:11.911601</dc:date>
    <dc:format>image/svg+xml</dc:format>
    <dc:creator>
     <cc:Agent>
      <dc:title>Matplotlib v3.10.8, https://matplotlib.org/</dc:title>
     </cc:Agent>
    </dc:creator>
   </cc:Work>
  </rdf:RDF>
 </metadata>
 <defs>
  <style type="text/css">*{stroke-linejoin: round; stroke-linecap: butt}</style>
 </defs>
 <g id="figure_1">
  <g id="patch_1">
   <path d="M 0 345.6 
L 460.8 345.6 
L 460.8 0 
L 0 0 
z
" style="fill: #ffffff"/>
  </g>
  <g id="axes_1">
   <g id="patch_2">
    <path d="M 107.5475 266.245 
L 434.88 266.245 
L 434.88 25.92 
L 107.5475 25.92 
z
" style="fill: #ffffff"/>
   </g>
   <g id="matplotlib.axis_1">
    <g id="xtick_1">
     <g id="line2d_1">
      <path d="M 122.750897 266.245 
L 122.750897 25.92 
" clip-path="url(#p2b7555a53d)" style="fill: none; stroke: #b0b0b0; stroke-width: 0.8; stroke-linecap: square"/>
     </g>
     <g id="line2d_2">
      <defs>
       <path id="m8c6ec3ed3d" d="M 0 0 
L 0 3.5 
" style="stroke: #000000; stroke-width: 0.8"/>
      </defs>
      <g>
       <use xlink:href="#m8c6ec3ed3d" x="122.750897" y="266.245" style="stroke: #000000; stroke-width: 0.8"/>
      </g>
     </g>
     <g id="text_1">
      <!-- −400 -->
      <g transform="translate(97.982147 289.63625) scale(0.24 -0.24)">
       <defs>
        <path id="TeXGyreTermes-Regular-2212" d="M 3354 1389 
L 3354 1811 
L 256 1811 
L 256 1389 
L 3354 1389 
z
" transform="scale(0.015625)"/>
        <path id="TeXGyreTermes-Regular-34" d="M 3021 1069 
L 3021 1478 
L 2368 1478 
L 2368 4326 
L 2086 4326 
L 77 1478 
L 77 1069 
L 1875 1069 
L 1875 0 
L 2368 0 
L 2368 1069 
L 3021 1069 
z
M 1869 1478 
L 333 1478 
L 1869 3674 
L 1869 1478 
z
" transform="scale(0.015625)"/>
        <path id="TeXGyreTermes-Regular-30" d="M 3046 2112 
C 3046 3424 2464 4326 1626 4326 
C 1274 4326 1005 4218 768 3994 
C 397 3635 154 2899 154 2150 
C 154 1453 365 704 666 346 
C 902 64 1229 -90 1600 -90 
C 1926 -90 2202 19 2432 243 
C 2803 595 3046 1338 3046 2112 
z
M 2432 2099 
C 2432 762 2150 77 1600 77 
C 1050 77 768 762 768 2093 
C 768 3450 1056 4160 1606 4160 
C 2144 4160 2432 3437 2432 2099 
z
" transform="scale(0.015625)"/>
       </defs>
       <use xlink:href="#TeXGyreTermes-Regular-2212"/>
       <use xlink:href="#TeXGyreTermes-Regular-34" transform="translate(56.399994 0)"/>
       <use xlink:href="#TeXGyreTermes-Regular-30" transform="translate(106.399979 0)"/>
       <use xlink:href="#TeXGyreTermes-Regular-30" transform="translate(156.399963 0)"/>
      </g>
     </g>
    </g>
    <g id="xtick_2">
     <g id="line2d_3">
      <path d="M 215.503825 266.245 
L 215.503825 25.92 
" clip-path="url(#p2b7555a53d)" style="fill: none; stroke: #b0b0b0; stroke-width: 0.8; stroke-linecap: square"/>
     </g>
     <g id="line2d_4">
      <g>
       <use xlink:href="#m8c6ec3ed3d" x="215.503825" y="266.245" style="stroke: #000000; stroke-width: 0.8"/>
      </g>
     </g>
     <g id="text_2">
      <!-- −200 -->
      <g transform="translate(190.735075 289.63625) scale(0.24 -0.24)">
       <defs>
        <path id="TeXGyreTermes-Regular-32" d="M 3040 877 
L 2957 909 
C 2720 544 2637 486 2349 486 
L 819 486 
L 1894 1613 
C 2464 2208 2714 2694 2714 3194 
C 2714 3834 2195 4326 1530 4326 
C 1178 4326 845 4186 608 3930 
C 403 3712 307 3507 198 3053 
L 333 3021 
C 589 3648 819 3853 1261 3853 
C 1798 3853 2163 3488 2163 2950 
C 2163 2451 1869 1856 1331 1286 
L 192 77 
L 192 0 
L 2688 0 
L 3040 877 
z
" transform="scale(0.015625)"/>
       </defs>
       <use xlink:href="#TeXGyreTermes-Regular-2212"/>
       <use xlink:href="#TeXGyreTermes-Regular-32" transform="translate(56.399994 0)"/>
       <use xlink:href="#TeXGyreTermes-Regular-30" transform="translate(106.399979 0)"/>
       <use xlink:href="#TeXGyreTermes-Regular-30" transform="translate(156.399963 0)"/>
      </g>
     </g>
    </g>
    <g id="xtick_3">
     <g id="line2d_5">
      <path d="M 308.256753 266.245 
L 308.256753 25.92 
" clip-path="url(#p2b7555a53d)" style="fill: none; stroke: #b0b0b0; stroke-width: 0.8; stroke-linecap: square"/>
     </g>
     <g id="line2d_6">
      <g>
       <use xlink:href="#m8c6ec3ed3d" x="308.256753" y="266.245" style="stroke: #000000; stroke-width: 0.8"/>
      </g>
     </g>
     <g id="text_3">
      <!-- 0 -->
      <g transform="translate(302.256753 289.63625) scale(0.24 -0.24)">
       <use xlink:href="#TeXGyreTermes-Regular-30"/>
      </g>
     </g>
    </g>
    <g id="xtick_4">
     <g id="line2d_7">
      <path d="M 401.009682 266.245 
L 401.009682 25.92 
" clip-path="url(#p2b7555a53d)" style="fill: none; stroke: #b0b0b0; stroke-width: 0.8; stroke-linecap: square"/>
     </g>
     <g id="line2d_8">
      <g>
       <use xlink:href="#m8c6ec3ed3d" x="401.009682" y="266.245" style="stroke: #000000; stroke-width: 0.8"/>
      </g>
     </g>
     <g id="text_4">
      <!-- 200 -->
      <g transform="translate(383.009682 289.63625) scale(0.24 -0.24)">
       <use xlink:href="#TeXGyreTermes-Regular-32"/>
       <use xlink:href="#TeXGyreTermes-Regular-30" transform="translate(49.999985 0)"/>
       <use xlink:href="#TeXGyreTermes-Regular-30" transform="translate(99.999969 0)"/>
      </g>
     </g>
    </g>
    <g id="text_5">
     <!-- x -->
     <g transform="translate(265.21375 315.23625) scale(0.24 -0.24)">
      <defs>
       <path id="TeXGyreTermes-Regular-78" d="M 3066 0 
L 3066 96 
C 2867 96 2739 198 2541 480 
L 1722 1734 
L 2253 2502 
C 2374 2675 2566 2778 2771 2784 
L 2771 2880 
L 1760 2880 
L 1760 2784 
C 1952 2771 2016 2733 2016 2643 
C 2016 2566 1939 2426 1779 2227 
C 1747 2189 1670 2074 1587 1946 
L 1498 2074 
C 1318 2342 1203 2560 1203 2643 
C 1203 2733 1286 2778 1478 2784 
L 1478 2880 
L 154 2880 
L 154 2784 
L 211 2784 
C 403 2784 506 2701 704 2400 
L 1306 1478 
L 576 422 
C 384 160 320 115 109 96 
L 109 0 
L 1037 0 
L 1037 96 
C 858 96 781 128 781 211 
C 781 250 826 346 909 474 
L 1414 1261 
L 1997 365 
C 2022 326 2035 288 2035 250 
C 2035 134 1990 109 1779 96 
L 1779 0 
L 3066 0 
z
" transform="scale(0.015625)"/>
      </defs>
      <use xlink:href="#TeXGyreTermes-Regular-78"/>
     </g>
    </g>
   </g>
   <g id="matplotlib.axis_2">
    <g id="ytick_1">
     <g id="line2d_9">
      <path d="M 107.5475 248.639615 
L 434.88 248.639615 
" clip-path="url(#p2b7555a53d)" style="fill: none; stroke: #b0b0b0; stroke-width: 0.8; stroke-linecap: square"/>
     </g>
     <g id="line2d_10">
      <defs>
       <path id="mddf1144708" d="M 0 0 
L -3.5 0 
" style="stroke: #000000; stroke-width: 0.8"/>
      </defs>
      <g>
       <use xlink:href="#mddf1144708" x="107.5475" y="248.639615" style="stroke: #000000; stroke-width: 0.8"/>
      </g>
     </g>
     <g id="text_6">
      <!-- −200 -->
      <g transform="translate(51.01 256.83524) scale(0.24 -0.24)">
       <use xlink:href="#TeXGyreTermes-Regular-2212"/>
       <use xlink:href="#TeXGyreTermes-Regular-32" transform="translate(56.399994 0)"/>
       <use xlink:href="#TeXGyreTermes-Regular-30" transform="translate(106.399979 0)"/>
       <use xlink:href="#TeXGyreTermes-Regular-30" transform="translate(156.399963 0)"/>
      </g>
     </g>
    </g>
    <g id="ytick_2">
     <g id="line2d_11">
      <path d="M 107.5475 161.025388 
L 434.88 161.025388 
" clip-path="url(#p2b7555a53d)" style="fill: none; stroke: #b0b0b0; stroke-width: 0.8; stroke-linecap: square"/>
     </g>
     <g id="line2d_12">
      <g>
       <use xlink:href="#mddf1144708" x="107.5475" y="161.025388" style="stroke: #000000; stroke-width: 0.8"/>
      </g>
     </g>
     <g id="text_7">
      <!-- 0 -->
      <g transform="translate(88.5475 169.221013) scale(0.24 -0.24)">
       <use xlink:href="#TeXGyreTermes-Regular-30"/>
      </g>
     </g>
    </g>
    <g id="ytick_3">
     <g id="line2d_13">
      <path d="M 107.5475 73.41116 
L 434.88 73.41116 
" clip-path="url(#p2b7555a53d)" style="fill: none; stroke: #b0b0b0; stroke-width: 0.8; stroke-linecap: square"/>
     </g>
     <g id="line2d_14">
      <g>
       <use xlink:href="#mddf1144708" x="107.5475" y="73.41116" style="stroke: #000000; stroke-width: 0.8"/>
      </g>
     </g>
     <g id="text_8">
      <!-- 200 -->
      <g transform="translate(64.5475 81.606785) scale(0.24 -0.24)">
       <use xlink:href="#TeXGyreTermes-Regular-32"/>
       <use xlink:href="#TeXGyreTermes-Regular-30" transform="translate(49.999985 0)"/>
       <use xlink:href="#TeXGyreTermes-Regular-30" transform="translate(99.999969 0)"/>
      </g>
     </g>
    </g>
    <g id="text_9">
     <!-- y -->
     <g transform="translate(41.77875 152.0825) rotate(-90) scale(0.24 -0.24)">
      <defs>
       <path id="TeXGyreTermes-Regular-79" d="M 3040 2784 
L 3040 2880 
L 2176 2880 
L 2176 2784 
C 2381 2784 2483 2726 2483 2624 
C 2483 2598 2477 2560 2458 2515 
L 1837 749 
L 1101 2368 
C 1062 2458 1037 2541 1037 2611 
C 1037 2726 1133 2771 1408 2784 
L 1408 2880 
L 90 2880 
L 90 2790 
C 256 2765 365 2694 416 2586 
L 1472 358 
C 1517 250 1542 173 1542 122 
C 1542 26 1395 -378 1286 -570 
C 1197 -736 1056 -858 966 -858 
C 928 -858 870 -845 806 -813 
C 685 -768 576 -742 467 -742 
C 320 -742 192 -870 192 -1024 
C 192 -1235 397 -1395 666 -1395 
C 1094 -1395 1402 -1037 1747 -115 
L 2733 2496 
C 2816 2701 2886 2765 3040 2784 
z
" transform="scale(0.015625)"/>
      </defs>
      <use xlink:href="#TeXGyreTermes-Regular-79"/>
     </g>
    </g>
   </g>
   <g id="line2d_15">
    <path d="M 308.256753 161.025388 
L 308.410926 160.896199 
L 308.282806 161.031164 
L 308.788964 160.660464 
L 309.236461 159.881642 
L 309.791431 159.141309 
L 309.949276 158.462853 
L 310.878812 157.731749 
L 311.494183 157.287524 
L 311.814292 156.430972 
L 312.202096 156.023496 
L 312.789617 155.139958 
L 313.703839 154.38955 
L 315.214998 152.678333 
L 316.62301 150.424206 
L 317.210383 148.841705 
L 317.366915 147.063322 
L 317.253879 144.325835 
L 317.753266 143.200534 
L 317.718214 142.42327 
L 317.365107 140.822693 
L 317.591708 140.498012 
L 318.429924 139.524535 
L 319.437065 139.059381 
L 320.068479 138.439945 
L 320.173627 137.949901 
L 319.947548 137.89907 
L 319.753438 137.051819 
L 319.170329 136.313555 
L 319.033576 136.002296 
L 318.367146 135.989047 
L 318.006975 135.668683 
L 318.07087 135.096616 
L 318.401679 134.42409 
L 319.15946 133.762536 
L 319.675971 132.361098 
L 319.594289 130.589479 
L 319.991651 129.713246 
L 320.504342 129.492337 
L 321.075939 128.669244 
L 321.28598 128.720965 
L 321.358564 128.337222 
L 322.003763 128.055081 
L 322.78642 127.751004 
L 323.323528 127.035341 
L 323.381711 126.57445 
L 322.797134 126.435383 
L 322.632012 126.25449 
L 322.547977 123.939937 
L 323.098318 123.473771 
L 325.102638 123.030569 
L 325.495224 122.688232 
L 326.281237 122.982882 
L 326.669801 122.376811 
L 328.333551 122.045122 
L 328.810193 121.587096 
L 328.745041 120.408285 
L 329.046046 120.558906 
L 329.140428 120.077812 
L 329.513733 119.485098 
L 329.823262 119.452057 
L 330.626935 118.886941 
L 331.201121 119.315164 
L 331.158519 119.45871 
L 331.54328 119.198277 
L 331.887694 119.631356 
L 332.197473 120.239236 
L 332.458299 119.932828 
L 332.598397 120.080363 
L 332.781192 119.867282 
L 332.77514 119.589327 
L 333.286492 120.038906 
L 333.614452 120.6423 
L 334.640477 120.502551 
L 335.674083 121.674456 
L 336.60339 122.162694 
L 338.453978 122.391973 
L 339.628253 123.159425 
L 340.501402 123.311866 
L 342.804278 123.445731 
L 344.091383 124.059407 
L 344.750724 124.633133 
L 345.641458 124.998079 
L 346.270141 125.399988 
L 347.14992 126.117352 
L 347.357142 126.737106 
L 347.308741 127.258258 
L 347.632999 127.978023 
L 348.271008 128.728256 
L 348.05085 128.635102 
L 348.414162 128.42622 
L 348.414381 128.476712 
L 348.360399 128.028357 
L 348.512502 127.360641 
L 349.019302 127.199169 
L 349.463981 127.377631 
L 350.851482 129.453299 
L 351.611251 129.959288 
L 352.382708 130.652271 
L 353.323094 131.012456 
L 356.026445 131.352125 
L 356.881184 131.122922 
L 358.204239 131.136636 
L 359.491008 131.365461 
L 360.701358 131.868302 
L 361.664947 131.984191 
L 362.710608 131.893996 
L 363.707952 131.499902 
L 365.180259 131.554053 
L 366.002395 131.827684 
L 366.485579 131.557648 
L 366.833714 131.547182 
L 366.555994 131.53993 
L 366.801577 131.03245 
L 367.579352 130.565233 
L 368.36218 130.801866 
L 368.683995 130.762173 
L 370.176448 131.251427 
L 370.154063 131.454028 
L 370.288275 131.493282 
L 371.012253 132.196564 
L 371.561703 132.367505 
L 371.42203 132.611675 
L 371.828245 132.948003 
L 372.001031 133.309946 
L 372.011621 133.654715 
L 372.303038 133.679234 
L 372.860626 133.329498 
L 373.274653 133.482428 
L 373.788866 133.942572 
L 375.685464 134.597134 
L 375.77292 135.321658 
L 375.655539 136.066853 
L 376.155326 136.172061 
L 376.637798 136.689271 
L 376.726215 137.177859 
L 377.125292 137.389901 
L 377.748278 137.394898 
L 377.85294 137.063881 
L 378.224067 136.905868 
L 379.125781 136.923638 
L 380.248572 137.269721 
L 380.812946 137.69486 
L 380.868805 137.893773 
L 380.648387 138.206294 
L 381.697644 138.65893 
L 381.361083 138.789259 
L 381.284191 139.18603 
L 382.152144 140.166113 
L 382.344842 140.668216 
L 383.001873 141.18855 
L 383.954113 142.832376 
L 384.41216 143.181611 
L 384.207498 143.474198 
L 384.230968 143.871037 
L 384.423166 143.903661 
L 384.977013 144.547984 
L 384.944421 144.863882 
L 385.55051 145.477481 
L 385.786233 146.020355 
L 385.888449 145.938604 
L 385.801416 146.046577 
L 385.640479 146.939474 
L 385.977732 147.316574 
L 386.115789 147.730213 
L 386.588911 148.336358 
L 387.17681 148.539616 
L 387.424502 149.408179 
L 387.644112 149.745783 
L 387.606947 150.103139 
L 386.944879 150.361852 
L 386.849946 150.1594 
L 387.33982 148.903277 
L 386.69397 148.289748 
L 386.305187 148.612606 
L 385.768362 148.787388 
L 385.720566 149.219373 
L 385.612695 149.266873 
L 385.714147 149.565637 
L 386.129521 150.147534 
L 386.516466 149.90295 
L 386.267748 149.795134 
L 386.091214 149.980414 
L 386.11182 149.965384 
L 386.484194 150.45405 
L 386.816427 150.124944 
L 386.832935 149.406554 
L 386.549117 148.789333 
L 386.26568 148.860598 
L 386.186998 148.590566 
L 385.998571 148.756125 
L 385.772283 149.13425 
L 385.53854 148.941638 
L 385.544946 148.430405 
L 386.571742 148.921049 
L 387.053078 149.152532 
L 387.604421 149.703277 
L 388.436738 150.2829 
L 389.528595 150.691713 
L 390.20426 151.126475 
L 391.360894 151.482999 
L 391.287889 151.528438 
L 391.818071 152.120902 
L 391.930195 152.052436 
L 390.70392 152.508727 
L 391.042111 152.869716 
L 390.569619 153.886073 
L 390.520763 154.102892 
L 390.196704 154.204252 
L 390.507362 154.582276 
L 390.65042 155.128163 
L 391.019697 155.502707 
L 390.96686 155.82684 
L 391.048534 155.821535 
L 391.380135 155.843388 
L 391.160184 155.89688 
L 391.184126 155.658878 
L 391.377687 155.355464 
L 391.309531 154.778565 
L 390.68954 154.397143 
L 390.192891 154.430354 
L 389.153102 153.997167 
L 388.53379 154.278007 
L 387.815971 154.441598 
L 387.156879 154.308277 
L 386.922393 152.889211 
L 387.107595 152.473768 
L 386.709667 153.291313 
L 386.570283 153.319486 
L 386.493732 153.835349 
L 386.150432 154.554267 
L 385.587106 156.661096 
L 385.554889 157.48449 
L 385.23061 158.392646 
L 384.911614 160.086212 
L 384.497317 161.142205 
L 384.499714 161.698615 
L 384.290232 162.604595 
L 384.75893 162.328886 
L 384.851388 162.070611 
L 384.477612 162.125356 
L 384.690528 162.26459 
L 385.292574 162.993073 
L 385.257086 163.287679 
L 385.542191 163.698338 
L 385.802621 163.716044 
L 385.742527 163.93032 
L 386.533536 164.216672 
L 386.359997 164.461706 
L 385.080326 164.83228 
L 384.163337 165.054259 
L 383.838809 165.633476 
L 383.434616 166.056936 
L 383.475359 166.548234 
L 384.074044 166.99169 
L 384.677998 167.57588 
L 384.504267 167.391238 
L 384.50037 167.193096 
L 384.294119 167.231892 
L 384.284139 167.74185 
L 384.685393 168.313038 
L 384.630402 168.992865 
L 384.904191 169.289645 
L 384.839685 169.47961 
L 385.200845 169.866172 
L 385.949826 170.153836 
L 386.316896 170.571812 
L 385.576894 170.877787 
L 385.170561 170.820262 
L 382.771979 172.234151 
L 382.107895 172.312591 
L 379.209525 171.540176 
L 378.433334 171.481203 
L 376.506515 170.964495 
L 376.029588 171.068986 
L 375.467809 170.925564 
L 374.940354 170.527351 
L 375.104118 170.146778 
L 375.16051 170.358443 
L 375.180041 170.36149 
L 374.803031 170.317229 
L 374.413356 170.150851 
L 374.064584 170.337841 
L 373.656013 170.708228 
L 372.955463 170.463151 
L 372.288281 170.489746 
L 371.592399 170.336168 
L 371.278647 170.911907 
L 368.110603 171.387349 
L 367.663632 171.656249 
L 367.318444 172.006324 
L 366.988806 172.145263 
L 366.113177 172.266449 
L 365.091539 173.115039 
L 362.745039 174.439887 
L 362.200545 174.424638 
L 361.468137 174.532493 
L 360.877588 174.749527 
L 359.92232 174.881502 
L 359.429825 175.215159 
L 359.414248 175.383346 
L 358.995706 175.710524 
L 358.762808 176.264369 
L 358.592636 175.886152 
L 358.12854 176.245411 
L 355.379498 176.927628 
L 354.016158 176.48127 
L 352.664325 176.319529 
L 352.177245 176.025963 
L 351.672579 175.856317 
L 350.871154 175.047541 
L 348.929835 174.510369 
L 347.918163 173.887643 
L 346.962219 173.935414 
L 343.68234 172.753921 
L 343.030182 171.971049 
L 342.571323 171.158152 
L 342.656933 170.555361 
L 342.259074 170.133246 
L 340.644441 168.910777 
L 339.79411 168.108238 
L 338.845726 167.51509 
L 338.317861 166.661438 
L 337.645545 166.139625 
L 336.664307 165.784562 
L 335.324242 165.827529 
L 334.897086 165.721468 
L 334.836103 165.56383 
L 334.115742 165.726064 
L 333.61903 165.229322 
L 333.058263 164.894584 
L 332.012425 164.79469 
L 330.303676 164.157614 
L 329.497602 164.089458 
L 329.268238 163.872299 
L 328.935618 163.737781 
L 328.483638 163.979064 
L 325.694513 164.18201 
L 324.701231 163.95344 
L 324.157108 163.776248 
L 323.416393 163.777344 
L 322.991017 163.986273 
L 322.521745 163.510738 
L 321.79729 163.300012 
L 320.418901 162.319903 
L 319.707869 162.089294 
L 319.575312 161.461718 
L 319.026014 160.71178 
L 319.088021 159.614912 
L 318.528617 159.405684 
L 318.731096 158.973086 
L 318.969422 158.399094 
L 318.577611 158.215862 
L 318.647181 157.528873 
L 318.178167 157.254715 
L 317.76135 157.386376 
L 317.257055 156.70476 
L 314.49924 154.879579 
L 313.556386 154.534175 
L 312.810138 154.104461 
L 312.049279 153.858217 
L 311.237271 153.449947 
L 310.513077 153.293605 
L 310.365438 153.085426 
L 310.777303 152.943401 
L 310.397592 153.07003 
L 310.510187 152.762258 
L 311.591882 152.774453 
L 312.309339 152.25887 
L 313.06417 152.218959 
L 313.348269 152.423237 
L 313.805227 152.369518 
L 314.061665 152.557057 
L 314.129771 152.369817 
L 315.431245 152.057414 
L 315.99447 152.047558 
L 316.738765 151.658294 
L 317.084762 151.056677 
L 316.826989 150.878169 
L 316.071505 150.648857 
L 315.710808 150.203713 
L 314.923771 149.801483 
L 314.210526 150.399484 
L 312.760968 150.860102 
L 312.099284 151.344662 
L 311.661483 151.526674 
L 311.652519 151.175608 
L 311.378002 150.887589 
L 310.585688 150.965782 
L 309.479289 151.304758 
L 307.407677 150.282216 
L 307.147598 150.446924 
L 307.264827 150.628661 
L 306.844622 150.754957 
L 305.192014 151.84222 
L 304.562604 152.126532 
L 302.663344 152.296425 
L 302.244365 152.456963 
L 301.865044 152.472196 
L 301.733659 152.667755 
L 301.783507 152.535096 
L 301.064832 152.711691 
L 301.25166 152.565384 
L 301.530525 152.050662 
L 301.829369 151.760785 
L 301.011692 150.87307 
L 300.487514 150.569232 
L 300.836839 150.253618 
L 300.729947 150.417577 
L 300.397413 150.277682 
L 300.203998 149.887385 
L 299.388686 149.358908 
L 298.814716 148.46699 
L 298.849554 147.793384 
L 299.023263 147.29341 
L 299.767278 147.185906 
L 300.493551 146.633342 
L 301.074512 145.827594 
L 300.991754 145.753822 
L 301.109486 145.318142 
L 301.004936 144.659303 
L 300.20495 144.304117 
L 299.513956 144.249024 
L 299.303005 144.111439 
L 298.65375 143.925522 
L 298.144499 143.535009 
L 297.366234 142.593659 
L 297.652111 141.631567 
L 297.422518 141.270084 
L 297.191292 140.453167 
L 296.753553 139.589323 
L 296.145531 138.823768 
L 296.454052 136.76868 
L 296.905799 135.735953 
L 296.652082 134.926456 
L 296.637094 134.223446 
L 297.27765 133.481897 
L 297.690536 132.352513 
L 297.351761 130.41384 
L 296.853197 129.932221 
L 296.389669 129.287236 
L 295.626417 126.66943 
L 295.25927 124.51598 
L 295.899406 123.268396 
L 295.506286 122.203539 
L 292.693264 116.788533 
L 291.837837 116.103923 
L 291.132854 115.275043 
L 290.209824 115.149702 
L 289.215101 114.825535 
L 288.704843 114.198423 
L 287.598557 113.461027 
L 286.734591 112.580641 
L 286.764657 111.534189 
L 286.65814 110.76134 
L 286.332214 110.048233 
L 285.656481 109.35269 
L 285.356317 109.274275 
L 285.671821 109.395801 
L 286.568513 108.871532 
L 287.372521 108.033914 
L 288.258733 107.718127 
L 288.672796 107.166485 
L 288.901213 106.609332 
L 289.517808 103.620473 
L 289.961845 103.291487 
L 290.265548 103.145105 
L 290.105418 101.781165 
L 289.803524 101.449409 
L 289.678156 100.65325 
L 289.128403 100.024368 
L 288.599105 99.699437 
L 287.768273 99.481475 
L 287.291964 99.09831 
L 287.025006 98.542638 
L 287.041855 97.815773 
L 286.628989 97.265496 
L 286.190783 96.905508 
L 284.80846 96.877525 
L 284.580951 96.470593 
L 284.487531 96.003118 
L 284.011762 96.095099 
L 284.021071 95.309708 
L 283.723724 94.980971 
L 283.585219 94.434975 
L 283.051512 93.755673 
L 282.955242 92.40305 
L 282.785644 91.955025 
L 282.142919 92.046041 
L 280.982132 92.325171 
L 280.552098 92.688104 
L 280.085996 92.857937 
L 279.674966 92.652093 
L 278.815942 92.449018 
L 278.505939 92.100869 
L 278.249929 92.010426 
L 277.814623 92.449227 
L 277.519693 92.250208 
L 276.937793 92.015447 
L 276.168761 91.977045 
L 275.396545 92.091279 
L 274.545531 91.72553 
L 273.53299 91.770499 
L 272.195564 91.072841 
L 272.201881 90.703589 
L 271.639024 90.211509 
L 271.59009 89.864571 
L 271.659683 88.903854 
L 272.305634 86.347895 
L 271.556505 84.556573 
L 270.807993 83.385051 
L 269.959466 82.816508 
L 268.114438 82.130946 
L 267.302821 82.088805 
L 266.894559 81.654343 
L 266.439383 81.420093 
L 265.242881 80.953644 
L 263.77245 81.070865 
L 262.449937 80.586839 
L 261.938845 79.585991 
L 261.179759 78.603008 
L 260.371623 77.751377 
L 259.118834 77.556272 
L 258.359359 77.312994 
L 257.749365 76.720093 
L 256.55196 76.038537 
L 255.407499 75.941772 
L 254.535824 75.600834 
L 253.549578 75.567033 
L 252.531242 75.92114 
L 251.811417 75.760831 
L 249.272687 76.584589 
L 248.563858 77.281953 
L 247.644463 77.167718 
L 247.106779 77.377409 
L 245.538183 76.99018 
L 244.791146 77.530256 
L 243.285531 77.72332 
L 240.501579 77.46186 
L 239.720314 77.257501 
L 239.100081 76.683243 
L 238.55611 76.446688 
L 237.632859 76.20099 
L 237.191109 75.906683 
L 236.489007 75.804221 
L 235.671844 76.141019 
L 232.956422 74.425259 
L 232.332916 74.482216 
L 230.956508 74.438331 
L 230.370187 74.798466 
L 230.123053 74.717427 
L 229.366569 74.614484 
L 227.702991 74.817078 
L 226.725146 75.090946 
L 225.975937 75.102672 
L 225.410575 74.798007 
L 224.758294 74.736279 
L 224.461443 74.333002 
L 223.735218 74.407264 
L 223.013998 74.750959 
L 222.439809 74.737786 
L 221.591998 75.119418 
L 220.808004 75.754113 
L 218.648339 76.566169 
L 218.269486 76.940577 
L 217.51055 77.110322 
L 216.517694 76.517386 
L 215.30238 76.519284 
L 213.910377 76.256885 
L 211.609587 76.16829 
L 210.962789 76.130498 
L 209.813915 75.818427 
L 208.977137 75.425345 
L 207.980789 74.833527 
L 204.082856 73.215414 
L 203.003815 72.515956 
L 201.789336 71.347129 
L 200.854585 70.924397 
L 200.040232 70.325468 
L 198.118109 69.620428 
L 196.284477 69.386101 
L 195.0566 69.811935 
L 193.150281 69.760703 
L 191.047805 71.463828 
L 190.424797 71.361251 
L 188.416945 71.88044 
L 187.536772 72.553986 
L 187.148088 72.604037 
L 186.744299 72.337903 
L 186.2806 72.683763 
L 185.03334 73.010067 
L 183.122929 73.087903 
L 182.5065 73.291498 
L 182.05617 73.86742 
L 181.668167 75.546906 
L 181.24496 75.845056 
L 181.108826 76.415778 
L 179.763412 78.079931 
L 179.408927 78.196383 
L 178.090749 79.63867 
L 177.366396 79.687806 
L 177.056452 80.215442 
L 177.022348 81.224664 
L 176.890939 81.657782 
L 176.494781 81.397367 
L 175.393929 81.180413 
L 174.107547 80.452721 
L 174.107062 80.511389 
L 174.487595 80.436897 
L 174.185709 80.603962 
L 173.955588 80.667673 
L 173.559888 80.36877 
L 173.552374 80.136462 
L 173.448883 80.147568 
L 173.467315 80.202452 
L 173.152569 80.06587 
L 170.904571 78.515691 
L 170.52844 78.388043 
L 170.208236 77.900409 
L 168.864044 76.600105 
L 167.732931 75.883614 
L 166.440959 75.460381 
L 164.023709 74.910086 
L 162.673169 75.036318 
L 161.332955 74.750469 
L 160.655636 74.829234 
L 160.168315 74.570561 
L 159.435346 74.319693 
L 158.330019 74.133808 
L 156.626658 73.453224 
L 155.840069 72.584094 
L 154.79787 71.654505 
L 154.145578 70.848028 
L 151.837138 69.681818 
L 150.780285 68.812634 
L 149.921586 67.881456 
L 148.883357 67.15699 
L 146.320437 66.382694 
L 142.280507 63.950253 
L 136.987202 60.271953 
L 136.142835 60.185791 
L 135.612084 59.933835 
L 134.798913 59.879504 
L 133.727083 60.020469 
L 132.590855 59.557622 
L 131.642745 58.697022 
L 130.645815 58.404105 
L 130.388045 58.12263 
L 130.69825 57.578973 
L 131.125773 57.081368 
L 131.119522 56.838986 
L 131.356838 56.075643 
L 131.33174 55.386862 
L 131.150105 54.467947 
L 131.183985 53.652651 
L 131.562502 53.139493 
L 131.737444 52.479154 
L 131.681775 52.439951 
L 131.569722 51.994113 
L 131.565172 52.066975 
L 131.198254 52.296747 
L 131.107963 51.960392 
L 130.685805 51.687068 
L 130.169583 51.961626 
L 129.452061 52.196916 
L 129.369757 52.03112 
L 128.641926 52.381694 
L 128.041157 51.928958 
L 126.82185 51.760731 
L 125.414174 52.02504 
L 125.059578 52.255061 
L 124.212038 52.454133 
L 123.477505 52.283624 
L 122.880013 52.414371 
L 122.42625 52.159089 
L 122.747494 52.29553 
L 122.873862 52.044783 
L 123.950587 51.274523 
L 124.243156 50.987391 
L 123.987464 50.817074 
L 124.187971 50.821128 
L 124.743536 50.93754 
L 125.489176 50.374403 
L 125.792273 49.016273 
L 126.068731 48.832917 
L 126.707304 47.931829 
L 127.275457 47.529053 
L 127.550056 46.926087 
L 127.584848 45.86575 
L 128.926589 45.638501 
L 129.116771 45.897507 
L 129.935225 45.680654 
L 130.155249 45.410978 
L 130.358654 45.470692 
L 129.851215 45.516614 
L 129.705069 45.836361 
L 129.194082 45.907253 
L 129.277872 46.638493 
L 130.068849 47.131314 
L 129.944758 47.402879 
L 129.907204 47.119387 
L 130.008436 47.14371 
L 131.162529 45.774558 
L 131.316645 45.521551 
L 132.673796 44.401858 
L 133.587126 44.47913 
L 134.049117 44.064691 
L 133.854249 43.51953 
L 134.26621 43.367294 
L 134.009471 43.363565 
L 134.057885 43.206707 
L 134.278632 42.791215 
L 134.638853 42.572584 
L 135.025747 41.815126 
L 135.501872 41.67808 
L 135.488108 41.862286 
L 135.631254 41.893196 
L 135.832535 41.719094 
L 136.251685 41.572732 
L 136.356047 40.927085 
L 135.09521 39.563443 
L 134.513049 39.29247 
L 133.954429 39.404663 
L 133.752139 39.200459 
L 133.756496 38.953911 
L 134.243099 38.673046 
L 134.748475 38.679824 
L 134.708664 38.505636 
L 135.092732 38.313968 
L 135.320353 38.437062 
L 135.292738 38.03572 
L 135.140864 37.721528 
L 135.269775 37.614121 
L 135.702735 36.843864 
L 135.702735 36.843864 
" clip-path="url(#p2b7555a53d)" style="fill: none; stroke: #1f77b4; stroke-width: 2; stroke-linecap: square"/>
   </g>
   <g id="line2d_16">
    <path d="M 308.256753 161.025388 
L 309.970613 162.650423 
L 312.289411 163.887945 
L 313.712392 165.117213 
L 314.192383 165.672287 
L 314.756573 166.122547 
L 315.025245 166.530336 
L 315.3684 167.330848 
L 316.569178 168.32258 
L 316.679313 170.131529 
L 319.63512 171.683423 
L 321.019313 171.919514 
L 323.093691 171.129775 
L 323.838801 170.82811 
L 324.42055 170.372223 
L 324.967823 170.46673 
L 325.961122 170.346589 
L 327.079223 169.932019 
L 329.584324 169.195976 
L 330.889146 169.195024 
L 331.494809 168.944844 
L 332.113432 168.423945 
L 332.982344 168.17787 
L 333.685145 167.345069 
L 334.115006 167.055067 
L 335.09324 166.894756 
L 335.811792 166.239755 
L 336.903532 165.849233 
L 337.509543 165.208365 
L 337.749783 165.264699 
L 337.890141 164.455634 
L 337.767998 163.29026 
L 338.130873 162.806595 
L 338.149627 162.442095 
L 338.032684 162.166792 
L 337.4318 161.591539 
L 337.291186 160.860291 
L 337.230791 161.100397 
L 336.967081 161.64018 
L 337.128695 162.152639 
L 337.056666 162.453708 
L 336.975694 161.686901 
L 337.089517 160.990779 
L 337.562122 160.656639 
L 338.010189 159.427513 
L 338.215496 158.548814 
L 338.524332 158.305496 
L 338.845592 158.423983 
L 338.803131 158.854464 
L 339.479826 158.517791 
L 339.741137 159.138131 
L 339.062952 159.356882 
L 338.842402 159.388086 
L 338.648688 159.065888 
L 338.452443 159.18454 
L 338.434574 158.53713 
L 338.893531 158.309647 
L 340.020445 158.697445 
L 340.871165 158.9034 
L 341.898467 158.9358 
L 343.003145 159.474815 
L 343.722068 159.471385 
L 344.129982 159.729975 
L 344.497737 159.950295 
L 344.200175 159.998055 
L 343.873923 160.87463 
L 343.490144 161.246925 
L 342.949052 162.15972 
L 342.754567 162.201911 
L 342.586627 162.034507 
L 342.159355 161.910167 
L 343.447868 162.217026 
L 345.892572 162.922129 
L 346.04461 162.538062 
L 346.88626 162.800302 
L 346.905253 163.159128 
L 347.052313 163.53192 
L 348.052959 163.762055 
L 348.002879 163.922166 
L 348.64048 163.475681 
L 349.0278 163.18006 
L 349.25402 163.451222 
L 349.586772 163.501745 
L 350.067214 163.841516 
L 350.355344 163.783577 
L 350.638923 163.556067 
L 350.943347 163.836378 
L 351.873432 164.383239 
L 352.050125 164.682186 
L 351.784834 164.879492 
L 351.580121 165.362545 
L 351.275693 165.573076 
L 351.282777 165.846923 
L 351.15755 166.261328 
L 351.144143 166.757442 
L 350.987554 167.169584 
L 351.147497 167.332997 
L 351.079489 167.055225 
L 351.029484 167.600735 
L 350.544364 167.764822 
L 350.416678 168.569214 
L 350.129438 169.439477 
L 349.115619 171.538136 
L 348.706219 172.028496 
L 348.037762 172.51889 
L 347.569918 172.627776 
L 347.129422 172.979124 
L 347.186675 173.53347 
L 347.427511 174.0071 
L 347.500249 174.542638 
L 347.672563 174.645556 
L 347.49003 174.869021 
L 348.072488 174.967404 
L 348.461345 175.287326 
L 348.793377 175.142517 
L 349.030717 174.874563 
L 348.89773 174.45962 
L 349.418574 173.987588 
L 351.253539 174.638453 
L 351.052998 174.917003 
L 352.781907 174.16869 
L 353.194738 174.331156 
L 354.046008 174.160396 
L 353.936232 174.458052 
L 353.5723 174.530376 
L 353.865482 174.552473 
L 353.85541 175.154893 
L 355.171119 176.357216 
L 355.669428 177.028186 
L 355.904149 177.126558 
L 355.470313 177.001274 
L 355.314731 177.271023 
L 355.221275 177.027203 
L 355.010134 177.014282 
L 356.205322 177.035845 
L 357.143669 178.396762 
L 358.781546 178.984407 
L 359.870006 179.545943 
L 360.775991 179.802131 
L 361.7484 179.813902 
L 362.641971 180.525778 
L 363.248217 180.753619 
L 363.577874 180.636849 
L 363.525763 180.222195 
L 364.128594 180.457445 
L 364.898676 181.561905 
L 365.720684 181.448175 
L 365.650901 181.767415 
L 365.280771 181.378715 
L 365.735375 181.093813 
L 365.609028 181.267098 
L 365.33026 181.731275 
L 365.926434 181.738041 
L 366.929339 181.476421 
L 368.112464 181.300928 
L 368.903842 180.971866 
L 370.671453 180.712515 
L 371.569505 180.74856 
L 372.610434 180.06371 
L 373.104089 180.032398 
L 373.974959 180.3465 
L 374.568533 179.934821 
L 374.910166 180.26513 
L 375.757527 180.309511 
L 376.584806 180.229862 
L 377.065019 180.335307 
L 377.245599 180.635382 
L 378.100541 180.944102 
L 378.981997 181.041134 
L 379.402401 181.201632 
L 380.003188 181.931128 
L 380.598356 182.439125 
L 381.938814 186.227691 
L 382.086009 187.495038 
L 382.415927 188.990414 
L 384.150232 191.695734 
L 385.264629 192.787954 
L 386.746892 193.750508 
L 387.984495 194.419347 
L 390.297042 195.217788 
L 392.373654 196.102117 
L 393.174159 196.881798 
L 393.853676 197.315475 
L 394.981914 197.415843 
L 395.420457 197.715828 
L 396.412686 197.740657 
L 397.262811 197.903843 
L 397.826614 197.758698 
L 398.40399 199.148823 
L 398.846159 199.091241 
L 399.580504 199.665637 
L 399.646108 200.010014 
L 400.196105 200.201575 
L 400.548261 200.444393 
L 400.269056 200.722414 
L 400.779813 200.963818 
L 401.356126 201.518846 
L 401.234054 202.449734 
L 401.596043 202.956903 
L 401.742618 203.731083 
L 402.744088 203.966398 
L 403.431252 203.994708 
L 403.917698 203.636857 
L 404.271564 203.813106 
L 404.145274 203.494337 
L 404.443511 203.535127 
L 404.004334 203.703631 
L 404.127745 203.241697 
L 405.217187 202.649656 
L 408.436625 202.213614 
L 409.324539 202.438702 
L 410.357905 202.946057 
L 410.864245 203.474574 
L 413.167077 203.750921 
L 413.879972 203.55748 
L 414.67176 204.057389 
L 416.665778 204.78652 
L 417.392364 205.93236 
L 417.096788 206.1721 
L 417.292238 206.08648 
L 417.023433 205.51009 
L 417.160842 205.184831 
L 417.479058 205.329263 
L 418.009361 204.570075 
L 418.197626 203.927199 
L 418.481038 203.775986 
L 418.815185 203.281569 
L 418.760321 203.498824 
L 418.874662 204.028479 
L 419.879789 204.253651 
L 420.00125 204.620277 
L 419.416734 205.427646 
L 419.20003 206.012799 
L 418.937744 205.946114 
L 418.961511 205.980658 
L 418.665446 206.258659 
L 418.69482 206.289908 
L 418.364915 206.277934 
L 418.073168 206.449807 
L 417.977608 207.316124 
L 418.043652 207.28345 
L 418.443138 207.572131 
L 418.453398 207.803951 
L 418.233694 207.618591 
L 417.762447 207.685007 
L 417.422147 207.871856 
L 416.395695 208.142635 
L 415.668905 207.940626 
L 414.897204 207.270908 
L 414.518405 206.517741 
L 414.005171 206.332108 
L 413.131978 205.166503 
L 412.749386 204.62357 
L 412.011739 204.021633 
L 410.878402 203.461419 
L 409.955963 203.339336 
L 408.713215 203.294187 
L 407.99838 202.912653 
L 407.539579 202.366106 
L 407.499368 201.519601 
L 407.69769 201.485953 
L 407.737049 201.77146 
L 407.231224 202.007883 
L 407.354721 201.76787 
L 406.992451 201.056957 
L 407.055984 200.760152 
L 407.273131 200.605687 
L 407.401419 199.69373 
L 407.782827 198.875987 
L 407.607568 198.05901 
L 407.697599 197.504711 
L 407.684407 196.785366 
L 407.389465 196.559251 
L 407.373682 196.380706 
L 407.022757 195.670944 
L 406.222468 195.305111 
L 406.013268 194.708325 
L 405.287666 194.113932 
L 404.871699 193.501382 
L 404.017162 192.865536 
L 403.535189 192.319225 
L 402.702626 190.548201 
L 403.380614 189.26469 
L 403.544616 188.85773 
L 403.36954 187.865523 
L 401.931851 185.764263 
L 401.726356 185.498977 
L 401.93763 185.926259 
L 401.912537 185.947519 
L 401.778677 185.523416 
L 400.852318 185.1293 
L 400.514374 184.079371 
L 399.930779 183.4121 
L 399.543362 183.267501 
L 398.744452 183.543728 
L 397.621335 182.743476 
L 397.214404 183.099345 
L 397.375318 183.681654 
L 397.390376 184.360535 
L 397.534859 184.605815 
L 397.139977 184.983479 
L 396.922545 186.120207 
L 396.455437 186.765017 
L 396.595098 187.214041 
L 395.901517 187.695744 
L 396.011182 187.403875 
L 395.397173 187.255299 
L 395.07233 187.048109 
L 395.746778 186.890954 
L 396.080527 187.083186 
L 396.806204 187.371285 
L 397.055977 187.207406 
L 397.11316 186.916328 
L 396.880155 186.940326 
L 396.930268 187.042501 
L 397.065749 187.193846 
L 396.783237 187.872339 
L 396.578902 187.766262 
L 396.144062 187.974665 
L 394.822429 189.435938 
L 394.406271 190.845626 
L 394.055484 191.781924 
L 393.686172 192.228001 
L 393.831095 192.750848 
L 393.78924 193.43812 
L 392.828095 196.126599 
L 392.548157 197.797576 
L 390.658296 201.826781 
L 390.104819 202.387794 
L 389.093309 203.040808 
L 388.183698 203.806465 
L 387.858953 204.993706 
L 387.012701 206.201774 
L 386.074344 207.168182 
L 386.297889 207.498935 
L 386.405169 208.186924 
L 386.194994 208.764497 
L 385.226925 209.752348 
L 384.852709 210.533883 
L 385.030506 210.16175 
L 385.319095 210.176313 
L 385.388169 209.928621 
L 385.521812 209.996577 
L 385.060392 210.385998 
L 384.933722 210.839334 
L 385.405545 211.760201 
L 385.124863 212.274481 
L 385.566894 213.340303 
L 385.319748 214.083512 
L 384.838634 214.513066 
L 384.542405 215.194518 
L 383.894298 216.335907 
L 383.955271 216.997162 
L 383.256795 217.486911 
L 382.685644 217.681432 
L 382.222025 217.98849 
L 381.737581 218.571745 
L 380.331974 220.896129 
L 379.358485 221.377323 
L 378.652898 221.888147 
L 377.542219 223.359489 
L 376.763127 223.893163 
L 375.232548 223.642733 
L 373.508071 223.942317 
L 372.880014 224.723889 
L 372.418163 225.22052 
L 371.16928 225.592049 
L 370.419854 226.228425 
L 369.119392 227.927287 
L 368.17932 228.403747 
L 367.363993 228.570987 
L 366.619606 228.43357 
L 366.090061 228.490245 
L 365.845201 228.690137 
L 365.632178 229.234234 
L 365.984021 229.744472 
L 365.930939 230.693322 
L 365.660267 231.072947 
L 365.768801 231.331821 
L 366.384321 231.582898 
L 366.637804 231.934783 
L 366.532304 232.386698 
L 366.807559 232.741991 
L 366.838313 233.435537 
L 366.777644 234.963604 
L 367.412542 235.501801 
L 367.531856 235.972837 
L 368.532274 236.487118 
L 368.274082 236.173028 
L 367.941746 236.432615 
L 368.215191 236.684835 
L 368.266061 237.803281 
L 368.036983 237.937763 
L 368.005267 237.676016 
L 367.858662 237.858401 
L 367.80029 238.189598 
L 367.866363 237.916904 
L 368.273137 238.208292 
L 369.080784 239.232784 
L 370.017142 239.253303 
L 370.964594 239.797908 
L 372.301703 240.388577 
L 373.026969 241.007022 
L 373.823054 241.140971 
L 374.149673 241.580696 
L 374.57235 241.386452 
L 375.012539 241.634706 
L 375.246181 241.615895 
L 375.42465 242.052151 
L 375.720137 241.96073 
L 376.448873 242.96796 
L 376.783203 243.245312 
L 377.912882 243.449646 
L 377.957654 242.841728 
L 377.963321 243.103059 
L 377.557898 243.315628 
L 377.458911 243.52888 
L 377.128106 244.194355 
L 377.325918 244.784942 
L 377.887508 244.783959 
L 378.186857 244.411342 
L 378.973874 244.137706 
L 379.627125 244.224341 
L 379.650378 244.489909 
L 379.475723 245.317984 
L 379.241054 245.163149 
L 379.846077 245.309511 
L 380.68678 245.329359 
L 380.981383 245.473113 
L 381.068478 245.384442 
L 381.976817 245.795075 
L 382.373895 246.365881 
L 382.451623 246.300401 
L 382.592807 246.38966 
L 382.868005 246.120627 
L 382.675282 245.94725 
L 382.936638 246.041133 
L 383.186584 246.384313 
L 384.04652 246.994313 
L 384.146651 247.303029 
L 383.939559 247.749966 
L 384.507562 248.152632 
L 385.446834 247.559071 
L 386.077025 248.61221 
L 385.910831 249.92202 
L 385.78522 250.168865 
L 385.570705 250.297993 
L 384.957915 250.532626 
L 384.650231 250.476184 
L 384.825232 250.589542 
L 385.742688 251.125746 
L 386.062951 251.632351 
L 385.85931 251.899983 
L 386.877531 252.862367 
L 386.787373 252.415325 
L 387.120101 251.724338 
L 386.621351 251.603099 
L 386.329794 251.162806 
L 385.750889 251.091128 
L 385.28923 251.158218 
L 384.279817 251.047199 
L 383.566756 251.14875 
L 382.906712 251.112888 
L 382.323752 251.382419 
L 382.100606 252.084527 
L 381.580763 252.466988 
L 381.105817 252.399876 
L 380.256796 253.100274 
L 380.166522 253.784579 
L 380.023712 253.698072 
L 379.836843 253.93967 
L 379.462712 254.303376 
L 379.189535 254.162816 
L 378.848863 254.28873 
L 378.626714 254.077106 
L 378.933153 253.893484 
L 378.910613 254.127158 
L 378.798946 254.05743 
L 378.859546 254.437867 
L 378.582818 254.668243 
L 378.158028 254.563486 
L 377.658201 254.844271 
L 377.526786 255.321136 
L 377.012995 255.277713 
L 376.169036 254.933485 
L 374.562559 254.463964 
L 374.478931 254.273152 
L 373.886921 253.575195 
L 373.887056 252.940371 
L 373.707747 252.332241 
L 373.047676 252.18248 
L 371.773373 251.339284 
L 371.258277 250.608932 
L 371.444366 249.645667 
L 370.913997 249.57225 
L 370.119943 249.035408 
L 369.743048 248.411429 
L 369.891121 248.12161 
L 369.666422 247.668798 
L 369.165488 247.511182 
L 368.395991 247.436312 
L 368.032599 246.879693 
L 367.515074 246.346744 
L 367.498068 245.847025 
L 367.919849 245.588904 
L 368.038339 244.21355 
L 368.472135 243.576975 
L 368.752938 242.950885 
L 368.926047 242.204704 
L 368.770822 241.622418 
L 368.374036 241.023683 
L 368.477518 240.418822 
L 368.093472 239.604954 
L 368.357725 238.845454 
L 368.701942 238.478622 
L 369.097577 237.780235 
L 369.638625 236.145298 
L 370.806403 235.548735 
L 370.404622 235.872858 
L 370.347081 236.420264 
L 369.981214 236.61712 
L 370.492194 236.967169 
L 370.227937 237.361238 
L 370.504343 237.772245 
L 370.580438 238.224811 
L 370.172444 238.570308 
L 369.620367 237.804389 
L 368.185589 236.688432 
L 367.562435 236.216879 
L 367.441849 236.402574 
L 367.53273 236.44619 
L 367.561355 236.684705 
L 367.083459 236.486075 
L 366.860829 236.740512 
L 366.382175 236.782909 
L 365.068709 236.459951 
L 364.495842 236.088041 
L 364.182397 235.690026 
L 363.805566 235.643013 
L 363.899783 235.439115 
L 363.615032 234.4543 
L 363.173976 233.854021 
L 363.199945 233.134186 
L 362.825457 231.871984 
L 362.208788 231.490819 
L 361.875834 231.472746 
L 361.831134 231.754117 
L 361.556312 231.748205 
L 361.104984 231.560377 
L 360.029552 231.60106 
L 359.39808 231.84733 
L 358.6735 232.317179 
L 358.209616 232.483891 
L 356.967998 232.302526 
L 355.511278 231.045153 
L 354.764229 230.573639 
L 353.888217 229.848214 
L 353.165474 228.949561 
L 351.757084 228.666749 
L 351.30752 228.37096 
L 348.960679 227.262001 
L 348.186298 227.172571 
L 347.346374 227.341068 
L 347.047166 227.198033 
L 346.792758 226.787232 
L 345.852452 226.038876 
L 345.750692 225.455496 
L 345.147891 224.799689 
L 345.094444 224.243292 
L 344.394567 223.8358 
L 343.618763 223.966017 
L 342.946638 223.803073 
L 342.746262 223.299698 
L 343.000534 222.762356 
L 343.118352 222.142083 
L 341.508792 220.129706 
L 341.476478 219.66466 
L 340.655863 218.632588 
L 340.741332 218.278527 
L 340.189113 218.096136 
L 340.132202 218.869466 
L 339.612332 219.313144 
L 339.590684 219.678309 
L 340.071199 219.684299 
L 340.747233 220.026787 
L 341.261615 220.012249 
L 340.801635 220.096865 
L 340.347113 220.19897 
L 340.420793 220.104745 
L 340.680942 220.254042 
L 339.988021 219.782634 
L 340.049671 219.62837 
L 340.305347 219.906986 
L 340.64979 219.52862 
L 340.599752 218.694406 
L 340.037744 218.088092 
L 339.866977 217.691415 
L 340.052914 217.422728 
L 339.865434 217.517852 
L 339.654484 217.189677 
L 339.784149 216.584373 
L 339.448897 216.311928 
L 339.301059 215.769304 
L 339.253587 215.91042 
L 338.868829 215.767428 
L 338.477611 215.475695 
L 338.408933 214.864843 
L 337.886382 214.932992 
L 337.18031 214.602235 
L 336.559449 214.010085 
L 335.851098 213.603677 
L 335.394752 212.930497 
L 335.337947 212.361519 
L 335.510023 211.913476 
L 335.329167 210.596175 
L 334.71009 210.732571 
L 333.790399 209.788221 
L 333.593423 209.517615 
L 333.579073 209.150213 
L 334.263869 208.974793 
L 334.164599 208.224907 
L 333.970898 207.579283 
L 333.642339 207.344378 
L 333.640959 207.146098 
L 333.34142 206.738088 
L 333.521177 205.762928 
L 333.340188 205.343031 
L 332.45049 204.640743 
L 332.024217 204.927826 
L 331.566195 205.068598 
L 331.403533 205.602713 
L 331.08806 206.001538 
L 330.726007 205.690735 
L 330.752304 205.266226 
L 331.222191 205.076559 
L 331.201725 204.43941 
L 331.318237 204.024493 
L 331.077895 203.414452 
L 330.287299 202.955039 
L 330.223437 202.141334 
L 327.969849 201.394119 
L 327.070466 200.898989 
L 324.255967 199.793323 
L 323.447888 199.276257 
L 322.562007 199.115456 
L 322.05768 198.884724 
L 319.838509 198.81372 
L 319.220616 198.255298 
L 318.20793 197.732993 
L 316.735305 197.318397 
L 316.058681 196.400226 
L 315.834777 196.019536 
L 315.311121 195.588909 
L 314.82575 195.376781 
L 314.068636 193.889451 
L 314.226933 193.35739 
L 313.030186 192.423632 
L 312.855976 191.945763 
L 312.926767 191.440544 
L 312.942629 191.455736 
L 312.734805 191.162841 
L 312.522522 191.056426 
L 311.859469 191.084867 
L 311.713425 191.670515 
L 311.776352 191.666588 
L 312.477097 191.321728 
L 312.592285 190.707907 
L 312.432386 190.06931 
L 311.99604 189.332255 
L 311.676921 188.416037 
L 311.105111 187.845148 
L 311.02929 187.341018 
L 311.133126 186.432131 
L 310.940611 185.346764 
L 311.222711 184.723859 
L 310.913385 183.365846 
L 310.029306 182.511477 
L 309.494299 182.018117 
L 309.130163 181.463251 
L 309.241939 180.603579 
L 309.676642 179.228961 
L 309.538812 178.61485 
L 308.671477 177.68986 
L 308.588716 177.345454 
L 308.249263 177.282415 
L 308.371101 176.227705 
L 308.691754 175.633365 
L 308.895539 175.516854 
L 308.590254 174.884884 
L 308.971462 174.740861 
L 309.236365 174.449686 
L 309.580906 173.236644 
L 309.628796 172.567518 
L 310.187277 172.107562 
L 311.559282 171.372907 
L 312.272048 170.469616 
L 312.476051 169.607761 
L 312.331489 169.141233 
L 312.414282 169.368643 
L 312.679221 169.456218 
L 313.02067 169.204178 
L 313.871507 167.903014 
L 314.256246 167.197876 
L 314.4379 166.557194 
L 314.259161 165.822055 
L 314.233378 165.11836 
L 314.76241 164.513578 
L 314.944199 163.836334 
L 314.7005 162.603944 
L 313.643639 161.847514 
L 313.717535 161.090732 
L 312.16484 159.037512 
L 312.28727 158.752303 
L 312.074018 158.366648 
L 312.115327 158.091089 
L 311.868394 157.680789 
L 311.904275 157.259873 
L 311.680069 156.878095 
L 311.005822 156.623874 
L 310.255481 156.713451 
L 310.202579 157.533856 
L 309.653919 157.6311 
L 308.927187 157.877879 
L 308.2563 157.90577 
L 307.253977 158.587878 
L 306.595785 158.095923 
L 306.566691 158.177871 
L 306.193773 158.322972 
L 305.588606 158.411109 
L 305.72691 159.225686 
L 306.405763 159.739801 
L 307.069857 160.01806 
L 307.460948 160.595924 
L 307.557966 160.960587 
L 307.557966 160.960587 
" clip-path="url(#p2b7555a53d)" style="fill: none; stroke: #ff7f0e; stroke-width: 2; stroke-linecap: square"/>
   </g>
   <g id="line2d_17">
    <path d="M 308.256753 161.025388 
L 307.649715 161.433557 
L 307.607878 161.065209 
L 307.960754 161.448615 
L 307.82609 161.551336 
L 308.27819 161.759414 
L 307.461527 161.298571 
L 306.896423 161.136417 
L 306.039627 160.664822 
L 305.270304 160.376559 
L 304.221079 159.738249 
L 302.970153 159.39059 
L 301.651708 158.817729 
L 299.811 157.590809 
L 298.858908 156.093103 
L 298.867807 155.212355 
L 298.405468 155.128657 
L 298.440732 155.18155 
L 299.135199 152.171732 
L 299.041028 152.156173 
L 298.934301 151.836121 
L 298.631223 151.704891 
L 298.380211 152.040092 
L 298.07345 152.257707 
L 298.430228 152.235479 
L 298.403319 152.707837 
L 298.706767 152.927975 
L 299.926023 151.769634 
L 300.21502 150.499617 
L 299.834123 150.388177 
L 299.503772 149.859472 
L 300.06796 148.334758 
L 301.152553 147.22248 
L 302.154208 145.100187 
L 301.879262 144.774469 
L 301.982819 143.604661 
L 301.809587 142.356107 
L 302.257757 141.450385 
L 302.028914 140.48289 
L 301.726332 139.878667 
L 301.424099 138.965598 
L 300.960545 138.885524 
L 300.100289 138.89428 
L 298.869949 139.463193 
L 297.396584 139.102714 
L 296.402946 138.496895 
L 295.488116 138.489275 
L 291.14136 139.216746 
L 290.018822 138.761526 
L 288.461823 138.483496 
L 287.229081 137.302495 
L 287.018505 136.175286 
L 287.341339 135.141369 
L 287.99465 135.26098 
L 288.122425 134.947956 
L 288.676178 134.230197 
L 289.349651 134.68083 
L 289.645961 134.645526 
L 289.858253 135.557567 
L 290.211293 135.764742 
L 290.848074 135.657616 
L 291.424622 135.350152 
L 291.633517 135.469925 
L 292.79221 135.420662 
L 292.807789 135.620464 
L 293.046323 136.374465 
L 292.845183 137.285984 
L 293.526066 137.624977 
L 293.351359 138.651471 
L 293.889857 138.624595 
L 293.824406 138.968669 
L 294.526894 139.271654 
L 294.384516 139.308049 
L 295.633837 139.422885 
L 297.04619 139.323932 
L 298.647324 139.091037 
L 299.589728 138.641151 
L 301.087933 138.245297 
L 302.098068 137.1648 
L 302.267551 136.129324 
L 301.743259 134.538432 
L 301.953198 133.347504 
L 301.848096 131.486276 
L 301.461641 130.866133 
L 301.950656 130.590719 
L 303.338091 130.342534 
L 303.983561 130.577214 
L 304.617941 130.390917 
L 304.704013 129.535181 
L 305.923831 128.941999 
L 307.230524 129.198867 
L 306.294468 129.101769 
L 306.038046 128.613029 
L 306.487365 127.802983 
L 306.030465 127.131503 
L 307.150106 126.693138 
L 308.377458 126.662299 
L 309.602003 125.677777 
L 309.227056 125.113181 
L 308.756355 124.153299 
L 308.189458 123.569973 
L 308.52523 123.346492 
L 308.245565 123.315705 
L 307.935679 122.662189 
L 308.123228 122.292539 
L 308.569741 122.169502 
L 309.031246 122.66979 
L 309.36769 122.455693 
L 309.512177 121.985894 
L 309.87303 121.755447 
L 310.746021 120.911576 
L 312.20503 121.171129 
L 312.600088 121.528307 
L 312.098785 121.697935 
L 311.61029 122.108973 
L 311.616008 122.024338 
L 311.315558 121.497516 
L 312.054573 121.340399 
L 312.563658 121.030428 
L 315.810843 117.566588 
L 315.48976 117.681072 
L 315.271008 116.905651 
L 315.302367 115.920967 
L 315.092373 116.207183 
L 313.641591 115.660655 
L 312.841689 116.02168 
L 311.73017 115.412873 
L 308.945062 115.614321 
L 308.713177 116.167487 
L 308.095438 116.132228 
L 306.802049 116.438514 
L 306.608967 115.837913 
L 306.926278 115.190566 
L 307.158947 115.217422 
L 307.463769 115.501502 
L 307.896333 115.402122 
L 308.400528 114.819526 
L 308.353323 114.107495 
L 308.04737 113.851877 
L 308.477332 113.652932 
L 308.877869 113.641759 
L 309.633534 112.77972 
L 310.150454 113.199658 
L 311.030409 113.149153 
L 311.796576 112.958088 
L 312.680311 113.266936 
L 314.759955 114.917216 
L 315.782253 114.999983 
L 316.389563 115.484661 
L 317.062394 116.641468 
L 317.720425 117.430145 
L 318.641327 117.929665 
L 319.294905 117.416102 
L 319.97115 117.112053 
L 320.163262 117.686176 
L 320.142617 118.190193 
L 319.750554 117.636946 
L 320.4368 117.075406 
L 320.679616 117.805138 
L 321.496106 117.541814 
L 322.33536 116.732368 
L 322.64984 115.950419 
L 321.694127 115.926596 
L 321.281021 115.360294 
L 320.217506 114.983654 
L 319.769889 115.220936 
L 319.203177 115.292537 
L 319.366581 115.225715 
L 319.62248 115.529375 
L 319.586026 114.657039 
L 320.112706 115.026242 
L 319.924556 114.548355 
L 320.108888 114.620484 
L 320.071469 114.824981 
L 321.252356 114.944686 
L 320.933235 114.994816 
L 321.600196 114.611891 
L 321.36837 115.008953 
L 322.078042 115.804333 
L 322.735189 116.365414 
L 323.98357 116.284775 
L 324.794793 116.416846 
L 324.87083 116.966781 
L 324.467592 116.979999 
L 324.951907 117.604971 
L 324.290191 117.610222 
L 324.038866 117.363816 
L 324.240563 117.035319 
L 324.070436 116.929254 
L 324.62487 116.976925 
L 324.220143 116.957564 
L 324.168234 117.288608 
L 323.506355 117.654266 
L 322.781201 117.630315 
L 322.834613 118.303372 
L 322.671212 119.270808 
L 322.133085 120.184262 
L 321.156001 121.449891 
L 319.474896 122.066955 
L 318.167523 122.9184 
L 316.969787 123.192421 
L 315.76974 123.821227 
L 314.976407 124.854794 
L 313.435408 124.645458 
L 312.857503 124.324202 
L 312.406877 124.287197 
L 311.882742 125.1377 
L 311.049891 125.777245 
L 310.856702 126.716948 
L 311.103506 127.731311 
L 310.661529 129.324075 
L 310.627903 130.20442 
L 310.431573 131.33896 
L 310.65238 131.95764 
L 311.686762 132.649848 
L 313.201429 133.503649 
L 314.079502 133.456548 
L 315.063986 135.019628 
L 316.519499 136.178326 
L 317.456688 137.486452 
L 318.135191 137.7396 
L 318.491581 137.008276 
L 319.374935 136.199771 
L 320.805967 136.379848 
L 321.434119 136.667024 
L 322.361032 136.575514 
L 323.404652 137.090727 
L 323.697839 137.387035 
L 323.563747 137.236905 
L 322.911341 137.254199 
L 323.313488 137.698188 
L 323.458311 138.300045 
L 322.870488 138.750559 
L 323.604275 139.669294 
L 324.765583 140.258621 
L 324.869286 140.537164 
L 324.455942 141.735189 
L 323.952071 142.629049 
L 323.949471 143.891977 
L 323.328786 143.036137 
L 322.863994 143.967658 
L 322.80761 143.812584 
L 322.846162 143.5423 
L 322.644824 143.783481 
L 322.216922 143.68091 
L 322.650293 144.319842 
L 323.024562 144.485152 
L 322.289585 144.622807 
L 322.544817 144.877 
L 322.773792 145.864928 
L 323.18641 145.924788 
L 323.407275 146.223976 
L 323.010646 146.618779 
L 323.039239 147.102661 
L 323.798377 147.028314 
L 324.095351 147.474032 
L 323.575222 147.782924 
L 324.52141 148.590501 
L 325.958632 148.945702 
L 328.017285 148.385902 
L 328.745233 148.728719 
L 328.93988 149.309277 
L 329.524056 149.086968 
L 330.295896 149.361719 
L 330.837886 148.262865 
L 331.322986 148.183237 
L 330.399181 147.335566 
L 330.475762 147.677803 
L 331.311 147.808884 
L 330.460276 147.563945 
L 330.682676 146.882072 
L 330.545772 147.232924 
L 330.39338 147.233221 
L 330.176655 147.35021 
L 330.113739 147.865167 
L 329.534758 149.555527 
L 330.65048 150.715098 
L 331.264099 151.58028 
L 330.479209 154.155161 
L 330.340069 155.174124 
L 329.795675 155.36706 
L 330.433317 156.146924 
L 329.617301 158.449915 
L 329.068984 159.360823 
L 328.898586 160.280158 
L 329.282086 161.851553 
L 330.171968 162.645638 
L 330.130546 163.334685 
L 329.580184 164.259822 
L 329.938301 164.466078 
L 331.181662 164.204979 
L 332.144901 164.06795 
L 332.470875 162.948771 
L 332.395134 162.129735 
L 332.567262 161.471259 
L 332.622056 160.341518 
L 332.938847 159.812652 
L 332.661964 158.865928 
L 332.086429 159.225675 
L 330.46503 158.658027 
L 330.063008 157.966158 
L 330.289082 157.342988 
L 330.721086 156.736259 
L 331.429505 155.433581 
L 330.677054 154.198507 
L 330.759355 153.382952 
L 329.827611 152.539378 
L 329.821179 152.060024 
L 329.080488 151.778492 
L 329.173757 151.609784 
L 329.85821 151.478209 
L 330.539977 151.571778 
L 330.59129 151.870579 
L 331.106041 152.250266 
L 331.628446 152.929622 
L 332.812562 153.324812 
L 333.452425 153.747568 
L 334.079033 153.700843 
L 333.815999 153.118414 
L 332.861224 152.692547 
L 331.35326 152.18714 
L 330.023535 151.525928 
L 330.35209 151.287162 
L 329.059705 150.476054 
L 329.395776 149.848351 
L 330.422492 149.59662 
L 331.363167 148.939591 
L 330.982254 149.07662 
L 330.414414 148.768674 
L 330.762608 148.027706 
L 330.391178 146.121836 
L 330.206967 145.251984 
L 330.437609 145.360003 
L 330.855332 145.416833 
L 331.962305 144.796746 
L 332.078903 143.932445 
L 333.353388 143.109496 
L 333.661198 142.354063 
L 335.903157 142.418634 
L 335.781226 142.057375 
L 337.671209 140.157771 
L 337.79669 139.766486 
L 338.177704 139.774241 
L 338.544208 138.927186 
L 338.328209 139.278769 
L 337.794179 139.097273 
L 337.160118 138.665109 
L 337.077872 138.298986 
L 335.613038 138.176069 
L 335.078848 137.934996 
L 335.054221 137.655225 
L 334.905113 138.325585 
L 335.338192 138.79838 
L 336.740306 138.954461 
L 336.602055 139.167376 
L 336.649837 138.760601 
L 337.570743 138.379217 
L 337.738194 138.02522 
L 337.700643 138.061578 
L 338.079644 138.370811 
L 337.811932 137.758483 
L 336.964261 136.79871 
L 336.862107 136.146976 
L 337.878514 135.569379 
L 338.127066 135.208932 
L 338.697874 135.038967 
L 338.698496 134.694545 
L 339.61242 133.909404 
L 339.795801 133.313637 
L 340.212502 132.875837 
L 340.07363 132.226665 
L 339.887086 132.556222 
L 339.78951 133.011992 
L 339.848537 133.007657 
L 339.636241 133.032843 
L 340.217768 132.542755 
L 340.198986 132.532828 
L 340.709081 132.988313 
L 340.993733 131.753639 
L 341.94482 131.692727 
L 342.467904 132.277564 
L 343.11734 131.747892 
L 343.609007 131.543957 
L 343.58093 131.767107 
L 343.727493 132.155859 
L 345.200229 132.529387 
L 347.36828 132.070675 
L 347.868656 131.797183 
L 348.578562 131.778585 
L 347.760719 130.243052 
L 347.588254 130.174332 
L 347.671878 129.809645 
L 348.551395 130.783046 
L 348.252234 131.58406 
L 348.595692 131.989745 
L 348.332745 132.237904 
L 347.400112 133.50641 
L 347.280615 135.093481 
L 347.045818 136.035617 
L 347.292796 137.55583 
L 347.188519 138.591978 
L 349.070063 139.756622 
L 349.537182 140.470855 
L 351.331926 140.533723 
L 351.774326 140.180187 
L 351.601459 139.732015 
L 352.82839 139.118526 
L 353.468622 138.309982 
L 354.814741 137.641293 
L 355.740848 135.856728 
L 355.984773 134.563361 
L 356.370351 134.331671 
L 356.463987 133.757513 
L 356.28916 132.445773 
L 356.341283 129.850498 
L 355.830619 129.578286 
L 356.045559 128.663982 
L 355.914665 127.531761 
L 357.450892 125.88867 
L 357.921342 125.486111 
L 356.606995 123.36055 
L 357.070508 122.324489 
L 357.278602 121.059159 
L 356.787794 119.027241 
L 356.093955 118.11388 
L 355.694129 117.949802 
L 354.761225 117.033449 
L 354.288392 115.68156 
L 353.737311 114.741562 
L 353.483617 113.489341 
L 352.712714 113.198293 
L 352.65907 113.957925 
L 352.010528 114.724218 
L 350.821684 115.539996 
L 348.944843 118.110587 
L 348.367254 118.723156 
L 348.319497 119.610379 
L 347.913275 120.286416 
L 348.205874 120.017598 
L 348.413159 120.398399 
L 347.912276 120.073853 
L 347.425611 119.936946 
L 348.07532 119.433078 
L 348.474049 119.335982 
L 348.175757 118.611629 
L 348.164523 117.406017 
L 348.511694 116.708337 
L 349.343638 117.267286 
L 349.788856 118.410523 
L 349.453807 118.006152 
L 349.247349 118.006873 
L 350.849759 118.59141 
L 352.332406 117.867284 
L 353.214393 117.767467 
L 353.751623 118.421151 
L 353.89952 118.938931 
L 354.1801 119.111947 
L 354.692276 120.958782 
L 353.815146 122.44705 
L 352.504963 123.594033 
L 352.537933 123.873478 
L 352.045851 124.113139 
L 350.931744 124.912615 
L 350.219618 124.862056 
L 349.506784 124.243239 
L 349.114356 123.478547 
L 348.839749 122.60151 
L 348.639827 121.437048 
L 347.562878 120.547763 
L 347.159915 119.400599 
L 346.8278 119.303281 
L 346.932528 118.776293 
L 346.744139 117.918073 
L 346.911814 117.721983 
L 347.348185 117.548589 
L 347.393241 117.330988 
L 347.272459 116.867631 
L 347.523194 116.212102 
L 348.672823 115.270183 
L 349.339631 115.417191 
L 350.249958 115.735 
L 350.986419 116.306463 
L 352.067585 116.585487 
L 352.325563 117.081036 
L 352.530181 118.01199 
L 353.078493 118.588853 
L 353.325333 118.277816 
L 353.34558 117.415932 
L 353.504873 116.528396 
L 353.901376 116.1388 
L 354.117175 115.391463 
L 353.737515 115.321862 
L 353.488407 115.454584 
L 352.771923 115.527737 
L 353.084943 115.677689 
L 353.761965 115.319865 
L 354.505563 115.369671 
L 356.285534 116.070028 
L 357.179544 116.064746 
L 358.325037 116.507936 
L 359.693315 116.810056 
L 361.20738 117.503368 
L 364.073995 117.14451 
L 364.984892 116.683542 
L 366.088374 116.825147 
L 367.182822 117.305179 
L 367.496285 117.226409 
L 367.301134 116.802002 
L 367.749531 117.543332 
L 369.574824 117.361346 
L 370.689826 116.973866 
L 371.819164 116.241523 
L 372.374071 116.655498 
L 372.933194 116.519451 
L 373.590158 116.780944 
L 374.700353 117.367467 
L 375.634481 118.824927 
L 376.492814 119.741665 
L 378.342735 121.361843 
L 379.511284 121.762488 
L 380.623952 121.803004 
L 382.352957 122.706697 
L 384.974033 123.838834 
L 385.913289 124.50456 
L 386.869094 124.637396 
L 387.499138 125.207635 
L 389.06357 126.099808 
L 390.734781 128.424482 
L 392.048027 129.255041 
L 392.213732 129.940839 
L 391.335903 130.819189 
L 391.651164 131.796364 
L 391.51476 133.184354 
L 390.725887 133.295314 
L 391.090134 133.210673 
L 391.628569 134.378018 
L 391.741048 135.208709 
L 391.624856 136.222081 
L 392.159567 136.005858 
L 392.066983 136.364519 
L 392.319366 136.855852 
L 392.88598 136.999358 
L 393.630726 136.852917 
L 393.313623 136.808614 
L 392.690393 137.216017 
L 392.342673 137.83843 
L 391.336133 137.85149 
L 390.743478 137.69906 
L 391.053116 137.852101 
L 391.325857 137.561152 
L 391.286644 137.813321 
L 391.106688 137.700002 
L 390.339388 136.956152 
L 389.903561 136.11666 
L 389.173557 135.697799 
L 388.888276 135.011685 
L 389.369736 135.107593 
L 389.712775 135.80957 
L 388.990882 136.436141 
L 389.560128 136.990523 
L 390.398945 136.734877 
L 390.76661 136.91041 
L 391.075167 137.508356 
L 390.572723 138.473003 
L 390.462831 139.360248 
L 388.640157 140.650701 
L 388.359512 141.424772 
L 387.913246 142.269654 
L 387.136465 142.534647 
L 385.899672 142.014175 
L 384.581678 142.381866 
L 383.210908 142.641509 
L 382.402921 142.596181 
L 382.796476 142.358904 
L 382.726677 141.596241 
L 381.841653 142.022374 
L 381.091539 141.89423 
L 380.909747 142.533737 
L 380.692235 142.837843 
L 380.710485 143.965466 
L 381.023434 144.414424 
L 381.310366 144.46531 
L 382.263492 144.872494 
L 383.297072 144.657138 
L 383.392365 144.886512 
L 383.965948 144.913276 
L 384.891609 145.339755 
L 385.206906 146.040706 
L 385.060075 146.477581 
L 384.446767 147.595761 
L 384.551431 148.157732 
L 383.790321 148.999841 
L 382.048931 149.144506 
L 382.443288 149.681305 
L 382.736829 150.74885 
L 383.560222 152.119177 
L 383.487188 152.528175 
L 382.984792 153.437796 
L 383.514022 154.327181 
L 385.552082 155.551668 
L 386.662412 155.771421 
L 387.639024 156.641103 
L 388.137221 158.108286 
L 388.799795 159.110135 
L 389.381194 159.283031 
L 390.410451 159.74903 
L 390.675868 160.561794 
L 391.187265 159.925187 
L 390.466429 159.36259 
L 391.240535 159.900662 
L 391.528794 160.336486 
L 391.144948 160.560786 
L 390.58896 160.113687 
L 390.695626 159.570745 
L 390.312534 159.455024 
L 390.599136 159.954757 
L 391.015297 159.937216 
L 391.224029 159.924552 
L 391.36037 160.938948 
L 391.050575 160.919862 
L 390.263327 161.748094 
L 390.837283 162.600919 
L 390.181289 163.569946 
L 390.429901 164.212983 
L 390.189291 165.07839 
L 390.999937 166.085706 
L 390.942979 166.656836 
L 390.557586 166.69683 
L 390.292857 166.948308 
L 390.668318 167.050237 
L 390.866189 167.848747 
L 389.094229 169.400423 
L 386.432313 169.481341 
L 385.710709 169.859838 
L 385.130471 169.553539 
L 384.680723 170.99921 
L 384.917082 170.850454 
L 385.308461 170.760543 
L 385.456538 170.879655 
L 385.076564 170.880787 
L 384.221433 170.576115 
L 383.714949 171.282366 
L 383.460098 170.928699 
L 383.658943 169.946332 
L 383.824116 169.891054 
L 383.322006 169.577753 
L 383.030998 169.201915 
L 383.051013 168.881706 
L 382.429615 169.091089 
L 381.410606 168.817912 
L 380.809573 169.081602 
L 380.246827 168.983812 
L 379.141819 169.477936 
L 378.344778 169.354857 
L 377.624293 169.408325 
L 377.401304 168.791237 
L 377.656026 168.714037 
L 376.477629 167.571619 
L 377.162287 167.044176 
L 377.718011 166.023797 
L 377.960063 166.257015 
L 378.612863 166.078511 
L 378.827863 165.613094 
L 377.672679 165.236375 
L 377.653651 165.076964 
L 377.245756 165.338866 
L 376.559953 165.208306 
L 375.898044 165.373173 
L 374.795285 167.271532 
L 374.665456 166.876884 
L 375.006476 166.63465 
L 374.130225 165.884269 
L 373.237286 166.322837 
L 373.066675 166.748276 
L 373.347009 166.942384 
L 373.448073 167.517552 
L 373.71949 167.528173 
L 373.807523 167.821407 
L 374.302124 168.515197 
L 375.211617 169.127575 
L 375.617738 171.287506 
L 375.471318 172.134633 
L 374.029582 173.976119 
L 373.362464 175.365153 
L 372.760193 176.069769 
L 373.076527 176.762862 
L 372.774408 176.756981 
L 372.843456 176.931517 
L 373.085933 176.914408 
L 372.49262 177.132802 
L 371.850801 177.516113 
L 372.259562 177.76944 
L 371.890924 177.578006 
L 371.54453 177.97251 
L 372.109107 177.672256 
L 372.938359 177.86123 
L 374.097498 177.332565 
L 374.381758 177.892409 
L 375.380601 177.571639 
L 375.826863 176.729188 
L 375.972216 175.285603 
L 376.830486 174.280899 
L 376.805223 173.998569 
L 377.577891 174.002871 
L 377.470784 174.096605 
L 377.114896 173.687233 
L 376.048248 172.155415 
L 375.310263 171.333541 
L 375.265608 169.74566 
L 375.016281 169.064033 
L 374.504582 168.315407 
L 373.224823 167.969538 
L 370.763686 166.010443 
L 369.895893 165.491571 
L 369.618591 165.705854 
L 369.817552 166.181649 
L 369.821027 165.794562 
L 370.12927 165.184591 
L 370.335583 163.827363 
L 369.685021 162.59829 
L 369.871502 162.643667 
L 369.63993 162.306785 
L 369.078045 161.940048 
L 369.228432 161.168375 
L 370.996116 160.265821 
L 373.841765 159.756803 
L 376.27412 160.755863 
L 378.182789 160.909189 
L 379.786769 161.587403 
L 382.156248 161.9366 
L 382.297527 162.751384 
L 383.643728 163.839295 
L 384.485429 165.104286 
L 384.514138 165.804112 
L 384.220712 166.928228 
L 384.313796 167.574045 
L 383.402719 168.693062 
L 382.376819 169.229716 
L 382.384646 169.676397 
L 381.691718 170.33963 
L 380.594042 170.394974 
L 380.32914 171.204261 
L 379.768397 171.905951 
L 379.816412 172.132397 
L 379.679784 172.328138 
L 379.592108 172.742971 
L 378.991857 173.340153 
L 378.116786 174.053264 
L 377.201156 174.321123 
L 376.739487 175.056719 
L 375.721923 175.359036 
L 375.610775 175.105632 
L 375.749228 175.090747 
L 375.866196 175.406011 
L 376.191654 175.839376 
L 376.394863 175.890494 
L 377.479318 175.414276 
L 377.834661 174.068611 
L 378.295603 172.983464 
L 379.185703 172.239122 
L 379.835359 169.557255 
L 380.108966 169.419546 
L 379.858122 168.694475 
L 379.97537 167.649793 
L 380.205796 166.866077 
L 380.892205 166.264212 
L 380.433934 165.519166 
L 380.137854 165.3413 
L 379.851895 163.962107 
L 379.87535 163.261863 
L 380.651665 162.254655 
L 380.729332 161.878031 
L 380.42988 161.681841 
L 380.483963 160.880596 
L 379.970351 160.308912 
L 380.098255 160.824669 
L 380.527284 160.672168 
L 380.386586 160.825044 
L 380.073541 160.118867 
L 379.907674 159.02357 
L 379.432995 157.169413 
L 378.998536 156.019903 
L 378.824594 154.807274 
L 378.45989 153.282556 
L 377.994985 152.86887 
L 377.040497 152.880124 
L 376.447575 152.056679 
L 375.387598 150.859031 
L 374.893082 150.501435 
L 374.329006 149.637004 
L 374.169527 148.334216 
L 373.459164 147.976612 
L 373.141922 147.673826 
L 373.335601 147.763485 
L 374.216078 148.039172 
L 376.936799 148.341392 
L 378.301197 148.382615 
L 379.615015 147.999002 
L 381.544898 146.444995 
L 382.233647 145.537812 
L 382.701645 145.572902 
L 382.292528 145.033363 
L 381.638184 144.809188 
L 380.754108 144.818358 
L 380.581215 145.018037 
L 380.088162 145.318871 
L 380.282114 145.962081 
L 380.004827 146.14459 
L 378.843422 146.042693 
L 377.990593 145.184012 
L 377.209595 144.202664 
L 376.18741 143.748978 
L 375.521347 143.619559 
L 374.970451 143.281873 
L 373.929946 142.866647 
L 373.12214 142.892797 
L 372.389299 144.468725 
L 372.472705 146.308213 
L 371.610066 148.413208 
L 371.014443 148.692201 
L 370.215985 149.248039 
L 370.192985 149.937329 
L 369.681555 150.074752 
L 369.680258 150.851336 
L 369.978274 150.655748 
L 369.711803 150.928794 
L 369.584591 151.443464 
L 370.039545 151.593733 
L 369.561648 151.612176 
L 369.153088 152.045609 
L 368.877725 152.5773 
L 368.540204 152.984505 
L 367.676453 152.591586 
L 367.621558 152.980693 
L 367.482496 152.939766 
L 367.510956 153.267433 
L 367.702093 153.44221 
L 367.783721 153.69875 
L 367.630735 153.325456 
L 366.310623 153.117867 
L 366.310623 153.117867 
" clip-path="url(#p2b7555a53d)" style="fill: none; stroke: #2ca02c; stroke-width: 2; stroke-linecap: square"/>
   </g>
   <g id="patch_3">
    <path d="M 107.5475 266.245 
L 107.5475 25.92 
" style="fill: none; stroke: #000000; stroke-width: 0.8; stroke-linejoin: miter; stroke-linecap: square"/>
   </g>
   <g id="patch_4">
    <path d="M 434.88 266.245 
L 434.88 25.92 
" style="fill: none; stroke: #000000; stroke-width: 0.8; stroke-linejoin: miter; stroke-linecap: square"/>
   </g>
   <g id="patch_5">
    <path d="M 107.5475 266.245 
L 434.88 266.245 
" style="fill: none; stroke: #000000; stroke-width: 0.8; stroke-linejoin: miter; stroke-linecap: square"/>
   </g>
   <g id="patch_6">
    <path d="M 107.5475 25.92 
L 434.88 25.92 
" style="fill: none; stroke: #000000; stroke-width: 0.8; stroke-linejoin: miter; stroke-linecap: square"/>
   </g>
   <g id="legend_1">
    <g id="patch_7">
     <path d="M 248.769375 260.245 
L 426.48 260.245 
Q 428.88 260.245 428.88 257.845 
L 428.88 208.009375 
Q 428.88 205.609375 426.48 205.609375 
L 248.769375 205.609375 
Q 246.369375 205.609375 246.369375 208.009375 
L 246.369375 257.845 
Q 246.369375 260.245 248.769375 260.245 
z
" style="fill: #ffffff; opacity: 0.8; stroke: #cccccc; stroke-linejoin: miter"/>
    </g>
    <g id="line2d_18">
     <path d="M 251.169375 214.609375 
L 263.169375 214.609375 
L 275.169375 214.609375 
" style="fill: none; stroke: #1f77b4; stroke-width: 2; stroke-linecap: square"/>
    </g>
    <g id="text_10">
     <!-- Timmer-Koenig -->
     <g transform="translate(284.769375 218.809375) scale(0.12 -0.12)">
      <defs>
       <path id="TeXGyreTermes-Regular-54" d="M 3795 3149 
L 3757 4237 
L 147 4237 
L 109 3149 
L 262 3149 
C 416 3853 563 3968 1280 3968 
L 1626 3968 
L 1626 768 
C 1626 224 1555 154 1024 122 
L 1024 0 
L 2893 0 
L 2893 122 
C 2368 147 2278 230 2278 698 
L 2278 3968 
L 2624 3968 
C 3354 3968 3494 3853 3642 3149 
L 3795 3149 
z
" transform="scale(0.015625)"/>
       <path id="TeXGyreTermes-Regular-69" d="M 1619 0 
L 1619 96 
C 1197 128 1146 192 1146 653 
L 1146 2925 
L 1120 2944 
L 128 2592 
L 128 2496 
L 179 2502 
C 256 2515 339 2522 397 2522 
C 550 2522 608 2419 608 2138 
L 608 653 
C 608 192 544 122 102 96 
L 102 0 
L 1619 0 
z
M 1203 3776 
C 1203 3955 1062 4102 877 4102 
C 698 4102 550 3955 550 3776 
C 550 3590 698 3450 877 3450 
C 1062 3450 1203 3590 1203 3776 
z
" transform="scale(0.015625)"/>
       <path id="TeXGyreTermes-Regular-6d" d="M 4960 0 
L 4960 96 
L 4794 109 
C 4602 122 4518 237 4518 486 
L 4518 1805 
C 4518 2560 4269 2944 3776 2944 
C 3405 2944 3078 2778 2733 2406 
C 2618 2771 2400 2944 2054 2944 
C 1773 2944 1594 2854 1062 2451 
L 1062 2931 
L 1018 2944 
C 691 2822 474 2752 122 2656 
L 122 2547 
C 205 2566 256 2573 326 2573 
C 493 2573 550 2470 550 2163 
L 550 544 
C 550 198 461 102 102 96 
L 102 0 
L 1523 0 
L 1523 96 
C 1184 109 1088 179 1088 429 
L 1088 2234 
C 1088 2234 1139 2310 1184 2355 
C 1344 2502 1619 2611 1843 2611 
C 2125 2611 2266 2387 2266 1939 
L 2266 550 
C 2266 192 2195 122 1830 96 
L 1830 0 
L 3264 0 
L 3264 96 
C 2899 102 2803 211 2803 608 
L 2803 2221 
C 2995 2496 3206 2611 3501 2611 
C 3866 2611 3981 2438 3981 1907 
L 3981 557 
C 3981 192 3930 141 3558 96 
L 3558 0 
L 4960 0 
z
" transform="scale(0.015625)"/>
       <path id="TeXGyreTermes-Regular-65" d="M 2714 1005 
L 2611 1050 
C 2304 563 2029 378 1619 378 
C 1267 378 998 544 813 890 
C 685 1139 634 1363 621 1773 
L 2592 1773 
C 2541 2189 2477 2374 2317 2579 
C 2125 2810 1830 2944 1498 2944 
C 704 2944 160 2304 160 1370 
C 160 486 621 -64 1357 -64 
C 1971 -64 2445 314 2714 1005 
z
M 1939 1978 
L 634 1978 
C 704 2483 922 2714 1312 2714 
C 1702 2714 1856 2534 1939 1978 
z
" transform="scale(0.015625)"/>
       <path id="TeXGyreTermes-Regular-72" d="M 2144 2605 
C 2144 2816 2010 2944 1792 2944 
C 1523 2944 1338 2797 1024 2342 
L 1024 2931 
L 992 2944 
C 653 2803 422 2720 45 2598 
L 45 2496 
C 134 2515 192 2522 269 2522 
C 429 2522 486 2419 486 2138 
L 486 538 
C 486 218 442 173 32 96 
L 32 0 
L 1568 0 
L 1568 96 
C 1133 115 1024 211 1024 576 
L 1024 2016 
C 1024 2221 1299 2541 1472 2541 
C 1510 2541 1568 2509 1638 2445 
C 1741 2355 1811 2317 1894 2317 
C 2048 2317 2144 2426 2144 2605 
z
" transform="scale(0.015625)"/>
       <path id="TeXGyreTermes-Regular-2d" d="M 1824 1242 
L 1824 1645 
L 250 1645 
L 250 1242 
L 1824 1242 
z
" transform="scale(0.015625)"/>
       <path id="TeXGyreTermes-Regular-4b" d="M 4627 0 
L 4627 122 
C 4294 128 4205 192 3622 813 
L 2131 2413 
L 3347 3616 
C 3782 4032 3885 4083 4320 4115 
L 4320 4237 
L 2643 4237 
L 2643 4115 
C 2720 4109 2784 4109 2810 4109 
C 3002 4096 3078 4045 3078 3917 
C 3078 3776 2931 3584 2579 3258 
L 1446 2227 
L 1446 3539 
C 1446 4006 1517 4077 2035 4115 
L 2035 4237 
L 218 4237 
L 218 4115 
C 717 4077 794 3994 794 3539 
L 794 768 
C 794 237 723 154 218 122 
L 218 0 
L 2022 0 
L 2022 122 
C 1523 154 1446 230 1446 698 
L 1446 1894 
L 1613 2029 
L 2291 1357 
C 2778 877 3123 422 3123 269 
C 3123 179 3034 134 2854 128 
C 2822 128 2752 128 2675 122 
L 2675 0 
L 4627 0 
z
" transform="scale(0.015625)"/>
       <path id="TeXGyreTermes-Regular-6f" d="M 3008 1498 
C 3008 2336 2419 2944 1600 2944 
C 768 2944 186 2330 186 1446 
C 186 582 781 -64 1587 -64 
C 2394 -64 3008 614 3008 1498 
z
M 2432 1274 
C 2432 550 2144 115 1664 115 
C 1414 115 1178 269 1043 525 
C 864 858 762 1306 762 1760 
C 762 2368 1062 2765 1517 2765 
C 2054 2765 2432 2150 2432 1274 
z
" transform="scale(0.015625)"/>
       <path id="TeXGyreTermes-Regular-6e" d="M 3104 0 
L 3104 96 
C 2790 128 2714 205 2714 518 
L 2714 1984 
C 2714 2586 2432 2944 1958 2944 
C 1664 2944 1466 2835 1030 2426 
L 1030 2931 
L 986 2944 
C 672 2829 454 2758 102 2656 
L 102 2547 
C 141 2566 205 2573 275 2573 
C 454 2573 512 2477 512 2163 
L 512 576 
C 512 211 442 122 115 96 
L 115 0 
L 1472 0 
L 1472 96 
C 1146 122 1050 198 1050 429 
L 1050 2227 
C 1357 2515 1498 2592 1709 2592 
C 2022 2592 2176 2394 2176 1971 
L 2176 634 
C 2176 230 2093 122 1773 96 
L 1773 0 
L 3104 0 
z
" transform="scale(0.015625)"/>
       <path id="TeXGyreTermes-Regular-67" d="M 3008 2483 
L 3008 2733 
L 2515 2733 
C 2387 2733 2291 2752 2163 2797 
L 2022 2848 
C 1850 2912 1677 2944 1510 2944 
C 915 2944 442 2483 442 1901 
C 442 1498 614 1254 1037 1043 
L 762 787 
C 550 602 467 474 467 346 
C 467 211 544 134 806 6 
C 352 -326 179 -538 179 -774 
C 179 -1114 678 -1395 1286 -1395 
C 1766 -1395 2266 -1229 2598 -960 
C 2842 -762 2950 -557 2950 -314 
C 2950 83 2650 352 2176 371 
L 1350 410 
C 1011 422 851 480 851 582 
C 851 710 1062 934 1235 986 
C 1293 979 1338 973 1357 973 
C 1478 960 1562 954 1600 954 
C 1837 954 2093 1050 2291 1222 
C 2502 1402 2598 1626 2598 1946 
C 2598 2131 2566 2278 2477 2483 
L 3008 2483 
z
M 2771 -410 
C 2771 -781 2285 -1030 1562 -1030 
C 998 -1030 627 -845 627 -563 
C 627 -416 672 -333 941 -13 
C 1152 -58 1664 -96 1978 -96 
C 2560 -96 2771 -179 2771 -410 
z
M 2106 1696 
C 2106 1338 1920 1114 1626 1114 
C 1242 1114 973 1530 973 2144 
L 973 2163 
C 973 2541 1152 2765 1446 2765 
C 1645 2765 1811 2656 1914 2464 
C 2029 2240 2106 1946 2106 1696 
z
" transform="scale(0.015625)"/>
      </defs>
      <use xlink:href="#TeXGyreTermes-Regular-54"/>
      <use xlink:href="#TeXGyreTermes-Regular-69" transform="translate(61.099991 0)"/>
      <use xlink:href="#TeXGyreTermes-Regular-6d" transform="translate(88.899979 0)"/>
      <use xlink:href="#TeXGyreTermes-Regular-6d" transform="translate(166.699966 0)"/>
      <use xlink:href="#TeXGyreTermes-Regular-65" transform="translate(244.499954 0)"/>
      <use xlink:href="#TeXGyreTermes-Regular-72" transform="translate(288.899948 0)"/>
      <use xlink:href="#TeXGyreTermes-Regular-2d" transform="translate(322.199936 0)"/>
      <use xlink:href="#TeXGyreTermes-Regular-4b" transform="translate(355.499924 0)"/>
      <use xlink:href="#TeXGyreTermes-Regular-6f" transform="translate(427.699905 0)"/>
      <use xlink:href="#TeXGyreTermes-Regular-65" transform="translate(477.69989 0)"/>
      <use xlink:href="#TeXGyreTermes-Regular-6e" transform="translate(522.099884 0)"/>
      <use xlink:href="#TeXGyreTermes-Regular-69" transform="translate(572.099869 0)"/>
      <use xlink:href="#TeXGyreTermes-Regular-67" transform="translate(599.899857 0)"/>
     </g>
    </g>
    <g id="line2d_19">
     <path d="M 251.169375 231.625 
L 263.169375 231.625 
L 275.169375 231.625 
" style="fill: none; stroke: #ff7f0e; stroke-width: 2; stroke-linecap: square"/>
    </g>
    <g id="text_11">
     <!-- Phasenrandomisierung-Done -->
     <g transform="translate(284.769375 235.825) scale(0.12 -0.12)">
      <defs>
       <path id="TeXGyreTermes-Regular-50" d="M 3469 3078 
C 3469 3347 3379 3590 3206 3776 
C 2950 4058 2394 4237 1792 4237 
L 102 4237 
L 102 4115 
C 576 4064 640 4000 640 3539 
L 640 768 
C 640 230 589 166 102 122 
L 102 0 
L 1894 0 
L 1894 122 
C 1389 141 1293 230 1293 698 
L 1293 1862 
C 1459 1850 1568 1843 1734 1843 
C 2234 1843 2579 1907 2854 2061 
C 3238 2266 3469 2656 3469 3078 
z
M 2771 3040 
C 2771 2419 2394 2099 1658 2099 
C 1530 2099 1440 2106 1293 2118 
L 1293 3782 
C 1293 3955 1338 4000 1510 4000 
C 2374 4000 2771 3699 2771 3040 
z
" transform="scale(0.015625)"/>
       <path id="TeXGyreTermes-Regular-68" d="M 3117 0 
L 3117 96 
C 2771 160 2733 211 2733 653 
L 2733 1926 
C 2733 2598 2464 2944 1946 2944 
C 1568 2944 1299 2790 1005 2406 
L 1005 4352 
L 973 4371 
C 755 4294 595 4243 237 4141 
L 64 4090 
L 64 3987 
C 90 3994 109 3994 141 3994 
C 416 3994 467 3942 467 3667 
L 467 653 
C 467 205 429 147 58 96 
L 58 0 
L 1440 0 
L 1440 96 
C 1069 134 1005 211 1005 653 
L 1005 2195 
C 1274 2490 1466 2598 1715 2598 
C 2035 2598 2195 2368 2195 1920 
L 2195 653 
C 2195 218 2131 134 1760 96 
L 1760 0 
L 3117 0 
z
" transform="scale(0.015625)"/>
       <path id="TeXGyreTermes-Regular-61" d="M 2829 256 
L 2829 422 
C 2720 333 2643 301 2547 301 
C 2400 301 2355 390 2355 672 
L 2355 1920 
C 2355 2246 2323 2426 2234 2573 
C 2099 2816 1824 2944 1434 2944 
C 1107 2944 800 2854 621 2707 
C 461 2573 358 2387 358 2227 
C 358 2080 480 1952 634 1952 
C 787 1952 922 2080 922 2221 
C 922 2246 915 2278 909 2323 
C 896 2381 890 2432 890 2477 
C 890 2650 1094 2790 1350 2790 
C 1664 2790 1837 2605 1837 2259 
L 1837 1869 
C 851 1472 742 1421 467 1178 
C 326 1050 237 832 237 621 
C 237 218 512 -64 909 -64 
C 1190 -64 1453 70 1843 403 
C 1875 64 1990 -64 2253 -64 
C 2470 -64 2605 13 2829 256 
z
M 1837 787 
C 1837 589 1805 531 1670 448 
C 1517 358 1338 307 1203 307 
C 979 307 800 525 800 800 
L 800 826 
C 800 1203 1062 1434 1837 1715 
L 1837 787 
z
" transform="scale(0.015625)"/>
       <path id="TeXGyreTermes-Regular-73" d="M 2227 755 
C 2227 1075 2080 1286 1690 1517 
L 998 1926 
C 819 2029 723 2189 723 2362 
C 723 2624 922 2797 1216 2797 
C 1581 2797 1773 2586 1920 2010 
L 2016 2010 
L 1990 2880 
L 1920 2880 
L 1907 2867 
C 1850 2822 1843 2816 1818 2816 
C 1779 2816 1715 2829 1645 2861 
C 1510 2912 1363 2938 1210 2938 
C 685 2938 326 2618 326 2150 
C 326 1792 531 1542 1075 1229 
L 1446 1018 
C 1670 890 1779 736 1779 538 
C 1779 256 1574 77 1248 77 
C 806 77 582 320 435 973 
L 333 973 
L 333 -26 
L 416 -26 
C 461 38 486 51 563 51 
C 634 51 704 38 858 0 
C 1037 -38 1197 -64 1331 -64 
C 1818 -64 2227 307 2227 755 
z
" transform="scale(0.015625)"/>
       <path id="TeXGyreTermes-Regular-64" d="M 3142 269 
L 3142 371 
C 3027 365 3014 365 2995 365 
C 2765 365 2714 435 2714 730 
L 2714 4358 
L 2682 4371 
C 2374 4262 2150 4198 1741 4090 
L 1741 3987 
C 1792 3994 1830 3994 1882 3994 
C 2118 3994 2176 3930 2176 3667 
L 2176 2669 
C 1933 2874 1760 2944 1504 2944 
C 768 2944 173 2221 173 1312 
C 173 493 653 -64 1357 -64 
C 1715 -64 1958 64 2176 365 
L 2176 -45 
L 2202 -64 
L 3142 269 
z
M 2176 653 
C 2176 608 2131 531 2067 461 
C 1952 333 1792 269 1606 269 
C 1075 269 723 781 723 1568 
C 723 2291 1037 2765 1523 2765 
C 1862 2765 2176 2464 2176 2125 
L 2176 653 
z
" transform="scale(0.015625)"/>
       <path id="TeXGyreTermes-Regular-75" d="M 3066 230 
L 3066 320 
L 3034 320 
C 2739 320 2669 390 2669 685 
L 2669 2880 
L 1658 2880 
L 1658 2771 
C 2054 2752 2131 2688 2131 2368 
L 2131 864 
C 2131 691 2099 595 2022 538 
C 1843 384 1645 307 1446 307 
C 1197 307 992 525 992 794 
L 992 2880 
L 58 2880 
L 58 2790 
C 365 2771 454 2675 454 2381 
L 454 768 
C 454 262 762 -64 1229 -64 
C 1466 -64 1715 38 1888 211 
L 2163 486 
L 2163 -45 
L 2189 -58 
C 2509 70 2739 141 3066 230 
z
" transform="scale(0.015625)"/>
       <path id="TeXGyreTermes-Regular-44" d="M 4384 2138 
C 4384 2714 4192 3213 3840 3565 
C 3405 4006 2707 4237 1830 4237 
L 102 4237 
L 102 4115 
C 608 4070 666 4013 666 3539 
L 666 698 
C 666 237 589 154 102 122 
L 102 0 
L 1920 0 
C 2662 0 3334 211 3731 570 
C 4147 947 4384 1517 4384 2138 
z
M 3686 2093 
C 3686 1338 3424 800 2906 499 
C 2579 314 2208 237 1651 237 
C 1395 237 1318 294 1318 499 
L 1318 3750 
C 1318 3949 1389 4000 1651 4000 
C 2202 4000 2618 3898 2925 3680 
C 3424 3334 3686 2784 3686 2093 
z
" transform="scale(0.015625)"/>
      </defs>
      <use xlink:href="#TeXGyreTermes-Regular-50"/>
      <use xlink:href="#TeXGyreTermes-Regular-68" transform="translate(55.599991 0)"/>
      <use xlink:href="#TeXGyreTermes-Regular-61" transform="translate(105.599976 0)"/>
      <use xlink:href="#TeXGyreTermes-Regular-73" transform="translate(149.999969 0)"/>
      <use xlink:href="#TeXGyreTermes-Regular-65" transform="translate(188.899963 0)"/>
      <use xlink:href="#TeXGyreTermes-Regular-6e" transform="translate(233.299957 0)"/>
      <use xlink:href="#TeXGyreTermes-Regular-72" transform="translate(283.299942 0)"/>
      <use xlink:href="#TeXGyreTermes-Regular-61" transform="translate(316.59993 0)"/>
      <use xlink:href="#TeXGyreTermes-Regular-6e" transform="translate(360.999924 0)"/>
      <use xlink:href="#TeXGyreTermes-Regular-64" transform="translate(410.999908 0)"/>
      <use xlink:href="#TeXGyreTermes-Regular-6f" transform="translate(460.999893 0)"/>
      <use xlink:href="#TeXGyreTermes-Regular-6d" transform="translate(510.999878 0)"/>
      <use xlink:href="#TeXGyreTermes-Regular-69" transform="translate(588.799866 0)"/>
      <use xlink:href="#TeXGyreTermes-Regular-73" transform="translate(616.599854 0)"/>
      <use xlink:href="#TeXGyreTermes-Regular-69" transform="translate(655.499847 0)"/>
      <use xlink:href="#TeXGyreTermes-Regular-65" transform="translate(683.299835 0)"/>
      <use xlink:href="#TeXGyreTermes-Regular-72" transform="translate(727.699829 0)"/>
      <use xlink:href="#TeXGyreTermes-Regular-75" transform="translate(760.999817 0)"/>
      <use xlink:href="#TeXGyreTermes-Regular-6e" transform="translate(810.999802 0)"/>
      <use xlink:href="#TeXGyreTermes-Regular-67" transform="translate(860.999786 0)"/>
      <use xlink:href="#TeXGyreTermes-Regular-2d" transform="translate(910.999771 0)"/>
      <use xlink:href="#TeXGyreTermes-Regular-44" transform="translate(944.299759 0)"/>
      <use xlink:href="#TeXGyreTermes-Regular-6f" transform="translate(1016.499741 0)"/>
      <use xlink:href="#TeXGyreTermes-Regular-6e" transform="translate(1066.499725 0)"/>
      <use xlink:href="#TeXGyreTermes-Regular-65" transform="translate(1116.49971 0)"/>
     </g>
    </g>
    <g id="line2d_20">
     <path d="M 251.169375 248.640625 
L 263.169375 248.640625 
L 275.169375 248.640625 
" style="fill: none; stroke: #2ca02c; stroke-width: 2; stroke-linecap: square"/>
    </g>
    <g id="text_12">
     <!-- FracDiffTime -->
     <g transform="translate(284.769375 252.840625) scale(0.12 -0.12)">
      <defs>
       <path id="TeXGyreTermes-Regular-46" d="M 3494 3322 
L 3475 4237 
L 77 4237 
L 77 4115 
C 550 4077 634 3987 634 3539 
L 634 768 
C 634 237 563 154 77 122 
L 77 0 
L 1869 0 
L 1869 122 
C 1376 147 1286 237 1286 698 
L 1286 2093 
L 2214 2093 
C 2733 2093 2842 1997 2918 1478 
L 3066 1478 
L 3066 2963 
L 2918 2963 
C 2842 2451 2726 2355 2214 2355 
L 1286 2355 
L 1286 3776 
C 1286 3955 1318 3994 1491 3994 
L 2362 3994 
C 3085 3994 3226 3898 3334 3322 
L 3494 3322 
z
" transform="scale(0.015625)"/>
       <path id="TeXGyreTermes-Regular-63" d="M 2637 941 
L 2547 998 
C 2240 550 2010 397 1645 397 
C 1056 397 653 909 653 1645 
C 653 2310 1005 2758 1523 2758 
C 1754 2758 1837 2688 1901 2451 
L 1939 2310 
C 1990 2125 2106 2016 2246 2016 
C 2413 2016 2547 2138 2547 2285 
C 2547 2643 2099 2944 1562 2944 
C 1261 2944 954 2829 698 2618 
C 352 2330 160 1888 160 1357 
C 160 531 666 -64 1376 -64 
C 1651 -64 1894 26 2112 205 
C 2304 358 2432 544 2637 941 
z
" transform="scale(0.015625)"/>
       <path id="TeXGyreTermes-Regular-66" d="M 2451 3974 
C 2451 4205 2170 4371 1786 4371 
C 1382 4371 1050 4198 883 3910 
C 717 3622 666 3392 659 2880 
L 134 2880 
L 134 2675 
L 659 2675 
L 659 666 
C 659 198 589 122 128 96 
L 128 0 
L 1792 0 
L 1792 96 
C 1267 115 1197 186 1197 666 
L 1197 2675 
L 1978 2675 
L 1978 2880 
L 1190 2880 
L 1190 3622 
C 1190 4000 1312 4192 1555 4192 
C 1696 4192 1779 4128 1894 3942 
C 1997 3770 2074 3712 2182 3712 
C 2336 3712 2451 3827 2451 3974 
z
" transform="scale(0.015625)"/>
      </defs>
      <use xlink:href="#TeXGyreTermes-Regular-46"/>
      <use xlink:href="#TeXGyreTermes-Regular-72" transform="translate(55.599991 0)"/>
      <use xlink:href="#TeXGyreTermes-Regular-61" transform="translate(88.899979 0)"/>
      <use xlink:href="#TeXGyreTermes-Regular-63" transform="translate(133.299973 0)"/>
      <use xlink:href="#TeXGyreTermes-Regular-44" transform="translate(177.699966 0)"/>
      <use xlink:href="#TeXGyreTermes-Regular-69" transform="translate(249.899948 0)"/>
      <use xlink:href="#TeXGyreTermes-Regular-66" transform="translate(277.699936 0)"/>
      <use xlink:href="#TeXGyreTermes-Regular-66" transform="translate(310.999924 0)"/>
      <use xlink:href="#TeXGyreTermes-Regular-54" transform="translate(344.299911 0)"/>
      <use xlink:href="#TeXGyreTermes-Regular-69" transform="translate(405.399902 0)"/>
      <use xlink:href="#TeXGyreTermes-Regular-6d" transform="translate(433.19989 0)"/>
      <use xlink:href="#TeXGyreTermes-Regular-65" transform="translate(510.999878 0)"/>
     </g>
    </g>
   </g>
  </g>
 </g>
 <defs>
  <clipPath id="p2b7555a53d">
   <rect x="107.5475" y="25.92" width="327.3325" height="240.325"/>
  </clipPath>
 </defs>
</svg>
