<?xml version="1.0" encoding="utf-8" standalone="no"?>
<!DOCTYPE svg PUBLIC "-//W3C//DTD SVG 1.1//EN"
  "http://www.w3.org/Graphics/SVG/1.1/DTD/svg11.dtd">
<svg xmlns:xlink="http://www.w3.org/1999/xlink" width="460.8pt" height="345.6pt" viewBox="0 0 460.8 345.6" xmlns="http://www.w3.org/2000/svg" version="1.1">
 <metadata>
  <rdf:RDF xmlns:dc="http://purl.org/dc/elements/1.1/" xmlns:cc="http://creativecommons.org/ns#" xmlns:rdf="http://www.w3.org/1999/02/22-rdf-syntax-ns#">
   <cc:Work>
    <dc:type rdf:resource="http://purl.org/dc/dcmitype/StillImage"/>
    <dc:date>2025-12-15T12:41:15.481603</dc:date>
    <dc:format>image/svg+xml</dc:format>
    <dc:creator>
     <cc:Agent>
      <dc:title>Matplotlib v3.10.6, https://matplotlib.org/</dc:title>
     </cc:Agent>
    </dc:creator>
   </cc:Work>
  </rdf:RDF>
 </metadata>
 <defs>
  <style type="text/css">*{stroke-linejoin: round; stroke-linecap: butt}</style>
 </defs>
 <g id="figure_1">
  <g id="patch_1">
   <path d="M 0 345.6 
L 460.8 345.6 
L 460.8 0 
L 0 0 
z
" style="fill: #ffffff"/>
  </g>
  <g id="axes_1">
   <g id="patch_2">
    <path d="M 107.5475 266.245 
L 417.894886 266.245 
L 417.894886 25.92 
L 107.5475 25.92 
z
" style="fill: #ffffff"/>
   </g>
   <g id="matplotlib.axis_1">
    <g id="xtick_1">
     <g id="line2d_1">
      <path d="M 156.894671 266.245 
L 156.894671 25.92 
" clip-path="url(#p7aae8c5496)" style="fill: none; stroke: #b0b0b0; stroke-width: 0.8; stroke-linecap: square"/>
     </g>
     <g id="line2d_2">
      <defs>
       <path id="m9a89b97bb2" d="M 0 0 
L 0 3.5 
" style="stroke: #000000; stroke-width: 0.8"/>
      </defs>
      <g>
       <use xlink:href="#m9a89b97bb2" x="156.894671" y="266.245" style="stroke: #000000; stroke-width: 0.8"/>
      </g>
     </g>
     <g id="text_1">
      <!-- 0 -->
      <g transform="translate(150.894671 289.63625) scale(0.24 -0.24)">
       <defs>
        <path id="TeXGyreTermes-Regular-30" d="M 3046 2112 
C 3046 3424 2464 4326 1626 4326 
C 1274 4326 1005 4218 768 3994 
C 397 3635 154 2899 154 2150 
C 154 1453 365 704 666 346 
C 902 64 1229 -90 1600 -90 
C 1926 -90 2202 19 2432 243 
C 2803 595 3046 1338 3046 2112 
z
M 2432 2099 
C 2432 762 2150 77 1600 77 
C 1050 77 768 762 768 2093 
C 768 3450 1056 4160 1606 4160 
C 2144 4160 2432 3437 2432 2099 
z
" transform="scale(0.015625)"/>
       </defs>
       <use xlink:href="#TeXGyreTermes-Regular-30"/>
      </g>
     </g>
    </g>
    <g id="xtick_2">
     <g id="line2d_3">
      <path d="M 243.61379 266.245 
L 243.61379 25.92 
" clip-path="url(#p7aae8c5496)" style="fill: none; stroke: #b0b0b0; stroke-width: 0.8; stroke-linecap: square"/>
     </g>
     <g id="line2d_4">
      <g>
       <use xlink:href="#m9a89b97bb2" x="243.61379" y="266.245" style="stroke: #000000; stroke-width: 0.8"/>
      </g>
     </g>
     <g id="text_2">
      <!-- 250 -->
      <g transform="translate(225.61379 289.63625) scale(0.24 -0.24)">
       <defs>
        <path id="TeXGyreTermes-Regular-32" d="M 3040 877 
L 2957 909 
C 2720 544 2637 486 2349 486 
L 819 486 
L 1894 1613 
C 2464 2208 2714 2694 2714 3194 
C 2714 3834 2195 4326 1530 4326 
C 1178 4326 845 4186 608 3930 
C 403 3712 307 3507 198 3053 
L 333 3021 
C 589 3648 819 3853 1261 3853 
C 1798 3853 2163 3488 2163 2950 
C 2163 2451 1869 1856 1331 1286 
L 192 77 
L 192 0 
L 2688 0 
L 3040 877 
z
" transform="scale(0.015625)"/>
        <path id="TeXGyreTermes-Regular-35" d="M 2803 4358 
L 2746 4403 
C 2650 4269 2586 4237 2451 4237 
L 1114 4237 
L 416 2720 
C 410 2707 410 2688 410 2688 
C 410 2656 435 2637 486 2637 
C 691 2637 947 2592 1210 2509 
C 1946 2272 2285 1875 2285 1242 
C 2285 627 1894 147 1395 147 
C 1267 147 1158 192 966 333 
C 762 480 614 544 480 544 
C 294 544 205 467 205 307 
C 205 64 506 -90 986 -90 
C 1523 -90 1984 83 2304 410 
C 2598 698 2733 1062 2733 1549 
C 2733 2010 2611 2304 2291 2624 
C 2010 2906 1645 3053 890 3187 
L 1158 3731 
L 2413 3731 
C 2515 3731 2541 3744 2560 3789 
L 2803 4358 
z
" transform="scale(0.015625)"/>
       </defs>
       <use xlink:href="#TeXGyreTermes-Regular-32"/>
       <use xlink:href="#TeXGyreTermes-Regular-35" transform="translate(49.999985 0)"/>
       <use xlink:href="#TeXGyreTermes-Regular-30" transform="translate(99.999969 0)"/>
      </g>
     </g>
    </g>
    <g id="xtick_3">
     <g id="line2d_5">
      <path d="M 330.332909 266.245 
L 330.332909 25.92 
" clip-path="url(#p7aae8c5496)" style="fill: none; stroke: #b0b0b0; stroke-width: 0.8; stroke-linecap: square"/>
     </g>
     <g id="line2d_6">
      <g>
       <use xlink:href="#m9a89b97bb2" x="330.332909" y="266.245" style="stroke: #000000; stroke-width: 0.8"/>
      </g>
     </g>
     <g id="text_3">
      <!-- 500 -->
      <g transform="translate(312.332909 289.63625) scale(0.24 -0.24)">
       <use xlink:href="#TeXGyreTermes-Regular-35"/>
       <use xlink:href="#TeXGyreTermes-Regular-30" transform="translate(49.999985 0)"/>
       <use xlink:href="#TeXGyreTermes-Regular-30" transform="translate(99.999969 0)"/>
      </g>
     </g>
    </g>
    <g id="xtick_4">
     <g id="line2d_7">
      <path d="M 417.052028 266.245 
L 417.052028 25.92 
" clip-path="url(#p7aae8c5496)" style="fill: none; stroke: #b0b0b0; stroke-width: 0.8; stroke-linecap: square"/>
     </g>
     <g id="line2d_8">
      <g>
       <use xlink:href="#m9a89b97bb2" x="417.052028" y="266.245" style="stroke: #000000; stroke-width: 0.8"/>
      </g>
     </g>
     <g id="text_4">
      <!-- 750 -->
      <g transform="translate(399.052028 289.63625) scale(0.24 -0.24)">
       <defs>
        <path id="TeXGyreTermes-Regular-37" d="M 2874 4134 
L 2874 4237 
L 506 4237 
L 128 3296 
L 237 3245 
C 512 3680 627 3763 979 3763 
L 2368 3763 
L 1101 -51 
L 1517 -51 
L 2874 4134 
z
" transform="scale(0.015625)"/>
       </defs>
       <use xlink:href="#TeXGyreTermes-Regular-37"/>
       <use xlink:href="#TeXGyreTermes-Regular-35" transform="translate(49.999985 0)"/>
       <use xlink:href="#TeXGyreTermes-Regular-30" transform="translate(99.999969 0)"/>
      </g>
     </g>
    </g>
    <g id="text_5">
     <!-- x -->
     <g transform="translate(256.721193 315.23625) scale(0.24 -0.24)">
      <defs>
       <path id="TeXGyreTermes-Regular-78" d="M 3066 0 
L 3066 96 
C 2867 96 2739 198 2541 480 
L 1722 1734 
L 2253 2502 
C 2374 2675 2566 2778 2771 2784 
L 2771 2880 
L 1760 2880 
L 1760 2784 
C 1952 2771 2016 2733 2016 2643 
C 2016 2566 1939 2426 1779 2227 
C 1747 2189 1670 2074 1587 1946 
L 1498 2074 
C 1318 2342 1203 2560 1203 2643 
C 1203 2733 1286 2778 1478 2784 
L 1478 2880 
L 154 2880 
L 154 2784 
L 211 2784 
C 403 2784 506 2701 704 2400 
L 1306 1478 
L 576 422 
C 384 160 320 115 109 96 
L 109 0 
L 1037 0 
L 1037 96 
C 858 96 781 128 781 211 
C 781 250 826 346 909 474 
L 1414 1261 
L 1997 365 
C 2022 326 2035 288 2035 250 
C 2035 134 1990 109 1779 96 
L 1779 0 
L 3066 0 
z
" transform="scale(0.015625)"/>
      </defs>
      <use xlink:href="#TeXGyreTermes-Regular-78"/>
     </g>
    </g>
   </g>
   <g id="matplotlib.axis_2">
    <g id="ytick_1">
     <g id="line2d_9">
      <path d="M 107.5475 209.609268 
L 417.894886 209.609268 
" clip-path="url(#p7aae8c5496)" style="fill: none; stroke: #b0b0b0; stroke-width: 0.8; stroke-linecap: square"/>
     </g>
     <g id="line2d_10">
      <defs>
       <path id="m86c00b1bda" d="M 0 0 
L -3.5 0 
" style="stroke: #000000; stroke-width: 0.8"/>
      </defs>
      <g>
       <use xlink:href="#m86c00b1bda" x="107.5475" y="209.609268" style="stroke: #000000; stroke-width: 0.8"/>
      </g>
     </g>
     <g id="text_6">
      <!-- −200 -->
      <g transform="translate(51.01 217.804893) scale(0.24 -0.24)">
       <defs>
        <path id="TeXGyreTermes-Regular-2212" d="M 3354 1389 
L 3354 1811 
L 256 1811 
L 256 1389 
L 3354 1389 
z
" transform="scale(0.015625)"/>
       </defs>
       <use xlink:href="#TeXGyreTermes-Regular-2212"/>
       <use xlink:href="#TeXGyreTermes-Regular-32" transform="translate(56.399994 0)"/>
       <use xlink:href="#TeXGyreTermes-Regular-30" transform="translate(106.399979 0)"/>
       <use xlink:href="#TeXGyreTermes-Regular-30" transform="translate(156.399963 0)"/>
      </g>
     </g>
    </g>
    <g id="ytick_2">
     <g id="line2d_11">
      <path d="M 107.5475 145.280459 
L 417.894886 145.280459 
" clip-path="url(#p7aae8c5496)" style="fill: none; stroke: #b0b0b0; stroke-width: 0.8; stroke-linecap: square"/>
     </g>
     <g id="line2d_12">
      <g>
       <use xlink:href="#m86c00b1bda" x="107.5475" y="145.280459" style="stroke: #000000; stroke-width: 0.8"/>
      </g>
     </g>
     <g id="text_7">
      <!-- 0 -->
      <g transform="translate(88.5475 153.476084) scale(0.24 -0.24)">
       <use xlink:href="#TeXGyreTermes-Regular-30"/>
      </g>
     </g>
    </g>
    <g id="ytick_3">
     <g id="line2d_13">
      <path d="M 107.5475 80.951649 
L 417.894886 80.951649 
" clip-path="url(#p7aae8c5496)" style="fill: none; stroke: #b0b0b0; stroke-width: 0.8; stroke-linecap: square"/>
     </g>
     <g id="line2d_14">
      <g>
       <use xlink:href="#m86c00b1bda" x="107.5475" y="80.951649" style="stroke: #000000; stroke-width: 0.8"/>
      </g>
     </g>
     <g id="text_8">
      <!-- 200 -->
      <g transform="translate(64.5475 89.147274) scale(0.24 -0.24)">
       <use xlink:href="#TeXGyreTermes-Regular-32"/>
       <use xlink:href="#TeXGyreTermes-Regular-30" transform="translate(49.999985 0)"/>
       <use xlink:href="#TeXGyreTermes-Regular-30" transform="translate(99.999969 0)"/>
      </g>
     </g>
    </g>
    <g id="text_9">
     <!-- y -->
     <g transform="translate(41.77875 152.0825) rotate(-90) scale(0.24 -0.24)">
      <defs>
       <path id="TeXGyreTermes-Regular-79" d="M 3040 2784 
L 3040 2880 
L 2176 2880 
L 2176 2784 
C 2381 2784 2483 2726 2483 2624 
C 2483 2598 2477 2560 2458 2515 
L 1837 749 
L 1101 2368 
C 1062 2458 1037 2541 1037 2611 
C 1037 2726 1133 2771 1408 2784 
L 1408 2880 
L 90 2880 
L 90 2790 
C 256 2765 365 2694 416 2586 
L 1472 358 
C 1517 250 1542 173 1542 122 
C 1542 26 1395 -378 1286 -570 
C 1197 -736 1056 -858 966 -858 
C 928 -858 870 -845 806 -813 
C 685 -768 576 -742 467 -742 
C 320 -742 192 -870 192 -1024 
C 192 -1235 397 -1395 666 -1395 
C 1094 -1395 1402 -1037 1747 -115 
L 2733 2496 
C 2816 2701 2886 2765 3040 2784 
z
" transform="scale(0.015625)"/>
      </defs>
      <use xlink:href="#TeXGyreTermes-Regular-79"/>
     </g>
    </g>
   </g>
   <g id="line2d_15">
    <path d="M 156.894671 145.280459 
L 158.089082 146.970316 
L 159.989081 150.221365 
L 161.370799 151.63377 
L 161.994626 152.91108 
L 162.29772 153.518351 
L 162.408435 154.099838 
L 163.411493 156.503887 
L 163.687687 157.714703 
L 163.683343 159.139324 
L 164.092196 159.958232 
L 164.65093 160.806268 
L 165.759938 162.68587 
L 166.9265 163.398423 
L 167.28211 164.271294 
L 167.768638 165.106527 
L 168.520328 166.144917 
L 168.539161 166.374246 
L 168.651841 166.694816 
L 168.907568 166.995319 
L 169.121066 167.398959 
L 169.264842 167.550865 
L 169.517832 168.226214 
L 170.071475 169.384207 
L 170.17564 169.944958 
L 170.379747 170.338977 
L 170.525467 170.467307 
L 170.799942 170.527754 
L 171.622028 171.141271 
L 172.471327 171.992511 
L 172.610424 173.545629 
L 173.052165 174.354706 
L 173.985391 175.26491 
L 174.598299 175.717703 
L 175.166712 176.290598 
L 176.465733 177.184619 
L 177.278181 177.863592 
L 178.625847 179.313328 
L 179.85474 180.087106 
L 180.60698 180.525183 
L 182.342021 181.16856 
L 183.124678 181.518722 
L 184.06043 182.444821 
L 184.920108 183.755263 
L 185.438616 184.277915 
L 189.054329 189.268651 
L 194.579118 193.147454 
L 195.857258 194.401142 
L 196.484529 194.785274 
L 198.527199 195.648624 
L 199.956251 196.425281 
L 201.531896 196.847429 
L 202.960412 197.221443 
L 203.576159 197.546213 
L 205.34849 198.917952 
L 206.609646 199.593273 
L 209.022876 203.287171 
L 211.64379 208.611526 
L 212.81271 210.374457 
L 215.847823 212.617326 
L 216.767687 212.975441 
L 217.23157 212.995255 
L 219.597994 214.140632 
L 220.897232 214.643767 
L 222.171351 215.644881 
L 222.822752 216.581447 
L 223.3701 218.033797 
L 225.710707 220.733498 
L 226.507303 221.77555 
L 227.270407 222.967779 
L 227.576465 223.458478 
L 228.887764 225.105775 
L 229.242386 225.279916 
L 229.665017 226.628388 
L 230.150197 227.286799 
L 230.155051 227.695409 
L 230.612794 228.738669 
L 230.57255 229.390457 
L 230.629408 229.656232 
L 232.091981 231.815824 
L 232.685022 232.639422 
L 233.290422 233.744551 
L 234.726341 235.584634 
L 235.074245 236.219055 
L 235.321338 236.425286 
L 236.23928 236.934096 
L 236.528337 237.206013 
L 236.685773 237.559005 
L 237.125077 238.022552 
L 237.469829 238.708483 
L 238.058921 239.945794 
L 238.291932 241.417037 
L 237.874813 242.25547 
L 237.719721 242.567872 
L 238.349347 243.98113 
L 238.964887 244.692795 
L 239.712373 245.748046 
L 240.119191 246.524308 
L 241.76214 247.268705 
L 244.256683 248.004135 
L 245.461284 248.093975 
L 246.379655 247.92122 
L 247.777212 248.09893 
L 248.089637 247.976672 
L 249.635702 247.934479 
L 250.049078 248.132642 
L 250.631961 248.562933 
L 251.784737 248.656043 
L 252.179235 248.56411 
L 253.771109 248.802086 
L 255.19183 248.539369 
L 256.095904 248.67016 
L 256.317789 248.932664 
L 256.736616 249.212874 
L 258.520942 249.429932 
L 259.521542 249.599763 
L 260.861125 249.86014 
L 264.416626 249.792696 
L 265.123337 249.881928 
L 267.147383 250.457702 
L 268.313735 251.05113 
L 269.782388 252.16406 
L 270.738309 253.181399 
L 270.982226 253.708457 
L 271.531858 254.352527 
L 271.80113 254.525522 
L 272.895998 254.908727 
L 273.923586 255.321136 
L 274.777612 255.093238 
L 275.29871 254.85431 
L 276.904135 254.509505 
L 277.234146 254.345028 
L 278.400868 254.166653 
L 281.617499 252.80163 
L 282.113121 252.431961 
L 283.967947 251.574251 
L 284.594706 251.405162 
L 286.594957 251.383912 
L 287.303346 251.623801 
L 288.09529 251.915556 
L 289.346057 251.60698 
L 290.577469 251.143382 
L 293.947391 250.290023 
L 294.690985 250.166976 
L 296.123058 249.663485 
L 297.504902 249.285451 
L 299.205027 248.504256 
L 300.410409 247.484352 
L 301.343946 246.746962 
L 302.812411 246.348322 
L 303.36725 246.346937 
L 305.239194 245.75843 
L 307.47611 245.833851 
L 308.088114 245.703059 
L 308.758996 245.706999 
L 312.563953 244.336682 
L 315.584223 242.746981 
L 317.040661 241.613252 
L 317.851843 241.2329 
L 318.417069 240.805671 
L 319.364494 239.584267 
L 321.600973 235.844755 
L 322.346677 235.051765 
L 322.482071 234.432273 
L 323.355963 233.978969 
L 324.401236 233.272236 
L 326.174208 231.698604 
L 327.098317 231.29789 
L 327.651087 231.034087 
L 329.066148 229.910622 
L 329.590427 229.897577 
L 329.812759 228.944473 
L 329.750566 228.675021 
L 329.539853 228.364892 
L 329.086412 226.773872 
L 329.216925 225.982912 
L 328.9554 224.992932 
L 329.024526 224.372371 
L 329.433864 223.7406 
L 329.558508 222.654373 
L 329.680502 221.438334 
L 329.90715 220.009175 
L 330.941333 215.646583 
L 332.19328 212.343845 
L 332.464899 210.770151 
L 334.973627 205.33411 
L 335.245637 204.325207 
L 335.446318 202.438322 
L 335.874469 200.843252 
L 336.654265 194.162163 
L 337.866004 192.123169 
L 337.982838 191.556505 
L 337.79096 189.955569 
L 337.597336 189.401577 
L 337.604169 189.081571 
L 337.007063 188.27177 
L 336.391475 186.986869 
L 335.555316 186.534593 
L 335.109478 185.949657 
L 334.638174 185.202112 
L 332.720378 183.445586 
L 332.118224 182.927988 
L 331.997663 182.751551 
L 331.981626 182.39323 
L 332.168321 181.932843 
L 332.022802 181.30678 
L 331.276782 180.668267 
L 330.623434 179.532826 
L 329.029199 178.535087 
L 328.884743 178.319079 
L 328.241357 177.881799 
L 328.377092 177.838161 
L 328.249577 177.66315 
L 327.698321 177.275826 
L 326.405139 176.130404 
L 325.891903 175.826443 
L 325.91489 175.695781 
L 326.13281 175.494344 
L 326.181148 175.013727 
L 326.140451 174.504077 
L 326.189364 174.239745 
L 326.529516 173.813364 
L 326.941675 172.735583 
L 326.825284 170.846165 
L 326.425568 168.174756 
L 326.237734 167.395572 
L 326.147985 165.773426 
L 326.32391 163.596283 
L 326.570967 161.730473 
L 327.046895 160.494871 
L 327.243711 159.258367 
L 327.620508 158.715326 
L 327.762897 158.178577 
L 328.011854 157.796461 
L 328.25773 157.192113 
L 328.41643 156.498606 
L 329.22575 155.242301 
L 330.198272 154.425658 
L 331.295921 153.490726 
L 331.802375 153.059907 
L 332.461997 152.044691 
L 332.987333 151.380042 
L 333.665669 150.413793 
L 334.191349 149.942255 
L 336.095458 147.394491 
L 336.613483 146.385652 
L 336.830662 145.728545 
L 337.00548 145.095747 
L 337.185495 144.831138 
L 337.169767 143.283937 
L 337.531449 141.481852 
L 338.048924 139.442766 
L 337.981273 138.186832 
L 338.395031 137.076211 
L 338.753915 136.576052 
L 339.087096 135.376348 
L 339.184712 134.087116 
L 339.680455 132.725816 
L 340.112212 132.068624 
L 341.030942 130.398487 
L 341.305949 129.116935 
L 341.767112 128.203905 
L 341.543942 127.256209 
L 341.833872 126.564152 
L 341.538306 125.815358 
L 341.551827 125.41435 
L 341.964549 124.812529 
L 342.457646 123.648583 
L 342.719668 122.66285 
L 342.726104 122.173612 
L 342.320913 120.82235 
L 342.12026 120.18705 
L 342.434113 118.997953 
L 343.063824 117.780888 
L 343.123494 116.415419 
L 343.135796 115.246276 
L 343.313332 114.438004 
L 343.102663 113.432888 
L 342.826261 112.929456 
L 341.063264 111.309134 
L 340.624487 111.013411 
L 339.618229 109.69206 
L 338.984483 108.140817 
L 338.928574 106.887669 
L 338.975743 106.574919 
L 339.12002 106.416606 
L 339.570335 105.27486 
L 339.439267 103.91501 
L 339.322687 103.493122 
L 338.878294 102.669904 
L 338.770509 102.213349 
L 338.845897 101.096819 
L 338.411811 99.575214 
L 338.09176 98.302003 
L 337.458223 97.244516 
L 337.20598 96.577384 
L 337.022968 95.460895 
L 336.625789 94.77657 
L 336.148476 94.495655 
L 336.273334 94.444184 
L 336.811093 94.049712 
L 336.954719 93.847345 
L 336.934409 93.452768 
L 337.15687 93.189794 
L 337.879408 91.766471 
L 337.938464 90.334936 
L 337.525808 88.847707 
L 337.190487 88.267983 
L 335.659485 83.461406 
L 335.503516 82.813757 
L 335.500636 82.034129 
L 335.138867 80.097522 
L 333.76813 77.189638 
L 333.364353 76.007543 
L 333.657716 73.909267 
L 334.134288 72.912254 
L 334.345507 71.662769 
L 334.452089 70.56358 
L 334.995992 69.501209 
L 335.899524 68.44534 
L 336.000183 68.135047 
L 337.648036 66.364397 
L 338.973166 63.34841 
L 339.423777 62.909659 
L 340.723991 62.087683 
L 342.649761 60.792689 
L 343.749428 59.710178 
L 345.38224 58.727481 
L 349.292499 56.708165 
L 350.713922 55.629459 
L 351.471998 54.950914 
L 352.109433 54.181268 
L 354.07798 50.908095 
L 355.957276 47.259902 
L 356.218155 46.473854 
L 356.735429 43.18821 
L 358.231805 39.173857 
L 358.750666 38.572009 
L 359.281949 38.087815 
L 359.616015 37.617946 
L 359.69916 37.393724 
L 359.955092 37.127522 
L 360.314914 36.990957 
L 361.714708 36.910833 
L 361.846993 37.075823 
L 362.440902 37.27741 
L 362.746588 37.264654 
L 363.151506 37.409051 
L 363.455787 37.666098 
L 364.722608 38.423217 
L 365.323073 39.005978 
L 366.543127 39.697245 
L 367.091296 40.347523 
L 367.541982 41.027681 
L 367.781937 41.292735 
L 368.523441 41.695814 
L 369.121613 42.133256 
L 369.422902 42.252214 
L 370.543119 43.128005 
L 371.698699 43.176084 
L 373.599422 43.454937 
L 373.969046 43.402631 
L 374.626142 43.538878 
L 376.590914 43.873998 
L 379.789019 46.06026 
L 380.049289 46.368005 
L 380.398213 46.439111 
L 381.633461 47.239503 
L 381.870257 47.614305 
L 382.611208 48.202202 
L 385.017061 49.582201 
L 386.202172 50.89238 
L 387.515144 52.105261 
L 389.532792 53.960482 
L 390.13146 54.517163 
L 390.575243 55.146595 
L 392.274346 57.007639 
L 392.807974 57.665892 
L 396.666769 61.036706 
L 397.289726 61.39762 
L 398.018007 62.24649 
L 398.361979 62.797417 
L 398.74336 63.115897 
L 399.118572 63.648438 
L 400.05304 65.481464 
L 400.352107 65.920143 
L 402.265182 67.561173 
L 402.637716 67.963654 
L 402.944703 68.532926 
L 403.788186 69.688446 
L 403.788186 69.688446 
" clip-path="url(#p7aae8c5496)" style="fill: none; stroke: #1f77b4; stroke-width: 1.5; stroke-linecap: square"/>
   </g>
   <g id="line2d_16">
    <path d="M 156.894671 145.280459 
L 162.146964 148.341999 
L 162.561198 148.727285 
L 163.534714 149.3183 
L 164.493323 150.259624 
L 165.942707 150.852028 
L 167.146198 151.029415 
L 167.704299 151.072645 
L 169.39604 150.747335 
L 176.341579 148.974174 
L 181.574414 146.305209 
L 181.866171 145.865123 
L 182.063918 145.313529 
L 182.578036 144.687739 
L 182.701311 144.441257 
L 182.673761 144.12199 
L 182.917459 143.668832 
L 183.041182 143.670812 
L 183.31114 143.899584 
L 183.449127 143.924842 
L 185.062031 141.991742 
L 185.570824 141.642945 
L 186.440498 141.637576 
L 186.844175 141.86943 
L 187.211329 141.543041 
L 187.561327 141.45691 
L 190.024997 141.825599 
L 192.156214 142.551177 
L 192.217359 142.679059 
L 192.363033 143.883392 
L 196.355983 145.00644 
L 196.869847 145.42809 
L 198.18519 145.82327 
L 198.826293 145.801985 
L 199.817195 146.28769 
L 200.741483 146.644179 
L 201.455039 147.206306 
L 202.241936 150.059283 
L 201.843522 152.861932 
L 201.57643 153.956361 
L 201.887263 154.652776 
L 202.194495 155.15013 
L 203.06402 155.808714 
L 203.399409 156.008941 
L 204.402544 156.060882 
L 204.814247 156.004968 
L 206.169968 156.494632 
L 206.357497 156.665077 
L 208.163231 156.854138 
L 209.515421 157.376324 
L 209.635186 157.53737 
L 209.950096 157.702647 
L 210.211482 158.056553 
L 212.590791 159.856369 
L 213.218098 160.100828 
L 214.052419 160.413423 
L 215.052349 161.193715 
L 220.249063 163.254672 
L 220.586026 163.267259 
L 221.560353 163.773095 
L 222.016264 164.113755 
L 224.334859 164.810583 
L 224.580917 165.058276 
L 225.122025 165.163953 
L 229.103848 165.334023 
L 230.889576 165.461862 
L 231.890663 165.594071 
L 232.963261 165.940051 
L 233.545385 165.964976 
L 234.074832 166.20578 
L 236.013761 166.757455 
L 237.191446 167.376127 
L 238.461165 167.971779 
L 239.66836 168.978037 
L 241.201734 171.015955 
L 242.172037 172.54123 
L 242.719884 173.453682 
L 244.233939 175.18603 
L 245.112416 175.946844 
L 247.061463 177.206346 
L 250.576402 178.998502 
L 251.991615 179.921036 
L 255.822786 181.426352 
L 256.758811 182.308905 
L 257.264395 182.535984 
L 259.130895 183.823381 
L 259.361578 184.120279 
L 260.289561 184.804497 
L 260.551581 185.254153 
L 261.101025 185.701003 
L 261.862728 186.476794 
L 263.321346 186.988319 
L 263.767478 186.994244 
L 264.886132 187.3501 
L 265.599289 187.288479 
L 266.826856 187.231742 
L 268.729701 187.386614 
L 270.092944 187.85645 
L 270.642695 188.149603 
L 272.465667 188.594333 
L 273.035322 188.657234 
L 275.307499 189.743068 
L 275.954799 190.312363 
L 276.178308 190.326282 
L 276.271629 190.182443 
L 276.482371 190.102734 
L 276.761348 190.143734 
L 277.582194 189.679157 
L 277.830761 189.571583 
L 278.425262 190.090018 
L 278.670378 190.208265 
L 278.781276 190.437642 
L 278.277934 192.162212 
L 278.373149 192.515896 
L 278.318667 192.558476 
L 277.90793 192.53292 
L 277.171055 192.636534 
L 276.757462 192.518026 
L 275.380867 191.434743 
L 274.735592 190.798226 
L 273.698491 190.183157 
L 272.117262 189.664742 
L 271.808276 189.368463 
L 271.515777 188.894211 
L 271.270059 188.884976 
L 271.062761 188.513998 
L 270.861773 188.177445 
L 270.780847 187.160726 
L 270.837132 186.71804 
L 270.389506 185.247425 
L 270.006229 184.620581 
L 269.609798 184.315137 
L 269.365102 183.943646 
L 267.905494 182.429396 
L 267.176032 181.20985 
L 267.147458 180.078711 
L 266.900548 179.484237 
L 266.070123 178.43367 
L 265.62302 178.10695 
L 265.43501 178.159689 
L 265.037445 177.915705 
L 264.589614 177.748457 
L 263.968954 177.188948 
L 263.426546 177.007092 
L 262.527372 177.052718 
L 261.899004 177.099278 
L 261.657652 177.326238 
L 261.423016 178.258909 
L 261.055311 178.874563 
L 260.552656 179.960574 
L 259.670707 180.898398 
L 259.220036 180.993052 
L 259.369357 181.062495 
L 259.569943 181.749664 
L 258.960138 182.891028 
L 258.597562 183.370114 
L 257.580818 184.573498 
L 257.097092 185.580254 
L 255.783928 188.837315 
L 253.982541 193.308569 
L 253.181351 194.773405 
L 252.141232 196.016997 
L 251.587359 196.686961 
L 250.861672 198.042914 
L 249.650555 200.169225 
L 249.50854 200.737073 
L 248.888507 201.816092 
L 248.148252 203.097277 
L 247.935055 203.70093 
L 247.835154 203.999603 
L 247.381469 204.87643 
L 247.257934 205.824127 
L 247.042183 206.325489 
L 246.868872 207.36488 
L 246.609493 207.948299 
L 245.941582 209.047901 
L 244.832754 210.864768 
L 243.981014 211.719267 
L 241.654841 214.579407 
L 240.691193 215.600153 
L 239.597599 216.671041 
L 238.020259 217.423469 
L 235.985851 219.242811 
L 235.126599 220.03761 
L 234.644182 220.382128 
L 233.624991 221.525356 
L 233.1594 222.043544 
L 232.075696 222.807581 
L 231.227052 223.3065 
L 230.970427 223.644238 
L 230.767 224.096755 
L 230.637478 225.150202 
L 230.447038 225.935784 
L 230.636334 226.689015 
L 230.624315 227.525935 
L 230.652838 229.495937 
L 231.105135 230.941936 
L 231.01922 231.718235 
L 231.069983 233.81599 
L 231.821517 234.831502 
L 232.292793 235.068972 
L 235.298302 237.374116 
L 235.667702 237.816374 
L 236.418149 238.867555 
L 237.146982 239.362375 
L 237.169557 239.562374 
L 237.068991 239.946194 
L 237.153942 240.897933 
L 237.585829 240.998897 
L 238.003837 241.09838 
L 238.348088 241.341977 
L 238.418516 241.807882 
L 238.473844 242.221965 
L 239.869751 243.054402 
L 240.296725 243.6261 
L 240.438045 243.665695 
L 240.444043 243.743559 
L 241.084128 244.539179 
L 241.381729 245.37 
L 241.771012 245.415074 
L 242.005332 246.024158 
L 241.836736 246.950285 
L 241.45644 247.289555 
L 241.307265 247.378473 
L 241.32979 247.511744 
L 241.564621 247.869444 
L 241.608124 248.585989 
L 241.727802 248.913443 
L 241.616662 248.590738 
L 240.346205 248.434438 
L 238.925271 248.532152 
L 238.323866 248.742289 
L 238.045911 249.028349 
L 237.678831 249.222969 
L 237.31656 249.285355 
L 236.656604 249.65072 
L 236.446994 249.918128 
L 235.73842 250.168979 
L 235.531619 250.248569 
L 234.362567 250.185416 
L 233.936178 250.370402 
L 233.241015 250.415259 
L 232.977437 250.537708 
L 232.290686 250.391143 
L 230.672745 249.815682 
L 229.845177 249.143746 
L 229.187331 248.277594 
L 228.379284 247.772133 
L 227.346273 246.831637 
L 227.022244 246.141766 
L 225.677419 244.97659 
L 225.256917 244.332436 
L 224.136064 243.458574 
L 223.807677 243.066927 
L 223.657422 242.6878 
L 223.569604 241.990051 
L 223.205617 240.836163 
L 223.2713 239.931569 
L 223.237047 239.430773 
L 222.587452 237.511894 
L 222.643674 236.617146 
L 223.04898 234.61447 
L 222.426397 234.584142 
L 221.724966 234.663637 
L 221.478286 234.580974 
L 219.975483 233.35943 
L 219.131962 232.864387 
L 215.848914 231.369616 
L 214.53736 230.147488 
L 212.906855 227.853915 
L 212.145969 227.302476 
L 210.607443 226.708796 
L 209.378322 226.52856 
L 208.309013 226.449544 
L 206.868848 225.838536 
L 203.187444 223.260817 
L 201.934934 222.614455 
L 200.381066 221.790204 
L 198.656582 221.090581 
L 196.257599 218.83678 
L 195.96004 218.42434 
L 195.175796 217.822648 
L 194.163507 217.328334 
L 193.843781 216.911999 
L 193.461294 215.973221 
L 191.466422 213.501175 
L 191.264458 213.175489 
L 190.679452 212.910743 
L 190.004859 212.923776 
L 190.132957 212.79017 
L 190.164544 212.661512 
L 189.461999 212.26545 
L 189.150304 211.914221 
L 188.731374 211.561875 
L 188.422593 210.953788 
L 188.397375 210.616363 
L 188.234493 210.122237 
L 187.540856 209.099633 
L 187.441796 208.805675 
L 187.008956 208.287941 
L 186.720261 207.634984 
L 184.948374 205.48093 
L 184.218244 204.94615 
L 182.979733 203.759574 
L 182.39399 202.781324 
L 182.036576 201.82383 
L 181.629953 201.089874 
L 181.237977 200.862576 
L 180.284602 199.662897 
L 180.124893 199.27517 
L 180.174335 198.930185 
L 179.770151 197.98429 
L 179.131317 196.995754 
L 178.714759 196.185587 
L 178.299131 195.360257 
L 177.576596 194.666888 
L 175.913888 193.966829 
L 175.672584 193.253318 
L 175.282456 192.351994 
L 174.951937 191.86599 
L 174.436186 191.409742 
L 174.087196 190.860304 
L 169.724089 188.135611 
L 168.1726 187.156171 
L 167.669595 186.840121 
L 166.260816 186.304007 
L 165.049444 185.434679 
L 163.692004 184.505733 
L 162.329475 182.905282 
L 161.366356 181.726137 
L 160.325699 179.854531 
L 159.661555 179.060777 
L 158.758385 177.331833 
L 158.127935 176.83862 
L 158.040315 176.306495 
L 158.115115 175.926505 
L 157.912685 174.868682 
L 156.999838 172.510377 
L 156.654798 169.937863 
L 156.484471 169.316467 
L 155.494266 167.242241 
L 155.36882 164.871078 
L 154.961953 163.897256 
L 154.752063 162.466089 
L 154.920984 161.30812 
L 154.855275 160.826601 
L 155.164806 159.804061 
L 155.478427 158.292638 
L 156.894783 155.856501 
L 157.329548 154.429091 
L 157.977242 153.050374 
L 158.297801 151.973767 
L 158.338861 150.868991 
L 158.629942 149.827837 
L 158.538699 148.83074 
L 158.143072 148.008371 
L 158.118804 147.492282 
L 157.473332 145.824455 
L 157.394342 144.918845 
L 157.150097 143.894625 
L 156.884102 143.701204 
L 156.548806 143.696353 
L 156.474713 143.791224 
L 155.679626 143.829545 
L 155.173169 143.923911 
L 155.076248 143.815536 
L 155.018376 143.89561 
L 154.911252 143.974092 
L 155.071155 144.280994 
L 156.436964 145.157764 
L 156.436964 145.157764 
" clip-path="url(#p7aae8c5496)" style="fill: none; stroke: #ff7f0e; stroke-width: 1.5; stroke-linecap: square"/>
   </g>
   <g id="line2d_17">
    <path d="M 156.894671 145.280459 
L 156.440631 145.580148 
L 156.409339 145.309696 
L 157.058094 145.872033 
L 155.995196 145.390013 
L 153.269476 144.052081 
L 150.380685 142.945146 
L 147.71299 141.469287 
L 146.280479 139.997404 
L 145.527248 138.78537 
L 143.946736 137.704101 
L 143.535153 136.72891 
L 143.00385 134.144734 
L 142.696768 133.268604 
L 141.330151 131.313901 
L 140.215437 130.85611 
L 140.123097 130.518792 
L 139.848973 130.491508 
L 140.541116 129.141906 
L 140.770957 127.442975 
L 140.135536 126.166425 
L 140.430637 124.626569 
L 141.256564 123.175097 
L 142.422677 120.13167 
L 142.435008 119.118654 
L 142.619454 117.559799 
L 142.614564 115.822724 
L 143.031508 114.242981 
L 143.03185 112.611927 
L 142.705543 109.647754 
L 142.350363 108.639302 
L 141.639754 107.820238 
L 140.530833 107.500407 
L 139.083467 106.66525 
L 137.835015 105.591952 
L 136.611802 104.90173 
L 134.517867 104.533951 
L 132.435549 104.304379 
L 131.007425 103.966285 
L 129.31177 103.254943 
L 127.231757 102.604314 
L 125.255418 101.295031 
L 123.063867 99.232769 
L 121.821213 96.555606 
L 121.713489 95.489497 
L 121.814459 95.213472 
L 121.750988 94.749239 
L 121.654199 94.999905 
L 121.686535 94.930612 
L 122.361037 94.148249 
L 122.523757 93.937703 
L 123.585032 93.592463 
L 123.866218 93.97952 
L 123.896678 94.650148 
L 124.451881 94.94608 
L 124.496953 95.768039 
L 124.995418 95.971968 
L 125.258233 96.530322 
L 125.897027 96.883691 
L 126.02237 97.084611 
L 127.108127 97.316801 
L 128.531586 97.395091 
L 130.258618 97.335619 
L 133.454875 96.770133 
L 135.027217 95.926675 
L 135.985939 94.954344 
L 136.305879 93.47077 
L 137.514668 90.802674 
L 137.948633 89.556567 
L 138.108976 88.471666 
L 138.818844 87.645721 
L 140.290552 86.891786 
L 141.415573 86.521434 
L 142.520374 85.947151 
L 143.169339 85.40123 
L 143.742459 84.440605 
L 145.139638 83.481689 
L 146.724243 83.102784 
L 147.567585 82.705937 
L 147.511313 82.259827 
L 147.69842 81.532959 
L 148.381081 80.507903 
L 148.482469 79.49772 
L 149.634223 78.629996 
L 151.625863 77.633826 
L 154.120931 75.636004 
L 154.378987 74.774437 
L 154.418831 73.580999 
L 154.278209 72.56471 
L 154.716522 71.815351 
L 154.790512 71.265721 
L 154.764146 70.323606 
L 155.048523 69.512209 
L 155.567925 68.890569 
L 156.168055 68.776686 
L 156.714968 68.286738 
L 157.120699 67.57048 
L 158.613957 65.939238 
L 161.00607 64.877195 
L 161.80625 64.735537 
L 161.726146 64.838411 
L 161.920011 64.651448 
L 161.871853 64.166494 
L 162.054835 63.87159 
L 162.774907 63.54822 
L 163.450551 63.115558 
L 166.917834 59.713643 
L 168.018548 58.517856 
L 168.571212 56.339171 
L 168.731961 55.946957 
L 167.99021 55.077868 
L 167.911999 54.608077 
L 167.374255 54.451068 
L 166.484988 53.682129 
L 163.821394 53.066968 
L 163.151752 53.167713 
L 162.300565 52.962769 
L 160.404996 52.814961 
L 159.764123 52.226568 
L 159.399489 51.192582 
L 159.128869 50.980342 
L 159.47459 50.151889 
L 159.38388 49.364083 
L 159.058553 48.835032 
L 159.22204 48.378621 
L 159.470842 48.080416 
L 160.091768 46.903846 
L 160.568487 46.869433 
L 163.034569 46.189123 
L 163.96355 46.032444 
L 165.974429 46.570816 
L 166.792143 46.997257 
L 167.985264 47.146886 
L 168.981621 47.561918 
L 171.094571 49.416682 
L 172.377521 50.132078 
L 174.714738 50.045924 
L 176.147545 50.775712 
L 176.681955 51.368736 
L 176.8826 51.240832 
L 178.282968 50.994557 
L 178.904282 51.583454 
L 179.95599 51.596438 
L 181.121896 51.108858 
L 181.963626 50.483726 
L 181.80279 50.317629 
L 181.785668 49.825105 
L 181.240663 49.182507 
L 180.893938 49.113767 
L 181.017494 49.005461 
L 181.26103 49.158489 
L 181.404672 48.334116 
L 181.951264 48.439882 
L 181.928749 48.05086 
L 182.187163 48.028481 
L 183.367992 48.058673 
L 183.34866 48.060593 
L 184.126803 47.686281 
L 184.155932 47.896585 
L 185.551731 49.04324 
L 187.887688 49.363712 
L 189.182721 50.681562 
L 189.046182 50.925042 
L 189.050166 50.927117 
L 189.444416 50.773847 
L 190.022401 50.863387 
L 190.155386 51.009156 
L 190.238287 51.306154 
L 189.856365 51.688322 
L 189.306513 51.826297 
L 189.090094 53.364414 
L 188.645953 54.376937 
L 187.788308 55.725221 
L 186.260457 56.721946 
L 184.785559 57.868673 
L 183.304536 58.644782 
L 181.756681 59.62126 
L 180.443388 60.939184 
L 176.117094 62.082458 
L 174.957786 63.07899 
L 173.575773 64.06391 
L 172.610924 65.304282 
L 172.059614 66.677015 
L 169.163499 72.512709 
L 168.815339 73.746545 
L 168.685727 74.736831 
L 168.827622 75.780001 
L 169.681109 77.870826 
L 170.309572 78.539133 
L 171.129389 80.297191 
L 172.412409 81.992212 
L 173.80684 84.715607 
L 174.650064 85.75248 
L 175.305708 85.993273 
L 176.346555 85.956298 
L 177.896544 86.485995 
L 179.016335 87.157236 
L 180.32943 87.583107 
L 181.785151 88.385764 
L 183.315072 89.444002 
L 183.374595 89.839766 
L 184.055057 90.520294 
L 184.630901 91.372908 
L 184.644329 92.17213 
L 185.491672 93.319821 
L 186.79651 94.317495 
L 187.465658 95.089208 
L 187.64959 96.492116 
L 187.612146 97.818361 
L 188.095937 100.220596 
L 188.235979 100.721543 
L 188.092071 100.810974 
L 187.856535 102.34502 
L 187.952947 102.612827 
L 187.888735 103.166185 
L 187.612326 103.489219 
L 187.905648 104.305415 
L 188.265494 104.868258 
L 187.846337 105.371219 
L 188.200513 107.037949 
L 188.583254 107.597083 
L 188.885243 108.244338 
L 188.722928 108.959593 
L 188.772078 109.754599 
L 189.385742 110.171568 
L 189.79853 110.884433 
L 189.603186 111.541407 
L 190.358565 112.562898 
L 191.670088 113.345269 
L 194.228731 113.770102 
L 195.316762 114.320733 
L 196.023942 115.103052 
L 196.954969 115.365558 
L 198.072311 115.881061 
L 199.080882 115.411211 
L 200.04895 115.447871 
L 200.140215 115.08514 
L 200.341465 114.980871 
L 200.734608 115.27144 
L 201.709687 115.485916 
L 201.563168 115.429874 
L 201.974438 114.983483 
L 202.352138 115.340974 
L 202.468187 115.774327 
L 202.24291 116.838032 
L 202.249423 117.474169 
L 203.904318 119.694274 
L 203.918294 121.128738 
L 203.786332 124.127413 
L 203.457791 125.006273 
L 203.928286 126.205887 
L 203.991665 127.116113 
L 202.883867 132.948752 
L 203.083338 134.967017 
L 203.76102 136.563469 
L 203.893636 138.043372 
L 203.567045 139.66998 
L 203.790138 140.802444 
L 204.28553 141.579557 
L 204.92385 142.245657 
L 205.872316 142.818835 
L 206.452456 142.606612 
L 207.046733 142.149754 
L 207.316434 141.505501 
L 207.76823 141.143987 
L 207.997512 140.438226 
L 207.773032 140.645862 
L 206.5689 140.235674 
L 206.094187 139.659797 
L 206.090626 139.033062 
L 206.944407 136.798107 
L 206.463718 135.538553 
L 206.43033 134.43418 
L 205.491555 132.382702 
L 205.344914 131.576595 
L 204.686018 130.88785 
L 204.527178 130.300537 
L 204.890035 129.774354 
L 205.529677 129.313349 
L 205.953849 129.325457 
L 206.453683 129.629557 
L 209.138631 130.051207 
L 209.319413 129.571126 
L 208.847823 129.096353 
L 207.766748 128.527995 
L 206.295128 127.50722 
L 206.364222 127.102253 
L 205.145788 125.987433 
L 205.12552 125.218769 
L 206.516641 123.843764 
L 206.404573 123.537521 
L 205.988274 123.005691 
L 206.143638 122.127642 
L 205.847386 119.363152 
L 205.641922 118.1946 
L 205.70659 117.193793 
L 206.006158 116.82917 
L 206.893109 116.007614 
L 207.214362 114.911206 
L 207.823969 114.039256 
L 208.567693 113.221242 
L 209.096288 112.150777 
L 209.99387 111.60943 
L 211.902672 110.710948 
L 212.274651 110.058332 
L 215.54314 106.37265 
L 216.284701 105.84209 
L 217.335632 104.455938 
L 217.305407 103.911038 
L 217.074382 103.175441 
L 217.15158 102.451599 
L 216.219111 101.89378 
L 215.718507 101.29361 
L 215.594255 100.670311 
L 215.437913 100.742048 
L 215.718726 100.843021 
L 216.996374 100.776803 
L 217.182335 100.337216 
L 218.209561 99.599603 
L 218.749616 98.901341 
L 219.201561 98.927533 
L 219.226283 98.353726 
L 218.729751 97.406894 
L 218.630406 96.553909 
L 219.923637 94.743518 
L 220.53418 94.248782 
L 220.782114 93.647838 
L 221.902777 92.318779 
L 222.32757 91.479596 
L 222.906442 90.709473 
L 223.186281 89.523247 
L 223.28375 89.505066 
L 223.477431 89.255698 
L 223.480432 89.018255 
L 224.37472 87.837565 
L 225.104045 87.75982 
L 225.517494 86.711284 
L 226.129237 86.271082 
L 226.730169 85.993794 
L 227.424156 86.181455 
L 229.014132 85.309307 
L 229.401562 85.239102 
L 229.839725 85.365491 
L 231.731679 85.508789 
L 234.861235 84.941505 
L 235.844449 84.625041 
L 236.964868 84.469317 
L 237.473715 84.118692 
L 237.793191 83.486284 
L 237.884746 82.823906 
L 238.705087 81.792662 
L 239.648585 82.261794 
L 239.848787 82.82009 
L 240.390376 83.191487 
L 240.519096 83.455983 
L 240.051904 84.459652 
L 240.032112 87.290759 
L 240.277482 88.857223 
L 240.312572 90.24345 
L 241.796007 91.76073 
L 242.570566 93.018291 
L 244.764066 94.385616 
L 245.943554 94.760061 
L 247.065104 94.733145 
L 247.751468 94.896877 
L 248.702036 94.553455 
L 250.235864 94.164722 
L 251.161216 93.682455 
L 252.225846 92.82165 
L 253.035336 91.678611 
L 253.898202 91.169434 
L 254.548462 90.488454 
L 255.841192 86.242335 
L 255.848562 85.358242 
L 256.27549 84.110318 
L 256.491378 82.625183 
L 258.336747 79.85303 
L 259.140411 78.789734 
L 259.151301 77.421816 
L 258.875571 75.71321 
L 259.352663 74.047806 
L 259.766343 72.17947 
L 259.840492 68.566747 
L 259.178705 65.720048 
L 258.46619 64.125592 
L 257.960613 62.138475 
L 257.386062 60.340231 
L 256.989515 58.313983 
L 255.887096 56.455973 
L 255.170869 56.244539 
L 253.965409 56.239943 
L 252.801181 56.726984 
L 251.040885 57.180586 
L 250.120872 57.477231 
L 249.562132 58.043876 
L 248.806833 58.578163 
L 248.547631 58.47613 
L 248.343082 58.7363 
L 246.911717 58.410813 
L 247.02396 57.808272 
L 246.632353 57.18196 
L 246.37936 56.091919 
L 246.41049 55.214879 
L 246.891856 55.239421 
L 247.235968 55.893594 
L 247.024049 55.62701 
L 246.797077 55.508504 
L 247.268717 55.634319 
L 247.959492 55.768555 
L 248.509328 55.600652 
L 249.452681 55.157846 
L 250.797616 54.812228 
L 251.495427 55.186295 
L 251.95096 55.596903 
L 252.471904 55.810454 
L 253.509788 57.45663 
L 253.178717 58.850767 
L 252.315189 60.178511 
L 252.245637 60.935474 
L 251.887227 61.575965 
L 250.483424 63.070507 
L 250.044392 63.490245 
L 249.309196 63.411861 
L 248.730024 63.078826 
L 248.232262 62.543808 
L 247.798357 61.683183 
L 246.721586 60.88071 
L 245.985509 59.823196 
L 245.324968 59.419348 
L 244.354451 57.354491 
L 244.422503 56.89108 
L 244.03045 55.773742 
L 244.024322 54.936832 
L 244.754209 53.826473 
L 245.337679 53.421025 
L 246.153586 53.275122 
L 246.935581 53.417366 
L 248.020772 53.456311 
L 248.6104 53.674412 
L 249.09729 54.284651 
L 249.814722 54.774531 
L 250.713008 54.468251 
L 251.411924 53.149282 
L 251.98578 52.607057 
L 252.469729 51.812315 
L 252.509146 51.283319 
L 252.122254 51.144441 
L 252.381635 51.08925 
L 253.01999 50.691943 
L 253.822682 50.526916 
L 255.961318 50.837694 
L 257.076994 50.792875 
L 260.106374 51.298276 
L 261.993093 51.856305 
L 263.57401 51.934357 
L 265.876604 51.811586 
L 267.625202 51.480485 
L 269.472343 51.517839 
L 271.349622 51.869337 
L 272.672902 51.902489 
L 273.508215 51.634462 
L 274.668329 52.132351 
L 277.767559 52.174842 
L 279.594985 51.921636 
L 281.483272 51.33997 
L 282.983758 51.49606 
L 284.415327 51.384531 
L 285.888619 51.535899 
L 287.701378 51.981422 
L 289.467684 53.153986 
L 294.783894 56.155228 
L 296.765548 56.897124 
L 298.770409 57.35549 
L 303.700062 59.298064 
L 305.715239 59.972512 
L 309.183178 61.616242 
L 311.136425 62.232158 
L 315.254652 64.275798 
L 319.177276 67.312286 
L 321.431354 68.689373 
L 322.904417 69.967173 
L 323.435646 71.379486 
L 324.567061 72.909872 
L 325.388526 74.794699 
L 325.631502 75.857298 
L 326.53774 76.62146 
L 327.634573 78.18772 
L 328.459274 79.661213 
L 329.048074 81.29902 
L 330.026814 82.085327 
L 331.326132 84.207375 
L 332.296679 85.073526 
L 333.447185 85.668386 
L 333.864364 86.236535 
L 333.962512 88.130566 
L 333.157896 89.218843 
L 333.449322 89.795467 
L 333.820722 90.043177 
L 334.030863 90.91949 
L 333.616597 90.763854 
L 333.547124 90.912191 
L 333.23526 90.501541 
L 332.64055 90.249474 
L 332.277422 89.773819 
L 332.492979 89.781816 
L 332.740575 90.310823 
L 332.240644 90.921245 
L 332.541339 91.77697 
L 333.643524 92.147995 
L 334.136581 92.909087 
L 333.892219 93.816303 
L 333.822735 94.804812 
L 332.296192 96.637838 
L 331.325203 98.772642 
L 330.51547 99.533967 
L 329.266323 99.662433 
L 326.175001 100.862789 
L 324.464728 101.419273 
L 323.925881 101.135265 
L 322.802575 101.576126 
L 321.64685 101.727117 
L 319.610547 103.443006 
L 319.141297 104.351026 
L 318.815026 105.524485 
L 319.247112 106.16333 
L 319.916289 106.375903 
L 320.02241 106.823434 
L 320.952339 107.600192 
L 321.28475 108.03394 
L 321.735009 109.127943 
L 321.743195 109.795568 
L 321.35109 110.984355 
L 321.380228 111.906955 
L 320.820272 113.025479 
L 319.093737 114.167658 
L 319.182268 116.244439 
L 319.710074 118.480491 
L 319.683216 119.417572 
L 319.28674 120.689555 
L 319.562716 122.030105 
L 321.346625 124.417294 
L 322.45749 125.295046 
L 323.580005 126.590547 
L 324.410022 128.410198 
L 325.343363 130.048224 
L 326.251839 131.095513 
L 327.516424 132.228548 
L 328.851621 134.411268 
L 329.689604 134.675602 
L 329.654279 134.797395 
L 330.94233 136.090797 
L 331.56738 136.910494 
L 331.696138 137.599193 
L 331.563297 137.761808 
L 331.815532 137.712237 
L 331.746094 137.867816 
L 332.269174 138.764453 
L 333.367286 139.553295 
L 333.889035 140.826301 
L 333.839833 141.136623 
L 333.356921 142.008203 
L 333.753731 143.01753 
L 333.391282 144.194218 
L 333.560171 145.212884 
L 333.442309 146.393289 
L 334.246027 149.331525 
L 333.854733 150.67025 
L 334.109468 151.258792 
L 334.328743 152.320751 
L 332.969322 154.683886 
L 329.096239 157.204825 
L 328.211801 157.46976 
L 327.615042 158.257003 
L 326.760274 159.823032 
L 326.625538 160.652141 
L 326.136023 161.019656 
L 325.21571 161.136041 
L 324.43281 161.911245 
L 323.829906 162.033539 
L 323.600093 161.568241 
L 323.442074 161.592413 
L 322.290324 161.255796 
L 321.97283 161.039924 
L 321.230211 161.175698 
L 320.105533 161.024497 
L 319.165304 161.210945 
L 318.246307 161.193209 
L 316.914604 161.575492 
L 314.506674 161.689168 
L 313.090375 161.282771 
L 312.162165 160.989743 
L 310.476166 160.113586 
L 310.417631 158.894781 
L 310.29067 158.216678 
L 310.590536 157.907837 
L 310.680824 157.367837 
L 309.266567 156.216264 
L 308.757107 156.169747 
L 307.998108 155.913585 
L 306.693577 155.893527 
L 305.857019 156.706929 
L 305.236343 157.147085 
L 304.756802 156.978911 
L 304.662341 156.791259 
L 303.766755 156.189162 
L 302.696368 156.348722 
L 301.853401 156.839519 
L 301.408673 157.763752 
L 301.576588 158.395649 
L 302.152424 159.065019 
L 302.50796 161.274228 
L 302.419139 162.40783 
L 301.084984 164.94004 
L 300.151662 167.215344 
L 299.477204 168.381363 
L 299.417497 169.569724 
L 299.018215 170.265172 
L 298.849149 170.984472 
L 298.854359 171.533074 
L 297.575692 172.983421 
L 297.571765 173.694228 
L 297.132015 174.060823 
L 296.649436 174.760559 
L 296.816372 174.994459 
L 297.32585 175.479712 
L 298.226137 175.458378 
L 298.753296 176.441637 
L 299.592391 176.508427 
L 300.181323 176.10339 
L 300.555042 175.095776 
L 301.748602 173.753962 
L 302.879731 173.530334 
L 302.886476 173.146562 
L 301.698469 170.849756 
L 301.581623 169.246297 
L 301.37602 168.130098 
L 300.955365 167.002804 
L 299.884624 166.147685 
L 296.063443 162.354246 
L 294.989942 161.642318 
L 294.623925 160.947116 
L 294.187596 157.799134 
L 292.644171 154.30172 
L 291.980471 153.489047 
L 291.773457 152.373071 
L 292.861108 151.084536 
L 295.421929 149.398627 
L 298.148406 149.157273 
L 300.120285 148.938203 
L 302.091335 149.126078 
L 303.781924 149.034255 
L 305.069387 148.818683 
L 306.43437 148.806993 
L 309.111374 150.062019 
L 310.650411 151.144666 
L 311.587132 151.954066 
L 312.146611 153.082949 
L 312.850457 153.973425 
L 312.78644 155.21548 
L 312.424418 156.144677 
L 312.66561 156.98398 
L 312.440108 157.972508 
L 311.790015 158.555613 
L 311.589537 159.615942 
L 311.18917 160.692685 
L 311.093172 162.142826 
L 311.021016 162.950756 
L 310.56025 163.912211 
L 309.787435 165.003433 
L 308.86648 165.814033 
L 308.193281 166.916604 
L 306.603266 168.155596 
L 306.358903 168.604653 
L 306.177772 169.26089 
L 306.189645 170.562373 
L 306.631347 170.684096 
L 306.871545 170.949218 
L 307.538185 169.492802 
L 308.297674 168.860176 
L 308.68307 168.142442 
L 309.392835 166.219524 
L 309.767031 165.772672 
L 309.778276 164.95861 
L 309.983988 163.826594 
L 310.296815 162.764766 
L 310.979382 161.799559 
L 310.708877 157.317752 
L 311.350104 155.896999 
L 311.615 154.870219 
L 311.554011 154.045081 
L 311.667369 152.832642 
L 311.368405 151.713209 
L 311.452668 151.387072 
L 311.818227 150.765584 
L 311.835897 150.368634 
L 310.114743 140.423139 
L 309.614164 139.064607 
L 308.698128 138.132372 
L 307.922421 136.719638 
L 305.07026 132.165266 
L 304.086206 129.316665 
L 302.124141 126.300125 
L 301.858562 125.607583 
L 302.200612 125.144215 
L 302.926119 124.694824 
L 305.410713 123.867098 
L 306.756776 123.155461 
L 307.612066 122.365601 
L 308.15582 121.707244 
L 309.437525 120.575098 
L 310.485877 119.334402 
L 311.385783 118.718847 
L 311.612696 117.804173 
L 311.487783 117.084926 
L 311.053268 116.571392 
L 311.012247 116.257127 
L 310.761925 116.097587 
L 310.868225 116.207823 
L 310.054439 115.949012 
L 309.265638 115.104781 
L 308.449237 114.026067 
L 305.701636 112.077735 
L 304.50922 111.386012 
L 303.378379 110.992202 
L 302.628162 111.067669 
L 301.243131 111.887872 
L 300.865717 112.886663 
L 299.415791 114.870865 
L 297.390003 116.146575 
L 296.797986 116.987051 
L 295.940206 117.480865 
L 294.794893 119.015783 
L 294.287557 119.495715 
L 293.837965 120.184557 
L 293.834139 120.666914 
L 293.253572 121.021025 
L 292.633413 121.63551 
L 291.477962 123.064321 
L 290.477997 123.177544 
L 289.974789 123.725404 
L 289.489094 124.019378 
L 288.988763 124.982071 
L 288.798362 125.472688 
L 287.22036 125.557943 
L 287.22036 125.557943 
" clip-path="url(#p7aae8c5496)" style="fill: none; stroke: #2ca02c; stroke-width: 1.5; stroke-linecap: square"/>
   </g>
   <g id="patch_3">
    <path d="M 107.5475 266.245 
L 107.5475 25.92 
" style="fill: none; stroke: #000000; stroke-width: 0.8; stroke-linejoin: miter; stroke-linecap: square"/>
   </g>
   <g id="patch_4">
    <path d="M 417.894886 266.245 
L 417.894886 25.92 
" style="fill: none; stroke: #000000; stroke-width: 0.8; stroke-linejoin: miter; stroke-linecap: square"/>
   </g>
   <g id="patch_5">
    <path d="M 107.5475 266.245 
L 417.894886 266.245 
" style="fill: none; stroke: #000000; stroke-width: 0.8; stroke-linejoin: miter; stroke-linecap: square"/>
   </g>
   <g id="patch_6">
    <path d="M 107.5475 25.92 
L 417.894886 25.92 
" style="fill: none; stroke: #000000; stroke-width: 0.8; stroke-linejoin: miter; stroke-linecap: square"/>
   </g>
   <g id="legend_1">
    <g id="patch_7">
     <path d="M 231.784261 260.245 
L 409.494886 260.245 
Q 411.894886 260.245 411.894886 257.845 
L 411.894886 208.009375 
Q 411.894886 205.609375 409.494886 205.609375 
L 231.784261 205.609375 
Q 229.384261 205.609375 229.384261 208.009375 
L 229.384261 257.845 
Q 229.384261 260.245 231.784261 260.245 
z
" style="fill: #ffffff; opacity: 0.8; stroke: #cccccc; stroke-linejoin: miter"/>
    </g>
    <g id="line2d_18">
     <path d="M 234.184261 214.609375 
L 246.184261 214.609375 
L 258.184261 214.609375 
" style="fill: none; stroke: #1f77b4; stroke-width: 1.5; stroke-linecap: square"/>
    </g>
    <g id="text_10">
     <!-- Timmer-Koenig -->
     <g transform="translate(267.784261 218.809375) scale(0.12 -0.12)">
      <defs>
       <path id="TeXGyreTermes-Regular-54" d="M 3795 3149 
L 3757 4237 
L 147 4237 
L 109 3149 
L 262 3149 
C 416 3853 563 3968 1280 3968 
L 1626 3968 
L 1626 768 
C 1626 224 1555 154 1024 122 
L 1024 0 
L 2893 0 
L 2893 122 
C 2368 147 2278 230 2278 698 
L 2278 3968 
L 2624 3968 
C 3354 3968 3494 3853 3642 3149 
L 3795 3149 
z
" transform="scale(0.015625)"/>
       <path id="TeXGyreTermes-Regular-69" d="M 1619 0 
L 1619 96 
C 1197 128 1146 192 1146 653 
L 1146 2925 
L 1120 2944 
L 128 2592 
L 128 2496 
L 179 2502 
C 256 2515 339 2522 397 2522 
C 550 2522 608 2419 608 2138 
L 608 653 
C 608 192 544 122 102 96 
L 102 0 
L 1619 0 
z
M 1203 3776 
C 1203 3955 1062 4102 877 4102 
C 698 4102 550 3955 550 3776 
C 550 3590 698 3450 877 3450 
C 1062 3450 1203 3590 1203 3776 
z
" transform="scale(0.015625)"/>
       <path id="TeXGyreTermes-Regular-6d" d="M 4960 0 
L 4960 96 
L 4794 109 
C 4602 122 4518 237 4518 486 
L 4518 1805 
C 4518 2560 4269 2944 3776 2944 
C 3405 2944 3078 2778 2733 2406 
C 2618 2771 2400 2944 2054 2944 
C 1773 2944 1594 2854 1062 2451 
L 1062 2931 
L 1018 2944 
C 691 2822 474 2752 122 2656 
L 122 2547 
C 205 2566 256 2573 326 2573 
C 493 2573 550 2470 550 2163 
L 550 544 
C 550 198 461 102 102 96 
L 102 0 
L 1523 0 
L 1523 96 
C 1184 109 1088 179 1088 429 
L 1088 2234 
C 1088 2234 1139 2310 1184 2355 
C 1344 2502 1619 2611 1843 2611 
C 2125 2611 2266 2387 2266 1939 
L 2266 550 
C 2266 192 2195 122 1830 96 
L 1830 0 
L 3264 0 
L 3264 96 
C 2899 102 2803 211 2803 608 
L 2803 2221 
C 2995 2496 3206 2611 3501 2611 
C 3866 2611 3981 2438 3981 1907 
L 3981 557 
C 3981 192 3930 141 3558 96 
L 3558 0 
L 4960 0 
z
" transform="scale(0.015625)"/>
       <path id="TeXGyreTermes-Regular-65" d="M 2714 1005 
L 2611 1050 
C 2304 563 2029 378 1619 378 
C 1267 378 998 544 813 890 
C 685 1139 634 1363 621 1773 
L 2592 1773 
C 2541 2189 2477 2374 2317 2579 
C 2125 2810 1830 2944 1498 2944 
C 704 2944 160 2304 160 1370 
C 160 486 621 -64 1357 -64 
C 1971 -64 2445 314 2714 1005 
z
M 1939 1978 
L 634 1978 
C 704 2483 922 2714 1312 2714 
C 1702 2714 1856 2534 1939 1978 
z
" transform="scale(0.015625)"/>
       <path id="TeXGyreTermes-Regular-72" d="M 2144 2605 
C 2144 2816 2010 2944 1792 2944 
C 1523 2944 1338 2797 1024 2342 
L 1024 2931 
L 992 2944 
C 653 2803 422 2720 45 2598 
L 45 2496 
C 134 2515 192 2522 269 2522 
C 429 2522 486 2419 486 2138 
L 486 538 
C 486 218 442 173 32 96 
L 32 0 
L 1568 0 
L 1568 96 
C 1133 115 1024 211 1024 576 
L 1024 2016 
C 1024 2221 1299 2541 1472 2541 
C 1510 2541 1568 2509 1638 2445 
C 1741 2355 1811 2317 1894 2317 
C 2048 2317 2144 2426 2144 2605 
z
" transform="scale(0.015625)"/>
       <path id="TeXGyreTermes-Regular-2d" d="M 1824 1242 
L 1824 1645 
L 250 1645 
L 250 1242 
L 1824 1242 
z
" transform="scale(0.015625)"/>
       <path id="TeXGyreTermes-Regular-4b" d="M 4627 0 
L 4627 122 
C 4294 128 4205 192 3622 813 
L 2131 2413 
L 3347 3616 
C 3782 4032 3885 4083 4320 4115 
L 4320 4237 
L 2643 4237 
L 2643 4115 
C 2720 4109 2784 4109 2810 4109 
C 3002 4096 3078 4045 3078 3917 
C 3078 3776 2931 3584 2579 3258 
L 1446 2227 
L 1446 3539 
C 1446 4006 1517 4077 2035 4115 
L 2035 4237 
L 218 4237 
L 218 4115 
C 717 4077 794 3994 794 3539 
L 794 768 
C 794 237 723 154 218 122 
L 218 0 
L 2022 0 
L 2022 122 
C 1523 154 1446 230 1446 698 
L 1446 1894 
L 1613 2029 
L 2291 1357 
C 2778 877 3123 422 3123 269 
C 3123 179 3034 134 2854 128 
C 2822 128 2752 128 2675 122 
L 2675 0 
L 4627 0 
z
" transform="scale(0.015625)"/>
       <path id="TeXGyreTermes-Regular-6f" d="M 3008 1498 
C 3008 2336 2419 2944 1600 2944 
C 768 2944 186 2330 186 1446 
C 186 582 781 -64 1587 -64 
C 2394 -64 3008 614 3008 1498 
z
M 2432 1274 
C 2432 550 2144 115 1664 115 
C 1414 115 1178 269 1043 525 
C 864 858 762 1306 762 1760 
C 762 2368 1062 2765 1517 2765 
C 2054 2765 2432 2150 2432 1274 
z
" transform="scale(0.015625)"/>
       <path id="TeXGyreTermes-Regular-6e" d="M 3104 0 
L 3104 96 
C 2790 128 2714 205 2714 518 
L 2714 1984 
C 2714 2586 2432 2944 1958 2944 
C 1664 2944 1466 2835 1030 2426 
L 1030 2931 
L 986 2944 
C 672 2829 454 2758 102 2656 
L 102 2547 
C 141 2566 205 2573 275 2573 
C 454 2573 512 2477 512 2163 
L 512 576 
C 512 211 442 122 115 96 
L 115 0 
L 1472 0 
L 1472 96 
C 1146 122 1050 198 1050 429 
L 1050 2227 
C 1357 2515 1498 2592 1709 2592 
C 2022 2592 2176 2394 2176 1971 
L 2176 634 
C 2176 230 2093 122 1773 96 
L 1773 0 
L 3104 0 
z
" transform="scale(0.015625)"/>
       <path id="TeXGyreTermes-Regular-67" d="M 3008 2483 
L 3008 2733 
L 2515 2733 
C 2387 2733 2291 2752 2163 2797 
L 2022 2848 
C 1850 2912 1677 2944 1510 2944 
C 915 2944 442 2483 442 1901 
C 442 1498 614 1254 1037 1043 
L 762 787 
C 550 602 467 474 467 346 
C 467 211 544 134 806 6 
C 352 -326 179 -538 179 -774 
C 179 -1114 678 -1395 1286 -1395 
C 1766 -1395 2266 -1229 2598 -960 
C 2842 -762 2950 -557 2950 -314 
C 2950 83 2650 352 2176 371 
L 1350 410 
C 1011 422 851 480 851 582 
C 851 710 1062 934 1235 986 
C 1293 979 1338 973 1357 973 
C 1478 960 1562 954 1600 954 
C 1837 954 2093 1050 2291 1222 
C 2502 1402 2598 1626 2598 1946 
C 2598 2131 2566 2278 2477 2483 
L 3008 2483 
z
M 2771 -410 
C 2771 -781 2285 -1030 1562 -1030 
C 998 -1030 627 -845 627 -563 
C 627 -416 672 -333 941 -13 
C 1152 -58 1664 -96 1978 -96 
C 2560 -96 2771 -179 2771 -410 
z
M 2106 1696 
C 2106 1338 1920 1114 1626 1114 
C 1242 1114 973 1530 973 2144 
L 973 2163 
C 973 2541 1152 2765 1446 2765 
C 1645 2765 1811 2656 1914 2464 
C 2029 2240 2106 1946 2106 1696 
z
" transform="scale(0.015625)"/>
      </defs>
      <use xlink:href="#TeXGyreTermes-Regular-54"/>
      <use xlink:href="#TeXGyreTermes-Regular-69" transform="translate(61.099991 0)"/>
      <use xlink:href="#TeXGyreTermes-Regular-6d" transform="translate(88.899979 0)"/>
      <use xlink:href="#TeXGyreTermes-Regular-6d" transform="translate(166.699966 0)"/>
      <use xlink:href="#TeXGyreTermes-Regular-65" transform="translate(244.499954 0)"/>
      <use xlink:href="#TeXGyreTermes-Regular-72" transform="translate(288.899948 0)"/>
      <use xlink:href="#TeXGyreTermes-Regular-2d" transform="translate(322.199936 0)"/>
      <use xlink:href="#TeXGyreTermes-Regular-4b" transform="translate(355.499924 0)"/>
      <use xlink:href="#TeXGyreTermes-Regular-6f" transform="translate(427.699905 0)"/>
      <use xlink:href="#TeXGyreTermes-Regular-65" transform="translate(477.69989 0)"/>
      <use xlink:href="#TeXGyreTermes-Regular-6e" transform="translate(522.099884 0)"/>
      <use xlink:href="#TeXGyreTermes-Regular-69" transform="translate(572.099869 0)"/>
      <use xlink:href="#TeXGyreTermes-Regular-67" transform="translate(599.899857 0)"/>
     </g>
    </g>
    <g id="line2d_19">
     <path d="M 234.184261 231.625 
L 246.184261 231.625 
L 258.184261 231.625 
" style="fill: none; stroke: #ff7f0e; stroke-width: 1.5; stroke-linecap: square"/>
    </g>
    <g id="text_11">
     <!-- Phasenrandomisierung-Done -->
     <g transform="translate(267.784261 235.825) scale(0.12 -0.12)">
      <defs>
       <path id="TeXGyreTermes-Regular-50" d="M 3469 3078 
C 3469 3347 3379 3590 3206 3776 
C 2950 4058 2394 4237 1792 4237 
L 102 4237 
L 102 4115 
C 576 4064 640 4000 640 3539 
L 640 768 
C 640 230 589 166 102 122 
L 102 0 
L 1894 0 
L 1894 122 
C 1389 141 1293 230 1293 698 
L 1293 1862 
C 1459 1850 1568 1843 1734 1843 
C 2234 1843 2579 1907 2854 2061 
C 3238 2266 3469 2656 3469 3078 
z
M 2771 3040 
C 2771 2419 2394 2099 1658 2099 
C 1530 2099 1440 2106 1293 2118 
L 1293 3782 
C 1293 3955 1338 4000 1510 4000 
C 2374 4000 2771 3699 2771 3040 
z
" transform="scale(0.015625)"/>
       <path id="TeXGyreTermes-Regular-68" d="M 3117 0 
L 3117 96 
C 2771 160 2733 211 2733 653 
L 2733 1926 
C 2733 2598 2464 2944 1946 2944 
C 1568 2944 1299 2790 1005 2406 
L 1005 4352 
L 973 4371 
C 755 4294 595 4243 237 4141 
L 64 4090 
L 64 3987 
C 90 3994 109 3994 141 3994 
C 416 3994 467 3942 467 3667 
L 467 653 
C 467 205 429 147 58 96 
L 58 0 
L 1440 0 
L 1440 96 
C 1069 134 1005 211 1005 653 
L 1005 2195 
C 1274 2490 1466 2598 1715 2598 
C 2035 2598 2195 2368 2195 1920 
L 2195 653 
C 2195 218 2131 134 1760 96 
L 1760 0 
L 3117 0 
z
" transform="scale(0.015625)"/>
       <path id="TeXGyreTermes-Regular-61" d="M 2829 256 
L 2829 422 
C 2720 333 2643 301 2547 301 
C 2400 301 2355 390 2355 672 
L 2355 1920 
C 2355 2246 2323 2426 2234 2573 
C 2099 2816 1824 2944 1434 2944 
C 1107 2944 800 2854 621 2707 
C 461 2573 358 2387 358 2227 
C 358 2080 480 1952 634 1952 
C 787 1952 922 2080 922 2221 
C 922 2246 915 2278 909 2323 
C 896 2381 890 2432 890 2477 
C 890 2650 1094 2790 1350 2790 
C 1664 2790 1837 2605 1837 2259 
L 1837 1869 
C 851 1472 742 1421 467 1178 
C 326 1050 237 832 237 621 
C 237 218 512 -64 909 -64 
C 1190 -64 1453 70 1843 403 
C 1875 64 1990 -64 2253 -64 
C 2470 -64 2605 13 2829 256 
z
M 1837 787 
C 1837 589 1805 531 1670 448 
C 1517 358 1338 307 1203 307 
C 979 307 800 525 800 800 
L 800 826 
C 800 1203 1062 1434 1837 1715 
L 1837 787 
z
" transform="scale(0.015625)"/>
       <path id="TeXGyreTermes-Regular-73" d="M 2227 755 
C 2227 1075 2080 1286 1690 1517 
L 998 1926 
C 819 2029 723 2189 723 2362 
C 723 2624 922 2797 1216 2797 
C 1581 2797 1773 2586 1920 2010 
L 2016 2010 
L 1990 2880 
L 1920 2880 
L 1907 2867 
C 1850 2822 1843 2816 1818 2816 
C 1779 2816 1715 2829 1645 2861 
C 1510 2912 1363 2938 1210 2938 
C 685 2938 326 2618 326 2150 
C 326 1792 531 1542 1075 1229 
L 1446 1018 
C 1670 890 1779 736 1779 538 
C 1779 256 1574 77 1248 77 
C 806 77 582 320 435 973 
L 333 973 
L 333 -26 
L 416 -26 
C 461 38 486 51 563 51 
C 634 51 704 38 858 0 
C 1037 -38 1197 -64 1331 -64 
C 1818 -64 2227 307 2227 755 
z
" transform="scale(0.015625)"/>
       <path id="TeXGyreTermes-Regular-64" d="M 3142 269 
L 3142 371 
C 3027 365 3014 365 2995 365 
C 2765 365 2714 435 2714 730 
L 2714 4358 
L 2682 4371 
C 2374 4262 2150 4198 1741 4090 
L 1741 3987 
C 1792 3994 1830 3994 1882 3994 
C 2118 3994 2176 3930 2176 3667 
L 2176 2669 
C 1933 2874 1760 2944 1504 2944 
C 768 2944 173 2221 173 1312 
C 173 493 653 -64 1357 -64 
C 1715 -64 1958 64 2176 365 
L 2176 -45 
L 2202 -64 
L 3142 269 
z
M 2176 653 
C 2176 608 2131 531 2067 461 
C 1952 333 1792 269 1606 269 
C 1075 269 723 781 723 1568 
C 723 2291 1037 2765 1523 2765 
C 1862 2765 2176 2464 2176 2125 
L 2176 653 
z
" transform="scale(0.015625)"/>
       <path id="TeXGyreTermes-Regular-75" d="M 3066 230 
L 3066 320 
L 3034 320 
C 2739 320 2669 390 2669 685 
L 2669 2880 
L 1658 2880 
L 1658 2771 
C 2054 2752 2131 2688 2131 2368 
L 2131 864 
C 2131 691 2099 595 2022 538 
C 1843 384 1645 307 1446 307 
C 1197 307 992 525 992 794 
L 992 2880 
L 58 2880 
L 58 2790 
C 365 2771 454 2675 454 2381 
L 454 768 
C 454 262 762 -64 1229 -64 
C 1466 -64 1715 38 1888 211 
L 2163 486 
L 2163 -45 
L 2189 -58 
C 2509 70 2739 141 3066 230 
z
" transform="scale(0.015625)"/>
       <path id="TeXGyreTermes-Regular-44" d="M 4384 2138 
C 4384 2714 4192 3213 3840 3565 
C 3405 4006 2707 4237 1830 4237 
L 102 4237 
L 102 4115 
C 608 4070 666 4013 666 3539 
L 666 698 
C 666 237 589 154 102 122 
L 102 0 
L 1920 0 
C 2662 0 3334 211 3731 570 
C 4147 947 4384 1517 4384 2138 
z
M 3686 2093 
C 3686 1338 3424 800 2906 499 
C 2579 314 2208 237 1651 237 
C 1395 237 1318 294 1318 499 
L 1318 3750 
C 1318 3949 1389 4000 1651 4000 
C 2202 4000 2618 3898 2925 3680 
C 3424 3334 3686 2784 3686 2093 
z
" transform="scale(0.015625)"/>
      </defs>
      <use xlink:href="#TeXGyreTermes-Regular-50"/>
      <use xlink:href="#TeXGyreTermes-Regular-68" transform="translate(55.599991 0)"/>
      <use xlink:href="#TeXGyreTermes-Regular-61" transform="translate(105.599976 0)"/>
      <use xlink:href="#TeXGyreTermes-Regular-73" transform="translate(149.999969 0)"/>
      <use xlink:href="#TeXGyreTermes-Regular-65" transform="translate(188.899963 0)"/>
      <use xlink:href="#TeXGyreTermes-Regular-6e" transform="translate(233.299957 0)"/>
      <use xlink:href="#TeXGyreTermes-Regular-72" transform="translate(283.299942 0)"/>
      <use xlink:href="#TeXGyreTermes-Regular-61" transform="translate(316.59993 0)"/>
      <use xlink:href="#TeXGyreTermes-Regular-6e" transform="translate(360.999924 0)"/>
      <use xlink:href="#TeXGyreTermes-Regular-64" transform="translate(410.999908 0)"/>
      <use xlink:href="#TeXGyreTermes-Regular-6f" transform="translate(460.999893 0)"/>
      <use xlink:href="#TeXGyreTermes-Regular-6d" transform="translate(510.999878 0)"/>
      <use xlink:href="#TeXGyreTermes-Regular-69" transform="translate(588.799866 0)"/>
      <use xlink:href="#TeXGyreTermes-Regular-73" transform="translate(616.599854 0)"/>
      <use xlink:href="#TeXGyreTermes-Regular-69" transform="translate(655.499847 0)"/>
      <use xlink:href="#TeXGyreTermes-Regular-65" transform="translate(683.299835 0)"/>
      <use xlink:href="#TeXGyreTermes-Regular-72" transform="translate(727.699829 0)"/>
      <use xlink:href="#TeXGyreTermes-Regular-75" transform="translate(760.999817 0)"/>
      <use xlink:href="#TeXGyreTermes-Regular-6e" transform="translate(810.999802 0)"/>
      <use xlink:href="#TeXGyreTermes-Regular-67" transform="translate(860.999786 0)"/>
      <use xlink:href="#TeXGyreTermes-Regular-2d" transform="translate(910.999771 0)"/>
      <use xlink:href="#TeXGyreTermes-Regular-44" transform="translate(944.299759 0)"/>
      <use xlink:href="#TeXGyreTermes-Regular-6f" transform="translate(1016.499741 0)"/>
      <use xlink:href="#TeXGyreTermes-Regular-6e" transform="translate(1066.499725 0)"/>
      <use xlink:href="#TeXGyreTermes-Regular-65" transform="translate(1116.49971 0)"/>
     </g>
    </g>
    <g id="line2d_20">
     <path d="M 234.184261 248.640625 
L 246.184261 248.640625 
L 258.184261 248.640625 
" style="fill: none; stroke: #2ca02c; stroke-width: 1.5; stroke-linecap: square"/>
    </g>
    <g id="text_12">
     <!-- FracDiffTime -->
     <g transform="translate(267.784261 252.840625) scale(0.12 -0.12)">
      <defs>
       <path id="TeXGyreTermes-Regular-46" d="M 3494 3322 
L 3475 4237 
L 77 4237 
L 77 4115 
C 550 4077 634 3987 634 3539 
L 634 768 
C 634 237 563 154 77 122 
L 77 0 
L 1869 0 
L 1869 122 
C 1376 147 1286 237 1286 698 
L 1286 2093 
L 2214 2093 
C 2733 2093 2842 1997 2918 1478 
L 3066 1478 
L 3066 2963 
L 2918 2963 
C 2842 2451 2726 2355 2214 2355 
L 1286 2355 
L 1286 3776 
C 1286 3955 1318 3994 1491 3994 
L 2362 3994 
C 3085 3994 3226 3898 3334 3322 
L 3494 3322 
z
" transform="scale(0.015625)"/>
       <path id="TeXGyreTermes-Regular-63" d="M 2637 941 
L 2547 998 
C 2240 550 2010 397 1645 397 
C 1056 397 653 909 653 1645 
C 653 2310 1005 2758 1523 2758 
C 1754 2758 1837 2688 1901 2451 
L 1939 2310 
C 1990 2125 2106 2016 2246 2016 
C 2413 2016 2547 2138 2547 2285 
C 2547 2643 2099 2944 1562 2944 
C 1261 2944 954 2829 698 2618 
C 352 2330 160 1888 160 1357 
C 160 531 666 -64 1376 -64 
C 1651 -64 1894 26 2112 205 
C 2304 358 2432 544 2637 941 
z
" transform="scale(0.015625)"/>
       <path id="TeXGyreTermes-Regular-66" d="M 2451 3974 
C 2451 4205 2170 4371 1786 4371 
C 1382 4371 1050 4198 883 3910 
C 717 3622 666 3392 659 2880 
L 134 2880 
L 134 2675 
L 659 2675 
L 659 666 
C 659 198 589 122 128 96 
L 128 0 
L 1792 0 
L 1792 96 
C 1267 115 1197 186 1197 666 
L 1197 2675 
L 1978 2675 
L 1978 2880 
L 1190 2880 
L 1190 3622 
C 1190 4000 1312 4192 1555 4192 
C 1696 4192 1779 4128 1894 3942 
C 1997 3770 2074 3712 2182 3712 
C 2336 3712 2451 3827 2451 3974 
z
" transform="scale(0.015625)"/>
      </defs>
      <use xlink:href="#TeXGyreTermes-Regular-46"/>
      <use xlink:href="#TeXGyreTermes-Regular-72" transform="translate(55.599991 0)"/>
      <use xlink:href="#TeXGyreTermes-Regular-61" transform="translate(88.899979 0)"/>
      <use xlink:href="#TeXGyreTermes-Regular-63" transform="translate(133.299973 0)"/>
      <use xlink:href="#TeXGyreTermes-Regular-44" transform="translate(177.699966 0)"/>
      <use xlink:href="#TeXGyreTermes-Regular-69" transform="translate(249.899948 0)"/>
      <use xlink:href="#TeXGyreTermes-Regular-66" transform="translate(277.699936 0)"/>
      <use xlink:href="#TeXGyreTermes-Regular-66" transform="translate(310.999924 0)"/>
      <use xlink:href="#TeXGyreTermes-Regular-54" transform="translate(344.299911 0)"/>
      <use xlink:href="#TeXGyreTermes-Regular-69" transform="translate(405.399902 0)"/>
      <use xlink:href="#TeXGyreTermes-Regular-6d" transform="translate(433.19989 0)"/>
      <use xlink:href="#TeXGyreTermes-Regular-65" transform="translate(510.999878 0)"/>
     </g>
    </g>
   </g>
  </g>
 </g>
 <defs>
  <clipPath id="p7aae8c5496">
   <rect x="107.5475" y="25.92" width="310.347386" height="240.325"/>
  </clipPath>
 </defs>
</svg>
