<?xml version="1.0" encoding="utf-8" standalone="no"?>
<!DOCTYPE svg PUBLIC "-//W3C//DTD SVG 1.1//EN"
  "http://www.w3.org/Graphics/SVG/1.1/DTD/svg11.dtd">
<svg xmlns:xlink="http://www.w3.org/1999/xlink" width="460.8pt" height="345.6pt" viewBox="0 0 460.8 345.6" xmlns="http://www.w3.org/2000/svg" version="1.1">
 <metadata>
  <rdf:RDF xmlns:dc="http://purl.org/dc/elements/1.1/" xmlns:cc="http://creativecommons.org/ns#" xmlns:rdf="http://www.w3.org/1999/02/22-rdf-syntax-ns#">
   <cc:Work>
    <dc:type rdf:resource="http://purl.org/dc/dcmitype/StillImage"/>
    <dc:date>2025-11-24T22:58:01.817929</dc:date>
    <dc:format>image/svg+xml</dc:format>
    <dc:creator>
     <cc:Agent>
      <dc:title>Matplotlib v3.10.6, https://matplotlib.org/</dc:title>
     </cc:Agent>
    </dc:creator>
   </cc:Work>
  </rdf:RDF>
 </metadata>
 <defs>
  <style type="text/css">*{stroke-linejoin: round; stroke-linecap: butt}</style>
 </defs>
 <g id="figure_1">
  <g id="patch_1">
   <path d="M 0 345.6 
L 460.8 345.6 
L 460.8 0 
L 0 0 
z
" style="fill: #ffffff"/>
  </g>
  <g id="axes_1">
   <g id="patch_2">
    <path d="M 57.6 307.584 
L 414.72 307.584 
L 414.72 41.472 
L 57.6 41.472 
z
" style="fill: #ffffff"/>
   </g>
   <g id="matplotlib.axis_1">
    <g id="xtick_1">
     <g id="line2d_1">
      <defs>
       <path id="m97375ba81b" d="M 0 0 
L 0 3.5 
" style="stroke: #000000; stroke-width: 0.8"/>
      </defs>
      <g>
       <use xlink:href="#m97375ba81b" x="83.174494" y="307.584" style="stroke: #000000; stroke-width: 0.8"/>
      </g>
     </g>
     <g id="text_1">
      <!-- 0 -->
      <g transform="translate(79.993244 322.182437) scale(0.1 -0.1)">
       <defs>
        <path id="DejaVuSans-30" d="M 2034 4250 
Q 1547 4250 1301 3770 
Q 1056 3291 1056 2328 
Q 1056 1369 1301 889 
Q 1547 409 2034 409 
Q 2525 409 2770 889 
Q 3016 1369 3016 2328 
Q 3016 3291 2770 3770 
Q 2525 4250 2034 4250 
z
M 2034 4750 
Q 2819 4750 3233 4129 
Q 3647 3509 3647 2328 
Q 3647 1150 3233 529 
Q 2819 -91 2034 -91 
Q 1250 -91 836 529 
Q 422 1150 422 2328 
Q 422 3509 836 4129 
Q 1250 4750 2034 4750 
z
" transform="scale(0.015625)"/>
       </defs>
       <use xlink:href="#DejaVuSans-30"/>
      </g>
     </g>
    </g>
    <g id="xtick_2">
     <g id="line2d_2">
      <g>
       <use xlink:href="#m97375ba81b" x="137.640413" y="307.584" style="stroke: #000000; stroke-width: 0.8"/>
      </g>
     </g>
     <g id="text_2">
      <!-- 10000 -->
      <g transform="translate(121.734163 322.182437) scale(0.1 -0.1)">
       <defs>
        <path id="DejaVuSans-31" d="M 794 531 
L 1825 531 
L 1825 4091 
L 703 3866 
L 703 4441 
L 1819 4666 
L 2450 4666 
L 2450 531 
L 3481 531 
L 3481 0 
L 794 0 
L 794 531 
z
" transform="scale(0.015625)"/>
       </defs>
       <use xlink:href="#DejaVuSans-31"/>
       <use xlink:href="#DejaVuSans-30" transform="translate(63.623047 0)"/>
       <use xlink:href="#DejaVuSans-30" transform="translate(127.246094 0)"/>
       <use xlink:href="#DejaVuSans-30" transform="translate(190.869141 0)"/>
       <use xlink:href="#DejaVuSans-30" transform="translate(254.492188 0)"/>
      </g>
     </g>
    </g>
    <g id="xtick_3">
     <g id="line2d_3">
      <g>
       <use xlink:href="#m97375ba81b" x="192.106333" y="307.584" style="stroke: #000000; stroke-width: 0.8"/>
      </g>
     </g>
     <g id="text_3">
      <!-- 20000 -->
      <g transform="translate(176.200083 322.182437) scale(0.1 -0.1)">
       <defs>
        <path id="DejaVuSans-32" d="M 1228 531 
L 3431 531 
L 3431 0 
L 469 0 
L 469 531 
Q 828 903 1448 1529 
Q 2069 2156 2228 2338 
Q 2531 2678 2651 2914 
Q 2772 3150 2772 3378 
Q 2772 3750 2511 3984 
Q 2250 4219 1831 4219 
Q 1534 4219 1204 4116 
Q 875 4013 500 3803 
L 500 4441 
Q 881 4594 1212 4672 
Q 1544 4750 1819 4750 
Q 2544 4750 2975 4387 
Q 3406 4025 3406 3419 
Q 3406 3131 3298 2873 
Q 3191 2616 2906 2266 
Q 2828 2175 2409 1742 
Q 1991 1309 1228 531 
z
" transform="scale(0.015625)"/>
       </defs>
       <use xlink:href="#DejaVuSans-32"/>
       <use xlink:href="#DejaVuSans-30" transform="translate(63.623047 0)"/>
       <use xlink:href="#DejaVuSans-30" transform="translate(127.246094 0)"/>
       <use xlink:href="#DejaVuSans-30" transform="translate(190.869141 0)"/>
       <use xlink:href="#DejaVuSans-30" transform="translate(254.492188 0)"/>
      </g>
     </g>
    </g>
    <g id="xtick_4">
     <g id="line2d_4">
      <g>
       <use xlink:href="#m97375ba81b" x="246.572252" y="307.584" style="stroke: #000000; stroke-width: 0.8"/>
      </g>
     </g>
     <g id="text_4">
      <!-- 30000 -->
      <g transform="translate(230.666002 322.182437) scale(0.1 -0.1)">
       <defs>
        <path id="DejaVuSans-33" d="M 2597 2516 
Q 3050 2419 3304 2112 
Q 3559 1806 3559 1356 
Q 3559 666 3084 287 
Q 2609 -91 1734 -91 
Q 1441 -91 1130 -33 
Q 819 25 488 141 
L 488 750 
Q 750 597 1062 519 
Q 1375 441 1716 441 
Q 2309 441 2620 675 
Q 2931 909 2931 1356 
Q 2931 1769 2642 2001 
Q 2353 2234 1838 2234 
L 1294 2234 
L 1294 2753 
L 1863 2753 
Q 2328 2753 2575 2939 
Q 2822 3125 2822 3475 
Q 2822 3834 2567 4026 
Q 2313 4219 1838 4219 
Q 1578 4219 1281 4162 
Q 984 4106 628 3988 
L 628 4550 
Q 988 4650 1302 4700 
Q 1616 4750 1894 4750 
Q 2613 4750 3031 4423 
Q 3450 4097 3450 3541 
Q 3450 3153 3228 2886 
Q 3006 2619 2597 2516 
z
" transform="scale(0.015625)"/>
       </defs>
       <use xlink:href="#DejaVuSans-33"/>
       <use xlink:href="#DejaVuSans-30" transform="translate(63.623047 0)"/>
       <use xlink:href="#DejaVuSans-30" transform="translate(127.246094 0)"/>
       <use xlink:href="#DejaVuSans-30" transform="translate(190.869141 0)"/>
       <use xlink:href="#DejaVuSans-30" transform="translate(254.492188 0)"/>
      </g>
     </g>
    </g>
    <g id="xtick_5">
     <g id="line2d_5">
      <g>
       <use xlink:href="#m97375ba81b" x="301.038172" y="307.584" style="stroke: #000000; stroke-width: 0.8"/>
      </g>
     </g>
     <g id="text_5">
      <!-- 40000 -->
      <g transform="translate(285.131922 322.182437) scale(0.1 -0.1)">
       <defs>
        <path id="DejaVuSans-34" d="M 2419 4116 
L 825 1625 
L 2419 1625 
L 2419 4116 
z
M 2253 4666 
L 3047 4666 
L 3047 1625 
L 3713 1625 
L 3713 1100 
L 3047 1100 
L 3047 0 
L 2419 0 
L 2419 1100 
L 313 1100 
L 313 1709 
L 2253 4666 
z
" transform="scale(0.015625)"/>
       </defs>
       <use xlink:href="#DejaVuSans-34"/>
       <use xlink:href="#DejaVuSans-30" transform="translate(63.623047 0)"/>
       <use xlink:href="#DejaVuSans-30" transform="translate(127.246094 0)"/>
       <use xlink:href="#DejaVuSans-30" transform="translate(190.869141 0)"/>
       <use xlink:href="#DejaVuSans-30" transform="translate(254.492188 0)"/>
      </g>
     </g>
    </g>
    <g id="xtick_6">
     <g id="line2d_6">
      <g>
       <use xlink:href="#m97375ba81b" x="355.504091" y="307.584" style="stroke: #000000; stroke-width: 0.8"/>
      </g>
     </g>
     <g id="text_6">
      <!-- 50000 -->
      <g transform="translate(339.597841 322.182437) scale(0.1 -0.1)">
       <defs>
        <path id="DejaVuSans-35" d="M 691 4666 
L 3169 4666 
L 3169 4134 
L 1269 4134 
L 1269 2991 
Q 1406 3038 1543 3061 
Q 1681 3084 1819 3084 
Q 2600 3084 3056 2656 
Q 3513 2228 3513 1497 
Q 3513 744 3044 326 
Q 2575 -91 1722 -91 
Q 1428 -91 1123 -41 
Q 819 9 494 109 
L 494 744 
Q 775 591 1075 516 
Q 1375 441 1709 441 
Q 2250 441 2565 725 
Q 2881 1009 2881 1497 
Q 2881 1984 2565 2268 
Q 2250 2553 1709 2553 
Q 1456 2553 1204 2497 
Q 953 2441 691 2322 
L 691 4666 
z
" transform="scale(0.015625)"/>
       </defs>
       <use xlink:href="#DejaVuSans-35"/>
       <use xlink:href="#DejaVuSans-30" transform="translate(63.623047 0)"/>
       <use xlink:href="#DejaVuSans-30" transform="translate(127.246094 0)"/>
       <use xlink:href="#DejaVuSans-30" transform="translate(190.869141 0)"/>
       <use xlink:href="#DejaVuSans-30" transform="translate(254.492188 0)"/>
      </g>
     </g>
    </g>
    <g id="xtick_7">
     <g id="line2d_7">
      <g>
       <use xlink:href="#m97375ba81b" x="409.970011" y="307.584" style="stroke: #000000; stroke-width: 0.8"/>
      </g>
     </g>
     <g id="text_7">
      <!-- 60000 -->
      <g transform="translate(394.063761 322.182437) scale(0.1 -0.1)">
       <defs>
        <path id="DejaVuSans-36" d="M 2113 2584 
Q 1688 2584 1439 2293 
Q 1191 2003 1191 1497 
Q 1191 994 1439 701 
Q 1688 409 2113 409 
Q 2538 409 2786 701 
Q 3034 994 3034 1497 
Q 3034 2003 2786 2293 
Q 2538 2584 2113 2584 
z
M 3366 4563 
L 3366 3988 
Q 3128 4100 2886 4159 
Q 2644 4219 2406 4219 
Q 1781 4219 1451 3797 
Q 1122 3375 1075 2522 
Q 1259 2794 1537 2939 
Q 1816 3084 2150 3084 
Q 2853 3084 3261 2657 
Q 3669 2231 3669 1497 
Q 3669 778 3244 343 
Q 2819 -91 2113 -91 
Q 1303 -91 875 529 
Q 447 1150 447 2328 
Q 447 3434 972 4092 
Q 1497 4750 2381 4750 
Q 2619 4750 2861 4703 
Q 3103 4656 3366 4563 
z
" transform="scale(0.015625)"/>
       </defs>
       <use xlink:href="#DejaVuSans-36"/>
       <use xlink:href="#DejaVuSans-30" transform="translate(63.623047 0)"/>
       <use xlink:href="#DejaVuSans-30" transform="translate(127.246094 0)"/>
       <use xlink:href="#DejaVuSans-30" transform="translate(190.869141 0)"/>
       <use xlink:href="#DejaVuSans-30" transform="translate(254.492188 0)"/>
      </g>
     </g>
    </g>
    <g id="text_8">
     <!-- x -->
     <g transform="translate(233.200625 335.860562) scale(0.1 -0.1)">
      <defs>
       <path id="DejaVuSans-78" d="M 3513 3500 
L 2247 1797 
L 3578 0 
L 2900 0 
L 1881 1375 
L 863 0 
L 184 0 
L 1544 1831 
L 300 3500 
L 978 3500 
L 1906 2253 
L 2834 3500 
L 3513 3500 
z
" transform="scale(0.015625)"/>
      </defs>
      <use xlink:href="#DejaVuSans-78"/>
     </g>
    </g>
   </g>
   <g id="matplotlib.axis_2">
    <g id="ytick_1">
     <g id="line2d_8">
      <defs>
       <path id="mc016c54c08" d="M 0 0 
L -3.5 0 
" style="stroke: #000000; stroke-width: 0.8"/>
      </defs>
      <g>
       <use xlink:href="#mc016c54c08" x="57.6" y="276.173493" style="stroke: #000000; stroke-width: 0.8"/>
      </g>
     </g>
     <g id="text_9">
      <!-- −50000 -->
      <g transform="translate(10.407812 279.972712) scale(0.1 -0.1)">
       <defs>
        <path id="DejaVuSans-2212" d="M 678 2272 
L 4684 2272 
L 4684 1741 
L 678 1741 
L 678 2272 
z
" transform="scale(0.015625)"/>
       </defs>
       <use xlink:href="#DejaVuSans-2212"/>
       <use xlink:href="#DejaVuSans-35" transform="translate(83.789062 0)"/>
       <use xlink:href="#DejaVuSans-30" transform="translate(147.412109 0)"/>
       <use xlink:href="#DejaVuSans-30" transform="translate(211.035156 0)"/>
       <use xlink:href="#DejaVuSans-30" transform="translate(274.658203 0)"/>
       <use xlink:href="#DejaVuSans-30" transform="translate(338.28125 0)"/>
      </g>
     </g>
    </g>
    <g id="ytick_2">
     <g id="line2d_9">
      <g>
       <use xlink:href="#mc016c54c08" x="57.6" y="240.579413" style="stroke: #000000; stroke-width: 0.8"/>
      </g>
     </g>
     <g id="text_10">
      <!-- −40000 -->
      <g transform="translate(10.407812 244.378632) scale(0.1 -0.1)">
       <use xlink:href="#DejaVuSans-2212"/>
       <use xlink:href="#DejaVuSans-34" transform="translate(83.789062 0)"/>
       <use xlink:href="#DejaVuSans-30" transform="translate(147.412109 0)"/>
       <use xlink:href="#DejaVuSans-30" transform="translate(211.035156 0)"/>
       <use xlink:href="#DejaVuSans-30" transform="translate(274.658203 0)"/>
       <use xlink:href="#DejaVuSans-30" transform="translate(338.28125 0)"/>
      </g>
     </g>
    </g>
    <g id="ytick_3">
     <g id="line2d_10">
      <g>
       <use xlink:href="#mc016c54c08" x="57.6" y="204.985334" style="stroke: #000000; stroke-width: 0.8"/>
      </g>
     </g>
     <g id="text_11">
      <!-- −30000 -->
      <g transform="translate(10.407812 208.784552) scale(0.1 -0.1)">
       <use xlink:href="#DejaVuSans-2212"/>
       <use xlink:href="#DejaVuSans-33" transform="translate(83.789062 0)"/>
       <use xlink:href="#DejaVuSans-30" transform="translate(147.412109 0)"/>
       <use xlink:href="#DejaVuSans-30" transform="translate(211.035156 0)"/>
       <use xlink:href="#DejaVuSans-30" transform="translate(274.658203 0)"/>
       <use xlink:href="#DejaVuSans-30" transform="translate(338.28125 0)"/>
      </g>
     </g>
    </g>
    <g id="ytick_4">
     <g id="line2d_11">
      <g>
       <use xlink:href="#mc016c54c08" x="57.6" y="169.391254" style="stroke: #000000; stroke-width: 0.8"/>
      </g>
     </g>
     <g id="text_12">
      <!-- −20000 -->
      <g transform="translate(10.407812 173.190473) scale(0.1 -0.1)">
       <use xlink:href="#DejaVuSans-2212"/>
       <use xlink:href="#DejaVuSans-32" transform="translate(83.789062 0)"/>
       <use xlink:href="#DejaVuSans-30" transform="translate(147.412109 0)"/>
       <use xlink:href="#DejaVuSans-30" transform="translate(211.035156 0)"/>
       <use xlink:href="#DejaVuSans-30" transform="translate(274.658203 0)"/>
       <use xlink:href="#DejaVuSans-30" transform="translate(338.28125 0)"/>
      </g>
     </g>
    </g>
    <g id="ytick_5">
     <g id="line2d_12">
      <g>
       <use xlink:href="#mc016c54c08" x="57.6" y="133.797174" style="stroke: #000000; stroke-width: 0.8"/>
      </g>
     </g>
     <g id="text_13">
      <!-- −10000 -->
      <g transform="translate(10.407812 137.596393) scale(0.1 -0.1)">
       <use xlink:href="#DejaVuSans-2212"/>
       <use xlink:href="#DejaVuSans-31" transform="translate(83.789062 0)"/>
       <use xlink:href="#DejaVuSans-30" transform="translate(147.412109 0)"/>
       <use xlink:href="#DejaVuSans-30" transform="translate(211.035156 0)"/>
       <use xlink:href="#DejaVuSans-30" transform="translate(274.658203 0)"/>
       <use xlink:href="#DejaVuSans-30" transform="translate(338.28125 0)"/>
      </g>
     </g>
    </g>
    <g id="ytick_6">
     <g id="line2d_13">
      <g>
       <use xlink:href="#mc016c54c08" x="57.6" y="98.203095" style="stroke: #000000; stroke-width: 0.8"/>
      </g>
     </g>
     <g id="text_14">
      <!-- 0 -->
      <g transform="translate(44.2375 102.002313) scale(0.1 -0.1)">
       <use xlink:href="#DejaVuSans-30"/>
      </g>
     </g>
    </g>
    <g id="ytick_7">
     <g id="line2d_14">
      <g>
       <use xlink:href="#mc016c54c08" x="57.6" y="62.609015" style="stroke: #000000; stroke-width: 0.8"/>
      </g>
     </g>
     <g id="text_15">
      <!-- 10000 -->
      <g transform="translate(18.7875 66.408234) scale(0.1 -0.1)">
       <use xlink:href="#DejaVuSans-31"/>
       <use xlink:href="#DejaVuSans-30" transform="translate(63.623047 0)"/>
       <use xlink:href="#DejaVuSans-30" transform="translate(127.246094 0)"/>
       <use xlink:href="#DejaVuSans-30" transform="translate(190.869141 0)"/>
       <use xlink:href="#DejaVuSans-30" transform="translate(254.492188 0)"/>
      </g>
     </g>
    </g>
    <g id="text_16">
     <!-- y -->
     <g transform="translate(4.328125 177.487375) rotate(-90) scale(0.1 -0.1)">
      <defs>
       <path id="DejaVuSans-79" d="M 2059 -325 
Q 1816 -950 1584 -1140 
Q 1353 -1331 966 -1331 
L 506 -1331 
L 506 -850 
L 844 -850 
Q 1081 -850 1212 -737 
Q 1344 -625 1503 -206 
L 1606 56 
L 191 3500 
L 800 3500 
L 1894 763 
L 2988 3500 
L 3597 3500 
L 2059 -325 
z
" transform="scale(0.015625)"/>
      </defs>
      <use xlink:href="#DejaVuSans-79"/>
     </g>
    </g>
   </g>
   <g id="line2d_15">
    <path d="M 83.174494 98.203095 
L 82.893998 98.237746 
L 82.433912 98.410673 
L 81.781614 98.941343 
L 81.574074 99.133217 
L 80.647063 100.621775 
L 80.017451 101.253324 
L 79.963512 101.145433 
L 79.691312 101.073956 
L 79.364163 100.965011 
L 79.352696 100.831558 
L 79.378204 100.625372 
L 79.381981 100.643046 
" clip-path="url(#p85ea011140)" style="fill: none; stroke: #1f77b4; stroke-width: 1.5; stroke-linecap: square"/>
   </g>
   <g id="line2d_16">
    <path d="M 83.174494 98.203095 
L 88.322265 99.190634 
L 99.325111 101.602282 
L 101.909154 101.930771 
L 104.377761 101.971134 
L 106.806091 101.806306 
L 110.386233 101.285265 
L 123.064232 98.921661 
L 129.487047 97.090003 
L 134.067654 95.537979 
L 139.671688 92.543734 
L 140.858161 92.35105 
L 142.146967 92.185562 
L 144.94264 91.074622 
L 147.165346 90.184542 
L 148.651972 89.800794 
L 150.949589 89.633554 
L 152.770168 89.670311 
L 154.523024 89.528277 
L 156.057491 89.353282 
L 159.895593 89.588316 
L 162.588819 89.876929 
L 166.773844 90.629083 
L 167.346818 90.819059 
L 168.876393 91.654315 
L 169.933361 92.077934 
L 177.524687 93.653648 
L 179.28992 93.97872 
L 180.973302 94.447756 
L 182.725402 94.938439 
L 185.217692 95.524443 
L 187.72986 96.062875 
L 191.07171 97.050603 
L 193.504953 98.118977 
L 195.083175 99.260294 
L 196.661409 100.518386 
L 197.706061 101.325356 
L 198.674852 102.099197 
L 199.487095 102.938746 
L 200.241765 104.112807 
L 201.12638 105.925415 
L 202.172433 107.250206 
L 203.113146 108.176983 
L 204.991425 109.433911 
L 207.020849 110.431011 
L 209.593952 111.304048 
L 216.065455 112.949324 
L 216.899165 113.241588 
L 222.758678 114.665029 
L 224.744122 115.218283 
L 230.422746 117.69111 
L 232.399911 118.529861 
L 237.884952 120.499991 
L 241.359129 121.700706 
L 244.07684 122.688763 
L 248.482064 124.066538 
L 251.421322 124.948505 
L 264.401841 128.791761 
L 266.661268 129.381758 
L 267.752581 129.756408 
L 270.553762 130.306988 
L 279.540884 131.853504 
L 283.680789 132.657067 
L 289.314046 134.069056 
L 296.64474 136.365613 
L 301.202141 138.092001 
L 304.150825 139.563859 
L 306.963062 141.292211 
L 311.136566 144.15986 
L 312.608241 145.222427 
L 315.936044 147.29734 
L 319.629267 149.171035 
L 323.319822 150.741473 
L 330.301093 153.612757 
L 333.409976 154.827597 
L 342.062632 158.102368 
L 344.617055 159.242028 
L 351.593794 162.459254 
L 359.039388 166.027141 
L 363.350021 167.299641 
L 368.126367 168.484946 
L 371.948023 169.091601 
L 374.495594 169.594593 
L 377.120786 170.313158 
L 379.620864 171.041195 
L 385.562866 172.654197 
L 387.576589 173.414863 
L 389.700539 174.322019 
L 390.905756 174.569946 
L 392.881795 174.824467 
L 394.083494 174.94906 
L 394.653845 175.041419 
L 396.634455 176.062555 
L 396.981719 176.373642 
L 397.449505 177.320714 
L 397.867162 177.994012 
L 398.240988 179.086849 
L 398.487273 179.536517 
L 398.405764 179.766115 
L 397.630914 179.956213 
L 396.638733 179.954379 
L 394.806867 179.244058 
L 393.253596 178.544639 
L 391.858784 178.176867 
L 390.559268 177.854223 
L 388.334698 176.684441 
L 387.876387 176.089126 
L 387.599861 175.528247 
L 387.505489 175.159748 
L 386.851094 174.09663 
L 385.262459 172.921178 
L 383.743006 171.898619 
L 382.213047 170.885329 
L 381.206196 170.112839 
L 380.423064 169.135026 
L 379.81341 168.664519 
L 378.610303 168.077321 
L 377.840566 167.815562 
L 377.187452 167.749615 
L 376.562399 167.837716 
L 375.745675 167.793086 
L 374.852257 167.795279 
L 373.500795 167.674694 
L 372.475152 167.765301 
L 369.896857 168.489976 
L 369.016569 169.080885 
L 365.991059 172.718008 
L 363.491647 175.165295 
L 362.675754 175.771771 
L 361.886541 177.636752 
L 359.202066 181.088692 
L 356.758755 183.697814 
L 355.001968 186.120995 
L 352.691537 189.539988 
L 349.935156 194.017321 
L 347.57582 197.341162 
L 345.863382 199.379833 
L 343.941469 201.376028 
L 341.568871 204.322397 
L 340.085821 206.103752 
L 338.350948 208.729367 
L 335.800296 211.946277 
L 332.864011 216.114057 
L 331.965049 217.755792 
L 330.940251 219.484536 
L 329.760472 221.225878 
L 325.883928 225.771167 
L 323.255439 228.266012 
L 320.512055 230.997227 
L 317.50383 233.520904 
L 315.460061 235.166404 
L 312.494495 237.079418 
L 308.502491 240.260803 
L 305.971151 242.421737 
L 304.132882 243.907131 
L 302.331036 245.55243 
L 298.959302 248.19485 
L 297.855532 249.597694 
L 296.462746 252.562158 
L 296.16548 253.934562 
L 295.774586 255.353911 
L 295.235293 257.640558 
L 295.112058 260.18329 
L 295.113011 260.734906 
L 294.584028 262.818562 
L 294.0518 266.392448 
L 294.176982 267.260904 
L 294.643064 268.312477 
L 294.994506 268.892443 
L 298.003478 272.12089 
L 298.914476 273.388596 
L 300.258951 276.007892 
L 300.746992 276.739323 
L 300.998668 277.592183 
L 300.921501 278.31082 
L 300.850895 279.773057 
L 300.95557 280.174797 
L 302.034812 281.739344 
L 302.105579 282.778277 
L 302.162106 283.296477 
L 303.231942 284.657181 
L 303.524562 285.268946 
L 303.736893 286.367327 
L 303.766947 286.8418 
L 304.043877 288.066837 
L 303.940682 288.650956 
L 304.171677 289.657057 
L 304.156727 290.052096 
L 303.804633 290.819376 
L 303.269533 291.371562 
L 302.40308 292.043802 
L 302.203786 292.514423 
L 300.978152 293.752321 
L 296.039788 293.917863 
L 293.849909 294.237532 
L 292.416925 294.622046 
L 290.899541 294.886015 
L 288.354189 295.374515 
L 286.441054 295.474177 
L 285.161457 295.414826 
L 283.487488 295.311877 
L 282.203997 295.315622 
L 278.359428 294.923965 
L 274.963352 294.024832 
L 272.759434 293.08215 
L 266.638941 289.853829 
L 265.358828 288.919705 
L 262.271014 287.116837 
L 260.92218 286.151204 
L 258.562801 284.720613 
L 257.282841 283.638475 
L 255.429153 281.572041 
L 254.528482 280.568221 
L 253.424266 278.687313 
L 251.418588 276.094524 
L 250.460349 274.208277 
L 249.610081 272.483858 
L 249.30619 272.05369 
L 246.794799 270.758453 
L 243.956857 269.59683 
L 242.500196 268.872087 
L 239.865613 267.450097 
L 236.058454 265.647693 
L 232.644526 264.22607 
L 230.65974 263.389715 
L 228.014148 262.011008 
L 225.583553 260.628011 
L 221.405998 257.74963 
L 219.679585 256.587283 
L 217.72724 255.565518 
L 214.732325 254.317782 
L 212.320099 253.471992 
L 208.673742 252.381427 
L 205.125437 250.924291 
L 193.027032 245.091051 
L 187.745707 242.775984 
L 184.429273 240.857893 
L 180.479275 238.217187 
L 177.369955 236.4465 
L 176.312528 235.835807 
L 174.601836 234.440762 
L 172.72929 232.888216 
L 168.318434 229.46102 
L 166.024814 228.181059 
L 164.623687 227.487984 
L 162.586332 225.8743 
L 161.277783 224.986749 
L 157.613185 221.99049 
L 156.615695 220.881163 
L 155.286803 219.494705 
L 148.878292 213.387197 
L 144.190851 209.604821 
L 141.531881 207.458269 
L 139.983246 205.896769 
L 137.978741 203.605472 
L 137.276249 202.925201 
L 135.665044 201.590495 
L 134.14561 200.115653 
L 133.060975 198.687844 
L 131.776035 197.154941 
L 127.054446 192.195384 
L 125.402087 190.85532 
L 121.335735 188.133603 
L 119.34143 185.97587 
L 117.753013 184.42234 
L 114.602149 182.048612 
L 105.255431 176.260716 
L 103.16672 174.933264 
L 100.71287 173.625556 
L 95.539481 170.082669 
L 93.079093 167.853017 
L 90.090493 164.9074 
L 85.256071 159.021726 
L 83.815561 156.92784 
L 81.874326 154.507756 
L 81.265281 153.179909 
L 80.765713 151.585721 
L 79.473861 148.83154 
L 78.636534 146.994872 
L 77.103729 142.155944 
L 75.51876 138.593077 
L 74.50357 134.033821 
L 74.074178 132.421676 
L 73.888975 131.652841 
L 73.840261 129.217027 
L 74.068836 126.273373 
L 74.455689 123.979053 
L 74.627904 123.173142 
L 75.878575 120.274217 
L 76.465219 118.780377 
L 77.31443 116.041378 
L 78.519737 113.007696 
L 78.850881 111.405628 
L 79.237302 109.834474 
L 79.450989 108.314246 
L 79.438762 107.574243 
L 79.215139 106.21319 
L 79.215327 105.495349 
L 78.858507 102.95675 
L 79.048423 100.076233 
L 79.014115 99.663958 
L 78.345747 98.289706 
L 78.270481 98.104563 
L 78.45241 97.771095 
L 79.079167 97.611695 
L 80.19304 97.821638 
L 82.317498 98.127262 
L 82.317498 98.127262 
" clip-path="url(#p85ea011140)" style="fill: none; stroke: #ff7f0e; stroke-width: 1.5; stroke-linecap: square"/>
   </g>
   <g id="line2d_17">
    <path d="M 83.174494 98.203095 
L 83.174499 98.203114 
L 83.290389 98.163922 
L 83.302788 98.162419 
L 83.302788 98.162419 
" clip-path="url(#p85ea011140)" style="fill: none; stroke: #2ca02c; stroke-width: 1.5; stroke-linecap: square"/>
   </g>
   <g id="line2d_18">
    <path d="M 83.174494 98.203095 
L 83.179748 98.210045 
L 83.042626 98.16731 
L 82.699071 97.941959 
L 82.308751 97.514226 
L 82.061908 96.956438 
L 80.17042 94.913303 
L 80.10629 91.950576 
L 80.37103 90.587016 
L 80.558326 89.756936 
L 80.514715 88.954613 
L 80.540172 87.790634 
L 80.731671 86.72389 
L 81.03406 85.950261 
L 81.791754 84.133858 
L 82.422644 82.578632 
L 82.818151 81.895704 
L 83.427834 80.731258 
L 83.609445 80.164222 
L 83.900687 78.859644 
L 84.702311 78.037701 
L 86.802574 76.855226 
L 87.755293 76.505668 
L 88.599807 76.499137 
L 89.396488 76.525748 
L 90.646773 76.274031 
L 93.768851 75.057241 
L 96.150312 73.771667 
L 97.67981 72.823179 
L 99.773508 71.651394 
L 102.679798 70.366219 
L 104.387793 69.738827 
L 105.808873 69.025515 
L 106.917629 68.354945 
L 113.27079 64.032734 
L 114.150601 63.382256 
L 116.051809 61.972949 
L 117.679695 60.869758 
L 119.000831 60.072006 
L 122.973527 58.231154 
L 126.052722 57.271764 
L 130.1418 56.415519 
L 136.527889 55.107387 
L 141.639862 54.233416 
L 146.294108 53.686797 
L 149.412975 53.616754 
L 158.696814 53.823118 
L 173.490055 55.004158 
L 177.829268 55.648611 
L 180.845747 55.753085 
L 185.673508 55.812031 
L 188.867472 56.186784 
L 191.549334 56.531051 
L 194.35269 56.608714 
L 198.019037 56.408254 
L 202.989974 55.678193 
L 208.801976 54.815016 
L 211.290512 54.582792 
L 211.290512 54.582792 
" clip-path="url(#p85ea011140)" style="fill: none; stroke: #d62728; stroke-width: 1.5; stroke-linecap: square"/>
   </g>
   <g id="patch_3">
    <path d="M 57.6 307.584 
L 57.6 41.472 
" style="fill: none; stroke: #000000; stroke-width: 0.8; stroke-linejoin: miter; stroke-linecap: square"/>
   </g>
   <g id="patch_4">
    <path d="M 414.72 307.584 
L 414.72 41.472 
" style="fill: none; stroke: #000000; stroke-width: 0.8; stroke-linejoin: miter; stroke-linecap: square"/>
   </g>
   <g id="patch_5">
    <path d="M 57.6 307.584 
L 414.72 307.584 
" style="fill: none; stroke: #000000; stroke-width: 0.8; stroke-linejoin: miter; stroke-linecap: square"/>
   </g>
   <g id="patch_6">
    <path d="M 57.6 41.472 
L 414.72 41.472 
" style="fill: none; stroke: #000000; stroke-width: 0.8; stroke-linejoin: miter; stroke-linecap: square"/>
   </g>
   <g id="legend_1">
    <g id="patch_7">
     <path d="M 230.77 108.1845 
L 407.72 108.1845 
Q 409.72 108.1845 409.72 106.1845 
L 409.72 48.472 
Q 409.72 46.472 407.72 46.472 
L 230.77 46.472 
Q 228.77 46.472 228.77 48.472 
L 228.77 106.1845 
Q 228.77 108.1845 230.77 108.1845 
z
" style="fill: #ffffff; opacity: 0.8; stroke: #cccccc; stroke-linejoin: miter"/>
    </g>
    <g id="line2d_19">
     <path d="M 232.77 54.570438 
L 242.77 54.570438 
L 252.77 54.570438 
" style="fill: none; stroke: #1f77b4; stroke-width: 1.5; stroke-linecap: square"/>
    </g>
    <g id="text_17">
     <!-- Timmer-Koenig -->
     <g transform="translate(260.77 58.070438) scale(0.1 -0.1)">
      <defs>
       <path id="DejaVuSans-54" d="M -19 4666 
L 3928 4666 
L 3928 4134 
L 2272 4134 
L 2272 0 
L 1638 0 
L 1638 4134 
L -19 4134 
L -19 4666 
z
" transform="scale(0.015625)"/>
       <path id="DejaVuSans-69" d="M 603 3500 
L 1178 3500 
L 1178 0 
L 603 0 
L 603 3500 
z
M 603 4863 
L 1178 4863 
L 1178 4134 
L 603 4134 
L 603 4863 
z
" transform="scale(0.015625)"/>
       <path id="DejaVuSans-6d" d="M 3328 2828 
Q 3544 3216 3844 3400 
Q 4144 3584 4550 3584 
Q 5097 3584 5394 3201 
Q 5691 2819 5691 2113 
L 5691 0 
L 5113 0 
L 5113 2094 
Q 5113 2597 4934 2840 
Q 4756 3084 4391 3084 
Q 3944 3084 3684 2787 
Q 3425 2491 3425 1978 
L 3425 0 
L 2847 0 
L 2847 2094 
Q 2847 2600 2669 2842 
Q 2491 3084 2119 3084 
Q 1678 3084 1418 2786 
Q 1159 2488 1159 1978 
L 1159 0 
L 581 0 
L 581 3500 
L 1159 3500 
L 1159 2956 
Q 1356 3278 1631 3431 
Q 1906 3584 2284 3584 
Q 2666 3584 2933 3390 
Q 3200 3197 3328 2828 
z
" transform="scale(0.015625)"/>
       <path id="DejaVuSans-65" d="M 3597 1894 
L 3597 1613 
L 953 1613 
Q 991 1019 1311 708 
Q 1631 397 2203 397 
Q 2534 397 2845 478 
Q 3156 559 3463 722 
L 3463 178 
Q 3153 47 2828 -22 
Q 2503 -91 2169 -91 
Q 1331 -91 842 396 
Q 353 884 353 1716 
Q 353 2575 817 3079 
Q 1281 3584 2069 3584 
Q 2775 3584 3186 3129 
Q 3597 2675 3597 1894 
z
M 3022 2063 
Q 3016 2534 2758 2815 
Q 2500 3097 2075 3097 
Q 1594 3097 1305 2825 
Q 1016 2553 972 2059 
L 3022 2063 
z
" transform="scale(0.015625)"/>
       <path id="DejaVuSans-72" d="M 2631 2963 
Q 2534 3019 2420 3045 
Q 2306 3072 2169 3072 
Q 1681 3072 1420 2755 
Q 1159 2438 1159 1844 
L 1159 0 
L 581 0 
L 581 3500 
L 1159 3500 
L 1159 2956 
Q 1341 3275 1631 3429 
Q 1922 3584 2338 3584 
Q 2397 3584 2469 3576 
Q 2541 3569 2628 3553 
L 2631 2963 
z
" transform="scale(0.015625)"/>
       <path id="DejaVuSans-2d" d="M 313 2009 
L 1997 2009 
L 1997 1497 
L 313 1497 
L 313 2009 
z
" transform="scale(0.015625)"/>
       <path id="DejaVuSans-4b" d="M 628 4666 
L 1259 4666 
L 1259 2694 
L 3353 4666 
L 4166 4666 
L 1850 2491 
L 4331 0 
L 3500 0 
L 1259 2247 
L 1259 0 
L 628 0 
L 628 4666 
z
" transform="scale(0.015625)"/>
       <path id="DejaVuSans-6f" d="M 1959 3097 
Q 1497 3097 1228 2736 
Q 959 2375 959 1747 
Q 959 1119 1226 758 
Q 1494 397 1959 397 
Q 2419 397 2687 759 
Q 2956 1122 2956 1747 
Q 2956 2369 2687 2733 
Q 2419 3097 1959 3097 
z
M 1959 3584 
Q 2709 3584 3137 3096 
Q 3566 2609 3566 1747 
Q 3566 888 3137 398 
Q 2709 -91 1959 -91 
Q 1206 -91 779 398 
Q 353 888 353 1747 
Q 353 2609 779 3096 
Q 1206 3584 1959 3584 
z
" transform="scale(0.015625)"/>
       <path id="DejaVuSans-6e" d="M 3513 2113 
L 3513 0 
L 2938 0 
L 2938 2094 
Q 2938 2591 2744 2837 
Q 2550 3084 2163 3084 
Q 1697 3084 1428 2787 
Q 1159 2491 1159 1978 
L 1159 0 
L 581 0 
L 581 3500 
L 1159 3500 
L 1159 2956 
Q 1366 3272 1645 3428 
Q 1925 3584 2291 3584 
Q 2894 3584 3203 3211 
Q 3513 2838 3513 2113 
z
" transform="scale(0.015625)"/>
       <path id="DejaVuSans-67" d="M 2906 1791 
Q 2906 2416 2648 2759 
Q 2391 3103 1925 3103 
Q 1463 3103 1205 2759 
Q 947 2416 947 1791 
Q 947 1169 1205 825 
Q 1463 481 1925 481 
Q 2391 481 2648 825 
Q 2906 1169 2906 1791 
z
M 3481 434 
Q 3481 -459 3084 -895 
Q 2688 -1331 1869 -1331 
Q 1566 -1331 1297 -1286 
Q 1028 -1241 775 -1147 
L 775 -588 
Q 1028 -725 1275 -790 
Q 1522 -856 1778 -856 
Q 2344 -856 2625 -561 
Q 2906 -266 2906 331 
L 2906 616 
Q 2728 306 2450 153 
Q 2172 0 1784 0 
Q 1141 0 747 490 
Q 353 981 353 1791 
Q 353 2603 747 3093 
Q 1141 3584 1784 3584 
Q 2172 3584 2450 3431 
Q 2728 3278 2906 2969 
L 2906 3500 
L 3481 3500 
L 3481 434 
z
" transform="scale(0.015625)"/>
      </defs>
      <use xlink:href="#DejaVuSans-54"/>
      <use xlink:href="#DejaVuSans-69" transform="translate(57.958984 0)"/>
      <use xlink:href="#DejaVuSans-6d" transform="translate(85.742188 0)"/>
      <use xlink:href="#DejaVuSans-6d" transform="translate(183.154297 0)"/>
      <use xlink:href="#DejaVuSans-65" transform="translate(280.566406 0)"/>
      <use xlink:href="#DejaVuSans-72" transform="translate(342.089844 0)"/>
      <use xlink:href="#DejaVuSans-2d" transform="translate(376.828125 0)"/>
      <use xlink:href="#DejaVuSans-4b" transform="translate(412.912109 0)"/>
      <use xlink:href="#DejaVuSans-6f" transform="translate(473.488281 0)"/>
      <use xlink:href="#DejaVuSans-65" transform="translate(534.669922 0)"/>
      <use xlink:href="#DejaVuSans-6e" transform="translate(596.193359 0)"/>
      <use xlink:href="#DejaVuSans-69" transform="translate(659.572266 0)"/>
      <use xlink:href="#DejaVuSans-67" transform="translate(687.355469 0)"/>
     </g>
    </g>
    <g id="line2d_20">
     <path d="M 232.77 69.248563 
L 242.77 69.248563 
L 252.77 69.248563 
" style="fill: none; stroke: #ff7f0e; stroke-width: 1.5; stroke-linecap: square"/>
    </g>
    <g id="text_18">
     <!-- Phasenrandomisierung-Done -->
     <g transform="translate(260.77 72.748563) scale(0.1 -0.1)">
      <defs>
       <path id="DejaVuSans-50" d="M 1259 4147 
L 1259 2394 
L 2053 2394 
Q 2494 2394 2734 2622 
Q 2975 2850 2975 3272 
Q 2975 3691 2734 3919 
Q 2494 4147 2053 4147 
L 1259 4147 
z
M 628 4666 
L 2053 4666 
Q 2838 4666 3239 4311 
Q 3641 3956 3641 3272 
Q 3641 2581 3239 2228 
Q 2838 1875 2053 1875 
L 1259 1875 
L 1259 0 
L 628 0 
L 628 4666 
z
" transform="scale(0.015625)"/>
       <path id="DejaVuSans-68" d="M 3513 2113 
L 3513 0 
L 2938 0 
L 2938 2094 
Q 2938 2591 2744 2837 
Q 2550 3084 2163 3084 
Q 1697 3084 1428 2787 
Q 1159 2491 1159 1978 
L 1159 0 
L 581 0 
L 581 4863 
L 1159 4863 
L 1159 2956 
Q 1366 3272 1645 3428 
Q 1925 3584 2291 3584 
Q 2894 3584 3203 3211 
Q 3513 2838 3513 2113 
z
" transform="scale(0.015625)"/>
       <path id="DejaVuSans-61" d="M 2194 1759 
Q 1497 1759 1228 1600 
Q 959 1441 959 1056 
Q 959 750 1161 570 
Q 1363 391 1709 391 
Q 2188 391 2477 730 
Q 2766 1069 2766 1631 
L 2766 1759 
L 2194 1759 
z
M 3341 1997 
L 3341 0 
L 2766 0 
L 2766 531 
Q 2569 213 2275 61 
Q 1981 -91 1556 -91 
Q 1019 -91 701 211 
Q 384 513 384 1019 
Q 384 1609 779 1909 
Q 1175 2209 1959 2209 
L 2766 2209 
L 2766 2266 
Q 2766 2663 2505 2880 
Q 2244 3097 1772 3097 
Q 1472 3097 1187 3025 
Q 903 2953 641 2809 
L 641 3341 
Q 956 3463 1253 3523 
Q 1550 3584 1831 3584 
Q 2591 3584 2966 3190 
Q 3341 2797 3341 1997 
z
" transform="scale(0.015625)"/>
       <path id="DejaVuSans-73" d="M 2834 3397 
L 2834 2853 
Q 2591 2978 2328 3040 
Q 2066 3103 1784 3103 
Q 1356 3103 1142 2972 
Q 928 2841 928 2578 
Q 928 2378 1081 2264 
Q 1234 2150 1697 2047 
L 1894 2003 
Q 2506 1872 2764 1633 
Q 3022 1394 3022 966 
Q 3022 478 2636 193 
Q 2250 -91 1575 -91 
Q 1294 -91 989 -36 
Q 684 19 347 128 
L 347 722 
Q 666 556 975 473 
Q 1284 391 1588 391 
Q 1994 391 2212 530 
Q 2431 669 2431 922 
Q 2431 1156 2273 1281 
Q 2116 1406 1581 1522 
L 1381 1569 
Q 847 1681 609 1914 
Q 372 2147 372 2553 
Q 372 3047 722 3315 
Q 1072 3584 1716 3584 
Q 2034 3584 2315 3537 
Q 2597 3491 2834 3397 
z
" transform="scale(0.015625)"/>
       <path id="DejaVuSans-64" d="M 2906 2969 
L 2906 4863 
L 3481 4863 
L 3481 0 
L 2906 0 
L 2906 525 
Q 2725 213 2448 61 
Q 2172 -91 1784 -91 
Q 1150 -91 751 415 
Q 353 922 353 1747 
Q 353 2572 751 3078 
Q 1150 3584 1784 3584 
Q 2172 3584 2448 3432 
Q 2725 3281 2906 2969 
z
M 947 1747 
Q 947 1113 1208 752 
Q 1469 391 1925 391 
Q 2381 391 2643 752 
Q 2906 1113 2906 1747 
Q 2906 2381 2643 2742 
Q 2381 3103 1925 3103 
Q 1469 3103 1208 2742 
Q 947 2381 947 1747 
z
" transform="scale(0.015625)"/>
       <path id="DejaVuSans-75" d="M 544 1381 
L 544 3500 
L 1119 3500 
L 1119 1403 
Q 1119 906 1312 657 
Q 1506 409 1894 409 
Q 2359 409 2629 706 
Q 2900 1003 2900 1516 
L 2900 3500 
L 3475 3500 
L 3475 0 
L 2900 0 
L 2900 538 
Q 2691 219 2414 64 
Q 2138 -91 1772 -91 
Q 1169 -91 856 284 
Q 544 659 544 1381 
z
M 1991 3584 
L 1991 3584 
z
" transform="scale(0.015625)"/>
       <path id="DejaVuSans-44" d="M 1259 4147 
L 1259 519 
L 2022 519 
Q 2988 519 3436 956 
Q 3884 1394 3884 2338 
Q 3884 3275 3436 3711 
Q 2988 4147 2022 4147 
L 1259 4147 
z
M 628 4666 
L 1925 4666 
Q 3281 4666 3915 4102 
Q 4550 3538 4550 2338 
Q 4550 1131 3912 565 
Q 3275 0 1925 0 
L 628 0 
L 628 4666 
z
" transform="scale(0.015625)"/>
      </defs>
      <use xlink:href="#DejaVuSans-50"/>
      <use xlink:href="#DejaVuSans-68" transform="translate(60.302734 0)"/>
      <use xlink:href="#DejaVuSans-61" transform="translate(123.681641 0)"/>
      <use xlink:href="#DejaVuSans-73" transform="translate(184.960938 0)"/>
      <use xlink:href="#DejaVuSans-65" transform="translate(237.060547 0)"/>
      <use xlink:href="#DejaVuSans-6e" transform="translate(298.583984 0)"/>
      <use xlink:href="#DejaVuSans-72" transform="translate(361.962891 0)"/>
      <use xlink:href="#DejaVuSans-61" transform="translate(403.076172 0)"/>
      <use xlink:href="#DejaVuSans-6e" transform="translate(464.355469 0)"/>
      <use xlink:href="#DejaVuSans-64" transform="translate(527.734375 0)"/>
      <use xlink:href="#DejaVuSans-6f" transform="translate(591.210938 0)"/>
      <use xlink:href="#DejaVuSans-6d" transform="translate(652.392578 0)"/>
      <use xlink:href="#DejaVuSans-69" transform="translate(749.804688 0)"/>
      <use xlink:href="#DejaVuSans-73" transform="translate(777.587891 0)"/>
      <use xlink:href="#DejaVuSans-69" transform="translate(829.6875 0)"/>
      <use xlink:href="#DejaVuSans-65" transform="translate(857.470703 0)"/>
      <use xlink:href="#DejaVuSans-72" transform="translate(918.994141 0)"/>
      <use xlink:href="#DejaVuSans-75" transform="translate(960.107422 0)"/>
      <use xlink:href="#DejaVuSans-6e" transform="translate(1023.486328 0)"/>
      <use xlink:href="#DejaVuSans-67" transform="translate(1086.865234 0)"/>
      <use xlink:href="#DejaVuSans-2d" transform="translate(1150.341797 0)"/>
      <use xlink:href="#DejaVuSans-44" transform="translate(1186.425781 0)"/>
      <use xlink:href="#DejaVuSans-6f" transform="translate(1263.427734 0)"/>
      <use xlink:href="#DejaVuSans-6e" transform="translate(1324.609375 0)"/>
      <use xlink:href="#DejaVuSans-65" transform="translate(1387.988281 0)"/>
     </g>
    </g>
    <g id="line2d_21">
     <path d="M 232.77 83.926688 
L 242.77 83.926688 
L 252.77 83.926688 
" style="fill: none; stroke: #2ca02c; stroke-width: 1.5; stroke-linecap: square"/>
    </g>
    <g id="text_19">
     <!-- FracDiffFreq -->
     <g transform="translate(260.77 87.426688) scale(0.1 -0.1)">
      <defs>
       <path id="DejaVuSans-46" d="M 628 4666 
L 3309 4666 
L 3309 4134 
L 1259 4134 
L 1259 2759 
L 3109 2759 
L 3109 2228 
L 1259 2228 
L 1259 0 
L 628 0 
L 628 4666 
z
" transform="scale(0.015625)"/>
       <path id="DejaVuSans-63" d="M 3122 3366 
L 3122 2828 
Q 2878 2963 2633 3030 
Q 2388 3097 2138 3097 
Q 1578 3097 1268 2742 
Q 959 2388 959 1747 
Q 959 1106 1268 751 
Q 1578 397 2138 397 
Q 2388 397 2633 464 
Q 2878 531 3122 666 
L 3122 134 
Q 2881 22 2623 -34 
Q 2366 -91 2075 -91 
Q 1284 -91 818 406 
Q 353 903 353 1747 
Q 353 2603 823 3093 
Q 1294 3584 2113 3584 
Q 2378 3584 2631 3529 
Q 2884 3475 3122 3366 
z
" transform="scale(0.015625)"/>
       <path id="DejaVuSans-66" d="M 2375 4863 
L 2375 4384 
L 1825 4384 
Q 1516 4384 1395 4259 
Q 1275 4134 1275 3809 
L 1275 3500 
L 2222 3500 
L 2222 3053 
L 1275 3053 
L 1275 0 
L 697 0 
L 697 3053 
L 147 3053 
L 147 3500 
L 697 3500 
L 697 3744 
Q 697 4328 969 4595 
Q 1241 4863 1831 4863 
L 2375 4863 
z
" transform="scale(0.015625)"/>
       <path id="DejaVuSans-71" d="M 947 1747 
Q 947 1113 1208 752 
Q 1469 391 1925 391 
Q 2381 391 2643 752 
Q 2906 1113 2906 1747 
Q 2906 2381 2643 2742 
Q 2381 3103 1925 3103 
Q 1469 3103 1208 2742 
Q 947 2381 947 1747 
z
M 2906 525 
Q 2725 213 2448 61 
Q 2172 -91 1784 -91 
Q 1150 -91 751 415 
Q 353 922 353 1747 
Q 353 2572 751 3078 
Q 1150 3584 1784 3584 
Q 2172 3584 2448 3432 
Q 2725 3281 2906 2969 
L 2906 3500 
L 3481 3500 
L 3481 -1331 
L 2906 -1331 
L 2906 525 
z
" transform="scale(0.015625)"/>
      </defs>
      <use xlink:href="#DejaVuSans-46"/>
      <use xlink:href="#DejaVuSans-72" transform="translate(50.269531 0)"/>
      <use xlink:href="#DejaVuSans-61" transform="translate(91.382812 0)"/>
      <use xlink:href="#DejaVuSans-63" transform="translate(152.662109 0)"/>
      <use xlink:href="#DejaVuSans-44" transform="translate(207.642578 0)"/>
      <use xlink:href="#DejaVuSans-69" transform="translate(284.644531 0)"/>
      <use xlink:href="#DejaVuSans-66" transform="translate(312.427734 0)"/>
      <use xlink:href="#DejaVuSans-66" transform="translate(347.632812 0)"/>
      <use xlink:href="#DejaVuSans-46" transform="translate(382.837891 0)"/>
      <use xlink:href="#DejaVuSans-72" transform="translate(433.107422 0)"/>
      <use xlink:href="#DejaVuSans-65" transform="translate(471.970703 0)"/>
      <use xlink:href="#DejaVuSans-71" transform="translate(533.494141 0)"/>
     </g>
    </g>
    <g id="line2d_22">
     <path d="M 232.77 98.604813 
L 242.77 98.604813 
L 252.77 98.604813 
" style="fill: none; stroke: #d62728; stroke-width: 1.5; stroke-linecap: square"/>
    </g>
    <g id="text_20">
     <!-- FracDiffTime -->
     <g transform="translate(260.77 102.104813) scale(0.1 -0.1)">
      <use xlink:href="#DejaVuSans-46"/>
      <use xlink:href="#DejaVuSans-72" transform="translate(50.269531 0)"/>
      <use xlink:href="#DejaVuSans-61" transform="translate(91.382812 0)"/>
      <use xlink:href="#DejaVuSans-63" transform="translate(152.662109 0)"/>
      <use xlink:href="#DejaVuSans-44" transform="translate(207.642578 0)"/>
      <use xlink:href="#DejaVuSans-69" transform="translate(284.644531 0)"/>
      <use xlink:href="#DejaVuSans-66" transform="translate(312.427734 0)"/>
      <use xlink:href="#DejaVuSans-66" transform="translate(347.632812 0)"/>
      <use xlink:href="#DejaVuSans-54" transform="translate(382.837891 0)"/>
      <use xlink:href="#DejaVuSans-69" transform="translate(440.796875 0)"/>
      <use xlink:href="#DejaVuSans-6d" transform="translate(468.580078 0)"/>
      <use xlink:href="#DejaVuSans-65" transform="translate(565.992188 0)"/>
     </g>
    </g>
   </g>
  </g>
 </g>
 <defs>
  <clipPath id="p85ea011140">
   <rect x="57.6" y="41.472" width="357.12" height="266.112"/>
  </clipPath>
 </defs>
</svg>
