<?xml version="1.0" encoding="utf-8" standalone="no"?>
<!DOCTYPE svg PUBLIC "-//W3C//DTD SVG 1.1//EN"
  "http://www.w3.org/Graphics/SVG/1.1/DTD/svg11.dtd">
<svg xmlns:xlink="http://www.w3.org/1999/xlink" width="460.8pt" height="345.6pt" viewBox="0 0 460.8 345.6" xmlns="http://www.w3.org/2000/svg" version="1.1">
 <metadata>
  <rdf:RDF xmlns:dc="http://purl.org/dc/elements/1.1/" xmlns:cc="http://creativecommons.org/ns#" xmlns:rdf="http://www.w3.org/1999/02/22-rdf-syntax-ns#">
   <cc:Work>
    <dc:type rdf:resource="http://purl.org/dc/dcmitype/StillImage"/>
    <dc:date>2026-02-02T15:34:11.573368</dc:date>
    <dc:format>image/svg+xml</dc:format>
    <dc:creator>
     <cc:Agent>
      <dc:title>Matplotlib v3.10.8, https://matplotlib.org/</dc:title>
     </cc:Agent>
    </dc:creator>
   </cc:Work>
  </rdf:RDF>
 </metadata>
 <defs>
  <style type="text/css">*{stroke-linejoin: round; stroke-linecap: butt}</style>
 </defs>
 <g id="figure_1">
  <g id="patch_1">
   <path d="M 0 345.6 
L 460.8 345.6 
L 460.8 0 
L 0 0 
z
" style="fill: #ffffff"/>
  </g>
  <g id="axes_1">
   <g id="patch_2">
    <path d="M 107.5475 266.245 
L 434.88 266.245 
L 434.88 25.92 
L 107.5475 25.92 
z
" style="fill: #ffffff"/>
   </g>
   <g id="matplotlib.axis_1">
    <g id="xtick_1">
     <g id="line2d_1">
      <path d="M 141.999164 266.245 
L 141.999164 25.92 
" clip-path="url(#p0753a6fd53)" style="fill: none; stroke: #b0b0b0; stroke-width: 0.8; stroke-linecap: square"/>
     </g>
     <g id="line2d_2">
      <defs>
       <path id="m5019255a9d" d="M 0 0 
L 0 3.5 
" style="stroke: #000000; stroke-width: 0.8"/>
      </defs>
      <g>
       <use xlink:href="#m5019255a9d" x="141.999164" y="266.245" style="stroke: #000000; stroke-width: 0.8"/>
      </g>
     </g>
     <g id="text_1">
      <!-- −200 -->
      <g transform="translate(117.230414 289.63625) scale(0.24 -0.24)">
       <defs>
        <path id="TeXGyreTermes-Regular-2212" d="M 3354 1389 
L 3354 1811 
L 256 1811 
L 256 1389 
L 3354 1389 
z
" transform="scale(0.015625)"/>
        <path id="TeXGyreTermes-Regular-32" d="M 3040 877 
L 2957 909 
C 2720 544 2637 486 2349 486 
L 819 486 
L 1894 1613 
C 2464 2208 2714 2694 2714 3194 
C 2714 3834 2195 4326 1530 4326 
C 1178 4326 845 4186 608 3930 
C 403 3712 307 3507 198 3053 
L 333 3021 
C 589 3648 819 3853 1261 3853 
C 1798 3853 2163 3488 2163 2950 
C 2163 2451 1869 1856 1331 1286 
L 192 77 
L 192 0 
L 2688 0 
L 3040 877 
z
" transform="scale(0.015625)"/>
        <path id="TeXGyreTermes-Regular-30" d="M 3046 2112 
C 3046 3424 2464 4326 1626 4326 
C 1274 4326 1005 4218 768 3994 
C 397 3635 154 2899 154 2150 
C 154 1453 365 704 666 346 
C 902 64 1229 -90 1600 -90 
C 1926 -90 2202 19 2432 243 
C 2803 595 3046 1338 3046 2112 
z
M 2432 2099 
C 2432 762 2150 77 1600 77 
C 1050 77 768 762 768 2093 
C 768 3450 1056 4160 1606 4160 
C 2144 4160 2432 3437 2432 2099 
z
" transform="scale(0.015625)"/>
       </defs>
       <use xlink:href="#TeXGyreTermes-Regular-2212"/>
       <use xlink:href="#TeXGyreTermes-Regular-32" transform="translate(56.399994 0)"/>
       <use xlink:href="#TeXGyreTermes-Regular-30" transform="translate(106.399979 0)"/>
       <use xlink:href="#TeXGyreTermes-Regular-30" transform="translate(156.399963 0)"/>
      </g>
     </g>
    </g>
    <g id="xtick_2">
     <g id="line2d_3">
      <path d="M 230.94364 266.245 
L 230.94364 25.92 
" clip-path="url(#p0753a6fd53)" style="fill: none; stroke: #b0b0b0; stroke-width: 0.8; stroke-linecap: square"/>
     </g>
     <g id="line2d_4">
      <g>
       <use xlink:href="#m5019255a9d" x="230.94364" y="266.245" style="stroke: #000000; stroke-width: 0.8"/>
      </g>
     </g>
     <g id="text_2">
      <!-- −100 -->
      <g transform="translate(206.17489 289.63625) scale(0.24 -0.24)">
       <defs>
        <path id="TeXGyreTermes-Regular-31" d="M 2522 0 
L 2522 96 
C 2016 102 1914 166 1914 474 
L 1914 4314 
L 1862 4326 
L 710 3744 
L 710 3654 
C 787 3686 858 3712 883 3725 
C 998 3770 1107 3795 1171 3795 
C 1306 3795 1363 3699 1363 3494 
L 1363 595 
C 1363 384 1312 237 1210 179 
C 1114 122 1024 102 755 96 
L 755 0 
L 2522 0 
z
" transform="scale(0.015625)"/>
       </defs>
       <use xlink:href="#TeXGyreTermes-Regular-2212"/>
       <use xlink:href="#TeXGyreTermes-Regular-31" transform="translate(56.399994 0)"/>
       <use xlink:href="#TeXGyreTermes-Regular-30" transform="translate(106.399979 0)"/>
       <use xlink:href="#TeXGyreTermes-Regular-30" transform="translate(156.399963 0)"/>
      </g>
     </g>
    </g>
    <g id="xtick_3">
     <g id="line2d_5">
      <path d="M 319.888117 266.245 
L 319.888117 25.92 
" clip-path="url(#p0753a6fd53)" style="fill: none; stroke: #b0b0b0; stroke-width: 0.8; stroke-linecap: square"/>
     </g>
     <g id="line2d_6">
      <g>
       <use xlink:href="#m5019255a9d" x="319.888117" y="266.245" style="stroke: #000000; stroke-width: 0.8"/>
      </g>
     </g>
     <g id="text_3">
      <!-- 0 -->
      <g transform="translate(313.888117 289.63625) scale(0.24 -0.24)">
       <use xlink:href="#TeXGyreTermes-Regular-30"/>
      </g>
     </g>
    </g>
    <g id="xtick_4">
     <g id="line2d_7">
      <path d="M 408.832594 266.245 
L 408.832594 25.92 
" clip-path="url(#p0753a6fd53)" style="fill: none; stroke: #b0b0b0; stroke-width: 0.8; stroke-linecap: square"/>
     </g>
     <g id="line2d_8">
      <g>
       <use xlink:href="#m5019255a9d" x="408.832594" y="266.245" style="stroke: #000000; stroke-width: 0.8"/>
      </g>
     </g>
     <g id="text_4">
      <!-- 100 -->
      <g transform="translate(390.832594 289.63625) scale(0.24 -0.24)">
       <use xlink:href="#TeXGyreTermes-Regular-31"/>
       <use xlink:href="#TeXGyreTermes-Regular-30" transform="translate(49.999985 0)"/>
       <use xlink:href="#TeXGyreTermes-Regular-30" transform="translate(99.999969 0)"/>
      </g>
     </g>
    </g>
    <g id="text_5">
     <!-- x -->
     <g transform="translate(265.21375 315.23625) scale(0.24 -0.24)">
      <defs>
       <path id="TeXGyreTermes-Regular-78" d="M 3066 0 
L 3066 96 
C 2867 96 2739 198 2541 480 
L 1722 1734 
L 2253 2502 
C 2374 2675 2566 2778 2771 2784 
L 2771 2880 
L 1760 2880 
L 1760 2784 
C 1952 2771 2016 2733 2016 2643 
C 2016 2566 1939 2426 1779 2227 
C 1747 2189 1670 2074 1587 1946 
L 1498 2074 
C 1318 2342 1203 2560 1203 2643 
C 1203 2733 1286 2778 1478 2784 
L 1478 2880 
L 154 2880 
L 154 2784 
L 211 2784 
C 403 2784 506 2701 704 2400 
L 1306 1478 
L 576 422 
C 384 160 320 115 109 96 
L 109 0 
L 1037 0 
L 1037 96 
C 858 96 781 128 781 211 
C 781 250 826 346 909 474 
L 1414 1261 
L 1997 365 
C 2022 326 2035 288 2035 250 
C 2035 134 1990 109 1779 96 
L 1779 0 
L 3066 0 
z
" transform="scale(0.015625)"/>
      </defs>
      <use xlink:href="#TeXGyreTermes-Regular-78"/>
     </g>
    </g>
   </g>
   <g id="matplotlib.axis_2">
    <g id="ytick_1">
     <g id="line2d_9">
      <path d="M 107.5475 261.838118 
L 434.88 261.838118 
" clip-path="url(#p0753a6fd53)" style="fill: none; stroke: #b0b0b0; stroke-width: 0.8; stroke-linecap: square"/>
     </g>
     <g id="line2d_10">
      <defs>
       <path id="m1c0c1e13ed" d="M 0 0 
L -3.5 0 
" style="stroke: #000000; stroke-width: 0.8"/>
      </defs>
      <g>
       <use xlink:href="#m1c0c1e13ed" x="107.5475" y="261.838118" style="stroke: #000000; stroke-width: 0.8"/>
      </g>
     </g>
     <g id="text_6">
      <!-- −100 -->
      <g transform="translate(51.01 270.033743) scale(0.24 -0.24)">
       <use xlink:href="#TeXGyreTermes-Regular-2212"/>
       <use xlink:href="#TeXGyreTermes-Regular-31" transform="translate(56.399994 0)"/>
       <use xlink:href="#TeXGyreTermes-Regular-30" transform="translate(106.399979 0)"/>
       <use xlink:href="#TeXGyreTermes-Regular-30" transform="translate(156.399963 0)"/>
      </g>
     </g>
    </g>
    <g id="ytick_2">
     <g id="line2d_11">
      <path d="M 107.5475 189.3971 
L 434.88 189.3971 
" clip-path="url(#p0753a6fd53)" style="fill: none; stroke: #b0b0b0; stroke-width: 0.8; stroke-linecap: square"/>
     </g>
     <g id="line2d_12">
      <g>
       <use xlink:href="#m1c0c1e13ed" x="107.5475" y="189.3971" style="stroke: #000000; stroke-width: 0.8"/>
      </g>
     </g>
     <g id="text_7">
      <!-- −50 -->
      <g transform="translate(63.01 197.592725) scale(0.24 -0.24)">
       <defs>
        <path id="TeXGyreTermes-Regular-35" d="M 2803 4358 
L 2746 4403 
C 2650 4269 2586 4237 2451 4237 
L 1114 4237 
L 416 2720 
C 410 2707 410 2688 410 2688 
C 410 2656 435 2637 486 2637 
C 691 2637 947 2592 1210 2509 
C 1946 2272 2285 1875 2285 1242 
C 2285 627 1894 147 1395 147 
C 1267 147 1158 192 966 333 
C 762 480 614 544 480 544 
C 294 544 205 467 205 307 
C 205 64 506 -90 986 -90 
C 1523 -90 1984 83 2304 410 
C 2598 698 2733 1062 2733 1549 
C 2733 2010 2611 2304 2291 2624 
C 2010 2906 1645 3053 890 3187 
L 1158 3731 
L 2413 3731 
C 2515 3731 2541 3744 2560 3789 
L 2803 4358 
z
" transform="scale(0.015625)"/>
       </defs>
       <use xlink:href="#TeXGyreTermes-Regular-2212"/>
       <use xlink:href="#TeXGyreTermes-Regular-35" transform="translate(56.399994 0)"/>
       <use xlink:href="#TeXGyreTermes-Regular-30" transform="translate(106.399979 0)"/>
      </g>
     </g>
    </g>
    <g id="ytick_3">
     <g id="line2d_13">
      <path d="M 107.5475 116.956082 
L 434.88 116.956082 
" clip-path="url(#p0753a6fd53)" style="fill: none; stroke: #b0b0b0; stroke-width: 0.8; stroke-linecap: square"/>
     </g>
     <g id="line2d_14">
      <g>
       <use xlink:href="#m1c0c1e13ed" x="107.5475" y="116.956082" style="stroke: #000000; stroke-width: 0.8"/>
      </g>
     </g>
     <g id="text_8">
      <!-- 0 -->
      <g transform="translate(88.5475 125.151707) scale(0.24 -0.24)">
       <use xlink:href="#TeXGyreTermes-Regular-30"/>
      </g>
     </g>
    </g>
    <g id="ytick_4">
     <g id="line2d_15">
      <path d="M 107.5475 44.515064 
L 434.88 44.515064 
" clip-path="url(#p0753a6fd53)" style="fill: none; stroke: #b0b0b0; stroke-width: 0.8; stroke-linecap: square"/>
     </g>
     <g id="line2d_16">
      <g>
       <use xlink:href="#m1c0c1e13ed" x="107.5475" y="44.515064" style="stroke: #000000; stroke-width: 0.8"/>
      </g>
     </g>
     <g id="text_9">
      <!-- 50 -->
      <g transform="translate(76.5475 52.710689) scale(0.24 -0.24)">
       <use xlink:href="#TeXGyreTermes-Regular-35"/>
       <use xlink:href="#TeXGyreTermes-Regular-30" transform="translate(49.999985 0)"/>
      </g>
     </g>
    </g>
    <g id="text_10">
     <!-- y -->
     <g transform="translate(41.77875 152.0825) rotate(-90) scale(0.24 -0.24)">
      <defs>
       <path id="TeXGyreTermes-Regular-79" d="M 3040 2784 
L 3040 2880 
L 2176 2880 
L 2176 2784 
C 2381 2784 2483 2726 2483 2624 
C 2483 2598 2477 2560 2458 2515 
L 1837 749 
L 1101 2368 
C 1062 2458 1037 2541 1037 2611 
C 1037 2726 1133 2771 1408 2784 
L 1408 2880 
L 90 2880 
L 90 2790 
C 256 2765 365 2694 416 2586 
L 1472 358 
C 1517 250 1542 173 1542 122 
C 1542 26 1395 -378 1286 -570 
C 1197 -736 1056 -858 966 -858 
C 928 -858 870 -845 806 -813 
C 685 -768 576 -742 467 -742 
C 320 -742 192 -870 192 -1024 
C 192 -1235 397 -1395 666 -1395 
C 1094 -1395 1402 -1037 1747 -115 
L 2733 2496 
C 2816 2701 2886 2765 3040 2784 
z
" transform="scale(0.015625)"/>
      </defs>
      <use xlink:href="#TeXGyreTermes-Regular-79"/>
     </g>
    </g>
   </g>
   <g id="line2d_17">
    <path d="M 319.888117 116.956082 
L 320.175234 115.700535 
L 319.134876 115.432706 
L 318.05111 115.807016 
L 316.964407 117.000324 
L 316.192434 117.540441 
L 314.210062 119.165488 
L 311.358126 119.467796 
L 310.673996 119.027712 
L 311.247918 120.137411 
L 310.178505 120.365056 
L 309.733504 119.383747 
L 310.174371 116.996596 
L 311.786709 118.367243 
L 312.798216 118.239109 
L 311.617673 119.248185 
L 311.664852 120.871818 
L 311.832983 121.208347 
L 311.719764 120.412239 
L 311.843529 121.178906 
L 312.278325 120.697681 
L 312.65337 121.436824 
L 312.156398 122.466494 
L 310.701279 124.699874 
L 309.201257 124.125571 
L 308.230633 125.547619 
L 306.372305 126.757756 
L 305.40869 126.845943 
L 305.23974 127.887152 
L 303.622171 128.583721 
L 303.922671 130.570668 
L 304.425891 129.393495 
L 304.876848 130.129668 
L 304.443995 130.743241 
L 305.780236 131.876058 
L 304.266862 133.522216 
L 303.851024 135.628891 
L 303.667003 138.459616 
L 302.533058 140.143985 
L 303.719923 140.000171 
L 303.44457 143.306473 
L 302.958802 144.543408 
L 303.275988 144.381171 
L 302.628441 146.212268 
L 303.600388 147.394734 
L 303.297131 150.915347 
L 303.379264 152.943291 
L 303.382088 156.043062 
L 303.900343 158.411917 
L 303.894955 160.240029 
L 303.05061 162.668617 
L 303.403564 161.342604 
L 303.998717 161.682205 
L 303.071714 161.771855 
L 302.701895 162.056711 
L 301.854338 162.490825 
L 301.741931 165.907702 
L 302.307395 164.491562 
L 301.548256 162.895648 
L 301.860064 161.423838 
L 301.542831 161.212136 
L 302.661072 161.300083 
L 302.379596 161.423757 
L 301.620387 162.320393 
L 301.969341 162.370153 
L 301.654443 164.124195 
L 300.689386 165.965909 
L 298.773157 165.816392 
L 298.490646 164.510241 
L 299.203309 163.331578 
L 300.14536 165.049406 
L 299.044559 166.658175 
L 297.895279 167.874475 
L 296.401271 169.993946 
L 296.194113 169.753694 
L 295.531974 170.438958 
L 295.313839 170.962269 
L 294.342559 169.960711 
L 293.505578 171.749573 
L 293.046066 174.137883 
L 292.048129 178.857654 
L 293.189674 179.412857 
L 294.27653 178.23846 
L 294.191956 177.904359 
L 294.352651 177.209696 
L 293.709835 176.383466 
L 292.864416 176.740913 
L 292.044285 175.692577 
L 291.575678 175.639808 
L 290.366768 173.913305 
L 289.621689 174.452421 
L 288.165127 173.541251 
L 288.872978 171.780525 
L 288.602444 171.822522 
L 288.468283 171.453558 
L 288.619658 170.703388 
L 288.862886 171.764636 
L 288.794026 171.407381 
L 288.797502 170.746339 
L 289.71552 171.309284 
L 290.397361 173.146413 
L 290.946011 172.852725 
L 289.826337 174.433733 
L 290.097052 175.039009 
L 290.119988 175.840225 
L 291.810174 175.818848 
L 292.139273 175.239427 
L 292.237234 173.808133 
L 291.986859 172.910352 
L 290.820597 172.73018 
L 289.86189 174.004576 
L 289.099242 174.793325 
L 288.848921 175.471046 
L 288.487708 178.306776 
L 287.799334 180.162017 
L 287.712998 179.525495 
L 287.489199 180.862856 
L 287.614833 181.525655 
L 287.25943 182.363681 
L 286.016343 180.802961 
L 285.64118 181.695946 
L 284.148299 182.188417 
L 283.285001 180.118681 
L 283.984266 179.160213 
L 284.225849 179.03845 
L 284.409455 177.493744 
L 284.407014 175.683405 
L 284.400984 176.376208 
L 285.716742 178.372563 
L 284.706378 181.474702 
L 284.056354 181.047785 
L 283.268602 180.936372 
L 282.603616 181.578853 
L 282.409103 182.853878 
L 281.661746 182.755557 
L 280.440216 184.447101 
L 281.015566 184.456984 
L 279.7772 185.349036 
L 279.160139 186.218181 
L 279.200794 187.310772 
L 278.39012 188.786998 
L 276.217816 187.182315 
L 276.226711 186.543174 
L 275.365956 188.440703 
L 274.11777 190.466149 
L 273.873135 190.063774 
L 272.852602 189.451054 
L 272.009126 188.171698 
L 270.369489 186.415591 
L 271.341816 186.51684 
L 272.57225 186.955515 
L 274.018737 186.023801 
L 273.957268 184.99652 
L 273.377088 183.025555 
L 273.765149 183.179851 
L 273.455845 183.12091 
L 274.067527 183.785546 
L 274.755362 185.910311 
L 275.654962 185.916966 
L 274.165309 187.30638 
L 274.318043 187.193779 
L 273.199659 189.281625 
L 272.239885 189.824332 
L 271.969194 191.743691 
L 271.216302 193.555967 
L 273.391924 196.09374 
L 274.305379 196.818834 
L 275.338311 198.658478 
L 276.686407 198.0855 
L 274.448105 197.293571 
L 273.51456 197.807033 
L 272.511687 198.140584 
L 270.658972 200.025849 
L 269.38337 201.070466 
L 267.640587 203.327936 
L 267.664299 204.174122 
L 268.867636 206.568167 
L 270.382238 211.431114 
L 270.886652 211.713874 
L 272.121974 213.880963 
L 271.383171 213.55339 
L 271.807861 213.314827 
L 271.513148 212.887683 
L 269.711653 210.591761 
L 269.825171 211.631352 
L 269.944408 209.96575 
L 269.896438 207.359166 
L 268.913678 207.802155 
L 267.797107 206.81561 
L 268.07479 205.645278 
L 267.605854 204.657348 
L 265.120934 204.817567 
L 263.649649 204.06864 
L 263.112439 205.082877 
L 262.91204 205.996165 
L 262.520676 204.32139 
L 262.270163 203.875349 
L 261.674917 201.789138 
L 261.581592 201.054166 
L 261.933003 199.713686 
L 261.278126 197.687172 
L 261.743999 195.204909 
L 262.591899 193.690317 
L 262.860566 194.872581 
L 262.209153 192.596442 
L 260.947949 191.192302 
L 260.036532 192.138071 
L 260.688484 191.020975 
L 261.032029 188.669093 
L 260.519957 188.924844 
L 260.657854 188.638536 
L 260.26167 188.24346 
L 259.355005 186.570393 
L 260.417279 185.827544 
L 260.551729 183.586931 
L 260.312548 184.483383 
L 260.817159 183.463737 
L 262.109661 181.900618 
L 262.332785 181.046467 
L 261.516074 180.508195 
L 260.283055 179.20824 
L 259.024159 178.834287 
L 258.84091 176.670671 
L 259.813407 176.740273 
L 258.264759 175.587313 
L 259.33266 174.993353 
L 260.062395 175.126965 
L 261.815773 174.896215 
L 262.225279 173.086154 
L 262.681311 173.024324 
L 262.925315 174.320831 
L 264.616268 174.522534 
L 264.549689 174.505745 
L 265.647537 174.793447 
L 265.297367 175.00267 
L 265.559652 174.019578 
L 266.164135 173.887515 
L 266.142463 171.705819 
L 266.730144 169.585857 
L 265.883322 168.99101 
L 265.717252 169.756404 
L 265.933816 170.372977 
L 264.600306 169.168571 
L 263.850916 167.514454 
L 263.876258 163.477773 
L 264.068405 161.055917 
L 264.073077 159.450709 
L 264.4653 158.83364 
L 264.520505 154.395012 
L 265.333101 152.945367 
L 264.386741 152.416094 
L 263.977873 149.827276 
L 264.706587 149.550771 
L 264.952102 150.304603 
L 265.299568 148.533497 
L 265.930773 146.511167 
L 264.308475 142.425827 
L 263.863467 139.527186 
L 261.542072 137.415208 
L 262.866502 139.985521 
L 261.857552 140.392257 
L 258.325258 139.061366 
L 257.672472 140.299738 
L 257.459203 143.37514 
L 256.277173 146.459858 
L 256.041942 147.981509 
L 255.056451 149.507691 
L 254.355554 149.680468 
L 252.904351 149.617351 
L 251.79269 151.506039 
L 250.911637 152.172226 
L 249.201366 154.609525 
L 247.86674 153.351273 
L 246.807298 152.637057 
L 245.431978 152.899139 
L 244.938825 152.77939 
L 245.933185 152.104339 
L 247.263794 152.204071 
L 247.181442 153.789382 
L 247.300892 154.596147 
L 248.567041 154.40579 
L 248.695989 156.094195 
L 248.526987 156.199373 
L 248.900465 156.970257 
L 248.082813 157.435961 
L 248.28614 160.16052 
L 247.757364 162.224168 
L 246.300784 161.261194 
L 245.497694 161.304506 
L 245.088042 162.184351 
L 244.282083 161.686088 
L 244.620095 163.790689 
L 245.067292 165.77092 
L 245.010821 167.810819 
L 245.229771 169.918622 
L 245.27471 169.010156 
L 244.021911 172.202296 
L 242.654195 176.38292 
L 242.132258 177.192925 
L 241.980785 180.206862 
L 241.710057 179.166848 
L 241.096278 178.974094 
L 240.759392 177.720351 
L 239.842137 176.447893 
L 240.126842 173.958038 
L 237.933429 174.420206 
L 238.945712 174.082917 
L 237.997865 169.646822 
L 238.223557 166.24594 
L 238.795454 164.005994 
L 237.15799 160.406641 
L 236.679595 160.053777 
L 237.081849 154.519753 
L 237.683356 156.635807 
L 237.35131 157.362785 
L 238.298252 156.921063 
L 237.624822 155.455641 
L 237.394176 155.637628 
L 234.390438 159.284088 
L 234.425339 160.204444 
L 232.259883 161.495808 
L 230.8214 162.770213 
L 231.448634 161.339412 
L 229.549129 161.878673 
L 229.102753 164.134241 
L 227.478932 167.368356 
L 227.723433 169.082826 
L 227.284268 167.907221 
L 227.407956 166.002955 
L 227.727716 168.559918 
L 227.644685 168.536735 
L 228.321021 168.902608 
L 228.8015 167.816552 
L 228.657508 167.136515 
L 228.274971 166.122322 
L 227.127938 165.84698 
L 226.900979 168.190268 
L 226.561819 170.44277 
L 224.771133 170.58126 
L 224.985158 172.340173 
L 224.347717 171.827853 
L 223.776418 172.548705 
L 223.236665 171.770369 
L 220.508449 169.531494 
L 220.141277 170.188648 
L 219.60703 171.905585 
L 218.231335 170.21242 
L 216.812717 169.581935 
L 214.941904 170.659593 
L 215.191131 168.596079 
L 215.392151 169.13453 
L 215.159141 169.495022 
L 214.711068 167.900085 
L 214.243648 167.366822 
L 213.802381 169.257374 
L 214.143046 170.522481 
L 213.924372 172.374445 
L 214.509429 172.306888 
L 213.527664 171.102407 
L 212.523581 171.110922 
L 212.941499 167.855335 
L 212.013747 167.60226 
L 213.208194 168.625414 
L 213.716088 168.622205 
L 213.877263 167.462447 
L 214.245575 166.228929 
L 213.619279 167.017822 
L 212.639814 166.498101 
L 212.060029 167.377626 
L 211.351765 170.169019 
L 211.219824 171.771885 
L 210.902897 173.595595 
L 209.900825 172.84145 
L 207.389144 172.854847 
L 205.350419 172.250835 
L 205.118431 174.040057 
L 204.582947 176.471633 
L 205.112843 177.122311 
L 203.908277 179.666692 
L 204.872291 179.719417 
L 206.578232 178.546738 
L 205.271849 176.21503 
L 205.54338 175.090133 
L 206.554008 175.471989 
L 204.683335 177.33803 
L 203.622773 177.290722 
L 203.018829 175.561468 
L 202.074702 175.508323 
L 201.284137 172.16574 
L 200.765305 172.887567 
L 201.201474 175.458237 
L 200.696807 175.291893 
L 200.982708 174.656996 
L 201.602623 174.733924 
L 203.035456 174.146446 
L 202.324308 176.104443 
L 202.37265 177.168081 
L 202.720431 178.349871 
L 202.968354 179.648794 
L 199.389168 179.66191 
L 196.644533 178.14895 
L 195.604817 179.308397 
L 195.909973 180.334426 
L 195.496814 183.038391 
L 194.642955 184.569151 
L 192.898303 184.741403 
L 193.986994 185.495561 
L 193.277026 185.159328 
L 191.58226 186.645461 
L 189.388281 185.130223 
L 188.7433 186.813358 
L 188.460456 185.462861 
L 187.901354 185.651411 
L 188.709756 185.107204 
L 188.124489 186.030923 
L 188.394965 187.54814 
L 188.219162 188.148885 
L 184.749162 188.214282 
L 184.04548 186.593771 
L 184.381956 186.108495 
L 185.514258 184.081198 
L 184.700878 183.346605 
L 185.2465 182.467674 
L 185.146259 181.351573 
L 184.294468 182.42709 
L 184.072382 184.701244 
L 183.597525 184.548147 
L 183.834251 184.074858 
L 183.505025 185.909026 
L 182.754634 187.531265 
L 180.994312 188.632559 
L 179.993647 187.846679 
L 180.594292 186.204964 
L 180.720327 188.11639 
L 180.617122 188.90014 
L 180.890599 186.707196 
L 180.657778 187.221647 
L 180.947351 186.556656 
L 181.303494 187.22309 
L 181.595943 187.436234 
L 180.6428 185.787063 
L 180.816996 185.6319 
L 180.201738 184.632904 
L 180.836207 185.158953 
L 180.758133 184.898452 
L 180.698329 186.498319 
L 179.881533 187.692209 
L 178.916238 186.701906 
L 180.409412 187.249084 
L 180.64277 188.592279 
L 180.974767 187.569977 
L 181.323344 187.397534 
L 180.149602 188.498488 
L 180.083865 189.437047 
L 180.789388 190.313196 
L 181.530247 188.81036 
L 181.105385 189.331663 
L 180.240098 188.65513 
L 179.769662 187.54897 
L 178.659859 186.443575 
L 179.271076 184.716839 
L 179.023919 182.967581 
L 178.573017 184.916055 
L 178.684376 185.521094 
L 179.929151 184.581828 
L 178.896382 183.895983 
L 179.170543 183.345961 
L 178.111656 183.683835 
L 178.448036 184.411089 
L 177.539952 184.694914 
L 177.297634 183.653053 
L 176.834009 184.116858 
L 177.651159 184.243411 
L 178.265734 182.980746 
L 179.525675 183.133101 
L 180.73426 181.308821 
L 181.101022 183.484337 
L 182.507138 185.192086 
L 182.358881 183.547067 
L 181.954654 181.218503 
L 182.521334 182.876144 
L 183.551865 184.745704 
L 182.536518 187.146009 
L 182.43179 188.916796 
L 182.805257 189.358303 
L 181.620975 189.377366 
L 180.496439 190.432494 
L 180.081895 188.295345 
L 180.822321 188.811084 
L 181.164461 187.61603 
L 180.947196 186.68297 
L 181.361247 189.028206 
L 181.899718 189.728519 
L 182.49702 188.472593 
L 182.419612 187.844552 
L 182.440921 189.735528 
L 180.917297 191.490635 
L 181.451404 189.900746 
L 181.521747 188.492636 
L 180.358354 188.004729 
L 180.404368 187.87115 
L 182.198669 188.064742 
L 182.784627 186.402616 
L 183.245492 185.533119 
L 183.97592 185.371196 
L 183.265743 185.014808 
L 182.444169 186.225079 
L 182.402045 187.068087 
L 183.330614 185.293743 
L 183.429469 186.701809 
L 183.979374 188.050971 
L 183.702337 188.208232 
L 183.178349 189.282475 
L 183.325634 187.534019 
L 183.686638 184.905983 
L 185.448974 183.791219 
L 185.909401 182.508766 
L 185.331469 179.60541 
L 184.930919 180.398725 
L 186.057731 183.976353 
L 185.515302 182.565461 
L 185.209259 181.69964 
L 184.35595 181.858168 
L 184.776267 180.829134 
L 186.079715 184.392762 
L 186.186528 181.752516 
L 185.599227 180.466577 
L 187.596373 181.709089 
L 187.275173 183.877978 
L 188.93094 185.549522 
L 189.582171 185.984295 
L 189.518568 187.566494 
L 190.551754 188.695472 
L 190.751342 187.986129 
L 190.115476 187.910816 
L 189.569049 188.546111 
L 187.52443 189.942636 
L 186.565421 189.552284 
L 185.168649 189.761659 
L 184.511506 190.537617 
L 184.626709 192.164295 
L 183.919345 193.157538 
L 183.501172 191.421571 
L 183.933702 189.776447 
L 182.555329 189.437456 
L 179.629135 189.50887 
L 177.606026 189.241326 
L 176.363992 187.841731 
L 174.933879 186.575969 
L 172.943341 181.860185 
L 171.575967 181.015664 
L 171.030114 178.502826 
L 169.489631 178.18879 
L 170.41247 179.139927 
L 169.174179 179.912456 
L 167.285583 179.69177 
L 167.386201 179.235746 
L 166.549402 180.125595 
L 167.258247 181.124468 
L 167.322566 180.488601 
L 167.752069 183.89261 
L 168.442141 184.994457 
L 167.812278 186.160144 
L 166.373251 182.998405 
L 165.610312 182.434 
L 162.882052 178.48199 
L 161.806779 177.980504 
L 161.833487 177.477137 
L 161.380389 175.7915 
L 161.077083 173.595121 
L 160.312924 173.001133 
L 160.436137 171.191445 
L 159.64041 172.377765 
L 159.916473 171.786615 
L 159.104665 169.709526 
L 158.869112 169.629564 
L 159.66096 169.43917 
L 158.849514 168.65857 
L 158.720371 170.742413 
L 157.692647 171.076134 
L 157.7469 170.528052 
L 157.945327 171.145595 
L 158.035732 171.905981 
L 159.527648 172.274907 
L 159.795207 171.019278 
L 160.467504 173.232284 
L 160.589878 174.113058 
L 160.484374 173.538992 
L 161.386144 172.905425 
L 162.146981 171.56493 
L 162.265502 170.088354 
L 162.631519 170.226348 
L 164.171021 168.472933 
L 164.626836 168.765246 
L 163.313272 169.383709 
L 162.761097 170.255114 
L 163.118593 170.671887 
L 163.648604 170.811118 
L 163.736758 171.684387 
L 164.466731 173.084833 
L 164.993928 173.085999 
L 165.945856 174.43674 
L 165.860861 174.17751 
L 165.788238 173.48683 
L 166.855513 174.121277 
L 168.13766 174.609429 
L 168.286802 177.77965 
L 167.75788 179.00332 
L 167.900776 178.877495 
L 169.212064 181.567573 
L 170.297906 179.915489 
L 170.007975 181.27878 
L 170.632812 180.728069 
L 171.981446 182.297777 
L 171.744214 183.112027 
L 173.355814 183.936548 
L 174.145637 185.118488 
L 175.472052 186.046649 
L 176.261307 187.539398 
L 176.58912 190.626169 
L 177.994414 194.23351 
L 178.636395 195.058116 
L 178.218363 195.009971 
L 178.944771 194.808329 
L 178.284825 193.551384 
L 178.154386 192.926317 
L 178.177857 190.384207 
L 177.882226 190.449914 
L 176.279098 190.536796 
L 175.879673 191.81082 
L 174.473929 193.355734 
L 172.851759 191.138195 
L 172.193249 189.365772 
L 169.321168 188.650758 
L 169.302911 187.362142 
L 168.156546 188.782074 
L 167.165701 185.887782 
L 167.32103 183.906543 
L 166.986427 183.491223 
L 165.960235 177.81654 
L 166.860521 178.064436 
L 166.375889 177.468175 
L 166.522321 177.993352 
L 167.257312 176.032522 
L 167.367118 174.606845 
L 167.969592 173.537548 
L 167.300418 171.178491 
L 166.888701 170.873402 
L 166.915729 170.507342 
L 165.195436 168.287198 
L 164.636639 164.565665 
L 163.479422 164.564924 
L 162.78507 161.013002 
L 162.256802 158.966586 
L 161.733338 158.975752 
L 161.174062 157.602277 
L 161.459296 155.906584 
L 160.997093 153.688471 
L 160.155249 152.081626 
L 159.606018 148.802601 
L 158.584203 148.899043 
L 157.68475 147.199817 
L 156.396041 148.244298 
L 154.346299 147.938757 
L 153.359822 147.380445 
L 151.760907 144.447135 
L 151.4732 141.533553 
L 150.653548 142.328035 
L 148.980401 142.27693 
L 148.805121 143.740422 
L 149.800527 143.109233 
L 149.540289 140.573575 
L 148.296105 139.529138 
L 146.878366 139.404089 
L 144.929589 139.797952 
L 143.685289 141.176908 
L 144.184327 141.417858 
L 143.58506 142.069426 
L 142.074793 142.045583 
L 142.583841 142.605861 
L 142.137394 142.856607 
L 141.335178 142.230463 
L 140.469415 140.49981 
L 139.716853 141.022806 
L 138.408332 139.589398 
L 139.242747 140.641395 
L 138.98034 139.948634 
L 139.589773 140.307962 
L 139.391587 139.340594 
L 139.315636 137.418354 
L 140.222146 137.954943 
L 140.641517 138.428982 
L 140.216494 137.657899 
L 139.436496 139.178626 
L 137.600246 139.844992 
L 136.662697 136.946944 
L 136.261037 137.173897 
L 136.395822 135.440766 
L 136.618589 134.051108 
L 134.550344 134.741956 
L 133.671653 134.580681 
L 133.265678 136.755557 
L 132.797442 138.31069 
L 130.519678 138.803599 
L 127.984179 138.795005 
L 128.126781 139.98744 
L 126.025791 141.559778 
L 125.616352 144.277055 
L 127.183006 146.360838 
L 125.953578 146.520582 
L 124.76676 147.797472 
L 124.508228 149.112487 
L 124.12492 148.860793 
L 122.975902 151.02862 
L 123.236587 151.730582 
L 124.675113 152.337777 
L 125.495234 150.42015 
L 125.017607 146.998139 
L 122.802001 143.665381 
L 124.291233 141.220542 
L 124.313347 134.067021 
L 122.838465 133.709735 
L 122.42625 134.481361 
L 124.045251 133.048366 
L 123.898821 134.247436 
L 124.386731 133.306528 
L 124.906293 130.91976 
L 124.372893 129.904355 
L 125.114888 130.474807 
L 125.161528 132.522057 
L 126.486354 133.09266 
L 126.339191 138.151694 
L 125.546737 137.141643 
L 124.591589 137.314954 
L 125.579326 136.346371 
L 125.82183 136.633434 
L 128.128774 136.469761 
L 130.608832 135.405987 
L 131.497597 136.405 
L 132.431426 138.605247 
L 133.786655 139.446705 
L 135.323838 142.67308 
L 136.687039 144.248045 
L 137.026865 145.832516 
L 137.972504 145.719021 
L 138.295295 145.279362 
L 138.345818 143.721224 
L 138.211019 144.016545 
L 139.171837 140.962809 
L 140.023023 143.483741 
L 141.704756 144.184254 
L 144.453965 145.547133 
L 144.723772 147.414074 
L 145.979911 147.883136 
L 145.392625 147.814257 
L 144.896574 148.255677 
L 146.530942 151.390575 
L 148.532412 152.315158 
L 148.426303 154.343992 
L 149.844819 154.876712 
L 149.581282 156.352113 
L 148.454264 155.582655 
L 148.025768 154.551659 
L 146.695328 154.798957 
L 146.357915 156.160962 
L 145.481739 157.185726 
L 145.211228 158.438252 
L 145.746555 159.144172 
L 144.767839 160.106759 
L 145.708358 160.695182 
L 145.270112 161.98202 
L 144.693875 160.260917 
L 143.944687 160.311524 
L 142.84576 160.054001 
L 143.166388 161.033389 
L 144.50285 162.835346 
L 145.649684 161.958152 
L 146.004289 161.333815 
L 146.549124 162.847447 
L 146.560675 165.626039 
L 146.840241 166.317863 
L 146.579725 167.619294 
L 148.197505 165.710881 
L 148.925588 165.04726 
L 151.080308 164.942536 
L 150.383137 164.764612 
L 150.974883 165.75582 
L 150.64122 167.665682 
L 151.108947 169.762446 
L 152.11488 171.26985 
L 152.210626 172.466973 
L 152.062424 173.05472 
L 152.343024 172.676572 
L 153.058364 172.149827 
L 153.879231 171.155217 
L 154.641723 170.624048 
L 155.629038 171.585805 
L 159.011038 169.687188 
L 159.150709 170.265838 
L 160.027587 171.041717 
L 160.670615 174.482293 
L 161.400643 173.692101 
L 162.252241 174.090067 
L 161.294585 176.10844 
L 161.841452 177.159991 
L 163.612504 178.333612 
L 164.19722 179.379417 
L 164.724271 179.855632 
L 164.997955 180.401266 
L 165.210957 179.702343 
L 165.027135 179.078416 
L 164.331132 177.890026 
L 165.049168 178.29473 
L 164.827343 177.463712 
L 166.39506 177.263903 
L 166.814682 177.80688 
L 167.852089 177.396293 
L 168.458537 179.633805 
L 169.048423 181.077254 
L 169.510873 181.172683 
L 169.360805 181.403488 
L 170.909939 179.848667 
L 172.176369 180.301488 
L 173.208794 179.169514 
L 172.350708 177.965716 
L 172.019062 176.075795 
L 172.14441 176.235322 
L 170.638433 176.367205 
L 170.343755 176.062663 
L 169.607424 174.885782 
L 169.205252 176.042421 
L 170.451313 178.848135 
L 171.142349 178.909636 
L 171.035883 182.172039 
L 170.862692 182.88906 
L 170.604676 180.824211 
L 171.292759 181.051582 
L 171.99916 182.064239 
L 172.537861 182.208774 
L 174.176008 181.105202 
L 176.905516 182.429298 
L 177.470181 182.993655 
L 178.450924 181.411437 
L 179.204241 180.719536 
L 178.754235 180.731034 
L 178.994499 180.885674 
L 179.546058 178.43626 
L 181.057285 178.15392 
L 182.091006 178.135707 
L 182.439636 177.995533 
L 182.580914 174.462077 
L 183.081484 174.65689 
L 183.119033 174.413257 
L 184.431469 175.508001 
L 184.809151 174.772024 
L 184.45719 173.696395 
L 184.672775 173.661783 
L 184.48218 171.712351 
L 185.834383 171.154174 
L 188.615945 173.533173 
L 189.547665 172.867458 
L 190.731809 174.194183 
L 190.857278 173.774117 
L 192.123371 175.152551 
L 192.547791 176.347314 
L 193.386535 174.789978 
L 195.337739 173.246261 
L 196.331991 172.926219 
L 198.345621 175.467364 
L 199.423788 175.617281 
L 199.357307 174.786134 
L 198.698196 177.018363 
L 198.495369 178.30475 
L 197.370969 179.011514 
L 196.471147 180.404845 
L 196.800268 183.02681 
L 197.311948 183.401112 
L 197.17573 183.965797 
L 198.159724 185.972318 
L 198.599311 184.23897 
L 199.121965 184.51873 
L 200.437147 184.184591 
L 199.847996 181.229329 
L 200.556274 180.475276 
L 201.199267 178.75033 
L 203.402187 174.893997 
L 203.502836 173.485913 
L 203.989294 175.210581 
L 203.730393 173.913849 
L 202.921243 173.136138 
L 202.707083 170.188107 
L 203.311614 170.176764 
L 204.490157 170.684767 
L 204.390515 168.880525 
L 204.022805 166.251297 
L 203.384525 166.481808 
L 203.176294 165.462088 
L 203.128039 163.372031 
L 202.864241 160.958246 
L 203.454056 158.21829 
L 203.933799 153.432751 
L 204.644673 150.914472 
L 205.212706 153.091817 
L 206.677054 152.868057 
L 208.238305 150.379698 
L 208.271 149.454308 
L 207.987332 147.753767 
L 209.381627 146.009817 
L 209.74991 144.5069 
L 210.271311 143.755117 
L 210.440346 143.067031 
L 211.766136 142.415232 
L 212.622058 140.788519 
L 213.349849 141.261936 
L 214.768969 139.672678 
L 215.013078 138.538797 
L 217.551251 139.544216 
L 218.544814 140.815521 
L 219.25852 141.988978 
L 220.286108 142.668696 
L 219.935133 143.787102 
L 219.792402 141.159043 
L 219.107444 139.890326 
L 218.071387 139.448504 
L 217.580814 140.293229 
L 217.540473 141.844219 
L 217.152112 140.840556 
L 217.101775 141.420403 
L 217.724184 142.157018 
L 216.628732 144.063084 
L 215.78475 146.794578 
L 216.169757 146.541714 
L 215.417103 145.805787 
L 215.417103 145.805787 
" clip-path="url(#p0753a6fd53)" style="fill: none; stroke: #1f77b4; stroke-width: 2; stroke-linecap: square"/>
   </g>
   <g id="line2d_18">
    <path d="M 319.888117 116.956082 
L 320.619326 118.552959 
L 321.729889 121.54944 
L 323.967585 122.984309 
L 326.015615 124.902664 
L 327.81549 128.192908 
L 328.169525 129.633368 
L 328.913975 130.557188 
L 328.753014 131.13946 
L 328.795156 133.870923 
L 330.325397 135.472599 
L 330.607824 135.979215 
L 329.989814 138.05495 
L 329.496182 141.409234 
L 328.267685 141.059825 
L 330.769225 143.33664 
L 332.817896 145.935305 
L 333.255046 146.20215 
L 334.430278 146.169228 
L 334.877523 146.875424 
L 335.496481 145.804368 
L 336.540472 144.809869 
L 336.88222 144.211846 
L 336.300195 143.997057 
L 337.393682 143.024536 
L 337.828249 141.13142 
L 338.023742 142.29189 
L 339.474626 142.275854 
L 341.083492 140.831688 
L 343.264944 139.919427 
L 344.98339 138.638774 
L 347.294386 139.533001 
L 347.5128 139.136439 
L 347.947408 137.37686 
L 349.210337 137.450963 
L 350.025514 134.182299 
L 349.938609 133.945485 
L 351.667373 134.389637 
L 352.428821 132.105585 
L 354.566183 131.534989 
L 355.328518 129.295727 
L 355.237311 131.194742 
L 355.102823 128.468645 
L 354.173584 123.973866 
L 354.944338 123.076592 
L 354.653956 122.416783 
L 354.227633 122.202776 
L 352.26622 120.217821 
L 352.227265 118.912362 
L 351.741231 117.872795 
L 351.50478 119.30219 
L 350.512674 121.98685 
L 350.904624 124.479194 
L 350.453929 126.246996 
L 350.143808 124.870046 
L 349.729659 123.691748 
L 349.675543 121.037098 
L 350.670659 120.613727 
L 351.150941 118.001476 
L 350.8715 113.719745 
L 351.355788 112.911341 
L 351.91433 113.654785 
L 351.208287 116.081444 
L 352.893262 113.901606 
L 353.340917 117.177306 
L 350.388992 118.248823 
L 349.7222 116.619183 
L 348.943982 117.778239 
L 348.501928 114.573112 
L 349.395591 113.68202 
L 349.605043 114.296303 
L 351.145195 115.456658 
L 352.805063 116.286341 
L 353.536627 115.864261 
L 353.341995 115.750993 
L 353.526448 115.629766 
L 354.628598 116.448381 
L 355.261345 117.605773 
L 356.765808 117.033823 
L 356.714395 117.685745 
L 356.845161 117.402383 
L 357.708913 118.043215 
L 356.617623 117.287078 
L 355.684334 121.089075 
L 354.585643 121.864074 
L 354.023628 123.230037 
L 353.106981 124.991786 
L 352.549921 124.688166 
L 352.022932 123.481973 
L 350.957717 123.130865 
L 350.231468 122.349735 
L 352.729408 123.148097 
L 353.933022 123.805408 
L 354.754878 123.85831 
L 355.815534 124.480804 
L 356.631913 125.174307 
L 356.316615 122.718176 
L 356.981981 123.509623 
L 357.607597 123.298799 
L 357.053419 124.600074 
L 356.868626 125.938866 
L 358.207157 125.934775 
L 358.696072 126.130041 
L 357.904295 126.747687 
L 358.609841 125.501618 
L 358.690903 124.258827 
L 359.294322 122.47965 
L 359.34314 123.7297 
L 359.718989 123.414027 
L 360.564867 124.824747 
L 360.797372 124.058062 
L 361.071528 122.31895 
L 361.28569 123.105067 
L 363.616726 125.098867 
L 363.703951 125.676412 
L 362.705534 125.664017 
L 362.090292 127.273099 
L 361.13141 127.292235 
L 361.193775 127.679587 
L 360.755137 128.711109 
L 360.730715 130.16868 
L 360.170043 131.257482 
L 360.673208 131.303966 
L 360.425698 128.81024 
L 360.355129 130.935149 
L 359.19408 129.288053 
L 359.078486 131.941236 
L 358.522419 134.479635 
L 356.27375 141.430919 
L 355.458387 142.284461 
L 354.782282 142.195179 
L 354.168406 142.416083 
L 353.05406 141.858349 
L 351.87882 142.554564 
L 352.084516 144.266442 
L 352.723416 145.539411 
L 352.432528 146.665254 
L 352.522078 146.496762 
L 352.837103 146.398126 
L 352.219584 146.117705 
L 351.609379 146.458505 
L 352.950821 146.393855 
L 353.532595 147.789921 
L 353.999369 146.793718 
L 354.259751 145.448222 
L 353.523053 144.080922 
L 352.836597 143.572129 
L 353.701157 140.88973 
L 355.522463 142.524039 
L 357.200924 143.818894 
L 356.930507 143.282456 
L 355.690245 144.604099 
L 356.53378 143.342088 
L 356.958444 141.92483 
L 356.686782 141.737339 
L 357.47486 141.26216 
L 357.710045 140.201834 
L 358.238681 140.894698 
L 359.22735 140.369813 
L 359.60717 139.257937 
L 358.888057 140.410356 
L 357.342422 140.140784 
L 357.905694 139.372822 
L 357.166516 141.497213 
L 359.731685 145.223123 
L 360.326438 147.757253 
L 360.014907 146.877037 
L 360.433765 146.933198 
L 358.765257 145.675548 
L 358.091188 146.850968 
L 357.52768 145.08978 
L 356.3653 144.755032 
L 357.803756 144.048709 
L 357.805422 143.072171 
L 357.896166 144.886878 
L 358.554298 148.01859 
L 360.185703 148.222923 
L 360.843244 148.684732 
L 362.745757 150.608997 
L 363.977424 150.990821 
L 365.498756 149.969296 
L 366.890382 152.968444 
L 367.567593 153.357879 
L 367.644362 152.347555 
L 366.526932 149.658545 
L 367.57733 150.389262 
L 368.172756 154.602078 
L 368.307923 153.778688 
L 369.209288 152.842371 
L 368.455232 154.370952 
L 366.360346 152.048174 
L 367.244456 150.310301 
L 366.254578 150.917591 
L 364.656193 153.031765 
L 365.549492 152.792607 
L 367.434935 151.313241 
L 368.452155 151.088824 
L 368.459727 150.590722 
L 369.572267 148.954183 
L 370.642444 148.365604 
L 372.09875 147.765193 
L 373.503735 148.082078 
L 373.831755 145.835452 
L 373.319853 144.537821 
L 373.762551 144.204694 
L 374.728811 144.844329 
L 374.211258 145.308101 
L 374.987382 142.599423 
L 374.759232 144.056309 
L 376.115571 143.689547 
L 377.61631 142.45174 
L 376.889988 143.102384 
L 378.266039 143.676814 
L 379.665506 143.008705 
L 379.638008 142.357962 
L 380.279769 144.573382 
L 380.952403 145.039345 
L 380.881949 147.461259 
L 381.019807 149.901838 
L 380.880046 154.025927 
L 380.241314 157.438466 
L 379.971921 161.867254 
L 381.41473 165.486932 
L 382.116855 169.292483 
L 383.622359 171.953174 
L 386.155474 174.338628 
L 387.86186 175.551851 
L 389.135473 175.329527 
L 390.852092 175.867543 
L 393.350834 177.021197 
L 393.537349 176.970221 
L 394.440447 179.527907 
L 395.013785 180.359199 
L 395.662599 179.326126 
L 395.766297 178.660951 
L 395.721416 179.361002 
L 397.415349 178.488884 
L 398.648828 178.571742 
L 399.1814 176.615415 
L 398.879157 179.078813 
L 398.877175 181.553706 
L 399.179813 179.809851 
L 400.533563 181.774101 
L 399.71516 182.370313 
L 400.610448 182.27255 
L 400.970475 182.490666 
L 399.325238 182.874808 
L 400.211661 182.922044 
L 401.302157 184.499671 
L 400.341323 187.654902 
L 399.775498 185.715501 
L 399.133992 186.066942 
L 399.62329 187.507339 
L 399.113711 190.529491 
L 401.352982 190.846527 
L 401.736109 190.057417 
L 401.614787 190.201298 
L 402.323611 187.984785 
L 402.752205 188.989332 
L 401.676566 187.09645 
L 402.202213 187.267815 
L 400.228835 188.26245 
L 400.050137 185.835228 
L 399.899234 185.506792 
L 401.351815 183.277315 
L 404.006817 182.265949 
L 405.656679 181.66356 
L 405.608973 180.863917 
L 406.929441 181.499878 
L 408.711031 183.377074 
L 408.768968 185.384228 
L 410.331194 185.312617 
L 411.97362 186.119712 
L 411.755828 185.130344 
L 412.702365 183.514211 
L 413.732416 185.543203 
L 416.131626 186.585838 
L 417.366746 187.473534 
L 417.616436 189.375015 
L 418.055801 191.668859 
L 416.634533 192.309328 
L 416.351368 192.120991 
L 416.59455 191.793363 
L 415.37303 189.057321 
L 415.431855 187.725746 
L 415.86725 189.163628 
L 416.978433 185.691259 
L 416.983644 182.964227 
L 417.373901 182.805701 
L 418.004783 180.239454 
L 417.439849 181.240322 
L 417.381458 183.574366 
L 418.747821 183.93779 
L 419.698564 183.464721 
L 420.00125 184.516399 
L 418.222667 187.798775 
L 417.808499 190.033916 
L 417.120524 188.979235 
L 417.416026 188.685381 
L 416.597949 189.765724 
L 416.948477 189.502269 
L 416.122908 189.027756 
L 415.459521 189.403163 
L 415.318802 191.26128 
L 415.40936 192.851221 
L 415.593242 192.16603 
L 416.432678 192.947438 
L 416.676563 192.847704 
L 416.900041 193.017869 
L 417.032044 193.624694 
L 417.3787 194.107665 
L 417.158176 193.106294 
L 416.293404 193.543426 
L 416.144919 194.539471 
L 413.885267 196.251006 
L 412.753655 195.790575 
L 411.325204 193.287066 
L 411.130687 190.420256 
L 410.403812 190.771759 
L 409.940098 189.273915 
L 409.489342 187.208919 
L 409.317859 185.778601 
L 408.2125 183.963923 
L 405.980713 182.163961 
L 401.960141 183.276685 
L 400.880298 182.27672 
L 400.219733 180.66489 
L 400.609741 177.165736 
L 401.556104 177.818319 
L 402.056575 179.741878 
L 400.756235 181.450655 
L 401.549987 180.76814 
L 401.17311 179.556353 
L 401.098346 180.268159 
L 401.091037 179.492082 
L 401.376223 178.895751 
L 402.099302 179.179222 
L 402.251562 178.824305 
L 402.485454 177.200738 
L 403.763246 174.663032 
L 403.250526 172.14581 
L 403.743118 171.057419 
L 403.96714 168.766796 
L 403.371573 169.053156 
L 403.810533 169.588444 
L 403.355931 167.210283 
L 401.523131 166.961078 
L 401.76072 165.400675 
L 400.236016 163.979055 
L 399.895599 162.484628 
L 398.032025 160.826436 
L 397.346833 159.718346 
L 396.78774 157.118505 
L 397.010368 157.620158 
L 396.693424 156.365583 
L 396.375455 156.093458 
L 397.300811 155.089933 
L 399.230013 152.557833 
L 399.078397 150.415776 
L 399.209583 150.04357 
L 397.825446 146.581195 
L 397.496062 146.680776 
L 397.480484 144.803444 
L 396.889029 144.514349 
L 396.563253 143.664884 
L 397.213651 144.267427 
L 397.839193 146.953328 
L 397.802675 145.125871 
L 397.036431 144.928633 
L 397.36347 145.947837 
L 396.275332 144.793229 
L 396.399728 143.318119 
L 396.23952 140.975338 
L 395.551541 138.8596 
L 394.970604 138.487273 
L 394.582808 139.018054 
L 393.830906 140.289616 
L 392.933349 138.424086 
L 392.435595 137.756045 
L 392.400413 136.205968 
L 392.51717 136.04663 
L 391.546258 137.207171 
L 392.374077 139.2349 
L 392.569508 141.749386 
L 393.323943 141.848897 
L 392.345494 142.734631 
L 392.539579 143.978512 
L 392.444701 146.13394 
L 391.282546 148.246192 
L 392.129724 149.483988 
L 391.244555 150.224144 
L 391.746208 149.923132 
L 391.944213 149.279647 
L 392.443166 148.289085 
L 391.476418 148.876144 
L 391.341651 149.360027 
L 392.019002 147.654068 
L 390.359553 146.909418 
L 389.431036 145.764794 
L 391.470166 144.733345 
L 392.089933 145.417825 
L 394.078709 146.622418 
L 394.599527 145.448677 
L 394.732856 143.784256 
L 394.927012 143.083108 
L 394.348201 142.71645 
L 395.354545 142.509138 
L 394.767032 144.326327 
L 395.118391 144.252705 
L 394.956871 142.692717 
L 394.191815 142.676778 
L 393.539395 143.776769 
L 392.10544 145.121881 
L 392.124877 145.504743 
L 392.065151 147.460847 
L 391.636108 150.454633 
L 391.823586 149.97367 
L 391.079131 150.326588 
L 392.01805 150.799629 
L 392.361618 151.743554 
L 391.961909 154.328704 
L 390.761433 159.184835 
L 390.767647 164.353086 
L 389.76596 167.196356 
L 389.527799 169.379468 
L 389.140855 170.922062 
L 388.455642 173.13474 
L 385.89741 174.35356 
L 384.185773 175.686708 
L 384.193477 179.520653 
L 383.878705 179.603291 
L 383.277718 181.153736 
L 381.71182 182.240741 
L 382.86063 182.013528 
L 383.573665 183.786915 
L 383.450698 184.82654 
L 382.177954 186.46265 
L 381.65466 186.430754 
L 381.133551 189.020963 
L 381.973876 185.273243 
L 382.98668 184.779407 
L 383.28153 182.620113 
L 383.983556 181.986894 
L 382.793378 182.76203 
L 382.661472 183.534103 
L 383.853317 185.590812 
L 384.483657 185.012949 
L 383.737316 185.933524 
L 385.04141 188.034893 
L 385.653596 187.682593 
L 385.379945 189.743821 
L 384.48551 189.850931 
L 384.365563 191.179956 
L 383.001731 194.991641 
L 384.094292 196.228629 
L 382.71742 196.944906 
L 381.920794 196.196306 
L 381.435887 196.046426 
L 380.8512 197.265782 
L 380.870043 198.007086 
L 380.203746 201.374188 
L 379.66759 202.995536 
L 377.843407 203.514798 
L 376.867404 204.314789 
L 376.889981 205.2966 
L 375.817981 208.335786 
L 374.684092 209.657449 
L 373.323296 208.002855 
L 372.388648 206.326055 
L 371.362017 206.314022 
L 371.449765 206.296359 
L 371.856969 204.869068 
L 371.300955 204.785582 
L 371.305861 203.688001 
L 371.166597 204.121952 
L 370.996447 205.332476 
L 370.500896 206.582785 
L 369.688279 206.39913 
L 368.782279 205.625055 
L 367.620547 207.22378 
L 366.547909 210.887607 
L 365.971955 212.451507 
L 364.229207 213.461168 
L 362.887542 213.161593 
L 361.608372 211.381137 
L 360.669687 210.447757 
L 360.333448 211.889243 
L 361.704109 212.752458 
L 361.689298 216.137876 
L 360.961904 216.431406 
L 361.250166 216.37898 
L 363.020159 216.301882 
L 363.634684 216.718052 
L 363.149437 217.601804 
L 363.958375 217.765886 
L 363.960452 219.577027 
L 363.556806 224.037363 
L 364.361778 224.482411 
L 365.014416 224.058286 
L 365.003167 225.372559 
L 366.416792 226.121213 
L 367.506448 226.171164 
L 366.801406 224.036745 
L 366.614338 223.106693 
L 365.520307 223.64858 
L 366.400798 223.842025 
L 366.2116 226.03073 
L 366.451407 227.552931 
L 365.684368 227.038899 
L 365.711289 226.815694 
L 365.57829 224.784468 
L 365.06497 225.169284 
L 364.763998 226.317528 
L 364.742305 224.930004 
L 364.377151 223.553032 
L 365.149558 224.293406 
L 365.398431 225.066547 
L 366.005385 227.48907 
L 367.810537 226.2114 
L 369.381997 227.917482 
L 372.261204 229.597732 
L 373.19975 231.686597 
L 374.67395 231.132936 
L 374.750575 232.755222 
L 375.299558 230.788873 
L 375.975235 231.588075 
L 376.08584 230.594615 
L 376.082328 232.348967 
L 376.475471 230.9147 
L 377.188555 233.861736 
L 377.5937 234.499173 
L 378.963832 234.196432 
L 379.449205 234.44377 
L 379.611221 234.310705 
L 379.642754 231.794135 
L 379.341211 230.672668 
L 379.365061 231.661144 
L 378.073233 232.182475 
L 378.00734 232.521892 
L 377.78779 232.02524 
L 377.309294 233.254773 
L 376.569095 233.96629 
L 376.857712 236.486681 
L 378.163583 236.038093 
L 378.490266 233.913055 
L 379.666516 232.751785 
L 379.864431 232.242123 
L 380.68244 232.337629 
L 381.076821 231.910207 
L 380.906053 232.689801 
L 380.424357 234.254883 
L 380.104746 235.7044 
L 379.344681 234.951331 
L 378.855544 233.993448 
L 380.174525 234.463777 
L 382.136307 234.113494 
L 382.431261 234.553856 
L 382.108423 233.549785 
L 383.473023 234.549047 
L 383.863254 234.584453 
L 384.407314 236.400112 
L 384.31279 236.546131 
L 384.258161 235.817563 
L 384.385184 236.165854 
L 385.000861 234.551758 
L 384.533715 233.746624 
L 383.933715 233.236338 
L 384.463308 233.226972 
L 384.740396 234.329042 
L 386.557915 235.95884 
L 386.522323 236.930042 
L 386.407858 236.13187 
L 385.417032 237.794829 
L 386.76916 239.369934 
L 388.449641 236.952651 
L 388.703374 235.203717 
L 388.950489 236.076387 
L 390.079019 238.678244 
L 389.468449 243.061355 
L 389.211137 243.428415 
L 388.827878 243.315565 
L 387.18516 243.999286 
L 386.40783 243.082294 
L 386.879624 243.143276 
L 388.286468 243.820351 
L 389.075171 244.65674 
L 389.008786 243.931463 
L 389.941154 245.980359 
L 389.106812 246.59025 
L 389.972074 247.356584 
L 391.343026 248.842081 
L 391.85744 250.280974 
L 391.550814 248.101182 
L 392.897099 244.824785 
L 391.666108 244.784896 
L 391.44805 242.682814 
L 390.355183 242.514038 
L 389.90912 242.919832 
L 387.733382 242.187227 
L 386.597565 242.626349 
L 385.433326 242.089837 
L 385.27887 242.743748 
L 385.11835 242.423154 
L 385.159441 245.450556 
L 384.266444 246.722026 
L 383.613296 245.558867 
L 382.395779 247.219828 
L 382.318217 247.728562 
L 382.545794 250.794565 
L 382.567696 249.564871 
L 382.471849 250.477764 
L 382.069159 250.931018 
L 382.264809 251.729056 
L 381.891076 250.7313 
L 381.310078 251.455899 
L 380.952607 250.325906 
L 382.221469 249.311649 
L 382.391636 250.554906 
L 382.346558 249.839693 
L 382.965421 251.634494 
L 382.601032 252.587208 
L 381.941154 251.72339 
L 381.026009 252.948843 
L 381.372484 255.321136 
L 380.42596 255.025893 
L 380.470661 254.598155 
L 379.419448 253.882637 
L 376.931548 253.104589 
L 377.325772 252.868258 
L 377.012175 251.875788 
L 376.568433 250.967721 
L 377.11209 250.779805 
L 377.528144 249.788518 
L 377.603354 247.629482 
L 376.257077 248.042778 
L 375.399065 247.15325 
L 375.3325 246.797065 
L 374.531426 247.009586 
L 373.493853 244.447114 
L 374.456032 242.59698 
L 374.984119 241.914526 
L 375.04064 242.755237 
L 374.544181 243.646527 
L 372.782298 242.011787 
L 372.245121 240.011964 
L 373.283441 239.860533 
L 373.131593 238.598933 
L 372.309728 238.902109 
L 370.631193 239.730563 
L 370.246439 238.038 
L 369.107272 236.686398 
L 369.33424 235.414654 
L 370.778161 235.497004 
L 371.078414 232.755524 
L 371.34455 233.631522 
L 371.369066 234.404344 
L 371.280573 234.403061 
L 372.540172 232.572476 
L 373.268525 231.094181 
L 373.802027 228.974157 
L 373.463948 227.805535 
L 372.363744 226.501157 
L 372.944593 225.264149 
L 371.733932 222.910961 
L 372.533942 220.751725 
L 373.346158 220.717863 
L 374.285874 218.870772 
L 375.291 213.546676 
L 376.948294 213.159442 
L 378.442402 212.13975 
L 377.1343 214.072122 
L 377.212061 216.891758 
L 376.171779 217.737619 
L 376.847696 218.06081 
L 377.952198 219.177291 
L 377.138136 220.977434 
L 378.255394 222.541114 
L 378.741025 224.788217 
L 378.261623 226.826571 
L 377.916047 225.468765 
L 377.779128 224.281158 
L 376.701043 222.591669 
L 375.007045 220.490817 
L 373.832877 218.729337 
L 374.029192 220.313066 
L 374.703758 220.742005 
L 375.606674 222.514499 
L 374.842057 222.00894 
L 375.211393 222.010768 
L 375.167966 223.654516 
L 374.53353 224.199177 
L 372.238658 223.630707 
L 371.400075 222.825728 
L 371.858989 223.154619 
L 371.426053 221.697735 
L 371.42842 222.516338 
L 371.257789 222.981225 
L 372.005801 222.795062 
L 372.165122 222.384027 
L 372.081943 220.091914 
L 371.196164 218.357885 
L 371.703524 217.347468 
L 372.232125 217.291484 
L 372.076534 214.757924 
L 372.519312 213.922508 
L 372.72529 214.04856 
L 371.518646 212.752337 
L 371.244125 213.208165 
L 371.878434 215.110344 
L 371.840266 215.415416 
L 371.542049 214.740879 
L 369.341506 215.210426 
L 368.695083 216.536065 
L 367.590941 219.082359 
L 367.297919 220.10353 
L 366.871888 220.108349 
L 367.728195 220.466166 
L 366.680332 221.220888 
L 365.504389 218.498411 
L 364.834221 217.258135 
L 363.916533 216.361377 
L 362.610872 214.235794 
L 361.729254 210.931002 
L 361.81794 212.05449 
L 360.109947 212.05689 
L 360.284313 211.791777 
L 358.396147 210.066352 
L 356.130672 208.417905 
L 355.271725 208.933882 
L 353.908491 210.71604 
L 354.103572 210.890366 
L 354.291809 209.81707 
L 353.609987 209.285789 
L 353.135726 208.528782 
L 353.646557 206.846416 
L 353.178797 205.702772 
L 353.189204 206.117386 
L 353.769543 204.2993 
L 353.110856 204.411352 
L 353.226467 204.258117 
L 351.708547 205.965646 
L 350.489991 206.199252 
L 350.52456 204.906735 
L 351.831865 203.71746 
L 352.846984 202.361689 
L 350.903574 199.094545 
L 349.412998 195.691438 
L 350.110696 195.047711 
L 349.416448 194.105274 
L 348.762061 192.371859 
L 349.660331 191.536924 
L 348.366778 191.070027 
L 348.69981 193.357453 
L 349.10489 195.153436 
L 347.782804 197.243187 
L 347.887218 199.02378 
L 349.292411 198.84611 
L 351.182957 200.750226 
L 352.790517 200.660707 
L 351.528817 201.268379 
L 350.434539 202.052715 
L 350.904666 201.751895 
L 351.958646 203.01066 
L 351.289039 202.02805 
L 350.787699 202.58247 
L 350.775536 203.090662 
L 350.838712 202.539615 
L 351.119153 202.283269 
L 351.939534 204.613512 
L 353.086117 203.630496 
L 353.179795 200.518209 
L 351.743455 198.720245 
L 351.690829 197.80968 
L 351.826656 198.790056 
L 352.674828 198.086916 
L 352.342837 199.561477 
L 351.973101 198.647599 
L 352.539082 198.380521 
L 352.986276 197.54344 
L 352.284348 197.278379 
L 352.22426 195.272237 
L 352.90829 197.691106 
L 352.243803 197.796954 
L 351.596125 197.370384 
L 352.064389 195.08948 
L 351.078925 196.622716 
L 350.674891 196.585702 
L 350.43676 197.085765 
L 349.350993 195.246066 
L 347.983674 194.754174 
L 347.259277 192.796819 
L 347.57226 191.474001 
L 348.503335 190.832419 
L 348.428653 188.512541 
L 348.815421 187.750168 
L 349.202341 187.974926 
L 347.827527 189.833857 
L 347.536811 189.494432 
L 346.144026 187.335036 
L 346.256592 186.634382 
L 348.597627 187.226885 
L 348.418105 184.632201 
L 348.103519 183.402723 
L 348.520145 183.943428 
L 347.830241 183.829062 
L 348.284711 184.013676 
L 347.668206 183.124881 
L 348.359803 182.125054 
L 348.957418 180.712416 
L 348.852726 179.732048 
L 348.6259 179.591697 
L 347.440852 177.899658 
L 346.907527 180.084699 
L 346.158331 180.944222 
L 346.330551 183.975197 
L 345.941263 186.470562 
L 345.324906 185.524716 
L 345.748753 184.299948 
L 347.530163 184.682305 
L 347.725328 182.630917 
L 348.595583 182.099761 
L 348.589468 180.424882 
L 346.943909 179.810293 
L 347.981957 177.058922 
L 345.833821 177.123751 
L 343.767875 176.290288 
L 342.521523 175.11647 
L 340.432414 174.487272 
L 339.236171 174.312057 
L 337.984032 172.626716 
L 337.047329 173.371342 
L 337.630818 173.812003 
L 337.319267 173.452847 
L 335.620331 174.389547 
L 333.333249 175.103881 
L 332.949794 173.334813 
L 331.108167 171.848587 
L 330.214022 171.883617 
L 330.04434 171.585413 
L 329.711395 173.022165 
L 329.794561 172.661729 
L 329.213176 170.653497 
L 329.282581 170.025593 
L 328.948861 169.717432 
L 329.051289 170.196663 
L 328.202121 170.456569 
L 327.84824 168.080851 
L 328.095848 167.352375 
L 327.489632 166.918888 
L 328.265243 165.346807 
L 328.790023 166.54178 
L 328.71302 166.756998 
L 327.562484 166.128317 
L 326.756206 165.281575 
L 326.669169 164.129963 
L 327.23913 162.597155 
L 327.630955 163.854143 
L 327.352856 163.133134 
L 327.230691 163.380409 
L 325.576786 164.120768 
L 325.91737 165.521033 
L 325.773742 168.152004 
L 326.098753 168.721249 
L 326.686573 169.297492 
L 328.236831 169.228031 
L 328.647896 167.627237 
L 328.447609 166.224911 
L 327.492972 164.510657 
L 327.04943 161.838321 
L 325.693634 161.071515 
L 325.824938 160.713447 
L 326.422711 158.331456 
L 325.947992 155.010634 
L 327.080938 154.145446 
L 326.920124 153.357066 
L 326.779966 151.393356 
L 325.530433 150.122974 
L 325.093233 150.893374 
L 323.921851 150.169227 
L 323.160265 149.387509 
L 323.704034 147.003422 
L 325.210878 144.11511 
L 325.03806 142.914376 
L 323.651349 141.494584 
L 323.022259 141.617422 
L 323.065578 141.268874 
L 322.124693 142.80486 
L 322.535502 138.787983 
L 323.358152 137.792999 
L 323.293919 138.799129 
L 323.904311 139.621011 
L 322.743855 137.506015 
L 323.791591 138.192963 
L 324.297152 138.157844 
L 324.08318 139.294714 
L 324.59336 136.151849 
L 324.288223 134.327354 
L 325.520271 133.507318 
L 326.631877 133.524321 
L 326.734232 134.110372 
L 327.988615 133.84209 
L 328.678152 132.692941 
L 329.152797 132.310463 
L 329.464666 129.314174 
L 328.715373 128.225537 
L 328.694615 130.598032 
L 329.133817 132.106551 
L 329.732939 132.092162 
L 330.429125 130.848384 
L 332.137741 127.091197 
L 332.441094 125.797734 
L 331.708598 123.99084 
L 331.427141 122.340364 
L 332.901904 121.206427 
L 333.316783 119.5873 
L 333.106367 118.485418 
L 332.930727 116.865311 
L 330.87865 116.145755 
L 330.39146 116.402644 
L 331.029463 114.142979 
L 328.253335 109.560982 
L 327.743209 109.593137 
L 328.399738 109.264308 
L 327.870134 108.306357 
L 328.235062 107.874928 
L 327.857742 107.532185 
L 328.249179 106.14023 
L 327.980381 104.89552 
L 326.466851 104.009963 
L 324.667408 104.606017 
L 325.252259 106.306767 
L 325.488247 108.420684 
L 324.379635 108.501892 
L 322.848277 109.575723 
L 321.503692 109.287125 
L 319.585631 112.297494 
L 318.262368 109.463321 
L 318.448247 109.714371 
L 317.488678 110.053099 
L 315.630118 109.640163 
L 315.812614 113.042248 
L 317.337746 114.594191 
L 318.645082 114.886097 
L 319.127456 116.887486 
L 318.57659 117.771944 
L 318.57659 117.771944 
" clip-path="url(#p0753a6fd53)" style="fill: none; stroke: #ff7f0e; stroke-width: 2; stroke-linecap: square"/>
   </g>
   <g id="line2d_19">
    <path d="M 319.888117 116.956082 
L 318.723891 118.306009 
L 318.643652 117.087781 
L 319.340487 118.660367 
L 318.920544 118.797293 
L 319.639024 119.416068 
L 319.605103 119.103896 
L 317.924484 117.494979 
L 317.170247 117.276203 
L 315.906259 115.950541 
L 314.999861 115.490317 
L 313.610099 113.832159 
L 312.016691 113.437078 
L 310.469843 112.172532 
L 310.170209 111.307897 
L 308.926856 109.718165 
L 308.108912 105.770665 
L 309.095873 104.580958 
L 308.70748 105.807415 
L 309.317581 106.807392 
L 309.965346 104.666366 
L 310.616881 101.150747 
L 310.927527 101.081606 
L 310.699132 101.902193 
L 310.516153 101.361579 
L 309.986112 101.539281 
L 309.667565 103.083917 
L 309.264523 103.775852 
L 310.180956 103.579566 
L 310.067531 105.143191 
L 310.668895 105.479462 
L 312.506178 101.699258 
L 312.501573 99.93488 
L 312.363889 98.781885 
L 311.437843 99.229876 
L 310.865366 97.972597 
L 312.092706 93.657713 
L 313.948141 91.60166 
L 314.757429 88.047922 
L 313.78988 88.554692 
L 313.884481 85.798086 
L 313.393393 83.285684 
L 314.239769 82.120272 
L 313.555172 80.559697 
L 312.984767 80.204455 
L 312.530437 78.539033 
L 311.82494 79.772058 
L 310.46956 80.634808 
L 308.6536 83.028628 
L 306.655406 81.710695 
L 305.824953 80.065004 
L 305.04319 80.700279 
L 302.083114 82.029747 
L 300.3374 83.05349 
L 300.588315 83.042566 
L 299.473855 81.400374 
L 297.609322 80.786774 
L 296.587243 77.200384 
L 297.521792 75.525248 
L 298.160895 75.726279 
L 299.247097 73.081173 
L 300.65736 74.762225 
L 300.740719 74.244674 
L 301.72459 72.480764 
L 302.723831 74.89928 
L 302.848914 74.85748 
L 302.916405 78.035099 
L 303.316906 78.082702 
L 304.213625 77.356299 
L 304.846581 76.242034 
L 304.750206 76.805636 
L 306.630468 76.565636 
L 305.911695 77.240369 
L 306.023331 79.574094 
L 305.512487 80.703754 
L 305.170344 81.186367 
L 306.416136 81.676688 
L 305.702654 84.46722 
L 306.660043 83.20721 
L 306.219022 83.806262 
L 306.102436 83.245207 
L 307.37087 83.917341 
L 306.710034 83.567768 
L 309.009972 83.684346 
L 311.04881 83.100242 
L 313.167043 82.270543 
L 313.783024 80.911286 
L 315.656503 80.00278 
L 316.352086 76.908899 
L 315.579249 74.593607 
L 313.916459 70.661362 
L 314.168235 68.652482 
L 313.526453 66.109324 
L 312.728539 65.69012 
L 313.806577 66.160031 
L 316.268038 66.322264 
L 316.771646 67.882429 
L 317.392681 67.533055 
L 316.851835 67.47037 
L 316.655277 65.4129 
L 318.758691 64.226379 
L 320.371104 65.811628 
L 319.625561 66.102321 
L 317.37869 65.936387 
L 317.062162 64.526377 
L 318.022634 62.367843 
L 316.94245 61.035271 
L 319.239283 60.525457 
L 320.566019 61.662352 
L 321.132327 60.233771 
L 321.639375 59.672766 
L 320.475549 58.330406 
L 319.528153 55.883812 
L 318.590492 55.09338 
L 319.53227 55.353567 
L 318.946308 55.940482 
L 318.497788 54.202917 
L 319.073099 53.800488 
L 319.937411 54.088615 
L 320.630933 56.199889 
L 320.996336 55.343713 
L 320.997867 53.994878 
L 321.487019 53.719413 
L 322.874223 51.32066 
L 323.66864 52.44975 
L 323.670666 53.208673 
L 324.102569 53.500655 
L 324.41205 54.746917 
L 323.022895 55.080974 
L 322.100953 56.228885 
L 322.292147 55.515682 
L 321.664051 53.935617 
L 321.941689 53.929831 
L 323.419156 53.551598 
L 324.084981 52.715198 
L 325.439166 49.914647 
L 326.680416 47.807577 
L 328.127133 44.594215 
L 327.812485 45.326105 
L 326.644997 46.668561 
L 326.062698 44.566986 
L 326.072818 42.29097 
L 325.581455 44.532267 
L 323.054091 42.949274 
L 323.496185 43.855177 
L 322.257999 45.406773 
L 320.671176 43.334221 
L 318.736307 44.390983 
L 317.165419 44.645935 
L 317.856232 46.522237 
L 317.334612 45.991266 
L 316.326981 46.671169 
L 316.577456 44.48253 
L 317.611674 42.728417 
L 318.159924 43.47201 
L 318.663533 44.62957 
L 319.450224 44.287794 
L 320.187735 42.462361 
L 319.762196 40.628459 
L 319.050464 40.57241 
L 319.939027 40.466151 
L 320.496007 40.885559 
L 320.823468 39.957986 
L 321.393828 38.779254 
L 322.045065 40.810413 
L 323.318904 40.594349 
L 324.167231 40.059579 
L 324.810023 40.931035 
L 324.402105 41.496211 
L 324.644695 42.427908 
L 325.848616 43.751579 
L 326.545051 45.281521 
L 328.014408 44.886378 
L 328.44443 46.11221 
L 329.100607 49.315748 
L 329.716967 50.671327 
L 330.835815 51.121484 
L 331.311858 48.430096 
L 331.914297 47.318726 
L 331.420533 48.368606 
L 331.193438 48.970976 
L 330.859182 50.277688 
L 329.933092 47.87736 
L 331.277235 46.639084 
L 330.991906 46.597017 
L 331.317893 49.237928 
L 332.688995 47.872007 
L 333.813314 45.268182 
L 333.801945 43.35858 
L 331.539976 44.170718 
L 330.973479 42.692057 
L 329.894751 42.504143 
L 329.535249 42.742416 
L 329.568328 43.418845 
L 329.284202 44.079919 
L 328.806164 44.312804 
L 329.373404 44.093861 
L 329.922947 45.155843 
L 329.952821 42.070609 
L 329.767703 42.671977 
L 330.447235 43.984404 
L 330.659513 43.978656 
L 330.149883 42.345892 
L 330.5269 42.976623 
L 330.359104 43.73396 
L 331.989987 44.07152 
L 332.163131 43.878445 
L 331.232071 44.013148 
L 332.291359 42.817011 
L 331.593051 44.31356 
L 332.946433 46.69261 
L 333.837101 47.814352 
L 335.761225 46.800282 
L 336.506979 46.96078 
L 335.910095 48.471617 
L 334.729874 47.875 
L 335.598534 49.638998 
L 333.993709 48.960414 
L 333.666021 47.824557 
L 334.195406 46.738987 
L 333.825517 46.602791 
L 334.96224 46.898451 
L 334.387792 47.204159 
L 333.963096 46.817839 
L 333.957035 47.997393 
L 332.741369 48.965263 
L 331.688892 48.498057 
L 332.275089 50.581482 
L 332.148728 53.13395 
L 331.317162 55.078946 
L 329.819112 58.040141 
L 327.239169 58.464058 
L 325.819196 60.00852 
L 324.626176 59.533008 
L 323.432529 60.676891 
L 323.046667 63.028155 
L 321.054183 60.927205 
L 321.231656 59.140965 
L 320.938907 61.829678 
L 319.999692 63.13417 
L 320.395711 65.389317 
L 321.346584 67.579709 
L 320.660142 71.470916 
L 320.949744 72.402917 
L 320.864493 72.648647 
L 320.959474 73.187633 
L 321.507919 74.033217 
L 322.2483 73.754797 
L 323.282581 74.298037 
L 325.205381 75.396271 
L 326.361929 74.518111 
L 327.563775 79.336131 
L 329.551291 81.63419 
L 329.218151 81.985734 
L 329.56141 83.108309 
L 330.207647 82.696732 
L 330.204283 79.399486 
L 331.365396 76.817507 
L 333.393613 77.972744 
L 333.560757 78.928393 
L 334.555756 78.420064 
L 335.699128 80.152453 
L 335.320462 80.716795 
L 334.447005 79.810737 
L 332.905604 79.801042 
L 333.776353 81.183722 
L 333.830161 82.742063 
L 332.533698 83.553671 
L 334.14125 85.928616 
L 336.074299 86.797447 
L 335.608356 86.736276 
L 334.497746 89.972674 
L 333.553538 91.532327 
L 333.717514 93.400314 
L 333.788156 92.833242 
L 333.52375 91.076973 
L 332.716386 88.663196 
L 332.095202 91.949924 
L 332.27173 90.454596 
L 331.614144 89.913833 
L 332.733232 92.012986 
L 333.370484 92.01287 
L 331.781485 92.121415 
L 332.565141 92.668899 
L 332.982276 95.568244 
L 333.667739 94.759743 
L 333.858817 95.275219 
L 332.905155 96.05661 
L 333.05344 97.048857 
L 334.503544 96.089123 
L 334.700736 97.281075 
L 333.420205 97.736979 
L 335.352551 99.876193 
L 337.662196 100.111919 
L 339.727131 97.509118 
L 340.327549 98.649334 
L 339.927209 100.234139 
L 340.540193 98.877232 
L 341.434828 99.713665 
L 341.798045 95.764167 
L 342.132174 96.251706 
L 340.28722 94.322041 
L 339.854642 94.472707 
L 340.050788 96.061963 
L 341.603068 96.474889 
L 339.545809 95.617342 
L 340.222702 93.581459 
L 339.913583 95.392313 
L 339.670714 95.35918 
L 339.341065 95.791055 
L 339.367871 97.443492 
L 338.48134 101.211838 
L 338.644479 101.393915 
L 340.94319 104.390209 
L 341.675001 105.865219 
L 340.440076 108.808367 
L 339.750108 111.262491 
L 339.617127 112.742328 
L 338.660746 111.604561 
L 340.178683 113.111257 
L 339.780335 112.822232 
L 338.936659 115.093384 
L 338.671872 117.15208 
L 337.826624 118.670283 
L 337.85143 120.225824 
L 338.826541 123.91766 
L 340.480946 124.473634 
L 338.817177 126.729086 
L 339.693843 125.863133 
L 340.706592 124.423486 
L 341.614995 123.559029 
L 343.022219 122.86461 
L 342.995457 119.07625 
L 342.397388 117.204386 
L 342.517056 115.994094 
L 342.3893 113.222906 
L 342.833281 112.877028 
L 342.265721 112.597921 
L 342.014667 111.774504 
L 341.082 113.496228 
L 341.139977 114.224254 
L 339.854441 113.393129 
L 338.559843 112.873756 
L 338.388545 110.99822 
L 339.282764 109.702981 
L 340.240725 108.54802 
L 340.838137 106.872997 
L 341.349293 106.238105 
L 339.685082 103.117645 
L 340.105699 101.943638 
L 339.235752 102.046899 
L 339.318468 103.161661 
L 338.736446 102.10809 
L 338.986241 101.300188 
L 337.687231 101.170343 
L 339.752207 101.294186 
L 340.829262 101.992329 
L 340.544226 103.129661 
L 341.361958 104.256808 
L 342.016189 106.178192 
L 343.870723 106.805429 
L 344.330592 107.593502 
L 344.889056 106.790309 
L 343.757986 104.576723 
L 341.727908 103.45025 
L 339.125673 102.175349 
L 337.496263 100.58602 
L 338.247614 101.33772 
L 339.318898 100.920805 
L 337.402856 99.24157 
L 338.570092 97.78011 
L 340.620844 97.764746 
L 342.022159 96.186575 
L 340.728098 97.507654 
L 339.594454 96.793872 
L 340.457427 94.822726 
L 340.160722 93.647027 
L 340.166063 92.770771 
L 339.598719 91.158602 
L 339.383012 89.346549 
L 339.798685 90.586177 
L 339.950533 91.552895 
L 340.723777 92.035787 
L 342.644509 90.169498 
L 342.26202 87.968673 
L 343.952822 87.03955 
L 343.993158 85.268824 
L 345.141893 86.458568 
L 346.207355 86.857065 
L 346.54767 87.254767 
L 345.704774 86.242748 
L 346.678638 84.448756 
L 346.924632 83.553125 
L 348.143973 81.887193 
L 347.747975 81.551936 
L 348.122903 82.359102 
L 348.430746 79.967004 
L 347.63045 82.098884 
L 346.504838 81.656612 
L 345.454698 80.54502 
L 345.631191 79.867876 
L 342.986913 80.020013 
L 342.758543 79.58725 
L 343.297277 79.070191 
L 343.320033 81.735287 
L 344.417578 82.97164 
L 347.06748 83.032244 
L 346.160551 83.437799 
L 346.090464 81.766424 
L 347.343709 80.904127 
L 347.339736 79.906196 
L 347.029327 80.401419 
L 347.641937 81.563798 
L 346.862548 79.377357 
L 345.240095 76.678001 
L 345.421753 75.496546 
L 346.76233 75.478177 
L 347.348998 75.202463 
L 347.583792 74.629258 
L 348.470635 74.711892 
L 348.096481 74.051025 
L 349.356987 72.608695 
L 349.328745 71.271028 
L 349.856486 70.631426 
L 349.243574 69.235272 
L 348.778479 71.24525 
L 348.593893 72.929807 
L 348.727393 72.725472 
L 348.28738 72.807533 
L 349.381089 71.385641 
L 349.175081 71.611247 
L 349.666938 72.7745 
L 349.916355 73.053122 
L 350.274918 68.808986 
L 351.514528 69.981163 
L 352.14799 72.108832 
L 352.962951 70.012408 
L 353.384875 69.705829 
L 352.84304 70.737851 
L 352.88863 71.967404 
L 354.572731 72.399466 
L 354.873406 72.600479 
L 356.14605 71.479529 
L 357.404995 70.878647 
L 357.635452 70.138087 
L 358.407996 70.362452 
L 357.446636 69.441778 
L 356.743011 67.650607 
L 355.858322 66.460556 
L 355.725902 67.373867 
L 355.933832 66.446587 
L 357.608781 70.148609 
L 356.619503 72.228137 
L 357.268443 72.748694 
L 356.563722 72.906014 
L 354.808355 76.572948 
L 355.141253 77.821674 
L 355.194624 79.229306 
L 354.875286 81.076245 
L 355.543818 84.688309 
L 355.327911 86.1447 
L 359.003738 88.212982 
L 359.031581 88.70553 
L 360.483281 87.402854 
L 361.166392 86.472335 
L 361.290387 84.740219 
L 360.369322 83.166236 
L 362.07262 81.758159 
L 361.821316 81.807691 
L 362.638406 79.403526 
L 364.685372 78.005957 
L 364.386585 76.640745 
L 364.986745 73.999008 
L 364.850056 71.109152 
L 365.15352 72.066661 
L 364.892769 71.17394 
L 364.278747 67.899387 
L 364.317649 65.113807 
L 364.181695 62.877886 
L 363.139295 63.913628 
L 363.755311 62.078128 
L 363.467562 59.801441 
L 365.367763 57.934961 
L 366.512461 57.798825 
L 364.951032 55.966285 
L 363.650226 53.173493 
L 364.851601 51.455324 
L 365.125516 48.941631 
L 364.278486 45.933588 
L 364.19398 46.258934 
L 362.96447 44.757538 
L 362.568849 45.819312 
L 361.120752 43.772406 
L 360.826713 40.662751 
L 360.26965 39.3525 
L 360.305781 36.843864 
L 359.215524 37.741419 
L 359.703493 41.422286 
L 358.76843 44.018976 
L 356.988271 46.306725 
L 355.726879 50.698768 
L 355.687852 51.581608 
L 355.117303 52.531486 
L 355.60853 54.395758 
L 355.157575 55.334323 
L 356.11738 53.249747 
L 356.58381 54.11619 
L 355.606925 52.412492 
L 354.934583 51.88378 
L 356.522568 50.211042 
L 357.123508 50.269273 
L 356.334776 48.077504 
L 356.382986 44.796171 
L 357.06531 43.7815 
L 358.4911 46.765519 
L 358.881052 50.642456 
L 357.841597 48.553611 
L 357.414781 48.692943 
L 358.920766 49.818275 
L 360.1357 50.356022 
L 360.520916 49.309344 
L 361.958429 47.670422 
L 362.732141 47.961477 
L 362.234715 47.896268 
L 362.860937 50.198019 
L 362.642479 51.453307 
L 362.844997 51.454171 
L 363.175935 56.15793 
L 361.219899 59.919838 
L 358.980365 61.939258 
L 359.732989 61.111797 
L 359.035448 60.806218 
L 357.285615 62.607019 
L 357.183194 60.7142 
L 356.236122 58.319022 
L 356.062075 56.064671 
L 356.012239 50.941878 
L 354.254921 49.383283 
L 354.176447 46.954255 
L 354.042382 48.255824 
L 354.6654 47.386502 
L 354.485093 45.525077 
L 355.035266 46.114916 
L 355.918546 46.316363 
L 355.847004 46.181151 
L 355.549784 45.178978 
L 356.058795 43.698298 
L 358.142754 41.462113 
L 358.819943 43.143039 
L 360.011129 44.627719 
L 360.728568 46.561568 
L 362.118018 47.129803 
L 361.745613 48.45413 
L 361.596169 50.98499 
L 362.23562 51.87766 
L 362.199982 49.925933 
L 361.821468 48.958778 
L 361.644506 46.872357 
L 361.804032 44.377649 
L 362.389918 43.959598 
L 362.520585 42.170357 
L 361.559682 42.900381 
L 361.144861 43.85668 
L 359.88044 44.306676 
L 360.854271 44.91251 
L 362.148725 43.705826 
L 363.285301 44.183692 
L 365.462441 46.176427 
L 366.587171 45.906355 
L 368.046852 47.262172 
L 369.757413 47.818831 
L 371.562238 49.665663 
L 372.123491 48.566349 
L 374.74879 47.425243 
L 375.014248 45.927283 
L 375.980715 46.724839 
L 376.933213 48.290856 
L 375.292474 46.180859 
L 375.810707 48.937947 
L 376.635123 48.165988 
L 378.259403 47.693424 
L 379.56377 46.425326 
L 380.81319 44.307894 
L 380.89319 46.37686 
L 381.212383 45.870518 
L 381.788929 46.89452 
L 383.228408 48.709246 
L 384.123638 53.025885 
L 384.889545 54.65498 
L 386.640015 57.291888 
L 388.022298 57.349171 
L 389.14701 56.478881 
L 391.428058 58.874234 
L 392.857262 59.666192 
L 393.119047 59.400105 
L 392.689571 59.769903 
L 393.746568 61.305958 
L 394.681792 60.822357 
L 394.964826 62.150417 
L 397.19427 64.308305 
L 398.23547 69.241984 
L 399.88463 70.4234 
L 399.106511 71.227654 
L 396.79717 72.803413 
L 397.446597 74.595524 
L 396.940182 77.642074 
L 395.353983 76.085751 
L 396.374386 74.786847 
L 397.342717 78.091879 
L 397.291529 79.475494 
L 396.921333 81.500101 
L 397.933444 79.303242 
L 397.469087 79.946054 
L 397.875847 80.868022 
L 398.78692 80.542387 
L 399.860998 79.52902 
L 398.738231 79.208153 
L 397.466786 80.437842 
L 397.011715 82.062361 
L 395.292375 81.401726 
L 394.718526 80.582528 
L 395.833027 81.022394 
L 396.46166 79.845094 
L 396.362746 80.804035 
L 394.84648 78.025849 
L 395.103521 78.363403 
L 394.453653 75.848746 
L 393.368637 75.29429 
L 393.322334 73.726746 
L 394.612334 74.965004 
L 395.231487 77.644458 
L 393.72389 79.391549 
L 395.003792 80.29761 
L 395.018 80.097746 
L 395.931121 79.337539 
L 396.297399 78.786905 
L 396.744109 79.37246 
L 396.681119 80.261158 
L 396.829759 80.827087 
L 395.660329 83.645911 
L 395.579703 85.6103 
L 393.502309 87.326227 
L 392.715845 87.489786 
L 392.731074 89.095842 
L 392.268704 90.725296 
L 391.207014 90.316264 
L 389.43565 87.736953 
L 387.787559 88.895803 
L 386.191977 89.284525 
L 385.789062 88.675988 
L 387.490884 87.700809 
L 387.674836 85.252398 
L 386.273106 87.27463 
L 385.457986 86.716158 
L 385.735843 89.467087 
L 386.100552 90.067472 
L 386.293864 92.341382 
L 387.020498 92.931952 
L 387.503436 92.329154 
L 389.192924 93.248242 
L 390.669417 91.93364 
L 390.155944 92.558262 
L 390.9017 92.326277 
L 391.655975 92.934603 
L 391.631009 93.241083 
L 391.346675 93.522948 
L 391.56739 94.963602 
L 391.005169 95.823751 
L 389.744885 98.898847 
L 390.167759 99.535283 
L 388.718815 101.319233 
L 386.733513 100.486258 
L 386.496082 99.905421 
L 387.811147 101.233043 
L 388.466287 104.02974 
L 389.224568 105.012814 
L 389.866043 106.200808 
L 389.481442 106.42605 
L 388.447487 108.519688 
L 389.650426 110.203352 
L 392.654855 111.625086 
L 394.166562 111.301769 
L 395.218557 113.419713 
L 395.315571 117.105591 
L 395.918489 118.639699 
L 396.352682 117.572861 
L 397.687353 118.156654 
L 397.355481 119.396254 
L 396.836625 118.775594 
L 397.512057 115.989062 
L 395.681957 114.257946 
L 396.734972 115.495662 
L 397.339487 117.520333 
L 396.34775 117.822796 
L 395.346423 115.980934 
L 395.805029 114.369532 
L 395.103879 114.452597 
L 395.488244 115.528056 
L 395.919141 116.29413 
L 396.555755 116.37591 
L 396.489004 115.923678 
L 396.798386 115.905503 
L 396.885592 118.09742 
L 396.778989 118.702521 
L 396.109489 118.138639 
L 394.702231 120.663678 
L 396.204279 122.658116 
L 394.823638 124.796099 
L 395.603008 125.637442 
L 395.145228 127.367121 
L 396.710204 128.286232 
L 396.379286 129.205159 
L 395.578029 128.339266 
L 395.213125 128.614284 
L 396.095614 128.3949 
L 396.359142 130.639356 
L 394.278287 132.616864 
L 393.286661 133.756834 
L 391.572939 132.85082 
L 390.820303 132.754757 
L 390.204825 131.87379 
L 389.524564 132.925797 
L 389.121184 131.439834 
L 389.437079 133.317793 
L 389.329561 135.746786 
L 390.168836 134.312836 
L 391.025266 133.734881 
L 391.222233 134.007978 
L 390.421495 133.795051 
L 388.942379 132.660958 
L 388.43317 135.176782 
L 388.367187 133.47082 
L 389.070097 130.316904 
L 389.468152 130.944678 
L 388.510255 130.250458 
L 388.223093 129.445824 
L 388.512819 128.925678 
L 387.427528 130.155114 
L 385.840896 129.344435 
L 385.340373 130.550338 
L 384.832389 130.175045 
L 383.264051 131.912483 
L 382.55162 131.144184 
L 381.939784 131.302041 
L 382.705182 129.400863 
L 383.498309 129.45967 
L 382.143263 127.462283 
L 381.9041 126.74178 
L 383.548611 125.578813 
L 384.273353 123.768425 
L 384.575789 125.288396 
L 385.638027 124.893453 
L 385.640178 123.683546 
L 384.163361 123.70042 
L 383.292221 123.41386 
L 383.524664 123.269331 
L 382.842547 124.472679 
L 381.781536 124.010783 
L 380.960424 124.702239 
L 381.233977 125.437272 
L 380.167322 129.616025 
L 380.302547 127.533222 
L 381.226189 126.670599 
L 379.538561 124.257004 
L 378.291985 126.288553 
L 378.585702 127.537764 
L 379.479507 127.819638 
L 379.737459 129.439236 
L 380.298707 128.874423 
L 380.386639 129.566814 
L 381.274933 131.447423 
L 382.754439 132.69279 
L 382.537946 134.47206 
L 382.680305 137.916862 
L 382.115842 139.086078 
L 379.695176 141.961901 
L 379.044912 143.825421 
L 378.196741 144.919627 
L 379.256842 145.963878 
L 378.738629 144.724701 
L 379.093242 144.672641 
L 379.637856 144.064633 
L 378.444312 144.469346 
L 377.491139 145.342412 
L 378.691487 145.658078 
L 377.965258 144.564686 
L 377.511779 145.793014 
L 378.862558 144.379548 
L 380.30877 145.058659 
L 382.106529 143.128371 
L 381.754312 145.171025 
L 381.553255 145.026336 
L 383.198917 143.831902 
L 383.40525 141.245281 
L 383.172565 137.230702 
L 384.488826 135.386228 
L 383.834583 135.902423 
L 385.038952 136.84544 
L 384.28787 137.691559 
L 383.400372 136.627853 
L 381.379874 132.119875 
L 380.44351 130.939102 
L 380.871659 127.008228 
L 379.935752 125.707129 
L 377.882371 125.979503 
L 375.54449 122.643491 
L 375.104292 122.235745 
L 374.344323 121.850009 
L 374.697674 123.691119 
L 375.679632 125.703701 
L 375.948043 124.376957 
L 376.736348 122.768937 
L 377.212934 119.750017 
L 377.033768 120.201353 
L 375.944494 117.800044 
L 376.060993 118.240104 
L 375.116178 117.600054 
L 375.736121 115.660737 
L 379.193759 113.627591 
L 381.472189 113.927895 
L 382.816012 113.899605 
L 385.24263 117.675235 
L 387.840577 117.934192 
L 389.443688 119.984687 
L 390.052915 119.759224 
L 389.831426 119.258984 
L 390.327679 119.937676 
L 389.703779 122.293449 
L 391.727351 125.04505 
L 392.353578 127.971176 
L 391.537035 128.686119 
L 390.514795 131.08563 
L 390.544286 131.601683 
L 388.601959 133.964909 
L 386.94936 134.096855 
L 387.545327 134.31837 
L 386.445996 135.453005 
L 384.812246 134.499633 
L 385.0578 136.533903 
L 384.452523 137.788204 
L 385.060399 137.354216 
L 385.13038 138.150291 
L 384.159848 139.440065 
L 382.877583 140.949083 
L 381.717203 140.836305 
L 381.537361 142.568082 
L 380.137521 142.56962 
L 380.707635 140.993332 
L 381.405469 140.748041 
L 381.824829 141.618653 
L 382.542024 142.658564 
L 384.435823 140.605799 
L 384.804279 136.215297 
L 385.362495 133.751331 
L 386.683658 132.615352 
L 386.486937 131.181679 
L 386.802174 128.234097 
L 386.529745 127.921559 
L 386.814013 128.786236 
L 386.050492 127.20613 
L 386.248094 124.855609 
L 386.58338 123.697913 
L 387.731605 123.039223 
L 386.444558 121.742867 
L 385.926856 122.394901 
L 385.497979 118.623252 
L 385.7087 117.915885 
L 387.249237 115.902396 
L 387.066559 116.168468 
L 386.344424 116.578991 
L 386.516386 114.698705 
L 385.507018 113.929302 
L 385.979376 116.664685 
L 386.824345 116.259078 
L 386.376734 117.067594 
L 385.786759 114.794331 
L 385.61607 111.829483 
L 384.83383 106.863179 
L 384.282952 105.093113 
L 384.280532 102.911932 
L 383.819908 99.780201 
L 383.232425 100.640875 
L 381.777579 102.127411 
L 381.279856 100.227341 
L 379.817128 97.499576 
L 379.662553 97.9425 
L 379.193934 96.145785 
L 379.840003 94.439827 
L 379.174276 94.843171 
L 379.136033 95.136804 
L 378.831666 94.709809 
L 379.516928 95.60487 
L 381.274935 96.765818 
L 383.12449 97.230069 
L 385.485655 97.622603 
L 387.083829 97.622257 
L 388.502613 96.262713 
L 388.342886 95.103584 
L 387.84251 94.819371 
L 389.669106 92.1909 
L 390.054504 90.116196 
L 390.169361 91.382826 
L 388.755477 90.098314 
L 387.352302 90.124218 
L 385.812038 90.735564 
L 385.909455 91.713102 
L 385.200719 92.744912 
L 385.936907 94.703236 
L 385.489296 94.739138 
L 383.475336 94.032193 
L 381.68984 88.454495 
L 380.421564 87.957893 
L 379.978668 88.317902 
L 379.65276 87.705199 
L 378.303305 86.918883 
L 377.600478 87.663964 
L 377.932846 89.881187 
L 377.524581 92.905413 
L 378.057769 93.530993 
L 378.522763 97.430177 
L 377.292633 101.472723 
L 376.539231 100.735078 
L 375.471968 101.535091 
L 376.028296 102.742329 
L 375.341898 102.046333 
L 375.601221 103.383037 
L 376.030922 102.97836 
L 376.717809 101.728073 
L 376.149302 102.439957 
L 376.041081 103.747728 
L 377.030567 103.610816 
L 375.949818 103.25968 
L 375.34595 104.456544 
L 375.076943 105.701054 
L 374.669057 106.365141 
L 373.28609 104.415447 
L 373.732227 105.705725 
L 373.735783 105.159397 
L 374.017447 106.081238 
L 374.504513 106.281182 
L 374.656876 106.818383 
L 374.345667 105.207797 
L 371.889651 104.647328 
L 371.889651 104.647328 
" clip-path="url(#p0753a6fd53)" style="fill: none; stroke: #2ca02c; stroke-width: 2; stroke-linecap: square"/>
   </g>
   <g id="patch_3">
    <path d="M 107.5475 266.245 
L 107.5475 25.92 
" style="fill: none; stroke: #000000; stroke-width: 0.8; stroke-linejoin: miter; stroke-linecap: square"/>
   </g>
   <g id="patch_4">
    <path d="M 434.88 266.245 
L 434.88 25.92 
" style="fill: none; stroke: #000000; stroke-width: 0.8; stroke-linejoin: miter; stroke-linecap: square"/>
   </g>
   <g id="patch_5">
    <path d="M 107.5475 266.245 
L 434.88 266.245 
" style="fill: none; stroke: #000000; stroke-width: 0.8; stroke-linejoin: miter; stroke-linecap: square"/>
   </g>
   <g id="patch_6">
    <path d="M 107.5475 25.92 
L 434.88 25.92 
" style="fill: none; stroke: #000000; stroke-width: 0.8; stroke-linejoin: miter; stroke-linecap: square"/>
   </g>
   <g id="legend_1">
    <g id="patch_7">
     <path d="M 248.769375 260.245 
L 426.48 260.245 
Q 428.88 260.245 428.88 257.845 
L 428.88 208.009375 
Q 428.88 205.609375 426.48 205.609375 
L 248.769375 205.609375 
Q 246.369375 205.609375 246.369375 208.009375 
L 246.369375 257.845 
Q 246.369375 260.245 248.769375 260.245 
z
" style="fill: #ffffff; opacity: 0.8; stroke: #cccccc; stroke-linejoin: miter"/>
    </g>
    <g id="line2d_20">
     <path d="M 251.169375 214.609375 
L 263.169375 214.609375 
L 275.169375 214.609375 
" style="fill: none; stroke: #1f77b4; stroke-width: 2; stroke-linecap: square"/>
    </g>
    <g id="text_11">
     <!-- Timmer-Koenig -->
     <g transform="translate(284.769375 218.809375) scale(0.12 -0.12)">
      <defs>
       <path id="TeXGyreTermes-Regular-54" d="M 3795 3149 
L 3757 4237 
L 147 4237 
L 109 3149 
L 262 3149 
C 416 3853 563 3968 1280 3968 
L 1626 3968 
L 1626 768 
C 1626 224 1555 154 1024 122 
L 1024 0 
L 2893 0 
L 2893 122 
C 2368 147 2278 230 2278 698 
L 2278 3968 
L 2624 3968 
C 3354 3968 3494 3853 3642 3149 
L 3795 3149 
z
" transform="scale(0.015625)"/>
       <path id="TeXGyreTermes-Regular-69" d="M 1619 0 
L 1619 96 
C 1197 128 1146 192 1146 653 
L 1146 2925 
L 1120 2944 
L 128 2592 
L 128 2496 
L 179 2502 
C 256 2515 339 2522 397 2522 
C 550 2522 608 2419 608 2138 
L 608 653 
C 608 192 544 122 102 96 
L 102 0 
L 1619 0 
z
M 1203 3776 
C 1203 3955 1062 4102 877 4102 
C 698 4102 550 3955 550 3776 
C 550 3590 698 3450 877 3450 
C 1062 3450 1203 3590 1203 3776 
z
" transform="scale(0.015625)"/>
       <path id="TeXGyreTermes-Regular-6d" d="M 4960 0 
L 4960 96 
L 4794 109 
C 4602 122 4518 237 4518 486 
L 4518 1805 
C 4518 2560 4269 2944 3776 2944 
C 3405 2944 3078 2778 2733 2406 
C 2618 2771 2400 2944 2054 2944 
C 1773 2944 1594 2854 1062 2451 
L 1062 2931 
L 1018 2944 
C 691 2822 474 2752 122 2656 
L 122 2547 
C 205 2566 256 2573 326 2573 
C 493 2573 550 2470 550 2163 
L 550 544 
C 550 198 461 102 102 96 
L 102 0 
L 1523 0 
L 1523 96 
C 1184 109 1088 179 1088 429 
L 1088 2234 
C 1088 2234 1139 2310 1184 2355 
C 1344 2502 1619 2611 1843 2611 
C 2125 2611 2266 2387 2266 1939 
L 2266 550 
C 2266 192 2195 122 1830 96 
L 1830 0 
L 3264 0 
L 3264 96 
C 2899 102 2803 211 2803 608 
L 2803 2221 
C 2995 2496 3206 2611 3501 2611 
C 3866 2611 3981 2438 3981 1907 
L 3981 557 
C 3981 192 3930 141 3558 96 
L 3558 0 
L 4960 0 
z
" transform="scale(0.015625)"/>
       <path id="TeXGyreTermes-Regular-65" d="M 2714 1005 
L 2611 1050 
C 2304 563 2029 378 1619 378 
C 1267 378 998 544 813 890 
C 685 1139 634 1363 621 1773 
L 2592 1773 
C 2541 2189 2477 2374 2317 2579 
C 2125 2810 1830 2944 1498 2944 
C 704 2944 160 2304 160 1370 
C 160 486 621 -64 1357 -64 
C 1971 -64 2445 314 2714 1005 
z
M 1939 1978 
L 634 1978 
C 704 2483 922 2714 1312 2714 
C 1702 2714 1856 2534 1939 1978 
z
" transform="scale(0.015625)"/>
       <path id="TeXGyreTermes-Regular-72" d="M 2144 2605 
C 2144 2816 2010 2944 1792 2944 
C 1523 2944 1338 2797 1024 2342 
L 1024 2931 
L 992 2944 
C 653 2803 422 2720 45 2598 
L 45 2496 
C 134 2515 192 2522 269 2522 
C 429 2522 486 2419 486 2138 
L 486 538 
C 486 218 442 173 32 96 
L 32 0 
L 1568 0 
L 1568 96 
C 1133 115 1024 211 1024 576 
L 1024 2016 
C 1024 2221 1299 2541 1472 2541 
C 1510 2541 1568 2509 1638 2445 
C 1741 2355 1811 2317 1894 2317 
C 2048 2317 2144 2426 2144 2605 
z
" transform="scale(0.015625)"/>
       <path id="TeXGyreTermes-Regular-2d" d="M 1824 1242 
L 1824 1645 
L 250 1645 
L 250 1242 
L 1824 1242 
z
" transform="scale(0.015625)"/>
       <path id="TeXGyreTermes-Regular-4b" d="M 4627 0 
L 4627 122 
C 4294 128 4205 192 3622 813 
L 2131 2413 
L 3347 3616 
C 3782 4032 3885 4083 4320 4115 
L 4320 4237 
L 2643 4237 
L 2643 4115 
C 2720 4109 2784 4109 2810 4109 
C 3002 4096 3078 4045 3078 3917 
C 3078 3776 2931 3584 2579 3258 
L 1446 2227 
L 1446 3539 
C 1446 4006 1517 4077 2035 4115 
L 2035 4237 
L 218 4237 
L 218 4115 
C 717 4077 794 3994 794 3539 
L 794 768 
C 794 237 723 154 218 122 
L 218 0 
L 2022 0 
L 2022 122 
C 1523 154 1446 230 1446 698 
L 1446 1894 
L 1613 2029 
L 2291 1357 
C 2778 877 3123 422 3123 269 
C 3123 179 3034 134 2854 128 
C 2822 128 2752 128 2675 122 
L 2675 0 
L 4627 0 
z
" transform="scale(0.015625)"/>
       <path id="TeXGyreTermes-Regular-6f" d="M 3008 1498 
C 3008 2336 2419 2944 1600 2944 
C 768 2944 186 2330 186 1446 
C 186 582 781 -64 1587 -64 
C 2394 -64 3008 614 3008 1498 
z
M 2432 1274 
C 2432 550 2144 115 1664 115 
C 1414 115 1178 269 1043 525 
C 864 858 762 1306 762 1760 
C 762 2368 1062 2765 1517 2765 
C 2054 2765 2432 2150 2432 1274 
z
" transform="scale(0.015625)"/>
       <path id="TeXGyreTermes-Regular-6e" d="M 3104 0 
L 3104 96 
C 2790 128 2714 205 2714 518 
L 2714 1984 
C 2714 2586 2432 2944 1958 2944 
C 1664 2944 1466 2835 1030 2426 
L 1030 2931 
L 986 2944 
C 672 2829 454 2758 102 2656 
L 102 2547 
C 141 2566 205 2573 275 2573 
C 454 2573 512 2477 512 2163 
L 512 576 
C 512 211 442 122 115 96 
L 115 0 
L 1472 0 
L 1472 96 
C 1146 122 1050 198 1050 429 
L 1050 2227 
C 1357 2515 1498 2592 1709 2592 
C 2022 2592 2176 2394 2176 1971 
L 2176 634 
C 2176 230 2093 122 1773 96 
L 1773 0 
L 3104 0 
z
" transform="scale(0.015625)"/>
       <path id="TeXGyreTermes-Regular-67" d="M 3008 2483 
L 3008 2733 
L 2515 2733 
C 2387 2733 2291 2752 2163 2797 
L 2022 2848 
C 1850 2912 1677 2944 1510 2944 
C 915 2944 442 2483 442 1901 
C 442 1498 614 1254 1037 1043 
L 762 787 
C 550 602 467 474 467 346 
C 467 211 544 134 806 6 
C 352 -326 179 -538 179 -774 
C 179 -1114 678 -1395 1286 -1395 
C 1766 -1395 2266 -1229 2598 -960 
C 2842 -762 2950 -557 2950 -314 
C 2950 83 2650 352 2176 371 
L 1350 410 
C 1011 422 851 480 851 582 
C 851 710 1062 934 1235 986 
C 1293 979 1338 973 1357 973 
C 1478 960 1562 954 1600 954 
C 1837 954 2093 1050 2291 1222 
C 2502 1402 2598 1626 2598 1946 
C 2598 2131 2566 2278 2477 2483 
L 3008 2483 
z
M 2771 -410 
C 2771 -781 2285 -1030 1562 -1030 
C 998 -1030 627 -845 627 -563 
C 627 -416 672 -333 941 -13 
C 1152 -58 1664 -96 1978 -96 
C 2560 -96 2771 -179 2771 -410 
z
M 2106 1696 
C 2106 1338 1920 1114 1626 1114 
C 1242 1114 973 1530 973 2144 
L 973 2163 
C 973 2541 1152 2765 1446 2765 
C 1645 2765 1811 2656 1914 2464 
C 2029 2240 2106 1946 2106 1696 
z
" transform="scale(0.015625)"/>
      </defs>
      <use xlink:href="#TeXGyreTermes-Regular-54"/>
      <use xlink:href="#TeXGyreTermes-Regular-69" transform="translate(61.099991 0)"/>
      <use xlink:href="#TeXGyreTermes-Regular-6d" transform="translate(88.899979 0)"/>
      <use xlink:href="#TeXGyreTermes-Regular-6d" transform="translate(166.699966 0)"/>
      <use xlink:href="#TeXGyreTermes-Regular-65" transform="translate(244.499954 0)"/>
      <use xlink:href="#TeXGyreTermes-Regular-72" transform="translate(288.899948 0)"/>
      <use xlink:href="#TeXGyreTermes-Regular-2d" transform="translate(322.199936 0)"/>
      <use xlink:href="#TeXGyreTermes-Regular-4b" transform="translate(355.499924 0)"/>
      <use xlink:href="#TeXGyreTermes-Regular-6f" transform="translate(427.699905 0)"/>
      <use xlink:href="#TeXGyreTermes-Regular-65" transform="translate(477.69989 0)"/>
      <use xlink:href="#TeXGyreTermes-Regular-6e" transform="translate(522.099884 0)"/>
      <use xlink:href="#TeXGyreTermes-Regular-69" transform="translate(572.099869 0)"/>
      <use xlink:href="#TeXGyreTermes-Regular-67" transform="translate(599.899857 0)"/>
     </g>
    </g>
    <g id="line2d_21">
     <path d="M 251.169375 231.625 
L 263.169375 231.625 
L 275.169375 231.625 
" style="fill: none; stroke: #ff7f0e; stroke-width: 2; stroke-linecap: square"/>
    </g>
    <g id="text_12">
     <!-- Phasenrandomisierung-Done -->
     <g transform="translate(284.769375 235.825) scale(0.12 -0.12)">
      <defs>
       <path id="TeXGyreTermes-Regular-50" d="M 3469 3078 
C 3469 3347 3379 3590 3206 3776 
C 2950 4058 2394 4237 1792 4237 
L 102 4237 
L 102 4115 
C 576 4064 640 4000 640 3539 
L 640 768 
C 640 230 589 166 102 122 
L 102 0 
L 1894 0 
L 1894 122 
C 1389 141 1293 230 1293 698 
L 1293 1862 
C 1459 1850 1568 1843 1734 1843 
C 2234 1843 2579 1907 2854 2061 
C 3238 2266 3469 2656 3469 3078 
z
M 2771 3040 
C 2771 2419 2394 2099 1658 2099 
C 1530 2099 1440 2106 1293 2118 
L 1293 3782 
C 1293 3955 1338 4000 1510 4000 
C 2374 4000 2771 3699 2771 3040 
z
" transform="scale(0.015625)"/>
       <path id="TeXGyreTermes-Regular-68" d="M 3117 0 
L 3117 96 
C 2771 160 2733 211 2733 653 
L 2733 1926 
C 2733 2598 2464 2944 1946 2944 
C 1568 2944 1299 2790 1005 2406 
L 1005 4352 
L 973 4371 
C 755 4294 595 4243 237 4141 
L 64 4090 
L 64 3987 
C 90 3994 109 3994 141 3994 
C 416 3994 467 3942 467 3667 
L 467 653 
C 467 205 429 147 58 96 
L 58 0 
L 1440 0 
L 1440 96 
C 1069 134 1005 211 1005 653 
L 1005 2195 
C 1274 2490 1466 2598 1715 2598 
C 2035 2598 2195 2368 2195 1920 
L 2195 653 
C 2195 218 2131 134 1760 96 
L 1760 0 
L 3117 0 
z
" transform="scale(0.015625)"/>
       <path id="TeXGyreTermes-Regular-61" d="M 2829 256 
L 2829 422 
C 2720 333 2643 301 2547 301 
C 2400 301 2355 390 2355 672 
L 2355 1920 
C 2355 2246 2323 2426 2234 2573 
C 2099 2816 1824 2944 1434 2944 
C 1107 2944 800 2854 621 2707 
C 461 2573 358 2387 358 2227 
C 358 2080 480 1952 634 1952 
C 787 1952 922 2080 922 2221 
C 922 2246 915 2278 909 2323 
C 896 2381 890 2432 890 2477 
C 890 2650 1094 2790 1350 2790 
C 1664 2790 1837 2605 1837 2259 
L 1837 1869 
C 851 1472 742 1421 467 1178 
C 326 1050 237 832 237 621 
C 237 218 512 -64 909 -64 
C 1190 -64 1453 70 1843 403 
C 1875 64 1990 -64 2253 -64 
C 2470 -64 2605 13 2829 256 
z
M 1837 787 
C 1837 589 1805 531 1670 448 
C 1517 358 1338 307 1203 307 
C 979 307 800 525 800 800 
L 800 826 
C 800 1203 1062 1434 1837 1715 
L 1837 787 
z
" transform="scale(0.015625)"/>
       <path id="TeXGyreTermes-Regular-73" d="M 2227 755 
C 2227 1075 2080 1286 1690 1517 
L 998 1926 
C 819 2029 723 2189 723 2362 
C 723 2624 922 2797 1216 2797 
C 1581 2797 1773 2586 1920 2010 
L 2016 2010 
L 1990 2880 
L 1920 2880 
L 1907 2867 
C 1850 2822 1843 2816 1818 2816 
C 1779 2816 1715 2829 1645 2861 
C 1510 2912 1363 2938 1210 2938 
C 685 2938 326 2618 326 2150 
C 326 1792 531 1542 1075 1229 
L 1446 1018 
C 1670 890 1779 736 1779 538 
C 1779 256 1574 77 1248 77 
C 806 77 582 320 435 973 
L 333 973 
L 333 -26 
L 416 -26 
C 461 38 486 51 563 51 
C 634 51 704 38 858 0 
C 1037 -38 1197 -64 1331 -64 
C 1818 -64 2227 307 2227 755 
z
" transform="scale(0.015625)"/>
       <path id="TeXGyreTermes-Regular-64" d="M 3142 269 
L 3142 371 
C 3027 365 3014 365 2995 365 
C 2765 365 2714 435 2714 730 
L 2714 4358 
L 2682 4371 
C 2374 4262 2150 4198 1741 4090 
L 1741 3987 
C 1792 3994 1830 3994 1882 3994 
C 2118 3994 2176 3930 2176 3667 
L 2176 2669 
C 1933 2874 1760 2944 1504 2944 
C 768 2944 173 2221 173 1312 
C 173 493 653 -64 1357 -64 
C 1715 -64 1958 64 2176 365 
L 2176 -45 
L 2202 -64 
L 3142 269 
z
M 2176 653 
C 2176 608 2131 531 2067 461 
C 1952 333 1792 269 1606 269 
C 1075 269 723 781 723 1568 
C 723 2291 1037 2765 1523 2765 
C 1862 2765 2176 2464 2176 2125 
L 2176 653 
z
" transform="scale(0.015625)"/>
       <path id="TeXGyreTermes-Regular-75" d="M 3066 230 
L 3066 320 
L 3034 320 
C 2739 320 2669 390 2669 685 
L 2669 2880 
L 1658 2880 
L 1658 2771 
C 2054 2752 2131 2688 2131 2368 
L 2131 864 
C 2131 691 2099 595 2022 538 
C 1843 384 1645 307 1446 307 
C 1197 307 992 525 992 794 
L 992 2880 
L 58 2880 
L 58 2790 
C 365 2771 454 2675 454 2381 
L 454 768 
C 454 262 762 -64 1229 -64 
C 1466 -64 1715 38 1888 211 
L 2163 486 
L 2163 -45 
L 2189 -58 
C 2509 70 2739 141 3066 230 
z
" transform="scale(0.015625)"/>
       <path id="TeXGyreTermes-Regular-44" d="M 4384 2138 
C 4384 2714 4192 3213 3840 3565 
C 3405 4006 2707 4237 1830 4237 
L 102 4237 
L 102 4115 
C 608 4070 666 4013 666 3539 
L 666 698 
C 666 237 589 154 102 122 
L 102 0 
L 1920 0 
C 2662 0 3334 211 3731 570 
C 4147 947 4384 1517 4384 2138 
z
M 3686 2093 
C 3686 1338 3424 800 2906 499 
C 2579 314 2208 237 1651 237 
C 1395 237 1318 294 1318 499 
L 1318 3750 
C 1318 3949 1389 4000 1651 4000 
C 2202 4000 2618 3898 2925 3680 
C 3424 3334 3686 2784 3686 2093 
z
" transform="scale(0.015625)"/>
      </defs>
      <use xlink:href="#TeXGyreTermes-Regular-50"/>
      <use xlink:href="#TeXGyreTermes-Regular-68" transform="translate(55.599991 0)"/>
      <use xlink:href="#TeXGyreTermes-Regular-61" transform="translate(105.599976 0)"/>
      <use xlink:href="#TeXGyreTermes-Regular-73" transform="translate(149.999969 0)"/>
      <use xlink:href="#TeXGyreTermes-Regular-65" transform="translate(188.899963 0)"/>
      <use xlink:href="#TeXGyreTermes-Regular-6e" transform="translate(233.299957 0)"/>
      <use xlink:href="#TeXGyreTermes-Regular-72" transform="translate(283.299942 0)"/>
      <use xlink:href="#TeXGyreTermes-Regular-61" transform="translate(316.59993 0)"/>
      <use xlink:href="#TeXGyreTermes-Regular-6e" transform="translate(360.999924 0)"/>
      <use xlink:href="#TeXGyreTermes-Regular-64" transform="translate(410.999908 0)"/>
      <use xlink:href="#TeXGyreTermes-Regular-6f" transform="translate(460.999893 0)"/>
      <use xlink:href="#TeXGyreTermes-Regular-6d" transform="translate(510.999878 0)"/>
      <use xlink:href="#TeXGyreTermes-Regular-69" transform="translate(588.799866 0)"/>
      <use xlink:href="#TeXGyreTermes-Regular-73" transform="translate(616.599854 0)"/>
      <use xlink:href="#TeXGyreTermes-Regular-69" transform="translate(655.499847 0)"/>
      <use xlink:href="#TeXGyreTermes-Regular-65" transform="translate(683.299835 0)"/>
      <use xlink:href="#TeXGyreTermes-Regular-72" transform="translate(727.699829 0)"/>
      <use xlink:href="#TeXGyreTermes-Regular-75" transform="translate(760.999817 0)"/>
      <use xlink:href="#TeXGyreTermes-Regular-6e" transform="translate(810.999802 0)"/>
      <use xlink:href="#TeXGyreTermes-Regular-67" transform="translate(860.999786 0)"/>
      <use xlink:href="#TeXGyreTermes-Regular-2d" transform="translate(910.999771 0)"/>
      <use xlink:href="#TeXGyreTermes-Regular-44" transform="translate(944.299759 0)"/>
      <use xlink:href="#TeXGyreTermes-Regular-6f" transform="translate(1016.499741 0)"/>
      <use xlink:href="#TeXGyreTermes-Regular-6e" transform="translate(1066.499725 0)"/>
      <use xlink:href="#TeXGyreTermes-Regular-65" transform="translate(1116.49971 0)"/>
     </g>
    </g>
    <g id="line2d_22">
     <path d="M 251.169375 248.640625 
L 263.169375 248.640625 
L 275.169375 248.640625 
" style="fill: none; stroke: #2ca02c; stroke-width: 2; stroke-linecap: square"/>
    </g>
    <g id="text_13">
     <!-- FracDiffTime -->
     <g transform="translate(284.769375 252.840625) scale(0.12 -0.12)">
      <defs>
       <path id="TeXGyreTermes-Regular-46" d="M 3494 3322 
L 3475 4237 
L 77 4237 
L 77 4115 
C 550 4077 634 3987 634 3539 
L 634 768 
C 634 237 563 154 77 122 
L 77 0 
L 1869 0 
L 1869 122 
C 1376 147 1286 237 1286 698 
L 1286 2093 
L 2214 2093 
C 2733 2093 2842 1997 2918 1478 
L 3066 1478 
L 3066 2963 
L 2918 2963 
C 2842 2451 2726 2355 2214 2355 
L 1286 2355 
L 1286 3776 
C 1286 3955 1318 3994 1491 3994 
L 2362 3994 
C 3085 3994 3226 3898 3334 3322 
L 3494 3322 
z
" transform="scale(0.015625)"/>
       <path id="TeXGyreTermes-Regular-63" d="M 2637 941 
L 2547 998 
C 2240 550 2010 397 1645 397 
C 1056 397 653 909 653 1645 
C 653 2310 1005 2758 1523 2758 
C 1754 2758 1837 2688 1901 2451 
L 1939 2310 
C 1990 2125 2106 2016 2246 2016 
C 2413 2016 2547 2138 2547 2285 
C 2547 2643 2099 2944 1562 2944 
C 1261 2944 954 2829 698 2618 
C 352 2330 160 1888 160 1357 
C 160 531 666 -64 1376 -64 
C 1651 -64 1894 26 2112 205 
C 2304 358 2432 544 2637 941 
z
" transform="scale(0.015625)"/>
       <path id="TeXGyreTermes-Regular-66" d="M 2451 3974 
C 2451 4205 2170 4371 1786 4371 
C 1382 4371 1050 4198 883 3910 
C 717 3622 666 3392 659 2880 
L 134 2880 
L 134 2675 
L 659 2675 
L 659 666 
C 659 198 589 122 128 96 
L 128 0 
L 1792 0 
L 1792 96 
C 1267 115 1197 186 1197 666 
L 1197 2675 
L 1978 2675 
L 1978 2880 
L 1190 2880 
L 1190 3622 
C 1190 4000 1312 4192 1555 4192 
C 1696 4192 1779 4128 1894 3942 
C 1997 3770 2074 3712 2182 3712 
C 2336 3712 2451 3827 2451 3974 
z
" transform="scale(0.015625)"/>
      </defs>
      <use xlink:href="#TeXGyreTermes-Regular-46"/>
      <use xlink:href="#TeXGyreTermes-Regular-72" transform="translate(55.599991 0)"/>
      <use xlink:href="#TeXGyreTermes-Regular-61" transform="translate(88.899979 0)"/>
      <use xlink:href="#TeXGyreTermes-Regular-63" transform="translate(133.299973 0)"/>
      <use xlink:href="#TeXGyreTermes-Regular-44" transform="translate(177.699966 0)"/>
      <use xlink:href="#TeXGyreTermes-Regular-69" transform="translate(249.899948 0)"/>
      <use xlink:href="#TeXGyreTermes-Regular-66" transform="translate(277.699936 0)"/>
      <use xlink:href="#TeXGyreTermes-Regular-66" transform="translate(310.999924 0)"/>
      <use xlink:href="#TeXGyreTermes-Regular-54" transform="translate(344.299911 0)"/>
      <use xlink:href="#TeXGyreTermes-Regular-69" transform="translate(405.399902 0)"/>
      <use xlink:href="#TeXGyreTermes-Regular-6d" transform="translate(433.19989 0)"/>
      <use xlink:href="#TeXGyreTermes-Regular-65" transform="translate(510.999878 0)"/>
     </g>
    </g>
   </g>
  </g>
 </g>
 <defs>
  <clipPath id="p0753a6fd53">
   <rect x="107.5475" y="25.92" width="327.3325" height="240.325"/>
  </clipPath>
 </defs>
</svg>
