<?xml version="1.0" encoding="utf-8" standalone="no"?>
<!DOCTYPE svg PUBLIC "-//W3C//DTD SVG 1.1//EN"
  "http://www.w3.org/Graphics/SVG/1.1/DTD/svg11.dtd">
<svg xmlns:xlink="http://www.w3.org/1999/xlink" width="460.8pt" height="345.6pt" viewBox="0 0 460.8 345.6" xmlns="http://www.w3.org/2000/svg" version="1.1">
 <metadata>
  <rdf:RDF xmlns:dc="http://purl.org/dc/elements/1.1/" xmlns:cc="http://creativecommons.org/ns#" xmlns:rdf="http://www.w3.org/1999/02/22-rdf-syntax-ns#">
   <cc:Work>
    <dc:type rdf:resource="http://purl.org/dc/dcmitype/StillImage"/>
    <dc:date>2025-11-22T11:44:05.908678</dc:date>
    <dc:format>image/svg+xml</dc:format>
    <dc:creator>
     <cc:Agent>
      <dc:title>Matplotlib v3.10.6, https://matplotlib.org/</dc:title>
     </cc:Agent>
    </dc:creator>
   </cc:Work>
  </rdf:RDF>
 </metadata>
 <defs>
  <style type="text/css">*{stroke-linejoin: round; stroke-linecap: butt}</style>
 </defs>
 <g id="figure_1">
  <g id="patch_1">
   <path d="M 0 345.6 
L 460.8 345.6 
L 460.8 0 
L 0 0 
z
" style="fill: #ffffff"/>
  </g>
  <g id="axes_1">
   <g id="patch_2">
    <path d="M 57.6 307.584 
L 414.72 307.584 
L 414.72 41.472 
L 57.6 41.472 
z
" style="fill: #ffffff"/>
   </g>
   <g id="matplotlib.axis_1">
    <g id="xtick_1">
     <g id="line2d_1">
      <defs>
       <path id="me534900948" d="M 0 0 
L 0 3.5 
" style="stroke: #000000; stroke-width: 0.8"/>
      </defs>
      <g>
       <use xlink:href="#me534900948" x="98.659172" y="307.584" style="stroke: #000000; stroke-width: 0.8"/>
      </g>
     </g>
     <g id="text_1">
      <!-- −3000 -->
      <g transform="translate(81.744329 322.182437) scale(0.1 -0.1)">
       <defs>
        <path id="DejaVuSans-2212" d="M 678 2272 
L 4684 2272 
L 4684 1741 
L 678 1741 
L 678 2272 
z
" transform="scale(0.015625)"/>
        <path id="DejaVuSans-33" d="M 2597 2516 
Q 3050 2419 3304 2112 
Q 3559 1806 3559 1356 
Q 3559 666 3084 287 
Q 2609 -91 1734 -91 
Q 1441 -91 1130 -33 
Q 819 25 488 141 
L 488 750 
Q 750 597 1062 519 
Q 1375 441 1716 441 
Q 2309 441 2620 675 
Q 2931 909 2931 1356 
Q 2931 1769 2642 2001 
Q 2353 2234 1838 2234 
L 1294 2234 
L 1294 2753 
L 1863 2753 
Q 2328 2753 2575 2939 
Q 2822 3125 2822 3475 
Q 2822 3834 2567 4026 
Q 2313 4219 1838 4219 
Q 1578 4219 1281 4162 
Q 984 4106 628 3988 
L 628 4550 
Q 988 4650 1302 4700 
Q 1616 4750 1894 4750 
Q 2613 4750 3031 4423 
Q 3450 4097 3450 3541 
Q 3450 3153 3228 2886 
Q 3006 2619 2597 2516 
z
" transform="scale(0.015625)"/>
        <path id="DejaVuSans-30" d="M 2034 4250 
Q 1547 4250 1301 3770 
Q 1056 3291 1056 2328 
Q 1056 1369 1301 889 
Q 1547 409 2034 409 
Q 2525 409 2770 889 
Q 3016 1369 3016 2328 
Q 3016 3291 2770 3770 
Q 2525 4250 2034 4250 
z
M 2034 4750 
Q 2819 4750 3233 4129 
Q 3647 3509 3647 2328 
Q 3647 1150 3233 529 
Q 2819 -91 2034 -91 
Q 1250 -91 836 529 
Q 422 1150 422 2328 
Q 422 3509 836 4129 
Q 1250 4750 2034 4750 
z
" transform="scale(0.015625)"/>
       </defs>
       <use xlink:href="#DejaVuSans-2212"/>
       <use xlink:href="#DejaVuSans-33" transform="translate(83.789062 0)"/>
       <use xlink:href="#DejaVuSans-30" transform="translate(147.412109 0)"/>
       <use xlink:href="#DejaVuSans-30" transform="translate(211.035156 0)"/>
       <use xlink:href="#DejaVuSans-30" transform="translate(274.658203 0)"/>
      </g>
     </g>
    </g>
    <g id="xtick_2">
     <g id="line2d_2">
      <g>
       <use xlink:href="#me534900948" x="162.349247" y="307.584" style="stroke: #000000; stroke-width: 0.8"/>
      </g>
     </g>
     <g id="text_2">
      <!-- −2000 -->
      <g transform="translate(145.434403 322.182437) scale(0.1 -0.1)">
       <defs>
        <path id="DejaVuSans-32" d="M 1228 531 
L 3431 531 
L 3431 0 
L 469 0 
L 469 531 
Q 828 903 1448 1529 
Q 2069 2156 2228 2338 
Q 2531 2678 2651 2914 
Q 2772 3150 2772 3378 
Q 2772 3750 2511 3984 
Q 2250 4219 1831 4219 
Q 1534 4219 1204 4116 
Q 875 4013 500 3803 
L 500 4441 
Q 881 4594 1212 4672 
Q 1544 4750 1819 4750 
Q 2544 4750 2975 4387 
Q 3406 4025 3406 3419 
Q 3406 3131 3298 2873 
Q 3191 2616 2906 2266 
Q 2828 2175 2409 1742 
Q 1991 1309 1228 531 
z
" transform="scale(0.015625)"/>
       </defs>
       <use xlink:href="#DejaVuSans-2212"/>
       <use xlink:href="#DejaVuSans-32" transform="translate(83.789062 0)"/>
       <use xlink:href="#DejaVuSans-30" transform="translate(147.412109 0)"/>
       <use xlink:href="#DejaVuSans-30" transform="translate(211.035156 0)"/>
       <use xlink:href="#DejaVuSans-30" transform="translate(274.658203 0)"/>
      </g>
     </g>
    </g>
    <g id="xtick_3">
     <g id="line2d_3">
      <g>
       <use xlink:href="#me534900948" x="226.039321" y="307.584" style="stroke: #000000; stroke-width: 0.8"/>
      </g>
     </g>
     <g id="text_3">
      <!-- −1000 -->
      <g transform="translate(209.124477 322.182437) scale(0.1 -0.1)">
       <defs>
        <path id="DejaVuSans-31" d="M 794 531 
L 1825 531 
L 1825 4091 
L 703 3866 
L 703 4441 
L 1819 4666 
L 2450 4666 
L 2450 531 
L 3481 531 
L 3481 0 
L 794 0 
L 794 531 
z
" transform="scale(0.015625)"/>
       </defs>
       <use xlink:href="#DejaVuSans-2212"/>
       <use xlink:href="#DejaVuSans-31" transform="translate(83.789062 0)"/>
       <use xlink:href="#DejaVuSans-30" transform="translate(147.412109 0)"/>
       <use xlink:href="#DejaVuSans-30" transform="translate(211.035156 0)"/>
       <use xlink:href="#DejaVuSans-30" transform="translate(274.658203 0)"/>
      </g>
     </g>
    </g>
    <g id="xtick_4">
     <g id="line2d_4">
      <g>
       <use xlink:href="#me534900948" x="289.729396" y="307.584" style="stroke: #000000; stroke-width: 0.8"/>
      </g>
     </g>
     <g id="text_4">
      <!-- 0 -->
      <g transform="translate(286.548146 322.182437) scale(0.1 -0.1)">
       <use xlink:href="#DejaVuSans-30"/>
      </g>
     </g>
    </g>
    <g id="xtick_5">
     <g id="line2d_5">
      <g>
       <use xlink:href="#me534900948" x="353.41947" y="307.584" style="stroke: #000000; stroke-width: 0.8"/>
      </g>
     </g>
     <g id="text_5">
      <!-- 1000 -->
      <g transform="translate(340.69447 322.182437) scale(0.1 -0.1)">
       <use xlink:href="#DejaVuSans-31"/>
       <use xlink:href="#DejaVuSans-30" transform="translate(63.623047 0)"/>
       <use xlink:href="#DejaVuSans-30" transform="translate(127.246094 0)"/>
       <use xlink:href="#DejaVuSans-30" transform="translate(190.869141 0)"/>
      </g>
     </g>
    </g>
   </g>
   <g id="matplotlib.axis_2">
    <g id="ytick_1">
     <g id="line2d_6">
      <defs>
       <path id="m06272ecc9d" d="M 0 0 
L -3.5 0 
" style="stroke: #000000; stroke-width: 0.8"/>
      </defs>
      <g>
       <use xlink:href="#m06272ecc9d" x="57.6" y="283.362825" style="stroke: #000000; stroke-width: 0.8"/>
      </g>
     </g>
     <g id="text_6">
      <!-- −4000 -->
      <g transform="translate(16.770313 287.162043) scale(0.1 -0.1)">
       <defs>
        <path id="DejaVuSans-34" d="M 2419 4116 
L 825 1625 
L 2419 1625 
L 2419 4116 
z
M 2253 4666 
L 3047 4666 
L 3047 1625 
L 3713 1625 
L 3713 1100 
L 3047 1100 
L 3047 0 
L 2419 0 
L 2419 1100 
L 313 1100 
L 313 1709 
L 2253 4666 
z
" transform="scale(0.015625)"/>
       </defs>
       <use xlink:href="#DejaVuSans-2212"/>
       <use xlink:href="#DejaVuSans-34" transform="translate(83.789062 0)"/>
       <use xlink:href="#DejaVuSans-30" transform="translate(147.412109 0)"/>
       <use xlink:href="#DejaVuSans-30" transform="translate(211.035156 0)"/>
       <use xlink:href="#DejaVuSans-30" transform="translate(274.658203 0)"/>
      </g>
     </g>
    </g>
    <g id="ytick_2">
     <g id="line2d_7">
      <g>
       <use xlink:href="#m06272ecc9d" x="57.6" y="231.736725" style="stroke: #000000; stroke-width: 0.8"/>
      </g>
     </g>
     <g id="text_7">
      <!-- −3000 -->
      <g transform="translate(16.770313 235.535943) scale(0.1 -0.1)">
       <use xlink:href="#DejaVuSans-2212"/>
       <use xlink:href="#DejaVuSans-33" transform="translate(83.789062 0)"/>
       <use xlink:href="#DejaVuSans-30" transform="translate(147.412109 0)"/>
       <use xlink:href="#DejaVuSans-30" transform="translate(211.035156 0)"/>
       <use xlink:href="#DejaVuSans-30" transform="translate(274.658203 0)"/>
      </g>
     </g>
    </g>
    <g id="ytick_3">
     <g id="line2d_8">
      <g>
       <use xlink:href="#m06272ecc9d" x="57.6" y="180.110625" style="stroke: #000000; stroke-width: 0.8"/>
      </g>
     </g>
     <g id="text_8">
      <!-- −2000 -->
      <g transform="translate(16.770313 183.909843) scale(0.1 -0.1)">
       <use xlink:href="#DejaVuSans-2212"/>
       <use xlink:href="#DejaVuSans-32" transform="translate(83.789062 0)"/>
       <use xlink:href="#DejaVuSans-30" transform="translate(147.412109 0)"/>
       <use xlink:href="#DejaVuSans-30" transform="translate(211.035156 0)"/>
       <use xlink:href="#DejaVuSans-30" transform="translate(274.658203 0)"/>
      </g>
     </g>
    </g>
    <g id="ytick_4">
     <g id="line2d_9">
      <g>
       <use xlink:href="#m06272ecc9d" x="57.6" y="128.484525" style="stroke: #000000; stroke-width: 0.8"/>
      </g>
     </g>
     <g id="text_9">
      <!-- −1000 -->
      <g transform="translate(16.770313 132.283743) scale(0.1 -0.1)">
       <use xlink:href="#DejaVuSans-2212"/>
       <use xlink:href="#DejaVuSans-31" transform="translate(83.789062 0)"/>
       <use xlink:href="#DejaVuSans-30" transform="translate(147.412109 0)"/>
       <use xlink:href="#DejaVuSans-30" transform="translate(211.035156 0)"/>
       <use xlink:href="#DejaVuSans-30" transform="translate(274.658203 0)"/>
      </g>
     </g>
    </g>
    <g id="ytick_5">
     <g id="line2d_10">
      <g>
       <use xlink:href="#m06272ecc9d" x="57.6" y="76.858425" style="stroke: #000000; stroke-width: 0.8"/>
      </g>
     </g>
     <g id="text_10">
      <!-- 0 -->
      <g transform="translate(44.2375 80.657644) scale(0.1 -0.1)">
       <use xlink:href="#DejaVuSans-30"/>
      </g>
     </g>
    </g>
   </g>
   <g id="line2d_11">
    <path d="M 289.729396 76.858425 
L 289.703287 76.863985 
L 289.743673 76.937719 
L 290.092485 77.548505 
L 290.123989 77.8666 
L 290.347643 78.077448 
L 290.484308 78.242356 
L 290.662032 78.447858 
L 291.005087 78.920898 
L 291.096846 78.959333 
L 291.008834 79.264693 
L 291.143 79.156626 
L 291.158227 79.295313 
L 291.231083 79.47357 
L 291.233926 79.376815 
L 292.1033 79.701995 
L 292.318575 79.809942 
L 292.743322 80.047517 
L 293.484535 80.316093 
L 293.764909 80.253097 
L 294.822595 80.70869 
L 294.877598 80.862269 
L 294.706091 81.160531 
L 294.609501 81.353997 
L 294.697623 81.632053 
L 294.947999 81.650849 
L 295.100343 81.63172 
L 295.054008 81.691277 
L 295.446908 81.893659 
L 295.430497 81.932567 
L 295.043297 82.110169 
L 295.100754 82.140898 
L 295.258093 82.196146 
L 295.24393 82.233224 
L 295.315014 82.455709 
L 295.076309 82.834583 
L 295.939814 83.398055 
L 296.694683 83.356591 
L 297.23686 83.601361 
L 297.946471 83.656848 
L 298.210274 83.498409 
L 298.277308 83.507935 
L 298.604378 83.775539 
L 298.602061 83.75908 
L 298.669303 83.88948 
L 298.703718 83.881511 
L 298.943066 84.103955 
L 298.818649 84.899805 
L 298.599175 85.123895 
L 298.509175 85.055128 
L 298.230932 85.140849 
L 297.979634 85.235273 
L 297.159606 85.250257 
L 297.178896 85.158313 
L 297.239884 85.060381 
L 297.490853 84.959399 
L 297.567113 84.478169 
L 297.469523 84.334128 
L 297.467784 84.430503 
L 297.426996 84.456949 
L 297.485468 84.544351 
L 297.625901 85.108427 
L 297.580846 85.121588 
L 297.397874 85.186816 
L 296.664796 85.993689 
L 296.575491 86.198122 
L 296.43022 86.474911 
L 296.33707 86.643431 
L 296.240285 86.931715 
L 295.735401 87.628897 
L 295.711424 87.611988 
L 295.46565 87.616845 
L 295.484739 87.738397 
L 295.462084 88.0134 
L 295.14243 88.059626 
L 294.182066 88.354113 
L 293.869635 88.443726 
L 293.530618 88.063279 
L 293.603535 87.96913 
L 293.561686 87.94559 
L 292.552421 87.671731 
L 292.586577 87.725109 
L 292.562221 87.860718 
L 292.049154 88.081234 
L 292.114222 88.118131 
L 292.684855 88.291303 
L 293.050732 88.347359 
L 293.244074 88.580962 
L 293.781121 88.64959 
L 293.751304 88.676862 
L 294.001804 88.753093 
L 294.018057 88.697843 
L 293.945313 88.783464 
L 293.950865 88.780063 
L 293.748471 88.658363 
L 293.619797 88.172605 
L 293.77704 87.57206 
L 293.745432 87.585889 
L 293.671902 87.54393 
L 293.648238 87.563418 
L 293.316729 87.549453 
L 293.121568 87.769137 
L 293.153028 87.742284 
L 292.68746 87.686522 
L 292.718133 87.48039 
L 292.479992 87.273597 
L 292.270747 87.314874 
L 292.045811 87.434551 
L 291.234494 86.930143 
L 291.267601 86.616166 
L 291.087822 86.678336 
L 291.35241 86.667546 
L 291.313849 86.70733 
L 291.208122 86.892709 
L 291.058219 86.82563 
L 290.987405 86.718348 
L 291.099065 86.705175 
L 291.171952 86.574855 
L 291.400825 86.549468 
L 291.494159 86.641135 
L 291.534144 86.646842 
L 291.526949 86.55737 
L 291.715011 86.48984 
L 291.687489 86.588129 
L 292.250833 86.644672 
L 292.338919 86.714889 
L 292.617773 86.732437 
L 292.914947 86.950864 
L 293.19214 87.041654 
L 293.172978 86.984283 
L 293.456867 86.951634 
L 293.378619 86.865173 
L 293.372819 86.682762 
L 294.314378 86.216001 
L 294.361086 86.06978 
L 294.51738 85.807047 
L 294.591881 85.58279 
L 295.051207 85.567 
L 295.023713 85.575674 
L 295.150703 85.627245 
L 295.153622 85.618194 
L 295.567178 85.723882 
L 295.506979 85.912111 
L 295.589542 85.899592 
L 295.780298 86.096889 
L 295.570083 86.027557 
L 295.350883 86.045534 
L 295.267608 86.053903 
L 295.508974 85.960704 
L 295.596967 85.616028 
L 295.520151 85.676885 
L 295.302553 85.719203 
L 294.958502 86.539141 
L 295.090109 86.61785 
L 294.885257 86.618828 
L 294.74044 86.546899 
L 294.816907 86.500734 
L 294.792195 86.487291 
L 294.865896 86.419922 
L 295.196313 86.198675 
L 295.165672 86.181001 
L 295.132718 86.156559 
L 295.244816 86.152666 
L 295.222383 86.090714 
L 295.074002 85.997907 
L 295.101519 86.007641 
L 295.001459 86.091861 
L 294.787748 86.102307 
L 294.979665 86.164991 
L 294.988457 86.378729 
L 295.003984 86.552573 
L 295.024123 87.484301 
L 295.128309 87.658602 
L 295.323592 87.848211 
L 295.412499 88.022801 
L 295.118464 88.149478 
L 295.028538 88.20118 
L 295.197984 88.17577 
L 295.051213 88.094885 
L 294.90045 87.933038 
L 294.946937 87.737132 
L 294.836636 87.620512 
L 294.863472 87.694547 
L 294.95535 87.677994 
L 294.992206 87.673631 
L 294.824216 87.633262 
L 294.83555 87.647721 
L 294.888979 87.466104 
L 294.928035 87.507262 
L 295.142321 87.653592 
L 295.352446 87.701609 
L 295.933318 87.581533 
L 297.16337 88.009543 
L 297.542208 87.874968 
L 297.907416 87.876439 
L 298.783338 88.37836 
L 299.092804 89.285396 
L 299.045963 89.289198 
L 298.983468 89.198664 
L 299.102988 89.192177 
L 299.339536 89.319069 
L 299.624056 89.694133 
L 299.621543 89.671069 
L 299.722667 89.663933 
L 299.722667 89.663933 
" clip-path="url(#p7693e111a5)" style="fill: none; stroke: #1f77b4; stroke-width: 1.5; stroke-linecap: square"/>
   </g>
   <g id="line2d_12">
    <path d="M 289.729396 76.858425 
L 288.403714 75.929382 
L 286.835784 75.379141 
L 286.173357 76.092506 
L 286.2906 75.417949 
L 286.71762 74.86068 
L 288.050519 74.886749 
L 286.761104 75.16054 
L 285.962957 75.668341 
L 285.165882 76.633071 
L 285.489138 77.866968 
L 286.181031 77.420641 
L 286.570193 78.101428 
L 285.125492 78.703287 
L 285.155312 80.823528 
L 284.982071 81.056175 
L 285.080136 82.222621 
L 285.47077 82.998916 
L 287.082484 83.542124 
L 289.098474 82.297608 
L 290.690494 82.277722 
L 290.268336 82.391894 
L 291.559523 82.005936 
L 293.00631 82.665293 
L 294.760617 83.114042 
L 296.326075 83.310458 
L 297.951843 83.815685 
L 300.543197 83.54449 
L 303.584908 83.472991 
L 306.654971 82.817173 
L 307.962956 83.406576 
L 308.567099 83.009804 
L 308.51534 82.07393 
L 309.350752 82.063352 
L 311.004826 81.134601 
L 313.820928 81.028193 
L 315.214361 80.12696 
L 317.02927 80.378219 
L 319.379871 79.307291 
L 321.248185 79.152464 
L 324.341292 79.134389 
L 326.614603 78.864333 
L 328.997795 78.893113 
L 331.907588 78.76258 
L 333.275508 78.32656 
L 335.725686 78.903265 
L 338.333105 77.63452 
L 340.511352 77.010996 
L 343.019224 78.170314 
L 345.863678 78.542914 
L 347.556284 78.978624 
L 349.24437 80.594263 
L 351.853445 82.51608 
L 356.503071 84.004323 
L 359.289961 85.519551 
L 361.065832 88.324615 
L 363.94092 89.284462 
L 367.60479 88.990183 
L 370.088635 89.641764 
L 372.691846 91.346819 
L 374.189959 92.624938 
L 377.371127 94.343806 
L 378.58433 95.483447 
L 379.403783 97.317959 
L 380.76976 98.84236 
L 382.924092 99.19196 
L 383.82767 99.735945 
L 384.333656 99.309838 
L 385.74105 100.479671 
L 387.700503 102.32354 
L 389.016678 104.440859 
L 389.697486 105.559267 
L 389.553471 105.371521 
L 388.383786 107.036869 
L 388.057761 109.038457 
L 387.546139 109.635474 
L 388.243115 110.244245 
L 388.988196 110.489275 
L 389.504591 110.281749 
L 389.966846 109.445185 
L 388.333512 106.725161 
L 387.86393 106.939332 
L 386.636608 107.831335 
L 385.18724 107.216531 
L 383.027028 105.929333 
L 379.26942 104.375163 
L 377.12313 101.92487 
L 375.15791 100.958343 
L 373.271375 99.83625 
L 366.379576 97.062586 
L 365.30059 96.378543 
L 362.905014 96.537845 
L 361.463141 96.786283 
L 359.249305 97.361734 
L 357.750273 98.374863 
L 356.393129 98.781591 
L 354.933396 99.343896 
L 353.706185 99.251522 
L 352.889457 99.44981 
L 350.974859 99.001915 
L 346.368859 101.930226 
L 345.775143 102.691573 
L 344.574087 102.488121 
L 343.583691 102.500468 
L 341.389611 101.570348 
L 339.37542 101.557666 
L 338.368348 100.036624 
L 336.641884 100.489629 
L 335.739375 100.847166 
L 333.682176 101.817369 
L 331.639241 101.740863 
L 332.314908 101.636335 
L 332.045443 102.268561 
L 332.817148 102.49845 
L 332.758356 102.926537 
L 332.215943 103.361399 
L 332.872962 103.633376 
L 333.954512 103.191676 
L 334.395119 103.637822 
L 333.606898 103.673801 
L 333.0089 103.2349 
L 333.284767 102.493545 
L 331.162358 101.336952 
L 329.345924 98.064192 
L 327.894575 98.076127 
L 326.293271 97.969785 
L 324.528703 96.930023 
L 323.54083 94.242056 
L 321.213235 91.623875 
L 320.710506 90.107053 
L 321.372076 88.354314 
L 320.847477 86.62355 
L 321.797419 85.328005 
L 323.34525 84.297778 
L 324.510999 82.181339 
L 326.730346 81.723663 
L 328.000891 81.023847 
L 326.422893 80.700563 
L 325.213591 80.812375 
L 323.498803 81.238165 
L 322.049883 80.864045 
L 321.120163 79.269258 
L 319.016316 77.916325 
L 318.104543 76.790384 
L 318.058917 77.573849 
L 317.393214 78.563174 
L 315.911895 79.788779 
L 313.173606 80.147055 
L 311.516504 80.22707 
L 311.254074 81.443108 
L 311.665753 81.569223 
L 311.959299 81.36292 
L 311.96665 81.535064 
L 311.59519 80.514565 
L 309.139626 79.153891 
L 307.283339 79.027471 
L 306.440809 79.200344 
L 305.99445 79.032477 
L 303.730421 79.088035 
L 300.256072 77.920721 
L 297.651101 78.294283 
L 295.798639 78.916688 
L 292.409178 79.466497 
L 289.355457 80.799693 
L 288.313773 80.879529 
L 286.458027 81.919135 
L 285.87396 83.687054 
L 284.429015 85.131137 
L 283.266942 87.126267 
L 281.919516 86.810473 
L 281.600358 87.837 
L 277.598481 85.956519 
L 273.149281 85.160102 
L 271.94856 84.16091 
L 271.00523 83.21866 
L 269.358352 83.45707 
L 264.989712 85.96468 
L 262.878453 86.868362 
L 262.138393 87.585334 
L 260.365905 87.269836 
L 258.65458 86.253786 
L 258.456174 85.6085 
L 256.230981 85.351371 
L 255.768963 84.645789 
L 255.758557 84.326361 
L 257.183086 83.730032 
L 257.181845 83.552779 
L 255.691796 83.004997 
L 254.586861 81.25613 
L 254.1418 79.3842 
L 254.9526 78.036945 
L 257.430607 78.189395 
L 258.7415 79.401707 
L 260.172344 79.643122 
L 258.458887 79.502493 
L 255.951559 80.519779 
L 254.534327 80.078814 
L 252.458777 79.102022 
L 250.454907 76.99475 
L 248.431428 77.110262 
L 246.63112 76.755263 
L 244.082864 77.109632 
L 240.201343 76.877326 
L 235.742618 76.865269 
L 232.062048 78.149276 
L 229.202821 78.127532 
L 225.990901 77.492719 
L 223.669293 77.400098 
L 221.463147 78.352698 
L 222.086587 78.652052 
L 219.267964 78.07911 
L 217.699698 76.468137 
L 216.359514 76.409692 
L 214.970051 75.720654 
L 214.817682 76.092539 
L 213.584444 77.160997 
L 212.873712 77.38082 
L 212.315906 76.759794 
L 212.081107 77.052786 
L 210.116863 79.228487 
L 207.953887 79.901725 
L 207.765169 81.555104 
L 206.724936 83.747743 
L 204.812374 84.814478 
L 202.629381 86.184732 
L 200.167615 87.416034 
L 197.364126 88.424688 
L 194.922738 89.452539 
L 193.518155 91.608531 
L 191.79826 92.736433 
L 189.302561 93.942874 
L 188.84021 92.562711 
L 187.669113 92.233777 
L 187.925486 92.245333 
L 187.485287 91.876898 
L 185.969013 92.230102 
L 185.946272 92.854347 
L 184.864658 93.986094 
L 183.899555 94.220541 
L 184.008559 94.235681 
L 183.473595 94.783389 
L 181.60165 94.960912 
L 180.363763 95.629859 
L 180.013243 95.328641 
L 178.928303 95.570355 
L 177.030752 94.102416 
L 175.453092 93.244781 
L 169.086626 92.475999 
L 166.814187 92.593402 
L 165.644759 94.290946 
L 164.183442 96.011191 
L 160.649641 96.995486 
L 158.652724 98.279568 
L 155.637454 100.081851 
L 152.491942 104.41577 
L 151.651549 106.085416 
L 150.156512 107.475915 
L 150.469233 109.467027 
L 149.498479 111.623824 
L 149.337975 114.955631 
L 148.371877 118.258962 
L 146.205971 120.481283 
L 142.950097 122.845699 
L 140.539073 127.318278 
L 139.254345 130.699991 
L 135.604786 133.348139 
L 125.537806 138.235472 
L 121.786311 139.606383 
L 119.794719 141.16002 
L 117.509882 143.950141 
L 115.757078 146.338513 
L 111.605392 157.702905 
L 110.512297 161.842121 
L 110.197272 164.396617 
L 110.421843 168.056831 
L 109.095325 170.672989 
L 105.006159 174.508161 
L 103.974758 176.300257 
L 101.902372 178.316951 
L 99.668685 180.192872 
L 97.869618 182.607962 
L 93.37129 184.572323 
L 91.712213 185.973856 
L 88.088451 187.756296 
L 83.847962 190.270619 
L 82.973656 191.522784 
L 83.439419 194.044175 
L 81.962261 198.216794 
L 80.249364 202.009483 
L 76.939362 206.527869 
L 73.832727 209.800756 
L 74.519668 212.439552 
L 75.614042 215.174356 
L 77.628265 217.18087 
L 77.243974 220.601534 
L 79.197724 222.669997 
L 78.444705 225.536326 
L 79.948007 230.836493 
L 81.793245 234.795737 
L 82.170526 235.829942 
L 81.390794 236.048309 
L 81.218789 235.730484 
L 82.944851 234.31052 
L 83.67831 235.911817 
L 85.490543 236.748133 
L 86.028508 236.014001 
L 85.629075 236.808134 
L 85.460455 238.144302 
L 86.180466 238.996016 
L 86.837303 240.206346 
L 85.726098 239.885471 
L 83.57929 240.914867 
L 83.099594 241.730562 
L 83.075274 241.528529 
L 81.604132 241.000766 
L 82.584897 241.295648 
L 83.554503 242.087875 
L 85.508854 243.521861 
L 87.74784 244.43134 
L 87.477737 245.931866 
L 87.473492 248.176788 
L 86.198337 248.412722 
L 85.642699 250.703599 
L 85.355418 252.406341 
L 83.963631 254.643353 
L 83.146386 255.711825 
L 83.133471 256.032727 
L 84.05131 256.369897 
L 83.729773 260.116612 
L 84.606465 261.86024 
L 84.260775 262.983123 
L 82.171861 264.364994 
L 82.079349 266.009375 
L 82.4617 266.792644 
L 81.667735 267.893376 
L 82.925266 270.06653 
L 83.757102 272.115371 
L 83.733138 273.225216 
L 84.746932 274.47563 
L 84.353245 275.777696 
L 85.194652 277.714204 
L 86.552961 278.373151 
L 86.553697 279.769677 
L 86.228604 281.432163 
L 86.931161 283.196463 
L 86.72092 284.60035 
L 86.292692 286.521069 
L 87.126108 288.480726 
L 87.507676 291.434388 
L 87.665604 293.490717 
L 88.331773 295.488 
L 87.884652 295.136188 
L 90.588055 294.811749 
L 92.130585 294.997453 
L 94.074994 295.385122 
L 95.487504 295.450275 
L 97.098471 295.246148 
L 98.693244 294.789293 
L 98.441113 295.153652 
L 99.177163 294.341268 
L 98.391773 293.13877 
L 98.790915 292.651579 
L 99.56296 292.742897 
L 99.767162 293.195344 
L 100.790396 294.225275 
L 100.737799 294.510426 
L 102.147912 293.491257 
L 103.343611 292.868589 
L 103.709489 290.896422 
L 105.780305 291.167674 
L 106.607538 291.462749 
L 108.643876 292.808856 
L 110.794736 293.823438 
L 111.096759 294.218854 
L 112.046869 294.917593 
L 112.079463 295.426579 
L 111.109631 295.422927 
L 110.62013 294.622216 
L 110.339693 293.663053 
L 110.558592 293.755896 
L 109.955953 293.758317 
L 107.552967 293.090776 
L 106.748682 292.634846 
L 105.155944 292.273017 
L 104.39594 292.495333 
L 103.546015 291.633788 
L 103.015064 292.119136 
L 104.926064 293.212408 
L 105.073891 293.93657 
L 102.817759 293.376387 
L 101.441409 292.537799 
L 100.686035 292.465652 
L 99.568864 290.993318 
L 99.760451 289.742989 
L 100.474389 289.674241 
L 100.152063 288.696222 
L 100.249229 288.932334 
L 100.687362 289.419646 
L 101.725635 291.023163 
L 101.417798 291.212151 
L 100.006634 291.910292 
L 98.786689 292.66491 
L 99.929969 294.119936 
L 101.355338 294.165846 
L 102.423931 294.461823 
L 105.509135 292.502414 
L 106.13966 291.313276 
L 108.530809 291.294201 
L 109.277827 291.760587 
L 112.904542 292.190809 
L 117.242651 291.504428 
L 117.598646 291.662832 
L 117.020366 290.819958 
L 117.683134 289.762586 
L 117.176972 288.889225 
L 117.791708 288.793054 
L 117.319511 287.897752 
L 117.935197 286.512354 
L 119.180053 285.03931 
L 122.18455 280.468529 
L 123.211225 280.090822 
L 123.290554 279.362414 
L 123.116194 279.342832 
L 123.377432 277.678334 
L 125.000317 276.131237 
L 125.0495 274.294163 
L 123.172407 271.700041 
L 122.296845 272.420416 
L 121.526022 272.498434 
L 119.664163 271.418367 
L 117.993377 269.932178 
L 115.608051 267.210164 
L 115.598955 264.969006 
L 117.100712 262.641896 
L 117.845664 262.620512 
L 118.661095 262.761999 
L 120.417752 264.429628 
L 121.176773 264.619461 
L 120.988094 265.264673 
L 118.940809 265.260918 
L 115.733159 266.234659 
L 114.951488 265.127356 
L 115.33501 263.327956 
L 117.181885 261.964865 
L 117.653775 261.783495 
L 119.384213 261.726834 
L 121.763818 261.279088 
L 123.317395 260.527985 
L 122.536919 260.452193 
L 121.656349 259.500269 
L 120.705865 257.603783 
L 122.571978 255.619329 
L 122.714915 254.416648 
L 121.215371 252.469164 
L 120.86691 250.743339 
L 120.524267 249.685486 
L 123.307507 246.843429 
L 124.104133 247.745318 
L 128.682343 246.708071 
L 129.345026 247.295899 
L 131.295303 247.87041 
L 134.616403 248.170029 
L 138.20262 249.60713 
L 140.883098 249.613469 
L 145.6511 250.81626 
L 147.113995 251.743802 
L 150.162734 253.32015 
L 152.201821 253.867763 
L 156.96165 254.464383 
L 157.393909 255.746587 
L 158.684711 256.259294 
L 158.620954 256.850209 
L 158.797837 256.804347 
L 158.678192 256.939713 
L 158.495168 257.993938 
L 160.566412 257.290249 
L 161.517524 256.682938 
L 161.729327 257.25252 
L 163.840202 257.918464 
L 165.323913 257.351084 
L 165.268805 258.585419 
L 165.38712 259.232237 
L 166.63545 259.716165 
L 166.435059 259.724026 
L 166.75091 260.606358 
L 168.031648 261.46924 
L 168.285234 261.85844 
L 170.773013 263.161043 
L 173.493048 263.397415 
L 174.679365 262.969581 
L 176.352442 262.865832 
L 178.721146 261.782816 
L 181.26125 261.954121 
L 183.647176 261.683582 
L 185.861528 260.841342 
L 188.812618 260.034506 
L 191.437179 259.061014 
L 194.771844 258.380611 
L 196.449995 257.654725 
L 197.841117 257.409695 
L 199.046085 257.079468 
L 200.312784 257.40104 
L 200.261383 257.446003 
L 201.785686 257.047975 
L 202.057817 256.334981 
L 203.206924 257.190684 
L 204.180095 257.432742 
L 204.841206 256.985147 
L 206.004735 255.78811 
L 209.158783 254.122817 
L 212.543523 251.107911 
L 213.233805 251.14317 
L 216.363409 250.658108 
L 219.372799 251.285558 
L 222.53541 251.785852 
L 225.985109 252.104542 
L 228.400942 252.876805 
L 231.830909 252.730301 
L 234.462648 253.851559 
L 237.631919 254.420279 
L 238.752049 253.961619 
L 240.71723 253.89944 
L 242.93442 253.398895 
L 244.152342 252.854026 
L 244.047404 253.4225 
L 245.325998 252.169498 
L 244.986006 250.94284 
L 245.135879 249.875362 
L 245.551437 249.827108 
L 246.570691 247.850879 
L 246.279576 244.858363 
L 246.73286 242.804198 
L 247.451451 241.6599 
L 247.346801 240.889417 
L 248.235042 240.039654 
L 248.446095 239.629222 
L 247.761397 238.814138 
L 248.482053 238.513007 
L 248.126913 237.301596 
L 249.350266 235.502293 
L 249.789951 235.208401 
L 252.476884 234.494324 
L 253.728367 234.470718 
L 254.540763 234.21672 
L 255.07183 233.350632 
L 252.600698 231.350569 
L 251.802975 229.74832 
L 252.072759 229.634927 
L 253.569954 229.513659 
L 255.237906 229.065185 
L 261.299455 224.271411 
L 263.394862 223.076355 
L 266.208502 222.86097 
L 268.567066 222.983461 
L 269.562867 221.088112 
L 270.79641 219.517544 
L 270.815867 217.45648 
L 272.063491 214.808895 
L 273.907884 213.152634 
L 274.383456 210.515255 
L 274.372047 208.483556 
L 274.93039 207.664441 
L 276.007312 204.328747 
L 277.375308 201.34004 
L 279.600576 197.906782 
L 282.353873 196.068962 
L 283.553805 194.989508 
L 284.583653 193.588625 
L 285.367791 192.069688 
L 285.840717 189.83278 
L 285.575085 187.430865 
L 284.184317 187.110719 
L 284.27045 186.419653 
L 282.943843 185.036581 
L 281.830193 183.658799 
L 281.178225 181.233502 
L 280.237163 178.889066 
L 277.591076 177.608073 
L 276.165981 176.553001 
L 275.922261 175.4804 
L 276.236099 174.96009 
L 275.473019 174.163045 
L 273.944008 174.154704 
L 273.09727 173.374291 
L 272.970792 172.755609 
L 272.927947 171.863608 
L 271.75201 170.886228 
L 271.671057 169.006588 
L 273.175047 166.332101 
L 273.843105 165.579018 
L 276.078229 162.733888 
L 276.760703 162.55528 
L 278.001364 162.841846 
L 279.327038 162.338693 
L 281.696838 161.687813 
L 284.406486 159.788221 
L 286.044876 158.061822 
L 287.485956 156.968285 
L 287.928068 157.270919 
L 287.865723 157.153157 
L 288.777722 157.014558 
L 288.286032 155.894644 
L 287.459251 155.344205 
L 286.421493 155.357695 
L 285.70109 156.23358 
L 286.200651 157.611177 
L 287.177614 158.878192 
L 288.288139 159.795524 
L 288.377839 161.104403 
L 288.831833 161.03206 
L 290.564838 162.587448 
L 290.797724 163.171028 
L 289.986976 163.456481 
L 289.285949 163.911033 
L 287.620136 164.784352 
L 287.628785 165.452563 
L 287.395179 166.413276 
L 286.974051 166.45921 
L 288.052468 166.917544 
L 289.376392 166.506349 
L 290.233482 166.007316 
L 290.001731 166.114396 
L 291.42073 165.493986 
L 293.25026 165.842699 
L 294.919874 164.708881 
L 294.828657 163.269083 
L 296.804094 160.425091 
L 296.049746 159.966179 
L 294.686887 159.94948 
L 293.8856 159.649692 
L 293.52079 159.764929 
L 293.312009 160.022378 
L 294.665266 158.776046 
L 293.237999 158.903681 
L 292.820049 159.593799 
L 291.988088 159.430433 
L 291.335763 158.771984 
L 291.988508 158.442367 
L 291.155773 157.845085 
L 290.812006 158.227731 
L 289.674849 156.954619 
L 289.891302 156.513313 
L 291.658194 156.097999 
L 292.624362 155.196856 
L 293.652865 154.424578 
L 293.891001 153.705951 
L 294.389139 153.053372 
L 295.625068 152.21079 
L 296.635003 150.668941 
L 297.794198 149.288012 
L 299.331739 148.763232 
L 299.51591 148.827343 
L 300.822924 148.156871 
L 302.671613 148.771865 
L 306.217619 149.039719 
L 308.449257 147.999233 
L 311.442758 147.184603 
L 312.491807 145.343035 
L 314.880781 144.725122 
L 314.330342 142.89281 
L 314.105395 141.551223 
L 314.839672 140.518086 
L 317.397459 139.232587 
L 318.579353 138.004376 
L 321.239119 136.552797 
L 322.88245 136.512474 
L 324.462687 135.30061 
L 324.476878 133.617947 
L 325.758489 131.44187 
L 325.825839 129.445493 
L 325.241275 127.162773 
L 325.977691 123.286341 
L 326.280119 121.404005 
L 325.282314 120.705976 
L 325.793261 120.169704 
L 326.564486 118.791016 
L 327.503436 118.086839 
L 327.745342 116.611853 
L 329.304182 114.617084 
L 330.232412 114.299179 
L 331.911333 113.546871 
L 333.92968 114.102399 
L 337.246207 113.89265 
L 339.732898 114.581686 
L 342.115964 114.858206 
L 343.612279 115.816618 
L 344.674216 116.154608 
L 346.288071 114.906422 
L 347.304371 112.23856 
L 347.623266 109.462013 
L 347.366161 107.803936 
L 348.60238 107.180173 
L 350.216943 106.699934 
L 351.680744 106.99392 
L 352.645081 106.726968 
L 353.650638 105.354432 
L 353.238044 104.499047 
L 353.462435 102.88948 
L 352.730794 101.325662 
L 352.075581 101.055881 
L 352.918475 99.786062 
L 354.598908 98.194817 
L 356.541113 98.341047 
L 359.302363 97.622802 
L 360.487541 97.091064 
L 361.221296 96.976672 
L 361.855772 95.284923 
L 362.848189 95.44975 
L 364.826492 95.952133 
L 365.341493 94.520037 
L 366.322666 93.638368 
L 367.285097 93.373115 
L 368.599964 93.301615 
L 370.35192 92.56407 
L 372.202448 93.040912 
L 374.059431 92.621921 
L 376.702914 92.413931 
L 378.484188 91.742333 
L 380.003579 91.375215 
L 381.175892 90.479342 
L 382.829633 90.054585 
L 383.057603 89.849026 
L 384.754775 87.414214 
L 385.209526 85.597981 
L 388.786746 81.832164 
L 389.907472 78.785928 
L 390.575443 76.014619 
L 391.501257 74.907439 
L 390.841818 72.026842 
L 390.201663 69.776532 
L 390.894232 67.745841 
L 392.141896 66.469609 
L 393.058536 65.002988 
L 392.814188 64.005558 
L 393.953462 62.434609 
L 394.52724 60.798324 
L 394.567638 60.323621 
L 394.372528 59.074449 
L 393.886437 57.829436 
L 394.2919 56.259012 
L 395.660967 55.525437 
L 395.798536 53.852895 
L 395.181806 53.568 
L 396.889266 55.061059 
L 396.511105 55.950737 
L 396.474595 56.946667 
L 396.002258 57.575835 
L 398.487273 57.92494 
L 398.178887 57.850094 
L 396.138859 56.933464 
L 396.262793 56.221995 
L 392.426018 56.377789 
L 388.529874 57.576927 
L 386.911913 58.264794 
L 385.423285 58.182479 
L 384.223951 58.5983 
L 382.840593 58.173618 
L 383.293253 58.592338 
L 383.435348 59.719991 
L 381.721845 59.97745 
L 379.809628 59.195422 
L 378.926004 58.693266 
L 378.924328 58.945319 
L 378.703929 59.583998 
L 378.569188 60.742882 
L 376.50779 62.321773 
L 372.419563 64.680755 
L 371.694243 66.203212 
L 371.345614 68.060324 
L 370.711328 69.518716 
L 369.289928 71.116132 
L 367.630897 72.042564 
L 366.473041 71.877973 
L 365.114733 72.471655 
L 364.094469 72.644637 
L 361.843392 72.403064 
L 359.207834 72.479099 
L 356.765801 72.297935 
L 350.13869 75.103084 
L 349.247631 76.01092 
L 348.681756 77.321035 
L 347.283978 78.537448 
L 345.799167 81.548443 
L 343.65617 84.030074 
L 342.237765 84.74751 
L 340.02166 85.190523 
L 339.762369 85.658615 
L 339.06693 86.47755 
L 338.065238 88.692218 
L 337.465333 91.11987 
L 336.702035 92.72054 
L 335.847917 92.10669 
L 336.002678 91.35681 
L 338.067358 92.884711 
L 338.740324 92.260514 
L 337.790065 92.215121 
L 338.49676 90.99251 
L 340.485259 89.197827 
L 341.611363 88.836618 
L 341.294324 87.954754 
L 340.402667 87.636816 
L 340.760484 87.823136 
L 340.170467 87.41495 
L 339.872215 87.290237 
L 339.439952 86.567477 
L 338.06601 86.540759 
L 338.27414 86.470182 
L 337.27162 85.932145 
L 337.18818 85.133566 
L 338.374391 83.393394 
L 332.832388 82.412728 
L 330.784492 82.567293 
L 326.665538 83.68855 
L 325.221818 82.901513 
L 324.285077 81.846953 
L 322.320564 79.967334 
L 321.411617 79.810004 
L 320.842656 79.868094 
L 321.285588 78.234433 
L 320.700791 77.760502 
L 319.813186 76.563851 
L 320.51561 74.299658 
L 319.931852 72.530975 
L 319.991716 71.84491 
L 320.404354 71.906924 
L 321.262854 71.140437 
L 321.043804 71.172586 
L 322.025864 72.118804 
L 323.752735 71.445257 
L 325.519097 70.445583 
L 325.225872 69.590519 
L 326.324728 68.310393 
L 325.245428 67.280968 
L 325.046744 66.841037 
L 325.282499 67.644318 
L 326.185816 68.929475 
L 326.56792 68.998858 
L 325.272449 69.272343 
L 323.821856 69.766189 
L 323.599538 69.480811 
L 322.252854 69.877478 
L 320.96623 69.752895 
L 321.096293 70.788259 
L 321.955365 71.208151 
L 319.689426 69.377156 
L 317.662839 69.12985 
L 315.691074 68.345859 
L 313.629665 64.205719 
L 312.715134 63.820268 
L 312.175032 64.52768 
L 309.583054 66.060382 
L 306.800271 67.959748 
L 305.453436 69.625779 
L 304.555533 70.42732 
L 304.30961 73.323556 
L 304.461502 75.573418 
L 305.965559 75.87853 
L 304.724583 75.734637 
L 305.116871 77.299804 
L 303.369316 78.244547 
L 301.587284 77.805969 
L 300.388005 76.924221 
L 300.020944 75.379806 
L 300.594616 73.951264 
L 302.498775 73.050091 
L 303.878258 72.247721 
L 302.948743 72.598442 
L 303.168647 71.919071 
L 306.030875 73.277619 
L 305.988881 73.791684 
L 306.240624 76.008725 
L 306.171703 76.493646 
L 306.785634 77.302962 
L 308.462789 79.17171 
L 310.187524 80.740536 
L 312.562298 82.203788 
L 312.744299 83.954315 
L 313.833963 85.388499 
L 315.711574 84.629334 
L 315.396655 82.927642 
L 314.92466 82.714413 
L 314.645803 83.331253 
L 313.170751 83.647283 
L 313.554675 83.469298 
L 314.429939 84.128889 
L 313.883949 84.432979 
L 313.907804 85.66949 
L 312.682249 85.469066 
L 309.507685 85.038986 
L 307.137004 84.56561 
L 304.318368 83.513196 
L 300.976488 83.379755 
L 298.692299 82.506165 
L 298.82056 81.199802 
L 297.739691 80.034727 
L 296.29754 79.286955 
L 294.561363 78.556065 
L 293.876475 78.553314 
L 292.4885 77.975414 
L 291.242322 77.159763 
L 290.166413 77.610721 
L 290.166413 77.610721 
" clip-path="url(#p7693e111a5)" style="fill: none; stroke: #ff7f0e; stroke-width: 1.5; stroke-linecap: square"/>
   </g>
   <g id="patch_3">
    <path d="M 57.6 307.584 
L 57.6 41.472 
" style="fill: none; stroke: #000000; stroke-width: 0.8; stroke-linejoin: miter; stroke-linecap: square"/>
   </g>
   <g id="patch_4">
    <path d="M 414.72 307.584 
L 414.72 41.472 
" style="fill: none; stroke: #000000; stroke-width: 0.8; stroke-linejoin: miter; stroke-linecap: square"/>
   </g>
   <g id="patch_5">
    <path d="M 57.6 307.584 
L 414.72 307.584 
" style="fill: none; stroke: #000000; stroke-width: 0.8; stroke-linejoin: miter; stroke-linecap: square"/>
   </g>
   <g id="patch_6">
    <path d="M 57.6 41.472 
L 414.72 41.472 
" style="fill: none; stroke: #000000; stroke-width: 0.8; stroke-linejoin: miter; stroke-linecap: square"/>
   </g>
   <g id="legend_1">
    <g id="patch_7">
     <path d="M 64.6 79.3845 
L 182.645313 79.3845 
Q 184.645313 79.3845 184.645313 77.3845 
L 184.645313 48.472 
Q 184.645313 46.472 182.645313 46.472 
L 64.6 46.472 
Q 62.6 46.472 62.6 48.472 
L 62.6 77.3845 
Q 62.6 79.3845 64.6 79.3845 
z
" style="fill: #ffffff; opacity: 0.8; stroke: #cccccc; stroke-linejoin: miter"/>
    </g>
    <g id="line2d_13">
     <path d="M 66.6 54.570438 
L 76.6 54.570438 
L 86.6 54.570438 
" style="fill: none; stroke: #1f77b4; stroke-width: 1.5; stroke-linecap: square"/>
    </g>
    <g id="text_11">
     <!-- powerlaw_timber -->
     <g transform="translate(94.6 58.070438) scale(0.1 -0.1)">
      <defs>
       <path id="DejaVuSans-70" d="M 1159 525 
L 1159 -1331 
L 581 -1331 
L 581 3500 
L 1159 3500 
L 1159 2969 
Q 1341 3281 1617 3432 
Q 1894 3584 2278 3584 
Q 2916 3584 3314 3078 
Q 3713 2572 3713 1747 
Q 3713 922 3314 415 
Q 2916 -91 2278 -91 
Q 1894 -91 1617 61 
Q 1341 213 1159 525 
z
M 3116 1747 
Q 3116 2381 2855 2742 
Q 2594 3103 2138 3103 
Q 1681 3103 1420 2742 
Q 1159 2381 1159 1747 
Q 1159 1113 1420 752 
Q 1681 391 2138 391 
Q 2594 391 2855 752 
Q 3116 1113 3116 1747 
z
" transform="scale(0.015625)"/>
       <path id="DejaVuSans-6f" d="M 1959 3097 
Q 1497 3097 1228 2736 
Q 959 2375 959 1747 
Q 959 1119 1226 758 
Q 1494 397 1959 397 
Q 2419 397 2687 759 
Q 2956 1122 2956 1747 
Q 2956 2369 2687 2733 
Q 2419 3097 1959 3097 
z
M 1959 3584 
Q 2709 3584 3137 3096 
Q 3566 2609 3566 1747 
Q 3566 888 3137 398 
Q 2709 -91 1959 -91 
Q 1206 -91 779 398 
Q 353 888 353 1747 
Q 353 2609 779 3096 
Q 1206 3584 1959 3584 
z
" transform="scale(0.015625)"/>
       <path id="DejaVuSans-77" d="M 269 3500 
L 844 3500 
L 1563 769 
L 2278 3500 
L 2956 3500 
L 3675 769 
L 4391 3500 
L 4966 3500 
L 4050 0 
L 3372 0 
L 2619 2869 
L 1863 0 
L 1184 0 
L 269 3500 
z
" transform="scale(0.015625)"/>
       <path id="DejaVuSans-65" d="M 3597 1894 
L 3597 1613 
L 953 1613 
Q 991 1019 1311 708 
Q 1631 397 2203 397 
Q 2534 397 2845 478 
Q 3156 559 3463 722 
L 3463 178 
Q 3153 47 2828 -22 
Q 2503 -91 2169 -91 
Q 1331 -91 842 396 
Q 353 884 353 1716 
Q 353 2575 817 3079 
Q 1281 3584 2069 3584 
Q 2775 3584 3186 3129 
Q 3597 2675 3597 1894 
z
M 3022 2063 
Q 3016 2534 2758 2815 
Q 2500 3097 2075 3097 
Q 1594 3097 1305 2825 
Q 1016 2553 972 2059 
L 3022 2063 
z
" transform="scale(0.015625)"/>
       <path id="DejaVuSans-72" d="M 2631 2963 
Q 2534 3019 2420 3045 
Q 2306 3072 2169 3072 
Q 1681 3072 1420 2755 
Q 1159 2438 1159 1844 
L 1159 0 
L 581 0 
L 581 3500 
L 1159 3500 
L 1159 2956 
Q 1341 3275 1631 3429 
Q 1922 3584 2338 3584 
Q 2397 3584 2469 3576 
Q 2541 3569 2628 3553 
L 2631 2963 
z
" transform="scale(0.015625)"/>
       <path id="DejaVuSans-6c" d="M 603 4863 
L 1178 4863 
L 1178 0 
L 603 0 
L 603 4863 
z
" transform="scale(0.015625)"/>
       <path id="DejaVuSans-61" d="M 2194 1759 
Q 1497 1759 1228 1600 
Q 959 1441 959 1056 
Q 959 750 1161 570 
Q 1363 391 1709 391 
Q 2188 391 2477 730 
Q 2766 1069 2766 1631 
L 2766 1759 
L 2194 1759 
z
M 3341 1997 
L 3341 0 
L 2766 0 
L 2766 531 
Q 2569 213 2275 61 
Q 1981 -91 1556 -91 
Q 1019 -91 701 211 
Q 384 513 384 1019 
Q 384 1609 779 1909 
Q 1175 2209 1959 2209 
L 2766 2209 
L 2766 2266 
Q 2766 2663 2505 2880 
Q 2244 3097 1772 3097 
Q 1472 3097 1187 3025 
Q 903 2953 641 2809 
L 641 3341 
Q 956 3463 1253 3523 
Q 1550 3584 1831 3584 
Q 2591 3584 2966 3190 
Q 3341 2797 3341 1997 
z
" transform="scale(0.015625)"/>
       <path id="DejaVuSans-5f" d="M 3263 -1063 
L 3263 -1509 
L -63 -1509 
L -63 -1063 
L 3263 -1063 
z
" transform="scale(0.015625)"/>
       <path id="DejaVuSans-74" d="M 1172 4494 
L 1172 3500 
L 2356 3500 
L 2356 3053 
L 1172 3053 
L 1172 1153 
Q 1172 725 1289 603 
Q 1406 481 1766 481 
L 2356 481 
L 2356 0 
L 1766 0 
Q 1100 0 847 248 
Q 594 497 594 1153 
L 594 3053 
L 172 3053 
L 172 3500 
L 594 3500 
L 594 4494 
L 1172 4494 
z
" transform="scale(0.015625)"/>
       <path id="DejaVuSans-69" d="M 603 3500 
L 1178 3500 
L 1178 0 
L 603 0 
L 603 3500 
z
M 603 4863 
L 1178 4863 
L 1178 4134 
L 603 4134 
L 603 4863 
z
" transform="scale(0.015625)"/>
       <path id="DejaVuSans-6d" d="M 3328 2828 
Q 3544 3216 3844 3400 
Q 4144 3584 4550 3584 
Q 5097 3584 5394 3201 
Q 5691 2819 5691 2113 
L 5691 0 
L 5113 0 
L 5113 2094 
Q 5113 2597 4934 2840 
Q 4756 3084 4391 3084 
Q 3944 3084 3684 2787 
Q 3425 2491 3425 1978 
L 3425 0 
L 2847 0 
L 2847 2094 
Q 2847 2600 2669 2842 
Q 2491 3084 2119 3084 
Q 1678 3084 1418 2786 
Q 1159 2488 1159 1978 
L 1159 0 
L 581 0 
L 581 3500 
L 1159 3500 
L 1159 2956 
Q 1356 3278 1631 3431 
Q 1906 3584 2284 3584 
Q 2666 3584 2933 3390 
Q 3200 3197 3328 2828 
z
" transform="scale(0.015625)"/>
       <path id="DejaVuSans-62" d="M 3116 1747 
Q 3116 2381 2855 2742 
Q 2594 3103 2138 3103 
Q 1681 3103 1420 2742 
Q 1159 2381 1159 1747 
Q 1159 1113 1420 752 
Q 1681 391 2138 391 
Q 2594 391 2855 752 
Q 3116 1113 3116 1747 
z
M 1159 2969 
Q 1341 3281 1617 3432 
Q 1894 3584 2278 3584 
Q 2916 3584 3314 3078 
Q 3713 2572 3713 1747 
Q 3713 922 3314 415 
Q 2916 -91 2278 -91 
Q 1894 -91 1617 61 
Q 1341 213 1159 525 
L 1159 0 
L 581 0 
L 581 4863 
L 1159 4863 
L 1159 2969 
z
" transform="scale(0.015625)"/>
      </defs>
      <use xlink:href="#DejaVuSans-70"/>
      <use xlink:href="#DejaVuSans-6f" transform="translate(63.476562 0)"/>
      <use xlink:href="#DejaVuSans-77" transform="translate(124.658203 0)"/>
      <use xlink:href="#DejaVuSans-65" transform="translate(206.445312 0)"/>
      <use xlink:href="#DejaVuSans-72" transform="translate(267.96875 0)"/>
      <use xlink:href="#DejaVuSans-6c" transform="translate(309.082031 0)"/>
      <use xlink:href="#DejaVuSans-61" transform="translate(336.865234 0)"/>
      <use xlink:href="#DejaVuSans-77" transform="translate(398.144531 0)"/>
      <use xlink:href="#DejaVuSans-5f" transform="translate(479.931641 0)"/>
      <use xlink:href="#DejaVuSans-74" transform="translate(529.931641 0)"/>
      <use xlink:href="#DejaVuSans-69" transform="translate(569.140625 0)"/>
      <use xlink:href="#DejaVuSans-6d" transform="translate(596.923828 0)"/>
      <use xlink:href="#DejaVuSans-62" transform="translate(694.335938 0)"/>
      <use xlink:href="#DejaVuSans-65" transform="translate(757.8125 0)"/>
      <use xlink:href="#DejaVuSans-72" transform="translate(819.335938 0)"/>
     </g>
    </g>
    <g id="line2d_14">
     <path d="M 66.6 69.526688 
L 76.6 69.526688 
L 86.6 69.526688 
" style="fill: none; stroke: #ff7f0e; stroke-width: 1.5; stroke-linecap: square"/>
    </g>
    <g id="text_12">
     <!-- timeseries_done -->
     <g transform="translate(94.6 73.026688) scale(0.1 -0.1)">
      <defs>
       <path id="DejaVuSans-73" d="M 2834 3397 
L 2834 2853 
Q 2591 2978 2328 3040 
Q 2066 3103 1784 3103 
Q 1356 3103 1142 2972 
Q 928 2841 928 2578 
Q 928 2378 1081 2264 
Q 1234 2150 1697 2047 
L 1894 2003 
Q 2506 1872 2764 1633 
Q 3022 1394 3022 966 
Q 3022 478 2636 193 
Q 2250 -91 1575 -91 
Q 1294 -91 989 -36 
Q 684 19 347 128 
L 347 722 
Q 666 556 975 473 
Q 1284 391 1588 391 
Q 1994 391 2212 530 
Q 2431 669 2431 922 
Q 2431 1156 2273 1281 
Q 2116 1406 1581 1522 
L 1381 1569 
Q 847 1681 609 1914 
Q 372 2147 372 2553 
Q 372 3047 722 3315 
Q 1072 3584 1716 3584 
Q 2034 3584 2315 3537 
Q 2597 3491 2834 3397 
z
" transform="scale(0.015625)"/>
       <path id="DejaVuSans-64" d="M 2906 2969 
L 2906 4863 
L 3481 4863 
L 3481 0 
L 2906 0 
L 2906 525 
Q 2725 213 2448 61 
Q 2172 -91 1784 -91 
Q 1150 -91 751 415 
Q 353 922 353 1747 
Q 353 2572 751 3078 
Q 1150 3584 1784 3584 
Q 2172 3584 2448 3432 
Q 2725 3281 2906 2969 
z
M 947 1747 
Q 947 1113 1208 752 
Q 1469 391 1925 391 
Q 2381 391 2643 752 
Q 2906 1113 2906 1747 
Q 2906 2381 2643 2742 
Q 2381 3103 1925 3103 
Q 1469 3103 1208 2742 
Q 947 2381 947 1747 
z
" transform="scale(0.015625)"/>
       <path id="DejaVuSans-6e" d="M 3513 2113 
L 3513 0 
L 2938 0 
L 2938 2094 
Q 2938 2591 2744 2837 
Q 2550 3084 2163 3084 
Q 1697 3084 1428 2787 
Q 1159 2491 1159 1978 
L 1159 0 
L 581 0 
L 581 3500 
L 1159 3500 
L 1159 2956 
Q 1366 3272 1645 3428 
Q 1925 3584 2291 3584 
Q 2894 3584 3203 3211 
Q 3513 2838 3513 2113 
z
" transform="scale(0.015625)"/>
      </defs>
      <use xlink:href="#DejaVuSans-74"/>
      <use xlink:href="#DejaVuSans-69" transform="translate(39.208984 0)"/>
      <use xlink:href="#DejaVuSans-6d" transform="translate(66.992188 0)"/>
      <use xlink:href="#DejaVuSans-65" transform="translate(164.404297 0)"/>
      <use xlink:href="#DejaVuSans-73" transform="translate(225.927734 0)"/>
      <use xlink:href="#DejaVuSans-65" transform="translate(278.027344 0)"/>
      <use xlink:href="#DejaVuSans-72" transform="translate(339.550781 0)"/>
      <use xlink:href="#DejaVuSans-69" transform="translate(380.664062 0)"/>
      <use xlink:href="#DejaVuSans-65" transform="translate(408.447266 0)"/>
      <use xlink:href="#DejaVuSans-73" transform="translate(469.970703 0)"/>
      <use xlink:href="#DejaVuSans-5f" transform="translate(522.070312 0)"/>
      <use xlink:href="#DejaVuSans-64" transform="translate(572.070312 0)"/>
      <use xlink:href="#DejaVuSans-6f" transform="translate(635.546875 0)"/>
      <use xlink:href="#DejaVuSans-6e" transform="translate(696.728516 0)"/>
      <use xlink:href="#DejaVuSans-65" transform="translate(760.107422 0)"/>
     </g>
    </g>
   </g>
  </g>
 </g>
 <defs>
  <clipPath id="p7693e111a5">
   <rect x="57.6" y="41.472" width="357.12" height="266.112"/>
  </clipPath>
 </defs>
</svg>
