<?xml version="1.0" encoding="utf-8" standalone="no"?>
<!DOCTYPE svg PUBLIC "-//W3C//DTD SVG 1.1//EN"
  "http://www.w3.org/Graphics/SVG/1.1/DTD/svg11.dtd">
<svg xmlns:xlink="http://www.w3.org/1999/xlink" width="460.8pt" height="345.6pt" viewBox="0 0 460.8 345.6" xmlns="http://www.w3.org/2000/svg" version="1.1">
 <metadata>
  <rdf:RDF xmlns:dc="http://purl.org/dc/elements/1.1/" xmlns:cc="http://creativecommons.org/ns#" xmlns:rdf="http://www.w3.org/1999/02/22-rdf-syntax-ns#">
   <cc:Work>
    <dc:type rdf:resource="http://purl.org/dc/dcmitype/StillImage"/>
    <dc:date>2025-11-23T18:28:37.594949</dc:date>
    <dc:format>image/svg+xml</dc:format>
    <dc:creator>
     <cc:Agent>
      <dc:title>Matplotlib v3.10.6, https://matplotlib.org/</dc:title>
     </cc:Agent>
    </dc:creator>
   </cc:Work>
  </rdf:RDF>
 </metadata>
 <defs>
  <style type="text/css">*{stroke-linejoin: round; stroke-linecap: butt}</style>
 </defs>
 <g id="figure_1">
  <g id="patch_1">
   <path d="M 0 345.6 
L 460.8 345.6 
L 460.8 0 
L 0 0 
z
" style="fill: #ffffff"/>
  </g>
  <g id="axes_1">
   <g id="patch_2">
    <path d="M 57.6 307.584 
L 414.72 307.584 
L 414.72 41.472 
L 57.6 41.472 
z
" style="fill: #ffffff"/>
   </g>
   <g id="matplotlib.axis_1">
    <g id="xtick_1">
     <g id="line2d_1">
      <defs>
       <path id="md61c369742" d="M 0 0 
L 0 3.5 
" style="stroke: #000000; stroke-width: 0.8"/>
      </defs>
      <g>
       <use xlink:href="#md61c369742" x="73.832727" y="307.584" style="stroke: #000000; stroke-width: 0.8"/>
      </g>
     </g>
     <g id="text_1">
      <!-- 0 -->
      <g transform="translate(70.651477 322.182437) scale(0.1 -0.1)">
       <defs>
        <path id="DejaVuSans-30" d="M 2034 4250 
Q 1547 4250 1301 3770 
Q 1056 3291 1056 2328 
Q 1056 1369 1301 889 
Q 1547 409 2034 409 
Q 2525 409 2770 889 
Q 3016 1369 3016 2328 
Q 3016 3291 2770 3770 
Q 2525 4250 2034 4250 
z
M 2034 4750 
Q 2819 4750 3233 4129 
Q 3647 3509 3647 2328 
Q 3647 1150 3233 529 
Q 2819 -91 2034 -91 
Q 1250 -91 836 529 
Q 422 1150 422 2328 
Q 422 3509 836 4129 
Q 1250 4750 2034 4750 
z
" transform="scale(0.015625)"/>
       </defs>
       <use xlink:href="#DejaVuSans-30"/>
      </g>
     </g>
    </g>
    <g id="xtick_2">
     <g id="line2d_2">
      <g>
       <use xlink:href="#md61c369742" x="138.828632" y="307.584" style="stroke: #000000; stroke-width: 0.8"/>
      </g>
     </g>
     <g id="text_2">
      <!-- 200 -->
      <g transform="translate(129.284882 322.182437) scale(0.1 -0.1)">
       <defs>
        <path id="DejaVuSans-32" d="M 1228 531 
L 3431 531 
L 3431 0 
L 469 0 
L 469 531 
Q 828 903 1448 1529 
Q 2069 2156 2228 2338 
Q 2531 2678 2651 2914 
Q 2772 3150 2772 3378 
Q 2772 3750 2511 3984 
Q 2250 4219 1831 4219 
Q 1534 4219 1204 4116 
Q 875 4013 500 3803 
L 500 4441 
Q 881 4594 1212 4672 
Q 1544 4750 1819 4750 
Q 2544 4750 2975 4387 
Q 3406 4025 3406 3419 
Q 3406 3131 3298 2873 
Q 3191 2616 2906 2266 
Q 2828 2175 2409 1742 
Q 1991 1309 1228 531 
z
" transform="scale(0.015625)"/>
       </defs>
       <use xlink:href="#DejaVuSans-32"/>
       <use xlink:href="#DejaVuSans-30" transform="translate(63.623047 0)"/>
       <use xlink:href="#DejaVuSans-30" transform="translate(127.246094 0)"/>
      </g>
     </g>
    </g>
    <g id="xtick_3">
     <g id="line2d_3">
      <g>
       <use xlink:href="#md61c369742" x="203.824537" y="307.584" style="stroke: #000000; stroke-width: 0.8"/>
      </g>
     </g>
     <g id="text_3">
      <!-- 400 -->
      <g transform="translate(194.280787 322.182437) scale(0.1 -0.1)">
       <defs>
        <path id="DejaVuSans-34" d="M 2419 4116 
L 825 1625 
L 2419 1625 
L 2419 4116 
z
M 2253 4666 
L 3047 4666 
L 3047 1625 
L 3713 1625 
L 3713 1100 
L 3047 1100 
L 3047 0 
L 2419 0 
L 2419 1100 
L 313 1100 
L 313 1709 
L 2253 4666 
z
" transform="scale(0.015625)"/>
       </defs>
       <use xlink:href="#DejaVuSans-34"/>
       <use xlink:href="#DejaVuSans-30" transform="translate(63.623047 0)"/>
       <use xlink:href="#DejaVuSans-30" transform="translate(127.246094 0)"/>
      </g>
     </g>
    </g>
    <g id="xtick_4">
     <g id="line2d_4">
      <g>
       <use xlink:href="#md61c369742" x="268.820442" y="307.584" style="stroke: #000000; stroke-width: 0.8"/>
      </g>
     </g>
     <g id="text_4">
      <!-- 600 -->
      <g transform="translate(259.276692 322.182437) scale(0.1 -0.1)">
       <defs>
        <path id="DejaVuSans-36" d="M 2113 2584 
Q 1688 2584 1439 2293 
Q 1191 2003 1191 1497 
Q 1191 994 1439 701 
Q 1688 409 2113 409 
Q 2538 409 2786 701 
Q 3034 994 3034 1497 
Q 3034 2003 2786 2293 
Q 2538 2584 2113 2584 
z
M 3366 4563 
L 3366 3988 
Q 3128 4100 2886 4159 
Q 2644 4219 2406 4219 
Q 1781 4219 1451 3797 
Q 1122 3375 1075 2522 
Q 1259 2794 1537 2939 
Q 1816 3084 2150 3084 
Q 2853 3084 3261 2657 
Q 3669 2231 3669 1497 
Q 3669 778 3244 343 
Q 2819 -91 2113 -91 
Q 1303 -91 875 529 
Q 447 1150 447 2328 
Q 447 3434 972 4092 
Q 1497 4750 2381 4750 
Q 2619 4750 2861 4703 
Q 3103 4656 3366 4563 
z
" transform="scale(0.015625)"/>
       </defs>
       <use xlink:href="#DejaVuSans-36"/>
       <use xlink:href="#DejaVuSans-30" transform="translate(63.623047 0)"/>
       <use xlink:href="#DejaVuSans-30" transform="translate(127.246094 0)"/>
      </g>
     </g>
    </g>
    <g id="xtick_5">
     <g id="line2d_5">
      <g>
       <use xlink:href="#md61c369742" x="333.816347" y="307.584" style="stroke: #000000; stroke-width: 0.8"/>
      </g>
     </g>
     <g id="text_5">
      <!-- 800 -->
      <g transform="translate(324.272597 322.182437) scale(0.1 -0.1)">
       <defs>
        <path id="DejaVuSans-38" d="M 2034 2216 
Q 1584 2216 1326 1975 
Q 1069 1734 1069 1313 
Q 1069 891 1326 650 
Q 1584 409 2034 409 
Q 2484 409 2743 651 
Q 3003 894 3003 1313 
Q 3003 1734 2745 1975 
Q 2488 2216 2034 2216 
z
M 1403 2484 
Q 997 2584 770 2862 
Q 544 3141 544 3541 
Q 544 4100 942 4425 
Q 1341 4750 2034 4750 
Q 2731 4750 3128 4425 
Q 3525 4100 3525 3541 
Q 3525 3141 3298 2862 
Q 3072 2584 2669 2484 
Q 3125 2378 3379 2068 
Q 3634 1759 3634 1313 
Q 3634 634 3220 271 
Q 2806 -91 2034 -91 
Q 1263 -91 848 271 
Q 434 634 434 1313 
Q 434 1759 690 2068 
Q 947 2378 1403 2484 
z
M 1172 3481 
Q 1172 3119 1398 2916 
Q 1625 2713 2034 2713 
Q 2441 2713 2670 2916 
Q 2900 3119 2900 3481 
Q 2900 3844 2670 4047 
Q 2441 4250 2034 4250 
Q 1625 4250 1398 4047 
Q 1172 3844 1172 3481 
z
" transform="scale(0.015625)"/>
       </defs>
       <use xlink:href="#DejaVuSans-38"/>
       <use xlink:href="#DejaVuSans-30" transform="translate(63.623047 0)"/>
       <use xlink:href="#DejaVuSans-30" transform="translate(127.246094 0)"/>
      </g>
     </g>
    </g>
    <g id="xtick_6">
     <g id="line2d_6">
      <g>
       <use xlink:href="#md61c369742" x="398.812252" y="307.584" style="stroke: #000000; stroke-width: 0.8"/>
      </g>
     </g>
     <g id="text_6">
      <!-- 1000 -->
      <g transform="translate(386.087252 322.182437) scale(0.1 -0.1)">
       <defs>
        <path id="DejaVuSans-31" d="M 794 531 
L 1825 531 
L 1825 4091 
L 703 3866 
L 703 4441 
L 1819 4666 
L 2450 4666 
L 2450 531 
L 3481 531 
L 3481 0 
L 794 0 
L 794 531 
z
" transform="scale(0.015625)"/>
       </defs>
       <use xlink:href="#DejaVuSans-31"/>
       <use xlink:href="#DejaVuSans-30" transform="translate(63.623047 0)"/>
       <use xlink:href="#DejaVuSans-30" transform="translate(127.246094 0)"/>
       <use xlink:href="#DejaVuSans-30" transform="translate(190.869141 0)"/>
      </g>
     </g>
    </g>
   </g>
   <g id="matplotlib.axis_2">
    <g id="ytick_1">
     <g id="line2d_7">
      <defs>
       <path id="m4079abc8dc" d="M 0 0 
L -3.5 0 
" style="stroke: #000000; stroke-width: 0.8"/>
      </defs>
      <g>
       <use xlink:href="#m4079abc8dc" x="57.6" y="303.921902" style="stroke: #000000; stroke-width: 0.8"/>
      </g>
     </g>
     <g id="text_7">
      <!-- −0.002 -->
      <g transform="translate(13.592188 307.721121) scale(0.1 -0.1)">
       <defs>
        <path id="DejaVuSans-2212" d="M 678 2272 
L 4684 2272 
L 4684 1741 
L 678 1741 
L 678 2272 
z
" transform="scale(0.015625)"/>
        <path id="DejaVuSans-2e" d="M 684 794 
L 1344 794 
L 1344 0 
L 684 0 
L 684 794 
z
" transform="scale(0.015625)"/>
       </defs>
       <use xlink:href="#DejaVuSans-2212"/>
       <use xlink:href="#DejaVuSans-30" transform="translate(83.789062 0)"/>
       <use xlink:href="#DejaVuSans-2e" transform="translate(147.412109 0)"/>
       <use xlink:href="#DejaVuSans-30" transform="translate(179.199219 0)"/>
       <use xlink:href="#DejaVuSans-30" transform="translate(242.822266 0)"/>
       <use xlink:href="#DejaVuSans-32" transform="translate(306.445312 0)"/>
      </g>
     </g>
    </g>
    <g id="ytick_2">
     <g id="line2d_8">
      <g>
       <use xlink:href="#m4079abc8dc" x="57.6" y="272.204466" style="stroke: #000000; stroke-width: 0.8"/>
      </g>
     </g>
     <g id="text_8">
      <!-- 0.000 -->
      <g transform="translate(21.971875 276.003684) scale(0.1 -0.1)">
       <use xlink:href="#DejaVuSans-30"/>
       <use xlink:href="#DejaVuSans-2e" transform="translate(63.623047 0)"/>
       <use xlink:href="#DejaVuSans-30" transform="translate(95.410156 0)"/>
       <use xlink:href="#DejaVuSans-30" transform="translate(159.033203 0)"/>
       <use xlink:href="#DejaVuSans-30" transform="translate(222.65625 0)"/>
      </g>
     </g>
    </g>
    <g id="ytick_3">
     <g id="line2d_9">
      <g>
       <use xlink:href="#m4079abc8dc" x="57.6" y="240.487029" style="stroke: #000000; stroke-width: 0.8"/>
      </g>
     </g>
     <g id="text_9">
      <!-- 0.002 -->
      <g transform="translate(21.971875 244.286248) scale(0.1 -0.1)">
       <use xlink:href="#DejaVuSans-30"/>
       <use xlink:href="#DejaVuSans-2e" transform="translate(63.623047 0)"/>
       <use xlink:href="#DejaVuSans-30" transform="translate(95.410156 0)"/>
       <use xlink:href="#DejaVuSans-30" transform="translate(159.033203 0)"/>
       <use xlink:href="#DejaVuSans-32" transform="translate(222.65625 0)"/>
      </g>
     </g>
    </g>
    <g id="ytick_4">
     <g id="line2d_10">
      <g>
       <use xlink:href="#m4079abc8dc" x="57.6" y="208.769593" style="stroke: #000000; stroke-width: 0.8"/>
      </g>
     </g>
     <g id="text_10">
      <!-- 0.004 -->
      <g transform="translate(21.971875 212.568812) scale(0.1 -0.1)">
       <use xlink:href="#DejaVuSans-30"/>
       <use xlink:href="#DejaVuSans-2e" transform="translate(63.623047 0)"/>
       <use xlink:href="#DejaVuSans-30" transform="translate(95.410156 0)"/>
       <use xlink:href="#DejaVuSans-30" transform="translate(159.033203 0)"/>
       <use xlink:href="#DejaVuSans-34" transform="translate(222.65625 0)"/>
      </g>
     </g>
    </g>
    <g id="ytick_5">
     <g id="line2d_11">
      <g>
       <use xlink:href="#m4079abc8dc" x="57.6" y="177.052157" style="stroke: #000000; stroke-width: 0.8"/>
      </g>
     </g>
     <g id="text_11">
      <!-- 0.006 -->
      <g transform="translate(21.971875 180.851375) scale(0.1 -0.1)">
       <use xlink:href="#DejaVuSans-30"/>
       <use xlink:href="#DejaVuSans-2e" transform="translate(63.623047 0)"/>
       <use xlink:href="#DejaVuSans-30" transform="translate(95.410156 0)"/>
       <use xlink:href="#DejaVuSans-30" transform="translate(159.033203 0)"/>
       <use xlink:href="#DejaVuSans-36" transform="translate(222.65625 0)"/>
      </g>
     </g>
    </g>
    <g id="ytick_6">
     <g id="line2d_12">
      <g>
       <use xlink:href="#m4079abc8dc" x="57.6" y="145.33472" style="stroke: #000000; stroke-width: 0.8"/>
      </g>
     </g>
     <g id="text_12">
      <!-- 0.008 -->
      <g transform="translate(21.971875 149.133939) scale(0.1 -0.1)">
       <use xlink:href="#DejaVuSans-30"/>
       <use xlink:href="#DejaVuSans-2e" transform="translate(63.623047 0)"/>
       <use xlink:href="#DejaVuSans-30" transform="translate(95.410156 0)"/>
       <use xlink:href="#DejaVuSans-30" transform="translate(159.033203 0)"/>
       <use xlink:href="#DejaVuSans-38" transform="translate(222.65625 0)"/>
      </g>
     </g>
    </g>
    <g id="ytick_7">
     <g id="line2d_13">
      <g>
       <use xlink:href="#m4079abc8dc" x="57.6" y="113.617284" style="stroke: #000000; stroke-width: 0.8"/>
      </g>
     </g>
     <g id="text_13">
      <!-- 0.010 -->
      <g transform="translate(21.971875 117.416503) scale(0.1 -0.1)">
       <use xlink:href="#DejaVuSans-30"/>
       <use xlink:href="#DejaVuSans-2e" transform="translate(63.623047 0)"/>
       <use xlink:href="#DejaVuSans-30" transform="translate(95.410156 0)"/>
       <use xlink:href="#DejaVuSans-31" transform="translate(159.033203 0)"/>
       <use xlink:href="#DejaVuSans-30" transform="translate(222.65625 0)"/>
      </g>
     </g>
    </g>
    <g id="ytick_8">
     <g id="line2d_14">
      <g>
       <use xlink:href="#m4079abc8dc" x="57.6" y="81.899848" style="stroke: #000000; stroke-width: 0.8"/>
      </g>
     </g>
     <g id="text_14">
      <!-- 0.012 -->
      <g transform="translate(21.971875 85.699066) scale(0.1 -0.1)">
       <use xlink:href="#DejaVuSans-30"/>
       <use xlink:href="#DejaVuSans-2e" transform="translate(63.623047 0)"/>
       <use xlink:href="#DejaVuSans-30" transform="translate(95.410156 0)"/>
       <use xlink:href="#DejaVuSans-31" transform="translate(159.033203 0)"/>
       <use xlink:href="#DejaVuSans-32" transform="translate(222.65625 0)"/>
      </g>
     </g>
    </g>
    <g id="ytick_9">
     <g id="line2d_15">
      <g>
       <use xlink:href="#m4079abc8dc" x="57.6" y="50.182411" style="stroke: #000000; stroke-width: 0.8"/>
      </g>
     </g>
     <g id="text_15">
      <!-- 0.014 -->
      <g transform="translate(21.971875 53.98163) scale(0.1 -0.1)">
       <use xlink:href="#DejaVuSans-30"/>
       <use xlink:href="#DejaVuSans-2e" transform="translate(63.623047 0)"/>
       <use xlink:href="#DejaVuSans-30" transform="translate(95.410156 0)"/>
       <use xlink:href="#DejaVuSans-31" transform="translate(159.033203 0)"/>
       <use xlink:href="#DejaVuSans-34" transform="translate(222.65625 0)"/>
      </g>
     </g>
    </g>
   </g>
   <g id="line2d_16">
    <path d="M 73.832727 246.375673 
L 74.157707 270.409444 
L 74.482686 246.342912 
L 74.807666 240.711762 
L 75.132645 264.132158 
L 75.457625 264.55782 
L 75.782604 280.737057 
L 76.107584 274.910859 
L 76.432563 277.977336 
L 76.757543 254.113211 
L 77.082523 258.844079 
L 77.407502 260.945906 
L 77.732482 244.186635 
L 78.057461 268.153004 
L 78.382441 261.679502 
L 78.70742 252.921822 
L 79.0324 265.542961 
L 79.357379 265.776569 
L 79.682359 270.347728 
L 80.007338 249.939719 
L 80.332318 271.118763 
L 80.657297 249.825272 
L 80.982277 267.149809 
L 81.307256 249.680063 
L 81.632236 260.311723 
L 82.282195 235.483637 
L 83.257133 295.488 
L 83.907093 259.075669 
L 84.232072 245.323005 
L 84.557052 241.81137 
L 84.882031 257.34066 
L 85.207011 238.980289 
L 85.53199 253.901924 
L 86.181949 247.536081 
L 86.506929 262.817795 
L 86.831908 251.222052 
L 87.156888 234.001275 
L 87.481867 234.553466 
L 87.806847 244.825418 
L 88.131826 263.42184 
L 88.456806 251.774421 
L 88.781785 233.152935 
L 89.106765 246.301996 
L 89.431744 244.211258 
L 89.756724 250.941374 
L 90.081704 261.344418 
L 90.406683 245.270765 
L 90.731663 239.560093 
L 91.056642 240.53677 
L 91.381622 237.855279 
L 91.706601 244.152205 
L 92.031581 234.908296 
L 92.35656 220.026435 
L 92.68154 266.245867 
L 93.331499 244.41481 
L 93.656478 225.724897 
L 93.981458 214.132722 
L 94.306437 242.147556 
L 94.631417 215.528291 
L 94.956396 229.195104 
L 95.281376 217.535857 
L 95.606355 217.18322 
L 95.931335 196.575413 
L 96.256314 222.052483 
L 96.581294 204.415021 
L 96.906274 223.298525 
L 97.231253 231.285861 
L 97.556233 208.702911 
L 97.881212 212.615383 
L 98.206192 229.960175 
L 98.531171 220.650795 
L 98.856151 215.185511 
L 99.18113 230.567715 
L 99.50611 212.444896 
L 99.831089 225.282033 
L 100.156069 197.203235 
L 100.481048 207.314436 
L 100.806028 206.127097 
L 101.131007 180.69312 
L 101.455987 171.396405 
L 101.780966 155.844488 
L 102.105946 160.933953 
L 102.430925 150.568569 
L 103.080885 159.329441 
L 103.730844 188.784168 
L 104.055823 179.760046 
L 104.380803 137.754431 
L 104.705782 164.193138 
L 105.030762 180.843917 
L 105.355741 176.659995 
L 105.680721 175.938999 
L 106.0057 210.077248 
L 106.33068 219.610996 
L 106.655659 212.567882 
L 106.980639 198.6 
L 107.305618 196.396821 
L 107.630598 187.544141 
L 107.955577 190.359044 
L 108.605536 211.219583 
L 108.930516 184.803445 
L 109.255495 192.030162 
L 109.580475 182.02119 
L 109.905455 200.903993 
L 110.230434 209.251398 
L 110.555414 206.478013 
L 110.880393 186.980592 
L 111.205373 193.18818 
L 111.530352 196.53718 
L 111.855332 188.703771 
L 112.180311 187.902683 
L 112.505291 192.196323 
L 112.83027 180.028825 
L 113.15525 193.39065 
L 113.480229 193.64331 
L 113.805209 194.975628 
L 114.130188 174.097696 
L 114.455168 181.899579 
L 114.780147 151.541503 
L 115.105127 179.272901 
L 115.430106 158.667163 
L 115.755086 160.62303 
L 116.080066 138.646463 
L 116.405045 145.732747 
L 116.730025 119.603877 
L 117.379984 144.636384 
L 117.704963 140.898229 
L 118.029943 141.92259 
L 118.354922 162.682048 
L 118.679902 172.789462 
L 119.004881 160.843819 
L 119.329861 177.449474 
L 119.65484 183.252869 
L 119.97982 198.238493 
L 120.304799 187.320976 
L 120.629779 185.760922 
L 120.954758 177.655944 
L 121.279738 175.75697 
L 121.604717 162.026947 
L 122.254676 177.06513 
L 122.579656 176.461805 
L 122.904636 188.391473 
L 123.229615 190.222897 
L 123.554595 194.190541 
L 123.879574 181.876257 
L 124.204554 177.750413 
L 124.854513 194.258865 
L 125.179492 175.033739 
L 125.504472 199.321557 
L 125.829451 197.316184 
L 126.154431 204.478906 
L 126.47941 178.023874 
L 127.454349 195.772902 
L 127.779328 208.275644 
L 128.104308 201.149964 
L 128.429287 199.2963 
L 128.754267 174.069195 
L 129.079247 163.888892 
L 129.404226 172.074108 
L 129.729206 183.979667 
L 130.054185 151.379193 
L 130.704144 189.685004 
L 131.029124 198.997898 
L 131.354103 184.003731 
L 132.004062 230.898866 
L 132.329042 206.970272 
L 132.654021 199.867496 
L 132.979001 183.483293 
L 133.30398 195.447566 
L 133.62896 183.335461 
L 133.953939 183.113636 
L 134.278919 197.513693 
L 134.603898 202.881422 
L 134.928878 216.404115 
L 135.253857 206.062904 
L 135.578837 189.957982 
L 135.903817 208.735517 
L 136.228796 201.959123 
L 136.553776 158.151758 
L 136.878755 158.470039 
L 137.203735 152.966803 
L 137.528714 169.783283 
L 137.853694 174.035129 
L 138.178673 191.665867 
L 138.503653 166.360331 
L 138.828632 193.173337 
L 139.153612 185.008565 
L 139.478591 168.727594 
L 139.803571 176.349742 
L 140.12855 180.499372 
L 140.45353 177.717872 
L 140.778509 152.392757 
L 141.103489 195.923251 
L 141.428468 210.155561 
L 142.078428 181.456689 
L 142.403407 144.380789 
L 142.728387 146.731196 
L 143.378346 180.67413 
L 143.703325 151.298823 
L 144.028305 132.137852 
L 144.353284 143.480933 
L 144.678264 143.241423 
L 145.003243 153.043655 
L 145.328223 134.14994 
L 145.653202 156.577116 
L 145.978182 159.837277 
L 146.303161 164.847014 
L 146.628141 156.002965 
L 146.95312 118.869643 
L 147.2781 129.464037 
L 147.603079 122.756228 
L 147.928059 134.241884 
L 148.253038 154.872225 
L 148.578018 151.300805 
L 148.902998 153.053983 
L 149.227977 151.752435 
L 149.552957 147.295543 
L 149.877936 150.103174 
L 150.202916 177.785519 
L 150.527895 141.171987 
L 150.852875 139.528528 
L 151.177854 138.487924 
L 152.152793 180.281467 
L 152.477772 181.467161 
L 152.802752 191.902838 
L 153.127731 180.365093 
L 153.452711 161.109117 
L 153.77769 156.311805 
L 154.10267 143.590874 
L 154.427649 152.482737 
L 154.752629 136.880325 
L 155.077609 136.422751 
L 155.727568 102.915221 
L 156.052547 120.116632 
L 156.702506 100.296872 
L 157.027486 91.894911 
L 157.352465 87.360538 
L 158.002424 133.733053 
L 158.327404 130.720218 
L 158.652383 153.173334 
L 158.977363 142.320653 
L 159.302342 148.366841 
L 159.627322 161.585424 
L 159.952301 134.488425 
L 160.277281 136.305128 
L 160.60226 154.418727 
L 161.577199 165.065727 
L 161.902179 160.835073 
L 162.227158 165.222849 
L 162.552138 165.874863 
L 163.202097 127.786296 
L 163.852056 168.399799 
L 164.177035 143.465585 
L 164.502015 127.53174 
L 164.826994 118.999036 
L 165.151974 123.6997 
L 165.801933 128.238413 
L 166.126912 116.090111 
L 166.451892 113.661804 
L 166.776871 142.367833 
L 167.101851 140.286034 
L 167.75181 82.665871 
L 168.07679 128.291773 
L 168.726749 108.601932 
L 169.376708 112.932169 
L 169.701687 74.393589 
L 170.026667 87.440081 
L 170.351646 86.512437 
L 170.676626 82.081096 
L 171.001605 92.097226 
L 171.326585 74.888647 
L 171.651564 77.88355 
L 171.976544 60.907069 
L 172.301523 92.983524 
L 172.626503 65.880731 
L 172.951482 93.228697 
L 173.276462 90.969002 
L 173.601441 109.978298 
L 173.926421 84.825158 
L 174.2514 97.599569 
L 174.57638 68.325883 
L 174.90136 80.609598 
L 175.226339 87.853034 
L 175.551319 87.475416 
L 175.876298 79.76337 
L 176.201278 85.512216 
L 176.526257 63.036236 
L 176.851237 53.568 
L 177.176216 75.81185 
L 177.501196 67.363458 
L 177.826175 100.828513 
L 178.151155 106.425283 
L 178.476134 119.673827 
L 178.801114 119.453243 
L 179.451073 109.974725 
L 179.776052 108.357521 
L 180.101032 95.632453 
L 180.426011 109.3784 
L 181.075971 63.033585 
L 181.40095 75.807889 
L 181.72593 75.604896 
L 182.050909 71.737339 
L 182.375889 82.93353 
L 182.700868 89.048073 
L 183.025848 108.871221 
L 183.350827 104.151197 
L 183.675807 108.143911 
L 184.000786 100.511973 
L 184.325766 101.438456 
L 184.650745 132.467719 
L 184.975725 127.435266 
L 185.300704 115.663673 
L 185.625684 124.701152 
L 185.950663 111.93019 
L 186.275643 156.096649 
L 186.600622 141.668072 
L 186.925602 162.621803 
L 187.250581 151.023039 
L 187.575561 156.195461 
L 187.900541 172.877423 
L 188.22552 180.721975 
L 188.5505 170.389509 
L 188.875479 183.363793 
L 189.200459 180.542368 
L 189.525438 171.978056 
L 189.850418 177.403549 
L 190.175397 170.454746 
L 190.500377 171.536621 
L 190.825356 182.539386 
L 191.150336 157.365395 
L 191.475315 165.600355 
L 191.800295 166.722156 
L 192.125274 177.67459 
L 192.450254 171.861033 
L 192.775233 160.254498 
L 193.100213 176.529134 
L 193.425192 185.558483 
L 193.750172 149.895042 
L 194.075152 143.444075 
L 194.400131 116.440436 
L 195.05009 140.66614 
L 195.37507 128.913128 
L 195.700049 133.763445 
L 196.025029 129.4115 
L 196.350008 120.752619 
L 196.674988 143.793163 
L 196.999967 149.15391 
L 197.324947 162.133244 
L 197.974906 179.118198 
L 198.299885 139.945213 
L 198.624865 143.298017 
L 198.949844 165.212162 
L 199.599803 147.594741 
L 199.924783 176.896967 
L 200.249762 175.216179 
L 200.574742 165.849021 
L 200.899722 166.257439 
L 201.224701 172.458829 
L 201.549681 195.061652 
L 201.87466 197.073015 
L 202.19964 193.351934 
L 202.524619 163.85812 
L 202.849599 177.761254 
L 203.174578 155.507355 
L 203.499558 152.030683 
L 203.824537 179.301496 
L 204.149517 155.959262 
L 204.474496 145.273486 
L 204.799476 180.167653 
L 205.124455 161.355804 
L 205.449435 183.264857 
L 205.774414 212.704446 
L 206.099394 196.457975 
L 206.424373 186.024569 
L 206.749353 181.670887 
L 207.074333 198.907428 
L 207.399312 233.048108 
L 207.724292 223.614691 
L 208.049271 236.247029 
L 208.374251 241.777841 
L 208.69923 203.383954 
L 209.02421 195.54764 
L 209.349189 204.328041 
L 209.674169 218.841869 
L 209.999148 188.073341 
L 210.649107 165.866384 
L 210.974087 149.509905 
L 211.299066 150.044846 
L 211.624046 142.420675 
L 211.949025 165.008215 
L 212.274005 143.744146 
L 212.598984 161.598318 
L 212.923964 137.943294 
L 213.248943 146.297804 
L 213.573923 147.441346 
L 213.898903 169.036893 
L 214.223882 164.106932 
L 214.548862 156.412252 
L 214.873841 136.804186 
L 215.198821 139.508901 
L 215.84878 105.314069 
L 216.173759 129.891354 
L 216.498739 136.967462 
L 217.148698 158.249926 
L 217.473677 140.106665 
L 217.798657 133.989523 
L 218.123636 161.126169 
L 218.448616 176.04966 
L 219.098575 138.492356 
L 219.423554 136.068762 
L 219.748534 127.351853 
L 220.398493 174.215229 
L 220.723473 148.934576 
L 221.048452 167.750278 
L 221.373432 158.60995 
L 221.698411 145.780151 
L 222.023391 142.290646 
L 222.34837 134.092767 
L 222.67335 144.852615 
L 222.998329 138.125145 
L 223.323309 159.660237 
L 223.648288 148.590675 
L 223.973268 155.730521 
L 224.298247 171.549992 
L 224.623227 146.026556 
L 225.273186 187.352445 
L 225.598165 179.578269 
L 225.923145 182.271215 
L 226.248124 163.032108 
L 226.573104 215.872034 
L 226.898084 197.703686 
L 227.223063 215.783523 
L 227.548043 213.257396 
L 227.873022 232.598832 
L 228.198002 212.979283 
L 228.522981 203.682777 
L 229.17294 195.102992 
L 229.49792 210.836334 
L 229.822899 219.489606 
L 230.147879 212.879684 
L 230.472858 231.892412 
L 230.797838 238.527939 
L 231.122817 206.460637 
L 231.447797 213.964245 
L 231.772776 217.243156 
L 232.097756 225.513745 
L 232.422735 191.163537 
L 232.747715 181.862943 
L 233.722654 197.749798 
L 234.047633 212.886325 
L 234.372613 182.716831 
L 234.697592 211.542946 
L 235.022572 199.73105 
L 235.347551 202.136693 
L 235.672531 198.062804 
L 235.99751 187.907079 
L 236.32249 158.712169 
L 236.647469 184.512083 
L 236.972449 172.717481 
L 237.297428 168.289851 
L 237.622408 178.895119 
L 237.947387 208.519019 
L 238.272367 207.581533 
L 238.597346 180.27977 
L 238.922326 193.047027 
L 239.247305 187.438529 
L 239.572285 168.864953 
L 239.897265 137.454806 
L 240.222244 154.549299 
L 240.547224 159.748615 
L 240.872203 178.799703 
L 241.197183 164.559579 
L 241.522162 180.716251 
L 241.847142 152.547233 
L 242.172121 144.120422 
L 242.497101 150.419192 
L 242.82208 181.118581 
L 243.14706 177.257381 
L 243.472039 150.081071 
L 243.797019 169.00333 
L 244.121998 180.917954 
L 244.446978 182.969169 
L 244.771957 201.67334 
L 245.096937 172.381683 
L 245.421916 176.396152 
L 245.746896 169.434163 
L 246.071876 187.331803 
L 246.721835 161.086979 
L 247.046814 173.745018 
L 247.371794 204.668802 
L 247.696773 206.415118 
L 248.021753 180.068308 
L 248.346732 168.012609 
L 248.671712 143.431703 
L 248.996691 160.326869 
L 249.321671 166.303038 
L 249.64665 199.443316 
L 249.97163 171.802953 
L 250.296609 179.917029 
L 250.946568 222.175974 
L 251.271548 219.46661 
L 251.596527 224.179176 
L 251.921507 240.966064 
L 252.896446 229.663629 
L 253.221425 252.006857 
L 253.871384 214.034736 
L 254.196364 213.586939 
L 254.521343 202.651254 
L 255.171302 221.195511 
L 255.496282 201.230148 
L 255.821261 210.286583 
L 256.146241 199.337004 
L 256.47122 208.583309 
L 256.7962 212.608274 
L 257.121179 196.375656 
L 257.446159 196.358188 
L 257.771138 201.476368 
L 258.096118 168.787262 
L 258.421097 182.763146 
L 258.746077 159.289164 
L 259.071057 163.815288 
L 259.396036 186.038666 
L 260.045995 203.097761 
L 260.370975 231.078141 
L 260.695954 237.712831 
L 261.020934 238.363097 
L 261.345913 248.524408 
L 261.670893 239.36943 
L 261.995872 235.451103 
L 262.320852 239.301982 
L 262.645831 222.286508 
L 263.29579 202.454625 
L 263.62077 217.751148 
L 263.945749 218.215925 
L 264.270729 197.877649 
L 264.595708 193.751415 
L 264.920688 178.350187 
L 265.245667 181.667654 
L 265.570647 202.854443 
L 265.895627 193.495279 
L 266.220606 204.014768 
L 266.545586 226.236508 
L 267.195545 180.471728 
L 267.520524 194.669011 
L 267.845504 172.07159 
L 268.170483 168.856205 
L 268.495463 153.858687 
L 268.820442 154.132296 
L 269.145422 136.718079 
L 269.470401 134.358172 
L 270.12036 164.717576 
L 270.44534 164.046131 
L 270.770319 129.630607 
L 271.095299 162.72586 
L 271.420278 175.372505 
L 271.745258 175.996702 
L 272.070238 175.29475 
L 272.395217 172.199977 
L 272.720197 162.230863 
L 273.045176 163.359975 
L 273.370156 167.573446 
L 273.695135 160.940134 
L 274.020115 174.391758 
L 274.345094 171.90721 
L 274.670074 158.33213 
L 274.995053 159.97996 
L 275.320033 164.128614 
L 275.645012 183.644397 
L 275.969992 188.956929 
L 276.294971 180.909074 
L 276.619951 178.735763 
L 276.94493 188.603242 
L 277.26991 221.569983 
L 277.919869 195.217326 
L 278.244848 201.711376 
L 278.569828 199.581912 
L 278.894808 212.635405 
L 279.219787 207.24637 
L 279.869746 182.382827 
L 280.194726 191.998427 
L 280.519705 173.35974 
L 280.844685 186.465628 
L 281.169664 176.58815 
L 281.494644 181.692101 
L 281.819623 192.928877 
L 282.144603 211.836751 
L 282.469582 211.041809 
L 282.794562 185.515487 
L 283.119541 173.988834 
L 283.444521 174.377456 
L 283.7695 159.477704 
L 284.09448 133.107593 
L 284.419459 148.944441 
L 284.744439 139.958394 
L 285.069419 160.830659 
L 285.394398 162.250576 
L 285.719378 164.722656 
L 286.044357 160.195816 
L 286.369337 174.152169 
L 286.694316 196.257263 
L 287.019296 207.693515 
L 287.344275 196.627491 
L 287.669255 197.278446 
L 287.994234 209.37816 
L 288.319214 207.201426 
L 288.644193 191.361161 
L 288.969173 210.895229 
L 289.294152 205.014592 
L 289.944111 181.809328 
L 290.269091 184.310071 
L 290.59407 203.767564 
L 290.91905 206.580608 
L 291.244029 201.186371 
L 291.569009 224.705052 
L 291.893989 218.538541 
L 292.218968 183.354512 
L 292.543948 185.297855 
L 292.868927 208.059548 
L 293.193907 210.372473 
L 293.518886 247.124596 
L 293.843866 234.599787 
L 294.168845 235.126266 
L 294.493825 231.733445 
L 294.818804 238.048606 
L 295.143784 232.893343 
L 295.468763 222.465172 
L 295.793743 216.785016 
L 296.118722 217.92832 
L 296.443702 222.230823 
L 296.768681 229.248776 
L 297.093661 216.841918 
L 297.41864 223.581496 
L 297.74362 221.290822 
L 298.0686 227.050973 
L 298.718559 214.238892 
L 299.043538 214.835178 
L 299.368518 237.636683 
L 299.693497 242.932393 
L 300.018477 235.336579 
L 300.668436 245.089018 
L 300.993415 236.801146 
L 301.318395 242.747513 
L 301.643374 260.227174 
L 301.968354 266.892535 
L 302.293333 284.48538 
L 302.618313 256.089238 
L 303.593251 205.663336 
L 303.918231 208.374661 
L 304.24321 208.486787 
L 304.56819 210.566339 
L 304.89317 205.694864 
L 305.218149 191.784048 
L 305.543129 192.162851 
L 305.868108 197.375353 
L 306.193088 206.392061 
L 306.518067 209.881474 
L 306.843047 242.091216 
L 307.168026 254.32318 
L 307.493006 249.200692 
L 307.817985 245.878897 
L 308.142965 233.350578 
L 308.467944 253.455483 
L 308.792924 242.107734 
L 309.117903 257.919278 
L 309.442883 264.232561 
L 309.767862 274.990913 
L 310.092842 266.849171 
L 310.417821 276.185856 
L 310.742801 277.033544 
L 311.067781 279.40555 
L 311.39276 264.710393 
L 311.71774 259.989804 
L 312.042719 264.088433 
L 312.367699 241.640471 
L 312.692678 256.815851 
L 313.017658 234.507618 
L 313.342637 238.846306 
L 313.667617 255.442221 
L 314.317576 222.470819 
L 314.642555 226.322918 
L 315.292514 219.19311 
L 315.617494 207.770711 
L 315.942473 203.814533 
L 316.267453 214.150813 
L 316.592432 209.019904 
L 316.917412 195.346984 
L 317.242391 192.988292 
L 317.567371 204.700709 
L 317.892351 227.794137 
L 318.21733 209.382815 
L 318.54231 212.934939 
L 318.867289 221.040917 
L 319.192269 238.595199 
L 319.517248 225.938475 
L 319.842228 237.038925 
L 320.167207 220.683646 
L 320.492187 215.174048 
L 320.817166 224.105031 
L 321.142146 201.673644 
L 321.467125 193.874988 
L 321.792105 210.624581 
L 322.117084 203.633643 
L 322.442064 186.124068 
L 322.767043 186.114769 
L 323.092023 191.143195 
L 323.417002 206.887022 
L 323.741982 181.592174 
L 324.066962 191.444337 
L 324.391941 193.139785 
L 324.716921 218.935068 
L 325.0419 217.430626 
L 325.36688 198.169834 
L 325.691859 207.922204 
L 326.341818 180.993505 
L 326.666798 179.904453 
L 326.991777 190.18176 
L 327.316757 180.320281 
L 327.641736 141.173703 
L 327.966716 145.134044 
L 328.941654 178.854531 
L 329.266634 148.926588 
L 329.916593 159.91351 
L 330.241572 137.265904 
L 330.566552 135.702918 
L 330.891532 147.044715 
L 331.216511 132.667463 
L 331.541491 141.26931 
L 331.86647 138.937995 
L 332.19145 141.585191 
L 332.516429 166.195237 
L 332.841409 154.220191 
L 333.166388 136.027557 
L 333.491368 157.461577 
L 333.816347 141.91305 
L 334.141327 171.860587 
L 334.466306 187.818204 
L 334.791286 210.08178 
L 335.116265 205.750592 
L 335.441245 173.903886 
L 335.766224 202.539139 
L 336.091204 191.631065 
L 336.416183 187.24534 
L 336.741163 192.759357 
L 337.066143 215.229468 
L 337.391122 193.133202 
L 338.041081 170.840075 
L 338.366061 159.139335 
L 338.69104 153.126379 
L 339.01602 154.418409 
L 339.340999 176.463184 
L 339.665979 181.622817 
L 339.990958 199.010769 
L 340.315938 181.592395 
L 340.640917 174.719033 
L 340.965897 194.229932 
L 341.290876 199.607823 
L 341.615856 185.950573 
L 341.940835 198.10391 
L 342.265815 200.091366 
L 342.590794 156.925529 
L 342.915774 141.649516 
L 343.240753 144.324329 
L 343.565733 160.641197 
L 343.890713 137.022648 
L 344.215692 163.17695 
L 344.865651 124.154452 
L 345.190631 121.659872 
L 345.51561 167.679661 
L 345.84059 153.279791 
L 346.490549 156.129351 
L 347.140508 185.181472 
L 347.465487 171.024271 
L 347.790467 181.363918 
L 348.115446 164.020282 
L 348.440426 197.521634 
L 348.765405 196.265902 
L 349.090385 207.751112 
L 349.415364 202.606081 
L 349.740344 204.45975 
L 350.065324 180.685321 
L 350.390303 189.543477 
L 350.715283 213.637371 
L 351.040262 184.562951 
L 351.365242 183.307205 
L 351.690221 164.493376 
L 352.015201 130.297429 
L 352.34018 158.596607 
L 352.66516 162.824031 
L 352.990139 137.324102 
L 353.315119 151.518987 
L 353.640098 155.454753 
L 353.965078 138.769048 
L 354.615037 166.212065 
L 354.940016 149.588621 
L 355.264996 169.637036 
L 355.589975 148.840746 
L 355.914955 135.247327 
L 356.564914 164.404073 
L 356.889894 163.20731 
L 357.214873 169.409781 
L 357.539853 161.591717 
L 357.864832 148.82914 
L 358.189812 172.333844 
L 358.514791 168.929742 
L 358.839771 160.631889 
L 359.16475 161.282528 
L 359.48973 154.082102 
L 359.814709 157.404168 
L 360.139689 171.370813 
L 360.464668 178.829673 
L 360.789648 192.924437 
L 361.114627 185.069235 
L 361.439607 195.063759 
L 361.764586 192.667487 
L 362.089566 204.582071 
L 362.414545 184.959424 
L 362.739525 175.810939 
L 363.064505 153.633623 
L 363.389484 166.859225 
L 363.714464 160.79628 
L 364.039443 187.324059 
L 364.364423 143.319545 
L 365.014382 165.302673 
L 365.664341 132.927023 
L 365.98932 134.960211 
L 366.3143 132.632653 
L 366.639279 175.750518 
L 366.964259 138.140918 
L 367.289238 143.900001 
L 367.614218 160.420336 
L 367.939197 158.798341 
L 368.264177 163.630553 
L 368.589156 155.728115 
L 368.914136 174.817602 
L 369.239115 168.221756 
L 369.564095 205.255001 
L 369.889075 171.521012 
L 370.214054 216.212391 
L 370.539034 187.794128 
L 370.864013 192.829533 
L 371.188993 213.171382 
L 371.513972 181.994041 
L 371.838952 175.280757 
L 372.163931 203.997995 
L 372.488911 200.957233 
L 372.81389 226.707304 
L 373.13887 208.388694 
L 373.463849 209.491796 
L 373.788829 227.469256 
L 374.113808 195.679655 
L 374.438788 213.521822 
L 374.763767 243.882532 
L 375.088747 235.793965 
L 375.413726 232.370264 
L 375.738706 234.763559 
L 376.063686 236.21053 
L 376.388665 234.156383 
L 376.713645 274.519566 
L 377.038624 262.396541 
L 377.363604 256.77036 
L 377.688583 263.907745 
L 378.338542 239.985265 
L 378.663522 238.364295 
L 378.988501 224.251771 
L 379.313481 241.460436 
L 379.63846 228.700428 
L 379.96344 237.425985 
L 380.288419 222.362267 
L 380.613399 237.892848 
L 381.263358 195.820045 
L 381.588337 206.709526 
L 381.913317 187.009556 
L 382.238296 190.768599 
L 382.563276 162.251677 
L 382.888256 174.637168 
L 383.213235 182.296412 
L 383.863194 169.939822 
L 384.513153 209.792149 
L 385.488092 165.931416 
L 385.813071 157.957761 
L 386.138051 171.620258 
L 386.46303 158.939959 
L 386.78801 167.578025 
L 387.112989 168.696125 
L 387.437969 184.878774 
L 387.762948 184.592279 
L 388.087928 192.8724 
L 388.737887 235.542639 
L 389.387846 225.563105 
L 389.712826 248.722669 
L 390.037805 216.566685 
L 390.362785 218.345576 
L 390.687764 235.365554 
L 391.012744 210.933876 
L 391.337723 202.833458 
L 391.662703 229.439531 
L 391.987682 241.274722 
L 392.312662 237.967037 
L 392.637641 237.479439 
L 393.2876 211.204296 
L 393.61258 178.934045 
L 393.937559 191.538602 
L 394.262539 227.745358 
L 394.587518 231.187724 
L 394.912498 236.315223 
L 395.237477 221.498003 
L 395.562457 234.968373 
L 395.887437 216.45967 
L 396.212416 215.002019 
L 396.537396 187.604229 
L 396.862375 171.624433 
L 397.187355 216.386934 
L 397.512334 211.254216 
L 397.837314 223.826282 
L 398.162293 226.302434 
L 398.487273 241.458848 
L 398.487273 241.458848 
" clip-path="url(#pb12e7546e2)" style="fill: none; stroke: #1f77b4; stroke-width: 1.5; stroke-linecap: square"/>
   </g>
   <g id="patch_3">
    <path d="M 57.6 307.584 
L 57.6 41.472 
" style="fill: none; stroke: #000000; stroke-width: 0.8; stroke-linejoin: miter; stroke-linecap: square"/>
   </g>
   <g id="patch_4">
    <path d="M 414.72 307.584 
L 414.72 41.472 
" style="fill: none; stroke: #000000; stroke-width: 0.8; stroke-linejoin: miter; stroke-linecap: square"/>
   </g>
   <g id="patch_5">
    <path d="M 57.6 307.584 
L 414.72 307.584 
" style="fill: none; stroke: #000000; stroke-width: 0.8; stroke-linejoin: miter; stroke-linecap: square"/>
   </g>
   <g id="patch_6">
    <path d="M 57.6 41.472 
L 414.72 41.472 
" style="fill: none; stroke: #000000; stroke-width: 0.8; stroke-linejoin: miter; stroke-linecap: square"/>
   </g>
  </g>
 </g>
 <defs>
  <clipPath id="pb12e7546e2">
   <rect x="57.6" y="41.472" width="357.12" height="266.112"/>
  </clipPath>
 </defs>
</svg>
