<?xml version="1.0" encoding="utf-8" standalone="no"?>
<!DOCTYPE svg PUBLIC "-//W3C//DTD SVG 1.1//EN"
  "http://www.w3.org/Graphics/SVG/1.1/DTD/svg11.dtd">
<svg xmlns:xlink="http://www.w3.org/1999/xlink" width="460.8pt" height="345.6pt" viewBox="0 0 460.8 345.6" xmlns="http://www.w3.org/2000/svg" version="1.1">
 <metadata>
  <rdf:RDF xmlns:dc="http://purl.org/dc/elements/1.1/" xmlns:cc="http://creativecommons.org/ns#" xmlns:rdf="http://www.w3.org/1999/02/22-rdf-syntax-ns#">
   <cc:Work>
    <dc:type rdf:resource="http://purl.org/dc/dcmitype/StillImage"/>
    <dc:date>2025-12-15T12:37:11.497157</dc:date>
    <dc:format>image/svg+xml</dc:format>
    <dc:creator>
     <cc:Agent>
      <dc:title>Matplotlib v3.10.6, https://matplotlib.org/</dc:title>
     </cc:Agent>
    </dc:creator>
   </cc:Work>
  </rdf:RDF>
 </metadata>
 <defs>
  <style type="text/css">*{stroke-linejoin: round; stroke-linecap: butt}</style>
 </defs>
 <g id="figure_1">
  <g id="patch_1">
   <path d="M 0 345.6 
L 460.8 345.6 
L 460.8 0 
L 0 0 
z
" style="fill: #ffffff"/>
  </g>
  <g id="axes_1">
   <g id="patch_2">
    <path d="M 109.607519 265.0705 
L 434.88 265.0705 
L 434.88 34.596 
L 109.607519 34.596 
z
" style="fill: #ffffff"/>
   </g>
   <g id="matplotlib.axis_1">
    <g id="xtick_1">
     <g id="line2d_1">
      <path d="M 125.091932 265.0705 
L 125.091932 34.596 
" clip-path="url(#pde39d56d73)" style="fill: none; stroke: #b0b0b0; stroke-width: 0.8; stroke-linecap: square"/>
     </g>
     <g id="line2d_2">
      <defs>
       <path id="me7b18d4c84" d="M 0 0 
L 0 3.5 
" style="stroke: #000000; stroke-width: 0.8"/>
      </defs>
      <g>
       <use xlink:href="#me7b18d4c84" x="125.091932" y="265.0705" style="stroke: #000000; stroke-width: 0.8"/>
      </g>
     </g>
     <g id="text_1">
      <!-- $\mathdefault{10^{0}}$ -->
      <g transform="translate(108.411932 288.46175) scale(0.24 -0.24)">
       <defs>
        <path id="TeXGyreTermes-Regular-31" d="M 2522 0 
L 2522 96 
C 2016 102 1914 166 1914 474 
L 1914 4314 
L 1862 4326 
L 710 3744 
L 710 3654 
C 787 3686 858 3712 883 3725 
C 998 3770 1107 3795 1171 3795 
C 1306 3795 1363 3699 1363 3494 
L 1363 595 
C 1363 384 1312 237 1210 179 
C 1114 122 1024 102 755 96 
L 755 0 
L 2522 0 
z
" transform="scale(0.015625)"/>
        <path id="TeXGyreTermes-Regular-30" d="M 3046 2112 
C 3046 3424 2464 4326 1626 4326 
C 1274 4326 1005 4218 768 3994 
C 397 3635 154 2899 154 2150 
C 154 1453 365 704 666 346 
C 902 64 1229 -90 1600 -90 
C 1926 -90 2202 19 2432 243 
C 2803 595 3046 1338 3046 2112 
z
M 2432 2099 
C 2432 762 2150 77 1600 77 
C 1050 77 768 762 768 2093 
C 768 3450 1056 4160 1606 4160 
C 2144 4160 2432 3437 2432 2099 
z
" transform="scale(0.015625)"/>
       </defs>
       <use xlink:href="#TeXGyreTermes-Regular-31" transform="translate(0 0.184375)"/>
       <use xlink:href="#TeXGyreTermes-Regular-30" transform="translate(49.999985 0.184375)"/>
       <use xlink:href="#TeXGyreTermes-Regular-30" transform="translate(100.787469 31.684375) scale(0.7)"/>
      </g>
     </g>
    </g>
    <g id="xtick_2">
     <g id="line2d_3">
      <path d="M 239.87204 265.0705 
L 239.87204 34.596 
" clip-path="url(#pde39d56d73)" style="fill: none; stroke: #b0b0b0; stroke-width: 0.8; stroke-linecap: square"/>
     </g>
     <g id="line2d_4">
      <g>
       <use xlink:href="#me7b18d4c84" x="239.87204" y="265.0705" style="stroke: #000000; stroke-width: 0.8"/>
      </g>
     </g>
     <g id="text_2">
      <!-- $\mathdefault{10^{1}}$ -->
      <g transform="translate(223.19204 288.46175) scale(0.24 -0.24)">
       <use xlink:href="#TeXGyreTermes-Regular-31" transform="translate(0 0.184375)"/>
       <use xlink:href="#TeXGyreTermes-Regular-30" transform="translate(49.999985 0.184375)"/>
       <use xlink:href="#TeXGyreTermes-Regular-31" transform="translate(100.787469 31.684375) scale(0.7)"/>
      </g>
     </g>
    </g>
    <g id="xtick_3">
     <g id="line2d_5">
      <path d="M 354.652148 265.0705 
L 354.652148 34.596 
" clip-path="url(#pde39d56d73)" style="fill: none; stroke: #b0b0b0; stroke-width: 0.8; stroke-linecap: square"/>
     </g>
     <g id="line2d_6">
      <g>
       <use xlink:href="#me7b18d4c84" x="354.652148" y="265.0705" style="stroke: #000000; stroke-width: 0.8"/>
      </g>
     </g>
     <g id="text_3">
      <!-- $\mathdefault{10^{2}}$ -->
      <g transform="translate(337.972148 288.46175) scale(0.24 -0.24)">
       <defs>
        <path id="TeXGyreTermes-Regular-32" d="M 3040 877 
L 2957 909 
C 2720 544 2637 486 2349 486 
L 819 486 
L 1894 1613 
C 2464 2208 2714 2694 2714 3194 
C 2714 3834 2195 4326 1530 4326 
C 1178 4326 845 4186 608 3930 
C 403 3712 307 3507 198 3053 
L 333 3021 
C 589 3648 819 3853 1261 3853 
C 1798 3853 2163 3488 2163 2950 
C 2163 2451 1869 1856 1331 1286 
L 192 77 
L 192 0 
L 2688 0 
L 3040 877 
z
" transform="scale(0.015625)"/>
       </defs>
       <use xlink:href="#TeXGyreTermes-Regular-31" transform="translate(0 0.184375)"/>
       <use xlink:href="#TeXGyreTermes-Regular-30" transform="translate(49.999985 0.184375)"/>
       <use xlink:href="#TeXGyreTermes-Regular-32" transform="translate(100.787469 31.684375) scale(0.7)"/>
      </g>
     </g>
    </g>
    <g id="xtick_4">
     <g id="line2d_7">
      <defs>
       <path id="m1d9adf492b" d="M 0 0 
L 0 2 
" style="stroke: #000000; stroke-width: 0.6"/>
      </defs>
      <g>
       <use xlink:href="#m1d9adf492b" x="113.968591" y="265.0705" style="stroke: #000000; stroke-width: 0.6"/>
      </g>
     </g>
    </g>
    <g id="xtick_5">
     <g id="line2d_8">
      <g>
       <use xlink:href="#m1d9adf492b" x="119.839883" y="265.0705" style="stroke: #000000; stroke-width: 0.6"/>
      </g>
     </g>
    </g>
    <g id="xtick_6">
     <g id="line2d_9">
      <g>
       <use xlink:href="#m1d9adf492b" x="159.644188" y="265.0705" style="stroke: #000000; stroke-width: 0.6"/>
      </g>
     </g>
    </g>
    <g id="xtick_7">
     <g id="line2d_10">
      <g>
       <use xlink:href="#m1d9adf492b" x="179.855961" y="265.0705" style="stroke: #000000; stroke-width: 0.6"/>
      </g>
     </g>
    </g>
    <g id="xtick_8">
     <g id="line2d_11">
      <g>
       <use xlink:href="#m1d9adf492b" x="194.196443" y="265.0705" style="stroke: #000000; stroke-width: 0.6"/>
      </g>
     </g>
    </g>
    <g id="xtick_9">
     <g id="line2d_12">
      <g>
       <use xlink:href="#m1d9adf492b" x="205.319785" y="265.0705" style="stroke: #000000; stroke-width: 0.6"/>
      </g>
     </g>
    </g>
    <g id="xtick_10">
     <g id="line2d_13">
      <g>
       <use xlink:href="#m1d9adf492b" x="214.408217" y="265.0705" style="stroke: #000000; stroke-width: 0.6"/>
      </g>
     </g>
    </g>
    <g id="xtick_11">
     <g id="line2d_14">
      <g>
       <use xlink:href="#m1d9adf492b" x="222.092376" y="265.0705" style="stroke: #000000; stroke-width: 0.6"/>
      </g>
     </g>
    </g>
    <g id="xtick_12">
     <g id="line2d_15">
      <g>
       <use xlink:href="#m1d9adf492b" x="228.748698" y="265.0705" style="stroke: #000000; stroke-width: 0.6"/>
      </g>
     </g>
    </g>
    <g id="xtick_13">
     <g id="line2d_16">
      <g>
       <use xlink:href="#m1d9adf492b" x="234.61999" y="265.0705" style="stroke: #000000; stroke-width: 0.6"/>
      </g>
     </g>
    </g>
    <g id="xtick_14">
     <g id="line2d_17">
      <g>
       <use xlink:href="#m1d9adf492b" x="274.424295" y="265.0705" style="stroke: #000000; stroke-width: 0.6"/>
      </g>
     </g>
    </g>
    <g id="xtick_15">
     <g id="line2d_18">
      <g>
       <use xlink:href="#m1d9adf492b" x="294.636069" y="265.0705" style="stroke: #000000; stroke-width: 0.6"/>
      </g>
     </g>
    </g>
    <g id="xtick_16">
     <g id="line2d_19">
      <g>
       <use xlink:href="#m1d9adf492b" x="308.976551" y="265.0705" style="stroke: #000000; stroke-width: 0.6"/>
      </g>
     </g>
    </g>
    <g id="xtick_17">
     <g id="line2d_20">
      <g>
       <use xlink:href="#m1d9adf492b" x="320.099892" y="265.0705" style="stroke: #000000; stroke-width: 0.6"/>
      </g>
     </g>
    </g>
    <g id="xtick_18">
     <g id="line2d_21">
      <g>
       <use xlink:href="#m1d9adf492b" x="329.188324" y="265.0705" style="stroke: #000000; stroke-width: 0.6"/>
      </g>
     </g>
    </g>
    <g id="xtick_19">
     <g id="line2d_22">
      <g>
       <use xlink:href="#m1d9adf492b" x="336.872484" y="265.0705" style="stroke: #000000; stroke-width: 0.6"/>
      </g>
     </g>
    </g>
    <g id="xtick_20">
     <g id="line2d_23">
      <g>
       <use xlink:href="#m1d9adf492b" x="343.528806" y="265.0705" style="stroke: #000000; stroke-width: 0.6"/>
      </g>
     </g>
    </g>
    <g id="xtick_21">
     <g id="line2d_24">
      <g>
       <use xlink:href="#m1d9adf492b" x="349.400098" y="265.0705" style="stroke: #000000; stroke-width: 0.6"/>
      </g>
     </g>
    </g>
    <g id="xtick_22">
     <g id="line2d_25">
      <g>
       <use xlink:href="#m1d9adf492b" x="389.204403" y="265.0705" style="stroke: #000000; stroke-width: 0.6"/>
      </g>
     </g>
    </g>
    <g id="xtick_23">
     <g id="line2d_26">
      <g>
       <use xlink:href="#m1d9adf492b" x="409.416177" y="265.0705" style="stroke: #000000; stroke-width: 0.6"/>
      </g>
     </g>
    </g>
    <g id="xtick_24">
     <g id="line2d_27">
      <g>
       <use xlink:href="#m1d9adf492b" x="423.756658" y="265.0705" style="stroke: #000000; stroke-width: 0.6"/>
      </g>
     </g>
    </g>
    <g id="xtick_25">
     <g id="line2d_28">
      <g>
       <use xlink:href="#m1d9adf492b" x="434.88" y="265.0705" style="stroke: #000000; stroke-width: 0.6"/>
      </g>
     </g>
    </g>
    <g id="text_4">
     <!-- Frequenz in Hz -->
     <g transform="translate(198.261884 314.06175) scale(0.24 -0.24)">
      <defs>
       <path id="TeXGyreTermes-Regular-46" d="M 3494 3322 
L 3475 4237 
L 77 4237 
L 77 4115 
C 550 4077 634 3987 634 3539 
L 634 768 
C 634 237 563 154 77 122 
L 77 0 
L 1869 0 
L 1869 122 
C 1376 147 1286 237 1286 698 
L 1286 2093 
L 2214 2093 
C 2733 2093 2842 1997 2918 1478 
L 3066 1478 
L 3066 2963 
L 2918 2963 
C 2842 2451 2726 2355 2214 2355 
L 1286 2355 
L 1286 3776 
C 1286 3955 1318 3994 1491 3994 
L 2362 3994 
C 3085 3994 3226 3898 3334 3322 
L 3494 3322 
z
" transform="scale(0.015625)"/>
       <path id="TeXGyreTermes-Regular-72" d="M 2144 2605 
C 2144 2816 2010 2944 1792 2944 
C 1523 2944 1338 2797 1024 2342 
L 1024 2931 
L 992 2944 
C 653 2803 422 2720 45 2598 
L 45 2496 
C 134 2515 192 2522 269 2522 
C 429 2522 486 2419 486 2138 
L 486 538 
C 486 218 442 173 32 96 
L 32 0 
L 1568 0 
L 1568 96 
C 1133 115 1024 211 1024 576 
L 1024 2016 
C 1024 2221 1299 2541 1472 2541 
C 1510 2541 1568 2509 1638 2445 
C 1741 2355 1811 2317 1894 2317 
C 2048 2317 2144 2426 2144 2605 
z
" transform="scale(0.015625)"/>
       <path id="TeXGyreTermes-Regular-65" d="M 2714 1005 
L 2611 1050 
C 2304 563 2029 378 1619 378 
C 1267 378 998 544 813 890 
C 685 1139 634 1363 621 1773 
L 2592 1773 
C 2541 2189 2477 2374 2317 2579 
C 2125 2810 1830 2944 1498 2944 
C 704 2944 160 2304 160 1370 
C 160 486 621 -64 1357 -64 
C 1971 -64 2445 314 2714 1005 
z
M 1939 1978 
L 634 1978 
C 704 2483 922 2714 1312 2714 
C 1702 2714 1856 2534 1939 1978 
z
" transform="scale(0.015625)"/>
       <path id="TeXGyreTermes-Regular-71" d="M 3123 -1389 
L 3123 -1299 
C 2771 -1222 2720 -1171 2720 -902 
L 2720 2925 
L 2650 2925 
L 2304 2720 
C 2010 2893 1818 2950 1568 2950 
C 768 2950 154 2234 154 1312 
C 154 506 576 -64 1178 -64 
C 1549 -64 1901 102 2182 410 
L 2182 -794 
C 2182 -1152 2067 -1248 1613 -1280 
L 1613 -1389 
L 3123 -1389 
z
M 2182 813 
C 2182 659 2157 576 2093 525 
C 1952 403 1741 326 1542 326 
C 1344 326 1171 390 1043 518 
C 838 704 704 1120 704 1542 
C 704 2298 1043 2771 1587 2771 
C 1984 2771 2182 2560 2182 2131 
L 2182 813 
z
" transform="scale(0.015625)"/>
       <path id="TeXGyreTermes-Regular-75" d="M 3066 230 
L 3066 320 
L 3034 320 
C 2739 320 2669 390 2669 685 
L 2669 2880 
L 1658 2880 
L 1658 2771 
C 2054 2752 2131 2688 2131 2368 
L 2131 864 
C 2131 691 2099 595 2022 538 
C 1843 384 1645 307 1446 307 
C 1197 307 992 525 992 794 
L 992 2880 
L 58 2880 
L 58 2790 
C 365 2771 454 2675 454 2381 
L 454 768 
C 454 262 762 -64 1229 -64 
C 1466 -64 1715 38 1888 211 
L 2163 486 
L 2163 -45 
L 2189 -58 
C 2509 70 2739 141 3066 230 
z
" transform="scale(0.015625)"/>
       <path id="TeXGyreTermes-Regular-6e" d="M 3104 0 
L 3104 96 
C 2790 128 2714 205 2714 518 
L 2714 1984 
C 2714 2586 2432 2944 1958 2944 
C 1664 2944 1466 2835 1030 2426 
L 1030 2931 
L 986 2944 
C 672 2829 454 2758 102 2656 
L 102 2547 
C 141 2566 205 2573 275 2573 
C 454 2573 512 2477 512 2163 
L 512 576 
C 512 211 442 122 115 96 
L 115 0 
L 1472 0 
L 1472 96 
C 1146 122 1050 198 1050 429 
L 1050 2227 
C 1357 2515 1498 2592 1709 2592 
C 2022 2592 2176 2394 2176 1971 
L 2176 634 
C 2176 230 2093 122 1773 96 
L 1773 0 
L 3104 0 
z
" transform="scale(0.015625)"/>
       <path id="TeXGyreTermes-Regular-7a" d="M 2675 864 
L 2560 890 
C 2496 570 2458 467 2374 358 
C 2285 250 2067 192 1741 192 
L 858 192 
L 2579 2784 
L 2579 2880 
L 358 2880 
L 339 2125 
L 454 2125 
C 512 2592 608 2688 992 2688 
L 1875 2688 
L 173 96 
L 173 0 
L 2586 0 
L 2675 864 
z
" transform="scale(0.015625)"/>
       <path id="TeXGyreTermes-Regular-20" transform="scale(0.015625)"/>
       <path id="TeXGyreTermes-Regular-69" d="M 1619 0 
L 1619 96 
C 1197 128 1146 192 1146 653 
L 1146 2925 
L 1120 2944 
L 128 2592 
L 128 2496 
L 179 2502 
C 256 2515 339 2522 397 2522 
C 550 2522 608 2419 608 2138 
L 608 653 
C 608 192 544 122 102 96 
L 102 0 
L 1619 0 
z
M 1203 3776 
C 1203 3955 1062 4102 877 4102 
C 698 4102 550 3955 550 3776 
C 550 3590 698 3450 877 3450 
C 1062 3450 1203 3590 1203 3776 
z
" transform="scale(0.015625)"/>
       <path id="TeXGyreTermes-Regular-48" d="M 4493 0 
L 4493 122 
C 4013 160 3930 243 3930 698 
L 3930 3539 
C 3930 4000 4000 4070 4493 4115 
L 4493 4237 
L 2714 4237 
L 2714 4115 
C 3206 4070 3277 4000 3277 3539 
L 3277 2298 
L 1338 2298 
L 1338 3539 
C 1338 4000 1408 4070 1901 4115 
L 1901 4237 
L 122 4237 
L 122 4115 
C 614 4070 685 4000 685 3539 
L 685 768 
C 685 230 621 154 122 122 
L 122 0 
L 1901 0 
L 1901 122 
C 1421 160 1338 243 1338 698 
L 1338 2016 
L 3277 2016 
L 3277 768 
C 3277 230 3213 154 2714 122 
L 2714 0 
L 4493 0 
z
" transform="scale(0.015625)"/>
      </defs>
      <use xlink:href="#TeXGyreTermes-Regular-46"/>
      <use xlink:href="#TeXGyreTermes-Regular-72" transform="translate(55.599991 0)"/>
      <use xlink:href="#TeXGyreTermes-Regular-65" transform="translate(88.899979 0)"/>
      <use xlink:href="#TeXGyreTermes-Regular-71" transform="translate(133.299973 0)"/>
      <use xlink:href="#TeXGyreTermes-Regular-75" transform="translate(183.299957 0)"/>
      <use xlink:href="#TeXGyreTermes-Regular-65" transform="translate(233.299942 0)"/>
      <use xlink:href="#TeXGyreTermes-Regular-6e" transform="translate(277.699936 0)"/>
      <use xlink:href="#TeXGyreTermes-Regular-7a" transform="translate(327.699921 0)"/>
      <use xlink:href="#TeXGyreTermes-Regular-20" transform="translate(372.099915 0)"/>
      <use xlink:href="#TeXGyreTermes-Regular-69" transform="translate(397.099899 0)"/>
      <use xlink:href="#TeXGyreTermes-Regular-6e" transform="translate(424.899887 0)"/>
      <use xlink:href="#TeXGyreTermes-Regular-20" transform="translate(474.899872 0)"/>
      <use xlink:href="#TeXGyreTermes-Regular-48" transform="translate(499.899857 0)"/>
      <use xlink:href="#TeXGyreTermes-Regular-7a" transform="translate(572.099838 0)"/>
     </g>
    </g>
   </g>
   <g id="matplotlib.axis_2">
    <g id="ytick_1">
     <g id="line2d_29">
      <path d="M 109.607519 265.0705 
L 434.88 265.0705 
" clip-path="url(#pde39d56d73)" style="fill: none; stroke: #b0b0b0; stroke-width: 0.8; stroke-linecap: square"/>
     </g>
     <g id="line2d_30">
      <defs>
       <path id="m18e0546daf" d="M 0 0 
L -3.5 0 
" style="stroke: #000000; stroke-width: 0.8"/>
      </defs>
      <g>
       <use xlink:href="#m18e0546daf" x="109.607519" y="265.0705" style="stroke: #000000; stroke-width: 0.8"/>
      </g>
     </g>
     <g id="text_5">
      <!-- $\mathdefault{10^{-12}}$ -->
      <g transform="translate(51.487519 273.266125) scale(0.24 -0.24)">
       <defs>
        <path id="TeXGyreTermes-Regular-2212" d="M 3354 1389 
L 3354 1811 
L 256 1811 
L 256 1389 
L 3354 1389 
z
" transform="scale(0.015625)"/>
       </defs>
       <use xlink:href="#TeXGyreTermes-Regular-31" transform="translate(0 0.184375)"/>
       <use xlink:href="#TeXGyreTermes-Regular-30" transform="translate(49.999985 0.184375)"/>
       <use xlink:href="#TeXGyreTermes-Regular-2212" transform="translate(100.787469 31.684375) scale(0.7)"/>
       <use xlink:href="#TeXGyreTermes-Regular-31" transform="translate(140.267465 31.684375) scale(0.7)"/>
       <use xlink:href="#TeXGyreTermes-Regular-32" transform="translate(175.267455 31.684375) scale(0.7)"/>
      </g>
     </g>
    </g>
    <g id="ytick_2">
     <g id="line2d_31">
      <path d="M 109.607519 207.451875 
L 434.88 207.451875 
" clip-path="url(#pde39d56d73)" style="fill: none; stroke: #b0b0b0; stroke-width: 0.8; stroke-linecap: square"/>
     </g>
     <g id="line2d_32">
      <g>
       <use xlink:href="#m18e0546daf" x="109.607519" y="207.451875" style="stroke: #000000; stroke-width: 0.8"/>
      </g>
     </g>
     <g id="text_6">
      <!-- $\mathdefault{10^{-9}}$ -->
      <g transform="translate(59.887519 215.6475) scale(0.24 -0.24)">
       <defs>
        <path id="TeXGyreTermes-Regular-39" d="M 2938 2522 
C 2938 3578 2349 4326 1523 4326 
C 762 4326 192 3680 192 2816 
C 192 2035 653 1517 1344 1517 
C 1696 1517 1965 1619 2304 1882 
C 2042 838 1331 154 358 -13 
L 378 -141 
C 1094 -58 1446 64 1882 378 
C 2547 864 2938 1658 2938 2522 
z
M 2317 2272 
C 2317 2144 2291 2086 2221 2029 
C 2042 1875 1805 1792 1574 1792 
C 1088 1792 781 2272 781 3034 
C 781 3398 883 3782 1018 3949 
C 1126 4077 1286 4147 1472 4147 
C 2029 4147 2317 3597 2317 2522 
L 2317 2272 
z
" transform="scale(0.015625)"/>
       </defs>
       <use xlink:href="#TeXGyreTermes-Regular-31" transform="translate(0 0.184375)"/>
       <use xlink:href="#TeXGyreTermes-Regular-30" transform="translate(49.999985 0.184375)"/>
       <use xlink:href="#TeXGyreTermes-Regular-2212" transform="translate(100.787469 31.684375) scale(0.7)"/>
       <use xlink:href="#TeXGyreTermes-Regular-39" transform="translate(140.267465 31.684375) scale(0.7)"/>
      </g>
     </g>
    </g>
    <g id="ytick_3">
     <g id="line2d_33">
      <path d="M 109.607519 149.83325 
L 434.88 149.83325 
" clip-path="url(#pde39d56d73)" style="fill: none; stroke: #b0b0b0; stroke-width: 0.8; stroke-linecap: square"/>
     </g>
     <g id="line2d_34">
      <g>
       <use xlink:href="#m18e0546daf" x="109.607519" y="149.83325" style="stroke: #000000; stroke-width: 0.8"/>
      </g>
     </g>
     <g id="text_7">
      <!-- $\mathdefault{10^{-6}}$ -->
      <g transform="translate(59.887519 158.028875) scale(0.24 -0.24)">
       <defs>
        <path id="TeXGyreTermes-Regular-36" d="M 2995 1402 
C 2995 2221 2528 2739 1792 2739 
C 1510 2739 1376 2694 973 2451 
C 1146 3418 1862 4109 2867 4275 
L 2854 4378 
C 2125 4314 1754 4192 1286 3866 
C 595 3373 218 2643 218 1786 
C 218 1229 390 666 666 346 
C 909 64 1254 -90 1651 -90 
C 2445 -90 2995 518 2995 1402 
z
M 2419 1184 
C 2419 480 2170 90 1722 90 
C 1158 90 813 691 813 1683 
C 813 2010 864 2189 992 2285 
C 1126 2387 1325 2445 1549 2445 
C 2099 2445 2419 1984 2419 1184 
z
" transform="scale(0.015625)"/>
       </defs>
       <use xlink:href="#TeXGyreTermes-Regular-31" transform="translate(0 0.615625)"/>
       <use xlink:href="#TeXGyreTermes-Regular-30" transform="translate(49.999985 0.615625)"/>
       <use xlink:href="#TeXGyreTermes-Regular-2212" transform="translate(100.787469 32.115625) scale(0.7)"/>
       <use xlink:href="#TeXGyreTermes-Regular-36" transform="translate(140.267465 32.115625) scale(0.7)"/>
      </g>
     </g>
    </g>
    <g id="ytick_4">
     <g id="line2d_35">
      <path d="M 109.607519 92.214625 
L 434.88 92.214625 
" clip-path="url(#pde39d56d73)" style="fill: none; stroke: #b0b0b0; stroke-width: 0.8; stroke-linecap: square"/>
     </g>
     <g id="line2d_36">
      <g>
       <use xlink:href="#m18e0546daf" x="109.607519" y="92.214625" style="stroke: #000000; stroke-width: 0.8"/>
      </g>
     </g>
     <g id="text_8">
      <!-- $\mathdefault{10^{-3}}$ -->
      <g transform="translate(59.887519 100.41025) scale(0.24 -0.24)">
       <defs>
        <path id="TeXGyreTermes-Regular-33" d="M 2765 1402 
C 2765 1728 2662 2029 2477 2227 
C 2349 2368 2227 2445 1946 2566 
C 2387 2867 2547 3104 2547 3450 
C 2547 3968 2138 4326 1549 4326 
C 1229 4326 947 4218 717 4013 
C 525 3840 429 3674 288 3290 
L 384 3264 
C 646 3731 934 3942 1338 3942 
C 1754 3942 2042 3661 2042 3258 
C 2042 3027 1946 2797 1786 2637 
C 1594 2445 1414 2349 979 2195 
L 979 2112 
C 1357 2112 1504 2099 1658 2042 
C 2054 1901 2304 1536 2304 1094 
C 2304 557 1939 141 1466 141 
C 1293 141 1165 186 928 339 
C 736 454 627 499 518 499 
C 371 499 275 410 275 275 
C 275 51 550 -90 998 -90 
C 1491 -90 1997 77 2298 339 
C 2598 602 2765 973 2765 1402 
z
" transform="scale(0.015625)"/>
       </defs>
       <use xlink:href="#TeXGyreTermes-Regular-31" transform="translate(0 0.184375)"/>
       <use xlink:href="#TeXGyreTermes-Regular-30" transform="translate(49.999985 0.184375)"/>
       <use xlink:href="#TeXGyreTermes-Regular-2212" transform="translate(100.787469 31.684375) scale(0.7)"/>
       <use xlink:href="#TeXGyreTermes-Regular-33" transform="translate(140.267465 31.684375) scale(0.7)"/>
      </g>
     </g>
    </g>
    <g id="ytick_5">
     <g id="line2d_37">
      <path d="M 109.607519 34.596 
L 434.88 34.596 
" clip-path="url(#pde39d56d73)" style="fill: none; stroke: #b0b0b0; stroke-width: 0.8; stroke-linecap: square"/>
     </g>
     <g id="line2d_38">
      <g>
       <use xlink:href="#m18e0546daf" x="109.607519" y="34.596" style="stroke: #000000; stroke-width: 0.8"/>
      </g>
     </g>
     <g id="text_9">
      <!-- $\mathdefault{10^{0}}$ -->
      <g transform="translate(69.247519 42.791625) scale(0.24 -0.24)">
       <use xlink:href="#TeXGyreTermes-Regular-31" transform="translate(0 0.184375)"/>
       <use xlink:href="#TeXGyreTermes-Regular-30" transform="translate(49.999985 0.184375)"/>
       <use xlink:href="#TeXGyreTermes-Regular-30" transform="translate(100.787469 31.684375) scale(0.7)"/>
      </g>
     </g>
    </g>
    <g id="text_10">
     <!-- Leistung -->
     <g transform="translate(42.256269 191.83325) rotate(-90) scale(0.24 -0.24)">
      <defs>
       <path id="TeXGyreTermes-Regular-4c" d="M 3827 1114 
L 3667 1114 
C 3565 890 3482 742 3392 640 
C 3168 371 2816 250 2266 250 
L 1837 250 
C 1370 250 1286 288 1286 512 
L 1286 3539 
C 1286 3994 1376 4083 1882 4115 
L 1882 4237 
L 77 4237 
L 77 4115 
C 550 4077 634 3994 634 3539 
L 634 698 
C 634 243 544 154 77 122 
L 77 0 
L 3520 0 
L 3827 1114 
z
" transform="scale(0.015625)"/>
       <path id="TeXGyreTermes-Regular-73" d="M 2227 755 
C 2227 1075 2080 1286 1690 1517 
L 998 1926 
C 819 2029 723 2189 723 2362 
C 723 2624 922 2797 1216 2797 
C 1581 2797 1773 2586 1920 2010 
L 2016 2010 
L 1990 2880 
L 1920 2880 
L 1907 2867 
C 1850 2822 1843 2816 1818 2816 
C 1779 2816 1715 2829 1645 2861 
C 1510 2912 1363 2938 1210 2938 
C 685 2938 326 2618 326 2150 
C 326 1792 531 1542 1075 1229 
L 1446 1018 
C 1670 890 1779 736 1779 538 
C 1779 256 1574 77 1248 77 
C 806 77 582 320 435 973 
L 333 973 
L 333 -26 
L 416 -26 
C 461 38 486 51 563 51 
C 634 51 704 38 858 0 
C 1037 -38 1197 -64 1331 -64 
C 1818 -64 2227 307 2227 755 
z
" transform="scale(0.015625)"/>
       <path id="TeXGyreTermes-Regular-74" d="M 1786 422 
L 1702 493 
C 1562 326 1459 269 1318 269 
C 1082 269 986 435 986 845 
L 986 2675 
L 1632 2675 
L 1632 2880 
L 986 2880 
L 986 3622 
C 986 3686 973 3706 941 3706 
C 902 3642 858 3584 813 3526 
C 576 3174 358 2938 192 2842 
C 122 2797 83 2758 83 2720 
C 83 2701 90 2688 109 2675 
L 448 2675 
L 448 749 
C 448 211 640 -64 1011 -64 
C 1331 -64 1574 90 1786 422 
z
" transform="scale(0.015625)"/>
       <path id="TeXGyreTermes-Regular-67" d="M 3008 2483 
L 3008 2733 
L 2515 2733 
C 2387 2733 2291 2752 2163 2797 
L 2022 2848 
C 1850 2912 1677 2944 1510 2944 
C 915 2944 442 2483 442 1901 
C 442 1498 614 1254 1037 1043 
L 762 787 
C 550 602 467 474 467 346 
C 467 211 544 134 806 6 
C 352 -326 179 -538 179 -774 
C 179 -1114 678 -1395 1286 -1395 
C 1766 -1395 2266 -1229 2598 -960 
C 2842 -762 2950 -557 2950 -314 
C 2950 83 2650 352 2176 371 
L 1350 410 
C 1011 422 851 480 851 582 
C 851 710 1062 934 1235 986 
C 1293 979 1338 973 1357 973 
C 1478 960 1562 954 1600 954 
C 1837 954 2093 1050 2291 1222 
C 2502 1402 2598 1626 2598 1946 
C 2598 2131 2566 2278 2477 2483 
L 3008 2483 
z
M 2771 -410 
C 2771 -781 2285 -1030 1562 -1030 
C 998 -1030 627 -845 627 -563 
C 627 -416 672 -333 941 -13 
C 1152 -58 1664 -96 1978 -96 
C 2560 -96 2771 -179 2771 -410 
z
M 2106 1696 
C 2106 1338 1920 1114 1626 1114 
C 1242 1114 973 1530 973 2144 
L 973 2163 
C 973 2541 1152 2765 1446 2765 
C 1645 2765 1811 2656 1914 2464 
C 2029 2240 2106 1946 2106 1696 
z
" transform="scale(0.015625)"/>
      </defs>
      <use xlink:href="#TeXGyreTermes-Regular-4c"/>
      <use xlink:href="#TeXGyreTermes-Regular-65" transform="translate(61.099991 0)"/>
      <use xlink:href="#TeXGyreTermes-Regular-69" transform="translate(105.499985 0)"/>
      <use xlink:href="#TeXGyreTermes-Regular-73" transform="translate(133.299973 0)"/>
      <use xlink:href="#TeXGyreTermes-Regular-74" transform="translate(172.199966 0)"/>
      <use xlink:href="#TeXGyreTermes-Regular-75" transform="translate(199.999954 0)"/>
      <use xlink:href="#TeXGyreTermes-Regular-6e" transform="translate(249.999939 0)"/>
      <use xlink:href="#TeXGyreTermes-Regular-67" transform="translate(299.999924 0)"/>
     </g>
    </g>
   </g>
   <g id="line2d_39">
    <path d="M -1 80.676889 
L 125.091932 80.673243 
L 159.644188 89.656199 
L 179.855961 95.047404 
L 194.196443 77.182422 
L 205.319785 90.519282 
L 214.408217 83.00281 
L 222.092376 83.342161 
L 228.748698 82.847764 
L 234.61999 79.375557 
L 239.87204 84.707037 
L 244.623097 88.794097 
L 248.960472 88.045807 
L 252.95047 83.508888 
L 256.644632 109.023778 
L 260.083814 90.968943 
L 263.300954 113.438106 
L 266.322992 93.998396 
L 269.172246 97.770597 
L 271.867408 88.661053 
L 274.424295 87.90075 
L 276.856405 79.365571 
L 279.175352 71.773532 
L 281.3912 84.191699 
L 283.512727 84.359861 
L 285.547637 71.445773 
L 287.502726 77.698244 
L 289.384019 84.273042 
L 291.196887 85.607212 
L 292.946132 129.039355 
L 294.636069 80.483734 
L 296.270588 110.902743 
L 297.853209 95.408847 
L 299.387126 105.073408 
L 300.875247 77.116778 
L 302.320229 77.369447 
L 303.724501 101.207507 
L 305.090295 86.184771 
L 306.419664 96.168736 
L 307.714499 97.018132 
L 308.976551 86.706477 
L 310.207437 79.014028 
L 311.408661 93.794139 
L 312.581618 71.82714 
L 313.727608 81.434914 
L 314.847843 102.385021 
L 315.943455 101.323275 
L 317.015505 105.805692 
L 318.064983 95.85203 
L 319.09282 87.880371 
L 320.099892 90.430389 
L 321.087021 93.501641 
L 322.054981 79.208233 
L 323.004502 104.310254 
L 323.936275 103.522001 
L 324.850949 100.482706 
L 325.749142 92.476324 
L 326.631437 98.064184 
L 327.498387 92.940564 
L 328.350517 83.519521 
L 329.188324 114.599441 
L 330.012283 96.641215 
L 330.822843 91.801928 
L 331.620434 83.890468 
L 332.405464 86.685633 
L 333.178323 94.141932 
L 333.939381 87.209006 
L 334.688995 96.887584 
L 335.427503 114.65942 
L 336.872484 104.265391 
L 338.964331 80.80652 
L 339.64255 83.220193 
L 340.311666 84.712676 
L 340.971919 91.288396 
L 341.623541 82.870663 
L 342.266755 90.500484 
L 342.901774 95.508824 
L 343.528806 89.381281 
L 344.148048 110.568145 
L 344.759692 89.869023 
L 345.363922 84.624544 
L 345.960916 99.204345 
L 346.550844 123.999037 
L 347.133873 79.344567 
L 347.710161 85.01467 
L 348.279863 110.286258 
L 348.843127 81.973994 
L 349.400098 106.795876 
L 349.950914 111.901459 
L 350.495711 94.55602 
L 351.034617 107.742187 
L 351.56776 87.720976 
L 352.095261 76.372754 
L 352.617238 100.880404 
L 353.133806 101.389657 
L 353.645076 98.250393 
L 354.151155 99.107477 
L 354.652148 112.577705 
L 355.148155 88.883278 
L 355.639276 96.381785 
L 356.125606 100.728948 
L 356.607236 91.894314 
L 357.084258 91.449372 
L 357.556758 115.164724 
L 358.024821 86.076466 
L 358.48853 116.861151 
L 358.947965 95.258344 
L 359.403205 91.99386 
L 359.854324 91.390858 
L 360.301398 93.296055 
L 360.744497 107.932036 
L 361.183693 84.920064 
L 361.619052 97.441499 
L 362.050643 95.757017 
L 362.478528 96.125825 
L 362.902772 90.732275 
L 363.323436 90.441187 
L 363.74058 82.509087 
L 364.154261 98.491915 
L 364.564538 100.992596 
L 364.971466 85.324494 
L 365.375099 107.135906 
L 365.775489 103.32407 
L 366.17269 103.647796 
L 366.56675 118.248771 
L 366.95772 96.460802 
L 367.345647 98.638582 
L 367.730578 85.433956 
L 368.11256 92.373334 
L 368.491636 92.168588 
L 368.867852 95.449982 
L 369.24125 89.185356 
L 369.611872 104.947733 
L 369.979758 85.074542 
L 370.344949 108.864511 
L 370.707484 113.00585 
L 371.067402 113.630728 
L 371.424739 110.410785 
L 371.779533 84.086786 
L 372.13182 92.483843 
L 372.481635 105.916129 
L 372.829012 81.775884 
L 373.516586 104.484247 
L 373.856849 93.061839 
L 374.194806 92.328317 
L 374.530486 93.420493 
L 374.863921 97.93406 
L 375.195141 109.924103 
L 375.85105 83.973775 
L 376.175796 98.505069 
L 376.49844 87.701218 
L 376.81901 89.719573 
L 377.137531 99.510869 
L 377.45403 98.830063 
L 377.768531 101.73743 
L 378.081061 87.720636 
L 378.700304 91.645638 
L 379.007064 92.222836 
L 379.311948 103.943553 
L 379.614978 81.939999 
L 379.916178 97.21987 
L 380.215568 105.290726 
L 380.513171 91.274832 
L 380.809008 91.790121 
L 381.1031 80.471423 
L 381.395466 122.205661 
L 381.686128 95.085667 
L 381.975105 111.046922 
L 382.262416 89.647986 
L 382.548081 116.797964 
L 382.832118 92.377894 
L 383.114546 102.278701 
L 383.674646 93.537252 
L 383.952353 101.334489 
L 384.228522 89.303166 
L 384.50317 106.569875 
L 384.776312 89.603084 
L 385.586872 82.214733 
L 385.854157 110.08115 
L 386.120015 97.021222 
L 386.384463 102.60264 
L 386.647516 120.259768 
L 386.909188 96.821279 
L 387.169493 94.332052 
L 387.428446 118.953847 
L 387.686061 99.655566 
L 387.942352 88.853276 
L 388.197331 97.288031 
L 388.451013 99.853391 
L 388.70341 103.654483 
L 388.954536 97.191058 
L 389.204403 94.145507 
L 389.453024 94.964758 
L 389.700411 89.179597 
L 389.946576 91.682666 
L 390.435289 104.16571 
L 390.677861 93.212746 
L 390.919258 97.772698 
L 391.159492 94.228901 
L 391.398573 105.433269 
L 391.636513 90.371301 
L 391.873323 95.380056 
L 392.109013 84.63663 
L 392.577076 94.664811 
L 392.80947 100.136831 
L 393.040785 91.370277 
L 393.271032 91.723019 
L 393.50022 108.979135 
L 393.72836 93.501914 
L 393.95546 94.1423 
L 394.18153 97.65649 
L 394.406579 90.501419 
L 394.853653 111.07448 
L 395.075695 87.620776 
L 395.296752 111.49731 
L 395.516834 96.821483 
L 395.735948 98.318997 
L 395.954103 95.923858 
L 396.171308 89.096742 
L 396.602898 100.851933 
L 396.8173 82.987024 
L 397.030784 85.711043 
L 397.243357 80.633893 
L 397.455028 97.014419 
L 397.665803 99.344487 
L 397.875691 108.608307 
L 398.084699 86.240215 
L 398.292835 92.788232 
L 398.500105 112.856752 
L 398.706517 114.539413 
L 398.912077 88.456405 
L 399.320673 101.974407 
L 399.523721 99.317108 
L 399.725946 90.818578 
L 399.927354 103.008517 
L 400.327745 88.773649 
L 400.52674 110.334276 
L 400.724945 94.873075 
L 400.922364 107.549279 
L 401.119005 104.165523 
L 401.314873 92.382751 
L 401.509975 112.999203 
L 401.704316 98.385561 
L 401.897902 124.163354 
L 402.090739 95.983355 
L 402.282833 112.815613 
L 402.664815 88.131441 
L 402.854714 102.231109 
L 403.043892 88.639339 
L 403.232355 127.793601 
L 403.607156 91.589216 
L 403.793505 105.758381 
L 404.164127 81.670026 
L 404.532013 100.82709 
L 404.714943 104.257867 
L 404.897204 91.445965 
L 405.078802 97.211026 
L 405.25974 92.844806 
L 405.440023 81.835529 
L 405.619657 106.329313 
L 405.798646 93.477279 
L 405.976995 99.513948 
L 406.154707 101.15983 
L 406.331789 95.524468 
L 406.508243 101.346645 
L 406.684076 90.840727 
L 406.85929 89.431449 
L 407.03389 80.006521 
L 407.207881 95.655051 
L 407.381267 99.469872 
L 407.554052 89.500218 
L 407.72624 130.74172 
L 407.897835 97.311307 
L 408.068841 90.558967 
L 408.239263 93.254293 
L 408.409105 103.490884 
L 408.747061 91.84076 
L 408.915184 83.849624 
L 409.082742 98.58469 
L 409.249738 88.588497 
L 409.416177 86.557287 
L 409.582062 99.126291 
L 409.747396 100.324765 
L 410.07643 118.948907 
L 410.240135 118.10261 
L 410.403305 99.528492 
L 410.565943 111.774719 
L 410.728051 135.048459 
L 410.889635 88.064233 
L 411.211238 112.242561 
L 411.53078 84.878288 
L 411.689786 84.981728 
L 411.848287 89.039673 
L 412.006285 88.639149 
L 412.163784 103.490692 
L 412.320787 89.04362 
L 412.477297 89.479438 
L 412.633317 96.287129 
L 412.78885 108.750081 
L 412.943899 85.355166 
L 413.098468 89.42423 
L 413.252559 112.18378 
L 413.406175 96.165344 
L 413.559319 97.551821 
L 413.711994 97.900378 
L 413.864203 96.625103 
L 414.015949 91.407237 
L 414.167234 100.529684 
L 414.318061 97.106041 
L 414.468433 90.491259 
L 414.767824 115.959433 
L 414.916847 111.295228 
L 415.213564 94.507236 
L 415.361263 111.230411 
L 415.508526 95.972322 
L 415.655355 105.521851 
L 415.947722 86.626021 
L 416.093264 117.823449 
L 416.383081 99.768986 
L 416.52736 105.42901 
L 416.671223 85.025954 
L 416.814672 96.230285 
L 416.957709 98.151131 
L 417.100336 92.319325 
L 417.242557 92.685761 
L 417.384373 94.087891 
L 417.525787 110.711284 
L 417.666801 98.666064 
L 417.807417 101.901618 
L 417.947638 92.892596 
L 418.226901 113.876347 
L 418.504609 96.358906 
L 418.642884 98.919219 
L 418.780778 98.206775 
L 418.91829 93.548968 
L 419.055425 103.499254 
L 419.192183 100.539418 
L 419.328567 100.345599 
L 419.464579 108.283636 
L 419.600221 91.781251 
L 419.870403 106.046612 
L 420.139128 92.855493 
L 420.272949 105.666549 
L 420.406412 101.915913 
L 420.67227 89.924042 
L 420.80467 97.498726 
L 421.068418 98.609017 
L 421.199771 109.061154 
L 421.330779 106.572085 
L 421.591766 94.377725 
L 421.721748 105.107603 
L 421.851393 103.301671 
L 421.980702 108.328118 
L 422.109675 102.007504 
L 422.238317 82.77722 
L 422.494607 126.846999 
L 422.62226 117.401686 
L 422.876589 85.656099 
L 423.003268 99.693436 
L 423.255665 87.181452 
L 423.381386 91.665857 
L 423.506791 105.985534 
L 423.756658 92.461586 
L 424.005279 108.33676 
L 424.375901 90.90105 
L 424.498831 99.044109 
L 424.62146 118.159856 
L 424.743787 97.919785 
L 424.865815 96.935511 
L 424.987545 111.636407 
L 425.108978 107.95734 
L 425.230116 92.564352 
L 425.350961 105.25539 
L 425.471513 95.568549 
L 425.831431 123.343596 
L 425.950828 105.577361 
L 426.06994 109.839262 
L 426.188768 125.709661 
L 426.307314 94.255988 
L 426.425578 111.429533 
L 426.543562 90.694836 
L 426.661268 102.946799 
L 426.778697 90.193456 
L 426.895849 101.049408 
L 427.012727 90.878935 
L 427.129331 98.348758 
L 427.361725 90.429059 
L 427.477517 107.673138 
L 427.708297 95.247364 
L 427.823287 110.711918 
L 428.052476 88.808174 
L 428.166676 111.453898 
L 428.280615 91.095532 
L 428.394294 118.736675 
L 428.620878 95.557495 
L 428.733785 106.659109 
L 428.846437 96.334268 
L 429.07098 103.937889 
L 429.182873 96.212128 
L 429.294515 96.187785 
L 429.405908 100.165916 
L 429.517053 99.493504 
L 429.738602 95.057669 
L 429.849008 98.087274 
L 429.95917 110.434306 
L 430.069089 94.885173 
L 430.178767 97.172697 
L 430.3974 88.856648 
L 430.615079 101.793169 
L 430.723563 89.839475 
L 431.155153 105.79267 
L 431.476411 98.198167 
L 431.583039 102.011607 
L 431.689439 141.781567 
L 431.795612 104.467424 
L 431.90156 112.425855 
L 432.112782 95.684753 
L 432.218058 91.795115 
L 432.427947 108.776838 
L 432.53256 87.362116 
L 432.741131 101.477359 
L 432.948833 92.132613 
L 433.05236 108.764908 
L 433.258772 94.09171 
L 433.361658 96.534066 
L 433.464333 89.738084 
L 433.566796 104.171686 
L 433.669049 94.901525 
L 433.872928 109.572778 
L 434.075977 90.896126 
L 434.177192 105.429307 
L 434.278202 93.716107 
L 434.379007 107.730702 
L 434.479609 102.579741 
L 434.580009 104.260195 
L 434.680207 103.165808 
L 434.780203 107.366752 
L 434.780203 107.366752 
" clip-path="url(#pde39d56d73)" style="fill: none; stroke: #1f77b4; stroke-width: 1.5; stroke-linecap: square"/>
   </g>
   <g id="patch_3">
    <path d="M 109.607519 265.0705 
L 109.607519 34.596 
" style="fill: none; stroke: #000000; stroke-width: 0.8; stroke-linejoin: miter; stroke-linecap: square"/>
   </g>
   <g id="patch_4">
    <path d="M 434.88 265.0705 
L 434.88 34.596 
" style="fill: none; stroke: #000000; stroke-width: 0.8; stroke-linejoin: miter; stroke-linecap: square"/>
   </g>
   <g id="patch_5">
    <path d="M 109.607519 265.0705 
L 434.88 265.0705 
" style="fill: none; stroke: #000000; stroke-width: 0.8; stroke-linejoin: miter; stroke-linecap: square"/>
   </g>
   <g id="patch_6">
    <path d="M 109.607519 34.596 
L 434.88 34.596 
" style="fill: none; stroke: #000000; stroke-width: 0.8; stroke-linejoin: miter; stroke-linecap: square"/>
   </g>
  </g>
 </g>
 <defs>
  <clipPath id="pde39d56d73">
   <rect x="109.607519" y="34.596" width="325.272481" height="230.4745"/>
  </clipPath>
 </defs>
</svg>
