<?xml version="1.0" encoding="utf-8" standalone="no"?>
<!DOCTYPE svg PUBLIC "-//W3C//DTD SVG 1.1//EN"
  "http://www.w3.org/Graphics/SVG/1.1/DTD/svg11.dtd">
<svg xmlns:xlink="http://www.w3.org/1999/xlink" width="460.8pt" height="345.6pt" viewBox="0 0 460.8 345.6" xmlns="http://www.w3.org/2000/svg" version="1.1">
 <metadata>
  <rdf:RDF xmlns:dc="http://purl.org/dc/elements/1.1/" xmlns:cc="http://creativecommons.org/ns#" xmlns:rdf="http://www.w3.org/1999/02/22-rdf-syntax-ns#">
   <cc:Work>
    <dc:type rdf:resource="http://purl.org/dc/dcmitype/StillImage"/>
    <dc:date>2026-01-28T11:02:04.966188</dc:date>
    <dc:format>image/svg+xml</dc:format>
    <dc:creator>
     <cc:Agent>
      <dc:title>Matplotlib v3.10.8, https://matplotlib.org/</dc:title>
     </cc:Agent>
    </dc:creator>
   </cc:Work>
  </rdf:RDF>
 </metadata>
 <defs>
  <style type="text/css">*{stroke-linejoin: round; stroke-linecap: butt}</style>
 </defs>
 <g id="figure_1">
  <g id="patch_1">
   <path d="M 0 345.6 
L 460.8 345.6 
L 460.8 0 
L 0 0 
z
" style="fill: #ffffff"/>
  </g>
  <g id="axes_1">
   <g id="patch_2">
    <path d="M 109.607519 265.0705 
L 434.88 265.0705 
L 434.88 34.596 
L 109.607519 34.596 
z
" style="fill: #ffffff"/>
   </g>
   <g id="matplotlib.axis_1">
    <g id="xtick_1">
     <g id="line2d_1">
      <path d="M 125.091932 265.0705 
L 125.091932 34.596 
" clip-path="url(#p414ce9e980)" style="fill: none; stroke: #b0b0b0; stroke-width: 0.8; stroke-linecap: square"/>
     </g>
     <g id="line2d_2">
      <defs>
       <path id="m66e0aa20f9" d="M 0 0 
L 0 3.5 
" style="stroke: #000000; stroke-width: 0.8"/>
      </defs>
      <g>
       <use xlink:href="#m66e0aa20f9" x="125.091932" y="265.0705" style="stroke: #000000; stroke-width: 0.8"/>
      </g>
     </g>
     <g id="text_1">
      <!-- $\mathdefault{10^{0}}$ -->
      <g transform="translate(108.411932 288.46175) scale(0.24 -0.24)">
       <defs>
        <path id="TeXGyreTermes-Regular-31" d="M 2522 0 
L 2522 96 
C 2016 102 1914 166 1914 474 
L 1914 4314 
L 1862 4326 
L 710 3744 
L 710 3654 
C 787 3686 858 3712 883 3725 
C 998 3770 1107 3795 1171 3795 
C 1306 3795 1363 3699 1363 3494 
L 1363 595 
C 1363 384 1312 237 1210 179 
C 1114 122 1024 102 755 96 
L 755 0 
L 2522 0 
z
" transform="scale(0.015625)"/>
        <path id="TeXGyreTermes-Regular-30" d="M 3046 2112 
C 3046 3424 2464 4326 1626 4326 
C 1274 4326 1005 4218 768 3994 
C 397 3635 154 2899 154 2150 
C 154 1453 365 704 666 346 
C 902 64 1229 -90 1600 -90 
C 1926 -90 2202 19 2432 243 
C 2803 595 3046 1338 3046 2112 
z
M 2432 2099 
C 2432 762 2150 77 1600 77 
C 1050 77 768 762 768 2093 
C 768 3450 1056 4160 1606 4160 
C 2144 4160 2432 3437 2432 2099 
z
" transform="scale(0.015625)"/>
       </defs>
       <use xlink:href="#TeXGyreTermes-Regular-31" transform="translate(0 0.184375)"/>
       <use xlink:href="#TeXGyreTermes-Regular-30" transform="translate(49.999985 0.184375)"/>
       <use xlink:href="#TeXGyreTermes-Regular-30" transform="translate(100.787469 31.684375) scale(0.7)"/>
      </g>
     </g>
    </g>
    <g id="xtick_2">
     <g id="line2d_3">
      <path d="M 239.87204 265.0705 
L 239.87204 34.596 
" clip-path="url(#p414ce9e980)" style="fill: none; stroke: #b0b0b0; stroke-width: 0.8; stroke-linecap: square"/>
     </g>
     <g id="line2d_4">
      <g>
       <use xlink:href="#m66e0aa20f9" x="239.87204" y="265.0705" style="stroke: #000000; stroke-width: 0.8"/>
      </g>
     </g>
     <g id="text_2">
      <!-- $\mathdefault{10^{1}}$ -->
      <g transform="translate(223.19204 288.46175) scale(0.24 -0.24)">
       <use xlink:href="#TeXGyreTermes-Regular-31" transform="translate(0 0.184375)"/>
       <use xlink:href="#TeXGyreTermes-Regular-30" transform="translate(49.999985 0.184375)"/>
       <use xlink:href="#TeXGyreTermes-Regular-31" transform="translate(100.787469 31.684375) scale(0.7)"/>
      </g>
     </g>
    </g>
    <g id="xtick_3">
     <g id="line2d_5">
      <path d="M 354.652148 265.0705 
L 354.652148 34.596 
" clip-path="url(#p414ce9e980)" style="fill: none; stroke: #b0b0b0; stroke-width: 0.8; stroke-linecap: square"/>
     </g>
     <g id="line2d_6">
      <g>
       <use xlink:href="#m66e0aa20f9" x="354.652148" y="265.0705" style="stroke: #000000; stroke-width: 0.8"/>
      </g>
     </g>
     <g id="text_3">
      <!-- $\mathdefault{10^{2}}$ -->
      <g transform="translate(337.972148 288.46175) scale(0.24 -0.24)">
       <defs>
        <path id="TeXGyreTermes-Regular-32" d="M 3040 877 
L 2957 909 
C 2720 544 2637 486 2349 486 
L 819 486 
L 1894 1613 
C 2464 2208 2714 2694 2714 3194 
C 2714 3834 2195 4326 1530 4326 
C 1178 4326 845 4186 608 3930 
C 403 3712 307 3507 198 3053 
L 333 3021 
C 589 3648 819 3853 1261 3853 
C 1798 3853 2163 3488 2163 2950 
C 2163 2451 1869 1856 1331 1286 
L 192 77 
L 192 0 
L 2688 0 
L 3040 877 
z
" transform="scale(0.015625)"/>
       </defs>
       <use xlink:href="#TeXGyreTermes-Regular-31" transform="translate(0 0.184375)"/>
       <use xlink:href="#TeXGyreTermes-Regular-30" transform="translate(49.999985 0.184375)"/>
       <use xlink:href="#TeXGyreTermes-Regular-32" transform="translate(100.787469 31.684375) scale(0.7)"/>
      </g>
     </g>
    </g>
    <g id="xtick_4">
     <g id="line2d_7">
      <defs>
       <path id="me8edb105a0" d="M 0 0 
L 0 2 
" style="stroke: #000000; stroke-width: 0.6"/>
      </defs>
      <g>
       <use xlink:href="#me8edb105a0" x="113.968591" y="265.0705" style="stroke: #000000; stroke-width: 0.6"/>
      </g>
     </g>
    </g>
    <g id="xtick_5">
     <g id="line2d_8">
      <g>
       <use xlink:href="#me8edb105a0" x="119.839883" y="265.0705" style="stroke: #000000; stroke-width: 0.6"/>
      </g>
     </g>
    </g>
    <g id="xtick_6">
     <g id="line2d_9">
      <g>
       <use xlink:href="#me8edb105a0" x="159.644188" y="265.0705" style="stroke: #000000; stroke-width: 0.6"/>
      </g>
     </g>
    </g>
    <g id="xtick_7">
     <g id="line2d_10">
      <g>
       <use xlink:href="#me8edb105a0" x="179.855961" y="265.0705" style="stroke: #000000; stroke-width: 0.6"/>
      </g>
     </g>
    </g>
    <g id="xtick_8">
     <g id="line2d_11">
      <g>
       <use xlink:href="#me8edb105a0" x="194.196443" y="265.0705" style="stroke: #000000; stroke-width: 0.6"/>
      </g>
     </g>
    </g>
    <g id="xtick_9">
     <g id="line2d_12">
      <g>
       <use xlink:href="#me8edb105a0" x="205.319785" y="265.0705" style="stroke: #000000; stroke-width: 0.6"/>
      </g>
     </g>
    </g>
    <g id="xtick_10">
     <g id="line2d_13">
      <g>
       <use xlink:href="#me8edb105a0" x="214.408217" y="265.0705" style="stroke: #000000; stroke-width: 0.6"/>
      </g>
     </g>
    </g>
    <g id="xtick_11">
     <g id="line2d_14">
      <g>
       <use xlink:href="#me8edb105a0" x="222.092376" y="265.0705" style="stroke: #000000; stroke-width: 0.6"/>
      </g>
     </g>
    </g>
    <g id="xtick_12">
     <g id="line2d_15">
      <g>
       <use xlink:href="#me8edb105a0" x="228.748698" y="265.0705" style="stroke: #000000; stroke-width: 0.6"/>
      </g>
     </g>
    </g>
    <g id="xtick_13">
     <g id="line2d_16">
      <g>
       <use xlink:href="#me8edb105a0" x="234.61999" y="265.0705" style="stroke: #000000; stroke-width: 0.6"/>
      </g>
     </g>
    </g>
    <g id="xtick_14">
     <g id="line2d_17">
      <g>
       <use xlink:href="#me8edb105a0" x="274.424295" y="265.0705" style="stroke: #000000; stroke-width: 0.6"/>
      </g>
     </g>
    </g>
    <g id="xtick_15">
     <g id="line2d_18">
      <g>
       <use xlink:href="#me8edb105a0" x="294.636069" y="265.0705" style="stroke: #000000; stroke-width: 0.6"/>
      </g>
     </g>
    </g>
    <g id="xtick_16">
     <g id="line2d_19">
      <g>
       <use xlink:href="#me8edb105a0" x="308.976551" y="265.0705" style="stroke: #000000; stroke-width: 0.6"/>
      </g>
     </g>
    </g>
    <g id="xtick_17">
     <g id="line2d_20">
      <g>
       <use xlink:href="#me8edb105a0" x="320.099892" y="265.0705" style="stroke: #000000; stroke-width: 0.6"/>
      </g>
     </g>
    </g>
    <g id="xtick_18">
     <g id="line2d_21">
      <g>
       <use xlink:href="#me8edb105a0" x="329.188324" y="265.0705" style="stroke: #000000; stroke-width: 0.6"/>
      </g>
     </g>
    </g>
    <g id="xtick_19">
     <g id="line2d_22">
      <g>
       <use xlink:href="#me8edb105a0" x="336.872484" y="265.0705" style="stroke: #000000; stroke-width: 0.6"/>
      </g>
     </g>
    </g>
    <g id="xtick_20">
     <g id="line2d_23">
      <g>
       <use xlink:href="#me8edb105a0" x="343.528806" y="265.0705" style="stroke: #000000; stroke-width: 0.6"/>
      </g>
     </g>
    </g>
    <g id="xtick_21">
     <g id="line2d_24">
      <g>
       <use xlink:href="#me8edb105a0" x="349.400098" y="265.0705" style="stroke: #000000; stroke-width: 0.6"/>
      </g>
     </g>
    </g>
    <g id="xtick_22">
     <g id="line2d_25">
      <g>
       <use xlink:href="#me8edb105a0" x="389.204403" y="265.0705" style="stroke: #000000; stroke-width: 0.6"/>
      </g>
     </g>
    </g>
    <g id="xtick_23">
     <g id="line2d_26">
      <g>
       <use xlink:href="#me8edb105a0" x="409.416177" y="265.0705" style="stroke: #000000; stroke-width: 0.6"/>
      </g>
     </g>
    </g>
    <g id="xtick_24">
     <g id="line2d_27">
      <g>
       <use xlink:href="#me8edb105a0" x="423.756658" y="265.0705" style="stroke: #000000; stroke-width: 0.6"/>
      </g>
     </g>
    </g>
    <g id="xtick_25">
     <g id="line2d_28">
      <g>
       <use xlink:href="#me8edb105a0" x="434.88" y="265.0705" style="stroke: #000000; stroke-width: 0.6"/>
      </g>
     </g>
    </g>
    <g id="text_4">
     <!-- Frequenz in Hz -->
     <g transform="translate(198.261884 314.06175) scale(0.24 -0.24)">
      <defs>
       <path id="TeXGyreTermes-Regular-46" d="M 3494 3322 
L 3475 4237 
L 77 4237 
L 77 4115 
C 550 4077 634 3987 634 3539 
L 634 768 
C 634 237 563 154 77 122 
L 77 0 
L 1869 0 
L 1869 122 
C 1376 147 1286 237 1286 698 
L 1286 2093 
L 2214 2093 
C 2733 2093 2842 1997 2918 1478 
L 3066 1478 
L 3066 2963 
L 2918 2963 
C 2842 2451 2726 2355 2214 2355 
L 1286 2355 
L 1286 3776 
C 1286 3955 1318 3994 1491 3994 
L 2362 3994 
C 3085 3994 3226 3898 3334 3322 
L 3494 3322 
z
" transform="scale(0.015625)"/>
       <path id="TeXGyreTermes-Regular-72" d="M 2144 2605 
C 2144 2816 2010 2944 1792 2944 
C 1523 2944 1338 2797 1024 2342 
L 1024 2931 
L 992 2944 
C 653 2803 422 2720 45 2598 
L 45 2496 
C 134 2515 192 2522 269 2522 
C 429 2522 486 2419 486 2138 
L 486 538 
C 486 218 442 173 32 96 
L 32 0 
L 1568 0 
L 1568 96 
C 1133 115 1024 211 1024 576 
L 1024 2016 
C 1024 2221 1299 2541 1472 2541 
C 1510 2541 1568 2509 1638 2445 
C 1741 2355 1811 2317 1894 2317 
C 2048 2317 2144 2426 2144 2605 
z
" transform="scale(0.015625)"/>
       <path id="TeXGyreTermes-Regular-65" d="M 2714 1005 
L 2611 1050 
C 2304 563 2029 378 1619 378 
C 1267 378 998 544 813 890 
C 685 1139 634 1363 621 1773 
L 2592 1773 
C 2541 2189 2477 2374 2317 2579 
C 2125 2810 1830 2944 1498 2944 
C 704 2944 160 2304 160 1370 
C 160 486 621 -64 1357 -64 
C 1971 -64 2445 314 2714 1005 
z
M 1939 1978 
L 634 1978 
C 704 2483 922 2714 1312 2714 
C 1702 2714 1856 2534 1939 1978 
z
" transform="scale(0.015625)"/>
       <path id="TeXGyreTermes-Regular-71" d="M 3123 -1389 
L 3123 -1299 
C 2771 -1222 2720 -1171 2720 -902 
L 2720 2925 
L 2650 2925 
L 2304 2720 
C 2010 2893 1818 2950 1568 2950 
C 768 2950 154 2234 154 1312 
C 154 506 576 -64 1178 -64 
C 1549 -64 1901 102 2182 410 
L 2182 -794 
C 2182 -1152 2067 -1248 1613 -1280 
L 1613 -1389 
L 3123 -1389 
z
M 2182 813 
C 2182 659 2157 576 2093 525 
C 1952 403 1741 326 1542 326 
C 1344 326 1171 390 1043 518 
C 838 704 704 1120 704 1542 
C 704 2298 1043 2771 1587 2771 
C 1984 2771 2182 2560 2182 2131 
L 2182 813 
z
" transform="scale(0.015625)"/>
       <path id="TeXGyreTermes-Regular-75" d="M 3066 230 
L 3066 320 
L 3034 320 
C 2739 320 2669 390 2669 685 
L 2669 2880 
L 1658 2880 
L 1658 2771 
C 2054 2752 2131 2688 2131 2368 
L 2131 864 
C 2131 691 2099 595 2022 538 
C 1843 384 1645 307 1446 307 
C 1197 307 992 525 992 794 
L 992 2880 
L 58 2880 
L 58 2790 
C 365 2771 454 2675 454 2381 
L 454 768 
C 454 262 762 -64 1229 -64 
C 1466 -64 1715 38 1888 211 
L 2163 486 
L 2163 -45 
L 2189 -58 
C 2509 70 2739 141 3066 230 
z
" transform="scale(0.015625)"/>
       <path id="TeXGyreTermes-Regular-6e" d="M 3104 0 
L 3104 96 
C 2790 128 2714 205 2714 518 
L 2714 1984 
C 2714 2586 2432 2944 1958 2944 
C 1664 2944 1466 2835 1030 2426 
L 1030 2931 
L 986 2944 
C 672 2829 454 2758 102 2656 
L 102 2547 
C 141 2566 205 2573 275 2573 
C 454 2573 512 2477 512 2163 
L 512 576 
C 512 211 442 122 115 96 
L 115 0 
L 1472 0 
L 1472 96 
C 1146 122 1050 198 1050 429 
L 1050 2227 
C 1357 2515 1498 2592 1709 2592 
C 2022 2592 2176 2394 2176 1971 
L 2176 634 
C 2176 230 2093 122 1773 96 
L 1773 0 
L 3104 0 
z
" transform="scale(0.015625)"/>
       <path id="TeXGyreTermes-Regular-7a" d="M 2675 864 
L 2560 890 
C 2496 570 2458 467 2374 358 
C 2285 250 2067 192 1741 192 
L 858 192 
L 2579 2784 
L 2579 2880 
L 358 2880 
L 339 2125 
L 454 2125 
C 512 2592 608 2688 992 2688 
L 1875 2688 
L 173 96 
L 173 0 
L 2586 0 
L 2675 864 
z
" transform="scale(0.015625)"/>
       <path id="TeXGyreTermes-Regular-20" transform="scale(0.015625)"/>
       <path id="TeXGyreTermes-Regular-69" d="M 1619 0 
L 1619 96 
C 1197 128 1146 192 1146 653 
L 1146 2925 
L 1120 2944 
L 128 2592 
L 128 2496 
L 179 2502 
C 256 2515 339 2522 397 2522 
C 550 2522 608 2419 608 2138 
L 608 653 
C 608 192 544 122 102 96 
L 102 0 
L 1619 0 
z
M 1203 3776 
C 1203 3955 1062 4102 877 4102 
C 698 4102 550 3955 550 3776 
C 550 3590 698 3450 877 3450 
C 1062 3450 1203 3590 1203 3776 
z
" transform="scale(0.015625)"/>
       <path id="TeXGyreTermes-Regular-48" d="M 4493 0 
L 4493 122 
C 4013 160 3930 243 3930 698 
L 3930 3539 
C 3930 4000 4000 4070 4493 4115 
L 4493 4237 
L 2714 4237 
L 2714 4115 
C 3206 4070 3277 4000 3277 3539 
L 3277 2298 
L 1338 2298 
L 1338 3539 
C 1338 4000 1408 4070 1901 4115 
L 1901 4237 
L 122 4237 
L 122 4115 
C 614 4070 685 4000 685 3539 
L 685 768 
C 685 230 621 154 122 122 
L 122 0 
L 1901 0 
L 1901 122 
C 1421 160 1338 243 1338 698 
L 1338 2016 
L 3277 2016 
L 3277 768 
C 3277 230 3213 154 2714 122 
L 2714 0 
L 4493 0 
z
" transform="scale(0.015625)"/>
      </defs>
      <use xlink:href="#TeXGyreTermes-Regular-46"/>
      <use xlink:href="#TeXGyreTermes-Regular-72" transform="translate(55.599991 0)"/>
      <use xlink:href="#TeXGyreTermes-Regular-65" transform="translate(88.899979 0)"/>
      <use xlink:href="#TeXGyreTermes-Regular-71" transform="translate(133.299973 0)"/>
      <use xlink:href="#TeXGyreTermes-Regular-75" transform="translate(183.299957 0)"/>
      <use xlink:href="#TeXGyreTermes-Regular-65" transform="translate(233.299942 0)"/>
      <use xlink:href="#TeXGyreTermes-Regular-6e" transform="translate(277.699936 0)"/>
      <use xlink:href="#TeXGyreTermes-Regular-7a" transform="translate(327.699921 0)"/>
      <use xlink:href="#TeXGyreTermes-Regular-20" transform="translate(372.099915 0)"/>
      <use xlink:href="#TeXGyreTermes-Regular-69" transform="translate(397.099899 0)"/>
      <use xlink:href="#TeXGyreTermes-Regular-6e" transform="translate(424.899887 0)"/>
      <use xlink:href="#TeXGyreTermes-Regular-20" transform="translate(474.899872 0)"/>
      <use xlink:href="#TeXGyreTermes-Regular-48" transform="translate(499.899857 0)"/>
      <use xlink:href="#TeXGyreTermes-Regular-7a" transform="translate(572.099838 0)"/>
     </g>
    </g>
   </g>
   <g id="matplotlib.axis_2">
    <g id="ytick_1">
     <g id="line2d_29">
      <path d="M 109.607519 265.0705 
L 434.88 265.0705 
" clip-path="url(#p414ce9e980)" style="fill: none; stroke: #b0b0b0; stroke-width: 0.8; stroke-linecap: square"/>
     </g>
     <g id="line2d_30">
      <defs>
       <path id="m621025524d" d="M 0 0 
L -3.5 0 
" style="stroke: #000000; stroke-width: 0.8"/>
      </defs>
      <g>
       <use xlink:href="#m621025524d" x="109.607519" y="265.0705" style="stroke: #000000; stroke-width: 0.8"/>
      </g>
     </g>
     <g id="text_5">
      <!-- $\mathdefault{10^{-12}}$ -->
      <g transform="translate(51.487519 273.266125) scale(0.24 -0.24)">
       <defs>
        <path id="TeXGyreTermes-Regular-2212" d="M 3354 1389 
L 3354 1811 
L 256 1811 
L 256 1389 
L 3354 1389 
z
" transform="scale(0.015625)"/>
       </defs>
       <use xlink:href="#TeXGyreTermes-Regular-31" transform="translate(0 0.184375)"/>
       <use xlink:href="#TeXGyreTermes-Regular-30" transform="translate(49.999985 0.184375)"/>
       <use xlink:href="#TeXGyreTermes-Regular-2212" transform="translate(100.787469 31.684375) scale(0.7)"/>
       <use xlink:href="#TeXGyreTermes-Regular-31" transform="translate(140.267465 31.684375) scale(0.7)"/>
       <use xlink:href="#TeXGyreTermes-Regular-32" transform="translate(175.267455 31.684375) scale(0.7)"/>
      </g>
     </g>
    </g>
    <g id="ytick_2">
     <g id="line2d_31">
      <path d="M 109.607519 207.451875 
L 434.88 207.451875 
" clip-path="url(#p414ce9e980)" style="fill: none; stroke: #b0b0b0; stroke-width: 0.8; stroke-linecap: square"/>
     </g>
     <g id="line2d_32">
      <g>
       <use xlink:href="#m621025524d" x="109.607519" y="207.451875" style="stroke: #000000; stroke-width: 0.8"/>
      </g>
     </g>
     <g id="text_6">
      <!-- $\mathdefault{10^{-9}}$ -->
      <g transform="translate(59.887519 215.6475) scale(0.24 -0.24)">
       <defs>
        <path id="TeXGyreTermes-Regular-39" d="M 2938 2522 
C 2938 3578 2349 4326 1523 4326 
C 762 4326 192 3680 192 2816 
C 192 2035 653 1517 1344 1517 
C 1696 1517 1965 1619 2304 1882 
C 2042 838 1331 154 358 -13 
L 378 -141 
C 1094 -58 1446 64 1882 378 
C 2547 864 2938 1658 2938 2522 
z
M 2317 2272 
C 2317 2144 2291 2086 2221 2029 
C 2042 1875 1805 1792 1574 1792 
C 1088 1792 781 2272 781 3034 
C 781 3398 883 3782 1018 3949 
C 1126 4077 1286 4147 1472 4147 
C 2029 4147 2317 3597 2317 2522 
L 2317 2272 
z
" transform="scale(0.015625)"/>
       </defs>
       <use xlink:href="#TeXGyreTermes-Regular-31" transform="translate(0 0.184375)"/>
       <use xlink:href="#TeXGyreTermes-Regular-30" transform="translate(49.999985 0.184375)"/>
       <use xlink:href="#TeXGyreTermes-Regular-2212" transform="translate(100.787469 31.684375) scale(0.7)"/>
       <use xlink:href="#TeXGyreTermes-Regular-39" transform="translate(140.267465 31.684375) scale(0.7)"/>
      </g>
     </g>
    </g>
    <g id="ytick_3">
     <g id="line2d_33">
      <path d="M 109.607519 149.83325 
L 434.88 149.83325 
" clip-path="url(#p414ce9e980)" style="fill: none; stroke: #b0b0b0; stroke-width: 0.8; stroke-linecap: square"/>
     </g>
     <g id="line2d_34">
      <g>
       <use xlink:href="#m621025524d" x="109.607519" y="149.83325" style="stroke: #000000; stroke-width: 0.8"/>
      </g>
     </g>
     <g id="text_7">
      <!-- $\mathdefault{10^{-6}}$ -->
      <g transform="translate(59.887519 158.028875) scale(0.24 -0.24)">
       <defs>
        <path id="TeXGyreTermes-Regular-36" d="M 2995 1402 
C 2995 2221 2528 2739 1792 2739 
C 1510 2739 1376 2694 973 2451 
C 1146 3418 1862 4109 2867 4275 
L 2854 4378 
C 2125 4314 1754 4192 1286 3866 
C 595 3373 218 2643 218 1786 
C 218 1229 390 666 666 346 
C 909 64 1254 -90 1651 -90 
C 2445 -90 2995 518 2995 1402 
z
M 2419 1184 
C 2419 480 2170 90 1722 90 
C 1158 90 813 691 813 1683 
C 813 2010 864 2189 992 2285 
C 1126 2387 1325 2445 1549 2445 
C 2099 2445 2419 1984 2419 1184 
z
" transform="scale(0.015625)"/>
       </defs>
       <use xlink:href="#TeXGyreTermes-Regular-31" transform="translate(0 0.615625)"/>
       <use xlink:href="#TeXGyreTermes-Regular-30" transform="translate(49.999985 0.615625)"/>
       <use xlink:href="#TeXGyreTermes-Regular-2212" transform="translate(100.787469 32.115625) scale(0.7)"/>
       <use xlink:href="#TeXGyreTermes-Regular-36" transform="translate(140.267465 32.115625) scale(0.7)"/>
      </g>
     </g>
    </g>
    <g id="ytick_4">
     <g id="line2d_35">
      <path d="M 109.607519 92.214625 
L 434.88 92.214625 
" clip-path="url(#p414ce9e980)" style="fill: none; stroke: #b0b0b0; stroke-width: 0.8; stroke-linecap: square"/>
     </g>
     <g id="line2d_36">
      <g>
       <use xlink:href="#m621025524d" x="109.607519" y="92.214625" style="stroke: #000000; stroke-width: 0.8"/>
      </g>
     </g>
     <g id="text_8">
      <!-- $\mathdefault{10^{-3}}$ -->
      <g transform="translate(59.887519 100.41025) scale(0.24 -0.24)">
       <defs>
        <path id="TeXGyreTermes-Regular-33" d="M 2765 1402 
C 2765 1728 2662 2029 2477 2227 
C 2349 2368 2227 2445 1946 2566 
C 2387 2867 2547 3104 2547 3450 
C 2547 3968 2138 4326 1549 4326 
C 1229 4326 947 4218 717 4013 
C 525 3840 429 3674 288 3290 
L 384 3264 
C 646 3731 934 3942 1338 3942 
C 1754 3942 2042 3661 2042 3258 
C 2042 3027 1946 2797 1786 2637 
C 1594 2445 1414 2349 979 2195 
L 979 2112 
C 1357 2112 1504 2099 1658 2042 
C 2054 1901 2304 1536 2304 1094 
C 2304 557 1939 141 1466 141 
C 1293 141 1165 186 928 339 
C 736 454 627 499 518 499 
C 371 499 275 410 275 275 
C 275 51 550 -90 998 -90 
C 1491 -90 1997 77 2298 339 
C 2598 602 2765 973 2765 1402 
z
" transform="scale(0.015625)"/>
       </defs>
       <use xlink:href="#TeXGyreTermes-Regular-31" transform="translate(0 0.184375)"/>
       <use xlink:href="#TeXGyreTermes-Regular-30" transform="translate(49.999985 0.184375)"/>
       <use xlink:href="#TeXGyreTermes-Regular-2212" transform="translate(100.787469 31.684375) scale(0.7)"/>
       <use xlink:href="#TeXGyreTermes-Regular-33" transform="translate(140.267465 31.684375) scale(0.7)"/>
      </g>
     </g>
    </g>
    <g id="ytick_5">
     <g id="line2d_37">
      <path d="M 109.607519 34.596 
L 434.88 34.596 
" clip-path="url(#p414ce9e980)" style="fill: none; stroke: #b0b0b0; stroke-width: 0.8; stroke-linecap: square"/>
     </g>
     <g id="line2d_38">
      <g>
       <use xlink:href="#m621025524d" x="109.607519" y="34.596" style="stroke: #000000; stroke-width: 0.8"/>
      </g>
     </g>
     <g id="text_9">
      <!-- $\mathdefault{10^{0}}$ -->
      <g transform="translate(69.247519 42.791625) scale(0.24 -0.24)">
       <use xlink:href="#TeXGyreTermes-Regular-31" transform="translate(0 0.184375)"/>
       <use xlink:href="#TeXGyreTermes-Regular-30" transform="translate(49.999985 0.184375)"/>
       <use xlink:href="#TeXGyreTermes-Regular-30" transform="translate(100.787469 31.684375) scale(0.7)"/>
      </g>
     </g>
    </g>
    <g id="text_10">
     <!-- Leistung -->
     <g transform="translate(42.256269 191.83325) rotate(-90) scale(0.24 -0.24)">
      <defs>
       <path id="TeXGyreTermes-Regular-4c" d="M 3827 1114 
L 3667 1114 
C 3565 890 3482 742 3392 640 
C 3168 371 2816 250 2266 250 
L 1837 250 
C 1370 250 1286 288 1286 512 
L 1286 3539 
C 1286 3994 1376 4083 1882 4115 
L 1882 4237 
L 77 4237 
L 77 4115 
C 550 4077 634 3994 634 3539 
L 634 698 
C 634 243 544 154 77 122 
L 77 0 
L 3520 0 
L 3827 1114 
z
" transform="scale(0.015625)"/>
       <path id="TeXGyreTermes-Regular-73" d="M 2227 755 
C 2227 1075 2080 1286 1690 1517 
L 998 1926 
C 819 2029 723 2189 723 2362 
C 723 2624 922 2797 1216 2797 
C 1581 2797 1773 2586 1920 2010 
L 2016 2010 
L 1990 2880 
L 1920 2880 
L 1907 2867 
C 1850 2822 1843 2816 1818 2816 
C 1779 2816 1715 2829 1645 2861 
C 1510 2912 1363 2938 1210 2938 
C 685 2938 326 2618 326 2150 
C 326 1792 531 1542 1075 1229 
L 1446 1018 
C 1670 890 1779 736 1779 538 
C 1779 256 1574 77 1248 77 
C 806 77 582 320 435 973 
L 333 973 
L 333 -26 
L 416 -26 
C 461 38 486 51 563 51 
C 634 51 704 38 858 0 
C 1037 -38 1197 -64 1331 -64 
C 1818 -64 2227 307 2227 755 
z
" transform="scale(0.015625)"/>
       <path id="TeXGyreTermes-Regular-74" d="M 1786 422 
L 1702 493 
C 1562 326 1459 269 1318 269 
C 1082 269 986 435 986 845 
L 986 2675 
L 1632 2675 
L 1632 2880 
L 986 2880 
L 986 3622 
C 986 3686 973 3706 941 3706 
C 902 3642 858 3584 813 3526 
C 576 3174 358 2938 192 2842 
C 122 2797 83 2758 83 2720 
C 83 2701 90 2688 109 2675 
L 448 2675 
L 448 749 
C 448 211 640 -64 1011 -64 
C 1331 -64 1574 90 1786 422 
z
" transform="scale(0.015625)"/>
       <path id="TeXGyreTermes-Regular-67" d="M 3008 2483 
L 3008 2733 
L 2515 2733 
C 2387 2733 2291 2752 2163 2797 
L 2022 2848 
C 1850 2912 1677 2944 1510 2944 
C 915 2944 442 2483 442 1901 
C 442 1498 614 1254 1037 1043 
L 762 787 
C 550 602 467 474 467 346 
C 467 211 544 134 806 6 
C 352 -326 179 -538 179 -774 
C 179 -1114 678 -1395 1286 -1395 
C 1766 -1395 2266 -1229 2598 -960 
C 2842 -762 2950 -557 2950 -314 
C 2950 83 2650 352 2176 371 
L 1350 410 
C 1011 422 851 480 851 582 
C 851 710 1062 934 1235 986 
C 1293 979 1338 973 1357 973 
C 1478 960 1562 954 1600 954 
C 1837 954 2093 1050 2291 1222 
C 2502 1402 2598 1626 2598 1946 
C 2598 2131 2566 2278 2477 2483 
L 3008 2483 
z
M 2771 -410 
C 2771 -781 2285 -1030 1562 -1030 
C 998 -1030 627 -845 627 -563 
C 627 -416 672 -333 941 -13 
C 1152 -58 1664 -96 1978 -96 
C 2560 -96 2771 -179 2771 -410 
z
M 2106 1696 
C 2106 1338 1920 1114 1626 1114 
C 1242 1114 973 1530 973 2144 
L 973 2163 
C 973 2541 1152 2765 1446 2765 
C 1645 2765 1811 2656 1914 2464 
C 2029 2240 2106 1946 2106 1696 
z
" transform="scale(0.015625)"/>
      </defs>
      <use xlink:href="#TeXGyreTermes-Regular-4c"/>
      <use xlink:href="#TeXGyreTermes-Regular-65" transform="translate(61.099991 0)"/>
      <use xlink:href="#TeXGyreTermes-Regular-69" transform="translate(105.499985 0)"/>
      <use xlink:href="#TeXGyreTermes-Regular-73" transform="translate(133.299973 0)"/>
      <use xlink:href="#TeXGyreTermes-Regular-74" transform="translate(172.199966 0)"/>
      <use xlink:href="#TeXGyreTermes-Regular-75" transform="translate(199.999954 0)"/>
      <use xlink:href="#TeXGyreTermes-Regular-6e" transform="translate(249.999939 0)"/>
      <use xlink:href="#TeXGyreTermes-Regular-67" transform="translate(299.999924 0)"/>
     </g>
    </g>
   </g>
   <g id="line2d_39">
    <path d="M -1 88.665326 
L 125.091932 88.660183 
L 159.644188 98.121394 
L 179.855961 102.536515 
L 194.196443 85.224686 
L 205.319785 98.506092 
L 214.408217 90.957866 
L 222.092376 92.06356 
L 228.748698 91.246447 
L 234.61999 87.260285 
L 239.87204 93.922696 
L 244.623097 98.139588 
L 248.960472 95.839034 
L 252.95047 91.827724 
L 256.644632 114.229806 
L 260.083814 100.064133 
L 263.300954 118.108507 
L 266.322992 101.157286 
L 269.172246 105.329116 
L 271.867408 95.91971 
L 274.424295 95.155243 
L 276.856405 86.724137 
L 279.175352 79.681958 
L 281.3912 92.659317 
L 283.512727 92.429206 
L 285.547637 78.786742 
L 289.384019 91.091694 
L 291.196887 92.599577 
L 292.946132 129.749405 
L 294.636069 88.336906 
L 296.270588 121.989899 
L 297.853209 103.876862 
L 299.387126 114.009466 
L 300.875247 83.644936 
L 302.320229 84.585018 
L 303.724501 107.931468 
L 305.090295 93.606854 
L 306.419664 104.111983 
L 307.714499 104.988739 
L 308.976551 92.645751 
L 310.207437 84.894467 
L 311.408661 101.132222 
L 312.581618 78.04396 
L 313.727608 86.986732 
L 314.847843 107.551158 
L 315.943455 105.84843 
L 317.015505 114.063171 
L 318.064983 101.935613 
L 319.09282 94.080359 
L 320.099892 95.962025 
L 321.087021 99.491173 
L 322.054981 84.839948 
L 323.004502 109.731894 
L 323.936275 106.880959 
L 324.850949 106.149295 
L 325.749142 97.732999 
L 326.631437 104.059428 
L 327.498387 96.921715 
L 328.350517 88.537986 
L 329.188324 117.602622 
L 330.012283 101.337491 
L 330.822843 97.045616 
L 331.620434 88.044967 
L 332.405464 91.48866 
L 333.178323 97.681746 
L 333.939381 90.767574 
L 334.688995 100.957623 
L 335.427503 118.743035 
L 336.155229 115.192667 
L 336.872484 109.679005 
L 338.276756 91.167258 
L 338.964331 84.529974 
L 339.64255 86.207203 
L 340.311666 88.238843 
L 340.971919 93.676638 
L 341.623541 85.667316 
L 342.266755 93.610842 
L 342.901774 97.487162 
L 343.528806 92.401711 
L 344.148048 111.244875 
L 344.759692 93.03191 
L 345.363922 87.321938 
L 345.960916 100.853787 
L 346.550844 128.845566 
L 347.133873 81.357452 
L 347.710161 86.908678 
L 348.279863 111.146644 
L 348.843127 84.096774 
L 349.400098 109.159002 
L 349.950914 111.682999 
L 350.495711 96.15302 
L 351.034617 110.601367 
L 351.56776 88.950783 
L 352.095261 78.084773 
L 352.617238 103.550951 
L 353.133806 103.625549 
L 353.645076 99.014874 
L 354.151155 100.698591 
L 354.652148 114.893586 
L 355.148155 90.632439 
L 356.125606 102.258634 
L 356.607236 93.091871 
L 357.084258 92.590088 
L 357.556758 118.193392 
L 358.024821 87.014233 
L 358.48853 117.643945 
L 358.947965 96.679587 
L 359.403205 92.600686 
L 359.854324 92.553888 
L 360.301398 93.267656 
L 360.744497 108.902063 
L 361.183693 85.71447 
L 361.619052 97.076122 
L 362.050643 96.189748 
L 362.478528 97.11979 
L 362.902772 91.362653 
L 363.323436 90.987826 
L 363.74058 82.345687 
L 364.154261 97.748409 
L 364.564538 100.065294 
L 364.971466 85.16839 
L 365.375099 106.625276 
L 365.775489 104.265531 
L 366.17269 103.639111 
L 366.56675 118.074568 
L 366.95772 96.704115 
L 367.345647 97.552463 
L 367.730578 85.404083 
L 368.11256 92.48199 
L 368.491636 91.21113 
L 368.867852 95.08166 
L 369.24125 88.645752 
L 369.611872 103.420234 
L 369.979758 84.674599 
L 370.344949 109.161992 
L 370.707484 113.016427 
L 371.067402 114.406319 
L 371.424739 111.145295 
L 371.779533 83.234625 
L 372.13182 91.514387 
L 372.481635 104.560833 
L 372.829012 81.11408 
L 373.516586 104.084508 
L 373.856849 92.470136 
L 374.194806 91.725039 
L 374.530486 92.339896 
L 374.863921 97.173787 
L 375.195141 108.079945 
L 375.85105 82.643194 
L 376.175796 97.026795 
L 376.49844 86.243901 
L 376.81901 88.844333 
L 377.137531 97.850653 
L 377.45403 98.126522 
L 377.768531 99.989682 
L 378.081061 86.121916 
L 378.700304 90.661008 
L 379.007064 90.837897 
L 379.311948 102.461027 
L 379.614978 80.672774 
L 379.916178 95.590166 
L 380.215568 103.568542 
L 380.513171 89.981347 
L 380.809008 90.05741 
L 381.1031 79.075757 
L 381.395466 118.556239 
L 381.686128 93.966426 
L 381.975105 109.659376 
L 382.262416 87.956659 
L 382.548081 115.369021 
L 382.832118 90.363191 
L 383.114546 101.233601 
L 383.674646 91.767611 
L 383.952353 99.774371 
L 384.228522 87.309405 
L 384.50317 104.089617 
L 384.776312 88.109595 
L 385.586872 80.543099 
L 385.854157 107.677711 
L 386.120015 95.466914 
L 386.384463 100.513487 
L 386.647516 120.332998 
L 386.909188 94.714145 
L 387.169493 92.152517 
L 387.428446 118.811491 
L 387.686061 98.220899 
L 387.942352 87.26374 
L 388.197331 95.751623 
L 388.70341 101.839913 
L 388.954536 95.376756 
L 389.204403 91.997904 
L 389.453024 92.718694 
L 389.700411 87.18345 
L 389.946576 90.05803 
L 390.435289 102.574933 
L 390.677861 91.081376 
L 390.919258 95.53527 
L 391.159492 92.192712 
L 391.398573 103.90665 
L 391.636513 88.455667 
L 391.873323 93.733607 
L 392.109013 82.496835 
L 392.577076 92.919796 
L 392.80947 98.528384 
L 393.040785 89.64599 
L 393.271032 89.893853 
L 393.50022 107.572556 
L 393.72836 91.200679 
L 393.95546 92.120062 
L 394.18153 95.744493 
L 394.406579 88.683843 
L 394.853653 109.72618 
L 395.075695 85.394459 
L 395.296752 110.284092 
L 395.516834 94.98074 
L 395.735948 95.963204 
L 395.954103 94.032733 
L 396.171308 86.826804 
L 396.602898 98.58915 
L 396.8173 80.840789 
L 397.030784 83.707582 
L 397.243357 78.67644 
L 397.455028 94.902241 
L 397.665803 96.941267 
L 397.875691 106.764185 
L 398.084699 84.197234 
L 398.292835 90.440317 
L 398.500105 110.193044 
L 398.706517 111.677322 
L 398.912077 86.148863 
L 399.320673 99.63762 
L 399.523721 97.462225 
L 399.725946 88.748154 
L 399.927354 101.235988 
L 400.127951 90.973478 
L 400.327745 86.626407 
L 400.52674 108.298713 
L 400.724945 92.836097 
L 400.922364 105.922355 
L 401.119005 101.803606 
L 401.314873 90.388203 
L 401.509975 111.559949 
L 401.704316 96.404734 
L 401.897902 121.829635 
L 402.090739 93.454311 
L 402.282833 109.963227 
L 402.664815 86.007328 
L 402.854714 99.809945 
L 403.043892 86.293573 
L 403.232355 124.404514 
L 403.607156 89.432803 
L 403.793505 103.544401 
L 404.164127 79.38654 
L 404.532013 98.174621 
L 404.714943 101.608881 
L 404.897204 89.181231 
L 405.078802 94.959248 
L 405.25974 90.563788 
L 405.440023 79.429151 
L 405.619657 103.707589 
L 405.798646 90.794859 
L 405.976995 96.749567 
L 406.154707 98.562068 
L 406.331789 93.196576 
L 406.508243 98.909202 
L 406.684076 88.128422 
L 406.85929 86.972529 
L 407.03389 77.367589 
L 407.207881 92.862206 
L 407.381267 96.76055 
L 407.554052 86.909457 
L 407.72624 126.451792 
L 407.897835 94.461607 
L 408.068841 88.062313 
L 408.239263 90.753805 
L 408.409105 100.511851 
L 408.747061 89.196117 
L 408.915184 81.02151 
L 409.082742 95.58793 
L 409.249738 85.961878 
L 409.416177 83.662619 
L 409.582062 96.307305 
L 409.747396 97.519122 
L 410.07643 115.323256 
L 410.240135 115.779797 
L 410.403305 96.726361 
L 410.565943 109.250323 
L 410.728051 130.543406 
L 410.889635 85.082336 
L 411.211238 109.838813 
L 411.53078 81.928698 
L 411.689786 81.88938 
L 411.848287 86.011611 
L 412.006285 85.487703 
L 412.163784 100.561698 
L 412.320787 85.940116 
L 412.477297 86.435092 
L 412.633317 93.320537 
L 412.78885 105.988876 
L 412.943899 82.220945 
L 413.098468 86.354707 
L 413.252559 108.639687 
L 413.406175 92.813577 
L 413.559319 94.56943 
L 413.711994 94.841119 
L 413.864203 93.581536 
L 414.015949 88.301817 
L 414.167234 97.506221 
L 414.318061 93.821042 
L 414.468433 87.309192 
L 414.767824 113.233356 
L 415.065427 98.64905 
L 415.213564 91.284477 
L 415.361263 107.881892 
L 415.508526 92.707231 
L 415.655355 101.8787 
L 415.947722 83.192128 
L 416.093264 113.923942 
L 416.383081 96.480776 
L 416.52736 102.216734 
L 416.671223 81.466331 
L 416.814672 92.573185 
L 416.957709 94.773893 
L 417.100336 88.812571 
L 417.242557 89.267702 
L 417.384373 90.398795 
L 417.525787 106.945248 
L 417.666801 95.086197 
L 417.807417 98.101835 
L 417.947638 89.353244 
L 418.226901 110.089658 
L 418.504609 92.819906 
L 418.642884 95.106464 
L 418.780778 94.594301 
L 418.91829 89.882154 
L 419.055425 99.935989 
L 419.192183 96.661814 
L 419.328567 96.515441 
L 419.464579 104.750772 
L 419.600221 88.037114 
L 419.870403 102.09266 
L 420.139128 89.197047 
L 420.272949 101.67926 
L 420.406412 98.318555 
L 420.67227 86.112047 
L 420.80467 93.599557 
L 421.068418 94.780744 
L 421.199771 105.318833 
L 421.330779 102.574367 
L 421.591766 90.444606 
L 421.721748 101.11725 
L 421.851393 99.312702 
L 421.980702 104.620805 
L 422.109675 98.24179 
L 422.238317 78.899202 
L 422.494607 123.401163 
L 422.62226 113.323325 
L 422.876589 81.774281 
L 423.003268 95.8696 
L 423.255665 83.245326 
L 423.381386 87.847149 
L 423.506791 102.294573 
L 423.756658 88.566089 
L 424.005279 104.425209 
L 424.375901 87.031443 
L 424.498831 95.140079 
L 424.62146 113.91059 
L 424.743787 93.940855 
L 424.865815 92.934743 
L 424.987545 107.702446 
L 425.108978 103.901663 
L 425.230116 88.73664 
L 425.350961 101.233819 
L 425.471513 91.745344 
L 425.831431 119.887907 
L 425.950828 101.750731 
L 426.06994 106.151952 
L 426.188768 121.692337 
L 426.307314 90.291139 
L 426.425578 107.35972 
L 426.543562 86.750532 
L 426.661268 99.192707 
L 426.778697 86.27716 
L 426.895849 97.096358 
L 427.012727 86.950037 
L 427.129331 94.423354 
L 427.361725 86.617381 
L 427.477517 103.65194 
L 427.708297 91.38886 
L 427.823287 106.998092 
L 428.052476 84.91297 
L 428.166676 107.742413 
L 428.280615 87.264207 
L 428.394294 114.992587 
L 428.620878 91.79297 
L 428.733785 102.908759 
L 428.846437 92.451087 
L 429.07098 100.190634 
L 429.182873 92.38834 
L 429.294515 92.3676 
L 429.405908 96.284722 
L 429.517053 95.771286 
L 429.738602 91.330855 
L 429.849008 94.238314 
L 429.95917 106.505627 
L 430.069089 91.13489 
L 430.178767 93.378061 
L 430.3974 85.123412 
L 430.615079 98.046279 
L 430.723563 86.074889 
L 431.155153 102.148604 
L 431.476411 94.496219 
L 431.583039 98.372836 
L 431.689439 138.793702 
L 431.795612 100.665474 
L 431.90156 108.615232 
L 432.112782 92.009269 
L 432.218058 88.095002 
L 432.427947 104.979622 
L 432.53256 83.703454 
L 432.741131 97.792749 
L 432.948833 88.448867 
L 433.05236 105.029564 
L 433.258772 90.371028 
L 433.361658 92.87564 
L 433.464333 86.073734 
L 433.566796 100.586217 
L 433.669049 91.281421 
L 433.872928 105.793109 
L 434.075977 87.242125 
L 434.177192 101.795401 
L 434.278202 90.015766 
L 434.379007 104.041778 
L 434.479609 98.979932 
L 434.580009 100.54159 
L 434.680207 99.509121 
L 434.780203 103.807271 
L 434.780203 103.807271 
" clip-path="url(#p414ce9e980)" style="fill: none; stroke: #1f77b4; stroke-width: 1.5; stroke-linecap: square"/>
   </g>
   <g id="patch_3">
    <path d="M 109.607519 265.0705 
L 109.607519 34.596 
" style="fill: none; stroke: #000000; stroke-width: 0.8; stroke-linejoin: miter; stroke-linecap: square"/>
   </g>
   <g id="patch_4">
    <path d="M 434.88 265.0705 
L 434.88 34.596 
" style="fill: none; stroke: #000000; stroke-width: 0.8; stroke-linejoin: miter; stroke-linecap: square"/>
   </g>
   <g id="patch_5">
    <path d="M 109.607519 265.0705 
L 434.88 265.0705 
" style="fill: none; stroke: #000000; stroke-width: 0.8; stroke-linejoin: miter; stroke-linecap: square"/>
   </g>
   <g id="patch_6">
    <path d="M 109.607519 34.596 
L 434.88 34.596 
" style="fill: none; stroke: #000000; stroke-width: 0.8; stroke-linejoin: miter; stroke-linecap: square"/>
   </g>
  </g>
 </g>
 <defs>
  <clipPath id="p414ce9e980">
   <rect x="109.607519" y="34.596" width="325.272481" height="230.4745"/>
  </clipPath>
 </defs>
</svg>
