<?xml version="1.0" encoding="utf-8" standalone="no"?>
<!DOCTYPE svg PUBLIC "-//W3C//DTD SVG 1.1//EN"
  "http://www.w3.org/Graphics/SVG/1.1/DTD/svg11.dtd">
<svg xmlns:xlink="http://www.w3.org/1999/xlink" width="460.8pt" height="345.6pt" viewBox="0 0 460.8 345.6" xmlns="http://www.w3.org/2000/svg" version="1.1">
 <metadata>
  <rdf:RDF xmlns:dc="http://purl.org/dc/elements/1.1/" xmlns:cc="http://creativecommons.org/ns#" xmlns:rdf="http://www.w3.org/1999/02/22-rdf-syntax-ns#">
   <cc:Work>
    <dc:type rdf:resource="http://purl.org/dc/dcmitype/StillImage"/>
    <dc:date>2025-12-03T12:16:55.776592</dc:date>
    <dc:format>image/svg+xml</dc:format>
    <dc:creator>
     <cc:Agent>
      <dc:title>Matplotlib v3.10.6, https://matplotlib.org/</dc:title>
     </cc:Agent>
    </dc:creator>
   </cc:Work>
  </rdf:RDF>
 </metadata>
 <defs>
  <style type="text/css">*{stroke-linejoin: round; stroke-linecap: butt}</style>
 </defs>
 <g id="figure_1">
  <g id="patch_1">
   <path d="M 0 345.6 
L 460.8 345.6 
L 460.8 0 
L 0 0 
z
" style="fill: #ffffff"/>
  </g>
  <g id="axes_1">
   <g id="patch_2">
    <path d="M 57.6 307.584 
L 414.72 307.584 
L 414.72 41.472 
L 57.6 41.472 
z
" style="fill: #ffffff"/>
   </g>
   <g id="matplotlib.axis_1">
    <g id="xtick_1">
     <g id="line2d_1">
      <defs>
       <path id="ma79059fc3c" d="M 0 0 
L 0 3.5 
" style="stroke: #000000; stroke-width: 0.8"/>
      </defs>
      <g>
       <use xlink:href="#ma79059fc3c" x="73.832727" y="307.584" style="stroke: #000000; stroke-width: 0.8"/>
      </g>
     </g>
     <g id="text_1">
      <!-- $\mathdefault{10^{0}}$ -->
      <g transform="translate(65.032727 322.182437) scale(0.1 -0.1)">
       <defs>
        <path id="DejaVuSans-31" d="M 794 531 
L 1825 531 
L 1825 4091 
L 703 3866 
L 703 4441 
L 1819 4666 
L 2450 4666 
L 2450 531 
L 3481 531 
L 3481 0 
L 794 0 
L 794 531 
z
" transform="scale(0.015625)"/>
        <path id="DejaVuSans-30" d="M 2034 4250 
Q 1547 4250 1301 3770 
Q 1056 3291 1056 2328 
Q 1056 1369 1301 889 
Q 1547 409 2034 409 
Q 2525 409 2770 889 
Q 3016 1369 3016 2328 
Q 3016 3291 2770 3770 
Q 2525 4250 2034 4250 
z
M 2034 4750 
Q 2819 4750 3233 4129 
Q 3647 3509 3647 2328 
Q 3647 1150 3233 529 
Q 2819 -91 2034 -91 
Q 1250 -91 836 529 
Q 422 1150 422 2328 
Q 422 3509 836 4129 
Q 1250 4750 2034 4750 
z
" transform="scale(0.015625)"/>
       </defs>
       <use xlink:href="#DejaVuSans-31" transform="translate(0 0.765625)"/>
       <use xlink:href="#DejaVuSans-30" transform="translate(63.623047 0.765625)"/>
       <use xlink:href="#DejaVuSans-30" transform="translate(128.203125 39.046875) scale(0.7)"/>
      </g>
     </g>
    </g>
    <g id="xtick_2">
     <g id="line2d_2">
      <g>
       <use xlink:href="#ma79059fc3c" x="194.159802" y="307.584" style="stroke: #000000; stroke-width: 0.8"/>
      </g>
     </g>
     <g id="text_2">
      <!-- $\mathdefault{10^{1}}$ -->
      <g transform="translate(185.359802 322.182437) scale(0.1 -0.1)">
       <use xlink:href="#DejaVuSans-31" transform="translate(0 0.684375)"/>
       <use xlink:href="#DejaVuSans-30" transform="translate(63.623047 0.684375)"/>
       <use xlink:href="#DejaVuSans-31" transform="translate(128.203125 38.965625) scale(0.7)"/>
      </g>
     </g>
    </g>
    <g id="xtick_3">
     <g id="line2d_3">
      <g>
       <use xlink:href="#ma79059fc3c" x="314.486876" y="307.584" style="stroke: #000000; stroke-width: 0.8"/>
      </g>
     </g>
     <g id="text_3">
      <!-- $\mathdefault{10^{2}}$ -->
      <g transform="translate(305.686876 322.182437) scale(0.1 -0.1)">
       <defs>
        <path id="DejaVuSans-32" d="M 1228 531 
L 3431 531 
L 3431 0 
L 469 0 
L 469 531 
Q 828 903 1448 1529 
Q 2069 2156 2228 2338 
Q 2531 2678 2651 2914 
Q 2772 3150 2772 3378 
Q 2772 3750 2511 3984 
Q 2250 4219 1831 4219 
Q 1534 4219 1204 4116 
Q 875 4013 500 3803 
L 500 4441 
Q 881 4594 1212 4672 
Q 1544 4750 1819 4750 
Q 2544 4750 2975 4387 
Q 3406 4025 3406 3419 
Q 3406 3131 3298 2873 
Q 3191 2616 2906 2266 
Q 2828 2175 2409 1742 
Q 1991 1309 1228 531 
z
" transform="scale(0.015625)"/>
       </defs>
       <use xlink:href="#DejaVuSans-31" transform="translate(0 0.765625)"/>
       <use xlink:href="#DejaVuSans-30" transform="translate(63.623047 0.765625)"/>
       <use xlink:href="#DejaVuSans-32" transform="translate(128.203125 39.046875) scale(0.7)"/>
      </g>
     </g>
    </g>
    <g id="xtick_4">
     <g id="line2d_4">
      <defs>
       <path id="m71ee2ae71e" d="M 0 0 
L 0 2 
" style="stroke: #000000; stroke-width: 0.6"/>
      </defs>
      <g>
       <use xlink:href="#m71ee2ae71e" x="62.171829" y="307.584" style="stroke: #000000; stroke-width: 0.6"/>
      </g>
     </g>
    </g>
    <g id="xtick_5">
     <g id="line2d_5">
      <g>
       <use xlink:href="#m71ee2ae71e" x="68.326862" y="307.584" style="stroke: #000000; stroke-width: 0.6"/>
      </g>
     </g>
    </g>
    <g id="xtick_6">
     <g id="line2d_6">
      <g>
       <use xlink:href="#m71ee2ae71e" x="110.054786" y="307.584" style="stroke: #000000; stroke-width: 0.6"/>
      </g>
     </g>
    </g>
    <g id="xtick_7">
     <g id="line2d_7">
      <g>
       <use xlink:href="#m71ee2ae71e" x="131.243332" y="307.584" style="stroke: #000000; stroke-width: 0.6"/>
      </g>
     </g>
    </g>
    <g id="xtick_8">
     <g id="line2d_8">
      <g>
       <use xlink:href="#m71ee2ae71e" x="146.276845" y="307.584" style="stroke: #000000; stroke-width: 0.6"/>
      </g>
     </g>
    </g>
    <g id="xtick_9">
     <g id="line2d_9">
      <g>
       <use xlink:href="#m71ee2ae71e" x="157.937743" y="307.584" style="stroke: #000000; stroke-width: 0.6"/>
      </g>
     </g>
    </g>
    <g id="xtick_10">
     <g id="line2d_10">
      <g>
       <use xlink:href="#m71ee2ae71e" x="167.465391" y="307.584" style="stroke: #000000; stroke-width: 0.6"/>
      </g>
     </g>
    </g>
    <g id="xtick_11">
     <g id="line2d_11">
      <g>
       <use xlink:href="#m71ee2ae71e" x="175.520902" y="307.584" style="stroke: #000000; stroke-width: 0.6"/>
      </g>
     </g>
    </g>
    <g id="xtick_12">
     <g id="line2d_12">
      <g>
       <use xlink:href="#m71ee2ae71e" x="182.498903" y="307.584" style="stroke: #000000; stroke-width: 0.6"/>
      </g>
     </g>
    </g>
    <g id="xtick_13">
     <g id="line2d_13">
      <g>
       <use xlink:href="#m71ee2ae71e" x="188.653937" y="307.584" style="stroke: #000000; stroke-width: 0.6"/>
      </g>
     </g>
    </g>
    <g id="xtick_14">
     <g id="line2d_14">
      <g>
       <use xlink:href="#m71ee2ae71e" x="230.381861" y="307.584" style="stroke: #000000; stroke-width: 0.6"/>
      </g>
     </g>
    </g>
    <g id="xtick_15">
     <g id="line2d_15">
      <g>
       <use xlink:href="#m71ee2ae71e" x="251.570407" y="307.584" style="stroke: #000000; stroke-width: 0.6"/>
      </g>
     </g>
    </g>
    <g id="xtick_16">
     <g id="line2d_16">
      <g>
       <use xlink:href="#m71ee2ae71e" x="266.603919" y="307.584" style="stroke: #000000; stroke-width: 0.6"/>
      </g>
     </g>
    </g>
    <g id="xtick_17">
     <g id="line2d_17">
      <g>
       <use xlink:href="#m71ee2ae71e" x="278.264818" y="307.584" style="stroke: #000000; stroke-width: 0.6"/>
      </g>
     </g>
    </g>
    <g id="xtick_18">
     <g id="line2d_18">
      <g>
       <use xlink:href="#m71ee2ae71e" x="287.792465" y="307.584" style="stroke: #000000; stroke-width: 0.6"/>
      </g>
     </g>
    </g>
    <g id="xtick_19">
     <g id="line2d_19">
      <g>
       <use xlink:href="#m71ee2ae71e" x="295.847977" y="307.584" style="stroke: #000000; stroke-width: 0.6"/>
      </g>
     </g>
    </g>
    <g id="xtick_20">
     <g id="line2d_20">
      <g>
       <use xlink:href="#m71ee2ae71e" x="302.825978" y="307.584" style="stroke: #000000; stroke-width: 0.6"/>
      </g>
     </g>
    </g>
    <g id="xtick_21">
     <g id="line2d_21">
      <g>
       <use xlink:href="#m71ee2ae71e" x="308.981011" y="307.584" style="stroke: #000000; stroke-width: 0.6"/>
      </g>
     </g>
    </g>
    <g id="xtick_22">
     <g id="line2d_22">
      <g>
       <use xlink:href="#m71ee2ae71e" x="350.708935" y="307.584" style="stroke: #000000; stroke-width: 0.6"/>
      </g>
     </g>
    </g>
    <g id="xtick_23">
     <g id="line2d_23">
      <g>
       <use xlink:href="#m71ee2ae71e" x="371.897481" y="307.584" style="stroke: #000000; stroke-width: 0.6"/>
      </g>
     </g>
    </g>
    <g id="xtick_24">
     <g id="line2d_24">
      <g>
       <use xlink:href="#m71ee2ae71e" x="386.930994" y="307.584" style="stroke: #000000; stroke-width: 0.6"/>
      </g>
     </g>
    </g>
    <g id="xtick_25">
     <g id="line2d_25">
      <g>
       <use xlink:href="#m71ee2ae71e" x="398.591892" y="307.584" style="stroke: #000000; stroke-width: 0.6"/>
      </g>
     </g>
    </g>
    <g id="xtick_26">
     <g id="line2d_26">
      <g>
       <use xlink:href="#m71ee2ae71e" x="408.11954" y="307.584" style="stroke: #000000; stroke-width: 0.6"/>
      </g>
     </g>
    </g>
    <g id="text_4">
     <!-- Frequenz in Hz -->
     <g transform="translate(205.334219 335.091813) scale(0.1 -0.1)">
      <defs>
       <path id="TeXGyreTermes-Regular-46" d="M 3494 3322 
L 3475 4237 
L 77 4237 
L 77 4115 
C 550 4077 634 3987 634 3539 
L 634 768 
C 634 237 563 154 77 122 
L 77 0 
L 1869 0 
L 1869 122 
C 1376 147 1286 237 1286 698 
L 1286 2093 
L 2214 2093 
C 2733 2093 2842 1997 2918 1478 
L 3066 1478 
L 3066 2963 
L 2918 2963 
C 2842 2451 2726 2355 2214 2355 
L 1286 2355 
L 1286 3776 
C 1286 3955 1318 3994 1491 3994 
L 2362 3994 
C 3085 3994 3226 3898 3334 3322 
L 3494 3322 
z
" transform="scale(0.015625)"/>
       <path id="TeXGyreTermes-Regular-72" d="M 2144 2605 
C 2144 2816 2010 2944 1792 2944 
C 1523 2944 1338 2797 1024 2342 
L 1024 2931 
L 992 2944 
C 653 2803 422 2720 45 2598 
L 45 2496 
C 134 2515 192 2522 269 2522 
C 429 2522 486 2419 486 2138 
L 486 538 
C 486 218 442 173 32 96 
L 32 0 
L 1568 0 
L 1568 96 
C 1133 115 1024 211 1024 576 
L 1024 2016 
C 1024 2221 1299 2541 1472 2541 
C 1510 2541 1568 2509 1638 2445 
C 1741 2355 1811 2317 1894 2317 
C 2048 2317 2144 2426 2144 2605 
z
" transform="scale(0.015625)"/>
       <path id="TeXGyreTermes-Regular-65" d="M 2714 1005 
L 2611 1050 
C 2304 563 2029 378 1619 378 
C 1267 378 998 544 813 890 
C 685 1139 634 1363 621 1773 
L 2592 1773 
C 2541 2189 2477 2374 2317 2579 
C 2125 2810 1830 2944 1498 2944 
C 704 2944 160 2304 160 1370 
C 160 486 621 -64 1357 -64 
C 1971 -64 2445 314 2714 1005 
z
M 1939 1978 
L 634 1978 
C 704 2483 922 2714 1312 2714 
C 1702 2714 1856 2534 1939 1978 
z
" transform="scale(0.015625)"/>
       <path id="TeXGyreTermes-Regular-71" d="M 3123 -1389 
L 3123 -1299 
C 2771 -1222 2720 -1171 2720 -902 
L 2720 2925 
L 2650 2925 
L 2304 2720 
C 2010 2893 1818 2950 1568 2950 
C 768 2950 154 2234 154 1312 
C 154 506 576 -64 1178 -64 
C 1549 -64 1901 102 2182 410 
L 2182 -794 
C 2182 -1152 2067 -1248 1613 -1280 
L 1613 -1389 
L 3123 -1389 
z
M 2182 813 
C 2182 659 2157 576 2093 525 
C 1952 403 1741 326 1542 326 
C 1344 326 1171 390 1043 518 
C 838 704 704 1120 704 1542 
C 704 2298 1043 2771 1587 2771 
C 1984 2771 2182 2560 2182 2131 
L 2182 813 
z
" transform="scale(0.015625)"/>
       <path id="TeXGyreTermes-Regular-75" d="M 3066 230 
L 3066 320 
L 3034 320 
C 2739 320 2669 390 2669 685 
L 2669 2880 
L 1658 2880 
L 1658 2771 
C 2054 2752 2131 2688 2131 2368 
L 2131 864 
C 2131 691 2099 595 2022 538 
C 1843 384 1645 307 1446 307 
C 1197 307 992 525 992 794 
L 992 2880 
L 58 2880 
L 58 2790 
C 365 2771 454 2675 454 2381 
L 454 768 
C 454 262 762 -64 1229 -64 
C 1466 -64 1715 38 1888 211 
L 2163 486 
L 2163 -45 
L 2189 -58 
C 2509 70 2739 141 3066 230 
z
" transform="scale(0.015625)"/>
       <path id="TeXGyreTermes-Regular-6e" d="M 3104 0 
L 3104 96 
C 2790 128 2714 205 2714 518 
L 2714 1984 
C 2714 2586 2432 2944 1958 2944 
C 1664 2944 1466 2835 1030 2426 
L 1030 2931 
L 986 2944 
C 672 2829 454 2758 102 2656 
L 102 2547 
C 141 2566 205 2573 275 2573 
C 454 2573 512 2477 512 2163 
L 512 576 
C 512 211 442 122 115 96 
L 115 0 
L 1472 0 
L 1472 96 
C 1146 122 1050 198 1050 429 
L 1050 2227 
C 1357 2515 1498 2592 1709 2592 
C 2022 2592 2176 2394 2176 1971 
L 2176 634 
C 2176 230 2093 122 1773 96 
L 1773 0 
L 3104 0 
z
" transform="scale(0.015625)"/>
       <path id="TeXGyreTermes-Regular-7a" d="M 2675 864 
L 2560 890 
C 2496 570 2458 467 2374 358 
C 2285 250 2067 192 1741 192 
L 858 192 
L 2579 2784 
L 2579 2880 
L 358 2880 
L 339 2125 
L 454 2125 
C 512 2592 608 2688 992 2688 
L 1875 2688 
L 173 96 
L 173 0 
L 2586 0 
L 2675 864 
z
" transform="scale(0.015625)"/>
       <path id="TeXGyreTermes-Regular-20" transform="scale(0.015625)"/>
       <path id="TeXGyreTermes-Regular-69" d="M 1619 0 
L 1619 96 
C 1197 128 1146 192 1146 653 
L 1146 2925 
L 1120 2944 
L 128 2592 
L 128 2496 
L 179 2502 
C 256 2515 339 2522 397 2522 
C 550 2522 608 2419 608 2138 
L 608 653 
C 608 192 544 122 102 96 
L 102 0 
L 1619 0 
z
M 1203 3776 
C 1203 3955 1062 4102 877 4102 
C 698 4102 550 3955 550 3776 
C 550 3590 698 3450 877 3450 
C 1062 3450 1203 3590 1203 3776 
z
" transform="scale(0.015625)"/>
       <path id="TeXGyreTermes-Regular-48" d="M 4493 0 
L 4493 122 
C 4013 160 3930 243 3930 698 
L 3930 3539 
C 3930 4000 4000 4070 4493 4115 
L 4493 4237 
L 2714 4237 
L 2714 4115 
C 3206 4070 3277 4000 3277 3539 
L 3277 2298 
L 1338 2298 
L 1338 3539 
C 1338 4000 1408 4070 1901 4115 
L 1901 4237 
L 122 4237 
L 122 4115 
C 614 4070 685 4000 685 3539 
L 685 768 
C 685 230 621 154 122 122 
L 122 0 
L 1901 0 
L 1901 122 
C 1421 160 1338 243 1338 698 
L 1338 2016 
L 3277 2016 
L 3277 768 
C 3277 230 3213 154 2714 122 
L 2714 0 
L 4493 0 
z
" transform="scale(0.015625)"/>
      </defs>
      <use xlink:href="#TeXGyreTermes-Regular-46"/>
      <use xlink:href="#TeXGyreTermes-Regular-72" transform="translate(55.599991 0)"/>
      <use xlink:href="#TeXGyreTermes-Regular-65" transform="translate(88.899979 0)"/>
      <use xlink:href="#TeXGyreTermes-Regular-71" transform="translate(133.299973 0)"/>
      <use xlink:href="#TeXGyreTermes-Regular-75" transform="translate(183.299957 0)"/>
      <use xlink:href="#TeXGyreTermes-Regular-65" transform="translate(233.299942 0)"/>
      <use xlink:href="#TeXGyreTermes-Regular-6e" transform="translate(277.699936 0)"/>
      <use xlink:href="#TeXGyreTermes-Regular-7a" transform="translate(327.699921 0)"/>
      <use xlink:href="#TeXGyreTermes-Regular-20" transform="translate(372.099915 0)"/>
      <use xlink:href="#TeXGyreTermes-Regular-69" transform="translate(397.099899 0)"/>
      <use xlink:href="#TeXGyreTermes-Regular-6e" transform="translate(424.899887 0)"/>
      <use xlink:href="#TeXGyreTermes-Regular-20" transform="translate(474.899872 0)"/>
      <use xlink:href="#TeXGyreTermes-Regular-48" transform="translate(499.899857 0)"/>
      <use xlink:href="#TeXGyreTermes-Regular-7a" transform="translate(572.099838 0)"/>
     </g>
    </g>
   </g>
   <g id="matplotlib.axis_2">
    <g id="ytick_1">
     <g id="line2d_27">
      <defs>
       <path id="mf7e8c3648d" d="M 0 0 
L -3.5 0 
" style="stroke: #000000; stroke-width: 0.8"/>
      </defs>
      <g>
       <use xlink:href="#mf7e8c3648d" x="57.6" y="307.584" style="stroke: #000000; stroke-width: 0.8"/>
      </g>
     </g>
     <g id="text_5">
      <!-- $\mathdefault{10^{-12}}$ -->
      <g transform="translate(22.7 311.383219) scale(0.1 -0.1)">
       <defs>
        <path id="DejaVuSans-2212" d="M 678 2272 
L 4684 2272 
L 4684 1741 
L 678 1741 
L 678 2272 
z
" transform="scale(0.015625)"/>
       </defs>
       <use xlink:href="#DejaVuSans-31" transform="translate(0 0.765625)"/>
       <use xlink:href="#DejaVuSans-30" transform="translate(63.623047 0.765625)"/>
       <use xlink:href="#DejaVuSans-2212" transform="translate(128.203125 39.046875) scale(0.7)"/>
       <use xlink:href="#DejaVuSans-31" transform="translate(186.855469 39.046875) scale(0.7)"/>
       <use xlink:href="#DejaVuSans-32" transform="translate(231.391602 39.046875) scale(0.7)"/>
      </g>
     </g>
    </g>
    <g id="ytick_2">
     <g id="line2d_28">
      <g>
       <use xlink:href="#mf7e8c3648d" x="57.6" y="263.232" style="stroke: #000000; stroke-width: 0.8"/>
      </g>
     </g>
     <g id="text_6">
      <!-- $\mathdefault{10^{-10}}$ -->
      <g transform="translate(22.7 267.031219) scale(0.1 -0.1)">
       <use xlink:href="#DejaVuSans-31" transform="translate(0 0.765625)"/>
       <use xlink:href="#DejaVuSans-30" transform="translate(63.623047 0.765625)"/>
       <use xlink:href="#DejaVuSans-2212" transform="translate(128.203125 39.046875) scale(0.7)"/>
       <use xlink:href="#DejaVuSans-31" transform="translate(186.855469 39.046875) scale(0.7)"/>
       <use xlink:href="#DejaVuSans-30" transform="translate(231.391602 39.046875) scale(0.7)"/>
      </g>
     </g>
    </g>
    <g id="ytick_3">
     <g id="line2d_29">
      <g>
       <use xlink:href="#mf7e8c3648d" x="57.6" y="218.88" style="stroke: #000000; stroke-width: 0.8"/>
      </g>
     </g>
     <g id="text_7">
      <!-- $\mathdefault{10^{-8}}$ -->
      <g transform="translate(27.1 222.679219) scale(0.1 -0.1)">
       <defs>
        <path id="DejaVuSans-38" d="M 2034 2216 
Q 1584 2216 1326 1975 
Q 1069 1734 1069 1313 
Q 1069 891 1326 650 
Q 1584 409 2034 409 
Q 2484 409 2743 651 
Q 3003 894 3003 1313 
Q 3003 1734 2745 1975 
Q 2488 2216 2034 2216 
z
M 1403 2484 
Q 997 2584 770 2862 
Q 544 3141 544 3541 
Q 544 4100 942 4425 
Q 1341 4750 2034 4750 
Q 2731 4750 3128 4425 
Q 3525 4100 3525 3541 
Q 3525 3141 3298 2862 
Q 3072 2584 2669 2484 
Q 3125 2378 3379 2068 
Q 3634 1759 3634 1313 
Q 3634 634 3220 271 
Q 2806 -91 2034 -91 
Q 1263 -91 848 271 
Q 434 634 434 1313 
Q 434 1759 690 2068 
Q 947 2378 1403 2484 
z
M 1172 3481 
Q 1172 3119 1398 2916 
Q 1625 2713 2034 2713 
Q 2441 2713 2670 2916 
Q 2900 3119 2900 3481 
Q 2900 3844 2670 4047 
Q 2441 4250 2034 4250 
Q 1625 4250 1398 4047 
Q 1172 3844 1172 3481 
z
" transform="scale(0.015625)"/>
       </defs>
       <use xlink:href="#DejaVuSans-31" transform="translate(0 0.765625)"/>
       <use xlink:href="#DejaVuSans-30" transform="translate(63.623047 0.765625)"/>
       <use xlink:href="#DejaVuSans-2212" transform="translate(128.203125 39.046875) scale(0.7)"/>
       <use xlink:href="#DejaVuSans-38" transform="translate(186.855469 39.046875) scale(0.7)"/>
      </g>
     </g>
    </g>
    <g id="ytick_4">
     <g id="line2d_30">
      <g>
       <use xlink:href="#mf7e8c3648d" x="57.6" y="174.528" style="stroke: #000000; stroke-width: 0.8"/>
      </g>
     </g>
     <g id="text_8">
      <!-- $\mathdefault{10^{-6}}$ -->
      <g transform="translate(27.1 178.327219) scale(0.1 -0.1)">
       <defs>
        <path id="DejaVuSans-36" d="M 2113 2584 
Q 1688 2584 1439 2293 
Q 1191 2003 1191 1497 
Q 1191 994 1439 701 
Q 1688 409 2113 409 
Q 2538 409 2786 701 
Q 3034 994 3034 1497 
Q 3034 2003 2786 2293 
Q 2538 2584 2113 2584 
z
M 3366 4563 
L 3366 3988 
Q 3128 4100 2886 4159 
Q 2644 4219 2406 4219 
Q 1781 4219 1451 3797 
Q 1122 3375 1075 2522 
Q 1259 2794 1537 2939 
Q 1816 3084 2150 3084 
Q 2853 3084 3261 2657 
Q 3669 2231 3669 1497 
Q 3669 778 3244 343 
Q 2819 -91 2113 -91 
Q 1303 -91 875 529 
Q 447 1150 447 2328 
Q 447 3434 972 4092 
Q 1497 4750 2381 4750 
Q 2619 4750 2861 4703 
Q 3103 4656 3366 4563 
z
" transform="scale(0.015625)"/>
       </defs>
       <use xlink:href="#DejaVuSans-31" transform="translate(0 0.765625)"/>
       <use xlink:href="#DejaVuSans-30" transform="translate(63.623047 0.765625)"/>
       <use xlink:href="#DejaVuSans-2212" transform="translate(128.203125 39.046875) scale(0.7)"/>
       <use xlink:href="#DejaVuSans-36" transform="translate(186.855469 39.046875) scale(0.7)"/>
      </g>
     </g>
    </g>
    <g id="ytick_5">
     <g id="line2d_31">
      <g>
       <use xlink:href="#mf7e8c3648d" x="57.6" y="130.176" style="stroke: #000000; stroke-width: 0.8"/>
      </g>
     </g>
     <g id="text_9">
      <!-- $\mathdefault{10^{-4}}$ -->
      <g transform="translate(27.1 133.975219) scale(0.1 -0.1)">
       <defs>
        <path id="DejaVuSans-34" d="M 2419 4116 
L 825 1625 
L 2419 1625 
L 2419 4116 
z
M 2253 4666 
L 3047 4666 
L 3047 1625 
L 3713 1625 
L 3713 1100 
L 3047 1100 
L 3047 0 
L 2419 0 
L 2419 1100 
L 313 1100 
L 313 1709 
L 2253 4666 
z
" transform="scale(0.015625)"/>
       </defs>
       <use xlink:href="#DejaVuSans-31" transform="translate(0 0.684375)"/>
       <use xlink:href="#DejaVuSans-30" transform="translate(63.623047 0.684375)"/>
       <use xlink:href="#DejaVuSans-2212" transform="translate(128.203125 38.965625) scale(0.7)"/>
       <use xlink:href="#DejaVuSans-34" transform="translate(186.855469 38.965625) scale(0.7)"/>
      </g>
     </g>
    </g>
    <g id="ytick_6">
     <g id="line2d_32">
      <g>
       <use xlink:href="#mf7e8c3648d" x="57.6" y="85.824" style="stroke: #000000; stroke-width: 0.8"/>
      </g>
     </g>
     <g id="text_10">
      <!-- $\mathdefault{10^{-2}}$ -->
      <g transform="translate(27.1 89.623219) scale(0.1 -0.1)">
       <use xlink:href="#DejaVuSans-31" transform="translate(0 0.765625)"/>
       <use xlink:href="#DejaVuSans-30" transform="translate(63.623047 0.765625)"/>
       <use xlink:href="#DejaVuSans-2212" transform="translate(128.203125 39.046875) scale(0.7)"/>
       <use xlink:href="#DejaVuSans-32" transform="translate(186.855469 39.046875) scale(0.7)"/>
      </g>
     </g>
    </g>
    <g id="ytick_7">
     <g id="line2d_33">
      <g>
       <use xlink:href="#mf7e8c3648d" x="57.6" y="41.472" style="stroke: #000000; stroke-width: 0.8"/>
      </g>
     </g>
     <g id="text_11">
      <!-- $\mathdefault{10^{0}}$ -->
      <g transform="translate(33 45.271219) scale(0.1 -0.1)">
       <use xlink:href="#DejaVuSans-31" transform="translate(0 0.765625)"/>
       <use xlink:href="#DejaVuSans-30" transform="translate(63.623047 0.765625)"/>
       <use xlink:href="#DejaVuSans-30" transform="translate(128.203125 39.046875) scale(0.7)"/>
      </g>
     </g>
    </g>
    <g id="text_12">
     <!-- Leistung -->
     <g transform="translate(16.520312 192.028) rotate(-90) scale(0.1 -0.1)">
      <defs>
       <path id="TeXGyreTermes-Regular-4c" d="M 3827 1114 
L 3667 1114 
C 3565 890 3482 742 3392 640 
C 3168 371 2816 250 2266 250 
L 1837 250 
C 1370 250 1286 288 1286 512 
L 1286 3539 
C 1286 3994 1376 4083 1882 4115 
L 1882 4237 
L 77 4237 
L 77 4115 
C 550 4077 634 3994 634 3539 
L 634 698 
C 634 243 544 154 77 122 
L 77 0 
L 3520 0 
L 3827 1114 
z
" transform="scale(0.015625)"/>
       <path id="TeXGyreTermes-Regular-73" d="M 2227 755 
C 2227 1075 2080 1286 1690 1517 
L 998 1926 
C 819 2029 723 2189 723 2362 
C 723 2624 922 2797 1216 2797 
C 1581 2797 1773 2586 1920 2010 
L 2016 2010 
L 1990 2880 
L 1920 2880 
L 1907 2867 
C 1850 2822 1843 2816 1818 2816 
C 1779 2816 1715 2829 1645 2861 
C 1510 2912 1363 2938 1210 2938 
C 685 2938 326 2618 326 2150 
C 326 1792 531 1542 1075 1229 
L 1446 1018 
C 1670 890 1779 736 1779 538 
C 1779 256 1574 77 1248 77 
C 806 77 582 320 435 973 
L 333 973 
L 333 -26 
L 416 -26 
C 461 38 486 51 563 51 
C 634 51 704 38 858 0 
C 1037 -38 1197 -64 1331 -64 
C 1818 -64 2227 307 2227 755 
z
" transform="scale(0.015625)"/>
       <path id="TeXGyreTermes-Regular-74" d="M 1786 422 
L 1702 493 
C 1562 326 1459 269 1318 269 
C 1082 269 986 435 986 845 
L 986 2675 
L 1632 2675 
L 1632 2880 
L 986 2880 
L 986 3622 
C 986 3686 973 3706 941 3706 
C 902 3642 858 3584 813 3526 
C 576 3174 358 2938 192 2842 
C 122 2797 83 2758 83 2720 
C 83 2701 90 2688 109 2675 
L 448 2675 
L 448 749 
C 448 211 640 -64 1011 -64 
C 1331 -64 1574 90 1786 422 
z
" transform="scale(0.015625)"/>
       <path id="TeXGyreTermes-Regular-67" d="M 3008 2483 
L 3008 2733 
L 2515 2733 
C 2387 2733 2291 2752 2163 2797 
L 2022 2848 
C 1850 2912 1677 2944 1510 2944 
C 915 2944 442 2483 442 1901 
C 442 1498 614 1254 1037 1043 
L 762 787 
C 550 602 467 474 467 346 
C 467 211 544 134 806 6 
C 352 -326 179 -538 179 -774 
C 179 -1114 678 -1395 1286 -1395 
C 1766 -1395 2266 -1229 2598 -960 
C 2842 -762 2950 -557 2950 -314 
C 2950 83 2650 352 2176 371 
L 1350 410 
C 1011 422 851 480 851 582 
C 851 710 1062 934 1235 986 
C 1293 979 1338 973 1357 973 
C 1478 960 1562 954 1600 954 
C 1837 954 2093 1050 2291 1222 
C 2502 1402 2598 1626 2598 1946 
C 2598 2131 2566 2278 2477 2483 
L 3008 2483 
z
M 2771 -410 
C 2771 -781 2285 -1030 1562 -1030 
C 998 -1030 627 -845 627 -563 
C 627 -416 672 -333 941 -13 
C 1152 -58 1664 -96 1978 -96 
C 2560 -96 2771 -179 2771 -410 
z
M 2106 1696 
C 2106 1338 1920 1114 1626 1114 
C 1242 1114 973 1530 973 2144 
L 973 2163 
C 973 2541 1152 2765 1446 2765 
C 1645 2765 1811 2656 1914 2464 
C 2029 2240 2106 1946 2106 1696 
z
" transform="scale(0.015625)"/>
      </defs>
      <use xlink:href="#TeXGyreTermes-Regular-4c"/>
      <use xlink:href="#TeXGyreTermes-Regular-65" transform="translate(61.099991 0)"/>
      <use xlink:href="#TeXGyreTermes-Regular-69" transform="translate(105.499985 0)"/>
      <use xlink:href="#TeXGyreTermes-Regular-73" transform="translate(133.299973 0)"/>
      <use xlink:href="#TeXGyreTermes-Regular-74" transform="translate(172.199966 0)"/>
      <use xlink:href="#TeXGyreTermes-Regular-75" transform="translate(199.999954 0)"/>
      <use xlink:href="#TeXGyreTermes-Regular-6e" transform="translate(249.999939 0)"/>
      <use xlink:href="#TeXGyreTermes-Regular-67" transform="translate(299.999924 0)"/>
     </g>
    </g>
   </g>
   <g id="line2d_34">
    <path d="M -1 65.930532 
L 73.832727 65.934903 
L 110.054786 78.301776 
L 131.243332 97.938625 
L 146.276845 76.602767 
L 157.937743 92.480945 
L 175.520902 85.586272 
L 182.498903 89.019373 
L 188.653937 86.976097 
L 194.159802 89.352976 
L 199.140463 94.663255 
L 203.68745 97.767083 
L 207.870272 91.783685 
L 211.742961 135.850464 
L 215.348348 99.715101 
L 218.720962 134.65497 
L 221.889046 108.990144 
L 224.875996 115.008516 
L 227.701407 103.576478 
L 230.381861 102.898334 
L 232.931507 93.683694 
L 235.362521 83.914032 
L 237.685454 97.045178 
L 239.909508 98.660132 
L 242.042759 85.487109 
L 244.092331 93.12683 
L 246.064542 101.933567 
L 247.96502 102.241059 
L 249.7988 158.181952 
L 251.570407 94.9488 
L 253.283917 124.5902 
L 254.943021 110.818134 
L 256.551067 120.443932 
L 258.111105 94.211349 
L 259.625918 92.781653 
L 261.098054 119.847747 
L 262.529853 102.571044 
L 263.923466 112.994089 
L 265.280877 114.305138 
L 266.603919 106.693661 
L 267.894291 97.544073 
L 269.153566 111.686028 
L 270.383208 88.47484 
L 271.58458 100.902523 
L 272.758953 126.122823 
L 273.907513 126.494137 
L 275.031371 123.930616 
L 276.131567 116.157684 
L 277.209077 106.578807 
L 278.264818 110.206665 
L 279.299651 112.796497 
L 280.31439 97.121555 
L 281.309798 125.455491 
L 282.2866 130.230208 
L 284.187078 112.909542 
L 285.112012 117.928932 
L 286.020859 115.832442 
L 286.914169 102.518437 
L 287.792465 140.269155 
L 288.656243 118.009587 
L 290.342112 104.153077 
L 291.16508 106.056136 
L 291.975288 116.827047 
L 292.773126 108.736119 
L 293.558966 118.611828 
L 294.333164 137.752989 
L 295.096059 129.36315 
L 295.847977 124.712884 
L 296.589229 117.129465 
L 297.320113 106.739572 
L 298.040916 100.075429 
L 298.751912 104.118861 
L 299.453364 104.715667 
L 300.145525 114.339162 
L 300.828637 103.554417 
L 302.168644 119.624471 
L 302.825978 110.147014 
L 303.475146 139.797513 
L 304.116349 110.282421 
L 304.74978 105.11813 
L 305.375624 123.901618 
L 305.994062 146.042467 
L 306.605267 99.873647 
L 307.209405 106.56282 
L 307.806639 137.864629 
L 308.397124 102.393509 
L 308.981011 130.640945 
L 309.558447 141.683943 
L 310.129572 116.9397 
L 310.694522 129.661884 
L 311.25343 110.04143 
L 311.806423 95.947539 
L 312.353626 122.624814 
L 312.895158 123.955012 
L 313.431136 122.008731 
L 313.961672 121.279198 
L 314.486876 134.909885 
L 315.006855 109.651454 
L 315.52171 120.655495 
L 316.031542 122.82283 
L 316.536448 114.039863 
L 317.036523 113.532909 
L 317.531857 138.167553 
L 318.02254 106.897466 
L 318.508659 143.737731 
L 318.990297 116.96375 
L 319.940458 112.555781 
L 320.409137 117.003121 
L 320.87365 130.673068 
L 321.334071 105.473774 
L 321.79047 121.590675 
L 322.242918 118.983318 
L 322.691482 117.905611 
L 323.136228 112.440971 
L 323.577221 112.189959 
L 324.014524 104.067689 
L 324.448198 123.484228 
L 324.878302 126.502336 
L 325.304895 107.249887 
L 325.728034 131.213657 
L 326.147775 125.882774 
L 326.56417 126.591741 
L 326.977274 146.402356 
L 327.387138 118.453035 
L 327.793813 123.434292 
L 328.197347 106.517509 
L 328.597788 114.144928 
L 328.995185 115.551294 
L 329.389582 119.035851 
L 329.781025 110.958845 
L 330.169557 130.646331 
L 330.555223 106.643652 
L 330.938062 131.736688 
L 331.318118 139.253026 
L 332.070035 133.64212 
L 332.441976 106.145736 
L 332.811287 116.223218 
L 333.178007 133.024219 
L 333.542172 102.809599 
L 333.903816 117.47529 
L 334.262975 127.519368 
L 334.619682 115.893023 
L 334.97397 114.945132 
L 335.325873 116.063047 
L 335.675422 120.688634 
L 336.022649 138.622898 
L 336.710256 105.833817 
L 337.050696 123.994342 
L 337.388933 110.281961 
L 337.724994 112.057892 
L 338.058908 125.424631 
L 338.390702 121.915546 
L 338.720403 126.271045 
L 339.048037 111.144673 
L 339.373629 113.776139 
L 340.01879 115.012232 
L 340.338408 128.011021 
L 340.656083 103.77479 
L 341.285698 132.690415 
L 341.597683 114.8923 
L 341.907817 116.281164 
L 342.216121 102.3075 
L 342.522617 156.023308 
L 342.827325 118.653767 
L 343.130268 135.445167 
L 343.431464 112.64174 
L 343.730934 141.318952 
L 344.028697 116.93802 
L 344.324774 127.278683 
L 344.619183 124.337862 
L 344.911942 117.151075 
L 345.20307 127.612356 
L 345.492585 113.17634 
L 345.780506 133.375814 
L 346.066848 113.256681 
L 346.35163 110.534803 
L 346.634869 106.251402 
L 346.91658 105.039687 
L 347.196782 139.862178 
L 347.475488 120.917569 
L 347.752716 130.184094 
L 348.028482 146.541294 
L 348.302799 121.680328 
L 348.575684 119.943515 
L 348.847152 145.389305 
L 349.117217 123.99458 
L 349.385893 112.276527 
L 349.653194 122.675868 
L 349.919136 124.297188 
L 350.183731 131.253423 
L 350.446993 123.382042 
L 350.708935 119.003306 
L 350.969571 120.40353 
L 351.228913 114.146152 
L 351.486975 115.683634 
L 351.743769 124.627441 
L 351.999306 129.193181 
L 352.253601 119.173224 
L 352.506664 124.756356 
L 352.758507 120.39836 
L 353.009142 132.812215 
L 353.258581 114.438938 
L 353.506836 119.998563 
L 353.753916 108.685996 
L 353.999833 115.582539 
L 354.244599 119.243104 
L 354.488224 126.517003 
L 354.730718 115.814165 
L 354.972092 117.128641 
L 355.212356 134.755369 
L 355.451521 119.478906 
L 355.689596 119.040605 
L 355.926591 124.573529 
L 356.162517 115.640727 
L 356.397382 130.704692 
L 356.631196 137.162677 
L 356.863968 112.870817 
L 357.095709 137.967261 
L 357.326426 122.033843 
L 357.556129 124.765326 
L 357.784827 122.530751 
L 358.012529 114.686584 
L 358.464976 129.24289 
L 358.68974 107.051999 
L 358.91354 109.90894 
L 359.136387 104.42725 
L 359.358287 122.701588 
L 359.579249 127.424361 
L 359.79928 135.008737 
L 360.018389 111.500756 
L 360.236583 119.432831 
L 360.453869 141.003769 
L 360.670256 143.484403 
L 360.885751 114.354326 
L 361.100361 120.516818 
L 361.314093 130.925974 
L 361.526954 125.389058 
L 361.738952 115.973234 
L 361.950093 129.514855 
L 362.369833 114.827727 
L 362.578446 137.231543 
L 362.786229 120.584009 
L 362.993189 135.203637 
L 363.199333 131.195496 
L 363.404667 118.311496 
L 363.609197 141.254471 
L 363.81293 124.63223 
L 364.015871 160.122334 
L 364.218028 123.348112 
L 364.419405 141.811887 
L 364.819847 113.730191 
L 365.018923 129.248052 
L 365.217243 115.045362 
L 365.414814 156.672421 
L 365.807729 117.352897 
L 366.003084 132.772887 
L 366.197711 123.393954 
L 366.391616 106.168586 
L 366.969052 134.131292 
L 367.160121 117.969431 
L 367.350494 124.858133 
L 367.540176 119.642728 
L 367.729172 106.424541 
L 367.917488 136.771474 
L 368.105127 120.481288 
L 368.292094 127.29349 
L 368.478395 128.290458 
L 368.664034 121.91115 
L 368.849016 130.249395 
L 369.033346 117.629343 
L 369.217028 115.894461 
L 369.400066 104.691455 
L 369.582465 123.465409 
L 369.76423 126.563438 
L 369.945365 115.218986 
L 370.125875 167.68159 
L 370.305763 125.543359 
L 370.485033 116.895887 
L 370.663691 120.148752 
L 370.84174 133.031042 
L 371.196029 117.87021 
L 371.372277 109.552266 
L 371.547932 126.596867 
L 371.722999 114.416705 
L 371.897481 112.508972 
L 372.071383 127.888935 
L 372.244708 127.372882 
L 372.589642 151.61593 
L 372.761259 150.001606 
L 372.932315 126.465655 
L 373.102812 142.390352 
L 373.272755 176.401622 
L 373.442147 114.674401 
L 373.779292 141.280217 
L 374.114277 110.12146 
L 374.280967 110.877094 
L 374.447127 115.824671 
L 374.612761 114.947347 
L 374.777872 130.857658 
L 374.942462 115.842398 
L 375.106535 115.335693 
L 375.433145 138.458634 
L 375.595688 110.716726 
L 375.757726 116.099956 
L 375.919264 143.661395 
L 376.080304 123.899987 
L 376.400902 125.981822 
L 376.560467 123.605081 
L 376.719546 117.7223 
L 376.878142 128.66268 
L 377.036258 125.435545 
L 377.193897 117.251447 
L 377.507756 145.416094 
L 377.663982 139.589065 
L 377.975039 121.170503 
L 378.129876 139.282457 
L 378.284255 122.744137 
L 378.43818 135.236919 
L 378.591652 116.693764 
L 378.744675 112.956105 
L 378.897252 150.593453 
L 379.201075 127.152477 
L 379.352326 133.602812 
L 379.503141 110.940043 
L 379.653522 123.9156 
L 379.803472 125.284032 
L 379.952992 119.664526 
L 380.102086 119.652263 
L 380.250756 121.201291 
L 380.399004 139.115052 
L 380.546833 127.269973 
L 380.694244 130.415755 
L 380.841241 120.264016 
L 381.134001 145.991636 
L 381.425129 124.259952 
L 381.570087 126.500739 
L 381.714644 125.231097 
L 381.858803 120.008926 
L 382.002564 132.906391 
L 382.145932 128.676541 
L 382.288907 127.83663 
L 382.431492 138.64958 
L 382.573689 119.047991 
L 382.856928 134.427645 
L 383.138639 120.053798 
L 383.278928 134.886777 
L 383.558379 122.010603 
L 383.697547 116.002987 
L 383.836345 125.60206 
L 384.11284 127.207747 
L 384.25054 137.281986 
L 384.387879 136.346296 
L 384.661479 121.336766 
L 384.797743 133.19464 
L 384.933653 132.396736 
L 385.069211 136.752229 
L 385.204417 131.269363 
L 385.339275 107.97421 
L 385.607951 162.884708 
L 385.741773 149.957706 
L 386.008393 111.908948 
L 386.141195 128.564559 
L 386.40579 113.514741 
L 386.537586 118.914756 
L 386.669051 135.332456 
L 386.930994 119.034041 
L 387.061474 135.05206 
L 387.19163 136.654001 
L 387.580162 118.178814 
L 387.709034 127.834611 
L 387.837588 149.215255 
L 387.965827 126.163009 
L 388.093752 124.42226 
L 388.221365 140.310038 
L 388.348667 137.828531 
L 388.475659 119.695714 
L 388.602344 133.5023 
L 388.728722 123.681331 
L 389.106034 157.381814 
L 389.231201 135.859659 
L 389.356069 140.086735 
L 389.48064 160.835172 
L 389.604915 121.653922 
L 389.728894 141.729819 
L 389.85258 117.39272 
L 389.975975 132.054364 
L 390.099078 117.274142 
L 390.221892 129.904527 
L 390.344418 117.584814 
L 390.466658 125.923261 
L 390.710282 117.752627 
L 390.83167 136.890691 
L 391.073603 123.474462 
L 391.194151 142.242242 
L 391.434415 115.393905 
L 391.554134 141.4516 
L 391.673579 117.986951 
L 391.792753 148.939218 
L 392.030287 123.965514 
L 392.14865 137.365159 
L 392.266746 123.869753 
L 392.50214 134.082126 
L 392.61944 124.592881 
L 392.736478 124.564154 
L 392.96977 128.746372 
L 393.202026 123.218516 
L 393.317768 126.298398 
L 393.433254 139.662429 
L 393.548485 122.644703 
L 393.663463 125.672419 
L 393.892662 115.904362 
L 394.120861 131.363027 
L 394.234587 116.73568 
L 394.687035 135.836257 
L 395.023819 127.220925 
L 395.135599 131.680391 
L 395.247141 178.666641 
L 395.358445 133.43782 
L 395.469513 141.917908 
L 395.690943 123.906043 
L 395.801307 119.57299 
L 396.021339 138.334372 
L 396.131008 114.550459 
L 396.349658 130.347565 
L 396.567398 119.661812 
L 396.675928 138.210821 
L 396.892315 121.667543 
L 397.000174 124.907451 
L 397.10781 117.220121 
L 397.215225 134.624605 
L 397.32242 123.545505 
L 397.536152 138.864982 
L 397.749013 118.5599 
L 397.855119 135.351542 
L 397.961011 121.307547 
L 398.066688 137.641675 
L 398.172152 132.555384 
L 398.277403 133.291706 
L 398.382443 132.57366 
L 398.487273 138.457789 
L 398.487273 138.457789 
" clip-path="url(#p7e52d3546f)" style="fill: none; stroke: #1f77b4; stroke-width: 1.5; stroke-linecap: square"/>
   </g>
   <g id="patch_3">
    <path d="M 57.6 307.584 
L 57.6 41.472 
" style="fill: none; stroke: #000000; stroke-width: 0.8; stroke-linejoin: miter; stroke-linecap: square"/>
   </g>
   <g id="patch_4">
    <path d="M 414.72 307.584 
L 414.72 41.472 
" style="fill: none; stroke: #000000; stroke-width: 0.8; stroke-linejoin: miter; stroke-linecap: square"/>
   </g>
   <g id="patch_5">
    <path d="M 57.6 307.584 
L 414.72 307.584 
" style="fill: none; stroke: #000000; stroke-width: 0.8; stroke-linejoin: miter; stroke-linecap: square"/>
   </g>
   <g id="patch_6">
    <path d="M 57.6 41.472 
L 414.72 41.472 
" style="fill: none; stroke: #000000; stroke-width: 0.8; stroke-linejoin: miter; stroke-linecap: square"/>
   </g>
  </g>
 </g>
 <defs>
  <clipPath id="p7e52d3546f">
   <rect x="57.6" y="41.472" width="357.12" height="266.112"/>
  </clipPath>
 </defs>
</svg>
