<?xml version="1.0" encoding="utf-8" standalone="no"?>
<!DOCTYPE svg PUBLIC "-//W3C//DTD SVG 1.1//EN"
  "http://www.w3.org/Graphics/SVG/1.1/DTD/svg11.dtd">
<svg xmlns:xlink="http://www.w3.org/1999/xlink" width="460.8pt" height="345.6pt" viewBox="0 0 460.8 345.6" xmlns="http://www.w3.org/2000/svg" version="1.1">
 <metadata>
  <rdf:RDF xmlns:dc="http://purl.org/dc/elements/1.1/" xmlns:cc="http://creativecommons.org/ns#" xmlns:rdf="http://www.w3.org/1999/02/22-rdf-syntax-ns#">
   <cc:Work>
    <dc:type rdf:resource="http://purl.org/dc/dcmitype/StillImage"/>
    <dc:date>2025-12-03T12:16:54.321209</dc:date>
    <dc:format>image/svg+xml</dc:format>
    <dc:creator>
     <cc:Agent>
      <dc:title>Matplotlib v3.10.6, https://matplotlib.org/</dc:title>
     </cc:Agent>
    </dc:creator>
   </cc:Work>
  </rdf:RDF>
 </metadata>
 <defs>
  <style type="text/css">*{stroke-linejoin: round; stroke-linecap: butt}</style>
 </defs>
 <g id="figure_1">
  <g id="patch_1">
   <path d="M 0 345.6 
L 460.8 345.6 
L 460.8 0 
L 0 0 
z
" style="fill: #ffffff"/>
  </g>
  <g id="axes_1">
   <g id="patch_2">
    <path d="M 57.6 307.584 
L 414.72 307.584 
L 414.72 41.472 
L 57.6 41.472 
z
" style="fill: #ffffff"/>
   </g>
   <g id="matplotlib.axis_1">
    <g id="xtick_1">
     <g id="line2d_1">
      <defs>
       <path id="m5802c6e287" d="M 0 0 
L 0 3.5 
" style="stroke: #000000; stroke-width: 0.8"/>
      </defs>
      <g>
       <use xlink:href="#m5802c6e287" x="73.832727" y="307.584" style="stroke: #000000; stroke-width: 0.8"/>
      </g>
     </g>
     <g id="text_1">
      <!-- $\mathdefault{10^{0}}$ -->
      <g transform="translate(65.032727 322.182437) scale(0.1 -0.1)">
       <defs>
        <path id="DejaVuSans-31" d="M 794 531 
L 1825 531 
L 1825 4091 
L 703 3866 
L 703 4441 
L 1819 4666 
L 2450 4666 
L 2450 531 
L 3481 531 
L 3481 0 
L 794 0 
L 794 531 
z
" transform="scale(0.015625)"/>
        <path id="DejaVuSans-30" d="M 2034 4250 
Q 1547 4250 1301 3770 
Q 1056 3291 1056 2328 
Q 1056 1369 1301 889 
Q 1547 409 2034 409 
Q 2525 409 2770 889 
Q 3016 1369 3016 2328 
Q 3016 3291 2770 3770 
Q 2525 4250 2034 4250 
z
M 2034 4750 
Q 2819 4750 3233 4129 
Q 3647 3509 3647 2328 
Q 3647 1150 3233 529 
Q 2819 -91 2034 -91 
Q 1250 -91 836 529 
Q 422 1150 422 2328 
Q 422 3509 836 4129 
Q 1250 4750 2034 4750 
z
" transform="scale(0.015625)"/>
       </defs>
       <use xlink:href="#DejaVuSans-31" transform="translate(0 0.765625)"/>
       <use xlink:href="#DejaVuSans-30" transform="translate(63.623047 0.765625)"/>
       <use xlink:href="#DejaVuSans-30" transform="translate(128.203125 39.046875) scale(0.7)"/>
      </g>
     </g>
    </g>
    <g id="xtick_2">
     <g id="line2d_2">
      <g>
       <use xlink:href="#m5802c6e287" x="194.159802" y="307.584" style="stroke: #000000; stroke-width: 0.8"/>
      </g>
     </g>
     <g id="text_2">
      <!-- $\mathdefault{10^{1}}$ -->
      <g transform="translate(185.359802 322.182437) scale(0.1 -0.1)">
       <use xlink:href="#DejaVuSans-31" transform="translate(0 0.684375)"/>
       <use xlink:href="#DejaVuSans-30" transform="translate(63.623047 0.684375)"/>
       <use xlink:href="#DejaVuSans-31" transform="translate(128.203125 38.965625) scale(0.7)"/>
      </g>
     </g>
    </g>
    <g id="xtick_3">
     <g id="line2d_3">
      <g>
       <use xlink:href="#m5802c6e287" x="314.486876" y="307.584" style="stroke: #000000; stroke-width: 0.8"/>
      </g>
     </g>
     <g id="text_3">
      <!-- $\mathdefault{10^{2}}$ -->
      <g transform="translate(305.686876 322.182437) scale(0.1 -0.1)">
       <defs>
        <path id="DejaVuSans-32" d="M 1228 531 
L 3431 531 
L 3431 0 
L 469 0 
L 469 531 
Q 828 903 1448 1529 
Q 2069 2156 2228 2338 
Q 2531 2678 2651 2914 
Q 2772 3150 2772 3378 
Q 2772 3750 2511 3984 
Q 2250 4219 1831 4219 
Q 1534 4219 1204 4116 
Q 875 4013 500 3803 
L 500 4441 
Q 881 4594 1212 4672 
Q 1544 4750 1819 4750 
Q 2544 4750 2975 4387 
Q 3406 4025 3406 3419 
Q 3406 3131 3298 2873 
Q 3191 2616 2906 2266 
Q 2828 2175 2409 1742 
Q 1991 1309 1228 531 
z
" transform="scale(0.015625)"/>
       </defs>
       <use xlink:href="#DejaVuSans-31" transform="translate(0 0.765625)"/>
       <use xlink:href="#DejaVuSans-30" transform="translate(63.623047 0.765625)"/>
       <use xlink:href="#DejaVuSans-32" transform="translate(128.203125 39.046875) scale(0.7)"/>
      </g>
     </g>
    </g>
    <g id="xtick_4">
     <g id="line2d_4">
      <defs>
       <path id="m625f8cf5dd" d="M 0 0 
L 0 2 
" style="stroke: #000000; stroke-width: 0.6"/>
      </defs>
      <g>
       <use xlink:href="#m625f8cf5dd" x="62.171829" y="307.584" style="stroke: #000000; stroke-width: 0.6"/>
      </g>
     </g>
    </g>
    <g id="xtick_5">
     <g id="line2d_5">
      <g>
       <use xlink:href="#m625f8cf5dd" x="68.326862" y="307.584" style="stroke: #000000; stroke-width: 0.6"/>
      </g>
     </g>
    </g>
    <g id="xtick_6">
     <g id="line2d_6">
      <g>
       <use xlink:href="#m625f8cf5dd" x="110.054786" y="307.584" style="stroke: #000000; stroke-width: 0.6"/>
      </g>
     </g>
    </g>
    <g id="xtick_7">
     <g id="line2d_7">
      <g>
       <use xlink:href="#m625f8cf5dd" x="131.243332" y="307.584" style="stroke: #000000; stroke-width: 0.6"/>
      </g>
     </g>
    </g>
    <g id="xtick_8">
     <g id="line2d_8">
      <g>
       <use xlink:href="#m625f8cf5dd" x="146.276845" y="307.584" style="stroke: #000000; stroke-width: 0.6"/>
      </g>
     </g>
    </g>
    <g id="xtick_9">
     <g id="line2d_9">
      <g>
       <use xlink:href="#m625f8cf5dd" x="157.937743" y="307.584" style="stroke: #000000; stroke-width: 0.6"/>
      </g>
     </g>
    </g>
    <g id="xtick_10">
     <g id="line2d_10">
      <g>
       <use xlink:href="#m625f8cf5dd" x="167.465391" y="307.584" style="stroke: #000000; stroke-width: 0.6"/>
      </g>
     </g>
    </g>
    <g id="xtick_11">
     <g id="line2d_11">
      <g>
       <use xlink:href="#m625f8cf5dd" x="175.520902" y="307.584" style="stroke: #000000; stroke-width: 0.6"/>
      </g>
     </g>
    </g>
    <g id="xtick_12">
     <g id="line2d_12">
      <g>
       <use xlink:href="#m625f8cf5dd" x="182.498903" y="307.584" style="stroke: #000000; stroke-width: 0.6"/>
      </g>
     </g>
    </g>
    <g id="xtick_13">
     <g id="line2d_13">
      <g>
       <use xlink:href="#m625f8cf5dd" x="188.653937" y="307.584" style="stroke: #000000; stroke-width: 0.6"/>
      </g>
     </g>
    </g>
    <g id="xtick_14">
     <g id="line2d_14">
      <g>
       <use xlink:href="#m625f8cf5dd" x="230.381861" y="307.584" style="stroke: #000000; stroke-width: 0.6"/>
      </g>
     </g>
    </g>
    <g id="xtick_15">
     <g id="line2d_15">
      <g>
       <use xlink:href="#m625f8cf5dd" x="251.570407" y="307.584" style="stroke: #000000; stroke-width: 0.6"/>
      </g>
     </g>
    </g>
    <g id="xtick_16">
     <g id="line2d_16">
      <g>
       <use xlink:href="#m625f8cf5dd" x="266.603919" y="307.584" style="stroke: #000000; stroke-width: 0.6"/>
      </g>
     </g>
    </g>
    <g id="xtick_17">
     <g id="line2d_17">
      <g>
       <use xlink:href="#m625f8cf5dd" x="278.264818" y="307.584" style="stroke: #000000; stroke-width: 0.6"/>
      </g>
     </g>
    </g>
    <g id="xtick_18">
     <g id="line2d_18">
      <g>
       <use xlink:href="#m625f8cf5dd" x="287.792465" y="307.584" style="stroke: #000000; stroke-width: 0.6"/>
      </g>
     </g>
    </g>
    <g id="xtick_19">
     <g id="line2d_19">
      <g>
       <use xlink:href="#m625f8cf5dd" x="295.847977" y="307.584" style="stroke: #000000; stroke-width: 0.6"/>
      </g>
     </g>
    </g>
    <g id="xtick_20">
     <g id="line2d_20">
      <g>
       <use xlink:href="#m625f8cf5dd" x="302.825978" y="307.584" style="stroke: #000000; stroke-width: 0.6"/>
      </g>
     </g>
    </g>
    <g id="xtick_21">
     <g id="line2d_21">
      <g>
       <use xlink:href="#m625f8cf5dd" x="308.981011" y="307.584" style="stroke: #000000; stroke-width: 0.6"/>
      </g>
     </g>
    </g>
    <g id="xtick_22">
     <g id="line2d_22">
      <g>
       <use xlink:href="#m625f8cf5dd" x="350.708935" y="307.584" style="stroke: #000000; stroke-width: 0.6"/>
      </g>
     </g>
    </g>
    <g id="xtick_23">
     <g id="line2d_23">
      <g>
       <use xlink:href="#m625f8cf5dd" x="371.897481" y="307.584" style="stroke: #000000; stroke-width: 0.6"/>
      </g>
     </g>
    </g>
    <g id="xtick_24">
     <g id="line2d_24">
      <g>
       <use xlink:href="#m625f8cf5dd" x="386.930994" y="307.584" style="stroke: #000000; stroke-width: 0.6"/>
      </g>
     </g>
    </g>
    <g id="xtick_25">
     <g id="line2d_25">
      <g>
       <use xlink:href="#m625f8cf5dd" x="398.591892" y="307.584" style="stroke: #000000; stroke-width: 0.6"/>
      </g>
     </g>
    </g>
    <g id="xtick_26">
     <g id="line2d_26">
      <g>
       <use xlink:href="#m625f8cf5dd" x="408.11954" y="307.584" style="stroke: #000000; stroke-width: 0.6"/>
      </g>
     </g>
    </g>
    <g id="text_4">
     <!-- Frequenz in Hz -->
     <g transform="translate(205.334219 335.091813) scale(0.1 -0.1)">
      <defs>
       <path id="TeXGyreTermes-Regular-46" d="M 3494 3322 
L 3475 4237 
L 77 4237 
L 77 4115 
C 550 4077 634 3987 634 3539 
L 634 768 
C 634 237 563 154 77 122 
L 77 0 
L 1869 0 
L 1869 122 
C 1376 147 1286 237 1286 698 
L 1286 2093 
L 2214 2093 
C 2733 2093 2842 1997 2918 1478 
L 3066 1478 
L 3066 2963 
L 2918 2963 
C 2842 2451 2726 2355 2214 2355 
L 1286 2355 
L 1286 3776 
C 1286 3955 1318 3994 1491 3994 
L 2362 3994 
C 3085 3994 3226 3898 3334 3322 
L 3494 3322 
z
" transform="scale(0.015625)"/>
       <path id="TeXGyreTermes-Regular-72" d="M 2144 2605 
C 2144 2816 2010 2944 1792 2944 
C 1523 2944 1338 2797 1024 2342 
L 1024 2931 
L 992 2944 
C 653 2803 422 2720 45 2598 
L 45 2496 
C 134 2515 192 2522 269 2522 
C 429 2522 486 2419 486 2138 
L 486 538 
C 486 218 442 173 32 96 
L 32 0 
L 1568 0 
L 1568 96 
C 1133 115 1024 211 1024 576 
L 1024 2016 
C 1024 2221 1299 2541 1472 2541 
C 1510 2541 1568 2509 1638 2445 
C 1741 2355 1811 2317 1894 2317 
C 2048 2317 2144 2426 2144 2605 
z
" transform="scale(0.015625)"/>
       <path id="TeXGyreTermes-Regular-65" d="M 2714 1005 
L 2611 1050 
C 2304 563 2029 378 1619 378 
C 1267 378 998 544 813 890 
C 685 1139 634 1363 621 1773 
L 2592 1773 
C 2541 2189 2477 2374 2317 2579 
C 2125 2810 1830 2944 1498 2944 
C 704 2944 160 2304 160 1370 
C 160 486 621 -64 1357 -64 
C 1971 -64 2445 314 2714 1005 
z
M 1939 1978 
L 634 1978 
C 704 2483 922 2714 1312 2714 
C 1702 2714 1856 2534 1939 1978 
z
" transform="scale(0.015625)"/>
       <path id="TeXGyreTermes-Regular-71" d="M 3123 -1389 
L 3123 -1299 
C 2771 -1222 2720 -1171 2720 -902 
L 2720 2925 
L 2650 2925 
L 2304 2720 
C 2010 2893 1818 2950 1568 2950 
C 768 2950 154 2234 154 1312 
C 154 506 576 -64 1178 -64 
C 1549 -64 1901 102 2182 410 
L 2182 -794 
C 2182 -1152 2067 -1248 1613 -1280 
L 1613 -1389 
L 3123 -1389 
z
M 2182 813 
C 2182 659 2157 576 2093 525 
C 1952 403 1741 326 1542 326 
C 1344 326 1171 390 1043 518 
C 838 704 704 1120 704 1542 
C 704 2298 1043 2771 1587 2771 
C 1984 2771 2182 2560 2182 2131 
L 2182 813 
z
" transform="scale(0.015625)"/>
       <path id="TeXGyreTermes-Regular-75" d="M 3066 230 
L 3066 320 
L 3034 320 
C 2739 320 2669 390 2669 685 
L 2669 2880 
L 1658 2880 
L 1658 2771 
C 2054 2752 2131 2688 2131 2368 
L 2131 864 
C 2131 691 2099 595 2022 538 
C 1843 384 1645 307 1446 307 
C 1197 307 992 525 992 794 
L 992 2880 
L 58 2880 
L 58 2790 
C 365 2771 454 2675 454 2381 
L 454 768 
C 454 262 762 -64 1229 -64 
C 1466 -64 1715 38 1888 211 
L 2163 486 
L 2163 -45 
L 2189 -58 
C 2509 70 2739 141 3066 230 
z
" transform="scale(0.015625)"/>
       <path id="TeXGyreTermes-Regular-6e" d="M 3104 0 
L 3104 96 
C 2790 128 2714 205 2714 518 
L 2714 1984 
C 2714 2586 2432 2944 1958 2944 
C 1664 2944 1466 2835 1030 2426 
L 1030 2931 
L 986 2944 
C 672 2829 454 2758 102 2656 
L 102 2547 
C 141 2566 205 2573 275 2573 
C 454 2573 512 2477 512 2163 
L 512 576 
C 512 211 442 122 115 96 
L 115 0 
L 1472 0 
L 1472 96 
C 1146 122 1050 198 1050 429 
L 1050 2227 
C 1357 2515 1498 2592 1709 2592 
C 2022 2592 2176 2394 2176 1971 
L 2176 634 
C 2176 230 2093 122 1773 96 
L 1773 0 
L 3104 0 
z
" transform="scale(0.015625)"/>
       <path id="TeXGyreTermes-Regular-7a" d="M 2675 864 
L 2560 890 
C 2496 570 2458 467 2374 358 
C 2285 250 2067 192 1741 192 
L 858 192 
L 2579 2784 
L 2579 2880 
L 358 2880 
L 339 2125 
L 454 2125 
C 512 2592 608 2688 992 2688 
L 1875 2688 
L 173 96 
L 173 0 
L 2586 0 
L 2675 864 
z
" transform="scale(0.015625)"/>
       <path id="TeXGyreTermes-Regular-20" transform="scale(0.015625)"/>
       <path id="TeXGyreTermes-Regular-69" d="M 1619 0 
L 1619 96 
C 1197 128 1146 192 1146 653 
L 1146 2925 
L 1120 2944 
L 128 2592 
L 128 2496 
L 179 2502 
C 256 2515 339 2522 397 2522 
C 550 2522 608 2419 608 2138 
L 608 653 
C 608 192 544 122 102 96 
L 102 0 
L 1619 0 
z
M 1203 3776 
C 1203 3955 1062 4102 877 4102 
C 698 4102 550 3955 550 3776 
C 550 3590 698 3450 877 3450 
C 1062 3450 1203 3590 1203 3776 
z
" transform="scale(0.015625)"/>
       <path id="TeXGyreTermes-Regular-48" d="M 4493 0 
L 4493 122 
C 4013 160 3930 243 3930 698 
L 3930 3539 
C 3930 4000 4000 4070 4493 4115 
L 4493 4237 
L 2714 4237 
L 2714 4115 
C 3206 4070 3277 4000 3277 3539 
L 3277 2298 
L 1338 2298 
L 1338 3539 
C 1338 4000 1408 4070 1901 4115 
L 1901 4237 
L 122 4237 
L 122 4115 
C 614 4070 685 4000 685 3539 
L 685 768 
C 685 230 621 154 122 122 
L 122 0 
L 1901 0 
L 1901 122 
C 1421 160 1338 243 1338 698 
L 1338 2016 
L 3277 2016 
L 3277 768 
C 3277 230 3213 154 2714 122 
L 2714 0 
L 4493 0 
z
" transform="scale(0.015625)"/>
      </defs>
      <use xlink:href="#TeXGyreTermes-Regular-46"/>
      <use xlink:href="#TeXGyreTermes-Regular-72" transform="translate(55.599991 0)"/>
      <use xlink:href="#TeXGyreTermes-Regular-65" transform="translate(88.899979 0)"/>
      <use xlink:href="#TeXGyreTermes-Regular-71" transform="translate(133.299973 0)"/>
      <use xlink:href="#TeXGyreTermes-Regular-75" transform="translate(183.299957 0)"/>
      <use xlink:href="#TeXGyreTermes-Regular-65" transform="translate(233.299942 0)"/>
      <use xlink:href="#TeXGyreTermes-Regular-6e" transform="translate(277.699936 0)"/>
      <use xlink:href="#TeXGyreTermes-Regular-7a" transform="translate(327.699921 0)"/>
      <use xlink:href="#TeXGyreTermes-Regular-20" transform="translate(372.099915 0)"/>
      <use xlink:href="#TeXGyreTermes-Regular-69" transform="translate(397.099899 0)"/>
      <use xlink:href="#TeXGyreTermes-Regular-6e" transform="translate(424.899887 0)"/>
      <use xlink:href="#TeXGyreTermes-Regular-20" transform="translate(474.899872 0)"/>
      <use xlink:href="#TeXGyreTermes-Regular-48" transform="translate(499.899857 0)"/>
      <use xlink:href="#TeXGyreTermes-Regular-7a" transform="translate(572.099838 0)"/>
     </g>
    </g>
   </g>
   <g id="matplotlib.axis_2">
    <g id="ytick_1">
     <g id="line2d_27">
      <defs>
       <path id="m9a1ac9b33c" d="M 0 0 
L -3.5 0 
" style="stroke: #000000; stroke-width: 0.8"/>
      </defs>
      <g>
       <use xlink:href="#m9a1ac9b33c" x="57.6" y="307.584" style="stroke: #000000; stroke-width: 0.8"/>
      </g>
     </g>
     <g id="text_5">
      <!-- $\mathdefault{10^{-12}}$ -->
      <g transform="translate(22.7 311.383219) scale(0.1 -0.1)">
       <defs>
        <path id="DejaVuSans-2212" d="M 678 2272 
L 4684 2272 
L 4684 1741 
L 678 1741 
L 678 2272 
z
" transform="scale(0.015625)"/>
       </defs>
       <use xlink:href="#DejaVuSans-31" transform="translate(0 0.765625)"/>
       <use xlink:href="#DejaVuSans-30" transform="translate(63.623047 0.765625)"/>
       <use xlink:href="#DejaVuSans-2212" transform="translate(128.203125 39.046875) scale(0.7)"/>
       <use xlink:href="#DejaVuSans-31" transform="translate(186.855469 39.046875) scale(0.7)"/>
       <use xlink:href="#DejaVuSans-32" transform="translate(231.391602 39.046875) scale(0.7)"/>
      </g>
     </g>
    </g>
    <g id="ytick_2">
     <g id="line2d_28">
      <g>
       <use xlink:href="#m9a1ac9b33c" x="57.6" y="263.232" style="stroke: #000000; stroke-width: 0.8"/>
      </g>
     </g>
     <g id="text_6">
      <!-- $\mathdefault{10^{-10}}$ -->
      <g transform="translate(22.7 267.031219) scale(0.1 -0.1)">
       <use xlink:href="#DejaVuSans-31" transform="translate(0 0.765625)"/>
       <use xlink:href="#DejaVuSans-30" transform="translate(63.623047 0.765625)"/>
       <use xlink:href="#DejaVuSans-2212" transform="translate(128.203125 39.046875) scale(0.7)"/>
       <use xlink:href="#DejaVuSans-31" transform="translate(186.855469 39.046875) scale(0.7)"/>
       <use xlink:href="#DejaVuSans-30" transform="translate(231.391602 39.046875) scale(0.7)"/>
      </g>
     </g>
    </g>
    <g id="ytick_3">
     <g id="line2d_29">
      <g>
       <use xlink:href="#m9a1ac9b33c" x="57.6" y="218.88" style="stroke: #000000; stroke-width: 0.8"/>
      </g>
     </g>
     <g id="text_7">
      <!-- $\mathdefault{10^{-8}}$ -->
      <g transform="translate(27.1 222.679219) scale(0.1 -0.1)">
       <defs>
        <path id="DejaVuSans-38" d="M 2034 2216 
Q 1584 2216 1326 1975 
Q 1069 1734 1069 1313 
Q 1069 891 1326 650 
Q 1584 409 2034 409 
Q 2484 409 2743 651 
Q 3003 894 3003 1313 
Q 3003 1734 2745 1975 
Q 2488 2216 2034 2216 
z
M 1403 2484 
Q 997 2584 770 2862 
Q 544 3141 544 3541 
Q 544 4100 942 4425 
Q 1341 4750 2034 4750 
Q 2731 4750 3128 4425 
Q 3525 4100 3525 3541 
Q 3525 3141 3298 2862 
Q 3072 2584 2669 2484 
Q 3125 2378 3379 2068 
Q 3634 1759 3634 1313 
Q 3634 634 3220 271 
Q 2806 -91 2034 -91 
Q 1263 -91 848 271 
Q 434 634 434 1313 
Q 434 1759 690 2068 
Q 947 2378 1403 2484 
z
M 1172 3481 
Q 1172 3119 1398 2916 
Q 1625 2713 2034 2713 
Q 2441 2713 2670 2916 
Q 2900 3119 2900 3481 
Q 2900 3844 2670 4047 
Q 2441 4250 2034 4250 
Q 1625 4250 1398 4047 
Q 1172 3844 1172 3481 
z
" transform="scale(0.015625)"/>
       </defs>
       <use xlink:href="#DejaVuSans-31" transform="translate(0 0.765625)"/>
       <use xlink:href="#DejaVuSans-30" transform="translate(63.623047 0.765625)"/>
       <use xlink:href="#DejaVuSans-2212" transform="translate(128.203125 39.046875) scale(0.7)"/>
       <use xlink:href="#DejaVuSans-38" transform="translate(186.855469 39.046875) scale(0.7)"/>
      </g>
     </g>
    </g>
    <g id="ytick_4">
     <g id="line2d_30">
      <g>
       <use xlink:href="#m9a1ac9b33c" x="57.6" y="174.528" style="stroke: #000000; stroke-width: 0.8"/>
      </g>
     </g>
     <g id="text_8">
      <!-- $\mathdefault{10^{-6}}$ -->
      <g transform="translate(27.1 178.327219) scale(0.1 -0.1)">
       <defs>
        <path id="DejaVuSans-36" d="M 2113 2584 
Q 1688 2584 1439 2293 
Q 1191 2003 1191 1497 
Q 1191 994 1439 701 
Q 1688 409 2113 409 
Q 2538 409 2786 701 
Q 3034 994 3034 1497 
Q 3034 2003 2786 2293 
Q 2538 2584 2113 2584 
z
M 3366 4563 
L 3366 3988 
Q 3128 4100 2886 4159 
Q 2644 4219 2406 4219 
Q 1781 4219 1451 3797 
Q 1122 3375 1075 2522 
Q 1259 2794 1537 2939 
Q 1816 3084 2150 3084 
Q 2853 3084 3261 2657 
Q 3669 2231 3669 1497 
Q 3669 778 3244 343 
Q 2819 -91 2113 -91 
Q 1303 -91 875 529 
Q 447 1150 447 2328 
Q 447 3434 972 4092 
Q 1497 4750 2381 4750 
Q 2619 4750 2861 4703 
Q 3103 4656 3366 4563 
z
" transform="scale(0.015625)"/>
       </defs>
       <use xlink:href="#DejaVuSans-31" transform="translate(0 0.765625)"/>
       <use xlink:href="#DejaVuSans-30" transform="translate(63.623047 0.765625)"/>
       <use xlink:href="#DejaVuSans-2212" transform="translate(128.203125 39.046875) scale(0.7)"/>
       <use xlink:href="#DejaVuSans-36" transform="translate(186.855469 39.046875) scale(0.7)"/>
      </g>
     </g>
    </g>
    <g id="ytick_5">
     <g id="line2d_31">
      <g>
       <use xlink:href="#m9a1ac9b33c" x="57.6" y="130.176" style="stroke: #000000; stroke-width: 0.8"/>
      </g>
     </g>
     <g id="text_9">
      <!-- $\mathdefault{10^{-4}}$ -->
      <g transform="translate(27.1 133.975219) scale(0.1 -0.1)">
       <defs>
        <path id="DejaVuSans-34" d="M 2419 4116 
L 825 1625 
L 2419 1625 
L 2419 4116 
z
M 2253 4666 
L 3047 4666 
L 3047 1625 
L 3713 1625 
L 3713 1100 
L 3047 1100 
L 3047 0 
L 2419 0 
L 2419 1100 
L 313 1100 
L 313 1709 
L 2253 4666 
z
" transform="scale(0.015625)"/>
       </defs>
       <use xlink:href="#DejaVuSans-31" transform="translate(0 0.684375)"/>
       <use xlink:href="#DejaVuSans-30" transform="translate(63.623047 0.684375)"/>
       <use xlink:href="#DejaVuSans-2212" transform="translate(128.203125 38.965625) scale(0.7)"/>
       <use xlink:href="#DejaVuSans-34" transform="translate(186.855469 38.965625) scale(0.7)"/>
      </g>
     </g>
    </g>
    <g id="ytick_6">
     <g id="line2d_32">
      <g>
       <use xlink:href="#m9a1ac9b33c" x="57.6" y="85.824" style="stroke: #000000; stroke-width: 0.8"/>
      </g>
     </g>
     <g id="text_10">
      <!-- $\mathdefault{10^{-2}}$ -->
      <g transform="translate(27.1 89.623219) scale(0.1 -0.1)">
       <use xlink:href="#DejaVuSans-31" transform="translate(0 0.765625)"/>
       <use xlink:href="#DejaVuSans-30" transform="translate(63.623047 0.765625)"/>
       <use xlink:href="#DejaVuSans-2212" transform="translate(128.203125 39.046875) scale(0.7)"/>
       <use xlink:href="#DejaVuSans-32" transform="translate(186.855469 39.046875) scale(0.7)"/>
      </g>
     </g>
    </g>
    <g id="ytick_7">
     <g id="line2d_33">
      <g>
       <use xlink:href="#m9a1ac9b33c" x="57.6" y="41.472" style="stroke: #000000; stroke-width: 0.8"/>
      </g>
     </g>
     <g id="text_11">
      <!-- $\mathdefault{10^{0}}$ -->
      <g transform="translate(33 45.271219) scale(0.1 -0.1)">
       <use xlink:href="#DejaVuSans-31" transform="translate(0 0.765625)"/>
       <use xlink:href="#DejaVuSans-30" transform="translate(63.623047 0.765625)"/>
       <use xlink:href="#DejaVuSans-30" transform="translate(128.203125 39.046875) scale(0.7)"/>
      </g>
     </g>
    </g>
    <g id="text_12">
     <!-- Leistung -->
     <g transform="translate(16.520312 192.028) rotate(-90) scale(0.1 -0.1)">
      <defs>
       <path id="TeXGyreTermes-Regular-4c" d="M 3827 1114 
L 3667 1114 
C 3565 890 3482 742 3392 640 
C 3168 371 2816 250 2266 250 
L 1837 250 
C 1370 250 1286 288 1286 512 
L 1286 3539 
C 1286 3994 1376 4083 1882 4115 
L 1882 4237 
L 77 4237 
L 77 4115 
C 550 4077 634 3994 634 3539 
L 634 698 
C 634 243 544 154 77 122 
L 77 0 
L 3520 0 
L 3827 1114 
z
" transform="scale(0.015625)"/>
       <path id="TeXGyreTermes-Regular-73" d="M 2227 755 
C 2227 1075 2080 1286 1690 1517 
L 998 1926 
C 819 2029 723 2189 723 2362 
C 723 2624 922 2797 1216 2797 
C 1581 2797 1773 2586 1920 2010 
L 2016 2010 
L 1990 2880 
L 1920 2880 
L 1907 2867 
C 1850 2822 1843 2816 1818 2816 
C 1779 2816 1715 2829 1645 2861 
C 1510 2912 1363 2938 1210 2938 
C 685 2938 326 2618 326 2150 
C 326 1792 531 1542 1075 1229 
L 1446 1018 
C 1670 890 1779 736 1779 538 
C 1779 256 1574 77 1248 77 
C 806 77 582 320 435 973 
L 333 973 
L 333 -26 
L 416 -26 
C 461 38 486 51 563 51 
C 634 51 704 38 858 0 
C 1037 -38 1197 -64 1331 -64 
C 1818 -64 2227 307 2227 755 
z
" transform="scale(0.015625)"/>
       <path id="TeXGyreTermes-Regular-74" d="M 1786 422 
L 1702 493 
C 1562 326 1459 269 1318 269 
C 1082 269 986 435 986 845 
L 986 2675 
L 1632 2675 
L 1632 2880 
L 986 2880 
L 986 3622 
C 986 3686 973 3706 941 3706 
C 902 3642 858 3584 813 3526 
C 576 3174 358 2938 192 2842 
C 122 2797 83 2758 83 2720 
C 83 2701 90 2688 109 2675 
L 448 2675 
L 448 749 
C 448 211 640 -64 1011 -64 
C 1331 -64 1574 90 1786 422 
z
" transform="scale(0.015625)"/>
       <path id="TeXGyreTermes-Regular-67" d="M 3008 2483 
L 3008 2733 
L 2515 2733 
C 2387 2733 2291 2752 2163 2797 
L 2022 2848 
C 1850 2912 1677 2944 1510 2944 
C 915 2944 442 2483 442 1901 
C 442 1498 614 1254 1037 1043 
L 762 787 
C 550 602 467 474 467 346 
C 467 211 544 134 806 6 
C 352 -326 179 -538 179 -774 
C 179 -1114 678 -1395 1286 -1395 
C 1766 -1395 2266 -1229 2598 -960 
C 2842 -762 2950 -557 2950 -314 
C 2950 83 2650 352 2176 371 
L 1350 410 
C 1011 422 851 480 851 582 
C 851 710 1062 934 1235 986 
C 1293 979 1338 973 1357 973 
C 1478 960 1562 954 1600 954 
C 1837 954 2093 1050 2291 1222 
C 2502 1402 2598 1626 2598 1946 
C 2598 2131 2566 2278 2477 2483 
L 3008 2483 
z
M 2771 -410 
C 2771 -781 2285 -1030 1562 -1030 
C 998 -1030 627 -845 627 -563 
C 627 -416 672 -333 941 -13 
C 1152 -58 1664 -96 1978 -96 
C 2560 -96 2771 -179 2771 -410 
z
M 2106 1696 
C 2106 1338 1920 1114 1626 1114 
C 1242 1114 973 1530 973 2144 
L 973 2163 
C 973 2541 1152 2765 1446 2765 
C 1645 2765 1811 2656 1914 2464 
C 2029 2240 2106 1946 2106 1696 
z
" transform="scale(0.015625)"/>
      </defs>
      <use xlink:href="#TeXGyreTermes-Regular-4c"/>
      <use xlink:href="#TeXGyreTermes-Regular-65" transform="translate(61.099991 0)"/>
      <use xlink:href="#TeXGyreTermes-Regular-69" transform="translate(105.499985 0)"/>
      <use xlink:href="#TeXGyreTermes-Regular-73" transform="translate(133.299973 0)"/>
      <use xlink:href="#TeXGyreTermes-Regular-74" transform="translate(172.199966 0)"/>
      <use xlink:href="#TeXGyreTermes-Regular-75" transform="translate(199.999954 0)"/>
      <use xlink:href="#TeXGyreTermes-Regular-6e" transform="translate(249.999939 0)"/>
      <use xlink:href="#TeXGyreTermes-Regular-67" transform="translate(299.999924 0)"/>
     </g>
    </g>
   </g>
   <g id="line2d_34">
    <path d="M -1 60.345052 
L 73.832727 60.351154 
L 110.054786 74.934384 
L 131.243332 94.3142 
L 146.276845 75.626553 
L 157.937743 93.439432 
L 167.465391 89.654885 
L 175.520902 87.41205 
L 182.498903 91.172258 
L 188.653937 91.94097 
L 194.159802 92.828624 
L 199.140463 98.399246 
L 203.68745 104.653812 
L 207.870272 97.88044 
L 211.742961 158.73467 
L 215.348348 105.009279 
L 218.720962 144.933498 
L 221.889046 117.8711 
L 224.875996 120.519691 
L 227.701407 112.676877 
L 230.381861 112.181144 
L 232.931507 102.611268 
L 235.362521 91.529181 
L 237.685454 103.966447 
L 239.909508 105.868909 
L 242.042759 94.514273 
L 244.092331 102.007056 
L 246.064542 112.231315 
L 247.96502 112.61889 
L 249.7988 150.074945 
L 251.570407 103.617642 
L 253.283917 130.447758 
L 254.943021 119.010298 
L 256.551067 128.312083 
L 258.111105 105.360633 
L 259.625918 102.666015 
L 261.098054 130.528046 
L 262.529853 112.083524 
L 263.923466 121.916571 
L 265.280877 122.733925 
L 266.603919 117.909814 
L 267.894291 109.586462 
L 269.153566 120.779184 
L 270.383208 99.339499 
L 271.58458 113.261419 
L 272.758953 136.127015 
L 273.907513 139.132992 
L 276.131567 125.91724 
L 277.209077 117.001561 
L 278.264818 122.754314 
L 279.299651 124.425256 
L 280.31439 109.06648 
L 281.309798 137.869303 
L 282.2866 148.008735 
L 283.245478 131.212593 
L 284.187078 123.839925 
L 285.112012 128.082401 
L 286.020859 129.289944 
L 286.914169 115.004323 
L 287.792465 156.036966 
L 288.656243 129.064563 
L 290.342112 116.808843 
L 291.16508 117.92536 
L 291.975288 132.13728 
L 292.773126 123.523701 
L 293.558966 132.534137 
L 294.333164 150.635244 
L 295.096059 139.099646 
L 295.847977 135.32963 
L 296.589229 128.777992 
L 297.320113 119.409469 
L 298.040916 113.554092 
L 298.751912 119.091658 
L 299.453364 118.495144 
L 300.145525 129.976913 
L 300.828637 117.468152 
L 302.168644 136.213197 
L 302.825978 123.106272 
L 303.475146 162.351984 
L 304.116349 123.197152 
L 304.74978 119.764147 
L 305.375624 141.458492 
L 305.994062 156.50351 
L 306.605267 115.264544 
L 307.209405 122.35544 
L 307.806639 158.496985 
L 308.397124 117.534066 
L 308.981011 146.005574 
L 309.558447 163.550241 
L 310.129572 130.891388 
L 310.694522 141.182661 
L 311.806423 111.178002 
L 312.353626 136.228368 
L 312.895158 138.648005 
L 313.431136 136.823684 
L 313.961672 134.481005 
L 314.486876 145.956322 
L 315.006855 124.117148 
L 315.52171 137.526787 
L 316.031542 135.949244 
L 316.536448 130.00955 
L 317.036523 129.505967 
L 317.531857 151.203854 
L 318.02254 121.522784 
L 318.508659 161.11678 
L 318.990297 131.673724 
L 319.467537 131.511532 
L 319.940458 127.181308 
L 320.87365 143.336098 
L 321.334071 120.597292 
L 321.79047 137.980584 
L 322.242918 135.872739 
L 322.691482 132.548042 
L 323.136228 128.165709 
L 323.577221 128.050067 
L 324.014524 121.045345 
L 324.448198 141.540161 
L 324.878302 144.454101 
L 325.304895 124.380517 
L 325.728034 145.150684 
L 326.147775 140.374149 
L 326.56417 140.529876 
L 326.977274 165.310434 
L 327.387138 133.172207 
L 327.793813 140.832496 
L 328.197347 122.48612 
L 328.597788 129.631435 
L 328.995185 132.651059 
L 329.389582 136.608627 
L 329.781025 126.620659 
L 330.169557 147.278565 
L 330.555223 123.42077 
L 330.938062 145.331688 
L 331.318118 156.770979 
L 331.695429 149.53009 
L 332.070035 147.787664 
L 332.441976 123.77384 
L 332.811287 134.508823 
L 333.178007 153.701881 
L 333.542172 119.473802 
L 333.903816 134.929317 
L 334.262975 142.038302 
L 334.619682 132.761108 
L 334.97397 131.645664 
L 335.325873 131.952584 
L 335.675422 136.057341 
L 336.022649 161.053232 
L 336.367583 137.235966 
L 336.710256 122.70064 
L 337.050696 143.467258 
L 337.388933 127.240346 
L 337.724994 128.784358 
L 338.058908 145.157687 
L 338.390702 137.737773 
L 338.720403 142.415827 
L 339.048037 129.563009 
L 339.373629 132.467058 
L 339.697205 131.03517 
L 340.01879 131.341984 
L 340.338408 143.377913 
L 340.656083 121.313648 
L 341.285698 153.522985 
L 341.597683 132.96352 
L 341.907817 135.320128 
L 342.216121 120.074414 
L 342.522617 178.443449 
L 342.827325 135.772626 
L 343.130268 149.939225 
L 343.431464 129.575858 
L 343.730934 154.852461 
L 344.028697 135.36313 
L 344.324774 144.819961 
L 344.619183 144.244202 
L 344.911942 133.954888 
L 345.20307 147.203617 
L 345.492585 131.181954 
L 345.780506 150.840895 
L 346.066848 131.409385 
L 346.35163 128.28118 
L 346.634869 123.561428 
L 346.91658 123.471235 
L 347.196782 162.661105 
L 347.475488 137.471283 
L 348.028482 161.84853 
L 348.302799 139.020951 
L 348.575684 139.171538 
L 348.847152 161.086369 
L 349.117217 140.632394 
L 349.385893 129.887436 
L 349.653194 141.358428 
L 349.919136 140.839941 
L 350.183731 151.850272 
L 350.708935 136.759031 
L 350.969571 138.734938 
L 351.228913 133.657731 
L 351.486975 133.298313 
L 351.743769 141.78613 
L 351.999306 145.476783 
L 352.253601 139.019777 
L 352.506664 144.991454 
L 352.758507 140.425587 
L 353.009142 152.301117 
L 353.258581 131.973738 
L 353.506836 137.469554 
L 353.753916 127.274827 
L 354.488224 145.510047 
L 354.730718 133.766591 
L 354.972092 136.432318 
L 355.212356 150.943842 
L 355.451521 138.525109 
L 355.689596 136.586688 
L 355.926591 144.741434 
L 356.162517 134.695327 
L 356.397382 150.014018 
L 356.631196 153.273548 
L 356.863968 132.232304 
L 357.095709 154.489422 
L 357.326426 139.502592 
L 357.556129 142.991974 
L 357.784827 142.393072 
L 358.012529 134.029594 
L 358.239242 138.910045 
L 358.464976 150.472303 
L 358.68974 125.564431 
L 358.91354 128.142509 
L 359.136387 123.312669 
L 359.358287 140.339542 
L 359.579249 148.022874 
L 359.79928 151.416427 
L 360.018389 131.215406 
L 360.236583 139.282115 
L 360.453869 157.58237 
L 360.670256 160.32177 
L 360.885751 134.104775 
L 361.100361 138.39163 
L 361.314093 152.46931 
L 361.738952 134.170305 
L 361.950093 147.207992 
L 362.369833 134.94318 
L 362.578446 153.625846 
L 362.786229 138.68206 
L 362.993189 153.572102 
L 363.199333 148.634568 
L 363.404667 137.383897 
L 363.609197 159.251981 
L 363.81293 142.73954 
L 364.015871 190.44108 
L 364.218028 143.030971 
L 364.419405 159.121543 
L 364.819847 133.166228 
L 365.018923 147.022929 
L 365.217243 135.461554 
L 365.414814 170.127203 
L 365.611641 157.634917 
L 365.807729 136.129529 
L 366.003084 150.072175 
L 366.197711 142.897059 
L 366.391616 125.235377 
L 366.969052 156.084144 
L 367.160121 137.970326 
L 367.350494 145.287036 
L 367.540176 139.729798 
L 367.729172 125.487965 
L 367.917488 159.406507 
L 368.105127 140.111353 
L 368.292094 146.485514 
L 368.478395 146.402675 
L 368.664034 140.630495 
L 368.849016 151.69889 
L 369.033346 137.669937 
L 369.217028 136.209721 
L 369.400066 124.167662 
L 369.582465 143.904163 
L 369.76423 144.973619 
L 369.945365 134.116245 
L 370.125875 185.43546 
L 370.305763 146.290727 
L 370.485033 136.750054 
L 370.663691 140.263203 
L 370.84174 154.236978 
L 371.019185 148.403497 
L 371.372277 129.718431 
L 371.547932 146.470885 
L 371.722999 133.898352 
L 371.897481 132.339794 
L 372.071383 149.53518 
L 372.244708 145.746284 
L 372.589642 172.128383 
L 372.761259 172.225645 
L 372.932315 144.966525 
L 373.272755 195.515566 
L 373.442147 135.419167 
L 373.779292 160.332102 
L 374.114277 129.535618 
L 374.280967 131.172957 
L 374.447127 136.760783 
L 374.612761 134.926656 
L 374.777872 149.21537 
L 374.942462 136.76402 
L 375.106535 134.622128 
L 375.433145 159.546951 
L 375.595688 130.2077 
L 375.757726 136.917041 
L 375.919264 165.781453 
L 376.080304 144.282246 
L 376.240849 144.760166 
L 376.400902 147.087848 
L 376.719546 137.476393 
L 376.878142 149.218667 
L 377.036258 147.050883 
L 377.193897 138.028282 
L 377.507756 164.31662 
L 377.975039 140.778693 
L 378.129876 156.971149 
L 378.284255 142.160153 
L 378.43818 156.496223 
L 378.591652 136.465059 
L 378.744675 133.955342 
L 378.897252 173.145497 
L 379.201075 146.714845 
L 379.352326 153.087753 
L 379.503141 131.551859 
L 379.653522 144.411972 
L 379.803472 144.827864 
L 379.952992 141.014193 
L 380.102086 140.351164 
L 380.250756 141.359073 
L 380.399004 157.198898 
L 380.546833 149.140701 
L 380.694244 150.727343 
L 380.841241 141.598558 
L 381.134001 169.800719 
L 381.425129 145.65234 
L 381.570087 146.187496 
L 381.714644 144.570975 
L 381.858803 139.545103 
L 382.002564 155.121305 
L 382.288907 147.122547 
L 382.431492 161.363355 
L 382.573689 140.387104 
L 382.856928 153.539193 
L 383.138639 141.164808 
L 383.278928 155.368163 
L 383.697547 135.796474 
L 383.836345 146.65503 
L 384.11284 149.047009 
L 384.387879 157.615843 
L 384.661479 141.281562 
L 384.797743 152.218149 
L 384.933653 153.451598 
L 385.069211 155.898582 
L 385.204417 153.553306 
L 385.339275 128.098513 
L 385.607951 192.87743 
L 386.008393 133.084624 
L 386.141195 150.687304 
L 386.40579 134.296326 
L 386.537586 140.314385 
L 386.669051 156.616941 
L 386.930994 138.920726 
L 387.061474 154.334645 
L 387.19163 155.415807 
L 387.580162 139.71118 
L 387.709034 149.735318 
L 387.837588 168.628447 
L 387.965827 147.160736 
L 388.093752 144.382015 
L 388.221365 158.749258 
L 388.348667 158.619296 
L 388.475659 140.487934 
L 388.602344 152.594182 
L 388.728722 145.406527 
L 388.854796 153.50373 
L 389.106034 182.48191 
L 389.231201 158.713232 
L 389.356069 161.663685 
L 389.48064 185.099238 
L 389.604915 142.045017 
L 389.728894 162.038626 
L 389.85258 137.573191 
L 389.975975 153.41606 
L 390.099078 138.236423 
L 390.221892 150.866178 
L 390.344418 137.689062 
L 390.466658 145.564115 
L 390.710282 139.216659 
L 390.83167 156.48208 
L 391.073603 145.044413 
L 391.194151 165.980818 
L 391.434415 135.710833 
L 391.554134 161.741795 
L 391.673579 138.310633 
L 391.792753 167.575276 
L 392.030287 145.827471 
L 392.14865 160.364239 
L 392.266746 143.717811 
L 392.50214 156.735352 
L 392.61944 145.915281 
L 392.736478 145.865547 
L 392.96977 150.961156 
L 393.202026 144.591388 
L 393.317768 146.617034 
L 393.433254 158.430183 
L 393.548485 143.24368 
L 393.663463 146.781995 
L 393.892662 136.865865 
L 394.120861 153.117453 
L 394.234587 137.044793 
L 394.348067 143.298197 
L 394.461301 143.10885 
L 394.687035 157.43704 
L 394.911798 148.424292 
L 395.023819 148.967397 
L 395.135599 153.671646 
L 395.247141 194.021257 
L 395.358445 153.102001 
L 395.469513 160.512229 
L 395.580345 144.483435 
L 395.690943 144.862783 
L 395.801307 140.737353 
L 396.021339 157.751071 
L 396.131008 135.969636 
L 396.349658 150.732734 
L 396.567398 140.241687 
L 396.675928 157.546485 
L 396.892315 141.715255 
L 397.000174 145.769897 
L 397.10781 138.357463 
L 397.215225 157.394213 
L 397.32242 145.465044 
L 397.536152 157.671744 
L 397.749013 139.671575 
L 397.855119 156.42536 
L 397.961011 141.44477 
L 398.066688 157.905266 
L 398.277403 153.020514 
L 398.382443 153.312655 
L 398.487273 161.505861 
L 398.487273 161.505861 
" clip-path="url(#pe854a2eaa6)" style="fill: none; stroke: #1f77b4; stroke-width: 1.5; stroke-linecap: square"/>
   </g>
   <g id="patch_3">
    <path d="M 57.6 307.584 
L 57.6 41.472 
" style="fill: none; stroke: #000000; stroke-width: 0.8; stroke-linejoin: miter; stroke-linecap: square"/>
   </g>
   <g id="patch_4">
    <path d="M 414.72 307.584 
L 414.72 41.472 
" style="fill: none; stroke: #000000; stroke-width: 0.8; stroke-linejoin: miter; stroke-linecap: square"/>
   </g>
   <g id="patch_5">
    <path d="M 57.6 307.584 
L 414.72 307.584 
" style="fill: none; stroke: #000000; stroke-width: 0.8; stroke-linejoin: miter; stroke-linecap: square"/>
   </g>
   <g id="patch_6">
    <path d="M 57.6 41.472 
L 414.72 41.472 
" style="fill: none; stroke: #000000; stroke-width: 0.8; stroke-linejoin: miter; stroke-linecap: square"/>
   </g>
  </g>
 </g>
 <defs>
  <clipPath id="pe854a2eaa6">
   <rect x="57.6" y="41.472" width="357.12" height="266.112"/>
  </clipPath>
 </defs>
</svg>
