<?xml version="1.0" encoding="utf-8" standalone="no"?>
<!DOCTYPE svg PUBLIC "-//W3C//DTD SVG 1.1//EN"
  "http://www.w3.org/Graphics/SVG/1.1/DTD/svg11.dtd">
<svg xmlns:xlink="http://www.w3.org/1999/xlink" width="460.8pt" height="345.6pt" viewBox="0 0 460.8 345.6" xmlns="http://www.w3.org/2000/svg" version="1.1">
 <metadata>
  <rdf:RDF xmlns:dc="http://purl.org/dc/elements/1.1/" xmlns:cc="http://creativecommons.org/ns#" xmlns:rdf="http://www.w3.org/1999/02/22-rdf-syntax-ns#">
   <cc:Work>
    <dc:type rdf:resource="http://purl.org/dc/dcmitype/StillImage"/>
    <dc:date>2026-02-02T15:33:40.426253</dc:date>
    <dc:format>image/svg+xml</dc:format>
    <dc:creator>
     <cc:Agent>
      <dc:title>Matplotlib v3.10.8, https://matplotlib.org/</dc:title>
     </cc:Agent>
    </dc:creator>
   </cc:Work>
  </rdf:RDF>
 </metadata>
 <defs>
  <style type="text/css">*{stroke-linejoin: round; stroke-linecap: butt}</style>
 </defs>
 <g id="figure_1">
  <g id="patch_1">
   <path d="M 0 345.6 
L 460.8 345.6 
L 460.8 0 
L 0 0 
z
" style="fill: #ffffff"/>
  </g>
  <g id="axes_1">
   <g id="patch_2">
    <path d="M 83.6075 266.245 
L 410.94 266.245 
L 410.94 25.92 
L 83.6075 25.92 
z
" style="fill: #ffffff"/>
   </g>
   <g id="matplotlib.axis_1">
    <g id="xtick_1">
     <g id="line2d_1">
      <path d="M 83.6075 266.245 
L 83.6075 25.92 
" clip-path="url(#pbc04d2edb9)" style="fill: none; stroke: #b0b0b0; stroke-width: 0.8; stroke-linecap: square"/>
     </g>
     <g id="line2d_2">
      <defs>
       <path id="m57a84dd285" d="M 0 0 
L 0 3.5 
" style="stroke: #000000; stroke-width: 0.8"/>
      </defs>
      <g>
       <use xlink:href="#m57a84dd285" x="83.6075" y="266.245" style="stroke: #000000; stroke-width: 0.8"/>
      </g>
     </g>
     <g id="text_1">
      <!-- 0 -->
      <g transform="translate(77.6075 289.63625) scale(0.24 -0.24)">
       <defs>
        <path id="TeXGyreTermes-Regular-30" d="M 3046 2112 
C 3046 3424 2464 4326 1626 4326 
C 1274 4326 1005 4218 768 3994 
C 397 3635 154 2899 154 2150 
C 154 1453 365 704 666 346 
C 902 64 1229 -90 1600 -90 
C 1926 -90 2202 19 2432 243 
C 2803 595 3046 1338 3046 2112 
z
M 2432 2099 
C 2432 762 2150 77 1600 77 
C 1050 77 768 762 768 2093 
C 768 3450 1056 4160 1606 4160 
C 2144 4160 2432 3437 2432 2099 
z
" transform="scale(0.015625)"/>
       </defs>
       <use xlink:href="#TeXGyreTermes-Regular-30"/>
      </g>
     </g>
    </g>
    <g id="xtick_2">
     <g id="line2d_3">
      <path d="M 165.440625 266.245 
L 165.440625 25.92 
" clip-path="url(#pbc04d2edb9)" style="fill: none; stroke: #b0b0b0; stroke-width: 0.8; stroke-linecap: square"/>
     </g>
     <g id="line2d_4">
      <g>
       <use xlink:href="#m57a84dd285" x="165.440625" y="266.245" style="stroke: #000000; stroke-width: 0.8"/>
      </g>
     </g>
     <g id="text_2">
      <!-- 250 -->
      <g transform="translate(147.440625 289.63625) scale(0.24 -0.24)">
       <defs>
        <path id="TeXGyreTermes-Regular-32" d="M 3040 877 
L 2957 909 
C 2720 544 2637 486 2349 486 
L 819 486 
L 1894 1613 
C 2464 2208 2714 2694 2714 3194 
C 2714 3834 2195 4326 1530 4326 
C 1178 4326 845 4186 608 3930 
C 403 3712 307 3507 198 3053 
L 333 3021 
C 589 3648 819 3853 1261 3853 
C 1798 3853 2163 3488 2163 2950 
C 2163 2451 1869 1856 1331 1286 
L 192 77 
L 192 0 
L 2688 0 
L 3040 877 
z
" transform="scale(0.015625)"/>
        <path id="TeXGyreTermes-Regular-35" d="M 2803 4358 
L 2746 4403 
C 2650 4269 2586 4237 2451 4237 
L 1114 4237 
L 416 2720 
C 410 2707 410 2688 410 2688 
C 410 2656 435 2637 486 2637 
C 691 2637 947 2592 1210 2509 
C 1946 2272 2285 1875 2285 1242 
C 2285 627 1894 147 1395 147 
C 1267 147 1158 192 966 333 
C 762 480 614 544 480 544 
C 294 544 205 467 205 307 
C 205 64 506 -90 986 -90 
C 1523 -90 1984 83 2304 410 
C 2598 698 2733 1062 2733 1549 
C 2733 2010 2611 2304 2291 2624 
C 2010 2906 1645 3053 890 3187 
L 1158 3731 
L 2413 3731 
C 2515 3731 2541 3744 2560 3789 
L 2803 4358 
z
" transform="scale(0.015625)"/>
       </defs>
       <use xlink:href="#TeXGyreTermes-Regular-32"/>
       <use xlink:href="#TeXGyreTermes-Regular-35" transform="translate(49.999985 0)"/>
       <use xlink:href="#TeXGyreTermes-Regular-30" transform="translate(99.999969 0)"/>
      </g>
     </g>
    </g>
    <g id="xtick_3">
     <g id="line2d_5">
      <path d="M 247.27375 266.245 
L 247.27375 25.92 
" clip-path="url(#pbc04d2edb9)" style="fill: none; stroke: #b0b0b0; stroke-width: 0.8; stroke-linecap: square"/>
     </g>
     <g id="line2d_6">
      <g>
       <use xlink:href="#m57a84dd285" x="247.27375" y="266.245" style="stroke: #000000; stroke-width: 0.8"/>
      </g>
     </g>
     <g id="text_3">
      <!-- 500 -->
      <g transform="translate(229.27375 289.63625) scale(0.24 -0.24)">
       <use xlink:href="#TeXGyreTermes-Regular-35"/>
       <use xlink:href="#TeXGyreTermes-Regular-30" transform="translate(49.999985 0)"/>
       <use xlink:href="#TeXGyreTermes-Regular-30" transform="translate(99.999969 0)"/>
      </g>
     </g>
    </g>
    <g id="xtick_4">
     <g id="line2d_7">
      <path d="M 329.106875 266.245 
L 329.106875 25.92 
" clip-path="url(#pbc04d2edb9)" style="fill: none; stroke: #b0b0b0; stroke-width: 0.8; stroke-linecap: square"/>
     </g>
     <g id="line2d_8">
      <g>
       <use xlink:href="#m57a84dd285" x="329.106875" y="266.245" style="stroke: #000000; stroke-width: 0.8"/>
      </g>
     </g>
     <g id="text_4">
      <!-- 750 -->
      <g transform="translate(311.106875 289.63625) scale(0.24 -0.24)">
       <defs>
        <path id="TeXGyreTermes-Regular-37" d="M 2874 4134 
L 2874 4237 
L 506 4237 
L 128 3296 
L 237 3245 
C 512 3680 627 3763 979 3763 
L 2368 3763 
L 1101 -51 
L 1517 -51 
L 2874 4134 
z
" transform="scale(0.015625)"/>
       </defs>
       <use xlink:href="#TeXGyreTermes-Regular-37"/>
       <use xlink:href="#TeXGyreTermes-Regular-35" transform="translate(49.999985 0)"/>
       <use xlink:href="#TeXGyreTermes-Regular-30" transform="translate(99.999969 0)"/>
      </g>
     </g>
    </g>
    <g id="xtick_5">
     <g id="line2d_9">
      <path d="M 410.94 266.245 
L 410.94 25.92 
" clip-path="url(#pbc04d2edb9)" style="fill: none; stroke: #b0b0b0; stroke-width: 0.8; stroke-linecap: square"/>
     </g>
     <g id="line2d_10">
      <g>
       <use xlink:href="#m57a84dd285" x="410.94" y="266.245" style="stroke: #000000; stroke-width: 0.8"/>
      </g>
     </g>
     <g id="text_5">
      <!-- 1000 -->
      <g transform="translate(386.94 289.63625) scale(0.24 -0.24)">
       <defs>
        <path id="TeXGyreTermes-Regular-31" d="M 2522 0 
L 2522 96 
C 2016 102 1914 166 1914 474 
L 1914 4314 
L 1862 4326 
L 710 3744 
L 710 3654 
C 787 3686 858 3712 883 3725 
C 998 3770 1107 3795 1171 3795 
C 1306 3795 1363 3699 1363 3494 
L 1363 595 
C 1363 384 1312 237 1210 179 
C 1114 122 1024 102 755 96 
L 755 0 
L 2522 0 
z
" transform="scale(0.015625)"/>
       </defs>
       <use xlink:href="#TeXGyreTermes-Regular-31"/>
       <use xlink:href="#TeXGyreTermes-Regular-30" transform="translate(49.999985 0)"/>
       <use xlink:href="#TeXGyreTermes-Regular-30" transform="translate(99.999969 0)"/>
       <use xlink:href="#TeXGyreTermes-Regular-30" transform="translate(149.999954 0)"/>
      </g>
     </g>
    </g>
    <g id="text_6">
     <!-- Schritt k -->
     <g transform="translate(206.27125 315.23625) scale(0.24 -0.24)">
      <defs>
       <path id="TeXGyreTermes-Regular-53" d="M 3142 1075 
C 3142 1606 2790 2016 1946 2477 
C 1274 2842 1005 3123 1005 3475 
C 1005 3827 1274 4064 1670 4064 
C 1958 4064 2227 3942 2451 3712 
C 2650 3507 2739 3341 2842 2963 
L 3002 2963 
L 2861 4326 
L 2726 4326 
C 2701 4186 2630 4109 2522 4109 
C 2458 4109 2355 4134 2240 4186 
C 2003 4275 1773 4326 1549 4326 
C 1299 4326 1030 4224 826 4058 
C 576 3853 454 3578 454 3226 
C 454 2720 736 2362 1453 1984 
C 1914 1734 2246 1478 2406 1235 
C 2464 1146 2496 1018 2496 858 
C 2496 435 2176 141 1709 141 
C 1133 141 736 493 416 1274 
L 269 1274 
L 461 -83 
L 602 -83 
C 608 38 685 128 781 128 
C 851 128 960 102 1082 58 
C 1325 -38 1581 -90 1837 -90 
C 2579 -90 3142 416 3142 1075 
z
" transform="scale(0.015625)"/>
       <path id="TeXGyreTermes-Regular-63" d="M 2637 941 
L 2547 998 
C 2240 550 2010 397 1645 397 
C 1056 397 653 909 653 1645 
C 653 2310 1005 2758 1523 2758 
C 1754 2758 1837 2688 1901 2451 
L 1939 2310 
C 1990 2125 2106 2016 2246 2016 
C 2413 2016 2547 2138 2547 2285 
C 2547 2643 2099 2944 1562 2944 
C 1261 2944 954 2829 698 2618 
C 352 2330 160 1888 160 1357 
C 160 531 666 -64 1376 -64 
C 1651 -64 1894 26 2112 205 
C 2304 358 2432 544 2637 941 
z
" transform="scale(0.015625)"/>
       <path id="TeXGyreTermes-Regular-68" d="M 3117 0 
L 3117 96 
C 2771 160 2733 211 2733 653 
L 2733 1926 
C 2733 2598 2464 2944 1946 2944 
C 1568 2944 1299 2790 1005 2406 
L 1005 4352 
L 973 4371 
C 755 4294 595 4243 237 4141 
L 64 4090 
L 64 3987 
C 90 3994 109 3994 141 3994 
C 416 3994 467 3942 467 3667 
L 467 653 
C 467 205 429 147 58 96 
L 58 0 
L 1440 0 
L 1440 96 
C 1069 134 1005 211 1005 653 
L 1005 2195 
C 1274 2490 1466 2598 1715 2598 
C 2035 2598 2195 2368 2195 1920 
L 2195 653 
C 2195 218 2131 134 1760 96 
L 1760 0 
L 3117 0 
z
" transform="scale(0.015625)"/>
       <path id="TeXGyreTermes-Regular-72" d="M 2144 2605 
C 2144 2816 2010 2944 1792 2944 
C 1523 2944 1338 2797 1024 2342 
L 1024 2931 
L 992 2944 
C 653 2803 422 2720 45 2598 
L 45 2496 
C 134 2515 192 2522 269 2522 
C 429 2522 486 2419 486 2138 
L 486 538 
C 486 218 442 173 32 96 
L 32 0 
L 1568 0 
L 1568 96 
C 1133 115 1024 211 1024 576 
L 1024 2016 
C 1024 2221 1299 2541 1472 2541 
C 1510 2541 1568 2509 1638 2445 
C 1741 2355 1811 2317 1894 2317 
C 2048 2317 2144 2426 2144 2605 
z
" transform="scale(0.015625)"/>
       <path id="TeXGyreTermes-Regular-69" d="M 1619 0 
L 1619 96 
C 1197 128 1146 192 1146 653 
L 1146 2925 
L 1120 2944 
L 128 2592 
L 128 2496 
L 179 2502 
C 256 2515 339 2522 397 2522 
C 550 2522 608 2419 608 2138 
L 608 653 
C 608 192 544 122 102 96 
L 102 0 
L 1619 0 
z
M 1203 3776 
C 1203 3955 1062 4102 877 4102 
C 698 4102 550 3955 550 3776 
C 550 3590 698 3450 877 3450 
C 1062 3450 1203 3590 1203 3776 
z
" transform="scale(0.015625)"/>
       <path id="TeXGyreTermes-Regular-74" d="M 1786 422 
L 1702 493 
C 1562 326 1459 269 1318 269 
C 1082 269 986 435 986 845 
L 986 2675 
L 1632 2675 
L 1632 2880 
L 986 2880 
L 986 3622 
C 986 3686 973 3706 941 3706 
C 902 3642 858 3584 813 3526 
C 576 3174 358 2938 192 2842 
C 122 2797 83 2758 83 2720 
C 83 2701 90 2688 109 2675 
L 448 2675 
L 448 749 
C 448 211 640 -64 1011 -64 
C 1331 -64 1574 90 1786 422 
z
" transform="scale(0.015625)"/>
       <path id="TeXGyreTermes-Regular-20" transform="scale(0.015625)"/>
       <path id="TeXGyreTermes-Regular-6b" d="M 3232 0 
L 3232 96 
C 2950 115 2752 237 2483 563 
L 1504 1805 
L 1690 1978 
C 2144 2400 2541 2694 2726 2746 
C 2822 2771 2912 2784 3021 2784 
L 3072 2784 
L 3072 2880 
L 1766 2880 
L 1766 2790 
C 2016 2784 2086 2758 2086 2669 
C 2086 2618 2029 2528 1939 2451 
L 1062 1670 
L 1062 4358 
L 1037 4371 
L 237 4141 
L 45 4090 
L 45 3987 
C 128 3994 186 4000 250 4000 
C 461 4000 525 3917 525 3610 
L 525 525 
C 525 192 506 173 45 96 
L 45 0 
L 1542 0 
L 1542 96 
L 1414 102 
C 1158 115 1062 205 1062 429 
L 1062 1606 
L 1958 410 
L 1978 384 
C 1990 365 2003 346 2022 326 
C 2074 262 2093 224 2093 192 
C 2093 134 2035 96 1958 96 
L 1837 96 
L 1837 0 
L 3232 0 
z
" transform="scale(0.015625)"/>
      </defs>
      <use xlink:href="#TeXGyreTermes-Regular-53"/>
      <use xlink:href="#TeXGyreTermes-Regular-63" transform="translate(55.599991 0)"/>
      <use xlink:href="#TeXGyreTermes-Regular-68" transform="translate(99.999985 0)"/>
      <use xlink:href="#TeXGyreTermes-Regular-72" transform="translate(149.999969 0)"/>
      <use xlink:href="#TeXGyreTermes-Regular-69" transform="translate(183.299957 0)"/>
      <use xlink:href="#TeXGyreTermes-Regular-74" transform="translate(211.099945 0)"/>
      <use xlink:href="#TeXGyreTermes-Regular-74" transform="translate(238.899933 0)"/>
      <use xlink:href="#TeXGyreTermes-Regular-20" transform="translate(266.699921 0)"/>
      <use xlink:href="#TeXGyreTermes-Regular-6b" transform="translate(291.699905 0)"/>
     </g>
    </g>
   </g>
   <g id="matplotlib.axis_2">
    <g id="ytick_1">
     <g id="line2d_11">
      <path d="M 83.6075 229.551254 
L 410.94 229.551254 
" clip-path="url(#pbc04d2edb9)" style="fill: none; stroke: #b0b0b0; stroke-width: 0.8; stroke-linecap: square"/>
     </g>
     <g id="line2d_12">
      <defs>
       <path id="m272c993132" d="M 0 0 
L -3.5 0 
" style="stroke: #000000; stroke-width: 0.8"/>
      </defs>
      <g>
       <use xlink:href="#m272c993132" x="83.6075" y="229.551254" style="stroke: #000000; stroke-width: 0.8"/>
      </g>
     </g>
     <g id="text_7">
      <!-- −2 -->
      <g transform="translate(51.07 237.746879) scale(0.24 -0.24)">
       <defs>
        <path id="TeXGyreTermes-Regular-2212" d="M 3354 1389 
L 3354 1811 
L 256 1811 
L 256 1389 
L 3354 1389 
z
" transform="scale(0.015625)"/>
       </defs>
       <use xlink:href="#TeXGyreTermes-Regular-2212"/>
       <use xlink:href="#TeXGyreTermes-Regular-32" transform="translate(56.399994 0)"/>
      </g>
     </g>
    </g>
    <g id="ytick_2">
     <g id="line2d_13">
      <path d="M 83.6075 166.78339 
L 410.94 166.78339 
" clip-path="url(#pbc04d2edb9)" style="fill: none; stroke: #b0b0b0; stroke-width: 0.8; stroke-linecap: square"/>
     </g>
     <g id="line2d_14">
      <g>
       <use xlink:href="#m272c993132" x="83.6075" y="166.78339" style="stroke: #000000; stroke-width: 0.8"/>
      </g>
     </g>
     <g id="text_8">
      <!-- 0 -->
      <g transform="translate(64.6075 174.979015) scale(0.24 -0.24)">
       <use xlink:href="#TeXGyreTermes-Regular-30"/>
      </g>
     </g>
    </g>
    <g id="ytick_3">
     <g id="line2d_15">
      <path d="M 83.6075 104.015526 
L 410.94 104.015526 
" clip-path="url(#pbc04d2edb9)" style="fill: none; stroke: #b0b0b0; stroke-width: 0.8; stroke-linecap: square"/>
     </g>
     <g id="line2d_16">
      <g>
       <use xlink:href="#m272c993132" x="83.6075" y="104.015526" style="stroke: #000000; stroke-width: 0.8"/>
      </g>
     </g>
     <g id="text_9">
      <!-- 2 -->
      <g transform="translate(64.6075 112.211151) scale(0.24 -0.24)">
       <use xlink:href="#TeXGyreTermes-Regular-32"/>
      </g>
     </g>
    </g>
    <g id="ytick_4">
     <g id="line2d_17">
      <path d="M 83.6075 41.247662 
L 410.94 41.247662 
" clip-path="url(#pbc04d2edb9)" style="fill: none; stroke: #b0b0b0; stroke-width: 0.8; stroke-linecap: square"/>
     </g>
     <g id="line2d_18">
      <g>
       <use xlink:href="#m272c993132" x="83.6075" y="41.247662" style="stroke: #000000; stroke-width: 0.8"/>
      </g>
     </g>
     <g id="text_10">
      <!-- 4 -->
      <g transform="translate(64.6075 49.443287) scale(0.24 -0.24)">
       <defs>
        <path id="TeXGyreTermes-Regular-34" d="M 3021 1069 
L 3021 1478 
L 2368 1478 
L 2368 4326 
L 2086 4326 
L 77 1478 
L 77 1069 
L 1875 1069 
L 1875 0 
L 2368 0 
L 2368 1069 
L 3021 1069 
z
M 1869 1478 
L 333 1478 
L 1869 3674 
L 1869 1478 
z
" transform="scale(0.015625)"/>
       </defs>
       <use xlink:href="#TeXGyreTermes-Regular-34"/>
      </g>
     </g>
    </g>
    <g id="text_11">
     <!-- x(k) -->
     <g transform="translate(41.86125 166.07375) rotate(-90) scale(0.24 -0.24)">
      <defs>
       <path id="TeXGyreTermes-Regular-78" d="M 3066 0 
L 3066 96 
C 2867 96 2739 198 2541 480 
L 1722 1734 
L 2253 2502 
C 2374 2675 2566 2778 2771 2784 
L 2771 2880 
L 1760 2880 
L 1760 2784 
C 1952 2771 2016 2733 2016 2643 
C 2016 2566 1939 2426 1779 2227 
C 1747 2189 1670 2074 1587 1946 
L 1498 2074 
C 1318 2342 1203 2560 1203 2643 
C 1203 2733 1286 2778 1478 2784 
L 1478 2880 
L 154 2880 
L 154 2784 
L 211 2784 
C 403 2784 506 2701 704 2400 
L 1306 1478 
L 576 422 
C 384 160 320 115 109 96 
L 109 0 
L 1037 0 
L 1037 96 
C 858 96 781 128 781 211 
C 781 250 826 346 909 474 
L 1414 1261 
L 1997 365 
C 2022 326 2035 288 2035 250 
C 2035 134 1990 109 1779 96 
L 1779 0 
L 3066 0 
z
" transform="scale(0.015625)"/>
       <path id="TeXGyreTermes-Regular-28" d="M 1946 -1030 
C 1434 -627 1254 -403 1082 77 
C 928 506 858 992 858 1632 
C 858 2304 941 2829 1114 3226 
C 1293 3622 1485 3853 1946 4224 
L 1888 4326 
C 1414 4019 1222 3853 986 3558 
C 531 3002 307 2362 307 1613 
C 307 800 544 173 1107 -480 
C 1370 -787 1536 -928 1869 -1133 
L 1946 -1030 
z
" transform="scale(0.015625)"/>
       <path id="TeXGyreTermes-Regular-29" d="M 1824 1581 
C 1824 2400 1587 3021 1024 3674 
C 762 3981 595 4122 262 4326 
L 186 4224 
C 698 3821 870 3597 1050 3117 
C 1203 2688 1274 2202 1274 1562 
C 1274 896 1190 365 1018 -26 
C 838 -429 646 -659 186 -1030 
L 243 -1133 
C 717 -826 909 -659 1146 -365 
C 1600 192 1824 832 1824 1581 
z
" transform="scale(0.015625)"/>
      </defs>
      <use xlink:href="#TeXGyreTermes-Regular-78"/>
      <use xlink:href="#TeXGyreTermes-Regular-28" transform="translate(49.999985 0)"/>
      <use xlink:href="#TeXGyreTermes-Regular-6b" transform="translate(83.299973 0)"/>
      <use xlink:href="#TeXGyreTermes-Regular-29" transform="translate(133.299957 0)"/>
     </g>
    </g>
   </g>
   <g id="line2d_19">
    <path d="M 83.6075 207.86296 
L 84.262165 141.487884 
L 84.589498 187.482502 
L 84.91683 139.877809 
L 85.244163 174.167199 
L 85.571495 228.275365 
L 85.898827 179.288498 
L 86.22616 200.058055 
L 86.553493 181.832629 
L 86.880825 199.959232 
L 87.208157 204.309227 
L 87.53549 199.284761 
L 87.862823 154.555751 
L 88.190155 197.976457 
L 88.517488 178.586657 
L 88.84482 118.00011 
L 89.172152 183.691542 
L 89.499485 141.866984 
L 89.826818 148.843498 
L 90.15415 152.086219 
L 90.481482 166.436867 
L 90.808815 171.160191 
L 91.136148 178.308677 
L 91.46348 172.769424 
L 91.790813 183.563533 
L 92.118145 172.379241 
L 92.445477 175.785252 
L 92.77281 128.572577 
L 93.100143 176.218553 
L 93.427475 146.394989 
L 93.754807 131.309313 
L 94.409473 177.657047 
L 94.736805 176.849901 
L 95.064138 201.062749 
L 95.39147 179.221884 
L 95.718802 115.091817 
L 96.046135 108.277942 
L 96.373468 165.563512 
L 96.7008 170.116692 
L 97.028132 210.252874 
L 97.355465 159.294545 
L 97.682798 182.976804 
L 98.01013 131.38055 
L 98.337463 195.679827 
L 98.664795 182.848726 
L 98.992127 176.499766 
L 99.31946 185.583944 
L 99.646793 204.872654 
L 99.974125 214.936005 
L 100.301457 214.822816 
L 100.62879 168.900848 
L 100.956122 175.130022 
L 101.283455 255.321136 
L 101.93812 130.128565 
L 102.265452 195.796581 
L 102.592785 216.276772 
L 102.920118 180.881548 
L 103.24745 116.806525 
L 103.574782 144.019261 
L 103.902115 132.740226 
L 104.229447 129.165628 
L 104.55678 182.348464 
L 104.884113 140.411905 
L 105.211445 144.642269 
L 105.538777 176.470726 
L 105.86611 170.819925 
L 106.520775 140.465912 
L 106.848107 153.980822 
L 107.17544 179.596058 
L 107.502772 103.943922 
L 107.830105 210.823568 
L 108.157438 163.377447 
L 108.48477 186.915917 
L 108.812102 175.8263 
L 109.139435 117.379718 
L 109.466768 200.978441 
L 109.7941 129.491417 
L 110.121432 190.379925 
L 110.448765 170.449741 
L 110.776097 120.440437 
L 111.10343 201.323463 
L 111.430763 83.186894 
L 111.758095 115.238474 
L 112.085427 118.042545 
L 112.41276 174.03972 
L 112.740093 120.104046 
L 113.394757 210.384854 
L 113.72209 225.370591 
L 114.049422 144.502836 
L 114.376755 173.855575 
L 114.704087 172.377347 
L 115.03142 189.262588 
L 115.358752 120.344026 
L 115.686085 85.749416 
L 116.013418 172.312335 
L 116.34075 158.476759 
L 116.668082 199.19117 
L 116.995415 175.23956 
L 117.322747 90.908242 
L 117.65008 127.574313 
L 117.977412 213.174434 
L 118.304745 248.619204 
L 118.632078 161.567478 
L 118.95941 123.369021 
L 119.286743 206.998276 
L 119.614075 75.797104 
L 119.941407 150.408585 
L 120.26874 169.877219 
L 120.596072 168.289461 
L 120.923405 162.647641 
L 121.250737 154.638658 
L 121.57807 214.353078 
L 121.905403 192.582432 
L 122.232735 189.09776 
L 122.560068 120.574527 
L 122.8874 189.292768 
L 123.214732 177.489616 
L 123.542065 141.162166 
L 123.869397 139.996222 
L 124.524062 163.382138 
L 124.851395 174.677817 
L 125.178728 153.230845 
L 125.50606 123.781235 
L 126.160725 179.254321 
L 126.488057 157.515275 
L 126.81539 163.053236 
L 127.142722 221.016044 
L 127.797387 148.479406 
L 128.12472 185.312458 
L 128.779385 114.168426 
L 129.106718 156.282953 
L 129.43405 129.464442 
L 129.761382 140.353412 
L 130.088715 134.409968 
L 130.416047 198.249898 
L 130.74338 214.179791 
L 131.070713 180.428555 
L 131.398045 158.739818 
L 131.725378 179.613885 
L 132.05271 248.987644 
L 132.380043 126.511378 
L 132.707375 205.077304 
L 133.034707 207.785562 
L 133.36204 214.461591 
L 133.689372 198.092168 
L 134.016705 117.445938 
L 134.344038 180.24734 
L 134.67137 190.535603 
L 134.998703 160.277975 
L 135.326035 153.914697 
L 135.653368 129.712404 
L 135.9807 155.986908 
L 136.308032 158.096395 
L 136.635365 174.757065 
L 136.962697 143.197266 
L 137.29003 149.418171 
L 137.617363 191.582997 
L 137.944695 192.119049 
L 138.272028 130.211325 
L 138.59936 152.771519 
L 138.926693 161.143627 
L 139.254025 152.159786 
L 139.581357 152.172667 
L 139.90869 130.838341 
L 140.236022 151.776391 
L 140.563355 157.812966 
L 140.890688 187.076749 
L 141.21802 176.011264 
L 141.545353 158.318397 
L 141.872685 130.663574 
L 142.200018 172.082426 
L 142.854682 123.897027 
L 143.182015 168.5475 
L 143.509347 153.792903 
L 143.83668 156.005226 
L 144.164013 137.691723 
L 144.491345 163.731461 
L 144.818678 155.486625 
L 145.14601 194.071427 
L 145.473343 174.836515 
L 145.800675 176.735001 
L 146.128007 195.606993 
L 146.45534 108.987294 
L 146.782672 184.698452 
L 147.437338 121.70112 
L 147.76467 141.517715 
L 148.092002 181.88846 
L 148.419335 253.293718 
L 148.746668 170.769732 
L 149.074 193.836065 
L 149.401332 163.698885 
L 149.728665 154.782619 
L 150.055997 173.078265 
L 150.38333 177.93656 
L 151.037995 144.496335 
L 151.365327 151.05064 
L 151.69266 171.798791 
L 152.019993 176.446343 
L 152.347325 143.08499 
L 153.00199 188.56846 
L 153.329322 150.752692 
L 153.656655 175.655082 
L 153.983988 108.303131 
L 154.31132 174.556728 
L 154.638652 206.734311 
L 154.965985 137.982933 
L 155.293318 158.930028 
L 155.62065 195.437176 
L 155.947982 114.197702 
L 156.275315 146.617205 
L 156.602647 110.376961 
L 157.257313 204.301831 
L 157.584645 210.523453 
L 157.911977 127.739025 
L 158.23931 227.005516 
L 158.566643 163.993545 
L 158.893975 140.015287 
L 159.221307 181.476398 
L 159.54864 122.401258 
L 159.875972 196.443205 
L 160.530638 163.053461 
L 160.85797 208.619164 
L 161.185302 191.594599 
L 161.512635 132.218919 
L 161.839968 170.577611 
L 162.821965 242.384724 
L 163.149297 187.400969 
L 163.47663 183.824819 
L 163.803963 186.714247 
L 164.131295 159.759964 
L 164.458627 225.549713 
L 164.78596 138.797557 
L 165.767957 195.079897 
L 166.09529 143.809277 
L 166.422622 133.091696 
L 166.749955 198.501565 
L 167.077288 153.173197 
L 167.40462 172.435616 
L 167.731952 163.574818 
L 168.059285 147.635605 
L 168.386617 146.030999 
L 168.71395 138.70438 
L 169.041282 126.483407 
L 169.368615 170.836623 
L 169.695947 137.62402 
L 170.02328 140.238688 
L 170.350613 113.885266 
L 170.677945 202.833888 
L 171.005277 162.160906 
L 171.33261 151.336569 
L 171.659942 175.732016 
L 171.987275 128.14213 
L 172.314607 107.151749 
L 172.64194 183.468788 
L 172.969272 142.094741 
L 173.296605 141.223753 
L 173.623938 196.535134 
L 173.95127 200.186856 
L 174.278602 215.740233 
L 174.605935 120.358901 
L 175.2606 211.750867 
L 175.587932 98.438123 
L 175.915265 109.726938 
L 176.242597 203.163351 
L 176.56993 209.637413 
L 176.897263 194.624121 
L 177.224595 150.659936 
L 177.551927 159.852664 
L 178.206592 192.236213 
L 178.533925 181.059084 
L 178.861257 150.286294 
L 179.18859 155.948159 
L 179.515922 178.026439 
L 179.843255 187.786957 
L 180.170588 121.288629 
L 180.49792 151.750094 
L 180.825252 230.508482 
L 181.152585 128.510347 
L 181.479917 156.43558 
L 181.80725 146.648059 
L 182.134582 166.871892 
L 182.461915 206.230756 
L 183.11658 115.048148 
L 183.771245 217.524077 
L 184.098577 90.95219 
L 184.42591 100.401836 
L 184.753242 129.960875 
L 185.080575 180.316548 
L 185.407907 161.242753 
L 185.73524 193.70287 
L 186.062572 146.544658 
L 186.389905 140.889528 
L 186.717238 163.91086 
L 187.04457 161.808838 
L 187.371902 238.570784 
L 187.699235 168.76514 
L 188.026567 151.0701 
L 188.3539 109.193877 
L 188.681232 250.433048 
L 189.008565 129.69128 
L 189.335897 180.111861 
L 189.66323 172.954857 
L 189.990563 173.826994 
L 190.317895 162.427717 
L 190.645227 196.33179 
L 190.97256 152.337148 
L 191.299892 83.79458 
L 191.954557 223.555754 
L 192.28189 187.30816 
L 192.609222 165.765859 
L 192.936555 195.661582 
L 193.263888 101.377206 
L 193.59122 189.893469 
L 193.918552 196.037881 
L 194.245885 169.0267 
L 194.573217 192.726305 
L 195.227882 128.169329 
L 195.555215 115.109381 
L 195.882547 200.770461 
L 196.20988 211.325117 
L 196.537213 128.353847 
L 197.191877 143.648353 
L 197.51921 128.625712 
L 197.846542 186.263297 
L 198.173875 195.401576 
L 198.501207 161.117241 
L 198.82854 172.183714 
L 199.155872 149.196923 
L 199.483205 189.741005 
L 199.810538 172.016111 
L 200.13787 196.287581 
L 200.465202 155.173772 
L 200.792535 208.332158 
L 201.119867 199.182148 
L 201.774532 127.033742 
L 202.101865 136.099793 
L 202.429197 155.064234 
L 202.75653 158.684372 
L 203.083863 235.024894 
L 203.411195 141.376163 
L 203.738527 197.46342 
L 204.06586 155.048958 
L 204.393192 183.775722 
L 204.720525 151.988208 
L 205.047857 211.902468 
L 205.37519 133.538398 
L 205.702522 116.332719 
L 206.029855 141.44515 
L 206.357188 190.605608 
L 206.68452 142.593849 
L 207.011852 153.975152 
L 207.339185 110.701414 
L 207.666517 170.280165 
L 207.99385 159.616641 
L 208.321182 217.587111 
L 208.648515 233.631995 
L 208.975847 238.641334 
L 209.30318 193.164922 
L 209.630513 111.872799 
L 209.957845 122.506536 
L 210.285177 211.895253 
L 210.61251 187.506672 
L 210.939842 117.974276 
L 211.267175 101.355975 
L 211.594507 136.271936 
L 211.92184 232.795066 
L 212.249172 205.509846 
L 212.576505 127.477341 
L 212.903838 180.47696 
L 213.23117 162.928028 
L 213.558502 186.028985 
L 213.885835 169.979876 
L 214.213167 147.953591 
L 214.5405 163.290948 
L 214.867832 141.045201 
L 215.195165 106.849859 
L 215.522497 200.624927 
L 215.84983 142.076728 
L 216.177163 147.315422 
L 216.504495 177.494487 
L 216.831827 130.544277 
L 217.15916 142.215938 
L 217.813825 205.321537 
L 218.141157 129.690997 
L 218.46849 165.976087 
L 218.795822 127.975592 
L 219.123155 193.086921 
L 219.450488 155.861077 
L 219.77782 160.59778 
L 220.105152 199.831006 
L 220.432485 200.657326 
L 220.759817 192.352275 
L 221.08715 146.432949 
L 221.414482 254.935737 
L 221.741815 148.579791 
L 222.069147 135.960037 
L 222.39648 165.108925 
L 223.051145 83.775529 
L 223.378477 226.548831 
L 224.033142 132.735209 
L 224.360475 170.345405 
L 224.687807 170.85917 
L 225.01514 180.308527 
L 225.342472 144.202179 
L 225.669805 198.925006 
L 225.997138 218.578503 
L 226.32447 144.253748 
L 226.651802 115.025509 
L 226.979135 154.344634 
L 227.306467 166.30656 
L 227.6338 142.330907 
L 227.961132 191.495605 
L 228.288465 144.061024 
L 228.615797 152.575288 
L 228.94313 175.668153 
L 229.270463 150.66499 
L 229.597795 195.00101 
L 230.25246 168.14718 
L 230.579792 158.423464 
L 230.907125 181.165649 
L 231.234457 138.817716 
L 231.889122 179.348129 
L 232.216455 149.725219 
L 232.543788 163.347995 
L 232.87112 158.126677 
L 233.198452 144.192182 
L 233.525785 159.432626 
L 234.18045 147.127127 
L 234.507782 163.106465 
L 234.835115 194.161857 
L 235.162447 164.203754 
L 235.48978 107.865242 
L 235.817113 170.694929 
L 236.144445 142.150819 
L 236.471777 166.464358 
L 236.79911 131.367171 
L 237.126442 173.1071 
L 237.453775 147.626785 
L 237.781107 211.187987 
L 238.10844 187.800747 
L 238.435772 190.409014 
L 238.763105 161.353528 
L 239.41777 156.502292 
L 239.745102 108.121659 
L 240.072435 216.991851 
L 240.399767 141.133199 
L 240.7271 197.609216 
L 241.054432 224.964524 
L 241.381765 137.161281 
L 241.709097 161.531165 
L 242.03643 175.301035 
L 242.363763 138.867617 
L 242.691095 179.787158 
L 243.018427 36.843864 
L 243.34576 198.378386 
L 243.673092 128.435688 
L 244.000425 162.384407 
L 244.327757 178.166445 
L 244.65509 205.474698 
L 244.982422 102.212065 
L 245.309755 188.77441 
L 245.96442 102.997761 
L 246.291752 199.860397 
L 246.619085 150.985732 
L 246.946417 180.946077 
L 247.27375 158.994273 
L 247.601082 178.970429 
L 247.928415 187.685185 
L 248.255747 159.53602 
L 248.58308 169.79194 
L 248.910413 200.962959 
L 249.237745 134.662896 
L 249.565077 178.711628 
L 249.89241 97.042706 
L 250.219742 158.679605 
L 250.547075 162.590408 
L 250.874407 231.554562 
L 251.20174 204.289376 
L 251.529072 109.556711 
L 252.183738 198.479589 
L 252.51107 163.791948 
L 252.838402 208.741437 
L 253.165735 168.346427 
L 253.493067 209.035504 
L 253.8204 160.591219 
L 254.147732 176.660772 
L 254.475065 156.302709 
L 254.802397 201.240445 
L 255.12973 138.602593 
L 255.457063 199.805634 
L 255.784395 220.905958 
L 256.111727 181.534596 
L 256.43906 161.680395 
L 256.766392 157.678587 
L 257.093725 181.366767 
L 257.421057 142.436418 
L 257.74839 184.67272 
L 258.075722 129.411069 
L 258.403055 157.491358 
L 258.730388 208.323606 
L 259.05772 184.686324 
L 259.385052 103.762552 
L 260.039717 202.57434 
L 260.36705 162.284923 
L 261.021715 121.928244 
L 261.67638 212.997311 
L 262.003713 177.620683 
L 262.331045 109.08538 
L 262.98571 166.687458 
L 263.313042 125.817759 
L 263.967707 198.270393 
L 264.29504 146.143659 
L 264.622372 181.770288 
L 264.949705 159.848568 
L 265.277038 159.976591 
L 265.60437 166.709304 
L 265.931702 237.506619 
L 266.259035 229.584903 
L 266.586367 114.49601 
L 266.9137 186.974848 
L 267.241032 217.94606 
L 267.568365 149.170486 
L 267.895697 162.200226 
L 268.22303 195.252927 
L 268.550363 161.974528 
L 268.877695 163.69279 
L 269.205027 163.880904 
L 269.53236 227.031221 
L 269.859692 153.723137 
L 270.187025 164.942189 
L 270.514357 139.966664 
L 270.84169 175.715045 
L 271.169022 147.478201 
L 271.496355 140.898079 
L 271.823688 179.397885 
L 272.15102 180.383948 
L 272.478352 148.398803 
L 272.805685 97.791828 
L 273.133017 162.287273 
L 273.46035 138.207731 
L 273.787682 158.913041 
L 274.115015 132.097288 
L 274.442347 197.750476 
L 274.76968 176.332353 
L 275.097013 145.303186 
L 275.424345 174.311926 
L 275.751677 181.157703 
L 276.733675 146.154664 
L 277.061007 167.025118 
L 277.38834 203.852529 
L 277.715672 174.718367 
L 278.043005 205.589871 
L 278.370338 118.215113 
L 278.69767 123.441259 
L 279.025002 138.32933 
L 279.352335 111.327395 
L 279.679667 184.969898 
L 280.007 139.280809 
L 280.334332 131.176866 
L 280.661665 126.028607 
L 280.988997 125.44624 
L 281.31633 172.867615 
L 281.643663 90.308499 
L 281.970995 188.183628 
L 282.298327 147.185116 
L 282.62566 148.388647 
L 282.952992 200.870022 
L 283.280325 206.929065 
L 283.607657 140.033854 
L 283.93499 138.823894 
L 284.262322 115.607569 
L 284.589655 137.332856 
L 284.916988 141.855248 
L 285.24432 183.524779 
L 285.571652 165.0312 
L 285.898985 153.66168 
L 286.226317 123.945202 
L 286.55365 150.522503 
L 286.880982 153.953192 
L 287.208315 138.952927 
L 287.535647 162.552295 
L 287.86298 129.696178 
L 288.190313 144.492935 
L 288.517645 103.466327 
L 289.17231 181.703338 
L 289.499642 194.868086 
L 289.826975 132.348808 
L 290.154307 144.088643 
L 290.48164 168.06142 
L 290.808972 95.178032 
L 291.136305 168.100549 
L 291.463638 167.322047 
L 291.79097 118.940732 
L 292.118302 214.310098 
L 292.445635 248.484295 
L 292.772967 124.641177 
L 293.1003 183.428044 
L 293.427632 214.94479 
L 293.754965 113.300759 
L 294.082297 136.254423 
L 294.40963 176.774251 
L 294.736963 182.462048 
L 295.064295 130.858531 
L 295.391627 192.057451 
L 295.71896 150.900504 
L 296.046292 138.150246 
L 296.373625 138.713679 
L 296.700957 219.0574 
L 297.02829 207.592645 
L 297.355622 171.191992 
L 297.682955 218.488232 
L 298.33762 114.143963 
L 298.992285 176.117318 
L 299.319617 179.684693 
L 299.64695 209.76767 
L 299.974282 146.591701 
L 300.301615 187.236869 
L 300.628947 197.435937 
L 301.283613 116.355277 
L 301.610945 153.207061 
L 301.938277 228.178897 
L 302.26561 112.799357 
L 302.592942 175.491388 
L 302.920275 136.835475 
L 303.247607 162.430902 
L 303.57494 158.998248 
L 303.902272 175.938972 
L 304.229605 164.378872 
L 304.556938 210.497274 
L 304.88427 160.275239 
L 305.211602 235.707556 
L 305.538935 173.882426 
L 305.866267 150.729576 
L 306.520932 195.943146 
L 306.848265 217.376884 
L 307.175597 204.926411 
L 307.50293 200.02345 
L 307.830263 156.64686 
L 308.157595 92.37235 
L 308.81226 220.601224 
L 309.466925 146.963422 
L 309.794257 165.078808 
L 310.12159 151.276176 
L 310.448922 162.60306 
L 310.776255 144.410814 
L 311.103588 157.465902 
L 311.43092 114.690671 
L 311.758252 132.845022 
L 312.085585 205.410308 
L 312.412917 144.72497 
L 312.74025 150.13926 
L 313.067582 177.752792 
L 313.394915 179.848837 
L 313.722247 158.849526 
L 314.04958 188.580164 
L 314.376913 206.441201 
L 314.704245 138.934009 
L 315.031577 216.678366 
L 315.35891 222.274167 
L 315.686242 151.999331 
L 316.013575 109.484864 
L 316.340907 148.728784 
L 316.66824 147.064939 
L 316.995572 155.227808 
L 317.322905 191.529708 
L 317.650238 204.328006 
L 317.97757 116.188646 
L 318.304902 92.074442 
L 318.632235 164.757562 
L 318.959567 128.081429 
L 319.614232 182.036766 
L 319.941565 153.664732 
L 320.268897 161.137745 
L 320.59623 127.097073 
L 320.923563 192.995267 
L 321.250895 188.216356 
L 321.578227 140.427557 
L 321.90556 236.730228 
L 322.232892 114.276992 
L 322.560225 160.201924 
L 322.887557 159.340463 
L 323.21489 205.083375 
L 323.542222 196.355958 
L 323.869555 139.476204 
L 324.196888 190.752559 
L 324.52422 145.305319 
L 324.851552 152.207027 
L 325.178885 148.648469 
L 325.506217 175.99129 
L 325.83355 158.725373 
L 326.160882 168.014702 
L 326.488215 173.053308 
L 327.14288 210.75856 
L 327.470213 99.06544 
L 327.797545 222.660512 
L 328.124877 128.46953 
L 328.45221 186.275492 
L 328.779542 131.611376 
L 329.106875 151.022027 
L 329.434207 187.252795 
L 329.76154 195.415447 
L 330.088872 173.951453 
L 330.416205 129.97078 
L 330.743538 162.077246 
L 331.07087 243.682833 
L 331.398202 185.507646 
L 331.725535 213.30037 
L 332.052867 171.276977 
L 332.3802 171.518352 
L 332.707532 178.244979 
L 333.034865 169.254091 
L 333.362197 147.642378 
L 333.68953 169.900194 
L 334.016863 135.585414 
L 334.344195 143.686545 
L 335.326192 215.327857 
L 335.653525 170.570617 
L 335.980857 158.443034 
L 336.30819 135.798401 
L 336.635522 155.775485 
L 336.962855 205.616332 
L 337.290188 171.051604 
L 337.61752 152.559256 
L 337.944852 205.363231 
L 338.272185 212.327391 
L 338.599517 167.036287 
L 338.92685 173.333909 
L 339.254182 211.483852 
L 339.581515 173.335667 
L 339.908847 175.255212 
L 340.23618 141.121542 
L 340.563513 152.056911 
L 340.890845 141.204026 
L 341.218177 187.876323 
L 341.54551 202.289558 
L 341.872842 167.301247 
L 342.200175 103.722241 
L 342.527508 161.273589 
L 342.85484 165.917343 
L 343.182172 162.731204 
L 343.509505 135.891922 
L 344.16417 223.337726 
L 344.818835 147.425273 
L 345.146167 187.173666 
L 345.4735 195.332646 
L 345.800833 183.433211 
L 346.128165 145.370269 
L 346.455497 199.24867 
L 346.78283 157.682193 
L 347.110163 157.622688 
L 347.437495 133.615468 
L 347.764827 233.478259 
L 348.09216 199.125972 
L 348.419492 141.802424 
L 348.746825 131.68174 
L 349.074158 161.893333 
L 349.40149 151.124975 
L 349.728822 171.599286 
L 350.056155 139.755838 
L 350.383488 124.13114 
L 350.71082 191.326026 
L 351.038152 166.575421 
L 351.365485 191.273373 
L 351.692817 239.564238 
L 352.02015 155.636314 
L 352.347483 169.40827 
L 352.674815 167.626022 
L 353.002147 189.636353 
L 353.32948 119.890949 
L 353.656813 190.582234 
L 353.984145 151.197509 
L 354.311477 149.901063 
L 354.63881 215.281021 
L 354.966142 191.685818 
L 355.293475 113.594302 
L 355.620808 198.263141 
L 355.94814 176.92612 
L 356.275472 113.770523 
L 356.602805 126.360473 
L 356.930138 118.736902 
L 357.25747 201.858662 
L 357.584802 181.30021 
L 357.912135 111.165402 
L 358.239467 175.059914 
L 358.5668 181.40227 
L 358.894133 121.878123 
L 359.221465 203.290886 
L 359.548797 122.695051 
L 359.87613 203.976209 
L 360.203463 195.940924 
L 360.530795 229.219073 
L 361.18546 134.023689 
L 361.512792 170.45008 
L 361.840125 186.656275 
L 362.167458 231.824701 
L 362.49479 228.948938 
L 362.822122 153.23209 
L 363.149455 177.081389 
L 363.476788 138.920105 
L 363.80412 128.787257 
L 364.131452 165.093047 
L 364.458785 144.257762 
L 364.786117 160.172439 
L 365.11345 181.73761 
L 365.440783 191.342084 
L 365.768115 178.23426 
L 366.095447 141.13643 
L 366.42278 184.554615 
L 366.750113 196.329921 
L 367.077445 135.591468 
L 367.404777 47.009589 
L 367.73211 116.525014 
L 368.059442 150.845833 
L 368.386775 131.771938 
L 368.714108 171.960619 
L 369.04144 92.465221 
L 369.368772 140.526961 
L 369.696105 171.646872 
L 370.023438 191.180876 
L 370.35077 155.874616 
L 370.678102 195.744808 
L 371.005435 91.900798 
L 371.6601 207.267421 
L 371.987433 200.798699 
L 372.314765 157.91724 
L 372.642097 231.451856 
L 372.96943 205.003202 
L 373.296762 123.452488 
L 373.624095 201.654692 
L 373.951427 210.938324 
L 374.27876 139.028491 
L 374.606092 183.571533 
L 374.933425 135.84564 
L 375.260758 168.888547 
L 375.58809 165.427905 
L 375.915422 202.002076 
L 376.242755 204.498568 
L 376.570087 193.327478 
L 376.89742 156.8715 
L 377.224752 206.98979 
L 377.552085 129.783601 
L 377.879417 140.672493 
L 378.20675 157.088222 
L 378.534083 146.727959 
L 378.861415 165.325183 
L 379.188747 125.360475 
L 379.51608 174.669453 
L 379.843412 161.68285 
L 380.170745 154.079937 
L 380.498077 128.520761 
L 380.82541 188.207148 
L 381.152742 159.861268 
L 381.480075 181.815953 
L 381.807408 156.76578 
L 382.13474 195.677833 
L 382.462072 153.908711 
L 382.789405 154.357395 
L 383.116737 128.783496 
L 383.44407 222.802913 
L 383.771402 178.404515 
L 384.098735 175.752462 
L 384.426067 152.892101 
L 384.7534 110.159491 
L 385.080733 186.001237 
L 385.408065 195.586043 
L 385.735397 156.993561 
L 386.06273 203.218154 
L 386.390062 140.145494 
L 386.717395 137.170411 
L 387.044727 189.873911 
L 387.37206 186.019612 
L 387.699392 168.378288 
L 388.026725 191.184571 
L 388.68139 158.309706 
L 389.008722 179.456914 
L 389.336055 181.34065 
L 389.663387 210.675903 
L 389.99072 168.676555 
L 390.318052 207.447767 
L 390.645385 154.10135 
L 390.972717 174.225886 
L 391.30005 142.354958 
L 391.627383 160.573615 
L 391.954715 192.316304 
L 392.282047 163.139017 
L 392.60938 175.95148 
L 393.264045 108.833407 
L 393.591377 118.658642 
L 393.91871 106.519268 
L 394.246042 141.640053 
L 394.573375 144.531441 
L 394.900708 197.23132 
L 395.22804 193.939642 
L 395.555372 102.247841 
L 395.882705 169.216253 
L 396.210037 170.995185 
L 396.53737 221.821035 
L 396.864702 207.368844 
L 397.192035 204.80956 
L 397.519367 142.541475 
L 397.8467 182.971915 
L 398.174033 130.043812 
L 398.828697 235.094099 
L 399.15603 182.370178 
L 399.483362 180.294332 
L 399.810695 196.671659 
L 400.138027 163.986955 
L 400.46536 167.322473 
L 400.792692 206.534297 
L 401.447358 143.175649 
L 401.77469 178.759606 
L 402.102022 142.321569 
L 402.429355 153.437964 
L 402.756687 189.992354 
L 403.08402 190.100941 
L 403.411352 186.88454 
L 403.738685 195.034401 
L 404.066017 133.175258 
L 404.39335 189.959285 
L 404.720683 150.359709 
L 405.048015 151.296078 
L 405.375347 146.608538 
L 405.70268 193.913511 
L 406.030012 169.032422 
L 406.357345 130.92976 
L 406.684677 213.102174 
L 407.01201 180.867411 
L 407.339342 169.139134 
L 407.666675 176.032285 
L 407.994008 208.494271 
L 408.32134 136.172582 
L 408.648672 164.874656 
L 408.976005 155.142347 
L 409.303337 151.119919 
L 409.958002 181.267823 
L 410.285335 252.515866 
L 410.612667 197.978221 
L 410.612667 197.978221 
" clip-path="url(#pbc04d2edb9)" style="fill: none; stroke: #1f77b4; stroke-width: 2; stroke-linecap: square"/>
   </g>
   <g id="patch_3">
    <path d="M 83.6075 266.245 
L 83.6075 25.92 
" style="fill: none; stroke: #000000; stroke-width: 0.8; stroke-linejoin: miter; stroke-linecap: square"/>
   </g>
   <g id="patch_4">
    <path d="M 410.94 266.245 
L 410.94 25.92 
" style="fill: none; stroke: #000000; stroke-width: 0.8; stroke-linejoin: miter; stroke-linecap: square"/>
   </g>
   <g id="patch_5">
    <path d="M 83.6075 266.245 
L 410.94 266.245 
" style="fill: none; stroke: #000000; stroke-width: 0.8; stroke-linejoin: miter; stroke-linecap: square"/>
   </g>
   <g id="patch_6">
    <path d="M 83.6075 25.92 
L 410.94 25.92 
" style="fill: none; stroke: #000000; stroke-width: 0.8; stroke-linejoin: miter; stroke-linecap: square"/>
   </g>
  </g>
 </g>
 <defs>
  <clipPath id="pbc04d2edb9">
   <rect x="83.6075" y="25.92" width="327.3325" height="240.325"/>
  </clipPath>
 </defs>
</svg>
