<?xml version="1.0" encoding="utf-8" standalone="no"?>
<!DOCTYPE svg PUBLIC "-//W3C//DTD SVG 1.1//EN"
  "http://www.w3.org/Graphics/SVG/1.1/DTD/svg11.dtd">
<svg xmlns:xlink="http://www.w3.org/1999/xlink" width="460.8pt" height="345.6pt" viewBox="0 0 460.8 345.6" xmlns="http://www.w3.org/2000/svg" version="1.1">
 <metadata>
  <rdf:RDF xmlns:dc="http://purl.org/dc/elements/1.1/" xmlns:cc="http://creativecommons.org/ns#" xmlns:rdf="http://www.w3.org/1999/02/22-rdf-syntax-ns#">
   <cc:Work>
    <dc:type rdf:resource="http://purl.org/dc/dcmitype/StillImage"/>
    <dc:date>2025-12-03T12:16:53.697731</dc:date>
    <dc:format>image/svg+xml</dc:format>
    <dc:creator>
     <cc:Agent>
      <dc:title>Matplotlib v3.10.6, https://matplotlib.org/</dc:title>
     </cc:Agent>
    </dc:creator>
   </cc:Work>
  </rdf:RDF>
 </metadata>
 <defs>
  <style type="text/css">*{stroke-linejoin: round; stroke-linecap: butt}</style>
 </defs>
 <g id="figure_1">
  <g id="patch_1">
   <path d="M 0 345.6 
L 460.8 345.6 
L 460.8 0 
L 0 0 
z
" style="fill: #ffffff"/>
  </g>
  <g id="axes_1">
   <g id="patch_2">
    <path d="M 57.6 307.584 
L 414.72 307.584 
L 414.72 41.472 
L 57.6 41.472 
z
" style="fill: #ffffff"/>
   </g>
   <g id="matplotlib.axis_1">
    <g id="xtick_1">
     <g id="line2d_1">
      <defs>
       <path id="md61f297784" d="M 0 0 
L 0 3.5 
" style="stroke: #000000; stroke-width: 0.8"/>
      </defs>
      <g>
       <use xlink:href="#md61f297784" x="73.832727" y="307.584" style="stroke: #000000; stroke-width: 0.8"/>
      </g>
     </g>
     <g id="text_1">
      <!-- $\mathdefault{10^{0}}$ -->
      <g transform="translate(65.032727 322.182437) scale(0.1 -0.1)">
       <defs>
        <path id="DejaVuSans-31" d="M 794 531 
L 1825 531 
L 1825 4091 
L 703 3866 
L 703 4441 
L 1819 4666 
L 2450 4666 
L 2450 531 
L 3481 531 
L 3481 0 
L 794 0 
L 794 531 
z
" transform="scale(0.015625)"/>
        <path id="DejaVuSans-30" d="M 2034 4250 
Q 1547 4250 1301 3770 
Q 1056 3291 1056 2328 
Q 1056 1369 1301 889 
Q 1547 409 2034 409 
Q 2525 409 2770 889 
Q 3016 1369 3016 2328 
Q 3016 3291 2770 3770 
Q 2525 4250 2034 4250 
z
M 2034 4750 
Q 2819 4750 3233 4129 
Q 3647 3509 3647 2328 
Q 3647 1150 3233 529 
Q 2819 -91 2034 -91 
Q 1250 -91 836 529 
Q 422 1150 422 2328 
Q 422 3509 836 4129 
Q 1250 4750 2034 4750 
z
" transform="scale(0.015625)"/>
       </defs>
       <use xlink:href="#DejaVuSans-31" transform="translate(0 0.765625)"/>
       <use xlink:href="#DejaVuSans-30" transform="translate(63.623047 0.765625)"/>
       <use xlink:href="#DejaVuSans-30" transform="translate(128.203125 39.046875) scale(0.7)"/>
      </g>
     </g>
    </g>
    <g id="xtick_2">
     <g id="line2d_2">
      <g>
       <use xlink:href="#md61f297784" x="194.159802" y="307.584" style="stroke: #000000; stroke-width: 0.8"/>
      </g>
     </g>
     <g id="text_2">
      <!-- $\mathdefault{10^{1}}$ -->
      <g transform="translate(185.359802 322.182437) scale(0.1 -0.1)">
       <use xlink:href="#DejaVuSans-31" transform="translate(0 0.684375)"/>
       <use xlink:href="#DejaVuSans-30" transform="translate(63.623047 0.684375)"/>
       <use xlink:href="#DejaVuSans-31" transform="translate(128.203125 38.965625) scale(0.7)"/>
      </g>
     </g>
    </g>
    <g id="xtick_3">
     <g id="line2d_3">
      <g>
       <use xlink:href="#md61f297784" x="314.486876" y="307.584" style="stroke: #000000; stroke-width: 0.8"/>
      </g>
     </g>
     <g id="text_3">
      <!-- $\mathdefault{10^{2}}$ -->
      <g transform="translate(305.686876 322.182437) scale(0.1 -0.1)">
       <defs>
        <path id="DejaVuSans-32" d="M 1228 531 
L 3431 531 
L 3431 0 
L 469 0 
L 469 531 
Q 828 903 1448 1529 
Q 2069 2156 2228 2338 
Q 2531 2678 2651 2914 
Q 2772 3150 2772 3378 
Q 2772 3750 2511 3984 
Q 2250 4219 1831 4219 
Q 1534 4219 1204 4116 
Q 875 4013 500 3803 
L 500 4441 
Q 881 4594 1212 4672 
Q 1544 4750 1819 4750 
Q 2544 4750 2975 4387 
Q 3406 4025 3406 3419 
Q 3406 3131 3298 2873 
Q 3191 2616 2906 2266 
Q 2828 2175 2409 1742 
Q 1991 1309 1228 531 
z
" transform="scale(0.015625)"/>
       </defs>
       <use xlink:href="#DejaVuSans-31" transform="translate(0 0.765625)"/>
       <use xlink:href="#DejaVuSans-30" transform="translate(63.623047 0.765625)"/>
       <use xlink:href="#DejaVuSans-32" transform="translate(128.203125 39.046875) scale(0.7)"/>
      </g>
     </g>
    </g>
    <g id="xtick_4">
     <g id="line2d_4">
      <defs>
       <path id="m4b526d388c" d="M 0 0 
L 0 2 
" style="stroke: #000000; stroke-width: 0.6"/>
      </defs>
      <g>
       <use xlink:href="#m4b526d388c" x="62.171829" y="307.584" style="stroke: #000000; stroke-width: 0.6"/>
      </g>
     </g>
    </g>
    <g id="xtick_5">
     <g id="line2d_5">
      <g>
       <use xlink:href="#m4b526d388c" x="68.326862" y="307.584" style="stroke: #000000; stroke-width: 0.6"/>
      </g>
     </g>
    </g>
    <g id="xtick_6">
     <g id="line2d_6">
      <g>
       <use xlink:href="#m4b526d388c" x="110.054786" y="307.584" style="stroke: #000000; stroke-width: 0.6"/>
      </g>
     </g>
    </g>
    <g id="xtick_7">
     <g id="line2d_7">
      <g>
       <use xlink:href="#m4b526d388c" x="131.243332" y="307.584" style="stroke: #000000; stroke-width: 0.6"/>
      </g>
     </g>
    </g>
    <g id="xtick_8">
     <g id="line2d_8">
      <g>
       <use xlink:href="#m4b526d388c" x="146.276845" y="307.584" style="stroke: #000000; stroke-width: 0.6"/>
      </g>
     </g>
    </g>
    <g id="xtick_9">
     <g id="line2d_9">
      <g>
       <use xlink:href="#m4b526d388c" x="157.937743" y="307.584" style="stroke: #000000; stroke-width: 0.6"/>
      </g>
     </g>
    </g>
    <g id="xtick_10">
     <g id="line2d_10">
      <g>
       <use xlink:href="#m4b526d388c" x="167.465391" y="307.584" style="stroke: #000000; stroke-width: 0.6"/>
      </g>
     </g>
    </g>
    <g id="xtick_11">
     <g id="line2d_11">
      <g>
       <use xlink:href="#m4b526d388c" x="175.520902" y="307.584" style="stroke: #000000; stroke-width: 0.6"/>
      </g>
     </g>
    </g>
    <g id="xtick_12">
     <g id="line2d_12">
      <g>
       <use xlink:href="#m4b526d388c" x="182.498903" y="307.584" style="stroke: #000000; stroke-width: 0.6"/>
      </g>
     </g>
    </g>
    <g id="xtick_13">
     <g id="line2d_13">
      <g>
       <use xlink:href="#m4b526d388c" x="188.653937" y="307.584" style="stroke: #000000; stroke-width: 0.6"/>
      </g>
     </g>
    </g>
    <g id="xtick_14">
     <g id="line2d_14">
      <g>
       <use xlink:href="#m4b526d388c" x="230.381861" y="307.584" style="stroke: #000000; stroke-width: 0.6"/>
      </g>
     </g>
    </g>
    <g id="xtick_15">
     <g id="line2d_15">
      <g>
       <use xlink:href="#m4b526d388c" x="251.570407" y="307.584" style="stroke: #000000; stroke-width: 0.6"/>
      </g>
     </g>
    </g>
    <g id="xtick_16">
     <g id="line2d_16">
      <g>
       <use xlink:href="#m4b526d388c" x="266.603919" y="307.584" style="stroke: #000000; stroke-width: 0.6"/>
      </g>
     </g>
    </g>
    <g id="xtick_17">
     <g id="line2d_17">
      <g>
       <use xlink:href="#m4b526d388c" x="278.264818" y="307.584" style="stroke: #000000; stroke-width: 0.6"/>
      </g>
     </g>
    </g>
    <g id="xtick_18">
     <g id="line2d_18">
      <g>
       <use xlink:href="#m4b526d388c" x="287.792465" y="307.584" style="stroke: #000000; stroke-width: 0.6"/>
      </g>
     </g>
    </g>
    <g id="xtick_19">
     <g id="line2d_19">
      <g>
       <use xlink:href="#m4b526d388c" x="295.847977" y="307.584" style="stroke: #000000; stroke-width: 0.6"/>
      </g>
     </g>
    </g>
    <g id="xtick_20">
     <g id="line2d_20">
      <g>
       <use xlink:href="#m4b526d388c" x="302.825978" y="307.584" style="stroke: #000000; stroke-width: 0.6"/>
      </g>
     </g>
    </g>
    <g id="xtick_21">
     <g id="line2d_21">
      <g>
       <use xlink:href="#m4b526d388c" x="308.981011" y="307.584" style="stroke: #000000; stroke-width: 0.6"/>
      </g>
     </g>
    </g>
    <g id="xtick_22">
     <g id="line2d_22">
      <g>
       <use xlink:href="#m4b526d388c" x="350.708935" y="307.584" style="stroke: #000000; stroke-width: 0.6"/>
      </g>
     </g>
    </g>
    <g id="xtick_23">
     <g id="line2d_23">
      <g>
       <use xlink:href="#m4b526d388c" x="371.897481" y="307.584" style="stroke: #000000; stroke-width: 0.6"/>
      </g>
     </g>
    </g>
    <g id="xtick_24">
     <g id="line2d_24">
      <g>
       <use xlink:href="#m4b526d388c" x="386.930994" y="307.584" style="stroke: #000000; stroke-width: 0.6"/>
      </g>
     </g>
    </g>
    <g id="xtick_25">
     <g id="line2d_25">
      <g>
       <use xlink:href="#m4b526d388c" x="398.591892" y="307.584" style="stroke: #000000; stroke-width: 0.6"/>
      </g>
     </g>
    </g>
    <g id="xtick_26">
     <g id="line2d_26">
      <g>
       <use xlink:href="#m4b526d388c" x="408.11954" y="307.584" style="stroke: #000000; stroke-width: 0.6"/>
      </g>
     </g>
    </g>
    <g id="text_4">
     <!-- Frequenz in Hz -->
     <g transform="translate(205.334219 335.091813) scale(0.1 -0.1)">
      <defs>
       <path id="TeXGyreTermes-Regular-46" d="M 3494 3322 
L 3475 4237 
L 77 4237 
L 77 4115 
C 550 4077 634 3987 634 3539 
L 634 768 
C 634 237 563 154 77 122 
L 77 0 
L 1869 0 
L 1869 122 
C 1376 147 1286 237 1286 698 
L 1286 2093 
L 2214 2093 
C 2733 2093 2842 1997 2918 1478 
L 3066 1478 
L 3066 2963 
L 2918 2963 
C 2842 2451 2726 2355 2214 2355 
L 1286 2355 
L 1286 3776 
C 1286 3955 1318 3994 1491 3994 
L 2362 3994 
C 3085 3994 3226 3898 3334 3322 
L 3494 3322 
z
" transform="scale(0.015625)"/>
       <path id="TeXGyreTermes-Regular-72" d="M 2144 2605 
C 2144 2816 2010 2944 1792 2944 
C 1523 2944 1338 2797 1024 2342 
L 1024 2931 
L 992 2944 
C 653 2803 422 2720 45 2598 
L 45 2496 
C 134 2515 192 2522 269 2522 
C 429 2522 486 2419 486 2138 
L 486 538 
C 486 218 442 173 32 96 
L 32 0 
L 1568 0 
L 1568 96 
C 1133 115 1024 211 1024 576 
L 1024 2016 
C 1024 2221 1299 2541 1472 2541 
C 1510 2541 1568 2509 1638 2445 
C 1741 2355 1811 2317 1894 2317 
C 2048 2317 2144 2426 2144 2605 
z
" transform="scale(0.015625)"/>
       <path id="TeXGyreTermes-Regular-65" d="M 2714 1005 
L 2611 1050 
C 2304 563 2029 378 1619 378 
C 1267 378 998 544 813 890 
C 685 1139 634 1363 621 1773 
L 2592 1773 
C 2541 2189 2477 2374 2317 2579 
C 2125 2810 1830 2944 1498 2944 
C 704 2944 160 2304 160 1370 
C 160 486 621 -64 1357 -64 
C 1971 -64 2445 314 2714 1005 
z
M 1939 1978 
L 634 1978 
C 704 2483 922 2714 1312 2714 
C 1702 2714 1856 2534 1939 1978 
z
" transform="scale(0.015625)"/>
       <path id="TeXGyreTermes-Regular-71" d="M 3123 -1389 
L 3123 -1299 
C 2771 -1222 2720 -1171 2720 -902 
L 2720 2925 
L 2650 2925 
L 2304 2720 
C 2010 2893 1818 2950 1568 2950 
C 768 2950 154 2234 154 1312 
C 154 506 576 -64 1178 -64 
C 1549 -64 1901 102 2182 410 
L 2182 -794 
C 2182 -1152 2067 -1248 1613 -1280 
L 1613 -1389 
L 3123 -1389 
z
M 2182 813 
C 2182 659 2157 576 2093 525 
C 1952 403 1741 326 1542 326 
C 1344 326 1171 390 1043 518 
C 838 704 704 1120 704 1542 
C 704 2298 1043 2771 1587 2771 
C 1984 2771 2182 2560 2182 2131 
L 2182 813 
z
" transform="scale(0.015625)"/>
       <path id="TeXGyreTermes-Regular-75" d="M 3066 230 
L 3066 320 
L 3034 320 
C 2739 320 2669 390 2669 685 
L 2669 2880 
L 1658 2880 
L 1658 2771 
C 2054 2752 2131 2688 2131 2368 
L 2131 864 
C 2131 691 2099 595 2022 538 
C 1843 384 1645 307 1446 307 
C 1197 307 992 525 992 794 
L 992 2880 
L 58 2880 
L 58 2790 
C 365 2771 454 2675 454 2381 
L 454 768 
C 454 262 762 -64 1229 -64 
C 1466 -64 1715 38 1888 211 
L 2163 486 
L 2163 -45 
L 2189 -58 
C 2509 70 2739 141 3066 230 
z
" transform="scale(0.015625)"/>
       <path id="TeXGyreTermes-Regular-6e" d="M 3104 0 
L 3104 96 
C 2790 128 2714 205 2714 518 
L 2714 1984 
C 2714 2586 2432 2944 1958 2944 
C 1664 2944 1466 2835 1030 2426 
L 1030 2931 
L 986 2944 
C 672 2829 454 2758 102 2656 
L 102 2547 
C 141 2566 205 2573 275 2573 
C 454 2573 512 2477 512 2163 
L 512 576 
C 512 211 442 122 115 96 
L 115 0 
L 1472 0 
L 1472 96 
C 1146 122 1050 198 1050 429 
L 1050 2227 
C 1357 2515 1498 2592 1709 2592 
C 2022 2592 2176 2394 2176 1971 
L 2176 634 
C 2176 230 2093 122 1773 96 
L 1773 0 
L 3104 0 
z
" transform="scale(0.015625)"/>
       <path id="TeXGyreTermes-Regular-7a" d="M 2675 864 
L 2560 890 
C 2496 570 2458 467 2374 358 
C 2285 250 2067 192 1741 192 
L 858 192 
L 2579 2784 
L 2579 2880 
L 358 2880 
L 339 2125 
L 454 2125 
C 512 2592 608 2688 992 2688 
L 1875 2688 
L 173 96 
L 173 0 
L 2586 0 
L 2675 864 
z
" transform="scale(0.015625)"/>
       <path id="TeXGyreTermes-Regular-20" transform="scale(0.015625)"/>
       <path id="TeXGyreTermes-Regular-69" d="M 1619 0 
L 1619 96 
C 1197 128 1146 192 1146 653 
L 1146 2925 
L 1120 2944 
L 128 2592 
L 128 2496 
L 179 2502 
C 256 2515 339 2522 397 2522 
C 550 2522 608 2419 608 2138 
L 608 653 
C 608 192 544 122 102 96 
L 102 0 
L 1619 0 
z
M 1203 3776 
C 1203 3955 1062 4102 877 4102 
C 698 4102 550 3955 550 3776 
C 550 3590 698 3450 877 3450 
C 1062 3450 1203 3590 1203 3776 
z
" transform="scale(0.015625)"/>
       <path id="TeXGyreTermes-Regular-48" d="M 4493 0 
L 4493 122 
C 4013 160 3930 243 3930 698 
L 3930 3539 
C 3930 4000 4000 4070 4493 4115 
L 4493 4237 
L 2714 4237 
L 2714 4115 
C 3206 4070 3277 4000 3277 3539 
L 3277 2298 
L 1338 2298 
L 1338 3539 
C 1338 4000 1408 4070 1901 4115 
L 1901 4237 
L 122 4237 
L 122 4115 
C 614 4070 685 4000 685 3539 
L 685 768 
C 685 230 621 154 122 122 
L 122 0 
L 1901 0 
L 1901 122 
C 1421 160 1338 243 1338 698 
L 1338 2016 
L 3277 2016 
L 3277 768 
C 3277 230 3213 154 2714 122 
L 2714 0 
L 4493 0 
z
" transform="scale(0.015625)"/>
      </defs>
      <use xlink:href="#TeXGyreTermes-Regular-46"/>
      <use xlink:href="#TeXGyreTermes-Regular-72" transform="translate(55.599991 0)"/>
      <use xlink:href="#TeXGyreTermes-Regular-65" transform="translate(88.899979 0)"/>
      <use xlink:href="#TeXGyreTermes-Regular-71" transform="translate(133.299973 0)"/>
      <use xlink:href="#TeXGyreTermes-Regular-75" transform="translate(183.299957 0)"/>
      <use xlink:href="#TeXGyreTermes-Regular-65" transform="translate(233.299942 0)"/>
      <use xlink:href="#TeXGyreTermes-Regular-6e" transform="translate(277.699936 0)"/>
      <use xlink:href="#TeXGyreTermes-Regular-7a" transform="translate(327.699921 0)"/>
      <use xlink:href="#TeXGyreTermes-Regular-20" transform="translate(372.099915 0)"/>
      <use xlink:href="#TeXGyreTermes-Regular-69" transform="translate(397.099899 0)"/>
      <use xlink:href="#TeXGyreTermes-Regular-6e" transform="translate(424.899887 0)"/>
      <use xlink:href="#TeXGyreTermes-Regular-20" transform="translate(474.899872 0)"/>
      <use xlink:href="#TeXGyreTermes-Regular-48" transform="translate(499.899857 0)"/>
      <use xlink:href="#TeXGyreTermes-Regular-7a" transform="translate(572.099838 0)"/>
     </g>
    </g>
   </g>
   <g id="matplotlib.axis_2">
    <g id="ytick_1">
     <g id="line2d_27">
      <defs>
       <path id="me834a52697" d="M 0 0 
L -3.5 0 
" style="stroke: #000000; stroke-width: 0.8"/>
      </defs>
      <g>
       <use xlink:href="#me834a52697" x="57.6" y="307.584" style="stroke: #000000; stroke-width: 0.8"/>
      </g>
     </g>
     <g id="text_5">
      <!-- $\mathdefault{10^{-12}}$ -->
      <g transform="translate(22.7 311.383219) scale(0.1 -0.1)">
       <defs>
        <path id="DejaVuSans-2212" d="M 678 2272 
L 4684 2272 
L 4684 1741 
L 678 1741 
L 678 2272 
z
" transform="scale(0.015625)"/>
       </defs>
       <use xlink:href="#DejaVuSans-31" transform="translate(0 0.765625)"/>
       <use xlink:href="#DejaVuSans-30" transform="translate(63.623047 0.765625)"/>
       <use xlink:href="#DejaVuSans-2212" transform="translate(128.203125 39.046875) scale(0.7)"/>
       <use xlink:href="#DejaVuSans-31" transform="translate(186.855469 39.046875) scale(0.7)"/>
       <use xlink:href="#DejaVuSans-32" transform="translate(231.391602 39.046875) scale(0.7)"/>
      </g>
     </g>
    </g>
    <g id="ytick_2">
     <g id="line2d_28">
      <g>
       <use xlink:href="#me834a52697" x="57.6" y="263.232" style="stroke: #000000; stroke-width: 0.8"/>
      </g>
     </g>
     <g id="text_6">
      <!-- $\mathdefault{10^{-10}}$ -->
      <g transform="translate(22.7 267.031219) scale(0.1 -0.1)">
       <use xlink:href="#DejaVuSans-31" transform="translate(0 0.765625)"/>
       <use xlink:href="#DejaVuSans-30" transform="translate(63.623047 0.765625)"/>
       <use xlink:href="#DejaVuSans-2212" transform="translate(128.203125 39.046875) scale(0.7)"/>
       <use xlink:href="#DejaVuSans-31" transform="translate(186.855469 39.046875) scale(0.7)"/>
       <use xlink:href="#DejaVuSans-30" transform="translate(231.391602 39.046875) scale(0.7)"/>
      </g>
     </g>
    </g>
    <g id="ytick_3">
     <g id="line2d_29">
      <g>
       <use xlink:href="#me834a52697" x="57.6" y="218.88" style="stroke: #000000; stroke-width: 0.8"/>
      </g>
     </g>
     <g id="text_7">
      <!-- $\mathdefault{10^{-8}}$ -->
      <g transform="translate(27.1 222.679219) scale(0.1 -0.1)">
       <defs>
        <path id="DejaVuSans-38" d="M 2034 2216 
Q 1584 2216 1326 1975 
Q 1069 1734 1069 1313 
Q 1069 891 1326 650 
Q 1584 409 2034 409 
Q 2484 409 2743 651 
Q 3003 894 3003 1313 
Q 3003 1734 2745 1975 
Q 2488 2216 2034 2216 
z
M 1403 2484 
Q 997 2584 770 2862 
Q 544 3141 544 3541 
Q 544 4100 942 4425 
Q 1341 4750 2034 4750 
Q 2731 4750 3128 4425 
Q 3525 4100 3525 3541 
Q 3525 3141 3298 2862 
Q 3072 2584 2669 2484 
Q 3125 2378 3379 2068 
Q 3634 1759 3634 1313 
Q 3634 634 3220 271 
Q 2806 -91 2034 -91 
Q 1263 -91 848 271 
Q 434 634 434 1313 
Q 434 1759 690 2068 
Q 947 2378 1403 2484 
z
M 1172 3481 
Q 1172 3119 1398 2916 
Q 1625 2713 2034 2713 
Q 2441 2713 2670 2916 
Q 2900 3119 2900 3481 
Q 2900 3844 2670 4047 
Q 2441 4250 2034 4250 
Q 1625 4250 1398 4047 
Q 1172 3844 1172 3481 
z
" transform="scale(0.015625)"/>
       </defs>
       <use xlink:href="#DejaVuSans-31" transform="translate(0 0.765625)"/>
       <use xlink:href="#DejaVuSans-30" transform="translate(63.623047 0.765625)"/>
       <use xlink:href="#DejaVuSans-2212" transform="translate(128.203125 39.046875) scale(0.7)"/>
       <use xlink:href="#DejaVuSans-38" transform="translate(186.855469 39.046875) scale(0.7)"/>
      </g>
     </g>
    </g>
    <g id="ytick_4">
     <g id="line2d_30">
      <g>
       <use xlink:href="#me834a52697" x="57.6" y="174.528" style="stroke: #000000; stroke-width: 0.8"/>
      </g>
     </g>
     <g id="text_8">
      <!-- $\mathdefault{10^{-6}}$ -->
      <g transform="translate(27.1 178.327219) scale(0.1 -0.1)">
       <defs>
        <path id="DejaVuSans-36" d="M 2113 2584 
Q 1688 2584 1439 2293 
Q 1191 2003 1191 1497 
Q 1191 994 1439 701 
Q 1688 409 2113 409 
Q 2538 409 2786 701 
Q 3034 994 3034 1497 
Q 3034 2003 2786 2293 
Q 2538 2584 2113 2584 
z
M 3366 4563 
L 3366 3988 
Q 3128 4100 2886 4159 
Q 2644 4219 2406 4219 
Q 1781 4219 1451 3797 
Q 1122 3375 1075 2522 
Q 1259 2794 1537 2939 
Q 1816 3084 2150 3084 
Q 2853 3084 3261 2657 
Q 3669 2231 3669 1497 
Q 3669 778 3244 343 
Q 2819 -91 2113 -91 
Q 1303 -91 875 529 
Q 447 1150 447 2328 
Q 447 3434 972 4092 
Q 1497 4750 2381 4750 
Q 2619 4750 2861 4703 
Q 3103 4656 3366 4563 
z
" transform="scale(0.015625)"/>
       </defs>
       <use xlink:href="#DejaVuSans-31" transform="translate(0 0.765625)"/>
       <use xlink:href="#DejaVuSans-30" transform="translate(63.623047 0.765625)"/>
       <use xlink:href="#DejaVuSans-2212" transform="translate(128.203125 39.046875) scale(0.7)"/>
       <use xlink:href="#DejaVuSans-36" transform="translate(186.855469 39.046875) scale(0.7)"/>
      </g>
     </g>
    </g>
    <g id="ytick_5">
     <g id="line2d_31">
      <g>
       <use xlink:href="#me834a52697" x="57.6" y="130.176" style="stroke: #000000; stroke-width: 0.8"/>
      </g>
     </g>
     <g id="text_9">
      <!-- $\mathdefault{10^{-4}}$ -->
      <g transform="translate(27.1 133.975219) scale(0.1 -0.1)">
       <defs>
        <path id="DejaVuSans-34" d="M 2419 4116 
L 825 1625 
L 2419 1625 
L 2419 4116 
z
M 2253 4666 
L 3047 4666 
L 3047 1625 
L 3713 1625 
L 3713 1100 
L 3047 1100 
L 3047 0 
L 2419 0 
L 2419 1100 
L 313 1100 
L 313 1709 
L 2253 4666 
z
" transform="scale(0.015625)"/>
       </defs>
       <use xlink:href="#DejaVuSans-31" transform="translate(0 0.684375)"/>
       <use xlink:href="#DejaVuSans-30" transform="translate(63.623047 0.684375)"/>
       <use xlink:href="#DejaVuSans-2212" transform="translate(128.203125 38.965625) scale(0.7)"/>
       <use xlink:href="#DejaVuSans-34" transform="translate(186.855469 38.965625) scale(0.7)"/>
      </g>
     </g>
    </g>
    <g id="ytick_6">
     <g id="line2d_32">
      <g>
       <use xlink:href="#me834a52697" x="57.6" y="85.824" style="stroke: #000000; stroke-width: 0.8"/>
      </g>
     </g>
     <g id="text_10">
      <!-- $\mathdefault{10^{-2}}$ -->
      <g transform="translate(27.1 89.623219) scale(0.1 -0.1)">
       <use xlink:href="#DejaVuSans-31" transform="translate(0 0.765625)"/>
       <use xlink:href="#DejaVuSans-30" transform="translate(63.623047 0.765625)"/>
       <use xlink:href="#DejaVuSans-2212" transform="translate(128.203125 39.046875) scale(0.7)"/>
       <use xlink:href="#DejaVuSans-32" transform="translate(186.855469 39.046875) scale(0.7)"/>
      </g>
     </g>
    </g>
    <g id="ytick_7">
     <g id="line2d_33">
      <g>
       <use xlink:href="#me834a52697" x="57.6" y="41.472" style="stroke: #000000; stroke-width: 0.8"/>
      </g>
     </g>
     <g id="text_11">
      <!-- $\mathdefault{10^{0}}$ -->
      <g transform="translate(33 45.271219) scale(0.1 -0.1)">
       <use xlink:href="#DejaVuSans-31" transform="translate(0 0.765625)"/>
       <use xlink:href="#DejaVuSans-30" transform="translate(63.623047 0.765625)"/>
       <use xlink:href="#DejaVuSans-30" transform="translate(128.203125 39.046875) scale(0.7)"/>
      </g>
     </g>
    </g>
    <g id="text_12">
     <!-- Leistung -->
     <g transform="translate(16.520312 192.028) rotate(-90) scale(0.1 -0.1)">
      <defs>
       <path id="TeXGyreTermes-Regular-4c" d="M 3827 1114 
L 3667 1114 
C 3565 890 3482 742 3392 640 
C 3168 371 2816 250 2266 250 
L 1837 250 
C 1370 250 1286 288 1286 512 
L 1286 3539 
C 1286 3994 1376 4083 1882 4115 
L 1882 4237 
L 77 4237 
L 77 4115 
C 550 4077 634 3994 634 3539 
L 634 698 
C 634 243 544 154 77 122 
L 77 0 
L 3520 0 
L 3827 1114 
z
" transform="scale(0.015625)"/>
       <path id="TeXGyreTermes-Regular-73" d="M 2227 755 
C 2227 1075 2080 1286 1690 1517 
L 998 1926 
C 819 2029 723 2189 723 2362 
C 723 2624 922 2797 1216 2797 
C 1581 2797 1773 2586 1920 2010 
L 2016 2010 
L 1990 2880 
L 1920 2880 
L 1907 2867 
C 1850 2822 1843 2816 1818 2816 
C 1779 2816 1715 2829 1645 2861 
C 1510 2912 1363 2938 1210 2938 
C 685 2938 326 2618 326 2150 
C 326 1792 531 1542 1075 1229 
L 1446 1018 
C 1670 890 1779 736 1779 538 
C 1779 256 1574 77 1248 77 
C 806 77 582 320 435 973 
L 333 973 
L 333 -26 
L 416 -26 
C 461 38 486 51 563 51 
C 634 51 704 38 858 0 
C 1037 -38 1197 -64 1331 -64 
C 1818 -64 2227 307 2227 755 
z
" transform="scale(0.015625)"/>
       <path id="TeXGyreTermes-Regular-74" d="M 1786 422 
L 1702 493 
C 1562 326 1459 269 1318 269 
C 1082 269 986 435 986 845 
L 986 2675 
L 1632 2675 
L 1632 2880 
L 986 2880 
L 986 3622 
C 986 3686 973 3706 941 3706 
C 902 3642 858 3584 813 3526 
C 576 3174 358 2938 192 2842 
C 122 2797 83 2758 83 2720 
C 83 2701 90 2688 109 2675 
L 448 2675 
L 448 749 
C 448 211 640 -64 1011 -64 
C 1331 -64 1574 90 1786 422 
z
" transform="scale(0.015625)"/>
       <path id="TeXGyreTermes-Regular-67" d="M 3008 2483 
L 3008 2733 
L 2515 2733 
C 2387 2733 2291 2752 2163 2797 
L 2022 2848 
C 1850 2912 1677 2944 1510 2944 
C 915 2944 442 2483 442 1901 
C 442 1498 614 1254 1037 1043 
L 762 787 
C 550 602 467 474 467 346 
C 467 211 544 134 806 6 
C 352 -326 179 -538 179 -774 
C 179 -1114 678 -1395 1286 -1395 
C 1766 -1395 2266 -1229 2598 -960 
C 2842 -762 2950 -557 2950 -314 
C 2950 83 2650 352 2176 371 
L 1350 410 
C 1011 422 851 480 851 582 
C 851 710 1062 934 1235 986 
C 1293 979 1338 973 1357 973 
C 1478 960 1562 954 1600 954 
C 1837 954 2093 1050 2291 1222 
C 2502 1402 2598 1626 2598 1946 
C 2598 2131 2566 2278 2477 2483 
L 3008 2483 
z
M 2771 -410 
C 2771 -781 2285 -1030 1562 -1030 
C 998 -1030 627 -845 627 -563 
C 627 -416 672 -333 941 -13 
C 1152 -58 1664 -96 1978 -96 
C 2560 -96 2771 -179 2771 -410 
z
M 2106 1696 
C 2106 1338 1920 1114 1626 1114 
C 1242 1114 973 1530 973 2144 
L 973 2163 
C 973 2541 1152 2765 1446 2765 
C 1645 2765 1811 2656 1914 2464 
C 2029 2240 2106 1946 2106 1696 
z
" transform="scale(0.015625)"/>
      </defs>
      <use xlink:href="#TeXGyreTermes-Regular-4c"/>
      <use xlink:href="#TeXGyreTermes-Regular-65" transform="translate(61.099991 0)"/>
      <use xlink:href="#TeXGyreTermes-Regular-69" transform="translate(105.499985 0)"/>
      <use xlink:href="#TeXGyreTermes-Regular-73" transform="translate(133.299973 0)"/>
      <use xlink:href="#TeXGyreTermes-Regular-74" transform="translate(172.199966 0)"/>
      <use xlink:href="#TeXGyreTermes-Regular-75" transform="translate(199.999954 0)"/>
      <use xlink:href="#TeXGyreTermes-Regular-6e" transform="translate(249.999939 0)"/>
      <use xlink:href="#TeXGyreTermes-Regular-67" transform="translate(299.999924 0)"/>
     </g>
    </g>
   </g>
   <g id="line2d_34">
    <path d="M -1 84.891176 
L 73.832727 84.890819 
L 110.054786 94.201245 
L 131.243332 104.730305 
L 146.276845 83.337335 
L 157.937743 99.025281 
L 167.465391 92.927999 
L 175.520902 91.823192 
L 182.498903 94.180137 
L 188.653937 91.311485 
L 194.159802 96.139926 
L 199.140463 101.692514 
L 203.68745 101.949908 
L 207.870272 96.603002 
L 211.742961 130.276014 
L 215.348348 105.116148 
L 218.720962 132.953905 
L 221.889046 110.22255 
L 224.875996 116.896278 
L 227.701407 104.411646 
L 230.381861 103.559154 
L 235.362521 85.374081 
L 237.685454 99.333749 
L 239.909508 100.148752 
L 242.042759 85.3889 
L 244.092331 92.949902 
L 246.064542 100.746184 
L 247.96502 101.614334 
L 249.7988 165.929627 
L 251.570407 96.01455 
L 253.283917 129.719637 
L 254.943021 112.885999 
L 256.551067 123.147356 
L 258.111105 92.894725 
L 259.625918 92.795324 
L 261.098054 119.343917 
L 262.529853 102.899752 
L 263.923466 114.106988 
L 265.280877 115.601502 
L 266.603919 104.364215 
L 267.894291 95.03756 
L 269.153566 111.966639 
L 270.383208 86.753346 
L 271.58458 97.859304 
L 272.758953 123.090566 
L 273.907513 121.631703 
L 275.031371 125.367703 
L 277.209077 105.351946 
L 278.264818 107.701846 
L 279.299651 111.163254 
L 280.31439 95.030035 
L 281.309798 123.193672 
L 282.2866 123.53802 
L 283.245478 120.398667 
L 284.187078 110.915128 
L 285.112012 117.104628 
L 286.020859 111.332091 
L 286.914169 99.786876 
L 287.792465 134.630168 
L 288.656243 115.51996 
L 289.505976 109.18547 
L 290.342112 100.459169 
L 291.16508 103.437754 
L 291.975288 111.741499 
L 292.773126 103.841152 
L 293.558966 114.669332 
L 294.333164 134.376863 
L 295.847977 123.591379 
L 296.589229 114.476817 
L 297.320113 103.654989 
L 298.040916 96.34998 
L 298.751912 99.129373 
L 299.453364 100.753968 
L 300.145525 108.494504 
L 300.828637 98.82781 
L 301.502936 107.231481 
L 302.168644 113.147169 
L 302.825978 106.192231 
L 303.475146 130.318541 
L 304.116349 106.553452 
L 304.74978 100.254334 
L 305.375624 117.026145 
L 305.994062 144.589749 
L 306.605267 94.144206 
L 307.209405 100.629282 
L 307.806639 129.524895 
L 308.397124 97.037671 
L 308.981011 125.349636 
L 309.558447 131.704349 
L 310.129572 111.815008 
L 310.694522 127.077781 
L 311.25343 103.634912 
L 311.806423 90.471839 
L 312.353626 118.669822 
L 312.895158 119.123002 
L 313.431136 115.838524 
L 313.961672 116.811422 
L 314.486876 132.491981 
L 315.006855 104.697692 
L 315.52171 113.330177 
L 316.031542 118.457233 
L 316.536448 107.974835 
L 317.036523 107.437617 
L 317.531857 134.680079 
L 318.02254 101.316787 
L 318.508659 136.470545 
L 318.990297 111.800649 
L 319.467537 107.988613 
L 319.940458 107.346658 
L 320.409137 109.512539 
L 320.87365 126.564489 
L 321.334071 99.832604 
L 321.79047 114.315834 
L 322.242918 112.228212 
L 322.691482 112.69871 
L 323.136228 106.411732 
L 323.577221 106.044259 
L 324.014524 96.861825 
L 324.448198 115.279914 
L 324.878302 118.142213 
L 325.304895 100.013428 
L 325.728034 125.248857 
L 326.147775 120.778331 
L 326.56417 121.161524 
L 326.977274 137.910617 
L 327.387138 112.817231 
L 327.793813 115.323091 
L 328.197347 100.065812 
L 328.597788 108.075175 
L 328.995185 107.84741 
L 329.389582 111.618459 
L 329.781025 104.390521 
L 330.169557 122.591138 
L 330.555223 99.617123 
L 330.938062 127.075625 
L 331.318118 131.83661 
L 331.695429 132.546527 
L 332.070035 128.815826 
L 332.441976 98.392998 
L 332.811287 108.074287 
L 333.178007 123.579047 
L 333.542172 95.680333 
L 334.262975 121.844812 
L 334.619682 108.710146 
L 334.97397 107.859849 
L 335.325873 109.066759 
L 335.675422 114.27998 
L 336.022649 128.269152 
L 336.710256 98.204274 
L 337.050696 115.068214 
L 337.388933 102.513787 
L 337.724994 104.866482 
L 338.058908 116.23232 
L 338.390702 115.344937 
L 338.720403 118.663505 
L 339.048037 102.562313 
L 339.697205 107.046022 
L 340.01879 107.660383 
L 340.338408 121.132685 
L 340.656083 95.851965 
L 340.971839 113.408433 
L 341.285698 122.941654 
L 341.597683 106.677848 
L 341.907817 107.298586 
L 342.216121 94.201911 
L 342.522617 142.592107 
L 342.827325 111.08492 
L 343.130268 129.321518 
L 343.431464 104.785428 
L 343.730934 135.898775 
L 344.028697 108.030275 
L 344.324774 119.474028 
L 344.911942 109.294996 
L 345.20307 118.468719 
L 345.492585 104.46958 
L 345.780506 124.382447 
L 346.066848 104.84728 
L 346.91658 96.339652 
L 347.196782 128.69634 
L 347.475488 113.336384 
L 347.752716 120.03314 
L 348.028482 140.279601 
L 348.302799 113.197219 
L 348.575684 110.45429 
L 348.847152 138.819695 
L 349.117217 116.480796 
L 349.385893 104.091523 
L 349.653194 113.924632 
L 349.919136 116.731565 
L 350.183731 121.393962 
L 350.446993 113.889376 
L 350.708935 110.248337 
L 350.969571 111.23628 
L 351.228913 104.628132 
L 351.486975 107.410174 
L 351.999306 121.729583 
L 352.253601 109.332327 
L 352.506664 114.631204 
L 352.758507 110.546625 
L 353.009142 123.504324 
L 353.258581 105.963418 
L 353.506836 111.763434 
L 353.753916 99.455561 
L 354.244599 110.981723 
L 354.488224 117.444473 
L 354.730718 107.248968 
L 354.972092 107.763611 
L 355.212356 127.451002 
L 355.451521 109.824499 
L 355.689596 110.454884 
L 355.926591 114.693234 
L 356.162517 106.365664 
L 356.631196 129.895281 
L 356.863968 103.08035 
L 357.095709 130.446711 
L 357.326426 113.580416 
L 357.556129 115.399753 
L 357.784827 112.742125 
L 358.012529 104.84613 
L 358.464976 118.55893 
L 358.68974 97.778567 
L 358.91354 100.912522 
L 359.136387 95.109733 
L 359.358287 113.947255 
L 359.579249 116.858777 
L 359.79928 127.230243 
L 360.018389 101.671442 
L 360.236583 109.257629 
L 360.453869 132.24578 
L 360.670256 134.247165 
L 360.885751 104.250929 
L 361.314093 119.963915 
L 361.526954 116.646645 
L 361.738952 106.873147 
L 361.950093 120.90645 
L 362.369833 104.670213 
L 362.578446 129.285419 
L 362.786229 111.588488 
L 362.993189 126.255145 
L 363.199333 122.313066 
L 363.404667 108.810038 
L 363.609197 132.547497 
L 363.81293 115.678409 
L 364.015871 146.03619 
L 364.218028 113.059116 
L 364.419405 132.393922 
L 364.819847 103.932416 
L 365.018923 120.120452 
L 365.217243 104.580848 
L 365.414814 149.424201 
L 365.807729 107.869617 
L 366.003084 124.123087 
L 366.391616 96.447199 
L 366.777281 118.574969 
L 366.969052 122.730259 
L 367.160121 107.809529 
L 367.350494 114.495011 
L 367.540176 109.432492 
L 367.729172 96.656991 
L 367.917488 125.155589 
L 368.105127 110.156297 
L 368.292094 117.103977 
L 368.478395 118.896288 
L 368.664034 112.395581 
L 368.849016 119.283358 
L 369.033346 107.092363 
L 369.217028 105.443188 
L 369.400066 94.520933 
L 369.582465 112.655685 
L 369.76423 116.92239 
L 369.945365 105.423197 
L 370.125875 153.562487 
L 370.305763 114.569012 
L 370.485033 106.689424 
L 370.663691 109.815795 
L 370.84174 121.733281 
L 371.196029 108.10884 
L 371.372277 98.966918 
L 371.547932 115.975419 
L 371.722999 104.365123 
L 371.897481 102.050406 
L 372.071383 116.641608 
L 372.244708 117.815603 
L 372.589642 139.581989 
L 372.761259 138.549206 
L 372.932315 116.849995 
L 373.102812 131.176555 
L 373.272755 158.685464 
L 373.442147 103.738807 
L 373.779292 131.521475 
L 374.114277 99.955364 
L 374.280967 100.134126 
L 374.447127 104.840679 
L 374.612761 104.331175 
L 374.777872 121.349259 
L 374.942462 104.824642 
L 375.106535 105.219171 
L 375.270095 113.163079 
L 375.433145 127.549228 
L 375.595688 100.433337 
L 375.757726 105.191224 
L 375.919264 131.568647 
L 376.080304 112.941124 
L 376.400902 114.944538 
L 376.560467 113.366319 
L 376.719546 107.346579 
L 376.878142 117.923641 
L 377.036258 114.031858 
L 377.193897 106.336092 
L 377.507756 135.617944 
L 377.663982 130.145494 
L 377.975039 110.86745 
L 378.129876 130.02588 
L 378.284255 112.528059 
L 378.43818 123.704556 
L 378.591652 106.102235 
L 378.744675 101.813927 
L 378.897252 137.998022 
L 379.201075 116.846147 
L 379.352326 123.362463 
L 379.503141 99.89148 
L 379.653522 112.825275 
L 379.803472 114.942753 
L 379.952992 108.324886 
L 380.102086 108.698346 
L 380.250756 110.307665 
L 380.399004 129.35816 
L 380.546833 115.672155 
L 380.694244 119.34588 
L 380.841241 108.965226 
L 381.134001 133.341634 
L 381.425129 112.945004 
L 381.570087 115.818178 
L 381.714644 114.93346 
L 381.858803 109.564323 
L 382.002564 121.196379 
L 382.145932 117.688654 
L 382.288907 117.38724 
L 382.431492 126.719091 
L 382.573689 107.603675 
L 382.856928 123.956175 
L 383.138639 108.811621 
L 383.278928 123.616028 
L 383.41884 119.212284 
L 383.697547 105.359596 
L 383.836345 114.201054 
L 384.11284 115.513911 
L 384.25054 127.351948 
L 384.387879 124.701929 
L 384.661479 110.505351 
L 384.797743 122.829799 
L 384.933653 120.888926 
L 385.069211 126.50865 
L 385.204417 119.415881 
L 385.339275 97.092707 
L 385.607951 148.378814 
L 385.741773 137.311323 
L 386.008393 100.496748 
L 386.141195 116.753693 
L 386.40579 102.258746 
L 386.537586 107.456602 
L 386.669051 123.97535 
L 386.930994 108.297606 
L 387.061474 124.689812 
L 387.19163 126.545596 
L 387.580162 106.593751 
L 387.709034 116.02573 
L 387.837588 138.061891 
L 387.965827 114.695384 
L 388.093752 113.495398 
L 388.221365 130.339256 
L 388.348667 126.317427 
L 388.475659 108.48561 
L 388.602344 123.068529 
L 388.728722 112.027037 
L 389.106034 144.266329 
L 389.231201 123.681273 
L 389.356069 128.519422 
L 389.48064 147.155013 
L 389.604915 110.513739 
L 389.728894 130.393068 
L 389.85258 106.386396 
L 389.975975 120.568722 
L 390.099078 105.861318 
L 390.221892 118.416736 
L 390.344418 106.603476 
L 390.466658 115.197367 
L 390.710282 106.158598 
L 390.83167 126.032899 
L 391.073603 111.77615 
L 391.194151 129.710123 
L 391.434415 104.307679 
L 391.554134 130.421277 
L 391.673579 106.948713 
L 391.792753 138.751929 
L 392.030287 112.198051 
L 392.14865 125.080286 
L 392.266746 113.016203 
L 392.50214 121.93487 
L 392.61944 112.972177 
L 392.736478 112.947835 
L 392.853254 117.452443 
L 392.96977 116.792438 
L 393.202026 111.638506 
L 393.317768 115.136065 
L 393.433254 129.319756 
L 393.548485 111.43163 
L 393.663463 114.14798 
L 393.892662 104.523371 
L 394.120861 119.542818 
L 394.234587 105.660125 
L 394.687035 124.133879 
L 395.023819 115.406348 
L 395.135599 119.800063 
L 395.247141 165.802945 
L 395.358445 122.581126 
L 395.469513 131.698006 
L 395.690943 112.488503 
L 395.801307 108.03311 
L 396.021339 127.601759 
L 396.131008 102.934647 
L 396.349658 119.199374 
L 396.567398 108.428992 
L 396.675928 127.581909 
L 396.892315 110.681494 
L 397.000174 113.522105 
L 397.10781 105.695681 
L 397.215225 122.406741 
L 397.32242 111.67741 
L 397.536152 128.506005 
L 397.749013 107.038127 
L 397.855119 123.815087 
L 397.961011 110.267489 
L 398.066688 126.470315 
L 398.172152 120.578682 
L 398.277403 122.444594 
L 398.382443 121.216562 
L 398.487273 126.135163 
L 398.487273 126.135163 
" clip-path="url(#pb9a2776748)" style="fill: none; stroke: #1f77b4; stroke-width: 1.5; stroke-linecap: square"/>
   </g>
   <g id="patch_3">
    <path d="M 57.6 307.584 
L 57.6 41.472 
" style="fill: none; stroke: #000000; stroke-width: 0.8; stroke-linejoin: miter; stroke-linecap: square"/>
   </g>
   <g id="patch_4">
    <path d="M 414.72 307.584 
L 414.72 41.472 
" style="fill: none; stroke: #000000; stroke-width: 0.8; stroke-linejoin: miter; stroke-linecap: square"/>
   </g>
   <g id="patch_5">
    <path d="M 57.6 307.584 
L 414.72 307.584 
" style="fill: none; stroke: #000000; stroke-width: 0.8; stroke-linejoin: miter; stroke-linecap: square"/>
   </g>
   <g id="patch_6">
    <path d="M 57.6 41.472 
L 414.72 41.472 
" style="fill: none; stroke: #000000; stroke-width: 0.8; stroke-linejoin: miter; stroke-linecap: square"/>
   </g>
  </g>
 </g>
 <defs>
  <clipPath id="pb9a2776748">
   <rect x="57.6" y="41.472" width="357.12" height="266.112"/>
  </clipPath>
 </defs>
</svg>
