<?xml version="1.0" encoding="utf-8" standalone="no"?>
<!DOCTYPE svg PUBLIC "-//W3C//DTD SVG 1.1//EN"
  "http://www.w3.org/Graphics/SVG/1.1/DTD/svg11.dtd">
<svg xmlns:xlink="http://www.w3.org/1999/xlink" width="460.8pt" height="345.6pt" viewBox="0 0 460.8 345.6" xmlns="http://www.w3.org/2000/svg" version="1.1">
 <metadata>
  <rdf:RDF xmlns:dc="http://purl.org/dc/elements/1.1/" xmlns:cc="http://creativecommons.org/ns#" xmlns:rdf="http://www.w3.org/1999/02/22-rdf-syntax-ns#">
   <cc:Work>
    <dc:type rdf:resource="http://purl.org/dc/dcmitype/StillImage"/>
    <dc:date>2025-11-24T22:48:07.129556</dc:date>
    <dc:format>image/svg+xml</dc:format>
    <dc:creator>
     <cc:Agent>
      <dc:title>Matplotlib v3.10.6, https://matplotlib.org/</dc:title>
     </cc:Agent>
    </dc:creator>
   </cc:Work>
  </rdf:RDF>
 </metadata>
 <defs>
  <style type="text/css">*{stroke-linejoin: round; stroke-linecap: butt}</style>
 </defs>
 <g id="figure_1">
  <g id="patch_1">
   <path d="M 0 345.6 
L 460.8 345.6 
L 460.8 0 
L 0 0 
z
" style="fill: #ffffff"/>
  </g>
  <g id="axes_1">
   <g id="patch_2">
    <path d="M 57.6 307.584 
L 414.72 307.584 
L 414.72 41.472 
L 57.6 41.472 
z
" style="fill: #ffffff"/>
   </g>
   <g id="matplotlib.axis_1">
    <g id="xtick_1">
     <g id="line2d_1">
      <defs>
       <path id="md6ffa95a5e" d="M 0 0 
L 0 3.5 
" style="stroke: #000000; stroke-width: 0.8"/>
      </defs>
      <g>
       <use xlink:href="#md6ffa95a5e" x="73.832727" y="307.584" style="stroke: #000000; stroke-width: 0.8"/>
      </g>
     </g>
     <g id="text_1">
      <!-- $\mathdefault{10^{0}}$ -->
      <g transform="translate(65.032727 322.182437) scale(0.1 -0.1)">
       <defs>
        <path id="DejaVuSans-31" d="M 794 531 
L 1825 531 
L 1825 4091 
L 703 3866 
L 703 4441 
L 1819 4666 
L 2450 4666 
L 2450 531 
L 3481 531 
L 3481 0 
L 794 0 
L 794 531 
z
" transform="scale(0.015625)"/>
        <path id="DejaVuSans-30" d="M 2034 4250 
Q 1547 4250 1301 3770 
Q 1056 3291 1056 2328 
Q 1056 1369 1301 889 
Q 1547 409 2034 409 
Q 2525 409 2770 889 
Q 3016 1369 3016 2328 
Q 3016 3291 2770 3770 
Q 2525 4250 2034 4250 
z
M 2034 4750 
Q 2819 4750 3233 4129 
Q 3647 3509 3647 2328 
Q 3647 1150 3233 529 
Q 2819 -91 2034 -91 
Q 1250 -91 836 529 
Q 422 1150 422 2328 
Q 422 3509 836 4129 
Q 1250 4750 2034 4750 
z
" transform="scale(0.015625)"/>
       </defs>
       <use xlink:href="#DejaVuSans-31" transform="translate(0 0.765625)"/>
       <use xlink:href="#DejaVuSans-30" transform="translate(63.623047 0.765625)"/>
       <use xlink:href="#DejaVuSans-30" transform="translate(128.203125 39.046875) scale(0.7)"/>
      </g>
     </g>
    </g>
    <g id="xtick_2">
     <g id="line2d_2">
      <g>
       <use xlink:href="#md6ffa95a5e" x="194.159802" y="307.584" style="stroke: #000000; stroke-width: 0.8"/>
      </g>
     </g>
     <g id="text_2">
      <!-- $\mathdefault{10^{1}}$ -->
      <g transform="translate(185.359802 322.182437) scale(0.1 -0.1)">
       <use xlink:href="#DejaVuSans-31" transform="translate(0 0.684375)"/>
       <use xlink:href="#DejaVuSans-30" transform="translate(63.623047 0.684375)"/>
       <use xlink:href="#DejaVuSans-31" transform="translate(128.203125 38.965625) scale(0.7)"/>
      </g>
     </g>
    </g>
    <g id="xtick_3">
     <g id="line2d_3">
      <g>
       <use xlink:href="#md6ffa95a5e" x="314.486876" y="307.584" style="stroke: #000000; stroke-width: 0.8"/>
      </g>
     </g>
     <g id="text_3">
      <!-- $\mathdefault{10^{2}}$ -->
      <g transform="translate(305.686876 322.182437) scale(0.1 -0.1)">
       <defs>
        <path id="DejaVuSans-32" d="M 1228 531 
L 3431 531 
L 3431 0 
L 469 0 
L 469 531 
Q 828 903 1448 1529 
Q 2069 2156 2228 2338 
Q 2531 2678 2651 2914 
Q 2772 3150 2772 3378 
Q 2772 3750 2511 3984 
Q 2250 4219 1831 4219 
Q 1534 4219 1204 4116 
Q 875 4013 500 3803 
L 500 4441 
Q 881 4594 1212 4672 
Q 1544 4750 1819 4750 
Q 2544 4750 2975 4387 
Q 3406 4025 3406 3419 
Q 3406 3131 3298 2873 
Q 3191 2616 2906 2266 
Q 2828 2175 2409 1742 
Q 1991 1309 1228 531 
z
" transform="scale(0.015625)"/>
       </defs>
       <use xlink:href="#DejaVuSans-31" transform="translate(0 0.765625)"/>
       <use xlink:href="#DejaVuSans-30" transform="translate(63.623047 0.765625)"/>
       <use xlink:href="#DejaVuSans-32" transform="translate(128.203125 39.046875) scale(0.7)"/>
      </g>
     </g>
    </g>
    <g id="xtick_4">
     <g id="line2d_4">
      <defs>
       <path id="m01c71a1328" d="M 0 0 
L 0 2 
" style="stroke: #000000; stroke-width: 0.6"/>
      </defs>
      <g>
       <use xlink:href="#m01c71a1328" x="62.171829" y="307.584" style="stroke: #000000; stroke-width: 0.6"/>
      </g>
     </g>
    </g>
    <g id="xtick_5">
     <g id="line2d_5">
      <g>
       <use xlink:href="#m01c71a1328" x="68.326862" y="307.584" style="stroke: #000000; stroke-width: 0.6"/>
      </g>
     </g>
    </g>
    <g id="xtick_6">
     <g id="line2d_6">
      <g>
       <use xlink:href="#m01c71a1328" x="110.054786" y="307.584" style="stroke: #000000; stroke-width: 0.6"/>
      </g>
     </g>
    </g>
    <g id="xtick_7">
     <g id="line2d_7">
      <g>
       <use xlink:href="#m01c71a1328" x="131.243332" y="307.584" style="stroke: #000000; stroke-width: 0.6"/>
      </g>
     </g>
    </g>
    <g id="xtick_8">
     <g id="line2d_8">
      <g>
       <use xlink:href="#m01c71a1328" x="146.276845" y="307.584" style="stroke: #000000; stroke-width: 0.6"/>
      </g>
     </g>
    </g>
    <g id="xtick_9">
     <g id="line2d_9">
      <g>
       <use xlink:href="#m01c71a1328" x="157.937743" y="307.584" style="stroke: #000000; stroke-width: 0.6"/>
      </g>
     </g>
    </g>
    <g id="xtick_10">
     <g id="line2d_10">
      <g>
       <use xlink:href="#m01c71a1328" x="167.465391" y="307.584" style="stroke: #000000; stroke-width: 0.6"/>
      </g>
     </g>
    </g>
    <g id="xtick_11">
     <g id="line2d_11">
      <g>
       <use xlink:href="#m01c71a1328" x="175.520902" y="307.584" style="stroke: #000000; stroke-width: 0.6"/>
      </g>
     </g>
    </g>
    <g id="xtick_12">
     <g id="line2d_12">
      <g>
       <use xlink:href="#m01c71a1328" x="182.498903" y="307.584" style="stroke: #000000; stroke-width: 0.6"/>
      </g>
     </g>
    </g>
    <g id="xtick_13">
     <g id="line2d_13">
      <g>
       <use xlink:href="#m01c71a1328" x="188.653937" y="307.584" style="stroke: #000000; stroke-width: 0.6"/>
      </g>
     </g>
    </g>
    <g id="xtick_14">
     <g id="line2d_14">
      <g>
       <use xlink:href="#m01c71a1328" x="230.381861" y="307.584" style="stroke: #000000; stroke-width: 0.6"/>
      </g>
     </g>
    </g>
    <g id="xtick_15">
     <g id="line2d_15">
      <g>
       <use xlink:href="#m01c71a1328" x="251.570407" y="307.584" style="stroke: #000000; stroke-width: 0.6"/>
      </g>
     </g>
    </g>
    <g id="xtick_16">
     <g id="line2d_16">
      <g>
       <use xlink:href="#m01c71a1328" x="266.603919" y="307.584" style="stroke: #000000; stroke-width: 0.6"/>
      </g>
     </g>
    </g>
    <g id="xtick_17">
     <g id="line2d_17">
      <g>
       <use xlink:href="#m01c71a1328" x="278.264818" y="307.584" style="stroke: #000000; stroke-width: 0.6"/>
      </g>
     </g>
    </g>
    <g id="xtick_18">
     <g id="line2d_18">
      <g>
       <use xlink:href="#m01c71a1328" x="287.792465" y="307.584" style="stroke: #000000; stroke-width: 0.6"/>
      </g>
     </g>
    </g>
    <g id="xtick_19">
     <g id="line2d_19">
      <g>
       <use xlink:href="#m01c71a1328" x="295.847977" y="307.584" style="stroke: #000000; stroke-width: 0.6"/>
      </g>
     </g>
    </g>
    <g id="xtick_20">
     <g id="line2d_20">
      <g>
       <use xlink:href="#m01c71a1328" x="302.825978" y="307.584" style="stroke: #000000; stroke-width: 0.6"/>
      </g>
     </g>
    </g>
    <g id="xtick_21">
     <g id="line2d_21">
      <g>
       <use xlink:href="#m01c71a1328" x="308.981011" y="307.584" style="stroke: #000000; stroke-width: 0.6"/>
      </g>
     </g>
    </g>
    <g id="xtick_22">
     <g id="line2d_22">
      <g>
       <use xlink:href="#m01c71a1328" x="350.708935" y="307.584" style="stroke: #000000; stroke-width: 0.6"/>
      </g>
     </g>
    </g>
    <g id="xtick_23">
     <g id="line2d_23">
      <g>
       <use xlink:href="#m01c71a1328" x="371.897481" y="307.584" style="stroke: #000000; stroke-width: 0.6"/>
      </g>
     </g>
    </g>
    <g id="xtick_24">
     <g id="line2d_24">
      <g>
       <use xlink:href="#m01c71a1328" x="386.930994" y="307.584" style="stroke: #000000; stroke-width: 0.6"/>
      </g>
     </g>
    </g>
    <g id="xtick_25">
     <g id="line2d_25">
      <g>
       <use xlink:href="#m01c71a1328" x="398.591892" y="307.584" style="stroke: #000000; stroke-width: 0.6"/>
      </g>
     </g>
    </g>
    <g id="xtick_26">
     <g id="line2d_26">
      <g>
       <use xlink:href="#m01c71a1328" x="408.11954" y="307.584" style="stroke: #000000; stroke-width: 0.6"/>
      </g>
     </g>
    </g>
    <g id="text_4">
     <!-- Frequenz in Hz -->
     <g transform="translate(199.294375 335.860562) scale(0.1 -0.1)">
      <defs>
       <path id="DejaVuSans-46" d="M 628 4666 
L 3309 4666 
L 3309 4134 
L 1259 4134 
L 1259 2759 
L 3109 2759 
L 3109 2228 
L 1259 2228 
L 1259 0 
L 628 0 
L 628 4666 
z
" transform="scale(0.015625)"/>
       <path id="DejaVuSans-72" d="M 2631 2963 
Q 2534 3019 2420 3045 
Q 2306 3072 2169 3072 
Q 1681 3072 1420 2755 
Q 1159 2438 1159 1844 
L 1159 0 
L 581 0 
L 581 3500 
L 1159 3500 
L 1159 2956 
Q 1341 3275 1631 3429 
Q 1922 3584 2338 3584 
Q 2397 3584 2469 3576 
Q 2541 3569 2628 3553 
L 2631 2963 
z
" transform="scale(0.015625)"/>
       <path id="DejaVuSans-65" d="M 3597 1894 
L 3597 1613 
L 953 1613 
Q 991 1019 1311 708 
Q 1631 397 2203 397 
Q 2534 397 2845 478 
Q 3156 559 3463 722 
L 3463 178 
Q 3153 47 2828 -22 
Q 2503 -91 2169 -91 
Q 1331 -91 842 396 
Q 353 884 353 1716 
Q 353 2575 817 3079 
Q 1281 3584 2069 3584 
Q 2775 3584 3186 3129 
Q 3597 2675 3597 1894 
z
M 3022 2063 
Q 3016 2534 2758 2815 
Q 2500 3097 2075 3097 
Q 1594 3097 1305 2825 
Q 1016 2553 972 2059 
L 3022 2063 
z
" transform="scale(0.015625)"/>
       <path id="DejaVuSans-71" d="M 947 1747 
Q 947 1113 1208 752 
Q 1469 391 1925 391 
Q 2381 391 2643 752 
Q 2906 1113 2906 1747 
Q 2906 2381 2643 2742 
Q 2381 3103 1925 3103 
Q 1469 3103 1208 2742 
Q 947 2381 947 1747 
z
M 2906 525 
Q 2725 213 2448 61 
Q 2172 -91 1784 -91 
Q 1150 -91 751 415 
Q 353 922 353 1747 
Q 353 2572 751 3078 
Q 1150 3584 1784 3584 
Q 2172 3584 2448 3432 
Q 2725 3281 2906 2969 
L 2906 3500 
L 3481 3500 
L 3481 -1331 
L 2906 -1331 
L 2906 525 
z
" transform="scale(0.015625)"/>
       <path id="DejaVuSans-75" d="M 544 1381 
L 544 3500 
L 1119 3500 
L 1119 1403 
Q 1119 906 1312 657 
Q 1506 409 1894 409 
Q 2359 409 2629 706 
Q 2900 1003 2900 1516 
L 2900 3500 
L 3475 3500 
L 3475 0 
L 2900 0 
L 2900 538 
Q 2691 219 2414 64 
Q 2138 -91 1772 -91 
Q 1169 -91 856 284 
Q 544 659 544 1381 
z
M 1991 3584 
L 1991 3584 
z
" transform="scale(0.015625)"/>
       <path id="DejaVuSans-6e" d="M 3513 2113 
L 3513 0 
L 2938 0 
L 2938 2094 
Q 2938 2591 2744 2837 
Q 2550 3084 2163 3084 
Q 1697 3084 1428 2787 
Q 1159 2491 1159 1978 
L 1159 0 
L 581 0 
L 581 3500 
L 1159 3500 
L 1159 2956 
Q 1366 3272 1645 3428 
Q 1925 3584 2291 3584 
Q 2894 3584 3203 3211 
Q 3513 2838 3513 2113 
z
" transform="scale(0.015625)"/>
       <path id="DejaVuSans-7a" d="M 353 3500 
L 3084 3500 
L 3084 2975 
L 922 459 
L 3084 459 
L 3084 0 
L 275 0 
L 275 525 
L 2438 3041 
L 353 3041 
L 353 3500 
z
" transform="scale(0.015625)"/>
       <path id="DejaVuSans-20" transform="scale(0.015625)"/>
       <path id="DejaVuSans-69" d="M 603 3500 
L 1178 3500 
L 1178 0 
L 603 0 
L 603 3500 
z
M 603 4863 
L 1178 4863 
L 1178 4134 
L 603 4134 
L 603 4863 
z
" transform="scale(0.015625)"/>
       <path id="DejaVuSans-48" d="M 628 4666 
L 1259 4666 
L 1259 2753 
L 3553 2753 
L 3553 4666 
L 4184 4666 
L 4184 0 
L 3553 0 
L 3553 2222 
L 1259 2222 
L 1259 0 
L 628 0 
L 628 4666 
z
" transform="scale(0.015625)"/>
      </defs>
      <use xlink:href="#DejaVuSans-46"/>
      <use xlink:href="#DejaVuSans-72" transform="translate(50.269531 0)"/>
      <use xlink:href="#DejaVuSans-65" transform="translate(89.132812 0)"/>
      <use xlink:href="#DejaVuSans-71" transform="translate(150.65625 0)"/>
      <use xlink:href="#DejaVuSans-75" transform="translate(214.132812 0)"/>
      <use xlink:href="#DejaVuSans-65" transform="translate(277.511719 0)"/>
      <use xlink:href="#DejaVuSans-6e" transform="translate(339.035156 0)"/>
      <use xlink:href="#DejaVuSans-7a" transform="translate(402.414062 0)"/>
      <use xlink:href="#DejaVuSans-20" transform="translate(454.904297 0)"/>
      <use xlink:href="#DejaVuSans-69" transform="translate(486.691406 0)"/>
      <use xlink:href="#DejaVuSans-6e" transform="translate(514.474609 0)"/>
      <use xlink:href="#DejaVuSans-20" transform="translate(577.853516 0)"/>
      <use xlink:href="#DejaVuSans-48" transform="translate(609.640625 0)"/>
      <use xlink:href="#DejaVuSans-7a" transform="translate(684.835938 0)"/>
     </g>
    </g>
   </g>
   <g id="matplotlib.axis_2">
    <g id="ytick_1">
     <g id="line2d_27">
      <defs>
       <path id="meda0d61dab" d="M 0 0 
L -3.5 0 
" style="stroke: #000000; stroke-width: 0.8"/>
      </defs>
      <g>
       <use xlink:href="#meda0d61dab" x="57.6" y="307.584" style="stroke: #000000; stroke-width: 0.8"/>
      </g>
     </g>
     <g id="text_5">
      <!-- $\mathdefault{10^{-12}}$ -->
      <g transform="translate(22.7 311.383219) scale(0.1 -0.1)">
       <defs>
        <path id="DejaVuSans-2212" d="M 678 2272 
L 4684 2272 
L 4684 1741 
L 678 1741 
L 678 2272 
z
" transform="scale(0.015625)"/>
       </defs>
       <use xlink:href="#DejaVuSans-31" transform="translate(0 0.765625)"/>
       <use xlink:href="#DejaVuSans-30" transform="translate(63.623047 0.765625)"/>
       <use xlink:href="#DejaVuSans-2212" transform="translate(128.203125 39.046875) scale(0.7)"/>
       <use xlink:href="#DejaVuSans-31" transform="translate(186.855469 39.046875) scale(0.7)"/>
       <use xlink:href="#DejaVuSans-32" transform="translate(231.391602 39.046875) scale(0.7)"/>
      </g>
     </g>
    </g>
    <g id="ytick_2">
     <g id="line2d_28">
      <g>
       <use xlink:href="#meda0d61dab" x="57.6" y="263.232" style="stroke: #000000; stroke-width: 0.8"/>
      </g>
     </g>
     <g id="text_6">
      <!-- $\mathdefault{10^{-10}}$ -->
      <g transform="translate(22.7 267.031219) scale(0.1 -0.1)">
       <use xlink:href="#DejaVuSans-31" transform="translate(0 0.765625)"/>
       <use xlink:href="#DejaVuSans-30" transform="translate(63.623047 0.765625)"/>
       <use xlink:href="#DejaVuSans-2212" transform="translate(128.203125 39.046875) scale(0.7)"/>
       <use xlink:href="#DejaVuSans-31" transform="translate(186.855469 39.046875) scale(0.7)"/>
       <use xlink:href="#DejaVuSans-30" transform="translate(231.391602 39.046875) scale(0.7)"/>
      </g>
     </g>
    </g>
    <g id="ytick_3">
     <g id="line2d_29">
      <g>
       <use xlink:href="#meda0d61dab" x="57.6" y="218.88" style="stroke: #000000; stroke-width: 0.8"/>
      </g>
     </g>
     <g id="text_7">
      <!-- $\mathdefault{10^{-8}}$ -->
      <g transform="translate(27.1 222.679219) scale(0.1 -0.1)">
       <defs>
        <path id="DejaVuSans-38" d="M 2034 2216 
Q 1584 2216 1326 1975 
Q 1069 1734 1069 1313 
Q 1069 891 1326 650 
Q 1584 409 2034 409 
Q 2484 409 2743 651 
Q 3003 894 3003 1313 
Q 3003 1734 2745 1975 
Q 2488 2216 2034 2216 
z
M 1403 2484 
Q 997 2584 770 2862 
Q 544 3141 544 3541 
Q 544 4100 942 4425 
Q 1341 4750 2034 4750 
Q 2731 4750 3128 4425 
Q 3525 4100 3525 3541 
Q 3525 3141 3298 2862 
Q 3072 2584 2669 2484 
Q 3125 2378 3379 2068 
Q 3634 1759 3634 1313 
Q 3634 634 3220 271 
Q 2806 -91 2034 -91 
Q 1263 -91 848 271 
Q 434 634 434 1313 
Q 434 1759 690 2068 
Q 947 2378 1403 2484 
z
M 1172 3481 
Q 1172 3119 1398 2916 
Q 1625 2713 2034 2713 
Q 2441 2713 2670 2916 
Q 2900 3119 2900 3481 
Q 2900 3844 2670 4047 
Q 2441 4250 2034 4250 
Q 1625 4250 1398 4047 
Q 1172 3844 1172 3481 
z
" transform="scale(0.015625)"/>
       </defs>
       <use xlink:href="#DejaVuSans-31" transform="translate(0 0.765625)"/>
       <use xlink:href="#DejaVuSans-30" transform="translate(63.623047 0.765625)"/>
       <use xlink:href="#DejaVuSans-2212" transform="translate(128.203125 39.046875) scale(0.7)"/>
       <use xlink:href="#DejaVuSans-38" transform="translate(186.855469 39.046875) scale(0.7)"/>
      </g>
     </g>
    </g>
    <g id="ytick_4">
     <g id="line2d_30">
      <g>
       <use xlink:href="#meda0d61dab" x="57.6" y="174.528" style="stroke: #000000; stroke-width: 0.8"/>
      </g>
     </g>
     <g id="text_8">
      <!-- $\mathdefault{10^{-6}}$ -->
      <g transform="translate(27.1 178.327219) scale(0.1 -0.1)">
       <defs>
        <path id="DejaVuSans-36" d="M 2113 2584 
Q 1688 2584 1439 2293 
Q 1191 2003 1191 1497 
Q 1191 994 1439 701 
Q 1688 409 2113 409 
Q 2538 409 2786 701 
Q 3034 994 3034 1497 
Q 3034 2003 2786 2293 
Q 2538 2584 2113 2584 
z
M 3366 4563 
L 3366 3988 
Q 3128 4100 2886 4159 
Q 2644 4219 2406 4219 
Q 1781 4219 1451 3797 
Q 1122 3375 1075 2522 
Q 1259 2794 1537 2939 
Q 1816 3084 2150 3084 
Q 2853 3084 3261 2657 
Q 3669 2231 3669 1497 
Q 3669 778 3244 343 
Q 2819 -91 2113 -91 
Q 1303 -91 875 529 
Q 447 1150 447 2328 
Q 447 3434 972 4092 
Q 1497 4750 2381 4750 
Q 2619 4750 2861 4703 
Q 3103 4656 3366 4563 
z
" transform="scale(0.015625)"/>
       </defs>
       <use xlink:href="#DejaVuSans-31" transform="translate(0 0.765625)"/>
       <use xlink:href="#DejaVuSans-30" transform="translate(63.623047 0.765625)"/>
       <use xlink:href="#DejaVuSans-2212" transform="translate(128.203125 39.046875) scale(0.7)"/>
       <use xlink:href="#DejaVuSans-36" transform="translate(186.855469 39.046875) scale(0.7)"/>
      </g>
     </g>
    </g>
    <g id="ytick_5">
     <g id="line2d_31">
      <g>
       <use xlink:href="#meda0d61dab" x="57.6" y="130.176" style="stroke: #000000; stroke-width: 0.8"/>
      </g>
     </g>
     <g id="text_9">
      <!-- $\mathdefault{10^{-4}}$ -->
      <g transform="translate(27.1 133.975219) scale(0.1 -0.1)">
       <defs>
        <path id="DejaVuSans-34" d="M 2419 4116 
L 825 1625 
L 2419 1625 
L 2419 4116 
z
M 2253 4666 
L 3047 4666 
L 3047 1625 
L 3713 1625 
L 3713 1100 
L 3047 1100 
L 3047 0 
L 2419 0 
L 2419 1100 
L 313 1100 
L 313 1709 
L 2253 4666 
z
" transform="scale(0.015625)"/>
       </defs>
       <use xlink:href="#DejaVuSans-31" transform="translate(0 0.684375)"/>
       <use xlink:href="#DejaVuSans-30" transform="translate(63.623047 0.684375)"/>
       <use xlink:href="#DejaVuSans-2212" transform="translate(128.203125 38.965625) scale(0.7)"/>
       <use xlink:href="#DejaVuSans-34" transform="translate(186.855469 38.965625) scale(0.7)"/>
      </g>
     </g>
    </g>
    <g id="ytick_6">
     <g id="line2d_32">
      <g>
       <use xlink:href="#meda0d61dab" x="57.6" y="85.824" style="stroke: #000000; stroke-width: 0.8"/>
      </g>
     </g>
     <g id="text_10">
      <!-- $\mathdefault{10^{-2}}$ -->
      <g transform="translate(27.1 89.623219) scale(0.1 -0.1)">
       <use xlink:href="#DejaVuSans-31" transform="translate(0 0.765625)"/>
       <use xlink:href="#DejaVuSans-30" transform="translate(63.623047 0.765625)"/>
       <use xlink:href="#DejaVuSans-2212" transform="translate(128.203125 39.046875) scale(0.7)"/>
       <use xlink:href="#DejaVuSans-32" transform="translate(186.855469 39.046875) scale(0.7)"/>
      </g>
     </g>
    </g>
    <g id="ytick_7">
     <g id="line2d_33">
      <g>
       <use xlink:href="#meda0d61dab" x="57.6" y="41.472" style="stroke: #000000; stroke-width: 0.8"/>
      </g>
     </g>
     <g id="text_11">
      <!-- $\mathdefault{10^{0}}$ -->
      <g transform="translate(33 45.271219) scale(0.1 -0.1)">
       <use xlink:href="#DejaVuSans-31" transform="translate(0 0.765625)"/>
       <use xlink:href="#DejaVuSans-30" transform="translate(63.623047 0.765625)"/>
       <use xlink:href="#DejaVuSans-30" transform="translate(128.203125 39.046875) scale(0.7)"/>
      </g>
     </g>
    </g>
    <g id="text_12">
     <!-- Leistung -->
     <g transform="translate(16.620312 195.768625) rotate(-90) scale(0.1 -0.1)">
      <defs>
       <path id="DejaVuSans-4c" d="M 628 4666 
L 1259 4666 
L 1259 531 
L 3531 531 
L 3531 0 
L 628 0 
L 628 4666 
z
" transform="scale(0.015625)"/>
       <path id="DejaVuSans-73" d="M 2834 3397 
L 2834 2853 
Q 2591 2978 2328 3040 
Q 2066 3103 1784 3103 
Q 1356 3103 1142 2972 
Q 928 2841 928 2578 
Q 928 2378 1081 2264 
Q 1234 2150 1697 2047 
L 1894 2003 
Q 2506 1872 2764 1633 
Q 3022 1394 3022 966 
Q 3022 478 2636 193 
Q 2250 -91 1575 -91 
Q 1294 -91 989 -36 
Q 684 19 347 128 
L 347 722 
Q 666 556 975 473 
Q 1284 391 1588 391 
Q 1994 391 2212 530 
Q 2431 669 2431 922 
Q 2431 1156 2273 1281 
Q 2116 1406 1581 1522 
L 1381 1569 
Q 847 1681 609 1914 
Q 372 2147 372 2553 
Q 372 3047 722 3315 
Q 1072 3584 1716 3584 
Q 2034 3584 2315 3537 
Q 2597 3491 2834 3397 
z
" transform="scale(0.015625)"/>
       <path id="DejaVuSans-74" d="M 1172 4494 
L 1172 3500 
L 2356 3500 
L 2356 3053 
L 1172 3053 
L 1172 1153 
Q 1172 725 1289 603 
Q 1406 481 1766 481 
L 2356 481 
L 2356 0 
L 1766 0 
Q 1100 0 847 248 
Q 594 497 594 1153 
L 594 3053 
L 172 3053 
L 172 3500 
L 594 3500 
L 594 4494 
L 1172 4494 
z
" transform="scale(0.015625)"/>
       <path id="DejaVuSans-67" d="M 2906 1791 
Q 2906 2416 2648 2759 
Q 2391 3103 1925 3103 
Q 1463 3103 1205 2759 
Q 947 2416 947 1791 
Q 947 1169 1205 825 
Q 1463 481 1925 481 
Q 2391 481 2648 825 
Q 2906 1169 2906 1791 
z
M 3481 434 
Q 3481 -459 3084 -895 
Q 2688 -1331 1869 -1331 
Q 1566 -1331 1297 -1286 
Q 1028 -1241 775 -1147 
L 775 -588 
Q 1028 -725 1275 -790 
Q 1522 -856 1778 -856 
Q 2344 -856 2625 -561 
Q 2906 -266 2906 331 
L 2906 616 
Q 2728 306 2450 153 
Q 2172 0 1784 0 
Q 1141 0 747 490 
Q 353 981 353 1791 
Q 353 2603 747 3093 
Q 1141 3584 1784 3584 
Q 2172 3584 2450 3431 
Q 2728 3278 2906 2969 
L 2906 3500 
L 3481 3500 
L 3481 434 
z
" transform="scale(0.015625)"/>
      </defs>
      <use xlink:href="#DejaVuSans-4c"/>
      <use xlink:href="#DejaVuSans-65" transform="translate(53.962891 0)"/>
      <use xlink:href="#DejaVuSans-69" transform="translate(115.486328 0)"/>
      <use xlink:href="#DejaVuSans-73" transform="translate(143.269531 0)"/>
      <use xlink:href="#DejaVuSans-74" transform="translate(195.369141 0)"/>
      <use xlink:href="#DejaVuSans-75" transform="translate(234.578125 0)"/>
      <use xlink:href="#DejaVuSans-6e" transform="translate(297.957031 0)"/>
      <use xlink:href="#DejaVuSans-67" transform="translate(361.335938 0)"/>
     </g>
    </g>
   </g>
   <g id="line2d_34">
    <path d="M -1 67.106887 
L 73.832727 67.116021 
L 110.054786 87.99901 
L 131.243332 92.627286 
L 146.276845 77.11149 
L 157.937743 96.100608 
L 167.465391 87.251855 
L 175.520902 89.522067 
L 182.498903 89.342625 
L 188.653937 87.382252 
L 199.140463 98.646048 
L 203.68745 100.382232 
L 207.870272 95.246898 
L 211.742961 128.567937 
L 215.348348 104.313724 
L 218.720962 135.463944 
L 221.889046 110.513114 
L 224.875996 114.632102 
L 227.701407 105.025573 
L 230.381861 104.501183 
L 235.362521 86.01154 
L 237.685454 100.233012 
L 239.909508 101.0357 
L 242.042759 86.932117 
L 244.092331 94.443705 
L 246.064542 102.620192 
L 247.96502 104.100131 
L 249.7988 160.551874 
L 251.570407 98.049035 
L 253.283917 131.472004 
L 254.943021 115.169476 
L 256.551067 125.967139 
L 258.111105 95.666767 
L 259.625918 95.581363 
L 261.098054 123.115132 
L 262.529853 105.870133 
L 263.923466 117.157667 
L 265.280877 118.410144 
L 266.603919 107.875546 
L 267.894291 98.967322 
L 269.153566 115.345586 
L 270.383208 90.670274 
L 271.58458 102.178609 
L 272.758953 127.010408 
L 273.907513 126.126561 
L 275.031371 129.045113 
L 277.209077 109.566747 
L 278.264818 112.543443 
L 279.299651 115.8744 
L 280.31439 99.746462 
L 281.309798 128.35186 
L 282.2866 129.1974 
L 283.245478 124.768899 
L 284.187078 115.65261 
L 285.112012 121.701701 
L 286.020859 116.821871 
L 286.914169 105.122214 
L 287.792465 141.074505 
L 288.656243 120.848069 
L 289.505976 114.628214 
L 290.342112 106.253779 
L 291.16508 109.07888 
L 291.975288 118.012153 
L 292.773126 110.098636 
L 293.558966 120.799733 
L 294.333164 140.561939 
L 295.847977 129.134257 
L 296.589229 120.43094 
L 297.320113 109.725264 
L 298.040916 102.59707 
L 298.751912 105.695992 
L 299.453364 107.126652 
L 300.145525 115.36454 
L 300.828637 105.540422 
L 301.502936 113.874435 
L 302.168644 120.322172 
L 302.825978 112.949806 
L 303.475146 138.148679 
L 304.116349 113.354476 
L 304.74978 107.265761 
L 305.375624 124.481473 
L 305.994062 150.570072 
L 306.605267 101.517515 
L 307.209405 108.054038 
L 307.806639 137.271777 
L 308.397124 104.380672 
L 308.981011 132.520064 
L 309.558447 140.080493 
L 310.129572 119.415444 
L 310.694522 134.145304 
L 311.25343 111.391627 
L 311.806423 98.031344 
L 312.353626 125.833411 
L 312.895158 126.451689 
L 313.431136 123.966686 
L 313.961672 124.574326 
L 314.486876 139.948975 
L 315.006855 112.396521 
L 315.52171 121.781295 
L 316.031542 126.399626 
L 316.536448 115.941271 
L 317.036523 115.446043 
L 317.531857 141.72688 
L 318.02254 109.577848 
L 318.508659 144.212497 
L 318.990297 119.744853 
L 319.467537 116.255001 
L 319.940458 115.455512 
L 320.409137 118.145421 
L 320.87365 134.927949 
L 321.334071 108.118205 
L 321.79047 123.259987 
L 322.242918 120.580701 
L 322.691482 120.916818 
L 323.136228 114.771012 
L 323.577221 114.461798 
L 324.014524 105.709216 
L 324.448198 124.489052 
L 324.878302 127.514905 
L 325.304895 108.88228 
L 325.728034 134.676154 
L 326.147775 129.152949 
L 326.56417 130.285223 
L 326.977274 146.150178 
L 327.387138 121.689095 
L 327.793813 124.89761 
L 328.197347 108.973359 
L 328.597788 116.933773 
L 328.995185 117.338402 
L 329.389582 120.561997 
L 329.781025 113.713079 
L 330.169557 132.561069 
L 330.555223 108.699755 
L 330.938062 136.047083 
L 331.318118 140.299478 
L 331.695429 141.272821 
L 332.070035 137.392906 
L 332.441976 107.820503 
L 332.811287 117.538731 
L 333.178007 133.135444 
L 333.542172 105.101116 
L 334.262975 131.374538 
L 334.619682 118.038177 
L 334.97397 117.22623 
L 335.325873 118.999662 
L 335.675422 124.009807 
L 336.022649 138.10875 
L 336.710256 108.227081 
L 337.050696 124.869432 
L 337.388933 112.649233 
L 337.724994 114.487278 
L 338.058908 126.206985 
L 338.390702 124.980304 
L 338.720403 129.238681 
L 339.048037 112.7025 
L 339.697205 116.863021 
L 340.01879 117.963538 
L 340.338408 131.703162 
L 340.656083 105.861936 
L 340.971839 124.00952 
L 341.285698 132.943693 
L 341.597683 116.637224 
L 341.907817 117.596384 
L 342.216121 104.338017 
L 342.522617 154.306722 
L 342.827325 121.035034 
L 343.130268 140.066354 
L 343.431464 115.403721 
L 343.730934 146.887289 
L 344.028697 118.770415 
L 344.324774 129.264089 
L 344.911942 120.095267 
L 345.20307 128.543934 
L 345.492585 115.358481 
L 345.780506 135.898814 
L 346.066848 115.168272 
L 346.35163 112.932117 
L 346.634869 108.862407 
L 346.91658 106.87388 
L 347.196782 139.489479 
L 347.475488 124.121351 
L 347.752716 130.703316 
L 348.028482 149.224768 
L 348.302799 124.507893 
L 348.575684 121.529672 
L 348.847152 147.93775 
L 349.385893 114.758028 
L 349.653194 124.295979 
L 350.183731 131.804061 
L 350.446993 124.474155 
L 350.708935 121.683517 
L 350.969571 122.71165 
L 351.228913 115.586263 
L 351.486975 118.267039 
L 351.743769 127.830209 
L 351.999306 132.887673 
L 352.253601 120.493171 
L 352.506664 125.883728 
L 352.758507 121.563737 
L 353.009142 133.839921 
L 353.258581 117.347187 
L 353.506836 122.791376 
L 353.753916 110.9439 
L 353.999833 118.463982 
L 354.244599 122.192991 
L 354.488224 128.069459 
L 354.730718 118.322133 
L 354.972092 118.694578 
L 355.212356 138.538288 
L 355.451521 121.549672 
L 355.689596 122.13715 
L 355.926591 125.633826 
L 356.162517 117.422839 
L 356.631196 141.021108 
L 356.863968 114.764921 
L 357.095709 141.249607 
L 357.326426 125.147891 
L 357.556129 127.577597 
L 357.784827 123.815782 
L 358.012529 116.666347 
L 358.464976 129.98183 
L 358.68974 109.624109 
L 358.91354 112.605388 
L 359.136387 106.5649 
L 359.358287 125.992544 
L 359.579249 128.671281 
L 359.79928 139.218861 
L 360.018389 113.105356 
L 360.236583 121.189546 
L 360.453869 145.526804 
L 360.670256 147.755655 
L 360.885751 116.189048 
L 361.314093 131.571565 
L 361.526954 128.333182 
L 361.738952 118.854561 
L 361.950093 132.498708 
L 362.369833 116.283285 
L 362.578446 141.785306 
L 362.786229 123.554502 
L 362.993189 137.32459 
L 363.199333 135.057656 
L 363.404667 120.400776 
L 363.609197 143.312199 
L 363.81293 127.532808 
L 364.015871 155.891794 
L 364.218028 125.470237 
L 364.419405 146.024627 
L 364.819847 115.681342 
L 365.018923 132.937174 
L 365.217243 116.50094 
L 365.414814 165.624802 
L 365.807729 119.87918 
L 366.003084 136.731868 
L 366.391616 108.604211 
L 366.777281 131.566026 
L 366.969052 134.777059 
L 367.160121 119.592965 
L 367.350494 126.106669 
L 367.540176 121.195788 
L 367.729172 108.992393 
L 367.917488 136.921829 
L 368.105127 122.838111 
L 368.292094 130.067995 
L 368.478395 131.913279 
L 368.664034 124.647586 
L 368.849016 130.923851 
L 369.033346 119.690864 
L 369.217028 117.437074 
L 369.400066 107.137723 
L 369.582465 125.266796 
L 369.76423 130.015853 
L 369.945365 118.094805 
L 370.125875 167.697104 
L 370.305763 127.14597 
L 370.485033 118.779777 
L 370.663691 121.806521 
L 370.84174 134.368592 
L 371.372277 111.569263 
L 371.547932 128.988156 
L 371.722999 116.716878 
L 371.897481 114.853308 
L 372.071383 128.713935 
L 372.244708 130.927103 
L 372.589642 153.23193 
L 372.761259 149.028763 
L 372.932315 129.846008 
L 373.102812 142.332131 
L 373.272755 170.728602 
L 373.442147 116.286242 
L 373.779292 143.155334 
L 374.114277 112.781367 
L 374.280967 112.94245 
L 374.447127 117.276334 
L 374.612761 117.324942 
L 374.777872 134.419439 
L 374.942462 117.35762 
L 375.106535 118.15824 
L 375.270095 125.298326 
L 375.433145 139.085117 
L 375.595688 113.448665 
L 375.757726 117.571562 
L 375.919264 144.475314 
L 376.080304 126.061123 
L 376.240849 126.882786 
L 376.400902 127.104682 
L 376.560467 125.996636 
L 376.719546 120.035796 
L 376.878142 130.080536 
L 377.036258 126.466714 
L 377.193897 118.767999 
L 377.507756 147.364801 
L 377.663982 144.459969 
L 377.975039 123.673824 
L 378.129876 143.948064 
L 378.284255 125.466978 
L 378.43818 136.790709 
L 378.744675 114.530849 
L 378.897252 150.96384 
L 379.201075 129.65296 
L 379.352326 135.957294 
L 379.503141 112.951134 
L 379.653522 126.121579 
L 379.803472 127.900818 
L 379.952992 120.943584 
L 380.102086 121.28743 
L 380.250756 123.733267 
L 380.399004 143.854783 
L 380.546833 128.202523 
L 380.694244 132.884782 
L 380.841241 121.525604 
L 381.134001 145.633716 
L 381.425129 125.402486 
L 381.570087 129.570349 
L 381.714644 128.318668 
L 381.858803 123.00414 
L 382.002564 133.395377 
L 382.145932 131.365424 
L 382.288907 131.317079 
L 382.431492 138.636633 
L 382.573689 120.497992 
L 382.856928 138.213662 
L 383.138639 121.498261 
L 383.278928 137.297492 
L 383.697547 118.901847 
L 383.836345 127.444407 
L 384.11284 128.29513 
L 384.25054 141.130955 
L 384.387879 138.031846 
L 384.661479 124.257067 
L 384.797743 137.147023 
L 384.933653 134.29507 
L 385.069211 139.901891 
L 385.204417 131.855959 
L 385.339275 110.618103 
L 385.607951 158.12283 
L 385.741773 150.085079 
L 386.008393 113.599569 
L 386.141195 129.364622 
L 386.40579 115.640803 
L 386.537586 120.281367 
L 386.669051 136.40829 
L 386.800187 132.273567 
L 386.930994 121.930383 
L 387.19163 140.73081 
L 387.580162 119.544976 
L 387.709034 128.941806 
L 387.837588 152.628315 
L 387.965827 128.152215 
L 388.093752 127.47302 
L 388.221365 144.81651 
L 388.348667 140.014319 
L 388.475659 121.606344 
L 388.602344 137.554989 
L 388.728722 124.81133 
L 389.106034 154.725194 
L 389.231201 136.117365 
L 389.356069 140.852413 
L 389.48064 158.963909 
L 389.604915 124.292407 
L 389.728894 144.381855 
L 389.85258 120.237636 
L 389.975975 133.309722 
L 390.099078 119.321866 
L 390.221892 131.969594 
L 390.344418 120.510624 
L 390.466658 129.321504 
L 390.710282 119.177759 
L 390.83167 140.470414 
L 391.073603 124.931345 
L 391.194151 141.721626 
L 391.434415 118.135923 
L 391.554134 143.465499 
L 391.673579 120.577497 
L 391.792753 152.527463 
L 392.030287 125.056341 
L 392.14865 137.518978 
L 392.266746 127.15166 
L 392.50214 134.532471 
L 392.61944 126.308612 
L 392.736478 126.299238 
L 392.853254 131.791186 
L 393.202026 124.718011 
L 393.317768 129.087951 
L 393.433254 144.376577 
L 393.548485 124.945697 
L 393.663463 127.60818 
L 393.892662 117.879687 
L 394.120861 132.633563 
L 394.234587 119.462398 
L 394.57429 130.470407 
L 394.687035 136.968301 
L 395.023819 128.510896 
L 395.135599 132.591364 
L 395.247141 173.399415 
L 395.358445 136.999044 
L 395.469513 146.734446 
L 395.690943 125.880842 
L 395.801307 121.456465 
L 396.021339 142.163056 
L 396.131008 116.141167 
L 396.349658 132.905305 
L 396.567398 122.10771 
L 396.675928 142.014064 
L 396.892315 124.8046 
L 397.000174 127.014996 
L 397.10781 119.128613 
L 397.215225 134.959473 
L 397.32242 124.668314 
L 397.536152 143.581898 
L 397.749013 120.480807 
L 397.855119 137.116081 
L 397.961011 124.336899 
L 398.066688 140.307887 
L 398.172152 133.396145 
L 398.277403 136.740747 
L 398.382443 134.764007 
L 398.487273 138.511911 
L 398.487273 138.511911 
" clip-path="url(#pf42ff9a327)" style="fill: none; stroke: #1f77b4; stroke-width: 1.5; stroke-linecap: square"/>
   </g>
   <g id="patch_3">
    <path d="M 57.6 307.584 
L 57.6 41.472 
" style="fill: none; stroke: #000000; stroke-width: 0.8; stroke-linejoin: miter; stroke-linecap: square"/>
   </g>
   <g id="patch_4">
    <path d="M 414.72 307.584 
L 414.72 41.472 
" style="fill: none; stroke: #000000; stroke-width: 0.8; stroke-linejoin: miter; stroke-linecap: square"/>
   </g>
   <g id="patch_5">
    <path d="M 57.6 307.584 
L 414.72 307.584 
" style="fill: none; stroke: #000000; stroke-width: 0.8; stroke-linejoin: miter; stroke-linecap: square"/>
   </g>
   <g id="patch_6">
    <path d="M 57.6 41.472 
L 414.72 41.472 
" style="fill: none; stroke: #000000; stroke-width: 0.8; stroke-linejoin: miter; stroke-linecap: square"/>
   </g>
  </g>
 </g>
 <defs>
  <clipPath id="pf42ff9a327">
   <rect x="57.6" y="41.472" width="357.12" height="266.112"/>
  </clipPath>
 </defs>
</svg>
