<?xml version="1.0" encoding="utf-8" standalone="no"?>
<!DOCTYPE svg PUBLIC "-//W3C//DTD SVG 1.1//EN"
  "http://www.w3.org/Graphics/SVG/1.1/DTD/svg11.dtd">
<svg xmlns:xlink="http://www.w3.org/1999/xlink" width="460.8pt" height="345.6pt" viewBox="0 0 460.8 345.6" xmlns="http://www.w3.org/2000/svg" version="1.1">
 <metadata>
  <rdf:RDF xmlns:dc="http://purl.org/dc/elements/1.1/" xmlns:cc="http://creativecommons.org/ns#" xmlns:rdf="http://www.w3.org/1999/02/22-rdf-syntax-ns#">
   <cc:Work>
    <dc:type rdf:resource="http://purl.org/dc/dcmitype/StillImage"/>
    <dc:date>2026-01-28T11:02:04.505116</dc:date>
    <dc:format>image/svg+xml</dc:format>
    <dc:creator>
     <cc:Agent>
      <dc:title>Matplotlib v3.10.8, https://matplotlib.org/</dc:title>
     </cc:Agent>
    </dc:creator>
   </cc:Work>
  </rdf:RDF>
 </metadata>
 <defs>
  <style type="text/css">*{stroke-linejoin: round; stroke-linecap: butt}</style>
 </defs>
 <g id="figure_1">
  <g id="patch_1">
   <path d="M 0 345.6 
L 460.8 345.6 
L 460.8 0 
L 0 0 
z
" style="fill: #ffffff"/>
  </g>
  <g id="axes_1">
   <g id="patch_2">
    <path d="M 83.6075 266.245 
L 410.94 266.245 
L 410.94 25.92 
L 83.6075 25.92 
z
" style="fill: #ffffff"/>
   </g>
   <g id="matplotlib.axis_1">
    <g id="xtick_1">
     <g id="line2d_1">
      <path d="M 83.6075 266.245 
L 83.6075 25.92 
" clip-path="url(#pf7cdb62911)" style="fill: none; stroke: #b0b0b0; stroke-width: 0.8; stroke-linecap: square"/>
     </g>
     <g id="line2d_2">
      <defs>
       <path id="mcd69745edd" d="M 0 0 
L 0 3.5 
" style="stroke: #000000; stroke-width: 0.8"/>
      </defs>
      <g>
       <use xlink:href="#mcd69745edd" x="83.6075" y="266.245" style="stroke: #000000; stroke-width: 0.8"/>
      </g>
     </g>
     <g id="text_1">
      <!-- 0 -->
      <g transform="translate(77.6075 289.63625) scale(0.24 -0.24)">
       <defs>
        <path id="TeXGyreTermes-Regular-30" d="M 3046 2112 
C 3046 3424 2464 4326 1626 4326 
C 1274 4326 1005 4218 768 3994 
C 397 3635 154 2899 154 2150 
C 154 1453 365 704 666 346 
C 902 64 1229 -90 1600 -90 
C 1926 -90 2202 19 2432 243 
C 2803 595 3046 1338 3046 2112 
z
M 2432 2099 
C 2432 762 2150 77 1600 77 
C 1050 77 768 762 768 2093 
C 768 3450 1056 4160 1606 4160 
C 2144 4160 2432 3437 2432 2099 
z
" transform="scale(0.015625)"/>
       </defs>
       <use xlink:href="#TeXGyreTermes-Regular-30"/>
      </g>
     </g>
    </g>
    <g id="xtick_2">
     <g id="line2d_3">
      <path d="M 165.440625 266.245 
L 165.440625 25.92 
" clip-path="url(#pf7cdb62911)" style="fill: none; stroke: #b0b0b0; stroke-width: 0.8; stroke-linecap: square"/>
     </g>
     <g id="line2d_4">
      <g>
       <use xlink:href="#mcd69745edd" x="165.440625" y="266.245" style="stroke: #000000; stroke-width: 0.8"/>
      </g>
     </g>
     <g id="text_2">
      <!-- 250 -->
      <g transform="translate(147.440625 289.63625) scale(0.24 -0.24)">
       <defs>
        <path id="TeXGyreTermes-Regular-32" d="M 3040 877 
L 2957 909 
C 2720 544 2637 486 2349 486 
L 819 486 
L 1894 1613 
C 2464 2208 2714 2694 2714 3194 
C 2714 3834 2195 4326 1530 4326 
C 1178 4326 845 4186 608 3930 
C 403 3712 307 3507 198 3053 
L 333 3021 
C 589 3648 819 3853 1261 3853 
C 1798 3853 2163 3488 2163 2950 
C 2163 2451 1869 1856 1331 1286 
L 192 77 
L 192 0 
L 2688 0 
L 3040 877 
z
" transform="scale(0.015625)"/>
        <path id="TeXGyreTermes-Regular-35" d="M 2803 4358 
L 2746 4403 
C 2650 4269 2586 4237 2451 4237 
L 1114 4237 
L 416 2720 
C 410 2707 410 2688 410 2688 
C 410 2656 435 2637 486 2637 
C 691 2637 947 2592 1210 2509 
C 1946 2272 2285 1875 2285 1242 
C 2285 627 1894 147 1395 147 
C 1267 147 1158 192 966 333 
C 762 480 614 544 480 544 
C 294 544 205 467 205 307 
C 205 64 506 -90 986 -90 
C 1523 -90 1984 83 2304 410 
C 2598 698 2733 1062 2733 1549 
C 2733 2010 2611 2304 2291 2624 
C 2010 2906 1645 3053 890 3187 
L 1158 3731 
L 2413 3731 
C 2515 3731 2541 3744 2560 3789 
L 2803 4358 
z
" transform="scale(0.015625)"/>
       </defs>
       <use xlink:href="#TeXGyreTermes-Regular-32"/>
       <use xlink:href="#TeXGyreTermes-Regular-35" transform="translate(49.999985 0)"/>
       <use xlink:href="#TeXGyreTermes-Regular-30" transform="translate(99.999969 0)"/>
      </g>
     </g>
    </g>
    <g id="xtick_3">
     <g id="line2d_5">
      <path d="M 247.27375 266.245 
L 247.27375 25.92 
" clip-path="url(#pf7cdb62911)" style="fill: none; stroke: #b0b0b0; stroke-width: 0.8; stroke-linecap: square"/>
     </g>
     <g id="line2d_6">
      <g>
       <use xlink:href="#mcd69745edd" x="247.27375" y="266.245" style="stroke: #000000; stroke-width: 0.8"/>
      </g>
     </g>
     <g id="text_3">
      <!-- 500 -->
      <g transform="translate(229.27375 289.63625) scale(0.24 -0.24)">
       <use xlink:href="#TeXGyreTermes-Regular-35"/>
       <use xlink:href="#TeXGyreTermes-Regular-30" transform="translate(49.999985 0)"/>
       <use xlink:href="#TeXGyreTermes-Regular-30" transform="translate(99.999969 0)"/>
      </g>
     </g>
    </g>
    <g id="xtick_4">
     <g id="line2d_7">
      <path d="M 329.106875 266.245 
L 329.106875 25.92 
" clip-path="url(#pf7cdb62911)" style="fill: none; stroke: #b0b0b0; stroke-width: 0.8; stroke-linecap: square"/>
     </g>
     <g id="line2d_8">
      <g>
       <use xlink:href="#mcd69745edd" x="329.106875" y="266.245" style="stroke: #000000; stroke-width: 0.8"/>
      </g>
     </g>
     <g id="text_4">
      <!-- 750 -->
      <g transform="translate(311.106875 289.63625) scale(0.24 -0.24)">
       <defs>
        <path id="TeXGyreTermes-Regular-37" d="M 2874 4134 
L 2874 4237 
L 506 4237 
L 128 3296 
L 237 3245 
C 512 3680 627 3763 979 3763 
L 2368 3763 
L 1101 -51 
L 1517 -51 
L 2874 4134 
z
" transform="scale(0.015625)"/>
       </defs>
       <use xlink:href="#TeXGyreTermes-Regular-37"/>
       <use xlink:href="#TeXGyreTermes-Regular-35" transform="translate(49.999985 0)"/>
       <use xlink:href="#TeXGyreTermes-Regular-30" transform="translate(99.999969 0)"/>
      </g>
     </g>
    </g>
    <g id="xtick_5">
     <g id="line2d_9">
      <path d="M 410.94 266.245 
L 410.94 25.92 
" clip-path="url(#pf7cdb62911)" style="fill: none; stroke: #b0b0b0; stroke-width: 0.8; stroke-linecap: square"/>
     </g>
     <g id="line2d_10">
      <g>
       <use xlink:href="#mcd69745edd" x="410.94" y="266.245" style="stroke: #000000; stroke-width: 0.8"/>
      </g>
     </g>
     <g id="text_5">
      <!-- 1000 -->
      <g transform="translate(386.94 289.63625) scale(0.24 -0.24)">
       <defs>
        <path id="TeXGyreTermes-Regular-31" d="M 2522 0 
L 2522 96 
C 2016 102 1914 166 1914 474 
L 1914 4314 
L 1862 4326 
L 710 3744 
L 710 3654 
C 787 3686 858 3712 883 3725 
C 998 3770 1107 3795 1171 3795 
C 1306 3795 1363 3699 1363 3494 
L 1363 595 
C 1363 384 1312 237 1210 179 
C 1114 122 1024 102 755 96 
L 755 0 
L 2522 0 
z
" transform="scale(0.015625)"/>
       </defs>
       <use xlink:href="#TeXGyreTermes-Regular-31"/>
       <use xlink:href="#TeXGyreTermes-Regular-30" transform="translate(49.999985 0)"/>
       <use xlink:href="#TeXGyreTermes-Regular-30" transform="translate(99.999969 0)"/>
       <use xlink:href="#TeXGyreTermes-Regular-30" transform="translate(149.999954 0)"/>
      </g>
     </g>
    </g>
    <g id="text_6">
     <!-- Schritt k -->
     <g transform="translate(206.27125 315.23625) scale(0.24 -0.24)">
      <defs>
       <path id="TeXGyreTermes-Regular-53" d="M 3142 1075 
C 3142 1606 2790 2016 1946 2477 
C 1274 2842 1005 3123 1005 3475 
C 1005 3827 1274 4064 1670 4064 
C 1958 4064 2227 3942 2451 3712 
C 2650 3507 2739 3341 2842 2963 
L 3002 2963 
L 2861 4326 
L 2726 4326 
C 2701 4186 2630 4109 2522 4109 
C 2458 4109 2355 4134 2240 4186 
C 2003 4275 1773 4326 1549 4326 
C 1299 4326 1030 4224 826 4058 
C 576 3853 454 3578 454 3226 
C 454 2720 736 2362 1453 1984 
C 1914 1734 2246 1478 2406 1235 
C 2464 1146 2496 1018 2496 858 
C 2496 435 2176 141 1709 141 
C 1133 141 736 493 416 1274 
L 269 1274 
L 461 -83 
L 602 -83 
C 608 38 685 128 781 128 
C 851 128 960 102 1082 58 
C 1325 -38 1581 -90 1837 -90 
C 2579 -90 3142 416 3142 1075 
z
" transform="scale(0.015625)"/>
       <path id="TeXGyreTermes-Regular-63" d="M 2637 941 
L 2547 998 
C 2240 550 2010 397 1645 397 
C 1056 397 653 909 653 1645 
C 653 2310 1005 2758 1523 2758 
C 1754 2758 1837 2688 1901 2451 
L 1939 2310 
C 1990 2125 2106 2016 2246 2016 
C 2413 2016 2547 2138 2547 2285 
C 2547 2643 2099 2944 1562 2944 
C 1261 2944 954 2829 698 2618 
C 352 2330 160 1888 160 1357 
C 160 531 666 -64 1376 -64 
C 1651 -64 1894 26 2112 205 
C 2304 358 2432 544 2637 941 
z
" transform="scale(0.015625)"/>
       <path id="TeXGyreTermes-Regular-68" d="M 3117 0 
L 3117 96 
C 2771 160 2733 211 2733 653 
L 2733 1926 
C 2733 2598 2464 2944 1946 2944 
C 1568 2944 1299 2790 1005 2406 
L 1005 4352 
L 973 4371 
C 755 4294 595 4243 237 4141 
L 64 4090 
L 64 3987 
C 90 3994 109 3994 141 3994 
C 416 3994 467 3942 467 3667 
L 467 653 
C 467 205 429 147 58 96 
L 58 0 
L 1440 0 
L 1440 96 
C 1069 134 1005 211 1005 653 
L 1005 2195 
C 1274 2490 1466 2598 1715 2598 
C 2035 2598 2195 2368 2195 1920 
L 2195 653 
C 2195 218 2131 134 1760 96 
L 1760 0 
L 3117 0 
z
" transform="scale(0.015625)"/>
       <path id="TeXGyreTermes-Regular-72" d="M 2144 2605 
C 2144 2816 2010 2944 1792 2944 
C 1523 2944 1338 2797 1024 2342 
L 1024 2931 
L 992 2944 
C 653 2803 422 2720 45 2598 
L 45 2496 
C 134 2515 192 2522 269 2522 
C 429 2522 486 2419 486 2138 
L 486 538 
C 486 218 442 173 32 96 
L 32 0 
L 1568 0 
L 1568 96 
C 1133 115 1024 211 1024 576 
L 1024 2016 
C 1024 2221 1299 2541 1472 2541 
C 1510 2541 1568 2509 1638 2445 
C 1741 2355 1811 2317 1894 2317 
C 2048 2317 2144 2426 2144 2605 
z
" transform="scale(0.015625)"/>
       <path id="TeXGyreTermes-Regular-69" d="M 1619 0 
L 1619 96 
C 1197 128 1146 192 1146 653 
L 1146 2925 
L 1120 2944 
L 128 2592 
L 128 2496 
L 179 2502 
C 256 2515 339 2522 397 2522 
C 550 2522 608 2419 608 2138 
L 608 653 
C 608 192 544 122 102 96 
L 102 0 
L 1619 0 
z
M 1203 3776 
C 1203 3955 1062 4102 877 4102 
C 698 4102 550 3955 550 3776 
C 550 3590 698 3450 877 3450 
C 1062 3450 1203 3590 1203 3776 
z
" transform="scale(0.015625)"/>
       <path id="TeXGyreTermes-Regular-74" d="M 1786 422 
L 1702 493 
C 1562 326 1459 269 1318 269 
C 1082 269 986 435 986 845 
L 986 2675 
L 1632 2675 
L 1632 2880 
L 986 2880 
L 986 3622 
C 986 3686 973 3706 941 3706 
C 902 3642 858 3584 813 3526 
C 576 3174 358 2938 192 2842 
C 122 2797 83 2758 83 2720 
C 83 2701 90 2688 109 2675 
L 448 2675 
L 448 749 
C 448 211 640 -64 1011 -64 
C 1331 -64 1574 90 1786 422 
z
" transform="scale(0.015625)"/>
       <path id="TeXGyreTermes-Regular-20" transform="scale(0.015625)"/>
       <path id="TeXGyreTermes-Regular-6b" d="M 3232 0 
L 3232 96 
C 2950 115 2752 237 2483 563 
L 1504 1805 
L 1690 1978 
C 2144 2400 2541 2694 2726 2746 
C 2822 2771 2912 2784 3021 2784 
L 3072 2784 
L 3072 2880 
L 1766 2880 
L 1766 2790 
C 2016 2784 2086 2758 2086 2669 
C 2086 2618 2029 2528 1939 2451 
L 1062 1670 
L 1062 4358 
L 1037 4371 
L 237 4141 
L 45 4090 
L 45 3987 
C 128 3994 186 4000 250 4000 
C 461 4000 525 3917 525 3610 
L 525 525 
C 525 192 506 173 45 96 
L 45 0 
L 1542 0 
L 1542 96 
L 1414 102 
C 1158 115 1062 205 1062 429 
L 1062 1606 
L 1958 410 
L 1978 384 
C 1990 365 2003 346 2022 326 
C 2074 262 2093 224 2093 192 
C 2093 134 2035 96 1958 96 
L 1837 96 
L 1837 0 
L 3232 0 
z
" transform="scale(0.015625)"/>
      </defs>
      <use xlink:href="#TeXGyreTermes-Regular-53"/>
      <use xlink:href="#TeXGyreTermes-Regular-63" transform="translate(55.599991 0)"/>
      <use xlink:href="#TeXGyreTermes-Regular-68" transform="translate(99.999985 0)"/>
      <use xlink:href="#TeXGyreTermes-Regular-72" transform="translate(149.999969 0)"/>
      <use xlink:href="#TeXGyreTermes-Regular-69" transform="translate(183.299957 0)"/>
      <use xlink:href="#TeXGyreTermes-Regular-74" transform="translate(211.099945 0)"/>
      <use xlink:href="#TeXGyreTermes-Regular-74" transform="translate(238.899933 0)"/>
      <use xlink:href="#TeXGyreTermes-Regular-20" transform="translate(266.699921 0)"/>
      <use xlink:href="#TeXGyreTermes-Regular-6b" transform="translate(291.699905 0)"/>
     </g>
    </g>
   </g>
   <g id="matplotlib.axis_2">
    <g id="ytick_1">
     <g id="line2d_11">
      <path d="M 83.6075 261.882301 
L 410.94 261.882301 
" clip-path="url(#pf7cdb62911)" style="fill: none; stroke: #b0b0b0; stroke-width: 0.8; stroke-linecap: square"/>
     </g>
     <g id="line2d_12">
      <defs>
       <path id="m388b1d01e8" d="M 0 0 
L -3.5 0 
" style="stroke: #000000; stroke-width: 0.8"/>
      </defs>
      <g>
       <use xlink:href="#m388b1d01e8" x="83.6075" y="261.882301" style="stroke: #000000; stroke-width: 0.8"/>
      </g>
     </g>
     <g id="text_7">
      <!-- −2 -->
      <g transform="translate(51.07 270.077926) scale(0.24 -0.24)">
       <defs>
        <path id="TeXGyreTermes-Regular-2212" d="M 3354 1389 
L 3354 1811 
L 256 1811 
L 256 1389 
L 3354 1389 
z
" transform="scale(0.015625)"/>
       </defs>
       <use xlink:href="#TeXGyreTermes-Regular-2212"/>
       <use xlink:href="#TeXGyreTermes-Regular-32" transform="translate(56.399994 0)"/>
      </g>
     </g>
    </g>
    <g id="ytick_2">
     <g id="line2d_13">
      <path d="M 83.6075 210.942412 
L 410.94 210.942412 
" clip-path="url(#pf7cdb62911)" style="fill: none; stroke: #b0b0b0; stroke-width: 0.8; stroke-linecap: square"/>
     </g>
     <g id="line2d_14">
      <g>
       <use xlink:href="#m388b1d01e8" x="83.6075" y="210.942412" style="stroke: #000000; stroke-width: 0.8"/>
      </g>
     </g>
     <g id="text_8">
      <!-- −1 -->
      <g transform="translate(51.07 219.138037) scale(0.24 -0.24)">
       <use xlink:href="#TeXGyreTermes-Regular-2212"/>
       <use xlink:href="#TeXGyreTermes-Regular-31" transform="translate(56.399994 0)"/>
      </g>
     </g>
    </g>
    <g id="ytick_3">
     <g id="line2d_15">
      <path d="M 83.6075 160.002522 
L 410.94 160.002522 
" clip-path="url(#pf7cdb62911)" style="fill: none; stroke: #b0b0b0; stroke-width: 0.8; stroke-linecap: square"/>
     </g>
     <g id="line2d_16">
      <g>
       <use xlink:href="#m388b1d01e8" x="83.6075" y="160.002522" style="stroke: #000000; stroke-width: 0.8"/>
      </g>
     </g>
     <g id="text_9">
      <!-- 0 -->
      <g transform="translate(64.6075 168.198147) scale(0.24 -0.24)">
       <use xlink:href="#TeXGyreTermes-Regular-30"/>
      </g>
     </g>
    </g>
    <g id="ytick_4">
     <g id="line2d_17">
      <path d="M 83.6075 109.062633 
L 410.94 109.062633 
" clip-path="url(#pf7cdb62911)" style="fill: none; stroke: #b0b0b0; stroke-width: 0.8; stroke-linecap: square"/>
     </g>
     <g id="line2d_18">
      <g>
       <use xlink:href="#m388b1d01e8" x="83.6075" y="109.062633" style="stroke: #000000; stroke-width: 0.8"/>
      </g>
     </g>
     <g id="text_10">
      <!-- 1 -->
      <g transform="translate(64.6075 117.258258) scale(0.24 -0.24)">
       <use xlink:href="#TeXGyreTermes-Regular-31"/>
      </g>
     </g>
    </g>
    <g id="ytick_5">
     <g id="line2d_19">
      <path d="M 83.6075 58.122744 
L 410.94 58.122744 
" clip-path="url(#pf7cdb62911)" style="fill: none; stroke: #b0b0b0; stroke-width: 0.8; stroke-linecap: square"/>
     </g>
     <g id="line2d_20">
      <g>
       <use xlink:href="#m388b1d01e8" x="83.6075" y="58.122744" style="stroke: #000000; stroke-width: 0.8"/>
      </g>
     </g>
     <g id="text_11">
      <!-- 2 -->
      <g transform="translate(64.6075 66.318369) scale(0.24 -0.24)">
       <use xlink:href="#TeXGyreTermes-Regular-32"/>
      </g>
     </g>
    </g>
    <g id="text_12">
     <!-- x(k) -->
     <g transform="translate(41.86125 166.07375) rotate(-90) scale(0.24 -0.24)">
      <defs>
       <path id="TeXGyreTermes-Regular-78" d="M 3066 0 
L 3066 96 
C 2867 96 2739 198 2541 480 
L 1722 1734 
L 2253 2502 
C 2374 2675 2566 2778 2771 2784 
L 2771 2880 
L 1760 2880 
L 1760 2784 
C 1952 2771 2016 2733 2016 2643 
C 2016 2566 1939 2426 1779 2227 
C 1747 2189 1670 2074 1587 1946 
L 1498 2074 
C 1318 2342 1203 2560 1203 2643 
C 1203 2733 1286 2778 1478 2784 
L 1478 2880 
L 154 2880 
L 154 2784 
L 211 2784 
C 403 2784 506 2701 704 2400 
L 1306 1478 
L 576 422 
C 384 160 320 115 109 96 
L 109 0 
L 1037 0 
L 1037 96 
C 858 96 781 128 781 211 
C 781 250 826 346 909 474 
L 1414 1261 
L 1997 365 
C 2022 326 2035 288 2035 250 
C 2035 134 1990 109 1779 96 
L 1779 0 
L 3066 0 
z
" transform="scale(0.015625)"/>
       <path id="TeXGyreTermes-Regular-28" d="M 1946 -1030 
C 1434 -627 1254 -403 1082 77 
C 928 506 858 992 858 1632 
C 858 2304 941 2829 1114 3226 
C 1293 3622 1485 3853 1946 4224 
L 1888 4326 
C 1414 4019 1222 3853 986 3558 
C 531 3002 307 2362 307 1613 
C 307 800 544 173 1107 -480 
C 1370 -787 1536 -928 1869 -1133 
L 1946 -1030 
z
" transform="scale(0.015625)"/>
       <path id="TeXGyreTermes-Regular-29" d="M 1824 1581 
C 1824 2400 1587 3021 1024 3674 
C 762 3981 595 4122 262 4326 
L 186 4224 
C 698 3821 870 3597 1050 3117 
C 1203 2688 1274 2202 1274 1562 
C 1274 896 1190 365 1018 -26 
C 838 -429 646 -659 186 -1030 
L 243 -1133 
C 717 -826 909 -659 1146 -365 
C 1600 192 1824 832 1824 1581 
z
" transform="scale(0.015625)"/>
      </defs>
      <use xlink:href="#TeXGyreTermes-Regular-78"/>
      <use xlink:href="#TeXGyreTermes-Regular-28" transform="translate(49.999985 0)"/>
      <use xlink:href="#TeXGyreTermes-Regular-6b" transform="translate(83.299973 0)"/>
      <use xlink:href="#TeXGyreTermes-Regular-29" transform="translate(133.299957 0)"/>
     </g>
    </g>
   </g>
   <g id="line2d_21">
    <path d="M 83.6075 102.249254 
L 83.934832 100.11976 
L 84.262165 95.23021 
L 84.589498 84.990466 
L 84.91683 83.660499 
L 85.571495 92.14364 
L 85.898827 94.528444 
L 86.22616 94.304257 
L 86.553493 98.074134 
L 86.880825 96.446791 
L 87.208157 90.250622 
L 87.862823 100.371304 
L 88.190155 99.719301 
L 88.517488 97.035632 
L 88.84482 77.414372 
L 89.172152 75.050908 
L 89.499485 80.897138 
L 89.826818 79.052587 
L 90.15415 81.586077 
L 90.481482 80.974995 
L 90.808815 79.404494 
L 91.46348 85.636441 
L 91.790813 77.943675 
L 92.118145 77.866788 
L 92.445477 76.024588 
L 92.77281 67.740473 
L 93.427475 59.570282 
L 94.08214 61.831122 
L 94.409473 72.940793 
L 94.736805 75.280208 
L 95.064138 73.507534 
L 95.718802 81.516203 
L 96.046135 76.041431 
L 96.373468 79.611836 
L 96.7008 78.020693 
L 97.355465 97.511646 
L 98.01013 109.261488 
L 98.337463 106.170764 
L 99.31946 126.017891 
L 99.646793 120.043102 
L 99.974125 120.648305 
L 100.301457 120.589638 
L 100.62879 122.48887 
L 100.956122 117.174015 
L 101.283455 119.269634 
L 101.610788 118.740479 
L 101.93812 117.713499 
L 102.265452 114.035562 
L 102.592785 108.259435 
L 102.920118 109.769333 
L 103.24745 112.742477 
L 103.574782 113.383742 
L 103.902115 113.372295 
L 104.229447 110.245447 
L 104.55678 110.331699 
L 104.884113 114.344958 
L 105.211445 106.361931 
L 105.538777 113.109902 
L 105.86611 123.605641 
L 106.193443 125.25241 
L 107.17544 120.384167 
L 107.502772 114.861605 
L 107.830105 105.654302 
L 108.157438 103.397529 
L 108.48477 95.468438 
L 108.812102 93.603506 
L 109.466768 103.981617 
L 109.7941 102.66445 
L 110.121432 98.742701 
L 110.448765 100.057037 
L 110.776097 99.122831 
L 111.10343 107.653589 
L 111.430763 110.300952 
L 111.758095 111.536677 
L 112.085427 122.852955 
L 112.41276 126.361994 
L 112.740093 128.034129 
L 113.067425 126.439458 
L 113.394757 126.911929 
L 114.049422 122.879214 
L 114.376755 122.424509 
L 114.704087 116.349046 
L 115.358752 95.893077 
L 115.686085 95.312254 
L 116.013418 96.362977 
L 116.34075 95.960308 
L 116.668082 98.548714 
L 116.995415 104.07459 
L 117.322747 101.479271 
L 117.65008 102.623971 
L 117.977412 108.236809 
L 118.304745 106.44985 
L 118.632078 99.955513 
L 118.95941 103.972147 
L 119.286743 109.725779 
L 119.614075 104.718806 
L 119.941407 106.0069 
L 120.26874 104.595544 
L 120.596072 106.525477 
L 121.250737 103.738528 
L 121.57807 106.656945 
L 121.905403 107.649605 
L 122.232735 107.193454 
L 122.560068 101.296239 
L 123.214732 123.670248 
L 123.869397 128.088318 
L 124.19673 125.001486 
L 124.524062 126.634896 
L 124.851395 126.044361 
L 125.178728 127.723582 
L 125.50606 124.550097 
L 125.833393 127.900701 
L 126.160725 129.291521 
L 126.81539 134.926025 
L 127.142722 133.969604 
L 127.797387 140.777038 
L 128.12472 141.969549 
L 128.779385 138.066086 
L 129.106718 136.831939 
L 129.43405 137.287344 
L 129.761382 134.313772 
L 130.088715 124.698922 
L 130.416047 119.517846 
L 130.74338 120.811288 
L 131.398045 115.698465 
L 131.725378 117.933233 
L 132.05271 114.795503 
L 132.380043 104.150541 
L 132.707375 104.328468 
L 133.034707 104.698088 
L 133.36204 106.013564 
L 133.689372 109.765186 
L 134.016705 107.125543 
L 134.67137 89.364683 
L 134.998703 90.459425 
L 135.326035 100.987017 
L 135.653368 105.947857 
L 135.9807 97.431505 
L 136.308032 97.572187 
L 136.635365 99.518172 
L 136.962697 95.011698 
L 137.29003 95.991786 
L 137.944695 93.400706 
L 138.272028 97.875472 
L 138.59936 105.283546 
L 138.926693 108.404139 
L 139.254025 99.462953 
L 139.581357 99.865253 
L 139.90869 89.160867 
L 140.236022 89.657393 
L 140.563355 93.302759 
L 140.890688 98.51026 
L 141.21802 99.197817 
L 141.545353 108.226516 
L 142.200018 102.594023 
L 142.52735 100.777904 
L 142.854682 88.504437 
L 143.182015 86.592376 
L 143.509347 85.887306 
L 143.83668 82.275123 
L 144.491345 68.276497 
L 144.818678 68.399554 
L 145.14601 62.394969 
L 145.473343 63.594636 
L 145.800675 63.419733 
L 146.128007 66.014679 
L 147.110005 84.910801 
L 147.437338 77.644847 
L 147.76467 80.234902 
L 148.092002 80.873165 
L 148.419335 82.524044 
L 148.746668 82.291732 
L 149.074 91.51273 
L 149.401332 96.849629 
L 150.055997 83.699131 
L 150.38333 89.813029 
L 150.710663 89.245867 
L 151.037995 73.891954 
L 151.365327 64.494834 
L 151.69266 65.871979 
L 152.019993 68.535515 
L 152.347325 62.933992 
L 153.00199 58.795045 
L 153.329322 60.376157 
L 153.656655 67.397741 
L 154.31132 73.544357 
L 154.638652 69.199161 
L 154.965985 66.902348 
L 155.293318 71.662031 
L 155.62065 67.007061 
L 155.947982 68.165848 
L 156.275315 60.941934 
L 156.602647 60.527912 
L 156.92998 65.842038 
L 157.257313 69.239764 
L 157.584645 60.048406 
L 157.911977 59.111569 
L 158.23931 65.362566 
L 158.566643 64.048051 
L 158.893975 64.775238 
L 159.221307 68.659967 
L 159.54864 69.010056 
L 159.875972 70.037157 
L 160.203305 69.331014 
L 160.530638 70.044857 
L 160.85797 64.584576 
L 161.185302 53.346349 
L 161.512635 50.896205 
L 162.1673 36.843864 
L 162.821965 41.580184 
L 163.149297 40.361271 
L 163.47663 40.345888 
L 163.803963 52.418131 
L 164.131295 54.245018 
L 165.113293 64.879218 
L 165.440625 65.854721 
L 165.767957 59.640079 
L 166.09529 62.729892 
L 166.749955 76.324711 
L 167.077288 77.609123 
L 167.40462 76.776535 
L 167.731952 75.153448 
L 168.059285 84.7071 
L 168.386617 81.196137 
L 168.71395 85.769972 
L 169.041282 94.922897 
L 169.368615 85.919646 
L 169.695947 85.936016 
L 170.02328 96.105705 
L 170.350613 97.052974 
L 170.677945 96.087008 
L 171.005277 90.898351 
L 171.33261 91.025884 
L 171.659942 80.166943 
L 171.987275 86.958299 
L 172.314607 91.238508 
L 172.64194 89.391761 
L 172.969272 92.936036 
L 173.296605 100.089484 
L 173.623938 96.959431 
L 173.95127 105.177518 
L 174.933267 80.468119 
L 175.587932 74.431437 
L 175.915265 74.140075 
L 176.242597 80.689861 
L 176.56993 75.614251 
L 176.897263 74.183068 
L 177.224595 81.184826 
L 177.551927 76.724458 
L 177.87926 78.154235 
L 178.206592 87.219004 
L 178.533925 84.742938 
L 178.861257 83.833747 
L 179.18859 80.805214 
L 180.49792 118.353025 
L 180.825252 117.526551 
L 181.152585 117.663863 
L 181.479917 124.199377 
L 182.134582 116.90702 
L 182.461915 115.125681 
L 182.789247 120.614539 
L 183.11658 121.476807 
L 183.443913 123.023069 
L 183.771245 129.812576 
L 184.098577 128.896278 
L 184.42591 124.355392 
L 184.753242 128.530412 
L 185.080575 137.487226 
L 185.407907 150.285725 
L 185.73524 149.06054 
L 186.062572 150.331756 
L 186.389905 148.494839 
L 186.717238 153.190542 
L 187.04457 151.242883 
L 187.371902 156.774259 
L 187.699235 157.490836 
L 188.026567 155.069249 
L 188.3539 153.66647 
L 188.681232 152.774261 
L 189.008565 151.119476 
L 189.66323 157.954806 
L 190.317895 164.142162 
L 190.97256 178.068385 
L 191.299892 181.130789 
L 191.627225 192.642452 
L 191.954557 191.691898 
L 192.28189 192.215887 
L 192.609222 187.760351 
L 192.936555 189.393989 
L 193.263888 189.41128 
L 193.59122 190.240837 
L 193.918552 191.632069 
L 194.573217 205.874792 
L 194.90055 204.564691 
L 195.227882 206.797538 
L 196.20988 179.931088 
L 196.537213 173.970593 
L 196.864545 175.49708 
L 197.191877 181.435128 
L 197.51921 173.545626 
L 197.846542 175.992889 
L 198.501207 172.564575 
L 199.155872 167.276921 
L 199.483205 169.257216 
L 199.810538 168.676766 
L 200.13787 166.121257 
L 200.465202 173.923225 
L 200.792535 172.765888 
L 201.119867 175.747001 
L 201.4472 181.186335 
L 201.774532 180.1761 
L 202.429197 194.530374 
L 202.75653 189.302599 
L 203.083863 195.713507 
L 203.411195 193.507165 
L 203.738527 198.131305 
L 204.720525 182.999029 
L 205.047857 182.466685 
L 205.37519 179.822355 
L 205.702522 171.98829 
L 206.029855 169.558062 
L 206.357188 174.807684 
L 206.68452 174.431444 
L 207.011852 178.895426 
L 207.339185 180.637326 
L 207.666517 185.484936 
L 207.99385 187.106728 
L 208.648515 184.099376 
L 208.975847 185.812588 
L 209.30318 183.707362 
L 209.630513 178.6432 
L 209.957845 179.100946 
L 210.61251 184.529474 
L 210.939842 188.428947 
L 211.267175 186.292293 
L 211.594507 191.638662 
L 211.92184 188.10122 
L 212.249172 189.021186 
L 212.576505 190.508978 
L 212.903838 192.574435 
L 213.23117 193.929525 
L 213.558502 193.89458 
L 213.885835 195.678216 
L 214.213167 195.821518 
L 215.195165 187.514372 
L 215.522497 189.565322 
L 215.84983 181.637564 
L 216.177163 181.93934 
L 216.504495 181.298754 
L 216.831827 188.24529 
L 217.15916 184.950219 
L 217.486492 186.340253 
L 217.813825 189.60594 
L 218.141157 182.165691 
L 218.46849 186.596642 
L 218.795822 181.28899 
L 219.123155 180.970097 
L 219.450488 181.143889 
L 219.77782 187.061543 
L 220.432485 181.055627 
L 220.759817 189.466213 
L 221.08715 183.438273 
L 221.414482 167.916837 
L 221.741815 168.99435 
L 222.069147 164.840583 
L 222.723813 177.408268 
L 223.378477 181.741629 
L 223.70581 185.885252 
L 224.033142 183.405404 
L 224.360475 183.667782 
L 224.687807 190.187808 
L 225.01514 189.384696 
L 225.997138 201.283013 
L 226.32447 204.325333 
L 226.651802 198.438373 
L 226.979135 197.42508 
L 227.306467 198.047648 
L 227.6338 198.182947 
L 227.961132 197.248281 
L 228.288465 200.026922 
L 228.615797 194.351762 
L 228.94313 197.683141 
L 229.597795 209.553452 
L 229.925127 207.208885 
L 230.25246 211.43452 
L 230.579792 210.021942 
L 230.907125 211.521731 
L 231.56179 216.622558 
L 231.889122 223.316899 
L 232.216455 221.29783 
L 232.543788 212.064114 
L 232.87112 210.727885 
L 233.198452 211.046108 
L 233.525785 211.168782 
L 233.853117 204.99169 
L 234.18045 195.504107 
L 234.507782 195.904638 
L 235.162447 206.52954 
L 235.817113 200.533315 
L 236.471777 189.528402 
L 236.79911 187.209552 
L 237.126442 189.844068 
L 237.453775 190.770531 
L 237.781107 198.662739 
L 238.10844 194.377727 
L 238.435772 187.702156 
L 238.763105 190.588215 
L 239.090438 196.344677 
L 239.41777 190.104477 
L 239.745102 194.309227 
L 240.399767 207.733334 
L 240.7271 208.036761 
L 241.054432 212.777482 
L 241.381765 206.210809 
L 241.709097 216.594999 
L 242.03643 217.15752 
L 242.363763 216.330868 
L 242.691095 216.940727 
L 243.018427 215.792817 
L 243.34576 219.800439 
L 243.673092 222.285166 
L 244.000425 228.515425 
L 244.65509 221.174176 
L 244.982422 225.56798 
L 245.309755 226.947453 
L 245.637088 227.138617 
L 246.291752 221.109394 
L 246.619085 213.637162 
L 246.946417 210.306295 
L 247.27375 212.955253 
L 247.601082 210.837021 
L 247.928415 211.103619 
L 248.255747 212.09764 
L 248.910413 217.370052 
L 249.565077 220.296317 
L 249.89241 219.442702 
L 250.219742 217.38734 
L 250.547075 220.77649 
L 250.874407 217.710053 
L 251.20174 213.527267 
L 252.183738 193.023366 
L 252.51107 182.633731 
L 252.838402 184.937701 
L 253.165735 185.497831 
L 253.8204 168.015194 
L 254.475065 175.208181 
L 254.802397 170.141022 
L 255.12973 172.210706 
L 255.457063 172.989901 
L 255.784395 169.772686 
L 256.111727 163.939243 
L 256.43906 162.794062 
L 256.766392 163.703264 
L 257.093725 157.563611 
L 257.421057 159.940774 
L 257.74839 169.003055 
L 258.075722 169.68387 
L 258.403055 171.787099 
L 258.730388 163.833364 
L 259.05772 166.077306 
L 259.385052 165.370909 
L 259.712385 168.402056 
L 260.039717 164.98049 
L 260.36705 164.137629 
L 260.694382 164.302258 
L 261.67638 154.5056 
L 262.003713 146.284823 
L 262.331045 143.50115 
L 262.658377 137.216356 
L 262.98571 127.940851 
L 263.313042 124.292148 
L 263.640375 119.09444 
L 263.967707 127.175194 
L 264.29504 129.328082 
L 264.622372 137.093793 
L 265.277038 139.354407 
L 265.60437 143.499639 
L 265.931702 145.377304 
L 266.259035 144.63343 
L 266.586367 145.607421 
L 266.9137 147.563495 
L 267.241032 145.125411 
L 267.568365 144.537344 
L 267.895697 141.658472 
L 268.550363 151.107727 
L 269.205027 158.040529 
L 269.53236 159.593264 
L 269.859692 165.415015 
L 270.187025 161.360128 
L 270.514357 161.004918 
L 270.84169 161.616877 
L 271.169022 160.606035 
L 271.823688 146.577988 
L 272.15102 148.274116 
L 272.478352 145.613135 
L 272.805685 149.253616 
L 273.133017 148.538155 
L 273.46035 151.784084 
L 273.787682 156.489922 
L 274.115015 159.368671 
L 274.442347 159.560723 
L 274.76968 160.310214 
L 275.097013 156.029779 
L 275.424345 144.936235 
L 275.751677 140.598785 
L 276.07901 148.070778 
L 276.406342 151.368145 
L 276.733675 145.674491 
L 277.061007 149.568629 
L 277.38834 151.463989 
L 277.715672 155.589963 
L 278.043005 156.964827 
L 278.370338 156.621389 
L 278.69767 155.916471 
L 279.025002 161.153232 
L 279.352335 161.72987 
L 279.679667 156.326606 
L 280.007 154.78737 
L 280.334332 149.685684 
L 280.661665 157.189658 
L 280.988997 160.392234 
L 281.643663 164.388037 
L 281.970995 153.626145 
L 282.298327 151.416817 
L 282.62566 158.778717 
L 282.952992 161.211575 
L 283.280325 160.97185 
L 283.607657 169.815621 
L 284.589655 179.064769 
L 284.916988 184.81612 
L 285.24432 180.060604 
L 285.898985 165.178227 
L 286.226317 167.748302 
L 286.55365 172.074767 
L 286.880982 170.791226 
L 287.208315 177.601118 
L 287.535647 171.896334 
L 287.86298 170.246947 
L 288.517645 183.103031 
L 288.844977 182.289665 
L 289.17231 195.96445 
L 289.499642 198.329622 
L 289.826975 204.624713 
L 290.154307 207.01226 
L 290.48164 215.600166 
L 291.136305 211.395007 
L 291.463638 206.113335 
L 291.79097 204.482882 
L 292.118302 204.38106 
L 292.445635 208.533407 
L 292.772967 208.773889 
L 293.1003 209.612669 
L 293.427632 203.536958 
L 293.754965 200.223157 
L 294.082297 200.317314 
L 294.40963 200.963876 
L 294.736963 201.959149 
L 295.064295 199.951609 
L 295.391627 202.137438 
L 295.71896 202.918657 
L 296.046292 200.050708 
L 296.373625 192.758407 
L 296.700957 196.769873 
L 297.02829 199.013249 
L 297.355622 198.580558 
L 298.010288 208.835562 
L 298.33762 210.566444 
L 298.664952 207.157886 
L 298.992285 212.129006 
L 299.319617 210.591373 
L 299.64695 215.261269 
L 299.974282 215.134749 
L 300.301615 217.424649 
L 300.95628 206.768669 
L 301.283613 208.320719 
L 301.610945 207.812071 
L 301.938277 203.200617 
L 302.26561 203.604817 
L 302.592942 207.483962 
L 302.920275 214.951141 
L 303.247607 213.86946 
L 303.57494 210.247608 
L 303.902272 212.365993 
L 304.229605 211.1267 
L 304.556938 201.357696 
L 304.88427 201.645113 
L 305.211602 205.206515 
L 305.866267 215.68046 
L 306.520932 201.451117 
L 307.50293 214.073826 
L 307.830263 207.918919 
L 308.157595 206.414161 
L 308.81226 188.104095 
L 309.139592 191.131811 
L 309.466925 191.089541 
L 309.794257 189.870889 
L 310.12159 189.94966 
L 310.448922 188.451553 
L 310.776255 181.950012 
L 311.103588 183.443588 
L 311.43092 186.207293 
L 311.758252 192.062629 
L 312.085585 195.400433 
L 312.412917 189.390713 
L 312.74025 193.19706 
L 313.067582 183.604196 
L 313.394915 180.003055 
L 313.722247 178.528953 
L 314.376913 180.18785 
L 314.704245 175.58197 
L 315.031577 179.705711 
L 315.35891 194.138653 
L 315.686242 193.133435 
L 316.013575 196.858428 
L 316.340907 190.023574 
L 316.66824 188.687825 
L 316.995572 196.631937 
L 317.322905 192.21591 
L 317.97757 197.199404 
L 318.304902 202.915349 
L 319.2869 211.176317 
L 319.614232 217.800305 
L 319.941565 221.847549 
L 320.268897 218.311366 
L 320.59623 209.754996 
L 320.923563 205.235289 
L 321.250895 205.015228 
L 321.578227 208.537845 
L 321.90556 213.947418 
L 322.232892 211.648104 
L 322.560225 214.920833 
L 323.21489 226.860817 
L 323.542222 221.8304 
L 323.869555 220.585857 
L 324.196888 214.667193 
L 324.52422 216.284897 
L 324.851552 214.427766 
L 325.178885 213.443473 
L 325.506217 209.727125 
L 326.160882 215.04102 
L 326.488215 218.246399 
L 326.815547 212.856708 
L 327.14288 212.583865 
L 327.470213 216.187668 
L 327.797545 215.751627 
L 328.124877 219.419208 
L 328.45221 227.168684 
L 329.106875 222.249017 
L 329.76154 233.160157 
L 330.088872 243.244645 
L 330.416205 239.559578 
L 330.743538 240.077526 
L 331.07087 236.786807 
L 331.398202 235.779587 
L 331.725535 232.490665 
L 332.052867 241.796234 
L 332.3802 245.311135 
L 332.707532 244.761123 
L 333.362197 248.891317 
L 333.68953 246.668468 
L 334.016863 243.530371 
L 334.344195 249.865993 
L 334.671527 245.03136 
L 334.99886 253.623259 
L 335.326192 255.321136 
L 335.653525 247.65928 
L 335.980857 244.661587 
L 336.30819 234.789655 
L 336.635522 231.55256 
L 336.962855 233.197734 
L 337.290188 230.282563 
L 337.61752 224.702751 
L 337.944852 226.562502 
L 338.599517 221.188792 
L 338.92685 225.796043 
L 339.254182 224.776449 
L 339.581515 231.031925 
L 339.908847 228.562132 
L 340.563513 211.424676 
L 340.890845 213.830572 
L 341.218177 227.583378 
L 341.54551 225.992313 
L 341.872842 215.586562 
L 342.200175 218.509233 
L 342.527508 216.455051 
L 342.85484 209.453079 
L 343.182172 215.235855 
L 343.509505 207.81919 
L 343.836838 205.662338 
L 344.16417 210.00715 
L 344.818835 190.680121 
L 345.146167 186.334735 
L 345.4735 190.193886 
L 345.800833 204.895921 
L 346.128165 206.239527 
L 346.455497 198.60697 
L 346.78283 195.984193 
L 347.110163 203.267563 
L 347.437495 203.479281 
L 347.764827 200.448391 
L 348.419492 195.919703 
L 348.746825 192.618204 
L 349.074158 192.060343 
L 349.728822 207.001425 
L 350.056155 202.177449 
L 350.71082 196.904037 
L 351.038152 201.93126 
L 351.365485 202.726336 
L 351.692817 199.002232 
L 352.02015 200.381216 
L 352.347483 205.93609 
L 353.002147 202.704344 
L 353.32948 204.57396 
L 353.656813 210.348313 
L 353.984145 211.421513 
L 354.311477 208.575651 
L 354.63881 214.846214 
L 354.966142 214.165777 
L 355.293475 214.385819 
L 355.620808 218.629956 
L 355.94814 219.389556 
L 356.275472 214.150623 
L 356.602805 206.262192 
L 356.930138 201.66471 
L 357.25747 204.697919 
L 357.584802 203.609653 
L 357.912135 205.549527 
L 358.239467 213.505159 
L 358.5668 210.964452 
L 358.894133 212.60254 
L 359.87613 190.383061 
L 360.203463 200.197344 
L 360.530795 203.118415 
L 360.858127 201.678226 
L 361.18546 205.882682 
L 361.512792 202.693437 
L 361.840125 205.80203 
L 362.167458 201.106304 
L 362.49479 201.986465 
L 363.476788 216.317865 
L 363.80412 215.031479 
L 364.131452 214.693703 
L 364.458785 210.649188 
L 364.786117 211.825291 
L 365.11345 211.460182 
L 365.768115 198.821205 
L 366.095447 205.697989 
L 366.42278 207.28176 
L 367.077445 225.718576 
L 367.404777 221.325418 
L 367.73211 237.253908 
L 368.059442 241.423461 
L 368.386775 238.976312 
L 368.714108 238.558134 
L 369.04144 234.803944 
L 369.368772 234.160885 
L 369.696105 231.490631 
L 370.023438 234.554758 
L 370.35077 232.058668 
L 370.678102 225.454654 
L 371.005435 229.974692 
L 371.332767 238.340638 
L 371.6601 240.762977 
L 371.987433 232.712626 
L 372.314765 234.932016 
L 372.96943 221.275731 
L 373.624095 214.415615 
L 373.951427 214.507636 
L 374.27876 210.606734 
L 374.606092 210.016358 
L 374.933425 207.713193 
L 375.260758 209.858206 
L 375.915422 201.791534 
L 376.242755 202.15899 
L 376.570087 195.225087 
L 376.89742 195.009803 
L 377.552085 203.619621 
L 377.879417 201.358091 
L 378.534083 190.403352 
L 378.861415 190.191941 
L 379.188747 192.809648 
L 379.51608 193.530796 
L 379.843412 197.737312 
L 380.170745 188.429922 
L 380.498077 186.174538 
L 381.480075 173.415279 
L 382.462072 189.718584 
L 382.789405 189.201339 
L 383.116737 191.092486 
L 383.44407 183.201707 
L 383.771402 179.158175 
L 384.098735 181.224135 
L 384.426067 175.443261 
L 384.7534 180.435888 
L 385.080733 183.132569 
L 385.408065 188.106159 
L 385.735397 185.735405 
L 386.06273 186.75199 
L 386.390062 182.180041 
L 386.717395 173.03351 
L 387.044727 168.922371 
L 387.37206 169.306433 
L 388.026725 180.110768 
L 388.68139 171.562202 
L 389.008722 172.010394 
L 389.336055 163.610856 
L 389.663387 159.089142 
L 389.99072 160.466017 
L 390.318052 158.12387 
L 390.645385 162.369628 
L 390.972717 152.528677 
L 391.30005 152.16798 
L 391.627383 154.201156 
L 391.954715 151.269619 
L 392.282047 149.454619 
L 392.60938 148.836744 
L 392.936712 140.433868 
L 393.264045 139.004535 
L 393.591377 141.890759 
L 393.91871 137.592043 
L 394.573375 142.189689 
L 394.900708 144.961059 
L 395.22804 149.910924 
L 396.210037 141.182092 
L 396.53737 139.968361 
L 396.864702 139.287816 
L 397.192035 141.424167 
L 397.8467 152.362107 
L 398.174033 150.738196 
L 398.501365 144.212729 
L 399.483362 160.795297 
L 399.810695 170.050258 
L 400.46536 159.990302 
L 400.792692 167.450664 
L 401.120025 166.070758 
L 401.447358 166.772979 
L 401.77469 162.850585 
L 402.102022 156.875433 
L 402.429355 159.767966 
L 402.756687 156.799126 
L 403.08402 159.051255 
L 403.738685 157.244553 
L 404.066017 162.226926 
L 404.39335 169.621241 
L 404.720683 170.102713 
L 405.048015 159.224076 
L 405.375347 159.734225 
L 405.70268 166.752635 
L 406.030012 169.72656 
L 406.357345 168.190705 
L 406.684677 164.770867 
L 407.339342 155.561618 
L 407.666675 152.647826 
L 407.994008 145.962442 
L 408.32134 147.374691 
L 408.648672 146.033797 
L 409.303337 117.230271 
L 409.63067 113.054875 
L 409.958002 114.271334 
L 410.285335 114.93937 
L 410.612667 104.438059 
L 410.612667 104.438059 
" clip-path="url(#pf7cdb62911)" style="fill: none; stroke: #1f77b4; stroke-width: 1.5; stroke-linecap: square"/>
   </g>
   <g id="patch_3">
    <path d="M 83.6075 266.245 
L 83.6075 25.92 
" style="fill: none; stroke: #000000; stroke-width: 0.8; stroke-linejoin: miter; stroke-linecap: square"/>
   </g>
   <g id="patch_4">
    <path d="M 410.94 266.245 
L 410.94 25.92 
" style="fill: none; stroke: #000000; stroke-width: 0.8; stroke-linejoin: miter; stroke-linecap: square"/>
   </g>
   <g id="patch_5">
    <path d="M 83.6075 266.245 
L 410.94 266.245 
" style="fill: none; stroke: #000000; stroke-width: 0.8; stroke-linejoin: miter; stroke-linecap: square"/>
   </g>
   <g id="patch_6">
    <path d="M 83.6075 25.92 
L 410.94 25.92 
" style="fill: none; stroke: #000000; stroke-width: 0.8; stroke-linejoin: miter; stroke-linecap: square"/>
   </g>
  </g>
 </g>
 <defs>
  <clipPath id="pf7cdb62911">
   <rect x="83.6075" y="25.92" width="327.3325" height="240.325"/>
  </clipPath>
 </defs>
</svg>
