<?xml version="1.0" encoding="utf-8" standalone="no"?>
<!DOCTYPE svg PUBLIC "-//W3C//DTD SVG 1.1//EN"
  "http://www.w3.org/Graphics/SVG/1.1/DTD/svg11.dtd">
<svg xmlns:xlink="http://www.w3.org/1999/xlink" width="460.8pt" height="345.6pt" viewBox="0 0 460.8 345.6" xmlns="http://www.w3.org/2000/svg" version="1.1">
 <metadata>
  <rdf:RDF xmlns:dc="http://purl.org/dc/elements/1.1/" xmlns:cc="http://creativecommons.org/ns#" xmlns:rdf="http://www.w3.org/1999/02/22-rdf-syntax-ns#">
   <cc:Work>
    <dc:type rdf:resource="http://purl.org/dc/dcmitype/StillImage"/>
    <dc:date>2026-01-28T11:02:02.733831</dc:date>
    <dc:format>image/svg+xml</dc:format>
    <dc:creator>
     <cc:Agent>
      <dc:title>Matplotlib v3.10.8, https://matplotlib.org/</dc:title>
     </cc:Agent>
    </dc:creator>
   </cc:Work>
  </rdf:RDF>
 </metadata>
 <defs>
  <style type="text/css">*{stroke-linejoin: round; stroke-linecap: butt}</style>
 </defs>
 <g id="figure_1">
  <g id="patch_1">
   <path d="M 0 345.6 
L 460.8 345.6 
L 460.8 0 
L 0 0 
z
" style="fill: #ffffff"/>
  </g>
  <g id="axes_1">
   <g id="patch_2">
    <path d="M 83.6075 266.245 
L 410.94 266.245 
L 410.94 25.92 
L 83.6075 25.92 
z
" style="fill: #ffffff"/>
   </g>
   <g id="matplotlib.axis_1">
    <g id="xtick_1">
     <g id="line2d_1">
      <path d="M 83.6075 266.245 
L 83.6075 25.92 
" clip-path="url(#pa10603e070)" style="fill: none; stroke: #b0b0b0; stroke-width: 0.8; stroke-linecap: square"/>
     </g>
     <g id="line2d_2">
      <defs>
       <path id="mdbe8be63eb" d="M 0 0 
L 0 3.5 
" style="stroke: #000000; stroke-width: 0.8"/>
      </defs>
      <g>
       <use xlink:href="#mdbe8be63eb" x="83.6075" y="266.245" style="stroke: #000000; stroke-width: 0.8"/>
      </g>
     </g>
     <g id="text_1">
      <!-- 0 -->
      <g transform="translate(77.6075 289.63625) scale(0.24 -0.24)">
       <defs>
        <path id="TeXGyreTermes-Regular-30" d="M 3046 2112 
C 3046 3424 2464 4326 1626 4326 
C 1274 4326 1005 4218 768 3994 
C 397 3635 154 2899 154 2150 
C 154 1453 365 704 666 346 
C 902 64 1229 -90 1600 -90 
C 1926 -90 2202 19 2432 243 
C 2803 595 3046 1338 3046 2112 
z
M 2432 2099 
C 2432 762 2150 77 1600 77 
C 1050 77 768 762 768 2093 
C 768 3450 1056 4160 1606 4160 
C 2144 4160 2432 3437 2432 2099 
z
" transform="scale(0.015625)"/>
       </defs>
       <use xlink:href="#TeXGyreTermes-Regular-30"/>
      </g>
     </g>
    </g>
    <g id="xtick_2">
     <g id="line2d_3">
      <path d="M 165.440625 266.245 
L 165.440625 25.92 
" clip-path="url(#pa10603e070)" style="fill: none; stroke: #b0b0b0; stroke-width: 0.8; stroke-linecap: square"/>
     </g>
     <g id="line2d_4">
      <g>
       <use xlink:href="#mdbe8be63eb" x="165.440625" y="266.245" style="stroke: #000000; stroke-width: 0.8"/>
      </g>
     </g>
     <g id="text_2">
      <!-- 250 -->
      <g transform="translate(147.440625 289.63625) scale(0.24 -0.24)">
       <defs>
        <path id="TeXGyreTermes-Regular-32" d="M 3040 877 
L 2957 909 
C 2720 544 2637 486 2349 486 
L 819 486 
L 1894 1613 
C 2464 2208 2714 2694 2714 3194 
C 2714 3834 2195 4326 1530 4326 
C 1178 4326 845 4186 608 3930 
C 403 3712 307 3507 198 3053 
L 333 3021 
C 589 3648 819 3853 1261 3853 
C 1798 3853 2163 3488 2163 2950 
C 2163 2451 1869 1856 1331 1286 
L 192 77 
L 192 0 
L 2688 0 
L 3040 877 
z
" transform="scale(0.015625)"/>
        <path id="TeXGyreTermes-Regular-35" d="M 2803 4358 
L 2746 4403 
C 2650 4269 2586 4237 2451 4237 
L 1114 4237 
L 416 2720 
C 410 2707 410 2688 410 2688 
C 410 2656 435 2637 486 2637 
C 691 2637 947 2592 1210 2509 
C 1946 2272 2285 1875 2285 1242 
C 2285 627 1894 147 1395 147 
C 1267 147 1158 192 966 333 
C 762 480 614 544 480 544 
C 294 544 205 467 205 307 
C 205 64 506 -90 986 -90 
C 1523 -90 1984 83 2304 410 
C 2598 698 2733 1062 2733 1549 
C 2733 2010 2611 2304 2291 2624 
C 2010 2906 1645 3053 890 3187 
L 1158 3731 
L 2413 3731 
C 2515 3731 2541 3744 2560 3789 
L 2803 4358 
z
" transform="scale(0.015625)"/>
       </defs>
       <use xlink:href="#TeXGyreTermes-Regular-32"/>
       <use xlink:href="#TeXGyreTermes-Regular-35" transform="translate(49.999985 0)"/>
       <use xlink:href="#TeXGyreTermes-Regular-30" transform="translate(99.999969 0)"/>
      </g>
     </g>
    </g>
    <g id="xtick_3">
     <g id="line2d_5">
      <path d="M 247.27375 266.245 
L 247.27375 25.92 
" clip-path="url(#pa10603e070)" style="fill: none; stroke: #b0b0b0; stroke-width: 0.8; stroke-linecap: square"/>
     </g>
     <g id="line2d_6">
      <g>
       <use xlink:href="#mdbe8be63eb" x="247.27375" y="266.245" style="stroke: #000000; stroke-width: 0.8"/>
      </g>
     </g>
     <g id="text_3">
      <!-- 500 -->
      <g transform="translate(229.27375 289.63625) scale(0.24 -0.24)">
       <use xlink:href="#TeXGyreTermes-Regular-35"/>
       <use xlink:href="#TeXGyreTermes-Regular-30" transform="translate(49.999985 0)"/>
       <use xlink:href="#TeXGyreTermes-Regular-30" transform="translate(99.999969 0)"/>
      </g>
     </g>
    </g>
    <g id="xtick_4">
     <g id="line2d_7">
      <path d="M 329.106875 266.245 
L 329.106875 25.92 
" clip-path="url(#pa10603e070)" style="fill: none; stroke: #b0b0b0; stroke-width: 0.8; stroke-linecap: square"/>
     </g>
     <g id="line2d_8">
      <g>
       <use xlink:href="#mdbe8be63eb" x="329.106875" y="266.245" style="stroke: #000000; stroke-width: 0.8"/>
      </g>
     </g>
     <g id="text_4">
      <!-- 750 -->
      <g transform="translate(311.106875 289.63625) scale(0.24 -0.24)">
       <defs>
        <path id="TeXGyreTermes-Regular-37" d="M 2874 4134 
L 2874 4237 
L 506 4237 
L 128 3296 
L 237 3245 
C 512 3680 627 3763 979 3763 
L 2368 3763 
L 1101 -51 
L 1517 -51 
L 2874 4134 
z
" transform="scale(0.015625)"/>
       </defs>
       <use xlink:href="#TeXGyreTermes-Regular-37"/>
       <use xlink:href="#TeXGyreTermes-Regular-35" transform="translate(49.999985 0)"/>
       <use xlink:href="#TeXGyreTermes-Regular-30" transform="translate(99.999969 0)"/>
      </g>
     </g>
    </g>
    <g id="xtick_5">
     <g id="line2d_9">
      <path d="M 410.94 266.245 
L 410.94 25.92 
" clip-path="url(#pa10603e070)" style="fill: none; stroke: #b0b0b0; stroke-width: 0.8; stroke-linecap: square"/>
     </g>
     <g id="line2d_10">
      <g>
       <use xlink:href="#mdbe8be63eb" x="410.94" y="266.245" style="stroke: #000000; stroke-width: 0.8"/>
      </g>
     </g>
     <g id="text_5">
      <!-- 1000 -->
      <g transform="translate(386.94 289.63625) scale(0.24 -0.24)">
       <defs>
        <path id="TeXGyreTermes-Regular-31" d="M 2522 0 
L 2522 96 
C 2016 102 1914 166 1914 474 
L 1914 4314 
L 1862 4326 
L 710 3744 
L 710 3654 
C 787 3686 858 3712 883 3725 
C 998 3770 1107 3795 1171 3795 
C 1306 3795 1363 3699 1363 3494 
L 1363 595 
C 1363 384 1312 237 1210 179 
C 1114 122 1024 102 755 96 
L 755 0 
L 2522 0 
z
" transform="scale(0.015625)"/>
       </defs>
       <use xlink:href="#TeXGyreTermes-Regular-31"/>
       <use xlink:href="#TeXGyreTermes-Regular-30" transform="translate(49.999985 0)"/>
       <use xlink:href="#TeXGyreTermes-Regular-30" transform="translate(99.999969 0)"/>
       <use xlink:href="#TeXGyreTermes-Regular-30" transform="translate(149.999954 0)"/>
      </g>
     </g>
    </g>
    <g id="text_6">
     <!-- Schritt k -->
     <g transform="translate(206.27125 315.23625) scale(0.24 -0.24)">
      <defs>
       <path id="TeXGyreTermes-Regular-53" d="M 3142 1075 
C 3142 1606 2790 2016 1946 2477 
C 1274 2842 1005 3123 1005 3475 
C 1005 3827 1274 4064 1670 4064 
C 1958 4064 2227 3942 2451 3712 
C 2650 3507 2739 3341 2842 2963 
L 3002 2963 
L 2861 4326 
L 2726 4326 
C 2701 4186 2630 4109 2522 4109 
C 2458 4109 2355 4134 2240 4186 
C 2003 4275 1773 4326 1549 4326 
C 1299 4326 1030 4224 826 4058 
C 576 3853 454 3578 454 3226 
C 454 2720 736 2362 1453 1984 
C 1914 1734 2246 1478 2406 1235 
C 2464 1146 2496 1018 2496 858 
C 2496 435 2176 141 1709 141 
C 1133 141 736 493 416 1274 
L 269 1274 
L 461 -83 
L 602 -83 
C 608 38 685 128 781 128 
C 851 128 960 102 1082 58 
C 1325 -38 1581 -90 1837 -90 
C 2579 -90 3142 416 3142 1075 
z
" transform="scale(0.015625)"/>
       <path id="TeXGyreTermes-Regular-63" d="M 2637 941 
L 2547 998 
C 2240 550 2010 397 1645 397 
C 1056 397 653 909 653 1645 
C 653 2310 1005 2758 1523 2758 
C 1754 2758 1837 2688 1901 2451 
L 1939 2310 
C 1990 2125 2106 2016 2246 2016 
C 2413 2016 2547 2138 2547 2285 
C 2547 2643 2099 2944 1562 2944 
C 1261 2944 954 2829 698 2618 
C 352 2330 160 1888 160 1357 
C 160 531 666 -64 1376 -64 
C 1651 -64 1894 26 2112 205 
C 2304 358 2432 544 2637 941 
z
" transform="scale(0.015625)"/>
       <path id="TeXGyreTermes-Regular-68" d="M 3117 0 
L 3117 96 
C 2771 160 2733 211 2733 653 
L 2733 1926 
C 2733 2598 2464 2944 1946 2944 
C 1568 2944 1299 2790 1005 2406 
L 1005 4352 
L 973 4371 
C 755 4294 595 4243 237 4141 
L 64 4090 
L 64 3987 
C 90 3994 109 3994 141 3994 
C 416 3994 467 3942 467 3667 
L 467 653 
C 467 205 429 147 58 96 
L 58 0 
L 1440 0 
L 1440 96 
C 1069 134 1005 211 1005 653 
L 1005 2195 
C 1274 2490 1466 2598 1715 2598 
C 2035 2598 2195 2368 2195 1920 
L 2195 653 
C 2195 218 2131 134 1760 96 
L 1760 0 
L 3117 0 
z
" transform="scale(0.015625)"/>
       <path id="TeXGyreTermes-Regular-72" d="M 2144 2605 
C 2144 2816 2010 2944 1792 2944 
C 1523 2944 1338 2797 1024 2342 
L 1024 2931 
L 992 2944 
C 653 2803 422 2720 45 2598 
L 45 2496 
C 134 2515 192 2522 269 2522 
C 429 2522 486 2419 486 2138 
L 486 538 
C 486 218 442 173 32 96 
L 32 0 
L 1568 0 
L 1568 96 
C 1133 115 1024 211 1024 576 
L 1024 2016 
C 1024 2221 1299 2541 1472 2541 
C 1510 2541 1568 2509 1638 2445 
C 1741 2355 1811 2317 1894 2317 
C 2048 2317 2144 2426 2144 2605 
z
" transform="scale(0.015625)"/>
       <path id="TeXGyreTermes-Regular-69" d="M 1619 0 
L 1619 96 
C 1197 128 1146 192 1146 653 
L 1146 2925 
L 1120 2944 
L 128 2592 
L 128 2496 
L 179 2502 
C 256 2515 339 2522 397 2522 
C 550 2522 608 2419 608 2138 
L 608 653 
C 608 192 544 122 102 96 
L 102 0 
L 1619 0 
z
M 1203 3776 
C 1203 3955 1062 4102 877 4102 
C 698 4102 550 3955 550 3776 
C 550 3590 698 3450 877 3450 
C 1062 3450 1203 3590 1203 3776 
z
" transform="scale(0.015625)"/>
       <path id="TeXGyreTermes-Regular-74" d="M 1786 422 
L 1702 493 
C 1562 326 1459 269 1318 269 
C 1082 269 986 435 986 845 
L 986 2675 
L 1632 2675 
L 1632 2880 
L 986 2880 
L 986 3622 
C 986 3686 973 3706 941 3706 
C 902 3642 858 3584 813 3526 
C 576 3174 358 2938 192 2842 
C 122 2797 83 2758 83 2720 
C 83 2701 90 2688 109 2675 
L 448 2675 
L 448 749 
C 448 211 640 -64 1011 -64 
C 1331 -64 1574 90 1786 422 
z
" transform="scale(0.015625)"/>
       <path id="TeXGyreTermes-Regular-20" transform="scale(0.015625)"/>
       <path id="TeXGyreTermes-Regular-6b" d="M 3232 0 
L 3232 96 
C 2950 115 2752 237 2483 563 
L 1504 1805 
L 1690 1978 
C 2144 2400 2541 2694 2726 2746 
C 2822 2771 2912 2784 3021 2784 
L 3072 2784 
L 3072 2880 
L 1766 2880 
L 1766 2790 
C 2016 2784 2086 2758 2086 2669 
C 2086 2618 2029 2528 1939 2451 
L 1062 1670 
L 1062 4358 
L 1037 4371 
L 237 4141 
L 45 4090 
L 45 3987 
C 128 3994 186 4000 250 4000 
C 461 4000 525 3917 525 3610 
L 525 525 
C 525 192 506 173 45 96 
L 45 0 
L 1542 0 
L 1542 96 
L 1414 102 
C 1158 115 1062 205 1062 429 
L 1062 1606 
L 1958 410 
L 1978 384 
C 1990 365 2003 346 2022 326 
C 2074 262 2093 224 2093 192 
C 2093 134 2035 96 1958 96 
L 1837 96 
L 1837 0 
L 3232 0 
z
" transform="scale(0.015625)"/>
      </defs>
      <use xlink:href="#TeXGyreTermes-Regular-53"/>
      <use xlink:href="#TeXGyreTermes-Regular-63" transform="translate(55.599991 0)"/>
      <use xlink:href="#TeXGyreTermes-Regular-68" transform="translate(99.999985 0)"/>
      <use xlink:href="#TeXGyreTermes-Regular-72" transform="translate(149.999969 0)"/>
      <use xlink:href="#TeXGyreTermes-Regular-69" transform="translate(183.299957 0)"/>
      <use xlink:href="#TeXGyreTermes-Regular-74" transform="translate(211.099945 0)"/>
      <use xlink:href="#TeXGyreTermes-Regular-74" transform="translate(238.899933 0)"/>
      <use xlink:href="#TeXGyreTermes-Regular-20" transform="translate(266.699921 0)"/>
      <use xlink:href="#TeXGyreTermes-Regular-6b" transform="translate(291.699905 0)"/>
     </g>
    </g>
   </g>
   <g id="matplotlib.axis_2">
    <g id="ytick_1">
     <g id="line2d_11">
      <path d="M 83.6075 258.767907 
L 410.94 258.767907 
" clip-path="url(#pa10603e070)" style="fill: none; stroke: #b0b0b0; stroke-width: 0.8; stroke-linecap: square"/>
     </g>
     <g id="line2d_12">
      <defs>
       <path id="ma64af83a3b" d="M 0 0 
L -3.5 0 
" style="stroke: #000000; stroke-width: 0.8"/>
      </defs>
      <g>
       <use xlink:href="#ma64af83a3b" x="83.6075" y="258.767907" style="stroke: #000000; stroke-width: 0.8"/>
      </g>
     </g>
     <g id="text_7">
      <!-- −4 -->
      <g transform="translate(51.07 266.963532) scale(0.24 -0.24)">
       <defs>
        <path id="TeXGyreTermes-Regular-2212" d="M 3354 1389 
L 3354 1811 
L 256 1811 
L 256 1389 
L 3354 1389 
z
" transform="scale(0.015625)"/>
        <path id="TeXGyreTermes-Regular-34" d="M 3021 1069 
L 3021 1478 
L 2368 1478 
L 2368 4326 
L 2086 4326 
L 77 1478 
L 77 1069 
L 1875 1069 
L 1875 0 
L 2368 0 
L 2368 1069 
L 3021 1069 
z
M 1869 1478 
L 333 1478 
L 1869 3674 
L 1869 1478 
z
" transform="scale(0.015625)"/>
       </defs>
       <use xlink:href="#TeXGyreTermes-Regular-2212"/>
       <use xlink:href="#TeXGyreTermes-Regular-34" transform="translate(56.399994 0)"/>
      </g>
     </g>
    </g>
    <g id="ytick_2">
     <g id="line2d_13">
      <path d="M 83.6075 193.477591 
L 410.94 193.477591 
" clip-path="url(#pa10603e070)" style="fill: none; stroke: #b0b0b0; stroke-width: 0.8; stroke-linecap: square"/>
     </g>
     <g id="line2d_14">
      <g>
       <use xlink:href="#ma64af83a3b" x="83.6075" y="193.477591" style="stroke: #000000; stroke-width: 0.8"/>
      </g>
     </g>
     <g id="text_8">
      <!-- −2 -->
      <g transform="translate(51.07 201.673216) scale(0.24 -0.24)">
       <use xlink:href="#TeXGyreTermes-Regular-2212"/>
       <use xlink:href="#TeXGyreTermes-Regular-32" transform="translate(56.399994 0)"/>
      </g>
     </g>
    </g>
    <g id="ytick_3">
     <g id="line2d_15">
      <path d="M 83.6075 128.187276 
L 410.94 128.187276 
" clip-path="url(#pa10603e070)" style="fill: none; stroke: #b0b0b0; stroke-width: 0.8; stroke-linecap: square"/>
     </g>
     <g id="line2d_16">
      <g>
       <use xlink:href="#ma64af83a3b" x="83.6075" y="128.187276" style="stroke: #000000; stroke-width: 0.8"/>
      </g>
     </g>
     <g id="text_9">
      <!-- 0 -->
      <g transform="translate(64.6075 136.382901) scale(0.24 -0.24)">
       <use xlink:href="#TeXGyreTermes-Regular-30"/>
      </g>
     </g>
    </g>
    <g id="ytick_4">
     <g id="line2d_17">
      <path d="M 83.6075 62.896961 
L 410.94 62.896961 
" clip-path="url(#pa10603e070)" style="fill: none; stroke: #b0b0b0; stroke-width: 0.8; stroke-linecap: square"/>
     </g>
     <g id="line2d_18">
      <g>
       <use xlink:href="#ma64af83a3b" x="83.6075" y="62.896961" style="stroke: #000000; stroke-width: 0.8"/>
      </g>
     </g>
     <g id="text_10">
      <!-- 2 -->
      <g transform="translate(64.6075 71.092586) scale(0.24 -0.24)">
       <use xlink:href="#TeXGyreTermes-Regular-32"/>
      </g>
     </g>
    </g>
    <g id="text_11">
     <!-- x(k) -->
     <g transform="translate(41.86125 166.07375) rotate(-90) scale(0.24 -0.24)">
      <defs>
       <path id="TeXGyreTermes-Regular-78" d="M 3066 0 
L 3066 96 
C 2867 96 2739 198 2541 480 
L 1722 1734 
L 2253 2502 
C 2374 2675 2566 2778 2771 2784 
L 2771 2880 
L 1760 2880 
L 1760 2784 
C 1952 2771 2016 2733 2016 2643 
C 2016 2566 1939 2426 1779 2227 
C 1747 2189 1670 2074 1587 1946 
L 1498 2074 
C 1318 2342 1203 2560 1203 2643 
C 1203 2733 1286 2778 1478 2784 
L 1478 2880 
L 154 2880 
L 154 2784 
L 211 2784 
C 403 2784 506 2701 704 2400 
L 1306 1478 
L 576 422 
C 384 160 320 115 109 96 
L 109 0 
L 1037 0 
L 1037 96 
C 858 96 781 128 781 211 
C 781 250 826 346 909 474 
L 1414 1261 
L 1997 365 
C 2022 326 2035 288 2035 250 
C 2035 134 1990 109 1779 96 
L 1779 0 
L 3066 0 
z
" transform="scale(0.015625)"/>
       <path id="TeXGyreTermes-Regular-28" d="M 1946 -1030 
C 1434 -627 1254 -403 1082 77 
C 928 506 858 992 858 1632 
C 858 2304 941 2829 1114 3226 
C 1293 3622 1485 3853 1946 4224 
L 1888 4326 
C 1414 4019 1222 3853 986 3558 
C 531 3002 307 2362 307 1613 
C 307 800 544 173 1107 -480 
C 1370 -787 1536 -928 1869 -1133 
L 1946 -1030 
z
" transform="scale(0.015625)"/>
       <path id="TeXGyreTermes-Regular-29" d="M 1824 1581 
C 1824 2400 1587 3021 1024 3674 
C 762 3981 595 4122 262 4326 
L 186 4224 
C 698 3821 870 3597 1050 3117 
C 1203 2688 1274 2202 1274 1562 
C 1274 896 1190 365 1018 -26 
C 838 -429 646 -659 186 -1030 
L 243 -1133 
C 717 -826 909 -659 1146 -365 
C 1600 192 1824 832 1824 1581 
z
" transform="scale(0.015625)"/>
      </defs>
      <use xlink:href="#TeXGyreTermes-Regular-78"/>
      <use xlink:href="#TeXGyreTermes-Regular-28" transform="translate(49.999985 0)"/>
      <use xlink:href="#TeXGyreTermes-Regular-6b" transform="translate(83.299973 0)"/>
      <use xlink:href="#TeXGyreTermes-Regular-29" transform="translate(133.299957 0)"/>
     </g>
    </g>
   </g>
   <g id="line2d_19">
    <path d="M 83.6075 134.948904 
L 83.934832 138.897503 
L 84.262165 128.937638 
L 84.589498 147.317231 
L 84.91683 145.77621 
L 85.244163 124.572464 
L 85.571495 132.116154 
L 85.898827 149.106062 
L 86.22616 134.676963 
L 86.553493 126.872076 
L 86.880825 113.113195 
L 87.208157 117.216212 
L 87.53549 128.038243 
L 88.190155 125.553397 
L 88.517488 114.501634 
L 88.84482 114.905414 
L 89.172152 115.046409 
L 89.499485 108.121754 
L 89.826818 116.576254 
L 90.15415 121.327526 
L 90.481482 114.569949 
L 90.808815 103.788619 
L 91.136148 112.359318 
L 91.790813 87.386261 
L 92.118145 86.336786 
L 92.445477 88.606737 
L 92.77281 77.058927 
L 93.427475 110.485228 
L 93.754807 108.459753 
L 94.08214 95.958139 
L 94.409473 99.462471 
L 94.736805 112.045788 
L 95.064138 111.256588 
L 95.39147 93.552073 
L 95.718802 89.040625 
L 96.046135 100.167401 
L 96.373468 90.039603 
L 96.7008 94.179532 
L 97.028132 120.104988 
L 97.355465 117.536415 
L 97.682798 129.549101 
L 98.664795 99.257508 
L 98.992127 84.382349 
L 99.31946 84.199675 
L 99.646793 84.320381 
L 99.974125 109.052368 
L 100.301457 117.560413 
L 100.62879 106.175328 
L 100.956122 111.43511 
L 101.283455 106.300093 
L 101.610788 120.898017 
L 101.93812 107.412226 
L 102.592785 94.384902 
L 102.920118 96.120318 
L 103.24745 107.821589 
L 103.574782 109.474787 
L 103.902115 114.947156 
L 104.229447 113.800739 
L 104.55678 124.583222 
L 104.884113 114.962459 
L 105.211445 117.036131 
L 105.538777 127.013886 
L 105.86611 124.318158 
L 106.193443 128.119089 
L 106.520775 127.246808 
L 106.848107 136.597859 
L 107.17544 136.808564 
L 107.502772 136.336847 
L 107.830105 131.058717 
L 108.157438 137.402633 
L 108.48477 131.398966 
L 108.812102 136.349432 
L 109.139435 133.899083 
L 109.466768 138.459876 
L 109.7941 139.627212 
L 110.121432 136.744553 
L 110.448765 122.930377 
L 110.776097 118.402067 
L 111.10343 118.802352 
L 111.430763 125.106937 
L 111.758095 122.933645 
L 112.085427 109.6626 
L 112.41276 106.761502 
L 112.740093 121.083052 
L 113.067425 113.00723 
L 113.394757 118.258055 
L 113.72209 117.634267 
L 114.049422 111.509557 
L 114.376755 102.454364 
L 114.704087 81.560105 
L 115.03142 94.457891 
L 115.358752 81.081724 
L 115.686085 89.818304 
L 116.013418 75.576425 
L 116.34075 79.267052 
L 116.668082 52.133121 
L 116.995415 49.273507 
L 117.322747 49.541599 
L 117.65008 66.509359 
L 117.977412 49.954376 
L 118.304745 60.786729 
L 118.632078 62.76837 
L 118.95941 60.40063 
L 119.286743 69.300159 
L 119.614075 72.570349 
L 119.941407 72.35661 
L 120.26874 79.419438 
L 120.596072 99.325956 
L 120.923405 87.18474 
L 121.250737 79.904387 
L 121.57807 83.114383 
L 121.905403 82.785475 
L 122.232735 81.735364 
L 122.560068 64.443651 
L 122.8874 58.948309 
L 123.214732 65.593964 
L 123.542065 77.543759 
L 123.869397 80.163766 
L 124.19673 63.933873 
L 124.524062 57.042046 
L 124.851395 41.662344 
L 125.178728 40.799999 
L 125.50606 61.584664 
L 125.833393 52.182665 
L 126.160725 68.034129 
L 126.488057 69.96739 
L 126.81539 64.939672 
L 127.142722 67.157284 
L 127.470055 80.287547 
L 127.797387 85.020232 
L 128.12472 93.09218 
L 128.452053 87.604441 
L 128.779385 88.959134 
L 129.106718 83.113073 
L 129.43405 80.385587 
L 129.761382 89.598375 
L 130.088715 86.389069 
L 130.416047 65.610449 
L 130.74338 63.559915 
L 131.398045 66.489273 
L 131.725378 91.492688 
L 132.05271 78.5547 
L 132.380043 59.809161 
L 133.034707 88.414766 
L 133.36204 87.640552 
L 133.689372 98.461237 
L 134.016705 103.303393 
L 134.67137 85.605057 
L 134.998703 95.411634 
L 135.326035 92.598142 
L 135.653368 91.655991 
L 135.9807 86.972135 
L 136.308032 79.269579 
L 136.635365 77.206464 
L 136.962697 88.542072 
L 137.29003 82.797699 
L 137.617363 80.549802 
L 137.944695 74.550478 
L 138.272028 75.230939 
L 138.59936 83.859275 
L 139.254025 73.134074 
L 139.90869 53.261563 
L 140.236022 57.251507 
L 140.563355 53.028757 
L 140.890688 51.217437 
L 141.21802 62.697257 
L 141.545353 62.744778 
L 141.872685 36.843864 
L 142.200018 40.161042 
L 142.52735 72.435017 
L 142.854682 68.178224 
L 143.182015 57.139902 
L 143.509347 51.50513 
L 143.83668 59.111791 
L 144.164013 62.589966 
L 144.491345 56.184812 
L 144.818678 64.276503 
L 145.473343 87.061579 
L 145.800675 88.409105 
L 146.128007 75.731122 
L 146.45534 82.690007 
L 146.782672 80.610527 
L 147.110005 61.995278 
L 148.092002 105.308136 
L 148.419335 104.864766 
L 148.746668 108.985979 
L 149.074 109.016908 
L 149.401332 108.128334 
L 149.728665 89.68783 
L 150.055997 104.621414 
L 150.38333 94.374149 
L 150.710663 77.638725 
L 151.037995 75.237336 
L 151.365327 77.807631 
L 151.69266 78.92454 
L 152.019993 77.114377 
L 152.347325 60.17805 
L 152.674657 51.717955 
L 153.329322 83.818073 
L 153.656655 80.43061 
L 153.983988 87.041532 
L 154.31132 82.487533 
L 154.638652 84.081563 
L 154.965985 83.665721 
L 155.293318 87.157638 
L 155.62065 77.839105 
L 155.947982 81.371788 
L 156.275315 92.286158 
L 156.602647 89.111378 
L 156.92998 83.124136 
L 157.257313 85.215649 
L 157.911977 85.841866 
L 158.566643 67.876202 
L 158.893975 69.236111 
L 159.221307 82.762208 
L 159.54864 89.453047 
L 159.875972 74.800759 
L 160.203305 75.113324 
L 160.530638 59.500821 
L 160.85797 75.196022 
L 161.185302 65.940688 
L 161.512635 62.29876 
L 161.839968 57.157502 
L 162.1673 58.478681 
L 162.494632 70.4652 
L 162.821965 70.90676 
L 163.149297 74.910032 
L 163.47663 74.309752 
L 163.803963 76.989278 
L 164.131295 80.647862 
L 164.458627 70.619966 
L 164.78596 73.892137 
L 165.113293 90.235245 
L 165.440625 82.540576 
L 165.767957 78.643058 
L 166.09529 84.932146 
L 166.422622 76.606139 
L 166.749955 80.373442 
L 167.077288 97.006405 
L 167.40462 82.835626 
L 167.731952 83.073831 
L 168.059285 81.455997 
L 168.386617 81.014819 
L 168.71395 77.861569 
L 169.041282 76.97793 
L 169.695947 62.438963 
L 170.02328 61.923293 
L 170.350613 63.366854 
L 171.005277 50.280028 
L 171.33261 41.759565 
L 171.659942 51.624561 
L 171.987275 38.686732 
L 172.314607 47.870823 
L 172.64194 49.541948 
L 172.969272 73.720663 
L 173.296605 82.051086 
L 173.623938 76.888265 
L 173.95127 65.684286 
L 174.278602 64.933451 
L 174.933267 73.573527 
L 175.2606 74.660057 
L 175.587932 86.785885 
L 175.915265 87.154119 
L 176.242597 103.007879 
L 176.56993 86.358346 
L 176.897263 98.238484 
L 177.224595 102.0294 
L 177.551927 91.413196 
L 177.87926 106.859767 
L 178.206592 112.877201 
L 178.533925 90.051693 
L 178.861257 98.674996 
L 179.18859 113.225477 
L 179.515922 102.036811 
L 179.843255 108.309045 
L 180.170588 107.576842 
L 180.49792 126.765885 
L 181.152585 133.457372 
L 181.479917 133.644634 
L 181.80725 134.672254 
L 182.134582 135.197235 
L 182.461915 130.8321 
L 182.789247 131.482445 
L 183.11658 132.764158 
L 183.443913 130.698458 
L 183.771245 130.443867 
L 184.098577 122.487547 
L 184.42591 125.728757 
L 184.753242 136.432278 
L 185.080575 132.089118 
L 185.407907 120.967004 
L 185.73524 119.849565 
L 186.389905 106.595331 
L 186.717238 110.015145 
L 187.04457 100.458731 
L 187.699235 109.527861 
L 188.026567 86.791835 
L 188.681232 96.632256 
L 189.008565 103.947279 
L 189.66323 111.603416 
L 189.990563 112.154262 
L 190.317895 122.42005 
L 190.645227 98.64499 
L 190.97256 102.725928 
L 191.299892 108.261193 
L 191.954557 141.970577 
L 192.28189 124.166336 
L 192.609222 115.937806 
L 192.936555 125.743634 
L 193.263888 115.996105 
L 193.59122 117.26612 
L 193.918552 124.041698 
L 194.245885 123.323278 
L 194.573217 143.610406 
L 194.90055 148.147187 
L 195.227882 181.694772 
L 195.555215 186.518237 
L 195.882547 189.133299 
L 196.537213 163.445625 
L 196.864545 165.534902 
L 197.191877 173.126211 
L 197.51921 159.035983 
L 197.846542 171.536429 
L 198.173875 166.27619 
L 198.501207 158.136681 
L 198.82854 160.910284 
L 199.155872 170.618328 
L 199.483205 159.304644 
L 199.810538 160.944233 
L 200.13787 161.505454 
L 200.465202 148.946854 
L 200.792535 155.464082 
L 201.119867 138.917524 
L 201.4472 142.345543 
L 201.774532 151.190952 
L 202.101865 166.295689 
L 202.429197 167.61742 
L 202.75653 158.423548 
L 203.083863 156.712158 
L 203.411195 163.668241 
L 203.738527 160.53041 
L 204.06586 143.127974 
L 204.393192 148.286205 
L 204.720525 147.643232 
L 205.047857 157.509967 
L 205.37519 172.401068 
L 205.702522 161.171346 
L 206.357188 168.073349 
L 207.011852 160.882213 
L 207.339185 161.541585 
L 207.666517 168.531096 
L 207.99385 162.867536 
L 208.321182 161.747007 
L 208.648515 166.177705 
L 208.975847 157.981684 
L 209.30318 153.973728 
L 209.630513 157.929693 
L 209.957845 155.79965 
L 210.285177 182.284658 
L 210.61251 178.286498 
L 210.939842 161.856084 
L 211.594507 149.552752 
L 211.92184 145.658877 
L 212.249172 145.793994 
L 212.903838 157.965983 
L 213.23117 177.088247 
L 213.558502 173.806658 
L 213.885835 174.276685 
L 214.213167 173.263464 
L 214.867832 152.470967 
L 215.195165 154.925067 
L 215.522497 159.708406 
L 215.84983 174.793074 
L 216.177163 171.116872 
L 217.15916 139.904473 
L 217.486492 150.648482 
L 217.813825 137.018524 
L 218.141157 131.922694 
L 218.46849 140.160713 
L 218.795822 130.636556 
L 219.123155 143.80084 
L 219.77782 131.484514 
L 220.105152 145.293062 
L 220.759817 160.050514 
L 221.08715 159.359663 
L 221.741815 145.842093 
L 222.069147 153.601789 
L 222.39648 151.121155 
L 222.723813 142.409394 
L 223.051145 143.88092 
L 223.378477 149.500255 
L 224.033142 148.305038 
L 224.360475 144.47769 
L 224.687807 165.252071 
L 225.01514 169.556751 
L 225.342472 183.172875 
L 225.669805 168.96909 
L 225.997138 189.939834 
L 226.32447 194.203267 
L 226.651802 170.673569 
L 227.306467 153.960776 
L 227.6338 148.912504 
L 227.961132 140.057085 
L 228.288465 149.321453 
L 228.94313 131.988708 
L 229.270463 159.596295 
L 229.597795 169.979903 
L 229.925127 171.36097 
L 230.25246 159.382112 
L 230.579792 157.260161 
L 230.907125 155.928713 
L 231.56179 178.287599 
L 231.889122 170.821774 
L 232.216455 160.071264 
L 232.543788 160.57373 
L 232.87112 169.162617 
L 233.198452 188.358626 
L 233.525785 196.399517 
L 233.853117 177.078944 
L 234.18045 176.961761 
L 234.507782 175.3946 
L 234.835115 169.485896 
L 235.162447 176.282525 
L 235.48978 176.949035 
L 235.817113 167.278687 
L 236.144445 165.401433 
L 236.471777 162.147865 
L 236.79911 160.700092 
L 237.126442 168.215806 
L 237.453775 143.123417 
L 238.10844 159.194018 
L 238.435772 148.73916 
L 238.763105 149.077856 
L 239.090438 158.813299 
L 239.41777 150.199257 
L 239.745102 152.811257 
L 240.399767 139.122987 
L 240.7271 136.098959 
L 241.054432 148.185878 
L 241.381765 142.06874 
L 241.709097 131.922502 
L 242.03643 141.906884 
L 242.363763 159.48553 
L 242.691095 161.531531 
L 243.018427 149.804791 
L 243.34576 151.617582 
L 243.673092 148.844816 
L 244.000425 151.812549 
L 244.327757 156.543851 
L 244.65509 153.65424 
L 244.982422 154.316542 
L 245.637088 165.012372 
L 245.96442 177.880091 
L 246.291752 185.654763 
L 246.946417 173.366324 
L 247.27375 182.393387 
L 247.601082 182.509958 
L 247.928415 179.192367 
L 248.255747 174.556709 
L 248.58308 164.592242 
L 248.910413 164.705112 
L 249.237745 165.833675 
L 249.565077 181.807259 
L 249.89241 188.681732 
L 250.219742 190.782739 
L 250.547075 188.178821 
L 251.20174 178.788839 
L 251.856405 189.803096 
L 252.183738 182.931684 
L 252.838402 190.734067 
L 253.165735 182.137801 
L 253.493067 199.565764 
L 253.8204 197.733759 
L 254.147732 198.153072 
L 254.475065 187.807342 
L 254.802397 189.217805 
L 255.457063 202.869892 
L 256.111727 191.765 
L 256.766392 207.903921 
L 257.093725 206.436325 
L 257.421057 214.815692 
L 257.74839 212.603367 
L 258.075722 209.248661 
L 258.403055 225.140116 
L 258.730388 222.328839 
L 259.05772 221.02998 
L 259.712385 224.159823 
L 260.039717 228.224837 
L 260.36705 255.321136 
L 260.694382 250.685874 
L 261.021715 250.158532 
L 261.349047 236.415828 
L 261.67638 237.567343 
L 262.003713 231.146174 
L 262.331045 240.147601 
L 262.658377 239.149959 
L 262.98571 235.789989 
L 263.967707 214.026351 
L 264.29504 195.455499 
L 264.622372 201.325859 
L 264.949705 198.942162 
L 265.277038 216.147434 
L 265.60437 214.651244 
L 265.931702 215.370883 
L 266.586367 192.417951 
L 266.9137 204.326081 
L 267.241032 204.732783 
L 267.568365 193.00312 
L 267.895697 187.093032 
L 268.22303 185.391581 
L 268.550363 188.784335 
L 268.877695 208.941413 
L 269.205027 209.99626 
L 269.53236 205.11923 
L 269.859692 194.525326 
L 270.187025 201.168819 
L 270.514357 200.158745 
L 270.84169 204.563172 
L 271.169022 214.535667 
L 271.496355 218.908706 
L 271.823688 209.717716 
L 272.15102 196.911207 
L 272.478352 196.798 
L 272.805685 191.480591 
L 273.133017 206.474933 
L 273.46035 193.987278 
L 273.787682 192.492264 
L 274.115015 193.40314 
L 274.442347 190.710833 
L 274.76968 193.196843 
L 275.097013 201.844761 
L 275.424345 179.37888 
L 275.751677 184.358806 
L 276.406342 201.391666 
L 276.733675 184.072888 
L 277.061007 184.892221 
L 277.38834 182.189172 
L 277.715672 174.318588 
L 278.043005 185.395412 
L 278.370338 183.564874 
L 278.69767 186.098404 
L 279.025002 176.731367 
L 279.352335 183.990343 
L 279.679667 164.257902 
L 280.007 170.205863 
L 280.334332 172.876839 
L 280.661665 180.935487 
L 280.988997 164.217431 
L 281.31633 174.260779 
L 281.643663 168.124107 
L 281.970995 167.066457 
L 282.298327 180.41288 
L 282.62566 185.576235 
L 282.952992 174.071003 
L 283.280325 174.091867 
L 283.93499 181.879059 
L 284.262322 188.014116 
L 284.589655 184.191408 
L 284.916988 187.513692 
L 285.24432 181.945781 
L 285.571652 182.159025 
L 286.226317 161.667424 
L 286.55365 155.279913 
L 286.880982 158.857989 
L 287.208315 160.74433 
L 287.535647 146.181559 
L 287.86298 160.447523 
L 288.190313 151.695315 
L 288.517645 134.473336 
L 288.844977 136.738932 
L 289.17231 119.533879 
L 289.499642 132.162972 
L 289.826975 135.760412 
L 290.154307 141.6888 
L 290.48164 138.992461 
L 290.808972 143.870992 
L 291.136305 141.507955 
L 291.463638 142.90497 
L 291.79097 158.289627 
L 292.118302 157.838533 
L 292.445635 183.251078 
L 293.1003 183.246767 
L 293.427632 184.522131 
L 294.40963 156.215882 
L 294.736963 159.897888 
L 295.064295 151.418202 
L 295.391627 165.803228 
L 296.373625 128.969712 
L 296.700957 135.225244 
L 297.02829 130.93206 
L 297.355622 134.875844 
L 297.682955 150.809687 
L 298.010288 138.475041 
L 298.33762 131.514606 
L 298.664952 136.464193 
L 298.992285 147.696489 
L 299.319617 137.58489 
L 299.64695 148.570894 
L 299.974282 143.497655 
L 300.301615 159.896565 
L 300.628947 169.218058 
L 300.95628 174.874391 
L 301.283613 160.022627 
L 301.610945 157.051387 
L 301.938277 161.088261 
L 302.26561 160.9797 
L 303.247607 121.665647 
L 303.57494 122.370514 
L 303.902272 124.650548 
L 304.229605 129.003166 
L 304.556938 135.444657 
L 304.88427 134.275386 
L 305.211602 155.071095 
L 305.538935 158.617641 
L 305.866267 165.425352 
L 306.520932 139.449792 
L 306.848265 149.643622 
L 307.175597 148.828016 
L 307.50293 138.509511 
L 307.830263 123.309522 
L 308.157595 125.723856 
L 308.484927 136.172075 
L 308.81226 129.060152 
L 309.139592 139.526198 
L 309.466925 126.046271 
L 309.794257 126.175965 
L 310.12159 108.260081 
L 310.448922 124.27579 
L 310.776255 131.611705 
L 311.43092 151.360141 
L 311.758252 150.326543 
L 312.085585 151.597507 
L 313.067582 176.702603 
L 313.722247 155.540666 
L 314.04958 163.064358 
L 314.376913 160.945058 
L 314.704245 160.484825 
L 315.031577 159.229573 
L 315.35891 162.972533 
L 316.013575 142.963997 
L 316.340907 143.87935 
L 316.66824 151.863032 
L 316.995572 152.205717 
L 317.650238 170.509779 
L 317.97757 178.097984 
L 318.304902 163.864233 
L 318.632235 168.50567 
L 318.959567 179.817644 
L 319.614232 171.471117 
L 319.941565 164.405193 
L 320.268897 164.476078 
L 320.59623 168.498071 
L 320.923563 174.11738 
L 321.250895 175.872826 
L 321.578227 171.937832 
L 322.887557 145.809966 
L 323.21489 146.114647 
L 323.542222 142.250605 
L 323.869555 150.600316 
L 324.196888 150.7187 
L 324.52422 148.585771 
L 324.851552 150.103762 
L 325.178885 152.929798 
L 325.83355 162.263417 
L 326.160882 151.523803 
L 326.488215 149.197016 
L 326.815547 142.775143 
L 327.14288 159.193047 
L 327.470213 157.315055 
L 328.124877 140.778966 
L 328.779542 163.879844 
L 329.106875 178.079337 
L 329.434207 176.145213 
L 329.76154 167.24491 
L 330.088872 168.669875 
L 330.416205 182.408187 
L 330.743538 166.668583 
L 331.07087 165.802016 
L 331.398202 182.114852 
L 331.725535 174.282132 
L 332.052867 183.546295 
L 332.3802 181.793712 
L 332.707532 175.140388 
L 333.034865 184.657103 
L 333.362197 163.267658 
L 333.68953 155.143172 
L 334.344195 171.328987 
L 334.671527 175.616445 
L 335.653525 198.821332 
L 335.980857 202.418014 
L 336.635522 175.948056 
L 336.962855 182.956926 
L 337.61752 177.302755 
L 337.944852 153.30595 
L 338.272185 149.622727 
L 338.599517 155.599377 
L 338.92685 155.472823 
L 339.254182 151.664627 
L 339.581515 163.141037 
L 339.908847 152.270921 
L 340.23618 133.751017 
L 340.563513 137.311092 
L 340.890845 152.749021 
L 341.54551 134.754144 
L 341.872842 132.881321 
L 342.200175 152.320705 
L 342.527508 164.015674 
L 342.85484 184.649711 
L 343.182172 187.106445 
L 343.509505 178.628158 
L 343.836838 174.876692 
L 344.16417 162.209096 
L 344.491502 175.834588 
L 345.146167 159.253031 
L 345.800833 168.230257 
L 346.128165 163.786763 
L 346.455497 163.948628 
L 346.78283 168.692327 
L 347.110163 168.723286 
L 347.437495 172.303335 
L 347.764827 170.885306 
L 348.09216 166.608134 
L 348.419492 155.415521 
L 348.746825 163.359247 
L 349.074158 161.649617 
L 349.40149 163.83679 
L 349.728822 168.366884 
L 350.056155 171.307587 
L 350.383488 172.390261 
L 350.71082 167.585824 
L 351.038152 166.980166 
L 351.365485 151.617123 
L 351.692817 159.491132 
L 352.02015 163.012177 
L 352.674815 143.812253 
L 353.002147 156.709131 
L 353.32948 163.441377 
L 353.656813 152.883938 
L 353.984145 162.951635 
L 354.311477 159.648958 
L 354.63881 161.035644 
L 354.966142 150.691173 
L 355.293475 134.743715 
L 355.94814 116.585836 
L 356.275472 118.985116 
L 356.602805 112.273847 
L 356.930138 109.515273 
L 357.25747 126.471516 
L 357.584802 130.989435 
L 358.239467 159.400517 
L 358.5668 159.626502 
L 358.894133 154.100079 
L 359.221465 162.433916 
L 359.548797 157.205847 
L 359.87613 140.414428 
L 360.203463 140.387313 
L 360.858127 130.939778 
L 361.18546 139.370525 
L 361.512792 138.061517 
L 361.840125 124.121982 
L 362.167458 137.721922 
L 362.822122 121.080495 
L 363.149455 111.323726 
L 363.476788 117.558809 
L 363.80412 133.462812 
L 364.131452 133.212963 
L 364.458785 146.77837 
L 364.786117 138.300732 
L 365.11345 142.803381 
L 365.440783 145.306449 
L 365.768115 151.649785 
L 366.095447 129.290141 
L 366.42278 124.737152 
L 366.750113 113.412988 
L 367.077445 123.476998 
L 367.404777 126.753271 
L 367.73211 116.6447 
L 368.059442 118.934155 
L 368.386775 116.715696 
L 368.714108 136.250288 
L 369.04144 148.481222 
L 369.368772 150.861781 
L 369.696105 156.31963 
L 370.023438 158.463425 
L 370.35077 176.425254 
L 370.678102 160.152941 
L 371.005435 160.920946 
L 371.332767 164.757346 
L 371.6601 161.188908 
L 371.987433 155.405938 
L 372.314765 143.073091 
L 372.96943 150.151154 
L 373.296762 159.178641 
L 373.624095 157.303597 
L 374.27876 175.551811 
L 374.606092 168.626281 
L 374.933425 167.744913 
L 375.260758 153.56929 
L 375.58809 156.470265 
L 375.915422 163.015165 
L 376.242755 150.440689 
L 376.570087 153.020592 
L 376.89742 163.650438 
L 377.224752 159.78002 
L 377.552085 151.335095 
L 377.879417 158.478161 
L 378.20675 152.059224 
L 378.534083 148.411262 
L 378.861415 151.723902 
L 379.188747 152.193617 
L 379.51608 158.322556 
L 380.170745 148.377939 
L 380.82541 124.347747 
L 381.480075 142.792253 
L 381.807408 140.406564 
L 382.462072 167.04796 
L 383.116737 143.775084 
L 383.44407 130.045752 
L 383.771402 136.748213 
L 384.098735 135.806704 
L 384.426067 108.483916 
L 385.080733 121.344548 
L 385.408065 136.185206 
L 385.735397 135.271905 
L 386.06273 157.573588 
L 386.390062 141.162919 
L 386.717395 156.189189 
L 387.37206 116.023387 
L 387.699392 139.362209 
L 388.026725 123.836567 
L 388.354058 129.580659 
L 388.68139 129.963547 
L 389.008722 123.872379 
L 389.336055 112.951593 
L 389.663387 114.973684 
L 389.99072 132.460065 
L 390.318052 121.368616 
L 390.645385 137.287472 
L 390.972717 141.509851 
L 391.30005 143.728203 
L 391.627383 146.964395 
L 391.954715 154.205925 
L 392.282047 157.630509 
L 393.264045 141.339241 
L 393.591377 153.577047 
L 393.91871 141.356809 
L 394.246042 142.480037 
L 394.573375 145.734995 
L 394.900708 141.255499 
L 395.22804 146.205217 
L 395.555372 167.825336 
L 395.882705 171.285136 
L 396.210037 170.355961 
L 397.519367 139.170804 
L 397.8467 147.559295 
L 398.501365 120.966627 
L 398.828697 119.094488 
L 399.810695 104.106107 
L 400.138027 112.614229 
L 400.46536 129.804104 
L 401.120025 100.615139 
L 401.447358 101.978341 
L 401.77469 120.717566 
L 402.102022 114.676002 
L 402.429355 118.760173 
L 402.756687 115.737793 
L 403.08402 109.671919 
L 403.411352 112.399906 
L 404.066017 141.06634 
L 404.39335 130.712442 
L 404.720683 135.730717 
L 405.048015 144.759614 
L 405.375347 134.093556 
L 405.70268 137.229797 
L 406.030012 159.975571 
L 406.357345 164.754907 
L 406.684677 171.770272 
L 407.339342 162.375239 
L 407.666675 152.558318 
L 407.994008 147.802743 
L 408.32134 139.493139 
L 408.648672 124.642562 
L 408.976005 122.794422 
L 409.303337 127.865118 
L 409.63067 145.031158 
L 409.958002 135.173495 
L 410.285335 138.170848 
L 410.612667 133.377272 
L 410.612667 133.377272 
" clip-path="url(#pa10603e070)" style="fill: none; stroke: #1f77b4; stroke-width: 1.5; stroke-linecap: square"/>
   </g>
   <g id="patch_3">
    <path d="M 83.6075 266.245 
L 83.6075 25.92 
" style="fill: none; stroke: #000000; stroke-width: 0.8; stroke-linejoin: miter; stroke-linecap: square"/>
   </g>
   <g id="patch_4">
    <path d="M 410.94 266.245 
L 410.94 25.92 
" style="fill: none; stroke: #000000; stroke-width: 0.8; stroke-linejoin: miter; stroke-linecap: square"/>
   </g>
   <g id="patch_5">
    <path d="M 83.6075 266.245 
L 410.94 266.245 
" style="fill: none; stroke: #000000; stroke-width: 0.8; stroke-linejoin: miter; stroke-linecap: square"/>
   </g>
   <g id="patch_6">
    <path d="M 83.6075 25.92 
L 410.94 25.92 
" style="fill: none; stroke: #000000; stroke-width: 0.8; stroke-linejoin: miter; stroke-linecap: square"/>
   </g>
  </g>
 </g>
 <defs>
  <clipPath id="pa10603e070">
   <rect x="83.6075" y="25.92" width="327.3325" height="240.325"/>
  </clipPath>
 </defs>
</svg>
