<?xml version="1.0" encoding="utf-8" standalone="no"?>
<!DOCTYPE svg PUBLIC "-//W3C//DTD SVG 1.1//EN"
  "http://www.w3.org/Graphics/SVG/1.1/DTD/svg11.dtd">
<svg xmlns:xlink="http://www.w3.org/1999/xlink" width="460.8pt" height="345.6pt" viewBox="0 0 460.8 345.6" xmlns="http://www.w3.org/2000/svg" version="1.1">
 <metadata>
  <rdf:RDF xmlns:dc="http://purl.org/dc/elements/1.1/" xmlns:cc="http://creativecommons.org/ns#" xmlns:rdf="http://www.w3.org/1999/02/22-rdf-syntax-ns#">
   <cc:Work>
    <dc:type rdf:resource="http://purl.org/dc/dcmitype/StillImage"/>
    <dc:date>2026-01-28T11:02:03.184129</dc:date>
    <dc:format>image/svg+xml</dc:format>
    <dc:creator>
     <cc:Agent>
      <dc:title>Matplotlib v3.10.8, https://matplotlib.org/</dc:title>
     </cc:Agent>
    </dc:creator>
   </cc:Work>
  </rdf:RDF>
 </metadata>
 <defs>
  <style type="text/css">*{stroke-linejoin: round; stroke-linecap: butt}</style>
 </defs>
 <g id="figure_1">
  <g id="patch_1">
   <path d="M 0 345.6 
L 460.8 345.6 
L 460.8 0 
L 0 0 
z
" style="fill: #ffffff"/>
  </g>
  <g id="axes_1">
   <g id="patch_2">
    <path d="M 83.6075 266.245 
L 410.94 266.245 
L 410.94 25.92 
L 83.6075 25.92 
z
" style="fill: #ffffff"/>
   </g>
   <g id="matplotlib.axis_1">
    <g id="xtick_1">
     <g id="line2d_1">
      <path d="M 83.6075 266.245 
L 83.6075 25.92 
" clip-path="url(#p21938ce44e)" style="fill: none; stroke: #b0b0b0; stroke-width: 0.8; stroke-linecap: square"/>
     </g>
     <g id="line2d_2">
      <defs>
       <path id="mca8bc7b98d" d="M 0 0 
L 0 3.5 
" style="stroke: #000000; stroke-width: 0.8"/>
      </defs>
      <g>
       <use xlink:href="#mca8bc7b98d" x="83.6075" y="266.245" style="stroke: #000000; stroke-width: 0.8"/>
      </g>
     </g>
     <g id="text_1">
      <!-- 0 -->
      <g transform="translate(77.6075 289.63625) scale(0.24 -0.24)">
       <defs>
        <path id="TeXGyreTermes-Regular-30" d="M 3046 2112 
C 3046 3424 2464 4326 1626 4326 
C 1274 4326 1005 4218 768 3994 
C 397 3635 154 2899 154 2150 
C 154 1453 365 704 666 346 
C 902 64 1229 -90 1600 -90 
C 1926 -90 2202 19 2432 243 
C 2803 595 3046 1338 3046 2112 
z
M 2432 2099 
C 2432 762 2150 77 1600 77 
C 1050 77 768 762 768 2093 
C 768 3450 1056 4160 1606 4160 
C 2144 4160 2432 3437 2432 2099 
z
" transform="scale(0.015625)"/>
       </defs>
       <use xlink:href="#TeXGyreTermes-Regular-30"/>
      </g>
     </g>
    </g>
    <g id="xtick_2">
     <g id="line2d_3">
      <path d="M 165.440625 266.245 
L 165.440625 25.92 
" clip-path="url(#p21938ce44e)" style="fill: none; stroke: #b0b0b0; stroke-width: 0.8; stroke-linecap: square"/>
     </g>
     <g id="line2d_4">
      <g>
       <use xlink:href="#mca8bc7b98d" x="165.440625" y="266.245" style="stroke: #000000; stroke-width: 0.8"/>
      </g>
     </g>
     <g id="text_2">
      <!-- 250 -->
      <g transform="translate(147.440625 289.63625) scale(0.24 -0.24)">
       <defs>
        <path id="TeXGyreTermes-Regular-32" d="M 3040 877 
L 2957 909 
C 2720 544 2637 486 2349 486 
L 819 486 
L 1894 1613 
C 2464 2208 2714 2694 2714 3194 
C 2714 3834 2195 4326 1530 4326 
C 1178 4326 845 4186 608 3930 
C 403 3712 307 3507 198 3053 
L 333 3021 
C 589 3648 819 3853 1261 3853 
C 1798 3853 2163 3488 2163 2950 
C 2163 2451 1869 1856 1331 1286 
L 192 77 
L 192 0 
L 2688 0 
L 3040 877 
z
" transform="scale(0.015625)"/>
        <path id="TeXGyreTermes-Regular-35" d="M 2803 4358 
L 2746 4403 
C 2650 4269 2586 4237 2451 4237 
L 1114 4237 
L 416 2720 
C 410 2707 410 2688 410 2688 
C 410 2656 435 2637 486 2637 
C 691 2637 947 2592 1210 2509 
C 1946 2272 2285 1875 2285 1242 
C 2285 627 1894 147 1395 147 
C 1267 147 1158 192 966 333 
C 762 480 614 544 480 544 
C 294 544 205 467 205 307 
C 205 64 506 -90 986 -90 
C 1523 -90 1984 83 2304 410 
C 2598 698 2733 1062 2733 1549 
C 2733 2010 2611 2304 2291 2624 
C 2010 2906 1645 3053 890 3187 
L 1158 3731 
L 2413 3731 
C 2515 3731 2541 3744 2560 3789 
L 2803 4358 
z
" transform="scale(0.015625)"/>
       </defs>
       <use xlink:href="#TeXGyreTermes-Regular-32"/>
       <use xlink:href="#TeXGyreTermes-Regular-35" transform="translate(49.999985 0)"/>
       <use xlink:href="#TeXGyreTermes-Regular-30" transform="translate(99.999969 0)"/>
      </g>
     </g>
    </g>
    <g id="xtick_3">
     <g id="line2d_5">
      <path d="M 247.27375 266.245 
L 247.27375 25.92 
" clip-path="url(#p21938ce44e)" style="fill: none; stroke: #b0b0b0; stroke-width: 0.8; stroke-linecap: square"/>
     </g>
     <g id="line2d_6">
      <g>
       <use xlink:href="#mca8bc7b98d" x="247.27375" y="266.245" style="stroke: #000000; stroke-width: 0.8"/>
      </g>
     </g>
     <g id="text_3">
      <!-- 500 -->
      <g transform="translate(229.27375 289.63625) scale(0.24 -0.24)">
       <use xlink:href="#TeXGyreTermes-Regular-35"/>
       <use xlink:href="#TeXGyreTermes-Regular-30" transform="translate(49.999985 0)"/>
       <use xlink:href="#TeXGyreTermes-Regular-30" transform="translate(99.999969 0)"/>
      </g>
     </g>
    </g>
    <g id="xtick_4">
     <g id="line2d_7">
      <path d="M 329.106875 266.245 
L 329.106875 25.92 
" clip-path="url(#p21938ce44e)" style="fill: none; stroke: #b0b0b0; stroke-width: 0.8; stroke-linecap: square"/>
     </g>
     <g id="line2d_8">
      <g>
       <use xlink:href="#mca8bc7b98d" x="329.106875" y="266.245" style="stroke: #000000; stroke-width: 0.8"/>
      </g>
     </g>
     <g id="text_4">
      <!-- 750 -->
      <g transform="translate(311.106875 289.63625) scale(0.24 -0.24)">
       <defs>
        <path id="TeXGyreTermes-Regular-37" d="M 2874 4134 
L 2874 4237 
L 506 4237 
L 128 3296 
L 237 3245 
C 512 3680 627 3763 979 3763 
L 2368 3763 
L 1101 -51 
L 1517 -51 
L 2874 4134 
z
" transform="scale(0.015625)"/>
       </defs>
       <use xlink:href="#TeXGyreTermes-Regular-37"/>
       <use xlink:href="#TeXGyreTermes-Regular-35" transform="translate(49.999985 0)"/>
       <use xlink:href="#TeXGyreTermes-Regular-30" transform="translate(99.999969 0)"/>
      </g>
     </g>
    </g>
    <g id="xtick_5">
     <g id="line2d_9">
      <path d="M 410.94 266.245 
L 410.94 25.92 
" clip-path="url(#p21938ce44e)" style="fill: none; stroke: #b0b0b0; stroke-width: 0.8; stroke-linecap: square"/>
     </g>
     <g id="line2d_10">
      <g>
       <use xlink:href="#mca8bc7b98d" x="410.94" y="266.245" style="stroke: #000000; stroke-width: 0.8"/>
      </g>
     </g>
     <g id="text_5">
      <!-- 1000 -->
      <g transform="translate(386.94 289.63625) scale(0.24 -0.24)">
       <defs>
        <path id="TeXGyreTermes-Regular-31" d="M 2522 0 
L 2522 96 
C 2016 102 1914 166 1914 474 
L 1914 4314 
L 1862 4326 
L 710 3744 
L 710 3654 
C 787 3686 858 3712 883 3725 
C 998 3770 1107 3795 1171 3795 
C 1306 3795 1363 3699 1363 3494 
L 1363 595 
C 1363 384 1312 237 1210 179 
C 1114 122 1024 102 755 96 
L 755 0 
L 2522 0 
z
" transform="scale(0.015625)"/>
       </defs>
       <use xlink:href="#TeXGyreTermes-Regular-31"/>
       <use xlink:href="#TeXGyreTermes-Regular-30" transform="translate(49.999985 0)"/>
       <use xlink:href="#TeXGyreTermes-Regular-30" transform="translate(99.999969 0)"/>
       <use xlink:href="#TeXGyreTermes-Regular-30" transform="translate(149.999954 0)"/>
      </g>
     </g>
    </g>
    <g id="text_6">
     <!-- Schritt k -->
     <g transform="translate(206.27125 315.23625) scale(0.24 -0.24)">
      <defs>
       <path id="TeXGyreTermes-Regular-53" d="M 3142 1075 
C 3142 1606 2790 2016 1946 2477 
C 1274 2842 1005 3123 1005 3475 
C 1005 3827 1274 4064 1670 4064 
C 1958 4064 2227 3942 2451 3712 
C 2650 3507 2739 3341 2842 2963 
L 3002 2963 
L 2861 4326 
L 2726 4326 
C 2701 4186 2630 4109 2522 4109 
C 2458 4109 2355 4134 2240 4186 
C 2003 4275 1773 4326 1549 4326 
C 1299 4326 1030 4224 826 4058 
C 576 3853 454 3578 454 3226 
C 454 2720 736 2362 1453 1984 
C 1914 1734 2246 1478 2406 1235 
C 2464 1146 2496 1018 2496 858 
C 2496 435 2176 141 1709 141 
C 1133 141 736 493 416 1274 
L 269 1274 
L 461 -83 
L 602 -83 
C 608 38 685 128 781 128 
C 851 128 960 102 1082 58 
C 1325 -38 1581 -90 1837 -90 
C 2579 -90 3142 416 3142 1075 
z
" transform="scale(0.015625)"/>
       <path id="TeXGyreTermes-Regular-63" d="M 2637 941 
L 2547 998 
C 2240 550 2010 397 1645 397 
C 1056 397 653 909 653 1645 
C 653 2310 1005 2758 1523 2758 
C 1754 2758 1837 2688 1901 2451 
L 1939 2310 
C 1990 2125 2106 2016 2246 2016 
C 2413 2016 2547 2138 2547 2285 
C 2547 2643 2099 2944 1562 2944 
C 1261 2944 954 2829 698 2618 
C 352 2330 160 1888 160 1357 
C 160 531 666 -64 1376 -64 
C 1651 -64 1894 26 2112 205 
C 2304 358 2432 544 2637 941 
z
" transform="scale(0.015625)"/>
       <path id="TeXGyreTermes-Regular-68" d="M 3117 0 
L 3117 96 
C 2771 160 2733 211 2733 653 
L 2733 1926 
C 2733 2598 2464 2944 1946 2944 
C 1568 2944 1299 2790 1005 2406 
L 1005 4352 
L 973 4371 
C 755 4294 595 4243 237 4141 
L 64 4090 
L 64 3987 
C 90 3994 109 3994 141 3994 
C 416 3994 467 3942 467 3667 
L 467 653 
C 467 205 429 147 58 96 
L 58 0 
L 1440 0 
L 1440 96 
C 1069 134 1005 211 1005 653 
L 1005 2195 
C 1274 2490 1466 2598 1715 2598 
C 2035 2598 2195 2368 2195 1920 
L 2195 653 
C 2195 218 2131 134 1760 96 
L 1760 0 
L 3117 0 
z
" transform="scale(0.015625)"/>
       <path id="TeXGyreTermes-Regular-72" d="M 2144 2605 
C 2144 2816 2010 2944 1792 2944 
C 1523 2944 1338 2797 1024 2342 
L 1024 2931 
L 992 2944 
C 653 2803 422 2720 45 2598 
L 45 2496 
C 134 2515 192 2522 269 2522 
C 429 2522 486 2419 486 2138 
L 486 538 
C 486 218 442 173 32 96 
L 32 0 
L 1568 0 
L 1568 96 
C 1133 115 1024 211 1024 576 
L 1024 2016 
C 1024 2221 1299 2541 1472 2541 
C 1510 2541 1568 2509 1638 2445 
C 1741 2355 1811 2317 1894 2317 
C 2048 2317 2144 2426 2144 2605 
z
" transform="scale(0.015625)"/>
       <path id="TeXGyreTermes-Regular-69" d="M 1619 0 
L 1619 96 
C 1197 128 1146 192 1146 653 
L 1146 2925 
L 1120 2944 
L 128 2592 
L 128 2496 
L 179 2502 
C 256 2515 339 2522 397 2522 
C 550 2522 608 2419 608 2138 
L 608 653 
C 608 192 544 122 102 96 
L 102 0 
L 1619 0 
z
M 1203 3776 
C 1203 3955 1062 4102 877 4102 
C 698 4102 550 3955 550 3776 
C 550 3590 698 3450 877 3450 
C 1062 3450 1203 3590 1203 3776 
z
" transform="scale(0.015625)"/>
       <path id="TeXGyreTermes-Regular-74" d="M 1786 422 
L 1702 493 
C 1562 326 1459 269 1318 269 
C 1082 269 986 435 986 845 
L 986 2675 
L 1632 2675 
L 1632 2880 
L 986 2880 
L 986 3622 
C 986 3686 973 3706 941 3706 
C 902 3642 858 3584 813 3526 
C 576 3174 358 2938 192 2842 
C 122 2797 83 2758 83 2720 
C 83 2701 90 2688 109 2675 
L 448 2675 
L 448 749 
C 448 211 640 -64 1011 -64 
C 1331 -64 1574 90 1786 422 
z
" transform="scale(0.015625)"/>
       <path id="TeXGyreTermes-Regular-20" transform="scale(0.015625)"/>
       <path id="TeXGyreTermes-Regular-6b" d="M 3232 0 
L 3232 96 
C 2950 115 2752 237 2483 563 
L 1504 1805 
L 1690 1978 
C 2144 2400 2541 2694 2726 2746 
C 2822 2771 2912 2784 3021 2784 
L 3072 2784 
L 3072 2880 
L 1766 2880 
L 1766 2790 
C 2016 2784 2086 2758 2086 2669 
C 2086 2618 2029 2528 1939 2451 
L 1062 1670 
L 1062 4358 
L 1037 4371 
L 237 4141 
L 45 4090 
L 45 3987 
C 128 3994 186 4000 250 4000 
C 461 4000 525 3917 525 3610 
L 525 525 
C 525 192 506 173 45 96 
L 45 0 
L 1542 0 
L 1542 96 
L 1414 102 
C 1158 115 1062 205 1062 429 
L 1062 1606 
L 1958 410 
L 1978 384 
C 1990 365 2003 346 2022 326 
C 2074 262 2093 224 2093 192 
C 2093 134 2035 96 1958 96 
L 1837 96 
L 1837 0 
L 3232 0 
z
" transform="scale(0.015625)"/>
      </defs>
      <use xlink:href="#TeXGyreTermes-Regular-53"/>
      <use xlink:href="#TeXGyreTermes-Regular-63" transform="translate(55.599991 0)"/>
      <use xlink:href="#TeXGyreTermes-Regular-68" transform="translate(99.999985 0)"/>
      <use xlink:href="#TeXGyreTermes-Regular-72" transform="translate(149.999969 0)"/>
      <use xlink:href="#TeXGyreTermes-Regular-69" transform="translate(183.299957 0)"/>
      <use xlink:href="#TeXGyreTermes-Regular-74" transform="translate(211.099945 0)"/>
      <use xlink:href="#TeXGyreTermes-Regular-74" transform="translate(238.899933 0)"/>
      <use xlink:href="#TeXGyreTermes-Regular-20" transform="translate(266.699921 0)"/>
      <use xlink:href="#TeXGyreTermes-Regular-6b" transform="translate(291.699905 0)"/>
     </g>
    </g>
   </g>
   <g id="matplotlib.axis_2">
    <g id="ytick_1">
     <g id="line2d_11">
      <path d="M 83.6075 242.993429 
L 410.94 242.993429 
" clip-path="url(#p21938ce44e)" style="fill: none; stroke: #b0b0b0; stroke-width: 0.8; stroke-linecap: square"/>
     </g>
     <g id="line2d_12">
      <defs>
       <path id="m052e99655a" d="M 0 0 
L -3.5 0 
" style="stroke: #000000; stroke-width: 0.8"/>
      </defs>
      <g>
       <use xlink:href="#m052e99655a" x="83.6075" y="242.993429" style="stroke: #000000; stroke-width: 0.8"/>
      </g>
     </g>
     <g id="text_7">
      <!-- −2 -->
      <g transform="translate(51.07 251.189054) scale(0.24 -0.24)">
       <defs>
        <path id="TeXGyreTermes-Regular-2212" d="M 3354 1389 
L 3354 1811 
L 256 1811 
L 256 1389 
L 3354 1389 
z
" transform="scale(0.015625)"/>
       </defs>
       <use xlink:href="#TeXGyreTermes-Regular-2212"/>
       <use xlink:href="#TeXGyreTermes-Regular-32" transform="translate(56.399994 0)"/>
      </g>
     </g>
    </g>
    <g id="ytick_2">
     <g id="line2d_13">
      <path d="M 83.6075 160.047537 
L 410.94 160.047537 
" clip-path="url(#p21938ce44e)" style="fill: none; stroke: #b0b0b0; stroke-width: 0.8; stroke-linecap: square"/>
     </g>
     <g id="line2d_14">
      <g>
       <use xlink:href="#m052e99655a" x="83.6075" y="160.047537" style="stroke: #000000; stroke-width: 0.8"/>
      </g>
     </g>
     <g id="text_8">
      <!-- 0 -->
      <g transform="translate(64.6075 168.243162) scale(0.24 -0.24)">
       <use xlink:href="#TeXGyreTermes-Regular-30"/>
      </g>
     </g>
    </g>
    <g id="ytick_3">
     <g id="line2d_15">
      <path d="M 83.6075 77.101645 
L 410.94 77.101645 
" clip-path="url(#p21938ce44e)" style="fill: none; stroke: #b0b0b0; stroke-width: 0.8; stroke-linecap: square"/>
     </g>
     <g id="line2d_16">
      <g>
       <use xlink:href="#m052e99655a" x="83.6075" y="77.101645" style="stroke: #000000; stroke-width: 0.8"/>
      </g>
     </g>
     <g id="text_9">
      <!-- 2 -->
      <g transform="translate(64.6075 85.29727) scale(0.24 -0.24)">
       <use xlink:href="#TeXGyreTermes-Regular-32"/>
      </g>
     </g>
    </g>
    <g id="text_10">
     <!-- x(k) -->
     <g transform="translate(41.86125 166.07375) rotate(-90) scale(0.24 -0.24)">
      <defs>
       <path id="TeXGyreTermes-Regular-78" d="M 3066 0 
L 3066 96 
C 2867 96 2739 198 2541 480 
L 1722 1734 
L 2253 2502 
C 2374 2675 2566 2778 2771 2784 
L 2771 2880 
L 1760 2880 
L 1760 2784 
C 1952 2771 2016 2733 2016 2643 
C 2016 2566 1939 2426 1779 2227 
C 1747 2189 1670 2074 1587 1946 
L 1498 2074 
C 1318 2342 1203 2560 1203 2643 
C 1203 2733 1286 2778 1478 2784 
L 1478 2880 
L 154 2880 
L 154 2784 
L 211 2784 
C 403 2784 506 2701 704 2400 
L 1306 1478 
L 576 422 
C 384 160 320 115 109 96 
L 109 0 
L 1037 0 
L 1037 96 
C 858 96 781 128 781 211 
C 781 250 826 346 909 474 
L 1414 1261 
L 1997 365 
C 2022 326 2035 288 2035 250 
C 2035 134 1990 109 1779 96 
L 1779 0 
L 3066 0 
z
" transform="scale(0.015625)"/>
       <path id="TeXGyreTermes-Regular-28" d="M 1946 -1030 
C 1434 -627 1254 -403 1082 77 
C 928 506 858 992 858 1632 
C 858 2304 941 2829 1114 3226 
C 1293 3622 1485 3853 1946 4224 
L 1888 4326 
C 1414 4019 1222 3853 986 3558 
C 531 3002 307 2362 307 1613 
C 307 800 544 173 1107 -480 
C 1370 -787 1536 -928 1869 -1133 
L 1946 -1030 
z
" transform="scale(0.015625)"/>
       <path id="TeXGyreTermes-Regular-29" d="M 1824 1581 
C 1824 2400 1587 3021 1024 3674 
C 762 3981 595 4122 262 4326 
L 186 4224 
C 698 3821 870 3597 1050 3117 
C 1203 2688 1274 2202 1274 1562 
C 1274 896 1190 365 1018 -26 
C 838 -429 646 -659 186 -1030 
L 243 -1133 
C 717 -826 909 -659 1146 -365 
C 1600 192 1824 832 1824 1581 
z
" transform="scale(0.015625)"/>
      </defs>
      <use xlink:href="#TeXGyreTermes-Regular-78"/>
      <use xlink:href="#TeXGyreTermes-Regular-28" transform="translate(49.999985 0)"/>
      <use xlink:href="#TeXGyreTermes-Regular-6b" transform="translate(83.299973 0)"/>
      <use xlink:href="#TeXGyreTermes-Regular-29" transform="translate(133.299957 0)"/>
     </g>
    </g>
   </g>
   <g id="line2d_17">
    <path d="M 83.6075 124.86472 
L 83.934832 119.558406 
L 84.262165 118.352957 
L 84.589498 121.118473 
L 84.91683 129.22899 
L 85.571495 131.707645 
L 85.898827 135.027709 
L 86.880825 129.14012 
L 87.208157 125.725118 
L 87.53549 131.146832 
L 87.862823 133.681222 
L 88.190155 133.531469 
L 88.517488 134.285432 
L 88.84482 138.582367 
L 89.172152 134.080685 
L 89.499485 135.501102 
L 89.826818 133.802555 
L 90.15415 140.111653 
L 90.808815 145.349921 
L 91.136148 143.555598 
L 91.46348 149.979913 
L 92.118145 142.999158 
L 92.445477 141.427792 
L 92.77281 138.897982 
L 93.100143 140.731106 
L 93.427475 141.339946 
L 93.754807 136.203666 
L 94.409473 140.255384 
L 94.736805 144.930734 
L 95.064138 147.337398 
L 95.39147 146.241848 
L 95.718802 141.491013 
L 96.046135 141.334232 
L 96.373468 142.913624 
L 96.7008 150.460439 
L 97.028132 149.397624 
L 97.355465 146.671208 
L 97.682798 149.962738 
L 98.01013 150.06926 
L 98.337463 150.597634 
L 98.664795 151.630574 
L 98.992127 149.505361 
L 99.31946 149.091041 
L 99.646793 150.052511 
L 100.301457 148.207906 
L 100.62879 152.238873 
L 100.956122 150.940544 
L 101.283455 156.474775 
L 101.610788 151.896698 
L 101.93812 152.316128 
L 102.265452 149.531445 
L 102.592785 149.34672 
L 102.920118 151.911562 
L 103.574782 143.726457 
L 103.902115 141.539428 
L 104.229447 143.275518 
L 104.884113 131.74254 
L 105.211445 139.34864 
L 105.538777 142.929837 
L 105.86611 143.584934 
L 106.193443 142.30489 
L 106.520775 141.493415 
L 107.17544 125.201368 
L 107.502772 125.416698 
L 107.830105 127.892989 
L 108.157438 124.98201 
L 108.48477 123.243417 
L 108.812102 131.435544 
L 109.139435 130.267759 
L 109.466768 130.771853 
L 109.7941 128.679149 
L 110.121432 123.070388 
L 110.448765 127.753081 
L 110.776097 125.862673 
L 111.10343 117.335223 
L 111.430763 117.447241 
L 111.758095 116.60847 
L 112.085427 114.556548 
L 112.41276 114.825994 
L 112.740093 118.461883 
L 113.067425 124.047092 
L 113.394757 123.343912 
L 114.049422 129.44913 
L 114.376755 124.34526 
L 114.704087 124.79843 
L 115.358752 117.257418 
L 115.686085 116.450278 
L 116.013418 118.418877 
L 116.34075 113.477836 
L 116.668082 111.111008 
L 116.995415 107.762232 
L 117.322747 101.562424 
L 117.65008 105.841434 
L 117.977412 106.319824 
L 118.304745 108.497144 
L 118.632078 108.969942 
L 118.95941 113.695594 
L 119.286743 114.516607 
L 119.614075 109.160625 
L 119.941407 113.600157 
L 120.596072 132.453942 
L 120.923405 132.486064 
L 121.57807 124.204577 
L 121.905403 124.971173 
L 122.232735 121.389207 
L 122.560068 120.905552 
L 122.8874 119.608164 
L 123.214732 116.242683 
L 123.869397 114.917457 
L 124.19673 113.376042 
L 124.524062 106.357675 
L 124.851395 105.132326 
L 125.178728 105.113568 
L 125.50606 101.531755 
L 125.833393 102.19052 
L 126.160725 104.387329 
L 126.488057 105.720617 
L 126.81539 99.27728 
L 127.142722 97.929214 
L 127.470055 100.582127 
L 127.797387 101.85671 
L 128.12472 110.579285 
L 128.452053 112.403746 
L 128.779385 120.54929 
L 129.106718 116.161875 
L 129.43405 114.160125 
L 129.761382 116.660795 
L 130.088715 116.617334 
L 130.416047 117.894638 
L 131.398045 126.223427 
L 131.725378 122.303953 
L 132.05271 126.410782 
L 132.380043 127.758252 
L 132.707375 126.988981 
L 133.034707 129.121445 
L 133.36204 132.588111 
L 134.344038 122.642152 
L 134.67137 122.684996 
L 134.998703 117.995937 
L 135.653368 111.284413 
L 135.9807 106.85179 
L 136.635365 91.952808 
L 136.962697 88.564042 
L 137.29003 88.629411 
L 137.944695 93.859744 
L 138.272028 92.651532 
L 138.59936 93.123959 
L 138.926693 95.20803 
L 139.581357 92.913337 
L 139.90869 89.763926 
L 140.236022 91.146965 
L 140.563355 89.758529 
L 140.890688 89.646605 
L 141.21802 83.475581 
L 141.545353 85.283961 
L 141.872685 82.710084 
L 142.200018 84.529222 
L 142.52735 78.288645 
L 142.854682 77.964141 
L 143.182015 80.428306 
L 143.509347 78.827653 
L 143.83668 84.634846 
L 144.164013 86.017206 
L 144.491345 85.954502 
L 144.818678 92.599999 
L 145.14601 86.680648 
L 145.473343 96.561794 
L 145.800675 98.68598 
L 146.45534 96.970242 
L 146.782672 97.304743 
L 147.110005 90.631722 
L 147.76467 100.835279 
L 148.092002 96.168569 
L 148.419335 96.135074 
L 148.746668 97.391072 
L 149.074 96.214497 
L 149.401332 88.272854 
L 150.055997 98.304027 
L 150.38333 96.905875 
L 150.710663 94.036028 
L 151.037995 98.372768 
L 151.365327 100.989967 
L 151.69266 97.590115 
L 152.019993 92.945078 
L 152.347325 91.171077 
L 152.674657 91.124882 
L 153.00199 93.870914 
L 153.329322 94.917229 
L 153.656655 95.50287 
L 153.983988 89.436295 
L 154.31132 88.89857 
L 154.638652 94.636575 
L 154.965985 96.14353 
L 155.62065 87.581625 
L 155.947982 86.712117 
L 156.275315 88.248625 
L 156.602647 83.194951 
L 156.92998 85.455562 
L 157.257313 79.865154 
L 157.584645 63.830516 
L 157.911977 59.950368 
L 158.23931 61.484679 
L 158.566643 57.892372 
L 158.893975 56.091546 
L 159.221307 56.154312 
L 159.54864 55.875368 
L 160.530638 65.369353 
L 160.85797 61.941514 
L 161.185302 66.891822 
L 161.512635 74.662112 
L 161.839968 76.28572 
L 162.1673 72.321516 
L 162.821965 76.862226 
L 163.149297 77.76848 
L 163.47663 80.266738 
L 163.803963 80.863299 
L 164.458627 88.280865 
L 164.78596 86.747185 
L 165.113293 91.538938 
L 165.440625 92.615369 
L 165.767957 92.208764 
L 166.09529 86.895153 
L 166.422622 87.176241 
L 166.749955 91.249783 
L 167.077288 89.755302 
L 167.40462 91.128498 
L 167.731952 85.262127 
L 168.059285 82.064088 
L 168.386617 81.717172 
L 168.71395 83.037365 
L 169.041282 83.621409 
L 169.368615 83.561712 
L 169.695947 88.402718 
L 170.02328 86.813426 
L 170.350613 83.173429 
L 170.677945 75.960407 
L 171.005277 75.78794 
L 171.33261 77.25312 
L 171.659942 80.79792 
L 171.987275 72.614182 
L 172.314607 69.533107 
L 172.64194 64.883036 
L 172.969272 62.722732 
L 173.296605 56.074032 
L 173.623938 52.970721 
L 173.95127 54.66218 
L 174.278602 55.560948 
L 174.605935 61.79728 
L 174.933267 58.424894 
L 175.2606 52.186593 
L 175.587932 51.197994 
L 175.915265 53.044873 
L 176.56993 44.862178 
L 176.897263 42.324546 
L 177.224595 41.879757 
L 177.551927 42.604435 
L 177.87926 45.386358 
L 178.206592 50.924044 
L 178.533925 47.295824 
L 179.18859 38.341215 
L 179.515922 40.762045 
L 179.843255 44.390957 
L 180.170588 41.51462 
L 180.49792 46.84089 
L 180.825252 47.450001 
L 181.479917 54.777293 
L 181.80725 60.338637 
L 182.134582 60.168708 
L 182.461915 57.545252 
L 182.789247 53.134105 
L 183.11658 46.046164 
L 183.443913 45.408974 
L 183.771245 49.985183 
L 184.098577 49.658213 
L 184.42591 51.621337 
L 184.753242 48.594828 
L 185.080575 47.832859 
L 185.407907 49.617334 
L 186.062572 61.089662 
L 186.389905 60.939944 
L 186.717238 54.374564 
L 187.04457 52.627713 
L 187.371902 53.185254 
L 187.699235 48.753436 
L 188.026567 50.007442 
L 188.3539 48.144748 
L 189.008565 36.843864 
L 189.335897 36.9276 
L 189.66323 47.610309 
L 189.990563 47.27389 
L 190.317895 49.818908 
L 190.97256 61.101023 
L 191.299892 58.971266 
L 191.627225 58.594407 
L 192.28189 63.78525 
L 192.936555 66.320198 
L 193.263888 65.920026 
L 193.59122 66.206733 
L 193.918552 65.571355 
L 194.245885 67.931229 
L 194.573217 74.097667 
L 194.90055 77.384706 
L 195.555215 69.904003 
L 195.882547 73.915613 
L 196.20988 83.183182 
L 197.191877 99.700828 
L 197.846542 104.028821 
L 198.501207 117.855333 
L 198.82854 118.736242 
L 199.155872 123.3474 
L 199.483205 114.942921 
L 199.810538 111.195429 
L 200.13787 105.319945 
L 200.465202 105.538174 
L 201.119867 115.579184 
L 201.4472 115.879308 
L 201.774532 112.657955 
L 202.101865 112.354397 
L 202.429197 107.002174 
L 202.75653 107.285761 
L 203.083863 104.379694 
L 203.411195 104.590731 
L 203.738527 102.818555 
L 204.06586 102.299863 
L 204.393192 105.043592 
L 204.720525 103.185578 
L 205.37519 109.381401 
L 205.702522 114.55394 
L 206.357188 117.864358 
L 206.68452 115.18693 
L 207.011852 116.47173 
L 207.339185 119.996514 
L 207.666517 111.631668 
L 207.99385 112.474258 
L 208.321182 117.821623 
L 208.648515 118.308106 
L 209.30318 114.06862 
L 209.630513 109.959868 
L 209.957845 110.192155 
L 210.285177 109.734002 
L 210.61251 108.694826 
L 210.939842 105.38152 
L 211.267175 109.09561 
L 211.594507 111.221104 
L 211.92184 110.502354 
L 212.249172 104.650699 
L 212.576505 105.58578 
L 212.903838 110.424137 
L 213.23117 112.408273 
L 213.558502 107.531127 
L 214.213167 93.739083 
L 214.5405 92.73499 
L 214.867832 89.785737 
L 215.195165 83.064638 
L 215.522497 80.478299 
L 215.84983 82.209637 
L 216.177163 88.73742 
L 216.831827 90.8399 
L 217.15916 92.955393 
L 217.486492 93.440544 
L 217.813825 92.772718 
L 218.141157 90.061113 
L 218.795822 107.120707 
L 219.450488 106.960779 
L 219.77782 110.110535 
L 220.105152 108.309469 
L 220.432485 110.370898 
L 221.08715 120.798695 
L 221.414482 118.897762 
L 221.741815 124.244256 
L 222.069147 127.499495 
L 222.39648 126.580513 
L 222.723813 127.979197 
L 223.051145 129.887798 
L 223.70581 143.829588 
L 224.033142 139.96907 
L 224.360475 147.237241 
L 224.687807 144.377893 
L 225.01514 145.53218 
L 226.32447 122.184167 
L 226.651802 125.582121 
L 226.979135 127.636054 
L 227.306467 130.424259 
L 227.6338 127.917219 
L 228.288465 134.092666 
L 228.615797 132.899511 
L 229.270463 126.02736 
L 229.597795 131.26303 
L 229.925127 133.280614 
L 230.25246 133.902821 
L 230.579792 133.718389 
L 231.234457 136.008399 
L 231.56179 132.17582 
L 231.889122 130.313101 
L 232.216455 126.355619 
L 232.543788 126.683458 
L 232.87112 134.496776 
L 233.198452 136.201011 
L 233.525785 133.371964 
L 233.853117 127.953767 
L 234.507782 138.108228 
L 234.835115 142.468533 
L 235.162447 143.876147 
L 235.48978 149.67903 
L 235.817113 146.661883 
L 236.144445 151.884994 
L 236.471777 150.810498 
L 236.79911 148.942551 
L 237.126442 149.727228 
L 237.781107 147.030917 
L 238.10844 147.223535 
L 238.435772 148.415839 
L 238.763105 145.627008 
L 239.090438 145.53196 
L 239.745102 126.002158 
L 240.072435 125.253713 
L 240.399767 127.940343 
L 240.7271 133.521715 
L 241.054432 132.762804 
L 241.381765 134.419643 
L 242.03643 147.657604 
L 242.691095 130.974777 
L 243.018427 132.535822 
L 243.673092 127.878351 
L 244.000425 133.320342 
L 244.65509 138.286714 
L 244.982422 139.839107 
L 245.309755 145.569438 
L 245.637088 153.953697 
L 245.96442 150.389048 
L 246.291752 153.032606 
L 246.619085 151.789386 
L 246.946417 159.002842 
L 247.27375 154.634684 
L 248.255747 167.478567 
L 248.58308 166.67683 
L 248.910413 164.321575 
L 249.237745 155.568445 
L 249.565077 155.723012 
L 249.89241 158.68468 
L 250.219742 165.540626 
L 250.547075 166.692087 
L 251.20174 153.190563 
L 251.529072 161.938205 
L 252.183738 154.031061 
L 252.51107 152.989247 
L 252.838402 144.648714 
L 253.165735 146.722479 
L 253.493067 143.820491 
L 253.8204 142.612631 
L 254.147732 134.287641 
L 254.475065 135.042947 
L 254.802397 133.986561 
L 255.12973 132.063679 
L 255.457063 141.093211 
L 255.784395 141.626992 
L 256.111727 145.239852 
L 256.43906 143.458328 
L 256.766392 142.571799 
L 257.093725 149.532837 
L 257.421057 149.417886 
L 257.74839 150.511806 
L 258.075722 150.336843 
L 258.403055 148.371691 
L 258.730388 155.064434 
L 259.385052 152.515626 
L 259.712385 147.352758 
L 260.039717 148.740479 
L 260.36705 151.61428 
L 260.694382 152.482426 
L 261.349047 144.277503 
L 261.67638 144.386164 
L 262.003713 143.973624 
L 262.331045 144.215642 
L 262.658377 147.320793 
L 262.98571 146.103927 
L 263.313042 145.39006 
L 263.640375 150.59303 
L 263.967707 150.091374 
L 264.29504 150.941979 
L 264.622372 151.327917 
L 264.949705 155.203694 
L 265.277038 157.08946 
L 265.60437 166.475845 
L 265.931702 160.56073 
L 266.586367 154.790356 
L 266.9137 146.760171 
L 267.241032 141.556773 
L 267.568365 144.448026 
L 267.895697 142.221599 
L 268.22303 137.705093 
L 268.550363 138.60128 
L 268.877695 140.277133 
L 269.205027 148.671743 
L 269.53236 153.130263 
L 269.859692 150.829269 
L 270.187025 147.19152 
L 270.514357 150.036586 
L 270.84169 147.124374 
L 271.496355 143.620728 
L 271.823688 147.167101 
L 272.15102 152.369427 
L 272.478352 152.300411 
L 273.133017 150.43112 
L 273.46035 157.101844 
L 273.787682 156.792038 
L 274.115015 158.808375 
L 274.442347 159.227975 
L 274.76968 156.092429 
L 275.097013 158.939118 
L 275.424345 163.2346 
L 275.751677 157.065215 
L 276.07901 153.944701 
L 276.406342 158.38659 
L 276.733675 161.137487 
L 277.061007 160.942893 
L 277.38834 160.977716 
L 277.715672 158.515204 
L 278.043005 163.419659 
L 278.69767 158.14869 
L 279.025002 163.720526 
L 280.007 183.824578 
L 280.661665 177.770614 
L 280.988997 182.079043 
L 281.31633 187.868061 
L 281.643663 196.653348 
L 281.970995 196.741381 
L 282.298327 192.309682 
L 282.62566 197.299298 
L 282.952992 196.703598 
L 283.280325 202.991275 
L 284.262322 193.554394 
L 284.589655 190.117048 
L 284.916988 191.691513 
L 285.24432 190.680623 
L 285.571652 191.053548 
L 286.226317 192.307051 
L 286.55365 190.374116 
L 286.880982 189.711425 
L 287.208315 186.964367 
L 287.535647 188.057189 
L 287.86298 193.839676 
L 288.190313 191.403767 
L 288.517645 189.973417 
L 288.844977 187.903963 
L 289.17231 186.907314 
L 289.499642 190.050305 
L 289.826975 185.049498 
L 290.154307 189.131717 
L 290.48164 194.690853 
L 290.808972 193.02324 
L 291.136305 194.394928 
L 291.463638 194.185406 
L 291.79097 198.395833 
L 292.118302 200.825734 
L 292.445635 201.213155 
L 292.772967 205.883319 
L 293.1003 214.349921 
L 293.427632 211.854359 
L 293.754965 210.870421 
L 294.082297 210.863224 
L 294.40963 200.951174 
L 294.736963 203.296958 
L 295.064295 210.890622 
L 295.391627 215.544035 
L 295.71896 216.87986 
L 296.046292 212.515992 
L 296.373625 204.834097 
L 296.700957 207.820588 
L 297.02829 209.451845 
L 297.355622 206.784105 
L 297.682955 211.5323 
L 298.010288 212.836857 
L 298.33762 215.209065 
L 298.664952 213.28615 
L 298.992285 213.220552 
L 299.64695 217.038764 
L 299.974282 215.994086 
L 300.628947 218.949759 
L 300.95628 219.018978 
L 301.283613 214.185229 
L 301.610945 218.391487 
L 301.938277 216.493033 
L 302.26561 215.90318 
L 302.592942 223.813739 
L 302.920275 216.819945 
L 303.247607 221.339092 
L 303.57494 222.923834 
L 303.902272 216.707557 
L 304.229605 214.165094 
L 304.556938 201.673904 
L 304.88427 201.767556 
L 305.538935 193.135904 
L 305.866267 189.928719 
L 306.520932 194.989059 
L 306.848265 195.380761 
L 307.175597 194.490589 
L 307.50293 192.752262 
L 307.830263 193.845827 
L 308.484927 187.382026 
L 308.81226 189.946586 
L 309.466925 205.661205 
L 309.794257 204.758215 
L 310.448922 210.357976 
L 310.776255 212.591761 
L 311.43092 219.210645 
L 311.758252 219.230801 
L 312.085585 218.287261 
L 312.412917 220.187651 
L 312.74025 213.179069 
L 313.067582 210.033404 
L 313.394915 209.45918 
L 313.722247 207.536817 
L 314.04958 211.148064 
L 314.376913 213.185948 
L 314.704245 209.150647 
L 315.031577 212.974486 
L 315.35891 207.297688 
L 315.686242 205.369005 
L 316.013575 208.40705 
L 316.340907 201.686103 
L 316.66824 197.872975 
L 317.322905 203.585035 
L 317.650238 204.351576 
L 318.304902 211.621811 
L 318.632235 210.50627 
L 318.959567 210.223538 
L 319.614232 206.904943 
L 319.941565 215.683074 
L 320.268897 212.27614 
L 320.59623 215.502822 
L 320.923563 226.864564 
L 321.578227 231.786404 
L 322.232892 232.186875 
L 322.560225 227.293936 
L 322.887557 224.455328 
L 323.21489 227.915554 
L 323.542222 224.302051 
L 324.196888 237.793812 
L 324.851552 227.089938 
L 325.178885 230.030071 
L 325.506217 227.780106 
L 325.83355 220.971919 
L 326.160882 223.112797 
L 326.488215 223.432428 
L 326.815547 225.723946 
L 327.14288 216.871529 
L 327.797545 212.925569 
L 328.45221 201.28389 
L 328.779542 200.307852 
L 329.106875 195.917332 
L 329.434207 198.2751 
L 329.76154 201.647195 
L 330.088872 203.733888 
L 330.416205 208.250637 
L 330.743538 210.864594 
L 331.07087 210.496305 
L 331.398202 211.843771 
L 331.725535 211.355083 
L 332.052867 218.523071 
L 332.3802 206.424011 
L 332.707532 207.175618 
L 333.034865 210.283992 
L 333.362197 218.141366 
L 333.68953 220.014959 
L 334.016863 219.061775 
L 334.99886 230.816332 
L 335.653525 236.010956 
L 335.980857 229.611972 
L 336.635522 223.629725 
L 336.962855 228.510405 
L 337.290188 226.670589 
L 337.61752 218.968915 
L 337.944852 219.292037 
L 338.272185 220.507886 
L 338.599517 230.017758 
L 338.92685 228.986259 
L 339.254182 226.586331 
L 339.581515 226.672899 
L 339.908847 234.046217 
L 340.23618 234.945354 
L 340.563513 234.548551 
L 340.890845 239.911799 
L 341.218177 238.907153 
L 341.54551 237.090346 
L 341.872842 243.30126 
L 342.200175 244.112089 
L 342.85484 254.965066 
L 343.182172 254.939654 
L 343.509505 255.321136 
L 343.836838 254.083675 
L 344.16417 246.30122 
L 344.491502 248.311938 
L 344.818835 243.792664 
L 345.146167 237.353918 
L 345.4735 238.062012 
L 345.800833 236.783318 
L 346.128165 234.312394 
L 346.455497 233.953657 
L 346.78283 234.48827 
L 347.110163 234.430577 
L 347.437495 231.494337 
L 348.09216 235.250801 
L 348.419492 238.430538 
L 348.746825 243.662704 
L 349.074158 243.413793 
L 349.728822 238.983837 
L 350.056155 239.107619 
L 350.383488 236.489984 
L 350.71082 238.434114 
L 351.038152 238.731363 
L 351.365485 240.182796 
L 351.692817 240.19304 
L 352.02015 237.212051 
L 352.347483 236.34305 
L 352.674815 234.279396 
L 353.002147 238.85219 
L 353.32948 238.216173 
L 353.984145 240.957375 
L 354.311477 243.865854 
L 354.63881 241.520957 
L 355.620808 224.369598 
L 355.94814 234.430758 
L 356.275472 238.794457 
L 356.602805 236.578969 
L 357.25747 229.2276 
L 357.912135 215.593389 
L 358.239467 223.11953 
L 358.5668 222.010302 
L 358.894133 222.096209 
L 359.221465 223.091865 
L 359.548797 217.703912 
L 359.87613 216.411133 
L 360.203463 220.556442 
L 360.530795 229.957261 
L 360.858127 229.768234 
L 361.18546 233.508548 
L 361.512792 235.84397 
L 361.840125 234.909323 
L 362.822122 222.701013 
L 363.149455 222.831912 
L 363.476788 221.010871 
L 363.80412 217.966404 
L 364.786117 214.775845 
L 365.11345 209.629895 
L 365.440783 206.257729 
L 365.768115 199.226182 
L 366.095447 194.863354 
L 366.42278 192.39895 
L 366.750113 193.789348 
L 367.077445 198.099778 
L 367.404777 197.424888 
L 367.73211 203.952315 
L 368.059442 202.82371 
L 368.386775 200.745421 
L 368.714108 199.893259 
L 369.04144 204.26313 
L 370.023438 191.669109 
L 370.35077 193.566604 
L 370.678102 187.315967 
L 371.005435 183.360022 
L 371.332767 176.57972 
L 371.6601 175.136624 
L 371.987433 176.084282 
L 372.314765 173.901782 
L 372.642097 176.661063 
L 372.96943 170.554488 
L 373.624095 165.028844 
L 373.951427 167.589969 
L 374.27876 169.20987 
L 374.606092 172.93143 
L 374.933425 175.126173 
L 375.260758 182.294903 
L 375.58809 179.793403 
L 375.915422 181.710168 
L 376.242755 187.81902 
L 376.570087 187.382761 
L 376.89742 189.1405 
L 377.224752 187.133244 
L 377.552085 184.178585 
L 378.20675 173.913988 
L 378.534083 173.551952 
L 378.861415 175.845443 
L 379.188747 179.490309 
L 379.51608 184.593906 
L 379.843412 181.818889 
L 380.170745 177.223934 
L 380.498077 179.212782 
L 380.82541 175.69682 
L 381.152742 168.340219 
L 381.480075 172.620906 
L 381.807408 170.124233 
L 382.789405 159.651952 
L 383.116737 152.020432 
L 383.44407 157.74782 
L 383.771402 154.055955 
L 384.098735 146.905529 
L 384.426067 147.507665 
L 384.7534 145.972485 
L 385.080733 150.164066 
L 385.408065 144.911824 
L 385.735397 142.994164 
L 386.06273 142.784472 
L 386.390062 144.765892 
L 386.717395 141.745386 
L 387.044727 147.749111 
L 387.37206 149.684727 
L 387.699392 156.003371 
L 388.354058 164.997732 
L 389.008722 156.08309 
L 389.336055 149.659419 
L 389.663387 154.186023 
L 391.30005 141.995217 
L 391.627383 136.902425 
L 392.60938 152.275954 
L 392.936712 147.953673 
L 393.264045 156.721655 
L 393.591377 156.884567 
L 393.91871 158.277289 
L 394.246042 152.325047 
L 394.573375 150.853691 
L 394.900708 151.176492 
L 395.22804 148.726458 
L 395.555372 148.072978 
L 395.882705 147.123838 
L 396.210037 142.917032 
L 396.53737 141.567603 
L 397.192035 136.812577 
L 397.519367 139.139652 
L 397.8467 138.551014 
L 398.174033 137.333424 
L 398.501365 139.204685 
L 398.828697 138.838045 
L 399.15603 140.014466 
L 399.483362 146.831035 
L 399.810695 147.456904 
L 400.138027 141.215453 
L 400.46536 142.534393 
L 400.792692 141.698847 
L 401.120025 142.559262 
L 401.447358 141.14862 
L 401.77469 136.744155 
L 402.102022 134.086471 
L 402.429355 139.567774 
L 402.756687 141.324398 
L 403.08402 140.17622 
L 403.411352 137.868945 
L 403.738685 128.642023 
L 404.066017 124.255717 
L 404.39335 125.474191 
L 404.720683 125.146889 
L 405.048015 123.126203 
L 405.375347 120.003847 
L 405.70268 129.468704 
L 406.030012 132.135289 
L 406.357345 136.977972 
L 406.684677 138.755139 
L 407.01201 133.745745 
L 407.666675 142.768043 
L 407.994008 140.41096 
L 408.648672 121.124309 
L 409.303337 132.404816 
L 409.63067 127.667121 
L 409.958002 126.044051 
L 410.285335 122.508047 
L 410.612667 124.418814 
L 410.612667 124.418814 
" clip-path="url(#p21938ce44e)" style="fill: none; stroke: #1f77b4; stroke-width: 1.5; stroke-linecap: square"/>
   </g>
   <g id="patch_3">
    <path d="M 83.6075 266.245 
L 83.6075 25.92 
" style="fill: none; stroke: #000000; stroke-width: 0.8; stroke-linejoin: miter; stroke-linecap: square"/>
   </g>
   <g id="patch_4">
    <path d="M 410.94 266.245 
L 410.94 25.92 
" style="fill: none; stroke: #000000; stroke-width: 0.8; stroke-linejoin: miter; stroke-linecap: square"/>
   </g>
   <g id="patch_5">
    <path d="M 83.6075 266.245 
L 410.94 266.245 
" style="fill: none; stroke: #000000; stroke-width: 0.8; stroke-linejoin: miter; stroke-linecap: square"/>
   </g>
   <g id="patch_6">
    <path d="M 83.6075 25.92 
L 410.94 25.92 
" style="fill: none; stroke: #000000; stroke-width: 0.8; stroke-linejoin: miter; stroke-linecap: square"/>
   </g>
  </g>
 </g>
 <defs>
  <clipPath id="p21938ce44e">
   <rect x="83.6075" y="25.92" width="327.3325" height="240.325"/>
  </clipPath>
 </defs>
</svg>
