<?xml version="1.0" encoding="utf-8" standalone="no"?>
<!DOCTYPE svg PUBLIC "-//W3C//DTD SVG 1.1//EN"
  "http://www.w3.org/Graphics/SVG/1.1/DTD/svg11.dtd">
<svg xmlns:xlink="http://www.w3.org/1999/xlink" width="460.8pt" height="345.6pt" viewBox="0 0 460.8 345.6" xmlns="http://www.w3.org/2000/svg" version="1.1">
 <metadata>
  <rdf:RDF xmlns:dc="http://purl.org/dc/elements/1.1/" xmlns:cc="http://creativecommons.org/ns#" xmlns:rdf="http://www.w3.org/1999/02/22-rdf-syntax-ns#">
   <cc:Work>
    <dc:type rdf:resource="http://purl.org/dc/dcmitype/StillImage"/>
    <dc:date>2025-12-15T12:37:05.593545</dc:date>
    <dc:format>image/svg+xml</dc:format>
    <dc:creator>
     <cc:Agent>
      <dc:title>Matplotlib v3.10.6, https://matplotlib.org/</dc:title>
     </cc:Agent>
    </dc:creator>
   </cc:Work>
  </rdf:RDF>
 </metadata>
 <defs>
  <style type="text/css">*{stroke-linejoin: round; stroke-linecap: butt}</style>
 </defs>
 <g id="figure_1">
  <g id="patch_1">
   <path d="M 0 345.6 
L 460.8 345.6 
L 460.8 0 
L 0 0 
z
" style="fill: #ffffff"/>
  </g>
  <g id="axes_1">
   <g id="patch_2">
    <path d="M 83.6075 266.245 
L 410.94 266.245 
L 410.94 25.92 
L 83.6075 25.92 
z
" style="fill: #ffffff"/>
   </g>
   <g id="matplotlib.axis_1">
    <g id="xtick_1">
     <g id="line2d_1">
      <path d="M 83.6075 266.245 
L 83.6075 25.92 
" clip-path="url(#pf6a7447617)" style="fill: none; stroke: #b0b0b0; stroke-width: 0.8; stroke-linecap: square"/>
     </g>
     <g id="line2d_2">
      <defs>
       <path id="m543e2fb7ba" d="M 0 0 
L 0 3.5 
" style="stroke: #000000; stroke-width: 0.8"/>
      </defs>
      <g>
       <use xlink:href="#m543e2fb7ba" x="83.6075" y="266.245" style="stroke: #000000; stroke-width: 0.8"/>
      </g>
     </g>
     <g id="text_1">
      <!-- 0 -->
      <g transform="translate(77.6075 289.63625) scale(0.24 -0.24)">
       <defs>
        <path id="TeXGyreTermes-Regular-30" d="M 3046 2112 
C 3046 3424 2464 4326 1626 4326 
C 1274 4326 1005 4218 768 3994 
C 397 3635 154 2899 154 2150 
C 154 1453 365 704 666 346 
C 902 64 1229 -90 1600 -90 
C 1926 -90 2202 19 2432 243 
C 2803 595 3046 1338 3046 2112 
z
M 2432 2099 
C 2432 762 2150 77 1600 77 
C 1050 77 768 762 768 2093 
C 768 3450 1056 4160 1606 4160 
C 2144 4160 2432 3437 2432 2099 
z
" transform="scale(0.015625)"/>
       </defs>
       <use xlink:href="#TeXGyreTermes-Regular-30"/>
      </g>
     </g>
    </g>
    <g id="xtick_2">
     <g id="line2d_3">
      <path d="M 165.440625 266.245 
L 165.440625 25.92 
" clip-path="url(#pf6a7447617)" style="fill: none; stroke: #b0b0b0; stroke-width: 0.8; stroke-linecap: square"/>
     </g>
     <g id="line2d_4">
      <g>
       <use xlink:href="#m543e2fb7ba" x="165.440625" y="266.245" style="stroke: #000000; stroke-width: 0.8"/>
      </g>
     </g>
     <g id="text_2">
      <!-- 250 -->
      <g transform="translate(147.440625 289.63625) scale(0.24 -0.24)">
       <defs>
        <path id="TeXGyreTermes-Regular-32" d="M 3040 877 
L 2957 909 
C 2720 544 2637 486 2349 486 
L 819 486 
L 1894 1613 
C 2464 2208 2714 2694 2714 3194 
C 2714 3834 2195 4326 1530 4326 
C 1178 4326 845 4186 608 3930 
C 403 3712 307 3507 198 3053 
L 333 3021 
C 589 3648 819 3853 1261 3853 
C 1798 3853 2163 3488 2163 2950 
C 2163 2451 1869 1856 1331 1286 
L 192 77 
L 192 0 
L 2688 0 
L 3040 877 
z
" transform="scale(0.015625)"/>
        <path id="TeXGyreTermes-Regular-35" d="M 2803 4358 
L 2746 4403 
C 2650 4269 2586 4237 2451 4237 
L 1114 4237 
L 416 2720 
C 410 2707 410 2688 410 2688 
C 410 2656 435 2637 486 2637 
C 691 2637 947 2592 1210 2509 
C 1946 2272 2285 1875 2285 1242 
C 2285 627 1894 147 1395 147 
C 1267 147 1158 192 966 333 
C 762 480 614 544 480 544 
C 294 544 205 467 205 307 
C 205 64 506 -90 986 -90 
C 1523 -90 1984 83 2304 410 
C 2598 698 2733 1062 2733 1549 
C 2733 2010 2611 2304 2291 2624 
C 2010 2906 1645 3053 890 3187 
L 1158 3731 
L 2413 3731 
C 2515 3731 2541 3744 2560 3789 
L 2803 4358 
z
" transform="scale(0.015625)"/>
       </defs>
       <use xlink:href="#TeXGyreTermes-Regular-32"/>
       <use xlink:href="#TeXGyreTermes-Regular-35" transform="translate(49.999985 0)"/>
       <use xlink:href="#TeXGyreTermes-Regular-30" transform="translate(99.999969 0)"/>
      </g>
     </g>
    </g>
    <g id="xtick_3">
     <g id="line2d_5">
      <path d="M 247.27375 266.245 
L 247.27375 25.92 
" clip-path="url(#pf6a7447617)" style="fill: none; stroke: #b0b0b0; stroke-width: 0.8; stroke-linecap: square"/>
     </g>
     <g id="line2d_6">
      <g>
       <use xlink:href="#m543e2fb7ba" x="247.27375" y="266.245" style="stroke: #000000; stroke-width: 0.8"/>
      </g>
     </g>
     <g id="text_3">
      <!-- 500 -->
      <g transform="translate(229.27375 289.63625) scale(0.24 -0.24)">
       <use xlink:href="#TeXGyreTermes-Regular-35"/>
       <use xlink:href="#TeXGyreTermes-Regular-30" transform="translate(49.999985 0)"/>
       <use xlink:href="#TeXGyreTermes-Regular-30" transform="translate(99.999969 0)"/>
      </g>
     </g>
    </g>
    <g id="xtick_4">
     <g id="line2d_7">
      <path d="M 329.106875 266.245 
L 329.106875 25.92 
" clip-path="url(#pf6a7447617)" style="fill: none; stroke: #b0b0b0; stroke-width: 0.8; stroke-linecap: square"/>
     </g>
     <g id="line2d_8">
      <g>
       <use xlink:href="#m543e2fb7ba" x="329.106875" y="266.245" style="stroke: #000000; stroke-width: 0.8"/>
      </g>
     </g>
     <g id="text_4">
      <!-- 750 -->
      <g transform="translate(311.106875 289.63625) scale(0.24 -0.24)">
       <defs>
        <path id="TeXGyreTermes-Regular-37" d="M 2874 4134 
L 2874 4237 
L 506 4237 
L 128 3296 
L 237 3245 
C 512 3680 627 3763 979 3763 
L 2368 3763 
L 1101 -51 
L 1517 -51 
L 2874 4134 
z
" transform="scale(0.015625)"/>
       </defs>
       <use xlink:href="#TeXGyreTermes-Regular-37"/>
       <use xlink:href="#TeXGyreTermes-Regular-35" transform="translate(49.999985 0)"/>
       <use xlink:href="#TeXGyreTermes-Regular-30" transform="translate(99.999969 0)"/>
      </g>
     </g>
    </g>
    <g id="xtick_5">
     <g id="line2d_9">
      <path d="M 410.94 266.245 
L 410.94 25.92 
" clip-path="url(#pf6a7447617)" style="fill: none; stroke: #b0b0b0; stroke-width: 0.8; stroke-linecap: square"/>
     </g>
     <g id="line2d_10">
      <g>
       <use xlink:href="#m543e2fb7ba" x="410.94" y="266.245" style="stroke: #000000; stroke-width: 0.8"/>
      </g>
     </g>
     <g id="text_5">
      <!-- 1000 -->
      <g transform="translate(386.94 289.63625) scale(0.24 -0.24)">
       <defs>
        <path id="TeXGyreTermes-Regular-31" d="M 2522 0 
L 2522 96 
C 2016 102 1914 166 1914 474 
L 1914 4314 
L 1862 4326 
L 710 3744 
L 710 3654 
C 787 3686 858 3712 883 3725 
C 998 3770 1107 3795 1171 3795 
C 1306 3795 1363 3699 1363 3494 
L 1363 595 
C 1363 384 1312 237 1210 179 
C 1114 122 1024 102 755 96 
L 755 0 
L 2522 0 
z
" transform="scale(0.015625)"/>
       </defs>
       <use xlink:href="#TeXGyreTermes-Regular-31"/>
       <use xlink:href="#TeXGyreTermes-Regular-30" transform="translate(49.999985 0)"/>
       <use xlink:href="#TeXGyreTermes-Regular-30" transform="translate(99.999969 0)"/>
       <use xlink:href="#TeXGyreTermes-Regular-30" transform="translate(149.999954 0)"/>
      </g>
     </g>
    </g>
    <g id="text_6">
     <!-- Schritt k -->
     <g transform="translate(206.27125 315.23625) scale(0.24 -0.24)">
      <defs>
       <path id="TeXGyreTermes-Regular-53" d="M 3142 1075 
C 3142 1606 2790 2016 1946 2477 
C 1274 2842 1005 3123 1005 3475 
C 1005 3827 1274 4064 1670 4064 
C 1958 4064 2227 3942 2451 3712 
C 2650 3507 2739 3341 2842 2963 
L 3002 2963 
L 2861 4326 
L 2726 4326 
C 2701 4186 2630 4109 2522 4109 
C 2458 4109 2355 4134 2240 4186 
C 2003 4275 1773 4326 1549 4326 
C 1299 4326 1030 4224 826 4058 
C 576 3853 454 3578 454 3226 
C 454 2720 736 2362 1453 1984 
C 1914 1734 2246 1478 2406 1235 
C 2464 1146 2496 1018 2496 858 
C 2496 435 2176 141 1709 141 
C 1133 141 736 493 416 1274 
L 269 1274 
L 461 -83 
L 602 -83 
C 608 38 685 128 781 128 
C 851 128 960 102 1082 58 
C 1325 -38 1581 -90 1837 -90 
C 2579 -90 3142 416 3142 1075 
z
" transform="scale(0.015625)"/>
       <path id="TeXGyreTermes-Regular-63" d="M 2637 941 
L 2547 998 
C 2240 550 2010 397 1645 397 
C 1056 397 653 909 653 1645 
C 653 2310 1005 2758 1523 2758 
C 1754 2758 1837 2688 1901 2451 
L 1939 2310 
C 1990 2125 2106 2016 2246 2016 
C 2413 2016 2547 2138 2547 2285 
C 2547 2643 2099 2944 1562 2944 
C 1261 2944 954 2829 698 2618 
C 352 2330 160 1888 160 1357 
C 160 531 666 -64 1376 -64 
C 1651 -64 1894 26 2112 205 
C 2304 358 2432 544 2637 941 
z
" transform="scale(0.015625)"/>
       <path id="TeXGyreTermes-Regular-68" d="M 3117 0 
L 3117 96 
C 2771 160 2733 211 2733 653 
L 2733 1926 
C 2733 2598 2464 2944 1946 2944 
C 1568 2944 1299 2790 1005 2406 
L 1005 4352 
L 973 4371 
C 755 4294 595 4243 237 4141 
L 64 4090 
L 64 3987 
C 90 3994 109 3994 141 3994 
C 416 3994 467 3942 467 3667 
L 467 653 
C 467 205 429 147 58 96 
L 58 0 
L 1440 0 
L 1440 96 
C 1069 134 1005 211 1005 653 
L 1005 2195 
C 1274 2490 1466 2598 1715 2598 
C 2035 2598 2195 2368 2195 1920 
L 2195 653 
C 2195 218 2131 134 1760 96 
L 1760 0 
L 3117 0 
z
" transform="scale(0.015625)"/>
       <path id="TeXGyreTermes-Regular-72" d="M 2144 2605 
C 2144 2816 2010 2944 1792 2944 
C 1523 2944 1338 2797 1024 2342 
L 1024 2931 
L 992 2944 
C 653 2803 422 2720 45 2598 
L 45 2496 
C 134 2515 192 2522 269 2522 
C 429 2522 486 2419 486 2138 
L 486 538 
C 486 218 442 173 32 96 
L 32 0 
L 1568 0 
L 1568 96 
C 1133 115 1024 211 1024 576 
L 1024 2016 
C 1024 2221 1299 2541 1472 2541 
C 1510 2541 1568 2509 1638 2445 
C 1741 2355 1811 2317 1894 2317 
C 2048 2317 2144 2426 2144 2605 
z
" transform="scale(0.015625)"/>
       <path id="TeXGyreTermes-Regular-69" d="M 1619 0 
L 1619 96 
C 1197 128 1146 192 1146 653 
L 1146 2925 
L 1120 2944 
L 128 2592 
L 128 2496 
L 179 2502 
C 256 2515 339 2522 397 2522 
C 550 2522 608 2419 608 2138 
L 608 653 
C 608 192 544 122 102 96 
L 102 0 
L 1619 0 
z
M 1203 3776 
C 1203 3955 1062 4102 877 4102 
C 698 4102 550 3955 550 3776 
C 550 3590 698 3450 877 3450 
C 1062 3450 1203 3590 1203 3776 
z
" transform="scale(0.015625)"/>
       <path id="TeXGyreTermes-Regular-74" d="M 1786 422 
L 1702 493 
C 1562 326 1459 269 1318 269 
C 1082 269 986 435 986 845 
L 986 2675 
L 1632 2675 
L 1632 2880 
L 986 2880 
L 986 3622 
C 986 3686 973 3706 941 3706 
C 902 3642 858 3584 813 3526 
C 576 3174 358 2938 192 2842 
C 122 2797 83 2758 83 2720 
C 83 2701 90 2688 109 2675 
L 448 2675 
L 448 749 
C 448 211 640 -64 1011 -64 
C 1331 -64 1574 90 1786 422 
z
" transform="scale(0.015625)"/>
       <path id="TeXGyreTermes-Regular-20" transform="scale(0.015625)"/>
       <path id="TeXGyreTermes-Regular-6b" d="M 3232 0 
L 3232 96 
C 2950 115 2752 237 2483 563 
L 1504 1805 
L 1690 1978 
C 2144 2400 2541 2694 2726 2746 
C 2822 2771 2912 2784 3021 2784 
L 3072 2784 
L 3072 2880 
L 1766 2880 
L 1766 2790 
C 2016 2784 2086 2758 2086 2669 
C 2086 2618 2029 2528 1939 2451 
L 1062 1670 
L 1062 4358 
L 1037 4371 
L 237 4141 
L 45 4090 
L 45 3987 
C 128 3994 186 4000 250 4000 
C 461 4000 525 3917 525 3610 
L 525 525 
C 525 192 506 173 45 96 
L 45 0 
L 1542 0 
L 1542 96 
L 1414 102 
C 1158 115 1062 205 1062 429 
L 1062 1606 
L 1958 410 
L 1978 384 
C 1990 365 2003 346 2022 326 
C 2074 262 2093 224 2093 192 
C 2093 134 2035 96 1958 96 
L 1837 96 
L 1837 0 
L 3232 0 
z
" transform="scale(0.015625)"/>
      </defs>
      <use xlink:href="#TeXGyreTermes-Regular-53"/>
      <use xlink:href="#TeXGyreTermes-Regular-63" transform="translate(55.599991 0)"/>
      <use xlink:href="#TeXGyreTermes-Regular-68" transform="translate(99.999985 0)"/>
      <use xlink:href="#TeXGyreTermes-Regular-72" transform="translate(149.999969 0)"/>
      <use xlink:href="#TeXGyreTermes-Regular-69" transform="translate(183.299957 0)"/>
      <use xlink:href="#TeXGyreTermes-Regular-74" transform="translate(211.099945 0)"/>
      <use xlink:href="#TeXGyreTermes-Regular-74" transform="translate(238.899933 0)"/>
      <use xlink:href="#TeXGyreTermes-Regular-20" transform="translate(266.699921 0)"/>
      <use xlink:href="#TeXGyreTermes-Regular-6b" transform="translate(291.699905 0)"/>
     </g>
    </g>
   </g>
   <g id="matplotlib.axis_2">
    <g id="ytick_1">
     <g id="line2d_11">
      <path d="M 83.6075 212.18381 
L 410.94 212.18381 
" clip-path="url(#pf6a7447617)" style="fill: none; stroke: #b0b0b0; stroke-width: 0.8; stroke-linecap: square"/>
     </g>
     <g id="line2d_12">
      <defs>
       <path id="m462c1a8dba" d="M 0 0 
L -3.5 0 
" style="stroke: #000000; stroke-width: 0.8"/>
      </defs>
      <g>
       <use xlink:href="#m462c1a8dba" x="83.6075" y="212.18381" style="stroke: #000000; stroke-width: 0.8"/>
      </g>
     </g>
     <g id="text_7">
      <!-- −2 -->
      <g transform="translate(51.07 220.379435) scale(0.24 -0.24)">
       <defs>
        <path id="TeXGyreTermes-Regular-2212" d="M 3354 1389 
L 3354 1811 
L 256 1811 
L 256 1389 
L 3354 1389 
z
" transform="scale(0.015625)"/>
       </defs>
       <use xlink:href="#TeXGyreTermes-Regular-2212"/>
       <use xlink:href="#TeXGyreTermes-Regular-32" transform="translate(56.399994 0)"/>
      </g>
     </g>
    </g>
    <g id="ytick_2">
     <g id="line2d_13">
      <path d="M 83.6075 152.779181 
L 410.94 152.779181 
" clip-path="url(#pf6a7447617)" style="fill: none; stroke: #b0b0b0; stroke-width: 0.8; stroke-linecap: square"/>
     </g>
     <g id="line2d_14">
      <g>
       <use xlink:href="#m462c1a8dba" x="83.6075" y="152.779181" style="stroke: #000000; stroke-width: 0.8"/>
      </g>
     </g>
     <g id="text_8">
      <!-- 0 -->
      <g transform="translate(64.6075 160.974806) scale(0.24 -0.24)">
       <use xlink:href="#TeXGyreTermes-Regular-30"/>
      </g>
     </g>
    </g>
    <g id="ytick_3">
     <g id="line2d_15">
      <path d="M 83.6075 93.374551 
L 410.94 93.374551 
" clip-path="url(#pf6a7447617)" style="fill: none; stroke: #b0b0b0; stroke-width: 0.8; stroke-linecap: square"/>
     </g>
     <g id="line2d_16">
      <g>
       <use xlink:href="#m462c1a8dba" x="83.6075" y="93.374551" style="stroke: #000000; stroke-width: 0.8"/>
      </g>
     </g>
     <g id="text_9">
      <!-- 2 -->
      <g transform="translate(64.6075 101.570176) scale(0.24 -0.24)">
       <use xlink:href="#TeXGyreTermes-Regular-32"/>
      </g>
     </g>
    </g>
    <g id="ytick_4">
     <g id="line2d_17">
      <path d="M 83.6075 33.969922 
L 410.94 33.969922 
" clip-path="url(#pf6a7447617)" style="fill: none; stroke: #b0b0b0; stroke-width: 0.8; stroke-linecap: square"/>
     </g>
     <g id="line2d_18">
      <g>
       <use xlink:href="#m462c1a8dba" x="83.6075" y="33.969922" style="stroke: #000000; stroke-width: 0.8"/>
      </g>
     </g>
     <g id="text_10">
      <!-- 4 -->
      <g transform="translate(64.6075 42.165547) scale(0.24 -0.24)">
       <defs>
        <path id="TeXGyreTermes-Regular-34" d="M 3021 1069 
L 3021 1478 
L 2368 1478 
L 2368 4326 
L 2086 4326 
L 77 1478 
L 77 1069 
L 1875 1069 
L 1875 0 
L 2368 0 
L 2368 1069 
L 3021 1069 
z
M 1869 1478 
L 333 1478 
L 1869 3674 
L 1869 1478 
z
" transform="scale(0.015625)"/>
       </defs>
       <use xlink:href="#TeXGyreTermes-Regular-34"/>
      </g>
     </g>
    </g>
    <g id="text_11">
     <!-- x(k) -->
     <g transform="translate(41.86125 166.07375) rotate(-90) scale(0.24 -0.24)">
      <defs>
       <path id="TeXGyreTermes-Regular-78" d="M 3066 0 
L 3066 96 
C 2867 96 2739 198 2541 480 
L 1722 1734 
L 2253 2502 
C 2374 2675 2566 2778 2771 2784 
L 2771 2880 
L 1760 2880 
L 1760 2784 
C 1952 2771 2016 2733 2016 2643 
C 2016 2566 1939 2426 1779 2227 
C 1747 2189 1670 2074 1587 1946 
L 1498 2074 
C 1318 2342 1203 2560 1203 2643 
C 1203 2733 1286 2778 1478 2784 
L 1478 2880 
L 154 2880 
L 154 2784 
L 211 2784 
C 403 2784 506 2701 704 2400 
L 1306 1478 
L 576 422 
C 384 160 320 115 109 96 
L 109 0 
L 1037 0 
L 1037 96 
C 858 96 781 128 781 211 
C 781 250 826 346 909 474 
L 1414 1261 
L 1997 365 
C 2022 326 2035 288 2035 250 
C 2035 134 1990 109 1779 96 
L 1779 0 
L 3066 0 
z
" transform="scale(0.015625)"/>
       <path id="TeXGyreTermes-Regular-28" d="M 1946 -1030 
C 1434 -627 1254 -403 1082 77 
C 928 506 858 992 858 1632 
C 858 2304 941 2829 1114 3226 
C 1293 3622 1485 3853 1946 4224 
L 1888 4326 
C 1414 4019 1222 3853 986 3558 
C 531 3002 307 2362 307 1613 
C 307 800 544 173 1107 -480 
C 1370 -787 1536 -928 1869 -1133 
L 1946 -1030 
z
" transform="scale(0.015625)"/>
       <path id="TeXGyreTermes-Regular-29" d="M 1824 1581 
C 1824 2400 1587 3021 1024 3674 
C 762 3981 595 4122 262 4326 
L 186 4224 
C 698 3821 870 3597 1050 3117 
C 1203 2688 1274 2202 1274 1562 
C 1274 896 1190 365 1018 -26 
C 838 -429 646 -659 186 -1030 
L 243 -1133 
C 717 -826 909 -659 1146 -365 
C 1600 192 1824 832 1824 1581 
z
" transform="scale(0.015625)"/>
      </defs>
      <use xlink:href="#TeXGyreTermes-Regular-78"/>
      <use xlink:href="#TeXGyreTermes-Regular-28" transform="translate(49.999985 0)"/>
      <use xlink:href="#TeXGyreTermes-Regular-6b" transform="translate(83.299973 0)"/>
      <use xlink:href="#TeXGyreTermes-Regular-29" transform="translate(133.299957 0)"/>
     </g>
    </g>
   </g>
   <g id="line2d_19">
    <path d="M 83.6075 170.861095 
L 83.934832 165.411705 
L 84.262165 148.311212 
L 84.589498 191.414954 
L 84.91683 161.57657 
L 85.244163 165.563083 
L 85.898827 121.520546 
L 86.880825 175.505271 
L 87.208157 163.362723 
L 87.53549 116.22647 
L 87.862823 188.430828 
L 88.190155 154.354716 
L 88.517488 157.630455 
L 88.84482 130.771798 
L 89.172152 151.649584 
L 89.499485 114.792491 
L 89.826818 166.951801 
L 90.15415 142.669138 
L 90.481482 149.993249 
L 90.808815 102.206336 
L 91.136148 97.453615 
L 91.46348 102.985001 
L 91.790813 139.835082 
L 92.118145 151.954922 
L 92.77281 132.950996 
L 93.100143 216.164248 
L 93.427475 157.021767 
L 93.754807 181.085571 
L 94.08214 216.075587 
L 94.409473 177.922417 
L 94.736805 186.295772 
L 95.064138 207.570798 
L 95.39147 190.377255 
L 95.718802 179.461015 
L 96.046135 142.964946 
L 96.373468 146.110999 
L 96.7008 152.593686 
L 97.028132 151.283821 
L 97.355465 104.106895 
L 97.682798 165.914423 
L 98.01013 154.282252 
L 98.337463 211.592411 
L 98.664795 167.516934 
L 98.992127 170.687977 
L 99.646793 141.144079 
L 99.974125 113.877675 
L 100.301457 149.95947 
L 100.62879 161.114017 
L 100.956122 197.65391 
L 101.283455 152.334513 
L 101.610788 193.822268 
L 101.93812 168.703903 
L 102.265452 162.718397 
L 102.592785 191.207081 
L 102.920118 159.629536 
L 103.24745 202.604206 
L 103.574782 188.866189 
L 103.902115 126.841066 
L 104.229447 103.850172 
L 104.55678 121.006063 
L 104.884113 151.898036 
L 105.211445 172.146478 
L 105.538777 224.966333 
L 105.86611 255.321136 
L 106.193443 215.788097 
L 106.520775 197.637887 
L 106.848107 196.993859 
L 107.17544 152.694181 
L 107.502772 132.947268 
L 107.830105 156.301014 
L 108.157438 110.250193 
L 108.48477 215.687902 
L 109.139435 156.600088 
L 109.466768 195.92759 
L 109.7941 153.870983 
L 110.448765 98.006035 
L 111.10343 142.67935 
L 111.430763 111.185501 
L 111.758095 117.82609 
L 112.085427 168.980153 
L 112.41276 180.544392 
L 112.740093 143.459303 
L 113.067425 154.377584 
L 113.394757 176.103677 
L 113.72209 150.415652 
L 114.049422 214.306842 
L 114.376755 140.852836 
L 114.704087 112.795512 
L 115.03142 95.35515 
L 115.358752 100.896141 
L 116.013418 169.254323 
L 116.34075 127.265319 
L 116.668082 126.782733 
L 116.995415 133.709639 
L 117.322747 154.622985 
L 117.65008 185.031715 
L 117.977412 176.989056 
L 118.304745 158.612809 
L 118.632078 177.075341 
L 118.95941 156.524143 
L 119.286743 174.971593 
L 119.614075 185.381474 
L 119.941407 120.44839 
L 120.26874 145.454842 
L 120.596072 108.833094 
L 120.923405 138.53108 
L 121.250737 138.344632 
L 121.57807 163.968952 
L 121.905403 86.217648 
L 122.560068 154.245066 
L 122.8874 156.331563 
L 123.214732 161.154912 
L 123.542065 122.838344 
L 123.869397 166.715562 
L 124.19673 145.175288 
L 124.524062 177.367884 
L 124.851395 127.394625 
L 125.178728 124.769559 
L 125.50606 103.362161 
L 125.833393 156.124568 
L 126.488057 127.138647 
L 126.81539 126.241951 
L 127.142722 67.638842 
L 127.470055 120.365741 
L 127.797387 109.423956 
L 128.12472 131.751734 
L 128.452053 125.943548 
L 128.779385 133.043392 
L 129.106718 174.627209 
L 129.43405 119.367757 
L 129.761382 100.816443 
L 130.088715 143.023794 
L 130.416047 170.431704 
L 130.74338 125.485872 
L 131.070713 123.560227 
L 131.398045 165.018576 
L 131.725378 159.360813 
L 132.05271 113.490257 
L 132.380043 133.257118 
L 132.707375 130.749434 
L 133.034707 89.36886 
L 133.36204 120.691761 
L 133.689372 112.383269 
L 134.016705 149.536045 
L 134.67137 109.321344 
L 135.326035 200.185753 
L 135.653368 162.449656 
L 135.9807 108.290168 
L 136.308032 162.941368 
L 136.635365 154.790174 
L 136.962697 160.216279 
L 137.29003 131.868514 
L 137.617363 178.665932 
L 137.944695 135.795404 
L 138.272028 187.665914 
L 138.59936 143.239601 
L 138.926693 149.306276 
L 139.254025 144.742514 
L 139.581357 133.857135 
L 139.90869 119.251863 
L 140.236022 166.016026 
L 140.563355 170.423933 
L 140.890688 131.907476 
L 141.21802 114.425599 
L 141.545353 166.258067 
L 141.872685 129.369971 
L 142.200018 120.31164 
L 142.52735 106.068025 
L 142.854682 146.00498 
L 143.182015 122.75424 
L 143.509347 75.44551 
L 143.83668 156.952984 
L 144.164013 158.78968 
L 144.491345 165.809567 
L 144.818678 118.659264 
L 145.14601 96.983717 
L 145.473343 140.780718 
L 145.800675 151.369806 
L 146.128007 147.506576 
L 146.45534 112.379735 
L 146.782672 141.101157 
L 147.110005 182.972857 
L 147.437338 153.715034 
L 147.76467 146.17455 
L 148.092002 108.354867 
L 148.419335 98.601932 
L 148.746668 188.612803 
L 149.074 204.984875 
L 149.401332 196.040225 
L 149.728665 115.604418 
L 150.055997 168.90724 
L 150.38333 140.264036 
L 150.710663 139.995952 
L 151.037995 157.786775 
L 151.365327 161.933922 
L 151.69266 170.34462 
L 152.019993 167.072108 
L 152.347325 146.490311 
L 152.674657 141.771536 
L 153.00199 148.073102 
L 153.329322 177.531693 
L 153.656655 166.674865 
L 153.983988 139.934953 
L 154.31132 141.168345 
L 154.638652 139.79241 
L 154.965985 174.23098 
L 155.293318 158.639259 
L 155.62065 122.44556 
L 155.947982 177.856038 
L 156.275315 169.405077 
L 156.602647 128.187627 
L 157.257313 173.30138 
L 157.584645 141.980219 
L 157.911977 141.634708 
L 158.566643 168.309913 
L 159.221307 115.56357 
L 159.54864 179.098788 
L 159.875972 119.280111 
L 160.203305 155.212123 
L 160.530638 131.840352 
L 160.85797 157.855141 
L 161.185302 115.701576 
L 161.512635 134.878672 
L 161.839968 122.181256 
L 162.1673 153.33308 
L 162.494632 118.994614 
L 162.821965 149.331171 
L 163.149297 137.57091 
L 163.47663 134.821015 
L 163.803963 90.217808 
L 164.131295 183.727761 
L 164.458627 186.465933 
L 164.78596 147.467789 
L 165.113293 178.280823 
L 165.440625 154.219558 
L 165.767957 170.901079 
L 166.09529 157.834395 
L 166.422622 151.035897 
L 166.749955 173.077443 
L 167.077288 121.601227 
L 167.40462 165.627121 
L 167.731952 178.068922 
L 168.059285 143.946157 
L 168.386617 186.017106 
L 169.041282 113.752699 
L 169.368615 129.838045 
L 169.695947 174.207912 
L 170.02328 133.73434 
L 170.677945 187.445709 
L 171.005277 162.245674 
L 171.33261 149.405594 
L 171.659942 148.224978 
L 171.987275 137.444413 
L 172.314607 208.481388 
L 172.64194 143.72416 
L 172.969272 155.100853 
L 173.296605 150.879345 
L 173.623938 161.610002 
L 173.95127 191.791502 
L 174.278602 120.169787 
L 174.605935 103.201296 
L 174.933267 120.431955 
L 175.2606 165.922629 
L 175.587932 116.006383 
L 175.915265 118.427967 
L 176.242597 158.279597 
L 176.56993 156.754298 
L 176.897263 126.697709 
L 177.224595 145.613529 
L 177.551927 156.620194 
L 177.87926 143.058477 
L 178.206592 119.910164 
L 178.533925 122.455541 
L 178.861257 166.032837 
L 179.18859 185.121428 
L 179.515922 215.102046 
L 179.843255 136.84492 
L 180.170588 130.987602 
L 180.49792 141.141235 
L 180.825252 139.318519 
L 181.152585 117.282642 
L 181.80725 184.351865 
L 182.134582 184.730098 
L 182.461915 136.987425 
L 182.789247 189.710072 
L 183.11658 148.11642 
L 183.443913 187.96769 
L 183.771245 196.086395 
L 184.098577 114.966579 
L 184.42591 167.82933 
L 184.753242 111.091364 
L 185.080575 117.884982 
L 185.407907 102.974674 
L 185.73524 135.918854 
L 186.062572 142.605327 
L 186.389905 128.032701 
L 186.717238 143.556647 
L 187.04457 94.204083 
L 187.371902 110.529248 
L 187.699235 153.517267 
L 188.026567 160.858808 
L 188.681232 80.848134 
L 189.335897 182.672158 
L 189.66323 145.367966 
L 189.990563 171.077563 
L 190.317895 162.238491 
L 190.645227 173.207292 
L 190.97256 100.852175 
L 191.299892 136.868554 
L 191.627225 156.623076 
L 191.954557 123.404314 
L 192.28189 189.950376 
L 192.609222 164.727875 
L 192.936555 171.636032 
L 193.263888 151.94638 
L 193.59122 171.515088 
L 193.918552 113.567106 
L 194.245885 135.324503 
L 194.573217 126.523128 
L 194.90055 169.708071 
L 195.227882 181.46723 
L 195.555215 179.990615 
L 195.882547 182.700985 
L 196.20988 142.885776 
L 196.537213 147.184596 
L 196.864545 156.56974 
L 197.191877 188.014392 
L 197.846542 130.091066 
L 198.173875 133.926313 
L 198.501207 201.427658 
L 198.82854 125.960266 
L 199.155872 119.710908 
L 199.483205 187.480229 
L 199.810538 139.684164 
L 200.13787 182.198481 
L 200.465202 179.408107 
L 200.792535 127.420072 
L 201.119867 158.226279 
L 201.4472 153.448817 
L 201.774532 144.847768 
L 202.101865 127.411299 
L 202.429197 143.240637 
L 202.75653 147.838831 
L 203.083863 159.997318 
L 203.411195 180.538565 
L 203.738527 190.634383 
L 204.06586 150.448255 
L 204.393192 156.647479 
L 204.720525 130.483477 
L 205.047857 136.122298 
L 205.37519 204.207449 
L 205.702522 190.400331 
L 206.029855 189.095438 
L 206.357188 167.702504 
L 206.68452 190.974267 
L 207.011852 119.542742 
L 207.339185 160.708876 
L 207.99385 140.04154 
L 208.321182 129.812827 
L 208.648515 146.410596 
L 208.975847 139.053936 
L 209.30318 174.923631 
L 209.630513 193.32081 
L 209.957845 131.982507 
L 210.285177 133.088351 
L 210.939842 212.177695 
L 211.267175 152.82094 
L 211.594507 177.819289 
L 211.92184 111.153431 
L 212.249172 186.1377 
L 212.576505 207.525941 
L 212.903838 156.033592 
L 213.23117 177.879224 
L 213.558502 148.550334 
L 213.885835 152.986273 
L 214.213167 155.192337 
L 214.5405 193.495091 
L 214.867832 147.483423 
L 215.195165 163.461788 
L 215.522497 169.51176 
L 215.84983 200.408279 
L 216.177163 131.720422 
L 216.504495 175.124461 
L 216.831827 156.14197 
L 217.15916 215.314841 
L 217.486492 195.430789 
L 217.813825 121.232955 
L 218.141157 153.588213 
L 218.46849 143.185841 
L 219.123155 212.406379 
L 219.77782 142.256839 
L 220.105152 141.255091 
L 220.432485 204.519384 
L 220.759817 168.866725 
L 221.08715 181.352951 
L 221.741815 144.920974 
L 222.069147 178.018267 
L 222.39648 137.699426 
L 222.723813 83.441497 
L 223.051145 147.7614 
L 223.70581 100.642963 
L 224.033142 172.985994 
L 224.360475 152.154851 
L 224.687807 155.235356 
L 225.01514 178.039848 
L 225.669805 147.026948 
L 225.997138 149.226224 
L 226.32447 107.420674 
L 226.651802 179.624775 
L 226.979135 102.989543 
L 227.306467 107.735233 
L 227.6338 135.980611 
L 227.961132 180.644063 
L 228.288465 69.248297 
L 228.615797 158.138827 
L 228.94313 154.973549 
L 229.270463 180.73171 
L 229.597795 134.773363 
L 229.925127 119.261881 
L 230.579792 168.669741 
L 230.907125 129.007495 
L 231.234457 188.46065 
L 231.889122 131.971324 
L 232.216455 186.059899 
L 232.543788 187.183319 
L 233.198452 81.400768 
L 233.525785 115.893676 
L 233.853117 120.555435 
L 234.18045 154.972322 
L 234.507782 110.094806 
L 234.835115 108.424295 
L 235.162447 70.250583 
L 235.48978 116.22987 
L 236.144445 154.783543 
L 236.471777 134.724187 
L 236.79911 149.478089 
L 237.126442 191.524863 
L 237.453775 145.050857 
L 237.781107 160.897059 
L 238.10844 124.216388 
L 238.435772 114.623612 
L 238.763105 129.419064 
L 239.090438 173.404755 
L 239.745102 140.179428 
L 240.072435 166.916667 
L 240.399767 220.296287 
L 240.7271 198.450544 
L 241.054432 128.015092 
L 241.381765 176.094486 
L 241.709097 184.583025 
L 242.03643 180.828459 
L 242.363763 199.637267 
L 243.018427 172.749857 
L 243.34576 176.033529 
L 243.673092 180.689379 
L 244.000425 108.298564 
L 244.327757 199.64199 
L 244.65509 130.923353 
L 244.982422 137.687861 
L 245.309755 107.405817 
L 245.637088 88.658438 
L 245.96442 162.842682 
L 246.291752 135.690993 
L 246.619085 121.709036 
L 246.946417 94.355225 
L 247.27375 151.558501 
L 247.601082 102.027405 
L 247.928415 181.660276 
L 248.255747 174.015828 
L 248.58308 108.566444 
L 248.910413 142.033711 
L 249.237745 107.987358 
L 249.89241 206.315308 
L 250.219742 156.95094 
L 250.547075 189.974243 
L 250.874407 210.670921 
L 251.20174 183.029174 
L 251.529072 180.264908 
L 251.856405 142.485531 
L 252.183738 118.285675 
L 252.51107 168.650558 
L 252.838402 127.417165 
L 253.165735 165.433962 
L 253.493067 141.801443 
L 253.8204 150.918576 
L 254.147732 154.286961 
L 254.475065 164.614173 
L 254.802397 182.440468 
L 255.12973 170.024771 
L 255.457063 132.274499 
L 255.784395 127.192453 
L 256.111727 100.802831 
L 257.093725 188.16229 
L 257.421057 154.42506 
L 257.74839 166.678868 
L 258.075722 202.42627 
L 258.403055 218.590947 
L 258.730388 135.417517 
L 259.05772 180.379602 
L 259.385052 159.038362 
L 259.712385 149.50904 
L 260.039717 126.280818 
L 260.36705 126.060788 
L 260.694382 171.217872 
L 261.021715 144.392339 
L 261.349047 161.4365 
L 261.67638 150.579147 
L 262.331045 217.352754 
L 262.658377 218.098121 
L 262.98571 187.251521 
L 263.313042 180.03527 
L 263.640375 209.505071 
L 263.967707 190.609895 
L 264.29504 195.53792 
L 264.622372 178.82235 
L 264.949705 137.002515 
L 265.277038 112.518355 
L 265.60437 159.116089 
L 265.931702 159.631705 
L 266.259035 168.408182 
L 266.586367 155.688936 
L 266.9137 156.015094 
L 267.241032 153.628292 
L 267.568365 159.585751 
L 267.895697 161.413055 
L 268.22303 158.937047 
L 268.550363 161.068469 
L 268.877695 159.053969 
L 269.205027 207.476769 
L 269.53236 165.42129 
L 269.859692 218.714366 
L 270.187025 140.920918 
L 270.514357 181.110732 
L 270.84169 133.567666 
L 271.169022 183.494075 
L 271.496355 186.556595 
L 271.823688 164.480453 
L 272.15102 86.200342 
L 272.478352 143.90612 
L 272.805685 180.168466 
L 273.133017 184.135368 
L 273.46035 146.095944 
L 273.787682 129.757183 
L 274.115015 162.22985 
L 274.442347 169.186605 
L 275.097013 201.96194 
L 275.751677 139.180472 
L 276.07901 156.13242 
L 276.406342 167.279298 
L 276.733675 158.933794 
L 277.061007 166.846239 
L 277.715672 119.936977 
L 278.043005 114.887745 
L 278.370338 152.415692 
L 278.69767 120.544344 
L 279.025002 128.330888 
L 279.352335 114.529884 
L 279.679667 139.719408 
L 280.007 143.783886 
L 280.334332 197.827581 
L 280.661665 164.597861 
L 280.988997 218.389342 
L 281.31633 161.693501 
L 281.643663 254.863515 
L 281.970995 189.859626 
L 282.298327 154.29404 
L 282.62566 181.42383 
L 282.952992 161.803615 
L 283.280325 168.54219 
L 283.607657 187.313864 
L 283.93499 149.701163 
L 284.262322 186.21178 
L 284.589655 132.825609 
L 284.916988 137.913642 
L 285.24432 175.667132 
L 285.571652 195.624846 
L 285.898985 175.714059 
L 286.226317 140.34854 
L 286.55365 153.855667 
L 286.880982 174.397205 
L 287.535647 120.734375 
L 287.86298 149.897728 
L 288.190313 156.738763 
L 288.517645 139.459518 
L 288.844977 167.957813 
L 289.499642 137.313797 
L 289.826975 146.69396 
L 290.154307 170.506132 
L 290.48164 97.722157 
L 290.808972 147.08131 
L 291.136305 116.12933 
L 291.463638 162.560134 
L 291.79097 108.901597 
L 292.118302 122.469456 
L 292.445635 99.83541 
L 292.772967 130.549763 
L 293.427632 95.189162 
L 293.754965 115.511623 
L 294.082297 96.215065 
L 294.40963 108.147076 
L 294.736963 105.796105 
L 295.064295 134.263816 
L 295.391627 135.00177 
L 295.71896 100.852766 
L 296.046292 122.932965 
L 296.373625 121.740629 
L 296.700957 133.511602 
L 297.02829 135.669099 
L 297.355622 139.366578 
L 297.682955 170.497209 
L 298.010288 174.232207 
L 298.33762 162.128594 
L 298.664952 203.668519 
L 298.992285 176.175447 
L 299.319617 78.314034 
L 299.64695 191.584497 
L 299.974282 165.275526 
L 300.301615 174.330807 
L 300.628947 145.546868 
L 300.95628 150.879782 
L 301.283613 130.441541 
L 301.610945 91.046856 
L 301.938277 119.470304 
L 302.26561 114.483849 
L 302.592942 132.077958 
L 302.920275 93.082648 
L 303.247607 137.335037 
L 303.57494 99.306139 
L 303.902272 131.540558 
L 304.229605 152.392987 
L 304.556938 163.390604 
L 304.88427 157.733717 
L 305.538935 117.893212 
L 305.866267 173.334516 
L 306.1936 146.134598 
L 306.520932 183.058981 
L 306.848265 134.20385 
L 307.175597 106.573155 
L 307.50293 139.776837 
L 307.830263 157.596687 
L 308.157595 157.027131 
L 308.484927 139.774556 
L 308.81226 112.273638 
L 309.139592 94.961928 
L 309.794257 156.844307 
L 310.12159 131.431838 
L 311.103588 181.396192 
L 311.43092 162.538967 
L 311.758252 152.154421 
L 312.085585 185.662308 
L 312.412917 164.124141 
L 312.74025 182.945252 
L 313.067582 152.05046 
L 313.394915 161.454631 
L 314.376913 225.783899 
L 314.704245 220.244477 
L 315.031577 212.754686 
L 315.35891 159.496051 
L 315.686242 172.259987 
L 316.013575 161.370761 
L 316.340907 155.96364 
L 316.66824 190.79285 
L 316.995572 168.097343 
L 317.322905 133.689732 
L 317.650238 177.516447 
L 317.97757 158.587458 
L 318.304902 120.119549 
L 318.632235 163.271562 
L 318.959567 172.954155 
L 319.2869 194.17546 
L 319.614232 150.027314 
L 319.941565 183.671258 
L 320.59623 90.481719 
L 320.923563 129.513415 
L 321.250895 205.057469 
L 321.578227 143.104763 
L 321.90556 154.967069 
L 322.232892 143.61712 
L 322.560225 126.900546 
L 322.887557 184.193565 
L 323.21489 156.501935 
L 323.542222 191.003152 
L 324.196888 155.037498 
L 324.52422 117.511357 
L 324.851552 173.914729 
L 325.178885 157.432512 
L 325.506217 179.954185 
L 325.83355 140.736758 
L 326.160882 192.073824 
L 326.488215 181.116434 
L 326.815547 132.398817 
L 327.14288 138.43379 
L 327.470213 105.806592 
L 327.797545 137.803535 
L 328.124877 125.558862 
L 328.45221 120.387919 
L 328.779542 156.565086 
L 329.106875 136.925922 
L 329.434207 153.121614 
L 329.76154 151.671221 
L 330.088872 216.308059 
L 330.416205 171.796218 
L 330.743538 163.367222 
L 331.07087 151.379704 
L 331.398202 84.00218 
L 332.052867 177.016217 
L 332.3802 170.053444 
L 333.362197 125.233281 
L 333.68953 172.340366 
L 334.344195 132.141311 
L 334.671527 74.101319 
L 334.99886 138.21432 
L 335.326192 97.946802 
L 335.653525 132.25463 
L 335.980857 104.388311 
L 336.30819 54.635269 
L 336.635522 83.491303 
L 336.962855 90.923425 
L 337.290188 86.129353 
L 337.61752 97.147277 
L 337.944852 125.631445 
L 338.272185 100.245004 
L 338.599517 135.124214 
L 338.92685 126.134527 
L 339.254182 104.467847 
L 339.581515 133.794568 
L 339.908847 101.963429 
L 340.23618 135.784477 
L 340.563513 135.591228 
L 340.890845 136.428746 
L 341.218177 156.810813 
L 341.54551 145.938311 
L 341.872842 164.712144 
L 342.200175 166.896617 
L 342.527508 168.016114 
L 342.85484 131.494473 
L 343.182172 183.595431 
L 343.509505 171.562289 
L 343.836838 114.118981 
L 344.16417 133.657781 
L 344.491502 65.672308 
L 345.146167 110.339268 
L 345.4735 121.919589 
L 345.800833 166.150534 
L 346.128165 109.622595 
L 346.455497 98.955622 
L 346.78283 158.0239 
L 347.110163 158.253519 
L 347.437495 152.815758 
L 347.764827 126.893825 
L 348.09216 127.280958 
L 348.419492 109.524334 
L 348.746825 112.595422 
L 349.074158 155.853733 
L 349.40149 120.079376 
L 349.728822 65.881547 
L 350.383488 145.764242 
L 350.71082 134.790569 
L 351.038152 117.559872 
L 351.365485 129.985214 
L 351.692817 124.979773 
L 352.02015 107.63585 
L 352.347483 155.355564 
L 352.674815 149.909289 
L 353.002147 118.667049 
L 353.32948 111.738453 
L 353.656813 122.491859 
L 353.984145 129.38818 
L 354.311477 119.613847 
L 354.63881 116.766811 
L 354.966142 112.092038 
L 355.293475 94.657023 
L 355.620808 97.880797 
L 355.94814 104.69479 
L 356.275472 93.358698 
L 356.602805 100.66181 
L 356.930138 121.191794 
L 357.25747 63.463964 
L 357.584802 91.699012 
L 357.912135 95.665618 
L 358.239467 84.957424 
L 358.5668 123.950522 
L 358.894133 75.88429 
L 359.221465 109.480969 
L 359.548797 124.58921 
L 359.87613 124.154597 
L 360.203463 88.266571 
L 360.530795 140.909976 
L 360.858127 88.049798 
L 361.18546 159.387689 
L 361.512792 108.544199 
L 361.840125 140.428373 
L 362.167458 111.910869 
L 362.49479 98.925615 
L 362.822122 119.728526 
L 363.149455 75.651011 
L 363.476788 106.354421 
L 363.80412 112.885348 
L 364.131452 68.528798 
L 364.458785 129.792557 
L 364.786117 133.585185 
L 365.11345 92.83184 
L 365.440783 93.880058 
L 365.768115 52.843539 
L 366.095447 116.646688 
L 366.42278 36.843864 
L 366.750113 119.01575 
L 367.077445 142.309814 
L 367.404777 119.121353 
L 367.73211 131.652058 
L 368.059442 128.909998 
L 368.386775 127.854768 
L 368.714108 98.237735 
L 369.04144 125.405805 
L 369.368772 117.053158 
L 369.696105 154.625709 
L 370.35077 97.49898 
L 370.678102 151.048556 
L 371.005435 109.260505 
L 371.332767 151.440982 
L 371.6601 128.668047 
L 371.987433 146.658405 
L 372.314765 136.349053 
L 372.642097 160.373235 
L 372.96943 197.564947 
L 373.296762 117.130052 
L 373.951427 148.778929 
L 374.27876 187.471712 
L 374.933425 142.441204 
L 375.260758 138.725942 
L 375.58809 86.811222 
L 375.915422 122.974816 
L 376.242755 90.835861 
L 376.570087 89.721754 
L 376.89742 170.02423 
L 377.552085 93.005764 
L 377.879417 145.696525 
L 378.20675 90.092076 
L 378.534083 140.543581 
L 378.861415 133.972249 
L 379.188747 95.138287 
L 379.51608 72.14568 
L 379.843412 136.283252 
L 380.498077 66.875349 
L 380.82541 89.99242 
L 381.152742 123.67705 
L 381.480075 101.12431 
L 381.807408 117.296322 
L 382.462072 158.921626 
L 382.789405 148.406377 
L 383.116737 159.751227 
L 383.44407 131.457305 
L 383.771402 125.952416 
L 384.098735 98.319694 
L 384.426067 134.868402 
L 384.7534 143.752354 
L 385.080733 123.219406 
L 385.408065 89.421004 
L 385.735397 145.724691 
L 386.06273 98.689142 
L 386.390062 107.830983 
L 386.717395 124.385399 
L 387.044727 105.144053 
L 387.37206 99.882852 
L 387.699392 141.572051 
L 388.026725 90.661551 
L 388.354058 144.801353 
L 388.68139 137.19404 
L 389.336055 168.909879 
L 389.663387 161.496376 
L 389.99072 157.304773 
L 390.318052 93.093622 
L 390.645385 148.709914 
L 390.972717 159.766076 
L 391.30005 160.493801 
L 391.954715 144.592457 
L 392.282047 98.54551 
L 392.60938 134.762425 
L 392.936712 131.533828 
L 393.264045 146.492173 
L 393.591377 66.086343 
L 393.91871 100.815245 
L 394.246042 98.165579 
L 394.573375 112.846645 
L 394.900708 169.487108 
L 395.22804 151.905043 
L 395.882705 167.54053 
L 396.210037 123.476487 
L 396.53737 172.055427 
L 396.864702 195.815431 
L 397.192035 140.235654 
L 397.519367 162.650134 
L 397.8467 170.751435 
L 398.174033 132.374139 
L 398.501365 137.610568 
L 398.828697 123.155383 
L 399.15603 117.898068 
L 399.483362 136.091924 
L 399.810695 144.945419 
L 400.138027 87.618904 
L 400.46536 166.576065 
L 400.792692 169.215875 
L 401.120025 84.594002 
L 401.447358 201.734778 
L 401.77469 149.277579 
L 402.102022 129.655087 
L 402.429355 116.951836 
L 402.756687 122.181919 
L 403.08402 139.711537 
L 403.411352 92.873964 
L 403.738685 80.904099 
L 404.066017 169.906967 
L 404.39335 134.349755 
L 404.720683 77.13103 
L 405.048015 94.649857 
L 405.375347 139.554608 
L 405.70268 111.948902 
L 406.030012 113.544181 
L 406.357345 138.430762 
L 406.684677 140.136736 
L 407.01201 124.902154 
L 407.339342 126.500167 
L 407.666675 146.613009 
L 407.994008 213.840436 
L 408.648672 146.563879 
L 408.976005 162.856097 
L 409.303337 137.093614 
L 409.63067 127.84605 
L 409.958002 189.844239 
L 410.285335 140.100797 
L 410.612667 149.992047 
L 410.612667 149.992047 
" clip-path="url(#pf6a7447617)" style="fill: none; stroke: #1f77b4; stroke-width: 1.5; stroke-linecap: square"/>
   </g>
   <g id="patch_3">
    <path d="M 83.6075 266.245 
L 83.6075 25.92 
" style="fill: none; stroke: #000000; stroke-width: 0.8; stroke-linejoin: miter; stroke-linecap: square"/>
   </g>
   <g id="patch_4">
    <path d="M 410.94 266.245 
L 410.94 25.92 
" style="fill: none; stroke: #000000; stroke-width: 0.8; stroke-linejoin: miter; stroke-linecap: square"/>
   </g>
   <g id="patch_5">
    <path d="M 83.6075 266.245 
L 410.94 266.245 
" style="fill: none; stroke: #000000; stroke-width: 0.8; stroke-linejoin: miter; stroke-linecap: square"/>
   </g>
   <g id="patch_6">
    <path d="M 83.6075 25.92 
L 410.94 25.92 
" style="fill: none; stroke: #000000; stroke-width: 0.8; stroke-linejoin: miter; stroke-linecap: square"/>
   </g>
  </g>
 </g>
 <defs>
  <clipPath id="pf6a7447617">
   <rect x="83.6075" y="25.92" width="327.3325" height="240.325"/>
  </clipPath>
 </defs>
</svg>
