<?xml version="1.0" encoding="utf-8" standalone="no"?>
<!DOCTYPE svg PUBLIC "-//W3C//DTD SVG 1.1//EN"
  "http://www.w3.org/Graphics/SVG/1.1/DTD/svg11.dtd">
<svg xmlns:xlink="http://www.w3.org/1999/xlink" width="460.8pt" height="345.6pt" viewBox="0 0 460.8 345.6" xmlns="http://www.w3.org/2000/svg" version="1.1">
 <metadata>
  <rdf:RDF xmlns:dc="http://purl.org/dc/elements/1.1/" xmlns:cc="http://creativecommons.org/ns#" xmlns:rdf="http://www.w3.org/1999/02/22-rdf-syntax-ns#">
   <cc:Work>
    <dc:type rdf:resource="http://purl.org/dc/dcmitype/StillImage"/>
    <dc:date>2026-01-29T08:49:32.859104</dc:date>
    <dc:format>image/svg+xml</dc:format>
    <dc:creator>
     <cc:Agent>
      <dc:title>Matplotlib v3.10.8, https://matplotlib.org/</dc:title>
     </cc:Agent>
    </dc:creator>
   </cc:Work>
  </rdf:RDF>
 </metadata>
 <defs>
  <style type="text/css">*{stroke-linejoin: round; stroke-linecap: butt}</style>
 </defs>
 <g id="figure_1">
  <g id="patch_1">
   <path d="M 0 345.6 
L 460.8 345.6 
L 460.8 0 
L 0 0 
z
" style="fill: #ffffff"/>
  </g>
  <g id="axes_1">
   <g id="patch_2">
    <path d="M 109.607519 265.0705 
L 434.88 265.0705 
L 434.88 34.596 
L 109.607519 34.596 
z
" style="fill: #ffffff"/>
   </g>
   <g id="matplotlib.axis_1">
    <g id="xtick_1">
     <g id="line2d_1">
      <path d="M 125.091932 265.0705 
L 125.091932 34.596 
" clip-path="url(#pb8e9820a03)" style="fill: none; stroke: #b0b0b0; stroke-width: 0.8; stroke-linecap: square"/>
     </g>
     <g id="line2d_2">
      <defs>
       <path id="m14989935a2" d="M 0 0 
L 0 3.5 
" style="stroke: #000000; stroke-width: 0.8"/>
      </defs>
      <g>
       <use xlink:href="#m14989935a2" x="125.091932" y="265.0705" style="stroke: #000000; stroke-width: 0.8"/>
      </g>
     </g>
     <g id="text_1">
      <!-- $\mathdefault{10^{0}}$ -->
      <g transform="translate(108.411932 288.46175) scale(0.24 -0.24)">
       <defs>
        <path id="TeXGyreTermes-Regular-31" d="M 2522 0 
L 2522 96 
C 2016 102 1914 166 1914 474 
L 1914 4314 
L 1862 4326 
L 710 3744 
L 710 3654 
C 787 3686 858 3712 883 3725 
C 998 3770 1107 3795 1171 3795 
C 1306 3795 1363 3699 1363 3494 
L 1363 595 
C 1363 384 1312 237 1210 179 
C 1114 122 1024 102 755 96 
L 755 0 
L 2522 0 
z
" transform="scale(0.015625)"/>
        <path id="TeXGyreTermes-Regular-30" d="M 3046 2112 
C 3046 3424 2464 4326 1626 4326 
C 1274 4326 1005 4218 768 3994 
C 397 3635 154 2899 154 2150 
C 154 1453 365 704 666 346 
C 902 64 1229 -90 1600 -90 
C 1926 -90 2202 19 2432 243 
C 2803 595 3046 1338 3046 2112 
z
M 2432 2099 
C 2432 762 2150 77 1600 77 
C 1050 77 768 762 768 2093 
C 768 3450 1056 4160 1606 4160 
C 2144 4160 2432 3437 2432 2099 
z
" transform="scale(0.015625)"/>
       </defs>
       <use xlink:href="#TeXGyreTermes-Regular-31" transform="translate(0 0.184375)"/>
       <use xlink:href="#TeXGyreTermes-Regular-30" transform="translate(49.999985 0.184375)"/>
       <use xlink:href="#TeXGyreTermes-Regular-30" transform="translate(100.787469 31.684375) scale(0.7)"/>
      </g>
     </g>
    </g>
    <g id="xtick_2">
     <g id="line2d_3">
      <path d="M 239.87204 265.0705 
L 239.87204 34.596 
" clip-path="url(#pb8e9820a03)" style="fill: none; stroke: #b0b0b0; stroke-width: 0.8; stroke-linecap: square"/>
     </g>
     <g id="line2d_4">
      <g>
       <use xlink:href="#m14989935a2" x="239.87204" y="265.0705" style="stroke: #000000; stroke-width: 0.8"/>
      </g>
     </g>
     <g id="text_2">
      <!-- $\mathdefault{10^{1}}$ -->
      <g transform="translate(223.19204 288.46175) scale(0.24 -0.24)">
       <use xlink:href="#TeXGyreTermes-Regular-31" transform="translate(0 0.184375)"/>
       <use xlink:href="#TeXGyreTermes-Regular-30" transform="translate(49.999985 0.184375)"/>
       <use xlink:href="#TeXGyreTermes-Regular-31" transform="translate(100.787469 31.684375) scale(0.7)"/>
      </g>
     </g>
    </g>
    <g id="xtick_3">
     <g id="line2d_5">
      <path d="M 354.652148 265.0705 
L 354.652148 34.596 
" clip-path="url(#pb8e9820a03)" style="fill: none; stroke: #b0b0b0; stroke-width: 0.8; stroke-linecap: square"/>
     </g>
     <g id="line2d_6">
      <g>
       <use xlink:href="#m14989935a2" x="354.652148" y="265.0705" style="stroke: #000000; stroke-width: 0.8"/>
      </g>
     </g>
     <g id="text_3">
      <!-- $\mathdefault{10^{2}}$ -->
      <g transform="translate(337.972148 288.46175) scale(0.24 -0.24)">
       <defs>
        <path id="TeXGyreTermes-Regular-32" d="M 3040 877 
L 2957 909 
C 2720 544 2637 486 2349 486 
L 819 486 
L 1894 1613 
C 2464 2208 2714 2694 2714 3194 
C 2714 3834 2195 4326 1530 4326 
C 1178 4326 845 4186 608 3930 
C 403 3712 307 3507 198 3053 
L 333 3021 
C 589 3648 819 3853 1261 3853 
C 1798 3853 2163 3488 2163 2950 
C 2163 2451 1869 1856 1331 1286 
L 192 77 
L 192 0 
L 2688 0 
L 3040 877 
z
" transform="scale(0.015625)"/>
       </defs>
       <use xlink:href="#TeXGyreTermes-Regular-31" transform="translate(0 0.184375)"/>
       <use xlink:href="#TeXGyreTermes-Regular-30" transform="translate(49.999985 0.184375)"/>
       <use xlink:href="#TeXGyreTermes-Regular-32" transform="translate(100.787469 31.684375) scale(0.7)"/>
      </g>
     </g>
    </g>
    <g id="xtick_4">
     <g id="line2d_7">
      <defs>
       <path id="m8a7a21d791" d="M 0 0 
L 0 2 
" style="stroke: #000000; stroke-width: 0.6"/>
      </defs>
      <g>
       <use xlink:href="#m8a7a21d791" x="113.968591" y="265.0705" style="stroke: #000000; stroke-width: 0.6"/>
      </g>
     </g>
    </g>
    <g id="xtick_5">
     <g id="line2d_8">
      <g>
       <use xlink:href="#m8a7a21d791" x="119.839883" y="265.0705" style="stroke: #000000; stroke-width: 0.6"/>
      </g>
     </g>
    </g>
    <g id="xtick_6">
     <g id="line2d_9">
      <g>
       <use xlink:href="#m8a7a21d791" x="159.644188" y="265.0705" style="stroke: #000000; stroke-width: 0.6"/>
      </g>
     </g>
    </g>
    <g id="xtick_7">
     <g id="line2d_10">
      <g>
       <use xlink:href="#m8a7a21d791" x="179.855961" y="265.0705" style="stroke: #000000; stroke-width: 0.6"/>
      </g>
     </g>
    </g>
    <g id="xtick_8">
     <g id="line2d_11">
      <g>
       <use xlink:href="#m8a7a21d791" x="194.196443" y="265.0705" style="stroke: #000000; stroke-width: 0.6"/>
      </g>
     </g>
    </g>
    <g id="xtick_9">
     <g id="line2d_12">
      <g>
       <use xlink:href="#m8a7a21d791" x="205.319785" y="265.0705" style="stroke: #000000; stroke-width: 0.6"/>
      </g>
     </g>
    </g>
    <g id="xtick_10">
     <g id="line2d_13">
      <g>
       <use xlink:href="#m8a7a21d791" x="214.408217" y="265.0705" style="stroke: #000000; stroke-width: 0.6"/>
      </g>
     </g>
    </g>
    <g id="xtick_11">
     <g id="line2d_14">
      <g>
       <use xlink:href="#m8a7a21d791" x="222.092376" y="265.0705" style="stroke: #000000; stroke-width: 0.6"/>
      </g>
     </g>
    </g>
    <g id="xtick_12">
     <g id="line2d_15">
      <g>
       <use xlink:href="#m8a7a21d791" x="228.748698" y="265.0705" style="stroke: #000000; stroke-width: 0.6"/>
      </g>
     </g>
    </g>
    <g id="xtick_13">
     <g id="line2d_16">
      <g>
       <use xlink:href="#m8a7a21d791" x="234.61999" y="265.0705" style="stroke: #000000; stroke-width: 0.6"/>
      </g>
     </g>
    </g>
    <g id="xtick_14">
     <g id="line2d_17">
      <g>
       <use xlink:href="#m8a7a21d791" x="274.424295" y="265.0705" style="stroke: #000000; stroke-width: 0.6"/>
      </g>
     </g>
    </g>
    <g id="xtick_15">
     <g id="line2d_18">
      <g>
       <use xlink:href="#m8a7a21d791" x="294.636069" y="265.0705" style="stroke: #000000; stroke-width: 0.6"/>
      </g>
     </g>
    </g>
    <g id="xtick_16">
     <g id="line2d_19">
      <g>
       <use xlink:href="#m8a7a21d791" x="308.976551" y="265.0705" style="stroke: #000000; stroke-width: 0.6"/>
      </g>
     </g>
    </g>
    <g id="xtick_17">
     <g id="line2d_20">
      <g>
       <use xlink:href="#m8a7a21d791" x="320.099892" y="265.0705" style="stroke: #000000; stroke-width: 0.6"/>
      </g>
     </g>
    </g>
    <g id="xtick_18">
     <g id="line2d_21">
      <g>
       <use xlink:href="#m8a7a21d791" x="329.188324" y="265.0705" style="stroke: #000000; stroke-width: 0.6"/>
      </g>
     </g>
    </g>
    <g id="xtick_19">
     <g id="line2d_22">
      <g>
       <use xlink:href="#m8a7a21d791" x="336.872484" y="265.0705" style="stroke: #000000; stroke-width: 0.6"/>
      </g>
     </g>
    </g>
    <g id="xtick_20">
     <g id="line2d_23">
      <g>
       <use xlink:href="#m8a7a21d791" x="343.528806" y="265.0705" style="stroke: #000000; stroke-width: 0.6"/>
      </g>
     </g>
    </g>
    <g id="xtick_21">
     <g id="line2d_24">
      <g>
       <use xlink:href="#m8a7a21d791" x="349.400098" y="265.0705" style="stroke: #000000; stroke-width: 0.6"/>
      </g>
     </g>
    </g>
    <g id="xtick_22">
     <g id="line2d_25">
      <g>
       <use xlink:href="#m8a7a21d791" x="389.204403" y="265.0705" style="stroke: #000000; stroke-width: 0.6"/>
      </g>
     </g>
    </g>
    <g id="xtick_23">
     <g id="line2d_26">
      <g>
       <use xlink:href="#m8a7a21d791" x="409.416177" y="265.0705" style="stroke: #000000; stroke-width: 0.6"/>
      </g>
     </g>
    </g>
    <g id="xtick_24">
     <g id="line2d_27">
      <g>
       <use xlink:href="#m8a7a21d791" x="423.756658" y="265.0705" style="stroke: #000000; stroke-width: 0.6"/>
      </g>
     </g>
    </g>
    <g id="xtick_25">
     <g id="line2d_28">
      <g>
       <use xlink:href="#m8a7a21d791" x="434.88" y="265.0705" style="stroke: #000000; stroke-width: 0.6"/>
      </g>
     </g>
    </g>
    <g id="text_4">
     <!-- Frequenz in Hz -->
     <g transform="translate(198.261884 314.06175) scale(0.24 -0.24)">
      <defs>
       <path id="TeXGyreTermes-Regular-46" d="M 3494 3322 
L 3475 4237 
L 77 4237 
L 77 4115 
C 550 4077 634 3987 634 3539 
L 634 768 
C 634 237 563 154 77 122 
L 77 0 
L 1869 0 
L 1869 122 
C 1376 147 1286 237 1286 698 
L 1286 2093 
L 2214 2093 
C 2733 2093 2842 1997 2918 1478 
L 3066 1478 
L 3066 2963 
L 2918 2963 
C 2842 2451 2726 2355 2214 2355 
L 1286 2355 
L 1286 3776 
C 1286 3955 1318 3994 1491 3994 
L 2362 3994 
C 3085 3994 3226 3898 3334 3322 
L 3494 3322 
z
" transform="scale(0.015625)"/>
       <path id="TeXGyreTermes-Regular-72" d="M 2144 2605 
C 2144 2816 2010 2944 1792 2944 
C 1523 2944 1338 2797 1024 2342 
L 1024 2931 
L 992 2944 
C 653 2803 422 2720 45 2598 
L 45 2496 
C 134 2515 192 2522 269 2522 
C 429 2522 486 2419 486 2138 
L 486 538 
C 486 218 442 173 32 96 
L 32 0 
L 1568 0 
L 1568 96 
C 1133 115 1024 211 1024 576 
L 1024 2016 
C 1024 2221 1299 2541 1472 2541 
C 1510 2541 1568 2509 1638 2445 
C 1741 2355 1811 2317 1894 2317 
C 2048 2317 2144 2426 2144 2605 
z
" transform="scale(0.015625)"/>
       <path id="TeXGyreTermes-Regular-65" d="M 2714 1005 
L 2611 1050 
C 2304 563 2029 378 1619 378 
C 1267 378 998 544 813 890 
C 685 1139 634 1363 621 1773 
L 2592 1773 
C 2541 2189 2477 2374 2317 2579 
C 2125 2810 1830 2944 1498 2944 
C 704 2944 160 2304 160 1370 
C 160 486 621 -64 1357 -64 
C 1971 -64 2445 314 2714 1005 
z
M 1939 1978 
L 634 1978 
C 704 2483 922 2714 1312 2714 
C 1702 2714 1856 2534 1939 1978 
z
" transform="scale(0.015625)"/>
       <path id="TeXGyreTermes-Regular-71" d="M 3123 -1389 
L 3123 -1299 
C 2771 -1222 2720 -1171 2720 -902 
L 2720 2925 
L 2650 2925 
L 2304 2720 
C 2010 2893 1818 2950 1568 2950 
C 768 2950 154 2234 154 1312 
C 154 506 576 -64 1178 -64 
C 1549 -64 1901 102 2182 410 
L 2182 -794 
C 2182 -1152 2067 -1248 1613 -1280 
L 1613 -1389 
L 3123 -1389 
z
M 2182 813 
C 2182 659 2157 576 2093 525 
C 1952 403 1741 326 1542 326 
C 1344 326 1171 390 1043 518 
C 838 704 704 1120 704 1542 
C 704 2298 1043 2771 1587 2771 
C 1984 2771 2182 2560 2182 2131 
L 2182 813 
z
" transform="scale(0.015625)"/>
       <path id="TeXGyreTermes-Regular-75" d="M 3066 230 
L 3066 320 
L 3034 320 
C 2739 320 2669 390 2669 685 
L 2669 2880 
L 1658 2880 
L 1658 2771 
C 2054 2752 2131 2688 2131 2368 
L 2131 864 
C 2131 691 2099 595 2022 538 
C 1843 384 1645 307 1446 307 
C 1197 307 992 525 992 794 
L 992 2880 
L 58 2880 
L 58 2790 
C 365 2771 454 2675 454 2381 
L 454 768 
C 454 262 762 -64 1229 -64 
C 1466 -64 1715 38 1888 211 
L 2163 486 
L 2163 -45 
L 2189 -58 
C 2509 70 2739 141 3066 230 
z
" transform="scale(0.015625)"/>
       <path id="TeXGyreTermes-Regular-6e" d="M 3104 0 
L 3104 96 
C 2790 128 2714 205 2714 518 
L 2714 1984 
C 2714 2586 2432 2944 1958 2944 
C 1664 2944 1466 2835 1030 2426 
L 1030 2931 
L 986 2944 
C 672 2829 454 2758 102 2656 
L 102 2547 
C 141 2566 205 2573 275 2573 
C 454 2573 512 2477 512 2163 
L 512 576 
C 512 211 442 122 115 96 
L 115 0 
L 1472 0 
L 1472 96 
C 1146 122 1050 198 1050 429 
L 1050 2227 
C 1357 2515 1498 2592 1709 2592 
C 2022 2592 2176 2394 2176 1971 
L 2176 634 
C 2176 230 2093 122 1773 96 
L 1773 0 
L 3104 0 
z
" transform="scale(0.015625)"/>
       <path id="TeXGyreTermes-Regular-7a" d="M 2675 864 
L 2560 890 
C 2496 570 2458 467 2374 358 
C 2285 250 2067 192 1741 192 
L 858 192 
L 2579 2784 
L 2579 2880 
L 358 2880 
L 339 2125 
L 454 2125 
C 512 2592 608 2688 992 2688 
L 1875 2688 
L 173 96 
L 173 0 
L 2586 0 
L 2675 864 
z
" transform="scale(0.015625)"/>
       <path id="TeXGyreTermes-Regular-20" transform="scale(0.015625)"/>
       <path id="TeXGyreTermes-Regular-69" d="M 1619 0 
L 1619 96 
C 1197 128 1146 192 1146 653 
L 1146 2925 
L 1120 2944 
L 128 2592 
L 128 2496 
L 179 2502 
C 256 2515 339 2522 397 2522 
C 550 2522 608 2419 608 2138 
L 608 653 
C 608 192 544 122 102 96 
L 102 0 
L 1619 0 
z
M 1203 3776 
C 1203 3955 1062 4102 877 4102 
C 698 4102 550 3955 550 3776 
C 550 3590 698 3450 877 3450 
C 1062 3450 1203 3590 1203 3776 
z
" transform="scale(0.015625)"/>
       <path id="TeXGyreTermes-Regular-48" d="M 4493 0 
L 4493 122 
C 4013 160 3930 243 3930 698 
L 3930 3539 
C 3930 4000 4000 4070 4493 4115 
L 4493 4237 
L 2714 4237 
L 2714 4115 
C 3206 4070 3277 4000 3277 3539 
L 3277 2298 
L 1338 2298 
L 1338 3539 
C 1338 4000 1408 4070 1901 4115 
L 1901 4237 
L 122 4237 
L 122 4115 
C 614 4070 685 4000 685 3539 
L 685 768 
C 685 230 621 154 122 122 
L 122 0 
L 1901 0 
L 1901 122 
C 1421 160 1338 243 1338 698 
L 1338 2016 
L 3277 2016 
L 3277 768 
C 3277 230 3213 154 2714 122 
L 2714 0 
L 4493 0 
z
" transform="scale(0.015625)"/>
      </defs>
      <use xlink:href="#TeXGyreTermes-Regular-46"/>
      <use xlink:href="#TeXGyreTermes-Regular-72" transform="translate(55.599991 0)"/>
      <use xlink:href="#TeXGyreTermes-Regular-65" transform="translate(88.899979 0)"/>
      <use xlink:href="#TeXGyreTermes-Regular-71" transform="translate(133.299973 0)"/>
      <use xlink:href="#TeXGyreTermes-Regular-75" transform="translate(183.299957 0)"/>
      <use xlink:href="#TeXGyreTermes-Regular-65" transform="translate(233.299942 0)"/>
      <use xlink:href="#TeXGyreTermes-Regular-6e" transform="translate(277.699936 0)"/>
      <use xlink:href="#TeXGyreTermes-Regular-7a" transform="translate(327.699921 0)"/>
      <use xlink:href="#TeXGyreTermes-Regular-20" transform="translate(372.099915 0)"/>
      <use xlink:href="#TeXGyreTermes-Regular-69" transform="translate(397.099899 0)"/>
      <use xlink:href="#TeXGyreTermes-Regular-6e" transform="translate(424.899887 0)"/>
      <use xlink:href="#TeXGyreTermes-Regular-20" transform="translate(474.899872 0)"/>
      <use xlink:href="#TeXGyreTermes-Regular-48" transform="translate(499.899857 0)"/>
      <use xlink:href="#TeXGyreTermes-Regular-7a" transform="translate(572.099838 0)"/>
     </g>
    </g>
   </g>
   <g id="matplotlib.axis_2">
    <g id="ytick_1">
     <g id="line2d_29">
      <path d="M 109.607519 265.0705 
L 434.88 265.0705 
" clip-path="url(#pb8e9820a03)" style="fill: none; stroke: #b0b0b0; stroke-width: 0.8; stroke-linecap: square"/>
     </g>
     <g id="line2d_30">
      <defs>
       <path id="mde2400120b" d="M 0 0 
L -3.5 0 
" style="stroke: #000000; stroke-width: 0.8"/>
      </defs>
      <g>
       <use xlink:href="#mde2400120b" x="109.607519" y="265.0705" style="stroke: #000000; stroke-width: 0.8"/>
      </g>
     </g>
     <g id="text_5">
      <!-- $\mathdefault{10^{-12}}$ -->
      <g transform="translate(51.487519 273.266125) scale(0.24 -0.24)">
       <defs>
        <path id="TeXGyreTermes-Regular-2212" d="M 3354 1389 
L 3354 1811 
L 256 1811 
L 256 1389 
L 3354 1389 
z
" transform="scale(0.015625)"/>
       </defs>
       <use xlink:href="#TeXGyreTermes-Regular-31" transform="translate(0 0.184375)"/>
       <use xlink:href="#TeXGyreTermes-Regular-30" transform="translate(49.999985 0.184375)"/>
       <use xlink:href="#TeXGyreTermes-Regular-2212" transform="translate(100.787469 31.684375) scale(0.7)"/>
       <use xlink:href="#TeXGyreTermes-Regular-31" transform="translate(140.267465 31.684375) scale(0.7)"/>
       <use xlink:href="#TeXGyreTermes-Regular-32" transform="translate(175.267455 31.684375) scale(0.7)"/>
      </g>
     </g>
    </g>
    <g id="ytick_2">
     <g id="line2d_31">
      <path d="M 109.607519 207.451875 
L 434.88 207.451875 
" clip-path="url(#pb8e9820a03)" style="fill: none; stroke: #b0b0b0; stroke-width: 0.8; stroke-linecap: square"/>
     </g>
     <g id="line2d_32">
      <g>
       <use xlink:href="#mde2400120b" x="109.607519" y="207.451875" style="stroke: #000000; stroke-width: 0.8"/>
      </g>
     </g>
     <g id="text_6">
      <!-- $\mathdefault{10^{-9}}$ -->
      <g transform="translate(59.887519 215.6475) scale(0.24 -0.24)">
       <defs>
        <path id="TeXGyreTermes-Regular-39" d="M 2938 2522 
C 2938 3578 2349 4326 1523 4326 
C 762 4326 192 3680 192 2816 
C 192 2035 653 1517 1344 1517 
C 1696 1517 1965 1619 2304 1882 
C 2042 838 1331 154 358 -13 
L 378 -141 
C 1094 -58 1446 64 1882 378 
C 2547 864 2938 1658 2938 2522 
z
M 2317 2272 
C 2317 2144 2291 2086 2221 2029 
C 2042 1875 1805 1792 1574 1792 
C 1088 1792 781 2272 781 3034 
C 781 3398 883 3782 1018 3949 
C 1126 4077 1286 4147 1472 4147 
C 2029 4147 2317 3597 2317 2522 
L 2317 2272 
z
" transform="scale(0.015625)"/>
       </defs>
       <use xlink:href="#TeXGyreTermes-Regular-31" transform="translate(0 0.184375)"/>
       <use xlink:href="#TeXGyreTermes-Regular-30" transform="translate(49.999985 0.184375)"/>
       <use xlink:href="#TeXGyreTermes-Regular-2212" transform="translate(100.787469 31.684375) scale(0.7)"/>
       <use xlink:href="#TeXGyreTermes-Regular-39" transform="translate(140.267465 31.684375) scale(0.7)"/>
      </g>
     </g>
    </g>
    <g id="ytick_3">
     <g id="line2d_33">
      <path d="M 109.607519 149.83325 
L 434.88 149.83325 
" clip-path="url(#pb8e9820a03)" style="fill: none; stroke: #b0b0b0; stroke-width: 0.8; stroke-linecap: square"/>
     </g>
     <g id="line2d_34">
      <g>
       <use xlink:href="#mde2400120b" x="109.607519" y="149.83325" style="stroke: #000000; stroke-width: 0.8"/>
      </g>
     </g>
     <g id="text_7">
      <!-- $\mathdefault{10^{-6}}$ -->
      <g transform="translate(59.887519 158.028875) scale(0.24 -0.24)">
       <defs>
        <path id="TeXGyreTermes-Regular-36" d="M 2995 1402 
C 2995 2221 2528 2739 1792 2739 
C 1510 2739 1376 2694 973 2451 
C 1146 3418 1862 4109 2867 4275 
L 2854 4378 
C 2125 4314 1754 4192 1286 3866 
C 595 3373 218 2643 218 1786 
C 218 1229 390 666 666 346 
C 909 64 1254 -90 1651 -90 
C 2445 -90 2995 518 2995 1402 
z
M 2419 1184 
C 2419 480 2170 90 1722 90 
C 1158 90 813 691 813 1683 
C 813 2010 864 2189 992 2285 
C 1126 2387 1325 2445 1549 2445 
C 2099 2445 2419 1984 2419 1184 
z
" transform="scale(0.015625)"/>
       </defs>
       <use xlink:href="#TeXGyreTermes-Regular-31" transform="translate(0 0.615625)"/>
       <use xlink:href="#TeXGyreTermes-Regular-30" transform="translate(49.999985 0.615625)"/>
       <use xlink:href="#TeXGyreTermes-Regular-2212" transform="translate(100.787469 32.115625) scale(0.7)"/>
       <use xlink:href="#TeXGyreTermes-Regular-36" transform="translate(140.267465 32.115625) scale(0.7)"/>
      </g>
     </g>
    </g>
    <g id="ytick_4">
     <g id="line2d_35">
      <path d="M 109.607519 92.214625 
L 434.88 92.214625 
" clip-path="url(#pb8e9820a03)" style="fill: none; stroke: #b0b0b0; stroke-width: 0.8; stroke-linecap: square"/>
     </g>
     <g id="line2d_36">
      <g>
       <use xlink:href="#mde2400120b" x="109.607519" y="92.214625" style="stroke: #000000; stroke-width: 0.8"/>
      </g>
     </g>
     <g id="text_8">
      <!-- $\mathdefault{10^{-3}}$ -->
      <g transform="translate(59.887519 100.41025) scale(0.24 -0.24)">
       <defs>
        <path id="TeXGyreTermes-Regular-33" d="M 2765 1402 
C 2765 1728 2662 2029 2477 2227 
C 2349 2368 2227 2445 1946 2566 
C 2387 2867 2547 3104 2547 3450 
C 2547 3968 2138 4326 1549 4326 
C 1229 4326 947 4218 717 4013 
C 525 3840 429 3674 288 3290 
L 384 3264 
C 646 3731 934 3942 1338 3942 
C 1754 3942 2042 3661 2042 3258 
C 2042 3027 1946 2797 1786 2637 
C 1594 2445 1414 2349 979 2195 
L 979 2112 
C 1357 2112 1504 2099 1658 2042 
C 2054 1901 2304 1536 2304 1094 
C 2304 557 1939 141 1466 141 
C 1293 141 1165 186 928 339 
C 736 454 627 499 518 499 
C 371 499 275 410 275 275 
C 275 51 550 -90 998 -90 
C 1491 -90 1997 77 2298 339 
C 2598 602 2765 973 2765 1402 
z
" transform="scale(0.015625)"/>
       </defs>
       <use xlink:href="#TeXGyreTermes-Regular-31" transform="translate(0 0.184375)"/>
       <use xlink:href="#TeXGyreTermes-Regular-30" transform="translate(49.999985 0.184375)"/>
       <use xlink:href="#TeXGyreTermes-Regular-2212" transform="translate(100.787469 31.684375) scale(0.7)"/>
       <use xlink:href="#TeXGyreTermes-Regular-33" transform="translate(140.267465 31.684375) scale(0.7)"/>
      </g>
     </g>
    </g>
    <g id="ytick_5">
     <g id="line2d_37">
      <path d="M 109.607519 34.596 
L 434.88 34.596 
" clip-path="url(#pb8e9820a03)" style="fill: none; stroke: #b0b0b0; stroke-width: 0.8; stroke-linecap: square"/>
     </g>
     <g id="line2d_38">
      <g>
       <use xlink:href="#mde2400120b" x="109.607519" y="34.596" style="stroke: #000000; stroke-width: 0.8"/>
      </g>
     </g>
     <g id="text_9">
      <!-- $\mathdefault{10^{0}}$ -->
      <g transform="translate(69.247519 42.791625) scale(0.24 -0.24)">
       <use xlink:href="#TeXGyreTermes-Regular-31" transform="translate(0 0.184375)"/>
       <use xlink:href="#TeXGyreTermes-Regular-30" transform="translate(49.999985 0.184375)"/>
       <use xlink:href="#TeXGyreTermes-Regular-30" transform="translate(100.787469 31.684375) scale(0.7)"/>
      </g>
     </g>
    </g>
    <g id="text_10">
     <!-- Leistung -->
     <g transform="translate(42.256269 191.83325) rotate(-90) scale(0.24 -0.24)">
      <defs>
       <path id="TeXGyreTermes-Regular-4c" d="M 3827 1114 
L 3667 1114 
C 3565 890 3482 742 3392 640 
C 3168 371 2816 250 2266 250 
L 1837 250 
C 1370 250 1286 288 1286 512 
L 1286 3539 
C 1286 3994 1376 4083 1882 4115 
L 1882 4237 
L 77 4237 
L 77 4115 
C 550 4077 634 3994 634 3539 
L 634 698 
C 634 243 544 154 77 122 
L 77 0 
L 3520 0 
L 3827 1114 
z
" transform="scale(0.015625)"/>
       <path id="TeXGyreTermes-Regular-73" d="M 2227 755 
C 2227 1075 2080 1286 1690 1517 
L 998 1926 
C 819 2029 723 2189 723 2362 
C 723 2624 922 2797 1216 2797 
C 1581 2797 1773 2586 1920 2010 
L 2016 2010 
L 1990 2880 
L 1920 2880 
L 1907 2867 
C 1850 2822 1843 2816 1818 2816 
C 1779 2816 1715 2829 1645 2861 
C 1510 2912 1363 2938 1210 2938 
C 685 2938 326 2618 326 2150 
C 326 1792 531 1542 1075 1229 
L 1446 1018 
C 1670 890 1779 736 1779 538 
C 1779 256 1574 77 1248 77 
C 806 77 582 320 435 973 
L 333 973 
L 333 -26 
L 416 -26 
C 461 38 486 51 563 51 
C 634 51 704 38 858 0 
C 1037 -38 1197 -64 1331 -64 
C 1818 -64 2227 307 2227 755 
z
" transform="scale(0.015625)"/>
       <path id="TeXGyreTermes-Regular-74" d="M 1786 422 
L 1702 493 
C 1562 326 1459 269 1318 269 
C 1082 269 986 435 986 845 
L 986 2675 
L 1632 2675 
L 1632 2880 
L 986 2880 
L 986 3622 
C 986 3686 973 3706 941 3706 
C 902 3642 858 3584 813 3526 
C 576 3174 358 2938 192 2842 
C 122 2797 83 2758 83 2720 
C 83 2701 90 2688 109 2675 
L 448 2675 
L 448 749 
C 448 211 640 -64 1011 -64 
C 1331 -64 1574 90 1786 422 
z
" transform="scale(0.015625)"/>
       <path id="TeXGyreTermes-Regular-67" d="M 3008 2483 
L 3008 2733 
L 2515 2733 
C 2387 2733 2291 2752 2163 2797 
L 2022 2848 
C 1850 2912 1677 2944 1510 2944 
C 915 2944 442 2483 442 1901 
C 442 1498 614 1254 1037 1043 
L 762 787 
C 550 602 467 474 467 346 
C 467 211 544 134 806 6 
C 352 -326 179 -538 179 -774 
C 179 -1114 678 -1395 1286 -1395 
C 1766 -1395 2266 -1229 2598 -960 
C 2842 -762 2950 -557 2950 -314 
C 2950 83 2650 352 2176 371 
L 1350 410 
C 1011 422 851 480 851 582 
C 851 710 1062 934 1235 986 
C 1293 979 1338 973 1357 973 
C 1478 960 1562 954 1600 954 
C 1837 954 2093 1050 2291 1222 
C 2502 1402 2598 1626 2598 1946 
C 2598 2131 2566 2278 2477 2483 
L 3008 2483 
z
M 2771 -410 
C 2771 -781 2285 -1030 1562 -1030 
C 998 -1030 627 -845 627 -563 
C 627 -416 672 -333 941 -13 
C 1152 -58 1664 -96 1978 -96 
C 2560 -96 2771 -179 2771 -410 
z
M 2106 1696 
C 2106 1338 1920 1114 1626 1114 
C 1242 1114 973 1530 973 2144 
L 973 2163 
C 973 2541 1152 2765 1446 2765 
C 1645 2765 1811 2656 1914 2464 
C 2029 2240 2106 1946 2106 1696 
z
" transform="scale(0.015625)"/>
      </defs>
      <use xlink:href="#TeXGyreTermes-Regular-4c"/>
      <use xlink:href="#TeXGyreTermes-Regular-65" transform="translate(61.099991 0)"/>
      <use xlink:href="#TeXGyreTermes-Regular-69" transform="translate(105.499985 0)"/>
      <use xlink:href="#TeXGyreTermes-Regular-73" transform="translate(133.299973 0)"/>
      <use xlink:href="#TeXGyreTermes-Regular-74" transform="translate(172.199966 0)"/>
      <use xlink:href="#TeXGyreTermes-Regular-75" transform="translate(199.999954 0)"/>
      <use xlink:href="#TeXGyreTermes-Regular-6e" transform="translate(249.999939 0)"/>
      <use xlink:href="#TeXGyreTermes-Regular-67" transform="translate(299.999924 0)"/>
     </g>
    </g>
   </g>
   <g id="line2d_39">
    <path d="M -1 97.45998 
L 125.091932 97.464318 
L 159.644188 106.634364 
L 179.855961 92.15319 
L 194.196443 110.529239 
L 205.319785 78.408345 
L 214.408217 85.268285 
L 222.092376 88.510162 
L 228.748698 98.657543 
L 234.61999 116.91468 
L 239.87204 90.384587 
L 244.623097 95.012554 
L 248.960472 103.877864 
L 252.95047 99.479721 
L 256.644632 99.949816 
L 260.083814 100.783318 
L 263.300954 88.861206 
L 266.322992 121.731199 
L 269.172246 100.698659 
L 271.867408 96.868327 
L 274.424295 87.953339 
L 276.856405 86.107671 
L 279.175352 110.788337 
L 281.3912 86.731343 
L 283.512727 98.530114 
L 285.547637 111.433442 
L 287.502726 86.684485 
L 289.384019 83.010523 
L 291.196887 107.775878 
L 292.946132 103.607266 
L 294.636069 95.895355 
L 296.270588 86.42539 
L 297.853209 90.138142 
L 299.387126 79.323475 
L 300.875247 86.109679 
L 302.320229 88.3422 
L 303.724501 85.841736 
L 305.090295 96.177902 
L 306.419664 109.110225 
L 307.714499 90.700763 
L 308.976551 105.838953 
L 310.207437 93.102542 
L 311.408661 85.06252 
L 312.581618 118.318204 
L 313.727608 102.761304 
L 314.847843 102.631803 
L 315.943455 88.055752 
L 317.015505 96.380248 
L 318.064983 110.350381 
L 319.09282 87.635467 
L 320.099892 110.936128 
L 321.087021 99.518998 
L 322.054981 97.679557 
L 323.004502 99.556091 
L 323.936275 129.561134 
L 324.850949 91.99768 
L 325.749142 87.521599 
L 326.631437 88.954383 
L 327.498387 99.233791 
L 328.350517 82.070734 
L 329.188324 105.146555 
L 330.012283 92.778553 
L 330.822843 90.743986 
L 331.620434 102.134583 
L 332.405464 104.539463 
L 333.178323 89.863 
L 333.939381 106.601679 
L 334.688995 104.662012 
L 335.427503 93.134535 
L 336.155229 99.058374 
L 336.872484 96.748406 
L 337.579565 93.078066 
L 338.276756 99.799555 
L 338.964331 93.451991 
L 339.64255 88.794866 
L 340.311666 94.857204 
L 340.971919 76.213152 
L 341.623541 114.006381 
L 342.266755 98.65965 
L 343.528806 104.728486 
L 344.148048 98.68374 
L 344.759692 96.633536 
L 345.363922 98.853116 
L 345.960916 102.648649 
L 346.550844 92.738996 
L 347.133873 89.150596 
L 347.710161 103.892824 
L 348.279863 85.48539 
L 348.843127 89.659217 
L 349.400098 91.115507 
L 350.495711 97.548735 
L 351.034617 126.454521 
L 351.56776 100.755412 
L 352.095261 96.394493 
L 352.617238 88.239374 
L 353.133806 84.435911 
L 353.645076 109.115217 
L 354.151155 116.477689 
L 354.652148 87.104906 
L 355.639276 102.555694 
L 356.125606 97.623927 
L 356.607236 90.731788 
L 357.084258 95.801244 
L 357.556758 96.265853 
L 358.024821 87.552373 
L 358.48853 88.390184 
L 358.947965 91.416556 
L 359.403205 115.102849 
L 359.854324 89.183524 
L 360.301398 132.992285 
L 360.744497 101.164518 
L 361.183693 115.084124 
L 361.619052 101.319811 
L 362.050643 103.538742 
L 362.478528 103.351919 
L 362.902772 90.732404 
L 363.323436 82.156129 
L 363.74058 92.754593 
L 364.154261 98.627055 
L 364.564538 85.346697 
L 364.971466 102.449995 
L 365.375099 86.89641 
L 365.775489 101.469634 
L 366.17269 98.694132 
L 366.56675 91.725857 
L 366.95772 96.681436 
L 367.345647 74.840454 
L 368.11256 111.919767 
L 368.491636 91.799251 
L 368.867852 94.047796 
L 369.24125 83.693791 
L 369.611872 102.463927 
L 370.344949 80.866235 
L 370.707484 101.047662 
L 371.067402 100.044691 
L 371.424739 90.43937 
L 371.779533 101.990038 
L 372.13182 90.730937 
L 372.481635 108.305596 
L 372.829012 93.260812 
L 373.173984 91.669437 
L 373.516586 117.960693 
L 373.856849 105.615474 
L 374.194806 101.673734 
L 374.530486 94.803846 
L 374.863921 103.047956 
L 375.195141 82.262432 
L 375.524174 117.07035 
L 375.85105 83.38649 
L 376.175796 85.810288 
L 376.49844 93.235815 
L 376.81901 103.364595 
L 377.137531 92.882647 
L 377.45403 129.927718 
L 377.768531 89.855729 
L 378.081061 82.508241 
L 378.391644 94.114016 
L 378.700304 94.453028 
L 379.007064 76.294748 
L 379.614978 108.89422 
L 379.916178 87.843 
L 380.215568 88.192182 
L 380.513171 96.052924 
L 380.809008 110.452005 
L 381.1031 96.606474 
L 381.686128 91.216351 
L 381.975105 105.96093 
L 382.262416 103.879539 
L 382.548081 104.827512 
L 382.832118 104.036938 
L 383.114546 89.890702 
L 383.395382 100.269331 
L 383.674646 88.999844 
L 383.952353 96.901717 
L 384.228522 88.483988 
L 384.50317 106.747795 
L 384.776312 103.48747 
L 385.047966 103.468206 
L 385.318147 111.983791 
L 385.586872 92.50821 
L 385.854157 86.69331 
L 386.120015 86.897228 
L 386.384463 90.962922 
L 386.647516 106.730038 
L 387.169493 103.690684 
L 387.428446 104.733818 
L 387.686061 96.70958 
L 387.942352 99.09612 
L 388.197331 99.239141 
L 388.451013 84.412412 
L 388.70341 89.470052 
L 388.954536 84.659408 
L 389.204403 95.406852 
L 389.453024 96.261648 
L 389.700411 95.051645 
L 389.946576 128.353227 
L 390.435289 89.319434 
L 390.677861 95.366425 
L 391.159492 86.048225 
L 391.398573 99.232373 
L 391.636513 89.360691 
L 391.873323 115.999203 
L 392.109013 91.643259 
L 392.343594 111.60228 
L 392.577076 107.920384 
L 392.80947 91.761421 
L 393.040785 87.395293 
L 393.271032 90.32285 
L 393.50022 86.735548 
L 393.72836 91.012555 
L 393.95546 88.269431 
L 394.18153 93.549666 
L 394.406579 91.16018 
L 394.630617 96.112525 
L 394.853653 107.617098 
L 395.075695 100.539343 
L 395.296752 87.779774 
L 395.516834 96.406701 
L 395.735948 89.576659 
L 395.954103 105.667879 
L 396.171308 85.191304 
L 396.38757 87.490328 
L 396.602898 88.103633 
L 396.8173 88.016763 
L 397.030784 90.778456 
L 397.243357 109.024666 
L 397.455028 84.531037 
L 397.665803 89.899407 
L 397.875691 91.263535 
L 398.084699 103.755511 
L 398.292835 89.867493 
L 398.500105 102.717948 
L 398.706517 90.556735 
L 398.912077 97.062852 
L 399.116794 89.627897 
L 399.320673 101.855442 
L 399.523721 93.691471 
L 399.725946 90.378204 
L 399.927354 101.750776 
L 400.127951 103.236227 
L 400.327745 92.634722 
L 400.52674 123.476641 
L 400.724945 94.624731 
L 400.922364 102.710504 
L 401.119005 88.745372 
L 401.314873 106.501964 
L 401.509975 89.319595 
L 401.704316 97.902104 
L 401.897902 100.592038 
L 402.090739 91.341676 
L 402.282833 104.903561 
L 402.47419 87.699163 
L 402.664815 94.130527 
L 402.854714 89.525958 
L 403.043892 101.742237 
L 403.420108 86.149315 
L 403.607156 95.758467 
L 403.793505 122.575811 
L 403.979161 98.221513 
L 404.164127 109.563628 
L 404.348409 78.502392 
L 404.532013 102.79214 
L 404.714943 86.936365 
L 404.897204 89.281171 
L 405.078802 94.336133 
L 405.25974 87.329685 
L 405.440023 92.006331 
L 405.619657 111.389442 
L 405.798646 106.033507 
L 405.976995 90.653999 
L 406.154707 92.868966 
L 406.331789 117.632521 
L 406.508243 85.250899 
L 407.03389 113.22164 
L 407.207881 89.583258 
L 407.381267 93.27297 
L 407.554052 110.526043 
L 407.72624 107.73487 
L 407.897835 90.348521 
L 408.068841 88.710189 
L 408.239263 91.252343 
L 408.409105 84.491501 
L 408.578369 89.62984 
L 408.747061 86.844817 
L 408.915184 99.901715 
L 409.082742 123.448001 
L 409.249738 112.878284 
L 409.416177 92.514835 
L 409.582062 98.254192 
L 409.747396 109.361967 
L 410.07643 81.591827 
L 410.240135 113.924821 
L 410.403305 86.730627 
L 410.565943 111.21176 
L 410.728051 92.586077 
L 410.889635 91.960016 
L 411.050696 92.645528 
L 411.211238 123.051048 
L 411.371265 94.877169 
L 411.53078 89.011655 
L 411.689786 92.347849 
L 411.848287 81.968489 
L 412.163784 91.729414 
L 412.320787 85.800297 
L 412.477297 91.091023 
L 412.633317 111.259696 
L 412.78885 94.014212 
L 412.943899 122.860931 
L 413.252559 90.836535 
L 413.406175 92.219128 
L 413.559319 91.534456 
L 413.711994 86.108016 
L 413.864203 96.600559 
L 414.015949 80.24741 
L 414.167234 103.018872 
L 414.318061 102.230688 
L 414.468433 94.892041 
L 414.618353 93.798578 
L 414.767824 82.020103 
L 414.916847 107.006272 
L 415.065427 91.919884 
L 415.213564 128.472676 
L 415.508526 94.828962 
L 415.655355 94.638031 
L 415.801753 97.110146 
L 416.093264 87.559616 
L 416.238383 91.467803 
L 416.383081 125.79258 
L 416.52736 85.17123 
L 416.671223 107.101237 
L 416.957709 102.491685 
L 417.100336 95.754686 
L 417.242557 104.751636 
L 417.384373 97.521353 
L 417.525787 98.223086 
L 417.666801 95.484819 
L 417.807417 77.847537 
L 417.947638 101.442294 
L 418.087465 97.26977 
L 418.226901 99.362765 
L 418.365948 116.251213 
L 418.504609 103.97809 
L 418.642884 116.966193 
L 418.780778 79.080564 
L 419.055425 107.525151 
L 419.328567 81.40431 
L 419.464579 105.427297 
L 419.735495 88.163992 
L 419.870403 119.488725 
L 420.004946 86.801853 
L 420.139128 87.888916 
L 420.272949 86.507209 
L 420.406412 97.399074 
L 420.539518 96.538004 
L 420.67227 94.512304 
L 420.80467 84.251783 
L 420.936719 108.050155 
L 421.068418 88.191004 
L 421.330779 102.436018 
L 421.461443 95.268228 
L 421.721748 115.895307 
L 421.851393 86.296393 
L 421.980702 109.11866 
L 422.109675 88.228764 
L 422.366626 103.078773 
L 422.62226 85.146135 
L 422.749586 96.999277 
L 422.876589 124.84046 
L 423.003268 95.286045 
L 423.129627 115.807109 
L 423.255665 98.872462 
L 423.381386 100.502371 
L 423.506791 92.651206 
L 423.631881 92.537966 
L 423.756658 102.337891 
L 423.881124 87.651791 
L 424.005279 103.576 
L 424.129126 90.838356 
L 424.252666 104.847045 
L 424.375901 88.993398 
L 424.498831 104.344166 
L 424.62146 83.669084 
L 424.743787 109.008964 
L 424.865815 90.649324 
L 424.987545 105.543214 
L 425.108978 94.141193 
L 425.350961 125.890704 
L 425.471513 100.52992 
L 425.591775 99.438648 
L 425.711747 95.863252 
L 425.831431 96.202222 
L 425.950828 95.68841 
L 426.06994 85.170745 
L 426.307314 95.067231 
L 426.425578 81.655004 
L 426.778697 98.461977 
L 426.895849 90.693552 
L 427.012727 90.416947 
L 427.129331 92.175401 
L 427.245664 84.103281 
L 427.361725 106.946178 
L 427.477517 94.220187 
L 427.708297 104.986535 
L 427.823287 94.446044 
L 427.938013 99.064569 
L 428.052476 82.620315 
L 428.166676 107.067857 
L 428.280615 97.334799 
L 428.394294 100.458509 
L 428.507715 114.778285 
L 428.620878 96.977057 
L 428.733785 101.635545 
L 428.846437 89.131093 
L 428.958835 93.692338 
L 429.07098 92.533234 
L 429.182873 86.955789 
L 429.294515 87.879638 
L 429.405908 89.765517 
L 429.517053 95.120733 
L 429.62795 94.580031 
L 429.738602 97.23939 
L 429.849008 92.423612 
L 429.95917 95.106335 
L 430.069089 88.458542 
L 430.178767 96.881409 
L 430.288203 89.125588 
L 430.3974 94.9902 
L 430.506358 93.229636 
L 430.615079 108.808948 
L 430.723563 100.198262 
L 430.831811 124.844907 
L 431.047605 91.162311 
L 431.155153 104.946524 
L 431.262469 89.166481 
L 431.369555 99.449368 
L 431.583039 79.929679 
L 431.689439 108.596559 
L 432.007283 83.593125 
L 432.218058 99.484521 
L 432.323113 97.888823 
L 432.53256 86.09402 
L 432.636955 84.065161 
L 432.741131 86.713548 
L 432.84509 109.83453 
L 433.05236 87.59765 
L 433.155673 85.343597 
L 433.361658 101.152058 
L 433.464333 85.551919 
L 433.669049 95.352843 
L 433.771093 105.28309 
L 433.974556 85.622761 
L 434.278202 101.94215 
L 434.379007 104.361678 
L 434.479609 81.77272 
L 434.580009 84.345961 
L 434.680207 106.030679 
L 434.780203 92.788361 
L 434.780203 92.788361 
" clip-path="url(#pb8e9820a03)" style="fill: none; stroke: #1f77b4; stroke-width: 1.5; stroke-linecap: square"/>
   </g>
   <g id="patch_3">
    <path d="M 109.607519 265.0705 
L 109.607519 34.596 
" style="fill: none; stroke: #000000; stroke-width: 0.8; stroke-linejoin: miter; stroke-linecap: square"/>
   </g>
   <g id="patch_4">
    <path d="M 434.88 265.0705 
L 434.88 34.596 
" style="fill: none; stroke: #000000; stroke-width: 0.8; stroke-linejoin: miter; stroke-linecap: square"/>
   </g>
   <g id="patch_5">
    <path d="M 109.607519 265.0705 
L 434.88 265.0705 
" style="fill: none; stroke: #000000; stroke-width: 0.8; stroke-linejoin: miter; stroke-linecap: square"/>
   </g>
   <g id="patch_6">
    <path d="M 109.607519 34.596 
L 434.88 34.596 
" style="fill: none; stroke: #000000; stroke-width: 0.8; stroke-linejoin: miter; stroke-linecap: square"/>
   </g>
  </g>
 </g>
 <defs>
  <clipPath id="pb8e9820a03">
   <rect x="109.607519" y="34.596" width="325.272481" height="230.4745"/>
  </clipPath>
 </defs>
</svg>
