<?xml version="1.0" encoding="utf-8" standalone="no"?>
<!DOCTYPE svg PUBLIC "-//W3C//DTD SVG 1.1//EN"
  "http://www.w3.org/Graphics/SVG/1.1/DTD/svg11.dtd">
<svg xmlns:xlink="http://www.w3.org/1999/xlink" width="460.8pt" height="345.6pt" viewBox="0 0 460.8 345.6" xmlns="http://www.w3.org/2000/svg" version="1.1">
 <metadata>
  <rdf:RDF xmlns:dc="http://purl.org/dc/elements/1.1/" xmlns:cc="http://creativecommons.org/ns#" xmlns:rdf="http://www.w3.org/1999/02/22-rdf-syntax-ns#">
   <cc:Work>
    <dc:type rdf:resource="http://purl.org/dc/dcmitype/StillImage"/>
    <dc:date>2025-12-03T12:16:45.348043</dc:date>
    <dc:format>image/svg+xml</dc:format>
    <dc:creator>
     <cc:Agent>
      <dc:title>Matplotlib v3.10.6, https://matplotlib.org/</dc:title>
     </cc:Agent>
    </dc:creator>
   </cc:Work>
  </rdf:RDF>
 </metadata>
 <defs>
  <style type="text/css">*{stroke-linejoin: round; stroke-linecap: butt}</style>
 </defs>
 <g id="figure_1">
  <g id="patch_1">
   <path d="M 0 345.6 
L 460.8 345.6 
L 460.8 0 
L 0 0 
z
" style="fill: #ffffff"/>
  </g>
  <g id="axes_1">
   <g id="patch_2">
    <path d="M 57.6 307.584 
L 414.72 307.584 
L 414.72 41.472 
L 57.6 41.472 
z
" style="fill: #ffffff"/>
   </g>
   <g id="matplotlib.axis_1">
    <g id="xtick_1">
     <g id="line2d_1">
      <defs>
       <path id="m035c8ec27e" d="M 0 0 
L 0 3.5 
" style="stroke: #000000; stroke-width: 0.8"/>
      </defs>
      <g>
       <use xlink:href="#m035c8ec27e" x="73.832727" y="307.584" style="stroke: #000000; stroke-width: 0.8"/>
      </g>
     </g>
     <g id="text_1">
      <!-- 0 -->
      <g transform="translate(70.651477 322.182437) scale(0.1 -0.1)">
       <defs>
        <path id="DejaVuSans-30" d="M 2034 4250 
Q 1547 4250 1301 3770 
Q 1056 3291 1056 2328 
Q 1056 1369 1301 889 
Q 1547 409 2034 409 
Q 2525 409 2770 889 
Q 3016 1369 3016 2328 
Q 3016 3291 2770 3770 
Q 2525 4250 2034 4250 
z
M 2034 4750 
Q 2819 4750 3233 4129 
Q 3647 3509 3647 2328 
Q 3647 1150 3233 529 
Q 2819 -91 2034 -91 
Q 1250 -91 836 529 
Q 422 1150 422 2328 
Q 422 3509 836 4129 
Q 1250 4750 2034 4750 
z
" transform="scale(0.015625)"/>
       </defs>
       <use xlink:href="#DejaVuSans-30"/>
      </g>
     </g>
    </g>
    <g id="xtick_2">
     <g id="line2d_2">
      <g>
       <use xlink:href="#m035c8ec27e" x="138.828632" y="307.584" style="stroke: #000000; stroke-width: 0.8"/>
      </g>
     </g>
     <g id="text_2">
      <!-- 200 -->
      <g transform="translate(129.284882 322.182437) scale(0.1 -0.1)">
       <defs>
        <path id="DejaVuSans-32" d="M 1228 531 
L 3431 531 
L 3431 0 
L 469 0 
L 469 531 
Q 828 903 1448 1529 
Q 2069 2156 2228 2338 
Q 2531 2678 2651 2914 
Q 2772 3150 2772 3378 
Q 2772 3750 2511 3984 
Q 2250 4219 1831 4219 
Q 1534 4219 1204 4116 
Q 875 4013 500 3803 
L 500 4441 
Q 881 4594 1212 4672 
Q 1544 4750 1819 4750 
Q 2544 4750 2975 4387 
Q 3406 4025 3406 3419 
Q 3406 3131 3298 2873 
Q 3191 2616 2906 2266 
Q 2828 2175 2409 1742 
Q 1991 1309 1228 531 
z
" transform="scale(0.015625)"/>
       </defs>
       <use xlink:href="#DejaVuSans-32"/>
       <use xlink:href="#DejaVuSans-30" transform="translate(63.623047 0)"/>
       <use xlink:href="#DejaVuSans-30" transform="translate(127.246094 0)"/>
      </g>
     </g>
    </g>
    <g id="xtick_3">
     <g id="line2d_3">
      <g>
       <use xlink:href="#m035c8ec27e" x="203.824537" y="307.584" style="stroke: #000000; stroke-width: 0.8"/>
      </g>
     </g>
     <g id="text_3">
      <!-- 400 -->
      <g transform="translate(194.280787 322.182437) scale(0.1 -0.1)">
       <defs>
        <path id="DejaVuSans-34" d="M 2419 4116 
L 825 1625 
L 2419 1625 
L 2419 4116 
z
M 2253 4666 
L 3047 4666 
L 3047 1625 
L 3713 1625 
L 3713 1100 
L 3047 1100 
L 3047 0 
L 2419 0 
L 2419 1100 
L 313 1100 
L 313 1709 
L 2253 4666 
z
" transform="scale(0.015625)"/>
       </defs>
       <use xlink:href="#DejaVuSans-34"/>
       <use xlink:href="#DejaVuSans-30" transform="translate(63.623047 0)"/>
       <use xlink:href="#DejaVuSans-30" transform="translate(127.246094 0)"/>
      </g>
     </g>
    </g>
    <g id="xtick_4">
     <g id="line2d_4">
      <g>
       <use xlink:href="#m035c8ec27e" x="268.820442" y="307.584" style="stroke: #000000; stroke-width: 0.8"/>
      </g>
     </g>
     <g id="text_4">
      <!-- 600 -->
      <g transform="translate(259.276692 322.182437) scale(0.1 -0.1)">
       <defs>
        <path id="DejaVuSans-36" d="M 2113 2584 
Q 1688 2584 1439 2293 
Q 1191 2003 1191 1497 
Q 1191 994 1439 701 
Q 1688 409 2113 409 
Q 2538 409 2786 701 
Q 3034 994 3034 1497 
Q 3034 2003 2786 2293 
Q 2538 2584 2113 2584 
z
M 3366 4563 
L 3366 3988 
Q 3128 4100 2886 4159 
Q 2644 4219 2406 4219 
Q 1781 4219 1451 3797 
Q 1122 3375 1075 2522 
Q 1259 2794 1537 2939 
Q 1816 3084 2150 3084 
Q 2853 3084 3261 2657 
Q 3669 2231 3669 1497 
Q 3669 778 3244 343 
Q 2819 -91 2113 -91 
Q 1303 -91 875 529 
Q 447 1150 447 2328 
Q 447 3434 972 4092 
Q 1497 4750 2381 4750 
Q 2619 4750 2861 4703 
Q 3103 4656 3366 4563 
z
" transform="scale(0.015625)"/>
       </defs>
       <use xlink:href="#DejaVuSans-36"/>
       <use xlink:href="#DejaVuSans-30" transform="translate(63.623047 0)"/>
       <use xlink:href="#DejaVuSans-30" transform="translate(127.246094 0)"/>
      </g>
     </g>
    </g>
    <g id="xtick_5">
     <g id="line2d_5">
      <g>
       <use xlink:href="#m035c8ec27e" x="333.816347" y="307.584" style="stroke: #000000; stroke-width: 0.8"/>
      </g>
     </g>
     <g id="text_5">
      <!-- 800 -->
      <g transform="translate(324.272597 322.182437) scale(0.1 -0.1)">
       <defs>
        <path id="DejaVuSans-38" d="M 2034 2216 
Q 1584 2216 1326 1975 
Q 1069 1734 1069 1313 
Q 1069 891 1326 650 
Q 1584 409 2034 409 
Q 2484 409 2743 651 
Q 3003 894 3003 1313 
Q 3003 1734 2745 1975 
Q 2488 2216 2034 2216 
z
M 1403 2484 
Q 997 2584 770 2862 
Q 544 3141 544 3541 
Q 544 4100 942 4425 
Q 1341 4750 2034 4750 
Q 2731 4750 3128 4425 
Q 3525 4100 3525 3541 
Q 3525 3141 3298 2862 
Q 3072 2584 2669 2484 
Q 3125 2378 3379 2068 
Q 3634 1759 3634 1313 
Q 3634 634 3220 271 
Q 2806 -91 2034 -91 
Q 1263 -91 848 271 
Q 434 634 434 1313 
Q 434 1759 690 2068 
Q 947 2378 1403 2484 
z
M 1172 3481 
Q 1172 3119 1398 2916 
Q 1625 2713 2034 2713 
Q 2441 2713 2670 2916 
Q 2900 3119 2900 3481 
Q 2900 3844 2670 4047 
Q 2441 4250 2034 4250 
Q 1625 4250 1398 4047 
Q 1172 3844 1172 3481 
z
" transform="scale(0.015625)"/>
       </defs>
       <use xlink:href="#DejaVuSans-38"/>
       <use xlink:href="#DejaVuSans-30" transform="translate(63.623047 0)"/>
       <use xlink:href="#DejaVuSans-30" transform="translate(127.246094 0)"/>
      </g>
     </g>
    </g>
    <g id="xtick_6">
     <g id="line2d_6">
      <g>
       <use xlink:href="#m035c8ec27e" x="398.812252" y="307.584" style="stroke: #000000; stroke-width: 0.8"/>
      </g>
     </g>
     <g id="text_6">
      <!-- 1000 -->
      <g transform="translate(386.087252 322.182437) scale(0.1 -0.1)">
       <defs>
        <path id="DejaVuSans-31" d="M 794 531 
L 1825 531 
L 1825 4091 
L 703 3866 
L 703 4441 
L 1819 4666 
L 2450 4666 
L 2450 531 
L 3481 531 
L 3481 0 
L 794 0 
L 794 531 
z
" transform="scale(0.015625)"/>
       </defs>
       <use xlink:href="#DejaVuSans-31"/>
       <use xlink:href="#DejaVuSans-30" transform="translate(63.623047 0)"/>
       <use xlink:href="#DejaVuSans-30" transform="translate(127.246094 0)"/>
       <use xlink:href="#DejaVuSans-30" transform="translate(190.869141 0)"/>
      </g>
     </g>
    </g>
    <g id="text_7">
     <!-- Schritt k -->
     <g transform="translate(219.075625 335.091813) scale(0.1 -0.1)">
      <defs>
       <path id="TeXGyreTermes-Regular-53" d="M 3142 1075 
C 3142 1606 2790 2016 1946 2477 
C 1274 2842 1005 3123 1005 3475 
C 1005 3827 1274 4064 1670 4064 
C 1958 4064 2227 3942 2451 3712 
C 2650 3507 2739 3341 2842 2963 
L 3002 2963 
L 2861 4326 
L 2726 4326 
C 2701 4186 2630 4109 2522 4109 
C 2458 4109 2355 4134 2240 4186 
C 2003 4275 1773 4326 1549 4326 
C 1299 4326 1030 4224 826 4058 
C 576 3853 454 3578 454 3226 
C 454 2720 736 2362 1453 1984 
C 1914 1734 2246 1478 2406 1235 
C 2464 1146 2496 1018 2496 858 
C 2496 435 2176 141 1709 141 
C 1133 141 736 493 416 1274 
L 269 1274 
L 461 -83 
L 602 -83 
C 608 38 685 128 781 128 
C 851 128 960 102 1082 58 
C 1325 -38 1581 -90 1837 -90 
C 2579 -90 3142 416 3142 1075 
z
" transform="scale(0.015625)"/>
       <path id="TeXGyreTermes-Regular-63" d="M 2637 941 
L 2547 998 
C 2240 550 2010 397 1645 397 
C 1056 397 653 909 653 1645 
C 653 2310 1005 2758 1523 2758 
C 1754 2758 1837 2688 1901 2451 
L 1939 2310 
C 1990 2125 2106 2016 2246 2016 
C 2413 2016 2547 2138 2547 2285 
C 2547 2643 2099 2944 1562 2944 
C 1261 2944 954 2829 698 2618 
C 352 2330 160 1888 160 1357 
C 160 531 666 -64 1376 -64 
C 1651 -64 1894 26 2112 205 
C 2304 358 2432 544 2637 941 
z
" transform="scale(0.015625)"/>
       <path id="TeXGyreTermes-Regular-68" d="M 3117 0 
L 3117 96 
C 2771 160 2733 211 2733 653 
L 2733 1926 
C 2733 2598 2464 2944 1946 2944 
C 1568 2944 1299 2790 1005 2406 
L 1005 4352 
L 973 4371 
C 755 4294 595 4243 237 4141 
L 64 4090 
L 64 3987 
C 90 3994 109 3994 141 3994 
C 416 3994 467 3942 467 3667 
L 467 653 
C 467 205 429 147 58 96 
L 58 0 
L 1440 0 
L 1440 96 
C 1069 134 1005 211 1005 653 
L 1005 2195 
C 1274 2490 1466 2598 1715 2598 
C 2035 2598 2195 2368 2195 1920 
L 2195 653 
C 2195 218 2131 134 1760 96 
L 1760 0 
L 3117 0 
z
" transform="scale(0.015625)"/>
       <path id="TeXGyreTermes-Regular-72" d="M 2144 2605 
C 2144 2816 2010 2944 1792 2944 
C 1523 2944 1338 2797 1024 2342 
L 1024 2931 
L 992 2944 
C 653 2803 422 2720 45 2598 
L 45 2496 
C 134 2515 192 2522 269 2522 
C 429 2522 486 2419 486 2138 
L 486 538 
C 486 218 442 173 32 96 
L 32 0 
L 1568 0 
L 1568 96 
C 1133 115 1024 211 1024 576 
L 1024 2016 
C 1024 2221 1299 2541 1472 2541 
C 1510 2541 1568 2509 1638 2445 
C 1741 2355 1811 2317 1894 2317 
C 2048 2317 2144 2426 2144 2605 
z
" transform="scale(0.015625)"/>
       <path id="TeXGyreTermes-Regular-69" d="M 1619 0 
L 1619 96 
C 1197 128 1146 192 1146 653 
L 1146 2925 
L 1120 2944 
L 128 2592 
L 128 2496 
L 179 2502 
C 256 2515 339 2522 397 2522 
C 550 2522 608 2419 608 2138 
L 608 653 
C 608 192 544 122 102 96 
L 102 0 
L 1619 0 
z
M 1203 3776 
C 1203 3955 1062 4102 877 4102 
C 698 4102 550 3955 550 3776 
C 550 3590 698 3450 877 3450 
C 1062 3450 1203 3590 1203 3776 
z
" transform="scale(0.015625)"/>
       <path id="TeXGyreTermes-Regular-74" d="M 1786 422 
L 1702 493 
C 1562 326 1459 269 1318 269 
C 1082 269 986 435 986 845 
L 986 2675 
L 1632 2675 
L 1632 2880 
L 986 2880 
L 986 3622 
C 986 3686 973 3706 941 3706 
C 902 3642 858 3584 813 3526 
C 576 3174 358 2938 192 2842 
C 122 2797 83 2758 83 2720 
C 83 2701 90 2688 109 2675 
L 448 2675 
L 448 749 
C 448 211 640 -64 1011 -64 
C 1331 -64 1574 90 1786 422 
z
" transform="scale(0.015625)"/>
       <path id="TeXGyreTermes-Regular-20" transform="scale(0.015625)"/>
       <path id="TeXGyreTermes-Regular-6b" d="M 3232 0 
L 3232 96 
C 2950 115 2752 237 2483 563 
L 1504 1805 
L 1690 1978 
C 2144 2400 2541 2694 2726 2746 
C 2822 2771 2912 2784 3021 2784 
L 3072 2784 
L 3072 2880 
L 1766 2880 
L 1766 2790 
C 2016 2784 2086 2758 2086 2669 
C 2086 2618 2029 2528 1939 2451 
L 1062 1670 
L 1062 4358 
L 1037 4371 
L 237 4141 
L 45 4090 
L 45 3987 
C 128 3994 186 4000 250 4000 
C 461 4000 525 3917 525 3610 
L 525 525 
C 525 192 506 173 45 96 
L 45 0 
L 1542 0 
L 1542 96 
L 1414 102 
C 1158 115 1062 205 1062 429 
L 1062 1606 
L 1958 410 
L 1978 384 
C 1990 365 2003 346 2022 326 
C 2074 262 2093 224 2093 192 
C 2093 134 2035 96 1958 96 
L 1837 96 
L 1837 0 
L 3232 0 
z
" transform="scale(0.015625)"/>
      </defs>
      <use xlink:href="#TeXGyreTermes-Regular-53"/>
      <use xlink:href="#TeXGyreTermes-Regular-63" transform="translate(55.599991 0)"/>
      <use xlink:href="#TeXGyreTermes-Regular-68" transform="translate(99.999985 0)"/>
      <use xlink:href="#TeXGyreTermes-Regular-72" transform="translate(149.999969 0)"/>
      <use xlink:href="#TeXGyreTermes-Regular-69" transform="translate(183.299957 0)"/>
      <use xlink:href="#TeXGyreTermes-Regular-74" transform="translate(211.099945 0)"/>
      <use xlink:href="#TeXGyreTermes-Regular-74" transform="translate(238.899933 0)"/>
      <use xlink:href="#TeXGyreTermes-Regular-20" transform="translate(266.699921 0)"/>
      <use xlink:href="#TeXGyreTermes-Regular-6b" transform="translate(291.699905 0)"/>
     </g>
    </g>
   </g>
   <g id="matplotlib.axis_2">
    <g id="ytick_1">
     <g id="line2d_7">
      <defs>
       <path id="mbed7145eeb" d="M 0 0 
L -3.5 0 
" style="stroke: #000000; stroke-width: 0.8"/>
      </defs>
      <g>
       <use xlink:href="#mbed7145eeb" x="57.6" y="301.601942" style="stroke: #000000; stroke-width: 0.8"/>
      </g>
     </g>
     <g id="text_8">
      <!-- −3 -->
      <g transform="translate(35.857813 305.40116) scale(0.1 -0.1)">
       <defs>
        <path id="DejaVuSans-2212" d="M 678 2272 
L 4684 2272 
L 4684 1741 
L 678 1741 
L 678 2272 
z
" transform="scale(0.015625)"/>
        <path id="DejaVuSans-33" d="M 2597 2516 
Q 3050 2419 3304 2112 
Q 3559 1806 3559 1356 
Q 3559 666 3084 287 
Q 2609 -91 1734 -91 
Q 1441 -91 1130 -33 
Q 819 25 488 141 
L 488 750 
Q 750 597 1062 519 
Q 1375 441 1716 441 
Q 2309 441 2620 675 
Q 2931 909 2931 1356 
Q 2931 1769 2642 2001 
Q 2353 2234 1838 2234 
L 1294 2234 
L 1294 2753 
L 1863 2753 
Q 2328 2753 2575 2939 
Q 2822 3125 2822 3475 
Q 2822 3834 2567 4026 
Q 2313 4219 1838 4219 
Q 1578 4219 1281 4162 
Q 984 4106 628 3988 
L 628 4550 
Q 988 4650 1302 4700 
Q 1616 4750 1894 4750 
Q 2613 4750 3031 4423 
Q 3450 4097 3450 3541 
Q 3450 3153 3228 2886 
Q 3006 2619 2597 2516 
z
" transform="scale(0.015625)"/>
       </defs>
       <use xlink:href="#DejaVuSans-2212"/>
       <use xlink:href="#DejaVuSans-33" transform="translate(83.789062 0)"/>
      </g>
     </g>
    </g>
    <g id="ytick_2">
     <g id="line2d_8">
      <g>
       <use xlink:href="#mbed7145eeb" x="57.6" y="259.854198" style="stroke: #000000; stroke-width: 0.8"/>
      </g>
     </g>
     <g id="text_9">
      <!-- −2 -->
      <g transform="translate(35.857813 263.653417) scale(0.1 -0.1)">
       <use xlink:href="#DejaVuSans-2212"/>
       <use xlink:href="#DejaVuSans-32" transform="translate(83.789062 0)"/>
      </g>
     </g>
    </g>
    <g id="ytick_3">
     <g id="line2d_9">
      <g>
       <use xlink:href="#mbed7145eeb" x="57.6" y="218.106454" style="stroke: #000000; stroke-width: 0.8"/>
      </g>
     </g>
     <g id="text_10">
      <!-- −1 -->
      <g transform="translate(35.857813 221.905673) scale(0.1 -0.1)">
       <use xlink:href="#DejaVuSans-2212"/>
       <use xlink:href="#DejaVuSans-31" transform="translate(83.789062 0)"/>
      </g>
     </g>
    </g>
    <g id="ytick_4">
     <g id="line2d_10">
      <g>
       <use xlink:href="#mbed7145eeb" x="57.6" y="176.35871" style="stroke: #000000; stroke-width: 0.8"/>
      </g>
     </g>
     <g id="text_11">
      <!-- 0 -->
      <g transform="translate(44.2375 180.157929) scale(0.1 -0.1)">
       <use xlink:href="#DejaVuSans-30"/>
      </g>
     </g>
    </g>
    <g id="ytick_5">
     <g id="line2d_11">
      <g>
       <use xlink:href="#mbed7145eeb" x="57.6" y="134.610966" style="stroke: #000000; stroke-width: 0.8"/>
      </g>
     </g>
     <g id="text_12">
      <!-- 1 -->
      <g transform="translate(44.2375 138.410185) scale(0.1 -0.1)">
       <use xlink:href="#DejaVuSans-31"/>
      </g>
     </g>
    </g>
    <g id="ytick_6">
     <g id="line2d_12">
      <g>
       <use xlink:href="#mbed7145eeb" x="57.6" y="92.863222" style="stroke: #000000; stroke-width: 0.8"/>
      </g>
     </g>
     <g id="text_13">
      <!-- 2 -->
      <g transform="translate(44.2375 96.662441) scale(0.1 -0.1)">
       <use xlink:href="#DejaVuSans-32"/>
      </g>
     </g>
    </g>
    <g id="ytick_7">
     <g id="line2d_13">
      <g>
       <use xlink:href="#mbed7145eeb" x="57.6" y="51.115478" style="stroke: #000000; stroke-width: 0.8"/>
      </g>
     </g>
     <g id="text_14">
      <!-- 3 -->
      <g transform="translate(44.2375 54.914697) scale(0.1 -0.1)">
       <use xlink:href="#DejaVuSans-33"/>
      </g>
     </g>
    </g>
    <g id="text_15">
     <!-- x(k) -->
     <g transform="translate(29.6875 182.857687) rotate(-90) scale(0.1 -0.1)">
      <defs>
       <path id="TeXGyreTermes-Regular-78" d="M 3066 0 
L 3066 96 
C 2867 96 2739 198 2541 480 
L 1722 1734 
L 2253 2502 
C 2374 2675 2566 2778 2771 2784 
L 2771 2880 
L 1760 2880 
L 1760 2784 
C 1952 2771 2016 2733 2016 2643 
C 2016 2566 1939 2426 1779 2227 
C 1747 2189 1670 2074 1587 1946 
L 1498 2074 
C 1318 2342 1203 2560 1203 2643 
C 1203 2733 1286 2778 1478 2784 
L 1478 2880 
L 154 2880 
L 154 2784 
L 211 2784 
C 403 2784 506 2701 704 2400 
L 1306 1478 
L 576 422 
C 384 160 320 115 109 96 
L 109 0 
L 1037 0 
L 1037 96 
C 858 96 781 128 781 211 
C 781 250 826 346 909 474 
L 1414 1261 
L 1997 365 
C 2022 326 2035 288 2035 250 
C 2035 134 1990 109 1779 96 
L 1779 0 
L 3066 0 
z
" transform="scale(0.015625)"/>
       <path id="TeXGyreTermes-Regular-28" d="M 1946 -1030 
C 1434 -627 1254 -403 1082 77 
C 928 506 858 992 858 1632 
C 858 2304 941 2829 1114 3226 
C 1293 3622 1485 3853 1946 4224 
L 1888 4326 
C 1414 4019 1222 3853 986 3558 
C 531 3002 307 2362 307 1613 
C 307 800 544 173 1107 -480 
C 1370 -787 1536 -928 1869 -1133 
L 1946 -1030 
z
" transform="scale(0.015625)"/>
       <path id="TeXGyreTermes-Regular-29" d="M 1824 1581 
C 1824 2400 1587 3021 1024 3674 
C 762 3981 595 4122 262 4326 
L 186 4224 
C 698 3821 870 3597 1050 3117 
C 1203 2688 1274 2202 1274 1562 
C 1274 896 1190 365 1018 -26 
C 838 -429 646 -659 186 -1030 
L 243 -1133 
C 717 -826 909 -659 1146 -365 
C 1600 192 1824 832 1824 1581 
z
" transform="scale(0.015625)"/>
      </defs>
      <use xlink:href="#TeXGyreTermes-Regular-78"/>
      <use xlink:href="#TeXGyreTermes-Regular-28" transform="translate(49.999985 0)"/>
      <use xlink:href="#TeXGyreTermes-Regular-6b" transform="translate(83.299973 0)"/>
      <use xlink:href="#TeXGyreTermes-Regular-29" transform="translate(133.299957 0)"/>
     </g>
    </g>
   </g>
   <g id="line2d_14">
    <path d="M 73.832727 159.624719 
L 74.157707 179.641712 
L 74.482686 174.637438 
L 74.807666 185.948439 
L 75.132645 182.914478 
L 75.457625 182.95115 
L 76.107584 200.570073 
L 76.432563 209.85003 
L 76.757543 195.087341 
L 77.082523 206.23332 
L 77.407502 211.230953 
L 77.732482 219.82057 
L 78.057461 221.028139 
L 78.382441 216.130809 
L 78.70742 193.69965 
L 79.0324 183.567696 
L 79.357379 207.810762 
L 79.682359 210.833121 
L 80.007338 200.134107 
L 80.332318 200.065642 
L 80.657297 184.177276 
L 80.982277 188.153065 
L 81.307256 218.215507 
L 81.632236 224.774261 
L 81.957215 213.855206 
L 82.607174 219.473994 
L 82.932154 203.606145 
L 83.257133 201.150479 
L 83.582113 200.967127 
L 83.907093 205.04844 
L 84.232072 204.9953 
L 84.557052 200.774411 
L 84.882031 185.439257 
L 85.207011 212.679174 
L 85.53199 196.621395 
L 85.85697 195.874021 
L 86.181949 204.525099 
L 86.506929 196.844118 
L 86.831908 226.244777 
L 87.156888 216.33543 
L 87.481867 215.854337 
L 87.806847 223.701829 
L 88.131826 212.581356 
L 88.456806 207.532489 
L 89.106765 192.954825 
L 89.431744 196.007645 
L 89.756724 185.106314 
L 90.081704 207.070615 
L 90.406683 202.466222 
L 90.731663 201.654088 
L 91.056642 191.649517 
L 91.381622 202.767762 
L 92.031581 190.164023 
L 92.35656 206.582829 
L 92.68154 217.056987 
L 93.006519 197.965733 
L 93.331499 189.445715 
L 93.656478 187.569154 
L 93.981458 199.155249 
L 94.306437 187.79132 
L 94.631417 183.35007 
L 94.956396 165.794576 
L 95.281376 161.33312 
L 95.606355 174.402867 
L 95.931335 194.027551 
L 96.256314 188.14126 
L 96.906274 158.594359 
L 97.231253 132.323677 
L 97.556233 156.096457 
L 97.881212 159.326732 
L 98.206192 155.050279 
L 98.531171 130.917922 
L 98.856151 130.214308 
L 99.18113 140.518854 
L 99.831089 137.181076 
L 100.156069 160.190032 
L 100.481048 143.863807 
L 100.806028 171.778256 
L 101.131007 173.120579 
L 101.455987 167.968725 
L 102.105946 191.28659 
L 102.430925 187.302987 
L 102.755905 195.916547 
L 103.080885 172.072407 
L 103.405864 173.482107 
L 103.730844 171.373313 
L 104.055823 161.856154 
L 104.380803 161.548879 
L 104.705782 163.088337 
L 105.030762 174.931637 
L 105.355741 169.99953 
L 105.680721 169.255271 
L 106.0057 148.670772 
L 106.33068 150.327333 
L 106.655659 131.489377 
L 106.980639 130.363252 
L 107.305618 120.570724 
L 107.630598 153.689655 
L 107.955577 153.437586 
L 108.280557 159.64136 
L 108.605536 156.69831 
L 108.930516 168.310903 
L 109.255495 171.713932 
L 109.580475 190.419589 
L 109.905455 190.335029 
L 110.230434 184.536047 
L 110.555414 182.308258 
L 111.205373 207.273174 
L 111.530352 202.896427 
L 111.855332 202.072708 
L 112.83027 241.161259 
L 113.15525 255.040197 
L 113.805209 228.864393 
L 114.130188 220.901894 
L 114.780147 198.088231 
L 115.105127 205.537993 
L 115.430106 199.518206 
L 115.755086 209.518993 
L 116.080066 190.333013 
L 116.405045 202.933228 
L 116.730025 223.122619 
L 117.379984 184.799043 
L 117.704963 203.792625 
L 118.029943 206.847828 
L 118.354922 187.635853 
L 118.679902 187.441483 
L 119.004881 217.003021 
L 119.329861 219.28524 
L 119.65484 216.045064 
L 119.97982 203.41158 
L 120.304799 206.024371 
L 120.954758 193.333652 
L 121.279738 196.265717 
L 121.604717 197.804907 
L 121.929697 198.566571 
L 122.579656 173.457894 
L 122.904636 181.337547 
L 123.229615 198.619137 
L 123.554595 192.903663 
L 123.879574 197.781169 
L 124.529533 181.512047 
L 124.854513 165.070841 
L 125.179492 161.620133 
L 125.829451 185.597019 
L 126.154431 184.620782 
L 126.47941 179.35441 
L 126.80439 181.400515 
L 127.129369 198.69595 
L 127.454349 190.935309 
L 127.779328 173.675069 
L 128.104308 170.574304 
L 128.429287 185.211038 
L 128.754267 173.858322 
L 129.079247 179.981576 
L 129.404226 182.319931 
L 129.729206 186.329658 
L 130.054185 186.054591 
L 130.379165 200.852479 
L 130.704144 203.2584 
L 131.354103 217.936624 
L 131.679083 212.829534 
L 132.004062 233.012253 
L 132.329042 244.037507 
L 132.654021 241.99488 
L 132.979001 205.31457 
L 133.30398 210.521479 
L 133.62896 188.840177 
L 133.953939 193.647854 
L 134.278919 195.763977 
L 134.603898 194.808392 
L 134.928878 194.553682 
L 135.253857 215.221123 
L 135.578837 223.700314 
L 136.228796 216.803307 
L 136.553776 224.029584 
L 136.878755 239.307844 
L 137.203735 248.550528 
L 137.528714 232.816633 
L 138.178673 218.436658 
L 138.503653 221.657969 
L 139.153612 240.046007 
L 139.478591 236.079313 
L 140.12855 222.318837 
L 140.45353 221.870558 
L 140.778509 229.183731 
L 141.103489 220.233884 
L 141.428468 199.362988 
L 141.753448 209.535241 
L 142.078428 207.084036 
L 142.403407 210.867595 
L 142.728387 206.272165 
L 143.053366 215.165873 
L 143.378346 209.732712 
L 144.028305 224.313575 
L 144.353284 223.503622 
L 144.678264 186.767972 
L 145.003243 190.660526 
L 145.328223 196.159098 
L 145.653202 218.652056 
L 145.978182 194.760573 
L 146.303161 208.606995 
L 146.628141 228.384303 
L 146.95312 220.716905 
L 147.2781 225.727823 
L 147.603079 202.267095 
L 147.928059 188.446218 
L 148.253038 187.603903 
L 148.578018 181.821531 
L 148.902998 190.940603 
L 149.227977 175.803467 
L 149.552957 176.378421 
L 149.877936 204.789389 
L 150.202916 191.993499 
L 151.177854 199.478318 
L 151.827813 184.941482 
L 152.152793 188.234164 
L 152.477772 196.037935 
L 152.802752 191.191513 
L 153.127731 183.133995 
L 153.452711 183.78814 
L 153.77769 175.280977 
L 154.10267 178.357846 
L 154.427649 185.522898 
L 154.752629 187.314027 
L 155.077609 199.715394 
L 155.402588 198.572042 
L 155.727568 205.078992 
L 156.052547 186.880637 
L 156.377527 175.473641 
L 156.702506 174.040588 
L 157.027486 163.191161 
L 157.352465 170.684048 
L 157.677445 172.596232 
L 158.002424 175.451725 
L 158.327404 175.738747 
L 158.652383 187.66679 
L 158.977363 157.797818 
L 159.302342 168.09175 
L 159.627322 171.665972 
L 159.952301 163.027586 
L 160.277281 170.943836 
L 160.60226 170.339756 
L 160.92724 159.012861 
L 161.252219 168.806204 
L 161.577199 173.58686 
L 161.902179 189.530366 
L 162.227158 189.077782 
L 162.552138 189.569248 
L 162.877117 171.210604 
L 163.202097 183.539707 
L 163.852056 178.011322 
L 164.177035 166.468475 
L 164.502015 150.114114 
L 164.826994 160.417779 
L 165.151974 183.801788 
L 165.476953 194.02953 
L 165.801933 185.083788 
L 166.126912 191.714988 
L 166.451892 194.31186 
L 166.776871 195.181881 
L 167.101851 179.013106 
L 167.42683 154.4614 
L 167.75181 159.410965 
L 168.07679 167.800972 
L 168.401769 150.167801 
L 169.051728 158.02466 
L 169.376708 158.492949 
L 169.701687 159.837434 
L 170.026667 154.017394 
L 170.351646 165.58223 
L 170.676626 141.387765 
L 171.001605 144.729166 
L 171.326585 135.810016 
L 171.651564 134.250431 
L 171.976544 133.797199 
L 172.301523 144.972821 
L 172.626503 144.628768 
L 172.951482 149.554144 
L 173.601441 166.423793 
L 173.926421 163.713501 
L 174.2514 171.16357 
L 174.57638 181.674278 
L 175.226339 165.728547 
L 175.551319 167.661769 
L 175.876298 176.084709 
L 176.201278 151.590873 
L 176.526257 162.955033 
L 176.851237 136.006262 
L 177.176216 136.032604 
L 177.501196 151.372963 
L 177.826175 144.127092 
L 178.151155 156.593904 
L 178.476134 177.543401 
L 178.801114 150.255925 
L 179.126093 153.188707 
L 179.776052 127.874508 
L 180.101032 132.412583 
L 180.426011 133.840551 
L 180.750991 122.221693 
L 181.075971 128.390243 
L 181.72593 107.952833 
L 182.050909 106.288397 
L 182.375889 114.202866 
L 182.700868 141.102105 
L 183.025848 139.635954 
L 183.350827 158.278665 
L 183.675807 145.109227 
L 184.000786 154.564384 
L 184.325766 153.433887 
L 184.650745 140.261766 
L 184.975725 148.823603 
L 185.300704 143.96162 
L 185.625684 135.0552 
L 185.950663 136.388236 
L 186.275643 130.447481 
L 186.600622 137.860597 
L 186.925602 140.070756 
L 187.900541 93.266883 
L 188.875479 147.095368 
L 189.200459 144.758597 
L 189.525438 147.200182 
L 189.850418 112.685485 
L 190.175397 129.595837 
L 190.500377 126.918383 
L 190.825356 135.705387 
L 191.150336 122.245569 
L 191.475315 124.01305 
L 191.800295 123.933376 
L 192.125274 129.936123 
L 192.775233 105.671483 
L 193.100213 105.909905 
L 193.425192 95.873728 
L 193.750172 103.071306 
L 194.075152 121.301732 
L 194.400131 114.417118 
L 195.05009 106.59584 
L 195.37507 85.107398 
L 196.025029 99.671944 
L 196.350008 87.052503 
L 196.674988 81.973579 
L 196.999967 98.254491 
L 197.324947 101.491321 
L 197.649926 102.708226 
L 197.974906 100.068393 
L 198.299885 84.493782 
L 198.624865 92.918899 
L 198.949844 95.808612 
L 199.274824 85.812668 
L 199.599803 69.83628 
L 199.924783 67.304569 
L 200.574742 95.262359 
L 201.224701 79.843212 
L 201.549681 53.568 
L 201.87466 81.215506 
L 202.19964 83.954825 
L 202.524619 72.118444 
L 203.174578 89.174642 
L 203.499558 88.596756 
L 203.824537 97.339235 
L 204.149517 91.324549 
L 204.474496 97.931602 
L 204.799476 78.602708 
L 205.124455 96.771643 
L 205.449435 101.239825 
L 206.099394 133.636874 
L 206.424373 117.052604 
L 206.749353 107.417883 
L 207.399312 99.69319 
L 207.724292 105.179148 
L 208.049271 101.775064 
L 208.374251 89.774722 
L 208.69923 94.891835 
L 209.02421 95.890012 
L 209.349189 84.163263 
L 209.674169 82.380727 
L 209.999148 79.66742 
L 210.324128 84.354521 
L 210.649107 85.381157 
L 210.974087 91.885674 
L 211.299066 113.159411 
L 211.624046 115.148491 
L 211.949025 109.709746 
L 212.598984 85.562252 
L 212.923964 88.111568 
L 213.573923 127.942481 
L 213.898903 117.220618 
L 214.223882 134.143549 
L 214.548862 138.881382 
L 214.873841 154.510793 
L 215.198821 139.216485 
L 215.5238 142.445428 
L 215.84878 116.277311 
L 216.173759 107.261958 
L 216.498739 115.625945 
L 216.823718 135.250547 
L 217.473677 112.440598 
L 217.798657 116.789068 
L 218.123636 110.144152 
L 218.448616 119.18543 
L 218.773595 132.079965 
L 219.098575 133.888561 
L 219.423554 128.090453 
L 219.748534 124.529087 
L 220.073514 159.321315 
L 220.398493 153.983774 
L 220.723473 141.926153 
L 221.048452 154.126983 
L 221.373432 142.874245 
L 221.698411 147.495231 
L 222.023391 140.378975 
L 222.67335 155.657583 
L 222.998329 145.562873 
L 223.323309 140.024001 
L 223.648288 124.23081 
L 223.973268 139.061624 
L 224.298247 134.328147 
L 224.623227 131.425319 
L 224.948206 152.216177 
L 225.273186 157.237087 
L 225.598165 141.490703 
L 226.248124 183.345611 
L 226.573104 183.02943 
L 227.223063 162.149618 
L 227.548043 142.296056 
L 227.873022 152.883236 
L 228.198002 153.285481 
L 228.522981 132.774009 
L 228.847961 152.322667 
L 229.17294 140.557038 
L 229.49792 147.96857 
L 229.822899 151.192583 
L 230.147879 152.109734 
L 230.472858 141.038701 
L 230.797838 144.973453 
L 231.122817 144.718746 
L 231.447797 138.275446 
L 231.772776 129.028191 
L 232.097756 128.070146 
L 232.747715 110.252611 
L 233.072695 125.730737 
L 233.397674 131.777735 
L 233.722654 120.645456 
L 234.047633 117.767766 
L 234.372613 121.647509 
L 234.697592 127.704124 
L 235.022572 125.415188 
L 235.347551 137.886188 
L 235.672531 126.373885 
L 235.99751 127.928461 
L 236.32249 141.69761 
L 236.972449 126.904282 
L 237.622408 104.003586 
L 237.947387 124.746959 
L 238.272367 136.601211 
L 238.597346 135.230869 
L 238.922326 122.900458 
L 239.247305 126.045878 
L 239.572285 141.677352 
L 239.897265 113.294815 
L 240.222244 115.257281 
L 240.547224 115.770223 
L 240.872203 96.52207 
L 241.197183 102.512507 
L 241.522162 127.229853 
L 241.847142 129.491336 
L 242.172121 117.37106 
L 242.497101 114.24223 
L 242.82208 103.1817 
L 243.14706 110.033759 
L 243.472039 87.663375 
L 243.797019 83.925585 
L 244.121998 103.171751 
L 244.446978 90.581084 
L 244.771957 95.33637 
L 245.096937 112.051828 
L 245.421916 101.603328 
L 245.746896 110.023505 
L 246.071876 102.898331 
L 246.396855 86.704329 
L 246.721835 94.065314 
L 247.046814 90.277991 
L 247.371794 103.610818 
L 247.696773 123.377186 
L 248.021753 104.049259 
L 248.346732 100.966459 
L 248.671712 116.504032 
L 248.996691 120.321647 
L 249.321671 126.547784 
L 249.64665 121.954883 
L 249.97163 120.754704 
L 250.621589 95.417771 
L 250.946568 93.406284 
L 251.271548 88.374828 
L 251.921507 108.159295 
L 252.246486 96.840081 
L 252.571466 98.291525 
L 252.896446 93.665812 
L 253.221425 110.91542 
L 253.546405 114.216392 
L 253.871384 133.365042 
L 254.196364 135.147807 
L 254.846323 128.540573 
L 255.496282 107.830643 
L 255.821261 119.740204 
L 256.146241 110.935919 
L 256.47122 106.440092 
L 256.7962 136.363795 
L 257.121179 125.139077 
L 257.446159 143.543214 
L 257.771138 141.2757 
L 258.096118 147.314381 
L 258.421097 164.977372 
L 258.746077 159.130465 
L 259.396036 140.856805 
L 259.721016 146.458385 
L 260.045995 143.196992 
L 260.370975 130.933391 
L 260.695954 148.946844 
L 261.020934 126.866956 
L 261.345913 122.317114 
L 261.670893 138.704157 
L 261.995872 135.293859 
L 262.320852 135.200094 
L 262.645831 144.86676 
L 262.970811 139.978904 
L 263.29579 155.856197 
L 263.62077 200.888203 
L 263.945749 191.522567 
L 264.595708 232.600914 
L 264.920688 233.17989 
L 265.570647 208.658822 
L 266.220606 212.975058 
L 266.545586 201.043952 
L 266.870565 225.416752 
L 267.195545 227.862161 
L 267.845504 180.00192 
L 268.170483 181.000463 
L 268.495463 162.705014 
L 268.820442 164.368266 
L 269.145422 190.008232 
L 269.470401 198.025851 
L 269.795381 181.993895 
L 270.12036 183.689287 
L 270.770319 162.330001 
L 271.420278 171.734429 
L 271.745258 166.516012 
L 272.070238 174.758711 
L 272.395217 176.645457 
L 272.720197 171.523233 
L 273.045176 154.013651 
L 273.370156 151.743822 
L 273.695135 161.018999 
L 274.020115 154.87337 
L 274.345094 153.692028 
L 274.670074 146.079369 
L 274.995053 174.02048 
L 275.320033 168.963612 
L 275.645012 176.274321 
L 275.969992 169.628869 
L 276.294971 156.02145 
L 276.619951 150.510218 
L 276.94493 155.170374 
L 277.26991 153.753731 
L 277.594889 171.429899 
L 277.919869 164.313978 
L 278.244848 149.598583 
L 278.569828 164.987814 
L 278.894808 165.472009 
L 279.219787 171.954076 
L 279.544767 183.115482 
L 279.869746 178.088668 
L 280.194726 182.968939 
L 280.519705 192.208991 
L 280.844685 211.758337 
L 281.169664 207.224779 
L 281.494644 204.803325 
L 281.819623 190.257994 
L 282.144603 184.286215 
L 282.469582 194.177105 
L 282.794562 212.061643 
L 283.119541 211.02198 
L 283.444521 193.319729 
L 283.7695 188.39775 
L 284.09448 180.477791 
L 284.419459 185.321788 
L 284.744439 181.296986 
L 285.394398 167.275824 
L 286.044357 197.4521 
L 286.369337 202.916521 
L 286.694316 178.861711 
L 287.019296 176.295554 
L 287.669255 188.796883 
L 287.994234 190.594217 
L 288.644193 179.359059 
L 289.294152 189.816583 
L 289.619132 192.002511 
L 289.944111 205.497817 
L 290.269091 209.695427 
L 290.59407 223.230036 
L 290.91905 221.169482 
L 291.244029 211.086656 
L 291.569009 210.815354 
L 291.893989 208.445685 
L 292.218968 210.628771 
L 292.543948 216.207454 
L 292.868927 192.296761 
L 293.193907 208.136468 
L 293.843866 188.363009 
L 294.168845 193.188853 
L 294.493825 189.124838 
L 294.818804 190.275379 
L 295.143784 210.401228 
L 295.468763 203.306559 
L 295.793743 190.268611 
L 296.118722 168.701338 
L 296.443702 166.726997 
L 296.768681 180.387905 
L 297.093661 178.598037 
L 297.41864 183.448793 
L 297.74362 182.944163 
L 298.0686 176.533331 
L 298.393579 175.421976 
L 298.718559 158.845058 
L 299.368518 198.544519 
L 299.693497 194.778955 
L 300.343456 163.078523 
L 300.668436 162.973689 
L 300.993415 163.35592 
L 301.318395 169.456924 
L 301.643374 164.027175 
L 301.968354 164.50617 
L 302.293333 166.888881 
L 302.618313 160.004846 
L 302.943292 169.477697 
L 303.268272 172.304987 
L 303.593251 158.464744 
L 303.918231 163.523201 
L 304.56819 186.480199 
L 304.89317 188.218209 
L 305.218149 182.347398 
L 305.868108 158.220791 
L 306.193088 159.381872 
L 306.518067 137.39388 
L 306.843047 131.126568 
L 307.493006 144.797979 
L 307.817985 137.555101 
L 308.142965 119.255921 
L 308.467944 131.9403 
L 308.792924 119.444626 
L 309.117903 132.764889 
L 309.442883 158.966711 
L 309.767862 152.701176 
L 310.092842 171.361742 
L 310.417821 167.316754 
L 310.742801 148.370375 
L 311.067781 149.379647 
L 311.39276 155.619581 
L 311.71774 165.725972 
L 312.042719 162.97145 
L 312.367699 157.136914 
L 312.692678 169.588086 
L 313.017658 186.611439 
L 313.342637 162.461156 
L 313.667617 182.618072 
L 313.992596 182.272118 
L 314.317576 183.947038 
L 314.642555 182.544738 
L 314.967535 172.556955 
L 315.292514 173.054486 
L 315.617494 158.654501 
L 315.942473 165.019562 
L 316.267453 174.309049 
L 316.592432 194.142003 
L 316.917412 191.018342 
L 317.242391 192.432998 
L 317.567371 178.508215 
L 317.892351 169.381917 
L 318.21733 166.40979 
L 318.54231 175.580959 
L 318.867289 172.986175 
L 319.517248 183.457943 
L 319.842228 195.420181 
L 320.167207 192.125816 
L 320.492187 209.692324 
L 320.817166 210.89488 
L 321.142146 190.155753 
L 321.792105 172.191811 
L 322.117084 172.89482 
L 322.442064 167.228376 
L 323.092023 190.61784 
L 323.417002 173.096539 
L 323.741982 195.455009 
L 324.066962 200.522195 
L 324.391941 200.078033 
L 324.716921 201.404721 
L 325.0419 187.974471 
L 325.36688 185.986147 
L 325.691859 200.471206 
L 326.016839 198.477265 
L 326.341818 206.864664 
L 326.666798 200.829594 
L 326.991777 212.788633 
L 327.316757 205.791086 
L 327.641736 215.699737 
L 327.966716 213.653404 
L 328.291695 222.705291 
L 328.616675 217.447311 
L 328.941654 217.714024 
L 329.266634 214.651902 
L 329.591613 222.951089 
L 329.916593 211.15422 
L 330.241572 223.38253 
L 330.566552 216.746059 
L 330.891532 207.444526 
L 331.216511 220.262929 
L 331.86647 230.641857 
L 332.19145 225.353619 
L 332.841409 237.165412 
L 333.166388 218.621285 
L 333.491368 236.954935 
L 333.816347 237.232355 
L 334.141327 256.716471 
L 334.466306 253.91594 
L 334.791286 259.298892 
L 335.116265 256.839881 
L 335.441245 251.704332 
L 335.766224 250.463047 
L 336.091204 251.137101 
L 336.416183 235.290596 
L 336.741163 239.506599 
L 337.066143 235.22713 
L 337.391122 254.757656 
L 337.716102 251.614599 
L 338.041081 255.262689 
L 338.366061 239.224934 
L 339.01602 252.497493 
L 339.340999 238.081362 
L 339.665979 238.848481 
L 340.315938 212.42939 
L 340.640917 213.222089 
L 340.965897 219.498378 
L 341.615856 203.168456 
L 342.590794 227.835511 
L 342.915774 206.408303 
L 343.240753 205.441596 
L 343.565733 231.57603 
L 343.890713 239.991157 
L 344.215692 239.767337 
L 344.540672 242.608617 
L 344.865651 233.082968 
L 345.190631 246.143498 
L 345.51561 246.721567 
L 345.84059 216.732225 
L 346.165569 230.918062 
L 346.490549 239.299586 
L 346.815528 253.202156 
L 347.465487 230.657964 
L 347.790467 230.462324 
L 348.115446 233.194503 
L 348.440426 244.140248 
L 349.090385 235.384791 
L 349.415364 239.184229 
L 349.740344 239.223846 
L 350.065324 228.833663 
L 350.390303 234.638525 
L 351.040262 274.047545 
L 351.365242 262.596591 
L 351.690221 263.033648 
L 352.015201 242.520122 
L 352.66516 258.816788 
L 352.990139 259.765207 
L 353.315119 257.122356 
L 353.640098 258.503946 
L 353.965078 279.074745 
L 354.290057 259.18878 
L 354.615037 256.343931 
L 354.940016 256.50742 
L 355.264996 271.448171 
L 355.589975 257.960204 
L 355.914955 274.685631 
L 356.239934 261.582932 
L 356.564914 262.846497 
L 356.889894 275.22667 
L 357.214873 268.304186 
L 357.864832 295.488 
L 358.189812 271.791534 
L 358.514791 284.120147 
L 358.839771 275.882681 
L 359.16475 254.630481 
L 359.48973 276.901224 
L 359.814709 271.395475 
L 360.139689 274.605168 
L 360.464668 273.263614 
L 360.789648 270.001928 
L 361.114627 276.456385 
L 361.764586 256.029958 
L 362.414545 244.671766 
L 362.739525 252.116678 
L 363.064505 265.512052 
L 363.389484 239.267183 
L 363.714464 245.915651 
L 364.039443 278.722551 
L 364.364423 252.550448 
L 364.689402 258.426488 
L 365.014382 236.377854 
L 365.339361 222.709632 
L 365.98932 240.208778 
L 366.3143 229.739865 
L 366.639279 202.183827 
L 366.964259 204.645999 
L 367.614218 218.952986 
L 367.939197 204.780828 
L 368.264177 202.374698 
L 368.589156 194.526096 
L 368.914136 205.989089 
L 369.239115 194.625988 
L 369.564095 196.002193 
L 369.889075 210.607974 
L 370.214054 202.866393 
L 370.539034 202.762163 
L 370.864013 188.8445 
L 371.188993 205.466712 
L 371.838952 210.877036 
L 372.163931 205.623506 
L 372.488911 214.064447 
L 372.81389 226.593202 
L 373.13887 212.13309 
L 373.463849 190.562496 
L 373.788829 184.47678 
L 374.113808 197.956225 
L 374.438788 199.642672 
L 374.763767 203.994122 
L 375.088747 202.109609 
L 375.413726 239.678355 
L 375.738706 244.90481 
L 376.063686 259.867901 
L 376.388665 254.807455 
L 376.713645 243.243375 
L 377.038624 210.188251 
L 377.363604 207.214357 
L 377.688583 190.901963 
L 378.013563 182.296986 
L 378.338542 177.008534 
L 378.663522 184.716475 
L 378.988501 158.118146 
L 379.313481 149.251816 
L 379.63846 174.829686 
L 379.96344 183.754436 
L 380.288419 181.452871 
L 380.613399 199.673978 
L 380.938378 183.293047 
L 381.263358 189.920638 
L 381.588337 192.914151 
L 381.913317 216.498244 
L 382.238296 209.90149 
L 382.563276 219.215703 
L 382.888256 206.371521 
L 383.213235 210.677156 
L 383.538215 216.89916 
L 383.863194 230.083321 
L 384.188174 224.839502 
L 384.513153 206.142167 
L 384.838133 219.237041 
L 385.163112 207.95341 
L 385.488092 212.97862 
L 385.813071 215.99614 
L 386.138051 197.260164 
L 386.46303 196.048664 
L 386.78801 190.149819 
L 387.112989 200.137239 
L 387.437969 195.338981 
L 387.762948 199.973407 
L 388.087928 202.563358 
L 388.412907 222.13079 
L 388.737887 208.734885 
L 389.387846 190.402209 
L 389.712826 193.962037 
L 390.362785 205.043912 
L 390.687764 232.323103 
L 391.012744 220.068154 
L 391.337723 213.549683 
L 391.662703 220.594037 
L 391.987682 231.51841 
L 392.312662 210.20477 
L 392.637641 202.057092 
L 392.962621 209.992554 
L 393.2876 199.495583 
L 393.937559 212.218648 
L 394.262539 207.755461 
L 394.587518 215.068229 
L 395.237477 191.386307 
L 395.562457 187.828425 
L 395.887437 159.284394 
L 396.212416 150.990188 
L 396.537396 136.861156 
L 396.862375 163.2932 
L 397.187355 151.597342 
L 397.512334 157.674343 
L 397.837314 135.407776 
L 398.162293 137.177831 
L 398.487273 155.278267 
L 398.487273 155.278267 
" clip-path="url(#p9e27ae2e70)" style="fill: none; stroke: #1f77b4; stroke-width: 1.5; stroke-linecap: square"/>
   </g>
   <g id="patch_3">
    <path d="M 57.6 307.584 
L 57.6 41.472 
" style="fill: none; stroke: #000000; stroke-width: 0.8; stroke-linejoin: miter; stroke-linecap: square"/>
   </g>
   <g id="patch_4">
    <path d="M 414.72 307.584 
L 414.72 41.472 
" style="fill: none; stroke: #000000; stroke-width: 0.8; stroke-linejoin: miter; stroke-linecap: square"/>
   </g>
   <g id="patch_5">
    <path d="M 57.6 307.584 
L 414.72 307.584 
" style="fill: none; stroke: #000000; stroke-width: 0.8; stroke-linejoin: miter; stroke-linecap: square"/>
   </g>
   <g id="patch_6">
    <path d="M 57.6 41.472 
L 414.72 41.472 
" style="fill: none; stroke: #000000; stroke-width: 0.8; stroke-linejoin: miter; stroke-linecap: square"/>
   </g>
  </g>
 </g>
 <defs>
  <clipPath id="p9e27ae2e70">
   <rect x="57.6" y="41.472" width="357.12" height="266.112"/>
  </clipPath>
 </defs>
</svg>
