<?xml version="1.0" encoding="utf-8" standalone="no"?>
<!DOCTYPE svg PUBLIC "-//W3C//DTD SVG 1.1//EN"
  "http://www.w3.org/Graphics/SVG/1.1/DTD/svg11.dtd">
<svg xmlns:xlink="http://www.w3.org/1999/xlink" width="460.8pt" height="345.6pt" viewBox="0 0 460.8 345.6" xmlns="http://www.w3.org/2000/svg" version="1.1">
 <metadata>
  <rdf:RDF xmlns:dc="http://purl.org/dc/elements/1.1/" xmlns:cc="http://creativecommons.org/ns#" xmlns:rdf="http://www.w3.org/1999/02/22-rdf-syntax-ns#">
   <cc:Work>
    <dc:type rdf:resource="http://purl.org/dc/dcmitype/StillImage"/>
    <dc:date>2026-02-02T15:33:27.359794</dc:date>
    <dc:format>image/svg+xml</dc:format>
    <dc:creator>
     <cc:Agent>
      <dc:title>Matplotlib v3.10.8, https://matplotlib.org/</dc:title>
     </cc:Agent>
    </dc:creator>
   </cc:Work>
  </rdf:RDF>
 </metadata>
 <defs>
  <style type="text/css">*{stroke-linejoin: round; stroke-linecap: butt}</style>
 </defs>
 <g id="figure_1">
  <g id="patch_1">
   <path d="M 0 345.6 
L 460.8 345.6 
L 460.8 0 
L 0 0 
z
" style="fill: #ffffff"/>
  </g>
  <g id="axes_1">
   <g id="patch_2">
    <path d="M 84.390019 265.0705 
L 434.88 265.0705 
L 434.88 34.596 
L 84.390019 34.596 
z
" style="fill: #ffffff"/>
   </g>
   <g id="matplotlib.axis_1">
    <g id="xtick_1">
     <g id="line2d_1">
      <path d="M 101.074897 265.0705 
L 101.074897 34.596 
" clip-path="url(#p5b451cd9e2)" style="fill: none; stroke: #b0b0b0; stroke-width: 0.8; stroke-linecap: square"/>
     </g>
     <g id="line2d_2">
      <defs>
       <path id="m780edaaa64" d="M 0 0 
L 0 3.5 
" style="stroke: #000000; stroke-width: 0.8"/>
      </defs>
      <g>
       <use xlink:href="#m780edaaa64" x="101.074897" y="265.0705" style="stroke: #000000; stroke-width: 0.8"/>
      </g>
     </g>
     <g id="text_1">
      <!-- $\mathdefault{10^{0}}$ -->
      <g transform="translate(84.394897 288.46175) scale(0.24 -0.24)">
       <defs>
        <path id="TeXGyreTermes-Regular-31" d="M 2522 0 
L 2522 96 
C 2016 102 1914 166 1914 474 
L 1914 4314 
L 1862 4326 
L 710 3744 
L 710 3654 
C 787 3686 858 3712 883 3725 
C 998 3770 1107 3795 1171 3795 
C 1306 3795 1363 3699 1363 3494 
L 1363 595 
C 1363 384 1312 237 1210 179 
C 1114 122 1024 102 755 96 
L 755 0 
L 2522 0 
z
" transform="scale(0.015625)"/>
        <path id="TeXGyreTermes-Regular-30" d="M 3046 2112 
C 3046 3424 2464 4326 1626 4326 
C 1274 4326 1005 4218 768 3994 
C 397 3635 154 2899 154 2150 
C 154 1453 365 704 666 346 
C 902 64 1229 -90 1600 -90 
C 1926 -90 2202 19 2432 243 
C 2803 595 3046 1338 3046 2112 
z
M 2432 2099 
C 2432 762 2150 77 1600 77 
C 1050 77 768 762 768 2093 
C 768 3450 1056 4160 1606 4160 
C 2144 4160 2432 3437 2432 2099 
z
" transform="scale(0.015625)"/>
       </defs>
       <use xlink:href="#TeXGyreTermes-Regular-31" transform="translate(0 0.184375)"/>
       <use xlink:href="#TeXGyreTermes-Regular-30" transform="translate(49.999985 0.184375)"/>
       <use xlink:href="#TeXGyreTermes-Regular-30" transform="translate(100.787469 31.684375) scale(0.7)"/>
      </g>
     </g>
    </g>
    <g id="xtick_2">
     <g id="line2d_3">
      <path d="M 224.753598 265.0705 
L 224.753598 34.596 
" clip-path="url(#p5b451cd9e2)" style="fill: none; stroke: #b0b0b0; stroke-width: 0.8; stroke-linecap: square"/>
     </g>
     <g id="line2d_4">
      <g>
       <use xlink:href="#m780edaaa64" x="224.753598" y="265.0705" style="stroke: #000000; stroke-width: 0.8"/>
      </g>
     </g>
     <g id="text_2">
      <!-- $\mathdefault{10^{1}}$ -->
      <g transform="translate(208.073598 288.46175) scale(0.24 -0.24)">
       <use xlink:href="#TeXGyreTermes-Regular-31" transform="translate(0 0.184375)"/>
       <use xlink:href="#TeXGyreTermes-Regular-30" transform="translate(49.999985 0.184375)"/>
       <use xlink:href="#TeXGyreTermes-Regular-31" transform="translate(100.787469 31.684375) scale(0.7)"/>
      </g>
     </g>
    </g>
    <g id="xtick_3">
     <g id="line2d_5">
      <path d="M 348.432298 265.0705 
L 348.432298 34.596 
" clip-path="url(#p5b451cd9e2)" style="fill: none; stroke: #b0b0b0; stroke-width: 0.8; stroke-linecap: square"/>
     </g>
     <g id="line2d_6">
      <g>
       <use xlink:href="#m780edaaa64" x="348.432298" y="265.0705" style="stroke: #000000; stroke-width: 0.8"/>
      </g>
     </g>
     <g id="text_3">
      <!-- $\mathdefault{10^{2}}$ -->
      <g transform="translate(331.752298 288.46175) scale(0.24 -0.24)">
       <defs>
        <path id="TeXGyreTermes-Regular-32" d="M 3040 877 
L 2957 909 
C 2720 544 2637 486 2349 486 
L 819 486 
L 1894 1613 
C 2464 2208 2714 2694 2714 3194 
C 2714 3834 2195 4326 1530 4326 
C 1178 4326 845 4186 608 3930 
C 403 3712 307 3507 198 3053 
L 333 3021 
C 589 3648 819 3853 1261 3853 
C 1798 3853 2163 3488 2163 2950 
C 2163 2451 1869 1856 1331 1286 
L 192 77 
L 192 0 
L 2688 0 
L 3040 877 
z
" transform="scale(0.015625)"/>
       </defs>
       <use xlink:href="#TeXGyreTermes-Regular-31" transform="translate(0 0.184375)"/>
       <use xlink:href="#TeXGyreTermes-Regular-30" transform="translate(49.999985 0.184375)"/>
       <use xlink:href="#TeXGyreTermes-Regular-32" transform="translate(100.787469 31.684375) scale(0.7)"/>
      </g>
     </g>
    </g>
    <g id="xtick_4">
     <g id="line2d_7">
      <defs>
       <path id="mc988ec0b07" d="M 0 0 
L 0 2 
" style="stroke: #000000; stroke-width: 0.6"/>
      </defs>
      <g>
       <use xlink:href="#mc988ec0b07" x="89.089193" y="265.0705" style="stroke: #000000; stroke-width: 0.6"/>
      </g>
     </g>
    </g>
    <g id="xtick_5">
     <g id="line2d_8">
      <g>
       <use xlink:href="#mc988ec0b07" x="95.41567" y="265.0705" style="stroke: #000000; stroke-width: 0.6"/>
      </g>
     </g>
    </g>
    <g id="xtick_6">
     <g id="line2d_9">
      <g>
       <use xlink:href="#mc988ec0b07" x="138.305896" y="265.0705" style="stroke: #000000; stroke-width: 0.6"/>
      </g>
     </g>
    </g>
    <g id="xtick_7">
     <g id="line2d_10">
      <g>
       <use xlink:href="#mc988ec0b07" x="160.084634" y="265.0705" style="stroke: #000000; stroke-width: 0.6"/>
      </g>
     </g>
    </g>
    <g id="xtick_8">
     <g id="line2d_11">
      <g>
       <use xlink:href="#mc988ec0b07" x="175.536895" y="265.0705" style="stroke: #000000; stroke-width: 0.6"/>
      </g>
     </g>
    </g>
    <g id="xtick_9">
     <g id="line2d_12">
      <g>
       <use xlink:href="#mc988ec0b07" x="187.522599" y="265.0705" style="stroke: #000000; stroke-width: 0.6"/>
      </g>
     </g>
    </g>
    <g id="xtick_10">
     <g id="line2d_13">
      <g>
       <use xlink:href="#mc988ec0b07" x="197.315633" y="265.0705" style="stroke: #000000; stroke-width: 0.6"/>
      </g>
     </g>
    </g>
    <g id="xtick_11">
     <g id="line2d_14">
      <g>
       <use xlink:href="#mc988ec0b07" x="205.595525" y="265.0705" style="stroke: #000000; stroke-width: 0.6"/>
      </g>
     </g>
    </g>
    <g id="xtick_12">
     <g id="line2d_15">
      <g>
       <use xlink:href="#mc988ec0b07" x="212.767893" y="265.0705" style="stroke: #000000; stroke-width: 0.6"/>
      </g>
     </g>
    </g>
    <g id="xtick_13">
     <g id="line2d_16">
      <g>
       <use xlink:href="#mc988ec0b07" x="219.094371" y="265.0705" style="stroke: #000000; stroke-width: 0.6"/>
      </g>
     </g>
    </g>
    <g id="xtick_14">
     <g id="line2d_17">
      <g>
       <use xlink:href="#mc988ec0b07" x="261.984596" y="265.0705" style="stroke: #000000; stroke-width: 0.6"/>
      </g>
     </g>
    </g>
    <g id="xtick_15">
     <g id="line2d_18">
      <g>
       <use xlink:href="#mc988ec0b07" x="283.763335" y="265.0705" style="stroke: #000000; stroke-width: 0.6"/>
      </g>
     </g>
    </g>
    <g id="xtick_16">
     <g id="line2d_19">
      <g>
       <use xlink:href="#mc988ec0b07" x="299.215595" y="265.0705" style="stroke: #000000; stroke-width: 0.6"/>
      </g>
     </g>
    </g>
    <g id="xtick_17">
     <g id="line2d_20">
      <g>
       <use xlink:href="#mc988ec0b07" x="311.2013" y="265.0705" style="stroke: #000000; stroke-width: 0.6"/>
      </g>
     </g>
    </g>
    <g id="xtick_18">
     <g id="line2d_21">
      <g>
       <use xlink:href="#mc988ec0b07" x="320.994333" y="265.0705" style="stroke: #000000; stroke-width: 0.6"/>
      </g>
     </g>
    </g>
    <g id="xtick_19">
     <g id="line2d_22">
      <g>
       <use xlink:href="#mc988ec0b07" x="329.274225" y="265.0705" style="stroke: #000000; stroke-width: 0.6"/>
      </g>
     </g>
    </g>
    <g id="xtick_20">
     <g id="line2d_23">
      <g>
       <use xlink:href="#mc988ec0b07" x="336.446594" y="265.0705" style="stroke: #000000; stroke-width: 0.6"/>
      </g>
     </g>
    </g>
    <g id="xtick_21">
     <g id="line2d_24">
      <g>
       <use xlink:href="#mc988ec0b07" x="342.773071" y="265.0705" style="stroke: #000000; stroke-width: 0.6"/>
      </g>
     </g>
    </g>
    <g id="xtick_22">
     <g id="line2d_25">
      <g>
       <use xlink:href="#mc988ec0b07" x="385.663297" y="265.0705" style="stroke: #000000; stroke-width: 0.6"/>
      </g>
     </g>
    </g>
    <g id="xtick_23">
     <g id="line2d_26">
      <g>
       <use xlink:href="#mc988ec0b07" x="407.442035" y="265.0705" style="stroke: #000000; stroke-width: 0.6"/>
      </g>
     </g>
    </g>
    <g id="xtick_24">
     <g id="line2d_27">
      <g>
       <use xlink:href="#mc988ec0b07" x="422.894296" y="265.0705" style="stroke: #000000; stroke-width: 0.6"/>
      </g>
     </g>
    </g>
    <g id="xtick_25">
     <g id="line2d_28">
      <g>
       <use xlink:href="#mc988ec0b07" x="434.88" y="265.0705" style="stroke: #000000; stroke-width: 0.6"/>
      </g>
     </g>
    </g>
    <g id="text_4">
     <!-- Frequenz in Hz -->
     <g transform="translate(185.653134 314.06175) scale(0.24 -0.24)">
      <defs>
       <path id="TeXGyreTermes-Regular-46" d="M 3494 3322 
L 3475 4237 
L 77 4237 
L 77 4115 
C 550 4077 634 3987 634 3539 
L 634 768 
C 634 237 563 154 77 122 
L 77 0 
L 1869 0 
L 1869 122 
C 1376 147 1286 237 1286 698 
L 1286 2093 
L 2214 2093 
C 2733 2093 2842 1997 2918 1478 
L 3066 1478 
L 3066 2963 
L 2918 2963 
C 2842 2451 2726 2355 2214 2355 
L 1286 2355 
L 1286 3776 
C 1286 3955 1318 3994 1491 3994 
L 2362 3994 
C 3085 3994 3226 3898 3334 3322 
L 3494 3322 
z
" transform="scale(0.015625)"/>
       <path id="TeXGyreTermes-Regular-72" d="M 2144 2605 
C 2144 2816 2010 2944 1792 2944 
C 1523 2944 1338 2797 1024 2342 
L 1024 2931 
L 992 2944 
C 653 2803 422 2720 45 2598 
L 45 2496 
C 134 2515 192 2522 269 2522 
C 429 2522 486 2419 486 2138 
L 486 538 
C 486 218 442 173 32 96 
L 32 0 
L 1568 0 
L 1568 96 
C 1133 115 1024 211 1024 576 
L 1024 2016 
C 1024 2221 1299 2541 1472 2541 
C 1510 2541 1568 2509 1638 2445 
C 1741 2355 1811 2317 1894 2317 
C 2048 2317 2144 2426 2144 2605 
z
" transform="scale(0.015625)"/>
       <path id="TeXGyreTermes-Regular-65" d="M 2714 1005 
L 2611 1050 
C 2304 563 2029 378 1619 378 
C 1267 378 998 544 813 890 
C 685 1139 634 1363 621 1773 
L 2592 1773 
C 2541 2189 2477 2374 2317 2579 
C 2125 2810 1830 2944 1498 2944 
C 704 2944 160 2304 160 1370 
C 160 486 621 -64 1357 -64 
C 1971 -64 2445 314 2714 1005 
z
M 1939 1978 
L 634 1978 
C 704 2483 922 2714 1312 2714 
C 1702 2714 1856 2534 1939 1978 
z
" transform="scale(0.015625)"/>
       <path id="TeXGyreTermes-Regular-71" d="M 3123 -1389 
L 3123 -1299 
C 2771 -1222 2720 -1171 2720 -902 
L 2720 2925 
L 2650 2925 
L 2304 2720 
C 2010 2893 1818 2950 1568 2950 
C 768 2950 154 2234 154 1312 
C 154 506 576 -64 1178 -64 
C 1549 -64 1901 102 2182 410 
L 2182 -794 
C 2182 -1152 2067 -1248 1613 -1280 
L 1613 -1389 
L 3123 -1389 
z
M 2182 813 
C 2182 659 2157 576 2093 525 
C 1952 403 1741 326 1542 326 
C 1344 326 1171 390 1043 518 
C 838 704 704 1120 704 1542 
C 704 2298 1043 2771 1587 2771 
C 1984 2771 2182 2560 2182 2131 
L 2182 813 
z
" transform="scale(0.015625)"/>
       <path id="TeXGyreTermes-Regular-75" d="M 3066 230 
L 3066 320 
L 3034 320 
C 2739 320 2669 390 2669 685 
L 2669 2880 
L 1658 2880 
L 1658 2771 
C 2054 2752 2131 2688 2131 2368 
L 2131 864 
C 2131 691 2099 595 2022 538 
C 1843 384 1645 307 1446 307 
C 1197 307 992 525 992 794 
L 992 2880 
L 58 2880 
L 58 2790 
C 365 2771 454 2675 454 2381 
L 454 768 
C 454 262 762 -64 1229 -64 
C 1466 -64 1715 38 1888 211 
L 2163 486 
L 2163 -45 
L 2189 -58 
C 2509 70 2739 141 3066 230 
z
" transform="scale(0.015625)"/>
       <path id="TeXGyreTermes-Regular-6e" d="M 3104 0 
L 3104 96 
C 2790 128 2714 205 2714 518 
L 2714 1984 
C 2714 2586 2432 2944 1958 2944 
C 1664 2944 1466 2835 1030 2426 
L 1030 2931 
L 986 2944 
C 672 2829 454 2758 102 2656 
L 102 2547 
C 141 2566 205 2573 275 2573 
C 454 2573 512 2477 512 2163 
L 512 576 
C 512 211 442 122 115 96 
L 115 0 
L 1472 0 
L 1472 96 
C 1146 122 1050 198 1050 429 
L 1050 2227 
C 1357 2515 1498 2592 1709 2592 
C 2022 2592 2176 2394 2176 1971 
L 2176 634 
C 2176 230 2093 122 1773 96 
L 1773 0 
L 3104 0 
z
" transform="scale(0.015625)"/>
       <path id="TeXGyreTermes-Regular-7a" d="M 2675 864 
L 2560 890 
C 2496 570 2458 467 2374 358 
C 2285 250 2067 192 1741 192 
L 858 192 
L 2579 2784 
L 2579 2880 
L 358 2880 
L 339 2125 
L 454 2125 
C 512 2592 608 2688 992 2688 
L 1875 2688 
L 173 96 
L 173 0 
L 2586 0 
L 2675 864 
z
" transform="scale(0.015625)"/>
       <path id="TeXGyreTermes-Regular-20" transform="scale(0.015625)"/>
       <path id="TeXGyreTermes-Regular-69" d="M 1619 0 
L 1619 96 
C 1197 128 1146 192 1146 653 
L 1146 2925 
L 1120 2944 
L 128 2592 
L 128 2496 
L 179 2502 
C 256 2515 339 2522 397 2522 
C 550 2522 608 2419 608 2138 
L 608 653 
C 608 192 544 122 102 96 
L 102 0 
L 1619 0 
z
M 1203 3776 
C 1203 3955 1062 4102 877 4102 
C 698 4102 550 3955 550 3776 
C 550 3590 698 3450 877 3450 
C 1062 3450 1203 3590 1203 3776 
z
" transform="scale(0.015625)"/>
       <path id="TeXGyreTermes-Regular-48" d="M 4493 0 
L 4493 122 
C 4013 160 3930 243 3930 698 
L 3930 3539 
C 3930 4000 4000 4070 4493 4115 
L 4493 4237 
L 2714 4237 
L 2714 4115 
C 3206 4070 3277 4000 3277 3539 
L 3277 2298 
L 1338 2298 
L 1338 3539 
C 1338 4000 1408 4070 1901 4115 
L 1901 4237 
L 122 4237 
L 122 4115 
C 614 4070 685 4000 685 3539 
L 685 768 
C 685 230 621 154 122 122 
L 122 0 
L 1901 0 
L 1901 122 
C 1421 160 1338 243 1338 698 
L 1338 2016 
L 3277 2016 
L 3277 768 
C 3277 230 3213 154 2714 122 
L 2714 0 
L 4493 0 
z
" transform="scale(0.015625)"/>
      </defs>
      <use xlink:href="#TeXGyreTermes-Regular-46"/>
      <use xlink:href="#TeXGyreTermes-Regular-72" transform="translate(55.599991 0)"/>
      <use xlink:href="#TeXGyreTermes-Regular-65" transform="translate(88.899979 0)"/>
      <use xlink:href="#TeXGyreTermes-Regular-71" transform="translate(133.299973 0)"/>
      <use xlink:href="#TeXGyreTermes-Regular-75" transform="translate(183.299957 0)"/>
      <use xlink:href="#TeXGyreTermes-Regular-65" transform="translate(233.299942 0)"/>
      <use xlink:href="#TeXGyreTermes-Regular-6e" transform="translate(277.699936 0)"/>
      <use xlink:href="#TeXGyreTermes-Regular-7a" transform="translate(327.699921 0)"/>
      <use xlink:href="#TeXGyreTermes-Regular-20" transform="translate(372.099915 0)"/>
      <use xlink:href="#TeXGyreTermes-Regular-69" transform="translate(397.099899 0)"/>
      <use xlink:href="#TeXGyreTermes-Regular-6e" transform="translate(424.899887 0)"/>
      <use xlink:href="#TeXGyreTermes-Regular-20" transform="translate(474.899872 0)"/>
      <use xlink:href="#TeXGyreTermes-Regular-48" transform="translate(499.899857 0)"/>
      <use xlink:href="#TeXGyreTermes-Regular-7a" transform="translate(572.099838 0)"/>
     </g>
    </g>
   </g>
   <g id="matplotlib.axis_2">
    <g id="ytick_1">
     <g id="line2d_29">
      <path d="M 84.390019 265.0705 
L 434.88 265.0705 
" clip-path="url(#p5b451cd9e2)" style="fill: none; stroke: #b0b0b0; stroke-width: 0.8; stroke-linecap: square"/>
     </g>
     <g id="line2d_30">
      <defs>
       <path id="mb4df0533d3" d="M 0 0 
L -3.5 0 
" style="stroke: #000000; stroke-width: 0.8"/>
      </defs>
      <g>
       <use xlink:href="#mb4df0533d3" x="84.390019" y="265.0705" style="stroke: #000000; stroke-width: 0.8"/>
      </g>
     </g>
     <g id="text_5">
      <!-- $\mathdefault{10^{-12}}$ -->
      <g transform="translate(26.270019 273.266125) scale(0.24 -0.24)">
       <defs>
        <path id="TeXGyreTermes-Regular-2212" d="M 3354 1389 
L 3354 1811 
L 256 1811 
L 256 1389 
L 3354 1389 
z
" transform="scale(0.015625)"/>
       </defs>
       <use xlink:href="#TeXGyreTermes-Regular-31" transform="translate(0 0.184375)"/>
       <use xlink:href="#TeXGyreTermes-Regular-30" transform="translate(49.999985 0.184375)"/>
       <use xlink:href="#TeXGyreTermes-Regular-2212" transform="translate(100.787469 31.684375) scale(0.7)"/>
       <use xlink:href="#TeXGyreTermes-Regular-31" transform="translate(140.267465 31.684375) scale(0.7)"/>
       <use xlink:href="#TeXGyreTermes-Regular-32" transform="translate(175.267455 31.684375) scale(0.7)"/>
      </g>
     </g>
    </g>
    <g id="ytick_2">
     <g id="line2d_31">
      <path d="M 84.390019 207.451875 
L 434.88 207.451875 
" clip-path="url(#p5b451cd9e2)" style="fill: none; stroke: #b0b0b0; stroke-width: 0.8; stroke-linecap: square"/>
     </g>
     <g id="line2d_32">
      <g>
       <use xlink:href="#mb4df0533d3" x="84.390019" y="207.451875" style="stroke: #000000; stroke-width: 0.8"/>
      </g>
     </g>
     <g id="text_6">
      <!-- $\mathdefault{10^{-9}}$ -->
      <g transform="translate(34.670019 215.6475) scale(0.24 -0.24)">
       <defs>
        <path id="TeXGyreTermes-Regular-39" d="M 2938 2522 
C 2938 3578 2349 4326 1523 4326 
C 762 4326 192 3680 192 2816 
C 192 2035 653 1517 1344 1517 
C 1696 1517 1965 1619 2304 1882 
C 2042 838 1331 154 358 -13 
L 378 -141 
C 1094 -58 1446 64 1882 378 
C 2547 864 2938 1658 2938 2522 
z
M 2317 2272 
C 2317 2144 2291 2086 2221 2029 
C 2042 1875 1805 1792 1574 1792 
C 1088 1792 781 2272 781 3034 
C 781 3398 883 3782 1018 3949 
C 1126 4077 1286 4147 1472 4147 
C 2029 4147 2317 3597 2317 2522 
L 2317 2272 
z
" transform="scale(0.015625)"/>
       </defs>
       <use xlink:href="#TeXGyreTermes-Regular-31" transform="translate(0 0.184375)"/>
       <use xlink:href="#TeXGyreTermes-Regular-30" transform="translate(49.999985 0.184375)"/>
       <use xlink:href="#TeXGyreTermes-Regular-2212" transform="translate(100.787469 31.684375) scale(0.7)"/>
       <use xlink:href="#TeXGyreTermes-Regular-39" transform="translate(140.267465 31.684375) scale(0.7)"/>
      </g>
     </g>
    </g>
    <g id="ytick_3">
     <g id="line2d_33">
      <path d="M 84.390019 149.83325 
L 434.88 149.83325 
" clip-path="url(#p5b451cd9e2)" style="fill: none; stroke: #b0b0b0; stroke-width: 0.8; stroke-linecap: square"/>
     </g>
     <g id="line2d_34">
      <g>
       <use xlink:href="#mb4df0533d3" x="84.390019" y="149.83325" style="stroke: #000000; stroke-width: 0.8"/>
      </g>
     </g>
     <g id="text_7">
      <!-- $\mathdefault{10^{-6}}$ -->
      <g transform="translate(34.670019 158.028875) scale(0.24 -0.24)">
       <defs>
        <path id="TeXGyreTermes-Regular-36" d="M 2995 1402 
C 2995 2221 2528 2739 1792 2739 
C 1510 2739 1376 2694 973 2451 
C 1146 3418 1862 4109 2867 4275 
L 2854 4378 
C 2125 4314 1754 4192 1286 3866 
C 595 3373 218 2643 218 1786 
C 218 1229 390 666 666 346 
C 909 64 1254 -90 1651 -90 
C 2445 -90 2995 518 2995 1402 
z
M 2419 1184 
C 2419 480 2170 90 1722 90 
C 1158 90 813 691 813 1683 
C 813 2010 864 2189 992 2285 
C 1126 2387 1325 2445 1549 2445 
C 2099 2445 2419 1984 2419 1184 
z
" transform="scale(0.015625)"/>
       </defs>
       <use xlink:href="#TeXGyreTermes-Regular-31" transform="translate(0 0.615625)"/>
       <use xlink:href="#TeXGyreTermes-Regular-30" transform="translate(49.999985 0.615625)"/>
       <use xlink:href="#TeXGyreTermes-Regular-2212" transform="translate(100.787469 32.115625) scale(0.7)"/>
       <use xlink:href="#TeXGyreTermes-Regular-36" transform="translate(140.267465 32.115625) scale(0.7)"/>
      </g>
     </g>
    </g>
    <g id="ytick_4">
     <g id="line2d_35">
      <path d="M 84.390019 92.214625 
L 434.88 92.214625 
" clip-path="url(#p5b451cd9e2)" style="fill: none; stroke: #b0b0b0; stroke-width: 0.8; stroke-linecap: square"/>
     </g>
     <g id="line2d_36">
      <g>
       <use xlink:href="#mb4df0533d3" x="84.390019" y="92.214625" style="stroke: #000000; stroke-width: 0.8"/>
      </g>
     </g>
     <g id="text_8">
      <!-- $\mathdefault{10^{-3}}$ -->
      <g transform="translate(34.670019 100.41025) scale(0.24 -0.24)">
       <defs>
        <path id="TeXGyreTermes-Regular-33" d="M 2765 1402 
C 2765 1728 2662 2029 2477 2227 
C 2349 2368 2227 2445 1946 2566 
C 2387 2867 2547 3104 2547 3450 
C 2547 3968 2138 4326 1549 4326 
C 1229 4326 947 4218 717 4013 
C 525 3840 429 3674 288 3290 
L 384 3264 
C 646 3731 934 3942 1338 3942 
C 1754 3942 2042 3661 2042 3258 
C 2042 3027 1946 2797 1786 2637 
C 1594 2445 1414 2349 979 2195 
L 979 2112 
C 1357 2112 1504 2099 1658 2042 
C 2054 1901 2304 1536 2304 1094 
C 2304 557 1939 141 1466 141 
C 1293 141 1165 186 928 339 
C 736 454 627 499 518 499 
C 371 499 275 410 275 275 
C 275 51 550 -90 998 -90 
C 1491 -90 1997 77 2298 339 
C 2598 602 2765 973 2765 1402 
z
" transform="scale(0.015625)"/>
       </defs>
       <use xlink:href="#TeXGyreTermes-Regular-31" transform="translate(0 0.184375)"/>
       <use xlink:href="#TeXGyreTermes-Regular-30" transform="translate(49.999985 0.184375)"/>
       <use xlink:href="#TeXGyreTermes-Regular-2212" transform="translate(100.787469 31.684375) scale(0.7)"/>
       <use xlink:href="#TeXGyreTermes-Regular-33" transform="translate(140.267465 31.684375) scale(0.7)"/>
      </g>
     </g>
    </g>
    <g id="ytick_5">
     <g id="line2d_37">
      <path d="M 84.390019 34.596 
L 434.88 34.596 
" clip-path="url(#p5b451cd9e2)" style="fill: none; stroke: #b0b0b0; stroke-width: 0.8; stroke-linecap: square"/>
     </g>
     <g id="line2d_38">
      <g>
       <use xlink:href="#mb4df0533d3" x="84.390019" y="34.596" style="stroke: #000000; stroke-width: 0.8"/>
      </g>
     </g>
     <g id="text_9">
      <!-- $\mathdefault{10^{0}}$ -->
      <g transform="translate(44.030019 42.791625) scale(0.24 -0.24)">
       <use xlink:href="#TeXGyreTermes-Regular-31" transform="translate(0 0.184375)"/>
       <use xlink:href="#TeXGyreTermes-Regular-30" transform="translate(49.999985 0.184375)"/>
       <use xlink:href="#TeXGyreTermes-Regular-30" transform="translate(100.787469 31.684375) scale(0.7)"/>
      </g>
     </g>
    </g>
   </g>
   <g id="line2d_39">
    <path d="M -1 69.174892 
L 101.074897 69.106643 
L 138.305896 70.386709 
L 160.084634 120.328187 
L 175.536895 87.442234 
L 187.522599 98.294443 
L 197.315633 77.706975 
L 205.595525 92.837705 
L 212.767893 82.57393 
L 219.094371 90.601837 
L 224.753598 84.990889 
L 229.872991 72.563554 
L 234.546631 88.053637 
L 238.845964 77.848512 
L 242.826523 73.806286 
L 246.532336 80.982969 
L 249.998892 91.397941 
L 253.255221 76.492096 
L 256.325369 116.187966 
L 259.229481 82.448014 
L 261.984596 93.00008 
L 264.605261 95.394021 
L 267.10399 89.769368 
L 269.491626 76.930848 
L 271.77763 88.918178 
L 273.970301 105.112864 
L 276.076962 75.597929 
L 278.104108 143.05028 
L 280.057522 74.923963 
L 281.942381 98.644663 
L 283.763335 92.819432 
L 285.524574 95.672807 
L 287.229891 88.791252 
L 288.882728 85.6327 
L 290.48622 78.734123 
L 292.043226 82.609828 
L 293.556368 81.7682 
L 295.028049 91.130327 
L 296.46048 87.376211 
L 297.8557 80.945192 
L 299.215595 100.41021 
L 300.541909 94.225385 
L 301.83626 90.860158 
L 303.100153 85.45637 
L 304.334989 78.983847 
L 305.542073 82.303094 
L 306.722625 91.509824 
L 307.877787 73.303202 
L 309.008629 82.428154 
L 310.116152 110.312318 
L 311.2013 98.834296 
L 312.264958 76.709029 
L 313.307961 84.371858 
L 314.331096 80.736589 
L 315.335106 92.25414 
L 316.320693 83.920114 
L 317.288521 84.804401 
L 318.239218 80.239771 
L 319.17338 88.521074 
L 320.091573 86.904086 
L 320.994333 88.707896 
L 321.882171 87.476628 
L 322.755572 89.843359 
L 323.614998 88.044775 
L 324.460889 98.02761 
L 325.293665 79.008378 
L 326.113727 80.918648 
L 327.717218 103.297536 
L 328.501363 105.525918 
L 329.274225 83.664816 
L 330.036124 86.413523 
L 330.787367 107.504235 
L 331.528247 92.018911 
L 332.259047 88.133691 
L 333.691478 96.616626 
L 334.393619 89.552644 
L 335.086699 104.504702 
L 335.77095 92.249584 
L 336.446594 82.875587 
L 337.113844 80.652996 
L 337.772907 104.519102 
L 338.423982 97.652052 
L 339.067259 99.179272 
L 339.702923 91.934244 
L 340.331152 91.352141 
L 340.952118 93.896803 
L 341.565987 103.45139 
L 342.17292 122.3343 
L 342.773071 121.98049 
L 343.366591 104.765695 
L 343.953624 99.725865 
L 344.53431 106.519555 
L 345.108786 118.763556 
L 345.677183 84.73566 
L 346.239627 102.440017 
L 346.796244 88.646342 
L 347.347151 95.911847 
L 347.892465 106.523486 
L 348.432298 90.178953 
L 348.96676 138.180227 
L 349.495956 86.886703 
L 350.019989 121.130547 
L 350.538959 122.628171 
L 351.052963 92.356785 
L 351.562095 109.349797 
L 352.066446 97.858162 
L 352.566105 92.017931 
L 353.061159 102.289304 
L 353.551692 97.452454 
L 354.037785 105.753975 
L 354.519519 90.535691 
L 354.996971 95.267949 
L 355.470216 89.97643 
L 355.939328 96.356399 
L 356.404379 97.143038 
L 356.865437 122.225542 
L 357.322571 94.469948 
L 357.775848 86.379936 
L 358.225332 98.191405 
L 358.671085 96.855687 
L 359.11317 91.225567 
L 359.551646 95.703583 
L 359.986571 140.069512 
L 360.418003 92.500402 
L 360.845997 100.190656 
L 361.270608 115.063991 
L 361.691888 88.565906 
L 362.10989 94.196091 
L 362.524664 97.968124 
L 362.93626 83.105467 
L 363.344725 104.744898 
L 363.750108 98.860346 
L 364.152455 109.858909 
L 364.551809 86.438693 
L 364.948217 93.387646 
L 365.34172 107.343151 
L 365.732362 93.166163 
L 366.120183 108.084349 
L 366.505224 92.353436 
L 366.887524 87.220343 
L 367.267123 88.454478 
L 367.644057 96.109453 
L 368.018365 93.661369 
L 368.390083 108.673454 
L 368.759246 85.180608 
L 369.125889 92.457858 
L 369.490046 106.498199 
L 369.851751 79.972004 
L 370.211036 128.004267 
L 370.567934 81.853042 
L 370.922477 106.715834 
L 371.274694 88.850997 
L 371.624617 90.047267 
L 371.972275 95.94003 
L 372.317698 111.281164 
L 372.660913 106.85546 
L 373.001949 81.756614 
L 373.340833 89.546513 
L 373.677592 89.395265 
L 374.012254 105.960678 
L 374.344843 82.114603 
L 374.675385 85.156988 
L 375.003906 114.085207 
L 375.33043 90.352972 
L 375.654981 87.419756 
L 375.977582 108.824941 
L 376.298257 85.450447 
L 376.61703 91.785969 
L 376.933921 105.52612 
L 377.248954 83.434475 
L 377.56215 126.844045 
L 377.873531 100.77131 
L 378.183117 99.511055 
L 378.490928 104.535645 
L 378.796986 105.441499 
L 379.10131 110.890274 
L 379.403919 95.980141 
L 379.704832 90.317794 
L 380.00407 109.262917 
L 380.301649 106.213094 
L 380.59759 108.325767 
L 380.891908 117.917722 
L 381.184622 99.052137 
L 381.47575 90.931928 
L 381.765309 97.393207 
L 382.053315 98.035396 
L 382.339785 99.519062 
L 382.624735 85.753534 
L 382.908181 87.825823 
L 383.749655 103.326371 
L 384.303402 89.871991 
L 384.578149 111.613698 
L 384.851498 112.655862 
L 385.123463 100.714082 
L 385.394058 107.74757 
L 385.663297 105.317756 
L 385.931193 108.770705 
L 386.197759 101.389037 
L 386.463009 89.915999 
L 386.726955 111.990706 
L 387.250988 97.92992 
L 387.5111 120.876154 
L 387.769958 99.559049 
L 388.027575 95.715586 
L 388.283962 99.904741 
L 388.793093 134.043563 
L 389.045861 92.856768 
L 389.297444 107.781471 
L 389.547855 103.996686 
L 389.797104 97.987485 
L 390.045201 103.713389 
L 390.292158 90.390575 
L 390.537984 95.244208 
L 390.78269 85.85925 
L 391.026287 87.522079 
L 391.268784 102.423202 
L 391.510191 99.67627 
L 391.750518 106.692158 
L 391.989774 108.874404 
L 392.22797 101.037953 
L 392.465114 115.751316 
L 392.701215 93.376448 
L 392.936283 117.563434 
L 393.170327 93.915497 
L 393.403355 100.987466 
L 393.635377 99.121108 
L 393.866401 89.803614 
L 394.096436 117.927702 
L 394.325489 100.154649 
L 394.780687 95.637538 
L 395.006847 93.627808 
L 395.232059 103.864984 
L 395.45633 94.274643 
L 395.67967 98.371349 
L 395.902084 91.740342 
L 396.123581 105.417263 
L 396.344169 128.042624 
L 396.563854 96.911854 
L 396.782644 89.441382 
L 397.000547 112.648128 
L 397.217569 105.717505 
L 397.649001 98.972354 
L 397.863425 93.698307 
L 398.076995 108.067684 
L 398.501606 85.219803 
L 398.712659 91.217969 
L 398.922887 103.103664 
L 399.132294 108.468594 
L 399.340889 86.751748 
L 399.548676 104.808371 
L 399.755663 101.846234 
L 399.961855 89.997352 
L 400.167258 117.108202 
L 400.371879 92.553835 
L 400.575724 95.474754 
L 400.778798 87.39121 
L 400.981107 104.050282 
L 401.182657 83.390449 
L 401.383453 102.015851 
L 401.583502 100.76395 
L 401.782808 85.85083 
L 401.981377 92.194801 
L 402.179216 104.926003 
L 402.376328 88.188086 
L 402.572719 111.883856 
L 402.768395 102.646581 
L 402.963361 110.512693 
L 403.157621 95.821812 
L 403.351182 100.185896 
L 403.736222 88.4467 
L 403.927713 98.710907 
L 404.118523 125.25238 
L 404.308657 95.178548 
L 404.498121 90.567805 
L 404.686919 94.9826 
L 404.875056 91.381036 
L 405.062536 99.082514 
L 405.249364 95.757209 
L 405.435544 135.336998 
L 405.621082 86.486314 
L 405.80598 123.998678 
L 405.990244 101.650336 
L 406.173879 93.821331 
L 406.356887 111.566239 
L 406.539275 97.376024 
L 406.721045 99.226618 
L 406.902201 104.330472 
L 407.082749 93.469794 
L 407.262693 104.261759 
L 407.442035 88.071054 
L 407.62078 92.855666 
L 407.798933 89.262885 
L 408.153476 93.400401 
L 408.329873 93.903733 
L 408.505693 101.908286 
L 408.680939 104.590271 
L 408.855616 83.026145 
L 409.029726 117.117214 
L 409.203274 119.951489 
L 409.376263 94.376865 
L 409.548696 114.840913 
L 409.720578 92.974206 
L 409.891911 111.660295 
L 410.0627 87.82432 
L 410.232947 85.07943 
L 410.402657 103.485809 
L 410.571831 106.323926 
L 410.740475 92.280418 
L 410.908591 131.895831 
L 411.076182 106.902087 
L 411.243252 100.194096 
L 411.409804 98.844323 
L 411.575842 113.397782 
L 411.741367 93.142242 
L 411.906384 100.893326 
L 412.070896 95.932282 
L 412.398415 122.698813 
L 412.723949 93.682456 
L 412.885979 90.351315 
L 413.047522 103.940602 
L 413.208581 100.223316 
L 413.369158 113.469499 
L 413.529256 93.84892 
L 413.688879 110.850071 
L 413.848028 101.490458 
L 414.006708 119.194732 
L 414.16492 86.322614 
L 414.322667 104.730702 
L 414.479953 91.053444 
L 414.636779 112.057743 
L 414.949065 87.814858 
L 415.259545 105.606538 
L 415.568242 89.788589 
L 415.721927 96.085516 
L 415.875174 120.417926 
L 416.027985 97.288056 
L 416.180362 107.163743 
L 416.332308 94.163918 
L 416.634917 103.893642 
L 416.785585 102.162603 
L 416.935831 120.725125 
L 417.085658 108.962329 
L 417.235069 107.693466 
L 417.384064 104.247907 
L 417.532648 92.381588 
L 417.680822 99.644787 
L 417.828588 95.885029 
L 417.975949 104.086924 
L 418.269463 92.270192 
L 418.415621 94.975338 
L 418.561382 101.307014 
L 418.706749 87.365061 
L 418.996308 92.624367 
L 419.140504 103.213346 
L 419.284313 91.60001 
L 419.427739 110.963017 
L 419.713447 96.912621 
L 419.855734 102.169236 
L 419.997644 90.463133 
L 420.13918 99.031988 
L 420.280344 99.204604 
L 420.561565 115.832848 
L 420.84132 94.979111 
L 420.980654 103.00069 
L 421.119627 101.24563 
L 421.258241 94.503832 
L 421.396498 108.816333 
L 421.534401 91.576126 
L 421.945996 130.375885 
L 422.218652 100.561504 
L 422.354462 102.832225 
L 422.48993 86.453829 
L 422.625057 99.251958 
L 422.759845 125.266111 
L 422.894296 123.736989 
L 423.162191 94.972489 
L 423.29564 104.422715 
L 423.561546 98.612296 
L 423.694007 90.31275 
L 423.826143 90.180588 
L 423.957954 105.927935 
L 424.220609 88.54379 
L 424.351457 96.279542 
L 424.481987 114.548611 
L 424.6122 102.360608 
L 424.742099 104.328825 
L 424.871684 100.906472 
L 425.000957 92.077936 
L 425.258573 105.904339 
L 425.38692 93.681197 
L 425.514961 94.848933 
L 425.642697 98.984196 
L 425.77013 113.895265 
L 425.897261 92.135557 
L 426.150624 90.513017 
L 426.276859 111.578458 
L 426.402799 88.4098 
L 426.528443 105.780891 
L 426.778854 93.48927 
L 427.028102 100.420435 
L 427.152294 96.675442 
L 427.2762 97.601823 
L 427.39982 102.984466 
L 427.523156 103.060443 
L 427.64621 99.526349 
L 427.768983 141.206302 
L 427.891475 97.073394 
L 428.013689 104.798483 
L 428.135625 98.56949 
L 428.257286 99.308492 
L 428.378671 128.624855 
L 428.499783 102.396948 
L 428.620622 108.666434 
L 428.74119 105.302131 
L 428.981517 125.104544 
L 429.101278 97.137394 
L 429.220773 112.585196 
L 429.340003 111.564731 
L 429.458968 97.730611 
L 429.577671 115.257404 
L 429.696112 95.650509 
L 429.814293 97.048505 
L 429.932214 94.50431 
L 430.167282 101.557398 
L 430.284431 117.944965 
L 430.401326 94.627931 
L 430.517966 106.260069 
L 430.634354 104.908467 
L 430.866376 94.606487 
L 430.982012 114.378046 
L 431.0974 90.58449 
L 431.21254 92.800946 
L 431.327434 102.958223 
L 431.442083 94.390213 
L 431.670649 97.02249 
L 431.784569 87.188486 
L 432.011685 104.471753 
L 432.124884 100.966099 
L 432.35057 81.041754 
L 432.463058 85.750802 
L 432.687329 104.401205 
L 432.799115 114.799262 
L 433.021991 93.394494 
L 433.243945 98.60665 
L 433.464987 114.512155 
L 433.575167 118.53369 
L 433.794852 98.312758 
L 434.013643 99.80213 
L 434.122705 103.249968 
L 434.231546 102.658295 
L 434.340167 101.331817 
L 434.664717 88.040509 
L 434.772466 118.960451 
L 434.772466 118.960451 
" clip-path="url(#p5b451cd9e2)" style="fill: none; stroke: #1f77b4; stroke-width: 2; stroke-linecap: square"/>
   </g>
   <g id="patch_3">
    <path d="M 84.390019 265.0705 
L 84.390019 34.596 
" style="fill: none; stroke: #000000; stroke-width: 0.8; stroke-linejoin: miter; stroke-linecap: square"/>
   </g>
   <g id="patch_4">
    <path d="M 434.88 265.0705 
L 434.88 34.596 
" style="fill: none; stroke: #000000; stroke-width: 0.8; stroke-linejoin: miter; stroke-linecap: square"/>
   </g>
   <g id="patch_5">
    <path d="M 84.390019 265.0705 
L 434.88 265.0705 
" style="fill: none; stroke: #000000; stroke-width: 0.8; stroke-linejoin: miter; stroke-linecap: square"/>
   </g>
   <g id="patch_6">
    <path d="M 84.390019 34.596 
L 434.88 34.596 
" style="fill: none; stroke: #000000; stroke-width: 0.8; stroke-linejoin: miter; stroke-linecap: square"/>
   </g>
  </g>
 </g>
 <defs>
  <clipPath id="p5b451cd9e2">
   <rect x="84.390019" y="34.596" width="350.489981" height="230.4745"/>
  </clipPath>
 </defs>
</svg>
