<?xml version="1.0" encoding="utf-8" standalone="no"?>
<!DOCTYPE svg PUBLIC "-//W3C//DTD SVG 1.1//EN"
  "http://www.w3.org/Graphics/SVG/1.1/DTD/svg11.dtd">
<svg xmlns:xlink="http://www.w3.org/1999/xlink" width="460.8pt" height="345.6pt" viewBox="0 0 460.8 345.6" xmlns="http://www.w3.org/2000/svg" version="1.1">
 <metadata>
  <rdf:RDF xmlns:dc="http://purl.org/dc/elements/1.1/" xmlns:cc="http://creativecommons.org/ns#" xmlns:rdf="http://www.w3.org/1999/02/22-rdf-syntax-ns#">
   <cc:Work>
    <dc:type rdf:resource="http://purl.org/dc/dcmitype/StillImage"/>
    <dc:date>2026-01-28T11:02:03.273854</dc:date>
    <dc:format>image/svg+xml</dc:format>
    <dc:creator>
     <cc:Agent>
      <dc:title>Matplotlib v3.10.8, https://matplotlib.org/</dc:title>
     </cc:Agent>
    </dc:creator>
   </cc:Work>
  </rdf:RDF>
 </metadata>
 <defs>
  <style type="text/css">*{stroke-linejoin: round; stroke-linecap: butt}</style>
 </defs>
 <g id="figure_1">
  <g id="patch_1">
   <path d="M 0 345.6 
L 460.8 345.6 
L 460.8 0 
L 0 0 
z
" style="fill: #ffffff"/>
  </g>
  <g id="axes_1">
   <g id="patch_2">
    <path d="M 109.607519 265.0705 
L 434.88 265.0705 
L 434.88 34.596 
L 109.607519 34.596 
z
" style="fill: #ffffff"/>
   </g>
   <g id="matplotlib.axis_1">
    <g id="xtick_1">
     <g id="line2d_1">
      <path d="M 125.091932 265.0705 
L 125.091932 34.596 
" clip-path="url(#pcb9d0afd5c)" style="fill: none; stroke: #b0b0b0; stroke-width: 0.8; stroke-linecap: square"/>
     </g>
     <g id="line2d_2">
      <defs>
       <path id="m028b1c8419" d="M 0 0 
L 0 3.5 
" style="stroke: #000000; stroke-width: 0.8"/>
      </defs>
      <g>
       <use xlink:href="#m028b1c8419" x="125.091932" y="265.0705" style="stroke: #000000; stroke-width: 0.8"/>
      </g>
     </g>
     <g id="text_1">
      <!-- $\mathdefault{10^{0}}$ -->
      <g transform="translate(108.411932 288.46175) scale(0.24 -0.24)">
       <defs>
        <path id="TeXGyreTermes-Regular-31" d="M 2522 0 
L 2522 96 
C 2016 102 1914 166 1914 474 
L 1914 4314 
L 1862 4326 
L 710 3744 
L 710 3654 
C 787 3686 858 3712 883 3725 
C 998 3770 1107 3795 1171 3795 
C 1306 3795 1363 3699 1363 3494 
L 1363 595 
C 1363 384 1312 237 1210 179 
C 1114 122 1024 102 755 96 
L 755 0 
L 2522 0 
z
" transform="scale(0.015625)"/>
        <path id="TeXGyreTermes-Regular-30" d="M 3046 2112 
C 3046 3424 2464 4326 1626 4326 
C 1274 4326 1005 4218 768 3994 
C 397 3635 154 2899 154 2150 
C 154 1453 365 704 666 346 
C 902 64 1229 -90 1600 -90 
C 1926 -90 2202 19 2432 243 
C 2803 595 3046 1338 3046 2112 
z
M 2432 2099 
C 2432 762 2150 77 1600 77 
C 1050 77 768 762 768 2093 
C 768 3450 1056 4160 1606 4160 
C 2144 4160 2432 3437 2432 2099 
z
" transform="scale(0.015625)"/>
       </defs>
       <use xlink:href="#TeXGyreTermes-Regular-31" transform="translate(0 0.184375)"/>
       <use xlink:href="#TeXGyreTermes-Regular-30" transform="translate(49.999985 0.184375)"/>
       <use xlink:href="#TeXGyreTermes-Regular-30" transform="translate(100.787469 31.684375) scale(0.7)"/>
      </g>
     </g>
    </g>
    <g id="xtick_2">
     <g id="line2d_3">
      <path d="M 239.87204 265.0705 
L 239.87204 34.596 
" clip-path="url(#pcb9d0afd5c)" style="fill: none; stroke: #b0b0b0; stroke-width: 0.8; stroke-linecap: square"/>
     </g>
     <g id="line2d_4">
      <g>
       <use xlink:href="#m028b1c8419" x="239.87204" y="265.0705" style="stroke: #000000; stroke-width: 0.8"/>
      </g>
     </g>
     <g id="text_2">
      <!-- $\mathdefault{10^{1}}$ -->
      <g transform="translate(223.19204 288.46175) scale(0.24 -0.24)">
       <use xlink:href="#TeXGyreTermes-Regular-31" transform="translate(0 0.184375)"/>
       <use xlink:href="#TeXGyreTermes-Regular-30" transform="translate(49.999985 0.184375)"/>
       <use xlink:href="#TeXGyreTermes-Regular-31" transform="translate(100.787469 31.684375) scale(0.7)"/>
      </g>
     </g>
    </g>
    <g id="xtick_3">
     <g id="line2d_5">
      <path d="M 354.652148 265.0705 
L 354.652148 34.596 
" clip-path="url(#pcb9d0afd5c)" style="fill: none; stroke: #b0b0b0; stroke-width: 0.8; stroke-linecap: square"/>
     </g>
     <g id="line2d_6">
      <g>
       <use xlink:href="#m028b1c8419" x="354.652148" y="265.0705" style="stroke: #000000; stroke-width: 0.8"/>
      </g>
     </g>
     <g id="text_3">
      <!-- $\mathdefault{10^{2}}$ -->
      <g transform="translate(337.972148 288.46175) scale(0.24 -0.24)">
       <defs>
        <path id="TeXGyreTermes-Regular-32" d="M 3040 877 
L 2957 909 
C 2720 544 2637 486 2349 486 
L 819 486 
L 1894 1613 
C 2464 2208 2714 2694 2714 3194 
C 2714 3834 2195 4326 1530 4326 
C 1178 4326 845 4186 608 3930 
C 403 3712 307 3507 198 3053 
L 333 3021 
C 589 3648 819 3853 1261 3853 
C 1798 3853 2163 3488 2163 2950 
C 2163 2451 1869 1856 1331 1286 
L 192 77 
L 192 0 
L 2688 0 
L 3040 877 
z
" transform="scale(0.015625)"/>
       </defs>
       <use xlink:href="#TeXGyreTermes-Regular-31" transform="translate(0 0.184375)"/>
       <use xlink:href="#TeXGyreTermes-Regular-30" transform="translate(49.999985 0.184375)"/>
       <use xlink:href="#TeXGyreTermes-Regular-32" transform="translate(100.787469 31.684375) scale(0.7)"/>
      </g>
     </g>
    </g>
    <g id="xtick_4">
     <g id="line2d_7">
      <defs>
       <path id="mc3fe98265b" d="M 0 0 
L 0 2 
" style="stroke: #000000; stroke-width: 0.6"/>
      </defs>
      <g>
       <use xlink:href="#mc3fe98265b" x="113.968591" y="265.0705" style="stroke: #000000; stroke-width: 0.6"/>
      </g>
     </g>
    </g>
    <g id="xtick_5">
     <g id="line2d_8">
      <g>
       <use xlink:href="#mc3fe98265b" x="119.839883" y="265.0705" style="stroke: #000000; stroke-width: 0.6"/>
      </g>
     </g>
    </g>
    <g id="xtick_6">
     <g id="line2d_9">
      <g>
       <use xlink:href="#mc3fe98265b" x="159.644188" y="265.0705" style="stroke: #000000; stroke-width: 0.6"/>
      </g>
     </g>
    </g>
    <g id="xtick_7">
     <g id="line2d_10">
      <g>
       <use xlink:href="#mc3fe98265b" x="179.855961" y="265.0705" style="stroke: #000000; stroke-width: 0.6"/>
      </g>
     </g>
    </g>
    <g id="xtick_8">
     <g id="line2d_11">
      <g>
       <use xlink:href="#mc3fe98265b" x="194.196443" y="265.0705" style="stroke: #000000; stroke-width: 0.6"/>
      </g>
     </g>
    </g>
    <g id="xtick_9">
     <g id="line2d_12">
      <g>
       <use xlink:href="#mc3fe98265b" x="205.319785" y="265.0705" style="stroke: #000000; stroke-width: 0.6"/>
      </g>
     </g>
    </g>
    <g id="xtick_10">
     <g id="line2d_13">
      <g>
       <use xlink:href="#mc3fe98265b" x="214.408217" y="265.0705" style="stroke: #000000; stroke-width: 0.6"/>
      </g>
     </g>
    </g>
    <g id="xtick_11">
     <g id="line2d_14">
      <g>
       <use xlink:href="#mc3fe98265b" x="222.092376" y="265.0705" style="stroke: #000000; stroke-width: 0.6"/>
      </g>
     </g>
    </g>
    <g id="xtick_12">
     <g id="line2d_15">
      <g>
       <use xlink:href="#mc3fe98265b" x="228.748698" y="265.0705" style="stroke: #000000; stroke-width: 0.6"/>
      </g>
     </g>
    </g>
    <g id="xtick_13">
     <g id="line2d_16">
      <g>
       <use xlink:href="#mc3fe98265b" x="234.61999" y="265.0705" style="stroke: #000000; stroke-width: 0.6"/>
      </g>
     </g>
    </g>
    <g id="xtick_14">
     <g id="line2d_17">
      <g>
       <use xlink:href="#mc3fe98265b" x="274.424295" y="265.0705" style="stroke: #000000; stroke-width: 0.6"/>
      </g>
     </g>
    </g>
    <g id="xtick_15">
     <g id="line2d_18">
      <g>
       <use xlink:href="#mc3fe98265b" x="294.636069" y="265.0705" style="stroke: #000000; stroke-width: 0.6"/>
      </g>
     </g>
    </g>
    <g id="xtick_16">
     <g id="line2d_19">
      <g>
       <use xlink:href="#mc3fe98265b" x="308.976551" y="265.0705" style="stroke: #000000; stroke-width: 0.6"/>
      </g>
     </g>
    </g>
    <g id="xtick_17">
     <g id="line2d_20">
      <g>
       <use xlink:href="#mc3fe98265b" x="320.099892" y="265.0705" style="stroke: #000000; stroke-width: 0.6"/>
      </g>
     </g>
    </g>
    <g id="xtick_18">
     <g id="line2d_21">
      <g>
       <use xlink:href="#mc3fe98265b" x="329.188324" y="265.0705" style="stroke: #000000; stroke-width: 0.6"/>
      </g>
     </g>
    </g>
    <g id="xtick_19">
     <g id="line2d_22">
      <g>
       <use xlink:href="#mc3fe98265b" x="336.872484" y="265.0705" style="stroke: #000000; stroke-width: 0.6"/>
      </g>
     </g>
    </g>
    <g id="xtick_20">
     <g id="line2d_23">
      <g>
       <use xlink:href="#mc3fe98265b" x="343.528806" y="265.0705" style="stroke: #000000; stroke-width: 0.6"/>
      </g>
     </g>
    </g>
    <g id="xtick_21">
     <g id="line2d_24">
      <g>
       <use xlink:href="#mc3fe98265b" x="349.400098" y="265.0705" style="stroke: #000000; stroke-width: 0.6"/>
      </g>
     </g>
    </g>
    <g id="xtick_22">
     <g id="line2d_25">
      <g>
       <use xlink:href="#mc3fe98265b" x="389.204403" y="265.0705" style="stroke: #000000; stroke-width: 0.6"/>
      </g>
     </g>
    </g>
    <g id="xtick_23">
     <g id="line2d_26">
      <g>
       <use xlink:href="#mc3fe98265b" x="409.416177" y="265.0705" style="stroke: #000000; stroke-width: 0.6"/>
      </g>
     </g>
    </g>
    <g id="xtick_24">
     <g id="line2d_27">
      <g>
       <use xlink:href="#mc3fe98265b" x="423.756658" y="265.0705" style="stroke: #000000; stroke-width: 0.6"/>
      </g>
     </g>
    </g>
    <g id="xtick_25">
     <g id="line2d_28">
      <g>
       <use xlink:href="#mc3fe98265b" x="434.88" y="265.0705" style="stroke: #000000; stroke-width: 0.6"/>
      </g>
     </g>
    </g>
    <g id="text_4">
     <!-- Frequenz in Hz -->
     <g transform="translate(198.261884 314.06175) scale(0.24 -0.24)">
      <defs>
       <path id="TeXGyreTermes-Regular-46" d="M 3494 3322 
L 3475 4237 
L 77 4237 
L 77 4115 
C 550 4077 634 3987 634 3539 
L 634 768 
C 634 237 563 154 77 122 
L 77 0 
L 1869 0 
L 1869 122 
C 1376 147 1286 237 1286 698 
L 1286 2093 
L 2214 2093 
C 2733 2093 2842 1997 2918 1478 
L 3066 1478 
L 3066 2963 
L 2918 2963 
C 2842 2451 2726 2355 2214 2355 
L 1286 2355 
L 1286 3776 
C 1286 3955 1318 3994 1491 3994 
L 2362 3994 
C 3085 3994 3226 3898 3334 3322 
L 3494 3322 
z
" transform="scale(0.015625)"/>
       <path id="TeXGyreTermes-Regular-72" d="M 2144 2605 
C 2144 2816 2010 2944 1792 2944 
C 1523 2944 1338 2797 1024 2342 
L 1024 2931 
L 992 2944 
C 653 2803 422 2720 45 2598 
L 45 2496 
C 134 2515 192 2522 269 2522 
C 429 2522 486 2419 486 2138 
L 486 538 
C 486 218 442 173 32 96 
L 32 0 
L 1568 0 
L 1568 96 
C 1133 115 1024 211 1024 576 
L 1024 2016 
C 1024 2221 1299 2541 1472 2541 
C 1510 2541 1568 2509 1638 2445 
C 1741 2355 1811 2317 1894 2317 
C 2048 2317 2144 2426 2144 2605 
z
" transform="scale(0.015625)"/>
       <path id="TeXGyreTermes-Regular-65" d="M 2714 1005 
L 2611 1050 
C 2304 563 2029 378 1619 378 
C 1267 378 998 544 813 890 
C 685 1139 634 1363 621 1773 
L 2592 1773 
C 2541 2189 2477 2374 2317 2579 
C 2125 2810 1830 2944 1498 2944 
C 704 2944 160 2304 160 1370 
C 160 486 621 -64 1357 -64 
C 1971 -64 2445 314 2714 1005 
z
M 1939 1978 
L 634 1978 
C 704 2483 922 2714 1312 2714 
C 1702 2714 1856 2534 1939 1978 
z
" transform="scale(0.015625)"/>
       <path id="TeXGyreTermes-Regular-71" d="M 3123 -1389 
L 3123 -1299 
C 2771 -1222 2720 -1171 2720 -902 
L 2720 2925 
L 2650 2925 
L 2304 2720 
C 2010 2893 1818 2950 1568 2950 
C 768 2950 154 2234 154 1312 
C 154 506 576 -64 1178 -64 
C 1549 -64 1901 102 2182 410 
L 2182 -794 
C 2182 -1152 2067 -1248 1613 -1280 
L 1613 -1389 
L 3123 -1389 
z
M 2182 813 
C 2182 659 2157 576 2093 525 
C 1952 403 1741 326 1542 326 
C 1344 326 1171 390 1043 518 
C 838 704 704 1120 704 1542 
C 704 2298 1043 2771 1587 2771 
C 1984 2771 2182 2560 2182 2131 
L 2182 813 
z
" transform="scale(0.015625)"/>
       <path id="TeXGyreTermes-Regular-75" d="M 3066 230 
L 3066 320 
L 3034 320 
C 2739 320 2669 390 2669 685 
L 2669 2880 
L 1658 2880 
L 1658 2771 
C 2054 2752 2131 2688 2131 2368 
L 2131 864 
C 2131 691 2099 595 2022 538 
C 1843 384 1645 307 1446 307 
C 1197 307 992 525 992 794 
L 992 2880 
L 58 2880 
L 58 2790 
C 365 2771 454 2675 454 2381 
L 454 768 
C 454 262 762 -64 1229 -64 
C 1466 -64 1715 38 1888 211 
L 2163 486 
L 2163 -45 
L 2189 -58 
C 2509 70 2739 141 3066 230 
z
" transform="scale(0.015625)"/>
       <path id="TeXGyreTermes-Regular-6e" d="M 3104 0 
L 3104 96 
C 2790 128 2714 205 2714 518 
L 2714 1984 
C 2714 2586 2432 2944 1958 2944 
C 1664 2944 1466 2835 1030 2426 
L 1030 2931 
L 986 2944 
C 672 2829 454 2758 102 2656 
L 102 2547 
C 141 2566 205 2573 275 2573 
C 454 2573 512 2477 512 2163 
L 512 576 
C 512 211 442 122 115 96 
L 115 0 
L 1472 0 
L 1472 96 
C 1146 122 1050 198 1050 429 
L 1050 2227 
C 1357 2515 1498 2592 1709 2592 
C 2022 2592 2176 2394 2176 1971 
L 2176 634 
C 2176 230 2093 122 1773 96 
L 1773 0 
L 3104 0 
z
" transform="scale(0.015625)"/>
       <path id="TeXGyreTermes-Regular-7a" d="M 2675 864 
L 2560 890 
C 2496 570 2458 467 2374 358 
C 2285 250 2067 192 1741 192 
L 858 192 
L 2579 2784 
L 2579 2880 
L 358 2880 
L 339 2125 
L 454 2125 
C 512 2592 608 2688 992 2688 
L 1875 2688 
L 173 96 
L 173 0 
L 2586 0 
L 2675 864 
z
" transform="scale(0.015625)"/>
       <path id="TeXGyreTermes-Regular-20" transform="scale(0.015625)"/>
       <path id="TeXGyreTermes-Regular-69" d="M 1619 0 
L 1619 96 
C 1197 128 1146 192 1146 653 
L 1146 2925 
L 1120 2944 
L 128 2592 
L 128 2496 
L 179 2502 
C 256 2515 339 2522 397 2522 
C 550 2522 608 2419 608 2138 
L 608 653 
C 608 192 544 122 102 96 
L 102 0 
L 1619 0 
z
M 1203 3776 
C 1203 3955 1062 4102 877 4102 
C 698 4102 550 3955 550 3776 
C 550 3590 698 3450 877 3450 
C 1062 3450 1203 3590 1203 3776 
z
" transform="scale(0.015625)"/>
       <path id="TeXGyreTermes-Regular-48" d="M 4493 0 
L 4493 122 
C 4013 160 3930 243 3930 698 
L 3930 3539 
C 3930 4000 4000 4070 4493 4115 
L 4493 4237 
L 2714 4237 
L 2714 4115 
C 3206 4070 3277 4000 3277 3539 
L 3277 2298 
L 1338 2298 
L 1338 3539 
C 1338 4000 1408 4070 1901 4115 
L 1901 4237 
L 122 4237 
L 122 4115 
C 614 4070 685 4000 685 3539 
L 685 768 
C 685 230 621 154 122 122 
L 122 0 
L 1901 0 
L 1901 122 
C 1421 160 1338 243 1338 698 
L 1338 2016 
L 3277 2016 
L 3277 768 
C 3277 230 3213 154 2714 122 
L 2714 0 
L 4493 0 
z
" transform="scale(0.015625)"/>
      </defs>
      <use xlink:href="#TeXGyreTermes-Regular-46"/>
      <use xlink:href="#TeXGyreTermes-Regular-72" transform="translate(55.599991 0)"/>
      <use xlink:href="#TeXGyreTermes-Regular-65" transform="translate(88.899979 0)"/>
      <use xlink:href="#TeXGyreTermes-Regular-71" transform="translate(133.299973 0)"/>
      <use xlink:href="#TeXGyreTermes-Regular-75" transform="translate(183.299957 0)"/>
      <use xlink:href="#TeXGyreTermes-Regular-65" transform="translate(233.299942 0)"/>
      <use xlink:href="#TeXGyreTermes-Regular-6e" transform="translate(277.699936 0)"/>
      <use xlink:href="#TeXGyreTermes-Regular-7a" transform="translate(327.699921 0)"/>
      <use xlink:href="#TeXGyreTermes-Regular-20" transform="translate(372.099915 0)"/>
      <use xlink:href="#TeXGyreTermes-Regular-69" transform="translate(397.099899 0)"/>
      <use xlink:href="#TeXGyreTermes-Regular-6e" transform="translate(424.899887 0)"/>
      <use xlink:href="#TeXGyreTermes-Regular-20" transform="translate(474.899872 0)"/>
      <use xlink:href="#TeXGyreTermes-Regular-48" transform="translate(499.899857 0)"/>
      <use xlink:href="#TeXGyreTermes-Regular-7a" transform="translate(572.099838 0)"/>
     </g>
    </g>
   </g>
   <g id="matplotlib.axis_2">
    <g id="ytick_1">
     <g id="line2d_29">
      <path d="M 109.607519 265.0705 
L 434.88 265.0705 
" clip-path="url(#pcb9d0afd5c)" style="fill: none; stroke: #b0b0b0; stroke-width: 0.8; stroke-linecap: square"/>
     </g>
     <g id="line2d_30">
      <defs>
       <path id="m8e335c7431" d="M 0 0 
L -3.5 0 
" style="stroke: #000000; stroke-width: 0.8"/>
      </defs>
      <g>
       <use xlink:href="#m8e335c7431" x="109.607519" y="265.0705" style="stroke: #000000; stroke-width: 0.8"/>
      </g>
     </g>
     <g id="text_5">
      <!-- $\mathdefault{10^{-12}}$ -->
      <g transform="translate(51.487519 273.266125) scale(0.24 -0.24)">
       <defs>
        <path id="TeXGyreTermes-Regular-2212" d="M 3354 1389 
L 3354 1811 
L 256 1811 
L 256 1389 
L 3354 1389 
z
" transform="scale(0.015625)"/>
       </defs>
       <use xlink:href="#TeXGyreTermes-Regular-31" transform="translate(0 0.184375)"/>
       <use xlink:href="#TeXGyreTermes-Regular-30" transform="translate(49.999985 0.184375)"/>
       <use xlink:href="#TeXGyreTermes-Regular-2212" transform="translate(100.787469 31.684375) scale(0.7)"/>
       <use xlink:href="#TeXGyreTermes-Regular-31" transform="translate(140.267465 31.684375) scale(0.7)"/>
       <use xlink:href="#TeXGyreTermes-Regular-32" transform="translate(175.267455 31.684375) scale(0.7)"/>
      </g>
     </g>
    </g>
    <g id="ytick_2">
     <g id="line2d_31">
      <path d="M 109.607519 207.451875 
L 434.88 207.451875 
" clip-path="url(#pcb9d0afd5c)" style="fill: none; stroke: #b0b0b0; stroke-width: 0.8; stroke-linecap: square"/>
     </g>
     <g id="line2d_32">
      <g>
       <use xlink:href="#m8e335c7431" x="109.607519" y="207.451875" style="stroke: #000000; stroke-width: 0.8"/>
      </g>
     </g>
     <g id="text_6">
      <!-- $\mathdefault{10^{-9}}$ -->
      <g transform="translate(59.887519 215.6475) scale(0.24 -0.24)">
       <defs>
        <path id="TeXGyreTermes-Regular-39" d="M 2938 2522 
C 2938 3578 2349 4326 1523 4326 
C 762 4326 192 3680 192 2816 
C 192 2035 653 1517 1344 1517 
C 1696 1517 1965 1619 2304 1882 
C 2042 838 1331 154 358 -13 
L 378 -141 
C 1094 -58 1446 64 1882 378 
C 2547 864 2938 1658 2938 2522 
z
M 2317 2272 
C 2317 2144 2291 2086 2221 2029 
C 2042 1875 1805 1792 1574 1792 
C 1088 1792 781 2272 781 3034 
C 781 3398 883 3782 1018 3949 
C 1126 4077 1286 4147 1472 4147 
C 2029 4147 2317 3597 2317 2522 
L 2317 2272 
z
" transform="scale(0.015625)"/>
       </defs>
       <use xlink:href="#TeXGyreTermes-Regular-31" transform="translate(0 0.184375)"/>
       <use xlink:href="#TeXGyreTermes-Regular-30" transform="translate(49.999985 0.184375)"/>
       <use xlink:href="#TeXGyreTermes-Regular-2212" transform="translate(100.787469 31.684375) scale(0.7)"/>
       <use xlink:href="#TeXGyreTermes-Regular-39" transform="translate(140.267465 31.684375) scale(0.7)"/>
      </g>
     </g>
    </g>
    <g id="ytick_3">
     <g id="line2d_33">
      <path d="M 109.607519 149.83325 
L 434.88 149.83325 
" clip-path="url(#pcb9d0afd5c)" style="fill: none; stroke: #b0b0b0; stroke-width: 0.8; stroke-linecap: square"/>
     </g>
     <g id="line2d_34">
      <g>
       <use xlink:href="#m8e335c7431" x="109.607519" y="149.83325" style="stroke: #000000; stroke-width: 0.8"/>
      </g>
     </g>
     <g id="text_7">
      <!-- $\mathdefault{10^{-6}}$ -->
      <g transform="translate(59.887519 158.028875) scale(0.24 -0.24)">
       <defs>
        <path id="TeXGyreTermes-Regular-36" d="M 2995 1402 
C 2995 2221 2528 2739 1792 2739 
C 1510 2739 1376 2694 973 2451 
C 1146 3418 1862 4109 2867 4275 
L 2854 4378 
C 2125 4314 1754 4192 1286 3866 
C 595 3373 218 2643 218 1786 
C 218 1229 390 666 666 346 
C 909 64 1254 -90 1651 -90 
C 2445 -90 2995 518 2995 1402 
z
M 2419 1184 
C 2419 480 2170 90 1722 90 
C 1158 90 813 691 813 1683 
C 813 2010 864 2189 992 2285 
C 1126 2387 1325 2445 1549 2445 
C 2099 2445 2419 1984 2419 1184 
z
" transform="scale(0.015625)"/>
       </defs>
       <use xlink:href="#TeXGyreTermes-Regular-31" transform="translate(0 0.615625)"/>
       <use xlink:href="#TeXGyreTermes-Regular-30" transform="translate(49.999985 0.615625)"/>
       <use xlink:href="#TeXGyreTermes-Regular-2212" transform="translate(100.787469 32.115625) scale(0.7)"/>
       <use xlink:href="#TeXGyreTermes-Regular-36" transform="translate(140.267465 32.115625) scale(0.7)"/>
      </g>
     </g>
    </g>
    <g id="ytick_4">
     <g id="line2d_35">
      <path d="M 109.607519 92.214625 
L 434.88 92.214625 
" clip-path="url(#pcb9d0afd5c)" style="fill: none; stroke: #b0b0b0; stroke-width: 0.8; stroke-linecap: square"/>
     </g>
     <g id="line2d_36">
      <g>
       <use xlink:href="#m8e335c7431" x="109.607519" y="92.214625" style="stroke: #000000; stroke-width: 0.8"/>
      </g>
     </g>
     <g id="text_8">
      <!-- $\mathdefault{10^{-3}}$ -->
      <g transform="translate(59.887519 100.41025) scale(0.24 -0.24)">
       <defs>
        <path id="TeXGyreTermes-Regular-33" d="M 2765 1402 
C 2765 1728 2662 2029 2477 2227 
C 2349 2368 2227 2445 1946 2566 
C 2387 2867 2547 3104 2547 3450 
C 2547 3968 2138 4326 1549 4326 
C 1229 4326 947 4218 717 4013 
C 525 3840 429 3674 288 3290 
L 384 3264 
C 646 3731 934 3942 1338 3942 
C 1754 3942 2042 3661 2042 3258 
C 2042 3027 1946 2797 1786 2637 
C 1594 2445 1414 2349 979 2195 
L 979 2112 
C 1357 2112 1504 2099 1658 2042 
C 2054 1901 2304 1536 2304 1094 
C 2304 557 1939 141 1466 141 
C 1293 141 1165 186 928 339 
C 736 454 627 499 518 499 
C 371 499 275 410 275 275 
C 275 51 550 -90 998 -90 
C 1491 -90 1997 77 2298 339 
C 2598 602 2765 973 2765 1402 
z
" transform="scale(0.015625)"/>
       </defs>
       <use xlink:href="#TeXGyreTermes-Regular-31" transform="translate(0 0.184375)"/>
       <use xlink:href="#TeXGyreTermes-Regular-30" transform="translate(49.999985 0.184375)"/>
       <use xlink:href="#TeXGyreTermes-Regular-2212" transform="translate(100.787469 31.684375) scale(0.7)"/>
       <use xlink:href="#TeXGyreTermes-Regular-33" transform="translate(140.267465 31.684375) scale(0.7)"/>
      </g>
     </g>
    </g>
    <g id="ytick_5">
     <g id="line2d_37">
      <path d="M 109.607519 34.596 
L 434.88 34.596 
" clip-path="url(#pcb9d0afd5c)" style="fill: none; stroke: #b0b0b0; stroke-width: 0.8; stroke-linecap: square"/>
     </g>
     <g id="line2d_38">
      <g>
       <use xlink:href="#m8e335c7431" x="109.607519" y="34.596" style="stroke: #000000; stroke-width: 0.8"/>
      </g>
     </g>
     <g id="text_9">
      <!-- $\mathdefault{10^{0}}$ -->
      <g transform="translate(69.247519 42.791625) scale(0.24 -0.24)">
       <use xlink:href="#TeXGyreTermes-Regular-31" transform="translate(0 0.184375)"/>
       <use xlink:href="#TeXGyreTermes-Regular-30" transform="translate(49.999985 0.184375)"/>
       <use xlink:href="#TeXGyreTermes-Regular-30" transform="translate(100.787469 31.684375) scale(0.7)"/>
      </g>
     </g>
    </g>
    <g id="text_10">
     <!-- Leistung -->
     <g transform="translate(42.256269 191.83325) rotate(-90) scale(0.24 -0.24)">
      <defs>
       <path id="TeXGyreTermes-Regular-4c" d="M 3827 1114 
L 3667 1114 
C 3565 890 3482 742 3392 640 
C 3168 371 2816 250 2266 250 
L 1837 250 
C 1370 250 1286 288 1286 512 
L 1286 3539 
C 1286 3994 1376 4083 1882 4115 
L 1882 4237 
L 77 4237 
L 77 4115 
C 550 4077 634 3994 634 3539 
L 634 698 
C 634 243 544 154 77 122 
L 77 0 
L 3520 0 
L 3827 1114 
z
" transform="scale(0.015625)"/>
       <path id="TeXGyreTermes-Regular-73" d="M 2227 755 
C 2227 1075 2080 1286 1690 1517 
L 998 1926 
C 819 2029 723 2189 723 2362 
C 723 2624 922 2797 1216 2797 
C 1581 2797 1773 2586 1920 2010 
L 2016 2010 
L 1990 2880 
L 1920 2880 
L 1907 2867 
C 1850 2822 1843 2816 1818 2816 
C 1779 2816 1715 2829 1645 2861 
C 1510 2912 1363 2938 1210 2938 
C 685 2938 326 2618 326 2150 
C 326 1792 531 1542 1075 1229 
L 1446 1018 
C 1670 890 1779 736 1779 538 
C 1779 256 1574 77 1248 77 
C 806 77 582 320 435 973 
L 333 973 
L 333 -26 
L 416 -26 
C 461 38 486 51 563 51 
C 634 51 704 38 858 0 
C 1037 -38 1197 -64 1331 -64 
C 1818 -64 2227 307 2227 755 
z
" transform="scale(0.015625)"/>
       <path id="TeXGyreTermes-Regular-74" d="M 1786 422 
L 1702 493 
C 1562 326 1459 269 1318 269 
C 1082 269 986 435 986 845 
L 986 2675 
L 1632 2675 
L 1632 2880 
L 986 2880 
L 986 3622 
C 986 3686 973 3706 941 3706 
C 902 3642 858 3584 813 3526 
C 576 3174 358 2938 192 2842 
C 122 2797 83 2758 83 2720 
C 83 2701 90 2688 109 2675 
L 448 2675 
L 448 749 
C 448 211 640 -64 1011 -64 
C 1331 -64 1574 90 1786 422 
z
" transform="scale(0.015625)"/>
       <path id="TeXGyreTermes-Regular-67" d="M 3008 2483 
L 3008 2733 
L 2515 2733 
C 2387 2733 2291 2752 2163 2797 
L 2022 2848 
C 1850 2912 1677 2944 1510 2944 
C 915 2944 442 2483 442 1901 
C 442 1498 614 1254 1037 1043 
L 762 787 
C 550 602 467 474 467 346 
C 467 211 544 134 806 6 
C 352 -326 179 -538 179 -774 
C 179 -1114 678 -1395 1286 -1395 
C 1766 -1395 2266 -1229 2598 -960 
C 2842 -762 2950 -557 2950 -314 
C 2950 83 2650 352 2176 371 
L 1350 410 
C 1011 422 851 480 851 582 
C 851 710 1062 934 1235 986 
C 1293 979 1338 973 1357 973 
C 1478 960 1562 954 1600 954 
C 1837 954 2093 1050 2291 1222 
C 2502 1402 2598 1626 2598 1946 
C 2598 2131 2566 2278 2477 2483 
L 3008 2483 
z
M 2771 -410 
C 2771 -781 2285 -1030 1562 -1030 
C 998 -1030 627 -845 627 -563 
C 627 -416 672 -333 941 -13 
C 1152 -58 1664 -96 1978 -96 
C 2560 -96 2771 -179 2771 -410 
z
M 2106 1696 
C 2106 1338 1920 1114 1626 1114 
C 1242 1114 973 1530 973 2144 
L 973 2163 
C 973 2541 1152 2765 1446 2765 
C 1645 2765 1811 2656 1914 2464 
C 2029 2240 2106 1946 2106 1696 
z
" transform="scale(0.015625)"/>
      </defs>
      <use xlink:href="#TeXGyreTermes-Regular-4c"/>
      <use xlink:href="#TeXGyreTermes-Regular-65" transform="translate(61.099991 0)"/>
      <use xlink:href="#TeXGyreTermes-Regular-69" transform="translate(105.499985 0)"/>
      <use xlink:href="#TeXGyreTermes-Regular-73" transform="translate(133.299973 0)"/>
      <use xlink:href="#TeXGyreTermes-Regular-74" transform="translate(172.199966 0)"/>
      <use xlink:href="#TeXGyreTermes-Regular-75" transform="translate(199.999954 0)"/>
      <use xlink:href="#TeXGyreTermes-Regular-6e" transform="translate(249.999939 0)"/>
      <use xlink:href="#TeXGyreTermes-Regular-67" transform="translate(299.999924 0)"/>
     </g>
    </g>
   </g>
   <g id="line2d_39">
    <path d="M -1 42.001666 
L 125.091932 41.984249 
L 159.644188 84.406277 
L 179.855961 66.073243 
L 194.196443 89.781477 
L 205.319785 76.874253 
L 214.408217 91.667188 
L 222.092376 84.151597 
L 228.748698 99.11619 
L 234.61999 86.498794 
L 239.87204 87.189447 
L 244.623097 94.8918 
L 248.960472 98.65745 
L 252.95047 91.225068 
L 260.083814 112.48774 
L 263.300954 120.223341 
L 266.322992 87.392054 
L 269.172246 106.002379 
L 274.424295 90.879582 
L 276.856405 114.670939 
L 279.175352 102.152576 
L 281.3912 95.000258 
L 283.512727 111.738006 
L 285.547637 93.769724 
L 287.502726 97.633786 
L 289.384019 107.635099 
L 291.196887 108.503245 
L 292.946132 98.988903 
L 294.636069 126.619974 
L 296.270588 95.7605 
L 297.853209 119.441425 
L 299.387126 103.043351 
L 300.875247 103.038485 
L 302.320229 104.249466 
L 303.724501 134.676594 
L 305.090295 111.124231 
L 306.419664 103.641917 
L 307.714499 111.903664 
L 308.976551 110.014103 
L 310.207437 115.623176 
L 311.408661 128.129738 
L 312.581618 120.60413 
L 313.727608 103.973718 
L 314.847843 119.645011 
L 315.943455 121.070743 
L 317.015505 130.767548 
L 318.064983 116.016144 
L 319.09282 113.89092 
L 320.099892 101.447849 
L 321.087021 129.610494 
L 322.054981 108.849057 
L 323.004502 118.419266 
L 323.936275 107.289679 
L 324.850949 109.718589 
L 325.749142 134.227504 
L 326.631437 120.072869 
L 327.498387 112.171444 
L 328.350517 122.244104 
L 329.188324 145.145408 
L 330.012283 117.428344 
L 330.822843 113.806609 
L 331.620434 119.490175 
L 332.405464 120.66845 
L 333.178323 117.002627 
L 333.939381 132.520249 
L 334.688995 120.597057 
L 335.427503 127.659028 
L 336.155229 121.982452 
L 336.872484 120.358298 
L 338.276756 119.928205 
L 338.964331 121.699525 
L 339.64255 122.604537 
L 340.311666 133.155252 
L 340.971919 134.996997 
L 341.623541 121.376642 
L 342.266755 150.423364 
L 342.901774 121.167968 
L 343.528806 122.706886 
L 344.148048 119.737584 
L 344.759692 130.508386 
L 345.363922 135.922974 
L 345.960916 127.394633 
L 346.550844 123.785696 
L 347.133873 111.105341 
L 347.710161 169.670649 
L 348.279863 118.732998 
L 348.843127 134.764847 
L 349.400098 122.656753 
L 349.950914 119.839403 
L 350.495711 133.53019 
L 351.034617 122.273734 
L 351.56776 127.069251 
L 352.617238 120.562575 
L 353.133806 138.394747 
L 354.151155 124.839532 
L 354.652148 135.21926 
L 355.148155 135.686841 
L 355.639276 142.362088 
L 356.125606 130.344277 
L 356.607236 127.909778 
L 357.084258 128.116914 
L 357.556758 142.08274 
L 358.024821 123.119733 
L 358.48853 125.772735 
L 358.947965 127.338518 
L 359.403205 154.71407 
L 359.854324 125.797409 
L 360.301398 124.160894 
L 360.744497 124.982536 
L 361.183693 127.387167 
L 361.619052 130.401472 
L 362.050643 125.147256 
L 362.902772 141.586669 
L 363.323436 123.819502 
L 363.74058 129.385128 
L 364.154261 146.376143 
L 364.564538 143.590383 
L 364.971466 136.136624 
L 365.375099 120.080239 
L 365.775489 124.424115 
L 366.56675 147.728685 
L 366.95772 125.107222 
L 367.345647 121.49416 
L 367.730578 134.128904 
L 368.11256 126.672649 
L 368.491636 160.952561 
L 368.867852 124.632175 
L 369.24125 125.843908 
L 369.611872 129.441948 
L 369.979758 154.47871 
L 370.344949 135.290284 
L 370.707484 143.130445 
L 371.067402 134.744688 
L 371.424739 122.433073 
L 371.779533 134.183962 
L 372.481635 140.755101 
L 372.829012 129.232202 
L 373.173984 127.094221 
L 373.516586 134.858175 
L 373.856849 132.587649 
L 374.194806 133.968409 
L 374.530486 141.495707 
L 374.863921 158.439868 
L 375.195141 161.476347 
L 375.524174 160.526937 
L 376.175796 119.616839 
L 376.49844 140.771055 
L 376.81901 142.523041 
L 377.137531 139.159847 
L 377.45403 132.352179 
L 377.768531 128.95395 
L 378.081061 143.340073 
L 378.391644 128.220098 
L 378.700304 132.523208 
L 379.007064 148.94489 
L 379.311948 149.261155 
L 379.916178 128.445657 
L 380.215568 134.360291 
L 380.513171 146.803848 
L 380.809008 126.140824 
L 381.1031 149.347464 
L 381.395466 143.473623 
L 381.686128 144.593285 
L 381.975105 131.662592 
L 382.262416 189.087308 
L 382.548081 139.183485 
L 382.832118 158.261854 
L 383.114546 141.345456 
L 383.395382 149.196549 
L 383.952353 129.253182 
L 384.228522 138.364277 
L 384.50317 138.783702 
L 384.776312 144.329815 
L 385.047966 134.077849 
L 385.318147 129.187432 
L 385.586872 141.638876 
L 385.854157 144.054879 
L 386.384463 124.737363 
L 386.647516 147.224569 
L 387.169493 135.997127 
L 387.428446 140.029719 
L 387.686061 134.415476 
L 387.942352 135.628526 
L 388.197331 134.588103 
L 388.451013 146.605435 
L 388.70341 137.174953 
L 388.954536 145.920617 
L 389.204403 136.108744 
L 389.453024 136.9383 
L 389.700411 128.435655 
L 389.946576 134.990139 
L 390.191532 128.864194 
L 390.677861 147.736167 
L 390.919258 134.116074 
L 391.159492 139.943758 
L 391.398573 140.471797 
L 391.636513 136.338455 
L 391.873323 142.832969 
L 392.109013 134.251973 
L 392.343594 139.171589 
L 392.577076 132.130954 
L 392.80947 133.733413 
L 393.040785 131.623329 
L 393.271032 140.43943 
L 393.50022 135.199328 
L 393.72836 142.152227 
L 393.95546 133.652368 
L 394.18153 141.639548 
L 394.406579 138.75988 
L 394.630617 146.936118 
L 394.853653 142.654893 
L 395.075695 147.302524 
L 395.516834 127.769182 
L 395.735948 149.061318 
L 395.954103 133.972567 
L 396.171308 132.193664 
L 396.38757 149.866173 
L 396.602898 139.624716 
L 397.030784 138.106876 
L 397.243357 139.827491 
L 397.455028 158.45474 
L 397.665803 139.016468 
L 397.875691 151.27467 
L 398.084699 142.193872 
L 398.292835 159.612107 
L 398.500105 138.366431 
L 398.706517 150.620502 
L 398.912077 142.568862 
L 399.116794 139.448896 
L 399.320673 144.718316 
L 399.523721 143.188039 
L 399.725946 140.750868 
L 399.927354 148.440645 
L 400.127951 162.913771 
L 400.327745 142.649484 
L 400.52674 147.360262 
L 400.724945 142.986872 
L 400.922364 151.656895 
L 401.119005 138.142001 
L 401.314873 155.577765 
L 401.704316 137.928529 
L 402.090739 163.469276 
L 402.282833 133.913879 
L 402.47419 148.56878 
L 402.664815 148.306581 
L 402.854714 133.297869 
L 403.043892 130.366513 
L 403.232355 156.17542 
L 403.607156 134.994466 
L 403.979161 143.393083 
L 404.164127 139.482681 
L 404.348409 187.963534 
L 404.532013 137.403534 
L 404.714943 152.569851 
L 404.897204 145.175527 
L 405.078802 155.019362 
L 405.25974 139.799637 
L 405.440023 141.68584 
L 405.619657 133.333597 
L 405.798646 145.780665 
L 405.976995 143.154633 
L 406.154707 138.83348 
L 406.331789 141.236309 
L 406.508243 140.514506 
L 406.85929 152.789835 
L 407.03389 149.536672 
L 407.207881 151.260877 
L 407.381267 139.424997 
L 407.554052 148.254487 
L 407.72624 142.842201 
L 407.897835 133.70743 
L 408.239263 145.654339 
L 408.409105 170.041597 
L 408.578369 159.640062 
L 408.747061 160.925013 
L 409.416177 142.444996 
L 409.582062 152.125682 
L 409.747396 136.826441 
L 409.912184 150.876777 
L 410.240135 154.937736 
L 410.565943 151.631067 
L 410.728051 139.456147 
L 410.889635 140.671309 
L 411.050696 154.201194 
L 411.211238 145.091728 
L 411.371265 142.59987 
L 411.53078 161.240239 
L 411.689786 142.461532 
L 411.848287 155.062134 
L 412.006285 140.572432 
L 412.320787 154.262622 
L 412.477297 136.661339 
L 412.633317 157.118038 
L 412.78885 154.926534 
L 412.943899 144.846161 
L 413.098468 148.024856 
L 413.406175 141.711504 
L 413.559319 173.846944 
L 413.711994 160.270439 
L 413.864203 160.287281 
L 414.167234 142.805221 
L 414.318061 143.536609 
L 414.468433 169.413945 
L 414.618353 167.281612 
L 414.916847 136.276553 
L 415.065427 137.374371 
L 415.213564 157.862899 
L 415.361263 157.933492 
L 415.508526 171.297893 
L 415.655355 137.591501 
L 415.947722 152.025644 
L 416.093264 159.816393 
L 416.238383 137.015315 
L 416.52736 149.239151 
L 416.671223 140.711863 
L 416.814672 150.662754 
L 416.957709 145.499891 
L 417.100336 164.13438 
L 417.242557 152.822678 
L 417.384373 154.822841 
L 417.525787 183.097881 
L 417.807417 140.354923 
L 417.947638 153.222008 
L 418.087465 153.187211 
L 418.226901 147.896114 
L 418.365948 151.287358 
L 418.642884 139.286176 
L 418.780778 142.610988 
L 419.055425 157.267119 
L 419.192183 150.319343 
L 419.464579 182.88509 
L 419.735495 139.516223 
L 419.870403 140.142875 
L 420.139128 149.466456 
L 420.272949 144.244108 
L 420.406412 143.773398 
L 420.539518 144.908809 
L 420.67227 156.42874 
L 420.80467 142.438884 
L 421.068418 168.509436 
L 421.199771 149.838887 
L 421.330779 159.702463 
L 421.461443 158.287619 
L 421.721748 192.381021 
L 421.980702 142.386633 
L 422.366626 164.261089 
L 422.494607 137.682368 
L 422.62226 170.698534 
L 422.749586 150.379256 
L 422.876589 166.760373 
L 423.003268 142.633538 
L 423.129627 162.882161 
L 423.255665 144.934917 
L 423.381386 145.763736 
L 423.506791 159.227615 
L 424.005279 143.083891 
L 424.129126 187.046052 
L 424.252666 152.207931 
L 424.375901 152.04418 
L 424.62146 186.063862 
L 424.865815 147.732384 
L 425.108978 142.479783 
L 425.230116 176.175407 
L 425.350961 161.498714 
L 425.471513 162.47136 
L 425.711747 143.499827 
L 425.831431 151.460337 
L 425.950828 143.645864 
L 426.06994 154.574652 
L 426.188768 149.854815 
L 426.307314 180.283432 
L 426.543562 145.636635 
L 426.778697 158.929337 
L 427.012727 143.482358 
L 427.129331 159.101094 
L 427.245664 144.831259 
L 427.361725 158.875423 
L 427.593041 143.049058 
L 427.708297 180.64937 
L 427.938013 149.070881 
L 428.052476 153.682833 
L 428.166676 138.076357 
L 428.507715 155.357416 
L 428.733785 141.667014 
L 428.846437 147.989754 
L 428.958835 140.909561 
L 429.07098 163.506303 
L 429.517053 140.591768 
L 429.62795 176.424235 
L 429.738602 145.811472 
L 429.849008 175.690354 
L 429.95917 149.563511 
L 430.069089 159.253788 
L 430.178767 151.367844 
L 430.288203 174.95281 
L 430.506358 144.903811 
L 430.723563 171.670141 
L 430.831811 147.278059 
L 430.939825 168.075681 
L 431.155153 153.197993 
L 431.262469 159.163909 
L 431.369555 152.312401 
L 431.476411 153.919444 
L 431.583039 157.202252 
L 431.689439 141.126316 
L 431.795612 154.39144 
L 432.007283 144.356901 
L 432.112782 150.743655 
L 432.218058 148.300412 
L 432.427947 166.619229 
L 432.53256 141.30918 
L 432.636955 169.370032 
L 432.741131 148.393269 
L 432.948833 159.005769 
L 433.05236 182.070763 
L 433.258772 147.34693 
L 433.464333 158.552087 
L 433.566796 160.375107 
L 433.669049 144.349308 
L 433.974556 162.010879 
L 434.075977 160.397716 
L 434.177192 144.113447 
L 434.278202 167.867914 
L 434.379007 150.526458 
L 434.479609 155.878582 
L 434.680207 148.141617 
L 434.780203 164.732327 
L 434.780203 164.732327 
" clip-path="url(#pcb9d0afd5c)" style="fill: none; stroke: #1f77b4; stroke-width: 1.5; stroke-linecap: square"/>
   </g>
   <g id="patch_3">
    <path d="M 109.607519 265.0705 
L 109.607519 34.596 
" style="fill: none; stroke: #000000; stroke-width: 0.8; stroke-linejoin: miter; stroke-linecap: square"/>
   </g>
   <g id="patch_4">
    <path d="M 434.88 265.0705 
L 434.88 34.596 
" style="fill: none; stroke: #000000; stroke-width: 0.8; stroke-linejoin: miter; stroke-linecap: square"/>
   </g>
   <g id="patch_5">
    <path d="M 109.607519 265.0705 
L 434.88 265.0705 
" style="fill: none; stroke: #000000; stroke-width: 0.8; stroke-linejoin: miter; stroke-linecap: square"/>
   </g>
   <g id="patch_6">
    <path d="M 109.607519 34.596 
L 434.88 34.596 
" style="fill: none; stroke: #000000; stroke-width: 0.8; stroke-linejoin: miter; stroke-linecap: square"/>
   </g>
  </g>
 </g>
 <defs>
  <clipPath id="pcb9d0afd5c">
   <rect x="109.607519" y="34.596" width="325.272481" height="230.4745"/>
  </clipPath>
 </defs>
</svg>
