<?xml version="1.0" encoding="utf-8" standalone="no"?>
<!DOCTYPE svg PUBLIC "-//W3C//DTD SVG 1.1//EN"
  "http://www.w3.org/Graphics/SVG/1.1/DTD/svg11.dtd">
<svg xmlns:xlink="http://www.w3.org/1999/xlink" width="460.8pt" height="345.6pt" viewBox="0 0 460.8 345.6" xmlns="http://www.w3.org/2000/svg" version="1.1">
 <metadata>
  <rdf:RDF xmlns:dc="http://purl.org/dc/elements/1.1/" xmlns:cc="http://creativecommons.org/ns#" xmlns:rdf="http://www.w3.org/1999/02/22-rdf-syntax-ns#">
   <cc:Work>
    <dc:type rdf:resource="http://purl.org/dc/dcmitype/StillImage"/>
    <dc:date>2025-12-15T15:56:31.904867</dc:date>
    <dc:format>image/svg+xml</dc:format>
    <dc:creator>
     <cc:Agent>
      <dc:title>Matplotlib v3.10.6, https://matplotlib.org/</dc:title>
     </cc:Agent>
    </dc:creator>
   </cc:Work>
  </rdf:RDF>
 </metadata>
 <defs>
  <style type="text/css">*{stroke-linejoin: round; stroke-linecap: butt}</style>
 </defs>
 <g id="figure_1">
  <g id="patch_1">
   <path d="M 0 345.6 
L 460.8 345.6 
L 460.8 0 
L 0 0 
z
" style="fill: #ffffff"/>
  </g>
  <g id="axes_1">
   <g id="patch_2">
    <path d="M 70.441494 283.66225 
L 426.264834 283.66225 
L 426.264834 25.92 
L 70.441494 25.92 
z
" style="fill: #ffffff"/>
   </g>
   <g id="FillBetweenPolyCollection_1">
    <path d="M 70.441494 230.222096 
L 70.441494 271.946693 
L 153.344774 234.438569 
L 189.049274 228.115762 
L 271.952555 222.354511 
L 307.657054 218.419974 
L 390.560335 203.845418 
L 426.264834 198.45143 
L 426.264834 197.764608 
L 426.264834 197.764608 
L 390.560335 201.616056 
L 307.657054 215.85805 
L 271.952555 220.915738 
L 189.049274 226.947416 
L 153.344774 233.263142 
L 70.441494 230.222096 
z
" clip-path="url(#p5d16696621)" style="fill: #1f77b4; fill-opacity: 0.2"/>
   </g>
   <g id="FillBetweenPolyCollection_2">
    <path d="M 70.441494 239.780256 
L 70.441494 252.851877 
L 153.344774 223.399305 
L 189.049274 212.638464 
L 271.952555 194.461701 
L 307.657054 185.737437 
L 390.560335 171.627457 
L 426.264834 157.008207 
L 426.264834 155.402028 
L 426.264834 155.402028 
L 390.560335 162.982928 
L 307.657054 182.923394 
L 271.952555 188.146945 
L 189.049274 207.735896 
L 153.344774 222.583796 
L 70.441494 239.780256 
z
" clip-path="url(#p5d16696621)" style="fill: #ff7f0e; fill-opacity: 0.2"/>
   </g>
   <g id="FillBetweenPolyCollection_3">
    <path d="M 70.441494 218.475999 
L 70.441494 226.686312 
L 153.344774 194.652678 
L 189.049274 182.546361 
L 271.952555 166.000744 
L 307.657054 155.075698 
L 390.560335 135.242309 
L 426.264834 127.544736 
L 426.264834 126.790155 
L 426.264834 126.790155 
L 390.560335 131.972939 
L 307.657054 152.780599 
L 271.952555 159.025582 
L 189.049274 180.299892 
L 153.344774 189.863512 
L 70.441494 218.475999 
z
" clip-path="url(#p5d16696621)" style="fill: #2ca02c; fill-opacity: 0.2"/>
   </g>
   <g id="FillBetweenPolyCollection_4">
    <path d="M 70.441494 212.66648 
L 70.441494 217.411214 
L 153.344774 184.67858 
L 189.049274 175.227183 
L 271.952555 157.32629 
L 307.657054 144.673681 
L 390.560335 125.001685 
L 426.264834 120.300589 
L 426.264834 119.343875 
L 426.264834 119.343875 
L 390.560335 122.327122 
L 307.657054 139.037438 
L 271.952555 149.793269 
L 189.049274 172.9885 
L 153.344774 182.977618 
L 70.441494 212.66648 
z
" clip-path="url(#p5d16696621)" style="fill: #d62728; fill-opacity: 0.2"/>
   </g>
   <g id="FillBetweenPolyCollection_5">
    <path d="M 70.441494 232.941292 
L 70.441494 235.157857 
L 153.344774 220.808692 
L 189.049274 213.404005 
L 271.952555 192.620684 
L 307.657054 185.782423 
L 390.560335 168.014667 
L 426.264834 155.936932 
L 426.264834 155.789395 
L 426.264834 155.789395 
L 390.560335 162.660253 
L 307.657054 182.838125 
L 271.952555 188.901597 
L 189.049274 208.815955 
L 153.344774 215.811468 
L 70.441494 232.941292 
z
" clip-path="url(#p5d16696621)" style="fill: #9467bd; fill-opacity: 0.2"/>
   </g>
   <g id="FillBetweenPolyCollection_6">
    <path d="M 70.441494 247.782638 
L 70.441494 255.212155 
L 153.344774 214.132872 
L 189.049274 196.236299 
L 271.952555 145.316541 
L 307.657054 135.95369 
L 390.560335 106.925637 
L 426.264834 97.115043 
L 426.264834 97.055297 
L 426.264834 97.055297 
L 390.560335 106.457801 
L 307.657054 134.695239 
L 271.952555 144.455225 
L 189.049274 186.037128 
L 153.344774 186.128512 
L 70.441494 247.782638 
z
" clip-path="url(#p5d16696621)" style="fill: #8c564b; fill-opacity: 0.2"/>
   </g>
   <g id="FillBetweenPolyCollection_7">
    <path d="M 70.441494 214.788719 
L 70.441494 245.697376 
L 153.344774 170.536676 
L 189.049274 155.558034 
L 271.952555 109.025222 
L 307.657054 90.889304 
L 390.560335 47.41596 
L 426.264834 37.66949 
L 426.264834 37.635557 
L 426.264834 37.635557 
L 390.560335 47.336463 
L 307.657054 88.685906 
L 271.952555 106.459559 
L 189.049274 149.959994 
L 153.344774 167.903881 
L 70.441494 214.788719 
z
" clip-path="url(#p5d16696621)" style="fill: #e377c2; fill-opacity: 0.2"/>
   </g>
   <g id="matplotlib.axis_1">
    <g id="xtick_1">
     <g id="line2d_1">
      <path d="M 70.441494 283.66225 
L 70.441494 25.92 
" clip-path="url(#p5d16696621)" style="fill: none; stroke: #b0b0b0; stroke-width: 0.8; stroke-linecap: square"/>
     </g>
     <g id="line2d_2">
      <defs>
       <path id="m6a670d7b4c" d="M 0 0 
L 0 3.5 
" style="stroke: #000000; stroke-width: 0.8"/>
      </defs>
      <g>
       <use xlink:href="#m6a670d7b4c" x="70.441494" y="283.66225" style="stroke: #000000; stroke-width: 0.8"/>
      </g>
     </g>
     <g id="text_1">
      <!-- $\mathdefault{10^{2}}$ -->
      <g transform="translate(62.101494 298.857875) scale(0.12 -0.12)">
       <defs>
        <path id="TeXGyreTermes-Regular-31" d="M 2522 0 
L 2522 96 
C 2016 102 1914 166 1914 474 
L 1914 4314 
L 1862 4326 
L 710 3744 
L 710 3654 
C 787 3686 858 3712 883 3725 
C 998 3770 1107 3795 1171 3795 
C 1306 3795 1363 3699 1363 3494 
L 1363 595 
C 1363 384 1312 237 1210 179 
C 1114 122 1024 102 755 96 
L 755 0 
L 2522 0 
z
" transform="scale(0.015625)"/>
        <path id="TeXGyreTermes-Regular-30" d="M 3046 2112 
C 3046 3424 2464 4326 1626 4326 
C 1274 4326 1005 4218 768 3994 
C 397 3635 154 2899 154 2150 
C 154 1453 365 704 666 346 
C 902 64 1229 -90 1600 -90 
C 1926 -90 2202 19 2432 243 
C 2803 595 3046 1338 3046 2112 
z
M 2432 2099 
C 2432 762 2150 77 1600 77 
C 1050 77 768 762 768 2093 
C 768 3450 1056 4160 1606 4160 
C 2144 4160 2432 3437 2432 2099 
z
" transform="scale(0.015625)"/>
        <path id="TeXGyreTermes-Regular-32" d="M 3040 877 
L 2957 909 
C 2720 544 2637 486 2349 486 
L 819 486 
L 1894 1613 
C 2464 2208 2714 2694 2714 3194 
C 2714 3834 2195 4326 1530 4326 
C 1178 4326 845 4186 608 3930 
C 403 3712 307 3507 198 3053 
L 333 3021 
C 589 3648 819 3853 1261 3853 
C 1798 3853 2163 3488 2163 2950 
C 2163 2451 1869 1856 1331 1286 
L 192 77 
L 192 0 
L 2688 0 
L 3040 877 
z
" transform="scale(0.015625)"/>
       </defs>
       <use xlink:href="#TeXGyreTermes-Regular-31" transform="translate(0 0.184375)"/>
       <use xlink:href="#TeXGyreTermes-Regular-30" transform="translate(49.999985 0.184375)"/>
       <use xlink:href="#TeXGyreTermes-Regular-32" transform="translate(100.787469 31.684375) scale(0.7)"/>
      </g>
     </g>
    </g>
    <g id="xtick_2">
     <g id="line2d_3">
      <path d="M 189.049274 283.66225 
L 189.049274 25.92 
" clip-path="url(#p5d16696621)" style="fill: none; stroke: #b0b0b0; stroke-width: 0.8; stroke-linecap: square"/>
     </g>
     <g id="line2d_4">
      <g>
       <use xlink:href="#m6a670d7b4c" x="189.049274" y="283.66225" style="stroke: #000000; stroke-width: 0.8"/>
      </g>
     </g>
     <g id="text_2">
      <!-- $\mathdefault{10^{3}}$ -->
      <g transform="translate(180.709274 298.857875) scale(0.12 -0.12)">
       <defs>
        <path id="TeXGyreTermes-Regular-33" d="M 2765 1402 
C 2765 1728 2662 2029 2477 2227 
C 2349 2368 2227 2445 1946 2566 
C 2387 2867 2547 3104 2547 3450 
C 2547 3968 2138 4326 1549 4326 
C 1229 4326 947 4218 717 4013 
C 525 3840 429 3674 288 3290 
L 384 3264 
C 646 3731 934 3942 1338 3942 
C 1754 3942 2042 3661 2042 3258 
C 2042 3027 1946 2797 1786 2637 
C 1594 2445 1414 2349 979 2195 
L 979 2112 
C 1357 2112 1504 2099 1658 2042 
C 2054 1901 2304 1536 2304 1094 
C 2304 557 1939 141 1466 141 
C 1293 141 1165 186 928 339 
C 736 454 627 499 518 499 
C 371 499 275 410 275 275 
C 275 51 550 -90 998 -90 
C 1491 -90 1997 77 2298 339 
C 2598 602 2765 973 2765 1402 
z
" transform="scale(0.015625)"/>
       </defs>
       <use xlink:href="#TeXGyreTermes-Regular-31" transform="translate(0 0.184375)"/>
       <use xlink:href="#TeXGyreTermes-Regular-30" transform="translate(49.999985 0.184375)"/>
       <use xlink:href="#TeXGyreTermes-Regular-33" transform="translate(100.787469 31.684375) scale(0.7)"/>
      </g>
     </g>
    </g>
    <g id="xtick_3">
     <g id="line2d_5">
      <path d="M 307.657054 283.66225 
L 307.657054 25.92 
" clip-path="url(#p5d16696621)" style="fill: none; stroke: #b0b0b0; stroke-width: 0.8; stroke-linecap: square"/>
     </g>
     <g id="line2d_6">
      <g>
       <use xlink:href="#m6a670d7b4c" x="307.657054" y="283.66225" style="stroke: #000000; stroke-width: 0.8"/>
      </g>
     </g>
     <g id="text_3">
      <!-- $\mathdefault{10^{4}}$ -->
      <g transform="translate(299.317054 298.857875) scale(0.12 -0.12)">
       <defs>
        <path id="TeXGyreTermes-Regular-34" d="M 3021 1069 
L 3021 1478 
L 2368 1478 
L 2368 4326 
L 2086 4326 
L 77 1478 
L 77 1069 
L 1875 1069 
L 1875 0 
L 2368 0 
L 2368 1069 
L 3021 1069 
z
M 1869 1478 
L 333 1478 
L 1869 3674 
L 1869 1478 
z
" transform="scale(0.015625)"/>
       </defs>
       <use xlink:href="#TeXGyreTermes-Regular-31" transform="translate(0 0.184375)"/>
       <use xlink:href="#TeXGyreTermes-Regular-30" transform="translate(49.999985 0.184375)"/>
       <use xlink:href="#TeXGyreTermes-Regular-34" transform="translate(100.787469 31.684375) scale(0.7)"/>
      </g>
     </g>
    </g>
    <g id="xtick_4">
     <g id="line2d_7">
      <path d="M 426.264834 283.66225 
L 426.264834 25.92 
" clip-path="url(#p5d16696621)" style="fill: none; stroke: #b0b0b0; stroke-width: 0.8; stroke-linecap: square"/>
     </g>
     <g id="line2d_8">
      <g>
       <use xlink:href="#m6a670d7b4c" x="426.264834" y="283.66225" style="stroke: #000000; stroke-width: 0.8"/>
      </g>
     </g>
     <g id="text_4">
      <!-- $\mathdefault{10^{5}}$ -->
      <g transform="translate(417.924834 298.857875) scale(0.12 -0.12)">
       <defs>
        <path id="TeXGyreTermes-Regular-35" d="M 2803 4358 
L 2746 4403 
C 2650 4269 2586 4237 2451 4237 
L 1114 4237 
L 416 2720 
C 410 2707 410 2688 410 2688 
C 410 2656 435 2637 486 2637 
C 691 2637 947 2592 1210 2509 
C 1946 2272 2285 1875 2285 1242 
C 2285 627 1894 147 1395 147 
C 1267 147 1158 192 966 333 
C 762 480 614 544 480 544 
C 294 544 205 467 205 307 
C 205 64 506 -90 986 -90 
C 1523 -90 1984 83 2304 410 
C 2598 698 2733 1062 2733 1549 
C 2733 2010 2611 2304 2291 2624 
C 2010 2906 1645 3053 890 3187 
L 1158 3731 
L 2413 3731 
C 2515 3731 2541 3744 2560 3789 
L 2803 4358 
z
" transform="scale(0.015625)"/>
       </defs>
       <use xlink:href="#TeXGyreTermes-Regular-31" transform="translate(0 0.342188)"/>
       <use xlink:href="#TeXGyreTermes-Regular-30" transform="translate(49.999985 0.342188)"/>
       <use xlink:href="#TeXGyreTermes-Regular-35" transform="translate(100.787469 31.842188) scale(0.7)"/>
      </g>
     </g>
    </g>
    <g id="xtick_5">
     <g id="line2d_9">
      <defs>
       <path id="mc539bbfbff" d="M 0 0 
L 0 2 
" style="stroke: #000000; stroke-width: 0.6"/>
      </defs>
      <g>
       <use xlink:href="#mc539bbfbff" x="106.145993" y="283.66225" style="stroke: #000000; stroke-width: 0.6"/>
      </g>
     </g>
    </g>
    <g id="xtick_6">
     <g id="line2d_10">
      <g>
       <use xlink:href="#mc539bbfbff" x="127.031787" y="283.66225" style="stroke: #000000; stroke-width: 0.6"/>
      </g>
     </g>
    </g>
    <g id="xtick_7">
     <g id="line2d_11">
      <g>
       <use xlink:href="#mc539bbfbff" x="141.850493" y="283.66225" style="stroke: #000000; stroke-width: 0.6"/>
      </g>
     </g>
    </g>
    <g id="xtick_8">
     <g id="line2d_12">
      <g>
       <use xlink:href="#mc539bbfbff" x="153.344774" y="283.66225" style="stroke: #000000; stroke-width: 0.6"/>
      </g>
     </g>
    </g>
    <g id="xtick_9">
     <g id="line2d_13">
      <g>
       <use xlink:href="#mc539bbfbff" x="162.736286" y="283.66225" style="stroke: #000000; stroke-width: 0.6"/>
      </g>
     </g>
    </g>
    <g id="xtick_10">
     <g id="line2d_14">
      <g>
       <use xlink:href="#mc539bbfbff" x="170.676696" y="283.66225" style="stroke: #000000; stroke-width: 0.6"/>
      </g>
     </g>
    </g>
    <g id="xtick_11">
     <g id="line2d_15">
      <g>
       <use xlink:href="#mc539bbfbff" x="177.554992" y="283.66225" style="stroke: #000000; stroke-width: 0.6"/>
      </g>
     </g>
    </g>
    <g id="xtick_12">
     <g id="line2d_16">
      <g>
       <use xlink:href="#mc539bbfbff" x="183.622079" y="283.66225" style="stroke: #000000; stroke-width: 0.6"/>
      </g>
     </g>
    </g>
    <g id="xtick_13">
     <g id="line2d_17">
      <g>
       <use xlink:href="#mc539bbfbff" x="224.753773" y="283.66225" style="stroke: #000000; stroke-width: 0.6"/>
      </g>
     </g>
    </g>
    <g id="xtick_14">
     <g id="line2d_18">
      <g>
       <use xlink:href="#mc539bbfbff" x="245.639567" y="283.66225" style="stroke: #000000; stroke-width: 0.6"/>
      </g>
     </g>
    </g>
    <g id="xtick_15">
     <g id="line2d_19">
      <g>
       <use xlink:href="#mc539bbfbff" x="260.458273" y="283.66225" style="stroke: #000000; stroke-width: 0.6"/>
      </g>
     </g>
    </g>
    <g id="xtick_16">
     <g id="line2d_20">
      <g>
       <use xlink:href="#mc539bbfbff" x="271.952555" y="283.66225" style="stroke: #000000; stroke-width: 0.6"/>
      </g>
     </g>
    </g>
    <g id="xtick_17">
     <g id="line2d_21">
      <g>
       <use xlink:href="#mc539bbfbff" x="281.344066" y="283.66225" style="stroke: #000000; stroke-width: 0.6"/>
      </g>
     </g>
    </g>
    <g id="xtick_18">
     <g id="line2d_22">
      <g>
       <use xlink:href="#mc539bbfbff" x="289.284476" y="283.66225" style="stroke: #000000; stroke-width: 0.6"/>
      </g>
     </g>
    </g>
    <g id="xtick_19">
     <g id="line2d_23">
      <g>
       <use xlink:href="#mc539bbfbff" x="296.162773" y="283.66225" style="stroke: #000000; stroke-width: 0.6"/>
      </g>
     </g>
    </g>
    <g id="xtick_20">
     <g id="line2d_24">
      <g>
       <use xlink:href="#mc539bbfbff" x="302.22986" y="283.66225" style="stroke: #000000; stroke-width: 0.6"/>
      </g>
     </g>
    </g>
    <g id="xtick_21">
     <g id="line2d_25">
      <g>
       <use xlink:href="#mc539bbfbff" x="343.361554" y="283.66225" style="stroke: #000000; stroke-width: 0.6"/>
      </g>
     </g>
    </g>
    <g id="xtick_22">
     <g id="line2d_26">
      <g>
       <use xlink:href="#mc539bbfbff" x="364.247347" y="283.66225" style="stroke: #000000; stroke-width: 0.6"/>
      </g>
     </g>
    </g>
    <g id="xtick_23">
     <g id="line2d_27">
      <g>
       <use xlink:href="#mc539bbfbff" x="379.066053" y="283.66225" style="stroke: #000000; stroke-width: 0.6"/>
      </g>
     </g>
    </g>
    <g id="xtick_24">
     <g id="line2d_28">
      <g>
       <use xlink:href="#mc539bbfbff" x="390.560335" y="283.66225" style="stroke: #000000; stroke-width: 0.6"/>
      </g>
     </g>
    </g>
    <g id="xtick_25">
     <g id="line2d_29">
      <g>
       <use xlink:href="#mc539bbfbff" x="399.951847" y="283.66225" style="stroke: #000000; stroke-width: 0.6"/>
      </g>
     </g>
    </g>
    <g id="xtick_26">
     <g id="line2d_30">
      <g>
       <use xlink:href="#mc539bbfbff" x="407.892257" y="283.66225" style="stroke: #000000; stroke-width: 0.6"/>
      </g>
     </g>
    </g>
    <g id="xtick_27">
     <g id="line2d_31">
      <g>
       <use xlink:href="#mc539bbfbff" x="414.770553" y="283.66225" style="stroke: #000000; stroke-width: 0.6"/>
      </g>
     </g>
    </g>
    <g id="xtick_28">
     <g id="line2d_32">
      <g>
       <use xlink:href="#mc539bbfbff" x="420.83764" y="283.66225" style="stroke: #000000; stroke-width: 0.6"/>
      </g>
     </g>
    </g>
    <g id="text_5">
     <!-- Schritte -->
     <g transform="translate(229.687539 313.657875) scale(0.12 -0.12)">
      <defs>
       <path id="TeXGyreTermes-Regular-53" d="M 3142 1075 
C 3142 1606 2790 2016 1946 2477 
C 1274 2842 1005 3123 1005 3475 
C 1005 3827 1274 4064 1670 4064 
C 1958 4064 2227 3942 2451 3712 
C 2650 3507 2739 3341 2842 2963 
L 3002 2963 
L 2861 4326 
L 2726 4326 
C 2701 4186 2630 4109 2522 4109 
C 2458 4109 2355 4134 2240 4186 
C 2003 4275 1773 4326 1549 4326 
C 1299 4326 1030 4224 826 4058 
C 576 3853 454 3578 454 3226 
C 454 2720 736 2362 1453 1984 
C 1914 1734 2246 1478 2406 1235 
C 2464 1146 2496 1018 2496 858 
C 2496 435 2176 141 1709 141 
C 1133 141 736 493 416 1274 
L 269 1274 
L 461 -83 
L 602 -83 
C 608 38 685 128 781 128 
C 851 128 960 102 1082 58 
C 1325 -38 1581 -90 1837 -90 
C 2579 -90 3142 416 3142 1075 
z
" transform="scale(0.015625)"/>
       <path id="TeXGyreTermes-Regular-63" d="M 2637 941 
L 2547 998 
C 2240 550 2010 397 1645 397 
C 1056 397 653 909 653 1645 
C 653 2310 1005 2758 1523 2758 
C 1754 2758 1837 2688 1901 2451 
L 1939 2310 
C 1990 2125 2106 2016 2246 2016 
C 2413 2016 2547 2138 2547 2285 
C 2547 2643 2099 2944 1562 2944 
C 1261 2944 954 2829 698 2618 
C 352 2330 160 1888 160 1357 
C 160 531 666 -64 1376 -64 
C 1651 -64 1894 26 2112 205 
C 2304 358 2432 544 2637 941 
z
" transform="scale(0.015625)"/>
       <path id="TeXGyreTermes-Regular-68" d="M 3117 0 
L 3117 96 
C 2771 160 2733 211 2733 653 
L 2733 1926 
C 2733 2598 2464 2944 1946 2944 
C 1568 2944 1299 2790 1005 2406 
L 1005 4352 
L 973 4371 
C 755 4294 595 4243 237 4141 
L 64 4090 
L 64 3987 
C 90 3994 109 3994 141 3994 
C 416 3994 467 3942 467 3667 
L 467 653 
C 467 205 429 147 58 96 
L 58 0 
L 1440 0 
L 1440 96 
C 1069 134 1005 211 1005 653 
L 1005 2195 
C 1274 2490 1466 2598 1715 2598 
C 2035 2598 2195 2368 2195 1920 
L 2195 653 
C 2195 218 2131 134 1760 96 
L 1760 0 
L 3117 0 
z
" transform="scale(0.015625)"/>
       <path id="TeXGyreTermes-Regular-72" d="M 2144 2605 
C 2144 2816 2010 2944 1792 2944 
C 1523 2944 1338 2797 1024 2342 
L 1024 2931 
L 992 2944 
C 653 2803 422 2720 45 2598 
L 45 2496 
C 134 2515 192 2522 269 2522 
C 429 2522 486 2419 486 2138 
L 486 538 
C 486 218 442 173 32 96 
L 32 0 
L 1568 0 
L 1568 96 
C 1133 115 1024 211 1024 576 
L 1024 2016 
C 1024 2221 1299 2541 1472 2541 
C 1510 2541 1568 2509 1638 2445 
C 1741 2355 1811 2317 1894 2317 
C 2048 2317 2144 2426 2144 2605 
z
" transform="scale(0.015625)"/>
       <path id="TeXGyreTermes-Regular-69" d="M 1619 0 
L 1619 96 
C 1197 128 1146 192 1146 653 
L 1146 2925 
L 1120 2944 
L 128 2592 
L 128 2496 
L 179 2502 
C 256 2515 339 2522 397 2522 
C 550 2522 608 2419 608 2138 
L 608 653 
C 608 192 544 122 102 96 
L 102 0 
L 1619 0 
z
M 1203 3776 
C 1203 3955 1062 4102 877 4102 
C 698 4102 550 3955 550 3776 
C 550 3590 698 3450 877 3450 
C 1062 3450 1203 3590 1203 3776 
z
" transform="scale(0.015625)"/>
       <path id="TeXGyreTermes-Regular-74" d="M 1786 422 
L 1702 493 
C 1562 326 1459 269 1318 269 
C 1082 269 986 435 986 845 
L 986 2675 
L 1632 2675 
L 1632 2880 
L 986 2880 
L 986 3622 
C 986 3686 973 3706 941 3706 
C 902 3642 858 3584 813 3526 
C 576 3174 358 2938 192 2842 
C 122 2797 83 2758 83 2720 
C 83 2701 90 2688 109 2675 
L 448 2675 
L 448 749 
C 448 211 640 -64 1011 -64 
C 1331 -64 1574 90 1786 422 
z
" transform="scale(0.015625)"/>
       <path id="TeXGyreTermes-Regular-65" d="M 2714 1005 
L 2611 1050 
C 2304 563 2029 378 1619 378 
C 1267 378 998 544 813 890 
C 685 1139 634 1363 621 1773 
L 2592 1773 
C 2541 2189 2477 2374 2317 2579 
C 2125 2810 1830 2944 1498 2944 
C 704 2944 160 2304 160 1370 
C 160 486 621 -64 1357 -64 
C 1971 -64 2445 314 2714 1005 
z
M 1939 1978 
L 634 1978 
C 704 2483 922 2714 1312 2714 
C 1702 2714 1856 2534 1939 1978 
z
" transform="scale(0.015625)"/>
      </defs>
      <use xlink:href="#TeXGyreTermes-Regular-53"/>
      <use xlink:href="#TeXGyreTermes-Regular-63" transform="translate(55.599991 0)"/>
      <use xlink:href="#TeXGyreTermes-Regular-68" transform="translate(99.999985 0)"/>
      <use xlink:href="#TeXGyreTermes-Regular-72" transform="translate(149.999969 0)"/>
      <use xlink:href="#TeXGyreTermes-Regular-69" transform="translate(183.299957 0)"/>
      <use xlink:href="#TeXGyreTermes-Regular-74" transform="translate(211.099945 0)"/>
      <use xlink:href="#TeXGyreTermes-Regular-74" transform="translate(238.899933 0)"/>
      <use xlink:href="#TeXGyreTermes-Regular-65" transform="translate(266.699921 0)"/>
     </g>
    </g>
   </g>
   <g id="matplotlib.axis_2">
    <g id="ytick_1">
     <g id="line2d_33">
      <path d="M 70.441494 248.933919 
L 426.264834 248.933919 
" clip-path="url(#p5d16696621)" style="fill: none; stroke: #b0b0b0; stroke-width: 0.8; stroke-linecap: square"/>
     </g>
     <g id="line2d_34">
      <defs>
       <path id="m58c43de4b8" d="M 0 0 
L -3.5 0 
" style="stroke: #000000; stroke-width: 0.8"/>
      </defs>
      <g>
       <use xlink:href="#m58c43de4b8" x="70.441494" y="248.933919" style="stroke: #000000; stroke-width: 0.8"/>
      </g>
     </g>
     <g id="text_6">
      <!-- $\mathdefault{10^{-3}}$ -->
      <g transform="translate(42.081494 253.031731) scale(0.12 -0.12)">
       <defs>
        <path id="TeXGyreTermes-Regular-2212" d="M 3354 1389 
L 3354 1811 
L 256 1811 
L 256 1389 
L 3354 1389 
z
" transform="scale(0.015625)"/>
       </defs>
       <use xlink:href="#TeXGyreTermes-Regular-31" transform="translate(0 0.184375)"/>
       <use xlink:href="#TeXGyreTermes-Regular-30" transform="translate(49.999985 0.184375)"/>
       <use xlink:href="#TeXGyreTermes-Regular-2212" transform="translate(100.787469 31.684375) scale(0.7)"/>
       <use xlink:href="#TeXGyreTermes-Regular-33" transform="translate(140.267465 31.684375) scale(0.7)"/>
      </g>
     </g>
    </g>
    <g id="ytick_2">
     <g id="line2d_35">
      <path d="M 70.441494 189.221765 
L 426.264834 189.221765 
" clip-path="url(#p5d16696621)" style="fill: none; stroke: #b0b0b0; stroke-width: 0.8; stroke-linecap: square"/>
     </g>
     <g id="line2d_36">
      <g>
       <use xlink:href="#m58c43de4b8" x="70.441494" y="189.221765" style="stroke: #000000; stroke-width: 0.8"/>
      </g>
     </g>
     <g id="text_7">
      <!-- $\mathdefault{10^{-1}}$ -->
      <g transform="translate(42.081494 193.319578) scale(0.12 -0.12)">
       <use xlink:href="#TeXGyreTermes-Regular-31" transform="translate(0 0.184375)"/>
       <use xlink:href="#TeXGyreTermes-Regular-30" transform="translate(49.999985 0.184375)"/>
       <use xlink:href="#TeXGyreTermes-Regular-2212" transform="translate(100.787469 31.684375) scale(0.7)"/>
       <use xlink:href="#TeXGyreTermes-Regular-31" transform="translate(140.267465 31.684375) scale(0.7)"/>
      </g>
     </g>
    </g>
    <g id="ytick_3">
     <g id="line2d_37">
      <path d="M 70.441494 129.509612 
L 426.264834 129.509612 
" clip-path="url(#p5d16696621)" style="fill: none; stroke: #b0b0b0; stroke-width: 0.8; stroke-linecap: square"/>
     </g>
     <g id="line2d_38">
      <g>
       <use xlink:href="#m58c43de4b8" x="70.441494" y="129.509612" style="stroke: #000000; stroke-width: 0.8"/>
      </g>
     </g>
     <g id="text_8">
      <!-- $\mathdefault{10^{1}}$ -->
      <g transform="translate(46.761494 133.607424) scale(0.12 -0.12)">
       <use xlink:href="#TeXGyreTermes-Regular-31" transform="translate(0 0.184375)"/>
       <use xlink:href="#TeXGyreTermes-Regular-30" transform="translate(49.999985 0.184375)"/>
       <use xlink:href="#TeXGyreTermes-Regular-31" transform="translate(100.787469 31.684375) scale(0.7)"/>
      </g>
     </g>
    </g>
    <g id="ytick_4">
     <g id="line2d_39">
      <path d="M 70.441494 69.797458 
L 426.264834 69.797458 
" clip-path="url(#p5d16696621)" style="fill: none; stroke: #b0b0b0; stroke-width: 0.8; stroke-linecap: square"/>
     </g>
     <g id="line2d_40">
      <g>
       <use xlink:href="#m58c43de4b8" x="70.441494" y="69.797458" style="stroke: #000000; stroke-width: 0.8"/>
      </g>
     </g>
     <g id="text_9">
      <!-- $\mathdefault{10^{3}}$ -->
      <g transform="translate(46.761494 73.895271) scale(0.12 -0.12)">
       <use xlink:href="#TeXGyreTermes-Regular-31" transform="translate(0 0.184375)"/>
       <use xlink:href="#TeXGyreTermes-Regular-30" transform="translate(49.999985 0.184375)"/>
       <use xlink:href="#TeXGyreTermes-Regular-33" transform="translate(100.787469 31.684375) scale(0.7)"/>
      </g>
     </g>
    </g>
    <g id="text_10">
     <!-- Laufzeit in Sekunden -->
     <g transform="translate(35.477119 206.1155) rotate(-90) scale(0.12 -0.12)">
      <defs>
       <path id="TeXGyreTermes-Regular-4c" d="M 3827 1114 
L 3667 1114 
C 3565 890 3482 742 3392 640 
C 3168 371 2816 250 2266 250 
L 1837 250 
C 1370 250 1286 288 1286 512 
L 1286 3539 
C 1286 3994 1376 4083 1882 4115 
L 1882 4237 
L 77 4237 
L 77 4115 
C 550 4077 634 3994 634 3539 
L 634 698 
C 634 243 544 154 77 122 
L 77 0 
L 3520 0 
L 3827 1114 
z
" transform="scale(0.015625)"/>
       <path id="TeXGyreTermes-Regular-61" d="M 2829 256 
L 2829 422 
C 2720 333 2643 301 2547 301 
C 2400 301 2355 390 2355 672 
L 2355 1920 
C 2355 2246 2323 2426 2234 2573 
C 2099 2816 1824 2944 1434 2944 
C 1107 2944 800 2854 621 2707 
C 461 2573 358 2387 358 2227 
C 358 2080 480 1952 634 1952 
C 787 1952 922 2080 922 2221 
C 922 2246 915 2278 909 2323 
C 896 2381 890 2432 890 2477 
C 890 2650 1094 2790 1350 2790 
C 1664 2790 1837 2605 1837 2259 
L 1837 1869 
C 851 1472 742 1421 467 1178 
C 326 1050 237 832 237 621 
C 237 218 512 -64 909 -64 
C 1190 -64 1453 70 1843 403 
C 1875 64 1990 -64 2253 -64 
C 2470 -64 2605 13 2829 256 
z
M 1837 787 
C 1837 589 1805 531 1670 448 
C 1517 358 1338 307 1203 307 
C 979 307 800 525 800 800 
L 800 826 
C 800 1203 1062 1434 1837 1715 
L 1837 787 
z
" transform="scale(0.015625)"/>
       <path id="TeXGyreTermes-Regular-75" d="M 3066 230 
L 3066 320 
L 3034 320 
C 2739 320 2669 390 2669 685 
L 2669 2880 
L 1658 2880 
L 1658 2771 
C 2054 2752 2131 2688 2131 2368 
L 2131 864 
C 2131 691 2099 595 2022 538 
C 1843 384 1645 307 1446 307 
C 1197 307 992 525 992 794 
L 992 2880 
L 58 2880 
L 58 2790 
C 365 2771 454 2675 454 2381 
L 454 768 
C 454 262 762 -64 1229 -64 
C 1466 -64 1715 38 1888 211 
L 2163 486 
L 2163 -45 
L 2189 -58 
C 2509 70 2739 141 3066 230 
z
" transform="scale(0.015625)"/>
       <path id="TeXGyreTermes-Regular-66" d="M 2451 3974 
C 2451 4205 2170 4371 1786 4371 
C 1382 4371 1050 4198 883 3910 
C 717 3622 666 3392 659 2880 
L 134 2880 
L 134 2675 
L 659 2675 
L 659 666 
C 659 198 589 122 128 96 
L 128 0 
L 1792 0 
L 1792 96 
C 1267 115 1197 186 1197 666 
L 1197 2675 
L 1978 2675 
L 1978 2880 
L 1190 2880 
L 1190 3622 
C 1190 4000 1312 4192 1555 4192 
C 1696 4192 1779 4128 1894 3942 
C 1997 3770 2074 3712 2182 3712 
C 2336 3712 2451 3827 2451 3974 
z
" transform="scale(0.015625)"/>
       <path id="TeXGyreTermes-Regular-7a" d="M 2675 864 
L 2560 890 
C 2496 570 2458 467 2374 358 
C 2285 250 2067 192 1741 192 
L 858 192 
L 2579 2784 
L 2579 2880 
L 358 2880 
L 339 2125 
L 454 2125 
C 512 2592 608 2688 992 2688 
L 1875 2688 
L 173 96 
L 173 0 
L 2586 0 
L 2675 864 
z
" transform="scale(0.015625)"/>
       <path id="TeXGyreTermes-Regular-20" transform="scale(0.015625)"/>
       <path id="TeXGyreTermes-Regular-6e" d="M 3104 0 
L 3104 96 
C 2790 128 2714 205 2714 518 
L 2714 1984 
C 2714 2586 2432 2944 1958 2944 
C 1664 2944 1466 2835 1030 2426 
L 1030 2931 
L 986 2944 
C 672 2829 454 2758 102 2656 
L 102 2547 
C 141 2566 205 2573 275 2573 
C 454 2573 512 2477 512 2163 
L 512 576 
C 512 211 442 122 115 96 
L 115 0 
L 1472 0 
L 1472 96 
C 1146 122 1050 198 1050 429 
L 1050 2227 
C 1357 2515 1498 2592 1709 2592 
C 2022 2592 2176 2394 2176 1971 
L 2176 634 
C 2176 230 2093 122 1773 96 
L 1773 0 
L 3104 0 
z
" transform="scale(0.015625)"/>
       <path id="TeXGyreTermes-Regular-6b" d="M 3232 0 
L 3232 96 
C 2950 115 2752 237 2483 563 
L 1504 1805 
L 1690 1978 
C 2144 2400 2541 2694 2726 2746 
C 2822 2771 2912 2784 3021 2784 
L 3072 2784 
L 3072 2880 
L 1766 2880 
L 1766 2790 
C 2016 2784 2086 2758 2086 2669 
C 2086 2618 2029 2528 1939 2451 
L 1062 1670 
L 1062 4358 
L 1037 4371 
L 237 4141 
L 45 4090 
L 45 3987 
C 128 3994 186 4000 250 4000 
C 461 4000 525 3917 525 3610 
L 525 525 
C 525 192 506 173 45 96 
L 45 0 
L 1542 0 
L 1542 96 
L 1414 102 
C 1158 115 1062 205 1062 429 
L 1062 1606 
L 1958 410 
L 1978 384 
C 1990 365 2003 346 2022 326 
C 2074 262 2093 224 2093 192 
C 2093 134 2035 96 1958 96 
L 1837 96 
L 1837 0 
L 3232 0 
z
" transform="scale(0.015625)"/>
       <path id="TeXGyreTermes-Regular-64" d="M 3142 269 
L 3142 371 
C 3027 365 3014 365 2995 365 
C 2765 365 2714 435 2714 730 
L 2714 4358 
L 2682 4371 
C 2374 4262 2150 4198 1741 4090 
L 1741 3987 
C 1792 3994 1830 3994 1882 3994 
C 2118 3994 2176 3930 2176 3667 
L 2176 2669 
C 1933 2874 1760 2944 1504 2944 
C 768 2944 173 2221 173 1312 
C 173 493 653 -64 1357 -64 
C 1715 -64 1958 64 2176 365 
L 2176 -45 
L 2202 -64 
L 3142 269 
z
M 2176 653 
C 2176 608 2131 531 2067 461 
C 1952 333 1792 269 1606 269 
C 1075 269 723 781 723 1568 
C 723 2291 1037 2765 1523 2765 
C 1862 2765 2176 2464 2176 2125 
L 2176 653 
z
" transform="scale(0.015625)"/>
      </defs>
      <use xlink:href="#TeXGyreTermes-Regular-4c"/>
      <use xlink:href="#TeXGyreTermes-Regular-61" transform="translate(61.099991 0)"/>
      <use xlink:href="#TeXGyreTermes-Regular-75" transform="translate(105.499985 0)"/>
      <use xlink:href="#TeXGyreTermes-Regular-66" transform="translate(155.499969 0)"/>
      <use xlink:href="#TeXGyreTermes-Regular-7a" transform="translate(188.799957 0)"/>
      <use xlink:href="#TeXGyreTermes-Regular-65" transform="translate(233.199951 0)"/>
      <use xlink:href="#TeXGyreTermes-Regular-69" transform="translate(277.599945 0)"/>
      <use xlink:href="#TeXGyreTermes-Regular-74" transform="translate(305.399933 0)"/>
      <use xlink:href="#TeXGyreTermes-Regular-20" transform="translate(333.199921 0)"/>
      <use xlink:href="#TeXGyreTermes-Regular-69" transform="translate(358.199905 0)"/>
      <use xlink:href="#TeXGyreTermes-Regular-6e" transform="translate(385.999893 0)"/>
      <use xlink:href="#TeXGyreTermes-Regular-20" transform="translate(435.999878 0)"/>
      <use xlink:href="#TeXGyreTermes-Regular-53" transform="translate(460.999863 0)"/>
      <use xlink:href="#TeXGyreTermes-Regular-65" transform="translate(516.599854 0)"/>
      <use xlink:href="#TeXGyreTermes-Regular-6b" transform="translate(560.999847 0)"/>
      <use xlink:href="#TeXGyreTermes-Regular-75" transform="translate(610.999832 0)"/>
      <use xlink:href="#TeXGyreTermes-Regular-6e" transform="translate(660.999817 0)"/>
      <use xlink:href="#TeXGyreTermes-Regular-64" transform="translate(710.999802 0)"/>
      <use xlink:href="#TeXGyreTermes-Regular-65" transform="translate(760.999786 0)"/>
      <use xlink:href="#TeXGyreTermes-Regular-6e" transform="translate(805.39978 0)"/>
     </g>
    </g>
   </g>
   <g id="line2d_41">
    <path d="M 70.441494 234.570894 
L 153.344774 234.113917 
L 189.049274 227.483288 
L 271.952555 221.375477 
L 307.657054 218.316221 
L 390.560335 202.645767 
L 426.264834 198.410737 
" clip-path="url(#p5d16696621)" style="fill: none; stroke: #1f77b4; stroke-width: 1.5; stroke-linecap: square"/>
   </g>
   <g id="line2d_42">
    <path d="M 70.441494 240.277624 
L 153.344774 223.149138 
L 189.049274 208.756548 
L 271.952555 189.612646 
L 307.657054 183.872298 
L 390.560335 166.455896 
L 426.264834 156.91048 
" clip-path="url(#p5d16696621)" style="fill: none; stroke: #ff7f0e; stroke-width: 1.5; stroke-linecap: square"/>
   </g>
   <g id="line2d_43">
    <path d="M 70.441494 219.218813 
L 153.344774 190.636405 
L 189.049274 180.645749 
L 271.952555 160.679108 
L 307.657054 153.205613 
L 390.560335 133.780059 
L 426.264834 127.198059 
" clip-path="url(#p5d16696621)" style="fill: none; stroke: #2ca02c; stroke-width: 1.5; stroke-linecap: square"/>
   </g>
   <g id="line2d_44">
    <path d="M 70.441494 216.77245 
L 153.344774 183.459844 
L 189.049274 173.688603 
L 271.952555 152.429722 
L 307.657054 141.87785 
L 390.560335 123.645244 
L 426.264834 119.467956 
" clip-path="url(#p5d16696621)" style="fill: none; stroke: #d62728; stroke-width: 1.5; stroke-linecap: square"/>
   </g>
   <g id="line2d_45">
    <path d="M 70.441494 234.310083 
L 153.344774 218.819075 
L 189.049274 210.7773 
L 271.952555 189.714681 
L 307.657054 185.228928 
L 390.560335 165.009411 
L 426.264834 155.826949 
" clip-path="url(#p5d16696621)" style="fill: none; stroke: #9467bd; stroke-width: 1.5; stroke-linecap: square"/>
   </g>
   <g id="line2d_46">
    <path d="M 70.441494 253.205863 
L 153.344774 193.394085 
L 189.049274 190.982007 
L 271.952555 144.563205 
L 307.657054 134.735067 
L 390.560335 106.528885 
L 426.264834 97.096754 
" clip-path="url(#p5d16696621)" style="fill: none; stroke: #8c564b; stroke-width: 1.5; stroke-linecap: square"/>
   </g>
   <g id="line2d_47">
    <path d="M 70.441494 216.495045 
L 153.344774 168.764844 
L 189.049274 152.603202 
L 271.952555 107.643751 
L 307.657054 89.370797 
L 390.560335 47.370358 
L 426.264834 37.667146 
" clip-path="url(#p5d16696621)" style="fill: none; stroke: #e377c2; stroke-width: 1.5; stroke-linecap: square"/>
   </g>
   <g id="patch_3">
    <path d="M 70.441494 283.66225 
L 70.441494 25.92 
" style="fill: none; stroke: #000000; stroke-width: 0.8; stroke-linejoin: miter; stroke-linecap: square"/>
   </g>
   <g id="patch_4">
    <path d="M 426.264834 283.66225 
L 426.264834 25.92 
" style="fill: none; stroke: #000000; stroke-width: 0.8; stroke-linejoin: miter; stroke-linecap: square"/>
   </g>
   <g id="patch_5">
    <path d="M 70.441494 283.66225 
L 426.264834 283.66225 
" style="fill: none; stroke: #000000; stroke-width: 0.8; stroke-linejoin: miter; stroke-linecap: square"/>
   </g>
   <g id="patch_6">
    <path d="M 70.441494 25.92 
L 426.264834 25.92 
" style="fill: none; stroke: #000000; stroke-width: 0.8; stroke-linejoin: miter; stroke-linecap: square"/>
   </g>
   <g id="legend_1">
    <g id="patch_7">
     <path d="M 78.841494 154.573125 
L 256.552119 154.573125 
Q 258.952119 154.573125 258.952119 152.173125 
L 258.952119 34.32 
Q 258.952119 31.92 256.552119 31.92 
L 78.841494 31.92 
Q 76.441494 31.92 76.441494 34.32 
L 76.441494 152.173125 
Q 76.441494 154.573125 78.841494 154.573125 
z
" style="fill: #ffffff; opacity: 0.8; stroke: #cccccc; stroke-linejoin: miter"/>
    </g>
    <g id="line2d_48">
     <path d="M 81.241494 40.92 
L 93.241494 40.92 
L 105.241494 40.92 
" style="fill: none; stroke: #1f77b4; stroke-width: 1.5; stroke-linecap: square"/>
    </g>
    <g id="text_11">
     <!-- Timmer-Koenig -->
     <g transform="translate(114.841494 45.12) scale(0.12 -0.12)">
      <defs>
       <path id="TeXGyreTermes-Regular-54" d="M 3795 3149 
L 3757 4237 
L 147 4237 
L 109 3149 
L 262 3149 
C 416 3853 563 3968 1280 3968 
L 1626 3968 
L 1626 768 
C 1626 224 1555 154 1024 122 
L 1024 0 
L 2893 0 
L 2893 122 
C 2368 147 2278 230 2278 698 
L 2278 3968 
L 2624 3968 
C 3354 3968 3494 3853 3642 3149 
L 3795 3149 
z
" transform="scale(0.015625)"/>
       <path id="TeXGyreTermes-Regular-6d" d="M 4960 0 
L 4960 96 
L 4794 109 
C 4602 122 4518 237 4518 486 
L 4518 1805 
C 4518 2560 4269 2944 3776 2944 
C 3405 2944 3078 2778 2733 2406 
C 2618 2771 2400 2944 2054 2944 
C 1773 2944 1594 2854 1062 2451 
L 1062 2931 
L 1018 2944 
C 691 2822 474 2752 122 2656 
L 122 2547 
C 205 2566 256 2573 326 2573 
C 493 2573 550 2470 550 2163 
L 550 544 
C 550 198 461 102 102 96 
L 102 0 
L 1523 0 
L 1523 96 
C 1184 109 1088 179 1088 429 
L 1088 2234 
C 1088 2234 1139 2310 1184 2355 
C 1344 2502 1619 2611 1843 2611 
C 2125 2611 2266 2387 2266 1939 
L 2266 550 
C 2266 192 2195 122 1830 96 
L 1830 0 
L 3264 0 
L 3264 96 
C 2899 102 2803 211 2803 608 
L 2803 2221 
C 2995 2496 3206 2611 3501 2611 
C 3866 2611 3981 2438 3981 1907 
L 3981 557 
C 3981 192 3930 141 3558 96 
L 3558 0 
L 4960 0 
z
" transform="scale(0.015625)"/>
       <path id="TeXGyreTermes-Regular-2d" d="M 1824 1242 
L 1824 1645 
L 250 1645 
L 250 1242 
L 1824 1242 
z
" transform="scale(0.015625)"/>
       <path id="TeXGyreTermes-Regular-4b" d="M 4627 0 
L 4627 122 
C 4294 128 4205 192 3622 813 
L 2131 2413 
L 3347 3616 
C 3782 4032 3885 4083 4320 4115 
L 4320 4237 
L 2643 4237 
L 2643 4115 
C 2720 4109 2784 4109 2810 4109 
C 3002 4096 3078 4045 3078 3917 
C 3078 3776 2931 3584 2579 3258 
L 1446 2227 
L 1446 3539 
C 1446 4006 1517 4077 2035 4115 
L 2035 4237 
L 218 4237 
L 218 4115 
C 717 4077 794 3994 794 3539 
L 794 768 
C 794 237 723 154 218 122 
L 218 0 
L 2022 0 
L 2022 122 
C 1523 154 1446 230 1446 698 
L 1446 1894 
L 1613 2029 
L 2291 1357 
C 2778 877 3123 422 3123 269 
C 3123 179 3034 134 2854 128 
C 2822 128 2752 128 2675 122 
L 2675 0 
L 4627 0 
z
" transform="scale(0.015625)"/>
       <path id="TeXGyreTermes-Regular-6f" d="M 3008 1498 
C 3008 2336 2419 2944 1600 2944 
C 768 2944 186 2330 186 1446 
C 186 582 781 -64 1587 -64 
C 2394 -64 3008 614 3008 1498 
z
M 2432 1274 
C 2432 550 2144 115 1664 115 
C 1414 115 1178 269 1043 525 
C 864 858 762 1306 762 1760 
C 762 2368 1062 2765 1517 2765 
C 2054 2765 2432 2150 2432 1274 
z
" transform="scale(0.015625)"/>
       <path id="TeXGyreTermes-Regular-67" d="M 3008 2483 
L 3008 2733 
L 2515 2733 
C 2387 2733 2291 2752 2163 2797 
L 2022 2848 
C 1850 2912 1677 2944 1510 2944 
C 915 2944 442 2483 442 1901 
C 442 1498 614 1254 1037 1043 
L 762 787 
C 550 602 467 474 467 346 
C 467 211 544 134 806 6 
C 352 -326 179 -538 179 -774 
C 179 -1114 678 -1395 1286 -1395 
C 1766 -1395 2266 -1229 2598 -960 
C 2842 -762 2950 -557 2950 -314 
C 2950 83 2650 352 2176 371 
L 1350 410 
C 1011 422 851 480 851 582 
C 851 710 1062 934 1235 986 
C 1293 979 1338 973 1357 973 
C 1478 960 1562 954 1600 954 
C 1837 954 2093 1050 2291 1222 
C 2502 1402 2598 1626 2598 1946 
C 2598 2131 2566 2278 2477 2483 
L 3008 2483 
z
M 2771 -410 
C 2771 -781 2285 -1030 1562 -1030 
C 998 -1030 627 -845 627 -563 
C 627 -416 672 -333 941 -13 
C 1152 -58 1664 -96 1978 -96 
C 2560 -96 2771 -179 2771 -410 
z
M 2106 1696 
C 2106 1338 1920 1114 1626 1114 
C 1242 1114 973 1530 973 2144 
L 973 2163 
C 973 2541 1152 2765 1446 2765 
C 1645 2765 1811 2656 1914 2464 
C 2029 2240 2106 1946 2106 1696 
z
" transform="scale(0.015625)"/>
      </defs>
      <use xlink:href="#TeXGyreTermes-Regular-54"/>
      <use xlink:href="#TeXGyreTermes-Regular-69" transform="translate(61.099991 0)"/>
      <use xlink:href="#TeXGyreTermes-Regular-6d" transform="translate(88.899979 0)"/>
      <use xlink:href="#TeXGyreTermes-Regular-6d" transform="translate(166.699966 0)"/>
      <use xlink:href="#TeXGyreTermes-Regular-65" transform="translate(244.499954 0)"/>
      <use xlink:href="#TeXGyreTermes-Regular-72" transform="translate(288.899948 0)"/>
      <use xlink:href="#TeXGyreTermes-Regular-2d" transform="translate(322.199936 0)"/>
      <use xlink:href="#TeXGyreTermes-Regular-4b" transform="translate(355.499924 0)"/>
      <use xlink:href="#TeXGyreTermes-Regular-6f" transform="translate(427.699905 0)"/>
      <use xlink:href="#TeXGyreTermes-Regular-65" transform="translate(477.69989 0)"/>
      <use xlink:href="#TeXGyreTermes-Regular-6e" transform="translate(522.099884 0)"/>
      <use xlink:href="#TeXGyreTermes-Regular-69" transform="translate(572.099869 0)"/>
      <use xlink:href="#TeXGyreTermes-Regular-67" transform="translate(599.899857 0)"/>
     </g>
    </g>
    <g id="line2d_49">
     <path d="M 81.241494 57.935625 
L 93.241494 57.935625 
L 105.241494 57.935625 
" style="fill: none; stroke: #ff7f0e; stroke-width: 1.5; stroke-linecap: square"/>
    </g>
    <g id="text_12">
     <!-- FracDiffTime_cutoff_5 -->
     <g transform="translate(114.841494 62.135625) scale(0.12 -0.12)">
      <defs>
       <path id="TeXGyreTermes-Regular-46" d="M 3494 3322 
L 3475 4237 
L 77 4237 
L 77 4115 
C 550 4077 634 3987 634 3539 
L 634 768 
C 634 237 563 154 77 122 
L 77 0 
L 1869 0 
L 1869 122 
C 1376 147 1286 237 1286 698 
L 1286 2093 
L 2214 2093 
C 2733 2093 2842 1997 2918 1478 
L 3066 1478 
L 3066 2963 
L 2918 2963 
C 2842 2451 2726 2355 2214 2355 
L 1286 2355 
L 1286 3776 
C 1286 3955 1318 3994 1491 3994 
L 2362 3994 
C 3085 3994 3226 3898 3334 3322 
L 3494 3322 
z
" transform="scale(0.015625)"/>
       <path id="TeXGyreTermes-Regular-44" d="M 4384 2138 
C 4384 2714 4192 3213 3840 3565 
C 3405 4006 2707 4237 1830 4237 
L 102 4237 
L 102 4115 
C 608 4070 666 4013 666 3539 
L 666 698 
C 666 237 589 154 102 122 
L 102 0 
L 1920 0 
C 2662 0 3334 211 3731 570 
C 4147 947 4384 1517 4384 2138 
z
M 3686 2093 
C 3686 1338 3424 800 2906 499 
C 2579 314 2208 237 1651 237 
C 1395 237 1318 294 1318 499 
L 1318 3750 
C 1318 3949 1389 4000 1651 4000 
C 2202 4000 2618 3898 2925 3680 
C 3424 3334 3686 2784 3686 2093 
z
" transform="scale(0.015625)"/>
       <path id="TeXGyreTermes-Regular-5f" d="M 3200 -800 
L 3200 -480 
L 0 -480 
L 0 -800 
L 3200 -800 
z
" transform="scale(0.015625)"/>
      </defs>
      <use xlink:href="#TeXGyreTermes-Regular-46"/>
      <use xlink:href="#TeXGyreTermes-Regular-72" transform="translate(55.599991 0)"/>
      <use xlink:href="#TeXGyreTermes-Regular-61" transform="translate(88.899979 0)"/>
      <use xlink:href="#TeXGyreTermes-Regular-63" transform="translate(133.299973 0)"/>
      <use xlink:href="#TeXGyreTermes-Regular-44" transform="translate(177.699966 0)"/>
      <use xlink:href="#TeXGyreTermes-Regular-69" transform="translate(249.899948 0)"/>
      <use xlink:href="#TeXGyreTermes-Regular-66" transform="translate(277.699936 0)"/>
      <use xlink:href="#TeXGyreTermes-Regular-66" transform="translate(310.999924 0)"/>
      <use xlink:href="#TeXGyreTermes-Regular-54" transform="translate(344.299911 0)"/>
      <use xlink:href="#TeXGyreTermes-Regular-69" transform="translate(405.399902 0)"/>
      <use xlink:href="#TeXGyreTermes-Regular-6d" transform="translate(433.19989 0)"/>
      <use xlink:href="#TeXGyreTermes-Regular-65" transform="translate(510.999878 0)"/>
      <use xlink:href="#TeXGyreTermes-Regular-5f" transform="translate(555.399872 0)"/>
      <use xlink:href="#TeXGyreTermes-Regular-63" transform="translate(605.399857 0)"/>
      <use xlink:href="#TeXGyreTermes-Regular-75" transform="translate(649.79985 0)"/>
      <use xlink:href="#TeXGyreTermes-Regular-74" transform="translate(699.799835 0)"/>
      <use xlink:href="#TeXGyreTermes-Regular-6f" transform="translate(727.599823 0)"/>
      <use xlink:href="#TeXGyreTermes-Regular-66" transform="translate(777.599808 0)"/>
      <use xlink:href="#TeXGyreTermes-Regular-66" transform="translate(810.899796 0)"/>
      <use xlink:href="#TeXGyreTermes-Regular-5f" transform="translate(844.199783 0)"/>
      <use xlink:href="#TeXGyreTermes-Regular-35" transform="translate(894.199768 0)"/>
     </g>
    </g>
    <g id="line2d_50">
     <path d="M 81.241494 74.94 
L 93.241494 74.94 
L 105.241494 74.94 
" style="fill: none; stroke: #2ca02c; stroke-width: 1.5; stroke-linecap: square"/>
    </g>
    <g id="text_13">
     <!-- FracDiffTime_cutoff_50 -->
     <g transform="translate(114.841494 79.14) scale(0.12 -0.12)">
      <use xlink:href="#TeXGyreTermes-Regular-46"/>
      <use xlink:href="#TeXGyreTermes-Regular-72" transform="translate(55.599991 0)"/>
      <use xlink:href="#TeXGyreTermes-Regular-61" transform="translate(88.899979 0)"/>
      <use xlink:href="#TeXGyreTermes-Regular-63" transform="translate(133.299973 0)"/>
      <use xlink:href="#TeXGyreTermes-Regular-44" transform="translate(177.699966 0)"/>
      <use xlink:href="#TeXGyreTermes-Regular-69" transform="translate(249.899948 0)"/>
      <use xlink:href="#TeXGyreTermes-Regular-66" transform="translate(277.699936 0)"/>
      <use xlink:href="#TeXGyreTermes-Regular-66" transform="translate(310.999924 0)"/>
      <use xlink:href="#TeXGyreTermes-Regular-54" transform="translate(344.299911 0)"/>
      <use xlink:href="#TeXGyreTermes-Regular-69" transform="translate(405.399902 0)"/>
      <use xlink:href="#TeXGyreTermes-Regular-6d" transform="translate(433.19989 0)"/>
      <use xlink:href="#TeXGyreTermes-Regular-65" transform="translate(510.999878 0)"/>
      <use xlink:href="#TeXGyreTermes-Regular-5f" transform="translate(555.399872 0)"/>
      <use xlink:href="#TeXGyreTermes-Regular-63" transform="translate(605.399857 0)"/>
      <use xlink:href="#TeXGyreTermes-Regular-75" transform="translate(649.79985 0)"/>
      <use xlink:href="#TeXGyreTermes-Regular-74" transform="translate(699.799835 0)"/>
      <use xlink:href="#TeXGyreTermes-Regular-6f" transform="translate(727.599823 0)"/>
      <use xlink:href="#TeXGyreTermes-Regular-66" transform="translate(777.599808 0)"/>
      <use xlink:href="#TeXGyreTermes-Regular-66" transform="translate(810.899796 0)"/>
      <use xlink:href="#TeXGyreTermes-Regular-5f" transform="translate(844.199783 0)"/>
      <use xlink:href="#TeXGyreTermes-Regular-35" transform="translate(894.199768 0)"/>
      <use xlink:href="#TeXGyreTermes-Regular-30" transform="translate(944.199753 0)"/>
     </g>
    </g>
    <g id="line2d_51">
     <path d="M 81.241494 91.944375 
L 93.241494 91.944375 
L 105.241494 91.944375 
" style="fill: none; stroke: #d62728; stroke-width: 1.5; stroke-linecap: square"/>
    </g>
    <g id="text_14">
     <!-- FracDiffTime_cutoff_100 -->
     <g transform="translate(114.841494 96.144375) scale(0.12 -0.12)">
      <use xlink:href="#TeXGyreTermes-Regular-46"/>
      <use xlink:href="#TeXGyreTermes-Regular-72" transform="translate(55.599991 0)"/>
      <use xlink:href="#TeXGyreTermes-Regular-61" transform="translate(88.899979 0)"/>
      <use xlink:href="#TeXGyreTermes-Regular-63" transform="translate(133.299973 0)"/>
      <use xlink:href="#TeXGyreTermes-Regular-44" transform="translate(177.699966 0)"/>
      <use xlink:href="#TeXGyreTermes-Regular-69" transform="translate(249.899948 0)"/>
      <use xlink:href="#TeXGyreTermes-Regular-66" transform="translate(277.699936 0)"/>
      <use xlink:href="#TeXGyreTermes-Regular-66" transform="translate(310.999924 0)"/>
      <use xlink:href="#TeXGyreTermes-Regular-54" transform="translate(344.299911 0)"/>
      <use xlink:href="#TeXGyreTermes-Regular-69" transform="translate(405.399902 0)"/>
      <use xlink:href="#TeXGyreTermes-Regular-6d" transform="translate(433.19989 0)"/>
      <use xlink:href="#TeXGyreTermes-Regular-65" transform="translate(510.999878 0)"/>
      <use xlink:href="#TeXGyreTermes-Regular-5f" transform="translate(555.399872 0)"/>
      <use xlink:href="#TeXGyreTermes-Regular-63" transform="translate(605.399857 0)"/>
      <use xlink:href="#TeXGyreTermes-Regular-75" transform="translate(649.79985 0)"/>
      <use xlink:href="#TeXGyreTermes-Regular-74" transform="translate(699.799835 0)"/>
      <use xlink:href="#TeXGyreTermes-Regular-6f" transform="translate(727.599823 0)"/>
      <use xlink:href="#TeXGyreTermes-Regular-66" transform="translate(777.599808 0)"/>
      <use xlink:href="#TeXGyreTermes-Regular-66" transform="translate(810.899796 0)"/>
      <use xlink:href="#TeXGyreTermes-Regular-5f" transform="translate(844.199783 0)"/>
      <use xlink:href="#TeXGyreTermes-Regular-31" transform="translate(894.199768 0)"/>
      <use xlink:href="#TeXGyreTermes-Regular-30" transform="translate(944.199753 0)"/>
      <use xlink:href="#TeXGyreTermes-Regular-30" transform="translate(994.199738 0)"/>
     </g>
    </g>
    <g id="line2d_52">
     <path d="M 81.241494 108.94875 
L 93.241494 108.94875 
L 105.241494 108.94875 
" style="fill: none; stroke: #9467bd; stroke-width: 1.5; stroke-linecap: square"/>
    </g>
    <g id="text_15">
     <!-- FracDiffFreq -->
     <g transform="translate(114.841494 113.14875) scale(0.12 -0.12)">
      <defs>
       <path id="TeXGyreTermes-Regular-71" d="M 3123 -1389 
L 3123 -1299 
C 2771 -1222 2720 -1171 2720 -902 
L 2720 2925 
L 2650 2925 
L 2304 2720 
C 2010 2893 1818 2950 1568 2950 
C 768 2950 154 2234 154 1312 
C 154 506 576 -64 1178 -64 
C 1549 -64 1901 102 2182 410 
L 2182 -794 
C 2182 -1152 2067 -1248 1613 -1280 
L 1613 -1389 
L 3123 -1389 
z
M 2182 813 
C 2182 659 2157 576 2093 525 
C 1952 403 1741 326 1542 326 
C 1344 326 1171 390 1043 518 
C 838 704 704 1120 704 1542 
C 704 2298 1043 2771 1587 2771 
C 1984 2771 2182 2560 2182 2131 
L 2182 813 
z
" transform="scale(0.015625)"/>
      </defs>
      <use xlink:href="#TeXGyreTermes-Regular-46"/>
      <use xlink:href="#TeXGyreTermes-Regular-72" transform="translate(55.599991 0)"/>
      <use xlink:href="#TeXGyreTermes-Regular-61" transform="translate(88.899979 0)"/>
      <use xlink:href="#TeXGyreTermes-Regular-63" transform="translate(133.299973 0)"/>
      <use xlink:href="#TeXGyreTermes-Regular-44" transform="translate(177.699966 0)"/>
      <use xlink:href="#TeXGyreTermes-Regular-69" transform="translate(249.899948 0)"/>
      <use xlink:href="#TeXGyreTermes-Regular-66" transform="translate(277.699936 0)"/>
      <use xlink:href="#TeXGyreTermes-Regular-66" transform="translate(310.999924 0)"/>
      <use xlink:href="#TeXGyreTermes-Regular-46" transform="translate(344.299911 0)"/>
      <use xlink:href="#TeXGyreTermes-Regular-72" transform="translate(399.899902 0)"/>
      <use xlink:href="#TeXGyreTermes-Regular-65" transform="translate(433.19989 0)"/>
      <use xlink:href="#TeXGyreTermes-Regular-71" transform="translate(477.599884 0)"/>
     </g>
    </g>
    <g id="line2d_53">
     <path d="M 81.241494 125.953125 
L 93.241494 125.953125 
L 105.241494 125.953125 
" style="fill: none; stroke: #8c564b; stroke-width: 1.5; stroke-linecap: square"/>
    </g>
    <g id="text_16">
     <!-- Phasenrandomisierung-Done -->
     <g transform="translate(114.841494 130.153125) scale(0.12 -0.12)">
      <defs>
       <path id="TeXGyreTermes-Regular-50" d="M 3469 3078 
C 3469 3347 3379 3590 3206 3776 
C 2950 4058 2394 4237 1792 4237 
L 102 4237 
L 102 4115 
C 576 4064 640 4000 640 3539 
L 640 768 
C 640 230 589 166 102 122 
L 102 0 
L 1894 0 
L 1894 122 
C 1389 141 1293 230 1293 698 
L 1293 1862 
C 1459 1850 1568 1843 1734 1843 
C 2234 1843 2579 1907 2854 2061 
C 3238 2266 3469 2656 3469 3078 
z
M 2771 3040 
C 2771 2419 2394 2099 1658 2099 
C 1530 2099 1440 2106 1293 2118 
L 1293 3782 
C 1293 3955 1338 4000 1510 4000 
C 2374 4000 2771 3699 2771 3040 
z
" transform="scale(0.015625)"/>
       <path id="TeXGyreTermes-Regular-73" d="M 2227 755 
C 2227 1075 2080 1286 1690 1517 
L 998 1926 
C 819 2029 723 2189 723 2362 
C 723 2624 922 2797 1216 2797 
C 1581 2797 1773 2586 1920 2010 
L 2016 2010 
L 1990 2880 
L 1920 2880 
L 1907 2867 
C 1850 2822 1843 2816 1818 2816 
C 1779 2816 1715 2829 1645 2861 
C 1510 2912 1363 2938 1210 2938 
C 685 2938 326 2618 326 2150 
C 326 1792 531 1542 1075 1229 
L 1446 1018 
C 1670 890 1779 736 1779 538 
C 1779 256 1574 77 1248 77 
C 806 77 582 320 435 973 
L 333 973 
L 333 -26 
L 416 -26 
C 461 38 486 51 563 51 
C 634 51 704 38 858 0 
C 1037 -38 1197 -64 1331 -64 
C 1818 -64 2227 307 2227 755 
z
" transform="scale(0.015625)"/>
      </defs>
      <use xlink:href="#TeXGyreTermes-Regular-50"/>
      <use xlink:href="#TeXGyreTermes-Regular-68" transform="translate(55.599991 0)"/>
      <use xlink:href="#TeXGyreTermes-Regular-61" transform="translate(105.599976 0)"/>
      <use xlink:href="#TeXGyreTermes-Regular-73" transform="translate(149.999969 0)"/>
      <use xlink:href="#TeXGyreTermes-Regular-65" transform="translate(188.899963 0)"/>
      <use xlink:href="#TeXGyreTermes-Regular-6e" transform="translate(233.299957 0)"/>
      <use xlink:href="#TeXGyreTermes-Regular-72" transform="translate(283.299942 0)"/>
      <use xlink:href="#TeXGyreTermes-Regular-61" transform="translate(316.59993 0)"/>
      <use xlink:href="#TeXGyreTermes-Regular-6e" transform="translate(360.999924 0)"/>
      <use xlink:href="#TeXGyreTermes-Regular-64" transform="translate(410.999908 0)"/>
      <use xlink:href="#TeXGyreTermes-Regular-6f" transform="translate(460.999893 0)"/>
      <use xlink:href="#TeXGyreTermes-Regular-6d" transform="translate(510.999878 0)"/>
      <use xlink:href="#TeXGyreTermes-Regular-69" transform="translate(588.799866 0)"/>
      <use xlink:href="#TeXGyreTermes-Regular-73" transform="translate(616.599854 0)"/>
      <use xlink:href="#TeXGyreTermes-Regular-69" transform="translate(655.499847 0)"/>
      <use xlink:href="#TeXGyreTermes-Regular-65" transform="translate(683.299835 0)"/>
      <use xlink:href="#TeXGyreTermes-Regular-72" transform="translate(727.699829 0)"/>
      <use xlink:href="#TeXGyreTermes-Regular-75" transform="translate(760.999817 0)"/>
      <use xlink:href="#TeXGyreTermes-Regular-6e" transform="translate(810.999802 0)"/>
      <use xlink:href="#TeXGyreTermes-Regular-67" transform="translate(860.999786 0)"/>
      <use xlink:href="#TeXGyreTermes-Regular-2d" transform="translate(910.999771 0)"/>
      <use xlink:href="#TeXGyreTermes-Regular-44" transform="translate(944.299759 0)"/>
      <use xlink:href="#TeXGyreTermes-Regular-6f" transform="translate(1016.499741 0)"/>
      <use xlink:href="#TeXGyreTermes-Regular-6e" transform="translate(1066.499725 0)"/>
      <use xlink:href="#TeXGyreTermes-Regular-65" transform="translate(1116.49971 0)"/>
     </g>
    </g>
    <g id="line2d_54">
     <path d="M 81.241494 142.96875 
L 93.241494 142.96875 
L 105.241494 142.96875 
" style="fill: none; stroke: #e377c2; stroke-width: 1.5; stroke-linecap: square"/>
    </g>
    <g id="text_17">
     <!-- FracDiffTime -->
     <g transform="translate(114.841494 147.16875) scale(0.12 -0.12)">
      <use xlink:href="#TeXGyreTermes-Regular-46"/>
      <use xlink:href="#TeXGyreTermes-Regular-72" transform="translate(55.599991 0)"/>
      <use xlink:href="#TeXGyreTermes-Regular-61" transform="translate(88.899979 0)"/>
      <use xlink:href="#TeXGyreTermes-Regular-63" transform="translate(133.299973 0)"/>
      <use xlink:href="#TeXGyreTermes-Regular-44" transform="translate(177.699966 0)"/>
      <use xlink:href="#TeXGyreTermes-Regular-69" transform="translate(249.899948 0)"/>
      <use xlink:href="#TeXGyreTermes-Regular-66" transform="translate(277.699936 0)"/>
      <use xlink:href="#TeXGyreTermes-Regular-66" transform="translate(310.999924 0)"/>
      <use xlink:href="#TeXGyreTermes-Regular-54" transform="translate(344.299911 0)"/>
      <use xlink:href="#TeXGyreTermes-Regular-69" transform="translate(405.399902 0)"/>
      <use xlink:href="#TeXGyreTermes-Regular-6d" transform="translate(433.19989 0)"/>
      <use xlink:href="#TeXGyreTermes-Regular-65" transform="translate(510.999878 0)"/>
     </g>
    </g>
   </g>
  </g>
 </g>
 <defs>
  <clipPath id="p5d16696621">
   <rect x="70.441494" y="25.92" width="355.823341" height="257.74225"/>
  </clipPath>
 </defs>
</svg>
