<?xml version="1.0" encoding="utf-8" standalone="no"?>
<!DOCTYPE svg PUBLIC "-//W3C//DTD SVG 1.1//EN"
  "http://www.w3.org/Graphics/SVG/1.1/DTD/svg11.dtd">
<svg xmlns:xlink="http://www.w3.org/1999/xlink" width="460.8pt" height="345.6pt" viewBox="0 0 460.8 345.6" xmlns="http://www.w3.org/2000/svg" version="1.1">
 <metadata>
  <rdf:RDF xmlns:dc="http://purl.org/dc/elements/1.1/" xmlns:cc="http://creativecommons.org/ns#" xmlns:rdf="http://www.w3.org/1999/02/22-rdf-syntax-ns#">
   <cc:Work>
    <dc:type rdf:resource="http://purl.org/dc/dcmitype/StillImage"/>
    <dc:date>2025-11-23T18:31:05.486076</dc:date>
    <dc:format>image/svg+xml</dc:format>
    <dc:creator>
     <cc:Agent>
      <dc:title>Matplotlib v3.10.6, https://matplotlib.org/</dc:title>
     </cc:Agent>
    </dc:creator>
   </cc:Work>
  </rdf:RDF>
 </metadata>
 <defs>
  <style type="text/css">*{stroke-linejoin: round; stroke-linecap: butt}</style>
 </defs>
 <g id="figure_1">
  <g id="patch_1">
   <path d="M 0 345.6 
L 460.8 345.6 
L 460.8 0 
L 0 0 
z
" style="fill: #ffffff"/>
  </g>
  <g id="axes_1">
   <g id="patch_2">
    <path d="M 57.6 307.584 
L 414.72 307.584 
L 414.72 41.472 
L 57.6 41.472 
z
" style="fill: #ffffff"/>
   </g>
   <g id="matplotlib.axis_1">
    <g id="xtick_1">
     <g id="line2d_1">
      <defs>
       <path id="m15067a3412" d="M 0 0 
L 0 3.5 
" style="stroke: #000000; stroke-width: 0.8"/>
      </defs>
      <g>
       <use xlink:href="#m15067a3412" x="73.832727" y="307.584" style="stroke: #000000; stroke-width: 0.8"/>
      </g>
     </g>
     <g id="text_1">
      <!-- 0 -->
      <g transform="translate(70.651477 322.182437) scale(0.1 -0.1)">
       <defs>
        <path id="DejaVuSans-30" d="M 2034 4250 
Q 1547 4250 1301 3770 
Q 1056 3291 1056 2328 
Q 1056 1369 1301 889 
Q 1547 409 2034 409 
Q 2525 409 2770 889 
Q 3016 1369 3016 2328 
Q 3016 3291 2770 3770 
Q 2525 4250 2034 4250 
z
M 2034 4750 
Q 2819 4750 3233 4129 
Q 3647 3509 3647 2328 
Q 3647 1150 3233 529 
Q 2819 -91 2034 -91 
Q 1250 -91 836 529 
Q 422 1150 422 2328 
Q 422 3509 836 4129 
Q 1250 4750 2034 4750 
z
" transform="scale(0.015625)"/>
       </defs>
       <use xlink:href="#DejaVuSans-30"/>
      </g>
     </g>
    </g>
    <g id="xtick_2">
     <g id="line2d_2">
      <g>
       <use xlink:href="#m15067a3412" x="138.828632" y="307.584" style="stroke: #000000; stroke-width: 0.8"/>
      </g>
     </g>
     <g id="text_2">
      <!-- 200 -->
      <g transform="translate(129.284882 322.182437) scale(0.1 -0.1)">
       <defs>
        <path id="DejaVuSans-32" d="M 1228 531 
L 3431 531 
L 3431 0 
L 469 0 
L 469 531 
Q 828 903 1448 1529 
Q 2069 2156 2228 2338 
Q 2531 2678 2651 2914 
Q 2772 3150 2772 3378 
Q 2772 3750 2511 3984 
Q 2250 4219 1831 4219 
Q 1534 4219 1204 4116 
Q 875 4013 500 3803 
L 500 4441 
Q 881 4594 1212 4672 
Q 1544 4750 1819 4750 
Q 2544 4750 2975 4387 
Q 3406 4025 3406 3419 
Q 3406 3131 3298 2873 
Q 3191 2616 2906 2266 
Q 2828 2175 2409 1742 
Q 1991 1309 1228 531 
z
" transform="scale(0.015625)"/>
       </defs>
       <use xlink:href="#DejaVuSans-32"/>
       <use xlink:href="#DejaVuSans-30" transform="translate(63.623047 0)"/>
       <use xlink:href="#DejaVuSans-30" transform="translate(127.246094 0)"/>
      </g>
     </g>
    </g>
    <g id="xtick_3">
     <g id="line2d_3">
      <g>
       <use xlink:href="#m15067a3412" x="203.824537" y="307.584" style="stroke: #000000; stroke-width: 0.8"/>
      </g>
     </g>
     <g id="text_3">
      <!-- 400 -->
      <g transform="translate(194.280787 322.182437) scale(0.1 -0.1)">
       <defs>
        <path id="DejaVuSans-34" d="M 2419 4116 
L 825 1625 
L 2419 1625 
L 2419 4116 
z
M 2253 4666 
L 3047 4666 
L 3047 1625 
L 3713 1625 
L 3713 1100 
L 3047 1100 
L 3047 0 
L 2419 0 
L 2419 1100 
L 313 1100 
L 313 1709 
L 2253 4666 
z
" transform="scale(0.015625)"/>
       </defs>
       <use xlink:href="#DejaVuSans-34"/>
       <use xlink:href="#DejaVuSans-30" transform="translate(63.623047 0)"/>
       <use xlink:href="#DejaVuSans-30" transform="translate(127.246094 0)"/>
      </g>
     </g>
    </g>
    <g id="xtick_4">
     <g id="line2d_4">
      <g>
       <use xlink:href="#m15067a3412" x="268.820442" y="307.584" style="stroke: #000000; stroke-width: 0.8"/>
      </g>
     </g>
     <g id="text_4">
      <!-- 600 -->
      <g transform="translate(259.276692 322.182437) scale(0.1 -0.1)">
       <defs>
        <path id="DejaVuSans-36" d="M 2113 2584 
Q 1688 2584 1439 2293 
Q 1191 2003 1191 1497 
Q 1191 994 1439 701 
Q 1688 409 2113 409 
Q 2538 409 2786 701 
Q 3034 994 3034 1497 
Q 3034 2003 2786 2293 
Q 2538 2584 2113 2584 
z
M 3366 4563 
L 3366 3988 
Q 3128 4100 2886 4159 
Q 2644 4219 2406 4219 
Q 1781 4219 1451 3797 
Q 1122 3375 1075 2522 
Q 1259 2794 1537 2939 
Q 1816 3084 2150 3084 
Q 2853 3084 3261 2657 
Q 3669 2231 3669 1497 
Q 3669 778 3244 343 
Q 2819 -91 2113 -91 
Q 1303 -91 875 529 
Q 447 1150 447 2328 
Q 447 3434 972 4092 
Q 1497 4750 2381 4750 
Q 2619 4750 2861 4703 
Q 3103 4656 3366 4563 
z
" transform="scale(0.015625)"/>
       </defs>
       <use xlink:href="#DejaVuSans-36"/>
       <use xlink:href="#DejaVuSans-30" transform="translate(63.623047 0)"/>
       <use xlink:href="#DejaVuSans-30" transform="translate(127.246094 0)"/>
      </g>
     </g>
    </g>
    <g id="xtick_5">
     <g id="line2d_5">
      <g>
       <use xlink:href="#m15067a3412" x="333.816347" y="307.584" style="stroke: #000000; stroke-width: 0.8"/>
      </g>
     </g>
     <g id="text_5">
      <!-- 800 -->
      <g transform="translate(324.272597 322.182437) scale(0.1 -0.1)">
       <defs>
        <path id="DejaVuSans-38" d="M 2034 2216 
Q 1584 2216 1326 1975 
Q 1069 1734 1069 1313 
Q 1069 891 1326 650 
Q 1584 409 2034 409 
Q 2484 409 2743 651 
Q 3003 894 3003 1313 
Q 3003 1734 2745 1975 
Q 2488 2216 2034 2216 
z
M 1403 2484 
Q 997 2584 770 2862 
Q 544 3141 544 3541 
Q 544 4100 942 4425 
Q 1341 4750 2034 4750 
Q 2731 4750 3128 4425 
Q 3525 4100 3525 3541 
Q 3525 3141 3298 2862 
Q 3072 2584 2669 2484 
Q 3125 2378 3379 2068 
Q 3634 1759 3634 1313 
Q 3634 634 3220 271 
Q 2806 -91 2034 -91 
Q 1263 -91 848 271 
Q 434 634 434 1313 
Q 434 1759 690 2068 
Q 947 2378 1403 2484 
z
M 1172 3481 
Q 1172 3119 1398 2916 
Q 1625 2713 2034 2713 
Q 2441 2713 2670 2916 
Q 2900 3119 2900 3481 
Q 2900 3844 2670 4047 
Q 2441 4250 2034 4250 
Q 1625 4250 1398 4047 
Q 1172 3844 1172 3481 
z
" transform="scale(0.015625)"/>
       </defs>
       <use xlink:href="#DejaVuSans-38"/>
       <use xlink:href="#DejaVuSans-30" transform="translate(63.623047 0)"/>
       <use xlink:href="#DejaVuSans-30" transform="translate(127.246094 0)"/>
      </g>
     </g>
    </g>
    <g id="xtick_6">
     <g id="line2d_6">
      <g>
       <use xlink:href="#m15067a3412" x="398.812252" y="307.584" style="stroke: #000000; stroke-width: 0.8"/>
      </g>
     </g>
     <g id="text_6">
      <!-- 1000 -->
      <g transform="translate(386.087252 322.182437) scale(0.1 -0.1)">
       <defs>
        <path id="DejaVuSans-31" d="M 794 531 
L 1825 531 
L 1825 4091 
L 703 3866 
L 703 4441 
L 1819 4666 
L 2450 4666 
L 2450 531 
L 3481 531 
L 3481 0 
L 794 0 
L 794 531 
z
" transform="scale(0.015625)"/>
       </defs>
       <use xlink:href="#DejaVuSans-31"/>
       <use xlink:href="#DejaVuSans-30" transform="translate(63.623047 0)"/>
       <use xlink:href="#DejaVuSans-30" transform="translate(127.246094 0)"/>
       <use xlink:href="#DejaVuSans-30" transform="translate(190.869141 0)"/>
      </g>
     </g>
    </g>
   </g>
   <g id="matplotlib.axis_2">
    <g id="ytick_1">
     <g id="line2d_7">
      <defs>
       <path id="maf4c1758b5" d="M 0 0 
L -3.5 0 
" style="stroke: #000000; stroke-width: 0.8"/>
      </defs>
      <g>
       <use xlink:href="#maf4c1758b5" x="57.6" y="270.915991" style="stroke: #000000; stroke-width: 0.8"/>
      </g>
     </g>
     <g id="text_7">
      <!-- −15 -->
      <g transform="translate(29.495313 274.71521) scale(0.1 -0.1)">
       <defs>
        <path id="DejaVuSans-2212" d="M 678 2272 
L 4684 2272 
L 4684 1741 
L 678 1741 
L 678 2272 
z
" transform="scale(0.015625)"/>
        <path id="DejaVuSans-35" d="M 691 4666 
L 3169 4666 
L 3169 4134 
L 1269 4134 
L 1269 2991 
Q 1406 3038 1543 3061 
Q 1681 3084 1819 3084 
Q 2600 3084 3056 2656 
Q 3513 2228 3513 1497 
Q 3513 744 3044 326 
Q 2575 -91 1722 -91 
Q 1428 -91 1123 -41 
Q 819 9 494 109 
L 494 744 
Q 775 591 1075 516 
Q 1375 441 1709 441 
Q 2250 441 2565 725 
Q 2881 1009 2881 1497 
Q 2881 1984 2565 2268 
Q 2250 2553 1709 2553 
Q 1456 2553 1204 2497 
Q 953 2441 691 2322 
L 691 4666 
z
" transform="scale(0.015625)"/>
       </defs>
       <use xlink:href="#DejaVuSans-2212"/>
       <use xlink:href="#DejaVuSans-31" transform="translate(83.789062 0)"/>
       <use xlink:href="#DejaVuSans-35" transform="translate(147.412109 0)"/>
      </g>
     </g>
    </g>
    <g id="ytick_2">
     <g id="line2d_8">
      <g>
       <use xlink:href="#maf4c1758b5" x="57.6" y="232.746764" style="stroke: #000000; stroke-width: 0.8"/>
      </g>
     </g>
     <g id="text_8">
      <!-- −10 -->
      <g transform="translate(29.495313 236.545982) scale(0.1 -0.1)">
       <use xlink:href="#DejaVuSans-2212"/>
       <use xlink:href="#DejaVuSans-31" transform="translate(83.789062 0)"/>
       <use xlink:href="#DejaVuSans-30" transform="translate(147.412109 0)"/>
      </g>
     </g>
    </g>
    <g id="ytick_3">
     <g id="line2d_9">
      <g>
       <use xlink:href="#maf4c1758b5" x="57.6" y="194.577536" style="stroke: #000000; stroke-width: 0.8"/>
      </g>
     </g>
     <g id="text_9">
      <!-- −5 -->
      <g transform="translate(35.857813 198.376755) scale(0.1 -0.1)">
       <use xlink:href="#DejaVuSans-2212"/>
       <use xlink:href="#DejaVuSans-35" transform="translate(83.789062 0)"/>
      </g>
     </g>
    </g>
    <g id="ytick_4">
     <g id="line2d_10">
      <g>
       <use xlink:href="#maf4c1758b5" x="57.6" y="156.408308" style="stroke: #000000; stroke-width: 0.8"/>
      </g>
     </g>
     <g id="text_10">
      <!-- 0 -->
      <g transform="translate(44.2375 160.207527) scale(0.1 -0.1)">
       <use xlink:href="#DejaVuSans-30"/>
      </g>
     </g>
    </g>
    <g id="ytick_5">
     <g id="line2d_11">
      <g>
       <use xlink:href="#maf4c1758b5" x="57.6" y="118.239081" style="stroke: #000000; stroke-width: 0.8"/>
      </g>
     </g>
     <g id="text_11">
      <!-- 5 -->
      <g transform="translate(44.2375 122.038299) scale(0.1 -0.1)">
       <use xlink:href="#DejaVuSans-35"/>
      </g>
     </g>
    </g>
    <g id="ytick_6">
     <g id="line2d_12">
      <g>
       <use xlink:href="#maf4c1758b5" x="57.6" y="80.069853" style="stroke: #000000; stroke-width: 0.8"/>
      </g>
     </g>
     <g id="text_12">
      <!-- 10 -->
      <g transform="translate(37.875 83.869072) scale(0.1 -0.1)">
       <use xlink:href="#DejaVuSans-31"/>
       <use xlink:href="#DejaVuSans-30" transform="translate(63.623047 0)"/>
      </g>
     </g>
    </g>
    <g id="ytick_7">
     <g id="line2d_13">
      <g>
       <use xlink:href="#maf4c1758b5" x="57.6" y="41.900625" style="stroke: #000000; stroke-width: 0.8"/>
      </g>
     </g>
     <g id="text_13">
      <!-- 15 -->
      <g transform="translate(37.875 45.699844) scale(0.1 -0.1)">
       <use xlink:href="#DejaVuSans-31"/>
       <use xlink:href="#DejaVuSans-35" transform="translate(63.623047 0)"/>
      </g>
     </g>
    </g>
   </g>
   <g id="line2d_14">
    <path d="M 73.832727 143.975209 
L 74.157707 164.86907 
L 74.482686 152.118661 
L 74.807666 148.728082 
L 75.132645 159.534405 
L 75.457625 159.388713 
L 75.782604 166.899294 
L 76.107584 163.866772 
L 76.432563 165.150504 
L 76.757543 153.497481 
L 77.082523 155.629817 
L 77.407502 156.513093 
L 77.732482 148.330664 
L 78.057461 159.763232 
L 78.70742 152.249886 
L 79.0324 158.245216 
L 79.357379 158.283497 
L 79.682359 160.414878 
L 80.007338 150.526681 
L 80.332318 160.661102 
L 80.657297 150.354292 
L 80.982277 158.640112 
L 81.307256 150.180067 
L 81.632236 155.24972 
L 82.282195 143.209199 
L 83.257133 171.974297 
L 83.907093 154.375474 
L 84.232072 147.721919 
L 84.557052 145.999315 
L 84.882031 153.443547 
L 85.207011 144.575561 
L 85.53199 151.729436 
L 86.181949 148.610226 
L 86.506929 155.94019 
L 86.831908 150.333081 
L 87.156888 142.019044 
L 87.481867 142.261038 
L 87.806847 147.182485 
L 88.131826 156.111705 
L 88.456806 150.483196 
L 88.781785 141.498202 
L 89.106765 147.807031 
L 89.431744 146.780478 
L 89.756724 150.000499 
L 90.081704 154.989031 
L 90.406683 147.233055 
L 90.731663 144.465913 
L 91.056642 144.918261 
L 91.381622 143.610105 
L 91.706601 146.624247 
L 92.031581 142.15794 
L 92.35656 134.978081 
L 92.68154 157.210647 
L 93.331499 146.671139 
L 93.656478 137.659535 
L 93.981458 132.064841 
L 94.306437 145.5359 
L 94.631417 132.708247 
L 94.956396 139.273208 
L 95.281376 133.647329 
L 95.606355 133.464318 
L 95.931335 123.531404 
L 96.256314 135.782411 
L 96.581294 127.279784 
L 96.906274 136.357324 
L 97.231253 140.190034 
L 97.556233 129.30746 
L 97.881212 131.179079 
L 98.206192 139.516753 
L 98.531171 135.024209 
L 98.856151 132.382264 
L 99.18113 139.775768 
L 99.50611 131.04127 
L 99.831089 137.210007 
L 100.156069 123.683374 
L 100.481048 128.540262 
L 100.806028 127.958574 
L 101.131007 115.705532 
L 101.455987 111.220565 
L 101.780966 103.7247 
L 102.105946 106.165031 
L 102.430925 101.166062 
L 103.080885 105.364785 
L 103.730844 119.525327 
L 104.055823 115.172625 
L 104.380803 94.943876 
L 104.705782 107.662 
L 105.030762 115.668662 
L 105.355741 113.646319 
L 105.680721 113.291016 
L 106.0057 129.715869 
L 106.33068 134.297056 
L 106.655659 130.898807 
L 106.980639 124.167308 
L 107.305618 123.099031 
L 107.630598 118.830004 
L 107.955577 120.177445 
L 108.605536 130.204146 
L 108.930516 117.481023 
L 109.255495 120.952505 
L 109.580475 116.127397 
L 109.905455 125.209884 
L 110.230434 129.221068 
L 110.555414 127.879161 
L 110.880393 118.48695 
L 111.205373 121.468327 
L 111.530352 123.073749 
L 111.855332 119.296412 
L 112.180311 118.904265 
L 112.505291 120.964615 
L 112.83027 115.101202 
L 113.15525 121.5268 
L 113.480229 121.642158 
L 113.805209 122.27729 
L 114.130188 112.221229 
L 114.455168 115.970712 
L 114.780147 101.351355 
L 115.105127 114.694346 
L 115.430106 104.769549 
L 115.755086 105.705195 
L 116.080066 95.12064 
L 116.405045 98.526005 
L 116.730025 85.942784 
L 117.379984 97.981385 
L 117.704963 96.176446 
L 118.029943 96.664071 
L 118.354922 106.651548 
L 118.679902 111.511543 
L 119.004881 105.755998 
L 119.329861 113.74412 
L 119.65484 116.53245 
L 119.97982 123.740837 
L 120.304799 118.480382 
L 120.629779 117.724335 
L 120.954758 113.817829 
L 121.279738 112.898724 
L 121.604717 106.284599 
L 122.254676 113.513671 
L 122.579656 113.218413 
L 122.904636 118.956152 
L 123.229615 119.832979 
L 123.554595 121.738149 
L 123.879574 115.805792 
L 124.204554 113.81511 
L 124.854513 121.752541 
L 125.179492 112.493689 
L 125.504472 124.180518 
L 125.829451 123.210738 
L 126.154431 126.654201 
L 126.47941 113.915259 
L 127.454349 122.446056 
L 127.779328 128.460188 
L 128.104308 125.0259 
L 128.429287 124.129412 
L 128.754267 111.981778 
L 129.079247 107.077192 
L 129.404226 111.01317 
L 129.729206 116.740024 
L 130.054185 101.043222 
L 130.704144 119.474326 
L 131.029124 123.953274 
L 131.354103 116.731662 
L 132.004062 139.297597 
L 132.329042 127.775338 
L 132.654021 124.35248 
L 132.979001 116.461886 
L 133.30398 122.217308 
L 133.62896 116.383208 
L 133.953939 116.272708 
L 134.278919 123.200707 
L 134.603898 125.780878 
L 134.928878 132.286594 
L 135.253857 127.305065 
L 135.578837 119.549107 
L 135.903817 128.584396 
L 136.228796 125.31892 
L 136.553776 104.228021 
L 136.878755 104.377724 
L 137.203735 101.72517 
L 137.528714 109.816588 
L 137.853694 111.859843 
L 138.178673 120.34326 
L 138.503653 108.158643 
L 138.828632 121.062133 
L 139.153612 117.128537 
L 139.478591 109.2881 
L 139.803571 112.953828 
L 140.12855 114.948026 
L 140.45353 113.605835 
L 140.778509 101.411936 
L 141.103489 122.362797 
L 141.428468 129.210531 
L 142.078428 115.389505 
L 142.403407 97.539276 
L 142.728387 98.667543 
L 143.378346 115.000292 
L 143.703325 100.856939 
L 144.028305 91.630437 
L 144.353284 97.087561 
L 144.678264 96.969239 
L 145.003243 101.684686 
L 145.328223 92.5869 
L 145.653202 103.379598 
L 145.978182 104.945967 
L 146.303161 107.354537 
L 146.628141 103.094385 
L 146.95312 85.216759 
L 147.2781 90.313642 
L 147.603079 87.081851 
L 147.928059 92.607788 
L 148.253038 102.535681 
L 148.578018 100.813687 
L 148.902998 101.654789 
L 149.227977 101.025465 
L 149.552957 98.877281 
L 149.877936 100.226005 
L 150.202916 113.548583 
L 150.527895 95.921334 
L 151.177854 94.623873 
L 152.152793 114.733797 
L 152.477772 115.301891 
L 152.802752 120.322624 
L 153.127731 114.766115 
L 153.452711 105.494327 
L 153.77769 103.18246 
L 154.10267 97.056446 
L 154.427649 101.334106 
L 154.752629 93.821072 
L 155.077609 93.598258 
L 155.727568 77.463809 
L 156.052547 85.741466 
L 156.702506 76.195916 
L 157.027486 72.14902 
L 157.352465 69.963861 
L 158.002424 92.281109 
L 158.327404 90.828403 
L 158.652383 101.634147 
L 158.977363 96.407629 
L 159.302342 99.315661 
L 159.627322 105.676251 
L 159.952301 92.630307 
L 160.277281 93.502443 
L 160.60226 102.21936 
L 161.577199 107.337473 
L 161.902179 105.298672 
L 162.227158 107.4085 
L 162.552138 107.72007 
L 163.202097 89.380992 
L 163.852056 108.926443 
L 164.177035 96.921728 
L 164.502015 89.249493 
L 164.826994 85.139925 
L 165.151974 87.400458 
L 165.801933 89.580857 
L 166.126912 83.730902 
L 166.451892 82.559831 
L 166.776871 96.375776 
L 167.101851 95.37152 
L 167.75181 67.630872 
L 168.07679 89.591503 
L 168.726749 80.109272 
L 169.376708 82.189522 
L 169.701687 63.636289 
L 170.026667 69.914358 
L 170.351646 69.465764 
L 170.676626 67.330617 
L 171.001605 72.149999 
L 171.326585 63.864344 
L 171.651564 65.303964 
L 171.976544 57.13005 
L 172.301523 72.568553 
L 172.626503 59.520194 
L 172.951482 72.68258 
L 173.276462 71.592858 
L 173.601441 80.741309 
L 173.926421 68.631479 
L 174.2514 74.778686 
L 174.57638 60.685381 
L 174.90136 66.596399 
L 175.226339 70.081207 
L 175.551319 69.897507 
L 175.876298 66.183271 
L 176.201278 68.948657 
L 176.526257 58.127583 
L 176.851237 53.568 
L 177.176216 64.27354 
L 177.501196 60.20489 
L 177.826175 76.311951 
L 178.151155 79.004177 
L 178.476134 85.379713 
L 178.801114 85.271678 
L 179.451073 80.705358 
L 179.776052 79.925059 
L 180.101032 73.797821 
L 180.426011 80.412833 
L 181.075971 58.100405 
L 181.40095 64.247722 
L 181.72593 64.148217 
L 182.050909 62.284723 
L 182.375889 67.67241 
L 182.700868 70.613972 
L 183.025848 80.154394 
L 183.350827 77.880578 
L 183.675807 79.800783 
L 184.000786 76.125285 
L 184.325766 76.569524 
L 184.650745 91.50422 
L 184.975725 89.080043 
L 185.300704 83.411881 
L 185.625684 87.760502 
L 185.950663 81.61129 
L 186.275643 102.869815 
L 186.600622 95.922696 
L 186.925602 106.007419 
L 187.250581 100.422488 
L 187.575561 102.910639 
L 187.900541 110.939096 
L 188.22552 114.713531 
L 188.5505 109.738176 
L 188.875479 115.9819 
L 189.200459 114.622116 
L 189.525438 110.497907 
L 189.850418 113.10792 
L 190.175397 109.761373 
L 190.500377 110.280527 
L 190.825356 115.575264 
L 191.150336 103.455752 
L 191.475315 107.418174 
L 191.800295 107.956568 
L 192.125274 113.2271 
L 192.450254 110.427062 
L 192.775233 104.838487 
L 193.100213 112.670961 
L 193.425192 117.015807 
L 193.750172 99.847075 
L 194.075152 96.740237 
L 194.400131 83.740048 
L 195.05009 95.398373 
L 195.37507 89.739332 
L 195.700049 92.072571 
L 196.025029 89.976161 
L 196.350008 85.806544 
L 196.674988 96.895953 
L 196.999967 99.474916 
L 197.324947 105.721211 
L 197.974906 113.894178 
L 198.299885 95.036143 
L 198.624865 96.648576 
L 198.949844 107.195809 
L 199.599803 98.712422 
L 199.924783 112.81604 
L 200.249762 112.005497 
L 200.574742 107.495003 
L 200.899722 107.690142 
L 201.224701 110.673825 
L 201.549681 121.552602 
L 201.87466 122.519358 
L 202.19964 120.726716 
L 202.524619 106.527964 
L 202.849599 113.219026 
L 203.174578 102.505331 
L 203.499558 100.830357 
L 203.824537 113.956177 
L 204.149517 102.718609 
L 204.474496 97.573431 
L 204.799476 114.368886 
L 205.124455 105.312103 
L 205.449435 115.856977 
L 205.774414 130.026798 
L 206.099394 122.204913 
L 206.424373 117.181244 
L 206.749353 115.084151 
L 207.074333 123.379858 
L 207.399312 139.812644 
L 207.724292 135.270352 
L 208.049271 141.349766 
L 208.374251 144.010751 
L 208.69923 125.52789 
L 209.02421 121.754405 
L 209.349189 125.979644 
L 209.674169 132.964763 
L 209.999148 118.152505 
L 210.649107 107.460169 
L 210.974087 99.585392 
L 211.299066 99.841571 
L 211.624046 96.170237 
L 211.949025 107.041793 
L 212.274005 96.804685 
L 212.598984 105.397766 
L 212.923964 94.009742 
L 213.248943 98.030018 
L 213.573923 98.579184 
L 213.898903 108.973251 
L 214.223882 106.598848 
L 214.548862 102.893607 
L 214.873841 93.453673 
L 215.198821 94.754353 
L 215.84878 78.291585 
L 216.173759 90.120984 
L 216.498739 93.525918 
L 217.148698 103.768055 
L 217.473677 95.033257 
L 217.798657 92.087425 
L 218.123636 105.148835 
L 218.448616 112.331253 
L 219.098575 94.249976 
L 219.423554 93.082109 
L 219.748534 88.884859 
L 220.398493 111.440843 
L 220.723473 99.270383 
L 221.048452 108.326405 
L 221.373432 103.925353 
L 221.698411 97.748318 
L 222.023391 96.067385 
L 222.34837 92.120005 
L 222.67335 97.298231 
L 222.998329 94.058663 
L 223.323309 104.423729 
L 223.648288 99.094032 
L 223.973268 102.529726 
L 224.298247 110.143498 
L 224.623227 97.856209 
L 225.273186 117.746734 
L 225.598165 114.003342 
L 225.923145 115.298469 
L 226.248124 106.036257 
L 226.573104 131.470434 
L 226.898084 122.723655 
L 227.223063 131.425518 
L 227.548043 130.208377 
L 227.873022 139.517536 
L 228.198002 130.072211 
L 228.522981 125.596049 
L 229.17294 121.46376 
L 229.49792 129.036122 
L 229.822899 133.200382 
L 230.147879 130.017465 
L 230.472858 139.168419 
L 230.797838 142.361415 
L 231.122817 126.924193 
L 231.447797 130.535059 
L 231.772776 132.112303 
L 232.097756 136.092373 
L 232.422735 119.556249 
L 232.747715 115.078157 
L 233.722654 122.722253 
L 234.047633 130.007368 
L 234.372613 115.483715 
L 234.697592 129.358535 
L 235.022572 123.671608 
L 235.347551 124.828521 
L 235.672531 122.866412 
L 235.99751 117.976716 
L 236.32249 103.92221 
L 236.647469 116.340338 
L 236.972449 110.661751 
L 237.297428 108.529376 
L 237.622408 113.633327 
L 237.947387 127.892202 
L 238.272367 127.439871 
L 238.597346 114.296679 
L 238.922326 120.441349 
L 239.247305 117.74056 
L 239.572285 108.798828 
L 239.897265 93.678011 
L 240.222244 101.905675 
L 240.547224 104.407408 
L 240.872203 113.576915 
L 241.197183 106.721171 
L 241.522162 114.49741 
L 241.847142 100.936777 
L 242.172121 96.879371 
L 242.497101 99.91036 
L 242.82208 114.686976 
L 243.14706 112.827307 
L 243.472039 99.744542 
L 243.797019 108.852057 
L 244.121998 114.586338 
L 244.446978 115.572713 
L 244.771957 124.575255 
L 245.096937 110.474247 
L 245.421916 112.405673 
L 245.746896 109.053409 
L 246.071876 117.667724 
L 246.721835 105.032373 
L 247.046814 111.124531 
L 247.371794 126.009196 
L 247.696773 126.848827 
L 248.021753 114.165388 
L 248.346732 108.361205 
L 248.671712 96.527817 
L 248.996691 104.659595 
L 249.321671 107.535345 
L 249.64665 123.486971 
L 249.97163 110.180874 
L 250.296609 114.085744 
L 250.946568 134.425829 
L 251.271548 133.120672 
L 251.596527 135.388181 
L 251.921507 143.467859 
L 252.896446 138.024395 
L 253.221425 148.778714 
L 253.871384 130.498341 
L 254.196364 130.281845 
L 254.521343 125.01684 
L 255.171302 133.941539 
L 255.496282 124.329961 
L 255.821261 128.688489 
L 256.146241 123.416806 
L 256.47122 127.866734 
L 256.7962 129.80329 
L 257.121179 121.988538 
L 257.446159 121.979209 
L 257.771138 124.442007 
L 258.096118 108.70567 
L 258.421097 115.432269 
L 258.746077 104.131782 
L 259.071057 106.309593 
L 259.396036 117.006259 
L 260.045995 125.216113 
L 260.370975 138.68401 
L 260.695954 141.876822 
L 261.020934 142.188939 
L 261.345913 147.07935 
L 261.670893 142.671561 
L 261.995872 140.784519 
L 262.320852 142.637309 
L 262.645831 134.445751 
L 263.29579 124.897587 
L 263.62077 132.259926 
L 263.945749 132.482773 
L 264.270729 122.691741 
L 264.595708 120.704635 
L 264.920688 113.290133 
L 265.245667 114.886174 
L 265.570647 125.083898 
L 265.895627 120.577845 
L 266.220606 125.640699 
L 266.545586 136.336619 
L 267.195545 114.305288 
L 267.520524 121.138514 
L 267.845504 110.260027 
L 268.170483 108.711392 
L 268.495463 101.491243 
L 268.820442 101.622095 
L 269.145422 93.238633 
L 269.470401 92.101803 
L 270.12036 106.714087 
L 270.44534 106.390031 
L 270.770319 89.822729 
L 271.095299 105.752812 
L 271.420278 111.839634 
L 271.745258 112.139263 
L 272.070238 111.80053 
L 272.395217 110.309977 
L 272.720197 105.510353 
L 273.045176 106.053037 
L 273.370156 108.080428 
L 273.695135 104.886549 
L 274.020115 111.360875 
L 274.345094 110.164074 
L 274.670074 103.62867 
L 274.995053 104.421057 
L 275.320033 106.417258 
L 275.645012 115.810671 
L 275.969992 118.367126 
L 276.294971 114.492348 
L 276.619951 113.445377 
L 276.94493 118.194433 
L 277.26991 134.062686 
L 277.919869 121.375801 
L 278.244848 124.501009 
L 278.569828 123.475154 
L 278.894808 129.757858 
L 279.219787 127.162959 
L 279.869746 115.192902 
L 280.194726 119.820728 
L 280.519705 110.847906 
L 280.844685 117.15584 
L 281.169664 112.400368 
L 281.494644 114.856446 
L 281.819623 120.264658 
L 282.144603 129.365477 
L 282.469582 128.982034 
L 282.794562 116.69375 
L 283.119541 111.144431 
L 283.444521 111.33072 
L 283.7695 104.157709 
L 284.09448 91.46326 
L 284.419459 99.085802 
L 284.744439 94.759451 
L 285.069419 104.805874 
L 285.394398 105.488602 
L 285.719378 106.677807 
L 286.044357 104.497972 
L 286.369337 111.215317 
L 286.694316 121.855189 
L 287.019296 127.359446 
L 287.344275 122.031877 
L 287.669255 122.344463 
L 287.994234 128.168093 
L 288.319214 127.119529 
L 288.644193 119.493809 
L 288.969173 128.896087 
L 289.294152 126.064595 
L 289.944111 114.892869 
L 290.269091 116.095891 
L 290.59407 125.461316 
L 290.91905 126.814672 
L 291.244029 124.217325 
L 291.569009 135.537671 
L 291.893989 132.56858 
L 292.218968 115.631448 
L 292.543948 116.566167 
L 292.868927 127.52213 
L 293.193907 128.634756 
L 293.518886 146.325237 
L 293.843866 140.295487 
L 294.168845 140.548182 
L 294.493825 138.914262 
L 294.818804 141.953435 
L 295.143784 139.471138 
L 295.468763 134.450644 
L 295.793743 131.715685 
L 296.118722 132.265307 
L 296.443702 134.335661 
L 296.768681 137.713141 
L 297.093661 131.740182 
L 297.41864 134.983665 
L 297.74362 133.880293 
L 298.0686 136.652316 
L 298.718559 130.483587 
L 299.043538 130.769905 
L 299.368518 141.745059 
L 299.693497 144.293522 
L 300.018477 140.636447 
L 300.668436 145.329522 
L 300.993415 141.339318 
L 301.318395 144.200991 
L 301.643374 152.6144 
L 301.968354 155.822175 
L 302.293333 164.290069 
L 302.618313 150.620436 
L 303.593251 126.345037 
L 303.918231 127.649482 
L 304.24321 127.702762 
L 304.56819 128.703095 
L 304.89317 126.357442 
L 305.218149 119.660561 
L 305.543129 119.842214 
L 305.868108 122.350648 
L 306.193088 126.690297 
L 306.518067 128.369296 
L 306.843047 143.873283 
L 307.168026 149.76065 
L 307.493006 147.294178 
L 307.817985 145.694499 
L 308.142965 139.663115 
L 308.467944 149.340251 
L 308.792924 143.877156 
L 309.117903 151.487618 
L 309.442883 154.525942 
L 309.767862 159.703973 
L 310.092842 155.784144 
L 310.417821 160.277834 
L 310.742801 160.685213 
L 311.067781 161.826347 
L 311.39276 154.751932 
L 311.71774 152.478936 
L 312.042719 154.451211 
L 312.367699 143.644864 
L 312.692678 150.949111 
L 313.017658 140.210027 
L 313.342637 142.297863 
L 313.667617 150.28591 
L 314.317576 134.413287 
L 314.642555 136.2669 
L 315.292514 132.833544 
L 315.617494 127.334539 
L 315.942473 125.429518 
L 316.267453 130.4044 
L 316.592432 127.933905 
L 316.917412 121.35158 
L 317.242391 120.215538 
L 317.567371 125.85285 
L 317.892351 136.968592 
L 318.21733 128.105366 
L 318.54231 129.814594 
L 318.867289 133.715893 
L 319.192269 142.165285 
L 319.517248 136.07213 
L 319.842228 141.414868 
L 320.167207 133.541357 
L 320.492187 130.888588 
L 320.817166 135.187023 
L 321.142146 124.388684 
L 321.467125 120.634043 
L 321.792105 128.696093 
L 322.117084 125.330263 
L 322.442064 116.90112 
L 322.767043 116.896015 
L 323.092023 119.315899 
L 323.417002 126.893812 
L 323.741982 114.717109 
L 324.066962 119.458979 
L 324.391941 120.274485 
L 324.716921 132.69083 
L 325.0419 131.966021 
L 325.36688 122.693912 
L 325.691859 127.387749 
L 326.341818 114.423955 
L 326.666798 113.899105 
L 326.991777 118.845633 
L 327.316757 114.098039 
L 327.641736 95.253598 
L 327.966716 97.159357 
L 328.941654 113.389414 
L 329.266634 98.982514 
L 329.916593 104.270027 
L 330.241572 93.367636 
L 330.566552 92.614662 
L 330.891532 98.073611 
L 331.216511 91.152289 
L 331.541491 95.292322 
L 331.86647 94.169504 
L 332.19145 95.443173 
L 332.516429 107.289009 
L 332.841409 101.524031 
L 333.166388 92.76612 
L 333.491368 103.083129 
L 333.816347 95.598003 
L 334.141327 110.013129 
L 334.466306 117.693987 
L 334.791286 128.410319 
L 335.116265 126.32484 
L 335.441245 110.994331 
L 335.766224 124.777774 
L 336.091204 119.526409 
L 336.416183 117.414682 
L 336.741163 120.068354 
L 337.066143 130.884111 
L 337.391122 120.247137 
L 338.041081 109.514816 
L 338.366061 103.881897 
L 338.69104 100.986882 
L 339.01602 101.608239 
L 339.340999 112.219261 
L 339.665979 114.702352 
L 339.990958 123.071739 
L 340.315938 114.686551 
L 340.640917 111.377372 
L 340.965897 120.768676 
L 341.290876 123.356834 
L 341.615856 116.782125 
L 341.940835 122.631753 
L 342.265815 123.587873 
L 342.590794 102.808741 
L 342.915774 95.454818 
L 343.240753 96.741812 
L 343.565733 104.595626 
L 343.890713 93.225894 
L 344.215692 105.815114 
L 344.865651 87.029883 
L 345.190631 85.828512 
L 345.51561 107.980303 
L 345.84059 101.048133 
L 346.490549 102.41869 
L 347.140508 116.402268 
L 347.465487 109.586916 
L 347.790467 114.56351 
L 348.115446 106.214318 
L 348.440426 122.340168 
L 348.765405 121.735146 
L 349.090385 127.263178 
L 349.415364 124.785982 
L 349.740344 125.677721 
L 350.065324 114.23297 
L 350.390303 118.496432 
L 350.715283 130.093859 
L 351.040262 116.097875 
L 351.365242 115.492852 
L 351.690221 106.435969 
L 352.015201 89.974659 
L 352.34018 103.59637 
L 352.66516 105.630762 
L 352.990139 93.355421 
L 353.315119 100.187809 
L 353.640098 102.081809 
L 353.965078 94.049337 
L 354.615037 107.258384 
L 354.940016 99.255885 
L 355.264996 108.905968 
L 355.589975 98.894804 
L 355.914955 92.350858 
L 356.564914 106.384845 
L 356.889894 105.808228 
L 357.214873 108.793351 
L 357.539853 105.029467 
L 357.864832 98.885464 
L 358.189812 110.199293 
L 358.514791 108.560143 
L 358.839771 104.565308 
L 359.16475 104.877973 
L 359.48973 101.411403 
L 359.814709 103.010003 
L 360.139689 109.73254 
L 360.464668 113.322453 
L 360.789648 120.106665 
L 361.114627 116.324912 
L 361.439607 121.135409 
L 361.764586 119.981401 
L 362.089566 125.716151 
L 362.414545 116.269955 
L 362.739525 111.865664 
L 363.064505 101.189739 
L 363.389484 107.555572 
L 363.714464 104.636556 
L 364.039443 117.405604 
L 364.364423 96.222814 
L 365.014382 106.803706 
L 365.664341 91.21814 
L 365.98932 92.196332 
L 366.3143 91.07541 
L 366.639279 111.830365 
L 366.964259 93.725874 
L 367.289238 96.497587 
L 367.614218 104.449401 
L 367.939197 103.668117 
L 368.264177 105.993668 
L 368.589156 102.189195 
L 368.914136 111.377713 
L 369.239115 108.20219 
L 369.564095 126.028222 
L 369.889075 109.789324 
L 370.214054 131.301722 
L 370.539034 117.621635 
L 370.864013 120.045002 
L 371.188993 129.83637 
L 371.513972 114.828159 
L 371.838952 111.596111 
L 372.163931 125.419106 
L 372.488911 123.954886 
L 372.81389 136.34959 
L 373.13887 127.531137 
L 373.463849 128.061633 
L 373.788829 136.71487 
L 374.113808 121.411943 
L 374.438788 130.000056 
L 374.763767 144.614169 
L 375.088747 140.720113 
L 375.413726 139.071565 
L 375.738706 140.223121 
L 376.063686 140.919149 
L 376.388665 139.92986 
L 376.713645 159.358826 
L 377.038624 153.522723 
L 377.363604 150.81398 
L 377.688583 154.249183 
L 378.338542 142.732738 
L 378.663522 141.95197 
L 378.988501 135.158195 
L 379.313481 143.441371 
L 379.63846 137.298652 
L 379.96344 141.498351 
L 380.288419 134.246706 
L 380.613399 141.722113 
L 381.263358 121.468734 
L 381.588337 126.710076 
L 381.913317 117.226701 
L 382.238296 119.035694 
L 382.563276 105.30814 
L 382.888256 111.269612 
L 383.213235 114.956031 
L 383.863194 109.007033 
L 384.513153 128.189627 
L 385.488092 107.07514 
L 385.813071 103.23642 
L 386.138051 109.812605 
L 386.46303 103.708269 
L 386.78801 107.865866 
L 387.112989 108.403609 
L 387.437969 116.192912 
L 387.762948 116.054532 
L 388.087928 120.039829 
L 388.737887 140.578886 
L 389.387846 135.774143 
L 389.712826 146.921899 
L 390.037805 131.442639 
L 390.362785 132.29847 
L 390.687764 140.490841 
L 391.012744 128.7298 
L 391.337723 124.830071 
L 391.662703 137.636862 
L 391.987682 143.333456 
L 392.312662 141.740787 
L 392.637641 141.505612 
L 393.2876 128.856732 
L 393.61258 113.322475 
L 393.937559 119.389419 
L 394.262539 136.817656 
L 394.587518 138.474234 
L 394.912498 140.94198 
L 395.237477 133.809018 
L 395.562457 140.292738 
L 395.887437 131.382823 
L 396.212416 130.680704 
L 396.537396 117.491888 
L 396.862375 109.799305 
L 397.187355 131.345992 
L 397.512334 128.874823 
L 397.837314 134.926133 
L 398.162293 136.117616 
L 398.487273 143.412945 
L 398.487273 143.412945 
" clip-path="url(#pe9c809811f)" style="fill: none; stroke: #1f77b4; stroke-width: 1.5; stroke-linecap: square"/>
   </g>
   <g id="line2d_15">
    <path d="M 73.832727 147.707228 
L 74.157707 143.027924 
L 74.482686 152.168527 
L 74.807666 149.941382 
L 75.457625 168.421917 
L 75.782604 170.677551 
L 76.107584 163.094861 
L 76.432563 159.252649 
L 76.757543 162.619599 
L 77.082523 168.312004 
L 77.407502 159.052666 
L 77.732482 154.312678 
L 78.057461 154.269597 
L 78.382441 164.250661 
L 78.70742 162.287126 
L 79.0324 155.578787 
L 79.357379 159.392521 
L 79.682359 164.759721 
L 80.007338 176.464794 
L 80.332318 178.148912 
L 80.657297 183.109581 
L 80.982277 181.246756 
L 81.307256 176.065823 
L 81.632236 166.387736 
L 82.607174 175.09612 
L 82.932154 190.040215 
L 83.257133 186.437507 
L 83.582113 186.14877 
L 83.907093 194.451596 
L 84.232072 193.720419 
L 84.557052 204.62446 
L 84.882031 198.526661 
L 85.207011 199.047965 
L 85.53199 198.256094 
L 85.85697 195.810977 
L 86.181949 200.297972 
L 86.506929 197.506595 
L 86.831908 193.706866 
L 87.156888 180.203671 
L 87.481867 188.540385 
L 87.806847 189.507974 
L 88.131826 184.558478 
L 88.456806 190.390151 
L 88.781785 201.64928 
L 89.431744 206.995358 
L 89.756724 192.056509 
L 90.081704 189.208745 
L 90.406683 197.963894 
L 90.731663 181.496627 
L 91.056642 177.567208 
L 91.381622 182.315688 
L 91.706601 174.374977 
L 92.35656 177.797184 
L 93.006519 156.426525 
L 93.331499 167.064989 
L 94.306437 177.084681 
L 94.631417 177.632985 
L 94.956396 189.335092 
L 95.281376 181.136399 
L 95.606355 184.296336 
L 95.931335 182.780672 
L 96.256314 185.939519 
L 96.581294 183.564756 
L 96.906274 185.46047 
L 97.231253 200.863388 
L 97.556233 200.147046 
L 97.881212 186.068618 
L 98.206192 192.291542 
L 98.531171 193.451538 
L 98.856151 179.304459 
L 99.18113 182.096769 
L 99.50611 183.355877 
L 99.831089 175.501056 
L 100.156069 176.858837 
L 100.481048 169.38946 
L 100.806028 173.99299 
L 101.455987 187.394496 
L 101.780966 167.92901 
L 102.105946 169.964657 
L 102.430925 187.128816 
L 102.755905 179.317975 
L 103.080885 191.92943 
L 103.405864 192.485928 
L 103.730844 196.213391 
L 104.055823 183.818542 
L 104.380803 191.317703 
L 104.705782 187.954448 
L 105.030762 189.289449 
L 105.355741 176.108933 
L 106.0057 168.914226 
L 106.33068 185.906544 
L 106.655659 183.804009 
L 106.980639 171.485104 
L 107.305618 186.325493 
L 107.630598 188.829121 
L 107.955577 193.082516 
L 108.280557 198.881019 
L 108.605536 195.00122 
L 108.930516 192.787711 
L 109.255495 179.240718 
L 109.580475 179.417257 
L 109.905455 175.916074 
L 110.230434 178.633481 
L 110.555414 171.080771 
L 110.880393 172.952645 
L 111.205373 155.772591 
L 111.530352 161.594071 
L 111.855332 160.410401 
L 112.505291 147.002548 
L 112.83027 162.404975 
L 113.15525 163.517295 
L 113.480229 160.453127 
L 113.805209 161.676833 
L 114.130188 192.723938 
L 114.455168 181.572282 
L 114.780147 163.147597 
L 115.430106 169.374316 
L 115.755086 185.976722 
L 116.080066 180.65214 
L 116.405045 187.085593 
L 116.730025 188.605527 
L 117.055004 180.817257 
L 117.379984 180.378499 
L 117.704963 181.4684 
L 118.029943 179.609893 
L 118.354922 162.030624 
L 118.679902 170.110734 
L 119.004881 169.825054 
L 119.329861 174.327509 
L 119.65484 169.199753 
L 119.97982 168.271947 
L 120.304799 179.315852 
L 120.629779 182.086798 
L 120.954758 183.575857 
L 121.279738 177.037147 
L 121.604717 176.687726 
L 121.929697 181.757829 
L 122.254676 178.489354 
L 122.579656 177.913756 
L 122.904636 171.309123 
L 123.229615 161.285726 
L 123.554595 159.15846 
L 123.879574 169.013927 
L 124.204554 169.381717 
L 124.529533 175.342217 
L 124.854513 192.202016 
L 125.179492 180.411785 
L 125.504472 189.198992 
L 125.829451 190.587826 
L 126.47941 178.942299 
L 126.80439 184.026348 
L 127.129369 186.612596 
L 127.454349 185.288643 
L 127.779328 184.929638 
L 128.104308 205.513937 
L 128.429287 183.268893 
L 128.754267 182.976995 
L 129.079247 168.579221 
L 129.404226 172.780798 
L 129.729206 169.287061 
L 130.054185 171.37347 
L 130.379165 171.12995 
L 130.704144 183.839526 
L 131.029124 175.53682 
L 131.354103 185.303304 
L 131.679083 186.220084 
L 132.004062 186.143418 
L 132.329042 167.334869 
L 132.654021 182.203326 
L 132.979001 183.195775 
L 133.30398 167.967323 
L 133.953939 182.298259 
L 134.278919 176.904681 
L 134.603898 182.559162 
L 134.928878 184.992704 
L 135.253857 176.672301 
L 135.578837 165.34664 
L 135.903817 165.605626 
L 136.228796 166.402162 
L 136.553776 168.031178 
L 136.878755 150.945428 
L 137.203735 153.48237 
L 137.528714 161.567459 
L 137.853694 159.287261 
L 138.178673 165.684416 
L 138.503653 152.458575 
L 139.153612 159.528489 
L 139.478591 172.850927 
L 139.803571 175.623409 
L 140.12855 177.304825 
L 140.45353 174.931869 
L 140.778509 170.34038 
L 141.103489 177.133969 
L 141.428468 171.753533 
L 141.753448 176.712354 
L 142.078428 175.411021 
L 142.403407 176.155909 
L 142.728387 176.59417 
L 143.053366 174.560327 
L 143.378346 185.195827 
L 143.703325 183.176318 
L 144.028305 192.833294 
L 144.353284 197.243244 
L 144.678264 195.088637 
L 145.003243 184.624446 
L 145.328223 178.891486 
L 145.653202 176.348344 
L 145.978182 189.090452 
L 146.303161 182.023404 
L 146.628141 197.864262 
L 146.95312 200.558354 
L 147.2781 208.191187 
L 147.603079 210.926504 
L 147.928059 200.972722 
L 148.253038 197.456062 
L 148.578018 191.388793 
L 148.902998 189.753748 
L 149.227977 199.996608 
L 149.552957 194.203578 
L 149.877936 184.181059 
L 150.202916 186.372078 
L 150.527895 179.393826 
L 150.852875 191.935657 
L 151.177854 185.654485 
L 151.502834 171.441906 
L 151.827813 179.118003 
L 152.152793 176.157487 
L 152.477772 168.545482 
L 152.802752 178.168999 
L 153.127731 181.121052 
L 153.452711 186.848829 
L 154.10267 186.188091 
L 154.752629 190.622626 
L 155.077609 191.75227 
L 155.402588 181.999874 
L 155.727568 182.295754 
L 156.052547 176.885271 
L 156.377527 194.358346 
L 156.702506 181.522148 
L 157.027486 179.961758 
L 157.352465 187.997338 
L 157.677445 185.285692 
L 158.002424 176.312694 
L 158.327404 182.496767 
L 158.652383 185.923559 
L 158.977363 177.007007 
L 159.302342 182.701101 
L 159.627322 177.296153 
L 160.60226 195.951391 
L 161.252219 204.448058 
L 161.577199 188.51687 
L 161.902179 186.11767 
L 162.227158 172.916024 
L 162.877117 171.098731 
L 163.202097 156.449512 
L 163.527076 168.825763 
L 163.852056 167.01644 
L 164.177035 170.275208 
L 164.826994 179.977262 
L 165.151974 176.430135 
L 165.476953 175.240496 
L 165.801933 178.188123 
L 166.451892 173.99474 
L 166.776871 171.787187 
L 167.101851 167.333696 
L 167.42683 175.55331 
L 167.75181 171.005809 
L 168.07679 181.535545 
L 168.401769 184.615551 
L 168.726749 176.295981 
L 169.051728 177.560851 
L 169.376708 176.44308 
L 169.701687 176.088827 
L 170.351646 153.270217 
L 170.676626 155.757947 
L 171.001605 164.071319 
L 171.326585 157.273329 
L 171.976544 168.785336 
L 172.301523 167.512444 
L 172.626503 169.434482 
L 172.951482 175.201915 
L 173.276462 173.107755 
L 173.601441 182.615026 
L 173.926421 175.87754 
L 174.2514 185.110503 
L 174.57638 182.240632 
L 175.551319 167.235596 
L 175.876298 178.589007 
L 176.201278 174.947062 
L 176.526257 175.186319 
L 176.851237 166.202336 
L 177.176216 160.953846 
L 177.501196 166.024026 
L 177.826175 161.786581 
L 178.151155 165.674304 
L 178.476134 167.66766 
L 178.801114 165.33716 
L 179.126093 169.032751 
L 179.451073 156.454345 
L 179.776052 162.641088 
L 180.101032 166.231357 
L 180.426011 161.243866 
L 180.750991 157.993978 
L 181.075971 161.194508 
L 181.40095 156.500205 
L 181.72593 161.049262 
L 182.375889 148.735468 
L 183.025848 155.672545 
L 183.350827 159.915958 
L 183.675807 145.882121 
L 184.000786 153.128139 
L 184.325766 141.145851 
L 184.650745 140.411933 
L 184.975725 149.734452 
L 185.300704 145.226972 
L 185.950663 160.190591 
L 186.600622 153.178162 
L 186.925602 157.909547 
L 187.250581 143.933302 
L 187.575561 166.772089 
L 187.900541 169.122826 
L 188.22552 168.553549 
L 188.5505 174.099306 
L 188.875479 194.999103 
L 189.525438 165.624718 
L 189.850418 157.753603 
L 190.175397 147.026766 
L 190.500377 155.072715 
L 190.825356 145.364837 
L 191.150336 152.414384 
L 191.475315 147.117924 
L 191.800295 158.449793 
L 192.125274 150.152038 
L 192.450254 153.556695 
L 192.775233 153.128811 
L 193.100213 155.729405 
L 193.750172 135.609943 
L 194.075152 152.154259 
L 194.400131 158.849422 
L 194.725111 146.893642 
L 195.05009 156.382889 
L 195.37507 151.768793 
L 195.700049 140.422214 
L 196.350008 157.123668 
L 196.674988 163.701643 
L 196.999967 155.392958 
L 197.324947 159.92678 
L 197.649926 156.398168 
L 197.974906 155.093704 
L 198.299885 154.517581 
L 198.624865 157.853226 
L 198.949844 168.918056 
L 199.274824 158.896467 
L 199.599803 158.304277 
L 200.249762 161.64963 
L 200.574742 152.643762 
L 200.899722 152.102447 
L 201.224701 159.330974 
L 201.87466 164.960343 
L 202.19964 165.080233 
L 202.524619 167.509806 
L 202.849599 168.397389 
L 203.174578 180.875747 
L 203.499558 163.727805 
L 203.824537 167.150925 
L 204.149517 173.551835 
L 204.474496 169.078686 
L 204.799476 171.190706 
L 205.124455 167.506835 
L 205.449435 158.718204 
L 205.774414 158.880424 
L 206.099394 160.979852 
L 206.424373 175.415169 
L 206.749353 174.815942 
L 207.074333 168.009375 
L 207.399312 172.207557 
L 207.724292 174.746234 
L 208.374251 173.304004 
L 208.69923 156.925984 
L 209.02421 159.976616 
L 209.349189 164.467917 
L 209.999148 155.527256 
L 210.324128 147.010209 
L 210.649107 153.221949 
L 211.299066 180.580996 
L 211.624046 167.123993 
L 211.949025 161.599866 
L 212.274005 153.44918 
L 212.923964 164.171752 
L 213.248943 144.902347 
L 213.573923 140.340776 
L 213.898903 144.295692 
L 214.223882 145.365087 
L 214.548862 136.265067 
L 214.873841 142.606124 
L 215.5238 161.804824 
L 215.84878 163.762593 
L 216.173759 159.669188 
L 216.498739 151.266904 
L 216.823718 148.902793 
L 217.148698 141.535977 
L 217.473677 153.074548 
L 217.798657 157.475509 
L 218.123636 165.484948 
L 218.448616 168.84451 
L 218.773595 180.004401 
L 219.098575 184.812185 
L 219.423554 187.11931 
L 219.748534 181.373369 
L 220.073514 181.139144 
L 220.398493 169.203937 
L 220.723473 178.663023 
L 221.048452 173.702206 
L 221.373432 184.672388 
L 221.698411 171.326374 
L 222.023391 171.671316 
L 222.34837 164.947946 
L 222.998329 158.280755 
L 223.323309 150.508552 
L 223.973268 179.34839 
L 224.298247 161.610937 
L 224.623227 154.136151 
L 224.948206 166.53233 
L 225.273186 146.230848 
L 225.598165 160.637575 
L 225.923145 153.540381 
L 226.573104 164.150048 
L 226.898084 151.741581 
L 227.223063 160.852556 
L 227.548043 164.347155 
L 227.873022 165.741107 
L 228.522981 155.390873 
L 228.847961 164.934355 
L 229.17294 154.760862 
L 229.49792 160.597254 
L 229.822899 169.537508 
L 230.147879 171.774933 
L 230.797838 185.237243 
L 231.122817 183.223607 
L 231.447797 175.412592 
L 231.772776 184.60648 
L 232.097756 167.343081 
L 232.422735 176.77952 
L 232.747715 178.83164 
L 233.072695 189.455261 
L 233.397674 203.715851 
L 233.722654 205.237427 
L 234.047633 201.684283 
L 234.372613 194.674245 
L 234.697592 197.957281 
L 235.022572 186.960544 
L 235.347551 185.148573 
L 235.672531 190.086362 
L 235.99751 186.499771 
L 236.32249 187.908729 
L 236.647469 199.652893 
L 236.972449 186.364317 
L 237.297428 195.444724 
L 237.622408 209.14047 
L 237.947387 197.18794 
L 238.272367 190.24889 
L 238.597346 195.395229 
L 238.922326 187.101096 
L 239.247305 192.773175 
L 239.572285 183.622614 
L 239.897265 192.276528 
L 240.222244 196.024695 
L 240.547224 195.217868 
L 240.872203 196.096607 
L 241.197183 200.19438 
L 241.522162 202.290942 
L 241.847142 214.888813 
L 242.172121 205.13951 
L 242.497101 201.249495 
L 243.14706 184.37601 
L 243.797019 201.456317 
L 244.121998 189.279775 
L 244.446978 184.46514 
L 244.771957 187.687959 
L 245.096937 183.28473 
L 245.421916 187.826019 
L 245.746896 201.003322 
L 246.071876 204.871166 
L 246.396855 211.084105 
L 246.721835 213.62088 
L 247.046814 194.432647 
L 247.371794 182.470804 
L 247.696773 182.406933 
L 248.021753 170.400726 
L 248.671712 196.605106 
L 248.996691 192.440955 
L 249.321671 195.911676 
L 249.64665 201.047838 
L 249.97163 196.002753 
L 250.296609 195.29985 
L 250.621589 198.295677 
L 250.946568 190.413186 
L 251.271548 186.440588 
L 251.596527 188.940511 
L 251.921507 179.549951 
L 252.246486 179.581361 
L 252.571466 182.820836 
L 252.896446 180.988726 
L 253.221425 172.271355 
L 253.546405 174.190055 
L 253.871384 186.852522 
L 254.196364 182.254171 
L 254.521343 194.274499 
L 254.846323 176.702842 
L 255.171302 176.698457 
L 255.496282 179.859184 
L 255.821261 185.019593 
L 256.146241 184.383724 
L 256.47122 192.181717 
L 256.7962 189.407157 
L 257.121179 183.044794 
L 257.446159 191.118934 
L 257.771138 189.354373 
L 258.096118 181.672961 
L 258.421097 177.474239 
L 258.746077 184.609818 
L 259.071057 177.66131 
L 259.396036 164.997229 
L 259.721016 164.145221 
L 260.045995 156.262318 
L 260.695954 164.617405 
L 261.020934 165.433798 
L 261.345913 167.837616 
L 261.670893 181.271443 
L 261.995872 168.657315 
L 262.320852 160.581151 
L 262.645831 175.615522 
L 262.970811 176.706478 
L 263.29579 166.915307 
L 263.62077 171.194397 
L 263.945749 150.892045 
L 264.270729 170.008158 
L 264.595708 162.74172 
L 265.245667 176.569963 
L 265.570647 160.673837 
L 265.895627 168.224387 
L 266.220606 163.373156 
L 266.545586 175.236057 
L 266.870565 173.864376 
L 267.520524 166.269019 
L 267.845504 161.438169 
L 268.170483 182.556135 
L 268.495463 169.416412 
L 268.820442 174.573624 
L 269.145422 173.98902 
L 269.470401 166.997435 
L 269.795381 177.722025 
L 270.12036 163.018166 
L 270.770319 172.222713 
L 271.095299 175.063357 
L 271.420278 183.802601 
L 271.745258 184.733722 
L 272.070238 167.525771 
L 272.395217 179.411467 
L 272.720197 177.590296 
L 273.045176 190.383526 
L 273.370156 185.95836 
L 273.695135 184.30145 
L 274.020115 185.4069 
L 274.345094 185.868143 
L 274.670074 176.446631 
L 274.995053 172.18001 
L 275.320033 175.260503 
L 275.645012 165.6094 
L 275.969992 170.265251 
L 276.294971 162.312223 
L 276.619951 163.036983 
L 276.94493 164.875118 
L 277.26991 170.340576 
L 277.594889 183.700241 
L 277.919869 172.100913 
L 278.244848 188.65981 
L 278.569828 181.857938 
L 278.894808 186.049257 
L 279.219787 187.244077 
L 279.544767 186.737675 
L 279.869746 202.746971 
L 280.194726 210.325309 
L 280.519705 207.493402 
L 281.169664 187.512856 
L 281.494644 195.626326 
L 281.819623 195.120993 
L 282.144603 196.273008 
L 282.469582 205.459837 
L 282.794562 210.988758 
L 283.119541 204.167226 
L 283.444521 202.491323 
L 283.7695 193.528228 
L 284.09448 190.970777 
L 284.419459 199.49847 
L 284.744439 192.99721 
L 285.394398 198.441719 
L 285.719378 197.820656 
L 286.044357 196.730095 
L 286.369337 202.820226 
L 286.694316 193.762612 
L 287.019296 192.26431 
L 287.344275 192.362861 
L 287.669255 195.629591 
L 287.994234 208.728677 
L 288.319214 196.999367 
L 288.644193 200.679295 
L 288.969173 198.618154 
L 289.294152 200.688451 
L 289.619132 201.029734 
L 289.944111 199.504286 
L 290.269091 192.20508 
L 290.59407 189.264553 
L 290.91905 189.939524 
L 291.244029 189.656473 
L 291.569009 186.952153 
L 291.893989 196.110247 
L 292.218968 191.79351 
L 292.543948 189.505464 
L 292.868927 203.362344 
L 293.193907 184.344785 
L 293.518886 196.201192 
L 293.843866 184.080071 
L 294.168845 185.082557 
L 294.818804 196.753584 
L 295.143784 189.866762 
L 295.468763 188.239173 
L 295.793743 187.63905 
L 296.118722 181.272231 
L 296.443702 184.374639 
L 296.768681 198.990257 
L 297.093661 197.654599 
L 297.41864 187.822552 
L 298.0686 195.027653 
L 298.393579 198.876786 
L 298.718559 206.966478 
L 299.043538 204.370098 
L 299.368518 212.130987 
L 299.693497 216.014411 
L 300.018477 227.144578 
L 300.343456 216.648813 
L 300.668436 212.34578 
L 300.993415 205.793592 
L 301.318395 212.266274 
L 301.643374 210.690501 
L 301.968354 195.555446 
L 302.293333 193.359918 
L 302.618313 196.840102 
L 302.943292 197.730476 
L 303.268272 210.027504 
L 303.593251 217.290606 
L 303.918231 214.931819 
L 304.24321 206.455511 
L 304.56819 203.823003 
L 304.89317 195.723678 
L 305.218149 192.25409 
L 305.543129 199.553035 
L 305.868108 177.025854 
L 306.193088 184.181311 
L 306.518067 197.351519 
L 306.843047 190.479107 
L 307.493006 200.426214 
L 307.817985 195.155 
L 308.142965 201.383022 
L 308.467944 200.216745 
L 308.792924 206.801886 
L 309.117903 206.013049 
L 309.442883 212.570282 
L 309.767862 209.462367 
L 310.092842 208.947937 
L 310.417821 211.453112 
L 310.742801 215.574614 
L 311.067781 217.886911 
L 311.39276 222.715544 
L 311.71774 225.170837 
L 312.042719 222.146113 
L 312.367699 209.04842 
L 313.017658 226.422412 
L 313.342637 223.269821 
L 313.667617 218.540253 
L 313.992596 216.061052 
L 314.317576 222.537656 
L 314.642555 224.553031 
L 314.967535 224.024904 
L 315.292514 219.954775 
L 315.617494 211.780353 
L 315.942473 206.774092 
L 316.267453 211.918104 
L 316.592432 207.906768 
L 316.917412 205.885103 
L 317.242391 217.816226 
L 317.567371 206.849516 
L 317.892351 213.541613 
L 318.54231 204.063648 
L 318.867289 207.345951 
L 319.192269 202.032827 
L 319.517248 204.798989 
L 319.842228 214.297868 
L 320.167207 218.478617 
L 320.492187 216.957495 
L 320.817166 220.428958 
L 321.142146 215.442085 
L 321.467125 213.862684 
L 321.792105 193.97694 
L 322.117084 199.518179 
L 322.442064 196.987949 
L 322.767043 182.075785 
L 323.417002 205.177 
L 323.741982 211.122633 
L 324.066962 208.738103 
L 324.391941 197.727968 
L 324.716921 198.838053 
L 325.0419 211.856946 
L 325.36688 236.344318 
L 325.691859 229.14135 
L 326.016839 236.300994 
L 326.341818 226.502203 
L 326.666798 222.096366 
L 327.316757 228.729208 
L 327.641736 221.088711 
L 327.966716 223.068738 
L 328.291695 228.103887 
L 328.616675 223.187497 
L 328.941654 225.523621 
L 329.266634 228.725519 
L 330.241572 234.520211 
L 330.566552 233.815482 
L 330.891532 240.224106 
L 331.541491 247.793123 
L 331.86647 246.788283 
L 332.19145 232.381572 
L 332.841409 227.593412 
L 333.166388 236.201935 
L 333.491368 239.179948 
L 333.816347 229.955388 
L 334.141327 234.232689 
L 334.466306 251.948071 
L 334.791286 239.17763 
L 335.116265 246.498474 
L 335.766224 231.219197 
L 336.091204 232.395678 
L 336.416183 226.282538 
L 336.741163 226.74211 
L 337.066143 236.686572 
L 337.391122 225.697443 
L 337.716102 224.210769 
L 338.041081 234.043969 
L 338.366061 229.81852 
L 338.69104 237.171429 
L 339.01602 229.781407 
L 339.665979 243.148821 
L 339.990958 234.935472 
L 340.315938 244.290911 
L 340.640917 227.284655 
L 340.965897 242.524592 
L 341.290876 236.883318 
L 341.615856 226.066726 
L 341.940835 245.038354 
L 342.265815 250.040691 
L 342.915774 244.234095 
L 343.240753 245.210823 
L 343.565733 247.382052 
L 343.890713 253.98118 
L 344.215692 257.543803 
L 344.540672 268.185499 
L 344.865651 253.473036 
L 345.190631 257.640835 
L 345.84059 268.501822 
L 346.490549 265.918573 
L 346.815528 269.64435 
L 347.140508 253.336464 
L 347.465487 265.539819 
L 347.790467 254.310384 
L 348.115446 254.759815 
L 348.440426 262.330892 
L 348.765405 262.471986 
L 349.090385 259.483202 
L 349.415364 264.002705 
L 349.740344 264.019486 
L 350.065324 262.510431 
L 350.390303 261.589328 
L 350.715283 274.230159 
L 351.040262 274.648442 
L 351.365242 273.540279 
L 351.690221 286.694578 
L 352.015201 286.025385 
L 352.34018 295.488 
L 352.66516 284.660773 
L 352.990139 269.785688 
L 353.315119 282.249937 
L 353.640098 278.808647 
L 353.965078 280.742398 
L 354.290057 270.107377 
L 354.615037 265.367558 
L 355.264996 275.097032 
L 355.589975 275.448908 
L 355.914955 266.928716 
L 356.239934 270.022376 
L 356.564914 276.275782 
L 356.889894 280.251308 
L 357.214873 270.005868 
L 357.539853 265.02463 
L 357.864832 269.396732 
L 358.189812 276.675454 
L 358.839771 253.310076 
L 359.16475 276.530795 
L 359.48973 274.087204 
L 359.814709 270.54526 
L 360.464668 257.012556 
L 360.789648 268.457361 
L 361.114627 267.253923 
L 361.439607 259.272427 
L 361.764586 260.036257 
L 362.089566 248.441921 
L 362.414545 245.057574 
L 362.739525 250.921464 
L 363.064505 253.247007 
L 363.389484 253.108789 
L 363.714464 240.346467 
L 364.039443 251.915699 
L 364.364423 255.712971 
L 364.689402 257.077322 
L 365.014382 270.297506 
L 365.339361 261.644189 
L 365.98932 259.059262 
L 366.3143 253.143827 
L 366.639279 243.428308 
L 366.964259 245.999428 
L 367.289238 241.975525 
L 367.614218 226.60678 
L 367.939197 234.420626 
L 368.264177 228.096997 
L 368.589156 226.383815 
L 368.914136 236.605638 
L 369.239115 236.174177 
L 369.564095 240.872608 
L 369.889075 251.471142 
L 370.214054 243.640161 
L 370.539034 244.120043 
L 370.864013 242.99009 
L 371.188993 244.028573 
L 371.513972 240.559771 
L 371.838952 231.231286 
L 372.163931 234.425998 
L 372.488911 246.505547 
L 372.81389 240.278933 
L 373.13887 249.026168 
L 373.463849 253.827696 
L 373.788829 247.55985 
L 374.113808 234.078083 
L 374.763767 247.837778 
L 375.088747 236.751168 
L 375.413726 247.180997 
L 375.738706 244.703853 
L 376.388665 258.437449 
L 376.713645 253.247748 
L 377.038624 259.157292 
L 377.363604 270.312343 
L 377.688583 268.907085 
L 378.013563 268.370279 
L 378.338542 263.561959 
L 378.663522 265.5424 
L 378.988501 264.116702 
L 379.313481 267.817223 
L 379.63846 247.043234 
L 379.96344 243.687769 
L 380.288419 260.722258 
L 380.613399 251.981986 
L 381.263358 266.102117 
L 381.588337 266.712606 
L 381.913317 272.447539 
L 382.238296 265.904143 
L 382.563276 252.482785 
L 382.888256 249.874563 
L 383.213235 242.789688 
L 383.538215 248.137742 
L 383.863194 239.88621 
L 384.188174 241.060594 
L 384.513153 246.094703 
L 384.838133 247.037998 
L 385.163112 259.093665 
L 385.488092 258.704619 
L 385.813071 258.574336 
L 386.138051 269.679637 
L 386.46303 258.847363 
L 386.78801 262.70153 
L 387.112989 258.9568 
L 387.437969 271.753296 
L 387.762948 270.811721 
L 388.087928 276.640307 
L 388.412907 279.958081 
L 389.062867 267.33237 
L 389.387846 266.079455 
L 389.712826 266.994134 
L 390.037805 262.806551 
L 390.687764 246.42134 
L 391.012744 248.593907 
L 391.337723 244.380522 
L 391.662703 232.605829 
L 391.987682 227.946929 
L 392.312662 228.266321 
L 392.637641 232.683869 
L 392.962621 226.18888 
L 393.2876 227.048262 
L 393.61258 236.512169 
L 393.937559 231.276551 
L 394.262539 230.24681 
L 394.587518 244.346162 
L 394.912498 228.342339 
L 395.237477 223.719832 
L 395.562457 239.113253 
L 395.887437 245.761338 
L 396.212416 247.003517 
L 396.862375 263.599763 
L 397.187355 264.056241 
L 397.512334 266.402175 
L 397.837314 252.104109 
L 398.162293 251.642318 
L 398.487273 260.000444 
L 398.487273 260.000444 
" clip-path="url(#pe9c809811f)" style="fill: none; stroke: #ff7f0e; stroke-width: 1.5; stroke-linecap: square"/>
   </g>
   <g id="patch_3">
    <path d="M 57.6 307.584 
L 57.6 41.472 
" style="fill: none; stroke: #000000; stroke-width: 0.8; stroke-linejoin: miter; stroke-linecap: square"/>
   </g>
   <g id="patch_4">
    <path d="M 414.72 307.584 
L 414.72 41.472 
" style="fill: none; stroke: #000000; stroke-width: 0.8; stroke-linejoin: miter; stroke-linecap: square"/>
   </g>
   <g id="patch_5">
    <path d="M 57.6 307.584 
L 414.72 307.584 
" style="fill: none; stroke: #000000; stroke-width: 0.8; stroke-linejoin: miter; stroke-linecap: square"/>
   </g>
   <g id="patch_6">
    <path d="M 57.6 41.472 
L 414.72 41.472 
" style="fill: none; stroke: #000000; stroke-width: 0.8; stroke-linejoin: miter; stroke-linecap: square"/>
   </g>
  </g>
 </g>
 <defs>
  <clipPath id="pe9c809811f">
   <rect x="57.6" y="41.472" width="357.12" height="266.112"/>
  </clipPath>
 </defs>
</svg>
