<?xml version="1.0" encoding="utf-8" standalone="no"?>
<!DOCTYPE svg PUBLIC "-//W3C//DTD SVG 1.1//EN"
  "http://www.w3.org/Graphics/SVG/1.1/DTD/svg11.dtd">
<svg xmlns:xlink="http://www.w3.org/1999/xlink" width="460.8pt" height="345.6pt" viewBox="0 0 460.8 345.6" xmlns="http://www.w3.org/2000/svg" version="1.1">
 <metadata>
  <rdf:RDF xmlns:dc="http://purl.org/dc/elements/1.1/" xmlns:cc="http://creativecommons.org/ns#" xmlns:rdf="http://www.w3.org/1999/02/22-rdf-syntax-ns#">
   <cc:Work>
    <dc:type rdf:resource="http://purl.org/dc/dcmitype/StillImage"/>
    <dc:date>2025-11-23T18:31:07.269104</dc:date>
    <dc:format>image/svg+xml</dc:format>
    <dc:creator>
     <cc:Agent>
      <dc:title>Matplotlib v3.10.6, https://matplotlib.org/</dc:title>
     </cc:Agent>
    </dc:creator>
   </cc:Work>
  </rdf:RDF>
 </metadata>
 <defs>
  <style type="text/css">*{stroke-linejoin: round; stroke-linecap: butt}</style>
 </defs>
 <g id="figure_1">
  <g id="patch_1">
   <path d="M 0 345.6 
L 460.8 345.6 
L 460.8 0 
L 0 0 
z
" style="fill: #ffffff"/>
  </g>
  <g id="axes_1">
   <g id="patch_2">
    <path d="M 57.6 307.584 
L 414.72 307.584 
L 414.72 41.472 
L 57.6 41.472 
z
" style="fill: #ffffff"/>
   </g>
   <g id="matplotlib.axis_1">
    <g id="xtick_1">
     <g id="line2d_1">
      <defs>
       <path id="mca3758aed5" d="M 0 0 
L 0 3.5 
" style="stroke: #000000; stroke-width: 0.8"/>
      </defs>
      <g>
       <use xlink:href="#mca3758aed5" x="73.832727" y="307.584" style="stroke: #000000; stroke-width: 0.8"/>
      </g>
     </g>
     <g id="text_1">
      <!-- 0 -->
      <g transform="translate(70.651477 322.182437) scale(0.1 -0.1)">
       <defs>
        <path id="DejaVuSans-30" d="M 2034 4250 
Q 1547 4250 1301 3770 
Q 1056 3291 1056 2328 
Q 1056 1369 1301 889 
Q 1547 409 2034 409 
Q 2525 409 2770 889 
Q 3016 1369 3016 2328 
Q 3016 3291 2770 3770 
Q 2525 4250 2034 4250 
z
M 2034 4750 
Q 2819 4750 3233 4129 
Q 3647 3509 3647 2328 
Q 3647 1150 3233 529 
Q 2819 -91 2034 -91 
Q 1250 -91 836 529 
Q 422 1150 422 2328 
Q 422 3509 836 4129 
Q 1250 4750 2034 4750 
z
" transform="scale(0.015625)"/>
       </defs>
       <use xlink:href="#DejaVuSans-30"/>
      </g>
     </g>
    </g>
    <g id="xtick_2">
     <g id="line2d_2">
      <g>
       <use xlink:href="#mca3758aed5" x="138.828632" y="307.584" style="stroke: #000000; stroke-width: 0.8"/>
      </g>
     </g>
     <g id="text_2">
      <!-- 200 -->
      <g transform="translate(129.284882 322.182437) scale(0.1 -0.1)">
       <defs>
        <path id="DejaVuSans-32" d="M 1228 531 
L 3431 531 
L 3431 0 
L 469 0 
L 469 531 
Q 828 903 1448 1529 
Q 2069 2156 2228 2338 
Q 2531 2678 2651 2914 
Q 2772 3150 2772 3378 
Q 2772 3750 2511 3984 
Q 2250 4219 1831 4219 
Q 1534 4219 1204 4116 
Q 875 4013 500 3803 
L 500 4441 
Q 881 4594 1212 4672 
Q 1544 4750 1819 4750 
Q 2544 4750 2975 4387 
Q 3406 4025 3406 3419 
Q 3406 3131 3298 2873 
Q 3191 2616 2906 2266 
Q 2828 2175 2409 1742 
Q 1991 1309 1228 531 
z
" transform="scale(0.015625)"/>
       </defs>
       <use xlink:href="#DejaVuSans-32"/>
       <use xlink:href="#DejaVuSans-30" transform="translate(63.623047 0)"/>
       <use xlink:href="#DejaVuSans-30" transform="translate(127.246094 0)"/>
      </g>
     </g>
    </g>
    <g id="xtick_3">
     <g id="line2d_3">
      <g>
       <use xlink:href="#mca3758aed5" x="203.824537" y="307.584" style="stroke: #000000; stroke-width: 0.8"/>
      </g>
     </g>
     <g id="text_3">
      <!-- 400 -->
      <g transform="translate(194.280787 322.182437) scale(0.1 -0.1)">
       <defs>
        <path id="DejaVuSans-34" d="M 2419 4116 
L 825 1625 
L 2419 1625 
L 2419 4116 
z
M 2253 4666 
L 3047 4666 
L 3047 1625 
L 3713 1625 
L 3713 1100 
L 3047 1100 
L 3047 0 
L 2419 0 
L 2419 1100 
L 313 1100 
L 313 1709 
L 2253 4666 
z
" transform="scale(0.015625)"/>
       </defs>
       <use xlink:href="#DejaVuSans-34"/>
       <use xlink:href="#DejaVuSans-30" transform="translate(63.623047 0)"/>
       <use xlink:href="#DejaVuSans-30" transform="translate(127.246094 0)"/>
      </g>
     </g>
    </g>
    <g id="xtick_4">
     <g id="line2d_4">
      <g>
       <use xlink:href="#mca3758aed5" x="268.820442" y="307.584" style="stroke: #000000; stroke-width: 0.8"/>
      </g>
     </g>
     <g id="text_4">
      <!-- 600 -->
      <g transform="translate(259.276692 322.182437) scale(0.1 -0.1)">
       <defs>
        <path id="DejaVuSans-36" d="M 2113 2584 
Q 1688 2584 1439 2293 
Q 1191 2003 1191 1497 
Q 1191 994 1439 701 
Q 1688 409 2113 409 
Q 2538 409 2786 701 
Q 3034 994 3034 1497 
Q 3034 2003 2786 2293 
Q 2538 2584 2113 2584 
z
M 3366 4563 
L 3366 3988 
Q 3128 4100 2886 4159 
Q 2644 4219 2406 4219 
Q 1781 4219 1451 3797 
Q 1122 3375 1075 2522 
Q 1259 2794 1537 2939 
Q 1816 3084 2150 3084 
Q 2853 3084 3261 2657 
Q 3669 2231 3669 1497 
Q 3669 778 3244 343 
Q 2819 -91 2113 -91 
Q 1303 -91 875 529 
Q 447 1150 447 2328 
Q 447 3434 972 4092 
Q 1497 4750 2381 4750 
Q 2619 4750 2861 4703 
Q 3103 4656 3366 4563 
z
" transform="scale(0.015625)"/>
       </defs>
       <use xlink:href="#DejaVuSans-36"/>
       <use xlink:href="#DejaVuSans-30" transform="translate(63.623047 0)"/>
       <use xlink:href="#DejaVuSans-30" transform="translate(127.246094 0)"/>
      </g>
     </g>
    </g>
    <g id="xtick_5">
     <g id="line2d_5">
      <g>
       <use xlink:href="#mca3758aed5" x="333.816347" y="307.584" style="stroke: #000000; stroke-width: 0.8"/>
      </g>
     </g>
     <g id="text_5">
      <!-- 800 -->
      <g transform="translate(324.272597 322.182437) scale(0.1 -0.1)">
       <defs>
        <path id="DejaVuSans-38" d="M 2034 2216 
Q 1584 2216 1326 1975 
Q 1069 1734 1069 1313 
Q 1069 891 1326 650 
Q 1584 409 2034 409 
Q 2484 409 2743 651 
Q 3003 894 3003 1313 
Q 3003 1734 2745 1975 
Q 2488 2216 2034 2216 
z
M 1403 2484 
Q 997 2584 770 2862 
Q 544 3141 544 3541 
Q 544 4100 942 4425 
Q 1341 4750 2034 4750 
Q 2731 4750 3128 4425 
Q 3525 4100 3525 3541 
Q 3525 3141 3298 2862 
Q 3072 2584 2669 2484 
Q 3125 2378 3379 2068 
Q 3634 1759 3634 1313 
Q 3634 634 3220 271 
Q 2806 -91 2034 -91 
Q 1263 -91 848 271 
Q 434 634 434 1313 
Q 434 1759 690 2068 
Q 947 2378 1403 2484 
z
M 1172 3481 
Q 1172 3119 1398 2916 
Q 1625 2713 2034 2713 
Q 2441 2713 2670 2916 
Q 2900 3119 2900 3481 
Q 2900 3844 2670 4047 
Q 2441 4250 2034 4250 
Q 1625 4250 1398 4047 
Q 1172 3844 1172 3481 
z
" transform="scale(0.015625)"/>
       </defs>
       <use xlink:href="#DejaVuSans-38"/>
       <use xlink:href="#DejaVuSans-30" transform="translate(63.623047 0)"/>
       <use xlink:href="#DejaVuSans-30" transform="translate(127.246094 0)"/>
      </g>
     </g>
    </g>
    <g id="xtick_6">
     <g id="line2d_6">
      <g>
       <use xlink:href="#mca3758aed5" x="398.812252" y="307.584" style="stroke: #000000; stroke-width: 0.8"/>
      </g>
     </g>
     <g id="text_6">
      <!-- 1000 -->
      <g transform="translate(386.087252 322.182437) scale(0.1 -0.1)">
       <defs>
        <path id="DejaVuSans-31" d="M 794 531 
L 1825 531 
L 1825 4091 
L 703 3866 
L 703 4441 
L 1819 4666 
L 2450 4666 
L 2450 531 
L 3481 531 
L 3481 0 
L 794 0 
L 794 531 
z
" transform="scale(0.015625)"/>
       </defs>
       <use xlink:href="#DejaVuSans-31"/>
       <use xlink:href="#DejaVuSans-30" transform="translate(63.623047 0)"/>
       <use xlink:href="#DejaVuSans-30" transform="translate(127.246094 0)"/>
       <use xlink:href="#DejaVuSans-30" transform="translate(190.869141 0)"/>
      </g>
     </g>
    </g>
   </g>
   <g id="matplotlib.axis_2">
    <g id="ytick_1">
     <g id="line2d_7">
      <defs>
       <path id="m6ca2a4ec28" d="M 0 0 
L -3.5 0 
" style="stroke: #000000; stroke-width: 0.8"/>
      </defs>
      <g>
       <use xlink:href="#m6ca2a4ec28" x="57.6" y="299.365088" style="stroke: #000000; stroke-width: 0.8"/>
      </g>
     </g>
     <g id="text_7">
      <!-- −15 -->
      <g transform="translate(29.495313 303.164307) scale(0.1 -0.1)">
       <defs>
        <path id="DejaVuSans-2212" d="M 678 2272 
L 4684 2272 
L 4684 1741 
L 678 1741 
L 678 2272 
z
" transform="scale(0.015625)"/>
        <path id="DejaVuSans-35" d="M 691 4666 
L 3169 4666 
L 3169 4134 
L 1269 4134 
L 1269 2991 
Q 1406 3038 1543 3061 
Q 1681 3084 1819 3084 
Q 2600 3084 3056 2656 
Q 3513 2228 3513 1497 
Q 3513 744 3044 326 
Q 2575 -91 1722 -91 
Q 1428 -91 1123 -41 
Q 819 9 494 109 
L 494 744 
Q 775 591 1075 516 
Q 1375 441 1709 441 
Q 2250 441 2565 725 
Q 2881 1009 2881 1497 
Q 2881 1984 2565 2268 
Q 2250 2553 1709 2553 
Q 1456 2553 1204 2497 
Q 953 2441 691 2322 
L 691 4666 
z
" transform="scale(0.015625)"/>
       </defs>
       <use xlink:href="#DejaVuSans-2212"/>
       <use xlink:href="#DejaVuSans-31" transform="translate(83.789062 0)"/>
       <use xlink:href="#DejaVuSans-35" transform="translate(147.412109 0)"/>
      </g>
     </g>
    </g>
    <g id="ytick_2">
     <g id="line2d_8">
      <g>
       <use xlink:href="#m6ca2a4ec28" x="57.6" y="252.049754" style="stroke: #000000; stroke-width: 0.8"/>
      </g>
     </g>
     <g id="text_8">
      <!-- −10 -->
      <g transform="translate(29.495313 255.848973) scale(0.1 -0.1)">
       <use xlink:href="#DejaVuSans-2212"/>
       <use xlink:href="#DejaVuSans-31" transform="translate(83.789062 0)"/>
       <use xlink:href="#DejaVuSans-30" transform="translate(147.412109 0)"/>
      </g>
     </g>
    </g>
    <g id="ytick_3">
     <g id="line2d_9">
      <g>
       <use xlink:href="#m6ca2a4ec28" x="57.6" y="204.73442" style="stroke: #000000; stroke-width: 0.8"/>
      </g>
     </g>
     <g id="text_9">
      <!-- −5 -->
      <g transform="translate(35.857813 208.533639) scale(0.1 -0.1)">
       <use xlink:href="#DejaVuSans-2212"/>
       <use xlink:href="#DejaVuSans-35" transform="translate(83.789062 0)"/>
      </g>
     </g>
    </g>
    <g id="ytick_4">
     <g id="line2d_10">
      <g>
       <use xlink:href="#m6ca2a4ec28" x="57.6" y="157.419086" style="stroke: #000000; stroke-width: 0.8"/>
      </g>
     </g>
     <g id="text_10">
      <!-- 0 -->
      <g transform="translate(44.2375 161.218304) scale(0.1 -0.1)">
       <use xlink:href="#DejaVuSans-30"/>
      </g>
     </g>
    </g>
    <g id="ytick_5">
     <g id="line2d_11">
      <g>
       <use xlink:href="#m6ca2a4ec28" x="57.6" y="110.103752" style="stroke: #000000; stroke-width: 0.8"/>
      </g>
     </g>
     <g id="text_11">
      <!-- 5 -->
      <g transform="translate(44.2375 113.90297) scale(0.1 -0.1)">
       <use xlink:href="#DejaVuSans-35"/>
      </g>
     </g>
    </g>
    <g id="ytick_6">
     <g id="line2d_12">
      <g>
       <use xlink:href="#m6ca2a4ec28" x="57.6" y="62.788417" style="stroke: #000000; stroke-width: 0.8"/>
      </g>
     </g>
     <g id="text_12">
      <!-- 10 -->
      <g transform="translate(37.875 66.587636) scale(0.1 -0.1)">
       <use xlink:href="#DejaVuSans-31"/>
       <use xlink:href="#DejaVuSans-30" transform="translate(63.623047 0)"/>
      </g>
     </g>
    </g>
   </g>
   <g id="line2d_13">
    <path d="M 73.832727 142.006769 
L 74.157707 167.907215 
L 74.482686 152.101553 
L 74.807666 147.898524 
L 75.132645 161.294258 
L 75.457625 161.113655 
L 75.782604 170.42392 
L 76.107584 166.664746 
L 76.432563 168.256086 
L 76.757543 153.810766 
L 77.082523 156.454053 
L 77.407502 157.548979 
L 77.732482 147.405877 
L 78.057461 161.577916 
L 78.70742 152.264223 
L 79.0324 159.696153 
L 79.357379 159.743607 
L 79.682359 162.385709 
L 80.007338 150.128104 
L 80.332318 162.690933 
L 80.657297 149.914406 
L 80.982277 160.185674 
L 81.307256 149.698434 
L 81.632236 155.982877 
L 82.282195 141.057207 
L 83.257133 176.714995 
L 83.907093 154.899143 
L 84.232072 146.651265 
L 84.557052 144.51589 
L 84.882031 153.743908 
L 85.207011 142.750977 
L 85.53199 151.619063 
L 86.181949 147.752428 
L 86.506929 156.838797 
L 86.831908 149.888113 
L 87.156888 139.581868 
L 87.481867 139.881848 
L 87.806847 145.982572 
L 88.131826 157.05141 
L 88.456806 150.074198 
L 88.781785 138.936222 
L 89.106765 146.756771 
L 89.431744 145.484236 
L 89.756724 149.475837 
L 90.081704 155.659721 
L 90.406683 146.04292 
L 90.731663 142.612228 
L 91.056642 143.174541 
L 91.381622 141.553064 
L 91.706601 145.288804 
L 92.031581 139.748947 
L 92.35656 130.844154 
L 92.68154 158.398148 
L 93.331499 145.325854 
L 93.656478 134.151789 
L 93.981458 127.215888 
L 94.306437 143.912931 
L 94.631417 128.00972 
L 94.956396 136.14725 
L 95.281376 129.172038 
L 95.606355 128.943494 
L 95.931335 116.627873 
L 96.256314 131.813936 
L 96.581294 121.271959 
L 96.906274 132.52468 
L 97.231253 137.274858 
L 97.556233 123.785481 
L 97.881212 126.106324 
L 98.206192 136.444393 
L 98.531171 130.880801 
L 98.856151 127.610754 
L 99.18113 136.77769 
L 99.50611 125.947847 
L 99.831089 133.592064 
L 100.156069 116.822836 
L 100.481048 122.844783 
L 100.806028 122.127314 
L 101.131007 106.941638 
L 101.455987 101.38803 
L 101.780966 92.102048 
L 102.105946 95.133883 
L 102.430925 88.94488 
L 103.080885 94.164001 
L 103.730844 111.740917 
L 104.055823 106.35837 
L 104.380803 81.293745 
L 104.705782 97.071173 
L 105.030762 107.010941 
L 105.355741 104.51884 
L 105.680721 104.093998 
L 106.0057 124.469972 
L 106.33068 130.162935 
L 106.655659 125.965664 
L 106.980639 117.63801 
L 107.305618 116.331703 
L 107.630598 111.059018 
L 107.955577 112.748923 
L 108.605536 125.224034 
L 108.930516 109.473202 
L 109.255495 113.796708 
L 109.580475 107.836476 
L 109.905455 119.119419 
L 110.230434 124.119659 
L 110.555414 122.483381 
L 110.880393 110.87127 
L 111.205373 114.598532 
L 111.530352 116.622679 
L 111.855332 111.976386 
L 112.180311 111.531083 
L 112.505291 114.126251 
L 112.83027 106.902127 
L 113.15525 114.911774 
L 113.480229 115.098575 
L 113.805209 115.932559 
L 114.130188 103.51517 
L 114.455168 108.210624 
L 114.780147 90.136693 
L 115.105127 106.726997 
L 115.430106 94.47333 
L 115.755086 95.6846 
L 116.080066 82.615079 
L 116.405045 86.89164 
L 116.730025 71.349999 
L 117.379984 86.395166 
L 117.704963 84.226231 
L 118.029943 84.905521 
L 118.354922 97.365589 
L 118.679902 103.475082 
L 119.004881 96.429594 
L 119.329861 106.424374 
L 119.65484 109.974393 
L 119.97982 119.003365 
L 120.304799 112.577241 
L 120.629779 111.741847 
L 120.954758 107.002905 
L 121.279738 105.967114 
L 121.604717 97.872713 
L 122.254676 107.042142 
L 122.579656 106.775101 
L 122.904636 113.985085 
L 123.229615 115.169838 
L 123.554595 117.629756 
L 123.879574 110.375565 
L 124.204554 108.008244 
L 124.854513 118.045432 
L 125.179492 106.66817 
L 125.504472 121.256095 
L 125.829451 120.156487 
L 126.154431 124.526549 
L 126.47941 108.834921 
L 127.454349 119.711171 
L 127.779328 127.267774 
L 128.104308 123.113059 
L 128.429287 122.105211 
L 128.754267 107.150464 
L 129.079247 101.176277 
L 129.404226 106.160726 
L 129.729206 113.36515 
L 130.054185 94.01226 
L 130.704144 117.076597 
L 131.029124 122.742623 
L 131.354103 113.904463 
L 132.004062 142.114401 
L 132.329042 127.955756 
L 132.654021 123.840349 
L 132.979001 114.19295 
L 133.30398 121.464878 
L 133.62896 114.371798 
L 133.953939 114.376139 
L 134.278919 123.107576 
L 134.603898 126.448534 
L 134.928878 134.654186 
L 135.253857 128.620723 
L 135.578837 119.146326 
L 135.903817 130.484822 
L 136.228796 126.571644 
L 136.553776 100.560579 
L 136.878755 100.878838 
L 137.203735 97.723529 
L 137.528714 107.886843 
L 137.853694 110.554605 
L 138.178673 121.206028 
L 138.503653 106.236288 
L 138.828632 122.36594 
L 139.153612 117.622156 
L 139.478591 108.033767 
L 139.803571 112.706791 
L 140.12855 115.307844 
L 140.45353 113.773392 
L 140.778509 98.786093 
L 141.103489 124.883825 
L 141.428468 133.50014 
L 142.078428 116.615759 
L 142.403407 94.609231 
L 142.728387 96.130346 
L 143.378346 116.620754 
L 143.703325 99.208487 
L 144.028305 87.88839 
L 144.353284 94.769106 
L 144.678264 94.737342 
L 145.003243 100.699935 
L 145.328223 89.542133 
L 145.653202 103.041911 
L 145.978182 105.103847 
L 146.303161 108.213768 
L 146.628141 103.057343 
L 146.95312 81.018388 
L 147.2781 87.456538 
L 147.603079 83.570354 
L 147.928059 90.536698 
L 148.253038 102.954279 
L 148.578018 100.929274 
L 148.902998 102.080993 
L 149.227977 101.411329 
L 149.552957 98.857979 
L 149.877936 100.64039 
L 150.202916 117.26636 
L 150.527895 95.524746 
L 150.852875 94.648322 
L 151.177854 94.128353 
L 152.152793 119.365753 
L 152.477772 120.170883 
L 152.802752 126.500558 
L 153.127731 119.721753 
L 153.452711 108.340775 
L 153.77769 105.587965 
L 154.10267 98.107269 
L 154.427649 103.521181 
L 154.752629 94.321159 
L 155.077609 94.156019 
L 155.727568 74.378559 
L 156.052547 84.752281 
L 156.702506 73.143994 
L 157.027486 68.243172 
L 157.352465 65.646852 
L 158.002424 93.527748 
L 158.327404 91.835086 
L 158.652383 105.343336 
L 158.977363 98.980915 
L 159.302342 102.702433 
L 159.627322 110.702308 
L 159.952301 94.648461 
L 160.277281 95.852391 
L 160.60226 106.782932 
L 161.577199 113.512335 
L 161.902179 111.115155 
L 162.227158 113.860328 
L 162.552138 114.375554 
L 163.202097 91.906793 
L 163.852056 116.414047 
L 164.177035 101.67468 
L 164.502015 92.304498 
L 164.826994 87.350436 
L 165.151974 90.292525 
L 165.801933 93.275654 
L 166.126912 86.164397 
L 166.451892 84.849588 
L 166.776871 102.115317 
L 167.101851 101.011232 
L 167.75181 66.906862 
L 168.07679 94.26798 
L 168.726749 82.781238 
L 169.376708 85.61611 
L 169.701687 62.745484 
L 170.026667 70.65721 
L 170.351646 70.232699 
L 170.676626 67.717928 
L 171.001605 73.826649 
L 171.326585 63.692034 
L 171.651564 65.617095 
L 171.976544 55.630187 
L 172.301523 74.915545 
L 172.626503 58.891539 
L 172.951482 75.362907 
L 173.276462 74.17158 
L 173.601441 85.676114 
L 173.926421 70.828609 
L 174.2514 78.611212 
L 174.57638 61.302838 
L 174.90136 68.78899 
L 175.226339 73.266745 
L 175.551319 73.195332 
L 175.876298 68.744347 
L 176.201278 72.326861 
L 176.526257 59.06762 
L 176.851237 53.568 
L 177.176216 66.9892 
L 177.501196 62.093666 
L 177.826175 82.206055 
L 178.151155 85.687727 
L 178.476134 93.733333 
L 178.801114 93.739965 
L 179.451073 88.364742 
L 179.776052 87.541074 
L 180.101032 80.086039 
L 180.426011 88.42755 
L 181.075971 61.059353 
L 181.40095 68.828066 
L 181.72593 68.854132 
L 182.050909 66.694248 
L 182.375889 73.525382 
L 182.700868 77.326362 
L 183.025848 89.305365 
L 183.350827 86.638293 
L 183.675807 89.17304 
L 184.000786 84.777309 
L 184.325766 85.486966 
L 184.650745 104.159924 
L 184.975725 101.316527 
L 185.300704 94.453137 
L 185.625684 100.007637 
L 185.950663 92.5548 
L 186.275643 119.079867 
L 186.600622 110.643333 
L 186.925602 123.322806 
L 187.250581 116.57914 
L 187.575561 119.846717 
L 187.900541 129.984757 
L 188.22552 134.854044 
L 188.5505 128.87642 
L 188.875479 136.810071 
L 189.200459 135.31766 
L 189.525438 130.39878 
L 189.850418 133.825699 
L 190.175397 129.870768 
L 190.500377 130.707505 
L 190.825356 137.467977 
L 191.150336 122.642553 
L 191.475315 127.752842 
L 191.800295 128.619106 
L 192.125274 135.35293 
L 192.450254 132.082752 
L 192.775233 125.359348 
L 193.100213 135.276842 
L 193.425192 140.871203 
L 193.750172 119.79867 
L 194.075152 116.154597 
L 194.400131 100.243968 
L 195.05009 115.09494 
L 195.37507 108.276215 
L 195.700049 111.363796 
L 196.025029 108.959387 
L 196.350008 103.985762 
L 196.674988 117.926022 
L 196.999967 121.318155 
L 197.324947 129.260753 
L 197.974906 139.795562 
L 198.299885 116.62295 
L 198.624865 118.825922 
L 198.949844 132.104065 
L 199.599803 121.987652 
L 199.924783 139.668066 
L 200.249762 138.860049 
L 200.574742 133.464712 
L 200.899722 133.897694 
L 201.224701 137.784407 
L 201.549681 151.456924 
L 201.87466 152.839796 
L 202.19964 150.801608 
L 202.524619 133.377929 
L 202.849599 141.846575 
L 203.174578 128.734176 
L 203.499558 126.823142 
L 203.824537 143.255638 
L 204.149517 129.481124 
L 204.474496 123.253033 
L 204.799476 144.219298 
L 205.124455 133.133272 
L 205.774414 164.040548 
L 206.099394 154.474521 
L 206.424373 148.374776 
L 206.749353 145.900221 
L 207.074333 156.304768 
L 207.399312 176.796038 
L 207.724292 171.284238 
L 208.049271 178.937333 
L 208.374251 182.349524 
L 208.69923 159.549273 
L 209.02421 154.982497 
L 209.349189 160.327998 
L 209.674169 169.090901 
L 209.999148 150.834836 
L 210.649107 137.798243 
L 210.974087 128.148898 
L 211.299066 128.578431 
L 211.624046 124.140733 
L 211.949025 137.731006 
L 212.274005 125.155429 
L 212.598984 135.923911 
L 212.923964 121.921666 
L 213.248943 127.018022 
L 213.573923 127.808348 
L 213.898903 140.799134 
L 214.223882 137.957681 
L 214.548862 133.468201 
L 214.873841 121.870026 
L 215.198821 123.583138 
L 215.84878 103.375122 
L 216.173759 118.134578 
L 216.498739 122.447882 
L 217.148698 135.324736 
L 217.473677 124.583961 
L 217.798657 121.014195 
L 218.123636 137.282952 
L 218.448616 146.260658 
L 219.098575 123.994849 
L 219.423554 122.621443 
L 219.748534 117.493691 
L 220.398493 145.599616 
L 220.723473 130.587447 
L 221.048452 141.884436 
L 221.373432 136.499699 
L 221.698411 128.910092 
L 222.023391 126.887447 
L 222.34837 122.052357 
L 222.67335 128.528069 
L 222.998329 124.567804 
L 223.323309 137.468555 
L 223.648288 130.90629 
L 223.973268 135.205135 
L 224.298247 144.677259 
L 224.623227 129.473769 
L 225.273186 154.186466 
L 225.598165 149.572341 
L 225.923145 151.200524 
L 226.248124 139.742759 
L 226.573104 171.296833 
L 226.898084 160.482042 
L 227.223063 171.300848 
L 227.548043 169.826688 
L 227.873022 181.404488 
L 228.198002 169.733561 
L 228.522981 164.225514 
L 229.17294 159.187584 
L 229.49792 168.619798 
L 229.822899 173.82845 
L 230.147879 169.927625 
L 230.472858 181.315713 
L 230.797838 185.318878 
L 231.122817 166.230703 
L 231.447797 170.756772 
L 231.772776 172.765969 
L 232.097756 177.759003 
L 232.422735 157.320696 
L 232.747715 151.830138 
L 233.722654 161.482566 
L 234.047633 170.574092 
L 234.372613 152.628661 
L 234.697592 169.883034 
L 235.022572 162.888531 
L 235.347551 164.379734 
L 235.672531 162.006132 
L 235.99751 156.005834 
L 236.32249 138.643543 
L 236.647469 154.093471 
L 236.972449 147.111015 
L 237.297428 144.522176 
L 237.622408 150.903109 
L 237.947387 168.633755 
L 238.272367 168.129184 
L 238.597346 151.894645 
L 238.922326 159.569704 
L 239.247305 156.280813 
L 239.572285 145.253477 
L 239.897265 126.566551 
L 240.222244 136.821881 
L 240.547224 139.976392 
L 240.872203 151.397665 
L 241.197183 142.951732 
L 241.522162 152.639553 
L 241.847142 135.87549 
L 242.172121 130.889362 
L 242.497101 134.690549 
L 242.82208 153.044694 
L 243.14706 150.773285 
L 243.472039 134.584298 
L 243.797019 145.898849 
L 244.121998 153.025702 
L 244.446978 154.264434 
L 244.771957 165.43869 
L 245.096937 147.972217 
L 245.421916 150.379088 
L 245.746896 146.233135 
L 246.071876 156.91753 
L 246.721835 141.257199 
L 247.046814 148.803411 
L 247.371794 167.249167 
L 247.696773 168.282774 
L 248.021753 152.55091 
L 248.346732 145.343766 
L 248.671712 130.664736 
L 248.996691 140.73711 
L 249.321671 144.294793 
L 249.64665 164.061455 
L 249.97163 147.558894 
L 250.296609 152.388782 
L 250.946568 177.582774 
L 251.271548 175.953199 
L 251.596527 178.751534 
L 251.921507 188.754521 
L 252.896446 181.980166 
L 253.221425 195.305652 
L 253.871384 172.637357 
L 254.196364 172.361654 
L 254.521343 165.825364 
L 255.171302 176.871797 
L 255.496282 164.948471 
L 255.821261 170.345264 
L 256.146241 163.81018 
L 256.47122 169.328338 
L 256.7962 171.732269 
L 257.121179 162.047155 
L 257.446159 162.039188 
L 257.771138 165.094622 
L 258.096118 145.593179 
L 258.421097 153.940592 
L 258.746077 139.943116 
L 259.071057 142.651251 
L 259.396036 155.918703 
L 260.045995 166.11667 
L 260.370975 182.82034 
L 260.695954 186.78545 
L 261.020934 187.176045 
L 261.345913 193.243208 
L 261.670893 187.784126 
L 261.995872 185.450693 
L 262.320852 187.751444 
L 262.645831 177.601482 
L 263.29579 165.778019 
L 263.62077 174.90655 
L 263.945749 175.181657 
L 264.270729 163.044264 
L 264.595708 160.582623 
L 264.920688 151.397571 
L 265.245667 153.383226 
L 265.570647 166.032062 
L 265.895627 160.449899 
L 266.220606 166.730575 
L 266.545586 179.993515 
L 267.195545 152.679925 
L 267.520524 161.142679 
L 267.845504 147.645826 
L 268.170483 145.70892 
L 268.495463 136.737497 
L 268.820442 136.87527 
L 269.145422 126.456078 
L 269.470401 125.014588 
L 270.12036 143.059828 
L 270.44534 142.624021 
L 270.770319 122.053834 
L 271.095299 141.767328 
L 271.420278 149.277151 
L 271.745258 149.614297 
L 272.070238 149.15955 
L 272.395217 147.277999 
L 272.720197 141.293844 
L 273.045176 141.931161 
L 273.370156 144.410342 
L 273.695135 140.417996 
L 274.020115 148.410528 
L 274.345094 146.898177 
L 274.670074 138.769287 
L 274.995053 139.728492 
L 275.320033 142.18278 
L 275.645012 153.806347 
L 275.969992 156.95384 
L 276.294971 152.127326 
L 276.619951 150.8013 
L 276.94493 156.655639 
L 277.26991 176.289801 
L 277.919869 160.478165 
L 278.244848 164.306521 
L 278.569828 162.986622 
L 278.894808 170.726561 
L 279.219787 167.462389 
L 279.869746 152.531604 
L 280.194726 158.220995 
L 280.519705 147.052885 
L 280.844685 154.829059 
L 281.169664 148.894369 
L 281.494644 151.901546 
L 281.819623 158.567433 
L 282.144603 169.811751 
L 282.469582 169.298594 
L 282.794562 154.024716 
L 283.119541 147.105486 
L 283.444521 147.299512 
L 283.7695 138.371248 
L 284.09448 122.602092 
L 284.419459 132.021422 
L 284.744439 126.633292 
L 285.069419 139.065648 
L 285.394398 139.89616 
L 285.719378 141.35942 
L 286.044357 138.648636 
L 286.369337 146.967382 
L 286.694316 160.149552 
L 287.019296 166.971165 
L 287.344275 160.365396 
L 287.669255 160.750257 
L 287.994234 167.966247 
L 288.319214 166.66322 
L 288.644193 157.207437 
L 288.969173 168.861606 
L 289.294152 165.351732 
L 289.944111 151.505744 
L 290.269091 152.99857 
L 290.59407 164.609842 
L 290.91905 166.291207 
L 291.244029 163.076512 
L 291.569009 177.115091 
L 291.893989 173.438287 
L 292.218968 152.44453 
L 292.543948 153.60474 
L 292.868927 167.187387 
L 293.193907 168.566591 
L 293.518886 190.490592 
L 293.843866 183.008168 
L 294.168845 183.313241 
L 294.493825 181.278115 
L 294.818804 185.034837 
L 295.143784 181.944334 
L 295.468763 175.70601 
L 295.793743 172.301299 
L 296.118722 172.969775 
L 296.443702 175.523109 
L 296.768681 179.699131 
L 297.093661 172.28408 
L 297.41864 176.295353 
L 297.74362 174.918593 
L 298.0686 178.344804 
L 298.718559 170.669333 
L 299.043538 171.010428 
L 299.368518 184.603977 
L 299.693497 187.753278 
L 300.018477 183.213417 
L 300.668436 189.032963 
L 300.993415 184.092686 
L 301.318395 187.646594 
L 301.643374 198.083277 
L 301.968354 202.067482 
L 302.293333 212.573481 
L 302.618313 195.636604 
L 303.593251 165.55044 
L 303.918231 167.165788 
L 304.24321 167.227228 
L 304.56819 168.460595 
L 304.89317 165.54648 
L 305.218149 157.235747 
L 305.543129 157.450456 
L 305.868108 160.549802 
L 306.193088 165.920612 
L 306.518067 167.99382 
L 306.843047 187.202639 
L 307.168026 194.488659 
L 307.493006 191.418313 
L 307.817985 189.418537 
L 308.142965 181.922965 
L 308.467944 193.902688 
L 308.792924 187.115569 
L 309.117903 196.532631 
L 309.442883 200.280279 
L 309.767862 206.67408 
L 310.092842 201.786953 
L 310.417821 207.326501 
L 310.742801 207.798417 
L 311.067781 209.177009 
L 311.39276 200.369604 
L 311.71774 197.513713 
L 312.042719 199.920385 
L 312.367699 186.486034 
L 312.692678 195.500918 
L 313.017658 182.147116 
L 313.342637 184.693981 
L 313.667617 194.553812 
L 314.317576 174.790648 
L 314.642555 177.043922 
L 315.292514 172.699818 
L 315.617494 165.836147 
L 315.942473 163.424743 
L 316.267453 169.540436 
L 316.592432 166.424549 
L 316.917412 158.209189 
L 317.242391 156.744212 
L 317.567371 163.673764 
L 317.892351 177.390554 
L 318.21733 166.336987 
L 318.54231 168.383504 
L 318.867289 173.146422 
L 319.192269 183.548241 
L 319.517248 175.925374 
L 319.842228 182.482245 
L 320.167207 172.658252 
L 320.492187 169.307873 
L 320.817166 174.575678 
L 321.142146 161.131084 
L 321.467125 156.4214 
L 321.792105 166.362561 
L 322.117084 162.139098 
L 322.442064 151.639407 
L 322.767043 151.58244 
L 323.092023 154.52754 
L 323.417002 163.862273 
L 323.741982 148.706092 
L 324.066962 154.520567 
L 324.391941 155.467708 
L 324.716921 170.792354 
L 325.0419 169.82605 
L 325.36688 158.261207 
L 325.691859 164.005486 
L 326.341818 147.77582 
L 326.666798 147.040663 
L 326.991777 153.084758 
L 327.316757 147.108666 
L 327.641736 123.656973 
L 327.966716 125.927081 
L 328.941654 145.767798 
L 329.266634 127.818028 
L 329.916593 134.191361 
L 330.241572 120.586794 
L 330.566552 119.566475 
L 330.891532 126.248174 
L 331.216511 117.584891 
L 331.541491 122.635544 
L 331.86647 121.16552 
L 332.19145 122.669384 
L 332.516429 137.280024 
L 332.841409 130.062036 
L 333.166388 119.137603 
L 333.491368 131.862113 
L 333.816347 122.520052 
L 334.141327 140.324382 
L 334.466306 149.782473 
L 334.791286 163.004226 
L 335.116265 160.35636 
L 335.441245 141.2874 
L 335.766224 158.30883 
L 336.091204 151.732861 
L 336.416183 149.049977 
L 336.741163 152.275814 
L 337.066143 165.619449 
L 337.391122 152.372939 
L 338.041081 138.954636 
L 338.366061 131.916731 
L 338.69104 128.276578 
L 339.01602 128.998393 
L 339.340999 142.105561 
L 339.665979 145.136998 
L 339.990958 155.468862 
L 340.315938 145.032951 
L 340.640917 140.890699 
L 340.965897 152.49012 
L 341.290876 155.655256 
L 341.615856 147.463805 
L 341.940835 154.673849 
L 342.265815 155.819972 
L 342.590794 130.025958 
L 342.915774 120.876894 
L 343.240753 122.440346 
L 343.565733 132.146692 
L 343.890713 118.030506 
L 344.215692 133.619468 
L 344.865651 110.306471 
L 345.190631 108.805096 
L 345.51561 136.257517 
L 345.84059 127.659785 
L 346.490549 129.359108 
L 347.140508 146.710012 
L 347.465487 138.275412 
L 347.790467 144.460946 
L 348.115446 134.130479 
L 348.440426 154.142115 
L 348.765405 153.412855 
L 349.090385 160.287707 
L 349.415364 157.242827 
L 349.740344 158.37428 
L 350.065324 144.21587 
L 350.390303 149.527927 
L 350.715283 163.928381 
L 351.040262 146.597778 
L 351.365242 145.86378 
L 351.690221 134.654294 
L 352.015201 114.263084 
L 352.34018 131.162647 
L 352.66516 133.698129 
L 352.990139 118.493939 
L 353.315119 126.972253 
L 353.640098 129.328928 
L 353.965078 119.381955 
L 354.615037 135.783968 
L 354.940016 125.882595 
L 355.264996 137.866191 
L 355.589975 125.476586 
L 355.914955 117.384218 
L 356.564914 134.815239 
L 356.889894 134.118782 
L 357.214873 137.835656 
L 357.539853 133.184369 
L 357.864832 125.582945 
L 358.189812 139.621005 
L 358.514791 137.600847 
L 358.839771 132.665087 
L 359.16475 133.074093 
L 359.48973 128.801892 
L 359.814709 130.809541 
L 360.139689 139.173303 
L 360.464668 143.653796 
L 360.789648 152.097105 
L 361.114627 147.447781 
L 361.439607 153.454034 
L 361.764586 152.064299 
L 362.089566 159.215005 
L 362.414545 147.547793 
L 362.739525 142.131164 
L 363.064505 128.938711 
L 363.389484 136.868861 
L 363.714464 133.289281 
L 364.039443 149.155333 
L 364.364423 122.935119 
L 365.014382 136.118039 
L 365.664341 116.852439 
L 365.98932 118.088863 
L 366.3143 116.724287 
L 366.639279 142.476694 
L 366.964259 120.054289 
L 367.289238 123.511387 
L 367.614218 133.390263 
L 367.939197 132.446109 
L 368.264177 135.359678 
L 368.589156 130.675366 
L 368.914136 142.098195 
L 369.239115 138.198586 
L 369.564095 160.33432 
L 369.889075 140.243456 
L 370.214054 166.953105 
L 370.539034 150.038369 
L 370.864013 153.084904 
L 371.188993 165.266823 
L 371.513972 146.705442 
L 371.838952 142.744137 
L 372.163931 159.927942 
L 372.488911 158.162196 
L 372.81389 173.575155 
L 373.13887 162.691496 
L 373.463849 163.395942 
L 373.788829 174.169824 
L 374.113808 155.249048 
L 374.438788 165.942327 
L 374.763767 184.104936 
L 375.088747 179.325048 
L 375.413726 177.329016 
L 375.738706 178.805241 
L 376.063686 179.717237 
L 376.388665 178.538667 
L 376.713645 202.669065 
L 377.038624 195.477067 
L 377.363604 192.160296 
L 377.688583 196.456916 
L 378.338542 182.250212 
L 378.663522 181.315202 
L 378.988501 172.927006 
L 379.313481 183.231683 
L 379.63846 175.654165 
L 379.96344 180.898624 
L 380.288419 171.945262 
L 380.613399 181.252044 
L 381.263358 156.22862 
L 381.588337 162.769492 
L 381.913317 151.061165 
L 382.238296 153.353806 
L 382.563276 136.389732 
L 382.888256 143.829189 
L 383.213235 148.451467 
L 383.863194 141.183692 
L 384.513153 165.067335 
L 385.488092 139.045581 
L 385.813071 134.331039 
L 386.138051 142.527421 
L 386.46303 134.998588 
L 386.78801 140.18982 
L 387.112989 140.891904 
L 387.437969 150.578739 
L 387.762948 150.438882 
L 388.087928 155.411581 
L 388.737887 180.927906 
L 389.387846 175.012808 
L 389.712826 188.849277 
L 390.037805 169.674006 
L 390.362785 170.748704 
L 390.687764 180.915405 
L 391.012744 166.341357 
L 391.337723 161.508656 
L 391.662703 177.382755 
L 391.987682 184.439808 
L 392.312662 182.45792 
L 392.637641 182.156312 
L 393.2876 166.436365 
L 393.61258 147.154043 
L 393.937559 154.644725 
L 394.262539 176.217038 
L 394.587518 178.23765 
L 394.912498 181.262804 
L 395.237477 172.38746 
L 395.562457 180.389484 
L 395.887437 169.309233 
L 396.212416 168.402009 
L 396.537396 152.01673 
L 396.862375 142.442841 
L 397.187355 169.116095 
L 397.512334 166.019777 
L 397.837314 173.489079 
L 398.162293 174.937595 
L 398.487273 183.954735 
L 398.487273 183.954735 
" clip-path="url(#pf6baff01e9)" style="fill: none; stroke: #1f77b4; stroke-width: 1.5; stroke-linecap: square"/>
   </g>
   <g id="line2d_14">
    <path d="M 73.832727 146.633054 
L 74.157707 140.832495 
L 74.482686 152.163368 
L 74.807666 149.402556 
L 75.457625 172.311395 
L 75.782604 175.107523 
L 76.107584 165.707869 
L 76.432563 160.944987 
L 76.757543 165.118725 
L 77.082523 172.175144 
L 77.407502 160.697084 
L 77.732482 154.8213 
L 78.057461 154.767897 
L 78.382441 167.140622 
L 78.70742 164.706586 
L 79.0324 156.390794 
L 79.357379 161.118375 
L 79.682359 167.771663 
L 80.007338 182.281505 
L 80.332318 184.369171 
L 80.657297 190.518515 
L 80.982277 188.20932 
L 81.307256 181.786932 
L 81.632236 169.789783 
L 82.607174 180.584869 
L 82.932154 199.109866 
L 83.257133 194.643878 
L 83.582113 194.285954 
L 83.907093 204.578303 
L 84.232072 203.671921 
L 84.557052 217.188787 
L 84.882031 209.629833 
L 85.207011 210.276053 
L 85.53199 209.294433 
L 85.85697 206.263418 
L 86.181949 211.825586 
L 86.506929 208.36534 
L 86.831908 203.655121 
L 87.156888 186.916291 
L 87.481867 197.250648 
L 87.806847 198.45009 
L 88.131826 192.314597 
L 88.456806 199.543654 
L 88.781785 213.500695 
L 89.431744 220.127799 
L 89.756724 201.609304 
L 90.081704 198.07916 
L 90.406683 208.935915 
L 90.731663 188.526582 
L 91.056642 183.660433 
L 91.381622 189.549803 
L 91.706601 179.705824 
L 92.35656 183.939976 
L 93.006519 157.439424 
L 93.331499 170.619712 
L 94.306437 183.024576 
L 94.631417 183.698308 
L 94.956396 198.197782 
L 95.281376 188.029025 
L 95.606355 191.940338 
L 95.931335 190.054018 
L 96.256314 193.957869 
L 96.581294 190.998343 
L 96.906274 193.32804 
L 97.231253 212.398279 
L 97.556233 211.48523 
L 97.881212 194.009272 
L 98.206192 201.698754 
L 98.531171 203.1107 
L 98.856151 185.545803 
L 99.18113 188.973592 
L 99.50611 190.497402 
L 99.831089 180.720402 
L 100.156069 182.358492 
L 100.481048 173.050298 
L 100.806028 178.701338 
L 101.455987 195.191721 
L 101.780966 170.995591 
L 102.105946 173.450292 
L 102.430925 194.654949 
L 102.755905 184.897667 
L 103.080885 200.454921 
L 103.405864 201.070804 
L 103.730844 205.616293 
L 104.055823 190.17504 
L 104.380803 199.395075 
L 104.705782 195.148173 
L 105.030762 196.720875 
L 105.355741 180.295614 
L 106.0057 171.196016 
L 106.33068 192.170248 
L 106.655659 189.471694 
L 106.980639 174.111362 
L 107.305618 192.420852 
L 107.630598 195.438036 
L 107.955577 200.627054 
L 108.280557 207.732926 
L 108.605536 202.842335 
L 108.930516 200.020915 
L 109.255495 183.156227 
L 109.580475 183.305196 
L 109.905455 178.896219 
L 110.230434 182.196032 
L 110.555414 172.764333 
L 110.880393 175.015223 
L 111.205373 153.645577 
L 111.530352 160.788963 
L 111.855332 159.247406 
L 112.505291 142.475725 
L 112.83027 161.49218 
L 113.15525 162.793298 
L 113.480229 158.91204 
L 113.805209 160.342498 
L 114.130188 198.743425 
L 114.455168 184.832239 
L 114.780147 161.90355 
L 115.430106 169.44965 
L 115.755086 189.944511 
L 116.080066 183.260589 
L 116.405045 191.153482 
L 116.730025 192.958689 
L 117.055004 183.226475 
L 117.379984 182.604088 
L 117.704963 183.874666 
L 118.029943 181.494364 
L 118.354922 159.628497 
L 118.679902 169.567666 
L 119.004881 169.136891 
L 119.329861 174.638338 
L 119.65484 168.19955 
L 119.97982 166.964089 
L 120.304799 180.569977 
L 120.629779 183.918794 
L 120.954758 185.678158 
L 121.279738 177.485283 
L 121.604717 176.967678 
L 121.929697 183.171156 
L 122.254676 179.041245 
L 122.579656 178.247441 
L 122.904636 169.979463 
L 123.229615 157.476609 
L 123.554595 154.760066 
L 123.879574 166.895805 
L 124.204554 167.26797 
L 124.529533 174.569472 
L 124.854513 195.380285 
L 125.179492 180.674967 
L 125.504472 191.480582 
L 125.829451 193.116703 
L 126.47941 178.515285 
L 126.80439 184.738503 
L 127.129369 187.8673 
L 127.454349 186.155414 
L 127.779328 185.643059 
L 128.104308 211.095901 
L 128.429287 183.461604 
L 128.754267 183.046868 
L 129.079247 165.146997 
L 129.404226 170.304403 
L 129.729206 165.924736 
L 130.054185 168.463974 
L 130.379165 168.108033 
L 130.704144 183.80752 
L 131.029124 173.463444 
L 131.354103 185.519941 
L 131.679083 186.606699 
L 132.004062 186.458021 
L 132.329042 163.087774 
L 132.654021 181.461395 
L 132.979001 182.63146 
L 133.30398 163.693798 
L 133.953939 181.337451 
L 134.278919 174.590592 
L 134.603898 181.543925 
L 134.928878 184.50569 
L 135.253857 174.137963 
L 135.578837 160.044818 
L 135.903817 160.313869 
L 136.228796 161.250837 
L 136.553776 163.218057 
L 136.878755 141.98435 
L 137.203735 145.073669 
L 137.528714 155.041093 
L 137.853694 152.159808 
L 138.178673 160.033955 
L 138.503653 143.58313 
L 139.153612 152.237709 
L 139.478591 168.702868 
L 139.803571 172.093832 
L 140.12855 174.132684 
L 140.45353 171.146353 
L 140.778509 165.409024 
L 141.103489 173.779818 
L 141.428468 167.059165 
L 141.753448 173.152272 
L 142.078428 171.482513 
L 142.403407 172.348899 
L 142.728387 172.835965 
L 143.053366 170.257539 
L 143.378346 183.382809 
L 143.703325 180.81988 
L 144.028305 192.730706 
L 144.353284 198.130912 
L 144.678264 195.395077 
L 145.003243 182.359073 
L 145.328223 175.192253 
L 145.653202 171.981436 
L 145.978182 187.721126 
L 146.303161 178.906553 
L 146.628141 198.490605 
L 146.95312 201.77554 
L 147.2781 211.183689 
L 147.603079 214.518798 
L 147.928059 202.122687 
L 148.253038 197.70496 
L 148.578018 190.129633 
L 148.902998 188.047312 
L 149.227977 200.688196 
L 149.552957 193.454259 
L 149.877936 180.977699 
L 150.202916 183.640044 
L 150.527895 174.936738 
L 150.852875 190.429879 
L 151.177854 182.588318 
L 151.502834 164.916132 
L 151.827813 174.381536 
L 152.152793 170.664416 
L 152.477772 161.183399 
L 152.802752 173.069391 
L 153.127731 176.691489 
L 153.452711 183.758479 
L 154.10267 182.8779 
L 154.752629 188.320838 
L 155.077609 189.698523 
L 155.402588 177.587984 
L 155.727568 177.93127 
L 156.052547 171.198868 
L 156.377527 192.831547 
L 156.702506 176.891509 
L 157.027486 174.929787 
L 157.352465 184.861881 
L 157.677445 181.471925 
L 158.002424 170.319103 
L 158.327404 177.954825 
L 158.652383 182.171947 
L 158.977363 171.087391 
L 159.302342 178.114532 
L 159.627322 171.380103 
L 160.60226 194.385201 
L 161.252219 204.823366 
L 161.577199 185.028829 
L 161.902179 182.010157 
L 162.227158 165.597964 
L 162.877117 163.246705 
L 163.202097 145.031714 
L 163.527076 160.3126 
L 163.852056 158.00359 
L 164.177035 161.975419 
L 164.826994 173.865126 
L 165.151974 169.400085 
L 165.476953 167.854708 
L 165.801933 171.437521 
L 166.451892 166.102045 
L 166.776871 163.299742 
L 167.101851 157.711704 
L 167.42683 167.834287 
L 167.75181 162.134931 
L 168.07679 175.12671 
L 168.401769 178.88565 
L 168.726749 168.517227 
L 169.051728 170.030204 
L 169.376708 168.5895 
L 169.701687 168.093846 
L 170.351646 139.69228 
L 170.676626 142.717246 
L 171.001605 152.962388 
L 171.326585 144.473764 
L 171.976544 158.624736 
L 172.301523 156.989603 
L 172.626503 159.311742 
L 172.951482 166.40216 
L 173.276462 163.748472 
L 173.601441 175.474912 
L 173.926421 167.064022 
L 174.2514 178.45285 
L 174.57638 174.838784 
L 175.551319 156.070483 
L 175.876298 170.090663 
L 176.201278 165.521708 
L 176.526257 165.761706 
L 176.851237 154.565487 
L 177.176216 147.996397 
L 177.501196 154.214644 
L 177.826175 148.896183 
L 178.151155 153.650859 
L 178.476134 156.061492 
L 178.801114 153.115502 
L 179.126093 157.642517 
L 179.451073 142.002526 
L 179.776052 149.625898 
L 180.101032 154.033123 
L 180.426011 147.808567 
L 180.750991 143.738044 
L 181.075971 147.662739 
L 181.40095 141.801442 
L 181.72593 147.399239 
L 182.375889 132.052688 
L 183.025848 140.574522 
L 183.350827 145.79935 
L 183.675807 128.367144 
L 184.000786 137.315341 
L 184.325766 122.426056 
L 184.650745 121.478649 
L 184.975725 132.998387 
L 185.300704 127.374419 
L 185.950663 145.852438 
L 186.600622 137.102428 
L 186.925602 142.945693 
L 187.250581 125.599755 
L 187.575561 153.893809 
L 187.900541 156.791653 
L 188.22552 156.069621 
L 188.5505 162.928521 
L 188.875479 188.820718 
L 189.525438 152.373646 
L 189.850418 142.596591 
L 190.175397 129.279441 
L 190.500377 139.230605 
L 190.825356 127.172502 
L 191.150336 135.887547 
L 191.475315 129.299348 
L 191.800295 143.326292 
L 192.125274 133.018568 
L 192.450254 137.217622 
L 192.775233 136.665868 
L 193.100213 139.870856 
L 193.750172 114.900757 
L 194.075152 135.397694 
L 194.400131 143.686406 
L 194.725111 128.855563 
L 195.05009 140.609696 
L 195.37507 134.881153 
L 195.700049 120.810681 
L 196.350008 141.50664 
L 196.674988 149.659076 
L 196.999967 139.360141 
L 197.324947 144.982175 
L 197.649926 140.612337 
L 197.974906 139.00041 
L 198.299885 138.294137 
L 198.624865 142.440818 
L 198.949844 156.171031 
L 199.274824 143.763235 
L 199.599803 143.044422 
L 200.249762 147.231883 
L 200.574742 136.093702 
L 200.899722 135.45235 
L 201.224701 144.443562 
L 201.87466 151.488301 
L 202.19964 151.668785 
L 202.524619 154.712785 
L 202.849599 155.846451 
L 203.174578 171.347915 
L 203.499558 150.127831 
L 203.824537 154.40455 
L 204.149517 162.369853 
L 204.474496 156.853548 
L 204.799476 159.497229 
L 205.124455 154.947973 
L 205.449435 144.068807 
L 205.774414 144.286881 
L 206.099394 146.909148 
L 206.424373 164.828075 
L 206.749353 164.111267 
L 207.074333 155.703841 
L 207.399312 160.939412 
L 207.724292 164.120711 
L 208.374251 162.40223 
L 208.69923 142.136259 
L 209.02421 145.955407 
L 209.349189 151.560645 
L 209.999148 140.564559 
L 210.324128 130.052208 
L 210.649107 137.796367 
L 211.299066 171.803082 
L 211.624046 155.167956 
L 211.949025 148.370448 
L 212.274005 138.317466 
L 212.923964 151.705507 
L 213.248943 127.865997 
L 213.573923 122.257515 
L 213.898903 127.206428 
L 214.223882 128.5788 
L 214.548862 117.345406 
L 214.873841 125.252511 
L 215.5238 149.138305 
L 215.84878 151.608799 
L 216.173759 146.577699 
L 216.498739 136.204371 
L 216.823718 133.317897 
L 217.148698 124.231311 
L 217.473677 138.579284 
L 217.798657 144.078089 
L 218.123636 154.04829 
L 218.448616 158.253019 
L 218.773595 172.125334 
L 219.098575 178.121669 
L 219.423554 181.013163 
L 219.748534 173.922816 
L 220.073514 173.66404 
L 220.398493 158.897928 
L 220.723473 170.651813 
L 221.048452 164.529012 
L 221.373432 178.154315 
L 221.698411 161.638746 
L 222.023391 162.095957 
L 222.34837 153.791487 
L 222.998329 145.57691 
L 223.323309 135.966094 
L 223.973268 171.758837 
L 224.298247 149.789797 
L 224.623227 140.541394 
L 224.948206 155.928838 
L 225.273186 130.78495 
L 225.598165 148.665912 
L 225.923145 139.89156 
L 226.573104 153.098725 
L 226.898084 137.747913 
L 227.223063 149.070364 
L 227.548043 153.425536 
L 227.873022 155.176683 
L 228.522981 142.397631 
L 228.847961 154.255374 
L 229.17294 141.670729 
L 229.49792 148.937091 
L 229.822899 160.055754 
L 230.147879 162.868129 
L 230.797838 179.642822 
L 231.122817 177.194144 
L 231.447797 167.557739 
L 231.772776 178.998408 
L 232.097756 157.639876 
L 232.422735 169.378428 
L 232.747715 171.964954 
L 233.397674 202.904246 
L 233.722654 204.837741 
L 234.047633 200.479277 
L 234.372613 191.8326 
L 234.697592 195.942334 
L 235.022572 182.345038 
L 235.347551 180.127716 
L 235.672531 186.272231 
L 235.99751 181.846793 
L 236.32249 183.611084 
L 236.647469 198.187712 
L 236.972449 181.730501 
L 237.297428 193.001461 
L 237.622408 209.989616 
L 237.947387 195.184127 
L 238.272367 186.593151 
L 238.597346 192.984877 
L 238.922326 182.717138 
L 239.247305 189.764392 
L 239.572285 178.441016 
L 239.897265 189.18673 
L 240.222244 193.846993 
L 240.547224 192.862701 
L 240.872203 193.970952 
L 241.197183 199.068387 
L 241.522162 201.690088 
L 241.847142 217.329006 
L 242.172121 205.268013 
L 242.497101 200.470343 
L 243.14706 179.603237 
L 243.797019 200.826499 
L 244.121998 185.755617 
L 244.446978 179.811382 
L 244.771957 183.832231 
L 245.096937 178.39827 
L 245.421916 184.054063 
L 245.746896 200.414947 
L 246.071876 205.233113 
L 246.396855 212.955909 
L 246.721835 216.117535 
L 247.046814 192.343659 
L 247.371794 177.524436 
L 247.696773 177.453332 
L 248.021753 162.574547 
L 248.671712 195.068312 
L 248.996691 189.908504 
L 249.321671 194.208359 
L 249.64665 200.5651 
L 249.97163 194.294501 
L 250.296609 193.401971 
L 250.621589 197.092113 
L 250.946568 187.293799 
L 251.271548 182.342146 
L 251.596527 185.413691 
L 251.921507 173.743608 
L 252.246486 173.752497 
L 252.571466 177.736914 
L 252.896446 175.430069 
L 253.221425 164.588329 
L 253.546405 166.928354 
L 253.871384 182.580421 
L 254.196364 176.834107 
L 254.521343 191.688697 
L 254.846323 169.858587 
L 255.171302 169.805871 
L 255.496282 173.675226 
L 255.821261 180.024748 
L 256.146241 179.18738 
L 256.47122 188.80249 
L 256.7962 185.310006 
L 257.121179 177.368256 
L 257.446159 187.319579 
L 257.771138 185.071804 
L 258.096118 175.483443 
L 258.421097 170.210268 
L 258.746077 178.986183 
L 259.071057 170.304385 
L 259.396036 154.540006 
L 259.721016 153.417689 
L 260.045995 143.576899 
L 260.695954 153.80054 
L 261.020934 154.747225 
L 261.345913 157.663349 
L 261.670893 174.252448 
L 261.995872 158.548446 
L 262.320852 148.466228 
L 262.645831 167.027717 
L 262.970811 168.300266 
L 263.29579 156.084669 
L 263.62077 161.314607 
L 263.945749 136.075418 
L 264.270729 159.705436 
L 264.595708 150.631906 
L 265.245667 167.63533 
L 265.570647 147.859104 
L 265.895627 157.145217 
L 266.220606 151.057181 
L 266.545586 165.687745 
L 266.870565 163.911031 
L 267.520524 154.346607 
L 267.845504 148.28491 
L 268.170483 174.392902 
L 268.495463 158.0366 
L 268.820442 164.362517 
L 269.145422 163.572269 
L 269.470401 154.843508 
L 269.795381 168.078432 
L 270.12036 149.790377 
L 270.770319 161.077463 
L 271.095299 164.538929 
L 271.420278 175.314449 
L 271.745258 176.411676 
L 272.070238 155.022781 
L 272.395217 169.698928 
L 272.720197 167.381663 
L 273.045176 183.180018 
L 273.370156 177.635243 
L 273.695135 175.520546 
L 274.020115 176.829605 
L 274.345094 177.34175 
L 274.670074 165.60531 
L 274.995053 160.258753 
L 275.320033 164.021832 
L 275.645012 152.007602 
L 275.969992 157.732623 
L 276.294971 147.833062 
L 276.619951 148.694004 
L 276.94493 150.937251 
L 277.26991 157.678971 
L 277.594889 174.207782 
L 277.919869 159.794596 
L 278.244848 180.289104 
L 278.569828 171.828975 
L 278.894808 176.99509 
L 279.219787 178.446063 
L 279.544767 177.790584 
L 279.869746 197.608914 
L 280.194726 206.982407 
L 280.519705 203.450621 
L 281.169664 178.644378 
L 281.494644 188.681503 
L 281.819623 188.038107 
L 282.144603 189.449643 
L 282.469582 200.823325 
L 282.794562 207.66099 
L 283.119541 199.188342 
L 283.444521 197.094968 
L 283.7695 185.969914 
L 284.09448 182.788062 
L 284.419459 193.343845 
L 284.744439 185.270746 
L 285.394398 191.990406 
L 285.719378 191.207507 
L 286.044357 189.840954 
L 286.369337 197.378793 
L 286.694316 186.13992 
L 287.019296 184.271383 
L 287.344275 184.3815 
L 287.669255 188.416022 
L 287.994234 204.636562 
L 288.319214 190.082165 
L 288.644193 194.627837 
L 288.969173 192.056315 
L 289.294152 194.602265 
L 289.619132 195.003236 
L 289.944111 193.089086 
L 290.269091 184.016308 
L 290.59407 180.345312 
L 290.91905 181.157593 
L 291.244029 180.784275 
L 291.569009 177.410085 
L 291.893989 188.744019 
L 292.218968 183.375417 
L 292.543948 180.524952 
L 292.868927 197.690475 
L 293.193907 174.105815 
L 293.518886 188.793182 
L 293.843866 173.754203 
L 294.168845 174.984518 
L 294.818804 189.418395 
L 295.143784 180.861862 
L 295.468763 178.822727 
L 295.793743 178.055668 
L 296.118722 170.134244 
L 296.443702 173.944506 
L 296.768681 192.02223 
L 297.093661 190.325095 
L 297.41864 178.096699 
L 298.0686 186.942006 
L 298.393579 191.667878 
L 298.718559 201.646361 
L 299.043538 198.373412 
L 299.368518 207.937486 
L 299.693497 212.6933 
L 300.018477 226.43309 
L 300.343456 213.365778 
L 300.668436 207.973165 
L 300.993415 199.792799 
L 301.318395 207.757549 
L 301.643374 205.743883 
L 301.968354 186.920882 
L 302.293333 184.137366 
L 302.618313 188.387252 
L 302.943292 189.427428 
L 303.268272 204.608111 
L 303.593251 213.548938 
L 303.918231 210.561565 
L 304.24321 199.986644 
L 304.56819 196.655996 
L 304.89317 186.547279 
L 305.218149 182.177152 
L 305.543129 191.154752 
L 305.868108 163.158207 
L 306.193088 171.956299 
L 306.518067 188.211818 
L 306.843047 179.623782 
L 307.493006 191.819728 
L 307.817985 185.220108 
L 308.142965 192.873874 
L 308.467944 191.361968 
L 308.792924 199.459793 
L 309.117903 198.413549 
L 309.442883 206.476741 
L 309.767862 202.557537 
L 310.092842 201.855876 
L 310.417821 204.898916 
L 310.742801 209.945113 
L 311.067781 212.747018 
L 311.39276 218.669063 
L 311.71774 221.650026 
L 312.042719 217.83875 
L 312.367699 201.543328 
L 313.017658 222.961085 
L 313.342637 218.990318 
L 313.667617 213.066157 
L 313.992596 209.931327 
L 314.317576 217.897326 
L 314.642555 220.331346 
L 314.967535 219.60883 
L 315.292514 214.493576 
L 315.617494 204.28661 
L 315.942473 198.002737 
L 316.267453 204.294756 
L 316.592432 199.235225 
L 316.917412 196.640764 
L 317.242391 211.342694 
L 317.567371 197.657969 
L 317.892351 205.8622 
L 318.54231 193.938627 
L 318.867289 197.922277 
L 319.192269 191.251443 
L 319.517248 194.593003 
L 319.842228 206.276626 
L 320.167207 211.365411 
L 320.492187 209.386271 
L 320.817166 213.59655 
L 321.142146 207.324149 
L 321.467125 205.278368 
L 321.792105 180.539722 
L 322.117084 187.327399 
L 322.442064 184.11233 
L 322.767043 165.54736 
L 323.417002 194.028043 
L 323.741982 201.319152 
L 324.066962 198.284844 
L 324.391941 184.556921 
L 324.716921 185.85307 
L 325.0419 201.909472 
L 325.36688 232.181087 
L 325.691859 223.165774 
L 326.016839 231.953208 
L 326.341818 219.717423 
L 326.666798 214.165035 
L 327.316757 222.197447 
L 327.641736 212.62613 
L 327.966716 214.976871 
L 328.291695 221.112446 
L 328.616675 214.913268 
L 328.941654 217.702286 
L 329.266634 221.560718 
L 330.241572 228.403665 
L 330.566552 227.413987 
L 330.891532 235.239807 
L 331.541491 244.381365 
L 331.86647 243.016396 
L 332.19145 225.040437 
L 332.841409 218.872436 
L 333.166388 229.429777 
L 333.491368 233.00541 
L 333.816347 221.456269 
L 334.141327 226.643639 
L 334.466306 248.490006 
L 334.791286 232.547559 
L 335.116265 241.511287 
L 335.766224 222.353277 
L 336.091204 223.701649 
L 336.416183 216.011486 
L 336.741163 216.467815 
L 337.066143 228.679833 
L 337.391122 214.941975 
L 337.716102 212.98363 
L 338.041081 225.063073 
L 338.366061 219.717456 
L 338.69104 228.727404 
L 339.01602 219.46822 
L 339.665979 235.844827 
L 339.990958 225.563961 
L 340.315938 237.061181 
L 340.640917 215.88256 
L 340.965897 234.678541 
L 341.290876 227.587553 
L 341.615856 214.073059 
L 341.940835 237.480802 
L 342.265815 243.566543 
L 342.915774 236.133902 
L 343.240753 237.225134 
L 343.565733 239.794512 
L 343.890713 247.852745 
L 344.215692 252.145895 
L 344.540672 265.212122 
L 344.865651 246.848356 
L 345.190631 251.887649 
L 345.84059 265.09057 
L 346.490549 261.618012 
L 346.815528 266.098178 
L 347.140508 245.740638 
L 347.465487 260.722315 
L 347.790467 246.651838 
L 348.115446 247.055272 
L 348.440426 256.287701 
L 348.765405 256.310352 
L 349.090385 252.454064 
L 349.415364 257.90336 
L 349.740344 257.768835 
L 350.065324 255.743654 
L 350.390303 254.446413 
L 350.715283 269.955204 
L 351.040262 270.312054 
L 351.365242 268.77366 
L 351.690221 284.914652 
L 352.015201 283.921284 
L 352.34018 295.488 
L 352.66516 281.905047 
L 352.990139 263.305604 
L 353.315119 278.594888 
L 353.640098 274.16936 
L 353.965078 276.408612 
L 354.290057 263.066064 
L 354.615037 257.031775 
L 355.264996 268.772587 
L 355.589975 269.047964 
L 355.914955 258.322526 
L 356.239934 261.994012 
L 356.564914 269.579639 
L 356.889894 274.344205 
L 357.214873 261.477571 
L 357.539853 255.136345 
L 357.864832 260.392353 
L 358.189812 269.248023 
L 358.839771 239.940169 
L 359.16475 268.551135 
L 359.48973 265.346736 
L 359.814709 260.778967 
L 360.464668 243.638925 
L 360.789648 257.635982 
L 361.114627 255.953291 
L 361.439607 245.865954 
L 361.764586 246.615737 
L 362.089566 232.041574 
L 362.414545 227.641266 
L 362.739525 234.702495 
L 363.064505 237.373897 
L 363.389484 236.992537 
L 363.714464 220.959089 
L 364.039443 235.088286 
L 364.364423 239.583226 
L 364.689402 241.060047 
L 365.014382 257.231855 
L 365.339361 246.288149 
L 365.98932 242.64434 
L 366.3143 235.089818 
L 366.639279 222.823846 
L 366.964259 225.784339 
L 367.289238 220.566127 
L 367.614218 201.282032 
L 367.939197 210.729543 
L 368.264177 202.647389 
L 368.589156 200.2738 
L 368.914136 212.692584 
L 369.239115 211.906731 
L 369.564095 217.476876 
L 369.889075 230.359381 
L 370.214054 220.394217 
L 370.539034 220.732439 
L 370.864013 219.076771 
L 371.188993 220.108611 
L 371.513972 215.551721 
L 371.838952 203.729877 
L 372.163931 207.433386 
L 372.488911 222.150637 
L 372.81389 214.173444 
L 373.13887 224.755755 
L 373.463849 230.447852 
L 373.788829 222.419923 
L 374.113808 205.449508 
L 374.763767 221.987944 
L 375.088747 207.990969 
L 375.413726 220.663136 
L 375.738706 217.334471 
L 376.388665 233.845018 
L 376.713645 227.158923 
L 377.038624 234.230978 
L 377.363604 247.805659 
L 377.688583 245.812779 
L 378.013563 244.898092 
L 378.338542 238.693016 
L 378.663522 240.907986 
L 378.988501 238.902846 
L 379.313481 243.253869 
L 379.63846 217.267514 
L 379.96344 212.878692 
L 380.288419 233.766579 
L 380.613399 222.703858 
L 381.263358 239.748622 
L 381.588337 240.274761 
L 381.913317 247.153768 
L 382.238296 238.813111 
L 382.563276 221.948724 
L 382.888256 218.493033 
L 383.213235 209.49083 
L 383.538215 215.904445 
L 383.863194 205.467177 
L 384.188174 206.718239 
L 384.513153 212.759315 
L 384.838133 213.734508 
L 385.163112 228.48661 
L 385.488092 227.814343 
L 385.813071 227.463895 
L 386.138051 241.039744 
L 386.46303 227.422864 
L 386.78801 232.01274 
L 387.112989 227.184333 
L 387.437969 242.861849 
L 387.762948 241.511473 
L 388.087928 248.557926 
L 388.412907 252.494603 
L 389.062867 236.491458 
L 389.387846 234.762246 
L 389.712826 235.718417 
L 390.037805 230.350472 
L 390.687764 209.694952 
L 391.012744 212.216247 
L 391.337723 206.824515 
L 391.662703 192.05919 
L 391.987682 186.115545 
L 392.312662 186.342086 
L 392.637641 191.646298 
L 392.962621 183.422857 
L 393.2876 184.314122 
L 393.61258 195.867273 
L 393.937559 189.195686 
L 394.262539 187.735468 
L 394.587518 205.028877 
L 394.912498 185.004412 
L 395.237477 179.087673 
L 395.562457 197.981301 
L 395.887437 206.038368 
L 396.212416 207.397988 
L 396.862375 227.608921 
L 397.187355 227.993812 
L 397.512334 230.718707 
L 397.837314 212.809691 
L 398.162293 212.049497 
L 398.487273 222.222236 
L 398.487273 222.222236 
" clip-path="url(#pf6baff01e9)" style="fill: none; stroke: #ff7f0e; stroke-width: 1.5; stroke-linecap: square"/>
   </g>
   <g id="patch_3">
    <path d="M 57.6 307.584 
L 57.6 41.472 
" style="fill: none; stroke: #000000; stroke-width: 0.8; stroke-linejoin: miter; stroke-linecap: square"/>
   </g>
   <g id="patch_4">
    <path d="M 414.72 307.584 
L 414.72 41.472 
" style="fill: none; stroke: #000000; stroke-width: 0.8; stroke-linejoin: miter; stroke-linecap: square"/>
   </g>
   <g id="patch_5">
    <path d="M 57.6 307.584 
L 414.72 307.584 
" style="fill: none; stroke: #000000; stroke-width: 0.8; stroke-linejoin: miter; stroke-linecap: square"/>
   </g>
   <g id="patch_6">
    <path d="M 57.6 41.472 
L 414.72 41.472 
" style="fill: none; stroke: #000000; stroke-width: 0.8; stroke-linejoin: miter; stroke-linecap: square"/>
   </g>
  </g>
 </g>
 <defs>
  <clipPath id="pf6baff01e9">
   <rect x="57.6" y="41.472" width="357.12" height="266.112"/>
  </clipPath>
 </defs>
</svg>
