<?xml version="1.0" encoding="utf-8" standalone="no"?>
<!DOCTYPE svg PUBLIC "-//W3C//DTD SVG 1.1//EN"
  "http://www.w3.org/Graphics/SVG/1.1/DTD/svg11.dtd">
<svg xmlns:xlink="http://www.w3.org/1999/xlink" width="460.8pt" height="345.6pt" viewBox="0 0 460.8 345.6" xmlns="http://www.w3.org/2000/svg" version="1.1">
 <metadata>
  <rdf:RDF xmlns:dc="http://purl.org/dc/elements/1.1/" xmlns:cc="http://creativecommons.org/ns#" xmlns:rdf="http://www.w3.org/1999/02/22-rdf-syntax-ns#">
   <cc:Work>
    <dc:type rdf:resource="http://purl.org/dc/dcmitype/StillImage"/>
    <dc:date>2025-11-23T18:31:06.874647</dc:date>
    <dc:format>image/svg+xml</dc:format>
    <dc:creator>
     <cc:Agent>
      <dc:title>Matplotlib v3.10.6, https://matplotlib.org/</dc:title>
     </cc:Agent>
    </dc:creator>
   </cc:Work>
  </rdf:RDF>
 </metadata>
 <defs>
  <style type="text/css">*{stroke-linejoin: round; stroke-linecap: butt}</style>
 </defs>
 <g id="figure_1">
  <g id="patch_1">
   <path d="M 0 345.6 
L 460.8 345.6 
L 460.8 0 
L 0 0 
z
" style="fill: #ffffff"/>
  </g>
  <g id="axes_1">
   <g id="patch_2">
    <path d="M 57.6 307.584 
L 414.72 307.584 
L 414.72 41.472 
L 57.6 41.472 
z
" style="fill: #ffffff"/>
   </g>
   <g id="matplotlib.axis_1">
    <g id="xtick_1">
     <g id="line2d_1">
      <defs>
       <path id="me7d7d9fbd0" d="M 0 0 
L 0 3.5 
" style="stroke: #000000; stroke-width: 0.8"/>
      </defs>
      <g>
       <use xlink:href="#me7d7d9fbd0" x="73.832727" y="307.584" style="stroke: #000000; stroke-width: 0.8"/>
      </g>
     </g>
     <g id="text_1">
      <!-- 0 -->
      <g transform="translate(70.651477 322.182437) scale(0.1 -0.1)">
       <defs>
        <path id="DejaVuSans-30" d="M 2034 4250 
Q 1547 4250 1301 3770 
Q 1056 3291 1056 2328 
Q 1056 1369 1301 889 
Q 1547 409 2034 409 
Q 2525 409 2770 889 
Q 3016 1369 3016 2328 
Q 3016 3291 2770 3770 
Q 2525 4250 2034 4250 
z
M 2034 4750 
Q 2819 4750 3233 4129 
Q 3647 3509 3647 2328 
Q 3647 1150 3233 529 
Q 2819 -91 2034 -91 
Q 1250 -91 836 529 
Q 422 1150 422 2328 
Q 422 3509 836 4129 
Q 1250 4750 2034 4750 
z
" transform="scale(0.015625)"/>
       </defs>
       <use xlink:href="#DejaVuSans-30"/>
      </g>
     </g>
    </g>
    <g id="xtick_2">
     <g id="line2d_2">
      <g>
       <use xlink:href="#me7d7d9fbd0" x="138.828632" y="307.584" style="stroke: #000000; stroke-width: 0.8"/>
      </g>
     </g>
     <g id="text_2">
      <!-- 200 -->
      <g transform="translate(129.284882 322.182437) scale(0.1 -0.1)">
       <defs>
        <path id="DejaVuSans-32" d="M 1228 531 
L 3431 531 
L 3431 0 
L 469 0 
L 469 531 
Q 828 903 1448 1529 
Q 2069 2156 2228 2338 
Q 2531 2678 2651 2914 
Q 2772 3150 2772 3378 
Q 2772 3750 2511 3984 
Q 2250 4219 1831 4219 
Q 1534 4219 1204 4116 
Q 875 4013 500 3803 
L 500 4441 
Q 881 4594 1212 4672 
Q 1544 4750 1819 4750 
Q 2544 4750 2975 4387 
Q 3406 4025 3406 3419 
Q 3406 3131 3298 2873 
Q 3191 2616 2906 2266 
Q 2828 2175 2409 1742 
Q 1991 1309 1228 531 
z
" transform="scale(0.015625)"/>
       </defs>
       <use xlink:href="#DejaVuSans-32"/>
       <use xlink:href="#DejaVuSans-30" transform="translate(63.623047 0)"/>
       <use xlink:href="#DejaVuSans-30" transform="translate(127.246094 0)"/>
      </g>
     </g>
    </g>
    <g id="xtick_3">
     <g id="line2d_3">
      <g>
       <use xlink:href="#me7d7d9fbd0" x="203.824537" y="307.584" style="stroke: #000000; stroke-width: 0.8"/>
      </g>
     </g>
     <g id="text_3">
      <!-- 400 -->
      <g transform="translate(194.280787 322.182437) scale(0.1 -0.1)">
       <defs>
        <path id="DejaVuSans-34" d="M 2419 4116 
L 825 1625 
L 2419 1625 
L 2419 4116 
z
M 2253 4666 
L 3047 4666 
L 3047 1625 
L 3713 1625 
L 3713 1100 
L 3047 1100 
L 3047 0 
L 2419 0 
L 2419 1100 
L 313 1100 
L 313 1709 
L 2253 4666 
z
" transform="scale(0.015625)"/>
       </defs>
       <use xlink:href="#DejaVuSans-34"/>
       <use xlink:href="#DejaVuSans-30" transform="translate(63.623047 0)"/>
       <use xlink:href="#DejaVuSans-30" transform="translate(127.246094 0)"/>
      </g>
     </g>
    </g>
    <g id="xtick_4">
     <g id="line2d_4">
      <g>
       <use xlink:href="#me7d7d9fbd0" x="268.820442" y="307.584" style="stroke: #000000; stroke-width: 0.8"/>
      </g>
     </g>
     <g id="text_4">
      <!-- 600 -->
      <g transform="translate(259.276692 322.182437) scale(0.1 -0.1)">
       <defs>
        <path id="DejaVuSans-36" d="M 2113 2584 
Q 1688 2584 1439 2293 
Q 1191 2003 1191 1497 
Q 1191 994 1439 701 
Q 1688 409 2113 409 
Q 2538 409 2786 701 
Q 3034 994 3034 1497 
Q 3034 2003 2786 2293 
Q 2538 2584 2113 2584 
z
M 3366 4563 
L 3366 3988 
Q 3128 4100 2886 4159 
Q 2644 4219 2406 4219 
Q 1781 4219 1451 3797 
Q 1122 3375 1075 2522 
Q 1259 2794 1537 2939 
Q 1816 3084 2150 3084 
Q 2853 3084 3261 2657 
Q 3669 2231 3669 1497 
Q 3669 778 3244 343 
Q 2819 -91 2113 -91 
Q 1303 -91 875 529 
Q 447 1150 447 2328 
Q 447 3434 972 4092 
Q 1497 4750 2381 4750 
Q 2619 4750 2861 4703 
Q 3103 4656 3366 4563 
z
" transform="scale(0.015625)"/>
       </defs>
       <use xlink:href="#DejaVuSans-36"/>
       <use xlink:href="#DejaVuSans-30" transform="translate(63.623047 0)"/>
       <use xlink:href="#DejaVuSans-30" transform="translate(127.246094 0)"/>
      </g>
     </g>
    </g>
    <g id="xtick_5">
     <g id="line2d_5">
      <g>
       <use xlink:href="#me7d7d9fbd0" x="333.816347" y="307.584" style="stroke: #000000; stroke-width: 0.8"/>
      </g>
     </g>
     <g id="text_5">
      <!-- 800 -->
      <g transform="translate(324.272597 322.182437) scale(0.1 -0.1)">
       <defs>
        <path id="DejaVuSans-38" d="M 2034 2216 
Q 1584 2216 1326 1975 
Q 1069 1734 1069 1313 
Q 1069 891 1326 650 
Q 1584 409 2034 409 
Q 2484 409 2743 651 
Q 3003 894 3003 1313 
Q 3003 1734 2745 1975 
Q 2488 2216 2034 2216 
z
M 1403 2484 
Q 997 2584 770 2862 
Q 544 3141 544 3541 
Q 544 4100 942 4425 
Q 1341 4750 2034 4750 
Q 2731 4750 3128 4425 
Q 3525 4100 3525 3541 
Q 3525 3141 3298 2862 
Q 3072 2584 2669 2484 
Q 3125 2378 3379 2068 
Q 3634 1759 3634 1313 
Q 3634 634 3220 271 
Q 2806 -91 2034 -91 
Q 1263 -91 848 271 
Q 434 634 434 1313 
Q 434 1759 690 2068 
Q 947 2378 1403 2484 
z
M 1172 3481 
Q 1172 3119 1398 2916 
Q 1625 2713 2034 2713 
Q 2441 2713 2670 2916 
Q 2900 3119 2900 3481 
Q 2900 3844 2670 4047 
Q 2441 4250 2034 4250 
Q 1625 4250 1398 4047 
Q 1172 3844 1172 3481 
z
" transform="scale(0.015625)"/>
       </defs>
       <use xlink:href="#DejaVuSans-38"/>
       <use xlink:href="#DejaVuSans-30" transform="translate(63.623047 0)"/>
       <use xlink:href="#DejaVuSans-30" transform="translate(127.246094 0)"/>
      </g>
     </g>
    </g>
    <g id="xtick_6">
     <g id="line2d_6">
      <g>
       <use xlink:href="#me7d7d9fbd0" x="398.812252" y="307.584" style="stroke: #000000; stroke-width: 0.8"/>
      </g>
     </g>
     <g id="text_6">
      <!-- 1000 -->
      <g transform="translate(386.087252 322.182437) scale(0.1 -0.1)">
       <defs>
        <path id="DejaVuSans-31" d="M 794 531 
L 1825 531 
L 1825 4091 
L 703 3866 
L 703 4441 
L 1819 4666 
L 2450 4666 
L 2450 531 
L 3481 531 
L 3481 0 
L 794 0 
L 794 531 
z
" transform="scale(0.015625)"/>
       </defs>
       <use xlink:href="#DejaVuSans-31"/>
       <use xlink:href="#DejaVuSans-30" transform="translate(63.623047 0)"/>
       <use xlink:href="#DejaVuSans-30" transform="translate(127.246094 0)"/>
       <use xlink:href="#DejaVuSans-30" transform="translate(190.869141 0)"/>
      </g>
     </g>
    </g>
   </g>
   <g id="matplotlib.axis_2">
    <g id="ytick_1">
     <g id="line2d_7">
      <defs>
       <path id="m0062c60025" d="M 0 0 
L -3.5 0 
" style="stroke: #000000; stroke-width: 0.8"/>
      </defs>
      <g>
       <use xlink:href="#m0062c60025" x="57.6" y="298.039816" style="stroke: #000000; stroke-width: 0.8"/>
      </g>
     </g>
     <g id="text_7">
      <!-- −4 -->
      <g transform="translate(35.857813 301.839035) scale(0.1 -0.1)">
       <defs>
        <path id="DejaVuSans-2212" d="M 678 2272 
L 4684 2272 
L 4684 1741 
L 678 1741 
L 678 2272 
z
" transform="scale(0.015625)"/>
       </defs>
       <use xlink:href="#DejaVuSans-2212"/>
       <use xlink:href="#DejaVuSans-34" transform="translate(83.789062 0)"/>
      </g>
     </g>
    </g>
    <g id="ytick_2">
     <g id="line2d_8">
      <g>
       <use xlink:href="#m0062c60025" x="57.6" y="264.089952" style="stroke: #000000; stroke-width: 0.8"/>
      </g>
     </g>
     <g id="text_8">
      <!-- −3 -->
      <g transform="translate(35.857813 267.88917) scale(0.1 -0.1)">
       <defs>
        <path id="DejaVuSans-33" d="M 2597 2516 
Q 3050 2419 3304 2112 
Q 3559 1806 3559 1356 
Q 3559 666 3084 287 
Q 2609 -91 1734 -91 
Q 1441 -91 1130 -33 
Q 819 25 488 141 
L 488 750 
Q 750 597 1062 519 
Q 1375 441 1716 441 
Q 2309 441 2620 675 
Q 2931 909 2931 1356 
Q 2931 1769 2642 2001 
Q 2353 2234 1838 2234 
L 1294 2234 
L 1294 2753 
L 1863 2753 
Q 2328 2753 2575 2939 
Q 2822 3125 2822 3475 
Q 2822 3834 2567 4026 
Q 2313 4219 1838 4219 
Q 1578 4219 1281 4162 
Q 984 4106 628 3988 
L 628 4550 
Q 988 4650 1302 4700 
Q 1616 4750 1894 4750 
Q 2613 4750 3031 4423 
Q 3450 4097 3450 3541 
Q 3450 3153 3228 2886 
Q 3006 2619 2597 2516 
z
" transform="scale(0.015625)"/>
       </defs>
       <use xlink:href="#DejaVuSans-2212"/>
       <use xlink:href="#DejaVuSans-33" transform="translate(83.789062 0)"/>
      </g>
     </g>
    </g>
    <g id="ytick_3">
     <g id="line2d_9">
      <g>
       <use xlink:href="#m0062c60025" x="57.6" y="230.140087" style="stroke: #000000; stroke-width: 0.8"/>
      </g>
     </g>
     <g id="text_9">
      <!-- −2 -->
      <g transform="translate(35.857813 233.939306) scale(0.1 -0.1)">
       <use xlink:href="#DejaVuSans-2212"/>
       <use xlink:href="#DejaVuSans-32" transform="translate(83.789062 0)"/>
      </g>
     </g>
    </g>
    <g id="ytick_4">
     <g id="line2d_10">
      <g>
       <use xlink:href="#m0062c60025" x="57.6" y="196.190222" style="stroke: #000000; stroke-width: 0.8"/>
      </g>
     </g>
     <g id="text_10">
      <!-- −1 -->
      <g transform="translate(35.857813 199.989441) scale(0.1 -0.1)">
       <use xlink:href="#DejaVuSans-2212"/>
       <use xlink:href="#DejaVuSans-31" transform="translate(83.789062 0)"/>
      </g>
     </g>
    </g>
    <g id="ytick_5">
     <g id="line2d_11">
      <g>
       <use xlink:href="#m0062c60025" x="57.6" y="162.240357" style="stroke: #000000; stroke-width: 0.8"/>
      </g>
     </g>
     <g id="text_11">
      <!-- 0 -->
      <g transform="translate(44.2375 166.039576) scale(0.1 -0.1)">
       <use xlink:href="#DejaVuSans-30"/>
      </g>
     </g>
    </g>
    <g id="ytick_6">
     <g id="line2d_12">
      <g>
       <use xlink:href="#m0062c60025" x="57.6" y="128.290493" style="stroke: #000000; stroke-width: 0.8"/>
      </g>
     </g>
     <g id="text_12">
      <!-- 1 -->
      <g transform="translate(44.2375 132.089711) scale(0.1 -0.1)">
       <use xlink:href="#DejaVuSans-31"/>
      </g>
     </g>
    </g>
    <g id="ytick_7">
     <g id="line2d_13">
      <g>
       <use xlink:href="#m0062c60025" x="57.6" y="94.340628" style="stroke: #000000; stroke-width: 0.8"/>
      </g>
     </g>
     <g id="text_13">
      <!-- 2 -->
      <g transform="translate(44.2375 98.139847) scale(0.1 -0.1)">
       <use xlink:href="#DejaVuSans-32"/>
      </g>
     </g>
    </g>
    <g id="ytick_8">
     <g id="line2d_14">
      <g>
       <use xlink:href="#m0062c60025" x="57.6" y="60.390763" style="stroke: #000000; stroke-width: 0.8"/>
      </g>
     </g>
     <g id="text_14">
      <!-- 3 -->
      <g transform="translate(44.2375 64.189982) scale(0.1 -0.1)">
       <use xlink:href="#DejaVuSans-33"/>
      </g>
     </g>
    </g>
   </g>
   <g id="line2d_15">
    <path d="M 73.832727 106.946859 
L 74.157707 199.867754 
L 74.482686 124.349386 
L 74.807666 132.919436 
L 75.132645 193.254007 
L 75.457625 172.535766 
L 75.782604 202.382641 
L 76.107584 170.640524 
L 76.432563 178.049774 
L 76.757543 122.410654 
L 77.082523 156.23738 
L 77.407502 160.86474 
L 77.732482 123.79573 
L 78.057461 193.171757 
L 78.382441 158.329271 
L 78.70742 142.4938 
L 79.0324 178.936698 
L 79.357379 168.21177 
L 79.682359 175.495526 
L 80.007338 125.865452 
L 80.332318 191.234565 
L 80.657297 127.446396 
L 80.982277 183.737215 
L 81.307256 131.896788 
L 81.632236 170.636086 
L 81.957215 135.336223 
L 82.282195 122.166504 
L 82.607174 182.960967 
L 82.932154 215.935456 
L 83.257133 220.47774 
L 83.582113 149.922307 
L 84.232072 121.926868 
L 84.557052 133.135341 
L 84.882031 175.572065 
L 85.207011 123.382501 
L 85.53199 173.036756 
L 85.85697 154.598513 
L 86.181949 149.429748 
L 86.506929 185.880007 
L 87.156888 117.892051 
L 87.806847 165.663337 
L 88.131826 197.005404 
L 88.781785 118.45305 
L 89.106765 167.189486 
L 89.431744 153.731246 
L 90.081704 184.795087 
L 90.406683 137.667442 
L 90.731663 139.24241 
L 91.056642 150.047234 
L 91.381622 145.82146 
L 91.706601 163.256336 
L 92.35656 115.346934 
L 92.68154 232.46141 
L 93.006519 166.894176 
L 93.656478 113.625615 
L 93.981458 110.866695 
L 94.306437 188.977801 
L 94.631417 108.004741 
L 94.956396 161.647364 
L 95.281376 127.65036 
L 95.606355 138.557157 
L 95.931335 97.934029 
L 96.256314 176.438453 
L 96.581294 118.156578 
L 96.906274 174.408579 
L 97.231253 175.075986 
L 97.556233 115.249825 
L 98.206192 182.051328 
L 98.531171 144.725271 
L 98.856151 139.158098 
L 99.18113 178.67196 
L 99.50611 125.090668 
L 99.831089 168.788644 
L 100.156069 98.392809 
L 100.481048 148.338823 
L 100.806028 141.832054 
L 101.131007 89.344197 
L 101.455987 97.846322 
L 101.780966 82.156213 
L 102.105946 116.286821 
L 102.430925 96.775265 
L 102.755905 120.221082 
L 103.080885 131.113772 
L 103.405864 164.494448 
L 103.730844 174.719653 
L 104.055823 138.431986 
L 104.380803 53.568 
L 104.705782 155.458487 
L 105.030762 174.192259 
L 105.355741 146.073141 
L 105.680721 144.698436 
L 106.0057 217.871157 
L 106.33068 201.566251 
L 106.980639 137.769161 
L 107.305618 145.897446 
L 107.630598 131.366474 
L 108.605536 183.664664 
L 108.930516 112.36341 
L 109.255495 152.049174 
L 109.580475 127.899953 
L 109.905455 179.407613 
L 110.230434 180.171829 
L 110.555414 161.839044 
L 110.880393 119.450678 
L 111.205373 152.446636 
L 111.530352 157.419183 
L 111.855332 137.467909 
L 112.180311 143.711852 
L 112.505291 155.698853 
L 112.83027 126.341832 
L 113.15525 167.57713 
L 113.480229 157.023095 
L 113.805209 157.785855 
L 114.130188 110.955881 
L 114.455168 149.288358 
L 114.780147 81.211368 
L 115.105127 173.622296 
L 115.430106 108.521608 
L 115.755086 131.964231 
L 116.080066 87.591077 
L 116.405045 128.439284 
L 116.730025 72.329133 
L 117.055004 128.638682 
L 117.379984 152.02204 
L 117.704963 132.11764 
L 118.029943 136.815275 
L 118.354922 181.108352 
L 118.679902 181.150059 
L 119.004881 139.89049 
L 119.329861 183.412079 
L 119.65484 178.75761 
L 119.97982 200.246937 
L 120.304799 157.093027 
L 120.629779 159.444722 
L 120.954758 143.302886 
L 121.279738 147.52554 
L 121.604717 121.85376 
L 121.929697 153.74296 
L 122.254676 166.00929 
L 122.579656 156.686723 
L 122.904636 181.145101 
L 123.229615 171.764979 
L 123.554595 174.826453 
L 123.879574 141.9982 
L 124.204554 143.957061 
L 124.529533 166.074782 
L 124.854513 179.325603 
L 125.179492 127.341846 
L 125.504472 196.990441 
L 125.829451 170.373956 
L 126.154431 182.934141 
L 126.47941 116.801291 
L 126.80439 155.318556 
L 127.454349 173.8033 
L 127.779328 192.893131 
L 128.104308 162.218421 
L 128.429287 161.500159 
L 128.754267 109.051058 
L 129.079247 114.239742 
L 129.404226 149.15806 
L 129.729206 171.724397 
L 130.054185 90.230049 
L 130.379165 163.094828 
L 130.704144 192.979955 
L 131.029124 191.101102 
L 131.354103 143.8703 
L 131.679083 211.571698 
L 132.004062 228.86719 
L 132.329042 149.111105 
L 132.654021 150.708655 
L 132.979001 124.903166 
L 133.30398 170.014498 
L 133.62896 136.319648 
L 133.953939 148.064064 
L 134.278919 182.231419 
L 134.603898 179.897033 
L 134.928878 200.209101 
L 135.578837 132.462013 
L 135.903817 189.913748 
L 136.228796 159.155645 
L 136.553776 69.329201 
L 136.878755 117.165715 
L 137.203735 116.736318 
L 137.528714 164.310293 
L 137.853694 160.442967 
L 138.178673 192.310353 
L 138.503653 118.126587 
L 138.828632 197.640207 
L 139.478591 124.584683 
L 139.803571 158.143414 
L 140.12855 162.9751 
L 140.45353 152.53209 
L 140.778509 100.367452 
L 141.103489 221.028365 
L 141.428468 211.936534 
L 141.753448 153.476067 
L 142.078428 137.244639 
L 142.403407 71.449308 
L 143.053366 167.906225 
L 143.378346 185.468471 
L 143.703325 104.439985 
L 144.028305 90.471706 
L 144.353284 141.187698 
L 144.678264 136.532374 
L 145.003243 159.189637 
L 145.328223 109.781857 
L 145.653202 176.637737 
L 145.978182 164.357762 
L 146.303161 168.262298 
L 146.628141 141.853809 
L 146.95312 69.451099 
L 147.2781 132.993333 
L 147.603079 117.711906 
L 148.253038 187.256311 
L 148.578018 156.802286 
L 148.902998 159.05132 
L 149.227977 153.026968 
L 149.552957 143.590546 
L 149.877936 154.041749 
L 150.202916 211.25528 
L 150.527895 102.895617 
L 150.852875 131.024247 
L 151.177854 136.552846 
L 151.827813 200.331651 
L 152.152793 192.446699 
L 152.477772 180.813599 
L 152.802752 196.884445 
L 153.452711 124.173832 
L 153.77769 134.723988 
L 154.10267 117.327609 
L 154.427649 153.259977 
L 154.752629 115.552067 
L 155.077609 131.62869 
L 155.402588 97.849343 
L 155.727568 87.481795 
L 156.052547 147.345493 
L 156.377527 111.482436 
L 157.027486 101.685615 
L 157.352465 105.557072 
L 157.677445 174.7544 
L 158.002424 189.604259 
L 158.327404 158.755003 
L 158.652383 203.728421 
L 158.977363 154.343617 
L 159.627322 192.541767 
L 159.952301 117.932657 
L 160.277281 145.885753 
L 160.60226 187.21065 
L 160.92724 177.122307 
L 161.252219 178.723723 
L 161.577199 175.991929 
L 161.902179 161.436395 
L 162.227158 172.941628 
L 162.552138 169.207866 
L 163.202097 102.44839 
L 163.527076 167.633306 
L 163.852056 203.434729 
L 164.177035 124.922228 
L 164.502015 111.342561 
L 164.826994 113.881438 
L 165.151974 138.921065 
L 165.476953 145.039332 
L 165.801933 147.83138 
L 166.126912 120.604335 
L 166.451892 128.608745 
L 166.776871 196.414774 
L 167.101851 163.99209 
L 167.75181 63.396666 
L 168.07679 200.240058 
L 168.401769 144.186827 
L 168.726749 123.201875 
L 169.051728 139.589244 
L 169.376708 145.139017 
L 169.701687 61.398211 
L 170.026667 130.878101 
L 170.676626 119.297853 
L 171.001605 147.657489 
L 171.326585 102.978612 
L 171.651564 127.161401 
L 171.976544 92.497348 
L 172.301523 181.266698 
L 172.626503 95.026589 
L 172.951482 177.582389 
L 173.276462 148.988339 
L 173.601441 187.718063 
L 173.926421 112.390705 
L 174.2514 161.012936 
L 174.57638 88.628095 
L 174.90136 144.477374 
L 175.226339 153.962952 
L 175.551319 145.648522 
L 175.876298 128.156107 
L 176.201278 148.482765 
L 176.526257 96.270836 
L 176.851237 99.590219 
L 177.176216 163.323496 
L 177.501196 127.047347 
L 177.826175 205.047893 
L 178.151155 182.760929 
L 178.476134 197.140049 
L 179.126093 160.513686 
L 179.451073 152.610534 
L 179.776052 152.964597 
L 180.101032 127.568391 
L 180.426011 170.828259 
L 180.750991 115.406272 
L 181.075971 80.235257 
L 181.40095 139.750316 
L 182.050909 128.067206 
L 182.375889 157.650467 
L 182.700868 160.993641 
L 183.025848 195.29275 
L 183.350827 161.913506 
L 183.675807 169.408674 
L 184.000786 147.129248 
L 184.325766 154.933206 
L 184.650745 221.02397 
L 184.975725 176.898405 
L 185.300704 148.625074 
L 185.625684 177.624784 
L 185.950663 141.85277 
L 186.275643 247.794257 
L 186.600622 171.738673 
L 186.925602 221.024574 
L 187.250581 172.06209 
L 187.575561 188.411908 
L 187.900541 217.632793 
L 188.22552 214.024575 
L 188.5505 177.192589 
L 188.875479 210.367234 
L 189.525438 169.589098 
L 189.850418 188.181631 
L 190.175397 168.097843 
L 190.500377 176.09822 
L 190.825356 199.222224 
L 191.150336 133.222861 
L 191.475315 174.439566 
L 191.800295 172.867868 
L 192.125274 194.969454 
L 192.775233 148.760952 
L 193.100213 195.999603 
L 193.425192 200.676661 
L 193.750172 111.549827 
L 194.075152 131.880714 
L 194.400131 88.254078 
L 194.725111 148.205153 
L 195.05009 170.759711 
L 195.37507 134.777632 
L 195.700049 156.333264 
L 196.350008 131.34889 
L 196.674988 191.629298 
L 196.999967 181.902043 
L 197.324947 199.873133 
L 197.649926 198.439612 
L 197.974906 206.42449 
L 198.299885 107.567171 
L 198.949844 202.064586 
L 199.274824 159.127884 
L 199.599803 149.180668 
L 199.924783 220.460271 
L 200.574742 162.37042 
L 200.899722 170.220251 
L 201.224701 183.611958 
L 201.549681 225.141769 
L 202.19964 185.944138 
L 202.524619 122.266617 
L 202.849599 181.742067 
L 203.174578 125.471819 
L 203.499558 140.770212 
L 203.824537 208.320044 
L 204.149517 132.627511 
L 204.474496 129.357404 
L 204.799476 219.350441 
L 205.124455 146.24873 
L 205.774414 247.799375 
L 206.099394 176.286756 
L 206.424373 160.852078 
L 206.749353 161.443211 
L 207.399312 260.256259 
L 207.724292 199.293324 
L 208.049271 225.058024 
L 208.374251 219.786782 
L 208.69923 125.553311 
L 209.02421 144.605874 
L 209.674169 204.745473 
L 209.999148 123.237684 
L 210.324128 131.932664 
L 210.649107 121.410419 
L 210.974087 105.363742 
L 211.299066 130.277415 
L 211.624046 121.307332 
L 211.949025 182.185723 
L 212.274005 117.494035 
L 212.598984 175.649137 
L 212.923964 110.814178 
L 213.248943 151.912686 
L 213.573923 151.142647 
L 213.898903 196.906433 
L 214.223882 163.762405 
L 214.548862 147.500872 
L 214.873841 112.809273 
L 215.198821 140.974528 
L 215.5238 104.484493 
L 215.84878 92.819069 
L 216.173759 168.710405 
L 216.498739 165.330377 
L 216.823718 181.510434 
L 217.148698 186.285222 
L 217.473677 133.631996 
L 217.798657 135.575887 
L 218.123636 202.748189 
L 218.448616 208.272025 
L 218.773595 139.930861 
L 219.098575 122.61717 
L 219.423554 136.62156 
L 219.748534 125.422647 
L 220.073514 185.671787 
L 220.398493 218.011412 
L 220.723473 134.089118 
L 221.048452 193.361468 
L 221.373432 156.424178 
L 221.698411 134.550115 
L 222.023391 141.008285 
L 222.34837 130.445073 
L 222.67335 164.687327 
L 222.998329 142.296186 
L 223.323309 194.611916 
L 223.648288 149.353273 
L 224.298247 198.387179 
L 224.623227 124.947721 
L 224.948206 188.944346 
L 225.273186 218.881187 
L 225.598165 175.340492 
L 225.923145 181.817179 
L 226.248124 135.888252 
L 226.573104 267.393338 
L 226.898084 175.606092 
L 227.223063 221.121644 
L 227.548043 194.906116 
L 227.873022 232.640251 
L 228.198002 166.821424 
L 228.522981 160.509399 
L 228.847961 161.323884 
L 229.17294 160.062656 
L 229.49792 199.748176 
L 229.822899 203.171179 
L 230.147879 176.257641 
L 230.472858 219.958221 
L 230.797838 213.277273 
L 231.122817 131.794655 
L 231.447797 177.241008 
L 231.772776 181.834231 
L 232.097756 196.240276 
L 232.422735 112.97199 
L 232.747715 127.054242 
L 233.072695 155.282835 
L 233.397674 168.061068 
L 233.722654 175.08641 
L 234.047633 201.842833 
L 234.372613 119.870981 
L 234.697592 209.334174 
L 235.022572 159.068462 
L 235.347551 171.874753 
L 235.672531 161.502977 
L 235.99751 143.76911 
L 236.32249 92.949656 
L 236.647469 182.408727 
L 236.972449 138.913456 
L 237.297428 139.955464 
L 237.622408 170.182315 
L 237.947387 225.065454 
L 238.272367 190.251364 
L 238.597346 124.728441 
L 238.922326 177.618324 
L 239.247305 157.052989 
L 239.897265 75.599666 
L 240.222244 151.2084 
L 240.547224 155.120394 
L 240.872203 191.721622 
L 241.197183 140.951817 
L 241.522162 186.195245 
L 241.847142 110.4562 
L 242.172121 119.099258 
L 242.497101 147.604385 
L 242.82208 211.554495 
L 243.14706 171.60109 
L 243.472039 110.348566 
L 243.797019 177.710871 
L 244.121998 188.809912 
L 244.446978 178.13943 
L 244.771957 211.941716 
L 245.096937 126.652323 
L 245.421916 160.093814 
L 245.746896 145.165454 
L 246.071876 191.412581 
L 246.396855 147.1821 
L 246.721835 127.905444 
L 247.371794 227.970283 
L 247.696773 197.325768 
L 248.021753 130.368531 
L 248.346732 127.949527 
L 248.671712 92.458431 
L 248.996691 159.766997 
L 249.321671 163.425843 
L 249.64665 228.150019 
L 249.97163 132.625469 
L 250.946568 233.536946 
L 251.271548 197.510362 
L 251.596527 201.407461 
L 251.921507 228.081231 
L 252.246486 197.202481 
L 252.896446 178.876053 
L 253.221425 229.757587 
L 253.546405 170.638075 
L 253.871384 134.920785 
L 254.196364 157.665297 
L 254.521343 140.043513 
L 254.846323 174.754954 
L 255.171302 187.716203 
L 255.496282 134.988305 
L 255.821261 173.438076 
L 256.146241 144.658221 
L 256.47122 175.765559 
L 256.7962 177.395056 
L 257.121179 137.304456 
L 257.771138 167.898768 
L 258.096118 94.279383 
L 258.421097 158.97018 
L 258.746077 102.594372 
L 259.071057 138.088164 
L 259.396036 188.047083 
L 259.721016 182.777292 
L 260.045995 191.875633 
L 260.370975 237.95473 
L 261.020934 202.506323 
L 261.345913 216.712303 
L 261.670893 181.90671 
L 261.995872 177.667959 
L 262.320852 188.971557 
L 262.645831 148.164768 
L 262.970811 145.342447 
L 263.29579 135.289948 
L 263.62077 183.176711 
L 263.945749 172.399683 
L 264.270729 126.761146 
L 264.595708 139.113891 
L 264.920688 115.822664 
L 265.245667 143.083886 
L 265.570647 191.13964 
L 265.895627 150.925575 
L 266.545586 217.072818 
L 266.870565 139.62709 
L 267.195545 111.631171 
L 267.520524 168.156297 
L 267.845504 111.343849 
L 268.170483 128.118641 
L 268.495463 105.603938 
L 268.820442 126.311896 
L 269.145422 95.25873 
L 269.470401 112.454657 
L 269.795381 154.505859 
L 270.12036 175.90295 
L 270.44534 157.39014 
L 270.770319 80.818615 
L 271.095299 187.308263 
L 271.420278 187.646065 
L 271.745258 171.064069 
L 272.395217 155.559245 
L 272.720197 136.258308 
L 273.370156 159.70552 
L 273.695135 141.92096 
L 274.020115 177.278988 
L 274.345094 159.308585 
L 274.670074 130.209627 
L 274.995053 147.82772 
L 275.320033 158.297553 
L 275.645012 196.777677 
L 275.969992 186.900341 
L 276.294971 158.72733 
L 276.619951 158.625625 
L 276.94493 181.888968 
L 277.26991 241.997942 
L 277.594889 177.110481 
L 277.919869 150.48162 
L 278.244848 177.126514 
L 278.569828 167.467942 
L 278.894808 196.373755 
L 279.544767 143.962228 
L 279.869746 132.828694 
L 280.194726 168.574097 
L 280.519705 122.659276 
L 280.844685 170.243481 
L 281.169664 140.11998 
L 281.819623 181.742645 
L 282.144603 210.181679 
L 282.469582 185.414479 
L 282.794562 125.185562 
L 283.119541 124.785821 
L 283.444521 142.897861 
L 283.7695 115.702365 
L 284.09448 77.809639 
L 284.419459 145.582594 
L 284.744439 119.648632 
L 285.069419 175.381355 
L 285.394398 160.200502 
L 285.719378 161.080124 
L 286.044357 147.52986 
L 286.694316 214.337096 
L 287.019296 211.991293 
L 287.344275 168.609043 
L 287.669255 174.924813 
L 287.994234 199.143403 
L 288.319214 180.209597 
L 288.644193 144.337071 
L 288.969173 201.256221 
L 289.619132 147.087916 
L 289.944111 135.241231 
L 290.269091 155.157085 
L 290.59407 198.16492 
L 290.91905 184.740513 
L 291.244029 165.874194 
L 291.569009 219.244607 
L 291.893989 180.681153 
L 292.218968 105.276704 
L 292.543948 145.258799 
L 292.868927 199.880515 
L 293.193907 183.497971 
L 293.518886 255.254306 
L 293.843866 186.529884 
L 294.168845 189.805636 
L 294.493825 179.433456 
L 294.818804 194.328945 
L 295.468763 156.214703 
L 295.793743 154.924487 
L 296.768681 187.242632 
L 297.093661 152.435951 
L 297.41864 177.951051 
L 297.74362 167.977584 
L 298.0686 181.796859 
L 298.393579 161.485226 
L 298.718559 153.772403 
L 299.043538 162.631087 
L 299.368518 212.832393 
L 299.693497 200.588133 
L 300.018477 173.108076 
L 300.343456 189.670283 
L 300.668436 191.557225 
L 300.993415 167.513037 
L 301.318395 186.711731 
L 301.643374 218.478411 
L 301.968354 212.451433 
L 302.293333 237.349948 
L 302.618313 152.851681 
L 303.268272 121.730438 
L 303.593251 114.567551 
L 303.918231 143.157792 
L 304.24321 148.015474 
L 304.56819 155.779874 
L 304.89317 145.474916 
L 305.218149 121.976804 
L 306.193088 172.485482 
L 306.518067 170.871371 
L 306.843047 234.381848 
L 307.168026 224.610611 
L 307.493006 191.313243 
L 307.817985 181.72635 
L 308.142965 155.319502 
L 308.467944 210.45035 
L 308.792924 166.755411 
L 309.117903 207.93979 
L 309.442883 205.004066 
L 309.767862 216.721995 
L 310.092842 183.586152 
L 310.417821 206.837272 
L 310.742801 197.566022 
L 311.067781 197.98732 
L 311.39276 161.412664 
L 311.71774 164.577628 
L 312.042719 180.599884 
L 312.367699 130.010706 
L 312.692678 186.136145 
L 313.017658 127.843834 
L 313.667617 196.110426 
L 313.992596 138.345666 
L 314.317576 126.791741 
L 314.642555 153.302971 
L 314.967535 147.407923 
L 315.292514 144.824151 
L 315.617494 126.590959 
L 315.942473 132.747198 
L 316.267453 163.696828 
L 316.917412 121.059935 
L 317.242391 132.303434 
L 317.892351 204.764188 
L 318.21733 139.558338 
L 319.192269 205.021748 
L 319.517248 157.07248 
L 319.842228 188.773383 
L 320.167207 142.395834 
L 320.492187 145.042057 
L 320.817166 172.766753 
L 321.142146 117.764491 
L 321.467125 124.055221 
L 321.792105 173.918183 
L 322.442064 114.255799 
L 323.092023 150.756559 
L 323.417002 181.98285 
L 323.741982 111.561228 
L 324.066962 156.253954 
L 324.391941 154.712574 
L 324.716921 208.099489 
L 325.0419 177.212409 
L 325.36688 130.826613 
L 325.691859 169.460434 
L 326.016839 131.206127 
L 326.341818 119.120835 
L 326.666798 133.339036 
L 326.991777 161.401974 
L 327.316757 132.191604 
L 327.641736 58.07645 
L 327.966716 111.069823 
L 328.291695 144.883595 
L 328.616675 161.08927 
L 328.941654 171.469831 
L 329.266634 94.398038 
L 329.591613 136.742696 
L 329.916593 146.564096 
L 330.241572 94.759641 
L 330.566552 115.78886 
L 330.891532 148.274804 
L 331.216511 109.340895 
L 331.541491 142.744055 
L 331.86647 132.866166 
L 332.19145 141.289091 
L 332.516429 192.42732 
L 332.841409 140.783786 
L 333.166388 108.651852 
L 333.491368 174.524713 
L 333.816347 123.248919 
L 334.141327 200.704051 
L 334.466306 205.739363 
L 334.791286 229.780665 
L 335.116265 189.360568 
L 335.441245 115.897223 
L 335.766224 206.978034 
L 336.091204 158.436032 
L 336.416183 155.117667 
L 336.741163 171.685284 
L 337.066143 214.622361 
L 337.391122 141.977576 
L 337.716102 131.238463 
L 338.041081 127.301281 
L 338.366061 116.388877 
L 338.69104 120.508142 
L 339.01602 135.22162 
L 339.340999 185.701418 
L 339.665979 175.580991 
L 339.990958 203.219964 
L 340.315938 144.346728 
L 340.640917 142.161556 
L 340.965897 192.690916 
L 341.290876 185.442271 
L 341.615856 146.24025 
L 341.940835 183.375705 
L 342.265815 176.335019 
L 342.590794 79.119142 
L 342.915774 90.696965 
L 343.565733 164.229232 
L 343.890713 100.64865 
L 344.215692 180.590606 
L 344.540672 118.070512 
L 344.865651 92.285666 
L 345.190631 112.223822 
L 345.51561 220.965723 
L 345.84059 145.724251 
L 346.165569 155.076576 
L 346.490549 156.600767 
L 346.815528 186.426025 
L 347.140508 200.411247 
L 347.465487 150.741065 
L 347.790467 182.176696 
L 348.115446 134.656008 
L 348.440426 222.076357 
L 348.765405 186.503247 
L 349.090385 204.714297 
L 349.415364 177.984714 
L 349.740344 182.142071 
L 350.065324 127.573506 
L 350.715283 216.911746 
L 351.040262 128.435058 
L 351.365242 150.221579 
L 351.690221 115.763325 
L 352.015201 64.698607 
L 352.34018 167.95084 
L 352.66516 158.985023 
L 352.990139 98.80744 
L 353.315119 155.695853 
L 353.640098 155.824687 
L 353.965078 115.803723 
L 354.290057 160.178763 
L 354.615037 183.084891 
L 354.940016 130.792587 
L 355.264996 187.588254 
L 355.589975 124.263546 
L 355.914955 113.292187 
L 356.239934 160.83501 
L 356.564914 184.537608 
L 356.889894 164.669432 
L 357.214873 175.091404 
L 357.864832 128.658451 
L 358.189812 193.312402 
L 358.514791 164.40859 
L 358.839771 145.858086 
L 359.16475 155.10076 
L 359.48973 140.540143 
L 359.814709 155.794406 
L 360.139689 184.397761 
L 360.464668 185.633042 
L 360.789648 204.421671 
L 361.114627 169.005276 
L 361.439607 193.171827 
L 361.764586 176.225988 
L 362.089566 200.611877 
L 362.414545 144.320485 
L 362.739525 141.354832 
L 363.064505 106.33517 
L 363.389484 161.617149 
L 363.714464 141.932804 
L 364.039443 205.441087 
L 364.364423 85.089668 
L 364.689402 147.469417 
L 365.014382 171.92071 
L 365.339361 126.779635 
L 365.664341 106.235181 
L 365.98932 131.905239 
L 366.3143 131.106761 
L 366.639279 228.81106 
L 366.964259 104.707798 
L 367.614218 182.507988 
L 367.939197 162.414111 
L 368.264177 171.000522 
L 368.589156 147.763516 
L 368.914136 195.146102 
L 369.239115 161.756877 
L 369.564095 243.413392 
L 369.889075 130.996282 
L 370.214054 252.370316 
L 370.539034 147.329598 
L 371.188993 217.79085 
L 371.513972 128.074795 
L 371.838952 140.781545 
L 372.163931 214.395186 
L 372.488911 180.792813 
L 372.81389 233.223296 
L 373.13887 164.419124 
L 373.463849 178.114443 
L 373.788829 215.882087 
L 374.113808 127.846736 
L 374.763767 245.736055 
L 375.088747 193.294601 
L 375.413726 185.174642 
L 375.738706 191.183047 
L 376.063686 190.479667 
L 376.388665 182.625904 
L 376.713645 269.397824 
L 377.038624 199.376458 
L 377.363604 188.662204 
L 377.688583 206.994888 
L 378.013563 170.038602 
L 378.338542 158.147134 
L 378.663522 167.548019 
L 378.988501 142.083297 
L 379.313481 195.729426 
L 379.63846 154.516017 
L 379.96344 184.509304 
L 380.288419 145.285373 
L 380.613399 193.535405 
L 380.938378 132.035781 
L 381.263358 112.077504 
L 381.588337 161.23613 
L 381.913317 115.084051 
L 382.238296 145.405289 
L 382.563276 86.804915 
L 382.888256 146.309335 
L 383.213235 159.031933 
L 383.538215 138.773195 
L 383.863194 133.136568 
L 384.188174 187.983438 
L 384.513153 206.802626 
L 384.838133 151.326777 
L 385.163112 128.503043 
L 385.488092 116.479656 
L 385.813071 118.105299 
L 386.138051 161.623036 
L 386.46303 124.954131 
L 386.78801 156.466992 
L 387.112989 153.299636 
L 387.437969 186.508932 
L 387.762948 168.684244 
L 388.087928 182.73289 
L 388.412907 220.80906 
L 388.737887 235.83499 
L 389.062867 196.502475 
L 389.387846 180.849189 
L 389.712826 231.968365 
L 390.037805 136.746025 
L 390.687764 206.054705 
L 391.012744 136.220363 
L 391.337723 140.587394 
L 391.662703 210.355439 
L 391.987682 210.995965 
L 392.312662 185.985104 
L 392.637641 182.840247 
L 392.962621 148.612234 
L 393.2876 139.358267 
L 393.61258 85.016922 
L 394.262539 225.085098 
L 394.587518 195.773958 
L 394.912498 195.101832 
L 395.237477 153.480738 
L 395.562457 194.296075 
L 395.887437 141.94054 
L 396.212416 155.409063 
L 396.537396 101.563512 
L 396.862375 98.334017 
L 397.187355 219.501273 
L 397.512334 169.135155 
L 397.837314 194.340113 
L 398.162293 184.809447 
L 398.487273 210.52212 
L 398.487273 210.52212 
" clip-path="url(#p692045cbc4)" style="fill: none; stroke: #1f77b4; stroke-width: 1.5; stroke-linecap: square"/>
   </g>
   <g id="line2d_16">
    <path d="M 73.832727 123.5442 
L 74.157707 102.734015 
L 74.482686 173.138023 
L 74.807666 150.346159 
L 75.132645 196.500496 
L 75.457625 215.864266 
L 75.782604 201.421445 
L 76.107584 155.565805 
L 76.432563 150.342513 
L 77.082523 195.064618 
L 77.407502 140.206641 
L 77.732482 136.011485 
L 78.057461 149.537465 
L 78.382441 197.931016 
L 79.0324 139.201322 
L 79.357379 170.218924 
L 79.682359 188.743126 
L 80.007338 228.185248 
L 80.332318 206.448792 
L 80.657297 216.666279 
L 81.307256 167.314871 
L 81.632236 133.210994 
L 81.957215 168.552987 
L 82.282195 181.871251 
L 82.607174 186.390732 
L 82.932154 245.850725 
L 83.257133 194.500656 
L 83.582113 191.744931 
L 83.907093 226.348166 
L 84.232072 202.574735 
L 84.557052 246.456416 
L 84.882031 191.881356 
L 85.207011 199.373188 
L 85.53199 193.247874 
L 85.85697 182.181111 
L 86.181949 206.375017 
L 86.506929 184.167981 
L 86.831908 170.593878 
L 87.156888 118.760225 
L 87.481867 187.404528 
L 87.806847 181.113743 
L 88.131826 156.124437 
L 88.781785 232.032531 
L 89.106765 217.773684 
L 89.431744 215.125737 
L 89.756724 137.910841 
L 90.081704 153.920517 
L 90.406683 204.692598 
L 90.731663 115.631988 
L 91.056642 131.689633 
L 91.381622 169.208469 
L 91.706601 129.083414 
L 92.031581 156.464733 
L 92.35656 163.113001 
L 92.68154 118.240687 
L 93.006519 89.15299 
L 93.331499 168.234797 
L 93.656478 167.978989 
L 93.981458 177.925303 
L 94.306437 181.943409 
L 94.631417 175.290084 
L 94.956396 223.531354 
L 95.281376 159.5493 
L 95.606355 184.481551 
L 95.931335 171.464035 
L 96.256314 186.924929 
L 96.581294 168.978998 
L 96.906274 180.458163 
L 97.231253 244.770872 
L 97.556233 206.062815 
L 97.881212 135.756786 
L 98.206192 190.294342 
L 98.531171 186.498044 
L 98.856151 119.304496 
L 99.18113 161.489366 
L 99.50611 167.666032 
L 99.831089 131.485597 
L 100.156069 155.231949 
L 100.481048 123.624724 
L 101.131007 189.48974 
L 101.455987 201.031112 
L 101.780966 97.339572 
L 102.105946 144.800104 
L 102.430925 224.897186 
L 102.755905 154.707911 
L 103.080885 220.372536 
L 103.405864 195.685093 
L 103.730844 204.116676 
L 104.055823 136.86971 
L 104.380803 193.35547 
L 104.705782 165.885675 
L 105.030762 176.583363 
L 105.355741 115.405089 
L 105.680721 127.913189 
L 106.0057 126.699723 
L 106.33068 215.557556 
L 106.980639 116.752011 
L 107.305618 208.653692 
L 107.630598 192.754358 
L 107.955577 200.780886 
L 108.280557 213.38456 
L 108.605536 178.837457 
L 108.930516 171.971571 
L 109.255495 115.651769 
L 109.580475 146.670608 
L 109.905455 137.894019 
L 110.230434 160.994759 
L 110.555414 125.174651 
L 110.880393 150.969862 
L 111.205373 75.223977 
L 111.530352 140.951165 
L 111.855332 133.519646 
L 112.180311 108.59625 
L 112.505291 96.800447 
L 112.83027 185.864889 
L 113.480229 143.20934 
L 113.805209 153.517119 
L 114.130188 289.935455 
L 114.455168 171.233477 
L 114.780147 96.987649 
L 115.105127 148.663856 
L 115.430106 165.389685 
L 115.755086 233.757332 
L 116.080066 172.560056 
L 116.405045 203.683237 
L 116.730025 194.555092 
L 117.055004 151.621539 
L 117.704963 171.040538 
L 118.029943 161.164869 
L 118.354922 86.741151 
L 118.679902 162.410188 
L 119.004881 153.191946 
L 119.329861 174.234435 
L 119.65484 142.320117 
L 119.97982 147.791859 
L 120.304799 201.205911 
L 120.629779 190.578653 
L 120.954758 185.892386 
L 121.279738 149.577831 
L 121.604717 159.657887 
L 121.929697 184.883418 
L 122.254676 159.919468 
L 122.579656 162.067409 
L 123.229615 105.100408 
L 123.554595 121.686353 
L 123.879574 177.647664 
L 124.204554 162.41821 
L 124.529533 185.653724 
L 124.854513 246.550315 
L 125.179492 153.079856 
L 125.504472 207.407347 
L 125.829451 194.989978 
L 126.154431 157.645843 
L 126.47941 145.963796 
L 126.80439 181.283771 
L 127.129369 184.500314 
L 127.454349 171.458605 
L 127.779328 170.686984 
L 128.104308 262.61448 
L 128.429287 117.751987 
L 128.754267 154.308057 
L 129.079247 97.294643 
L 129.404226 150.52469 
L 129.729206 134.901646 
L 130.054185 154.31479 
L 130.379165 152.084989 
L 130.704144 210.182503 
L 131.029124 146.199467 
L 131.354103 201.94117 
L 131.679083 186.095436 
L 132.004062 178.860934 
L 132.329042 92.504055 
L 132.654021 198.725274 
L 132.979001 179.332718 
L 133.30398 105.525782 
L 133.62896 172.373877 
L 133.953939 190.882578 
L 134.278919 151.712944 
L 134.603898 185.349509 
L 134.928878 184.943893 
L 135.578837 105.422885 
L 135.903817 134.951174 
L 136.553776 154.761214 
L 136.878755 77.030396 
L 137.528714 167.263995 
L 137.853694 143.079376 
L 138.178673 174.850635 
L 138.503653 102.908861 
L 138.828632 147.828378 
L 139.153612 158.337842 
L 139.478591 212.009137 
L 139.803571 194.110821 
L 140.12855 188.027527 
L 140.778509 149.773781 
L 141.103489 189.09348 
L 141.428468 151.688046 
L 141.753448 182.390357 
L 142.078428 166.817669 
L 142.403407 170.651367 
L 142.728387 170.44253 
L 143.053366 159.521008 
L 143.378346 210.475184 
L 143.703325 178.388841 
L 144.028305 220.032173 
L 144.353284 216.187767 
L 144.678264 190.140268 
L 145.003243 142.269943 
L 145.328223 137.652137 
L 145.653202 142.968181 
L 145.978182 209.871003 
L 146.303161 153.681845 
L 146.628141 234.697297 
L 146.95312 212.964234 
L 147.2781 232.676848 
L 147.603079 222.152716 
L 147.928059 164.123694 
L 148.253038 164.587872 
L 148.578018 147.20169 
L 148.902998 155.304593 
L 149.227977 208.369535 
L 149.877936 126.559112 
L 150.202916 159.729517 
L 150.527895 129.735289 
L 150.852875 202.642173 
L 151.502834 98.274923 
L 151.827813 165.866919 
L 152.477772 117.373963 
L 152.802752 179.46056 
L 153.127731 177.044072 
L 153.452711 193.888127 
L 153.77769 177.758236 
L 154.10267 172.682124 
L 154.427649 181.511602 
L 154.752629 185.614956 
L 155.077609 183.865166 
L 155.402588 135.679744 
L 155.727568 156.627885 
L 156.052547 136.021886 
L 156.377527 227.358865 
L 156.702506 135.327563 
L 157.027486 149.315924 
L 157.352465 192.098329 
L 157.677445 164.523044 
L 158.002424 127.396448 
L 158.327404 174.904085 
L 158.652383 181.27615 
L 158.977363 132.947615 
L 159.302342 175.950004 
L 159.627322 143.125263 
L 159.952301 182.90869 
L 160.277281 203.355302 
L 160.60226 206.028886 
L 161.252219 212.8887 
L 161.577199 127.651509 
L 161.902179 146.997435 
L 162.227158 99.094089 
L 162.552138 127.469824 
L 162.877117 134.890263 
L 163.202097 76.643028 
L 163.527076 167.738351 
L 163.852056 142.578712 
L 164.502015 176.792187 
L 164.826994 185.330967 
L 165.151974 156.57851 
L 165.476953 155.412551 
L 165.801933 171.29411 
L 166.126912 157.028287 
L 166.451892 149.490851 
L 166.776871 145.271019 
L 167.101851 131.752354 
L 167.42683 180.172936 
L 167.75181 145.327419 
L 168.07679 199.678132 
L 168.401769 191.55421 
L 168.726749 142.736402 
L 169.051728 162.765386 
L 169.376708 157.325371 
L 169.701687 158.323396 
L 170.026667 106.804058 
L 170.351646 85.228713 
L 171.001605 168.380833 
L 171.326585 123.467098 
L 171.651564 162.99927 
L 171.976544 178.351963 
L 172.301523 159.041939 
L 172.626503 167.050527 
L 172.951482 187.731294 
L 173.276462 164.156195 
L 173.601441 207.114893 
L 173.926421 155.138308 
L 174.2514 205.268314 
L 174.90136 150.013326 
L 175.226339 143.159567 
L 175.551319 128.139544 
L 175.876298 194.278655 
L 176.201278 157.335689 
L 176.526257 162.479003 
L 176.851237 122.263557 
L 177.176216 118.742345 
L 177.501196 157.80001 
L 177.826175 133.07423 
L 178.151155 159.968957 
L 178.476134 163.206934 
L 178.801114 148.05284 
L 179.126093 168.768318 
L 179.451073 105.767284 
L 179.776052 159.812532 
L 180.101032 168.47354 
L 180.426011 138.103834 
L 180.750991 133.056825 
L 181.075971 156.644814 
L 181.40095 131.59218 
L 181.72593 162.162061 
L 182.050909 125.485906 
L 182.375889 113.94273 
L 182.700868 144.319665 
L 183.350827 170.731663 
L 183.675807 97.858726 
L 184.000786 158.831948 
L 184.325766 96.129338 
L 184.650745 118.805334 
L 184.975725 168.72453 
L 185.300704 131.993716 
L 185.625684 173.229276 
L 185.950663 190.965976 
L 186.275643 153.319002 
L 186.600622 144.314614 
L 186.925602 171.554469 
L 187.250581 100.083673 
L 187.575561 230.668756 
L 187.900541 197.104009 
L 188.22552 179.912883 
L 188.5505 200.225669 
L 188.875479 277.960288 
L 189.200459 157.334599 
L 189.525438 115.753518 
L 189.850418 112.248169 
L 190.175397 88.908825 
L 190.500377 155.670124 
L 190.825356 104.155392 
L 191.150336 157.78837 
L 191.475315 125.058613 
L 191.800295 187.006843 
L 192.125274 128.312749 
L 192.450254 157.670557 
L 192.775233 151.133834 
L 193.100213 163.29766 
L 193.425192 113.067741 
L 193.750172 89.654529 
L 194.075152 190.765548 
L 194.400131 191.952546 
L 194.725111 119.162395 
L 195.05009 182.603664 
L 195.700049 101.479197 
L 196.025029 167.225329 
L 196.350008 189.04854 
L 196.674988 199.414513 
L 196.999967 143.241224 
L 197.324947 176.076238 
L 197.649926 151.894928 
L 197.974906 151.792248 
L 198.299885 152.980963 
L 198.624865 170.112577 
L 198.949844 212.686558 
L 199.274824 142.069476 
L 199.924783 165.153421 
L 200.249762 170.834627 
L 200.574742 126.357054 
L 200.899722 142.799064 
L 201.224701 180.484993 
L 201.549681 178.463755 
L 201.87466 183.381376 
L 202.19964 174.641218 
L 202.524619 182.201284 
L 202.849599 179.050869 
L 203.174578 230.088781 
L 203.499558 124.198982 
L 203.824537 169.248823 
L 204.149517 195.164787 
L 204.474496 160.96053 
L 204.799476 176.588335 
L 205.124455 155.878161 
L 205.449435 123.732883 
L 206.099394 159.714835 
L 206.424373 221.894845 
L 207.074333 151.134855 
L 207.399312 181.680322 
L 207.724292 185.46216 
L 208.049271 174.672326 
L 208.374251 170.810207 
L 208.69923 98.550832 
L 209.02421 148.172737 
L 209.349189 170.049649 
L 209.674169 141.065288 
L 209.999148 132.909715 
L 210.324128 106.732452 
L 210.974087 215.526666 
L 211.299066 239.24876 
L 211.624046 143.941671 
L 211.949025 139.041236 
L 212.274005 117.171381 
L 212.598984 164.998473 
L 212.923964 179.156189 
L 213.248943 82.596406 
L 213.573923 102.756218 
L 213.898903 140.195004 
L 214.223882 143.514583 
L 214.548862 102.760286 
L 215.198821 195.222057 
L 215.5238 204.463509 
L 215.84878 190.209549 
L 216.498739 128.085847 
L 216.823718 135.939044 
L 217.148698 112.532825 
L 217.473677 183.329696 
L 217.798657 183.001288 
L 218.123636 205.519386 
L 218.448616 199.02433 
L 218.773595 234.953022 
L 219.423554 216.62025 
L 219.748534 178.164684 
L 220.073514 183.846075 
L 220.398493 130.451757 
L 220.723473 197.860694 
L 221.048452 160.170014 
L 221.373432 216.959953 
L 221.698411 134.507184 
L 222.023391 159.993017 
L 222.34837 133.757509 
L 222.67335 137.477867 
L 222.998329 131.292528 
L 223.323309 109.071143 
L 223.648288 204.7598 
L 223.973268 228.572855 
L 224.298247 117.162533 
L 224.623227 114.503188 
L 224.948206 191.795264 
L 225.273186 80.366019 
L 225.598165 185.997841 
L 225.923145 132.370462 
L 226.248124 170.824362 
L 226.573104 182.684519 
L 226.898084 115.247924 
L 227.223063 180.153206 
L 227.548043 180.73162 
L 227.873022 176.696162 
L 228.198002 145.927069 
L 228.522981 135.028743 
L 228.847961 189.947417 
L 229.17294 126.8571 
L 229.822899 202.960413 
L 230.147879 191.785717 
L 230.472858 216.988609 
L 230.797838 219.753911 
L 231.447797 154.901521 
L 231.772776 210.201839 
L 232.097756 115.060403 
L 232.422735 190.741565 
L 232.747715 185.946468 
L 233.397674 264.200721 
L 234.372613 170.540037 
L 234.697592 197.900984 
L 235.022572 143.021106 
L 235.347551 157.373621 
L 235.672531 187.951454 
L 235.99751 163.847346 
L 236.32249 176.677029 
L 236.647469 227.170403 
L 236.972449 141.672528 
L 237.622408 249.521154 
L 237.947387 162.37341 
L 238.272367 148.663374 
L 238.597346 188.651535 
L 238.922326 144.257617 
L 239.247305 186.730129 
L 239.572285 137.493206 
L 239.897265 194.965054 
L 240.222244 196.83462 
L 240.547224 182.351305 
L 240.872203 184.963702 
L 241.197183 199.988291 
L 241.522162 198.978495 
L 241.847142 247.162952 
L 242.172121 172.867367 
L 242.497101 168.408397 
L 242.82208 136.407962 
L 243.14706 124.934337 
L 243.472039 181.20491 
L 243.797019 213.23412 
L 244.121998 137.330951 
L 244.446978 137.866017 
L 244.771957 167.291503 
L 245.096937 145.10798 
L 245.421916 175.797022 
L 245.746896 227.405265 
L 246.071876 214.472258 
L 246.396855 226.035434 
L 246.721835 217.660182 
L 247.046814 119.856425 
L 247.371794 103.940608 
L 247.696773 137.541734 
L 248.021753 93.770103 
L 248.346732 177.390855 
L 248.671712 225.448415 
L 248.996691 173.448068 
L 249.64665 203.95633 
L 249.97163 167.159655 
L 250.296609 170.742885 
L 250.621589 185.936554 
L 250.946568 144.307286 
L 251.271548 142.392443 
L 251.596527 165.712882 
L 251.921507 122.037284 
L 252.571466 163.618392 
L 252.896446 151.144744 
L 253.221425 116.577167 
L 253.546405 145.908121 
L 253.871384 203.628551 
L 254.196364 157.075718 
L 254.521343 215.285838 
L 254.846323 110.605975 
L 255.171302 143.033594 
L 255.821261 182.359056 
L 256.146241 167.926746 
L 256.47122 201.339086 
L 257.121179 143.84155 
L 257.446159 192.913839 
L 257.771138 169.80133 
L 258.096118 136.094754 
L 258.421097 133.821276 
L 258.746077 178.614875 
L 259.396036 93.337799 
L 259.721016 120.971864 
L 260.045995 96.454304 
L 260.370975 139.818783 
L 260.695954 153.514775 
L 261.020934 150.821621 
L 261.345913 159.485801 
L 261.670893 213.92223 
L 261.995872 126.932507 
L 262.320852 111.327752 
L 262.645831 199.384976 
L 262.970811 176.530419 
L 263.29579 125.255786 
L 263.62077 163.304276 
L 263.945749 67.487554 
L 264.270729 197.185504 
L 264.595708 133.553254 
L 264.920688 175.221545 
L 265.245667 193.161574 
L 265.570647 104.374278 
L 265.895627 168.323546 
L 266.220606 136.32619 
L 266.545586 198.588906 
L 266.870565 168.433843 
L 267.520524 138.196687 
L 267.845504 126.964771 
L 268.170483 234.285777 
L 268.495463 132.895339 
L 268.820442 175.453944 
L 269.145422 164.240331 
L 269.470401 132.653193 
L 269.795381 195.329121 
L 270.12036 109.500272 
L 270.44534 160.562298 
L 270.770319 173.549715 
L 271.095299 177.178756 
L 271.420278 207.811457 
L 271.745258 190.118219 
L 272.070238 105.399683 
L 272.395217 192.799847 
L 272.720197 165.474285 
L 273.045176 222.961589 
L 273.370156 174.349922 
L 273.695135 169.257679 
L 274.020115 176.422034 
L 274.345094 175.718397 
L 274.670074 131.686082 
L 274.995053 132.562982 
L 275.320033 160.242963 
L 275.645012 114.954265 
L 275.969992 157.806827 
L 276.294971 118.173575 
L 276.619951 139.715648 
L 276.94493 151.486735 
L 277.26991 174.200317 
L 277.594889 222.1816 
L 277.919869 138.56446 
L 278.244848 229.795813 
L 278.569828 165.200852 
L 278.894808 190.48676 
L 279.219787 185.984331 
L 279.544767 178.013103 
L 279.869746 247.822092 
L 280.194726 244.720578 
L 281.169664 131.429255 
L 281.494644 192.239198 
L 281.819623 177.993317 
L 282.144603 182.336942 
L 282.469582 220.070495 
L 282.794562 223.065259 
L 283.119541 174.567854 
L 283.444521 176.082667 
L 283.7695 140.149532 
L 284.09448 149.084544 
L 284.419459 197.336476 
L 284.744439 153.009184 
L 285.069419 176.959815 
L 285.394398 184.902408 
L 285.719378 175.78002 
L 286.044357 170.602748 
L 286.369337 199.667454 
L 286.694316 146.067296 
L 287.669255 179.555017 
L 287.994234 231.562041 
L 288.319214 149.180035 
L 288.644193 183.831185 
L 288.969173 169.079752 
L 289.294152 181.524768 
L 289.619132 178.818245 
L 289.944111 170.137183 
L 290.269091 140.19787 
L 290.59407 143.600949 
L 290.91905 157.221169 
L 291.244029 158.078262 
L 291.569009 148.281482 
L 291.893989 196.338589 
L 292.218968 159.158251 
L 292.543948 154.950372 
L 292.868927 222.527387 
L 293.193907 108.766742 
L 293.518886 196.905524 
L 293.843866 123.803547 
L 294.493825 183.636618 
L 294.818804 194.481853 
L 295.143784 149.925184 
L 295.793743 157.044067 
L 296.118722 131.58994 
L 296.443702 160.579068 
L 296.768681 222.815366 
L 297.41864 136.611369 
L 297.74362 174.130669 
L 298.393579 191.619352 
L 298.718559 216.922815 
L 299.043538 184.083889 
L 299.368518 218.078382 
L 299.693497 216.088693 
L 300.018477 251.129503 
L 300.343456 174.220885 
L 300.668436 168.811045 
L 300.993415 149.590023 
L 301.318395 194.46491 
L 301.643374 176.863712 
L 301.968354 111.043848 
L 302.618313 163.208746 
L 302.943292 164.552443 
L 303.268272 218.256054 
L 303.593251 223.663396 
L 304.24321 151.066633 
L 304.56819 155.703725 
L 304.89317 128.384379 
L 305.218149 133.389791 
L 305.543129 179.157977 
L 305.868108 67.500124 
L 306.518067 203.058398 
L 306.843047 145.556431 
L 307.168026 181.978936 
L 307.493006 188.351338 
L 307.817985 153.632571 
L 308.142965 189.771122 
L 308.467944 172.027305 
L 308.792924 200.92405 
L 309.117903 181.846931 
L 309.442883 208.569849 
L 309.767862 178.297203 
L 310.092842 178.073707 
L 310.742801 201.402689 
L 311.067781 200.392397 
L 311.39276 213.144252 
L 311.71774 209.951095 
L 312.042719 186.249767 
L 312.367699 130.542084 
L 312.692678 201.575853 
L 313.017658 220.520562 
L 313.342637 186.530877 
L 313.667617 166.936962 
L 313.992596 165.147897 
L 314.317576 200.920584 
L 314.642555 197.169173 
L 314.967535 187.344552 
L 315.292514 167.746788 
L 315.617494 139.064782 
L 315.942473 136.154474 
L 316.267453 174.883478 
L 316.592432 150.640806 
L 316.917412 150.404819 
L 317.242391 210.491655 
L 317.567371 137.671684 
L 317.892351 186.652398 
L 318.21733 155.785834 
L 318.54231 141.488557 
L 318.867289 168.901898 
L 319.192269 141.549205 
L 319.517248 165.632062 
L 319.842228 204.857247 
L 320.167207 202.47625 
L 320.492187 181.52269 
L 320.817166 195.747555 
L 321.142146 164.2496 
L 321.467125 165.250966 
L 321.792105 81.243461 
L 322.117084 151.238712 
L 322.442064 139.119517 
L 322.767043 80.957625 
L 323.092023 167.311878 
L 323.417002 205.727832 
L 323.741982 205.125248 
L 324.066962 175.340714 
L 324.391941 125.821515 
L 324.716921 153.581119 
L 325.0419 213.929307 
L 325.36688 295.488 
L 325.691859 202.712315 
L 326.016839 234.007966 
L 326.341818 169.941112 
L 326.666798 164.688355 
L 326.991777 189.286078 
L 327.316757 199.651622 
L 327.641736 156.515345 
L 328.291695 199.825635 
L 328.616675 166.553359 
L 328.941654 184.786285 
L 329.266634 194.808011 
L 329.591613 195.553188 
L 329.916593 199.142182 
L 330.241572 197.506982 
L 330.566552 188.321594 
L 330.891532 215.753691 
L 331.216511 215.61213 
L 331.541491 221.422975 
L 331.86647 203.278569 
L 332.19145 136.376373 
L 332.516429 156.554532 
L 332.841409 155.125111 
L 333.166388 203.012194 
L 333.491368 200.301829 
L 333.816347 149.630262 
L 334.141327 186.138547 
L 334.466306 258.909264 
L 334.791286 161.842234 
L 335.116265 212.534476 
L 335.441245 168.861849 
L 335.766224 141.057802 
L 336.091204 167.027457 
L 336.416183 142.281253 
L 336.741163 159.594071 
L 337.066143 207.149483 
L 337.391122 138.225739 
L 337.716102 151.85809 
L 338.041081 203.299733 
L 338.366061 165.526004 
L 338.69104 203.842922 
L 339.01602 155.478882 
L 339.340999 195.696014 
L 339.665979 215.927825 
L 339.990958 160.81971 
L 340.315938 215.399604 
L 340.640917 120.776137 
L 340.965897 221.644919 
L 341.615856 128.386046 
L 341.940835 237.340181 
L 342.265815 223.300637 
L 342.590794 190.423336 
L 342.915774 179.327903 
L 343.565733 195.136308 
L 343.890713 218.665216 
L 344.215692 217.827859 
L 344.540672 252.248812 
L 344.865651 158.382582 
L 345.190631 200.782737 
L 345.51561 220.534104 
L 345.84059 228.23384 
L 346.165569 206.549558 
L 346.490549 198.584565 
L 346.815528 215.327071 
L 347.140508 133.142501 
L 347.465487 220.258051 
L 347.790467 149.982712 
L 348.115446 172.972165 
L 348.440426 210.00468 
L 349.090385 178.445731 
L 349.415364 203.423008 
L 350.065324 184.718626 
L 350.390303 182.542379 
L 350.715283 240.512044 
L 351.040262 214.395966 
L 351.365242 201.29898 
L 351.690221 258.277039 
L 352.015201 224.135714 
L 352.34018 258.839167 
L 352.990139 134.659985 
L 353.315119 224.113635 
L 353.640098 188.853009 
L 353.965078 201.485595 
L 354.290057 149.978015 
L 354.615037 151.20386 
L 354.940016 192.669549 
L 355.264996 201.818067 
L 355.589975 193.959535 
L 355.914955 152.943886 
L 356.564914 209.145593 
L 356.889894 213.042017 
L 357.214873 155.237285 
L 357.539853 151.998533 
L 358.189812 212.839827 
L 358.514791 148.361434 
L 358.839771 112.13728 
L 359.16475 247.422173 
L 359.48973 193.648399 
L 360.464668 134.925014 
L 360.789648 205.090278 
L 361.114627 179.909413 
L 361.439607 143.623512 
L 361.764586 164.032967 
L 362.089566 114.743667 
L 362.414545 126.96023 
L 362.739525 167.953447 
L 363.064505 170.977986 
L 363.389484 165.441443 
L 363.714464 108.389793 
L 364.039443 188.430314 
L 364.364423 186.994781 
L 364.689402 182.001426 
L 365.014382 234.912197 
L 365.339361 165.017884 
L 365.664341 170.351147 
L 365.98932 167.538471 
L 366.639279 115.238402 
L 366.964259 151.691179 
L 367.289238 135.111157 
L 367.614218 77.948934 
L 367.939197 150.628624 
L 368.264177 115.911434 
L 368.589156 123.763411 
L 368.914136 178.223441 
L 369.239115 157.808307 
L 369.564095 176.725351 
L 369.889075 212.890374 
L 370.214054 151.857431 
L 370.539034 164.446533 
L 370.864013 159.270819 
L 371.188993 166.191282 
L 371.513972 148.862228 
L 371.838952 114.655179 
L 372.163931 151.375438 
L 372.488911 204.030644 
L 372.81389 150.788264 
L 373.13887 197.87603 
L 373.463849 200.779898 
L 374.113808 106.812557 
L 374.438788 169.81888 
L 374.763767 190.057583 
L 375.088747 125.941801 
L 375.413726 193.409081 
L 375.738706 163.714951 
L 376.063686 194.322134 
L 376.388665 212.054699 
L 376.713645 169.065556 
L 377.363604 236.932 
L 377.688583 201.94088 
L 378.013563 194.219379 
L 378.338542 170.235395 
L 378.663522 187.400798 
L 378.988501 177.470777 
L 379.313481 195.840308 
L 379.63846 95.081155 
L 379.96344 123.997558 
L 380.288419 217.293489 
L 380.613399 147.093299 
L 380.938378 193.106216 
L 381.263358 209.748971 
L 381.588337 194.350452 
L 381.913317 213.362745 
L 382.563276 118.294092 
L 382.888256 137.33324 
L 383.213235 118.941336 
L 383.538215 163.362237 
L 383.863194 121.538943 
L 384.513153 171.304887 
L 384.838133 166.867559 
L 385.163112 217.389851 
L 385.488092 188.320288 
L 385.813071 181.844956 
L 386.138051 228.426801 
L 386.46303 153.815317 
L 386.78801 187.685029 
L 387.112989 164.551635 
L 387.437969 228.083668 
L 387.762948 196.504916 
L 388.087928 217.759776 
L 388.412907 216.60199 
L 388.737887 170.834711 
L 389.062867 159.409112 
L 389.387846 166.370736 
L 389.712826 175.894607 
L 390.687764 113.331475 
L 391.012744 147.724328 
L 391.337723 131.86169 
L 391.662703 91.807212 
L 391.987682 101.735324 
L 392.637641 149.412581 
L 392.962621 115.309145 
L 393.2876 134.363292 
L 393.61258 179.322882 
L 393.937559 137.477037 
L 394.262539 141.207394 
L 394.587518 208.06998 
L 394.912498 107.232071 
L 395.237477 115.58703 
L 395.562457 200.194709 
L 395.887437 200.992491 
L 396.212416 186.301896 
L 396.862375 231.347475 
L 397.187355 206.628796 
L 397.512334 207.406017 
L 397.837314 133.464109 
L 398.162293 158.462307 
L 398.487273 201.504526 
L 398.487273 201.504526 
" clip-path="url(#p692045cbc4)" style="fill: none; stroke: #ff7f0e; stroke-width: 1.5; stroke-linecap: square"/>
   </g>
   <g id="patch_3">
    <path d="M 57.6 307.584 
L 57.6 41.472 
" style="fill: none; stroke: #000000; stroke-width: 0.8; stroke-linejoin: miter; stroke-linecap: square"/>
   </g>
   <g id="patch_4">
    <path d="M 414.72 307.584 
L 414.72 41.472 
" style="fill: none; stroke: #000000; stroke-width: 0.8; stroke-linejoin: miter; stroke-linecap: square"/>
   </g>
   <g id="patch_5">
    <path d="M 57.6 307.584 
L 414.72 307.584 
" style="fill: none; stroke: #000000; stroke-width: 0.8; stroke-linejoin: miter; stroke-linecap: square"/>
   </g>
   <g id="patch_6">
    <path d="M 57.6 41.472 
L 414.72 41.472 
" style="fill: none; stroke: #000000; stroke-width: 0.8; stroke-linejoin: miter; stroke-linecap: square"/>
   </g>
  </g>
 </g>
 <defs>
  <clipPath id="p692045cbc4">
   <rect x="57.6" y="41.472" width="357.12" height="266.112"/>
  </clipPath>
 </defs>
</svg>
