<?xml version="1.0" encoding="utf-8" standalone="no"?>
<!DOCTYPE svg PUBLIC "-//W3C//DTD SVG 1.1//EN"
  "http://www.w3.org/Graphics/SVG/1.1/DTD/svg11.dtd">
<svg xmlns:xlink="http://www.w3.org/1999/xlink" width="460.8pt" height="345.6pt" viewBox="0 0 460.8 345.6" xmlns="http://www.w3.org/2000/svg" version="1.1">
 <metadata>
  <rdf:RDF xmlns:dc="http://purl.org/dc/elements/1.1/" xmlns:cc="http://creativecommons.org/ns#" xmlns:rdf="http://www.w3.org/1999/02/22-rdf-syntax-ns#">
   <cc:Work>
    <dc:type rdf:resource="http://purl.org/dc/dcmitype/StillImage"/>
    <dc:date>2025-12-15T10:14:31.220945</dc:date>
    <dc:format>image/svg+xml</dc:format>
    <dc:creator>
     <cc:Agent>
      <dc:title>Matplotlib v3.10.6, https://matplotlib.org/</dc:title>
     </cc:Agent>
    </dc:creator>
   </cc:Work>
  </rdf:RDF>
 </metadata>
 <defs>
  <style type="text/css">*{stroke-linejoin: round; stroke-linecap: butt}</style>
 </defs>
 <g id="figure_1">
  <g id="patch_1">
   <path d="M 0 345.6 
L 460.8 345.6 
L 460.8 0 
L 0 0 
z
" style="fill: #ffffff"/>
  </g>
  <g id="axes_1">
   <g id="patch_2">
    <path d="M 83.6075 266.245 
L 426.847748 266.245 
L 426.847748 25.92 
L 83.6075 25.92 
z
" style="fill: #ffffff"/>
   </g>
   <g id="matplotlib.axis_1">
    <g id="xtick_1">
     <g id="line2d_1">
      <path d="M 99.209329 266.245 
L 99.209329 25.92 
" clip-path="url(#p8c56595121)" style="fill: none; stroke: #b0b0b0; stroke-width: 0.8; stroke-linecap: square"/>
     </g>
     <g id="line2d_2">
      <defs>
       <path id="m9d17428e6f" d="M 0 0 
L 0 3.5 
" style="stroke: #000000; stroke-width: 0.8"/>
      </defs>
      <g>
       <use xlink:href="#m9d17428e6f" x="99.209329" y="266.245" style="stroke: #000000; stroke-width: 0.8"/>
      </g>
     </g>
     <g id="text_1">
      <!-- 0 -->
      <g transform="translate(93.209329 289.63625) scale(0.24 -0.24)">
       <defs>
        <path id="TeXGyreTermes-Regular-30" d="M 3046 2112 
C 3046 3424 2464 4326 1626 4326 
C 1274 4326 1005 4218 768 3994 
C 397 3635 154 2899 154 2150 
C 154 1453 365 704 666 346 
C 902 64 1229 -90 1600 -90 
C 1926 -90 2202 19 2432 243 
C 2803 595 3046 1338 3046 2112 
z
M 2432 2099 
C 2432 762 2150 77 1600 77 
C 1050 77 768 762 768 2093 
C 768 3450 1056 4160 1606 4160 
C 2144 4160 2432 3437 2432 2099 
z
" transform="scale(0.015625)"/>
       </defs>
       <use xlink:href="#TeXGyreTermes-Regular-30"/>
      </g>
     </g>
    </g>
    <g id="xtick_2">
     <g id="line2d_3">
      <path d="M 255.383798 266.245 
L 255.383798 25.92 
" clip-path="url(#p8c56595121)" style="fill: none; stroke: #b0b0b0; stroke-width: 0.8; stroke-linecap: square"/>
     </g>
     <g id="line2d_4">
      <g>
       <use xlink:href="#m9d17428e6f" x="255.383798" y="266.245" style="stroke: #000000; stroke-width: 0.8"/>
      </g>
     </g>
     <g id="text_2">
      <!-- 500 -->
      <g transform="translate(237.383798 289.63625) scale(0.24 -0.24)">
       <defs>
        <path id="TeXGyreTermes-Regular-35" d="M 2803 4358 
L 2746 4403 
C 2650 4269 2586 4237 2451 4237 
L 1114 4237 
L 416 2720 
C 410 2707 410 2688 410 2688 
C 410 2656 435 2637 486 2637 
C 691 2637 947 2592 1210 2509 
C 1946 2272 2285 1875 2285 1242 
C 2285 627 1894 147 1395 147 
C 1267 147 1158 192 966 333 
C 762 480 614 544 480 544 
C 294 544 205 467 205 307 
C 205 64 506 -90 986 -90 
C 1523 -90 1984 83 2304 410 
C 2598 698 2733 1062 2733 1549 
C 2733 2010 2611 2304 2291 2624 
C 2010 2906 1645 3053 890 3187 
L 1158 3731 
L 2413 3731 
C 2515 3731 2541 3744 2560 3789 
L 2803 4358 
z
" transform="scale(0.015625)"/>
       </defs>
       <use xlink:href="#TeXGyreTermes-Regular-35"/>
       <use xlink:href="#TeXGyreTermes-Regular-30" transform="translate(49.999985 0)"/>
       <use xlink:href="#TeXGyreTermes-Regular-30" transform="translate(99.999969 0)"/>
      </g>
     </g>
    </g>
    <g id="xtick_3">
     <g id="line2d_5">
      <path d="M 411.558267 266.245 
L 411.558267 25.92 
" clip-path="url(#p8c56595121)" style="fill: none; stroke: #b0b0b0; stroke-width: 0.8; stroke-linecap: square"/>
     </g>
     <g id="line2d_6">
      <g>
       <use xlink:href="#m9d17428e6f" x="411.558267" y="266.245" style="stroke: #000000; stroke-width: 0.8"/>
      </g>
     </g>
     <g id="text_3">
      <!-- 1000 -->
      <g transform="translate(387.558267 289.63625) scale(0.24 -0.24)">
       <defs>
        <path id="TeXGyreTermes-Regular-31" d="M 2522 0 
L 2522 96 
C 2016 102 1914 166 1914 474 
L 1914 4314 
L 1862 4326 
L 710 3744 
L 710 3654 
C 787 3686 858 3712 883 3725 
C 998 3770 1107 3795 1171 3795 
C 1306 3795 1363 3699 1363 3494 
L 1363 595 
C 1363 384 1312 237 1210 179 
C 1114 122 1024 102 755 96 
L 755 0 
L 2522 0 
z
" transform="scale(0.015625)"/>
       </defs>
       <use xlink:href="#TeXGyreTermes-Regular-31"/>
       <use xlink:href="#TeXGyreTermes-Regular-30" transform="translate(49.999985 0)"/>
       <use xlink:href="#TeXGyreTermes-Regular-30" transform="translate(99.999969 0)"/>
       <use xlink:href="#TeXGyreTermes-Regular-30" transform="translate(149.999954 0)"/>
      </g>
     </g>
    </g>
    <g id="text_4">
     <!-- Schritt k -->
     <g transform="translate(214.225124 315.23625) scale(0.24 -0.24)">
      <defs>
       <path id="TeXGyreTermes-Regular-53" d="M 3142 1075 
C 3142 1606 2790 2016 1946 2477 
C 1274 2842 1005 3123 1005 3475 
C 1005 3827 1274 4064 1670 4064 
C 1958 4064 2227 3942 2451 3712 
C 2650 3507 2739 3341 2842 2963 
L 3002 2963 
L 2861 4326 
L 2726 4326 
C 2701 4186 2630 4109 2522 4109 
C 2458 4109 2355 4134 2240 4186 
C 2003 4275 1773 4326 1549 4326 
C 1299 4326 1030 4224 826 4058 
C 576 3853 454 3578 454 3226 
C 454 2720 736 2362 1453 1984 
C 1914 1734 2246 1478 2406 1235 
C 2464 1146 2496 1018 2496 858 
C 2496 435 2176 141 1709 141 
C 1133 141 736 493 416 1274 
L 269 1274 
L 461 -83 
L 602 -83 
C 608 38 685 128 781 128 
C 851 128 960 102 1082 58 
C 1325 -38 1581 -90 1837 -90 
C 2579 -90 3142 416 3142 1075 
z
" transform="scale(0.015625)"/>
       <path id="TeXGyreTermes-Regular-63" d="M 2637 941 
L 2547 998 
C 2240 550 2010 397 1645 397 
C 1056 397 653 909 653 1645 
C 653 2310 1005 2758 1523 2758 
C 1754 2758 1837 2688 1901 2451 
L 1939 2310 
C 1990 2125 2106 2016 2246 2016 
C 2413 2016 2547 2138 2547 2285 
C 2547 2643 2099 2944 1562 2944 
C 1261 2944 954 2829 698 2618 
C 352 2330 160 1888 160 1357 
C 160 531 666 -64 1376 -64 
C 1651 -64 1894 26 2112 205 
C 2304 358 2432 544 2637 941 
z
" transform="scale(0.015625)"/>
       <path id="TeXGyreTermes-Regular-68" d="M 3117 0 
L 3117 96 
C 2771 160 2733 211 2733 653 
L 2733 1926 
C 2733 2598 2464 2944 1946 2944 
C 1568 2944 1299 2790 1005 2406 
L 1005 4352 
L 973 4371 
C 755 4294 595 4243 237 4141 
L 64 4090 
L 64 3987 
C 90 3994 109 3994 141 3994 
C 416 3994 467 3942 467 3667 
L 467 653 
C 467 205 429 147 58 96 
L 58 0 
L 1440 0 
L 1440 96 
C 1069 134 1005 211 1005 653 
L 1005 2195 
C 1274 2490 1466 2598 1715 2598 
C 2035 2598 2195 2368 2195 1920 
L 2195 653 
C 2195 218 2131 134 1760 96 
L 1760 0 
L 3117 0 
z
" transform="scale(0.015625)"/>
       <path id="TeXGyreTermes-Regular-72" d="M 2144 2605 
C 2144 2816 2010 2944 1792 2944 
C 1523 2944 1338 2797 1024 2342 
L 1024 2931 
L 992 2944 
C 653 2803 422 2720 45 2598 
L 45 2496 
C 134 2515 192 2522 269 2522 
C 429 2522 486 2419 486 2138 
L 486 538 
C 486 218 442 173 32 96 
L 32 0 
L 1568 0 
L 1568 96 
C 1133 115 1024 211 1024 576 
L 1024 2016 
C 1024 2221 1299 2541 1472 2541 
C 1510 2541 1568 2509 1638 2445 
C 1741 2355 1811 2317 1894 2317 
C 2048 2317 2144 2426 2144 2605 
z
" transform="scale(0.015625)"/>
       <path id="TeXGyreTermes-Regular-69" d="M 1619 0 
L 1619 96 
C 1197 128 1146 192 1146 653 
L 1146 2925 
L 1120 2944 
L 128 2592 
L 128 2496 
L 179 2502 
C 256 2515 339 2522 397 2522 
C 550 2522 608 2419 608 2138 
L 608 653 
C 608 192 544 122 102 96 
L 102 0 
L 1619 0 
z
M 1203 3776 
C 1203 3955 1062 4102 877 4102 
C 698 4102 550 3955 550 3776 
C 550 3590 698 3450 877 3450 
C 1062 3450 1203 3590 1203 3776 
z
" transform="scale(0.015625)"/>
       <path id="TeXGyreTermes-Regular-74" d="M 1786 422 
L 1702 493 
C 1562 326 1459 269 1318 269 
C 1082 269 986 435 986 845 
L 986 2675 
L 1632 2675 
L 1632 2880 
L 986 2880 
L 986 3622 
C 986 3686 973 3706 941 3706 
C 902 3642 858 3584 813 3526 
C 576 3174 358 2938 192 2842 
C 122 2797 83 2758 83 2720 
C 83 2701 90 2688 109 2675 
L 448 2675 
L 448 749 
C 448 211 640 -64 1011 -64 
C 1331 -64 1574 90 1786 422 
z
" transform="scale(0.015625)"/>
       <path id="TeXGyreTermes-Regular-20" transform="scale(0.015625)"/>
       <path id="TeXGyreTermes-Regular-6b" d="M 3232 0 
L 3232 96 
C 2950 115 2752 237 2483 563 
L 1504 1805 
L 1690 1978 
C 2144 2400 2541 2694 2726 2746 
C 2822 2771 2912 2784 3021 2784 
L 3072 2784 
L 3072 2880 
L 1766 2880 
L 1766 2790 
C 2016 2784 2086 2758 2086 2669 
C 2086 2618 2029 2528 1939 2451 
L 1062 1670 
L 1062 4358 
L 1037 4371 
L 237 4141 
L 45 4090 
L 45 3987 
C 128 3994 186 4000 250 4000 
C 461 4000 525 3917 525 3610 
L 525 525 
C 525 192 506 173 45 96 
L 45 0 
L 1542 0 
L 1542 96 
L 1414 102 
C 1158 115 1062 205 1062 429 
L 1062 1606 
L 1958 410 
L 1978 384 
C 1990 365 2003 346 2022 326 
C 2074 262 2093 224 2093 192 
C 2093 134 2035 96 1958 96 
L 1837 96 
L 1837 0 
L 3232 0 
z
" transform="scale(0.015625)"/>
      </defs>
      <use xlink:href="#TeXGyreTermes-Regular-53"/>
      <use xlink:href="#TeXGyreTermes-Regular-63" transform="translate(55.599991 0)"/>
      <use xlink:href="#TeXGyreTermes-Regular-68" transform="translate(99.999985 0)"/>
      <use xlink:href="#TeXGyreTermes-Regular-72" transform="translate(149.999969 0)"/>
      <use xlink:href="#TeXGyreTermes-Regular-69" transform="translate(183.299957 0)"/>
      <use xlink:href="#TeXGyreTermes-Regular-74" transform="translate(211.099945 0)"/>
      <use xlink:href="#TeXGyreTermes-Regular-74" transform="translate(238.899933 0)"/>
      <use xlink:href="#TeXGyreTermes-Regular-20" transform="translate(266.699921 0)"/>
      <use xlink:href="#TeXGyreTermes-Regular-6b" transform="translate(291.699905 0)"/>
     </g>
    </g>
   </g>
   <g id="matplotlib.axis_2">
    <g id="ytick_1">
     <g id="line2d_7">
      <path d="M 83.6075 245.743789 
L 426.847748 245.743789 
" clip-path="url(#p8c56595121)" style="fill: none; stroke: #b0b0b0; stroke-width: 0.8; stroke-linecap: square"/>
     </g>
     <g id="line2d_8">
      <defs>
       <path id="mb7ff8db997" d="M 0 0 
L -3.5 0 
" style="stroke: #000000; stroke-width: 0.8"/>
      </defs>
      <g>
       <use xlink:href="#mb7ff8db997" x="83.6075" y="245.743789" style="stroke: #000000; stroke-width: 0.8"/>
      </g>
     </g>
     <g id="text_5">
      <!-- −4 -->
      <g transform="translate(51.07 253.939414) scale(0.24 -0.24)">
       <defs>
        <path id="TeXGyreTermes-Regular-2212" d="M 3354 1389 
L 3354 1811 
L 256 1811 
L 256 1389 
L 3354 1389 
z
" transform="scale(0.015625)"/>
        <path id="TeXGyreTermes-Regular-34" d="M 3021 1069 
L 3021 1478 
L 2368 1478 
L 2368 4326 
L 2086 4326 
L 77 1478 
L 77 1069 
L 1875 1069 
L 1875 0 
L 2368 0 
L 2368 1069 
L 3021 1069 
z
M 1869 1478 
L 333 1478 
L 1869 3674 
L 1869 1478 
z
" transform="scale(0.015625)"/>
       </defs>
       <use xlink:href="#TeXGyreTermes-Regular-2212"/>
       <use xlink:href="#TeXGyreTermes-Regular-34" transform="translate(56.399994 0)"/>
      </g>
     </g>
    </g>
    <g id="ytick_2">
     <g id="line2d_9">
      <path d="M 83.6075 194.994033 
L 426.847748 194.994033 
" clip-path="url(#p8c56595121)" style="fill: none; stroke: #b0b0b0; stroke-width: 0.8; stroke-linecap: square"/>
     </g>
     <g id="line2d_10">
      <g>
       <use xlink:href="#mb7ff8db997" x="83.6075" y="194.994033" style="stroke: #000000; stroke-width: 0.8"/>
      </g>
     </g>
     <g id="text_6">
      <!-- −2 -->
      <g transform="translate(51.07 203.189658) scale(0.24 -0.24)">
       <defs>
        <path id="TeXGyreTermes-Regular-32" d="M 3040 877 
L 2957 909 
C 2720 544 2637 486 2349 486 
L 819 486 
L 1894 1613 
C 2464 2208 2714 2694 2714 3194 
C 2714 3834 2195 4326 1530 4326 
C 1178 4326 845 4186 608 3930 
C 403 3712 307 3507 198 3053 
L 333 3021 
C 589 3648 819 3853 1261 3853 
C 1798 3853 2163 3488 2163 2950 
C 2163 2451 1869 1856 1331 1286 
L 192 77 
L 192 0 
L 2688 0 
L 3040 877 
z
" transform="scale(0.015625)"/>
       </defs>
       <use xlink:href="#TeXGyreTermes-Regular-2212"/>
       <use xlink:href="#TeXGyreTermes-Regular-32" transform="translate(56.399994 0)"/>
      </g>
     </g>
    </g>
    <g id="ytick_3">
     <g id="line2d_11">
      <path d="M 83.6075 144.244277 
L 426.847748 144.244277 
" clip-path="url(#p8c56595121)" style="fill: none; stroke: #b0b0b0; stroke-width: 0.8; stroke-linecap: square"/>
     </g>
     <g id="line2d_12">
      <g>
       <use xlink:href="#mb7ff8db997" x="83.6075" y="144.244277" style="stroke: #000000; stroke-width: 0.8"/>
      </g>
     </g>
     <g id="text_7">
      <!-- 0 -->
      <g transform="translate(64.6075 152.439902) scale(0.24 -0.24)">
       <use xlink:href="#TeXGyreTermes-Regular-30"/>
      </g>
     </g>
    </g>
    <g id="ytick_4">
     <g id="line2d_13">
      <path d="M 83.6075 93.49452 
L 426.847748 93.49452 
" clip-path="url(#p8c56595121)" style="fill: none; stroke: #b0b0b0; stroke-width: 0.8; stroke-linecap: square"/>
     </g>
     <g id="line2d_14">
      <g>
       <use xlink:href="#mb7ff8db997" x="83.6075" y="93.49452" style="stroke: #000000; stroke-width: 0.8"/>
      </g>
     </g>
     <g id="text_8">
      <!-- 2 -->
      <g transform="translate(64.6075 101.690145) scale(0.24 -0.24)">
       <use xlink:href="#TeXGyreTermes-Regular-32"/>
      </g>
     </g>
    </g>
    <g id="ytick_5">
     <g id="line2d_15">
      <path d="M 83.6075 42.744764 
L 426.847748 42.744764 
" clip-path="url(#p8c56595121)" style="fill: none; stroke: #b0b0b0; stroke-width: 0.8; stroke-linecap: square"/>
     </g>
     <g id="line2d_16">
      <g>
       <use xlink:href="#mb7ff8db997" x="83.6075" y="42.744764" style="stroke: #000000; stroke-width: 0.8"/>
      </g>
     </g>
     <g id="text_9">
      <!-- 4 -->
      <g transform="translate(64.6075 50.940389) scale(0.24 -0.24)">
       <use xlink:href="#TeXGyreTermes-Regular-34"/>
      </g>
     </g>
    </g>
    <g id="text_10">
     <!-- x(k) -->
     <g transform="translate(41.86125 166.07375) rotate(-90) scale(0.24 -0.24)">
      <defs>
       <path id="TeXGyreTermes-Regular-78" d="M 3066 0 
L 3066 96 
C 2867 96 2739 198 2541 480 
L 1722 1734 
L 2253 2502 
C 2374 2675 2566 2778 2771 2784 
L 2771 2880 
L 1760 2880 
L 1760 2784 
C 1952 2771 2016 2733 2016 2643 
C 2016 2566 1939 2426 1779 2227 
C 1747 2189 1670 2074 1587 1946 
L 1498 2074 
C 1318 2342 1203 2560 1203 2643 
C 1203 2733 1286 2778 1478 2784 
L 1478 2880 
L 154 2880 
L 154 2784 
L 211 2784 
C 403 2784 506 2701 704 2400 
L 1306 1478 
L 576 422 
C 384 160 320 115 109 96 
L 109 0 
L 1037 0 
L 1037 96 
C 858 96 781 128 781 211 
C 781 250 826 346 909 474 
L 1414 1261 
L 1997 365 
C 2022 326 2035 288 2035 250 
C 2035 134 1990 109 1779 96 
L 1779 0 
L 3066 0 
z
" transform="scale(0.015625)"/>
       <path id="TeXGyreTermes-Regular-28" d="M 1946 -1030 
C 1434 -627 1254 -403 1082 77 
C 928 506 858 992 858 1632 
C 858 2304 941 2829 1114 3226 
C 1293 3622 1485 3853 1946 4224 
L 1888 4326 
C 1414 4019 1222 3853 986 3558 
C 531 3002 307 2362 307 1613 
C 307 800 544 173 1107 -480 
C 1370 -787 1536 -928 1869 -1133 
L 1946 -1030 
z
" transform="scale(0.015625)"/>
       <path id="TeXGyreTermes-Regular-29" d="M 1824 1581 
C 1824 2400 1587 3021 1024 3674 
C 762 3981 595 4122 262 4326 
L 186 4224 
C 698 3821 870 3597 1050 3117 
C 1203 2688 1274 2202 1274 1562 
C 1274 896 1190 365 1018 -26 
C 838 -429 646 -659 186 -1030 
L 243 -1133 
C 717 -826 909 -659 1146 -365 
C 1600 192 1824 832 1824 1581 
z
" transform="scale(0.015625)"/>
      </defs>
      <use xlink:href="#TeXGyreTermes-Regular-78"/>
      <use xlink:href="#TeXGyreTermes-Regular-28" transform="translate(49.999985 0)"/>
      <use xlink:href="#TeXGyreTermes-Regular-6b" transform="translate(83.299973 0)"/>
      <use xlink:href="#TeXGyreTermes-Regular-29" transform="translate(133.299957 0)"/>
     </g>
    </g>
   </g>
   <g id="line2d_17">
    <path d="M 99.209329 177.458377 
L 99.834027 124.936634 
L 100.146376 151.612465 
L 100.458725 123.903992 
L 100.771074 139.847886 
L 101.083423 188.928013 
L 101.395772 175.163914 
L 101.708121 191.12384 
L 102.02047 186.337786 
L 102.645168 212.688699 
L 102.957517 216.382968 
L 103.269866 184.215049 
L 103.582215 204.987846 
L 103.894564 196.337992 
L 104.206912 143.757383 
L 104.519261 169.541138 
L 104.83161 142.314815 
L 105.456308 128.530461 
L 106.393355 149.396842 
L 106.705704 150.083861 
L 107.018053 160.827163 
L 107.330402 157.978392 
L 107.642751 161.028725 
L 107.9551 124.723182 
L 108.267449 145.716557 
L 108.892147 106.880433 
L 109.204495 114.896544 
L 109.516844 132.711432 
L 109.829193 139.964673 
L 110.141542 165.085031 
L 110.453891 162.319411 
L 110.76624 113.374728 
L 111.078589 84.900808 
L 111.390938 111.671327 
L 111.703287 122.011659 
L 112.015636 159.287961 
L 112.327985 138.578165 
L 112.640334 153.722637 
L 112.952683 119.722672 
L 113.265032 156.765442 
L 113.577381 160.800044 
L 113.88973 160.780944 
L 114.202078 169.607607 
L 114.826776 211.562289 
L 115.139125 224.859431 
L 115.451474 198.611199 
L 115.763823 194.299148 
L 116.076172 255.321136 
L 116.388521 235.748062 
L 116.70087 179.496355 
L 117.325568 229.435463 
L 117.637917 211.693743 
L 117.950266 153.425831 
L 118.262615 146.58439 
L 118.887313 108.498347 
L 119.199661 137.253088 
L 119.51201 113.945702 
L 119.824359 107.395197 
L 120.136708 128.031651 
L 120.449057 132.628737 
L 120.761406 124.927682 
L 121.073755 109.402836 
L 121.386104 112.698434 
L 121.698453 132.814593 
L 122.010802 80.84641 
L 122.323151 143.391868 
L 122.6355 131.192913 
L 122.947849 149.480975 
L 123.260198 150.012922 
L 123.572547 106.989784 
L 123.884896 153.80334 
L 124.197244 114.780384 
L 124.509593 147.682672 
L 124.821942 144.387034 
L 125.134291 105.807653 
L 125.44664 152.034491 
L 125.758989 75.887692 
L 126.383687 56.63824 
L 126.696036 92.680633 
L 127.008385 62.270025 
L 127.320734 88.974746 
L 127.945432 172.930923 
L 128.257781 132.757462 
L 128.57013 145.066235 
L 128.882479 149.17297 
L 129.194827 165.38914 
L 129.819525 68.330828 
L 130.131874 108.927397 
L 130.444223 109.534179 
L 130.756572 142.887543 
L 131.068921 140.891548 
L 131.38127 77.501973 
L 131.693619 77.311625 
L 132.318317 195.460585 
L 132.943015 119.659775 
L 133.255364 169.243544 
L 133.567713 82.983146 
L 134.19241 118.823378 
L 134.504759 124.682536 
L 134.817108 122.940546 
L 135.129457 118.108775 
L 135.441806 164.759509 
L 136.066504 175.262085 
L 136.378853 125.87247 
L 136.691202 159.546151 
L 137.003551 161.199696 
L 137.3159 133.982565 
L 137.628249 119.813314 
L 137.940598 118.993016 
L 138.252947 125.835723 
L 138.565296 136.338697 
L 138.877645 124.500228 
L 139.189993 96.478572 
L 139.502342 105.61285 
L 139.814691 127.498168 
L 140.12704 119.792128 
L 140.439389 122.628682 
L 140.751738 171.673064 
L 141.064087 170.972294 
L 141.376436 143.93141 
L 141.688785 163.280109 
L 142.001134 141.647563 
L 142.313483 103.809084 
L 142.625832 116.389681 
L 142.938181 95.67035 
L 143.25053 92.477402 
L 143.562879 82.793775 
L 144.187576 161.812365 
L 144.499925 156.213257 
L 144.812274 142.52849 
L 145.124623 155.734112 
L 145.436972 217.673713 
L 145.749321 150.194361 
L 146.06167 188.010901 
L 146.686368 221.912998 
L 146.998717 218.962684 
L 147.311066 156.931898 
L 147.623415 178.043857 
L 147.935764 189.638252 
L 148.872811 126.88262 
L 149.185159 131.513782 
L 149.497508 130.336561 
L 149.809857 141.473641 
L 150.122206 120.576539 
L 150.434555 116.657245 
L 150.746904 146.827107 
L 151.059253 160.984514 
L 151.371602 120.718894 
L 151.683951 122.328893 
L 151.9963 126.933146 
L 152.308649 120.209232 
L 152.620998 115.96097 
L 152.933347 96.097545 
L 153.558045 107.30609 
L 153.870394 132.828902 
L 154.182742 136.879555 
L 154.495091 128.344618 
L 154.80744 104.013511 
L 155.119789 125.519662 
L 155.432138 112.676339 
L 155.744487 88.309279 
L 156.056836 111.01532 
L 156.369185 107.430288 
L 156.681534 108.240124 
L 156.993883 93.85717 
L 157.306232 108.483745 
L 157.618581 107.243533 
L 157.93093 138.781452 
L 158.243279 139.195692 
L 158.555628 145.373874 
L 158.867977 165.696007 
L 159.180326 107.852484 
L 159.492674 143.088117 
L 159.805023 130.95862 
L 160.117372 99.569991 
L 160.429721 98.324534 
L 160.74207 127.037519 
L 161.054419 196.536088 
L 161.366768 166.847345 
L 161.679117 181.086047 
L 162.303815 153.27607 
L 162.928513 164.894141 
L 163.240862 154.602021 
L 163.553211 135.303638 
L 163.86556 130.242768 
L 164.177909 141.635043 
L 164.490257 148.848076 
L 164.802606 125.834796 
L 165.114955 133.836476 
L 165.427304 154.538907 
L 165.739653 134.158545 
L 166.052002 146.291669 
L 166.364351 96.96102 
L 166.989049 161.704938 
L 167.301398 124.647203 
L 167.613747 127.348575 
L 167.926096 156.928642 
L 168.238445 105.414584 
L 168.550794 108.2885 
L 168.863143 75.939121 
L 169.175492 99.858242 
L 169.800189 166.307436 
L 170.112538 117.744938 
L 170.424887 180.450099 
L 171.049585 133.208425 
L 171.361934 153.552741 
L 171.674283 113.908446 
L 171.986632 154.068213 
L 172.298981 156.564962 
L 172.61133 147.08447 
L 172.923679 180.458977 
L 173.236028 183.921069 
L 173.548377 141.321857 
L 173.860726 153.184774 
L 174.485423 197.705397 
L 174.797772 236.225927 
L 175.110121 215.777155 
L 175.42247 209.778405 
L 175.734819 209.904842 
L 176.047168 187.651506 
L 176.359517 228.559985 
L 176.671866 175.864336 
L 176.984215 168.900318 
L 177.296564 172.922285 
L 177.608913 189.813722 
L 178.233611 130.740361 
L 178.54596 168.427062 
L 178.858309 146.084122 
L 179.170658 152.325956 
L 179.483006 146.904794 
L 180.107704 122.334128 
L 180.420053 109.558244 
L 180.732402 90.927545 
L 181.044751 114.686004 
L 181.3571 96.200556 
L 181.669449 90.378202 
L 181.981798 64.60593 
L 182.294147 122.682432 
L 182.918845 107.120037 
L 183.231194 124.74435 
L 183.855892 65.945355 
L 184.168241 109.874978 
L 184.480589 93.528218 
L 184.792938 87.142651 
L 185.105287 128.202527 
L 185.729985 179.940655 
L 186.042334 122.240797 
L 186.354683 136.320277 
L 186.667032 176.407055 
L 186.979381 104.095079 
L 187.29173 80.703361 
L 187.604079 138.570133 
L 187.916428 166.860424 
L 188.228777 171.813538 
L 188.541126 144.982914 
L 188.853475 143.64791 
L 189.165824 152.46616 
L 189.478172 169.983155 
L 189.790521 169.675371 
L 190.10287 147.329343 
L 190.415219 142.134925 
L 191.039917 167.656947 
L 191.352266 120.53239 
L 191.664615 123.766148 
L 191.976964 184.458542 
L 192.289313 130.27927 
L 192.601662 131.715904 
L 192.914011 121.667892 
L 193.22636 132.159651 
L 193.538709 165.945798 
L 193.851058 142.679829 
L 194.163407 102.708023 
L 194.475755 127.995353 
L 194.788104 172.703133 
L 195.100453 92.473596 
L 195.412802 65.606689 
L 195.725151 69.825962 
L 196.0375 106.023403 
L 196.349849 104.414633 
L 196.662198 133.594151 
L 196.974547 112.281098 
L 197.286896 102.013079 
L 197.599245 114.589272 
L 197.911594 117.702076 
L 198.223943 181.420614 
L 198.848641 140.054155 
L 199.16099 98.544233 
L 199.473338 190.791622 
L 199.785687 132.075695 
L 200.098036 151.734955 
L 200.410385 152.582415 
L 200.722734 156.102371 
L 201.035083 147.686727 
L 201.347432 172.152295 
L 201.659781 148.015198 
L 201.97213 83.197584 
L 202.284479 110.670112 
L 202.596828 167.054407 
L 202.909177 164.379364 
L 203.221526 151.85736 
L 203.533875 174.030756 
L 203.846224 109.355695 
L 204.158573 150.470853 
L 204.470921 168.808692 
L 204.78327 158.101589 
L 205.095619 174.245458 
L 205.407968 153.567604 
L 206.032666 95.554425 
L 206.345015 146.510674 
L 206.657364 174.357347 
L 206.969713 124.649866 
L 207.282062 111.680043 
L 207.594411 108.778064 
L 207.90676 91.540621 
L 208.219109 126.408607 
L 208.531458 148.388494 
L 208.843807 134.826292 
L 209.156156 141.246174 
L 209.468504 126.911083 
L 209.780853 153.338117 
L 210.093202 150.300093 
L 210.405551 171.063526 
L 210.7179 148.91543 
L 211.030249 184.259438 
L 211.342598 192.943906 
L 212.279645 120.607223 
L 212.591994 124.681364 
L 212.904343 125.046024 
L 213.216692 185.414644 
L 213.529041 139.741147 
L 213.84139 169.980692 
L 214.153739 148.885158 
L 214.466087 164.847366 
L 214.778436 144.596193 
L 215.090785 184.771172 
L 215.715483 106.794421 
L 216.027832 106.941378 
L 216.340181 141.436727 
L 216.65253 116.079689 
L 216.964879 115.660867 
L 217.277228 79.455373 
L 217.589577 109.234192 
L 217.901926 109.959441 
L 218.526624 196.484813 
L 218.838973 226.752509 
L 219.151322 212.918982 
L 219.46367 148.325465 
L 219.776019 126.267415 
L 220.088368 179.755476 
L 220.400717 179.445862 
L 221.025415 88.06756 
L 221.337764 92.775206 
L 221.650113 165.085934 
L 221.962462 175.313676 
L 222.274811 125.192809 
L 222.58716 148.965985 
L 222.899509 143.862482 
L 223.211858 160.227182 
L 223.524207 154.323371 
L 223.836556 136.217792 
L 224.148905 139.651192 
L 224.461254 121.388579 
L 224.773602 83.676241 
L 225.085951 137.864621 
L 225.3983 111.899446 
L 225.710649 106.855648 
L 226.022998 127.402444 
L 226.335347 99.578582 
L 226.647696 96.342397 
L 226.960045 114.143084 
L 227.272394 150.915737 
L 227.584743 109.088391 
L 227.897092 123.095045 
L 228.209441 97.139011 
L 228.52179 137.378567 
L 228.834139 123.397132 
L 229.146488 124.191012 
L 229.458837 156.062613 
L 229.771185 173.463772 
L 230.083534 178.936878 
L 230.395883 148.744369 
L 230.708232 224.392664 
L 231.020581 173.472484 
L 231.33293 145.591732 
L 231.645279 152.402732 
L 231.957628 120.548337 
L 232.269977 67.527637 
L 232.582326 151.808707 
L 232.894675 141.629859 
L 233.207024 110.633203 
L 233.519373 127.46797 
L 233.831722 135.082218 
L 234.144071 146.298882 
L 234.45642 123.507264 
L 235.081117 190.624545 
L 235.705815 111.094116 
L 236.330513 130.644754 
L 236.642862 113.012556 
L 236.955211 144.210226 
L 237.26756 120.224137 
L 237.579909 118.259047 
L 237.892258 134.210632 
L 238.204607 121.444487 
L 238.516956 151.84263 
L 238.829305 154.45102 
L 239.141654 149.583182 
L 239.454003 141.014594 
L 239.766351 155.860031 
L 240.0787 127.769715 
L 240.391049 128.900612 
L 240.703398 145.271928 
L 241.015747 128.472166 
L 241.328096 132.106538 
L 241.640445 128.66954 
L 241.952794 115.728387 
L 242.265143 120.721463 
L 242.889841 108.710344 
L 243.20219 117.342761 
L 243.514539 145.780471 
L 243.826888 136.22511 
L 244.139237 89.720187 
L 244.451586 118.187608 
L 244.763934 104.043046 
L 245.076283 116.907626 
L 245.388632 93.157302 
L 245.700981 116.866207 
L 246.01333 105.401762 
L 246.325679 153.042474 
L 246.638028 157.074529 
L 246.950377 167.364111 
L 247.262726 152.050366 
L 247.887424 139.668787 
L 248.199773 96.121501 
L 248.512122 160.612864 
L 248.824471 125.451968 
L 249.449169 195.273296 
L 249.761517 147.071668 
L 250.073866 147.955136 
L 250.386215 157.09122 
L 250.698564 130.730874 
L 251.010913 149.949765 
L 251.323262 41.295615 
L 251.635611 118.685907 
L 251.94796 87.419934 
L 252.572658 120.038404 
L 252.885007 153.702674 
L 253.197356 88.934186 
L 253.509705 132.422867 
L 253.822054 109.213984 
L 254.134403 70.591391 
L 254.446752 126.88344 
L 254.7591 110.933186 
L 255.071449 130.89792 
L 255.383798 123.147352 
L 256.008496 153.809916 
L 256.320845 140.687066 
L 256.633194 144.949579 
L 256.945543 172.185238 
L 257.257892 132.48384 
L 257.570241 151.406155 
L 257.88259 91.741525 
L 258.194939 112.692392 
L 258.507288 118.50356 
L 258.819637 176.797764 
L 259.131986 183.605297 
L 259.444335 118.883145 
L 259.756683 132.858448 
L 260.069032 164.74026 
L 260.381381 150.602836 
L 260.69373 182.207647 
L 261.006079 166.120786 
L 261.318428 195.288125 
L 261.630777 170.115295 
L 261.943126 174.396661 
L 262.255475 158.125184 
L 262.567824 186.42421 
L 262.880173 147.179423 
L 263.504871 209.291882 
L 264.441918 164.522108 
L 264.754266 175.847077 
L 265.066615 146.857282 
L 265.378964 166.4707 
L 265.691313 128.234716 
L 266.003662 132.902701 
L 266.316011 171.650063 
L 266.62836 170.87217 
L 266.940709 108.695431 
L 267.253058 122.427838 
L 267.565407 160.565321 
L 268.190105 125.248832 
L 268.502454 98.724477 
L 268.814803 119.884187 
L 269.127152 162.576434 
L 269.439501 155.540633 
L 269.751849 102.232729 
L 270.064198 98.580003 
L 270.376547 117.505254 
L 270.688896 89.860295 
L 271.001245 101.935474 
L 271.313594 138.295142 
L 271.625943 114.849758 
L 271.938292 136.15207 
L 272.250641 128.892332 
L 272.56299 127.983726 
L 272.875339 132.481121 
L 273.187688 192.236446 
L 273.500037 215.93096 
L 273.812386 142.440303 
L 274.437084 205.202629 
L 274.749432 166.535923 
L 275.061781 160.916564 
L 275.37413 183.247002 
L 275.686479 165.715975 
L 275.998828 159.269406 
L 276.311177 155.182986 
L 276.623526 203.169529 
L 276.935875 166.292432 
L 277.248224 162.415931 
L 277.560573 138.514094 
L 277.872922 154.551939 
L 278.49762 120.368205 
L 278.809969 141.779056 
L 279.122318 150.852877 
L 279.434667 130.525293 
L 279.747015 81.342316 
L 280.059364 107.759914 
L 280.371713 94.435759 
L 280.684062 103.948781 
L 280.996411 85.088299 
L 281.30876 130.128993 
L 281.621109 133.048656 
L 281.933458 114.243356 
L 282.558156 144.11221 
L 282.870505 143.268542 
L 283.182854 135.52854 
L 283.495203 122.549653 
L 283.807552 132.4368 
L 284.119901 165.017405 
L 284.43225 157.874208 
L 284.744598 183.446708 
L 285.056947 127.117373 
L 285.369296 107.200998 
L 285.681645 103.558359 
L 285.993994 74.893937 
L 286.306343 116.203496 
L 286.931041 81.568644 
L 287.555739 61.402218 
L 287.868088 92.556366 
L 288.180437 39.085402 
L 288.492786 94.404548 
L 288.805135 83.867231 
L 289.117484 84.361581 
L 289.742182 154.92196 
L 290.05453 119.710253 
L 290.366879 107.294745 
L 290.679228 81.322916 
L 290.991577 83.236959 
L 291.303926 82.452569 
L 291.616275 113.882512 
L 291.928624 113.651907 
L 292.240973 108.298483 
L 292.553322 83.499986 
L 292.865671 93.133449 
L 293.17802 97.280588 
L 293.490369 86.671139 
L 293.802718 100.599025 
L 294.115067 80.307105 
L 294.427416 83.364673 
L 294.739765 49.641748 
L 295.052113 64.920647 
L 295.676811 125.882192 
L 295.98916 92.852871 
L 296.301509 91.947429 
L 296.613858 109.771436 
L 296.926207 58.646375 
L 297.238556 92.925155 
L 297.550905 104.1231 
L 297.863254 72.390067 
L 298.487952 192.274701 
L 298.800301 126.994767 
L 299.11265 151.707577 
L 299.424999 187.407456 
L 299.737348 124.314514 
L 300.049696 114.783827 
L 300.362045 138.089985 
L 300.674394 150.601705 
L 300.986743 114.987562 
L 301.299092 149.310014 
L 301.92379 113.241961 
L 302.236139 103.495522 
L 302.548488 161.594573 
L 302.860837 178.344311 
L 303.173186 163.269747 
L 303.485535 199.317123 
L 303.797884 176.671367 
L 304.110233 127.302449 
L 304.422582 129.321261 
L 304.734931 146.389785 
L 305.047279 154.090575 
L 305.359628 182.595253 
L 305.671977 147.876112 
L 306.296675 184.186475 
L 306.609024 159.853414 
L 306.921373 117.901193 
L 307.233722 125.474878 
L 307.546071 183.742668 
L 307.85842 116.962828 
L 308.170769 140.379422 
L 308.483118 116.423324 
L 308.795467 126.169387 
L 309.107816 124.12745 
L 309.420165 137.439292 
L 309.732514 134.166617 
L 310.044862 171.735496 
L 310.357211 150.257013 
L 310.66956 205.51869 
L 311.294258 159.599811 
L 311.606607 168.661684 
L 311.918956 186.745837 
L 312.231305 211.915431 
L 312.856003 219.245937 
L 313.168352 188.453323 
L 313.480701 122.710913 
L 313.79305 148.063331 
L 314.105399 192.668332 
L 314.417748 185.286766 
L 314.730097 154.191016 
L 315.042445 156.145435 
L 315.354794 143.356857 
L 315.667143 144.133179 
L 315.979492 127.121249 
L 316.291841 128.544823 
L 316.60419 92.093991 
L 316.916539 87.691954 
L 317.228888 139.030301 
L 317.541237 112.860681 
L 317.853586 108.871798 
L 318.165935 128.969239 
L 318.478284 140.58387 
L 318.790633 130.653217 
L 319.415331 177.801431 
L 319.72768 138.517575 
L 320.040028 185.888414 
L 320.352377 211.627659 
L 320.977075 122.667004 
L 321.289424 128.183213 
L 321.601773 121.949319 
L 321.914122 121.487257 
L 322.53882 171.732862 
L 323.163518 72.15826 
L 323.475867 104.817855 
L 323.788216 83.492555 
L 324.100565 90.808956 
L 324.412914 116.985465 
L 324.725263 107.991538 
L 325.037611 112.433056 
L 325.34996 87.928468 
L 325.662309 129.972488 
L 325.974658 143.993797 
L 326.287007 116.263194 
L 326.599356 183.684781 
L 326.911705 117.440702 
L 327.224054 128.692631 
L 327.536403 128.472192 
L 327.848752 165.24642 
L 328.161101 174.665179 
L 328.47345 138.408051 
L 328.785799 165.205126 
L 329.098148 139.351191 
L 329.410497 133.455953 
L 329.722846 124.657911 
L 330.035194 141.06039 
L 330.347543 132.823475 
L 330.972241 143.542813 
L 331.28459 161.194676 
L 331.596939 187.318551 
L 331.909288 112.840318 
L 332.221637 180.136959 
L 332.533986 130.641451 
L 332.846335 157.409257 
L 333.158684 121.70533 
L 333.471033 122.428758 
L 334.095731 165.331046 
L 334.40808 158.728923 
L 334.720429 123.700924 
L 335.032777 133.417778 
L 335.345126 200.167674 
L 335.657475 185.273649 
L 335.969824 207.880671 
L 336.282173 187.896651 
L 336.594522 182.60222 
L 336.906871 183.726828 
L 337.21922 175.992003 
L 337.531569 153.679902 
L 337.843918 159.416604 
L 338.156267 131.311886 
L 338.468616 122.829982 
L 338.780965 136.142242 
L 339.405663 191.032786 
L 340.342709 133.364469 
L 340.655058 135.206854 
L 340.967407 171.717242 
L 341.279756 160.166769 
L 341.592105 143.14916 
L 341.904454 178.244058 
L 342.216803 199.999327 
L 342.529152 177.129777 
L 342.841501 175.034913 
L 343.15385 204.704793 
L 343.466199 187.854358 
L 343.778548 183.665616 
L 344.090897 153.639352 
L 344.403246 147.050037 
L 344.715595 130.307188 
L 345.340292 178.034104 
L 345.652641 162.366869 
L 345.96499 106.783219 
L 346.277339 125.926855 
L 346.589688 132.155285 
L 346.902037 131.000383 
L 347.214386 108.526339 
L 347.526735 132.480522 
L 347.839084 178.323614 
L 348.151433 173.370856 
L 348.463782 145.285382 
L 349.08848 181.767995 
L 349.400829 180.460603 
L 349.713178 151.165277 
L 350.025526 181.698027 
L 350.337875 160.206968 
L 350.650224 151.347894 
L 350.962573 125.585343 
L 351.274922 192.188328 
L 351.587271 193.10143 
L 351.89962 153.579279 
L 352.211969 128.905793 
L 352.524318 138.714534 
L 352.836667 129.393703 
L 353.149016 139.427565 
L 353.773714 94.481331 
L 354.086063 134.942381 
L 354.398412 131.32528 
L 354.710761 152.255652 
L 355.02311 202.955419 
L 355.335458 164.417722 
L 355.647807 163.788251 
L 355.960156 161.201629 
L 356.272505 177.197521 
L 356.584854 126.936104 
L 356.897203 160.774717 
L 357.209552 140.466283 
L 357.521901 130.977177 
L 357.83425 176.707361 
L 358.146599 179.361409 
L 358.458948 121.878936 
L 358.771297 164.414295 
L 359.083646 163.197239 
L 359.395995 113.353399 
L 360.020693 80.822041 
L 360.333041 134.030705 
L 360.64539 138.904551 
L 360.957739 89.592603 
L 361.270088 119.82702 
L 361.582437 136.291304 
L 361.894786 97.284025 
L 362.207135 145.626557 
L 362.519484 101.967742 
L 362.831833 150.104658 
L 363.144182 163.716674 
L 363.456531 202.605912 
L 363.76888 184.623102 
L 364.081229 146.687609 
L 364.705927 172.241909 
L 365.018276 214.266244 
L 365.330624 233.965791 
L 365.642973 189.183874 
L 365.955322 191.725545 
L 366.58002 133.358152 
L 366.892369 144.054124 
L 367.204718 127.378793 
L 367.517067 130.354904 
L 368.141765 162.603523 
L 368.454114 161.480507 
L 368.766463 134.040944 
L 369.391161 174.987815 
L 369.70351 136.015807 
L 370.015859 47.525506 
L 370.328207 56.637296 
L 370.640556 76.151573 
L 370.952905 64.572864 
L 371.265254 90.829419 
L 371.577603 39.811445 
L 371.889952 56.482535 
L 372.51465 114.659963 
L 372.826999 103.635861 
L 373.139348 136.514206 
L 373.451697 70.586887 
L 373.764046 98.190639 
L 374.076395 142.673477 
L 374.388744 160.299057 
L 374.701093 139.151166 
L 375.013442 194.093876 
L 375.32579 200.3764 
L 375.638139 143.815986 
L 375.950488 182.157821 
L 376.262837 204.303647 
L 376.575186 158.738355 
L 376.887535 174.925336 
L 377.199884 141.617148 
L 377.512233 151.719878 
L 377.824582 149.041476 
L 378.136931 177.087004 
L 378.44928 192.123779 
L 378.761629 194.342924 
L 379.073978 169.50453 
L 379.386327 199.920237 
L 379.698676 150.325775 
L 380.011025 136.668798 
L 380.323373 137.844358 
L 380.635722 126.436883 
L 380.948071 133.125676 
L 381.26042 102.271434 
L 381.572769 126.881196 
L 381.885118 124.801673 
L 382.197467 119.023832 
L 382.509816 95.542455 
L 382.822165 132.169171 
L 383.134514 124.186492 
L 383.446863 140.83125 
L 383.759212 129.273884 
L 384.071561 157.969206 
L 384.38391 137.829045 
L 384.696259 131.636505 
L 385.008608 106.687426 
L 385.320956 169.318572 
L 385.633305 160.444275 
L 385.945654 159.89054 
L 386.258003 142.96095 
L 386.570352 101.768189 
L 386.882701 139.994743 
L 387.19505 160.628807 
L 387.507399 141.285086 
L 387.819748 172.346561 
L 388.132097 137.245994 
L 388.444446 120.769984 
L 388.756795 151.942543 
L 389.069144 161.372555 
L 389.381493 153.319709 
L 389.693842 170.216313 
L 390.006191 168.015681 
L 390.318539 153.761536 
L 390.630888 164.199028 
L 390.943237 169.681549 
L 391.255586 196.469108 
L 391.567935 176.685974 
L 391.880284 202.240945 
L 392.192633 171.301697 
L 392.504982 175.107697 
L 392.817331 148.199068 
L 393.12968 149.015388 
L 393.442029 170.754224 
L 393.754378 156.601828 
L 394.066727 161.602158 
L 395.316122 58.13515 
L 395.628471 69.591258 
L 395.94082 72.358699 
L 396.253169 115.754762 
L 396.565518 134.941039 
L 396.877867 76.443502 
L 397.190216 106.559404 
L 397.502565 118.637785 
L 397.814914 166.629101 
L 398.439612 192.616451 
L 398.751961 153.704127 
L 399.06431 171.221704 
L 399.376659 133.632181 
L 399.689008 159.415998 
L 400.001357 207.790557 
L 400.313705 190.906831 
L 400.626054 186.97655 
L 400.938403 200.173108 
L 401.250752 180.687908 
L 401.563101 174.386585 
L 401.87545 201.175501 
L 402.187799 188.443346 
L 402.500148 157.6801 
L 402.812497 170.905847 
L 403.124846 144.46272 
L 403.437195 139.462271 
L 403.749544 162.836928 
L 404.061893 172.850932 
L 404.374242 176.833743 
L 404.686591 187.9319 
L 404.99894 145.50275 
L 405.311288 172.227182 
L 405.623637 149.117488 
L 406.248335 127.938378 
L 406.560684 158.824238 
L 406.873033 151.204648 
L 407.185382 119.351482 
L 407.497731 170.392391 
L 407.81008 166.598653 
L 408.122429 159.310761 
L 408.434778 162.711715 
L 408.747127 191.504401 
L 409.059476 147.247858 
L 409.371825 151.853061 
L 409.996523 133.786216 
L 410.308871 139.777995 
L 410.62122 152.614885 
L 410.933569 216.474195 
L 411.245918 205.939885 
L 411.245918 205.939885 
" clip-path="url(#p8c56595121)" style="fill: none; stroke: #1f77b4; stroke-width: 1.5; stroke-linecap: square"/>
   </g>
   <g id="line2d_18">
    <path d="M 99.209329 167.887113 
L 99.521678 122.908028 
L 99.834027 166.45276 
L 100.146376 150.194264 
L 100.458725 157.48431 
L 100.771074 143.056997 
L 101.083423 117.55038 
L 101.395772 134.851612 
L 101.708121 116.927551 
L 102.02047 127.546932 
L 102.332819 107.270767 
L 102.645168 124.106415 
L 102.957517 111.061786 
L 103.269866 115.106169 
L 103.582215 102.314163 
L 103.894564 57.490993 
L 104.519261 139.396161 
L 104.83161 147.308062 
L 105.456308 65.198095 
L 105.768657 113.472443 
L 106.081006 125.524342 
L 106.393355 143.343028 
L 106.705704 125.705587 
L 107.018053 136.642896 
L 107.330402 163.660497 
L 107.642751 156.849434 
L 107.9551 142.956736 
L 108.267449 171.605173 
L 108.579798 156.995577 
L 108.892147 105.855249 
L 109.204495 115.537419 
L 109.516844 104.336216 
L 109.829193 110.587764 
L 110.141542 137.789213 
L 110.453891 113.619488 
L 110.76624 55.926603 
L 111.078589 79.816585 
L 111.390938 69.327081 
L 112.015636 125.377388 
L 112.327985 76.484169 
L 112.640334 71.922905 
L 112.952683 91.781125 
L 113.265032 88.203016 
L 113.577381 109.245212 
L 113.88973 91.355563 
L 114.202078 139.606077 
L 114.514427 144.751449 
L 114.826776 177.198079 
L 115.139125 123.363844 
L 115.451474 109.15271 
L 115.763823 143.802952 
L 116.076172 162.510503 
L 116.388521 163.823252 
L 116.70087 148.537134 
L 117.013219 117.876063 
L 117.325568 128.139655 
L 117.637917 75.835828 
L 117.950266 95.498801 
L 118.262615 127.697234 
L 118.574964 84.355525 
L 118.887313 151.172619 
L 119.51201 102.668727 
L 119.824359 170.346756 
L 120.136708 142.199334 
L 120.449057 197.073444 
L 120.761406 156.244681 
L 121.073755 138.039119 
L 121.386104 126.434684 
L 121.698453 151.182061 
L 122.010802 141.390744 
L 122.323151 155.817651 
L 122.6355 187.919077 
L 123.260198 165.348881 
L 123.572547 163.880139 
L 123.884896 203.703006 
L 124.197244 142.687544 
L 124.509593 163.589434 
L 124.821942 144.829298 
L 125.134291 161.7944 
L 125.44664 146.352432 
L 125.758989 150.896044 
L 126.071338 138.512532 
L 126.383687 130.754041 
L 126.696036 118.185005 
L 127.008385 121.314808 
L 127.320734 81.657445 
L 127.633083 84.265269 
L 127.945432 52.093245 
L 128.257781 75.260846 
L 128.57013 87.196449 
L 128.882479 93.482147 
L 129.507176 128.291198 
L 129.819525 129.868361 
L 130.131874 157.837913 
L 130.444223 133.453203 
L 130.756572 136.43161 
L 131.068921 102.489207 
L 131.38127 109.884701 
L 131.693619 157.5632 
L 132.005968 145.804242 
L 132.318317 138.619958 
L 132.943015 97.323108 
L 133.255364 105.34939 
L 133.567713 118.852383 
L 133.880062 143.963961 
L 134.19241 142.738258 
L 134.504759 128.100194 
L 134.817108 122.477883 
L 135.129457 125.127202 
L 135.441806 111.540566 
L 135.754155 88.643987 
L 136.378853 131.299383 
L 136.691202 142.460965 
L 137.003551 106.389923 
L 137.628249 137.117419 
L 137.940598 173.223011 
L 138.252947 131.842894 
L 138.565296 117.031606 
L 138.877645 130.895825 
L 139.189993 95.363851 
L 139.502342 148.536411 
L 139.814691 151.821823 
L 140.12704 147.40898 
L 140.439389 164.933471 
L 140.751738 154.069818 
L 141.064087 168.053298 
L 141.688785 118.61533 
L 142.001134 139.357503 
L 142.313483 135.143428 
L 142.625832 126.289492 
L 142.938181 89.10268 
L 143.25053 90.767594 
L 143.562879 67.730651 
L 143.875228 128.736312 
L 144.187576 150.875708 
L 144.499925 99.328667 
L 144.812274 87.207354 
L 145.124623 160.823064 
L 145.436972 110.183464 
L 145.749321 146.647992 
L 146.06167 165.156276 
L 146.374019 108.979685 
L 146.686368 153.255837 
L 146.998717 146.901438 
L 147.311066 176.285925 
L 147.623415 142.201935 
L 147.935764 155.515523 
L 148.248113 150.714356 
L 148.560462 109.455004 
L 148.872811 106.74729 
L 149.185159 145.799847 
L 149.497508 156.411529 
L 150.122206 138.487824 
L 150.434555 110.497909 
L 150.746904 103.00051 
L 151.059253 129.437813 
L 151.371602 132.720582 
L 151.683951 143.597083 
L 151.9963 123.297444 
L 152.308649 115.25829 
L 152.620998 168.568804 
L 152.933347 141.318823 
L 153.245696 133.176984 
L 153.558045 155.522794 
L 153.870394 150.855515 
L 154.182742 150.205606 
L 154.80744 173.058197 
L 155.119789 153.514524 
L 155.432138 177.465602 
L 155.744487 149.038526 
L 156.056836 172.318786 
L 156.369185 211.251279 
L 156.993883 173.178488 
L 157.306232 114.496609 
L 157.618581 126.632512 
L 157.93093 161.662123 
L 158.243279 160.082019 
L 158.555628 173.438969 
L 158.867977 112.19795 
L 159.180326 118.949407 
L 159.492674 137.012446 
L 159.805023 186.513364 
L 160.117372 128.991484 
L 160.429721 97.357798 
L 160.74207 98.950632 
L 161.054419 142.864314 
L 161.366768 111.44176 
L 161.679117 128.401512 
L 162.303815 149.166807 
L 162.616164 153.06611 
L 162.928513 147.750173 
L 163.240862 144.885841 
L 163.553211 140.373664 
L 163.86556 161.833487 
L 164.177909 94.2445 
L 164.490257 143.714761 
L 164.802606 163.223436 
L 165.114955 146.650901 
L 165.427304 116.563107 
L 165.739653 148.422285 
L 166.052002 156.089563 
L 166.364351 152.181181 
L 166.6767 143.241183 
L 166.989049 147.147998 
L 167.301398 131.959917 
L 167.613747 134.348051 
L 168.238445 190.315945 
L 168.550794 176.744394 
L 168.863143 139.573348 
L 169.175492 151.894365 
L 169.48784 176.09875 
L 169.800189 145.00996 
L 170.112538 180.445173 
L 170.424887 144.548439 
L 170.737236 129.971442 
L 171.049585 125.216391 
L 171.674283 147.005578 
L 171.986632 149.181205 
L 172.298981 138.185843 
L 172.61133 163.419728 
L 172.923679 165.424651 
L 173.236028 142.856941 
L 173.548377 183.230505 
L 173.860726 200.282149 
L 174.173075 197.155305 
L 174.485423 217.554687 
L 174.797772 179.987178 
L 175.110121 193.563428 
L 175.42247 160.116703 
L 176.047168 204.112718 
L 176.359517 132.118673 
L 176.671866 125.635797 
L 176.984215 142.100786 
L 177.296564 193.508933 
L 177.608913 181.289301 
L 177.921262 198.675737 
L 178.233611 203.000376 
L 178.54596 236.503695 
L 178.858309 195.237437 
L 179.170658 177.322577 
L 179.483006 176.883209 
L 179.795355 180.080743 
L 180.107704 159.988899 
L 180.732402 175.285574 
L 181.044751 162.65862 
L 181.3571 141.516014 
L 181.669449 234.78425 
L 181.981798 211.360821 
L 182.294147 178.589873 
L 182.606496 185.67075 
L 182.918845 158.907611 
L 183.231194 101.883003 
L 183.543543 97.412357 
L 183.855892 154.675087 
L 184.168241 160.878655 
L 184.480589 138.943687 
L 184.792938 174.087508 
L 185.105287 161.407668 
L 185.417636 135.548123 
L 185.729985 145.24599 
L 186.042334 169.961926 
L 186.354683 179.106302 
L 186.667032 170.339916 
L 186.979381 197.461168 
L 187.604079 160.378633 
L 187.916428 213.638814 
L 188.228777 196.020334 
L 188.541126 201.208156 
L 189.165824 130.43775 
L 189.478172 108.477052 
L 189.790521 198.201787 
L 190.10287 135.261768 
L 190.415219 128.588311 
L 190.727568 158.214463 
L 191.039917 138.302947 
L 191.352266 181.253832 
L 191.664615 153.819694 
L 191.976964 152.217863 
L 192.289313 158.968159 
L 192.601662 201.469098 
L 192.914011 147.711613 
L 193.22636 161.574504 
L 193.851058 172.272734 
L 194.163407 139.937792 
L 194.475755 170.062047 
L 194.788104 162.136621 
L 195.100453 191.022445 
L 195.412802 164.818944 
L 195.725151 120.575469 
L 196.0375 135.487175 
L 196.349849 164.101658 
L 196.662198 177.872575 
L 196.974547 131.367247 
L 197.286896 160.158965 
L 197.599245 80.594144 
L 197.911594 139.631907 
L 198.223943 105.119566 
L 198.848641 164.068088 
L 199.16099 151.836979 
L 199.785687 104.747357 
L 200.098036 164.567074 
L 200.410385 144.261495 
L 200.722734 151.020786 
L 201.035083 174.072652 
L 201.347432 217.69483 
L 201.659781 168.706308 
L 201.97213 211.4114 
L 202.284479 194.359174 
L 202.596828 219.608452 
L 202.909177 218.027797 
L 203.221526 203.266759 
L 203.533875 155.419958 
L 203.846224 189.417165 
L 204.158573 161.974329 
L 204.470921 200.444178 
L 204.78327 203.71301 
L 205.095619 197.007844 
L 205.407968 197.495931 
L 205.720317 235.265901 
L 206.032666 190.240922 
L 206.345015 184.156724 
L 206.657364 197.832026 
L 206.969713 156.191448 
L 207.282062 136.150445 
L 207.594411 137.214199 
L 207.90676 136.306997 
L 208.219109 79.416802 
L 208.531458 96.802367 
L 208.843807 106.10265 
L 209.156156 78.805018 
L 209.468504 113.610226 
L 209.780853 120.078397 
L 210.093202 113.571981 
L 210.405551 157.79085 
L 210.7179 151.535741 
L 211.030249 127.123647 
L 211.342598 128.484395 
L 211.654947 104.168412 
L 211.967296 108.147674 
L 212.279645 109.100097 
L 212.591994 99.025283 
L 212.904343 114.006809 
L 213.216692 72.703725 
L 214.153739 145.875715 
L 214.466087 116.184791 
L 214.778436 116.478092 
L 215.090785 127.936826 
L 215.403134 134.471992 
L 215.715483 136.622946 
L 216.340181 161.552082 
L 216.65253 166.237285 
L 216.964879 183.595385 
L 217.277228 167.135296 
L 217.589577 168.73204 
L 218.214275 110.50758 
L 218.526624 119.576295 
L 218.838973 114.969033 
L 219.151322 106.554042 
L 219.46367 143.634384 
L 220.088368 120.555128 
L 220.400717 120.950707 
L 220.713066 107.885144 
L 221.025415 129.662993 
L 221.337764 106.186483 
L 221.650113 152.181568 
L 222.274811 101.32439 
L 222.58716 108.549303 
L 222.899509 113.078254 
L 223.211858 100.709472 
L 223.524207 93.858844 
L 223.836556 144.173255 
L 224.148905 150.572211 
L 224.461254 147.536114 
L 224.773602 108.326292 
L 225.085951 94.180406 
L 225.3983 119.160969 
L 225.710649 121.659031 
L 226.022998 100.48648 
L 226.335347 147.286753 
L 226.647696 143.341595 
L 226.960045 145.84472 
L 227.584743 105.236714 
L 227.897092 115.376751 
L 228.209441 102.086486 
L 228.834139 144.693502 
L 229.146488 95.179368 
L 229.458837 164.609418 
L 229.771185 133.731272 
L 230.083534 119.211532 
L 230.395883 123.036962 
L 230.708232 137.124418 
L 231.020581 130.280359 
L 231.33293 128.038787 
L 231.645279 183.074282 
L 231.957628 171.630498 
L 232.269977 153.285086 
L 232.582326 156.577219 
L 232.894675 120.682164 
L 233.519373 137.964769 
L 233.831722 123.739368 
L 234.45642 162.156305 
L 234.768768 108.775699 
L 235.081117 88.650321 
L 235.705815 127.514687 
L 236.018164 127.517109 
L 236.330513 123.3657 
L 236.642862 134.399182 
L 236.955211 124.293965 
L 237.26756 121.9176 
L 237.579909 121.09234 
L 237.892258 109.73501 
L 238.204607 118.885098 
L 238.516956 106.641601 
L 238.829305 163.333583 
L 239.141654 170.644337 
L 239.454003 143.993174 
L 239.766351 145.703117 
L 240.0787 129.042842 
L 240.391049 131.057806 
L 240.703398 143.669312 
L 241.015747 162.482615 
L 241.328096 152.389492 
L 241.640445 72.726879 
L 241.952794 138.942696 
L 242.265143 146.01755 
L 242.577492 178.120463 
L 242.889841 113.563502 
L 243.826888 166.762425 
L 244.139237 157.345457 
L 244.451586 152.779349 
L 244.763934 135.259751 
L 245.076283 138.025287 
L 245.700981 128.402487 
L 246.01333 143.167042 
L 246.638028 106.796461 
L 246.950377 111.299664 
L 247.262726 143.313449 
L 247.575075 141.194531 
L 247.887424 123.12012 
L 248.199773 200.627652 
L 248.512122 190.642278 
L 248.824471 167.74324 
L 249.13682 158.618658 
L 249.449169 217.721366 
L 249.761517 189.749041 
L 250.073866 190.669135 
L 250.386215 198.816681 
L 250.698564 232.301276 
L 251.010913 204.2622 
L 251.323262 211.705208 
L 251.635611 185.615621 
L 251.94796 148.412016 
L 252.260309 143.718107 
L 252.572658 123.766017 
L 252.885007 118.284318 
L 253.197356 115.657996 
L 253.509705 137.294721 
L 253.822054 97.410115 
L 254.134403 105.511062 
L 254.446752 104.50846 
L 254.7591 80.610781 
L 255.071449 69.327142 
L 255.383798 130.823839 
L 255.696147 110.986662 
L 256.008496 68.262954 
L 256.320845 66.333495 
L 256.633194 71.826067 
L 256.945543 128.476619 
L 257.257892 91.284032 
L 257.570241 78.661423 
L 257.88259 81.791338 
L 258.194939 111.522604 
L 258.507288 120.926409 
L 259.131986 71.918204 
L 259.444335 84.231384 
L 260.069032 58.617319 
L 260.381381 112.174188 
L 260.69373 91.338656 
L 261.006079 134.740186 
L 261.318428 91.165344 
L 261.630777 65.937338 
L 261.943126 89.795713 
L 262.255475 71.710541 
L 262.880173 188.245327 
L 263.192522 188.631075 
L 263.504871 191.497508 
L 263.81722 219.634528 
L 264.129569 182.443403 
L 264.441918 179.554061 
L 264.754266 179.726792 
L 265.066615 195.635887 
L 265.378964 183.403078 
L 265.691313 128.67324 
L 266.003662 166.301861 
L 266.316011 125.445207 
L 266.62836 136.314067 
L 266.940709 115.05821 
L 267.253058 138.620065 
L 267.877756 74.410253 
L 268.190105 103.831803 
L 268.502454 176.62087 
L 268.814803 210.465258 
L 269.127152 120.82145 
L 269.751849 163.591505 
L 270.064198 158.755827 
L 270.376547 131.714172 
L 270.688896 114.830013 
L 271.001245 142.369793 
L 271.313594 140.33695 
L 271.625943 182.108324 
L 271.938292 174.236244 
L 272.250641 154.266072 
L 272.56299 201.336362 
L 272.875339 194.128454 
L 273.187688 230.450841 
L 273.500037 210.682272 
L 273.812386 160.430842 
L 274.124735 158.126428 
L 274.437084 190.55326 
L 274.749432 141.575826 
L 275.061781 143.984108 
L 275.37413 108.399889 
L 275.998828 93.442688 
L 276.311177 76.793853 
L 276.623526 92.733239 
L 276.935875 77.795868 
L 277.248224 138.607212 
L 277.872922 94.532624 
L 278.185271 132.885923 
L 278.49762 134.200606 
L 278.809969 131.639934 
L 279.747015 89.684474 
L 280.059364 152.759544 
L 280.371713 162.653094 
L 280.684062 177.345742 
L 280.996411 160.406534 
L 281.30876 172.948504 
L 281.621109 198.168955 
L 281.933458 177.658553 
L 282.245807 126.227711 
L 282.558156 130.749291 
L 283.182854 92.834528 
L 283.495203 121.677303 
L 283.807552 100.955448 
L 284.119901 140.212666 
L 284.43225 151.932091 
L 284.744598 148.481626 
L 285.056947 152.930111 
L 285.369296 123.517597 
L 285.993994 176.541174 
L 286.306343 152.514921 
L 286.618692 143.938353 
L 286.931041 169.915652 
L 287.24339 161.744275 
L 287.555739 184.403771 
L 287.868088 138.729269 
L 288.492786 117.543119 
L 288.805135 152.446645 
L 289.117484 172.049702 
L 289.429833 139.68156 
L 289.742182 119.660928 
L 290.05453 187.185137 
L 290.366879 139.844572 
L 290.679228 138.102622 
L 291.303926 101.823913 
L 291.616275 168.223423 
L 291.928624 136.363885 
L 292.553322 178.218069 
L 292.865671 228.666361 
L 293.17802 197.345486 
L 293.490369 198.028042 
L 294.115067 167.451283 
L 294.427416 146.591095 
L 294.739765 196.5899 
L 295.364462 157.401608 
L 295.676811 163.012927 
L 295.98916 182.805862 
L 296.301509 151.938654 
L 297.238556 221.024368 
L 297.550905 202.118849 
L 298.175603 183.968518 
L 298.487952 195.12193 
L 298.800301 200.846248 
L 299.11265 224.642353 
L 299.424999 150.671569 
L 299.737348 139.341515 
L 300.049696 211.861699 
L 300.362045 192.361304 
L 300.674394 202.94291 
L 300.986743 131.719739 
L 301.299092 165.019421 
L 301.611441 172.704299 
L 302.236139 135.761842 
L 302.548488 141.678071 
L 302.860837 167.842702 
L 303.173186 180.297001 
L 303.485535 145.000746 
L 303.797884 135.41491 
L 304.110233 153.109058 
L 304.422582 127.391302 
L 304.734931 158.850936 
L 305.047279 137.680403 
L 305.359628 104.964681 
L 305.671977 140.43701 
L 305.984326 95.617433 
L 306.296675 119.982128 
L 306.609024 104.501767 
L 307.233722 184.905679 
L 307.546071 180.537836 
L 307.85842 169.934362 
L 308.483118 137.158447 
L 308.795467 136.522057 
L 309.107816 154.411844 
L 309.420165 162.935544 
L 309.732514 160.188537 
L 310.044862 200.120587 
L 310.357211 195.637121 
L 310.66956 194.348134 
L 310.981909 168.888752 
L 311.294258 189.081651 
L 311.606607 193.183292 
L 312.231305 114.096431 
L 312.543654 165.542429 
L 312.856003 159.283855 
L 313.168352 141.618688 
L 313.480701 130.500203 
L 313.79305 100.067735 
L 314.105399 168.927653 
L 314.417748 136.821648 
L 314.730097 181.28713 
L 315.042445 161.859349 
L 315.354794 161.926944 
L 315.667143 191.878149 
L 316.291841 147.191852 
L 316.60419 167.830022 
L 316.916539 131.769983 
L 317.228888 157.530552 
L 317.541237 145.79458 
L 317.853586 158.120279 
L 318.165935 155.071637 
L 318.478284 154.415089 
L 318.790633 174.675472 
L 319.102982 169.549871 
L 319.415331 209.013851 
L 319.72768 176.795927 
L 320.040028 193.022682 
L 320.352377 150.782324 
L 320.664726 146.085822 
L 321.289424 206.08086 
L 321.601773 183.316972 
L 321.914122 184.546596 
L 322.226471 167.935073 
L 322.53882 196.93326 
L 322.851169 195.761131 
L 323.163518 187.432238 
L 323.788216 156.973272 
L 324.412914 229.229514 
L 324.725263 202.275504 
L 325.037611 154.259111 
L 325.662309 182.948719 
L 325.974658 152.618427 
L 326.287007 107.369417 
L 326.599356 111.656314 
L 326.911705 158.987103 
L 327.224054 160.668827 
L 327.536403 169.488969 
L 327.848752 157.236673 
L 328.161101 118.346473 
L 328.47345 112.794802 
L 329.098148 158.533358 
L 329.410497 158.901787 
L 330.035194 138.467103 
L 330.347543 143.51068 
L 330.659892 182.654403 
L 331.28459 143.138738 
L 331.596939 192.218895 
L 331.909288 193.643381 
L 332.221637 200.374308 
L 332.533986 181.491621 
L 332.846335 194.372204 
L 333.158684 176.106352 
L 333.471033 170.730046 
L 333.783382 177.326493 
L 334.095731 146.560895 
L 334.40808 158.810897 
L 334.720429 150.148413 
L 335.032777 190.497278 
L 335.345126 194.583645 
L 335.657475 183.784356 
L 335.969824 147.316434 
L 336.282173 152.716591 
L 336.594522 137.386901 
L 336.906871 166.168402 
L 337.21922 126.502151 
L 337.531569 176.593023 
L 337.843918 195.63472 
L 338.156267 135.627749 
L 338.468616 139.036243 
L 338.780965 151.143752 
L 339.093314 144.309855 
L 339.405663 126.596425 
L 339.718012 185.153187 
L 340.03036 123.758458 
L 340.342709 87.341555 
L 340.655058 141.042338 
L 340.967407 126.096613 
L 341.279756 122.474149 
L 341.592105 125.696496 
L 341.904454 156.372566 
L 342.216803 128.420794 
L 342.529152 159.518281 
L 342.841501 138.579842 
L 343.15385 172.865978 
L 343.466199 137.115052 
L 343.778548 147.341346 
L 344.090897 125.997208 
L 344.403246 126.74709 
L 344.715595 139.772492 
L 345.027943 131.900441 
L 345.340292 113.232131 
L 345.652641 121.426758 
L 345.96499 113.692628 
L 346.277339 108.720897 
L 346.589688 120.663111 
L 346.902037 157.753202 
L 347.526735 117.285392 
L 347.839084 134.5083 
L 348.151433 132.159157 
L 348.463782 135.010525 
L 348.776131 159.414714 
L 349.08848 136.681669 
L 349.400829 153.794098 
L 349.713178 158.20824 
L 350.025526 215.594344 
L 350.650224 121.38463 
L 350.962573 130.213131 
L 351.274922 100.779109 
L 351.587271 169.647932 
L 351.89962 168.887453 
L 352.211969 155.487809 
L 352.524318 177.560373 
L 352.836667 144.859509 
L 353.149016 161.229572 
L 353.461365 184.431449 
L 353.773714 179.715734 
L 354.086063 190.419437 
L 354.398412 223.181167 
L 354.710761 193.313376 
L 355.02311 216.652895 
L 355.335458 178.502078 
L 355.647807 188.749768 
L 355.960156 180.197333 
L 356.272505 185.058482 
L 356.584854 184.391087 
L 356.897203 143.903622 
L 357.209552 154.354117 
L 357.521901 143.253244 
L 358.146599 166.447239 
L 358.458948 158.918016 
L 358.771297 133.155631 
L 359.083646 167.095575 
L 359.395995 126.852337 
L 359.708344 155.190393 
L 360.020693 113.621842 
L 360.333041 173.764097 
L 361.582437 60.625886 
L 361.894786 86.047667 
L 362.207135 127.890576 
L 362.519484 144.493484 
L 362.831833 149.673717 
L 363.144182 120.531802 
L 363.456531 55.515069 
L 363.76888 96.63798 
L 364.081229 52.267671 
L 364.393578 104.761629 
L 364.705927 100.880791 
L 365.018276 124.210131 
L 365.330624 67.646304 
L 365.642973 107.363462 
L 365.955322 114.189032 
L 366.267671 156.656456 
L 366.58002 171.804267 
L 366.892369 121.822629 
L 367.204718 108.912262 
L 367.517067 79.188283 
L 367.829416 130.684011 
L 368.141765 106.436025 
L 368.454114 110.859584 
L 368.766463 146.872728 
L 369.078812 124.730673 
L 369.391161 123.001351 
L 369.70351 99.54582 
L 370.015859 91.964622 
L 370.328207 128.822324 
L 370.640556 130.181816 
L 370.952905 181.466545 
L 371.577603 153.125534 
L 371.889952 183.529234 
L 372.202301 151.599011 
L 372.51465 142.136177 
L 372.826999 159.224552 
L 373.139348 191.43994 
L 373.764046 217.517727 
L 374.076395 184.781102 
L 374.388744 209.357684 
L 374.701093 181.652649 
L 375.013442 209.06231 
L 375.32579 175.329466 
L 375.638139 170.117906 
L 375.950488 182.661443 
L 376.262837 147.450012 
L 376.575186 191.121499 
L 376.887535 184.889041 
L 377.199884 157.360961 
L 377.512233 155.582411 
L 378.136931 178.835468 
L 378.44928 185.550632 
L 378.761629 159.759745 
L 379.073978 186.853006 
L 379.698676 129.566099 
L 380.011025 143.382048 
L 380.323373 162.505674 
L 380.635722 169.346533 
L 381.26042 119.890461 
L 381.572769 141.013643 
L 381.885118 66.297803 
L 382.509816 101.128941 
L 382.822165 97.950167 
L 383.134514 70.503798 
L 383.759212 136.267611 
L 384.071561 102.245216 
L 384.38391 83.731973 
L 385.008608 109.381812 
L 385.320956 101.088136 
L 385.633305 133.941563 
L 385.945654 64.355754 
L 386.258003 103.683267 
L 386.570352 85.902653 
L 386.882701 122.428636 
L 387.19505 132.880185 
L 387.507399 97.832837 
L 387.819748 111.130004 
L 388.132097 174.119025 
L 388.444446 135.410842 
L 388.756795 153.099485 
L 389.069144 103.339591 
L 389.381493 80.800184 
L 389.693842 36.843864 
L 390.006191 77.659941 
L 390.318539 74.003815 
L 390.630888 55.926392 
L 390.943237 120.281853 
L 391.255586 144.89617 
L 391.567935 96.54699 
L 391.880284 74.871593 
L 392.192633 123.530825 
L 392.504982 94.17291 
L 392.817331 99.772849 
L 393.12968 113.252826 
L 393.442029 131.831136 
L 393.754378 135.94354 
L 394.066727 126.705683 
L 394.379076 149.437688 
L 394.691425 160.213218 
L 395.003774 153.25119 
L 395.316122 152.74317 
L 395.628471 146.632093 
L 395.94082 122.023839 
L 396.253169 119.286073 
L 396.565518 131.540551 
L 396.877867 91.891741 
L 397.190216 91.696473 
L 397.502565 146.276858 
L 397.814914 112.991952 
L 398.439612 144.775446 
L 398.751961 155.810527 
L 399.06431 161.669767 
L 399.376659 181.501676 
L 399.689008 154.815937 
L 400.001357 138.341983 
L 400.313705 94.505975 
L 400.626054 87.40055 
L 400.938403 117.96491 
L 401.250752 136.747802 
L 401.563101 124.684118 
L 401.87545 120.192692 
L 402.812497 202.081573 
L 403.124846 170.377321 
L 403.437195 224.661934 
L 403.749544 199.247867 
L 404.061893 211.170625 
L 404.374242 160.404693 
L 404.686591 176.440714 
L 404.99894 184.170787 
L 405.311288 152.204359 
L 405.623637 180.054639 
L 406.248335 132.915032 
L 406.560684 160.060248 
L 406.873033 174.056048 
L 407.185382 152.948483 
L 407.497731 145.312589 
L 407.81008 169.350482 
L 408.122429 175.042001 
L 408.434778 167.831274 
L 408.747127 121.484788 
L 409.059476 166.782916 
L 409.371825 141.873617 
L 409.684174 163.224112 
L 409.996523 154.368086 
L 410.308871 159.104104 
L 410.62122 122.621584 
L 410.933569 132.219832 
L 411.245918 112.457657 
L 411.245918 112.457657 
" clip-path="url(#p8c56595121)" style="fill: none; stroke: #ff7f0e; stroke-width: 1.5; stroke-linecap: square"/>
   </g>
   <g id="patch_3">
    <path d="M 83.6075 266.245 
L 83.6075 25.92 
" style="fill: none; stroke: #000000; stroke-width: 0.8; stroke-linejoin: miter; stroke-linecap: square"/>
   </g>
   <g id="patch_4">
    <path d="M 426.847748 266.245 
L 426.847748 25.92 
" style="fill: none; stroke: #000000; stroke-width: 0.8; stroke-linejoin: miter; stroke-linecap: square"/>
   </g>
   <g id="patch_5">
    <path d="M 83.6075 266.245 
L 426.847748 266.245 
" style="fill: none; stroke: #000000; stroke-width: 0.8; stroke-linejoin: miter; stroke-linecap: square"/>
   </g>
   <g id="patch_6">
    <path d="M 83.6075 25.92 
L 426.847748 25.92 
" style="fill: none; stroke: #000000; stroke-width: 0.8; stroke-linejoin: miter; stroke-linecap: square"/>
   </g>
  </g>
 </g>
 <defs>
  <clipPath id="p8c56595121">
   <rect x="83.6075" y="25.92" width="343.240248" height="240.325"/>
  </clipPath>
 </defs>
</svg>
