<?xml version="1.0" encoding="utf-8" standalone="no"?>
<!DOCTYPE svg PUBLIC "-//W3C//DTD SVG 1.1//EN"
  "http://www.w3.org/Graphics/SVG/1.1/DTD/svg11.dtd">
<svg xmlns:xlink="http://www.w3.org/1999/xlink" width="460.8pt" height="345.6pt" viewBox="0 0 460.8 345.6" xmlns="http://www.w3.org/2000/svg" version="1.1">
 <metadata>
  <rdf:RDF xmlns:dc="http://purl.org/dc/elements/1.1/" xmlns:cc="http://creativecommons.org/ns#" xmlns:rdf="http://www.w3.org/1999/02/22-rdf-syntax-ns#">
   <cc:Work>
    <dc:type rdf:resource="http://purl.org/dc/dcmitype/StillImage"/>
    <dc:date>2025-11-24T22:57:20.857565</dc:date>
    <dc:format>image/svg+xml</dc:format>
    <dc:creator>
     <cc:Agent>
      <dc:title>Matplotlib v3.10.6, https://matplotlib.org/</dc:title>
     </cc:Agent>
    </dc:creator>
   </cc:Work>
  </rdf:RDF>
 </metadata>
 <defs>
  <style type="text/css">*{stroke-linejoin: round; stroke-linecap: butt}</style>
 </defs>
 <g id="figure_1">
  <g id="patch_1">
   <path d="M 0 345.6 
L 460.8 345.6 
L 460.8 0 
L 0 0 
z
" style="fill: #ffffff"/>
  </g>
  <g id="axes_1">
   <g id="patch_2">
    <path d="M 57.6 307.584 
L 414.72 307.584 
L 414.72 41.472 
L 57.6 41.472 
z
" style="fill: #ffffff"/>
   </g>
   <g id="matplotlib.axis_1">
    <g id="xtick_1">
     <g id="line2d_1">
      <defs>
       <path id="mc913b2139a" d="M 0 0 
L 0 3.5 
" style="stroke: #000000; stroke-width: 0.8"/>
      </defs>
      <g>
       <use xlink:href="#mc913b2139a" x="114.891339" y="307.584" style="stroke: #000000; stroke-width: 0.8"/>
      </g>
     </g>
     <g id="text_1">
      <!-- 0 -->
      <g transform="translate(111.710089 322.182437) scale(0.1 -0.1)">
       <defs>
        <path id="DejaVuSans-30" d="M 2034 4250 
Q 1547 4250 1301 3770 
Q 1056 3291 1056 2328 
Q 1056 1369 1301 889 
Q 1547 409 2034 409 
Q 2525 409 2770 889 
Q 3016 1369 3016 2328 
Q 3016 3291 2770 3770 
Q 2525 4250 2034 4250 
z
M 2034 4750 
Q 2819 4750 3233 4129 
Q 3647 3509 3647 2328 
Q 3647 1150 3233 529 
Q 2819 -91 2034 -91 
Q 1250 -91 836 529 
Q 422 1150 422 2328 
Q 422 3509 836 4129 
Q 1250 4750 2034 4750 
z
" transform="scale(0.015625)"/>
       </defs>
       <use xlink:href="#DejaVuSans-30"/>
      </g>
     </g>
    </g>
    <g id="xtick_2">
     <g id="line2d_2">
      <g>
       <use xlink:href="#mc913b2139a" x="178.253066" y="307.584" style="stroke: #000000; stroke-width: 0.8"/>
      </g>
     </g>
     <g id="text_2">
      <!-- 50 -->
      <g transform="translate(171.890566 322.182437) scale(0.1 -0.1)">
       <defs>
        <path id="DejaVuSans-35" d="M 691 4666 
L 3169 4666 
L 3169 4134 
L 1269 4134 
L 1269 2991 
Q 1406 3038 1543 3061 
Q 1681 3084 1819 3084 
Q 2600 3084 3056 2656 
Q 3513 2228 3513 1497 
Q 3513 744 3044 326 
Q 2575 -91 1722 -91 
Q 1428 -91 1123 -41 
Q 819 9 494 109 
L 494 744 
Q 775 591 1075 516 
Q 1375 441 1709 441 
Q 2250 441 2565 725 
Q 2881 1009 2881 1497 
Q 2881 1984 2565 2268 
Q 2250 2553 1709 2553 
Q 1456 2553 1204 2497 
Q 953 2441 691 2322 
L 691 4666 
z
" transform="scale(0.015625)"/>
       </defs>
       <use xlink:href="#DejaVuSans-35"/>
       <use xlink:href="#DejaVuSans-30" transform="translate(63.623047 0)"/>
      </g>
     </g>
    </g>
    <g id="xtick_3">
     <g id="line2d_3">
      <g>
       <use xlink:href="#mc913b2139a" x="241.614793" y="307.584" style="stroke: #000000; stroke-width: 0.8"/>
      </g>
     </g>
     <g id="text_3">
      <!-- 100 -->
      <g transform="translate(232.071043 322.182437) scale(0.1 -0.1)">
       <defs>
        <path id="DejaVuSans-31" d="M 794 531 
L 1825 531 
L 1825 4091 
L 703 3866 
L 703 4441 
L 1819 4666 
L 2450 4666 
L 2450 531 
L 3481 531 
L 3481 0 
L 794 0 
L 794 531 
z
" transform="scale(0.015625)"/>
       </defs>
       <use xlink:href="#DejaVuSans-31"/>
       <use xlink:href="#DejaVuSans-30" transform="translate(63.623047 0)"/>
       <use xlink:href="#DejaVuSans-30" transform="translate(127.246094 0)"/>
      </g>
     </g>
    </g>
    <g id="xtick_4">
     <g id="line2d_4">
      <g>
       <use xlink:href="#mc913b2139a" x="304.97652" y="307.584" style="stroke: #000000; stroke-width: 0.8"/>
      </g>
     </g>
     <g id="text_4">
      <!-- 150 -->
      <g transform="translate(295.43277 322.182437) scale(0.1 -0.1)">
       <use xlink:href="#DejaVuSans-31"/>
       <use xlink:href="#DejaVuSans-35" transform="translate(63.623047 0)"/>
       <use xlink:href="#DejaVuSans-30" transform="translate(127.246094 0)"/>
      </g>
     </g>
    </g>
    <g id="xtick_5">
     <g id="line2d_5">
      <g>
       <use xlink:href="#mc913b2139a" x="368.338246" y="307.584" style="stroke: #000000; stroke-width: 0.8"/>
      </g>
     </g>
     <g id="text_5">
      <!-- 200 -->
      <g transform="translate(358.794496 322.182437) scale(0.1 -0.1)">
       <defs>
        <path id="DejaVuSans-32" d="M 1228 531 
L 3431 531 
L 3431 0 
L 469 0 
L 469 531 
Q 828 903 1448 1529 
Q 2069 2156 2228 2338 
Q 2531 2678 2651 2914 
Q 2772 3150 2772 3378 
Q 2772 3750 2511 3984 
Q 2250 4219 1831 4219 
Q 1534 4219 1204 4116 
Q 875 4013 500 3803 
L 500 4441 
Q 881 4594 1212 4672 
Q 1544 4750 1819 4750 
Q 2544 4750 2975 4387 
Q 3406 4025 3406 3419 
Q 3406 3131 3298 2873 
Q 3191 2616 2906 2266 
Q 2828 2175 2409 1742 
Q 1991 1309 1228 531 
z
" transform="scale(0.015625)"/>
       </defs>
       <use xlink:href="#DejaVuSans-32"/>
       <use xlink:href="#DejaVuSans-30" transform="translate(63.623047 0)"/>
       <use xlink:href="#DejaVuSans-30" transform="translate(127.246094 0)"/>
      </g>
     </g>
    </g>
    <g id="text_6">
     <!-- x -->
     <g transform="translate(233.200625 335.860562) scale(0.1 -0.1)">
      <defs>
       <path id="DejaVuSans-78" d="M 3513 3500 
L 2247 1797 
L 3578 0 
L 2900 0 
L 1881 1375 
L 863 0 
L 184 0 
L 1544 1831 
L 300 3500 
L 978 3500 
L 1906 2253 
L 2834 3500 
L 3513 3500 
z
" transform="scale(0.015625)"/>
      </defs>
      <use xlink:href="#DejaVuSans-78"/>
     </g>
    </g>
   </g>
   <g id="matplotlib.axis_2">
    <g id="ytick_1">
     <g id="line2d_6">
      <defs>
       <path id="mb0bb6a695e" d="M 0 0 
L -3.5 0 
" style="stroke: #000000; stroke-width: 0.8"/>
      </defs>
      <g>
       <use xlink:href="#mb0bb6a695e" x="57.6" y="292.343732" style="stroke: #000000; stroke-width: 0.8"/>
      </g>
     </g>
     <g id="text_7">
      <!-- 0 -->
      <g transform="translate(44.2375 296.142951) scale(0.1 -0.1)">
       <use xlink:href="#DejaVuSans-30"/>
      </g>
     </g>
    </g>
    <g id="ytick_2">
     <g id="line2d_7">
      <g>
       <use xlink:href="#mb0bb6a695e" x="57.6" y="255.307094" style="stroke: #000000; stroke-width: 0.8"/>
      </g>
     </g>
     <g id="text_8">
      <!-- 20 -->
      <g transform="translate(37.875 259.106313) scale(0.1 -0.1)">
       <use xlink:href="#DejaVuSans-32"/>
       <use xlink:href="#DejaVuSans-30" transform="translate(63.623047 0)"/>
      </g>
     </g>
    </g>
    <g id="ytick_3">
     <g id="line2d_8">
      <g>
       <use xlink:href="#mb0bb6a695e" x="57.6" y="218.270456" style="stroke: #000000; stroke-width: 0.8"/>
      </g>
     </g>
     <g id="text_9">
      <!-- 40 -->
      <g transform="translate(37.875 222.069675) scale(0.1 -0.1)">
       <defs>
        <path id="DejaVuSans-34" d="M 2419 4116 
L 825 1625 
L 2419 1625 
L 2419 4116 
z
M 2253 4666 
L 3047 4666 
L 3047 1625 
L 3713 1625 
L 3713 1100 
L 3047 1100 
L 3047 0 
L 2419 0 
L 2419 1100 
L 313 1100 
L 313 1709 
L 2253 4666 
z
" transform="scale(0.015625)"/>
       </defs>
       <use xlink:href="#DejaVuSans-34"/>
       <use xlink:href="#DejaVuSans-30" transform="translate(63.623047 0)"/>
      </g>
     </g>
    </g>
    <g id="ytick_4">
     <g id="line2d_9">
      <g>
       <use xlink:href="#mb0bb6a695e" x="57.6" y="181.233818" style="stroke: #000000; stroke-width: 0.8"/>
      </g>
     </g>
     <g id="text_10">
      <!-- 60 -->
      <g transform="translate(37.875 185.033037) scale(0.1 -0.1)">
       <defs>
        <path id="DejaVuSans-36" d="M 2113 2584 
Q 1688 2584 1439 2293 
Q 1191 2003 1191 1497 
Q 1191 994 1439 701 
Q 1688 409 2113 409 
Q 2538 409 2786 701 
Q 3034 994 3034 1497 
Q 3034 2003 2786 2293 
Q 2538 2584 2113 2584 
z
M 3366 4563 
L 3366 3988 
Q 3128 4100 2886 4159 
Q 2644 4219 2406 4219 
Q 1781 4219 1451 3797 
Q 1122 3375 1075 2522 
Q 1259 2794 1537 2939 
Q 1816 3084 2150 3084 
Q 2853 3084 3261 2657 
Q 3669 2231 3669 1497 
Q 3669 778 3244 343 
Q 2819 -91 2113 -91 
Q 1303 -91 875 529 
Q 447 1150 447 2328 
Q 447 3434 972 4092 
Q 1497 4750 2381 4750 
Q 2619 4750 2861 4703 
Q 3103 4656 3366 4563 
z
" transform="scale(0.015625)"/>
       </defs>
       <use xlink:href="#DejaVuSans-36"/>
       <use xlink:href="#DejaVuSans-30" transform="translate(63.623047 0)"/>
      </g>
     </g>
    </g>
    <g id="ytick_5">
     <g id="line2d_10">
      <g>
       <use xlink:href="#mb0bb6a695e" x="57.6" y="144.19718" style="stroke: #000000; stroke-width: 0.8"/>
      </g>
     </g>
     <g id="text_11">
      <!-- 80 -->
      <g transform="translate(37.875 147.996399) scale(0.1 -0.1)">
       <defs>
        <path id="DejaVuSans-38" d="M 2034 2216 
Q 1584 2216 1326 1975 
Q 1069 1734 1069 1313 
Q 1069 891 1326 650 
Q 1584 409 2034 409 
Q 2484 409 2743 651 
Q 3003 894 3003 1313 
Q 3003 1734 2745 1975 
Q 2488 2216 2034 2216 
z
M 1403 2484 
Q 997 2584 770 2862 
Q 544 3141 544 3541 
Q 544 4100 942 4425 
Q 1341 4750 2034 4750 
Q 2731 4750 3128 4425 
Q 3525 4100 3525 3541 
Q 3525 3141 3298 2862 
Q 3072 2584 2669 2484 
Q 3125 2378 3379 2068 
Q 3634 1759 3634 1313 
Q 3634 634 3220 271 
Q 2806 -91 2034 -91 
Q 1263 -91 848 271 
Q 434 634 434 1313 
Q 434 1759 690 2068 
Q 947 2378 1403 2484 
z
M 1172 3481 
Q 1172 3119 1398 2916 
Q 1625 2713 2034 2713 
Q 2441 2713 2670 2916 
Q 2900 3119 2900 3481 
Q 2900 3844 2670 4047 
Q 2441 4250 2034 4250 
Q 1625 4250 1398 4047 
Q 1172 3844 1172 3481 
z
" transform="scale(0.015625)"/>
       </defs>
       <use xlink:href="#DejaVuSans-38"/>
       <use xlink:href="#DejaVuSans-30" transform="translate(63.623047 0)"/>
      </g>
     </g>
    </g>
    <g id="ytick_6">
     <g id="line2d_11">
      <g>
       <use xlink:href="#mb0bb6a695e" x="57.6" y="107.160543" style="stroke: #000000; stroke-width: 0.8"/>
      </g>
     </g>
     <g id="text_12">
      <!-- 100 -->
      <g transform="translate(31.5125 110.959761) scale(0.1 -0.1)">
       <use xlink:href="#DejaVuSans-31"/>
       <use xlink:href="#DejaVuSans-30" transform="translate(63.623047 0)"/>
       <use xlink:href="#DejaVuSans-30" transform="translate(127.246094 0)"/>
      </g>
     </g>
    </g>
    <g id="ytick_7">
     <g id="line2d_12">
      <g>
       <use xlink:href="#mb0bb6a695e" x="57.6" y="70.123905" style="stroke: #000000; stroke-width: 0.8"/>
      </g>
     </g>
     <g id="text_13">
      <!-- 120 -->
      <g transform="translate(31.5125 73.923123) scale(0.1 -0.1)">
       <use xlink:href="#DejaVuSans-31"/>
       <use xlink:href="#DejaVuSans-32" transform="translate(63.623047 0)"/>
       <use xlink:href="#DejaVuSans-30" transform="translate(127.246094 0)"/>
      </g>
     </g>
    </g>
    <g id="text_14">
     <!-- y -->
     <g transform="translate(25.432812 177.487375) rotate(-90) scale(0.1 -0.1)">
      <defs>
       <path id="DejaVuSans-79" d="M 2059 -325 
Q 1816 -950 1584 -1140 
Q 1353 -1331 966 -1331 
L 506 -1331 
L 506 -850 
L 844 -850 
Q 1081 -850 1212 -737 
Q 1344 -625 1503 -206 
L 1606 56 
L 191 3500 
L 800 3500 
L 1894 763 
L 2988 3500 
L 3597 3500 
L 2059 -325 
z
" transform="scale(0.015625)"/>
      </defs>
      <use xlink:href="#DejaVuSans-79"/>
     </g>
    </g>
   </g>
   <g id="line2d_13">
    <path d="M 114.891339 292.343732 
L 113.23261 294.069161 
L 113.11829 292.512064 
L 114.111104 294.52209 
L 113.512792 294.697104 
L 114.536444 295.488 
L 114.488115 295.088993 
L 112.090433 292.988624 
L 111.040474 292.719934 
L 109.248662 291.045391 
L 107.993615 290.499718 
L 106.04907 288.411737 
L 103.745292 287.877807 
L 101.472929 286.220421 
L 100.926248 285.026635 
L 98.999518 282.889381 
L 97.627115 277.682036 
L 98.767531 275.988137 
L 97.893613 277.343916 
L 98.44044 278.38584 
L 99.005906 275.36463 
L 99.596054 269.805023 
L 99.362041 269.519077 
L 98.758699 270.234964 
L 98.261239 269.154852 
L 97.308604 268.878925 
L 96.678063 270.355953 
L 95.93703 270.766774 
L 97.07233 270.093893 
L 96.73722 271.672908 
L 97.403404 271.706684 
L 99.610351 266.270234 
L 99.434798 263.739506 
L 99.073119 262.055038 
L 97.617281 262.438963 
L 96.717968 260.557538 
L 98.414432 254.722235 
L 101.007407 251.714577 
L 102.00665 246.368652 
L 100.505652 246.597317 
L 100.566564 242.511182 
L 99.871569 238.671003 
L 101.107944 236.473615 
L 100.171798 233.758845 
L 99.355153 232.629476 
L 98.700585 229.755976 
L 97.664725 230.519634 
L 95.733186 230.792735 
L 93.117642 232.995991 
L 90.21609 230.472089 
L 88.957576 227.501626 
L 87.73926 227.520548 
L 80.644323 229.188952 
L 80.692231 228.544661 
L 78.76677 225.773067 
L 75.752407 224.354136 
L 73.832727 219.203174 
L 74.641291 216.551838 
L 75.055584 216.314465 
L 76.085274 212.391621 
L 77.522151 213.983747 
L 77.046571 212.64698 
L 77.9137 209.664112 
L 78.854808 212.049333 
L 78.61757 211.216051 
L 78.375827 214.575642 
L 78.629415 213.94213 
L 79.640421 212.276468 
L 80.325858 210.219561 
L 79.984796 210.330387 
L 82.466097 209.545943 
L 81.262641 209.952114 
L 81.280623 212.461974 
L 80.439662 213.398158 
L 79.835769 213.532615 
L 81.567806 213.67739 
L 80.480687 216.794218 
L 81.772972 214.826868 
L 81.048402 215.286812 
L 80.767909 214.286174 
L 82.507927 214.880213 
L 81.471687 214.268216 
L 84.688917 214.20857 
L 87.5165 213.267138 
L 90.449411 211.987205 
L 91.290785 210.048863 
L 93.898014 208.671412 
L 94.91548 204.500816 
L 93.924187 201.301741 
L 91.748178 196.002936 
L 92.318857 193.111299 
L 91.969626 189.035654 
L 91.075714 187.950296 
L 92.767814 187.86667 
L 96.421634 187.32662 
L 97.261791 188.541636 
L 98.245386 187.297833 
L 97.532665 186.431051 
L 97.345734 183.059015 
L 100.531818 180.834097 
L 103.037616 182.233315 
L 99.193235 181.178216 
L 98.915234 178.718077 
L 100.529981 175.270026 
L 99.296208 172.949392 
L 102.835062 171.71134 
L 104.38847 172.14958 
L 105.016215 171.974703 
L 106.093979 168.748864 
L 107.012102 167.30908 
L 105.588103 164.917232 
L 104.480992 161.147044 
L 103.387639 159.48969 
L 104.975711 159.160653 
L 104.397455 159.242787 
L 103.958486 156.31996 
L 104.927348 155.029099 
L 106.260007 154.60562 
L 107.379746 156.540651 
L 108.006937 154.725877 
L 108.093335 152.240311 
L 108.894093 151.128012 
L 111.008372 147.330615 
L 112.305277 148.138113 
L 112.485387 148.462747 
L 113.273356 148.154453 
L 113.900333 149.066549 
L 112.157444 148.739613 
L 111.107747 149.504235 
L 111.63672 147.936096 
L 111.005446 145.287699 
L 111.66737 144.710574 
L 113.973008 143.683192 
L 115.072464 142.121198 
L 117.150976 138.031998 
L 119.0388 134.776136 
L 121.225623 130.108644 
L 120.960247 130.477468 
L 119.506683 131.60414 
L 118.937849 128.235252 
L 119.258805 124.573002 
L 118.916657 126.579299 
L 115.652244 123.736721 
L 116.55732 124.147535 
L 115.029442 125.332588 
L 112.993365 121.819567 
L 110.433389 122.403546 
L 108.282682 121.93148 
L 109.362378 123.581582 
L 108.664756 122.231273 
L 107.366226 122.195307 
L 107.111257 121.695387 
L 107.309035 118.244798 
L 108.657506 115.430557 
L 109.305908 115.803875 
L 109.845529 116.448002 
L 109.712077 116.195266 
L 110.701052 115.148081 
L 111.673028 112.143344 
L 111.021527 109.159945 
L 109.989974 108.495185 
L 111.244509 107.787089 
L 112.061029 107.748369 
L 112.583365 105.929713 
L 113.436226 103.728961 
L 114.37355 105.63618 
L 116.231021 104.680287 
L 117.506015 103.345926 
L 118.501444 103.789791 
L 118.259474 103.501057 
L 118.146599 103.193121 
L 118.66595 103.775535 
L 120.409118 104.867248 
L 120.811338 104.27367 
L 122.011361 105.674923 
L 124.295617 104.632953 
L 125.099223 105.7036 
L 126.260598 109.357493 
L 127.364361 110.655049 
L 129.203516 110.852053 
L 130.178091 107.022435 
L 131.342974 105.254593 
L 130.961648 106.365061 
L 130.97375 106.954569 
L 130.866212 108.455444 
L 129.923057 105.111437 
L 132.224871 103.197376 
L 132.171285 102.841415 
L 132.963512 105.935074 
L 135.217188 103.952795 
L 137.069446 100.300563 
L 137.345795 97.482562 
L 134.398652 98.138019 
L 133.87137 95.961924 
L 132.516435 95.272434 
L 132.922049 95.638963 
L 132.773017 96.016161 
L 132.357278 95.765791 
L 132.473966 95.289545 
L 133.425701 94.515017 
L 134.35072 95.412459 
L 134.523393 91.043163 
L 134.371236 91.40185 
L 135.449056 92.676293 
L 135.884733 92.262349 
L 135.315892 89.810444 
L 136.012395 90.145735 
L 135.923848 90.662083 
L 138.422882 90.695723 
L 138.852707 90.059241 
L 137.686322 89.787193 
L 139.528287 87.450371 
L 138.757455 88.99417 
L 140.91664 91.663046 
L 142.37443 92.731837 
L 145.324363 91.0454 
L 146.60693 90.845739 
L 145.94426 92.428296 
L 144.498243 91.409106 
L 146.005042 93.453351 
L 144.060862 92.338794 
L 143.961988 90.63911 
L 145.05081 89.054165 
L 144.797354 88.659875 
L 146.711651 88.87517 
L 146.11613 89.076878 
L 145.709673 88.345835 
L 145.914667 89.569662 
L 144.3786 90.512983 
L 143.116376 89.631818 
L 144.164492 92.022928 
L 144.174833 95.000816 
L 143.175268 97.244453 
L 141.174119 100.824226 
L 137.584582 101.144785 
L 135.668869 102.969317 
L 134.074201 102.304537 
L 132.446668 103.77855 
L 131.909844 106.896198 
L 128.980228 104.329894 
L 129.04479 102.482077 
L 128.897567 102.328533 
L 128.255146 105.909489 
L 126.689167 107.788806 
L 126.961486 110.792487 
L 128.043748 113.633072 
L 126.813337 118.619821 
L 126.980068 119.907915 
L 126.591235 120.359866 
L 126.489101 121.257737 
L 127.087572 122.615392 
L 127.947838 122.662385 
L 131.671756 125.984418 
L 133.198828 125.262654 
L 134.82898 131.786359 
L 137.627664 135.082624 
L 137.186476 135.901949 
L 137.730165 137.691575 
L 138.751248 137.466919 
L 138.89383 133.705215 
L 140.772146 130.929422 
L 143.868368 132.92369 
L 144.315501 134.676741 
L 145.957721 134.517706 
L 147.801727 137.075364 
L 147.513141 138.016082 
L 146.592892 137.095764 
L 144.720135 137.345182 
L 146.310552 139.346965 
L 146.770184 141.623837 
L 145.277538 142.958802 
L 147.870298 146.248169 
L 150.848065 147.597627 
L 150.427634 147.796424 
L 149.083829 152.257668 
L 147.917422 154.595628 
L 148.384968 157.400573 
L 148.794973 157.112635 
L 148.706103 155.285453 
L 147.788845 152.714448 
L 147.087365 157.47126 
L 147.588715 156.403912 
L 148.125821 155.582858 
L 147.865022 157.192283 
L 147.057289 156.854615 
L 148.751738 159.984558 
L 149.76638 160.373789 
L 147.619881 160.844379 
L 148.842616 161.891315 
L 149.516084 165.913878 
L 150.615687 165.260185 
L 151.039365 166.291151 
L 149.768912 167.653225 
L 150.095156 169.291479 
L 152.293877 168.527184 
L 152.735127 170.475301 
L 151.078229 171.483521 
L 153.957918 174.655957 
L 157.375831 175.416504 
L 160.037645 173.187326 
L 160.693228 172.93439 
L 161.685722 174.829467 
L 161.323007 177.355291 
L 162.497011 176.117349 
L 164.14116 177.59106 
L 165.035005 172.906769 
L 165.899034 173.919254 
L 163.629053 171.889181 
L 163.3806 172.459754 
L 164.051437 174.883455 
L 166.657472 175.650309 
L 164.12124 174.792924 
L 165.393196 172.35427 
L 165.151064 175.006499 
L 165.007592 175.793716 
L 165.285649 178.108326 
L 164.278092 183.04866 
L 164.749198 183.463843 
L 168.247639 187.477169 
L 169.495544 189.559897 
L 167.938199 193.576799 
L 167.118916 197.103534 
L 167.095814 199.391231 
L 165.991182 198.429514 
L 168.444397 200.891298 
L 168.114839 201.148023 
L 167.114261 204.749042 
L 166.926453 208.110787 
L 165.869475 210.714566 
L 166.109051 213.388473 
L 167.688503 218.757091 
L 170.199063 220.172001 
L 169.641898 221.741217 
L 168.07118 224.60005 
L 169.423299 224.311849 
L 171.009975 223.396106 
L 172.517968 223.210315 
L 174.720103 223.230922 
L 174.828136 219.320887 
L 174.151879 217.79717 
L 174.538699 217.031306 
L 174.609112 214.205226 
L 175.548269 214.425695 
L 175.041662 214.571188 
L 174.953484 213.928594 
L 173.888961 216.48061 
L 174.223186 217.654636 
L 172.653948 216.816727 
L 171.04361 216.369043 
L 171.016468 214.16211 
L 172.464386 212.762209 
L 173.99984 211.575437 
L 174.96796 209.697372 
L 175.757709 209.12836 
L 173.439852 205.313401 
L 174.131522 203.936806 
L 173.029032 204.151684 
L 173.312619 205.602291 
L 172.67142 204.262964 
L 173.148112 203.133554 
L 171.429524 202.834227 
L 174.56758 202.814672 
L 176.178577 203.625997 
L 175.859298 204.980895 
L 177.06151 206.329051 
L 178.055105 208.707349 
L 180.82176 209.445082 
L 181.650233 210.424308 
L 182.60996 209.42116 
L 181.192459 206.665124 
L 178.518739 205.374218 
L 175.101293 203.920814 
L 173.086029 202.092764 
L 174.47755 203.22479 
L 176.270473 202.776212 
L 173.769026 200.651511 
L 175.413999 198.712593 
L 178.347044 198.651421 
L 180.405613 196.586421 
L 178.587119 198.200536 
L 176.967945 197.192076 
L 178.243705 194.530422 
L 177.957441 192.89135 
L 178.165458 191.588509 
L 177.507883 189.400842 
L 177.299651 186.945917 
L 178.02046 188.329594 
L 178.354068 189.328682 
L 179.571638 189.687588 
L 182.400396 186.997873 
L 181.937296 183.827378 
L 184.550684 182.096546 
L 184.745955 179.624845 
L 186.598769 180.88409 
L 189.034612 181.229151 
L 188.094476 179.592046 
L 189.739335 176.906743 
L 190.385511 175.425869 
L 192.455143 172.994081 
L 192.229483 172.293768 
L 193.057934 173.031196 
L 193.816982 169.624597 
L 192.998935 171.976782 
L 191.756905 170.990792 
L 190.598584 169.149595 
L 191.191066 167.909174 
L 187.766978 167.661055 
L 187.742999 166.754023 
L 188.755215 165.743515 
L 188.979793 168.773809 
L 190.735456 169.964504 
L 194.594314 169.669995 
L 193.370328 169.814761 
L 193.362384 167.298709 
L 195.392288 165.714558 
L 195.644147 164.241481 
L 195.42828 164.696409 
L 196.518942 165.947619 
L 195.6635 162.891393 
L 193.612444 159.178156 
L 194.126327 157.374839 
L 196.272621 157.081102 
L 197.362732 156.508985 
L 197.915934 155.487073 
L 199.326072 155.208213 
L 198.939817 153.939576 
L 201.161132 151.270809 
L 201.355001 149.144286 
L 202.373397 147.926426 
L 201.748625 145.732067 
L 201.354786 147.877651 
L 201.379833 149.593493 
L 201.851736 148.859311 
L 201.520609 148.480201 
L 203.511591 145.645514 
L 204.435977 146.789637 
L 204.993772 146.815722 
L 205.729749 141.037668 
L 207.966795 141.816657 
L 209.114854 144.234961 
L 210.528459 141.274265 
L 211.392541 140.454984 
L 210.910321 141.368642 
L 211.279777 142.564291 
L 214.003479 142.829127 
L 214.782611 142.736224 
L 217.286899 140.631621 
L 219.401701 139.60353 
L 220.109917 138.420965 
L 221.5973 138.483684 
L 220.641614 137.058016 
L 220.058336 134.507153 
L 219.256437 132.704745 
L 219.49075 133.314101 
L 220.000942 133.2721 
L 220.721438 131.765402 
L 223.487807 136.115513 
L 222.409155 138.352913 
L 223.646912 138.630987 
L 222.949679 138.464552 
L 220.758456 142.761773 
L 221.605316 144.109827 
L 222.012197 145.751483 
L 221.905291 147.981332 
L 223.172068 152.473162 
L 223.100258 154.338939 
L 228.577934 157.033489 
L 228.858527 157.758038 
L 232.378689 155.326527 
L 232.798636 153.425253 
L 231.875122 151.781882 
L 234.695953 150.347826 
L 234.782876 150.704869 
L 236.41212 147.864487 
L 239.787739 146.224647 
L 239.771053 144.548744 
L 241.088663 141.175012 
L 241.337989 137.47556 
L 242.234591 138.603029 
L 242.399006 137.309231 
L 242.039226 132.92112 
L 242.618308 129.06546 
L 242.928751 125.811652 
L 241.944735 126.781198 
L 243.299518 124.066345 
L 243.328144 120.68408 
L 246.462393 117.736331 
L 248.864889 116.363536 
L 247.015429 113.412169 
L 245.520915 109.1733 
L 247.661587 106.261991 
L 248.505883 102.352804 
L 247.765578 97.839935 
L 248.040161 97.549392 
L 246.617962 94.846365 
L 246.421815 95.379451 
L 244.734503 91.874694 
L 244.652874 86.930101 
L 244.186012 84.325839 
L 244.510289 80.172725 
L 243.208143 80.444812 
L 244.094234 84.237219 
L 242.938603 86.560367 
L 240.558541 88.468038 
L 239.344007 91.955977 
L 239.04306 91.996205 
L 239.130877 92.2852 
L 238.430177 92.794187 
L 239.174041 94.585636 
L 238.539269 95.345214 
L 239.909039 92.288022 
L 240.58391 93.040326 
L 239.190017 90.543604 
L 238.258845 89.615689 
L 240.540755 87.258983 
L 241.462813 87.035351 
L 240.433412 83.956652 
L 240.564051 79.420925 
L 241.573566 77.757366 
L 243.709536 81.143217 
L 244.402125 85.671779 
L 243.030848 82.501201 
L 242.534181 82.063234 
L 244.820214 82.853297 
L 246.751601 83.013027 
L 247.519409 81.309415 
L 249.743219 78.79302 
L 250.998663 78.751183 
L 250.500379 78.299985 
L 251.653346 80.900482 
L 251.617728 82.130063 
L 252.235127 81.697684 
L 253.39111 86.868697 
L 250.946908 91.34756 
L 248.081578 93.654241 
L 249.477651 92.327052 
L 248.808871 91.770294 
L 246.636833 93.974833 
L 246.859596 91.69712 
L 245.666617 88.699845 
L 245.539624 83.06518 
L 245.597908 79.402467 
L 243.156006 77.390847 
L 243.074178 74.16583 
L 242.910662 75.613452 
L 243.83048 74.19625 
L 243.612845 71.403432 
L 244.372146 71.688064 
L 245.60611 71.396792 
L 245.070504 68.948676 
L 245.809636 66.501269 
L 248.821374 63.122479 
L 249.871287 64.775808 
L 251.656751 66.18992 
L 252.757615 68.156212 
L 254.837386 68.335247 
L 254.493166 69.411168 
L 254.498204 72.101253 
L 255.67361 72.771197 
L 255.913012 69.893223 
L 255.713662 68.308935 
L 255.780043 65.349747 
L 256.308331 61.966112 
L 257.458975 61.27411 
L 257.951318 58.757398 
L 256.863877 59.417142 
L 256.53794 60.285892 
L 255.000175 60.413764 
L 256.66891 60.725407 
L 258.794971 58.663618 
L 260.651564 58.789157 
L 263.689381 60.813752 
L 264.122816 60.493229 
L 265.91601 59.774306 
L 268.239711 61.099015 
L 270.96791 61.423784 
L 273.908833 63.474457 
L 275.083355 61.771038 
L 279.234667 60.007705 
L 280.073515 57.838327 
L 281.970035 58.626674 
L 283.907621 60.464511 
L 283.749949 59.441671 
L 282.834531 57.316142 
L 284.242693 60.531565 
L 286.102594 59.261554 
L 289.117751 58.433834 
L 291.63333 56.57069 
L 294.000376 53.568 
L 294.697735 56.013233 
L 295.751137 55.145188 
L 299.95813 58.246735 
L 301.953758 63.39872 
L 303.749944 65.189072 
L 306.104947 67.120903 
L 307.63752 67.997504 
L 310.342577 67.880743 
L 312.698586 66.738961 
L 316.712857 69.83545 
L 319.539201 70.939966 
L 320.705047 70.714193 
L 320.919031 71.288842 
L 323.274753 73.305784 
L 325.525953 72.80978 
L 326.883676 74.647537 
L 330.999383 77.522329 
L 332.800118 81.795713 
L 334.280061 84.096027 
L 337.546557 85.730955 
L 337.341284 86.915801 
L 335.01798 89.152387 
L 336.913808 91.771474 
L 337.152626 96.042352 
L 335.891841 94.453609 
L 338.288777 93.200207 
L 340.488989 97.863702 
L 341.23239 100.112509 
L 341.481197 103.266684 
L 343.616332 100.945897 
L 343.669736 102.174683 
L 344.992198 103.848998 
L 347.020502 103.959671 
L 349.252616 103.241185 
L 348.381292 103.304957 
L 347.268694 105.341852 
L 347.321624 107.892607 
L 345.59811 107.489411 
L 345.539024 106.824251 
L 347.828842 107.734627 
L 349.358582 106.604201 
L 349.818026 108.24947 
L 349.922355 107.915567 
L 348.664836 105.416694 
L 349.557246 106.181798 
L 349.182653 103.245581 
L 348.182082 102.834588 
L 348.644735 101.099212 
L 350.956311 102.858753 
L 352.315426 106.459577 
L 350.61587 108.772684 
L 352.840648 109.982472 
L 353.256885 109.720466 
L 356.003829 108.221313 
L 357.055675 109.178764 
L 357.427045 110.55704 
L 358.100943 111.510549 
L 356.930749 115.306855 
L 357.324434 117.980683 
L 354.88662 120.349277 
L 354.280011 120.760381 
L 354.814372 123.030861 
L 354.614462 125.426536 
L 353.5485 125.283612 
L 351.38289 122.419602 
L 349.354084 124.326364 
L 347.399161 125.288271 
L 347.127318 125.017652 
L 349.813729 124.245955 
L 350.268033 121.475795 
L 348.39881 124.436894 
L 347.306179 124.099426 
L 347.904523 128.246971 
L 348.590579 129.202988 
L 348.987418 132.357416 
L 350.117401 133.338011 
L 350.919896 132.866602 
L 353.451093 134.357324 
L 355.702833 133.007219 
L 355.136188 134.208664 
L 356.400147 134.328996 
L 357.702541 135.488655 
L 357.967144 136.279358 
L 357.926349 136.97832 
L 358.585649 139.164665 
L 356.753563 144.856028 
L 357.745879 146.007088 
L 356.052844 148.625187 
L 353.596987 147.940389 
L 353.603055 147.600655 
L 355.763735 149.800476 
L 356.994595 153.892317 
L 358.313094 155.714002 
L 359.381734 157.751143 
L 358.976581 158.51445 
L 357.703546 161.693085 
L 359.652497 164.433244 
L 363.235 166.473916 
L 364.504496 167.495537 
L 366.94424 167.704583 
L 368.684945 171.086573 
L 369.109687 176.513697 
L 370.350368 179.209144 
L 371.380598 178.566717 
L 373.750296 179.995908 
L 373.782527 182.312826 
L 373.543487 182.363736 
L 375.017785 179.681998 
L 372.927967 178.283666 
L 374.98724 180.667459 
L 375.943339 182.550761 
L 376.88261 184.841936 
L 375.981461 185.8685 
L 374.982521 184.062082 
L 376.09151 182.572517 
L 375.553742 183.266605 
L 376.567746 185.260179 
L 377.600734 186.857178 
L 378.87673 187.498312 
L 379.160901 187.380245 
L 379.949667 187.80466 
L 380.655199 192.356767 
L 380.099613 192.131384 
L 378.488123 195.82838 
L 381.029578 198.835832 
L 379.463271 202.096509 
L 380.965269 203.71638 
L 380.672422 206.44118 
L 382.303438 207.690875 
L 383.550392 208.862357 
L 383.376619 210.757361 
L 382.559871 210.386655 
L 382.347169 211.516492 
L 383.947501 212.012756 
L 384.692004 215.649074 
L 382.082062 218.953211 
L 380.987653 221.132972 
L 378.844849 220.682406 
L 378.104037 221.238069 
L 377.569765 220.851196 
L 376.858184 222.991479 
L 376.495037 221.912157 
L 377.086308 225.079145 
L 377.044138 228.921609 
L 378.331166 227.772429 
L 379.622552 227.733688 
L 379.966335 228.713289 
L 378.910718 229.120087 
L 376.895078 228.425442 
L 376.304047 232.332767 
L 376.388568 230.802454 
L 377.58405 227.413122 
L 378.3169 228.835179 
L 377.059095 228.512409 
L 376.736536 228.124665 
L 377.237351 228.032407 
L 375.813725 230.047669 
L 373.699693 229.462247 
L 373.100559 231.424793 
L 372.481379 231.33231 
L 370.366964 233.917434 
L 369.433817 233.3419 
L 368.582843 233.922382 
L 369.160021 232.909172 
L 369.667222 232.316909 
L 370.733308 232.856297 
L 370.126197 232.642616 
L 368.208529 230.639646 
L 370.510882 229.505384 
L 371.195145 228.175039 
L 371.550306 227.868848 
L 371.951544 230.083878 
L 373.431585 229.822092 
L 373.47535 228.476785 
L 371.442671 228.6532 
L 370.289674 228.426498 
L 370.725264 228.442001 
L 369.903399 230.175904 
L 368.544985 229.742316 
L 367.468503 230.785785 
L 367.912909 231.879703 
L 366.534029 236.978505 
L 366.496404 237.576756 
L 366.688761 235.106527 
L 367.974259 234.222772 
L 365.55537 231.386218 
L 363.732708 234.372688 
L 364.108541 236.375365 
L 365.353422 237.060327 
L 365.738515 239.411507 
L 366.497561 238.875496 
L 366.535309 240.011927 
L 367.730358 242.715554 
L 369.8137 244.618703 
L 369.502066 247.259976 
L 369.732216 252.007767 
L 368.965678 253.864296 
L 365.984946 257.721003 
L 365.736376 258.42883 
L 365.087886 261.967688 
L 363.995666 264.035001 
L 365.532707 266.11755 
L 365.30828 265.958181 
L 366.07479 265.936026 
L 364.335809 267.223099 
L 362.986444 269.122815 
L 364.693363 270.241758 
L 363.674419 269.530602 
L 363.071906 271.742539 
L 364.997547 270.571566 
L 367.022046 272.090052 
L 369.598294 270.269996 
L 369.090298 273.472998 
L 368.782973 273.906892 
L 371.165099 272.936204 
L 371.562398 270.194583 
L 371.412326 265.547586 
L 373.458146 263.733972 
L 372.684037 264.92746 
L 374.619188 266.614013 
L 373.775362 268.07214 
L 372.722282 266.932962 
L 370.100725 261.315811 
L 368.99356 259.971342 
L 369.870374 255.155658 
L 368.95664 253.962527 
L 366.129651 254.370928 
L 362.294195 249.482632 
L 361.275387 248.868046 
L 361.817512 251.082056 
L 363.175134 253.543909 
L 363.4232 251.638352 
L 364.397999 249.372609 
L 364.909451 245.310538 
L 364.513319 245.771883 
L 362.814742 242.636961 
L 362.974456 242.908629 
L 361.639289 241.918463 
L 362.511407 239.23248 
L 367.410899 236.406065 
L 370.656238 236.61763 
L 372.557891 236.404943 
L 375.009692 239.747903 
L 375.947785 240.805094 
L 379.774852 240.833552 
L 382.286889 243.176032 
L 383.439951 242.627979 
L 383.475533 241.846918 
L 384.553235 242.630943 
L 384.126786 245.581742 
L 387.525944 249.120853 
L 388.942922 252.883857 
L 388.275212 253.8044 
L 387.312156 256.902714 
L 387.802996 257.680966 
L 385.545596 260.923724 
L 383.712814 261.421544 
L 385.034168 262.05649 
L 383.879321 263.933232 
L 381.946202 263.148263 
L 382.599664 266.249984 
L 381.960274 268.344339 
L 383.077767 268.37761 
L 383.255294 268.767014 
L 383.477707 270.231227 
L 382.22493 272.378911 
L 380.507313 274.837997 
L 378.990942 275.195737 
L 378.876587 277.888523 
L 377.030166 278.380388 
L 377.954065 276.886891 
L 379.008668 277.135055 
L 379.620638 278.79098 
L 380.652857 280.707214 
L 381.069333 280.802049 
L 383.011395 279.157281 
L 383.330586 279.617363 
L 383.911131 274.487407 
L 384.79851 271.845894 
L 386.791964 270.877395 
L 386.681312 269.4541 
L 387.311975 266.080414 
L 387.119253 265.907009 
L 387.740114 267.135152 
L 386.918742 265.192776 
L 387.45671 262.217437 
L 388.196774 260.666781 
L 390.078036 259.749029 
L 388.493988 258.061728 
L 387.970015 258.825014 
L 387.57368 253.860803 
L 388.098348 252.781966 
L 390.560908 250.024671 
L 390.514911 250.151366 
L 389.672098 250.502572 
L 390.08123 247.809755 
L 388.812965 246.522911 
L 389.717362 249.662544 
L 391.147403 248.815851 
L 390.703723 249.559778 
L 390.059422 246.320169 
L 389.969868 242.186277 
L 389.024305 235.61226 
L 388.442771 233.13397 
L 388.625767 230.174915 
L 388.129748 225.933854 
L 387.443497 226.696656 
L 385.489218 228.088652 
L 384.875333 225.097708 
L 382.746923 220.851945 
L 382.138064 217.907062 
L 382.799236 215.768623 
L 383.046561 214.577148 
L 382.030209 214.429196 
L 381.396089 212.976831 
L 382.323353 213.444393 
L 384.797957 214.262081 
L 390.708511 214.151617 
L 392.939664 213.580057 
L 394.950027 211.326765 
L 394.790831 209.395181 
L 394.229735 208.619987 
L 397.084513 204.879352 
L 397.952263 201.860493 
L 398.487273 203.074845 
L 396.829235 200.994959 
L 395.152276 200.589555 
L 393.338772 200.850622 
L 393.865142 201.514985 
L 393.235059 202.308373 
L 394.593376 204.262231 
L 394.193242 203.777265 
L 391.487265 202.384246 
L 389.23107 194.44101 
L 387.581203 193.512761 
L 387.091828 193.694283 
L 386.688093 192.613554 
L 384.78434 191.208269 
L 383.771431 191.666104 
L 384.187462 193.992962 
L 383.536419 197.377921 
L 384.222922 197.691968 
L 384.768386 202.176847 
L 383.917478 203.840238 
L 382.766985 206.525633 
L 381.578748 205.348903 
L 379.976302 206.174713 
L 380.718259 207.66629 
L 379.680261 206.791296 
L 379.96756 208.597131 
L 380.473657 208.144211 
L 381.310216 206.624359 
L 380.387904 207.64387 
L 380.105455 209.388872 
L 381.406192 209.321007 
L 379.785066 208.954905 
L 378.880908 210.509739 
L 378.439876 212.138399 
L 377.801387 213.065527 
L 375.818718 210.641844 
L 376.405777 212.3384 
L 376.339947 211.722123 
L 376.662972 213.02226 
L 377.267457 213.418018 
L 377.345111 214.166472 
L 376.784712 212.203161 
L 373.178176 211.557078 
L 373.178176 211.557078 
" clip-path="url(#pb953b254fa)" style="fill: none; stroke: #1f77b4; stroke-width: 1.5; stroke-linecap: square"/>
   </g>
   <g id="patch_3">
    <path d="M 57.6 307.584 
L 57.6 41.472 
" style="fill: none; stroke: #000000; stroke-width: 0.8; stroke-linejoin: miter; stroke-linecap: square"/>
   </g>
   <g id="patch_4">
    <path d="M 414.72 307.584 
L 414.72 41.472 
" style="fill: none; stroke: #000000; stroke-width: 0.8; stroke-linejoin: miter; stroke-linecap: square"/>
   </g>
   <g id="patch_5">
    <path d="M 57.6 307.584 
L 414.72 307.584 
" style="fill: none; stroke: #000000; stroke-width: 0.8; stroke-linejoin: miter; stroke-linecap: square"/>
   </g>
   <g id="patch_6">
    <path d="M 57.6 41.472 
L 414.72 41.472 
" style="fill: none; stroke: #000000; stroke-width: 0.8; stroke-linejoin: miter; stroke-linecap: square"/>
   </g>
  </g>
 </g>
 <defs>
  <clipPath id="pb953b254fa">
   <rect x="57.6" y="41.472" width="357.12" height="266.112"/>
  </clipPath>
 </defs>
</svg>
