<?xml version="1.0" encoding="utf-8" standalone="no"?>
<!DOCTYPE svg PUBLIC "-//W3C//DTD SVG 1.1//EN"
  "http://www.w3.org/Graphics/SVG/1.1/DTD/svg11.dtd">
<svg xmlns:xlink="http://www.w3.org/1999/xlink" width="460.8pt" height="345.6pt" viewBox="0 0 460.8 345.6" xmlns="http://www.w3.org/2000/svg" version="1.1">
 <metadata>
  <rdf:RDF xmlns:dc="http://purl.org/dc/elements/1.1/" xmlns:cc="http://creativecommons.org/ns#" xmlns:rdf="http://www.w3.org/1999/02/22-rdf-syntax-ns#">
   <cc:Work>
    <dc:type rdf:resource="http://purl.org/dc/dcmitype/StillImage"/>
    <dc:date>2025-11-24T22:57:24.317236</dc:date>
    <dc:format>image/svg+xml</dc:format>
    <dc:creator>
     <cc:Agent>
      <dc:title>Matplotlib v3.10.6, https://matplotlib.org/</dc:title>
     </cc:Agent>
    </dc:creator>
   </cc:Work>
  </rdf:RDF>
 </metadata>
 <defs>
  <style type="text/css">*{stroke-linejoin: round; stroke-linecap: butt}</style>
 </defs>
 <g id="figure_1">
  <g id="patch_1">
   <path d="M 0 345.6 
L 460.8 345.6 
L 460.8 0 
L 0 0 
z
" style="fill: #ffffff"/>
  </g>
  <g id="axes_1">
   <g id="patch_2">
    <path d="M 57.6 307.584 
L 414.72 307.584 
L 414.72 41.472 
L 57.6 41.472 
z
" style="fill: #ffffff"/>
   </g>
   <g id="matplotlib.axis_1">
    <g id="xtick_1">
     <g id="line2d_1">
      <defs>
       <path id="m08398311eb" d="M 0 0 
L 0 3.5 
" style="stroke: #000000; stroke-width: 0.8"/>
      </defs>
      <g>
       <use xlink:href="#m08398311eb" x="90.148397" y="307.584" style="stroke: #000000; stroke-width: 0.8"/>
      </g>
     </g>
     <g id="text_1">
      <!-- 0 -->
      <g transform="translate(86.967147 322.182437) scale(0.1 -0.1)">
       <defs>
        <path id="DejaVuSans-30" d="M 2034 4250 
Q 1547 4250 1301 3770 
Q 1056 3291 1056 2328 
Q 1056 1369 1301 889 
Q 1547 409 2034 409 
Q 2525 409 2770 889 
Q 3016 1369 3016 2328 
Q 3016 3291 2770 3770 
Q 2525 4250 2034 4250 
z
M 2034 4750 
Q 2819 4750 3233 4129 
Q 3647 3509 3647 2328 
Q 3647 1150 3233 529 
Q 2819 -91 2034 -91 
Q 1250 -91 836 529 
Q 422 1150 422 2328 
Q 422 3509 836 4129 
Q 1250 4750 2034 4750 
z
" transform="scale(0.015625)"/>
       </defs>
       <use xlink:href="#DejaVuSans-30"/>
      </g>
     </g>
    </g>
    <g id="xtick_2">
     <g id="line2d_2">
      <g>
       <use xlink:href="#m08398311eb" x="169.06586" y="307.584" style="stroke: #000000; stroke-width: 0.8"/>
      </g>
     </g>
     <g id="text_2">
      <!-- 1000 -->
      <g transform="translate(156.34086 322.182437) scale(0.1 -0.1)">
       <defs>
        <path id="DejaVuSans-31" d="M 794 531 
L 1825 531 
L 1825 4091 
L 703 3866 
L 703 4441 
L 1819 4666 
L 2450 4666 
L 2450 531 
L 3481 531 
L 3481 0 
L 794 0 
L 794 531 
z
" transform="scale(0.015625)"/>
       </defs>
       <use xlink:href="#DejaVuSans-31"/>
       <use xlink:href="#DejaVuSans-30" transform="translate(63.623047 0)"/>
       <use xlink:href="#DejaVuSans-30" transform="translate(127.246094 0)"/>
       <use xlink:href="#DejaVuSans-30" transform="translate(190.869141 0)"/>
      </g>
     </g>
    </g>
    <g id="xtick_3">
     <g id="line2d_3">
      <g>
       <use xlink:href="#m08398311eb" x="247.983323" y="307.584" style="stroke: #000000; stroke-width: 0.8"/>
      </g>
     </g>
     <g id="text_3">
      <!-- 2000 -->
      <g transform="translate(235.258323 322.182437) scale(0.1 -0.1)">
       <defs>
        <path id="DejaVuSans-32" d="M 1228 531 
L 3431 531 
L 3431 0 
L 469 0 
L 469 531 
Q 828 903 1448 1529 
Q 2069 2156 2228 2338 
Q 2531 2678 2651 2914 
Q 2772 3150 2772 3378 
Q 2772 3750 2511 3984 
Q 2250 4219 1831 4219 
Q 1534 4219 1204 4116 
Q 875 4013 500 3803 
L 500 4441 
Q 881 4594 1212 4672 
Q 1544 4750 1819 4750 
Q 2544 4750 2975 4387 
Q 3406 4025 3406 3419 
Q 3406 3131 3298 2873 
Q 3191 2616 2906 2266 
Q 2828 2175 2409 1742 
Q 1991 1309 1228 531 
z
" transform="scale(0.015625)"/>
       </defs>
       <use xlink:href="#DejaVuSans-32"/>
       <use xlink:href="#DejaVuSans-30" transform="translate(63.623047 0)"/>
       <use xlink:href="#DejaVuSans-30" transform="translate(127.246094 0)"/>
       <use xlink:href="#DejaVuSans-30" transform="translate(190.869141 0)"/>
      </g>
     </g>
    </g>
    <g id="xtick_4">
     <g id="line2d_4">
      <g>
       <use xlink:href="#m08398311eb" x="326.900787" y="307.584" style="stroke: #000000; stroke-width: 0.8"/>
      </g>
     </g>
     <g id="text_4">
      <!-- 3000 -->
      <g transform="translate(314.175787 322.182437) scale(0.1 -0.1)">
       <defs>
        <path id="DejaVuSans-33" d="M 2597 2516 
Q 3050 2419 3304 2112 
Q 3559 1806 3559 1356 
Q 3559 666 3084 287 
Q 2609 -91 1734 -91 
Q 1441 -91 1130 -33 
Q 819 25 488 141 
L 488 750 
Q 750 597 1062 519 
Q 1375 441 1716 441 
Q 2309 441 2620 675 
Q 2931 909 2931 1356 
Q 2931 1769 2642 2001 
Q 2353 2234 1838 2234 
L 1294 2234 
L 1294 2753 
L 1863 2753 
Q 2328 2753 2575 2939 
Q 2822 3125 2822 3475 
Q 2822 3834 2567 4026 
Q 2313 4219 1838 4219 
Q 1578 4219 1281 4162 
Q 984 4106 628 3988 
L 628 4550 
Q 988 4650 1302 4700 
Q 1616 4750 1894 4750 
Q 2613 4750 3031 4423 
Q 3450 4097 3450 3541 
Q 3450 3153 3228 2886 
Q 3006 2619 2597 2516 
z
" transform="scale(0.015625)"/>
       </defs>
       <use xlink:href="#DejaVuSans-33"/>
       <use xlink:href="#DejaVuSans-30" transform="translate(63.623047 0)"/>
       <use xlink:href="#DejaVuSans-30" transform="translate(127.246094 0)"/>
       <use xlink:href="#DejaVuSans-30" transform="translate(190.869141 0)"/>
      </g>
     </g>
    </g>
    <g id="xtick_5">
     <g id="line2d_5">
      <g>
       <use xlink:href="#m08398311eb" x="405.81825" y="307.584" style="stroke: #000000; stroke-width: 0.8"/>
      </g>
     </g>
     <g id="text_5">
      <!-- 4000 -->
      <g transform="translate(393.09325 322.182437) scale(0.1 -0.1)">
       <defs>
        <path id="DejaVuSans-34" d="M 2419 4116 
L 825 1625 
L 2419 1625 
L 2419 4116 
z
M 2253 4666 
L 3047 4666 
L 3047 1625 
L 3713 1625 
L 3713 1100 
L 3047 1100 
L 3047 0 
L 2419 0 
L 2419 1100 
L 313 1100 
L 313 1709 
L 2253 4666 
z
" transform="scale(0.015625)"/>
       </defs>
       <use xlink:href="#DejaVuSans-34"/>
       <use xlink:href="#DejaVuSans-30" transform="translate(63.623047 0)"/>
       <use xlink:href="#DejaVuSans-30" transform="translate(127.246094 0)"/>
       <use xlink:href="#DejaVuSans-30" transform="translate(190.869141 0)"/>
      </g>
     </g>
    </g>
    <g id="text_6">
     <!-- x -->
     <g transform="translate(233.200625 335.860562) scale(0.1 -0.1)">
      <defs>
       <path id="DejaVuSans-78" d="M 3513 3500 
L 2247 1797 
L 3578 0 
L 2900 0 
L 1881 1375 
L 863 0 
L 184 0 
L 1544 1831 
L 300 3500 
L 978 3500 
L 1906 2253 
L 2834 3500 
L 3513 3500 
z
" transform="scale(0.015625)"/>
      </defs>
      <use xlink:href="#DejaVuSans-78"/>
     </g>
    </g>
   </g>
   <g id="matplotlib.axis_2">
    <g id="ytick_1">
     <g id="line2d_6">
      <defs>
       <path id="m43a603d3a9" d="M 0 0 
L -3.5 0 
" style="stroke: #000000; stroke-width: 0.8"/>
      </defs>
      <g>
       <use xlink:href="#m43a603d3a9" x="57.6" y="295.262655" style="stroke: #000000; stroke-width: 0.8"/>
      </g>
     </g>
     <g id="text_7">
      <!-- 0 -->
      <g transform="translate(44.2375 299.061873) scale(0.1 -0.1)">
       <use xlink:href="#DejaVuSans-30"/>
      </g>
     </g>
    </g>
    <g id="ytick_2">
     <g id="line2d_7">
      <g>
       <use xlink:href="#m43a603d3a9" x="57.6" y="264.632129" style="stroke: #000000; stroke-width: 0.8"/>
      </g>
     </g>
     <g id="text_8">
      <!-- 250 -->
      <g transform="translate(31.5125 268.431348) scale(0.1 -0.1)">
       <defs>
        <path id="DejaVuSans-35" d="M 691 4666 
L 3169 4666 
L 3169 4134 
L 1269 4134 
L 1269 2991 
Q 1406 3038 1543 3061 
Q 1681 3084 1819 3084 
Q 2600 3084 3056 2656 
Q 3513 2228 3513 1497 
Q 3513 744 3044 326 
Q 2575 -91 1722 -91 
Q 1428 -91 1123 -41 
Q 819 9 494 109 
L 494 744 
Q 775 591 1075 516 
Q 1375 441 1709 441 
Q 2250 441 2565 725 
Q 2881 1009 2881 1497 
Q 2881 1984 2565 2268 
Q 2250 2553 1709 2553 
Q 1456 2553 1204 2497 
Q 953 2441 691 2322 
L 691 4666 
z
" transform="scale(0.015625)"/>
       </defs>
       <use xlink:href="#DejaVuSans-32"/>
       <use xlink:href="#DejaVuSans-35" transform="translate(63.623047 0)"/>
       <use xlink:href="#DejaVuSans-30" transform="translate(127.246094 0)"/>
      </g>
     </g>
    </g>
    <g id="ytick_3">
     <g id="line2d_8">
      <g>
       <use xlink:href="#m43a603d3a9" x="57.6" y="234.001604" style="stroke: #000000; stroke-width: 0.8"/>
      </g>
     </g>
     <g id="text_9">
      <!-- 500 -->
      <g transform="translate(31.5125 237.800823) scale(0.1 -0.1)">
       <use xlink:href="#DejaVuSans-35"/>
       <use xlink:href="#DejaVuSans-30" transform="translate(63.623047 0)"/>
       <use xlink:href="#DejaVuSans-30" transform="translate(127.246094 0)"/>
      </g>
     </g>
    </g>
    <g id="ytick_4">
     <g id="line2d_9">
      <g>
       <use xlink:href="#m43a603d3a9" x="57.6" y="203.371079" style="stroke: #000000; stroke-width: 0.8"/>
      </g>
     </g>
     <g id="text_10">
      <!-- 750 -->
      <g transform="translate(31.5125 207.170298) scale(0.1 -0.1)">
       <defs>
        <path id="DejaVuSans-37" d="M 525 4666 
L 3525 4666 
L 3525 4397 
L 1831 0 
L 1172 0 
L 2766 4134 
L 525 4134 
L 525 4666 
z
" transform="scale(0.015625)"/>
       </defs>
       <use xlink:href="#DejaVuSans-37"/>
       <use xlink:href="#DejaVuSans-35" transform="translate(63.623047 0)"/>
       <use xlink:href="#DejaVuSans-30" transform="translate(127.246094 0)"/>
      </g>
     </g>
    </g>
    <g id="ytick_5">
     <g id="line2d_10">
      <g>
       <use xlink:href="#m43a603d3a9" x="57.6" y="172.740554" style="stroke: #000000; stroke-width: 0.8"/>
      </g>
     </g>
     <g id="text_11">
      <!-- 1000 -->
      <g transform="translate(25.15 176.539772) scale(0.1 -0.1)">
       <use xlink:href="#DejaVuSans-31"/>
       <use xlink:href="#DejaVuSans-30" transform="translate(63.623047 0)"/>
       <use xlink:href="#DejaVuSans-30" transform="translate(127.246094 0)"/>
       <use xlink:href="#DejaVuSans-30" transform="translate(190.869141 0)"/>
      </g>
     </g>
    </g>
    <g id="ytick_6">
     <g id="line2d_11">
      <g>
       <use xlink:href="#m43a603d3a9" x="57.6" y="142.110028" style="stroke: #000000; stroke-width: 0.8"/>
      </g>
     </g>
     <g id="text_12">
      <!-- 1250 -->
      <g transform="translate(25.15 145.909247) scale(0.1 -0.1)">
       <use xlink:href="#DejaVuSans-31"/>
       <use xlink:href="#DejaVuSans-32" transform="translate(63.623047 0)"/>
       <use xlink:href="#DejaVuSans-35" transform="translate(127.246094 0)"/>
       <use xlink:href="#DejaVuSans-30" transform="translate(190.869141 0)"/>
      </g>
     </g>
    </g>
    <g id="ytick_7">
     <g id="line2d_12">
      <g>
       <use xlink:href="#m43a603d3a9" x="57.6" y="111.479503" style="stroke: #000000; stroke-width: 0.8"/>
      </g>
     </g>
     <g id="text_13">
      <!-- 1500 -->
      <g transform="translate(25.15 115.278722) scale(0.1 -0.1)">
       <use xlink:href="#DejaVuSans-31"/>
       <use xlink:href="#DejaVuSans-35" transform="translate(63.623047 0)"/>
       <use xlink:href="#DejaVuSans-30" transform="translate(127.246094 0)"/>
       <use xlink:href="#DejaVuSans-30" transform="translate(190.869141 0)"/>
      </g>
     </g>
    </g>
    <g id="ytick_8">
     <g id="line2d_13">
      <g>
       <use xlink:href="#m43a603d3a9" x="57.6" y="80.848978" style="stroke: #000000; stroke-width: 0.8"/>
      </g>
     </g>
     <g id="text_14">
      <!-- 1750 -->
      <g transform="translate(25.15 84.648197) scale(0.1 -0.1)">
       <use xlink:href="#DejaVuSans-31"/>
       <use xlink:href="#DejaVuSans-37" transform="translate(63.623047 0)"/>
       <use xlink:href="#DejaVuSans-35" transform="translate(127.246094 0)"/>
       <use xlink:href="#DejaVuSans-30" transform="translate(190.869141 0)"/>
      </g>
     </g>
    </g>
    <g id="ytick_9">
     <g id="line2d_14">
      <g>
       <use xlink:href="#m43a603d3a9" x="57.6" y="50.218453" style="stroke: #000000; stroke-width: 0.8"/>
      </g>
     </g>
     <g id="text_15">
      <!-- 2000 -->
      <g transform="translate(25.15 54.017672) scale(0.1 -0.1)">
       <use xlink:href="#DejaVuSans-32"/>
       <use xlink:href="#DejaVuSans-30" transform="translate(63.623047 0)"/>
       <use xlink:href="#DejaVuSans-30" transform="translate(127.246094 0)"/>
       <use xlink:href="#DejaVuSans-30" transform="translate(190.869141 0)"/>
      </g>
     </g>
    </g>
    <g id="text_16">
     <!-- y -->
     <g transform="translate(19.070312 177.487375) rotate(-90) scale(0.1 -0.1)">
      <defs>
       <path id="DejaVuSans-79" d="M 2059 -325 
Q 1816 -950 1584 -1140 
Q 1353 -1331 966 -1331 
L 506 -1331 
L 506 -850 
L 844 -850 
Q 1081 -850 1212 -737 
Q 1344 -625 1503 -206 
L 1606 56 
L 191 3500 
L 800 3500 
L 1894 763 
L 2988 3500 
L 3597 3500 
L 2059 -325 
z
" transform="scale(0.015625)"/>
      </defs>
      <use xlink:href="#DejaVuSans-79"/>
     </g>
    </g>
   </g>
   <g id="line2d_15">
    <path d="M 90.148397 295.262655 
L 90.045099 295.376814 
L 90.087232 295.39471 
L 90.185577 295.488 
L 89.763845 295.147468 
L 88.396766 294.125798 
L 88.054586 293.801812 
L 86.949762 291.878729 
L 86.562263 290.375827 
L 85.788082 289.146703 
L 85.563251 288.935435 
L 85.288026 288.531308 
L 85.182925 288.354441 
L 84.95422 286.520097 
L 84.5823 285.679738 
L 84.53754 284.9082 
L 84.651271 283.334845 
L 84.661144 282.59611 
L 84.485627 281.174847 
L 83.831948 276.102453 
L 83.579581 275.454336 
L 82.82017 274.289446 
L 82.079788 272.826683 
L 80.512974 271.200524 
L 78.84674 268.832409 
L 78.055357 267.119841 
L 76.605056 262.458045 
L 76.146191 261.46663 
L 75.654013 259.439991 
L 75.62161 258.78181 
L 75.27396 257.786912 
L 74.831592 256.921318 
L 74.738331 256.471308 
L 74.532056 256.221347 
L 74.251967 255.328352 
L 73.832727 253.96882 
L 74.003142 253.027585 
L 74.542629 251.242226 
L 74.715123 250.415493 
L 74.755662 249.543713 
L 74.656851 247.457699 
L 74.54858 243.74041 
L 75.069351 241.468481 
L 75.155038 239.752178 
L 75.78915 237.315494 
L 75.695376 235.65247 
L 75.799502 234.64133 
L 75.780741 233.629926 
L 76.731987 229.204781 
L 76.917018 228.275738 
L 76.975569 226.141058 
L 76.948115 225.069742 
L 77.091548 223.188481 
L 77.193811 221.104533 
L 77.923835 216.45109 
L 78.830485 212.594564 
L 79.04111 211.802904 
L 79.408118 207.482471 
L 81.294589 199.879739 
L 81.735095 196.470995 
L 81.672057 195.313299 
L 81.754537 193.403397 
L 81.497631 191.290173 
L 81.29515 190.312705 
L 81.177228 188.538425 
L 80.957288 186.732835 
L 80.946717 184.475085 
L 81.481368 175.2632 
L 81.877268 172.142744 
L 82.89649 167.336089 
L 83.32211 165.686152 
L 83.793492 164.091519 
L 84.764214 161.984024 
L 85.477419 160.814794 
L 87.020195 156.973235 
L 87.201144 156.089539 
L 88.510545 152.945856 
L 89.300484 150.917427 
L 90.077134 146.46447 
L 91.472761 140.614221 
L 91.984118 139.080282 
L 92.409996 137.331836 
L 92.617254 136.569479 
L 93.273467 135.015472 
L 93.743185 133.383392 
L 94.231982 131.833656 
L 96.212422 128.727678 
L 96.44128 128.041624 
L 96.793488 127.517792 
L 97.492531 125.328577 
L 97.737878 124.585918 
L 98.359295 123.227592 
L 99.699522 119.40136 
L 98.859593 117.108504 
L 98.712881 116.438598 
L 98.539293 116.125083 
L 98.446101 116.332476 
L 98.602655 116.07926 
L 98.961673 116.025036 
L 99.179921 115.879641 
L 99.801141 116.440612 
L 100.528147 116.849054 
L 101.076582 116.322201 
L 102.266165 116.167499 
L 103.032389 116.283135 
L 103.42103 116.144337 
L 103.987274 116.33284 
L 104.495011 116.711975 
L 105.274018 117.050383 
L 106.124242 118.445403 
L 106.345248 118.523324 
L 106.504883 118.457959 
L 106.644826 118.782364 
L 107.378853 119.183201 
L 109.192951 121.220792 
L 109.396896 121.547575 
L 109.729348 121.739876 
L 110.167384 122.352192 
L 110.533729 122.798495 
L 111.026358 123.162321 
L 112.001848 123.476972 
L 112.446859 123.774525 
L 112.80744 124.169912 
L 113.689712 124.685273 
L 114.137411 124.623324 
L 115.448445 125.097548 
L 116.141845 125.439736 
L 116.494394 125.409247 
L 117.669061 126.267642 
L 117.888916 126.810329 
L 119.362561 128.995284 
L 120.075559 130.932423 
L 120.751021 132.093415 
L 123.166797 139.615424 
L 123.957243 140.855621 
L 124.440208 141.446545 
L 126.211018 142.894481 
L 126.817039 143.510739 
L 127.800174 145.380499 
L 128.42638 145.727159 
L 129.289016 145.887612 
L 129.736209 145.947627 
L 130.154335 146.233824 
L 130.509229 146.372142 
L 131.750492 147.051734 
L 133.833175 148.719945 
L 134.294935 148.904366 
L 134.767932 149.148381 
L 135.025736 149.220301 
L 136.106925 149.101747 
L 136.482129 149.217136 
L 137.232114 148.81438 
L 137.871138 148.276433 
L 138.429363 148.287813 
L 138.870432 148.110918 
L 139.556106 147.598092 
L 139.960813 147.391917 
L 140.316721 147.082822 
L 142.006613 146.583033 
L 145.507814 144.084582 
L 145.816558 143.777067 
L 146.085185 143.244283 
L 146.357182 142.950473 
L 147.866212 142.688941 
L 148.619684 142.17034 
L 150.406179 141.068775 
L 150.863468 140.160236 
L 153.699754 137.630615 
L 155.203545 135.896506 
L 155.888506 135.417182 
L 157.752688 133.798764 
L 158.149854 133.549293 
L 158.560545 132.91972 
L 159.472425 132.174056 
L 159.949736 132.005802 
L 161.367038 130.906893 
L 164.623857 129.229087 
L 166.277009 128.125533 
L 167.524584 126.722513 
L 168.433066 125.906444 
L 169.989432 125.601432 
L 170.412203 125.415204 
L 171.101952 125.540514 
L 171.89565 125.725087 
L 172.763801 126.299258 
L 174.077348 126.841096 
L 175.372159 126.894415 
L 176.437968 126.632706 
L 178.293359 126.059514 
L 179.694627 125.444089 
L 180.364244 124.980964 
L 180.980041 124.413901 
L 182.204179 123.697051 
L 184.899315 120.521444 
L 185.421865 119.781187 
L 186.796356 118.334413 
L 187.458345 117.713837 
L 187.941225 116.963609 
L 188.35962 116.068295 
L 189.533943 114.185102 
L 190.940527 111.248578 
L 191.368322 110.46614 
L 193.153128 105.118319 
L 193.876285 103.926082 
L 194.280206 103.098594 
L 195.045139 101.747449 
L 195.627743 101.04858 
L 196.62877 99.371796 
L 196.863093 98.774505 
L 197.980353 96.699725 
L 198.69091 94.894114 
L 199.174297 94.375925 
L 199.623875 94.097599 
L 200.256479 92.885161 
L 202.871456 89.972024 
L 203.332966 89.369274 
L 205.299812 87.907654 
L 205.785864 87.695647 
L 206.272345 87.66953 
L 207.133377 87.036163 
L 207.689915 86.40417 
L 208.693259 83.913731 
L 209.011192 82.36087 
L 210.038983 79.737655 
L 210.688253 78.508507 
L 211.270834 77.045482 
L 212.198101 75.545366 
L 213.180143 74.600177 
L 215.506705 72.595525 
L 216.300474 71.323627 
L 217.176831 69.822485 
L 218.960443 66.783371 
L 219.981014 65.555893 
L 220.618513 65.139169 
L 221.759492 64.118599 
L 223.145067 63.277712 
L 223.928837 62.974142 
L 227.106444 60.79843 
L 227.923691 60.430184 
L 228.624708 59.944539 
L 229.226905 59.346359 
L 229.914532 59.040212 
L 235.716926 55.408759 
L 236.630211 55.100921 
L 239.415501 54.896183 
L 241.349546 54.589831 
L 242.367259 54.301654 
L 244.644116 54.14915 
L 246.659308 53.827509 
L 247.708325 53.779016 
L 249.823726 53.568 
L 251.024828 53.637455 
L 254.476076 54.261574 
L 256.354907 54.637841 
L 257.342801 54.919035 
L 258.27209 55.352207 
L 259.082598 55.489255 
L 260.054659 55.529304 
L 262.961818 56.666581 
L 264.891265 57.010323 
L 266.873003 57.486307 
L 268.836779 57.722666 
L 272.812099 58.793112 
L 273.716786 58.861822 
L 275.400413 59.176171 
L 276.118773 59.119584 
L 276.913365 59.186242 
L 279.046573 58.816567 
L 279.897394 58.848162 
L 283.073973 59.719714 
L 285.657294 59.934702 
L 287.309449 60.292513 
L 288.771777 61.092402 
L 289.955491 61.876771 
L 291.836484 63.145766 
L 292.306847 63.267716 
L 293.534268 64.146942 
L 294.174157 64.329793 
L 294.773406 64.341756 
L 297.799661 66.402774 
L 299.024141 67.153811 
L 299.759378 67.556608 
L 300.541448 67.802313 
L 304.646079 69.981407 
L 305.259157 70.442191 
L 305.781958 71.106096 
L 306.40119 71.673233 
L 307.261395 72.791338 
L 308.956883 74.498697 
L 310.867126 76.521451 
L 312.015004 78.103114 
L 313.589325 79.645192 
L 314.424393 80.313142 
L 315.259237 81.152929 
L 316.818335 83.204053 
L 320.761442 87.037892 
L 322.120756 88.24818 
L 323.637235 89.809054 
L 324.883086 91.152003 
L 326.179705 92.233313 
L 328.992922 94.945587 
L 329.704524 95.572215 
L 331.6995 97.822491 
L 332.219044 98.708018 
L 332.939009 99.64731 
L 333.486412 100.654028 
L 339.297726 109.06348 
L 342.160587 115.650213 
L 343.581796 118.656997 
L 344.678785 120.408603 
L 345.45597 122.051934 
L 345.817813 123.08637 
L 346.21647 123.87626 
L 346.696298 124.44621 
L 348.397159 127.260423 
L 349.253999 129.583618 
L 349.533288 130.323397 
L 350.114619 132.730883 
L 351.080904 134.735168 
L 351.843041 136.514075 
L 353.025839 137.988763 
L 353.862593 139.2419 
L 354.264465 139.731704 
L 355.523168 142.539527 
L 356.588418 146.13885 
L 357.05073 147.081575 
L 357.330175 148.500523 
L 359.889061 155.18861 
L 360.158538 156.235618 
L 360.432331 158.441266 
L 361.397281 163.718301 
L 362.053906 166.540956 
L 362.158317 167.560254 
L 362.581363 169.436905 
L 362.730222 170.447651 
L 363.390222 172.230491 
L 363.843188 172.987228 
L 364.448924 174.906771 
L 365.252328 176.338959 
L 366.338651 177.802368 
L 366.777295 178.525357 
L 367.595039 180.581391 
L 367.831942 180.724799 
L 368.222856 181.361968 
L 368.162046 182.154769 
L 368.244161 182.900471 
L 368.579663 183.85877 
L 368.788855 184.127273 
L 368.998111 184.209974 
L 369.636962 185.411488 
L 369.685355 185.634655 
L 369.834104 185.728173 
L 370.273452 185.741695 
L 371.230589 186.072569 
L 372.838389 187.261919 
L 374.534237 188.463881 
L 375.048924 188.859317 
L 377.144137 191.616966 
L 378.211829 194.010758 
L 378.413833 194.758241 
L 378.761284 195.478792 
L 380.722423 201.682623 
L 381.300668 205.844051 
L 382.317327 208.971089 
L 383.310238 210.594418 
L 385.964776 212.91676 
L 386.952615 213.41536 
L 387.191194 213.689573 
L 387.419754 213.640105 
L 387.693338 213.695174 
L 388.104726 213.653743 
L 389.170222 213.918278 
L 389.455201 214.218384 
L 390.304843 214.646968 
L 390.541827 214.494501 
L 391.277289 212.942068 
L 391.560307 212.40036 
L 391.616575 211.726722 
L 391.792041 210.962244 
L 392.300083 209.707895 
L 394.391235 209.023843 
L 395.558945 208.062517 
L 395.99184 207.583824 
L 396.397785 207.335899 
L 397.350268 206.132993 
L 397.847109 206.022952 
L 397.955856 205.4205 
L 398.038477 203.496697 
L 398.048441 203.136265 
L 398.060802 203.206424 
L 398.145447 203.181165 
L 398.296475 203.603676 
L 398.256093 203.937854 
L 398.170681 204.057735 
L 398.369272 204.795767 
L 398.469394 204.96646 
L 398.31727 206.342676 
L 398.106279 206.361686 
L 398.106279 206.361686 
" clip-path="url(#p86678213ba)" style="fill: none; stroke: #1f77b4; stroke-width: 1.5; stroke-linecap: square"/>
   </g>
   <g id="patch_3">
    <path d="M 57.6 307.584 
L 57.6 41.472 
" style="fill: none; stroke: #000000; stroke-width: 0.8; stroke-linejoin: miter; stroke-linecap: square"/>
   </g>
   <g id="patch_4">
    <path d="M 414.72 307.584 
L 414.72 41.472 
" style="fill: none; stroke: #000000; stroke-width: 0.8; stroke-linejoin: miter; stroke-linecap: square"/>
   </g>
   <g id="patch_5">
    <path d="M 57.6 307.584 
L 414.72 307.584 
" style="fill: none; stroke: #000000; stroke-width: 0.8; stroke-linejoin: miter; stroke-linecap: square"/>
   </g>
   <g id="patch_6">
    <path d="M 57.6 41.472 
L 414.72 41.472 
" style="fill: none; stroke: #000000; stroke-width: 0.8; stroke-linejoin: miter; stroke-linecap: square"/>
   </g>
  </g>
 </g>
 <defs>
  <clipPath id="p86678213ba">
   <rect x="57.6" y="41.472" width="357.12" height="266.112"/>
  </clipPath>
 </defs>
</svg>
