<?xml version="1.0" encoding="utf-8" standalone="no"?>
<!DOCTYPE svg PUBLIC "-//W3C//DTD SVG 1.1//EN"
  "http://www.w3.org/Graphics/SVG/1.1/DTD/svg11.dtd">
<svg xmlns:xlink="http://www.w3.org/1999/xlink" width="460.8pt" height="345.6pt" viewBox="0 0 460.8 345.6" xmlns="http://www.w3.org/2000/svg" version="1.1">
 <metadata>
  <rdf:RDF xmlns:dc="http://purl.org/dc/elements/1.1/" xmlns:cc="http://creativecommons.org/ns#" xmlns:rdf="http://www.w3.org/1999/02/22-rdf-syntax-ns#">
   <cc:Work>
    <dc:type rdf:resource="http://purl.org/dc/dcmitype/StillImage"/>
    <dc:date>2026-02-02T15:34:01.512378</dc:date>
    <dc:format>image/svg+xml</dc:format>
    <dc:creator>
     <cc:Agent>
      <dc:title>Matplotlib v3.10.8, https://matplotlib.org/</dc:title>
     </cc:Agent>
    </dc:creator>
   </cc:Work>
  </rdf:RDF>
 </metadata>
 <defs>
  <style type="text/css">*{stroke-linejoin: round; stroke-linecap: butt}</style>
 </defs>
 <g id="figure_1">
  <g id="patch_1">
   <path d="M 0 345.6 
L 460.8 345.6 
L 460.8 0 
L 0 0 
z
" style="fill: #ffffff"/>
  </g>
  <g id="axes_1">
   <g id="patch_2">
    <path d="M 101.6075 266.245 
L 426.847748 266.245 
L 426.847748 25.92 
L 101.6075 25.92 
z
" style="fill: #ffffff"/>
   </g>
   <g id="matplotlib.axis_1">
    <g id="xtick_1">
     <g id="line2d_1">
      <path d="M 116.391148 266.245 
L 116.391148 25.92 
" clip-path="url(#pc674d88e4f)" style="fill: none; stroke: #b0b0b0; stroke-width: 0.8; stroke-linecap: square"/>
     </g>
     <g id="line2d_2">
      <defs>
       <path id="mce4987d58f" d="M 0 0 
L 0 3.5 
" style="stroke: #000000; stroke-width: 0.8"/>
      </defs>
      <g>
       <use xlink:href="#mce4987d58f" x="116.391148" y="266.245" style="stroke: #000000; stroke-width: 0.8"/>
      </g>
     </g>
     <g id="text_1">
      <!-- 0 -->
      <g transform="translate(110.391148 289.63625) scale(0.24 -0.24)">
       <defs>
        <path id="TeXGyreTermes-Regular-30" d="M 3046 2112 
C 3046 3424 2464 4326 1626 4326 
C 1274 4326 1005 4218 768 3994 
C 397 3635 154 2899 154 2150 
C 154 1453 365 704 666 346 
C 902 64 1229 -90 1600 -90 
C 1926 -90 2202 19 2432 243 
C 2803 595 3046 1338 3046 2112 
z
M 2432 2099 
C 2432 762 2150 77 1600 77 
C 1050 77 768 762 768 2093 
C 768 3450 1056 4160 1606 4160 
C 2144 4160 2432 3437 2432 2099 
z
" transform="scale(0.015625)"/>
       </defs>
       <use xlink:href="#TeXGyreTermes-Regular-30"/>
      </g>
     </g>
    </g>
    <g id="xtick_2">
     <g id="line2d_3">
      <path d="M 264.375608 266.245 
L 264.375608 25.92 
" clip-path="url(#pc674d88e4f)" style="fill: none; stroke: #b0b0b0; stroke-width: 0.8; stroke-linecap: square"/>
     </g>
     <g id="line2d_4">
      <g>
       <use xlink:href="#mce4987d58f" x="264.375608" y="266.245" style="stroke: #000000; stroke-width: 0.8"/>
      </g>
     </g>
     <g id="text_2">
      <!-- 500 -->
      <g transform="translate(246.375608 289.63625) scale(0.24 -0.24)">
       <defs>
        <path id="TeXGyreTermes-Regular-35" d="M 2803 4358 
L 2746 4403 
C 2650 4269 2586 4237 2451 4237 
L 1114 4237 
L 416 2720 
C 410 2707 410 2688 410 2688 
C 410 2656 435 2637 486 2637 
C 691 2637 947 2592 1210 2509 
C 1946 2272 2285 1875 2285 1242 
C 2285 627 1894 147 1395 147 
C 1267 147 1158 192 966 333 
C 762 480 614 544 480 544 
C 294 544 205 467 205 307 
C 205 64 506 -90 986 -90 
C 1523 -90 1984 83 2304 410 
C 2598 698 2733 1062 2733 1549 
C 2733 2010 2611 2304 2291 2624 
C 2010 2906 1645 3053 890 3187 
L 1158 3731 
L 2413 3731 
C 2515 3731 2541 3744 2560 3789 
L 2803 4358 
z
" transform="scale(0.015625)"/>
       </defs>
       <use xlink:href="#TeXGyreTermes-Regular-35"/>
       <use xlink:href="#TeXGyreTermes-Regular-30" transform="translate(49.999985 0)"/>
       <use xlink:href="#TeXGyreTermes-Regular-30" transform="translate(99.999969 0)"/>
      </g>
     </g>
    </g>
    <g id="xtick_3">
     <g id="line2d_5">
      <path d="M 412.360069 266.245 
L 412.360069 25.92 
" clip-path="url(#pc674d88e4f)" style="fill: none; stroke: #b0b0b0; stroke-width: 0.8; stroke-linecap: square"/>
     </g>
     <g id="line2d_6">
      <g>
       <use xlink:href="#mce4987d58f" x="412.360069" y="266.245" style="stroke: #000000; stroke-width: 0.8"/>
      </g>
     </g>
     <g id="text_3">
      <!-- 1000 -->
      <g transform="translate(388.360069 289.63625) scale(0.24 -0.24)">
       <defs>
        <path id="TeXGyreTermes-Regular-31" d="M 2522 0 
L 2522 96 
C 2016 102 1914 166 1914 474 
L 1914 4314 
L 1862 4326 
L 710 3744 
L 710 3654 
C 787 3686 858 3712 883 3725 
C 998 3770 1107 3795 1171 3795 
C 1306 3795 1363 3699 1363 3494 
L 1363 595 
C 1363 384 1312 237 1210 179 
C 1114 122 1024 102 755 96 
L 755 0 
L 2522 0 
z
" transform="scale(0.015625)"/>
       </defs>
       <use xlink:href="#TeXGyreTermes-Regular-31"/>
       <use xlink:href="#TeXGyreTermes-Regular-30" transform="translate(49.999985 0)"/>
       <use xlink:href="#TeXGyreTermes-Regular-30" transform="translate(99.999969 0)"/>
       <use xlink:href="#TeXGyreTermes-Regular-30" transform="translate(149.999954 0)"/>
      </g>
     </g>
    </g>
    <g id="text_4">
     <!-- Schritt k -->
     <g transform="translate(223.225124 315.23625) scale(0.24 -0.24)">
      <defs>
       <path id="TeXGyreTermes-Regular-53" d="M 3142 1075 
C 3142 1606 2790 2016 1946 2477 
C 1274 2842 1005 3123 1005 3475 
C 1005 3827 1274 4064 1670 4064 
C 1958 4064 2227 3942 2451 3712 
C 2650 3507 2739 3341 2842 2963 
L 3002 2963 
L 2861 4326 
L 2726 4326 
C 2701 4186 2630 4109 2522 4109 
C 2458 4109 2355 4134 2240 4186 
C 2003 4275 1773 4326 1549 4326 
C 1299 4326 1030 4224 826 4058 
C 576 3853 454 3578 454 3226 
C 454 2720 736 2362 1453 1984 
C 1914 1734 2246 1478 2406 1235 
C 2464 1146 2496 1018 2496 858 
C 2496 435 2176 141 1709 141 
C 1133 141 736 493 416 1274 
L 269 1274 
L 461 -83 
L 602 -83 
C 608 38 685 128 781 128 
C 851 128 960 102 1082 58 
C 1325 -38 1581 -90 1837 -90 
C 2579 -90 3142 416 3142 1075 
z
" transform="scale(0.015625)"/>
       <path id="TeXGyreTermes-Regular-63" d="M 2637 941 
L 2547 998 
C 2240 550 2010 397 1645 397 
C 1056 397 653 909 653 1645 
C 653 2310 1005 2758 1523 2758 
C 1754 2758 1837 2688 1901 2451 
L 1939 2310 
C 1990 2125 2106 2016 2246 2016 
C 2413 2016 2547 2138 2547 2285 
C 2547 2643 2099 2944 1562 2944 
C 1261 2944 954 2829 698 2618 
C 352 2330 160 1888 160 1357 
C 160 531 666 -64 1376 -64 
C 1651 -64 1894 26 2112 205 
C 2304 358 2432 544 2637 941 
z
" transform="scale(0.015625)"/>
       <path id="TeXGyreTermes-Regular-68" d="M 3117 0 
L 3117 96 
C 2771 160 2733 211 2733 653 
L 2733 1926 
C 2733 2598 2464 2944 1946 2944 
C 1568 2944 1299 2790 1005 2406 
L 1005 4352 
L 973 4371 
C 755 4294 595 4243 237 4141 
L 64 4090 
L 64 3987 
C 90 3994 109 3994 141 3994 
C 416 3994 467 3942 467 3667 
L 467 653 
C 467 205 429 147 58 96 
L 58 0 
L 1440 0 
L 1440 96 
C 1069 134 1005 211 1005 653 
L 1005 2195 
C 1274 2490 1466 2598 1715 2598 
C 2035 2598 2195 2368 2195 1920 
L 2195 653 
C 2195 218 2131 134 1760 96 
L 1760 0 
L 3117 0 
z
" transform="scale(0.015625)"/>
       <path id="TeXGyreTermes-Regular-72" d="M 2144 2605 
C 2144 2816 2010 2944 1792 2944 
C 1523 2944 1338 2797 1024 2342 
L 1024 2931 
L 992 2944 
C 653 2803 422 2720 45 2598 
L 45 2496 
C 134 2515 192 2522 269 2522 
C 429 2522 486 2419 486 2138 
L 486 538 
C 486 218 442 173 32 96 
L 32 0 
L 1568 0 
L 1568 96 
C 1133 115 1024 211 1024 576 
L 1024 2016 
C 1024 2221 1299 2541 1472 2541 
C 1510 2541 1568 2509 1638 2445 
C 1741 2355 1811 2317 1894 2317 
C 2048 2317 2144 2426 2144 2605 
z
" transform="scale(0.015625)"/>
       <path id="TeXGyreTermes-Regular-69" d="M 1619 0 
L 1619 96 
C 1197 128 1146 192 1146 653 
L 1146 2925 
L 1120 2944 
L 128 2592 
L 128 2496 
L 179 2502 
C 256 2515 339 2522 397 2522 
C 550 2522 608 2419 608 2138 
L 608 653 
C 608 192 544 122 102 96 
L 102 0 
L 1619 0 
z
M 1203 3776 
C 1203 3955 1062 4102 877 4102 
C 698 4102 550 3955 550 3776 
C 550 3590 698 3450 877 3450 
C 1062 3450 1203 3590 1203 3776 
z
" transform="scale(0.015625)"/>
       <path id="TeXGyreTermes-Regular-74" d="M 1786 422 
L 1702 493 
C 1562 326 1459 269 1318 269 
C 1082 269 986 435 986 845 
L 986 2675 
L 1632 2675 
L 1632 2880 
L 986 2880 
L 986 3622 
C 986 3686 973 3706 941 3706 
C 902 3642 858 3584 813 3526 
C 576 3174 358 2938 192 2842 
C 122 2797 83 2758 83 2720 
C 83 2701 90 2688 109 2675 
L 448 2675 
L 448 749 
C 448 211 640 -64 1011 -64 
C 1331 -64 1574 90 1786 422 
z
" transform="scale(0.015625)"/>
       <path id="TeXGyreTermes-Regular-20" transform="scale(0.015625)"/>
       <path id="TeXGyreTermes-Regular-6b" d="M 3232 0 
L 3232 96 
C 2950 115 2752 237 2483 563 
L 1504 1805 
L 1690 1978 
C 2144 2400 2541 2694 2726 2746 
C 2822 2771 2912 2784 3021 2784 
L 3072 2784 
L 3072 2880 
L 1766 2880 
L 1766 2790 
C 2016 2784 2086 2758 2086 2669 
C 2086 2618 2029 2528 1939 2451 
L 1062 1670 
L 1062 4358 
L 1037 4371 
L 237 4141 
L 45 4090 
L 45 3987 
C 128 3994 186 4000 250 4000 
C 461 4000 525 3917 525 3610 
L 525 525 
C 525 192 506 173 45 96 
L 45 0 
L 1542 0 
L 1542 96 
L 1414 102 
C 1158 115 1062 205 1062 429 
L 1062 1606 
L 1958 410 
L 1978 384 
C 1990 365 2003 346 2022 326 
C 2074 262 2093 224 2093 192 
C 2093 134 2035 96 1958 96 
L 1837 96 
L 1837 0 
L 3232 0 
z
" transform="scale(0.015625)"/>
      </defs>
      <use xlink:href="#TeXGyreTermes-Regular-53"/>
      <use xlink:href="#TeXGyreTermes-Regular-63" transform="translate(55.599991 0)"/>
      <use xlink:href="#TeXGyreTermes-Regular-68" transform="translate(99.999985 0)"/>
      <use xlink:href="#TeXGyreTermes-Regular-72" transform="translate(149.999969 0)"/>
      <use xlink:href="#TeXGyreTermes-Regular-69" transform="translate(183.299957 0)"/>
      <use xlink:href="#TeXGyreTermes-Regular-74" transform="translate(211.099945 0)"/>
      <use xlink:href="#TeXGyreTermes-Regular-74" transform="translate(238.899933 0)"/>
      <use xlink:href="#TeXGyreTermes-Regular-20" transform="translate(266.699921 0)"/>
      <use xlink:href="#TeXGyreTermes-Regular-6b" transform="translate(291.699905 0)"/>
     </g>
    </g>
   </g>
   <g id="matplotlib.axis_2">
    <g id="ytick_1">
     <g id="line2d_7">
      <path d="M 101.6075 251.709092 
L 426.847748 251.709092 
" clip-path="url(#pc674d88e4f)" style="fill: none; stroke: #b0b0b0; stroke-width: 0.8; stroke-linecap: square"/>
     </g>
     <g id="line2d_8">
      <defs>
       <path id="me465864fd1" d="M 0 0 
L -3.5 0 
" style="stroke: #000000; stroke-width: 0.8"/>
      </defs>
      <g>
       <use xlink:href="#me465864fd1" x="101.6075" y="251.709092" style="stroke: #000000; stroke-width: 0.8"/>
      </g>
     </g>
     <g id="text_5">
      <!-- −5.0 -->
      <g transform="translate(51.07 259.904717) scale(0.24 -0.24)">
       <defs>
        <path id="TeXGyreTermes-Regular-2212" d="M 3354 1389 
L 3354 1811 
L 256 1811 
L 256 1389 
L 3354 1389 
z
" transform="scale(0.015625)"/>
        <path id="TeXGyreTermes-Regular-2e" d="M 1158 275 
C 1158 474 992 640 800 640 
C 608 640 448 474 448 275 
C 448 90 608 -70 794 -70 
C 992 -70 1158 90 1158 275 
z
" transform="scale(0.015625)"/>
       </defs>
       <use xlink:href="#TeXGyreTermes-Regular-2212"/>
       <use xlink:href="#TeXGyreTermes-Regular-35" transform="translate(56.399994 0)"/>
       <use xlink:href="#TeXGyreTermes-Regular-2e" transform="translate(106.399979 0)"/>
       <use xlink:href="#TeXGyreTermes-Regular-30" transform="translate(131.399963 0)"/>
      </g>
     </g>
    </g>
    <g id="ytick_2">
     <g id="line2d_9">
      <path d="M 101.6075 201.169066 
L 426.847748 201.169066 
" clip-path="url(#pc674d88e4f)" style="fill: none; stroke: #b0b0b0; stroke-width: 0.8; stroke-linecap: square"/>
     </g>
     <g id="line2d_10">
      <g>
       <use xlink:href="#me465864fd1" x="101.6075" y="201.169066" style="stroke: #000000; stroke-width: 0.8"/>
      </g>
     </g>
     <g id="text_6">
      <!-- −2.5 -->
      <g transform="translate(51.07 209.364691) scale(0.24 -0.24)">
       <defs>
        <path id="TeXGyreTermes-Regular-32" d="M 3040 877 
L 2957 909 
C 2720 544 2637 486 2349 486 
L 819 486 
L 1894 1613 
C 2464 2208 2714 2694 2714 3194 
C 2714 3834 2195 4326 1530 4326 
C 1178 4326 845 4186 608 3930 
C 403 3712 307 3507 198 3053 
L 333 3021 
C 589 3648 819 3853 1261 3853 
C 1798 3853 2163 3488 2163 2950 
C 2163 2451 1869 1856 1331 1286 
L 192 77 
L 192 0 
L 2688 0 
L 3040 877 
z
" transform="scale(0.015625)"/>
       </defs>
       <use xlink:href="#TeXGyreTermes-Regular-2212"/>
       <use xlink:href="#TeXGyreTermes-Regular-32" transform="translate(56.399994 0)"/>
       <use xlink:href="#TeXGyreTermes-Regular-2e" transform="translate(106.399979 0)"/>
       <use xlink:href="#TeXGyreTermes-Regular-35" transform="translate(131.399963 0)"/>
      </g>
     </g>
    </g>
    <g id="ytick_3">
     <g id="line2d_11">
      <path d="M 101.6075 150.62904 
L 426.847748 150.62904 
" clip-path="url(#pc674d88e4f)" style="fill: none; stroke: #b0b0b0; stroke-width: 0.8; stroke-linecap: square"/>
     </g>
     <g id="line2d_12">
      <g>
       <use xlink:href="#me465864fd1" x="101.6075" y="150.62904" style="stroke: #000000; stroke-width: 0.8"/>
      </g>
     </g>
     <g id="text_7">
      <!-- 0.0 -->
      <g transform="translate(64.6075 158.824665) scale(0.24 -0.24)">
       <use xlink:href="#TeXGyreTermes-Regular-30"/>
       <use xlink:href="#TeXGyreTermes-Regular-2e" transform="translate(49.999985 0)"/>
       <use xlink:href="#TeXGyreTermes-Regular-30" transform="translate(74.999969 0)"/>
      </g>
     </g>
    </g>
    <g id="ytick_4">
     <g id="line2d_13">
      <path d="M 101.6075 100.089013 
L 426.847748 100.089013 
" clip-path="url(#pc674d88e4f)" style="fill: none; stroke: #b0b0b0; stroke-width: 0.8; stroke-linecap: square"/>
     </g>
     <g id="line2d_14">
      <g>
       <use xlink:href="#me465864fd1" x="101.6075" y="100.089013" style="stroke: #000000; stroke-width: 0.8"/>
      </g>
     </g>
     <g id="text_8">
      <!-- 2.5 -->
      <g transform="translate(64.6075 108.284638) scale(0.24 -0.24)">
       <use xlink:href="#TeXGyreTermes-Regular-32"/>
       <use xlink:href="#TeXGyreTermes-Regular-2e" transform="translate(49.999985 0)"/>
       <use xlink:href="#TeXGyreTermes-Regular-35" transform="translate(74.999969 0)"/>
      </g>
     </g>
    </g>
    <g id="ytick_5">
     <g id="line2d_15">
      <path d="M 101.6075 49.548987 
L 426.847748 49.548987 
" clip-path="url(#pc674d88e4f)" style="fill: none; stroke: #b0b0b0; stroke-width: 0.8; stroke-linecap: square"/>
     </g>
     <g id="line2d_16">
      <g>
       <use xlink:href="#me465864fd1" x="101.6075" y="49.548987" style="stroke: #000000; stroke-width: 0.8"/>
      </g>
     </g>
     <g id="text_9">
      <!-- 5.0 -->
      <g transform="translate(64.6075 57.744612) scale(0.24 -0.24)">
       <use xlink:href="#TeXGyreTermes-Regular-35"/>
       <use xlink:href="#TeXGyreTermes-Regular-2e" transform="translate(49.999985 0)"/>
       <use xlink:href="#TeXGyreTermes-Regular-30" transform="translate(74.999969 0)"/>
      </g>
     </g>
    </g>
    <g id="text_10">
     <!-- x(k) -->
     <g transform="translate(41.86125 166.07375) rotate(-90) scale(0.24 -0.24)">
      <defs>
       <path id="TeXGyreTermes-Regular-78" d="M 3066 0 
L 3066 96 
C 2867 96 2739 198 2541 480 
L 1722 1734 
L 2253 2502 
C 2374 2675 2566 2778 2771 2784 
L 2771 2880 
L 1760 2880 
L 1760 2784 
C 1952 2771 2016 2733 2016 2643 
C 2016 2566 1939 2426 1779 2227 
C 1747 2189 1670 2074 1587 1946 
L 1498 2074 
C 1318 2342 1203 2560 1203 2643 
C 1203 2733 1286 2778 1478 2784 
L 1478 2880 
L 154 2880 
L 154 2784 
L 211 2784 
C 403 2784 506 2701 704 2400 
L 1306 1478 
L 576 422 
C 384 160 320 115 109 96 
L 109 0 
L 1037 0 
L 1037 96 
C 858 96 781 128 781 211 
C 781 250 826 346 909 474 
L 1414 1261 
L 1997 365 
C 2022 326 2035 288 2035 250 
C 2035 134 1990 109 1779 96 
L 1779 0 
L 3066 0 
z
" transform="scale(0.015625)"/>
       <path id="TeXGyreTermes-Regular-28" d="M 1946 -1030 
C 1434 -627 1254 -403 1082 77 
C 928 506 858 992 858 1632 
C 858 2304 941 2829 1114 3226 
C 1293 3622 1485 3853 1946 4224 
L 1888 4326 
C 1414 4019 1222 3853 986 3558 
C 531 3002 307 2362 307 1613 
C 307 800 544 173 1107 -480 
C 1370 -787 1536 -928 1869 -1133 
L 1946 -1030 
z
" transform="scale(0.015625)"/>
       <path id="TeXGyreTermes-Regular-29" d="M 1824 1581 
C 1824 2400 1587 3021 1024 3674 
C 762 3981 595 4122 262 4326 
L 186 4224 
C 698 3821 870 3597 1050 3117 
C 1203 2688 1274 2202 1274 1562 
C 1274 896 1190 365 1018 -26 
C 838 -429 646 -659 186 -1030 
L 243 -1133 
C 717 -826 909 -659 1146 -365 
C 1600 192 1824 832 1824 1581 
z
" transform="scale(0.015625)"/>
      </defs>
      <use xlink:href="#TeXGyreTermes-Regular-78"/>
      <use xlink:href="#TeXGyreTermes-Regular-28" transform="translate(49.999985 0)"/>
      <use xlink:href="#TeXGyreTermes-Regular-6b" transform="translate(83.299973 0)"/>
      <use xlink:href="#TeXGyreTermes-Regular-29" transform="translate(133.299957 0)"/>
     </g>
    </g>
   </g>
   <g id="line2d_17">
    <path d="M 116.391148 177.090511 
L 116.983085 135.246759 
L 117.279054 156.49923 
L 117.575023 134.424059 
L 117.870992 147.126462 
L 118.166961 186.278167 
L 118.46293 174.904251 
L 118.758899 187.679239 
L 119.054868 183.42708 
L 119.646806 205.130445 
L 119.942775 208.974386 
L 120.238744 184.625531 
L 120.534713 202.446218 
L 120.830681 197.160669 
L 121.12665 157.188699 
L 121.422619 179.801517 
L 121.718588 159.509967 
L 122.014557 154.506086 
L 122.310526 151.698654 
L 123.198433 169.094641 
L 123.494402 169.242172 
L 123.790371 177.173364 
L 124.08634 174.359645 
L 124.382309 176.372811 
L 124.678277 147.258062 
L 124.974246 163.877697 
L 125.566184 133.286849 
L 125.862153 139.942265 
L 126.158122 153.64058 
L 126.454091 159.195579 
L 126.75006 178.639658 
L 127.046029 175.33616 
L 127.341998 135.280275 
L 127.637967 111.922469 
L 127.933936 132.842901 
L 128.229904 141.311637 
L 128.525873 171.361764 
L 128.821842 154.208415 
L 129.117811 164.759863 
L 129.41378 136.501377 
L 129.709749 165.129674 
L 130.005718 168.360556 
L 130.301687 168.159028 
L 130.597656 175.324129 
L 131.189594 208.365794 
L 131.485563 219.333118 
L 131.781532 198.885389 
L 132.0775 196.124756 
L 132.373469 245.959154 
L 132.669438 232.155321 
L 132.965407 189.53938 
L 133.557345 232.575064 
L 133.853314 221.187298 
L 134.149283 177.34798 
L 134.445252 173.207241 
L 135.03719 146.427165 
L 135.333159 171.075055 
L 135.629128 152.890298 
L 135.925096 147.566329 
L 136.221065 163.26869 
L 136.517034 165.621134 
L 136.813003 158.639845 
L 137.108972 145.023784 
L 137.404941 146.178818 
L 137.70091 161.132548 
L 137.996879 118.862819 
L 138.292848 167.739242 
L 138.588817 156.728735 
L 138.884786 170.012404 
L 139.180755 169.595142 
L 139.476723 133.496432 
L 139.772692 170.109099 
L 140.068661 138.36013 
L 140.36463 164.381202 
L 140.660599 161.714489 
L 140.956568 130.057544 
L 141.252537 166.77648 
L 141.548506 105.320259 
L 142.140444 89.635752 
L 142.436413 117.447162 
L 142.732382 93.130613 
L 143.028351 112.842247 
L 143.620288 175.092942 
L 143.916257 141.244464 
L 144.212226 148.738912 
L 144.508195 150.185474 
L 144.804164 162.415153 
L 145.396102 85.470483 
L 145.692071 117.908333 
L 145.98804 118.598587 
L 146.284009 145.746807 
L 146.579978 143.790134 
L 146.875947 91.619059 
L 147.171915 90.282093 
L 147.763853 183.005022 
L 148.355791 120.960164 
L 148.65176 158.648647 
L 148.947729 89.388166 
L 149.539667 119.569959 
L 149.835636 124.008189 
L 150.131605 123.238677 
L 150.427574 118.324686 
L 150.723543 154.452189 
L 151.31548 161.543073 
L 151.611449 121.682714 
L 151.907418 147.925848 
L 152.203387 149.667499 
L 152.499356 128.768832 
L 152.795325 118.535877 
L 153.091294 117.911457 
L 153.387263 123.878452 
L 153.683232 132.870644 
L 153.979201 123.495277 
L 154.27517 100.798439 
L 154.571138 107.529289 
L 154.867107 124.525941 
L 155.163076 118.175682 
L 155.459045 120.027314 
L 155.755014 158.06685 
L 156.050983 156.491224 
L 156.346952 134.444328 
L 156.642921 149.335956 
L 156.93889 131.674043 
L 157.234859 102.190804 
L 157.530828 113.1665 
L 157.826797 97.12333 
L 158.122766 95.329951 
L 158.418734 87.922081 
L 159.010672 149.67077 
L 159.306641 144.131207 
L 159.60261 131.941459 
L 159.898579 140.927649 
L 160.194548 189.705892 
L 160.490517 136.335164 
L 160.786486 167.013678 
L 161.378424 194.897733 
L 161.674393 194.549316 
L 161.970362 146.032932 
L 162.26633 164.305607 
L 162.562299 175.427449 
L 163.450206 131.314663 
L 163.746175 136.224716 
L 164.042144 136.724365 
L 164.338113 146.618587 
L 164.634082 130.54689 
L 164.930051 127.253119 
L 165.22602 151.006181 
L 165.521989 161.886861 
L 165.817958 129.603842 
L 166.113926 130.265611 
L 166.409895 133.160057 
L 166.705864 127.6259 
L 167.001833 124.520587 
L 167.297802 108.252336 
L 167.88974 116.136517 
L 168.185709 135.846996 
L 168.481678 138.327555 
L 168.777647 130.330014 
L 169.073616 109.795941 
L 169.369585 125.898669 
L 169.665553 115.22394 
L 169.961522 95.627852 
L 170.257491 113.445875 
L 170.55346 109.758389 
L 170.849429 109.903901 
L 171.145398 97.752586 
L 171.441367 108.136209 
L 171.737336 106.244347 
L 172.033305 130.496465 
L 172.329274 129.993548 
L 172.625243 133.809903 
L 172.921212 149.165501 
L 173.217181 102.303122 
L 173.513149 130.293137 
L 173.809118 120.723152 
L 174.105087 96.01702 
L 174.401056 95.840753 
L 174.697025 118.401381 
L 174.992994 173.911689 
L 175.288963 150.246851 
L 175.584932 160.835371 
L 176.17687 137.219858 
L 176.768808 148.607101 
L 177.064777 141.67959 
L 177.360745 127.302324 
L 177.656714 123.936227 
L 178.248652 140.289809 
L 178.544621 122.567115 
L 178.84059 129.072177 
L 179.136559 145.440759 
L 179.432528 129.250457 
L 179.728497 139.151626 
L 180.024466 99.613693 
L 180.616404 151.292711 
L 180.912372 121.729589 
L 181.208341 124.03933 
L 181.50431 146.736567 
L 181.800279 105.231153 
L 182.096248 107.903203 
L 182.392217 81.929745 
L 182.688186 100.72882 
L 183.280124 153.39409 
L 183.576093 113.922336 
L 183.872062 162.346077 
L 184.464 123.232177 
L 184.759968 140.022787 
L 185.055937 108.207813 
L 185.351906 141.178239 
L 185.647875 143.943026 
L 185.943844 136.618671 
L 186.239813 163.733602 
L 186.535782 166.208232 
L 186.831751 132.639507 
L 187.12772 142.648123 
L 187.719658 179.603707 
L 188.015627 211.644908 
L 188.311596 195.838857 
L 188.607564 191.593668 
L 188.903533 192.672189 
L 189.199502 176.546072 
L 189.495471 211.724064 
L 189.79144 172.091725 
L 190.087409 168.727045 
L 190.383378 174.037972 
L 190.679347 189.069935 
L 191.271285 145.604494 
L 191.567254 176.501501 
L 191.863223 159.50808 
L 192.159192 165.612598 
L 192.45516 161.727709 
L 192.751129 149.708282 
L 193.343067 132.019955 
L 193.639036 117.219956 
L 193.935005 136.068812 
L 194.230974 120.924521 
L 194.526943 115.56401 
L 194.822912 93.981229 
L 195.118881 138.697224 
L 195.710819 123.643508 
L 196.006787 136.039944 
L 196.598725 85.853183 
L 196.894694 119.883931 
L 197.190663 105.843885 
L 197.486632 100.137566 
L 197.782601 131.700468 
L 198.374539 169.862607 
L 198.670508 122.557954 
L 198.966477 132.295701 
L 199.262446 163.642234 
L 199.558415 106.175244 
L 199.854383 88.549924 
L 200.150352 134.638057 
L 200.446321 157.242342 
L 200.74229 162.123987 
L 201.038259 140.296971 
L 201.334228 137.9371 
L 201.630197 144.695337 
L 201.926166 159.218031 
L 202.222135 159.86912 
L 202.518104 142.470983 
L 202.814073 138.564778 
L 203.406011 160.020807 
L 203.701979 123.316368 
L 203.997948 126.276404 
L 204.293917 174.750237 
L 204.589886 131.92686 
L 204.885855 133.720465 
L 205.181824 125.407328 
L 205.477793 133.278291 
L 205.773762 160.969364 
L 206.069731 142.345153 
L 206.3657 110.239132 
L 206.661669 129.852646 
L 206.957638 165.084693 
L 207.253607 101.546502 
L 207.549575 80.222235 
L 207.845544 82.751966 
L 208.141513 111.088685 
L 208.437482 110.35222 
L 208.733451 132.658251 
L 209.02942 113.829224 
L 209.325389 103.639313 
L 209.621358 112.394735 
L 209.917327 113.738896 
L 210.213296 164.079828 
L 210.805234 129.517758 
L 211.101202 95.756601 
L 211.397171 168.714602 
L 211.69314 122.824878 
L 211.989109 139.240845 
L 212.285078 140.308698 
L 212.581047 142.492139 
L 212.877016 136.891504 
L 213.172985 156.581096 
L 213.468954 137.820851 
L 213.764923 86.70659 
L 214.060892 109.181934 
L 214.356861 154.558636 
L 214.65283 153.396381 
L 214.948798 143.950003 
L 215.244767 160.608282 
L 215.540736 108.259582 
L 215.836705 141.427109 
L 216.132674 156.696617 
L 216.428643 148.647977 
L 216.724612 162.430554 
L 217.020581 145.567899 
L 217.612519 100.247299 
L 217.908488 141.43766 
L 218.204457 164.543728 
L 218.500426 125.514583 
L 218.796394 115.009715 
L 219.092363 111.682113 
L 219.388332 97.829971 
L 219.684301 126.290629 
L 219.98027 143.632241 
L 220.276239 132.187826 
L 220.572208 136.44145 
L 220.868177 123.72386 
L 221.164146 144.152822 
L 221.460115 141.738516 
L 221.756084 158.150641 
L 222.052053 140.558987 
L 222.348021 168.535678 
L 222.64399 175.806713 
L 223.531897 119.969157 
L 223.827866 124.422877 
L 224.123835 126.280311 
L 224.419804 175.456491 
L 224.715773 139.280664 
L 225.011742 163.055031 
L 225.307711 145.853822 
L 225.60368 158.144472 
L 225.899649 142.909454 
L 226.195617 175.098768 
L 226.787555 114.086579 
L 227.083524 114.852858 
L 227.379493 142.594284 
L 227.675462 123.432783 
L 227.971431 123.3084 
L 228.2674 93.785915 
L 228.563369 116.627864 
L 228.859338 116.980913 
L 229.451276 184.508056 
L 229.747245 207.0588 
L 230.043213 194.909811 
L 230.339182 142.47074 
L 230.635151 125.019692 
L 230.93112 168.864061 
L 231.227089 170.833905 
L 231.819027 101.045082 
L 232.114996 104.79851 
L 232.410965 163.332999 
L 232.706934 172.555467 
L 233.002903 132.556424 
L 233.298872 150.341996 
L 233.594841 144.921811 
L 233.890809 158.095952 
L 234.186778 154.131782 
L 234.482747 139.538193 
L 234.778716 142.412194 
L 235.074685 127.953512 
L 235.370654 98.346007 
L 235.666623 141.922442 
L 235.962592 121.232756 
L 236.258561 117.181971 
L 236.55453 133.085032 
L 236.850499 109.526926 
L 237.146468 106.471646 
L 237.442436 119.804069 
L 237.738405 148.089643 
L 238.034374 114.185823 
L 238.330343 124.282004 
L 238.626312 102.372914 
L 238.922281 133.548786 
L 239.21825 122.383817 
L 239.514219 122.338351 
L 239.810188 147.214341 
L 240.106157 160.041798 
L 240.402126 164.112412 
L 240.698095 139.653505 
L 240.994064 199.507573 
L 241.290032 159.247349 
L 241.586001 137.929369 
L 241.88197 144.545123 
L 242.177939 119.773945 
L 242.473908 79.661326 
L 242.769877 148.18419 
L 243.065846 140.708186 
L 243.361815 116.564449 
L 243.657784 129.771328 
L 243.953753 134.236336 
L 244.249722 142.99552 
L 244.545691 124.720218 
L 245.137628 176.965572 
L 245.729566 113.390476 
L 246.321504 128.911812 
L 246.617473 116.081377 
L 246.913442 141.513173 
L 247.209411 121.962583 
L 247.50538 119.902071 
L 247.801349 132.283521 
L 248.097318 121.421936 
L 248.393287 145.545721 
L 248.689255 147.139629 
L 248.985224 142.658155 
L 249.281193 135.552797 
L 249.577162 146.903789 
L 249.873131 124.687438 
L 250.1691 125.996385 
L 250.465069 139.397297 
L 250.761038 126.199032 
L 251.057007 129.565728 
L 251.352976 126.740174 
L 251.648945 116.249675 
L 251.944914 120.368401 
L 252.536851 110.470763 
L 252.83282 117.117538 
L 253.128789 139.239588 
L 253.424758 131.143458 
L 253.720727 93.484775 
L 254.016696 115.386098 
L 254.312665 103.487565 
L 254.608634 113.746536 
L 254.904603 94.784319 
L 255.200572 112.625027 
L 255.496541 102.832915 
L 255.79251 139.846317 
L 256.088479 142.36049 
L 256.384447 149.419757 
L 256.680416 136.4989 
L 257.272354 126.00365 
L 257.568323 91.844236 
L 257.864292 144.103767 
L 258.160261 116.759594 
L 258.752199 173.155859 
L 259.048168 134.019955 
L 259.344137 135.136237 
L 259.640106 142.290842 
L 259.936075 121.755493 
L 260.232043 138.484797 
L 260.528012 52.563054 
L 260.823981 114.709302 
L 261.11995 90.419955 
L 261.711888 116.804646 
L 262.007857 141.638401 
L 262.303826 89.160651 
L 262.599795 122.452488 
L 262.895764 102.859618 
L 263.191733 71.408544 
L 263.487702 116.430655 
L 263.78367 102.729829 
L 264.079639 118.340463 
L 264.375608 111.50992 
L 264.967546 133.844122 
L 265.263515 122.719645 
L 265.559484 125.894529 
L 265.855453 147.325345 
L 266.151422 115.788563 
L 266.447391 131.38341 
L 266.74336 84.202408 
L 267.039329 101.317432 
L 267.335298 106.982347 
L 267.631266 153.741523 
L 267.927235 159.707404 
L 268.223204 107.419148 
L 268.519173 117.991466 
L 268.815142 142.942734 
L 269.111111 132.536324 
L 269.40708 159.047495 
L 269.703049 146.32788 
L 269.999018 169.664144 
L 270.294987 150.371471 
L 270.590956 154.362349 
L 270.886925 142.627029 
L 271.182894 166.193351 
L 271.478862 136.546112 
L 272.0708 188.442745 
L 272.958707 155.524415 
L 273.254676 165.622219 
L 273.550645 144.309146 
L 273.846614 161.604011 
L 274.142583 132.375158 
L 274.438552 136.947486 
L 274.734521 168.806112 
L 275.03049 168.535935 
L 275.326458 119.67197 
L 275.622427 130.466624 
L 275.918396 160.620097 
L 276.510334 133.769542 
L 276.806303 112.052836 
L 277.102272 128.343834 
L 277.398241 162.56798 
L 277.69421 157.039134 
L 277.990179 114.240115 
L 278.286148 110.29895 
L 278.582117 124.634128 
L 278.878085 102.843527 
L 279.174054 112.808047 
L 279.470023 141.017319 
L 279.765992 121.23002 
L 280.061961 137.398449 
L 280.35793 130.275043 
L 280.653899 128.339507 
L 280.949868 131.555282 
L 281.245837 178.501631 
L 281.541806 197.186347 
L 281.837775 138.405845 
L 282.429713 188.000512 
L 282.725681 158.339099 
L 283.02165 155.892671 
L 283.317619 174.368356 
L 283.613588 161.382182 
L 284.205526 155.815148 
L 284.501495 194.833695 
L 284.797464 166.602782 
L 285.093433 164.352438 
L 285.389402 145.917222 
L 285.685371 159.139545 
L 286.277309 134.165014 
L 286.573277 151.844319 
L 286.869246 159.070294 
L 287.165215 143.04639 
L 287.461184 103.630812 
L 287.757153 124.02628 
L 288.053122 113.099773 
L 288.349091 120.652978 
L 288.64506 105.230032 
L 288.941029 139.589745 
L 289.236998 140.682283 
L 289.532967 124.199895 
L 290.124904 144.973775 
L 290.420873 143.546307 
L 290.716842 136.908844 
L 291.012811 125.811328 
L 291.30878 133.260409 
L 291.604749 159.19031 
L 291.900718 153.566512 
L 292.196687 173.857621 
L 292.492656 128.587721 
L 292.788625 112.496019 
L 293.084594 110.121651 
L 293.380563 87.843673 
L 293.676532 121.920723 
L 294.268469 93.797836 
L 294.860407 75.194325 
L 295.156376 99.085003 
L 295.452345 55.262704 
L 295.748314 97.766241 
L 296.044283 87.421222 
L 296.340252 85.577916 
L 296.636221 118.034707 
L 296.93219 137.611725 
L 297.228159 107.935069 
L 297.524128 96.449561 
L 297.820096 74.232924 
L 298.116065 75.19547 
L 298.412034 74.886872 
L 298.708003 99.743941 
L 299.003972 99.024489 
L 299.299941 93.532885 
L 299.59591 72.422666 
L 299.891879 78.675739 
L 300.187848 81.237465 
L 300.483817 72.205376 
L 300.779786 82.686531 
L 301.075755 65.383574 
L 301.371724 66.758708 
L 301.667692 38.925241 
L 301.963661 49.941706 
L 302.555599 96.425888 
L 302.851568 68.886836 
L 303.147537 66.205387 
L 303.443506 78.618366 
L 303.739475 36.843864 
L 304.035444 63.906799 
L 304.331413 72.111274 
L 304.627382 46.007801 
L 305.219319 139.557446 
L 305.515288 86.564248 
L 305.811257 105.624897 
L 306.107226 132.849637 
L 306.403195 82.586062 
L 306.699164 76.536285 
L 306.995133 95.629644 
L 307.291102 106.486205 
L 307.587071 79.855354 
L 307.88304 107.78119 
L 308.474978 79.59488 
L 308.770947 72.595353 
L 309.066915 118.959077 
L 309.362884 132.96713 
L 309.658853 121.339798 
L 309.954822 149.987233 
L 310.250791 131.569992 
L 310.54676 93.0052 
L 310.842729 96.024047 
L 311.138698 110.896861 
L 311.434667 119.051374 
L 311.730636 143.442219 
L 312.026605 116.32501 
L 312.618543 146.094538 
L 312.914511 127.475681 
L 313.21048 95.491996 
L 313.506449 102.358771 
L 313.802418 149.911948 
L 314.098387 98.243817 
L 314.394356 118.016418 
L 314.690325 99.027056 
L 314.986294 106.773443 
L 315.282263 106.334092 
L 315.578232 116.951979 
L 315.874201 114.616415 
L 316.17017 144.332391 
L 316.466139 127.121493 
L 316.762107 171.018436 
L 317.354045 134.697223 
L 317.650014 142.883726 
L 317.945983 158.010221 
L 318.241952 179.941419 
L 318.83389 188.644349 
L 319.129859 165.321113 
L 319.425828 114.548888 
L 319.721797 136.946329 
L 320.017766 174.883304 
L 320.313734 171.548585 
L 320.609703 148.658385 
L 320.905672 150.455656 
L 321.201641 140.635666 
L 321.49761 142.559995 
L 321.793579 130.353597 
L 322.089548 132.174358 
L 322.385517 103.713412 
L 322.681486 100.432445 
L 322.977455 141.483105 
L 323.273424 120.388799 
L 323.569393 116.900539 
L 323.865362 131.747234 
L 324.16133 139.510878 
L 324.457299 131.133362 
L 325.049237 166.964831 
L 325.345206 135.189427 
L 325.641175 172.829634 
L 325.937144 193.132545 
L 326.529082 123.439513 
L 326.825051 128.099838 
L 327.12102 124.277213 
L 327.416989 125.802341 
L 328.008926 167.129577 
L 328.600864 87.202718 
L 328.896833 112.721435 
L 329.192802 95.772446 
L 329.488771 102.30306 
L 329.78474 122.811597 
L 330.080709 114.124923 
L 330.376678 116.527531 
L 330.672647 95.468112 
L 330.968616 127.477941 
L 331.264585 137.758716 
L 331.560553 114.711283 
L 331.856522 167.594095 
L 332.152491 113.512899 
L 332.44846 121.98242 
L 332.744429 121.807824 
L 333.040398 150.639511 
L 333.336367 159.045816 
L 333.632336 129.947517 
L 333.928305 151.101789 
L 334.224274 130.320245 
L 334.520243 126.225804 
L 334.816212 120.189582 
L 335.112181 133.550933 
L 335.408149 127.719372 
L 336.000087 136.518794 
L 336.296056 150.317489 
L 336.592025 171.148394 
L 336.887994 111.708427 
L 337.183963 165.319758 
L 337.479932 126.046431 
L 337.775901 147.93217 
L 338.07187 120.735924 
L 338.367839 121.126373 
L 338.959777 156.311965 
L 339.255745 151.522793 
L 339.551714 123.367505 
L 339.847683 130.679412 
L 340.143652 183.923231 
L 340.439621 172.597459 
L 340.73559 191.114901 
L 341.031559 174.961223 
L 341.327528 170.565762 
L 341.623497 172.729008 
L 341.919466 167.873151 
L 342.215435 151.946716 
L 342.511404 158.052422 
L 342.807373 136.989783 
L 343.103341 131.54059 
L 343.39931 143.286126 
L 343.991248 188.153196 
L 344.879155 141.357721 
L 345.175124 143.191246 
L 345.471093 173.398591 
L 345.767062 165.091748 
L 346.063031 152.0898 
L 346.359 179.990017 
L 346.654968 197.091898 
L 346.950937 179.405242 
L 347.246906 178.195296 
L 347.542875 201.924832 
L 347.838844 189.243413 
L 348.134813 187.263852 
L 348.430782 164.388606 
L 348.726751 160.061703 
L 349.02272 148.260492 
L 349.614658 188.774866 
L 349.910627 176.75587 
L 350.206596 132.598448 
L 350.502564 147.489749 
L 350.798533 152.521004 
L 351.094502 152.208039 
L 351.390471 134.694016 
L 351.68644 152.964472 
L 351.982409 188.74859 
L 352.278378 184.21081 
L 352.574347 161.241576 
L 353.166285 188.628167 
L 353.462254 188.048129 
L 353.758223 165.345533 
L 354.054192 189.784374 
L 354.35016 173.145912 
L 354.646129 166.980183 
L 354.942098 147.387055 
L 355.238067 200.763317 
L 355.534036 202.292743 
L 356.125974 151.739579 
L 356.421943 159.057094 
L 356.717912 152.407433 
L 357.013881 161.503547 
L 357.605819 125.700451 
L 357.901788 157.611896 
L 358.197756 154.175278 
L 358.493725 170.434333 
L 358.789694 209.936447 
L 359.085663 177.745277 
L 359.381632 176.488756 
L 359.677601 173.785489 
L 359.97357 186.404803 
L 360.269539 147.470178 
L 360.565508 175.037494 
L 360.861477 159.380839 
L 361.157446 152.236142 
L 361.453415 189.378983 
L 361.749383 191.179531 
L 362.045352 145.550126 
L 362.341321 179.226741 
L 362.63729 177.754283 
L 362.933259 138.452093 
L 363.525197 112.787441 
L 363.821166 155.394106 
L 364.117135 159.584805 
L 364.413104 119.54028 
L 364.709073 142.297588 
L 365.005042 153.552506 
L 365.301011 121.617439 
L 365.596979 159.622073 
L 365.892948 123.3865 
L 366.188917 160.752847 
L 366.484886 171.069226 
L 366.780855 200.784185 
L 367.076824 186.084733 
L 367.372793 154.770906 
L 367.964731 175.23375 
L 368.2607 210.018985 
L 368.556669 226.916098 
L 368.852638 191.601759 
L 369.148607 194.02772 
L 369.740544 149.900212 
L 370.036513 160.738009 
L 370.332482 148.962273 
L 370.628451 152.721029 
L 371.220389 178.877267 
L 371.516358 177.816963 
L 371.812327 155.379911 
L 372.404265 187.132287 
L 372.700234 156.238541 
L 372.996202 85.990862 
L 373.292171 92.935513 
L 373.58814 108.498966 
L 373.884109 99.771142 
L 374.180078 120.465834 
L 374.476047 77.505361 
L 374.772016 88.119015 
L 375.363954 129.546654 
L 375.659923 118.767387 
L 375.955892 142.028191 
L 376.251861 86.721111 
L 376.54783 106.58754 
L 376.843798 140.785003 
L 377.139767 153.598562 
L 377.435736 136.30065 
L 377.731705 178.443158 
L 378.027674 182.180843 
L 378.323643 136.914582 
L 378.619612 167.898948 
L 378.915581 185.719589 
L 379.21155 150.788327 
L 379.507519 165.47426 
L 379.803488 139.619782 
L 380.099457 148.937487 
L 380.395426 148.62853 
L 380.691394 171.962072 
L 380.987363 185.046483 
L 381.283332 187.167564 
L 381.579301 167.714086 
L 381.87527 192.180996 
L 382.171239 153.491676 
L 382.467208 143.88786 
L 382.763177 146.259972 
L 383.059146 138.08035 
L 383.355115 144.819792 
L 383.651084 120.681852 
L 383.947053 140.182682 
L 384.243022 138.283766 
L 384.53899 133.140225 
L 384.834959 113.945403 
L 385.130928 141.979696 
L 385.426897 134.848782 
L 385.722866 147.365978 
L 386.018835 137.303021 
L 386.314804 158.781832 
L 386.610773 142.04512 
L 386.906742 136.405153 
L 387.202711 116.199603 
L 387.49868 165.648617 
L 387.794649 158.806137 
L 388.090617 158.338971 
L 388.386586 144.650318 
L 388.682555 111.056665 
L 388.978524 141.943108 
L 389.274493 158.944713 
L 389.570462 144.153499 
L 389.866431 169.165816 
L 390.1624 140.466957 
L 390.458369 127.181479 
L 390.754338 152.399398 
L 391.050307 160.062382 
L 391.346276 154.425598 
L 391.642245 168.029918 
L 391.938213 165.902841 
L 392.234182 154.712129 
L 392.530151 163.477746 
L 392.82612 168.191451 
L 393.122089 190.258486 
L 393.418058 175.242302 
L 393.714027 196.028064 
L 394.009996 171.969423 
L 394.305965 175.724014 
L 394.601934 155.638068 
L 394.897903 157.357518 
L 395.193872 176.240743 
L 395.489841 165.943067 
L 395.785809 170.82408 
L 396.969685 89.501051 
L 397.265654 98.97639 
L 397.561623 100.931249 
L 397.857592 134.292965 
L 398.153561 147.787713 
L 398.44953 98.731632 
L 398.745499 120.335892 
L 399.041468 127.644777 
L 399.337437 164.559729 
L 399.929374 183.008771 
L 400.225343 150.805467 
L 400.521312 163.922757 
L 400.817281 134.308383 
L 401.11325 155.782309 
L 401.409219 195.737298 
L 401.705188 183.007897 
L 402.001157 180.837726 
L 402.297126 191.490536 
L 402.593095 176.453365 
L 402.889064 173.022257 
L 403.185032 195.865873 
L 403.481001 187.164547 
L 403.77697 164.340185 
L 404.072939 176.164049 
L 404.368908 156.142205 
L 404.664877 153.675051 
L 404.960846 173.644353 
L 405.256815 182.261759 
L 405.552784 186.146979 
L 405.848753 195.097301 
L 406.144722 161.129242 
L 406.440691 182.656468 
L 406.73666 164.781584 
L 407.328597 149.621435 
L 407.624566 174.374683 
L 407.920535 168.803664 
L 408.216504 143.487579 
L 408.512473 183.873947 
L 408.808442 180.236701 
L 409.104411 174.387308 
L 409.40038 177.035749 
L 409.696349 199.235197 
L 409.992318 164.172251 
L 410.288287 168.180834 
L 410.880224 154.350242 
L 411.176193 160.118461 
L 411.472162 170.562557 
L 411.768131 221.601811 
L 412.0641 213.138143 
L 412.0641 213.138143 
" clip-path="url(#pc674d88e4f)" style="fill: none; stroke: #1f77b4; stroke-width: 2; stroke-linecap: square"/>
   </g>
   <g id="line2d_18">
    <path d="M 116.391148 169.465143 
L 116.687117 133.630581 
L 116.983085 168.322403 
L 117.279054 155.369358 
L 117.575023 161.177293 
L 117.870992 149.683141 
L 118.166961 128.897373 
L 118.46293 143.048762 
L 118.758899 128.977841 
L 119.054868 137.789298 
L 119.350837 121.706716 
L 119.646806 134.567316 
L 119.942775 123.833401 
L 120.238744 126.356026 
L 120.534713 115.611287 
L 120.830681 78.936724 
L 121.422619 142.588049 
L 121.718588 148.029656 
L 122.310526 79.337427 
L 122.606495 116.17019 
L 122.902464 125.266349 
L 123.198433 139.438826 
L 123.494402 124.472951 
L 123.790371 131.359517 
L 124.08634 151.867858 
L 124.382309 145.870488 
L 124.678277 134.762046 
L 124.974246 157.323416 
L 125.270215 145.631479 
L 125.566184 105.478696 
L 125.862153 113.802717 
L 126.158122 105.209574 
L 126.454091 111.073777 
L 126.75006 133.43318 
L 127.046029 113.707324 
L 127.341998 67.180547 
L 127.637967 85.338949 
L 127.933936 76.151749 
L 128.525873 119.958497 
L 128.821842 79.06695 
L 129.117811 73.680871 
L 129.41378 87.536461 
L 129.709749 83.265473 
L 130.005718 99.392937 
L 130.301687 83.669931 
L 130.597656 120.37663 
L 130.893625 123.104822 
L 131.189594 147.601565 
L 131.485563 103.860993 
L 131.781532 91.417893 
L 132.0775 118.922908 
L 132.373469 134.096259 
L 132.669438 136.256342 
L 132.965407 124.267905 
L 133.261376 99.50636 
L 133.557345 107.954828 
L 133.853314 67.083466 
L 134.149283 83.729018 
L 134.445252 110.077085 
L 134.741221 75.510688 
L 135.03719 128.728249 
L 135.629128 87.897031 
L 135.925096 141.491544 
L 136.221065 117.946611 
L 136.517034 161.819113 
L 136.813003 129.235146 
L 137.108972 114.178918 
L 137.404941 105.714879 
L 137.70091 125.91374 
L 137.996879 119.740774 
L 138.292848 132.262503 
L 138.588817 158.337367 
L 139.180755 140.900303 
L 139.476723 140.067386 
L 139.772692 172.392423 
L 140.068661 125.139419 
L 140.36463 143.108229 
L 140.660599 129.249736 
L 140.956568 143.763609 
L 141.252537 133.281573 
L 141.548506 137.563061 
L 142.436413 113.562105 
L 142.732382 116.507945 
L 143.028351 85.378701 
L 143.324319 87.623699 
L 143.620288 61.939451 
L 143.916257 80.011466 
L 144.212226 89.104534 
L 144.508195 92.820817 
L 145.100133 116.880925 
L 145.396102 116.222789 
L 145.692071 136.915833 
L 145.98804 116.122995 
L 146.284009 117.574981 
L 146.579978 90.204866 
L 146.875947 95.969863 
L 147.171915 134.51163 
L 147.467884 125.355444 
L 147.763853 119.855787 
L 148.355791 85.929843 
L 148.65176 92.841502 
L 148.947729 104.111727 
L 149.243698 124.485797 
L 149.539667 123.376805 
L 149.835636 111.006647 
L 150.131605 105.842776 
L 150.427574 107.563588 
L 150.723543 96.930027 
L 151.019511 79.023145 
L 151.611449 112.91125 
L 151.907418 121.687601 
L 152.203387 92.542141 
L 152.795325 115.355224 
L 153.091294 143.957452 
L 153.387263 111.1865 
L 153.683232 98.910142 
L 153.979201 109.689174 
L 154.27517 81.461809 
L 154.571138 124.755304 
L 154.867107 127.657702 
L 155.163076 123.954754 
L 155.459045 137.903012 
L 155.755014 128.471206 
L 156.050983 139.806906 
L 156.642921 101.394428 
L 156.93889 118.811376 
L 157.234859 116.217218 
L 157.530828 110.204736 
L 157.826797 81.079635 
L 158.122766 82.322532 
L 158.418734 64.191267 
L 158.714703 112.96669 
L 159.010672 130.569088 
L 159.306641 88.599069 
L 159.60261 77.843909 
L 159.898579 134.807959 
L 160.194548 93.954821 
L 160.490517 123.248254 
L 160.786486 137.358154 
L 161.082455 91.521046 
L 161.378424 127.215148 
L 161.674393 121.835466 
L 161.970362 145.558235 
L 162.26633 119.27015 
L 162.562299 129.678247 
L 162.858268 126.383772 
L 163.154237 94.070546 
L 163.450206 93.128972 
L 163.746175 124.871432 
L 164.042144 134.094296 
L 164.338113 128.489392 
L 164.634082 120.234861 
L 164.930051 97.383713 
L 165.22602 91.59853 
L 165.521989 113.256928 
L 165.817958 116.434185 
L 166.113926 125.439765 
L 166.409895 108.929165 
L 166.705864 101.834121 
L 167.001833 144.100375 
L 167.297802 122.356876 
L 167.593771 116.123586 
L 167.88974 133.795852 
L 168.185709 129.708173 
L 168.481678 129.925053 
L 169.073616 148.733438 
L 169.369585 133.760692 
L 169.665553 153.422433 
L 169.961522 131.342135 
L 170.257491 150.705483 
L 170.55346 182.826163 
L 171.145398 154.41384 
L 171.441367 108.329999 
L 171.737336 119.033118 
L 172.033305 148.891836 
L 172.329274 149.349541 
L 172.625243 161.322369 
L 172.921212 112.474209 
L 173.217181 117.700665 
L 173.513149 132.588326 
L 173.809118 172.614675 
L 174.105087 127.7328 
L 174.401056 102.246027 
L 174.697025 103.036529 
L 174.992994 137.878527 
L 175.288963 113.830052 
L 175.584932 127.353662 
L 176.17687 141.965705 
L 176.472839 144.866795 
L 176.768808 139.934885 
L 177.064777 137.251745 
L 177.360745 133.536871 
L 177.656714 150.839109 
L 177.952683 97.406135 
L 178.248652 137.192888 
L 178.544621 153.026244 
L 178.84059 139.985332 
L 179.136559 116.609099 
L 179.432528 141.219599 
L 179.728497 147.319743 
L 180.024466 144.783059 
L 180.320435 138.02652 
L 180.616404 140.814806 
L 180.912372 128.900371 
L 181.208341 131.272956 
L 181.800279 176.593753 
L 182.096248 166.081861 
L 182.392217 136.443189 
L 182.688186 146.188158 
L 182.984155 166.094027 
L 183.280124 142.618238 
L 183.576093 172.022266 
L 183.872062 143.765312 
L 184.168031 132.553556 
L 184.464 129.657669 
L 185.055937 148.319754 
L 185.351906 150.339791 
L 185.647875 141.392024 
L 185.943844 161.066395 
L 186.239813 162.467736 
L 186.535782 144.531014 
L 186.831751 176.832687 
L 187.12772 190.34596 
L 187.423689 188.275813 
L 187.719658 205.147624 
L 188.015627 175.41077 
L 188.311596 187.190789 
L 188.607564 162.02633 
L 189.199502 200.759642 
L 189.495471 144.802137 
L 189.79144 141.134385 
L 190.087409 155.024533 
L 190.383378 196.991256 
L 190.679347 188.791277 
L 190.975316 202.721858 
L 191.271285 205.737893 
L 191.567254 232.182189 
L 191.863223 200.196305 
L 192.159192 186.836541 
L 192.45516 187.804771 
L 192.751129 191.91148 
L 193.047098 178.236195 
L 193.639036 193.090902 
L 193.935005 183.921634 
L 194.230974 167.941649 
L 194.526943 242.637208 
L 194.822912 224.418992 
L 195.118881 198.893603 
L 195.41485 204.86875 
L 195.710819 183.366807 
L 196.006787 139.649776 
L 196.302756 137.728615 
L 196.598725 184.289571 
L 196.894694 190.153689 
L 197.190663 173.003082 
L 197.486632 199.914656 
L 197.782601 188.232227 
L 198.07857 167.142619 
L 198.374539 174.752397 
L 198.670508 194.001768 
L 198.966477 201.569941 
L 199.262446 194.784654 
L 199.558415 216.030331 
L 200.150352 186.452652 
L 200.446321 229.485476 
L 200.74229 215.951339 
L 201.038259 221.164895 
L 201.630197 165.954127 
L 201.926166 149.825394 
L 202.222135 222.519425 
L 202.518104 173.660169 
L 202.814073 168.764393 
L 203.110042 191.897346 
L 203.406011 174.842385 
L 203.701979 209.592623 
L 203.997948 187.282313 
L 204.293917 185.250045 
L 204.589886 190.434627 
L 204.885855 223.796407 
L 205.181824 181.319118 
L 205.477793 192.332079 
L 206.069731 200.670431 
L 206.3657 175.79587 
L 206.661669 199.763875 
L 206.957638 193.526406 
L 207.253607 216.739843 
L 207.549575 196.200974 
L 207.845544 160.631481 
L 208.141513 172.679628 
L 208.437482 195.569397 
L 208.733451 207.260453 
L 209.02942 170.528724 
L 209.325389 192.681168 
L 209.621358 128.547501 
L 209.917327 175.450693 
L 210.213296 148.268801 
L 210.805234 194.601431 
L 211.101202 183.151594 
L 211.69314 143.372148 
L 211.989109 190.138195 
L 212.285078 173.831124 
L 212.581047 179.045148 
L 212.877016 196.808773 
L 213.172985 230.311271 
L 213.468954 191.152957 
L 213.764923 224.86308 
L 214.060892 211.105955 
L 214.356861 231.57597 
L 214.65283 231.768771 
L 214.948798 220.695789 
L 215.244767 183.999935 
L 215.540736 212.300112 
L 215.836705 192.146775 
L 216.132674 224.597507 
L 216.428643 228.720951 
L 216.724612 223.787024 
L 217.020581 224.965093 
L 217.31655 255.321136 
L 217.612519 220.417613 
L 217.908488 216.743341 
L 218.204457 228.737157 
L 218.500426 196.626232 
L 218.796394 182.538798 
L 219.092363 184.47632 
L 219.388332 184.518663 
L 219.684301 140.113924 
L 219.98027 154.015344 
L 220.276239 160.80388 
L 220.572208 138.252384 
L 220.868177 165.080569 
L 221.164146 168.081174 
L 221.460115 160.798901 
L 221.756084 194.126711 
L 222.052053 186.695191 
L 222.348021 165.463716 
L 222.64399 165.116536 
L 222.939959 144.303574 
L 223.235928 147.021925 
L 223.531897 147.457849 
L 223.827866 138.686318 
L 224.123835 149.811999 
L 224.419804 115.601742 
L 225.307711 169.643838 
L 225.60368 144.704293 
L 225.899649 142.837141 
L 226.195617 150.229219 
L 226.491586 154.346899 
L 226.787555 155.654247 
L 227.379493 173.788041 
L 227.675462 176.848158 
L 227.971431 190.178636 
L 228.2674 176.693561 
L 228.563369 177.895346 
L 229.155307 132.245177 
L 229.451276 140.356642 
L 229.747245 137.326542 
L 230.043213 131.26735 
L 230.339182 160.826847 
L 230.93112 140.743201 
L 231.227089 140.01683 
L 231.523058 128.333211 
L 231.819027 145.152052 
L 232.114996 125.786977 
L 232.410965 161.571222 
L 233.002903 118.971405 
L 233.298872 123.963799 
L 233.594841 126.418006 
L 233.890809 116.337821 
L 234.186778 110.328495 
L 234.482747 149.307006 
L 234.778716 153.317672 
L 235.074685 149.905015 
L 235.370654 117.454738 
L 235.666623 104.766992 
L 235.962592 124.300154 
L 236.258561 126.335917 
L 236.55453 109.567613 
L 236.850499 146.139583 
L 237.146468 141.794251 
L 237.442436 142.98869 
L 238.034374 108.94923 
L 238.330343 116.917179 
L 238.626312 106.373661 
L 239.21825 140.231272 
L 239.514219 100.030998 
L 239.810188 154.664524 
L 240.106157 129.080288 
L 240.402126 116.895977 
L 240.698095 119.922034 
L 240.994064 130.205578 
L 241.290032 125.117573 
L 241.586001 123.329902 
L 241.88197 166.79516 
L 242.177939 157.272096 
L 242.473908 142.532824 
L 242.769877 144.936428 
L 243.065846 116.060653 
L 243.657784 131.6908 
L 243.953753 120.985072 
L 244.545691 152.025127 
L 244.84166 109.278345 
L 245.137628 93.170852 
L 245.729566 123.860795 
L 246.025535 124.387488 
L 246.321504 120.575662 
L 246.617473 128.169352 
L 246.913442 119.124346 
L 247.209411 116.697147 
L 247.50538 115.643056 
L 247.801349 106.183083 
L 248.097318 113.313705 
L 248.393287 103.252259 
L 248.689255 148.0459 
L 248.985224 153.47335 
L 249.281193 131.564273 
L 249.577162 132.376157 
L 249.873131 118.313285 
L 250.1691 120.33593 
L 250.465069 131.276192 
L 250.761038 146.724555 
L 251.057007 139.092017 
L 251.352976 75.658655 
L 251.648945 128.359998 
L 251.944914 134.179509 
L 252.240883 160.395175 
L 252.536851 109.5124 
L 252.83282 123.36014 
L 253.128789 142.885606 
L 253.424758 150.705365 
L 253.720727 144.181913 
L 254.016696 140.31909 
L 254.312665 126.300609 
L 254.608634 128.950531 
L 255.200572 122.776091 
L 255.496541 135.121405 
L 256.088479 106.405943 
L 256.384447 109.952138 
L 256.680416 135.238228 
L 256.976385 133.600409 
L 257.272354 118.937946 
L 257.568323 179.938948 
L 257.864292 171.226323 
L 258.160261 152.906383 
L 258.45623 145.682509 
L 258.752199 192.486491 
L 259.048168 171.523964 
L 259.344137 173.747507 
L 259.640106 181.347821 
L 259.936075 208.863362 
L 260.232043 188.557399 
L 260.528012 196.174753 
L 260.823981 177.026524 
L 261.11995 149.167965 
L 261.415919 147.94577 
L 261.711888 134.128309 
L 262.007857 131.891834 
L 262.303826 131.341248 
L 262.599795 149.143961 
L 262.895764 117.539829 
L 263.191733 123.588693 
L 263.487702 122.056838 
L 263.78367 102.109968 
L 264.079639 92.641371 
L 264.375608 140.394316 
L 264.671577 123.368458 
L 264.967546 88.086434 
L 265.263515 84.785036 
L 265.559484 87.025732 
L 265.855453 131.279738 
L 266.151422 100.712431 
L 266.447391 88.802169 
L 266.74336 89.192131 
L 267.039329 110.805487 
L 267.335298 117.512356 
L 267.927235 75.612505 
L 268.223204 83.810148 
L 268.815142 61.876246 
L 269.111111 103.520684 
L 269.40708 85.344238 
L 269.703049 118.480521 
L 269.999018 82.06599 
L 270.294987 59.941989 
L 270.590956 78.029276 
L 270.886925 62.544484 
L 271.478862 154.437541 
L 271.774831 153.226975 
L 272.0708 154.343293 
L 272.366769 175.223823 
L 272.662738 145.191999 
L 272.958707 144.108216 
L 273.254676 145.923187 
L 273.550645 160.470698 
L 273.846614 153.282896 
L 274.142583 111.585184 
L 274.438552 143.227563 
L 274.734521 112.210371 
L 275.03049 122.680416 
L 275.326458 107.311829 
L 275.622427 126.38224 
L 276.214365 75.974923 
L 276.510334 99.407131 
L 276.806303 156.904326 
L 277.102272 183.758922 
L 277.398241 111.506624 
L 277.990179 142.840807 
L 278.286148 139.518537 
L 278.878085 106.403584 
L 279.174054 128.62902 
L 279.470023 127.717442 
L 279.765992 161.725626 
L 280.061961 155.614963 
L 280.35793 139.356558 
L 280.653899 176.928454 
L 280.949868 171.317624 
L 281.245837 201.332695 
L 281.541806 186.733258 
L 281.837775 147.444203 
L 282.133744 147.273913 
L 282.429713 174.844395 
L 282.725681 138.40052 
L 283.02165 142.664961 
L 283.317619 115.526507 
L 283.909557 105.870482 
L 284.205526 93.044799 
L 284.501495 105.96536 
L 284.797464 93.443422 
L 285.093433 140.876458 
L 285.685371 102.750819 
L 285.98134 131.797814 
L 286.277309 131.026176 
L 286.573277 128.430724 
L 287.461184 92.568784 
L 287.757153 142.591189 
L 288.053122 150.275032 
L 288.349091 161.487643 
L 288.64506 147.195116 
L 288.941029 155.9813 
L 289.236998 176.115575 
L 289.532967 160.361778 
L 289.828936 120.46836 
L 290.124904 124.946862 
L 290.420873 107.778591 
L 290.716842 97.56465 
L 291.012811 121.989874 
L 291.30878 105.731162 
L 291.604749 136.990385 
L 291.900718 145.661762 
L 292.196687 141.779231 
L 292.492656 144.663708 
L 292.788625 120.211021 
L 293.380563 162.447243 
L 293.676532 143.62139 
L 293.9725 137.233684 
L 294.268469 157.775584 
L 294.564438 151.45272 
L 294.860407 170.399008 
L 295.156376 134.57125 
L 295.748314 118.729079 
L 296.044283 147.191443 
L 296.340252 163.938177 
L 296.93219 122.315458 
L 297.228159 175.548741 
L 297.524128 137.928788 
L 297.820096 137.210095 
L 298.412034 108.064258 
L 298.708003 161.906409 
L 299.003972 136.764867 
L 299.59591 169.822392 
L 299.891879 209.089261 
L 300.187848 184.512332 
L 300.483817 185.062395 
L 301.075755 162.088057 
L 301.371724 147.661411 
L 301.667692 189.339976 
L 302.25963 161.432639 
L 302.555599 166.901478 
L 302.851568 183.046523 
L 303.147537 159.713856 
L 304.035444 216.834674 
L 304.331413 202.674923 
L 304.923351 189.323625 
L 305.515288 205.997762 
L 305.811257 226.67154 
L 306.107226 169.20737 
L 306.403195 161.364394 
L 306.699164 220.46173 
L 306.995133 206.378923 
L 307.291102 216.795783 
L 307.587071 160.567749 
L 307.88304 186.98505 
L 308.179009 194.342579 
L 308.770947 167.388343 
L 309.066915 171.945042 
L 309.362884 192.981007 
L 309.658853 203.281283 
L 309.954822 175.169741 
L 310.250791 167.096874 
L 310.54676 180.776819 
L 310.842729 160.415792 
L 311.138698 186.004939 
L 311.434667 169.034043 
L 311.730636 142.533086 
L 312.026605 170.608901 
L 312.322574 134.23571 
L 312.618543 153.559828 
L 312.914511 140.829859 
L 313.506449 203.142785 
L 313.802418 198.23012 
L 314.098387 188.681756 
L 314.690325 160.720992 
L 314.986294 160.753463 
L 315.282263 175.740857 
L 315.578232 183.13451 
L 315.874201 181.120566 
L 316.17017 212.715886 
L 316.466139 208.765537 
L 316.762107 207.697969 
L 317.058076 187.646026 
L 317.354045 203.979103 
L 317.650014 208.36268 
L 318.241952 147.87228 
L 318.537921 189.557173 
L 318.83389 185.534939 
L 319.425828 164.081703 
L 319.721797 139.047092 
L 320.017766 193.903146 
L 320.313734 168.32655 
L 320.609703 203.364089 
L 320.905672 187.201268 
L 321.201641 185.834552 
L 321.49761 209.542697 
L 322.089548 173.749978 
L 322.385517 190.394793 
L 322.681486 161.84842 
L 322.977455 183.198904 
L 323.273424 174.37652 
L 323.569393 184.173786 
L 323.865362 182.023396 
L 324.16133 181.030976 
L 324.457299 197.068092 
L 324.753268 192.712323 
L 325.049237 224.122958 
L 325.345206 198.409499 
L 325.641175 211.298694 
L 325.937144 178.03664 
L 326.233113 174.695475 
L 326.825051 224.598365 
L 327.12102 207.55017 
L 327.416989 208.740665 
L 327.712958 195.403743 
L 328.008926 218.904204 
L 328.304895 219.118081 
L 328.600864 213.327059 
L 329.192802 190.326107 
L 329.78474 249.956192 
L 330.080709 229.396215 
L 330.376678 191.667124 
L 330.968616 215.357672 
L 331.264585 192.834668 
L 331.560553 158.068954 
L 331.856522 161.666039 
L 332.152491 199.620253 
L 332.44846 201.426093 
L 332.744429 208.31794 
L 333.040398 197.315373 
L 333.336367 164.861998 
L 333.632336 159.912612 
L 334.224274 196.169037 
L 334.520243 196.386497 
L 335.112181 177.83651 
L 335.408149 180.970971 
L 335.704118 211.838065 
L 336.296056 179.903872 
L 336.592025 218.458071 
L 336.887994 219.113067 
L 337.183963 224.853438 
L 337.479932 210.037878 
L 337.775901 220.040269 
L 338.07187 206.184706 
L 338.367839 202.848105 
L 338.663808 209.28454 
L 338.959777 185.610197 
L 339.255745 196.387939 
L 339.551714 190.133138 
L 339.847683 222.679455 
L 340.143652 226.408879 
L 340.439621 217.595441 
L 340.73559 188.442677 
L 341.031559 192.464665 
L 341.327528 180.78505 
L 341.623497 204.513698 
L 341.919466 173.572379 
L 342.215435 213.317759 
L 342.511404 228.240131 
L 342.807373 179.781572 
L 343.103341 182.358526 
L 343.39931 191.119865 
L 343.695279 185.719235 
L 343.991248 172.294086 
L 344.287217 218.493705 
L 344.583186 168.917787 
L 344.879155 139.433226 
L 345.175124 181.662066 
L 345.471093 168.795122 
L 345.767062 166.12056 
L 346.063031 167.867198 
L 346.359 190.504717 
L 346.654968 167.346259 
L 346.950937 191.087363 
L 347.246906 173.288126 
L 347.542875 199.542944 
L 347.838844 170.701333 
L 348.134813 178.098338 
L 348.430782 160.966569 
L 348.726751 161.13 
L 349.02272 171.756455 
L 349.318689 165.12451 
L 349.614658 149.989721 
L 349.910627 155.811755 
L 350.502564 144.315057 
L 350.798533 153.147766 
L 351.094502 181.606959 
L 351.68644 147.125708 
L 351.982409 159.494855 
L 352.278378 156.50768 
L 352.574347 158.529254 
L 352.870316 177.446571 
L 353.166285 158.419581 
L 353.462254 171.415087 
L 353.758223 174.325138 
L 354.054192 219.514638 
L 354.646129 144.158518 
L 354.942098 151.150333 
L 355.238067 127.824625 
L 355.534036 184.136062 
L 355.830005 184.291031 
L 356.125974 173.214936 
L 356.421943 190.261605 
L 356.717912 162.971212 
L 357.013881 176.055921 
L 357.30985 194.849266 
L 357.605819 191.245127 
L 357.901788 200.384588 
L 358.197756 226.492136 
L 358.493725 202.922072 
L 358.789694 222.293619 
L 359.085663 192.67596 
L 359.381632 201.895157 
L 359.677601 196.942194 
L 359.97357 202.198919 
L 360.269539 203.460496 
L 360.565508 172.245414 
L 360.861477 181.637547 
L 361.157446 173.622142 
L 361.749383 193.792891 
L 362.045352 187.721659 
L 362.341321 167.093919 
L 362.63729 193.765107 
L 362.933259 161.551373 
L 363.229228 184.243182 
L 363.525197 151.154238 
L 363.821166 198.521177 
L 365.005042 106.543291 
L 365.301011 126.91994 
L 365.596979 160.06719 
L 365.892948 172.576586 
L 366.188917 175.211236 
L 366.484886 149.552887 
L 366.780855 95.608001 
L 367.076824 127.197056 
L 367.372793 91.305484 
L 367.668762 132.896196 
L 367.964731 129.075169 
L 368.2607 145.411745 
L 368.556669 98.609602 
L 368.852638 127.604303 
L 369.148607 131.355624 
L 369.444575 163.685763 
L 369.740544 174.853809 
L 370.036513 133.109106 
L 370.332482 121.510487 
L 370.628451 96.807182 
L 370.92442 137.84631 
L 371.220389 119.143091 
L 371.516358 122.406552 
L 371.812327 150.356039 
L 372.108296 131.167406 
L 372.404265 129.140989 
L 372.700234 109.467639 
L 372.996202 102.455325 
L 373.292171 131.647347 
L 373.58814 132.264472 
L 373.884109 172.592742 
L 374.476047 147.586445 
L 374.772016 171.157153 
L 375.067985 145.265522 
L 375.363954 138.489647 
L 375.659923 152.821694 
L 375.955892 178.984036 
L 376.54783 201.386753 
L 376.843798 175.494217 
L 377.139767 195.537858 
L 377.435736 174.655356 
L 377.731705 198.226202 
L 378.027674 173.439784 
L 378.323643 170.780766 
L 378.619612 182.612837 
L 378.915581 155.854652 
L 379.21155 192.398633 
L 379.507519 188.546348 
L 379.803488 167.470836 
L 380.099457 167.073628 
L 380.691394 186.816023 
L 380.987363 193.147962 
L 381.283332 173.009611 
L 381.579301 194.860865 
L 382.171239 150.455861 
L 383.059146 184.493522 
L 383.651084 145.279867 
L 383.947053 161.873294 
L 384.243022 102.494542 
L 384.834959 130.612695 
L 385.130928 127.404745 
L 385.426897 105.172573 
L 386.018835 153.605995 
L 386.314804 124.885001 
L 386.610773 108.536499 
L 387.202711 125.409111 
L 387.49868 118.193152 
L 387.794649 143.275763 
L 388.090617 86.25443 
L 388.386586 116.219995 
L 388.682555 100.94137 
L 388.978524 128.837866 
L 389.274493 136.685949 
L 389.570462 106.947093 
L 389.866431 116.297702 
L 390.1624 164.978502 
L 390.458369 133.384172 
L 390.754338 147.123484 
L 391.050307 106.483487 
L 391.346276 87.671776 
L 391.642245 53.211191 
L 391.938213 85.789523 
L 392.234182 83.254936 
L 392.530151 68.19908 
L 392.82612 118.086236 
L 393.122089 135.140202 
L 393.418058 94.624428 
L 393.714027 75.40833 
L 394.009996 111.844624 
L 394.305965 87.454052 
L 394.601934 91.809271 
L 395.193872 114.975788 
L 395.489841 117.642361 
L 395.785809 109.235082 
L 396.081778 126.353514 
L 396.377747 134.235762 
L 396.673716 128.483236 
L 396.969685 128.12183 
L 397.265654 123.172892 
L 397.561623 103.951593 
L 397.857592 102.4945 
L 398.153561 112.934393 
L 398.44953 82.022732 
L 398.745499 82.390474 
L 399.041468 125.858179 
L 399.337437 99.112094 
L 399.929374 123.505092 
L 400.225343 131.223845 
L 400.521312 135.918204 
L 400.817281 151.272073 
L 401.11325 129.900737 
L 401.409219 117.055213 
L 401.705188 82.756887 
L 402.001157 77.946517 
L 402.297126 103.652414 
L 402.593095 119.501391 
L 402.889064 110.347217 
L 403.185032 106.123096 
L 404.072939 169.578449 
L 404.368908 144.124178 
L 404.664877 187.072061 
L 404.960846 167.02227 
L 405.256815 177.55727 
L 405.552784 138.894193 
L 405.848753 153.002427 
L 406.144722 161.601178 
L 406.440691 138.30899 
L 406.73666 162.861972 
L 407.328597 127.949216 
L 407.624566 151.027676 
L 407.920535 162.912196 
L 408.216504 147.264985 
L 408.512473 141.858539 
L 408.808442 161.086897 
L 409.104411 166.133088 
L 409.40038 161.284897 
L 409.696349 124.891844 
L 409.992318 161.251672 
L 410.288287 142.119215 
L 410.584256 160.067753 
L 410.880224 153.844263 
L 411.176193 157.407887 
L 411.472162 128.852477 
L 411.768131 136.609309 
L 412.0641 121.354849 
L 412.0641 121.354849 
" clip-path="url(#pc674d88e4f)" style="fill: none; stroke: #ff7f0e; stroke-width: 2; stroke-linecap: square"/>
   </g>
   <g id="patch_3">
    <path d="M 101.6075 266.245 
L 101.6075 25.92 
" style="fill: none; stroke: #000000; stroke-width: 0.8; stroke-linejoin: miter; stroke-linecap: square"/>
   </g>
   <g id="patch_4">
    <path d="M 426.847748 266.245 
L 426.847748 25.92 
" style="fill: none; stroke: #000000; stroke-width: 0.8; stroke-linejoin: miter; stroke-linecap: square"/>
   </g>
   <g id="patch_5">
    <path d="M 101.6075 266.245 
L 426.847748 266.245 
" style="fill: none; stroke: #000000; stroke-width: 0.8; stroke-linejoin: miter; stroke-linecap: square"/>
   </g>
   <g id="patch_6">
    <path d="M 101.6075 25.92 
L 426.847748 25.92 
" style="fill: none; stroke: #000000; stroke-width: 0.8; stroke-linejoin: miter; stroke-linecap: square"/>
   </g>
  </g>
 </g>
 <defs>
  <clipPath id="pc674d88e4f">
   <rect x="101.6075" y="25.92" width="325.240248" height="240.325"/>
  </clipPath>
 </defs>
</svg>
