<?xml version="1.0" encoding="utf-8" standalone="no"?>
<!DOCTYPE svg PUBLIC "-//W3C//DTD SVG 1.1//EN"
  "http://www.w3.org/Graphics/SVG/1.1/DTD/svg11.dtd">
<svg xmlns:xlink="http://www.w3.org/1999/xlink" width="460.8pt" height="345.6pt" viewBox="0 0 460.8 345.6" xmlns="http://www.w3.org/2000/svg" version="1.1">
 <metadata>
  <rdf:RDF xmlns:dc="http://purl.org/dc/elements/1.1/" xmlns:cc="http://creativecommons.org/ns#" xmlns:rdf="http://www.w3.org/1999/02/22-rdf-syntax-ns#">
   <cc:Work>
    <dc:type rdf:resource="http://purl.org/dc/dcmitype/StillImage"/>
    <dc:date>2025-11-24T22:57:19.535778</dc:date>
    <dc:format>image/svg+xml</dc:format>
    <dc:creator>
     <cc:Agent>
      <dc:title>Matplotlib v3.10.6, https://matplotlib.org/</dc:title>
     </cc:Agent>
    </dc:creator>
   </cc:Work>
  </rdf:RDF>
 </metadata>
 <defs>
  <style type="text/css">*{stroke-linejoin: round; stroke-linecap: butt}</style>
 </defs>
 <g id="figure_1">
  <g id="patch_1">
   <path d="M 0 345.6 
L 460.8 345.6 
L 460.8 0 
L 0 0 
z
" style="fill: #ffffff"/>
  </g>
  <g id="axes_1">
   <g id="patch_2">
    <path d="M 57.6 307.584 
L 414.72 307.584 
L 414.72 41.472 
L 57.6 41.472 
z
" style="fill: #ffffff"/>
   </g>
   <g id="matplotlib.axis_1">
    <g id="xtick_1">
     <g id="line2d_1">
      <defs>
       <path id="m797e7fbd21" d="M 0 0 
L 0 3.5 
" style="stroke: #000000; stroke-width: 0.8"/>
      </defs>
      <g>
       <use xlink:href="#m797e7fbd21" x="73.832727" y="307.584" style="stroke: #000000; stroke-width: 0.8"/>
      </g>
     </g>
     <g id="text_1">
      <!-- 0 -->
      <g transform="translate(70.651477 322.182437) scale(0.1 -0.1)">
       <defs>
        <path id="DejaVuSans-30" d="M 2034 4250 
Q 1547 4250 1301 3770 
Q 1056 3291 1056 2328 
Q 1056 1369 1301 889 
Q 1547 409 2034 409 
Q 2525 409 2770 889 
Q 3016 1369 3016 2328 
Q 3016 3291 2770 3770 
Q 2525 4250 2034 4250 
z
M 2034 4750 
Q 2819 4750 3233 4129 
Q 3647 3509 3647 2328 
Q 3647 1150 3233 529 
Q 2819 -91 2034 -91 
Q 1250 -91 836 529 
Q 422 1150 422 2328 
Q 422 3509 836 4129 
Q 1250 4750 2034 4750 
z
" transform="scale(0.015625)"/>
       </defs>
       <use xlink:href="#DejaVuSans-30"/>
      </g>
     </g>
    </g>
    <g id="xtick_2">
     <g id="line2d_2">
      <g>
       <use xlink:href="#m797e7fbd21" x="138.828632" y="307.584" style="stroke: #000000; stroke-width: 0.8"/>
      </g>
     </g>
     <g id="text_2">
      <!-- 200 -->
      <g transform="translate(129.284882 322.182437) scale(0.1 -0.1)">
       <defs>
        <path id="DejaVuSans-32" d="M 1228 531 
L 3431 531 
L 3431 0 
L 469 0 
L 469 531 
Q 828 903 1448 1529 
Q 2069 2156 2228 2338 
Q 2531 2678 2651 2914 
Q 2772 3150 2772 3378 
Q 2772 3750 2511 3984 
Q 2250 4219 1831 4219 
Q 1534 4219 1204 4116 
Q 875 4013 500 3803 
L 500 4441 
Q 881 4594 1212 4672 
Q 1544 4750 1819 4750 
Q 2544 4750 2975 4387 
Q 3406 4025 3406 3419 
Q 3406 3131 3298 2873 
Q 3191 2616 2906 2266 
Q 2828 2175 2409 1742 
Q 1991 1309 1228 531 
z
" transform="scale(0.015625)"/>
       </defs>
       <use xlink:href="#DejaVuSans-32"/>
       <use xlink:href="#DejaVuSans-30" transform="translate(63.623047 0)"/>
       <use xlink:href="#DejaVuSans-30" transform="translate(127.246094 0)"/>
      </g>
     </g>
    </g>
    <g id="xtick_3">
     <g id="line2d_3">
      <g>
       <use xlink:href="#m797e7fbd21" x="203.824537" y="307.584" style="stroke: #000000; stroke-width: 0.8"/>
      </g>
     </g>
     <g id="text_3">
      <!-- 400 -->
      <g transform="translate(194.280787 322.182437) scale(0.1 -0.1)">
       <defs>
        <path id="DejaVuSans-34" d="M 2419 4116 
L 825 1625 
L 2419 1625 
L 2419 4116 
z
M 2253 4666 
L 3047 4666 
L 3047 1625 
L 3713 1625 
L 3713 1100 
L 3047 1100 
L 3047 0 
L 2419 0 
L 2419 1100 
L 313 1100 
L 313 1709 
L 2253 4666 
z
" transform="scale(0.015625)"/>
       </defs>
       <use xlink:href="#DejaVuSans-34"/>
       <use xlink:href="#DejaVuSans-30" transform="translate(63.623047 0)"/>
       <use xlink:href="#DejaVuSans-30" transform="translate(127.246094 0)"/>
      </g>
     </g>
    </g>
    <g id="xtick_4">
     <g id="line2d_4">
      <g>
       <use xlink:href="#m797e7fbd21" x="268.820442" y="307.584" style="stroke: #000000; stroke-width: 0.8"/>
      </g>
     </g>
     <g id="text_4">
      <!-- 600 -->
      <g transform="translate(259.276692 322.182437) scale(0.1 -0.1)">
       <defs>
        <path id="DejaVuSans-36" d="M 2113 2584 
Q 1688 2584 1439 2293 
Q 1191 2003 1191 1497 
Q 1191 994 1439 701 
Q 1688 409 2113 409 
Q 2538 409 2786 701 
Q 3034 994 3034 1497 
Q 3034 2003 2786 2293 
Q 2538 2584 2113 2584 
z
M 3366 4563 
L 3366 3988 
Q 3128 4100 2886 4159 
Q 2644 4219 2406 4219 
Q 1781 4219 1451 3797 
Q 1122 3375 1075 2522 
Q 1259 2794 1537 2939 
Q 1816 3084 2150 3084 
Q 2853 3084 3261 2657 
Q 3669 2231 3669 1497 
Q 3669 778 3244 343 
Q 2819 -91 2113 -91 
Q 1303 -91 875 529 
Q 447 1150 447 2328 
Q 447 3434 972 4092 
Q 1497 4750 2381 4750 
Q 2619 4750 2861 4703 
Q 3103 4656 3366 4563 
z
" transform="scale(0.015625)"/>
       </defs>
       <use xlink:href="#DejaVuSans-36"/>
       <use xlink:href="#DejaVuSans-30" transform="translate(63.623047 0)"/>
       <use xlink:href="#DejaVuSans-30" transform="translate(127.246094 0)"/>
      </g>
     </g>
    </g>
    <g id="xtick_5">
     <g id="line2d_5">
      <g>
       <use xlink:href="#m797e7fbd21" x="333.816347" y="307.584" style="stroke: #000000; stroke-width: 0.8"/>
      </g>
     </g>
     <g id="text_5">
      <!-- 800 -->
      <g transform="translate(324.272597 322.182437) scale(0.1 -0.1)">
       <defs>
        <path id="DejaVuSans-38" d="M 2034 2216 
Q 1584 2216 1326 1975 
Q 1069 1734 1069 1313 
Q 1069 891 1326 650 
Q 1584 409 2034 409 
Q 2484 409 2743 651 
Q 3003 894 3003 1313 
Q 3003 1734 2745 1975 
Q 2488 2216 2034 2216 
z
M 1403 2484 
Q 997 2584 770 2862 
Q 544 3141 544 3541 
Q 544 4100 942 4425 
Q 1341 4750 2034 4750 
Q 2731 4750 3128 4425 
Q 3525 4100 3525 3541 
Q 3525 3141 3298 2862 
Q 3072 2584 2669 2484 
Q 3125 2378 3379 2068 
Q 3634 1759 3634 1313 
Q 3634 634 3220 271 
Q 2806 -91 2034 -91 
Q 1263 -91 848 271 
Q 434 634 434 1313 
Q 434 1759 690 2068 
Q 947 2378 1403 2484 
z
M 1172 3481 
Q 1172 3119 1398 2916 
Q 1625 2713 2034 2713 
Q 2441 2713 2670 2916 
Q 2900 3119 2900 3481 
Q 2900 3844 2670 4047 
Q 2441 4250 2034 4250 
Q 1625 4250 1398 4047 
Q 1172 3844 1172 3481 
z
" transform="scale(0.015625)"/>
       </defs>
       <use xlink:href="#DejaVuSans-38"/>
       <use xlink:href="#DejaVuSans-30" transform="translate(63.623047 0)"/>
       <use xlink:href="#DejaVuSans-30" transform="translate(127.246094 0)"/>
      </g>
     </g>
    </g>
    <g id="xtick_6">
     <g id="line2d_6">
      <g>
       <use xlink:href="#m797e7fbd21" x="398.812252" y="307.584" style="stroke: #000000; stroke-width: 0.8"/>
      </g>
     </g>
     <g id="text_6">
      <!-- 1000 -->
      <g transform="translate(386.087252 322.182437) scale(0.1 -0.1)">
       <defs>
        <path id="DejaVuSans-31" d="M 794 531 
L 1825 531 
L 1825 4091 
L 703 3866 
L 703 4441 
L 1819 4666 
L 2450 4666 
L 2450 531 
L 3481 531 
L 3481 0 
L 794 0 
L 794 531 
z
" transform="scale(0.015625)"/>
       </defs>
       <use xlink:href="#DejaVuSans-31"/>
       <use xlink:href="#DejaVuSans-30" transform="translate(63.623047 0)"/>
       <use xlink:href="#DejaVuSans-30" transform="translate(127.246094 0)"/>
       <use xlink:href="#DejaVuSans-30" transform="translate(190.869141 0)"/>
      </g>
     </g>
    </g>
    <g id="text_7">
     <!-- Schritt k -->
     <g transform="translate(215.218594 335.860562) scale(0.1 -0.1)">
      <defs>
       <path id="DejaVuSans-53" d="M 3425 4513 
L 3425 3897 
Q 3066 4069 2747 4153 
Q 2428 4238 2131 4238 
Q 1616 4238 1336 4038 
Q 1056 3838 1056 3469 
Q 1056 3159 1242 3001 
Q 1428 2844 1947 2747 
L 2328 2669 
Q 3034 2534 3370 2195 
Q 3706 1856 3706 1288 
Q 3706 609 3251 259 
Q 2797 -91 1919 -91 
Q 1588 -91 1214 -16 
Q 841 59 441 206 
L 441 856 
Q 825 641 1194 531 
Q 1563 422 1919 422 
Q 2459 422 2753 634 
Q 3047 847 3047 1241 
Q 3047 1584 2836 1778 
Q 2625 1972 2144 2069 
L 1759 2144 
Q 1053 2284 737 2584 
Q 422 2884 422 3419 
Q 422 4038 858 4394 
Q 1294 4750 2059 4750 
Q 2388 4750 2728 4690 
Q 3069 4631 3425 4513 
z
" transform="scale(0.015625)"/>
       <path id="DejaVuSans-63" d="M 3122 3366 
L 3122 2828 
Q 2878 2963 2633 3030 
Q 2388 3097 2138 3097 
Q 1578 3097 1268 2742 
Q 959 2388 959 1747 
Q 959 1106 1268 751 
Q 1578 397 2138 397 
Q 2388 397 2633 464 
Q 2878 531 3122 666 
L 3122 134 
Q 2881 22 2623 -34 
Q 2366 -91 2075 -91 
Q 1284 -91 818 406 
Q 353 903 353 1747 
Q 353 2603 823 3093 
Q 1294 3584 2113 3584 
Q 2378 3584 2631 3529 
Q 2884 3475 3122 3366 
z
" transform="scale(0.015625)"/>
       <path id="DejaVuSans-68" d="M 3513 2113 
L 3513 0 
L 2938 0 
L 2938 2094 
Q 2938 2591 2744 2837 
Q 2550 3084 2163 3084 
Q 1697 3084 1428 2787 
Q 1159 2491 1159 1978 
L 1159 0 
L 581 0 
L 581 4863 
L 1159 4863 
L 1159 2956 
Q 1366 3272 1645 3428 
Q 1925 3584 2291 3584 
Q 2894 3584 3203 3211 
Q 3513 2838 3513 2113 
z
" transform="scale(0.015625)"/>
       <path id="DejaVuSans-72" d="M 2631 2963 
Q 2534 3019 2420 3045 
Q 2306 3072 2169 3072 
Q 1681 3072 1420 2755 
Q 1159 2438 1159 1844 
L 1159 0 
L 581 0 
L 581 3500 
L 1159 3500 
L 1159 2956 
Q 1341 3275 1631 3429 
Q 1922 3584 2338 3584 
Q 2397 3584 2469 3576 
Q 2541 3569 2628 3553 
L 2631 2963 
z
" transform="scale(0.015625)"/>
       <path id="DejaVuSans-69" d="M 603 3500 
L 1178 3500 
L 1178 0 
L 603 0 
L 603 3500 
z
M 603 4863 
L 1178 4863 
L 1178 4134 
L 603 4134 
L 603 4863 
z
" transform="scale(0.015625)"/>
       <path id="DejaVuSans-74" d="M 1172 4494 
L 1172 3500 
L 2356 3500 
L 2356 3053 
L 1172 3053 
L 1172 1153 
Q 1172 725 1289 603 
Q 1406 481 1766 481 
L 2356 481 
L 2356 0 
L 1766 0 
Q 1100 0 847 248 
Q 594 497 594 1153 
L 594 3053 
L 172 3053 
L 172 3500 
L 594 3500 
L 594 4494 
L 1172 4494 
z
" transform="scale(0.015625)"/>
       <path id="DejaVuSans-20" transform="scale(0.015625)"/>
       <path id="DejaVuSans-6b" d="M 581 4863 
L 1159 4863 
L 1159 1991 
L 2875 3500 
L 3609 3500 
L 1753 1863 
L 3688 0 
L 2938 0 
L 1159 1709 
L 1159 0 
L 581 0 
L 581 4863 
z
" transform="scale(0.015625)"/>
      </defs>
      <use xlink:href="#DejaVuSans-53"/>
      <use xlink:href="#DejaVuSans-63" transform="translate(63.476562 0)"/>
      <use xlink:href="#DejaVuSans-68" transform="translate(118.457031 0)"/>
      <use xlink:href="#DejaVuSans-72" transform="translate(181.835938 0)"/>
      <use xlink:href="#DejaVuSans-69" transform="translate(222.949219 0)"/>
      <use xlink:href="#DejaVuSans-74" transform="translate(250.732422 0)"/>
      <use xlink:href="#DejaVuSans-74" transform="translate(289.941406 0)"/>
      <use xlink:href="#DejaVuSans-20" transform="translate(329.150391 0)"/>
      <use xlink:href="#DejaVuSans-6b" transform="translate(360.9375 0)"/>
     </g>
    </g>
   </g>
   <g id="matplotlib.axis_2">
    <g id="ytick_1">
     <g id="line2d_7">
      <defs>
       <path id="m895f52482e" d="M 0 0 
L -3.5 0 
" style="stroke: #000000; stroke-width: 0.8"/>
      </defs>
      <g>
       <use xlink:href="#m895f52482e" x="57.6" y="279.263643" style="stroke: #000000; stroke-width: 0.8"/>
      </g>
     </g>
     <g id="text_8">
      <!-- −0.003 -->
      <g transform="translate(13.592188 283.062862) scale(0.1 -0.1)">
       <defs>
        <path id="DejaVuSans-2212" d="M 678 2272 
L 4684 2272 
L 4684 1741 
L 678 1741 
L 678 2272 
z
" transform="scale(0.015625)"/>
        <path id="DejaVuSans-2e" d="M 684 794 
L 1344 794 
L 1344 0 
L 684 0 
L 684 794 
z
" transform="scale(0.015625)"/>
        <path id="DejaVuSans-33" d="M 2597 2516 
Q 3050 2419 3304 2112 
Q 3559 1806 3559 1356 
Q 3559 666 3084 287 
Q 2609 -91 1734 -91 
Q 1441 -91 1130 -33 
Q 819 25 488 141 
L 488 750 
Q 750 597 1062 519 
Q 1375 441 1716 441 
Q 2309 441 2620 675 
Q 2931 909 2931 1356 
Q 2931 1769 2642 2001 
Q 2353 2234 1838 2234 
L 1294 2234 
L 1294 2753 
L 1863 2753 
Q 2328 2753 2575 2939 
Q 2822 3125 2822 3475 
Q 2822 3834 2567 4026 
Q 2313 4219 1838 4219 
Q 1578 4219 1281 4162 
Q 984 4106 628 3988 
L 628 4550 
Q 988 4650 1302 4700 
Q 1616 4750 1894 4750 
Q 2613 4750 3031 4423 
Q 3450 4097 3450 3541 
Q 3450 3153 3228 2886 
Q 3006 2619 2597 2516 
z
" transform="scale(0.015625)"/>
       </defs>
       <use xlink:href="#DejaVuSans-2212"/>
       <use xlink:href="#DejaVuSans-30" transform="translate(83.789062 0)"/>
       <use xlink:href="#DejaVuSans-2e" transform="translate(147.412109 0)"/>
       <use xlink:href="#DejaVuSans-30" transform="translate(179.199219 0)"/>
       <use xlink:href="#DejaVuSans-30" transform="translate(242.822266 0)"/>
       <use xlink:href="#DejaVuSans-33" transform="translate(306.445312 0)"/>
      </g>
     </g>
    </g>
    <g id="ytick_2">
     <g id="line2d_8">
      <g>
       <use xlink:href="#m895f52482e" x="57.6" y="248.441612" style="stroke: #000000; stroke-width: 0.8"/>
      </g>
     </g>
     <g id="text_9">
      <!-- −0.002 -->
      <g transform="translate(13.592188 252.24083) scale(0.1 -0.1)">
       <use xlink:href="#DejaVuSans-2212"/>
       <use xlink:href="#DejaVuSans-30" transform="translate(83.789062 0)"/>
       <use xlink:href="#DejaVuSans-2e" transform="translate(147.412109 0)"/>
       <use xlink:href="#DejaVuSans-30" transform="translate(179.199219 0)"/>
       <use xlink:href="#DejaVuSans-30" transform="translate(242.822266 0)"/>
       <use xlink:href="#DejaVuSans-32" transform="translate(306.445312 0)"/>
      </g>
     </g>
    </g>
    <g id="ytick_3">
     <g id="line2d_9">
      <g>
       <use xlink:href="#m895f52482e" x="57.6" y="217.61958" style="stroke: #000000; stroke-width: 0.8"/>
      </g>
     </g>
     <g id="text_10">
      <!-- −0.001 -->
      <g transform="translate(13.592188 221.418799) scale(0.1 -0.1)">
       <use xlink:href="#DejaVuSans-2212"/>
       <use xlink:href="#DejaVuSans-30" transform="translate(83.789062 0)"/>
       <use xlink:href="#DejaVuSans-2e" transform="translate(147.412109 0)"/>
       <use xlink:href="#DejaVuSans-30" transform="translate(179.199219 0)"/>
       <use xlink:href="#DejaVuSans-30" transform="translate(242.822266 0)"/>
       <use xlink:href="#DejaVuSans-31" transform="translate(306.445312 0)"/>
      </g>
     </g>
    </g>
    <g id="ytick_4">
     <g id="line2d_10">
      <g>
       <use xlink:href="#m895f52482e" x="57.6" y="186.797548" style="stroke: #000000; stroke-width: 0.8"/>
      </g>
     </g>
     <g id="text_11">
      <!-- 0.000 -->
      <g transform="translate(21.971875 190.596767) scale(0.1 -0.1)">
       <use xlink:href="#DejaVuSans-30"/>
       <use xlink:href="#DejaVuSans-2e" transform="translate(63.623047 0)"/>
       <use xlink:href="#DejaVuSans-30" transform="translate(95.410156 0)"/>
       <use xlink:href="#DejaVuSans-30" transform="translate(159.033203 0)"/>
       <use xlink:href="#DejaVuSans-30" transform="translate(222.65625 0)"/>
      </g>
     </g>
    </g>
    <g id="ytick_5">
     <g id="line2d_11">
      <g>
       <use xlink:href="#m895f52482e" x="57.6" y="155.975516" style="stroke: #000000; stroke-width: 0.8"/>
      </g>
     </g>
     <g id="text_12">
      <!-- 0.001 -->
      <g transform="translate(21.971875 159.774735) scale(0.1 -0.1)">
       <use xlink:href="#DejaVuSans-30"/>
       <use xlink:href="#DejaVuSans-2e" transform="translate(63.623047 0)"/>
       <use xlink:href="#DejaVuSans-30" transform="translate(95.410156 0)"/>
       <use xlink:href="#DejaVuSans-30" transform="translate(159.033203 0)"/>
       <use xlink:href="#DejaVuSans-31" transform="translate(222.65625 0)"/>
      </g>
     </g>
    </g>
    <g id="ytick_6">
     <g id="line2d_12">
      <g>
       <use xlink:href="#m895f52482e" x="57.6" y="125.153484" style="stroke: #000000; stroke-width: 0.8"/>
      </g>
     </g>
     <g id="text_13">
      <!-- 0.002 -->
      <g transform="translate(21.971875 128.952703) scale(0.1 -0.1)">
       <use xlink:href="#DejaVuSans-30"/>
       <use xlink:href="#DejaVuSans-2e" transform="translate(63.623047 0)"/>
       <use xlink:href="#DejaVuSans-30" transform="translate(95.410156 0)"/>
       <use xlink:href="#DejaVuSans-30" transform="translate(159.033203 0)"/>
       <use xlink:href="#DejaVuSans-32" transform="translate(222.65625 0)"/>
      </g>
     </g>
    </g>
    <g id="ytick_7">
     <g id="line2d_13">
      <g>
       <use xlink:href="#m895f52482e" x="57.6" y="94.331452" style="stroke: #000000; stroke-width: 0.8"/>
      </g>
     </g>
     <g id="text_14">
      <!-- 0.003 -->
      <g transform="translate(21.971875 98.130671) scale(0.1 -0.1)">
       <use xlink:href="#DejaVuSans-30"/>
       <use xlink:href="#DejaVuSans-2e" transform="translate(63.623047 0)"/>
       <use xlink:href="#DejaVuSans-30" transform="translate(95.410156 0)"/>
       <use xlink:href="#DejaVuSans-30" transform="translate(159.033203 0)"/>
       <use xlink:href="#DejaVuSans-33" transform="translate(222.65625 0)"/>
      </g>
     </g>
    </g>
    <g id="ytick_8">
     <g id="line2d_14">
      <g>
       <use xlink:href="#m895f52482e" x="57.6" y="63.509421" style="stroke: #000000; stroke-width: 0.8"/>
      </g>
     </g>
     <g id="text_15">
      <!-- 0.004 -->
      <g transform="translate(21.971875 67.308639) scale(0.1 -0.1)">
       <use xlink:href="#DejaVuSans-30"/>
       <use xlink:href="#DejaVuSans-2e" transform="translate(63.623047 0)"/>
       <use xlink:href="#DejaVuSans-30" transform="translate(95.410156 0)"/>
       <use xlink:href="#DejaVuSans-30" transform="translate(159.033203 0)"/>
       <use xlink:href="#DejaVuSans-34" transform="translate(222.65625 0)"/>
      </g>
     </g>
    </g>
    <g id="text_16">
     <!-- x(k) -->
     <g transform="translate(7.5125 184.28425) rotate(-90) scale(0.1 -0.1)">
      <defs>
       <path id="DejaVuSans-78" d="M 3513 3500 
L 2247 1797 
L 3578 0 
L 2900 0 
L 1881 1375 
L 863 0 
L 184 0 
L 1544 1831 
L 300 3500 
L 978 3500 
L 1906 2253 
L 2834 3500 
L 3513 3500 
z
" transform="scale(0.015625)"/>
       <path id="DejaVuSans-28" d="M 1984 4856 
Q 1566 4138 1362 3434 
Q 1159 2731 1159 2009 
Q 1159 1288 1364 580 
Q 1569 -128 1984 -844 
L 1484 -844 
Q 1016 -109 783 600 
Q 550 1309 550 2009 
Q 550 2706 781 3412 
Q 1013 4119 1484 4856 
L 1984 4856 
z
" transform="scale(0.015625)"/>
       <path id="DejaVuSans-29" d="M 513 4856 
L 1013 4856 
Q 1481 4119 1714 3412 
Q 1947 2706 1947 2009 
Q 1947 1309 1714 600 
Q 1481 -109 1013 -844 
L 513 -844 
Q 928 -128 1133 580 
Q 1338 1288 1338 2009 
Q 1338 2731 1133 3434 
Q 928 4138 513 4856 
z
" transform="scale(0.015625)"/>
      </defs>
      <use xlink:href="#DejaVuSans-78"/>
      <use xlink:href="#DejaVuSans-28" transform="translate(59.179688 0)"/>
      <use xlink:href="#DejaVuSans-6b" transform="translate(98.193359 0)"/>
      <use xlink:href="#DejaVuSans-29" transform="translate(156.103516 0)"/>
     </g>
    </g>
   </g>
   <g id="line2d_15">
    <path d="M 73.832727 189.578056 
L 74.157707 162.650061 
L 74.482686 201.349862 
L 74.807666 161.899997 
L 75.132645 187.973023 
L 75.457625 245.114636 
L 75.782604 212.334939 
L 76.107584 230.378507 
L 76.432563 217.323139 
L 76.757543 234.093308 
L 77.082523 242.830689 
L 77.407502 242.066589 
L 77.732482 200.094088 
L 78.057461 233.660004 
L 78.382441 220.177527 
L 78.70742 159.060012 
L 79.0324 208.053227 
L 79.357379 173.497483 
L 79.682359 173.044125 
L 80.007338 173.374005 
L 80.332318 185.86734 
L 80.657297 192.489283 
L 80.982277 201.472199 
L 81.307256 198.896897 
L 81.632236 209.967805 
L 81.957215 202.133756 
L 82.282195 204.821142 
L 82.607174 159.184476 
L 82.932154 194.948192 
L 83.582113 150.761895 
L 84.232072 191.067409 
L 84.557052 195.594399 
L 84.882031 222.20685 
L 85.207011 208.670887 
L 85.53199 145.535674 
L 85.85697 123.730502 
L 86.181949 169.223279 
L 86.506929 180.067951 
L 86.831908 223.305224 
L 87.156888 185.316036 
L 87.481867 203.701408 
L 87.806847 156.726104 
L 88.131826 209.56675 
L 88.456806 206.660206 
L 88.781785 202.718131 
L 89.106765 211.992017 
L 89.756724 250.413546 
L 90.081704 257.369914 
L 90.406683 217.407476 
L 90.731663 216.429758 
L 91.056642 293.238771 
L 91.381622 252.921371 
L 91.706601 185.632317 
L 92.031581 233.629154 
L 92.35656 260.113722 
L 92.68154 233.488527 
L 93.006519 167.131432 
L 93.331499 176.721013 
L 93.981458 151.849418 
L 94.306437 198.364744 
L 94.631417 165.706989 
L 94.956396 163.907661 
L 95.281376 192.567725 
L 95.606355 192.677289 
L 95.931335 180.629704 
L 96.256314 162.207589 
L 96.581294 170.126144 
L 96.906274 195.092959 
L 97.231253 126.446659 
L 97.556233 216.06834 
L 97.881212 186.360185 
L 98.206192 207.251634 
L 98.531171 201.485594 
L 98.856151 144.670464 
L 99.18113 213.238755 
L 99.50611 155.366238 
L 99.831089 204.420743 
L 100.156069 193.619767 
L 100.481048 144.47634 
L 100.806028 212.001274 
L 101.131007 108.547194 
L 101.455987 118.024286 
L 101.780966 115.462467 
L 102.105946 166.33341 
L 102.430925 123.383782 
L 103.405864 239.723051 
L 103.730844 172.917332 
L 104.055823 190.841264 
L 104.380803 191.247935 
L 104.705782 208.539527 
L 105.355741 97.928337 
L 105.680721 166.363007 
L 106.0057 162.874268 
L 106.33068 204.13255 
L 106.655659 191.344129 
L 106.980639 109.304733 
L 107.305618 125.850839 
L 107.630598 207.151796 
L 107.955577 259.947406 
L 108.605536 147.52323 
L 108.930516 216.805732 
L 109.255495 100.72454 
L 109.580475 149.015121 
L 109.905455 171.529373 
L 110.230434 175.254038 
L 110.555414 172.127385 
L 110.880393 164.466704 
L 111.205373 221.432448 
L 111.530352 213.725005 
L 111.855332 213.390386 
L 112.180311 148.172018 
L 112.505291 200.862057 
L 112.83027 197.474254 
L 113.15525 163.232634 
L 113.480229 154.384245 
L 113.805209 159.562928 
L 114.455168 184.696155 
L 114.780147 167.321304 
L 115.105127 135.373458 
L 115.430106 155.25385 
L 115.755086 182.416874 
L 116.080066 167.63234 
L 116.405045 171.548056 
L 116.730025 229.188568 
L 117.055004 212.328574 
L 117.379984 173.931728 
L 117.704963 202.151553 
L 118.354922 130.719192 
L 118.679902 160.056272 
L 119.004881 136.243388 
L 119.329861 140.881374 
L 119.65484 133.609038 
L 119.97982 193.252095 
L 120.304799 222.151534 
L 120.954758 178.99117 
L 121.279738 195.11936 
L 121.604717 266.195524 
L 121.929697 164.78403 
L 122.254676 223.959042 
L 122.904636 249.061987 
L 123.229615 239.107649 
L 123.554595 160.53689 
L 123.879574 203.76529 
L 124.204554 218.380767 
L 124.529533 192.998975 
L 124.854513 181.987131 
L 125.179492 153.999663 
L 125.504472 171.02692 
L 125.829451 173.672758 
L 126.154431 190.043399 
L 126.47941 162.743407 
L 126.80439 163.15689 
L 127.129369 202.643528 
L 127.454349 211.887278 
L 127.779328 156.284394 
L 128.429287 174.093158 
L 128.754267 166.054011 
L 129.079247 163.999685 
L 129.404226 141.619619 
L 129.729206 155.786801 
L 130.054185 162.586436 
L 130.379165 192.68281 
L 130.704144 189.542922 
L 131.029124 174.165766 
L 131.354103 144.399715 
L 131.679083 177.014645 
L 132.004062 157.610251 
L 132.329042 131.239249 
L 132.654021 167.252017 
L 132.979001 158.550248 
L 133.30398 159.951522 
L 133.62896 142.065118 
L 133.953939 163.093648 
L 134.278919 158.46494 
L 134.603898 196.072263 
L 134.928878 186.503199 
L 135.253857 189.413113 
L 135.578837 209.737237 
L 135.903817 130.812189 
L 136.228796 188.100878 
L 136.553776 167.528774 
L 136.878755 131.983026 
L 137.203735 141.746399 
L 137.528714 180.076111 
L 137.853694 258.478781 
L 138.178673 199.622266 
L 138.503653 216.216498 
L 138.828632 190.333689 
L 139.153612 176.932095 
L 139.478591 190.422342 
L 139.803571 196.909279 
L 140.12855 183.959413 
L 140.45353 163.649206 
L 140.778509 164.298959 
L 141.103489 182.597745 
L 141.428468 190.498362 
L 141.753448 160.582505 
L 142.078428 176.200896 
L 142.403407 200.633054 
L 142.728387 169.857016 
L 143.053366 188.951203 
L 143.378346 126.015353 
L 144.028305 215.166679 
L 144.353284 158.98806 
L 144.678264 169.806248 
L 145.003243 205.545944 
L 145.328223 134.281239 
L 145.653202 151.340784 
L 145.978182 115.048462 
L 146.628141 202.915194 
L 146.95312 221.96798 
L 147.2781 150.148758 
L 147.603079 234.084445 
L 147.928059 189.20238 
L 148.253038 160.314928 
L 148.578018 192.962176 
L 148.902998 140.237471 
L 149.227977 201.28198 
L 149.552957 196.683519 
L 149.877936 181.811623 
L 150.202916 224.158196 
L 150.527895 217.49771 
L 150.852875 161.304976 
L 151.827813 235.470041 
L 152.152793 274.103288 
L 152.477772 233.392038 
L 152.802752 225.58352 
L 153.127731 226.382862 
L 153.452711 199.85433 
L 153.77769 258.052466 
L 154.10267 185.227268 
L 154.427649 190.378338 
L 154.752629 202.422701 
L 155.077609 224.88572 
L 155.402588 180.174123 
L 155.727568 160.474473 
L 156.052547 216.723951 
L 156.377527 182.742264 
L 156.702506 196.25485 
L 157.027486 189.281684 
L 157.352465 172.24137 
L 157.677445 165.873911 
L 158.002424 155.15546 
L 158.327404 138.701014 
L 158.652383 175.962012 
L 158.977363 149.655684 
L 159.302342 147.148519 
L 159.627322 118.727174 
L 159.952301 197.52825 
L 160.277281 173.573791 
L 160.60226 161.962494 
L 160.92724 183.329625 
L 161.577199 111.490374 
L 161.902179 175.922253 
L 162.227158 146.855033 
L 162.552138 141.947103 
L 162.877117 193.816622 
L 163.202097 209.180108 
L 163.527076 232.347265 
L 163.852056 148.114975 
L 164.177035 175.618258 
L 164.502015 223.102092 
L 164.826994 123.735724 
L 165.151974 114.371473 
L 165.476953 197.023368 
L 165.801933 219.48196 
L 166.126912 215.167229 
L 166.451892 175.425762 
L 166.776871 176.825288 
L 167.101851 188.959077 
L 167.42683 209.107338 
L 167.75181 203.859137 
L 168.07679 174.603596 
L 168.401769 173.733892 
L 169.051728 206.443463 
L 169.376708 145.584673 
L 169.701687 162.119155 
L 170.026667 239.005284 
L 170.351646 157.057852 
L 170.676626 170.41727 
L 171.001605 160.052703 
L 171.326585 176.49273 
L 171.651564 217.697857 
L 172.301523 133.319634 
L 172.951482 227.097076 
L 173.276462 116.756957 
L 173.601441 103.666106 
L 173.926421 122.056159 
L 174.2514 170.852287 
L 174.57638 162.657823 
L 174.90136 195.619611 
L 175.226339 158.243094 
L 175.551319 146.808091 
L 175.876298 165.057207 
L 176.201278 165.782391 
L 176.526257 242.008654 
L 176.851237 192.840494 
L 177.176216 170.481281 
L 177.501196 123.412825 
L 177.826175 248.484498 
L 178.151155 155.86068 
L 178.476134 190.855668 
L 178.801114 188.628628 
L 179.126093 190.287117 
L 179.451073 180.034557 
L 179.776052 211.30364 
L 180.101032 175.339174 
L 180.426011 101.707489 
L 181.075971 224.675731 
L 181.72593 187.359425 
L 182.050909 213.664734 
L 182.375889 127.129764 
L 182.700868 194.813149 
L 183.025848 211.133874 
L 183.350827 191.365471 
L 183.675807 212.505661 
L 184.650745 125.735005 
L 184.975725 200.349082 
L 185.300704 225.000985 
L 185.625684 153.910933 
L 185.950663 148.205962 
L 186.275643 150.11973 
L 186.600622 133.23659 
L 186.925602 184.169963 
L 187.250581 203.245651 
L 187.575561 177.389211 
L 187.900541 185.084935 
L 188.22552 163.955108 
L 188.5505 199.119386 
L 188.875479 188.942227 
L 189.200459 212.689191 
L 189.525438 178.668435 
L 189.850418 224.96498 
L 190.175397 225.964644 
L 190.825356 151.580891 
L 191.150336 149.451802 
L 191.475315 163.250668 
L 191.800295 167.589041 
L 192.125274 243.173122 
L 192.450254 169.974564 
L 192.775233 213.61262 
L 193.100213 179.90006 
L 193.425192 202.392968 
L 193.750172 175.203306 
L 194.075152 228.597531 
L 194.400131 163.220685 
L 194.725111 134.049731 
L 195.05009 147.614422 
L 195.37507 194.563153 
L 195.700049 157.557017 
L 196.025029 162.631055 
L 196.350008 119.50619 
L 196.674988 166.647188 
L 196.999967 163.454794 
L 197.324947 221.274423 
L 197.649926 251.828513 
L 197.974906 269.917603 
L 198.299885 235.813367 
L 198.624865 152.95259 
L 198.949844 143.189577 
L 199.274824 221.662503 
L 199.599803 212.773477 
L 199.924783 146.788053 
L 200.249762 115.459214 
L 200.574742 136.728467 
L 200.899722 231.02746 
L 201.224701 226.179554 
L 201.549681 155.768148 
L 201.87466 193.760157 
L 202.19964 181.738085 
L 202.524619 202.791273 
L 202.849599 191.862232 
L 203.174578 169.26583 
L 203.499558 178.683434 
L 203.824537 157.183461 
L 204.149517 117.995728 
L 204.474496 198.061193 
L 204.799476 155.551096 
L 205.124455 154.480436 
L 205.449435 182.048114 
L 205.774414 141.732884 
L 206.099394 144.950145 
L 206.424373 169.399695 
L 206.749353 209.663797 
L 207.074333 146.79085 
L 207.399312 171.081064 
L 207.724292 136.459384 
L 208.049271 192.286116 
L 208.374251 166.647728 
L 208.69923 168.335767 
L 209.02421 206.694325 
L 209.349189 217.006539 
L 209.674169 214.970554 
L 209.999148 172.38704 
L 210.324128 270.079179 
L 210.649107 187.380752 
L 210.974087 162.178156 
L 211.299066 181.335303 
L 211.624046 144.095822 
L 211.949025 92.941339 
L 212.274005 216.567666 
L 212.923964 148.07249 
L 213.248943 176.15072 
L 213.573923 180.671743 
L 213.898903 192.047925 
L 214.223882 160.27018 
L 214.548862 207.603852 
L 214.873841 236.683894 
L 215.198821 174.29874 
L 215.5238 134.594781 
L 215.84878 160.283572 
L 216.173759 173.342404 
L 216.498739 152.499789 
L 216.823718 196.192148 
L 217.148698 158.772699 
L 217.473677 160.794953 
L 217.798657 182.082206 
L 218.123636 162.027842 
L 218.448616 201.993438 
L 218.773595 196.376595 
L 219.423554 175.319778 
L 219.748534 194.851324 
L 220.073514 157.221228 
L 220.398493 166.242385 
L 220.723473 188.50381 
L 221.048452 164.314375 
L 221.373432 173.230696 
L 221.698411 168.896916 
L 222.023391 154.17374 
L 222.34837 165.011295 
L 222.998329 152.415459 
L 223.323309 165.781097 
L 223.648288 198.526244 
L 223.973268 177.811536 
L 224.298247 120.55089 
L 224.623227 167.847288 
L 224.948206 146.374044 
L 225.273186 166.311069 
L 225.598165 135.360731 
L 225.923145 169.572119 
L 226.248124 150.621007 
L 226.573104 210.042002 
L 226.898084 200.984198 
L 227.223063 206.301574 
L 227.548043 181.098523 
L 228.198002 169.273447 
L 228.522981 119.513147 
L 228.847961 213.032823 
L 229.17294 156.692483 
L 229.822899 240.093073 
L 230.147879 166.199986 
L 230.797838 189.397737 
L 231.122817 155.986654 
L 231.447797 188.544113 
L 231.772776 53.568 
L 232.097756 179.972881 
L 232.422735 130.975046 
L 233.397674 209.259504 
L 233.722654 118.188505 
L 234.047633 184.683405 
L 234.697592 104.694807 
L 235.022572 187.203382 
L 235.347551 154.75029 
L 235.672531 180.733371 
L 235.99751 164.990145 
L 236.647469 195.548224 
L 236.972449 172.712967 
L 237.297428 179.246862 
L 237.622408 210.731046 
L 237.947387 153.846139 
L 238.272367 186.101314 
L 238.597346 110.565463 
L 238.922326 153.497419 
L 239.247305 161.663498 
L 239.572285 231.78063 
L 239.897265 223.147542 
L 240.222244 134.731519 
L 240.872203 204.803457 
L 241.197183 180.119071 
L 241.522162 221.388664 
L 241.847142 191.568299 
L 242.172121 227.836826 
L 242.497101 188.782933 
L 242.82208 198.152701 
L 243.14706 178.910396 
L 243.472039 218.4687 
L 243.797019 165.245799 
L 244.121998 214.905132 
L 244.446978 244.686074 
L 245.096937 194.117242 
L 245.421916 184.661659 
L 245.746896 203.840171 
L 246.071876 168.705069 
L 246.396855 202.236644 
L 246.721835 153.481616 
L 247.046814 170.383169 
L 247.371794 220.7002 
L 247.696773 209.445762 
L 248.021753 131.296299 
L 248.346732 164.371 
L 248.671712 211.834928 
L 249.64665 134.845883 
L 249.97163 169.952212 
L 250.296609 220.150137 
L 250.621589 198.877613 
L 250.946568 131.196017 
L 251.271548 139.821827 
L 251.596527 168.122695 
L 251.921507 132.709413 
L 252.246486 156.262288 
L 252.571466 198.916953 
L 252.896446 158.754769 
L 253.221425 187.663865 
L 253.546405 171.780984 
L 253.871384 169.87282 
L 254.196364 175.606137 
L 254.521343 246.246109 
L 254.846323 256.488907 
L 255.171302 152.841884 
L 255.821261 239.626474 
L 256.146241 182.707753 
L 256.47122 185.469238 
L 256.7962 215.813498 
L 257.121179 189.652402 
L 257.446159 187.031467 
L 257.771138 185.379942 
L 258.096118 246.190168 
L 258.421097 188.787805 
L 258.746077 190.774633 
L 259.071057 164.425463 
L 259.396036 192.090942 
L 259.721016 168.329615 
L 260.045995 156.784731 
L 260.370975 189.808569 
L 260.695954 196.813671 
L 261.020934 168.820181 
L 261.345913 113.545208 
L 261.670893 161.261285 
L 261.995872 143.370991 
L 262.320852 160.022032 
L 262.645831 136.212768 
L 262.970811 195.169772 
L 263.29579 186.675 
L 263.62077 158.208997 
L 263.945749 180.974746 
L 264.270729 191.646195 
L 264.595708 185.183002 
L 264.920688 173.948382 
L 265.245667 158.811271 
L 265.570647 174.822641 
L 265.895627 213.246595 
L 266.220606 194.725081 
L 266.545586 224.199487 
L 266.870565 146.21012 
L 267.195545 135.086905 
L 267.520524 141.640979 
L 267.845504 112.910911 
L 268.170483 176.255404 
L 268.495463 143.182989 
L 269.145422 120.441546 
L 269.470401 115.26759 
L 269.795381 158.230503 
L 270.12036 85.828177 
L 270.44534 166.394849 
L 270.770319 140.669866 
L 271.095299 139.671042 
L 271.420278 190.63249 
L 271.745258 209.062591 
L 272.070238 152.547845 
L 272.395217 141.560516 
L 272.720197 113.462065 
L 273.045176 125.612928 
L 273.370156 129.225592 
L 273.695135 169.836183 
L 274.345094 151.051567 
L 274.670074 120.219886 
L 274.995053 138.259321 
L 275.320033 143.110206 
L 275.645012 129.518521 
L 275.969992 149.521865 
L 276.294971 121.004395 
L 276.619951 129.494051 
L 276.94493 89.161327 
L 277.26991 118.054417 
L 277.594889 158.441535 
L 277.919869 181.59296 
L 278.244848 129.501019 
L 278.569828 132.043233 
L 278.894808 153.774641 
L 279.219787 86.694159 
L 279.544767 142.999582 
L 279.869746 150.801956 
L 280.194726 107.34892 
L 280.519705 191.790248 
L 280.844685 243.305605 
L 281.169664 140.686684 
L 281.819623 217.462719 
L 282.144603 128.498604 
L 282.469582 133.283372 
L 282.794562 168.716342 
L 283.119541 180.746001 
L 283.444521 134.866202 
L 283.7695 185.498639 
L 284.09448 154.632243 
L 284.419459 137.46459 
L 284.744439 132.507446 
L 285.069419 207.990128 
L 285.394398 213.858454 
L 285.719378 185.510176 
L 286.044357 228.717337 
L 286.369337 188.234646 
L 286.694316 131.103967 
L 287.019296 149.590777 
L 287.344275 175.622828 
L 287.669255 184.260029 
L 287.994234 217.383282 
L 288.319214 165.092107 
L 288.644193 195.908494 
L 288.969173 211.133726 
L 289.619132 130.574762 
L 289.944111 153.740762 
L 290.269091 228.134626 
L 290.59407 132.685894 
L 290.91905 176.673705 
L 291.244029 144.256948 
L 291.569009 162.526221 
L 291.893989 161.214257 
L 292.218968 177.76496 
L 292.543948 170.406825 
L 292.868927 215.25934 
L 293.193907 177.222223 
L 293.518886 246.090748 
L 293.843866 201.551659 
L 294.168845 173.800657 
L 294.818804 212.724174 
L 295.143784 239.470124 
L 295.468763 236.14274 
L 295.793743 234.345714 
L 296.118722 193.409387 
L 296.443702 121.457921 
L 297.093661 232.261312 
L 297.41864 213.372838 
L 297.74362 174.908044 
L 298.0686 184.133948 
L 298.393579 170.111115 
L 298.718559 177.145515 
L 299.043538 159.313792 
L 299.368518 167.279041 
L 299.693497 125.233049 
L 300.018477 132.030097 
L 300.343456 200.579657 
L 300.668436 156.055192 
L 300.993415 155.120345 
L 301.318395 180.361794 
L 301.643374 187.789781 
L 301.968354 170.761876 
L 302.618313 220.852133 
L 302.943292 162.662161 
L 303.268272 227.976014 
L 303.593251 246.529586 
L 304.24321 134.244883 
L 304.56819 156.860231 
L 304.89317 154.72865 
L 305.218149 160.805789 
L 305.543129 196.651784 
L 305.868108 217.760667 
L 306.193088 139.394617 
L 306.518067 99.662908 
L 306.843047 155.920525 
L 307.168026 127.457409 
L 307.493006 144.459622 
L 307.817985 176.466872 
L 308.142965 156.621357 
L 308.467944 161.740011 
L 308.792924 129.161071 
L 309.117903 186.01364 
L 309.442883 192.611534 
L 309.767862 150.939256 
L 310.092842 237.626691 
L 310.417821 136.711339 
L 310.742801 163.543039 
L 311.067781 163.952322 
L 311.39276 208.715554 
L 311.71774 211.094048 
L 312.042719 159.824413 
L 312.367699 199.877295 
L 312.692678 162.134653 
L 313.017658 161.672931 
L 313.342637 155.762409 
L 313.667617 179.885871 
L 313.992596 167.612951 
L 314.642555 181.385749 
L 314.967535 200.310646 
L 315.292514 225.992661 
L 315.617494 124.983567 
L 315.942473 224.893717 
L 316.267453 150.26553 
L 316.592432 193.920265 
L 316.917412 147.127506 
L 317.242391 156.468799 
L 317.567371 191.024089 
L 317.892351 206.662728 
L 318.21733 191.970933 
L 318.54231 147.873825 
L 318.867289 168.689538 
L 319.192269 250.277294 
L 319.517248 213.416067 
L 319.842228 238.915423 
L 320.167207 204.815799 
L 320.492187 199.792253 
L 320.817166 204.104812 
L 321.142146 195.630126 
L 321.467125 172.416486 
L 321.792105 187.823215 
L 322.117084 155.494087 
L 322.442064 155.388109 
L 322.767043 178.435957 
L 323.417002 235.822494 
L 323.741982 201.172788 
L 324.066962 184.741791 
L 324.391941 157.720696 
L 324.716921 168.972984 
L 325.0419 217.390216 
L 325.691859 174.616568 
L 326.016839 221.423386 
L 326.341818 238.215614 
L 326.666798 201.369853 
L 326.991777 201.857421 
L 327.316757 238.224939 
L 327.641736 209.493822 
L 327.966716 207.495166 
L 328.291695 172.759273 
L 328.616675 174.461254 
L 328.941654 160.867899 
L 329.266634 201.56389 
L 329.591613 223.450988 
L 329.916593 196.786154 
L 330.241572 130.799076 
L 330.566552 170.154713 
L 330.891532 178.159229 
L 331.216511 177.038504 
L 331.541491 150.799589 
L 331.86647 185.733086 
L 332.19145 236.236935 
L 332.516429 214.841051 
L 332.841409 176.203014 
L 333.166388 206.787175 
L 333.491368 219.837283 
L 333.816347 212.980037 
L 334.141327 175.988585 
L 334.466306 220.335051 
L 334.791286 187.71266 
L 335.116265 182.118995 
L 335.441245 155.531303 
L 335.766224 245.630434 
L 336.091204 231.128863 
L 336.416183 177.656434 
L 336.741163 156.5192 
L 337.066143 177.431192 
L 337.391122 168.335833 
L 337.716102 185.879435 
L 338.366061 136.125929 
L 338.69104 194.377179 
L 339.01602 181.199794 
L 339.340999 205.441485 
L 339.665979 259.295741 
L 339.990958 192.843349 
L 340.315938 196.273676 
L 340.640917 193.094168 
L 340.965897 213.362813 
L 341.290876 149.413229 
L 341.615856 204.494246 
L 341.940835 174.559425 
L 342.265815 168.154277 
L 342.590794 229.09352 
L 342.915774 219.617184 
L 343.240753 145.281375 
L 343.565733 211.580602 
L 343.890713 201.452043 
L 344.215692 139.961569 
L 344.540672 137.557113 
L 344.865651 124.137326 
L 345.190631 199.153164 
L 345.51561 194.272402 
L 345.84059 128.858816 
L 346.165569 177.134325 
L 346.490549 190.447648 
L 346.815528 137.038538 
L 347.140508 205.625647 
L 347.465487 139.730252 
L 347.790467 207.321313 
L 348.115446 212.410861 
L 348.440426 250.559803 
L 349.090385 165.471453 
L 349.740344 206.746421 
L 350.065324 255.556365 
L 350.390303 266.51265 
L 350.715283 200.369476 
L 351.040262 211.577294 
L 351.365242 173.611827 
L 351.690221 153.777089 
L 352.015201 180.764014 
L 352.34018 163.088212 
L 352.66516 174.357878 
L 353.315119 211.174931 
L 353.640098 203.733434 
L 353.965078 167.711922 
L 354.290057 201.998569 
L 354.615037 219.271853 
L 354.940016 165.585632 
L 355.264996 67.630758 
L 355.914955 140.545028 
L 356.239934 127.164158 
L 356.564914 163.980982 
L 356.889894 93.714568 
L 357.864832 185.932108 
L 358.189812 160.585393 
L 358.514791 197.169756 
L 358.839771 104.122265 
L 359.48973 203.037783 
L 359.814709 210.221254 
L 360.139689 174.859198 
L 360.464668 241.702659 
L 360.789648 231.374992 
L 361.114627 154.659214 
L 361.439607 214.886042 
L 361.764586 233.815425 
L 362.089566 170.903853 
L 362.414545 202.348961 
L 362.739525 159.617588 
L 363.064505 182.479689 
L 363.389484 181.387939 
L 363.714464 217.26794 
L 364.039443 228.573927 
L 364.364423 223.679135 
L 364.689402 189.578923 
L 365.014382 231.706704 
L 365.339361 164.326239 
L 365.664341 161.147196 
L 365.98932 171.913024 
L 366.3143 161.691639 
L 366.639279 176.667894 
L 366.964259 139.562196 
L 367.289238 179.034079 
L 367.939197 165.214466 
L 368.264177 138.312196 
L 368.589156 189.488862 
L 368.914136 171.458389 
L 369.239115 191.484977 
L 369.564095 171.696807 
L 369.889075 206.775176 
L 370.214054 173.712948 
L 370.539034 168.797506 
L 370.864013 141.040974 
L 371.188993 225.325188 
L 371.513972 199.541782 
L 371.838952 196.437316 
L 372.163931 174.036428 
L 372.488911 126.90246 
L 372.81389 187.916309 
L 373.13887 207.296671 
L 373.463849 176.846535 
L 373.788829 217.644651 
L 374.113808 164.800552 
L 374.438788 152.01569 
L 374.763767 197.588857 
L 375.088747 202.468419 
L 375.413726 188.975691 
L 375.738706 209.795794 
L 376.063686 200.941781 
L 376.388665 182.346661 
L 376.713645 198.861864 
L 377.038624 203.488742 
L 377.363604 234.330079 
L 377.688583 201.728619 
L 378.013563 235.156441 
L 378.338542 190.206439 
L 378.663522 201.606393 
L 378.988501 170.716332 
L 379.313481 180.782049 
L 379.63846 211.51753 
L 379.96344 189.789095 
L 380.288419 199.229253 
L 380.938378 126.60954 
L 381.263358 123.848927 
L 381.588337 105.988029 
L 381.913317 132.530822 
L 382.238296 137.900937 
L 382.563276 190.669565 
L 382.888256 200.44469 
L 383.213235 117.362829 
L 383.538215 165.691904 
L 383.863194 173.784882 
L 384.188174 227.124802 
L 384.513153 227.585004 
L 384.838133 230.906101 
L 385.163112 173.995042 
L 385.488092 202.122586 
L 385.813071 153.760195 
L 386.46303 252.613062 
L 386.78801 216.671834 
L 387.112989 211.799084 
L 387.437969 226.926052 
L 387.762948 198.700264 
L 388.087928 196.617326 
L 388.412907 233.101139 
L 388.737887 211.433809 
L 389.062867 176.678722 
L 389.387846 202.632392 
L 389.712826 170.100252 
L 390.037805 173.53061 
L 390.362785 207.493579 
L 390.687764 214.780144 
L 391.012744 215.698176 
L 391.337723 225.772702 
L 391.662703 168.75145 
L 391.987682 212.044034 
L 392.312662 179.809785 
L 392.637641 174.488109 
L 392.962621 166.450523 
L 393.2876 209.23029 
L 393.61258 193.667352 
L 393.937559 155.160646 
L 394.262539 226.227043 
L 394.587518 208.788726 
L 394.912498 197.524443 
L 395.237477 202.327068 
L 395.562457 235.020576 
L 395.887437 172.518935 
L 396.212416 188.398663 
L 396.862375 172.095099 
L 397.512334 200.427712 
L 397.837314 274.516734 
L 398.162293 240.925746 
L 398.487273 238.334563 
L 398.487273 238.334563 
" clip-path="url(#p304c3a7cff)" style="fill: none; stroke: #1f77b4; stroke-width: 1.5; stroke-linecap: square"/>
   </g>
   <g id="line2d_16">
    <path d="M 73.832727 226.731685 
L 74.157707 193.759934 
L 74.482686 202.998365 
L 74.807666 182.624067 
L 75.132645 153.936334 
L 75.457625 184.160758 
L 75.782604 160.564986 
L 76.107584 179.200356 
L 76.432563 153.406324 
L 76.757543 179.169957 
L 77.082523 160.385229 
L 77.407502 168.028083 
L 77.732482 152.261452 
L 78.057461 101.107122 
L 78.70742 210.251525 
L 79.0324 204.988493 
L 79.357379 137.325999 
L 79.682359 105.832761 
L 80.007338 176.76168 
L 80.332318 182.763648 
L 80.657297 199.413503 
L 80.982277 169.497908 
L 81.307256 182.861652 
L 81.632236 212.018269 
L 82.282195 176.199471 
L 82.607174 213.664081 
L 82.932154 187.929869 
L 83.257133 128.171766 
L 83.582113 156.036966 
L 83.907093 145.205659 
L 84.232072 159.278825 
L 84.557052 193.693893 
L 84.882031 155.978384 
L 85.207011 90.159436 
L 85.53199 137.213112 
L 85.85697 123.881066 
L 86.506929 191.051824 
L 86.831908 119.227777 
L 87.156888 123.313619 
L 87.481867 150.648807 
L 87.806847 142.030222 
L 88.131826 168.410815 
L 88.456806 139.374651 
L 88.781785 199.905366 
L 89.106765 191.734273 
L 89.431744 223.853936 
L 89.756724 145.168965 
L 90.081704 137.730803 
L 90.406683 187.480969 
L 90.731663 203.326997 
L 91.056642 198.758608 
L 91.381622 176.427251 
L 91.706601 141.015536 
L 92.031581 163.524756 
L 92.35656 101.404106 
L 93.006519 183.177745 
L 93.331499 121.832423 
L 93.656478 213.620043 
L 93.981458 164.867482 
L 94.306437 137.465912 
L 94.631417 226.809153 
L 94.956396 173.236589 
L 95.281376 243.019662 
L 95.606355 176.55477 
L 95.931335 159.372307 
L 96.256314 152.857216 
L 96.581294 188.934005 
L 96.906274 174.030019 
L 97.231253 193.843736 
L 97.556233 228.85482 
L 97.881212 202.659581 
L 98.206192 189.312822 
L 98.531171 189.481856 
L 98.856151 238.946298 
L 99.18113 154.322252 
L 99.50611 194.719809 
L 99.831089 170.407295 
L 100.156069 196.946799 
L 100.481048 176.871075 
L 100.806028 186.062125 
L 101.131007 171.383354 
L 101.455987 165.747087 
L 101.780966 154.786288 
L 102.105946 164.119681 
L 102.430925 117.628261 
L 102.755905 133.796276 
L 103.080885 98.846187 
L 103.405864 138.909305 
L 103.730844 151.501124 
L 104.055823 154.733619 
L 104.705782 185.638524 
L 105.030762 178.039956 
L 105.355741 207.249642 
L 105.680721 166.323131 
L 106.0057 172.596591 
L 106.33068 130.897277 
L 106.655659 149.988355 
L 106.980639 210.307128 
L 107.305618 182.965915 
L 107.630598 173.505058 
L 107.955577 146.066983 
L 108.280557 129.622597 
L 108.930516 166.403042 
L 109.255495 194.301906 
L 109.580475 184.095733 
L 109.905455 162.539412 
L 110.230434 157.7781 
L 110.555414 163.038405 
L 110.880393 147.190828 
L 111.205373 124.248309 
L 111.530352 159.413204 
L 111.855332 181.520531 
L 112.180311 188.362821 
L 112.505291 138.34679 
L 112.83027 165.50815 
L 113.15525 179.943701 
L 113.480229 219.197737 
L 113.805209 156.784542 
L 114.130188 145.618656 
L 114.455168 168.474293 
L 114.780147 123.782188 
L 115.105127 200.425308 
L 115.755086 181.851815 
L 116.080066 202.163009 
L 116.405045 181.539429 
L 116.730025 199.706364 
L 117.055004 160.878686 
L 117.379984 142.897795 
L 117.704963 177.371201 
L 118.354922 160.977016 
L 118.679902 118.913054 
L 119.004881 132.78224 
L 119.329861 109.286038 
L 119.65484 193.109925 
L 119.97982 205.722724 
L 120.304799 130.89736 
L 120.629779 126.01374 
L 120.954758 220.360586 
L 121.279738 139.654667 
L 121.604717 193.803516 
L 121.929697 206.689167 
L 122.254676 128.493238 
L 122.579656 196.683169 
L 122.904636 179.105468 
L 123.229615 214.426198 
L 123.554595 164.486308 
L 123.879574 186.361544 
L 124.204554 178.638696 
L 124.529533 129.52674 
L 124.854513 140.117414 
L 125.179492 193.170619 
L 125.504472 197.677261 
L 126.154431 169.525446 
L 126.47941 136.943081 
L 126.80439 137.297507 
L 127.129369 175.888407 
L 127.454349 175.166435 
L 127.779328 186.306865 
L 128.104308 156.680809 
L 128.429287 150.320477 
L 128.754267 218.693195 
L 129.079247 171.038662 
L 129.404226 164.738776 
L 129.729206 194.335035 
L 130.054185 182.14096 
L 130.379165 181.820728 
L 130.704144 196.639145 
L 131.029124 205.115326 
L 131.354103 177.064587 
L 131.679083 210.266104 
L 132.004062 169.600307 
L 132.654021 247.757414 
L 132.979001 208.537763 
L 133.30398 190.219501 
L 133.62896 123.199519 
L 133.953939 157.515315 
L 134.278919 205.421534 
L 134.603898 196.750089 
L 134.928878 211.918388 
L 135.253857 131.279254 
L 135.903817 181.011416 
L 136.228796 238.426626 
L 136.553776 153.941795 
L 136.878755 126.146433 
L 137.203735 140.03092 
L 137.528714 197.842894 
L 137.853694 150.713812 
L 138.178673 177.463741 
L 138.828632 193.031936 
L 139.153612 193.209005 
L 139.478591 182.763224 
L 140.12855 174.038134 
L 140.45353 201.86603 
L 140.778509 114.205575 
L 141.103489 192.898026 
L 141.428468 208.139455 
L 142.078428 146.116913 
L 142.403407 192.506752 
L 142.728387 195.519839 
L 143.053366 187.485158 
L 143.378346 176.331139 
L 143.703325 182.396378 
L 144.028305 163.555172 
L 144.353284 171.398001 
L 144.678264 212.618161 
L 145.003243 231.343612 
L 145.328223 204.711237 
L 145.653202 158.852591 
L 146.303161 213.261153 
L 146.628141 169.957067 
L 146.95312 220.944704 
L 147.2781 168.368955 
L 147.603079 158.629642 
L 147.928059 160.538995 
L 148.253038 180.35593 
L 148.578018 190.501519 
L 148.902998 190.274988 
L 149.227977 174.749829 
L 149.552957 207.286448 
L 149.877936 202.6173 
L 150.202916 172.250036 
L 150.527895 226.713664 
L 150.852875 236.479669 
L 151.177854 224.258366 
L 151.502834 246.496742 
L 151.827813 192.249768 
L 152.152793 217.281664 
L 152.477772 175.848987 
L 153.127731 238.803315 
L 153.452711 144.198819 
L 153.77769 156.157032 
L 154.10267 184.356284 
L 154.427649 246.513249 
L 154.752629 218.190698 
L 155.077609 236.904343 
L 155.402588 234.189444 
L 155.727568 269.910022 
L 156.052547 208.348989 
L 156.377527 194.431828 
L 157.027486 209.50579 
L 157.352465 187.690694 
L 157.677445 205.479908 
L 158.002424 213.66177 
L 158.652383 174.894186 
L 158.977363 295.488 
L 159.627322 200.543246 
L 159.952301 216.69271 
L 160.277281 183.166543 
L 160.60226 124.295344 
L 160.92724 140.704606 
L 161.252219 220.097583 
L 161.577199 216.082441 
L 161.902179 184.257241 
L 162.227158 229.473808 
L 162.877117 171.585527 
L 163.202097 191.054399 
L 163.527076 220.220624 
L 163.852056 224.798946 
L 164.177035 209.121484 
L 164.502015 241.650412 
L 164.826994 209.362146 
L 165.151974 190.210187 
L 165.476953 261.154393 
L 165.801933 225.814021 
L 166.126912 233.586285 
L 166.451892 182.107841 
L 166.776871 156.488263 
L 167.101851 144.107764 
L 167.42683 266.072233 
L 167.75181 169.134209 
L 168.07679 173.233292 
L 168.401769 213.686097 
L 168.726749 181.278288 
L 169.051728 238.993211 
L 169.376708 193.376322 
L 169.701687 194.730217 
L 170.026667 204.322715 
L 170.351646 253.849018 
L 170.676626 176.01682 
L 171.001605 204.056165 
L 171.651564 214.163418 
L 171.976544 174.174953 
L 172.301523 219.320313 
L 172.626503 203.676348 
L 172.951482 239.697491 
L 173.601441 149.792141 
L 174.2514 218.436071 
L 174.57638 228.934045 
L 174.90136 166.289414 
L 175.226339 211.422142 
L 175.551319 108.927643 
L 175.876298 203.744992 
L 176.201278 153.104209 
L 176.851237 227.232706 
L 177.826175 146.302625 
L 178.151155 228.109164 
L 178.476134 189.817642 
L 178.801114 199.993631 
L 179.126093 225.415447 
L 179.451073 269.117981 
L 179.776052 193.800823 
L 180.101032 253.688377 
L 180.426011 221.55514 
L 180.750991 253.747456 
L 181.075971 245.588896 
L 181.40095 224.966027 
L 181.72593 170.882323 
L 182.050909 227.863144 
L 182.375889 191.161759 
L 182.700868 246.824235 
L 183.025848 242.841548 
L 183.350827 230.225691 
L 183.675807 231.392718 
L 184.000786 276.243486 
L 184.325766 210.437477 
L 184.650745 213.00556 
L 184.975725 234.469853 
L 185.300704 182.090168 
L 185.625684 171.645126 
L 185.950663 183.794307 
L 186.275643 187.22942 
L 186.600622 121.807305 
L 186.925602 161.525199 
L 187.250581 174.138767 
L 187.575561 139.848166 
L 187.900541 190.555003 
L 188.22552 189.306891 
L 188.5505 176.189726 
L 188.875479 229.360871 
L 189.200459 206.425324 
L 189.525438 172.938331 
L 189.850418 179.433103 
L 190.175397 150.151824 
L 190.500377 163.583956 
L 190.825356 167.131113 
L 191.150336 155.625 
L 191.475315 177.412812 
L 191.800295 123.386825 
L 192.125274 163.970971 
L 192.775233 211.026799 
L 193.100213 164.590742 
L 193.425192 168.084445 
L 193.750172 181.900226 
L 194.075152 186.596709 
L 194.400131 186.841827 
L 195.05009 209.432594 
L 195.37507 209.320228 
L 195.700049 226.46582 
L 196.025029 199.159957 
L 196.350008 203.179215 
L 196.999967 141.008914 
L 197.324947 165.394469 
L 197.649926 162.689689 
L 197.974906 156.453895 
L 198.299885 205.721447 
L 198.624865 179.413606 
L 198.949844 167.848324 
L 199.274824 170.547061 
L 199.599803 154.607791 
L 199.924783 185.860989 
L 200.249762 152.508966 
L 200.574742 213.744264 
L 200.899722 170.093793 
L 201.224701 142.577732 
L 201.549681 159.597519 
L 201.87466 165.193618 
L 202.19964 150.466362 
L 202.524619 146.01793 
L 202.849599 209.907781 
L 203.174578 203.506494 
L 203.499558 192.851113 
L 203.824537 142.109474 
L 204.149517 134.10719 
L 204.474496 172.645157 
L 204.799476 172.300588 
L 205.124455 145.737532 
L 205.449435 207.835538 
L 205.774414 189.816178 
L 206.099394 189.679728 
L 206.424373 159.628018 
L 206.749353 142.181597 
L 207.074333 162.228065 
L 207.399312 146.400825 
L 208.049271 199.149215 
L 208.374251 130.175588 
L 208.69923 226.025077 
L 209.02421 170.464103 
L 209.349189 156.229832 
L 209.674169 166.229056 
L 209.999148 182.744856 
L 210.324128 171.777733 
L 210.649107 170.05534 
L 210.974087 237.3106 
L 211.624046 181.972059 
L 211.949025 189.283271 
L 212.274005 144.996266 
L 212.923964 180.803905 
L 213.248943 162.35521 
L 213.573923 194.444956 
L 213.898903 207.698209 
L 214.223882 136.004775 
L 214.548862 125.069312 
L 215.198821 181.983477 
L 215.5238 177.34995 
L 215.84878 169.863417 
L 216.173759 182.230697 
L 216.498739 165.756648 
L 216.823718 164.600378 
L 217.148698 164.723963 
L 217.473677 151.477533 
L 217.798657 166.601285 
L 218.123636 150.348226 
L 218.448616 222.58246 
L 218.773595 215.429657 
L 219.098575 174.651163 
L 219.423554 180.560886 
L 219.748534 159.591608 
L 220.073514 168.033204 
L 220.723473 205.913208 
L 221.048452 187.304363 
L 221.373432 90.699716 
L 221.698411 194.677158 
L 222.023391 192.02823 
L 222.34837 227.120172 
L 222.67335 137.591566 
L 223.323309 202.076373 
L 223.648288 206.769746 
L 223.973268 191.277097 
L 224.298247 185.322756 
L 224.623227 164.690622 
L 224.948206 174.017921 
L 225.273186 169.757066 
L 225.598165 167.185867 
L 225.923145 187.912366 
L 226.573104 144.411474 
L 226.898084 156.868701 
L 227.223063 197.010181 
L 227.548043 186.168841 
L 227.873022 161.790189 
L 228.198002 259.27126 
L 228.847961 191.495745 
L 229.17294 184.097196 
L 229.49792 258.390511 
L 229.822899 209.304237 
L 230.147879 214.190873 
L 230.472858 223.980702 
L 230.797838 261.62917 
L 231.122817 217.920824 
L 231.447797 231.7149 
L 232.097756 161.681779 
L 232.422735 171.580621 
L 232.747715 155.221225 
L 233.397674 162.997417 
L 233.722654 192.808512 
L 234.047633 139.590211 
L 234.372613 159.572035 
L 234.697592 158.971692 
L 235.022572 130.71279 
L 235.347551 125.29138 
L 235.672531 205.630917 
L 236.32249 113.828989 
L 236.972449 132.708203 
L 237.297428 203.001931 
L 237.622408 141.678418 
L 237.947387 130.569853 
L 238.272367 137.801879 
L 238.597346 173.548667 
L 238.922326 177.331004 
L 239.247305 137.741357 
L 239.572285 116.311989 
L 239.897265 138.407898 
L 240.222244 121.799036 
L 240.547224 111.751231 
L 240.872203 182.027835 
L 241.197183 141.874173 
L 241.522162 195.736188 
L 241.847142 128.52992 
L 242.172121 104.56509 
L 242.497101 143.517639 
L 242.82208 117.738347 
L 243.472039 249.983999 
L 243.797019 225.529469 
L 244.121998 218.614122 
L 244.446978 244.916145 
L 244.771957 187.532082 
L 245.421916 195.333961 
L 245.746896 216.679262 
L 246.071876 199.504633 
L 246.396855 135.977927 
L 246.721835 199.383385 
L 247.046814 145.306248 
L 247.371794 171.417503 
L 247.696773 147.636517 
L 248.021753 183.139459 
L 248.346732 135.619428 
L 248.671712 111.368443 
L 248.996691 159.172956 
L 249.321671 243.215622 
L 249.64665 262.234909 
L 249.97163 134.089725 
L 250.296609 179.571456 
L 250.621589 200.010773 
L 250.946568 189.519386 
L 251.271548 158.505674 
L 251.596527 144.977577 
L 251.921507 186.164234 
L 252.246486 179.350701 
L 252.571466 230.143266 
L 253.221425 179.663673 
L 253.546405 240.980571 
L 253.871384 218.806354 
L 254.196364 261.406503 
L 254.521343 225.252448 
L 254.846323 164.769968 
L 255.171302 177.592989 
L 255.496282 223.55215 
L 255.821261 159.224618 
L 256.146241 176.583963 
L 256.47122 136.972514 
L 256.7962 139.452037 
L 257.121179 140.482685 
L 257.446159 125.89667 
L 257.771138 153.377494 
L 258.096118 133.181546 
L 258.421097 210.95322 
L 258.746077 163.270806 
L 259.071057 140.374856 
L 259.396036 191.596083 
L 259.721016 182.01062 
L 260.045995 175.803232 
L 260.370975 157.16704 
L 260.695954 146.123515 
L 261.020934 130.621408 
L 261.345913 214.376311 
L 261.670893 210.394684 
L 261.995872 219.585133 
L 262.320852 189.837814 
L 262.645831 204.765582 
L 262.970811 231.631771 
L 263.29579 198.0083 
L 263.62077 138.956424 
L 263.945749 160.488534 
L 264.270729 137.604522 
L 264.595708 130.539922 
L 264.920688 175.339595 
L 265.245667 144.968898 
L 265.570647 197.838019 
L 265.895627 201.316636 
L 266.220606 188.985337 
L 266.545586 192.043959 
L 266.870565 152.540286 
L 267.520524 220.554236 
L 267.845504 181.521836 
L 268.170483 174.890769 
L 268.495463 208.905068 
L 268.820442 192.26191 
L 269.145422 220.987902 
L 269.470401 158.504457 
L 269.795381 157.507154 
L 270.12036 150.748836 
L 270.44534 199.977385 
L 270.770319 217.445091 
L 271.095299 169.831683 
L 271.420278 151.478381 
L 271.745258 240.373527 
L 272.070238 165.717534 
L 272.395217 173.079 
L 273.045176 136.878484 
L 273.370156 227.554068 
L 273.695135 172.407543 
L 274.020115 204.650001 
L 274.345094 220.68287 
L 274.670074 272.605177 
L 274.995053 216.653821 
L 275.320033 219.008542 
L 276.294971 167.850892 
L 276.619951 238.392921 
L 277.26991 183.096796 
L 277.594889 196.419024 
L 277.919869 220.424581 
L 278.244848 178.598871 
L 278.569828 217.442081 
L 278.894808 234.702496 
L 279.219787 257.980723 
L 279.544767 225.140711 
L 280.194726 206.574652 
L 280.519705 224.07983 
L 280.844685 230.446131 
L 281.169664 257.938593 
L 281.494644 160.410564 
L 281.819623 165.991933 
L 282.144603 264.473156 
L 282.469582 224.28284 
L 282.794562 239.351773 
L 283.119541 148.226039 
L 283.444521 207.305332 
L 283.7695 214.720684 
L 284.09448 188.695252 
L 284.419459 174.894593 
L 284.744439 187.914495 
L 285.069419 220.755242 
L 285.394398 229.307905 
L 285.719378 180.142043 
L 286.044357 175.781846 
L 286.369337 202.005107 
L 286.694316 168.037787 
L 287.019296 214.23662 
L 287.669255 145.261062 
L 287.994234 199.586887 
L 288.319214 137.981754 
L 288.644193 180.01171 
L 288.969173 157.968525 
L 289.294152 216.138125 
L 289.619132 246.784519 
L 290.59407 182.491084 
L 290.91905 171.295772 
L 291.244029 177.45592 
L 291.569009 202.78765 
L 291.893989 209.791824 
L 292.218968 202.721907 
L 292.543948 250.037598 
L 292.868927 231.354905 
L 293.193907 226.274527 
L 293.518886 193.693848 
L 293.843866 224.641372 
L 294.168845 226.725081 
L 294.818804 139.18236 
L 295.143784 218.587403 
L 296.118722 174.006736 
L 296.443702 140.744124 
L 296.768681 236.135565 
L 297.093661 181.233907 
L 297.41864 239.716657 
L 297.74362 203.016732 
L 298.0686 202.762599 
L 298.393579 239.353061 
L 299.043538 179.004238 
L 299.368518 211.662035 
L 299.693497 164.379037 
L 300.018477 206.847185 
L 300.343456 188.852999 
L 300.668436 206.151578 
L 300.993415 200.010587 
L 301.318395 198.483573 
L 301.643374 223.239657 
L 301.968354 210.567101 
L 302.293333 257.860123 
L 302.618313 206.008119 
L 302.943292 230.425571 
L 303.268272 175.451835 
L 303.593251 181.195062 
L 304.24321 254.954417 
L 304.56819 217.169731 
L 304.89317 220.755727 
L 305.218149 199.553878 
L 305.543129 239.754748 
L 305.868108 232.456646 
L 306.193088 220.814288 
L 306.843047 190.328453 
L 307.168026 243.139115 
L 307.493006 277.178448 
L 308.142965 176.156271 
L 308.467944 210.636372 
L 308.792924 225.411703 
L 309.442883 142.213606 
L 309.767862 163.57465 
L 310.092842 226.524579 
L 310.417821 218.194317 
L 310.742801 224.98292 
L 311.067781 203.934604 
L 311.39276 156.782181 
L 311.71774 162.055837 
L 312.042719 198.40069 
L 312.367699 220.029375 
L 312.692678 213.428711 
L 313.342637 184.882902 
L 313.667617 193.911976 
L 313.992596 241.427368 
L 314.642555 183.09653 
L 314.967535 248.380843 
L 315.292514 236.903984 
L 315.617494 241.118629 
L 315.942473 213.808873 
L 316.267453 232.19935 
L 316.592432 207.647533 
L 316.917412 206.345719 
L 317.242391 218.388003 
L 317.567371 180.677315 
L 317.892351 205.652403 
L 318.21733 195.107137 
L 318.54231 247.370362 
L 318.867289 241.841482 
L 319.192269 223.127235 
L 319.517248 179.347813 
L 319.842228 196.095519 
L 320.167207 180.40783 
L 320.492187 222.469959 
L 320.817166 168.882563 
L 321.142146 239.558414 
L 321.467125 250.80106 
L 321.792105 167.719683 
L 322.442064 203.15119 
L 322.767043 193.617377 
L 323.092023 175.284807 
L 323.417002 251.880305 
L 323.741982 161.375794 
L 324.066962 130.434105 
L 324.391941 210.515178 
L 324.716921 181.474081 
L 325.0419 180.392616 
L 325.36688 185.310657 
L 325.691859 220.388336 
L 326.016839 177.102303 
L 326.341818 219.510846 
L 326.666798 185.306717 
L 326.991777 229.872972 
L 327.316757 177.266702 
L 327.641736 196.507458 
L 327.966716 169.981895 
L 328.291695 176.988118 
L 328.616675 195.823355 
L 328.941654 183.289173 
L 329.266634 162.380777 
L 329.591613 177.972891 
L 329.916593 167.966818 
L 330.241572 164.703145 
L 330.566552 181.749194 
L 330.891532 223.712555 
L 331.216511 182.488187 
L 331.541491 164.453945 
L 331.86647 189.781555 
L 332.19145 183.072001 
L 332.516429 187.103224 
L 332.841409 215.704356 
L 333.166388 179.628443 
L 333.491368 204.212645 
L 333.816347 205.052274 
L 334.141327 271.709826 
L 334.791286 145.730217 
L 335.116265 172.135551 
L 335.441245 139.632978 
L 335.766224 236.551786 
L 336.416183 198.245223 
L 336.741163 225.977845 
L 337.066143 177.923166 
L 337.716102 231.843857 
L 338.041081 218.520609 
L 338.366061 230.805948 
L 338.69104 265.866963 
L 339.01602 217.74453 
L 339.340999 251.035613 
L 339.665979 198.625348 
L 339.990958 220.788584 
L 340.315938 211.800786 
L 340.640917 221.252627 
L 340.965897 221.506156 
L 341.290876 172.74245 
L 341.615856 198.292999 
L 341.940835 186.475193 
L 342.265815 208.26604 
L 342.590794 218.462867 
L 342.915774 205.467586 
L 343.240753 175.007228 
L 343.565733 223.659376 
L 343.890713 167.353923 
L 344.215692 212.11744 
L 344.540672 156.55045 
L 344.865651 240.154566 
L 345.190631 194.065288 
L 345.84059 141.211692 
L 346.165569 109.498416 
L 346.815528 206.707819 
L 347.140508 214.914393 
L 347.465487 211.112396 
L 347.790467 167.882638 
L 348.115446 93.350863 
L 348.440426 164.465663 
L 348.765405 106.690462 
L 349.090385 184.637509 
L 349.415364 169.189947 
L 349.740344 193.640395 
L 350.065324 116.125293 
L 350.390303 176.199317 
L 350.715283 176.613623 
L 351.040262 223.692938 
L 351.365242 227.818026 
L 351.690221 155.126472 
L 352.015201 149.131474 
L 352.34018 119.233206 
L 352.66516 194.521267 
L 352.990139 155.908859 
L 353.315119 165.598313 
L 353.640098 208.709065 
L 353.965078 169.497515 
L 354.290057 170.362008 
L 354.615037 142.13665 
L 354.940016 139.799255 
L 355.264996 190.363584 
L 355.589975 183.302262 
L 355.914955 242.482678 
L 356.239934 204.438147 
L 356.564914 187.31578 
L 356.889894 225.830505 
L 357.214873 177.720219 
L 357.539853 173.841976 
L 357.864832 199.891333 
L 358.189812 235.955269 
L 358.514791 245.747136 
L 358.839771 249.473578 
L 359.16475 202.163415 
L 359.48973 238.410359 
L 359.814709 199.795028 
L 360.139689 240.814435 
L 360.464668 195.127412 
L 360.789648 197.409734 
L 361.114627 218.078232 
L 361.439607 173.776477 
L 361.764586 238.466802 
L 362.089566 221.700092 
L 362.414545 187.39522 
L 362.739525 193.322672 
L 363.064505 211.211859 
L 363.389484 222.587557 
L 363.714464 227.770507 
L 364.039443 192.795514 
L 364.364423 231.660177 
L 365.014382 161.983281 
L 365.664341 214.402435 
L 365.98932 218.734992 
L 366.639279 159.465322 
L 366.964259 194.498588 
L 367.289238 101.457516 
L 367.939197 170.721066 
L 368.264177 163.151361 
L 368.589156 130.688868 
L 368.914136 183.954555 
L 369.239115 207.282001 
L 369.564095 154.511591 
L 369.889075 137.318849 
L 370.214054 161.031337 
L 370.539034 171.565417 
L 370.864013 158.756941 
L 371.188993 199.544669 
L 371.513972 104.215731 
L 371.838952 168.884154 
L 372.163931 140.947736 
L 372.488911 188.949058 
L 372.81389 192.685803 
L 373.13887 142.020807 
L 373.463849 165.421908 
L 373.788829 239.096495 
L 374.113808 172.747726 
L 374.438788 199.222103 
L 374.763767 132.919791 
L 375.088747 118.035244 
L 375.413726 77.421589 
L 375.738706 145.591143 
L 376.063686 137.589207 
L 376.388665 116.25139 
L 376.713645 199.536019 
L 377.038624 210.008334 
L 377.363604 137.058326 
L 377.688583 118.50638 
L 378.013563 184.506352 
L 378.338542 137.824852 
L 378.988501 167.008639 
L 379.313481 184.377093 
L 379.63846 182.702544 
L 379.96344 166.803321 
L 380.288419 194.621648 
L 380.613399 200.449153 
L 380.938378 186.349566 
L 381.263358 185.490726 
L 381.588337 177.326293 
L 381.913317 149.335382 
L 382.238296 154.689889 
L 382.563276 173.936896 
L 382.888256 124.579834 
L 383.213235 136.593093 
L 383.538215 207.050959 
L 383.863194 152.221381 
L 384.188174 180.091541 
L 384.513153 191.184307 
L 384.838133 197.896763 
L 385.163112 200.044237 
L 385.488092 219.35915 
L 385.813071 178.767143 
L 386.138051 163.653417 
L 386.46303 116.928821 
L 386.78801 124.541095 
L 387.112989 171.388994 
L 387.437969 189.860058 
L 387.762948 168.851033 
L 388.087928 163.449065 
L 388.737887 225.567087 
L 389.062867 243.178155 
L 389.387846 192.065622 
L 389.712826 261.485249 
L 390.037805 214.52414 
L 390.362785 231.534441 
L 390.687764 167.252893 
L 391.012744 200.583287 
L 391.337723 211.664349 
L 391.662703 172.274918 
L 391.987682 216.894809 
L 392.312662 179.299893 
L 392.637641 161.541746 
L 392.962621 203.807091 
L 393.2876 215.882176 
L 393.61258 185.708645 
L 393.937559 180.744739 
L 394.262539 212.716909 
L 394.587518 213.945647 
L 394.912498 202.269278 
L 395.237477 146.498077 
L 395.562457 215.075621 
L 395.887437 176.580623 
L 396.212416 208.477525 
L 396.537396 193.424957 
L 396.862375 199.295224 
L 397.187355 154.160355 
L 397.512334 176.084381 
L 397.837314 153.387251 
L 398.162293 193.846369 
L 398.487273 119.382316 
L 398.487273 119.382316 
" clip-path="url(#p304c3a7cff)" style="fill: none; stroke: #ff7f0e; stroke-width: 1.5; stroke-linecap: square"/>
   </g>
   <g id="patch_3">
    <path d="M 57.6 307.584 
L 57.6 41.472 
" style="fill: none; stroke: #000000; stroke-width: 0.8; stroke-linejoin: miter; stroke-linecap: square"/>
   </g>
   <g id="patch_4">
    <path d="M 414.72 307.584 
L 414.72 41.472 
" style="fill: none; stroke: #000000; stroke-width: 0.8; stroke-linejoin: miter; stroke-linecap: square"/>
   </g>
   <g id="patch_5">
    <path d="M 57.6 307.584 
L 414.72 307.584 
" style="fill: none; stroke: #000000; stroke-width: 0.8; stroke-linejoin: miter; stroke-linecap: square"/>
   </g>
   <g id="patch_6">
    <path d="M 57.6 41.472 
L 414.72 41.472 
" style="fill: none; stroke: #000000; stroke-width: 0.8; stroke-linejoin: miter; stroke-linecap: square"/>
   </g>
  </g>
 </g>
 <defs>
  <clipPath id="p304c3a7cff">
   <rect x="57.6" y="41.472" width="357.12" height="266.112"/>
  </clipPath>
 </defs>
</svg>
