<?xml version="1.0" encoding="utf-8" standalone="no"?>
<!DOCTYPE svg PUBLIC "-//W3C//DTD SVG 1.1//EN"
  "http://www.w3.org/Graphics/SVG/1.1/DTD/svg11.dtd">
<svg xmlns:xlink="http://www.w3.org/1999/xlink" width="460.8pt" height="345.6pt" viewBox="0 0 460.8 345.6" xmlns="http://www.w3.org/2000/svg" version="1.1">
 <metadata>
  <rdf:RDF xmlns:dc="http://purl.org/dc/elements/1.1/" xmlns:cc="http://creativecommons.org/ns#" xmlns:rdf="http://www.w3.org/1999/02/22-rdf-syntax-ns#">
   <cc:Work>
    <dc:type rdf:resource="http://purl.org/dc/dcmitype/StillImage"/>
    <dc:date>2026-01-29T08:00:35.634018</dc:date>
    <dc:format>image/svg+xml</dc:format>
    <dc:creator>
     <cc:Agent>
      <dc:title>Matplotlib v3.10.8, https://matplotlib.org/</dc:title>
     </cc:Agent>
    </dc:creator>
   </cc:Work>
  </rdf:RDF>
 </metadata>
 <defs>
  <style type="text/css">*{stroke-linejoin: round; stroke-linecap: butt}</style>
 </defs>
 <g id="figure_1">
  <g id="patch_1">
   <path d="M 0 345.6 
L 460.8 345.6 
L 460.8 0 
L 0 0 
z
" style="fill: #ffffff"/>
  </g>
  <g id="axes_1">
   <g id="patch_2">
    <path d="M 94.0475 266.245 
L 434.88 266.245 
L 434.88 30.898596 
L 94.0475 30.898596 
z
" style="fill: #ffffff"/>
   </g>
   <g id="matplotlib.axis_1">
    <g id="xtick_1">
     <g id="line2d_1">
      <path d="M 129.80186 266.245 
L 129.80186 30.898596 
" clip-path="url(#p9427bba156)" style="fill: none; stroke: #b0b0b0; stroke-width: 0.8; stroke-linecap: square"/>
     </g>
     <g id="line2d_2">
      <defs>
       <path id="mc81736ab29" d="M 0 0 
L 0 3.5 
" style="stroke: #000000; stroke-width: 0.8"/>
      </defs>
      <g>
       <use xlink:href="#mc81736ab29" x="129.80186" y="266.245" style="stroke: #000000; stroke-width: 0.8"/>
      </g>
     </g>
     <g id="text_1">
      <!-- 0 -->
      <g transform="translate(123.80186 289.63625) scale(0.24 -0.24)">
       <defs>
        <path id="TeXGyreTermes-Regular-30" d="M 3046 2112 
C 3046 3424 2464 4326 1626 4326 
C 1274 4326 1005 4218 768 3994 
C 397 3635 154 2899 154 2150 
C 154 1453 365 704 666 346 
C 902 64 1229 -90 1600 -90 
C 1926 -90 2202 19 2432 243 
C 2803 595 3046 1338 3046 2112 
z
M 2432 2099 
C 2432 762 2150 77 1600 77 
C 1050 77 768 762 768 2093 
C 768 3450 1056 4160 1606 4160 
C 2144 4160 2432 3437 2432 2099 
z
" transform="scale(0.015625)"/>
       </defs>
       <use xlink:href="#TeXGyreTermes-Regular-30"/>
      </g>
     </g>
    </g>
    <g id="xtick_2">
     <g id="line2d_3">
      <path d="M 263.558476 266.245 
L 263.558476 30.898596 
" clip-path="url(#p9427bba156)" style="fill: none; stroke: #b0b0b0; stroke-width: 0.8; stroke-linecap: square"/>
     </g>
     <g id="line2d_4">
      <g>
       <use xlink:href="#mc81736ab29" x="263.558476" y="266.245" style="stroke: #000000; stroke-width: 0.8"/>
      </g>
     </g>
     <g id="text_2">
      <!-- 500 -->
      <g transform="translate(245.558476 289.63625) scale(0.24 -0.24)">
       <defs>
        <path id="TeXGyreTermes-Regular-35" d="M 2803 4358 
L 2746 4403 
C 2650 4269 2586 4237 2451 4237 
L 1114 4237 
L 416 2720 
C 410 2707 410 2688 410 2688 
C 410 2656 435 2637 486 2637 
C 691 2637 947 2592 1210 2509 
C 1946 2272 2285 1875 2285 1242 
C 2285 627 1894 147 1395 147 
C 1267 147 1158 192 966 333 
C 762 480 614 544 480 544 
C 294 544 205 467 205 307 
C 205 64 506 -90 986 -90 
C 1523 -90 1984 83 2304 410 
C 2598 698 2733 1062 2733 1549 
C 2733 2010 2611 2304 2291 2624 
C 2010 2906 1645 3053 890 3187 
L 1158 3731 
L 2413 3731 
C 2515 3731 2541 3744 2560 3789 
L 2803 4358 
z
" transform="scale(0.015625)"/>
       </defs>
       <use xlink:href="#TeXGyreTermes-Regular-35"/>
       <use xlink:href="#TeXGyreTermes-Regular-30" transform="translate(49.999985 0)"/>
       <use xlink:href="#TeXGyreTermes-Regular-30" transform="translate(99.999969 0)"/>
      </g>
     </g>
    </g>
    <g id="xtick_3">
     <g id="line2d_5">
      <path d="M 397.315093 266.245 
L 397.315093 30.898596 
" clip-path="url(#p9427bba156)" style="fill: none; stroke: #b0b0b0; stroke-width: 0.8; stroke-linecap: square"/>
     </g>
     <g id="line2d_6">
      <g>
       <use xlink:href="#mc81736ab29" x="397.315093" y="266.245" style="stroke: #000000; stroke-width: 0.8"/>
      </g>
     </g>
     <g id="text_3">
      <!-- 1000 -->
      <g transform="translate(373.315093 289.63625) scale(0.24 -0.24)">
       <defs>
        <path id="TeXGyreTermes-Regular-31" d="M 2522 0 
L 2522 96 
C 2016 102 1914 166 1914 474 
L 1914 4314 
L 1862 4326 
L 710 3744 
L 710 3654 
C 787 3686 858 3712 883 3725 
C 998 3770 1107 3795 1171 3795 
C 1306 3795 1363 3699 1363 3494 
L 1363 595 
C 1363 384 1312 237 1210 179 
C 1114 122 1024 102 755 96 
L 755 0 
L 2522 0 
z
" transform="scale(0.015625)"/>
       </defs>
       <use xlink:href="#TeXGyreTermes-Regular-31"/>
       <use xlink:href="#TeXGyreTermes-Regular-30" transform="translate(49.999985 0)"/>
       <use xlink:href="#TeXGyreTermes-Regular-30" transform="translate(99.999969 0)"/>
       <use xlink:href="#TeXGyreTermes-Regular-30" transform="translate(149.999954 0)"/>
      </g>
     </g>
    </g>
    <g id="text_4">
     <!-- x -->
     <g transform="translate(258.46375 315.23625) scale(0.24 -0.24)">
      <defs>
       <path id="TeXGyreTermes-Regular-78" d="M 3066 0 
L 3066 96 
C 2867 96 2739 198 2541 480 
L 1722 1734 
L 2253 2502 
C 2374 2675 2566 2778 2771 2784 
L 2771 2880 
L 1760 2880 
L 1760 2784 
C 1952 2771 2016 2733 2016 2643 
C 2016 2566 1939 2426 1779 2227 
C 1747 2189 1670 2074 1587 1946 
L 1498 2074 
C 1318 2342 1203 2560 1203 2643 
C 1203 2733 1286 2778 1478 2784 
L 1478 2880 
L 154 2880 
L 154 2784 
L 211 2784 
C 403 2784 506 2701 704 2400 
L 1306 1478 
L 576 422 
C 384 160 320 115 109 96 
L 109 0 
L 1037 0 
L 1037 96 
C 858 96 781 128 781 211 
C 781 250 826 346 909 474 
L 1414 1261 
L 1997 365 
C 2022 326 2035 288 2035 250 
C 2035 134 1990 109 1779 96 
L 1779 0 
L 3066 0 
z
" transform="scale(0.015625)"/>
      </defs>
      <use xlink:href="#TeXGyreTermes-Regular-78"/>
     </g>
    </g>
   </g>
   <g id="matplotlib.axis_2">
    <g id="ytick_1">
     <g id="line2d_7">
      <path d="M 94.0475 254.912272 
L 434.88 254.912272 
" clip-path="url(#p9427bba156)" style="fill: none; stroke: #b0b0b0; stroke-width: 0.8; stroke-linecap: square"/>
     </g>
     <g id="line2d_8">
      <defs>
       <path id="md3559f6f7c" d="M 0 0 
L -3.5 0 
" style="stroke: #000000; stroke-width: 0.8"/>
      </defs>
      <g>
       <use xlink:href="#md3559f6f7c" x="94.0475" y="254.912272" style="stroke: #000000; stroke-width: 0.8"/>
      </g>
     </g>
     <g id="text_5">
      <!-- 0 -->
      <g transform="translate(75.0475 263.107897) scale(0.24 -0.24)">
       <use xlink:href="#TeXGyreTermes-Regular-30"/>
      </g>
     </g>
    </g>
    <g id="ytick_2">
     <g id="line2d_9">
      <path d="M 94.0475 181.157908 
L 434.88 181.157908 
" clip-path="url(#p9427bba156)" style="fill: none; stroke: #b0b0b0; stroke-width: 0.8; stroke-linecap: square"/>
     </g>
     <g id="line2d_10">
      <g>
       <use xlink:href="#md3559f6f7c" x="94.0475" y="181.157908" style="stroke: #000000; stroke-width: 0.8"/>
      </g>
     </g>
     <g id="text_6">
      <!-- 200 -->
      <g transform="translate(51.0475 189.353533) scale(0.24 -0.24)">
       <defs>
        <path id="TeXGyreTermes-Regular-32" d="M 3040 877 
L 2957 909 
C 2720 544 2637 486 2349 486 
L 819 486 
L 1894 1613 
C 2464 2208 2714 2694 2714 3194 
C 2714 3834 2195 4326 1530 4326 
C 1178 4326 845 4186 608 3930 
C 403 3712 307 3507 198 3053 
L 333 3021 
C 589 3648 819 3853 1261 3853 
C 1798 3853 2163 3488 2163 2950 
C 2163 2451 1869 1856 1331 1286 
L 192 77 
L 192 0 
L 2688 0 
L 3040 877 
z
" transform="scale(0.015625)"/>
       </defs>
       <use xlink:href="#TeXGyreTermes-Regular-32"/>
       <use xlink:href="#TeXGyreTermes-Regular-30" transform="translate(49.999985 0)"/>
       <use xlink:href="#TeXGyreTermes-Regular-30" transform="translate(99.999969 0)"/>
      </g>
     </g>
    </g>
    <g id="ytick_3">
     <g id="line2d_11">
      <path d="M 94.0475 107.403544 
L 434.88 107.403544 
" clip-path="url(#p9427bba156)" style="fill: none; stroke: #b0b0b0; stroke-width: 0.8; stroke-linecap: square"/>
     </g>
     <g id="line2d_12">
      <g>
       <use xlink:href="#md3559f6f7c" x="94.0475" y="107.403544" style="stroke: #000000; stroke-width: 0.8"/>
      </g>
     </g>
     <g id="text_7">
      <!-- 400 -->
      <g transform="translate(51.0475 115.599169) scale(0.24 -0.24)">
       <defs>
        <path id="TeXGyreTermes-Regular-34" d="M 3021 1069 
L 3021 1478 
L 2368 1478 
L 2368 4326 
L 2086 4326 
L 77 1478 
L 77 1069 
L 1875 1069 
L 1875 0 
L 2368 0 
L 2368 1069 
L 3021 1069 
z
M 1869 1478 
L 333 1478 
L 1869 3674 
L 1869 1478 
z
" transform="scale(0.015625)"/>
       </defs>
       <use xlink:href="#TeXGyreTermes-Regular-34"/>
       <use xlink:href="#TeXGyreTermes-Regular-30" transform="translate(49.999985 0)"/>
       <use xlink:href="#TeXGyreTermes-Regular-30" transform="translate(99.999969 0)"/>
      </g>
     </g>
    </g>
    <g id="ytick_4">
     <g id="line2d_13">
      <path d="M 94.0475 33.649181 
L 434.88 33.649181 
" clip-path="url(#p9427bba156)" style="fill: none; stroke: #b0b0b0; stroke-width: 0.8; stroke-linecap: square"/>
     </g>
     <g id="line2d_14">
      <g>
       <use xlink:href="#md3559f6f7c" x="94.0475" y="33.649181" style="stroke: #000000; stroke-width: 0.8"/>
      </g>
     </g>
     <g id="text_8">
      <!-- 600 -->
      <g transform="translate(51.0475 41.844806) scale(0.24 -0.24)">
       <defs>
        <path id="TeXGyreTermes-Regular-36" d="M 2995 1402 
C 2995 2221 2528 2739 1792 2739 
C 1510 2739 1376 2694 973 2451 
C 1146 3418 1862 4109 2867 4275 
L 2854 4378 
C 2125 4314 1754 4192 1286 3866 
C 595 3373 218 2643 218 1786 
C 218 1229 390 666 666 346 
C 909 64 1254 -90 1651 -90 
C 2445 -90 2995 518 2995 1402 
z
M 2419 1184 
C 2419 480 2170 90 1722 90 
C 1158 90 813 691 813 1683 
C 813 2010 864 2189 992 2285 
C 1126 2387 1325 2445 1549 2445 
C 2099 2445 2419 1984 2419 1184 
z
" transform="scale(0.015625)"/>
       </defs>
       <use xlink:href="#TeXGyreTermes-Regular-36"/>
       <use xlink:href="#TeXGyreTermes-Regular-30" transform="translate(49.999985 0)"/>
       <use xlink:href="#TeXGyreTermes-Regular-30" transform="translate(99.999969 0)"/>
      </g>
     </g>
    </g>
    <g id="text_9">
     <!-- y -->
     <g transform="translate(41.81625 154.571798) rotate(-90) scale(0.24 -0.24)">
      <defs>
       <path id="TeXGyreTermes-Regular-79" d="M 3040 2784 
L 3040 2880 
L 2176 2880 
L 2176 2784 
C 2381 2784 2483 2726 2483 2624 
C 2483 2598 2477 2560 2458 2515 
L 1837 749 
L 1101 2368 
C 1062 2458 1037 2541 1037 2611 
C 1037 2726 1133 2771 1408 2784 
L 1408 2880 
L 90 2880 
L 90 2790 
C 256 2765 365 2694 416 2586 
L 1472 358 
C 1517 250 1542 173 1542 122 
C 1542 26 1395 -378 1286 -570 
C 1197 -736 1056 -858 966 -858 
C 928 -858 870 -845 806 -813 
C 685 -768 576 -742 467 -742 
C 320 -742 192 -870 192 -1024 
C 192 -1235 397 -1395 666 -1395 
C 1094 -1395 1402 -1037 1747 -115 
L 2733 2496 
C 2816 2701 2886 2765 3040 2784 
z
" transform="scale(0.015625)"/>
      </defs>
      <use xlink:href="#TeXGyreTermes-Regular-79"/>
     </g>
    </g>
   </g>
   <g id="line2d_15">
    <path d="M 129.80186 254.912272 
L 129.451702 255.255872 
L 129.427569 254.945794 
L 129.631119 255.268549 
L 129.55344 255.355019 
L 129.814225 255.530181 
L 129.021262 254.995486 
L 127.504213 253.838728 
L 126.78301 253.545737 
L 126.010942 253.056942 
L 124.875392 251.975385 
L 124.25965 250.667605 
L 124.172848 249.866572 
L 123.669297 249.672475 
L 123.355603 246.502685 
L 123.111253 246.298558 
L 122.86495 245.82143 
L 122.513696 245.469924 
L 121.859014 245.405718 
L 121.903622 245.116279 
L 121.728306 245.238395 
L 121.741352 245.147232 
L 122.112252 243.651849 
L 121.959042 242.101776 
L 121.588385 241.788097 
L 121.261442 241.114586 
L 121.464548 239.592355 
L 121.976742 238.401361 
L 122.335396 236.070844 
L 122.061045 235.511365 
L 122.01368 234.20596 
L 121.826691 232.802305 
L 122.013639 231.651397 
L 121.587119 229.487952 
L 121.355149 228.266513 
L 121.028365 227.714661 
L 120.479637 227.212576 
L 119.715622 227.15735 
L 118.806459 226.303978 
L 118.168031 225.223767 
L 117.566141 224.645399 
L 115.226653 224.082151 
L 114.711945 223.601343 
L 113.897997 222.668644 
L 112.81286 221.889631 
L 111.877745 220.364644 
L 111.219672 218.400591 
L 111.156613 216.623745 
L 110.878789 215.833589 
L 110.871018 214.507314 
L 110.692932 213.901433 
L 110.482794 214.094881 
L 110.36426 213.692528 
L 110.470301 212.178302 
L 110.31682 211.709916 
L 110.72196 211.127552 
L 110.479583 210.772139 
L 110.382058 210.890992 
L 110.107888 210.836009 
L 109.838332 210.634782 
L 110.045835 210.417319 
L 109.768175 210.788794 
L 109.910118 210.297563 
L 109.707459 210.132821 
L 109.539886 209.713868 
L 109.790945 209.55803 
L 109.555768 209.209284 
L 110.807036 208.498966 
L 111.591142 207.954292 
L 112.00735 207.237848 
L 112.745455 206.572348 
L 113.222813 205.336328 
L 113.24316 204.13891 
L 112.896395 202.470148 
L 112.998941 199.948523 
L 112.981245 198.833699 
L 112.801382 197.90485 
L 113.120048 197.222652 
L 114.364864 196.203602 
L 114.762055 195.500183 
L 114.859714 193.639479 
L 115.609793 192.560852 
L 116.375609 192.183161 
L 116.4963 191.636518 
L 116.031241 190.987585 
L 115.958403 189.997552 
L 116.31018 188.72513 
L 116.160958 187.575834 
L 117.833979 185.450119 
L 118.825296 182.796753 
L 118.375093 179.172917 
L 118.703433 178.364723 
L 118.640836 176.530741 
L 118.873729 175.565681 
L 119.241892 174.793989 
L 119.617871 174.54227 
L 119.914474 173.691464 
L 120.091536 172.615539 
L 120.392059 171.735067 
L 120.992672 170.338551 
L 121.503733 169.731162 
L 122.15924 168.551752 
L 122.503914 168.181215 
L 122.206903 167.300088 
L 122.360662 166.553071 
L 122.317964 165.512762 
L 122.509893 164.789009 
L 123.092795 164.016578 
L 124.860379 160.320036 
L 125.938459 157.747564 
L 125.897203 157.223145 
L 125.9296 155.930373 
L 126.198955 153.983904 
L 125.629993 152.781509 
L 125.768241 152.11155 
L 125.501529 151.696944 
L 125.051637 150.44418 
L 123.788889 149.135471 
L 123.803832 148.861553 
L 123.578042 148.106176 
L 123.20556 147.538729 
L 123.013313 146.909008 
L 122.945679 145.687333 
L 123.693734 141.923167 
L 123.966331 140.748214 
L 123.925808 139.465467 
L 123.742152 138.57537 
L 125.007002 134.641126 
L 125.536973 133.901717 
L 126.009551 133.046259 
L 126.437095 132.511323 
L 126.983322 130.86468 
L 127.498999 130.59295 
L 127.802945 130.045884 
L 128.249384 129.855479 
L 128.956411 129.260364 
L 129.428934 129.016811 
L 129.951133 129.357549 
L 130.472121 129.400428 
L 131.154737 129.219833 
L 131.70064 128.196685 
L 132.784204 126.799784 
L 132.994975 126.735456 
L 133.004133 125.777491 
L 133.635178 124.911875 
L 133.89735 124.315312 
L 134.287315 124.446777 
L 135.005248 123.756999 
L 135.72659 122.599472 
L 136.150361 121.4542 
L 135.839966 120.942006 
L 135.843386 119.98896 
L 135.707082 119.280783 
L 135.747351 118.698185 
L 136.016009 117.857437 
L 136.157445 116.8342 
L 136.463897 116.22798 
L 136.814666 115.935869 
L 137.170221 114.121961 
L 137.539339 113.863818 
L 137.82265 113.36622 
L 137.889575 112.440691 
L 138.322126 111.593726 
L 138.996636 111.176505 
L 139.357958 110.634062 
L 139.34912 110.140597 
L 140.137717 108.570595 
L 140.740623 108.722736 
L 141.309075 108.681569 
L 143.12514 107.645703 
L 143.095255 107.170862 
L 143.588501 107.231308 
L 143.442008 106.775451 
L 143.549278 106.114148 
L 144.074754 104.87728 
L 144.649381 104.501612 
L 145.096591 103.518086 
L 144.94233 103.400176 
L 144.756907 102.954374 
L 145.017046 103.097434 
L 145.146012 103.486756 
L 145.054648 103.838329 
L 144.696704 104.497113 
L 143.916086 104.612742 
L 143.345788 104.942654 
L 142.832881 104.813527 
L 142.307198 105.011668 
L 141.996539 105.587854 
L 141.221866 105.142192 
L 140.768464 104.367942 
L 140.494766 104.871654 
L 140.022778 105.225015 
L 139.889946 105.831887 
L 139.994464 106.493303 
L 139.347793 108.843805 
L 139.401442 109.250349 
L 140.567264 110.402818 
L 141.005584 110.369588 
L 141.515527 111.698609 
L 142.312147 112.695041 
L 142.826278 113.864754 
L 143.232982 114.111309 
L 143.476573 113.559935 
L 144.054635 112.973418 
L 144.964103 113.236587 
L 145.424424 113.607153 
L 146.072065 113.664966 
L 147.19314 114.501684 
L 146.998456 114.592784 
L 147.430457 115.035376 
L 147.734322 115.61614 
L 147.624278 116.073086 
L 148.27545 116.917599 
L 149.437336 117.784976 
L 149.329521 119.719284 
L 149.532939 120.658804 
L 149.767835 121.021069 
L 149.913788 120.954568 
L 149.868015 120.595013 
L 149.813886 121.562872 
L 150.217105 121.631869 
L 150.242196 122.150964 
L 150.668795 122.891242 
L 151.055411 123.226571 
L 150.799391 123.526232 
L 151.109076 123.921581 
L 151.394145 124.926638 
L 151.788319 125.158563 
L 152.077267 125.593235 
L 151.998902 126.107901 
L 152.166356 126.699265 
L 152.757828 126.839843 
L 153.089041 127.420449 
L 152.953298 127.889911 
L 153.657639 128.785425 
L 154.643605 129.308928 
L 155.595695 129.186064 
L 156.172613 129.285506 
L 156.759351 129.805131 
L 157.05096 130.540575 
L 157.591962 130.608273 
L 158.268208 131.083337 
L 158.829344 130.391937 
L 159.373169 130.559356 
L 159.251332 130.234221 
L 159.389987 130.32568 
L 159.72657 130.850989 
L 160.510645 131.169288 
L 160.330408 131.157957 
L 160.758389 130.755321 
L 160.970251 131.208056 
L 161.340319 131.621533 
L 161.586264 132.203453 
L 161.572045 133.398789 
L 161.806765 133.882339 
L 163.333261 135.836559 
L 163.379938 138.302171 
L 163.537438 139.339152 
L 163.475068 139.710186 
L 164.105772 140.60096 
L 164.298034 141.127772 
L 164.301843 144.562511 
L 164.440601 145.699672 
L 164.896518 147.393309 
L 165.635548 148.452761 
L 165.829742 149.447904 
L 165.718257 150.664356 
L 166.123623 151.297999 
L 168.029922 152.516049 
L 168.593479 152.001144 
L 168.912686 151.998666 
L 169.175806 151.587782 
L 169.963956 151.817511 
L 169.941491 152.437528 
L 170.152543 152.925249 
L 169.741746 153.128593 
L 169.766406 152.851219 
L 171.473099 151.874598 
L 171.232275 151.08648 
L 171.471456 150.628754 
L 171.39681 150.508832 
L 171.550527 150.712161 
L 171.542438 150.462749 
L 171.73716 150.181454 
L 171.506535 150.036929 
L 171.748146 149.969013 
L 172.32646 149.926899 
L 172.895309 150.061009 
L 173.097674 150.353474 
L 173.554225 150.703965 
L 174.012832 151.300452 
L 174.862604 151.653529 
L 175.411173 152.031564 
L 175.956149 152.022517 
L 175.997279 151.574316 
L 175.64985 151.277728 
L 175.004514 150.92951 
L 174.520234 150.473924 
L 174.730602 150.560933 
L 175.172453 150.444095 
L 174.87074 149.889309 
L 175.243103 149.39788 
L 176.003229 149.217178 
L 176.714166 148.687668 
L 176.651353 148.815121 
L 176.46707 148.555851 
L 176.812333 147.914574 
L 177.114976 146.191386 
L 177.17789 145.406206 
L 177.654474 145.338025 
L 178.06616 145.281446 
L 178.870307 144.634555 
L 179.098598 143.757977 
L 180.1581 142.759772 
L 180.504825 141.976217 
L 181.863119 141.670095 
L 182.386009 141.501798 
L 182.534576 140.995737 
L 184.693831 138.191583 
L 185.184407 137.978168 
L 185.675831 137.03162 
L 185.838106 137.082029 
L 185.769516 136.028895 
L 186.032032 135.446888 
L 185.502292 135.052783 
L 185.505316 134.566225 
L 185.790792 134.047447 
L 185.98924 134.32208 
L 186.515817 134.423728 
L 187.725375 134.13606 
L 187.976923 133.489129 
L 188.946893 132.612736 
L 189.510031 131.843764 
L 189.975063 131.855901 
L 190.076266 131.088225 
L 189.849123 130.026975 
L 190.0554 129.218794 
L 191.175432 128.225898 
L 191.583674 127.664372 
L 192.162131 127.241166 
L 192.404682 126.652489 
L 193.43466 125.366913 
L 193.799536 124.541182 
L 194.308194 123.844779 
L 194.497705 122.964025 
L 194.666063 122.899348 
L 194.893639 122.932427 
L 195.386787 122.211825 
L 196.573631 120.651124 
L 197.020902 120.555589 
L 197.424275 120.319588 
L 197.865592 118.924964 
L 198.973861 118.161369 
L 199.557941 118.309424 
L 200.790407 116.998004 
L 201.071151 116.822525 
L 202.348174 116.632763 
L 202.947343 116.405745 
L 206.606743 114.102156 
L 206.884507 113.520156 
L 207.279914 111.870742 
L 208.463136 110.54245 
L 209.377951 111.022444 
L 209.601669 111.342263 
L 210.187886 111.326589 
L 210.418533 111.177897 
L 210.259657 111.881592 
L 210.964405 112.561453 
L 212.039596 114.680177 
L 214.095776 115.853094 
L 215.811032 115.631316 
L 216.402309 115.254701 
L 216.665634 114.835501 
L 217.624131 114.404412 
L 218.14275 114.296048 
L 218.921393 113.609159 
L 220.116764 113.030424 
L 220.716806 112.422123 
L 221.498563 111.448653 
L 222.074212 110.301032 
L 222.740601 110.02308 
L 223.259622 109.43294 
L 223.631599 108.197543 
L 224.824807 105.191359 
L 225.438043 104.180153 
L 225.845699 102.949952 
L 227.685706 100.893847 
L 228.418949 100.18314 
L 228.534432 99.048646 
L 228.571749 97.570764 
L 229.301755 96.241364 
L 229.893016 94.700487 
L 230.1552 92.968953 
L 230.556321 91.995888 
L 230.607828 90.690036 
L 230.829061 89.987349 
L 230.742819 88.61903 
L 231.270811 82.749023 
L 231.626218 82.614152 
L 231.29798 82.553793 
L 231.110784 82.873612 
L 231.107452 82.645142 
L 231.195398 82.180143 
L 231.486894 82.147622 
L 231.905818 81.305501 
L 232.264725 81.041075 
L 232.144863 79.574747 
L 233.183571 78.091321 
L 233.2345 77.011177 
L 233.445004 75.525724 
L 233.85394 74.467928 
L 234.551241 74.458974 
L 235.034379 74.939741 
L 235.171882 73.576863 
L 236.573832 72.98225 
L 237.942984 71.357164 
L 238.642048 70.827022 
L 238.969158 70.279151 
L 239.936601 70.307367 
L 240.409329 69.965993 
L 241.366264 70.54628 
L 241.203724 71.32952 
L 240.795353 71.844019 
L 241.166247 71.639591 
L 241.238861 71.429966 
L 240.955863 71.720902 
L 241.209636 71.04258 
L 241.109814 70.242694 
L 241.448912 67.130018 
L 241.080928 66.143202 
L 241.122503 64.568112 
L 241.402406 63.822558 
L 241.507573 62.762944 
L 241.799466 62.229826 
L 242.235293 61.680145 
L 242.437132 61.081051 
L 242.54294 60.25921 
L 242.860289 59.252302 
L 243.698765 57.994793 
L 244.266979 57.648525 
L 244.979317 57.441273 
L 245.591422 57.437704 
L 246.768201 57.066541 
L 247.114662 57.326685 
L 247.678877 57.298052 
L 248.37539 55.862588 
L 249.078538 53.689619 
L 249.620601 52.952219 
L 250.340039 51.13818 
L 250.2468 50.755783 
L 250.752468 50.424656 
L 251.47133 49.646347 
L 252.222075 49.205793 
L 253.268064 49.195574 
L 254.679202 48.367228 
L 256.758519 48.051493 
L 257.974943 48.180468 
L 258.875746 47.65511 
L 260.356981 46.992805 
L 261.276301 46.178195 
L 262.332532 45.88335 
L 263.412735 45.894687 
L 264.063392 45.440805 
L 264.454794 44.69331 
L 265.238351 44.917365 
L 266.173474 44.455282 
L 267.402203 43.98012 
L 268.617622 43.270289 
L 269.836593 42.262299 
L 270.726135 42.235477 
L 271.624723 41.748667 
L 272.595097 41.596159 
L 273.844042 41.709273 
L 275.009494 42.537509 
L 277.390415 43.303225 
L 278.501175 43.497573 
L 279.84062 43.463088 
L 281.161499 43.164253 
L 282.850233 43.624355 
L 284.39286 43.84429 
L 286.520592 43.837897 
L 287.813183 44.177424 
L 289.141642 44.090672 
L 290.306446 44.390466 
L 292.02441 44.970639 
L 293.384541 45.924712 
L 294.636522 46.620454 
L 296.234271 47.180046 
L 297.176516 47.631007 
L 297.536777 48.266169 
L 298.59852 49.018883 
L 299.408404 50.147494 
L 299.85838 50.226414 
L 300.97356 50.161147 
L 303.111156 51.927246 
L 303.909918 52.870792 
L 305.061452 52.787686 
L 306.82494 53.717475 
L 307.982131 53.976464 
L 309.871189 54.13752 
L 311.167554 55.516875 
L 311.645484 55.549584 
L 312.635514 55.83114 
L 313.587459 55.740862 
L 314.34453 56.117294 
L 314.995337 56.183874 
L 315.324709 55.766472 
L 316.014384 55.861296 
L 316.788089 55.075757 
L 317.335829 54.626368 
L 318.308991 54.813492 
L 319.193301 55.49964 
L 319.450326 56.095753 
L 320.393074 56.517513 
L 321.076431 56.634295 
L 322.850155 56.461394 
L 323.695214 56.650207 
L 325.142727 57.263897 
L 325.49274 58.129854 
L 326.073581 58.924919 
L 326.076705 59.701701 
L 327.381788 61.945225 
L 327.281262 61.636553 
L 327.008142 62.619783 
L 327.785982 62.615109 
L 328.27042 62.15597 
L 328.286692 62.779757 
L 328.938561 63.931347 
L 329.385926 64.33804 
L 329.810345 65.179946 
L 330.398683 65.700367 
L 330.965164 65.895226 
L 331.910698 66.396095 
L 332.901858 66.378731 
L 333.352078 66.753447 
L 334.083855 66.969671 
L 335.450533 67.726852 
L 335.935799 68.071171 
L 336.915602 69.273022 
L 337.042041 70.410489 
L 337.590638 71.081103 
L 337.642922 71.988745 
L 337.428212 72.291777 
L 338.338167 73.230188 
L 338.988119 74.38772 
L 340.372286 76.106043 
L 340.75719 76.734323 
L 340.895102 77.792609 
L 341.631601 78.856644 
L 343.69099 80.569958 
L 344.777971 81.114715 
L 345.779911 82.226199 
L 346.511844 83.861824 
L 347.36012 85.124044 
L 349.275641 86.525723 
L 349.950754 87.537807 
L 350.490797 88.141552 
L 351.482431 88.154064 
L 353.095383 89.66044 
L 353.848578 90.559781 
L 354.220125 91.260361 
L 354.48005 91.3712 
L 355.124423 91.394031 
L 356.820371 93.155867 
L 358.860264 94.466991 
L 360.034506 96.171023 
L 360.406702 96.576699 
L 360.503181 97.688107 
L 361.386202 98.813647 
L 361.560136 100.046217 
L 362.254313 101.010468 
L 362.659142 102.159261 
L 364.184666 103.896525 
L 365.324989 106.111987 
L 366.056869 106.728033 
L 366.691851 107.940608 
L 366.622314 109.22392 
L 366.702338 110.34936 
L 366.536633 110.945527 
L 366.766324 112.976011 
L 367.259365 114.375769 
L 367.530472 115.714824 
L 368.701599 116.681837 
L 369.16832 117.353732 
L 369.323292 117.930363 
L 369.197551 118.265142 
L 369.274962 119.446072 
L 369.504388 119.726622 
L 370.00011 119.473284 
L 370.472313 119.993745 
L 370.545771 120.282983 
L 370.729914 120.527045 
L 371.086692 120.806299 
L 371.075011 121.501197 
L 370.837254 121.776076 
L 370.847574 122.875745 
L 370.310375 124.579641 
L 371.288886 125.568983 
L 371.164824 125.553376 
L 371.820224 125.614455 
L 372.243603 125.502584 
L 372.600716 125.554473 
L 372.962108 126.127901 
L 373.555083 126.338666 
L 373.906578 126.289029 
L 373.722506 126.596319 
L 373.96452 126.764577 
L 373.996366 127.281176 
L 373.876553 127.453878 
L 373.764592 127.866887 
L 373.953017 128.335906 
L 373.817961 129.632194 
L 373.903239 130.253209 
L 374.070286 130.180937 
L 374.496246 130.239665 
L 374.215409 129.876365 
L 373.913539 130.543362 
L 374.021749 131.216173 
L 374.387204 131.689676 
L 374.654943 132.477082 
L 375.009789 132.769216 
L 375.706403 134.182882 
L 376.412653 134.999823 
L 377.024985 137.451285 
L 377.137932 138.489044 
L 376.727217 139.882447 
L 376.734394 143.738021 
L 377.146395 144.79833 
L 377.192753 145.290872 
L 377.445549 145.956321 
L 377.791889 146.477403 
L 377.473871 148.106674 
L 377.904817 148.890089 
L 377.890166 150.196577 
L 378.410238 150.508012 
L 379.072299 151.234811 
L 379.929278 151.359308 
L 380.456761 152.954595 
L 381.220611 153.236429 
L 381.68189 153.076063 
L 381.993261 152.391906 
L 382.726293 152.079967 
L 382.955507 152.373205 
L 383.663339 152.895527 
L 383.951518 153.570239 
L 383.507054 152.387142 
L 383.98004 150.964609 
L 383.532522 150.996201 
L 382.413243 149.662748 
L 382.503158 150.032079 
L 382.844437 150.605741 
L 383.391149 150.019527 
L 383.80595 149.072549 
L 383.719868 148.25542 
L 383.979073 148.38788 
L 384.004309 148.171597 
L 383.841797 147.919735 
L 384.087302 147.310606 
L 385.261588 146.575682 
L 387.217078 146.188614 
L 388.918303 147.03271 
L 390.198486 147.132068 
L 391.336763 147.663671 
L 393.523641 147.868598 
L 393.944035 148.550874 
L 395.094966 149.484882 
L 396.414488 151.203795 
L 396.676596 152.195257 
L 397.166267 152.807625 
L 396.978263 154.444651 
L 397.457865 154.990545 
L 397.526881 155.75391 
L 397.359403 156.030663 
L 397.653871 156.975236 
L 397.753648 157.850234 
L 398.513081 158.823989 
L 398.834747 159.496269 
L 398.847532 160.340315 
L 398.497408 161.893705 
L 398.564439 162.884954 
L 398.30663 163.519463 
L 398.939522 164.095989 
L 399.740775 165.576195 
L 400.103844 166.059995 
L 400.78466 166.139849 
L 401.205729 166.521189 
L 401.650455 165.818635 
L 402.162062 165.341885 
L 402.926522 165.15113 
L 403.319037 164.9008 
L 403.805 164.243339 
L 404.124324 164.107395 
L 404.575653 164.330708 
L 405.127896 163.427086 
L 405.587757 163.004809 
L 406.313689 162.708426 
L 406.384208 162.278718 
L 406.545042 162.304593 
L 406.712167 161.288605 
L 407.06063 160.817609 
L 408.239124 159.824184 
L 408.400067 159.723669 
L 408.757733 159.080087 
L 408.78534 158.6063 
L 409.193432 159.019617 
L 409.778092 158.855845 
L 410.029587 158.942388 
L 410.40745 157.290376 
L 410.530934 154.634224 
L 410.755566 153.557981 
L 410.91033 151.768822 
L 410.664479 151.641391 
L 410.617164 150.775717 
L 410.294324 149.560023 
L 410.234758 148.015904 
L 410.633447 146.36912 
L 410.571277 145.879586 
L 410.653395 144.84776 
L 410.952369 144.569103 
L 413.566144 143.955089 
L 414.521482 143.622407 
L 415.450496 142.940023 
L 416.246103 141.715622 
L 417.203611 140.635761 
L 417.875169 139.5632 
L 418.449976 139.283261 
L 418.489535 138.010549 
L 418.33223 137.685925 
L 418.696768 137.400796 
L 419.184303 137.580041 
L 419.387614 137.368513 
L 419.062232 136.921369 
L 418.777641 134.683979 
L 418.438986 133.580309 
L 418.414315 133.003523 
L 417.87569 132.041788 
L 417.96629 132.187048 
L 417.900383 132.683415 
L 418.099436 132.713493 
L 418.3309 133.525037 
L 418.151336 134.604772 
L 417.953176 134.533454 
L 417.63642 134.717725 
L 417.768982 135.056601 
L 417.61634 134.967565 
L 417.699824 135.323431 
L 417.875539 135.312498 
L 418.158864 135.024917 
L 418.114116 135.155379 
L 418.142277 135.500113 
L 418.504632 135.556522 
L 418.331497 135.511001 
L 418.155993 136.204286 
L 418.070606 136.50358 
L 417.69072 136.135788 
L 417.925023 136.633941 
L 418.269844 136.994368 
L 418.265795 136.682635 
L 417.586809 136.510114 
L 417.586809 136.510114 
" clip-path="url(#p9427bba156)" style="fill: none; stroke: #1f77b4; stroke-width: 1.5; stroke-linecap: square"/>
   </g>
   <g id="patch_3">
    <path d="M 94.0475 266.245 
L 94.0475 30.898596 
" style="fill: none; stroke: #000000; stroke-width: 0.8; stroke-linejoin: miter; stroke-linecap: square"/>
   </g>
   <g id="patch_4">
    <path d="M 434.88 266.245 
L 434.88 30.898596 
" style="fill: none; stroke: #000000; stroke-width: 0.8; stroke-linejoin: miter; stroke-linecap: square"/>
   </g>
   <g id="patch_5">
    <path d="M 94.0475 266.245 
L 434.88 266.245 
" style="fill: none; stroke: #000000; stroke-width: 0.8; stroke-linejoin: miter; stroke-linecap: square"/>
   </g>
   <g id="patch_6">
    <path d="M 94.0475 30.898596 
L 434.88 30.898596 
" style="fill: none; stroke: #000000; stroke-width: 0.8; stroke-linejoin: miter; stroke-linecap: square"/>
   </g>
  </g>
 </g>
 <defs>
  <clipPath id="p9427bba156">
   <rect x="94.0475" y="30.898596" width="340.8325" height="235.346404"/>
  </clipPath>
 </defs>
</svg>
