<?xml version="1.0" encoding="utf-8" standalone="no"?>
<!DOCTYPE svg PUBLIC "-//W3C//DTD SVG 1.1//EN"
  "http://www.w3.org/Graphics/SVG/1.1/DTD/svg11.dtd">
<svg xmlns:xlink="http://www.w3.org/1999/xlink" width="460.8pt" height="345.6pt" viewBox="0 0 460.8 345.6" xmlns="http://www.w3.org/2000/svg" version="1.1">
 <metadata>
  <rdf:RDF xmlns:dc="http://purl.org/dc/elements/1.1/" xmlns:cc="http://creativecommons.org/ns#" xmlns:rdf="http://www.w3.org/1999/02/22-rdf-syntax-ns#">
   <cc:Work>
    <dc:type rdf:resource="http://purl.org/dc/dcmitype/StillImage"/>
    <dc:date>2026-01-29T08:00:37.457951</dc:date>
    <dc:format>image/svg+xml</dc:format>
    <dc:creator>
     <cc:Agent>
      <dc:title>Matplotlib v3.10.8, https://matplotlib.org/</dc:title>
     </cc:Agent>
    </dc:creator>
   </cc:Work>
  </rdf:RDF>
 </metadata>
 <defs>
  <style type="text/css">*{stroke-linejoin: round; stroke-linecap: butt}</style>
 </defs>
 <g id="figure_1">
  <g id="patch_1">
   <path d="M 0 345.6 
L 460.8 345.6 
L 460.8 0 
L 0 0 
z
" style="fill: #ffffff"/>
  </g>
  <g id="axes_1">
   <g id="patch_2">
    <path d="M 95.5775 266.245 
L 426.847748 266.245 
L 426.847748 25.92 
L 95.5775 25.92 
z
" style="fill: #ffffff"/>
   </g>
   <g id="matplotlib.axis_1">
    <g id="xtick_1">
     <g id="line2d_1">
      <path d="M 110.635239 266.245 
L 110.635239 25.92 
" clip-path="url(#p07493ab333)" style="fill: none; stroke: #b0b0b0; stroke-width: 0.8; stroke-linecap: square"/>
     </g>
     <g id="line2d_2">
      <defs>
       <path id="m0a2d6e2563" d="M 0 0 
L 0 3.5 
" style="stroke: #000000; stroke-width: 0.8"/>
      </defs>
      <g>
       <use xlink:href="#m0a2d6e2563" x="110.635239" y="266.245" style="stroke: #000000; stroke-width: 0.8"/>
      </g>
     </g>
     <g id="text_1">
      <!-- 0 -->
      <g transform="translate(104.635239 289.63625) scale(0.24 -0.24)">
       <defs>
        <path id="TeXGyreTermes-Regular-30" d="M 3046 2112 
C 3046 3424 2464 4326 1626 4326 
C 1274 4326 1005 4218 768 3994 
C 397 3635 154 2899 154 2150 
C 154 1453 365 704 666 346 
C 902 64 1229 -90 1600 -90 
C 1926 -90 2202 19 2432 243 
C 2803 595 3046 1338 3046 2112 
z
M 2432 2099 
C 2432 762 2150 77 1600 77 
C 1050 77 768 762 768 2093 
C 768 3450 1056 4160 1606 4160 
C 2144 4160 2432 3437 2432 2099 
z
" transform="scale(0.015625)"/>
       </defs>
       <use xlink:href="#TeXGyreTermes-Regular-30"/>
      </g>
     </g>
    </g>
    <g id="xtick_2">
     <g id="line2d_3">
      <path d="M 261.363352 266.245 
L 261.363352 25.92 
" clip-path="url(#p07493ab333)" style="fill: none; stroke: #b0b0b0; stroke-width: 0.8; stroke-linecap: square"/>
     </g>
     <g id="line2d_4">
      <g>
       <use xlink:href="#m0a2d6e2563" x="261.363352" y="266.245" style="stroke: #000000; stroke-width: 0.8"/>
      </g>
     </g>
     <g id="text_2">
      <!-- 500 -->
      <g transform="translate(243.363352 289.63625) scale(0.24 -0.24)">
       <defs>
        <path id="TeXGyreTermes-Regular-35" d="M 2803 4358 
L 2746 4403 
C 2650 4269 2586 4237 2451 4237 
L 1114 4237 
L 416 2720 
C 410 2707 410 2688 410 2688 
C 410 2656 435 2637 486 2637 
C 691 2637 947 2592 1210 2509 
C 1946 2272 2285 1875 2285 1242 
C 2285 627 1894 147 1395 147 
C 1267 147 1158 192 966 333 
C 762 480 614 544 480 544 
C 294 544 205 467 205 307 
C 205 64 506 -90 986 -90 
C 1523 -90 1984 83 2304 410 
C 2598 698 2733 1062 2733 1549 
C 2733 2010 2611 2304 2291 2624 
C 2010 2906 1645 3053 890 3187 
L 1158 3731 
L 2413 3731 
C 2515 3731 2541 3744 2560 3789 
L 2803 4358 
z
" transform="scale(0.015625)"/>
       </defs>
       <use xlink:href="#TeXGyreTermes-Regular-35"/>
       <use xlink:href="#TeXGyreTermes-Regular-30" transform="translate(49.999985 0)"/>
       <use xlink:href="#TeXGyreTermes-Regular-30" transform="translate(99.999969 0)"/>
      </g>
     </g>
    </g>
    <g id="xtick_3">
     <g id="line2d_5">
      <path d="M 412.091465 266.245 
L 412.091465 25.92 
" clip-path="url(#p07493ab333)" style="fill: none; stroke: #b0b0b0; stroke-width: 0.8; stroke-linecap: square"/>
     </g>
     <g id="line2d_6">
      <g>
       <use xlink:href="#m0a2d6e2563" x="412.091465" y="266.245" style="stroke: #000000; stroke-width: 0.8"/>
      </g>
     </g>
     <g id="text_3">
      <!-- 1000 -->
      <g transform="translate(388.091465 289.63625) scale(0.24 -0.24)">
       <defs>
        <path id="TeXGyreTermes-Regular-31" d="M 2522 0 
L 2522 96 
C 2016 102 1914 166 1914 474 
L 1914 4314 
L 1862 4326 
L 710 3744 
L 710 3654 
C 787 3686 858 3712 883 3725 
C 998 3770 1107 3795 1171 3795 
C 1306 3795 1363 3699 1363 3494 
L 1363 595 
C 1363 384 1312 237 1210 179 
C 1114 122 1024 102 755 96 
L 755 0 
L 2522 0 
z
" transform="scale(0.015625)"/>
       </defs>
       <use xlink:href="#TeXGyreTermes-Regular-31"/>
       <use xlink:href="#TeXGyreTermes-Regular-30" transform="translate(49.999985 0)"/>
       <use xlink:href="#TeXGyreTermes-Regular-30" transform="translate(99.999969 0)"/>
       <use xlink:href="#TeXGyreTermes-Regular-30" transform="translate(149.999954 0)"/>
      </g>
     </g>
    </g>
    <g id="text_4">
     <!-- Schritt k -->
     <g transform="translate(220.210124 315.23625) scale(0.24 -0.24)">
      <defs>
       <path id="TeXGyreTermes-Regular-53" d="M 3142 1075 
C 3142 1606 2790 2016 1946 2477 
C 1274 2842 1005 3123 1005 3475 
C 1005 3827 1274 4064 1670 4064 
C 1958 4064 2227 3942 2451 3712 
C 2650 3507 2739 3341 2842 2963 
L 3002 2963 
L 2861 4326 
L 2726 4326 
C 2701 4186 2630 4109 2522 4109 
C 2458 4109 2355 4134 2240 4186 
C 2003 4275 1773 4326 1549 4326 
C 1299 4326 1030 4224 826 4058 
C 576 3853 454 3578 454 3226 
C 454 2720 736 2362 1453 1984 
C 1914 1734 2246 1478 2406 1235 
C 2464 1146 2496 1018 2496 858 
C 2496 435 2176 141 1709 141 
C 1133 141 736 493 416 1274 
L 269 1274 
L 461 -83 
L 602 -83 
C 608 38 685 128 781 128 
C 851 128 960 102 1082 58 
C 1325 -38 1581 -90 1837 -90 
C 2579 -90 3142 416 3142 1075 
z
" transform="scale(0.015625)"/>
       <path id="TeXGyreTermes-Regular-63" d="M 2637 941 
L 2547 998 
C 2240 550 2010 397 1645 397 
C 1056 397 653 909 653 1645 
C 653 2310 1005 2758 1523 2758 
C 1754 2758 1837 2688 1901 2451 
L 1939 2310 
C 1990 2125 2106 2016 2246 2016 
C 2413 2016 2547 2138 2547 2285 
C 2547 2643 2099 2944 1562 2944 
C 1261 2944 954 2829 698 2618 
C 352 2330 160 1888 160 1357 
C 160 531 666 -64 1376 -64 
C 1651 -64 1894 26 2112 205 
C 2304 358 2432 544 2637 941 
z
" transform="scale(0.015625)"/>
       <path id="TeXGyreTermes-Regular-68" d="M 3117 0 
L 3117 96 
C 2771 160 2733 211 2733 653 
L 2733 1926 
C 2733 2598 2464 2944 1946 2944 
C 1568 2944 1299 2790 1005 2406 
L 1005 4352 
L 973 4371 
C 755 4294 595 4243 237 4141 
L 64 4090 
L 64 3987 
C 90 3994 109 3994 141 3994 
C 416 3994 467 3942 467 3667 
L 467 653 
C 467 205 429 147 58 96 
L 58 0 
L 1440 0 
L 1440 96 
C 1069 134 1005 211 1005 653 
L 1005 2195 
C 1274 2490 1466 2598 1715 2598 
C 2035 2598 2195 2368 2195 1920 
L 2195 653 
C 2195 218 2131 134 1760 96 
L 1760 0 
L 3117 0 
z
" transform="scale(0.015625)"/>
       <path id="TeXGyreTermes-Regular-72" d="M 2144 2605 
C 2144 2816 2010 2944 1792 2944 
C 1523 2944 1338 2797 1024 2342 
L 1024 2931 
L 992 2944 
C 653 2803 422 2720 45 2598 
L 45 2496 
C 134 2515 192 2522 269 2522 
C 429 2522 486 2419 486 2138 
L 486 538 
C 486 218 442 173 32 96 
L 32 0 
L 1568 0 
L 1568 96 
C 1133 115 1024 211 1024 576 
L 1024 2016 
C 1024 2221 1299 2541 1472 2541 
C 1510 2541 1568 2509 1638 2445 
C 1741 2355 1811 2317 1894 2317 
C 2048 2317 2144 2426 2144 2605 
z
" transform="scale(0.015625)"/>
       <path id="TeXGyreTermes-Regular-69" d="M 1619 0 
L 1619 96 
C 1197 128 1146 192 1146 653 
L 1146 2925 
L 1120 2944 
L 128 2592 
L 128 2496 
L 179 2502 
C 256 2515 339 2522 397 2522 
C 550 2522 608 2419 608 2138 
L 608 653 
C 608 192 544 122 102 96 
L 102 0 
L 1619 0 
z
M 1203 3776 
C 1203 3955 1062 4102 877 4102 
C 698 4102 550 3955 550 3776 
C 550 3590 698 3450 877 3450 
C 1062 3450 1203 3590 1203 3776 
z
" transform="scale(0.015625)"/>
       <path id="TeXGyreTermes-Regular-74" d="M 1786 422 
L 1702 493 
C 1562 326 1459 269 1318 269 
C 1082 269 986 435 986 845 
L 986 2675 
L 1632 2675 
L 1632 2880 
L 986 2880 
L 986 3622 
C 986 3686 973 3706 941 3706 
C 902 3642 858 3584 813 3526 
C 576 3174 358 2938 192 2842 
C 122 2797 83 2758 83 2720 
C 83 2701 90 2688 109 2675 
L 448 2675 
L 448 749 
C 448 211 640 -64 1011 -64 
C 1331 -64 1574 90 1786 422 
z
" transform="scale(0.015625)"/>
       <path id="TeXGyreTermes-Regular-20" transform="scale(0.015625)"/>
       <path id="TeXGyreTermes-Regular-6b" d="M 3232 0 
L 3232 96 
C 2950 115 2752 237 2483 563 
L 1504 1805 
L 1690 1978 
C 2144 2400 2541 2694 2726 2746 
C 2822 2771 2912 2784 3021 2784 
L 3072 2784 
L 3072 2880 
L 1766 2880 
L 1766 2790 
C 2016 2784 2086 2758 2086 2669 
C 2086 2618 2029 2528 1939 2451 
L 1062 1670 
L 1062 4358 
L 1037 4371 
L 237 4141 
L 45 4090 
L 45 3987 
C 128 3994 186 4000 250 4000 
C 461 4000 525 3917 525 3610 
L 525 525 
C 525 192 506 173 45 96 
L 45 0 
L 1542 0 
L 1542 96 
L 1414 102 
C 1158 115 1062 205 1062 429 
L 1062 1606 
L 1958 410 
L 1978 384 
C 1990 365 2003 346 2022 326 
C 2074 262 2093 224 2093 192 
C 2093 134 2035 96 1958 96 
L 1837 96 
L 1837 0 
L 3232 0 
z
" transform="scale(0.015625)"/>
      </defs>
      <use xlink:href="#TeXGyreTermes-Regular-53"/>
      <use xlink:href="#TeXGyreTermes-Regular-63" transform="translate(55.599991 0)"/>
      <use xlink:href="#TeXGyreTermes-Regular-68" transform="translate(99.999985 0)"/>
      <use xlink:href="#TeXGyreTermes-Regular-72" transform="translate(149.999969 0)"/>
      <use xlink:href="#TeXGyreTermes-Regular-69" transform="translate(183.299957 0)"/>
      <use xlink:href="#TeXGyreTermes-Regular-74" transform="translate(211.099945 0)"/>
      <use xlink:href="#TeXGyreTermes-Regular-74" transform="translate(238.899933 0)"/>
      <use xlink:href="#TeXGyreTermes-Regular-20" transform="translate(266.699921 0)"/>
      <use xlink:href="#TeXGyreTermes-Regular-6b" transform="translate(291.699905 0)"/>
     </g>
    </g>
   </g>
   <g id="matplotlib.axis_2">
    <g id="ytick_1">
     <g id="line2d_7">
      <path d="M 95.5775 255.160093 
L 426.847748 255.160093 
" clip-path="url(#p07493ab333)" style="fill: none; stroke: #b0b0b0; stroke-width: 0.8; stroke-linecap: square"/>
     </g>
     <g id="line2d_8">
      <defs>
       <path id="m10e9824e77" d="M 0 0 
L -3.5 0 
" style="stroke: #000000; stroke-width: 0.8"/>
      </defs>
      <g>
       <use xlink:href="#m10e9824e77" x="95.5775" y="255.160093" style="stroke: #000000; stroke-width: 0.8"/>
      </g>
     </g>
     <g id="text_5">
      <!-- −10 -->
      <g transform="translate(51.04 263.355718) scale(0.24 -0.24)">
       <defs>
        <path id="TeXGyreTermes-Regular-2212" d="M 3354 1389 
L 3354 1811 
L 256 1811 
L 256 1389 
L 3354 1389 
z
" transform="scale(0.015625)"/>
       </defs>
       <use xlink:href="#TeXGyreTermes-Regular-2212"/>
       <use xlink:href="#TeXGyreTermes-Regular-31" transform="translate(56.399994 0)"/>
       <use xlink:href="#TeXGyreTermes-Regular-30" transform="translate(106.399979 0)"/>
      </g>
     </g>
    </g>
    <g id="ytick_2">
     <g id="line2d_9">
      <path d="M 95.5775 162.251715 
L 426.847748 162.251715 
" clip-path="url(#p07493ab333)" style="fill: none; stroke: #b0b0b0; stroke-width: 0.8; stroke-linecap: square"/>
     </g>
     <g id="line2d_10">
      <g>
       <use xlink:href="#m10e9824e77" x="95.5775" y="162.251715" style="stroke: #000000; stroke-width: 0.8"/>
      </g>
     </g>
     <g id="text_6">
      <!-- 0 -->
      <g transform="translate(76.5775 170.44734) scale(0.24 -0.24)">
       <use xlink:href="#TeXGyreTermes-Regular-30"/>
      </g>
     </g>
    </g>
    <g id="ytick_3">
     <g id="line2d_11">
      <path d="M 95.5775 69.343337 
L 426.847748 69.343337 
" clip-path="url(#p07493ab333)" style="fill: none; stroke: #b0b0b0; stroke-width: 0.8; stroke-linecap: square"/>
     </g>
     <g id="line2d_12">
      <g>
       <use xlink:href="#m10e9824e77" x="95.5775" y="69.343337" style="stroke: #000000; stroke-width: 0.8"/>
      </g>
     </g>
     <g id="text_7">
      <!-- 10 -->
      <g transform="translate(64.5775 77.538962) scale(0.24 -0.24)">
       <use xlink:href="#TeXGyreTermes-Regular-31"/>
       <use xlink:href="#TeXGyreTermes-Regular-30" transform="translate(49.999985 0)"/>
      </g>
     </g>
    </g>
    <g id="text_8">
     <!-- x(k) -->
     <g transform="translate(41.83125 166.07375) rotate(-90) scale(0.24 -0.24)">
      <defs>
       <path id="TeXGyreTermes-Regular-78" d="M 3066 0 
L 3066 96 
C 2867 96 2739 198 2541 480 
L 1722 1734 
L 2253 2502 
C 2374 2675 2566 2778 2771 2784 
L 2771 2880 
L 1760 2880 
L 1760 2784 
C 1952 2771 2016 2733 2016 2643 
C 2016 2566 1939 2426 1779 2227 
C 1747 2189 1670 2074 1587 1946 
L 1498 2074 
C 1318 2342 1203 2560 1203 2643 
C 1203 2733 1286 2778 1478 2784 
L 1478 2880 
L 154 2880 
L 154 2784 
L 211 2784 
C 403 2784 506 2701 704 2400 
L 1306 1478 
L 576 422 
C 384 160 320 115 109 96 
L 109 0 
L 1037 0 
L 1037 96 
C 858 96 781 128 781 211 
C 781 250 826 346 909 474 
L 1414 1261 
L 1997 365 
C 2022 326 2035 288 2035 250 
C 2035 134 1990 109 1779 96 
L 1779 0 
L 3066 0 
z
" transform="scale(0.015625)"/>
       <path id="TeXGyreTermes-Regular-28" d="M 1946 -1030 
C 1434 -627 1254 -403 1082 77 
C 928 506 858 992 858 1632 
C 858 2304 941 2829 1114 3226 
C 1293 3622 1485 3853 1946 4224 
L 1888 4326 
C 1414 4019 1222 3853 986 3558 
C 531 3002 307 2362 307 1613 
C 307 800 544 173 1107 -480 
C 1370 -787 1536 -928 1869 -1133 
L 1946 -1030 
z
" transform="scale(0.015625)"/>
       <path id="TeXGyreTermes-Regular-29" d="M 1824 1581 
C 1824 2400 1587 3021 1024 3674 
C 762 3981 595 4122 262 4326 
L 186 4224 
C 698 3821 870 3597 1050 3117 
C 1203 2688 1274 2202 1274 1562 
C 1274 896 1190 365 1018 -26 
C 838 -429 646 -659 186 -1030 
L 243 -1133 
C 717 -826 909 -659 1146 -365 
C 1600 192 1824 832 1824 1581 
z
" transform="scale(0.015625)"/>
      </defs>
      <use xlink:href="#TeXGyreTermes-Regular-78"/>
      <use xlink:href="#TeXGyreTermes-Regular-28" transform="translate(49.999985 0)"/>
      <use xlink:href="#TeXGyreTermes-Regular-6b" transform="translate(83.299973 0)"/>
      <use xlink:href="#TeXGyreTermes-Regular-29" transform="translate(133.299957 0)"/>
     </g>
    </g>
   </g>
   <g id="line2d_13">
    <path d="M 110.635239 174.41283 
L 111.238151 155.391889 
L 111.539607 163.313146 
L 111.841063 154.472344 
L 112.14252 158.453038 
L 112.443976 176.780059 
L 112.745432 176.123781 
L 113.046888 183.501165 
L 113.348345 184.281053 
L 114.252713 203.303037 
L 114.554169 194.907961 
L 114.855626 202.536097 
L 115.157082 202.316754 
L 115.458538 184.994916 
L 115.759994 191.830101 
L 116.061451 183.211648 
L 116.664363 175.992131 
L 117.267276 179.080497 
L 117.568732 182.352315 
L 117.870188 183.202148 
L 118.171644 187.319154 
L 118.4731 187.276442 
L 118.774557 188.720686 
L 119.076013 176.031054 
L 119.377469 180.874227 
L 119.678925 174.625132 
L 119.980382 165.52147 
L 120.281838 165.686452 
L 120.583294 170.808219 
L 120.88475 173.915774 
L 121.186206 183.599391 
L 121.487663 184.689643 
L 122.090575 153.141478 
L 122.693488 161.089392 
L 122.994944 174.934215 
L 123.2964 170.232524 
L 123.597856 174.924923 
L 123.899313 163.179472 
L 124.200769 173.887128 
L 124.502225 177.228981 
L 124.803681 178.519915 
L 125.105137 182.726573 
L 126.009506 211.4494 
L 126.310962 206.121992 
L 126.612419 205.548687 
L 126.913875 229.164789 
L 127.215331 229.396357 
L 127.516787 212.669884 
L 127.818243 220.688521 
L 128.1197 231.871017 
L 128.421156 230.341397 
L 128.722612 211.562362 
L 129.024068 206.030424 
L 129.626981 188.39561 
L 129.928437 196.329569 
L 130.229893 188.47306 
L 130.53135 183.912047 
L 130.832806 189.088658 
L 131.134262 190.475201 
L 131.435718 187.455515 
L 131.737174 180.391694 
L 132.038631 178.791715 
L 132.340087 184.359282 
L 132.641543 165.610455 
L 132.942999 183.417388 
L 133.244456 180.990185 
L 133.545912 187.054481 
L 133.847368 188.34516 
L 134.148824 172.579234 
L 134.45028 185.844325 
L 134.751737 173.314965 
L 135.053193 182.665859 
L 135.354649 182.836218 
L 135.656105 168.652417 
L 135.957562 182.122021 
L 136.259018 155.986739 
L 136.86193 138.194125 
L 137.163387 146.664312 
L 137.464843 135.376428 
L 137.766299 140.88845 
L 138.369211 172.32337 
L 138.670668 161.565842 
L 138.972124 164.093625 
L 139.27358 165.33932 
L 139.575036 171.517121 
L 140.177949 134.79907 
L 140.479405 143.388779 
L 140.780861 143.319038 
L 141.082317 155.067619 
L 141.383774 156.506874 
L 141.68523 133.503184 
L 141.986686 127.521983 
L 142.589599 169.662126 
L 142.891055 162.414688 
L 143.192511 148.145452 
L 143.493967 162.530666 
L 143.795423 133.404391 
L 144.09688 134.617976 
L 144.398336 138.935144 
L 144.699792 140.883105 
L 145.001248 140.61319 
L 145.302705 138.090268 
L 145.604161 153.80916 
L 146.207073 162.912167 
L 146.50853 146.650246 
L 146.809986 155.637323 
L 147.111442 157.78598 
L 147.714354 142.641774 
L 148.015811 140.173115 
L 148.317267 141.388089 
L 148.618723 145.041157 
L 148.920179 141.235456 
L 149.221636 129.861218 
L 149.523092 129.685329 
L 149.824548 136.08168 
L 150.126004 133.884904 
L 150.42746 134.147999 
L 150.728917 151.329014 
L 151.030373 154.628829 
L 151.331829 146.67476 
L 151.633285 152.538252 
L 151.934742 145.740633 
L 152.236198 131.007875 
L 152.537654 132.030858 
L 152.83911 123.36117 
L 153.140567 119.553853 
L 153.442023 113.815527 
L 154.044935 141.483894 
L 154.346391 142.714827 
L 154.647848 138.708548 
L 154.949304 142.593426 
L 155.25076 166.031607 
L 155.552216 147.774954 
L 156.155129 168.845647 
L 156.456585 178.656012 
L 156.758041 182.486462 
L 157.059497 163.049685 
L 157.66241 173.935071 
L 158.265322 164.794178 
L 158.566779 154.032175 
L 158.868235 153.330829 
L 159.169691 152.291104 
L 159.471147 155.910321 
L 159.772604 148.906842 
L 160.07406 145.627652 
L 160.676972 161.60165 
L 160.978428 148.803708 
L 161.279885 146.681795 
L 161.581341 146.706515 
L 162.184253 140.942238 
L 162.48571 132.227415 
L 162.787166 131.424479 
L 163.088622 131.551458 
L 163.390078 139.739071 
L 163.691534 142.281889 
L 163.992991 139.498478 
L 164.294447 129.622632 
L 164.595903 134.372882 
L 164.897359 129.58605 
L 165.198816 119.156915 
L 165.500272 124.053971 
L 165.801728 122.136334 
L 166.103184 121.247229 
L 166.404641 114.828975 
L 166.706097 117.436442 
L 167.007553 116.167494 
L 167.309009 126.50106 
L 167.610465 128.29595 
L 167.911922 131.007076 
L 168.213378 139.076191 
L 168.514834 119.940291 
L 168.81629 128.969001 
L 169.117747 125.581078 
L 169.419203 113.536774 
L 169.720659 110.147679 
L 170.022115 118.333778 
L 170.323571 144.762104 
L 170.625028 140.482719 
L 170.926484 146.6182 
L 171.529396 138.436724 
L 172.132309 143.460101 
L 172.433765 141.230424 
L 172.735221 134.519821 
L 173.036678 131.392269 
L 173.63959 137.83533 
L 173.941046 130.458976 
L 174.242502 131.845229 
L 174.543959 139.143198 
L 174.845415 133.321185 
L 175.146871 136.939208 
L 175.448327 119.401328 
L 175.749784 126.093951 
L 176.05124 139.084775 
L 176.352696 128.465969 
L 176.654152 127.827874 
L 176.955608 137.587533 
L 177.257065 120.603449 
L 177.558521 118.255111 
L 177.859977 104.479896 
L 178.161433 108.732648 
L 178.764346 134.768194 
L 179.065802 120.284816 
L 179.367258 140.265761 
L 179.668714 135.849947 
L 179.970171 127.08018 
L 180.271627 133.034633 
L 180.573083 119.390469 
L 180.874539 131.435551 
L 181.175996 134.600989 
L 181.477452 132.508425 
L 181.778908 144.95562 
L 182.080364 149.293616 
L 182.381821 136.191734 
L 182.683277 138.657802 
L 182.984733 146.484107 
L 183.286189 157.793783 
L 183.587645 176.136525 
L 183.889102 175.005651 
L 184.190558 175.457357 
L 184.492014 177.649143 
L 184.79347 171.981198 
L 185.094927 187.86252 
L 185.396383 173.971556 
L 185.697839 170.853571 
L 185.999295 172.481773 
L 186.300751 179.711358 
L 186.903664 160.279274 
L 187.20512 171.770004 
L 187.506576 165.888479 
L 187.808033 167.818782 
L 188.109489 166.311628 
L 189.013858 149.155297 
L 189.315314 139.999527 
L 189.61677 145.334041 
L 190.521139 121.349967 
L 190.822595 137.705423 
L 191.124051 136.338429 
L 191.425507 132.874253 
L 191.726964 137.531764 
L 192.329876 112.414498 
L 192.631332 123.414605 
L 193.234245 113.338485 
L 194.138613 148.338128 
L 194.44007 130.779997 
L 194.741526 132.565068 
L 195.042982 146.755479 
L 195.344438 123.757115 
L 195.645895 111.139743 
L 196.248807 140.275549 
L 196.550263 146.000231 
L 196.851719 138.62966 
L 197.153176 136.897451 
L 197.454632 139.600262 
L 197.756088 146.880518 
L 198.057544 149.25137 
L 198.359001 142.699682 
L 198.660457 140.024107 
L 199.263369 149.947143 
L 199.564825 134.821147 
L 199.866282 133.13586 
L 200.167738 154.048677 
L 200.469194 138.954197 
L 200.77065 137.57362 
L 201.072107 132.86934 
L 201.373563 134.950586 
L 201.675019 147.551804 
L 201.976475 141.943744 
L 202.277932 126.813977 
L 202.579388 132.085387 
L 202.880844 148.245507 
L 203.1823 122.814751 
L 203.483756 107.943115 
L 203.785213 103.700396 
L 204.086669 113.327575 
L 204.388125 113.545486 
L 204.689581 123.488276 
L 205.292494 111.120299 
L 205.59395 113.260048 
L 205.895406 113.565077 
L 206.196862 136.406907 
L 206.498319 132.793215 
L 206.799775 126.907727 
L 207.101231 110.584627 
L 207.402687 139.910283 
L 207.704144 124.598804 
L 208.0056 130.162574 
L 208.608512 133.260949 
L 208.909969 131.421319 
L 209.211425 140.373182 
L 209.512881 134.045304 
L 209.814337 109.874419 
L 210.115793 114.119352 
L 210.41725 133.799017 
L 210.718706 137.297721 
L 211.020162 135.043987 
L 211.321618 143.066651 
L 211.623075 121.361248 
L 212.225987 140.500111 
L 212.527443 139.158435 
L 212.828899 146.062545 
L 213.130356 140.445876 
L 213.733268 116.356623 
L 214.336181 143.84077 
L 214.637637 129.452281 
L 214.939093 122.329055 
L 215.240549 118.410553 
L 215.542005 110.097599 
L 216.144918 129.244726 
L 216.446374 126.295376 
L 216.74783 128.258035 
L 217.049287 122.986386 
L 217.350743 131.274599 
L 217.652199 131.858337 
L 217.953655 140.110854 
L 218.255112 134.432679 
L 218.556568 146.845557 
L 218.858024 153.338526 
L 219.15948 146.625627 
L 219.460936 134.144371 
L 219.762393 127.403532 
L 220.365305 126.551473 
L 220.666761 148.405819 
L 220.968218 136.77358 
L 221.269674 146.517658 
L 221.57113 140.909263 
L 221.872586 146.059684 
L 222.174042 140.362638 
L 222.475499 154.306931 
L 223.078411 127.604682 
L 223.379867 124.093718 
L 223.681324 134.524006 
L 223.98278 127.185508 
L 224.284236 125.550095 
L 224.585692 110.940781 
L 224.887149 117.218771 
L 225.188605 117.186593 
L 226.092973 167.447902 
L 226.39443 168.093352 
L 226.695886 146.960237 
L 226.997342 135.484112 
L 227.298798 152.083585 
L 227.600255 155.898943 
L 228.203167 122.422474 
L 228.504623 118.978255 
L 228.806079 142.965301 
L 229.107536 151.685348 
L 229.408992 136.744398 
L 229.710448 142.590926 
L 230.011904 140.979268 
L 230.313361 146.912941 
L 230.614817 146.58174 
L 230.916273 140.374358 
L 231.217729 140.468997 
L 231.519186 133.50009 
L 231.820642 118.003317 
L 232.122098 133.42054 
L 232.423554 125.887914 
L 232.72501 122.453536 
L 233.026467 128.251888 
L 233.327923 118.12263 
L 233.629379 114.226129 
L 233.930835 118.371559 
L 234.232292 131.40438 
L 234.533748 118.782562 
L 234.835204 121.189445 
L 235.13666 110.982262 
L 235.438116 122.544195 
L 235.739573 119.170437 
L 236.041029 118.673333 
L 236.643941 138.242287 
L 236.945398 143.105222 
L 237.246854 134.335885 
L 237.54831 160.866158 
L 238.151223 138.743553 
L 238.452679 139.656274 
L 238.754135 127.980788 
L 239.055591 106.532865 
L 239.357047 131.5573 
L 239.658504 131.744443 
L 239.95996 121.46295 
L 240.261416 125.251898 
L 240.562872 127.42343 
L 240.864329 131.86562 
L 241.165785 124.661646 
L 241.768697 149.668064 
L 242.070153 138.854126 
L 242.37161 123.716513 
L 242.673066 123.704877 
L 242.974522 125.811752 
L 243.275978 119.742162 
L 243.577435 129.654584 
L 243.878891 122.379892 
L 244.180347 120.059517 
L 244.481803 124.671383 
L 244.78326 120.312913 
L 245.084716 130.395621 
L 245.386172 133.235404 
L 245.687628 132.561402 
L 245.989084 129.738143 
L 246.290541 134.552012 
L 246.591997 125.488754 
L 246.893453 124.264566 
L 247.194909 129.53948 
L 247.496366 124.369852 
L 247.797822 124.850494 
L 248.099278 123.286139 
L 248.400734 117.882821 
L 248.70219 118.132097 
L 249.003647 115.546878 
L 249.305103 111.871088 
L 249.606559 113.448123 
L 249.908015 123.273056 
L 250.209472 121.645105 
L 250.510928 104.550659 
L 250.812384 110.469744 
L 251.11384 104.935868 
L 251.415296 107.913138 
L 251.716753 99.115361 
L 252.018209 104.833682 
L 252.319665 100.667861 
L 252.621121 116.466374 
L 253.224034 126.359519 
L 253.826946 120.163566 
L 254.128403 117.638739 
L 254.429859 101.310886 
L 254.731315 121.058413 
L 255.032771 111.805273 
L 255.334227 122.766341 
L 255.635684 138.6156 
L 255.93714 125.367941 
L 256.238596 124.470981 
L 256.540052 127.43235 
L 256.841509 118.724123 
L 257.142965 124.561041 
L 257.444421 85.931373 
L 257.745877 105.069797 
L 258.047333 95.19454 
L 258.34879 98.177084 
L 258.650246 104.092831 
L 258.951702 116.403153 
L 259.253158 95.424643 
L 259.554615 106.543813 
L 259.856071 98.890802 
L 260.157527 82.742221 
L 260.458983 98.709773 
L 260.76044 94.443884 
L 261.061896 100.823977 
L 261.363352 98.868982 
L 261.966264 110.024881 
L 262.267721 106.818498 
L 262.569177 108.211439 
L 262.870633 118.51723 
L 263.172089 106.813446 
L 263.473546 112.147435 
L 263.775002 91.344517 
L 264.076458 94.306841 
L 264.377914 95.870629 
L 264.67937 117.005999 
L 264.980827 124.645974 
L 265.282283 104.182993 
L 265.583739 105.516482 
L 265.885195 116.370668 
L 266.186652 113.976932 
L 266.488108 126.381162 
L 266.789564 123.860389 
L 267.09102 135.283836 
L 267.392477 129.836419 
L 267.693933 131.808934 
L 267.995389 127.361241 
L 268.296845 137.673871 
L 268.598301 126.664367 
L 269.201214 151.230059 
L 269.50267 150.739767 
L 270.105583 142.234156 
L 270.407039 146.31736 
L 270.708495 137.607501 
L 271.009951 143.932565 
L 271.311407 131.68425 
L 271.612864 131.192871 
L 271.91432 144.883682 
L 272.215776 147.729085 
L 272.517232 126.984928 
L 272.818689 127.600362 
L 273.120145 140.215103 
L 273.421601 137.20689 
L 273.723057 130.373109 
L 274.024514 118.812009 
L 274.32597 122.864295 
L 274.627426 138.233134 
L 274.928882 139.094538 
L 275.230338 120.727271 
L 275.531795 114.973251 
L 275.833251 118.80459 
L 276.134707 108.490412 
L 276.436163 110.061276 
L 276.73762 122.10126 
L 277.039076 115.320914 
L 277.340532 121.651771 
L 277.641988 119.557869 
L 277.943444 118.474775 
L 278.244901 119.618887 
L 278.847813 155.323051 
L 279.149269 133.801138 
L 279.450726 141.279888 
L 279.752182 155.057956 
L 280.053638 145.500195 
L 280.355094 143.714487 
L 280.656551 151.959865 
L 280.958007 148.170231 
L 281.560919 145.513072 
L 281.862375 163.30902 
L 282.163832 154.86353 
L 282.465288 153.50881 
L 282.766744 145.014204 
L 283.0682 149.180596 
L 283.671113 136.853251 
L 284.274025 147.027051 
L 284.575481 140.811302 
L 284.876938 121.576689 
L 285.178394 125.817781 
L 285.47985 119.904611 
L 285.781306 121.160191 
L 286.082763 113.297473 
L 286.384219 126.506735 
L 286.685675 129.096658 
L 286.987131 122.603789 
L 287.590044 131.47935 
L 287.8915 132.104845 
L 288.192956 129.67114 
L 288.494412 124.265451 
L 288.795869 126.291024 
L 289.097325 138.189164 
L 289.398781 138.46324 
L 289.700237 148.879703 
L 290.001694 131.279737 
L 290.30315 120.8499 
L 290.604606 116.348247 
L 290.906062 103.649337 
L 291.207518 114.939789 
L 292.413343 86.543371 
L 292.7148 94.201078 
L 293.016256 74.237769 
L 293.317712 88.290464 
L 293.619168 84.679304 
L 293.920624 82.70987 
L 294.523537 108.048744 
L 295.427906 79.458266 
L 296.030818 73.603808 
L 296.332274 83.081088 
L 296.633731 83.968816 
L 296.935187 81.723416 
L 297.236643 71.399009 
L 297.839555 71.227393 
L 298.141012 66.213807 
L 298.442468 69.130683 
L 298.743924 60.908429 
L 299.04538 59.036772 
L 299.346837 44.588982 
L 299.648293 45.034076 
L 300.251205 65.48369 
L 300.552661 55.334321 
L 300.854118 52.229957 
L 301.155574 56.416799 
L 301.45703 37.456506 
L 301.758486 44.94952 
L 302.059943 48.548117 
L 302.361399 36.843864 
L 302.964311 80.179111 
L 303.265768 62.632476 
L 303.567224 69.546732 
L 303.86868 83.545926 
L 304.170136 64.538644 
L 304.471592 58.665418 
L 305.074505 70.884742 
L 305.375961 60.12847 
L 305.677417 70.768963 
L 306.28033 59.009902 
L 306.581786 53.881997 
L 306.883242 73.130528 
L 307.184698 83.406671 
L 307.486155 81.784491 
L 307.787611 96.068992 
L 308.089067 91.89783 
L 308.390523 74.965696 
L 308.69198 72.863561 
L 309.294892 82.556299 
L 309.596348 94.980738 
L 309.897805 86.069221 
L 310.500717 100.613505 
L 310.802173 94.7287 
L 311.103629 79.748563 
L 311.405086 79.372191 
L 311.706542 99.962437 
L 312.007998 80.718863 
L 312.309454 86.516462 
L 312.610911 78.273259 
L 312.912367 79.82035 
L 313.213823 79.23014 
L 313.515279 83.64581 
L 313.816735 83.377238 
L 314.118192 97.152746 
L 314.419648 92.709219 
L 314.721104 113.048694 
L 315.02256 110.152033 
L 315.324017 103.180285 
L 315.625473 106.223771 
L 315.926929 114.02856 
L 316.228385 126.538788 
L 316.831298 138.297142 
L 317.132754 130.70493 
L 317.43421 107.208518 
L 317.735666 112.156346 
L 318.037123 129.187992 
L 318.338579 131.598099 
L 318.640035 123.1204 
L 318.941491 122.923862 
L 319.242948 118.318819 
L 319.544404 118.145421 
L 319.84586 112.204297 
L 320.147316 111.446269 
L 320.448772 97.589158 
L 320.750229 92.23697 
L 321.051685 108.236317 
L 321.353141 101.129231 
L 321.654597 98.32774 
L 322.25751 108.440875 
L 322.558966 105.867961 
L 322.860422 113.235584 
L 323.161879 124.005105 
L 323.463335 112.79386 
L 324.066247 141.834605 
L 324.367703 132.275424 
L 324.66916 114.353842 
L 324.970616 112.502281 
L 325.272072 109.09437 
L 325.573528 108.231116 
L 326.176441 128.148273 
L 326.779353 91.464308 
L 327.080809 97.521294 
L 327.382266 89.023781 
L 327.683722 89.163449 
L 327.985178 97.267201 
L 328.286634 94.41553 
L 328.588091 94.910692 
L 328.889547 85.01598 
L 329.191003 97.035381 
L 329.492459 103.639385 
L 329.793915 95.119837 
L 330.095372 118.053453 
L 330.396828 98.536121 
L 330.698284 99.483952 
L 330.99974 98.919179 
L 331.301197 111.806432 
L 331.602653 118.722325 
L 331.904109 108.189333 
L 332.205565 116.564505 
L 332.507022 108.92194 
L 333.109934 102.188411 
L 333.41139 107.085992 
L 333.712846 105.136742 
L 334.014303 106.654343 
L 334.315759 109.161951 
L 334.617215 116.226569 
L 334.918671 127.856096 
L 335.220128 104.285855 
L 335.521584 124.628249 
L 335.82304 110.44483 
L 336.124496 118.291392 
L 336.425952 107.201218 
L 336.727409 105.111907 
L 337.330321 121.552748 
L 337.631777 121.826569 
L 337.933234 109.950269 
L 338.23469 110.973152 
L 338.536146 135.024104 
L 338.837602 135.623554 
L 339.139059 146.437998 
L 339.440515 143.035313 
L 339.741971 142.079719 
L 340.043427 143.787525 
L 340.344883 142.655692 
L 340.64634 135.787327 
L 340.947796 137.36152 
L 341.249252 127.874423 
L 341.550708 123.157142 
L 341.852165 126.649134 
L 342.455077 149.955313 
L 342.756533 146.948937 
L 343.057989 142.638956 
L 343.359446 133.108383 
L 343.660902 131.756168 
L 343.962358 144.641814 
L 344.263814 143.633695 
L 344.565271 138.407125 
L 345.168183 161.17073 
L 345.469639 156.870126 
L 345.771096 156.960971 
L 346.072552 168.599858 
L 346.374008 166.286584 
L 346.675464 166.400643 
L 346.97692 156.769669 
L 347.278377 153.079612 
L 347.579833 146.416963 
L 348.182745 164.319002 
L 348.484202 161.598156 
L 348.785658 141.76544 
L 349.087114 144.112146 
L 349.38857 145.533989 
L 349.690026 145.210811 
L 349.991483 136.894249 
L 350.292939 143.043607 
L 350.594395 160.149246 
L 350.895851 162.396322 
L 351.197308 153.994629 
L 351.80022 167.141446 
L 352.101676 169.271068 
L 352.403133 160.488092 
L 352.704589 170.472294 
L 353.006045 165.177702 
L 353.307501 162.01253 
L 353.608957 152.395436 
L 353.910414 174.461393 
L 354.21187 179.851029 
L 354.814782 158.290004 
L 355.116239 159.016125 
L 355.417695 155.311485 
L 355.719151 158.251257 
L 356.322063 140.08748 
L 356.62352 151.412525 
L 356.924976 151.269382 
L 357.226432 158.931852 
L 357.527888 179.041364 
L 357.829345 169.995161 
L 358.130801 169.454459 
L 358.432257 168.607654 
L 358.733713 174.616846 
L 359.03517 158.521879 
L 359.336626 168.011063 
L 359.939538 158.010248 
L 360.240994 173.785389 
L 360.542451 178.08627 
L 360.843907 159.431552 
L 361.145363 171.384988 
L 361.446819 172.70855 
L 361.748276 155.652936 
L 362.351188 136.737502 
L 362.652644 152.319119 
L 362.9541 156.325781 
L 363.255557 139.252631 
L 363.858469 151.29078 
L 364.159925 137.762506 
L 364.461382 152.143557 
L 364.762838 137.931005 
L 365.064294 152.203323 
L 365.36575 159.478256 
L 365.667206 175.691712 
L 365.968663 174.036974 
L 366.270119 161.368333 
L 366.571575 163.367077 
L 366.873031 168.916497 
L 367.475944 199.261927 
L 367.7774 188.345854 
L 368.078856 189.252675 
L 368.681769 167.885252 
L 368.983225 169.812234 
L 369.284681 163.841909 
L 369.586137 163.747928 
L 370.18905 175.972024 
L 370.490506 177.401579 
L 370.791962 168.198399 
L 371.394875 182.197097 
L 371.696331 170.3051 
L 371.997787 136.016444 
L 372.299243 130.137848 
L 372.6007 132.42335 
L 372.902156 126.482612 
L 373.203612 133.089877 
L 373.505068 113.384641 
L 373.806525 112.812583 
L 374.107981 119.573386 
L 374.409437 129.426116 
L 374.710893 126.387139 
L 375.01235 136.672274 
L 375.313806 113.567947 
L 375.615262 117.636833 
L 375.916718 132.515936 
L 376.218174 141.397387 
L 376.519631 136.491371 
L 376.821087 155.800168 
L 377.122543 162.516244 
L 377.423999 145.318433 
L 378.026912 167.666023 
L 378.328368 155.242438 
L 378.629824 160.500153 
L 378.93128 149.803903 
L 379.232737 151.97383 
L 379.534193 151.781586 
L 380.137105 171.032419 
L 380.438562 175.168724 
L 380.740018 168.685353 
L 381.041474 179.609121 
L 381.34293 164.839349 
L 381.644387 158.078139 
L 381.945843 156.993618 
L 382.247299 152.216996 
L 382.548755 153.667849 
L 382.850211 142.241326 
L 383.151668 148.078857 
L 383.453124 147.405221 
L 383.75458 144.656519 
L 384.056036 134.874162 
L 384.357493 144.838283 
L 384.658949 142.810586 
L 384.960405 148.212831 
L 385.261861 144.737232 
L 385.563317 154.081711 
L 385.864774 148.550512 
L 386.16623 145.342115 
L 386.467686 135.165936 
L 386.769142 155.022861 
L 387.070599 155.684966 
L 387.372055 156.790769 
L 387.673511 151.423035 
L 387.974967 135.138693 
L 388.57788 153.800799 
L 388.879336 149.191474 
L 389.180792 160.266932 
L 389.783705 142.103847 
L 390.085161 151.391131 
L 390.386617 156.340787 
L 390.688073 155.339195 
L 390.98953 161.965825 
L 391.290986 162.91865 
L 391.592442 158.828795 
L 392.195354 165.563869 
L 392.496811 176.924971 
L 392.798267 173.46742 
L 393.099723 183.641886 
L 393.401179 175.745428 
L 393.702636 176.952242 
L 394.004092 168.246686 
L 394.305548 167.268908 
L 394.607004 175.239449 
L 394.908461 172.247841 
L 395.209917 174.396921 
L 395.511373 164.950185 
L 395.812829 149.226164 
L 396.415742 126.950706 
L 396.717198 126.217951 
L 397.018654 124.530231 
L 397.32011 137.811756 
L 397.621567 146.000064 
L 397.923023 125.739821 
L 398.224479 131.297781 
L 398.525935 134.434119 
L 398.827391 151.719341 
L 399.430304 168.036201 
L 399.73176 156.683501 
L 400.033216 161.520527 
L 400.334673 149.10538 
L 400.636129 156.457598 
L 400.937585 175.903846 
L 401.239041 175.239016 
L 401.540497 176.079597 
L 401.841954 182.325817 
L 402.14341 177.862178 
L 402.444866 176.418641 
L 402.746322 187.004239 
L 403.047779 185.930458 
L 403.349235 176.455868 
L 403.650691 180.275909 
L 403.952147 171.730953 
L 404.253604 168.793331 
L 404.856516 182.13092 
L 405.157972 185.748966 
L 405.459428 191.558269 
L 405.760885 178.245558 
L 406.062341 185.935017 
L 406.665253 174.822798 
L 406.96671 169.745798 
L 407.268166 179.392453 
L 407.569622 178.552922 
L 407.871078 167.224792 
L 408.172534 183.16378 
L 408.473991 184.570719 
L 408.775447 183.239935 
L 409.076903 184.813425 
L 409.378359 195.741845 
L 409.679816 182.782101 
L 409.981272 182.724236 
L 410.584184 175.001985 
L 410.885641 176.284252 
L 411.187097 180.850185 
L 411.488553 205.24499 
L 411.790009 207.739221 
L 411.790009 207.739221 
" clip-path="url(#p07493ab333)" style="fill: none; stroke: #1f77b4; stroke-width: 1.5; stroke-linecap: square"/>
   </g>
   <g id="line2d_14">
    <path d="M 110.635239 170.908377 
L 110.936695 154.439593 
L 111.238151 168.430168 
L 111.539607 165.242489 
L 111.841063 167.99916 
L 112.14252 163.578414 
L 112.443976 153.310378 
L 112.745432 157.083614 
L 113.046888 150.538672 
L 113.348345 152.72024 
L 113.649801 145.071943 
L 113.951257 148.767109 
L 114.252713 143.792702 
L 114.554169 143.433429 
L 114.855626 137.683911 
L 115.157082 118.864475 
L 115.458538 125.988899 
L 115.759994 141.855194 
L 116.061451 147.475359 
L 116.664363 114.829592 
L 116.965819 126.530067 
L 117.267276 131.430568 
L 117.568732 138.886642 
L 117.870188 133.971828 
L 118.171644 136.531104 
L 118.4731 146.412967 
L 118.774557 146.231225 
L 119.076013 142.021611 
L 119.377469 151.836936 
L 119.678925 148.839934 
L 119.980382 130.543732 
L 120.281838 130.046783 
L 120.583294 124.457025 
L 120.88475 124.861152 
L 121.186206 134.118917 
L 121.487663 126.660216 
L 121.789119 103.746041 
L 122.090575 105.741769 
L 122.392031 99.454317 
L 122.693488 106.23357 
L 122.994944 116.708018 
L 123.2964 100.02115 
L 123.597856 93.828903 
L 123.899313 97.173491 
L 124.200769 94.511592 
L 124.502225 100.507385 
L 124.803681 93.887123 
L 125.105137 108.962736 
L 125.406594 113.105024 
L 125.70805 126.165877 
L 126.009506 110.005822 
L 126.310962 101.809183 
L 126.913875 120.168985 
L 127.215331 123.5413 
L 127.516787 119.72912 
L 127.818243 108.167678 
L 128.1197 109.26162 
L 128.421156 89.764428 
L 128.722612 92.076469 
L 129.024068 102.604819 
L 129.325525 88.23904 
L 129.626981 109.265763 
L 129.928437 103.378611 
L 130.229893 93.88164 
L 130.53135 116.018118 
L 130.832806 109.732204 
L 131.134262 129.764946 
L 131.737174 112.51333 
L 132.038631 106.982045 
L 132.340087 114.413502 
L 132.641543 112.699783 
L 132.942999 118.288453 
L 133.244456 131.613329 
L 133.545912 131.0749 
L 133.847368 128.79639 
L 134.148824 128.691182 
L 134.45028 143.899769 
L 134.751737 126.29276 
L 135.053193 131.81831 
L 135.354649 126.210076 
L 135.656105 131.765657 
L 135.957562 128.013524 
L 136.259018 129.42459 
L 137.163387 116.534013 
L 137.464843 116.016279 
L 137.766299 100.760807 
L 138.067755 97.420243 
L 138.369211 82.947748 
L 138.972124 88.786843 
L 139.27358 89.885075 
L 139.575036 94.177764 
L 139.876493 100.982886 
L 140.177949 102.269951 
L 140.479405 112.514883 
L 140.780861 105.76939 
L 141.082317 105.784646 
L 141.383774 93.128474 
L 141.68523 92.586791 
L 141.986686 108.951817 
L 142.288142 108.059026 
L 142.589599 106.293661 
L 143.192511 88.530094 
L 143.493967 88.620631 
L 143.795423 92.483456 
L 144.09688 101.976739 
L 144.398336 103.581672 
L 145.001248 95.789717 
L 145.302705 95.563714 
L 145.604161 90.188766 
L 145.905617 80.308018 
L 146.207073 85.114722 
L 146.809986 97.894262 
L 147.111442 86.12929 
L 147.412898 89.305543 
L 147.714354 94.178696 
L 148.015811 108.333006 
L 148.317267 97.07709 
L 148.618723 90.042202 
L 148.920179 92.980742 
L 149.221636 79.990665 
L 149.523092 96.48772 
L 149.824548 100.58389 
L 150.126004 100.619398 
L 150.42746 107.724156 
L 150.728917 105.547641 
L 151.030373 111.116673 
L 151.633285 93.840689 
L 151.934742 99.360832 
L 152.236198 98.619061 
L 152.537654 95.660351 
L 152.83911 81.404069 
L 153.140567 78.02574 
L 153.442023 67.24879 
L 153.743479 85.672807 
L 154.044935 96.472296 
L 154.346391 80.350896 
L 154.647848 72.455884 
L 154.949304 95.685667 
L 155.25076 81.401883 
L 155.853673 101.217283 
L 156.155129 82.938343 
L 156.456585 95.879145 
L 156.758041 95.561591 
L 157.059497 107.022804 
L 157.360954 98.099689 
L 157.66241 101.904739 
L 157.963866 101.243999 
L 158.265322 86.596432 
L 158.566779 82.678328 
L 158.868235 95.052021 
L 159.169691 101.329195 
L 159.471147 100.809881 
L 159.772604 97.663556 
L 160.07406 86.75386 
L 160.375516 81.318122 
L 160.676972 88.885997 
L 160.978428 91.129386 
L 161.279885 95.829229 
L 161.882797 85.142272 
L 162.184253 103.10346 
L 162.48571 96.974468 
L 162.787166 93.86607 
L 163.088622 101.335607 
L 163.390078 101.143674 
L 163.691534 101.805388 
L 164.294447 112.529774 
L 164.595903 107.71722 
L 164.897359 116.506606 
L 165.198816 108.724585 
L 165.500272 116.695957 
L 165.801728 133.377455 
L 166.103184 130.889112 
L 166.404641 126.766488 
L 166.706097 105.623834 
L 167.007553 105.674148 
L 167.309009 117.837868 
L 167.610465 120.304322 
L 167.911922 127.08745 
L 168.213378 106.911917 
L 168.514834 105.265831 
L 168.81629 110.446947 
L 169.117747 129.356978 
L 169.720659 99.500655 
L 170.022115 95.879823 
L 170.323571 109.482615 
L 170.625028 100.639608 
L 171.529396 113.32189 
L 171.830853 116.07994 
L 172.433765 114.1876 
L 172.735221 112.541432 
L 173.036678 120.213976 
L 173.338134 97.534011 
L 173.941046 119.799861 
L 174.242502 116.369248 
L 174.543959 105.731406 
L 174.845415 114.612714 
L 175.146871 118.820402 
L 175.448327 119.097785 
L 175.749784 116.659878 
L 176.05124 117.722081 
L 176.352696 112.558715 
L 176.654152 112.531545 
L 177.257065 135.805723 
L 177.558521 134.836273 
L 177.859977 122.627567 
L 178.161433 124.995819 
L 178.46289 134.278764 
L 178.764346 125.901084 
L 179.065802 138.30107 
L 179.668714 121.76066 
L 179.970171 118.604626 
L 180.874539 127.978357 
L 181.175996 124.709791 
L 181.477452 133.330691 
L 181.778908 136.07512 
L 182.080364 129.335764 
L 182.683277 152.843179 
L 182.984733 155.625355 
L 183.286189 165.79627 
L 183.587645 156.053485 
L 183.889102 160.968781 
L 184.190558 151.050567 
L 184.492014 157.763738 
L 184.79347 168.769741 
L 185.094927 146.475915 
L 185.396383 140.750649 
L 185.697839 144.628682 
L 185.999295 163.905981 
L 186.300751 164.805982 
L 186.602208 173.153553 
L 186.903664 177.730311 
L 187.20512 192.583106 
L 187.808033 177.012119 
L 188.109489 176.692235 
L 188.410945 178.643706 
L 188.712401 173.127419 
L 189.315314 179.769374 
L 189.61677 176.831194 
L 189.918226 169.410787 
L 190.219682 202.101355 
L 190.521139 201.457245 
L 190.822595 192.475002 
L 191.124051 194.667674 
L 191.425507 185.707836 
L 191.726964 164.043798 
L 192.02842 157.480841 
L 192.329876 175.233506 
L 192.631332 180.694848 
L 192.932788 174.83358 
L 193.234245 186.545551 
L 193.535701 184.049403 
L 193.837157 174.866962 
L 194.138613 176.549118 
L 194.741526 190.997858 
L 195.042982 190.144459 
L 195.344438 200.762729 
L 195.645895 196.933061 
L 195.947351 190.996336 
L 196.248807 209.923901 
L 196.550263 208.429937 
L 196.851719 212.379776 
L 197.756088 176.324897 
L 198.057544 205.891513 
L 198.359001 189.288794 
L 198.660457 184.795846 
L 198.961913 193.822013 
L 199.263369 187.655035 
L 199.564825 202.641697 
L 199.866282 195.903396 
L 200.167738 194.607559 
L 200.469194 196.834106 
L 200.77065 212.813464 
L 201.072107 197.643342 
L 201.976475 205.887103 
L 202.277932 195.646803 
L 202.579388 204.745925 
L 202.880844 203.671187 
L 203.1823 214.758247 
L 203.483756 208.44698 
L 203.785213 191.861956 
L 204.086669 193.535614 
L 204.689581 210.589286 
L 204.991038 196.202819 
L 205.292494 203.880951 
L 205.59395 175.6854 
L 205.895406 190.653991 
L 206.196862 179.57147 
L 206.498319 187.329713 
L 206.799775 199.066247 
L 207.101231 196.806156 
L 207.402687 188.954538 
L 207.704144 177.465741 
L 208.0056 195.634381 
L 208.307056 191.40428 
L 208.608512 193.712705 
L 208.909969 202.557158 
L 209.211425 220.477447 
L 209.512881 208.005399 
L 209.814337 222.715085 
L 210.115793 220.358338 
L 210.41725 230.931425 
L 210.718706 234.602447 
L 211.020162 232.167398 
L 211.321618 216.244131 
L 211.623075 226.177765 
L 211.924531 218.683935 
L 212.225987 232.449453 
L 212.527443 237.603439 
L 212.828899 237.934259 
L 213.130356 239.907258 
L 213.431812 255.321136 
L 213.733268 244.070434 
L 214.034724 241.75029 
L 214.336181 247.083455 
L 214.939093 225.049944 
L 215.542005 221.700077 
L 215.843462 200.27739 
L 216.144918 200.815235 
L 216.446374 201.778996 
L 216.74783 190.370264 
L 217.049287 199.071496 
L 217.350743 200.976531 
L 217.652199 197.860064 
L 217.953655 212.281947 
L 218.255112 212.025518 
L 218.556568 203.23437 
L 218.858024 201.3813 
L 219.15948 190.844869 
L 219.762393 187.537695 
L 220.063849 182.206352 
L 220.365305 185.222193 
L 220.666761 169.19328 
L 220.968218 173.021328 
L 221.57113 189.698114 
L 221.872586 180.56544 
L 222.174042 178.153427 
L 222.776955 182.312879 
L 223.078411 183.215362 
L 223.98278 196.051991 
L 224.284236 203.65438 
L 224.585692 200.057507 
L 224.887149 200.877462 
L 225.188605 191.657693 
L 225.490061 178.624566 
L 225.791517 178.563507 
L 226.092973 175.703157 
L 226.39443 171.360649 
L 226.695886 183.03426 
L 227.600255 173.798161 
L 227.901711 167.504162 
L 228.203167 173.171751 
L 228.504623 164.76921 
L 228.806079 179.045747 
L 229.107536 171.846572 
L 229.408992 161.060401 
L 229.710448 160.316398 
L 230.011904 160.027155 
L 230.614817 149.724549 
L 230.916273 165.439392 
L 231.217729 170.061242 
L 231.519186 170.313497 
L 232.122098 147.086164 
L 232.423554 152.66291 
L 232.72501 153.47375 
L 233.026467 145.529551 
L 233.327923 160.027635 
L 233.629379 160.60403 
L 233.930835 161.944329 
L 234.533748 145.191551 
L 234.835204 146.011677 
L 235.13666 140.150792 
L 235.438116 145.200423 
L 235.739573 153.723701 
L 236.041029 137.098243 
L 236.342485 158.542103 
L 236.945398 144.377965 
L 237.246854 143.982374 
L 237.54831 147.884837 
L 238.151223 144.729904 
L 238.452679 164.121704 
L 238.754135 164.263874 
L 239.055591 159.092436 
L 239.357047 159.770821 
L 239.658504 146.738189 
L 239.95996 146.899724 
L 240.261416 149.772519 
L 240.562872 144.957629 
L 241.165785 159.054619 
L 241.467241 141.389866 
L 241.768697 130.295581 
L 242.070153 132.624959 
L 242.37161 139.171548 
L 242.673066 140.153612 
L 242.974522 138.576184 
L 243.275978 141.575624 
L 243.577435 137.860899 
L 244.180347 134.446175 
L 244.481803 129.255472 
L 244.78326 130.739414 
L 245.084716 125.623679 
L 245.386172 144.470978 
L 245.687628 150.806295 
L 245.989084 143.478396 
L 246.290541 143.16425 
L 246.591997 136.589306 
L 246.893453 135.858493 
L 247.194909 140.071033 
L 247.496366 147.774097 
L 247.797822 146.269749 
L 248.099278 117.438471 
L 248.400734 134.68194 
L 248.70219 139.110058 
L 249.003647 152.39888 
L 249.305103 132.665943 
L 249.606559 135.446695 
L 249.908015 144.01106 
L 250.209472 149.402452 
L 250.812384 147.013468 
L 251.11384 140.578824 
L 251.415296 140.298674 
L 252.018209 136.037514 
L 252.319665 140.761542 
L 252.621121 135.139058 
L 252.922578 126.975738 
L 253.224034 126.040542 
L 253.52549 136.33326 
L 253.826946 137.373559 
L 254.128403 131.299708 
L 254.429859 158.03899 
L 254.731315 160.226975 
L 255.032771 154.544178 
L 255.334227 151.227948 
L 255.635684 172.29534 
L 255.93714 167.966471 
L 256.238596 169.991038 
L 256.540052 174.841054 
L 256.841509 189.531529 
L 257.142965 184.94349 
L 257.444421 189.430228 
L 257.745877 182.710427 
L 258.047333 169.424015 
L 258.34879 165.796755 
L 258.650246 157.633074 
L 258.951702 153.831456 
L 259.253158 151.474742 
L 259.554615 158.03417 
L 259.856071 144.271054 
L 260.157527 143.629161 
L 260.458983 141.40405 
L 261.061896 122.944038 
L 261.363352 141.330805 
L 261.664808 136.313711 
L 261.966264 119.353709 
L 262.267721 113.214896 
L 262.569177 110.80692 
L 262.870633 128.763546 
L 263.473546 110.122406 
L 263.775002 107.494754 
L 264.076458 115.430238 
L 264.377914 119.318776 
L 264.980827 98.565302 
L 265.282283 98.603989 
L 265.885195 83.967808 
L 266.186652 99.683648 
L 266.488108 93.462429 
L 266.789564 107.335159 
L 267.392477 80.396392 
L 267.693933 84.414107 
L 267.995389 76.387955 
L 268.296845 93.828648 
L 268.598301 118.609359 
L 269.201214 129.322648 
L 269.50267 141.940924 
L 269.804126 132.879319 
L 270.105583 132.334345 
L 270.407039 133.609927 
L 270.708495 141.107314 
L 271.009951 140.223218 
L 271.311407 121.970507 
L 271.612864 132.629704 
L 271.91432 119.865792 
L 272.215776 121.92317 
L 272.517232 114.441127 
L 272.818689 121.025307 
L 273.421601 95.587826 
L 273.723057 101.860424 
L 274.32597 146.063574 
L 274.627426 119.28255 
L 274.928882 123.100626 
L 275.230338 129.650257 
L 275.531795 129.717993 
L 276.134707 113.328434 
L 276.436163 121.015275 
L 276.73762 121.489365 
L 277.039076 137.331395 
L 277.340532 138.502846 
L 277.641988 132.778867 
L 277.943444 149.554948 
L 278.244901 151.245467 
L 278.546357 167.157549 
L 278.847813 165.615029 
L 279.149269 149.488965 
L 279.450726 146.729018 
L 279.752182 158.202477 
L 280.053638 143.967145 
L 280.355094 143.327699 
L 280.656551 129.963224 
L 281.560919 110.169756 
L 281.862375 112.597 
L 282.163832 105.718674 
L 282.465288 124.859816 
L 283.0682 109.977016 
L 283.369657 120.881896 
L 283.671113 122.221531 
L 283.972569 121.718859 
L 284.575481 110.290263 
L 284.876938 102.002678 
L 285.178394 122.035651 
L 285.781306 137.188142 
L 286.082763 133.73555 
L 286.384219 138.282435 
L 286.685675 149.191624 
L 286.987131 145.493124 
L 287.288588 127.802751 
L 287.590044 126.08741 
L 288.192956 108.858883 
L 288.494412 116.827758 
L 288.795869 109.818161 
L 289.097325 122.207336 
L 289.398781 128.378407 
L 289.700237 128.670437 
L 290.001694 130.847579 
L 290.30315 120.602858 
L 290.604606 127.061128 
L 290.906062 138.893253 
L 291.207518 133.452069 
L 291.508975 130.389656 
L 291.810431 139.276089 
L 292.111887 138.509945 
L 292.413343 147.864614 
L 292.7148 134.178414 
L 293.317712 122.769503 
L 293.920624 143.244549 
L 294.523537 125.890203 
L 294.824993 148.069904 
L 295.126449 135.502833 
L 295.427906 133.657831 
L 295.729362 127.028265 
L 296.030818 117.629614 
L 296.332274 139.281041 
L 296.633731 131.821099 
L 297.236643 148.22756 
L 297.538099 169.129985 
L 297.839555 164.277536 
L 298.141012 166.022672 
L 298.442468 162.856157 
L 298.743924 157.421617 
L 299.04538 149.965271 
L 299.346837 167.236147 
L 299.648293 164.974209 
L 299.949749 158.972008 
L 300.251205 160.621269 
L 300.552661 168.391599 
L 300.854118 159.855355 
L 301.45703 177.4767 
L 301.758486 189.989893 
L 302.662855 184.199156 
L 303.265768 193.774771 
L 303.567224 205.343203 
L 303.86868 182.933848 
L 304.170136 175.624368 
L 304.471592 200.147767 
L 304.773049 198.889985 
L 305.074505 205.235542 
L 305.375961 181.985645 
L 305.677417 189.65872 
L 305.978874 193.738271 
L 306.581786 181.723634 
L 306.883242 182.100155 
L 307.486155 198.101789 
L 307.787611 187.636673 
L 308.089067 182.403669 
L 308.390523 187.107458 
L 308.69198 178.397536 
L 308.993436 188.181125 
L 309.294892 182.146524 
L 309.596348 169.014466 
L 309.897805 178.397874 
L 310.199261 162.701127 
L 310.500717 167.782777 
L 310.802173 161.741671 
L 311.405086 191.133328 
L 311.706542 193.432932 
L 312.007998 191.401465 
L 312.610911 178.236259 
L 312.912367 176.56862 
L 313.515279 186.990159 
L 313.816735 187.528894 
L 314.118192 202.801955 
L 314.721104 207.142865 
L 315.02256 199.726443 
L 315.324017 206.486226 
L 315.625473 210.320747 
L 315.926929 200.440403 
L 316.228385 182.895287 
L 316.529842 197.475728 
L 316.831298 197.68793 
L 317.43421 187.41082 
L 317.735666 174.415972 
L 318.037123 195.832386 
L 318.338579 187.935147 
L 318.640035 203.210422 
L 318.941491 199.449426 
L 319.242948 199.262896 
L 319.544404 210.596096 
L 319.84586 205.632148 
L 320.147316 197.492038 
L 320.448772 203.523012 
L 320.750229 191.536909 
L 321.051685 198.818844 
L 321.353141 195.789829 
L 321.654597 199.830095 
L 322.25751 199.638217 
L 322.558966 207.221272 
L 322.860422 207.293724 
L 323.161879 222.612777 
L 323.463335 215.189458 
L 323.764791 221.110346 
L 324.066247 207.787731 
L 324.367703 203.93406 
L 324.66916 213.749349 
L 324.970616 227.317068 
L 325.272072 223.557045 
L 325.573528 224.863369 
L 325.874985 219.772005 
L 326.176441 230.002011 
L 326.477897 232.744313 
L 326.779353 231.924948 
L 327.382266 221.752624 
L 327.985178 250.796658 
L 328.286634 246.525595 
L 328.588091 230.373648 
L 328.889547 233.642274 
L 329.191003 238.429993 
L 329.492459 229.412368 
L 329.793915 211.815894 
L 330.095372 208.691437 
L 330.396828 223.606772 
L 330.698284 226.925617 
L 330.99974 231.551934 
L 331.301197 228.246663 
L 331.602653 213.305471 
L 331.904109 207.506625 
L 332.507022 221.929553 
L 332.808478 223.936051 
L 333.109934 220.997342 
L 333.41139 216.331142 
L 333.712846 216.670384 
L 334.014303 230.594117 
L 334.315759 227.263274 
L 334.617215 219.679518 
L 334.918671 235.924259 
L 335.521584 244.923401 
L 335.82304 240.57298 
L 336.124496 245.369896 
L 336.425952 240.686473 
L 336.727409 238.884598 
L 337.028865 241.616359 
L 337.330321 231.530281 
L 337.631777 234.402319 
L 337.933234 231.651203 
L 338.23469 245.952872 
L 338.536146 251.042619 
L 338.837602 249.539142 
L 339.139059 237.011747 
L 339.440515 236.421242 
L 339.741971 230.287278 
L 340.043427 239.38951 
L 340.344883 226.772437 
L 340.947796 252.257123 
L 341.249252 233.453121 
L 341.550708 231.434396 
L 341.852165 234.137995 
L 342.153621 231.802378 
L 342.455077 225.025688 
L 342.756533 244.343346 
L 343.359446 208.827856 
L 343.660902 223.057463 
L 343.962358 218.638674 
L 344.263814 216.428307 
L 344.565271 216.214122 
L 344.866727 226.029403 
L 345.168183 217.448186 
L 345.469639 226.848709 
L 345.771096 220.530588 
L 346.072552 231.624404 
L 346.374008 220.875682 
L 346.675464 222.485998 
L 346.97692 214.518137 
L 347.278377 212.514406 
L 347.579833 216.100878 
L 347.881289 213.298125 
L 348.182745 205.551893 
L 348.484202 205.912792 
L 349.087114 198.132563 
L 349.38857 200.465053 
L 349.690026 213.226544 
L 350.292939 199.428215 
L 350.594395 203.081418 
L 350.895851 201.816762 
L 351.197308 202.281244 
L 351.498764 210.817655 
L 351.80022 204.041063 
L 352.101676 208.974419 
L 352.403133 211.24385 
L 352.704589 232.875449 
L 353.006045 221.562155 
L 353.307501 203.435706 
L 353.608957 202.395351 
L 353.910414 190.025999 
L 354.21187 211.992138 
L 354.513326 215.885757 
L 354.814782 212.794711 
L 355.116239 220.695813 
L 355.417695 210.318469 
L 355.719151 214.635811 
L 356.020607 223.940217 
L 356.322063 224.838291 
L 356.62352 230.27847 
L 356.924976 244.338837 
L 357.226432 238.017557 
L 357.527888 247.320828 
L 357.829345 236.718567 
L 358.130801 239.756518 
L 358.432257 238.230834 
L 358.733713 240.73076 
L 359.03517 242.175054 
L 359.336626 228.67156 
L 359.638082 230.118315 
L 359.939538 225.926531 
L 360.542451 234.358068 
L 360.843907 232.737781 
L 361.145363 223.300527 
L 361.446819 233.313543 
L 361.748276 220.233566 
L 362.049732 227.906302 
L 362.351188 213.666017 
L 362.652644 232.066888 
L 362.9541 225.684976 
L 363.255557 216.892963 
L 363.858469 185.975906 
L 364.159925 189.205857 
L 364.461382 202.524393 
L 364.762838 210.190018 
L 365.064294 213.503841 
L 365.36575 203.14653 
L 365.667206 176.309913 
L 365.968663 183.415523 
L 366.270119 165.758129 
L 366.571575 179.349838 
L 366.873031 178.46557 
L 367.174488 185.361631 
L 367.475944 164.992904 
L 367.7774 173.355792 
L 368.078856 175.172339 
L 368.380313 189.98701 
L 368.681769 198.492627 
L 368.983225 182.457322 
L 369.284681 174.384512 
L 369.586137 160.215749 
L 369.887594 174.342737 
L 370.18905 167.20685 
L 370.490506 166.921641 
L 370.791962 178.828223 
L 371.093419 172.338734 
L 371.394875 170.387448 
L 371.696331 160.472052 
L 371.997787 154.316905 
L 372.299243 164.926148 
L 372.6007 166.467289 
L 372.902156 185.426562 
L 373.203612 183.60316 
L 373.505068 179.878738 
L 373.806525 190.500845 
L 374.107981 181.365961 
L 374.409437 177.062294 
L 374.710893 182.368006 
L 375.313806 205.018924 
L 375.615262 212.787116 
L 375.916718 204.519059 
L 376.218174 213.44716 
L 376.519631 206.486855 
L 376.821087 216.824959 
L 377.122543 208.216968 
L 377.423999 206.071963 
L 377.725456 210.993365 
L 378.026912 199.87928 
L 378.328368 214.414432 
L 378.629824 215.588612 
L 378.93128 207.218387 
L 379.232737 205.651718 
L 380.137105 219.320605 
L 380.438562 211.851313 
L 380.740018 220.854074 
L 381.041474 213.974017 
L 381.34293 201.648898 
L 381.644387 203.951526 
L 381.945843 210.597029 
L 382.247299 214.778459 
L 382.548755 208.285047 
L 382.850211 197.068349 
L 383.151668 201.607455 
L 383.453124 174.280184 
L 383.75458 172.898817 
L 384.056036 177.001002 
L 384.357493 174.750291 
L 384.658949 163.096808 
L 385.261861 182.019377 
L 385.864774 161.027403 
L 386.16623 162.184367 
L 386.467686 164.129033 
L 386.769142 160.36889 
L 387.070599 170.405927 
L 387.372055 145.862594 
L 387.673511 153.79453 
L 387.974967 146.480267 
L 388.276424 156.801213 
L 388.57788 161.698485 
L 388.879336 149.302689 
L 389.180792 150.787592 
L 389.482248 172.403936 
L 389.783705 162.688956 
L 390.085161 168.119086 
L 390.98953 117.703021 
L 391.290986 125.572838 
L 391.592442 123.188681 
L 391.893898 114.370145 
L 392.195354 133.799906 
L 392.496811 144.65155 
L 393.099723 117.587876 
L 393.401179 130.426585 
L 393.702636 120.699224 
L 394.004092 120.334265 
L 394.305548 123.700711 
L 394.607004 129.866949 
L 394.908461 132.327609 
L 395.209917 129.318638 
L 395.812829 141.898359 
L 396.114285 141.054714 
L 396.415742 141.374936 
L 396.717198 139.473947 
L 397.018654 130.370958 
L 397.32011 127.370287 
L 397.621567 130.527557 
L 397.923023 116.284914 
L 398.224479 112.631591 
L 398.525935 130.089466 
L 398.827391 120.789929 
L 400.033216 139.476541 
L 400.334673 148.049361 
L 400.937585 134.505725 
L 401.239041 117.141224 
L 401.540497 110.052223 
L 402.14341 125.666199 
L 402.746322 120.490898 
L 403.047779 128.483682 
L 403.650691 153.955651 
L 403.952147 146.732186 
L 404.253604 166.573826 
L 404.55506 162.803172 
L 404.856516 168.959725 
L 405.157972 153.774986 
L 405.760885 162.28436 
L 406.062341 152.93751 
L 406.363797 162.503483 
L 406.96671 147.274099 
L 407.569622 162.35206 
L 407.871078 157.154208 
L 408.172534 154.138546 
L 408.473991 162.188681 
L 408.775447 166.260087 
L 409.076903 165.670688 
L 409.378359 149.537701 
L 409.679816 162.630373 
L 409.981272 155.906564 
L 410.282728 163.058385 
L 410.584184 161.662171 
L 410.885641 163.458239 
L 411.187097 150.942518 
L 411.488553 151.669177 
L 411.790009 143.860818 
L 411.790009 143.860818 
" clip-path="url(#p07493ab333)" style="fill: none; stroke: #ff7f0e; stroke-width: 1.5; stroke-linecap: square"/>
   </g>
   <g id="patch_3">
    <path d="M 95.5775 266.245 
L 95.5775 25.92 
" style="fill: none; stroke: #000000; stroke-width: 0.8; stroke-linejoin: miter; stroke-linecap: square"/>
   </g>
   <g id="patch_4">
    <path d="M 426.847748 266.245 
L 426.847748 25.92 
" style="fill: none; stroke: #000000; stroke-width: 0.8; stroke-linejoin: miter; stroke-linecap: square"/>
   </g>
   <g id="patch_5">
    <path d="M 95.5775 266.245 
L 426.847748 266.245 
" style="fill: none; stroke: #000000; stroke-width: 0.8; stroke-linejoin: miter; stroke-linecap: square"/>
   </g>
   <g id="patch_6">
    <path d="M 95.5775 25.92 
L 426.847748 25.92 
" style="fill: none; stroke: #000000; stroke-width: 0.8; stroke-linejoin: miter; stroke-linecap: square"/>
   </g>
  </g>
 </g>
 <defs>
  <clipPath id="p07493ab333">
   <rect x="95.5775" y="25.92" width="331.270248" height="240.325"/>
  </clipPath>
 </defs>
</svg>
