<?xml version="1.0" encoding="utf-8" standalone="no"?>
<!DOCTYPE svg PUBLIC "-//W3C//DTD SVG 1.1//EN"
  "http://www.w3.org/Graphics/SVG/1.1/DTD/svg11.dtd">
<svg xmlns:xlink="http://www.w3.org/1999/xlink" width="460.8pt" height="345.6pt" viewBox="0 0 460.8 345.6" xmlns="http://www.w3.org/2000/svg" version="1.1">
 <metadata>
  <rdf:RDF xmlns:dc="http://purl.org/dc/elements/1.1/" xmlns:cc="http://creativecommons.org/ns#" xmlns:rdf="http://www.w3.org/1999/02/22-rdf-syntax-ns#">
   <cc:Work>
    <dc:type rdf:resource="http://purl.org/dc/dcmitype/StillImage"/>
    <dc:date>2026-02-02T15:34:01.324439</dc:date>
    <dc:format>image/svg+xml</dc:format>
    <dc:creator>
     <cc:Agent>
      <dc:title>Matplotlib v3.10.8, https://matplotlib.org/</dc:title>
     </cc:Agent>
    </dc:creator>
   </cc:Work>
  </rdf:RDF>
 </metadata>
 <defs>
  <style type="text/css">*{stroke-linejoin: round; stroke-linecap: butt}</style>
 </defs>
 <g id="figure_1">
  <g id="patch_1">
   <path d="M 0 345.6 
L 460.8 345.6 
L 460.8 0 
L 0 0 
z
" style="fill: #ffffff"/>
  </g>
  <g id="axes_1">
   <g id="patch_2">
    <path d="M 83.6075 266.245 
L 426.847748 266.245 
L 426.847748 25.92 
L 83.6075 25.92 
z
" style="fill: #ffffff"/>
   </g>
   <g id="matplotlib.axis_1">
    <g id="xtick_1">
     <g id="line2d_1">
      <path d="M 99.209329 266.245 
L 99.209329 25.92 
" clip-path="url(#p28234f548f)" style="fill: none; stroke: #b0b0b0; stroke-width: 0.8; stroke-linecap: square"/>
     </g>
     <g id="line2d_2">
      <defs>
       <path id="m5ce3a2ec19" d="M 0 0 
L 0 3.5 
" style="stroke: #000000; stroke-width: 0.8"/>
      </defs>
      <g>
       <use xlink:href="#m5ce3a2ec19" x="99.209329" y="266.245" style="stroke: #000000; stroke-width: 0.8"/>
      </g>
     </g>
     <g id="text_1">
      <!-- 0 -->
      <g transform="translate(93.209329 289.63625) scale(0.24 -0.24)">
       <defs>
        <path id="TeXGyreTermes-Regular-30" d="M 3046 2112 
C 3046 3424 2464 4326 1626 4326 
C 1274 4326 1005 4218 768 3994 
C 397 3635 154 2899 154 2150 
C 154 1453 365 704 666 346 
C 902 64 1229 -90 1600 -90 
C 1926 -90 2202 19 2432 243 
C 2803 595 3046 1338 3046 2112 
z
M 2432 2099 
C 2432 762 2150 77 1600 77 
C 1050 77 768 762 768 2093 
C 768 3450 1056 4160 1606 4160 
C 2144 4160 2432 3437 2432 2099 
z
" transform="scale(0.015625)"/>
       </defs>
       <use xlink:href="#TeXGyreTermes-Regular-30"/>
      </g>
     </g>
    </g>
    <g id="xtick_2">
     <g id="line2d_3">
      <path d="M 255.383798 266.245 
L 255.383798 25.92 
" clip-path="url(#p28234f548f)" style="fill: none; stroke: #b0b0b0; stroke-width: 0.8; stroke-linecap: square"/>
     </g>
     <g id="line2d_4">
      <g>
       <use xlink:href="#m5ce3a2ec19" x="255.383798" y="266.245" style="stroke: #000000; stroke-width: 0.8"/>
      </g>
     </g>
     <g id="text_2">
      <!-- 500 -->
      <g transform="translate(237.383798 289.63625) scale(0.24 -0.24)">
       <defs>
        <path id="TeXGyreTermes-Regular-35" d="M 2803 4358 
L 2746 4403 
C 2650 4269 2586 4237 2451 4237 
L 1114 4237 
L 416 2720 
C 410 2707 410 2688 410 2688 
C 410 2656 435 2637 486 2637 
C 691 2637 947 2592 1210 2509 
C 1946 2272 2285 1875 2285 1242 
C 2285 627 1894 147 1395 147 
C 1267 147 1158 192 966 333 
C 762 480 614 544 480 544 
C 294 544 205 467 205 307 
C 205 64 506 -90 986 -90 
C 1523 -90 1984 83 2304 410 
C 2598 698 2733 1062 2733 1549 
C 2733 2010 2611 2304 2291 2624 
C 2010 2906 1645 3053 890 3187 
L 1158 3731 
L 2413 3731 
C 2515 3731 2541 3744 2560 3789 
L 2803 4358 
z
" transform="scale(0.015625)"/>
       </defs>
       <use xlink:href="#TeXGyreTermes-Regular-35"/>
       <use xlink:href="#TeXGyreTermes-Regular-30" transform="translate(49.999985 0)"/>
       <use xlink:href="#TeXGyreTermes-Regular-30" transform="translate(99.999969 0)"/>
      </g>
     </g>
    </g>
    <g id="xtick_3">
     <g id="line2d_5">
      <path d="M 411.558267 266.245 
L 411.558267 25.92 
" clip-path="url(#p28234f548f)" style="fill: none; stroke: #b0b0b0; stroke-width: 0.8; stroke-linecap: square"/>
     </g>
     <g id="line2d_6">
      <g>
       <use xlink:href="#m5ce3a2ec19" x="411.558267" y="266.245" style="stroke: #000000; stroke-width: 0.8"/>
      </g>
     </g>
     <g id="text_3">
      <!-- 1000 -->
      <g transform="translate(387.558267 289.63625) scale(0.24 -0.24)">
       <defs>
        <path id="TeXGyreTermes-Regular-31" d="M 2522 0 
L 2522 96 
C 2016 102 1914 166 1914 474 
L 1914 4314 
L 1862 4326 
L 710 3744 
L 710 3654 
C 787 3686 858 3712 883 3725 
C 998 3770 1107 3795 1171 3795 
C 1306 3795 1363 3699 1363 3494 
L 1363 595 
C 1363 384 1312 237 1210 179 
C 1114 122 1024 102 755 96 
L 755 0 
L 2522 0 
z
" transform="scale(0.015625)"/>
       </defs>
       <use xlink:href="#TeXGyreTermes-Regular-31"/>
       <use xlink:href="#TeXGyreTermes-Regular-30" transform="translate(49.999985 0)"/>
       <use xlink:href="#TeXGyreTermes-Regular-30" transform="translate(99.999969 0)"/>
       <use xlink:href="#TeXGyreTermes-Regular-30" transform="translate(149.999954 0)"/>
      </g>
     </g>
    </g>
    <g id="text_4">
     <!-- Schritt k -->
     <g transform="translate(214.225124 315.23625) scale(0.24 -0.24)">
      <defs>
       <path id="TeXGyreTermes-Regular-53" d="M 3142 1075 
C 3142 1606 2790 2016 1946 2477 
C 1274 2842 1005 3123 1005 3475 
C 1005 3827 1274 4064 1670 4064 
C 1958 4064 2227 3942 2451 3712 
C 2650 3507 2739 3341 2842 2963 
L 3002 2963 
L 2861 4326 
L 2726 4326 
C 2701 4186 2630 4109 2522 4109 
C 2458 4109 2355 4134 2240 4186 
C 2003 4275 1773 4326 1549 4326 
C 1299 4326 1030 4224 826 4058 
C 576 3853 454 3578 454 3226 
C 454 2720 736 2362 1453 1984 
C 1914 1734 2246 1478 2406 1235 
C 2464 1146 2496 1018 2496 858 
C 2496 435 2176 141 1709 141 
C 1133 141 736 493 416 1274 
L 269 1274 
L 461 -83 
L 602 -83 
C 608 38 685 128 781 128 
C 851 128 960 102 1082 58 
C 1325 -38 1581 -90 1837 -90 
C 2579 -90 3142 416 3142 1075 
z
" transform="scale(0.015625)"/>
       <path id="TeXGyreTermes-Regular-63" d="M 2637 941 
L 2547 998 
C 2240 550 2010 397 1645 397 
C 1056 397 653 909 653 1645 
C 653 2310 1005 2758 1523 2758 
C 1754 2758 1837 2688 1901 2451 
L 1939 2310 
C 1990 2125 2106 2016 2246 2016 
C 2413 2016 2547 2138 2547 2285 
C 2547 2643 2099 2944 1562 2944 
C 1261 2944 954 2829 698 2618 
C 352 2330 160 1888 160 1357 
C 160 531 666 -64 1376 -64 
C 1651 -64 1894 26 2112 205 
C 2304 358 2432 544 2637 941 
z
" transform="scale(0.015625)"/>
       <path id="TeXGyreTermes-Regular-68" d="M 3117 0 
L 3117 96 
C 2771 160 2733 211 2733 653 
L 2733 1926 
C 2733 2598 2464 2944 1946 2944 
C 1568 2944 1299 2790 1005 2406 
L 1005 4352 
L 973 4371 
C 755 4294 595 4243 237 4141 
L 64 4090 
L 64 3987 
C 90 3994 109 3994 141 3994 
C 416 3994 467 3942 467 3667 
L 467 653 
C 467 205 429 147 58 96 
L 58 0 
L 1440 0 
L 1440 96 
C 1069 134 1005 211 1005 653 
L 1005 2195 
C 1274 2490 1466 2598 1715 2598 
C 2035 2598 2195 2368 2195 1920 
L 2195 653 
C 2195 218 2131 134 1760 96 
L 1760 0 
L 3117 0 
z
" transform="scale(0.015625)"/>
       <path id="TeXGyreTermes-Regular-72" d="M 2144 2605 
C 2144 2816 2010 2944 1792 2944 
C 1523 2944 1338 2797 1024 2342 
L 1024 2931 
L 992 2944 
C 653 2803 422 2720 45 2598 
L 45 2496 
C 134 2515 192 2522 269 2522 
C 429 2522 486 2419 486 2138 
L 486 538 
C 486 218 442 173 32 96 
L 32 0 
L 1568 0 
L 1568 96 
C 1133 115 1024 211 1024 576 
L 1024 2016 
C 1024 2221 1299 2541 1472 2541 
C 1510 2541 1568 2509 1638 2445 
C 1741 2355 1811 2317 1894 2317 
C 2048 2317 2144 2426 2144 2605 
z
" transform="scale(0.015625)"/>
       <path id="TeXGyreTermes-Regular-69" d="M 1619 0 
L 1619 96 
C 1197 128 1146 192 1146 653 
L 1146 2925 
L 1120 2944 
L 128 2592 
L 128 2496 
L 179 2502 
C 256 2515 339 2522 397 2522 
C 550 2522 608 2419 608 2138 
L 608 653 
C 608 192 544 122 102 96 
L 102 0 
L 1619 0 
z
M 1203 3776 
C 1203 3955 1062 4102 877 4102 
C 698 4102 550 3955 550 3776 
C 550 3590 698 3450 877 3450 
C 1062 3450 1203 3590 1203 3776 
z
" transform="scale(0.015625)"/>
       <path id="TeXGyreTermes-Regular-74" d="M 1786 422 
L 1702 493 
C 1562 326 1459 269 1318 269 
C 1082 269 986 435 986 845 
L 986 2675 
L 1632 2675 
L 1632 2880 
L 986 2880 
L 986 3622 
C 986 3686 973 3706 941 3706 
C 902 3642 858 3584 813 3526 
C 576 3174 358 2938 192 2842 
C 122 2797 83 2758 83 2720 
C 83 2701 90 2688 109 2675 
L 448 2675 
L 448 749 
C 448 211 640 -64 1011 -64 
C 1331 -64 1574 90 1786 422 
z
" transform="scale(0.015625)"/>
       <path id="TeXGyreTermes-Regular-20" transform="scale(0.015625)"/>
       <path id="TeXGyreTermes-Regular-6b" d="M 3232 0 
L 3232 96 
C 2950 115 2752 237 2483 563 
L 1504 1805 
L 1690 1978 
C 2144 2400 2541 2694 2726 2746 
C 2822 2771 2912 2784 3021 2784 
L 3072 2784 
L 3072 2880 
L 1766 2880 
L 1766 2790 
C 2016 2784 2086 2758 2086 2669 
C 2086 2618 2029 2528 1939 2451 
L 1062 1670 
L 1062 4358 
L 1037 4371 
L 237 4141 
L 45 4090 
L 45 3987 
C 128 3994 186 4000 250 4000 
C 461 4000 525 3917 525 3610 
L 525 525 
C 525 192 506 173 45 96 
L 45 0 
L 1542 0 
L 1542 96 
L 1414 102 
C 1158 115 1062 205 1062 429 
L 1062 1606 
L 1958 410 
L 1978 384 
C 1990 365 2003 346 2022 326 
C 2074 262 2093 224 2093 192 
C 2093 134 2035 96 1958 96 
L 1837 96 
L 1837 0 
L 3232 0 
z
" transform="scale(0.015625)"/>
      </defs>
      <use xlink:href="#TeXGyreTermes-Regular-53"/>
      <use xlink:href="#TeXGyreTermes-Regular-63" transform="translate(55.599991 0)"/>
      <use xlink:href="#TeXGyreTermes-Regular-68" transform="translate(99.999985 0)"/>
      <use xlink:href="#TeXGyreTermes-Regular-72" transform="translate(149.999969 0)"/>
      <use xlink:href="#TeXGyreTermes-Regular-69" transform="translate(183.299957 0)"/>
      <use xlink:href="#TeXGyreTermes-Regular-74" transform="translate(211.099945 0)"/>
      <use xlink:href="#TeXGyreTermes-Regular-74" transform="translate(238.899933 0)"/>
      <use xlink:href="#TeXGyreTermes-Regular-20" transform="translate(266.699921 0)"/>
      <use xlink:href="#TeXGyreTermes-Regular-6b" transform="translate(291.699905 0)"/>
     </g>
    </g>
   </g>
   <g id="matplotlib.axis_2">
    <g id="ytick_1">
     <g id="line2d_7">
      <path d="M 83.6075 264.260133 
L 426.847748 264.260133 
" clip-path="url(#p28234f548f)" style="fill: none; stroke: #b0b0b0; stroke-width: 0.8; stroke-linecap: square"/>
     </g>
     <g id="line2d_8">
      <defs>
       <path id="mab8e462410" d="M 0 0 
L -3.5 0 
" style="stroke: #000000; stroke-width: 0.8"/>
      </defs>
      <g>
       <use xlink:href="#mab8e462410" x="83.6075" y="264.260133" style="stroke: #000000; stroke-width: 0.8"/>
      </g>
     </g>
     <g id="text_5">
      <!-- −4 -->
      <g transform="translate(51.07 272.455758) scale(0.24 -0.24)">
       <defs>
        <path id="TeXGyreTermes-Regular-2212" d="M 3354 1389 
L 3354 1811 
L 256 1811 
L 256 1389 
L 3354 1389 
z
" transform="scale(0.015625)"/>
        <path id="TeXGyreTermes-Regular-34" d="M 3021 1069 
L 3021 1478 
L 2368 1478 
L 2368 4326 
L 2086 4326 
L 77 1478 
L 77 1069 
L 1875 1069 
L 1875 0 
L 2368 0 
L 2368 1069 
L 3021 1069 
z
M 1869 1478 
L 333 1478 
L 1869 3674 
L 1869 1478 
z
" transform="scale(0.015625)"/>
       </defs>
       <use xlink:href="#TeXGyreTermes-Regular-2212"/>
       <use xlink:href="#TeXGyreTermes-Regular-34" transform="translate(56.399994 0)"/>
      </g>
     </g>
    </g>
    <g id="ytick_2">
     <g id="line2d_9">
      <path d="M 83.6075 209.016683 
L 426.847748 209.016683 
" clip-path="url(#p28234f548f)" style="fill: none; stroke: #b0b0b0; stroke-width: 0.8; stroke-linecap: square"/>
     </g>
     <g id="line2d_10">
      <g>
       <use xlink:href="#mab8e462410" x="83.6075" y="209.016683" style="stroke: #000000; stroke-width: 0.8"/>
      </g>
     </g>
     <g id="text_6">
      <!-- −2 -->
      <g transform="translate(51.07 217.212308) scale(0.24 -0.24)">
       <defs>
        <path id="TeXGyreTermes-Regular-32" d="M 3040 877 
L 2957 909 
C 2720 544 2637 486 2349 486 
L 819 486 
L 1894 1613 
C 2464 2208 2714 2694 2714 3194 
C 2714 3834 2195 4326 1530 4326 
C 1178 4326 845 4186 608 3930 
C 403 3712 307 3507 198 3053 
L 333 3021 
C 589 3648 819 3853 1261 3853 
C 1798 3853 2163 3488 2163 2950 
C 2163 2451 1869 1856 1331 1286 
L 192 77 
L 192 0 
L 2688 0 
L 3040 877 
z
" transform="scale(0.015625)"/>
       </defs>
       <use xlink:href="#TeXGyreTermes-Regular-2212"/>
       <use xlink:href="#TeXGyreTermes-Regular-32" transform="translate(56.399994 0)"/>
      </g>
     </g>
    </g>
    <g id="ytick_3">
     <g id="line2d_11">
      <path d="M 83.6075 153.773234 
L 426.847748 153.773234 
" clip-path="url(#p28234f548f)" style="fill: none; stroke: #b0b0b0; stroke-width: 0.8; stroke-linecap: square"/>
     </g>
     <g id="line2d_12">
      <g>
       <use xlink:href="#mab8e462410" x="83.6075" y="153.773234" style="stroke: #000000; stroke-width: 0.8"/>
      </g>
     </g>
     <g id="text_7">
      <!-- 0 -->
      <g transform="translate(64.6075 161.968859) scale(0.24 -0.24)">
       <use xlink:href="#TeXGyreTermes-Regular-30"/>
      </g>
     </g>
    </g>
    <g id="ytick_4">
     <g id="line2d_13">
      <path d="M 83.6075 98.529784 
L 426.847748 98.529784 
" clip-path="url(#p28234f548f)" style="fill: none; stroke: #b0b0b0; stroke-width: 0.8; stroke-linecap: square"/>
     </g>
     <g id="line2d_14">
      <g>
       <use xlink:href="#mab8e462410" x="83.6075" y="98.529784" style="stroke: #000000; stroke-width: 0.8"/>
      </g>
     </g>
     <g id="text_8">
      <!-- 2 -->
      <g transform="translate(64.6075 106.725409) scale(0.24 -0.24)">
       <use xlink:href="#TeXGyreTermes-Regular-32"/>
      </g>
     </g>
    </g>
    <g id="ytick_5">
     <g id="line2d_15">
      <path d="M 83.6075 43.286335 
L 426.847748 43.286335 
" clip-path="url(#p28234f548f)" style="fill: none; stroke: #b0b0b0; stroke-width: 0.8; stroke-linecap: square"/>
     </g>
     <g id="line2d_16">
      <g>
       <use xlink:href="#mab8e462410" x="83.6075" y="43.286335" style="stroke: #000000; stroke-width: 0.8"/>
      </g>
     </g>
     <g id="text_9">
      <!-- 4 -->
      <g transform="translate(64.6075 51.48196) scale(0.24 -0.24)">
       <use xlink:href="#TeXGyreTermes-Regular-34"/>
      </g>
     </g>
    </g>
    <g id="text_10">
     <!-- x(k) -->
     <g transform="translate(41.86125 166.07375) rotate(-90) scale(0.24 -0.24)">
      <defs>
       <path id="TeXGyreTermes-Regular-78" d="M 3066 0 
L 3066 96 
C 2867 96 2739 198 2541 480 
L 1722 1734 
L 2253 2502 
C 2374 2675 2566 2778 2771 2784 
L 2771 2880 
L 1760 2880 
L 1760 2784 
C 1952 2771 2016 2733 2016 2643 
C 2016 2566 1939 2426 1779 2227 
C 1747 2189 1670 2074 1587 1946 
L 1498 2074 
C 1318 2342 1203 2560 1203 2643 
C 1203 2733 1286 2778 1478 2784 
L 1478 2880 
L 154 2880 
L 154 2784 
L 211 2784 
C 403 2784 506 2701 704 2400 
L 1306 1478 
L 576 422 
C 384 160 320 115 109 96 
L 109 0 
L 1037 0 
L 1037 96 
C 858 96 781 128 781 211 
C 781 250 826 346 909 474 
L 1414 1261 
L 1997 365 
C 2022 326 2035 288 2035 250 
C 2035 134 1990 109 1779 96 
L 1779 0 
L 3066 0 
z
" transform="scale(0.015625)"/>
       <path id="TeXGyreTermes-Regular-28" d="M 1946 -1030 
C 1434 -627 1254 -403 1082 77 
C 928 506 858 992 858 1632 
C 858 2304 941 2829 1114 3226 
C 1293 3622 1485 3853 1946 4224 
L 1888 4326 
C 1414 4019 1222 3853 986 3558 
C 531 3002 307 2362 307 1613 
C 307 800 544 173 1107 -480 
C 1370 -787 1536 -928 1869 -1133 
L 1946 -1030 
z
" transform="scale(0.015625)"/>
       <path id="TeXGyreTermes-Regular-29" d="M 1824 1581 
C 1824 2400 1587 3021 1024 3674 
C 762 3981 595 4122 262 4326 
L 186 4224 
C 698 3821 870 3597 1050 3117 
C 1203 2688 1274 2202 1274 1562 
C 1274 896 1190 365 1018 -26 
C 838 -429 646 -659 186 -1030 
L 243 -1133 
C 717 -826 909 -659 1146 -365 
C 1600 192 1824 832 1824 1581 
z
" transform="scale(0.015625)"/>
      </defs>
      <use xlink:href="#TeXGyreTermes-Regular-78"/>
      <use xlink:href="#TeXGyreTermes-Regular-28" transform="translate(49.999985 0)"/>
      <use xlink:href="#TeXGyreTermes-Regular-6b" transform="translate(83.299973 0)"/>
      <use xlink:href="#TeXGyreTermes-Regular-29" transform="translate(133.299957 0)"/>
     </g>
    </g>
   </g>
   <g id="line2d_17">
    <path d="M 99.209329 189.928314 
L 99.834027 132.133024 
L 100.146376 166.814555 
L 100.458725 131.46084 
L 100.771074 154.826657 
L 101.083423 206.035153 
L 101.395772 176.659031 
L 101.708121 192.829103 
L 102.02047 181.129298 
L 102.332819 196.15819 
L 102.645168 203.988353 
L 102.957517 203.303591 
L 103.269866 165.68917 
L 103.582215 195.769876 
L 103.894564 183.687309 
L 104.206912 128.915736 
L 104.519261 172.821898 
L 104.83161 141.854138 
L 105.143959 141.447854 
L 105.456308 141.743482 
L 105.768657 152.939611 
L 106.081006 158.873986 
L 106.393355 166.92419 
L 106.705704 164.616285 
L 107.018053 174.537681 
L 107.330402 167.517056 
L 107.642751 169.925405 
L 107.9551 129.027277 
L 108.267449 161.077582 
L 108.892147 121.479227 
L 109.516844 157.599747 
L 109.829193 161.656692 
L 110.141542 185.505924 
L 110.453891 173.375424 
L 110.76624 116.795654 
L 111.078589 97.254552 
L 111.390938 138.023733 
L 111.703287 147.742383 
L 112.015636 186.490252 
L 112.327985 152.445549 
L 112.640334 168.921935 
L 112.952683 126.824162 
L 113.265032 174.178269 
L 113.88973 168.040754 
L 114.202078 176.351715 
L 114.826776 210.783868 
L 115.139125 217.014108 
L 115.451474 181.233487 
L 115.763823 180.344239 
L 116.076172 249.211745 
L 116.388521 213.086749 
L 116.70087 152.708146 
L 117.013219 195.670904 
L 117.325568 219.329408 
L 117.637917 195.403406 
L 117.950266 135.847239 
L 118.262615 144.333743 
L 118.887313 121.872505 
L 119.199661 163.462668 
L 119.51201 134.113659 
L 119.824359 132.504812 
L 120.136708 158.144774 
L 120.449057 158.242181 
L 120.761406 147.45501 
L 121.073755 130.960601 
L 121.386104 138.058643 
L 121.698453 160.424811 
L 122.010802 98.883627 
L 122.323151 179.177215 
L 122.6355 152.514865 
L 122.947849 171.204937 
L 123.260198 166.001758 
L 123.572547 115.111899 
L 123.884896 176.550859 
L 124.197244 124.707562 
L 124.509593 168.722567 
L 124.821942 159.081496 
L 125.134291 115.049242 
L 125.44664 175.559447 
L 125.758989 82.802772 
L 126.071338 91.259346 
L 126.383687 89.012035 
L 126.696036 134.697259 
L 127.008385 96.256998 
L 127.945432 200.517613 
L 128.257781 140.629724 
L 128.57013 156.7337 
L 128.882479 157.077993 
L 129.194827 172.547682 
L 129.819525 73.356039 
L 130.131874 134.610697 
L 130.444223 131.377407 
L 130.756572 168.224415 
L 131.068921 156.68243 
L 131.38127 83.087525 
L 131.693619 97.738552 
L 132.318317 217.716604 
L 132.943015 116.729378 
L 133.255364 178.706539 
L 133.567713 74.661193 
L 133.880062 117.929317 
L 134.19241 138.127635 
L 134.504759 141.51237 
L 134.817108 138.703814 
L 135.129457 131.870063 
L 135.441806 182.962483 
L 135.754155 176.062466 
L 136.066504 175.764276 
L 136.378853 117.333642 
L 136.691202 164.596692 
L 137.003551 161.600762 
L 137.3159 130.921932 
L 137.628249 123.088204 
L 137.940598 127.719738 
L 138.565296 150.242509 
L 138.877645 134.658179 
L 139.189993 106.090049 
L 139.502342 123.890031 
L 139.814691 148.283479 
L 140.12704 135.028697 
L 140.439389 138.538069 
L 140.751738 190.260336 
L 141.064087 175.138641 
L 141.376436 140.845801 
L 141.688785 166.265171 
L 142.313483 102.475647 
L 142.625832 128.89768 
L 142.938181 107.643823 
L 143.25053 111.812197 
L 143.562879 105.248491 
L 143.875228 158.724752 
L 144.187576 184.633272 
L 144.812274 145.941876 
L 145.124623 160.456269 
L 145.436972 224.294464 
L 145.749321 133.483185 
L 146.06167 186.581504 
L 146.686368 209.100302 
L 146.998717 200.302424 
L 147.311066 130.012796 
L 147.623415 168.770805 
L 147.935764 181.793848 
L 148.248113 159.03739 
L 148.560462 149.227183 
L 148.872811 124.123498 
L 149.185159 139.506953 
L 149.497508 141.964508 
L 149.809857 156.691173 
L 150.122206 132.271067 
L 150.434555 132.687621 
L 150.746904 168.129698 
L 151.059253 176.39192 
L 151.371602 126.534189 
L 151.9963 142.50877 
L 152.308649 135.297963 
L 152.620998 133.447207 
L 152.933347 113.425526 
L 153.245696 126.177086 
L 153.558045 132.326215 
L 153.870394 159.339409 
L 154.182742 156.547601 
L 154.495091 142.808543 
L 154.80744 116.221497 
L 155.119789 145.522211 
L 155.432138 128.167558 
L 155.744487 104.582424 
L 156.056836 136.898851 
L 156.369185 129.06271 
L 156.681534 130.285135 
L 156.993883 114.269911 
L 157.306232 133.097487 
L 157.618581 128.969563 
L 157.93093 162.753902 
L 158.243279 154.235308 
L 158.555628 156.932525 
L 158.867977 175.237661 
L 159.180326 104.612543 
L 159.492674 155.980527 
L 159.805023 137.517047 
L 160.117372 105.647356 
L 160.429721 114.408614 
L 160.74207 148.751212 
L 161.054419 218.903721 
L 161.366768 166.16409 
L 161.679117 180.976554 
L 161.991466 157.69489 
L 162.303815 145.5714 
L 162.616164 157.551111 
L 162.928513 163.359429 
L 163.240862 151.71085 
L 163.553211 133.443968 
L 163.86556 133.990971 
L 164.177909 150.375 
L 164.490257 157.485443 
L 164.802606 130.694818 
L 165.114955 144.708988 
L 165.427304 166.600546 
L 165.739653 139.050196 
L 166.052002 156.198175 
L 166.364351 99.782639 
L 166.989049 179.67246 
L 167.301398 129.356971 
L 167.613747 139.075122 
L 167.926096 171.138312 
L 168.238445 107.313368 
L 168.550794 122.675136 
L 168.863143 90.213689 
L 169.48784 169.022173 
L 169.800189 186.102638 
L 170.112538 121.76336 
L 170.424887 197.049454 
L 170.737236 156.857869 
L 171.049585 131.022076 
L 171.361934 160.37188 
L 171.674283 113.174559 
L 171.986632 167.940385 
L 172.298981 163.877647 
L 172.61133 150.632636 
L 172.923679 188.641491 
L 173.236028 182.734662 
L 173.548377 132.3864 
L 174.485423 198.835913 
L 174.797772 233.528381 
L 175.110121 197.054567 
L 175.42247 190.087407 
L 175.734819 190.885927 
L 176.047168 167.192792 
L 176.359517 219.379971 
L 176.671866 154.031174 
L 176.984215 158.614495 
L 177.296564 169.354296 
L 177.608913 189.460721 
L 177.921262 149.389972 
L 178.233611 131.721301 
L 178.54596 182.105685 
L 178.858309 151.643197 
L 179.170658 163.774278 
L 179.483006 157.553448 
L 179.795355 142.289693 
L 180.107704 136.576795 
L 180.420053 127.002292 
L 180.732402 112.273109 
L 181.044751 145.647366 
L 181.3571 122.089276 
L 181.669449 119.838169 
L 181.981798 94.44706 
L 182.294147 165.093758 
L 182.606496 143.594841 
L 182.918845 133.22063 
L 183.231194 152.395198 
L 183.855892 88.05886 
L 184.168241 145.859454 
L 184.480589 119.922505 
L 184.792938 115.594279 
L 185.105287 162.078642 
L 185.417636 175.80515 
L 185.729985 196.609401 
L 186.042334 121.063042 
L 186.354683 145.692478 
L 186.667032 188.270609 
L 186.979381 99.210529 
L 187.29173 90.874889 
L 187.604079 164.930682 
L 187.916428 185.03792 
L 188.228777 181.167842 
L 188.541126 145.492717 
L 188.853475 146.683314 
L 189.165824 157.565987 
L 189.478172 175.609892 
L 189.790521 170.859585 
L 190.10287 144.553503 
L 190.415219 143.620789 
L 191.039917 172.713463 
L 191.352266 118.069585 
L 191.664615 132.819469 
L 191.976964 201.582166 
L 192.289313 128.090044 
L 192.601662 140.017164 
L 192.914011 130.673432 
L 193.22636 145.320727 
L 193.538709 182.217441 
L 194.163407 106.551317 
L 194.788104 190.538666 
L 195.100453 91.631346 
L 195.412802 79.901402 
L 195.725151 96.399188 
L 196.0375 140.166758 
L 196.349849 132.891204 
L 196.662198 162.457163 
L 196.974547 129.019279 
L 197.286896 118.839157 
L 197.599245 135.304652 
L 197.911594 135.968976 
L 198.223943 204.310853 
L 198.536292 160.293051 
L 198.848641 140.273463 
L 199.16099 98.16296 
L 199.473338 210.369797 
L 199.785687 127.410401 
L 200.098036 158.847403 
L 200.410385 156.937514 
L 200.722734 158.441468 
L 201.035083 149.235866 
L 201.347432 177.196177 
L 201.659781 145.005221 
L 201.97213 79.036885 
L 202.596828 189.263123 
L 203.221526 155.941122 
L 203.533875 179.477741 
L 203.846224 101.881395 
L 204.158573 162.53795 
L 204.470921 177.170108 
L 204.78327 159.446155 
L 205.095619 178.353028 
L 206.032666 100.560327 
L 206.345015 167.412037 
L 206.657364 189.467418 
L 206.969713 125.800165 
L 207.282062 120.721816 
L 207.594411 122.368529 
L 207.90676 107.261911 
L 208.219109 152.926021 
L 208.531458 170.057389 
L 208.843807 146.904684 
L 209.156156 153.761746 
L 209.468504 134.826467 
L 209.780853 166.40777 
L 210.093202 157.312659 
L 210.405551 178.544646 
L 210.7179 148.141973 
L 211.030249 189.759912 
L 211.342598 190.775835 
L 211.967296 124.231035 
L 212.279645 122.332794 
L 212.591994 134.748233 
L 212.904343 138.705881 
L 213.216692 206.491709 
L 213.529041 140.939483 
L 213.84139 179.98578 
L 214.153739 149.755978 
L 214.466087 169.927788 
L 214.778436 145.646501 
L 215.090785 193.426556 
L 215.403134 134.866225 
L 215.715483 108.71743 
L 216.027832 120.865063 
L 216.340181 162.926258 
L 216.65253 129.762108 
L 216.964879 134.267738 
L 217.277228 95.6197 
L 217.589577 137.97275 
L 217.901926 135.168942 
L 218.214275 186.945506 
L 218.526624 214.291134 
L 218.838973 230.486983 
L 219.151322 199.874393 
L 219.46367 125.679271 
L 219.776019 116.920919 
L 220.088368 187.205094 
L 220.400717 179.216367 
L 220.713066 120.031407 
L 221.025415 91.941447 
L 221.337764 111.039042 
L 221.650113 195.627699 
L 221.962462 191.275567 
L 222.274811 128.119275 
L 222.58716 162.194231 
L 222.899509 151.469653 
L 223.211858 170.392029 
L 223.524207 160.68085 
L 223.836556 140.452005 
L 224.148905 148.876264 
L 224.461254 129.617804 
L 224.773602 94.499179 
L 225.085951 166.278402 
L 225.3983 128.165798 
L 225.710649 127.195544 
L 226.022998 151.856011 
L 226.335347 115.720169 
L 226.647696 118.538127 
L 226.960045 140.37014 
L 227.272394 176.420551 
L 227.584743 120.099389 
L 227.897092 141.908373 
L 228.209441 110.912073 
L 228.52179 160.968163 
L 228.834139 137.913831 
L 229.146488 139.42667 
L 229.458837 173.752607 
L 229.771185 182.981815 
L 230.083534 181.119479 
L 230.395883 142.952711 
L 230.708232 230.42905 
L 231.020581 156.321828 
L 231.33293 133.793857 
L 231.645279 151.016687 
L 231.957628 117.639035 
L 232.269977 71.831703 
L 232.582326 182.656874 
L 233.207024 121.416328 
L 233.519373 146.623522 
L 233.831722 150.638428 
L 234.144071 160.735993 
L 234.45642 132.115518 
L 234.768768 174.421368 
L 235.081117 200.481952 
L 235.393466 144.611037 
L 235.705815 108.97321 
L 236.018164 131.935563 
L 236.330513 143.66601 
L 236.642862 125.075958 
L 236.955211 164.309995 
L 237.26756 130.729155 
L 237.579909 132.476539 
L 237.892258 151.574408 
L 238.204607 133.585317 
L 238.516956 169.396018 
L 238.829305 164.329592 
L 239.454003 145.443054 
L 239.766351 162.947993 
L 240.0787 129.256877 
L 240.391049 137.434644 
L 240.703398 157.384008 
L 241.015747 135.749214 
L 241.328096 143.790304 
L 241.640445 139.922524 
L 241.952794 126.793377 
L 242.265143 136.575939 
L 242.889841 125.309126 
L 243.20219 137.33937 
L 243.514539 166.714525 
L 243.826888 148.226154 
L 244.139237 96.919226 
L 244.451586 139.336548 
L 244.763934 120.12423 
L 245.076283 137.969644 
L 245.388632 110.185199 
L 245.700981 140.789453 
L 246.01333 123.804119 
L 246.325679 176.927729 
L 246.638028 168.770739 
L 246.950377 173.542151 
L 247.262726 150.948066 
L 247.887424 140.522968 
L 248.199773 95.909901 
L 248.512122 179.716053 
L 248.824471 129.273368 
L 249.449169 204.042405 
L 249.761517 137.812545 
L 250.386215 158.602771 
L 250.698564 128.580953 
L 251.010913 157.748955 
L 251.323262 36.843864 
L 251.635611 150.161733 
L 251.94796 106.272865 
L 252.885007 176.504911 
L 253.197356 94.928398 
L 253.509705 154.530572 
L 254.134403 82.864471 
L 254.446752 156.786138 
L 254.7591 127.692888 
L 255.071449 150.983582 
L 255.383798 136.856596 
L 256.008496 164.29607 
L 256.320845 143.828586 
L 256.633194 149.708736 
L 256.945543 177.940946 
L 257.257892 126.985235 
L 257.570241 155.935631 
L 257.88259 88.277487 
L 258.194939 126.79459 
L 258.507288 134.166708 
L 258.819637 197.042249 
L 259.131986 189.297066 
L 259.444335 110.070362 
L 260.069032 172.994816 
L 260.381381 150.937817 
L 260.69373 187.963802 
L 261.006079 161.320408 
L 261.318428 193.864608 
L 261.630777 158.927141 
L 261.943126 167.306478 
L 262.255475 150.040084 
L 262.567824 185.454912 
L 262.880173 137.750512 
L 263.192522 182.258428 
L 263.504871 208.961927 
L 264.129569 163.704931 
L 264.441918 155.264193 
L 264.754266 172.427232 
L 265.066615 140.854979 
L 265.378964 170.904257 
L 265.691313 127.208734 
L 266.003662 142.337778 
L 266.316011 187.456566 
L 266.62836 177.361304 
L 266.940709 107.497908 
L 267.253058 137.175294 
L 267.565407 179.798247 
L 268.502454 110.867189 
L 268.814803 142.415637 
L 269.127152 187.41681 
L 269.439501 168.409554 
L 269.751849 107.877046 
L 270.064198 115.63148 
L 270.376547 141.046669 
L 270.688896 109.329495 
L 271.001245 130.470198 
L 271.313594 168.705336 
L 271.625943 132.699297 
L 271.938292 158.616841 
L 272.250641 144.386632 
L 272.56299 142.635279 
L 272.875339 147.799619 
L 273.187688 211.098056 
L 273.500037 220.370132 
L 273.812386 127.539756 
L 274.437084 205.29792 
L 274.749432 154.221143 
L 275.061781 156.739811 
L 275.37413 183.95418 
L 275.686479 160.477516 
L 276.311177 156.575357 
L 276.623526 211.035772 
L 276.935875 159.509822 
L 277.248224 161.249371 
L 277.560573 137.587896 
L 277.872922 162.358667 
L 278.185271 140.993508 
L 278.49762 130.640557 
L 278.809969 160.171848 
L 279.122318 166.335545 
L 279.434667 141.159632 
L 279.747015 91.566224 
L 280.059364 134.28941 
L 280.371713 118.197939 
L 280.684062 133.107597 
L 280.996411 111.721886 
L 281.30876 164.571273 
L 281.621109 156.962499 
L 281.933458 131.388962 
L 282.245807 151.729765 
L 282.558156 161.336107 
L 282.870505 155.563057 
L 283.495203 131.865829 
L 283.807552 146.227663 
L 284.119901 180.720275 
L 284.43225 164.144392 
L 284.744598 190.508397 
L 285.056947 120.579624 
L 285.369296 110.665013 
L 285.681645 116.599182 
L 285.993994 90.881188 
L 286.306343 147.722659 
L 286.618692 118.13565 
L 287.24339 97.779409 
L 287.555739 93.140944 
L 287.868088 131.656379 
L 288.180437 66.789069 
L 288.492786 139.000649 
L 288.805135 115.858194 
L 289.117484 114.837491 
L 289.429833 160.508697 
L 289.742182 176.9787 
L 290.05453 126.230085 
L 290.366879 116.346661 
L 290.679228 91.134804 
L 290.991577 101.954967 
L 291.303926 105.152466 
L 291.616275 141.514378 
L 292.240973 124.545457 
L 292.553322 96.868988 
L 292.865671 112.995026 
L 293.17802 117.34156 
L 293.490369 105.132524 
L 293.802718 123.060572 
L 294.115067 97.528472 
L 294.427416 105.123111 
L 294.739765 68.949783 
L 295.052113 94.848768 
L 295.364462 131.130996 
L 295.676811 151.921979 
L 295.98916 105.304126 
L 296.301509 107.630128 
L 296.613858 127.184148 
L 296.926207 67.073557 
L 297.238556 117.5351 
L 297.550905 124.564432 
L 297.863254 85.634654 
L 298.175603 161.30058 
L 298.487952 207.462514 
L 298.800301 115.508349 
L 299.424999 184.361744 
L 299.737348 104.596358 
L 300.049696 108.85855 
L 300.362045 140.544717 
L 300.674394 151.354502 
L 300.986743 110.300753 
L 301.299092 155.741628 
L 301.611441 128.191102 
L 301.92379 112.842582 
L 302.236139 108.470704 
L 302.548488 176.209214 
L 302.860837 181.581724 
L 303.173186 156.30463 
L 303.485535 195.100106 
L 303.797884 158.986013 
L 304.110233 107.859387 
L 304.422582 124.51918 
L 304.734931 147.942867 
L 305.047279 155.707666 
L 305.359628 185.374772 
L 305.671977 138.559495 
L 305.984326 166.245993 
L 306.296675 180.005604 
L 306.921373 108.031259 
L 307.233722 128.846612 
L 307.546071 195.571408 
L 307.85842 110.09941 
L 308.170769 149.629286 
L 308.483118 120.672485 
L 308.795467 137.131695 
L 309.107816 136.060219 
L 309.420165 150.972623 
L 309.732514 144.49364 
L 310.044862 184.799033 
L 310.357211 150.87782 
L 310.66956 212.735397 
L 310.981909 172.903343 
L 311.294258 148.071605 
L 311.918956 183.1485 
L 312.231305 207.188882 
L 312.543654 204.365315 
L 312.856003 202.853128 
L 313.168352 166.246617 
L 313.480701 101.899044 
L 314.105399 201.157845 
L 314.417748 184.278416 
L 314.730097 149.814744 
L 315.042445 158.033219 
L 315.354794 145.524549 
L 315.667143 151.898652 
L 315.979492 135.947333 
L 316.291841 143.091516 
L 316.60419 105.473654 
L 316.916539 111.567664 
L 317.228888 173.034162 
L 317.541237 133.194928 
L 317.853586 132.433063 
L 318.165935 155.030729 
L 318.478284 161.636178 
L 318.790633 146.351246 
L 319.415331 191.113359 
L 319.72768 139.004964 
L 320.040028 197.569844 
L 320.352377 214.197969 
L 320.977075 113.490148 
L 321.289424 133.750241 
L 321.601773 131.798989 
L 321.914122 137.177312 
L 322.226471 169.274652 
L 322.53882 188.233245 
L 322.851169 118.030403 
L 323.163518 82.350086 
L 323.475867 132.803143 
L 323.788216 107.289934 
L 324.100565 122.561652 
L 324.412914 151.263536 
L 324.725263 133.497382 
L 325.037611 138.080837 
L 325.34996 108.886197 
L 325.662309 159.774981 
L 325.974658 165.665053 
L 326.287007 128.205406 
L 326.599356 205.81867 
L 326.911705 115.348778 
L 327.224054 139.345501 
L 327.536403 139.632853 
L 327.848752 179.624799 
L 328.161101 181.624979 
L 328.47345 135.543422 
L 328.785799 171.354613 
L 329.098148 137.556699 
L 329.410497 137.121036 
L 329.722846 131.723194 
L 330.035194 153.250372 
L 330.347543 142.210675 
L 330.972241 154.487417 
L 331.28459 171.421568 
L 331.596939 194.437498 
L 331.909288 103.913027 
L 332.221637 193.505887 
L 332.533986 126.688562 
L 332.846335 165.7848 
L 333.158684 123.869905 
L 333.471033 132.267452 
L 333.783382 163.229231 
L 334.095731 177.222473 
L 334.40808 164.05283 
L 334.720429 124.496793 
L 335.032777 143.073803 
L 335.345126 216.181568 
L 335.657475 183.060198 
L 335.969824 205.783902 
L 336.282173 175.165679 
L 336.594522 170.686943 
L 336.906871 174.564517 
L 337.21922 166.990295 
L 337.531569 146.203815 
L 337.843918 159.979839 
L 338.156267 130.937781 
L 338.468616 130.869691 
L 338.780965 151.623879 
L 339.405663 203.173115 
L 339.718012 172.183495 
L 340.03036 157.476341 
L 340.342709 133.29664 
L 340.655058 143.41055 
L 340.967407 186.87422 
L 341.592105 148.529881 
L 341.904454 190.509089 
L 342.216803 205.4784 
L 342.529152 172.494947 
L 342.841501 172.949906 
L 343.15385 205.559471 
L 343.466199 179.768875 
L 343.778548 177.918678 
L 344.090897 146.793279 
L 344.403246 148.277909 
L 344.715595 136.100107 
L 345.027943 172.583275 
L 345.340292 192.223029 
L 345.652641 168.323499 
L 345.96499 109.197073 
L 346.277339 144.466975 
L 346.589688 151.630899 
L 346.902037 150.588368 
L 347.214386 126.992899 
L 347.526735 158.345236 
L 347.839084 203.537312 
L 348.151433 184.379378 
L 348.463782 149.723169 
L 348.776131 177.159629 
L 349.08848 188.881112 
L 349.400829 182.717913 
L 349.713178 149.519623 
L 350.025526 189.225065 
L 350.337875 160.013614 
L 350.650224 155.008544 
L 350.962573 131.077141 
L 351.274922 211.743212 
L 351.587271 198.632484 
L 351.89962 150.634073 
L 352.211969 131.624451 
L 352.524318 150.294939 
L 352.836667 142.085536 
L 353.149016 157.783843 
L 353.773714 113.169055 
L 354.086063 165.391864 
L 354.398412 153.577144 
L 354.710761 175.246517 
L 355.02311 223.410135 
L 355.335458 163.793126 
L 355.647807 166.828207 
L 355.960156 163.982689 
L 356.272505 182.146472 
L 356.584854 124.772782 
L 356.897203 174.089387 
L 357.209552 147.245768 
L 357.521901 141.430202 
L 357.83425 195.932275 
L 358.146599 187.369781 
L 358.458948 120.686274 
L 358.771297 179.986833 
L 359.083646 170.824459 
L 359.395995 115.639141 
L 359.708344 113.454533 
L 360.020693 101.407823 
L 360.333041 168.639252 
L 360.64539 164.222242 
L 360.957739 105.520294 
L 361.270088 148.729807 
L 361.582437 160.701132 
L 361.894786 112.845261 
L 362.207135 174.307431 
L 362.519484 115.25112 
L 362.831833 175.857794 
L 363.144182 180.413028 
L 363.456531 214.519715 
L 364.081229 138.176177 
L 364.705927 175.035489 
L 365.018276 218.70363 
L 365.330624 228.497787 
L 365.642973 169.146745 
L 365.955322 179.151687 
L 366.267671 145.102652 
L 366.58002 127.343344 
L 366.892369 151.43117 
L 367.204718 135.492585 
L 367.517067 145.561394 
L 368.141765 178.561048 
L 368.454114 171.900661 
L 368.766463 139.608068 
L 369.078812 170.359879 
L 369.391161 185.902633 
L 369.70351 137.784726 
L 370.015859 50.001744 
L 370.640556 115.195921 
L 370.952905 103.158847 
L 371.265254 136.110804 
L 371.577603 73.104536 
L 372.51465 155.669017 
L 372.826999 132.950093 
L 373.139348 165.746654 
L 373.451697 82.292621 
L 374.076395 170.89446 
L 374.388744 177.287403 
L 374.701093 145.55629 
L 375.013442 205.501847 
L 375.32579 196.310477 
L 375.638139 127.653465 
L 375.950488 181.627847 
L 376.262837 198.583697 
L 376.575186 142.280499 
L 376.887535 170.486808 
L 377.199884 132.193948 
L 377.512233 152.750779 
L 377.824582 151.759123 
L 378.136931 183.976739 
L 378.44928 194.091576 
L 378.761629 189.666377 
L 379.073978 159.006577 
L 379.386327 196.693138 
L 379.698676 136.309192 
L 380.011025 133.441965 
L 380.323373 143.047263 
L 380.635722 133.772188 
L 380.948071 147.045475 
L 381.26042 113.722213 
L 381.572769 149.021625 
L 382.197467 136.637283 
L 382.509816 112.524967 
L 382.822165 158.409047 
L 383.134514 142.263109 
L 383.446863 160.193078 
L 383.759212 142.416348 
L 384.071561 173.812206 
L 384.38391 144.190461 
L 384.696259 139.755369 
L 385.008608 114.821426 
L 385.320956 190.360929 
L 385.633305 167.408548 
L 385.945654 164.76162 
L 386.258003 144.785634 
L 386.570352 102.660417 
L 386.882701 157.407379 
L 387.19505 174.932335 
L 387.507399 147.774584 
L 387.819748 184.421553 
L 388.132097 137.102667 
L 388.444446 125.705394 
L 388.756795 166.556398 
L 389.069144 171.055298 
L 389.381493 159.044795 
L 389.693842 177.710546 
L 390.006191 169.756338 
L 390.318539 153.109476 
L 390.630888 167.83838 
L 390.943237 171.907288 
L 391.255586 199.565847 
L 391.567935 170.30336 
L 391.880284 200.177898 
L 392.192633 159.888148 
L 392.504982 170.066661 
L 392.817331 142.401461 
L 393.12968 151.419392 
L 393.442029 178.961582 
L 393.754378 159.438157 
L 394.066727 167.82073 
L 394.691425 102.624085 
L 395.003774 100.062307 
L 395.316122 84.051492 
L 395.628471 107.853972 
L 395.94082 112.676633 
L 396.253169 159.993191 
L 396.565518 168.765435 
L 396.877867 94.372557 
L 397.190216 137.703329 
L 397.502565 144.979178 
L 397.814914 192.814003 
L 398.127263 193.299143 
L 398.439612 196.287269 
L 398.751961 145.311882 
L 399.06431 170.518364 
L 399.376659 127.198156 
L 400.001357 215.772567 
L 400.313705 183.585428 
L 400.626054 179.282804 
L 400.938403 192.797662 
L 401.250752 167.476425 
L 401.563101 165.585055 
L 401.87545 198.285249 
L 402.187799 178.942636 
L 402.500148 147.804298 
L 402.812497 171.035142 
L 403.124846 141.884562 
L 403.437195 144.909667 
L 403.749544 175.35866 
L 404.061893 181.928686 
L 404.374242 182.737401 
L 404.686591 191.736022 
L 404.99894 140.618075 
L 405.311288 179.370003 
L 405.623637 150.442782 
L 405.935986 145.658226 
L 406.248335 138.421708 
L 406.560684 176.716999 
L 406.873033 162.681965 
L 407.185382 128.119138 
L 407.497731 191.709791 
L 408.122429 165.892524 
L 408.434778 170.188812 
L 408.747127 199.476379 
L 409.059476 143.413433 
L 409.371825 157.616115 
L 409.996523 142.976522 
L 410.62122 168.531666 
L 410.933569 235.056906 
L 411.245918 205.059499 
L 411.245918 205.059499 
" clip-path="url(#p28234f548f)" style="fill: none; stroke: #1f77b4; stroke-width: 2; stroke-linecap: square"/>
   </g>
   <g id="line2d_18">
    <path d="M 99.209329 179.509551 
L 99.521678 130.547743 
L 99.834027 183.754564 
L 100.146376 156.383719 
L 100.458725 165.570153 
L 100.771074 147.821681 
L 101.083423 122.444359 
L 101.395772 149.76549 
L 101.708121 128.79593 
L 102.02047 145.634029 
L 102.332819 122.629142 
L 102.645168 145.809186 
L 102.957517 129.051849 
L 103.269866 135.966851 
L 103.582215 121.89417 
L 103.894564 76.101049 
L 104.519261 173.9959 
L 104.83161 169.314458 
L 105.143959 108.709187 
L 105.456308 80.514734 
L 105.768657 144.105241 
L 106.081006 149.508091 
L 106.393355 164.451324 
L 106.705704 137.662395 
L 107.018053 149.657541 
L 107.330402 175.804427 
L 107.9551 143.736624 
L 108.267449 177.325653 
L 108.579798 154.277035 
L 108.892147 100.736497 
L 109.204495 125.720456 
L 109.516844 116.025177 
L 109.829193 128.647889 
L 110.141542 159.499813 
L 110.453891 125.710096 
L 110.76624 66.734498 
L 111.078589 108.911317 
L 111.390938 96.971968 
L 112.015636 157.183972 
L 112.327985 92.824895 
L 112.640334 96.493541 
L 112.952683 120.997224 
L 113.265032 113.280011 
L 113.577381 136.927696 
L 113.88973 110.912408 
L 114.202078 165.163885 
L 114.514427 157.846777 
L 114.826776 186.636764 
L 115.139125 116.162723 
L 115.451474 109.463792 
L 115.763823 154.043245 
L 116.076172 168.226755 
L 116.388521 164.140064 
L 116.70087 144.178252 
L 117.013219 112.463188 
L 117.325568 132.684113 
L 117.637917 77.042703 
L 118.262615 150.421618 
L 118.574964 95.501409 
L 118.887313 177.807472 
L 119.199661 134.187376 
L 119.51201 109.77687 
L 119.824359 189.927479 
L 120.136708 141.924174 
L 120.449057 204.456876 
L 120.761406 144.973045 
L 121.073755 129.713021 
L 121.386104 123.932123 
L 121.698453 156.300436 
L 122.010802 142.950959 
L 122.323151 160.74597 
L 122.6355 192.145221 
L 122.947849 168.649881 
L 123.260198 156.682314 
L 123.572547 156.850946 
L 123.884896 201.148918 
L 124.197244 125.306618 
L 124.509593 161.589475 
L 124.821942 139.861954 
L 125.134291 163.723203 
L 125.44664 145.795377 
L 125.758989 154.047189 
L 126.071338 140.949023 
L 126.383687 136.051202 
L 126.696036 126.340047 
L 127.008385 134.832833 
L 127.320734 93.249848 
L 127.633083 107.771133 
L 127.945432 76.567649 
L 128.257781 112.597487 
L 128.57013 123.976641 
L 128.882479 126.975423 
L 129.507176 154.835448 
L 129.819525 148.044804 
L 130.131874 174.234905 
L 130.444223 137.519873 
L 130.756572 143.197373 
L 131.068921 105.908519 
L 131.38127 123.038752 
L 131.693619 177.084013 
L 132.005968 152.567383 
L 132.318317 144.100549 
L 132.630666 119.575316 
L 132.943015 104.883336 
L 133.567713 138.067462 
L 133.880062 163.104756 
L 134.19241 154.065834 
L 134.504759 134.74119 
L 134.817108 130.512808 
L 135.129457 135.306365 
L 135.441806 121.069507 
L 135.754155 100.525297 
L 136.066504 131.962955 
L 136.378853 151.769669 
L 136.691202 157.928479 
L 137.003551 113.150201 
L 137.3159 137.492687 
L 137.628249 150.444101 
L 137.940598 185.610763 
L 138.252947 129.612341 
L 138.565296 119.562086 
L 138.877645 140.019032 
L 139.189993 99.944542 
L 139.502342 168.539735 
L 140.12704 151.880762 
L 140.439389 170.087046 
L 140.751738 151.578441 
L 141.064087 167.855544 
L 141.376436 133.047184 
L 141.688785 116.9405 
L 142.001134 147.853611 
L 142.625832 133.231322 
L 142.938181 95.631166 
L 143.25053 108.149689 
L 143.562879 87.234596 
L 143.875228 162.455138 
L 144.187576 173.837332 
L 144.499925 106.850851 
L 144.812274 102.520871 
L 145.124623 187.088556 
L 145.436972 114.780982 
L 145.749321 163.282483 
L 146.06167 174.850082 
L 146.374019 104.790151 
L 146.686368 165.974122 
L 146.998717 150.282363 
L 147.311066 181.914431 
L 147.623415 137.158921 
L 147.935764 156.773887 
L 148.248113 149.903181 
L 148.560462 105.972336 
L 148.872811 115.528906 
L 149.185159 163.114147 
L 149.497508 167.150131 
L 150.122206 141.948086 
L 150.434555 112.786083 
L 150.746904 113.136874 
L 151.059253 147.776039 
L 151.371602 147.221041 
L 151.683951 157.258425 
L 151.9963 130.726747 
L 152.308649 125.026675 
L 152.620998 186.36177 
L 152.933347 143.690464 
L 153.245696 138.056999 
L 153.558045 164.532587 
L 153.870394 153.627649 
L 154.182742 153.389422 
L 154.495091 166.694584 
L 154.80744 174.375261 
L 155.119789 149.229074 
L 155.432138 178.969775 
L 155.744487 142.521534 
L 156.369185 212.51729 
L 156.681534 177.33422 
L 156.993883 160.930658 
L 157.306232 100.915892 
L 157.618581 131.677593 
L 157.93093 174.624166 
L 158.243279 166.880259 
L 158.555628 180.561646 
L 158.867977 108.378985 
L 159.492674 153.082102 
L 159.805023 204.51362 
L 160.117372 128.868078 
L 160.429721 104.04724 
L 160.74207 116.457059 
L 161.054419 168.320523 
L 161.366768 126.076716 
L 161.679117 150.011935 
L 162.303815 164.008607 
L 162.616164 164.163796 
L 162.928513 154.749777 
L 163.553211 146.917369 
L 163.86556 171.846119 
L 164.177909 93.34639 
L 164.490257 163.927699 
L 164.802606 177.578355 
L 165.427304 121.954544 
L 165.739653 163.531537 
L 166.052002 166.283959 
L 166.364351 159.146942 
L 166.6767 149.167701 
L 166.989049 154.61305 
L 167.301398 137.719209 
L 167.613747 144.77408 
L 167.926096 181.755313 
L 168.238445 198.487951 
L 168.550794 174.619639 
L 168.863143 133.534855 
L 169.48784 182.25404 
L 169.800189 143.431272 
L 170.112538 189.088858 
L 170.424887 141.919372 
L 170.737236 133.171622 
L 171.049585 134.822448 
L 171.361934 152.569656 
L 171.674283 161.609535 
L 171.986632 161.288207 
L 172.298981 147.294032 
L 172.61133 176.398984 
L 172.923679 172.259606 
L 173.236028 145.066859 
L 173.548377 193.833639 
L 173.860726 202.544 
L 174.173075 191.525921 
L 174.485423 211.493893 
L 174.797772 162.906179 
L 175.110121 185.333798 
L 175.42247 148.114074 
L 176.047168 204.600348 
L 176.359517 119.876806 
L 176.671866 130.576777 
L 176.984215 155.882609 
L 177.296564 211.591165 
L 177.608913 186.200113 
L 177.921262 202.945834 
L 178.233611 200.482661 
L 178.54596 232.475452 
L 178.858309 177.293805 
L 179.170658 164.817352 
L 179.795355 178.358646 
L 180.107704 158.796223 
L 180.420053 174.693082 
L 180.732402 182.00884 
L 181.3571 147.280379 
L 181.669449 255.321136 
L 182.294147 170.198804 
L 182.606496 184.655466 
L 182.918845 154.619967 
L 183.231194 101.865911 
L 183.543543 116.519662 
L 183.855892 187.579629 
L 184.168241 183.916283 
L 184.480589 155.394416 
L 184.792938 195.894505 
L 185.417636 143.942099 
L 185.729985 161.316049 
L 186.042334 187.441721 
L 186.354683 191.556355 
L 186.667032 177.524216 
L 186.979381 206.670367 
L 187.29173 177.71262 
L 187.604079 160.523582 
L 187.916428 224.095352 
L 188.228777 192.377045 
L 188.541126 199.293061 
L 188.853475 153.149339 
L 189.165824 130.111796 
L 189.478172 118.912156 
L 189.790521 228.11508 
L 190.10287 141.1113 
L 190.415219 144.719323 
L 190.727568 180.883014 
L 191.039917 151.806277 
L 191.352266 203.457461 
L 191.664615 162.463718 
L 191.976964 163.683847 
L 192.289313 172.294406 
L 192.601662 216.662512 
L 192.914011 146.80785 
L 193.22636 171.851456 
L 193.851058 180.681681 
L 194.163407 144.67647 
L 194.475755 185.036536 
L 194.788104 170.949215 
L 195.100453 203.16173 
L 195.725151 122.469683 
L 196.349849 183.848057 
L 196.662198 193.201407 
L 196.974547 137.041165 
L 197.286896 177.310511 
L 197.599245 85.323247 
L 197.911594 170.217063 
L 198.223943 124.74474 
L 198.848641 191.183117 
L 199.785687 118.600939 
L 200.098036 191.891064 
L 200.410385 157.496603 
L 200.722734 166.563259 
L 201.035083 189.337905 
L 201.347432 228.478887 
L 201.659781 160.917837 
L 201.97213 214.508127 
L 202.284479 185.648022 
L 202.596828 214.390809 
L 202.909177 207.007135 
L 203.221526 188.484229 
L 203.533875 139.884761 
L 203.846224 190.848969 
L 204.158573 157.849115 
L 204.470921 207.691496 
L 204.78327 204.131727 
L 205.095619 192.868336 
L 205.407968 193.802284 
L 205.720317 233.989255 
L 206.032666 175.019067 
L 206.345015 177.274331 
L 206.657364 196.50025 
L 206.969713 149.476191 
L 207.282062 140.08112 
L 207.594411 150.938825 
L 207.90676 153.976514 
L 208.219109 95.236834 
L 208.531458 130.81185 
L 208.843807 142.073608 
L 209.156156 111.292908 
L 209.468504 156.676388 
L 209.780853 155.552775 
L 210.093202 143.741682 
L 210.405551 191.350013 
L 210.7179 170.705604 
L 211.030249 140.650185 
L 211.342598 146.500479 
L 211.654947 120.262759 
L 211.967296 132.254681 
L 212.279645 135.363993 
L 212.591994 125.061431 
L 212.904343 144.548552 
L 213.216692 96.229102 
L 213.84139 156.384977 
L 214.153739 174.819577 
L 214.466087 133.157455 
L 214.778436 136.265532 
L 215.090785 148.662306 
L 215.403134 152.93124 
L 215.715483 153.110736 
L 216.340181 173.334133 
L 216.65253 173.17958 
L 216.964879 188.421513 
L 217.277228 163.912452 
L 217.589577 167.405584 
L 218.214275 111.493643 
L 218.526624 133.229967 
L 218.838973 130.714386 
L 219.151322 125.113304 
L 219.46367 169.192763 
L 219.776019 145.587552 
L 220.088368 135.125979 
L 220.400717 137.440403 
L 220.713066 123.064249 
L 221.025415 150.979629 
L 221.337764 120.935573 
L 221.650113 175.734123 
L 221.962462 136.546278 
L 222.274811 111.79327 
L 222.58716 127.020969 
L 222.899509 132.040567 
L 223.211858 118.842056 
L 223.524207 114.854278 
L 223.836556 172.201849 
L 224.148905 166.524546 
L 224.461254 157.018495 
L 224.773602 111.634209 
L 225.085951 104.492434 
L 225.3983 139.050988 
L 225.710649 138.778559 
L 226.022998 114.938515 
L 226.335347 170.569786 
L 226.647696 154.447099 
L 226.960045 154.350108 
L 227.272394 127.486704 
L 227.584743 111.911973 
L 227.897092 129.934439 
L 228.209441 115.824694 
L 228.834139 163.263706 
L 229.146488 101.529675 
L 229.458837 187.463961 
L 229.771185 137.670852 
L 230.083534 124.965764 
L 230.395883 133.980475 
L 230.708232 148.818101 
L 231.020581 139.016664 
L 231.33293 137.49655 
L 231.645279 197.771225 
L 232.269977 148.141341 
L 232.582326 154.64418 
L 232.894675 114.935781 
L 233.519373 147.026944 
L 233.831722 130.567571 
L 234.144071 159.380149 
L 234.45642 171.316977 
L 234.768768 107.138408 
L 235.081117 97.345202 
L 235.705815 148.428255 
L 236.018164 144.324122 
L 236.330513 137.686564 
L 236.642862 148.804204 
L 236.955211 134.115081 
L 237.26756 133.076165 
L 237.579909 133.229335 
L 237.892258 121.444213 
L 238.204607 135.070893 
L 238.516956 120.571676 
L 238.829305 185.391518 
L 239.141654 179.077763 
L 239.454003 142.545362 
L 239.766351 147.844752 
L 240.0787 129.063165 
L 240.391049 136.706652 
L 241.015747 170.816349 
L 241.328096 154.193695 
L 241.640445 67.707787 
L 241.952794 160.898256 
L 242.265143 158.542628 
L 242.577492 190.006349 
L 242.889841 109.827914 
L 243.514539 167.769461 
L 243.826888 172.062975 
L 244.139237 158.231439 
L 244.451586 152.908497 
L 244.763934 134.516199 
L 245.076283 142.855516 
L 245.388632 139.072123 
L 245.700981 136.827925 
L 246.01333 155.454759 
L 246.638028 116.540331 
L 246.950377 127.747095 
L 247.262726 163.671416 
L 247.575075 153.92808 
L 247.887424 132.084969 
L 248.199773 219.443756 
L 248.824471 158.809956 
L 249.13682 152.204872 
L 249.449169 218.831487 
L 249.761517 174.849064 
L 250.073866 179.20935 
L 250.386215 188.054248 
L 250.698564 221.897488 
L 251.010913 182.799837 
L 251.323262 195.197091 
L 251.94796 132.51048 
L 252.260309 141.405925 
L 252.572658 126.788238 
L 253.197356 133.853198 
L 253.509705 160.636656 
L 253.822054 112.995419 
L 254.134403 130.974 
L 254.446752 130.411828 
L 254.7591 105.052412 
L 255.071449 100.206497 
L 255.383798 172.215119 
L 256.008496 90.02115 
L 256.633194 106.931313 
L 256.945543 169.922506 
L 257.257892 115.096248 
L 257.570241 105.15729 
L 257.88259 111.642279 
L 258.194939 143.626386 
L 258.507288 147.073516 
L 258.819637 111.621748 
L 259.131986 92.403172 
L 259.444335 112.174719 
L 259.756683 97.275 
L 260.069032 88.263864 
L 260.381381 151.266748 
L 260.69373 115.299669 
L 261.006079 163.593219 
L 261.318428 103.394882 
L 261.630777 81.921682 
L 261.943126 116.862159 
L 262.255475 93.822909 
L 262.880173 212.392218 
L 263.192522 190.48101 
L 263.504871 184.318897 
L 263.81722 207.796273 
L 264.129569 156.297715 
L 264.754266 163.241164 
L 265.066615 182.256172 
L 265.378964 166.797902 
L 265.691313 109.797478 
L 266.003662 166.535395 
L 266.316011 117.933329 
L 266.62836 141.239664 
L 266.940709 119.820393 
L 267.253058 151.572325 
L 267.565407 108.981768 
L 267.877756 87.246754 
L 268.190105 130.114574 
L 268.502454 205.461806 
L 268.814803 222.537467 
L 269.127152 107.690729 
L 269.439501 148.50951 
L 269.751849 166.871848 
L 270.064198 157.517243 
L 270.376547 129.812062 
L 270.688896 117.794761 
L 271.001245 154.70817 
L 271.313594 148.641206 
L 271.625943 194.272382 
L 272.250641 149.26056 
L 272.56299 204.224866 
L 272.875339 184.431251 
L 273.187688 222.709793 
L 273.500037 190.408345 
L 273.812386 136.257074 
L 274.124735 147.78486 
L 274.437084 189.056379 
L 274.749432 131.530263 
L 275.061781 147.189546 
L 275.37413 111.815648 
L 275.686479 114.181648 
L 275.998828 115.158612 
L 276.311177 102.177894 
L 276.623526 126.824776 
L 276.935875 108.821922 
L 277.248224 178.659276 
L 277.560573 136.027741 
L 277.872922 115.639748 
L 278.185271 161.577588 
L 278.809969 147.298568 
L 279.122318 130.536558 
L 279.434667 120.537064 
L 279.747015 106.608174 
L 280.059364 181.633898 
L 280.371713 178.030339 
L 280.684062 186.201907 
L 280.996411 159.49578 
L 281.30876 172.915259 
L 281.621109 196.966329 
L 281.933458 166.874726 
L 282.245807 113.972297 
L 282.558156 133.31889 
L 282.870505 112.820126 
L 283.182854 106.557478 
L 283.495203 146.819311 
L 283.807552 119.664035 
L 284.119901 166.983493 
L 284.43225 169.986064 
L 284.744598 158.97537 
L 285.056947 161.719868 
L 285.369296 126.291605 
L 285.993994 187.248887 
L 286.306343 152.320648 
L 286.618692 146.381687 
L 286.931041 176.869873 
L 287.24339 161.888971 
L 287.555739 187.581095 
L 287.868088 131.569818 
L 288.180437 130.582025 
L 288.492786 124.445645 
L 288.805135 168.421828 
L 289.117484 183.969166 
L 289.429833 141.278155 
L 289.742182 124.810006 
L 290.05453 204.396995 
L 290.366879 137.493155 
L 290.679228 144.081706 
L 291.303926 111.748343 
L 291.616275 193.075183 
L 291.928624 143.746278 
L 292.240973 172.703313 
L 292.553322 187.158759 
L 292.865671 233.675398 
L 293.17802 183.564051 
L 293.490369 185.739934 
L 294.427416 139.91314 
L 294.739765 203.166977 
L 295.364462 153.753956 
L 295.676811 165.670585 
L 295.98916 187.146006 
L 296.301509 149.603222 
L 296.613858 184.385186 
L 297.238556 220.582268 
L 297.550905 191.100821 
L 298.175603 174.520351 
L 298.487952 190.267417 
L 298.800301 196.052295 
L 299.11265 220.716538 
L 299.424999 133.375107 
L 299.737348 138.370095 
L 300.049696 226.601245 
L 300.362045 190.568347 
L 300.674394 204.051561 
L 300.986743 122.418658 
L 301.299092 175.355102 
L 301.611441 181.942591 
L 301.92379 158.602675 
L 302.236139 146.232216 
L 302.548488 157.854505 
L 302.860837 187.254223 
L 303.173186 194.848814 
L 303.485535 150.795087 
L 303.797884 146.910504 
L 304.110233 170.450975 
L 304.422582 139.989911 
L 304.734931 181.336665 
L 305.359628 119.556796 
L 305.671977 168.163076 
L 305.984326 112.956835 
L 306.296675 150.626551 
L 306.609024 130.902864 
L 306.921373 183.096852 
L 307.233722 210.510612 
L 308.170769 152.796121 
L 308.483118 142.617193 
L 308.795467 148.046964 
L 309.107816 170.658696 
L 309.420165 176.870073 
L 309.732514 170.496461 
L 310.044862 212.892657 
L 310.357211 196.055571 
L 310.66956 191.438125 
L 310.981909 162.208354 
L 311.294258 189.899693 
L 311.606607 191.691176 
L 312.231305 113.143893 
L 312.543654 184.204108 
L 313.480701 143.913792 
L 313.79305 114.029342 
L 314.105399 199.420671 
L 314.417748 150.112318 
L 314.730097 202.374221 
L 315.042445 169.46049 
L 315.354794 169.224979 
L 315.667143 201.883921 
L 316.291841 147.58175 
L 316.60419 176.849654 
L 316.916539 134.42109 
L 317.228888 172.410105 
L 317.541237 156.247352 
L 317.853586 171.738575 
L 318.165935 166.214259 
L 318.478284 164.780688 
L 318.790633 186.880741 
L 319.102982 175.499202 
L 319.415331 217.874005 
L 319.72768 171.369121 
L 320.040028 193.257796 
L 320.352377 143.944245 
L 320.664726 149.079759 
L 321.289424 215.208453 
L 321.601773 181.407266 
L 321.914122 184.638692 
L 322.226471 165.682038 
L 322.53882 201.677648 
L 322.851169 195.049165 
L 323.163518 184.539726 
L 323.788216 157.147021 
L 324.412914 234.990408 
L 325.037611 144.389275 
L 325.34996 175.252495 
L 325.662309 188.391052 
L 326.287007 113.651603 
L 326.599356 132.750743 
L 326.911705 189.086845 
L 327.224054 181.53621 
L 327.536403 187.589919 
L 327.848752 168.770945 
L 328.161101 126.469154 
L 328.47345 131.15918 
L 328.785799 163.722037 
L 329.098148 183.114361 
L 329.410497 177.260465 
L 330.035194 151.621801 
L 330.347543 159.638412 
L 330.659892 202.180676 
L 331.28459 149.7849 
L 331.596939 208.24431 
L 331.909288 197.951432 
L 332.221637 201.685476 
L 332.533986 177.229007 
L 332.846335 193.681866 
L 333.158684 171.670016 
L 333.471033 170.47325 
L 333.783382 181.239863 
L 334.095731 147.421747 
L 334.40808 169.747078 
L 334.720429 160.250313 
L 335.032777 206.975138 
L 335.345126 201.964889 
L 335.657475 185.112071 
L 335.969824 145.868113 
L 336.282173 160.873391 
L 336.594522 146.758883 
L 336.906871 184.345588 
L 337.21922 136.252175 
L 337.531569 199.518187 
L 337.843918 209.551266 
L 338.156267 135.005225 
L 338.780965 166.591939 
L 339.093314 157.997489 
L 339.405663 141.54271 
L 339.718012 210.094292 
L 340.03036 128.837512 
L 340.342709 101.005327 
L 340.655058 172.749439 
L 340.967407 146.672969 
L 341.279756 145.632468 
L 341.592105 150.01703 
L 341.904454 181.50274 
L 342.216803 142.751929 
L 342.529152 180.716462 
L 342.841501 150.019806 
L 343.15385 189.900656 
L 343.466199 142.72249 
L 343.778548 159.99984 
L 344.090897 136.271843 
L 344.403246 142.55138 
L 344.715595 159.39582 
L 345.027943 148.127811 
L 345.340292 129.374099 
L 345.652641 143.351236 
L 345.96499 134.380933 
L 346.277339 131.387635 
L 346.589688 146.627042 
L 346.902037 184.233585 
L 347.214386 147.208349 
L 347.526735 130.965471 
L 347.839084 153.571517 
L 348.151433 147.499706 
L 348.463782 151.033278 
L 348.776131 176.616111 
L 349.08848 144.245047 
L 349.400829 166.22252 
L 349.713178 166.971377 
L 350.025526 226.681005 
L 350.650224 113.686427 
L 350.962573 137.261519 
L 351.274922 108.065367 
L 351.587271 194.914894 
L 352.211969 160.58012 
L 352.524318 185.391878 
L 352.836667 142.350998 
L 353.461365 190.521463 
L 353.773714 178.594203 
L 354.086063 189.610255 
L 354.398412 221.018009 
L 354.710761 177.890519 
L 355.02311 207.750941 
L 355.335458 160.710235 
L 355.647807 180.605525 
L 355.960156 172.644945 
L 356.272505 181.117733 
L 356.584854 181.373829 
L 356.897203 137.706715 
L 357.209552 160.632732 
L 357.521901 150.021626 
L 357.83425 169.578273 
L 358.146599 178.693705 
L 358.458948 167.062726 
L 358.771297 139.724148 
L 359.083646 183.344973 
L 359.395995 132.88964 
L 359.708344 173.044611 
L 360.020693 123.284877 
L 360.333041 198.222259 
L 360.64539 156.945837 
L 361.270088 109.682475 
L 361.582437 81.319504 
L 362.207135 168.545842 
L 362.519484 175.884133 
L 362.831833 172.503128 
L 363.144182 133.817805 
L 363.456531 67.053094 
L 363.76888 130.817662 
L 364.081229 79.06991 
L 364.393578 148.911502 
L 364.705927 135.095991 
L 365.018276 157.007649 
L 365.330624 87.534735 
L 365.642973 141.26978 
L 365.955322 141.620173 
L 366.267671 183.870905 
L 366.58002 187.611076 
L 366.892369 122.558441 
L 367.204718 117.156272 
L 367.517067 90.332998 
L 367.829416 157.798191 
L 368.141765 123.153521 
L 368.454114 131.853634 
L 368.766463 170.476744 
L 369.078812 135.285832 
L 369.391161 136.018387 
L 369.70351 110.663103 
L 370.015859 108.454111 
L 370.328207 153.706048 
L 370.640556 147.276137 
L 370.952905 200.274445 
L 371.265254 166.123956 
L 371.577603 150.73457 
L 371.889952 185.195006 
L 372.202301 142.023126 
L 372.51465 138.55719 
L 372.826999 161.890971 
L 373.139348 194.216221 
L 373.451697 202.972022 
L 373.764046 206.274543 
L 374.076395 163.852959 
L 374.388744 196.356196 
L 374.701093 161.713254 
L 375.013442 198.504713 
L 375.32579 157.543729 
L 375.638139 159.640988 
L 375.950488 178.1141 
L 376.262837 138.408282 
L 376.575186 196.414838 
L 376.887535 181.472106 
L 377.199884 150.870328 
L 377.512233 156.276866 
L 377.824582 172.330893 
L 378.136931 182.520765 
L 378.44928 187.155329 
L 378.761629 155.855668 
L 379.073978 190.840987 
L 379.698676 128.643394 
L 380.323373 175.761422 
L 380.635722 179.682065 
L 381.26042 126.773456 
L 381.572769 158.231116 
L 381.885118 74.843237 
L 382.509816 136.942482 
L 382.822165 130.239922 
L 383.134514 101.279373 
L 383.446863 149.056342 
L 383.759212 170.042164 
L 384.071561 122.822876 
L 384.38391 107.426864 
L 384.696259 128.729178 
L 385.008608 138.224678 
L 385.320956 126.841628 
L 385.633305 163.502528 
L 385.945654 78.116265 
L 386.258003 136.112526 
L 386.570352 111.03373 
L 386.882701 154.039311 
L 387.19505 157.399521 
L 387.507399 111.957021 
L 387.819748 132.945832 
L 388.132097 199.002121 
L 388.444446 139.543183 
L 388.756795 163.214513 
L 389.069144 103.715002 
L 389.381493 90.278293 
L 389.693842 53.840909 
L 390.006191 114.850422 
L 390.318539 107.643413 
L 390.630888 88.436451 
L 390.943237 163.042952 
L 391.255586 172.403578 
L 391.567935 106.97941 
L 391.880284 90.362414 
L 392.192633 149.440932 
L 392.504982 107.547495 
L 393.12968 133.675124 
L 393.442029 149.206034 
L 393.754378 147.652156 
L 394.066727 133.338419 
L 394.379076 158.246711 
L 394.691425 163.401794 
L 395.003774 150.741315 
L 395.316122 149.999381 
L 395.628471 142.684299 
L 395.94082 117.56808 
L 396.253169 122.322165 
L 396.565518 139.563141 
L 396.877867 95.369727 
L 397.190216 106.138391 
L 397.502565 169.407945 
L 397.814914 120.369582 
L 398.127263 145.408532 
L 398.439612 155.417261 
L 398.751961 161.545516 
L 399.06431 163.519766 
L 399.376659 180.83617 
L 399.689008 144.526204 
L 400.001357 131.081914 
L 400.313705 89.285813 
L 400.626054 96.168279 
L 400.938403 138.226302 
L 401.250752 154.799489 
L 401.563101 136.111537 
L 401.87545 131.343919 
L 402.500148 187.159504 
L 402.812497 202.968026 
L 403.124846 157.250937 
L 403.437195 219.529447 
L 403.749544 177.407573 
L 404.061893 192.682576 
L 404.374242 135.077145 
L 404.686591 165.034269 
L 404.99894 175.090066 
L 405.311288 139.985591 
L 405.623637 180.09474 
L 405.935986 146.528402 
L 406.248335 130.768281 
L 406.560684 168.691135 
L 406.873033 179.522005 
L 407.185382 152.576552 
L 407.497731 148.26175 
L 407.81008 176.968552 
L 408.122429 178.174634 
L 408.434778 167.804401 
L 408.747127 117.895317 
L 409.059476 179.394508 
L 409.371825 144.932674 
L 409.684174 173.571242 
L 409.996523 160.098448 
L 410.308871 165.359647 
L 410.62122 124.924304 
L 410.933569 144.585936 
L 411.245918 124.270057 
L 411.245918 124.270057 
" clip-path="url(#p28234f548f)" style="fill: none; stroke: #ff7f0e; stroke-width: 2; stroke-linecap: square"/>
   </g>
   <g id="patch_3">
    <path d="M 83.6075 266.245 
L 83.6075 25.92 
" style="fill: none; stroke: #000000; stroke-width: 0.8; stroke-linejoin: miter; stroke-linecap: square"/>
   </g>
   <g id="patch_4">
    <path d="M 426.847748 266.245 
L 426.847748 25.92 
" style="fill: none; stroke: #000000; stroke-width: 0.8; stroke-linejoin: miter; stroke-linecap: square"/>
   </g>
   <g id="patch_5">
    <path d="M 83.6075 266.245 
L 426.847748 266.245 
" style="fill: none; stroke: #000000; stroke-width: 0.8; stroke-linejoin: miter; stroke-linecap: square"/>
   </g>
   <g id="patch_6">
    <path d="M 83.6075 25.92 
L 426.847748 25.92 
" style="fill: none; stroke: #000000; stroke-width: 0.8; stroke-linejoin: miter; stroke-linecap: square"/>
   </g>
  </g>
 </g>
 <defs>
  <clipPath id="p28234f548f">
   <rect x="83.6075" y="25.92" width="343.240248" height="240.325"/>
  </clipPath>
 </defs>
</svg>
