<?xml version="1.0" encoding="utf-8" standalone="no"?>
<!DOCTYPE svg PUBLIC "-//W3C//DTD SVG 1.1//EN"
  "http://www.w3.org/Graphics/SVG/1.1/DTD/svg11.dtd">
<svg xmlns:xlink="http://www.w3.org/1999/xlink" width="460.8pt" height="345.6pt" viewBox="0 0 460.8 345.6" xmlns="http://www.w3.org/2000/svg" version="1.1">
 <metadata>
  <rdf:RDF xmlns:dc="http://purl.org/dc/elements/1.1/" xmlns:cc="http://creativecommons.org/ns#" xmlns:rdf="http://www.w3.org/1999/02/22-rdf-syntax-ns#">
   <cc:Work>
    <dc:type rdf:resource="http://purl.org/dc/dcmitype/StillImage"/>
    <dc:date>2026-02-02T15:33:57.471921</dc:date>
    <dc:format>image/svg+xml</dc:format>
    <dc:creator>
     <cc:Agent>
      <dc:title>Matplotlib v3.10.8, https://matplotlib.org/</dc:title>
     </cc:Agent>
    </dc:creator>
   </cc:Work>
  </rdf:RDF>
 </metadata>
 <defs>
  <style type="text/css">*{stroke-linejoin: round; stroke-linecap: butt}</style>
 </defs>
 <g id="figure_1">
  <g id="patch_1">
   <path d="M 0 345.6 
L 460.8 345.6 
L 460.8 0 
L 0 0 
z
" style="fill: #ffffff"/>
  </g>
  <g id="axes_1">
   <g id="patch_2">
    <path d="M 107.5475 266.245 
L 434.88 266.245 
L 434.88 25.92 
L 107.5475 25.92 
z
" style="fill: #ffffff"/>
   </g>
   <g id="matplotlib.axis_1">
    <g id="xtick_1">
     <g id="line2d_1">
      <path d="M 129.365813 266.245 
L 129.365813 25.92 
" clip-path="url(#pe87a13da6b)" style="fill: none; stroke: #b0b0b0; stroke-width: 0.8; stroke-linecap: square"/>
     </g>
     <g id="line2d_2">
      <defs>
       <path id="ma0d17ea62f" d="M 0 0 
L 0 3.5 
" style="stroke: #000000; stroke-width: 0.8"/>
      </defs>
      <g>
       <use xlink:href="#ma0d17ea62f" x="129.365813" y="266.245" style="stroke: #000000; stroke-width: 0.8"/>
      </g>
     </g>
     <g id="text_1">
      <!-- 0 -->
      <g transform="translate(123.365813 289.63625) scale(0.24 -0.24)">
       <defs>
        <path id="TeXGyreTermes-Regular-30" d="M 3046 2112 
C 3046 3424 2464 4326 1626 4326 
C 1274 4326 1005 4218 768 3994 
C 397 3635 154 2899 154 2150 
C 154 1453 365 704 666 346 
C 902 64 1229 -90 1600 -90 
C 1926 -90 2202 19 2432 243 
C 2803 595 3046 1338 3046 2112 
z
M 2432 2099 
C 2432 762 2150 77 1600 77 
C 1050 77 768 762 768 2093 
C 768 3450 1056 4160 1606 4160 
C 2144 4160 2432 3437 2432 2099 
z
" transform="scale(0.015625)"/>
       </defs>
       <use xlink:href="#TeXGyreTermes-Regular-30"/>
      </g>
     </g>
    </g>
    <g id="xtick_2">
     <g id="line2d_3">
      <path d="M 249.986017 266.245 
L 249.986017 25.92 
" clip-path="url(#pe87a13da6b)" style="fill: none; stroke: #b0b0b0; stroke-width: 0.8; stroke-linecap: square"/>
     </g>
     <g id="line2d_4">
      <g>
       <use xlink:href="#ma0d17ea62f" x="249.986017" y="266.245" style="stroke: #000000; stroke-width: 0.8"/>
      </g>
     </g>
     <g id="text_2">
      <!-- 100 -->
      <g transform="translate(231.986017 289.63625) scale(0.24 -0.24)">
       <defs>
        <path id="TeXGyreTermes-Regular-31" d="M 2522 0 
L 2522 96 
C 2016 102 1914 166 1914 474 
L 1914 4314 
L 1862 4326 
L 710 3744 
L 710 3654 
C 787 3686 858 3712 883 3725 
C 998 3770 1107 3795 1171 3795 
C 1306 3795 1363 3699 1363 3494 
L 1363 595 
C 1363 384 1312 237 1210 179 
C 1114 122 1024 102 755 96 
L 755 0 
L 2522 0 
z
" transform="scale(0.015625)"/>
       </defs>
       <use xlink:href="#TeXGyreTermes-Regular-31"/>
       <use xlink:href="#TeXGyreTermes-Regular-30" transform="translate(49.999985 0)"/>
       <use xlink:href="#TeXGyreTermes-Regular-30" transform="translate(99.999969 0)"/>
      </g>
     </g>
    </g>
    <g id="xtick_3">
     <g id="line2d_5">
      <path d="M 370.60622 266.245 
L 370.60622 25.92 
" clip-path="url(#pe87a13da6b)" style="fill: none; stroke: #b0b0b0; stroke-width: 0.8; stroke-linecap: square"/>
     </g>
     <g id="line2d_6">
      <g>
       <use xlink:href="#ma0d17ea62f" x="370.60622" y="266.245" style="stroke: #000000; stroke-width: 0.8"/>
      </g>
     </g>
     <g id="text_3">
      <!-- 200 -->
      <g transform="translate(352.60622 289.63625) scale(0.24 -0.24)">
       <defs>
        <path id="TeXGyreTermes-Regular-32" d="M 3040 877 
L 2957 909 
C 2720 544 2637 486 2349 486 
L 819 486 
L 1894 1613 
C 2464 2208 2714 2694 2714 3194 
C 2714 3834 2195 4326 1530 4326 
C 1178 4326 845 4186 608 3930 
C 403 3712 307 3507 198 3053 
L 333 3021 
C 589 3648 819 3853 1261 3853 
C 1798 3853 2163 3488 2163 2950 
C 2163 2451 1869 1856 1331 1286 
L 192 77 
L 192 0 
L 2688 0 
L 3040 877 
z
" transform="scale(0.015625)"/>
       </defs>
       <use xlink:href="#TeXGyreTermes-Regular-32"/>
       <use xlink:href="#TeXGyreTermes-Regular-30" transform="translate(49.999985 0)"/>
       <use xlink:href="#TeXGyreTermes-Regular-30" transform="translate(99.999969 0)"/>
      </g>
     </g>
    </g>
    <g id="text_4">
     <!-- x -->
     <g transform="translate(265.21375 315.23625) scale(0.24 -0.24)">
      <defs>
       <path id="TeXGyreTermes-Regular-78" d="M 3066 0 
L 3066 96 
C 2867 96 2739 198 2541 480 
L 1722 1734 
L 2253 2502 
C 2374 2675 2566 2778 2771 2784 
L 2771 2880 
L 1760 2880 
L 1760 2784 
C 1952 2771 2016 2733 2016 2643 
C 2016 2566 1939 2426 1779 2227 
C 1747 2189 1670 2074 1587 1946 
L 1498 2074 
C 1318 2342 1203 2560 1203 2643 
C 1203 2733 1286 2778 1478 2784 
L 1478 2880 
L 154 2880 
L 154 2784 
L 211 2784 
C 403 2784 506 2701 704 2400 
L 1306 1478 
L 576 422 
C 384 160 320 115 109 96 
L 109 0 
L 1037 0 
L 1037 96 
C 858 96 781 128 781 211 
C 781 250 826 346 909 474 
L 1414 1261 
L 1997 365 
C 2022 326 2035 288 2035 250 
C 2035 134 1990 109 1779 96 
L 1779 0 
L 3066 0 
z
" transform="scale(0.015625)"/>
      </defs>
      <use xlink:href="#TeXGyreTermes-Regular-78"/>
     </g>
    </g>
   </g>
   <g id="matplotlib.axis_2">
    <g id="ytick_1">
     <g id="line2d_7">
      <path d="M 107.5475 240.530853 
L 434.88 240.530853 
" clip-path="url(#pe87a13da6b)" style="fill: none; stroke: #b0b0b0; stroke-width: 0.8; stroke-linecap: square"/>
     </g>
     <g id="line2d_8">
      <defs>
       <path id="m72d40594c8" d="M 0 0 
L -3.5 0 
" style="stroke: #000000; stroke-width: 0.8"/>
      </defs>
      <g>
       <use xlink:href="#m72d40594c8" x="107.5475" y="240.530853" style="stroke: #000000; stroke-width: 0.8"/>
      </g>
     </g>
     <g id="text_5">
      <!-- −200 -->
      <g transform="translate(51.01 248.726478) scale(0.24 -0.24)">
       <defs>
        <path id="TeXGyreTermes-Regular-2212" d="M 3354 1389 
L 3354 1811 
L 256 1811 
L 256 1389 
L 3354 1389 
z
" transform="scale(0.015625)"/>
       </defs>
       <use xlink:href="#TeXGyreTermes-Regular-2212"/>
       <use xlink:href="#TeXGyreTermes-Regular-32" transform="translate(56.399994 0)"/>
       <use xlink:href="#TeXGyreTermes-Regular-30" transform="translate(106.399979 0)"/>
       <use xlink:href="#TeXGyreTermes-Regular-30" transform="translate(156.399963 0)"/>
      </g>
     </g>
    </g>
    <g id="ytick_2">
     <g id="line2d_9">
      <path d="M 107.5475 192.044915 
L 434.88 192.044915 
" clip-path="url(#pe87a13da6b)" style="fill: none; stroke: #b0b0b0; stroke-width: 0.8; stroke-linecap: square"/>
     </g>
     <g id="line2d_10">
      <g>
       <use xlink:href="#m72d40594c8" x="107.5475" y="192.044915" style="stroke: #000000; stroke-width: 0.8"/>
      </g>
     </g>
     <g id="text_6">
      <!-- −150 -->
      <g transform="translate(51.01 200.24054) scale(0.24 -0.24)">
       <defs>
        <path id="TeXGyreTermes-Regular-35" d="M 2803 4358 
L 2746 4403 
C 2650 4269 2586 4237 2451 4237 
L 1114 4237 
L 416 2720 
C 410 2707 410 2688 410 2688 
C 410 2656 435 2637 486 2637 
C 691 2637 947 2592 1210 2509 
C 1946 2272 2285 1875 2285 1242 
C 2285 627 1894 147 1395 147 
C 1267 147 1158 192 966 333 
C 762 480 614 544 480 544 
C 294 544 205 467 205 307 
C 205 64 506 -90 986 -90 
C 1523 -90 1984 83 2304 410 
C 2598 698 2733 1062 2733 1549 
C 2733 2010 2611 2304 2291 2624 
C 2010 2906 1645 3053 890 3187 
L 1158 3731 
L 2413 3731 
C 2515 3731 2541 3744 2560 3789 
L 2803 4358 
z
" transform="scale(0.015625)"/>
       </defs>
       <use xlink:href="#TeXGyreTermes-Regular-2212"/>
       <use xlink:href="#TeXGyreTermes-Regular-31" transform="translate(56.399994 0)"/>
       <use xlink:href="#TeXGyreTermes-Regular-35" transform="translate(106.399979 0)"/>
       <use xlink:href="#TeXGyreTermes-Regular-30" transform="translate(156.399963 0)"/>
      </g>
     </g>
    </g>
    <g id="ytick_3">
     <g id="line2d_11">
      <path d="M 107.5475 143.558977 
L 434.88 143.558977 
" clip-path="url(#pe87a13da6b)" style="fill: none; stroke: #b0b0b0; stroke-width: 0.8; stroke-linecap: square"/>
     </g>
     <g id="line2d_12">
      <g>
       <use xlink:href="#m72d40594c8" x="107.5475" y="143.558977" style="stroke: #000000; stroke-width: 0.8"/>
      </g>
     </g>
     <g id="text_7">
      <!-- −100 -->
      <g transform="translate(51.01 151.754602) scale(0.24 -0.24)">
       <use xlink:href="#TeXGyreTermes-Regular-2212"/>
       <use xlink:href="#TeXGyreTermes-Regular-31" transform="translate(56.399994 0)"/>
       <use xlink:href="#TeXGyreTermes-Regular-30" transform="translate(106.399979 0)"/>
       <use xlink:href="#TeXGyreTermes-Regular-30" transform="translate(156.399963 0)"/>
      </g>
     </g>
    </g>
    <g id="ytick_4">
     <g id="line2d_13">
      <path d="M 107.5475 95.073038 
L 434.88 95.073038 
" clip-path="url(#pe87a13da6b)" style="fill: none; stroke: #b0b0b0; stroke-width: 0.8; stroke-linecap: square"/>
     </g>
     <g id="line2d_14">
      <g>
       <use xlink:href="#m72d40594c8" x="107.5475" y="95.073038" style="stroke: #000000; stroke-width: 0.8"/>
      </g>
     </g>
     <g id="text_8">
      <!-- −50 -->
      <g transform="translate(63.01 103.268663) scale(0.24 -0.24)">
       <use xlink:href="#TeXGyreTermes-Regular-2212"/>
       <use xlink:href="#TeXGyreTermes-Regular-35" transform="translate(56.399994 0)"/>
       <use xlink:href="#TeXGyreTermes-Regular-30" transform="translate(106.399979 0)"/>
      </g>
     </g>
    </g>
    <g id="ytick_5">
     <g id="line2d_15">
      <path d="M 107.5475 46.5871 
L 434.88 46.5871 
" clip-path="url(#pe87a13da6b)" style="fill: none; stroke: #b0b0b0; stroke-width: 0.8; stroke-linecap: square"/>
     </g>
     <g id="line2d_16">
      <g>
       <use xlink:href="#m72d40594c8" x="107.5475" y="46.5871" style="stroke: #000000; stroke-width: 0.8"/>
      </g>
     </g>
     <g id="text_9">
      <!-- 0 -->
      <g transform="translate(88.5475 54.782725) scale(0.24 -0.24)">
       <use xlink:href="#TeXGyreTermes-Regular-30"/>
      </g>
     </g>
    </g>
    <g id="text_10">
     <!-- y -->
     <g transform="translate(41.77875 152.0825) rotate(-90) scale(0.24 -0.24)">
      <defs>
       <path id="TeXGyreTermes-Regular-79" d="M 3040 2784 
L 3040 2880 
L 2176 2880 
L 2176 2784 
C 2381 2784 2483 2726 2483 2624 
C 2483 2598 2477 2560 2458 2515 
L 1837 749 
L 1101 2368 
C 1062 2458 1037 2541 1037 2611 
C 1037 2726 1133 2771 1408 2784 
L 1408 2880 
L 90 2880 
L 90 2790 
C 256 2765 365 2694 416 2586 
L 1472 358 
C 1517 250 1542 173 1542 122 
C 1542 26 1395 -378 1286 -570 
C 1197 -736 1056 -858 966 -858 
C 928 -858 870 -845 806 -813 
C 685 -768 576 -742 467 -742 
C 320 -742 192 -870 192 -1024 
C 192 -1235 397 -1395 666 -1395 
C 1094 -1395 1402 -1037 1747 -115 
L 2733 2496 
C 2816 2701 2886 2765 3040 2784 
z
" transform="scale(0.015625)"/>
      </defs>
      <use xlink:href="#TeXGyreTermes-Regular-79"/>
     </g>
    </g>
   </g>
   <g id="line2d_17">
    <path d="M 129.365813 46.5871 
L 130.861985 47.729574 
L 133.823379 50.184294 
L 136.886546 51.445135 
L 139.854323 52.923686 
L 143.555343 55.644807 
L 144.803749 56.873525 
L 146.271146 57.870225 
L 146.969935 58.772911 
L 147.862443 60.544933 
L 149.957586 61.872899 
L 150.985537 62.740241 
L 151.377577 66.251421 
L 151.271987 66.744549 
L 154.405313 68.197542 
L 157.35334 69.728202 
L 158.959725 70.179837 
L 161.056205 70.364267 
L 162.559862 70.702449 
L 167.395236 69.260114 
L 167.955094 68.954275 
L 169.893045 68.286507 
L 171.406113 67.27735 
L 172.829512 67.486552 
L 175.412976 67.220607 
L 178.321036 66.30291 
L 181.744668 65.535971 
L 184.836535 64.673598 
L 188.230237 64.671492 
L 189.805502 64.117691 
L 191.414474 62.964623 
L 193.67442 62.419908 
L 195.502329 60.576411 
L 196.620351 59.934461 
L 199.164634 59.579595 
L 201.033511 58.129678 
L 203.873008 57.265213 
L 205.449179 55.846581 
L 206.074017 55.971283 
L 206.439072 54.180328 
L 206.121391 51.600645 
L 207.065191 50.53 
L 207.113969 49.723139 
L 206.809812 49.113724 
L 205.246977 47.840339 
L 205.186842 46.881386 
L 204.881255 46.22164 
L 204.724173 46.753142 
L 204.038294 47.94801 
L 204.458634 49.082394 
L 204.271293 49.748846 
L 204.060695 48.051434 
L 204.356737 46.51049 
L 205.585931 45.770834 
L 206.417538 44.199098 
L 207.285287 41.104931 
L 208.088536 40.566319 
L 208.924099 40.828605 
L 208.813662 41.781522 
L 210.573672 41.036258 
L 211.253316 42.409449 
L 210.363831 42.741264 
L 208.9158 42.962752 
L 208.411973 42.249531 
L 207.90156 42.512182 
L 207.855083 41.079066 
L 209.048782 40.575509 
L 211.979765 41.433942 
L 214.192396 41.889847 
L 216.05016 41.867459 
L 216.864298 41.961566 
L 218.457193 42.49102 
L 219.737448 43.154736 
L 221.607289 43.147143 
L 222.130259 43.586045 
L 222.66823 43.719562 
L 223.62472 44.207264 
L 222.850794 44.312987 
L 222.002247 46.253381 
L 221.004079 47.077498 
L 220.418919 48.047428 
L 219.596758 49.098069 
L 219.090923 49.191465 
L 218.654127 48.820896 
L 217.860804 48.745218 
L 217.54284 48.545657 
L 225.889552 50.395387 
L 227.252536 50.785747 
L 227.64797 49.935572 
L 228.779422 50.353705 
L 229.837012 50.516069 
L 229.88641 51.310369 
L 230.268899 52.135585 
L 231.932325 52.375466 
L 232.87147 52.645016 
L 232.741219 52.999438 
L 233.77741 52.547631 
L 234.399551 52.011095 
L 235.406928 51.356704 
L 235.995302 51.956952 
L 236.860754 52.06879 
L 238.110333 52.820912 
L 238.859726 52.692657 
L 239.597286 52.189038 
L 240.389059 52.809537 
L 242.808111 54.020075 
L 243.26767 54.681826 
L 242.577677 55.118585 
L 242.045241 56.187876 
L 241.253456 56.653909 
L 241.271881 57.2601 
L 240.946179 58.177431 
L 240.911308 59.275635 
L 240.504038 60.187956 
L 240.920031 60.549689 
L 240.74315 59.93481 
L 240.613093 61.142357 
L 240.124539 61.365013 
L 239.351348 61.505581 
L 239.019249 63.286192 
L 238.27217 65.212614 
L 235.635336 69.858227 
L 234.570531 70.943694 
L 232.831945 72.029234 
L 231.615133 72.270266 
L 230.469451 73.048013 
L 230.618359 74.27512 
L 231.244748 75.323551 
L 231.17931 76.216292 
L 231.433932 76.509023 
L 231.882101 76.736844 
L 231.582244 76.876543 
L 231.407353 77.231508 
L 232.922264 77.449291 
L 233.933639 78.157474 
L 234.797218 77.836921 
L 235.414515 77.243776 
L 235.06863 76.325254 
L 236.42329 75.280361 
L 241.195835 76.721122 
L 240.674251 77.337723 
L 241.848946 76.876439 
L 242.757214 76.289503 
L 245.170957 75.681248 
L 246.244685 76.040886 
L 247.657003 75.944685 
L 248.458747 75.662888 
L 248.173234 76.321783 
L 247.226684 76.481882 
L 247.989219 76.530795 
L 247.963023 77.864318 
L 251.385041 80.525792 
L 252.440986 81.987781 
L 252.68109 82.011059 
L 253.291574 82.228816 
L 252.163214 81.951485 
L 251.75856 82.548605 
L 251.515492 82.008882 
L 250.966335 81.980281 
L 253.347352 82.078979 
L 254.074893 82.028013 
L 254.972485 83.235297 
L 256.515433 85.040553 
L 258.960531 85.663594 
L 260.775373 86.341369 
L 263.606341 87.584391 
L 265.962712 88.151492 
L 268.491842 88.177548 
L 270.815926 89.753364 
L 272.392705 90.257715 
L 273.250107 89.999233 
L 273.114572 89.081349 
L 274.682473 89.602101 
L 275.630862 90.625313 
L 276.685373 92.046947 
L 278.823327 91.795192 
L 278.641829 92.501863 
L 277.597392 91.843914 
L 277.679159 91.641434 
L 278.861536 91.010772 
L 278.532921 91.394358 
L 277.807876 92.421865 
L 279.358459 92.436843 
L 281.96691 91.857718 
L 283.906955 91.732359 
L 285.044089 91.469245 
L 287.102378 90.740828 
L 291.699746 90.166727 
L 294.035481 90.246516 
L 295.277617 89.582322 
L 296.271233 89.247381 
L 296.742827 88.730526 
L 298.026771 88.661213 
L 299.733429 89.067911 
L 300.29181 89.356513 
L 301.835632 88.445215 
L 302.724182 89.176391 
L 304.928079 89.274633 
L 307.079742 89.098321 
L 308.328724 89.331735 
L 308.798393 89.995984 
L 311.022005 90.67937 
L 313.314577 90.894161 
L 314.408003 91.249441 
L 315.970587 92.86426 
L 317.518553 93.988768 
L 319.400438 98.153205 
L 320.154773 100.449745 
L 321.004941 102.375176 
L 321.38778 105.18059 
L 322.24586 108.490769 
L 324.679791 111.494079 
L 326.756602 114.479294 
L 329.655029 116.897043 
L 333.510236 119.027762 
L 336.729108 120.50831 
L 339.551121 121.274247 
L 346.433002 123.479821 
L 348.144839 124.233307 
L 350.226867 125.959218 
L 351.994217 126.91921 
L 353.714463 126.982438 
L 354.928643 127.141386 
L 356.069247 127.805436 
L 358.649929 127.860398 
L 360.861013 128.221626 
L 362.327404 127.900332 
L 362.99332 129.423333 
L 363.829096 130.977527 
L 364.97913 130.850063 
L 366.889081 132.121553 
L 367.059713 132.883868 
L 368.490194 133.307911 
L 369.406114 133.845414 
L 368.679934 134.460844 
L 370.008356 134.99522 
L 371.507285 136.223835 
L 371.189789 138.284457 
L 372.131284 139.407132 
L 372.512509 141.120866 
L 375.117225 141.641762 
L 376.276556 141.562879 
L 376.904463 141.704428 
L 378.169659 140.912286 
L 379.090026 141.302431 
L 378.761558 140.596802 
L 379.537242 140.687096 
L 378.394989 141.060096 
L 378.715967 140.037556 
L 381.54949 138.727006 
L 386.161331 138.191243 
L 389.922902 137.76178 
L 392.232271 138.260038 
L 394.919946 139.383124 
L 396.236881 140.553054 
L 398.73556 140.85749 
L 401.254048 141.394567 
L 404.080462 140.736575 
L 406.139819 141.84318 
L 409.267316 142.671437 
L 411.326045 143.457191 
L 412.343005 144.673298 
L 413.215817 145.993635 
L 412.447057 146.524325 
L 412.503862 146.552375 
L 412.9554 146.334796 
L 412.256268 145.058894 
L 412.613653 144.338897 
L 413.4413 144.658614 
L 414.820561 142.978067 
L 415.310217 141.55499 
L 416.047342 141.220263 
L 416.916421 140.125817 
L 416.773727 140.606734 
L 417.071116 141.779183 
L 418.562563 142.187323 
L 419.685344 142.277627 
L 420.00125 143.089194 
L 418.480987 144.876395 
L 417.917364 146.171696 
L 417.235184 146.02408 
L 417.297 146.100549 
L 416.526966 146.715934 
L 416.603365 146.785107 
L 415.74532 146.758601 
L 414.986516 147.13906 
L 414.730671 148.172995 
L 414.737974 149.056749 
L 414.909747 148.984422 
L 415.948767 149.623449 
L 415.975452 150.136607 
L 415.404026 149.726294 
L 414.178365 149.873312 
L 413.29328 150.286923 
L 410.623589 150.886323 
L 408.733286 150.439153 
L 406.726174 148.956659 
L 405.740958 147.28944 
L 404.406092 146.87852 
L 403.262429 145.737143 
L 401.139931 143.096484 
L 399.221389 141.76403 
L 396.273701 140.523935 
L 393.874538 140.253689 
L 390.642282 140.153747 
L 388.783075 139.309181 
L 387.589782 138.099338 
L 387.485196 136.225506 
L 388.001012 136.151023 
L 388.10338 136.783023 
L 386.787782 137.306372 
L 387.108985 136.775076 
L 386.599067 135.967692 
L 386.312626 135.883859 
L 386.166759 135.201392 
L 386.332003 134.544381 
L 386.896779 134.202457 
L 387.230442 132.183739 
L 388.222444 130.373576 
L 387.766614 128.565106 
L 388.000775 127.338104 
L 387.966463 125.745755 
L 387.199351 125.245225 
L 387.158301 124.849994 
L 386.245584 123.278859 
L 384.164118 122.469046 
L 383.620012 121.147995 
L 381.732798 119.83224 
L 380.650912 118.476294 
L 378.428355 117.06878 
L 377.174795 115.859458 
L 375.009388 111.939101 
L 375.729889 110.949876 
L 376.782207 109.713687 
L 376.772759 109.09791 
L 377.199311 108.197058 
L 376.743958 106.000698 
L 374.85108 103.500087 
L 374.201683 103.020246 
L 373.818997 101.855421 
L 373.004684 101.349327 
L 372.470212 100.762089 
L 372.809121 100.87654 
L 372.954449 101.754985 
L 372.606294 100.816187 
L 371.648814 100.516899 
L 371.469396 100.690576 
L 370.196935 99.943767 
L 369.317977 97.619633 
L 367.80011 96.142556 
L 366.792479 95.822471 
L 365.911212 95.991278 
L 364.714601 96.433929 
L 363.417029 95.62474 
L 362.511147 95.23188 
L 362.084431 94.601901 
L 361.793494 94.662483 
L 360.73511 95.450238 
L 361.153629 96.739243 
L 361.192795 98.242021 
L 361.56858 98.784976 
L 360.541534 99.620978 
L 360.383975 100.677289 
L 359.976016 102.137249 
L 358.761118 103.564607 
L 359.124362 104.558572 
L 358.229679 105.218824 
L 358.423784 105.344301 
L 358.66471 104.970978 
L 357.662071 105.341701 
L 357.320433 105.624874 
L 357.605659 104.978791 
L 356.008688 104.6499 
L 355.163807 104.191263 
L 356.917974 103.843384 
L 357.786019 104.26891 
L 359.673427 104.906649 
L 360.323059 104.543885 
L 360.471785 103.89955 
L 359.865764 103.952673 
L 359.996103 104.17885 
L 360.348474 104.513868 
L 359.656028 105.645497 
L 359.613693 106.015786 
L 359.082238 105.780974 
L 357.951267 106.242298 
L 356.793085 107.298317 
L 355.048685 108.533071 
L 354.513841 109.476986 
L 354.020834 111.090987 
L 352.5191 114.670084 
L 351.558559 115.657525 
L 351.935486 116.814904 
L 351.826626 118.336256 
L 350.933142 120.754684 
L 349.326792 124.287501 
L 348.598704 127.986392 
L 347.094289 130.671178 
L 346.147606 132.926955 
L 345.06989 134.845437 
L 343.683379 136.905483 
L 342.243843 138.147347 
L 339.613014 139.592865 
L 337.247214 141.287732 
L 336.402587 143.915821 
L 334.201577 146.590012 
L 332.629659 147.804058 
L 331.76101 148.729263 
L 332.342427 149.461421 
L 332.621451 150.98436 
L 332.074808 152.262883 
L 329.556964 154.4496 
L 328.58367 156.179612 
L 329.046101 155.355856 
L 329.796689 155.388092 
L 329.976343 154.839799 
L 330.323934 154.990227 
L 329.12383 155.852253 
L 328.794376 156.855763 
L 330.021536 158.894203 
L 329.291512 160.032619 
L 330.441188 162.391934 
L 329.798389 164.037109 
L 328.547061 164.987973 
L 327.776602 166.496442 
L 326.090946 169.023034 
L 326.24953 170.486794 
L 324.432868 171.570907 
L 322.947367 172.001501 
L 321.741544 172.681208 
L 320.481557 173.972306 
L 318.273387 177.516656 
L 316.825723 179.117586 
L 314.293783 180.182762 
L 312.458625 181.313528 
L 311.459834 182.554495 
L 309.56987 184.570506 
L 307.543535 185.751851 
L 305.358223 185.53373 
L 303.562663 185.197497 
L 301.846903 185.528435 
L 301.171078 185.848571 
L 300.831949 185.612982 
L 299.7443 185.891719 
L 299.077485 185.860659 
L 298.303532 186.516595 
L 297.443974 187.590755 
L 296.24275 188.690104 
L 294.694811 189.195165 
L 292.994541 189.512524 
L 291.045364 190.921212 
L 289.174079 193.235265 
L 287.663002 194.68183 
L 285.217975 195.736528 
L 283.097398 196.106732 
L 281.161326 195.802544 
L 279.784038 195.928 
L 279.147183 196.370483 
L 278.593132 197.574901 
L 279.508237 198.70437 
L 279.370178 200.804754 
L 278.66619 201.645096 
L 278.948473 202.218142 
L 280.549375 202.773928 
L 281.208657 203.552864 
L 280.934263 204.553229 
L 281.650171 205.339709 
L 281.730159 206.874949 
L 281.507142 209.017284 
L 281.572365 210.257494 
L 282.435739 211.047448 
L 283.223668 211.448853 
L 283.533991 212.491541 
L 285.00776 213.276141 
L 286.13597 213.629959 
L 285.46444 212.934688 
L 284.600069 213.509311 
L 285.311271 214.067628 
L 285.25832 215.459923 
L 285.443579 216.543433 
L 284.840262 216.710107 
L 284.847772 216.841123 
L 284.765281 216.261716 
L 284.383977 216.665445 
L 284.232158 217.398587 
L 284.404006 216.79495 
L 285.461982 217.439969 
L 287.562587 219.707794 
L 289.997954 219.753216 
L 292.462173 220.958759 
L 295.93985 222.266269 
L 297.826189 223.635267 
L 299.896722 223.931776 
L 300.746222 224.905157 
L 301.845559 224.475177 
L 302.990445 225.024714 
L 303.598121 224.983075 
L 304.062299 225.948775 
L 304.830829 225.746405 
L 305.524531 226.617325 
L 305.855803 226.778776 
L 306.726193 227.976019 
L 307.595752 228.589967 
L 309.219654 228.727925 
L 310.078181 229.016394 
L 310.533924 229.042284 
L 310.763731 228.072236 
L 310.650373 227.696589 
L 310.66511 228.275075 
L 309.61065 228.745621 
L 309.512439 229.12605 
L 309.353194 229.217677 
L 308.982892 230.013953 
L 308.492806 230.690778 
L 309.007293 231.998108 
L 310.467928 231.995933 
L 311.246503 231.171104 
L 313.293451 230.56538 
L 314.992485 230.757155 
L 315.052965 231.34502 
L 314.598705 233.178056 
L 314.099683 233.072839 
L 313.988357 232.835311 
L 315.561957 233.1593 
L 317.748536 233.203236 
L 318.514766 233.521451 
L 318.741292 233.325168 
L 321.103782 234.234148 
L 322.136541 235.497691 
L 322.338702 235.352743 
L 322.705906 235.55033 
L 323.421668 234.954794 
L 323.219529 234.662519 
L 322.920415 234.571005 
L 323.600175 234.778825 
L 324.250257 235.538494 
L 326.486858 236.888794 
L 326.747288 237.572171 
L 326.208663 238.561516 
L 327.68598 239.452861 
L 329.520402 238.658534 
L 330.128925 238.138949 
L 331.767983 240.470189 
L 331.33573 243.369597 
L 331.009029 243.916015 
L 330.4511 244.201854 
L 328.857298 244.72124 
L 328.057047 244.596299 
L 328.512205 244.847231 
L 329.879374 245.401735 
L 330.898409 246.034177 
L 331.731379 247.155603 
L 331.20173 247.748035 
L 333.354729 249.211807 
L 333.850015 249.878379 
L 333.615521 248.888803 
L 334.480911 247.359226 
L 333.183717 247.090852 
L 332.425409 246.116214 
L 330.91974 245.957546 
L 329.719014 246.106057 
L 327.093639 245.860304 
L 325.239043 246.0851 
L 323.52234 246.005715 
L 322.708217 246.421845 
L 322.006125 246.602352 
L 321.425745 248.156544 
L 320.073689 249.003165 
L 318.838406 248.854605 
L 317.23151 249.795325 
L 316.630194 250.405013 
L 316.395401 251.919797 
L 316.023967 251.728305 
L 315.537939 252.263109 
L 314.819313 252.646872 
L 314.564866 253.068213 
L 313.854361 252.757066 
L 312.968311 253.035791 
L 312.390524 252.567339 
L 313.18754 252.16087 
L 313.128915 252.678134 
L 312.838481 252.523783 
L 312.996095 253.365922 
L 312.276355 253.875885 
L 311.171523 253.643994 
L 309.871525 254.265542 
L 309.529731 255.321136 
L 308.193415 255.225015 
L 307.533066 254.925728 
L 304.743718 254.178821 
L 302.882512 253.814471 
L 301.820093 253.42369 
L 301.602586 253.001307 
L 300.062832 251.456303 
L 300.104844 250.941951 
L 300.063183 250.051051 
L 299.596819 248.704888 
L 297.880046 248.373374 
L 296.516372 247.574613 
L 295.826649 246.964816 
L 294.565721 246.506866 
L 293.226012 244.890154 
L 293.71001 242.757859 
L 293.325765 242.680844 
L 292.330577 242.595344 
L 290.265326 241.406983 
L 289.285063 240.025738 
L 289.670185 239.384191 
L 289.085768 238.381843 
L 287.782891 238.032941 
L 285.781513 237.867209 
L 284.83637 236.635072 
L 283.490343 235.455329 
L 283.446112 234.349145 
L 284.543118 233.777768 
L 284.851298 230.733269 
L 285.979555 229.32414 
L 286.709895 227.938222 
L 287.160131 226.286467 
L 286.756407 224.997512 
L 285.724411 223.672147 
L 285.993557 222.33322 
L 284.994693 220.531635 
L 285.681987 218.850397 
L 286.577258 218.038374 
L 287.606264 216.492418 
L 289.013471 212.873305 
L 290.68259 212.216774 
L 292.050737 211.552747 
L 291.005747 212.270228 
L 290.856089 213.481972 
L 289.904508 213.917734 
L 290.387534 214.127456 
L 291.233511 214.692606 
L 290.546207 215.564921 
L 291.127937 216.143391 
L 291.265111 216.47473 
L 291.463025 217.476534 
L 290.944445 217.983674 
L 290.401877 218.24133 
L 288.965984 216.545885 
L 287.383905 215.399174 
L 283.613524 213.031756 
L 283.299893 213.442812 
L 283.536263 213.539362 
L 283.784962 213.920806 
L 283.610715 214.067341 
L 282.367758 213.627652 
L 281.788722 214.190875 
L 280.543794 214.284727 
L 278.27365 213.913489 
L 277.127609 213.569822 
L 275.637645 212.746559 
L 274.822406 211.865508 
L 274.34822 211.876089 
L 273.842311 211.761441 
L 274.087358 211.310089 
L 273.346751 209.130093 
L 272.199612 207.80131 
L 272.267155 206.207875 
L 271.761418 204.645603 
L 271.678197 203.795122 
L 271.293152 203.413853 
L 269.689262 202.570101 
L 268.823285 202.530094 
L 268.707024 203.152941 
L 267.992242 203.139854 
L 266.818386 202.724077 
L 264.021303 202.814133 
L 262.378913 203.359277 
L 260.494359 204.399341 
L 259.287845 204.768377 
L 256.05853 204.366904 
L 253.979913 202.742962 
L 252.269759 201.583572 
L 250.326763 200.539822 
L 248.048352 198.934015 
L 246.168574 196.944748 
L 245.033286 196.79393 
L 242.505502 196.318712 
L 241.336236 195.66395 
L 238.461986 194.399404 
L 235.232353 193.209146 
L 233.218272 193.011183 
L 231.03372 193.38417 
L 230.255512 193.067546 
L 229.593824 192.158193 
L 228.25438 191.396156 
L 227.148188 190.501625 
L 226.883523 189.210248 
L 225.895935 188.17266 
L 225.315702 187.758547 
L 225.176692 186.526901 
L 224.031784 186.066038 
L 223.356387 185.624873 
L 221.338604 185.913122 
L 219.590478 185.552427 
L 219.069321 184.438151 
L 219.730656 183.248687 
L 220.037089 181.875645 
L 217.780906 179.658534 
L 215.850795 177.421025 
L 215.766751 176.391595 
L 214.654597 175.363239 
L 213.632418 174.106989 
L 213.854714 173.323237 
L 212.418452 172.919493 
L 212.270434 174.631346 
L 210.918305 175.613474 
L 210.862002 176.421809 
L 212.111769 176.435067 
L 213.870063 177.193203 
L 215.207915 177.161022 
L 212.829394 177.574349 
L 213.021026 177.365772 
L 213.697645 177.696258 
L 212.936456 177.143628 
L 211.999184 177.134371 
L 211.895433 176.652742 
L 212.055779 176.311264 
L 212.720765 176.92801 
L 213.616624 176.090456 
L 213.486481 174.243831 
L 212.024758 172.901688 
L 211.580611 172.023598 
L 212.064213 171.428831 
L 211.576597 171.639399 
L 211.027938 170.912947 
L 211.264135 170.349545 
L 211.365185 169.573039 
L 210.493229 168.969953 
L 210.10872 167.768794 
L 210.111335 168.000072 
L 209.985249 168.08117 
L 208.984535 167.764642 
L 207.96702 167.118859 
L 207.788394 165.766671 
L 206.429296 165.917526 
L 204.592878 165.185359 
L 202.978086 163.874569 
L 201.135742 162.974941 
L 199.948835 161.484782 
L 199.80109 160.225286 
L 200.248641 159.233495 
L 199.914799 157.620755 
L 199.906528 156.694225 
L 199.778254 156.317503 
L 198.168101 156.619432 
L 197.310542 155.973545 
L 195.263772 153.929991 
L 195.226447 153.116706 
L 197.007528 152.728395 
L 196.749339 151.06844 
L 196.236295 149.955403 
L 196.245542 149.639281 
L 195.390996 149.119292 
L 195.387408 148.680376 
L 194.608337 147.777203 
L 194.878099 146.778976 
L 195.075866 145.618579 
L 194.605134 144.68909 
L 193.868422 144.133167 
L 192.291124 143.134497 
L 191.182434 143.769988 
L 189.991168 144.081603 
L 189.568103 145.263924 
L 188.747591 146.146768 
L 187.805929 145.458771 
L 187.874325 144.519073 
L 189.096452 144.099225 
L 189.043222 142.688825 
L 189.346257 141.770362 
L 188.721152 140.419967 
L 186.664897 139.403006 
L 186.498798 137.601781 
L 183.644115 136.914819 
L 180.637458 135.947739 
L 178.29826 134.851713 
L 172.313438 132.962253 
L 170.978051 132.404199 
L 168.876325 131.259616 
L 167.092762 131.11043 
L 165.260543 130.392915 
L 162.623145 130.392904 
L 159.488716 130.23574 
L 157.881643 128.99961 
L 155.247754 127.843432 
L 153.464464 127.33777 
L 152.438606 126.796066 
L 151.417616 126.925678 
L 150.768449 126.275795 
L 149.075441 124.050507 
L 147.713467 123.097266 
L 146.45107 122.627697 
L 145.626039 121.06207 
L 145.34021 120.122724 
L 144.481897 119.335329 
L 144.772665 118.180487 
L 144.893611 118.157551 
L 144.396515 117.782621 
L 142.946288 117.00241 
L 141.780998 116.090575 
L 141.327899 115.03276 
L 141.512017 113.914403 
L 141.553272 113.948031 
L 141.012745 113.299676 
L 140.46062 113.064115 
L 138.736091 113.127072 
L 138.356245 114.423467 
L 138.519913 114.414776 
L 139.046318 114.243272 
L 140.342474 113.651391 
L 140.642065 112.292628 
L 140.226185 110.879024 
L 139.091296 109.247472 
L 138.261303 107.219323 
L 136.774087 105.955596 
L 136.576884 104.839649 
L 136.84695 102.827728 
L 136.346239 100.425148 
L 137.079951 99.04628 
L 136.275427 96.040167 
L 134.840918 94.666927 
L 133.976033 94.148928 
L 132.584538 93.056822 
L 131.637459 91.828565 
L 131.928177 89.925586 
L 133.058792 86.882716 
L 132.700312 85.523314 
L 130.444465 83.475747 
L 130.229213 82.713367 
L 129.346331 82.573823 
L 129.663221 80.239105 
L 130.497204 78.92347 
L 131.027227 78.665559 
L 130.233213 77.266624 
L 131.224694 76.947813 
L 131.913677 76.303264 
L 132.809794 73.618062 
L 132.93435 72.136878 
L 134.386899 71.118714 
L 136.433629 70.201104 
L 137.955337 69.492474 
L 139.809163 67.49294 
L 140.339754 65.585129 
L 139.963763 64.552418 
L 140.179099 65.055816 
L 140.868177 65.249673 
L 141.75625 64.691754 
L 142.768595 63.472242 
L 144.969849 60.250583 
L 145.442313 58.832364 
L 144.977431 57.205052 
L 144.910373 55.647346 
L 146.286328 54.308593 
L 146.759141 52.809441 
L 146.546723 51.522767 
L 146.125306 50.081409 
L 144.117036 49.054779 
L 143.376525 48.406968 
L 143.568719 46.731747 
L 140.209463 42.737667 
L 139.530327 42.186718 
L 139.848755 41.555377 
L 139.294108 40.701687 
L 139.40155 40.091707 
L 138.945604 39.611267 
L 138.759302 39.183463 
L 138.852625 38.251718 
L 138.26949 37.40661 
L 136.515846 36.843864 
L 134.564291 37.042152 
L 134.620854 37.850698 
L 134.426696 38.85821 
L 132.999691 39.073471 
L 131.10954 39.619743 
L 129.364636 39.681483 
L 126.757701 41.191404 
L 125.962037 40.777642 
L 125.045812 40.102407 
L 124.970143 40.283808 
L 124.000223 40.605006 
L 122.42625 40.800105 
L 122.785962 42.603262 
L 124.551585 43.741313 
L 126.278824 44.357269 
L 127.29601 45.636435 
L 127.548343 46.443657 
L 127.548343 46.443657 
" clip-path="url(#pe87a13da6b)" style="fill: none; stroke: #1f77b4; stroke-width: 2; stroke-linecap: square"/>
   </g>
   <g id="patch_3">
    <path d="M 107.5475 266.245 
L 107.5475 25.92 
" style="fill: none; stroke: #000000; stroke-width: 0.8; stroke-linejoin: miter; stroke-linecap: square"/>
   </g>
   <g id="patch_4">
    <path d="M 434.88 266.245 
L 434.88 25.92 
" style="fill: none; stroke: #000000; stroke-width: 0.8; stroke-linejoin: miter; stroke-linecap: square"/>
   </g>
   <g id="patch_5">
    <path d="M 107.5475 266.245 
L 434.88 266.245 
" style="fill: none; stroke: #000000; stroke-width: 0.8; stroke-linejoin: miter; stroke-linecap: square"/>
   </g>
   <g id="patch_6">
    <path d="M 107.5475 25.92 
L 434.88 25.92 
" style="fill: none; stroke: #000000; stroke-width: 0.8; stroke-linejoin: miter; stroke-linecap: square"/>
   </g>
  </g>
 </g>
 <defs>
  <clipPath id="pe87a13da6b">
   <rect x="107.5475" y="25.92" width="327.3325" height="240.325"/>
  </clipPath>
 </defs>
</svg>
