<?xml version="1.0" encoding="utf-8" standalone="no"?>
<!DOCTYPE svg PUBLIC "-//W3C//DTD SVG 1.1//EN"
  "http://www.w3.org/Graphics/SVG/1.1/DTD/svg11.dtd">
<svg xmlns:xlink="http://www.w3.org/1999/xlink" width="460.8pt" height="345.6pt" viewBox="0 0 460.8 345.6" xmlns="http://www.w3.org/2000/svg" version="1.1">
 <metadata>
  <rdf:RDF xmlns:dc="http://purl.org/dc/elements/1.1/" xmlns:cc="http://creativecommons.org/ns#" xmlns:rdf="http://www.w3.org/1999/02/22-rdf-syntax-ns#">
   <cc:Work>
    <dc:type rdf:resource="http://purl.org/dc/dcmitype/StillImage"/>
    <dc:date>2025-11-24T22:57:19.230662</dc:date>
    <dc:format>image/svg+xml</dc:format>
    <dc:creator>
     <cc:Agent>
      <dc:title>Matplotlib v3.10.6, https://matplotlib.org/</dc:title>
     </cc:Agent>
    </dc:creator>
   </cc:Work>
  </rdf:RDF>
 </metadata>
 <defs>
  <style type="text/css">*{stroke-linejoin: round; stroke-linecap: butt}</style>
 </defs>
 <g id="figure_1">
  <g id="patch_1">
   <path d="M 0 345.6 
L 460.8 345.6 
L 460.8 0 
L 0 0 
z
" style="fill: #ffffff"/>
  </g>
  <g id="axes_1">
   <g id="patch_2">
    <path d="M 57.6 307.584 
L 414.72 307.584 
L 414.72 41.472 
L 57.6 41.472 
z
" style="fill: #ffffff"/>
   </g>
   <g id="matplotlib.axis_1">
    <g id="xtick_1">
     <g id="line2d_1">
      <defs>
       <path id="m8545aa7891" d="M 0 0 
L 0 3.5 
" style="stroke: #000000; stroke-width: 0.8"/>
      </defs>
      <g>
       <use xlink:href="#m8545aa7891" x="73.832727" y="307.584" style="stroke: #000000; stroke-width: 0.8"/>
      </g>
     </g>
     <g id="text_1">
      <!-- 0 -->
      <g transform="translate(70.651477 322.182437) scale(0.1 -0.1)">
       <defs>
        <path id="DejaVuSans-30" d="M 2034 4250 
Q 1547 4250 1301 3770 
Q 1056 3291 1056 2328 
Q 1056 1369 1301 889 
Q 1547 409 2034 409 
Q 2525 409 2770 889 
Q 3016 1369 3016 2328 
Q 3016 3291 2770 3770 
Q 2525 4250 2034 4250 
z
M 2034 4750 
Q 2819 4750 3233 4129 
Q 3647 3509 3647 2328 
Q 3647 1150 3233 529 
Q 2819 -91 2034 -91 
Q 1250 -91 836 529 
Q 422 1150 422 2328 
Q 422 3509 836 4129 
Q 1250 4750 2034 4750 
z
" transform="scale(0.015625)"/>
       </defs>
       <use xlink:href="#DejaVuSans-30"/>
      </g>
     </g>
    </g>
    <g id="xtick_2">
     <g id="line2d_2">
      <g>
       <use xlink:href="#m8545aa7891" x="138.828632" y="307.584" style="stroke: #000000; stroke-width: 0.8"/>
      </g>
     </g>
     <g id="text_2">
      <!-- 200 -->
      <g transform="translate(129.284882 322.182437) scale(0.1 -0.1)">
       <defs>
        <path id="DejaVuSans-32" d="M 1228 531 
L 3431 531 
L 3431 0 
L 469 0 
L 469 531 
Q 828 903 1448 1529 
Q 2069 2156 2228 2338 
Q 2531 2678 2651 2914 
Q 2772 3150 2772 3378 
Q 2772 3750 2511 3984 
Q 2250 4219 1831 4219 
Q 1534 4219 1204 4116 
Q 875 4013 500 3803 
L 500 4441 
Q 881 4594 1212 4672 
Q 1544 4750 1819 4750 
Q 2544 4750 2975 4387 
Q 3406 4025 3406 3419 
Q 3406 3131 3298 2873 
Q 3191 2616 2906 2266 
Q 2828 2175 2409 1742 
Q 1991 1309 1228 531 
z
" transform="scale(0.015625)"/>
       </defs>
       <use xlink:href="#DejaVuSans-32"/>
       <use xlink:href="#DejaVuSans-30" transform="translate(63.623047 0)"/>
       <use xlink:href="#DejaVuSans-30" transform="translate(127.246094 0)"/>
      </g>
     </g>
    </g>
    <g id="xtick_3">
     <g id="line2d_3">
      <g>
       <use xlink:href="#m8545aa7891" x="203.824537" y="307.584" style="stroke: #000000; stroke-width: 0.8"/>
      </g>
     </g>
     <g id="text_3">
      <!-- 400 -->
      <g transform="translate(194.280787 322.182437) scale(0.1 -0.1)">
       <defs>
        <path id="DejaVuSans-34" d="M 2419 4116 
L 825 1625 
L 2419 1625 
L 2419 4116 
z
M 2253 4666 
L 3047 4666 
L 3047 1625 
L 3713 1625 
L 3713 1100 
L 3047 1100 
L 3047 0 
L 2419 0 
L 2419 1100 
L 313 1100 
L 313 1709 
L 2253 4666 
z
" transform="scale(0.015625)"/>
       </defs>
       <use xlink:href="#DejaVuSans-34"/>
       <use xlink:href="#DejaVuSans-30" transform="translate(63.623047 0)"/>
       <use xlink:href="#DejaVuSans-30" transform="translate(127.246094 0)"/>
      </g>
     </g>
    </g>
    <g id="xtick_4">
     <g id="line2d_4">
      <g>
       <use xlink:href="#m8545aa7891" x="268.820442" y="307.584" style="stroke: #000000; stroke-width: 0.8"/>
      </g>
     </g>
     <g id="text_4">
      <!-- 600 -->
      <g transform="translate(259.276692 322.182437) scale(0.1 -0.1)">
       <defs>
        <path id="DejaVuSans-36" d="M 2113 2584 
Q 1688 2584 1439 2293 
Q 1191 2003 1191 1497 
Q 1191 994 1439 701 
Q 1688 409 2113 409 
Q 2538 409 2786 701 
Q 3034 994 3034 1497 
Q 3034 2003 2786 2293 
Q 2538 2584 2113 2584 
z
M 3366 4563 
L 3366 3988 
Q 3128 4100 2886 4159 
Q 2644 4219 2406 4219 
Q 1781 4219 1451 3797 
Q 1122 3375 1075 2522 
Q 1259 2794 1537 2939 
Q 1816 3084 2150 3084 
Q 2853 3084 3261 2657 
Q 3669 2231 3669 1497 
Q 3669 778 3244 343 
Q 2819 -91 2113 -91 
Q 1303 -91 875 529 
Q 447 1150 447 2328 
Q 447 3434 972 4092 
Q 1497 4750 2381 4750 
Q 2619 4750 2861 4703 
Q 3103 4656 3366 4563 
z
" transform="scale(0.015625)"/>
       </defs>
       <use xlink:href="#DejaVuSans-36"/>
       <use xlink:href="#DejaVuSans-30" transform="translate(63.623047 0)"/>
       <use xlink:href="#DejaVuSans-30" transform="translate(127.246094 0)"/>
      </g>
     </g>
    </g>
    <g id="xtick_5">
     <g id="line2d_5">
      <g>
       <use xlink:href="#m8545aa7891" x="333.816347" y="307.584" style="stroke: #000000; stroke-width: 0.8"/>
      </g>
     </g>
     <g id="text_5">
      <!-- 800 -->
      <g transform="translate(324.272597 322.182437) scale(0.1 -0.1)">
       <defs>
        <path id="DejaVuSans-38" d="M 2034 2216 
Q 1584 2216 1326 1975 
Q 1069 1734 1069 1313 
Q 1069 891 1326 650 
Q 1584 409 2034 409 
Q 2484 409 2743 651 
Q 3003 894 3003 1313 
Q 3003 1734 2745 1975 
Q 2488 2216 2034 2216 
z
M 1403 2484 
Q 997 2584 770 2862 
Q 544 3141 544 3541 
Q 544 4100 942 4425 
Q 1341 4750 2034 4750 
Q 2731 4750 3128 4425 
Q 3525 4100 3525 3541 
Q 3525 3141 3298 2862 
Q 3072 2584 2669 2484 
Q 3125 2378 3379 2068 
Q 3634 1759 3634 1313 
Q 3634 634 3220 271 
Q 2806 -91 2034 -91 
Q 1263 -91 848 271 
Q 434 634 434 1313 
Q 434 1759 690 2068 
Q 947 2378 1403 2484 
z
M 1172 3481 
Q 1172 3119 1398 2916 
Q 1625 2713 2034 2713 
Q 2441 2713 2670 2916 
Q 2900 3119 2900 3481 
Q 2900 3844 2670 4047 
Q 2441 4250 2034 4250 
Q 1625 4250 1398 4047 
Q 1172 3844 1172 3481 
z
" transform="scale(0.015625)"/>
       </defs>
       <use xlink:href="#DejaVuSans-38"/>
       <use xlink:href="#DejaVuSans-30" transform="translate(63.623047 0)"/>
       <use xlink:href="#DejaVuSans-30" transform="translate(127.246094 0)"/>
      </g>
     </g>
    </g>
    <g id="xtick_6">
     <g id="line2d_6">
      <g>
       <use xlink:href="#m8545aa7891" x="398.812252" y="307.584" style="stroke: #000000; stroke-width: 0.8"/>
      </g>
     </g>
     <g id="text_6">
      <!-- 1000 -->
      <g transform="translate(386.087252 322.182437) scale(0.1 -0.1)">
       <defs>
        <path id="DejaVuSans-31" d="M 794 531 
L 1825 531 
L 1825 4091 
L 703 3866 
L 703 4441 
L 1819 4666 
L 2450 4666 
L 2450 531 
L 3481 531 
L 3481 0 
L 794 0 
L 794 531 
z
" transform="scale(0.015625)"/>
       </defs>
       <use xlink:href="#DejaVuSans-31"/>
       <use xlink:href="#DejaVuSans-30" transform="translate(63.623047 0)"/>
       <use xlink:href="#DejaVuSans-30" transform="translate(127.246094 0)"/>
       <use xlink:href="#DejaVuSans-30" transform="translate(190.869141 0)"/>
      </g>
     </g>
    </g>
    <g id="text_7">
     <!-- Schritt k -->
     <g transform="translate(215.218594 335.860562) scale(0.1 -0.1)">
      <defs>
       <path id="DejaVuSans-53" d="M 3425 4513 
L 3425 3897 
Q 3066 4069 2747 4153 
Q 2428 4238 2131 4238 
Q 1616 4238 1336 4038 
Q 1056 3838 1056 3469 
Q 1056 3159 1242 3001 
Q 1428 2844 1947 2747 
L 2328 2669 
Q 3034 2534 3370 2195 
Q 3706 1856 3706 1288 
Q 3706 609 3251 259 
Q 2797 -91 1919 -91 
Q 1588 -91 1214 -16 
Q 841 59 441 206 
L 441 856 
Q 825 641 1194 531 
Q 1563 422 1919 422 
Q 2459 422 2753 634 
Q 3047 847 3047 1241 
Q 3047 1584 2836 1778 
Q 2625 1972 2144 2069 
L 1759 2144 
Q 1053 2284 737 2584 
Q 422 2884 422 3419 
Q 422 4038 858 4394 
Q 1294 4750 2059 4750 
Q 2388 4750 2728 4690 
Q 3069 4631 3425 4513 
z
" transform="scale(0.015625)"/>
       <path id="DejaVuSans-63" d="M 3122 3366 
L 3122 2828 
Q 2878 2963 2633 3030 
Q 2388 3097 2138 3097 
Q 1578 3097 1268 2742 
Q 959 2388 959 1747 
Q 959 1106 1268 751 
Q 1578 397 2138 397 
Q 2388 397 2633 464 
Q 2878 531 3122 666 
L 3122 134 
Q 2881 22 2623 -34 
Q 2366 -91 2075 -91 
Q 1284 -91 818 406 
Q 353 903 353 1747 
Q 353 2603 823 3093 
Q 1294 3584 2113 3584 
Q 2378 3584 2631 3529 
Q 2884 3475 3122 3366 
z
" transform="scale(0.015625)"/>
       <path id="DejaVuSans-68" d="M 3513 2113 
L 3513 0 
L 2938 0 
L 2938 2094 
Q 2938 2591 2744 2837 
Q 2550 3084 2163 3084 
Q 1697 3084 1428 2787 
Q 1159 2491 1159 1978 
L 1159 0 
L 581 0 
L 581 4863 
L 1159 4863 
L 1159 2956 
Q 1366 3272 1645 3428 
Q 1925 3584 2291 3584 
Q 2894 3584 3203 3211 
Q 3513 2838 3513 2113 
z
" transform="scale(0.015625)"/>
       <path id="DejaVuSans-72" d="M 2631 2963 
Q 2534 3019 2420 3045 
Q 2306 3072 2169 3072 
Q 1681 3072 1420 2755 
Q 1159 2438 1159 1844 
L 1159 0 
L 581 0 
L 581 3500 
L 1159 3500 
L 1159 2956 
Q 1341 3275 1631 3429 
Q 1922 3584 2338 3584 
Q 2397 3584 2469 3576 
Q 2541 3569 2628 3553 
L 2631 2963 
z
" transform="scale(0.015625)"/>
       <path id="DejaVuSans-69" d="M 603 3500 
L 1178 3500 
L 1178 0 
L 603 0 
L 603 3500 
z
M 603 4863 
L 1178 4863 
L 1178 4134 
L 603 4134 
L 603 4863 
z
" transform="scale(0.015625)"/>
       <path id="DejaVuSans-74" d="M 1172 4494 
L 1172 3500 
L 2356 3500 
L 2356 3053 
L 1172 3053 
L 1172 1153 
Q 1172 725 1289 603 
Q 1406 481 1766 481 
L 2356 481 
L 2356 0 
L 1766 0 
Q 1100 0 847 248 
Q 594 497 594 1153 
L 594 3053 
L 172 3053 
L 172 3500 
L 594 3500 
L 594 4494 
L 1172 4494 
z
" transform="scale(0.015625)"/>
       <path id="DejaVuSans-20" transform="scale(0.015625)"/>
       <path id="DejaVuSans-6b" d="M 581 4863 
L 1159 4863 
L 1159 1991 
L 2875 3500 
L 3609 3500 
L 1753 1863 
L 3688 0 
L 2938 0 
L 1159 1709 
L 1159 0 
L 581 0 
L 581 4863 
z
" transform="scale(0.015625)"/>
      </defs>
      <use xlink:href="#DejaVuSans-53"/>
      <use xlink:href="#DejaVuSans-63" transform="translate(63.476562 0)"/>
      <use xlink:href="#DejaVuSans-68" transform="translate(118.457031 0)"/>
      <use xlink:href="#DejaVuSans-72" transform="translate(181.835938 0)"/>
      <use xlink:href="#DejaVuSans-69" transform="translate(222.949219 0)"/>
      <use xlink:href="#DejaVuSans-74" transform="translate(250.732422 0)"/>
      <use xlink:href="#DejaVuSans-74" transform="translate(289.941406 0)"/>
      <use xlink:href="#DejaVuSans-20" transform="translate(329.150391 0)"/>
      <use xlink:href="#DejaVuSans-6b" transform="translate(360.9375 0)"/>
     </g>
    </g>
   </g>
   <g id="matplotlib.axis_2">
    <g id="ytick_1">
     <g id="line2d_7">
      <defs>
       <path id="mc44f5367f2" d="M 0 0 
L -3.5 0 
" style="stroke: #000000; stroke-width: 0.8"/>
      </defs>
      <g>
       <use xlink:href="#mc44f5367f2" x="57.6" y="280.151442" style="stroke: #000000; stroke-width: 0.8"/>
      </g>
     </g>
     <g id="text_8">
      <!-- −300 -->
      <g transform="translate(23.132812 283.950661) scale(0.1 -0.1)">
       <defs>
        <path id="DejaVuSans-2212" d="M 678 2272 
L 4684 2272 
L 4684 1741 
L 678 1741 
L 678 2272 
z
" transform="scale(0.015625)"/>
        <path id="DejaVuSans-33" d="M 2597 2516 
Q 3050 2419 3304 2112 
Q 3559 1806 3559 1356 
Q 3559 666 3084 287 
Q 2609 -91 1734 -91 
Q 1441 -91 1130 -33 
Q 819 25 488 141 
L 488 750 
Q 750 597 1062 519 
Q 1375 441 1716 441 
Q 2309 441 2620 675 
Q 2931 909 2931 1356 
Q 2931 1769 2642 2001 
Q 2353 2234 1838 2234 
L 1294 2234 
L 1294 2753 
L 1863 2753 
Q 2328 2753 2575 2939 
Q 2822 3125 2822 3475 
Q 2822 3834 2567 4026 
Q 2313 4219 1838 4219 
Q 1578 4219 1281 4162 
Q 984 4106 628 3988 
L 628 4550 
Q 988 4650 1302 4700 
Q 1616 4750 1894 4750 
Q 2613 4750 3031 4423 
Q 3450 4097 3450 3541 
Q 3450 3153 3228 2886 
Q 3006 2619 2597 2516 
z
" transform="scale(0.015625)"/>
       </defs>
       <use xlink:href="#DejaVuSans-2212"/>
       <use xlink:href="#DejaVuSans-33" transform="translate(83.789062 0)"/>
       <use xlink:href="#DejaVuSans-30" transform="translate(147.412109 0)"/>
       <use xlink:href="#DejaVuSans-30" transform="translate(211.035156 0)"/>
      </g>
     </g>
    </g>
    <g id="ytick_2">
     <g id="line2d_8">
      <g>
       <use xlink:href="#mc44f5367f2" x="57.6" y="245.225617" style="stroke: #000000; stroke-width: 0.8"/>
      </g>
     </g>
     <g id="text_9">
      <!-- −200 -->
      <g transform="translate(23.132812 249.024836) scale(0.1 -0.1)">
       <use xlink:href="#DejaVuSans-2212"/>
       <use xlink:href="#DejaVuSans-32" transform="translate(83.789062 0)"/>
       <use xlink:href="#DejaVuSans-30" transform="translate(147.412109 0)"/>
       <use xlink:href="#DejaVuSans-30" transform="translate(211.035156 0)"/>
      </g>
     </g>
    </g>
    <g id="ytick_3">
     <g id="line2d_9">
      <g>
       <use xlink:href="#mc44f5367f2" x="57.6" y="210.299792" style="stroke: #000000; stroke-width: 0.8"/>
      </g>
     </g>
     <g id="text_10">
      <!-- −100 -->
      <g transform="translate(23.132812 214.099011) scale(0.1 -0.1)">
       <use xlink:href="#DejaVuSans-2212"/>
       <use xlink:href="#DejaVuSans-31" transform="translate(83.789062 0)"/>
       <use xlink:href="#DejaVuSans-30" transform="translate(147.412109 0)"/>
       <use xlink:href="#DejaVuSans-30" transform="translate(211.035156 0)"/>
      </g>
     </g>
    </g>
    <g id="ytick_4">
     <g id="line2d_10">
      <g>
       <use xlink:href="#mc44f5367f2" x="57.6" y="175.373967" style="stroke: #000000; stroke-width: 0.8"/>
      </g>
     </g>
     <g id="text_11">
      <!-- 0 -->
      <g transform="translate(44.2375 179.173186) scale(0.1 -0.1)">
       <use xlink:href="#DejaVuSans-30"/>
      </g>
     </g>
    </g>
    <g id="ytick_5">
     <g id="line2d_11">
      <g>
       <use xlink:href="#mc44f5367f2" x="57.6" y="140.448142" style="stroke: #000000; stroke-width: 0.8"/>
      </g>
     </g>
     <g id="text_12">
      <!-- 100 -->
      <g transform="translate(31.5125 144.247361) scale(0.1 -0.1)">
       <use xlink:href="#DejaVuSans-31"/>
       <use xlink:href="#DejaVuSans-30" transform="translate(63.623047 0)"/>
       <use xlink:href="#DejaVuSans-30" transform="translate(127.246094 0)"/>
      </g>
     </g>
    </g>
    <g id="ytick_6">
     <g id="line2d_12">
      <g>
       <use xlink:href="#mc44f5367f2" x="57.6" y="105.522317" style="stroke: #000000; stroke-width: 0.8"/>
      </g>
     </g>
     <g id="text_13">
      <!-- 200 -->
      <g transform="translate(31.5125 109.321536) scale(0.1 -0.1)">
       <use xlink:href="#DejaVuSans-32"/>
       <use xlink:href="#DejaVuSans-30" transform="translate(63.623047 0)"/>
       <use xlink:href="#DejaVuSans-30" transform="translate(127.246094 0)"/>
      </g>
     </g>
    </g>
    <g id="ytick_7">
     <g id="line2d_13">
      <g>
       <use xlink:href="#mc44f5367f2" x="57.6" y="70.596492" style="stroke: #000000; stroke-width: 0.8"/>
      </g>
     </g>
     <g id="text_14">
      <!-- 300 -->
      <g transform="translate(31.5125 74.395711) scale(0.1 -0.1)">
       <use xlink:href="#DejaVuSans-33"/>
       <use xlink:href="#DejaVuSans-30" transform="translate(63.623047 0)"/>
       <use xlink:href="#DejaVuSans-30" transform="translate(127.246094 0)"/>
      </g>
     </g>
    </g>
    <g id="text_15">
     <!-- x(k) -->
     <g transform="translate(17.053125 184.28425) rotate(-90) scale(0.1 -0.1)">
      <defs>
       <path id="DejaVuSans-78" d="M 3513 3500 
L 2247 1797 
L 3578 0 
L 2900 0 
L 1881 1375 
L 863 0 
L 184 0 
L 1544 1831 
L 300 3500 
L 978 3500 
L 1906 2253 
L 2834 3500 
L 3513 3500 
z
" transform="scale(0.015625)"/>
       <path id="DejaVuSans-28" d="M 1984 4856 
Q 1566 4138 1362 3434 
Q 1159 2731 1159 2009 
Q 1159 1288 1364 580 
Q 1569 -128 1984 -844 
L 1484 -844 
Q 1016 -109 783 600 
Q 550 1309 550 2009 
Q 550 2706 781 3412 
Q 1013 4119 1484 4856 
L 1984 4856 
z
" transform="scale(0.015625)"/>
       <path id="DejaVuSans-29" d="M 513 4856 
L 1013 4856 
Q 1481 4119 1714 3412 
Q 1947 2706 1947 2009 
Q 1947 1309 1714 600 
Q 1481 -109 1013 -844 
L 513 -844 
Q 928 -128 1133 580 
Q 1338 1288 1338 2009 
Q 1338 2731 1133 3434 
Q 928 4138 513 4856 
z
" transform="scale(0.015625)"/>
      </defs>
      <use xlink:href="#DejaVuSans-78"/>
      <use xlink:href="#DejaVuSans-28" transform="translate(59.179688 0)"/>
      <use xlink:href="#DejaVuSans-6b" transform="translate(98.193359 0)"/>
      <use xlink:href="#DejaVuSans-29" transform="translate(156.103516 0)"/>
     </g>
    </g>
   </g>
   <g id="line2d_14">
    <path d="M 73.832727 118.255022 
L 74.157707 116.148917 
L 74.482686 111.31307 
L 74.807666 101.185793 
L 75.132645 99.870433 
L 75.782604 108.260401 
L 76.107584 110.619012 
L 76.432563 110.397287 
L 76.757543 114.125759 
L 77.082523 112.516289 
L 77.407502 106.388175 
L 78.057461 116.397698 
L 78.382441 115.752856 
L 78.70742 113.098663 
L 79.0324 93.692909 
L 79.357379 91.355404 
L 79.682359 97.137423 
L 80.007338 95.313131 
L 80.332318 97.818796 
L 80.657297 97.214425 
L 80.982277 95.661173 
L 81.632236 101.824673 
L 81.957215 94.216398 
L 82.282195 94.140356 
L 82.607174 92.31839 
L 82.932154 84.125262 
L 83.582113 76.044807 
L 84.232072 78.280816 
L 84.557052 89.268465 
L 84.882031 91.582185 
L 85.207011 89.828981 
L 85.85697 97.749689 
L 86.181949 92.335048 
L 86.506929 95.866237 
L 86.831908 94.292571 
L 87.481867 113.569448 
L 88.131826 125.190238 
L 88.456806 122.133461 
L 89.431744 141.7626 
L 89.756724 135.853434 
L 90.081704 136.45199 
L 90.406683 136.393967 
L 90.731663 138.272339 
L 91.056642 133.01586 
L 91.381622 135.088461 
L 91.706601 134.565118 
L 92.031581 133.549418 
L 92.35656 129.911876 
L 92.68154 124.199191 
L 93.006519 125.692505 
L 93.331499 128.632994 
L 93.656478 129.267216 
L 93.981458 129.255894 
L 94.306437 126.16339 
L 94.631417 126.248695 
L 94.956396 130.217874 
L 95.281376 122.322528 
L 95.606355 128.996384 
L 95.931335 139.376845 
L 96.256314 141.005527 
L 97.231253 136.190753 
L 97.556233 130.728847 
L 97.881212 121.622671 
L 98.206192 119.390684 
L 98.531171 111.548682 
L 98.856151 109.704233 
L 99.50611 119.968357 
L 99.831089 118.665657 
L 100.156069 114.786983 
L 100.481048 116.086882 
L 100.806028 115.162938 
L 101.131007 123.599999 
L 101.455987 126.218286 
L 101.780966 127.440438 
L 102.105946 138.632425 
L 102.430925 142.102923 
L 102.755905 143.756693 
L 103.080885 142.179536 
L 103.405864 142.646818 
L 104.055823 138.658396 
L 104.380803 138.208685 
L 104.705782 132.199951 
L 105.355741 111.968657 
L 105.680721 111.394213 
L 106.0057 112.433395 
L 106.33068 112.035149 
L 106.655659 114.595126 
L 106.980639 120.06031 
L 107.305618 117.493495 
L 107.630598 118.625623 
L 107.955577 124.176814 
L 108.280557 122.409481 
L 108.605536 115.986473 
L 108.930516 119.958992 
L 109.255495 125.649429 
L 109.580475 120.697449 
L 109.905455 121.971396 
L 110.230434 120.575542 
L 110.555414 122.484278 
L 111.205373 119.727938 
L 111.530352 122.614302 
L 111.855332 123.596059 
L 112.180311 123.144918 
L 112.505291 117.312474 
L 113.15525 139.440742 
L 113.805209 143.810287 
L 114.130188 140.757359 
L 114.455168 142.372828 
L 114.780147 141.788779 
L 115.105127 143.449557 
L 115.430106 140.310928 
L 115.755086 143.624731 
L 116.080066 145.000275 
L 116.730025 150.572893 
L 117.055004 149.626977 
L 117.704963 156.359643 
L 118.029943 157.539056 
L 118.679902 153.678466 
L 119.004881 152.457874 
L 119.329861 152.908277 
L 119.65484 149.967365 
L 119.97982 140.458117 
L 120.304799 135.333947 
L 120.629779 136.613183 
L 121.279738 131.556516 
L 121.604717 133.766739 
L 121.929697 130.663471 
L 122.254676 120.135426 
L 122.579656 120.311399 
L 122.904636 120.676959 
L 123.229615 121.977987 
L 123.554595 125.688404 
L 123.879574 123.077753 
L 124.529533 105.511966 
L 124.854513 106.594684 
L 125.179492 117.006648 
L 125.504472 121.913001 
L 125.829451 113.490187 
L 126.154431 113.629325 
L 126.47941 115.553936 
L 126.80439 111.096958 
L 127.129369 112.066282 
L 127.779328 109.503661 
L 128.104308 113.929278 
L 128.429287 121.255987 
L 128.754267 124.342305 
L 129.079247 115.499323 
L 129.404226 115.897205 
L 129.729206 105.310389 
L 130.054185 105.801461 
L 130.379165 109.406789 
L 130.704144 114.557094 
L 131.029124 115.2371 
L 131.354103 124.166634 
L 132.004062 118.596004 
L 132.329042 116.799832 
L 132.654021 104.661169 
L 132.979001 102.770108 
L 133.30398 102.072783 
L 133.62896 98.500273 
L 134.278919 84.655398 
L 134.603898 84.777104 
L 134.928878 78.838469 
L 135.253857 80.02496 
L 135.578837 79.851978 
L 135.903817 82.418423 
L 136.878755 101.107002 
L 137.203735 93.920853 
L 137.528714 96.48246 
L 137.853694 97.113713 
L 138.178673 98.74646 
L 138.503653 98.516699 
L 138.828632 107.63642 
L 139.153612 112.914702 
L 139.803571 99.908641 
L 140.12855 105.955388 
L 140.45353 105.394455 
L 140.778509 90.20918 
L 141.103489 80.915271 
L 141.428468 82.27729 
L 141.753448 84.911572 
L 142.078428 79.371572 
L 142.728387 75.278084 
L 143.053366 76.84183 
L 143.378346 83.786295 
L 144.028305 89.8654 
L 144.353284 85.567928 
L 144.678264 83.296342 
L 145.003243 88.003748 
L 145.328223 83.399905 
L 145.653202 84.545964 
L 145.978182 77.401393 
L 146.303161 76.991919 
L 146.628141 82.247678 
L 146.95312 85.608085 
L 147.2781 76.51768 
L 147.603079 75.591131 
L 147.928059 81.773472 
L 148.253038 80.473395 
L 148.578018 81.192595 
L 148.902998 85.034657 
L 149.227977 85.380901 
L 149.552957 86.396721 
L 149.877936 85.698334 
L 150.202916 86.404336 
L 150.527895 81.004027 
L 150.852875 69.889233 
L 151.177854 67.466 
L 151.827813 53.568 
L 152.477772 58.2523 
L 152.802752 57.046774 
L 153.127731 57.031561 
L 153.452711 68.97121 
L 153.77769 70.778032 
L 154.752629 81.295433 
L 155.077609 82.260222 
L 155.402588 76.113837 
L 155.727568 79.169714 
L 156.377527 92.615216 
L 156.702506 93.885522 
L 157.027486 93.062078 
L 157.352465 91.456818 
L 157.677445 100.905539 
L 158.002424 97.433138 
L 158.327404 101.956737 
L 158.652383 111.009133 
L 158.977363 102.104767 
L 159.302342 102.120957 
L 159.627322 112.17895 
L 159.952301 113.115814 
L 160.277281 112.160457 
L 160.60226 107.028789 
L 160.92724 107.154921 
L 161.252219 96.415248 
L 161.577199 103.132013 
L 161.902179 107.36521 
L 162.227158 105.538747 
L 162.552138 109.044094 
L 162.877117 116.118973 
L 163.202097 113.023299 
L 163.527076 121.151123 
L 164.502015 96.713115 
L 165.151974 90.742737 
L 165.476953 90.454575 
L 165.801933 96.932423 
L 166.126912 91.912559 
L 166.451892 90.497095 
L 166.776871 97.421952 
L 167.101851 93.010573 
L 167.42683 94.424646 
L 167.75181 103.389854 
L 168.07679 100.940983 
L 168.401769 100.041779 
L 168.726749 97.046509 
L 170.026667 134.18192 
L 170.351646 133.364524 
L 170.676626 133.500327 
L 171.001605 139.964059 
L 171.651564 132.751797 
L 171.976544 130.990023 
L 172.301523 136.418595 
L 172.626503 137.271392 
L 172.951482 138.800671 
L 173.276462 145.515607 
L 173.601441 144.609373 
L 173.926421 140.118361 
L 174.2514 144.247526 
L 174.57638 153.105963 
L 174.90136 165.763892 
L 175.226339 164.552164 
L 175.551319 165.809418 
L 175.876298 163.992677 
L 176.201278 168.636805 
L 176.526257 166.710538 
L 176.851237 172.181161 
L 177.176216 172.889868 
L 177.501196 170.494877 
L 177.826175 169.107506 
L 178.151155 168.225097 
L 178.476134 166.588486 
L 179.126093 173.348741 
L 179.776052 179.46814 
L 180.426011 193.241407 
L 180.750991 196.270175 
L 181.075971 207.655402 
L 181.40095 206.715288 
L 181.72593 207.233522 
L 182.050909 202.826922 
L 182.375889 204.442618 
L 182.700868 204.459719 
L 183.025848 205.280164 
L 183.350827 206.656116 
L 184.000786 220.742407 
L 184.325766 219.446695 
L 184.650745 221.655018 
L 185.625684 195.083651 
L 185.950663 189.188622 
L 186.275643 190.698343 
L 186.600622 196.571172 
L 186.925602 188.768322 
L 187.250581 191.188706 
L 187.900541 187.798047 
L 188.5505 182.568468 
L 188.875479 184.527014 
L 189.200459 183.952938 
L 189.525438 181.425498 
L 189.850418 189.141774 
L 190.175397 187.997148 
L 190.500377 190.945519 
L 190.825356 196.325111 
L 191.150336 195.325972 
L 191.800295 209.522588 
L 192.125274 204.352232 
L 192.450254 210.692727 
L 192.775233 208.510617 
L 193.100213 213.083969 
L 194.075152 198.117895 
L 194.400131 197.591399 
L 194.725111 194.976112 
L 195.05009 187.228092 
L 195.37507 184.824555 
L 195.700049 190.016519 
L 196.025029 189.644411 
L 196.350008 194.059363 
L 196.674988 195.782132 
L 196.999967 200.576499 
L 197.324947 202.180478 
L 197.974906 199.206157 
L 198.299885 200.900553 
L 198.624865 198.818449 
L 198.949844 193.809909 
L 199.274824 194.262626 
L 199.924783 199.631531 
L 200.249762 203.488175 
L 200.574742 201.374989 
L 200.899722 206.662637 
L 201.224701 203.164048 
L 201.549681 204.073909 
L 201.87466 205.545361 
L 202.524619 208.928338 
L 202.849599 208.893777 
L 203.174578 210.657823 
L 203.499558 210.799551 
L 204.474496 202.583646 
L 204.799476 204.612069 
L 205.124455 196.771384 
L 205.449435 197.069846 
L 205.774414 196.436296 
L 206.099394 203.306536 
L 206.424373 200.047655 
L 206.749353 201.422422 
L 207.074333 204.652241 
L 207.399312 197.29371 
L 207.724292 201.675995 
L 208.049271 196.426639 
L 208.374251 196.111248 
L 208.69923 196.283132 
L 209.02421 202.13579 
L 209.674169 196.195839 
L 209.999148 204.514049 
L 210.324128 198.552315 
L 210.649107 183.201356 
L 210.974087 184.267035 
L 211.299066 180.15889 
L 211.949025 192.58854 
L 212.598984 196.874306 
L 212.923964 200.972418 
L 213.248943 198.519807 
L 213.573923 198.779303 
L 213.898903 205.227718 
L 214.223882 204.433427 
L 215.198821 216.201061 
L 215.5238 219.209966 
L 215.84878 213.387664 
L 216.173759 212.385501 
L 216.498739 213.001231 
L 216.823718 213.135044 
L 217.148698 212.210643 
L 217.473677 214.958766 
L 217.798657 209.345938 
L 218.123636 212.640727 
L 218.773595 224.380663 
L 219.098575 222.061847 
L 219.423554 226.241071 
L 219.748534 224.844008 
L 220.073514 226.327324 
L 220.723473 231.372127 
L 221.048452 237.992942 
L 221.373432 235.996048 
L 221.698411 226.863749 
L 222.023391 225.542196 
L 222.34837 225.856925 
L 222.67335 225.978252 
L 222.998329 219.869004 
L 223.323309 210.485626 
L 223.648288 210.881759 
L 224.298247 221.389963 
L 224.948206 215.459597 
L 225.598165 204.575554 
L 225.923145 202.282173 
L 226.248124 204.887753 
L 226.573104 205.804041 
L 226.898084 213.609566 
L 227.223063 209.371618 
L 227.548043 202.769367 
L 227.873022 205.623727 
L 228.198002 211.316964 
L 228.522981 205.145302 
L 228.847961 209.303871 
L 229.49792 222.580535 
L 229.822899 222.88063 
L 230.147879 227.569282 
L 230.472858 221.074733 
L 230.797838 231.34487 
L 231.122817 231.901213 
L 231.447797 231.08364 
L 231.772776 231.686801 
L 232.097756 230.551499 
L 232.422735 234.515104 
L 232.747715 236.972541 
L 233.072695 243.13437 
L 233.722654 235.873753 
L 234.047633 240.219298 
L 234.372613 241.58362 
L 234.697592 241.772684 
L 235.347551 235.809682 
L 235.672531 228.41952 
L 235.99751 225.125237 
L 236.32249 227.745101 
L 236.647469 225.650134 
L 236.972449 225.913804 
L 237.297428 226.896907 
L 237.947387 232.111411 
L 238.597346 235.005535 
L 238.922326 234.161296 
L 239.247305 232.128509 
L 239.572285 235.480434 
L 239.897265 232.447677 
L 240.222244 228.310832 
L 241.197183 208.032132 
L 241.522162 197.75661 
L 241.847142 200.035274 
L 242.172121 200.589252 
L 242.82208 183.298633 
L 243.472039 190.412617 
L 243.797019 185.401113 
L 244.121998 187.448064 
L 244.446978 188.218701 
L 244.771957 185.036822 
L 245.096937 179.267449 
L 245.421916 178.134846 
L 245.746896 179.034062 
L 246.071876 172.961843 
L 246.396855 175.312897 
L 246.721835 184.275644 
L 247.046814 184.948981 
L 247.371794 187.02911 
L 247.696773 179.162733 
L 248.021753 181.382029 
L 248.346732 180.683391 
L 248.671712 183.681245 
L 248.996691 180.29726 
L 249.321671 179.463657 
L 249.64665 179.626477 
L 250.621589 169.937419 
L 250.946568 161.806933 
L 251.271548 159.053835 
L 251.596527 152.838068 
L 251.921507 143.664439 
L 252.246486 140.055812 
L 252.571466 134.915192 
L 252.896446 142.907192 
L 253.221425 145.036434 
L 253.546405 152.716852 
L 254.196364 154.952636 
L 254.521343 159.05234 
L 254.846323 160.909382 
L 255.171302 160.173679 
L 255.496282 161.136972 
L 255.821261 163.071562 
L 256.146241 160.660256 
L 256.47122 160.078648 
L 256.7962 157.231395 
L 257.446159 166.576867 
L 258.096118 173.433523 
L 258.421097 174.969204 
L 258.746077 180.727013 
L 259.071057 176.716662 
L 259.396036 176.365353 
L 259.721016 176.97059 
L 260.045995 175.970851 
L 260.695954 162.096879 
L 261.020934 163.774378 
L 261.345913 161.142623 
L 261.670893 164.74312 
L 261.995872 164.035517 
L 262.320852 167.245794 
L 262.645831 171.899947 
L 262.970811 174.747077 
L 263.29579 174.93702 
L 263.62077 175.67828 
L 263.945749 171.444858 
L 264.270729 160.473157 
L 264.595708 156.183347 
L 264.920688 163.573273 
L 265.245667 166.834424 
L 265.570647 161.203305 
L 265.895627 165.054672 
L 266.220606 166.929215 
L 266.545586 171.009872 
L 266.870565 172.369636 
L 267.195545 172.02997 
L 267.520524 171.332795 
L 267.845504 176.512038 
L 268.170483 177.082343 
L 268.495463 171.738424 
L 268.820442 170.216094 
L 269.145422 165.170442 
L 269.470401 172.591997 
L 269.795381 175.759399 
L 270.44534 179.711314 
L 270.770319 169.067623 
L 271.095299 166.882562 
L 271.420278 174.163603 
L 271.745258 176.569741 
L 272.070238 176.332648 
L 272.395217 185.079285 
L 273.370156 194.226847 
L 273.695135 199.915029 
L 274.020115 195.211744 
L 274.670074 180.492825 
L 274.995053 183.034672 
L 275.320033 187.313618 
L 275.645012 186.044175 
L 275.969992 192.779271 
L 276.294971 187.137145 
L 276.619951 185.505874 
L 277.26991 198.220755 
L 277.594889 197.416322 
L 277.919869 210.940913 
L 278.244848 213.280107 
L 278.569828 219.506058 
L 278.894808 221.867382 
L 279.219787 230.360964 
L 279.869746 226.201992 
L 280.194726 220.97833 
L 280.519705 219.365785 
L 280.844685 219.265081 
L 281.169664 223.371822 
L 281.494644 223.609662 
L 281.819623 224.439229 
L 282.144603 218.43025 
L 282.469582 215.152846 
L 282.794562 215.245969 
L 283.119541 215.885429 
L 283.444521 216.869771 
L 283.7695 214.88428 
L 284.09448 217.046102 
L 284.419459 217.81874 
L 284.744439 214.98229 
L 285.069419 207.770083 
L 285.394398 211.73749 
L 285.719378 213.956226 
L 286.044357 213.528287 
L 286.694316 223.670658 
L 287.019296 225.382528 
L 287.344275 222.011408 
L 287.669255 226.927929 
L 287.994234 225.407184 
L 288.319214 230.025789 
L 288.644193 229.900659 
L 288.969173 232.165408 
L 289.619132 221.626466 
L 289.944111 223.16147 
L 290.269091 222.658408 
L 290.59407 218.097603 
L 290.91905 218.497364 
L 291.244029 222.333903 
L 291.569009 229.719067 
L 291.893989 228.649267 
L 292.218968 225.067195 
L 292.543948 227.162313 
L 292.868927 225.936631 
L 293.193907 216.274923 
L 293.518886 216.559184 
L 293.843866 220.08147 
L 294.493825 230.440376 
L 295.143784 216.367319 
L 296.118722 228.851388 
L 296.443702 222.764082 
L 296.768681 221.275852 
L 297.41864 203.166891 
L 297.74362 206.161352 
L 298.0686 206.119547 
L 298.393579 204.91428 
L 298.718559 204.992186 
L 299.043538 203.510533 
L 299.368518 197.0804 
L 299.693497 198.557572 
L 300.018477 201.290922 
L 300.343456 207.081947 
L 300.668436 210.383091 
L 300.993415 204.439378 
L 301.318395 208.203919 
L 301.643374 198.716416 
L 301.968354 195.154827 
L 302.293333 193.696916 
L 302.943292 195.337593 
L 303.268272 190.782301 
L 303.593251 194.860749 
L 303.918231 209.13517 
L 304.24321 208.140992 
L 304.56819 211.825072 
L 304.89317 205.065288 
L 305.218149 203.744209 
L 305.543129 211.601069 
L 305.868108 207.233544 
L 306.518067 212.162304 
L 306.843047 217.815469 
L 307.817985 225.985704 
L 308.142965 232.536938 
L 308.467944 236.53973 
L 308.792924 233.042386 
L 309.117903 224.579993 
L 309.442883 220.109928 
L 309.767862 219.892283 
L 310.092842 223.376211 
L 310.417821 228.726368 
L 310.742801 226.452309 
L 311.067781 229.689092 
L 311.71774 241.497935 
L 312.042719 236.522769 
L 312.367699 235.291896 
L 312.692678 229.438238 
L 313.017658 231.038174 
L 313.342637 229.201441 
L 313.667617 228.227959 
L 313.992596 224.552428 
L 314.642555 229.807959 
L 314.967535 232.978133 
L 315.292514 227.647638 
L 315.617494 227.377792 
L 315.942473 230.942013 
L 316.267453 230.510761 
L 316.592432 234.13806 
L 316.917412 241.802421 
L 317.567371 236.936788 
L 318.21733 247.728088 
L 318.54231 257.701815 
L 318.867289 254.057221 
L 319.192269 254.569481 
L 319.517248 251.314905 
L 319.842228 250.318748 
L 320.167207 247.065949 
L 320.492187 256.269312 
L 320.817166 259.745607 
L 321.142146 259.201636 
L 321.792105 263.286467 
L 322.117084 261.088032 
L 322.442064 257.984402 
L 322.767043 264.250438 
L 323.092023 259.468905 
L 323.417002 267.966437 
L 323.741982 269.645666 
L 324.066962 262.067962 
L 324.391941 259.103194 
L 324.716921 249.339688 
L 325.0419 246.138148 
L 325.36688 247.765252 
L 325.691859 244.882099 
L 326.016839 239.363572 
L 326.341818 241.202896 
L 326.991777 235.888208 
L 327.316757 240.444856 
L 327.641736 239.436461 
L 327.966716 245.62323 
L 328.291695 243.180564 
L 328.941654 226.231334 
L 329.266634 228.610806 
L 329.591613 242.21256 
L 329.916593 240.638971 
L 330.241572 230.347509 
L 330.566552 233.238079 
L 330.891532 231.206459 
L 331.216511 224.281392 
L 331.541491 230.000654 
L 331.86647 222.665449 
L 332.19145 220.532286 
L 332.516429 224.829378 
L 333.166388 205.714624 
L 333.491368 201.416964 
L 333.816347 205.233729 
L 334.141327 219.774287 
L 334.466306 221.103136 
L 334.791286 213.554409 
L 335.116265 210.96044 
L 335.441245 218.163814 
L 335.766224 218.373206 
L 336.091204 215.375606 
L 336.741163 210.896657 
L 337.066143 207.63142 
L 337.391122 207.079686 
L 338.041081 221.856665 
L 338.366061 217.085672 
L 339.01602 211.870181 
L 339.340999 216.842188 
L 339.665979 217.628532 
L 339.990958 213.945331 
L 340.315938 215.309169 
L 340.640917 220.803032 
L 341.290876 217.606781 
L 341.615856 219.455862 
L 341.940835 225.166794 
L 342.265815 226.228206 
L 342.590794 223.413602 
L 342.915774 229.615292 
L 343.240753 228.942329 
L 343.565733 229.159954 
L 343.890713 233.357477 
L 344.215692 234.108733 
L 344.540672 228.927342 
L 344.865651 221.125552 
L 345.190631 216.578565 
L 345.51561 219.578459 
L 345.84059 218.502147 
L 346.165569 220.420714 
L 346.490549 228.288967 
L 346.815528 225.776165 
L 347.140508 227.396261 
L 348.115446 205.420827 
L 348.440426 215.127316 
L 348.765405 218.016303 
L 349.090385 216.591933 
L 349.415364 220.75021 
L 349.740344 217.595994 
L 350.065324 220.670444 
L 350.390303 216.026292 
L 350.715283 216.896787 
L 351.690221 231.07078 
L 352.015201 229.798523 
L 352.34018 229.464457 
L 352.66516 225.464364 
L 352.990139 226.62755 
L 353.315119 226.266451 
L 353.965078 213.766292 
L 354.290057 220.567545 
L 354.615037 222.133922 
L 355.264996 240.368239 
L 355.589975 236.023333 
L 355.914955 251.776876 
L 356.239934 255.900633 
L 356.564914 253.480361 
L 356.889894 253.066777 
L 357.214873 249.35382 
L 357.539853 248.717824 
L 357.864832 246.076899 
L 358.189812 249.107371 
L 358.514791 246.638696 
L 358.839771 240.107217 
L 359.16475 244.57761 
L 359.48973 252.85167 
L 359.814709 255.247404 
L 360.139689 247.285472 
L 360.464668 249.480486 
L 361.114627 235.974192 
L 361.764586 229.189423 
L 362.089566 229.280433 
L 362.414545 225.422377 
L 362.739525 224.838485 
L 363.064505 222.560616 
L 363.389484 224.682069 
L 364.039443 216.703997 
L 364.364423 217.067416 
L 364.689402 210.209671 
L 365.014382 209.996752 
L 365.664341 218.512004 
L 365.98932 216.275314 
L 366.639279 205.440895 
L 366.964259 205.231805 
L 367.289238 207.820762 
L 367.614218 208.533989 
L 367.939197 212.694303 
L 368.264177 203.489139 
L 368.589156 201.258527 
L 369.564095 188.639407 
L 370.539034 204.763647 
L 370.864013 204.252084 
L 371.188993 206.122459 
L 371.513972 198.318347 
L 371.838952 194.319227 
L 372.163931 196.362496 
L 372.488911 190.645115 
L 372.81389 195.582906 
L 373.13887 198.249969 
L 373.463849 203.168933 
L 373.788829 200.824218 
L 374.113808 201.829637 
L 374.438788 197.307903 
L 374.763767 188.261832 
L 375.088747 184.195846 
L 375.413726 184.57569 
L 376.063686 195.261357 
L 376.713645 186.806683 
L 377.038624 187.249952 
L 377.363604 178.942669 
L 377.688583 174.470619 
L 378.013563 175.832372 
L 378.338542 173.515948 
L 378.663522 177.715074 
L 378.988501 167.982209 
L 379.313481 167.625474 
L 379.63846 169.636319 
L 379.96344 166.73698 
L 380.288419 164.941915 
L 380.613399 164.330826 
L 380.938378 156.020242 
L 381.263358 154.606608 
L 381.588337 157.461131 
L 381.913317 153.20963 
L 382.563276 157.756778 
L 382.888256 160.497709 
L 383.213235 165.393208 
L 384.188174 156.760248 
L 384.513153 155.559847 
L 384.838133 154.886777 
L 385.163112 156.999664 
L 385.813071 167.817469 
L 386.138051 166.211393 
L 386.46303 159.757599 
L 387.437969 176.158034 
L 387.762948 185.311345 
L 388.412907 175.361881 
L 388.737887 182.740303 
L 389.062867 181.375554 
L 389.387846 182.070062 
L 389.712826 178.190748 
L 390.037805 172.281224 
L 390.362785 175.141987 
L 390.687764 172.205754 
L 391.012744 174.433148 
L 391.662703 172.64629 
L 391.987682 177.573939 
L 392.312662 184.887041 
L 392.637641 185.363225 
L 392.962621 174.60407 
L 393.2876 175.108617 
L 393.61258 182.049941 
L 393.937559 184.991203 
L 394.262539 183.472217 
L 394.587518 180.08994 
L 395.237477 170.981839 
L 395.562457 168.10005 
L 395.887437 161.488093 
L 396.212416 162.884831 
L 396.537396 161.558665 
L 397.187355 133.071497 
L 397.512334 128.941961 
L 397.837314 130.14506 
L 398.162293 130.805758 
L 398.487273 120.419786 
L 398.487273 120.419786 
" clip-path="url(#p152597976a)" style="fill: none; stroke: #1f77b4; stroke-width: 1.5; stroke-linecap: square"/>
   </g>
   <g id="line2d_15">
    <path d="M 73.832727 190.354545 
L 74.157707 193.18076 
L 75.132645 198.739561 
L 75.457625 199.359765 
L 75.782604 197.551394 
L 76.107584 197.207273 
L 76.432563 195.565623 
L 76.757543 195.519654 
L 77.082523 200.76189 
L 77.732482 194.638448 
L 78.057461 198.308487 
L 78.382441 199.503629 
L 78.70742 189.349083 
L 79.0324 192.509121 
L 79.357379 190.470965 
L 79.682359 180.208872 
L 80.007338 174.499539 
L 80.332318 171.397934 
L 80.657297 163.176681 
L 80.982277 159.571381 
L 81.632236 157.099141 
L 82.282195 150.325511 
L 82.607174 156.619899 
L 82.932154 152.765085 
L 83.257133 146.938088 
L 83.907093 145.487227 
L 84.232072 149.774535 
L 84.882031 140.115034 
L 85.207011 141.45353 
L 85.53199 133.569677 
L 85.85697 140.215356 
L 86.181949 141.789171 
L 86.506929 134.90226 
L 86.831908 137.032239 
L 87.156888 134.792697 
L 87.481867 142.480147 
L 87.806847 130.105017 
L 88.131826 124.707743 
L 88.456806 135.27316 
L 88.781785 140.010729 
L 89.106765 142.771993 
L 89.431744 140.718514 
L 89.756724 144.795873 
L 90.081704 150.805683 
L 90.406683 162.273789 
L 90.731663 169.567533 
L 91.056642 169.894565 
L 91.381622 164.615266 
L 91.706601 152.870009 
L 92.35656 143.76374 
L 92.68154 147.443866 
L 93.006519 143.354528 
L 93.981458 153.822243 
L 94.306437 159.271391 
L 94.956396 174.303325 
L 95.281376 167.283974 
L 95.606355 180.287354 
L 95.931335 175.702577 
L 96.581294 172.255109 
L 96.906274 167.685671 
L 97.231253 172.24437 
L 97.556233 163.390715 
L 98.531171 182.622302 
L 98.856151 183.042393 
L 99.18113 180.620386 
L 99.50611 182.06844 
L 99.831089 184.031268 
L 100.156069 188.341678 
L 100.481048 190.101686 
L 100.806028 187.158063 
L 101.131007 190.200262 
L 101.455987 190.052796 
L 101.780966 193.160331 
L 102.105946 194.01485 
L 102.430925 206.093709 
L 102.755905 201.047137 
L 103.080885 200.938564 
L 103.405864 200.046816 
L 103.730844 192.267654 
L 104.055823 187.798737 
L 104.380803 188.865486 
L 104.705782 188.913734 
L 105.030762 192.560098 
L 105.355741 194.731116 
L 105.680721 195.569387 
L 106.0057 194.456769 
L 106.33068 195.691582 
L 106.655659 194.391945 
L 106.980639 187.448531 
L 107.305618 195.196243 
L 107.630598 196.015029 
L 107.955577 200.75599 
L 108.280557 201.426118 
L 108.605536 197.468876 
L 109.255495 196.200532 
L 109.580475 190.541911 
L 109.905455 189.297472 
L 110.230434 190.324497 
L 110.555414 199.332278 
L 110.880393 199.003191 
L 111.205373 203.144437 
L 111.530352 198.620192 
L 111.855332 197.646412 
L 112.180311 206.932914 
L 112.505291 212.982734 
L 112.83027 211.037911 
L 113.15525 210.664701 
L 113.480229 214.985521 
L 113.805209 212.4606 
L 114.130188 213.921312 
L 114.455168 216.987711 
L 114.780147 218.660109 
L 115.105127 217.267703 
L 115.755086 207.665239 
L 116.080066 219.013981 
L 116.405045 215.546241 
L 116.730025 217.580352 
L 117.055004 230.767825 
L 117.704963 238.381762 
L 118.029943 238.064494 
L 118.354922 227.533487 
L 118.679902 220.945772 
L 119.329861 216.301409 
L 119.97982 222.213627 
L 120.304799 220.415638 
L 120.629779 217.377269 
L 120.954758 211.662013 
L 121.604717 207.387895 
L 121.929697 207.47528 
L 122.254676 206.045467 
L 122.579656 206.906806 
L 122.904636 198.834249 
L 123.229615 194.776706 
L 123.554595 193.936084 
L 123.879574 195.195326 
L 124.204554 192.684587 
L 124.529533 204.746621 
L 124.854513 206.005808 
L 125.179492 201.711331 
L 125.504472 204.051655 
L 125.829451 196.815252 
L 126.154431 195.225852 
L 126.47941 198.533264 
L 127.129369 198.762551 
L 127.454349 203.874365 
L 127.779328 202.330182 
L 128.104308 202.704444 
L 128.429287 209.722168 
L 128.754267 208.721077 
L 129.079247 210.355432 
L 129.404226 220.623194 
L 129.729206 223.800682 
L 130.054185 221.661387 
L 130.379165 221.634823 
L 130.704144 211.413561 
L 131.029124 209.814222 
L 131.354103 206.598261 
L 131.679083 210.442121 
L 132.004062 204.007569 
L 132.329042 206.651363 
L 132.654021 208.044478 
L 133.30398 211.794464 
L 133.62896 222.068254 
L 133.953939 227.250569 
L 134.278919 220.448087 
L 134.603898 220.193954 
L 134.928878 223.050819 
L 135.578837 214.642732 
L 135.903817 222.646135 
L 136.553776 207.568421 
L 136.878755 203.370824 
L 137.203735 212.918553 
L 137.528714 218.092749 
L 137.853694 219.639791 
L 138.178673 209.147785 
L 138.503653 206.599483 
L 138.828632 210.110907 
L 139.153612 201.299148 
L 139.478591 202.34126 
L 139.803571 200.767396 
L 140.12855 207.872587 
L 140.45353 212.135565 
L 141.103489 199.802179 
L 141.428468 201.508018 
L 141.753448 200.173307 
L 142.078428 197.309029 
L 142.403407 199.925023 
L 142.728387 201.458429 
L 143.053366 203.618093 
L 143.378346 199.917001 
L 143.703325 202.150078 
L 144.028305 202.902554 
L 144.678264 212.555778 
L 145.003243 212.550656 
L 145.328223 207.388311 
L 145.653202 218.270356 
L 145.978182 217.06133 
L 146.303161 217.020665 
L 146.95312 227.708219 
L 147.2781 230.404342 
L 147.603079 230.164385 
L 147.928059 234.950762 
L 148.253038 246.47266 
L 148.578018 248.697773 
L 148.902998 257.647064 
L 149.552957 266.055989 
L 149.877936 266.816846 
L 150.202916 274.630164 
L 150.527895 279.635759 
L 151.177854 276.224186 
L 152.152793 256.36125 
L 152.477772 248.482042 
L 152.802752 247.324153 
L 153.127731 246.592008 
L 153.452711 242.902905 
L 153.77769 246.414599 
L 154.427649 230.636104 
L 154.752629 229.151306 
L 155.077609 230.637025 
L 155.402588 226.412223 
L 155.727568 226.948459 
L 156.052547 224.286168 
L 156.377527 236.137643 
L 156.702506 236.465485 
L 157.027486 226.108747 
L 157.352465 232.874266 
L 158.002424 226.331439 
L 158.327404 226.274214 
L 158.652383 226.473429 
L 158.977363 226.345885 
L 159.302342 230.950471 
L 159.627322 232.644199 
L 159.952301 219.169519 
L 160.92724 228.14632 
L 161.577199 210.678846 
L 161.902179 208.383857 
L 162.227158 201.350073 
L 162.552138 205.944044 
L 162.877117 199.114665 
L 163.202097 202.588991 
L 163.527076 202.796482 
L 163.852056 193.272085 
L 164.177035 195.402766 
L 164.502015 191.750464 
L 164.826994 196.225986 
L 165.476953 198.958351 
L 165.801933 201.14438 
L 166.451892 213.554669 
L 166.776871 214.008543 
L 167.101851 208.176284 
L 167.42683 207.690628 
L 167.75181 202.22395 
L 168.07679 201.635856 
L 168.401769 211.86878 
L 169.051728 211.587576 
L 169.376708 213.798849 
L 169.701687 212.643892 
L 170.351646 197.731381 
L 170.676626 192.049233 
L 171.001605 183.025914 
L 171.326585 185.004141 
L 171.651564 189.484609 
L 171.976544 176.607422 
L 172.301523 177.591729 
L 172.626503 185.381576 
L 172.951482 184.436456 
L 173.276462 196.96917 
L 173.601441 204.127991 
L 173.926421 200.802641 
L 174.2514 199.792567 
L 174.90136 212.793325 
L 175.226339 208.584445 
L 175.551319 197.673233 
L 175.876298 197.159852 
L 176.201278 199.477792 
L 176.526257 195.550045 
L 176.851237 194.411658 
L 177.176216 197.253219 
L 177.501196 201.34772 
L 177.826175 199.199457 
L 178.151155 191.889765 
L 178.476134 192.589388 
L 178.801114 189.36663 
L 179.126093 188.288469 
L 179.451073 187.968523 
L 179.776052 185.308118 
L 180.101032 180.183784 
L 180.426011 182.018994 
L 180.750991 182.572049 
L 181.075971 180.603172 
L 181.72593 159.036917 
L 182.050909 155.574244 
L 182.375889 161.289788 
L 182.700868 155.896386 
L 183.025848 152.392169 
L 183.350827 152.922601 
L 183.675807 152.178365 
L 184.000786 153.813175 
L 184.325766 160.847996 
L 184.650745 162.214505 
L 185.300704 153.152095 
L 185.625684 150.501951 
L 185.950663 163.499948 
L 186.275643 170.491979 
L 186.600622 169.558289 
L 186.925602 161.534297 
L 187.250581 158.286515 
L 187.575561 161.184667 
L 187.900541 156.701284 
L 188.22552 155.357759 
L 188.5505 155.649009 
L 188.875479 151.259752 
L 189.525438 139.215849 
L 189.850418 138.495168 
L 190.175397 141.967871 
L 190.500377 141.343008 
L 190.825356 148.786326 
L 191.150336 149.551974 
L 191.475315 142.282869 
L 191.800295 145.5363 
L 192.125274 142.431581 
L 192.450254 141.825047 
L 192.775233 141.529184 
L 193.100213 141.632063 
L 193.425192 143.09661 
L 193.750172 141.966593 
L 194.075152 150.368259 
L 194.400131 148.777337 
L 194.725111 151.17764 
L 195.37507 149.320761 
L 195.700049 153.665353 
L 196.025029 152.496782 
L 196.350008 149.98172 
L 196.674988 154.598893 
L 196.999967 153.322008 
L 197.324947 154.325463 
L 197.649926 160.857064 
L 197.974906 159.55598 
L 198.299885 165.507502 
L 198.624865 168.48802 
L 199.274824 181.998525 
L 199.599803 177.394057 
L 199.924783 171.137115 
L 200.574742 178.333513 
L 200.899722 172.629609 
L 201.224701 170.234842 
L 201.549681 169.264691 
L 201.87466 174.790262 
L 202.19964 176.858982 
L 202.849599 188.952623 
L 203.174578 191.986226 
L 203.499558 186.033104 
L 203.824537 189.497122 
L 204.149517 191.507736 
L 205.124455 216.119036 
L 205.449435 219.458222 
L 205.774414 215.199946 
L 206.424373 221.094672 
L 206.749353 224.709954 
L 207.074333 224.603336 
L 207.724292 216.669673 
L 208.049271 211.425222 
L 208.374251 208.333261 
L 208.69923 207.130549 
L 209.02421 210.812304 
L 209.349189 209.743835 
L 209.674169 203.637031 
L 209.999148 205.018992 
L 210.324128 205.237865 
L 210.649107 207.662563 
L 210.974087 214.31859 
L 211.299066 216.564403 
L 211.624046 210.857061 
L 211.949025 210.463999 
L 212.274005 214.772935 
L 212.598984 216.314418 
L 213.573923 227.160323 
L 213.898903 233.985003 
L 214.548862 229.151857 
L 215.5238 248.20893 
L 215.84878 249.728479 
L 216.173759 256.182835 
L 216.498739 257.979395 
L 216.823718 258.425333 
L 217.148698 255.281696 
L 217.798657 263.986338 
L 218.123636 270.861035 
L 218.773595 292.815607 
L 219.098575 295.488 
L 219.748534 283.704224 
L 220.073514 279.916547 
L 220.398493 278.481618 
L 220.723473 272.305953 
L 221.048452 272.313919 
L 221.373432 274.30585 
L 221.698411 278.5078 
L 222.023391 268.500918 
L 222.34837 268.218465 
L 222.998329 260.909624 
L 223.323309 259.149618 
L 223.648288 263.135746 
L 223.973268 261.468669 
L 224.298247 260.410002 
L 224.623227 255.208574 
L 224.948206 257.018956 
L 225.598165 236.055574 
L 225.923145 239.663104 
L 226.248124 237.399848 
L 227.223063 254.148543 
L 227.548043 258.232182 
L 227.873022 253.607 
L 228.522981 262.141218 
L 228.847961 258.050403 
L 229.17294 263.56252 
L 229.49792 260.943717 
L 229.822899 265.479059 
L 230.147879 271.876025 
L 230.797838 259.814539 
L 231.122817 254.535095 
L 231.447797 255.921364 
L 231.772776 260.46603 
L 232.097756 261.972341 
L 232.422735 268.456359 
L 233.072695 258.606111 
L 233.397674 257.535726 
L 233.722654 257.609733 
L 234.047633 260.32197 
L 234.372613 251.886585 
L 234.697592 239.295389 
L 235.022572 235.794762 
L 235.347551 238.741663 
L 235.672531 237.997932 
L 235.99751 234.454037 
L 236.32249 237.268641 
L 236.647469 236.873226 
L 237.297428 246.734143 
L 237.622408 247.42598 
L 237.947387 243.998167 
L 238.272367 243.931684 
L 238.922326 259.06302 
L 240.222244 234.961095 
L 240.547224 237.30407 
L 240.872203 241.08863 
L 241.197183 247.309917 
L 241.522162 249.066502 
L 241.847142 254.453926 
L 242.172121 246.233796 
L 242.497101 242.62251 
L 242.82208 241.971963 
L 243.472039 245.162319 
L 243.797019 244.855766 
L 244.121998 250.277788 
L 244.446978 253.632576 
L 245.096937 240.777495 
L 245.421916 236.585007 
L 245.746896 238.475312 
L 246.071876 235.157457 
L 246.721835 221.956509 
L 247.046814 224.273085 
L 247.371794 229.210172 
L 247.696773 230.509795 
L 248.021753 235.558772 
L 248.346732 232.485763 
L 248.671712 224.73514 
L 248.996691 221.711933 
L 249.321671 216.864024 
L 249.64665 222.502319 
L 249.97163 224.438664 
L 250.296609 217.718061 
L 250.621589 218.245055 
L 250.946568 225.269082 
L 251.596527 232.281668 
L 251.921507 224.903549 
L 252.246486 231.425778 
L 252.571466 232.907482 
L 252.896446 231.510559 
L 253.221425 223.788958 
L 253.546405 224.491009 
L 253.871384 215.328621 
L 254.196364 218.990106 
L 254.521343 216.193713 
L 254.846323 220.766897 
L 255.171302 214.497815 
L 255.496282 219.551193 
L 255.821261 216.287695 
L 256.146241 221.27201 
L 256.7962 211.840753 
L 257.121179 210.677103 
L 257.446159 206.779762 
L 257.771138 199.647373 
L 258.096118 203.379581 
L 258.421097 210.428767 
L 258.746077 210.833595 
L 259.071057 210.129636 
L 259.396036 208.830838 
L 259.721016 213.073036 
L 260.045995 212.940831 
L 260.370975 214.793795 
L 261.020934 196.662518 
L 261.345913 197.772314 
L 261.995872 202.992947 
L 262.320852 203.520397 
L 262.970811 210.888487 
L 263.29579 209.256389 
L 263.62077 201.793728 
L 263.945749 199.801265 
L 264.270729 202.632946 
L 264.595708 201.241795 
L 264.920688 202.261702 
L 265.245667 199.799896 
L 265.570647 204.449289 
L 265.895627 203.77592 
L 266.220606 207.000002 
L 266.870565 197.663941 
L 267.195545 198.020789 
L 267.520524 192.803532 
L 267.845504 194.374011 
L 268.170483 196.871397 
L 268.495463 200.433041 
L 268.820442 205.504153 
L 269.145422 207.521053 
L 269.470401 203.901997 
L 269.795381 204.772403 
L 270.12036 201.325417 
L 270.44534 206.737843 
L 270.770319 205.000734 
L 271.095299 193.692637 
L 271.420278 195.61106 
L 272.070238 214.136218 
L 272.395217 215.883728 
L 273.045176 204.2472 
L 273.370156 200.68258 
L 273.695135 200.044637 
L 274.020115 195.291568 
L 274.670074 198.657118 
L 274.995053 198.269321 
L 275.320033 195.043892 
L 275.645012 200.665635 
L 275.969992 197.20441 
L 276.294971 195.637916 
L 276.619951 195.105303 
L 276.94493 190.052376 
L 277.26991 175.838784 
L 277.594889 169.897855 
L 277.919869 176.191579 
L 278.244848 173.148833 
L 278.569828 178.657584 
L 278.894808 181.651312 
L 279.219787 180.333522 
L 279.544767 183.51573 
L 279.869746 183.072998 
L 280.194726 186.791446 
L 280.519705 187.624211 
L 280.844685 196.428189 
L 281.169664 192.049178 
L 281.494644 185.509238 
L 281.819623 191.140025 
L 282.144603 190.057934 
L 282.469582 193.346404 
L 282.794562 182.17298 
L 283.119541 183.851488 
L 283.7695 179.876238 
L 284.09448 174.017628 
L 284.419459 175.209314 
L 284.744439 169.714956 
L 285.069419 169.556364 
L 285.394398 174.805417 
L 285.719378 171.658523 
L 286.044357 176.926848 
L 286.369337 174.188535 
L 286.694316 168.683646 
L 287.019296 172.803094 
L 287.344275 173.676311 
L 287.669255 164.071947 
L 288.319214 155.801485 
L 288.644193 154.721861 
L 289.619132 147.914103 
L 289.944111 143.755093 
L 290.269091 141.954343 
L 290.59407 141.769691 
L 291.244029 134.065721 
L 291.569009 139.062893 
L 291.893989 136.067372 
L 292.218968 135.981015 
L 292.543948 134.972756 
L 292.868927 126.602255 
L 293.193907 127.287404 
L 293.843866 136.712347 
L 294.168845 135.73674 
L 294.493825 127.30451 
L 294.818804 124.840275 
L 295.143784 128.746719 
L 295.468763 127.250768 
L 295.793743 131.070287 
L 296.118722 131.233057 
L 296.443702 123.445348 
L 296.768681 122.093237 
L 297.093661 122.472465 
L 297.41864 125.258742 
L 297.74362 121.765603 
L 298.0686 122.829438 
L 298.393579 128.878291 
L 298.718559 128.539457 
L 299.043538 123.71105 
L 299.368518 116.182251 
L 300.018477 111.464217 
L 300.343456 112.999643 
L 300.668436 112.723104 
L 300.993415 112.083193 
L 301.318395 109.278838 
L 301.643374 110.888608 
L 301.968354 116.884358 
L 302.618313 110.404014 
L 304.24321 152.742588 
L 304.56819 149.649654 
L 304.89317 148.991382 
L 305.543129 154.757606 
L 306.193088 151.297314 
L 306.518067 154.172447 
L 307.168026 144.60689 
L 307.493006 135.027391 
L 308.142965 128.295578 
L 308.467944 126.980462 
L 308.792924 130.716878 
L 309.117903 141.487902 
L 309.442883 141.918101 
L 309.767862 143.800178 
L 310.092842 142.090255 
L 310.417821 138.624639 
L 310.742801 139.956539 
L 311.067781 143.624324 
L 311.71774 135.184959 
L 312.042719 133.497666 
L 312.367699 131.011012 
L 312.692678 131.937955 
L 313.017658 127.890668 
L 313.342637 132.365959 
L 313.667617 130.988705 
L 314.317576 123.036055 
L 314.642555 116.131103 
L 314.967535 116.069536 
L 315.617494 120.628485 
L 315.942473 115.762056 
L 316.592432 125.505299 
L 316.917412 124.984478 
L 317.567371 137.539908 
L 318.21733 131.978099 
L 319.192269 142.486352 
L 319.842228 130.719565 
L 320.167207 128.196086 
L 320.492187 124.228287 
L 320.817166 112.236549 
L 321.142146 112.000931 
L 321.467125 111.2349 
L 321.792105 106.491291 
L 322.117084 105.037921 
L 322.442064 116.959167 
L 322.767043 116.590469 
L 323.092023 114.707653 
L 323.417002 110.734384 
L 323.741982 111.922557 
L 324.066962 119.615252 
L 324.391941 123.876541 
L 325.0419 113.670498 
L 325.36688 113.039629 
L 325.691859 111.203767 
L 326.016839 108.247148 
L 326.341818 110.085776 
L 326.666798 113.928084 
L 326.991777 110.121978 
L 327.316757 115.000849 
L 327.641736 116.685595 
L 327.966716 120.691083 
L 328.291695 115.451249 
L 328.616675 108.354029 
L 329.266634 102.288981 
L 329.591613 96.119183 
L 329.916593 96.862182 
L 330.241572 106.370173 
L 330.566552 109.343045 
L 330.891532 110.863047 
L 331.541491 124.442059 
L 331.86647 136.346933 
L 332.19145 139.739814 
L 332.516429 141.961186 
L 332.841409 140.780533 
L 333.166388 135.887442 
L 333.491368 139.066152 
L 333.816347 134.034985 
L 334.141327 134.168462 
L 334.466306 133.456467 
L 334.791286 130.202641 
L 335.116265 131.745433 
L 335.441245 125.891175 
L 335.766224 127.860904 
L 336.091204 126.864675 
L 336.416183 122.863108 
L 336.741163 123.017865 
L 337.066143 126.684032 
L 337.716102 106.255299 
L 338.041081 108.449838 
L 338.69104 118.816283 
L 339.01602 116.799355 
L 339.340999 120.710201 
L 339.665979 114.897244 
L 339.990958 114.348583 
L 340.315938 112.776406 
L 340.640917 113.013042 
L 340.965897 110.545981 
L 341.290876 119.542656 
L 341.615856 119.23984 
L 342.590794 107.152047 
L 342.915774 115.352156 
L 343.240753 112.200951 
L 343.565733 110.144133 
L 343.890713 102.655484 
L 344.215692 102.697087 
L 344.540672 98.403479 
L 344.865651 99.125991 
L 345.190631 100.561821 
L 345.51561 97.693417 
L 346.490549 113.178717 
L 347.140508 100.830405 
L 347.465487 105.202247 
L 347.790467 104.635991 
L 348.115446 106.011595 
L 348.440426 98.422342 
L 348.765405 101.913279 
L 349.090385 108.029665 
L 349.415364 107.818891 
L 349.740344 107.957145 
L 350.065324 104.758291 
L 350.390303 103.658076 
L 350.715283 103.053341 
L 351.040262 105.697846 
L 351.365242 109.353366 
L 351.690221 109.904013 
L 352.015201 121.817715 
L 352.34018 123.054398 
L 352.66516 128.375575 
L 352.990139 124.752557 
L 353.315119 111.807738 
L 353.640098 107.059784 
L 353.965078 107.332426 
L 354.290057 100.00739 
L 354.615037 100.690114 
L 354.940016 97.62146 
L 355.264996 98.200358 
L 355.589975 94.166833 
L 355.914955 100.838408 
L 356.239934 100.350176 
L 356.564914 100.111474 
L 357.214873 105.108506 
L 357.539853 106.295391 
L 357.864832 106.164529 
L 358.189812 103.654781 
L 358.514791 110.263453 
L 358.839771 110.977953 
L 359.16475 109.516952 
L 359.48973 112.283857 
L 359.814709 110.148466 
L 360.139689 102.282532 
L 360.464668 102.088227 
L 360.789648 106.450639 
L 361.114627 107.417681 
L 361.439607 110.993509 
L 362.089566 99.62719 
L 362.739525 104.419073 
L 363.064505 106.498415 
L 363.389484 104.42398 
L 363.714464 97.122898 
L 364.039443 100.354798 
L 364.364423 101.839531 
L 364.689402 101.024203 
L 365.014382 108.374959 
L 365.339361 106.843269 
L 365.664341 103.610948 
L 366.3143 101.232604 
L 366.639279 102.340456 
L 366.964259 110.25069 
L 367.289238 108.07331 
L 368.264177 117.914796 
L 368.589156 119.910353 
L 368.914136 112.571357 
L 369.239115 107.884747 
L 370.214054 89.115561 
L 370.864013 81.558481 
L 371.188993 85.290497 
L 371.513972 85.23889 
L 371.838952 78.344161 
L 372.163931 75.54204 
L 372.488911 82.201095 
L 372.81389 83.92018 
L 373.13887 82.054243 
L 373.463849 85.517775 
L 373.788829 91.497207 
L 374.763767 81.96468 
L 375.088747 83.495072 
L 375.413726 86.344712 
L 375.738706 87.830816 
L 376.063686 89.86867 
L 376.388665 95.446844 
L 376.713645 97.113272 
L 377.038624 99.933906 
L 377.363604 87.675219 
L 378.013563 104.027292 
L 378.338542 104.262389 
L 378.663522 98.396258 
L 378.988501 104.869103 
L 379.313481 105.129272 
L 379.63846 106.25236 
L 379.96344 98.629853 
L 380.288419 96.115106 
L 380.613399 96.295941 
L 381.263358 104.778371 
L 381.588337 107.134985 
L 382.238296 101.907135 
L 382.563276 102.261376 
L 382.888256 97.112017 
L 383.213235 104.483337 
L 383.538215 116.157619 
L 383.863194 114.985354 
L 384.838133 97.036627 
L 385.163112 96.682351 
L 385.488092 97.291589 
L 385.813071 96.257315 
L 386.138051 97.226939 
L 386.46303 99.355384 
L 386.78801 99.62715 
L 387.112989 101.95207 
L 387.437969 102.76295 
L 388.087928 110.198452 
L 388.412907 104.937591 
L 388.737887 106.270728 
L 389.062867 111.410184 
L 389.387846 113.957364 
L 389.712826 120.763721 
L 390.037805 122.939485 
L 390.362785 123.824647 
L 391.012744 130.694876 
L 391.337723 132.795946 
L 391.662703 131.847611 
L 391.987682 134.920492 
L 392.312662 140.782198 
L 392.962621 158.213743 
L 393.2876 161.962904 
L 393.61258 159.130269 
L 393.937559 161.771012 
L 394.262539 160.847489 
L 394.587518 166.489827 
L 394.912498 166.091363 
L 395.237477 159.34166 
L 395.562457 158.685503 
L 395.887437 166.244277 
L 396.537396 173.848551 
L 396.862375 186.393545 
L 397.187355 184.954451 
L 397.512334 182.947375 
L 397.837314 187.637989 
L 398.487273 182.814831 
L 398.487273 182.814831 
" clip-path="url(#p152597976a)" style="fill: none; stroke: #ff7f0e; stroke-width: 1.5; stroke-linecap: square"/>
   </g>
   <g id="patch_3">
    <path d="M 57.6 307.584 
L 57.6 41.472 
" style="fill: none; stroke: #000000; stroke-width: 0.8; stroke-linejoin: miter; stroke-linecap: square"/>
   </g>
   <g id="patch_4">
    <path d="M 414.72 307.584 
L 414.72 41.472 
" style="fill: none; stroke: #000000; stroke-width: 0.8; stroke-linejoin: miter; stroke-linecap: square"/>
   </g>
   <g id="patch_5">
    <path d="M 57.6 307.584 
L 414.72 307.584 
" style="fill: none; stroke: #000000; stroke-width: 0.8; stroke-linejoin: miter; stroke-linecap: square"/>
   </g>
   <g id="patch_6">
    <path d="M 57.6 41.472 
L 414.72 41.472 
" style="fill: none; stroke: #000000; stroke-width: 0.8; stroke-linejoin: miter; stroke-linecap: square"/>
   </g>
  </g>
 </g>
 <defs>
  <clipPath id="p152597976a">
   <rect x="57.6" y="41.472" width="357.12" height="266.112"/>
  </clipPath>
 </defs>
</svg>
