<?xml version="1.0" encoding="utf-8" standalone="no"?>
<!DOCTYPE svg PUBLIC "-//W3C//DTD SVG 1.1//EN"
  "http://www.w3.org/Graphics/SVG/1.1/DTD/svg11.dtd">
<svg xmlns:xlink="http://www.w3.org/1999/xlink" width="460.8pt" height="345.6pt" viewBox="0 0 460.8 345.6" xmlns="http://www.w3.org/2000/svg" version="1.1">
 <metadata>
  <rdf:RDF xmlns:dc="http://purl.org/dc/elements/1.1/" xmlns:cc="http://creativecommons.org/ns#" xmlns:rdf="http://www.w3.org/1999/02/22-rdf-syntax-ns#">
   <cc:Work>
    <dc:type rdf:resource="http://purl.org/dc/dcmitype/StillImage"/>
    <dc:date>2026-01-29T08:00:34.081179</dc:date>
    <dc:format>image/svg+xml</dc:format>
    <dc:creator>
     <cc:Agent>
      <dc:title>Matplotlib v3.10.8, https://matplotlib.org/</dc:title>
     </cc:Agent>
    </dc:creator>
   </cc:Work>
  </rdf:RDF>
 </metadata>
 <defs>
  <style type="text/css">*{stroke-linejoin: round; stroke-linecap: butt}</style>
 </defs>
 <g id="figure_1">
  <g id="patch_1">
   <path d="M 0 345.6 
L 460.8 345.6 
L 460.8 0 
L 0 0 
z
" style="fill: #ffffff"/>
  </g>
  <g id="axes_1">
   <g id="patch_2">
    <path d="M 107.5475 266.245 
L 434.202791 266.245 
L 434.202791 25.92 
L 107.5475 25.92 
z
" style="fill: #ffffff"/>
   </g>
   <g id="matplotlib.axis_1">
    <g id="xtick_1">
     <g id="line2d_1">
      <path d="M 130.94032 266.245 
L 130.94032 25.92 
" clip-path="url(#pba7b5561f4)" style="fill: none; stroke: #b0b0b0; stroke-width: 0.8; stroke-linecap: square"/>
     </g>
     <g id="line2d_2">
      <defs>
       <path id="m5a78e4b07f" d="M 0 0 
L 0 3.5 
" style="stroke: #000000; stroke-width: 0.8"/>
      </defs>
      <g>
       <use xlink:href="#m5a78e4b07f" x="130.94032" y="266.245" style="stroke: #000000; stroke-width: 0.8"/>
      </g>
     </g>
     <g id="text_1">
      <!-- 0 -->
      <g transform="translate(124.94032 289.63625) scale(0.24 -0.24)">
       <defs>
        <path id="TeXGyreTermes-Regular-30" d="M 3046 2112 
C 3046 3424 2464 4326 1626 4326 
C 1274 4326 1005 4218 768 3994 
C 397 3635 154 2899 154 2150 
C 154 1453 365 704 666 346 
C 902 64 1229 -90 1600 -90 
C 1926 -90 2202 19 2432 243 
C 2803 595 3046 1338 3046 2112 
z
M 2432 2099 
C 2432 762 2150 77 1600 77 
C 1050 77 768 762 768 2093 
C 768 3450 1056 4160 1606 4160 
C 2144 4160 2432 3437 2432 2099 
z
" transform="scale(0.015625)"/>
       </defs>
       <use xlink:href="#TeXGyreTermes-Regular-30"/>
      </g>
     </g>
    </g>
    <g id="xtick_2">
     <g id="line2d_3">
      <path d="M 274.669615 266.245 
L 274.669615 25.92 
" clip-path="url(#pba7b5561f4)" style="fill: none; stroke: #b0b0b0; stroke-width: 0.8; stroke-linecap: square"/>
     </g>
     <g id="line2d_4">
      <g>
       <use xlink:href="#m5a78e4b07f" x="274.669615" y="266.245" style="stroke: #000000; stroke-width: 0.8"/>
      </g>
     </g>
     <g id="text_2">
      <!-- 200 -->
      <g transform="translate(256.669615 289.63625) scale(0.24 -0.24)">
       <defs>
        <path id="TeXGyreTermes-Regular-32" d="M 3040 877 
L 2957 909 
C 2720 544 2637 486 2349 486 
L 819 486 
L 1894 1613 
C 2464 2208 2714 2694 2714 3194 
C 2714 3834 2195 4326 1530 4326 
C 1178 4326 845 4186 608 3930 
C 403 3712 307 3507 198 3053 
L 333 3021 
C 589 3648 819 3853 1261 3853 
C 1798 3853 2163 3488 2163 2950 
C 2163 2451 1869 1856 1331 1286 
L 192 77 
L 192 0 
L 2688 0 
L 3040 877 
z
" transform="scale(0.015625)"/>
       </defs>
       <use xlink:href="#TeXGyreTermes-Regular-32"/>
       <use xlink:href="#TeXGyreTermes-Regular-30" transform="translate(49.999985 0)"/>
       <use xlink:href="#TeXGyreTermes-Regular-30" transform="translate(99.999969 0)"/>
      </g>
     </g>
    </g>
    <g id="xtick_3">
     <g id="line2d_5">
      <path d="M 418.39891 266.245 
L 418.39891 25.92 
" clip-path="url(#pba7b5561f4)" style="fill: none; stroke: #b0b0b0; stroke-width: 0.8; stroke-linecap: square"/>
     </g>
     <g id="line2d_6">
      <g>
       <use xlink:href="#m5a78e4b07f" x="418.39891" y="266.245" style="stroke: #000000; stroke-width: 0.8"/>
      </g>
     </g>
     <g id="text_3">
      <!-- 400 -->
      <g transform="translate(400.39891 289.63625) scale(0.24 -0.24)">
       <defs>
        <path id="TeXGyreTermes-Regular-34" d="M 3021 1069 
L 3021 1478 
L 2368 1478 
L 2368 4326 
L 2086 4326 
L 77 1478 
L 77 1069 
L 1875 1069 
L 1875 0 
L 2368 0 
L 2368 1069 
L 3021 1069 
z
M 1869 1478 
L 333 1478 
L 1869 3674 
L 1869 1478 
z
" transform="scale(0.015625)"/>
       </defs>
       <use xlink:href="#TeXGyreTermes-Regular-34"/>
       <use xlink:href="#TeXGyreTermes-Regular-30" transform="translate(49.999985 0)"/>
       <use xlink:href="#TeXGyreTermes-Regular-30" transform="translate(99.999969 0)"/>
      </g>
     </g>
    </g>
    <g id="text_4">
     <!-- x -->
     <g transform="translate(264.875146 315.23625) scale(0.24 -0.24)">
      <defs>
       <path id="TeXGyreTermes-Regular-78" d="M 3066 0 
L 3066 96 
C 2867 96 2739 198 2541 480 
L 1722 1734 
L 2253 2502 
C 2374 2675 2566 2778 2771 2784 
L 2771 2880 
L 1760 2880 
L 1760 2784 
C 1952 2771 2016 2733 2016 2643 
C 2016 2566 1939 2426 1779 2227 
C 1747 2189 1670 2074 1587 1946 
L 1498 2074 
C 1318 2342 1203 2560 1203 2643 
C 1203 2733 1286 2778 1478 2784 
L 1478 2880 
L 154 2880 
L 154 2784 
L 211 2784 
C 403 2784 506 2701 704 2400 
L 1306 1478 
L 576 422 
C 384 160 320 115 109 96 
L 109 0 
L 1037 0 
L 1037 96 
C 858 96 781 128 781 211 
C 781 250 826 346 909 474 
L 1414 1261 
L 1997 365 
C 2022 326 2035 288 2035 250 
C 2035 134 1990 109 1779 96 
L 1779 0 
L 3066 0 
z
" transform="scale(0.015625)"/>
      </defs>
      <use xlink:href="#TeXGyreTermes-Regular-78"/>
     </g>
    </g>
   </g>
   <g id="matplotlib.axis_2">
    <g id="ytick_1">
     <g id="line2d_7">
      <path d="M 107.5475 263.898201 
L 434.202791 263.898201 
" clip-path="url(#pba7b5561f4)" style="fill: none; stroke: #b0b0b0; stroke-width: 0.8; stroke-linecap: square"/>
     </g>
     <g id="line2d_8">
      <defs>
       <path id="mfb3c3fd82f" d="M 0 0 
L -3.5 0 
" style="stroke: #000000; stroke-width: 0.8"/>
      </defs>
      <g>
       <use xlink:href="#mfb3c3fd82f" x="107.5475" y="263.898201" style="stroke: #000000; stroke-width: 0.8"/>
      </g>
     </g>
     <g id="text_5">
      <!-- −400 -->
      <g transform="translate(51.01 272.093826) scale(0.24 -0.24)">
       <defs>
        <path id="TeXGyreTermes-Regular-2212" d="M 3354 1389 
L 3354 1811 
L 256 1811 
L 256 1389 
L 3354 1389 
z
" transform="scale(0.015625)"/>
       </defs>
       <use xlink:href="#TeXGyreTermes-Regular-2212"/>
       <use xlink:href="#TeXGyreTermes-Regular-34" transform="translate(56.399994 0)"/>
       <use xlink:href="#TeXGyreTermes-Regular-30" transform="translate(106.399979 0)"/>
       <use xlink:href="#TeXGyreTermes-Regular-30" transform="translate(156.399963 0)"/>
      </g>
     </g>
    </g>
    <g id="ytick_2">
     <g id="line2d_9">
      <path d="M 107.5475 209.479543 
L 434.202791 209.479543 
" clip-path="url(#pba7b5561f4)" style="fill: none; stroke: #b0b0b0; stroke-width: 0.8; stroke-linecap: square"/>
     </g>
     <g id="line2d_10">
      <g>
       <use xlink:href="#mfb3c3fd82f" x="107.5475" y="209.479543" style="stroke: #000000; stroke-width: 0.8"/>
      </g>
     </g>
     <g id="text_6">
      <!-- −300 -->
      <g transform="translate(51.01 217.675168) scale(0.24 -0.24)">
       <defs>
        <path id="TeXGyreTermes-Regular-33" d="M 2765 1402 
C 2765 1728 2662 2029 2477 2227 
C 2349 2368 2227 2445 1946 2566 
C 2387 2867 2547 3104 2547 3450 
C 2547 3968 2138 4326 1549 4326 
C 1229 4326 947 4218 717 4013 
C 525 3840 429 3674 288 3290 
L 384 3264 
C 646 3731 934 3942 1338 3942 
C 1754 3942 2042 3661 2042 3258 
C 2042 3027 1946 2797 1786 2637 
C 1594 2445 1414 2349 979 2195 
L 979 2112 
C 1357 2112 1504 2099 1658 2042 
C 2054 1901 2304 1536 2304 1094 
C 2304 557 1939 141 1466 141 
C 1293 141 1165 186 928 339 
C 736 454 627 499 518 499 
C 371 499 275 410 275 275 
C 275 51 550 -90 998 -90 
C 1491 -90 1997 77 2298 339 
C 2598 602 2765 973 2765 1402 
z
" transform="scale(0.015625)"/>
       </defs>
       <use xlink:href="#TeXGyreTermes-Regular-2212"/>
       <use xlink:href="#TeXGyreTermes-Regular-33" transform="translate(56.399994 0)"/>
       <use xlink:href="#TeXGyreTermes-Regular-30" transform="translate(106.399979 0)"/>
       <use xlink:href="#TeXGyreTermes-Regular-30" transform="translate(156.399963 0)"/>
      </g>
     </g>
    </g>
    <g id="ytick_3">
     <g id="line2d_11">
      <path d="M 107.5475 155.060885 
L 434.202791 155.060885 
" clip-path="url(#pba7b5561f4)" style="fill: none; stroke: #b0b0b0; stroke-width: 0.8; stroke-linecap: square"/>
     </g>
     <g id="line2d_12">
      <g>
       <use xlink:href="#mfb3c3fd82f" x="107.5475" y="155.060885" style="stroke: #000000; stroke-width: 0.8"/>
      </g>
     </g>
     <g id="text_7">
      <!-- −200 -->
      <g transform="translate(51.01 163.25651) scale(0.24 -0.24)">
       <use xlink:href="#TeXGyreTermes-Regular-2212"/>
       <use xlink:href="#TeXGyreTermes-Regular-32" transform="translate(56.399994 0)"/>
       <use xlink:href="#TeXGyreTermes-Regular-30" transform="translate(106.399979 0)"/>
       <use xlink:href="#TeXGyreTermes-Regular-30" transform="translate(156.399963 0)"/>
      </g>
     </g>
    </g>
    <g id="ytick_4">
     <g id="line2d_13">
      <path d="M 107.5475 100.642227 
L 434.202791 100.642227 
" clip-path="url(#pba7b5561f4)" style="fill: none; stroke: #b0b0b0; stroke-width: 0.8; stroke-linecap: square"/>
     </g>
     <g id="line2d_14">
      <g>
       <use xlink:href="#mfb3c3fd82f" x="107.5475" y="100.642227" style="stroke: #000000; stroke-width: 0.8"/>
      </g>
     </g>
     <g id="text_8">
      <!-- −100 -->
      <g transform="translate(51.01 108.837852) scale(0.24 -0.24)">
       <defs>
        <path id="TeXGyreTermes-Regular-31" d="M 2522 0 
L 2522 96 
C 2016 102 1914 166 1914 474 
L 1914 4314 
L 1862 4326 
L 710 3744 
L 710 3654 
C 787 3686 858 3712 883 3725 
C 998 3770 1107 3795 1171 3795 
C 1306 3795 1363 3699 1363 3494 
L 1363 595 
C 1363 384 1312 237 1210 179 
C 1114 122 1024 102 755 96 
L 755 0 
L 2522 0 
z
" transform="scale(0.015625)"/>
       </defs>
       <use xlink:href="#TeXGyreTermes-Regular-2212"/>
       <use xlink:href="#TeXGyreTermes-Regular-31" transform="translate(56.399994 0)"/>
       <use xlink:href="#TeXGyreTermes-Regular-30" transform="translate(106.399979 0)"/>
       <use xlink:href="#TeXGyreTermes-Regular-30" transform="translate(156.399963 0)"/>
      </g>
     </g>
    </g>
    <g id="ytick_5">
     <g id="line2d_15">
      <path d="M 107.5475 46.223569 
L 434.202791 46.223569 
" clip-path="url(#pba7b5561f4)" style="fill: none; stroke: #b0b0b0; stroke-width: 0.8; stroke-linecap: square"/>
     </g>
     <g id="line2d_16">
      <g>
       <use xlink:href="#mfb3c3fd82f" x="107.5475" y="46.223569" style="stroke: #000000; stroke-width: 0.8"/>
      </g>
     </g>
     <g id="text_9">
      <!-- 0 -->
      <g transform="translate(88.5475 54.419194) scale(0.24 -0.24)">
       <use xlink:href="#TeXGyreTermes-Regular-30"/>
      </g>
     </g>
    </g>
    <g id="text_10">
     <!-- y -->
     <g transform="translate(41.77875 152.0825) rotate(-90) scale(0.24 -0.24)">
      <defs>
       <path id="TeXGyreTermes-Regular-79" d="M 3040 2784 
L 3040 2880 
L 2176 2880 
L 2176 2784 
C 2381 2784 2483 2726 2483 2624 
C 2483 2598 2477 2560 2458 2515 
L 1837 749 
L 1101 2368 
C 1062 2458 1037 2541 1037 2611 
C 1037 2726 1133 2771 1408 2784 
L 1408 2880 
L 90 2880 
L 90 2790 
C 256 2765 365 2694 416 2586 
L 1472 358 
C 1517 250 1542 173 1542 122 
C 1542 26 1395 -378 1286 -570 
C 1197 -736 1056 -858 966 -858 
C 928 -858 870 -845 806 -813 
C 685 -768 576 -742 467 -742 
C 320 -742 192 -870 192 -1024 
C 192 -1235 397 -1395 666 -1395 
C 1094 -1395 1402 -1037 1747 -115 
L 2733 2496 
C 2816 2701 2886 2765 3040 2784 
z
" transform="scale(0.015625)"/>
      </defs>
      <use xlink:href="#TeXGyreTermes-Regular-79"/>
     </g>
    </g>
   </g>
   <g id="line2d_17">
    <path d="M 130.94032 46.223569 
L 135.648951 47.270238 
L 145.713182 49.826287 
L 148.076789 50.174445 
L 150.334807 50.217224 
L 152.555985 50.042527 
L 155.830717 49.490288 
L 167.427198 46.985161 
L 173.302104 45.04383 
L 177.491955 43.398877 
L 182.617928 40.225348 
L 183.703187 40.021127 
L 184.882049 39.84573 
L 187.439233 38.668271 
L 189.472327 37.724896 
L 190.832134 37.318171 
L 192.933749 37.140917 
L 194.59902 37.179876 
L 196.202346 37.029337 
L 197.605913 36.843864 
L 200.251651 37.036301 
L 202.715838 37.258794 
L 206.724346 38.003935 
L 207.932186 38.397406 
L 209.331278 39.282674 
L 210.298079 39.731657 
L 217.241815 41.40172 
L 218.856462 41.746255 
L 220.39624 42.243376 
L 221.998874 42.763439 
L 224.278555 43.38453 
L 225.821978 43.696415 
L 230.378203 45.342956 
L 231.858858 46.134415 
L 233.302447 47.344069 
L 234.746047 48.677491 
L 235.701583 49.53278 
L 236.58773 50.352956 
L 237.330683 51.242773 
L 238.020974 52.487132 
L 238.830127 54.408273 
L 239.786944 55.812387 
L 240.647408 56.794656 
L 242.365457 58.126844 
L 244.221758 59.183646 
L 246.575358 60.108957 
L 252.494799 61.852746 
L 253.257388 62.16251 
L 258.617045 63.671181 
L 260.433118 64.257561 
L 264.634907 66.378476 
L 269.024076 68.476704 
L 270.608747 69.164782 
L 273.488599 70.230359 
L 275.630754 71.128127 
L 278.116626 72.175346 
L 282.146055 73.635616 
L 284.834575 74.570392 
L 296.70777 78.643767 
L 298.774453 79.269091 
L 299.772669 79.666173 
L 302.334891 80.24972 
L 307.722042 81.302002 
L 313.122367 82.443162 
L 315.623126 83.088054 
L 323.591288 85.600531 
L 326.200136 86.671113 
L 330.36876 88.50087 
L 333.065902 90.060857 
L 335.638236 91.892696 
L 339.455712 94.932049 
L 340.801843 96.058238 
L 343.845763 98.257389 
L 347.22393 100.243274 
L 350.599656 101.907744 
L 356.985378 104.95095 
L 359.829052 106.238529 
L 367.743579 109.709381 
L 370.080094 110.917279 
L 376.46167 114.327141 
L 382.145807 117.647638 
L 385.272699 118.846565 
L 388.06025 119.713788 
L 390.610458 120.497285 
L 393.872334 121.115753 
L 397.409795 121.889716 
L 399.81104 122.651306 
L 402.097844 123.422935 
L 407.532955 125.132518 
L 409.374893 125.938729 
L 411.317656 126.900202 
L 412.42006 127.162974 
L 414.22753 127.432735 
L 415.326716 127.564788 
L 415.848412 127.662677 
L 417.660063 128.744955 
L 417.977703 129.074668 
L 418.405584 130.078447 
L 418.787612 130.79206 
L 419.129549 131.950332 
L 419.354824 132.426925 
L 419.280268 132.67027 
L 418.571518 132.87175 
L 418.111042 132.928234 
L 417.663977 132.869807 
L 415.988381 132.116954 
L 414.567614 131.375657 
L 413.291789 130.985864 
L 412.103131 130.643901 
L 410.06833 129.404077 
L 409.649117 128.773117 
L 409.39618 128.178655 
L 409.113469 127.389743 
L 408.711288 126.661318 
L 407.258174 125.415484 
L 405.868341 124.331698 
L 404.468897 123.257736 
L 403.547937 122.438993 
L 402.831612 121.402632 
L 402.273965 120.903953 
L 401.173492 120.281596 
L 400.469418 120.004164 
L 399.872019 119.934268 
L 399.300287 120.027644 
L 398.553235 119.980342 
L 397.736032 119.982666 
L 396.499858 119.854861 
L 395.561709 119.950893 
L 393.20336 120.718958 
L 392.398166 121.345249 
L 389.630752 125.200149 
L 387.344557 127.79397 
L 386.598266 128.436759 
L 385.876377 130.413409 
L 383.420906 134.072037 
L 381.186025 136.837383 
L 379.579104 139.405656 
L 377.465768 143.029365 
L 374.944525 147.774783 
L 372.786456 151.297643 
L 371.2201 153.458381 
L 369.46214 155.574102 
L 367.291939 158.696888 
L 365.935404 160.584903 
L 364.348527 163.36773 
L 362.015463 166.777256 
L 359.329662 171.194587 
L 358.507388 172.934622 
L 357.570012 174.766877 
L 356.490876 176.612484 
L 352.945027 181.429928 
L 350.540765 184.074154 
L 348.03141 186.968904 
L 345.279806 189.643689 
L 343.410385 191.387715 
L 340.697801 193.415274 
L 337.046342 196.787147 
L 334.730941 199.077469 
L 333.049489 200.651803 
L 331.401353 202.395616 
L 328.31725 205.196255 
L 327.307639 206.683095 
L 326.033666 209.82506 
L 325.76176 211.279639 
L 325.404211 212.783972 
L 324.910924 215.207535 
L 324.798202 217.902516 
L 324.799073 218.48716 
L 324.315216 220.695578 
L 323.865344 224.940836 
L 324.136419 225.942855 
L 324.690677 227.133139 
L 327.442964 230.554894 
L 328.276248 231.898505 
L 329.50603 234.674634 
L 329.952439 235.449861 
L 330.182645 236.353787 
L 330.092908 237.490868 
L 330.047477 238.665243 
L 330.143223 239.091038 
L 331.130398 240.749264 
L 331.195128 241.850404 
L 331.246834 242.399631 
L 332.372604 244.148595 
L 332.59817 245.016235 
L 332.968077 247.455622 
L 332.963642 248.394732 
L 333.102032 248.811194 
L 332.932859 249.99732 
L 332.528715 250.684849 
L 331.909726 251.224703 
L 331.46725 251.670713 
L 331.284958 252.169513 
L 330.163878 253.481531 
L 325.64679 253.656986 
L 323.643722 253.995796 
L 322.332981 254.403332 
L 320.94504 254.683107 
L 318.616824 255.200857 
L 316.866891 255.306486 
L 315.696453 255.243581 
L 314.165284 255.134468 
L 312.991284 255.138437 
L 309.474682 254.723329 
L 306.368314 253.770359 
L 304.352405 252.771233 
L 298.754031 249.349613 
L 297.58312 248.359557 
L 294.758717 246.448741 
L 293.524947 245.425289 
L 291.366839 243.90904 
L 290.196068 242.762107 
L 288.500512 240.571943 
L 287.676675 239.508018 
L 286.666655 237.514489 
L 284.832074 234.766454 
L 283.95558 232.767266 
L 283.177845 230.939595 
L 282.899878 230.48367 
L 280.602725 229.110879 
L 278.006879 227.879703 
L 276.67448 227.111565 
L 274.264645 225.604432 
L 271.466985 224.053622 
L 268.517846 222.571648 
L 265.844094 221.300929 
L 263.424189 219.83967 
L 261.20094 218.373865 
L 257.379758 215.323138 
L 255.80062 214.091194 
L 254.014822 213.00825 
L 251.275393 211.685804 
L 249.068947 210.789371 
L 245.733648 209.633508 
L 242.488037 208.089124 
L 231.421706 201.906612 
L 226.590913 199.452928 
L 223.557393 197.419989 
L 219.944357 194.621167 
L 217.100282 192.744458 
L 216.133061 192.0972 
L 214.568302 190.618624 
L 212.855497 188.973118 
L 208.820916 185.340715 
L 206.722957 183.984114 
L 205.441356 183.249541 
L 203.5778 181.539236 
L 202.38088 180.598541 
L 199.028895 177.422878 
L 198.116499 176.247129 
L 196.90097 174.777656 
L 191.039147 168.304453 
L 186.751576 164.295603 
L 184.319434 162.020524 
L 182.902908 160.365526 
L 181.0694 157.937036 
L 180.426835 157.216033 
L 178.953077 155.80141 
L 177.563261 154.23826 
L 176.571152 152.724959 
L 175.395827 151.100272 
L 171.07702 145.843756 
L 169.565619 144.423453 
L 165.846153 141.53877 
L 164.021976 139.251841 
L 162.569061 137.605291 
L 159.686987 135.089433 
L 151.137606 128.954981 
L 149.227076 127.548046 
L 146.982555 126.162038 
L 142.250491 122.407016 
L 139.999991 120.043861 
L 137.266338 116.921872 
L 132.844325 110.683787 
L 131.526699 108.464527 
L 129.751065 105.899538 
L 129.193975 104.492184 
L 128.737024 102.802543 
L 127.555375 99.883451 
L 126.789478 97.936811 
L 125.387431 92.808146 
L 123.937671 89.031948 
L 123.009083 84.199702 
L 122.446917 81.676158 
L 122.402359 79.094496 
L 122.611434 75.974588 
L 122.965287 73.542893 
L 123.122811 72.688728 
L 125.157961 66.42186 
L 125.845672 64.406693 
L 126.682645 61.914613 
L 126.98554 60.216619 
L 127.52327 56.155826 
L 127.318724 54.713278 
L 127.21382 53.206034 
L 126.992515 51.261855 
L 127.16623 48.208864 
L 126.99915 47.398259 
L 126.867641 46.939526 
L 126.776197 46.619208 
L 126.454651 46.119138 
L 126.62106 45.765703 
L 127.194351 45.596759 
L 128.213203 45.819272 
L 130.156431 46.143196 
L 130.156431 46.143196 
" clip-path="url(#pba7b5561f4)" style="fill: none; stroke: #1f77b4; stroke-width: 1.5; stroke-linecap: square"/>
   </g>
   <g id="patch_3">
    <path d="M 107.5475 266.245 
L 107.5475 25.92 
" style="fill: none; stroke: #000000; stroke-width: 0.8; stroke-linejoin: miter; stroke-linecap: square"/>
   </g>
   <g id="patch_4">
    <path d="M 434.202791 266.245 
L 434.202791 25.92 
" style="fill: none; stroke: #000000; stroke-width: 0.8; stroke-linejoin: miter; stroke-linecap: square"/>
   </g>
   <g id="patch_5">
    <path d="M 107.5475 266.245 
L 434.202791 266.245 
" style="fill: none; stroke: #000000; stroke-width: 0.8; stroke-linejoin: miter; stroke-linecap: square"/>
   </g>
   <g id="patch_6">
    <path d="M 107.5475 25.92 
L 434.202791 25.92 
" style="fill: none; stroke: #000000; stroke-width: 0.8; stroke-linejoin: miter; stroke-linecap: square"/>
   </g>
  </g>
 </g>
 <defs>
  <clipPath id="pba7b5561f4">
   <rect x="107.5475" y="25.92" width="326.655291" height="240.325"/>
  </clipPath>
 </defs>
</svg>
