<?xml version="1.0" encoding="utf-8" standalone="no"?>
<!DOCTYPE svg PUBLIC "-//W3C//DTD SVG 1.1//EN"
  "http://www.w3.org/Graphics/SVG/1.1/DTD/svg11.dtd">
<svg xmlns:xlink="http://www.w3.org/1999/xlink" width="460.8pt" height="345.6pt" viewBox="0 0 460.8 345.6" xmlns="http://www.w3.org/2000/svg" version="1.1">
 <metadata>
  <rdf:RDF xmlns:dc="http://purl.org/dc/elements/1.1/" xmlns:cc="http://creativecommons.org/ns#" xmlns:rdf="http://www.w3.org/1999/02/22-rdf-syntax-ns#">
   <cc:Work>
    <dc:type rdf:resource="http://purl.org/dc/dcmitype/StillImage"/>
    <dc:date>2026-01-29T08:00:33.345917</dc:date>
    <dc:format>image/svg+xml</dc:format>
    <dc:creator>
     <cc:Agent>
      <dc:title>Matplotlib v3.10.8, https://matplotlib.org/</dc:title>
     </cc:Agent>
    </dc:creator>
   </cc:Work>
  </rdf:RDF>
 </metadata>
 <defs>
  <style type="text/css">*{stroke-linejoin: round; stroke-linecap: butt}</style>
 </defs>
 <g id="figure_1">
  <g id="patch_1">
   <path d="M 0 345.6 
L 460.8 345.6 
L 460.8 0 
L 0 0 
z
" style="fill: #ffffff"/>
  </g>
  <g id="axes_1">
   <g id="patch_2">
    <path d="M 83.6075 266.245 
L 426.847748 266.245 
L 426.847748 25.92 
L 83.6075 25.92 
z
" style="fill: #ffffff"/>
   </g>
   <g id="matplotlib.axis_1">
    <g id="xtick_1">
     <g id="line2d_1">
      <path d="M 99.209329 266.245 
L 99.209329 25.92 
" clip-path="url(#p7b525ef55f)" style="fill: none; stroke: #b0b0b0; stroke-width: 0.8; stroke-linecap: square"/>
     </g>
     <g id="line2d_2">
      <defs>
       <path id="m6d1b0c15e4" d="M 0 0 
L 0 3.5 
" style="stroke: #000000; stroke-width: 0.8"/>
      </defs>
      <g>
       <use xlink:href="#m6d1b0c15e4" x="99.209329" y="266.245" style="stroke: #000000; stroke-width: 0.8"/>
      </g>
     </g>
     <g id="text_1">
      <!-- 0 -->
      <g transform="translate(93.209329 289.63625) scale(0.24 -0.24)">
       <defs>
        <path id="TeXGyreTermes-Regular-30" d="M 3046 2112 
C 3046 3424 2464 4326 1626 4326 
C 1274 4326 1005 4218 768 3994 
C 397 3635 154 2899 154 2150 
C 154 1453 365 704 666 346 
C 902 64 1229 -90 1600 -90 
C 1926 -90 2202 19 2432 243 
C 2803 595 3046 1338 3046 2112 
z
M 2432 2099 
C 2432 762 2150 77 1600 77 
C 1050 77 768 762 768 2093 
C 768 3450 1056 4160 1606 4160 
C 2144 4160 2432 3437 2432 2099 
z
" transform="scale(0.015625)"/>
       </defs>
       <use xlink:href="#TeXGyreTermes-Regular-30"/>
      </g>
     </g>
    </g>
    <g id="xtick_2">
     <g id="line2d_3">
      <path d="M 255.383798 266.245 
L 255.383798 25.92 
" clip-path="url(#p7b525ef55f)" style="fill: none; stroke: #b0b0b0; stroke-width: 0.8; stroke-linecap: square"/>
     </g>
     <g id="line2d_4">
      <g>
       <use xlink:href="#m6d1b0c15e4" x="255.383798" y="266.245" style="stroke: #000000; stroke-width: 0.8"/>
      </g>
     </g>
     <g id="text_2">
      <!-- 500 -->
      <g transform="translate(237.383798 289.63625) scale(0.24 -0.24)">
       <defs>
        <path id="TeXGyreTermes-Regular-35" d="M 2803 4358 
L 2746 4403 
C 2650 4269 2586 4237 2451 4237 
L 1114 4237 
L 416 2720 
C 410 2707 410 2688 410 2688 
C 410 2656 435 2637 486 2637 
C 691 2637 947 2592 1210 2509 
C 1946 2272 2285 1875 2285 1242 
C 2285 627 1894 147 1395 147 
C 1267 147 1158 192 966 333 
C 762 480 614 544 480 544 
C 294 544 205 467 205 307 
C 205 64 506 -90 986 -90 
C 1523 -90 1984 83 2304 410 
C 2598 698 2733 1062 2733 1549 
C 2733 2010 2611 2304 2291 2624 
C 2010 2906 1645 3053 890 3187 
L 1158 3731 
L 2413 3731 
C 2515 3731 2541 3744 2560 3789 
L 2803 4358 
z
" transform="scale(0.015625)"/>
       </defs>
       <use xlink:href="#TeXGyreTermes-Regular-35"/>
       <use xlink:href="#TeXGyreTermes-Regular-30" transform="translate(49.999985 0)"/>
       <use xlink:href="#TeXGyreTermes-Regular-30" transform="translate(99.999969 0)"/>
      </g>
     </g>
    </g>
    <g id="xtick_3">
     <g id="line2d_5">
      <path d="M 411.558267 266.245 
L 411.558267 25.92 
" clip-path="url(#p7b525ef55f)" style="fill: none; stroke: #b0b0b0; stroke-width: 0.8; stroke-linecap: square"/>
     </g>
     <g id="line2d_6">
      <g>
       <use xlink:href="#m6d1b0c15e4" x="411.558267" y="266.245" style="stroke: #000000; stroke-width: 0.8"/>
      </g>
     </g>
     <g id="text_3">
      <!-- 1000 -->
      <g transform="translate(387.558267 289.63625) scale(0.24 -0.24)">
       <defs>
        <path id="TeXGyreTermes-Regular-31" d="M 2522 0 
L 2522 96 
C 2016 102 1914 166 1914 474 
L 1914 4314 
L 1862 4326 
L 710 3744 
L 710 3654 
C 787 3686 858 3712 883 3725 
C 998 3770 1107 3795 1171 3795 
C 1306 3795 1363 3699 1363 3494 
L 1363 595 
C 1363 384 1312 237 1210 179 
C 1114 122 1024 102 755 96 
L 755 0 
L 2522 0 
z
" transform="scale(0.015625)"/>
       </defs>
       <use xlink:href="#TeXGyreTermes-Regular-31"/>
       <use xlink:href="#TeXGyreTermes-Regular-30" transform="translate(49.999985 0)"/>
       <use xlink:href="#TeXGyreTermes-Regular-30" transform="translate(99.999969 0)"/>
       <use xlink:href="#TeXGyreTermes-Regular-30" transform="translate(149.999954 0)"/>
      </g>
     </g>
    </g>
    <g id="text_4">
     <!-- Schritt k -->
     <g transform="translate(214.225124 315.23625) scale(0.24 -0.24)">
      <defs>
       <path id="TeXGyreTermes-Regular-53" d="M 3142 1075 
C 3142 1606 2790 2016 1946 2477 
C 1274 2842 1005 3123 1005 3475 
C 1005 3827 1274 4064 1670 4064 
C 1958 4064 2227 3942 2451 3712 
C 2650 3507 2739 3341 2842 2963 
L 3002 2963 
L 2861 4326 
L 2726 4326 
C 2701 4186 2630 4109 2522 4109 
C 2458 4109 2355 4134 2240 4186 
C 2003 4275 1773 4326 1549 4326 
C 1299 4326 1030 4224 826 4058 
C 576 3853 454 3578 454 3226 
C 454 2720 736 2362 1453 1984 
C 1914 1734 2246 1478 2406 1235 
C 2464 1146 2496 1018 2496 858 
C 2496 435 2176 141 1709 141 
C 1133 141 736 493 416 1274 
L 269 1274 
L 461 -83 
L 602 -83 
C 608 38 685 128 781 128 
C 851 128 960 102 1082 58 
C 1325 -38 1581 -90 1837 -90 
C 2579 -90 3142 416 3142 1075 
z
" transform="scale(0.015625)"/>
       <path id="TeXGyreTermes-Regular-63" d="M 2637 941 
L 2547 998 
C 2240 550 2010 397 1645 397 
C 1056 397 653 909 653 1645 
C 653 2310 1005 2758 1523 2758 
C 1754 2758 1837 2688 1901 2451 
L 1939 2310 
C 1990 2125 2106 2016 2246 2016 
C 2413 2016 2547 2138 2547 2285 
C 2547 2643 2099 2944 1562 2944 
C 1261 2944 954 2829 698 2618 
C 352 2330 160 1888 160 1357 
C 160 531 666 -64 1376 -64 
C 1651 -64 1894 26 2112 205 
C 2304 358 2432 544 2637 941 
z
" transform="scale(0.015625)"/>
       <path id="TeXGyreTermes-Regular-68" d="M 3117 0 
L 3117 96 
C 2771 160 2733 211 2733 653 
L 2733 1926 
C 2733 2598 2464 2944 1946 2944 
C 1568 2944 1299 2790 1005 2406 
L 1005 4352 
L 973 4371 
C 755 4294 595 4243 237 4141 
L 64 4090 
L 64 3987 
C 90 3994 109 3994 141 3994 
C 416 3994 467 3942 467 3667 
L 467 653 
C 467 205 429 147 58 96 
L 58 0 
L 1440 0 
L 1440 96 
C 1069 134 1005 211 1005 653 
L 1005 2195 
C 1274 2490 1466 2598 1715 2598 
C 2035 2598 2195 2368 2195 1920 
L 2195 653 
C 2195 218 2131 134 1760 96 
L 1760 0 
L 3117 0 
z
" transform="scale(0.015625)"/>
       <path id="TeXGyreTermes-Regular-72" d="M 2144 2605 
C 2144 2816 2010 2944 1792 2944 
C 1523 2944 1338 2797 1024 2342 
L 1024 2931 
L 992 2944 
C 653 2803 422 2720 45 2598 
L 45 2496 
C 134 2515 192 2522 269 2522 
C 429 2522 486 2419 486 2138 
L 486 538 
C 486 218 442 173 32 96 
L 32 0 
L 1568 0 
L 1568 96 
C 1133 115 1024 211 1024 576 
L 1024 2016 
C 1024 2221 1299 2541 1472 2541 
C 1510 2541 1568 2509 1638 2445 
C 1741 2355 1811 2317 1894 2317 
C 2048 2317 2144 2426 2144 2605 
z
" transform="scale(0.015625)"/>
       <path id="TeXGyreTermes-Regular-69" d="M 1619 0 
L 1619 96 
C 1197 128 1146 192 1146 653 
L 1146 2925 
L 1120 2944 
L 128 2592 
L 128 2496 
L 179 2502 
C 256 2515 339 2522 397 2522 
C 550 2522 608 2419 608 2138 
L 608 653 
C 608 192 544 122 102 96 
L 102 0 
L 1619 0 
z
M 1203 3776 
C 1203 3955 1062 4102 877 4102 
C 698 4102 550 3955 550 3776 
C 550 3590 698 3450 877 3450 
C 1062 3450 1203 3590 1203 3776 
z
" transform="scale(0.015625)"/>
       <path id="TeXGyreTermes-Regular-74" d="M 1786 422 
L 1702 493 
C 1562 326 1459 269 1318 269 
C 1082 269 986 435 986 845 
L 986 2675 
L 1632 2675 
L 1632 2880 
L 986 2880 
L 986 3622 
C 986 3686 973 3706 941 3706 
C 902 3642 858 3584 813 3526 
C 576 3174 358 2938 192 2842 
C 122 2797 83 2758 83 2720 
C 83 2701 90 2688 109 2675 
L 448 2675 
L 448 749 
C 448 211 640 -64 1011 -64 
C 1331 -64 1574 90 1786 422 
z
" transform="scale(0.015625)"/>
       <path id="TeXGyreTermes-Regular-20" transform="scale(0.015625)"/>
       <path id="TeXGyreTermes-Regular-6b" d="M 3232 0 
L 3232 96 
C 2950 115 2752 237 2483 563 
L 1504 1805 
L 1690 1978 
C 2144 2400 2541 2694 2726 2746 
C 2822 2771 2912 2784 3021 2784 
L 3072 2784 
L 3072 2880 
L 1766 2880 
L 1766 2790 
C 2016 2784 2086 2758 2086 2669 
C 2086 2618 2029 2528 1939 2451 
L 1062 1670 
L 1062 4358 
L 1037 4371 
L 237 4141 
L 45 4090 
L 45 3987 
C 128 3994 186 4000 250 4000 
C 461 4000 525 3917 525 3610 
L 525 525 
C 525 192 506 173 45 96 
L 45 0 
L 1542 0 
L 1542 96 
L 1414 102 
C 1158 115 1062 205 1062 429 
L 1062 1606 
L 1958 410 
L 1978 384 
C 1990 365 2003 346 2022 326 
C 2074 262 2093 224 2093 192 
C 2093 134 2035 96 1958 96 
L 1837 96 
L 1837 0 
L 3232 0 
z
" transform="scale(0.015625)"/>
      </defs>
      <use xlink:href="#TeXGyreTermes-Regular-53"/>
      <use xlink:href="#TeXGyreTermes-Regular-63" transform="translate(55.599991 0)"/>
      <use xlink:href="#TeXGyreTermes-Regular-68" transform="translate(99.999985 0)"/>
      <use xlink:href="#TeXGyreTermes-Regular-72" transform="translate(149.999969 0)"/>
      <use xlink:href="#TeXGyreTermes-Regular-69" transform="translate(183.299957 0)"/>
      <use xlink:href="#TeXGyreTermes-Regular-74" transform="translate(211.099945 0)"/>
      <use xlink:href="#TeXGyreTermes-Regular-74" transform="translate(238.899933 0)"/>
      <use xlink:href="#TeXGyreTermes-Regular-20" transform="translate(266.699921 0)"/>
      <use xlink:href="#TeXGyreTermes-Regular-6b" transform="translate(291.699905 0)"/>
     </g>
    </g>
   </g>
   <g id="matplotlib.axis_2">
    <g id="ytick_1">
     <g id="line2d_7">
      <path d="M 83.6075 204.999917 
L 426.847748 204.999917 
" clip-path="url(#p7b525ef55f)" style="fill: none; stroke: #b0b0b0; stroke-width: 0.8; stroke-linecap: square"/>
     </g>
     <g id="line2d_8">
      <defs>
       <path id="mfd4777870d" d="M 0 0 
L -3.5 0 
" style="stroke: #000000; stroke-width: 0.8"/>
      </defs>
      <g>
       <use xlink:href="#mfd4777870d" x="83.6075" y="204.999917" style="stroke: #000000; stroke-width: 0.8"/>
      </g>
     </g>
     <g id="text_5">
      <!-- −2 -->
      <g transform="translate(51.07 213.195542) scale(0.24 -0.24)">
       <defs>
        <path id="TeXGyreTermes-Regular-2212" d="M 3354 1389 
L 3354 1811 
L 256 1811 
L 256 1389 
L 3354 1389 
z
" transform="scale(0.015625)"/>
        <path id="TeXGyreTermes-Regular-32" d="M 3040 877 
L 2957 909 
C 2720 544 2637 486 2349 486 
L 819 486 
L 1894 1613 
C 2464 2208 2714 2694 2714 3194 
C 2714 3834 2195 4326 1530 4326 
C 1178 4326 845 4186 608 3930 
C 403 3712 307 3507 198 3053 
L 333 3021 
C 589 3648 819 3853 1261 3853 
C 1798 3853 2163 3488 2163 2950 
C 2163 2451 1869 1856 1331 1286 
L 192 77 
L 192 0 
L 2688 0 
L 3040 877 
z
" transform="scale(0.015625)"/>
       </defs>
       <use xlink:href="#TeXGyreTermes-Regular-2212"/>
       <use xlink:href="#TeXGyreTermes-Regular-32" transform="translate(56.399994 0)"/>
      </g>
     </g>
    </g>
    <g id="ytick_2">
     <g id="line2d_9">
      <path d="M 83.6075 140.782482 
L 426.847748 140.782482 
" clip-path="url(#p7b525ef55f)" style="fill: none; stroke: #b0b0b0; stroke-width: 0.8; stroke-linecap: square"/>
     </g>
     <g id="line2d_10">
      <g>
       <use xlink:href="#mfd4777870d" x="83.6075" y="140.782482" style="stroke: #000000; stroke-width: 0.8"/>
      </g>
     </g>
     <g id="text_6">
      <!-- 0 -->
      <g transform="translate(64.6075 148.978107) scale(0.24 -0.24)">
       <use xlink:href="#TeXGyreTermes-Regular-30"/>
      </g>
     </g>
    </g>
    <g id="ytick_3">
     <g id="line2d_11">
      <path d="M 83.6075 76.565047 
L 426.847748 76.565047 
" clip-path="url(#p7b525ef55f)" style="fill: none; stroke: #b0b0b0; stroke-width: 0.8; stroke-linecap: square"/>
     </g>
     <g id="line2d_12">
      <g>
       <use xlink:href="#mfd4777870d" x="83.6075" y="76.565047" style="stroke: #000000; stroke-width: 0.8"/>
      </g>
     </g>
     <g id="text_7">
      <!-- 2 -->
      <g transform="translate(64.6075 84.760672) scale(0.24 -0.24)">
       <use xlink:href="#TeXGyreTermes-Regular-32"/>
      </g>
     </g>
    </g>
    <g id="text_8">
     <!-- x(k) -->
     <g transform="translate(41.86125 166.07375) rotate(-90) scale(0.24 -0.24)">
      <defs>
       <path id="TeXGyreTermes-Regular-78" d="M 3066 0 
L 3066 96 
C 2867 96 2739 198 2541 480 
L 1722 1734 
L 2253 2502 
C 2374 2675 2566 2778 2771 2784 
L 2771 2880 
L 1760 2880 
L 1760 2784 
C 1952 2771 2016 2733 2016 2643 
C 2016 2566 1939 2426 1779 2227 
C 1747 2189 1670 2074 1587 1946 
L 1498 2074 
C 1318 2342 1203 2560 1203 2643 
C 1203 2733 1286 2778 1478 2784 
L 1478 2880 
L 154 2880 
L 154 2784 
L 211 2784 
C 403 2784 506 2701 704 2400 
L 1306 1478 
L 576 422 
C 384 160 320 115 109 96 
L 109 0 
L 1037 0 
L 1037 96 
C 858 96 781 128 781 211 
C 781 250 826 346 909 474 
L 1414 1261 
L 1997 365 
C 2022 326 2035 288 2035 250 
C 2035 134 1990 109 1779 96 
L 1779 0 
L 3066 0 
z
" transform="scale(0.015625)"/>
       <path id="TeXGyreTermes-Regular-28" d="M 1946 -1030 
C 1434 -627 1254 -403 1082 77 
C 928 506 858 992 858 1632 
C 858 2304 941 2829 1114 3226 
C 1293 3622 1485 3853 1946 4224 
L 1888 4326 
C 1414 4019 1222 3853 986 3558 
C 531 3002 307 2362 307 1613 
C 307 800 544 173 1107 -480 
C 1370 -787 1536 -928 1869 -1133 
L 1946 -1030 
z
" transform="scale(0.015625)"/>
       <path id="TeXGyreTermes-Regular-29" d="M 1824 1581 
C 1824 2400 1587 3021 1024 3674 
C 762 3981 595 4122 262 4326 
L 186 4224 
C 698 3821 870 3597 1050 3117 
C 1203 2688 1274 2202 1274 1562 
C 1274 896 1190 365 1018 -26 
C 838 -429 646 -659 186 -1030 
L 243 -1133 
C 717 -826 909 -659 1146 -365 
C 1600 192 1824 832 1824 1581 
z
" transform="scale(0.015625)"/>
      </defs>
      <use xlink:href="#TeXGyreTermes-Regular-78"/>
      <use xlink:href="#TeXGyreTermes-Regular-28" transform="translate(49.999985 0)"/>
      <use xlink:href="#TeXGyreTermes-Regular-6b" transform="translate(83.299973 0)"/>
      <use xlink:href="#TeXGyreTermes-Regular-29" transform="translate(133.299957 0)"/>
     </g>
    </g>
   </g>
   <g id="line2d_13">
    <path d="M 99.209329 114.386048 
L 99.521678 121.82559 
L 99.834027 119.648321 
L 100.146376 60.002288 
L 100.458725 66.849143 
L 100.771074 99.417981 
L 101.083423 117.171953 
L 101.395772 128.001938 
L 101.708121 113.908031 
L 102.02047 146.59313 
L 102.332819 139.261173 
L 102.645168 85.541175 
L 103.269866 163.092451 
L 103.582215 158.602475 
L 103.894564 185.13091 
L 104.206912 50.477558 
L 104.519261 66.825988 
L 104.83161 125.001485 
L 105.143959 98.356917 
L 105.456308 124.637065 
L 105.768657 118.438266 
L 106.081006 103.09469 
L 106.705704 161.793448 
L 107.018053 101.307866 
L 107.330402 125.094747 
L 107.642751 133.725224 
L 107.9551 88.405952 
L 108.267449 82.702879 
L 108.579798 62.032621 
L 108.892147 78.747059 
L 109.204495 57.356135 
L 109.516844 132.897797 
L 109.829193 125.093263 
L 110.141542 95.191095 
L 110.453891 111.354798 
L 110.76624 143.919716 
L 111.078589 78.374566 
L 111.390938 113.294432 
L 111.703287 63.624287 
L 112.015636 113.262392 
L 112.327985 144.075003 
L 112.640334 145.637474 
L 112.952683 174.327762 
L 113.265032 112.958476 
L 113.577381 151.265207 
L 113.88973 156.172612 
L 114.202078 211.588978 
L 114.514427 142.18873 
L 114.826776 158.328187 
L 115.139125 149.318309 
L 115.451474 176.597221 
L 115.763823 126.633208 
L 116.076172 157.052453 
L 116.388521 151.977764 
L 116.70087 155.733151 
L 117.013219 142.736024 
L 117.325568 104.859072 
L 117.950266 142.976703 
L 118.262615 142.695111 
L 118.574964 146.763357 
L 118.887313 123.299829 
L 119.199661 120.619257 
L 119.51201 166.270425 
L 119.824359 79.955347 
L 120.449057 184.645987 
L 120.761406 178.63588 
L 121.073755 165.629289 
L 121.386104 164.853507 
L 121.698453 168.875935 
L 122.010802 156.740503 
L 122.323151 108.521485 
L 122.6355 133.221321 
L 122.947849 85.183432 
L 123.260198 80.861682 
L 123.884896 147.808648 
L 124.197244 134.123764 
L 124.509593 100.995156 
L 124.821942 117.940476 
L 125.134291 86.471798 
L 125.44664 142.638485 
L 125.758989 136.061833 
L 126.071338 109.601297 
L 126.383687 180.177746 
L 126.696036 174.473946 
L 127.008385 180.444961 
L 127.320734 161.071058 
L 127.633083 173.873191 
L 127.945432 160.892194 
L 128.257781 159.806665 
L 128.57013 179.236436 
L 128.882479 166.999874 
L 129.194827 110.284277 
L 129.507176 81.105729 
L 130.131874 111.113696 
L 130.444223 102.493095 
L 130.756572 111.311396 
L 131.068921 152.164662 
L 131.38127 116.76295 
L 131.693619 118.197899 
L 132.005968 160.788187 
L 132.318317 147.453438 
L 132.630666 92.461877 
L 132.943015 123.132772 
L 133.255364 169.365431 
L 133.567713 115.312455 
L 133.880062 137.856158 
L 134.19241 118.999214 
L 134.504759 139.020185 
L 134.817108 127.214418 
L 135.129457 110.246528 
L 135.441806 132.389089 
L 135.754155 130.885545 
L 136.066504 133.051278 
L 136.378853 56.632704 
L 136.691202 137.633691 
L 137.003551 176.825057 
L 137.3159 162.99255 
L 137.628249 175.397867 
L 137.940598 138.531152 
L 138.252947 156.617189 
L 138.565296 141.66409 
L 138.877645 161.022607 
L 139.189993 122.618345 
L 139.502342 149.717521 
L 139.814691 143.330008 
L 140.439389 167.067795 
L 140.751738 144.955405 
L 141.376436 178.516156 
L 141.688785 184.225173 
L 142.001134 170.216872 
L 142.313483 165.189683 
L 142.625832 162.94323 
L 142.938181 181.010088 
L 143.25053 183.208337 
L 143.562879 133.356903 
L 143.875228 117.718374 
L 144.187576 151.283455 
L 144.499925 137.549747 
L 144.812274 129.410144 
L 145.124623 163.074778 
L 145.436972 162.810717 
L 145.749321 92.356788 
L 146.06167 119.780586 
L 146.374019 123.932053 
L 146.686368 131.382768 
L 146.998717 167.377067 
L 147.311066 165.563374 
L 147.623415 109.572091 
L 147.935764 75.033823 
L 148.248113 80.190499 
L 148.560462 150.54445 
L 148.872811 185.555608 
L 149.185159 110.331098 
L 149.497508 125.452251 
L 149.809857 150.589377 
L 150.122206 112.33308 
L 150.434555 132.292359 
L 150.746904 121.698891 
L 151.059253 105.091771 
L 151.371602 127.0711 
L 151.9963 196.5795 
L 152.308649 120.448524 
L 152.620998 167.466618 
L 152.933347 83.370246 
L 153.245696 105.59279 
L 153.558045 119.31205 
L 153.870394 152.028665 
L 154.182742 125.661838 
L 154.495091 201.015179 
L 154.80744 165.116183 
L 155.119789 161.124952 
L 155.432138 182.744113 
L 155.744487 104.421968 
L 156.369185 140.722328 
L 156.681534 137.50666 
L 156.993883 117.02409 
L 157.306232 81.889184 
L 157.618581 117.045459 
L 157.93093 72.102244 
L 158.243279 96.319652 
L 158.555628 85.862811 
L 158.867977 90.545156 
L 159.492674 138.011143 
L 159.805023 181.121413 
L 160.117372 102.863399 
L 160.429721 134.302872 
L 160.74207 125.767355 
L 161.054419 135.903003 
L 161.366768 108.24342 
L 161.679117 168.003722 
L 161.991466 201.769467 
L 162.616164 108.866339 
L 162.928513 176.516803 
L 163.240862 198.483762 
L 163.553211 108.534645 
L 163.86556 72.718491 
L 164.490257 140.509135 
L 164.802606 100.620094 
L 165.114955 102.149383 
L 165.427304 88.210217 
L 165.739653 90.062881 
L 166.052002 132.992929 
L 166.364351 136.730619 
L 166.6767 159.262023 
L 166.989049 124.801192 
L 167.301398 105.900741 
L 167.613747 159.466019 
L 167.926096 112.764599 
L 168.238445 149.018627 
L 168.550794 91.819028 
L 168.863143 96.244228 
L 169.48784 167.002517 
L 169.800189 91.107396 
L 170.112538 90.262123 
L 170.424887 141.775133 
L 170.737236 117.6151 
L 171.049585 116.500571 
L 171.361934 143.325864 
L 171.674283 135.805835 
L 171.986632 146.090213 
L 172.298981 140.520067 
L 172.61133 163.840538 
L 172.923679 150.507524 
L 173.236028 88.697439 
L 173.548377 115.435971 
L 174.173075 49.337709 
L 174.485423 79.182393 
L 174.797772 94.80539 
L 175.110121 78.813004 
L 175.42247 50.578564 
L 175.734819 134.049334 
L 176.047168 108.180891 
L 176.359517 120.085142 
L 176.671866 117.360467 
L 176.984215 137.039005 
L 177.296564 142.402678 
L 177.608913 79.631944 
L 177.921262 96.254242 
L 178.54596 151.693367 
L 179.170658 129.857315 
L 179.483006 91.912461 
L 179.795355 170.326636 
L 180.107704 108.462795 
L 180.420053 127.78561 
L 180.732402 200.175093 
L 181.044751 108.782867 
L 181.3571 101.415851 
L 181.669449 175.468339 
L 181.981798 161.208632 
L 182.294147 163.940649 
L 182.606496 123.118976 
L 182.918845 159.178132 
L 183.231194 59.94539 
L 183.543543 126.951695 
L 183.855892 145.162181 
L 184.168241 115.194119 
L 184.480589 125.310356 
L 184.792938 179.612787 
L 185.105287 121.806758 
L 185.417636 212.020898 
L 185.729985 147.233428 
L 186.042334 146.230051 
L 186.354683 88.344685 
L 186.667032 98.515395 
L 186.979381 87.204705 
L 187.29173 81.222927 
L 187.604079 142.504639 
L 187.916428 93.113943 
L 188.228777 76.467542 
L 188.541126 138.690987 
L 188.853475 84.386545 
L 189.165824 81.491337 
L 189.478172 148.644717 
L 189.790521 106.612768 
L 190.10287 103.597899 
L 190.415219 54.171641 
L 191.039917 131.768756 
L 191.352266 124.921503 
L 191.664615 192.08988 
L 191.976964 151.00468 
L 192.289313 132.003654 
L 192.601662 184.879026 
L 192.914011 138.65891 
L 193.22636 125.064852 
L 193.538709 100.669089 
L 193.851058 140.594364 
L 194.163407 126.694302 
L 194.475755 118.007809 
L 194.788104 161.176463 
L 195.100453 142.890354 
L 195.412802 91.457156 
L 195.725151 106.460906 
L 196.0375 129.855605 
L 196.349849 204.988836 
L 196.662198 155.733849 
L 196.974547 165.618193 
L 197.286896 130.114924 
L 197.599245 170.314856 
L 197.911594 128.128523 
L 198.223943 170.585311 
L 198.536292 164.730542 
L 198.848641 145.862414 
L 199.16099 137.513383 
L 199.473338 134.144374 
L 199.785687 110.479052 
L 200.098036 131.978321 
L 200.410385 132.714978 
L 200.722734 136.017216 
L 201.035083 128.268289 
L 201.659781 172.000547 
L 201.97213 146.142752 
L 202.284479 222.355303 
L 202.596828 181.633353 
L 202.909177 192.349198 
L 203.221526 147.804489 
L 203.533875 167.022471 
L 203.846224 157.522443 
L 204.158573 157.054656 
L 204.470921 146.972978 
L 205.095619 221.349362 
L 205.407968 191.803326 
L 205.720317 234.903242 
L 206.032666 179.764496 
L 206.345015 164.628703 
L 206.657364 126.703298 
L 206.969713 106.619042 
L 207.282062 122.715624 
L 207.594411 187.724387 
L 207.90676 112.128246 
L 208.219109 154.387649 
L 208.531458 143.481428 
L 208.843807 141.046347 
L 209.156156 130.487341 
L 209.468504 114.679512 
L 209.780853 135.285953 
L 210.093202 132.339045 
L 210.405551 94.654547 
L 210.7179 159.291535 
L 211.030249 123.000032 
L 211.342598 132.695329 
L 211.654947 162.282308 
L 211.967296 124.936154 
L 212.279645 157.193485 
L 212.591994 206.946047 
L 212.904343 132.205596 
L 213.216692 195.823873 
L 213.529041 153.071463 
L 213.84139 208.057001 
L 214.153739 165.517727 
L 214.466087 160.965592 
L 214.778436 132.74568 
L 215.090785 152.22407 
L 215.403134 152.261065 
L 215.715483 107.377387 
L 216.027832 94.404043 
L 216.340181 141.796153 
L 216.65253 116.503553 
L 216.964879 146.255798 
L 217.277228 136.046701 
L 217.589577 164.58248 
L 217.901926 166.949474 
L 218.526624 141.344857 
L 218.838973 162.133829 
L 219.151322 152.542901 
L 219.46367 117.303315 
L 219.776019 124.48391 
L 220.400717 142.10077 
L 220.713066 168.443693 
L 221.025415 128.976456 
L 221.337764 180.063978 
L 221.650113 136.291841 
L 221.962462 146.565927 
L 222.274811 148.631375 
L 222.58716 157.769456 
L 222.899509 161.754146 
L 223.211858 154.78183 
L 223.524207 167.925933 
L 223.836556 173.184048 
L 224.461254 142.052553 
L 224.773602 136.56758 
L 225.085951 175.832133 
L 225.3983 110.898434 
L 225.710649 133.727489 
L 226.022998 113.547573 
L 226.335347 176.104224 
L 226.647696 133.776081 
L 226.960045 144.207525 
L 227.272394 182.735995 
L 227.584743 110.199564 
L 227.897092 172.73684 
L 228.209441 122.672959 
L 228.52179 133.634533 
L 228.834139 122.770426 
L 229.146488 175.681844 
L 229.771185 116.330312 
L 230.083534 200.68812 
L 230.395883 174.301694 
L 230.708232 67.17046 
L 231.020581 118.409035 
L 231.33293 68.988229 
L 231.645279 121.981066 
L 231.957628 138.297913 
L 232.269977 138.453907 
L 232.582326 133.773532 
L 232.894675 161.677393 
L 233.207024 128.301539 
L 233.519373 116.934662 
L 233.831722 161.991558 
L 234.144071 128.098497 
L 234.768768 168.400778 
L 235.081117 164.334688 
L 235.393466 192.547854 
L 235.705815 140.080821 
L 236.018164 142.938593 
L 236.642862 149.892839 
L 236.955211 134.014581 
L 237.26756 167.65711 
L 237.579909 106.887742 
L 238.204607 155.211877 
L 238.516956 184.119349 
L 238.829305 140.558165 
L 239.141654 176.943105 
L 239.454003 149.380028 
L 239.766351 154.75107 
L 240.0787 165.518481 
L 240.391049 161.925453 
L 240.703398 211.991006 
L 241.015747 202.572089 
L 241.328096 140.504389 
L 241.952794 162.477972 
L 242.265143 180.900867 
L 242.577492 157.192566 
L 242.889841 99.310764 
L 243.20219 115.042117 
L 243.514539 145.221532 
L 243.826888 186.728206 
L 244.139237 159.673264 
L 244.451586 159.594373 
L 245.076283 115.498895 
L 245.388632 104.220547 
L 245.700981 130.138479 
L 246.01333 115.439514 
L 246.325679 183.747592 
L 246.950377 97.757179 
L 247.262726 118.027388 
L 247.575075 167.7252 
L 247.887424 93.705047 
L 248.824471 173.071343 
L 249.13682 145.11255 
L 249.449169 190.016443 
L 249.761517 101.341304 
L 250.073866 190.487192 
L 250.386215 169.540488 
L 250.698564 158.287473 
L 251.010913 161.889517 
L 251.323262 140.102276 
L 251.635611 164.835612 
L 251.94796 160.137564 
L 252.260309 206.634996 
L 252.885007 139.967482 
L 253.197356 179.481392 
L 253.509705 181.715571 
L 253.822054 189.906846 
L 254.134403 174.523031 
L 254.446752 177.843576 
L 254.7591 137.614809 
L 255.071449 126.082511 
L 255.383798 160.854428 
L 255.696147 140.605404 
L 256.008496 145.809874 
L 256.320845 146.924836 
L 256.945543 170.11773 
L 257.257892 173.488848 
L 257.570241 182.720689 
L 257.88259 179.504429 
L 258.194939 161.574255 
L 258.507288 203.695236 
L 258.819637 189.21624 
L 259.131986 186.960158 
L 259.444335 170.211423 
L 259.756683 145.239814 
L 260.069032 152.920641 
L 260.381381 91.301986 
L 260.69373 141.317129 
L 261.006079 167.041236 
L 261.318428 130.376278 
L 261.630777 76.886234 
L 262.255475 158.299754 
L 262.567824 111.580047 
L 262.880173 140.707524 
L 263.192522 152.740241 
L 263.504871 143.396206 
L 263.81722 111.723211 
L 264.129569 117.222448 
L 264.441918 141.188562 
L 264.754266 89.751008 
L 265.066615 101.446181 
L 265.378964 166.234296 
L 265.691313 147.535591 
L 266.003662 180.276711 
L 266.316011 108.996986 
L 266.62836 147.612475 
L 266.940709 132.125533 
L 267.253058 168.472385 
L 267.565407 139.810642 
L 267.877756 145.583706 
L 268.190105 159.313202 
L 268.814803 141.565612 
L 269.127152 153.964447 
L 269.439501 112.898768 
L 269.751849 131.798257 
L 270.064198 118.871599 
L 270.376547 75.616984 
L 270.688896 84.053193 
L 271.001245 36.843864 
L 271.313594 106.90123 
L 271.625943 87.564279 
L 271.938292 138.016342 
L 272.250641 120.96432 
L 272.56299 116.390741 
L 272.875339 136.78966 
L 273.187688 140.909252 
L 273.500037 126.590121 
L 273.812386 128.991039 
L 274.124735 145.715401 
L 274.437084 121.898886 
L 274.749432 126.156859 
L 275.061781 91.321088 
L 275.37413 123.260618 
L 275.686479 134.933751 
L 275.998828 139.644155 
L 276.311177 151.668124 
L 276.623526 139.921477 
L 276.935875 187.417141 
L 277.248224 143.161197 
L 277.560573 148.708178 
L 278.185271 167.503486 
L 278.809969 93.64087 
L 279.122318 128.989328 
L 279.434667 98.320158 
L 279.747015 133.637812 
L 280.059364 111.252577 
L 280.996411 158.171579 
L 281.30876 152.320378 
L 281.621109 168.220615 
L 281.933458 158.440183 
L 282.245807 93.16764 
L 282.558156 69.962653 
L 282.870505 130.134753 
L 283.182854 152.43682 
L 283.495203 91.520805 
L 283.807552 126.695242 
L 284.119901 121.14205 
L 284.43225 144.194789 
L 284.744598 142.754586 
L 285.056947 136.19698 
L 285.369296 118.556711 
L 285.681645 157.646312 
L 285.993994 162.442329 
L 286.306343 121.664312 
L 286.618692 130.77969 
L 286.931041 77.745657 
L 287.24339 138.207334 
L 287.868088 144.91467 
L 288.180437 176.551032 
L 288.492786 91.971021 
L 288.805135 80.117567 
L 289.117484 131.622791 
L 289.429833 131.861671 
L 289.742182 100.042873 
L 290.05453 155.091998 
L 290.366879 148.514368 
L 290.679228 150.071379 
L 290.991577 154.618024 
L 291.303926 200.084159 
L 291.616275 168.843889 
L 292.240973 89.995789 
L 292.553322 112.310512 
L 292.865671 143.178963 
L 293.17802 107.124262 
L 293.490369 170.901999 
L 293.802718 109.546742 
L 294.115067 91.291495 
L 294.739765 151.851585 
L 295.052113 92.181983 
L 295.364462 185.220914 
L 295.676811 148.654329 
L 295.98916 180.234669 
L 296.301509 156.885251 
L 296.613858 219.326049 
L 296.926207 181.785138 
L 297.238556 182.811204 
L 297.550905 146.358312 
L 297.863254 146.577201 
L 298.175603 139.299115 
L 298.487952 173.019421 
L 298.800301 164.360977 
L 299.11265 184.734513 
L 299.424999 143.582428 
L 299.737348 132.567015 
L 300.049696 139.99183 
L 300.362045 144.242547 
L 300.674394 155.319468 
L 300.986743 133.719576 
L 301.299092 154.27413 
L 301.611441 161.756354 
L 301.92379 153.687091 
L 302.236139 94.976907 
L 302.548488 134.639519 
L 302.860837 142.409783 
L 303.173186 118.441681 
L 303.485535 153.93684 
L 304.110233 173.818965 
L 304.422582 128.274851 
L 304.734931 174.951748 
L 305.047279 139.168774 
L 305.359628 178.730989 
L 305.671977 161.499396 
L 305.984326 191.338994 
L 306.609024 126.551081 
L 306.921373 152.103269 
L 307.233722 156.801452 
L 307.546071 121.156613 
L 307.85842 125.763025 
L 308.170769 138.067419 
L 308.483118 189.382732 
L 308.795467 171.756473 
L 309.107816 143.185449 
L 309.420165 169.701045 
L 309.732514 178.238601 
L 310.044862 106.048078 
L 310.66956 138.742089 
L 310.981909 158.704504 
L 311.294258 204.385993 
L 311.918956 103.299412 
L 312.231305 146.26415 
L 312.856003 201.377134 
L 313.168352 154.671988 
L 313.480701 181.906124 
L 314.105399 88.657349 
L 314.417748 134.757325 
L 314.730097 135.968569 
L 315.042445 131.175057 
L 315.354794 139.897466 
L 315.667143 143.977025 
L 315.979492 95.311314 
L 316.291841 114.48915 
L 316.60419 121.523194 
L 317.228888 180.499544 
L 317.541237 119.813967 
L 317.853586 184.487042 
L 318.165935 111.902306 
L 318.478284 111.461708 
L 318.790633 106.85898 
L 319.415331 128.172607 
L 319.72768 80.954609 
L 320.040028 86.845589 
L 320.352377 188.004603 
L 320.664726 137.975341 
L 320.977075 178.33637 
L 321.289424 116.382062 
L 321.601773 100.910231 
L 321.914122 170.169916 
L 322.226471 109.668942 
L 322.53882 131.563321 
L 322.851169 123.251318 
L 323.163518 151.689169 
L 323.475867 147.182088 
L 323.788216 153.257674 
L 324.100565 145.725235 
L 324.725263 201.935373 
L 325.037611 183.169636 
L 325.34996 133.695569 
L 325.662309 116.430806 
L 325.974658 117.267195 
L 326.287007 131.702761 
L 326.599356 168.384956 
L 326.911705 127.449547 
L 327.224054 142.350177 
L 327.536403 163.685446 
L 327.848752 207.866167 
L 328.161101 156.543079 
L 328.47345 171.055101 
L 328.785799 124.215787 
L 329.098148 156.411381 
L 329.410497 140.69702 
L 329.722846 146.942214 
L 330.035194 113.779446 
L 330.347543 135.031051 
L 330.659892 143.785197 
L 330.972241 172.758893 
L 331.28459 122.466912 
L 331.596939 121.700132 
L 331.909288 146.399248 
L 332.221637 124.798347 
L 332.533986 133.346731 
L 332.846335 184.341992 
L 333.471033 117.884121 
L 333.783382 142.160334 
L 334.095731 151.548014 
L 334.40808 220.221506 
L 334.720429 164.118181 
L 335.032777 180.641693 
L 335.345126 151.360514 
L 335.657475 156.162068 
L 335.969824 109.870035 
L 336.282173 178.610051 
L 336.594522 183.233715 
L 336.906871 164.975369 
L 337.21922 173.910761 
L 337.531569 187.916496 
L 337.843918 172.608676 
L 338.156267 137.580917 
L 338.468616 202.440587 
L 338.780965 134.487932 
L 339.093314 208.944742 
L 339.405663 222.565529 
L 339.718012 171.790247 
L 340.03036 189.994857 
L 340.342709 133.740118 
L 340.655058 133.987166 
L 340.967407 165.396083 
L 341.279756 157.903171 
L 341.592105 122.341616 
L 341.904454 157.668487 
L 342.529152 119.832385 
L 342.841501 164.560908 
L 343.15385 136.608966 
L 343.466199 195.578982 
L 343.778548 184.772024 
L 344.403246 93.589134 
L 344.715595 104.136966 
L 345.027943 210.939055 
L 345.340292 194.591872 
L 345.652641 115.595758 
L 345.96499 165.844658 
L 346.277339 164.405688 
L 346.589688 108.35516 
L 346.902037 187.479415 
L 347.214386 128.760084 
L 347.526735 126.159201 
L 347.839084 188.509467 
L 348.463782 90.055374 
L 348.776131 72.534291 
L 349.08848 82.749992 
L 349.400829 186.329513 
L 349.713178 180.285618 
L 350.025526 123.811032 
L 350.337875 102.734096 
L 350.650224 164.955097 
L 350.962573 158.880723 
L 351.274922 141.22157 
L 351.587271 138.501843 
L 351.89962 130.658614 
L 352.211969 111.166955 
L 352.524318 99.391139 
L 352.836667 137.400737 
L 353.149016 192.633966 
L 353.461365 142.682268 
L 353.773714 135.879187 
L 354.086063 110.163699 
L 354.398412 152.767269 
L 354.710761 154.129844 
L 355.02311 120.350718 
L 355.335458 124.638905 
L 355.647807 166.121899 
L 356.272505 127.054606 
L 356.584854 129.817048 
L 356.897203 164.770283 
L 357.209552 164.163496 
L 357.521901 123.878274 
L 357.83425 176.357468 
L 358.146599 155.367981 
L 358.458948 149.378954 
L 358.771297 179.978383 
L 359.083646 190.142327 
L 359.395995 166.933034 
L 359.708344 129.483879 
L 360.020693 107.170909 
L 360.333041 143.478477 
L 360.64539 126.820252 
L 360.957739 126.814802 
L 361.270088 190.412879 
L 361.582437 151.27725 
L 361.894786 186.998043 
L 362.207135 144.846111 
L 362.519484 136.718882 
L 362.831833 56.271717 
L 363.144182 147.263181 
L 363.456531 152.138962 
L 363.76888 125.742378 
L 364.081229 165.687858 
L 364.393578 124.37623 
L 364.705927 163.038136 
L 365.018276 115.816022 
L 365.330624 119.208754 
L 365.642973 144.561833 
L 365.955322 148.97081 
L 366.267671 183.562424 
L 366.58002 160.035363 
L 366.892369 167.828248 
L 367.204718 134.565399 
L 367.517067 154.835666 
L 367.829416 163.032793 
L 368.454114 76.474053 
L 368.766463 133.737102 
L 369.078812 109.366515 
L 369.391161 141.003213 
L 369.70351 200.186714 
L 370.015859 103.309237 
L 370.328207 218.329616 
L 370.640556 215.362585 
L 370.952905 185.77544 
L 371.265254 192.047787 
L 371.577603 164.933467 
L 371.889952 174.253453 
L 372.202301 150.495559 
L 372.51465 185.984337 
L 372.826999 174.597209 
L 373.139348 119.718697 
L 373.451697 152.02941 
L 373.764046 202.113588 
L 374.076395 223.345552 
L 374.388744 154.625077 
L 374.701093 207.264721 
L 375.32579 146.907962 
L 375.638139 152.801724 
L 375.950488 137.7802 
L 376.262837 161.770325 
L 376.575186 138.276994 
L 376.887535 152.829668 
L 377.199884 137.084871 
L 377.512233 171.437197 
L 378.136931 131.843904 
L 378.44928 162.666684 
L 378.761629 112.783161 
L 379.073978 121.838059 
L 379.386327 143.562271 
L 379.698676 182.316525 
L 380.011025 169.888894 
L 380.635722 120.207057 
L 380.948071 126.637692 
L 381.26042 150.821777 
L 381.572769 145.192609 
L 381.885118 200.488015 
L 382.197467 128.487502 
L 382.509816 145.967388 
L 382.822165 129.049692 
L 383.134514 119.56233 
L 383.446863 84.818575 
L 383.759212 125.94317 
L 384.38391 175.244619 
L 384.696259 156.794244 
L 385.008608 189.726355 
L 385.320956 136.042426 
L 385.633305 119.203043 
L 385.945654 157.919721 
L 386.258003 99.883421 
L 386.570352 146.58785 
L 386.882701 145.842144 
L 387.19505 185.890281 
L 387.507399 156.565266 
L 387.819748 183.069074 
L 388.132097 168.275538 
L 388.444446 121.152574 
L 388.756795 110.993053 
L 389.069144 116.17524 
L 389.381493 147.021152 
L 389.693842 190.842399 
L 390.318539 139.218676 
L 390.630888 174.748196 
L 390.943237 125.952359 
L 391.255586 111.085047 
L 391.567935 143.101263 
L 391.880284 118.747528 
L 392.192633 182.674606 
L 392.504982 102.959504 
L 393.12968 148.506817 
L 393.442029 132.665639 
L 393.754378 130.481955 
L 394.066727 151.797849 
L 394.379076 96.305902 
L 394.691425 100.653778 
L 395.003774 137.087496 
L 395.316122 95.49958 
L 395.628471 115.890413 
L 396.253169 129.524074 
L 396.565518 167.831759 
L 396.877867 141.53187 
L 397.190216 124.9274 
L 397.502565 119.154318 
L 397.814914 115.650351 
L 398.127263 106.927428 
L 398.439612 112.956976 
L 398.751961 129.831509 
L 399.06431 167.225391 
L 399.376659 150.943 
L 399.689008 87.543953 
L 400.001357 125.805435 
L 400.313705 148.378446 
L 400.626054 147.123042 
L 400.938403 214.861933 
L 401.563101 117.750761 
L 401.87545 185.895526 
L 402.187799 159.69015 
L 402.500148 176.979225 
L 402.812497 159.197915 
L 403.124846 117.081961 
L 403.437195 159.901017 
L 403.749544 127.608674 
L 404.061893 154.209637 
L 404.686591 126.651719 
L 404.99894 150.486012 
L 405.311288 195.420504 
L 405.623637 205.741882 
L 405.935986 119.669518 
L 406.248335 132.263391 
L 406.560684 180.803065 
L 406.873033 196.064112 
L 407.497731 181.023729 
L 408.122429 159.061982 
L 408.434778 170.272439 
L 408.747127 134.072299 
L 409.371825 207.876006 
L 409.996523 85.725618 
L 410.308871 93.588018 
L 410.933569 160.668595 
L 411.245918 93.436719 
L 411.245918 93.436719 
" clip-path="url(#p7b525ef55f)" style="fill: none; stroke: #1f77b4; stroke-width: 1.5; stroke-linecap: square"/>
   </g>
   <g id="line2d_14">
    <path d="M 99.209329 176.172416 
L 99.521678 173.296071 
L 99.834027 174.676842 
L 100.146376 172.582002 
L 100.458725 183.297005 
L 100.771074 184.914459 
L 101.083423 169.568798 
L 101.395772 172.705923 
L 102.02047 153.686765 
L 102.332819 201.317094 
L 102.957517 152.010093 
L 103.582215 215.12003 
L 103.894564 133.038897 
L 104.206912 191.241187 
L 104.519261 198.374024 
L 104.83161 146.696295 
L 105.143959 140.052875 
L 105.456308 156.433169 
L 105.768657 117.045762 
L 106.081006 118.742432 
L 106.705704 136.022324 
L 107.330402 98.827288 
L 107.642751 166.500793 
L 108.267449 108.776917 
L 108.579798 120.564968 
L 108.892147 112.400677 
L 109.204495 160.600315 
L 109.829193 101.786732 
L 110.141542 142.424756 
L 110.453891 68.342446 
L 110.76624 135.534211 
L 111.078589 150.625754 
L 111.390938 90.163393 
L 111.703287 128.136943 
L 112.015636 91.156016 
L 112.327985 182.868412 
L 112.640334 80.366779 
L 112.952683 41.169329 
L 113.265032 120.897113 
L 113.577381 126.159808 
L 113.88973 136.039663 
L 114.202078 96.791967 
L 114.514427 111.85094 
L 114.826776 117.743625 
L 115.139125 172.460694 
L 115.451474 200.279846 
L 115.763823 196.017735 
L 116.076172 179.960452 
L 116.388521 110.266558 
L 116.70087 114.66907 
L 117.013219 81.950197 
L 117.325568 131.39976 
L 117.637917 82.889849 
L 117.950266 107.75479 
L 118.262615 102.877899 
L 118.574964 116.823131 
L 118.887313 122.866659 
L 119.51201 194.562024 
L 119.824359 92.472973 
L 120.136708 213.378452 
L 120.449057 151.061941 
L 120.761406 147.148878 
L 121.073755 147.883568 
L 121.386104 104.666447 
L 121.698453 166.469447 
L 122.010802 69.750531 
L 122.6355 154.396225 
L 122.947849 166.498227 
L 123.260198 159.169889 
L 123.572547 131.428357 
L 123.884896 138.272246 
L 124.197244 138.095842 
L 124.509593 158.924608 
L 124.821942 166.432586 
L 125.134291 128.106944 
L 125.44664 155.230348 
L 125.758989 134.502632 
L 126.071338 154.984581 
L 126.383687 124.024987 
L 126.696036 225.042237 
L 127.008385 157.957987 
L 127.633083 179.826307 
L 127.945432 134.053669 
L 128.257781 114.050869 
L 128.57013 133.001224 
L 128.882479 123.471098 
L 129.194827 146.776533 
L 129.507176 152.481718 
L 129.819525 155.349791 
L 130.131874 141.9549 
L 130.444223 154.578161 
L 130.756572 156.151876 
L 131.068921 86.349784 
L 131.38127 158.322506 
L 131.693619 136.110208 
L 132.005968 169.621302 
L 132.318317 170.452757 
L 132.630666 140.691823 
L 132.943015 145.109948 
L 133.255364 154.470744 
L 133.567713 113.167134 
L 133.880062 113.239766 
L 134.19241 101.352429 
L 134.504759 168.486041 
L 134.817108 133.786545 
L 135.129457 172.046817 
L 135.441806 123.79124 
L 135.754155 102.240321 
L 136.066504 158.204383 
L 136.378853 184.969025 
L 136.691202 153.582021 
L 137.003551 140.507797 
L 137.3159 176.44291 
L 137.628249 141.206567 
L 137.940598 149.366971 
L 138.565296 173.08514 
L 138.877645 164.912485 
L 139.189993 141.812649 
L 139.502342 85.516604 
L 139.814691 187.874659 
L 140.12704 127.268177 
L 140.439389 117.793889 
L 140.751738 199.582251 
L 141.064087 197.038419 
L 141.688785 224.29302 
L 142.001134 159.698649 
L 142.313483 138.803819 
L 142.625832 145.678149 
L 142.938181 128.421999 
L 143.562879 178.721076 
L 143.875228 168.993979 
L 144.187576 165.733385 
L 144.499925 137.048357 
L 144.812274 138.59653 
L 145.124623 134.567793 
L 145.436972 148.335286 
L 145.749321 139.349701 
L 146.06167 171.722063 
L 146.374019 118.704666 
L 146.686368 110.963625 
L 146.998717 110.480408 
L 147.311066 129.506633 
L 147.623415 81.335239 
L 147.935764 177.001982 
L 148.248113 169.479016 
L 148.560462 128.893958 
L 148.872811 170.072703 
L 149.185159 112.813825 
L 149.497508 109.373245 
L 149.809857 136.627315 
L 150.122206 130.251588 
L 150.434555 117.283562 
L 150.746904 156.137717 
L 151.059253 129.150003 
L 151.371602 116.141112 
L 151.683951 166.322346 
L 151.9963 134.808244 
L 152.308649 123.762932 
L 152.620998 187.86317 
L 152.933347 194.681614 
L 153.245696 169.45686 
L 153.558045 196.943808 
L 153.870394 121.275151 
L 154.182742 142.027124 
L 154.495091 112.910478 
L 154.80744 166.832109 
L 155.119789 101.751084 
L 155.432138 133.363798 
L 155.744487 129.6388 
L 156.056836 136.272651 
L 156.369185 119.140478 
L 156.681534 180.999977 
L 156.993883 210.187384 
L 157.306232 145.31092 
L 157.618581 151.01707 
L 157.93093 183.427996 
L 158.555628 118.143459 
L 158.867977 207.249536 
L 159.180326 149.413127 
L 159.805023 81.188708 
L 160.117372 156.976598 
L 160.429721 174.940167 
L 160.74207 199.989118 
L 161.054419 122.534546 
L 161.366768 120.031849 
L 161.679117 174.658845 
L 161.991466 99.215633 
L 162.303815 130.871997 
L 162.616164 102.26777 
L 162.928513 154.241241 
L 163.240862 187.63675 
L 163.553211 135.482265 
L 163.86556 107.996818 
L 164.177909 135.808944 
L 164.490257 129.743561 
L 164.802606 104.513557 
L 165.114955 127.738413 
L 165.427304 127.476186 
L 165.739653 147.805272 
L 166.052002 105.573695 
L 166.364351 126.201604 
L 166.6767 112.024426 
L 167.301398 154.958065 
L 167.613747 151.060568 
L 167.926096 80.752836 
L 168.238445 173.069952 
L 168.550794 132.654301 
L 168.863143 117.928723 
L 169.48784 155.202043 
L 169.800189 153.512982 
L 170.112538 125.975868 
L 170.424887 126.360718 
L 170.737236 189.880563 
L 171.049585 151.109151 
L 171.361934 194.456865 
L 171.674283 194.870535 
L 171.986632 199.756963 
L 172.298981 173.205943 
L 172.61133 216.411083 
L 172.923679 238.93315 
L 173.236028 221.001689 
L 173.548377 225.121007 
L 173.860726 199.748641 
L 174.173075 193.648844 
L 174.797772 135.855338 
L 175.42247 166.349732 
L 175.734819 139.652753 
L 176.047168 197.465852 
L 176.671866 117.887546 
L 176.984215 126.040898 
L 177.296564 156.296985 
L 177.608913 121.454637 
L 177.921262 142.618767 
L 178.233611 97.426427 
L 178.54596 195.376232 
L 178.858309 195.631007 
L 179.170658 102.135215 
L 179.483006 184.314124 
L 179.795355 153.99573 
L 180.107704 138.615857 
L 180.420053 145.616356 
L 180.732402 149.295837 
L 181.044751 141.82932 
L 181.669449 210.708617 
L 181.981798 97.801529 
L 182.294147 148.571105 
L 182.606496 172.704524 
L 182.918845 207.759341 
L 183.231194 147.80862 
L 183.543543 123.294244 
L 183.855892 143.971169 
L 184.168241 91.660178 
L 184.480589 163.045228 
L 184.792938 98.832494 
L 185.105287 144.580271 
L 185.417636 162.82555 
L 185.729985 86.990441 
L 186.042334 133.503694 
L 186.354683 91.372876 
L 186.667032 131.794412 
L 186.979381 127.356682 
L 187.29173 127.432364 
L 187.604079 123.060802 
L 188.228777 182.384838 
L 188.541126 185.264987 
L 188.853475 139.195436 
L 189.165824 158.669296 
L 189.478172 118.856137 
L 189.790521 104.965778 
L 190.10287 185.748962 
L 190.415219 163.889324 
L 190.727568 160.455582 
L 191.039917 182.92304 
L 191.352266 191.618595 
L 191.664615 154.976542 
L 191.976964 136.608556 
L 192.289313 133.521592 
L 192.601662 80.146402 
L 192.914011 111.272152 
L 193.22636 172.648778 
L 193.538709 63.827942 
L 193.851058 80.34607 
L 194.163407 137.269229 
L 194.475755 83.909382 
L 194.788104 162.963697 
L 195.100453 192.509509 
L 195.412802 148.836656 
L 195.725151 130.298344 
L 196.0375 164.089754 
L 196.349849 213.526406 
L 196.662198 190.317613 
L 196.974547 117.408672 
L 197.286896 134.27009 
L 197.599245 164.725026 
L 197.911594 134.943792 
L 198.223943 130.266346 
L 198.536292 149.102227 
L 198.848641 181.962025 
L 199.16099 176.018707 
L 199.473338 125.597297 
L 199.785687 158.100039 
L 200.098036 138.572178 
L 200.410385 144.553668 
L 200.722734 154.23093 
L 201.035083 151.486062 
L 201.347432 118.590125 
L 201.659781 150.470197 
L 202.284479 178.713464 
L 202.909177 85.299798 
L 203.221526 77.248318 
L 203.533875 148.572483 
L 203.846224 107.587292 
L 204.158573 95.01809 
L 204.470921 109.083827 
L 204.78327 100.565635 
L 205.095619 100.891778 
L 205.407968 149.293561 
L 205.720317 156.931554 
L 206.032666 118.621282 
L 206.345015 105.061143 
L 206.657364 63.234333 
L 206.969713 155.244997 
L 207.282062 183.41235 
L 207.594411 178.652362 
L 207.90676 125.65659 
L 208.219109 113.926897 
L 208.531458 156.557507 
L 208.843807 123.583077 
L 209.156156 127.56662 
L 209.468504 147.064749 
L 209.780853 132.916824 
L 210.405551 84.541897 
L 210.7179 84.995895 
L 211.030249 116.66159 
L 211.342598 90.017749 
L 211.654947 147.128777 
L 211.967296 152.645537 
L 212.279645 88.077726 
L 212.591994 135.259607 
L 212.904343 106.200883 
L 213.216692 109.276562 
L 213.529041 107.66304 
L 213.84139 104.033684 
L 214.153739 116.225024 
L 214.466087 83.164866 
L 214.778436 151.900098 
L 215.090785 112.978618 
L 215.403134 134.751676 
L 216.027832 104.409259 
L 216.340181 138.510884 
L 216.65253 123.310957 
L 216.964879 93.310286 
L 217.277228 132.533653 
L 217.589577 106.905549 
L 217.901926 97.926357 
L 218.214275 142.989383 
L 218.526624 99.177109 
L 218.838973 134.375564 
L 219.151322 121.956649 
L 219.776019 190.531104 
L 220.400717 100.28244 
L 221.025415 163.370041 
L 221.337764 115.194088 
L 221.650113 108.09114 
L 221.962462 88.86183 
L 222.274811 125.14481 
L 222.58716 109.531231 
L 223.211858 152.545625 
L 223.524207 168.962804 
L 223.836556 99.438657 
L 224.148905 125.977389 
L 224.461254 106.429708 
L 225.085951 166.50236 
L 225.3983 185.720958 
L 225.710649 196.508436 
L 226.022998 142.987859 
L 226.335347 160.412084 
L 226.647696 168.349345 
L 226.960045 188.551006 
L 227.272394 187.594159 
L 227.584743 168.214482 
L 227.897092 157.185799 
L 228.209441 134.111462 
L 228.834139 118.829664 
L 229.146488 153.792866 
L 229.458837 151.506282 
L 229.771185 102.975074 
L 230.083534 124.279569 
L 230.395883 115.415345 
L 230.708232 117.923551 
L 231.020581 155.951899 
L 231.33293 167.478652 
L 231.645279 114.770049 
L 231.957628 109.618213 
L 232.269977 135.059908 
L 232.582326 125.243658 
L 233.207024 138.539648 
L 233.519373 138.43088 
L 233.831722 181.054964 
L 234.45642 106.210069 
L 235.081117 165.160461 
L 235.393466 170.592822 
L 235.705815 149.267449 
L 236.018164 184.133614 
L 236.330513 174.617718 
L 236.642862 173.295435 
L 236.955211 130.123399 
L 237.26756 148.603844 
L 237.579909 151.266013 
L 237.892258 161.701706 
L 238.204607 198.074523 
L 238.516956 248.403909 
L 238.829305 255.321136 
L 239.141654 203.794957 
L 239.766351 174.969394 
L 240.0787 189.819801 
L 240.391049 146.961196 
L 240.703398 161.615215 
L 241.015747 170.327683 
L 241.328096 225.750262 
L 241.640445 142.613896 
L 241.952794 175.143415 
L 242.265143 158.197896 
L 242.889841 135.747001 
L 243.20219 180.084243 
L 243.514539 163.822616 
L 243.826888 177.041913 
L 244.139237 140.075605 
L 244.451586 198.186627 
L 244.763934 120.266352 
L 245.076283 78.24173 
L 245.388632 129.838107 
L 245.700981 92.928274 
L 246.325679 157.961019 
L 246.638028 157.893157 
L 246.950377 186.363202 
L 247.262726 127.975893 
L 247.887424 187.352977 
L 248.199773 132.97481 
L 248.512122 186.463351 
L 248.824471 143.156256 
L 249.13682 170.236305 
L 249.449169 225.256936 
L 249.761517 168.196565 
L 250.073866 156.656593 
L 250.386215 124.192042 
L 250.698564 137.460832 
L 251.010913 167.805821 
L 251.323262 157.211237 
L 251.635611 215.404106 
L 251.94796 176.714768 
L 252.260309 152.290336 
L 252.885007 162.541365 
L 253.197356 208.136842 
L 253.509705 170.073133 
L 253.822054 104.113419 
L 254.134403 103.621272 
L 254.446752 140.515818 
L 254.7591 140.391024 
L 255.071449 109.150905 
L 255.383798 138.932262 
L 255.696147 116.457919 
L 256.008496 150.399691 
L 256.320845 167.610098 
L 256.633194 168.49178 
L 256.945543 136.712329 
L 257.257892 123.627451 
L 257.88259 221.980107 
L 258.194939 175.441589 
L 258.507288 163.158575 
L 259.131986 101.324067 
L 259.444335 125.418459 
L 259.756683 135.46096 
L 260.069032 172.728654 
L 260.381381 159.913029 
L 260.69373 215.81002 
L 261.006079 147.287684 
L 261.318428 139.620614 
L 261.630777 139.073841 
L 262.255475 160.368164 
L 262.567824 144.418876 
L 263.192522 213.593684 
L 263.504871 166.821112 
L 264.129569 131.383039 
L 264.441918 169.909368 
L 265.066615 141.889505 
L 265.378964 93.479544 
L 266.003662 152.79176 
L 266.316011 145.069625 
L 266.62836 189.288483 
L 266.940709 174.517457 
L 267.253058 129.39052 
L 267.565407 135.835834 
L 267.877756 95.766489 
L 268.190105 149.31077 
L 268.502454 166.229835 
L 268.814803 110.032221 
L 269.127152 110.266054 
L 269.439501 157.190647 
L 269.751849 157.916801 
L 270.064198 194.470362 
L 270.376547 112.466802 
L 270.688896 178.592615 
L 271.001245 178.020156 
L 271.313594 187.075849 
L 271.625943 128.51225 
L 271.938292 176.735538 
L 272.250641 97.204308 
L 272.56299 158.494383 
L 272.875339 118.765439 
L 273.187688 179.662391 
L 273.500037 108.996305 
L 273.812386 173.388221 
L 274.124735 126.915581 
L 274.437084 187.355763 
L 274.749432 154.909356 
L 275.061781 134.073127 
L 275.37413 146.263985 
L 275.686479 137.833502 
L 275.998828 85.010323 
L 276.311177 115.928567 
L 276.623526 162.689046 
L 276.935875 152.336209 
L 277.248224 148.304633 
L 277.560573 129.775695 
L 277.872922 168.031363 
L 278.185271 156.551091 
L 278.49762 196.639327 
L 278.809969 130.840892 
L 279.122318 93.687452 
L 279.747015 129.487382 
L 280.059364 142.899063 
L 280.371713 131.309988 
L 280.996411 175.467783 
L 281.30876 172.906655 
L 281.621109 124.092985 
L 281.933458 119.553898 
L 282.245807 151.20591 
L 282.558156 133.019511 
L 282.870505 150.54177 
L 283.182854 118.530294 
L 283.495203 162.928092 
L 283.807552 141.567149 
L 284.119901 181.021063 
L 284.43225 144.018548 
L 284.744598 124.635983 
L 285.056947 148.501302 
L 285.369296 105.010931 
L 285.681645 122.939115 
L 285.993994 129.473538 
L 286.306343 140.57492 
L 286.618692 165.206525 
L 286.931041 177.06002 
L 287.24339 140.624491 
L 287.555739 162.306237 
L 287.868088 123.093399 
L 288.180437 177.636932 
L 288.492786 175.689933 
L 288.805135 87.210712 
L 289.117484 102.022653 
L 289.742182 198.444754 
L 290.05453 207.066788 
L 290.366879 171.636565 
L 290.679228 148.917249 
L 290.991577 138.281501 
L 291.303926 155.935093 
L 291.616275 120.460134 
L 291.928624 142.13396 
L 292.240973 155.787813 
L 292.553322 159.318511 
L 292.865671 124.708902 
L 293.17802 186.190055 
L 293.490369 154.298885 
L 293.802718 157.765942 
L 294.115067 173.704037 
L 294.427416 172.671174 
L 294.739765 92.473994 
L 295.052113 68.171064 
L 295.364462 139.898468 
L 295.676811 94.196201 
L 295.98916 137.042074 
L 296.301509 149.775656 
L 296.613858 124.546513 
L 296.926207 150.514302 
L 297.238556 128.892304 
L 297.550905 155.274456 
L 297.863254 133.677474 
L 298.175603 207.875697 
L 298.487952 168.960753 
L 298.800301 115.004588 
L 299.11265 177.592661 
L 299.424999 152.057029 
L 299.737348 208.731157 
L 300.049696 113.530023 
L 300.362045 161.013994 
L 300.674394 150.827497 
L 300.986743 158.468578 
L 301.299092 118.670239 
L 301.611441 156.841017 
L 301.92379 115.739601 
L 302.236139 118.304545 
L 302.548488 168.335525 
L 302.860837 124.931947 
L 303.173186 180.558821 
L 303.485535 161.896499 
L 303.797884 121.638565 
L 304.110233 167.940939 
L 304.422582 193.357183 
L 304.734931 134.239316 
L 305.047279 131.302959 
L 305.359628 124.925177 
L 305.671977 137.116682 
L 305.984326 133.718634 
L 306.296675 134.269069 
L 306.609024 135.544914 
L 306.921373 118.787393 
L 307.233722 120.657924 
L 307.546071 136.617888 
L 307.85842 118.813603 
L 308.170769 92.933986 
L 308.483118 149.941941 
L 308.795467 121.06879 
L 309.420165 145.492378 
L 309.732514 83.993042 
L 310.044862 99.779855 
L 310.66956 159.414295 
L 310.981909 160.535227 
L 311.294258 104.553424 
L 311.606607 96.462455 
L 311.918956 137.426468 
L 312.231305 112.822937 
L 312.543654 147.501455 
L 312.856003 159.142665 
L 313.168352 103.271938 
L 313.480701 110.828313 
L 313.79305 112.598144 
L 314.105399 142.607511 
L 314.417748 108.242364 
L 314.730097 112.566003 
L 315.042445 160.196325 
L 315.354794 157.909723 
L 315.667143 140.75405 
L 315.979492 100.213123 
L 316.291841 108.020536 
L 316.60419 93.798577 
L 316.916539 114.883511 
L 317.228888 111.874876 
L 317.541237 113.367958 
L 317.853586 88.631192 
L 318.165935 92.929552 
L 318.478284 140.032021 
L 319.102982 60.425333 
L 319.72768 132.200606 
L 320.040028 118.184105 
L 320.352377 183.607655 
L 320.664726 203.271187 
L 320.977075 159.528428 
L 321.289424 147.945033 
L 321.914122 180.677195 
L 322.53882 151.024582 
L 322.851169 190.582717 
L 323.163518 165.067032 
L 323.475867 161.671894 
L 323.788216 110.690817 
L 324.100565 114.462768 
L 324.725263 94.223468 
L 325.037611 101.744596 
L 325.34996 175.88104 
L 325.662309 150.288631 
L 325.974658 166.487804 
L 326.287007 154.359118 
L 326.599356 129.578288 
L 326.911705 140.822993 
L 327.224054 177.211183 
L 327.848752 131.531741 
L 328.161101 137.43481 
L 328.47345 122.94256 
L 328.785799 148.071369 
L 329.098148 108.495056 
L 329.410497 158.92433 
L 329.722846 151.085306 
L 330.035194 136.656743 
L 330.347543 131.673137 
L 330.659892 89.984721 
L 331.28459 118.389639 
L 331.596939 139.541762 
L 331.909288 84.633792 
L 332.221637 122.268023 
L 332.533986 143.57604 
L 332.846335 112.055636 
L 333.471033 182.938528 
L 333.783382 147.543473 
L 334.095731 125.833422 
L 335.032777 197.213398 
L 335.657475 140.889296 
L 336.282173 157.508609 
L 336.594522 80.447008 
L 336.906871 113.295534 
L 337.21922 120.908547 
L 337.843918 67.541771 
L 338.156267 165.681198 
L 338.468616 140.835667 
L 338.780965 134.907054 
L 339.093314 102.543645 
L 339.405663 104.24965 
L 339.718012 152.217559 
L 340.03036 180.278618 
L 340.655058 116.996125 
L 340.967407 129.008238 
L 341.279756 124.005708 
L 341.592105 103.497935 
L 341.904454 115.437068 
L 342.216803 149.971161 
L 342.529152 100.490112 
L 342.841501 143.265758 
L 343.15385 137.386507 
L 343.466199 178.624689 
L 344.090897 112.137739 
L 344.403246 114.425802 
L 344.715595 110.735932 
L 345.027943 68.376121 
L 345.340292 65.362907 
L 345.652641 126.516234 
L 345.96499 119.896213 
L 346.277339 102.366595 
L 346.589688 122.278676 
L 346.902037 130.435113 
L 347.214386 191.476353 
L 347.526735 180.585018 
L 347.839084 187.095478 
L 348.151433 180.243941 
L 348.463782 136.844967 
L 348.776131 182.981448 
L 349.08848 138.798563 
L 349.400829 154.249693 
L 349.713178 158.16491 
L 350.025526 134.115715 
L 350.337875 168.679197 
L 350.650224 119.005907 
L 350.962573 153.069526 
L 351.274922 152.045013 
L 351.587271 128.570205 
L 351.89962 135.101334 
L 352.211969 192.425275 
L 352.524318 118.996894 
L 352.836667 71.808068 
L 353.773714 162.509559 
L 354.086063 125.199506 
L 354.398412 173.46166 
L 354.710761 120.529151 
L 355.02311 134.8635 
L 355.335458 122.231107 
L 355.647807 134.908218 
L 355.960156 96.322415 
L 356.272505 173.672932 
L 356.584854 161.498943 
L 356.897203 143.128284 
L 357.209552 131.328831 
L 357.521901 90.233164 
L 357.83425 174.762011 
L 358.146599 139.962168 
L 358.458948 151.864883 
L 358.771297 100.011108 
L 359.083646 129.881186 
L 359.395995 97.403636 
L 360.020693 126.563757 
L 360.333041 89.369413 
L 360.64539 123.886797 
L 360.957739 145.763562 
L 361.270088 181.980064 
L 361.894786 92.322767 
L 362.207135 141.385705 
L 362.519484 125.254618 
L 362.831833 153.913507 
L 363.144182 83.27918 
L 363.76888 152.765564 
L 364.081229 138.2479 
L 364.393578 144.873896 
L 364.705927 121.085038 
L 365.018276 118.624328 
L 365.330624 109.47564 
L 365.642973 119.055595 
L 365.955322 137.67203 
L 366.267671 103.283568 
L 366.58002 189.207301 
L 366.892369 159.8312 
L 367.204718 207.954878 
L 367.517067 196.084686 
L 367.829416 119.820676 
L 368.141765 113.639189 
L 368.454114 149.25628 
L 368.766463 95.319663 
L 369.078812 129.011016 
L 369.391161 103.663875 
L 369.70351 127.161968 
L 370.015859 79.806666 
L 370.328207 142.219228 
L 370.640556 122.311301 
L 370.952905 114.768357 
L 371.265254 130.847741 
L 371.577603 136.772962 
L 371.889952 138.761151 
L 372.202301 138.920686 
L 372.51465 103.431999 
L 372.826999 157.28486 
L 373.139348 150.548407 
L 373.451697 132.822883 
L 373.764046 161.541598 
L 374.076395 156.613539 
L 374.388744 101.576433 
L 374.701093 107.844781 
L 375.013442 141.558827 
L 375.32579 134.17368 
L 375.638139 172.623751 
L 376.262837 96.276093 
L 376.575186 126.866888 
L 376.887535 133.95303 
L 377.199884 151.403173 
L 377.512233 146.542521 
L 377.824582 88.131884 
L 378.136931 124.638003 
L 378.44928 131.175563 
L 378.761629 105.942073 
L 379.073978 167.26543 
L 379.698676 126.84967 
L 380.011025 122.017009 
L 380.635722 106.812427 
L 380.948071 168.639818 
L 381.26042 124.803504 
L 381.572769 146.262593 
L 382.197467 171.815122 
L 382.509816 199.089986 
L 382.822165 153.39807 
L 383.134514 153.553168 
L 383.446863 139.243079 
L 383.759212 105.305737 
L 384.071561 109.704166 
L 384.38391 102.791232 
L 384.696259 81.558252 
L 385.008608 123.788542 
L 385.320956 132.846983 
L 385.633305 87.992863 
L 385.945654 67.18652 
L 386.258003 121.608219 
L 386.570352 123.310411 
L 386.882701 97.262787 
L 387.19505 112.628318 
L 387.507399 157.856061 
L 387.819748 124.733959 
L 388.132097 123.458063 
L 388.444446 87.946429 
L 389.069144 114.706589 
L 389.381493 114.171857 
L 389.693842 109.317078 
L 390.006191 143.504828 
L 390.318539 133.057964 
L 390.630888 174.822961 
L 390.943237 51.760559 
L 391.567935 163.080294 
L 391.880284 158.997021 
L 392.192633 93.909991 
L 392.504982 156.006606 
L 392.817331 140.004171 
L 393.12968 165.97776 
L 393.442029 107.56859 
L 394.066727 100.348069 
L 394.691425 141.1593 
L 395.003774 153.77054 
L 395.628471 115.315084 
L 395.94082 132.305996 
L 396.253169 74.378815 
L 396.565518 116.656137 
L 396.877867 193.361665 
L 397.190216 174.214218 
L 397.814914 113.217907 
L 398.127263 95.045462 
L 398.751961 112.1168 
L 399.06431 100.738148 
L 399.376659 104.204662 
L 399.689008 115.652215 
L 400.001357 104.899424 
L 400.313705 116.362606 
L 400.626054 104.877713 
L 401.250752 146.475651 
L 401.563101 90.703847 
L 401.87545 94.556924 
L 402.187799 119.274804 
L 402.500148 106.969634 
L 402.812497 141.4951 
L 403.124846 133.494976 
L 403.437195 119.552399 
L 403.749544 131.221173 
L 404.374242 138.537051 
L 404.686591 109.934005 
L 404.99894 113.197265 
L 405.311288 121.15679 
L 405.935986 178.47444 
L 406.248335 187.631065 
L 406.560684 142.582209 
L 406.873033 164.580699 
L 407.185382 134.386568 
L 407.497731 177.351681 
L 407.81008 170.928999 
L 408.122429 115.936482 
L 408.434778 102.817622 
L 408.747127 146.346254 
L 409.059476 148.289362 
L 409.371825 131.630996 
L 409.684174 216.179406 
L 410.308871 147.251686 
L 410.62122 185.137215 
L 410.933569 160.383811 
L 411.245918 122.701371 
L 411.245918 122.701371 
" clip-path="url(#p7b525ef55f)" style="fill: none; stroke: #ff7f0e; stroke-width: 1.5; stroke-linecap: square"/>
   </g>
   <g id="patch_3">
    <path d="M 83.6075 266.245 
L 83.6075 25.92 
" style="fill: none; stroke: #000000; stroke-width: 0.8; stroke-linejoin: miter; stroke-linecap: square"/>
   </g>
   <g id="patch_4">
    <path d="M 426.847748 266.245 
L 426.847748 25.92 
" style="fill: none; stroke: #000000; stroke-width: 0.8; stroke-linejoin: miter; stroke-linecap: square"/>
   </g>
   <g id="patch_5">
    <path d="M 83.6075 266.245 
L 426.847748 266.245 
" style="fill: none; stroke: #000000; stroke-width: 0.8; stroke-linejoin: miter; stroke-linecap: square"/>
   </g>
   <g id="patch_6">
    <path d="M 83.6075 25.92 
L 426.847748 25.92 
" style="fill: none; stroke: #000000; stroke-width: 0.8; stroke-linejoin: miter; stroke-linecap: square"/>
   </g>
  </g>
 </g>
 <defs>
  <clipPath id="p7b525ef55f">
   <rect x="83.6075" y="25.92" width="343.240248" height="240.325"/>
  </clipPath>
 </defs>
</svg>
