<?xml version="1.0" encoding="utf-8" standalone="no"?>
<!DOCTYPE svg PUBLIC "-//W3C//DTD SVG 1.1//EN"
  "http://www.w3.org/Graphics/SVG/1.1/DTD/svg11.dtd">
<svg xmlns:xlink="http://www.w3.org/1999/xlink" width="460.8pt" height="345.6pt" viewBox="0 0 460.8 345.6" xmlns="http://www.w3.org/2000/svg" version="1.1">
 <metadata>
  <rdf:RDF xmlns:dc="http://purl.org/dc/elements/1.1/" xmlns:cc="http://creativecommons.org/ns#" xmlns:rdf="http://www.w3.org/1999/02/22-rdf-syntax-ns#">
   <cc:Work>
    <dc:type rdf:resource="http://purl.org/dc/dcmitype/StillImage"/>
    <dc:date>2025-12-15T10:14:28.151394</dc:date>
    <dc:format>image/svg+xml</dc:format>
    <dc:creator>
     <cc:Agent>
      <dc:title>Matplotlib v3.10.6, https://matplotlib.org/</dc:title>
     </cc:Agent>
    </dc:creator>
   </cc:Work>
  </rdf:RDF>
 </metadata>
 <defs>
  <style type="text/css">*{stroke-linejoin: round; stroke-linecap: butt}</style>
 </defs>
 <g id="figure_1">
  <g id="patch_1">
   <path d="M 0 345.6 
L 460.8 345.6 
L 460.8 0 
L 0 0 
z
" style="fill: #ffffff"/>
  </g>
  <g id="axes_1">
   <g id="patch_2">
    <path d="M 107.5475 266.245 
L 426.847748 266.245 
L 426.847748 25.92 
L 107.5475 25.92 
z
" style="fill: #ffffff"/>
   </g>
   <g id="matplotlib.axis_1">
    <g id="xtick_1">
     <g id="line2d_1">
      <path d="M 122.061148 266.245 
L 122.061148 25.92 
" clip-path="url(#p402ac024e5)" style="fill: none; stroke: #b0b0b0; stroke-width: 0.8; stroke-linecap: square"/>
     </g>
     <g id="line2d_2">
      <defs>
       <path id="me662096edc" d="M 0 0 
L 0 3.5 
" style="stroke: #000000; stroke-width: 0.8"/>
      </defs>
      <g>
       <use xlink:href="#me662096edc" x="122.061148" y="266.245" style="stroke: #000000; stroke-width: 0.8"/>
      </g>
     </g>
     <g id="text_1">
      <!-- 0 -->
      <g transform="translate(116.061148 289.63625) scale(0.24 -0.24)">
       <defs>
        <path id="TeXGyreTermes-Regular-30" d="M 3046 2112 
C 3046 3424 2464 4326 1626 4326 
C 1274 4326 1005 4218 768 3994 
C 397 3635 154 2899 154 2150 
C 154 1453 365 704 666 346 
C 902 64 1229 -90 1600 -90 
C 1926 -90 2202 19 2432 243 
C 2803 595 3046 1338 3046 2112 
z
M 2432 2099 
C 2432 762 2150 77 1600 77 
C 1050 77 768 762 768 2093 
C 768 3450 1056 4160 1606 4160 
C 2144 4160 2432 3437 2432 2099 
z
" transform="scale(0.015625)"/>
       </defs>
       <use xlink:href="#TeXGyreTermes-Regular-30"/>
      </g>
     </g>
    </g>
    <g id="xtick_2">
     <g id="line2d_3">
      <path d="M 267.342906 266.245 
L 267.342906 25.92 
" clip-path="url(#p402ac024e5)" style="fill: none; stroke: #b0b0b0; stroke-width: 0.8; stroke-linecap: square"/>
     </g>
     <g id="line2d_4">
      <g>
       <use xlink:href="#me662096edc" x="267.342906" y="266.245" style="stroke: #000000; stroke-width: 0.8"/>
      </g>
     </g>
     <g id="text_2">
      <!-- 500 -->
      <g transform="translate(249.342906 289.63625) scale(0.24 -0.24)">
       <defs>
        <path id="TeXGyreTermes-Regular-35" d="M 2803 4358 
L 2746 4403 
C 2650 4269 2586 4237 2451 4237 
L 1114 4237 
L 416 2720 
C 410 2707 410 2688 410 2688 
C 410 2656 435 2637 486 2637 
C 691 2637 947 2592 1210 2509 
C 1946 2272 2285 1875 2285 1242 
C 2285 627 1894 147 1395 147 
C 1267 147 1158 192 966 333 
C 762 480 614 544 480 544 
C 294 544 205 467 205 307 
C 205 64 506 -90 986 -90 
C 1523 -90 1984 83 2304 410 
C 2598 698 2733 1062 2733 1549 
C 2733 2010 2611 2304 2291 2624 
C 2010 2906 1645 3053 890 3187 
L 1158 3731 
L 2413 3731 
C 2515 3731 2541 3744 2560 3789 
L 2803 4358 
z
" transform="scale(0.015625)"/>
       </defs>
       <use xlink:href="#TeXGyreTermes-Regular-35"/>
       <use xlink:href="#TeXGyreTermes-Regular-30" transform="translate(49.999985 0)"/>
       <use xlink:href="#TeXGyreTermes-Regular-30" transform="translate(99.999969 0)"/>
      </g>
     </g>
    </g>
    <g id="xtick_3">
     <g id="line2d_5">
      <path d="M 412.624664 266.245 
L 412.624664 25.92 
" clip-path="url(#p402ac024e5)" style="fill: none; stroke: #b0b0b0; stroke-width: 0.8; stroke-linecap: square"/>
     </g>
     <g id="line2d_6">
      <g>
       <use xlink:href="#me662096edc" x="412.624664" y="266.245" style="stroke: #000000; stroke-width: 0.8"/>
      </g>
     </g>
     <g id="text_3">
      <!-- 1000 -->
      <g transform="translate(388.624664 289.63625) scale(0.24 -0.24)">
       <defs>
        <path id="TeXGyreTermes-Regular-31" d="M 2522 0 
L 2522 96 
C 2016 102 1914 166 1914 474 
L 1914 4314 
L 1862 4326 
L 710 3744 
L 710 3654 
C 787 3686 858 3712 883 3725 
C 998 3770 1107 3795 1171 3795 
C 1306 3795 1363 3699 1363 3494 
L 1363 595 
C 1363 384 1312 237 1210 179 
C 1114 122 1024 102 755 96 
L 755 0 
L 2522 0 
z
" transform="scale(0.015625)"/>
       </defs>
       <use xlink:href="#TeXGyreTermes-Regular-31"/>
       <use xlink:href="#TeXGyreTermes-Regular-30" transform="translate(49.999985 0)"/>
       <use xlink:href="#TeXGyreTermes-Regular-30" transform="translate(99.999969 0)"/>
       <use xlink:href="#TeXGyreTermes-Regular-30" transform="translate(149.999954 0)"/>
      </g>
     </g>
    </g>
    <g id="text_4">
     <!-- Schritt k -->
     <g transform="translate(226.195124 315.23625) scale(0.24 -0.24)">
      <defs>
       <path id="TeXGyreTermes-Regular-53" d="M 3142 1075 
C 3142 1606 2790 2016 1946 2477 
C 1274 2842 1005 3123 1005 3475 
C 1005 3827 1274 4064 1670 4064 
C 1958 4064 2227 3942 2451 3712 
C 2650 3507 2739 3341 2842 2963 
L 3002 2963 
L 2861 4326 
L 2726 4326 
C 2701 4186 2630 4109 2522 4109 
C 2458 4109 2355 4134 2240 4186 
C 2003 4275 1773 4326 1549 4326 
C 1299 4326 1030 4224 826 4058 
C 576 3853 454 3578 454 3226 
C 454 2720 736 2362 1453 1984 
C 1914 1734 2246 1478 2406 1235 
C 2464 1146 2496 1018 2496 858 
C 2496 435 2176 141 1709 141 
C 1133 141 736 493 416 1274 
L 269 1274 
L 461 -83 
L 602 -83 
C 608 38 685 128 781 128 
C 851 128 960 102 1082 58 
C 1325 -38 1581 -90 1837 -90 
C 2579 -90 3142 416 3142 1075 
z
" transform="scale(0.015625)"/>
       <path id="TeXGyreTermes-Regular-63" d="M 2637 941 
L 2547 998 
C 2240 550 2010 397 1645 397 
C 1056 397 653 909 653 1645 
C 653 2310 1005 2758 1523 2758 
C 1754 2758 1837 2688 1901 2451 
L 1939 2310 
C 1990 2125 2106 2016 2246 2016 
C 2413 2016 2547 2138 2547 2285 
C 2547 2643 2099 2944 1562 2944 
C 1261 2944 954 2829 698 2618 
C 352 2330 160 1888 160 1357 
C 160 531 666 -64 1376 -64 
C 1651 -64 1894 26 2112 205 
C 2304 358 2432 544 2637 941 
z
" transform="scale(0.015625)"/>
       <path id="TeXGyreTermes-Regular-68" d="M 3117 0 
L 3117 96 
C 2771 160 2733 211 2733 653 
L 2733 1926 
C 2733 2598 2464 2944 1946 2944 
C 1568 2944 1299 2790 1005 2406 
L 1005 4352 
L 973 4371 
C 755 4294 595 4243 237 4141 
L 64 4090 
L 64 3987 
C 90 3994 109 3994 141 3994 
C 416 3994 467 3942 467 3667 
L 467 653 
C 467 205 429 147 58 96 
L 58 0 
L 1440 0 
L 1440 96 
C 1069 134 1005 211 1005 653 
L 1005 2195 
C 1274 2490 1466 2598 1715 2598 
C 2035 2598 2195 2368 2195 1920 
L 2195 653 
C 2195 218 2131 134 1760 96 
L 1760 0 
L 3117 0 
z
" transform="scale(0.015625)"/>
       <path id="TeXGyreTermes-Regular-72" d="M 2144 2605 
C 2144 2816 2010 2944 1792 2944 
C 1523 2944 1338 2797 1024 2342 
L 1024 2931 
L 992 2944 
C 653 2803 422 2720 45 2598 
L 45 2496 
C 134 2515 192 2522 269 2522 
C 429 2522 486 2419 486 2138 
L 486 538 
C 486 218 442 173 32 96 
L 32 0 
L 1568 0 
L 1568 96 
C 1133 115 1024 211 1024 576 
L 1024 2016 
C 1024 2221 1299 2541 1472 2541 
C 1510 2541 1568 2509 1638 2445 
C 1741 2355 1811 2317 1894 2317 
C 2048 2317 2144 2426 2144 2605 
z
" transform="scale(0.015625)"/>
       <path id="TeXGyreTermes-Regular-69" d="M 1619 0 
L 1619 96 
C 1197 128 1146 192 1146 653 
L 1146 2925 
L 1120 2944 
L 128 2592 
L 128 2496 
L 179 2502 
C 256 2515 339 2522 397 2522 
C 550 2522 608 2419 608 2138 
L 608 653 
C 608 192 544 122 102 96 
L 102 0 
L 1619 0 
z
M 1203 3776 
C 1203 3955 1062 4102 877 4102 
C 698 4102 550 3955 550 3776 
C 550 3590 698 3450 877 3450 
C 1062 3450 1203 3590 1203 3776 
z
" transform="scale(0.015625)"/>
       <path id="TeXGyreTermes-Regular-74" d="M 1786 422 
L 1702 493 
C 1562 326 1459 269 1318 269 
C 1082 269 986 435 986 845 
L 986 2675 
L 1632 2675 
L 1632 2880 
L 986 2880 
L 986 3622 
C 986 3686 973 3706 941 3706 
C 902 3642 858 3584 813 3526 
C 576 3174 358 2938 192 2842 
C 122 2797 83 2758 83 2720 
C 83 2701 90 2688 109 2675 
L 448 2675 
L 448 749 
C 448 211 640 -64 1011 -64 
C 1331 -64 1574 90 1786 422 
z
" transform="scale(0.015625)"/>
       <path id="TeXGyreTermes-Regular-20" transform="scale(0.015625)"/>
       <path id="TeXGyreTermes-Regular-6b" d="M 3232 0 
L 3232 96 
C 2950 115 2752 237 2483 563 
L 1504 1805 
L 1690 1978 
C 2144 2400 2541 2694 2726 2746 
C 2822 2771 2912 2784 3021 2784 
L 3072 2784 
L 3072 2880 
L 1766 2880 
L 1766 2790 
C 2016 2784 2086 2758 2086 2669 
C 2086 2618 2029 2528 1939 2451 
L 1062 1670 
L 1062 4358 
L 1037 4371 
L 237 4141 
L 45 4090 
L 45 3987 
C 128 3994 186 4000 250 4000 
C 461 4000 525 3917 525 3610 
L 525 525 
C 525 192 506 173 45 96 
L 45 0 
L 1542 0 
L 1542 96 
L 1414 102 
C 1158 115 1062 205 1062 429 
L 1062 1606 
L 1958 410 
L 1978 384 
C 1990 365 2003 346 2022 326 
C 2074 262 2093 224 2093 192 
C 2093 134 2035 96 1958 96 
L 1837 96 
L 1837 0 
L 3232 0 
z
" transform="scale(0.015625)"/>
      </defs>
      <use xlink:href="#TeXGyreTermes-Regular-53"/>
      <use xlink:href="#TeXGyreTermes-Regular-63" transform="translate(55.599991 0)"/>
      <use xlink:href="#TeXGyreTermes-Regular-68" transform="translate(99.999985 0)"/>
      <use xlink:href="#TeXGyreTermes-Regular-72" transform="translate(149.999969 0)"/>
      <use xlink:href="#TeXGyreTermes-Regular-69" transform="translate(183.299957 0)"/>
      <use xlink:href="#TeXGyreTermes-Regular-74" transform="translate(211.099945 0)"/>
      <use xlink:href="#TeXGyreTermes-Regular-74" transform="translate(238.899933 0)"/>
      <use xlink:href="#TeXGyreTermes-Regular-20" transform="translate(266.699921 0)"/>
      <use xlink:href="#TeXGyreTermes-Regular-6b" transform="translate(291.699905 0)"/>
     </g>
    </g>
   </g>
   <g id="matplotlib.axis_2">
    <g id="ytick_1">
     <g id="line2d_7">
      <path d="M 107.5475 213.019087 
L 426.847748 213.019087 
" clip-path="url(#p402ac024e5)" style="fill: none; stroke: #b0b0b0; stroke-width: 0.8; stroke-linecap: square"/>
     </g>
     <g id="line2d_8">
      <defs>
       <path id="m423d8cd4e1" d="M 0 0 
L -3.5 0 
" style="stroke: #000000; stroke-width: 0.8"/>
      </defs>
      <g>
       <use xlink:href="#m423d8cd4e1" x="107.5475" y="213.019087" style="stroke: #000000; stroke-width: 0.8"/>
      </g>
     </g>
     <g id="text_5">
      <!-- −100 -->
      <g transform="translate(51.01 221.214712) scale(0.24 -0.24)">
       <defs>
        <path id="TeXGyreTermes-Regular-2212" d="M 3354 1389 
L 3354 1811 
L 256 1811 
L 256 1389 
L 3354 1389 
z
" transform="scale(0.015625)"/>
       </defs>
       <use xlink:href="#TeXGyreTermes-Regular-2212"/>
       <use xlink:href="#TeXGyreTermes-Regular-31" transform="translate(56.399994 0)"/>
       <use xlink:href="#TeXGyreTermes-Regular-30" transform="translate(106.399979 0)"/>
       <use xlink:href="#TeXGyreTermes-Regular-30" transform="translate(156.399963 0)"/>
      </g>
     </g>
    </g>
    <g id="ytick_2">
     <g id="line2d_9">
      <path d="M 107.5475 141.414001 
L 426.847748 141.414001 
" clip-path="url(#p402ac024e5)" style="fill: none; stroke: #b0b0b0; stroke-width: 0.8; stroke-linecap: square"/>
     </g>
     <g id="line2d_10">
      <g>
       <use xlink:href="#m423d8cd4e1" x="107.5475" y="141.414001" style="stroke: #000000; stroke-width: 0.8"/>
      </g>
     </g>
     <g id="text_6">
      <!-- 0 -->
      <g transform="translate(88.5475 149.609626) scale(0.24 -0.24)">
       <use xlink:href="#TeXGyreTermes-Regular-30"/>
      </g>
     </g>
    </g>
    <g id="ytick_3">
     <g id="line2d_11">
      <path d="M 107.5475 69.808916 
L 426.847748 69.808916 
" clip-path="url(#p402ac024e5)" style="fill: none; stroke: #b0b0b0; stroke-width: 0.8; stroke-linecap: square"/>
     </g>
     <g id="line2d_12">
      <g>
       <use xlink:href="#m423d8cd4e1" x="107.5475" y="69.808916" style="stroke: #000000; stroke-width: 0.8"/>
      </g>
     </g>
     <g id="text_7">
      <!-- 100 -->
      <g transform="translate(64.5475 78.004541) scale(0.24 -0.24)">
       <use xlink:href="#TeXGyreTermes-Regular-31"/>
       <use xlink:href="#TeXGyreTermes-Regular-30" transform="translate(49.999985 0)"/>
       <use xlink:href="#TeXGyreTermes-Regular-30" transform="translate(99.999969 0)"/>
      </g>
     </g>
    </g>
    <g id="text_8">
     <!-- x(k) -->
     <g transform="translate(41.80125 166.07375) rotate(-90) scale(0.24 -0.24)">
      <defs>
       <path id="TeXGyreTermes-Regular-78" d="M 3066 0 
L 3066 96 
C 2867 96 2739 198 2541 480 
L 1722 1734 
L 2253 2502 
C 2374 2675 2566 2778 2771 2784 
L 2771 2880 
L 1760 2880 
L 1760 2784 
C 1952 2771 2016 2733 2016 2643 
C 2016 2566 1939 2426 1779 2227 
C 1747 2189 1670 2074 1587 1946 
L 1498 2074 
C 1318 2342 1203 2560 1203 2643 
C 1203 2733 1286 2778 1478 2784 
L 1478 2880 
L 154 2880 
L 154 2784 
L 211 2784 
C 403 2784 506 2701 704 2400 
L 1306 1478 
L 576 422 
C 384 160 320 115 109 96 
L 109 0 
L 1037 0 
L 1037 96 
C 858 96 781 128 781 211 
C 781 250 826 346 909 474 
L 1414 1261 
L 1997 365 
C 2022 326 2035 288 2035 250 
C 2035 134 1990 109 1779 96 
L 1779 0 
L 3066 0 
z
" transform="scale(0.015625)"/>
       <path id="TeXGyreTermes-Regular-28" d="M 1946 -1030 
C 1434 -627 1254 -403 1082 77 
C 928 506 858 992 858 1632 
C 858 2304 941 2829 1114 3226 
C 1293 3622 1485 3853 1946 4224 
L 1888 4326 
C 1414 4019 1222 3853 986 3558 
C 531 3002 307 2362 307 1613 
C 307 800 544 173 1107 -480 
C 1370 -787 1536 -928 1869 -1133 
L 1946 -1030 
z
" transform="scale(0.015625)"/>
       <path id="TeXGyreTermes-Regular-29" d="M 1824 1581 
C 1824 2400 1587 3021 1024 3674 
C 762 3981 595 4122 262 4326 
L 186 4224 
C 698 3821 870 3597 1050 3117 
C 1203 2688 1274 2202 1274 1562 
C 1274 896 1190 365 1018 -26 
C 838 -429 646 -659 186 -1030 
L 243 -1133 
C 717 -826 909 -659 1146 -365 
C 1600 192 1824 832 1824 1581 
z
" transform="scale(0.015625)"/>
      </defs>
      <use xlink:href="#TeXGyreTermes-Regular-78"/>
      <use xlink:href="#TeXGyreTermes-Regular-28" transform="translate(49.999985 0)"/>
      <use xlink:href="#TeXGyreTermes-Regular-6b" transform="translate(83.299973 0)"/>
      <use xlink:href="#TeXGyreTermes-Regular-29" transform="translate(133.299957 0)"/>
     </g>
    </g>
   </g>
   <g id="line2d_13">
    <path d="M 122.061148 94.622402 
L 122.351711 94.3175 
L 122.642275 88.524463 
L 122.932838 68.884064 
L 123.223402 68.738475 
L 123.804529 87.956591 
L 124.095092 92.981978 
L 124.385656 91.716916 
L 124.676219 101.062154 
L 124.966783 98.379807 
L 125.257346 84.348091 
L 125.838473 108.536361 
L 126.4196 107.86366 
L 126.710164 66.546553 
L 127.000727 65.706944 
L 127.291291 81.20814 
L 127.581854 76.590831 
L 127.872418 83.4336 
L 128.162981 82.392038 
L 128.453545 78.938403 
L 129.034672 95.158379 
L 129.325236 78.439212 
L 129.615799 81.460988 
L 129.906363 80.490082 
L 130.196926 64.503597 
L 130.778053 50.726805 
L 131.068617 54.204192 
L 131.35918 53.244888 
L 131.649744 76.594773 
L 131.940307 78.595152 
L 132.230871 72.025243 
L 132.811998 87.055003 
L 133.102561 71.540502 
L 133.393125 78.92704 
L 133.683688 70.353635 
L 134.264815 103.93251 
L 134.845942 120.870327 
L 135.136506 108.698772 
L 136.008196 144.276177 
L 136.29876 127.859454 
L 136.589323 129.651058 
L 136.879887 128.56061 
L 137.17045 133.794435 
L 137.461014 120.987984 
L 137.751577 127.078685 
L 138.332705 125.132049 
L 138.623268 118.60473 
L 138.913832 106.464917 
L 139.204395 110.708672 
L 139.494959 117.194897 
L 139.785522 118.160621 
L 140.076086 118.512298 
L 140.366649 111.457931 
L 140.657213 111.375802 
L 140.947776 121.594505 
L 141.23834 100.922479 
L 141.528903 114.953141 
L 141.819467 136.339829 
L 142.11003 137.997426 
L 142.400594 134.428058 
L 142.981721 131.01091 
L 143.272284 122.443067 
L 143.562848 105.053223 
L 143.853411 105.011576 
L 144.143975 89.246507 
L 144.434538 86.427875 
L 145.015665 108.863506 
L 145.306229 105.366801 
L 145.596792 96.008434 
L 145.887356 99.143597 
L 146.177919 94.16207 
L 146.468483 111.614602 
L 146.759046 113.953695 
L 147.04961 112.192315 
L 147.340174 135.061754 
L 147.630737 139.098611 
L 147.921301 141.573855 
L 148.211864 137.157173 
L 148.502428 139.218178 
L 148.792991 134.888314 
L 149.083555 132.98901 
L 149.374118 135.288497 
L 149.664682 126.206179 
L 150.245809 89.495984 
L 150.536372 91.153039 
L 150.826936 94.644101 
L 151.117499 93.378076 
L 151.408063 98.162499 
L 151.698626 110.280485 
L 151.98919 102.703094 
L 152.279753 104.325719 
L 152.570317 116.808567 
L 152.86088 112.634808 
L 153.151444 97.292276 
L 153.442007 106.224529 
L 153.732571 119.202703 
L 154.023134 106.287249 
L 154.313698 110.123324 
L 154.604261 106.101297 
L 154.894825 110.714825 
L 155.475952 103.128077 
L 155.766515 109.241574 
L 156.057079 110.166255 
L 156.347643 108.811186 
L 156.638206 91.609459 
L 157.219333 134.739372 
L 157.509897 135.682702 
L 157.80046 139.151314 
L 158.091024 130.299043 
L 158.381587 133.8969 
L 158.672151 131.222648 
L 158.962714 135.103614 
L 159.253278 126.223841 
L 159.543841 133.337041 
L 159.834405 134.356843 
L 160.415532 144.096502 
L 160.706095 140.05879 
L 161.287222 153.083264 
L 161.577786 155.444809 
L 162.158913 148.415452 
L 162.449476 147.080616 
L 162.74004 150.515806 
L 163.030603 147.39189 
L 163.321167 129.280279 
L 163.61173 121.255733 
L 163.902294 127.73055 
L 164.483421 120.182699 
L 164.773984 128.049115 
L 165.064548 124.415881 
L 165.355112 102.674578 
L 165.645675 106.570833 
L 165.936239 108.488419 
L 166.226802 112.009321 
L 166.517366 122.072049 
L 166.807929 118.871946 
L 167.389056 84.919385 
L 167.67962 87.659348 
L 167.970183 110.819295 
L 168.260747 121.931883 
L 168.55131 102.06581 
L 168.841874 104.098401 
L 169.132437 109.929296 
L 169.423001 99.842944 
L 169.713564 103.538224 
L 170.294691 97.234173 
L 170.585255 106.075804 
L 170.875818 121.276685 
L 171.166382 128.971739 
L 171.456945 108.698368 
L 171.747509 114.258989 
L 172.038072 90.69329 
L 172.328636 93.824289 
L 172.619199 101.006603 
L 172.909763 111.908289 
L 173.200326 110.541852 
L 173.49089 131.563882 
L 173.781453 123.937333 
L 174.072017 120.65333 
L 174.362581 121.171394 
L 174.653144 96.48651 
L 174.943708 97.049221 
L 175.234271 99.102312 
L 175.524835 94.867356 
L 176.105962 71.15681 
L 176.396525 75.793599 
L 176.687089 63.289045 
L 176.977652 67.801819 
L 177.268216 66.633531 
L 177.558779 70.697362 
L 178.43047 106.40737 
L 178.721033 87.547781 
L 179.011597 94.05875 
L 179.30216 94.049939 
L 179.592724 97.053692 
L 179.883287 93.738489 
L 180.173851 113.229109 
L 180.464414 124.64705 
L 181.045541 96.563992 
L 181.336105 113.353948 
L 181.626668 115.851402 
L 181.917232 85.198998 
L 182.207795 68.767756 
L 182.788922 83.694395 
L 183.079486 72.152389 
L 183.37005 69.559677 
L 183.660613 65.470507 
L 183.951177 68.094034 
L 184.24174 82.723294 
L 184.822867 94.357366 
L 185.113431 84.469041 
L 185.403994 79.41301 
L 185.694558 91.984268 
L 185.985121 80.937924 
L 186.275685 86.410415 
L 186.566248 70.379582 
L 186.856812 70.332867 
L 187.437939 90.800215 
L 187.728502 69.679708 
L 188.019066 68.222348 
L 188.309629 82.696293 
L 188.600193 78.28671 
L 188.890756 79.127402 
L 189.18132 87.507128 
L 189.471883 87.371796 
L 189.762447 90.062894 
L 190.05301 88.95737 
L 190.343574 93.067199 
L 190.634137 84.498874 
L 190.924701 62.744036 
L 191.215264 62.790931 
L 191.796391 36.843864 
L 192.377519 48.640065 
L 192.958646 41.059893 
L 193.249209 66.191979 
L 193.539773 65.299399 
L 193.830336 70.504038 
L 194.1209 73.128287 
L 194.411463 80.432608 
L 194.702027 81.282521 
L 194.99259 64.693621 
L 195.283154 69.674719 
L 195.864281 92.977235 
L 196.154844 92.608456 
L 196.445408 88.889505 
L 196.735971 81.705859 
L 197.026535 102.413107 
L 197.317098 89.995104 
L 197.607662 97.633838 
L 197.898225 117.448568 
L 198.188789 94.010994 
L 198.479352 92.410176 
L 198.769916 114.193043 
L 199.060479 113.757169 
L 199.351043 111.989836 
L 199.641606 100.176943 
L 199.93217 103.518772 
L 200.222733 77.456384 
L 200.513297 93.708389 
L 200.80386 101.543396 
L 201.094424 95.065919 
L 201.384987 100.835594 
L 201.675551 116.18696 
L 201.966115 105.733592 
L 202.256678 126.684474 
L 202.547242 108.812439 
L 202.837805 99.926608 
L 203.128369 79.2631 
L 203.418932 76.034671 
L 203.709496 70.926189 
L 204.000059 70.00991 
L 204.290623 85.621854 
L 204.581186 72.76354 
L 204.87175 68.439025 
L 205.162313 84.301042 
L 205.452877 71.403249 
L 205.74344 72.220329 
L 206.034004 91.23241 
L 206.324567 82.233324 
L 206.615131 78.919722 
L 206.905694 67.86097 
L 207.486821 99.728495 
L 207.777385 106.627744 
L 208.067948 128.814904 
L 208.358512 121.552153 
L 208.649075 118.194031 
L 208.939639 131.718958 
L 209.230202 119.520289 
L 209.811329 106.268511 
L 210.101893 117.075986 
L 210.392456 115.620887 
L 210.68302 115.590804 
L 210.973584 128.535122 
L 211.264147 123.762768 
L 211.554711 110.182143 
L 211.845274 115.949208 
L 212.135838 129.893034 
L 212.426401 154.384497 
L 212.716965 146.014712 
L 213.007528 147.036532 
L 213.298092 139.517937 
L 213.588655 148.993685 
L 213.879219 140.819819 
L 214.169782 151.999228 
L 214.460346 151.524269 
L 214.750909 144.991275 
L 215.6226 132.494252 
L 215.913163 138.970031 
L 216.784854 147.074102 
L 217.365981 168.071636 
L 217.656544 168.271364 
L 217.947108 191.109563 
L 218.237671 184.381575 
L 218.528235 184.835887 
L 218.818798 172.91415 
L 219.109362 176.300721 
L 219.399925 174.617834 
L 219.981053 175.020733 
L 220.56218 202.218273 
L 220.852743 197.241781 
L 221.143307 204.934425 
L 221.724434 173.514147 
L 222.014997 156.72934 
L 222.305561 146.596856 
L 222.596124 151.303104 
L 222.886688 166.941292 
L 223.177251 148.198629 
L 223.467815 156.165319 
L 224.048942 150.353796 
L 224.630069 140.078396 
L 224.920632 145.019187 
L 225.211196 143.483719 
L 225.501759 135.566677 
L 225.792323 152.832342 
L 226.082886 146.816042 
L 226.37345 151.235791 
L 226.664013 161.275059 
L 226.954577 155.00866 
L 227.535704 182.598772 
L 227.826267 166.835089 
L 228.116831 181.891452 
L 228.407394 174.367815 
L 228.697958 186.492567 
L 228.988522 174.540819 
L 229.279085 167.987779 
L 229.569649 157.792853 
L 229.860212 159.508226 
L 230.150776 156.150035 
L 230.441339 140.308978 
L 230.731903 135.618175 
L 231.022466 147.985459 
L 231.31303 144.711857 
L 231.603593 153.67654 
L 231.894157 154.802684 
L 232.18472 164.267642 
L 232.475284 166.527861 
L 233.056411 158.930971 
L 233.346974 163.430759 
L 233.637538 159.245838 
L 233.928101 148.01436 
L 234.218665 149.142186 
L 234.799792 158.182887 
L 235.090355 165.947629 
L 235.380919 158.47364 
L 235.671482 170.878886 
L 235.962046 160.965839 
L 236.543173 164.933137 
L 236.833736 168.535174 
L 237.1243 170.642929 
L 237.414863 169.678348 
L 237.705427 173.58197 
L 237.995991 174.395647 
L 238.867681 159.297972 
L 239.158245 166.487782 
L 239.448808 148.644878 
L 239.739372 151.32509 
L 240.029935 148.648004 
L 240.320499 165.059781 
L 240.611062 155.968608 
L 240.901626 159.064479 
L 241.192189 167.698752 
L 241.482753 149.698925 
L 241.773316 162.435306 
L 242.06388 149.879517 
L 242.354443 150.362479 
L 242.645007 149.746476 
L 242.93557 163.766861 
L 243.516697 149.139297 
L 243.807261 170.443294 
L 244.097824 159.20427 
L 244.388388 125.901279 
L 244.678951 132.600564 
L 244.969515 121.653332 
L 245.260078 137.055968 
L 245.550642 146.136891 
L 245.841205 148.784649 
L 246.131769 150.412254 
L 246.422332 158.439235 
L 246.712896 150.551198 
L 247.00346 148.916316 
L 247.294023 162.102821 
L 247.584587 156.579631 
L 248.165714 172.924758 
L 248.456277 175.173081 
L 248.746841 181.772399 
L 249.037404 167.388654 
L 249.327968 165.692906 
L 249.618531 166.801394 
L 249.909095 166.844523 
L 250.199658 163.600328 
L 250.490222 170.464711 
L 250.780785 155.474261 
L 251.071349 161.721638 
L 251.652476 183.360069 
L 251.943039 174.85296 
L 252.233603 183.907994 
L 252.524166 178.515859 
L 252.81473 180.616304 
L 253.105293 185.44624 
L 253.395857 188.043426 
L 253.68642 202.841104 
L 253.976984 198.955165 
L 254.267547 179.313856 
L 254.558111 178.904761 
L 255.139238 183.842876 
L 255.429801 172.908254 
L 255.720365 153.602517 
L 256.010929 156.167714 
L 256.592056 179.876765 
L 256.882619 173.010996 
L 257.173183 169.133608 
L 257.75431 149.410071 
L 258.044873 145.236293 
L 258.335437 151.744315 
L 258.626 151.792651 
L 258.916564 170.125206 
L 259.207127 159.835539 
L 259.497691 144.768928 
L 259.788254 150.892923 
L 260.078818 163.828043 
L 260.369381 146.563305 
L 260.659945 154.269747 
L 261.241072 177.686229 
L 261.531635 174.53014 
L 261.822199 184.835831 
L 262.112762 165.635248 
L 262.403326 188.965638 
L 262.693889 187.206069 
L 262.984453 184.108014 
L 263.275016 184.7624 
L 263.56558 180.356244 
L 263.856143 188.148112 
L 264.146707 190.999704 
L 264.43727 204.466487 
L 265.018398 186.490289 
L 265.308961 196.947405 
L 265.599525 199.492564 
L 265.890088 200.870195 
L 266.180652 195.320259 
L 266.471215 191.919258 
L 266.761779 177.517 
L 267.052342 172.108313 
L 267.342906 180.062438 
L 267.633469 175.369147 
L 267.924033 176.491106 
L 268.214596 178.287958 
L 268.795723 188.7026 
L 269.37685 194.907192 
L 269.667414 193.803162 
L 269.957977 189.783591 
L 270.248541 200.003898 
L 270.829668 190.544104 
L 271.701358 162.547732 
L 271.991922 143.023098 
L 272.282485 153.260822 
L 272.573049 158.526314 
L 273.154176 126.431832 
L 273.735303 147.634142 
L 274.025867 136.442509 
L 274.31643 143.263005 
L 274.606994 146.66141 
L 274.897557 141.840477 
L 275.188121 130.927931 
L 275.478684 130.675475 
L 275.769248 135.106508 
L 276.059811 121.336956 
L 276.350375 126.406691 
L 276.640938 146.555808 
L 276.931502 146.159004 
L 277.222065 152.659653 
L 277.512629 134.348991 
L 277.803192 141.866412 
L 278.093756 140.084447 
L 278.384319 148.741927 
L 278.674883 141.635069 
L 278.965446 141.774512 
L 279.25601 144.484632 
L 280.1277 133.449412 
L 280.418264 118.828695 
L 280.708827 118.196394 
L 280.999391 109.141085 
L 281.289954 92.453759 
L 281.580518 88.714823 
L 281.871081 77.039595 
L 282.161645 95.994325 
L 282.452208 97.258217 
L 282.742772 113.232965 
L 283.033335 112.523523 
L 283.323899 113.30999 
L 283.614463 121.000322 
L 283.905026 123.71639 
L 284.19559 120.735174 
L 284.486153 122.09005 
L 284.776717 126.333668 
L 285.06728 120.099473 
L 285.357844 119.169828 
L 285.648407 111.004326 
L 286.229534 128.050798 
L 286.810661 138.430524 
L 287.101225 139.068642 
L 287.391788 151.927449 
L 287.682352 141.348257 
L 287.972915 141.269163 
L 288.263479 143.41682 
L 288.554042 143.22507 
L 289.135169 115.855166 
L 289.425733 122.104683 
L 289.716296 115.350936 
L 290.00686 124.050727 
L 290.297423 120.574263 
L 290.587987 126.490031 
L 290.87855 135.208776 
L 291.169114 140.302472 
L 291.459677 139.944659 
L 291.750241 142.808062 
L 292.040804 135.741425 
L 292.331368 112.964007 
L 292.621932 104.379882 
L 292.912495 121.605501 
L 293.203059 128.506985 
L 293.493622 113.655957 
L 293.784186 122.352737 
L 294.074749 124.221068 
L 294.365313 132.026454 
L 294.655876 133.414593 
L 294.94644 131.636156 
L 295.237003 128.407386 
L 295.527567 139.739016 
L 295.81813 140.790888 
L 296.108694 128.516311 
L 296.399257 126.717391 
L 296.689821 113.641546 
L 296.980384 130.283177 
L 297.270948 135.012189 
L 297.561511 137.715944 
L 297.852075 143.443243 
L 298.142638 118.567322 
L 298.433202 113.477383 
L 298.723765 128.908502 
L 299.014329 131.551689 
L 299.304892 126.933096 
L 299.595456 144.294251 
L 300.176583 150.155171 
L 300.467146 154.930253 
L 300.75771 167.406184 
L 301.048273 156.911575 
L 301.629401 126.33961 
L 301.919964 132.092136 
L 302.210528 140.955865 
L 302.501091 134.900515 
L 302.791655 150.371125 
L 303.082218 134.909106 
L 303.372782 129.328729 
L 303.953909 151.539996 
L 304.244472 142.834244 
L 304.535036 170.370296 
L 304.825599 168.718887 
L 305.116163 179.271838 
L 305.406726 179.281018 
L 305.69729 196.965738 
L 305.987853 189.149634 
L 306.278417 185.745552 
L 306.56898 174.032974 
L 306.859544 171.2742 
L 307.150107 170.290368 
L 307.440671 179.549435 
L 307.731234 179.049837 
L 308.021798 182.20652 
L 308.312361 169.183435 
L 308.602925 163.190074 
L 308.893488 164.168889 
L 309.184052 165.602094 
L 309.474615 168.083878 
L 309.765179 162.898275 
L 310.055742 168.10418 
L 310.346306 170.061217 
L 310.63687 164.818175 
L 310.927433 148.021308 
L 311.217997 157.625764 
L 311.50856 161.304584 
L 311.799124 157.668751 
L 312.089687 169.456189 
L 312.380251 176.18268 
L 312.670814 178.864849 
L 312.961378 168.79679 
L 313.251941 180.138911 
L 313.542505 174.034757 
L 313.833068 184.397138 
L 314.123632 182.465216 
L 314.414195 188.7171 
L 314.995322 166.705721 
L 315.285886 171.825509 
L 315.576449 171.685642 
L 315.867013 161.30677 
L 316.157576 162.172909 
L 316.44814 169.105056 
L 316.738703 185.119337 
L 317.029267 181.655644 
L 317.31983 173.40677 
L 317.610394 179.464667 
L 317.900957 178.688688 
L 318.191521 157.229756 
L 318.482084 159.261147 
L 319.063211 175.612894 
L 319.353775 188.620553 
L 319.934902 157.629171 
L 320.806593 187.231381 
L 321.097156 174.244511 
L 321.38772 175.529683 
L 321.968847 141.001416 
L 322.25941 150.949899 
L 322.549974 151.778082 
L 322.840537 150.026888 
L 323.131101 151.561109 
L 323.421664 150.103984 
L 323.712228 135.904965 
L 324.293355 144.972489 
L 324.874482 164.448133 
L 325.165045 149.813214 
L 325.455609 162.025446 
L 325.746172 141.104962 
L 326.036736 135.882222 
L 326.327299 133.556532 
L 326.908426 137.926036 
L 327.19899 125.756425 
L 327.489553 131.864134 
L 327.780117 162.472549 
L 328.07068 155.395898 
L 328.361244 163.984582 
L 328.651808 147.0208 
L 328.942371 142.875484 
L 329.232935 160.823469 
L 329.523498 147.558638 
L 329.814062 152.834424 
L 330.104625 154.291394 
L 330.395189 164.432789 
L 330.685752 167.041324 
L 330.976316 170.921922 
L 331.266879 172.784563 
L 331.848006 192.894728 
L 332.13857 185.403338 
L 332.429133 167.545354 
L 332.719697 158.925569 
L 333.01026 158.409168 
L 333.300824 164.739464 
L 333.591387 175.748607 
L 333.881951 167.586992 
L 334.172514 173.071346 
L 334.753641 196.271346 
L 335.044205 183.526099 
L 335.334768 182.808063 
L 335.625332 169.5307 
L 335.915895 175.077629 
L 336.206459 170.94204 
L 336.497022 169.91857 
L 336.787586 161.013942 
L 337.659277 178.538646 
L 337.94984 165.089957 
L 338.240404 164.030008 
L 338.530967 171.220564 
L 338.821531 167.622639 
L 339.112094 173.090379 
L 339.402658 188.785097 
L 339.983785 172.814011 
L 340.564912 190.386451 
L 340.855475 211.115289 
L 341.146039 199.404503 
L 341.436602 201.020992 
L 341.727166 192.896016 
L 342.017729 191.21387 
L 342.308293 181.31665 
L 342.598856 201.328254 
L 342.88942 206.499579 
L 343.179983 203.234377 
L 343.76111 210.980117 
L 344.051674 205.854145 
L 344.342237 197.712141 
L 344.632801 213.33699 
L 344.923364 199.612581 
L 345.213928 219.912107 
L 345.504491 224.34517 
L 345.795055 208.678929 
L 346.085618 206.909334 
L 346.376182 187.807996 
L 346.666746 184.109985 
L 346.957309 190.839666 
L 347.247873 186.698338 
L 347.538436 175.778003 
L 347.829 182.821158 
L 348.410127 172.326937 
L 348.70069 183.989061 
L 348.991254 180.313079 
L 349.281817 195.982626 
L 349.572381 192.010646 
L 350.153508 158.618588 
L 350.444071 163.945493 
L 350.734635 195.647448 
L 351.025198 192.197049 
L 351.315762 169.487436 
L 351.606325 179.647385 
L 351.896889 177.335227 
L 352.187452 162.395774 
L 352.478016 179.693267 
L 352.768579 163.910218 
L 353.059143 161.453746 
L 353.349706 175.263948 
L 353.930833 138.603053 
L 354.221397 130.917063 
L 354.51196 138.132453 
L 354.802524 170.444538 
L 355.093087 171.945902 
L 355.383651 154.837951 
L 355.674215 149.00002 
L 355.964778 166.209581 
L 356.255342 166.213247 
L 356.545905 160.136889 
L 356.836469 157.295513 
L 357.127032 152.898851 
L 357.417596 146.126469 
L 357.708159 144.033875 
L 358.289286 175.272074 
L 358.57985 163.042424 
L 359.160977 151.705211 
L 359.45154 163.299227 
L 359.742104 164.495904 
L 360.032667 155.285048 
L 360.323231 157.535138 
L 360.613794 169.627469 
L 361.194921 160.121354 
L 361.485485 162.790721 
L 361.776048 174.456471 
L 362.066612 175.479323 
L 362.357175 166.875177 
L 362.647739 180.994624 
L 362.938302 177.685551 
L 363.228866 177.205764 
L 363.519429 186.638292 
L 363.809993 189.065218 
L 364.100556 179.357739 
L 364.39112 164.322374 
L 364.681683 155.762248 
L 364.972247 164.196936 
L 365.262811 161.043087 
L 365.553374 164.028496 
L 365.843938 182.135804 
L 366.134501 174.812077 
L 366.425065 180.972201 
L 367.296755 136.277539 
L 367.587319 159.969191 
L 367.877882 164.849001 
L 368.168446 159.89828 
L 368.459009 169.801233 
L 368.749573 160.910029 
L 369.040136 169.006329 
L 369.3307 157.097342 
L 369.621263 158.262491 
L 369.911827 167.744567 
L 370.20239 173.409062 
L 370.492954 184.482072 
L 370.783517 179.978268 
L 371.074081 179.944375 
L 371.364644 170.641864 
L 371.655208 174.428512 
L 371.945771 174.813479 
L 372.526898 146.940575 
L 372.817462 162.15412 
L 373.108025 161.203738 
L 373.689152 194.994737 
L 373.979716 177.670112 
L 374.27028 211.453336 
L 374.560843 216.642924 
L 374.851407 209.387292 
L 375.14197 209.076811 
L 375.432534 200.857172 
L 375.723097 200.883889 
L 376.013661 194.873824 
L 376.304224 203.242395 
L 376.594788 198.637032 
L 376.885351 183.544695 
L 377.175915 193.670491 
L 377.466478 211.566205 
L 377.757042 217.617967 
L 378.047605 199.624133 
L 378.338169 209.051702 
L 378.919296 185.372126 
L 379.209859 182.690276 
L 379.500423 177.046562 
L 379.790986 180.767449 
L 380.08155 173.902312 
L 380.372113 175.490987 
L 380.662677 171.698269 
L 380.95324 179.361561 
L 381.534367 165.677053 
L 381.824931 170.279381 
L 382.115494 156.021089 
L 382.406058 157.329699 
L 382.696621 165.875258 
L 382.987185 177.789929 
L 383.277749 174.035153 
L 383.858876 154.493584 
L 384.149439 155.716955 
L 384.440003 162.757466 
L 384.730566 164.242899 
L 385.02113 176.729486 
L 385.311693 156.862681 
L 385.602257 156.146445 
L 386.473947 133.643169 
L 387.345638 167.610216 
L 387.636201 165.433755 
L 387.926765 171.931657 
L 388.217328 155.514797 
L 388.507892 148.548245 
L 388.798455 156.028951 
L 389.089019 142.310119 
L 389.379582 154.614377 
L 389.670146 159.109054 
L 389.960709 170.781861 
L 390.251273 165.051061 
L 390.541836 169.962442 
L 390.8324 162.731741 
L 391.122963 145.439786 
L 391.413527 139.256465 
L 391.70409 141.20928 
L 392.285218 166.324529 
L 392.866345 150.429647 
L 393.156908 155.832028 
L 393.447472 139.785592 
L 393.738035 132.84105 
L 394.028599 139.197972 
L 394.319162 134.65395 
L 394.609726 148.240402 
L 394.900289 126.880289 
L 395.190853 129.223347 
L 395.481416 135.981619 
L 395.77198 131.048218 
L 396.062543 129.223053 
L 396.353107 131.389065 
L 396.64367 114.34086 
L 396.934234 113.475384 
L 397.224797 122.039437 
L 397.515361 112.009573 
L 398.387051 126.845063 
L 398.677615 138.119489 
L 399.258742 124.331894 
L 399.549305 120.986052 
L 400.130432 117.017123 
L 400.420996 120.534327 
L 400.711559 128.991255 
L 401.002123 141.558593 
L 401.292687 137.003726 
L 401.58325 120.45773 
L 402.164377 143.093408 
L 402.454941 149.213705 
L 402.745504 169.127555 
L 403.326631 143.935167 
L 403.617195 161.767978 
L 403.907758 157.405445 
L 404.198322 160.389866 
L 404.488885 153.149919 
L 404.779449 140.586847 
L 405.070012 149.487982 
L 405.360576 142.373371 
L 405.651139 148.554356 
L 406.232266 143.369622 
L 406.52283 153.278398 
L 406.813393 169.047791 
L 407.103957 171.013268 
L 407.39452 146.648169 
L 407.685084 149.111496 
L 407.975647 165.108501 
L 408.266211 171.852901 
L 408.556774 169.881122 
L 408.847338 165.263182 
L 409.428465 152.810525 
L 409.719028 151.482908 
L 410.009592 140.124005 
L 410.300156 148.716267 
L 410.590719 152.542978 
L 411.171846 102.729486 
L 411.46241 99.85789 
L 412.043537 114.002653 
L 412.3341 93.8635 
L 412.3341 93.8635 
" clip-path="url(#p402ac024e5)" style="fill: none; stroke: #1f77b4; stroke-width: 1.5; stroke-linecap: square"/>
   </g>
   <g id="line2d_14">
    <path d="M 122.061148 170.744275 
L 122.642275 175.705787 
L 122.932838 176.894924 
L 123.223402 180.745559 
L 123.513965 181.385301 
L 123.804529 176.836519 
L 124.095092 176.435363 
L 124.385656 172.685027 
L 124.676219 171.911773 
L 124.966783 184.580914 
L 125.54791 170.926977 
L 125.838473 180.550638 
L 126.129037 185.782703 
L 126.4196 163.373271 
L 126.710164 175.017074 
L 127.000727 174.182945 
L 127.291291 155.117416 
L 127.581854 147.584763 
L 127.872418 146.257435 
L 128.162981 131.655726 
L 128.453545 127.856293 
L 128.744108 128.282763 
L 129.034672 128.485602 
L 129.615799 116.567394 
L 129.906363 133.618318 
L 130.196926 126.101408 
L 130.48749 114.905455 
L 130.778053 115.646836 
L 131.068617 114.563583 
L 131.35918 126.438253 
L 131.940307 107.370309 
L 132.230871 113.834066 
L 132.521434 95.204647 
L 132.811998 112.183249 
L 133.102561 116.339431 
L 133.393125 100.206471 
L 133.683688 107.096955 
L 133.974252 100.469419 
L 134.264815 120.994519 
L 134.555379 92.107409 
L 134.845942 79.614159 
L 135.136506 102.876447 
L 135.427069 109.838955 
L 135.717633 113.79854 
L 136.008196 105.643854 
L 136.589323 120.200647 
L 136.879887 141.635839 
L 137.17045 154.447185 
L 137.461014 154.012094 
L 137.751577 144.24386 
L 138.042141 119.877553 
L 138.332705 113.673611 
L 138.623268 103.723789 
L 138.913832 113.849062 
L 139.204395 102.521769 
L 139.494959 108.747451 
L 139.785522 110.923079 
L 140.366649 125.525104 
L 140.947776 152.239588 
L 141.23834 130.519698 
L 141.528903 160.850684 
L 141.819467 147.220323 
L 142.400594 140.43186 
L 142.691157 128.952502 
L 142.981721 141.137522 
L 143.272284 117.583852 
L 143.853411 146.336764 
L 144.143975 152.946022 
L 144.434538 151.748246 
L 144.725102 144.329963 
L 145.306229 148.226972 
L 145.596792 155.902291 
L 145.887356 158.325496 
L 146.177919 149.283234 
L 146.468483 155.567413 
L 146.759046 152.556683 
L 147.04961 158.141532 
L 147.340174 155.741752 
L 147.630737 183.03806 
L 147.921301 168.454097 
L 148.211864 169.195927 
L 148.502428 168.776324 
L 148.792991 152.537265 
L 149.083555 143.867781 
L 149.374118 147.250359 
L 149.664682 146.204409 
L 149.955245 153.606013 
L 150.245809 157.075586 
L 150.536372 158.181358 
L 150.826936 154.834137 
L 151.117499 157.709691 
L 151.408063 155.466897 
L 151.698626 137.82672 
L 151.98919 156.020889 
L 152.279753 154.74889 
L 152.570317 164.649814 
L 152.86088 165.419163 
L 153.151444 156.212288 
L 153.442007 155.665355 
L 153.732571 155.416474 
L 154.023134 142.637274 
L 154.313698 140.238955 
L 154.604261 140.204325 
L 154.894825 159.578985 
L 155.185388 155.02414 
L 155.475952 164.056614 
L 155.766515 151.595642 
L 156.057079 146.980309 
L 156.347643 165.606466 
L 156.638206 176.429212 
L 156.92877 169.378774 
L 157.219333 166.708491 
L 157.509897 175.995532 
L 157.80046 168.071661 
L 158.091024 170.364611 
L 158.381587 175.912676 
L 158.672151 178.887268 
L 158.962714 175.618022 
L 159.543841 152.325937 
L 159.834405 178.770055 
L 160.124968 166.76921 
L 160.415532 167.821865 
L 160.706095 194.883831 
L 161.287222 206.46875 
L 161.577786 207.290168 
L 161.868349 185.411039 
L 162.158913 173.95475 
L 162.449476 172.117546 
L 162.74004 167.099173 
L 163.321167 181.964042 
L 163.61173 178.889207 
L 163.902294 174.602326 
L 164.192857 163.948501 
L 164.773984 158.807623 
L 165.064548 160.945054 
L 165.355112 158.730633 
L 165.645675 163.847165 
L 165.936239 147.174756 
L 166.226802 140.728077 
L 166.517366 139.917994 
L 166.807929 143.654493 
L 167.098493 135.149538 
L 167.389056 162.539054 
L 167.67962 163.578218 
L 167.970183 152.985918 
L 168.260747 160.510476 
L 168.55131 144.013121 
L 168.841874 141.161178 
L 169.132437 148.722751 
L 169.423001 147.990472 
L 169.713564 146.364578 
L 170.004128 157.326916 
L 170.294691 151.661334 
L 170.585255 150.225336 
L 170.875818 164.947364 
L 171.166382 159.45738 
L 171.456945 159.931315 
L 171.747509 181.065161 
L 172.038072 185.992116 
L 172.328636 180.109742 
L 172.619199 182.686294 
L 172.909763 160.18204 
L 173.200326 159.905588 
L 173.49089 152.67515 
L 173.781453 163.724988 
L 174.072017 147.684792 
L 174.362581 154.387537 
L 174.653144 155.829282 
L 174.943708 158.800052 
L 175.234271 159.050733 
L 175.524835 180.035419 
L 175.815398 190.215364 
L 176.105962 173.166701 
L 176.396525 173.209957 
L 176.687089 180.864953 
L 177.268216 162.182046 
L 177.558779 183.376962 
L 178.139906 152.485856 
L 178.43047 142.824261 
L 178.721033 164.792883 
L 179.011597 174.708236 
L 179.30216 179.580996 
L 179.592724 156.417128 
L 179.883287 152.813582 
L 180.173851 163.933526 
L 180.464414 143.682124 
L 180.754978 148.390108 
L 181.045541 143.419046 
L 181.626668 169.165186 
L 182.207795 142.865552 
L 182.498359 148.375688 
L 182.788922 145.792773 
L 183.079486 138.869275 
L 183.37005 144.798489 
L 183.660613 146.836606 
L 183.951177 151.513952 
L 184.24174 141.245274 
L 184.532304 145.805632 
L 184.822867 144.768997 
L 185.403994 161.637707 
L 185.694558 159.953412 
L 185.985121 144.206512 
L 186.275685 168.39342 
L 186.566248 161.404417 
L 186.856812 158.286963 
L 187.437939 174.99812 
L 187.728502 177.14499 
L 188.019066 172.092287 
L 188.309629 177.471701 
L 188.600193 198.990062 
L 188.890756 196.577538 
L 189.18132 212.254251 
L 189.762447 222.07911 
L 190.05301 219.32738 
L 190.343574 234.390227 
L 190.634137 243.64377 
L 190.924701 239.501508 
L 191.215264 237.416228 
L 192.377519 191.621817 
L 192.958646 194.386015 
L 193.249209 187.506141 
L 193.539773 199.689249 
L 194.1209 170.395848 
L 194.411463 170.147161 
L 194.702027 176.273625 
L 194.99259 167.287274 
L 195.283154 170.487879 
L 195.573717 162.545698 
L 195.864281 190.435154 
L 196.154844 191.272802 
L 196.445408 166.855517 
L 196.735971 185.585903 
L 197.317098 172.367328 
L 197.898225 174.678 
L 198.188789 174.235665 
L 198.479352 185.25118 
L 198.769916 191.792763 
L 199.060479 161.130203 
L 199.641606 181.22123 
L 199.93217 188.525225 
L 200.222733 168.659085 
L 200.513297 156.50317 
L 200.80386 156.390293 
L 201.094424 142.077811 
L 201.384987 156.992086 
L 201.675551 141.47896 
L 201.966115 152.077034 
L 202.256678 154.977453 
L 202.547242 133.883563 
L 202.837805 142.040532 
L 203.128369 132.875343 
L 203.418932 143.595883 
L 204.290623 149.387913 
L 204.87175 173.427285 
L 205.162313 174.258482 
L 205.452877 161.096654 
L 205.74344 162.465058 
L 206.034004 150.507168 
L 206.324567 148.461377 
L 206.615131 172.007861 
L 206.905694 169.872631 
L 207.196258 169.589353 
L 207.486821 175.841327 
L 207.777385 175.904411 
L 208.358512 150.539572 
L 208.649075 142.973436 
L 208.939639 125.298431 
L 209.230202 132.48363 
L 209.520766 146.007533 
L 209.811329 116.258475 
L 210.101893 119.414991 
L 210.392456 136.517967 
L 210.68302 129.36163 
L 210.973584 155.341623 
L 211.264147 168.494139 
L 211.554711 158.490865 
L 211.845274 154.662263 
L 212.426401 182.567263 
L 212.716965 174.175045 
L 213.007528 150.966221 
L 213.298092 152.501296 
L 213.588655 159.707649 
L 213.879219 151.402146 
L 214.169782 149.686086 
L 214.460346 156.425887 
L 214.750909 166.542815 
L 215.041473 163.383974 
L 215.332036 148.286183 
L 215.6226 153.449957 
L 215.913163 147.788078 
L 216.203727 147.761632 
L 216.49429 149.410346 
L 216.784854 146.184629 
L 217.075417 136.415719 
L 217.365981 143.549001 
L 217.656544 147.157539 
L 217.947108 147.279232 
L 218.528235 108.667122 
L 218.818798 104.275048 
L 219.109362 121.20832 
L 219.399925 110.136109 
L 219.690489 104.339219 
L 219.981053 107.174332 
L 220.271616 105.581974 
L 220.56218 108.334623 
L 220.852743 123.946931 
L 221.143307 126.944402 
L 221.43387 115.26819 
L 222.014997 100.156867 
L 222.305561 128.737265 
L 222.596124 142.213398 
L 222.886688 140.379366 
L 223.177251 123.357731 
L 223.467815 117.906422 
L 223.758378 127.179119 
L 224.048942 117.941973 
L 224.339505 117.068121 
L 224.630069 120.365845 
L 224.920632 113.26287 
L 225.501759 91.81619 
L 225.792323 91.331362 
L 226.082886 99.863682 
L 226.37345 96.419971 
L 226.664013 113.275433 
L 226.954577 114.937572 
L 227.24514 97.659763 
L 227.535704 107.192407 
L 227.826267 99.79278 
L 228.697958 97.874976 
L 228.988522 100.736488 
L 229.279085 95.346069 
L 229.569649 114.053538 
L 229.860212 107.30913 
L 230.150776 112.311127 
L 230.731903 105.284252 
L 231.022466 114.590136 
L 231.31303 110.612901 
L 231.603593 103.126311 
L 231.894157 113.097735 
L 232.18472 107.690715 
L 232.475284 107.254431 
L 232.765847 120.265514 
L 233.056411 112.741313 
L 233.346974 123.633745 
L 233.637538 125.560105 
L 234.218665 150.323682 
L 234.799792 123.172835 
L 235.380919 139.055519 
L 235.671482 125.034245 
L 236.252609 115.563917 
L 236.543173 126.199528 
L 236.833736 126.434776 
L 237.414863 145.884705 
L 237.705427 150.409494 
L 237.995991 133.059621 
L 238.286554 139.087007 
L 238.577118 138.470393 
L 239.448808 177.679018 
L 239.739372 182.072511 
L 240.029935 168.985517 
L 240.611062 178.293312 
L 240.901626 185.034126 
L 241.192189 184.347307 
L 242.354443 153.719254 
L 242.645007 151.16951 
L 242.93557 160.096928 
L 243.226134 158.007745 
L 243.516697 143.664502 
L 243.807261 147.3049 
L 244.097824 146.12799 
L 244.388388 149.19426 
L 244.678951 162.157346 
L 244.969515 165.725119 
L 245.260078 150.888463 
L 245.550642 148.711416 
L 245.841205 156.577141 
L 246.131769 156.612459 
L 247.00346 169.589957 
L 247.294023 182.444009 
L 247.87515 164.279985 
L 248.456277 188.66778 
L 248.746841 193.768544 
L 249.037404 192.121778 
L 249.327968 203.501606 
L 249.618531 203.746314 
L 249.909095 202.606598 
L 250.199658 192.048653 
L 250.780785 203.70273 
L 251.071349 213.143061 
L 251.652476 251.639324 
L 251.943039 255.321136 
L 252.233603 239.417289 
L 252.81473 223.666529 
L 253.105293 223.279558 
L 253.395857 210.212926 
L 253.68642 211.945237 
L 253.976984 216.475797 
L 254.267547 228.647195 
L 254.558111 206.099859 
L 254.848674 209.426676 
L 255.429801 197.136214 
L 255.720365 194.081388 
L 256.010929 205.034862 
L 256.301492 201.715819 
L 256.592056 202.003833 
L 256.882619 191.582257 
L 257.173183 200.913772 
L 257.75431 159.03929 
L 258.044873 169.925115 
L 258.335437 162.90994 
L 258.916564 188.100253 
L 259.207127 192.966242 
L 259.497691 201.154944 
L 259.788254 187.851561 
L 260.369381 205.57642 
L 260.659945 193.703427 
L 260.950508 206.779344 
L 261.241072 198.334066 
L 261.531635 207.691736 
L 261.822199 222.821853 
L 262.112762 206.695488 
L 262.693889 187.461352 
L 262.984453 191.103521 
L 263.275016 201.049053 
L 263.56558 202.50702 
L 263.856143 218.212138 
L 264.43727 198.088556 
L 264.727834 197.828402 
L 265.018398 199.362481 
L 265.308961 209.06019 
L 265.599525 193.748521 
L 265.890088 169.330354 
L 266.180652 165.086388 
L 266.471215 174.126216 
L 266.761779 173.544779 
L 267.052342 165.473238 
L 267.342906 172.674084 
L 267.633469 169.865203 
L 268.214596 189.394772 
L 268.50516 190.240921 
L 268.795723 181.635092 
L 269.086287 180.013372 
L 269.667414 212.672976 
L 270.539104 177.735 
L 270.829668 166.307943 
L 271.410795 179.253661 
L 271.701358 192.11333 
L 271.991922 193.617857 
L 272.282485 207.236838 
L 272.573049 188.42214 
L 272.863612 182.421303 
L 273.154176 181.816778 
L 273.735303 189.212497 
L 274.025867 187.38286 
L 274.606994 208.417234 
L 275.188121 184.419601 
L 275.478684 177.367082 
L 275.769248 185.117437 
L 276.059811 180.082707 
L 276.350375 170.900166 
L 276.640938 155.610276 
L 276.931502 162.391759 
L 277.222065 173.578032 
L 277.512629 175.247569 
L 277.803192 187.739094 
L 278.093756 182.279539 
L 278.384319 166.891475 
L 278.674883 163.586067 
L 278.965446 153.071636 
L 279.25601 167.37132 
L 279.546573 172.374826 
L 279.837137 156.774811 
L 280.1277 157.666664 
L 280.418264 172.845629 
L 280.708827 178.175531 
L 280.999391 186.997345 
L 281.289954 168.019741 
L 281.580518 184.458639 
L 281.871081 187.344169 
L 282.161645 186.515315 
L 282.452208 170.071952 
L 282.742772 176.481014 
L 283.033335 155.926433 
L 283.323899 167.960926 
L 283.614463 160.818558 
L 283.905026 174.001332 
L 284.19559 158.376589 
L 284.486153 172.590842 
L 284.776717 163.93607 
L 285.06728 177.917336 
L 285.648407 160.085409 
L 285.938971 160.509994 
L 286.229534 154.525811 
L 286.520098 139.145248 
L 286.810661 148.24245 
L 287.101225 163.821651 
L 287.391788 163.614391 
L 287.682352 162.216235 
L 287.972915 158.732835 
L 288.263479 169.181844 
L 288.554042 168.520735 
L 288.844606 175.852016 
L 289.425733 139.708096 
L 290.00686 149.896667 
L 290.297423 155.203188 
L 290.587987 154.917012 
L 291.169114 170.755874 
L 291.459677 168.334827 
L 291.750241 152.639904 
L 292.040804 149.660427 
L 292.331368 157.466867 
L 292.621932 154.00535 
L 292.912495 157.396432 
L 293.203059 150.861781 
L 293.493622 162.353354 
L 293.784186 159.665262 
L 294.074749 168.696401 
L 294.655876 150.021203 
L 294.94644 153.331503 
L 295.237003 141.539617 
L 295.81813 150.137709 
L 296.108694 156.423398 
L 296.399257 166.402784 
L 296.689821 170.466549 
L 296.980384 161.503472 
L 297.270948 164.943833 
L 297.561511 156.219774 
L 297.852075 170.059537 
L 298.142638 167.516806 
L 298.433202 141.779452 
L 298.723765 146.098535 
L 299.304892 183.657012 
L 299.595456 187.289224 
L 300.176583 165.110754 
L 300.467146 159.629453 
L 300.75771 161.20992 
L 301.048273 151.376281 
L 301.629401 161.325894 
L 301.919964 161.578246 
L 302.210528 154.047164 
L 302.501091 169.242046 
L 302.791655 161.847888 
L 303.082218 160.799579 
L 303.372782 162.955072 
L 303.663345 156.560336 
L 303.953909 128.430699 
L 304.244472 118.241985 
L 304.535036 135.598951 
L 304.825599 127.098191 
L 305.116163 139.784311 
L 305.406726 145.662877 
L 305.69729 141.188371 
L 305.987853 148.398825 
L 306.278417 145.602553 
L 306.56898 153.566061 
L 306.859544 152.805422 
L 307.150107 173.463702 
L 307.440671 163.21894 
L 307.731234 148.403602 
L 308.021798 163.482745 
L 308.312361 160.280225 
L 308.602925 171.374006 
L 308.893488 146.229715 
L 309.184052 154.28628 
L 309.474615 151.831056 
L 309.765179 150.331082 
L 310.055742 138.800507 
L 310.346306 145.314026 
L 310.63687 133.957438 
L 310.927433 134.808387 
L 311.217997 148.35949 
L 311.50856 140.16865 
L 311.799124 154.312697 
L 312.089687 149.24078 
L 312.380251 137.910138 
L 312.670814 149.943575 
L 312.961378 155.133061 
L 313.251941 136.285357 
L 313.833068 126.023002 
L 314.123632 127.130239 
L 314.995322 121.088134 
L 315.285886 114.53221 
L 315.576449 113.338934 
L 315.867013 115.920249 
L 316.44814 102.178446 
L 316.738703 116.273514 
L 317.029267 109.923379 
L 317.31983 111.869785 
L 317.610394 112.452799 
L 317.900957 94.547543 
L 318.191521 97.738453 
L 318.772648 119.162494 
L 319.063211 118.38277 
L 319.353775 100.709251 
L 319.644339 96.856868 
L 319.934902 107.370534 
L 320.225466 103.287405 
L 320.516029 113.016352 
L 320.806593 114.990541 
L 321.097156 98.32897 
L 321.38772 97.534417 
L 321.678283 98.937186 
L 321.968847 106.485573 
L 322.25941 98.167626 
L 322.549974 100.528605 
L 322.840537 114.823925 
L 323.131101 114.706622 
L 323.421664 106.316969 
L 323.712228 91.7359 
L 324.002791 89.742662 
L 324.293355 85.305514 
L 324.583918 90.080258 
L 324.874482 89.670614 
L 325.165045 88.86519 
L 325.455609 82.051575 
L 325.746172 84.674349 
L 326.036736 97.907436 
L 326.617863 78.398688 
L 327.19899 108.641925 
L 327.489553 113.874582 
L 327.780117 138.422481 
L 328.07068 148.866086 
L 328.361244 138.73059 
L 328.651808 135.782141 
L 329.232935 147.046082 
L 329.814062 139.071995 
L 330.104625 147.774492 
L 330.685752 132.152582 
L 330.976316 113.706659 
L 331.848006 101.543991 
L 332.13857 108.013891 
L 332.429133 131.355464 
L 332.719697 129.408748 
L 333.01026 133.691064 
L 333.300824 130.037581 
L 333.591387 122.536424 
L 333.881951 126.065767 
L 334.172514 135.690228 
L 334.753641 119.676115 
L 335.044205 118.395509 
L 335.334768 114.025549 
L 335.625332 118.45701 
L 335.915895 109.191881 
L 336.206459 121.519673 
L 336.497022 119.478402 
L 337.078149 107.059097 
L 337.368713 93.229511 
L 337.659277 94.822841 
L 338.240404 105.786796 
L 338.530967 92.933193 
L 339.112094 112.731248 
L 339.402658 108.314295 
L 339.983785 133.449382 
L 340.564912 118.913185 
L 341.436602 142.574114 
L 342.017729 120.998449 
L 342.308293 119.334889 
L 342.598856 115.452291 
L 342.88942 91.08902 
L 343.179983 95.037339 
L 343.470547 95.659863 
L 343.76111 86.241933 
L 344.051674 81.924907 
L 344.342237 109.727118 
L 344.923364 103.435621 
L 345.213928 94.270789 
L 345.504491 96.209247 
L 345.795055 112.666069 
L 346.085618 121.996245 
L 346.666746 100.880699 
L 346.957309 101.566315 
L 347.247873 98.699819 
L 347.538436 92.433098 
L 347.829 96.613143 
L 348.119563 105.77838 
L 348.410127 95.204844 
L 348.70069 106.608325 
L 348.991254 108.807005 
L 349.281817 119.073836 
L 349.862944 94.768428 
L 350.153508 91.26778 
L 350.444071 86.380873 
L 350.734635 72.855988 
L 351.025198 73.345955 
L 351.315762 93.045229 
L 351.606325 95.830533 
L 351.896889 95.027929 
L 352.478016 115.318875 
L 352.768579 137.847314 
L 353.349706 143.941229 
L 353.64027 140.972558 
L 353.930833 129.254643 
L 354.221397 138.604338 
L 354.51196 126.99935 
L 354.802524 129.021682 
L 355.093087 128.77292 
L 355.383651 122.073159 
L 355.674215 128.25555 
L 355.964778 115.22128 
L 356.255342 122.112074 
L 356.545905 121.239583 
L 356.836469 113.497148 
L 357.127032 115.282123 
L 357.417596 127.333533 
L 357.998723 86.052808 
L 358.289286 92.741762 
L 358.57985 102.001001 
L 358.870413 114.928206 
L 359.160977 108.47931 
L 359.45154 119.186732 
L 359.742104 105.635151 
L 360.032667 106.411918 
L 360.323231 103.259758 
L 360.613794 104.953312 
L 360.904358 97.751264 
L 361.194921 119.116205 
L 361.485485 117.864994 
L 362.066612 104.048255 
L 362.357175 93.960288 
L 362.647739 115.139201 
L 362.938302 107.772784 
L 363.228866 106.2999 
L 363.519429 90.728421 
L 363.809993 94.271449 
L 364.100556 85.213987 
L 364.681683 91.795237 
L 364.972247 83.756583 
L 365.843938 115.947909 
L 366.425065 88.554714 
L 366.715628 100.094734 
L 367.006192 97.973655 
L 367.296755 102.762319 
L 367.587319 84.377257 
L 367.877882 92.474066 
L 368.168446 105.519296 
L 368.459009 103.64109 
L 368.749573 104.32747 
L 369.040136 97.071232 
L 369.621263 92.895531 
L 369.911827 97.463714 
L 370.20239 104.108167 
L 370.492954 101.035813 
L 370.783517 126.753826 
L 371.074081 125.583737 
L 371.364644 138.325164 
L 371.655208 132.190026 
L 371.945771 105.783654 
L 372.236335 99.025162 
L 372.526898 103.862142 
L 372.817462 88.476507 
L 373.108025 93.368436 
L 373.398589 86.962814 
L 373.689152 90.296634 
L 373.979716 79.855845 
L 374.27028 95.960337 
L 374.560843 93.233311 
L 374.851407 91.801138 
L 375.14197 97.696453 
L 375.432534 100.995897 
L 375.723097 102.749063 
L 376.013661 102.191204 
L 376.304224 94.718134 
L 376.594788 109.741814 
L 376.885351 110.04702 
L 377.175915 106.004211 
L 377.466478 113.149887 
L 377.757042 109.612628 
L 378.047605 92.469154 
L 378.338169 92.960639 
L 378.628732 102.999401 
L 378.919296 103.934291 
L 379.209859 113.230603 
L 379.790986 88.891418 
L 380.08155 96.38018 
L 380.662677 105.290421 
L 380.95324 101.749248 
L 381.243804 85.092588 
L 381.534367 93.601404 
L 381.824931 96.425468 
L 382.115494 92.626383 
L 382.406058 109.591718 
L 382.696621 105.133092 
L 382.987185 98.271044 
L 383.568312 93.300059 
L 383.858876 94.016866 
L 384.149439 111.656336 
L 384.440003 103.798418 
L 385.602257 129.238703 
L 385.89282 114.561192 
L 386.183384 108.648284 
L 386.473947 98.840502 
L 386.764511 84.148757 
L 387.345638 74.68855 
L 387.636201 68.057158 
L 387.926765 78.627217 
L 388.217328 80.06198 
L 388.507892 65.511574 
L 388.798455 59.448562 
L 389.089019 74.916002 
L 389.379582 77.559222 
L 389.670146 71.793625 
L 389.960709 78.292663 
L 390.251273 91.49115 
L 390.541836 83.565174 
L 390.8324 79.913852 
L 391.122963 69.573506 
L 391.413527 72.958347 
L 391.70409 78.002141 
L 392.285218 81.384119 
L 392.575781 92.338381 
L 392.866345 93.374224 
L 393.156908 100.841825 
L 393.447472 69.680102 
L 394.028599 104.132179 
L 394.319162 103.234286 
L 394.609726 87.465317 
L 394.900289 102.770386 
L 395.190853 101.510807 
L 395.481416 105.396883 
L 395.77198 88.05098 
L 396.062543 83.605462 
L 396.353107 83.247903 
L 396.934234 99.193333 
L 397.224797 103.528442 
L 397.805924 91.140523 
L 398.096488 92.877357 
L 398.387051 78.907751 
L 398.677615 93.680869 
L 398.968178 118.51558 
L 399.258742 114.626797 
L 399.839869 88.564978 
L 400.130432 79.92823 
L 400.420996 80.27654 
L 400.711559 81.929968 
L 401.002123 78.885911 
L 401.292687 80.164629 
L 401.58325 83.811602 
L 401.873814 82.367008 
L 402.164377 86.015075 
L 402.454941 85.099624 
L 403.036068 98.252675 
L 403.326631 83.592179 
L 403.617195 84.626678 
L 403.907758 93.359991 
L 404.198322 94.432061 
L 404.488885 106.376324 
L 404.779449 107.151358 
L 405.070012 105.338121 
L 405.651139 113.846345 
L 405.941703 115.48848 
L 406.232266 109.351609 
L 406.52283 112.217491 
L 406.813393 119.743326 
L 407.39452 147.489723 
L 407.685084 152.043293 
L 407.975647 141.687746 
L 408.266211 146.215138 
L 408.556774 140.632486 
L 408.847338 152.147073 
L 409.137901 149.790585 
L 409.428465 132.876948 
L 409.719028 129.271805 
L 410.009592 143.535475 
L 410.300156 148.263927 
L 410.590719 150.206991 
L 410.881283 175.798927 
L 411.46241 161.003069 
L 411.752973 170.731543 
L 412.3341 155.160574 
L 412.3341 155.160574 
" clip-path="url(#p402ac024e5)" style="fill: none; stroke: #ff7f0e; stroke-width: 1.5; stroke-linecap: square"/>
   </g>
   <g id="patch_3">
    <path d="M 107.5475 266.245 
L 107.5475 25.92 
" style="fill: none; stroke: #000000; stroke-width: 0.8; stroke-linejoin: miter; stroke-linecap: square"/>
   </g>
   <g id="patch_4">
    <path d="M 426.847748 266.245 
L 426.847748 25.92 
" style="fill: none; stroke: #000000; stroke-width: 0.8; stroke-linejoin: miter; stroke-linecap: square"/>
   </g>
   <g id="patch_5">
    <path d="M 107.5475 266.245 
L 426.847748 266.245 
" style="fill: none; stroke: #000000; stroke-width: 0.8; stroke-linejoin: miter; stroke-linecap: square"/>
   </g>
   <g id="patch_6">
    <path d="M 107.5475 25.92 
L 426.847748 25.92 
" style="fill: none; stroke: #000000; stroke-width: 0.8; stroke-linejoin: miter; stroke-linecap: square"/>
   </g>
  </g>
 </g>
 <defs>
  <clipPath id="p402ac024e5">
   <rect x="107.5475" y="25.92" width="319.300248" height="240.325"/>
  </clipPath>
 </defs>
</svg>
