<?xml version="1.0" encoding="utf-8" standalone="no"?>
<!DOCTYPE svg PUBLIC "-//W3C//DTD SVG 1.1//EN"
  "http://www.w3.org/Graphics/SVG/1.1/DTD/svg11.dtd">
<svg xmlns:xlink="http://www.w3.org/1999/xlink" width="460.8pt" height="345.6pt" viewBox="0 0 460.8 345.6" xmlns="http://www.w3.org/2000/svg" version="1.1">
 <metadata>
  <rdf:RDF xmlns:dc="http://purl.org/dc/elements/1.1/" xmlns:cc="http://creativecommons.org/ns#" xmlns:rdf="http://www.w3.org/1999/02/22-rdf-syntax-ns#">
   <cc:Work>
    <dc:type rdf:resource="http://purl.org/dc/dcmitype/StillImage"/>
    <dc:date>2025-11-23T18:31:02.402606</dc:date>
    <dc:format>image/svg+xml</dc:format>
    <dc:creator>
     <cc:Agent>
      <dc:title>Matplotlib v3.10.6, https://matplotlib.org/</dc:title>
     </cc:Agent>
    </dc:creator>
   </cc:Work>
  </rdf:RDF>
 </metadata>
 <defs>
  <style type="text/css">*{stroke-linejoin: round; stroke-linecap: butt}</style>
 </defs>
 <g id="figure_1">
  <g id="patch_1">
   <path d="M 0 345.6 
L 460.8 345.6 
L 460.8 0 
L 0 0 
z
" style="fill: #ffffff"/>
  </g>
  <g id="axes_1">
   <g id="patch_2">
    <path d="M 57.6 307.584 
L 414.72 307.584 
L 414.72 41.472 
L 57.6 41.472 
z
" style="fill: #ffffff"/>
   </g>
   <g id="matplotlib.axis_1">
    <g id="xtick_1">
     <g id="line2d_1">
      <defs>
       <path id="m05e1c6d934" d="M 0 0 
L 0 3.5 
" style="stroke: #000000; stroke-width: 0.8"/>
      </defs>
      <g>
       <use xlink:href="#m05e1c6d934" x="100.199464" y="307.584" style="stroke: #000000; stroke-width: 0.8"/>
      </g>
     </g>
     <g id="text_1">
      <!-- −200 -->
      <g transform="translate(86.46587 322.182437) scale(0.1 -0.1)">
       <defs>
        <path id="DejaVuSans-2212" d="M 678 2272 
L 4684 2272 
L 4684 1741 
L 678 1741 
L 678 2272 
z
" transform="scale(0.015625)"/>
        <path id="DejaVuSans-32" d="M 1228 531 
L 3431 531 
L 3431 0 
L 469 0 
L 469 531 
Q 828 903 1448 1529 
Q 2069 2156 2228 2338 
Q 2531 2678 2651 2914 
Q 2772 3150 2772 3378 
Q 2772 3750 2511 3984 
Q 2250 4219 1831 4219 
Q 1534 4219 1204 4116 
Q 875 4013 500 3803 
L 500 4441 
Q 881 4594 1212 4672 
Q 1544 4750 1819 4750 
Q 2544 4750 2975 4387 
Q 3406 4025 3406 3419 
Q 3406 3131 3298 2873 
Q 3191 2616 2906 2266 
Q 2828 2175 2409 1742 
Q 1991 1309 1228 531 
z
" transform="scale(0.015625)"/>
        <path id="DejaVuSans-30" d="M 2034 4250 
Q 1547 4250 1301 3770 
Q 1056 3291 1056 2328 
Q 1056 1369 1301 889 
Q 1547 409 2034 409 
Q 2525 409 2770 889 
Q 3016 1369 3016 2328 
Q 3016 3291 2770 3770 
Q 2525 4250 2034 4250 
z
M 2034 4750 
Q 2819 4750 3233 4129 
Q 3647 3509 3647 2328 
Q 3647 1150 3233 529 
Q 2819 -91 2034 -91 
Q 1250 -91 836 529 
Q 422 1150 422 2328 
Q 422 3509 836 4129 
Q 1250 4750 2034 4750 
z
" transform="scale(0.015625)"/>
       </defs>
       <use xlink:href="#DejaVuSans-2212"/>
       <use xlink:href="#DejaVuSans-32" transform="translate(83.789062 0)"/>
       <use xlink:href="#DejaVuSans-30" transform="translate(147.412109 0)"/>
       <use xlink:href="#DejaVuSans-30" transform="translate(211.035156 0)"/>
      </g>
     </g>
    </g>
    <g id="xtick_2">
     <g id="line2d_2">
      <g>
       <use xlink:href="#m05e1c6d934" x="142.981476" y="307.584" style="stroke: #000000; stroke-width: 0.8"/>
      </g>
     </g>
     <g id="text_2">
      <!-- −150 -->
      <g transform="translate(129.247883 322.182437) scale(0.1 -0.1)">
       <defs>
        <path id="DejaVuSans-31" d="M 794 531 
L 1825 531 
L 1825 4091 
L 703 3866 
L 703 4441 
L 1819 4666 
L 2450 4666 
L 2450 531 
L 3481 531 
L 3481 0 
L 794 0 
L 794 531 
z
" transform="scale(0.015625)"/>
        <path id="DejaVuSans-35" d="M 691 4666 
L 3169 4666 
L 3169 4134 
L 1269 4134 
L 1269 2991 
Q 1406 3038 1543 3061 
Q 1681 3084 1819 3084 
Q 2600 3084 3056 2656 
Q 3513 2228 3513 1497 
Q 3513 744 3044 326 
Q 2575 -91 1722 -91 
Q 1428 -91 1123 -41 
Q 819 9 494 109 
L 494 744 
Q 775 591 1075 516 
Q 1375 441 1709 441 
Q 2250 441 2565 725 
Q 2881 1009 2881 1497 
Q 2881 1984 2565 2268 
Q 2250 2553 1709 2553 
Q 1456 2553 1204 2497 
Q 953 2441 691 2322 
L 691 4666 
z
" transform="scale(0.015625)"/>
       </defs>
       <use xlink:href="#DejaVuSans-2212"/>
       <use xlink:href="#DejaVuSans-31" transform="translate(83.789062 0)"/>
       <use xlink:href="#DejaVuSans-35" transform="translate(147.412109 0)"/>
       <use xlink:href="#DejaVuSans-30" transform="translate(211.035156 0)"/>
      </g>
     </g>
    </g>
    <g id="xtick_3">
     <g id="line2d_3">
      <g>
       <use xlink:href="#m05e1c6d934" x="185.763489" y="307.584" style="stroke: #000000; stroke-width: 0.8"/>
      </g>
     </g>
     <g id="text_3">
      <!-- −100 -->
      <g transform="translate(172.029895 322.182437) scale(0.1 -0.1)">
       <use xlink:href="#DejaVuSans-2212"/>
       <use xlink:href="#DejaVuSans-31" transform="translate(83.789062 0)"/>
       <use xlink:href="#DejaVuSans-30" transform="translate(147.412109 0)"/>
       <use xlink:href="#DejaVuSans-30" transform="translate(211.035156 0)"/>
      </g>
     </g>
    </g>
    <g id="xtick_4">
     <g id="line2d_4">
      <g>
       <use xlink:href="#m05e1c6d934" x="228.545502" y="307.584" style="stroke: #000000; stroke-width: 0.8"/>
      </g>
     </g>
     <g id="text_4">
      <!-- −50 -->
      <g transform="translate(217.993158 322.182437) scale(0.1 -0.1)">
       <use xlink:href="#DejaVuSans-2212"/>
       <use xlink:href="#DejaVuSans-35" transform="translate(83.789062 0)"/>
       <use xlink:href="#DejaVuSans-30" transform="translate(147.412109 0)"/>
      </g>
     </g>
    </g>
    <g id="xtick_5">
     <g id="line2d_5">
      <g>
       <use xlink:href="#m05e1c6d934" x="271.327515" y="307.584" style="stroke: #000000; stroke-width: 0.8"/>
      </g>
     </g>
     <g id="text_5">
      <!-- 0 -->
      <g transform="translate(268.146265 322.182437) scale(0.1 -0.1)">
       <use xlink:href="#DejaVuSans-30"/>
      </g>
     </g>
    </g>
    <g id="xtick_6">
     <g id="line2d_6">
      <g>
       <use xlink:href="#m05e1c6d934" x="314.109527" y="307.584" style="stroke: #000000; stroke-width: 0.8"/>
      </g>
     </g>
     <g id="text_6">
      <!-- 50 -->
      <g transform="translate(307.747027 322.182437) scale(0.1 -0.1)">
       <use xlink:href="#DejaVuSans-35"/>
       <use xlink:href="#DejaVuSans-30" transform="translate(63.623047 0)"/>
      </g>
     </g>
    </g>
    <g id="xtick_7">
     <g id="line2d_7">
      <g>
       <use xlink:href="#m05e1c6d934" x="356.89154" y="307.584" style="stroke: #000000; stroke-width: 0.8"/>
      </g>
     </g>
     <g id="text_7">
      <!-- 100 -->
      <g transform="translate(347.34779 322.182437) scale(0.1 -0.1)">
       <use xlink:href="#DejaVuSans-31"/>
       <use xlink:href="#DejaVuSans-30" transform="translate(63.623047 0)"/>
       <use xlink:href="#DejaVuSans-30" transform="translate(127.246094 0)"/>
      </g>
     </g>
    </g>
    <g id="xtick_8">
     <g id="line2d_8">
      <g>
       <use xlink:href="#m05e1c6d934" x="399.673553" y="307.584" style="stroke: #000000; stroke-width: 0.8"/>
      </g>
     </g>
     <g id="text_8">
      <!-- 150 -->
      <g transform="translate(390.129803 322.182437) scale(0.1 -0.1)">
       <use xlink:href="#DejaVuSans-31"/>
       <use xlink:href="#DejaVuSans-35" transform="translate(63.623047 0)"/>
       <use xlink:href="#DejaVuSans-30" transform="translate(127.246094 0)"/>
      </g>
     </g>
    </g>
   </g>
   <g id="matplotlib.axis_2">
    <g id="ytick_1">
     <g id="line2d_9">
      <defs>
       <path id="me9805df6c6" d="M 0 0 
L -3.5 0 
" style="stroke: #000000; stroke-width: 0.8"/>
      </defs>
      <g>
       <use xlink:href="#me9805df6c6" x="57.6" y="295.083514" style="stroke: #000000; stroke-width: 0.8"/>
      </g>
     </g>
     <g id="text_9">
      <!-- 0 -->
      <g transform="translate(44.2375 298.882733) scale(0.1 -0.1)">
       <use xlink:href="#DejaVuSans-30"/>
      </g>
     </g>
    </g>
    <g id="ytick_2">
     <g id="line2d_10">
      <g>
       <use xlink:href="#me9805df6c6" x="57.6" y="260.140499" style="stroke: #000000; stroke-width: 0.8"/>
      </g>
     </g>
     <g id="text_10">
      <!-- 50 -->
      <g transform="translate(37.875 263.939718) scale(0.1 -0.1)">
       <use xlink:href="#DejaVuSans-35"/>
       <use xlink:href="#DejaVuSans-30" transform="translate(63.623047 0)"/>
      </g>
     </g>
    </g>
    <g id="ytick_3">
     <g id="line2d_11">
      <g>
       <use xlink:href="#me9805df6c6" x="57.6" y="225.197484" style="stroke: #000000; stroke-width: 0.8"/>
      </g>
     </g>
     <g id="text_11">
      <!-- 100 -->
      <g transform="translate(31.5125 228.996703) scale(0.1 -0.1)">
       <use xlink:href="#DejaVuSans-31"/>
       <use xlink:href="#DejaVuSans-30" transform="translate(63.623047 0)"/>
       <use xlink:href="#DejaVuSans-30" transform="translate(127.246094 0)"/>
      </g>
     </g>
    </g>
    <g id="ytick_4">
     <g id="line2d_12">
      <g>
       <use xlink:href="#me9805df6c6" x="57.6" y="190.25447" style="stroke: #000000; stroke-width: 0.8"/>
      </g>
     </g>
     <g id="text_12">
      <!-- 150 -->
      <g transform="translate(31.5125 194.053688) scale(0.1 -0.1)">
       <use xlink:href="#DejaVuSans-31"/>
       <use xlink:href="#DejaVuSans-35" transform="translate(63.623047 0)"/>
       <use xlink:href="#DejaVuSans-30" transform="translate(127.246094 0)"/>
      </g>
     </g>
    </g>
    <g id="ytick_5">
     <g id="line2d_13">
      <g>
       <use xlink:href="#me9805df6c6" x="57.6" y="155.311455" style="stroke: #000000; stroke-width: 0.8"/>
      </g>
     </g>
     <g id="text_13">
      <!-- 200 -->
      <g transform="translate(31.5125 159.110674) scale(0.1 -0.1)">
       <use xlink:href="#DejaVuSans-32"/>
       <use xlink:href="#DejaVuSans-30" transform="translate(63.623047 0)"/>
       <use xlink:href="#DejaVuSans-30" transform="translate(127.246094 0)"/>
      </g>
     </g>
    </g>
    <g id="ytick_6">
     <g id="line2d_14">
      <g>
       <use xlink:href="#me9805df6c6" x="57.6" y="120.36844" style="stroke: #000000; stroke-width: 0.8"/>
      </g>
     </g>
     <g id="text_14">
      <!-- 250 -->
      <g transform="translate(31.5125 124.167659) scale(0.1 -0.1)">
       <use xlink:href="#DejaVuSans-32"/>
       <use xlink:href="#DejaVuSans-35" transform="translate(63.623047 0)"/>
       <use xlink:href="#DejaVuSans-30" transform="translate(127.246094 0)"/>
      </g>
     </g>
    </g>
    <g id="ytick_7">
     <g id="line2d_15">
      <g>
       <use xlink:href="#me9805df6c6" x="57.6" y="85.425425" style="stroke: #000000; stroke-width: 0.8"/>
      </g>
     </g>
     <g id="text_15">
      <!-- 300 -->
      <g transform="translate(31.5125 89.224644) scale(0.1 -0.1)">
       <defs>
        <path id="DejaVuSans-33" d="M 2597 2516 
Q 3050 2419 3304 2112 
Q 3559 1806 3559 1356 
Q 3559 666 3084 287 
Q 2609 -91 1734 -91 
Q 1441 -91 1130 -33 
Q 819 25 488 141 
L 488 750 
Q 750 597 1062 519 
Q 1375 441 1716 441 
Q 2309 441 2620 675 
Q 2931 909 2931 1356 
Q 2931 1769 2642 2001 
Q 2353 2234 1838 2234 
L 1294 2234 
L 1294 2753 
L 1863 2753 
Q 2328 2753 2575 2939 
Q 2822 3125 2822 3475 
Q 2822 3834 2567 4026 
Q 2313 4219 1838 4219 
Q 1578 4219 1281 4162 
Q 984 4106 628 3988 
L 628 4550 
Q 988 4650 1302 4700 
Q 1616 4750 1894 4750 
Q 2613 4750 3031 4423 
Q 3450 4097 3450 3541 
Q 3450 3153 3228 2886 
Q 3006 2619 2597 2516 
z
" transform="scale(0.015625)"/>
       </defs>
       <use xlink:href="#DejaVuSans-33"/>
       <use xlink:href="#DejaVuSans-30" transform="translate(63.623047 0)"/>
       <use xlink:href="#DejaVuSans-30" transform="translate(127.246094 0)"/>
      </g>
     </g>
    </g>
    <g id="ytick_8">
     <g id="line2d_16">
      <g>
       <use xlink:href="#me9805df6c6" x="57.6" y="50.482411" style="stroke: #000000; stroke-width: 0.8"/>
      </g>
     </g>
     <g id="text_16">
      <!-- 350 -->
      <g transform="translate(31.5125 54.281629) scale(0.1 -0.1)">
       <use xlink:href="#DejaVuSans-33"/>
       <use xlink:href="#DejaVuSans-35" transform="translate(63.623047 0)"/>
       <use xlink:href="#DejaVuSans-30" transform="translate(127.246094 0)"/>
      </g>
     </g>
    </g>
   </g>
   <g id="line2d_17">
    <path d="M 271.327515 295.083514 
L 270.890116 295.117421 
L 270.316233 294.967624 
L 270.833873 295.236317 
L 270.961921 294.854663 
L 270.700013 294.798297 
L 269.588554 295.351569 
L 268.781861 295.488 
L 267.966421 295.366569 
L 264.201145 295.249332 
L 263.113256 294.335863 
L 261.432802 294.18711 
L 260.224757 293.810276 
L 258.41771 292.836916 
L 257.042964 292.4302 
L 255.611852 291.213369 
L 252.503814 291.262223 
L 250.047504 291.093602 
L 248.21033 290.180241 
L 247.254774 289.482767 
L 245.830835 288.61393 
L 244.30424 287.938378 
L 242.335109 287.939953 
L 241.224157 288.936113 
L 240.061001 289.181109 
L 238.718582 288.893147 
L 238.473587 288.457129 
L 237.176037 287.844297 
L 237.143565 286.192488 
L 236.447663 284.334906 
L 236.184724 282.618972 
L 235.628504 281.52595 
L 236.292048 281.27194 
L 237.256386 280.529563 
L 238.05259 279.672914 
L 238.865434 279.427662 
L 240.137324 278.500718 
L 240.422571 277.3596 
L 240.27461 276.169228 
L 239.829715 275.127584 
L 240.737313 272.924375 
L 239.983948 272.134518 
L 239.907132 271.317073 
L 239.12671 271.271225 
L 238.581662 270.998444 
L 237.373704 271.118418 
L 236.215999 270.28695 
L 235.205539 269.138603 
L 232.946506 268.884377 
L 231.818863 268.034183 
L 229.952383 267.251479 
L 229.140247 266.157688 
L 228.427089 264.833782 
L 227.514486 263.458206 
L 225.942296 262.413736 
L 225.101027 261.310135 
L 222.868197 261.179991 
L 222.34271 260.839463 
L 221.869728 260.318392 
L 221.071953 260.239961 
L 220.121247 259.694955 
L 220.506561 259.424638 
L 220.087979 258.666974 
L 219.539247 256.195902 
L 218.771321 255.570566 
L 217.982668 254.080934 
L 217.16695 253.426533 
L 213.82078 253.331872 
L 212.189895 253.683533 
L 210.677042 255.023351 
L 209.558925 255.822652 
L 208.80568 255.988962 
L 207.724836 255.557677 
L 204.677381 253.522433 
L 200.938081 252.770027 
L 199.211522 252.512504 
L 198.671903 252.181201 
L 198.569616 251.333004 
L 198.165421 250.789801 
L 196.792066 249.661301 
L 196.408686 249.008431 
L 195.893739 249.507895 
L 195.11796 249.01466 
L 193.780205 248.708644 
L 193.279139 249.089375 
L 191.452323 248.630087 
L 189.809463 248.80948 
L 188.477201 248.570611 
L 182.744425 248.286872 
L 182.409305 248.193328 
L 181.522642 248.617293 
L 180.064896 248.635217 
L 179.144657 248.202358 
L 176.92606 246.756778 
L 175.341885 246.578575 
L 175.222494 246.769243 
L 174.004476 246.340911 
L 169.353748 245.917025 
L 167.418185 245.740651 
L 166.415305 244.938254 
L 164.784442 243.814402 
L 163.391818 242.534068 
L 162.543998 241.042314 
L 161.524493 239.525222 
L 160.52812 238.644245 
L 159.150392 237.711534 
L 157.250812 236.877423 
L 155.62087 235.861153 
L 154.758 235.119089 
L 152.622119 234.178937 
L 151.491462 234.568494 
L 151.371925 235.01735 
L 150.105467 235.079862 
L 149.920097 234.903232 
L 149.597702 234.419684 
L 147.40442 232.146405 
L 142.726218 230.73305 
L 140.675224 230.553743 
L 139.4735 229.57613 
L 139.116059 228.699868 
L 138.611355 227.668148 
L 138.970502 226.06288 
L 138.723719 225.224601 
L 139.11478 224.423199 
L 138.760984 223.385184 
L 138.814029 222.467362 
L 139.301081 221.822182 
L 139.550155 220.647966 
L 139.95066 220.618304 
L 140.065915 219.273136 
L 140.945858 218.396976 
L 142.973055 217.534171 
L 143.849162 216.449801 
L 144.369002 214.97908 
L 145.390968 213.724603 
L 146.592692 211.867483 
L 146.845573 211.010049 
L 145.136929 211.418507 
L 144.287531 211.293665 
L 144.646869 210.973692 
L 144.535422 211.662844 
L 143.225033 211.806676 
L 141.707382 212.152845 
L 140.530309 211.601678 
L 139.935191 210.946009 
L 139.883693 211.399955 
L 140.675546 212.199611 
L 141.012788 211.972047 
L 141.533946 212.503552 
L 141.86304 213.435456 
L 141.978866 213.644819 
L 141.938677 213.696712 
L 141.128086 214.323105 
L 140.206405 213.82108 
L 139.477127 214.275816 
L 138.863157 214.134592 
L 137.29329 214.318471 
L 135.812869 213.244664 
L 133.992128 213.123778 
L 133.449683 213.431767 
L 132.683051 214.364997 
L 132.572646 214.245766 
L 132.942631 213.80697 
L 132.335073 211.614551 
L 131.97944 210.526132 
L 130.860604 209.745246 
L 130.769033 208.991907 
L 129.856965 208.178679 
L 129.279143 207.277554 
L 128.317352 206.109812 
L 127.316809 205.397704 
L 125.877562 204.797949 
L 126.112195 204.5958 
L 125.771525 204.033748 
L 125.587911 202.861794 
L 125.825892 200.201867 
L 125.644104 199.442828 
L 125.243937 198.783664 
L 124.837746 197.867955 
L 123.824795 196.915434 
L 122.92647 196.453366 
L 122.534839 195.898343 
L 121.043005 194.412172 
L 121.332011 194.716267 
L 121.597847 194.443237 
L 122.539817 194.818533 
L 121.936301 195.704313 
L 121.233916 196.473577 
L 120.196103 198.240678 
L 119.844637 199.532933 
L 120.254214 200.902828 
L 121.365125 202.221565 
L 121.937727 203.86792 
L 122.564547 204.544578 
L 123.115074 205.492053 
L 123.750722 206.182377 
L 124.035085 206.226435 
L 123.769852 206.805543 
L 123.899028 206.726625 
L 123.349918 206.738277 
L 123.997241 206.758415 
L 124.368198 207.173365 
L 124.573174 207.736961 
L 126.471673 207.646324 
L 126.236554 207.214405 
L 126.189787 207.432009 
L 125.113305 207.317629 
L 124.425849 206.822968 
L 123.932666 205.867873 
L 124.084068 204.864671 
L 124.063131 201.891574 
L 123.279397 200.540579 
L 121.779453 199.226306 
L 120.860709 197.615283 
L 121.122357 195.477051 
L 120.119232 194.176232 
L 120.263556 193.19805 
L 119.818735 191.895808 
L 119.079408 191.023134 
L 118.497555 189.70114 
L 116.380989 188.420831 
L 113.940691 188.219388 
L 113.056891 187.772123 
L 111.913265 187.431611 
L 111.520596 187.452546 
L 109.663324 187.178642 
L 107.028991 186.410488 
L 104.727943 186.085381 
L 103.129383 186.033295 
L 101.824422 185.368932 
L 101.042076 184.530597 
L 100.430218 183.126674 
L 99.593162 182.014866 
L 97.983002 180.661247 
L 97.444981 179.709116 
L 96.376482 179.110834 
L 96.221337 178.490393 
L 95.569132 177.37093 
L 94.699262 176.394784 
L 94.247659 176.526416 
L 91.307791 176.28189 
L 89.638315 176.89348 
L 87.254188 176.147085 
L 85.769703 175.445334 
L 85.017342 174.841723 
L 83.799049 174.561078 
L 82.320758 174.677997 
L 81.441056 175.136113 
L 80.531541 175.409937 
L 79.154928 176.332448 
L 77.790851 176.230098 
L 75.740069 175.934622 
L 75.048727 176.03737 
L 75.009438 175.737448 
L 73.832727 175.48554 
L 73.943021 175.447786 
L 74.266858 175.827194 
L 75.026596 175.845846 
L 74.317241 175.25917 
L 74.445929 175.250382 
L 74.744846 174.930341 
L 74.500823 174.924427 
L 74.036587 174.481567 
L 74.317972 173.895982 
L 74.74567 173.848911 
L 75.128387 173.25514 
L 75.523311 173.268361 
L 76.25719 173.121203 
L 77.02867 171.651061 
L 77.701077 171.31854 
L 78.41599 171.130221 
L 78.622795 170.686621 
L 79.416253 170.393881 
L 80.165044 169.811369 
L 80.944818 169.371854 
L 81.725969 168.717155 
L 82.526779 168.666094 
L 83.781661 167.955226 
L 84.961572 166.945166 
L 85.742278 166.785194 
L 86.558414 166.807903 
L 87.124548 166.384218 
L 87.62886 165.762411 
L 88.327437 165.07989 
L 89.79571 164.304283 
L 90.059159 162.816653 
L 94.141886 158.089527 
L 95.333587 156.544458 
L 96.680947 155.024604 
L 98.645925 153.210242 
L 100.592239 151.614693 
L 102.121371 150.6973 
L 104.199375 149.689463 
L 107.300255 146.092795 
L 108.293988 144.792526 
L 108.945119 143.742634 
L 109.898125 142.990833 
L 111.186781 143.006711 
L 112.573275 142.69144 
L 115.44596 141.556564 
L 117.663911 140.393555 
L 119.161497 140.173759 
L 121.196839 140.352127 
L 122.871061 139.596854 
L 125.332619 139.29586 
L 127.240648 138.662681 
L 128.835526 137.60625 
L 130.646575 136.558684 
L 131.698043 135.402879 
L 132.816966 134.871206 
L 134.670053 134.408767 
L 135.941422 133.839354 
L 136.402983 134.388612 
L 135.909653 134.201305 
L 135.832077 133.761153 
L 137.353916 133.722927 
L 138.567868 133.869237 
L 139.556185 133.684396 
L 141.479071 134.572395 
L 142.47262 134.338248 
L 143.122685 134.312576 
L 143.477639 134.741094 
L 143.937079 134.513458 
L 144.779455 134.5982 
L 145.184817 133.91147 
L 145.983865 133.215809 
L 147.384302 133.066063 
L 149.686232 133.210705 
L 150.956848 132.539622 
L 151.741544 132.296147 
L 152.823129 130.293614 
L 153.071329 129.304622 
L 153.107784 128.539382 
L 153.56673 128.081496 
L 155.907374 127.315405 
L 157.102753 126.151552 
L 158.171734 125.692441 
L 158.939271 124.80585 
L 159.17357 124.325934 
L 160.090876 124.493217 
L 161.462938 124.178734 
L 162.173576 123.538277 
L 163.444988 123.669612 
L 164.374647 124.30127 
L 165.272951 124.170973 
L 165.995969 123.855157 
L 168.691299 123.708573 
L 169.673599 123.615094 
L 172.228635 123.669097 
L 171.756375 123.81655 
L 171.883625 123.909555 
L 172.420046 124.0941 
L 173.860656 123.758389 
L 174.960487 123.678036 
L 175.217585 124.448973 
L 175.073755 124.944956 
L 175.385458 124.997172 
L 178.28058 124.990884 
L 179.687492 125.586877 
L 182.397188 125.605267 
L 182.248072 126.18433 
L 185.965666 127.598392 
L 186.833152 127.783294 
L 187.140904 127.310371 
L 188.563127 126.922751 
L 187.615153 126.585035 
L 187.960404 126.505284 
L 188.542897 125.859226 
L 188.721566 125.481176 
L 188.542044 124.999521 
L 188.289637 125.093645 
L 188.407659 125.693573 
L 191.415626 125.802233 
L 193.230495 125.893045 
L 195.948236 126.592371 
L 197.68602 126.598286 
L 200.768555 127.556629 
L 202.56353 128.642004 
L 204.234965 129.312678 
L 206.01366 130.463326 
L 207.977343 132.012705 
L 211.639088 133.116082 
L 212.658905 134.006962 
L 217.5117 136.304434 
L 217.779877 136.767596 
L 218.415263 137.305341 
L 221.574656 138.925991 
L 221.284057 139.130304 
L 222.234151 139.094693 
L 223.689141 138.925281 
L 224.658006 139.310342 
L 225.531389 139.918187 
L 226.771756 140.404507 
L 229.071703 140.674328 
L 230.387862 141.579299 
L 231.316527 142.062265 
L 232.743414 141.973896 
L 234.804019 142.52353 
L 236.356844 143.074812 
L 237.750792 142.902739 
L 239.53726 142.480465 
L 241.937892 142.245374 
L 242.917637 142.309327 
L 244.469345 141.991579 
L 247.961381 142.766721 
L 251.3372 142.718904 
L 252.88517 143.334741 
L 254.520002 144.31843 
L 256.328016 144.879147 
L 257.16895 146.067482 
L 258.952723 146.114117 
L 264.642 147.787426 
L 265.785861 148.39772 
L 268.12246 148.464147 
L 270.162526 148.667754 
L 271.851875 149.158234 
L 273.277139 149.857082 
L 275.579289 149.981745 
L 278.422304 149.956539 
L 280.517809 149.705797 
L 282.229225 149.216773 
L 285.518773 148.490052 
L 290.144583 147.725774 
L 291.49577 146.84146 
L 293.037091 146.447961 
L 295.370003 146.781762 
L 297.681495 146.449372 
L 304.096929 147.199761 
L 305.926342 147.133005 
L 307.548816 146.392761 
L 310.696914 146.073884 
L 311.207896 145.770941 
L 312.240994 144.615865 
L 313.564103 144.360727 
L 315.724637 143.785594 
L 317.487243 143.073498 
L 321.017775 143.314933 
L 323.124907 143.262456 
L 325.329148 143.381695 
L 327.864281 143.696645 
L 330.326771 144.233696 
L 334.421118 145.457973 
L 335.923289 145.333764 
L 336.763706 144.692897 
L 338.694217 143.459083 
L 339.405471 142.849362 
L 340.751617 142.515155 
L 342.24818 141.977748 
L 343.40395 141.308111 
L 344.544948 140.425151 
L 347.296873 139.337541 
L 348.895773 138.345283 
L 352.1394 136.565128 
L 353.360221 135.6215 
L 354.266409 135.574423 
L 354.721421 136.094991 
L 357.079581 136.504368 
L 360.144944 137.287279 
L 362.609187 137.19501 
L 365.255752 136.752589 
L 367.835507 136.961006 
L 369.710529 136.536469 
L 371.814766 136.97754 
L 374.110138 137.637521 
L 377.62789 139.724963 
L 378.619144 140.685875 
L 380.688347 143.853971 
L 381.79841 144.823 
L 382.497029 145.116142 
L 384.655196 144.703479 
L 386.450845 143.991758 
L 388.291284 142.733454 
L 389.104066 142.009019 
L 390.504908 141.225159 
L 391.335544 140.423315 
L 391.919836 139.490945 
L 392.41926 137.700982 
L 392.158968 137.331707 
L 392.588257 137.342198 
L 393.448139 137.800664 
L 394.596211 138.173769 
L 394.511343 138.132547 
L 394.159428 137.822848 
L 394.639206 136.867826 
L 394.545479 136.204585 
L 395.228933 136.340745 
L 395.415228 136.251232 
L 395.961087 136.207939 
L 396.736098 136.868427 
L 397.847037 136.761855 
L 398.487273 136.295826 
L 397.990436 136.517346 
L 397.285626 136.317849 
L 396.859827 135.687398 
L 396.487651 135.429594 
L 395.958345 135.780441 
L 396.415601 135.774428 
L 395.74291 135.94858 
L 395.438374 137.023713 
L 394.807231 137.762288 
L 394.10158 138.04108 
L 392.786258 138.407869 
L 390.752053 138.71988 
L 389.110206 138.828123 
L 385.901238 138.422469 
L 384.774525 136.797052 
L 384.635289 135.500559 
L 384.8947 134.343919 
L 384.790399 133.274667 
L 384.922154 132.664939 
L 384.051134 131.624463 
L 384.040022 130.978478 
L 383.746101 130.951335 
L 382.128377 131.198942 
L 380.962219 131.025048 
L 381.27119 130.536218 
L 381.968821 130.519081 
L 382.027059 130.35931 
L 382.130019 130.637123 
L 382.263752 130.629735 
L 381.934353 130.87788 
L 381.018575 131.191682 
L 381.023194 131.729702 
L 380.540929 130.946206 
L 379.778367 130.999831 
L 379.861085 131.231245 
L 379.984988 131.240901 
L 379.8289 131.032086 
L 378.354987 131.655764 
L 377.430099 132.125925 
L 377.449279 132.420689 
L 376.607829 132.175721 
L 376.173852 131.558158 
L 375.160033 131.687435 
L 374.690948 131.609814 
L 374.607144 131.127563 
L 374.823348 130.606837 
L 374.864326 129.467547 
L 374.297252 129.044738 
L 374.610482 128.413101 
L 373.463556 128.582702 
L 371.798539 127.233788 
L 370.500358 127.233658 
L 369.974018 126.682277 
L 369.945688 126.148541 
L 366.479356 126.453588 
L 366.168416 126.957331 
L 365.734443 127.189478 
L 365.789902 127.334618 
L 365.708838 127.845796 
L 365.510385 128.327656 
L 365.09091 128.892957 
L 365.638007 128.542164 
L 366.363651 128.717408 
L 367.520849 128.842531 
L 368.27514 128.641416 
L 367.912123 128.445236 
L 367.574749 128.029018 
L 367.07613 128.503389 
L 367.218017 128.656302 
L 366.761268 129.139733 
L 366.340949 128.965134 
L 366.6092 129.381727 
L 367.507456 129.354932 
L 368.428908 128.982421 
L 369.829078 129.179633 
L 373.620831 130.495674 
L 373.981767 129.903682 
L 373.461082 129.48565 
L 373.329429 129.000893 
L 373.525697 128.358993 
L 373.251727 128.218847 
L 373.060097 127.852093 
L 372.487173 128.159766 
L 371.199372 127.600581 
L 369.380437 127.631617 
L 368.392117 127.987688 
L 368.06473 128.314177 
L 367.683937 129.093646 
L 368.968864 130.196227 
L 369.10377 129.974665 
L 369.07834 129.790942 
L 368.574562 129.08158 
L 368.051082 128.901112 
L 368.02161 128.245269 
L 368.511276 127.991631 
L 369.48058 127.19573 
L 370.355671 126.645859 
L 371.174624 125.983478 
L 371.571146 124.532885 
L 372.244436 123.963766 
L 374.236914 123.299056 
L 374.095832 122.3607 
L 374.423967 120.959694 
L 374.332235 119.870414 
L 374.45644 119.131977 
L 375.104295 117.900809 
L 375.018748 116.749986 
L 376.597945 116.971667 
L 377.370323 117.611425 
L 377.817924 118.723725 
L 378.617034 118.35461 
L 379.363121 117.861825 
L 379.0618 117.513835 
L 379.096207 117.133131 
L 378.879666 116.725131 
L 379.474393 116.852751 
L 379.152626 117.298783 
L 378.722959 116.983266 
L 378.377375 118.116021 
L 377.943884 119.002876 
L 377.69141 120.168702 
L 378.426096 121.197902 
L 377.290148 122.971747 
L 376.590454 123.463093 
L 376.259938 124.018085 
L 376.470565 124.355792 
L 376.041322 124.988102 
L 375.365778 125.375218 
L 374.428941 126.170511 
L 371.738175 127.487725 
L 370.46355 127.442527 
L 369.747271 128.694715 
L 365.519724 130.839248 
L 363.614814 131.329479 
L 363.006175 131.914955 
L 361.098591 131.024658 
L 360.667225 129.958861 
L 359.73146 129.958004 
L 358.995582 130.458588 
L 357.601825 131.109537 
L 356.395323 132.147894 
L 355.177859 132.761435 
L 354.409413 132.884902 
L 355.101474 132.915491 
L 355.493557 132.791229 
L 355.153055 132.255163 
L 354.629197 132.40986 
L 354.506288 133.001907 
L 354.048449 132.420352 
L 353.498728 132.459234 
L 352.675549 132.339879 
L 352.527473 131.494394 
L 352.159982 131.687897 
L 352.73776 132.127098 
L 353.88008 131.957324 
L 355.378097 132.349681 
L 356.457802 131.664127 
L 357.887937 131.48691 
L 358.652816 130.642898 
L 359.535913 129.495377 
L 359.369757 128.854988 
L 359.875376 128.620479 
L 360.103779 127.846269 
L 361.365147 127.278422 
L 362.229544 126.473148 
L 363.108296 126.001015 
L 360.396641 127.34626 
L 360.100713 127.254205 
L 359.335366 127.215873 
L 358.849965 127.68347 
L 359.099996 128.153416 
L 358.298616 128.744033 
L 358.511239 128.553274 
L 358.452991 128.896563 
L 358.438227 128.844982 
L 358.374854 126.984715 
L 357.82515 126.584764 
L 357.124668 127.020836 
L 357.429231 128.48 
L 357.286177 130.972377 
L 357.174753 131.54765 
L 357.204637 132.544135 
L 356.29854 133.005459 
L 356.344503 133.570142 
L 356.211037 133.787473 
L 357.006947 134.504935 
L 357.681839 134.168405 
L 358.276092 133.433221 
L 359.141489 133.389264 
L 359.366943 133.153848 
L 359.758574 132.409556 
L 360.397945 131.968124 
L 359.896146 131.450877 
L 358.196065 129.429887 
L 358.054018 128.567763 
L 357.704041 128.347501 
L 358.075996 127.735779 
L 357.74194 127.043788 
L 358.093122 126.904062 
L 358.335751 127.388626 
L 357.725615 126.908864 
L 356.502201 126.551498 
L 355.430193 126.360234 
L 354.804419 126.568277 
L 354.85136 126.389116 
L 353.987009 125.64592 
L 352.748298 125.06355 
L 351.477839 124.851836 
L 350.477926 124.954114 
L 349.616194 125.954775 
L 349.010732 127.071831 
L 348.15859 128.125305 
L 346.78865 129.26797 
L 345.972781 129.476518 
L 345.533584 130.219646 
L 345.208871 130.225455 
L 345.433511 129.640597 
L 344.627376 129.748344 
L 343.051274 130.287188 
L 341.879281 129.281157 
L 341.694233 128.498047 
L 342.039065 127.753072 
L 341.475098 127.228136 
L 340.275223 127.066944 
L 340.58553 125.683098 
L 341.054718 124.145771 
L 340.911056 123.218627 
L 339.850746 122.679681 
L 339.310404 122.091805 
L 337.651094 121.641306 
L 336.39087 120.537495 
L 335.894223 119.73435 
L 336.181779 117.645714 
L 335.374848 115.638537 
L 335.550163 115.334038 
L 335.792783 114.521892 
L 335.205698 113.590522 
L 333.04863 111.502006 
L 329.022439 110.60578 
L 327.361576 109.831879 
L 325.949056 109.314922 
L 323.993832 109.869444 
L 323.173697 110.361399 
L 322.533934 110.937434 
L 320.701927 111.663846 
L 320.503566 112.934095 
L 321.262089 114.033502 
L 319.751124 115.444946 
L 318.986759 115.840498 
L 317.349326 116.154707 
L 315.705265 116.350245 
L 315.335397 116.689885 
L 314.823491 117.004143 
L 314.386987 117.646041 
L 314.95341 117.752638 
L 315.713739 118.077491 
L 316.555745 118.071865 
L 317.081445 117.551159 
L 317.001951 116.815408 
L 316.019954 116.571376 
L 315.555991 115.585761 
L 315.727416 114.44141 
L 315.700521 113.305786 
L 316.109113 112.10352 
L 315.443156 111.166898 
L 315.698835 110.993139 
L 315.666023 110.656431 
L 315.997153 108.700984 
L 316.824049 107.678392 
L 317.326281 106.632839 
L 318.490504 105.52529 
L 320.599685 104.387455 
L 323.162238 104.955857 
L 323.504869 104.74943 
L 325.378649 104.879394 
L 326.269429 105.430161 
L 326.90706 104.744086 
L 326.834624 103.873304 
L 327.085027 103.335883 
L 327.030323 102.74562 
L 326.555405 101.453868 
L 327.022187 100.025486 
L 326.648401 99.462889 
L 326.524334 98.414193 
L 325.968931 97.664814 
L 325.006847 96.722878 
L 323.296074 96.361888 
L 321.733878 96.522555 
L 320.932468 96.366081 
L 319.967789 95.286571 
L 318.918937 94.880823 
L 317.857105 94.212131 
L 317.154531 93.893751 
L 315.871465 94.467077 
L 314.740636 93.809092 
L 311.865994 93.082498 
L 309.957382 92.188403 
L 308.54361 92.166669 
L 307.534521 91.403732 
L 306.542376 90.369277 
L 304.959464 89.464019 
L 303.112808 88.043402 
L 300.250448 86.788222 
L 297.574651 83.276882 
L 296.51482 81.921388 
L 295.557417 80.913417 
L 293.522546 80.251052 
L 292.330791 79.253546 
L 290.842394 77.650551 
L 290.765662 76.711588 
L 290.132819 75.671346 
L 289.129551 75.749649 
L 289.145183 75.200845 
L 288.262118 74.658992 
L 287.136862 74.301786 
L 286.757332 73.514517 
L 286.014582 72.539122 
L 284.540295 71.995529 
L 284.233018 71.206307 
L 284.573646 70.543813 
L 284.310189 70.268773 
L 282.502845 70.257313 
L 281.362404 70.064953 
L 280.826084 69.588045 
L 279.76286 69.104185 
L 278.03185 68.723066 
L 277.003558 68.061761 
L 274.080799 67.781449 
L 273.483208 67.536069 
L 272.127147 65.869349 
L 269.577554 64.039906 
L 267.609588 62.486918 
L 266.791202 62.385503 
L 265.965607 62.614648 
L 264.470701 62.492946 
L 263.845545 62.289303 
L 263.292865 61.919804 
L 262.627515 61.866064 
L 260.61084 61.547761 
L 259.269013 60.991268 
L 258.056523 60.855668 
L 256.275105 59.639206 
L 253.279573 58.733882 
L 251.831813 56.781508 
L 251.57909 56.243779 
L 251.991831 56.126309 
L 251.474131 55.250629 
L 250.733502 54.944487 
L 250.712348 54.317866 
L 250.257155 53.821928 
L 249.664123 53.58511 
L 249.664123 53.58511 
" clip-path="url(#pa65e4c3bc3)" style="fill: none; stroke: #1f77b4; stroke-width: 1.5; stroke-linecap: square"/>
   </g>
   <g id="patch_3">
    <path d="M 57.6 307.584 
L 57.6 41.472 
" style="fill: none; stroke: #000000; stroke-width: 0.8; stroke-linejoin: miter; stroke-linecap: square"/>
   </g>
   <g id="patch_4">
    <path d="M 414.72 307.584 
L 414.72 41.472 
" style="fill: none; stroke: #000000; stroke-width: 0.8; stroke-linejoin: miter; stroke-linecap: square"/>
   </g>
   <g id="patch_5">
    <path d="M 57.6 307.584 
L 414.72 307.584 
" style="fill: none; stroke: #000000; stroke-width: 0.8; stroke-linejoin: miter; stroke-linecap: square"/>
   </g>
   <g id="patch_6">
    <path d="M 57.6 41.472 
L 414.72 41.472 
" style="fill: none; stroke: #000000; stroke-width: 0.8; stroke-linejoin: miter; stroke-linecap: square"/>
   </g>
  </g>
 </g>
 <defs>
  <clipPath id="pa65e4c3bc3">
   <rect x="57.6" y="41.472" width="357.12" height="266.112"/>
  </clipPath>
 </defs>
</svg>
