<?xml version="1.0" encoding="utf-8" standalone="no"?>
<!DOCTYPE svg PUBLIC "-//W3C//DTD SVG 1.1//EN"
  "http://www.w3.org/Graphics/SVG/1.1/DTD/svg11.dtd">
<svg xmlns:xlink="http://www.w3.org/1999/xlink" width="460.8pt" height="345.6pt" viewBox="0 0 460.8 345.6" xmlns="http://www.w3.org/2000/svg" version="1.1">
 <metadata>
  <rdf:RDF xmlns:dc="http://purl.org/dc/elements/1.1/" xmlns:cc="http://creativecommons.org/ns#" xmlns:rdf="http://www.w3.org/1999/02/22-rdf-syntax-ns#">
   <cc:Work>
    <dc:type rdf:resource="http://purl.org/dc/dcmitype/StillImage"/>
    <dc:date>2025-11-23T18:31:02.048675</dc:date>
    <dc:format>image/svg+xml</dc:format>
    <dc:creator>
     <cc:Agent>
      <dc:title>Matplotlib v3.10.6, https://matplotlib.org/</dc:title>
     </cc:Agent>
    </dc:creator>
   </cc:Work>
  </rdf:RDF>
 </metadata>
 <defs>
  <style type="text/css">*{stroke-linejoin: round; stroke-linecap: butt}</style>
 </defs>
 <g id="figure_1">
  <g id="patch_1">
   <path d="M 0 345.6 
L 460.8 345.6 
L 460.8 0 
L 0 0 
z
" style="fill: #ffffff"/>
  </g>
  <g id="axes_1">
   <g id="patch_2">
    <path d="M 57.6 307.584 
L 414.72 307.584 
L 414.72 41.472 
L 57.6 41.472 
z
" style="fill: #ffffff"/>
   </g>
   <g id="matplotlib.axis_1">
    <g id="xtick_1">
     <g id="line2d_1">
      <defs>
       <path id="m53a21e4b4e" d="M 0 0 
L 0 3.5 
" style="stroke: #000000; stroke-width: 0.8"/>
      </defs>
      <g>
       <use xlink:href="#m53a21e4b4e" x="73.832727" y="307.584" style="stroke: #000000; stroke-width: 0.8"/>
      </g>
     </g>
     <g id="text_1">
      <!-- 0 -->
      <g transform="translate(70.651477 322.182437) scale(0.1 -0.1)">
       <defs>
        <path id="DejaVuSans-30" d="M 2034 4250 
Q 1547 4250 1301 3770 
Q 1056 3291 1056 2328 
Q 1056 1369 1301 889 
Q 1547 409 2034 409 
Q 2525 409 2770 889 
Q 3016 1369 3016 2328 
Q 3016 3291 2770 3770 
Q 2525 4250 2034 4250 
z
M 2034 4750 
Q 2819 4750 3233 4129 
Q 3647 3509 3647 2328 
Q 3647 1150 3233 529 
Q 2819 -91 2034 -91 
Q 1250 -91 836 529 
Q 422 1150 422 2328 
Q 422 3509 836 4129 
Q 1250 4750 2034 4750 
z
" transform="scale(0.015625)"/>
       </defs>
       <use xlink:href="#DejaVuSans-30"/>
      </g>
     </g>
    </g>
    <g id="xtick_2">
     <g id="line2d_2">
      <g>
       <use xlink:href="#m53a21e4b4e" x="138.828632" y="307.584" style="stroke: #000000; stroke-width: 0.8"/>
      </g>
     </g>
     <g id="text_2">
      <!-- 200 -->
      <g transform="translate(129.284882 322.182437) scale(0.1 -0.1)">
       <defs>
        <path id="DejaVuSans-32" d="M 1228 531 
L 3431 531 
L 3431 0 
L 469 0 
L 469 531 
Q 828 903 1448 1529 
Q 2069 2156 2228 2338 
Q 2531 2678 2651 2914 
Q 2772 3150 2772 3378 
Q 2772 3750 2511 3984 
Q 2250 4219 1831 4219 
Q 1534 4219 1204 4116 
Q 875 4013 500 3803 
L 500 4441 
Q 881 4594 1212 4672 
Q 1544 4750 1819 4750 
Q 2544 4750 2975 4387 
Q 3406 4025 3406 3419 
Q 3406 3131 3298 2873 
Q 3191 2616 2906 2266 
Q 2828 2175 2409 1742 
Q 1991 1309 1228 531 
z
" transform="scale(0.015625)"/>
       </defs>
       <use xlink:href="#DejaVuSans-32"/>
       <use xlink:href="#DejaVuSans-30" transform="translate(63.623047 0)"/>
       <use xlink:href="#DejaVuSans-30" transform="translate(127.246094 0)"/>
      </g>
     </g>
    </g>
    <g id="xtick_3">
     <g id="line2d_3">
      <g>
       <use xlink:href="#m53a21e4b4e" x="203.824537" y="307.584" style="stroke: #000000; stroke-width: 0.8"/>
      </g>
     </g>
     <g id="text_3">
      <!-- 400 -->
      <g transform="translate(194.280787 322.182437) scale(0.1 -0.1)">
       <defs>
        <path id="DejaVuSans-34" d="M 2419 4116 
L 825 1625 
L 2419 1625 
L 2419 4116 
z
M 2253 4666 
L 3047 4666 
L 3047 1625 
L 3713 1625 
L 3713 1100 
L 3047 1100 
L 3047 0 
L 2419 0 
L 2419 1100 
L 313 1100 
L 313 1709 
L 2253 4666 
z
" transform="scale(0.015625)"/>
       </defs>
       <use xlink:href="#DejaVuSans-34"/>
       <use xlink:href="#DejaVuSans-30" transform="translate(63.623047 0)"/>
       <use xlink:href="#DejaVuSans-30" transform="translate(127.246094 0)"/>
      </g>
     </g>
    </g>
    <g id="xtick_4">
     <g id="line2d_4">
      <g>
       <use xlink:href="#m53a21e4b4e" x="268.820442" y="307.584" style="stroke: #000000; stroke-width: 0.8"/>
      </g>
     </g>
     <g id="text_4">
      <!-- 600 -->
      <g transform="translate(259.276692 322.182437) scale(0.1 -0.1)">
       <defs>
        <path id="DejaVuSans-36" d="M 2113 2584 
Q 1688 2584 1439 2293 
Q 1191 2003 1191 1497 
Q 1191 994 1439 701 
Q 1688 409 2113 409 
Q 2538 409 2786 701 
Q 3034 994 3034 1497 
Q 3034 2003 2786 2293 
Q 2538 2584 2113 2584 
z
M 3366 4563 
L 3366 3988 
Q 3128 4100 2886 4159 
Q 2644 4219 2406 4219 
Q 1781 4219 1451 3797 
Q 1122 3375 1075 2522 
Q 1259 2794 1537 2939 
Q 1816 3084 2150 3084 
Q 2853 3084 3261 2657 
Q 3669 2231 3669 1497 
Q 3669 778 3244 343 
Q 2819 -91 2113 -91 
Q 1303 -91 875 529 
Q 447 1150 447 2328 
Q 447 3434 972 4092 
Q 1497 4750 2381 4750 
Q 2619 4750 2861 4703 
Q 3103 4656 3366 4563 
z
" transform="scale(0.015625)"/>
       </defs>
       <use xlink:href="#DejaVuSans-36"/>
       <use xlink:href="#DejaVuSans-30" transform="translate(63.623047 0)"/>
       <use xlink:href="#DejaVuSans-30" transform="translate(127.246094 0)"/>
      </g>
     </g>
    </g>
    <g id="xtick_5">
     <g id="line2d_5">
      <g>
       <use xlink:href="#m53a21e4b4e" x="333.816347" y="307.584" style="stroke: #000000; stroke-width: 0.8"/>
      </g>
     </g>
     <g id="text_5">
      <!-- 800 -->
      <g transform="translate(324.272597 322.182437) scale(0.1 -0.1)">
       <defs>
        <path id="DejaVuSans-38" d="M 2034 2216 
Q 1584 2216 1326 1975 
Q 1069 1734 1069 1313 
Q 1069 891 1326 650 
Q 1584 409 2034 409 
Q 2484 409 2743 651 
Q 3003 894 3003 1313 
Q 3003 1734 2745 1975 
Q 2488 2216 2034 2216 
z
M 1403 2484 
Q 997 2584 770 2862 
Q 544 3141 544 3541 
Q 544 4100 942 4425 
Q 1341 4750 2034 4750 
Q 2731 4750 3128 4425 
Q 3525 4100 3525 3541 
Q 3525 3141 3298 2862 
Q 3072 2584 2669 2484 
Q 3125 2378 3379 2068 
Q 3634 1759 3634 1313 
Q 3634 634 3220 271 
Q 2806 -91 2034 -91 
Q 1263 -91 848 271 
Q 434 634 434 1313 
Q 434 1759 690 2068 
Q 947 2378 1403 2484 
z
M 1172 3481 
Q 1172 3119 1398 2916 
Q 1625 2713 2034 2713 
Q 2441 2713 2670 2916 
Q 2900 3119 2900 3481 
Q 2900 3844 2670 4047 
Q 2441 4250 2034 4250 
Q 1625 4250 1398 4047 
Q 1172 3844 1172 3481 
z
" transform="scale(0.015625)"/>
       </defs>
       <use xlink:href="#DejaVuSans-38"/>
       <use xlink:href="#DejaVuSans-30" transform="translate(63.623047 0)"/>
       <use xlink:href="#DejaVuSans-30" transform="translate(127.246094 0)"/>
      </g>
     </g>
    </g>
    <g id="xtick_6">
     <g id="line2d_6">
      <g>
       <use xlink:href="#m53a21e4b4e" x="398.812252" y="307.584" style="stroke: #000000; stroke-width: 0.8"/>
      </g>
     </g>
     <g id="text_6">
      <!-- 1000 -->
      <g transform="translate(386.087252 322.182437) scale(0.1 -0.1)">
       <defs>
        <path id="DejaVuSans-31" d="M 794 531 
L 1825 531 
L 1825 4091 
L 703 3866 
L 703 4441 
L 1819 4666 
L 2450 4666 
L 2450 531 
L 3481 531 
L 3481 0 
L 794 0 
L 794 531 
z
" transform="scale(0.015625)"/>
       </defs>
       <use xlink:href="#DejaVuSans-31"/>
       <use xlink:href="#DejaVuSans-30" transform="translate(63.623047 0)"/>
       <use xlink:href="#DejaVuSans-30" transform="translate(127.246094 0)"/>
       <use xlink:href="#DejaVuSans-30" transform="translate(190.869141 0)"/>
      </g>
     </g>
    </g>
   </g>
   <g id="matplotlib.axis_2">
    <g id="ytick_1">
     <g id="line2d_7">
      <defs>
       <path id="mf6d88349ce" d="M 0 0 
L -3.5 0 
" style="stroke: #000000; stroke-width: 0.8"/>
      </defs>
      <g>
       <use xlink:href="#mf6d88349ce" x="57.6" y="279.37272" style="stroke: #000000; stroke-width: 0.8"/>
      </g>
     </g>
     <g id="text_7">
      <!-- −3 -->
      <g transform="translate(35.857813 283.171939) scale(0.1 -0.1)">
       <defs>
        <path id="DejaVuSans-2212" d="M 678 2272 
L 4684 2272 
L 4684 1741 
L 678 1741 
L 678 2272 
z
" transform="scale(0.015625)"/>
        <path id="DejaVuSans-33" d="M 2597 2516 
Q 3050 2419 3304 2112 
Q 3559 1806 3559 1356 
Q 3559 666 3084 287 
Q 2609 -91 1734 -91 
Q 1441 -91 1130 -33 
Q 819 25 488 141 
L 488 750 
Q 750 597 1062 519 
Q 1375 441 1716 441 
Q 2309 441 2620 675 
Q 2931 909 2931 1356 
Q 2931 1769 2642 2001 
Q 2353 2234 1838 2234 
L 1294 2234 
L 1294 2753 
L 1863 2753 
Q 2328 2753 2575 2939 
Q 2822 3125 2822 3475 
Q 2822 3834 2567 4026 
Q 2313 4219 1838 4219 
Q 1578 4219 1281 4162 
Q 984 4106 628 3988 
L 628 4550 
Q 988 4650 1302 4700 
Q 1616 4750 1894 4750 
Q 2613 4750 3031 4423 
Q 3450 4097 3450 3541 
Q 3450 3153 3228 2886 
Q 3006 2619 2597 2516 
z
" transform="scale(0.015625)"/>
       </defs>
       <use xlink:href="#DejaVuSans-2212"/>
       <use xlink:href="#DejaVuSans-33" transform="translate(83.789062 0)"/>
      </g>
     </g>
    </g>
    <g id="ytick_2">
     <g id="line2d_8">
      <g>
       <use xlink:href="#mf6d88349ce" x="57.6" y="243.323391" style="stroke: #000000; stroke-width: 0.8"/>
      </g>
     </g>
     <g id="text_8">
      <!-- −2 -->
      <g transform="translate(35.857813 247.12261) scale(0.1 -0.1)">
       <use xlink:href="#DejaVuSans-2212"/>
       <use xlink:href="#DejaVuSans-32" transform="translate(83.789062 0)"/>
      </g>
     </g>
    </g>
    <g id="ytick_3">
     <g id="line2d_9">
      <g>
       <use xlink:href="#mf6d88349ce" x="57.6" y="207.274062" style="stroke: #000000; stroke-width: 0.8"/>
      </g>
     </g>
     <g id="text_9">
      <!-- −1 -->
      <g transform="translate(35.857813 211.073281) scale(0.1 -0.1)">
       <use xlink:href="#DejaVuSans-2212"/>
       <use xlink:href="#DejaVuSans-31" transform="translate(83.789062 0)"/>
      </g>
     </g>
    </g>
    <g id="ytick_4">
     <g id="line2d_10">
      <g>
       <use xlink:href="#mf6d88349ce" x="57.6" y="171.224733" style="stroke: #000000; stroke-width: 0.8"/>
      </g>
     </g>
     <g id="text_10">
      <!-- 0 -->
      <g transform="translate(44.2375 175.023952) scale(0.1 -0.1)">
       <use xlink:href="#DejaVuSans-30"/>
      </g>
     </g>
    </g>
    <g id="ytick_5">
     <g id="line2d_11">
      <g>
       <use xlink:href="#mf6d88349ce" x="57.6" y="135.175404" style="stroke: #000000; stroke-width: 0.8"/>
      </g>
     </g>
     <g id="text_11">
      <!-- 1 -->
      <g transform="translate(44.2375 138.974623) scale(0.1 -0.1)">
       <use xlink:href="#DejaVuSans-31"/>
      </g>
     </g>
    </g>
    <g id="ytick_6">
     <g id="line2d_12">
      <g>
       <use xlink:href="#mf6d88349ce" x="57.6" y="99.126075" style="stroke: #000000; stroke-width: 0.8"/>
      </g>
     </g>
     <g id="text_12">
      <!-- 2 -->
      <g transform="translate(44.2375 102.925294) scale(0.1 -0.1)">
       <use xlink:href="#DejaVuSans-32"/>
      </g>
     </g>
    </g>
    <g id="ytick_7">
     <g id="line2d_13">
      <g>
       <use xlink:href="#mf6d88349ce" x="57.6" y="63.076746" style="stroke: #000000; stroke-width: 0.8"/>
      </g>
     </g>
     <g id="text_13">
      <!-- 3 -->
      <g transform="translate(44.2375 66.875965) scale(0.1 -0.1)">
       <use xlink:href="#DejaVuSans-33"/>
      </g>
     </g>
    </g>
   </g>
   <g id="line2d_14">
    <path d="M 73.832727 275.47952 
L 74.157707 178.641585 
L 74.482686 172.470587 
L 74.807666 182.731326 
L 75.132645 167.422686 
L 75.457625 171.598678 
L 75.782604 217.454248 
L 76.107584 199.205938 
L 76.432563 158.048067 
L 76.757543 170.430543 
L 77.082523 201.503788 
L 77.407502 209.53817 
L 77.732482 171.762988 
L 78.057461 241.956936 
L 78.70742 139.148559 
L 79.682359 199.277316 
L 80.007338 186.989638 
L 80.332318 137.022661 
L 80.657297 189.866463 
L 80.982277 170.861789 
L 81.307256 183.646346 
L 81.632236 205.355824 
L 81.957215 121.817295 
L 82.282195 197.305119 
L 82.932154 184.680837 
L 83.257133 219.733178 
L 83.582113 167.212925 
L 83.907093 199.844582 
L 84.232072 162.458873 
L 84.557052 169.415783 
L 84.882031 184.130089 
L 85.207011 160.0387 
L 85.53199 213.688378 
L 85.85697 154.145658 
L 86.181949 158.669191 
L 86.506929 245.741214 
L 87.156888 171.00393 
L 87.481867 199.457005 
L 87.806847 154.548529 
L 88.131826 135.823292 
L 88.456806 147.116419 
L 88.781785 164.080874 
L 89.106765 173.414317 
L 89.431744 141.333337 
L 89.756724 161.492278 
L 90.406683 92.05729 
L 90.731663 149.458912 
L 91.056642 153.235307 
L 91.381622 257.676816 
L 91.706601 53.568 
L 92.031581 180.462799 
L 92.35656 157.691363 
L 92.68154 145.026048 
L 93.006519 118.338654 
L 93.331499 181.045928 
L 93.656478 191.89714 
L 93.981458 164.23397 
L 94.306437 157.441418 
L 94.631417 193.296485 
L 94.956396 170.599268 
L 95.281376 203.628993 
L 95.606355 171.98737 
L 95.931335 184.25983 
L 96.256314 173.189456 
L 96.581294 228.327182 
L 96.906274 233.193288 
L 97.231253 172.68958 
L 97.556233 165.62196 
L 97.881212 144.14207 
L 98.206192 164.745253 
L 98.531171 175.454713 
L 98.856151 223.376093 
L 99.18113 179.369148 
L 99.50611 174.911572 
L 99.831089 186.586463 
L 100.156069 169.231997 
L 100.481048 109.806703 
L 101.131007 242.088904 
L 101.780966 184.005607 
L 102.105946 175.705659 
L 102.430925 170.845821 
L 102.755905 147.976448 
L 103.080885 223.098572 
L 103.405864 130.07879 
L 103.730844 267.619132 
L 104.055823 157.532681 
L 104.380803 131.04945 
L 104.705782 153.096716 
L 105.030762 103.532933 
L 105.355741 174.210853 
L 106.0057 125.924702 
L 106.33068 167.143065 
L 106.655659 191.130757 
L 106.980639 127.253139 
L 107.305618 187.028894 
L 107.630598 160.722195 
L 107.955577 151.809562 
L 108.280557 193.002889 
L 108.605536 165.063229 
L 108.930516 201.440709 
L 109.255495 168.94005 
L 109.580475 185.129769 
L 109.905455 130.322649 
L 110.230434 264.423939 
L 110.555414 130.318969 
L 110.880393 189.996445 
L 111.205373 150.193388 
L 111.530352 162.059586 
L 111.855332 115.613804 
L 112.180311 213.519594 
L 112.505291 145.066441 
L 113.15525 204.856539 
L 113.480229 188.415917 
L 113.805209 150.645393 
L 114.130188 167.457334 
L 114.455168 202.340742 
L 114.780147 196.496124 
L 115.105127 146.693693 
L 115.430106 179.214999 
L 115.755086 121.185849 
L 116.080066 159.947265 
L 116.405045 121.849597 
L 116.730025 192.91772 
L 117.055004 155.593472 
L 117.379984 197.267178 
L 118.029943 159.500599 
L 118.354922 191.972597 
L 118.679902 156.802003 
L 119.004881 157.787254 
L 119.329861 174.929002 
L 119.65484 174.890942 
L 119.97982 161.334798 
L 120.304799 122.956088 
L 120.629779 128.57242 
L 120.954758 207.157214 
L 121.279738 190.054068 
L 121.604717 164.572781 
L 121.929697 237.901926 
L 122.254676 155.427159 
L 122.579656 106.209026 
L 122.904636 183.263026 
L 123.229615 214.971533 
L 123.554595 181.951425 
L 123.879574 185.177328 
L 124.204554 78.013322 
L 124.529533 83.140405 
L 124.854513 210.62479 
L 125.504472 134.902684 
L 125.829451 141.412379 
L 126.154431 157.81747 
L 126.47941 133.949715 
L 127.129369 120.276832 
L 127.454349 192.976222 
L 127.779328 168.548413 
L 128.104308 182.832446 
L 128.754267 146.489719 
L 129.079247 170.055 
L 129.404226 141.167627 
L 129.729206 206.172437 
L 130.054185 126.899784 
L 130.379165 162.16263 
L 130.704144 232.80716 
L 131.029124 95.119943 
L 131.354103 89.476393 
L 131.679083 162.382518 
L 132.004062 162.167399 
L 132.329042 135.302884 
L 132.654021 179.5729 
L 133.62896 208.341568 
L 133.953939 200.621396 
L 134.278919 139.256969 
L 134.603898 155.285406 
L 134.928878 215.083 
L 135.253857 228.048908 
L 135.578837 186.118622 
L 135.903817 166.993247 
L 136.228796 126.696778 
L 136.553776 185.219141 
L 136.878755 175.212078 
L 137.203735 147.927207 
L 137.528714 206.735238 
L 137.853694 160.908034 
L 138.503653 169.128031 
L 138.828632 241.548009 
L 139.153612 172.180126 
L 139.478591 254.562281 
L 139.803571 163.58051 
L 140.12855 211.161742 
L 140.45353 198.074636 
L 140.778509 173.373628 
L 141.103489 185.518115 
L 141.428468 225.299317 
L 141.753448 103.46099 
L 142.078428 159.667121 
L 142.403407 164.655088 
L 142.728387 136.770623 
L 143.053366 210.710793 
L 143.378346 191.320207 
L 143.703325 157.335589 
L 144.028305 223.79723 
L 144.353284 102.210119 
L 144.678264 196.960228 
L 145.003243 114.692654 
L 145.328223 189.853693 
L 145.653202 179.826988 
L 145.978182 211.280026 
L 146.303161 155.007028 
L 146.628141 166.538454 
L 146.95312 150.067982 
L 147.2781 199.664954 
L 147.603079 175.307024 
L 147.928059 192.749849 
L 148.253038 186.766527 
L 148.578018 123.860148 
L 148.902998 137.968984 
L 149.227977 163.196226 
L 149.552957 204.917007 
L 149.877936 188.195577 
L 150.202916 156.307422 
L 150.527895 202.602039 
L 150.852875 158.067189 
L 151.177854 172.221018 
L 151.502834 206.1948 
L 152.152793 130.116485 
L 152.802752 208.889049 
L 153.127731 188.289598 
L 153.452711 115.659024 
L 154.10267 170.400905 
L 154.427649 212.252285 
L 154.752629 170.921508 
L 155.077609 184.656203 
L 155.402588 166.349852 
L 155.727568 166.312997 
L 156.052547 179.243881 
L 156.377527 162.387471 
L 156.702506 175.820807 
L 157.027486 215.681399 
L 157.352465 223.192693 
L 158.002424 149.903892 
L 158.327404 175.108922 
L 158.652383 161.706662 
L 158.977363 139.55917 
L 159.302342 185.467543 
L 159.627322 187.631348 
L 159.952301 168.258646 
L 160.277281 209.445863 
L 160.60226 136.298494 
L 160.92724 208.794183 
L 161.252219 175.568454 
L 161.577199 122.522208 
L 161.902179 165.111795 
L 162.227158 175.878518 
L 162.552138 202.069326 
L 162.877117 167.000257 
L 163.202097 158.487895 
L 163.527076 178.70966 
L 163.852056 178.906325 
L 164.177035 139.110407 
L 164.502015 155.411019 
L 164.826994 144.308493 
L 165.151974 148.990843 
L 165.801933 212.458015 
L 166.126912 75.681625 
L 166.451892 190.611091 
L 166.776871 150.580329 
L 167.101851 178.295645 
L 167.42683 168.107591 
L 167.75181 168.495486 
L 168.07679 169.21622 
L 168.401769 121.049189 
L 168.726749 132.508247 
L 169.051728 157.829949 
L 169.701687 114.553721 
L 170.026667 167.978636 
L 170.351646 159.221191 
L 170.676626 171.812475 
L 171.001605 252.743098 
L 171.326585 131.629026 
L 171.651564 181.499248 
L 171.976544 170.343203 
L 172.301523 143.494729 
L 172.626503 150.224194 
L 172.951482 118.280467 
L 173.276462 213.360627 
L 173.601441 174.825761 
L 173.926421 99.014109 
L 174.2514 144.455917 
L 174.57638 144.119097 
L 174.90136 161.898894 
L 175.226339 202.949044 
L 175.551319 138.7605 
L 175.876298 172.023274 
L 176.201278 107.460463 
L 176.526257 213.691852 
L 176.851237 173.363241 
L 177.176216 205.904221 
L 177.501196 193.643152 
L 177.826175 136.888895 
L 178.151155 136.537643 
L 178.476134 177.386655 
L 178.801114 175.43161 
L 179.126093 154.018585 
L 179.451073 200.923522 
L 179.776052 264.134639 
L 180.426011 147.19293 
L 180.750991 125.348935 
L 181.075971 195.81288 
L 181.40095 150.177616 
L 181.72593 187.450066 
L 182.050909 185.948858 
L 182.375889 174.877858 
L 182.700868 226.025301 
L 183.025848 142.555358 
L 183.350827 202.337877 
L 183.675807 127.267414 
L 184.000786 226.364164 
L 184.650745 113.52492 
L 184.975725 111.149473 
L 185.300704 193.222394 
L 185.625684 154.766241 
L 185.950663 164.139326 
L 186.275643 169.479137 
L 186.600622 104.369724 
L 187.250581 207.290335 
L 187.575561 205.02604 
L 187.900541 183.06238 
L 188.22552 201.222184 
L 189.200459 150.610783 
L 189.525438 186.748943 
L 189.850418 190.552965 
L 190.175397 188.646657 
L 190.500377 179.760499 
L 190.825356 206.592659 
L 191.150336 132.394132 
L 191.475315 134.199094 
L 191.800295 162.756742 
L 192.125274 201.860111 
L 192.450254 195.579693 
L 192.775233 211.012548 
L 193.100213 153.988079 
L 193.750172 135.407307 
L 194.400131 204.407167 
L 194.725111 194.508481 
L 195.05009 174.340548 
L 195.37507 164.108467 
L 195.700049 194.044191 
L 196.025029 164.206728 
L 196.350008 116.183285 
L 196.674988 140.602605 
L 196.999967 224.500516 
L 197.324947 182.272555 
L 197.649926 54.661875 
L 197.974906 155.737684 
L 198.624865 109.086189 
L 198.949844 262.152336 
L 199.274824 180.26983 
L 199.599803 201.853309 
L 199.924783 150.813396 
L 200.249762 145.848958 
L 200.574742 174.774151 
L 200.899722 191.110426 
L 201.224701 113.401258 
L 201.549681 158.121987 
L 202.19964 189.575722 
L 202.524619 138.489476 
L 202.849599 204.887811 
L 203.174578 146.254143 
L 203.499558 190.08692 
L 203.824537 170.882513 
L 204.149517 183.006564 
L 204.474496 153.151336 
L 204.799476 173.398996 
L 205.449435 196.518447 
L 205.774414 218.652898 
L 206.099394 199.124505 
L 206.424373 152.420012 
L 207.074333 185.15037 
L 207.399312 170.026823 
L 207.724292 206.429861 
L 208.049271 158.925443 
L 208.374251 182.790553 
L 208.69923 190.715202 
L 209.02421 172.487234 
L 209.349189 119.656349 
L 209.674169 151.36215 
L 209.999148 141.284019 
L 210.324128 112.311075 
L 210.649107 127.782048 
L 210.974087 203.527987 
L 211.299066 123.618217 
L 211.624046 173.911253 
L 211.949025 193.182262 
L 212.274005 160.474932 
L 212.598984 179.670849 
L 212.923964 224.713391 
L 213.248943 142.146931 
L 213.573923 152.799736 
L 213.898903 194.658609 
L 214.223882 193.526638 
L 214.548862 231.988322 
L 214.873841 203.237593 
L 215.198821 114.553392 
L 215.5238 71.350312 
L 215.84878 114.740529 
L 216.173759 127.915423 
L 216.498739 187.752794 
L 217.148698 136.070816 
L 217.473677 184.481589 
L 218.123636 168.650307 
L 218.448616 165.77217 
L 218.773595 185.347176 
L 219.098575 130.443039 
L 219.423554 158.700891 
L 219.748534 159.63997 
L 220.398493 100.281113 
L 220.723473 154.806132 
L 221.048452 120.058336 
L 221.373432 221.539839 
L 221.698411 132.626634 
L 222.023391 163.143675 
L 222.34837 145.371506 
L 222.67335 141.936518 
L 222.998329 114.900397 
L 223.323309 229.586308 
L 223.648288 71.598019 
L 223.973268 190.03333 
L 224.298247 152.201343 
L 224.623227 201.033842 
L 224.948206 126.208309 
L 225.273186 245.696511 
L 225.923145 171.535132 
L 226.248124 174.349109 
L 226.573104 204.681228 
L 226.898084 204.282506 
L 227.223063 204.523277 
L 227.548043 136.939756 
L 227.873022 203.013348 
L 228.198002 165.061964 
L 228.522981 149.069502 
L 228.847961 191.62678 
L 229.17294 188.687409 
L 229.49792 174.731776 
L 229.822899 167.086035 
L 230.147879 79.046847 
L 230.472858 253.44536 
L 230.797838 189.978578 
L 231.122817 194.62947 
L 231.447797 159.760251 
L 231.772776 230.996749 
L 232.097756 97.425064 
L 232.422735 85.764397 
L 232.747715 159.68745 
L 233.397674 156.821047 
L 233.722654 201.577696 
L 234.047633 134.28649 
L 234.372613 160.411983 
L 234.697592 234.7819 
L 235.022572 192.292891 
L 235.347551 167.423512 
L 235.672531 187.015795 
L 235.99751 150.394261 
L 236.32249 201.878362 
L 236.647469 108.145266 
L 236.972449 161.174612 
L 237.297428 170.830467 
L 237.622408 153.802561 
L 237.947387 205.542233 
L 238.272367 174.197141 
L 238.597346 127.527686 
L 238.922326 215.242859 
L 239.572285 158.217393 
L 239.897265 154.51512 
L 240.222244 107.270021 
L 240.872203 178.026575 
L 241.197183 136.918709 
L 241.522162 227.422871 
L 241.847142 238.634244 
L 242.172121 172.152092 
L 242.497101 158.604656 
L 242.82208 132.013273 
L 243.14706 188.554466 
L 243.472039 211.027525 
L 243.797019 139.634015 
L 244.121998 111.009899 
L 244.446978 244.200008 
L 244.771957 191.964592 
L 245.096937 166.933667 
L 245.421916 188.37639 
L 245.746896 126.853196 
L 246.071876 202.870014 
L 246.396855 204.81737 
L 246.721835 200.283314 
L 247.046814 151.580246 
L 247.371794 75.269719 
L 247.696773 160.697259 
L 248.021753 145.515773 
L 248.346732 215.002306 
L 248.671712 135.218037 
L 248.996691 144.501746 
L 249.321671 169.90425 
L 249.64665 216.84251 
L 249.97163 151.904222 
L 250.296609 227.981373 
L 250.621589 139.223358 
L 251.271548 212.62307 
L 251.921507 175.761242 
L 252.246486 168.587153 
L 252.571466 181.061812 
L 252.896446 187.866393 
L 253.221425 153.401017 
L 253.546405 133.458173 
L 253.871384 133.698306 
L 254.196364 148.571744 
L 254.521343 153.126045 
L 254.846323 192.95999 
L 255.171302 205.44814 
L 255.496282 179.911674 
L 255.821261 238.636742 
L 256.146241 155.16937 
L 256.47122 178.055174 
L 257.121179 112.703665 
L 257.771138 172.824074 
L 258.096118 104.159866 
L 258.421097 216.508824 
L 258.746077 216.419554 
L 259.071057 136.571797 
L 259.396036 192.849621 
L 259.721016 159.649816 
L 260.045995 160.716401 
L 260.370975 141.42076 
L 260.695954 130.370041 
L 261.020934 156.344219 
L 261.345913 104.920958 
L 261.670893 130.572516 
L 261.995872 218.269122 
L 262.645831 155.440289 
L 262.970811 125.819338 
L 263.62077 215.309257 
L 263.945749 236.599333 
L 264.270729 162.661304 
L 264.595708 146.029694 
L 264.920688 163.393528 
L 265.245667 163.165703 
L 265.570647 158.388378 
L 265.895627 203.10317 
L 266.220606 160.584948 
L 266.545586 161.186475 
L 266.870565 198.264182 
L 267.195545 201.185102 
L 267.520524 124.073917 
L 267.845504 229.447873 
L 268.170483 159.011598 
L 268.820442 231.689979 
L 269.145422 139.837061 
L 269.470401 163.31039 
L 269.795381 138.529033 
L 270.12036 207.219373 
L 270.44534 199.784426 
L 270.770319 167.996529 
L 271.095299 167.531228 
L 271.420278 163.55309 
L 271.745258 139.823316 
L 272.070238 173.714542 
L 272.395217 147.574426 
L 272.720197 210.263779 
L 273.045176 156.615025 
L 273.370156 168.095983 
L 273.695135 164.0725 
L 274.020115 128.837115 
L 274.345094 142.566961 
L 274.670074 140.779556 
L 274.995053 162.45829 
L 275.320033 165.41639 
L 275.645012 212.356506 
L 275.969992 187.415674 
L 276.294971 138.177815 
L 276.619951 150.974425 
L 276.94493 127.546285 
L 277.26991 200.431657 
L 277.594889 145.441124 
L 277.919869 179.686072 
L 278.244848 134.448903 
L 278.569828 148.554073 
L 278.894808 185.482303 
L 279.219787 131.467068 
L 279.544767 165.050554 
L 279.869746 157.978363 
L 280.194726 169.338291 
L 280.519705 147.711919 
L 280.844685 195.236182 
L 281.169664 113.876302 
L 281.494644 245.857794 
L 281.819623 176.248004 
L 282.144603 170.867854 
L 282.469582 225.7797 
L 282.794562 119.31381 
L 283.119541 179.006082 
L 283.444521 157.531444 
L 283.7695 228.525078 
L 284.09448 141.706173 
L 284.419459 123.531191 
L 284.744439 215.374911 
L 285.069419 153.614903 
L 285.394398 197.383908 
L 285.719378 161.742998 
L 286.044357 206.239006 
L 286.369337 142.944391 
L 286.694316 194.610208 
L 287.019296 138.899592 
L 287.344275 202.974259 
L 287.669255 176.751047 
L 287.994234 130.505618 
L 288.319214 147.458545 
L 288.644193 175.431427 
L 288.969173 162.766227 
L 289.294152 179.093324 
L 289.619132 158.794384 
L 289.944111 127.313603 
L 290.269091 170.212364 
L 290.59407 142.39719 
L 290.91905 160.873551 
L 291.244029 97.761994 
L 291.893989 241.235211 
L 292.218968 181.029993 
L 292.543948 234.428719 
L 292.868927 190.790711 
L 293.193907 183.960741 
L 293.518886 108.426735 
L 293.843866 118.112411 
L 294.168845 178.500873 
L 294.493825 134.590731 
L 294.818804 150.827267 
L 295.143784 196.36853 
L 295.468763 155.88138 
L 295.793743 161.782339 
L 296.118722 150.387821 
L 296.443702 145.208095 
L 296.768681 164.133859 
L 297.093661 144.205301 
L 297.41864 178.352077 
L 297.74362 157.625423 
L 298.0686 150.716232 
L 298.393579 217.357581 
L 298.718559 181.542389 
L 299.043538 100.401045 
L 299.368518 196.416259 
L 299.693497 196.591338 
L 300.018477 66.242414 
L 300.668436 268.111586 
L 301.318395 148.457295 
L 301.643374 152.998107 
L 301.968354 199.834657 
L 302.293333 165.499326 
L 302.618313 143.302503 
L 302.943292 165.842799 
L 303.593251 183.97513 
L 303.918231 221.175567 
L 304.24321 141.539897 
L 304.56819 168.767522 
L 304.89317 139.440761 
L 305.218149 179.419444 
L 305.543129 175.032851 
L 305.868108 186.381607 
L 306.193088 136.109772 
L 306.518067 173.735644 
L 306.843047 194.121188 
L 307.168026 174.471672 
L 307.493006 175.602377 
L 307.817985 153.30059 
L 308.142965 187.005309 
L 308.467944 194.462755 
L 308.792924 168.963868 
L 309.117903 176.271656 
L 309.442883 196.22071 
L 309.767862 260.04801 
L 310.092842 127.895609 
L 310.417821 204.565778 
L 310.742801 158.898523 
L 311.067781 150.220503 
L 311.39276 187.865383 
L 311.71774 195.715029 
L 312.042719 180.975355 
L 312.367699 192.805143 
L 312.692678 190.977267 
L 313.017658 106.394853 
L 313.342637 202.546101 
L 313.667617 211.187334 
L 313.992596 214.245678 
L 314.317576 165.565894 
L 314.642555 134.792616 
L 314.967535 189.461749 
L 315.292514 150.757085 
L 315.617494 134.549437 
L 315.942473 181.231539 
L 316.267453 185.135689 
L 316.592432 193.796314 
L 316.917412 130.305579 
L 317.242391 139.00434 
L 317.567371 157.566063 
L 317.892351 138.361419 
L 318.21733 132.356126 
L 318.54231 119.317391 
L 318.867289 176.305915 
L 319.192269 191.856616 
L 319.517248 179.305341 
L 319.842228 156.062043 
L 320.167207 203.154125 
L 320.492187 146.749129 
L 320.817166 149.119973 
L 321.142146 181.447313 
L 321.467125 110.263253 
L 321.792105 193.626158 
L 322.117084 160.357706 
L 322.442064 182.396283 
L 322.767043 220.056095 
L 323.092023 206.395385 
L 323.417002 220.222149 
L 323.741982 223.430634 
L 324.391941 159.810784 
L 324.716921 188.618514 
L 325.0419 153.098773 
L 325.36688 186.251336 
L 325.691859 118.824858 
L 326.016839 142.481774 
L 326.341818 124.534866 
L 326.666798 179.450155 
L 326.991777 213.759275 
L 327.316757 166.973366 
L 327.641736 203.470175 
L 327.966716 203.396013 
L 328.291695 194.8742 
L 328.616675 171.717529 
L 328.941654 131.168434 
L 329.266634 139.456251 
L 329.591613 135.254373 
L 329.916593 177.515288 
L 330.241572 187.344876 
L 330.566552 147.673609 
L 330.891532 168.383698 
L 331.216511 167.405215 
L 331.541491 118.278546 
L 332.19145 202.798609 
L 332.516429 167.10691 
L 332.841409 228.927105 
L 333.166388 179.158415 
L 333.491368 170.512297 
L 333.816347 251.825458 
L 334.466306 83.286818 
L 334.791286 173.174338 
L 335.116265 194.660313 
L 335.441245 132.414619 
L 335.766224 150.72847 
L 336.091204 136.467933 
L 336.416183 165.495927 
L 336.741163 212.90745 
L 337.066143 184.288535 
L 337.391122 107.658453 
L 337.716102 179.216616 
L 338.041081 202.092027 
L 338.366061 144.233027 
L 338.69104 160.651351 
L 339.01602 125.909847 
L 339.340999 181.073566 
L 339.665979 212.530738 
L 339.990958 206.869849 
L 340.640917 138.690441 
L 341.290876 218.114876 
L 341.615856 158.405696 
L 341.940835 183.662561 
L 342.265815 178.85466 
L 342.590794 203.647428 
L 342.915774 150.90795 
L 343.240753 193.876263 
L 343.565733 161.647865 
L 343.890713 191.866581 
L 344.215692 172.529795 
L 344.540672 99.526588 
L 344.865651 175.902031 
L 345.190631 188.934253 
L 345.51561 125.064279 
L 346.165569 198.369941 
L 346.490549 159.240151 
L 346.815528 143.779452 
L 347.140508 162.531972 
L 347.465487 224.728301 
L 347.790467 227.441539 
L 348.115446 157.175054 
L 348.440426 184.808963 
L 348.765405 174.90609 
L 349.090385 250.89205 
L 349.415364 162.174063 
L 349.740344 240.648877 
L 350.065324 135.443221 
L 350.715283 194.363963 
L 351.040262 154.037497 
L 351.365242 135.362908 
L 351.690221 216.967847 
L 352.34018 104.84985 
L 352.66516 195.204474 
L 352.990139 157.847296 
L 353.315119 91.518035 
L 353.640098 93.920559 
L 353.965078 151.555299 
L 354.290057 180.280195 
L 354.615037 127.700382 
L 354.940016 244.513213 
L 355.264996 200.638184 
L 355.589975 195.493689 
L 355.914955 136.82544 
L 356.564914 190.104773 
L 356.889894 149.443051 
L 357.214873 161.129146 
L 357.539853 183.046695 
L 357.864832 189.415695 
L 358.189812 139.930952 
L 358.514791 205.058423 
L 358.839771 198.712114 
L 359.16475 154.244752 
L 359.48973 194.818118 
L 359.814709 134.49802 
L 360.139689 211.483778 
L 360.789648 153.728578 
L 361.114627 213.326872 
L 361.439607 119.951338 
L 361.764586 167.441662 
L 362.414545 199.703672 
L 362.739525 114.28524 
L 363.064505 156.761063 
L 363.389484 169.074224 
L 363.714464 195.960143 
L 364.039443 134.31364 
L 364.364423 121.263253 
L 364.689402 210.201134 
L 365.014382 182.977256 
L 365.339361 136.731816 
L 365.664341 157.510808 
L 365.98932 191.835295 
L 366.3143 204.941886 
L 366.639279 158.722419 
L 366.964259 154.274214 
L 367.289238 169.323329 
L 367.614218 143.604911 
L 367.939197 170.278375 
L 368.264177 186.417282 
L 368.589156 164.688285 
L 368.914136 167.725021 
L 369.239115 295.488 
L 369.564095 182.999098 
L 369.889075 205.401968 
L 370.214054 178.856879 
L 370.539034 169.322499 
L 370.864013 213.839891 
L 371.188993 146.631467 
L 371.513972 123.125514 
L 371.838952 129.337261 
L 372.163931 118.891042 
L 372.488911 149.068738 
L 372.81389 164.604572 
L 373.13887 166.854813 
L 373.463849 174.672206 
L 373.788829 232.517909 
L 374.113808 182.714453 
L 374.438788 197.620903 
L 374.763767 135.927685 
L 375.088747 149.954582 
L 375.413726 145.644735 
L 375.738706 164.847192 
L 376.063686 175.773139 
L 376.388665 116.374998 
L 376.713645 214.572255 
L 377.038624 194.721999 
L 377.363604 192.073482 
L 377.688583 174.717637 
L 378.013563 148.096612 
L 378.338542 104.953297 
L 378.988501 223.788044 
L 379.313481 161.924371 
L 379.63846 254.991723 
L 379.96344 208.629392 
L 380.288419 146.278458 
L 380.613399 198.250217 
L 380.938378 161.327898 
L 381.263358 210.202963 
L 381.588337 199.709951 
L 381.913317 165.629757 
L 382.238296 147.565578 
L 382.563276 140.030411 
L 382.888256 138.677043 
L 383.213235 154.957804 
L 383.538215 152.263529 
L 384.188174 225.748179 
L 384.513153 163.30333 
L 384.838133 176.474474 
L 385.163112 208.459456 
L 385.488092 166.266188 
L 385.813071 164.063637 
L 386.138051 193.26945 
L 386.46303 194.923506 
L 386.78801 156.910771 
L 387.112989 189.532432 
L 387.437969 173.496492 
L 387.762948 183.072471 
L 388.087928 205.723279 
L 388.412907 123.0723 
L 388.737887 183.626703 
L 389.062867 182.828507 
L 389.387846 121.550033 
L 389.712826 113.215449 
L 390.037805 141.343654 
L 390.362785 193.919549 
L 390.687764 116.424226 
L 391.012744 214.82951 
L 391.337723 181.277361 
L 391.662703 230.748361 
L 391.987682 153.054781 
L 392.312662 181.196375 
L 392.637641 178.10187 
L 392.962621 122.175525 
L 393.2876 220.612638 
L 393.61258 164.933532 
L 393.937559 177.551875 
L 394.262539 184.585445 
L 394.587518 229.428278 
L 394.912498 118.48433 
L 395.237477 163.55528 
L 395.562457 164.699743 
L 396.212416 167.495502 
L 396.862375 163.935809 
L 397.187355 253.569504 
L 397.512334 86.712414 
L 397.837314 155.360131 
L 398.162293 155.061948 
L 398.487273 234.014767 
L 398.487273 234.014767 
" clip-path="url(#pe80dea5f7b)" style="fill: none; stroke: #1f77b4; stroke-width: 1.5; stroke-linecap: square"/>
   </g>
   <g id="line2d_15">
    <path d="M 73.832727 226.134864 
L 74.157707 197.63186 
L 74.482686 148.625433 
L 74.807666 122.860336 
L 75.132645 158.497609 
L 75.457625 166.347975 
L 75.782604 269.856355 
L 76.107584 163.208023 
L 76.432563 178.305794 
L 76.757543 143.393641 
L 77.082523 184.278332 
L 77.407502 129.164571 
L 77.732482 168.091511 
L 78.057461 147.427598 
L 78.382441 166.311857 
L 78.70742 154.157805 
L 79.0324 162.708949 
L 79.357379 206.091099 
L 79.682359 145.561799 
L 80.007338 163.641124 
L 80.332318 191.748113 
L 80.657297 161.220134 
L 80.982277 153.277543 
L 81.632236 196.179406 
L 81.957215 200.795562 
L 82.282195 169.875695 
L 82.607174 175.671984 
L 82.932154 193.472549 
L 83.257133 178.361716 
L 83.582113 180.497364 
L 83.907093 199.948684 
L 84.232072 144.363891 
L 84.557052 158.67341 
L 84.882031 183.977228 
L 85.207011 197.669107 
L 85.53199 171.897633 
L 85.85697 105.470015 
L 86.181949 166.885134 
L 86.831908 198.755718 
L 87.156888 147.877379 
L 87.481867 199.483321 
L 87.806847 180.380113 
L 88.131826 117.056245 
L 88.456806 198.946898 
L 88.781785 232.259858 
L 89.106765 166.348661 
L 89.431744 164.30821 
L 89.756724 157.422602 
L 90.081704 128.468796 
L 90.406683 138.293096 
L 90.731663 208.677706 
L 91.056642 168.847082 
L 91.381622 175.846092 
L 91.706601 180.213064 
L 92.031581 177.21123 
L 92.35656 109.919399 
L 92.68154 149.995212 
L 93.006519 152.753061 
L 93.331499 264.774057 
L 93.656478 203.247989 
L 93.981458 192.036419 
L 94.306437 174.958694 
L 94.631417 211.487028 
L 94.956396 136.065302 
L 95.281376 189.72474 
L 95.606355 187.258237 
L 95.931335 188.599084 
L 96.256314 178.770732 
L 96.581294 178.527764 
L 96.906274 177.833812 
L 97.231253 221.840872 
L 97.556233 174.600706 
L 97.881212 93.911891 
L 98.206192 112.375997 
L 98.531171 175.645941 
L 98.856151 138.729347 
L 99.18113 151.051028 
L 99.50611 201.257297 
L 99.831089 155.927299 
L 100.156069 177.813192 
L 100.481048 184.199842 
L 100.806028 178.043045 
L 101.131007 166.835287 
L 101.780966 199.095517 
L 102.105946 184.705178 
L 102.430925 210.237467 
L 102.755905 149.27172 
L 103.405864 177.096035 
L 103.730844 161.24156 
L 104.055823 171.322344 
L 104.380803 121.589032 
L 104.705782 206.765548 
L 105.030762 241.410089 
L 105.680721 157.085539 
L 106.0057 184.126851 
L 106.33068 121.669509 
L 106.655659 248.184003 
L 106.980639 95.716639 
L 107.305618 221.893385 
L 107.630598 174.74368 
L 107.955577 171.147994 
L 108.280557 119.769469 
L 108.605536 198.159191 
L 108.930516 197.129442 
L 109.255495 192.378246 
L 109.580475 117.708829 
L 109.905455 148.673626 
L 110.230434 199.62117 
L 110.555414 155.897927 
L 110.880393 149.126112 
L 111.205373 110.235131 
L 111.530352 171.071042 
L 111.855332 167.420359 
L 112.180311 172.449139 
L 112.505291 135.171588 
L 112.83027 237.456702 
L 113.15525 153.974613 
L 113.480229 135.239321 
L 114.130188 225.760417 
L 114.455168 184.538805 
L 114.780147 245.442732 
L 115.105127 215.867857 
L 115.430106 135.334965 
L 115.755086 177.780812 
L 116.080066 137.797875 
L 116.405045 146.097952 
L 116.730025 202.780931 
L 117.055004 182.66514 
L 117.379984 237.369097 
L 117.704963 196.832026 
L 118.029943 180.565166 
L 118.354922 186.637953 
L 118.679902 133.432012 
L 119.004881 176.092089 
L 119.329861 122.955396 
L 119.65484 162.092199 
L 119.97982 181.643348 
L 120.304799 171.858921 
L 120.629779 195.19343 
L 120.954758 188.394387 
L 121.279738 132.894897 
L 121.604717 134.913424 
L 121.929697 161.08039 
L 122.254676 142.199879 
L 122.579656 224.038189 
L 122.904636 147.620439 
L 123.229615 225.471599 
L 123.554595 147.322712 
L 123.879574 161.750002 
L 124.204554 137.43509 
L 124.529533 184.611572 
L 124.854513 206.046597 
L 125.179492 135.625176 
L 125.504472 161.58569 
L 125.829451 130.937788 
L 126.154431 237.470816 
L 126.47941 153.188478 
L 126.80439 182.657825 
L 127.129369 144.933923 
L 127.454349 194.224476 
L 127.779328 218.58262 
L 128.104308 208.703304 
L 128.429287 184.073787 
L 128.754267 181.108842 
L 129.079247 195.462587 
L 129.404226 131.797872 
L 129.729206 167.97453 
L 130.054185 146.002606 
L 130.379165 253.837652 
L 130.704144 165.807068 
L 131.029124 220.552389 
L 131.354103 115.077075 
L 131.679083 178.581559 
L 132.004062 133.79304 
L 132.329042 197.968806 
L 132.654021 167.082235 
L 132.979001 234.5201 
L 133.30398 188.587158 
L 133.953939 151.236752 
L 134.278919 171.541895 
L 134.603898 158.622226 
L 134.928878 133.525641 
L 135.253857 131.373934 
L 135.903817 203.977416 
L 136.228796 161.878959 
L 136.553776 170.093349 
L 136.878755 167.634092 
L 137.203735 92.559997 
L 137.528714 234.272765 
L 137.853694 189.20635 
L 138.178673 214.74202 
L 138.503653 155.165139 
L 139.153612 208.698689 
L 139.478591 149.764053 
L 139.803571 166.916277 
L 140.12855 197.854495 
L 140.45353 190.035263 
L 140.778509 175.631912 
L 141.428468 227.283942 
L 141.753448 140.012962 
L 142.078428 167.962136 
L 142.403407 95.477413 
L 142.728387 165.736419 
L 143.053366 112.513688 
L 143.378346 187.806155 
L 143.703325 157.721131 
L 144.028305 245.69232 
L 144.353284 164.498754 
L 145.003243 184.951399 
L 145.328223 216.512323 
L 145.653202 222.674081 
L 145.978182 191.649559 
L 146.303161 137.821992 
L 146.628141 129.288483 
L 147.2781 98.980457 
L 147.603079 171.901434 
L 147.928059 123.134986 
L 148.253038 137.915874 
L 148.578018 214.251319 
L 148.902998 187.66936 
L 149.227977 268.16453 
L 149.552957 233.387864 
L 149.877936 181.514096 
L 150.202916 164.007922 
L 150.527895 171.278714 
L 150.852875 162.050851 
L 151.177854 176.057005 
L 151.502834 179.30548 
L 151.827813 148.647383 
L 152.477772 174.292488 
L 152.802752 253.54208 
L 153.127731 107.33136 
L 153.452711 196.952659 
L 153.77769 237.93788 
L 154.427649 129.016456 
L 154.752629 183.942729 
L 155.077609 152.39482 
L 155.402588 180.627399 
L 155.727568 159.813577 
L 156.052547 165.36388 
L 156.377527 165.122477 
L 156.702506 227.473513 
L 157.027486 213.95933 
L 157.677445 99.108707 
L 158.002424 184.928083 
L 158.327404 195.365123 
L 158.652383 143.295097 
L 158.977363 149.582798 
L 159.302342 194.944568 
L 159.627322 103.263109 
L 159.952301 201.037377 
L 160.277281 148.150963 
L 160.60226 199.447289 
L 160.92724 106.670261 
L 161.252219 81.673748 
L 161.577199 185.897971 
L 161.902179 114.402273 
L 162.227158 139.944173 
L 162.552138 128.067615 
L 162.877117 180.289971 
L 163.202097 182.34378 
L 163.527076 179.885711 
L 163.852056 133.80234 
L 164.177035 198.213012 
L 164.502015 208.809361 
L 165.151974 137.451389 
L 165.476953 168.386004 
L 165.801933 173.631368 
L 166.126912 174.459769 
L 166.776871 179.752818 
L 167.101851 169.032705 
L 167.42683 256.243809 
L 167.75181 269.956424 
L 168.07679 167.694441 
L 168.401769 149.260507 
L 168.726749 201.262573 
L 169.051728 172.88132 
L 169.376708 217.999524 
L 169.701687 240.887766 
L 170.026667 177.871371 
L 170.351646 225.23391 
L 170.676626 177.24477 
L 171.001605 231.730891 
L 171.326585 209.820122 
L 171.651564 156.686783 
L 171.976544 175.738427 
L 172.301523 208.059714 
L 172.626503 166.231663 
L 172.951482 143.088423 
L 173.276462 187.059394 
L 173.601441 152.738674 
L 173.926421 181.240504 
L 174.2514 185.968327 
L 174.57638 148.225961 
L 174.90136 158.1945 
L 175.226339 132.423806 
L 175.551319 210.423305 
L 175.876298 139.805149 
L 176.201278 192.2671 
L 176.526257 168.854144 
L 176.851237 217.505118 
L 177.176216 205.647752 
L 177.501196 182.713368 
L 177.826175 144.110348 
L 178.151155 235.104939 
L 178.476134 143.956922 
L 178.801114 156.172744 
L 179.126093 190.195809 
L 179.451073 115.052914 
L 179.776052 197.983423 
L 180.101032 95.816496 
L 180.426011 138.108597 
L 180.750991 130.808286 
L 181.40095 134.642389 
L 181.72593 162.095229 
L 182.050909 211.586258 
L 182.375889 173.421406 
L 182.700868 208.543509 
L 183.025848 186.404437 
L 183.350827 115.427563 
L 183.675807 146.594865 
L 184.000786 136.791864 
L 184.975725 196.001905 
L 185.300704 169.289849 
L 185.625684 205.524249 
L 185.950663 187.729188 
L 186.275643 196.047515 
L 186.600622 126.468966 
L 186.925602 186.476773 
L 187.250581 135.99472 
L 187.575561 220.972208 
L 187.900541 181.747574 
L 188.22552 202.142194 
L 188.5505 149.279591 
L 188.875479 171.539313 
L 189.200459 141.177899 
L 189.525438 137.420627 
L 189.850418 135.738442 
L 190.175397 136.73019 
L 190.500377 169.565987 
L 190.825356 154.013087 
L 191.150336 214.69801 
L 191.475315 195.33178 
L 191.800295 167.766794 
L 192.125274 217.987622 
L 192.450254 165.811492 
L 192.775233 182.427266 
L 193.100213 183.601262 
L 193.425192 191.948055 
L 193.750172 196.303117 
L 194.075152 95.593462 
L 194.400131 149.791236 
L 194.725111 175.630478 
L 195.05009 141.437145 
L 195.37507 240.25552 
L 195.700049 155.966576 
L 196.025029 109.263234 
L 196.350008 158.146457 
L 196.674988 291.863936 
L 196.999967 137.89149 
L 197.324947 180.193776 
L 197.649926 198.972853 
L 197.974906 148.239589 
L 198.299885 137.782146 
L 198.624865 191.219612 
L 198.949844 158.589587 
L 199.274824 183.473308 
L 199.599803 180.956663 
L 199.924783 261.017036 
L 200.249762 153.837139 
L 200.574742 177.115531 
L 200.899722 142.408318 
L 201.224701 185.97811 
L 201.549681 191.458132 
L 201.87466 166.304732 
L 202.19964 172.60359 
L 202.524619 240.286687 
L 203.824537 105.852593 
L 204.149517 241.412344 
L 204.474496 158.830482 
L 204.799476 171.824435 
L 205.124455 158.862292 
L 205.449435 175.288085 
L 205.774414 137.700826 
L 206.099394 223.163894 
L 206.424373 172.496069 
L 206.749353 187.761015 
L 207.074333 170.642573 
L 207.399312 169.840577 
L 207.724292 197.841786 
L 208.049271 177.419555 
L 208.374251 193.70348 
L 208.69923 197.471798 
L 209.02421 131.460577 
L 209.349189 225.814601 
L 209.674169 174.892233 
L 209.999148 241.385981 
L 210.324128 212.970548 
L 210.974087 112.366877 
L 211.299066 210.426874 
L 211.624046 189.180966 
L 211.949025 157.116406 
L 212.274005 105.306074 
L 212.598984 183.001547 
L 212.923964 199.340444 
L 213.248943 194.088096 
L 213.573923 227.094259 
L 213.898903 180.162582 
L 214.223882 193.639729 
L 214.548862 142.204617 
L 214.873841 239.935253 
L 215.198821 195.829472 
L 215.5238 199.287465 
L 215.84878 182.582768 
L 216.173759 177.319229 
L 216.498739 136.683327 
L 216.823718 168.782615 
L 217.148698 186.064709 
L 217.473677 123.283256 
L 217.798657 118.909807 
L 218.123636 147.944405 
L 218.448616 160.191991 
L 218.773595 212.095368 
L 219.098575 160.665557 
L 219.423554 183.667705 
L 219.748534 128.757014 
L 220.073514 163.047542 
L 220.398493 182.006122 
L 220.723473 186.13101 
L 221.048452 114.660529 
L 221.373432 179.48693 
L 221.698411 164.75668 
L 222.34837 232.533916 
L 222.67335 174.255968 
L 222.998329 163.39024 
L 223.323309 216.166044 
L 223.648288 236.936566 
L 223.973268 169.279658 
L 224.298247 195.576756 
L 224.623227 191.958104 
L 224.948206 136.225134 
L 225.598165 173.220676 
L 225.923145 146.251932 
L 226.248124 163.265607 
L 226.573104 120.677696 
L 226.898084 149.180622 
L 227.223063 141.69435 
L 227.548043 105.343392 
L 227.873022 221.206213 
L 228.522981 164.463736 
L 228.847961 230.21363 
L 229.17294 148.173568 
L 229.49792 190.230171 
L 229.822899 187.130328 
L 230.147879 154.100255 
L 230.472858 209.34564 
L 230.797838 134.441218 
L 231.122817 145.525864 
L 231.447797 222.302179 
L 231.772776 185.753819 
L 232.097756 181.810335 
L 232.422735 153.420693 
L 232.747715 97.819138 
L 233.072695 168.519473 
L 233.397674 197.228271 
L 233.722654 181.900694 
L 234.047633 218.892751 
L 234.372613 184.165119 
L 234.697592 206.99718 
L 235.022572 182.386294 
L 235.347551 189.599829 
L 235.672531 149.148021 
L 235.99751 143.08233 
L 236.32249 122.570382 
L 236.972449 215.110716 
L 237.297428 130.022314 
L 237.622408 222.392547 
L 237.947387 140.409331 
L 238.272367 219.735703 
L 238.922326 133.419061 
L 239.247305 136.20742 
L 239.572285 288.762343 
L 239.897265 169.402012 
L 240.222244 134.245255 
L 240.547224 207.549671 
L 240.872203 148.539273 
L 241.197183 145.201368 
L 241.522162 204.258569 
L 241.847142 89.394889 
L 242.172121 193.651792 
L 242.497101 229.31534 
L 242.82208 167.304226 
L 243.14706 197.685745 
L 243.472039 124.705589 
L 243.797019 181.386524 
L 244.121998 146.266853 
L 244.446978 150.9444 
L 244.771957 211.883254 
L 245.096937 169.106481 
L 245.421916 162.531523 
L 245.746896 143.536196 
L 246.071876 211.80063 
L 246.396855 233.848592 
L 246.721835 147.724878 
L 247.046814 183.614768 
L 247.371794 125.466299 
L 247.696773 217.532027 
L 248.021753 170.231257 
L 248.346732 198.620212 
L 248.671712 126.676648 
L 248.996691 115.475258 
L 249.321671 263.34511 
L 249.64665 172.328846 
L 249.97163 161.367038 
L 250.296609 164.158292 
L 250.621589 120.417185 
L 250.946568 183.770266 
L 251.271548 172.71741 
L 251.596527 134.991885 
L 251.921507 177.288076 
L 252.246486 277.512947 
L 252.571466 188.219579 
L 252.896446 193.286812 
L 253.221425 224.600803 
L 253.546405 196.534563 
L 253.871384 189.978864 
L 254.196364 199.244396 
L 254.521343 171.472053 
L 254.846323 181.568235 
L 255.171302 146.052131 
L 255.496282 186.458108 
L 256.146241 123.111822 
L 256.47122 154.053859 
L 256.7962 196.695553 
L 257.121179 177.861685 
L 257.446159 108.494444 
L 257.771138 127.053138 
L 258.096118 164.950766 
L 258.421097 171.995375 
L 258.746077 234.445431 
L 259.071057 113.810887 
L 259.396036 197.188781 
L 259.721016 237.106549 
L 260.045995 153.777854 
L 260.370975 171.561142 
L 260.695954 176.77789 
L 261.020934 153.425233 
L 261.670893 199.999488 
L 261.995872 182.581565 
L 262.645831 226.813873 
L 262.970811 169.145704 
L 263.29579 200.888432 
L 263.62077 146.73624 
L 263.945749 172.453201 
L 264.270729 221.417933 
L 264.595708 192.078872 
L 264.920688 198.4566 
L 265.245667 138.658072 
L 265.895627 178.644779 
L 266.220606 152.93071 
L 266.545586 236.428623 
L 266.870565 168.081485 
L 267.195545 241.267941 
L 267.520524 210.94461 
L 267.845504 151.179156 
L 268.170483 185.068099 
L 268.495463 182.913453 
L 268.820442 175.554468 
L 269.145422 139.426827 
L 269.470401 164.782234 
L 269.795381 94.76399 
L 270.12036 155.016644 
L 270.44534 189.430722 
L 270.770319 149.774024 
L 271.420278 171.066722 
L 271.745258 116.407556 
L 272.070238 229.376115 
L 272.395217 244.022999 
L 272.720197 199.020226 
L 273.045176 121.120493 
L 273.370156 159.316591 
L 273.695135 117.270659 
L 274.020115 228.962782 
L 274.345094 224.653604 
L 274.670074 57.05552 
L 274.995053 207.698852 
L 275.320033 237.402671 
L 275.645012 161.83818 
L 275.969992 145.335509 
L 276.294971 159.068039 
L 276.619951 167.091208 
L 276.94493 262.981495 
L 277.26991 208.39196 
L 277.594889 212.203568 
L 277.919869 155.15232 
L 278.244848 140.386054 
L 278.569828 138.290124 
L 278.894808 204.216679 
L 279.219787 192.727477 
L 279.544767 131.539161 
L 279.869746 239.038569 
L 280.194726 153.818479 
L 280.844685 197.94931 
L 281.169664 225.927824 
L 281.494644 196.375214 
L 281.819623 107.376762 
L 282.144603 198.409902 
L 282.469582 153.951433 
L 282.794562 166.77857 
L 283.119541 193.785028 
L 283.444521 120.087014 
L 283.7695 235.435746 
L 284.09448 203.610655 
L 284.419459 203.679308 
L 284.744439 207.088872 
L 285.069419 179.989886 
L 285.394398 291.536823 
L 285.719378 157.940347 
L 286.044357 198.440311 
L 286.369337 143.023059 
L 286.694316 168.733839 
L 287.019296 106.665065 
L 287.344275 171.340598 
L 287.669255 186.795976 
L 287.994234 132.582074 
L 288.319214 191.996792 
L 288.644193 229.935636 
L 288.969173 175.327425 
L 289.294152 177.400751 
L 289.619132 219.104232 
L 289.944111 164.16182 
L 290.269091 171.794028 
L 290.59407 243.299676 
L 291.244029 113.198145 
L 291.569009 187.124004 
L 291.893989 161.180348 
L 292.218968 218.195146 
L 292.868927 121.390966 
L 293.193907 156.049858 
L 293.518886 176.090228 
L 293.843866 161.25681 
L 294.168845 122.57244 
L 294.493825 187.558623 
L 294.818804 141.756876 
L 295.143784 160.86755 
L 295.468763 223.814836 
L 295.793743 166.854156 
L 296.118722 169.717648 
L 296.443702 141.889679 
L 296.768681 161.252686 
L 297.093661 107.138367 
L 297.41864 260.961561 
L 297.74362 142.904538 
L 298.0686 146.62484 
L 298.393579 195.811218 
L 298.718559 176.32267 
L 299.043538 246.343055 
L 299.368518 205.06331 
L 300.018477 158.594723 
L 300.343456 125.332884 
L 300.668436 204.477234 
L 300.993415 113.78383 
L 301.318395 178.891675 
L 301.643374 169.795149 
L 301.968354 122.212412 
L 302.293333 122.279567 
L 302.618313 127.365459 
L 302.943292 188.582597 
L 303.268272 193.128625 
L 303.918231 149.556647 
L 304.24321 193.183932 
L 304.56819 163.648926 
L 304.89317 181.579383 
L 305.218149 130.390037 
L 305.543129 207.124968 
L 305.868108 83.52892 
L 306.518067 182.42247 
L 306.843047 140.051445 
L 307.168026 139.512314 
L 307.493006 187.853188 
L 307.817985 131.889971 
L 308.142965 123.64165 
L 308.467944 239.884448 
L 308.792924 229.224315 
L 309.117903 113.929165 
L 309.442883 210.320937 
L 309.767862 193.761295 
L 310.092842 231.495255 
L 310.417821 196.599861 
L 310.742801 219.16036 
L 311.067781 93.0086 
L 311.39276 158.395593 
L 311.71774 185.005356 
L 312.042719 229.968106 
L 312.367699 212.179897 
L 312.692678 143.133841 
L 313.017658 185.97017 
L 313.342637 172.189464 
L 313.667617 181.638677 
L 313.992596 134.530928 
L 314.317576 196.727724 
L 314.642555 141.330473 
L 314.967535 184.570301 
L 315.292514 124.115187 
L 315.617494 151.294493 
L 315.942473 143.520294 
L 316.267453 121.153371 
L 316.592432 191.307291 
L 316.917412 221.395384 
L 317.242391 209.775172 
L 317.567371 111.194662 
L 318.21733 202.386689 
L 318.867289 165.318638 
L 319.192269 198.088181 
L 319.842228 168.555277 
L 320.167207 253.427454 
L 320.492187 183.784188 
L 320.817166 228.02528 
L 321.142146 153.617923 
L 321.467125 173.939519 
L 321.792105 207.236042 
L 322.117084 87.967214 
L 322.442064 105.986899 
L 322.767043 188.924689 
L 323.092023 130.581929 
L 323.417002 161.101382 
L 323.741982 142.439175 
L 324.066962 168.529351 
L 324.391941 140.879155 
L 324.716921 213.714202 
L 325.0419 121.032261 
L 325.36688 215.741774 
L 325.691859 107.904378 
L 326.016839 162.956359 
L 326.341818 156.515807 
L 326.666798 208.972477 
L 326.991777 163.211627 
L 327.316757 204.654537 
L 327.641736 149.156956 
L 327.966716 221.122245 
L 328.291695 169.974524 
L 328.616675 171.976351 
L 328.941654 199.960727 
L 329.266634 171.710639 
L 329.591613 177.135769 
L 329.916593 161.572571 
L 330.241572 184.762751 
L 330.566552 146.525444 
L 331.216511 186.267567 
L 331.541491 127.383005 
L 331.86647 150.964733 
L 332.19145 151.657117 
L 332.516429 180.945863 
L 332.841409 248.436018 
L 333.166388 174.43501 
L 333.491368 161.964081 
L 333.816347 127.021924 
L 334.141327 147.234103 
L 334.466306 238.992417 
L 335.116265 117.070187 
L 335.441245 93.664463 
L 335.766224 185.025992 
L 336.091204 81.029583 
L 336.416183 199.44971 
L 336.741163 125.389512 
L 337.066143 200.864609 
L 337.391122 143.575905 
L 337.716102 180.287599 
L 338.041081 171.847692 
L 338.366061 156.765093 
L 338.69104 117.097303 
L 339.01602 213.663844 
L 339.340999 122.208512 
L 339.665979 206.744201 
L 339.990958 187.125033 
L 340.315938 71.808645 
L 340.640917 143.898512 
L 340.965897 257.652618 
L 341.290876 169.165528 
L 341.615856 165.314922 
L 341.940835 82.535183 
L 342.265815 119.593828 
L 342.590794 118.568984 
L 342.915774 87.153381 
L 343.240753 146.957758 
L 343.565733 179.491196 
L 343.890713 187.700843 
L 344.215692 184.006525 
L 344.540672 128.407847 
L 344.865651 156.937478 
L 345.190631 149.425754 
L 345.51561 170.150842 
L 345.84059 168.78152 
L 346.165569 166.862491 
L 346.490549 125.983843 
L 346.815528 155.894501 
L 347.140508 172.995646 
L 347.465487 113.080567 
L 347.790467 151.781034 
L 348.115446 224.681049 
L 348.765405 149.510638 
L 349.090385 211.10179 
L 349.415364 208.954117 
L 349.740344 167.869545 
L 350.065324 84.803488 
L 350.390303 173.112182 
L 350.715283 163.538407 
L 351.040262 133.394499 
L 351.365242 195.436484 
L 351.690221 151.432343 
L 352.015201 226.397226 
L 352.34018 139.481613 
L 352.66516 111.623257 
L 352.990139 183.67339 
L 353.315119 187.63672 
L 353.640098 251.535531 
L 353.965078 157.089051 
L 354.290057 249.588846 
L 354.615037 161.153716 
L 354.940016 176.06708 
L 355.264996 198.02916 
L 355.589975 194.434147 
L 355.914955 148.522257 
L 356.239934 165.153164 
L 356.564914 158.850386 
L 356.889894 192.180427 
L 357.214873 187.050627 
L 357.539853 240.603556 
L 357.864832 200.856867 
L 358.189812 140.52259 
L 358.514791 184.724038 
L 358.839771 138.686318 
L 359.16475 126.386797 
L 359.48973 135.848439 
L 359.814709 178.873287 
L 360.139689 131.139144 
L 360.464668 213.767261 
L 360.789648 140.455197 
L 361.114627 234.100918 
L 361.439607 138.188978 
L 361.764586 157.145828 
L 362.089566 148.709012 
L 362.414545 136.141952 
L 362.739525 193.92324 
L 363.064505 192.776175 
L 363.389484 202.766334 
L 363.714464 154.565396 
L 364.039443 140.448353 
L 364.364423 249.313891 
L 364.689402 151.592313 
L 365.014382 195.842201 
L 365.339361 220.844815 
L 365.664341 183.997598 
L 365.98932 99.428536 
L 366.3143 161.177591 
L 366.639279 185.235322 
L 366.964259 147.096876 
L 367.289238 163.547838 
L 367.614218 202.458368 
L 367.939197 152.652073 
L 368.264177 175.101354 
L 368.589156 206.138861 
L 368.914136 181.721987 
L 369.239115 222.882422 
L 369.564095 212.302464 
L 369.889075 185.013203 
L 370.214054 138.628744 
L 370.539034 119.616376 
L 370.864013 136.737986 
L 371.188993 125.114213 
L 371.513972 197.203955 
L 371.838952 207.614551 
L 372.163931 179.340281 
L 372.488911 120.419428 
L 372.81389 131.606653 
L 373.13887 192.833628 
L 373.463849 125.64985 
L 374.113808 202.439474 
L 374.438788 220.290545 
L 374.763767 190.928823 
L 375.088747 131.269024 
L 375.413726 225.239351 
L 376.063686 159.329111 
L 376.388665 162.014794 
L 376.713645 147.094576 
L 377.038624 191.966033 
L 377.363604 165.888667 
L 377.688583 206.257357 
L 378.013563 207.110903 
L 378.663522 146.978346 
L 378.988501 179.053452 
L 379.313481 169.371332 
L 379.63846 220.418915 
L 379.96344 200.310797 
L 380.288419 152.840838 
L 380.613399 165.987448 
L 380.938378 197.190731 
L 381.263358 180.9658 
L 381.588337 217.032713 
L 381.913317 140.180673 
L 382.238296 153.063655 
L 382.563276 290.813099 
L 382.888256 198.362099 
L 383.213235 218.842834 
L 383.538215 104.856519 
L 383.863194 189.088119 
L 384.188174 140.592096 
L 384.513153 157.117082 
L 384.838133 212.521401 
L 385.163112 153.03671 
L 385.488092 187.736048 
L 385.813071 128.595965 
L 386.138051 170.608559 
L 386.46303 152.114465 
L 386.78801 165.515773 
L 387.112989 171.369634 
L 387.437969 169.113918 
L 387.762948 194.246676 
L 388.087928 183.998791 
L 388.412907 114.734695 
L 388.737887 207.635009 
L 389.062867 139.441815 
L 389.387846 121.89892 
L 389.712826 216.63322 
L 390.037805 161.564885 
L 390.362785 142.402191 
L 390.687764 140.725347 
L 391.012744 169.22023 
L 391.337723 130.032191 
L 391.662703 159.939909 
L 391.987682 151.154333 
L 392.312662 200.489371 
L 392.637641 153.236597 
L 393.2876 185.931143 
L 393.61258 148.002624 
L 393.937559 198.119234 
L 394.262539 161.382668 
L 394.587518 162.063952 
L 394.912498 177.405818 
L 395.237477 147.351431 
L 395.562457 179.650297 
L 395.887437 101.471539 
L 396.212416 80.512144 
L 396.862375 214.049537 
L 397.187355 179.657607 
L 397.512334 241.252793 
L 397.837314 125.4149 
L 398.162293 169.812136 
L 398.487273 148.20507 
L 398.487273 148.20507 
" clip-path="url(#pe80dea5f7b)" style="fill: none; stroke: #ff7f0e; stroke-width: 1.5; stroke-linecap: square"/>
   </g>
   <g id="patch_3">
    <path d="M 57.6 307.584 
L 57.6 41.472 
" style="fill: none; stroke: #000000; stroke-width: 0.8; stroke-linejoin: miter; stroke-linecap: square"/>
   </g>
   <g id="patch_4">
    <path d="M 414.72 307.584 
L 414.72 41.472 
" style="fill: none; stroke: #000000; stroke-width: 0.8; stroke-linejoin: miter; stroke-linecap: square"/>
   </g>
   <g id="patch_5">
    <path d="M 57.6 307.584 
L 414.72 307.584 
" style="fill: none; stroke: #000000; stroke-width: 0.8; stroke-linejoin: miter; stroke-linecap: square"/>
   </g>
   <g id="patch_6">
    <path d="M 57.6 41.472 
L 414.72 41.472 
" style="fill: none; stroke: #000000; stroke-width: 0.8; stroke-linejoin: miter; stroke-linecap: square"/>
   </g>
  </g>
 </g>
 <defs>
  <clipPath id="pe80dea5f7b">
   <rect x="57.6" y="41.472" width="357.12" height="266.112"/>
  </clipPath>
 </defs>
</svg>
