<?xml version="1.0" encoding="utf-8" standalone="no"?>
<!DOCTYPE svg PUBLIC "-//W3C//DTD SVG 1.1//EN"
  "http://www.w3.org/Graphics/SVG/1.1/DTD/svg11.dtd">
<svg xmlns:xlink="http://www.w3.org/1999/xlink" width="460.8pt" height="345.6pt" viewBox="0 0 460.8 345.6" xmlns="http://www.w3.org/2000/svg" version="1.1">
 <metadata>
  <rdf:RDF xmlns:dc="http://purl.org/dc/elements/1.1/" xmlns:cc="http://creativecommons.org/ns#" xmlns:rdf="http://www.w3.org/1999/02/22-rdf-syntax-ns#">
   <cc:Work>
    <dc:type rdf:resource="http://purl.org/dc/dcmitype/StillImage"/>
    <dc:date>2025-11-23T18:31:03.354474</dc:date>
    <dc:format>image/svg+xml</dc:format>
    <dc:creator>
     <cc:Agent>
      <dc:title>Matplotlib v3.10.6, https://matplotlib.org/</dc:title>
     </cc:Agent>
    </dc:creator>
   </cc:Work>
  </rdf:RDF>
 </metadata>
 <defs>
  <style type="text/css">*{stroke-linejoin: round; stroke-linecap: butt}</style>
 </defs>
 <g id="figure_1">
  <g id="patch_1">
   <path d="M 0 345.6 
L 460.8 345.6 
L 460.8 0 
L 0 0 
z
" style="fill: #ffffff"/>
  </g>
  <g id="axes_1">
   <g id="patch_2">
    <path d="M 57.6 307.584 
L 414.72 307.584 
L 414.72 41.472 
L 57.6 41.472 
z
" style="fill: #ffffff"/>
   </g>
   <g id="matplotlib.axis_1">
    <g id="xtick_1">
     <g id="line2d_1">
      <defs>
       <path id="mbdd34c4072" d="M 0 0 
L 0 3.5 
" style="stroke: #000000; stroke-width: 0.8"/>
      </defs>
      <g>
       <use xlink:href="#mbdd34c4072" x="69.856795" y="307.584" style="stroke: #000000; stroke-width: 0.8"/>
      </g>
     </g>
     <g id="text_1">
      <!-- −14000 -->
      <g transform="translate(49.760701 322.182437) scale(0.1 -0.1)">
       <defs>
        <path id="DejaVuSans-2212" d="M 678 2272 
L 4684 2272 
L 4684 1741 
L 678 1741 
L 678 2272 
z
" transform="scale(0.015625)"/>
        <path id="DejaVuSans-31" d="M 794 531 
L 1825 531 
L 1825 4091 
L 703 3866 
L 703 4441 
L 1819 4666 
L 2450 4666 
L 2450 531 
L 3481 531 
L 3481 0 
L 794 0 
L 794 531 
z
" transform="scale(0.015625)"/>
        <path id="DejaVuSans-34" d="M 2419 4116 
L 825 1625 
L 2419 1625 
L 2419 4116 
z
M 2253 4666 
L 3047 4666 
L 3047 1625 
L 3713 1625 
L 3713 1100 
L 3047 1100 
L 3047 0 
L 2419 0 
L 2419 1100 
L 313 1100 
L 313 1709 
L 2253 4666 
z
" transform="scale(0.015625)"/>
        <path id="DejaVuSans-30" d="M 2034 4250 
Q 1547 4250 1301 3770 
Q 1056 3291 1056 2328 
Q 1056 1369 1301 889 
Q 1547 409 2034 409 
Q 2525 409 2770 889 
Q 3016 1369 3016 2328 
Q 3016 3291 2770 3770 
Q 2525 4250 2034 4250 
z
M 2034 4750 
Q 2819 4750 3233 4129 
Q 3647 3509 3647 2328 
Q 3647 1150 3233 529 
Q 2819 -91 2034 -91 
Q 1250 -91 836 529 
Q 422 1150 422 2328 
Q 422 3509 836 4129 
Q 1250 4750 2034 4750 
z
" transform="scale(0.015625)"/>
       </defs>
       <use xlink:href="#DejaVuSans-2212"/>
       <use xlink:href="#DejaVuSans-31" transform="translate(83.789062 0)"/>
       <use xlink:href="#DejaVuSans-34" transform="translate(147.412109 0)"/>
       <use xlink:href="#DejaVuSans-30" transform="translate(211.035156 0)"/>
       <use xlink:href="#DejaVuSans-30" transform="translate(274.658203 0)"/>
       <use xlink:href="#DejaVuSans-30" transform="translate(338.28125 0)"/>
      </g>
     </g>
    </g>
    <g id="xtick_2">
     <g id="line2d_2">
      <g>
       <use xlink:href="#mbdd34c4072" x="112.237493" y="307.584" style="stroke: #000000; stroke-width: 0.8"/>
      </g>
     </g>
     <g id="text_2">
      <!-- −12000 -->
      <g transform="translate(92.141399 322.182437) scale(0.1 -0.1)">
       <defs>
        <path id="DejaVuSans-32" d="M 1228 531 
L 3431 531 
L 3431 0 
L 469 0 
L 469 531 
Q 828 903 1448 1529 
Q 2069 2156 2228 2338 
Q 2531 2678 2651 2914 
Q 2772 3150 2772 3378 
Q 2772 3750 2511 3984 
Q 2250 4219 1831 4219 
Q 1534 4219 1204 4116 
Q 875 4013 500 3803 
L 500 4441 
Q 881 4594 1212 4672 
Q 1544 4750 1819 4750 
Q 2544 4750 2975 4387 
Q 3406 4025 3406 3419 
Q 3406 3131 3298 2873 
Q 3191 2616 2906 2266 
Q 2828 2175 2409 1742 
Q 1991 1309 1228 531 
z
" transform="scale(0.015625)"/>
       </defs>
       <use xlink:href="#DejaVuSans-2212"/>
       <use xlink:href="#DejaVuSans-31" transform="translate(83.789062 0)"/>
       <use xlink:href="#DejaVuSans-32" transform="translate(147.412109 0)"/>
       <use xlink:href="#DejaVuSans-30" transform="translate(211.035156 0)"/>
       <use xlink:href="#DejaVuSans-30" transform="translate(274.658203 0)"/>
       <use xlink:href="#DejaVuSans-30" transform="translate(338.28125 0)"/>
      </g>
     </g>
    </g>
    <g id="xtick_3">
     <g id="line2d_3">
      <g>
       <use xlink:href="#mbdd34c4072" x="154.618191" y="307.584" style="stroke: #000000; stroke-width: 0.8"/>
      </g>
     </g>
     <g id="text_3">
      <!-- −10000 -->
      <g transform="translate(134.522097 322.182437) scale(0.1 -0.1)">
       <use xlink:href="#DejaVuSans-2212"/>
       <use xlink:href="#DejaVuSans-31" transform="translate(83.789062 0)"/>
       <use xlink:href="#DejaVuSans-30" transform="translate(147.412109 0)"/>
       <use xlink:href="#DejaVuSans-30" transform="translate(211.035156 0)"/>
       <use xlink:href="#DejaVuSans-30" transform="translate(274.658203 0)"/>
       <use xlink:href="#DejaVuSans-30" transform="translate(338.28125 0)"/>
      </g>
     </g>
    </g>
    <g id="xtick_4">
     <g id="line2d_4">
      <g>
       <use xlink:href="#mbdd34c4072" x="196.998889" y="307.584" style="stroke: #000000; stroke-width: 0.8"/>
      </g>
     </g>
     <g id="text_4">
      <!-- −8000 -->
      <g transform="translate(180.084045 322.182437) scale(0.1 -0.1)">
       <defs>
        <path id="DejaVuSans-38" d="M 2034 2216 
Q 1584 2216 1326 1975 
Q 1069 1734 1069 1313 
Q 1069 891 1326 650 
Q 1584 409 2034 409 
Q 2484 409 2743 651 
Q 3003 894 3003 1313 
Q 3003 1734 2745 1975 
Q 2488 2216 2034 2216 
z
M 1403 2484 
Q 997 2584 770 2862 
Q 544 3141 544 3541 
Q 544 4100 942 4425 
Q 1341 4750 2034 4750 
Q 2731 4750 3128 4425 
Q 3525 4100 3525 3541 
Q 3525 3141 3298 2862 
Q 3072 2584 2669 2484 
Q 3125 2378 3379 2068 
Q 3634 1759 3634 1313 
Q 3634 634 3220 271 
Q 2806 -91 2034 -91 
Q 1263 -91 848 271 
Q 434 634 434 1313 
Q 434 1759 690 2068 
Q 947 2378 1403 2484 
z
M 1172 3481 
Q 1172 3119 1398 2916 
Q 1625 2713 2034 2713 
Q 2441 2713 2670 2916 
Q 2900 3119 2900 3481 
Q 2900 3844 2670 4047 
Q 2441 4250 2034 4250 
Q 1625 4250 1398 4047 
Q 1172 3844 1172 3481 
z
" transform="scale(0.015625)"/>
       </defs>
       <use xlink:href="#DejaVuSans-2212"/>
       <use xlink:href="#DejaVuSans-38" transform="translate(83.789062 0)"/>
       <use xlink:href="#DejaVuSans-30" transform="translate(147.412109 0)"/>
       <use xlink:href="#DejaVuSans-30" transform="translate(211.035156 0)"/>
       <use xlink:href="#DejaVuSans-30" transform="translate(274.658203 0)"/>
      </g>
     </g>
    </g>
    <g id="xtick_5">
     <g id="line2d_5">
      <g>
       <use xlink:href="#mbdd34c4072" x="239.379587" y="307.584" style="stroke: #000000; stroke-width: 0.8"/>
      </g>
     </g>
     <g id="text_5">
      <!-- −6000 -->
      <g transform="translate(222.464744 322.182437) scale(0.1 -0.1)">
       <defs>
        <path id="DejaVuSans-36" d="M 2113 2584 
Q 1688 2584 1439 2293 
Q 1191 2003 1191 1497 
Q 1191 994 1439 701 
Q 1688 409 2113 409 
Q 2538 409 2786 701 
Q 3034 994 3034 1497 
Q 3034 2003 2786 2293 
Q 2538 2584 2113 2584 
z
M 3366 4563 
L 3366 3988 
Q 3128 4100 2886 4159 
Q 2644 4219 2406 4219 
Q 1781 4219 1451 3797 
Q 1122 3375 1075 2522 
Q 1259 2794 1537 2939 
Q 1816 3084 2150 3084 
Q 2853 3084 3261 2657 
Q 3669 2231 3669 1497 
Q 3669 778 3244 343 
Q 2819 -91 2113 -91 
Q 1303 -91 875 529 
Q 447 1150 447 2328 
Q 447 3434 972 4092 
Q 1497 4750 2381 4750 
Q 2619 4750 2861 4703 
Q 3103 4656 3366 4563 
z
" transform="scale(0.015625)"/>
       </defs>
       <use xlink:href="#DejaVuSans-2212"/>
       <use xlink:href="#DejaVuSans-36" transform="translate(83.789062 0)"/>
       <use xlink:href="#DejaVuSans-30" transform="translate(147.412109 0)"/>
       <use xlink:href="#DejaVuSans-30" transform="translate(211.035156 0)"/>
       <use xlink:href="#DejaVuSans-30" transform="translate(274.658203 0)"/>
      </g>
     </g>
    </g>
    <g id="xtick_6">
     <g id="line2d_6">
      <g>
       <use xlink:href="#mbdd34c4072" x="281.760285" y="307.584" style="stroke: #000000; stroke-width: 0.8"/>
      </g>
     </g>
     <g id="text_6">
      <!-- −4000 -->
      <g transform="translate(264.845442 322.182437) scale(0.1 -0.1)">
       <use xlink:href="#DejaVuSans-2212"/>
       <use xlink:href="#DejaVuSans-34" transform="translate(83.789062 0)"/>
       <use xlink:href="#DejaVuSans-30" transform="translate(147.412109 0)"/>
       <use xlink:href="#DejaVuSans-30" transform="translate(211.035156 0)"/>
       <use xlink:href="#DejaVuSans-30" transform="translate(274.658203 0)"/>
      </g>
     </g>
    </g>
    <g id="xtick_7">
     <g id="line2d_7">
      <g>
       <use xlink:href="#mbdd34c4072" x="324.140983" y="307.584" style="stroke: #000000; stroke-width: 0.8"/>
      </g>
     </g>
     <g id="text_7">
      <!-- −2000 -->
      <g transform="translate(307.22614 322.182437) scale(0.1 -0.1)">
       <use xlink:href="#DejaVuSans-2212"/>
       <use xlink:href="#DejaVuSans-32" transform="translate(83.789062 0)"/>
       <use xlink:href="#DejaVuSans-30" transform="translate(147.412109 0)"/>
       <use xlink:href="#DejaVuSans-30" transform="translate(211.035156 0)"/>
       <use xlink:href="#DejaVuSans-30" transform="translate(274.658203 0)"/>
      </g>
     </g>
    </g>
    <g id="xtick_8">
     <g id="line2d_8">
      <g>
       <use xlink:href="#mbdd34c4072" x="366.521682" y="307.584" style="stroke: #000000; stroke-width: 0.8"/>
      </g>
     </g>
     <g id="text_8">
      <!-- 0 -->
      <g transform="translate(363.340432 322.182437) scale(0.1 -0.1)">
       <use xlink:href="#DejaVuSans-30"/>
      </g>
     </g>
    </g>
    <g id="xtick_9">
     <g id="line2d_9">
      <g>
       <use xlink:href="#mbdd34c4072" x="408.90238" y="307.584" style="stroke: #000000; stroke-width: 0.8"/>
      </g>
     </g>
     <g id="text_9">
      <!-- 2000 -->
      <g transform="translate(396.17738 322.182437) scale(0.1 -0.1)">
       <use xlink:href="#DejaVuSans-32"/>
       <use xlink:href="#DejaVuSans-30" transform="translate(63.623047 0)"/>
       <use xlink:href="#DejaVuSans-30" transform="translate(127.246094 0)"/>
       <use xlink:href="#DejaVuSans-30" transform="translate(190.869141 0)"/>
      </g>
     </g>
    </g>
   </g>
   <g id="matplotlib.axis_2">
    <g id="ytick_1">
     <g id="line2d_10">
      <defs>
       <path id="m1c5309ef75" d="M 0 0 
L -3.5 0 
" style="stroke: #000000; stroke-width: 0.8"/>
      </defs>
      <g>
       <use xlink:href="#m1c5309ef75" x="57.6" y="279.399215" style="stroke: #000000; stroke-width: 0.8"/>
      </g>
     </g>
     <g id="text_10">
      <!-- −12500 -->
      <g transform="translate(10.407812 283.198434) scale(0.1 -0.1)">
       <defs>
        <path id="DejaVuSans-35" d="M 691 4666 
L 3169 4666 
L 3169 4134 
L 1269 4134 
L 1269 2991 
Q 1406 3038 1543 3061 
Q 1681 3084 1819 3084 
Q 2600 3084 3056 2656 
Q 3513 2228 3513 1497 
Q 3513 744 3044 326 
Q 2575 -91 1722 -91 
Q 1428 -91 1123 -41 
Q 819 9 494 109 
L 494 744 
Q 775 591 1075 516 
Q 1375 441 1709 441 
Q 2250 441 2565 725 
Q 2881 1009 2881 1497 
Q 2881 1984 2565 2268 
Q 2250 2553 1709 2553 
Q 1456 2553 1204 2497 
Q 953 2441 691 2322 
L 691 4666 
z
" transform="scale(0.015625)"/>
       </defs>
       <use xlink:href="#DejaVuSans-2212"/>
       <use xlink:href="#DejaVuSans-31" transform="translate(83.789062 0)"/>
       <use xlink:href="#DejaVuSans-32" transform="translate(147.412109 0)"/>
       <use xlink:href="#DejaVuSans-35" transform="translate(211.035156 0)"/>
       <use xlink:href="#DejaVuSans-30" transform="translate(274.658203 0)"/>
       <use xlink:href="#DejaVuSans-30" transform="translate(338.28125 0)"/>
      </g>
     </g>
    </g>
    <g id="ytick_2">
     <g id="line2d_11">
      <g>
       <use xlink:href="#m1c5309ef75" x="57.6" y="243.62701" style="stroke: #000000; stroke-width: 0.8"/>
      </g>
     </g>
     <g id="text_11">
      <!-- −10000 -->
      <g transform="translate(10.407812 247.426229) scale(0.1 -0.1)">
       <use xlink:href="#DejaVuSans-2212"/>
       <use xlink:href="#DejaVuSans-31" transform="translate(83.789062 0)"/>
       <use xlink:href="#DejaVuSans-30" transform="translate(147.412109 0)"/>
       <use xlink:href="#DejaVuSans-30" transform="translate(211.035156 0)"/>
       <use xlink:href="#DejaVuSans-30" transform="translate(274.658203 0)"/>
       <use xlink:href="#DejaVuSans-30" transform="translate(338.28125 0)"/>
      </g>
     </g>
    </g>
    <g id="ytick_3">
     <g id="line2d_12">
      <g>
       <use xlink:href="#m1c5309ef75" x="57.6" y="207.854806" style="stroke: #000000; stroke-width: 0.8"/>
      </g>
     </g>
     <g id="text_12">
      <!-- −7500 -->
      <g transform="translate(16.770313 211.654025) scale(0.1 -0.1)">
       <defs>
        <path id="DejaVuSans-37" d="M 525 4666 
L 3525 4666 
L 3525 4397 
L 1831 0 
L 1172 0 
L 2766 4134 
L 525 4134 
L 525 4666 
z
" transform="scale(0.015625)"/>
       </defs>
       <use xlink:href="#DejaVuSans-2212"/>
       <use xlink:href="#DejaVuSans-37" transform="translate(83.789062 0)"/>
       <use xlink:href="#DejaVuSans-35" transform="translate(147.412109 0)"/>
       <use xlink:href="#DejaVuSans-30" transform="translate(211.035156 0)"/>
       <use xlink:href="#DejaVuSans-30" transform="translate(274.658203 0)"/>
      </g>
     </g>
    </g>
    <g id="ytick_4">
     <g id="line2d_13">
      <g>
       <use xlink:href="#m1c5309ef75" x="57.6" y="172.082602" style="stroke: #000000; stroke-width: 0.8"/>
      </g>
     </g>
     <g id="text_13">
      <!-- −5000 -->
      <g transform="translate(16.770313 175.88182) scale(0.1 -0.1)">
       <use xlink:href="#DejaVuSans-2212"/>
       <use xlink:href="#DejaVuSans-35" transform="translate(83.789062 0)"/>
       <use xlink:href="#DejaVuSans-30" transform="translate(147.412109 0)"/>
       <use xlink:href="#DejaVuSans-30" transform="translate(211.035156 0)"/>
       <use xlink:href="#DejaVuSans-30" transform="translate(274.658203 0)"/>
      </g>
     </g>
    </g>
    <g id="ytick_5">
     <g id="line2d_14">
      <g>
       <use xlink:href="#m1c5309ef75" x="57.6" y="136.310397" style="stroke: #000000; stroke-width: 0.8"/>
      </g>
     </g>
     <g id="text_14">
      <!-- −2500 -->
      <g transform="translate(16.770313 140.109616) scale(0.1 -0.1)">
       <use xlink:href="#DejaVuSans-2212"/>
       <use xlink:href="#DejaVuSans-32" transform="translate(83.789062 0)"/>
       <use xlink:href="#DejaVuSans-35" transform="translate(147.412109 0)"/>
       <use xlink:href="#DejaVuSans-30" transform="translate(211.035156 0)"/>
       <use xlink:href="#DejaVuSans-30" transform="translate(274.658203 0)"/>
      </g>
     </g>
    </g>
    <g id="ytick_6">
     <g id="line2d_15">
      <g>
       <use xlink:href="#m1c5309ef75" x="57.6" y="100.538193" style="stroke: #000000; stroke-width: 0.8"/>
      </g>
     </g>
     <g id="text_15">
      <!-- 0 -->
      <g transform="translate(44.2375 104.337412) scale(0.1 -0.1)">
       <use xlink:href="#DejaVuSans-30"/>
      </g>
     </g>
    </g>
    <g id="ytick_7">
     <g id="line2d_16">
      <g>
       <use xlink:href="#m1c5309ef75" x="57.6" y="64.765989" style="stroke: #000000; stroke-width: 0.8"/>
      </g>
     </g>
     <g id="text_16">
      <!-- 2500 -->
      <g transform="translate(25.15 68.565207) scale(0.1 -0.1)">
       <use xlink:href="#DejaVuSans-32"/>
       <use xlink:href="#DejaVuSans-35" transform="translate(63.623047 0)"/>
       <use xlink:href="#DejaVuSans-30" transform="translate(127.246094 0)"/>
       <use xlink:href="#DejaVuSans-30" transform="translate(190.869141 0)"/>
      </g>
     </g>
    </g>
   </g>
   <g id="line2d_17">
    <path d="M 366.521682 100.538193 
L 366.832451 101.57687 
L 366.975835 102.693504 
L 366.697065 105.851627 
L 367.604561 108.549774 
L 368.397665 110.054726 
L 369.998832 114.364413 
L 370.519738 115.791538 
L 371.312558 117.252751 
L 371.855339 118.619262 
L 372.437615 121.009515 
L 374.578045 126.232854 
L 374.580666 127.493913 
L 375.002997 129.782455 
L 374.873145 131.832156 
L 374.119292 133.522473 
L 373.414867 134.218513 
L 372.967988 135.026575 
L 372.826279 135.887781 
L 372.734913 137.146462 
L 373.238363 139.838718 
L 373.577166 141.253485 
L 374.604139 143.856363 
L 375.099148 144.544978 
L 375.736816 145.000962 
L 376.254964 146.311877 
L 375.502909 149.621704 
L 375.98845 150.615097 
L 375.945777 151.667168 
L 375.110868 152.282177 
L 373.955072 154.149762 
L 373.329225 154.703192 
L 372.470026 155.273285 
L 371.872457 155.91201 
L 370.86318 156.607037 
L 369.841685 157.519774 
L 367.55463 159.029674 
L 366.764652 159.491226 
L 365.884988 159.783899 
L 364.853759 160.713327 
L 363.70922 160.994091 
L 362.00511 161.052424 
L 361.535553 161.621813 
L 361.573533 162.437893 
L 358.165964 164.994489 
L 356.626842 165.544454 
L 352.552195 168.157436 
L 348.482308 169.544429 
L 345.66084 170.59602 
L 343.957659 171.28455 
L 342.63386 172.284332 
L 341.627483 173.299457 
L 340.402795 174.188704 
L 339.057569 175.91932 
L 336.085371 178.718771 
L 335.47733 179.531096 
L 334.463838 181.146835 
L 333.77927 182.049053 
L 332.61792 184.44622 
L 331.558067 185.791125 
L 327.887635 189.334983 
L 326.603824 190.338761 
L 324.121628 192.618571 
L 320.568131 194.982662 
L 319.233047 196.12941 
L 316.901384 198.798679 
L 314.3181 201.13585 
L 312.850916 202.299053 
L 311.699591 203.601185 
L 309.686942 207.277473 
L 308.828512 209.952093 
L 307.414651 212.077716 
L 306.806777 212.891788 
L 305.904095 213.692807 
L 304.609575 214.497232 
L 303.923084 215.442338 
L 303.496111 216.23531 
L 303.404928 217.187358 
L 302.512192 218.041522 
L 301.307272 218.821204 
L 300.412838 219.553556 
L 298.865542 220.609837 
L 298.293804 221.171 
L 297.922143 221.396449 
L 297.485315 221.18685 
L 297.227176 220.347908 
L 297.130058 219.670335 
L 296.564472 219.164758 
L 295.724367 218.883913 
L 294.517781 218.054908 
L 293.86617 218.42584 
L 293.293884 218.41305 
L 292.882811 218.757943 
L 291.923512 219.23851 
L 291.000778 219.853849 
L 290.859723 220.113907 
L 291.066792 220.295904 
L 291.191121 220.181773 
L 291.452562 220.154739 
L 291.421486 219.899975 
L 290.915177 218.767986 
L 290.989829 218.719196 
L 290.189642 218.326464 
L 289.536935 218.642813 
L 289.628337 218.743791 
L 289.881587 219.341063 
L 290.742187 220.084602 
L 291.304786 219.920929 
L 291.668378 219.753758 
L 291.335217 219.407055 
L 290.545191 219.256753 
L 289.817165 219.494791 
L 288.694241 220.139987 
L 288.329586 220.242757 
L 286.880464 220.905712 
L 284.668571 221.319851 
L 283.669925 221.3944 
L 282.378261 221.26793 
L 281.302702 221.292396 
L 278.308572 220.9291 
L 274.766168 221.322676 
L 273.481451 221.120203 
L 271.850608 220.658494 
L 270.479952 220.645094 
L 268.973629 220.485119 
L 267.326638 220.481793 
L 265.762683 220.251876 
L 262.500077 220.780075 
L 261.043958 221.147356 
L 259.325968 221.364505 
L 254.774471 221.133198 
L 252.175908 221.614368 
L 249.55543 221.351697 
L 248.960901 221.534553 
L 246.324665 221.725988 
L 245.119489 222.013993 
L 243.65941 222.579229 
L 242.602796 222.833452 
L 241.492491 222.855572 
L 240.341839 223.083071 
L 239.62988 223.343844 
L 236.820414 224.136531 
L 233.9977 225.244424 
L 231.008938 225.753713 
L 229.149123 225.689218 
L 227.404997 225.19152 
L 221.874464 224.191544 
L 220.001067 223.499841 
L 216.342835 222.527516 
L 215.260312 221.983404 
L 214.179429 221.776866 
L 212.706843 221.35953 
L 209.114004 221.460254 
L 206.991293 221.314154 
L 201.659907 222.263017 
L 197.966311 223.315536 
L 194.206033 223.850575 
L 189.109467 225.046054 
L 184.4257 226.275627 
L 179.883523 227.876475 
L 177.778489 228.549858 
L 175.35419 229.028664 
L 173.15717 229.755776 
L 170.955311 230.120031 
L 168.417258 230.264516 
L 165.688967 230.160874 
L 161.496122 230.370835 
L 159.90262 230.649993 
L 158.409562 231.148924 
L 156.933423 231.384592 
L 153.553341 232.316107 
L 149.378962 233.025136 
L 147.374823 233.603032 
L 145.529748 233.909574 
L 142.53063 234.868429 
L 140.677814 235.164264 
L 138.444118 236.002944 
L 136.384479 236.547069 
L 134.101761 237.280171 
L 133.479555 237.904473 
L 132.469053 238.526524 
L 130.774259 239.150485 
L 129.799069 239.699487 
L 129.289007 240.456885 
L 128.638438 241.128373 
L 127.190946 241.68038 
L 124.103603 242.033448 
L 122.669157 242.017179 
L 121.580773 242.136317 
L 117.859708 242.834844 
L 116.771037 243.458429 
L 115.535535 244.426841 
L 114.465653 245.605562 
L 112.148276 247.149365 
L 110.951385 248.661625 
L 110.876725 249.396314 
L 110.139095 250.200546 
L 108.754488 252.087736 
L 107.630738 252.944746 
L 106.468755 253.602137 
L 102.458312 254.997051 
L 100.921528 256.154933 
L 98.739341 258.633411 
L 97.129148 260.252013 
L 95.627198 262.013519 
L 93.949983 263.546336 
L 91.868689 265.115206 
L 89.935034 266.284415 
L 88.739959 267.637789 
L 87.824838 268.93677 
L 85.822281 271.062217 
L 84.02709 273.57835 
L 82.599078 276.178784 
L 81.309342 278.202847 
L 80.929755 279.143402 
L 80.26081 279.866902 
L 79.437928 280.295547 
L 78.273942 281.130187 
L 76.422738 282.027434 
L 75.906886 283.167627 
L 74.819706 284.225791 
L 73.832727 285.191833 
L 74.2822 286.190979 
L 74.863249 287.64264 
L 74.870504 287.876858 
L 76.285284 288.811698 
L 77.21778 289.68607 
L 78.295372 290.250359 
L 80.374372 290.734131 
L 80.839648 291.43776 
L 81.029088 292.099378 
L 82.116555 293.504219 
L 83.225898 293.829653 
L 83.790751 295.285753 
L 83.643848 295.488 
L 83.60928 295.291921 
L 83.045547 295.191432 
L 82.274568 295.28287 
L 81.712652 294.975608 
L 81.428129 294.452714 
L 80.925292 294.214883 
L 80.596985 292.705102 
L 80.547975 291.824873 
L 80.140206 290.804313 
L 80.319128 289.724906 
L 81.117861 288.894828 
L 81.597366 287.97458 
L 81.735562 287.542717 
L 81.743393 286.924837 
L 81.341323 286.420923 
L 80.44117 286.019071 
L 79.652139 286.113209 
L 80.034939 286.612581 
L 80.419765 286.315837 
L 81.112394 285.998361 
L 81.862833 285.312769 
L 82.441395 284.26071 
L 83.045388 283.441048 
L 83.700684 282.795095 
L 84.201622 282.117674 
L 85.027474 281.374335 
L 85.125814 280.701842 
L 85.444748 280.122787 
L 84.821404 278.417936 
L 84.790721 277.25512 
L 83.989425 275.281245 
L 83.873833 274.066317 
L 84.166137 272.782375 
L 84.136144 271.439771 
L 85.39218 267.444852 
L 85.648944 266.323166 
L 86.472393 264.972817 
L 86.570806 263.74966 
L 86.469024 263.118025 
L 86.185314 262.409236 
L 85.483082 261.66791 
L 83.745751 260.394591 
L 82.192956 259.61005 
L 81.925688 259.975792 
L 81.87557 259.932797 
L 81.697241 259.848895 
L 81.88914 259.418597 
L 82.051811 258.719729 
L 81.946649 258.486623 
L 81.697115 258.380488 
L 81.888415 257.401236 
L 81.924457 256.886641 
L 82.296177 256.403049 
L 82.104988 256.255703 
L 82.303491 256.228052 
L 82.713853 256.505019 
L 83.170444 256.596268 
L 83.668693 256.579567 
L 84.109556 256.704916 
L 84.783156 256.228591 
L 84.985202 256.13046 
L 85.172577 255.911961 
L 86.201146 255.683298 
L 86.274932 255.495916 
L 85.891301 255.433715 
L 86.15466 255.63817 
L 86.77382 255.426173 
L 87.950954 254.064748 
L 88.325764 254.024585 
L 88.936346 253.672805 
L 89.469575 253.052412 
L 89.284947 252.97933 
L 89.763354 252.874009 
L 90.345127 253.020484 
L 91.99941 252.831318 
L 92.628786 252.544494 
L 93.45798 252.379123 
L 93.836804 252.580762 
L 93.785628 252.960723 
L 93.506292 253.239816 
L 93.846828 254.620434 
L 94.844116 255.704105 
L 95.142149 256.33372 
L 95.772042 257.092514 
L 95.34366 257.211493 
L 95.358551 257.05426 
L 94.754912 257.009658 
L 94.029162 256.735092 
L 93.316568 256.326329 
L 92.917271 255.928009 
L 92.112936 255.395353 
L 91.379775 253.354327 
L 91.085218 253.212364 
L 90.530157 253.100543 
L 89.99437 252.866607 
L 88.987922 252.09324 
L 88.652357 251.576474 
L 88.718653 251.355356 
L 89.340798 251.050601 
L 90.400861 251.040754 
L 91.400317 251.39826 
L 92.268703 251.34678 
L 92.235305 251.699258 
L 94.115613 251.942776 
L 94.767614 252.349084 
L 95.390961 252.487738 
L 96.084454 252.324708 
L 96.227196 252.421799 
L 96.36514 252.303729 
L 96.329892 252.615506 
L 96.818566 252.643597 
L 98.823852 251.571777 
L 98.8822 250.370135 
L 98.382557 249.969927 
L 98.002675 249.462429 
L 97.777429 248.806588 
L 97.993148 248.33916 
L 97.364604 247.734511 
L 96.966091 247.376751 
L 96.831653 246.997181 
L 97.214809 246.770685 
L 97.561026 246.394503 
L 97.763738 245.815968 
L 98.260828 245.393928 
L 98.204926 245.172054 
L 98.481298 245.115246 
L 99.05323 245.51264 
L 99.668227 245.695154 
L 100.722986 245.257377 
L 100.695166 245.424943 
L 101.001272 245.58289 
L 101.445971 245.470127 
L 103.218508 245.495914 
L 103.827384 245.678191 
L 104.116266 245.999768 
L 104.603606 246.020813 
L 105.577501 246.692583 
L 106.209764 247.185486 
L 108.261448 247.81755 
L 112.014903 249.0662 
L 113.32686 249.275071 
L 114.062311 249.711794 
L 115.217866 250.591359 
L 117.272931 251.127763 
L 118.61241 251.421808 
L 119.963599 252.003621 
L 123.79805 252.568525 
L 125.937498 253.121056 
L 133.642898 254.779155 
L 136.578588 255.206017 
L 139.972139 255.326162 
L 143.372484 255.745586 
L 152.787684 256.424882 
L 155.721536 256.375478 
L 161.469812 256.796655 
L 164.336812 257.025468 
L 166.828267 257.003494 
L 169.148413 256.816171 
L 171.596198 256.858384 
L 174.612412 257.038841 
L 177.200215 256.939329 
L 181.83274 256.353684 
L 183.86968 256.023064 
L 185.662439 255.555339 
L 187.813929 255.25086 
L 192.648074 254.198636 
L 194.645606 253.869764 
L 199.36226 252.755592 
L 201.821331 252.270025 
L 205.245634 251.834385 
L 206.115963 251.460604 
L 207.231439 250.853236 
L 208.058449 250.231804 
L 210.439156 249.279629 
L 211.430761 248.509493 
L 211.82193 247.785921 
L 215.80346 244.136908 
L 216.916668 242.480811 
L 217.374971 241.768596 
L 218.25363 241.204759 
L 221.043266 240.034254 
L 222.213314 239.771722 
L 223.075991 238.815325 
L 223.674035 237.947371 
L 224.175971 236.66515 
L 225.041476 236.557509 
L 225.690164 236.656273 
L 226.11607 237.03324 
L 227.247606 238.536247 
L 227.323082 238.893256 
L 227.770549 239.313708 
L 228.318124 239.607203 
L 229.067765 239.835034 
L 230.539332 239.927439 
L 230.712869 239.901257 
L 231.279275 240.253609 
L 232.144891 240.638134 
L 232.995376 240.697005 
L 233.233395 241.04163 
L 233.19415 241.245591 
L 233.318063 241.134844 
L 233.353498 241.149212 
L 233.326616 240.996314 
L 234.411988 240.482581 
L 235.561714 240.392662 
L 236.766487 240.474049 
L 238.497838 240.406292 
L 243.75795 239.742938 
L 246.190492 239.03343 
L 250.813273 237.126749 
L 253.752758 235.932667 
L 256.328205 234.473894 
L 260.529181 232.333859 
L 267.6738 229.97914 
L 269.950165 228.941834 
L 282.109337 222.520387 
L 283.661801 221.466321 
L 287.498122 219.501837 
L 292.011832 216.586613 
L 293.612099 215.983977 
L 295.31361 215.539965 
L 296.733554 215.018246 
L 298.270266 214.145666 
L 300.96956 213.038638 
L 304.197965 212.742146 
L 307.312586 211.710731 
L 308.90011 211.173603 
L 311.00743 210.281848 
L 313.120474 209.71733 
L 315.293947 209.409069 
L 317.287762 209.286812 
L 319.463402 208.787223 
L 320.980958 208.161911 
L 322.613778 207.733887 
L 323.792154 207.661839 
L 324.890299 207.727798 
L 326.965468 207.203962 
L 327.752131 206.836254 
L 328.190096 206.340152 
L 329.288654 205.552593 
L 330.550537 204.800311 
L 333.292706 203.661521 
L 334.305199 202.709534 
L 335.439322 201.429717 
L 337.032341 200.317296 
L 342.081088 198.20607 
L 343.693165 197.150621 
L 345.351148 195.899874 
L 349.97669 193.861179 
L 351.894151 193.051323 
L 357.947578 190.84807 
L 365.439753 189.357435 
L 367.321862 188.716767 
L 370.295832 187.343352 
L 371.553291 186.599824 
L 372.854747 185.569295 
L 374.015856 184.984755 
L 376.310993 183.087843 
L 377.269562 182.587747 
L 377.780545 181.893384 
L 380.499151 180.579354 
L 381.684584 179.844856 
L 382.35473 178.986582 
L 382.804741 178.041415 
L 384.376902 175.751381 
L 385.360641 173.495064 
L 386.137376 172.421167 
L 386.402627 171.041253 
L 386.434562 170.097414 
L 387.476134 168.18011 
L 389.149349 166.387562 
L 390.048736 165.600073 
L 392.400421 162.677447 
L 393.097765 161.275251 
L 393.350704 159.001504 
L 393.278876 157.746878 
L 393.427576 156.260708 
L 394.200324 152.107923 
L 396.107714 145.902471 
L 396.391507 144.133546 
L 396.894286 142.724087 
L 397.338524 139.29143 
L 397.667879 137.527284 
L 397.492733 135.909682 
L 398.487273 132.494285 
L 398.211436 130.94174 
L 397.752589 129.411204 
L 396.269941 125.90371 
L 393.988718 122.492813 
L 392.783523 119.086573 
L 391.584617 117.652285 
L 390.866787 116.20662 
L 389.889278 114.597745 
L 388.99892 112.665009 
L 387.991905 110.888282 
L 386.928993 107.278756 
L 386.593615 105.79833 
L 385.999574 104.535293 
L 383.70386 100.611876 
L 382.889737 99.193567 
L 381.834874 97.757893 
L 381.157534 96.597111 
L 379.913636 95.417993 
L 376.480725 93.173491 
L 372.033763 89.841375 
L 370.775316 88.662616 
L 369.011619 86.305304 
L 364.473403 77.137627 
L 363.954833 76.496614 
L 363.290705 75.868087 
L 362.591028 74.960379 
L 362.539638 73.19868 
L 361.984533 72.446218 
L 361.912876 70.887527 
L 362.668983 70.135931 
L 362.463211 69.76175 
L 362.087654 69.322262 
L 361.509086 69.010709 
L 359.45459 68.250387 
L 358.16086 68.169697 
L 355.418252 68.233173 
L 353.381665 68.02241 
L 351.232246 67.376091 
L 350.144287 66.895949 
L 349.124816 66.151193 
L 348.03665 65.5314 
L 347.068391 64.664895 
L 344.309121 62.890243 
L 343.485157 62.457774 
L 342.743495 61.79484 
L 342.553285 61.323453 
L 342.635973 60.786658 
L 343.190529 60.085242 
L 343.302797 59.493325 
L 343.64994 59.195252 
L 343.984326 59.566729 
L 344.300109 59.561285 
L 345.25274 59.937619 
L 345.592797 59.886253 
L 345.886916 59.433213 
L 346.148459 59.29662 
L 345.796389 59.190182 
L 345.380067 58.722604 
L 345.433193 58.329924 
L 345.300731 57.67818 
L 344.065456 56.503592 
L 342.532347 56.502452 
L 341.455342 56.744637 
L 340.21251 57.213445 
L 339.533141 57.326594 
L 336.994955 57.488315 
L 336.024803 57.742864 
L 334.89725 58.169641 
L 333.319708 58.441773 
L 331.236399 59.106671 
L 330.408828 58.900753 
L 329.793475 58.625393 
L 329.073745 58.134334 
L 327.554338 56.343903 
L 327.152378 55.684914 
L 326.684749 55.601475 
L 326.119568 55.319684 
L 325.740069 54.719238 
L 325.715318 54.101073 
L 325.823181 53.744393 
L 326.141491 53.595489 
L 327.149217 53.568 
L 328.219728 53.686884 
L 328.848535 53.681419 
L 329.046309 53.895124 
L 328.68757 54.39378 
L 328.593595 54.967712 
L 327.68941 55.771333 
L 327.701607 55.757794 
L 327.452734 55.809089 
L 327.345907 55.633994 
L 327.460148 55.425439 
L 326.792276 55.68113 
L 326.718027 55.836826 
L 326.641958 56.277836 
L 326.782993 56.286338 
L 328.380891 56.963599 
L 329.211716 57.167601 
L 329.87547 57.600204 
L 330.303919 58.081059 
L 330.473535 58.7181 
L 331.109987 58.979829 
L 330.840846 59.026173 
L 332.833981 58.763051 
L 333.220354 58.791368 
L 333.720232 59.337434 
L 333.877534 59.580396 
L 334.569597 59.534091 
L 335.199634 59.31181 
L 336.084229 58.589893 
L 336.887601 58.606659 
L 339.078078 58.207748 
L 339.546609 57.664499 
L 339.249365 57.337813 
L 339.330231 56.717994 
L 340.120311 55.545482 
L 339.808422 54.930394 
L 339.877445 54.813111 
L 340.353725 54.860802 
L 340.968314 54.743397 
L 340.966852 54.833791 
L 341.407009 54.99958 
L 342.782357 55.968107 
L 343.204212 56.645248 
L 343.430157 57.260475 
L 344.008082 57.770159 
L 345.181599 58.129728 
L 344.97811 58.348227 
L 345.265669 58.654174 
L 345.413709 59.193126 
L 346.570054 60.061248 
L 347.097091 60.371375 
L 348.152841 60.588902 
L 348.84958 60.933849 
L 350.410667 62.761837 
L 352.066976 64.045239 
L 352.694034 64.809683 
L 353.07776 65.489466 
L 353.323628 67.126029 
L 354.050211 68.713007 
L 354.887277 69.449354 
L 355.496276 70.354524 
L 356.009061 71.432244 
L 359.285637 73.920074 
L 360.539042 75.93548 
L 360.653212 76.849959 
L 360.62542 78.64138 
L 360.375119 79.758847 
L 360.382177 81.027806 
L 361.704776 83.990491 
L 361.765205 84.867523 
L 361.483934 85.443514 
L 361.746871 89.846421 
L 361.584091 91.069214 
L 361.771588 92.896801 
L 361.579927 93.675078 
L 361.501124 94.65678 
L 361.816621 95.634074 
L 362.630615 96.597224 
L 364.74476 97.784343 
L 365.554459 98.400443 
L 365.948912 99.332953 
L 365.948912 99.332953 
" clip-path="url(#pa22547bc6b)" style="fill: none; stroke: #1f77b4; stroke-width: 1.5; stroke-linecap: square"/>
   </g>
   <g id="patch_3">
    <path d="M 57.6 307.584 
L 57.6 41.472 
" style="fill: none; stroke: #000000; stroke-width: 0.8; stroke-linejoin: miter; stroke-linecap: square"/>
   </g>
   <g id="patch_4">
    <path d="M 414.72 307.584 
L 414.72 41.472 
" style="fill: none; stroke: #000000; stroke-width: 0.8; stroke-linejoin: miter; stroke-linecap: square"/>
   </g>
   <g id="patch_5">
    <path d="M 57.6 307.584 
L 414.72 307.584 
" style="fill: none; stroke: #000000; stroke-width: 0.8; stroke-linejoin: miter; stroke-linecap: square"/>
   </g>
   <g id="patch_6">
    <path d="M 57.6 41.472 
L 414.72 41.472 
" style="fill: none; stroke: #000000; stroke-width: 0.8; stroke-linejoin: miter; stroke-linecap: square"/>
   </g>
  </g>
 </g>
 <defs>
  <clipPath id="pa22547bc6b">
   <rect x="57.6" y="41.472" width="357.12" height="266.112"/>
  </clipPath>
 </defs>
</svg>
