<?xml version="1.0" encoding="utf-8" standalone="no"?>
<!DOCTYPE svg PUBLIC "-//W3C//DTD SVG 1.1//EN"
  "http://www.w3.org/Graphics/SVG/1.1/DTD/svg11.dtd">
<svg xmlns:xlink="http://www.w3.org/1999/xlink" width="460.8pt" height="345.6pt" viewBox="0 0 460.8 345.6" xmlns="http://www.w3.org/2000/svg" version="1.1">
 <metadata>
  <rdf:RDF xmlns:dc="http://purl.org/dc/elements/1.1/" xmlns:cc="http://creativecommons.org/ns#" xmlns:rdf="http://www.w3.org/1999/02/22-rdf-syntax-ns#">
   <cc:Work>
    <dc:type rdf:resource="http://purl.org/dc/dcmitype/StillImage"/>
    <dc:date>2025-12-15T10:14:26.253831</dc:date>
    <dc:format>image/svg+xml</dc:format>
    <dc:creator>
     <cc:Agent>
      <dc:title>Matplotlib v3.10.6, https://matplotlib.org/</dc:title>
     </cc:Agent>
    </dc:creator>
   </cc:Work>
  </rdf:RDF>
 </metadata>
 <defs>
  <style type="text/css">*{stroke-linejoin: round; stroke-linecap: butt}</style>
 </defs>
 <g id="figure_1">
  <g id="patch_1">
   <path d="M 0 345.6 
L 460.8 345.6 
L 460.8 0 
L 0 0 
z
" style="fill: #ffffff"/>
  </g>
  <g id="axes_1">
   <g id="patch_2">
    <path d="M 83.6075 266.245 
L 426.847748 266.245 
L 426.847748 25.92 
L 83.6075 25.92 
z
" style="fill: #ffffff"/>
   </g>
   <g id="matplotlib.axis_1">
    <g id="xtick_1">
     <g id="line2d_1">
      <path d="M 99.209329 266.245 
L 99.209329 25.92 
" clip-path="url(#pc9762ec7f8)" style="fill: none; stroke: #b0b0b0; stroke-width: 0.8; stroke-linecap: square"/>
     </g>
     <g id="line2d_2">
      <defs>
       <path id="m2720acc97e" d="M 0 0 
L 0 3.5 
" style="stroke: #000000; stroke-width: 0.8"/>
      </defs>
      <g>
       <use xlink:href="#m2720acc97e" x="99.209329" y="266.245" style="stroke: #000000; stroke-width: 0.8"/>
      </g>
     </g>
     <g id="text_1">
      <!-- 0 -->
      <g transform="translate(93.209329 289.63625) scale(0.24 -0.24)">
       <defs>
        <path id="TeXGyreTermes-Regular-30" d="M 3046 2112 
C 3046 3424 2464 4326 1626 4326 
C 1274 4326 1005 4218 768 3994 
C 397 3635 154 2899 154 2150 
C 154 1453 365 704 666 346 
C 902 64 1229 -90 1600 -90 
C 1926 -90 2202 19 2432 243 
C 2803 595 3046 1338 3046 2112 
z
M 2432 2099 
C 2432 762 2150 77 1600 77 
C 1050 77 768 762 768 2093 
C 768 3450 1056 4160 1606 4160 
C 2144 4160 2432 3437 2432 2099 
z
" transform="scale(0.015625)"/>
       </defs>
       <use xlink:href="#TeXGyreTermes-Regular-30"/>
      </g>
     </g>
    </g>
    <g id="xtick_2">
     <g id="line2d_3">
      <path d="M 255.383798 266.245 
L 255.383798 25.92 
" clip-path="url(#pc9762ec7f8)" style="fill: none; stroke: #b0b0b0; stroke-width: 0.8; stroke-linecap: square"/>
     </g>
     <g id="line2d_4">
      <g>
       <use xlink:href="#m2720acc97e" x="255.383798" y="266.245" style="stroke: #000000; stroke-width: 0.8"/>
      </g>
     </g>
     <g id="text_2">
      <!-- 500 -->
      <g transform="translate(237.383798 289.63625) scale(0.24 -0.24)">
       <defs>
        <path id="TeXGyreTermes-Regular-35" d="M 2803 4358 
L 2746 4403 
C 2650 4269 2586 4237 2451 4237 
L 1114 4237 
L 416 2720 
C 410 2707 410 2688 410 2688 
C 410 2656 435 2637 486 2637 
C 691 2637 947 2592 1210 2509 
C 1946 2272 2285 1875 2285 1242 
C 2285 627 1894 147 1395 147 
C 1267 147 1158 192 966 333 
C 762 480 614 544 480 544 
C 294 544 205 467 205 307 
C 205 64 506 -90 986 -90 
C 1523 -90 1984 83 2304 410 
C 2598 698 2733 1062 2733 1549 
C 2733 2010 2611 2304 2291 2624 
C 2010 2906 1645 3053 890 3187 
L 1158 3731 
L 2413 3731 
C 2515 3731 2541 3744 2560 3789 
L 2803 4358 
z
" transform="scale(0.015625)"/>
       </defs>
       <use xlink:href="#TeXGyreTermes-Regular-35"/>
       <use xlink:href="#TeXGyreTermes-Regular-30" transform="translate(49.999985 0)"/>
       <use xlink:href="#TeXGyreTermes-Regular-30" transform="translate(99.999969 0)"/>
      </g>
     </g>
    </g>
    <g id="xtick_3">
     <g id="line2d_5">
      <path d="M 411.558267 266.245 
L 411.558267 25.92 
" clip-path="url(#pc9762ec7f8)" style="fill: none; stroke: #b0b0b0; stroke-width: 0.8; stroke-linecap: square"/>
     </g>
     <g id="line2d_6">
      <g>
       <use xlink:href="#m2720acc97e" x="411.558267" y="266.245" style="stroke: #000000; stroke-width: 0.8"/>
      </g>
     </g>
     <g id="text_3">
      <!-- 1000 -->
      <g transform="translate(387.558267 289.63625) scale(0.24 -0.24)">
       <defs>
        <path id="TeXGyreTermes-Regular-31" d="M 2522 0 
L 2522 96 
C 2016 102 1914 166 1914 474 
L 1914 4314 
L 1862 4326 
L 710 3744 
L 710 3654 
C 787 3686 858 3712 883 3725 
C 998 3770 1107 3795 1171 3795 
C 1306 3795 1363 3699 1363 3494 
L 1363 595 
C 1363 384 1312 237 1210 179 
C 1114 122 1024 102 755 96 
L 755 0 
L 2522 0 
z
" transform="scale(0.015625)"/>
       </defs>
       <use xlink:href="#TeXGyreTermes-Regular-31"/>
       <use xlink:href="#TeXGyreTermes-Regular-30" transform="translate(49.999985 0)"/>
       <use xlink:href="#TeXGyreTermes-Regular-30" transform="translate(99.999969 0)"/>
       <use xlink:href="#TeXGyreTermes-Regular-30" transform="translate(149.999954 0)"/>
      </g>
     </g>
    </g>
    <g id="text_4">
     <!-- Schritt k -->
     <g transform="translate(214.225124 315.23625) scale(0.24 -0.24)">
      <defs>
       <path id="TeXGyreTermes-Regular-53" d="M 3142 1075 
C 3142 1606 2790 2016 1946 2477 
C 1274 2842 1005 3123 1005 3475 
C 1005 3827 1274 4064 1670 4064 
C 1958 4064 2227 3942 2451 3712 
C 2650 3507 2739 3341 2842 2963 
L 3002 2963 
L 2861 4326 
L 2726 4326 
C 2701 4186 2630 4109 2522 4109 
C 2458 4109 2355 4134 2240 4186 
C 2003 4275 1773 4326 1549 4326 
C 1299 4326 1030 4224 826 4058 
C 576 3853 454 3578 454 3226 
C 454 2720 736 2362 1453 1984 
C 1914 1734 2246 1478 2406 1235 
C 2464 1146 2496 1018 2496 858 
C 2496 435 2176 141 1709 141 
C 1133 141 736 493 416 1274 
L 269 1274 
L 461 -83 
L 602 -83 
C 608 38 685 128 781 128 
C 851 128 960 102 1082 58 
C 1325 -38 1581 -90 1837 -90 
C 2579 -90 3142 416 3142 1075 
z
" transform="scale(0.015625)"/>
       <path id="TeXGyreTermes-Regular-63" d="M 2637 941 
L 2547 998 
C 2240 550 2010 397 1645 397 
C 1056 397 653 909 653 1645 
C 653 2310 1005 2758 1523 2758 
C 1754 2758 1837 2688 1901 2451 
L 1939 2310 
C 1990 2125 2106 2016 2246 2016 
C 2413 2016 2547 2138 2547 2285 
C 2547 2643 2099 2944 1562 2944 
C 1261 2944 954 2829 698 2618 
C 352 2330 160 1888 160 1357 
C 160 531 666 -64 1376 -64 
C 1651 -64 1894 26 2112 205 
C 2304 358 2432 544 2637 941 
z
" transform="scale(0.015625)"/>
       <path id="TeXGyreTermes-Regular-68" d="M 3117 0 
L 3117 96 
C 2771 160 2733 211 2733 653 
L 2733 1926 
C 2733 2598 2464 2944 1946 2944 
C 1568 2944 1299 2790 1005 2406 
L 1005 4352 
L 973 4371 
C 755 4294 595 4243 237 4141 
L 64 4090 
L 64 3987 
C 90 3994 109 3994 141 3994 
C 416 3994 467 3942 467 3667 
L 467 653 
C 467 205 429 147 58 96 
L 58 0 
L 1440 0 
L 1440 96 
C 1069 134 1005 211 1005 653 
L 1005 2195 
C 1274 2490 1466 2598 1715 2598 
C 2035 2598 2195 2368 2195 1920 
L 2195 653 
C 2195 218 2131 134 1760 96 
L 1760 0 
L 3117 0 
z
" transform="scale(0.015625)"/>
       <path id="TeXGyreTermes-Regular-72" d="M 2144 2605 
C 2144 2816 2010 2944 1792 2944 
C 1523 2944 1338 2797 1024 2342 
L 1024 2931 
L 992 2944 
C 653 2803 422 2720 45 2598 
L 45 2496 
C 134 2515 192 2522 269 2522 
C 429 2522 486 2419 486 2138 
L 486 538 
C 486 218 442 173 32 96 
L 32 0 
L 1568 0 
L 1568 96 
C 1133 115 1024 211 1024 576 
L 1024 2016 
C 1024 2221 1299 2541 1472 2541 
C 1510 2541 1568 2509 1638 2445 
C 1741 2355 1811 2317 1894 2317 
C 2048 2317 2144 2426 2144 2605 
z
" transform="scale(0.015625)"/>
       <path id="TeXGyreTermes-Regular-69" d="M 1619 0 
L 1619 96 
C 1197 128 1146 192 1146 653 
L 1146 2925 
L 1120 2944 
L 128 2592 
L 128 2496 
L 179 2502 
C 256 2515 339 2522 397 2522 
C 550 2522 608 2419 608 2138 
L 608 653 
C 608 192 544 122 102 96 
L 102 0 
L 1619 0 
z
M 1203 3776 
C 1203 3955 1062 4102 877 4102 
C 698 4102 550 3955 550 3776 
C 550 3590 698 3450 877 3450 
C 1062 3450 1203 3590 1203 3776 
z
" transform="scale(0.015625)"/>
       <path id="TeXGyreTermes-Regular-74" d="M 1786 422 
L 1702 493 
C 1562 326 1459 269 1318 269 
C 1082 269 986 435 986 845 
L 986 2675 
L 1632 2675 
L 1632 2880 
L 986 2880 
L 986 3622 
C 986 3686 973 3706 941 3706 
C 902 3642 858 3584 813 3526 
C 576 3174 358 2938 192 2842 
C 122 2797 83 2758 83 2720 
C 83 2701 90 2688 109 2675 
L 448 2675 
L 448 749 
C 448 211 640 -64 1011 -64 
C 1331 -64 1574 90 1786 422 
z
" transform="scale(0.015625)"/>
       <path id="TeXGyreTermes-Regular-20" transform="scale(0.015625)"/>
       <path id="TeXGyreTermes-Regular-6b" d="M 3232 0 
L 3232 96 
C 2950 115 2752 237 2483 563 
L 1504 1805 
L 1690 1978 
C 2144 2400 2541 2694 2726 2746 
C 2822 2771 2912 2784 3021 2784 
L 3072 2784 
L 3072 2880 
L 1766 2880 
L 1766 2790 
C 2016 2784 2086 2758 2086 2669 
C 2086 2618 2029 2528 1939 2451 
L 1062 1670 
L 1062 4358 
L 1037 4371 
L 237 4141 
L 45 4090 
L 45 3987 
C 128 3994 186 4000 250 4000 
C 461 4000 525 3917 525 3610 
L 525 525 
C 525 192 506 173 45 96 
L 45 0 
L 1542 0 
L 1542 96 
L 1414 102 
C 1158 115 1062 205 1062 429 
L 1062 1606 
L 1958 410 
L 1978 384 
C 1990 365 2003 346 2022 326 
C 2074 262 2093 224 2093 192 
C 2093 134 2035 96 1958 96 
L 1837 96 
L 1837 0 
L 3232 0 
z
" transform="scale(0.015625)"/>
      </defs>
      <use xlink:href="#TeXGyreTermes-Regular-53"/>
      <use xlink:href="#TeXGyreTermes-Regular-63" transform="translate(55.599991 0)"/>
      <use xlink:href="#TeXGyreTermes-Regular-68" transform="translate(99.999985 0)"/>
      <use xlink:href="#TeXGyreTermes-Regular-72" transform="translate(149.999969 0)"/>
      <use xlink:href="#TeXGyreTermes-Regular-69" transform="translate(183.299957 0)"/>
      <use xlink:href="#TeXGyreTermes-Regular-74" transform="translate(211.099945 0)"/>
      <use xlink:href="#TeXGyreTermes-Regular-74" transform="translate(238.899933 0)"/>
      <use xlink:href="#TeXGyreTermes-Regular-20" transform="translate(266.699921 0)"/>
      <use xlink:href="#TeXGyreTermes-Regular-6b" transform="translate(291.699905 0)"/>
     </g>
    </g>
   </g>
   <g id="matplotlib.axis_2">
    <g id="ytick_1">
     <g id="line2d_7">
      <path d="M 83.6075 211.003323 
L 426.847748 211.003323 
" clip-path="url(#pc9762ec7f8)" style="fill: none; stroke: #b0b0b0; stroke-width: 0.8; stroke-linecap: square"/>
     </g>
     <g id="line2d_8">
      <defs>
       <path id="m0a67807b3c" d="M 0 0 
L -3.5 0 
" style="stroke: #000000; stroke-width: 0.8"/>
      </defs>
      <g>
       <use xlink:href="#m0a67807b3c" x="83.6075" y="211.003323" style="stroke: #000000; stroke-width: 0.8"/>
      </g>
     </g>
     <g id="text_5">
      <!-- −2 -->
      <g transform="translate(51.07 219.198948) scale(0.24 -0.24)">
       <defs>
        <path id="TeXGyreTermes-Regular-2212" d="M 3354 1389 
L 3354 1811 
L 256 1811 
L 256 1389 
L 3354 1389 
z
" transform="scale(0.015625)"/>
        <path id="TeXGyreTermes-Regular-32" d="M 3040 877 
L 2957 909 
C 2720 544 2637 486 2349 486 
L 819 486 
L 1894 1613 
C 2464 2208 2714 2694 2714 3194 
C 2714 3834 2195 4326 1530 4326 
C 1178 4326 845 4186 608 3930 
C 403 3712 307 3507 198 3053 
L 333 3021 
C 589 3648 819 3853 1261 3853 
C 1798 3853 2163 3488 2163 2950 
C 2163 2451 1869 1856 1331 1286 
L 192 77 
L 192 0 
L 2688 0 
L 3040 877 
z
" transform="scale(0.015625)"/>
       </defs>
       <use xlink:href="#TeXGyreTermes-Regular-2212"/>
       <use xlink:href="#TeXGyreTermes-Regular-32" transform="translate(56.399994 0)"/>
      </g>
     </g>
    </g>
    <g id="ytick_2">
     <g id="line2d_9">
      <path d="M 83.6075 139.339075 
L 426.847748 139.339075 
" clip-path="url(#pc9762ec7f8)" style="fill: none; stroke: #b0b0b0; stroke-width: 0.8; stroke-linecap: square"/>
     </g>
     <g id="line2d_10">
      <g>
       <use xlink:href="#m0a67807b3c" x="83.6075" y="139.339075" style="stroke: #000000; stroke-width: 0.8"/>
      </g>
     </g>
     <g id="text_6">
      <!-- 0 -->
      <g transform="translate(64.6075 147.5347) scale(0.24 -0.24)">
       <use xlink:href="#TeXGyreTermes-Regular-30"/>
      </g>
     </g>
    </g>
    <g id="ytick_3">
     <g id="line2d_11">
      <path d="M 83.6075 67.674827 
L 426.847748 67.674827 
" clip-path="url(#pc9762ec7f8)" style="fill: none; stroke: #b0b0b0; stroke-width: 0.8; stroke-linecap: square"/>
     </g>
     <g id="line2d_12">
      <g>
       <use xlink:href="#m0a67807b3c" x="83.6075" y="67.674827" style="stroke: #000000; stroke-width: 0.8"/>
      </g>
     </g>
     <g id="text_7">
      <!-- 2 -->
      <g transform="translate(64.6075 75.870452) scale(0.24 -0.24)">
       <use xlink:href="#TeXGyreTermes-Regular-32"/>
      </g>
     </g>
    </g>
    <g id="text_8">
     <!-- x(k) -->
     <g transform="translate(41.86125 166.07375) rotate(-90) scale(0.24 -0.24)">
      <defs>
       <path id="TeXGyreTermes-Regular-78" d="M 3066 0 
L 3066 96 
C 2867 96 2739 198 2541 480 
L 1722 1734 
L 2253 2502 
C 2374 2675 2566 2778 2771 2784 
L 2771 2880 
L 1760 2880 
L 1760 2784 
C 1952 2771 2016 2733 2016 2643 
C 2016 2566 1939 2426 1779 2227 
C 1747 2189 1670 2074 1587 1946 
L 1498 2074 
C 1318 2342 1203 2560 1203 2643 
C 1203 2733 1286 2778 1478 2784 
L 1478 2880 
L 154 2880 
L 154 2784 
L 211 2784 
C 403 2784 506 2701 704 2400 
L 1306 1478 
L 576 422 
C 384 160 320 115 109 96 
L 109 0 
L 1037 0 
L 1037 96 
C 858 96 781 128 781 211 
C 781 250 826 346 909 474 
L 1414 1261 
L 1997 365 
C 2022 326 2035 288 2035 250 
C 2035 134 1990 109 1779 96 
L 1779 0 
L 3066 0 
z
" transform="scale(0.015625)"/>
       <path id="TeXGyreTermes-Regular-28" d="M 1946 -1030 
C 1434 -627 1254 -403 1082 77 
C 928 506 858 992 858 1632 
C 858 2304 941 2829 1114 3226 
C 1293 3622 1485 3853 1946 4224 
L 1888 4326 
C 1414 4019 1222 3853 986 3558 
C 531 3002 307 2362 307 1613 
C 307 800 544 173 1107 -480 
C 1370 -787 1536 -928 1869 -1133 
L 1946 -1030 
z
" transform="scale(0.015625)"/>
       <path id="TeXGyreTermes-Regular-29" d="M 1824 1581 
C 1824 2400 1587 3021 1024 3674 
C 762 3981 595 4122 262 4326 
L 186 4224 
C 698 3821 870 3597 1050 3117 
C 1203 2688 1274 2202 1274 1562 
C 1274 896 1190 365 1018 -26 
C 838 -429 646 -659 186 -1030 
L 243 -1133 
C 717 -826 909 -659 1146 -365 
C 1600 192 1824 832 1824 1581 
z
" transform="scale(0.015625)"/>
      </defs>
      <use xlink:href="#TeXGyreTermes-Regular-78"/>
      <use xlink:href="#TeXGyreTermes-Regular-28" transform="translate(49.999985 0)"/>
      <use xlink:href="#TeXGyreTermes-Regular-6b" transform="translate(83.299973 0)"/>
      <use xlink:href="#TeXGyreTermes-Regular-29" transform="translate(133.299957 0)"/>
     </g>
    </g>
   </g>
   <g id="line2d_13">
    <path d="M 99.209329 139.423637 
L 99.521678 158.92386 
L 100.146376 74.197108 
L 100.458725 159.694106 
L 100.771074 108.528085 
L 101.083423 162.537118 
L 101.708121 88.766718 
L 102.02047 132.009161 
L 102.332819 146.940071 
L 102.645168 248.801429 
L 103.269866 130.73166 
L 103.582215 187.494742 
L 104.206912 138.795601 
L 104.519261 187.230168 
L 105.143959 169.721797 
L 105.456308 110.179926 
L 105.768657 176.595355 
L 106.081006 69.260526 
L 106.393355 177.528955 
L 107.018053 158.868818 
L 107.330402 90.578785 
L 107.642751 216.1338 
L 107.9551 160.906849 
L 108.267449 132.717102 
L 108.579798 88.895048 
L 108.892147 98.832462 
L 109.204495 130.560225 
L 109.516844 107.935942 
L 109.829193 168.142238 
L 110.141542 201.710526 
L 110.453891 135.273026 
L 110.76624 181.351463 
L 111.078589 124.779831 
L 111.390938 123.138228 
L 111.703287 94.443028 
L 112.015636 158.813675 
L 112.327985 86.192781 
L 112.640334 196.577672 
L 112.952683 182.23263 
L 113.265032 106.299349 
L 113.577381 112.918041 
L 113.88973 107.879713 
L 114.202078 146.573807 
L 114.826776 106.490156 
L 115.139125 48.441532 
L 115.451474 166.700258 
L 115.763823 146.605232 
L 116.076172 145.395699 
L 116.388521 150.059409 
L 116.70087 121.873752 
L 117.013219 131.053228 
L 117.325568 145.103891 
L 117.637917 97.599783 
L 118.262615 168.90433 
L 118.574964 156.844014 
L 118.887313 166.233001 
L 119.199661 136.188214 
L 119.51201 133.827379 
L 119.824359 181.464691 
L 120.136708 151.794967 
L 120.449057 104.13769 
L 120.761406 153.397754 
L 121.073755 116.159778 
L 121.386104 163.302276 
L 121.698453 145.803272 
L 122.323151 148.256153 
L 122.6355 194.376958 
L 123.260198 115.176808 
L 123.572547 191.652393 
L 123.884896 146.249353 
L 124.197244 181.715975 
L 124.509593 73.616719 
L 124.821942 104.740456 
L 125.134291 108.527105 
L 125.44664 143.23591 
L 125.758989 125.405493 
L 126.071338 69.159868 
L 126.383687 185.676968 
L 126.696036 146.183924 
L 127.008385 158.622565 
L 127.320734 135.265768 
L 127.633083 158.059186 
L 127.945432 78.465339 
L 128.257781 177.055967 
L 128.57013 157.238903 
L 128.882479 182.698151 
L 129.507176 122.589605 
L 129.819525 126.880057 
L 130.131874 143.308051 
L 130.444223 85.059776 
L 130.756572 141.25316 
L 131.068921 132.250191 
L 131.38127 171.734685 
L 131.693619 109.85966 
L 132.005968 112.2494 
L 132.318317 193.431013 
L 132.630666 171.943128 
L 132.943015 111.39918 
L 133.255364 152.719862 
L 133.567713 226.156616 
L 133.880062 189.953105 
L 134.19241 102.762636 
L 134.504759 141.677999 
L 134.817108 135.51799 
L 135.441806 166.988604 
L 135.754155 129.338238 
L 136.066504 115.790062 
L 136.378853 216.629602 
L 136.691202 243.314413 
L 137.003551 129.143766 
L 137.3159 213.450808 
L 137.628249 178.869515 
L 137.940598 121.896088 
L 138.252947 165.224912 
L 138.565296 136.985747 
L 138.877645 148.848363 
L 139.189993 169.592115 
L 139.502342 139.152156 
L 139.814691 135.365144 
L 140.12704 108.210351 
L 140.439389 165.148694 
L 140.751738 175.256828 
L 141.064087 167.417147 
L 141.376436 178.496475 
L 141.688785 80.846463 
L 142.001134 96.855404 
L 142.313483 132.417785 
L 142.625832 111.807145 
L 142.938181 153.935756 
L 143.562879 122.477306 
L 143.875228 185.092809 
L 144.499925 71.848562 
L 144.812274 95.691855 
L 145.124623 204.818981 
L 145.749321 123.223666 
L 146.06167 112.847463 
L 146.686368 137.565837 
L 146.998717 177.469901 
L 147.311066 169.606909 
L 147.623415 145.750026 
L 147.935764 137.115765 
L 148.560462 161.107779 
L 148.872811 114.104525 
L 149.185159 137.434841 
L 149.809857 195.274334 
L 150.122206 156.947109 
L 150.434555 197.653089 
L 150.746904 134.007939 
L 151.059253 196.15543 
L 151.371602 82.931573 
L 151.683951 78.571505 
L 151.9963 85.910623 
L 152.308649 177.47525 
L 152.620998 159.914338 
L 152.933347 119.28006 
L 153.558045 166.32092 
L 153.870394 86.189613 
L 154.182742 163.669892 
L 154.495091 178.541983 
L 154.80744 155.237358 
L 155.119789 83.907922 
L 155.432138 141.816788 
L 155.744487 153.514844 
L 156.056836 51.768989 
L 156.369185 128.420602 
L 156.681534 100.317398 
L 156.993883 159.914859 
L 157.306232 135.927284 
L 157.618581 178.439363 
L 157.93093 113.002478 
L 158.243279 150.283133 
L 158.555628 97.847179 
L 158.867977 167.643291 
L 159.492674 74.663984 
L 160.117372 151.204602 
L 160.429721 93.097896 
L 160.74207 121.457213 
L 161.054419 128.497696 
L 161.679117 168.879694 
L 161.991466 236.123294 
L 162.303815 75.307418 
L 162.616164 176.405351 
L 162.928513 163.029638 
L 163.240862 107.557234 
L 163.553211 97.09871 
L 163.86556 163.009717 
L 164.177909 116.080923 
L 164.490257 189.734945 
L 164.802606 147.849736 
L 165.114955 68.44365 
L 165.427304 81.749402 
L 165.739653 188.462287 
L 166.052002 121.517422 
L 166.364351 174.266607 
L 166.989049 130.395989 
L 167.301398 133.524218 
L 167.613747 145.407546 
L 167.926096 179.756683 
L 168.238445 59.146794 
L 168.550794 57.417295 
L 168.863143 151.844695 
L 169.175492 155.446036 
L 169.48784 105.328399 
L 169.800189 194.153164 
L 170.112538 136.060614 
L 170.424887 156.611931 
L 170.737236 152.267216 
L 171.049585 136.025194 
L 171.361934 79.889481 
L 171.674283 141.286908 
L 171.986632 115.867227 
L 172.298981 99.571016 
L 172.61133 151.462682 
L 172.923679 177.319287 
L 173.236028 99.313883 
L 173.860726 135.396777 
L 174.173075 220.021792 
L 174.485423 133.417006 
L 174.797772 97.984616 
L 175.110121 158.77867 
L 175.42247 159.88305 
L 175.734819 96.886047 
L 176.359517 92.639805 
L 176.671866 172.962631 
L 176.984215 80.775539 
L 177.296564 144.813241 
L 177.608913 161.264803 
L 177.921262 75.652342 
L 178.54596 123.699829 
L 178.858309 178.650444 
L 179.483006 142.459119 
L 179.795355 134.322287 
L 180.107704 117.799674 
L 180.420053 108.798274 
L 180.732402 167.931981 
L 181.044751 117.339066 
L 181.3571 92.271492 
L 181.669449 101.800769 
L 181.981798 133.588598 
L 182.294147 117.146686 
L 182.606496 133.618492 
L 183.231194 238.823999 
L 183.543543 186.780922 
L 183.855892 99.334336 
L 184.168241 181.993193 
L 184.480589 164.965672 
L 184.792938 99.965371 
L 185.105287 133.719504 
L 185.417636 114.171537 
L 185.729985 163.340894 
L 186.042334 119.889933 
L 186.354683 138.956918 
L 186.667032 97.922754 
L 186.979381 184.578158 
L 187.29173 161.331866 
L 187.604079 150.910431 
L 187.916428 126.720416 
L 188.228777 124.641981 
L 188.541126 120.252428 
L 188.853475 97.932399 
L 189.165824 90.879559 
L 189.478172 145.080707 
L 189.790521 114.413403 
L 190.10287 122.260228 
L 190.415219 85.668766 
L 190.727568 147.832079 
L 191.039917 131.493686 
L 191.664615 76.453475 
L 191.976964 83.054098 
L 192.289313 123.27136 
L 192.601662 47.535242 
L 192.914011 92.691274 
L 193.22636 73.888963 
L 193.538709 196.3512 
L 193.851058 87.149709 
L 194.163407 129.886831 
L 194.475755 94.390268 
L 194.788104 71.609715 
L 195.100453 192.1067 
L 196.349849 94.889502 
L 196.662198 144.582087 
L 196.974547 118.925181 
L 197.286896 159.275091 
L 197.599245 184.297993 
L 198.223943 118.083764 
L 198.536292 130.424857 
L 198.848641 104.60954 
L 199.473338 166.361323 
L 199.785687 133.230052 
L 200.098036 146.386127 
L 200.410385 50.994975 
L 200.722734 88.277801 
L 201.035083 91.981585 
L 201.347432 185.137412 
L 201.659781 136.12535 
L 201.97213 135.029808 
L 202.284479 174.876219 
L 202.596828 106.736132 
L 202.909177 125.521884 
L 203.221526 220.97249 
L 203.533875 101.809614 
L 203.846224 158.671571 
L 204.158573 134.587419 
L 204.470921 154.441912 
L 204.78327 98.523269 
L 205.095619 178.835624 
L 205.407968 86.444784 
L 205.720317 94.504015 
L 206.032666 111.660168 
L 206.345015 119.250809 
L 206.657364 138.125016 
L 206.969713 147.836111 
L 207.594411 79.670088 
L 207.90676 135.168292 
L 208.219109 89.809154 
L 208.531458 192.969983 
L 208.843807 166.039772 
L 209.156156 85.129654 
L 209.468504 117.983973 
L 209.780853 113.867483 
L 210.093202 151.850632 
L 210.405551 123.480501 
L 210.7179 47.701416 
L 211.030249 90.285066 
L 211.342598 161.926917 
L 211.654947 134.396128 
L 211.967296 141.591802 
L 212.279645 161.750994 
L 212.591994 171.096024 
L 212.904343 142.650762 
L 213.529041 157.803276 
L 213.84139 148.911956 
L 214.153739 158.435374 
L 214.466087 128.967048 
L 214.778436 148.438857 
L 215.090785 91.302443 
L 215.403134 173.500442 
L 215.715483 199.209597 
L 216.027832 139.179321 
L 216.340181 139.570698 
L 216.65253 77.657213 
L 217.277228 185.653856 
L 217.901926 139.909225 
L 218.526624 185.64395 
L 219.151322 128.202855 
L 219.46367 156.727268 
L 219.776019 132.891288 
L 220.088368 94.214339 
L 220.400717 141.286529 
L 220.713066 64.681152 
L 221.025415 109.748294 
L 221.337764 102.252401 
L 221.650113 102.992449 
L 221.962462 124.373173 
L 222.274811 59.607601 
L 222.58716 141.558094 
L 222.899509 144.726175 
L 223.211858 133.56539 
L 223.524207 201.225755 
L 223.836556 96.844015 
L 224.148905 115.537787 
L 224.461254 168.575606 
L 224.773602 181.810467 
L 225.085951 160.254464 
L 225.3983 179.057818 
L 225.710649 117.395107 
L 226.022998 150.63029 
L 226.335347 201.435661 
L 226.647696 178.037719 
L 226.960045 141.478341 
L 227.272394 218.182269 
L 227.584743 140.195819 
L 227.897092 135.555048 
L 228.52179 153.967988 
L 228.834139 139.869177 
L 229.146488 184.620355 
L 229.458837 104.920248 
L 229.771185 196.72172 
L 230.708232 106.716322 
L 231.020581 137.161893 
L 231.33293 122.282383 
L 231.645279 200.970091 
L 231.957628 127.915964 
L 232.269977 150.076808 
L 232.582326 149.967588 
L 232.894675 117.959453 
L 233.207024 112.313175 
L 233.519373 178.738672 
L 233.831722 156.811981 
L 234.144071 116.937998 
L 234.45642 170.141109 
L 234.768768 136.230035 
L 235.081117 173.280926 
L 235.393466 116.361195 
L 235.705815 149.314406 
L 236.018164 148.129037 
L 236.330513 81.97445 
L 236.642862 129.07621 
L 236.955211 82.413849 
L 237.26756 137.365772 
L 237.579909 149.933838 
L 237.892258 128.947493 
L 238.204607 149.198174 
L 238.516956 179.376129 
L 238.829305 151.683813 
L 239.141654 173.024904 
L 239.454003 184.04259 
L 239.766351 159.891593 
L 240.0787 155.401411 
L 240.391049 133.061032 
L 240.703398 124.767373 
L 241.015747 92.662307 
L 241.328096 164.76348 
L 241.640445 184.199814 
L 241.952794 116.144842 
L 242.265143 143.565898 
L 242.577492 104.516218 
L 242.889841 79.449422 
L 243.20219 150.16504 
L 243.514539 194.201305 
L 243.826888 135.370473 
L 244.139237 150.88318 
L 244.451586 136.259365 
L 244.763934 114.699188 
L 245.076283 123.281772 
L 245.388632 124.469396 
L 245.700981 149.157856 
L 246.01333 112.2251 
L 246.325679 159.787373 
L 246.638028 96.419685 
L 246.950377 172.708475 
L 247.262726 82.831656 
L 247.575075 114.693999 
L 247.887424 125.924431 
L 248.199773 146.880154 
L 248.512122 92.989282 
L 248.824471 90.127813 
L 249.449169 151.856185 
L 249.761517 107.291135 
L 250.073866 159.313368 
L 250.386215 124.941498 
L 250.698564 130.582493 
L 251.010913 140.654596 
L 251.323262 171.188825 
L 251.635611 100.73895 
L 251.94796 65.631837 
L 252.260309 143.897411 
L 252.572658 142.264596 
L 252.885007 198.004684 
L 253.197356 111.587031 
L 253.509705 159.471437 
L 253.822054 149.959433 
L 254.134403 102.244949 
L 254.446752 101.405691 
L 254.7591 173.176674 
L 255.071449 150.613919 
L 255.383798 187.492076 
L 255.696147 128.981239 
L 256.008496 158.307885 
L 256.320845 159.43127 
L 256.633194 165.065398 
L 256.945543 147.032881 
L 257.257892 161.659039 
L 257.570241 216.584257 
L 257.88259 126.209483 
L 258.507288 145.945452 
L 258.819637 197.536753 
L 259.131986 201.742126 
L 259.444335 128.436089 
L 259.756683 199.352683 
L 260.069032 164.371664 
L 260.381381 112.636463 
L 260.69373 156.298248 
L 261.006079 109.660023 
L 261.318428 123.953648 
L 261.630777 118.22194 
L 261.943126 126.349848 
L 262.255475 151.845115 
L 262.567824 73.31285 
L 262.880173 156.357859 
L 263.192522 114.98512 
L 263.504871 124.039369 
L 263.81722 125.12542 
L 264.129569 151.328074 
L 264.441918 167.386027 
L 264.754266 135.06603 
L 265.066615 207.480171 
L 265.378964 204.096617 
L 265.691313 136.892831 
L 266.003662 192.160778 
L 266.316011 112.601192 
L 266.62836 105.786622 
L 266.940709 203.570004 
L 267.253058 98.221726 
L 267.565407 178.072213 
L 267.877756 114.372881 
L 268.190105 94.104571 
L 268.502454 180.215017 
L 268.814803 102.217885 
L 269.127152 84.070997 
L 269.439501 142.602022 
L 269.751849 117.261104 
L 270.064198 195.294091 
L 270.376547 86.989786 
L 270.688896 209.271671 
L 271.001245 145.16602 
L 271.313594 110.579882 
L 271.625943 150.471825 
L 271.938292 166.085646 
L 272.250641 160.072899 
L 272.56299 75.173367 
L 272.875339 160.150667 
L 273.187688 42.058537 
L 273.500037 65.605994 
L 273.812386 145.643724 
L 274.124735 149.589829 
L 274.437084 116.437665 
L 274.749432 115.68094 
L 275.061781 93.396271 
L 275.37413 163.300474 
L 275.686479 127.775452 
L 275.998828 194.753713 
L 276.311177 102.649137 
L 276.623526 111.027197 
L 276.935875 175.877284 
L 277.248224 121.100154 
L 277.560573 98.537884 
L 277.872922 199.268689 
L 278.185271 169.206514 
L 278.49762 127.285391 
L 278.809969 174.788407 
L 279.122318 140.076393 
L 279.434667 119.888207 
L 279.747015 116.436852 
L 280.059364 145.130077 
L 280.371713 95.320969 
L 280.684062 151.510128 
L 281.30876 183.924104 
L 281.621109 135.201768 
L 281.933458 122.263505 
L 282.245807 218.155073 
L 282.558156 113.567261 
L 282.870505 97.470929 
L 283.182854 140.574853 
L 283.495203 128.618532 
L 283.807552 125.433032 
L 284.119901 139.484687 
L 284.43225 140.189942 
L 284.744598 115.412943 
L 285.056947 175.534138 
L 285.369296 143.129656 
L 285.681645 162.75172 
L 285.993994 141.323681 
L 286.306343 201.022373 
L 286.618692 141.702665 
L 286.931041 171.334565 
L 287.24339 180.865095 
L 287.555739 149.798748 
L 287.868088 183.24225 
L 288.180437 117.470296 
L 288.492786 138.928968 
L 288.805135 148.060989 
L 289.117484 130.26887 
L 289.429833 146.897618 
L 290.05453 154.532523 
L 290.366879 181.989209 
L 290.679228 159.722731 
L 290.991577 148.056678 
L 291.303926 131.739137 
L 291.616275 189.604013 
L 291.928624 193.950748 
L 292.240973 142.13384 
L 292.553322 177.142845 
L 292.865671 104.537318 
L 293.17802 84.837399 
L 293.490369 156.079431 
L 293.802718 137.994187 
L 294.115067 68.674842 
L 294.739765 175.982236 
L 295.052113 247.577413 
L 295.364462 117.719668 
L 295.676811 85.005377 
L 295.98916 159.283795 
L 296.301509 169.431481 
L 296.613858 122.339383 
L 296.926207 149.970779 
L 297.238556 224.632516 
L 297.863254 74.483376 
L 298.175603 157.105824 
L 298.487952 129.032458 
L 298.800301 168.859068 
L 299.11265 95.964802 
L 299.424999 132.502075 
L 299.737348 87.153507 
L 300.049696 94.230983 
L 300.362045 141.429815 
L 300.674394 116.385873 
L 300.986743 118.501116 
L 301.299092 210.246333 
L 301.92379 142.672024 
L 302.236139 187.098752 
L 302.548488 106.412261 
L 302.860837 127.405067 
L 303.173186 138.190262 
L 303.485535 201.11172 
L 303.797884 198.207603 
L 304.110233 94.381285 
L 304.422582 190.372342 
L 304.734931 157.919012 
L 305.047279 147.983023 
L 305.359628 51.019681 
L 305.984326 188.936869 
L 306.296675 116.129219 
L 306.609024 85.449246 
L 306.921373 151.663465 
L 307.233722 156.319196 
L 307.546071 134.629634 
L 307.85842 139.584956 
L 308.170769 91.501863 
L 308.483118 93.217502 
L 308.795467 139.484014 
L 309.107816 48.484787 
L 309.420165 71.55799 
L 309.732514 110.679912 
L 310.044862 102.698435 
L 310.357211 203.604746 
L 310.66956 62.05912 
L 310.981909 153.303212 
L 311.294258 141.209269 
L 311.606607 146.343541 
L 311.918956 116.811939 
L 312.231305 108.768808 
L 312.543654 131.231786 
L 312.856003 112.065754 
L 313.168352 160.390065 
L 313.480701 98.354328 
L 313.79305 77.033957 
L 314.105399 47.538347 
L 314.417748 110.512935 
L 314.730097 132.160393 
L 315.667143 101.855732 
L 315.979492 104.318542 
L 316.291841 114.988766 
L 316.60419 164.5029 
L 316.916539 66.537897 
L 317.228888 187.970332 
L 317.541237 104.133654 
L 317.853586 109.203228 
L 318.165935 152.685474 
L 318.478284 148.285809 
L 318.790633 120.123201 
L 319.102982 66.532183 
L 319.415331 118.62936 
L 319.72768 149.043909 
L 320.040028 159.322443 
L 320.664726 127.52406 
L 320.977075 153.737715 
L 321.289424 140.984039 
L 321.601773 158.073528 
L 322.226471 101.115372 
L 322.53882 82.905119 
L 322.851169 113.024838 
L 323.475867 148.509628 
L 323.788216 142.621381 
L 324.412914 105.905027 
L 324.725263 143.677526 
L 325.037611 116.482172 
L 325.34996 178.098482 
L 325.662309 77.266864 
L 325.974658 183.344282 
L 326.287007 114.569406 
L 326.599356 75.267691 
L 326.911705 187.134055 
L 327.224054 165.732951 
L 327.536403 105.844218 
L 327.848752 139.072679 
L 328.161101 86.880105 
L 328.47345 178.4104 
L 328.785799 109.548574 
L 329.098148 177.180314 
L 329.410497 163.66637 
L 329.722846 68.512549 
L 330.035194 85.569647 
L 330.347543 113.122878 
L 330.659892 67.387848 
L 330.972241 195.982482 
L 331.28459 139.640657 
L 331.596939 126.177631 
L 331.909288 130.003098 
L 332.221637 126.536139 
L 332.533986 83.064435 
L 332.846335 88.093936 
L 333.158684 100.275501 
L 333.471033 157.147858 
L 333.783382 113.829705 
L 334.095731 91.285164 
L 334.40808 126.327329 
L 334.720429 117.347369 
L 335.032777 153.62452 
L 335.345126 161.536027 
L 335.657475 67.954457 
L 335.969824 153.258556 
L 336.282173 108.516633 
L 336.594522 105.47806 
L 336.906871 138.274444 
L 337.21922 96.508239 
L 337.531569 148.259398 
L 337.843918 92.757002 
L 338.156267 87.45595 
L 338.468616 93.237749 
L 338.780965 106.903086 
L 339.093314 179.784861 
L 339.405663 144.095169 
L 339.718012 132.214384 
L 340.03036 213.987822 
L 340.342709 140.067204 
L 340.655058 124.499707 
L 340.967407 129.666261 
L 341.279756 142.692969 
L 341.592105 137.127096 
L 341.904454 152.228564 
L 342.216803 202.098368 
L 342.841501 126.064738 
L 343.15385 108.051522 
L 343.466199 127.851486 
L 343.778548 179.634123 
L 344.090897 163.431892 
L 344.403246 195.359998 
L 344.715595 116.350184 
L 345.027943 137.022603 
L 345.340292 89.088897 
L 345.652641 149.949508 
L 345.96499 188.65533 
L 346.277339 126.136985 
L 346.589688 149.066968 
L 346.902037 129.399791 
L 347.214386 165.256976 
L 347.526735 167.560758 
L 347.839084 113.545881 
L 348.151433 154.489712 
L 348.463782 86.359657 
L 348.776131 134.971136 
L 349.08848 136.460571 
L 349.400829 176.645475 
L 349.713178 124.776945 
L 350.025526 132.301878 
L 350.337875 209.951213 
L 351.274922 140.671406 
L 351.587271 191.391423 
L 351.89962 165.534301 
L 352.211969 195.407577 
L 352.836667 87.801719 
L 353.149016 122.776768 
L 353.461365 111.918479 
L 353.773714 73.979169 
L 354.086063 146.326721 
L 354.398412 126.924038 
L 354.710761 96.886613 
L 355.02311 149.379768 
L 355.335458 160.351436 
L 355.647807 187.282025 
L 355.960156 159.994387 
L 356.272505 152.238287 
L 356.584854 128.843687 
L 356.897203 140.056213 
L 357.209552 164.407373 
L 357.521901 128.698837 
L 357.83425 172.36919 
L 358.146599 155.735934 
L 358.458948 97.309535 
L 358.771297 142.717078 
L 359.083646 157.777489 
L 359.395995 94.317604 
L 359.708344 151.764312 
L 360.020693 157.311367 
L 360.333041 104.120816 
L 360.64539 168.952213 
L 360.957739 139.850185 
L 361.270088 80.674923 
L 361.582437 176.747305 
L 361.894786 159.814528 
L 362.207135 162.614276 
L 362.519484 129.953782 
L 362.831833 143.577317 
L 363.144182 113.157409 
L 363.76888 140.995646 
L 364.393578 186.671329 
L 364.705927 124.416133 
L 365.018276 108.62579 
L 365.330624 179.975725 
L 365.642973 172.56374 
L 365.955322 149.274121 
L 366.267671 249.488307 
L 366.58002 114.80212 
L 366.892369 177.367545 
L 367.204718 133.448208 
L 367.517067 224.025479 
L 367.829416 199.582755 
L 368.141765 111.25392 
L 368.454114 163.928666 
L 368.766463 114.9696 
L 369.078812 121.160445 
L 369.391161 113.052485 
L 369.70351 90.39209 
L 370.015859 129.967388 
L 370.328207 134.384471 
L 370.640556 163.263761 
L 370.952905 106.559581 
L 371.265254 111.608909 
L 371.577603 136.287568 
L 371.889952 108.969781 
L 372.202301 157.302971 
L 372.51465 109.692437 
L 372.826999 189.155403 
L 373.139348 129.050984 
L 373.451697 113.570155 
L 373.764046 118.066116 
L 374.076395 186.563672 
L 374.388744 129.813755 
L 374.701093 163.651559 
L 375.013442 168.158429 
L 375.32579 189.435436 
L 375.638139 102.80442 
L 376.262837 136.573862 
L 376.575186 75.01326 
L 376.887535 115.804549 
L 377.199884 193.290561 
L 377.512233 154.97052 
L 377.824582 170.955672 
L 378.136931 135.975601 
L 378.44928 84.919294 
L 378.761629 144.976889 
L 379.073978 129.960794 
L 379.386327 139.312647 
L 379.698676 166.734358 
L 380.011025 81.535231 
L 380.323373 171.966408 
L 380.635722 146.324611 
L 380.948071 165.535728 
L 381.26042 129.779108 
L 381.885118 163.708006 
L 382.197467 162.048912 
L 382.509816 118.253811 
L 382.822165 161.278427 
L 383.134514 160.668453 
L 383.446863 147.503471 
L 383.759212 121.144363 
L 384.38391 180.009854 
L 384.696259 182.237653 
L 385.008608 80.423365 
L 385.320956 85.678555 
L 385.633305 167.598384 
L 385.945654 129.962732 
L 386.258003 210.650253 
L 386.570352 119.435181 
L 386.882701 204.734235 
L 387.19505 154.81948 
L 387.507399 202.965491 
L 387.819748 121.364803 
L 388.132097 104.308681 
L 388.444446 120.139177 
L 388.756795 160.817065 
L 389.069144 227.146183 
L 389.381493 168.13588 
L 390.006191 197.098205 
L 390.318539 234.588781 
L 390.943237 77.289764 
L 391.255586 156.840766 
L 391.567935 179.456345 
L 391.880284 157.539713 
L 392.192633 172.491705 
L 392.504982 142.237001 
L 392.817331 173.365968 
L 393.12968 136.781449 
L 393.442029 195.749556 
L 393.754378 162.643942 
L 394.066727 146.317397 
L 394.691425 83.168052 
L 395.003774 222.587929 
L 395.628471 102.340482 
L 395.94082 98.127288 
L 396.253169 108.294813 
L 396.565518 163.824589 
L 396.877867 141.747075 
L 397.190216 178.658437 
L 397.502565 159.647719 
L 397.814914 101.014218 
L 398.127263 136.493297 
L 398.439612 136.656032 
L 398.751961 141.57349 
L 399.376659 109.05272 
L 399.689008 162.392353 
L 400.001357 124.578046 
L 400.313705 104.089013 
L 400.626054 146.635434 
L 400.938403 166.647292 
L 401.250752 161.420165 
L 401.563101 165.012985 
L 401.87545 116.733835 
L 402.187799 137.660559 
L 402.500148 207.883244 
L 402.812497 124.097717 
L 403.124846 95.278272 
L 403.437195 141.128694 
L 403.749544 135.459033 
L 404.061893 135.878766 
L 404.374242 65.926001 
L 404.686591 136.96439 
L 404.99894 106.140153 
L 405.311288 173.975379 
L 405.623637 180.612459 
L 405.935986 112.899702 
L 406.248335 183.806975 
L 406.560684 113.222381 
L 406.873033 187.381624 
L 407.185382 84.485436 
L 407.497731 153.851382 
L 407.81008 169.913729 
L 408.122429 178.086306 
L 408.434778 136.29845 
L 408.747127 179.19613 
L 409.059476 138.939865 
L 409.371825 139.716763 
L 409.684174 91.978308 
L 409.996523 133.176469 
L 410.308871 147.545863 
L 410.62122 136.126469 
L 410.933569 173.72917 
L 411.245918 140.655722 
L 411.245918 140.655722 
" clip-path="url(#pc9762ec7f8)" style="fill: none; stroke: #1f77b4; stroke-width: 1.5; stroke-linecap: square"/>
   </g>
   <g id="line2d_14">
    <path d="M 99.209329 164.54523 
L 99.521678 115.858472 
L 99.834027 127.488536 
L 100.146376 197.546338 
L 100.458725 119.033985 
L 100.771074 151.126248 
L 101.083423 155.331974 
L 101.395772 123.837199 
L 101.708121 190.642822 
L 102.02047 175.261286 
L 102.332819 95.010957 
L 102.645168 158.490975 
L 102.957517 125.440659 
L 103.269866 141.35706 
L 103.582215 149.752507 
L 103.894564 163.624528 
L 104.206912 160.240032 
L 104.519261 173.349054 
L 104.83161 132.237366 
L 105.143959 162.022863 
L 105.456308 138.372042 
L 105.768657 143.511544 
L 106.081006 190.796521 
L 106.393355 166.151964 
L 106.705704 128.870503 
L 107.018053 112.978339 
L 107.330402 117.2438 
L 107.642751 139.3905 
L 107.9551 172.61884 
L 108.267449 126.783749 
L 108.579798 120.299123 
L 108.892147 191.9009 
L 109.516844 162.417279 
L 109.829193 123.53717 
L 110.141542 149.34301 
L 110.453891 97.457256 
L 110.76624 126.215434 
L 111.078589 128.91141 
L 111.390938 112.050604 
L 111.703287 189.74363 
L 112.015636 95.483002 
L 112.327985 159.721702 
L 112.640334 164.082924 
L 112.952683 116.675325 
L 113.265032 150.041111 
L 113.577381 125.965673 
L 114.202078 173.439742 
L 114.826776 137.86984 
L 115.139125 104.773066 
L 115.451474 115.600708 
L 115.763823 176.953737 
L 116.076172 126.178739 
L 116.388521 157.414406 
L 116.70087 175.444394 
L 117.013219 150.751502 
L 117.325568 180.278116 
L 117.637917 112.885999 
L 117.950266 173.351539 
L 118.262615 179.574482 
L 118.574964 65.313836 
L 118.887313 132.508902 
L 119.199661 142.322997 
L 119.51201 112.7984 
L 119.824359 72.100976 
L 120.136708 134.057872 
L 120.449057 132.467807 
L 120.761406 175.076338 
L 121.073755 176.53107 
L 121.698453 144.683045 
L 122.010802 105.615848 
L 122.323151 187.199677 
L 122.6355 195.064944 
L 122.947849 106.973806 
L 123.260198 71.931877 
L 123.572547 130.324376 
L 123.884896 148.002793 
L 124.197244 102.579311 
L 124.509593 174.694406 
L 124.821942 152.10815 
L 125.134291 105.065036 
L 125.44664 100.904988 
L 126.071338 147.715068 
L 126.383687 231.931388 
L 126.696036 208.83007 
L 127.008385 106.422352 
L 127.320734 121.443965 
L 127.633083 80.135975 
L 127.945432 181.293487 
L 128.257781 195.559129 
L 128.57013 99.274165 
L 128.882479 111.271545 
L 129.819525 162.384474 
L 130.131874 146.490191 
L 130.444223 213.757011 
L 130.756572 180.683193 
L 131.068921 132.447169 
L 131.693619 121.251708 
L 132.005968 199.513197 
L 132.318317 133.872824 
L 132.630666 166.966085 
L 132.943015 160.4093 
L 133.255364 191.693056 
L 133.567713 149.572955 
L 133.880062 77.430615 
L 134.19241 154.251163 
L 134.504759 132.900196 
L 134.817108 182.384143 
L 135.129457 153.801072 
L 135.441806 200.195787 
L 135.754155 36.843864 
L 136.066504 118.170844 
L 136.691202 175.6456 
L 137.003551 147.964364 
L 137.3159 136.022249 
L 137.628249 159.753661 
L 137.940598 92.757304 
L 138.252947 131.709379 
L 138.565296 106.490451 
L 138.877645 162.315591 
L 139.189993 135.412173 
L 139.502342 97.078315 
L 139.814691 171.505087 
L 140.12704 185.728951 
L 140.439389 106.648732 
L 140.751738 126.904005 
L 141.064087 157.659654 
L 141.376436 128.1498 
L 141.688785 128.983258 
L 142.001134 176.822194 
L 142.313483 93.771888 
L 142.625832 160.876163 
L 142.938181 181.650087 
L 143.25053 108.199944 
L 143.562879 131.242292 
L 143.875228 144.452513 
L 144.187576 88.482996 
L 144.812274 180.886585 
L 145.124623 59.471591 
L 145.436972 76.750141 
L 145.749321 134.345362 
L 146.06167 143.469479 
L 146.374019 176.144869 
L 146.686368 183.946973 
L 146.998717 123.488661 
L 147.311066 165.713922 
L 147.935764 143.14131 
L 148.248113 100.642607 
L 148.560462 174.026578 
L 148.872811 74.855623 
L 149.185159 140.84805 
L 149.497508 158.642093 
L 149.809857 101.199098 
L 150.122206 151.256996 
L 150.434555 156.742952 
L 150.746904 155.371709 
L 151.059253 188.928411 
L 151.371602 128.191252 
L 151.683951 124.050077 
L 151.9963 124.825006 
L 152.308649 56.151611 
L 152.620998 189.2066 
L 152.933347 161.723096 
L 153.245696 145.273233 
L 153.558045 174.121518 
L 153.870394 154.696963 
L 154.182742 204.354251 
L 154.495091 146.097479 
L 155.119789 172.366466 
L 155.432138 157.385582 
L 155.744487 179.00965 
L 156.056836 149.786291 
L 156.369185 172.462091 
L 156.681534 114.77855 
L 156.993883 107.504427 
L 157.306232 89.831332 
L 157.618581 195.730224 
L 157.93093 171.353986 
L 158.243279 109.831161 
L 158.555628 172.322533 
L 158.867977 84.899731 
L 159.180326 159.927414 
L 159.492674 109.780705 
L 159.805023 123.360389 
L 160.117372 128.043119 
L 160.429721 184.250345 
L 160.74207 187.931065 
L 161.054419 107.915314 
L 161.366768 101.6765 
L 161.679117 173.427323 
L 161.991466 133.154559 
L 162.303815 205.755637 
L 162.616164 130.983338 
L 162.928513 151.506315 
L 163.240862 163.096511 
L 163.553211 159.174595 
L 163.86556 169.136202 
L 164.177909 88.303494 
L 164.490257 79.331603 
L 164.802606 127.229211 
L 165.427304 180.719972 
L 165.739653 120.028613 
L 166.052002 161.447349 
L 166.364351 95.887924 
L 166.6767 163.923626 
L 166.989049 89.140416 
L 167.301398 179.681892 
L 167.613747 118.341998 
L 167.926096 144.916591 
L 168.238445 98.342345 
L 168.550794 110.509545 
L 168.863143 112.837847 
L 169.175492 105.212287 
L 169.48784 139.459824 
L 170.112538 84.946868 
L 170.424887 133.105031 
L 170.737236 128.989051 
L 171.049585 191.449218 
L 171.361934 159.215351 
L 171.674283 149.492889 
L 171.986632 75.565678 
L 172.298981 161.837369 
L 172.61133 152.045787 
L 172.923679 178.546864 
L 173.236028 165.792547 
L 173.548377 100.868328 
L 173.860726 119.900348 
L 174.173075 158.240174 
L 174.485423 140.728825 
L 174.797772 97.769749 
L 175.42247 174.88515 
L 175.734819 180.815505 
L 176.047168 115.249035 
L 176.359517 172.124899 
L 176.671866 127.761511 
L 176.984215 159.179355 
L 177.296564 172.092466 
L 177.608913 151.181737 
L 177.921262 192.760036 
L 178.233611 132.14164 
L 178.54596 177.556394 
L 178.858309 147.73096 
L 179.170658 136.382676 
L 179.483006 139.305197 
L 179.795355 146.215858 
L 180.107704 146.890507 
L 180.420053 139.763709 
L 180.732402 105.491469 
L 181.044751 125.05403 
L 181.669449 194.575306 
L 181.981798 124.700443 
L 182.294147 167.469486 
L 182.606496 232.368883 
L 182.918845 119.752502 
L 183.231194 199.000319 
L 183.543543 155.522406 
L 183.855892 139.510171 
L 184.168241 185.985739 
L 184.480589 189.520946 
L 184.792938 176.493169 
L 185.105287 91.249339 
L 185.417636 113.234453 
L 185.729985 120.77497 
L 186.042334 104.099484 
L 186.354683 155.939377 
L 186.667032 41.06679 
L 186.979381 218.429429 
L 187.604079 60.777059 
L 187.916428 131.690063 
L 188.228777 141.627643 
L 188.541126 122.212378 
L 189.165824 154.918933 
L 189.478172 149.076809 
L 189.790521 193.695379 
L 190.415219 111.978078 
L 190.727568 146.205251 
L 191.664615 94.674171 
L 191.976964 127.885149 
L 192.289313 133.088544 
L 192.601662 193.92109 
L 192.914011 85.113304 
L 193.538709 175.521987 
L 194.163407 107.75118 
L 194.475755 190.399412 
L 194.788104 144.422321 
L 195.100453 191.713114 
L 195.412802 164.12252 
L 195.725151 159.309153 
L 196.0375 131.433096 
L 196.349849 119.225456 
L 196.662198 98.500064 
L 196.974547 103.97572 
L 197.286896 164.326259 
L 197.599245 144.250531 
L 197.911594 91.380208 
L 198.223943 151.850011 
L 198.536292 133.256875 
L 198.848641 168.090313 
L 199.16099 122.365775 
L 199.473338 93.019219 
L 199.785687 186.737176 
L 200.098036 200.513741 
L 200.410385 146.812388 
L 200.722734 215.845221 
L 201.347432 145.454608 
L 201.659781 166.103731 
L 201.97213 117.26468 
L 202.284479 119.207871 
L 202.596828 198.216698 
L 202.909177 114.687407 
L 203.221526 122.378649 
L 203.533875 163.207185 
L 204.158573 113.48849 
L 204.470921 115.573174 
L 204.78327 95.364638 
L 205.095619 66.831174 
L 205.407968 179.812431 
L 205.720317 143.598318 
L 206.032666 144.475308 
L 206.345015 158.053605 
L 206.657364 214.989448 
L 206.969713 206.523477 
L 207.282062 135.829433 
L 207.594411 131.0943 
L 207.90676 217.563528 
L 208.219109 128.55443 
L 208.531458 140.597087 
L 208.843807 139.150828 
L 209.156156 178.975584 
L 209.468504 139.959085 
L 210.093202 104.601897 
L 210.405551 106.238648 
L 210.7179 89.694759 
L 211.030249 162.344074 
L 211.654947 131.185019 
L 211.967296 155.599038 
L 212.279645 138.955303 
L 212.591994 98.137689 
L 212.904343 171.675524 
L 213.216692 139.095244 
L 213.529041 76.074559 
L 213.84139 204.030578 
L 214.153739 163.53379 
L 214.466087 163.651005 
L 214.778436 122.72322 
L 215.403134 93.161039 
L 215.715483 135.736868 
L 216.027832 130.064421 
L 216.340181 165.821969 
L 216.65253 120.444943 
L 216.964879 132.169053 
L 217.277228 152.270536 
L 217.589577 198.115822 
L 217.901926 148.616977 
L 218.526624 134.794531 
L 218.838973 104.896431 
L 219.151322 186.686664 
L 219.46367 163.36806 
L 219.776019 110.161025 
L 220.088368 152.835001 
L 220.400717 170.519491 
L 220.713066 99.57944 
L 221.025415 157.924174 
L 221.337764 171.424043 
L 221.650113 140.08583 
L 221.962462 126.932712 
L 222.274811 159.001965 
L 222.58716 160.745026 
L 223.211858 63.306063 
L 223.524207 171.992235 
L 223.836556 106.582058 
L 224.148905 156.981144 
L 224.461254 75.446945 
L 224.773602 113.265166 
L 225.085951 117.504385 
L 225.3983 120.110096 
L 225.710649 106.922186 
L 226.022998 119.152345 
L 226.335347 96.521545 
L 226.647696 184.718084 
L 226.960045 165.961269 
L 227.272394 105.911615 
L 227.584743 114.491118 
L 227.897092 200.364197 
L 228.209441 90.549375 
L 228.52179 136.43599 
L 228.834139 113.144561 
L 229.146488 161.357883 
L 229.458837 112.596442 
L 229.771185 95.337618 
L 230.083534 108.541923 
L 230.395883 200.177387 
L 230.708232 129.508166 
L 231.020581 119.832555 
L 231.33293 152.328679 
L 231.645279 136.27368 
L 231.957628 149.203009 
L 232.269977 92.576505 
L 232.582326 184.66374 
L 232.894675 153.760361 
L 233.207024 156.790764 
L 233.519373 119.148321 
L 233.831722 114.420193 
L 234.144071 105.101357 
L 235.081117 185.107454 
L 235.705815 131.179517 
L 236.018164 165.37488 
L 236.330513 158.25462 
L 236.642862 176.480079 
L 236.955211 138.722716 
L 237.26756 169.929902 
L 237.579909 128.713451 
L 237.892258 132.253765 
L 238.516956 164.744629 
L 239.141654 136.046058 
L 239.454003 83.364563 
L 239.766351 143.368188 
L 240.0787 130.945786 
L 240.391049 96.849282 
L 240.703398 196.802459 
L 241.015747 125.349645 
L 241.328096 182.186003 
L 241.640445 136.165873 
L 241.952794 142.506005 
L 242.265143 112.351297 
L 242.577492 194.49853 
L 242.889841 106.536861 
L 243.20219 143.000895 
L 243.514539 127.162735 
L 243.826888 140.161397 
L 244.139237 123.786856 
L 244.451586 159.744911 
L 244.763934 161.486039 
L 245.076283 69.527607 
L 245.388632 107.134123 
L 245.700981 109.894595 
L 246.01333 162.613064 
L 246.325679 92.64121 
L 246.638028 153.002842 
L 246.950377 106.380722 
L 247.262726 129.390969 
L 247.575075 108.082893 
L 247.887424 131.579631 
L 248.199773 102.069876 
L 248.512122 156.584255 
L 248.824471 92.975498 
L 249.13682 176.148523 
L 249.449169 144.698529 
L 250.073866 190.445953 
L 250.386215 119.702638 
L 250.698564 158.167011 
L 251.010913 100.630685 
L 251.323262 87.598745 
L 251.635611 143.189036 
L 251.94796 142.722141 
L 252.260309 152.972802 
L 252.572658 101.026793 
L 252.885007 184.359114 
L 253.197356 88.216407 
L 253.509705 101.076763 
L 253.822054 107.647824 
L 254.134403 132.191902 
L 254.446752 191.199977 
L 254.7591 163.426794 
L 255.071449 200.721185 
L 255.383798 135.68313 
L 256.008496 164.980047 
L 256.320845 139.781856 
L 256.633194 171.001509 
L 256.945543 163.193872 
L 257.257892 126.85288 
L 257.570241 146.318324 
L 257.88259 148.396477 
L 258.194939 171.043804 
L 258.507288 91.831423 
L 258.819637 89.16701 
L 259.131986 132.512265 
L 259.444335 145.445289 
L 259.756683 178.72958 
L 260.069032 159.222951 
L 260.381381 166.276499 
L 260.69373 131.446347 
L 261.006079 197.803376 
L 261.318428 119.79316 
L 261.630777 149.708899 
L 261.943126 147.895636 
L 262.255475 108.334964 
L 262.880173 180.621078 
L 263.192522 121.617079 
L 263.504871 163.250155 
L 263.81722 124.400945 
L 264.129569 180.82115 
L 265.378964 80.925057 
L 266.003662 110.47761 
L 266.316011 215.962614 
L 266.940709 113.073475 
L 267.565407 166.871191 
L 267.877756 162.762165 
L 268.190105 118.313254 
L 268.502454 129.789996 
L 268.814803 77.294589 
L 269.127152 174.552268 
L 269.439501 121.233902 
L 269.751849 135.755304 
L 270.064198 52.025924 
L 270.688896 181.756116 
L 271.001245 181.848909 
L 271.313594 85.523856 
L 271.625943 129.063444 
L 271.938292 98.573913 
L 272.250641 180.831739 
L 272.56299 120.981909 
L 272.875339 145.707076 
L 273.187688 111.961617 
L 273.500037 174.319698 
L 273.812386 131.758405 
L 274.124735 105.632131 
L 274.437084 143.315394 
L 274.749432 145.084256 
L 275.061781 174.596751 
L 275.998828 103.184897 
L 276.311177 141.805019 
L 276.623526 124.371345 
L 276.935875 119.014174 
L 277.248224 78.657342 
L 277.560573 89.955267 
L 277.872922 74.093891 
L 278.185271 156.220012 
L 278.49762 188.781461 
L 278.809969 138.855008 
L 279.122318 177.829817 
L 279.434667 194.458934 
L 279.747015 95.266324 
L 280.059364 91.290703 
L 280.684062 121.206069 
L 280.996411 197.453828 
L 281.30876 178.654705 
L 281.621109 102.914165 
L 281.933458 171.665975 
L 282.245807 163.753619 
L 282.558156 115.067962 
L 282.870505 193.651024 
L 283.182854 200.664979 
L 283.495203 147.677524 
L 283.807552 118.156343 
L 284.119901 190.226475 
L 284.43225 110.23323 
L 284.744598 95.946368 
L 285.056947 186.519263 
L 285.369296 142.009018 
L 285.681645 141.910718 
L 285.993994 96.244645 
L 286.306343 195.624766 
L 286.618692 140.029842 
L 286.931041 140.161396 
L 287.24339 168.883593 
L 287.555739 150.7397 
L 287.868088 76.418285 
L 288.180437 189.441526 
L 288.492786 93.077421 
L 288.805135 120.92102 
L 289.117484 178.075728 
L 289.429833 185.816253 
L 290.05453 151.098138 
L 290.366879 143.138039 
L 290.679228 110.425277 
L 291.303926 171.212682 
L 291.616275 155.469367 
L 291.928624 83.810828 
L 292.240973 105.305792 
L 292.553322 64.081221 
L 292.865671 206.435831 
L 293.17802 168.004642 
L 294.115067 194.810752 
L 294.427416 66.93285 
L 295.052113 132.779696 
L 295.364462 131.198935 
L 295.676811 136.679251 
L 295.98916 95.402857 
L 296.301509 157.258187 
L 296.613858 115.559466 
L 296.926207 119.903972 
L 297.238556 106.811607 
L 297.863254 135.335628 
L 298.175603 128.035715 
L 298.487952 95.680802 
L 298.800301 171.705515 
L 299.11265 108.988904 
L 299.737348 225.196343 
L 300.049696 187.248838 
L 300.362045 132.216518 
L 300.674394 155.031427 
L 300.986743 141.928516 
L 301.299092 147.404547 
L 301.611441 134.449288 
L 301.92379 132.005592 
L 302.236139 111.99308 
L 302.548488 239.953631 
L 302.860837 176.676081 
L 303.173186 160.808121 
L 303.485535 99.683375 
L 303.797884 205.706196 
L 304.110233 141.673356 
L 304.422582 175.104618 
L 304.734931 181.816305 
L 305.047279 97.882209 
L 305.359628 148.62326 
L 305.671977 57.466068 
L 305.984326 120.250347 
L 306.296675 136.433139 
L 306.609024 141.18467 
L 306.921373 179.988568 
L 307.233722 120.735037 
L 307.85842 75.223014 
L 308.170769 158.223419 
L 308.483118 125.038408 
L 308.795467 141.111409 
L 309.107816 60.985763 
L 309.420165 109.463666 
L 309.732514 95.181823 
L 310.357211 150.027316 
L 310.66956 192.212161 
L 310.981909 207.401842 
L 311.294258 149.241783 
L 311.606607 155.550633 
L 311.918956 82.673635 
L 312.231305 142.130385 
L 312.543654 111.265794 
L 312.856003 171.79301 
L 313.168352 101.158778 
L 313.480701 105.313666 
L 313.79305 100.879696 
L 314.105399 132.321739 
L 314.417748 106.416391 
L 314.730097 210.535931 
L 315.042445 132.180975 
L 315.354794 118.594493 
L 315.667143 177.082905 
L 315.979492 97.18061 
L 316.291841 98.665736 
L 316.60419 137.123716 
L 316.916539 111.050383 
L 317.228888 150.38053 
L 317.541237 157.274182 
L 317.853586 105.827254 
L 318.165935 161.681015 
L 318.478284 142.404477 
L 318.790633 137.786966 
L 319.102982 128.071524 
L 319.415331 93.04782 
L 319.72768 116.851411 
L 320.040028 185.069788 
L 320.352377 147.026627 
L 320.664726 81.886976 
L 320.977075 194.685439 
L 321.289424 162.177823 
L 321.601773 103.137216 
L 321.914122 123.155126 
L 322.226471 173.956427 
L 322.53882 168.434968 
L 322.851169 152.257204 
L 323.163518 127.231202 
L 323.475867 76.534305 
L 323.788216 83.395669 
L 324.100565 167.450476 
L 324.725263 83.033172 
L 325.037611 201.284274 
L 325.34996 168.233554 
L 325.662309 188.784471 
L 325.974658 130.395739 
L 326.287007 153.619275 
L 326.599356 94.243099 
L 326.911705 142.71831 
L 327.224054 149.895444 
L 327.848752 121.869081 
L 328.161101 134.816123 
L 328.47345 131.621124 
L 328.785799 164.357492 
L 329.098148 145.564417 
L 329.410497 177.626038 
L 329.722846 137.042022 
L 330.035194 42.357846 
L 330.659892 179.390603 
L 330.972241 205.186658 
L 331.28459 87.114854 
L 331.909288 162.698574 
L 332.221637 172.442459 
L 332.533986 134.810819 
L 332.846335 207.18932 
L 333.158684 156.893332 
L 333.471033 163.832029 
L 333.783382 140.495607 
L 334.095731 140.020264 
L 334.40808 139.760742 
L 335.032777 179.837793 
L 335.345126 145.952598 
L 335.657475 203.368608 
L 335.969824 112.895884 
L 336.282173 102.251002 
L 336.594522 180.037651 
L 336.906871 112.113204 
L 337.21922 142.508527 
L 337.843918 83.756529 
L 338.156267 162.748851 
L 338.468616 114.556413 
L 338.780965 175.249785 
L 339.093314 145.669341 
L 339.405663 145.648557 
L 339.718012 94.914278 
L 340.03036 117.837237 
L 340.342709 157.531181 
L 340.655058 149.359754 
L 340.967407 153.972804 
L 341.279756 115.066696 
L 341.592105 212.919341 
L 341.904454 131.45005 
L 342.216803 120.568082 
L 342.529152 119.829943 
L 342.841501 99.27351 
L 343.466199 195.898891 
L 343.778548 65.282779 
L 344.090897 100.732379 
L 344.403246 186.07841 
L 344.715595 98.050538 
L 345.027943 137.654069 
L 345.340292 141.117869 
L 345.652641 177.961611 
L 345.96499 112.300917 
L 346.589688 234.822869 
L 347.214386 93.245989 
L 347.839084 183.558376 
L 348.151433 67.811134 
L 348.776131 137.040019 
L 349.08848 125.622474 
L 349.400829 119.840799 
L 349.713178 121.985491 
L 350.337875 196.170943 
L 350.650224 136.057038 
L 350.962573 180.766157 
L 351.587271 141.279873 
L 351.89962 110.49642 
L 352.211969 166.753156 
L 352.524318 98.122364 
L 352.836667 158.412351 
L 353.149016 94.559535 
L 353.461365 113.573888 
L 353.773714 45.400697 
L 354.086063 173.647855 
L 354.398412 174.992279 
L 354.710761 178.919322 
L 355.02311 145.234107 
L 355.335458 128.671297 
L 355.647807 97.565345 
L 355.960156 88.263126 
L 356.272505 114.418268 
L 356.584854 110.530517 
L 356.897203 179.202476 
L 357.209552 64.170937 
L 357.521901 149.925734 
L 357.83425 151.460057 
L 358.146599 54.973279 
L 358.458948 70.451883 
L 358.771297 157.950113 
L 359.083646 158.37385 
L 359.395995 130.312942 
L 359.708344 156.406877 
L 360.020693 146.36413 
L 360.333041 179.195681 
L 360.64539 183.037641 
L 360.957739 139.941634 
L 361.270088 178.080372 
L 361.582437 111.615429 
L 361.894786 170.7686 
L 362.207135 120.986157 
L 362.519484 163.048576 
L 362.831833 144.120395 
L 363.144182 164.770862 
L 363.456531 135.573619 
L 363.76888 134.32972 
L 364.081229 114.826275 
L 364.393578 127.793393 
L 364.705927 113.193263 
L 365.330624 157.767771 
L 365.642973 131.500433 
L 365.955322 118.283493 
L 366.267671 119.893968 
L 366.58002 142.056195 
L 366.892369 146.313769 
L 367.204718 161.582827 
L 367.517067 98.27239 
L 367.829416 131.585933 
L 368.141765 118.591723 
L 368.454114 184.620893 
L 368.766463 147.709519 
L 369.078812 90.326756 
L 369.391161 101.795351 
L 369.70351 132.090803 
L 370.015859 139.180125 
L 370.328207 115.024774 
L 370.640556 170.135679 
L 370.952905 161.499798 
L 371.265254 171.517907 
L 371.577603 135.636619 
L 371.889952 161.018335 
L 372.202301 161.345957 
L 372.51465 177.395837 
L 372.826999 169.284771 
L 373.139348 205.617303 
L 373.451697 71.96545 
L 374.076395 195.891569 
L 374.701093 101.321951 
L 375.013442 165.607897 
L 375.32579 160.48315 
L 375.638139 183.68996 
L 375.950488 152.903277 
L 376.262837 64.78615 
L 376.575186 125.242296 
L 376.887535 119.052626 
L 377.199884 128.711225 
L 377.512233 149.698389 
L 378.136931 92.602442 
L 378.44928 155.783445 
L 378.761629 114.800306 
L 379.073978 207.272465 
L 379.386327 98.536043 
L 379.698676 90.805731 
L 380.011025 132.055354 
L 380.323373 138.006995 
L 380.635722 133.732451 
L 380.948071 122.345294 
L 381.26042 255.321136 
L 381.572769 140.644278 
L 381.885118 173.217375 
L 382.197467 104.34518 
L 382.509816 181.620996 
L 382.822165 161.300581 
L 383.134514 190.451914 
L 383.446863 150.606387 
L 383.759212 61.625348 
L 384.071561 189.128286 
L 384.38391 135.645014 
L 384.696259 159.39593 
L 385.008608 119.072594 
L 385.320956 191.667087 
L 385.945654 149.336546 
L 386.258003 223.613289 
L 386.570352 151.36334 
L 386.882701 115.272903 
L 387.19505 92.310055 
L 387.507399 93.843815 
L 387.819748 126.525751 
L 388.132097 179.792225 
L 388.444446 110.968099 
L 388.756795 114.240888 
L 389.069144 139.981764 
L 389.381493 124.284396 
L 389.693842 154.583767 
L 390.006191 149.371306 
L 390.318539 169.492618 
L 390.630888 117.302315 
L 390.943237 125.975873 
L 391.567935 158.414059 
L 391.880284 193.472641 
L 392.192633 113.503416 
L 392.504982 208.29898 
L 392.817331 158.039794 
L 393.12968 165.244291 
L 393.442029 118.911377 
L 393.754378 158.62893 
L 394.066727 172.693877 
L 394.379076 109.524811 
L 394.691425 190.75449 
L 395.003774 151.588097 
L 395.316122 177.254752 
L 395.628471 123.572273 
L 395.94082 137.559049 
L 396.253169 112.129458 
L 396.565518 130.663747 
L 397.190216 50.968205 
L 397.502565 190.11976 
L 397.814914 156.413545 
L 398.127263 146.209939 
L 398.439612 102.958432 
L 398.751961 158.049058 
L 399.06431 143.210323 
L 399.376659 96.597254 
L 399.689008 91.926909 
L 400.001357 194.875216 
L 400.626054 68.943853 
L 400.938403 142.843586 
L 401.250752 151.887659 
L 401.563101 136.408946 
L 401.87545 129.456542 
L 402.187799 136.241421 
L 402.500148 132.069915 
L 402.812497 84.252539 
L 403.124846 208.063517 
L 403.437195 110.102964 
L 403.749544 109.08317 
L 404.061893 120.356036 
L 404.374242 193.676757 
L 404.686591 111.683899 
L 404.99894 155.903644 
L 405.311288 153.292565 
L 405.623637 146.392518 
L 405.935986 150.833558 
L 406.560684 163.633789 
L 406.873033 136.380237 
L 407.185382 146.942431 
L 407.497731 130.029675 
L 407.81008 180.163066 
L 408.122429 170.246672 
L 408.434778 145.119479 
L 408.747127 129.298471 
L 409.059476 190.060323 
L 409.371825 155.956821 
L 409.684174 86.00555 
L 409.996523 129.579674 
L 410.308871 136.775295 
L 410.62122 122.65295 
L 410.933569 180.78948 
L 411.245918 128.478639 
L 411.245918 128.478639 
" clip-path="url(#pc9762ec7f8)" style="fill: none; stroke: #ff7f0e; stroke-width: 1.5; stroke-linecap: square"/>
   </g>
   <g id="patch_3">
    <path d="M 83.6075 266.245 
L 83.6075 25.92 
" style="fill: none; stroke: #000000; stroke-width: 0.8; stroke-linejoin: miter; stroke-linecap: square"/>
   </g>
   <g id="patch_4">
    <path d="M 426.847748 266.245 
L 426.847748 25.92 
" style="fill: none; stroke: #000000; stroke-width: 0.8; stroke-linejoin: miter; stroke-linecap: square"/>
   </g>
   <g id="patch_5">
    <path d="M 83.6075 266.245 
L 426.847748 266.245 
" style="fill: none; stroke: #000000; stroke-width: 0.8; stroke-linejoin: miter; stroke-linecap: square"/>
   </g>
   <g id="patch_6">
    <path d="M 83.6075 25.92 
L 426.847748 25.92 
" style="fill: none; stroke: #000000; stroke-width: 0.8; stroke-linejoin: miter; stroke-linecap: square"/>
   </g>
  </g>
 </g>
 <defs>
  <clipPath id="pc9762ec7f8">
   <rect x="83.6075" y="25.92" width="343.240248" height="240.325"/>
  </clipPath>
 </defs>
</svg>
