<?xml version="1.0" encoding="utf-8" standalone="no"?>
<!DOCTYPE svg PUBLIC "-//W3C//DTD SVG 1.1//EN"
  "http://www.w3.org/Graphics/SVG/1.1/DTD/svg11.dtd">
<svg xmlns:xlink="http://www.w3.org/1999/xlink" width="460.8pt" height="345.6pt" viewBox="0 0 460.8 345.6" xmlns="http://www.w3.org/2000/svg" version="1.1">
 <metadata>
  <rdf:RDF xmlns:dc="http://purl.org/dc/elements/1.1/" xmlns:cc="http://creativecommons.org/ns#" xmlns:rdf="http://www.w3.org/1999/02/22-rdf-syntax-ns#">
   <cc:Work>
    <dc:type rdf:resource="http://purl.org/dc/dcmitype/StillImage"/>
    <dc:date>2026-01-29T08:00:32.901448</dc:date>
    <dc:format>image/svg+xml</dc:format>
    <dc:creator>
     <cc:Agent>
      <dc:title>Matplotlib v3.10.8, https://matplotlib.org/</dc:title>
     </cc:Agent>
    </dc:creator>
   </cc:Work>
  </rdf:RDF>
 </metadata>
 <defs>
  <style type="text/css">*{stroke-linejoin: round; stroke-linecap: butt}</style>
 </defs>
 <g id="figure_1">
  <g id="patch_1">
   <path d="M 0 345.6 
L 460.8 345.6 
L 460.8 0 
L 0 0 
z
" style="fill: #ffffff"/>
  </g>
  <g id="axes_1">
   <g id="patch_2">
    <path d="M 107.5475 266.245 
L 434.88 266.245 
L 434.88 25.92 
L 107.5475 25.92 
z
" style="fill: #ffffff"/>
   </g>
   <g id="matplotlib.axis_1">
    <g id="xtick_1">
     <g id="line2d_1">
      <path d="M 200.589562 266.245 
L 200.589562 25.92 
" clip-path="url(#p274dc4d5da)" style="fill: none; stroke: #b0b0b0; stroke-width: 0.8; stroke-linecap: square"/>
     </g>
     <g id="line2d_2">
      <defs>
       <path id="m12919dfc09" d="M 0 0 
L 0 3.5 
" style="stroke: #000000; stroke-width: 0.8"/>
      </defs>
      <g>
       <use xlink:href="#m12919dfc09" x="200.589562" y="266.245" style="stroke: #000000; stroke-width: 0.8"/>
      </g>
     </g>
     <g id="text_1">
      <!-- −200 -->
      <g transform="translate(175.820812 289.63625) scale(0.24 -0.24)">
       <defs>
        <path id="TeXGyreTermes-Regular-2212" d="M 3354 1389 
L 3354 1811 
L 256 1811 
L 256 1389 
L 3354 1389 
z
" transform="scale(0.015625)"/>
        <path id="TeXGyreTermes-Regular-32" d="M 3040 877 
L 2957 909 
C 2720 544 2637 486 2349 486 
L 819 486 
L 1894 1613 
C 2464 2208 2714 2694 2714 3194 
C 2714 3834 2195 4326 1530 4326 
C 1178 4326 845 4186 608 3930 
C 403 3712 307 3507 198 3053 
L 333 3021 
C 589 3648 819 3853 1261 3853 
C 1798 3853 2163 3488 2163 2950 
C 2163 2451 1869 1856 1331 1286 
L 192 77 
L 192 0 
L 2688 0 
L 3040 877 
z
" transform="scale(0.015625)"/>
        <path id="TeXGyreTermes-Regular-30" d="M 3046 2112 
C 3046 3424 2464 4326 1626 4326 
C 1274 4326 1005 4218 768 3994 
C 397 3635 154 2899 154 2150 
C 154 1453 365 704 666 346 
C 902 64 1229 -90 1600 -90 
C 1926 -90 2202 19 2432 243 
C 2803 595 3046 1338 3046 2112 
z
M 2432 2099 
C 2432 762 2150 77 1600 77 
C 1050 77 768 762 768 2093 
C 768 3450 1056 4160 1606 4160 
C 2144 4160 2432 3437 2432 2099 
z
" transform="scale(0.015625)"/>
       </defs>
       <use xlink:href="#TeXGyreTermes-Regular-2212"/>
       <use xlink:href="#TeXGyreTermes-Regular-32" transform="translate(56.399994 0)"/>
       <use xlink:href="#TeXGyreTermes-Regular-30" transform="translate(106.399979 0)"/>
       <use xlink:href="#TeXGyreTermes-Regular-30" transform="translate(156.399963 0)"/>
      </g>
     </g>
    </g>
    <g id="xtick_2">
     <g id="line2d_3">
      <path d="M 350.025242 266.245 
L 350.025242 25.92 
" clip-path="url(#p274dc4d5da)" style="fill: none; stroke: #b0b0b0; stroke-width: 0.8; stroke-linecap: square"/>
     </g>
     <g id="line2d_4">
      <g>
       <use xlink:href="#m12919dfc09" x="350.025242" y="266.245" style="stroke: #000000; stroke-width: 0.8"/>
      </g>
     </g>
     <g id="text_2">
      <!-- 0 -->
      <g transform="translate(344.025242 289.63625) scale(0.24 -0.24)">
       <use xlink:href="#TeXGyreTermes-Regular-30"/>
      </g>
     </g>
    </g>
    <g id="text_3">
     <!-- x -->
     <g transform="translate(265.21375 315.23625) scale(0.24 -0.24)">
      <defs>
       <path id="TeXGyreTermes-Regular-78" d="M 3066 0 
L 3066 96 
C 2867 96 2739 198 2541 480 
L 1722 1734 
L 2253 2502 
C 2374 2675 2566 2778 2771 2784 
L 2771 2880 
L 1760 2880 
L 1760 2784 
C 1952 2771 2016 2733 2016 2643 
C 2016 2566 1939 2426 1779 2227 
C 1747 2189 1670 2074 1587 1946 
L 1498 2074 
C 1318 2342 1203 2560 1203 2643 
C 1203 2733 1286 2778 1478 2784 
L 1478 2880 
L 154 2880 
L 154 2784 
L 211 2784 
C 403 2784 506 2701 704 2400 
L 1306 1478 
L 576 422 
C 384 160 320 115 109 96 
L 109 0 
L 1037 0 
L 1037 96 
C 858 96 781 128 781 211 
C 781 250 826 346 909 474 
L 1414 1261 
L 1997 365 
C 2022 326 2035 288 2035 250 
C 2035 134 1990 109 1779 96 
L 1779 0 
L 3066 0 
z
" transform="scale(0.015625)"/>
      </defs>
      <use xlink:href="#TeXGyreTermes-Regular-78"/>
     </g>
    </g>
   </g>
   <g id="matplotlib.axis_2">
    <g id="ytick_1">
     <g id="line2d_5">
      <path d="M 107.5475 201.524681 
L 434.88 201.524681 
" clip-path="url(#p274dc4d5da)" style="fill: none; stroke: #b0b0b0; stroke-width: 0.8; stroke-linecap: square"/>
     </g>
     <g id="line2d_6">
      <defs>
       <path id="m7d38319701" d="M 0 0 
L -3.5 0 
" style="stroke: #000000; stroke-width: 0.8"/>
      </defs>
      <g>
       <use xlink:href="#m7d38319701" x="107.5475" y="201.524681" style="stroke: #000000; stroke-width: 0.8"/>
      </g>
     </g>
     <g id="text_4">
      <!-- −400 -->
      <g transform="translate(51.01 209.720306) scale(0.24 -0.24)">
       <defs>
        <path id="TeXGyreTermes-Regular-34" d="M 3021 1069 
L 3021 1478 
L 2368 1478 
L 2368 4326 
L 2086 4326 
L 77 1478 
L 77 1069 
L 1875 1069 
L 1875 0 
L 2368 0 
L 2368 1069 
L 3021 1069 
z
M 1869 1478 
L 333 1478 
L 1869 3674 
L 1869 1478 
z
" transform="scale(0.015625)"/>
       </defs>
       <use xlink:href="#TeXGyreTermes-Regular-2212"/>
       <use xlink:href="#TeXGyreTermes-Regular-34" transform="translate(56.399994 0)"/>
       <use xlink:href="#TeXGyreTermes-Regular-30" transform="translate(106.399979 0)"/>
       <use xlink:href="#TeXGyreTermes-Regular-30" transform="translate(156.399963 0)"/>
      </g>
     </g>
    </g>
    <g id="ytick_2">
     <g id="line2d_7">
      <path d="M 107.5475 122.878214 
L 434.88 122.878214 
" clip-path="url(#p274dc4d5da)" style="fill: none; stroke: #b0b0b0; stroke-width: 0.8; stroke-linecap: square"/>
     </g>
     <g id="line2d_8">
      <g>
       <use xlink:href="#m7d38319701" x="107.5475" y="122.878214" style="stroke: #000000; stroke-width: 0.8"/>
      </g>
     </g>
     <g id="text_5">
      <!-- −200 -->
      <g transform="translate(51.01 131.073839) scale(0.24 -0.24)">
       <use xlink:href="#TeXGyreTermes-Regular-2212"/>
       <use xlink:href="#TeXGyreTermes-Regular-32" transform="translate(56.399994 0)"/>
       <use xlink:href="#TeXGyreTermes-Regular-30" transform="translate(106.399979 0)"/>
       <use xlink:href="#TeXGyreTermes-Regular-30" transform="translate(156.399963 0)"/>
      </g>
     </g>
    </g>
    <g id="ytick_3">
     <g id="line2d_9">
      <path d="M 107.5475 44.231747 
L 434.88 44.231747 
" clip-path="url(#p274dc4d5da)" style="fill: none; stroke: #b0b0b0; stroke-width: 0.8; stroke-linecap: square"/>
     </g>
     <g id="line2d_10">
      <g>
       <use xlink:href="#m7d38319701" x="107.5475" y="44.231747" style="stroke: #000000; stroke-width: 0.8"/>
      </g>
     </g>
     <g id="text_6">
      <!-- 0 -->
      <g transform="translate(88.5475 52.427372) scale(0.24 -0.24)">
       <use xlink:href="#TeXGyreTermes-Regular-30"/>
      </g>
     </g>
    </g>
    <g id="text_7">
     <!-- y -->
     <g transform="translate(41.77875 152.0825) rotate(-90) scale(0.24 -0.24)">
      <defs>
       <path id="TeXGyreTermes-Regular-79" d="M 3040 2784 
L 3040 2880 
L 2176 2880 
L 2176 2784 
C 2381 2784 2483 2726 2483 2624 
C 2483 2598 2477 2560 2458 2515 
L 1837 749 
L 1101 2368 
C 1062 2458 1037 2541 1037 2611 
C 1037 2726 1133 2771 1408 2784 
L 1408 2880 
L 90 2880 
L 90 2790 
C 256 2765 365 2694 416 2586 
L 1472 358 
C 1517 250 1542 173 1542 122 
C 1542 26 1395 -378 1286 -570 
C 1197 -736 1056 -858 966 -858 
C 928 -858 870 -845 806 -813 
C 685 -768 576 -742 467 -742 
C 320 -742 192 -870 192 -1024 
C 192 -1235 397 -1395 666 -1395 
C 1094 -1395 1402 -1037 1747 -115 
L 2733 2496 
C 2816 2701 2886 2765 3040 2784 
z
" transform="scale(0.015625)"/>
      </defs>
      <use xlink:href="#TeXGyreTermes-Regular-79"/>
     </g>
    </g>
   </g>
   <g id="line2d_11">
    <path d="M 350.025242 44.231747 
L 347.748876 44.476223 
L 347.814699 44.581739 
L 346.750403 44.894729 
L 340.366942 45.752189 
L 339.418055 45.814612 
L 335.612614 45.554386 
L 334.502511 45.323404 
L 333.112293 44.689533 
L 332.440506 44.661161 
L 331.038323 44.05224 
L 329.582875 43.114112 
L 329.414482 42.962378 
L 329.586181 42.810733 
L 329.497755 42.497334 
L 329.147528 41.868286 
L 329.144358 41.140987 
L 329.335511 40.613533 
L 328.949955 40.325369 
L 328.349158 39.535273 
L 326.937672 38.300547 
L 326.756847 37.886465 
L 327.016904 37.470606 
L 326.831923 37.292172 
L 325.942179 37.11622 
L 325.526975 37.299549 
L 325.168491 37.245647 
L 325.15045 36.843864 
L 326.258119 37.371835 
L 326.53196 37.698509 
L 326.519548 38.124449 
L 324.438001 41.013383 
L 323.45169 41.413972 
L 322.347785 41.646669 
L 320.901375 42.39384 
L 318.672741 43.054636 
L 315.825343 43.835508 
L 315.215004 44.305983 
L 313.890225 44.929288 
L 313.100846 45.231724 
L 312.779202 45.476456 
L 312.649632 45.784211 
L 312.766906 45.873038 
L 312.61831 45.973829 
L 311.659165 46.14067 
L 310.561558 46.500846 
L 309.737994 47.354967 
L 309.417434 47.613696 
L 309.327703 47.902701 
L 307.702998 48.690769 
L 304.568586 49.916733 
L 300.945577 50.820054 
L 299.650105 50.870492 
L 298.869006 51.036332 
L 296.883701 51.317132 
L 294.826933 51.975384 
L 294.297876 52.487143 
L 293.206236 53.05019 
L 289.962632 53.565345 
L 289.2237 54.181267 
L 289.128812 54.477045 
L 288.347778 54.823988 
L 287.542331 55.525795 
L 286.833297 55.795135 
L 284.76161 55.730369 
L 282.184935 55.403111 
L 281.438134 55.340999 
L 281.122488 55.131983 
L 280.390453 54.886006 
L 280.171222 54.61837 
L 278.241854 54.036855 
L 278.429745 53.877969 
L 278.609234 53.471911 
L 279.883266 53.422002 
L 281.893864 53.527457 
L 283.114933 53.375953 
L 285.72539 53.041478 
L 287.500694 52.187865 
L 287.629422 51.861215 
L 288.936028 51.419913 
L 291.128782 50.943407 
L 292.395974 50.954507 
L 293.636786 50.759588 
L 294.752301 50.959973 
L 297.228376 51.851727 
L 300.161626 52.647123 
L 300.791965 52.988719 
L 302.077162 53.103083 
L 302.409364 52.976629 
L 302.569071 52.753609 
L 303.614559 52.399305 
L 304.335776 51.988348 
L 305.223406 51.898506 
L 305.638243 51.740477 
L 306.268802 51.658075 
L 306.819782 51.089319 
L 308.999544 49.95296 
L 309.686682 49.846327 
L 311.755287 49.023617 
L 312.406742 48.467895 
L 313.896367 47.748948 
L 314.824505 47.298582 
L 315.030955 47.005116 
L 316.449936 46.075791 
L 317.01092 46.007115 
L 315.561061 46.059541 
L 312.382246 46.284657 
L 310.381308 45.887688 
L 309.614814 45.344157 
L 310.2959 45.134862 
L 310.015538 44.362711 
L 309.781422 44.242683 
L 309.889094 44.278786 
L 310.106604 44.07692 
L 309.803067 43.705711 
L 309.912641 43.61222 
L 310.142427 43.609113 
L 309.861641 43.813852 
L 310.130488 44.016567 
L 310.677042 44.192098 
L 310.683581 44.528493 
L 310.859253 44.946343 
L 310.856457 45.302824 
L 311.045825 45.688485 
L 310.764423 46.415744 
L 310.312252 47.012233 
L 309.947726 47.738929 
L 309.807465 49.975345 
L 309.736893 50.298822 
L 309.821835 50.620019 
L 310.092145 51.045322 
L 310.561849 51.569785 
L 311.516451 53.067989 
L 311.963063 53.544244 
L 311.920754 53.888538 
L 314.766933 54.72617 
L 315.145162 54.99643 
L 315.462423 55.487158 
L 316.580873 56.508478 
L 316.673415 56.892922 
L 316.425367 57.388713 
L 317.49016 57.825912 
L 318.347055 58.320713 
L 321.615241 58.640736 
L 323.352398 59.04075 
L 325.439217 59.425979 
L 326.144721 59.313886 
L 329.809506 59.673558 
L 334.127999 60.870322 
L 335.285176 61.303822 
L 342.194081 62.50811 
L 344.794258 63.20135 
L 353.215385 65.0699 
L 353.95182 65.659942 
L 354.437381 66.350869 
L 354.8586 66.738796 
L 355.042774 67.204013 
L 354.955662 68.902328 
L 355.171488 69.123589 
L 355.640924 69.409014 
L 355.595835 69.821656 
L 356.006041 70.522915 
L 356.43497 70.776734 
L 356.458152 71.086341 
L 356.759268 71.40914 
L 356.817942 71.864662 
L 357.148298 72.412261 
L 358.315937 73.308012 
L 358.231588 73.568844 
L 358.431867 73.814888 
L 358.457537 73.981845 
L 356.407999 74.280519 
L 355.551005 74.312548 
L 355.202141 74.442895 
L 354.808959 74.820339 
L 354.307586 75.181727 
L 354.440319 75.483757 
L 354.399789 76.553129 
L 354.095674 76.648223 
L 352.428681 78.388745 
L 351.634005 79.245971 
L 351.910359 80.349809 
L 352.284887 81.599137 
L 352.083062 82.135254 
L 352.081802 82.663528 
L 352.341969 83.350821 
L 353.422138 84.367262 
L 354.151847 84.589248 
L 355.044098 85.35678 
L 355.751941 85.798914 
L 356.680302 86.063796 
L 358.298963 86.253187 
L 360.411078 87.098022 
L 361.597417 87.651378 
L 362.221243 87.871584 
L 362.985811 87.795042 
L 363.718655 87.827173 
L 363.992885 87.744388 
L 366.689241 87.810164 
L 367.460478 88.007823 
L 367.824228 88.236696 
L 368.51536 88.422987 
L 369.170773 88.460533 
L 369.47404 88.283617 
L 369.9587 88.159762 
L 371.766517 88.079529 
L 374.806803 88.664612 
L 377.35537 89.126917 
L 379.238323 88.859501 
L 379.627276 88.928084 
L 380.509484 88.682198 
L 382.710582 88.074146 
L 382.969047 87.530023 
L 383.487058 87.206543 
L 384.092842 86.495589 
L 384.300577 86.267352 
L 385.411265 85.745869 
L 386.048619 85.666722 
L 387.301476 85.938332 
L 387.414672 86.197006 
L 389.078451 87.029155 
L 389.634242 87.695274 
L 389.779766 88.260842 
L 390.586045 89.032668 
L 393.173887 89.884132 
L 394.05798 90.361124 
L 394.947892 91.036273 
L 398.32021 92.596093 
L 399.0702 92.998613 
L 401.016025 93.572302 
L 402.32055 94.266891 
L 403.784766 95.327848 
L 404.417073 96.850919 
L 406.129473 98.871513 
L 407.488255 100.785234 
L 409.717424 102.875298 
L 411.706488 104.811157 
L 413.829941 106.660453 
L 414.842917 107.641464 
L 416.129807 109.815966 
L 416.579571 111.0487 
L 417.161778 112.090632 
L 417.298803 112.940118 
L 417.64024 113.670223 
L 417.869058 114.572982 
L 417.895187 115.161697 
L 418.572901 116.384344 
L 419.039492 116.831633 
L 419.386985 117.398947 
L 419.488172 117.954143 
L 419.330452 118.566139 
L 419.531395 119.259802 
L 419.590235 119.89484 
L 420.00125 120.768748 
L 419.944641 121.602479 
L 419.277085 124.402302 
L 418.666592 125.233109 
L 418.222656 126.045341 
L 418.124715 126.929718 
L 417.835743 127.84493 
L 416.692867 130.108925 
L 416.149178 130.785059 
L 414.220828 132.475361 
L 413.597762 133.255434 
L 412.578079 133.887389 
L 411.645487 134.288507 
L 408.128052 135.144054 
L 405.461703 135.359839 
L 404.608747 135.391791 
L 403.705802 135.598229 
L 402.872828 136.510456 
L 402.475921 137.023521 
L 402.223318 137.566297 
L 400.929091 139.304073 
L 399.433813 140.462836 
L 398.392559 140.718179 
L 397.299257 141.239241 
L 396.504374 141.784569 
L 395.729618 142.564438 
L 395.442401 143.448796 
L 395.360523 145.39285 
L 395.081296 146.291598 
L 395.150833 147.099149 
L 395.622348 147.886178 
L 395.624461 148.652615 
L 395.065456 149.955015 
L 394.919228 150.580389 
L 394.870929 151.281288 
L 394.254836 152.41352 
L 394.175278 152.919497 
L 394.255107 153.490257 
L 394.148973 154.842878 
L 392.616554 156.00595 
L 391.55638 156.69509 
L 390.393577 156.885637 
L 390.098794 157.12016 
L 389.922275 157.484114 
L 389.601482 157.541555 
L 388.996889 157.381886 
L 387.709936 157.3647 
L 386.805222 157.301939 
L 386.890984 157.314537 
L 386.625771 157.460964 
L 386.262532 157.4967 
L 385.977563 157.68212 
L 386.102023 158.02681 
L 385.884772 158.749075 
L 385.948088 159.15479 
L 386.810863 159.74273 
L 387.084837 160.206449 
L 387.038679 160.420543 
L 387.875691 163.417558 
L 389.052653 163.995725 
L 389.599838 164.253883 
L 390.22635 164.734305 
L 390.156656 164.662669 
L 390.312302 164.410427 
L 391.034206 164.496576 
L 391.267572 164.435164 
L 389.303919 165.053297 
L 387.187466 166.172058 
L 387.248519 166.584475 
L 387.693136 167.418146 
L 387.85338 167.890956 
L 387.454594 168.15856 
L 387.208407 168.563854 
L 387.102892 169.018053 
L 386.846976 169.583974 
L 385.394778 171.677878 
L 384.884871 172.025474 
L 384.922924 172.277554 
L 385.766566 173.173318 
L 387.584359 174.185139 
L 388.075253 174.321162 
L 388.374901 174.536505 
L 388.105774 175.188268 
L 387.861208 175.367566 
L 387.819571 175.64826 
L 389.480691 176.5941 
L 390.079808 177.123025 
L 391.047727 177.721978 
L 391.10682 178.153021 
L 390.958397 178.499378 
L 390.185042 179.501968 
L 388.605808 180.565444 
L 388.457341 180.937277 
L 387.958238 181.758299 
L 388.012194 182.578185 
L 387.499577 183.566343 
L 386.815683 184.35408 
L 386.421316 184.492406 
L 385.968122 184.353676 
L 385.616563 184.118963 
L 383.471447 183.621346 
L 382.698831 183.581683 
L 381.883035 183.670963 
L 381.25717 183.966041 
L 380.24858 184.861923 
L 377.985805 185.389087 
L 375.190413 186.186302 
L 371.519533 188.420079 
L 370.522122 188.948193 
L 369.665532 189.609143 
L 368.912529 190.018247 
L 367.014955 190.394754 
L 366.098751 190.733836 
L 363.771473 190.987106 
L 361.596059 191.082348 
L 359.088702 191.242176 
L 357.101023 191.544081 
L 355.63384 191.946517 
L 354.839176 192.021711 
L 354.846775 192.084271 
L 353.968477 192.398243 
L 353.640126 192.756133 
L 353.669664 193.442574 
L 353.883127 193.719964 
L 353.793775 193.824892 
L 351.647324 194.578377 
L 350.151848 195.352852 
L 349.254171 195.487806 
L 347.277766 195.340958 
L 345.258601 195.491867 
L 344.508085 195.277016 
L 344.299254 195.16508 
L 344.208586 194.965279 
L 343.909004 195.026454 
L 343.600034 194.872064 
L 343.046089 194.157867 
L 342.142603 193.65075 
L 341.758973 193.370451 
L 339.832928 193.062754 
L 338.851158 192.772172 
L 337.166343 192.723286 
L 336.345146 192.684568 
L 333.435453 193.081679 
L 333.085096 193.055379 
L 332.911549 192.713864 
L 333.072451 192.442735 
L 332.89048 192.181073 
L 332.743783 191.46103 
L 331.787112 190.805638 
L 331.383139 190.604649 
L 330.7848 190.656254 
L 330.176463 190.885346 
L 329.234277 191.072849 
L 327.501612 191.712373 
L 326.725429 192.232276 
L 323.008825 193.837195 
L 320.555782 194.558041 
L 317.93997 195.184381 
L 312.876737 196.719418 
L 311.878347 197.158968 
L 310.001178 198.330073 
L 307.74541 199.968013 
L 306.879203 200.374146 
L 306.372407 200.80121 
L 306.114236 201.238644 
L 304.560846 202.490501 
L 302.374396 203.402291 
L 300.309758 204.709895 
L 298.344545 205.446517 
L 297.685393 205.15999 
L 295.764001 204.844096 
L 292.869641 204.899596 
L 286.621811 205.246269 
L 286.182259 205.191839 
L 283.778507 205.356687 
L 283.398811 205.478711 
L 282.787704 205.19769 
L 281.848491 205.202865 
L 279.697891 204.850396 
L 276.547493 204.199018 
L 275.559047 204.09278 
L 272.948987 204.214578 
L 269.545412 205.012462 
L 268.242713 205.219526 
L 266.333388 205.846449 
L 265.844283 206.175066 
L 265.900634 206.410012 
L 265.715122 206.747073 
L 265.251436 207.112085 
L 264.70022 207.389832 
L 262.310732 207.866334 
L 260.884265 208.458477 
L 258.563675 209.398457 
L 254.647025 210.061545 
L 249.842102 211.66037 
L 246.760373 213.277259 
L 243.203272 216.337946 
L 242.630824 217.095803 
L 241.842735 217.742885 
L 240.786812 218.273982 
L 236.120995 221.286195 
L 232.669447 222.920936 
L 231.214753 223.850412 
L 228.594387 224.710376 
L 227.535604 225.016322 
L 223.852366 225.531477 
L 222.452192 225.804956 
L 220.453967 225.998745 
L 216.72418 226.99966 
L 215.311242 227.529494 
L 211.992744 228.475173 
L 207.271559 230.243507 
L 205.718534 230.985705 
L 204.294781 231.537116 
L 201.165228 232.158712 
L 198.446262 233.300365 
L 192.536428 234.986587 
L 190.779378 235.720976 
L 185.258136 237.589809 
L 181.951503 238.260663 
L 178.7814 238.683112 
L 177.224551 239.030087 
L 169.892514 240.063535 
L 167.680431 240.322893 
L 161.178849 241.610302 
L 159.181621 242.016367 
L 154.322098 243.661075 
L 150.776888 245.644156 
L 149.438183 246.178376 
L 146.852856 247.503626 
L 142.07698 249.389826 
L 139.378244 250.194654 
L 136.339011 250.969716 
L 133.911875 251.748819 
L 130.244697 252.603551 
L 127.985441 252.749176 
L 127.222688 252.601967 
L 127.764361 252.564699 
L 125.891673 252.914413 
L 124.482049 253.362346 
L 123.831118 253.830854 
L 123.226044 253.96625 
L 123.014895 254.232513 
L 122.816649 255.133724 
L 122.676786 255.143249 
L 122.42625 255.321136 
L 122.42625 255.321136 
" clip-path="url(#p274dc4d5da)" style="fill: none; stroke: #1f77b4; stroke-width: 1.5; stroke-linecap: square"/>
   </g>
   <g id="patch_3">
    <path d="M 107.5475 266.245 
L 107.5475 25.92 
" style="fill: none; stroke: #000000; stroke-width: 0.8; stroke-linejoin: miter; stroke-linecap: square"/>
   </g>
   <g id="patch_4">
    <path d="M 434.88 266.245 
L 434.88 25.92 
" style="fill: none; stroke: #000000; stroke-width: 0.8; stroke-linejoin: miter; stroke-linecap: square"/>
   </g>
   <g id="patch_5">
    <path d="M 107.5475 266.245 
L 434.88 266.245 
" style="fill: none; stroke: #000000; stroke-width: 0.8; stroke-linejoin: miter; stroke-linecap: square"/>
   </g>
   <g id="patch_6">
    <path d="M 107.5475 25.92 
L 434.88 25.92 
" style="fill: none; stroke: #000000; stroke-width: 0.8; stroke-linejoin: miter; stroke-linecap: square"/>
   </g>
  </g>
 </g>
 <defs>
  <clipPath id="p274dc4d5da">
   <rect x="107.5475" y="25.92" width="327.3325" height="240.325"/>
  </clipPath>
 </defs>
</svg>
