<?xml version="1.0" encoding="utf-8" standalone="no"?>
<!DOCTYPE svg PUBLIC "-//W3C//DTD SVG 1.1//EN"
  "http://www.w3.org/Graphics/SVG/1.1/DTD/svg11.dtd">
<svg xmlns:xlink="http://www.w3.org/1999/xlink" width="460.8pt" height="345.6pt" viewBox="0 0 460.8 345.6" xmlns="http://www.w3.org/2000/svg" version="1.1">
 <metadata>
  <rdf:RDF xmlns:dc="http://purl.org/dc/elements/1.1/" xmlns:cc="http://creativecommons.org/ns#" xmlns:rdf="http://www.w3.org/1999/02/22-rdf-syntax-ns#">
   <cc:Work>
    <dc:type rdf:resource="http://purl.org/dc/dcmitype/StillImage"/>
    <dc:date>2026-02-02T15:33:56.656684</dc:date>
    <dc:format>image/svg+xml</dc:format>
    <dc:creator>
     <cc:Agent>
      <dc:title>Matplotlib v3.10.8, https://matplotlib.org/</dc:title>
     </cc:Agent>
    </dc:creator>
   </cc:Work>
  </rdf:RDF>
 </metadata>
 <defs>
  <style type="text/css">*{stroke-linejoin: round; stroke-linecap: butt}</style>
 </defs>
 <g id="figure_1">
  <g id="patch_1">
   <path d="M 0 345.6 
L 460.8 345.6 
L 460.8 0 
L 0 0 
z
" style="fill: #ffffff"/>
  </g>
  <g id="axes_1">
   <g id="patch_2">
    <path d="M 94.0475 266.245 
L 434.88 266.245 
L 434.88 25.92 
L 94.0475 25.92 
z
" style="fill: #ffffff"/>
   </g>
   <g id="matplotlib.axis_1">
    <g id="xtick_1">
     <g id="line2d_1">
      <path d="M 118.720174 266.245 
L 118.720174 25.92 
" clip-path="url(#p7d744847b6)" style="fill: none; stroke: #b0b0b0; stroke-width: 0.8; stroke-linecap: square"/>
     </g>
     <g id="line2d_2">
      <defs>
       <path id="m695f19b215" d="M 0 0 
L 0 3.5 
" style="stroke: #000000; stroke-width: 0.8"/>
      </defs>
      <g>
       <use xlink:href="#m695f19b215" x="118.720174" y="266.245" style="stroke: #000000; stroke-width: 0.8"/>
      </g>
     </g>
     <g id="text_1">
      <!-- −300 -->
      <g transform="translate(93.951424 289.63625) scale(0.24 -0.24)">
       <defs>
        <path id="TeXGyreTermes-Regular-2212" d="M 3354 1389 
L 3354 1811 
L 256 1811 
L 256 1389 
L 3354 1389 
z
" transform="scale(0.015625)"/>
        <path id="TeXGyreTermes-Regular-33" d="M 2765 1402 
C 2765 1728 2662 2029 2477 2227 
C 2349 2368 2227 2445 1946 2566 
C 2387 2867 2547 3104 2547 3450 
C 2547 3968 2138 4326 1549 4326 
C 1229 4326 947 4218 717 4013 
C 525 3840 429 3674 288 3290 
L 384 3264 
C 646 3731 934 3942 1338 3942 
C 1754 3942 2042 3661 2042 3258 
C 2042 3027 1946 2797 1786 2637 
C 1594 2445 1414 2349 979 2195 
L 979 2112 
C 1357 2112 1504 2099 1658 2042 
C 2054 1901 2304 1536 2304 1094 
C 2304 557 1939 141 1466 141 
C 1293 141 1165 186 928 339 
C 736 454 627 499 518 499 
C 371 499 275 410 275 275 
C 275 51 550 -90 998 -90 
C 1491 -90 1997 77 2298 339 
C 2598 602 2765 973 2765 1402 
z
" transform="scale(0.015625)"/>
        <path id="TeXGyreTermes-Regular-30" d="M 3046 2112 
C 3046 3424 2464 4326 1626 4326 
C 1274 4326 1005 4218 768 3994 
C 397 3635 154 2899 154 2150 
C 154 1453 365 704 666 346 
C 902 64 1229 -90 1600 -90 
C 1926 -90 2202 19 2432 243 
C 2803 595 3046 1338 3046 2112 
z
M 2432 2099 
C 2432 762 2150 77 1600 77 
C 1050 77 768 762 768 2093 
C 768 3450 1056 4160 1606 4160 
C 2144 4160 2432 3437 2432 2099 
z
" transform="scale(0.015625)"/>
       </defs>
       <use xlink:href="#TeXGyreTermes-Regular-2212"/>
       <use xlink:href="#TeXGyreTermes-Regular-33" transform="translate(56.399994 0)"/>
       <use xlink:href="#TeXGyreTermes-Regular-30" transform="translate(106.399979 0)"/>
       <use xlink:href="#TeXGyreTermes-Regular-30" transform="translate(156.399963 0)"/>
      </g>
     </g>
    </g>
    <g id="xtick_2">
     <g id="line2d_3">
      <path d="M 218.942654 266.245 
L 218.942654 25.92 
" clip-path="url(#p7d744847b6)" style="fill: none; stroke: #b0b0b0; stroke-width: 0.8; stroke-linecap: square"/>
     </g>
     <g id="line2d_4">
      <g>
       <use xlink:href="#m695f19b215" x="218.942654" y="266.245" style="stroke: #000000; stroke-width: 0.8"/>
      </g>
     </g>
     <g id="text_2">
      <!-- −200 -->
      <g transform="translate(194.173904 289.63625) scale(0.24 -0.24)">
       <defs>
        <path id="TeXGyreTermes-Regular-32" d="M 3040 877 
L 2957 909 
C 2720 544 2637 486 2349 486 
L 819 486 
L 1894 1613 
C 2464 2208 2714 2694 2714 3194 
C 2714 3834 2195 4326 1530 4326 
C 1178 4326 845 4186 608 3930 
C 403 3712 307 3507 198 3053 
L 333 3021 
C 589 3648 819 3853 1261 3853 
C 1798 3853 2163 3488 2163 2950 
C 2163 2451 1869 1856 1331 1286 
L 192 77 
L 192 0 
L 2688 0 
L 3040 877 
z
" transform="scale(0.015625)"/>
       </defs>
       <use xlink:href="#TeXGyreTermes-Regular-2212"/>
       <use xlink:href="#TeXGyreTermes-Regular-32" transform="translate(56.399994 0)"/>
       <use xlink:href="#TeXGyreTermes-Regular-30" transform="translate(106.399979 0)"/>
       <use xlink:href="#TeXGyreTermes-Regular-30" transform="translate(156.399963 0)"/>
      </g>
     </g>
    </g>
    <g id="xtick_3">
     <g id="line2d_5">
      <path d="M 319.165134 266.245 
L 319.165134 25.92 
" clip-path="url(#p7d744847b6)" style="fill: none; stroke: #b0b0b0; stroke-width: 0.8; stroke-linecap: square"/>
     </g>
     <g id="line2d_6">
      <g>
       <use xlink:href="#m695f19b215" x="319.165134" y="266.245" style="stroke: #000000; stroke-width: 0.8"/>
      </g>
     </g>
     <g id="text_3">
      <!-- −100 -->
      <g transform="translate(294.396384 289.63625) scale(0.24 -0.24)">
       <defs>
        <path id="TeXGyreTermes-Regular-31" d="M 2522 0 
L 2522 96 
C 2016 102 1914 166 1914 474 
L 1914 4314 
L 1862 4326 
L 710 3744 
L 710 3654 
C 787 3686 858 3712 883 3725 
C 998 3770 1107 3795 1171 3795 
C 1306 3795 1363 3699 1363 3494 
L 1363 595 
C 1363 384 1312 237 1210 179 
C 1114 122 1024 102 755 96 
L 755 0 
L 2522 0 
z
" transform="scale(0.015625)"/>
       </defs>
       <use xlink:href="#TeXGyreTermes-Regular-2212"/>
       <use xlink:href="#TeXGyreTermes-Regular-31" transform="translate(56.399994 0)"/>
       <use xlink:href="#TeXGyreTermes-Regular-30" transform="translate(106.399979 0)"/>
       <use xlink:href="#TeXGyreTermes-Regular-30" transform="translate(156.399963 0)"/>
      </g>
     </g>
    </g>
    <g id="xtick_4">
     <g id="line2d_7">
      <path d="M 419.387614 266.245 
L 419.387614 25.92 
" clip-path="url(#p7d744847b6)" style="fill: none; stroke: #b0b0b0; stroke-width: 0.8; stroke-linecap: square"/>
     </g>
     <g id="line2d_8">
      <g>
       <use xlink:href="#m695f19b215" x="419.387614" y="266.245" style="stroke: #000000; stroke-width: 0.8"/>
      </g>
     </g>
     <g id="text_4">
      <!-- 0 -->
      <g transform="translate(413.387614 289.63625) scale(0.24 -0.24)">
       <use xlink:href="#TeXGyreTermes-Regular-30"/>
      </g>
     </g>
    </g>
    <g id="text_5">
     <!-- x -->
     <g transform="translate(258.46375 315.23625) scale(0.24 -0.24)">
      <defs>
       <path id="TeXGyreTermes-Regular-78" d="M 3066 0 
L 3066 96 
C 2867 96 2739 198 2541 480 
L 1722 1734 
L 2253 2502 
C 2374 2675 2566 2778 2771 2784 
L 2771 2880 
L 1760 2880 
L 1760 2784 
C 1952 2771 2016 2733 2016 2643 
C 2016 2566 1939 2426 1779 2227 
C 1747 2189 1670 2074 1587 1946 
L 1498 2074 
C 1318 2342 1203 2560 1203 2643 
C 1203 2733 1286 2778 1478 2784 
L 1478 2880 
L 154 2880 
L 154 2784 
L 211 2784 
C 403 2784 506 2701 704 2400 
L 1306 1478 
L 576 422 
C 384 160 320 115 109 96 
L 109 0 
L 1037 0 
L 1037 96 
C 858 96 781 128 781 211 
C 781 250 826 346 909 474 
L 1414 1261 
L 1997 365 
C 2022 326 2035 288 2035 250 
C 2035 134 1990 109 1779 96 
L 1779 0 
L 3066 0 
z
" transform="scale(0.015625)"/>
      </defs>
      <use xlink:href="#TeXGyreTermes-Regular-78"/>
     </g>
    </g>
   </g>
   <g id="matplotlib.axis_2">
    <g id="ytick_1">
     <g id="line2d_9">
      <path d="M 94.0475 248.664025 
L 434.88 248.664025 
" clip-path="url(#p7d744847b6)" style="fill: none; stroke: #b0b0b0; stroke-width: 0.8; stroke-linecap: square"/>
     </g>
     <g id="line2d_10">
      <defs>
       <path id="m1e2210c09f" d="M 0 0 
L -3.5 0 
" style="stroke: #000000; stroke-width: 0.8"/>
      </defs>
      <g>
       <use xlink:href="#m1e2210c09f" x="94.0475" y="248.664025" style="stroke: #000000; stroke-width: 0.8"/>
      </g>
     </g>
     <g id="text_6">
      <!-- 0 -->
      <g transform="translate(75.0475 256.85965) scale(0.24 -0.24)">
       <use xlink:href="#TeXGyreTermes-Regular-30"/>
      </g>
     </g>
    </g>
    <g id="ytick_2">
     <g id="line2d_11">
      <path d="M 94.0475 155.469307 
L 434.88 155.469307 
" clip-path="url(#p7d744847b6)" style="fill: none; stroke: #b0b0b0; stroke-width: 0.8; stroke-linecap: square"/>
     </g>
     <g id="line2d_12">
      <g>
       <use xlink:href="#m1e2210c09f" x="94.0475" y="155.469307" style="stroke: #000000; stroke-width: 0.8"/>
      </g>
     </g>
     <g id="text_7">
      <!-- 200 -->
      <g transform="translate(51.0475 163.664932) scale(0.24 -0.24)">
       <use xlink:href="#TeXGyreTermes-Regular-32"/>
       <use xlink:href="#TeXGyreTermes-Regular-30" transform="translate(49.999985 0)"/>
       <use xlink:href="#TeXGyreTermes-Regular-30" transform="translate(99.999969 0)"/>
      </g>
     </g>
    </g>
    <g id="ytick_3">
     <g id="line2d_13">
      <path d="M 94.0475 62.274589 
L 434.88 62.274589 
" clip-path="url(#p7d744847b6)" style="fill: none; stroke: #b0b0b0; stroke-width: 0.8; stroke-linecap: square"/>
     </g>
     <g id="line2d_14">
      <g>
       <use xlink:href="#m1e2210c09f" x="94.0475" y="62.274589" style="stroke: #000000; stroke-width: 0.8"/>
      </g>
     </g>
     <g id="text_8">
      <!-- 400 -->
      <g transform="translate(51.0475 70.470214) scale(0.24 -0.24)">
       <defs>
        <path id="TeXGyreTermes-Regular-34" d="M 3021 1069 
L 3021 1478 
L 2368 1478 
L 2368 4326 
L 2086 4326 
L 77 1478 
L 77 1069 
L 1875 1069 
L 1875 0 
L 2368 0 
L 2368 1069 
L 3021 1069 
z
M 1869 1478 
L 333 1478 
L 1869 3674 
L 1869 1478 
z
" transform="scale(0.015625)"/>
       </defs>
       <use xlink:href="#TeXGyreTermes-Regular-34"/>
       <use xlink:href="#TeXGyreTermes-Regular-30" transform="translate(49.999985 0)"/>
       <use xlink:href="#TeXGyreTermes-Regular-30" transform="translate(99.999969 0)"/>
      </g>
     </g>
    </g>
    <g id="text_9">
     <!-- y -->
     <g transform="translate(41.81625 152.0825) rotate(-90) scale(0.24 -0.24)">
      <defs>
       <path id="TeXGyreTermes-Regular-79" d="M 3040 2784 
L 3040 2880 
L 2176 2880 
L 2176 2784 
C 2381 2784 2483 2726 2483 2624 
C 2483 2598 2477 2560 2458 2515 
L 1837 749 
L 1101 2368 
C 1062 2458 1037 2541 1037 2611 
C 1037 2726 1133 2771 1408 2784 
L 1408 2880 
L 90 2880 
L 90 2790 
C 256 2765 365 2694 416 2586 
L 1472 358 
C 1517 250 1542 173 1542 122 
C 1542 26 1395 -378 1286 -570 
C 1197 -736 1056 -858 966 -858 
C 928 -858 870 -845 806 -813 
C 685 -768 576 -742 467 -742 
C 320 -742 192 -870 192 -1024 
C 192 -1235 397 -1395 666 -1395 
C 1094 -1395 1402 -1037 1747 -115 
L 2733 2496 
C 2816 2701 2886 2765 3040 2784 
z
" transform="scale(0.015625)"/>
      </defs>
      <use xlink:href="#TeXGyreTermes-Regular-79"/>
     </g>
    </g>
   </g>
   <g id="line2d_15">
    <path d="M 419.387614 248.664025 
L 418.420709 249.142664 
L 417.678481 249.350905 
L 414.801221 249.419499 
L 413.80096 249.351384 
L 412.382124 248.959192 
L 411.876535 248.555075 
L 411.218227 248.859516 
L 411.019273 249.07738 
L 409.995352 249.49595 
L 409.078718 249.742743 
L 408.594021 249.55828 
L 407.879528 249.444239 
L 405.573709 249.543832 
L 402.862423 249.604474 
L 401.55414 249.728423 
L 400.160021 250.011532 
L 396.46354 250.374196 
L 390.161218 252.604241 
L 389.071065 253.169862 
L 388.225453 253.861109 
L 388.006898 254.252189 
L 387.565682 254.513439 
L 387.583308 254.58964 
L 387.543962 254.499617 
L 387.987352 254.495378 
L 387.934497 254.322316 
L 388.227222 254.107856 
L 388.725253 254.173756 
L 388.675878 254.382161 
L 388.946277 254.527705 
L 390.172679 254.503475 
L 391.064953 254.535943 
L 392.734631 254.420879 
L 393.435317 254.247204 
L 393.750055 253.998842 
L 394.240163 253.770041 
L 394.435605 253.53505 
L 394.78737 253.43751 
L 395.18939 253.456088 
L 395.783022 253.782605 
L 396.698298 253.992839 
L 396.717255 254.131069 
L 396.89984 254.460471 
L 397.16996 254.400057 
L 397.130954 254.431735 
L 397.441463 254.630169 
L 399.425365 255.230397 
L 398.919671 255.321136 
L 398.560388 255.208761 
L 397.934606 254.874151 
L 391.612369 252.336772 
L 391.218469 251.474453 
L 392.228576 249.834565 
L 392.108881 249.369176 
L 391.854525 249.176195 
L 389.94769 248.362145 
L 389.869264 247.99291 
L 390.820551 247.251432 
L 390.813589 246.934799 
L 390.391588 246.206356 
L 390.850506 246.015834 
L 391.17848 245.566571 
L 391.174518 245.121938 
L 391.048301 244.643279 
L 391.140392 243.570793 
L 389.985596 240.952945 
L 389.313588 238.495255 
L 388.284626 233.806935 
L 387.462466 232.67225 
L 385.859922 229.875703 
L 384.775273 227.341836 
L 383.712572 226.072856 
L 382.465181 225.08238 
L 381.227546 224.451702 
L 379.079177 222.948207 
L 377.752284 222.280087 
L 375.22247 221.400653 
L 373.50985 220.210414 
L 373.157203 219.510764 
L 373.085711 218.723545 
L 373.270021 217.829728 
L 373.141315 216.869942 
L 373.25272 215.752889 
L 372.876815 214.715742 
L 372.335517 213.709807 
L 371.441549 212.596273 
L 371.092952 211.445155 
L 371.641304 210.367156 
L 372.199581 206.696507 
L 372.645592 205.494275 
L 373.262729 204.259772 
L 373.660803 203.204758 
L 373.618501 202.071347 
L 372.964706 201.03347 
L 372.548828 199.860272 
L 372.384173 198.642466 
L 372.071473 197.423389 
L 372.257903 193.449536 
L 372.472914 192.231553 
L 372.423689 190.15651 
L 372.420273 189.126713 
L 371.999666 188.078418 
L 372.143825 187.173574 
L 372.797266 186.339102 
L 373.312495 185.498251 
L 373.904425 184.842436 
L 374.549292 183.902737 
L 375.575983 182.805592 
L 376.584067 181.920144 
L 377.443119 181.011855 
L 377.662188 180.019566 
L 377.463011 179.109164 
L 377.038316 178.333351 
L 376.887484 177.361926 
L 376.492616 176.474882 
L 376.001191 175.701087 
L 375.748285 174.809652 
L 376.483839 170.753094 
L 376.592237 169.458891 
L 377.361852 165.963886 
L 377.44869 164.75749 
L 378.60459 162.211804 
L 378.51443 159.942292 
L 378.762817 155.890959 
L 378.636417 154.857883 
L 378.132712 153.749545 
L 376.845049 152.627579 
L 375.338306 150.178406 
L 374.013015 148.473486 
L 373.945252 147.568712 
L 374.001077 146.567288 
L 372.954689 144.01016 
L 371.57983 142.87538 
L 370.347981 142.354186 
L 369.456712 141.77358 
L 366.940749 140.648284 
L 365.210494 139.985078 
L 361.179126 137.918022 
L 359.432914 137.031383 
L 357.214533 136.327465 
L 354.890562 135.378983 
L 350.729463 133.172986 
L 348.698906 132.061609 
L 342.296423 129.654126 
L 340.539467 128.733274 
L 338.827776 128.073141 
L 334.10639 125.587714 
L 332.380867 124.687705 
L 331.031706 123.799737 
L 326.260435 119.17476 
L 322.296237 116.439731 
L 321.001915 115.418194 
L 319.481708 114.444702 
L 318.285795 113.501416 
L 316.745557 112.674774 
L 313.043903 111.232344 
L 311.456121 110.389956 
L 309.679704 109.583286 
L 308.091124 108.729536 
L 306.436795 107.990342 
L 304.503206 107.288852 
L 300.458827 106.024535 
L 298.46639 105.244101 
L 293.89463 102.995624 
L 292.488603 101.289552 
L 291.330304 100.449163 
L 290.075135 99.758119 
L 288.107312 98.242076 
L 286.78323 97.842309 
L 283.151781 97.163019 
L 277.172681 95.501444 
L 272.88212 94.608743 
L 271.158654 94.117874 
L 266.870904 93.3064 
L 259.542856 92.149798 
L 255.64007 90.346321 
L 248.232272 87.773048 
L 245.498124 86.313787 
L 244.42199 85.428689 
L 242.93837 84.649795 
L 238.342686 82.682413 
L 237.411865 81.981331 
L 236.446714 81.49963 
L 235.49305 81.187082 
L 232.888502 80.709386 
L 231.865794 80.366979 
L 230.311249 80.315641 
L 225.797149 79.595493 
L 224.024205 79.135402 
L 222.694782 78.94426 
L 219.132023 77.638076 
L 218.199196 77.043326 
L 213.710413 75.410268 
L 211.944529 75.079324 
L 210.719473 74.690528 
L 209.508903 74.18771 
L 205.030112 71.924701 
L 204.053244 71.581082 
L 203.052905 70.787042 
L 202.712999 70.023808 
L 201.076862 68.86511 
L 200.580105 68.609297 
L 199.513142 68.366564 
L 198.543472 67.930484 
L 197.35874 67.772671 
L 192.794877 66.4678 
L 191.489798 65.881335 
L 190.279868 65.174776 
L 186.739786 63.90928 
L 179.11633 61.461483 
L 172.158896 57.875798 
L 164.271196 55.792272 
L 163.275443 55.282868 
L 160.380184 54.594528 
L 159.055442 54.325066 
L 153.021227 52.784735 
L 152.191678 52.740772 
L 151.024414 52.838978 
L 149.954516 52.764922 
L 148.555121 52.370535 
L 147.394592 51.787219 
L 147.255201 51.151091 
L 146.646353 50.419316 
L 144.861394 49.489211 
L 143.862331 49.059779 
L 142.680472 48.867886 
L 140.092435 47.477549 
L 136.150316 45.664057 
L 135.314487 45.113607 
L 134.311822 44.627178 
L 132.285352 43.997272 
L 131.677312 43.626283 
L 130.961414 42.995604 
L 130.615099 42.859167 
L 130.308727 42.921921 
L 130.061489 42.764384 
L 130.115212 42.572157 
L 130.215161 41.867093 
L 131.005961 40.958189 
L 131.063908 40.731165 
L 129.664729 39.660983 
L 129.331451 39.292448 
L 129.131207 38.516672 
L 129.391128 37.933711 
L 131.934813 37.159483 
L 132.314866 36.892458 
L 132.826572 36.843864 
L 134.847501 37.02479 
L 136.003521 36.874111 
L 137.242792 36.937002 
L 138.427538 37.144398 
L 139.003242 37.193914 
L 139.731427 37.07999 
L 139.548824 36.902507 
L 139.51196 37.109334 
L 139.386914 37.029486 
L 139.511639 37.141819 
L 139.573709 37.384909 
L 139.734679 37.42026 
L 139.597298 37.27081 
L 139.702694 37.368388 
L 140.123502 37.490807 
L 140.047952 37.698859 
L 139.408044 37.891052 
L 138.162048 37.845663 
L 136.91817 38.180585 
L 136.866546 38.077461 
L 136.508206 38.050392 
L 135.894881 37.805956 
L 135.087979 37.886501 
L 133.187012 37.52573 
L 130.315742 37.453168 
L 127.186889 37.696825 
L 125.424516 38.087132 
L 120.77895 38.829354 
L 119.864937 39.242593 
L 118.959474 39.850346 
L 118.515004 40.303193 
L 113.483498 42.894448 
L 112.977065 43.276478 
L 112.575467 43.954365 
L 112.128889 44.476525 
L 110.144467 45.236843 
L 109.539886 45.725733 
L 109.78153 46.966676 
L 110.417122 47.62372 
L 110.443297 48.089596 
L 110.63413 48.349784 
L 111.147237 48.71545 
L 111.007848 49.164039 
L 111.135256 49.815003 
L 110.92843 50.303611 
L 111.174908 51.104086 
L 111.526062 51.763403 
L 111.887698 52.170292 
L 111.755993 52.689957 
L 111.883906 53.314043 
L 112.732537 54.69362 
L 113.292041 55.10452 
L 113.718562 55.556799 
L 113.955376 56.352699 
L 114.720665 57.167009 
L 115.848563 57.992091 
L 116.436385 58.713494 
L 116.623325 59.346029 
L 117.396934 59.915678 
L 117.63147 60.359496 
L 118.860234 60.940574 
L 119.410292 61.015576 
L 122.119116 61.111389 
L 125.512678 61.91409 
L 126.51824 61.865914 
L 126.294034 61.878822 
L 126.108951 62.074499 
L 126.180651 62.350619 
L 126.058002 62.713358 
L 126.406145 63.379116 
L 127.128873 63.861674 
L 129.046946 64.499377 
L 132.493324 66.168898 
L 132.942264 66.217849 
L 133.720585 66.737176 
L 135.340859 67.042169 
L 136.026036 66.980633 
L 137.190182 67.052883 
L 138.743774 67.667492 
L 139.513725 67.99025 
L 141.033501 68.947061 
L 141.562008 70.409355 
L 141.847681 71.14001 
L 142.377874 71.748315 
L 142.55429 72.287389 
L 143.886663 73.247596 
L 146.722379 74.224679 
L 147.241892 74.605229 
L 148.175937 74.913861 
L 148.842095 75.338983 
L 149.265682 75.79974 
L 149.350882 76.249289 
L 149.669393 76.750767 
L 149.924524 77.406324 
L 151.056573 78.66483 
L 151.750405 79.099148 
L 152.852912 79.441735 
L 154.741386 80.433045 
L 155.002625 80.882209 
L 155.553437 81.468117 
L 156.334981 81.942679 
L 156.634854 82.559014 
L 158.009143 84.031406 
L 158.398449 85.089131 
L 158.907545 85.727214 
L 158.955248 86.521329 
L 158.668228 87.372088 
L 157.959566 88.227635 
L 156.83729 89.001671 
L 155.684641 89.63876 
L 154.332645 90.215678 
L 153.149725 90.941895 
L 152.372547 91.606687 
L 151.323493 93.783388 
L 150.008033 94.869368 
L 150.722221 97.356048 
L 152.073306 99.737037 
L 158.942213 105.900109 
L 161.963293 107.813396 
L 163.179844 108.741798 
L 163.994844 109.715419 
L 164.519073 110.629166 
L 165.362558 111.404339 
L 165.862635 112.10247 
L 166.830876 112.854772 
L 170.810596 115.13439 
L 172.910314 117.044215 
L 174.109526 117.820602 
L 175.20564 118.370607 
L 177.175834 118.999546 
L 183.173811 120.847779 
L 184.975059 121.55275 
L 186.217842 122.035238 
L 187.709479 122.944561 
L 189.555237 124.642743 
L 190.530235 125.14793 
L 190.829893 125.81907 
L 189.916796 127.485246 
L 188.718068 129.232167 
L 188.856034 130.164336 
L 188.450094 133.025386 
L 188.006055 134.130626 
L 187.90193 135.181736 
L 187.37281 136.014578 
L 187.223365 137.102269 
L 186.677119 137.944803 
L 186.367235 138.665655 
L 186.32825 139.206505 
L 185.32371 140.578919 
L 184.260001 141.259668 
L 182.606106 142.637178 
L 181.867826 143.323898 
L 180.03734 144.438926 
L 179.451017 145.121929 
L 179.265909 145.578044 
L 178.982712 145.940044 
L 178.947497 146.307167 
L 178.658154 146.778782 
L 178.873988 147.417095 
L 178.941537 148.13956 
L 179.592527 148.654432 
L 182.357356 150.017831 
L 187.178605 151.945786 
L 188.401748 152.596602 
L 189.568309 153.425767 
L 191.214224 154.031071 
L 196.403216 156.378731 
L 197.581032 156.822636 
L 197.864896 157.45448 
L 198.880785 158.847839 
L 199.485575 159.477143 
L 200.989741 160.604236 
L 201.608767 161.289324 
L 201.911025 161.967525 
L 202.701051 162.607352 
L 203.882685 163.372762 
L 204.912613 164.283115 
L 205.683082 165.181166 
L 206.716854 166.034334 
L 209.967838 167.839262 
L 212.617708 169.621135 
L 213.761742 171.207749 
L 213.971474 171.669101 
L 214.647006 172.142262 
L 217.129165 172.667517 
L 218.395438 173.454272 
L 218.972009 173.948697 
L 220.557717 174.68305 
L 222.427343 175.780252 
L 223.215392 179.592012 
L 223.688393 180.142494 
L 223.968856 180.664079 
L 224.483393 180.987203 
L 226.283909 181.844767 
L 227.340728 182.494784 
L 227.88366 182.946167 
L 231.223884 184.438662 
L 232.17051 184.773337 
L 234.474341 185.893467 
L 235.950096 186.75769 
L 236.384306 187.220451 
L 237.921344 187.885208 
L 246.034358 190.199465 
L 247.343697 190.262015 
L 248.316845 190.08419 
L 249.143272 190.114023 
L 254.638746 189.785566 
L 257.703945 188.972 
L 259.769585 188.812446 
L 260.245826 188.905903 
L 260.391676 188.794369 
L 259.990189 189.075633 
L 261.689236 189.236635 
L 263.500277 188.542579 
L 264.092443 188.237655 
L 264.997464 188.058117 
L 266.177029 188.113147 
L 269.417181 187.986093 
L 270.35489 187.653478 
L 273.930489 187.061052 
L 276.729332 187.120809 
L 277.896837 186.886914 
L 279.637617 186.210803 
L 279.830543 186.376094 
L 280.197509 186.500415 
L 280.347959 186.323488 
L 280.726637 186.159522 
L 281.903171 186.268821 
L 283.09643 186.163426 
L 286.393111 186.605236 
L 287.596128 186.686856 
L 289.325647 186.530206 
L 290.127885 186.582643 
L 291.06907 186.496142 
L 292.893364 185.77752 
L 293.820269 185.514753 
L 295.276277 183.634867 
L 296.800306 181.755067 
L 300.149586 179.614058 
L 301.437559 178.807135 
L 303.3377 176.924367 
L 305.511837 175.280753 
L 306.874772 173.548244 
L 307.282213 172.140127 
L 307.771524 171.44808 
L 308.162998 170.537834 
L 310.345564 167.621685 
L 312.05904 165.842562 
L 313.714801 164.13077 
L 319.807083 159.813786 
L 321.79808 158.689087 
L 322.637353 158.115217 
L 323.675608 157.627995 
L 325.313647 156.462046 
L 327.203443 155.904651 
L 328.643479 155.527464 
L 330.457282 155.370125 
L 332.082158 155.052322 
L 339.248032 154.26729 
L 341.441653 154.197394 
L 345.211643 153.848896 
L 351.111872 153.572546 
L 354.980897 152.718714 
L 356.523597 152.125531 
L 370.160301 149.519769 
L 371.225987 149.366733 
L 372.590435 149.298141 
L 373.565691 149.132007 
L 376.816643 146.657756 
L 378.722746 145.521181 
L 379.235356 144.951457 
L 379.47878 144.118657 
L 379.815253 143.366035 
L 380.019106 142.599101 
L 379.890319 142.066057 
L 379.552217 141.644282 
L 379.335179 141.073323 
L 378.859673 140.406168 
L 378.64426 139.888611 
L 378.236897 139.44898 
L 378.028774 138.956316 
L 377.564225 138.325022 
L 376.832721 138.044571 
L 374.851549 137.503849 
L 373.8545 137.402251 
L 371.753271 136.761712 
L 370.548068 136.763692 
L 366.718865 136.20649 
L 366.275345 136.064977 
L 365.700878 135.759506 
L 364.682966 135.616517 
L 364.277365 135.810923 
L 364.114975 136.083932 
L 364.104976 136.03709 
L 364.068078 135.702888 
L 363.8503 135.166812 
L 362.831971 134.204507 
L 361.09134 133.647486 
L 359.69987 133.529163 
L 358.504832 133.712209 
L 358.504343 133.869418 
L 357.509456 133.956599 
L 357.53304 133.843985 
L 357.287179 133.833959 
L 354.896692 132.948207 
L 353.162319 132.544595 
L 352.099695 132.517202 
L 350.399696 132.273258 
L 349.010695 132.026533 
L 347.292675 131.386919 
L 345.051195 131.373368 
L 342.241817 130.86808 
L 340.956827 130.339173 
L 338.894574 128.603218 
L 335.73279 127.687026 
L 331.155199 127.703454 
L 328.978009 127.552832 
L 323.868979 126.854509 
L 323.747021 126.293082 
L 323.386579 125.184231 
L 323.57775 124.151413 
L 323.34958 123.629976 
L 323.555085 123.189595 
L 321.80409 121.623106 
L 321.230047 121.131463 
L 320.425502 120.637199 
L 319.869057 120.152461 
L 318.525169 119.706471 
L 315.823069 119.25064 
L 313.49942 119.323388 
L 310.991868 119.256131 
L 308.656942 119.693115 
L 307.353767 120.163402 
L 305.12384 121.362423 
L 304.20418 122.058202 
L 302.419115 122.983683 
L 301.249834 123.446346 
L 300.44617 124.361105 
L 299.969291 124.640593 
L 299.969291 124.640593 
" clip-path="url(#p7d744847b6)" style="fill: none; stroke: #1f77b4; stroke-width: 2; stroke-linecap: square"/>
   </g>
   <g id="patch_3">
    <path d="M 94.0475 266.245 
L 94.0475 25.92 
" style="fill: none; stroke: #000000; stroke-width: 0.8; stroke-linejoin: miter; stroke-linecap: square"/>
   </g>
   <g id="patch_4">
    <path d="M 434.88 266.245 
L 434.88 25.92 
" style="fill: none; stroke: #000000; stroke-width: 0.8; stroke-linejoin: miter; stroke-linecap: square"/>
   </g>
   <g id="patch_5">
    <path d="M 94.0475 266.245 
L 434.88 266.245 
" style="fill: none; stroke: #000000; stroke-width: 0.8; stroke-linejoin: miter; stroke-linecap: square"/>
   </g>
   <g id="patch_6">
    <path d="M 94.0475 25.92 
L 434.88 25.92 
" style="fill: none; stroke: #000000; stroke-width: 0.8; stroke-linejoin: miter; stroke-linecap: square"/>
   </g>
  </g>
 </g>
 <defs>
  <clipPath id="p7d744847b6">
   <rect x="94.0475" y="25.92" width="340.8325" height="240.325"/>
  </clipPath>
 </defs>
</svg>
