<?xml version="1.0" encoding="utf-8" standalone="no"?>
<!DOCTYPE svg PUBLIC "-//W3C//DTD SVG 1.1//EN"
  "http://www.w3.org/Graphics/SVG/1.1/DTD/svg11.dtd">
<svg xmlns:xlink="http://www.w3.org/1999/xlink" width="460.8pt" height="345.6pt" viewBox="0 0 460.8 345.6" xmlns="http://www.w3.org/2000/svg" version="1.1">
 <metadata>
  <rdf:RDF xmlns:dc="http://purl.org/dc/elements/1.1/" xmlns:cc="http://creativecommons.org/ns#" xmlns:rdf="http://www.w3.org/1999/02/22-rdf-syntax-ns#">
   <cc:Work>
    <dc:type rdf:resource="http://purl.org/dc/dcmitype/StillImage"/>
    <dc:date>2025-11-24T22:57:18.269616</dc:date>
    <dc:format>image/svg+xml</dc:format>
    <dc:creator>
     <cc:Agent>
      <dc:title>Matplotlib v3.10.6, https://matplotlib.org/</dc:title>
     </cc:Agent>
    </dc:creator>
   </cc:Work>
  </rdf:RDF>
 </metadata>
 <defs>
  <style type="text/css">*{stroke-linejoin: round; stroke-linecap: butt}</style>
 </defs>
 <g id="figure_1">
  <g id="patch_1">
   <path d="M 0 345.6 
L 460.8 345.6 
L 460.8 0 
L 0 0 
z
" style="fill: #ffffff"/>
  </g>
  <g id="axes_1">
   <g id="patch_2">
    <path d="M 57.6 307.584 
L 414.72 307.584 
L 414.72 41.472 
L 57.6 41.472 
z
" style="fill: #ffffff"/>
   </g>
   <g id="matplotlib.axis_1">
    <g id="xtick_1">
     <g id="line2d_1">
      <defs>
       <path id="m29213eed75" d="M 0 0 
L 0 3.5 
" style="stroke: #000000; stroke-width: 0.8"/>
      </defs>
      <g>
       <use xlink:href="#m29213eed75" x="73.832727" y="307.584" style="stroke: #000000; stroke-width: 0.8"/>
      </g>
     </g>
     <g id="text_1">
      <!-- 0 -->
      <g transform="translate(70.651477 322.182437) scale(0.1 -0.1)">
       <defs>
        <path id="DejaVuSans-30" d="M 2034 4250 
Q 1547 4250 1301 3770 
Q 1056 3291 1056 2328 
Q 1056 1369 1301 889 
Q 1547 409 2034 409 
Q 2525 409 2770 889 
Q 3016 1369 3016 2328 
Q 3016 3291 2770 3770 
Q 2525 4250 2034 4250 
z
M 2034 4750 
Q 2819 4750 3233 4129 
Q 3647 3509 3647 2328 
Q 3647 1150 3233 529 
Q 2819 -91 2034 -91 
Q 1250 -91 836 529 
Q 422 1150 422 2328 
Q 422 3509 836 4129 
Q 1250 4750 2034 4750 
z
" transform="scale(0.015625)"/>
       </defs>
       <use xlink:href="#DejaVuSans-30"/>
      </g>
     </g>
    </g>
    <g id="xtick_2">
     <g id="line2d_2">
      <g>
       <use xlink:href="#m29213eed75" x="138.828632" y="307.584" style="stroke: #000000; stroke-width: 0.8"/>
      </g>
     </g>
     <g id="text_2">
      <!-- 200 -->
      <g transform="translate(129.284882 322.182437) scale(0.1 -0.1)">
       <defs>
        <path id="DejaVuSans-32" d="M 1228 531 
L 3431 531 
L 3431 0 
L 469 0 
L 469 531 
Q 828 903 1448 1529 
Q 2069 2156 2228 2338 
Q 2531 2678 2651 2914 
Q 2772 3150 2772 3378 
Q 2772 3750 2511 3984 
Q 2250 4219 1831 4219 
Q 1534 4219 1204 4116 
Q 875 4013 500 3803 
L 500 4441 
Q 881 4594 1212 4672 
Q 1544 4750 1819 4750 
Q 2544 4750 2975 4387 
Q 3406 4025 3406 3419 
Q 3406 3131 3298 2873 
Q 3191 2616 2906 2266 
Q 2828 2175 2409 1742 
Q 1991 1309 1228 531 
z
" transform="scale(0.015625)"/>
       </defs>
       <use xlink:href="#DejaVuSans-32"/>
       <use xlink:href="#DejaVuSans-30" transform="translate(63.623047 0)"/>
       <use xlink:href="#DejaVuSans-30" transform="translate(127.246094 0)"/>
      </g>
     </g>
    </g>
    <g id="xtick_3">
     <g id="line2d_3">
      <g>
       <use xlink:href="#m29213eed75" x="203.824537" y="307.584" style="stroke: #000000; stroke-width: 0.8"/>
      </g>
     </g>
     <g id="text_3">
      <!-- 400 -->
      <g transform="translate(194.280787 322.182437) scale(0.1 -0.1)">
       <defs>
        <path id="DejaVuSans-34" d="M 2419 4116 
L 825 1625 
L 2419 1625 
L 2419 4116 
z
M 2253 4666 
L 3047 4666 
L 3047 1625 
L 3713 1625 
L 3713 1100 
L 3047 1100 
L 3047 0 
L 2419 0 
L 2419 1100 
L 313 1100 
L 313 1709 
L 2253 4666 
z
" transform="scale(0.015625)"/>
       </defs>
       <use xlink:href="#DejaVuSans-34"/>
       <use xlink:href="#DejaVuSans-30" transform="translate(63.623047 0)"/>
       <use xlink:href="#DejaVuSans-30" transform="translate(127.246094 0)"/>
      </g>
     </g>
    </g>
    <g id="xtick_4">
     <g id="line2d_4">
      <g>
       <use xlink:href="#m29213eed75" x="268.820442" y="307.584" style="stroke: #000000; stroke-width: 0.8"/>
      </g>
     </g>
     <g id="text_4">
      <!-- 600 -->
      <g transform="translate(259.276692 322.182437) scale(0.1 -0.1)">
       <defs>
        <path id="DejaVuSans-36" d="M 2113 2584 
Q 1688 2584 1439 2293 
Q 1191 2003 1191 1497 
Q 1191 994 1439 701 
Q 1688 409 2113 409 
Q 2538 409 2786 701 
Q 3034 994 3034 1497 
Q 3034 2003 2786 2293 
Q 2538 2584 2113 2584 
z
M 3366 4563 
L 3366 3988 
Q 3128 4100 2886 4159 
Q 2644 4219 2406 4219 
Q 1781 4219 1451 3797 
Q 1122 3375 1075 2522 
Q 1259 2794 1537 2939 
Q 1816 3084 2150 3084 
Q 2853 3084 3261 2657 
Q 3669 2231 3669 1497 
Q 3669 778 3244 343 
Q 2819 -91 2113 -91 
Q 1303 -91 875 529 
Q 447 1150 447 2328 
Q 447 3434 972 4092 
Q 1497 4750 2381 4750 
Q 2619 4750 2861 4703 
Q 3103 4656 3366 4563 
z
" transform="scale(0.015625)"/>
       </defs>
       <use xlink:href="#DejaVuSans-36"/>
       <use xlink:href="#DejaVuSans-30" transform="translate(63.623047 0)"/>
       <use xlink:href="#DejaVuSans-30" transform="translate(127.246094 0)"/>
      </g>
     </g>
    </g>
    <g id="xtick_5">
     <g id="line2d_5">
      <g>
       <use xlink:href="#m29213eed75" x="333.816347" y="307.584" style="stroke: #000000; stroke-width: 0.8"/>
      </g>
     </g>
     <g id="text_5">
      <!-- 800 -->
      <g transform="translate(324.272597 322.182437) scale(0.1 -0.1)">
       <defs>
        <path id="DejaVuSans-38" d="M 2034 2216 
Q 1584 2216 1326 1975 
Q 1069 1734 1069 1313 
Q 1069 891 1326 650 
Q 1584 409 2034 409 
Q 2484 409 2743 651 
Q 3003 894 3003 1313 
Q 3003 1734 2745 1975 
Q 2488 2216 2034 2216 
z
M 1403 2484 
Q 997 2584 770 2862 
Q 544 3141 544 3541 
Q 544 4100 942 4425 
Q 1341 4750 2034 4750 
Q 2731 4750 3128 4425 
Q 3525 4100 3525 3541 
Q 3525 3141 3298 2862 
Q 3072 2584 2669 2484 
Q 3125 2378 3379 2068 
Q 3634 1759 3634 1313 
Q 3634 634 3220 271 
Q 2806 -91 2034 -91 
Q 1263 -91 848 271 
Q 434 634 434 1313 
Q 434 1759 690 2068 
Q 947 2378 1403 2484 
z
M 1172 3481 
Q 1172 3119 1398 2916 
Q 1625 2713 2034 2713 
Q 2441 2713 2670 2916 
Q 2900 3119 2900 3481 
Q 2900 3844 2670 4047 
Q 2441 4250 2034 4250 
Q 1625 4250 1398 4047 
Q 1172 3844 1172 3481 
z
" transform="scale(0.015625)"/>
       </defs>
       <use xlink:href="#DejaVuSans-38"/>
       <use xlink:href="#DejaVuSans-30" transform="translate(63.623047 0)"/>
       <use xlink:href="#DejaVuSans-30" transform="translate(127.246094 0)"/>
      </g>
     </g>
    </g>
    <g id="xtick_6">
     <g id="line2d_6">
      <g>
       <use xlink:href="#m29213eed75" x="398.812252" y="307.584" style="stroke: #000000; stroke-width: 0.8"/>
      </g>
     </g>
     <g id="text_6">
      <!-- 1000 -->
      <g transform="translate(386.087252 322.182437) scale(0.1 -0.1)">
       <defs>
        <path id="DejaVuSans-31" d="M 794 531 
L 1825 531 
L 1825 4091 
L 703 3866 
L 703 4441 
L 1819 4666 
L 2450 4666 
L 2450 531 
L 3481 531 
L 3481 0 
L 794 0 
L 794 531 
z
" transform="scale(0.015625)"/>
       </defs>
       <use xlink:href="#DejaVuSans-31"/>
       <use xlink:href="#DejaVuSans-30" transform="translate(63.623047 0)"/>
       <use xlink:href="#DejaVuSans-30" transform="translate(127.246094 0)"/>
       <use xlink:href="#DejaVuSans-30" transform="translate(190.869141 0)"/>
      </g>
     </g>
    </g>
    <g id="text_7">
     <!-- Schritt k -->
     <g transform="translate(215.218594 335.860562) scale(0.1 -0.1)">
      <defs>
       <path id="DejaVuSans-53" d="M 3425 4513 
L 3425 3897 
Q 3066 4069 2747 4153 
Q 2428 4238 2131 4238 
Q 1616 4238 1336 4038 
Q 1056 3838 1056 3469 
Q 1056 3159 1242 3001 
Q 1428 2844 1947 2747 
L 2328 2669 
Q 3034 2534 3370 2195 
Q 3706 1856 3706 1288 
Q 3706 609 3251 259 
Q 2797 -91 1919 -91 
Q 1588 -91 1214 -16 
Q 841 59 441 206 
L 441 856 
Q 825 641 1194 531 
Q 1563 422 1919 422 
Q 2459 422 2753 634 
Q 3047 847 3047 1241 
Q 3047 1584 2836 1778 
Q 2625 1972 2144 2069 
L 1759 2144 
Q 1053 2284 737 2584 
Q 422 2884 422 3419 
Q 422 4038 858 4394 
Q 1294 4750 2059 4750 
Q 2388 4750 2728 4690 
Q 3069 4631 3425 4513 
z
" transform="scale(0.015625)"/>
       <path id="DejaVuSans-63" d="M 3122 3366 
L 3122 2828 
Q 2878 2963 2633 3030 
Q 2388 3097 2138 3097 
Q 1578 3097 1268 2742 
Q 959 2388 959 1747 
Q 959 1106 1268 751 
Q 1578 397 2138 397 
Q 2388 397 2633 464 
Q 2878 531 3122 666 
L 3122 134 
Q 2881 22 2623 -34 
Q 2366 -91 2075 -91 
Q 1284 -91 818 406 
Q 353 903 353 1747 
Q 353 2603 823 3093 
Q 1294 3584 2113 3584 
Q 2378 3584 2631 3529 
Q 2884 3475 3122 3366 
z
" transform="scale(0.015625)"/>
       <path id="DejaVuSans-68" d="M 3513 2113 
L 3513 0 
L 2938 0 
L 2938 2094 
Q 2938 2591 2744 2837 
Q 2550 3084 2163 3084 
Q 1697 3084 1428 2787 
Q 1159 2491 1159 1978 
L 1159 0 
L 581 0 
L 581 4863 
L 1159 4863 
L 1159 2956 
Q 1366 3272 1645 3428 
Q 1925 3584 2291 3584 
Q 2894 3584 3203 3211 
Q 3513 2838 3513 2113 
z
" transform="scale(0.015625)"/>
       <path id="DejaVuSans-72" d="M 2631 2963 
Q 2534 3019 2420 3045 
Q 2306 3072 2169 3072 
Q 1681 3072 1420 2755 
Q 1159 2438 1159 1844 
L 1159 0 
L 581 0 
L 581 3500 
L 1159 3500 
L 1159 2956 
Q 1341 3275 1631 3429 
Q 1922 3584 2338 3584 
Q 2397 3584 2469 3576 
Q 2541 3569 2628 3553 
L 2631 2963 
z
" transform="scale(0.015625)"/>
       <path id="DejaVuSans-69" d="M 603 3500 
L 1178 3500 
L 1178 0 
L 603 0 
L 603 3500 
z
M 603 4863 
L 1178 4863 
L 1178 4134 
L 603 4134 
L 603 4863 
z
" transform="scale(0.015625)"/>
       <path id="DejaVuSans-74" d="M 1172 4494 
L 1172 3500 
L 2356 3500 
L 2356 3053 
L 1172 3053 
L 1172 1153 
Q 1172 725 1289 603 
Q 1406 481 1766 481 
L 2356 481 
L 2356 0 
L 1766 0 
Q 1100 0 847 248 
Q 594 497 594 1153 
L 594 3053 
L 172 3053 
L 172 3500 
L 594 3500 
L 594 4494 
L 1172 4494 
z
" transform="scale(0.015625)"/>
       <path id="DejaVuSans-20" transform="scale(0.015625)"/>
       <path id="DejaVuSans-6b" d="M 581 4863 
L 1159 4863 
L 1159 1991 
L 2875 3500 
L 3609 3500 
L 1753 1863 
L 3688 0 
L 2938 0 
L 1159 1709 
L 1159 0 
L 581 0 
L 581 4863 
z
" transform="scale(0.015625)"/>
      </defs>
      <use xlink:href="#DejaVuSans-53"/>
      <use xlink:href="#DejaVuSans-63" transform="translate(63.476562 0)"/>
      <use xlink:href="#DejaVuSans-68" transform="translate(118.457031 0)"/>
      <use xlink:href="#DejaVuSans-72" transform="translate(181.835938 0)"/>
      <use xlink:href="#DejaVuSans-69" transform="translate(222.949219 0)"/>
      <use xlink:href="#DejaVuSans-74" transform="translate(250.732422 0)"/>
      <use xlink:href="#DejaVuSans-74" transform="translate(289.941406 0)"/>
      <use xlink:href="#DejaVuSans-20" transform="translate(329.150391 0)"/>
      <use xlink:href="#DejaVuSans-6b" transform="translate(360.9375 0)"/>
     </g>
    </g>
   </g>
   <g id="matplotlib.axis_2">
    <g id="ytick_1">
     <g id="line2d_7">
      <defs>
       <path id="mcbf2959075" d="M 0 0 
L -3.5 0 
" style="stroke: #000000; stroke-width: 0.8"/>
      </defs>
      <g>
       <use xlink:href="#mcbf2959075" x="57.6" y="265.734844" style="stroke: #000000; stroke-width: 0.8"/>
      </g>
     </g>
     <g id="text_8">
      <!-- −1 -->
      <g transform="translate(35.857813 269.534063) scale(0.1 -0.1)">
       <defs>
        <path id="DejaVuSans-2212" d="M 678 2272 
L 4684 2272 
L 4684 1741 
L 678 1741 
L 678 2272 
z
" transform="scale(0.015625)"/>
       </defs>
       <use xlink:href="#DejaVuSans-2212"/>
       <use xlink:href="#DejaVuSans-31" transform="translate(83.789062 0)"/>
      </g>
     </g>
    </g>
    <g id="ytick_2">
     <g id="line2d_8">
      <g>
       <use xlink:href="#mcbf2959075" x="57.6" y="206.66265" style="stroke: #000000; stroke-width: 0.8"/>
      </g>
     </g>
     <g id="text_9">
      <!-- 0 -->
      <g transform="translate(44.2375 210.461869) scale(0.1 -0.1)">
       <use xlink:href="#DejaVuSans-30"/>
      </g>
     </g>
    </g>
    <g id="ytick_3">
     <g id="line2d_9">
      <g>
       <use xlink:href="#mcbf2959075" x="57.6" y="147.590455" style="stroke: #000000; stroke-width: 0.8"/>
      </g>
     </g>
     <g id="text_10">
      <!-- 1 -->
      <g transform="translate(44.2375 151.389674) scale(0.1 -0.1)">
       <use xlink:href="#DejaVuSans-31"/>
      </g>
     </g>
    </g>
    <g id="ytick_4">
     <g id="line2d_10">
      <g>
       <use xlink:href="#mcbf2959075" x="57.6" y="88.518261" style="stroke: #000000; stroke-width: 0.8"/>
      </g>
     </g>
     <g id="text_11">
      <!-- 2 -->
      <g transform="translate(44.2375 92.317479) scale(0.1 -0.1)">
       <use xlink:href="#DejaVuSans-32"/>
      </g>
     </g>
    </g>
    <g id="text_12">
     <!-- x(k) -->
     <g transform="translate(29.778125 184.28425) rotate(-90) scale(0.1 -0.1)">
      <defs>
       <path id="DejaVuSans-78" d="M 3513 3500 
L 2247 1797 
L 3578 0 
L 2900 0 
L 1881 1375 
L 863 0 
L 184 0 
L 1544 1831 
L 300 3500 
L 978 3500 
L 1906 2253 
L 2834 3500 
L 3513 3500 
z
" transform="scale(0.015625)"/>
       <path id="DejaVuSans-28" d="M 1984 4856 
Q 1566 4138 1362 3434 
Q 1159 2731 1159 2009 
Q 1159 1288 1364 580 
Q 1569 -128 1984 -844 
L 1484 -844 
Q 1016 -109 783 600 
Q 550 1309 550 2009 
Q 550 2706 781 3412 
Q 1013 4119 1484 4856 
L 1984 4856 
z
" transform="scale(0.015625)"/>
       <path id="DejaVuSans-29" d="M 513 4856 
L 1013 4856 
Q 1481 4119 1714 3412 
Q 1947 2706 1947 2009 
Q 1947 1309 1714 600 
Q 1481 -109 1013 -844 
L 513 -844 
Q 928 -128 1133 580 
Q 1338 1288 1338 2009 
Q 1338 2731 1133 3434 
Q 928 4138 513 4856 
z
" transform="scale(0.015625)"/>
      </defs>
      <use xlink:href="#DejaVuSans-78"/>
      <use xlink:href="#DejaVuSans-28" transform="translate(59.179688 0)"/>
      <use xlink:href="#DejaVuSans-6b" transform="translate(98.193359 0)"/>
      <use xlink:href="#DejaVuSans-29" transform="translate(156.103516 0)"/>
     </g>
    </g>
   </g>
   <g id="line2d_11">
    <path d="M 73.832727 196.259916 
L 74.157707 192.619987 
L 74.482686 191.697872 
L 74.807666 193.191337 
L 75.132645 194.073435 
L 75.457625 196.630032 
L 75.782604 194.499797 
L 76.107584 196.712486 
L 76.757543 190.58108 
L 77.082523 195.322656 
L 77.732482 199.659654 
L 78.057461 197.143685 
L 78.382441 198.475878 
L 78.70742 193.630665 
L 79.0324 195.438115 
L 79.357379 192.876998 
L 79.682359 193.04585 
L 80.332318 188.366808 
L 80.657297 186.542643 
L 80.982277 190.001797 
L 81.632236 176.361691 
L 81.957215 167.912698 
L 82.282195 165.648248 
L 82.607174 164.783409 
L 82.932154 160.340738 
L 83.257133 161.054624 
L 83.582113 156.6631 
L 84.232072 131.661985 
L 84.557052 126.578287 
L 84.882031 129.82758 
L 85.207011 129.648326 
L 85.53199 115.631442 
L 85.85697 114.478517 
L 86.181949 114.26099 
L 86.506929 115.298818 
L 86.831908 114.432335 
L 87.156888 119.650988 
L 87.481867 120.254127 
L 87.806847 105.765328 
L 88.456806 116.171972 
L 88.781785 125.174315 
L 89.106765 128.124822 
L 89.431744 126.292823 
L 89.756724 130.440136 
L 90.081704 122.429051 
L 90.406683 111.404023 
L 90.731663 113.778558 
L 91.056642 110.913535 
L 91.381622 111.864379 
L 91.706601 110.627699 
L 92.031581 108.263327 
L 92.35656 111.72982 
L 92.68154 109.924322 
L 93.006519 103.578365 
L 93.331499 94.19434 
L 93.656478 102.415174 
L 94.306437 110.926814 
L 94.631417 109.025323 
L 95.281376 97.036615 
L 95.606355 104.691322 
L 95.931335 103.598045 
L 96.256314 98.960482 
L 96.581294 96.44784 
L 96.906274 89.311768 
L 97.231253 93.230131 
L 97.556233 94.99563 
L 97.881212 99.743663 
L 98.206192 98.811107 
L 98.531171 101.267773 
L 98.856151 96.93803 
L 99.18113 108.627963 
L 99.50611 111.359323 
L 100.156069 119.669331 
L 100.481048 112.775098 
L 101.131007 122.168424 
L 101.455987 120.463853 
L 101.780966 125.469775 
L 102.105946 128.525556 
L 102.430925 127.962266 
L 102.755905 120.714762 
L 103.080885 120.268951 
L 103.405864 129.142576 
L 103.730844 129.918489 
L 104.055823 120.903328 
L 105.030762 112.876046 
L 105.355741 119.848639 
L 105.680721 133.45678 
L 106.0057 132.218821 
L 106.33068 123.232833 
L 106.655659 120.257672 
L 106.980639 121.630704 
L 107.305618 125.005078 
L 107.955577 108.227642 
L 108.280557 104.647421 
L 108.605536 108.95099 
L 108.930516 109.077975 
L 109.255495 107.332114 
L 109.580475 97.887666 
L 109.905455 99.552153 
L 110.230434 103.035278 
L 110.555414 104.001105 
L 110.880393 105.936254 
L 111.205373 98.95641 
L 111.530352 101.433119 
L 111.855332 103.035118 
L 112.180311 107.989086 
L 112.83027 97.549603 
L 113.15525 98.067225 
L 113.480229 96.039234 
L 113.805209 95.512872 
L 114.455168 92.655499 
L 114.780147 102.1057 
L 115.105127 102.080641 
L 115.430106 99.141744 
L 115.755086 93.163418 
L 116.080066 84.165742 
L 116.405045 84.668017 
L 117.055004 80.0425 
L 117.379984 81.803527 
L 117.704963 90.108814 
L 118.029943 88.456126 
L 118.354922 93.530765 
L 118.679902 95.272152 
L 119.004881 93.751612 
L 119.329861 89.118019 
L 119.65484 94.612445 
L 119.97982 94.631716 
L 120.304799 96.538434 
L 120.629779 99.986418 
L 120.954758 104.993859 
L 121.279738 108.177477 
L 121.604717 104.605329 
L 121.929697 103.372144 
L 122.254676 100.434697 
L 122.579656 107.62585 
L 123.229615 91.798509 
L 123.554595 106.313809 
L 123.879574 114.193537 
L 124.204554 114.987675 
L 124.529533 110.246319 
L 125.504472 129.82124 
L 125.829451 130.831826 
L 126.154431 138.233881 
L 126.47941 133.771405 
L 126.80439 145.290386 
L 127.129369 146.520246 
L 127.454349 146.297058 
L 127.779328 138.819879 
L 128.104308 134.518292 
L 128.429287 135.037794 
L 128.754267 137.280696 
L 129.079247 147.64609 
L 129.729206 157.672008 
L 130.054185 148.095256 
L 130.379165 154.831907 
L 130.704144 155.559534 
L 131.029124 152.693302 
L 131.354103 154.176815 
L 131.679083 145.234507 
L 132.004062 144.680868 
L 132.329042 156.682024 
L 132.654021 157.943556 
L 132.979001 151.83605 
L 133.30398 139.49443 
L 133.62896 143.786253 
L 133.953939 151.023907 
L 134.603898 173.141075 
L 134.928878 173.546133 
L 135.253857 171.354771 
L 135.903817 159.383167 
L 136.228796 165.32799 
L 136.553776 166.915406 
L 136.878755 164.117662 
L 137.203735 167.93182 
L 137.528714 176.062787 
L 137.853694 172.19003 
L 138.178673 161.509594 
L 138.503653 156.553943 
L 139.153612 165.989288 
L 139.478591 164.923072 
L 139.803571 155.53324 
L 140.12855 151.542571 
L 140.45353 152.6606 
L 140.778509 165.660982 
L 141.103489 166.407321 
L 141.428468 164.182486 
L 141.753448 175.384345 
L 142.078428 175.959918 
L 142.403407 174.852602 
L 142.728387 178.684696 
L 143.053366 180.787906 
L 143.378346 177.786623 
L 143.703325 177.257639 
L 144.028305 178.450263 
L 144.678264 189.269422 
L 145.003243 186.298175 
L 145.328223 186.180209 
L 145.653202 189.017493 
L 145.978182 190.777602 
L 146.303161 186.215755 
L 146.628141 184.623933 
L 146.95312 181.541258 
L 147.603079 173.344545 
L 147.928059 178.969784 
L 148.253038 173.264479 
L 148.578018 172.78239 
L 148.902998 176.485336 
L 149.227977 184.686941 
L 149.552957 185.069102 
L 149.877936 183.709843 
L 150.527895 171.529437 
L 150.852875 181.309559 
L 151.502834 159.407014 
L 152.477772 198.157404 
L 152.802752 207.794664 
L 153.127731 211.040955 
L 153.452711 204.777362 
L 153.77769 202.809444 
L 154.10267 197.245649 
L 154.427649 204.202114 
L 155.077609 211.288126 
L 155.402588 203.91055 
L 155.727568 199.734599 
L 156.052547 200.530217 
L 156.702506 189.784659 
L 157.352465 175.741135 
L 157.677445 185.01091 
L 158.327404 190.687277 
L 158.652383 175.588052 
L 158.977363 175.301069 
L 159.302342 174.344736 
L 159.627322 175.817498 
L 159.952301 167.966027 
L 160.277281 164.835933 
L 160.60226 169.237897 
L 160.92724 167.831811 
L 161.252219 164.171159 
L 161.577199 165.046826 
L 161.902179 173.783249 
L 162.227158 170.978013 
L 162.552138 176.865484 
L 163.527076 152.814883 
L 163.852056 139.030387 
L 164.177035 130.819333 
L 164.502015 134.670309 
L 164.826994 134.093406 
L 165.151974 129.457103 
L 165.476953 122.053889 
L 165.801933 127.357561 
L 166.126912 135.03863 
L 166.451892 137.347293 
L 166.776871 131.731255 
L 167.101851 123.49502 
L 167.75181 139.713961 
L 168.07679 136.134106 
L 168.401769 128.459732 
L 168.726749 130.885784 
L 169.376708 139.746863 
L 169.701687 135.261722 
L 170.026667 140.384209 
L 170.351646 136.700522 
L 170.676626 129.524619 
L 171.001605 127.341357 
L 171.326585 123.456095 
L 171.651564 124.830912 
L 172.301523 105.844045 
L 172.626503 113.516589 
L 172.951482 117.723651 
L 173.276462 118.942944 
L 174.2514 141.430966 
L 174.57638 146.235219 
L 174.90136 146.634443 
L 175.226339 151.565252 
L 175.551319 149.815535 
L 175.876298 151.97698 
L 176.201278 162.318604 
L 176.526257 167.386374 
L 176.851237 163.632629 
L 177.176216 164.958699 
L 177.501196 164.978815 
L 177.826175 171.165306 
L 178.151155 172.480661 
L 178.476134 174.506592 
L 178.801114 181.886733 
L 179.126093 182.691865 
L 179.451073 184.542032 
L 179.776052 192.182371 
L 180.426011 184.033539 
L 181.075971 179.188224 
L 181.72593 164.818559 
L 182.050909 176.860919 
L 182.375889 167.055838 
L 182.700868 166.092128 
L 183.350827 158.629112 
L 183.675807 157.539309 
L 184.325766 145.049973 
L 184.650745 144.130014 
L 184.975725 147.307154 
L 185.950663 123.840354 
L 186.275643 112.871508 
L 186.600622 115.6891 
L 186.925602 113.358833 
L 187.250581 109.357067 
L 187.575561 115.250411 
L 187.900541 116.25853 
L 188.5505 122.806322 
L 189.200459 113.610995 
L 189.850418 111.356181 
L 190.175397 113.677647 
L 190.500377 111.194739 
L 191.150336 122.531573 
L 191.475315 125.835841 
L 191.800295 127.580728 
L 192.125274 124.109724 
L 192.450254 134.377569 
L 192.775233 134.231452 
L 193.425192 129.500517 
L 193.750172 132.313825 
L 194.400131 102.608865 
L 194.725111 104.630396 
L 195.05009 104.570537 
L 195.37507 103.577541 
L 195.700049 104.451859 
L 196.025029 111.924661 
L 196.350008 122.790232 
L 196.674988 122.313911 
L 196.999967 126.177905 
L 197.649926 109.489265 
L 197.974906 106.977754 
L 198.299885 103.392361 
L 198.624865 103.74322 
L 198.949844 97.221896 
L 199.274824 102.118478 
L 199.599803 96.680125 
L 199.924783 95.386001 
L 200.574742 110.456161 
L 200.899722 113.536639 
L 201.224701 118.4105 
L 201.549681 117.967978 
L 201.87466 118.217245 
L 202.19964 113.966145 
L 202.524619 114.545174 
L 202.849599 112.526283 
L 203.499558 114.000588 
L 203.824537 119.190137 
L 204.474496 133.74179 
L 204.799476 137.346653 
L 205.124455 127.983349 
L 205.449435 128.041178 
L 205.774414 131.559541 
L 206.424373 144.497188 
L 206.749353 139.409914 
L 207.074333 136.238606 
L 207.399312 145.681389 
L 207.724292 148.387665 
L 208.049271 138.285513 
L 208.374251 138.883839 
L 208.69923 136.135711 
L 209.02421 136.925535 
L 209.349189 135.212467 
L 209.674169 122.236841 
L 209.999148 116.436468 
L 210.324128 129.395733 
L 210.649107 135.786506 
L 210.974087 135.234861 
L 211.299066 138.922766 
L 211.624046 140.100954 
L 212.274005 120.665555 
L 212.598984 120.921429 
L 212.923964 125.725705 
L 213.248943 122.377574 
L 213.573923 114.476407 
L 214.548862 127.35642 
L 214.873841 128.51796 
L 215.198821 128.971564 
L 215.5238 113.521785 
L 215.84878 109.11565 
L 216.173759 107.241281 
L 216.498739 112.178992 
L 216.823718 107.718792 
L 217.148698 97.853042 
L 217.473677 97.419379 
L 217.798657 93.394463 
L 218.123636 93.74336 
L 218.448616 95.30259 
L 218.773595 103.049967 
L 219.098575 103.188705 
L 219.423554 113.811044 
L 219.748534 112.030211 
L 220.073514 115.846301 
L 220.398493 116.498771 
L 220.723473 115.081318 
L 221.373432 117.004116 
L 221.698411 114.231873 
L 222.023391 121.455514 
L 222.34837 113.503562 
L 222.67335 116.792716 
L 222.998329 117.383308 
L 223.323309 113.711741 
L 223.648288 112.752322 
L 223.973268 105.769861 
L 224.298247 105.638605 
L 224.948206 101.182145 
L 225.273186 92.943559 
L 225.598165 88.502365 
L 225.923145 86.757738 
L 226.248124 76.30285 
L 226.573104 74.028021 
L 226.898084 76.736729 
L 227.223063 64.079082 
L 227.548043 63.297458 
L 227.873022 61.770218 
L 228.198002 63.49211 
L 228.522981 61.289648 
L 228.847961 53.759152 
L 229.17294 53.568 
L 230.147879 75.715119 
L 230.472858 75.582575 
L 230.797838 80.042878 
L 231.122817 94.179447 
L 231.447797 100.044969 
L 231.772776 98.695155 
L 232.097756 106.614133 
L 232.422735 105.839881 
L 232.747715 110.891555 
L 233.072695 113.250688 
L 233.397674 110.857596 
L 233.722654 111.217446 
L 234.372613 97.875979 
L 235.022572 107.417948 
L 235.347551 108.854364 
L 235.672531 105.874494 
L 235.99751 105.516243 
L 236.32249 103.398743 
L 236.647469 96.82635 
L 237.947387 108.434494 
L 238.272367 108.769483 
L 238.597346 104.731765 
L 238.922326 105.588319 
L 239.247305 108.675426 
L 239.572285 103.219014 
L 239.897265 104.585043 
L 240.222244 98.157438 
L 240.547224 94.064446 
L 240.872203 92.342191 
L 241.197183 91.985172 
L 241.522162 89.711501 
L 241.847142 86.125015 
L 242.497101 97.279772 
L 242.82208 96.934388 
L 243.14706 91.354272 
L 243.472039 80.890006 
L 243.797019 74.994831 
L 244.121998 74.829782 
L 244.446978 74.177203 
L 244.771957 71.053827 
L 245.096937 75.979837 
L 245.421916 74.800158 
L 245.746896 77.340922 
L 246.071876 78.217359 
L 246.396855 80.373224 
L 247.371794 94.285815 
L 247.696773 88.843387 
L 248.021753 91.53851 
L 248.346732 93.017902 
L 248.671712 91.134316 
L 248.996691 94.516713 
L 249.321671 95.019969 
L 249.64665 96.308616 
L 250.296609 105.54945 
L 250.946568 97.988058 
L 251.271548 100.326054 
L 251.596527 105.066773 
L 251.921507 105.414253 
L 252.246486 114.07193 
L 252.571466 107.412117 
L 252.896446 114.789314 
L 253.221425 119.15874 
L 253.546405 126.703836 
L 253.871384 121.956074 
L 254.196364 113.496807 
L 254.521343 110.736731 
L 254.846323 113.235755 
L 255.171302 111.664609 
L 255.496282 111.986854 
L 256.146241 103.863808 
L 256.47122 102.15525 
L 256.7962 96.89343 
L 257.121179 86.635877 
L 257.446159 81.727649 
L 257.771138 93.090091 
L 258.096118 96.956304 
L 258.421097 91.21015 
L 258.746077 91.976315 
L 259.071057 94.497786 
L 259.396036 88.936485 
L 259.721016 93.358119 
L 260.045995 89.513002 
L 260.370975 87.941827 
L 260.695954 83.620903 
L 261.020934 87.716386 
L 261.345913 80.629595 
L 261.670893 96.614058 
L 261.995872 96.076659 
L 262.320852 92.020435 
L 262.645831 86.412318 
L 262.970811 86.464647 
L 263.29579 82.870749 
L 263.62077 72.955065 
L 263.945749 77.791595 
L 264.270729 77.582954 
L 264.595708 69.228814 
L 264.920688 68.043405 
L 265.570647 81.413539 
L 265.895627 73.197697 
L 266.220606 68.729724 
L 266.545586 78.661912 
L 266.870565 84.089711 
L 267.195545 87.392583 
L 267.520524 89.453612 
L 268.170483 104.120341 
L 268.495463 105.938276 
L 268.820442 111.161597 
L 269.145422 110.311525 
L 269.470401 112.700891 
L 269.795381 113.474084 
L 270.12036 120.068571 
L 270.44534 121.745796 
L 270.770319 124.177799 
L 271.095299 127.942201 
L 271.420278 118.680744 
L 271.745258 117.097829 
L 272.395217 111.716796 
L 272.720197 106.900123 
L 273.045176 109.001609 
L 273.370156 113.438697 
L 274.020115 118.746032 
L 274.345094 123.57441 
L 274.670074 121.096162 
L 274.995053 116.702197 
L 275.320033 120.259539 
L 275.645012 116.430991 
L 275.969992 131.45603 
L 276.294971 130.823441 
L 276.619951 128.075327 
L 276.94493 127.708468 
L 277.26991 134.585738 
L 277.594889 145.445241 
L 277.919869 143.588322 
L 278.244848 152.588112 
L 278.894808 160.413242 
L 279.219787 167.941683 
L 279.544767 166.292442 
L 279.869746 170.063211 
L 280.194726 166.351971 
L 280.519705 156.496619 
L 280.844685 150.055978 
L 281.169664 150.419186 
L 281.494644 153.06052 
L 281.819623 168.281812 
L 282.144603 166.158614 
L 282.469582 158.146193 
L 282.794562 156.252917 
L 283.119541 163.899719 
L 283.444521 161.727015 
L 283.7695 156.527607 
L 284.419459 169.952689 
L 284.744439 168.729069 
L 285.069419 174.182357 
L 285.394398 176.035902 
L 285.719378 173.744756 
L 286.044357 170.159241 
L 286.369337 179.279849 
L 286.694316 172.694461 
L 287.019296 178.934993 
L 287.344275 172.469419 
L 287.669255 171.330634 
L 287.994234 175.364169 
L 288.644193 163.267835 
L 288.969173 160.498549 
L 289.294152 159.726348 
L 289.619132 160.454075 
L 290.269091 167.415974 
L 290.59407 166.278073 
L 290.91905 162.078351 
L 291.244029 164.043164 
L 291.569009 164.656646 
L 291.893989 158.055028 
L 292.218968 168.535167 
L 292.543948 166.358865 
L 292.868927 159.136131 
L 293.193907 146.161993 
L 293.518886 153.662804 
L 293.843866 153.298933 
L 294.168845 147.559395 
L 294.493825 153.954616 
L 294.818804 148.849774 
L 295.143784 154.678599 
L 295.468763 142.782985 
L 296.118722 161.564079 
L 296.443702 160.584823 
L 296.768681 154.304951 
L 297.093661 144.521304 
L 297.41864 145.646871 
L 297.74362 152.839806 
L 298.0686 153.619538 
L 298.393579 159.809302 
L 298.718559 171.787335 
L 299.043538 170.852254 
L 299.368518 172.666278 
L 300.018477 195.293627 
L 300.343456 199.497806 
L 300.668436 197.104056 
L 300.993415 186.776213 
L 301.318395 186.362031 
L 301.643374 182.59988 
L 302.293333 195.126313 
L 302.943292 205.853003 
L 303.268272 206.466224 
L 303.593251 201.530782 
L 303.918231 204.031454 
L 304.24321 213.570701 
L 304.89317 211.669752 
L 305.218149 212.385164 
L 305.543129 214.473388 
L 305.868108 220.08734 
L 306.193088 217.726496 
L 306.843047 216.202353 
L 307.168026 208.997448 
L 307.493006 206.766842 
L 307.817985 212.017188 
L 308.142965 210.472778 
L 308.467944 214.327183 
L 308.792924 214.724635 
L 309.117903 202.018577 
L 309.442883 199.725878 
L 309.767862 200.688321 
L 310.092842 192.457697 
L 310.417821 187.165963 
L 310.742801 179.157904 
L 311.067781 186.066957 
L 311.71774 175.518436 
L 312.042719 177.348888 
L 312.367699 177.046096 
L 312.692678 179.684557 
L 313.017658 176.502612 
L 313.342637 180.261696 
L 313.667617 175.170062 
L 313.992596 174.990441 
L 314.317576 185.121041 
L 314.642555 182.722312 
L 314.967535 172.288836 
L 315.292514 166.761438 
L 315.617494 163.584802 
L 315.942473 161.992975 
L 316.592432 166.506459 
L 316.917412 167.622146 
L 317.242391 169.447195 
L 317.567371 184.670216 
L 317.892351 181.183854 
L 318.21733 171.757816 
L 318.54231 178.461606 
L 318.867289 189.222613 
L 319.192269 188.323148 
L 319.517248 185.95023 
L 319.842228 178.92089 
L 320.167207 178.623665 
L 320.817166 181.836474 
L 321.142146 190.272004 
L 321.467125 186.548881 
L 322.442064 180.370111 
L 322.767043 184.158241 
L 323.092023 181.130373 
L 323.417002 180.807081 
L 324.391941 203.943468 
L 324.716921 198.104631 
L 325.0419 194.957709 
L 325.691859 206.570346 
L 326.016839 215.7091 
L 326.666798 221.508949 
L 326.991777 230.485352 
L 327.316757 244.623823 
L 327.641736 243.271865 
L 327.966716 240.307589 
L 328.291695 227.292737 
L 328.616675 231.620448 
L 328.941654 233.896955 
L 329.266634 239.745793 
L 329.591613 241.395418 
L 329.916593 232.856896 
L 330.241572 234.489765 
L 330.566552 227.833098 
L 330.891532 223.802204 
L 331.216511 223.103662 
L 331.541491 221.463361 
L 331.86647 224.478309 
L 332.19145 242.285501 
L 332.516429 253.853644 
L 332.841409 243.267218 
L 333.166388 237.750892 
L 333.491368 234.999424 
L 333.816347 231.033459 
L 334.141327 232.38001 
L 334.466306 221.382872 
L 335.116265 237.24994 
L 335.441245 241.956132 
L 335.766224 243.382964 
L 336.416183 229.478947 
L 336.741163 233.645289 
L 337.391122 244.804144 
L 337.716102 233.642821 
L 338.041081 240.793538 
L 338.366061 243.116838 
L 338.69104 247.889199 
L 339.340999 271.374243 
L 339.665979 271.95415 
L 339.990958 264.867327 
L 340.315938 265.73967 
L 340.965897 278.037937 
L 341.290876 280.629221 
L 341.615856 294.211985 
L 342.265815 286.223051 
L 342.590794 286.172921 
L 342.915774 287.112834 
L 343.240753 291.79335 
L 343.565733 294.206818 
L 343.890713 295.488 
L 344.865651 284.242415 
L 345.190631 284.073483 
L 345.84059 287.972745 
L 346.165569 284.545715 
L 346.490549 291.223318 
L 346.815528 290.212192 
L 347.140508 287.814328 
L 347.465487 289.1713 
L 347.790467 283.888195 
L 348.115446 285.898041 
L 348.440426 291.410638 
L 348.765405 284.389847 
L 349.090385 287.843686 
L 349.415364 284.017649 
L 349.740344 275.273231 
L 350.065324 271.116888 
L 350.390303 277.925604 
L 350.715283 287.362118 
L 351.040262 289.983587 
L 351.365242 280.059126 
L 352.015201 271.060237 
L 352.34018 267.986812 
L 352.66516 273.139068 
L 352.990139 266.016613 
L 353.315119 256.455099 
L 353.640098 252.87977 
L 353.965078 254.578938 
L 354.940016 236.924748 
L 355.264996 241.010452 
L 355.589975 238.09543 
L 355.914955 232.032122 
L 356.239934 233.0897 
L 356.564914 240.35824 
L 356.889894 237.641935 
L 357.214873 231.552032 
L 357.539853 235.610673 
L 357.864832 236.052297 
L 358.189812 239.527325 
L 358.839771 254.83941 
L 359.16475 257.05707 
L 359.48973 249.731151 
L 359.814709 249.944427 
L 360.139689 241.360538 
L 360.464668 237.499168 
L 360.789648 235.93687 
L 361.114627 232.382468 
L 361.439607 233.718127 
L 361.764586 228.057152 
L 362.089566 231.895903 
L 362.414545 224.805803 
L 362.739525 220.53342 
L 363.064505 221.373778 
L 363.389484 219.244999 
L 363.714464 218.177486 
L 364.039443 214.673265 
L 364.364423 206.250902 
L 364.689402 201.635185 
L 365.014382 206.523377 
L 365.339361 214.747815 
L 365.98932 218.083622 
L 366.3143 228.392534 
L 366.639279 231.585141 
L 366.964259 227.863992 
L 367.289238 226.664146 
L 367.614218 220.528362 
L 367.939197 222.869625 
L 368.589156 231.018761 
L 368.914136 234.164167 
L 369.239115 228.492985 
L 369.564095 229.442439 
L 369.889075 235.149454 
L 370.214054 235.682089 
L 370.539034 240.395311 
L 371.188993 239.888521 
L 371.513972 222.956119 
L 371.838952 214.513038 
L 372.163931 211.443476 
L 372.488911 214.979317 
L 373.13887 196.0221 
L 373.788829 206.898626 
L 374.113808 211.9245 
L 374.438788 212.53187 
L 375.088747 222.57337 
L 375.413726 220.474109 
L 375.738706 219.830581 
L 376.063686 222.589038 
L 376.388665 213.318399 
L 376.713645 208.387651 
L 377.038624 208.102056 
L 377.688583 221.124604 
L 378.338542 203.527472 
L 378.663522 202.293556 
L 379.313481 208.567895 
L 379.63846 208.148993 
L 379.96344 215.704902 
L 380.288419 214.792574 
L 380.613399 215.302481 
L 380.938378 208.240327 
L 381.263358 212.3893 
L 381.913317 217.154657 
L 382.238296 227.069993 
L 382.563276 227.300888 
L 382.888256 222.950874 
L 383.213235 220.098758 
L 383.538215 218.449252 
L 383.863194 211.248422 
L 384.188174 219.537518 
L 384.513153 219.78764 
L 384.838133 217.344075 
L 385.163112 216.35466 
L 385.488092 214.167861 
L 385.813071 213.687354 
L 386.138051 215.007669 
L 386.46303 215.072052 
L 386.78801 208.75678 
L 387.112989 199.794411 
L 387.437969 197.313699 
L 387.762948 196.375805 
L 388.087928 198.403587 
L 388.412907 198.448226 
L 388.737887 195.753145 
L 389.062867 201.931057 
L 389.387846 197.967693 
L 389.712826 202.970277 
L 390.362785 191.204511 
L 391.012744 202.453634 
L 391.337723 199.987999 
L 391.662703 209.064669 
L 391.987682 201.992797 
L 392.312662 203.741131 
L 392.637641 208.380195 
L 392.962621 205.53553 
L 393.2876 212.359669 
L 393.61258 222.438713 
L 393.937559 228.961534 
L 394.262539 225.154698 
L 394.587518 228.908821 
L 394.912498 230.191874 
L 395.237477 228.847387 
L 395.562457 217.403609 
L 395.887437 200.697428 
L 396.212416 191.957007 
L 396.537396 191.903514 
L 396.862375 193.59014 
L 397.187355 177.636199 
L 397.512334 173.553005 
L 397.837314 175.042094 
L 398.162293 185.814473 
L 398.487273 188.00646 
L 398.487273 188.00646 
" clip-path="url(#p16ea2e6598)" style="fill: none; stroke: #1f77b4; stroke-width: 1.5; stroke-linecap: square"/>
   </g>
   <g id="line2d_12">
    <path d="M 73.832727 85.61332 
L 74.157707 80.586015 
L 74.482686 82.204049 
L 74.807666 81.017661 
L 75.132645 82.799249 
L 75.457625 80.135983 
L 75.782604 78.492871 
L 76.107584 79.402447 
L 76.432563 81.155529 
L 76.757543 80.165149 
L 77.407502 97.823926 
L 77.732482 99.934649 
L 78.057461 104.371358 
L 78.382441 113.171767 
L 78.70742 127.324718 
L 79.0324 128.142104 
L 79.357379 126.320727 
L 80.007338 101.436359 
L 80.332318 101.243864 
L 80.657297 98.515275 
L 80.982277 92.340244 
L 81.307256 89.613207 
L 81.632236 84.92772 
L 81.957215 89.31047 
L 82.282195 91.986166 
L 82.607174 96.162332 
L 82.932154 98.157091 
L 83.257133 95.884344 
L 84.232072 79.454511 
L 84.557052 84.748653 
L 85.207011 111.324958 
L 85.53199 110.749245 
L 85.85697 108.143885 
L 86.181949 104.041605 
L 86.506929 104.115694 
L 86.831908 102.749955 
L 87.156888 102.132636 
L 87.481867 106.81955 
L 87.806847 101.37044 
L 88.131826 101.752815 
L 88.456806 102.744333 
L 88.781785 98.972223 
L 89.756724 122.925027 
L 90.081704 131.042046 
L 90.406683 132.628045 
L 90.731663 142.014937 
L 91.056642 135.659045 
L 91.381622 123.005369 
L 91.706601 116.231838 
L 92.031581 123.862566 
L 92.35656 125.300133 
L 92.68154 117.917692 
L 93.006519 118.3391 
L 93.331499 120.762119 
L 93.656478 122.031038 
L 93.981458 132.457847 
L 94.306437 135.182017 
L 94.956396 121.089803 
L 95.281376 120.75681 
L 95.931335 129.258973 
L 96.256314 139.114425 
L 96.581294 134.703657 
L 96.906274 142.67355 
L 97.231253 143.798192 
L 97.556233 142.854806 
L 97.881212 146.517806 
L 98.206192 140.57131 
L 98.531171 131.930665 
L 98.856151 127.694017 
L 99.18113 120.781358 
L 99.50611 135.782148 
L 99.831089 143.987749 
L 100.156069 136.369402 
L 100.806028 132.811428 
L 101.131007 143.010031 
L 101.455987 148.387653 
L 101.780966 149.27215 
L 102.105946 151.320815 
L 102.430925 154.557554 
L 102.755905 144.280284 
L 103.080885 143.959747 
L 103.730844 131.911771 
L 104.055823 131.882398 
L 104.380803 128.846414 
L 104.705782 140.148627 
L 105.030762 147.355378 
L 105.355741 144.800793 
L 105.680721 140.908583 
L 106.0057 141.283984 
L 106.33068 141.868657 
L 106.655659 139.510107 
L 106.980639 132.011614 
L 107.305618 133.342825 
L 107.630598 131.444138 
L 107.955577 125.227573 
L 108.280557 125.734543 
L 108.930516 138.158121 
L 109.255495 137.56317 
L 109.580475 147.266246 
L 109.905455 145.903544 
L 110.230434 155.074275 
L 110.555414 159.197563 
L 110.880393 157.733671 
L 111.205373 157.644961 
L 111.530352 159.664534 
L 111.855332 166.138463 
L 112.180311 167.063283 
L 112.505291 170.442948 
L 112.83027 164.908713 
L 113.15525 167.659877 
L 113.480229 172.558615 
L 113.805209 173.559614 
L 114.130188 177.581509 
L 114.455168 173.81633 
L 114.780147 172.461555 
L 115.105127 175.781504 
L 115.430106 174.068812 
L 115.755086 168.166018 
L 116.080066 167.595421 
L 116.405045 166.701345 
L 116.730025 156.260773 
L 117.379984 163.337688 
L 117.704963 162.615397 
L 118.029943 160.990505 
L 118.354922 161.3947 
L 118.679902 160.792653 
L 119.329861 153.901336 
L 119.65484 147.480498 
L 119.97982 145.580487 
L 120.304799 148.648769 
L 120.629779 155.997572 
L 120.954758 147.55567 
L 121.279738 142.666748 
L 121.604717 144.512252 
L 122.254676 150.791977 
L 122.579656 158.758465 
L 122.904636 156.660099 
L 123.229615 158.950128 
L 123.554595 157.359231 
L 124.204554 151.617475 
L 124.529533 138.94208 
L 124.854513 135.596607 
L 125.179492 139.5207 
L 125.504472 134.975929 
L 125.829451 132.02218 
L 126.154431 133.01315 
L 126.80439 147.800386 
L 127.129369 146.09574 
L 127.779328 139.030233 
L 128.104308 130.968332 
L 128.429287 132.679734 
L 128.754267 139.91802 
L 129.079247 137.559147 
L 129.404226 126.095458 
L 129.729206 124.955751 
L 130.054185 126.938349 
L 130.379165 120.480263 
L 130.704144 117.11336 
L 131.029124 122.612203 
L 131.354103 130.373987 
L 131.679083 132.008498 
L 132.004062 132.129445 
L 132.329042 132.695232 
L 132.654021 123.566866 
L 132.979001 124.535624 
L 133.30398 127.716343 
L 133.62896 123.618342 
L 133.953939 114.116019 
L 134.278919 114.622258 
L 134.603898 111.958904 
L 135.578837 120.654548 
L 135.903817 120.062309 
L 136.228796 115.510178 
L 136.553776 125.484495 
L 137.528714 137.095261 
L 137.853694 131.885099 
L 138.178673 135.414372 
L 138.503653 135.784372 
L 138.828632 127.804336 
L 139.153612 129.601213 
L 139.478591 126.938152 
L 139.803571 130.85818 
L 140.12855 138.322417 
L 140.45353 140.282214 
L 140.778509 136.734032 
L 141.103489 128.349194 
L 141.428468 129.029777 
L 141.753448 134.06815 
L 142.078428 146.149752 
L 142.403407 149.126173 
L 142.728387 153.189973 
L 143.053366 148.833743 
L 143.378346 147.760791 
L 143.703325 150.083767 
L 144.028305 146.613887 
L 144.678264 154.011353 
L 145.003243 151.630872 
L 145.328223 153.721153 
L 145.653202 150.43462 
L 145.978182 162.824465 
L 146.303161 159.770664 
L 146.628141 169.916843 
L 146.95312 174.992682 
L 147.2781 173.083926 
L 147.603079 170.242424 
L 147.928059 174.939978 
L 148.253038 172.168491 
L 148.578018 165.413063 
L 148.902998 163.242882 
L 149.227977 160.146009 
L 149.552957 160.574898 
L 149.877936 154.717708 
L 150.202916 146.795922 
L 150.527895 147.53817 
L 150.852875 140.573364 
L 151.177854 141.082635 
L 151.502834 148.719858 
L 151.827813 148.156818 
L 152.152793 142.660693 
L 152.477772 141.478112 
L 152.802752 136.208681 
L 153.452711 149.662168 
L 154.10267 133.087219 
L 154.427649 137.806579 
L 154.752629 136.607703 
L 155.077609 142.691987 
L 155.727568 148.641724 
L 156.052547 137.083794 
L 156.377527 136.745188 
L 156.702506 129.94524 
L 157.027486 125.535882 
L 157.352465 126.933898 
L 157.677445 129.975522 
L 158.002424 128.980825 
L 158.327404 125.605897 
L 158.652383 119.769969 
L 159.627322 129.26456 
L 159.952301 119.963397 
L 160.277281 130.57839 
L 160.60226 129.195327 
L 161.252219 134.994372 
L 161.577199 132.162886 
L 161.902179 138.029939 
L 162.552138 159.501638 
L 162.877117 148.367142 
L 163.202097 146.299488 
L 164.177035 158.408737 
L 164.502015 154.940067 
L 164.826994 155.587314 
L 165.151974 148.464492 
L 165.476953 154.910443 
L 165.801933 153.734835 
L 166.126912 148.772965 
L 166.776871 159.374087 
L 167.101851 156.620534 
L 167.75181 166.754108 
L 168.07679 166.691569 
L 168.401769 161.516628 
L 168.726749 165.950336 
L 169.051728 172.771059 
L 169.376708 177.056161 
L 169.701687 170.908318 
L 170.026667 167.016868 
L 170.676626 149.047951 
L 171.001605 143.80589 
L 171.326585 144.224488 
L 171.651564 145.019828 
L 171.976544 146.454215 
L 172.301523 139.57611 
L 172.626503 137.369785 
L 173.276462 146.983118 
L 173.601441 147.099982 
L 173.926421 132.84013 
L 174.2514 131.638553 
L 174.57638 142.622744 
L 174.90136 133.239344 
L 175.226339 141.490093 
L 175.551319 144.264797 
L 175.876298 145.499147 
L 176.201278 150.114465 
L 176.526257 150.210985 
L 176.851237 152.916521 
L 177.176216 154.349287 
L 177.501196 160.666457 
L 177.826175 158.140536 
L 178.151155 167.021998 
L 178.476134 164.973103 
L 178.801114 157.006845 
L 179.126093 156.381551 
L 179.451073 166.051263 
L 179.776052 165.318497 
L 180.426011 158.910134 
L 180.750991 159.256935 
L 181.075971 148.543842 
L 181.72593 139.320871 
L 182.050909 129.332769 
L 182.375889 127.95268 
L 183.025848 153.89073 
L 183.350827 159.481301 
L 183.675807 169.707119 
L 184.000786 171.205535 
L 184.325766 179.254012 
L 184.650745 176.826274 
L 184.975725 175.578452 
L 185.300704 172.368898 
L 185.625684 172.583565 
L 185.950663 177.936912 
L 186.275643 170.515693 
L 186.600622 172.881262 
L 186.925602 172.926092 
L 187.575561 183.956702 
L 187.900541 185.119969 
L 188.22552 184.865125 
L 188.5505 187.256683 
L 188.875479 185.107127 
L 189.525438 200.037755 
L 189.850418 204.861214 
L 190.175397 205.095433 
L 190.500377 212.055594 
L 190.825356 211.309529 
L 191.800295 237.633901 
L 192.450254 236.880777 
L 192.775233 236.828609 
L 193.100213 231.802485 
L 193.750172 243.144378 
L 194.075152 241.376891 
L 194.400131 233.583303 
L 194.725111 232.492199 
L 195.05009 228.70639 
L 195.700049 214.853429 
L 196.025029 223.221592 
L 196.350008 226.257598 
L 196.674988 224.686288 
L 196.999967 225.238527 
L 197.324947 231.004452 
L 197.649926 231.287201 
L 197.974906 239.437019 
L 198.299885 237.751478 
L 198.624865 238.504229 
L 198.949844 236.440629 
L 199.599803 228.672739 
L 199.924783 228.875896 
L 200.249762 227.870812 
L 200.574742 230.584788 
L 200.899722 226.814849 
L 201.224701 215.661388 
L 201.549681 216.560403 
L 201.87466 232.402615 
L 202.19964 240.164302 
L 202.524619 244.578039 
L 202.849599 251.050546 
L 203.499558 236.320439 
L 203.824537 236.185964 
L 204.149517 233.701976 
L 204.474496 234.19543 
L 204.799476 240.217696 
L 205.124455 239.898569 
L 205.449435 230.813926 
L 206.099394 243.709164 
L 206.424373 244.463388 
L 206.749353 243.218035 
L 207.399312 239.536005 
L 207.724292 248.938331 
L 208.049271 243.668306 
L 208.374251 247.550971 
L 209.02421 234.239204 
L 209.674169 251.808474 
L 209.999148 247.597976 
L 210.324128 253.494699 
L 210.649107 253.643081 
L 210.974087 257.060927 
L 211.299066 255.08285 
L 211.624046 267.124564 
L 211.949025 267.491216 
L 212.274005 266.059212 
L 212.598984 266.704354 
L 212.923964 261.203253 
L 213.248943 262.107959 
L 213.898903 268.591923 
L 214.223882 265.528157 
L 214.873841 240.102119 
L 215.5238 234.876628 
L 215.84878 246.396331 
L 216.173759 246.228676 
L 216.498739 244.405107 
L 217.473677 264.366809 
L 218.123636 248.9314 
L 218.448616 234.143108 
L 218.773595 225.338159 
L 219.098575 220.56777 
L 219.748534 238.196239 
L 220.073514 235.704198 
L 220.398493 227.877943 
L 220.723473 235.026376 
L 221.048452 230.682823 
L 221.698411 246.426498 
L 222.023391 247.696657 
L 222.34837 243.119334 
L 222.67335 242.89382 
L 222.998329 236.963672 
L 223.323309 228.658821 
L 223.648288 225.77566 
L 224.298247 235.406242 
L 224.948206 241.401845 
L 225.273186 246.688522 
L 225.598165 247.65657 
L 225.923145 249.389383 
L 226.248124 248.12358 
L 226.573104 244.118723 
L 226.898084 244.670067 
L 227.223063 246.000186 
L 227.548043 245.886366 
L 228.198002 253.978303 
L 228.522981 247.104407 
L 228.847961 253.228113 
L 229.17294 254.860232 
L 229.49792 254.536034 
L 229.822899 253.019157 
L 230.147879 253.35333 
L 230.472858 255.805332 
L 231.122817 264.300052 
L 231.447797 267.582914 
L 231.772776 272.613256 
L 232.097756 268.573852 
L 232.747715 257.197589 
L 233.072695 259.501286 
L 233.397674 256.463252 
L 233.722654 245.658592 
L 234.047633 249.398572 
L 234.372613 261.846104 
L 234.697592 259.763124 
L 235.022572 255.600795 
L 235.347551 261.793096 
L 235.99751 245.04419 
L 236.32249 250.671986 
L 236.647469 246.365544 
L 237.297428 254.040815 
L 237.622408 249.472162 
L 237.947387 249.169926 
L 238.272367 249.798079 
L 238.597346 247.169415 
L 238.922326 243.170947 
L 239.247305 231.253556 
L 239.572285 230.645537 
L 239.897265 242.877923 
L 240.222244 245.932122 
L 240.547224 252.743583 
L 240.872203 256.029792 
L 241.197183 253.412046 
L 241.522162 244.613843 
L 241.847142 242.036987 
L 242.172121 229.846751 
L 242.497101 226.771519 
L 242.82208 228.424915 
L 243.14706 225.38794 
L 243.472039 223.983451 
L 243.797019 214.074528 
L 244.121998 209.643544 
L 244.446978 211.943263 
L 244.771957 209.461241 
L 245.096937 209.751468 
L 245.421916 209.121164 
L 245.746896 217.327655 
L 246.071876 218.664386 
L 246.396855 217.354339 
L 246.721835 224.767296 
L 247.046814 219.56163 
L 247.371794 217.188094 
L 247.696773 212.943073 
L 248.021753 217.732252 
L 248.346732 215.992904 
L 248.671712 209.519891 
L 248.996691 197.57841 
L 249.321671 190.934868 
L 249.64665 188.945744 
L 249.97163 195.35137 
L 250.296609 191.933172 
L 250.621589 186.596422 
L 250.946568 189.691742 
L 251.271548 194.752647 
L 251.596527 191.270047 
L 251.921507 189.78442 
L 252.246486 181.83061 
L 252.571466 180.196821 
L 252.896446 187.244206 
L 253.221425 200.658189 
L 253.546405 198.83628 
L 253.871384 196.185478 
L 254.196364 200.901318 
L 254.521343 208.499968 
L 254.846323 211.408511 
L 255.171302 212.577788 
L 255.496282 224.821471 
L 255.821261 228.126208 
L 256.146241 227.855367 
L 256.47122 231.416 
L 256.7962 224.470156 
L 257.121179 221.728132 
L 257.771138 229.487511 
L 258.096118 223.274679 
L 258.421097 227.862254 
L 258.746077 216.997628 
L 259.071057 212.781756 
L 259.396036 214.296372 
L 259.721016 218.011087 
L 260.045995 216.950463 
L 260.370975 218.275445 
L 260.695954 224.411105 
L 261.020934 227.683135 
L 261.345913 233.403065 
L 261.670893 234.425678 
L 261.995872 227.87171 
L 262.320852 227.622306 
L 262.645831 220.123253 
L 262.970811 221.682182 
L 263.62077 216.150868 
L 264.270729 224.638877 
L 264.595708 226.023514 
L 264.920688 225.000274 
L 265.245667 222.793716 
L 265.570647 224.555249 
L 265.895627 220.827714 
L 266.545586 229.725295 
L 266.870565 229.486268 
L 267.195545 220.691712 
L 267.520524 217.939883 
L 267.845504 212.717019 
L 268.170483 210.849887 
L 268.495463 217.891325 
L 268.820442 221.351813 
L 269.145422 222.495688 
L 269.470401 217.065704 
L 269.795381 228.30418 
L 270.12036 233.067635 
L 270.44534 221.482163 
L 270.770319 229.2039 
L 271.095299 225.614122 
L 271.420278 219.059759 
L 271.745258 219.902919 
L 272.070238 214.765355 
L 272.395217 215.002642 
L 273.045176 193.304715 
L 273.370156 177.689407 
L 273.695135 173.736477 
L 274.020115 166.508004 
L 274.345094 171.798377 
L 274.670074 169.049869 
L 274.995053 168.017954 
L 275.320033 157.605945 
L 275.645012 155.887942 
L 275.969992 164.580342 
L 276.294971 161.303365 
L 276.619951 156.224561 
L 276.94493 157.254874 
L 277.26991 156.870154 
L 277.919869 167.416617 
L 278.244848 166.813227 
L 278.569828 158.251139 
L 278.894808 161.735713 
L 279.219787 159.715546 
L 279.544767 150.684859 
L 279.869746 150.312685 
L 280.194726 146.537656 
L 280.519705 138.105499 
L 280.844685 133.333196 
L 281.169664 132.700507 
L 281.494644 131.080287 
L 281.819623 130.608396 
L 282.144603 129.579823 
L 282.469582 122.428233 
L 282.794562 120.661424 
L 283.119541 109.829885 
L 283.444521 120.262659 
L 283.7695 120.551557 
L 284.09448 117.988891 
L 284.419459 111.772769 
L 284.744439 108.91019 
L 285.069419 107.817707 
L 285.394398 113.925609 
L 285.719378 103.691815 
L 286.044357 108.496206 
L 286.369337 106.465146 
L 286.694316 111.885979 
L 287.019296 114.102206 
L 287.344275 119.153451 
L 287.669255 127.745958 
L 287.994234 128.742086 
L 288.319214 128.543368 
L 288.969173 112.617627 
L 289.294152 105.957955 
L 289.619132 106.356392 
L 290.269091 101.775974 
L 290.59407 102.226491 
L 291.244029 95.068269 
L 291.893989 82.316309 
L 292.218968 85.953076 
L 292.868927 97.966031 
L 293.193907 97.429389 
L 293.518886 90.419559 
L 293.843866 97.380356 
L 294.168845 109.275518 
L 294.493825 109.739242 
L 294.818804 114.207064 
L 295.143784 120.582032 
L 295.468763 123.622366 
L 295.793743 105.611062 
L 296.118722 97.661358 
L 296.443702 93.033418 
L 296.768681 95.521876 
L 297.093661 102.378867 
L 297.41864 99.660739 
L 297.74362 107.475855 
L 298.0686 106.460736 
L 298.393579 111.690145 
L 298.718559 109.003547 
L 299.043538 110.217891 
L 299.368518 104.675823 
L 299.693497 94.414045 
L 300.018477 94.685227 
L 300.343456 93.833152 
L 300.668436 95.718279 
L 300.993415 110.226568 
L 301.318395 111.210217 
L 301.643374 114.788299 
L 301.968354 108.095018 
L 302.293333 106.606002 
L 302.618313 108.760136 
L 302.943292 108.743096 
L 303.268272 112.539782 
L 303.593251 121.357508 
L 303.918231 119.576545 
L 304.24321 119.563482 
L 304.56819 114.612302 
L 305.543129 110.001773 
L 305.868108 111.24447 
L 306.193088 119.29862 
L 306.518067 122.777143 
L 306.843047 123.292014 
L 307.168026 129.231322 
L 307.493006 139.275321 
L 307.817985 143.04646 
L 308.792924 159.903038 
L 309.117903 161.245111 
L 309.442883 159.088219 
L 310.092842 173.524547 
L 310.742801 163.535283 
L 311.067781 153.192982 
L 311.39276 146.555288 
L 311.71774 145.831241 
L 312.042719 131.310735 
L 312.367699 124.465773 
L 312.692678 127.52959 
L 313.017658 133.93242 
L 313.342637 136.844056 
L 314.317576 115.822002 
L 314.642555 121.678842 
L 314.967535 117.352636 
L 315.292514 119.260124 
L 315.942473 135.370366 
L 316.267453 137.584625 
L 316.917412 123.860658 
L 317.242391 123.177129 
L 317.567371 120.069062 
L 317.892351 121.385243 
L 318.21733 120.916937 
L 318.54231 118.501473 
L 318.867289 107.109332 
L 319.192269 103.650028 
L 319.517248 101.760508 
L 319.842228 102.838543 
L 320.167207 100.493818 
L 320.492187 104.545949 
L 320.817166 104.422278 
L 321.142146 105.673241 
L 321.467125 104.690193 
L 321.792105 105.582094 
L 322.117084 100.17509 
L 322.442064 101.405413 
L 322.767043 100.015529 
L 323.092023 103.007038 
L 323.417002 111.387356 
L 323.741982 111.441055 
L 324.066962 125.963179 
L 324.391941 135.486506 
L 324.716921 140.510849 
L 325.0419 138.987468 
L 325.36688 130.70499 
L 325.691859 129.400661 
L 326.341818 135.168383 
L 326.666798 141.859711 
L 326.991777 136.956972 
L 327.316757 137.350107 
L 327.966716 127.826826 
L 328.291695 134.696215 
L 328.616675 131.423831 
L 328.941654 133.81873 
L 329.266634 140.622292 
L 329.591613 142.094803 
L 330.241572 148.977912 
L 330.566552 152.751468 
L 330.891532 147.933776 
L 331.541491 152.028226 
L 331.86647 155.921506 
L 332.19145 153.168148 
L 332.516429 158.391738 
L 332.841409 161.193725 
L 333.166388 158.594868 
L 333.816347 177.706937 
L 334.141327 178.9034 
L 334.791286 204.914822 
L 335.116265 192.958855 
L 335.441245 188.73548 
L 335.766224 175.296942 
L 336.091204 176.608074 
L 336.416183 172.536027 
L 336.741163 170.277222 
L 337.066143 171.839639 
L 337.391122 176.024263 
L 337.716102 176.950674 
L 338.041081 175.153014 
L 338.366061 178.777222 
L 338.69104 172.280679 
L 339.01602 171.444846 
L 339.665979 167.517592 
L 339.990958 174.552558 
L 340.315938 178.385015 
L 340.965897 176.05697 
L 341.615856 164.239838 
L 341.940835 167.931568 
L 342.265815 161.975473 
L 342.590794 166.3053 
L 342.915774 168.225944 
L 343.240753 163.314469 
L 343.890713 176.300843 
L 344.215692 179.24126 
L 344.865651 201.233334 
L 345.190631 200.168143 
L 345.51561 201.045193 
L 345.84059 195.68086 
L 346.165569 196.029537 
L 346.490549 188.704193 
L 346.815528 186.150687 
L 347.140508 193.407464 
L 347.465487 204.092723 
L 347.790467 202.106203 
L 348.115446 197.609149 
L 348.440426 197.123005 
L 348.765405 192.926261 
L 349.090385 174.440236 
L 349.415364 169.594582 
L 349.740344 154.87691 
L 350.065324 155.219735 
L 350.390303 156.500531 
L 350.715283 150.12096 
L 351.040262 152.465021 
L 351.365242 143.771221 
L 351.690221 142.581798 
L 352.015201 131.906988 
L 352.66516 122.282291 
L 352.990139 132.559732 
L 353.315119 130.082078 
L 353.640098 124.925043 
L 353.965078 123.988662 
L 354.290057 123.644633 
L 354.615037 116.320925 
L 354.940016 112.0092 
L 355.264996 112.037458 
L 355.589975 103.747013 
L 355.914955 108.942432 
L 356.239934 107.77322 
L 356.564914 100.620017 
L 356.889894 100.097381 
L 357.214873 94.556019 
L 357.539853 93.947616 
L 357.864832 108.397649 
L 358.189812 113.901786 
L 358.514791 115.839569 
L 358.839771 113.442163 
L 359.16475 105.02577 
L 359.48973 106.226988 
L 359.814709 102.130633 
L 360.139689 104.122452 
L 360.464668 109.602563 
L 360.789648 109.730042 
L 361.114627 111.578354 
L 361.439607 111.370216 
L 361.764586 115.032586 
L 362.089566 115.766711 
L 362.414545 111.385414 
L 362.739525 110.210122 
L 363.389484 132.202939 
L 363.714464 135.437002 
L 364.364423 151.561243 
L 364.689402 151.66626 
L 365.014382 145.411453 
L 365.339361 144.930694 
L 365.98932 131.672251 
L 366.964259 145.464581 
L 367.289238 143.984407 
L 367.939197 120.825048 
L 368.264177 123.862551 
L 368.589156 121.459612 
L 369.239115 131.362748 
L 369.889075 118.281192 
L 370.214054 106.196835 
L 370.539034 110.21026 
L 370.864013 112.443969 
L 371.188993 110.005277 
L 371.513972 111.99462 
L 371.838952 116.275773 
L 372.163931 118.382627 
L 372.488911 126.409895 
L 372.81389 128.643592 
L 373.13887 126.062004 
L 374.113808 109.252777 
L 374.438788 105.825016 
L 374.763767 106.820632 
L 375.088747 109.936986 
L 375.413726 105.682368 
L 375.738706 97.953017 
L 376.063686 101.725213 
L 376.388665 102.024559 
L 376.713645 95.731382 
L 377.038624 108.234749 
L 377.363604 112.910045 
L 377.688583 113.650572 
L 378.338542 100.446278 
L 378.988501 111.768932 
L 379.313481 111.992154 
L 379.63846 110.616828 
L 379.96344 105.579927 
L 380.288419 105.694151 
L 380.613399 103.512374 
L 380.938378 95.878489 
L 381.263358 98.873278 
L 381.588337 94.584304 
L 381.913317 92.376203 
L 382.238296 91.048952 
L 382.888256 93.086573 
L 383.538215 99.183231 
L 383.863194 99.584669 
L 384.188174 98.292861 
L 384.513153 104.692356 
L 384.838133 97.77918 
L 385.488092 111.678214 
L 385.813071 111.711241 
L 386.138051 104.860377 
L 387.112989 121.568798 
L 387.437969 113.83908 
L 387.762948 112.261957 
L 388.087928 122.998149 
L 388.412907 126.895111 
L 388.737887 123.613271 
L 389.062867 127.706615 
L 389.387846 125.536866 
L 389.712826 128.891174 
L 390.037805 130.575821 
L 390.362785 136.573068 
L 390.687764 134.937606 
L 391.012744 132.333944 
L 391.337723 133.546662 
L 391.662703 126.354147 
L 391.987682 128.696098 
L 392.312662 128.15813 
L 392.637641 120.975257 
L 392.962621 121.640501 
L 393.2876 123.510748 
L 393.61258 124.682542 
L 393.937559 121.867568 
L 394.587518 128.687483 
L 395.562457 118.825485 
L 395.887437 112.004993 
L 396.212416 113.178978 
L 396.537396 109.296287 
L 396.862375 96.966282 
L 397.187355 89.415242 
L 397.512334 89.947626 
L 397.837314 91.937812 
L 398.162293 81.088348 
L 398.487273 80.948085 
L 398.487273 80.948085 
" clip-path="url(#p16ea2e6598)" style="fill: none; stroke: #ff7f0e; stroke-width: 1.5; stroke-linecap: square"/>
   </g>
   <g id="patch_3">
    <path d="M 57.6 307.584 
L 57.6 41.472 
" style="fill: none; stroke: #000000; stroke-width: 0.8; stroke-linejoin: miter; stroke-linecap: square"/>
   </g>
   <g id="patch_4">
    <path d="M 414.72 307.584 
L 414.72 41.472 
" style="fill: none; stroke: #000000; stroke-width: 0.8; stroke-linejoin: miter; stroke-linecap: square"/>
   </g>
   <g id="patch_5">
    <path d="M 57.6 307.584 
L 414.72 307.584 
" style="fill: none; stroke: #000000; stroke-width: 0.8; stroke-linejoin: miter; stroke-linecap: square"/>
   </g>
   <g id="patch_6">
    <path d="M 57.6 41.472 
L 414.72 41.472 
" style="fill: none; stroke: #000000; stroke-width: 0.8; stroke-linejoin: miter; stroke-linecap: square"/>
   </g>
  </g>
 </g>
 <defs>
  <clipPath id="p16ea2e6598">
   <rect x="57.6" y="41.472" width="357.12" height="266.112"/>
  </clipPath>
 </defs>
</svg>
