<?xml version="1.0" encoding="utf-8" standalone="no"?>
<!DOCTYPE svg PUBLIC "-//W3C//DTD SVG 1.1//EN"
  "http://www.w3.org/Graphics/SVG/1.1/DTD/svg11.dtd">
<svg xmlns:xlink="http://www.w3.org/1999/xlink" width="460.8pt" height="345.6pt" viewBox="0 0 460.8 345.6" xmlns="http://www.w3.org/2000/svg" version="1.1">
 <metadata>
  <rdf:RDF xmlns:dc="http://purl.org/dc/elements/1.1/" xmlns:cc="http://creativecommons.org/ns#" xmlns:rdf="http://www.w3.org/1999/02/22-rdf-syntax-ns#">
   <cc:Work>
    <dc:type rdf:resource="http://purl.org/dc/dcmitype/StillImage"/>
    <dc:date>2026-01-29T08:00:32.385541</dc:date>
    <dc:format>image/svg+xml</dc:format>
    <dc:creator>
     <cc:Agent>
      <dc:title>Matplotlib v3.10.8, https://matplotlib.org/</dc:title>
     </cc:Agent>
    </dc:creator>
   </cc:Work>
  </rdf:RDF>
 </metadata>
 <defs>
  <style type="text/css">*{stroke-linejoin: round; stroke-linecap: butt}</style>
 </defs>
 <g id="figure_1">
  <g id="patch_1">
   <path d="M 0 345.6 
L 460.8 345.6 
L 460.8 0 
L 0 0 
z
" style="fill: #ffffff"/>
  </g>
  <g id="axes_1">
   <g id="patch_2">
    <path d="M 82.0775 266.245 
L 434.88 266.245 
L 434.88 25.92 
L 82.0775 25.92 
z
" style="fill: #ffffff"/>
   </g>
   <g id="matplotlib.axis_1">
    <g id="xtick_1">
     <g id="line2d_1">
      <path d="M 184.081188 266.245 
L 184.081188 25.92 
" clip-path="url(#p80e1c5608f)" style="fill: none; stroke: #b0b0b0; stroke-width: 0.8; stroke-linecap: square"/>
     </g>
     <g id="line2d_2">
      <defs>
       <path id="m3c5f9b85b4" d="M 0 0 
L 0 3.5 
" style="stroke: #000000; stroke-width: 0.8"/>
      </defs>
      <g>
       <use xlink:href="#m3c5f9b85b4" x="184.081188" y="266.245" style="stroke: #000000; stroke-width: 0.8"/>
      </g>
     </g>
     <g id="text_1">
      <!-- −20 -->
      <g transform="translate(165.312438 289.63625) scale(0.24 -0.24)">
       <defs>
        <path id="TeXGyreTermes-Regular-2212" d="M 3354 1389 
L 3354 1811 
L 256 1811 
L 256 1389 
L 3354 1389 
z
" transform="scale(0.015625)"/>
        <path id="TeXGyreTermes-Regular-32" d="M 3040 877 
L 2957 909 
C 2720 544 2637 486 2349 486 
L 819 486 
L 1894 1613 
C 2464 2208 2714 2694 2714 3194 
C 2714 3834 2195 4326 1530 4326 
C 1178 4326 845 4186 608 3930 
C 403 3712 307 3507 198 3053 
L 333 3021 
C 589 3648 819 3853 1261 3853 
C 1798 3853 2163 3488 2163 2950 
C 2163 2451 1869 1856 1331 1286 
L 192 77 
L 192 0 
L 2688 0 
L 3040 877 
z
" transform="scale(0.015625)"/>
        <path id="TeXGyreTermes-Regular-30" d="M 3046 2112 
C 3046 3424 2464 4326 1626 4326 
C 1274 4326 1005 4218 768 3994 
C 397 3635 154 2899 154 2150 
C 154 1453 365 704 666 346 
C 902 64 1229 -90 1600 -90 
C 1926 -90 2202 19 2432 243 
C 2803 595 3046 1338 3046 2112 
z
M 2432 2099 
C 2432 762 2150 77 1600 77 
C 1050 77 768 762 768 2093 
C 768 3450 1056 4160 1606 4160 
C 2144 4160 2432 3437 2432 2099 
z
" transform="scale(0.015625)"/>
       </defs>
       <use xlink:href="#TeXGyreTermes-Regular-2212"/>
       <use xlink:href="#TeXGyreTermes-Regular-32" transform="translate(56.399994 0)"/>
       <use xlink:href="#TeXGyreTermes-Regular-30" transform="translate(106.399979 0)"/>
      </g>
     </g>
    </g>
    <g id="xtick_2">
     <g id="line2d_3">
      <path d="M 296.808019 266.245 
L 296.808019 25.92 
" clip-path="url(#p80e1c5608f)" style="fill: none; stroke: #b0b0b0; stroke-width: 0.8; stroke-linecap: square"/>
     </g>
     <g id="line2d_4">
      <g>
       <use xlink:href="#m3c5f9b85b4" x="296.808019" y="266.245" style="stroke: #000000; stroke-width: 0.8"/>
      </g>
     </g>
     <g id="text_2">
      <!-- 0 -->
      <g transform="translate(290.808019 289.63625) scale(0.24 -0.24)">
       <use xlink:href="#TeXGyreTermes-Regular-30"/>
      </g>
     </g>
    </g>
    <g id="xtick_3">
     <g id="line2d_5">
      <path d="M 409.53485 266.245 
L 409.53485 25.92 
" clip-path="url(#p80e1c5608f)" style="fill: none; stroke: #b0b0b0; stroke-width: 0.8; stroke-linecap: square"/>
     </g>
     <g id="line2d_6">
      <g>
       <use xlink:href="#m3c5f9b85b4" x="409.53485" y="266.245" style="stroke: #000000; stroke-width: 0.8"/>
      </g>
     </g>
     <g id="text_3">
      <!-- 20 -->
      <g transform="translate(397.53485 289.63625) scale(0.24 -0.24)">
       <use xlink:href="#TeXGyreTermes-Regular-32"/>
       <use xlink:href="#TeXGyreTermes-Regular-30" transform="translate(49.999985 0)"/>
      </g>
     </g>
    </g>
    <g id="text_4">
     <!-- x -->
     <g transform="translate(252.47875 315.23625) scale(0.24 -0.24)">
      <defs>
       <path id="TeXGyreTermes-Regular-78" d="M 3066 0 
L 3066 96 
C 2867 96 2739 198 2541 480 
L 1722 1734 
L 2253 2502 
C 2374 2675 2566 2778 2771 2784 
L 2771 2880 
L 1760 2880 
L 1760 2784 
C 1952 2771 2016 2733 2016 2643 
C 2016 2566 1939 2426 1779 2227 
C 1747 2189 1670 2074 1587 1946 
L 1498 2074 
C 1318 2342 1203 2560 1203 2643 
C 1203 2733 1286 2778 1478 2784 
L 1478 2880 
L 154 2880 
L 154 2784 
L 211 2784 
C 403 2784 506 2701 704 2400 
L 1306 1478 
L 576 422 
C 384 160 320 115 109 96 
L 109 0 
L 1037 0 
L 1037 96 
C 858 96 781 128 781 211 
C 781 250 826 346 909 474 
L 1414 1261 
L 1997 365 
C 2022 326 2035 288 2035 250 
C 2035 134 1990 109 1779 96 
L 1779 0 
L 3066 0 
z
" transform="scale(0.015625)"/>
      </defs>
      <use xlink:href="#TeXGyreTermes-Regular-78"/>
     </g>
    </g>
   </g>
   <g id="matplotlib.axis_2">
    <g id="ytick_1">
     <g id="line2d_7">
      <path d="M 82.0775 246.511959 
L 434.88 246.511959 
" clip-path="url(#p80e1c5608f)" style="fill: none; stroke: #b0b0b0; stroke-width: 0.8; stroke-linecap: square"/>
     </g>
     <g id="line2d_8">
      <defs>
       <path id="m273f1dcbc1" d="M 0 0 
L -3.5 0 
" style="stroke: #000000; stroke-width: 0.8"/>
      </defs>
      <g>
       <use xlink:href="#m273f1dcbc1" x="82.0775" y="246.511959" style="stroke: #000000; stroke-width: 0.8"/>
      </g>
     </g>
     <g id="text_5">
      <!-- 0 -->
      <g transform="translate(63.0775 254.707584) scale(0.24 -0.24)">
       <use xlink:href="#TeXGyreTermes-Regular-30"/>
      </g>
     </g>
    </g>
    <g id="ytick_2">
     <g id="line2d_9">
      <path d="M 82.0775 160.634673 
L 434.88 160.634673 
" clip-path="url(#p80e1c5608f)" style="fill: none; stroke: #b0b0b0; stroke-width: 0.8; stroke-linecap: square"/>
     </g>
     <g id="line2d_10">
      <g>
       <use xlink:href="#m273f1dcbc1" x="82.0775" y="160.634673" style="stroke: #000000; stroke-width: 0.8"/>
      </g>
     </g>
     <g id="text_6">
      <!-- 20 -->
      <g transform="translate(51.0775 168.830298) scale(0.24 -0.24)">
       <use xlink:href="#TeXGyreTermes-Regular-32"/>
       <use xlink:href="#TeXGyreTermes-Regular-30" transform="translate(49.999985 0)"/>
      </g>
     </g>
    </g>
    <g id="ytick_3">
     <g id="line2d_11">
      <path d="M 82.0775 74.757386 
L 434.88 74.757386 
" clip-path="url(#p80e1c5608f)" style="fill: none; stroke: #b0b0b0; stroke-width: 0.8; stroke-linecap: square"/>
     </g>
     <g id="line2d_12">
      <g>
       <use xlink:href="#m273f1dcbc1" x="82.0775" y="74.757386" style="stroke: #000000; stroke-width: 0.8"/>
      </g>
     </g>
     <g id="text_7">
      <!-- 40 -->
      <g transform="translate(51.0775 82.953011) scale(0.24 -0.24)">
       <defs>
        <path id="TeXGyreTermes-Regular-34" d="M 3021 1069 
L 3021 1478 
L 2368 1478 
L 2368 4326 
L 2086 4326 
L 77 1478 
L 77 1069 
L 1875 1069 
L 1875 0 
L 2368 0 
L 2368 1069 
L 3021 1069 
z
M 1869 1478 
L 333 1478 
L 1869 3674 
L 1869 1478 
z
" transform="scale(0.015625)"/>
       </defs>
       <use xlink:href="#TeXGyreTermes-Regular-34"/>
       <use xlink:href="#TeXGyreTermes-Regular-30" transform="translate(49.999985 0)"/>
      </g>
     </g>
    </g>
    <g id="text_8">
     <!-- y -->
     <g transform="translate(41.84625 152.0825) rotate(-90) scale(0.24 -0.24)">
      <defs>
       <path id="TeXGyreTermes-Regular-79" d="M 3040 2784 
L 3040 2880 
L 2176 2880 
L 2176 2784 
C 2381 2784 2483 2726 2483 2624 
C 2483 2598 2477 2560 2458 2515 
L 1837 749 
L 1101 2368 
C 1062 2458 1037 2541 1037 2611 
C 1037 2726 1133 2771 1408 2784 
L 1408 2880 
L 90 2880 
L 90 2790 
C 256 2765 365 2694 416 2586 
L 1472 358 
C 1517 250 1542 173 1542 122 
C 1542 26 1395 -378 1286 -570 
C 1197 -736 1056 -858 966 -858 
C 928 -858 870 -845 806 -813 
C 685 -768 576 -742 467 -742 
C 320 -742 192 -870 192 -1024 
C 192 -1235 397 -1395 666 -1395 
C 1094 -1395 1402 -1037 1747 -115 
L 2733 2496 
C 2816 2701 2886 2765 3040 2784 
z
" transform="scale(0.015625)"/>
      </defs>
      <use xlink:href="#TeXGyreTermes-Regular-79"/>
     </g>
    </g>
   </g>
   <g id="line2d_13">
    <path d="M 296.808019 246.511959 
L 298.767363 245.766084 
L 301.075284 249.812214 
L 305.971997 255.321136 
L 312.853815 250.127891 
L 323.422854 243.589856 
L 324.107348 245.6635 
L 326.222162 246.652896 
L 332.033359 242.908763 
L 321.130321 240.270217 
L 318.15599 239.804336 
L 318.919213 231.380046 
L 320.876964 231.851719 
L 315.764299 232.289956 
L 315.629085 237.981364 
L 322.052283 237.077512 
L 327.663426 237.59671 
L 330.691297 231.540217 
L 324.201458 228.758276 
L 320.782311 229.074521 
L 325.609289 237.752081 
L 325.442528 242.551419 
L 324.75018 249.548081 
L 324.070416 245.42563 
L 327.27177 241.783654 
L 321.926253 239.14332 
L 326.230784 242.539137 
L 330.568445 239.973961 
L 323.983356 232.003963 
L 324.405124 229.397689 
L 317.822583 228.890707 
L 313.261623 221.479024 
L 314.571684 223.848943 
L 317.478086 221.177904 
L 315.031008 223.668589 
L 307.543729 230.13355 
L 307.777694 230.643518 
L 313.309078 231.141587 
L 303.59572 236.378519 
L 306.097732 233.218094 
L 302.864941 225.901274 
L 305.349089 224.152654 
L 298.667025 220.642633 
L 294.687222 222.621309 
L 293.759055 221.019213 
L 292.121134 222.040753 
L 301.314539 220.307354 
L 302.259898 218.904403 
L 287.93106 218.380672 
L 288.48728 214.054639 
L 292.744582 208.403487 
L 296.513662 212.85881 
L 296.64453 203.92301 
L 284.35616 195.798485 
L 285.568139 193.97132 
L 276.702074 195.611866 
L 266.961401 185.994496 
L 264.682189 194.54434 
L 267.301754 190.783974 
L 266.349163 194.522854 
L 263.638638 199.195103 
L 263.357637 203.871422 
L 269.595578 193.892573 
L 256.340302 195.923477 
L 244.873163 196.256256 
L 254.057659 198.293762 
L 268.113163 200.152257 
L 274.059139 201.748608 
L 284.156221 208.012718 
L 295.43047 207.604944 
L 291.733222 204.743789 
L 283.320838 207.198687 
L 278.479356 209.866346 
L 280.499197 210.114811 
L 284.403649 209.364699 
L 280.167362 215.281137 
L 278.938326 214.201117 
L 282.072268 215.354069 
L 282.732737 212.78773 
L 276.009092 213.761551 
L 273.627239 212.684975 
L 276.251434 214.831045 
L 273.459208 212.253967 
L 278.030823 212.012326 
L 289.692532 214.446468 
L 293.045066 217.226877 
L 298.440142 226.389161 
L 298.831698 228.248849 
L 293.297473 224.298091 
L 301.76581 222.091422 
L 305.753236 224.104888 
L 307.012685 222.945757 
L 304.179656 219.225652 
L 300.49185 208.249667 
L 301.420695 207.368865 
L 305.579532 208.381132 
L 304.729393 215.975694 
L 290.973459 218.975499 
L 296.181656 226.463945 
L 293.67295 235.761554 
L 312.578505 235.282263 
L 318.386968 236.858842 
L 319.354189 230.341567 
L 323.366082 234.663448 
L 327.449991 237.651311 
L 316.753275 232.67922 
L 313.116295 231.961449 
L 313.789499 228.931025 
L 315.104584 224.211173 
L 302.67442 226.330661 
L 307.351295 229.808399 
L 319.787598 231.371745 
L 328.810552 232.147511 
L 330.05331 224.578981 
L 336.756885 221.786127 
L 333.002689 221.225024 
L 343.933482 220.445864 
L 329.472088 223.22735 
L 326.658628 225.012673 
L 323.842181 235.775365 
L 329.409878 239.52115 
L 332.918144 239.414804 
L 339.759253 234.66466 
L 337.924432 224.245822 
L 341.262231 219.006556 
L 333.997491 218.21976 
L 331.978293 228.849344 
L 332.208784 233.619284 
L 333.190837 236.001043 
L 331.40755 240.17695 
L 336.864376 235.338124 
L 337.308148 227.705463 
L 327.993968 229.586891 
L 334.370587 232.215554 
L 340.847396 235.730077 
L 340.877662 233.639597 
L 331.096334 238.642616 
L 343.754493 234.30747 
L 346.176484 236.401195 
L 341.362239 240.388955 
L 350.350097 234.33165 
L 356.028007 234.168853 
L 365.254978 230.338163 
L 364.064393 242.823628 
L 374.266574 236.398079 
L 377.236035 241.30035 
L 381.544894 235.525171 
L 392.469094 236.417611 
L 396.077179 234.787467 
L 393.592477 233.127184 
L 399.201397 231.887349 
L 396.083969 230.382461 
L 397.978057 236.316412 
L 399.208665 227.905466 
L 396.385355 227.092839 
L 397.619298 227.403758 
L 397.637287 232.940438 
L 400.216839 234.002414 
L 389.836884 231.663927 
L 393.206191 230.05748 
L 400.677399 229.861288 
L 396.030052 235.707869 
L 390.480908 244.057472 
L 388.538617 243.926222 
L 394.924273 243.500382 
L 393.277821 244.290981 
L 387.3667 243.623761 
L 393.685056 244.797562 
L 388.564333 244.567962 
L 388.246896 249.860849 
L 399.654115 246.082621 
L 400.558382 248.531844 
L 403.368051 242.194038 
L 400.36529 227.656711 
L 409.833263 228.485091 
L 408.537493 228.60966 
L 412.77977 224.678155 
L 418.843523 221.468203 
L 408.558742 227.577595 
L 408.390494 228.084241 
L 409.282751 224.690726 
L 403.96595 223.658101 
L 402.07236 227.51907 
L 408.45376 218.388023 
L 411.013987 221.580037 
L 410.184428 224.939999 
L 410.595128 220.570632 
L 411.157863 222.474682 
L 405.856337 224.712666 
L 397.977103 222.786945 
L 400.441481 219.353383 
L 392.111067 216.232203 
L 378.325892 224.461491 
L 378.281818 222.022352 
L 381.949205 219.902063 
L 376.825217 223.805012 
L 370.597262 222.301431 
L 367.326615 230.366183 
L 361.272712 232.859678 
L 359.635807 224.991067 
L 358.565795 224.970362 
L 361.952473 229.324918 
L 362.721611 235.790558 
L 369.428557 235.038211 
L 371.325804 237.151755 
L 368.05103 236.073666 
L 361.132714 237.808164 
L 358.535454 235.8292 
L 358.613643 227.695783 
L 353.008025 231.094436 
L 348.774139 232.980839 
L 349.720133 233.222267 
L 349.892591 233.100843 
L 350.617814 239.846004 
L 355.794829 238.764266 
L 353.735378 241.351246 
L 353.660808 241.856477 
L 361.420665 237.477469 
L 356.979846 238.528258 
L 347.635936 238.00844 
L 343.108081 240.067904 
L 352.909082 243.656893 
L 350.802498 248.543793 
L 352.279974 249.565922 
L 341.013336 248.089125 
L 350.980102 250.698664 
L 353.051774 250.715015 
L 354.568557 249.685907 
L 357.371152 245.977259 
L 353.707446 247.988609 
L 350.709382 245.53896 
L 348.571611 236.734151 
L 345.285131 230.306072 
L 347.606064 227.57628 
L 339.532523 224.749604 
L 333.707436 223.184828 
L 331.461007 226.155432 
L 336.208048 230.931852 
L 344.043224 233.352846 
L 343.354067 230.430929 
L 331.907686 230.044604 
L 330.794062 233.308728 
L 336.334444 235.800463 
L 338.673235 227.237566 
L 327.525051 229.375839 
L 332.747251 228.842535 
L 344.131736 228.219212 
L 340.042678 222.101764 
L 345.267914 218.881749 
L 347.050847 220.792744 
L 343.685274 217.6417 
L 340.753058 216.389063 
L 340.613478 213.36618 
L 342.251041 214.667399 
L 352.243289 223.508433 
L 349.748333 218.688065 
L 350.243388 223.622468 
L 350.43408 221.450491 
L 359.360093 217.183061 
L 358.397738 218.392024 
L 357.11012 218.332896 
L 351.505231 217.341849 
L 352.736774 215.279425 
L 354.990376 215.559368 
L 356.883601 217.000339 
L 356.657907 208.836984 
L 357.006328 213.962984 
L 355.506881 209.986099 
L 350.258488 218.847243 
L 343.411358 221.020449 
L 341.746046 223.288845 
L 340.811875 221.668953 
L 343.328763 226.3412 
L 337.677514 223.868075 
L 336.512979 226.326398 
L 333.218969 235.149388 
L 335.248754 233.527187 
L 327.747629 229.113294 
L 326.577118 225.159426 
L 332.335308 225.547516 
L 341.650534 223.76586 
L 344.809971 223.842102 
L 348.509468 218.574703 
L 338.520943 212.517544 
L 331.904146 215.643038 
L 328.395636 214.725912 
L 332.149918 209.88485 
L 329.867565 211.362717 
L 325.969668 208.066847 
L 322.083381 211.519947 
L 316.643723 212.953718 
L 311.167756 210.46096 
L 310.570614 211.445378 
L 307.582844 207.776841 
L 313.598737 205.626217 
L 306.855357 205.687074 
L 297.61097 204.063209 
L 298.429948 208.225423 
L 302.986031 206.961773 
L 301.862707 206.75422 
L 306.964469 208.550157 
L 313.129963 203.483821 
L 310.706668 204.811024 
L 312.268864 205.645092 
L 316.393648 202.583516 
L 320.274748 201.542582 
L 316.673854 197.116389 
L 324.530695 198.319529 
L 328.096209 190.832207 
L 321.411201 195.570857 
L 329.687854 191.658882 
L 335.194933 193.317541 
L 324.968156 202.38562 
L 317.549098 201.305004 
L 323.718682 208.283771 
L 327.856806 209.463127 
L 333.334715 205.228941 
L 335.561299 204.418526 
L 338.61985 204.305067 
L 338.961637 198.057009 
L 341.121389 195.628575 
L 334.194263 191.976964 
L 334.921975 184.268174 
L 329.646193 184.242617 
L 332.26032 183.715368 
L 324.10048 177.627723 
L 316.477372 175.524323 
L 319.491274 171.300719 
L 321.087321 170.78089 
L 321.361125 170.175106 
L 326.353099 171.373342 
L 321.190873 168.050939 
L 328.013878 164.11505 
L 316.39074 166.052868 
L 315.891903 161.282332 
L 313.183034 155.660416 
L 316.254952 157.964183 
L 317.206278 155.710436 
L 315.313024 157.228957 
L 330.008809 157.8515 
L 338.270676 152.839093 
L 344.348397 155.858164 
L 349.553184 155.652692 
L 345.973179 154.688434 
L 340.931105 147.519205 
L 340.093119 154.058667 
L 332.165572 150.330898 
L 328.401211 149.461164 
L 330.701299 147.594264 
L 332.319925 144.899556 
L 333.117954 148.501081 
L 336.052251 147.042275 
L 330.705399 141.064559 
L 328.849169 142.305089 
L 312.670622 137.81112 
L 315.107291 142.504113 
L 317.42602 141.759211 
L 319.959307 139.470209 
L 311.984007 145.008726 
L 307.55245 149.913054 
L 307.326131 145.354396 
L 303.54111 148.477889 
L 303.425184 148.152402 
L 302.034226 151.921307 
L 299.892161 145.843228 
L 297.706768 146.18299 
L 300.113994 146.328681 
L 299.138868 142.692685 
L 299.772811 146.694584 
L 295.873272 147.409628 
L 301.406559 144.946916 
L 306.552 148.370261 
L 311.246113 145.944815 
L 305.80941 149.500771 
L 300.349801 147.461301 
L 298.217359 143.830368 
L 299.780246 150.005732 
L 306.202713 139.239775 
L 298.172065 133.803825 
L 294.201428 135.186449 
L 290.443118 131.520634 
L 288.426968 126.785971 
L 287.500911 127.557059 
L 282.384598 129.744432 
L 281.645579 132.1481 
L 274.245229 130.415008 
L 276.102037 131.891292 
L 288.530659 133.971022 
L 287.031505 132.160642 
L 286.632791 132.911886 
L 291.73918 137.028231 
L 293.209095 134.212223 
L 289.722135 136.176575 
L 299.67964 142.695156 
L 298.003807 132.913205 
L 298.646017 137.872494 
L 296.22578 142.212875 
L 294.849914 145.060317 
L 301.519802 146.580232 
L 305.026149 148.780892 
L 300.478574 153.126356 
L 294.944289 157.739499 
L 301.605576 155.63281 
L 304.246886 148.803528 
L 314.181522 146.819238 
L 315.294189 140.512384 
L 311.050084 137.593588 
L 312.792956 140.721064 
L 309.380366 135.481904 
L 323.564885 128.273425 
L 327.195467 126.811008 
L 332.742231 119.522723 
L 340.319523 120.584347 
L 334.42509 123.486645 
L 333.697938 124.638772 
L 335.298344 121.481846 
L 344.508565 123.309669 
L 338.213458 124.22553 
L 341.395547 125.507421 
L 330.428389 126.962594 
L 335.120762 123.028552 
L 327.066532 123.535735 
L 319.403803 121.06513 
L 327.371054 116.30228 
L 316.727487 115.569206 
L 310.273443 114.402279 
L 311.576617 111.327124 
L 315.135193 113.506725 
L 324.733402 116.612139 
L 318.570374 111.035256 
L 322.660104 117.530577 
L 318.673941 119.339652 
L 318.586768 116.93374 
L 328.113557 117.541453 
L 331.517539 116.686154 
L 336.31025 126.062279 
L 331.183829 123.745978 
L 329.30793 131.979348 
L 326.253824 137.413324 
L 330.016158 138.620308 
L 310.896718 143.483779 
L 311.404368 145.592665 
L 313.753499 141.754147 
L 316.111109 139.10686 
L 323.297538 140.162164 
L 318.801983 141.265106 
L 311.97137 138.528343 
L 311.02991 137.681752 
L 306.254831 141.22307 
L 316.617675 145.870344 
L 306.440042 148.628846 
L 317.063839 149.019527 
L 325.061413 152.670326 
L 325.168305 146.292715 
L 321.858861 148.50371 
L 324.847693 151.95133 
L 330.836023 155.284105 
L 328.935161 154.638655 
L 329.17083 160.707617 
L 331.113905 162.76769 
L 345.181093 158.029189 
L 348.062396 159.152778 
L 350.064262 162.106713 
L 353.359741 160.026224 
L 354.129852 160.603848 
L 344.510207 163.417787 
L 344.383176 161.242084 
L 333.723902 166.401736 
L 335.115092 172.662712 
L 333.33204 170.39746 
L 325.249501 170.487379 
L 316.963446 174.587916 
L 314.853282 180.020933 
L 320.41648 178.449944 
L 317.943816 182.340089 
L 308.65629 182.855488 
L 309.124933 184.248863 
L 301.929671 189.319744 
L 298.890777 194.272707 
L 289.60578 193.379299 
L 289.530244 186.008931 
L 284.655687 189.325519 
L 287.191575 193.390826 
L 279.61364 196.795325 
L 286.346401 190.918364 
L 288.848978 185.936466 
L 296.753402 185.587253 
L 305.021478 187.603921 
L 294.940514 184.299583 
L 285.521882 192.120479 
L 284.136101 197.143132 
L 279.595447 194.907262 
L 272.666947 200.540041 
L 272.996178 204.989753 
L 269.389895 211.262341 
L 264.37874 207.796673 
L 268.157788 209.778806 
L 273.090546 207.295058 
L 274.476875 209.998268 
L 282.502252 215.947135 
L 280.654305 218.850599 
L 288.668281 214.317787 
L 289.157905 206.949095 
L 285.947378 202.907574 
L 291.2175 205.854197 
L 283.248031 204.214391 
L 273.119418 209.21985 
L 270.537206 217.14487 
L 259.827552 218.065143 
L 267.539036 216.343853 
L 260.518855 224.354033 
L 269.7046 220.885858 
L 273.413033 226.473193 
L 262.705307 223.441482 
L 256.830151 225.267743 
L 251.679133 220.925785 
L 240.908893 216.683331 
L 248.150607 216.685982 
L 248.011472 217.829487 
L 247.532874 223.205439 
L 244.189233 226.584117 
L 239.053339 224.593276 
L 239.84271 221.069468 
L 245.611724 227.828412 
L 249.478226 225.866989 
L 256.321983 235.591015 
L 258.043945 232.685861 
L 249.513915 236.810406 
L 254.308431 239.188767 
L 251.264687 234.827066 
L 255.292282 238.580818 
L 255.099989 242.290889 
L 253.837315 240.796073 
L 246.186931 246.820329 
L 242.631268 245.882181 
L 249.522389 248.957106 
L 254.198599 240.624629 
L 260.992199 238.132371 
L 262.292589 237.247726 
L 243.648096 236.318811 
L 254.131326 237.667316 
L 251.740434 234.838208 
L 251.70183 231.00468 
L 251.042266 232.430069 
L 241.182636 230.534472 
L 238.48832 231.096301 
L 243.85094 230.592722 
L 247.225539 236.562278 
L 241.021816 239.088093 
L 243.148224 234.865185 
L 243.394975 230.006694 
L 239.024659 231.732315 
L 237.016829 229.101528 
L 234.798899 228.108651 
L 246.029373 232.998242 
L 235.799909 229.749364 
L 230.37351 226.816085 
L 231.853849 231.679547 
L 230.676494 225.300235 
L 225.703891 218.429777 
L 221.907667 207.620905 
L 219.771667 205.777854 
L 230.216448 207.232997 
L 221.599101 201.336745 
L 223.232222 212.551083 
L 215.732428 212.702837 
L 216.851511 203.497501 
L 204.547213 196.64133 
L 211.449486 191.968537 
L 210.596595 195.683527 
L 209.89667 193.173501 
L 203.645436 198.160849 
L 201.814867 197.580394 
L 199.545664 194.526606 
L 201.689731 191.781718 
L 203.319948 186.795985 
L 206.950645 183.514156 
L 200.774223 182.867762 
L 197.487887 184.657513 
L 198.041286 180.693417 
L 204.566542 177.55964 
L 203.836013 168.1053 
L 203.776699 168.342778 
L 211.352474 165.991349 
L 214.222757 158.891312 
L 216.300904 154.141343 
L 216.516829 144.067146 
L 212.813587 140.442861 
L 213.997616 140.429584 
L 216.528114 134.868364 
L 227.550234 128.300556 
L 222.855301 128.400925 
L 220.174518 133.303675 
L 213.042681 135.358562 
L 200.797874 138.602585 
L 201.845921 135.907297 
L 199.477039 129.537281 
L 200.106536 125.172113 
L 202.194301 124.594267 
L 206.603767 134.536432 
L 198.085244 130.728925 
L 196.636817 130.437672 
L 199.714076 141.674761 
L 199.825744 148.306941 
L 200.452384 144.645696 
L 196.959326 144.256279 
L 185.422132 147.649871 
L 185.041356 150.401547 
L 173.360615 145.991633 
L 172.126339 142.911482 
L 170.367513 141.708825 
L 164.495442 143.219868 
L 159.673057 143.476474 
L 168.430416 147.335905 
L 175.012204 147.857304 
L 174.27934 146.85127 
L 163.34487 150.484173 
L 164.663637 144.511741 
L 170.092054 146.100981 
L 171.500075 154.433454 
L 166.179526 153.475293 
L 177.366765 151.761194 
L 175.87222 152.937962 
L 169.530695 158.285662 
L 175.599635 159.508393 
L 179.393056 160.814879 
L 185.922232 162.364168 
L 189.49306 162.680849 
L 187.620336 163.554322 
L 183.607534 170.031962 
L 181.316084 171.99719 
L 180.010894 166.111172 
L 190.378518 154.618834 
L 188.918678 157.848382 
L 186.66666 162.092555 
L 182.24498 175.284669 
L 183.054927 168.32074 
L 176.683774 164.856271 
L 188.666426 163.887614 
L 183.931643 156.186616 
L 176.559362 162.720979 
L 176.415247 167.592192 
L 179.391226 173.007463 
L 186.164194 177.301576 
L 180.77291 175.03138 
L 182.753748 174.509474 
L 175.818397 173.352305 
L 175.943163 170.261541 
L 172.519309 176.550979 
L 173.477545 178.379092 
L 168.152691 176.838146 
L 172.979435 176.963857 
L 171.911488 180.748837 
L 170.492367 176.232902 
L 170.518221 167.287255 
L 172.989294 162.072978 
L 187.591705 159.205173 
L 194.050672 168.927125 
L 196.09245 171.639605 
L 201.250217 172.34772 
L 202.251731 178.427198 
L 201.379611 183.392044 
L 200.818047 185.929614 
L 192.606178 183.005139 
L 189.785791 174.45561 
L 187.93778 172.900026 
L 180.057889 168.379637 
L 172.744734 161.815042 
L 177.941148 158.50293 
L 171.605924 162.549896 
L 175.628357 157.886116 
L 171.303857 160.482098 
L 172.191955 153.284454 
L 170.441056 152.531031 
L 160.702302 162.955769 
L 165.640164 157.914653 
L 170.433151 158.642067 
L 162.388109 155.435249 
L 157.913165 155.770144 
L 161.804348 153.307592 
L 154.316736 153.265727 
L 147.093039 152.720598 
L 153.108097 151.091349 
L 161.768655 145.259249 
L 161.704169 145.19169 
L 166.786349 144.628896 
L 164.213452 142.465334 
L 169.439571 143.01227 
L 172.283923 146.918106 
L 173.053833 146.294428 
L 170.151932 143.823746 
L 175.264292 147.058887 
L 172.064359 146.548565 
L 166.239454 150.152443 
L 168.803713 149.898877 
L 160.678223 153.108683 
L 168.870802 153.346943 
L 157.837862 158.294869 
L 158.231024 153.814656 
L 158.589553 148.205081 
L 154.752617 138.016074 
L 150.95765 142.274494 
L 155.749202 136.770432 
L 157.504008 134.707183 
L 166.0408 136.729504 
L 161.81959 137.425543 
L 150.200454 134.828166 
L 152.188079 138.093688 
L 163.678902 146.524962 
L 162.319777 152.05972 
L 166.96844 159.713005 
L 160.649135 161.812117 
L 164.075262 152.564307 
L 153.19727 155.807602 
L 149.788773 164.086321 
L 139.836803 159.607465 
L 135.157373 160.547633 
L 134.468281 158.799935 
L 137.040822 152.081625 
L 128.79365 145.23102 
L 134.30632 145.055213 
L 138.47677 154.630984 
L 137.854701 161.030461 
L 143.390146 171.50946 
L 153.670763 174.38518 
L 160.54702 169.841019 
L 154.978348 169.750183 
L 159.10324 171.280565 
L 160.865352 170.824076 
L 158.341336 167.556009 
L 165.136226 155.858007 
L 157.570794 159.301309 
L 157.318401 155.808439 
L 166.433689 151.758881 
L 155.96497 148.258159 
L 147.193424 144.267114 
L 151.475165 141.827325 
L 148.646228 142.549912 
L 152.378839 134.051414 
L 150.987219 129.006594 
L 149.946241 129.25554 
L 150.577185 130.715263 
L 155.762874 132.891715 
L 157.16878 133.973971 
L 162.41679 133.865794 
L 160.843846 125.264402 
L 159.540071 125.614004 
L 161.733935 124.432068 
L 145.998924 119.518053 
L 136.125367 121.012995 
L 135.571046 118.590059 
L 134.909032 123.732927 
L 129.952633 125.712353 
L 128.811155 126.888263 
L 126.246781 121.411997 
L 127.140758 121.578258 
L 127.365363 118.672737 
L 112.06517 115.925202 
L 113.07834 122.487356 
L 103.387029 118.767883 
L 108.743865 114.080223 
L 110.740492 117.42166 
L 111.692701 127.169684 
L 102.802865 131.139723 
L 107.097756 134.976714 
L 98.113977 128.952881 
L 106.554433 132.079486 
L 100.880456 133.490639 
L 102.543245 137.32967 
L 100.420563 136.95754 
L 109.723608 132.756018 
L 122.432513 138.371488 
L 123.289317 135.958283 
L 115.499826 136.094057 
L 111.872444 134.050525 
L 106.185701 128.978481 
L 106.558689 131.889742 
L 112.683201 129.445769 
L 111.898422 128.147316 
L 109.646975 119.954432 
L 104.299358 122.139087 
L 104.775736 125.602628 
L 107.862796 121.050328 
L 102.546605 128.097596 
L 99.72309 135.563653 
L 111.764894 127.462969 
L 115.05632 122.583129 
L 112.242527 127.292272 
L 114.010784 134.598361 
L 108.262365 135.449859 
L 109.220595 133.546003 
L 110.972277 133.837975 
L 117.118645 140.411092 
L 129.371642 138.215777 
L 125.944572 129.787932 
L 125.057946 130.570052 
L 129.058435 130.498174 
L 128.093759 131.195995 
L 126.419319 141.020517 
L 130.675551 137.962235 
L 133.693198 139.747729 
L 136.460735 136.988295 
L 136.949376 138.999743 
L 133.570051 137.6124 
L 133.941338 129.487005 
L 136.694498 125.473776 
L 131.28854 123.672494 
L 122.754811 124.217915 
L 118.417474 126.078247 
L 127.443719 127.022705 
L 133.876949 125.827317 
L 132.218744 119.173709 
L 132.812697 114.15716 
L 141.87479 109.888193 
L 143.006613 111.889102 
L 137.845509 109.416566 
L 135.592482 100.872852 
L 149.505049 102.57571 
L 153.08124 105.027851 
L 145.797966 105.736255 
L 138.042468 104.411464 
L 137.425926 105.887101 
L 143.064348 106.980557 
L 138.893407 106.247814 
L 139.294915 105.707519 
L 138.432675 96.856587 
L 143.307372 91.731175 
L 148.078874 94.187375 
L 148.495637 97.112269 
L 146.668269 98.44318 
L 146.896649 98.652839 
L 156.06584 93.690486 
L 159.154807 91.106232 
L 156.611617 89.742753 
L 167.328912 86.959297 
L 165.0648 93.415865 
L 166.278325 93.984761 
L 168.529105 91.777237 
L 160.452004 94.732814 
L 167.502959 92.671729 
L 163.456202 99.098286 
L 165.953499 96.974245 
L 164.721424 97.311318 
L 161.285698 98.418429 
L 152.519494 99.133138 
L 154.430929 97.515179 
L 146.768229 99.483407 
L 145.119764 97.673089 
L 155.846552 96.514921 
L 158.035846 103.828715 
L 160.851014 105.885435 
L 167.118562 105.979427 
L 173.36195 104.756574 
L 178.777072 105.498924 
L 178.686849 104.714294 
L 173.932225 101.40116 
L 188.554675 105.155194 
L 185.727799 110.635467 
L 169.057371 110.553094 
L 169.593659 106.314563 
L 167.288658 100.739411 
L 169.444271 106.386943 
L 170.151204 110.14992 
L 163.901953 111.476183 
L 169.576633 111.819297 
L 169.676623 106.637159 
L 166.181834 113.536911 
L 173.104098 111.58818 
L 172.831594 114.546095 
L 173.981353 111.857357 
L 172.941481 120.003727 
L 163.011277 117.013916 
L 169.332578 113.663547 
L 165.850839 118.616675 
L 162.064081 118.08755 
L 170.412299 122.127105 
L 180.421686 121.907485 
L 177.600077 122.586016 
L 168.829583 115.529044 
L 165.265379 108.005435 
L 167.98497 105.669579 
L 172.17544 104.628689 
L 167.153054 105.787586 
L 163.496951 107.522377 
L 166.579816 106.281215 
L 168.717201 107.966429 
L 167.007713 99.091923 
L 175.277557 100.6504 
L 174.974966 98.089344 
L 176.116061 101.834688 
L 168.459639 95.795447 
L 165.960643 91.090467 
L 171.643682 94.598568 
L 170.292367 97.523789 
L 159.842644 85.448816 
L 157.602661 90.690951 
L 164.834693 85.591154 
L 171.540864 73.597971 
L 172.450303 78.295348 
L 171.29183 68.914422 
L 170.59095 68.827266 
L 171.990974 63.22733 
L 172.884941 68.00473 
L 177.922777 62.375439 
L 180.173195 58.594952 
L 180.548512 58.665948 
L 177.336169 59.749579 
L 171.505091 60.018776 
L 168.695252 55.837798 
L 170.637935 59.889898 
L 171.948735 56.242929 
L 170.34969 57.147363 
L 169.647498 57.941429 
L 166.173759 57.860407 
L 166.151717 55.826148 
L 168.993287 55.443025 
L 156.948569 55.750195 
L 166.86477 54.55429 
L 160.809764 57.051568 
L 157.193708 59.463256 
L 160.220686 56.422335 
L 156.388106 57.197246 
L 150.048028 53.720714 
L 148.125675 54.418165 
L 155.767475 55.055816 
L 156.457232 55.488396 
L 164.711249 54.102975 
L 154.332534 48.623862 
L 157.56536 46.116617 
L 157.885823 41.161923 
L 165.101197 36.843864 
L 159.460871 44.658012 
L 173.194178 43.275864 
L 168.854534 51.64125 
L 163.475282 53.437991 
L 157.376729 52.244564 
L 161.47216 53.432935 
L 154.037945 59.810787 
L 153.070579 55.038548 
L 149.506324 50.069814 
L 145.943551 50.355869 
L 137.642863 49.645288 
L 141.594905 56.302153 
L 148.22409 56.020111 
L 154.204927 60.016941 
L 153.479099 56.147429 
L 152.419205 51.6739 
L 146.430154 50.586398 
L 143.863916 56.567824 
L 147.909738 49.386064 
L 139.128716 47.070407 
L 139.280227 51.193898 
L 144.810184 40.964814 
L 152.88558 47.583464 
L 149.114615 48.955937 
L 146.372319 56.163446 
L 142.684205 56.746272 
L 145.653908 54.193929 
L 139.262092 55.60672 
L 142.324767 43.769781 
L 146.73648 41.569707 
L 156.548238 40.397189 
L 148.990821 41.038921 
L 148.109581 42.179557 
L 147.318759 38.178398 
L 149.123983 37.559373 
L 152.974685 40.761094 
L 149.848812 40.883923 
L 145.406011 41.386249 
L 153.579902 45.145233 
L 155.015322 43.733774 
L 161.116304 42.895628 
L 156.183831 44.825644 
L 165.986073 42.13103 
L 161.497351 46.077303 
L 166.751816 45.190077 
L 174.341454 51.198703 
L 165.739772 50.34726 
L 167.052567 56.416724 
L 165.007933 57.931671 
L 163.416573 65.998109 
L 160.620559 66.276956 
L 158.928207 66.876686 
L 166.279572 67.89088 
L 160.143728 64.006953 
L 162.762061 56.249876 
L 156.67708 49.715929 
L 159.087301 54.37472 
L 161.175037 56.711312 
L 159.609133 56.233873 
L 159.126196 56.813269 
L 160.155801 52.329285 
L 165.71097 52.499435 
L 162.883416 55.311178 
L 162.883416 55.311178 
" clip-path="url(#p80e1c5608f)" style="fill: none; stroke: #1f77b4; stroke-width: 1.5; stroke-linecap: square"/>
   </g>
   <g id="patch_3">
    <path d="M 82.0775 266.245 
L 82.0775 25.92 
" style="fill: none; stroke: #000000; stroke-width: 0.8; stroke-linejoin: miter; stroke-linecap: square"/>
   </g>
   <g id="patch_4">
    <path d="M 434.88 266.245 
L 434.88 25.92 
" style="fill: none; stroke: #000000; stroke-width: 0.8; stroke-linejoin: miter; stroke-linecap: square"/>
   </g>
   <g id="patch_5">
    <path d="M 82.0775 266.245 
L 434.88 266.245 
" style="fill: none; stroke: #000000; stroke-width: 0.8; stroke-linejoin: miter; stroke-linecap: square"/>
   </g>
   <g id="patch_6">
    <path d="M 82.0775 25.92 
L 434.88 25.92 
" style="fill: none; stroke: #000000; stroke-width: 0.8; stroke-linejoin: miter; stroke-linecap: square"/>
   </g>
  </g>
 </g>
 <defs>
  <clipPath id="p80e1c5608f">
   <rect x="82.0775" y="25.92" width="352.8025" height="240.325"/>
  </clipPath>
 </defs>
</svg>
