<?xml version="1.0" encoding="utf-8" standalone="no"?>
<!DOCTYPE svg PUBLIC "-//W3C//DTD SVG 1.1//EN"
  "http://www.w3.org/Graphics/SVG/1.1/DTD/svg11.dtd">
<svg xmlns:xlink="http://www.w3.org/1999/xlink" width="460.8pt" height="345.6pt" viewBox="0 0 460.8 345.6" xmlns="http://www.w3.org/2000/svg" version="1.1">
 <metadata>
  <rdf:RDF xmlns:dc="http://purl.org/dc/elements/1.1/" xmlns:cc="http://creativecommons.org/ns#" xmlns:rdf="http://www.w3.org/1999/02/22-rdf-syntax-ns#">
   <cc:Work>
    <dc:type rdf:resource="http://purl.org/dc/dcmitype/StillImage"/>
    <dc:date>2026-01-29T08:00:33.026809</dc:date>
    <dc:format>image/svg+xml</dc:format>
    <dc:creator>
     <cc:Agent>
      <dc:title>Matplotlib v3.10.8, https://matplotlib.org/</dc:title>
     </cc:Agent>
    </dc:creator>
   </cc:Work>
  </rdf:RDF>
 </metadata>
 <defs>
  <style type="text/css">*{stroke-linejoin: round; stroke-linecap: butt}</style>
 </defs>
 <g id="figure_1">
  <g id="patch_1">
   <path d="M 0 345.6 
L 460.8 345.6 
L 460.8 0 
L 0 0 
z
" style="fill: #ffffff"/>
  </g>
  <g id="axes_1">
   <g id="patch_2">
    <path d="M 107.5475 266.245 
L 434.88 266.245 
L 434.88 25.92 
L 107.5475 25.92 
z
" style="fill: #ffffff"/>
   </g>
   <g id="matplotlib.axis_1">
    <g id="xtick_1">
     <g id="line2d_1">
      <path d="M 122.42625 266.245 
L 122.42625 25.92 
" clip-path="url(#pe6fe6524bb)" style="fill: none; stroke: #b0b0b0; stroke-width: 0.8; stroke-linecap: square"/>
     </g>
     <g id="line2d_2">
      <defs>
       <path id="m75a504a43f" d="M 0 0 
L 0 3.5 
" style="stroke: #000000; stroke-width: 0.8"/>
      </defs>
      <g>
       <use xlink:href="#m75a504a43f" x="122.42625" y="266.245" style="stroke: #000000; stroke-width: 0.8"/>
      </g>
     </g>
     <g id="text_1">
      <!-- 0 -->
      <g transform="translate(116.42625 289.63625) scale(0.24 -0.24)">
       <defs>
        <path id="TeXGyreTermes-Regular-30" d="M 3046 2112 
C 3046 3424 2464 4326 1626 4326 
C 1274 4326 1005 4218 768 3994 
C 397 3635 154 2899 154 2150 
C 154 1453 365 704 666 346 
C 902 64 1229 -90 1600 -90 
C 1926 -90 2202 19 2432 243 
C 2803 595 3046 1338 3046 2112 
z
M 2432 2099 
C 2432 762 2150 77 1600 77 
C 1050 77 768 762 768 2093 
C 768 3450 1056 4160 1606 4160 
C 2144 4160 2432 3437 2432 2099 
z
" transform="scale(0.015625)"/>
       </defs>
       <use xlink:href="#TeXGyreTermes-Regular-30"/>
      </g>
     </g>
    </g>
    <g id="xtick_2">
     <g id="line2d_3">
      <path d="M 265.710877 266.245 
L 265.710877 25.92 
" clip-path="url(#pe6fe6524bb)" style="fill: none; stroke: #b0b0b0; stroke-width: 0.8; stroke-linecap: square"/>
     </g>
     <g id="line2d_4">
      <g>
       <use xlink:href="#m75a504a43f" x="265.710877" y="266.245" style="stroke: #000000; stroke-width: 0.8"/>
      </g>
     </g>
     <g id="text_2">
      <!-- 200 -->
      <g transform="translate(247.710877 289.63625) scale(0.24 -0.24)">
       <defs>
        <path id="TeXGyreTermes-Regular-32" d="M 3040 877 
L 2957 909 
C 2720 544 2637 486 2349 486 
L 819 486 
L 1894 1613 
C 2464 2208 2714 2694 2714 3194 
C 2714 3834 2195 4326 1530 4326 
C 1178 4326 845 4186 608 3930 
C 403 3712 307 3507 198 3053 
L 333 3021 
C 589 3648 819 3853 1261 3853 
C 1798 3853 2163 3488 2163 2950 
C 2163 2451 1869 1856 1331 1286 
L 192 77 
L 192 0 
L 2688 0 
L 3040 877 
z
" transform="scale(0.015625)"/>
       </defs>
       <use xlink:href="#TeXGyreTermes-Regular-32"/>
       <use xlink:href="#TeXGyreTermes-Regular-30" transform="translate(49.999985 0)"/>
       <use xlink:href="#TeXGyreTermes-Regular-30" transform="translate(99.999969 0)"/>
      </g>
     </g>
    </g>
    <g id="xtick_3">
     <g id="line2d_5">
      <path d="M 408.995504 266.245 
L 408.995504 25.92 
" clip-path="url(#pe6fe6524bb)" style="fill: none; stroke: #b0b0b0; stroke-width: 0.8; stroke-linecap: square"/>
     </g>
     <g id="line2d_6">
      <g>
       <use xlink:href="#m75a504a43f" x="408.995504" y="266.245" style="stroke: #000000; stroke-width: 0.8"/>
      </g>
     </g>
     <g id="text_3">
      <!-- 400 -->
      <g transform="translate(390.995504 289.63625) scale(0.24 -0.24)">
       <defs>
        <path id="TeXGyreTermes-Regular-34" d="M 3021 1069 
L 3021 1478 
L 2368 1478 
L 2368 4326 
L 2086 4326 
L 77 1478 
L 77 1069 
L 1875 1069 
L 1875 0 
L 2368 0 
L 2368 1069 
L 3021 1069 
z
M 1869 1478 
L 333 1478 
L 1869 3674 
L 1869 1478 
z
" transform="scale(0.015625)"/>
       </defs>
       <use xlink:href="#TeXGyreTermes-Regular-34"/>
       <use xlink:href="#TeXGyreTermes-Regular-30" transform="translate(49.999985 0)"/>
       <use xlink:href="#TeXGyreTermes-Regular-30" transform="translate(99.999969 0)"/>
      </g>
     </g>
    </g>
    <g id="text_4">
     <!-- x -->
     <g transform="translate(265.21375 315.23625) scale(0.24 -0.24)">
      <defs>
       <path id="TeXGyreTermes-Regular-78" d="M 3066 0 
L 3066 96 
C 2867 96 2739 198 2541 480 
L 1722 1734 
L 2253 2502 
C 2374 2675 2566 2778 2771 2784 
L 2771 2880 
L 1760 2880 
L 1760 2784 
C 1952 2771 2016 2733 2016 2643 
C 2016 2566 1939 2426 1779 2227 
C 1747 2189 1670 2074 1587 1946 
L 1498 2074 
C 1318 2342 1203 2560 1203 2643 
C 1203 2733 1286 2778 1478 2784 
L 1478 2880 
L 154 2880 
L 154 2784 
L 211 2784 
C 403 2784 506 2701 704 2400 
L 1306 1478 
L 576 422 
C 384 160 320 115 109 96 
L 109 0 
L 1037 0 
L 1037 96 
C 858 96 781 128 781 211 
C 781 250 826 346 909 474 
L 1414 1261 
L 1997 365 
C 2022 326 2035 288 2035 250 
C 2035 134 1990 109 1779 96 
L 1779 0 
L 3066 0 
z
" transform="scale(0.015625)"/>
      </defs>
      <use xlink:href="#TeXGyreTermes-Regular-78"/>
     </g>
    </g>
   </g>
   <g id="matplotlib.axis_2">
    <g id="ytick_1">
     <g id="line2d_7">
      <path d="M 107.5475 255.386219 
L 434.88 255.386219 
" clip-path="url(#pe6fe6524bb)" style="fill: none; stroke: #b0b0b0; stroke-width: 0.8; stroke-linecap: square"/>
     </g>
     <g id="line2d_8">
      <defs>
       <path id="m6d598ec415" d="M 0 0 
L -3.5 0 
" style="stroke: #000000; stroke-width: 0.8"/>
      </defs>
      <g>
       <use xlink:href="#m6d598ec415" x="107.5475" y="255.386219" style="stroke: #000000; stroke-width: 0.8"/>
      </g>
     </g>
     <g id="text_5">
      <!-- −800 -->
      <g transform="translate(51.01 263.581844) scale(0.24 -0.24)">
       <defs>
        <path id="TeXGyreTermes-Regular-2212" d="M 3354 1389 
L 3354 1811 
L 256 1811 
L 256 1389 
L 3354 1389 
z
" transform="scale(0.015625)"/>
        <path id="TeXGyreTermes-Regular-38" d="M 2848 992 
C 2848 1485 2630 1798 1856 2374 
C 2490 2714 2714 2982 2714 3418 
C 2714 3942 2253 4326 1613 4326 
C 915 4326 397 3898 397 3315 
C 397 2899 518 2714 1190 2125 
C 499 1600 358 1402 358 966 
C 358 346 864 -90 1587 -90 
C 2355 -90 2848 333 2848 992 
z
M 2362 794 
C 2362 378 2074 90 1658 90 
C 1171 90 845 461 845 1018 
C 845 1427 986 1696 1357 1997 
L 1741 1715 
C 2208 1382 2362 1152 2362 794 
z
M 2272 3424 
C 2272 3059 2093 2771 1728 2528 
C 1696 2509 1696 2509 1670 2490 
C 1101 2861 870 3155 870 3514 
C 870 3885 1158 4147 1562 4147 
C 1997 4147 2272 3866 2272 3424 
z
" transform="scale(0.015625)"/>
       </defs>
       <use xlink:href="#TeXGyreTermes-Regular-2212"/>
       <use xlink:href="#TeXGyreTermes-Regular-38" transform="translate(56.399994 0)"/>
       <use xlink:href="#TeXGyreTermes-Regular-30" transform="translate(106.399979 0)"/>
       <use xlink:href="#TeXGyreTermes-Regular-30" transform="translate(156.399963 0)"/>
      </g>
     </g>
    </g>
    <g id="ytick_2">
     <g id="line2d_9">
      <path d="M 107.5475 200.75063 
L 434.88 200.75063 
" clip-path="url(#pe6fe6524bb)" style="fill: none; stroke: #b0b0b0; stroke-width: 0.8; stroke-linecap: square"/>
     </g>
     <g id="line2d_10">
      <g>
       <use xlink:href="#m6d598ec415" x="107.5475" y="200.75063" style="stroke: #000000; stroke-width: 0.8"/>
      </g>
     </g>
     <g id="text_6">
      <!-- −600 -->
      <g transform="translate(51.01 208.946255) scale(0.24 -0.24)">
       <defs>
        <path id="TeXGyreTermes-Regular-36" d="M 2995 1402 
C 2995 2221 2528 2739 1792 2739 
C 1510 2739 1376 2694 973 2451 
C 1146 3418 1862 4109 2867 4275 
L 2854 4378 
C 2125 4314 1754 4192 1286 3866 
C 595 3373 218 2643 218 1786 
C 218 1229 390 666 666 346 
C 909 64 1254 -90 1651 -90 
C 2445 -90 2995 518 2995 1402 
z
M 2419 1184 
C 2419 480 2170 90 1722 90 
C 1158 90 813 691 813 1683 
C 813 2010 864 2189 992 2285 
C 1126 2387 1325 2445 1549 2445 
C 2099 2445 2419 1984 2419 1184 
z
" transform="scale(0.015625)"/>
       </defs>
       <use xlink:href="#TeXGyreTermes-Regular-2212"/>
       <use xlink:href="#TeXGyreTermes-Regular-36" transform="translate(56.399994 0)"/>
       <use xlink:href="#TeXGyreTermes-Regular-30" transform="translate(106.399979 0)"/>
       <use xlink:href="#TeXGyreTermes-Regular-30" transform="translate(156.399963 0)"/>
      </g>
     </g>
    </g>
    <g id="ytick_3">
     <g id="line2d_11">
      <path d="M 107.5475 146.115042 
L 434.88 146.115042 
" clip-path="url(#pe6fe6524bb)" style="fill: none; stroke: #b0b0b0; stroke-width: 0.8; stroke-linecap: square"/>
     </g>
     <g id="line2d_12">
      <g>
       <use xlink:href="#m6d598ec415" x="107.5475" y="146.115042" style="stroke: #000000; stroke-width: 0.8"/>
      </g>
     </g>
     <g id="text_7">
      <!-- −400 -->
      <g transform="translate(51.01 154.310667) scale(0.24 -0.24)">
       <use xlink:href="#TeXGyreTermes-Regular-2212"/>
       <use xlink:href="#TeXGyreTermes-Regular-34" transform="translate(56.399994 0)"/>
       <use xlink:href="#TeXGyreTermes-Regular-30" transform="translate(106.399979 0)"/>
       <use xlink:href="#TeXGyreTermes-Regular-30" transform="translate(156.399963 0)"/>
      </g>
     </g>
    </g>
    <g id="ytick_4">
     <g id="line2d_13">
      <path d="M 107.5475 91.479453 
L 434.88 91.479453 
" clip-path="url(#pe6fe6524bb)" style="fill: none; stroke: #b0b0b0; stroke-width: 0.8; stroke-linecap: square"/>
     </g>
     <g id="line2d_14">
      <g>
       <use xlink:href="#m6d598ec415" x="107.5475" y="91.479453" style="stroke: #000000; stroke-width: 0.8"/>
      </g>
     </g>
     <g id="text_8">
      <!-- −200 -->
      <g transform="translate(51.01 99.675078) scale(0.24 -0.24)">
       <use xlink:href="#TeXGyreTermes-Regular-2212"/>
       <use xlink:href="#TeXGyreTermes-Regular-32" transform="translate(56.399994 0)"/>
       <use xlink:href="#TeXGyreTermes-Regular-30" transform="translate(106.399979 0)"/>
       <use xlink:href="#TeXGyreTermes-Regular-30" transform="translate(156.399963 0)"/>
      </g>
     </g>
    </g>
    <g id="ytick_5">
     <g id="line2d_15">
      <path d="M 107.5475 36.843864 
L 434.88 36.843864 
" clip-path="url(#pe6fe6524bb)" style="fill: none; stroke: #b0b0b0; stroke-width: 0.8; stroke-linecap: square"/>
     </g>
     <g id="line2d_16">
      <g>
       <use xlink:href="#m6d598ec415" x="107.5475" y="36.843864" style="stroke: #000000; stroke-width: 0.8"/>
      </g>
     </g>
     <g id="text_9">
      <!-- 0 -->
      <g transform="translate(88.5475 45.039489) scale(0.24 -0.24)">
       <use xlink:href="#TeXGyreTermes-Regular-30"/>
      </g>
     </g>
    </g>
    <g id="text_10">
     <!-- y -->
     <g transform="translate(41.77875 152.0825) rotate(-90) scale(0.24 -0.24)">
      <defs>
       <path id="TeXGyreTermes-Regular-79" d="M 3040 2784 
L 3040 2880 
L 2176 2880 
L 2176 2784 
C 2381 2784 2483 2726 2483 2624 
C 2483 2598 2477 2560 2458 2515 
L 1837 749 
L 1101 2368 
C 1062 2458 1037 2541 1037 2611 
C 1037 2726 1133 2771 1408 2784 
L 1408 2880 
L 90 2880 
L 90 2790 
C 256 2765 365 2694 416 2586 
L 1472 358 
C 1517 250 1542 173 1542 122 
C 1542 26 1395 -378 1286 -570 
C 1197 -736 1056 -858 966 -858 
C 928 -858 870 -845 806 -813 
C 685 -768 576 -742 467 -742 
C 320 -742 192 -870 192 -1024 
C 192 -1235 397 -1395 666 -1395 
C 1094 -1395 1402 -1037 1747 -115 
L 2733 2496 
C 2816 2701 2886 2765 3040 2784 
z
" transform="scale(0.015625)"/>
      </defs>
      <use xlink:href="#TeXGyreTermes-Regular-79"/>
     </g>
    </g>
   </g>
   <g id="line2d_17">
    <path d="M 122.42625 36.843864 
L 131.094686 39.811835 
L 136.037335 41.275869 
L 143.340062 43.885506 
L 144.823832 44.655898 
L 146.101294 45.455318 
L 148.021018 46.895382 
L 152.006112 49.78603 
L 153.476339 51.247429 
L 154.955098 52.813688 
L 156.240841 53.901032 
L 159.497541 57.229056 
L 162.900596 59.989118 
L 165.133323 61.411313 
L 171.659779 64.964148 
L 176.638434 67.511199 
L 179.542685 68.763837 
L 193.52125 75.948496 
L 201.187553 79.301721 
L 202.660338 80.194139 
L 206.915892 82.688812 
L 213.980714 86.468569 
L 215.499431 87.697121 
L 216.719887 88.887748 
L 217.225086 89.524708 
L 218.60062 92.247876 
L 219.324402 93.565856 
L 220.590456 95.555425 
L 221.487094 97.31554 
L 221.844858 97.862068 
L 222.070667 98.827749 
L 222.236253 99.831859 
L 222.787448 100.828093 
L 223.1871 102.211267 
L 223.612259 103.500107 
L 223.860979 104.891046 
L 224.376736 105.764225 
L 226.032405 107.810226 
L 228.417132 109.651696 
L 231.063809 111.263123 
L 231.631488 111.906301 
L 232.224458 112.892464 
L 232.341201 113.588649 
L 232.407704 113.959222 
L 232.189012 115.214026 
L 231.838139 116.012719 
L 231.014345 116.790296 
L 230.722707 117.409635 
L 230.767231 117.957014 
L 230.963335 118.289595 
L 232.299874 119.35831 
L 234.848707 119.965432 
L 237.943719 120.374995 
L 239.012105 120.33948 
L 249.205245 118.366634 
L 251.319595 118.083558 
L 253.757272 117.464326 
L 256.073739 116.953919 
L 262.124163 115.094878 
L 263.550458 114.952794 
L 265.000589 114.846209 
L 266.834717 114.401696 
L 269.437121 114.40974 
L 271.630942 114.412081 
L 274.142752 114.771732 
L 274.970297 115.150931 
L 275.100335 115.399227 
L 275.126901 115.858328 
L 275.1792 116.261979 
L 275.294288 116.503798 
L 275.178036 117.185176 
L 275.516275 117.496202 
L 275.67267 117.895299 
L 275.677846 118.308643 
L 275.230165 118.95293 
L 275.234043 119.300052 
L 275.535634 119.665413 
L 276.348781 120.273767 
L 280.447817 120.22403 
L 284.059459 119.911308 
L 287.837869 119.289596 
L 288.747614 118.927313 
L 290.287932 118.237434 
L 296.723997 115.604855 
L 303.295184 112.697455 
L 304.852119 112.005019 
L 308.488617 110.648123 
L 311.136264 109.538445 
L 314.380636 108.444514 
L 315.497325 108.263781 
L 318.060207 108.3034 
L 323.474563 108.808312 
L 328.27106 109.707527 
L 329.890447 110.243883 
L 334.412338 111.868161 
L 335.317234 112.375638 
L 337.834125 113.131594 
L 345.971352 114.669026 
L 349.22344 115.137569 
L 352.347071 115.370199 
L 357.618868 115.747045 
L 365.698431 115.86636 
L 369.07193 115.803523 
L 371.278608 115.661704 
L 376.118341 115.272332 
L 378.189687 115.112597 
L 388.366658 115.110611 
L 401.042189 114.00777 
L 402.815215 114.116047 
L 409.540808 115.255352 
L 411.506579 115.552239 
L 412.24372 115.710205 
L 414.009217 116.388349 
L 415.349524 116.969527 
L 416.624782 117.47355 
L 417.734276 118.207187 
L 417.852923 118.397866 
L 417.500937 119.326762 
L 417.081591 119.808466 
L 416.481475 120.250811 
L 414.366098 121.092937 
L 412.482776 121.83603 
L 410.827206 122.550384 
L 410.325982 122.723251 
L 410.421379 122.718435 
L 411.188247 122.856865 
L 415.154623 123.281029 
L 416.507342 123.173001 
L 418.121409 122.713436 
L 419.791188 121.733002 
L 419.997094 121.42552 
L 419.942823 121.093834 
L 419.611296 120.868646 
L 418.507211 120.406194 
L 417.386117 120.203166 
L 416.931781 120.099496 
L 416.944778 120.062437 
L 417.005305 120.047094 
L 417.032615 120.099441 
L 416.964879 120.340102 
L 416.4602 120.392866 
L 415.986142 120.356312 
L 415.987913 120.435905 
L 415.941497 120.951113 
L 415.668156 121.224823 
L 414.976877 121.559756 
L 414.271341 121.820367 
L 414.137751 122.134284 
L 414.10574 122.891186 
L 414.225179 123.543591 
L 414.909579 124.269869 
L 414.980995 125.211739 
L 415.016881 126.094676 
L 415.720502 128.045053 
L 415.605416 128.867548 
L 414.218296 130.911489 
L 412.527805 132.656591 
L 412.384282 132.99756 
L 411.437258 133.882638 
L 409.066973 135.802242 
L 406.859934 136.610059 
L 406.304246 136.809461 
L 405.258273 137.455631 
L 405.013317 137.626527 
L 402.745912 138.452582 
L 398.363405 139.619255 
L 395.727618 140.288637 
L 393.233247 141.003239 
L 385.537231 143.619814 
L 383.850894 144.112911 
L 372.282642 148.809779 
L 369.591427 149.994632 
L 367.270216 150.86893 
L 364.815575 151.717638 
L 357.088706 154.754395 
L 351.814462 156.068048 
L 344.520623 158.885137 
L 341.666993 159.937812 
L 336.740199 161.89705 
L 335.509354 162.825072 
L 335.046289 163.430007 
L 334.955139 164.08805 
L 334.882136 164.638785 
L 333.91576 167.941914 
L 333.717839 168.864368 
L 333.279603 169.788274 
L 333.247106 170.459603 
L 333.087414 171.085372 
L 332.679865 171.653725 
L 329.961587 174.172222 
L 328.695236 175.28036 
L 327.18942 177.017776 
L 324.970701 180.033676 
L 324.758931 180.504193 
L 324.706979 181.431255 
L 324.713167 181.855412 
L 325.096753 182.809874 
L 325.653146 183.956276 
L 326.317911 185.236695 
L 327.309989 187.152713 
L 327.60656 188.479476 
L 327.912528 191.080391 
L 327.882277 193.447256 
L 327.750131 195.167508 
L 327.95332 196.870625 
L 327.904023 198.081361 
L 327.695105 200.571236 
L 327.773772 201.207244 
L 329.276877 205.190483 
L 330.495872 207.310296 
L 331.473575 209.229032 
L 331.760397 210.258476 
L 331.933795 211.295046 
L 332.059397 212.438455 
L 331.942911 215.73565 
L 331.931709 217.355277 
L 332.29197 218.861842 
L 332.592952 219.934378 
L 332.832681 220.988926 
L 333.408963 222.694136 
L 333.782381 223.888621 
L 334.365691 225.126891 
L 335.227345 226.351823 
L 335.714288 226.94529 
L 339.186261 230.263933 
L 340.627802 231.69441 
L 343.998812 234.342748 
L 347.039881 237.1709 
L 350.57066 240.14008 
L 353.204731 241.809687 
L 354.965821 242.899039 
L 358.431731 244.968269 
L 361.271087 246.614015 
L 363.421962 247.782177 
L 372.590931 252.328384 
L 377.688688 254.381969 
L 379.857364 255.321136 
L 379.857364 255.321136 
" clip-path="url(#pe6fe6524bb)" style="fill: none; stroke: #1f77b4; stroke-width: 1.5; stroke-linecap: square"/>
   </g>
   <g id="patch_3">
    <path d="M 107.5475 266.245 
L 107.5475 25.92 
" style="fill: none; stroke: #000000; stroke-width: 0.8; stroke-linejoin: miter; stroke-linecap: square"/>
   </g>
   <g id="patch_4">
    <path d="M 434.88 266.245 
L 434.88 25.92 
" style="fill: none; stroke: #000000; stroke-width: 0.8; stroke-linejoin: miter; stroke-linecap: square"/>
   </g>
   <g id="patch_5">
    <path d="M 107.5475 266.245 
L 434.88 266.245 
" style="fill: none; stroke: #000000; stroke-width: 0.8; stroke-linejoin: miter; stroke-linecap: square"/>
   </g>
   <g id="patch_6">
    <path d="M 107.5475 25.92 
L 434.88 25.92 
" style="fill: none; stroke: #000000; stroke-width: 0.8; stroke-linejoin: miter; stroke-linecap: square"/>
   </g>
  </g>
 </g>
 <defs>
  <clipPath id="pe6fe6524bb">
   <rect x="107.5475" y="25.92" width="327.3325" height="240.325"/>
  </clipPath>
 </defs>
</svg>
