<?xml version="1.0" encoding="utf-8" standalone="no"?>
<!DOCTYPE svg PUBLIC "-//W3C//DTD SVG 1.1//EN"
  "http://www.w3.org/Graphics/SVG/1.1/DTD/svg11.dtd">
<svg xmlns:xlink="http://www.w3.org/1999/xlink" width="460.8pt" height="345.6pt" viewBox="0 0 460.8 345.6" xmlns="http://www.w3.org/2000/svg" version="1.1">
 <metadata>
  <rdf:RDF xmlns:dc="http://purl.org/dc/elements/1.1/" xmlns:cc="http://creativecommons.org/ns#" xmlns:rdf="http://www.w3.org/1999/02/22-rdf-syntax-ns#">
   <cc:Work>
    <dc:type rdf:resource="http://purl.org/dc/dcmitype/StillImage"/>
    <dc:date>2026-01-29T08:00:32.593947</dc:date>
    <dc:format>image/svg+xml</dc:format>
    <dc:creator>
     <cc:Agent>
      <dc:title>Matplotlib v3.10.8, https://matplotlib.org/</dc:title>
     </cc:Agent>
    </dc:creator>
   </cc:Work>
  </rdf:RDF>
 </metadata>
 <defs>
  <style type="text/css">*{stroke-linejoin: round; stroke-linecap: butt}</style>
 </defs>
 <g id="figure_1">
  <g id="patch_1">
   <path d="M 0 345.6 
L 460.8 345.6 
L 460.8 0 
L 0 0 
z
" style="fill: #ffffff"/>
  </g>
  <g id="axes_1">
   <g id="patch_2">
    <path d="M 107.5475 266.245 
L 434.88 266.245 
L 434.88 25.92 
L 107.5475 25.92 
z
" style="fill: #ffffff"/>
   </g>
   <g id="matplotlib.axis_1">
    <g id="xtick_1">
     <g id="line2d_1">
      <path d="M 108.575294 266.245 
L 108.575294 25.92 
" clip-path="url(#p9b31e8e2c4)" style="fill: none; stroke: #b0b0b0; stroke-width: 0.8; stroke-linecap: square"/>
     </g>
     <g id="line2d_2">
      <defs>
       <path id="m910316d246" d="M 0 0 
L 0 3.5 
" style="stroke: #000000; stroke-width: 0.8"/>
      </defs>
      <g>
       <use xlink:href="#m910316d246" x="108.575294" y="266.245" style="stroke: #000000; stroke-width: 0.8"/>
      </g>
     </g>
     <g id="text_1">
      <!-- −50 -->
      <g transform="translate(89.806544 289.63625) scale(0.24 -0.24)">
       <defs>
        <path id="TeXGyreTermes-Regular-2212" d="M 3354 1389 
L 3354 1811 
L 256 1811 
L 256 1389 
L 3354 1389 
z
" transform="scale(0.015625)"/>
        <path id="TeXGyreTermes-Regular-35" d="M 2803 4358 
L 2746 4403 
C 2650 4269 2586 4237 2451 4237 
L 1114 4237 
L 416 2720 
C 410 2707 410 2688 410 2688 
C 410 2656 435 2637 486 2637 
C 691 2637 947 2592 1210 2509 
C 1946 2272 2285 1875 2285 1242 
C 2285 627 1894 147 1395 147 
C 1267 147 1158 192 966 333 
C 762 480 614 544 480 544 
C 294 544 205 467 205 307 
C 205 64 506 -90 986 -90 
C 1523 -90 1984 83 2304 410 
C 2598 698 2733 1062 2733 1549 
C 2733 2010 2611 2304 2291 2624 
C 2010 2906 1645 3053 890 3187 
L 1158 3731 
L 2413 3731 
C 2515 3731 2541 3744 2560 3789 
L 2803 4358 
z
" transform="scale(0.015625)"/>
        <path id="TeXGyreTermes-Regular-30" d="M 3046 2112 
C 3046 3424 2464 4326 1626 4326 
C 1274 4326 1005 4218 768 3994 
C 397 3635 154 2899 154 2150 
C 154 1453 365 704 666 346 
C 902 64 1229 -90 1600 -90 
C 1926 -90 2202 19 2432 243 
C 2803 595 3046 1338 3046 2112 
z
M 2432 2099 
C 2432 762 2150 77 1600 77 
C 1050 77 768 762 768 2093 
C 768 3450 1056 4160 1606 4160 
C 2144 4160 2432 3437 2432 2099 
z
" transform="scale(0.015625)"/>
       </defs>
       <use xlink:href="#TeXGyreTermes-Regular-2212"/>
       <use xlink:href="#TeXGyreTermes-Regular-35" transform="translate(56.399994 0)"/>
       <use xlink:href="#TeXGyreTermes-Regular-30" transform="translate(106.399979 0)"/>
      </g>
     </g>
    </g>
    <g id="xtick_2">
     <g id="line2d_3">
      <path d="M 193.162601 266.245 
L 193.162601 25.92 
" clip-path="url(#p9b31e8e2c4)" style="fill: none; stroke: #b0b0b0; stroke-width: 0.8; stroke-linecap: square"/>
     </g>
     <g id="line2d_4">
      <g>
       <use xlink:href="#m910316d246" x="193.162601" y="266.245" style="stroke: #000000; stroke-width: 0.8"/>
      </g>
     </g>
     <g id="text_2">
      <!-- −25 -->
      <g transform="translate(174.393851 289.63625) scale(0.24 -0.24)">
       <defs>
        <path id="TeXGyreTermes-Regular-32" d="M 3040 877 
L 2957 909 
C 2720 544 2637 486 2349 486 
L 819 486 
L 1894 1613 
C 2464 2208 2714 2694 2714 3194 
C 2714 3834 2195 4326 1530 4326 
C 1178 4326 845 4186 608 3930 
C 403 3712 307 3507 198 3053 
L 333 3021 
C 589 3648 819 3853 1261 3853 
C 1798 3853 2163 3488 2163 2950 
C 2163 2451 1869 1856 1331 1286 
L 192 77 
L 192 0 
L 2688 0 
L 3040 877 
z
" transform="scale(0.015625)"/>
       </defs>
       <use xlink:href="#TeXGyreTermes-Regular-2212"/>
       <use xlink:href="#TeXGyreTermes-Regular-32" transform="translate(56.399994 0)"/>
       <use xlink:href="#TeXGyreTermes-Regular-35" transform="translate(106.399979 0)"/>
      </g>
     </g>
    </g>
    <g id="xtick_3">
     <g id="line2d_5">
      <path d="M 277.749908 266.245 
L 277.749908 25.92 
" clip-path="url(#p9b31e8e2c4)" style="fill: none; stroke: #b0b0b0; stroke-width: 0.8; stroke-linecap: square"/>
     </g>
     <g id="line2d_6">
      <g>
       <use xlink:href="#m910316d246" x="277.749908" y="266.245" style="stroke: #000000; stroke-width: 0.8"/>
      </g>
     </g>
     <g id="text_3">
      <!-- 0 -->
      <g transform="translate(271.749908 289.63625) scale(0.24 -0.24)">
       <use xlink:href="#TeXGyreTermes-Regular-30"/>
      </g>
     </g>
    </g>
    <g id="xtick_4">
     <g id="line2d_7">
      <path d="M 362.337216 266.245 
L 362.337216 25.92 
" clip-path="url(#p9b31e8e2c4)" style="fill: none; stroke: #b0b0b0; stroke-width: 0.8; stroke-linecap: square"/>
     </g>
     <g id="line2d_8">
      <g>
       <use xlink:href="#m910316d246" x="362.337216" y="266.245" style="stroke: #000000; stroke-width: 0.8"/>
      </g>
     </g>
     <g id="text_4">
      <!-- 25 -->
      <g transform="translate(350.337216 289.63625) scale(0.24 -0.24)">
       <use xlink:href="#TeXGyreTermes-Regular-32"/>
       <use xlink:href="#TeXGyreTermes-Regular-35" transform="translate(49.999985 0)"/>
      </g>
     </g>
    </g>
    <g id="text_5">
     <!-- x -->
     <g transform="translate(265.21375 315.23625) scale(0.24 -0.24)">
      <defs>
       <path id="TeXGyreTermes-Regular-78" d="M 3066 0 
L 3066 96 
C 2867 96 2739 198 2541 480 
L 1722 1734 
L 2253 2502 
C 2374 2675 2566 2778 2771 2784 
L 2771 2880 
L 1760 2880 
L 1760 2784 
C 1952 2771 2016 2733 2016 2643 
C 2016 2566 1939 2426 1779 2227 
C 1747 2189 1670 2074 1587 1946 
L 1498 2074 
C 1318 2342 1203 2560 1203 2643 
C 1203 2733 1286 2778 1478 2784 
L 1478 2880 
L 154 2880 
L 154 2784 
L 211 2784 
C 403 2784 506 2701 704 2400 
L 1306 1478 
L 576 422 
C 384 160 320 115 109 96 
L 109 0 
L 1037 0 
L 1037 96 
C 858 96 781 128 781 211 
C 781 250 826 346 909 474 
L 1414 1261 
L 1997 365 
C 2022 326 2035 288 2035 250 
C 2035 134 1990 109 1779 96 
L 1779 0 
L 3066 0 
z
" transform="scale(0.015625)"/>
      </defs>
      <use xlink:href="#TeXGyreTermes-Regular-78"/>
     </g>
    </g>
   </g>
   <g id="matplotlib.axis_2">
    <g id="ytick_1">
     <g id="line2d_9">
      <path d="M 107.5475 228.381642 
L 434.88 228.381642 
" clip-path="url(#p9b31e8e2c4)" style="fill: none; stroke: #b0b0b0; stroke-width: 0.8; stroke-linecap: square"/>
     </g>
     <g id="line2d_10">
      <defs>
       <path id="maa13c9a917" d="M 0 0 
L -3.5 0 
" style="stroke: #000000; stroke-width: 0.8"/>
      </defs>
      <g>
       <use xlink:href="#maa13c9a917" x="107.5475" y="228.381642" style="stroke: #000000; stroke-width: 0.8"/>
      </g>
     </g>
     <g id="text_6">
      <!-- −200 -->
      <g transform="translate(51.01 236.577267) scale(0.24 -0.24)">
       <use xlink:href="#TeXGyreTermes-Regular-2212"/>
       <use xlink:href="#TeXGyreTermes-Regular-32" transform="translate(56.399994 0)"/>
       <use xlink:href="#TeXGyreTermes-Regular-30" transform="translate(106.399979 0)"/>
       <use xlink:href="#TeXGyreTermes-Regular-30" transform="translate(156.399963 0)"/>
      </g>
     </g>
    </g>
    <g id="ytick_2">
     <g id="line2d_11">
      <path d="M 107.5475 151.911183 
L 434.88 151.911183 
" clip-path="url(#p9b31e8e2c4)" style="fill: none; stroke: #b0b0b0; stroke-width: 0.8; stroke-linecap: square"/>
     </g>
     <g id="line2d_12">
      <g>
       <use xlink:href="#maa13c9a917" x="107.5475" y="151.911183" style="stroke: #000000; stroke-width: 0.8"/>
      </g>
     </g>
     <g id="text_7">
      <!-- −100 -->
      <g transform="translate(51.01 160.106808) scale(0.24 -0.24)">
       <defs>
        <path id="TeXGyreTermes-Regular-31" d="M 2522 0 
L 2522 96 
C 2016 102 1914 166 1914 474 
L 1914 4314 
L 1862 4326 
L 710 3744 
L 710 3654 
C 787 3686 858 3712 883 3725 
C 998 3770 1107 3795 1171 3795 
C 1306 3795 1363 3699 1363 3494 
L 1363 595 
C 1363 384 1312 237 1210 179 
C 1114 122 1024 102 755 96 
L 755 0 
L 2522 0 
z
" transform="scale(0.015625)"/>
       </defs>
       <use xlink:href="#TeXGyreTermes-Regular-2212"/>
       <use xlink:href="#TeXGyreTermes-Regular-31" transform="translate(56.399994 0)"/>
       <use xlink:href="#TeXGyreTermes-Regular-30" transform="translate(106.399979 0)"/>
       <use xlink:href="#TeXGyreTermes-Regular-30" transform="translate(156.399963 0)"/>
      </g>
     </g>
    </g>
    <g id="ytick_3">
     <g id="line2d_13">
      <path d="M 107.5475 75.440724 
L 434.88 75.440724 
" clip-path="url(#p9b31e8e2c4)" style="fill: none; stroke: #b0b0b0; stroke-width: 0.8; stroke-linecap: square"/>
     </g>
     <g id="line2d_14">
      <g>
       <use xlink:href="#maa13c9a917" x="107.5475" y="75.440724" style="stroke: #000000; stroke-width: 0.8"/>
      </g>
     </g>
     <g id="text_8">
      <!-- 0 -->
      <g transform="translate(88.5475 83.636349) scale(0.24 -0.24)">
       <use xlink:href="#TeXGyreTermes-Regular-30"/>
      </g>
     </g>
    </g>
    <g id="text_9">
     <!-- y -->
     <g transform="translate(41.77875 152.0825) rotate(-90) scale(0.24 -0.24)">
      <defs>
       <path id="TeXGyreTermes-Regular-79" d="M 3040 2784 
L 3040 2880 
L 2176 2880 
L 2176 2784 
C 2381 2784 2483 2726 2483 2624 
C 2483 2598 2477 2560 2458 2515 
L 1837 749 
L 1101 2368 
C 1062 2458 1037 2541 1037 2611 
C 1037 2726 1133 2771 1408 2784 
L 1408 2880 
L 90 2880 
L 90 2790 
C 256 2765 365 2694 416 2586 
L 1472 358 
C 1517 250 1542 173 1542 122 
C 1542 26 1395 -378 1286 -570 
C 1197 -736 1056 -858 966 -858 
C 928 -858 870 -845 806 -813 
C 685 -768 576 -742 467 -742 
C 320 -742 192 -870 192 -1024 
C 192 -1235 397 -1395 666 -1395 
C 1094 -1395 1402 -1037 1747 -115 
L 2733 2496 
C 2816 2701 2886 2765 3040 2784 
z
" transform="scale(0.015625)"/>
      </defs>
      <use xlink:href="#TeXGyreTermes-Regular-79"/>
     </g>
    </g>
   </g>
   <g id="line2d_15">
    <path d="M 277.749908 75.440724 
L 283.584322 75.872352 
L 282.889392 75.157478 
L 283.778732 74.649858 
L 285.656579 74.606046 
L 288.506888 74.235083 
L 293.197519 73.200783 
L 298.967883 72.247685 
L 294.992291 71.107574 
L 293.103012 70.684352 
L 294.028201 71.020468 
L 294.078249 70.713095 
L 293.193642 69.691254 
L 292.583018 69.670607 
L 299.825156 69.403987 
L 299.69321 68.234495 
L 301.5733 67.496319 
L 308.778824 66.242193 
L 315.304079 64.891636 
L 317.918103 65.009191 
L 321.013706 64.146119 
L 320.517993 63.344642 
L 326.123562 64.075344 
L 321.376648 64.211945 
L 325.553292 65.32589 
L 328.068384 65.421042 
L 335.279618 65.338064 
L 336.59251 64.606418 
L 339.548979 63.834601 
L 344.20586 63.203122 
L 350.082789 63.82845 
L 352.663868 64.353209 
L 354.3584 62.30421 
L 359.065074 61.24245 
L 357.331072 61.835327 
L 353.234104 60.22164 
L 350.975735 61.487382 
L 353.137242 61.652291 
L 353.924982 62.200385 
L 358.640432 62.448629 
L 363.169044 62.140982 
L 361.370465 62.194089 
L 359.851661 62.027297 
L 365.134731 62.899782 
L 365.362661 63.879554 
L 370.795232 63.487655 
L 373.888653 63.790725 
L 373.220435 63.360495 
L 375.692194 64.098701 
L 380.466662 64.335931 
L 378.96995 63.326591 
L 381.40157 63.304968 
L 381.72494 63.142526 
L 375.521917 61.689033 
L 372.13749 60.369053 
L 374.739528 59.494382 
L 381.160802 59.352279 
L 391.009583 58.621385 
L 390.510125 59.112246 
L 387.484239 58.311338 
L 388.032249 57.607937 
L 390.664319 58.010502 
L 388.643264 57.895399 
L 390.320068 58.794683 
L 386.505245 58.131844 
L 385.245106 59.239859 
L 385.890264 59.984059 
L 386.712 60.564807 
L 379.685921 61.119439 
L 374.038129 61.415571 
L 376.071643 61.492876 
L 374.842034 62.140123 
L 375.520298 62.07297 
L 377.012615 62.143739 
L 378.567187 64.93923 
L 382.189716 65.73928 
L 380.100706 66.567222 
L 380.103084 66.098648 
L 384.791724 66.814233 
L 397.649247 67.404939 
L 395.422669 66.556678 
L 398.114623 66.354086 
L 392.523861 67.218061 
L 387.89268 67.085841 
L 386.729888 66.707586 
L 388.76221 67.61701 
L 382.750574 68.412493 
L 389.766983 69.187493 
L 394.999955 68.142842 
L 396.454132 69.151604 
L 397.837669 71.317084 
L 397.888631 72.505249 
L 397.636906 72.396686 
L 404.981517 73.656301 
L 405.779714 73.283253 
L 409.788213 73.167932 
L 410.658998 73.623728 
L 408.183508 73.168121 
L 406.522206 73.090787 
L 408.584331 73.784709 
L 412.309699 73.963358 
L 411.820453 74.180256 
L 413.908147 73.577476 
L 410.679426 74.023223 
L 407.131292 74.767675 
L 405.811744 76.32845 
L 406.811662 76.617277 
L 406.935332 75.922162 
L 406.146976 75.126764 
L 405.843388 74.638637 
L 407.425909 75.108951 
L 410.190656 75.759813 
L 417.129321 75.026443 
L 420.00125 75.437044 
L 418.249177 75.279059 
L 416.799231 75.618256 
L 411.499096 75.115678 
L 406.002527 75.190272 
L 398.236463 74.976071 
L 387.916321 74.880643 
L 386.569661 75.551802 
L 385.093881 75.199719 
L 384.759366 73.516517 
L 384.456304 72.952271 
L 385.587592 72.469742 
L 384.377616 72.498333 
L 386.396132 72.337166 
L 384.054967 73.203635 
L 384.053563 73.722262 
L 379.416826 74.792488 
L 379.634906 75.259917 
L 381.744653 74.81732 
L 382.00395 75.436027 
L 381.681476 74.426252 
L 381.143578 74.68512 
L 376.619766 74.34678 
L 374.704817 74.811818 
L 373.16505 74.617414 
L 374.325345 74.161884 
L 369.370348 74.540941 
L 374.496623 74.676864 
L 376.411008 75.193013 
L 377.561796 75.029524 
L 379.858141 75.753868 
L 383.069613 76.421841 
L 383.367017 76.116196 
L 381.850151 75.586472 
L 381.425022 75.624136 
L 379.373175 75.208582 
L 375.801922 74.665315 
L 372.590455 74.692711 
L 372.111382 75.707839 
L 376.456192 75.345244 
L 377.768475 75.121093 
L 376.621547 74.088242 
L 379.049478 73.622001 
L 377.660618 74.391173 
L 379.260894 73.21469 
L 377.506479 72.354454 
L 374.896925 72.466307 
L 374.305994 72.011549 
L 374.482539 71.84742 
L 373.051207 71.638253 
L 366.172353 70.497506 
L 360.664846 69.744462 
L 356.873285 68.927842 
L 357.663298 69.098373 
L 354.919364 69.592943 
L 350.460889 68.860617 
L 348.726083 69.834472 
L 346.233228 70.618016 
L 343.547205 70.309483 
L 339.243479 70.153624 
L 341.030862 69.349029 
L 338.766447 67.724227 
L 339.57951 68.150487 
L 340.427919 66.615374 
L 336.307035 66.032699 
L 333.905025 65.840604 
L 334.276647 64.904448 
L 332.830836 64.942631 
L 328.168591 64.490656 
L 322.846122 64.831111 
L 324.753896 66.365814 
L 325.21782 66.11035 
L 328.341552 66.752009 
L 327.867629 67.888912 
L 329.246355 67.734203 
L 323.663255 68.712948 
L 321.993604 69.184004 
L 317.990726 68.136498 
L 312.860588 67.156079 
L 307.555488 66.296756 
L 302.557625 65.614547 
L 305.488514 66.241581 
L 306.682827 66.114871 
L 305.596329 65.377437 
L 301.730095 65.410181 
L 299.234454 65.782609 
L 296.148756 67.175334 
L 290.837032 67.796584 
L 289.308191 67.145018 
L 285.006914 68.027999 
L 283.649912 67.212418 
L 282.871457 66.374564 
L 286.242898 65.65573 
L 291.431322 65.116326 
L 293.812567 64.617194 
L 289.395732 64.313844 
L 287.184747 65.083261 
L 279.395701 66.790368 
L 275.550865 66.137387 
L 271.576268 66.377972 
L 270.337548 66.328931 
L 274.264401 66.826309 
L 272.477167 66.965417 
L 273.5708 67.096416 
L 277.524723 67.075791 
L 275.338256 67.446043 
L 271.777682 67.74017 
L 274.29958 67.609802 
L 276.139063 67.746397 
L 275.830118 65.513308 
L 271.997435 64.891803 
L 269.831737 63.880338 
L 268.214368 63.744749 
L 260.963486 64.633034 
L 261.810007 63.931643 
L 262.522182 63.94499 
L 265.646748 64.313462 
L 263.141294 63.09796 
L 257.762148 62.425465 
L 257.526937 60.81725 
L 256.91267 60.278971 
L 250.947873 58.755255 
L 252.029998 57.606636 
L 249.713169 56.769681 
L 244.554447 55.852463 
L 243.222376 54.798822 
L 237.91708 52.674449 
L 239.74396 52.778385 
L 238.490955 51.503674 
L 240.775945 50.67526 
L 243.787165 48.689237 
L 247.438407 47.192857 
L 249.641603 45.40826 
L 247.940282 45.559067 
L 245.188797 44.793242 
L 243.434111 45.440513 
L 240.847565 44.286128 
L 236.630428 44.789436 
L 234.345101 44.206362 
L 233.197129 43.565763 
L 229.904797 44.79628 
L 221.360291 45.059146 
L 214.370173 45.550959 
L 207.102068 46.656078 
L 205.02136 47.360951 
L 204.874963 48.769338 
L 202.579492 48.703481 
L 201.017656 48.831399 
L 200.795744 48.986316 
L 202.481145 49.519487 
L 201.72471 49.31456 
L 200.720644 49.639221 
L 201.630831 50.464567 
L 203.313719 51.61707 
L 202.392602 53.355668 
L 204.734388 54.366843 
L 206.205805 53.881253 
L 205.868247 53.294624 
L 202.997415 54.132961 
L 199.478752 53.255127 
L 194.12445 52.920718 
L 193.222821 52.201388 
L 191.732724 51.155369 
L 193.477584 49.928054 
L 196.553023 50.029918 
L 197.480145 49.60201 
L 192.615352 47.346516 
L 193.320662 45.426365 
L 189.134721 44.816433 
L 185.182806 45.197328 
L 185.896192 44.385847 
L 190.270637 44.417564 
L 190.531551 43.675873 
L 189.267216 43.522229 
L 186.301381 43.454548 
L 188.072977 43.984357 
L 187.093492 43.625186 
L 185.408285 42.765169 
L 189.014241 41.488421 
L 187.677572 40.981803 
L 191.151658 40.994161 
L 191.393465 40.068829 
L 186.27578 39.871181 
L 185.551045 40.122562 
L 184.889768 40.016908 
L 192.031613 39.154793 
L 197.410446 37.422276 
L 202.089615 36.843864 
L 213.817407 38.239892 
L 221.487254 38.239528 
L 223.36552 38.689816 
L 230.516326 39.319938 
L 234.157223 39.484893 
L 232.807826 40.277892 
L 233.846737 41.134567 
L 233.151521 42.546524 
L 227.589497 43.699054 
L 226.042291 44.528094 
L 225.187224 43.174451 
L 222.973185 42.052559 
L 223.051807 41.819112 
L 222.29786 40.295021 
L 216.754396 40.181017 
L 210.206049 40.524742 
L 209.798262 39.836489 
L 209.805767 40.203779 
L 208.073343 40.593462 
L 206.16099 40.398397 
L 200.827345 40.742654 
L 201.967263 41.355745 
L 195.435121 41.979783 
L 192.012435 41.409881 
L 192.015812 41.575033 
L 191.529815 41.140218 
L 184.848667 41.315714 
L 184.296828 41.825579 
L 188.78931 41.938477 
L 187.162778 42.602493 
L 187.912134 43.97945 
L 185.434287 44.078634 
L 182.770672 43.507737 
L 177.259379 44.007658 
L 176.924839 43.847422 
L 176.120821 44.62957 
L 166.086929 48.410534 
L 163.39605 48.989343 
L 161.213018 49.013533 
L 157.06946 48.35448 
L 154.996997 48.902359 
L 148.190348 48.385019 
L 145.883368 48.677454 
L 144.228875 49.66606 
L 142.223395 49.936493 
L 143.313955 50.263813 
L 139.03197 50.181204 
L 138.208785 49.683777 
L 136.37239 49.371486 
L 135.030695 48.789337 
L 133.937579 48.885288 
L 135.429023 49.896482 
L 132.743129 49.120509 
L 132.488518 48.152684 
L 132.20444 48.814311 
L 127.690241 49.121805 
L 127.482773 49.712085 
L 132.056594 49.467187 
L 131.681028 49.673192 
L 137.635694 49.22106 
L 132.582261 48.341975 
L 130.490005 49.353765 
L 129.795483 49.488718 
L 126.496522 49.448536 
L 122.42625 50.204116 
L 128.318467 50.578748 
L 127.489534 50.694125 
L 138.176247 52.004814 
L 144.515682 53.318314 
L 147.094812 54.617907 
L 149.540354 53.530889 
L 157.396835 54.12894 
L 156.300208 55.230582 
L 155.809339 57.219142 
L 157.913454 57.522355 
L 159.322254 56.285813 
L 165.025005 56.650597 
L 164.546814 57.365316 
L 159.357115 58.257136 
L 158.311528 59.551818 
L 160.416487 59.843654 
L 154.891392 60.13624 
L 155.124395 61.583716 
L 155.853495 62.911202 
L 155.876979 64.249344 
L 154.933619 65.043593 
L 155.660817 65.535622 
L 150.931089 66.608501 
L 145.801406 67.379833 
L 146.145235 69.288162 
L 145.332897 69.927715 
L 147.119233 70.154934 
L 145.864009 70.322229 
L 148.027317 71.884842 
L 147.850675 72.754142 
L 151.776413 73.26898 
L 154.60533 74.673799 
L 152.686353 75.618343 
L 153.748098 77.767282 
L 158.771385 79.165494 
L 156.698505 80.762518 
L 158.199971 82.698404 
L 156.083252 84.775662 
L 157.533932 86.178749 
L 157.750458 86.161066 
L 157.695228 87.033236 
L 155.591117 88.819151 
L 152.711223 90.227338 
L 154.816752 92.153764 
L 157.836336 92.767431 
L 155.903597 93.894447 
L 153.481579 95.908228 
L 153.217674 97.286965 
L 156.576684 97.885896 
L 157.705528 97.778666 
L 157.25217 98.855385 
L 151.471839 100.360141 
L 145.420517 101.011682 
L 147.783317 101.658021 
L 150.296394 101.244675 
L 150.078457 102.490333 
L 149.060013 104.990909 
L 152.411418 106.447364 
L 148.298627 107.266794 
L 146.391735 107.960205 
L 147.683404 109.087023 
L 150.140517 110.169505 
L 156.612138 110.592339 
L 164.915835 112.245861 
L 166.631997 114.593619 
L 171.312602 116.430092 
L 176.714179 116.65075 
L 183.397393 118.122171 
L 188.389695 117.782743 
L 192.381032 118.413751 
L 192.386475 119.93755 
L 190.041991 120.355131 
L 193.800273 121.72425 
L 196.270085 122.884743 
L 193.370764 124.449004 
L 195.121108 125.590747 
L 195.70455 126.500554 
L 204.826166 127.391952 
L 208.747118 129.334566 
L 205.492861 131.307993 
L 204.318446 131.319409 
L 208.343934 131.833947 
L 217.031027 131.700642 
L 216.252778 131.672074 
L 212.940124 134.11522 
L 212.432352 135.266159 
L 213.280649 136.680874 
L 214.081056 137.584214 
L 215.104852 139.458655 
L 215.239844 140.017736 
L 216.239054 139.75538 
L 216.751909 139.111192 
L 212.245302 139.592871 
L 215.007783 140.769099 
L 219.129285 142.130987 
L 223.573452 142.642205 
L 224.136342 143.156399 
L 225.292809 144.816219 
L 226.995461 145.573833 
L 224.418405 145.555306 
L 226.810326 146.478746 
L 231.905249 147.988258 
L 238.582486 150.176798 
L 243.126726 151.018953 
L 248.050976 151.673272 
L 247.557926 151.842945 
L 247.076315 152.986678 
L 246.426164 151.730218 
L 246.713682 152.370197 
L 253.890742 153.623333 
L 249.820537 154.330228 
L 249.039614 154.802976 
L 246.77056 155.46087 
L 250.494353 157.384996 
L 250.749249 158.952391 
L 258.271007 160.223684 
L 259.099362 160.973384 
L 258.956479 161.36656 
L 261.812804 162.417461 
L 264.531952 163.080787 
L 257.311257 162.864714 
L 251.370304 162.963493 
L 249.5625 164.450258 
L 247.409432 165.089948 
L 249.870737 164.558629 
L 247.128544 165.295312 
L 247.998652 167.07017 
L 245.301207 167.743527 
L 243.399476 168.623106 
L 243.586567 168.66231 
L 241.488857 168.851487 
L 234.61478 169.763876 
L 234.700233 169.781638 
L 235.021378 169.378565 
L 235.549597 169.114831 
L 236.822308 168.680923 
L 232.574845 169.457196 
L 234.144975 169.941154 
L 235.2457 170.533517 
L 240.009938 171.88598 
L 242.612703 173.307298 
L 241.124671 174.424136 
L 237.339092 174.8979 
L 242.792513 174.808675 
L 245.140413 175.46464 
L 247.475389 175.828297 
L 242.976846 177.449302 
L 244.629852 176.993371 
L 248.712749 176.280805 
L 249.556665 175.639708 
L 254.380411 176.064259 
L 249.390318 176.009119 
L 244.750491 176.767467 
L 246.70262 177.763994 
L 243.482573 176.449803 
L 246.676822 177.555514 
L 253.031307 178.200379 
L 259.377632 178.992412 
L 260.478084 179.31409 
L 258.431356 179.664973 
L 256.243515 178.997198 
L 258.072546 179.54656 
L 262.072922 179.334645 
L 262.032061 178.746148 
L 276.674408 178.222809 
L 276.528543 179.098044 
L 273.432356 179.296588 
L 273.510095 179.398028 
L 282.653714 179.608273 
L 288.477386 179.31014 
L 288.049015 179.878872 
L 283.895112 180.201822 
L 286.843812 180.379272 
L 284.371288 181.856193 
L 290.681178 182.991549 
L 295.009741 185.155831 
L 298.30173 186.188343 
L 298.116203 186.562838 
L 295.456665 187.425086 
L 294.618272 188.468994 
L 293.766092 189.12025 
L 298.314105 189.201876 
L 299.342371 190.015366 
L 300.679279 190.285356 
L 299.493497 191.462737 
L 296.706398 192.51682 
L 288.522274 193.741373 
L 285.083126 194.736326 
L 284.30689 195.820676 
L 278.282095 196.759118 
L 273.883886 196.665234 
L 266.082398 196.079679 
L 264.585534 197.620625 
L 256.883472 198.978659 
L 252.357254 200.103353 
L 250.087928 200.381755 
L 247.49696 201.467637 
L 241.024996 203.0524 
L 234.870826 203.571063 
L 239.588591 203.9952 
L 243.378282 204.744573 
L 249.103559 206.0232 
L 249.529583 206.555765 
L 249.658964 207.048253 
L 246.757169 207.155536 
L 245.940903 207.8721 
L 251.377258 207.922399 
L 249.052113 206.929428 
L 252.520301 205.623648 
L 255.870949 205.234585 
L 260.666132 204.155536 
L 266.042548 203.857344 
L 265.437325 203.732167 
L 265.584407 202.154366 
L 269.65966 202.517468 
L 270.415633 201.636657 
L 272.2811 201.07561 
L 277.19789 201.531824 
L 281.106444 200.467115 
L 286.189883 199.706748 
L 289.267265 199.831615 
L 285.284578 200.663977 
L 285.53006 200.562383 
L 282.22074 201.046564 
L 282.96103 200.333487 
L 280.183713 201.47462 
L 276.449345 202.418534 
L 275.612521 201.772696 
L 276.560065 201.597413 
L 279.59238 201.971568 
L 281.815787 202.427571 
L 277.802123 203.390533 
L 279.59396 204.451191 
L 280.232755 204.472852 
L 282.952002 205.298892 
L 280.677119 205.558917 
L 282.917516 205.317244 
L 271.670333 206.276924 
L 268.974615 207.25558 
L 266.041916 207.272632 
L 264.320315 206.164236 
L 264.552322 206.131652 
L 265.529318 205.550568 
L 264.018009 205.997892 
L 265.119151 205.075352 
L 265.02823 204.188481 
L 267.609801 203.435927 
L 268.09126 203.727862 
L 265.713289 203.403201 
L 260.522148 203.041368 
L 259.913429 202.452415 
L 259.811942 203.685368 
L 260.552547 204.388015 
L 262.262189 205.714062 
L 261.060081 206.629621 
L 258.871026 207.018425 
L 259.376281 206.028423 
L 256.965001 205.680747 
L 258.199213 206.591304 
L 257.046679 207.108595 
L 254.863284 206.354849 
L 246.529781 206.622451 
L 245.219358 206.845938 
L 248.188483 207.119143 
L 250.518097 208.021853 
L 250.352585 208.896142 
L 250.551946 209.624217 
L 248.482628 211.365003 
L 251.099149 212.480978 
L 246.486787 214.842532 
L 245.038448 217.815265 
L 243.326563 219.293321 
L 237.713831 219.137815 
L 231.672202 220.138151 
L 231.800115 220.675237 
L 232.60186 221.601452 
L 235.26219 222.889781 
L 236.330247 223.704621 
L 237.547201 224.917936 
L 242.893989 225.378534 
L 242.18081 226.41085 
L 241.235721 227.561031 
L 243.158179 228.62427 
L 244.19546 229.937208 
L 246.579533 232.49589 
L 244.88428 233.830153 
L 237.794289 236.853401 
L 235.31149 237.715454 
L 235.414937 239.419502 
L 229.827128 240.059627 
L 233.605201 239.670782 
L 233.613076 239.45283 
L 235.654777 240.239017 
L 234.719973 241.474964 
L 232.994813 241.307555 
L 231.285038 242.441828 
L 227.534432 244.244011 
L 231.018142 246.371011 
L 230.998074 246.890646 
L 229.482821 247.245115 
L 228.687231 248.09309 
L 226.652219 248.652514 
L 227.365076 247.95292 
L 221.257141 248.252312 
L 216.62393 247.864561 
L 212.867935 246.958499 
L 214.046881 246.35839 
L 208.346539 246.010622 
L 206.11181 245.312545 
L 202.7332 245.082792 
L 203.666008 245.1911 
L 199.630905 245.512275 
L 200.283481 245.675631 
L 194.067687 246.369033 
L 188.660209 246.602939 
L 185.438 247.125256 
L 181.238244 246.213887 
L 177.746454 246.023139 
L 171.978417 245.848854 
L 170.195028 245.28492 
L 172.562082 245.855482 
L 175.789966 245.490706 
L 172.454681 245.967337 
L 171.437193 246.261843 
L 172.124705 245.732455 
L 173.638751 246.515106 
L 176.676199 246.884144 
L 177.479813 247.67252 
L 180.345074 248.313948 
L 180.464678 248.862072 
L 183.407696 249.615467 
L 184.16565 249.682331 
L 184.508597 249.867491 
L 183.707919 249.699887 
L 183.840276 249.681155 
L 183.014751 250.809289 
L 180.840804 249.958956 
L 172.299564 250.505112 
L 175.576843 251.088322 
L 173.860492 252.580032 
L 172.570774 252.506209 
L 170.814573 251.977258 
L 168.310957 252.135389 
L 167.691449 252.704346 
L 166.753725 253.831829 
L 165.015056 252.892762 
L 166.626249 253.442978 
L 168.229938 253.360486 
L 166.303096 254.79971 
L 168.193691 255.321136 
L 168.017797 253.973051 
L 167.461669 252.227515 
L 164.162841 251.534108 
L 158.139649 251.216537 
L 158.975604 251.522578 
L 159.308776 251.115261 
L 159.558314 249.899815 
L 158.023053 249.782297 
L 157.049414 248.928583 
L 161.078115 247.949241 
L 162.034326 246.911383 
L 158.812024 246.794577 
L 154.75287 247.073569 
L 151.894963 248.122498 
L 152.052655 247.916584 
L 144.254133 246.019919 
L 140.42768 245.215391 
L 132.985756 245.217789 
L 130.759412 245.501579 
L 130.901878 244.797375 
L 132.339793 245.176079 
L 132.408314 245.824636 
L 130.929665 244.826351 
L 129.94291 243.982511 
L 127.431735 244.546551 
L 128.834224 245.005232 
L 131.209171 244.294289 
L 130.914754 244.126018 
L 132.295472 245.892783 
L 135.538033 246.009511 
L 145.345646 246.551234 
L 148.482557 246.88001 
L 147.592927 246.808122 
L 144.420675 247.372876 
L 143.755774 247.890201 
L 139.82074 248.754077 
L 141.18639 249.274516 
L 144.463087 248.625795 
L 143.873785 248.957919 
L 152.003721 249.310178 
L 146.448411 249.522545 
L 145.542228 250.398563 
L 143.3131 250.526779 
L 144.849606 249.647993 
L 148.250101 247.966803 
L 148.766975 247.243552 
L 156.304731 246.881912 
L 156.561827 246.162244 
L 153.474263 245.185236 
L 157.476694 244.822332 
L 159.131464 243.903647 
L 162.284515 243.898972 
L 165.210211 241.868447 
L 170.479062 241.193436 
L 172.397796 241.909209 
L 176.237276 241.146516 
L 170.300133 240.52951 
L 170.825027 240.397763 
L 165.954264 238.845044 
L 161.897514 237.945084 
L 154.932586 237.383671 
L 149.569568 237.574746 
L 144.53778 237.200326 
L 146.69073 237.583782 
L 149.914231 237.727212 
L 154.442047 237.115302 
L 153.752643 235.706887 
L 156.318159 234.570448 
L 158.391951 232.047736 
L 159.626577 231.983829 
L 159.77654 232.59482 
L 166.608057 232.21614 
L 177.081972 231.854732 
L 176.806794 233.054709 
L 173.551381 232.486731 
L 168.727052 231.993801 
L 166.127982 230.672824 
L 172.478948 230.102839 
L 169.809619 231.198536 
L 174.632662 231.711352 
L 182.474784 232.208561 
L 183.503813 232.812303 
L 181.201729 233.312516 
L 179.157782 233.401065 
L 179.248244 232.435406 
L 182.041284 231.793085 
L 186.31567 231.176743 
L 188.052326 230.368015 
L 186.207145 229.499857 
L 184.052389 228.185821 
L 181.584767 228.073013 
L 183.496332 228.291729 
L 183.558767 227.792859 
L 178.491618 228.555296 
L 177.854364 228.465703 
L 172.849186 229.473403 
L 172.484255 230.248052 
L 167.657247 230.857932 
L 164.346396 230.443556 
L 166.588847 229.44801 
L 168.805529 230.272816 
L 166.860514 230.305062 
L 170.086208 230.486035 
L 172.526974 229.952264 
L 179.693988 228.661796 
L 184.482109 229.153603 
L 186.582581 228.515774 
L 186.741492 226.988457 
L 186.2271 226.261711 
L 181.351459 224.900843 
L 180.200844 224.788824 
L 180.952746 223.990142 
L 181.230278 224.563464 
L 188.262738 224.912132 
L 194.084563 226.234269 
L 196.331856 225.973586 
L 195.700448 224.62243 
L 197.469499 223.458899 
L 195.275569 222.556972 
L 191.36844 222.475943 
L 186.701203 222.213832 
L 187.501133 222.634341 
L 183.218611 223.137321 
L 187.836939 223.286425 
L 185.873352 222.461978 
L 179.957792 222.20157 
L 173.432697 222.670838 
L 172.673601 220.795632 
L 170.275854 220.22167 
L 167.194362 220.305888 
L 168.450281 219.286369 
L 169.670842 218.626357 
L 170.307941 218.020614 
L 171.540263 217.696305 
L 174.720666 217.465015 
L 169.880705 218.713139 
L 170.443267 218.24864 
L 164.202447 217.292254 
L 161.925359 216.102719 
L 156.369904 216.621207 
L 151.920062 216.568302 
L 151.547895 216.721239 
L 151.421099 215.971586 
L 149.195383 214.898254 
L 148.150632 214.914733 
L 153.138761 214.612124 
L 155.112456 214.851206 
L 158.910793 214.393477 
L 158.288842 213.918096 
L 155.294214 214.615789 
L 155.681245 214.694201 
L 159.705737 214.626672 
L 163.176182 214.237582 
L 168.130752 214.941532 
L 166.749999 216.124725 
L 171.428355 216.106821 
L 176.153847 215.398489 
L 179.650848 215.488577 
L 181.822246 215.671572 
L 183.257902 215.097856 
L 186.533316 214.343343 
L 190.069711 213.910729 
L 188.448346 213.937093 
L 187.749477 213.124255 
L 186.647712 211.281462 
L 186.195208 210.122705 
L 184.178855 208.780963 
L 184.294473 207.844563 
L 186.439925 206.74222 
L 184.562941 205.908161 
L 189.95581 205.847524 
L 195.918154 205.336383 
L 197.139849 204.28511 
L 200.004849 202.389205 
L 199.184644 201.467219 
L 198.836682 199.573491 
L 197.060504 198.625075 
L 192.196568 197.16463 
L 193.758115 195.586985 
L 191.667112 194.684724 
L 191.830392 195.169651 
L 191.190029 195.435495 
L 188.591585 194.439688 
L 184.094664 193.19192 
L 186.659559 192.477999 
L 187.426398 193.278559 
L 184.688006 193.47587 
L 184.955923 192.843752 
L 187.922573 191.298528 
L 186.100074 188.776016 
L 185.333187 187.216508 
L 182.658902 186.559239 
L 181.145282 185.871018 
L 175.899352 184.505923 
L 176.163274 183.992046 
L 175.269291 182.976594 
L 179.168116 182.212479 
L 175.971543 181.929481 
L 174.380004 181.14995 
L 174.423698 181.122552 
L 177.660601 180.510848 
L 186.971293 179.553111 
L 186.484937 179.711255 
L 187.542995 180.405007 
L 182.034856 180.738078 
L 181.837915 179.90069 
L 177.106739 179.787793 
L 176.206626 179.118229 
L 180.302356 178.339832 
L 184.872369 177.998566 
L 180.980613 177.338784 
L 184.845273 176.958518 
L 185.924019 176.366716 
L 187.878955 176.571124 
L 185.174479 176.783706 
L 177.235135 175.286213 
L 176.433036 174.828901 
L 179.313612 174.099883 
L 177.61262 173.455973 
L 180.033744 172.943657 
L 179.304182 173.725002 
L 174.346863 173.372298 
L 173.833299 172.256761 
L 174.414681 172.900997 
L 173.659457 172.098953 
L 172.827042 171.955895 
L 170.733419 171.175885 
L 169.990107 170.059087 
L 168.65845 171.827179 
L 172.307635 172.673575 
L 168.838516 172.120431 
L 168.838516 172.120431 
" clip-path="url(#p9b31e8e2c4)" style="fill: none; stroke: #1f77b4; stroke-width: 1.5; stroke-linecap: square"/>
   </g>
   <g id="patch_3">
    <path d="M 107.5475 266.245 
L 107.5475 25.92 
" style="fill: none; stroke: #000000; stroke-width: 0.8; stroke-linejoin: miter; stroke-linecap: square"/>
   </g>
   <g id="patch_4">
    <path d="M 434.88 266.245 
L 434.88 25.92 
" style="fill: none; stroke: #000000; stroke-width: 0.8; stroke-linejoin: miter; stroke-linecap: square"/>
   </g>
   <g id="patch_5">
    <path d="M 107.5475 266.245 
L 434.88 266.245 
" style="fill: none; stroke: #000000; stroke-width: 0.8; stroke-linejoin: miter; stroke-linecap: square"/>
   </g>
   <g id="patch_6">
    <path d="M 107.5475 25.92 
L 434.88 25.92 
" style="fill: none; stroke: #000000; stroke-width: 0.8; stroke-linejoin: miter; stroke-linecap: square"/>
   </g>
  </g>
 </g>
 <defs>
  <clipPath id="p9b31e8e2c4">
   <rect x="107.5475" y="25.92" width="327.3325" height="240.325"/>
  </clipPath>
 </defs>
</svg>
