<?xml version="1.0" encoding="utf-8" standalone="no"?>
<!DOCTYPE svg PUBLIC "-//W3C//DTD SVG 1.1//EN"
  "http://www.w3.org/Graphics/SVG/1.1/DTD/svg11.dtd">
<svg xmlns:xlink="http://www.w3.org/1999/xlink" width="460.8pt" height="345.6pt" viewBox="0 0 460.8 345.6" xmlns="http://www.w3.org/2000/svg" version="1.1">
 <metadata>
  <rdf:RDF xmlns:dc="http://purl.org/dc/elements/1.1/" xmlns:cc="http://creativecommons.org/ns#" xmlns:rdf="http://www.w3.org/1999/02/22-rdf-syntax-ns#">
   <cc:Work>
    <dc:type rdf:resource="http://purl.org/dc/dcmitype/StillImage"/>
    <dc:date>2025-12-15T10:14:26.780535</dc:date>
    <dc:format>image/svg+xml</dc:format>
    <dc:creator>
     <cc:Agent>
      <dc:title>Matplotlib v3.10.6, https://matplotlib.org/</dc:title>
     </cc:Agent>
    </dc:creator>
   </cc:Work>
  </rdf:RDF>
 </metadata>
 <defs>
  <style type="text/css">*{stroke-linejoin: round; stroke-linecap: butt}</style>
 </defs>
 <g id="figure_1">
  <g id="patch_1">
   <path d="M 0 345.6 
L 460.8 345.6 
L 460.8 0 
L 0 0 
z
" style="fill: #ffffff"/>
  </g>
  <g id="axes_1">
   <g id="patch_2">
    <path d="M 83.6075 266.245 
L 426.847748 266.245 
L 426.847748 25.92 
L 83.6075 25.92 
z
" style="fill: #ffffff"/>
   </g>
   <g id="matplotlib.axis_1">
    <g id="xtick_1">
     <g id="line2d_1">
      <path d="M 99.209329 266.245 
L 99.209329 25.92 
" clip-path="url(#p641f105b34)" style="fill: none; stroke: #b0b0b0; stroke-width: 0.8; stroke-linecap: square"/>
     </g>
     <g id="line2d_2">
      <defs>
       <path id="mdfa10f1944" d="M 0 0 
L 0 3.5 
" style="stroke: #000000; stroke-width: 0.8"/>
      </defs>
      <g>
       <use xlink:href="#mdfa10f1944" x="99.209329" y="266.245" style="stroke: #000000; stroke-width: 0.8"/>
      </g>
     </g>
     <g id="text_1">
      <!-- 0 -->
      <g transform="translate(93.209329 289.63625) scale(0.24 -0.24)">
       <defs>
        <path id="TeXGyreTermes-Regular-30" d="M 3046 2112 
C 3046 3424 2464 4326 1626 4326 
C 1274 4326 1005 4218 768 3994 
C 397 3635 154 2899 154 2150 
C 154 1453 365 704 666 346 
C 902 64 1229 -90 1600 -90 
C 1926 -90 2202 19 2432 243 
C 2803 595 3046 1338 3046 2112 
z
M 2432 2099 
C 2432 762 2150 77 1600 77 
C 1050 77 768 762 768 2093 
C 768 3450 1056 4160 1606 4160 
C 2144 4160 2432 3437 2432 2099 
z
" transform="scale(0.015625)"/>
       </defs>
       <use xlink:href="#TeXGyreTermes-Regular-30"/>
      </g>
     </g>
    </g>
    <g id="xtick_2">
     <g id="line2d_3">
      <path d="M 255.383798 266.245 
L 255.383798 25.92 
" clip-path="url(#p641f105b34)" style="fill: none; stroke: #b0b0b0; stroke-width: 0.8; stroke-linecap: square"/>
     </g>
     <g id="line2d_4">
      <g>
       <use xlink:href="#mdfa10f1944" x="255.383798" y="266.245" style="stroke: #000000; stroke-width: 0.8"/>
      </g>
     </g>
     <g id="text_2">
      <!-- 500 -->
      <g transform="translate(237.383798 289.63625) scale(0.24 -0.24)">
       <defs>
        <path id="TeXGyreTermes-Regular-35" d="M 2803 4358 
L 2746 4403 
C 2650 4269 2586 4237 2451 4237 
L 1114 4237 
L 416 2720 
C 410 2707 410 2688 410 2688 
C 410 2656 435 2637 486 2637 
C 691 2637 947 2592 1210 2509 
C 1946 2272 2285 1875 2285 1242 
C 2285 627 1894 147 1395 147 
C 1267 147 1158 192 966 333 
C 762 480 614 544 480 544 
C 294 544 205 467 205 307 
C 205 64 506 -90 986 -90 
C 1523 -90 1984 83 2304 410 
C 2598 698 2733 1062 2733 1549 
C 2733 2010 2611 2304 2291 2624 
C 2010 2906 1645 3053 890 3187 
L 1158 3731 
L 2413 3731 
C 2515 3731 2541 3744 2560 3789 
L 2803 4358 
z
" transform="scale(0.015625)"/>
       </defs>
       <use xlink:href="#TeXGyreTermes-Regular-35"/>
       <use xlink:href="#TeXGyreTermes-Regular-30" transform="translate(49.999985 0)"/>
       <use xlink:href="#TeXGyreTermes-Regular-30" transform="translate(99.999969 0)"/>
      </g>
     </g>
    </g>
    <g id="xtick_3">
     <g id="line2d_5">
      <path d="M 411.558267 266.245 
L 411.558267 25.92 
" clip-path="url(#p641f105b34)" style="fill: none; stroke: #b0b0b0; stroke-width: 0.8; stroke-linecap: square"/>
     </g>
     <g id="line2d_6">
      <g>
       <use xlink:href="#mdfa10f1944" x="411.558267" y="266.245" style="stroke: #000000; stroke-width: 0.8"/>
      </g>
     </g>
     <g id="text_3">
      <!-- 1000 -->
      <g transform="translate(387.558267 289.63625) scale(0.24 -0.24)">
       <defs>
        <path id="TeXGyreTermes-Regular-31" d="M 2522 0 
L 2522 96 
C 2016 102 1914 166 1914 474 
L 1914 4314 
L 1862 4326 
L 710 3744 
L 710 3654 
C 787 3686 858 3712 883 3725 
C 998 3770 1107 3795 1171 3795 
C 1306 3795 1363 3699 1363 3494 
L 1363 595 
C 1363 384 1312 237 1210 179 
C 1114 122 1024 102 755 96 
L 755 0 
L 2522 0 
z
" transform="scale(0.015625)"/>
       </defs>
       <use xlink:href="#TeXGyreTermes-Regular-31"/>
       <use xlink:href="#TeXGyreTermes-Regular-30" transform="translate(49.999985 0)"/>
       <use xlink:href="#TeXGyreTermes-Regular-30" transform="translate(99.999969 0)"/>
       <use xlink:href="#TeXGyreTermes-Regular-30" transform="translate(149.999954 0)"/>
      </g>
     </g>
    </g>
    <g id="text_4">
     <!-- Schritt k -->
     <g transform="translate(214.225124 315.23625) scale(0.24 -0.24)">
      <defs>
       <path id="TeXGyreTermes-Regular-53" d="M 3142 1075 
C 3142 1606 2790 2016 1946 2477 
C 1274 2842 1005 3123 1005 3475 
C 1005 3827 1274 4064 1670 4064 
C 1958 4064 2227 3942 2451 3712 
C 2650 3507 2739 3341 2842 2963 
L 3002 2963 
L 2861 4326 
L 2726 4326 
C 2701 4186 2630 4109 2522 4109 
C 2458 4109 2355 4134 2240 4186 
C 2003 4275 1773 4326 1549 4326 
C 1299 4326 1030 4224 826 4058 
C 576 3853 454 3578 454 3226 
C 454 2720 736 2362 1453 1984 
C 1914 1734 2246 1478 2406 1235 
C 2464 1146 2496 1018 2496 858 
C 2496 435 2176 141 1709 141 
C 1133 141 736 493 416 1274 
L 269 1274 
L 461 -83 
L 602 -83 
C 608 38 685 128 781 128 
C 851 128 960 102 1082 58 
C 1325 -38 1581 -90 1837 -90 
C 2579 -90 3142 416 3142 1075 
z
" transform="scale(0.015625)"/>
       <path id="TeXGyreTermes-Regular-63" d="M 2637 941 
L 2547 998 
C 2240 550 2010 397 1645 397 
C 1056 397 653 909 653 1645 
C 653 2310 1005 2758 1523 2758 
C 1754 2758 1837 2688 1901 2451 
L 1939 2310 
C 1990 2125 2106 2016 2246 2016 
C 2413 2016 2547 2138 2547 2285 
C 2547 2643 2099 2944 1562 2944 
C 1261 2944 954 2829 698 2618 
C 352 2330 160 1888 160 1357 
C 160 531 666 -64 1376 -64 
C 1651 -64 1894 26 2112 205 
C 2304 358 2432 544 2637 941 
z
" transform="scale(0.015625)"/>
       <path id="TeXGyreTermes-Regular-68" d="M 3117 0 
L 3117 96 
C 2771 160 2733 211 2733 653 
L 2733 1926 
C 2733 2598 2464 2944 1946 2944 
C 1568 2944 1299 2790 1005 2406 
L 1005 4352 
L 973 4371 
C 755 4294 595 4243 237 4141 
L 64 4090 
L 64 3987 
C 90 3994 109 3994 141 3994 
C 416 3994 467 3942 467 3667 
L 467 653 
C 467 205 429 147 58 96 
L 58 0 
L 1440 0 
L 1440 96 
C 1069 134 1005 211 1005 653 
L 1005 2195 
C 1274 2490 1466 2598 1715 2598 
C 2035 2598 2195 2368 2195 1920 
L 2195 653 
C 2195 218 2131 134 1760 96 
L 1760 0 
L 3117 0 
z
" transform="scale(0.015625)"/>
       <path id="TeXGyreTermes-Regular-72" d="M 2144 2605 
C 2144 2816 2010 2944 1792 2944 
C 1523 2944 1338 2797 1024 2342 
L 1024 2931 
L 992 2944 
C 653 2803 422 2720 45 2598 
L 45 2496 
C 134 2515 192 2522 269 2522 
C 429 2522 486 2419 486 2138 
L 486 538 
C 486 218 442 173 32 96 
L 32 0 
L 1568 0 
L 1568 96 
C 1133 115 1024 211 1024 576 
L 1024 2016 
C 1024 2221 1299 2541 1472 2541 
C 1510 2541 1568 2509 1638 2445 
C 1741 2355 1811 2317 1894 2317 
C 2048 2317 2144 2426 2144 2605 
z
" transform="scale(0.015625)"/>
       <path id="TeXGyreTermes-Regular-69" d="M 1619 0 
L 1619 96 
C 1197 128 1146 192 1146 653 
L 1146 2925 
L 1120 2944 
L 128 2592 
L 128 2496 
L 179 2502 
C 256 2515 339 2522 397 2522 
C 550 2522 608 2419 608 2138 
L 608 653 
C 608 192 544 122 102 96 
L 102 0 
L 1619 0 
z
M 1203 3776 
C 1203 3955 1062 4102 877 4102 
C 698 4102 550 3955 550 3776 
C 550 3590 698 3450 877 3450 
C 1062 3450 1203 3590 1203 3776 
z
" transform="scale(0.015625)"/>
       <path id="TeXGyreTermes-Regular-74" d="M 1786 422 
L 1702 493 
C 1562 326 1459 269 1318 269 
C 1082 269 986 435 986 845 
L 986 2675 
L 1632 2675 
L 1632 2880 
L 986 2880 
L 986 3622 
C 986 3686 973 3706 941 3706 
C 902 3642 858 3584 813 3526 
C 576 3174 358 2938 192 2842 
C 122 2797 83 2758 83 2720 
C 83 2701 90 2688 109 2675 
L 448 2675 
L 448 749 
C 448 211 640 -64 1011 -64 
C 1331 -64 1574 90 1786 422 
z
" transform="scale(0.015625)"/>
       <path id="TeXGyreTermes-Regular-20" transform="scale(0.015625)"/>
       <path id="TeXGyreTermes-Regular-6b" d="M 3232 0 
L 3232 96 
C 2950 115 2752 237 2483 563 
L 1504 1805 
L 1690 1978 
C 2144 2400 2541 2694 2726 2746 
C 2822 2771 2912 2784 3021 2784 
L 3072 2784 
L 3072 2880 
L 1766 2880 
L 1766 2790 
C 2016 2784 2086 2758 2086 2669 
C 2086 2618 2029 2528 1939 2451 
L 1062 1670 
L 1062 4358 
L 1037 4371 
L 237 4141 
L 45 4090 
L 45 3987 
C 128 3994 186 4000 250 4000 
C 461 4000 525 3917 525 3610 
L 525 525 
C 525 192 506 173 45 96 
L 45 0 
L 1542 0 
L 1542 96 
L 1414 102 
C 1158 115 1062 205 1062 429 
L 1062 1606 
L 1958 410 
L 1978 384 
C 1990 365 2003 346 2022 326 
C 2074 262 2093 224 2093 192 
C 2093 134 2035 96 1958 96 
L 1837 96 
L 1837 0 
L 3232 0 
z
" transform="scale(0.015625)"/>
      </defs>
      <use xlink:href="#TeXGyreTermes-Regular-53"/>
      <use xlink:href="#TeXGyreTermes-Regular-63" transform="translate(55.599991 0)"/>
      <use xlink:href="#TeXGyreTermes-Regular-68" transform="translate(99.999985 0)"/>
      <use xlink:href="#TeXGyreTermes-Regular-72" transform="translate(149.999969 0)"/>
      <use xlink:href="#TeXGyreTermes-Regular-69" transform="translate(183.299957 0)"/>
      <use xlink:href="#TeXGyreTermes-Regular-74" transform="translate(211.099945 0)"/>
      <use xlink:href="#TeXGyreTermes-Regular-74" transform="translate(238.899933 0)"/>
      <use xlink:href="#TeXGyreTermes-Regular-20" transform="translate(266.699921 0)"/>
      <use xlink:href="#TeXGyreTermes-Regular-6b" transform="translate(291.699905 0)"/>
     </g>
    </g>
   </g>
   <g id="matplotlib.axis_2">
    <g id="ytick_1">
     <g id="line2d_7">
      <path d="M 83.6075 203.742559 
L 426.847748 203.742559 
" clip-path="url(#p641f105b34)" style="fill: none; stroke: #b0b0b0; stroke-width: 0.8; stroke-linecap: square"/>
     </g>
     <g id="line2d_8">
      <defs>
       <path id="mbb101d4a00" d="M 0 0 
L -3.5 0 
" style="stroke: #000000; stroke-width: 0.8"/>
      </defs>
      <g>
       <use xlink:href="#mbb101d4a00" x="83.6075" y="203.742559" style="stroke: #000000; stroke-width: 0.8"/>
      </g>
     </g>
     <g id="text_5">
      <!-- −2 -->
      <g transform="translate(51.07 211.938184) scale(0.24 -0.24)">
       <defs>
        <path id="TeXGyreTermes-Regular-2212" d="M 3354 1389 
L 3354 1811 
L 256 1811 
L 256 1389 
L 3354 1389 
z
" transform="scale(0.015625)"/>
        <path id="TeXGyreTermes-Regular-32" d="M 3040 877 
L 2957 909 
C 2720 544 2637 486 2349 486 
L 819 486 
L 1894 1613 
C 2464 2208 2714 2694 2714 3194 
C 2714 3834 2195 4326 1530 4326 
C 1178 4326 845 4186 608 3930 
C 403 3712 307 3507 198 3053 
L 333 3021 
C 589 3648 819 3853 1261 3853 
C 1798 3853 2163 3488 2163 2950 
C 2163 2451 1869 1856 1331 1286 
L 192 77 
L 192 0 
L 2688 0 
L 3040 877 
z
" transform="scale(0.015625)"/>
       </defs>
       <use xlink:href="#TeXGyreTermes-Regular-2212"/>
       <use xlink:href="#TeXGyreTermes-Regular-32" transform="translate(56.399994 0)"/>
      </g>
     </g>
    </g>
    <g id="ytick_2">
     <g id="line2d_9">
      <path d="M 83.6075 120.920053 
L 426.847748 120.920053 
" clip-path="url(#p641f105b34)" style="fill: none; stroke: #b0b0b0; stroke-width: 0.8; stroke-linecap: square"/>
     </g>
     <g id="line2d_10">
      <g>
       <use xlink:href="#mbb101d4a00" x="83.6075" y="120.920053" style="stroke: #000000; stroke-width: 0.8"/>
      </g>
     </g>
     <g id="text_6">
      <!-- 0 -->
      <g transform="translate(64.6075 129.115678) scale(0.24 -0.24)">
       <use xlink:href="#TeXGyreTermes-Regular-30"/>
      </g>
     </g>
    </g>
    <g id="ytick_3">
     <g id="line2d_11">
      <path d="M 83.6075 38.097546 
L 426.847748 38.097546 
" clip-path="url(#p641f105b34)" style="fill: none; stroke: #b0b0b0; stroke-width: 0.8; stroke-linecap: square"/>
     </g>
     <g id="line2d_12">
      <g>
       <use xlink:href="#mbb101d4a00" x="83.6075" y="38.097546" style="stroke: #000000; stroke-width: 0.8"/>
      </g>
     </g>
     <g id="text_7">
      <!-- 2 -->
      <g transform="translate(64.6075 46.293171) scale(0.24 -0.24)">
       <use xlink:href="#TeXGyreTermes-Regular-32"/>
      </g>
     </g>
    </g>
    <g id="text_8">
     <!-- x(k) -->
     <g transform="translate(41.86125 166.07375) rotate(-90) scale(0.24 -0.24)">
      <defs>
       <path id="TeXGyreTermes-Regular-78" d="M 3066 0 
L 3066 96 
C 2867 96 2739 198 2541 480 
L 1722 1734 
L 2253 2502 
C 2374 2675 2566 2778 2771 2784 
L 2771 2880 
L 1760 2880 
L 1760 2784 
C 1952 2771 2016 2733 2016 2643 
C 2016 2566 1939 2426 1779 2227 
C 1747 2189 1670 2074 1587 1946 
L 1498 2074 
C 1318 2342 1203 2560 1203 2643 
C 1203 2733 1286 2778 1478 2784 
L 1478 2880 
L 154 2880 
L 154 2784 
L 211 2784 
C 403 2784 506 2701 704 2400 
L 1306 1478 
L 576 422 
C 384 160 320 115 109 96 
L 109 0 
L 1037 0 
L 1037 96 
C 858 96 781 128 781 211 
C 781 250 826 346 909 474 
L 1414 1261 
L 1997 365 
C 2022 326 2035 288 2035 250 
C 2035 134 1990 109 1779 96 
L 1779 0 
L 3066 0 
z
" transform="scale(0.015625)"/>
       <path id="TeXGyreTermes-Regular-28" d="M 1946 -1030 
C 1434 -627 1254 -403 1082 77 
C 928 506 858 992 858 1632 
C 858 2304 941 2829 1114 3226 
C 1293 3622 1485 3853 1946 4224 
L 1888 4326 
C 1414 4019 1222 3853 986 3558 
C 531 3002 307 2362 307 1613 
C 307 800 544 173 1107 -480 
C 1370 -787 1536 -928 1869 -1133 
L 1946 -1030 
z
" transform="scale(0.015625)"/>
       <path id="TeXGyreTermes-Regular-29" d="M 1824 1581 
C 1824 2400 1587 3021 1024 3674 
C 762 3981 595 4122 262 4326 
L 186 4224 
C 698 3821 870 3597 1050 3117 
C 1203 2688 1274 2202 1274 1562 
C 1274 896 1190 365 1018 -26 
C 838 -429 646 -659 186 -1030 
L 243 -1133 
C 717 -826 909 -659 1146 -365 
C 1600 192 1824 832 1824 1581 
z
" transform="scale(0.015625)"/>
      </defs>
      <use xlink:href="#TeXGyreTermes-Regular-78"/>
      <use xlink:href="#TeXGyreTermes-Regular-28" transform="translate(49.999985 0)"/>
      <use xlink:href="#TeXGyreTermes-Regular-6b" transform="translate(83.299973 0)"/>
      <use xlink:href="#TeXGyreTermes-Regular-29" transform="translate(133.299957 0)"/>
     </g>
    </g>
   </g>
   <g id="line2d_13">
    <path d="M 99.209329 158.80417 
L 100.146376 145.928788 
L 100.458725 145.748018 
L 100.771074 147.547697 
L 101.083423 158.262338 
L 101.395772 161.943979 
L 101.708121 156.988471 
L 102.02047 153.909246 
L 102.645168 156.931742 
L 102.957517 151.533124 
L 103.269866 153.01166 
L 103.582215 153.789219 
L 103.894564 156.416811 
L 104.206912 160.065318 
L 104.519261 159.462851 
L 104.83161 161.704255 
L 105.143959 165.169213 
L 105.456308 172.734198 
L 105.768657 176.917416 
L 106.081006 171.8202 
L 106.393355 171.064428 
L 107.018053 156.316063 
L 107.330402 157.59791 
L 107.642751 162.997311 
L 107.9551 158.464937 
L 108.579798 166.531618 
L 108.892147 168.95967 
L 109.204495 172.455569 
L 109.516844 174.393669 
L 109.829193 171.16555 
L 110.141542 169.211246 
L 110.453891 163.197688 
L 110.76624 163.691933 
L 111.390938 175.747493 
L 111.703287 170.909758 
L 112.015636 169.77479 
L 112.327985 161.528739 
L 112.640334 158.416885 
L 112.952683 166.617973 
L 113.265032 171.223059 
L 113.577381 170.134272 
L 113.88973 165.978193 
L 114.202078 166.964212 
L 114.514427 172.275951 
L 115.139125 164.940411 
L 115.451474 164.319235 
L 116.076172 177.008123 
L 116.388521 172.253424 
L 116.70087 170.36487 
L 117.013219 178.68073 
L 117.325568 182.201912 
L 117.637917 174.908585 
L 118.262615 176.530348 
L 118.887313 182.173598 
L 120.136708 202.737929 
L 120.449057 208.524897 
L 120.761406 206.715147 
L 121.073755 209.132324 
L 121.386104 200.739303 
L 121.698453 201.3835 
L 122.010802 197.606602 
L 122.323151 199.388334 
L 122.6355 193.913152 
L 122.947849 194.071681 
L 123.260198 190.944601 
L 123.884896 194.497501 
L 124.197244 199.843691 
L 124.509593 196.006699 
L 124.821942 195.790409 
L 125.44664 204.686757 
L 125.758989 202.538229 
L 126.071338 205.114274 
L 126.383687 201.470287 
L 126.696036 204.519263 
L 127.008385 211.667979 
L 127.320734 207.624851 
L 127.633083 201.821232 
L 127.945432 190.449917 
L 128.257781 186.428843 
L 128.57013 184.037378 
L 128.882479 184.48366 
L 129.194827 192.432064 
L 129.507176 194.510335 
L 129.819525 191.484008 
L 130.131874 186.27447 
L 130.444223 190.498463 
L 130.756572 191.229442 
L 131.068921 182.657332 
L 131.38127 177.329219 
L 131.693619 180.756907 
L 132.005968 181.094977 
L 132.318317 176.228773 
L 132.943015 181.609357 
L 133.255364 181.631959 
L 133.880062 178.643985 
L 134.19241 175.051794 
L 134.504759 177.394907 
L 134.817108 176.858926 
L 135.129457 177.997147 
L 135.441806 181.863537 
L 135.754155 179.594467 
L 136.066504 180.825102 
L 136.378853 178.907871 
L 137.3159 182.144899 
L 137.628249 189.357384 
L 137.940598 187.345081 
L 138.252947 188.667808 
L 138.565296 189.46293 
L 138.877645 187.657852 
L 139.189993 188.771083 
L 139.502342 187.571099 
L 139.814691 183.552905 
L 140.12704 183.560375 
L 140.751738 190.208649 
L 141.064087 187.311761 
L 141.376436 181.548142 
L 141.688785 172.210405 
L 142.313483 178.426238 
L 142.625832 175.7649 
L 143.25053 180.44015 
L 143.562879 179.613893 
L 143.875228 183.435908 
L 144.187576 179.962314 
L 144.499925 183.16384 
L 144.812274 177.396311 
L 145.124623 168.781605 
L 145.436972 169.613382 
L 146.06167 178.344283 
L 146.374019 180.873827 
L 146.686368 177.081253 
L 146.998717 182.821489 
L 147.311066 185.010032 
L 147.623415 184.514719 
L 148.560462 198.308102 
L 149.185159 202.243262 
L 149.497508 208.749848 
L 149.809857 209.9165 
L 150.122206 202.592198 
L 150.746904 195.186528 
L 151.059253 192.472044 
L 151.371602 195.645579 
L 151.683951 196.375298 
L 151.9963 191.794068 
L 152.308649 194.762644 
L 152.933347 201.69733 
L 153.245696 198.560599 
L 153.558045 200.692626 
L 153.870394 207.862614 
L 154.182742 211.845913 
L 154.495091 213.181497 
L 154.80744 217.959992 
L 155.119789 219.096435 
L 155.432138 219.031974 
L 156.369185 210.878269 
L 156.681534 210.391366 
L 156.993883 214.510142 
L 157.306232 211.924593 
L 157.618581 203.966019 
L 157.93093 207.670613 
L 158.243279 205.991007 
L 158.555628 194.574783 
L 158.867977 193.725267 
L 159.805023 202.205074 
L 160.429721 204.418574 
L 160.74207 209.504083 
L 161.054419 206.086573 
L 161.679117 187.00494 
L 161.991466 185.356024 
L 162.303815 180.915712 
L 162.616164 181.670502 
L 162.928513 176.571627 
L 163.240862 167.399533 
L 163.86556 164.035026 
L 164.177909 159.693625 
L 164.490257 158.918952 
L 164.802606 164.120389 
L 165.114955 159.481552 
L 165.427304 158.158434 
L 165.739653 159.310936 
L 166.052002 159.072581 
L 166.364351 157.590761 
L 166.6767 148.856455 
L 166.989049 148.930128 
L 167.301398 156.080214 
L 167.613747 154.821011 
L 167.926096 152.603989 
L 168.238445 154.108036 
L 168.550794 157.427456 
L 168.863143 156.238441 
L 169.48784 145.153339 
L 169.800189 141.061226 
L 170.112538 148.2231 
L 170.424887 147.768665 
L 170.737236 149.808935 
L 171.049585 147.236832 
L 171.361934 151.847038 
L 171.986632 153.76851 
L 172.298981 149.493628 
L 172.61133 146.953656 
L 172.923679 148.603577 
L 173.236028 146.252116 
L 173.860726 135.223879 
L 174.173075 138.043744 
L 174.797772 147.841168 
L 175.110121 148.693049 
L 175.42247 151.779191 
L 175.734819 150.224347 
L 176.047168 149.935914 
L 176.359517 148.445199 
L 176.671866 144.797012 
L 176.984215 152.44062 
L 177.296564 154.00453 
L 177.608913 158.970178 
L 177.921262 160.946421 
L 178.54596 171.311215 
L 179.170658 169.537928 
L 179.483006 168.049412 
L 179.795355 173.441006 
L 180.107704 168.700441 
L 180.420053 174.912712 
L 180.732402 172.714199 
L 181.044751 177.330735 
L 181.3571 178.161745 
L 181.669449 184.786074 
L 181.981798 186.929701 
L 182.294147 185.130931 
L 182.606496 185.345318 
L 182.918845 187.782717 
L 183.231194 191.218847 
L 183.543543 192.784885 
L 183.855892 195.524221 
L 184.168241 191.950484 
L 184.480589 190.322599 
L 184.792938 197.270115 
L 185.105287 199.898953 
L 185.417636 198.610869 
L 185.729985 191.577482 
L 186.042334 193.059626 
L 186.354683 190.901014 
L 186.667032 187.40437 
L 186.979381 189.989622 
L 187.29173 190.787926 
L 187.604079 188.980546 
L 188.228777 193.107599 
L 188.541126 189.266461 
L 188.853475 183.625803 
L 189.165824 188.871363 
L 189.790521 179.424129 
L 190.10287 179.022363 
L 190.415219 185.720599 
L 190.727568 184.968264 
L 191.039917 177.212696 
L 191.352266 175.773062 
L 191.664615 177.464871 
L 191.976964 175.636522 
L 192.289313 176.921231 
L 192.601662 174.220557 
L 192.914011 167.89345 
L 193.22636 165.993381 
L 193.538709 162.623078 
L 193.851058 161.362992 
L 194.163407 164.705402 
L 194.475755 161.17181 
L 194.788104 161.014616 
L 195.100453 153.622033 
L 195.412802 156.142814 
L 195.725151 164.21836 
L 196.0375 162.621253 
L 196.662198 157.710397 
L 197.599245 168.202398 
L 197.911594 166.061375 
L 198.223943 173.796493 
L 198.536292 172.99543 
L 198.848641 173.344119 
L 199.16099 179.097378 
L 199.473338 176.836563 
L 200.098036 159.971667 
L 200.410385 161.65855 
L 201.035083 155.18787 
L 201.659781 171.849154 
L 201.97213 173.816432 
L 202.284479 171.785321 
L 202.596828 170.670929 
L 202.909177 164.680722 
L 203.221526 164.884791 
L 203.533875 170.911813 
L 203.846224 168.702036 
L 204.158573 162.834837 
L 204.470921 160.552206 
L 204.78327 169.303805 
L 205.095619 168.766975 
L 205.407968 163.364959 
L 205.720317 160.601554 
L 206.032666 161.150987 
L 206.345015 163.697217 
L 206.657364 164.308542 
L 207.282062 153.646739 
L 207.594411 149.710747 
L 207.90676 154.842446 
L 208.219109 155.677495 
L 208.531458 153.007337 
L 208.843807 156.81294 
L 209.156156 158.736298 
L 209.468504 157.975391 
L 210.093202 165.427197 
L 210.405551 167.136021 
L 210.7179 169.916434 
L 211.030249 173.929312 
L 211.342598 172.367697 
L 211.654947 169.595519 
L 211.967296 171.134301 
L 212.279645 171.107595 
L 212.591994 169.98887 
L 212.904343 170.660065 
L 213.216692 162.653887 
L 213.529041 158.034141 
L 213.84139 164.934519 
L 214.153739 165.151807 
L 214.466087 173.22692 
L 214.778436 172.806083 
L 215.090785 173.562397 
L 215.403134 176.811128 
L 215.715483 177.227017 
L 216.027832 182.553097 
L 216.340181 190.710219 
L 216.964879 176.530807 
L 217.277228 174.458337 
L 217.589577 177.96294 
L 217.901926 179.667889 
L 218.214275 176.798742 
L 218.526624 171.547811 
L 219.151322 167.400232 
L 219.46367 158.528365 
L 219.776019 158.637891 
L 220.088368 160.38382 
L 220.400717 159.641624 
L 220.713066 162.95485 
L 221.025415 163.133758 
L 221.337764 163.940259 
L 221.650113 163.397656 
L 221.962462 161.989225 
L 222.274811 159.574192 
L 222.58716 155.968434 
L 222.899509 157.966271 
L 223.211858 156.047093 
L 223.524207 161.000564 
L 223.836556 163.344512 
L 224.148905 160.384118 
L 224.461254 161.208146 
L 224.773602 161.295625 
L 225.085951 156.894933 
L 225.3983 165.983038 
L 225.710649 160.521216 
L 226.022998 150.739834 
L 226.647696 158.473501 
L 227.272394 169.203075 
L 227.584743 167.567713 
L 227.897092 162.049335 
L 228.209441 158.906382 
L 228.834139 162.718043 
L 229.146488 162.175754 
L 229.458837 163.410635 
L 229.771185 160.85708 
L 230.083534 163.67058 
L 230.395883 163.407352 
L 231.020581 172.511605 
L 231.33293 181.296258 
L 231.645279 175.458172 
L 231.957628 182.09625 
L 232.582326 175.119203 
L 232.894675 179.692523 
L 233.207024 175.864681 
L 233.519373 174.280805 
L 233.831722 176.258646 
L 234.144071 175.590789 
L 234.45642 182.351496 
L 234.768768 183.456278 
L 235.081117 176.436968 
L 235.705815 184.148664 
L 236.018164 176.329226 
L 236.642862 172.816202 
L 236.955211 172.111066 
L 237.579909 180.061865 
L 237.892258 174.324628 
L 238.204607 180.352808 
L 238.516956 180.034061 
L 238.829305 172.78681 
L 239.141654 171.395209 
L 239.454003 165.148478 
L 239.766351 165.457497 
L 240.0787 169.467874 
L 240.391049 168.925494 
L 240.703398 170.482538 
L 241.015747 163.815149 
L 241.328096 162.046282 
L 241.640445 157.175802 
L 241.952794 150.492619 
L 242.265143 148.888404 
L 242.577492 148.296509 
L 242.889841 153.383818 
L 243.514539 146.876184 
L 243.826888 140.899574 
L 245.076283 128.894107 
L 245.388632 128.190552 
L 245.700981 129.46303 
L 246.01333 134.037376 
L 246.325679 131.593699 
L 246.638028 133.970229 
L 246.950377 131.181969 
L 247.262726 135.218639 
L 247.887424 140.048048 
L 248.199773 134.38176 
L 248.512122 136.870791 
L 248.824471 133.195498 
L 249.13682 133.604748 
L 249.449169 136.702181 
L 249.761517 135.754999 
L 250.073866 132.3584 
L 250.386215 136.38066 
L 251.323262 121.927342 
L 251.635611 125.092666 
L 251.94796 126.136923 
L 252.572658 133.296238 
L 252.885007 135.184329 
L 253.197356 130.386922 
L 253.509705 129.283776 
L 253.822054 123.597327 
L 254.134403 124.42853 
L 254.446752 119.714477 
L 254.7591 116.764467 
L 255.383798 106.226304 
L 255.696147 114.198929 
L 256.008496 115.01274 
L 256.633194 122.072163 
L 256.945543 118.947462 
L 257.257892 117.519149 
L 257.570241 115.33937 
L 257.88259 114.374011 
L 258.194939 114.880681 
L 258.507288 111.063226 
L 258.819637 115.893265 
L 259.131986 115.953012 
L 259.444335 110.626234 
L 259.756683 110.086918 
L 260.069032 105.990518 
L 260.381381 104.242763 
L 260.69373 103.828365 
L 261.006079 105.935558 
L 261.630777 98.032502 
L 262.255475 95.448374 
L 262.567824 95.694536 
L 262.880173 94.103848 
L 263.192522 88.718174 
L 263.504871 90.504337 
L 263.81722 100.930597 
L 264.129569 100.856422 
L 264.441918 91.401383 
L 265.378964 84.028443 
L 265.691313 84.823801 
L 266.003662 88.118802 
L 266.316011 84.042612 
L 266.940709 79.737527 
L 267.565407 86.214825 
L 267.877756 94.176037 
L 268.190105 94.448445 
L 268.502454 92.792862 
L 268.814803 86.358385 
L 269.127152 89.341032 
L 269.439501 95.889248 
L 269.751849 93.358192 
L 270.376547 95.825912 
L 270.688896 97.902529 
L 271.001245 104.660242 
L 271.313594 101.790815 
L 271.625943 106.323781 
L 271.938292 97.714296 
L 272.250641 94.101954 
L 272.56299 100.354015 
L 272.875339 101.042164 
L 273.187688 100.112935 
L 273.500037 100.28997 
L 273.812386 99.39685 
L 274.124735 99.336803 
L 274.437084 98.71144 
L 274.749432 103.577505 
L 275.37413 116.495108 
L 275.998828 120.878954 
L 276.311177 119.19267 
L 276.623526 118.137942 
L 276.935875 123.03932 
L 277.248224 118.649235 
L 277.560573 120.9637 
L 278.185271 114.585211 
L 278.49762 115.494397 
L 278.809969 112.453182 
L 279.122318 106.323551 
L 279.434667 95.499184 
L 280.059364 91.307474 
L 280.684062 94.311275 
L 280.996411 88.053423 
L 281.30876 88.118406 
L 281.621109 84.004051 
L 281.933458 81.468117 
L 282.245807 76.68076 
L 282.870505 84.605814 
L 283.182854 86.444805 
L 283.807552 78.135347 
L 284.119901 77.835104 
L 284.43225 73.913187 
L 284.744598 73.645937 
L 285.056947 72.506165 
L 285.369296 70.247171 
L 285.681645 65.257581 
L 285.993994 64.054324 
L 286.306343 62.183756 
L 286.618692 59.551851 
L 286.931041 65.233419 
L 287.24339 65.458553 
L 287.555739 63.19029 
L 287.868088 62.117895 
L 288.492786 58.765163 
L 288.805135 54.68778 
L 289.429833 65.441815 
L 289.742182 67.132272 
L 290.366879 50.686036 
L 290.679228 53.900919 
L 291.928624 36.843864 
L 292.240973 43.347992 
L 292.553322 53.645435 
L 293.17802 59.930594 
L 293.490369 59.761962 
L 293.802718 55.719781 
L 294.115067 57.757575 
L 294.427416 54.943017 
L 295.052113 62.112053 
L 295.364462 62.001847 
L 295.676811 58.940016 
L 295.98916 59.621203 
L 296.301509 60.681006 
L 296.613858 58.337278 
L 296.926207 58.78718 
L 297.238556 58.085356 
L 297.550905 58.36988 
L 298.175603 55.306112 
L 298.800301 43.687581 
L 299.11265 43.509833 
L 299.424999 42.206193 
L 299.737348 42.216483 
L 300.049696 37.910662 
L 300.362045 39.31779 
L 300.674394 38.843532 
L 300.986743 39.618195 
L 301.299092 38.679836 
L 301.611441 39.068099 
L 301.92379 39.110662 
L 302.236139 44.988137 
L 302.548488 44.895088 
L 302.860837 45.613802 
L 303.173186 48.044235 
L 303.485535 45.796675 
L 303.797884 55.134333 
L 304.110233 52.724371 
L 304.422582 48.065798 
L 305.047279 58.082541 
L 305.359628 54.131569 
L 305.671977 55.486643 
L 305.984326 53.712915 
L 306.296675 59.275825 
L 306.609024 57.107106 
L 306.921373 60.107856 
L 307.233722 59.313788 
L 307.546071 62.921772 
L 307.85842 56.72182 
L 308.170769 55.311757 
L 308.483118 62.214793 
L 308.795467 59.473173 
L 309.107816 59.086304 
L 309.420165 54.691311 
L 310.044862 56.917189 
L 310.357211 64.352158 
L 310.66956 64.953705 
L 310.981909 62.938897 
L 311.294258 62.456036 
L 311.606607 64.06656 
L 311.918956 73.380551 
L 312.231305 73.623234 
L 312.543654 74.756371 
L 312.856003 70.12174 
L 313.168352 68.437545 
L 313.480701 68.350673 
L 313.79305 66.026172 
L 314.417748 68.676056 
L 314.730097 73.12524 
L 315.042445 74.499916 
L 315.354794 70.66896 
L 315.667143 63.067221 
L 315.979492 65.932858 
L 316.291841 57.589585 
L 316.60419 54.764959 
L 316.916539 56.490551 
L 317.228888 55.292983 
L 317.541237 53.332793 
L 317.853586 59.442599 
L 318.165935 60.923964 
L 318.478284 67.679216 
L 318.790633 67.694669 
L 319.102982 70.805194 
L 319.415331 71.444389 
L 319.72768 68.511346 
L 320.040028 72.461064 
L 320.352377 73.709729 
L 320.664726 66.580472 
L 320.977075 66.095325 
L 321.289424 68.820499 
L 321.914122 64.486302 
L 322.226471 65.019389 
L 322.53882 71.968204 
L 322.851169 74.453854 
L 323.163518 72.519364 
L 323.475867 76.591288 
L 324.100565 79.741085 
L 324.412914 74.489133 
L 324.725263 66.617015 
L 325.037611 64.231562 
L 325.34996 71.229775 
L 325.662309 72.871581 
L 325.974658 71.437267 
L 326.287007 71.798893 
L 326.599356 71.803338 
L 326.911705 64.091206 
L 327.224054 60.185906 
L 327.848752 67.694953 
L 328.161101 68.661789 
L 328.47345 66.762079 
L 328.785799 67.94702 
L 329.098148 67.667011 
L 329.410497 67.544282 
L 329.722846 72.388326 
L 330.035194 74.430934 
L 330.347543 72.111117 
L 330.659892 75.123141 
L 330.972241 76.589362 
L 331.28459 77.187078 
L 331.596939 81.949962 
L 331.909288 84.106479 
L 332.533986 82.177011 
L 332.846335 79.082958 
L 333.158684 80.530958 
L 333.471033 83.868717 
L 333.783382 81.459461 
L 334.40808 72.085371 
L 334.720429 76.282199 
L 335.032777 76.959057 
L 335.345126 84.600394 
L 335.657475 80.454798 
L 335.969824 81.798558 
L 336.282173 79.422976 
L 336.594522 83.291688 
L 337.531569 71.772602 
L 337.843918 74.162288 
L 338.156267 79.069863 
L 338.468616 73.212046 
L 338.780965 74.369453 
L 339.093314 74.081365 
L 339.405663 67.32562 
L 339.718012 63.578674 
L 340.03036 62.047558 
L 340.342709 62.500905 
L 340.967407 64.92602 
L 341.279756 60.709638 
L 341.592105 59.693602 
L 341.904454 64.328409 
L 342.216803 64.555884 
L 342.529152 60.892826 
L 342.841501 55.516414 
L 343.15385 64.048701 
L 343.466199 64.453828 
L 343.778548 66.347548 
L 344.090897 63.659903 
L 344.403246 59.097553 
L 344.715595 60.284268 
L 345.027943 56.170824 
L 345.340292 57.19141 
L 345.652641 59.966078 
L 345.96499 64.98501 
L 346.277339 65.174478 
L 346.589688 62.360191 
L 346.902037 63.537516 
L 347.214386 60.562402 
L 347.526735 67.291889 
L 347.839084 68.457354 
L 348.151433 73.366465 
L 348.463782 84.619114 
L 348.776131 90.548794 
L 349.08848 91.038345 
L 349.400829 90.802082 
L 349.713178 91.415495 
L 350.650224 97.709345 
L 350.962573 95.237088 
L 351.274922 97.961427 
L 351.587271 97.559173 
L 351.89962 98.435552 
L 352.211969 100.070516 
L 352.524318 97.528416 
L 352.836667 103.608387 
L 353.149016 106.740348 
L 353.461365 107.598555 
L 354.086063 99.244772 
L 354.398412 92.831066 
L 354.710761 99.661927 
L 355.02311 94.559944 
L 355.335458 94.819217 
L 355.647807 96.474357 
L 355.960156 92.970027 
L 356.584854 98.762869 
L 356.897203 104.553113 
L 357.209552 107.76466 
L 357.83425 110.025236 
L 358.146599 107.565654 
L 358.771297 116.890617 
L 359.083646 109.222613 
L 359.395995 104.532155 
L 359.708344 105.781397 
L 360.333041 104.631303 
L 360.64539 98.117159 
L 360.957739 97.196402 
L 361.270088 95.839803 
L 361.582437 101.277239 
L 361.894786 102.010431 
L 362.207135 100.819516 
L 362.519484 100.407395 
L 362.831833 100.672007 
L 363.144182 99.416567 
L 363.456531 105.677814 
L 363.76888 109.662746 
L 364.081229 109.09485 
L 364.393578 106.806811 
L 364.705927 110.369112 
L 365.018276 118.982443 
L 365.330624 124.171394 
L 365.955322 123.53452 
L 366.267671 126.25562 
L 366.58002 122.689826 
L 367.829416 144.352261 
L 368.141765 141.300156 
L 368.454114 147.881324 
L 368.766463 150.947557 
L 369.078812 145.995907 
L 369.391161 145.350419 
L 369.70351 139.069227 
L 370.015859 136.307899 
L 370.328207 137.364223 
L 370.640556 137.326584 
L 370.952905 139.839578 
L 371.265254 136.931695 
L 371.577603 135.140584 
L 372.202301 142.746704 
L 372.51465 144.388725 
L 373.139348 143.50591 
L 373.451697 142.287462 
L 373.764046 148.631719 
L 374.076395 148.627114 
L 374.388744 147.523552 
L 374.701093 152.844234 
L 375.013442 153.509422 
L 375.32579 151.8523 
L 375.638139 146.257082 
L 375.950488 145.215713 
L 376.262837 147.351036 
L 376.575186 146.698296 
L 376.887535 150.081625 
L 377.512233 168.675789 
L 377.824582 167.060297 
L 378.136931 164.456654 
L 378.44928 172.47213 
L 378.761629 173.02195 
L 379.073978 175.578979 
L 379.386327 180.664982 
L 379.698676 173.357086 
L 380.011025 172.56287 
L 380.323373 171.051353 
L 380.635722 173.359137 
L 380.948071 174.03415 
L 381.26042 168.771763 
L 381.572769 169.171751 
L 381.885118 163.448608 
L 382.197467 161.706203 
L 382.509816 162.802454 
L 382.822165 162.104446 
L 383.134514 160.889333 
L 383.446863 162.917631 
L 384.071561 177.571694 
L 384.38391 176.313059 
L 384.696259 176.940261 
L 385.008608 179.273645 
L 385.320956 176.776837 
L 385.633305 176.167152 
L 385.945654 176.779808 
L 386.258003 177.671935 
L 386.882701 189.949393 
L 387.19505 188.420994 
L 387.507399 191.580645 
L 387.819748 191.381254 
L 388.132097 184.456178 
L 388.444446 180.433285 
L 388.756795 185.012422 
L 389.069144 187.419634 
L 389.381493 194.19616 
L 389.693842 192.602369 
L 390.006191 193.482441 
L 390.318539 192.243201 
L 390.630888 180.32558 
L 390.943237 176.828538 
L 391.255586 180.505184 
L 391.567935 180.535881 
L 391.880284 179.406084 
L 392.192633 179.936816 
L 392.504982 186.976803 
L 392.817331 185.750698 
L 393.12968 179.673443 
L 393.442029 185.307741 
L 393.754378 184.990367 
L 394.379076 176.231448 
L 394.691425 174.057412 
L 395.003774 165.531116 
L 395.316122 172.465869 
L 395.628471 172.343915 
L 395.94082 170.890141 
L 396.253169 171.526489 
L 396.877867 189.506532 
L 397.190216 192.025363 
L 397.502565 190.435821 
L 398.439612 176.410685 
L 398.751961 179.667027 
L 399.06431 179.050391 
L 400.001357 168.943996 
L 400.313705 168.185852 
L 400.626054 169.793335 
L 400.938403 165.814319 
L 401.250752 163.932292 
L 401.563101 171.219068 
L 401.87545 170.057672 
L 402.187799 174.816609 
L 402.500148 174.998645 
L 403.124846 182.573873 
L 403.437195 175.365144 
L 403.749544 177.68835 
L 404.061893 177.795653 
L 404.374242 178.154696 
L 404.686591 174.666882 
L 404.99894 164.659822 
L 405.311288 168.177218 
L 405.623637 162.039448 
L 405.935986 162.940794 
L 406.248335 162.628624 
L 406.560684 170.713948 
L 406.873033 172.965159 
L 407.497731 175.462611 
L 407.81008 169.737318 
L 408.122429 169.626557 
L 408.434778 164.789353 
L 408.747127 165.765217 
L 409.059476 170.334175 
L 409.371825 168.81085 
L 409.684174 169.406999 
L 409.996523 164.646599 
L 410.933569 157.304462 
L 411.245918 160.353074 
L 411.245918 160.353074 
" clip-path="url(#p641f105b34)" style="fill: none; stroke: #1f77b4; stroke-width: 1.5; stroke-linecap: square"/>
   </g>
   <g id="line2d_14">
    <path d="M 99.209329 227.088066 
L 99.521678 225.732084 
L 99.834027 217.896136 
L 100.146376 220.324355 
L 100.458725 218.113327 
L 100.771074 214.17102 
L 101.083423 216.189662 
L 101.395772 214.403507 
L 101.708121 213.944075 
L 102.02047 212.163894 
L 102.332819 209.105451 
L 102.645168 208.884792 
L 102.957517 206.177844 
L 103.269866 198.279559 
L 103.582215 195.743682 
L 103.894564 200.04137 
L 104.519261 210.985544 
L 105.143959 207.935684 
L 105.456308 205.575638 
L 105.768657 201.810991 
L 106.393355 208.770225 
L 106.705704 213.106086 
L 107.018053 214.448868 
L 107.330402 210.385652 
L 107.9551 213.168847 
L 108.267449 213.444945 
L 108.579798 212.087247 
L 108.892147 213.945869 
L 109.204495 213.554087 
L 109.516844 217.57459 
L 109.829193 217.037362 
L 110.141542 221.278429 
L 110.453891 213.241703 
L 110.76624 213.093641 
L 111.390938 217.679249 
L 111.703287 217.307925 
L 112.327985 215.190271 
L 112.640334 216.023724 
L 112.952683 220.656971 
L 113.265032 220.859775 
L 113.577381 219.332013 
L 113.88973 215.488931 
L 114.202078 216.751102 
L 114.514427 219.359218 
L 114.826776 220.673646 
L 115.139125 221.032236 
L 115.451474 222.19154 
L 115.763823 219.539508 
L 116.076172 219.701674 
L 116.388521 216.90776 
L 116.70087 223.670893 
L 117.013219 220.25284 
L 117.325568 225.265357 
L 117.950266 218.271231 
L 118.262615 221.909368 
L 118.574964 222.012913 
L 119.199661 212.084493 
L 119.51201 214.253808 
L 119.824359 209.553118 
L 120.136708 208.968939 
L 120.449057 203.367843 
L 120.761406 200.192818 
L 121.073755 195.876318 
L 121.386104 188.041178 
L 121.698453 183.12096 
L 122.010802 182.401994 
L 122.6355 195.282284 
L 123.260198 182.417153 
L 123.572547 189.325472 
L 123.884896 193.443046 
L 124.197244 189.388892 
L 124.821942 174.961295 
L 125.134291 174.79921 
L 125.44664 177.425795 
L 125.758989 175.233768 
L 126.071338 170.867108 
L 126.383687 170.24927 
L 126.696036 172.693298 
L 127.008385 180.381861 
L 127.320734 180.245941 
L 127.945432 174.178183 
L 128.257781 175.065106 
L 128.57013 175.095445 
L 129.194827 170.625506 
L 129.507176 173.08614 
L 129.819525 171.984513 
L 130.444223 186.732658 
L 131.068921 197.283379 
L 131.38127 198.308555 
L 131.693619 199.861122 
L 132.005968 199.297503 
L 132.630666 187.363518 
L 132.943015 178.479777 
L 133.255364 174.796046 
L 133.567713 173.673571 
L 133.880062 175.260192 
L 134.19241 174.534997 
L 134.504759 168.619571 
L 134.817108 167.974355 
L 135.129457 169.96407 
L 135.441806 169.01352 
L 135.754155 157.65816 
L 136.066504 150.547348 
L 136.378853 152.003223 
L 136.691202 149.573451 
L 137.003551 153.712182 
L 137.3159 150.842177 
L 137.628249 146.159321 
L 137.940598 144.96834 
L 138.565296 134.556609 
L 138.877645 134.935246 
L 139.189993 137.904873 
L 139.814691 140.221049 
L 140.12704 140.419418 
L 140.751738 122.219809 
L 141.376436 126.943572 
L 141.688785 126.29079 
L 142.313483 132.654846 
L 142.625832 130.46343 
L 142.938181 135.518634 
L 143.25053 137.80454 
L 143.562879 137.989601 
L 143.875228 137.184848 
L 144.499925 146.232395 
L 145.124623 131.703142 
L 145.436972 133.955993 
L 145.749321 129.256472 
L 146.06167 131.21102 
L 146.374019 127.097233 
L 146.686368 130.185628 
L 146.998717 127.689443 
L 147.311066 130.598485 
L 147.623415 130.533306 
L 147.935764 126.695057 
L 149.185159 140.847732 
L 149.497508 137.834546 
L 149.809857 141.566378 
L 150.122206 139.204655 
L 150.434555 137.796238 
L 150.746904 143.37504 
L 151.371602 126.638828 
L 151.683951 127.46088 
L 151.9963 125.822253 
L 152.308649 116.860741 
L 152.620998 117.038964 
L 153.245696 108.068134 
L 153.558045 107.761751 
L 153.870394 110.009426 
L 154.182742 106.269113 
L 154.495091 105.019079 
L 154.80744 104.538555 
L 155.119789 97.362011 
L 155.432138 97.348251 
L 155.744487 103.616448 
L 156.369185 109.712791 
L 156.681534 108.636279 
L 156.993883 99.172271 
L 157.306232 101.236283 
L 157.618581 100.889048 
L 157.93093 99.543943 
L 158.243279 96.350164 
L 158.555628 95.460469 
L 159.180326 93.386161 
L 159.492674 88.131894 
L 159.805023 94.92217 
L 160.117372 96.612451 
L 160.429721 93.336469 
L 161.366768 97.571444 
L 161.679117 94.319339 
L 161.991466 87.237411 
L 162.303815 86.326181 
L 162.928513 105.126911 
L 163.240862 109.967248 
L 163.553211 109.680607 
L 163.86556 100.138841 
L 164.490257 106.28472 
L 164.802606 107.345966 
L 165.427304 115.510076 
L 165.739653 109.879941 
L 166.052002 112.58618 
L 166.364351 122.064285 
L 167.301398 133.928017 
L 167.613747 133.314973 
L 167.926096 134.412948 
L 168.238445 138.241024 
L 168.550794 137.004939 
L 168.863143 127.098519 
L 169.175492 123.052943 
L 169.48784 126.156786 
L 169.800189 127.966743 
L 170.112538 124.02436 
L 170.424887 125.227811 
L 170.737236 130.731837 
L 171.049585 128.897371 
L 171.361934 122.054901 
L 171.674283 121.378726 
L 171.986632 121.045431 
L 172.298981 123.999402 
L 172.61133 118.573345 
L 172.923679 115.346725 
L 173.236028 123.878038 
L 173.548377 124.184349 
L 173.860726 125.219399 
L 174.173075 128.194794 
L 174.485423 121.100394 
L 174.797772 124.735675 
L 175.110121 124.08186 
L 175.42247 125.000149 
L 175.734819 124.244208 
L 176.047168 123.859113 
L 176.359517 120.355695 
L 176.671866 111.120498 
L 177.296564 105.061439 
L 177.608913 101.38104 
L 177.921262 104.165654 
L 178.233611 105.724139 
L 178.54596 106.199198 
L 178.858309 110.224036 
L 179.483006 102.986219 
L 179.795355 106.112962 
L 180.107704 105.775072 
L 180.420053 99.988977 
L 180.732402 103.559124 
L 181.044751 101.616778 
L 181.669449 103.817977 
L 181.981798 100.038687 
L 182.294147 98.497065 
L 182.606496 102.762704 
L 182.918845 109.173764 
L 183.231194 106.907259 
L 183.543543 107.058398 
L 183.855892 104.35641 
L 184.480589 92.327752 
L 184.792938 97.453834 
L 185.105287 98.379755 
L 185.417636 99.863072 
L 185.729985 98.233459 
L 186.042334 95.848039 
L 186.354683 96.967211 
L 186.667032 103.929203 
L 186.979381 105.579502 
L 187.29173 105.696113 
L 187.604079 97.343453 
L 187.916428 96.080283 
L 188.228777 92.498632 
L 188.541126 96.925287 
L 188.853475 97.291323 
L 189.478172 106.942243 
L 189.790521 107.816733 
L 190.10287 107.898834 
L 190.415219 102.520394 
L 190.727568 105.286219 
L 191.039917 110.089476 
L 191.352266 106.741822 
L 191.664615 109.425273 
L 191.976964 113.830878 
L 192.289313 112.177679 
L 192.601662 117.015544 
L 193.851058 100.638976 
L 194.163407 103.576193 
L 194.475755 100.506397 
L 194.788104 102.844449 
L 195.100453 102.650261 
L 195.725151 88.435821 
L 196.0375 89.801435 
L 196.349849 94.283089 
L 196.662198 103.219423 
L 196.974547 107.194198 
L 197.286896 104.270811 
L 197.599245 104.913249 
L 197.911594 101.643647 
L 198.536292 91.413109 
L 198.848641 89.361311 
L 199.16099 88.986668 
L 199.473338 87.416582 
L 199.785687 93.114121 
L 200.098036 88.698335 
L 200.410385 93.276908 
L 200.722734 94.651033 
L 201.347432 91.176952 
L 201.659781 88.027259 
L 201.97213 87.787515 
L 202.284479 88.244834 
L 202.596828 90.349095 
L 202.909177 85.225644 
L 203.221526 87.949241 
L 203.533875 85.180966 
L 203.846224 84.641719 
L 204.158573 85.075304 
L 204.470921 88.489657 
L 204.78327 96.503053 
L 205.095619 97.992109 
L 205.720317 94.744387 
L 206.345015 90.431226 
L 206.657364 88.462168 
L 206.969713 90.188996 
L 207.282062 94.583718 
L 208.219109 83.214329 
L 208.531458 85.314319 
L 208.843807 92.282113 
L 209.156156 85.917953 
L 209.468504 88.504866 
L 209.780853 85.946772 
L 210.093202 81.920667 
L 210.405551 81.229827 
L 211.030249 64.466696 
L 211.342598 65.201266 
L 211.654947 60.065237 
L 211.967296 58.519559 
L 212.279645 58.389062 
L 212.591994 61.171823 
L 212.904343 70.514093 
L 213.216692 72.387413 
L 213.529041 72.058861 
L 213.84139 73.884566 
L 214.153739 68.522581 
L 214.466087 65.177207 
L 214.778436 65.564905 
L 215.090785 63.058008 
L 215.403134 57.906655 
L 215.715483 55.700269 
L 216.027832 56.481767 
L 216.65253 71.18987 
L 216.964879 71.652136 
L 217.277228 72.885754 
L 217.589577 75.176394 
L 217.901926 80.29449 
L 218.214275 80.21211 
L 218.838973 96.615175 
L 219.151322 94.303424 
L 219.46367 89.344516 
L 219.776019 92.459383 
L 220.088368 94.033137 
L 220.400717 96.877897 
L 220.713066 92.067777 
L 221.025415 91.848653 
L 221.650113 92.00609 
L 222.274811 85.617661 
L 222.58716 88.520106 
L 222.899509 88.942278 
L 223.211858 90.65324 
L 223.524207 93.469252 
L 223.836556 91.484496 
L 225.085951 109.791443 
L 225.3983 111.967472 
L 226.022998 119.014284 
L 226.335347 114.291211 
L 226.647696 114.781636 
L 226.960045 114.739491 
L 227.272394 120.166155 
L 227.584743 118.793361 
L 227.897092 118.609582 
L 228.209441 121.005222 
L 228.52179 124.667519 
L 228.834139 117.588908 
L 229.146488 115.253445 
L 229.458837 115.005439 
L 229.771185 111.502999 
L 230.395883 107.624202 
L 230.708232 112.044366 
L 231.020581 112.570279 
L 231.33293 113.889453 
L 231.645279 119.177806 
L 231.957628 117.6362 
L 232.269977 115.336262 
L 232.582326 126.300842 
L 232.894675 130.332548 
L 233.207024 121.865867 
L 233.519373 117.893926 
L 234.144071 103.965225 
L 234.768768 118.751434 
L 235.081117 118.385952 
L 235.393466 123.251286 
L 235.705815 123.694487 
L 236.018164 125.80688 
L 236.330513 126.731384 
L 236.642862 126.492025 
L 236.955211 129.682874 
L 237.26756 124.463648 
L 237.579909 123.802175 
L 237.892258 127.448146 
L 238.204607 127.399144 
L 238.516956 136.517046 
L 238.829305 141.289101 
L 239.141654 147.811748 
L 239.454003 146.658047 
L 239.766351 135.602203 
L 240.0787 135.487135 
L 240.391049 139.177465 
L 241.328096 122.644384 
L 241.640445 123.516005 
L 241.952794 120.881245 
L 242.265143 114.83281 
L 242.577492 115.673981 
L 242.889841 120.544675 
L 243.20219 121.152144 
L 243.514539 124.654078 
L 243.826888 130.12781 
L 244.139237 124.195486 
L 244.451586 123.930698 
L 244.763934 128.580764 
L 245.076283 129.947721 
L 245.700981 140.760095 
L 246.01333 143.094835 
L 246.325679 144.003894 
L 246.638028 141.194422 
L 246.950377 146.187156 
L 247.262726 146.694955 
L 247.575075 144.769419 
L 248.199773 146.265479 
L 248.512122 148.960021 
L 248.824471 149.209731 
L 249.13682 149.09239 
L 249.761517 140.564502 
L 250.073866 141.845101 
L 250.386215 140.094997 
L 251.323262 143.811774 
L 251.635611 135.658188 
L 251.94796 130.902001 
L 252.260309 137.1654 
L 252.572658 135.525432 
L 252.885007 132.785234 
L 253.197356 134.175897 
L 253.509705 126.152737 
L 253.822054 125.217748 
L 254.134403 129.29983 
L 254.446752 124.401112 
L 254.7591 122.046856 
L 255.071449 123.989077 
L 255.383798 118.678434 
L 255.696147 121.055354 
L 256.008496 118.791104 
L 256.320845 125.472219 
L 256.633194 127.919781 
L 257.257892 119.831762 
L 257.570241 110.690213 
L 257.88259 106.860587 
L 258.194939 111.918779 
L 258.507288 112.404095 
L 258.819637 115.54796 
L 259.131986 115.094222 
L 259.444335 113.963841 
L 259.756683 112.377285 
L 260.069032 114.109838 
L 260.381381 113.468438 
L 260.69373 113.370287 
L 261.006079 119.300468 
L 261.318428 113.935773 
L 261.630777 114.746914 
L 261.943126 118.035841 
L 262.255475 113.589269 
L 262.567824 112.583132 
L 262.880173 108.277373 
L 263.192522 100.971222 
L 263.504871 96.931391 
L 264.129569 102.180452 
L 264.441918 101.507317 
L 264.754266 102.707835 
L 265.066615 96.743285 
L 265.378964 101.544749 
L 265.691313 103.378788 
L 266.003662 98.66083 
L 266.316011 96.516692 
L 266.62836 103.183353 
L 266.940709 101.40183 
L 267.253058 106.262091 
L 267.565407 106.640151 
L 267.877756 107.39563 
L 268.190105 103.663748 
L 268.502454 103.107027 
L 268.814803 112.555279 
L 269.127152 113.099324 
L 269.439501 108.349673 
L 269.751849 105.817832 
L 270.376547 93.631491 
L 271.001245 86.703877 
L 271.313594 84.545522 
L 271.625943 83.923756 
L 271.938292 86.518058 
L 272.250641 92.202333 
L 272.56299 91.952279 
L 272.875339 94.49152 
L 273.500037 84.384977 
L 273.812386 88.658847 
L 274.124735 90.427919 
L 274.437084 85.328515 
L 275.061781 81.936705 
L 275.686479 90.699527 
L 275.998828 93.454224 
L 276.311177 93.417843 
L 276.623526 95.883822 
L 276.935875 95.88414 
L 277.248224 102.509975 
L 277.560573 102.218701 
L 277.872922 96.498534 
L 278.185271 98.836533 
L 278.49762 98.240154 
L 278.809969 101.562083 
L 279.122318 101.978468 
L 279.434667 98.667833 
L 279.747015 100.785067 
L 280.059364 100.937361 
L 280.996411 87.60979 
L 281.30876 83.73232 
L 281.621109 91.596063 
L 281.933458 95.673989 
L 282.245807 95.255658 
L 282.558156 99.051494 
L 282.870505 98.04179 
L 283.182854 100.528102 
L 283.495203 104.640633 
L 283.807552 104.915055 
L 284.119901 97.900396 
L 284.43225 101.199107 
L 284.744598 102.786689 
L 285.056947 103.60739 
L 285.993994 112.091843 
L 286.306343 111.038208 
L 286.931041 104.965913 
L 287.24339 113.498215 
L 287.868088 124.021888 
L 288.180437 120.645736 
L 288.492786 122.031311 
L 288.805135 120.1414 
L 289.429833 124.986825 
L 290.366879 117.968675 
L 290.679228 117.73442 
L 290.991577 120.148825 
L 291.303926 117.484902 
L 291.616275 117.06118 
L 292.240973 127.294609 
L 292.865671 137.334573 
L 293.17802 133.605471 
L 293.490369 133.575018 
L 293.802718 138.84992 
L 294.115067 146.01151 
L 294.427416 142.446398 
L 294.739765 142.155711 
L 295.052113 140.129395 
L 295.364462 139.265512 
L 295.676811 136.064793 
L 295.98916 142.038922 
L 296.301509 141.654592 
L 296.613858 140.744899 
L 296.926207 135.627696 
L 297.238556 135.206865 
L 297.550905 137.277011 
L 297.863254 137.274545 
L 298.175603 137.523074 
L 298.800301 139.473055 
L 299.11265 138.864868 
L 299.424999 142.286594 
L 299.737348 142.867731 
L 300.049696 144.105241 
L 300.362045 146.847977 
L 300.674394 152.314583 
L 300.986743 153.615607 
L 301.299092 146.64647 
L 301.611441 143.539914 
L 302.236139 135.233083 
L 302.548488 126.195203 
L 302.860837 126.564861 
L 303.173186 132.707548 
L 303.485535 132.196742 
L 304.110233 127.264754 
L 304.422582 130.266216 
L 304.734931 135.024655 
L 305.047279 135.592332 
L 305.359628 135.792535 
L 305.671977 136.857652 
L 305.984326 133.936553 
L 306.296675 134.38316 
L 306.609024 136.861251 
L 306.921373 135.285922 
L 307.233722 139.260836 
L 307.546071 140.145546 
L 307.85842 137.524542 
L 308.170769 132.695777 
L 308.483118 142.020332 
L 308.795467 143.981909 
L 309.107816 143.95464 
L 309.420165 145.870927 
L 309.732514 144.772894 
L 310.044862 149.146493 
L 310.357211 146.879895 
L 310.66956 145.655991 
L 310.981909 143.287836 
L 311.294258 143.936694 
L 311.606607 147.527464 
L 312.231305 142.211529 
L 312.543654 139.665666 
L 312.856003 138.755012 
L 313.168352 141.89246 
L 313.480701 141.886955 
L 313.79305 141.016323 
L 314.105399 142.714885 
L 314.417748 147.685666 
L 314.730097 144.004716 
L 315.042445 137.295252 
L 315.354794 137.145638 
L 315.667143 139.506788 
L 315.979492 138.698842 
L 316.291841 144.042443 
L 316.60419 140.634737 
L 316.916539 143.999643 
L 317.228888 153.753199 
L 317.541237 154.640986 
L 317.853586 154.447551 
L 318.478284 162.44837 
L 318.790633 165.05691 
L 319.102982 160.117026 
L 319.72768 169.57173 
L 320.352377 159.436096 
L 320.664726 161.738272 
L 320.977075 159.745318 
L 321.289424 161.432078 
L 321.601773 159.359194 
L 322.226471 145.231151 
L 322.53882 141.800547 
L 322.851169 140.96565 
L 323.163518 138.781469 
L 323.475867 139.53466 
L 323.788216 132.518421 
L 324.100565 135.667838 
L 324.412914 137.629879 
L 324.725263 146.251191 
L 325.037611 151.250196 
L 325.662309 157.231041 
L 325.974658 153.895986 
L 326.599356 151.040761 
L 326.911705 152.477391 
L 327.224054 157.284804 
L 327.536403 156.10033 
L 327.848752 153.231301 
L 328.161101 153.665965 
L 328.47345 148.553674 
L 329.098148 144.581201 
L 329.410497 144.370755 
L 329.722846 142.322182 
L 330.035194 146.149376 
L 330.347543 145.045481 
L 330.659892 140.732604 
L 330.972241 140.510268 
L 331.28459 140.756888 
L 332.221637 154.860516 
L 332.533986 162.885031 
L 332.846335 163.755899 
L 333.158684 165.808077 
L 333.471033 158.619041 
L 333.783382 158.482055 
L 334.095731 151.063364 
L 334.40808 148.904668 
L 334.720429 154.279202 
L 335.032777 157.02067 
L 335.345126 161.940417 
L 335.657475 164.662457 
L 335.969824 168.604466 
L 336.282173 168.87552 
L 336.594522 172.827369 
L 336.906871 175.023673 
L 337.21922 167.121808 
L 337.531569 163.329467 
L 337.843918 161.342282 
L 338.156267 157.30202 
L 338.468616 166.347515 
L 339.093314 160.474174 
L 339.718012 156.00278 
L 340.03036 152.603912 
L 340.342709 160.541885 
L 340.655058 161.732914 
L 340.967407 161.454232 
L 341.592105 155.214528 
L 341.904454 154.894682 
L 342.529152 150.246897 
L 342.841501 144.400289 
L 343.15385 141.838613 
L 343.466199 136.219747 
L 343.778548 140.399712 
L 344.090897 141.993275 
L 344.403246 138.947962 
L 344.715595 142.273195 
L 345.340292 138.407152 
L 345.652641 143.513695 
L 345.96499 136.148336 
L 346.277339 132.280702 
L 346.902037 140.998642 
L 347.214386 146.105066 
L 347.526735 146.012889 
L 347.839084 142.511611 
L 348.151433 132.399297 
L 348.463782 126.978801 
L 348.776131 125.611472 
L 349.08848 126.096577 
L 349.400829 127.533803 
L 349.713178 126.701177 
L 350.025526 129.462188 
L 350.337875 135.425279 
L 350.650224 138.866866 
L 350.962573 138.630835 
L 351.274922 145.370712 
L 351.587271 148.732707 
L 352.211969 165.020531 
L 353.149016 171.895174 
L 353.773714 166.116942 
L 354.086063 161.537454 
L 354.398412 153.177728 
L 354.710761 148.998804 
L 355.02311 149.954901 
L 355.335458 144.858538 
L 355.647807 149.413421 
L 355.960156 151.373606 
L 356.272505 151.78232 
L 356.584854 156.054093 
L 357.209552 142.719527 
L 357.83425 152.604673 
L 358.146599 154.163774 
L 358.458948 154.588156 
L 358.771297 149.185736 
L 359.083646 148.696208 
L 359.395995 151.281263 
L 359.708344 155.457111 
L 360.020693 164.195534 
L 360.333041 164.397256 
L 360.64539 164.205407 
L 360.957739 157.880346 
L 361.582437 160.181733 
L 361.894786 159.108065 
L 362.207135 155.097794 
L 362.519484 159.187634 
L 362.831833 157.854548 
L 363.144182 159.265937 
L 363.456531 164.061539 
L 363.76888 165.170708 
L 364.081229 161.767813 
L 364.393578 160.077802 
L 364.705927 160.873863 
L 365.018276 163.874834 
L 365.330624 171.106922 
L 365.642973 165.871543 
L 366.267671 173.8775 
L 366.58002 172.55202 
L 366.892369 174.975647 
L 367.204718 172.111097 
L 367.517067 185.291857 
L 367.829416 189.944819 
L 368.141765 189.710333 
L 368.454114 192.681236 
L 369.078812 203.661688 
L 369.391161 205.571794 
L 369.70351 202.746859 
L 370.015859 208.82379 
L 370.328207 210.950646 
L 370.640556 206.548616 
L 370.952905 206.465892 
L 371.265254 199.054398 
L 371.577603 200.225416 
L 371.889952 197.753868 
L 372.202301 199.585673 
L 372.51465 206.767002 
L 372.826999 210.311637 
L 373.139348 207.117811 
L 373.451697 206.020901 
L 373.764046 208.668941 
L 374.076395 207.113422 
L 374.388744 209.792946 
L 375.013442 227.708243 
L 375.32579 227.726002 
L 375.638139 226.781994 
L 375.950488 225.374681 
L 376.575186 232.142769 
L 376.887535 243.62976 
L 377.199884 250.417489 
L 377.512233 249.197818 
L 377.824582 250.588177 
L 378.136931 246.365462 
L 378.44928 244.64338 
L 378.761629 250.43767 
L 379.073978 251.515139 
L 379.698676 244.729451 
L 380.011025 244.071855 
L 380.323373 248.822905 
L 380.635722 247.418646 
L 380.948071 248.537745 
L 381.26042 253.822852 
L 381.572769 252.538984 
L 382.197467 247.860511 
L 382.509816 255.321136 
L 382.822165 252.315546 
L 383.134514 247.95324 
L 383.759212 230.109425 
L 384.071561 229.316193 
L 384.38391 226.473102 
L 384.696259 229.545871 
L 385.008608 224.793831 
L 385.320956 223.824788 
L 385.633305 226.994498 
L 385.945654 227.372593 
L 386.258003 225.502414 
L 386.570352 225.942108 
L 386.882701 221.246641 
L 387.19505 221.071713 
L 387.819748 228.47607 
L 388.132097 236.400927 
L 388.444446 236.112196 
L 388.756795 235.314672 
L 389.069144 231.6171 
L 390.006191 238.448042 
L 390.318539 233.255097 
L 390.630888 230.015078 
L 390.943237 231.668584 
L 391.255586 230.193684 
L 391.567935 230.599865 
L 391.880284 224.808276 
L 392.192633 223.531309 
L 392.504982 225.02893 
L 392.817331 221.488081 
L 393.12968 228.71434 
L 393.442029 226.88295 
L 393.754378 223.471282 
L 394.066727 222.361987 
L 394.379076 223.624105 
L 394.691425 222.605106 
L 395.003774 218.539557 
L 395.316122 221.247634 
L 395.628471 221.848036 
L 395.94082 218.671305 
L 396.253169 212.803572 
L 396.565518 219.20834 
L 396.877867 220.803765 
L 397.190216 231.206277 
L 397.502565 231.364483 
L 397.814914 228.219651 
L 398.127263 232.476756 
L 398.751961 235.734968 
L 399.06431 231.934448 
L 399.376659 232.823712 
L 400.001357 245.422971 
L 400.313705 241.165157 
L 400.626054 240.484909 
L 400.938403 240.823039 
L 401.250752 243.146803 
L 401.563101 240.970447 
L 401.87545 234.898082 
L 402.187799 234.228492 
L 402.500148 236.036993 
L 402.812497 233.490707 
L 403.124846 231.922021 
L 403.437195 233.069711 
L 403.749544 231.45382 
L 404.061893 220.963014 
L 404.374242 219.527291 
L 404.686591 220.812671 
L 404.99894 217.209258 
L 405.311288 217.92403 
L 405.623637 214.567127 
L 405.935986 217.947054 
L 406.248335 229.832694 
L 406.560684 232.175396 
L 406.873033 230.466781 
L 407.185382 236.57207 
L 407.497731 236.108328 
L 407.81008 233.949012 
L 408.122429 233.58826 
L 408.434778 224.802233 
L 408.747127 224.031375 
L 409.059476 228.690727 
L 409.371825 229.551168 
L 409.684174 223.173092 
L 409.996523 223.069173 
L 410.308871 222.698609 
L 410.62122 221.944715 
L 410.933569 224.246439 
L 411.245918 224.681428 
L 411.245918 224.681428 
" clip-path="url(#p641f105b34)" style="fill: none; stroke: #ff7f0e; stroke-width: 1.5; stroke-linecap: square"/>
   </g>
   <g id="patch_3">
    <path d="M 83.6075 266.245 
L 83.6075 25.92 
" style="fill: none; stroke: #000000; stroke-width: 0.8; stroke-linejoin: miter; stroke-linecap: square"/>
   </g>
   <g id="patch_4">
    <path d="M 426.847748 266.245 
L 426.847748 25.92 
" style="fill: none; stroke: #000000; stroke-width: 0.8; stroke-linejoin: miter; stroke-linecap: square"/>
   </g>
   <g id="patch_5">
    <path d="M 83.6075 266.245 
L 426.847748 266.245 
" style="fill: none; stroke: #000000; stroke-width: 0.8; stroke-linejoin: miter; stroke-linecap: square"/>
   </g>
   <g id="patch_6">
    <path d="M 83.6075 25.92 
L 426.847748 25.92 
" style="fill: none; stroke: #000000; stroke-width: 0.8; stroke-linejoin: miter; stroke-linecap: square"/>
   </g>
  </g>
 </g>
 <defs>
  <clipPath id="p641f105b34">
   <rect x="83.6075" y="25.92" width="343.240248" height="240.325"/>
  </clipPath>
 </defs>
</svg>
