<?xml version="1.0" encoding="utf-8" standalone="no"?>
<!DOCTYPE svg PUBLIC "-//W3C//DTD SVG 1.1//EN"
  "http://www.w3.org/Graphics/SVG/1.1/DTD/svg11.dtd">
<svg xmlns:xlink="http://www.w3.org/1999/xlink" width="460.8pt" height="345.6pt" viewBox="0 0 460.8 345.6" xmlns="http://www.w3.org/2000/svg" version="1.1">
 <metadata>
  <rdf:RDF xmlns:dc="http://purl.org/dc/elements/1.1/" xmlns:cc="http://creativecommons.org/ns#" xmlns:rdf="http://www.w3.org/1999/02/22-rdf-syntax-ns#">
   <cc:Work>
    <dc:type rdf:resource="http://purl.org/dc/dcmitype/StillImage"/>
    <dc:date>2025-12-15T10:14:26.591238</dc:date>
    <dc:format>image/svg+xml</dc:format>
    <dc:creator>
     <cc:Agent>
      <dc:title>Matplotlib v3.10.6, https://matplotlib.org/</dc:title>
     </cc:Agent>
    </dc:creator>
   </cc:Work>
  </rdf:RDF>
 </metadata>
 <defs>
  <style type="text/css">*{stroke-linejoin: round; stroke-linecap: butt}</style>
 </defs>
 <g id="figure_1">
  <g id="patch_1">
   <path d="M 0 345.6 
L 460.8 345.6 
L 460.8 0 
L 0 0 
z
" style="fill: #ffffff"/>
  </g>
  <g id="axes_1">
   <g id="patch_2">
    <path d="M 94.0475 266.245 
L 434.88 266.245 
L 434.88 33.85915 
L 94.0475 33.85915 
z
" style="fill: #ffffff"/>
   </g>
   <g id="matplotlib.axis_1">
    <g id="xtick_1">
     <g id="line2d_1">
      <path d="M 104.121518 266.245 
L 104.121518 33.85915 
" clip-path="url(#pc90b84c2ca)" style="fill: none; stroke: #b0b0b0; stroke-width: 0.8; stroke-linecap: square"/>
     </g>
     <g id="line2d_2">
      <defs>
       <path id="m0abe004e62" d="M 0 0 
L 0 3.5 
" style="stroke: #000000; stroke-width: 0.8"/>
      </defs>
      <g>
       <use xlink:href="#m0abe004e62" x="104.121518" y="266.245" style="stroke: #000000; stroke-width: 0.8"/>
      </g>
     </g>
     <g id="text_1">
      <!-- −750 -->
      <g transform="translate(79.352768 289.63625) scale(0.24 -0.24)">
       <defs>
        <path id="TeXGyreTermes-Regular-2212" d="M 3354 1389 
L 3354 1811 
L 256 1811 
L 256 1389 
L 3354 1389 
z
" transform="scale(0.015625)"/>
        <path id="TeXGyreTermes-Regular-37" d="M 2874 4134 
L 2874 4237 
L 506 4237 
L 128 3296 
L 237 3245 
C 512 3680 627 3763 979 3763 
L 2368 3763 
L 1101 -51 
L 1517 -51 
L 2874 4134 
z
" transform="scale(0.015625)"/>
        <path id="TeXGyreTermes-Regular-35" d="M 2803 4358 
L 2746 4403 
C 2650 4269 2586 4237 2451 4237 
L 1114 4237 
L 416 2720 
C 410 2707 410 2688 410 2688 
C 410 2656 435 2637 486 2637 
C 691 2637 947 2592 1210 2509 
C 1946 2272 2285 1875 2285 1242 
C 2285 627 1894 147 1395 147 
C 1267 147 1158 192 966 333 
C 762 480 614 544 480 544 
C 294 544 205 467 205 307 
C 205 64 506 -90 986 -90 
C 1523 -90 1984 83 2304 410 
C 2598 698 2733 1062 2733 1549 
C 2733 2010 2611 2304 2291 2624 
C 2010 2906 1645 3053 890 3187 
L 1158 3731 
L 2413 3731 
C 2515 3731 2541 3744 2560 3789 
L 2803 4358 
z
" transform="scale(0.015625)"/>
        <path id="TeXGyreTermes-Regular-30" d="M 3046 2112 
C 3046 3424 2464 4326 1626 4326 
C 1274 4326 1005 4218 768 3994 
C 397 3635 154 2899 154 2150 
C 154 1453 365 704 666 346 
C 902 64 1229 -90 1600 -90 
C 1926 -90 2202 19 2432 243 
C 2803 595 3046 1338 3046 2112 
z
M 2432 2099 
C 2432 762 2150 77 1600 77 
C 1050 77 768 762 768 2093 
C 768 3450 1056 4160 1606 4160 
C 2144 4160 2432 3437 2432 2099 
z
" transform="scale(0.015625)"/>
       </defs>
       <use xlink:href="#TeXGyreTermes-Regular-2212"/>
       <use xlink:href="#TeXGyreTermes-Regular-37" transform="translate(56.399994 0)"/>
       <use xlink:href="#TeXGyreTermes-Regular-35" transform="translate(106.399979 0)"/>
       <use xlink:href="#TeXGyreTermes-Regular-30" transform="translate(156.399963 0)"/>
      </g>
     </g>
    </g>
    <g id="xtick_2">
     <g id="line2d_3">
      <path d="M 207.903867 266.245 
L 207.903867 33.85915 
" clip-path="url(#pc90b84c2ca)" style="fill: none; stroke: #b0b0b0; stroke-width: 0.8; stroke-linecap: square"/>
     </g>
     <g id="line2d_4">
      <g>
       <use xlink:href="#m0abe004e62" x="207.903867" y="266.245" style="stroke: #000000; stroke-width: 0.8"/>
      </g>
     </g>
     <g id="text_2">
      <!-- −500 -->
      <g transform="translate(183.135117 289.63625) scale(0.24 -0.24)">
       <use xlink:href="#TeXGyreTermes-Regular-2212"/>
       <use xlink:href="#TeXGyreTermes-Regular-35" transform="translate(56.399994 0)"/>
       <use xlink:href="#TeXGyreTermes-Regular-30" transform="translate(106.399979 0)"/>
       <use xlink:href="#TeXGyreTermes-Regular-30" transform="translate(156.399963 0)"/>
      </g>
     </g>
    </g>
    <g id="xtick_3">
     <g id="line2d_5">
      <path d="M 311.686216 266.245 
L 311.686216 33.85915 
" clip-path="url(#pc90b84c2ca)" style="fill: none; stroke: #b0b0b0; stroke-width: 0.8; stroke-linecap: square"/>
     </g>
     <g id="line2d_6">
      <g>
       <use xlink:href="#m0abe004e62" x="311.686216" y="266.245" style="stroke: #000000; stroke-width: 0.8"/>
      </g>
     </g>
     <g id="text_3">
      <!-- −250 -->
      <g transform="translate(286.917466 289.63625) scale(0.24 -0.24)">
       <defs>
        <path id="TeXGyreTermes-Regular-32" d="M 3040 877 
L 2957 909 
C 2720 544 2637 486 2349 486 
L 819 486 
L 1894 1613 
C 2464 2208 2714 2694 2714 3194 
C 2714 3834 2195 4326 1530 4326 
C 1178 4326 845 4186 608 3930 
C 403 3712 307 3507 198 3053 
L 333 3021 
C 589 3648 819 3853 1261 3853 
C 1798 3853 2163 3488 2163 2950 
C 2163 2451 1869 1856 1331 1286 
L 192 77 
L 192 0 
L 2688 0 
L 3040 877 
z
" transform="scale(0.015625)"/>
       </defs>
       <use xlink:href="#TeXGyreTermes-Regular-2212"/>
       <use xlink:href="#TeXGyreTermes-Regular-32" transform="translate(56.399994 0)"/>
       <use xlink:href="#TeXGyreTermes-Regular-35" transform="translate(106.399979 0)"/>
       <use xlink:href="#TeXGyreTermes-Regular-30" transform="translate(156.399963 0)"/>
      </g>
     </g>
    </g>
    <g id="xtick_4">
     <g id="line2d_7">
      <path d="M 415.468565 266.245 
L 415.468565 33.85915 
" clip-path="url(#pc90b84c2ca)" style="fill: none; stroke: #b0b0b0; stroke-width: 0.8; stroke-linecap: square"/>
     </g>
     <g id="line2d_8">
      <g>
       <use xlink:href="#m0abe004e62" x="415.468565" y="266.245" style="stroke: #000000; stroke-width: 0.8"/>
      </g>
     </g>
     <g id="text_4">
      <!-- 0 -->
      <g transform="translate(409.468565 289.63625) scale(0.24 -0.24)">
       <use xlink:href="#TeXGyreTermes-Regular-30"/>
      </g>
     </g>
    </g>
    <g id="text_5">
     <!-- x -->
     <g transform="translate(258.46375 315.23625) scale(0.24 -0.24)">
      <defs>
       <path id="TeXGyreTermes-Regular-78" d="M 3066 0 
L 3066 96 
C 2867 96 2739 198 2541 480 
L 1722 1734 
L 2253 2502 
C 2374 2675 2566 2778 2771 2784 
L 2771 2880 
L 1760 2880 
L 1760 2784 
C 1952 2771 2016 2733 2016 2643 
C 2016 2566 1939 2426 1779 2227 
C 1747 2189 1670 2074 1587 1946 
L 1498 2074 
C 1318 2342 1203 2560 1203 2643 
C 1203 2733 1286 2778 1478 2784 
L 1478 2880 
L 154 2880 
L 154 2784 
L 211 2784 
C 403 2784 506 2701 704 2400 
L 1306 1478 
L 576 422 
C 384 160 320 115 109 96 
L 109 0 
L 1037 0 
L 1037 96 
C 858 96 781 128 781 211 
C 781 250 826 346 909 474 
L 1414 1261 
L 1997 365 
C 2022 326 2035 288 2035 250 
C 2035 134 1990 109 1779 96 
L 1779 0 
L 3066 0 
z
" transform="scale(0.015625)"/>
      </defs>
      <use xlink:href="#TeXGyreTermes-Regular-78"/>
     </g>
    </g>
   </g>
   <g id="matplotlib.axis_2">
    <g id="ytick_1">
     <g id="line2d_9">
      <path d="M 94.0475 247.012733 
L 434.88 247.012733 
" clip-path="url(#pc90b84c2ca)" style="fill: none; stroke: #b0b0b0; stroke-width: 0.8; stroke-linecap: square"/>
     </g>
     <g id="line2d_10">
      <defs>
       <path id="m94d7df163d" d="M 0 0 
L -3.5 0 
" style="stroke: #000000; stroke-width: 0.8"/>
      </defs>
      <g>
       <use xlink:href="#m94d7df163d" x="94.0475" y="247.012733" style="stroke: #000000; stroke-width: 0.8"/>
      </g>
     </g>
     <g id="text_6">
      <!-- 0 -->
      <g transform="translate(75.0475 255.208358) scale(0.24 -0.24)">
       <use xlink:href="#TeXGyreTermes-Regular-30"/>
      </g>
     </g>
    </g>
    <g id="ytick_2">
     <g id="line2d_11">
      <path d="M 94.0475 140.501261 
L 434.88 140.501261 
" clip-path="url(#pc90b84c2ca)" style="fill: none; stroke: #b0b0b0; stroke-width: 0.8; stroke-linecap: square"/>
     </g>
     <g id="line2d_12">
      <g>
       <use xlink:href="#m94d7df163d" x="94.0475" y="140.501261" style="stroke: #000000; stroke-width: 0.8"/>
      </g>
     </g>
     <g id="text_7">
      <!-- 100 -->
      <g transform="translate(51.0475 148.696886) scale(0.24 -0.24)">
       <defs>
        <path id="TeXGyreTermes-Regular-31" d="M 2522 0 
L 2522 96 
C 2016 102 1914 166 1914 474 
L 1914 4314 
L 1862 4326 
L 710 3744 
L 710 3654 
C 787 3686 858 3712 883 3725 
C 998 3770 1107 3795 1171 3795 
C 1306 3795 1363 3699 1363 3494 
L 1363 595 
C 1363 384 1312 237 1210 179 
C 1114 122 1024 102 755 96 
L 755 0 
L 2522 0 
z
" transform="scale(0.015625)"/>
       </defs>
       <use xlink:href="#TeXGyreTermes-Regular-31"/>
       <use xlink:href="#TeXGyreTermes-Regular-30" transform="translate(49.999985 0)"/>
       <use xlink:href="#TeXGyreTermes-Regular-30" transform="translate(99.999969 0)"/>
      </g>
     </g>
    </g>
    <g id="ytick_3">
     <g id="line2d_13">
      <path d="M 94.0475 33.98979 
L 434.88 33.98979 
" clip-path="url(#pc90b84c2ca)" style="fill: none; stroke: #b0b0b0; stroke-width: 0.8; stroke-linecap: square"/>
     </g>
     <g id="line2d_14">
      <g>
       <use xlink:href="#m94d7df163d" x="94.0475" y="33.98979" style="stroke: #000000; stroke-width: 0.8"/>
      </g>
     </g>
     <g id="text_8">
      <!-- 200 -->
      <g transform="translate(51.0475 42.185415) scale(0.24 -0.24)">
       <use xlink:href="#TeXGyreTermes-Regular-32"/>
       <use xlink:href="#TeXGyreTermes-Regular-30" transform="translate(49.999985 0)"/>
       <use xlink:href="#TeXGyreTermes-Regular-30" transform="translate(99.999969 0)"/>
      </g>
     </g>
    </g>
    <g id="text_9">
     <!-- y -->
     <g transform="translate(41.81625 156.052075) rotate(-90) scale(0.24 -0.24)">
      <defs>
       <path id="TeXGyreTermes-Regular-79" d="M 3040 2784 
L 3040 2880 
L 2176 2880 
L 2176 2784 
C 2381 2784 2483 2726 2483 2624 
C 2483 2598 2477 2560 2458 2515 
L 1837 749 
L 1101 2368 
C 1062 2458 1037 2541 1037 2611 
C 1037 2726 1133 2771 1408 2784 
L 1408 2880 
L 90 2880 
L 90 2790 
C 256 2765 365 2694 416 2586 
L 1472 358 
C 1517 250 1542 173 1542 122 
C 1542 26 1395 -378 1286 -570 
C 1197 -736 1056 -858 966 -858 
C 928 -858 870 -845 806 -813 
C 685 -768 576 -742 467 -742 
C 320 -742 192 -870 192 -1024 
C 192 -1235 397 -1395 666 -1395 
C 1094 -1395 1402 -1037 1747 -115 
L 2733 2496 
C 2816 2701 2886 2765 3040 2784 
z
" transform="scale(0.015625)"/>
      </defs>
      <use xlink:href="#TeXGyreTermes-Regular-79"/>
     </g>
    </g>
   </g>
   <g id="line2d_15">
    <path d="M 415.468565 247.012733 
L 415.788022 246.342178 
L 415.705772 246.309193 
L 415.793566 244.875573 
L 416.089592 244.597272 
L 416.570605 243.425871 
L 416.556662 242.136057 
L 416.7168 242.474865 
L 417.28052 241.722779 
L 417.46525 242.255903 
L 417.791251 241.200735 
L 418.618256 236.316035 
L 418.869757 235.553129 
L 419.387614 236.144478 
L 419.032672 236.098889 
L 418.401529 234.879945 
L 418.132028 235.123913 
L 418.234729 235.749573 
L 417.999907 235.46988 
L 417.729403 234.78961 
L 416.957605 235.180388 
L 416.384672 234.22336 
L 415.081491 232.889115 
L 413.541506 231.667121 
L 412.396706 229.108578 
L 411.896936 227.396685 
L 408.930323 221.074724 
L 408.473538 221.35386 
L 408.071228 222.185804 
L 408.046649 223.147129 
L 407.733553 223.616898 
L 407.524959 224.589512 
L 407.278002 225.00776 
L 406.35102 224.796739 
L 405.637272 224.930198 
L 405.137964 224.717277 
L 404.6843 224.726931 
L 404.133004 224.580455 
L 403.146009 225.973729 
L 402.847387 225.978955 
L 402.896222 224.570936 
L 402.15853 223.919669 
L 401.837953 225.016862 
L 401.992931 225.214718 
L 402.207268 226.867393 
L 402.514849 228.208697 
L 402.837949 228.951843 
L 402.775005 228.60048 
L 402.983907 228.079127 
L 402.957582 228.386456 
L 403.100089 228.924691 
L 402.820324 229.348601 
L 402.442832 230.305893 
L 402.149772 231.761708 
L 400.695679 235.533712 
L 400.611582 236.03341 
L 400.208338 236.048506 
L 399.208051 235.469664 
L 398.84911 235.084338 
L 398.447933 236.174148 
L 397.954478 236.404066 
L 397.321294 235.605729 
L 396.461103 231.481962 
L 396.747749 230.926172 
L 396.878752 230.366771 
L 396.568673 228.987197 
L 396.356959 229.112933 
L 395.870986 227.83116 
L 395.689752 226.378007 
L 394.881554 225.718554 
L 394.252208 226.983268 
L 393.6234 227.350654 
L 392.800936 227.675365 
L 392.043824 228.553283 
L 391.800685 228.319659 
L 391.199339 228.014253 
L 391.026219 227.184899 
L 390.403632 226.909433 
L 389.977877 228.117452 
L 389.922929 228.766809 
L 389.594867 230.101112 
L 389.823838 228.762389 
L 390.042918 229.026734 
L 390.212866 228.651439 
L 390.234279 228.683121 
L 390.377733 229.217413 
L 390.433071 229.882556 
L 390.238258 229.903915 
L 390.313109 230.414037 
L 390.088291 229.908183 
L 389.715538 228.561117 
L 389.17749 227.588523 
L 388.924901 226.797063 
L 388.914045 226.043592 
L 388.653163 225.673098 
L 388.149243 225.631704 
L 387.765215 226.674803 
L 387.131276 230.158331 
L 386.32719 231.225389 
L 386.348621 231.912612 
L 386.712618 232.642605 
L 386.383611 233.220521 
L 385.971354 232.998481 
L 385.537069 232.209956 
L 384.946842 232.285244 
L 384.3708 232.600404 
L 383.865995 232.320912 
L 383.774862 232.938991 
L 383.829456 233.080414 
L 383.357706 231.499357 
L 382.672827 230.11157 
L 381.636617 225.158336 
L 379.440771 219.891098 
L 379.045848 217.094904 
L 377.92573 215.164327 
L 377.235828 214.032616 
L 376.546215 211.974414 
L 375.004689 207.671604 
L 374.310605 207.469262 
L 373.758149 207.06492 
L 373.273687 207.453644 
L 372.849316 206.983522 
L 372.390689 207.109418 
L 371.923822 208.805435 
L 372.249849 208.240064 
L 372.101569 208.975236 
L 371.525068 207.565667 
L 370.676256 207.478297 
L 370.3227 206.32151 
L 370.188904 206.518891 
L 369.850701 203.641308 
L 369.944487 201.93833 
L 369.731518 201.429671 
L 369.715167 201.762824 
L 369.450834 203.882357 
L 369.403827 205.534903 
L 368.978512 205.762416 
L 368.96526 205.716235 
L 368.624019 206.280775 
L 368.541049 207.233249 
L 368.841466 207.61854 
L 368.464235 211.03701 
L 368.190347 212.9991 
L 368.14194 214.649499 
L 367.871221 215.463991 
L 367.445436 216.364301 
L 367.259484 217.263355 
L 367.388254 218.724247 
L 367.348442 219.837912 
L 367.531797 221.272802 
L 367.24618 222.340864 
L 367.703159 222.613832 
L 367.789692 222.823185 
L 367.726951 222.279293 
L 368.130212 221.979473 
L 367.973967 221.078891 
L 367.468211 221.001939 
L 366.891439 218.296239 
L 366.060444 217.183885 
L 365.725047 216.31242 
L 365.382141 217.064103 
L 365.41968 216.704473 
L 365.329583 216.897906 
L 365.331713 216.3811 
L 364.800842 214.970316 
L 364.405613 214.203266 
L 364.266402 213.977129 
L 364.457746 213.58248 
L 364.327883 215.105231 
L 363.798068 216.078364 
L 363.180214 216.588894 
L 363.762126 219.444265 
L 363.925113 220.876249 
L 363.54611 221.905046 
L 362.965637 221.983877 
L 362.825533 223.37254 
L 362.717613 222.974525 
L 362.486104 223.731896 
L 362.239714 225.545766 
L 362.120533 227.321064 
L 361.754818 229.099349 
L 361.893347 230.349403 
L 361.879505 232.56054 
L 362.533187 236.463934 
L 362.30657 237.420417 
L 362.40246 237.553428 
L 362.320085 238.650318 
L 361.95152 242.191914 
L 362.353385 243.121907 
L 362.61143 243.170729 
L 362.668362 242.708766 
L 362.544064 241.97433 
L 362.234239 241.139518 
L 362.559508 238.990095 
L 362.883831 238.257777 
L 363.176876 238.221263 
L 363.673965 238.714737 
L 364.046316 237.952605 
L 364.0986 237.492119 
L 364.439337 237.131826 
L 364.87255 237.018056 
L 365.404973 237.280247 
L 365.975681 239.295115 
L 366.725522 239.333708 
L 366.789447 239.4628 
L 367.287645 237.292216 
L 367.30796 236.40248 
L 367.103462 235.632608 
L 366.59367 234.114661 
L 366.647606 233.79518 
L 366.398918 234.133213 
L 365.749196 233.176735 
L 365.649635 232.235319 
L 365.514862 232.028724 
L 365.69891 233.412891 
L 365.656381 232.67516 
L 365.681296 232.380536 
L 365.750074 233.694427 
L 366.558844 234.124045 
L 367.22331 234.317954 
L 367.242741 234.765449 
L 367.425732 235.99428 
L 367.670941 236.25064 
L 367.617289 236.830486 
L 367.724327 236.639672 
L 368.164775 237.7846 
L 368.205826 238.608949 
L 367.998516 239.059243 
L 367.522568 241.441888 
L 367.509516 242.315261 
L 367.794311 242.890435 
L 368.420466 243.747217 
L 368.806521 244.757621 
L 369.169543 244.566357 
L 369.447032 245.455767 
L 369.61941 247.222662 
L 370.147159 248.053763 
L 370.635348 248.557733 
L 370.896533 249.013137 
L 370.938715 250.654554 
L 371.214115 251.653266 
L 370.641021 253.199206 
L 370.365971 254.618632 
L 370.074909 254.378365 
L 370.18043 253.436359 
L 370.651434 253.23952 
L 371.055808 253.728194 
L 371.806099 254.08773 
L 371.95297 253.267187 
L 371.600851 253.886557 
L 371.293699 254.691378 
L 370.620121 255.682007 
L 368.72921 254.407851 
L 368.630462 255.31361 
L 368.599917 255.096971 
L 368.176152 255.001807 
L 367.705015 255.208882 
L 367.499645 254.212541 
L 367.519257 252.471367 
L 367.096296 250.50597 
L 366.612721 249.747966 
L 366.564963 248.409502 
L 366.661617 247.304088 
L 366.87144 247.011464 
L 366.856247 248.380269 
L 366.807926 247.992104 
L 367.00709 248.0116 
L 366.839607 248.358487 
L 366.630847 247.531045 
L 367.191586 245.112518 
L 367.310328 243.245673 
L 366.945429 242.40779 
L 367.085749 242.06262 
L 367.315343 240.704496 
L 367.051384 240.754858 
L 367.19549 241.106397 
L 367.038564 241.107117 
L 367.174328 241.14931 
L 367.336455 241.452804 
L 367.597092 243.275817 
L 367.914978 243.972526 
L 368.061391 243.879974 
L 368.103424 244.100465 
L 368.363912 244.800003 
L 368.667904 244.608476 
L 368.778835 243.654738 
L 368.734305 242.01896 
L 368.902009 240.303047 
L 369.152796 239.37209 
L 369.419194 239.249681 
L 369.27214 239.023886 
L 368.76966 239.197828 
L 368.777931 238.441406 
L 369.003982 235.547985 
L 370.050295 233.886619 
L 370.381804 232.388871 
L 370.356017 231.137508 
L 370.472236 231.276584 
L 370.765212 230.681871 
L 370.725003 230.897355 
L 370.611362 230.025796 
L 370.151838 229.250395 
L 369.851271 229.941309 
L 370.155602 230.56559 
L 370.399618 230.469067 
L 370.003319 230.727025 
L 370.038771 229.858444 
L 369.502388 228.534264 
L 369.496271 226.499807 
L 368.847904 226.7549 
L 368.278284 226.801804 
L 367.187647 228.783237 
L 366.041924 229.98837 
L 366.17458 231.35559 
L 365.914598 231.404306 
L 364.957915 231.30409 
L 364.399645 232.294915 
L 364.134636 233.261913 
L 363.405526 233.043701 
L 362.727947 232.314379 
L 361.970702 231.767907 
L 361.129867 230.916101 
L 360.34658 230.304204 
L 358.210326 230.234334 
L 357.338124 230.438326 
L 356.867756 231.316659 
L 355.899911 232.433869 
L 355.227088 234.539158 
L 353.310457 237.27524 
L 352.593661 237.318295 
L 351.530292 238.020021 
L 350.68847 237.791332 
L 348.715652 235.760106 
L 347.725183 235.86657 
L 345.431276 237.063391 
L 344.227049 237.421511 
L 341.965285 239.27649 
L 340.835038 238.761587 
L 340.155619 239.489694 
L 337.937092 239.444378 
L 336.506043 239.057945 
L 335.29557 238.192332 
L 331.761015 236.59759 
L 330.856552 237.208395 
L 329.732479 236.736013 
L 328.52522 236.088575 
L 327.503421 236.263909 
L 325.693298 234.346873 
L 323.421887 232.719647 
L 322.447027 231.846894 
L 321.945039 231.647864 
L 321.400571 230.366828 
L 319.445703 227.258292 
L 316.957118 219.486213 
L 315.592068 216.650042 
L 315.186906 215.044706 
L 314.22797 213.20121 
L 312.855332 211.15795 
L 312.167887 209.811559 
L 311.586055 209.505129 
L 311.800415 209.04699 
L 311.643379 208.324272 
L 311.764178 209.336659 
L 311.387348 208.926626 
L 310.916231 207.330078 
L 310.33765 205.924556 
L 309.856196 205.575694 
L 309.080447 206.209181 
L 308.557926 206.069274 
L 307.82623 205.34222 
L 307.60396 204.898859 
L 307.311196 205.213345 
L 306.828786 206.004071 
L 305.979802 204.844502 
L 305.624309 204.910883 
L 305.378979 205.647264 
L 305.124977 205.527633 
L 304.940855 206.173764 
L 304.698446 205.344806 
L 304.581045 204.327665 
L 304.676432 202.752182 
L 305.394045 199.648339 
L 305.405882 196.845376 
L 304.901304 195.419637 
L 303.172529 193.281903 
L 302.827176 191.751727 
L 302.033302 186.684673 
L 301.520139 185.119606 
L 301.180246 183.516812 
L 300.383758 178.454925 
L 299.948285 177.557899 
L 300.087286 176.987425 
L 299.879789 175.699838 
L 298.22319 169.726045 
L 297.476158 168.395659 
L 297.383648 167.97157 
L 296.946942 167.552866 
L 296.435244 167.563815 
L 295.907489 166.284568 
L 295.524451 165.816972 
L 294.863017 162.989045 
L 293.948608 163.031932 
L 293.541183 162.68417 
L 293.41735 163.226121 
L 293.237486 162.008734 
L 293.234793 160.640521 
L 292.973778 159.085153 
L 292.266504 158.558974 
L 292.167925 157.740475 
L 291.572116 157.771102 
L 291.098335 156.679385 
L 290.469086 155.585032 
L 289.873738 153.911782 
L 289.63158 151.474306 
L 289.051048 150.245713 
L 288.584107 148.592054 
L 288.601184 146.29966 
L 288.101025 145.255585 
L 287.448162 143.275091 
L 286.961 141.075807 
L 285.87727 138.071273 
L 284.953428 136.644811 
L 284.78063 136.963522 
L 284.697377 135.846478 
L 285.121248 134.851909 
L 284.796455 133.114221 
L 284.354945 132.569824 
L 284.457103 131.438815 
L 285.187582 129.689625 
L 285.178822 128.227397 
L 285.390879 126.077626 
L 285.378443 124.92663 
L 284.821251 121.895804 
L 284.287022 121.682421 
L 283.708423 121.285831 
L 283.379187 120.752219 
L 283.137142 121.018586 
L 283.259227 120.784656 
L 282.641274 120.333704 
L 282.212284 119.180505 
L 282.025173 117.238274 
L 281.612168 116.117173 
L 280.791498 116.695645 
L 280.366224 117.919233 
L 280.234297 119.161602 
L 279.766115 119.302751 
L 279.272175 118.14744 
L 278.942665 116.67287 
L 278.726913 116.433993 
L 278.242077 116.358831 
L 277.466699 115.856122 
L 277.15937 115.213769 
L 277.032537 115.310698 
L 277.979214 113.534926 
L 278.398891 114.115175 
L 278.218834 114.077526 
L 278.242143 113.055421 
L 278.609981 113.295974 
L 278.99635 112.591679 
L 279.941985 112.290359 
L 279.982647 112.609846 
L 280.036729 111.840134 
L 279.3063 108.275821 
L 279.474685 105.801618 
L 279.659523 105.548702 
L 279.589649 104.031594 
L 278.836693 102.002928 
L 278.167254 100.719344 
L 277.2741 96.234054 
L 276.984569 93.989753 
L 276.032994 88.541612 
L 275.650861 82.358013 
L 275.13102 79.836472 
L 274.558823 76.440571 
L 274.494342 73.931995 
L 274.167938 71.850841 
L 273.480423 68.775132 
L 272.666159 66.856872 
L 271.107515 63.835516 
L 270.541079 63.518697 
L 270.392945 62.989225 
L 270.466318 62.090956 
L 269.982506 60.61313 
L 269.522233 60.751591 
L 269.103531 61.304815 
L 268.225657 60.384186 
L 267.511634 59.32512 
L 266.544529 59.008509 
L 265.519357 59.315542 
L 264.789095 59.02144 
L 263.224393 57.790222 
L 262.668386 56.737005 
L 260.79167 54.758601 
L 259.611805 53.119349 
L 258.897338 52.510526 
L 258.850346 51.128566 
L 258.294287 49.978305 
L 257.379935 50.570588 
L 257.136013 49.318053 
L 256.588463 47.772445 
L 256.087399 47.124673 
L 255.514308 46.911366 
L 254.652995 45.778236 
L 253.327509 44.749386 
L 252.963023 44.422143 
L 252.022906 44.956369 
L 250.813727 46.227046 
L 249.848752 47.631699 
L 249.334965 48.112208 
L 248.78382 48.977058 
L 248.609611 50.164895 
L 247.89031 51.143739 
L 247.287106 51.683203 
L 246.674577 51.886883 
L 245.488986 51.639675 
L 244.367925 50.938644 
L 241.561868 47.559637 
L 240.871677 48.027127 
L 240.448011 47.077431 
L 239.5283 46.145365 
L 238.618738 46.138776 
L 237.635869 46.730083 
L 236.77014 47.099383 
L 236.100301 47.916052 
L 235.237926 48.318408 
L 234.91212 48.808713 
L 234.201885 50.082669 
L 232.828131 51.735848 
L 231.427771 53.148163 
L 229.768316 56.455997 
L 229.166963 57.241072 
L 228.675302 59.090316 
L 228.671329 63.244883 
L 228.498715 64.159927 
L 228.687456 65.081878 
L 228.657516 64.239768 
L 227.963919 64.272767 
L 227.636189 64.94326 
L 227.655434 66.058884 
L 227.114071 70.172433 
L 227.166964 71.648532 
L 226.305929 75.958088 
L 225.660283 77.754452 
L 224.460346 79.244513 
L 223.30536 81.848506 
L 222.44557 84.374546 
L 221.641396 87.630652 
L 220.986365 91.161599 
L 219.924711 93.56236 
L 218.48084 99.017189 
L 217.888838 101.024299 
L 217.709903 102.769996 
L 217.669306 104.90289 
L 217.060748 106.872615 
L 216.143222 110.832317 
L 215.643276 113.275141 
L 215.29403 116.095166 
L 214.864736 117.886207 
L 214.192754 121.872369 
L 213.861184 123.029667 
L 213.46119 123.701638 
L 213.001906 124.053578 
L 212.529182 124.237574 
L 211.967302 125.063279 
L 211.376465 125.369731 
L 210.863539 126.257458 
L 209.164413 130.472434 
L 208.439544 131.000148 
L 207.804414 130.90827 
L 207.440399 131.818673 
L 207.50432 132.273156 
L 207.104965 132.122627 
L 207.272148 131.532589 
L 207.528957 131.977351 
L 207.431738 132.84517 
L 207.243251 132.81916 
L 207.082927 133.303318 
L 206.975713 132.430293 
L 206.810436 131.703535 
L 206.129709 134.429846 
L 205.610117 136.332724 
L 203.857685 139.225193 
L 203.264628 142.718836 
L 202.907139 143.235463 
L 202.781211 144.866669 
L 202.410657 146.126228 
L 202.264223 147.235848 
L 201.445439 146.722123 
L 200.632142 144.901635 
L 199.867554 144.655973 
L 199.281347 143.849997 
L 198.651776 142.057412 
L 198.155822 141.419104 
L 197.983573 140.067244 
L 197.831889 139.926363 
L 197.425392 139.244194 
L 197.430597 138.850375 
L 197.244063 140.123535 
L 196.942875 140.5798 
L 196.793508 140.569024 
L 196.607725 141.177991 
L 196.06336 145.994992 
L 195.020785 148.432453 
L 194.867982 150.384407 
L 194.469956 152.095613 
L 193.694056 154.217671 
L 193.087995 155.33018 
L 192.389129 155.852104 
L 191.327567 155.663252 
L 190.322948 155.800043 
L 189.855668 156.987626 
L 189.158176 157.90134 
L 188.011429 158.075334 
L 187.147426 159.711434 
L 186.125284 161.370413 
L 185.419982 161.368804 
L 184.721334 161.113494 
L 184.306291 163.555274 
L 183.147662 170.667331 
L 182.547339 171.710135 
L 181.94142 170.527551 
L 181.87975 169.908497 
L 181.375102 170.003883 
L 181.039779 170.56409 
L 180.180761 170.860108 
L 178.667589 170.376139 
L 177.666782 171.023198 
L 176.955226 170.640752 
L 176.563682 170.83255 
L 176.092457 170.437344 
L 175.565565 168.963098 
L 175.069599 167.079853 
L 174.542765 165.521429 
L 173.266271 163.998396 
L 172.619902 164.558139 
L 171.959507 163.273732 
L 171.07283 162.637293 
L 170.517746 161.453383 
L 170.379475 160.42031 
L 169.716455 158.122641 
L 168.908857 157.383202 
L 168.148136 155.122384 
L 167.738069 153.985622 
L 167.275236 151.995821 
L 166.727272 151.039525 
L 166.29816 149.937446 
L 165.829362 149.450271 
L 164.283401 148.884594 
L 163.408082 149.032804 
L 163.186655 148.31339 
L 162.292621 148.305644 
L 161.421635 149.960254 
L 160.533053 148.753708 
L 159.908825 147.280932 
L 159.654202 144.28707 
L 158.065416 140.734164 
L 158.486662 140.034255 
L 158.892725 138.621833 
L 158.75601 137.265225 
L 158.827425 136.69001 
L 159.257172 135.017453 
L 159.595432 134.547166 
L 159.807175 134.908583 
L 159.844776 134.687264 
L 159.633929 133.707395 
L 159.095773 132.702912 
L 158.67363 131.125128 
L 158.117313 129.635329 
L 157.985868 127.741047 
L 157.538285 127.262284 
L 156.924595 126.417259 
L 156.192413 126.070398 
L 155.223303 128.195164 
L 154.583415 129.187375 
L 152.795247 129.223558 
L 151.608526 128.606597 
L 150.762992 127.70239 
L 149.806265 127.175236 
L 149.049309 126.308572 
L 148.60148 126.428972 
L 148.408882 127.826172 
L 148.647092 130.35989 
L 148.311964 130.571747 
L 148.130612 131.312643 
L 147.459099 131.280996 
L 147.228615 130.042105 
L 146.781847 128.854945 
L 146.95714 128.744512 
L 147.065336 130.709018 
L 146.81042 131.142578 
L 146.756061 130.012072 
L 146.656951 130.271054 
L 146.249552 129.513575 
L 145.983024 129.549924 
L 145.694205 129.934464 
L 145.251029 131.399659 
L 144.188036 132.952024 
L 143.363411 133.737547 
L 142.64073 134.610253 
L 142.048649 134.77812 
L 141.574363 135.683486 
L 141.517261 136.721018 
L 141.216923 137.865033 
L 140.506231 138.074998 
L 140.125899 137.469262 
L 139.128299 134.877809 
L 138.118494 133.666426 
L 137.457063 131.795421 
L 136.506315 129.783954 
L 135.530098 128.323938 
L 134.992758 125.711165 
L 134.758094 121.855401 
L 134.475087 121.765804 
L 134.458615 122.377588 
L 133.843995 123.83812 
L 133.303299 123.235918 
L 132.437498 123.446626 
L 129.475768 122.381001 
L 128.403296 121.673455 
L 127.11278 120.536996 
L 125.912575 119.756905 
L 125.033758 118.938358 
L 124.188435 118.629694 
L 123.510956 117.608105 
L 122.757528 117.495976 
L 121.726302 116.962735 
L 120.951449 115.868568 
L 118.739248 114.731143 
L 117.808535 114.438907 
L 117.005687 113.426145 
L 115.962211 113.254639 
L 115.076405 112.510318 
L 114.563334 112.270562 
L 114.14418 114.940631 
L 112.88943 117.091828 
L 112.366918 117.002355 
L 112.090441 115.66248 
L 111.759652 115.8314 
L 111.705011 115.408358 
L 111.804935 115.611855 
L 112.291946 115.06129 
L 112.162469 115.71337 
L 111.928353 115.891567 
L 111.387168 117.441459 
L 110.962629 118.027717 
L 110.404855 116.86485 
L 109.910019 116.409412 
L 109.539886 115.574883 
L 109.693569 113.812728 
L 109.957037 112.440746 
L 109.848611 110.649533 
L 109.562803 109.747 
L 109.719164 109.388949 
L 110.103467 109.228612 
L 110.75047 110.413215 
L 111.232032 110.75717 
L 111.98933 113.4249 
L 112.264272 116.581878 
L 112.865266 119.489852 
L 113.296355 123.234948 
L 113.970631 126.013534 
L 114.173451 127.838371 
L 115.39849 132.682494 
L 115.960503 133.988014 
L 116.1004 135.601891 
L 116.135836 136.524376 
L 115.486451 138.089408 
L 115.480492 141.225826 
L 115.504547 142.534308 
L 114.991915 143.098547 
L 114.588936 143.025067 
L 114.189774 141.875666 
L 113.794223 142.002676 
L 113.647668 142.833811 
L 113.228044 142.667557 
L 112.893412 143.600488 
L 111.550214 143.983818 
L 111.546094 143.226257 
L 111.781213 141.76842 
L 111.835195 140.068511 
L 111.554237 139.301036 
L 111.306362 138.168993 
L 111.287599 136.70038 
L 111.287599 136.70038 
" clip-path="url(#pc90b84c2ca)" style="fill: none; stroke: #1f77b4; stroke-width: 1.5; stroke-linecap: square"/>
   </g>
   <g id="patch_3">
    <path d="M 94.0475 266.245 
L 94.0475 33.85915 
" style="fill: none; stroke: #000000; stroke-width: 0.8; stroke-linejoin: miter; stroke-linecap: square"/>
   </g>
   <g id="patch_4">
    <path d="M 434.88 266.245 
L 434.88 33.85915 
" style="fill: none; stroke: #000000; stroke-width: 0.8; stroke-linejoin: miter; stroke-linecap: square"/>
   </g>
   <g id="patch_5">
    <path d="M 94.0475 266.245 
L 434.88 266.245 
" style="fill: none; stroke: #000000; stroke-width: 0.8; stroke-linejoin: miter; stroke-linecap: square"/>
   </g>
   <g id="patch_6">
    <path d="M 94.0475 33.85915 
L 434.88 33.85915 
" style="fill: none; stroke: #000000; stroke-width: 0.8; stroke-linejoin: miter; stroke-linecap: square"/>
   </g>
  </g>
 </g>
 <defs>
  <clipPath id="pc90b84c2ca">
   <rect x="94.0475" y="33.85915" width="340.8325" height="232.38585"/>
  </clipPath>
 </defs>
</svg>
